<svg version="1.2" baseProfile="tiny-ps" xmlns="http://www.w3.org/2000/svg" viewBox="0 0 900 600" width="900" height="600"><title></title><style>tspan { white-space:pre }.shp0 { fill: #0f204b } .shp1 { fill: #ffb612 } </style><path class="shp0" d="M0 0L900 0L900 600L0 600L0 0Z" /><g ><g ><path class="shp1" d="M720.13 78L710.48 107.67L725.32 112.49L720.13 78Z" /><path class="shp1" d="M720.13 78L729.77 107.67L714.93 112.49L720.13 78Z" /></g><g ><path class="shp1" d="M749.81 99.56L718.6 99.56L718.6 115.16L749.81 99.56Z" /><path class="shp1" d="M749.81 99.56L724.56 117.9L715.39 105.28L749.81 99.56Z" /></g><g ><path class="shp1" d="M690.44 99.56L715.69 117.9L724.87 105.28L690.44 99.56Z" /><path class="shp1" d="M690.44 99.56L721.65 99.56L721.65 115.16L690.44 99.56Z" /></g><g ><path class="shp1" d="M738.47 134.44L728.83 104.77L713.99 109.59L738.47 134.44Z" /><path class="shp1" d="M738.47 134.44L713.22 116.1L722.4 103.48L738.47 134.44Z" /></g><g ><path class="shp1" d="M701.78 134.44L727.03 116.1L717.86 103.48L701.78 134.44Z" /><path class="shp1" d="M701.78 134.44L711.43 104.77L726.27 109.59L701.78 134.44Z" /></g></g><g ><g ><path class="shp1" d="M162.46 219L156.71 236.69L165.56 239.56L162.46 219Z" /><path class="shp1" d="M162.46 219L168.22 236.69L159.37 239.56L162.46 219Z" /></g><g ><path class="shp1" d="M180.16 231.85L161.55 231.85L161.55 241.15L180.16 231.85Z" /><path class="shp1" d="M180.16 231.85L165.11 242.79L159.64 235.26L180.16 231.85Z" /></g><g ><path class="shp1" d="M144.77 231.85L159.82 242.79L165.29 235.26L144.77 231.85Z" /><path class="shp1" d="M144.77 231.85L163.38 231.85L163.38 241.15L144.77 231.85Z" /></g><g ><path class="shp1" d="M173.4 252.65L167.65 234.96L158.8 237.83L173.4 252.65Z" /><path class="shp1" d="M173.4 252.65L158.35 241.71L163.82 234.19L173.4 252.65Z" /></g><g ><path class="shp1" d="M151.53 252.65L166.58 241.71L161.11 234.19L151.53 252.65Z" /><path class="shp1" d="M151.53 252.65L157.28 234.96L166.13 237.83L151.53 252.65Z" /></g></g><g ><g ><path class="shp1" d="M262.71 256.2L256.96 273.89L265.81 276.76L262.71 256.2Z" /><path class="shp1" d="M262.71 256.2L268.46 273.89L259.61 276.76L262.71 256.2Z" /></g><g ><path class="shp1" d="M280.41 269.05L261.8 269.05L261.8 278.35L280.41 269.05Z" /><path class="shp1" d="M280.41 269.05L265.36 279.99L259.89 272.46L280.41 269.05Z" /></g><g ><path class="shp1" d="M245.01 269.05L260.07 279.99L265.54 272.46L245.01 269.05Z" /><path class="shp1" d="M245.01 269.05L263.62 269.05L263.62 278.35L245.01 269.05Z" /></g><g ><path class="shp1" d="M273.65 289.85L267.9 272.16L259.05 275.03L273.65 289.85Z" /><path class="shp1" d="M273.65 289.85L258.6 278.91L264.06 271.39L273.65 289.85Z" /></g><g ><path class="shp1" d="M251.77 289.85L266.83 278.91L261.36 271.39L251.77 289.85Z" /><path class="shp1" d="M251.77 289.85L257.52 272.16L266.37 275.03L251.77 289.85Z" /></g></g><g ><g ><path class="shp1" d="M312.54 309.6L306.78 327.29L315.63 330.16L312.54 309.6Z" /><path class="shp1" d="M312.54 309.6L318.29 327.29L309.44 330.16L312.54 309.6Z" /></g><g ><path class="shp1" d="M330.23 322.45L311.62 322.45L311.62 331.75L330.23 322.45Z" /><path class="shp1" d="M330.23 322.45L315.18 333.39L309.71 325.86L330.23 322.45Z" /></g><g ><path class="shp1" d="M294.84 322.45L309.89 333.39L315.36 325.86L294.84 322.45Z" /><path class="shp1" d="M294.84 322.45L313.45 322.45L313.45 331.75L294.84 322.45Z" /></g><g ><path class="shp1" d="M323.47 343.25L317.72 325.56L308.87 328.43L323.47 343.25Z" /><path class="shp1" d="M323.47 343.25L308.42 332.31L313.89 324.79L323.47 343.25Z" /></g><g ><path class="shp1" d="M301.6 343.25L316.65 332.31L311.18 324.79L301.6 343.25Z" /><path class="shp1" d="M301.6 343.25L307.35 325.56L316.2 328.43L301.6 343.25Z" /></g></g><g ><g ><path class="shp1" d="M362.96 365.4L357.21 383.09L366.06 385.96L362.96 365.4Z" /><path class="shp1" d="M362.96 365.4L368.71 383.09L359.86 385.96L362.96 365.4Z" /></g><g ><path class="shp1" d="M380.66 378.25L362.05 378.25L362.05 387.55L380.66 378.25Z" /><path class="shp1" d="M380.66 378.25L365.6 389.19L360.13 381.66L380.66 378.25Z" /></g><g ><path class="shp1" d="M345.26 378.25L360.32 389.19L365.78 381.66L345.26 378.25Z" /><path class="shp1" d="M345.26 378.25L363.87 378.25L363.87 387.55L345.26 378.25Z" /></g><g ><path class="shp1" d="M373.9 399.05L368.15 381.36L359.3 384.23L373.9 399.05Z" /><path class="shp1" d="M373.9 399.05L358.84 388.11L364.31 380.59L373.9 399.05Z" /></g><g ><path class="shp1" d="M352.02 399.05L367.08 388.11L361.61 380.59L352.02 399.05Z" /><path class="shp1" d="M352.02 399.05L357.77 381.36L366.62 384.23L352.02 399.05Z" /></g></g><g ><g ><path class="shp1" d="M513.03 418.8L507.28 436.49L516.13 439.36L513.03 418.8Z" /><path class="shp1" d="M513.03 418.8L518.78 436.49L509.93 439.36L513.03 418.8Z" /></g><g ><path class="shp1" d="M530.73 431.65L512.12 431.65L512.12 440.95L530.73 431.65Z" /><path class="shp1" d="M530.73 431.65L515.67 442.59L510.2 435.06L530.73 431.65Z" /></g><g ><path class="shp1" d="M495.33 431.65L510.39 442.59L515.86 435.06L495.33 431.65Z" /><path class="shp1" d="M495.33 431.65L513.94 431.65L513.94 440.95L495.33 431.65Z" /></g><g ><path class="shp1" d="M523.97 452.45L518.22 434.76L509.37 437.63L523.97 452.45Z" /><path class="shp1" d="M523.97 452.45L508.91 441.51L514.38 433.99L523.97 452.45Z" /></g><g ><path class="shp1" d="M502.09 452.45L517.15 441.51L511.68 433.99L502.09 452.45Z" /><path class="shp1" d="M502.09 452.45L507.84 434.76L516.69 437.63L502.09 452.45Z" /></g></g><g ><g ><path class="shp1" d="M356.36 444L350.61 461.69L359.45 464.56L356.36 444Z" /><path class="shp1" d="M356.36 444L362.11 461.69L353.26 464.56L356.36 444Z" /></g><g ><path class="shp1" d="M374.05 456.85L355.45 456.85L355.45 466.15L374.05 456.85Z" /><path class="shp1" d="M374.05 456.85L359 467.79L353.53 460.26L374.05 456.85Z" /></g><g ><path class="shp1" d="M338.66 456.85L353.71 467.79L359.18 460.26L338.66 456.85Z" /><path class="shp1" d="M338.66 456.85L357.27 456.85L357.27 466.15L338.66 456.85Z" /></g><g ><path class="shp1" d="M367.29 477.65L361.54 459.96L352.69 462.83L367.29 477.65Z" /><path class="shp1" d="M367.29 477.65L352.24 466.71L357.71 459.19L367.29 477.65Z" /></g><g ><path class="shp1" d="M345.42 477.65L360.47 466.71L355 459.19L345.42 477.65Z" /><path class="shp1" d="M345.42 477.65L351.17 459.96L360.02 462.83L345.42 477.65Z" /></g></g><g ><g ><path class="shp1" d="M469.21 481.2L463.46 498.89L472.31 501.76L469.21 481.2Z" /><path class="shp1" d="M469.21 481.2L474.96 498.89L466.11 501.76L469.21 481.2Z" /></g><g ><path class="shp1" d="M486.91 494.05L468.3 494.05L468.3 503.35L486.91 494.05Z" /><path class="shp1" d="M486.91 494.05L471.85 504.99L466.38 497.46L486.91 494.05Z" /></g><g ><path class="shp1" d="M451.51 494.05L466.57 504.99L472.03 497.46L451.51 494.05Z" /><path class="shp1" d="M451.51 494.05L470.12 494.05L470.12 503.35L451.51 494.05Z" /></g><g ><path class="shp1" d="M480.15 514.85L474.4 497.16L465.55 500.03L480.15 514.85Z" /><path class="shp1" d="M480.15 514.85L465.09 503.91L470.56 496.39L480.15 514.85Z" /></g><g ><path class="shp1" d="M458.27 514.85L473.33 503.91L467.86 496.39L458.27 514.85Z" /><path class="shp1" d="M458.27 514.85L464.02 497.16L472.87 500.03L458.27 514.85Z" /></g></g></svg>