<svg version="1.2" baseProfile="tiny-ps" xmlns="http://www.w3.org/2000/svg" viewBox="0 0 750 500" width="900" height="600"><title></title><style>tspan { white-space:pre }.shp0 { fill: #74acdf } .shp1 { fill: #ffffff } .shp2 { fill: #f6b40e;stroke: #85340a;stroke-width: 1.112 } .shp3 { fill: #85340a } .shp4 { fill: #f6b40e;stroke: #85340a;stroke-width: 1.5 } .shp5 { fill: #843511 } </style><path class="shp0" d="M-25 0L775 0L775 500L-25 500L-25 0Z" /><path class="shp1" d="M-25 166.67L775 166.67L775 333.34L-25 333.34L-25 166.67Z" /><g ><path class="shp2" d="M371.84 251.31L400.29 313.3C400.29 313.3 400.78 314.49 401.57 314.16C402.36 313.83 401.87 312.65 401.87 312.65L378.16 248.69M377.48 272.81C377.13 282.24 382.93 287.43 382.17 295.85C381.42 304.27 386.04 309.03 387.11 312.3C388.19 315.57 385.95 317.53 386.91 318C387.88 318.46 389.98 315.88 389.3 311.22C388.61 306.57 385.08 305.18 385.91 294.9C386.74 284.62 381.7 282.22 382.93 272.84" /><path class="shp2" d="M371.58 250L374.14 318.16C374.14 318.16 374.14 319.45 375 319.45C375.85 319.45 375.85 318.16 375.85 318.16L378.42 250M368.56 272.02C364.63 280.6 368 287.61 364.08 295.1C360.16 302.59 362.61 308.76 362.35 312.19C362.09 315.63 359.27 316.58 359.99 317.38C360.7 318.18 363.63 316.6 364.78 312.03C365.93 307.47 363.19 304.84 367.89 295.66C372.6 286.48 368.86 282.34 373.58 274.14" /><path class="shp2" d="M371.84 248.69L348.12 312.65C348.12 312.65 347.63 313.83 348.42 314.16C349.21 314.49 349.7 313.3 349.7 313.3L378.16 251.31M360.62 267.88C353.71 274.3 354.14 282.07 347.65 287.49C341.17 292.91 341.07 299.54 339.51 302.62C337.96 305.69 334.99 305.5 335.34 306.51C335.69 307.52 339.01 307.18 341.82 303.4C344.63 299.62 343.1 296.15 350.96 289.46C358.82 282.78 356.95 277.52 364.45 271.76" /><path class="shp2" d="M372.58 247.58L326.2 297.59C326.2 297.59 325.29 298.5 325.89 299.1C326.5 299.71 327.4 298.8 327.4 298.8L377.42 252.42M354.87 261.02C346.03 264.31 343.46 271.65 335.39 274.17C327.32 276.69 324.69 282.79 322.08 285.03C319.46 287.28 316.8 285.96 316.74 287.03C316.68 288.1 319.87 289.05 323.91 286.64C327.95 284.22 327.87 280.43 337.69 277.26C347.51 274.09 347.79 268.52 356.93 266.07" /><path class="shp3" d="M379.31 274.41C379.76 283.46 384.9 287.47 383.89 295.72C386.1 289.2 380.77 284.14 381.07 274.5M373.42 250.75L392.91 293.32L376.58 249.44" /><path class="shp3" d="M369.64 274.2C366.59 282.74 369.8 288.41 365.71 295.65C370.26 290.46 367.26 283.75 371.23 274.96M373.25 250.09L374.96 296.88L376.67 250.08" /><path class="shp3" d="M360.79 270.31C354.71 277.03 355.5 283.5 348.95 288.62C355.13 285.57 354.94 278.22 361.96 271.62M373.35 249.41L357.03 293.3L376.51 250.72" /><path class="shp3" d="M354.1 263.32C345.91 267.21 344.17 273.48 336.16 275.71C343.03 275.26 345.66 268.39 354.68 264.98M373.71 248.83L341.83 283.12L376.12 251.24" /></g><g ><path class="shp2" d="M373.69 246.84L311.7 275.29C311.7 275.29 310.51 275.78 310.84 276.57C311.17 277.36 312.35 276.87 312.35 276.87L376.31 253.16M352.19 252.48C342.76 252.13 337.57 257.93 329.15 257.17C320.73 256.42 315.97 261.04 312.7 262.11C309.43 263.19 307.47 260.95 307 261.91C306.54 262.88 309.12 264.98 313.78 264.3C318.43 263.61 319.82 260.08 330.1 260.91C340.38 261.74 342.78 256.7 352.16 257.93" /><path class="shp2" d="M375 246.58L306.84 249.14C306.84 249.14 305.55 249.14 305.55 250C305.55 250.85 306.84 250.85 306.84 250.85L375 253.42M352.98 243.56C344.4 239.63 337.39 243 329.9 239.08C322.41 235.16 316.24 237.61 312.81 237.35C309.37 237.09 308.42 234.27 307.62 234.99C306.82 235.7 308.4 238.63 312.97 239.78C317.53 240.93 320.16 238.19 329.34 242.89C338.52 247.6 342.66 243.86 350.86 248.58" /><path class="shp2" d="M376.31 246.84L312.35 223.12C312.35 223.12 311.17 222.63 310.84 223.42C310.51 224.21 311.7 224.7 311.7 224.7L373.69 253.16M357.12 235.62C350.7 228.71 342.93 229.14 337.51 222.65C332.09 216.17 325.46 216.07 322.38 214.51C319.31 212.96 319.5 209.99 318.49 210.34C317.48 210.69 317.82 214.01 321.6 216.82C325.38 219.63 328.85 218.1 335.54 225.96C342.22 233.82 347.48 231.95 353.24 239.45" /><path class="shp2" d="M377.42 247.58L327.41 201.2C327.41 201.2 326.5 200.29 325.9 200.89C325.29 201.5 326.2 202.4 326.2 202.4L372.58 252.42M363.98 229.87C360.69 221.03 353.35 218.46 350.83 210.39C348.31 202.32 342.21 199.69 339.97 197.08C337.72 194.46 339.04 191.8 337.97 191.74C336.9 191.68 335.95 194.87 338.36 198.91C340.78 202.95 344.57 202.87 347.74 212.69C350.91 222.51 356.48 222.79 358.93 231.93" /><path class="shp3" d="M350.59 254.31C341.54 254.76 337.53 259.9 329.28 258.89C335.8 261.1 340.86 255.77 350.5 256.07M374.25 248.42L331.68 267.91L375.56 251.58" /><path class="shp3" d="M350.8 244.64C342.26 241.59 336.59 244.8 329.35 240.71C334.54 245.26 341.25 242.26 350.04 246.23M374.91 248.25L328.12 249.96L374.92 251.67" /><path class="shp3" d="M354.69 235.79C347.97 229.71 341.5 230.5 336.38 223.95C339.43 230.13 346.78 229.94 353.38 236.96M375.59 248.35L331.7 232.03L374.28 251.51" /><path class="shp3" d="M361.68 229.1C357.79 220.91 351.52 219.17 349.29 211.16C349.74 218.03 356.61 220.66 360.02 229.68M376.17 248.71L341.88 216.83L373.76 251.12" /></g><g ><path class="shp2" d="M378.16 248.69L349.71 186.7C349.71 186.7 349.22 185.51 348.43 185.84C347.64 186.17 348.13 187.35 348.13 187.35L371.84 251.31M372.52 227.19C372.87 217.76 367.07 212.57 367.83 204.15C368.58 195.73 363.96 190.97 362.89 187.7C361.81 184.43 364.05 182.47 363.09 182C362.12 181.54 360.02 184.12 360.7 188.78C361.39 193.43 364.92 194.82 364.09 205.1C363.26 215.38 368.3 217.78 367.07 227.16" /><path class="shp2" d="M378.42 250L375.86 181.84C375.86 181.84 375.86 180.55 375 180.55C374.15 180.55 374.15 181.84 374.15 181.84L371.58 250M381.44 227.98C385.37 219.4 382 212.39 385.92 204.9C389.84 197.41 387.39 191.24 387.65 187.81C387.91 184.37 390.73 183.42 390.01 182.62C389.3 181.82 386.37 183.4 385.22 187.97C384.07 192.53 386.81 195.16 382.11 204.34C377.4 213.52 381.14 217.66 376.42 225.86" /><path class="shp2" d="M378.16 251.31L401.88 187.35C401.88 187.35 402.37 186.17 401.58 185.84C400.79 185.51 400.3 186.7 400.3 186.7L371.84 248.69M389.38 232.12C396.29 225.7 395.86 217.93 402.35 212.51C408.83 207.09 408.93 200.46 410.49 197.38C412.04 194.31 415.01 194.5 414.66 193.49C414.31 192.48 410.99 192.82 408.18 196.6C405.37 200.38 406.9 203.85 399.04 210.54C391.18 217.22 393.05 222.48 385.55 228.24" /><path class="shp2" d="M377.42 252.42L423.8 202.41C423.8 202.41 424.71 201.5 424.11 200.9C423.5 200.29 422.6 201.2 422.6 201.2L372.58 247.58M395.13 238.98C403.97 235.69 406.54 228.35 414.61 225.83C422.68 223.31 425.31 217.21 427.92 214.97C430.54 212.72 433.2 214.04 433.26 212.97C433.32 211.9 430.13 210.95 426.09 213.36C422.05 215.78 422.13 219.57 412.31 222.74C402.49 225.91 402.21 231.48 393.07 233.93" /><path class="shp3" d="M370.69 225.59C370.24 216.54 365.1 212.53 366.11 204.28C363.9 210.8 369.23 215.86 368.93 225.5M376.58 249.25L357.09 206.68L373.42 250.56" /><path class="shp3" d="M380.36 225.8C383.41 217.26 380.2 211.59 384.29 204.35C379.74 209.54 382.74 216.25 378.77 225.04M376.75 249.91L375.04 203.12L373.33 249.92" /><path class="shp3" d="M389.21 229.69C395.29 222.97 394.5 216.5 401.05 211.38C394.87 214.43 395.06 221.78 388.04 228.38M376.65 250.59L392.97 206.7L373.49 249.28" /><path class="shp3" d="M395.9 236.68C404.09 232.79 405.83 226.52 413.84 224.29C406.97 224.74 404.34 231.61 395.32 235.02M376.29 251.17L408.17 216.88L373.88 248.76" /></g><g ><path class="shp2" d="M376.31 253.16L438.3 224.71C438.3 224.71 439.49 224.22 439.16 223.43C438.83 222.64 437.65 223.13 437.65 223.13L373.69 246.84M397.81 247.52C407.24 247.87 412.43 242.07 420.85 242.83C429.27 243.58 434.03 238.96 437.3 237.89C440.57 236.81 442.53 239.05 443 238.09C443.46 237.12 440.88 235.02 436.22 235.7C431.57 236.39 430.18 239.92 419.9 239.09C409.62 238.26 407.22 243.3 397.84 242.07" /><path class="shp2" d="M375 253.42L443.16 250.86C443.16 250.86 444.45 250.86 444.45 250C444.45 249.15 443.16 249.15 443.16 249.15L375 246.58M397.02 256.44C405.6 260.37 412.61 257 420.1 260.92C427.59 264.84 433.76 262.39 437.19 262.65C440.63 262.91 441.58 265.73 442.38 265.01C443.18 264.3 441.6 261.37 437.03 260.22C432.47 259.07 429.84 261.81 420.66 257.11C411.48 252.4 407.34 256.14 399.14 251.42" /><path class="shp2" d="M373.69 253.16L437.65 276.88C437.65 276.88 438.83 277.37 439.16 276.58C439.49 275.79 438.3 275.3 438.3 275.3L376.31 246.84M392.88 264.38C399.3 271.29 407.07 270.86 412.49 277.35C417.91 283.83 424.54 283.93 427.62 285.49C430.69 287.04 430.5 290.01 431.51 289.66C432.52 289.31 432.18 285.99 428.4 283.18C424.62 280.37 421.15 281.9 414.46 274.04C407.78 266.18 402.52 268.05 396.76 260.55" /><path class="shp2" d="M372.58 252.42L422.59 298.8C422.59 298.8 423.5 299.71 424.1 299.11C424.71 298.5 423.8 297.6 423.8 297.6L377.42 247.58M386.02 270.13C389.31 278.97 396.65 281.54 399.17 289.61C401.69 297.68 407.79 300.31 410.03 302.92C412.28 305.54 410.96 308.2 412.03 308.26C413.1 308.32 414.05 305.13 411.64 301.09C409.22 297.05 405.43 297.13 402.26 287.31C399.09 277.49 393.52 277.21 391.07 268.07" /><path class="shp3" d="M399.41 245.69C408.46 245.24 412.47 240.1 420.72 241.11C414.2 238.9 409.14 244.23 399.5 243.93M375.75 251.58L418.32 232.09L374.44 248.42" /><path class="shp3" d="M399.2 255.36C407.74 258.41 413.41 255.2 420.65 259.29C415.46 254.74 408.75 257.74 399.96 253.77M375.09 251.75L421.88 250.04L375.08 248.33" /><path class="shp3" d="M395.31 264.21C402.03 270.29 408.5 269.5 413.62 276.05C410.57 269.87 403.22 270.06 396.62 263.04M374.41 251.65L418.3 267.97L375.72 248.49" /><path class="shp3" d="M388.32 270.9C392.21 279.09 398.48 280.83 400.71 288.84C400.26 281.97 393.39 279.34 389.98 270.32M373.83 251.29L408.12 283.17L376.24 248.88" /></g><path class="shp4" d="M375 277.78C359.64 277.78 347.22 265.36 347.22 250C347.22 234.64 359.64 222.22 375 222.22C390.36 222.22 402.78 234.64 402.78 250C402.78 265.36 390.36 277.78 375 277.78Z" /><path fill-rule="evenodd" class="shp5" d="M384.47 244.06C386.37 244.06 388.36 244.88 389.75 246.37C386.55 248.72 381.83 248.51 379.69 246.59C380.76 244.88 382.57 244.06 384.47 244.06L384.47 244.06ZM384.44 244.5C383 244.52 381.5 245.1 380.56 246.59C382.7 248.3 386.11 248.5 388.25 246.15C388.01 245.31 386.29 244.46 384.44 244.5L384.44 244.5Z" /><path class="shp3" d="M384.83 242.74C382.05 242.74 381.41 243.38 380.13 244.45C378.85 245.52 378.21 245.3 377.99 245.52C377.78 245.73 377.99 246.37 378.42 246.16C378.85 245.94 379.7 245.52 380.98 244.45C382.27 243.38 383.55 243.38 384.83 243.38C388.68 243.38 390.81 246.59 391.24 246.37C391.66 246.16 389.1 242.74 384.83 242.74L384.83 242.74Z" /><path class="shp3" d="M392.52 244.02C387.61 239.75 381.41 239.11 377.99 242.31C377.15 243.43 376.62 244.63 376.4 245.88C375.97 248.31 376.73 250.94 378.63 253.64C378.42 253.64 377.99 253.85 377.78 254.06C376.08 250.82 375.48 247.49 376.04 244.32C376.18 243.49 376.41 242.68 376.71 241.88C381.41 238.04 387.82 237.61 392.52 244.02L392.52 244.02Z" /><path class="shp3" d="M384.4 248.07C383.34 248.07 382.48 247.21 382.48 246.15C382.48 245.09 383.34 244.23 384.4 244.23C385.47 244.23 386.33 245.09 386.33 246.15C386.33 247.21 385.47 248.07 384.4 248.07Z" /><path class="shp3" d="M389.96 247.44C386.33 250.22 382.69 250 380.56 248.72C378.42 247.44 378.42 247.01 378.85 247.01C379.27 247.01 379.7 247.44 381.41 248.29C383.12 249.15 385.68 249.15 389.96 247.44L389.96 247.44Z" /><path class="shp3" d="M370.75 253.84C369.84 254.01 369.19 254.82 369.19 255.75C369.19 256.81 370.06 257.65 371.13 257.65C371.75 257.65 372.33 257.36 372.69 256.84C373.43 257.4 374.45 257.46 375 257.46C375.08 257.47 375.19 257.46 375.25 257.46C375.8 257.45 376.82 257.4 377.56 256.84C377.92 257.36 378.5 257.65 379.13 257.65C380.19 257.65 381.06 256.81 381.06 255.75C381.06 254.82 380.41 254.01 379.5 253.84C380.01 254.02 380.34 254.52 380.34 255.06C380.34 255.77 379.77 256.34 379.06 256.34C378.38 256.34 377.82 255.8 377.78 255.12C377.57 255.54 376.75 256.78 375.13 256.84C373.5 256.78 372.68 255.54 372.47 255.12C372.43 255.8 371.87 256.34 371.19 256.34C370.48 256.34 369.91 255.77 369.91 255.06C369.91 254.52 370.24 254.02 370.75 253.84L370.75 253.84Z" /><path class="shp3" d="M372.84 259.53C370.7 259.53 369.86 261.47 367.93 262.75C369 262.32 369.84 261.48 371.34 260.62C372.84 259.77 374.11 260.81 374.96 260.81L375 260.81C375.85 260.81 377.13 259.77 378.62 260.62C380.12 261.48 380.99 262.32 382.06 262.75C380.14 261.47 379.26 259.53 377.12 259.53C376.69 259.53 375.85 259.76 375 260.19L374.96 260.19C374.11 259.76 373.27 259.53 372.84 259.53Z" /><path class="shp3" d="M372.12 262.06C371.28 262.1 370.16 262.27 368.56 262.75C372.4 261.89 373.25 263.19 374.96 263.19L374.99 263.19C376.7 263.19 377.55 261.89 381.4 262.75C377.13 261.47 376.28 262.31 374.99 262.31L374.96 262.31C374.16 262.31 373.53 262 372.12 262.06L372.12 262.06Z" /><path class="shp3" d="M368.75 262.72C368.5 262.72 368.23 262.73 367.94 262.75C372.43 263.18 370.27 265.75 374.97 265.75L375 265.75C379.7 265.75 377.57 263.18 382.06 262.75C377.36 262.32 378.85 265.1 375 265.1L374.97 265.1C371.36 265.1 372.47 262.67 368.75 262.72L368.75 262.72Z" /><path class="shp3" d="M378.85 269.66C378.85 267.54 377.13 265.81 375 265.81C372.88 265.81 371.16 267.54 371.16 269.66C371.58 267.88 373.17 266.62 375 266.62C376.84 266.62 378.43 267.88 378.85 269.66L378.85 269.66L378.85 269.66Z" /><path class="shp3" d="M357.73 244.02C362.64 239.75 368.84 239.11 372.26 242.31C373.1 243.43 373.63 244.63 373.85 245.88C374.28 248.31 373.52 250.94 371.62 253.64C371.83 253.64 372.26 253.85 372.47 254.06C374.17 250.82 374.77 247.49 374.21 244.32C374.07 243.49 373.84 242.68 373.54 241.88C368.84 238.04 362.43 237.61 357.73 244.02L357.73 244.02Z" /><path class="shp3" d="M365.42 242.74C368.2 242.74 368.84 243.38 370.12 244.45C371.4 245.52 372.04 245.3 372.26 245.52C372.47 245.73 372.26 246.37 371.83 246.16C371.4 245.94 370.55 245.52 369.27 244.45C367.98 243.38 366.7 243.38 365.42 243.38C361.57 243.38 359.44 246.59 359.01 246.37C358.59 246.16 361.15 242.74 365.42 242.74L365.42 242.74Z" /><path fill-rule="evenodd" class="shp5" d="M365.29 244.06C367.19 244.06 369.18 244.88 370.57 246.37C367.36 248.72 362.64 248.51 360.51 246.59C361.58 244.88 363.39 244.06 365.29 244.06L365.29 244.06ZM365.26 244.5C363.82 244.52 362.32 245.1 361.38 246.59C363.52 248.3 366.93 248.5 369.07 246.15C368.83 245.31 367.1 244.46 365.26 244.5L365.26 244.5Z" /><path class="shp3" d="M365.54 248.07C364.48 248.07 363.62 247.21 363.62 246.15C363.62 245.09 364.48 244.23 365.54 244.23C366.6 244.23 367.46 245.09 367.46 246.15C367.46 247.21 366.6 248.07 365.54 248.07Z" /><path class="shp3" d="M360.29 247.44C363.92 250.22 367.56 250 369.69 248.72C371.83 247.44 371.83 247.01 371.4 247.01C370.98 247.01 370.55 247.44 368.84 248.29C367.13 249.15 364.57 249.15 360.29 247.44L360.29 247.44Z" /></svg>