<svg version="1.2" baseProfile="tiny-ps" xmlns="http://www.w3.org/2000/svg" viewBox="0 0 900 600" width="900" height="600"><style>tspan { white-space:pre }.shp0 { fill: #ffffff } .shp1 { fill: #239f40 } .shp2 { fill: #da0000 } .shp3 { fill: #ffcb00 } </style><g ><path class="shp0" d="M-150 0L1050 0L1050 600L-150 600L-150 0Z" /><path class="shp1" d="M-150 0L1050 0L1050 200L-150 200L-150 0Z" /><path class="shp2" d="M-150 400L1050 400L1050 600L-150 600L-150 400Z" /><g ><path fill-rule="evenodd" class="shp3" d="M338.28 386.19L351.89 386.19C359.38 386.19 365.5 386.12 365.5 386.05C365.5 385.97 365.43 385.84 365.35 385.74C365.28 385.65 365.12 385.26 365.01 384.87C364.53 383.19 364.92 381.82 366.27 380.44C366.88 379.81 367.05 379.49 367.15 378.8C367.34 377.54 368.17 376.14 369.62 374.66C371.84 372.4 373.37 371.92 378.51 371.88C381.69 371.86 382.14 371.8 382.14 371.4C382.14 371.29 382.46 370.84 382.84 370.41C384.17 368.95 385.95 366.03 385.95 365.33C385.95 365.21 386.11 364.78 386.3 364.39C386.49 363.99 386.65 363.6 386.65 363.52C386.65 363.44 386.8 363.05 386.99 362.65C387.18 362.26 387.34 361.83 387.34 361.7C387.34 361.57 387.4 361.39 387.48 361.3C387.55 361.21 387.87 360.52 388.19 359.75C388.5 358.99 388.83 358.23 388.91 358.07C389 357.9 389.07 357.68 389.07 357.58C389.07 357.48 389.23 357.07 389.42 356.68C389.61 356.28 389.77 355.79 389.77 355.57C389.77 355.36 389.84 355.13 389.94 355.07C390.03 355.01 390.11 354.74 390.11 354.47C390.11 354.19 390.19 353.92 390.29 353.86C390.38 353.8 390.46 353.56 390.46 353.34C390.46 353.11 390.6 352.51 390.78 352C390.95 351.5 391.19 350.77 391.31 350.39C391.43 350.01 391.59 349.54 391.66 349.35C391.74 349.16 391.91 348.66 392.03 348.23C392.15 347.8 392.31 347.37 392.37 347.27C392.43 347.18 392.59 346.73 392.71 346.27C392.83 345.82 393 345.4 393.08 345.35C393.17 345.3 393.23 345.15 393.23 345.03C393.23 344.77 394.34 342.3 395.14 340.77C395.41 340.25 395.82 339.47 396.04 339.04C396.26 338.61 396.5 338.23 396.57 338.2C396.64 338.17 396.7 338 396.7 337.82C396.7 337.64 396.78 337.45 396.87 337.39C396.96 337.34 397.26 336.84 397.54 336.3C397.81 335.76 398.16 335.08 398.3 334.79C398.45 334.51 398.7 333.96 398.86 333.58C399.28 332.58 399.39 332.39 399.57 332.33C399.76 332.27 400.45 334.46 400.6 335.58C400.71 336.46 400.73 336.43 399.05 338.17C397.94 339.33 397.01 340.76 395.56 343.55C394.73 345.14 394.11 346.85 393.38 349.53C393.27 349.91 392.92 351 392.59 351.95C392.26 352.91 391.93 354.04 391.86 354.47C391.78 354.9 391.61 355.56 391.46 355.94C391.31 356.32 391.09 357.02 390.97 357.5C390.77 358.3 390.31 359.51 389.92 360.23C389.84 360.39 389.76 360.63 389.76 360.75C389.76 360.87 389.61 361.16 389.42 361.4C389.23 361.64 389.08 361.93 389.08 362.06C389.07 362.18 388.92 362.61 388.73 363C388.54 363.4 388.38 363.79 388.38 363.87C388.38 364.01 387.67 365.6 387.14 366.64C387.06 366.81 386.99 367.02 386.99 367.11C386.99 367.35 385.95 369.61 385.79 369.72C385.71 369.77 385.55 370.11 385.42 370.47C385.09 371.4 383.44 373.08 382.98 372.96C382.79 372.91 382.34 372.97 382 373.09C381.09 373.41 378.63 373.7 377.11 373.66C376.07 373.64 375.53 373.73 374.43 374.13C372.89 374.67 371.75 375.23 371.34 375.64C370.9 376.08 370.35 377.06 370.35 377.41C370.35 377.58 370.19 377.96 369.98 378.25C369.77 378.54 369.68 378.82 369.77 378.88C369.86 378.94 370.1 379.22 370.31 379.49C370.65 379.93 370.67 380.03 370.45 380.44C370.32 380.69 369.89 381.2 369.5 381.56C369.11 381.92 368.79 382.32 368.79 382.45C368.79 382.58 368.99 383.08 369.23 383.55C369.52 384.14 369.66 384.7 369.66 385.3L369.66 386.19L375.18 386.19L375.39 385.55C375.5 385.21 375.79 384.7 376.03 384.44C376.26 384.17 376.57 383.74 376.7 383.49C376.96 382.99 377.02 382.2 376.81 382.2C376.74 382.2 376.58 381.99 376.46 381.72C376.03 380.78 374.28 379.98 372.91 380.09C372.55 380.12 372.52 379.85 372.83 379.25C372.95 379.01 373.23 378.37 373.45 377.83C373.95 376.61 374.29 376.46 375.22 377.07C375.71 377.4 375.9 377.65 375.9 377.96C375.9 378.33 375.98 378.39 376.5 378.39C376.85 378.39 377.66 378.66 378.4 379.02C379.68 379.66 380.06 380.07 380.06 380.84C380.06 381.15 380.13 381.18 380.54 381.08C380.8 381.02 381.36 380.9 381.79 380.81C384.36 380.27 385.96 379.82 386.8 379.39C388.53 378.52 389.81 377.34 390.44 376.02C390.66 375.56 390.91 375.04 391 374.88C391.08 374.71 391.15 374.42 391.15 374.23C391.15 374.03 391.22 373.74 391.31 373.57C391.51 373.17 391.77 372.53 392.02 371.8C392.13 371.47 392.29 371.04 392.36 370.85C392.44 370.66 392.6 370.15 392.73 369.72C392.85 369.29 393.09 368.73 393.26 368.48C393.44 368.23 393.58 367.97 393.58 367.91C393.58 367.72 395.69 364.61 395.86 364.55C396.08 364.46 396.63 363.33 396.78 362.67C396.84 362.35 396.81 361.96 396.7 361.76C396.35 361.08 395.9 361.33 395.02 362.69C394.56 363.4 394.01 364.06 393.79 364.16C393.44 364.32 392.63 365.82 391.68 368.07C391.6 368.26 391.37 368.79 391.17 369.24C390.97 369.69 390.81 370.14 390.81 370.24C390.81 370.34 390.74 370.55 390.65 370.72C390.57 370.88 390.39 371.25 390.26 371.54C390.14 371.83 389.81 372.43 389.55 372.89C389.29 373.35 389.07 373.81 389.07 373.91C389.07 374.18 387.93 375.41 387 376.15C386.02 376.93 385.4 377.05 382.57 376.97C381.33 376.94 379.44 376.94 378.36 376.97C375.97 377.03 375.48 376.79 376.17 375.88C376.43 375.53 376.43 375.53 380.08 375.17C380.96 375.09 381.35 375.13 381.76 375.34C382.48 375.71 383.04 375.68 383.57 375.27C383.82 375.08 384.07 374.92 384.13 374.92C384.19 374.92 384.73 374.57 385.31 374.15C387.58 372.53 389.74 369.8 391.82 365.91C392.05 365.48 392.45 364.81 392.71 364.43C393.26 363.63 393.93 362.29 393.93 361.99C393.93 361.88 394.04 361.69 394.18 361.58C394.32 361.46 394.55 361.16 394.68 360.9C395.65 359.07 396.87 356.74 397.55 355.42C399.02 352.57 399.64 351.89 400.42 352.24C400.77 352.4 400.86 352.57 400.86 353.05C400.86 353.79 400.54 355.81 400.35 356.29C400.05 357.05 399.82 357.89 399.82 358.24C399.82 358.44 399.74 358.65 399.65 358.71C399.36 358.89 399.44 360.29 399.75 360.55C400 360.75 400.09 360.71 400.45 360.27C400.67 359.98 401.04 359.36 401.27 358.89C401.5 358.41 402.05 357.27 402.49 356.36C402.93 355.44 403.29 354.61 403.29 354.51C403.29 354.41 403.51 353.9 403.79 353.38C404.06 352.86 404.38 352.13 404.5 351.76C404.62 351.39 404.78 351.01 404.87 350.92C404.95 350.83 405.02 350.6 405.02 350.41C405.02 350.1 405.23 349.32 405.54 348.49C405.78 347.86 406.06 346.31 406.06 345.64C406.06 344.67 405.74 343.87 405.13 343.31C404.65 342.87 404.5 342.83 403.81 342.92C402.29 343.13 401.39 343.57 400.44 344.6C399.94 345.14 399.4 345.88 399.22 346.25C398.32 348.21 398.09 348.75 397.73 349.7C397.51 350.27 397.27 350.83 397.19 350.93C397.11 351.03 396.57 352.28 395.99 353.7C395.42 355.12 394.87 356.36 394.78 356.45C394.69 356.54 394.62 356.78 394.62 356.98C394.62 357.18 394.42 357.76 394.18 358.26C393.94 358.76 393.69 359.4 393.64 359.68C393.58 359.96 393.49 360.19 393.43 360.19C393.37 360.19 393.22 360.44 393.09 360.75C392.97 361.06 392.73 361.62 392.55 362.01C392.38 362.39 392.02 363.21 391.76 363.83C391.31 364.88 391.04 365.41 390.16 366.95C389.61 367.91 387.86 370.29 387.54 370.51C387.05 370.85 386.5 370.91 386.4 370.65C386.31 370.43 386.6 369.57 386.83 369.37C386.95 369.26 388.88 365.22 389.64 363.48C389.78 363.15 390.07 362.51 390.27 362.06C390.47 361.61 390.63 361.19 390.63 361.13C390.63 361.07 390.76 360.73 390.91 360.39C391.38 359.32 391.47 359.08 391.59 358.63C391.72 358.15 391.98 357.52 392.72 355.92C393.19 354.89 393.59 353.72 394.81 349.79C395.12 348.79 395.42 347.89 395.48 347.79C395.55 347.7 395.7 347.27 395.84 346.84C396.06 346.1 396.41 345.38 396.95 344.53C397.08 344.32 397.5 343.54 397.89 342.78C398.28 342.03 398.79 341.19 399.03 340.92C399.27 340.65 399.48 340.37 399.48 340.3C399.5 340.03 401.33 338.71 402.33 338.25C403.25 337.83 403.5 337.79 404.67 337.87C406.55 338 407.93 338.84 408.69 340.32C409.09 341.1 409.7 342.9 409.79 343.61C409.9 344.38 410.7 345.27 411.67 345.73C413.9 346.77 415.32 345.69 415.4 342.9C415.44 341.76 415.4 341.58 414.93 340.91C414.65 340.5 414.21 339.99 413.96 339.78C413.72 339.56 413.51 339.24 413.51 339.05C413.51 338.66 413.95 338.17 414.31 338.17C415.16 338.17 419.26 334.8 421.15 332.54C422.64 330.75 424.61 327.14 425.36 324.82C425.5 324.38 425.73 323.76 425.87 323.43C426.36 322.28 426.5 321.61 426.61 319.89C426.69 318.6 426.79 318.1 427 317.93C427.42 317.61 427.73 318.01 428.13 319.4C428.82 321.84 428.73 322.92 427.54 326.56C427.33 327.18 427.1 327.76 427.01 327.85C426.93 327.94 426.86 328.16 426.86 328.33C426.86 328.5 426.8 328.64 426.73 328.64C426.66 328.64 426.49 328.89 426.35 329.2C426.22 329.51 426.06 329.8 426.01 329.85C425.95 329.9 425.77 330.21 425.61 330.55C424.43 332.93 423.3 334.36 419.62 338.13L417.38 340.43L417.54 341.36C417.77 342.69 417.48 344.81 416.89 346.12C416.63 346.71 416.34 347.19 416.26 347.19C416.18 347.19 416.11 347.3 416.11 347.43C416.11 347.57 415.97 347.73 415.78 347.79C415.6 347.84 415.42 348.05 415.37 348.24C415.31 348.46 414.82 348.79 413.96 349.19C412.91 349.68 412.63 349.89 412.53 350.27C412.42 350.7 411.85 352 411.42 352.79C410.85 353.83 410.22 355.14 410.22 355.3C410.22 355.4 409.99 355.9 409.72 356.41C409.45 356.91 409.03 357.68 408.81 358.11C408.22 359.2 407.41 360.32 407.1 360.45C406.96 360.51 406.75 360.41 406.62 360.24C406.4 359.94 406.4 359.71 406.67 358.84C406.76 358.56 406.72 358.45 406.53 358.45C406.3 358.45 405.37 360.01 405.37 360.4C405.37 360.47 405.22 360.87 405.04 361.27C404.86 361.68 404.53 362.55 404.3 363.22C403.86 364.52 403.74 364.73 402.7 365.81C401.26 367.33 401.16 367.52 401.11 369.07C401.09 369.86 401.02 370.75 400.95 371.05C400.75 371.94 399.41 373.25 397.87 374.04C397.55 374.2 397.39 374.43 397.37 374.73C397.36 374.98 397.34 375.26 397.32 375.35C397.11 376.63 396.99 377.17 396.83 377.61C396.62 378.17 395.59 379.74 394.93 380.5C394.71 380.76 394.18 381.41 393.75 381.96C392.74 383.25 391.35 384.63 391.07 384.63C390.95 384.63 390.75 384.74 390.63 384.89C390.51 385.03 390.31 385.15 390.19 385.15C390.06 385.15 389.66 385.35 389.3 385.6L388.64 386.06L414.19 385.95C428.25 385.89 443.95 385.84 449.1 385.84C457.92 385.84 458.44 385.82 458.35 385.54C458.09 384.7 457.65 383.47 457.51 383.2C457.15 382.46 457.49 380.67 458.14 379.95C458.32 379.76 458.65 379.6 458.89 379.6C459.45 379.6 460.36 380.17 460.64 380.69C460.83 381.04 460.81 381.2 460.47 381.78C460.15 382.35 460.09 382.72 460.09 384.07C460.1 386.17 460.37 386.53 460.68 384.86C460.77 384.41 460.89 384 460.96 383.94C461.04 383.89 461.28 383.47 461.51 383.02C462.08 381.88 463.1 380.99 463.82 380.99C465.04 380.99 465.64 381.77 465.41 383.02C465.29 383.66 464.39 384.63 463.92 384.63C463.45 384.63 463.54 385.23 464.06 385.58C465.18 386.31 467.07 384.88 467.07 383.29C467.07 382.55 466.72 381.77 466.17 381.32C464.25 379.72 463.95 379.3 463.95 378.14C463.95 376.65 464.94 375.61 466.35 375.62C466.6 375.62 467.44 375.77 468.2 375.96C471.1 376.68 472.28 376.31 474.6 373.99C476.15 372.43 476.78 371.72 476.78 371.52C476.78 371.46 477.01 371.07 477.3 370.65C477.59 370.22 477.82 369.8 477.82 369.72C477.82 369.63 477.96 369.3 478.13 368.99C478.3 368.68 478.53 368.13 478.66 367.77C478.92 367 478.94 364.69 478.69 363.83C478.44 362.96 478.47 361.19 478.76 360.5C479.46 358.83 480.89 357.43 483.15 356.19C483.89 355.79 484.75 354.71 484.75 354.19C484.75 353.22 484.27 352.42 482.84 350.98C481.06 349.2 480.38 347.93 479.87 345.47C479.36 342.95 479.59 340.93 480.6 339.15C481.45 337.64 482.71 336.7 484.15 336.5L484.99 336.38L483.83 337.52C483.12 338.21 482.67 338.79 482.67 339.02C482.67 339.22 482.61 339.39 482.54 339.39C482.46 339.39 482.3 339.68 482.18 340.04C482.06 340.39 481.89 340.84 481.82 341.03C481.74 341.22 481.59 341.6 481.48 341.86C481.11 342.78 481.32 343.8 482.27 345.75C482.86 346.96 483.54 347.6 485.07 348.36C486.14 348.89 486.56 348.99 487.77 349.06L489.21 349.13L489.96 348.38C491.61 346.7 492.42 344.82 492.34 342.83C492.31 342.07 492.36 341.76 492.55 341.64C492.97 341.37 493.59 341.43 493.59 341.73C493.59 341.88 493.71 342.24 493.86 342.52C494.28 343.33 494.23 345.76 493.78 346.56C493.58 346.91 493.42 347.27 493.42 347.36C493.42 347.51 492.45 348.67 491.82 349.25C491.66 349.4 490.81 349.92 489.93 350.39C488.01 351.43 487.75 351.83 487.51 354.07C487.31 355.85 487.31 356.57 487.5 356.77C487.7 356.96 488.17 356.75 488.29 356.4C488.61 355.52 488.78 354.98 489.02 354.12C489.42 352.65 489.93 351.94 492.13 349.79C495.4 346.59 495.85 346.12 495.85 345.86C495.85 345.72 495.97 345.37 496.12 345.07C496.33 344.68 496.37 344.3 496.29 343.65C496.18 342.77 495.96 342.4 494.7 340.96C494.4 340.62 494.03 339.96 493.87 339.5C493.48 338.35 493.17 337.78 492.6 337.19C491.35 335.89 491.28 335.73 490.99 333.7C490.82 332.54 490.36 331.4 489.8 330.75C489.47 330.38 488.75 330.07 487.95 329.96C487 329.83 484.01 330.2 482.59 330.63C481.73 330.89 480.79 331.16 480.51 331.23C479.53 331.47 475.65 332.86 475.31 333.09C475.12 333.22 474.83 333.32 474.65 333.32C474.48 333.32 473.97 333.47 473.52 333.65C473.07 333.84 472.01 334.19 471.15 334.44C470.29 334.7 469.04 335.09 468.37 335.31C466.85 335.83 465.58 336.18 463.35 336.68C462.68 336.83 461.39 337.15 460.49 337.37C459.58 337.6 458.29 337.88 457.63 338C456.96 338.11 456.06 338.27 455.63 338.34C450.76 339.23 444.71 339.74 438.99 339.74C434.96 339.74 433.79 339.7 431.89 339.47C431.65 339.45 430.6 339.33 429.55 339.23C426.52 338.92 422.51 338.05 422.26 337.65C422.12 337.42 422.47 336.74 423.1 336.03C424.39 334.59 426.1 334.02 427.99 334.4C428.27 334.46 429.13 334.6 429.89 334.71C430.66 334.82 432.45 335.1 433.88 335.34C436.09 335.71 437.1 335.78 440.64 335.81C445.07 335.85 447.69 335.75 451.04 335.43C452.18 335.31 454.13 335.14 455.37 335.05C456.61 334.95 458.17 334.79 458.84 334.7C459.51 334.6 460.37 334.48 460.75 334.43C462.86 334.17 469.56 332.7 472.97 331.76C474.06 331.46 475.27 331.13 475.65 331.04C476.04 330.94 476.5 330.8 476.69 330.72C476.88 330.64 477.86 330.32 478.86 330.02C479.86 329.72 481.15 329.34 481.72 329.16C484.15 328.42 487.69 327.99 489.04 328.26C492.55 328.95 494.09 329.38 494.55 329.8C494.74 329.98 495.25 330.39 495.67 330.72C496.6 331.43 497.07 331.93 497.8 332.97C498.45 333.9 498.58 335.29 498.06 335.81C497.89 335.98 497.75 336.18 497.75 336.26C497.75 336.33 497.48 336.58 497.15 336.81C496.42 337.31 496.36 337.84 496.9 339.34C497.29 340.41 498.06 341.29 498.62 341.29C499.16 341.29 500.06 340.37 500.66 339.2C501.27 338.03 501.38 337.06 500.97 336.52C500.65 336.1 500.63 335.33 500.92 335.09C501.24 334.82 502.16 335.07 502.72 335.58C502.99 335.83 503.53 336.38 503.92 336.82C505.02 338.06 506.65 338.78 508.71 338.93C509.45 338.98 510.02 339.12 510.28 339.32C510.83 339.73 511.63 340.81 512.29 342.04C512.59 342.6 512.95 343.17 513.08 343.3C513.22 343.44 513.67 344.15 514.08 344.89C514.49 345.63 514.94 346.44 515.08 346.69C515.23 346.95 515.53 347.49 515.76 347.9C515.98 348.3 516.89 349.34 517.77 350.21C518.65 351.07 519.45 352.01 519.56 352.3C519.66 352.59 519.84 353.81 519.94 355.02C520.04 356.24 520.22 357.5 520.34 357.82C520.55 358.43 521.38 359.46 523.02 361.16C523.52 361.68 523.93 362.17 523.93 362.25C523.93 362.32 524.07 362.52 524.25 362.68C524.42 362.83 524.67 363.29 524.8 363.7C524.92 364.1 525.09 364.51 525.17 364.6C525.37 364.82 525.35 367.32 525.14 368.58C525.05 369.15 524.72 370.14 524.41 370.78C523.52 372.6 522.66 372.95 519.77 372.63C518.04 372.45 517.91 372.46 517.25 372.81C516.87 373.01 516.43 373.28 516.28 373.4C515.76 373.81 515.26 374.83 515.26 375.46C515.26 376.97 514.73 377.52 513.29 377.52C512.66 377.52 512.52 377.45 512.25 376.99C511.86 376.33 511.96 375.78 512.86 373.94C513.37 372.89 513.81 372.28 514.57 371.56C516 370.23 517.13 369.97 520.2 370.24C522.05 370.41 522.27 370.31 522.62 369.12C522.99 367.85 522.81 366.14 522.21 365.21C522.06 364.97 521.74 364.4 521.51 363.94C520.66 362.25 519.23 361.01 516 359.17C511.33 356.51 511.54 356.64 508.15 354.09C505.29 351.93 505 351.69 503.39 350.15C502.2 349.01 501.66 348.35 500.67 346.81L499.97 345.73L499.51 346.26C499.26 346.55 498.74 347.16 498.36 347.62C497.37 348.81 496.36 349.77 495.76 350.08C495.12 350.42 493.44 351.73 493.43 351.91C493.42 351.98 493.05 352.65 492.59 353.38C491.67 354.88 491.34 355.7 491.34 356.49C491.34 356.78 491.22 357.36 491.07 357.78C490.67 358.9 490.42 360.18 490.45 360.97C490.48 361.63 490.86 363.05 491.19 363.69C491.45 364.21 491.36 365.38 490.96 366.53C490.75 367.14 490.52 367.64 490.44 367.64C490.36 367.64 490.3 367.77 490.3 367.92C490.3 368.07 489.65 368.83 488.85 369.61C488.03 370.41 487.27 371.32 487.1 371.71C486.94 372.09 486.72 372.56 486.61 372.75C486.5 372.94 486.12 373.66 485.77 374.35C485.42 375.04 484.86 375.94 484.54 376.35C483.84 377.22 482.33 379.5 482.33 379.68C482.33 380.02 480.83 381.73 478.56 383.99C477.77 384.77 477.13 385.47 477.13 385.54C477.13 385.61 485.95 385.67 496.73 385.66C515.26 385.66 516.32 385.64 516.1 385.36C515.97 385.19 515.79 385 515.69 384.94C515.6 384.87 515.52 384.13 515.52 383.29C515.52 381.99 515.59 381.63 515.99 380.79C516.25 380.26 516.72 379.59 517.03 379.32C517.58 378.84 517.59 378.79 517.39 378.21C517.1 377.35 517.29 375.99 517.81 375.3C518.45 374.44 518.88 374.35 520.66 374.65C523.1 375.08 523.49 375.03 524.57 374.22C525.91 373.2 526.5 371.81 526.88 368.77C527.08 367.13 526.88 364.32 526.48 363.22C526.24 362.58 524.4 359.76 523.75 359.06C523.11 358.36 521.94 355.99 521.67 354.84C521.53 354.24 521.5 353.44 521.58 352.55C521.69 351.22 521.69 351.18 521.22 350.79C519.71 349.52 518.39 348.13 517.87 347.24C517.53 346.69 517.21 346.19 517.15 346.15C517.05 346.07 514.74 341.35 514.4 340.51C513.45 338.22 513.18 337.02 513.18 335C513.18 333.32 513.47 331.81 514.39 328.73C515.21 325.96 515.67 321.21 515.34 318.91C514.82 315.34 514.4 314.11 512.85 311.59C511.28 309.05 511.13 308.54 511.81 308.18C512.33 307.9 512.99 308.22 513.73 309.1C514.82 310.42 516.52 314.41 517.16 317.2C517.29 317.72 517.45 318.23 517.52 318.33C517.74 318.62 517.89 320.27 517.95 323.27C518 325.9 517.9 327.24 517.51 328.81C517.43 329.15 517.29 329.85 517.19 330.37C517.09 330.9 516.93 331.76 516.82 332.3C516.55 333.7 516.54 338.58 516.81 339.73C517.08 340.86 519.18 345.46 519.58 345.8C519.64 345.85 519.91 346.22 520.18 346.63C520.98 347.81 521.93 348.57 522.59 348.57C522.9 348.57 523.33 348.45 523.54 348.3C524.19 347.85 524.01 346.28 523.2 345.39C522.48 344.59 521.68 342.45 521.35 340.43C521.14 339.13 521.17 338.75 521.68 336.96C522.4 334.4 522.59 333.48 522.92 331.07C523.49 326.79 523.68 323.4 523.42 321.74C523.18 320.21 522.89 319.09 522.69 318.85C522.61 318.76 522.54 318.59 522.54 318.47C522.54 318.35 522.31 317.74 522.02 317.11C521.37 315.69 521.32 314.57 521.89 314.18C522.5 313.75 523.63 313.84 524.76 314.41C525.31 314.69 526.48 315.2 527.36 315.54C528.83 316.11 535.86 318.5 537.27 318.91C537.61 319.01 538.23 319.21 538.66 319.37C540.96 320.22 541.97 320.39 544.81 320.39C546.92 320.39 547.78 320.32 548.37 320.11C548.8 319.96 549.42 319.78 549.75 319.71C550.71 319.52 552.09 319.03 552.59 318.71C552.83 318.54 553.1 318.41 553.17 318.41C553.25 318.41 553.58 318.17 553.91 317.87C554.25 317.58 554.81 317.09 555.15 316.78C556.15 315.91 557.51 313.41 558 311.56C558.32 310.38 558.36 307.12 558.08 306.38C557.98 306.12 557.9 305.72 557.9 305.49C557.9 304.69 556 300.82 555.31 300.21C555.26 300.16 555 299.81 554.73 299.42C554.14 298.54 552 296.47 550.27 295.1C548.75 293.88 548.58 293.75 547.52 292.88C546.46 292.01 546.48 292.03 545.68 291.55C545.3 291.32 543.78 290.34 542.3 289.38C539.44 287.51 536.85 285.9 535.32 285.05C534.81 284.76 533.77 284.07 533.01 283.52C532.26 282.97 531.16 282.19 530.57 281.79C527.07 279.39 522.97 275.37 522.04 273.43C521.08 271.43 520.68 270.22 520.4 268.4C520.31 267.83 520.51 265.98 520.76 265.02C521.28 263.06 522.79 260.98 524.77 259.51C525.21 259.19 527.6 258.24 528.61 257.99C534.05 256.67 538.68 256.99 541.82 258.89L542.65 259.39L542.67 260.91C542.7 262.69 542.7 262.7 542.86 262.87C542.94 262.94 542.99 263.11 542.99 263.24C542.99 263.36 543.28 263.89 543.62 264.41C544.08 265.1 544.56 265.55 545.43 266.07C546.84 266.92 547.94 267.26 549.98 267.47C550.81 267.56 551.83 267.71 552.23 267.81C552.63 267.91 553.29 268.03 553.7 268.07C554.48 268.15 554.62 267.97 554.27 267.32C554.18 267.15 553.71 266.16 553.21 265.11C552.72 264.06 552.16 262.87 551.96 262.47C551.63 261.77 550.88 260.9 549.64 259.77C548.95 259.14 546.94 258.6 545.42 258.64C544.41 258.66 544.19 258.6 543.3 258.05C541.08 256.69 536.22 255.72 532.42 255.9C531.23 255.96 529.75 256.12 529.13 256.27C528.51 256.41 527.64 256.61 527.19 256.7C525.7 257 523.19 258.37 521.95 259.56C521.32 260.16 520.81 260.7 520.81 260.77C520.81 260.84 520.66 261.1 520.49 261.36C519.83 262.32 519.44 263.56 519.06 265.98C518.73 268.13 518.69 268.79 518.88 268.91C518.99 268.98 519.07 269.34 519.07 269.71C519.07 270.37 519.33 271.68 519.6 272.39C519.67 272.58 519.83 273.07 519.95 273.47C520.07 273.88 520.24 274.21 520.32 274.21C520.4 274.21 520.46 274.35 520.46 274.52C520.46 274.7 520.7 275.21 520.98 275.66C521.27 276.11 521.5 276.55 521.5 276.63C521.5 276.71 521.56 276.81 521.64 276.84C521.93 276.97 522.54 278.01 522.54 278.4C522.55 278.95 522.78 279.28 523.11 279.21C523.26 279.18 524.15 279.89 525.2 280.89C526.2 281.84 527.12 282.7 527.25 282.8C527.38 282.9 528.08 283.45 528.81 284.01C529.54 284.58 530.53 285.32 531.02 285.65C532.55 286.7 533.9 287.7 537.6 290.51C539.16 291.7 540.88 292.96 541.41 293.31C542.68 294.14 544.79 295.68 546.54 297.05C547.31 297.65 548.16 298.32 548.43 298.53C549.55 299.39 552.72 302.59 552.96 303.09C553.1 303.39 553.33 303.72 553.46 303.83C553.59 303.95 553.8 304.29 553.91 304.59C554.03 304.9 554.19 305.31 554.26 305.5C554.89 307.04 555.09 309.86 554.68 311.32C554.36 312.45 554.2 312.72 553.31 313.57C551.95 314.87 550.98 315.38 549.27 315.67C546.24 315.97 543.11 315.07 540.33 313.92C539.94 313.74 539.15 313.41 538.57 313.2C536.75 312.52 533.01 310.57 532.07 309.81C531.93 309.7 530.8 309.09 529.56 308.46C526.98 307.14 524.77 305.94 524.43 305.65C524.3 305.54 523.72 305.2 523.15 304.89C520.05 303.21 518.02 302.12 517.17 301.7C515.72 300.83 514.09 300.29 512.66 299.4C511.98 298.96 509.08 297.79 508.68 297.78C508.53 297.78 508.22 297.68 507.98 297.56C507.74 297.44 507.08 297.2 506.51 297.04C504.85 296.56 502.19 295.66 501.99 295.51C501.9 295.44 500.56 295.06 499.03 294.67C496.04 293.92 494.44 293.78 493.94 294.23C493.69 294.46 493.47 294.45 492.02 294.21C489.75 293.83 475.16 294 466.12 294.52C461.86 294.76 451.34 294.8 448.7 294.59C447.89 294.53 446.6 294.42 445.84 294.35L444.45 294.23L444.49 293.11C444.55 291.54 444.7 290.28 444.87 290.01C444.99 289.82 445.25 289.83 446.38 290.05C447.13 290.2 448.33 290.4 449.05 290.5C449.76 290.59 451.17 290.78 452.17 290.92C453.21 291.07 455.76 291.2 458.15 291.23C462.29 291.29 471.89 291.07 472.14 290.92C472.41 290.74 485.78 290.69 487.44 290.86C489.92 291.1 491.47 291.31 492.47 291.52C492.94 291.63 493.53 291.75 493.77 291.79C496.57 292.29 499.28 292.99 503.13 294.18C503.75 294.38 505.15 294.79 506.25 295.1C510.49 296.32 512.98 297.26 516.73 299.08C518.16 299.78 519.71 300.52 520.17 300.72C520.63 300.93 521.68 301.51 522.51 302.02C523.34 302.52 524.75 303.32 525.66 303.79C526.56 304.25 527.38 304.69 527.48 304.77C527.76 304.98 529.06 305.78 531.21 307.05C532.3 307.7 533.32 308.33 533.46 308.46C533.99 308.91 540.91 312.3 543.17 313.22L545.51 314.17L547.41 314.17C548.92 314.17 549.46 314.1 549.96 313.85C550.7 313.48 552.35 311.92 552.35 311.58C552.35 311.46 552.48 311.12 552.62 310.82C553.02 310.03 553.24 308.42 553.12 307.19C553.02 306.08 552.49 304.78 551.7 303.69C550.85 302.52 548.1 299.93 546.2 298.51C545.15 297.73 544.07 296.92 543.79 296.7C543.27 296.29 542.83 295.99 541.26 294.95C540.74 294.6 540.11 294.17 539.87 293.99C538.52 292.96 535.9 291.06 535.42 290.77C534.52 290.21 532.53 288.81 532.16 288.47C531.97 288.3 531.46 287.93 531.03 287.65C530.61 287.36 530.22 287.08 530.17 287.02C530.12 286.97 529.72 286.66 529.28 286.33C528.85 286 528.03 285.39 527.46 284.97C526.12 283.97 523.45 281.37 522.2 279.84C520.63 277.94 519.09 275.45 518.52 273.91C518.45 273.69 518.31 273.34 518.23 273.13C517.31 270.79 517.09 267.31 517.71 264.84C518.01 263.62 518.93 261.36 519.25 261.04C519.3 260.99 519.45 260.73 519.59 260.45C520.23 259.21 523.36 256.61 524.88 256.04C525.65 255.76 528.15 255.14 529.73 254.85C531.26 254.56 534.66 254.62 537.19 254.98C538.99 255.23 542.4 256.13 542.97 256.5C543.33 256.73 543.77 256.78 545.35 256.73L547.29 256.68L548.72 257.4C549.51 257.8 550.27 258.23 550.4 258.37C550.54 258.5 550.71 258.61 550.8 258.61C550.88 258.61 551.31 259.06 551.75 259.61C552.19 260.16 552.66 260.74 552.8 260.91C552.94 261.08 553.21 261.59 553.41 262.04C553.95 263.26 555.55 266.49 555.66 266.58C555.72 266.63 556.02 267.18 556.33 267.8C556.64 268.42 556.98 268.97 557.07 269.03C557.17 269.09 557.21 269.29 557.18 269.47C557.1 269.89 556.48 269.9 554 269.5C552.95 269.33 551.71 269.19 551.24 269.19C549.43 269.18 545.83 268.33 544.45 267.59C543.32 266.98 542.62 266.33 541.8 265.14C541.18 264.24 540.92 263.11 540.91 261.32C540.9 260.09 540.9 260.08 540.26 259.67C538.49 258.54 534.14 257.95 531.81 258.53C531.34 258.65 530.48 258.8 529.91 258.87C528.47 259.04 526.17 260.03 524.91 261.03C523.81 261.89 522.89 262.83 522.89 263.08C522.89 263.16 522.73 263.55 522.54 263.95C521.5 266.09 521.43 268.56 522.34 271C523.28 273.56 523.49 273.84 526.71 276.91C527.52 277.67 528.68 278.69 529.3 279.15C529.92 279.62 530.47 280.04 530.51 280.1C530.72 280.32 532.55 281.67 532.65 281.67C532.71 281.67 533.44 282.12 534.28 282.68C536.09 283.88 536.73 284.27 537.88 284.89C538.36 285.14 538.79 285.41 538.83 285.48C538.88 285.55 539.27 285.78 539.69 286C540.11 286.21 540.57 286.49 540.7 286.63C540.83 286.76 541.01 286.87 541.09 286.87C541.17 286.87 541.34 286.96 541.47 287.09C541.59 287.21 542.08 287.56 542.56 287.86C543.04 288.17 543.51 288.48 543.6 288.55C543.7 288.63 544.36 289.07 545.07 289.53C548.03 291.46 548.81 291.97 548.89 292.06C548.94 292.11 549.33 292.38 549.75 292.67C550.18 292.95 551.04 293.61 551.66 294.13C553.42 295.63 557.21 299.48 557.21 299.77C557.21 299.92 557.29 300.04 557.38 300.04C557.48 300.04 557.56 300.12 557.56 300.21C557.56 300.3 557.82 300.73 558.14 301.15C558.65 301.82 559.34 303.11 559.81 304.29C559.95 304.63 560.09 305.2 560.51 307.18C561.04 309.62 560.16 314.17 558.9 315.54C558.73 315.73 558.6 315.94 558.6 316.02C558.6 316.3 556.51 318.52 555.4 319.44C554.84 319.9 552.02 321.34 551.48 321.45C551.29 321.48 551.06 321.56 550.95 321.63C550.85 321.69 549.82 321.93 548.66 322.16C547.07 322.47 546.18 322.56 545.07 322.5C542.27 322.35 538.06 321.43 532.68 319.79C532.11 319.61 530.74 319.23 529.65 318.94C528.55 318.65 527.12 318.24 526.47 318.04C524.94 317.56 524.78 317.7 525.33 319.05C525.72 320.01 525.74 320.24 525.72 323.96C525.71 326.1 525.66 328.17 525.59 328.55C525.53 328.93 525.4 329.98 525.31 330.89C525.15 332.4 524.79 334.09 524.45 334.97C524.06 335.98 523.86 337.46 523.86 339.56C523.85 341.89 523.85 341.9 524.42 342.94C525.3 344.53 525.78 345.07 526.72 345.55C527.19 345.79 527.99 346.25 528.5 346.57C529 346.89 530.05 347.4 530.83 347.7C531.61 348 532.62 348.51 533.07 348.82C533.53 349.13 534.08 349.45 534.29 349.51C534.5 349.58 534.67 349.75 534.67 349.88C534.67 350.02 534.83 350.23 535.02 350.35C535.21 350.47 535.37 350.65 535.37 350.76C535.37 350.87 535.49 351.06 535.64 351.18C536.18 351.63 536.44 352.61 536.43 354.14C536.42 354.96 536.34 355.84 536.24 356.1C535.92 356.93 536.02 359.01 536.42 359.91C536.83 360.85 536.96 362.5 536.74 364.17C536.65 364.79 536.54 365.77 536.48 366.34C536.43 366.91 536.31 367.54 536.23 367.73C536.15 367.92 536.04 368.42 535.98 368.85C535.71 370.83 535.53 371.95 535.36 372.75C535.1 374.02 534.87 375.35 534.67 376.82C534.45 378.5 534.42 378.58 533.62 380.16C532.83 381.72 532.71 381.88 531.17 383.5C530.53 384.17 529.84 384.93 529.64 385.19L529.28 385.67L561.72 385.67L561.72 390L338.28 390L338.28 386.19ZM519.61 385.1C519.97 384.24 520.29 383.93 521.33 383.46C523.41 382.51 525.35 382.27 525.92 382.89C526.09 383.08 526.36 383.27 526.52 383.32C526.84 383.43 527.91 383.04 528.29 382.68C528.42 382.56 528.85 382.24 529.24 381.97C529.64 381.7 530.14 381.24 530.37 380.95C530.59 380.65 530.85 380.33 530.95 380.22C531.15 380.01 531.9 378.76 531.9 378.64C531.9 378.37 531.32 378.69 530.32 379.49C529.68 380 528.49 380.75 527.67 381.15L526.17 381.89L525.04 381.68C523.56 381.4 522.85 381.51 521.57 382.24C520.25 382.99 519.74 383.12 519.15 382.86C518.75 382.67 518.66 382.69 518.45 382.99C518.31 383.17 518.11 383.44 517.99 383.59C517.61 384.04 517.16 384.79 516.99 385.23L516.83 385.67L519.38 385.67L519.61 385.1ZM385.09 385.07C385.96 384.99 387.68 384.41 388.24 384C388.36 383.91 388.77 383.68 389.15 383.49C390.38 382.88 392.47 380.61 393.53 378.73C393.72 378.4 394.03 377.85 394.22 377.52C394.41 377.18 394.74 376.42 394.95 375.82C395.31 374.8 395.32 374.7 395.06 374.3C394.64 373.66 393.58 373.82 393.58 374.53C393.58 374.66 393.42 375.09 393.23 375.48C393.04 375.88 392.89 376.27 392.89 376.36C392.89 376.8 391.77 378.74 391.12 379.44C390.17 380.46 387.66 381.99 386.91 382.02C386.72 382.03 386.06 382.19 385.46 382.38C384.85 382.57 383.82 382.77 383.16 382.83C381.93 382.95 381.6 383.12 381.95 383.46C382.05 383.57 382.14 383.8 382.14 383.98C382.14 384.16 382.24 384.4 382.36 384.53C382.75 384.91 383.6 385.31 383.88 385.23C384.02 385.18 384.57 385.11 385.09 385.07ZM476.26 384.12C477.33 383.27 477.86 382.66 480.4 379.38C481.22 378.31 482.09 376.7 481.92 376.54C481.89 376.5 481.16 377.18 480.32 378.05C478.67 379.74 477.44 380.64 475.93 381.26C475.41 381.48 474.78 381.85 474.52 382.09C473.65 382.91 473.74 384.27 474.69 384.74C475.17 384.98 475.18 384.97 476.26 384.12ZM470.61 383.18C470.66 382.98 470.71 382.46 470.71 382.03C470.72 380.84 470.56 380.95 473.66 380.05C474.18 379.89 474.98 379.55 475.43 379.29C476.66 378.58 479.49 375.85 480.42 374.49C480.88 373.82 481.42 373.1 481.62 372.89C481.82 372.68 481.98 372.46 481.98 372.4C481.98 372.34 482.12 372.08 482.3 371.83C482.68 371.27 483.37 369.6 483.37 369.23C483.37 368.72 483.95 368.33 485.43 367.88C487.27 367.3 487.6 367.1 488.16 366.14C488.52 365.52 488.59 365.23 488.51 364.56C488.33 362.85 488.05 362.26 486.92 361.12C485.82 360.02 484.77 359.68 483.54 360.01C482.66 360.25 481.52 361.31 480.94 362.43C480.51 363.27 480.48 364.79 480.87 365.91C481.14 366.68 481.09 368.17 480.78 368.84C480.01 370.46 479.45 371.5 479.22 371.75C479.07 371.92 478.67 372.41 478.32 372.84C477.98 373.27 477.44 373.89 477.14 374.21C476.83 374.54 476.45 374.97 476.29 375.17C475.88 375.68 474.05 377.06 473.22 377.48C472.83 377.68 472.01 377.97 471.4 378.13C470.44 378.38 470.12 378.39 469.15 378.21C467.75 377.96 466.84 378.03 466.76 378.4C466.74 378.56 467.19 379.18 467.78 379.79C469.21 381.27 469.5 381.77 469.5 382.75C469.5 383.38 469.57 383.58 469.8 383.63C470.26 383.73 470.5 383.6 470.61 383.18ZM522.45 379.68C523.33 379.27 525.36 378.73 526.06 378.73C526.6 378.73 528.47 377.82 529.14 377.23C529.98 376.49 531.44 373.24 532.05 370.76C532.86 367.48 533 365.2 532.61 361.92C532.19 358.49 532.19 357.74 532.58 356.54C533.12 354.91 533.07 353.52 532.44 352.52C532.02 351.87 531.75 351.66 530.96 351.36C529.78 350.93 529.37 350.91 528.06 351.28C525.61 351.97 524.3 354.5 525.31 356.59C525.51 356.98 525.66 357.39 525.66 357.49C525.66 358.08 527.43 359.29 528.95 359.75C529.58 359.94 529.92 360.29 530.44 361.28C530.77 361.92 530.85 362.24 530.73 362.43C530.46 362.87 530.01 365 529.83 366.77C529.43 370.52 529.2 371.5 528.31 373.32C527.41 375.16 526.26 376.11 523.82 377.02C523.02 377.32 522.62 377.37 521.67 377.28C520.01 377.13 519.96 377.22 520.39 379.43C520.58 380.42 520.82 380.45 522.45 379.68ZM397.73 371.15C398.5 370.33 398.65 369.18 398.1 368.25C397.51 367.22 395.88 367.6 395.22 368.92C394.8 369.76 394.89 370.54 395.49 371.14C395.96 371.6 396.11 371.66 396.72 371.58C397.11 371.52 397.56 371.33 397.73 371.15ZM517.76 355.75C518.13 355.39 518.1 354.84 517.67 353.87C517.31 353.05 517.13 352.79 516.3 351.89C515.43 350.95 514.93 350.19 514.21 348.79C514 348.38 513.77 348.05 513.68 348.05C513.6 348.05 513.53 347.98 513.53 347.89C513.53 347.72 512.06 345.5 511.46 344.76C511.27 344.52 511.11 344.26 511.1 344.19C511.1 343.97 510.06 342.67 509.34 341.99C508.46 341.14 506.62 340.25 505.49 340.13C504.27 340.01 503.15 340.43 502.35 341.32C501.67 342.07 501.67 342.05 501.93 343.47C502.32 345.61 503.37 347.11 506.09 349.44C507.41 350.57 507.19 350.39 509.03 351.76C509.84 352.36 510.74 352.99 511.02 353.14C511.3 353.3 511.65 353.5 511.79 353.6C512.62 354.12 515.44 355.61 515.95 355.79C516.79 356.09 517.44 356.08 517.76 355.75ZM495.64 334.67C495.91 334.4 495.91 333.11 495.63 332.77C495.51 332.63 495.18 332.35 494.89 332.15C494.26 331.72 493.96 331.88 493.64 332.81C493.37 333.58 493.37 334.02 493.65 334.38C494.01 334.85 495.27 335.04 495.64 334.67ZM372.13 385.54C371.47 385.48 371.39 385.42 371.24 384.88C371.08 384.31 371.3 383.1 371.61 382.79C371.68 382.72 371.74 382.52 371.74 382.34C371.74 381.76 372.48 380.82 372.94 380.82C373.49 380.81 374.83 381.59 375.42 382.27C375.89 382.79 376.04 383.24 375.76 383.24C375.59 383.24 374.86 384.57 374.86 384.87C374.86 384.98 374.63 385.21 374.36 385.37C373.86 385.66 373.64 385.68 372.13 385.54ZM512.92 383.85C512.55 383.32 512.08 382.39 511.88 381.78C511.55 380.81 511.53 380.58 511.71 379.87C511.83 379.42 512 378.98 512.1 378.88C512.44 378.54 513.46 378.42 514.04 378.67C514.35 378.8 514.75 378.91 514.93 378.91C515.34 378.91 515.4 379.73 515 379.88C514.46 380.09 513.79 382.11 513.99 382.93C514.07 383.24 514.13 383.77 514.13 384.1C514.13 385.06 513.68 384.97 512.92 383.85ZM460.11 379.2C459.44 378.81 458.93 377.97 458.93 377.28C458.93 376.79 459.39 375.61 459.59 375.61C459.66 375.61 459.85 375.39 460.02 375.11C460.6 374.12 463.14 371.77 464.11 371.32C464.91 370.95 465.19 370.9 466.16 370.99C466.78 371.05 467.7 371.29 468.23 371.53C469.1 371.93 469.26 371.95 469.98 371.77C471.91 371.28 472.64 370.86 473.49 369.73C473.73 369.41 474.14 368.87 474.4 368.54C474.99 367.79 475.13 367.29 474.97 366.46C474.68 364.91 474.49 362.86 474.43 360.45C474.38 358.41 474.29 357.67 474.03 356.98C473.63 355.97 473.51 355.46 473.3 354.03C473.21 353.46 473.06 352.56 472.96 352.04C472.63 350.33 472.34 347.11 472.46 346.49C472.53 346.16 472.67 345.34 472.77 344.67C473.02 342.97 474.23 339.56 474.57 339.56C474.64 339.56 474.7 339.46 474.7 339.34C474.7 339.22 474.87 339 475.07 338.86C475.27 338.72 475.57 338.48 475.72 338.33C476.31 337.74 478.17 337.75 478.17 338.33C478.17 338.49 477.91 338.87 477.6 339.17C477.05 339.7 476.85 340.05 476.13 341.64C475.62 342.76 475.53 343.02 475.39 343.89C475.31 344.32 475.16 345.18 475.05 345.8C474.86 346.84 474.91 350.12 475.13 350.47C475.17 350.55 475.26 351.03 475.31 351.54C475.37 352.05 475.46 352.59 475.51 352.73C475.55 352.88 475.66 353.38 475.75 353.86C475.84 354.34 476.07 355.31 476.27 356.03C476.93 358.35 477.11 359.35 476.94 359.8C476.72 360.37 476.71 363.68 476.93 364.39C477.42 366.01 477.52 366.81 477.3 367.53C477.08 368.28 476.76 369.05 476.61 369.2C476.56 369.25 476.4 369.52 476.26 369.81C476.12 370.09 475.28 371.05 474.4 371.94C471.91 374.44 470.24 375.03 467.74 374.3C467.23 374.15 466.58 373.96 466.29 373.88C465.75 373.72 465.06 373.66 464.26 373.69C463.72 373.71 462.08 375.22 461.72 376.05C461.59 376.33 461.42 376.7 461.34 376.86C461.24 377.04 461.29 377.43 461.45 377.89C461.66 378.48 461.67 378.74 461.51 379.12C461.27 379.69 460.96 379.71 460.11 379.2ZM393.97 336.4C393.77 336.18 393.53 335.81 393.44 335.57C393.34 335.32 393.27 329.93 393.25 322.49C393.27 309.42 392.85 296.36 392.88 283.29C392.89 281.61 392.9 281.53 393.28 281.46C393.98 281.34 394.27 281.49 394.27 281.98C394.28 283.52 395.55 285.98 396.58 286.45C396.88 286.59 397.39 286.87 397.7 287.06C398.79 287.75 401.04 287.54 403.35 286.53C404.38 286.09 405.8 286.04 407.01 286.42C408.28 286.81 410.33 286.95 411.26 286.69C412.32 286.41 414.02 285.55 414.58 285.02C415.08 284.54 415.68 283.41 415.85 282.62C415.91 282.33 416.01 281.83 416.08 281.49C416.18 281.01 416.29 280.87 416.66 280.83C417.28 280.76 417.35 281.04 417.32 283.57C416.26 292.11 419.37 301.6 417.28 309.92C416.92 310.34 415.12 311.29 413.79 311.76C413.24 311.96 413.08 311.96 412.96 311.79C411 309.55 415.13 295.24 412.28 293.88C412.03 293.8 411.76 293.88 411.46 294.13C410.27 295.1 409.61 295.26 406.84 295.28C405.41 295.29 403.81 295.4 403.29 295.52C402.76 295.64 401.96 295.7 401.5 295.64C400.56 295.53 399.08 294.79 398.61 294.2C398.27 293.77 397.74 293.66 397.74 294.02C397.72 295.02 397.75 303.24 397.82 315.91L397.9 331.01L396.47 333.85C394.94 336.91 394.69 337.17 393.97 336.4ZM403.21 293C404.27 292.72 404.84 292.69 407.59 292.73C409.01 292.76 409.34 292.7 410.24 292.3C410.95 291.98 411.22 291.78 411.1 291.66C410.97 291.53 410.65 291.55 410.06 291.7C409.32 291.89 409.13 291.88 408.71 291.65C406.4 290.38 404.87 290.31 402.65 291.39C402.23 291.59 401.58 291.79 401.2 291.85C400.39 291.95 400.29 292.06 400.44 292.65C400.6 293.31 401.59 293.43 403.21 293ZM409.1 335.91C406.58 335.49 404.5 333.99 403.56 331.93C403.11 330.94 402.59 328.76 402.59 327.86C402.59 327.16 403.17 325.12 403.67 324.03C404.52 322.19 406.5 319.54 407.84 318.44C408.15 318.19 408.52 317.86 408.66 317.72C409.01 317.35 410.43 316.48 411.7 315.83C413.18 315.09 416.88 313.88 420.53 312.96C423.32 312.25 425.78 311.53 426.77 311.14C428.86 310.33 430.32 309.45 431.85 308.1C432.44 307.58 433.57 305.78 433.85 304.89C434.55 302.68 434.59 302.11 434.17 299.43C433.93 297.89 432.71 295.48 432.07 295.28C431.77 295.18 431.75 294.93 431.74 291.67C431.73 289.74 431.65 286.84 431.56 285.22C431.46 283.46 431.45 282.21 431.55 282.11C431.77 281.88 432.18 282.12 433.95 283.49C436.21 285.24 436.3 285.45 436.3 289.29C436.3 292.06 436.27 292.39 435.93 293.02C435.5 293.83 434.83 294.45 434.12 294.7C433.43 294.94 433.49 295.1 434.36 295.35C435.26 295.6 435.65 295.91 436.32 296.92C437.43 298.57 437.8 301.23 437.36 304.46C437.32 304.74 437.24 305.36 437.19 305.82C436.95 307.82 435.46 310.13 433.36 311.75C431.38 313.28 427.34 314.79 423.61 315.39C422.73 315.53 421.83 315.71 421.61 315.79C421.4 315.87 420.84 315.99 420.36 316.06C419.88 316.13 419.26 316.25 418.97 316.33C418.69 316.41 417.91 316.58 417.24 316.69C416.05 316.9 413.59 317.64 413.25 317.89C413.16 317.96 412.61 318.28 412.04 318.59C411.47 318.9 410.78 319.34 410.51 319.56C410.24 319.79 409.95 319.97 409.86 319.97C409.56 319.97 406.67 323.06 406.34 323.72C406.17 324.09 405.95 324.53 405.87 324.69C405.64 325.14 405.68 327.67 405.93 328.49C406.2 329.37 407.66 330.96 408.54 331.32C409.6 331.77 411.06 331.84 412.2 331.51C413.34 331.18 414.84 330.15 415.44 329.3C415.66 328.98 415.89 328.69 415.95 328.64C416.15 328.47 417.3 326.27 417.75 325.16C418.21 324.04 418.64 322.37 418.89 320.73C419.06 319.58 419.54 318.59 419.91 318.59C420.26 318.59 420.88 319.62 421.06 320.49C421.42 322.29 421.33 323.88 420.69 326.36C419.93 329.34 416.86 333.4 414.49 334.55C413.93 334.82 413.39 335.11 413.28 335.2C413.05 335.39 410.49 336.1 410.17 336.07C410.06 336.06 409.57 335.99 409.1 335.91ZM351.2 334.71C350.09 334.51 349.62 334.26 348.7 333.35C347.7 332.37 347.39 331.47 347.68 330.41C347.83 329.87 347.81 329.75 347.53 329.56C346.57 328.92 346.55 328.89 346.72 328.36C346.87 327.93 346.99 327.85 347.6 327.81C348.31 327.75 348.75 327.45 349.43 326.54C350.09 325.66 350.05 324.54 349.35 324.15C348.94 323.92 348.82 323.92 348.2 324.21C347.05 324.72 346.56 325.36 346.47 326.47C346.41 327.22 346.33 327.43 346.09 327.43C345.86 327.43 345.55 327.82 345.3 328.42C345.23 328.59 343.28 327.63 342.83 327.2C342.06 326.46 341.93 325.83 341.93 322.82C341.93 320.62 341.87 320.1 341.6 319.53C341.15 318.6 341 316.8 341.28 315.81C341.44 315.26 341.68 314.92 342.09 314.64C342.84 314.14 343.23 313.59 343.01 313.36C342.92 313.27 342.54 313.16 342.18 313.13C339.9 312.92 338.96 311.19 339.84 308.84C340.11 308.13 340.34 307.84 340.84 307.55C341.79 307.01 342.85 306.75 344.53 306.64L346 306.54L346.11 304.37C346.17 303.18 346.27 300.92 346.33 299.35C346.52 294.31 346.96 288.24 347.3 286.09C347.44 282.05 349.27 277.54 349.9 273.8C350.18 272.13 350.96 270.5 351.46 268.84C352.41 265.88 353.42 262.91 354.77 260.11C354.95 259.75 355.1 259.37 355.1 259.27C355.1 258.93 359.98 249.45 360.47 248.82C360.55 248.72 360.87 248.18 361.18 247.6C362.01 246.07 364.83 241.89 366.14 240.24C366.85 239.34 368.74 236.98 368.96 236.71C369.11 236.54 369.94 235.64 370.8 234.72C371.67 233.8 372.64 232.73 372.97 232.35C373.29 231.98 373.87 231.35 374.25 230.96C374.63 230.57 375.62 229.56 376.44 228.7C378.18 226.9 381.33 223.95 382.34 223.16C382.47 223.06 383.08 222.55 383.7 222.03C384.95 220.98 385.42 220.62 386.82 219.61C387.34 219.24 387.86 218.86 387.96 218.77C388.23 218.54 392.41 215.78 393.18 215.32C393.54 215.11 394.31 214.65 394.88 214.31C395.93 213.68 400.58 211.3 402.12 210.61C404.15 209.7 405.95 209.83 405.75 210.87C405.64 211.48 404.69 212.4 403.6 212.95C403.12 213.2 402.63 213.48 402.53 213.57C402.42 213.66 401.24 214.52 399.91 215.47C398.57 216.42 397.36 217.29 397.22 217.41C397.08 217.53 396.3 218.13 395.49 218.74C390.69 222.38 385.77 226.81 382.75 230.18C382.19 230.8 381.46 231.62 381.12 232.01C380.33 232.88 378.1 235.54 377.2 236.68C375.83 238.69 373.83 240.44 372.78 242.65C372.78 242.74 372.72 242.83 372.64 242.87C372.3 243.01 367.93 249.9 367.93 250.3C367.93 250.39 367.87 250.47 367.8 250.47C367.72 250.47 367.58 250.64 367.48 250.86C367.38 251.07 366.9 252.02 366.42 252.98C364.39 257.26 362.32 261.59 360.98 266.15C359.84 270.21 358.61 274.24 357.79 278.37C356.93 281.93 356.54 285.57 356.15 289.21C355.44 295.61 355.28 305.65 355.88 306.25C355.94 306.32 356.51 306.36 357.15 306.35C358.11 306.35 358.44 306.26 359.09 305.85C359.97 305.29 360.29 304.94 360.29 304.51C360.3 304.13 360.95 303.68 361.32 303.8C361.66 303.92 362.73 305.08 362.73 305.34C362.73 305.45 362.86 305.8 363.03 306.12C363.45 306.94 363.44 309.17 363.01 309.82C362.6 310.45 362.03 310.64 360.3 310.71C358.49 310.79 357.78 310.91 357.05 311.25C356.59 311.47 356.49 311.62 356.49 312.07C356.49 312.56 356.59 312.67 357.4 313.09C359.1 313.98 359.72 314.35 360.4 314.88C362.07 316.19 362.43 316.04 362.41 314.05C362.4 312.82 362.78 311.31 363.09 311.31C363.17 311.31 363.29 311.52 363.34 311.78C363.44 312.24 364.07 313.55 364.27 313.73C364.53 313.96 365.15 315.37 365.15 315.73C365.15 316.09 365.26 316.15 365.98 316.24C366.43 316.3 367.19 316.42 367.67 316.52C368.14 316.61 369.91 316.88 371.59 317.11C373.28 317.34 375.11 317.61 375.67 317.71C376.22 317.82 377.81 317.95 379.19 318.01C381.92 318.13 382.12 318.21 382.13 319.14C382.14 319.4 382.22 319.65 382.31 319.71C382.48 319.82 382.57 321.01 382.4 321.01C382.36 321.01 382.02 320.89 381.65 320.74C381.12 320.53 380.06 320.46 376.66 320.42C373.13 320.38 372.17 320.32 371.39 320.07C370.87 319.9 369.7 319.58 368.79 319.37C367.89 319.15 367.03 318.92 366.89 318.87C366.74 318.81 366.04 318.7 365.33 318.61C363.76 318.43 363.07 318.61 363.07 319.19C363.07 319.73 364.29 320.24 366.19 320.48C367.92 320.71 370.15 321.16 370.55 321.37C370.83 321.52 371.12 321.56 373.47 321.79C374.09 321.85 374.79 321.94 375.03 321.99C375.27 322.05 376.75 322.16 378.33 322.24C381.25 322.39 383.44 322.6 383.58 322.75C383.63 322.79 383.74 323.34 383.84 323.96C384.1 325.62 384.06 325.64 381.35 325.01C376.98 324.27 372.56 323.83 368.19 323.08C367.52 322.97 366.1 322.69 365.04 322.46C362.8 321.99 362.49 321.97 362.22 322.3C361.85 322.74 361.8 323.7 362.11 324.35C362.48 325.14 363.62 325.65 365.26 325.78C367.58 325.97 368.48 326.18 370.37 326.97C372.52 327.88 378.46 328.95 381.43 328.97L383.23 328.99L384.72 330.08C386.58 331.45 387.83 332.28 388.03 332.28C388.26 332.28 389.07 333.39 389.07 333.71C389.07 334.08 388.67 334.2 388 334C387.36 333.82 385.87 333.55 384.83 333.42C382.3 333.18 379.83 332.64 377.34 332.18C375.56 331.87 374.7 331.6 373.34 330.91C372.5 330.49 370.36 329.95 368.01 329.56C367.5 329.48 364.22 329.43 362.08 329.48C361.18 329.5 360.94 329.57 360.61 329.94C360.34 330.22 359.77 330.48 358.91 330.7C356.88 331.22 356.6 331.36 356.71 331.78C356.78 332.02 356.62 332.44 356.26 332.97C355.84 333.61 355.45 333.93 354.62 334.34C353.49 334.9 352.7 334.98 351.2 334.71ZM358.23 329.34C359.2 329.07 360.03 328.79 360.09 328.74C360.46 328.36 358.41 327.87 357.53 328.12C356.55 328.4 356.64 327.64 357.66 327.1C358.53 326.63 358.84 324.64 358.22 323.53C357.96 323.06 357.87 322.59 357.87 321.63C357.87 320.22 357.66 319.86 356.93 320.04C356.22 320.22 356.09 320.72 356.12 323.04C356.15 324.59 356.08 325.39 355.88 325.97C355.62 326.74 355.63 326.81 355.98 327.55C356.26 328.11 356.33 328.52 356.27 329.08C356.22 329.51 356.25 329.85 356.33 329.85C356.41 329.85 357.27 329.62 358.23 329.34ZM347.92 317.59C348.03 317.52 348.22 317.17 348.34 316.83C348.54 316.28 348.53 316.11 348.28 315.59C347.91 314.81 347.6 314.57 346.91 314.54L346.35 314.51L346.39 315.72C346.43 316.67 346.51 317 346.81 317.32C347.19 317.72 347.58 317.82 347.92 317.59ZM353.19 306.86L353.76 306.75L353.62 305.26C353.54 304.44 353.47 301.31 353.47 298.31C353.47 293.22 353.62 290.5 354.05 287.73C354.52 284.56 355.01 281.4 355.79 278.28C355.89 277.9 356.05 277.2 356.13 276.72C356.95 273.17 357.82 269.58 359.08 266.15C360.47 262.06 361.82 257.94 363.83 254.1C363.96 253.87 364.15 253.48 364.24 253.24C364.58 252.37 365.9 249.84 366.39 249.13C366.66 248.73 366.89 248.33 366.89 248.24C366.89 247.95 369.83 243.28 370.18 243.01C370.24 242.96 370.55 242.53 370.87 242.06C372.28 240.2 373.66 238.3 375.15 236.51C375.32 236.32 375.82 235.74 376.25 235.21C377.61 233.55 377.87 233.25 378.95 232.09C379.52 231.47 380.3 230.62 380.68 230.21C381.58 229.2 384.95 225.92 386.05 224.96C387.69 223.55 388.79 222.65 389.58 222.04C390.02 221.71 390.46 221.36 390.56 221.26C390.66 221.17 391 220.89 391.31 220.65C391.62 220.41 391.97 220.14 392.08 220.04C392.32 219.82 394.43 218.24 394.96 217.88C395.17 217.73 395.72 217.34 396.18 217.01C396.64 216.68 397.18 216.29 397.39 216.14C397.7 215.93 399.52 214.63 402.33 212.63C402.61 212.43 403.29 211.96 403.85 211.6C404.4 211.23 404.85 210.89 404.85 210.84C404.85 210.69 403.78 210.96 402.94 211.33C400.78 212.29 397.83 213.88 395.14 215.54C394.2 216.12 389.86 218.98 389.77 219.08C389.72 219.14 389.36 219.39 388.97 219.66C388.58 219.92 388.11 220.28 387.93 220.45C387.75 220.62 387.47 220.83 387.32 220.92C386.96 221.13 385.6 222.28 383.62 224.04C382.76 224.81 381.83 225.63 381.56 225.86C380.56 226.72 376.11 231.26 374.59 232.97C372.27 235.58 369.62 238.76 368.96 239.72C368.73 240.05 368.46 240.41 368.36 240.52C367.79 241.15 367.07 242.22 364.92 245.61C364.29 246.61 363.69 247.53 363.59 247.64C363.5 247.76 363.42 247.94 363.42 248.05C363.42 248.16 363.27 248.45 363.09 248.7C362.92 248.96 362.62 249.48 362.43 249.86C362.13 250.46 361.54 251.57 360.86 252.8C360.66 253.18 359.6 255.42 358.77 257.22C358.49 257.84 357.97 258.98 357.62 259.74C356.77 261.58 356.57 262.05 356.31 262.77C355.51 264.59 355 266.53 354.22 268.36C354.04 268.78 354.06 269.24 353.9 269.66C351.12 277.63 349.51 285.99 349.1 294.41C348.7 307.5 348.69 306.75 349.35 306.85C350.14 306.97 352.6 306.98 353.19 306.86ZM390.4 331.79C390.24 331.61 390.11 331.41 390.11 331.34C390.11 331.27 389.88 330.87 389.59 330.46C389.31 330.04 389.07 329.65 389.07 329.59C389.07 329.52 388.93 329.27 388.75 329.01C388.57 328.76 388.22 327.97 387.96 327.25C387.1 324.9 386.98 323.98 387.03 320.41C387.11 315.24 387.01 296.42 386.89 293.54C386.59 286.17 386.54 276.41 386.8 276.33C386.91 276.29 386.99 276.16 386.99 276.04C386.99 275.71 388.12 274.9 388.58 274.91C389.13 274.91 389.27 275.04 389.7 275.94C390.74 278.13 390.83 278.9 390.93 285.91C391.11 300.28 391.24 314.66 391.51 329.03C391.55 331.39 391.53 331.61 391.23 331.84C390.79 332.17 390.74 332.17 390.4 331.79ZM499.31 327.42C498.98 327.34 498.35 327.23 497.92 327.18C496.27 326.98 493.77 325.96 491.6 324.6C490.15 323.69 488.57 322.31 488.57 321.96C488.57 321.83 488.5 321.71 488.42 321.68C488.12 321.56 486.68 319.15 486.31 318.14C485.69 316.46 485.31 314.43 485.27 312.57C485.21 309.94 485.5 300.81 485.65 300.52C485.84 300.15 486.87 300.1 487.15 300.43C487.25 300.55 487.46 301.03 487.62 301.5C487.85 302.18 487.89 302.81 487.82 304.7C487.78 306 487.65 307.6 487.54 308.27C487.31 309.62 487.44 314.91 487.72 315.2C487.8 315.29 487.87 315.55 487.87 315.78C487.87 316.48 489.23 319.05 490.22 320.21C492.39 322.78 497.09 324.47 501.5 324.27C503.63 324.18 504.72 323.7 505.63 322.45C507.4 320 507.4 314.79 505.64 312.42C505.42 312.13 505.07 311.53 504.86 311.08C504.31 309.92 504.5 309.75 506.34 309.75C508.25 309.75 508.6 309.89 508.75 310.73C508.88 311.47 509.25 312.89 509.65 314.1C509.79 314.54 510 315.71 510.12 316.7C510.29 318.16 510.29 318.78 510.1 319.97C509.88 321.36 509.27 322.95 508.68 323.67C506.99 325.71 505.8 326.74 504.86 326.96C504.62 327.01 504 327.18 503.48 327.33C502.48 327.61 500.33 327.66 499.31 327.42ZM399.94 325.91C399.9 325.84 399.85 319.45 399.83 311.71C399.81 301.75 399.86 297.61 399.99 297.53C400.14 297.43 402.19 297.69 404.25 298.06C404.6 298.12 404.61 298.21 404.65 304.5C404.71 313.04 404.77 315.59 404.93 317.55L405.07 319.2L404.13 320.15C402.5 321.82 401.61 323.18 400.66 325.48C400.44 326 400.11 326.21 399.94 325.91ZM383.58 316.73C383.23 316.21 382.99 315.55 382.67 314.17C382.31 312.67 382.12 311.94 381.79 310.87C381.41 309.61 381.37 309.48 380.85 306.97C380.14 303.57 380.07 302.84 379.98 298.65C379.86 292.63 379.67 286.6 379.45 280.58C379.31 276.78 379.31 276.74 379.92 274.73C380.3 273.48 381.14 271.98 381.93 271.15C383.98 268.98 387.77 267.29 388.53 268.2C388.75 268.47 388.69 271.55 388.45 271.76C388.36 271.84 387.82 272.09 387.25 272.31C386.23 272.71 384.54 274.16 384.07 275.04C383.91 275.33 383.91 278.82 384.06 280.02C384.17 290.01 384.39 300.01 384.44 310C384.48 316.47 384.45 317.11 384.19 317.16C384.03 317.19 383.77 317.01 383.58 316.73ZM406.22 313.26C406.21 306.28 406.08 298.13 405.98 297.97C405.92 297.88 406.02 297.65 406.21 297.46C406.46 297.21 406.91 297.1 408.16 297.01C409.06 296.94 409.93 296.8 410.11 296.71C410.87 296.31 410.89 296.51 410.93 305.12C410.94 309.58 410.93 313.25 410.89 313.28C410.86 313.31 410.01 313.94 409.01 314.69C408.01 315.44 407.08 316.16 406.96 316.28C406.83 316.4 406.62 316.51 406.48 316.51C406.27 316.51 406.23 315.97 406.22 313.26ZM419.33 309.18C419.29 309.06 419.21 303.47 419.16 296.75C419.1 290.02 419.03 284.21 418.99 283.83C418.96 283.45 418.91 281.32 418.89 279.11L418.85 275.07L419.26 274.73C419.92 274.17 420.86 273.95 421.47 274.2C422.26 274.53 423.31 276.43 423.46 277.79C423.57 278.77 423.61 281.47 423.82 300.87C423.9 308.61 424 308.03 422.38 308.61C421.94 308.77 421.32 309.01 421 309.15C420.3 309.46 419.42 309.47 419.33 309.18ZM425.75 307.04C425.69 306.89 425.61 303.55 425.56 299.63C425.51 293.41 425.33 287.19 425.2 280.97C425.08 275.37 424.94 274.41 424.13 273.66C423.81 273.36 423.37 273.18 422.8 273.11C421.45 272.93 420.74 272.5 420.59 271.78C420.43 271 420.68 269.21 421.07 268.4L421.37 267.76L422.36 267.83C423.09 267.88 423.52 268.03 423.94 268.35C424.26 268.59 424.75 268.91 425.04 269.06C425.81 269.46 427.46 271.08 427.91 271.87C428.75 273.35 429.28 274.49 429.28 274.85C429.28 275.06 429.35 275.27 429.43 275.32C429.73 275.51 430 278.57 430.07 282.46C430.4 302.22 430.39 303.07 429.6 304.23C429.43 304.48 429.29 304.75 429.29 304.84C429.29 305.06 427.93 306.34 427.14 306.87C426.37 307.38 425.9 307.44 425.75 307.04ZM513.01 295.26C510.48 295.14 508.1 294.95 507.72 294.84C507.34 294.73 506.85 294.6 506.64 294.55C506.2 294.44 505.8 294.02 505.97 293.85C506.03 293.78 508.75 293.71 512.02 293.69C517.06 293.66 518.03 293.69 518.51 293.92C518.9 294.1 519.07 294.31 519.07 294.57C519.07 295.07 518.55 295.54 518.02 295.51C517.79 295.49 515.53 295.38 513.01 295.26ZM441.33 293.76C439.63 293.44 439.01 293.24 438.9 292.96C438.84 292.8 438.76 291.64 438.73 290.38C438.67 287.75 438.77 287.5 439.74 287.88C440.05 288 440.87 288.29 441.58 288.53C443.78 289.29 443.72 289.2 443.59 291.44C443.52 292.5 443.43 293.5 443.39 293.67C443.29 294.01 442.77 294.03 441.33 293.76ZM494.72 291.19C494.34 291.1 493.73 290.97 493.38 290.91C493 290.85 492.73 290.71 492.73 290.57C492.73 290.44 492.79 290.33 492.87 290.33C493.02 290.33 499.89 289.63 503.73 289.23C504.97 289.1 506.05 289.02 506.12 289.06C506.34 289.19 506.26 290.63 506.02 290.83C505.72 291.07 504.36 291.16 499.4 291.27C497.16 291.31 495.11 291.28 494.72 291.19ZM483.01 289.07C482.55 288.58 482.82 288.32 483.93 288.18C484.43 288.12 485.19 287.99 485.62 287.9C486.05 287.8 486.99 287.61 487.7 287.46C490.27 286.94 492.32 286.52 493.59 286.25C498.12 285.29 504.86 283.89 506.25 283.64C506.49 283.59 506.96 283.48 507.3 283.39C507.87 283.24 508.59 283.09 510.49 282.7C510.88 282.62 511.73 282.43 512.4 282.28C514.47 281.8 516.98 281.38 517.15 281.48C517.23 281.53 517.4 281.91 517.52 282.31C517.82 283.3 517.63 283.48 516 283.73C515.26 283.84 513.8 284.09 512.75 284.27C511.7 284.46 509.9 284.76 508.76 284.95C506.1 285.38 500.82 286.28 499.14 286.6C498.43 286.74 496.44 287.08 494.72 287.37C487.69 288.54 487.4 288.59 484.95 289.1L483.34 289.43L483.01 289.07ZM482.06 286.3C482.02 286.18 481.96 285.89 481.94 285.66C481.9 285.27 481.99 285.21 483.11 284.92C485.08 284.41 490.7 282.86 491.17 282.69C493.5 281.87 504.15 278.99 504.29 279.13C504.54 279.38 504.46 280.79 504.18 281.03C504.03 281.16 503.17 281.44 502.26 281.65C501.36 281.86 499.64 282.27 498.45 282.55C497.26 282.83 496.05 283.13 495.76 283.22C495.47 283.31 494.23 283.63 492.99 283.92C491.75 284.21 489.91 284.64 488.91 284.87C487.21 285.28 485.76 285.67 484.75 286.01C484.28 286.16 482.59 286.52 482.31 286.52C482.22 286.52 482.11 286.42 482.06 286.3ZM399.82 285.18C397.43 284.82 395.66 282.53 395.66 279.79C395.66 278.36 396.08 277.68 396.97 277.68C397.83 277.68 398.06 278.21 397.88 279.81C397.68 281.49 398.07 282.77 398.95 283.37C399.48 283.73 399.71 283.77 400.77 283.7C403.43 283.54 403.97 282.78 403.83 279.35C403.81 278.88 403.67 278.55 403.3 278.18C402.7 277.58 402.41 277.55 402.1 278.05C401.92 278.34 401.91 278.45 402.08 278.55C402.42 278.76 402.1 279.06 401.53 279.06C401.17 279.06 400.81 278.88 400.38 278.47C399.79 277.92 399.74 277.8 399.74 276.87C399.73 275.59 400.37 273.91 401.22 272.98C402.19 271.93 402.38 272.05 402.28 273.67C402.18 275.38 402.45 275.9 403.42 275.91C403.78 275.92 404.27 276 404.52 276.09C404.78 276.19 405.06 276.2 405.21 276.11C405.34 276.02 405.9 275.95 406.45 275.95C407.39 275.95 407.47 275.91 407.8 275.38C408.08 274.94 408.14 274.61 408.09 273.86C408.05 273.34 407.96 272.78 407.89 272.62C407.8 272.42 407.9 272.24 408.23 272.02C408.7 271.72 408.7 271.72 409.2 272.31C409.75 272.97 410.18 273.75 410.28 274.3C410.31 274.49 410.38 274.76 410.44 274.9C410.86 276.04 410.65 277.2 409.84 278.13C409.04 279.03 408.22 279.36 406.97 279.26C406.66 279.23 406.7 278.73 407.01 278.61C407.16 278.55 407.27 278.44 407.27 278.35C407.27 278.07 406.29 278.69 405.98 279.17C405.76 279.5 405.66 280.01 405.65 280.91C405.62 282.47 405.79 282.68 407.67 283.3C411.05 284.42 412.65 283.26 412.01 280.15C411.76 278.93 411.82 278.62 412.35 278.48C413.57 278.15 414.13 278.51 413.97 279.54C413.43 283.04 413.37 283.28 412.81 283.96C412.24 284.65 411.32 284.96 409.81 284.96C408.78 284.96 407.04 284.57 406.28 284.17C405.47 283.75 404.39 283.86 403.04 284.5C401.83 285.07 400.68 285.31 399.82 285.18ZM481.18 283.54C480.6 282.64 480.6 282.58 481.26 282.29C481.61 282.14 482.75 281.71 483.8 281.33C484.85 280.96 486.21 280.46 486.83 280.22C487.45 279.98 488.62 279.53 489.43 279.23C490.24 278.93 491.06 278.62 491.25 278.54C491.44 278.46 492.11 278.2 492.73 277.97C495.62 276.87 496.2 276.65 497.49 276.16C498.26 275.87 499.93 275.23 501.22 274.74C502.51 274.25 504.51 273.5 505.68 273.08C506.85 272.67 508.68 271.98 509.75 271.56C514.73 269.59 514.26 269.65 514.68 270.87C515.13 272.15 515.26 272.03 512.14 273.07C509.46 273.96 502.49 276.33 500.09 277.17C495.61 278.74 490.95 280.35 488.31 281.25C486.78 281.77 485.38 282.26 485.19 282.35C485 282.44 484.18 282.74 483.37 283.02C482.56 283.3 481.77 283.59 481.61 283.65C481.44 283.72 481.26 283.67 481.18 283.54ZM479.78 280.59C479.23 279.88 479.32 279.76 481.07 278.95C482 278.51 483.49 277.82 484.38 277.4C485.27 276.98 486.04 276.64 486.09 276.64C486.14 276.64 487.09 276.2 488.2 275.66C489.31 275.13 490.72 274.46 491.34 274.18C491.96 273.89 493.44 273.21 494.63 272.65C499.3 270.46 500.21 270.05 500.43 270.05C500.68 270.05 501.02 270.76 501.09 271.43C501.13 271.81 500.97 271.92 499.31 272.6C498.31 273.01 497.34 273.42 497.15 273.51C496.96 273.61 496.37 273.85 495.85 274.05C495.32 274.25 494.66 274.51 494.37 274.64C494.09 274.77 492.96 275.23 491.86 275.68C490.76 276.13 489.44 276.7 488.91 276.93C488.39 277.17 487.3 277.64 486.49 277.98C485.68 278.31 484.6 278.78 484.09 279.01C483.57 279.25 482.52 279.71 481.74 280.04C480.97 280.38 480.25 280.69 480.14 280.73C480.04 280.78 479.88 280.71 479.78 280.59ZM478.1 277.95C477.79 277.46 477.73 277.53 479.29 276.72C479.87 276.43 480.92 275.83 481.63 275.4C482.35 274.97 483.05 274.56 483.19 274.49C483.34 274.43 483.96 274.07 484.58 273.69C485.2 273.32 486.06 272.82 486.49 272.57C486.92 272.32 487.62 271.89 488.05 271.61C488.48 271.32 489.06 270.98 489.35 270.83C489.63 270.69 490.16 270.4 490.51 270.18C490.87 269.97 492.19 269.18 493.46 268.42C494.72 267.67 496.03 266.88 496.37 266.67C497.26 266.11 501.38 263.65 502.65 262.93C503.96 262.19 506.34 260.75 506.95 260.34C507.19 260.18 507.7 259.88 508.09 259.68L508.8 259.32L509.24 260C509.48 260.37 509.73 260.91 509.8 261.2C509.91 261.69 509.87 261.74 509.21 262.01C508.37 262.34 508.51 262.27 503.3 265.11C501.06 266.33 498.33 267.8 497.23 268.37C496.14 268.95 494.42 269.87 493.42 270.41C492.42 270.96 490.94 271.77 490.13 272.21C489.32 272.65 486.47 274.22 483.81 275.69C481.14 277.17 478.83 278.37 478.67 278.37C478.51 278.37 478.26 278.18 478.1 277.95ZM396.16 275.88C396.13 275.84 395.64 275.77 395.09 275.72C394.54 275.68 394.04 275.6 393.99 275.55C393.94 275.5 394.06 275.12 394.26 274.72C394.46 274.31 394.62 273.88 394.62 273.77C394.62 273.65 394.73 273.47 394.86 273.36C395.27 273.02 396.04 273.43 397.75 274.88C398.74 275.73 398.66 275.94 397.33 275.94C396.73 275.94 396.2 275.91 396.16 275.88ZM476.73 275.6C476.57 275.4 476.43 275.18 476.43 275.1C476.43 275.02 476.92 274.63 477.52 274.23C479.06 273.2 480.88 271.9 481.41 271.44C481.66 271.22 482.5 270.61 483.26 270.09C484.03 269.57 485.25 268.7 485.96 268.16C486.68 267.62 487.46 267.05 487.7 266.9C487.94 266.75 488.31 266.48 488.52 266.3C488.73 266.12 489.3 265.71 489.79 265.37C490.27 265.04 491.19 264.37 491.83 263.9C492.47 263.42 493.51 262.65 494.16 262.2C494.8 261.74 495.33 261.29 495.33 261.2C495.33 261.11 495.43 261.04 495.55 261.04C495.77 261.04 495.94 261.27 496.56 262.38C496.95 263.06 496.92 263.11 495.67 263.82C495.34 264.01 494.74 264.38 494.34 264.64C493.93 264.9 493.11 265.42 492.51 265.8C491.92 266.17 491.27 266.63 491.08 266.81C490.89 266.99 490.52 267.25 490.25 267.39C489.99 267.52 489.04 268.14 488.14 268.76C487.25 269.37 486.46 269.88 486.4 269.88C486.34 269.88 485.96 270.13 485.54 270.44C485.13 270.75 484.65 271.1 484.47 271.22C484.29 271.34 483.41 271.93 482.5 272.53C481.59 273.14 480.54 273.84 480.16 274.09C479.78 274.34 479.03 274.86 478.49 275.25C477.38 276.04 477.15 276.09 476.73 275.6ZM415.16 275.31C414.59 275.18 413.85 275.03 413.51 274.97C412.23 274.77 411.67 274.41 412.16 274.1C412.55 273.86 416.61 273.26 416.77 273.42C416.81 273.47 416.78 273.64 416.7 273.81C416.62 273.99 416.55 274.43 416.55 274.8C416.55 275.17 416.47 275.5 416.37 275.51C416.28 275.53 415.73 275.44 415.16 275.31ZM474.92 273.47C474.43 272.83 474.4 272.88 475.92 271.6C476.42 271.18 477.39 270.36 478.06 269.79C478.74 269.21 480.07 268.08 481.03 267.27C484.11 264.65 486.39 262.69 486.75 262.36C486.94 262.18 487.64 261.6 488.3 261.06C488.96 260.52 489.66 259.93 489.87 259.74C490.07 259.55 490.43 259.24 490.66 259.04C491.23 258.58 493.31 256.82 493.42 256.7C493.49 256.63 495.08 255.24 496.3 254.19C497.29 253.34 498.8 252 499.34 251.5C499.7 251.17 500.21 250.73 500.48 250.52C500.74 250.31 501.23 249.9 501.56 249.61C501.88 249.32 502.24 249.08 502.34 249.08C502.45 249.08 502.84 249.48 503.21 249.97L503.89 250.85L503.17 251.48C502.43 252.13 501.5 252.89 497.87 255.81C497.47 256.13 496.87 256.61 496.54 256.88C496.21 257.15 494.92 258.17 493.68 259.15C492.44 260.14 491.32 261.04 491.2 261.16C491.07 261.29 490.92 261.39 490.85 261.39C490.79 261.39 490.49 261.6 490.19 261.86C489.89 262.12 489.47 262.46 489.25 262.6C489.04 262.74 488.31 263.33 487.63 263.91C486.95 264.49 486.13 265.15 485.79 265.38C485.46 265.61 485.1 265.87 485 265.97C484.9 266.07 484.56 266.35 484.25 266.58C483.76 266.96 482.37 268.07 479.82 270.11C479.44 270.41 478.62 271.08 478 271.61C477.38 272.13 476.79 272.62 476.69 272.69C476.6 272.77 476.29 273.03 476 273.26C475.42 273.74 475.17 273.79 474.92 273.47ZM410.83 273.01C410.78 272.92 410.83 272.78 410.95 272.71C411.08 272.63 411.52 272.14 411.94 271.61C412.7 270.66 413.14 270.22 413.33 270.23C413.63 270.23 414.41 271.11 414.32 271.35C414.26 271.49 413.63 271.89 412.91 272.23C412.2 272.57 411.57 272.92 411.51 273.01C411.38 273.22 410.96 273.22 410.83 273.01ZM397.83 272.71C397.44 272.56 396.88 272.4 396.58 272.36C395.89 272.25 395.76 271.91 396.11 271.16C396.5 270.34 396.64 270.3 397.18 270.87C397.44 271.14 398.02 271.66 398.48 272.03C398.93 272.39 399.3 272.76 399.3 272.85C399.3 273.08 398.6 273.01 397.83 272.71ZM473.08 271.13C472.92 270.95 472.79 270.73 472.79 270.64C472.8 270.56 473.95 269.3 475.35 267.86C476.76 266.42 478.88 264.2 480.07 262.95C481.25 261.69 482.74 260.13 483.36 259.49C485.67 257.12 488.83 253.74 488.89 253.58C488.98 253.32 489.61 253.38 489.61 253.66C489.61 253.79 489.84 254.1 490.13 254.34C490.41 254.58 490.65 254.93 490.65 255.11C490.65 255.29 490.24 255.82 489.74 256.28C489.24 256.74 488.24 257.66 487.52 258.34C486.8 259.01 485.48 260.23 484.58 261.04C483.69 261.85 482.51 262.94 481.96 263.46C477.2 268.03 473.66 271.34 473.5 271.4C473.43 271.43 473.24 271.3 473.08 271.13ZM429.29 270.51C429.14 270.4 428.94 270.15 428.84 269.96C428.63 269.59 426.08 267.3 424.58 266.12C424.07 265.73 423.15 265.23 422.53 265.03C421.21 264.59 420.62 264.1 420.62 263.48C420.62 262.84 421.46 262.33 423.21 261.93C424.52 261.62 424.75 261.51 425.38 260.84C426.58 259.55 426.91 258.51 426.61 256.98C426.32 255.55 425.88 255.14 424.62 255.14C424.02 255.14 423.5 255.24 423.3 255.4C423.11 255.54 422.83 255.66 422.67 255.66C422.21 255.67 421.64 256.62 421.61 257.44C421.56 258.37 421.92 258.43 422.39 257.57C422.83 256.77 423.17 256.53 423.85 256.53C424.59 256.53 425.13 257.2 425.13 258.13C425.13 258.94 424.9 259.4 424.19 260.05C422.69 261.42 421 261.4 419.67 260C419.18 259.49 419.15 259.37 419.17 258.26C419.22 256.24 419.93 255.45 423.17 253.8C425.67 252.52 426.33 252.43 427.16 253.22C427.45 253.5 427.83 253.96 428 254.26C428.18 254.56 428.37 254.8 428.44 254.8C428.62 254.8 429.14 256.16 429.37 257.22C429.52 257.95 429.52 258.37 429.37 258.96C429.14 259.85 428.67 260.92 428.22 261.58C427.79 262.21 427.81 262.27 428.6 262.83C428.98 263.1 429.29 263.46 429.29 263.64C429.29 263.82 429.36 264.01 429.46 264.07C429.74 264.24 429.66 264.5 429.33 264.52C429.06 264.54 429.06 264.55 429.31 264.62C429.71 264.73 429.79 265.13 429.92 267.89C430.01 269.86 429.98 270.35 429.79 270.52C429.6 270.67 429.48 270.67 429.29 270.51ZM379.58 269.83C379.49 269.71 379.33 268.95 379.23 268.13C379.06 266.82 379.08 266.47 379.38 265.27C379.73 263.87 380.43 262.51 381.28 261.61C381.98 260.86 382.07 260.39 381.62 259.91C380.4 258.61 380.08 256.74 380.82 255.11C381.66 253.22 383.25 252.51 385.35 253.08C387.25 253.61 389.77 255.24 389.77 255.94C389.77 256.08 389.83 256.18 389.91 256.18C390 256.18 390.14 256.52 390.22 256.92C390.6 258.65 389.46 260.52 388.04 260.52C387.1 260.52 386.57 260.24 386.03 259.46C385.41 258.56 385.41 257.64 386.03 257.1C386.6 256.61 387.06 256.6 387.53 257.06C388.42 257.96 388.75 256.5 387.87 255.55C387.47 255.13 387.15 254.98 386.47 254.88C385.69 254.78 385.53 254.81 385.16 255.16C384.93 255.37 384.74 255.64 384.74 255.74C384.74 255.84 384.61 256.16 384.45 256.44C384.07 257.14 384.06 259.72 384.44 260.44C385.15 261.8 386.11 262.34 387.86 262.34L388.99 262.34L388.97 262.94C388.95 263.28 388.88 263.9 388.79 264.32L388.63 265.09L387.51 265.38C385.66 265.87 385.05 266.08 384.58 266.4C384.33 266.57 383.78 266.93 383.35 267.21C382.33 267.87 382.37 267.83 381.29 268.79C379.93 270 379.78 270.09 379.58 269.83ZM399.24 269.27C398.97 269.13 398.51 268.82 398.23 268.58C397.95 268.34 397.5 268.1 397.25 268.05C396.99 267.99 396.63 267.87 396.45 267.76C396.26 267.66 395.77 267.56 395.36 267.55C394.95 267.53 394.53 267.43 394.42 267.32C394.15 267.05 394.14 265.68 394.41 265.59C394.53 265.55 394.72 265.42 394.84 265.3C395.41 264.74 396.8 264.5 398.32 264.71C399.18 264.83 399.66 264.82 399.96 264.69C400.51 264.44 400.63 264.57 400.34 265.11C400.21 265.35 400.11 265.8 400.12 266.11C400.13 266.42 400.14 267.13 400.15 267.68C400.16 268.24 400.24 268.83 400.34 269.01C400.46 269.24 400.44 269.35 400.24 269.43C399.86 269.57 399.8 269.56 399.24 269.27ZM409.86 269.16C409.85 269.13 409.83 268.23 409.82 267.17C409.79 265.6 409.73 265.17 409.48 264.9C409.06 264.43 409.1 264.07 409.62 263.84C410.24 263.56 410.84 263.59 411.48 263.93C412.56 264.51 413.95 265.02 414.43 265.02C414.7 265.02 415.22 264.87 415.59 264.68C416.43 264.25 416.46 264.25 416.46 264.67C416.46 264.85 416.31 265.05 416.13 265.11C415.79 265.21 415.25 266.16 415.25 266.65C415.25 267.33 412.83 268.71 411.3 268.91C410.8 268.97 410.27 269.07 410.13 269.12C409.99 269.18 409.87 269.19 409.86 269.16ZM470.99 268.95C470.6 268.67 470.71 268.25 471.36 267.54C471.63 267.25 472.19 266.59 472.62 266.07C473.05 265.55 473.52 265 473.66 264.85C473.8 264.7 474.15 264.28 474.44 263.91C474.94 263.26 475.42 262.68 479.38 257.84C480.38 256.62 481.36 255.43 481.55 255.19C481.74 254.95 482.15 254.47 482.45 254.13C482.76 253.78 483.01 253.45 483.02 253.38C483.02 253.32 483.27 253 483.58 252.67C483.89 252.34 484.39 251.77 484.69 251.4C487.16 248.32 488.54 246.59 488.86 246.17C489.08 245.9 489.47 245.44 489.74 245.16C490.01 244.88 490.5 244.26 490.82 243.78C491.15 243.31 491.57 242.76 491.77 242.56C491.96 242.37 492.32 241.94 492.55 241.63C493.17 240.8 493.41 240.58 493.7 240.58C494.1 240.58 495.15 241.64 495.15 242.04C495.15 242.24 494.81 242.76 494.41 243.19C494.01 243.63 493.25 244.48 492.73 245.09C490.74 247.39 489.43 248.86 488.51 249.85C487.58 250.84 485.71 252.95 484.57 254.29C484.2 254.73 483.68 255.32 483.42 255.6C482.53 256.56 481.98 257.22 481.98 257.34C481.98 257.41 481.61 257.82 481.16 258.25C480.45 258.94 479.37 260.13 477.99 261.73C477.79 261.97 477.37 262.44 477.07 262.77C476.77 263.11 476.01 263.97 475.39 264.68C474.77 265.39 474.23 266.02 474.18 266.06C474.13 266.11 473.52 266.83 472.82 267.67C472.12 268.5 471.49 269.18 471.42 269.18C471.35 269.18 471.16 269.08 470.99 268.95ZM468.55 266.73C468.36 266.62 468.17 266.51 468.14 266.49C468.08 266.43 469.48 264.3 469.68 264.16C469.78 264.08 472.42 260.24 472.88 259.5C472.98 259.34 473.1 259.18 473.15 259.13C473.2 259.08 473.51 258.65 473.83 258.18C474.14 257.7 475.74 255.33 477.37 252.91C479 250.49 480.42 248.37 480.52 248.19C480.82 247.69 481.32 247.17 481.52 247.17C481.62 247.17 481.92 247.38 482.19 247.64C482.82 248.24 482.82 248.9 482.19 249.64C481.92 249.95 481.51 250.48 481.28 250.81C481.05 251.14 480.72 251.57 480.56 251.75C480.39 251.94 480.25 252.16 480.25 252.24C480.25 252.33 480.15 252.5 480.03 252.62C479.78 252.89 478.57 254.48 476.66 257.05C475.92 258.05 475.22 258.99 475.1 259.13C474.99 259.27 474.46 259.98 473.94 260.69C473.41 261.41 472.91 262.07 472.83 262.16C472.48 262.59 470.74 264.93 470.06 265.89C469.3 266.96 469.14 267.06 468.55 266.73ZM549.59 266.75C549.17 266.66 548.75 266.51 548.65 266.42C548.55 266.32 548.34 266.24 548.19 266.24C547.57 266.24 545.44 264.52 544.7 263.42C544.05 262.47 543.97 262.23 543.96 261.35C543.96 259.73 544.52 259.39 546.37 259.89C548.02 260.32 549.22 261.17 550.38 262.68C550.94 263.42 551.66 264.87 551.66 265.25C551.66 265.37 551.73 265.55 551.82 265.64C551.91 265.73 552 266.04 552.04 266.32C552.09 266.84 552.08 266.85 551.23 266.87C550.75 266.89 550.02 266.83 549.59 266.75ZM432.34 265.33C432.08 264.83 431.67 264.07 431.42 263.64C429.61 260.52 429.54 260.36 429.74 260.04C429.84 259.89 429.99 259.73 430.08 259.71C430.17 259.68 430.75 260.63 431.37 261.83C431.99 263.02 432.63 264.15 432.8 264.33C432.96 264.52 433.1 264.75 433.1 264.85C433.1 264.95 433.19 265.18 433.31 265.36C433.47 265.62 433.46 265.75 433.28 265.96C432.94 266.38 432.83 266.31 432.34 265.33ZM466.54 265.39L466.16 265.09L466.59 264.32C467.28 263.1 467.68 262.4 468.26 261.42C468.56 260.92 468.81 260.46 468.81 260.41C468.81 260.35 468.95 260.1 469.13 259.85C469.3 259.6 469.78 258.77 470.19 258C471.8 255 471.95 254.71 472.09 254.54C472.23 254.36 473 252.98 473.84 251.42C474.1 250.94 474.48 250.24 474.7 249.86C474.92 249.48 475.31 248.77 475.57 248.3C475.82 247.82 476.21 247.12 476.43 246.74C476.96 245.83 477.74 244.39 478.41 243.1C478.7 242.53 478.98 242.02 479.03 241.97C479.08 241.92 479.31 241.49 479.55 241.02C479.79 240.54 480.43 239.34 480.98 238.35C481.52 237.36 482.07 236.33 482.19 236.06C482.31 235.78 482.47 235.56 482.54 235.56C482.61 235.56 482.67 235.42 482.67 235.24C482.67 234.96 483.26 234.17 483.47 234.17C483.62 234.17 485.07 235.2 485.18 235.38C485.29 235.55 484.42 237.29 484.23 237.29C484.17 237.29 484.02 237.56 483.89 237.9C483.76 238.23 483.59 238.5 483.51 238.5C483.43 238.5 483.37 238.59 483.37 238.69C483.37 238.79 483.13 239.22 482.85 239.63C482.56 240.05 482.33 240.44 482.33 240.5C482.33 240.56 482.09 240.95 481.81 241.36C481.52 241.78 481.29 242.16 481.29 242.21C481.29 242.25 480.88 242.94 480.39 243.74C479.9 244.53 479.41 245.35 479.31 245.57C479.21 245.78 479.06 245.96 478.99 245.96C478.92 245.96 478.86 246.03 478.86 246.13C478.86 246.22 478.49 246.86 478.04 247.56C477.23 248.8 476.97 249.23 476.49 250.14C476.36 250.4 476.15 250.69 476.02 250.8C475.88 250.91 475.68 251.25 475.55 251.55C475.43 251.86 475.28 252.15 475.22 252.2C475.13 252.28 473.7 254.64 472.97 255.92C472.8 256.21 472.41 256.87 472.1 257.4C471.79 257.92 471.29 258.78 471.01 259.3C470.72 259.83 470.26 260.58 469.99 260.98C469.72 261.38 469.5 261.75 469.5 261.8C469.5 261.86 469.21 262.35 468.86 262.9C468.06 264.13 467.64 264.85 467.5 265.23C467.33 265.67 466.96 265.73 466.54 265.39ZM435.4 264.47C435.29 264.34 435 263.78 434.74 263.2C434.48 262.63 433.22 260.03 431.95 257.42C430.68 254.82 429.63 252.61 429.63 252.53C429.63 252.44 429.56 252.37 429.46 252.37C429.36 252.37 429.29 252.29 429.29 252.19C429.29 252 426.17 245.69 425.5 244.52C425.3 244.16 425.13 243.8 425.13 243.72C425.13 243.56 425.8 243.26 426.55 243.09C427.05 242.97 427.1 243.05 428.25 245.7C428.42 246.08 428.68 246.66 428.82 247C428.97 247.33 429.25 248.03 429.46 248.54C429.84 249.52 430.35 250.7 430.78 251.57C430.91 251.85 431.02 252.14 431.02 252.22C431.02 252.3 431.22 252.81 431.47 253.36C431.72 253.91 432.11 254.78 432.34 255.28C432.57 255.78 432.75 256.23 432.75 256.28C432.75 256.32 432.92 256.73 433.12 257.18C433.32 257.64 433.55 258.16 433.62 258.35C433.7 258.54 434.01 259.22 434.3 259.85C434.59 260.48 434.83 261.13 434.83 261.28C434.83 261.43 434.91 261.56 435.01 261.56C435.1 261.56 435.18 261.63 435.18 261.73C435.18 261.82 435.38 262.33 435.62 262.86C436.07 263.84 436.12 264.51 435.77 264.63C435.66 264.66 435.5 264.59 435.4 264.47ZM463.47 263.98C463.33 263.75 463.31 263.54 463.43 263.33C463.66 262.92 464.99 260.02 464.99 259.93C464.99 259.89 465.31 259.19 465.69 258.37C466.07 257.55 466.38 256.78 466.38 256.66C466.38 256.53 466.45 256.35 466.53 256.26C466.61 256.17 466.97 255.4 467.34 254.54C467.7 253.68 468.26 252.39 468.58 251.68C468.9 250.96 469.23 250.22 469.31 250.03C469.39 249.84 469.53 249.49 469.63 249.25C469.73 249.01 469.95 248.51 470.11 248.12C470.64 246.9 470.92 246.23 471.05 245.87C471.13 245.68 471.27 245.33 471.37 245.09C471.48 244.85 471.73 244.23 471.95 243.7C472.46 242.43 472.62 242.26 473.18 242.47C474.12 242.83 474.56 243.65 474.2 244.36C473.39 245.97 470.28 252.06 470.06 252.46C469.96 252.65 469.38 253.82 468.78 255.06C468.17 256.3 467.62 257.34 467.55 257.37C467.48 257.4 467.42 257.51 467.42 257.61C467.42 258.07 464.19 264.31 463.95 264.32C463.81 264.33 463.59 264.18 463.47 263.98ZM438.26 263.16C438.11 262.99 437.79 262.27 437.55 261.56C437.04 260.06 436.28 257.99 436.05 257.48C435.96 257.29 435.78 256.78 435.64 256.35C435.5 255.92 434.94 254.44 434.4 253.06C433.86 251.68 433.35 250.4 433.28 250.2C433.01 249.51 432.8 248.98 432.61 248.56C432.5 248.32 432.25 247.66 432.05 247.08C431.85 246.51 431.62 245.89 431.54 245.7C431.46 245.51 430.91 244.1 430.32 242.58C429.73 241.05 429.1 239.47 428.92 239.07C428.74 238.67 428.59 238.26 428.59 238.16C428.59 238.06 428.45 237.65 428.26 237.25C428.08 236.84 427.76 236.04 427.55 235.47C426.98 233.94 426.92 233.8 426.63 233.13C426.49 232.8 426.08 231.78 425.72 230.88C425.36 229.97 425.02 229.15 424.95 229.06C424.88 228.96 424.77 228.64 424.7 228.33C424.57 227.7 424.82 227.49 426.17 227.12C427.41 226.78 427.71 226.82 427.82 227.37C428.07 228.54 429.19 232.14 429.47 232.65C429.56 232.82 429.63 233.1 429.63 233.28C429.63 233.46 429.78 233.99 429.96 234.45C430.14 234.92 430.53 236.08 430.83 237.03C431.12 237.98 431.84 240.25 432.42 242.06C432.99 243.87 433.55 245.62 433.64 245.96C433.74 246.29 433.88 246.72 433.95 246.91C434.03 247.1 434.19 247.57 434.3 247.95C434.42 248.33 434.57 248.8 434.65 248.99C434.73 249.18 434.89 249.69 435.01 250.12C435.13 250.55 435.42 251.48 435.66 252.2C435.9 252.91 436.15 253.73 436.22 254.02C436.3 254.3 436.55 255.08 436.79 255.75C437.02 256.42 437.31 257.32 437.44 257.74C437.62 258.41 438.13 260.01 438.82 262.18C439.19 263.32 438.88 263.86 438.26 263.16ZM460.77 263.07C460.46 262.85 460.49 262.77 461.7 259.74C461.78 259.55 462 258.96 462.19 258.44C462.38 257.91 462.67 257.13 462.83 256.7C462.99 256.28 463.34 255.26 463.62 254.45C463.89 253.64 464.34 252.35 464.62 251.59C464.89 250.83 465.18 250.05 465.24 249.86C465.31 249.67 465.44 249.38 465.53 249.21C465.61 249.04 465.69 248.77 465.69 248.59C465.69 248.42 465.75 248.21 465.83 248.12C465.92 248.03 466.23 247.17 466.54 246.22C466.84 245.26 467.16 244.35 467.25 244.18C467.35 244.02 467.42 243.76 467.42 243.62C467.42 243.47 467.49 243.22 467.58 243.05C467.67 242.89 467.91 242.28 468.12 241.71C468.32 241.14 468.55 240.52 468.62 240.32C469.05 239.14 469.72 237.12 469.84 236.66C469.91 236.36 470.1 235.86 470.26 235.55C470.41 235.24 470.54 234.89 470.54 234.77C470.54 234.66 470.69 234.18 470.88 233.72C471.06 233.25 471.46 232.17 471.75 231.31C472.55 229.04 472.59 228.96 473.12 229.09C473.37 229.14 473.78 229.3 474.04 229.43C474.45 229.64 474.49 229.73 474.41 230.31C474.35 230.67 474.25 231.04 474.18 231.14C474.12 231.23 473.89 231.78 473.67 232.35C473.46 232.92 473.22 233.55 473.14 233.74C473.06 233.93 472.75 234.75 472.45 235.56C472.14 236.37 471.83 237.19 471.75 237.38C471.68 237.57 471.52 238 471.4 238.33C471.29 238.66 471.06 239.25 470.89 239.63C470.72 240.01 470.45 240.71 470.29 241.19C470.13 241.67 469.88 242.33 469.73 242.66C469.58 243 469.39 243.47 469.29 243.7C469.19 243.94 469.04 244.27 468.96 244.44C468.88 244.6 468.81 244.82 468.81 244.92C468.81 245.03 468.66 245.41 468.48 245.77C468.31 246.14 468.06 246.8 467.93 247.24C467.8 247.68 467.63 248.04 467.56 248.04C467.48 248.04 467.42 248.19 467.42 248.37C467.42 248.56 467.34 248.76 467.25 248.82C467.15 248.88 467.07 249.1 467.07 249.31C467.07 249.53 467 249.78 466.92 249.87C466.83 249.96 466.64 250.38 466.5 250.81C466.08 252.09 464.95 254.87 464.79 255.05C464.71 255.14 464.65 255.36 464.65 255.53C464.65 255.7 464.58 255.98 464.49 256.14C464.28 256.57 464.07 257.1 463.44 258.87C463.14 259.73 462.75 260.74 462.58 261.12C462.41 261.51 462.21 262.05 462.14 262.34C461.92 263.27 461.42 263.54 460.77 263.07ZM440.81 262.19C440.65 261.95 440.42 261.3 440.3 260.74C440 259.38 439.67 258.08 439.51 257.66C439.43 257.47 439.2 256.65 438.99 255.84C438.78 255.03 438.46 253.86 438.28 253.24C438.1 252.62 437.67 251.1 437.33 249.86C436.99 248.62 436.6 247.21 436.47 246.74C436.34 246.26 436.16 245.72 436.07 245.52C435.99 245.33 435.83 244.79 435.72 244.31C435.6 243.83 435.23 242.56 434.89 241.48C434.2 239.28 434.22 239.15 435.37 239.13L436.09 239.11L436.5 240.58C436.72 241.39 436.9 242.27 436.91 242.52C436.91 242.78 436.98 243.03 437.06 243.08C437.15 243.13 437.26 243.47 437.32 243.83C437.44 244.58 437.67 245.56 437.95 246.56C438.18 247.35 438.28 247.79 438.82 250.12C439.39 252.64 439.43 252.8 440.11 255.49C440.8 258.26 440.91 258.65 441.42 260.45C441.74 261.61 441.86 262.42 441.69 262.42C441.65 262.42 441.5 262.47 441.36 262.52C441.2 262.59 440.99 262.46 440.81 262.19ZM457.95 262.16C457.84 261.87 457.89 261.59 458.32 260.17C458.48 259.65 458.67 258.95 458.75 258.61C458.83 258.28 459.02 257.5 459.18 256.88C459.34 256.26 459.63 255.09 459.82 254.28C460.01 253.47 460.31 252.26 460.48 251.59C461 249.61 462.19 244.58 462.77 241.88C463.21 239.83 463.55 239.33 464.35 239.56C465.16 239.79 465.37 240.07 465.18 240.68C465.09 240.96 464.89 241.62 464.73 242.14C464.58 242.67 464.18 243.99 463.85 245.09C463 247.96 462.63 249.22 462.38 250.2C462.26 250.68 462.11 251.15 462.05 251.24C461.98 251.34 461.83 251.81 461.71 252.28C461.35 253.76 460.81 255.56 460.65 255.88C460.56 256.04 460.49 256.35 460.49 256.56C460.49 256.96 460.2 257.97 459.95 258.48C459.86 258.64 459.79 258.92 459.79 259.09C459.79 259.27 459.73 259.48 459.65 259.57C459.57 259.66 459.4 260.21 459.28 260.78C459.16 261.35 458.99 261.95 458.9 262.12C458.7 262.49 458.09 262.52 457.95 262.16ZM443.37 261.39C443.25 261.2 443.15 260.88 443.15 260.67C443.15 260.47 443.08 260.02 442.99 259.67C442.81 259 442.36 256.65 441.78 253.41C441.42 251.45 441.27 250.6 440.91 248.73C440.29 245.46 439.97 243.78 439.68 242.4C439.5 241.55 439.27 240.38 439.16 239.8C439.05 239.23 438.89 238.45 438.81 238.07C438.72 237.69 438.49 236.52 438.29 235.47C438.09 234.42 437.81 232.98 437.66 232.26C437.51 231.55 437.31 230.57 437.22 230.1C437.06 229.28 436.98 228.85 436.6 227.09C436.31 225.78 436.44 225.63 437.97 225.41C439.03 225.26 439.34 225.56 439.34 226.76C439.34 227.25 439.42 228.08 439.52 228.61C439.73 229.79 440.18 232.5 440.39 233.91C440.66 235.74 440.92 237.52 441.09 238.68C441.25 239.77 441.35 240.47 441.76 243.18C442.12 245.59 442.3 246.91 442.39 247.78C442.44 248.25 442.55 248.8 442.63 248.99C442.72 249.18 442.83 249.81 442.89 250.38C443.1 252.39 443.53 255.4 443.74 256.27C443.78 256.46 443.91 257.2 444.02 257.92C444.13 258.63 444.3 259.68 444.41 260.24C444.58 261.16 444.57 261.28 444.28 261.5C443.84 261.82 443.62 261.79 443.37 261.39ZM455.57 261.61C455.31 261.54 455.27 261.42 455.36 260.89C455.77 258.51 456.21 255.58 456.51 253.32C456.61 252.56 456.8 251.27 456.94 250.46C457.08 249.65 457.28 248.41 457.37 247.69C457.55 246.41 457.73 245.11 458.07 242.75C458.17 242.08 458.32 241.03 458.4 240.41C458.49 239.79 458.64 238.7 458.73 237.98C458.95 236.42 459.23 234.35 459.45 232.7C460.04 228.09 460.35 226.1 460.51 225.81C460.66 225.53 460.8 225.49 461.33 225.59C462.33 225.77 462.83 226.08 462.77 226.46C462.45 228.47 462.05 230.76 461.98 231.01C461.93 231.17 461.84 231.58 461.8 231.92C461.75 232.25 461.63 233.03 461.52 233.65C461.42 234.27 461.27 235.21 461.18 235.73C461.02 236.7 460.83 237.75 460.49 239.63C460.38 240.2 460.22 241.1 460.13 241.62C460.03 242.15 459.87 243.01 459.78 243.53C459.68 244.06 459.53 244.95 459.44 245.52C459.36 246.1 459.12 247.31 458.93 248.21C458.73 249.12 458.5 250.3 458.42 250.85C458.33 251.39 458.22 251.91 458.17 251.99C458.12 252.07 458.06 252.45 458.04 252.82C458.02 253.19 457.94 253.62 457.87 253.77C457.79 253.93 457.71 254.39 457.69 254.81C457.67 255.23 457.52 256.2 457.35 256.96C457.18 257.73 456.96 258.94 456.85 259.65C456.49 261.94 456.55 261.86 455.57 261.61ZM446.49 261.17C446.39 261.05 446.26 260.25 446.21 259.39C446.1 257.71 445.89 255.5 445.6 252.89C445.5 251.99 445.34 250.46 445.23 249.51C444.82 245.62 444.38 241.86 443.93 238.31L443.8 237.33L444.7 237.27C446.28 237.16 446.21 237.01 446.34 240.61C446.51 245.15 446.61 247.01 446.8 249.06C446.89 250.06 446.97 251.54 446.97 252.36C446.97 253.18 447.04 254.51 447.13 255.32C447.22 256.13 447.34 257.75 447.38 258.91C447.46 260.87 447.44 261.05 447.14 261.21C446.73 261.43 446.7 261.43 446.49 261.17ZM452.46 261.25C452.43 261.18 452.5 259.6 452.62 257.74C452.75 255.89 452.93 252.88 453.03 251.07C453.14 249.26 453.29 246.8 453.38 245.61C453.47 244.42 453.59 242.35 453.64 241.02C453.69 239.68 453.78 238.37 453.84 238.1C453.94 237.64 453.98 237.62 454.66 237.73C455.05 237.79 455.52 237.99 455.7 238.16C456 238.45 456.01 238.58 455.84 239.83C455.6 241.49 455.35 243.6 455.12 245.78C454.8 248.86 454.57 250.89 454.42 252.02C454.33 252.64 454.18 253.97 454.08 254.97C453.45 261.03 453.39 261.38 452.86 261.38C452.68 261.38 452.5 261.33 452.46 261.25ZM449.72 261.09C449.67 260.81 449.61 258.04 449.49 251.94C449.43 248.51 449.31 244.18 449.22 242.32C449.01 237.87 448.79 230.02 448.79 226.98L448.79 224.55L449.64 224.5C450.11 224.47 450.67 224.49 450.88 224.54L451.27 224.64L451.19 230.31C451.15 233.44 451.08 237.04 451.04 238.33C451 239.62 450.92 244.73 450.86 249.68C450.71 262.39 450.78 261.11 450.22 261.18C449.95 261.21 449.73 261.17 449.72 261.09ZM392.36 256.78C392.06 256.07 390.35 254.17 389.33 253.41C389.14 253.27 388.65 252.89 388.25 252.57C387.4 251.9 385.99 251.16 385.58 251.16C385.21 251.16 384.79 250.65 385.02 250.49C385.22 250.37 386.85 249.04 386.99 248.9C387.26 248.63 388.38 247.86 388.51 247.86C388.84 247.86 391.79 250.27 393.3 251.77C395.8 254.25 396.21 255.32 395.05 256.34C394.42 256.89 393.22 257.57 392.89 257.57C392.78 257.57 392.55 257.21 392.36 256.78ZM415.49 256.28C415.1 255.87 414.45 255.32 414.06 255.07C413.66 254.82 413.34 254.48 413.34 254.31C413.34 253.84 417.21 249.94 417.68 249.94C417.75 249.94 418.13 249.69 418.51 249.38C418.9 249.07 419.57 248.6 420.01 248.32C420.76 247.85 420.82 247.84 421.23 248.11C421.47 248.27 421.66 248.49 421.66 248.61C421.67 248.72 421.98 249.17 422.36 249.59C423.2 250.54 423.27 251.19 422.57 251.61C420.33 252.97 418.65 254.48 417.54 256.14C416.78 257.27 416.44 257.29 415.49 256.28ZM397.25 253.55C397.14 253.44 397.05 253.26 397.05 253.16C397.05 253.06 396.84 252.74 396.59 252.46C396.34 252.17 395.94 251.66 395.69 251.33C395.44 251 394.8 250.27 394.27 249.71C393.75 249.16 393.26 248.6 393.19 248.47C393.12 248.35 392.55 247.84 391.93 247.36C390.6 246.31 390.53 245.98 391.44 245.14C392.21 244.44 393.98 243.43 394.71 243.29C396.5 242.93 396.41 242.91 397.39 244.03C397.89 244.6 398.5 245.37 398.75 245.73C398.99 246.09 399.34 246.54 399.51 246.73C399.68 246.91 399.82 247.13 399.82 247.21C399.82 247.29 399.97 247.53 400.16 247.73C400.6 248.19 401.9 250.77 401.9 251.16C401.9 251.62 401.23 252.12 399.49 252.96C397.72 253.82 397.57 253.86 397.25 253.55ZM411.06 253.22C410.91 253.14 410.53 252.84 410.22 252.55C409.91 252.26 409.3 251.92 408.86 251.79C408.1 251.56 408.05 251.51 408.08 250.98C408.11 250.4 408.2 250.17 408.96 248.64C409.82 246.94 412.1 244.49 413.73 243.54L414.32 243.18L415.17 243.74C415.64 244.05 416.05 244.36 416.08 244.44C416.12 244.51 416.24 244.57 416.35 244.57C416.47 244.57 417.02 245 417.59 245.52L418.62 246.47L418.02 247.08C417.69 247.42 416.97 247.99 416.41 248.34C415.25 249.08 414.52 249.74 413.77 250.72C413.49 251.1 413.12 251.55 412.95 251.72C412.78 251.89 412.65 252.08 412.65 252.15C412.65 252.36 411.89 253.17 411.6 253.28C411.45 253.33 411.2 253.31 411.06 253.22ZM424.74 251.84C424.57 251.74 424.43 251.51 424.43 251.32C424.43 251.14 424.35 250.98 424.26 250.98C424.16 250.98 424.09 250.9 424.09 250.79C424.09 250.69 423.94 250.39 423.75 250.14C423.57 249.88 423.17 249.21 422.86 248.64C422.55 248.07 422.09 247.29 421.84 246.91C421.59 246.53 421.27 245.98 421.13 245.7C420.99 245.41 420.82 245.15 420.79 245.09C420.04 243.7 419.06 242.34 417.32 239.25C416.42 237.67 416.39 237.59 415.89 236.82C415.63 236.41 415.42 236 415.42 235.91C415.42 235.81 415.35 235.73 415.26 235.73C415.18 235.73 415.03 235.5 414.93 235.21C414.77 234.77 414.8 234.66 415.12 234.43C415.33 234.29 415.63 234.17 415.79 234.17C415.96 234.17 416.14 234.09 416.2 234C416.44 233.62 416.77 233.87 417.16 234.73C417.39 235.23 417.7 235.84 417.86 236.08C418.12 236.47 418.65 237.45 420.91 241.79C421.33 242.6 421.74 243.34 421.81 243.44C421.89 243.54 422.05 243.89 422.19 244.22C422.32 244.56 422.64 245.21 422.91 245.66C423.17 246.12 423.39 246.6 423.39 246.73C423.39 246.86 423.45 246.99 423.52 247.03C423.68 247.09 425.99 251.63 425.99 251.87C425.99 252.08 425.12 252.06 424.74 251.84ZM404.03 250.34C403.84 250.08 403.59 249.58 403.45 249.25C402.7 247.33 400.63 244.29 399.28 243.14C398.83 242.74 398.5 242.36 398.55 242.27C398.88 241.73 402.36 240.67 404.41 240.49C407.65 240.21 412.3 241.14 412.3 242.07C412.3 242.2 411.93 242.56 411.48 242.87C410.31 243.66 408.14 245.62 408.14 245.86C408.14 245.92 407.99 246.13 407.81 246.33C407.52 246.63 407.28 247.07 406.56 248.58C406.49 248.73 406.38 249.16 406.31 249.53C406.12 250.6 405.98 250.74 405.13 250.79C404.46 250.82 404.32 250.76 404.03 250.34Z" /></g><path class="shp0" d="M519 100C519.01 118.3 511.74 135.86 498.8 148.8C485.86 161.74 468.3 169.02 450 169.02C431.7 169.02 414.14 161.74 401.2 148.8C388.26 135.86 380.99 118.3 381 100C380.99 81.7 388.26 64.14 401.2 51.2C414.14 38.26 431.7 30.98 450 30.98C468.3 30.98 485.86 38.26 498.8 51.2C511.74 64.14 519.01 81.7 519 100L519 100Z" /><path class="shp1" d="M530.92 100C530.92 113.26 525.66 125.98 516.28 135.36C506.9 144.74 494.18 150.01 480.92 150.01C467.66 150.01 454.94 144.74 445.56 135.36C436.19 125.98 430.92 113.26 430.92 100C430.92 86.74 436.19 74.02 445.56 64.64C454.94 55.26 467.66 49.99 480.92 49.99C494.18 49.99 506.9 55.26 516.28 64.64C525.66 74.02 530.92 86.74 530.92 100L530.92 100Z" /><g ><g ><path class="shp3" d="M646.68 462.37C628.93 467.12 609.99 468.65 592.75 474.53C621.95 449.49 620.28 410.76 639.76 381.27C645.97 372.92 651.1 364.17 658.33 356.25C646.48 380.02 651.62 410.86 638.01 433.92C632.77 443.09 625.28 451.98 616.99 459.17C619.7 459.07 622.07 456.73 624.45 455.16C646.56 433.1 675.44 426.93 699.36 409C708.94 401.37 717.72 391.36 721.93 380.54C717.4 417.15 680.98 451.46 646.68 462.37L646.68 462.37Z" /><path class="shp3" d="M726.34 314.15C715.52 329.55 702.43 343.88 692.44 359.52C693.56 347.14 695.02 331.9 690.2 320.17C681.84 294.9 674.49 269.25 672.12 241.52L672.45 230.92C678.74 259.23 706.56 278.7 704.8 310.47C705.44 318.17 703.06 324.71 701.62 331.48L702.09 331.98L703.35 330.58C707.47 314.99 709.56 298.61 715.97 284.07C725.09 263.15 736.47 242.04 731.83 216.78C745.7 246.56 741.49 286.35 726.34 314.15L726.34 314.15Z" /><path class="shp3" d="M709.26 153.71C727.51 178.43 731.5 217.83 718.22 246.18C713.27 258.2 709.77 271 707.82 284.31C706.89 282.01 706.68 278.93 705.85 276.37C698.6 248.61 672.35 228.83 661.55 202.66C658.13 194.11 655.21 185.26 653.59 175.97C665.13 197.31 693.56 208.33 701.3 231.84C704.48 237.79 704.3 245.22 706.27 251.61C706.68 251.61 707.1 251.3 707.1 250.88C703.68 226.66 704.73 201.32 708.01 177.4C707.82 164.44 706.56 151.87 699.36 141.84C703.98 144.53 706.05 149.7 709.26 153.71L709.26 153.71Z" /><path class="shp3" d="M696.4 148.97C701.19 170.63 694.2 191.72 698.6 213.6L698.43 213.78C686.65 190.61 661.63 179.67 644.41 161.13C634.44 150.12 630.1 136.71 627.6 122.5C637.47 146.28 664.09 151.52 679.37 171.56C684.48 176.18 686.15 182.58 689.44 187.82L689.98 187.3C681.2 168.54 678.25 147.43 672.12 127.42C669.05 118.75 662.96 110.24 654.78 104.77C674.84 108.87 692.23 129.81 696.4 148.97L696.4 148.97Z" /><path class="shp3" d="M642.77 99.28C657.88 112.81 664.71 130.31 669.12 148.45L671.62 154.21C649.69 138.44 629.77 117.24 615.77 94.85L598.67 77.55C613.7 83.93 629.91 87.73 642.77 99.28L642.77 99.28Z" /><path class="shp3" d="M296.46 80.42C281.31 93.71 270.8 110.52 259.55 126.19C249.47 138.67 236.58 146.9 225.15 157.63C231.32 144.84 231.55 129.57 240.29 117.82C252.74 96.1 275.83 88.46 296.46 80.42L296.46 80.42Z" /><path class="shp3" d="M213.57 126.7C220.95 117.53 230.29 111.16 240.81 108.47C220.39 122.5 221.72 147.64 215.24 168.54C213.18 176.27 209.59 183.39 207.81 191.31L208.33 191.72C211.73 182.77 217.7 174.31 225.15 167C239.66 153.61 261.11 145.27 268.22 125.46C267.89 152.98 244.93 174.62 222.97 190.09C213.91 198.04 205.17 207.1 200.18 217.31C199.69 210.37 201.21 203.4 200.71 195.96C198.32 171.93 196.59 144.51 213.57 126.7L213.57 126.7Z" /><path class="shp3" d="M172.26 208.85C171.64 184.5 181.75 164.63 195.99 146.49C196.4 146.28 196.69 145.87 197.23 145.97C181.55 169.79 194.52 199.79 193.8 226.88L191.74 254.61C192.04 254.81 192.04 255.64 192.77 255.32C193.7 252.23 193.9 248.93 194.52 245.75C198.21 223.38 217.64 207.51 234.6 192.05C238.23 188.01 241.43 183.9 243.29 179.16C241.91 190.3 238.42 201.53 233.79 211.83C220.59 237.58 196.19 258.71 191.74 288.2C189.58 259.94 170.34 238.82 172.26 208.85L172.26 208.85Z" /><path class="shp3" d="M160.4 243.47C162.15 235.86 163.49 227.98 166.81 220.99C160.53 253.18 182.18 276.37 189.28 304.27C192.25 314.7 192.98 325.91 197.23 335.7C197.62 335.92 197.97 335.5 198.21 335.19C187.64 305.55 202.9 278.01 218.24 254.81C221.97 248.52 224.12 241.52 225.97 234.29C227.6 247.71 224.21 263.15 222.26 277.08C218.53 294.8 212.97 311.6 208.12 328.8C204.93 339.54 205.77 351.66 207.41 362.92L205.87 361.69C194.63 340.96 172.36 324.78 165.75 302.13C160.31 284.07 156.69 263.15 160.4 243.47L160.4 243.47Z" /><path class="shp3" d="M159.38 306.34C161.86 340.45 198.54 358.48 215.55 386.73C219.57 392.5 223.07 398.9 228.44 403.74C227.6 400.1 224.21 397.04 222.97 393.32C217.02 381.47 214.85 367.36 216.28 353.04C217.92 335.61 225.23 319.44 222.44 301.12C237.39 333.34 232.85 373.55 241.2 408.46C243.39 416.1 247.81 422.92 250.71 430.21C220.01 409.3 178.14 389.41 164.52 351.09C158.78 337.87 158.14 321.51 159.38 306.34L159.38 306.34Z" /><path class="shp3" d="M177.72 384.68C194.84 423.41 237.71 426.62 266.46 450.2C271.75 454.88 277.29 458.87 283.26 461.65L283.57 461.34C276.97 455.37 269.34 448.58 264.72 440.84C247.89 417.45 253.81 384.68 241.2 359.52C252.66 373.22 263.07 387.47 269.99 403.01C280.27 428.38 284.2 457.04 308 476.22C282.25 467.73 252.07 470.1 229.34 454.24C204.52 438.99 182.37 413.11 177.72 384.68L177.72 384.68Z" /><path class="shp3" d="M221.72 456.93C249.16 488.14 294.01 477.73 330.57 485.9C335.74 486.6 340.47 488.67 345.94 487.83C341.58 485.07 335.53 485.37 330.78 482.86C302.12 472.8 297.91 441.77 282.35 420.85C302.23 434.05 318.94 451.85 337.28 469.1C350.46 480.64 366.32 485.97 383.04 489.37C379.02 490.84 373.75 490.44 369.44 491.57C339.41 498.95 306.05 511.02 274.2 500.21C253.5 493.7 232.13 477.32 221.72 456.93L221.72 456.93Z" /><path class="shp3" d="M594.25 529.69C563.32 541.23 531.04 529.16 506.88 510.84C497.1 504.63 488.48 495.67 475.83 496.47C471.24 496.38 466.82 496.6 462.92 497.73C486.39 508.65 508.19 523.71 528.12 542.96C524.76 546.8 520.41 550.39 516.31 553.69C497.1 533 475.83 513.08 452.01 501.44C447.35 502.05 442.91 504.85 438.71 507.11C419.32 519.37 400.14 535.14 385.73 554.45L373.34 544.22C393.11 524.22 414.98 508.65 438.9 497.53C415.39 490.09 400.05 509.78 382.21 519.79C361.41 534.31 331.51 541.13 306.38 531.11C292.87 525.99 279.77 518.44 269.99 506.17C289.76 519.79 319.22 521.22 341.71 512.37C371.89 499.28 403.25 482.69 439.63 490.63C445.3 490.73 450.82 496.38 456.19 491.57C483.23 484.54 513.84 489.37 537.12 501.73L561.11 511.35C583.42 519.6 612.25 517.31 631.37 503.73C621.54 515.96 608.11 524.72 594.25 529.69L594.25 529.69Z" /><path class="shp3" d="M627.39 497.73C592.67 510.84 557.73 494.75 524.46 489.37L518.05 488.56L518.05 488.35C533.96 484.74 549.4 480.01 562.07 468.57C580.72 450.65 597.32 432.19 618.03 418.07C602.67 437.76 601.04 465.79 575.67 478.45C569.39 482.56 561.46 483.29 554.98 486.4C564.22 486.6 572.68 483.29 581.84 482.36C615.86 477.02 654.78 482.5 678.65 453.52C669.79 473.71 647.6 490.63 627.39 497.73L627.39 497.73Z" /><path class="shp3" d="M690.49 400.03C676.77 409 662.87 417.33 649.69 427.53L649.69 426.28C669.88 392.73 660.01 346.65 672.45 309.73L677.09 297.36C674.49 320.36 684.48 339.84 683.78 362.92C683.08 376.86 678.53 389.22 671.21 400.35L672.45 400.35C682.34 387.36 690.06 373.55 701.62 361.18C719.56 343.88 737.8 326.14 740.15 302.13C746.25 342.21 723.76 377.34 690.49 400.03L690.49 400.03Z" /></g></g></g></svg>