<svg version="1.2" baseProfile="tiny-ps" xmlns="http://www.w3.org/2000/svg" viewBox="0 0 900 600" width="900" height="600"><title></title><style>tspan { white-space:pre }.shp0 { fill: #ffffff } .shp1 { fill: #ce1126 } </style><path class="shp0" d="M0 0L900 0L900 600L0 600L0 0Z" /><path class="shp1" d="M233.33 0L200 10.71L233.33 21.43L200 32.14L233.33 42.86L200 53.57L233.33 64.29L200 75L233.33 85.71L200 96.43L233.33 107.14L200 117.86L233.33 128.57L200 139.29L233.33 150L200 160.71L233.33 171.43L200 182.14L233.33 192.86L200 203.57L233.33 214.29L200 225L233.33 235.71L200 246.43L233.33 257.14L200 267.86L233.33 278.57L200 289.29L233.33 300L200 310.71L233.33 321.43L200 332.14L233.33 342.86L200 353.57L233.33 364.29L200 375L233.33 385.71L200 396.43L233.33 407.14L200 417.86L233.33 428.57L200 439.29L233.33 450L200 460.71L233.33 471.43L200 482.14L233.33 492.86L200 503.57L233.33 514.29L200 525L233.33 535.71L200 546.43L233.33 557.14L200 567.86L233.33 578.57L200 589.29L233.33 600L900 600L900 0L233.33 0Z" /></svg>