<svg version="1.2" xmlns="http://www.w3.org/2000/svg" viewBox="0 0 900 600" width="900" height="600">
	<title></title>
	<style>
		.s0 { fill: #00247d } 
		.s1 { fill: none;stroke: #ffffff;stroke-width: 52 } 
		.s2 { fill: none;stroke: #ffffff;stroke-width: 86.7 } 
		.s3 { fill: none;stroke: #cf142b;stroke-width: 52 } 
		.s4 { fill: #ce1126 } 
		.s5 { fill: #ffffff } 
		.s6 { fill: #2f8f22 } 
		.s7 { fill: #d40000;stroke: #000000;stroke-linejoin: round;stroke-width: .7 } 
		.s8 { fill: #64b4d1;stroke: #000000;stroke-width: .6 } 
		.s9 { fill: #ffffff;stroke: #00247d;stroke-width: .7 } 
		.s10 { fill: none;stroke: #000000;stroke-width: .7 } 
		.s11 { fill: #000000 } 
		.s12 { fill: #784421;stroke: #000000;stroke-width: .6 } 
		.s13 { fill: #64b4d1;stroke: #00247d;stroke-width: .6 } 
		.s14 { fill: #f5ce00;stroke: #000000;stroke-width: .7 } 
		.s15 { fill: #e4cb5e;stroke: #000000;stroke-width: .6 } 
		.s16 { fill: none;stroke: #000000;stroke-width: .6 } 
		.s17 { fill: #784421;stroke: #000000;stroke-width: .3 } 
		.s18 { fill: none;stroke: #00247d;stroke-width: .7 } 
		.s19 { fill: #784421 } 
		.s20 { fill: none;stroke: #000000;stroke-width: 1.8 } 
	</style>
	<g id="Layer">
		<path id="Layer" class="s0" d="m0 0h450v300h-450z"/>
		<g id="Layer">
			<path id="Layer" class="s1" d="m0 0l450 300m0-300l-450 300"/>
			<path id="Layer" class="s2" d="m225 0v300m-225-150h450"/>
			<path id="Layer" class="s3" d="m225 0v300m-225-150h450"/>
		</g>
		<path id="Layer" class="s4" d="m0 300h900v300h-900zm450-300h450v600h-450z"/>
	</g>
	<g id="layer">
		<path id="Layer" class="s5" d="m776.5 172.2v188.8c0 50.4-100.8 66.8-100.8 66.8 0 0-100.9-16.4-100.9-66.8v-188.8z"/>
		<path id="Layer" class="s6" d="m774.5 361c0 50.4-100.8 66.8-100.8 66.8 0 0-100.9-16.4-100.9-66.8 0 0 0-4.1 2.1-6.4 0 0-1.1 8.4 5.3 14.8 0 0-5-9-0.1-17.8 0 0-1.8 11.3 5.2 17.8 0 0-3.8-9.2 0.5-19.5 0 0-2.1 16.8 5.5 20.2 0 0 2.2-9.7-0.9-15.9 0 0 5.3 2.1 5 16.2 0 0 1.7-2.1 2.1-12.2 0 0 0.2 11.6 4.2 14.2 0 0 1.3-1.1-0.4-6.4-1.7-5.3 0.7-7.1 1.1-7 0 0-0.9 5.8 4 10.2 0 0-2.1-9.1 0.8-10.4 0 0-0.6 7.8 5.5 9.5 0 0 0.5-2.2-0.9-4.8 0 0-1.1-3-0.2-5.2 0 0 1.9 7 4.6 8.2 0 0-1.6-4.2-0.1-8.2 0 0 0.3 5.8 5.5 8.2 0 0-3.4-4.5-2.1-9.5l33.6 1.7 17.4 0.8 52.2-3.7 9-7.7c0 0 3.5 4.9-2.1 12.7 0 0 5.6-1 7.3-9.7 0 0 2.3 4.8-0.8 10.1 0 0 6.2-6.1 7.1-13.1 0 0 2.4 6.8-3.5 14 0 0 5.2-1.7 7.5-9.4 0 0 1.7 4.6-3.3 11.2 0 0 9.4-5 9.2-15.4 0 0 3.9 5.7-0.6 13.6 0 0 4.8-4.3 5.3-10.8 0 0 2.6 2.9-0.2 10.9 0 0 5.8-5.5 6.7-11.5 0 0 1.3 5.6-3.7 12.6 0 0 3.4-0.9 6.7-7.7 0 0 0.9 2.7-2.1 7.6 0 0 3.2-0.6 5.4-6.7 0 0 0.3 3.7-0.6 7 0 0 2.5-1.6 3.1-8.6 0 0 1.4 2.3 1.4 5.1 0 2.9 0 1 0 1z"/>
		<g id="Layer">
			<path id="Layer" class="s7" d="m724.8 255.1v9.1l-4.5 0.2-5.9-1-11.2-6.7-9.8-4.8h-8.9l-6.1 3.2-8.6-0.6-6.6-1.6-10.3-0.6-12.8 6.7-12.7 5.6-1.6-0.7c0 0 0.7-4.6 0.7-4.5-0.1 0.1-3.3-3.8-3.3-3.8 0 0 1.2-2.3 1.7-3 0.5-0.7 0 0.9 6.1-1.3 6.2-2.2 8.9-0.2 8.9-0.2-0.9-2.5 0.3-4.8 0.3-4.8 1.1 0.4 4 0.5 4 0.5 5.4-0.4 3.3-3.8 3.3-3.8-1.8-3 1-5.1 1-5.1 3.8-2.9 0.1-4.2 0.1-4.2-4.8-1.6-4.1-5.8-4.1-5.8 0.8-5.4 6.4-4.7 6.4-4.7-3.9 1.9-1.7 3.5-1.7 3.5 3.5 1.7 4.7-7.5 4.7-7.5-3.7 3.2-7.4 1.1-7.4 1.1-5.7-3.6-0.8-8.4-0.8-8.4 1.4 4.6 4.4 2.2 4.4 2.2 2.2-1.8-0.5-4.8-0.5-4.8-2.7-3.5-1.5-4.9-1.5-4.9 3.7 4.2 7.9-1.4 7.9-1.4-2.3-2-3.4-4.4-3.6-7.3-0.3-4.1 7.2-2.3 7.2-2.3-0.7-1.3-0.9-2-1.4-4.9-0.5-2.9 2.8-1.3 2.8-1.3 3 1.3 4.6 1.4 4.6 1.4-2.2-2.7-0.5-5.8-0.5-5.8 3.5 0.9 5 2.7 5 2.7 0.8-3.8 4.1-5 4.1-5 1.8 1.4 4.6 5 4.6 5 1.5-1.4 4.3-2.8 4.3-2.8 4.1 3 2.5 5.9 2.5 5.9 4.2-2.2 5.2-0.5 5.2-0.5 1.9 2.4-2.6 5.2-2.6 5.2 5.2-1 5.8 0.8 5.8 0.8 1.8 4-3 8.9-3 8.9 7.4 5.6 8.3 1.4 8.3 1.4 1.6 6.2-4.1 5.4-4.1 5.4-0.2 2.5 0.8 2.8 2.4 4.9 1.6 2 2.9-0.5 2.9-0.5 0.8-1.5-0.7-3.6-0.7-3.6 6.2 2.5 4.3 7.5 4.3 7.5-1.9 4.9-6.9 3.2-6.9 3.2 0.1 2.8 0.6 2.3 0.1 4.9-0.5 2.6 2 1.7 2.2 0.2 0.2-1.5-0.9-3.2-0.9-3.2 1 0.6 3.2 2.4 4.2 4.1 1 1.6 2 3.6-3.6 6.8-5.6 3.2-1.4 5.5-1.4 5.5 0.3-1.1 0-2.9 0-2.9 1.1 0.5 3.1 1 3.8 4.9 0.7 3.8-3.1 5.1-3.1 5.1 1.7 1.2 3.2 2.8 3.2 2.8 1.1 1.3 2 0.5 2 0.5 2-1.7 0.5-5.4 0.5-5.4 4.5 2.9 2.6 6.5 2.6 6.5 1.4-0.8 3.3-1.4 7.8 0 4.5 1.3 8 0.7 8 0.7z"/>
			<path id="Layer" class="s7" d="m617.5 254.8l-3.7-1.1-3.3 1.5-3.4-0.3c-4.7-2.9-1.4-6.7-1.4-6.7 2.1-2.2 5.7-0.7 5.7-0.7 1-2.9 3.6-2.9 3.6-2.9 3.1-0.1 4.4 2.6 4.4 2.6 3.1-1.4 4.9 0.5 4.9 0.5 3.4 3.5 0.2 7.4 0.2 7.4 5.9 1.7 3.2 6.8 3.2 6.8-2 3-6.9 0.5-6.9 0.5-4.2-3.9-3.3-7.6-3.3-7.6z"/>
			<path id="Layer" class="s8" d="m729.9 253.5c5.9-0.5 8 4.4 8 4.4 3 7.3-3.5 11.1-3.5 11.1 0.5 1.7 0.6 3.8 0.6 3.8 9.2 1.1 7.6 11.5 7.6 11.5l-3.1-2.6c-5.3-2-10.8 2.5-14.8 10.1-3.9 7.6-2 11.2-1.4 20.3 0.7 9 15.4 14.4 15.4 14.4 0 0-7 17.8-11.5 29.3-4.5 11.5-13.9 6.7-16.6 4.3-2.7-2.4-3.4-1.1-4.8 0-1.3 1.1 6.2 7-7.5 12.5-13.7 5.6-16.1 9.8-18.4 11.2-2.3 1.4-11.8 0.5-12.7-0.7-1-1.2-0.4-1.2-4-3.4-3.5-2.2-9.5-4.1-16.1-7.3-6.5-3.1-6.4-7.2-6.3-8.1 0-0.8 2.3-7.7-5.4-2.2-7.7 5.4-14.2-2.6-14.2-2.6-1.5-2-7.9-19.1-7.9-19.1-1.7-6.4-5.1-13.8-5.1-13.8 0.1-0.1-0.4 0.7 5.3-2.5 5.7-3.3 8.2-8.7 10.2-14 1.9-5.4 0-14.5-0.7-16.4-0.7-1.8-4.9-10.3-10.2-12.1-5.2-1.7-8.7 2.7-8.7 2.7 0 0-1.6-10.4 7.6-11.5 0 0 0.1-2.1 0.6-3.8 0 0-6.6-3.8-3.5-11.1 0 0 2.1-5 8-4.4l-1.5 2.7c0 0-1.4 14.8 20.2 4.9 21.7-9.9 21-11.8 33.3-5.6l9-0.1c0 0 13-6.1 17.2-3.5 4.2 2.6 19.2 11 19.2 11 0 0 14.5 5.5 17.3-4.6z"/>
		</g>
		<path id="Layer" class="s9" d="m664.8 317.6c0 0-0.8-4.5-1.6-7.5 0 0-1.6-4.6 1.1-7.8l3.4-3.9c0 0 2.2-2.9 4.8-3.2 0 0 2.6-0.1 2.8-0.7 0.3-0.5 3.2-5.2 10 0 0 0 2.1-3.4 5.5-4 0 0 3.6-1.1 5.3 1.6 0 0 4-3.1 7.5 1.9 0 0 4.8-2.8 8.3 2.6 0 0 4.8-2.3 7.7 2.6 2.9 5 2.3 7 2.3 7l2.2 7.8 7.7 9.5-17.9 6.7h-8l-16 4.3-28.4 2.2-7.9-9.3z"/>
		<g id="Layer">
			<path id="Layer" class="s7" d="m648.3 373.3c-2.6 6.5-8.5 7.9-8.5 7.9-2.8 1.2-2.2 4.7-2.2 4.7-0.4 7.7-7.8 5.9-7.8 5.9-5.8-2.5-0.5-9.2-0.5-9.2-1.7 2.7-4.2 3.2-4.2 3.2 2 2.6 1.1 4.7 1.1 4.7-1.5 5.3-6.6 4-6.6 4-7.3-2.1-3.5-7.5-3.5-7.5-5.9 5-8.7-2-8.7-2-4.2-8.9 6-9.7 6-9.7 0-6.7 8.5-4.6 8.5-4.6 4.9 0.9 6.1-0.6 6.1-0.6 2.5-1.6 4.2-2.8 6.3-3.9 2.2-1.1 6.4-1.3 6.4-1.3-0.8 3.9 7.6 8.4 7.6 8.4z"/>
			<path id="Layer" class="s7" d="m623.4 311.9l-4.9 8.9-9.9 5.6c0 0 0.8 1.2 1.5 5.1 0.8 4-2.4 7.9-2.4 7.9 0.9-4.2-1.1-6.7-2.7-8.2-1.5-1.5-2-4.5-2-4.5-2.1 5.8 1.1 3.2 1.6 9.5 0.5 6.3-4.7 8.2-4.7 8.2 2.2-4.3-0.5-8.4-0.5-8.4-3.7-5.8-2.1-8.5-2.1-8.5-1.6 3-1.1 7.2-1.1 7.2 0.2 6.2-5.1 8.3-5.1 8.3 3-5.2 1.1-9.4 1.1-9.4-2.5-6 0.4-8.3 0.4-8.3-6 0.9-7-4.3-7-4.3 3.2 3.7 6.9-0.5 6.9-0.5 2.9-3.5 4.3-3.2 4.3-3.2 0.7-2-0.4-6-0.4-6-0.8-5.7 1.3-7.5 1.3-7.5 3-3.1 7.3-6 7.3-6 4.6-2.7 8.9 0 8.9 0 3.1-3 9.7 0 9.7 0z"/>
			<g id="Layer">
				<path id="Layer" class="s10" d="m608.6 322.8c0 0-4-0.3-4.7-3.4"/>
				<path id="Layer" class="s10" d="m596.8 317.3c0 0 1.4 0 2.7 1.3 0 0 1 1.4 2.4 1.2"/>
			</g>
		</g>
		<path id="Layer" class="s11" d="m611.5 310.9c-0.9-0.5-1.1-0.1-1.1-0.1-0.8 0.6 1.3 2.1 1.3 2.1 2 2.3-2.8 4.1-2.8 4.1 4-2.6 1.5-3.9 1.5-3.9-2.1-0.8-1-2.7-1-2.7 0.7-1.4 2-0.5 2-0.5 1.1 1 3.2 1 3.2 1-0.6 0.4-2.3 0.6-3.1 0z"/>
		<path id="Layer" class="s12" d="m678.4 322.4l-14.3-56.8 0.6-0.1 16.2 56.1z"/>
		<path id="Layer" class="s11" d="m624.3 384.5c0 0-3.8-2.1-7 0.4 0 0 0.3-1.4 2.8-2 0 0 1.3-3.7 4.9-3.4 0 0-1.5 1.8-3.5 3.3 0 0 2.2 0.2 2.8 1.7z"/>
		<path id="Layer" class="s13" d="m610.8 393.4c0 0-6.1-3.8-2.8-10.2 0 0 1-1.9 2.8-1.5 0 0 3.8 1.2 0.9 6.4 0 0-1.5 3.4-0.9 5.3z"/>
		<path id="Layer" class="s13" d="m623.2 399.5c0 0-8.7-4-6-10.7 0 0 0.8-2.3 2.7-2.1 0 0 3.3 0.2 2.7 4.6 0 0-1 4.4 0.6 8.2z"/>
		<path id="Layer" class="s11" d="m621.3 374.4c0 0-2.6 1.9-3.6 3.2 0 0-1.1-1.3-2.5-2.1 0 0 1.6-0.2 2.5 0.5 0 0 1.3-1.3 3.6-1.6z"/>
		<path id="Layer" class="s13" d="m629.8 391.8c-2.2-4.5 1.2-5.4 1.2-5.4 2.9-0.4 3.6 2.7 3.6 2.7 1.2 7-5.6 8.7-5.6 8.7 2.2-2.9 0.8-6 0.8-6z"/>
		<path id="Layer" class="s14" d="m659.7 249.4c0 0 4.4 1.3 6.8 2.3 0 0 6.3 2.8 14.3 0 0 0 5.5-2.2 6.2-2.3l-4.2 6.3-0.2 3.3 2.6 3.8c0 0-1.5 0.6-6.2-2.2 0 0-5.2-4-11.3 0 0 0-3.4 2.3-6.2 2.2l4-4.5-1.6-4z"/>
		<path id="Layer" class="s5" d="m631.6 391.9c0.5 1.1 0.2 2.2 0.2 2.2 0 0.2-0.3 0.3-0.3 0.3-0.2 0-0.2-0.3-0.2-0.3 0.3-1.2-0.3-2.2-0.3-2.2-0.6-1.6 0.1-2.7 0.1-2.7 0.2-0.4 0.5-0.3 0.5-0.3 0.3 0.2 0.1 0.5 0.1 0.5-0.9 0.9-0.1 2.6-0.1 2.6z"/>
		<g id="Layer">
			<path id="Layer" class="s7" d="m725.7 262.4c0 0-4.9 2.5-6.9-0.5 0 0-2.7-5.1 3.2-6.8 0 0-3.2-3.9 0.2-7.4 0 0 1.8-1.9 4.9-0.5 0 0 1.3-2.7 4.4-2.6 0 0 2.6 0 3.5 2.9 0 0 3.7-1.5 5.8 0.7 0 0 3.3 3.8-1.4 6.7l-3.4 0.3-3.3-1.5-3.7 1.1c0 0 0.9 3.7-3.3 7.6z"/>
			<path id="Layer" class="s14" d="m686.8 258.5c-0.3 2-3.5 1.3-2.4-1.5 1.1-2.8 3.9-1.5 3.9-1.5 3.2 1.6 1.2 5.2 1.2 5.2-2.5 3.7-6.4 1.4-6.4 1.4-5.2-3.7-1.1-9.3-1.1-9.3 5-6.7 13.4-2.4 13.4-2.4l16.8 9.4c12.7 7.3 17.3 0.3 17.3 0.3 1-1.5 0.6-3.3 0.5-3.5 0-0.2-0.1 0-0.1 0-0.6 2.3-2.4 1.2-2.4 1.2-1.4-1.3-0.2-3-0.2-3 0.7-0.9 1.5-1.2 2.2-1.3 1.6-0.2 2.6 1 2.6 1 2.5 2.6 0 6.7 0 6.7-3.2 5.4-10.9 4.8-10.9 4.8-5.6-0.2-9.2-2.1-9.2-2.1-1-0.3-9.4-4.8-9.4-4.8-3.2-1.9-7.9-4.1-7.9-4.1-5.9-3.1-8.9-0.6-8.9-0.6-1.9 1.5-1.7 3.2-1.7 3.8 0.1 0.2 0.1 0.5 0.1 0.5 0.6 1.3 1.7 0.9 1.7 0.9 1-0.1 1.1-1.1 1.1-1.1-0.1-0.5-0.2 0-0.2 0z"/>
			<g id="Layer">
				<path id="Layer" class="s15" d="m620.5 287.4c0 0 0-8.8 0-10.5 0-0.9 0-1.5 1.3-2.5 1.2-1.1 2.5-2.7 4.5 1.9 0 0 3.7-4 5-4.6 0 0 2.1-1.8 3.6 0.9 0 0 2-3 3.6-3.8 0 0 3.8-2.4 3.9 4.9l2.9-2.7c0 0 2.3-1.9 4.8 0.7 0 0 4.2 4.1 4.8 5.3 0 0 1 1.2 1 3.2 0 0 0 2.3 1.2 3.6 0 0 1.3 1.1 2.6 1.4 0 0 3.1 0.1 4.1 2.9 0 0 0.5-0.5 2 13.2v25l-16.8 20.1-27-7.8-10.7-4.4-2.5-7.9 10.5-6.7 5.6-15.3-1.8-10.8z"/>
				<path id="Layer" class="s12" d="m694.9 300.6l1.3-1.9 3-2.3c0 0 4.7 12.2 4.9 14.9v3.8c0 0 7 1.8 8.2 12.5l-5.7 10.7-9.1-5.1-2.6-1.9z"/>
			</g>
		</g>
		<path id="Layer" class="s5" d="m608.8 389.4c0.2 0.4 0 0.5 0 0.5-0.3 0.1-0.5-0.3-0.5-0.3-1.4-3.2 0.4-5.2 0.4-5.2 0.4-0.5 0.5-0.3 0.5-0.3 0.3 0.2-0.1 0.6-0.1 0.6-1.6 2.1-0.3 4.7-0.3 4.7z"/>
		<g id="Layer">
			<path id="Layer" class="s10" d="m636.4 382.6c0 0 0.3-0.9-0.4-1.9 0 0-0.4-0.7-0.2-1.7"/>
			<path id="Layer" class="s16" d="m646.6 285.3c-0.1-1.8-2.6-5.1-3.4-7.1-0.7-1.9-0.8-4.5-0.8-4.5"/>
			<path id="Layer" class="s7" d="m705.9 364.9c0 0 4.3 0.2 6.4 1.3 2.2 1.1 3.9 2.3 6.4 3.9 0 0 1.1 1.5 6.1 0.6 0 0 8.5-2.1 8.5 4.6 0 0 10.1 0.8 6 9.7 0 0-2.9 7-8.7 2 0 0 3.7 5.4-3.5 7.5 0 0-5.2 1.3-6.7-4 0 0-0.8-2.1 1.2-4.7 0 0-2.5-0.5-4.3-3.2 0 0 5.4 6.7-0.5 9.2 0 0-7.3 1.8-7.7-5.9 0 0 0.6-3.5-2.3-4.7 0 0-5.8-1.4-8.5-7.9 0 0 8.4-4.5 7.6-8.4z"/>
			<g id="Layer">
				<g id="Layer">
					<path id="Layer" class="s16" d="m639.1 285.3l6.9 56"/>
					<path id="Layer" class="s16" d="m640.7 285.2l7.8 52.2"/>
					<path id="Layer" class="s16" d="m642.1 285l9 51.7"/>
				</g>
				<path id="Layer" class="s12" d="m656.3 332.3l-14.4-56.8 0.6-0.2 16.3 56.1z"/>
				<g id="Layer">
					<path id="Layer" class="s16" d="m647.1 282.9l16.4 41.5"/>
					<path id="Layer" class="s16" d="m646 283.6l15.8 43.3"/>
				</g>
			</g>
		</g>
		<path id="Layer" class="s5" d="m619.9 395.8c-0.3 0-0.4-0.2-0.4-0.2-2.3-1.9-1.8-5.3-1.8-5.3 0.1-0.8 0.4-0.7 0.4-0.7 0.4 0.1 0.3 0.8 0.3 0.8-0.3 3.3 1.6 5.1 1.6 5.1 0.2 0.2-0.1 0.3-0.1 0.3z"/>
		<g id="Layer">
			<path id="Layer" class="s16" d="m647.8 282.3l17 37.9"/>
			<path id="Layer" class="s16" d="m643.2 284.7l10.4 50.9"/>
			<path id="Layer" class="s14" d="m728.1 322.4c-7.4-4.2-9.1-13.5-9.1-13.5-1.7-9.3 1.9-16.6 1.9-16.6 4.8-10.2 13-12.1 13-12.1 0 0-8.1 5.6-10.3 13.1 0 0-1.8 6.4-0.8 12.6 1 6.3 0.7 4.7 2.2 9.5z"/>
			<path id="Layer" class="s17" d="m697.5 315.8c0 0-0.5 3-0.5 4.4 0 0-0.6 7.8 0.5 13l-10.7 9.9-11.7 9.1-22.5-4.7-11.7-12.5c0 0 15.1-1.9 22.4-12.6l1.7-13.8 31.2-9.9c-0.5 4.4 1.3 17.1 1.3 17.1z"/>
			<g id="Layer">
				<path id="Layer" class="s16" d="m663.8 318.9c0 0 20.5-6.4 32.7-11.5"/>
				<path id="Layer" class="s16" d="m704.1 311.3l-6.6 4.5c-18 10.2-43.6 14.8-43.6 14.8"/>
				<path id="Layer" class="s16" d="m704.1 315.1l-7.1 5.1c0 0-28.6 13.1-50.4 13.5"/>
				<path id="Layer" class="s16" d="m697 329.5c0 0-22 11.4-34.6 11.5"/>
			</g>
			<path id="Layer" class="s7" d="m723.2 297.8c0 0 6.6-3 9.7 0 0 0 4.3-2.7 8.9 0 0 0 4.3 2.9 7.3 6 0 0 2.1 1.8 1.3 7.5 0 0-1.1 4-0.4 6 0 0 1.4-0.3 4.3 3.2 0 0 3.7 4.2 6.9 0.5 0 0-1 5.2-7 4.3 0 0 2.9 2.3 0.4 8.3 0 0-1.9 4.2 1.1 9.4 0 0-5.3-2.1-5.1-8.3 0 0 0.5-4.2-1.1-7.2 0 0 1.6 2.7-2.1 8.5 0 0-2.7 4.1-0.5 8.4 0 0-5.2-1.9-4.7-8.2 0.5-6.3 3.7-3.7 1.6-9.5 0 0-0.5 3-2 4.5-1.6 1.5-3.6 4-2.7 8.2 0 0-3.1-3.9-2.4-7.9 0.7-3.9 1.5-5.1 1.5-5.1l-9.9-5.6-4.8-8.9z"/>
		</g>
		<path id="Layer" class="s9" d="m611.8 333.3c0 0 1-4.4 5.1-2.7 0 0 1.4-7.1 9-7.3 7.6-0.3 8 7.4 8 7.9 0 0 2.3-3.3 6-2.9 0 0 6.4-0.4 4 9.9l1.2 1.3c0 0 4.9-11.5 15-8.5 0 0 9.8 3 3.4 12.5 0 0 4.9 6.3 9 5.7 4.1-0.6 7.8-1.8 11.8-9 4.1-7.3 13.6-8.4 16-7.9 2.5 0.4 4.4 1.9 4.8 3.6 0 0 5-16.7 23.1-14.1l7.2 3.6 2.8 1.3-4.1 11.6-10 22.5-7.6 2.4-7.9-4.6-2.8 1.5-0.2 6.8-10.4 7.5-7.3 3-8 5.4-1.8 4.9c0 0-4.5-1.8-9.4 0l-1.7-4-4.7-4.5-18.1-8.5-3.3-10.6-3.3-1.5-3.7 4.3-5.4 0.6-8.1-5.4z"/>
		<g id="Layer">
			<g id="Layer">
				<g id="Layer">
					<path id="Layer" class="s10" d="m690.8 251.1c0 0-6.9-0.3-6.7 6.8"/>
					<path id="Layer" class="s14" d="m736.3 327.3c-12-3.7-15.3-16.7-15.3-16.7-2.5-9.7 1.5-18.2 1.5-18.2 5.5-12.9 14.8-12.9 14.8-12.9 4.6-0.1 5.2 3.9 5.2 3.9 0.4 2.8-1.5 3.8-1.5 3.8-3.2 1.8-5.3-0.6-5.3-0.6-1.3-1.7-0.3-3.3-0.3-3.3 0.9-1.1 2.4-0.6 2.4-0.6 1.3 0.4 1.1 1.9 1.1 1.9 0 0.1 0.1 0.1 0.1 0.1 0 0 0-0.1 0-0.1 0 0 0.3-1.9-1.6-2.1 0 0-3.6-0.8-7.9 4.5 0 0-5.5 7.2-5.5 16.4 0 0-0.7 17.4 17.3 21.9 0 0-1.9 2.8-5.4 13 0 0-3.9 13-7.6 20.1 0 0-5 10.1-16.1 5.9 0 0-6.6-2.8-6.6-7.6 0 0-0.4-4.4 3.5-4.7 0 0 3.9-0.3 3.9 3 0 0 0.1 3.6-4.2 2.8 0 0-1.4-0.4-1.2-1.8 0 0 0.3-1.3 2.1-0.7 0 0 0 0 0-0.1 0 0 0 0 0 0 0 0-0.7-0.3-1.4-0.1 0 0-0.7 0.2-0.8 1.3 0 0 0 0.8 0.9 1.2 0 0 1 0.4 1.9 0.3 0 0 1.1 2.3 3.6 3.1 3.6 1 6.5 0 8.3-1.4 1.9-1.6 3.1-4.3 3.5-4.9 0.4-0.7 3.6-8 6.1-15.8 0 0 2.1-6.7 3.8-10.3z"/>
					<path id="Layer" class="s14" d="m702.3 360.2c0 0 2.3-0.4 2.3 1.7 0 0-0.2 2.9-3.7 2.2 0 0-3.6-0.7-2.3-4.7 0 0 0.8-2.7 4.2-2.3 0 0 3.2 0.1 4.6 4.5 0 0 1.1 3.7-0.8 6.9-2 3.6-7.3 5.9-9.8 7 0 0-10.1 4-13.1 6.2 0 0-4.7 3.5-2.6 6.7 0 0 0.8 1.2 1.9 1.2 0 0 1.4 0 1.6-1.3q0 0 0-0.1 0 0 0 0c0 0-0.1 0.9-0.8 1.2 0 0-1 0.5-2.1-0.4 0 0-1.1-1-0.1-2.7 0 0 1.2-2 4-0.8 0 0 2.4 1.2 1.4 3.9 0 0-0.9 2.4-3.9 2.4 0 0-2.2-0.1-3.6-1.6-2.3-2.4-2.4-6.9-0.4-9.3 0 0 1.8-2.5 5.6-4 2.1-0.9 6.2-2.7 10.5-4.3 3-1.2 5.7-2.6 7.5-4.7 0 0 1.6-1.8 2-4.8 0 0 0.5-2.3-0.9-2.8 0 0-0.7-0.3-1.5-0.2q0 0 0 0c0 0-0.1 0.1 0 0.1z"/>
					<path id="Layer" class="s10" d="m702.5 360.1c0 0 2.5-0.4 4 2.5 0 0 1 1.9 1.1 3"/>
					<path id="Layer" class="s10" d="m711.3 363.9c-0.6-0.5-2.9-1.5-4.1-4.9-1.3-3.5 1.2-3.9 1.2-3.9"/>
					<path id="Layer" class="s14" d="m659.7 258.5c0 0 0.1 1 1.1 1.1 0 0 1.1 0.4 1.7-0.9 0 0 0.1-0.3 0.1-0.5 0-0.6 0.3-2.3-1.6-3.8 0 0-3.1-2.5-9 0.6 0 0-4.7 2.2-7.9 4.1 0 0-8.3 4.5-9.3 4.8 0 0-3.7 1.9-9.3 2.1 0 0-7.7 0.6-10.9-4.8 0 0-2.5-4.1 0-6.7 0 0 1-1.2 2.6-1 0.7 0.1 1.5 0.4 2.2 1.3 0 0 1.2 1.7-0.2 3 0 0-1.8 1.1-2.4-1.2 0 0-0.1-0.2-0.1 0-0.1 0.2-0.5 2 0.5 3.5 0 0 4.6 7 17.3-0.3l16.8-9.4c0 0 8.4-4.3 13.5 2.4 0 0 4 5.6-1.2 9.3 0 0-3.9 2.3-6.3-1.4 0 0-2.1-3.6 1.1-5.2 0 0 2.8-1.3 4 1.5 1.1 2.8-2.2 3.5-2.5 1.5 0 0-0.1-0.5-0.2 0z"/>
					<path id="Layer" class="s14" d="m621.7 315.4c1.6-4.8 1.2-3.2 2.2-9.5 1-6.2-0.8-12.6-0.8-12.6-2.2-7.5-10.3-13.1-10.3-13.1 0 0 8.2 1.9 13 12.1 0 0 3.7 7.3 1.9 16.6 0 0-1.7 9.3-9.1 13.5z"/>
					<path id="Layer" class="s10" d="m655.9 251.1c0 0 7-0.3 6.7 6.8"/>
					<path id="Layer" class="s14" d="m611.1 328.6c1.7 3.6 3.8 10.3 3.8 10.3 2.5 7.8 5.7 15.1 6.1 15.8 0.4 0.6 1.6 3.3 3.6 4.9 1.7 1.4 4.7 2.4 8.2 1.4 2.5-0.8 3.6-3.1 3.6-3.1 0.9 0.1 1.9-0.3 1.9-0.3 0.9-0.4 0.9-1.2 0.9-1.2-0.1-1.1-0.7-1.3-0.7-1.3-0.8-0.2-1.5 0.1-1.5 0.1 0 0 0 0 0 0 0 0.1 0.1 0.1 0.1 0.1 1.8-0.6 2 0.7 2 0.7 0.3 1.4-1.2 1.8-1.2 1.8-4.3 0.8-4.1-2.8-4.1-2.8-0.1-3.3 3.8-3 3.8-3 3.9 0.3 3.5 4.7 3.5 4.7 0 4.7-6.6 7.6-6.6 7.6-11.1 4.2-16-5.9-16-5.9-3.8-7.1-7.7-20.1-7.7-20.1-3.5-10.2-5.4-13-5.4-13 18.1-4.5 17.4-21.9 17.4-21.9 0-9.2-5.6-16.4-5.6-16.4-4.3-5.3-7.9-4.5-7.9-4.5-1.9 0.2-1.6 2.1-1.6 2.1 0 0 0 0.1 0 0.1 0 0 0.1 0 0.1-0.1 0 0-0.1-1.5 1.1-1.9 0 0 1.6-0.5 2.4 0.6 0 0 1 1.6-0.3 3.3 0 0-2 2.4-5.2 0.6 0 0-2-1-1.6-3.8 0 0 0.6-4 5.3-3.9 0 0 9.3 0 14.8 12.9 0 0 3.9 8.5 1.5 18.2 0 0-3.3 13-15.4 16.7z"/>
					<path id="Layer" class="s14" d="m644.4 360.1q0 0 0 0c-0.7-0.1-1.4 0.2-1.4 0.2-1.4 0.5-1 2.8-1 2.8 0.5 3 2 4.8 2 4.8 1.8 2.1 4.6 3.5 7.5 4.7 4.3 1.6 8.4 3.4 10.5 4.3 3.8 1.5 5.6 4 5.6 4 2 2.4 1.9 6.9-0.3 9.3-1.5 1.5-3.7 1.6-3.7 1.6-3 0-3.9-2.5-3.9-2.5-1-2.6 1.5-3.8 1.5-3.8 2.8-1.2 4 0.8 4 0.8 0.9 1.7-0.2 2.7-0.2 2.7-1.1 0.9-2 0.4-2 0.4-0.8-0.3-0.9-1.2-0.9-1.2q0 0 0 0 0 0.1 0 0.1c0.2 1.3 1.6 1.3 1.6 1.3 1.2 0 1.9-1.2 1.9-1.2 2.1-3.2-2.5-6.7-2.5-6.7-3.1-2.3-13.2-6.2-13.2-6.2-2.5-1.1-7.7-3.4-9.8-7-1.9-3.2-0.8-6.9-0.8-6.9 1.4-4.4 4.7-4.5 4.7-4.5 3.3-0.4 4.1 2.3 4.1 2.3 1.3 4-2.2 4.7-2.2 4.7-3.6 0.7-3.7-2.2-3.7-2.2 0-2.1 2.2-1.8 2.2-1.8 0.1 0.1 0 0 0 0z"/>
					<g id="Layer">
						<path id="Layer" class="s10" d="m639.1 365.6c0.2-1.1 1.1-3 1.1-3 1.5-2.9 4-2.5 4-2.5"/>
						<path id="Layer" class="s10" d="m638.3 355.1c0 0 2.5 0.4 1.2 3.9-1.2 3.4-3.4 4.4-4.1 4.9"/>
						<path id="Layer" class="s10" d="m667.3 257.5c0 0 6.1-3.7 12.2 0.4"/>
					</g>
				</g>
				<g id="Layer">
					<path id="Layer" class="s16" d="m626.3 276.3c1.3 3.4 3.8 8.8 3.8 8.8 3.8 5.9 3 9.3 3 9.3"/>
					<path id="Layer" class="s16" d="m641.1 288.2c-0.6-1.3-3.3-8-3.3-8-0.7-2.3-2.9-7.6-2.9-7.6"/>
				</g>
			</g>
			<g id="Layer">
				<g id="Layer">
					<path id="Layer" class="s16" d="m636 298.1c0-0.1 2.3 2.4 2 6.5"/>
					<path id="Layer" class="s16" d="m634.3 310.6c-3.7-2.5-3.5-7.3-3.5-7.3 0.2-6.7-2.3-7.9-2.3-7.9"/>
					<path id="Layer" class="s16" d="m628.2 312.3c0 0 7.8-0.9 8.2 3.9 0 0 0.2 4.7 2.9 5.2 0 0 4 0.3 4.7 4"/>
					<path id="Layer" class="s16" d="m630.6 317.6c0 0 1.4 2.1 2.7 3"/>
					<path id="Layer" class="s16" d="m640.7 312.5c0 0 2 3.1 2.3 4.8"/>
					<path id="Layer" class="s16" d="m649.3 276.3c0 0 1.8 2.5 3.6 3.7"/>
					<path id="Layer" class="s16" d="m656.6 291c0 0 3.9 2 3.2 11.8 0 0-0.5 5.7 1.2 8.8"/>
				</g>
				<path id="Layer" class="s12" d="m648.9 280l0.4 0.9c-3.8 4.7-10.8 4.4-10.8 4.4l-0.2-0.9c4.5-4.8 10.6-4.4 10.6-4.4z"/>
				<path id="Layer" class="s16" d="m663.4 321.8c0 0 24.1-7.2 33.4-11.4"/>
			</g>
			<path id="Layer" class="s17" d="m660.5 276.5l12-4.5 0.3 0.8-12 4.5z"/>
		</g>
		<g id="Layer">
			<g id="Layer">
				<path id="Layer" class="s16" d="m661.8 276.9l8 38.9"/>
				<path id="Layer" class="s16" d="m663.2 276.4l9.1 38.7"/>
				<path id="Layer" class="s16" d="m664.8 275.8l9.9 38.4"/>
				<path id="Layer" class="s16" d="m668.6 274.4l13.6 28.7"/>
				<path id="Layer" class="s16" d="m670.4 273.7l14.4 28.6"/>
				<path id="Layer" class="s16" d="m671.8 273.2l15.6 28.3"/>
				<path id="Layer" class="s16" d="m669.2 316.1l6.1-2.1"/>
				<path id="Layer" class="s16" d="m664.6 312.2c0 0 17.9-5.2 31.5-10.7"/>
				<path id="Layer" class="s16" d="m664.3 314.2c0 0 22.8-6 31.8-10.4"/>
				<path id="Layer" class="s16" d="m674.6 331.7l1.1 3.6-3.2 1-1.2-3.6"/>
				<path id="Layer" class="s16" d="m683.8 329l1.1 3.7-3.2 1-1.2-3.6"/>
				<path id="Layer" class="s16" d="m665 308.6l-0.2-5 29.8-9 1.6 4.1"/>
				<path id="Layer" class="s16" d="m677.4 299.8l1.6 4.3"/>
				<path id="Layer" class="s16" d="m687.8 296.6l1.9 4.2"/>
				<path id="Layer" class="s16" d="m690.3 295.9l1.8 3.9"/>
				<path id="Layer" class="s16" d="m692.6 295.2l1.9 4"/>
				<path id="Layer" class="s16" d="m694.6 294.6l3.2-1.9 1.4 3.7"/>
				<path id="Layer" class="s16" d="m696.2 293.7l1.6 3.7"/>
			</g>
			<g id="Layer">
				<path id="Layer" class="s18" d="m616.9 330.6c-1 5 5.4 8.1 5.4 8.1-5.9 5.8 0 11.7 0 11.7"/>
				<path id="Layer" class="s18" d="m635.6 355.9c-1.8 3.6-7.2 2.2-8.2 1.6-2.6-1.6-3-4.5-2.3-6.3 0.8-2.4 3.3-7.1 3.3-7.1-1.8 11.8 4.3 11 4.3 11"/>
				<path id="Layer" class="s18" d="m625.9 337.1c0 0-2.4 2.3-0.7 6.4"/>
				<path id="Layer" class="s18" d="m628.5 337.6c0 0 0.3 4.1 2.3 6.3"/>
				<path id="Layer" class="s18" d="m630.2 336c0 0 0 4.8 3.4 7.7"/>
				<path id="Layer" class="s18" d="m631.9 334.4c0 0 0 5.3 4 8.6"/>
				<path id="Layer" class="s18" d="m651.6 342.2c0 0 2-4.4 6.2-4.1 0 0-2.1 0.9-2 2.9 0 0-0.3 3.4 3.3 3.7 0 0 2.9 0.4 4.4-1.2"/>
				<path id="Layer" class="s18" d="m661.5 362.2c0 0-10.4-4.9-9.3-11.9 0 0 0.4-4.3 4.6-6.3"/>
				<path id="Layer" class="s18" d="m654.6 348.4c0 0-0.9 3.1 1.2 5.2"/>
				<path id="Layer" class="s18" d="m657 346.4c0 0-1.3 3.3 0.8 5.8"/>
				<path id="Layer" class="s18" d="m659.5 344.8c0 0-1.5 2.7 0.3 5.2"/>
				<path id="Layer" class="s18" d="m650 362.9c0 0 5.7 4.9 10.1 4.9"/>
				<path id="Layer" class="s18" d="m648.2 364.4c0 0 5.3 4.3 8.6 5"/>
				<path id="Layer" class="s18" d="m646.2 365.6c0 0 6.6 5.8 10.6 6.2"/>
				<path id="Layer" class="s18" d="m672.8 377.1c0 0-6.4 3.5-1.4 7.2"/>
				<path id="Layer" class="s18" d="m668.8 373.3c0 0 7.2-3.8 10.4-5.3"/>
				<path id="Layer" class="s18" d="m671.4 375.3c0 0 10.5-6.5 13.6-7.8"/>
				<path id="Layer" class="s18" d="m676.8 375.7c0 0 9-6 13.8-8.6"/>
				<path id="Layer" class="s18" d="m682.8 375.5c0 0 6.2-4.9 12.2-8.4"/>
				<path id="Layer" class="s18" d="m697.1 361c0 0-3.1-4.5-13.1 0 0 0 3.7-3.3 11-5.9"/>
				<path id="Layer" class="s18" d="m705.1 335.9c0 0 0.8 3.7-0.1 5.8"/>
				<path id="Layer" class="s18" d="m697.7 338c7.1 0.6 8.4 5.6 8.4 5.6 1.9 6.8-4.3 8.1-4.3 8.1-4.2 0.8-5.6-2.8-5.6-2.8-5.3 1.5-7.4 4.6-7.4 4.6"/>
				<path id="Layer" class="s18" d="m718.8 329.5c0 0 7.2 1.3 7.1 7.2 0 0 0.6 8.8-8.7 10.6"/>
				<path id="Layer" class="s18" d="m724.9 333.1c0 0 1.9-4.3 6.4-6"/>
				<path id="Layer" class="s18" d="m725.9 324.6c0 0 2 3.1 3.3 3.6"/>
				<path id="Layer" class="s18" d="m724.9 327.1c0 0 1.8 2.3 2.4 2.6"/>
				<path id="Layer" class="s18" d="m724.3 329.3c0 0 0.9 1.4 1.8 1.9"/>
				<path id="Layer" class="s18" d="m687.2 295.2c0 0 1.4-2.3 4.9-1.4"/>
				<path id="Layer" class="s18" d="m706.3 312.2c0 0 2.2-9.2 9.9-5.8"/>
				<path id="Layer" class="s18" d="m713.1 305.7c0 0 0.8-4.3-1.1-6.5"/>
				<path id="Layer" class="s18" d="m707.8 305.4c0 0 1 1.7 0.2 3.2"/>
			</g>
		</g>
		<path id="Layer" class="s13" d="m724.1 391.3c-0.7-4.4 2.7-4.6 2.7-4.6 1.9-0.2 2.7 2.1 2.7 2.1 2.7 6.7-6 10.7-6 10.7 1.6-3.8 0.6-8.2 0.6-8.2z"/>
		<path id="Layer" class="s5" d="m726.6 395.5c0 0 1.9-1.8 1.7-5.1 0 0-0.1-0.7 0.2-0.8 0 0 0.4-0.1 0.5 0.7 0 0 0.5 3.4-1.8 5.3 0 0-0.2 0.2-0.4 0.2 0 0-0.3-0.1-0.2-0.3z"/>
		<path id="Layer" class="s13" d="m735 388.1c-3-5.2 0.8-6.4 0.8-6.4 1.9-0.4 2.8 1.5 2.8 1.5 3.3 6.4-2.8 10.2-2.8 10.2 0.7-1.9-0.8-5.3-0.8-5.3z"/>
		<path id="Layer" class="s5" d="m737.4 384.7c0 0-0.4-0.4-0.1-0.6 0 0 0.1-0.2 0.5 0.3 0 0 1.8 2 0.4 5.2 0 0-0.2 0.4-0.5 0.3 0 0-0.2-0.1 0-0.5 0 0 1.3-2.6-0.3-4.7z"/>
		<path id="Layer" class="s13" d="m717.6 397.8c0 0-6.8-1.7-5.5-8.7 0 0 0.7-3.1 3.5-2.7 0 0 3.5 0.9 1.2 5.4 0 0-1.3 3.1 0.8 6z"/>
		<path id="Layer" class="s5" d="m715 389.4c0 0-0.2-0.3 0-0.5 0 0 0.3-0.1 0.5 0.3 0 0 0.8 1.1 0.2 2.7 0 0-0.6 1-0.3 2.2 0 0 0 0.3-0.2 0.3 0 0-0.3-0.1-0.3-0.3 0 0-0.4-1.1 0.2-2.1 0 0 0.7-1.7-0.1-2.6z"/>
		<path id="Layer" class="s11" d="m725.3 382.8c-2-1.5-3.5-3.3-3.5-3.3 3.6-0.3 5 3.4 5 3.4 2.4 0.6 2.7 2 2.7 2-3.2-2.5-7-0.4-7-0.4 0.7-1.5 2.8-1.7 2.8-1.7z"/>
		<path id="Layer" class="s11" d="m729 376c0.9-0.7 2.4-0.5 2.4-0.5-1.3 0.8-2.4 2.1-2.4 2.1-1.1-1.3-3.7-3.2-3.7-3.2 2.4 0.3 3.7 1.6 3.7 1.6z"/>
		<g id="Layer">
			<path id="Layer" class="s10" d="m710.9 379c0.2 1-0.3 1.7-0.3 1.7-0.6 1-0.4 1.9-0.4 1.9"/>
			<path id="Layer" class="s10" d="m738.2 322.8c0 0 4-0.3 4.7-3.4"/>
			<path id="Layer" class="s10" d="m744.9 319.8c1.4 0.2 2.4-1.2 2.4-1.2 1.3-1.3 2.7-1.3 2.7-1.3"/>
		</g>
		<path id="Layer" class="s11" d="m732.2 310.9c0 0 2.1 0 3.2-1 0 0 1.3-0.9 2 0.5 0 0 1.1 1.9-1 2.7 0 0-2.5 1.3 1.5 3.9 0 0-4.8-1.8-2.8-4.1 0 0 2.1-1.5 1.3-2.1 0 0-0.2-0.4-1.1 0.1-0.8 0.6-2.5 0.4-3.1 0z"/>
		<path id="Layer" class="s13" d="m735 259.9c0 0 1-1.3 0.6-5.2-0.4-3.9 3-4.4 4.3-3.3 0 0 1.3 1.2 0.1 3.7-0.7 1.4-1.8 3.3-5 4.8z"/>
		<path id="Layer" class="s5" d="m736.3 257c0 0 1.3-1.4 0.7-4.4 0 0 0-0.3 0.1-0.3 0 0 0.3-0.1 0.4 0.2 0 0 0.7 3.2-0.7 4.9 0 0-0.3 0.3-0.5 0 0 0-0.2-0.2 0-0.4z"/>
		<path id="Layer" class="s13" d="m734 258.4c0 0-0.1-1.5-2.8-4.2-2.8-2.7-0.5-5.1 1.1-5.1 0 0 1.8 0 2.4 2.7 0.3 1.5 0.6 3.6-0.7 6.6z"/>
		<path id="Layer" class="s5" d="m733.5 255c0 0 0.1-1.9-2.4-3.9 0 0-0.2-0.2-0.1-0.4 0 0 0.2-0.2 0.5 0 0 0 2.6 2.1 2.7 4.4 0 0-0.1 0.4-0.4 0.3 0 0-0.2 0-0.3-0.4z"/>
		<path id="Layer" class="s13" d="m730.3 257.3c0 0-0.7-1.3-4.1-2.5-3.3-1.2-2.4-4.1-1-4.7 0 0 1.4-0.7 3 1.3 0.9 1.1 2 2.8 2.1 5.9z"/>
		<path id="Layer" class="s5" d="m728.8 254.9c0 0-0.7-1.7-3.8-2.5 0 0-0.3-0.1-0.2-0.3 0 0 0-0.3 0.3-0.2 0 0 3.3 0.8 4.3 2.8 0 0 0.2 0.4-0.2 0.4 0 0-0.2 0.1-0.4-0.2z"/>
		<path id="Layer" class="s13" d="m726.1 261.5c-2.7 0.3-3.4-1.4-3.4-1.4-0.6-1.6 0.9-4.6 4.5-2.8 3.6 1.7 5.2 1.2 5.2 1.2-2.5 2.4-4.7 2.9-6.3 3z"/>
		<path id="Layer" class="s5" d="m724 259.7c0 0 1.7 1 4.6-0.1 0 0 0.3-0.1 0.4 0.1 0 0 0.1 0.2-0.2 0.4 0 0-3.1 1.2-5.1 0.1 0 0-0.4-0.2-0.1-0.4 0 0 0.1-0.3 0.4-0.1z"/>
		<path id="Layer" class="s10" d="m727.1 247.2c0 0 1.8 0.9 1.4 3"/>
		<path id="Layer" class="s10" d="m735 247.5c0 0 0.7 2.2 0 3.4"/>
		<path id="Layer" class="s13" d="m606.5 255.1c-1.2-2.5 0.1-3.7 0.1-3.7 1.3-1.1 4.7-0.6 4.3 3.3-0.4 3.9 0.6 5.2 0.6 5.2-3.2-1.5-4.3-3.4-5-4.8z"/>
		<path id="Layer" class="s5" d="m610.2 257.4c-0.2 0.3-0.5 0-0.5 0-1.4-1.7-0.7-4.9-0.7-4.9 0-0.3 0.4-0.2 0.4-0.2 0.1 0 0.1 0.3 0.1 0.3-0.6 3 0.7 4.4 0.7 4.4 0.2 0.2 0 0.4 0 0.4z"/>
		<path id="Layer" class="s13" d="m611.8 251.8c0.6-2.7 2.4-2.7 2.4-2.7 1.6 0 3.9 2.4 1.1 5.1-2.7 2.7-2.8 4.2-2.8 4.2-1.3-3-1-5.1-0.7-6.6z"/>
		<path id="Layer" class="s5" d="m612.6 255.4c-0.3 0.1-0.3-0.3-0.3-0.3 0.1-2.3 2.7-4.4 2.7-4.4 0.3-0.2 0.4 0 0.4 0 0.2 0.2 0 0.4 0 0.4-2.5 2-2.4 3.9-2.4 3.9-0.1 0.4-0.4 0.4-0.4 0.4z"/>
		<path id="Layer" class="s13" d="m618.3 251.4c1.5-2 3-1.3 3-1.3 1.4 0.6 2.3 3.5-1 4.7-3.4 1.2-4.1 2.5-4.1 2.5 0.1-3.1 1.2-4.8 2.1-5.9z"/>
		<path id="Layer" class="s5" d="m617.3 255.1c-0.4 0-0.2-0.4-0.2-0.4 1-2 4.3-2.8 4.3-2.8 0.3-0.1 0.3 0.2 0.3 0.2 0.1 0.2-0.2 0.3-0.2 0.3-3.1 0.8-3.8 2.5-3.8 2.5-0.2 0.3-0.4 0.2-0.4 0.2z"/>
		<path id="Layer" class="s13" d="m614.1 258.5c0 0 1.6 0.5 5.2-1.2 3.6-1.8 5.1 1.2 4.5 2.8 0 0-0.7 1.7-3.4 1.4-1.6-0.1-3.8-0.6-6.3-3z"/>
		<path id="Layer" class="s5" d="m622.9 259.8c0.3 0.2-0.1 0.4-0.1 0.4-2 1.1-5.1-0.1-5.1-0.1-0.3-0.2-0.2-0.4-0.2-0.4 0.1-0.2 0.4-0.1 0.4-0.1 2.9 1.1 4.6 0.1 4.6 0.1 0.3-0.2 0.4 0.1 0.4 0.1z"/>
		<path id="Layer" class="s10" d="m619.4 247.2c0 0-1.8 0.9-1.4 3"/>
		<path id="Layer" class="s10" d="m611.4 247.5c0 0-0.7 2.2 0.1 3.4"/>
		<path id="Layer" class="s11" d="m689.2 227.1c0 0 1.1 3.3 0.7 6.2-0.5 2.6 0.1 3.3 1.1 3.8 0.8 0.5 2.7-0.3 2.9-2.4 0 0 2.3 4.4-2.1 7.4 0 0-3.1 1.9-5.8-0.7-1-0.9-1.4-3.4-0.9-5.7 0 0 0.7-3.2-0.5-6.4 0 0 1.8 1.9 1.4 5.7 0 0-1 6.8 4.1 6.5 0 0 3.5 0 3.6-4.3 0 0-1.3 1.5-2.9 1-1.2-0.3-2.2-1.5-2-3.2 0.2-1.8 0.7-5.1 0.4-7.9z"/>
		<path id="Layer" class="s11" d="m676.9 246.3c0.3-0.1 1.2-2.5 0.2-4.4-1.8-3.3-0.3-4.5-0.3-4.5 0 2.4 1 4 1 4 1.2 2.7 0.5 3.7 0.5 3.7 4.9-1.3 5.2-6.7 5.2-6.7 1.5 6.8-7 8-6.6 7.9z"/>
		<path id="Layer" class="s11" d="m669.9 228.6c-1.9-3.4-2.9-3.5-2.9-3.5 0.8 0 2.5-0.3 4.1 3.4 1.7 3.9 4.4 3.5 4.4 3.5-0.2-0.8-0.5-1.7-0.4-3.4 0.2-1.6-0.4-4.3-0.4-4.3 0.4 0.4 1 1.1 1.1 4.2 0.1 3.1 1.3 4.5 1.3 4.5-4.8-0.2-5.3-0.9-7.2-4.4z"/>
		<path id="Layer" class="s11" d="m664.5 224.9c0 0 1.5 3.7 1.6 5.6 0 0-3.6-1.2-4.6-4.3 0 0-3.9 1.3-2.5 5.8 0 0-3.3-1.2-4.8-3.9 0 0 1.9 1.4 3.6 2 0 0-0.2-3.6 4.3-4.9 0 0 0.7 3.2 2.9 3.9 0 0-0.2-2-0.5-4.2z"/>
		<path id="Layer" class="s11" d="m670.4 218.5c0 0 1.2 1.8 3.8 1.9 1.2 0 2.5-0.3 3.8-1.9 0 0-0.2 3.1-3.8 3.2 0 0-3.8 0.1-3.8-3.2z"/>
		<path id="Layer" class="s11" d="m654.7 240.1c0 0 1.8 1.7 2.2 2.3 0 0 1.4 1.3 2.5-0.4 0 0 1.5-2.7 3.3-2.6 0 0-1.3 0.9-2.7 3.4 0 0-0.4 1-1.5 1.1-0.5 0-1.1 0.2-2-0.8 0 0-0.9-1-1.8-3z"/>
		<path id="Layer" class="s11" d="m674.8 208.7c-0.1 4.7 3.7 6.1 6.2 4.8 2.6-1.4 0.6-4.8 0.6-4.8 0 0 2.8 1.9 1 4.6-1.8 2.8-6.6 1.6-8.4-1-1.8 2.6-6.6 3.8-8.4 1-1.8-2.7 1-4.6 1-4.6 0 0-2 3.4 0.6 4.8 2.5 1.3 6.3-0.1 6.2-4.8 0 0-3.2-2.9 0.6-2.9 3.8 0 0.6 2.9 0.6 2.9z"/>
		<path id="Layer" class="s11" d="m676.5 200.7c0 0 1.3 2.3 1 5.8 0 0 1.3-3.5-1-5.8z"/>
		<path id="Layer" class="s11" d="m664.8 206.1c0 0-0.3-2.5-2.7-2.7 0 0 2.1 1.5 2.7 2.7z"/>
		<path id="Layer" class="s11" d="m683.6 206.1c0 0 0.3-2.5 2.7-2.7 0 0-2 1.5-2.7 2.7z"/>
		<path id="Layer" class="s11" d="m661 209.9c0 0 1.9 0.5 3.1-0.9 0 0-2.2 0.6-3.1 0.9z"/>
		<path id="Layer" class="s11" d="m654.8 194.6c0 0 2.2-0.2 4.5 3.1 0 0-2.3 1.2-2.8 1.9 0 0 0-1.1 1.1-2.1 0 0-0.4-1.6-2.8-2.9z"/>
		<path id="Layer" class="s11" d="m689.3 197.5c1.1 1 1.1 2.1 1.1 2.1-0.5-0.7-2.7-1.9-2.7-1.9 2.2-3.3 4.4-3.1 4.4-3.1-2.3 1.3-2.8 2.9-2.8 2.9z"/>
		<path id="Layer" class="s11" d="m674.9 197.1c0 0 2 0.6 4.5-0.8 0 0 3.1-1.7 5.1 0 0 0-1.7-0.8-5 0.8 0 0-3.3 1.8-4.6 0z"/>
		<path id="Layer" class="s5" d="m677 199.1c0 0 1.7-3 6.9-2.4 0 0-1.4 4.2-6.9 2.4z"/>
		<path id="Layer" class="s19" d="m680.6 199.5c-0.6 0-1-0.6-1-1.3 0-0.7 0.4-1.3 1-1.3 0.6 0 1 0.6 1 1.3 0 0.7-0.4 1.3-1 1.3z"/>
		<path id="Layer" class="s11" d="m680.6 199c-0.3 0-0.6-0.3-0.6-0.8 0-0.4 0.3-0.8 0.6-0.8 0.3 0 0.6 0.4 0.6 0.8 0 0.5-0.3 0.8-0.6 0.8z"/>
		<path id="Layer" class="s11" d="m671.1 192.9c1.5 0.9 2 0.6 2 0.6-1.1-1.2-1.7-2.7-1.7-2.7 0.6-2.5 3.5-3.3 3.5-3.3-2.1 2.1-2.3 3.2-2.3 3.2 0.5 1.5 1.9 2.6 1.9 2.6 1.5-0.5 5.5-3.2 5.5-3.2-1.7 2.1-4.3 3.6-4.3 3.6-2.4 1.8-4.6 0.5-4.6 0.5-2-1.2-5.3-1.4-5.3-1.4 2.2-1 5.3 0.1 5.3 0.1z"/>
		<path id="Layer" class="s11" d="m674.2 212.5c-2.8 2.5 0 2.2 0 2.2 0 0 2.8 0.3 0-2.2z"/>
		<path id="Layer" class="s11" d="m668 197.1c-3.3-1.6-5-0.8-5-0.8 2-1.7 5.1 0 5.1 0 2.5 1.4 4.5 0.8 4.5 0.8-1.3 1.8-4.6 0-4.6 0z"/>
		<path id="Layer" class="s5" d="m670.5 199.1c0 0-1.7-3-6.9-2.4 0 0 1.4 4.2 6.9 2.4z"/>
		<path id="Layer" class="s19" d="m666.9 199.5c-0.6 0-1.1-0.6-1.1-1.3 0-0.7 0.5-1.3 1.1-1.3 0.5 0 1 0.6 1 1.3 0 0.7-0.5 1.3-1 1.3z"/>
		<path id="Layer" class="s11" d="m666.9 199c-0.4 0-0.6-0.3-0.6-0.8 0-0.4 0.2-0.8 0.6-0.8 0.3 0 0.6 0.4 0.6 0.8 0 0.5-0.3 0.8-0.6 0.8z"/>
		<path id="Layer" class="s20" d="m774.8 172.2v188.8c0 50.4-100.8 66.8-100.8 66.8 0 0-100.8-16.4-100.8-66.8v-188.8z"/>
	</g>
</svg>