<svg version="1.2" xmlns="http://www.w3.org/2000/svg" viewBox="0 0 900 600" width="900" height="600">
	<title></title>
	<style>
		.s0 { fill: #dd0000 } 
		.s1 { fill: #ffffff } 
		.s2 { fill: #003893 } 
		.s3 { fill: #fecb00 } 
		.s4 { fill: #002395 } 
		.s5 { fill: #ead67f;stroke: #755a36;stroke-width: .5 } 
		.s6 { fill: #e5eaeb } 
		.s7 { fill: #ffffff;stroke: #000000;stroke-width: .5 } 
		.s8 { fill: #f2f2f2 } 
		.s9 { fill: #b3b3b3 } 
		.s10 { fill: #808080 } 
		.s11 { fill: #755a36 } 
		.s12 { fill: #000000 } 
		.s13 { fill: none;stroke: #ead67f;stroke-width: 1.5 } 
		.s14 { fill: #ead67f } 
		.s15 { fill: none;stroke: #000000;stroke-width: .5 } 
		.s16 { fill: #225540 } 
		.s17 { fill: none;stroke: #000000;stroke-width: .6 } 
		.s18 { fill: none;stroke: #000000;stroke-linecap: round;stroke-width: 1.5 } 
		.s19 { fill: #333333 } 
	</style>
	<path id="Layer" class="s0" d="m0 0h900v600h-900z"/>
	<path id="Layer" class="s1" d="m0 0h900v400h-900z"/>
	<path id="Layer" class="s2" d="m0 0h900v200h-900z"/>
	<g id="g6">
		<path id="rect4" class="s2" d="m0 0h300v600h-300z"/>
		<path id="path1400" class="s3" d="m300 0v600l-300-600z"/>
		<g id="layer">
			<path id="path2" class="s4" d="m141.4 316.5c37 78.9-1.7 126.5-1.7 126.5-80.3-8.8-104.2-71.8-104.2-71.8z"/>
			<g id="g14">
				<path id="path4" class="s5" d="m104.7 363.3c-1.7-3.1-4.3-4.8-4.3-4.8-2.3 0.4 0.2 2.9 0.2 2.9-5.4 2.6-8-4.3-3.9-5.7 4-1.5 9.6 6.3 9.6 6.3z"/>
				<path id="path6" class="s5" d="m109 360.6c0 0-3.1-9 0.4-11.5 3.5-2.5 7.7 3.5 2.5 6.4 0 0-0.6-3.4-2.3-1.7 0 0-0.1 3.1 1.4 6.3z"/>
				<path id="path8" class="s5" d="m108.5 361.4l-0.6 0.3-0.7 0.3c-14.1-13.5-8.4-17.8-8.4-17.8 0 0 6.9-2.2 9.7 17.2z"/>
				<path id="polygon10" class="s5" d="m113.6 364.6l-0.8 0.4-1.5 1.6 0.9 1.7-0.7 0.4-0.7 0.4-1-1.8-2.1 0.3-0.8 0.4 0.4-4.2 1.7 0.1 1-1.4z"/>
				<path id="polygon12" class="s5" d="m106 366h-4.1l2.4-3.3 6.5-3.3h4l-2.4 3.2z"/>
			</g>
			<g id="g26">
				<path id="path16" class="s5" d="m125.3 429.8c-1.7-3.1-4.3-4.9-4.3-4.9-2.3 0.5 0.2 2.9 0.2 2.9-5.4 2.6-8-4.3-3.9-5.7 4-1.4 9.6 6.3 9.6 6.3z"/>
				<path id="path18" class="s5" d="m129.6 427c0 0-3.1-9 0.4-11.5 3.5-2.5 7.7 3.6 2.5 6.5 0 0-0.6-3.5-2.3-1.8 0 0-0.1 3.1 1.4 6.3z"/>
				<path id="path20" class="s5" d="m129.1 427.8l-0.6 0.4-0.6 0.3c-14.2-13.6-8.4-17.9-8.4-17.9 0 0 6.8-2.1 9.6 17.2z"/>
				<path id="polygon22" class="s5" d="m134.2 431l-0.8 0.4-1.5 1.6 0.9 1.8-0.7 0.4-0.7 0.3-0.9-1.8-2.2 0.3-0.8 0.5 0.4-4.2h1.7l1-1.4z"/>
				<path id="polygon24" class="s5" d="m126.6 432.4l-4.1 0.1 2.4-3.3 6.5-3.3 4.1-0.1-2.4 3.3z"/>
			</g>
			<g id="g38">
				<path id="path28" class="s5" d="m81.4 412.5c-1.7-3.1-4.3-4.9-4.3-4.9-2.3 0.5 0.1 2.9 0.1 2.9-5.3 2.6-7.9-4.3-3.8-5.7 4-1.4 9.6 6.3 9.6 6.3z"/>
				<path id="path30" class="s5" d="m85.7 409.7c0 0-3.1-9 0.4-11.5 3.5-2.5 7.7 3.6 2.5 6.5 0 0-0.6-3.5-2.3-1.8 0 0-0.1 3.1 1.4 6.3z"/>
				<path id="path32" class="s5" d="m85.2 410.5l-0.6 0.3-0.7 0.4c-14.1-13.6-8.4-17.9-8.4-17.9 0 0 6.9-2.2 9.7 17.2z"/>
				<path id="polygon34" class="s5" d="m90.3 413.7l-0.9 0.4-1.4 1.6 0.9 1.8-0.7 0.3-0.7 0.4-1-1.8-2.1 0.3-0.8 0.4 0.4-4.1h1.7l1-1.4z"/>
				<path id="polygon36" class="s5" d="m82.7 415.1l-4.1 0.1 2.4-3.3 6.5-3.4h4l-2.4 3.3z"/>
			</g>
			<g id="g50">
				<path id="path40" class="s5" d="m103.2 423.4c-1.7-3.1-4.3-4.8-4.3-4.8-2.4 0.4 0.1 2.9 0.1 2.9-5.4 2.5-7.9-4.4-3.8-5.8 4-1.4 9.6 6.3 9.6 6.3z"/>
				<path id="path42" class="s5" d="m107.5 420.6c0 0-3.1-9 0.4-11.5 3.5-2.5 7.6 3.6 2.4 6.5 0 0-0.5-3.4-2.3-1.8 0 0-0.1 3.2 1.5 6.4z"/>
				<path id="path44" class="s5" d="m107 421.5l-0.7 0.3-0.6 0.3c-14.1-13.5-8.4-17.9-8.4-17.9 0 0 6.8-2.1 9.7 17.3z"/>
				<path id="polygon46" class="s5" d="m112 424.7l-0.8 0.4-1.5 1.5 1 1.8-0.7 0.4-0.8 0.4-0.9-1.8-2.1 0.3-0.8 0.4 0.3-4.2h1.8l0.9-1.4z"/>
				<path id="polygon48" class="s5" d="m104.5 426.1h-4.1l2.4-3.3 6.4-3.3 4.1-0.1-2.4 3.3z"/>
			</g>
			<g id="g62">
				<path id="path52" class="s5" d="m126.8 351.9c-1.7-3.1-4.3-4.8-4.3-4.8-2.3 0.4 0.2 2.9 0.2 2.9-5.4 2.5-8-4.4-3.9-5.8 4-1.4 9.6 6.3 9.6 6.3z"/>
				<path id="path54" class="s5" d="m131.1 349.1c0 0-3.1-9 0.4-11.5 3.5-2.5 7.7 3.6 2.5 6.5 0 0-0.6-3.4-2.3-1.8 0 0-0.1 3.2 1.4 6.4z"/>
				<path id="path56" class="s5" d="m130.6 350l-0.6 0.3-0.6 0.3c-14.2-13.5-8.5-17.9-8.5-17.9 0 0 6.9-2.1 9.7 17.3z"/>
				<path id="polygon58" class="s5" d="m135.7 353.1l-0.8 0.5-1.5 1.5 0.9 1.8-0.7 0.4-0.7 0.4-1-1.8-2.1 0.3-0.8 0.4 0.4-4.2h1.7l1-1.4z"/>
				<path id="polygon60" class="s5" d="m128.1 354.6h-4.1l2.4-3.3 6.5-3.3 4.1-0.1-2.4 3.3z"/>
			</g>
			<g id="g74">
				<path id="path64" class="s5" d="m140.9 379.1c-1.7-3.1-4.3-4.8-4.3-4.8-2.4 0.4 0.1 2.9 0.1 2.9-5.4 2.5-7.9-4.3-3.9-5.8 4.1-1.4 9.6 6.4 9.6 6.4z"/>
				<path id="path66" class="s5" d="m145.1 376.4c0 0-3-9.1 0.5-11.5 3.5-2.5 7.6 3.5 2.4 6.4 0 0-0.6-3.4-2.3-1.7 0 0-0.1 3.1 1.4 6.3z"/>
				<path id="path68" class="s5" d="m144.6 377.2l-0.6 0.3-0.6 0.3c-14.2-13.5-8.4-17.8-8.4-17.8 0 0 6.8-2.2 9.6 17.2z"/>
				<path id="polygon70" class="s5" d="m149.7 380.4l-0.8 0.4-1.5 1.5 0.9 1.8-0.7 0.4-0.7 0.4-0.9-1.8-2.1 0.3-0.8 0.4 0.3-4.2 1.7 0.1 1-1.5z"/>
				<path id="polygon72" class="s5" d="m142.1 381.8h-4l2.4-3.3 6.4-3.3h4.1l-2.4 3.2z"/>
			</g>
			<path id="polygon76" class="s6" d="m157.1 387.8l-7.1 24.5-105.8-28.6-6.9-13.5 0.8-2.6 15.2-7.8z"/>
			<path id="polygon78" class="s7" d="m155.9 392.2l-4.6 15.8-109.9-29.7-4.1-8.1 0.8-2.6 9.2-4.7z"/>
			<path id="path94" fill-rule="evenodd" class="s5" d="m143.9 309.4c38.5 73.7-1.2 139.3-1.2 139.3 0 0-76.4-5.6-114.1-79.8l57.6-29.8zm-4 10.7l-50.1 25.9-50.9 26.4c32.4 63.8 99.4 67.8 99.4 67.8 0 0 34.7-56.7 1.6-120.1z"/>
			<path id="path96" class="s8" d="m139.2 273.2v57.6c-31.5-10.3-54.9 7.8-54.9 7.8v-15.6l-10.3-31.6 10.3-21.2c30-6.3 54.9 3 54.9 3z"/>
			<path id="path98" class="s9" d="m139.2 273.2v57.6c-31.5-10.3-54.9 7.8-54.9 7.8v-5.3c28.4-16.2 42.4-10.3 42.4-10.3-13.7-36.9-44.2-49-44.2-49l1.8-3.8c30-6.3 54.9 3 54.9 3z"/>
			<path id="path100" class="s10" d="m139.2 273.2v57.6c-31.5-10.3-54.9 7.8-54.9 7.8v-2.5c28.7-15.6 45.7-11.8 45.7-11.8-9.6-34.8-47-51.4-47-51.4l1.3-2.7c30-6.3 54.9 3 54.9 3z"/>
			<path id="path102" class="s5" d="m78 292.2c0 0 12.7-0.2 6.8-5.6 0 0 2.3 1.7 6.5 4 1.8 1.1 6.2 0.1 7.9 2.4 0 0-2.6 2.7-7.2 4.5-2.4 0.9-2 5.4-3.8 5.8 0 0 1.5-7.2-8.5-5.1 0 0-6-0.8-1.7-6z"/>
			<path id="ellipse104" class="s11" d="m94.5 293c0.2 0.9-3.4 2.4-8 3.2-4.6 0.8-8.4 0.7-8.6-0.2-0.2-1 3.4-2.4 8-3.2 4.6-0.9 8.4-0.8 8.6 0.2z"/>
			<path id="ellipse106" class="s11" d="m88.9 291.1c0.6-0.1 1.3 1.2 1.6 2.9 0.3 1.7 0.1 3.1-0.5 3.2-0.6 0.1-1.3-1.2-1.6-2.8-0.3-1.7 0-3.2 0.5-3.3z"/>
			<path id="path110" class="s5" d="m139.2 271.7v8.3c-20.5-6.3-56.2-3.5-56.2-3.5 0 0-8 12.4-4 20.7 4 8.4 6.2 23.4 6.2 23.4 4.2 1.7 2.1-2.3 2.1-2.3 1.6 0.3 1.7 2.2 2.9 2 2.8-0.3 4.2 1.2 4.2 1.2-1 0.8-1.1 2.4-3 2.6-1.4 0.1-1.6 2.8-1.6 2.8-0.5-2.2-3-1.9-3-1.9 1.4 2.3 0 8.7 0 8.7 36.4-16.7 52.4-6.8 52.4-6.8v5.9c-25.8-10.9-58.8 9.4-58.8 9.4 4.5-12.9-4.4-37.9-7.2-43.2-2.9-5.3-1.3-10.8-1.3-10.8l6.1-18.3c38.2-9.9 61.2 1.8 61.2 1.8z"/>
			<path id="path120" class="s4" d="m78 269.9c0 0 31-18.1 62.3 0 0 0 15 54.4 74.7 93.5 0 0 4.7 2.6 11 0 0 0 10.7-7.1 14.7 8.3 0 0 5.3 5.3 11.3 0 6-5.3 7.7-2.3 8.3 2.4 0.7 4.6 7.7-0.4 8.4-2.4 0 0-4 11.2-11.2 2.3 0 0-4.5-3-7.2 5.7-2.6 8.7-16.1-1-18.6-5.5 0 0-4-5.7-4 5.5 0 11.2-11.7 5.7-13.5 4.7 0 0 2 5.3-5.5 10.7 0 0-0.9 2.1 3.1 1.8 4-0.3 7.9-2.5 9.9 2.2 0 0 1 3.7 6.1-1.4 0 0 8.7-5.8 8.5 10.2 0 0 2.2 4.5 8.9 1.5 6.6-3 6.3-0.9 8.6 1.1 0 0 4 3.9 8.2-0.9 4.2-4.8 9-1.3 10.5-0.3 0 0-8.5-3.5-11.2 4.5 0 0-3.5 4.6-11.3-1.7 0 0-2.5-1.7-5.5 1.3-3 3-10.7 0.9-12.7-5-2-5.8-9 0.2-11.1 3-2.2 2.9-28.7 6.4-62.2-41-33.5-47.4-21.4-75.3-80.5-100.5z"/>
			<path id="path122" class="s12" d="m162.9 345.1c0 0 22.5 36.3 42.6 38.3 0 0 11.9 3.2-42.6-38.3z"/>
			<path id="path124" class="s12" d="m132.4 300.8c0 0 10.3 16.7 14 24.7 0 0-2-13.1-14-24.7z"/>
			<path id="path126" class="s12" d="m146.4 301.3c0 0 8.8 22.7 16.5 28.2 0 0-6.2-16-16.5-28.2z"/>
			<path id="path128" class="s12" d="m149.4 338.6c0 0 28.6 51.2 58.3 63.3 0 0-36.3-4.3-58.3-63.3z"/>
			<path id="path130" class="s13" d="m214.4 413.2c-0.1-2.3-2.6-6 1.9-9.9 4.5-3.9 1.1-2.6 1.1-2.6-19.4 3.9-12.1-5.7-12.1-5.7 4.2-4.7 6.5-1.4 4.5-13.4-2.1-11.8 4.5-12.2 4.5-12.2"/>
			<path id="path132" class="s12" d="m194.9 358.8c0 0 19 8.8 24.8 15.6 0 0-7.8-11-24.8-15.6z"/>
			<path id="path134" class="s13" d="m221.7 380.2c0.5 1.4 3.5 9.8 4.6-7.2 1-17.1 10.2-6.9 10.2-6.9"/>
			<path id="path136" class="s13" d="m241.7 377.4c0 0 4.2 7.2 8.6-1.1"/>
			<path id="path138" class="s13" d="m230.7 398.6c0 0 3.8-0.1 3.9 8.7"/>
			<path id="path140" class="s14" d="m229.1 372.9c1.1-0.7 2.6 1.3 2.6 1.3 1.4 2.6 6.7 7.1 11.3 8.5-14.3-27.9-13.9-9.8-13.9-9.8z"/>
			<path id="path142" class="s14" d="m214.6 384.6c1.5 0.7 5 2.3 8 2-10-20.7-9.1-9-8-2z"/>
			<path id="path144" class="s14" d="m211.8 396.9c-0.9 0.1-1.6 0-2-0.1-3.9 4 4.1 1.5 9.4-0.4-2-0.8-4.6 0.3-7.4 0.5z"/>
			<path id="path146" class="s14" d="m229.2 397.1c-1.1 2.4-1.3 5.8-1.2 9-2.7 0.6-6 3.6-7.3 5.3-0.3 0.4-1 0.8-2.2 1.1-1.8-5.8 1.6-10.4 3.7-12.6 0.7 0.7 2.3 1.1 5.6-2.2 0 0 0.6-0.3 1.4-0.6z"/>
			<path id="path148" class="s15" d="m78 269.9c0 0 31-18.1 62.3 0 0 0 15 54.4 74.7 93.5 0 0 4.7 2.6 11 0 0 0 10.7-7.1 14.7 8.3 0 0 5.3 5.3 11.3 0 6-5.3 7.7-2.3 8.3 2.4 0.7 4.6 7.7-0.4 8.4-2.4 0 0-4 11.2-11.2 2.3 0 0-4.5-3-7.2 5.7-2.6 8.7-16.1-1-18.6-5.5 0 0-4-5.7-4 5.5 0 11.2-11.7 5.7-13.5 4.7 0 0 2 5.3-5.5 10.7 0 0-0.9 2.1 3.1 1.8 4-0.3 7.9-2.5 9.9 2.2 0 0 1 3.7 6.1-1.4 0 0 8.7-5.8 8.5 10.2 0 0 2.2 4.5 8.9 1.5 6.6-3 6.3-0.9 8.6 1.1 0 0 4 3.9 8.2-0.9 4.2-4.8 9-1.3 10.5-0.3 0 0-8.5-3.5-11.2 4.5 0 0-3.5 4.6-11.3-1.7 0 0-2.5-1.7-5.5 1.3-3 3-10.7 0.9-12.7-5-2-5.8-9 0.2-11.1 3-2.2 2.9-28.7 6.4-62.2-41-33.5-47.4-21.4-75.3-80.5-100.5z"/>
			<path id="polygon150" class="s12" d="m99.8 262.7h2.2l-2.2 8.5z"/>
			<path id="polygon152" class="s12" d="m114.1 262.5v9.7l-2.9-9.7z"/>
			<path id="polygon154" class="s12" d="m124.6 263.8l4.7 12.4-9.4-12.4z"/>
			<path id="polygon156" class="s12" d="m135 265l3 10-6-9.8z"/>
			<g id="g166">
				<path id="path158" class="s12" d="m105.3 175.6l1.9 0.8h-2c-0.9 4.6 3.7 15 3.7 15l-3.6 1.1-3.7 1.1c0 0-3.6-10.7-7.4-13.8l-1.7 1 1.1-1.6q-1-1-1.4-2.3l-2.2 0.5 2-1.2q-0.1-1 0-1.9l-2.9-0.7 3.1-0.4q0.2-0.9 0.6-1.7l-1.7-1.3 2.3 0.4q0.8-0.9 1.8-1.5v-2.6l1.7 2q1.3-0.1 2.5 0.3l1.5-1.6-0.4 2q0.9 0.4 1.7 1l2.7-1.4-1.8 2.1q0.7 0.7 1.2 1.5l2.5-0.1-2.1 0.8c0.4 0.8 0.6 1.7 0.6 2.5z"/>
				<path id="path160" class="s16" d="m103.3 177.1c-0.6 4.1 3.6 13.7 3.6 13.7l-2.1 0.6-2 0.6c0 0-3.3-9.8-6.7-12.7-3-2.7-2.3-7.6 0.4-9.5 3.4 0 7.3 3.6 6.8 7.3z"/>
				<path id="path162" class="s5" d="m95.4 175.5c0 0 0.2-8 5.6-1.6 0 0-3-1.1-5.6 1.6z"/>
				<path id="path164" class="s5" d="m96.6 178.5c-1.3-2.9 1.7-4 1.7-4 3.7-0.2 3.8 2.4 3.8 2.4-1 3.7 3.5 13.8 3.5 13.8l-2 0.6c-4-11.4-7-12.8-7-12.8z"/>
			</g>
			<g id="g176">
				<path id="path168" class="s12" d="m98.7 182.7l1.9 0.7-2 0.1c-0.8 4.6 3.8 14.9 3.8 14.9l-3.7 1.1-3.7 1.2c0 0-3.6-10.7-7.4-13.9l-1.6 1.1 1-1.7q-1-1-1.3-2.2l-2.2 0.5 2-1.3q-0.2-0.9-0.1-1.9l-2.9-0.6 3.1-0.4q0.2-0.9 0.7-1.7l-1.7-1.4 2.3 0.4q0.7-0.9 1.7-1.5v-2.6l1.8 2.1q1.2-0.1 2.4 0.2l1.6-1.5-0.5 1.9q0.9 0.4 1.7 1l2.8-1.3-1.9 2.1q0.8 0.6 1.3 1.5l2.5-0.1-2.1 0.8c0.3 0.8 0.5 1.6 0.5 2.5z"/>
				<path id="path170" class="s16" d="m96.7 184.1c-0.6 4.2 3.6 13.7 3.6 13.7l-2 0.6-2.1 0.7c0 0-3.3-9.9-6.6-12.8-3-2.6-2.4-7.6 0.3-9.5 3.4 0.1 7.4 3.6 6.8 7.3z"/>
				<path id="path172" class="s5" d="m88.9 182.6c0 0 0.1-8 5.5-1.7 0 0-3-1.1-5.5 1.7z"/>
				<path id="path174" class="s5" d="m90 185.5c-1.3-2.8 1.7-3.9 1.7-3.9 3.7-0.2 3.9 2.3 3.9 2.3-1 3.7 3.4 13.8 3.4 13.8l-1.9 0.6c-4-11.4-7.1-12.8-7.1-12.8z"/>
			</g>
			<g id="g186">
				<path id="path178" class="s12" d="m92.6 193.9l1.9 0.7-2 0.1c-0.8 4.5 3.8 14.9 3.8 14.9l-3.7 1.1-3.7 1.1c0 0-3.5-10.6-7.4-13.8l-1.6 1 1-1.6q-0.9-1-1.3-2.2l-2.2 0.5 2-1.3q-0.2-0.9-0.1-1.9l-2.9-0.6 3.1-0.5q0.3-0.8 0.7-1.6l-1.7-1.4 2.3 0.4q0.7-0.9 1.8-1.5l-0.1-2.6 1.8 2.1q1.2-0.1 2.5 0.2l1.5-1.6-0.4 2q0.9 0.4 1.7 1l2.7-1.3-1.8 2.1q0.7 0.6 1.2 1.5l2.5-0.1-2.1 0.8c0.4 0.8 0.6 1.6 0.5 2.5z"/>
				<path id="path180" class="s16" d="m90.6 195.3c-0.6 4.2 3.6 13.7 3.6 13.7l-2 0.6-2 0.7c0 0-3.3-9.9-6.7-12.8-3-2.6-2.4-7.6 0.3-9.5 3.4 0.1 7.4 3.6 6.8 7.3z"/>
				<path id="path182" class="s5" d="m82.8 193.8c0 0 0.1-8.1 5.5-1.7 0 0-3-1.1-5.5 1.7z"/>
				<path id="path184" class="s5" d="m83.9 196.7c-1.3-2.8 1.7-4 1.7-4 3.7-0.1 3.9 2.4 3.9 2.4-1 3.7 3.5 13.8 3.5 13.8l-2 0.6c-4-11.4-7.1-12.8-7.1-12.8z"/>
			</g>
			<g id="g196">
				<path id="path188" class="s12" d="m105.7 193.6l1.9 0.7-2 0.1c-0.8 4.6 3.8 14.9 3.8 14.9l-3.7 1.1-3.7 1.2c0 0-3.5-10.7-7.4-13.9l-1.6 1.1 1-1.7q-0.9-1-1.3-2.2l-2.2 0.5 2-1.3q-0.1-0.9-0.1-1.9l-2.9-0.6 3.1-0.4q0.3-0.9 0.7-1.7l-1.7-1.4 2.3 0.4q0.7-0.9 1.8-1.5l-0.1-2.6 1.8 2.1q1.2-0.1 2.5 0.2l1.5-1.5-0.4 1.9q0.9 0.4 1.7 1l2.7-1.3-1.8 2.1q0.7 0.6 1.2 1.5l2.5-0.1-2.1 0.8c0.4 0.8 0.6 1.6 0.5 2.5z"/>
				<path id="path190" class="s16" d="m103.7 195c-0.6 4.2 3.6 13.7 3.6 13.7l-2 0.6-2 0.7c0 0-3.3-9.9-6.7-12.8-3-2.6-2.4-7.6 0.3-9.5 3.4 0.1 7.4 3.6 6.8 7.3z"/>
				<path id="path192" class="s5" d="m95.9 193.5c0 0 0.1-8 5.5-1.7 0 0-2.9-1.1-5.5 1.7z"/>
				<path id="path194" class="s5" d="m97 196.4c-1.3-2.8 1.7-3.9 1.7-3.9 3.7-0.2 3.9 2.3 3.9 2.3-1 3.7 3.5 13.8 3.5 13.8l-2 0.6c-4-11.4-7.1-12.8-7.1-12.8z"/>
			</g>
			<g id="g206">
				<path id="path198" class="s12" d="m100.4 200.4l1.9 0.7-2 0.1c-0.8 4.6 3.8 14.9 3.8 14.9l-3.7 1.1-3.7 1.2c0 0-3.6-10.7-7.4-13.9l-1.6 1.1 1-1.7q-1-1-1.3-2.2l-2.2 0.5 2-1.3q-0.2-0.9-0.1-1.9l-2.9-0.6 3.1-0.4q0.2-0.9 0.7-1.7l-1.7-1.4 2.3 0.4q0.7-0.9 1.7-1.5v-2.5l1.8 2q1.2-0.1 2.4 0.2l1.6-1.5-0.5 1.9q0.9 0.4 1.7 1l2.8-1.3-1.9 2.1q0.8 0.7 1.3 1.5l2.5-0.1-2.1 0.8c0.3 0.8 0.5 1.6 0.5 2.5z"/>
				<path id="path200" class="s16" d="m98.4 201.8c-0.6 4.2 3.6 13.7 3.6 13.7l-2 0.7-2.1 0.6c0 0-3.3-9.9-6.6-12.8-3.1-2.6-2.4-7.6 0.3-9.5 3.4 0.1 7.4 3.6 6.8 7.3z"/>
				<path id="path202" class="s5" d="m90.6 200.3c0 0 0.1-8 5.5-1.7 0 0-3-1.1-5.5 1.7z"/>
				<path id="path204" class="s5" d="m91.7 203.2c-1.3-2.8 1.7-3.9 1.7-3.9 3.7-0.2 3.9 2.3 3.9 2.3-1 3.8 3.4 13.8 3.4 13.8l-1.9 0.6c-4-11.4-7.1-12.8-7.1-12.8z"/>
			</g>
			<g id="g216">
				<path id="path208" class="s12" d="m102.6 213.9l1.9 0.8h-2c-0.9 4.6 3.7 15 3.7 15l-3.7 1.1-3.6 1.1c0 0-3.6-10.7-7.4-13.8l-1.7 1 1-1.6q-0.9-1-1.3-2.3l-2.2 0.5 2-1.2q-0.1-1 0-1.9l-2.9-0.7 3.1-0.4q0.2-0.9 0.6-1.7l-1.7-1.3 2.3 0.4q0.8-0.9 1.8-1.5v-2.6l1.7 2.1q1.2-0.2 2.5 0.2l1.5-1.6-0.4 2q0.9 0.4 1.7 1l2.7-1.4-1.8 2.1q0.7 0.7 1.2 1.5l2.5-0.1-2.1 0.8c0.4 0.8 0.6 1.7 0.6 2.5z"/>
				<path id="path210" class="s16" d="m100.6 215.4c-0.7 4.1 3.5 13.7 3.5 13.7l-2 0.6-2 0.6c0 0-3.3-9.8-6.7-12.7-3-2.7-2.3-7.6 0.3-9.5 3.5 0 7.4 3.6 6.9 7.3z"/>
				<path id="path212" class="s5" d="m92.7 213.8c0 0 0.1-8 5.6-1.6 0 0-3-1.1-5.6 1.6z"/>
				<path id="path214" class="s5" d="m93.9 216.8c-1.4-2.9 1.7-4 1.7-4 3.7-0.2 3.8 2.4 3.8 2.4-1 3.7 3.5 13.8 3.5 13.8l-2 0.6c-4-11.4-7-12.8-7-12.8z"/>
			</g>
			<g id="g226">
				<path id="path218" class="s12" d="m112.6 173.1l-2.1-0.8 2.4 0.1q0.6-0.8 1.3-1.5l-1.9-2.1 2.8 1.4q0.8-0.6 1.7-1l-0.4-2 1.5 1.6q1.2-0.4 2.5-0.3l1.7-2v2.6q1 0.6 1.8 1.5l2.3-0.4-1.7 1.3q0.4 0.8 0.6 1.7l3.1 0.4-2.9 0.7q0.1 0.9-0.1 1.9l2.1 1.2-2.2-0.5q-0.4 1.3-1.4 2.3l1 1.6-1.6-1c-3.8 3.1-7.4 13.8-7.4 13.8l-3.7-1.1-3.6-1.1c0 0 4.6-10.4 3.7-15h-2l1.9-0.8c0-0.8 0.2-1.7 0.6-2.5z"/>
				<path id="path220" class="s16" d="m120.8 169.8c2.7 1.9 3.4 6.8 0.4 9.5-3.4 2.9-6.7 12.7-6.7 12.7l-2-0.6-2.1-0.6c0 0 4.2-9.6 3.6-13.7-0.5-3.7 3.4-7.3 6.8-7.3z"/>
				<path id="path222" class="s5" d="m121.9 175.5c0 0-0.2-8-5.6-1.6 0 0 3-1.1 5.6 1.6z"/>
				<path id="path224" class="s5" d="m113.7 191.3l-2-0.6c0 0 4.5-10.1 3.5-13.8 0 0 0.1-2.6 3.8-2.4 0 0 3 1.1 1.7 4 0 0-3 1.4-7 12.8z"/>
			</g>
			<g id="g236">
				<path id="path228" class="s12" d="m119.1 180.2l-2.1-0.8 2.5 0.1q0.5-0.9 1.2-1.5l-1.8-2.1 2.8 1.3q0.8-0.6 1.7-1l-0.5-1.9 1.6 1.5q1.2-0.3 2.4-0.2l1.8-2.1-0.1 2.6q1.1 0.6 1.8 1.5l2.3-0.4-1.7 1.4q0.5 0.8 0.7 1.7l3.1 0.4-2.9 0.6q0.1 1-0.1 1.9l2 1.3-2.2-0.5q-0.4 1.2-1.3 2.2l1 1.7-1.6-1.1c-3.9 3.2-7.4 13.9-7.4 13.9l-3.7-1.2-3.7-1.1c0 0 4.6-10.3 3.8-14.9l-2-0.1 1.9-0.7c0-0.9 0.2-1.7 0.5-2.5z"/>
				<path id="path230" class="s16" d="m127.4 176.8c2.7 1.9 3.3 6.9 0.3 9.5-3.3 2.9-6.7 12.8-6.7 12.8l-2-0.7-2-0.6c0 0 4.2-9.5 3.6-13.7-0.6-3.7 3.4-7.2 6.8-7.3z"/>
				<path id="path232" class="s5" d="m128.4 182.6c0 0-0.1-8-5.5-1.7 0 0 3-1.1 5.5 1.7z"/>
				<path id="path234" class="s5" d="m120.2 198.3l-1.9-0.6c0 0 4.4-10.1 3.4-13.8 0 0 0.2-2.5 3.9-2.3 0 0 3 1.1 1.7 3.9 0 0-3.1 1.4-7.1 12.8z"/>
			</g>
			<g id="g246">
				<path id="path238" class="s12" d="m125.2 191.4l-2.1-0.8 2.5 0.1q0.5-0.9 1.2-1.5l-1.8-2.1 2.7 1.3q0.8-0.6 1.7-1l-0.4-2 1.5 1.6q1.3-0.3 2.5-0.2l1.8-2.1-0.1 2.6q1.1 0.6 1.8 1.5l2.3-0.4-1.7 1.4q0.4 0.8 0.7 1.6l3.1 0.5-2.9 0.6q0 1-0.1 1.9l2 1.3-2.2-0.5q-0.4 1.2-1.3 2.2l1 1.6-1.6-1c-3.9 3.2-7.4 13.8-7.4 13.8l-3.7-1.1-3.7-1.1c0 0 4.6-10.4 3.8-14.9l-2-0.1 1.9-0.7c-0.1-0.9 0.1-1.7 0.5-2.5z"/>
				<path id="path240" class="s16" d="m133.5 188c2.7 1.9 3.3 6.9 0.3 9.5-3.4 2.9-6.7 12.8-6.7 12.8l-2-0.7-2-0.6c0 0 4.2-9.5 3.6-13.7-0.6-3.7 3.4-7.2 6.8-7.3z"/>
				<path id="path242" class="s5" d="m134.5 193.8c0 0-0.1-8.1-5.5-1.7 0 0 2.9-1.1 5.5 1.7z"/>
				<path id="path244" class="s5" d="m126.3 209.5l-2-0.6c0 0 4.5-10.1 3.5-13.8 0 0 0.2-2.5 3.9-2.4 0 0 3 1.2 1.7 4 0 0-3.1 1.4-7.1 12.8z"/>
			</g>
			<g id="g256">
				<path id="path248" class="s12" d="m112.1 190.2l-2.1-0.8 2.5 0.1q0.5-0.8 1.2-1.5l-1.8-2.1 2.7 1.4q0.8-0.6 1.7-1l-0.4-2 1.5 1.6q1.3-0.4 2.5-0.3l1.7-2v2.6q1.1 0.5 1.8 1.5l2.3-0.4-1.7 1.3q0.4 0.8 0.7 1.7l3.1 0.4-3 0.7q0.1 0.9 0 1.9l2 1.2-2.2-0.5q-0.4 1.3-1.3 2.3l1 1.6-1.6-1c-3.9 3.1-7.4 13.8-7.4 13.8l-3.7-1.1-3.7-1.1c0 0 4.6-10.4 3.7-15h-2l2-0.8c-0.1-0.8 0.1-1.7 0.5-2.5z"/>
				<path id="path250" class="s16" d="m120.4 186.9c2.7 1.9 3.3 6.8 0.3 9.5-3.4 2.9-6.7 12.7-6.7 12.7l-2-0.6-2-0.6c0 0 4.2-9.6 3.5-13.7-0.5-3.7 3.5-7.3 6.9-7.3z"/>
				<path id="path252" class="s5" d="m121.4 192.6c0 0-0.1-8-5.5-1.7 0 0 2.9-1 5.5 1.7z"/>
				<path id="path254" class="s5" d="m113.2 208.3l-2-0.6c0 0 4.5-10 3.5-13.7 0 0 0.2-2.6 3.8-2.4 0 0 3.1 1.1 1.8 4 0 0-3.1 1.4-7.1 12.7z"/>
			</g>
			<g id="g266">
				<path id="path258" class="s12" d="m117.4 197.9l-2.1-0.8 2.5 0.1q0.5-0.8 1.2-1.5l-1.8-2.1 2.8 1.3q0.8-0.6 1.7-1l-0.5-1.9 1.6 1.5q1.2-0.3 2.4-0.2l1.8-2v2.5q1 0.6 1.7 1.5l2.3-0.4-1.7 1.4q0.5 0.8 0.7 1.7l3.1 0.4-2.9 0.6q0.1 1-0.1 1.9l2 1.3-2.2-0.5q-0.4 1.2-1.3 2.2l1 1.7-1.6-1.1c-3.9 3.2-7.4 13.9-7.4 13.9l-3.7-1.2-3.7-1.1c0 0 4.6-10.3 3.8-14.9l-2-0.1 1.9-0.7c0-0.9 0.2-1.7 0.5-2.5z"/>
				<path id="path260" class="s16" d="m125.7 194.5c2.7 1.9 3.3 6.9 0.3 9.5-3.3 2.9-6.7 12.8-6.7 12.8l-2-0.6-2-0.7c0 0 4.2-9.5 3.6-13.7-0.6-3.7 3.4-7.2 6.8-7.3z"/>
				<path id="path262" class="s5" d="m126.7 200.3c0 0-0.1-8-5.5-1.7 0 0 3-1.1 5.5 1.7z"/>
				<path id="path264" class="s5" d="m118.5 216l-1.9-0.6c0 0 4.4-10 3.4-13.8 0 0 0.2-2.5 3.9-2.3 0 0 3 1.1 1.7 3.9 0 0-3.1 1.4-7.1 12.8z"/>
			</g>
			<g id="g276">
				<path id="path268" class="s12" d="m115.5 211.4l-2.1-0.8 2.5 0.1q0.5-0.8 1.2-1.5l-1.8-2.1 2.7 1.4q0.8-0.6 1.7-1l-0.4-2 1.6 1.6q1.2-0.4 2.4-0.2l1.8-2.1-0.1 2.6q1.1 0.6 1.8 1.5l2.3-0.4-1.7 1.3q0.5 0.8 0.7 1.7l3.1 0.4-2.9 0.7q0.1 0.9-0.1 1.9l2 1.2-2.2-0.5q-0.4 1.3-1.3 2.3l1 1.6-1.6-1c-3.9 3.1-7.4 13.8-7.4 13.8l-3.7-1.1-3.7-1.1c0 0 4.6-10.4 3.8-15h-2l1.9-0.8c-0.1-0.8 0.1-1.7 0.5-2.5z"/>
				<path id="path270" class="s16" d="m123.8 208.1c2.7 1.9 3.3 6.8 0.3 9.5-3.3 2.9-6.7 12.7-6.7 12.7l-2-0.6-2-0.6c0 0 4.2-9.6 3.6-13.7-0.6-3.7 3.4-7.3 6.8-7.3z"/>
				<path id="path272" class="s5" d="m124.8 213.8c0 0-0.1-8-5.5-1.6 0 0 3-1.1 5.5 1.6z"/>
				<path id="path274" class="s5" d="m116.6 229.6l-2-0.6c0 0 4.5-10.1 3.5-13.8 0 0 0.2-2.6 3.9-2.4 0 0 3 1.1 1.7 4 0 0-3.1 1.4-7.1 12.8z"/>
			</g>
			<g id="g286">
				<path id="path278" class="s12" d="m118.1 167.9l2.3 1.8-2.8-0.7c-3.7 6.2-2.9 23.1-2.9 23.1h-5.7-5.7c0 0 0.8-16.9-2.8-23.1l-2.9 0.7 2.3-1.8c-0.5-1.3-0.7-2.6-0.6-3.9l-3.3-0.2 3.5-1q0.2-1.4 0.9-2.7l-3.7-2.2 4.5 0.7q0.8-1.1 1.9-2.1l-1.7-2.7 3 1.6c1-0.6 2.1-1.1 3.3-1.4l1.3-3.7 1.3 3.7c1.2 0.3 2.3 0.8 3.3 1.4l3-1.6-1.6 2.7q1 1 1.8 2.1l4.5-0.7-3.6 2.2q0.6 1.3 0.9 2.7l3.5 1-3.4 0.2c0.1 1.3-0.1 2.6-0.6 3.9z"/>
				<path id="path280" class="s16" d="m114.6 169.1c-3.1 5.7-2.4 21.3-2.4 21.3h-3.2-3.1c0 0 0.7-15.6-2.4-21.3-2.8-5.1 0.8-12 5.5-13.5 4.8 1.5 8.3 8.4 5.6 13.5z"/>
				<path id="path282" class="s5" d="m104.5 163.4c0 0 4.5-11.5 8.6 0 0 0-3.6-2.8-8.6 0z"/>
				<path id="path284" class="s5" d="m104.5 168.1c-0.3-4.6 4.5-4.9 4.5-4.9 5.2 1.3 4.1 5.1 4.1 5.1-3.4 4.9-2.6 21.3-2.6 21.3h-3.1c0.6-18.1-2.9-21.5-2.9-21.5z"/>
			</g>
			<g id="g296">
				<path id="path288" class="s12" d="m118.1 192l2.3 1.9-2.8-0.8c-3.7 6.3-2.9 23.2-2.9 23.2h-5.7-5.7c0 0 0.8-16.9-2.8-23.2l-2.9 0.8 2.3-1.9c-0.5-1.2-0.7-2.5-0.6-3.8l-3.3-0.2 3.5-1q0.2-1.4 0.9-2.7l-3.7-2.2 4.5 0.7q0.8-1.2 1.9-2.1l-1.7-2.7 3 1.6c1-0.7 2.1-1.2 3.3-1.4l1.3-3.7 1.3 3.7c1.2 0.2 2.3 0.7 3.3 1.4l3-1.6-1.6 2.7q1 0.9 1.8 2.1l4.5-0.7-3.6 2.2q0.6 1.3 0.9 2.7l3.5 1-3.4 0.2c0.1 1.3-0.1 2.6-0.6 3.8z"/>
				<path id="path290" class="s16" d="m114.6 193.3c-3.1 5.6-2.4 21.2-2.4 21.2h-3.2-3.1c0 0 0.7-15.6-2.4-21.2-2.8-5.1 0.8-12 5.5-13.5 4.8 1.5 8.3 8.4 5.6 13.5z"/>
				<path id="path292" class="s5" d="m104.5 187.6c0 0 4.5-11.5 8.6 0 0 0-3.6-2.8-8.6 0z"/>
				<path id="path294" class="s5" d="m104.5 192.3c-0.3-4.6 4.5-4.9 4.5-4.9 5.2 1.3 4.1 5 4.1 5-3.4 5-2.6 21.4-2.6 21.4h-3.1c0.6-18.1-2.9-21.5-2.9-21.5z"/>
			</g>
			<g id="g306">
				<path id="path298" class="s12" d="m118.1 211.2l2.3 1.9-2.8-0.8c-3.7 6.2-2.9 23.1-2.9 23.1h-5.7-5.7c0 0 0.8-16.9-2.8-23.1l-2.9 0.8 2.3-1.9c-0.5-1.3-0.7-2.6-0.6-3.9l-3.3-0.2 3.5-0.9q0.2-1.4 0.9-2.7l-3.7-2.3 4.5 0.8q0.8-1.2 1.9-2.2l-1.7-2.6 3 1.6c1-0.7 2.1-1.2 3.3-1.5l1.3-3.7 1.3 3.7c1.2 0.3 2.3 0.8 3.3 1.5l3-1.6-1.6 2.6q1 1 1.8 2.2l4.5-0.8-3.6 2.3q0.6 1.3 0.9 2.7l3.5 0.9-3.4 0.2c0.1 1.3-0.1 2.6-0.6 3.9z"/>
				<path id="path300" class="s16" d="m114.6 212.4c-3.1 5.7-2.4 21.3-2.4 21.3h-3.2-3.1c0 0 0.7-15.6-2.4-21.3-2.8-5.1 0.8-11.9 5.5-13.5 4.8 1.6 8.3 8.4 5.6 13.5z"/>
				<path id="path302" class="s5" d="m104.5 206.7c0 0 4.5-11.5 8.6 0 0 0-3.6-2.8-8.6 0z"/>
				<path id="path304" class="s5" d="m104.5 211.5c-0.3-4.7 4.5-5 4.5-5 5.2 1.4 4.1 5.1 4.1 5.1-3.4 4.9-2.6 21.3-2.6 21.3h-3.1c0.6-18.1-2.9-21.4-2.9-21.4z"/>
			</g>
			<path id="path308" class="s5" d="m77.3 272.8l-2.4-4.1c-0.6-9.9-19.5-28.9-24-43.5l9.9 9c0.3-4.7 8.4-6.5 10-1 1.6 5.5 5 1 5 1 0.3 8-2.4 5.7-2.4 5.7-11.4-3.8-5.7 3.8-5.7 3.8l8.2 2.5c-8.2 4.3 1.5 10.8 1.5 10.8 9 1.5 7.9-7.2 7.9-7.2-1.1-8.6-5.4-0.3-5.4-0.3-3-5.8 4.1-7.5 4.1-7.5l2.4-10 3.9 9.5c3.5-0.5 4.1 4.7 4.1 4.7-7.4-2.2-1.2 5.8-1.2 5.8 13.3 7.5 10.4-6.5 10.4-6.5-1.5-2.4-3.9-1.3-6-0.8 0.5-4.5 4-3.5 6.2-4.8-1-9.5-5.7-3.2-5.7-3.2-7.1 8.8-9-7.5-9-7.5 3.4 6.8 4.1 2.5 4.1 2.5 3.4-12.5 12.1-3.7 12.1-3.7-6-11.3 3.7-18.8 3.7-18.8 0 0 9.7 7.5 3.7 18.8 0 0 8.7-8.8 12.1 3.7 0 0 0.7 4.3 4.1-2.5 0 0-1.9 16.3-9 7.5 0 0-4.7-6.3-5.7 3.2 3.5 0.3 7.4 0.3 5.7 4.6-2.7-0.9-5-1.3-5.5 1 0 0-2.9 14 10.4 6.5 0 0 6.2-8-1.2-5.8 0 0 0.6-5.2 4.1-4.7l3.9-9.5 2.4 10c0 0 7.1 1.7 4.1 7.5 0 0-4.3-8.3-5.4 0.3 0 0-1.1 8.7 7.8 7.2 0 0 9.8-6.5 1.6-10.8l8.2-2.5c0 0 5.7-7.6-5.7-3.8 0 0-2.7 2.3-2.5-5.7 0 0 3.5 4.5 5.1-1 1.6-5.5 9.7-3.7 10 1l9.9-9c-9.8 16.3-24.8 37.7-23.3 42.1l-2.3 3.9c-4.1-3.5-17.6-6.8-32.5-6.8-14.9 0-27.6 4.9-31.7 8.4z"/>
			<path id="path80-8" class="s15" d="m53.4 366.3c10.6 1.2 11.1 7.8 11.1 7.8 0.5 4.9 2.5 6.9 4.8 7.6l0.3-1.6-1.1-0.2 0.2-1.3c0 0 0.5 0.1 1.1 0.2l0.3-1.4 1.5 0.4-0.3 1.1c0.5 0.1 1.2 0.3 1.2 0.3l-0.3 1.3-1.2-0.2c0 0-0.4 1.7-0.3 1.7 3.6 0.3 7.2-1.9 7.2-1.9 0.5-0.3 2.1-1.1 2.5-1.3 20.2-7.5 21.7 4.8 21.7 4.8 0.5 4.9 2.5 7 4.8 7.7l0.4-1.6-1.2-0.3 0.2-1.2c0 0 0.6 0 1.2 0.1l0.3-1.3 1.4 0.3-0.2 1.2c0.4 0.1 1.1 0.3 1.1 0.3l-0.3 1.3-1.1-0.2c0 0-0.4 1.6-0.3 1.7 2.1 0 3.9-1.1 6.6-2.2 8.6-3.6 21.6-6.7 24.8 4.3 1 4.8 2.5 7 4.8 7.7l0.3-1.7-1.1-0.2 0.2-1.3c0 0 0.6 0.1 1.2 0.2l0.3-1.4 1.4 0.4-0.2 1.1c0.4 0.1 1.1 0.4 1.1 0.4l-0.3 1.2-1.1-0.1c0 0-0.4 1.6-0.3 1.6 3.5 0.3 5.6-1.4 5.6-1.4l-0.4 1.7c-6.2 5.3-9.4 3.3-13.9-6.3-1.6-3.2-2.4-5.2-4.4-6.3-0.2-0.1-0.7-0.6-0.7-0.3 0 0.1-0.3 1-0.3 1l1.5 0.5-0.4 1-1.4-0.3-0.4 0.9-0.8-0.3 0.3-0.8-1.4-0.5 0.3-1.1 1.3 0.3c0.4-1 0.4-1 0.4-1-3.9-1.3-8.2-0.2-10.1 0.5-1.6 0.6-2.1 0.4-5.4 1.9-9.5 5.8-14 4.3-16.2-5.6-0.7-3.3-2.4-5.2-4.4-6.3-0.2-0.1-0.7-0.6-0.7-0.3 0 0.2-0.3 1-0.3 1l1.5 0.5-0.4 1.1-1.4-0.4-0.4 0.9-0.8-0.3 0.3-0.8-1.4-0.5 0.3-1.1 1.3 0.3c0.4-1 0.4-1 0.4-1-3.9-1.3-8.2-0.1-10.1 0.5-1.7 0.6-3.6 1.4-5.4 2.7-9.6 5.8-13.9 4.1-16.1-5.8-0.4-1.7-2.6-6-5.1-6.6 0 0.1-0.3 1-0.3 1l1.5 0.4-0.4 1.1-1.4-0.3-0.4 0.9-0.8-0.3 0.2-0.9-1.3-0.4 0.3-1.1 1.3 0.3c0.4-1 0.4-1 0.4-1-3.9-1.4-8.6-0.6-10.5 0.1 2.1-0.8 4.7-2.9 7.8-2.9z"/>
			<path id="path1207" class="s17" d="m112.4 325.5l-2.4-36.8 0.9 16.1c4.1-0.2 10-1.1 12.8-0.2"/>
			<path id="path1209" class="s18" d="m111.6 295.3z"/>
			<path id="path1209-5" class="s18" d="m112 298.2z"/>
			<path id="path1209-6" class="s18" d="m112.2 301.8z"/>
			<path id="path1209-3" class="s18" d="m113.7 321.6z"/>
			<path id="path1209-9" class="s18" d="m113.3 316.6z"/>
			<path id="path1209-57" class="s18" d="m118 302.1z"/>
			<path id="path1311" class="s19" d="m111.4 304.2l0.1 1.9h1.8l-2.5 4.2-2.5-4.1h2.1v-2zm3.6 3.6v2.1h2v1l-1.9 0.1v1.8l-4.3-2.5zm-1.6 6.9h-1.9v1.8h-1.1v-1.9h-2.1l2.6-4.2zm-6.7-1.7v-2.1h-1.9v-1l1.8-0.1v-1.9l4.3 2.5z"/>
			<path id="path1365" class="s14" d="m92.7 269.4c-0.9 0.6-1.4 1-1.9 1.1 1.6-0.2 3 0.2 3.9 1.6-2.8 2.1-2.6 1-5.5-0.9l-0.4-0.3q0.8-0.2 1.6-0.3c-0.8-0.1-1.4-0.9-3.2-2.1l-0.4-0.2c0.9-0.3 1.7-0.5 2.5-0.5 1.4-0.1 2.5 0.3 3.4 1.6zm6.2 2.2c-2.8 2.1-2.6 1-5.5-0.9l-0.4-0.2c0.9-0.3 1.7-0.5 2.5-0.5 1.4-0.1 2.5 0.3 3.4 1.6zm4.3 2.7l0.4 0.3q-0.8 0.2-1.6 0.4c0.9 0 1.5 0.8 3.2 2l0.4 0.3c-0.8 0.2-1.7 0.4-2.5 0.4-0.8 0.7-1.4 1-1.8 1.1 1.5-0.1 2.9 0.2 3.8 1.6-2.8 2.2-2.6 1.1-5.5-0.9l-0.4-0.2q0.8-0.3 1.6-0.4c-0.8 0-1.4-0.9-3.2-2l-0.4-0.3c0.9-0.3 1.8-0.5 2.6-0.5 0.8-0.6 1.3-0.9 1.8-1.1-1.6 0.2-2.9-0.1-3.9-1.6 1.1-0.8 1.7-1.1 2.2-1.1 0.9-0.1 1.5 0.8 3.3 2zm-4.2 0.5l0.4 0.3c-0.9 0.2-1.7 0.4-2.5 0.4-1.4 0.1-2.5-0.3-3.4-1.6 1.1-0.8 1.7-1.1 2.2-1.1 0.9-0.1 1.5 0.8 3.3 2zm10.3 5.1c-2.8 2.2-2.6 1.1-5.5-0.8l-0.4-0.3c0.9-0.3 1.8-0.5 2.6-0.5 1.3 0 2.5 0.4 3.3 1.6zm4.3 2.7l0.4 0.3q-0.8 0.3-1.6 0.4c0.9 0 1.5 0.9 3.2 2l0.5 0.3c-0.9 0.3-1.8 0.4-2.6 0.5-1.3 0-2.5-0.4-3.3-1.7 0.8-0.6 1.3-0.9 1.8-1.1-1.6 0.2-2.9-0.1-3.8-1.5 1-0.8 1.6-1.2 2.2-1.2 0.8 0 1.4 0.8 3.2 2zm-4.2 0.5l0.5 0.3c-0.9 0.3-1.8 0.4-2.6 0.5-1.3 0-2.5-0.4-3.3-1.7 1-0.8 1.6-1.1 2.2-1.1 0.8-0.1 1.4 0.8 3.2 2zm5 3.7c1.6 0.2 2.9 1 3.5 2.7-1.1 0.6-1.8 0.8-2.4 0.9 1.9 0.2 4.6 1.5 5.3 3.5-1.4 0.7-2.4 0-3-0.1-1-0.2-2.5-1.1-4.4-3l-0.4-0.4q1-0.1 1.9-0.1c-0.9-0.2-1.4-1.4-3.2-3.2l-0.5-0.4q0.9-0.1 1.7-0.1 0.8 0 1.5 0.2zm8.9 5.4c1.6 0.3 1.5 1.2 2.2 2.9-1.6 0.7-4.9-1.1-5.2-4.1q0.1 0 0.2 0c1 0 1.9 1.1 2.8 1.2zm1.8 7.4c-2.6 0.1-5-2-6.2-4.8 1-0.4 2.2 0.4 2.7 0.5 1.6 0 1.3 2 3.5 4.3zm4-0.5l0.4 0.5q-1 0.1-2 0c-1.8-0.2-2-1.1-2.8-3.1q0.7 0 1.2 0c2.4 0 1.7 0.8 3.2 2.6zm2.2 4.2c-1.2 0.1-2.6-0.1-3.6-0.3-1.6-0.2-2.5-0.8-3.1-2.6 1.1-0.5 3 0.1 3.6 0 1 0.3 1.3 1.1 3.1 2.9z"/>
		</g>
	</g>
</svg>