<svg version="1.2" baseProfile="tiny-ps" xmlns="http://www.w3.org/2000/svg" viewBox="0 0 960 640" width="900" height="600">
	<style>
		tspan { white-space:pre }
		.shp0 { fill: #032ea1 } 
		.shp1 { fill: #e00025 } 
		.shp2 { fill: #ffffff;stroke: #000000;stroke-linejoin:bevel;stroke-width: 1.536 } 
		.shp3 { fill: #ffffff;stroke: #000000;stroke-linejoin:bevel;stroke-width: 1.512 } 
		.shp4 { fill: #ffffff;stroke: #000000;stroke-width: 1.536 } 
		.shp5 { fill: #ffffff;stroke: #000000;stroke-width: 1.57 } 
		.shp6 { fill: none;stroke: #000000;stroke-width: 1.28 } 
		.shp7 { fill: none;stroke: #000000;stroke-width: 1.536 } 
		.shp8 { fill: #ffffff;stroke: #000000;stroke-linejoin:bevel;stroke-width: 1.654 } 
		.shp9 { fill: #ffffff;stroke: #000000;stroke-width: 1.672 } 
		.shp10 { fill: #ffffff;stroke: #000000;stroke-width: 1.669 } 
	</style>
	<path id="Layer" class="shp0" d="M-20 0L980 0L980 640L-20 640L-20 0Z" />
	<path id="Layer" class="shp1" d="M-20 160L980 160L980 480L-20 480L-20 160Z" />
	<g id="Layer">
		<g id="Layer">
			<path id="Layer" class="shp2" d="M389.86 299.99L571.94 299.99L571.94 370.05L389.86 370.05L389.86 299.99Z" />
			<path id="Layer" class="shp2" d="M562.55 338.68L568.28 338.68L568.28 365.07L562.55 365.07L562.55 338.68ZM389.86 325.64L571.94 325.64L571.94 333.78L389.86 333.78L389.86 325.64ZM389.86 314.6L571.94 314.6L571.94 321.78L389.86 321.78L389.86 314.6Z" />
			<path id="Layer" class="shp3" d="M389.86 303.58L571.94 303.58L571.94 310.54L389.86 310.54L389.86 303.58Z" />
			<path id="Layer" class="shp2" d="M437.8 338.68L443.53 338.68L443.53 365.07L437.8 365.07L437.8 338.68ZM516.18 338.68L521.92 338.68L521.92 365.07L516.18 365.07L516.18 338.68ZM391.3 338.68L397.04 338.68L397.04 365.07L391.3 365.07L391.3 338.68ZM402.55 338.68L408.28 338.68L408.28 365.07L402.55 365.07L402.55 338.68ZM414.55 338.68L420.28 338.68L420.28 365.07L414.55 365.07L414.55 338.68ZM426.55 338.68L432.28 338.68L432.28 365.07L426.55 365.07L426.55 338.68ZM527.06 338.68L532.8 338.68L532.8 365.07L527.06 365.07L527.06 338.68ZM539.06 338.68L544.8 338.68L544.8 365.07L539.06 365.07L539.06 338.68ZM551.06 338.68L556.8 338.68L556.8 365.07L551.06 365.07L551.06 338.68Z" />
			<path id="Layer" class="shp4" d="M318.64 373.74C321.46 372.3 324.67 368.96 325.72 365.22L634.63 365.22C635.68 368.96 638.9 372.3 641.71 373.74L318.64 373.74Z" />
		</g>
		<path id="Layer" fill-rule="evenodd" class="shp4" d="M483.43 193.34C483.43 193.34 483.66 186.75 479.83 186.68C476 186.76 476.23 193.34 476.23 193.34L483.43 193.34ZM503.42 280.6L503.42 271.74C503.55 267.31 507.84 266.99 507.96 263.76C507.96 263.76 508.52 258.92 507.24 256.71C505.5 263.19 502.35 262 502.35 259.34C502.35 257.01 504.14 254.85 507.8 249.21C508.98 247.4 508.25 241.75 506.61 239.73C505.97 244.64 505.25 247 503.13 247C501.85 247 500.8 246.16 500.8 243.7C500.8 240.57 502.92 238.99 503.96 236.14C505.18 232.81 504.34 229.42 502.32 227.53C501.45 232.38 501.71 234.31 499.56 234.31C495.22 232.94 499.56 226.65 500.48 225.07C501.29 222.04 499.05 219.53 499.05 219.53C497.67 223.83 497.23 224.19 495.74 223.79C493.86 223.28 494.1 220.5 496.39 218.24C497.84 216.82 497.69 214.71 496.13 213.01C494.5 216.2 491.88 215.77 492.27 213.83L493.64 207.03L466.03 207.03L467.28 214.06C467.09 215.87 465.09 216.05 463.53 213C461.98 214.7 461.83 216.82 463.27 218.24C465.57 220.49 465.81 223.28 463.93 223.78C462.44 224.18 462 223.83 460.62 219.53C460.62 219.53 458.12 223.22 459.18 225.06C460.11 226.65 464.45 232.93 460.11 234.31C457.96 234.31 458.21 232.38 457.35 227.53C455.33 229.42 454.49 232.81 455.71 236.14C456.75 238.98 458.87 240.56 458.87 243.7C458.87 246.16 457.82 246.99 456.53 246.99C454.42 246.99 453.69 244.64 453.06 239.73C451.41 241.75 450.69 247.4 451.86 249.21C455.53 254.85 457.32 257.01 457.32 259.34C457.32 262 454.16 263.19 452.43 256.71C451.15 258.92 451.7 263.76 451.7 263.76C451.83 266.99 456.12 267.31 456.24 271.74L456.24 280.6L503.42 280.6ZM491.87 206.97L492.5 201.97L467.16 201.97L467.8 206.97L491.87 206.97ZM490.17 201.86L490.71 197.75L468.95 197.75L469.49 201.86L490.17 201.86ZM486.72 197.61L487.08 193.5L472.58 193.5L472.95 197.61L486.72 197.61ZM525.78 373.74C522.54 372.49 517.82 369.06 517.82 365.62L517.82 326.75L522.04 321.38L437.6 321.38L441.64 326.75L441.64 365.63C441.64 369.07 438.4 372.49 435.16 373.74L525.78 373.74Z" />
		<path id="Layer" class="shp2" d="M452.61 338.68L458.35 338.68L458.35 365.07L452.61 365.07L452.61 338.68ZM501.12 338.68L506.86 338.68L506.86 365.07L501.12 365.07L501.12 338.68Z" />
		<path id="Layer" class="shp4" d="M436.08 277.13L436.08 321.38L522.52 321.38L522.52 311.85L522.64 277.13C519.11 278.51 518.49 281.72 518.49 281.72L518.49 300.56L440.49 300.56L440.49 281.72C440.49 281.72 439.62 278.52 436.08 277.13L436.08 277.13Z" />
		<path id="Layer" class="shp4" d="M510.79 373.74C507.96 372.49 501.81 369.06 501.81 365.62L501.81 322.12C502.41 319.69 505.71 318.26 507.82 316.75L450.51 316.75C453.24 318.19 456.28 319.39 457.36 322.12L457.36 365.63C457.36 369.07 452.5 372.49 449.68 373.74L510.79 373.74Z" />
		<path id="Layer" class="shp4" d="M518.48 317.21L518.48 285.87L510.63 285.87L510.63 282.81L448.48 282.81L448.48 285.87L440.63 285.87L440.63 317.21L518.48 317.21ZM498.4 373.74C495.64 372.49 491.6 369.06 491.6 365.62L491.6 328.48L493.88 325.11L465.57 325.11L467.85 328.48L467.85 365.63C467.85 369.07 463.81 372.49 461.05 373.74L498.4 373.74Z" />
		<path id="Layer" class="shp5" d="M472.56 325.11L486.91 325.11L486.91 373.71L472.56 373.71L472.56 325.11Z" />
		<path id="Layer" class="shp2" d="M494.44 314.42C494.47 311.22 503.78 311.08 508.57 308.35L451.04 308.35C455.83 311.08 464.92 311.3 464.92 314.42L466.87 320.63L490.68 321.59L494.44 314.42Z" />
		<path id="Layer" class="shp4" d="M505.68 280.6C505.68 272.76 506.01 269.74 508.42 269.74L508.42 294.67C502.52 296.81 498.3 304.35 498.3 304.35L461.16 304.35C461.16 304.35 456.95 296.81 451.04 294.67L451.04 269.74C454.01 269.74 454.03 272.9 454.03 280.6L505.68 280.6ZM508.42 277.38C508.42 268.39 516.18 267.38 516.18 267.38L516.18 275.38C513.23 275.26 511.8 277.91 511.8 281.85C511.8 285.8 514.18 285.86 514.18 285.86L514.18 308.57L508.42 308.57L508.42 277.38Z" />
		<path id="Layer" class="shp4" d="M451.08 277.38C451.08 268.39 443.32 267.38 443.32 267.38L443.32 275.38C446.27 275.26 447.69 277.91 447.69 281.85C447.69 285.8 445.31 285.86 445.31 285.86L445.31 308.57L451.07 308.57L451.08 277.38Z" />
		<g id="Layer">
			<path id="Layer" class="shp6" d="M466.37 215.45L493.78 215.45M463.12 224.01L496.6 224.01M459.88 234.39L499.72 234.39M456.48 247.08L503.74 247.08M455.4 261.54L504.08 261.54" />
			<path id="Layer" class="shp7" d="M440.63 308.73L518.48 308.73M465.33 308.74L494.19 308.74L494.19 319.35L465.33 319.35L465.33 308.74Z" />
		</g>
		<path id="Layer" fill-rule="evenodd" class="shp4" d="M498.04 285.24C493.25 290.98 493.69 300.73 493.75 306.47L466 306.47C466.06 300.73 466.5 290.98 461.72 285.24L498.04 285.24ZM477.32 219.43L473.51 217.47L473.51 211.88C475.07 212.34 476.81 212.53 476.98 215.01C477.52 211.47 478.5 211.65 480.03 210.27C481.56 211.65 482.54 211.47 483.08 215.01C483.25 212.53 485 212.34 486.55 211.87L486.55 217.47L482.75 219.43L477.32 219.43Z" />
		<path id="Layer" class="shp4" d="M477.06 228.62L470.75 224.27L470.75 219.12C472.96 219.63 475.44 219.84 475.69 222.56C476.46 218.68 477.85 216.68 480.03 215.17C482.21 216.68 483.6 218.68 484.37 222.56C484.62 219.84 487.1 219.63 489.32 219.12L489.32 224.27L483 228.62L477.06 228.62Z" />
		<path id="Layer" fill-rule="evenodd" class="shp4" d="M476.61 242.94L469.35 236.56L469.35 228.98C471.89 229.73 474.75 230.04 475.03 234.03C475.92 228.34 477.52 225.39 480.03 223.17C482.54 225.39 484.14 228.33 485.02 234.03C485.3 230.04 488.16 229.73 490.7 228.98L490.7 236.55L483.44 242.93L476.61 242.94ZM490 251.4L483.44 260.48L476 260.48L469.44 251.4L490 251.4ZM493.83 266.65C490.54 268.44 489.33 272.02 488.98 278.73L470.5 278.73C470.15 272.02 468.94 268.44 465.65 266.65L493.83 266.65Z" />
		<path id="Layer" class="shp2" d="M494.1 251.4L494.1 242.28C490.98 243.14 488.96 244.98 488.06 247.49C488.06 244.46 484.07 237.48 479.73 234C475.37 237.89 471.32 244.21 471.4 247.49C470.66 245.1 468.48 243.14 465.36 242.28L465.36 251.4L494.1 251.4Z" />
		<path id="Layer" class="shp2" d="M495.49 266.65L495.49 257.52C492.07 258.38 489.86 260.23 488.87 262.74C488.87 259.71 484.5 252.72 479.74 249.25C474.96 253.14 470.52 259.46 470.6 262.74C469.79 260.35 467.4 258.39 463.98 257.52L463.98 266.65L495.49 266.65Z" />
		<path id="Layer" class="shp2" d="M499.33 285.37L499.33 274.84C495.08 275.94 492.43 279.09 491.09 280.92C491.09 275.23 484.66 266.54 479.73 263.7C474.68 266.62 468.37 275.59 468.37 280.92C467 279.1 464.39 275.94 460.13 274.84L460.13 285.37L499.33 285.37Z" />
		<path id="Layer" class="shp2" d="M497.03 308.73L497.03 297.91C493.27 299.38 492.15 303 490.97 305.46C491.43 294.48 484.79 282.69 479.73 279.7C474.67 282.69 467.9 294.74 468.49 305.46C467.28 303.01 466.19 299.38 462.44 297.91L462.44 308.73L497.03 308.73Z" />
		<path id="Layer" class="shp4" d="M494.4 325.11L494.4 314.29C490.47 315.23 490.23 316.68 488.98 319.1C489.44 312.55 484.8 305.07 479.74 302.08C474.68 305.07 470.04 312.55 470.5 319.1C469.25 316.68 469.1 315.23 465.08 314.29L465.08 325.11L494.4 325.11Z" />
		<g id="a">
			<path id="Layer" class="shp4" d="M325.72 365.22L325.72 332.52C324.65 328.35 321.12 324.67 318.46 323.93L318.46 295.14L324.44 298.38L331.28 328.48L331.28 365.22L325.72 365.22Z" />
			<path id="Layer" class="shp4" d="M325.72 365.35L325.72 332.52C324.65 328.36 321.12 324.67 318.46 323.94L318.46 293.15C322.48 293.15 324.44 298.38 324.44 298.38L331.28 328.48L331.28 365.1L325.72 365.35Z" />
			<path id="Layer" class="shp4" d="M321.47 373.74C324.24 372.49 328.27 369.06 328.27 365.62L328.27 324.75L326.37 321.38L396 321.38L393.29 324.75L393.29 365.62C393.29 369.06 396.06 372.49 398.82 373.74L321.47 373.74Z" />
			<path id="Layer" class="shp4" d="M384.77 373.74C382 372.49 377.97 369.06 377.97 365.62L377.97 326.75L383.76 321.37L336.42 321.38L342.21 326.75L342.21 365.62C342.21 369.06 338.18 372.49 335.41 373.74L384.77 373.74Z" />
			<path id="Layer" class="shp4" d="M378.13 373.74C375.36 372.49 371.33 369.06 371.33 365.62L371.33 330.48L375.12 325.1L345.05 325.1L348.84 330.48L348.84 365.62C348.84 369.06 344.81 372.49 342.04 373.74L378.13 373.74Z" />
			<path id="Layer" class="shp4" d="M352.9 325.11L367.27 325.11L367.27 373.74L352.9 373.74L352.9 325.11Z" />
			<path id="Layer" class="shp2" d="M333.35 338.68L339.08 338.68L339.08 365.07L333.35 365.07L333.35 338.68ZM382.55 338.68L388.28 338.68L388.28 365.07L382.55 365.07L382.55 338.68ZM328.45 294.17L335.36 294.17L335.36 321.22L328.45 321.22L328.45 294.17ZM328.45 289.08L335.32 289.08L335.32 294.1L328.45 294.1L328.45 289.08Z" />
			<path id="Layer" class="shp8" d="M385.3 299.99L395.16 299.99L395.16 320.88L385.3 320.88L385.3 299.99Z" />
			<path id="Layer" fill-rule="evenodd" class="shp4" d="M335.25 321.02L335.25 274.71C337.22 274.71 337.53 281.5 342.05 281.5C344.4 281.5 344.15 278.69 342.83 276.4C341.66 274.37 340.21 271.57 342.18 266.35C343.53 270.34 347.16 271.61 346.49 269.11C345.34 264.8 342.02 264.1 344.51 257.42C345.37 262.99 348.95 262.75 348.08 259.51C347.1 255.86 345.08 254.37 347.57 249.22C348.97 255.06 350.86 254.72 350.86 251.1C350.86 245.74 350.65 239.97 357.58 237.82C357.58 237.82 357.98 232.91 360.48 232.91C362.98 232.91 363.38 237.82 363.38 237.82C370.31 239.97 370.1 245.74 370.1 251.1C370.1 254.72 371.99 255.07 373.39 249.23C375.88 254.37 373.86 255.86 372.88 259.51C372.01 262.75 375.59 262.99 376.45 257.42C378.94 264.1 375.62 264.81 374.47 269.11C373.8 271.61 377.43 270.34 378.78 266.35C380.75 271.57 379.3 274.37 378.13 276.4C376.8 278.69 376.55 281.5 378.91 281.5C383.43 281.5 383.74 274.71 385.71 274.71L385.71 321.02L335.25 321.02ZM324.43 286.04C325.64 285.11 327 285.22 328.44 285.95L328.44 321.37L324.43 321.37L324.43 286.04Z" />
			<path id="Layer" class="shp4" d="M324.55 308.9C329.53 311.45 334.46 314.4 335.71 321.37L324.55 321.37L324.55 308.9ZM393.62 298.33L393.62 321.38L396.88 321.38L396.88 298.27C395.86 297.79 394.47 297.72 393.62 298.33Z" />
			<path id="Layer" class="shp4" d="M396.88 308.73C391.9 311.27 386.97 314.22 385.72 321.2L396.88 321.2L396.88 308.73Z" />
			<path id="Layer" class="shp4" d="M363.96 254.89L366.86 252.45L366.86 249.32C365.8 249.43 365.22 249.79 364.43 250.82C363.76 248.75 362.3 247.13 360.33 246.13C358.36 247.13 356.9 248.68 356.23 250.75C355.45 249.72 354.87 249.43 353.81 249.32L353.81 252.45L356.71 254.89L363.96 254.89Z" />
			<path id="Layer" class="shp4" d="M365.51 262.71L366.86 259.79L366.86 255.73C365.79 255.83 365.21 256.2 364.43 257.25C363.76 255.15 362.3 253.51 360.33 252.49C358.36 253.51 356.9 255.07 356.23 257.17C355.45 256.13 354.87 255.84 353.8 255.73L353.8 259.79L355.16 262.71L365.51 262.71Z" />
			<path id="Layer" class="shp4" d="M365.72 273.32L370.03 268.06L370.03 262.87C368.45 263.05 367.59 263.68 366.42 265.44C365.43 261.89 363.26 261.11 360.33 259.38C357.41 261.11 355.24 261.76 354.24 265.31C353.08 263.55 352.22 263.05 350.64 262.87L350.64 268.06L354.95 273.32L365.72 273.32Z" />
			<path id="Layer" class="shp4" d="M366.98 283.74C366.98 283.74 372 279.35 372.3 276.95L372.3 271.4C370.36 271.63 368.51 272.13 367.08 274.41C365.85 269.82 363.94 268.54 360.34 266.31C356.73 268.54 354.82 269.82 353.6 274.41C352.16 272.13 350.32 271.63 348.37 271.4L348.37 276.94C349 279.35 353.69 283.73 353.69 283.73L366.98 283.74Z" />
			<path id="Layer" class="shp4" d="M369.12 302.97C369.12 302.97 376 295.35 376.16 292.38L376.16 283.73C373.59 284.09 371.15 285.86 369.25 289.41C367.63 282.25 365.11 277.26 360.34 273.79C355.57 277.26 353.04 282.25 351.43 289.41C349.52 285.86 347.09 284.09 344.51 283.73L344.51 292.38C345 295.35 351.55 302.97 351.55 302.97L369.12 302.97Z" />
			<path id="Layer" class="shp4" d="M369.12 314.34C369.12 314.34 375 308.36 376.16 305.76L376.16 297.11C373.59 297.47 371.15 299.24 369.25 302.79C367.63 295.63 365.11 291.53 360.34 288.06C355.57 291.53 353.04 295.63 351.43 302.79C349.52 299.23 347.09 297.46 344.51 297.11L344.51 305.76C346 308.35 351.55 314.34 351.55 314.34L369.12 314.34Z" />
			<path id="Layer" class="shp4" d="M371.49 320.95C369.77 313.48 368.3 307.94 360.03 302.33C351.76 307.94 350.29 313.48 348.57 320.95L371.49 320.95Z" />
			<path id="Layer" class="shp4" d="M375.75 325.11L375.75 314.29C371.99 315.76 368.6 317.94 367.35 320.36C365.95 314.36 363.26 311.71 359.9 308.08C356.55 311.71 354.3 314.36 352.9 320.36C351.65 317.94 348.26 315.76 344.5 314.29L344.5 325.11L375.75 325.11Z" />
		</g>
		<g id="a">
			<path id="Layer" class="shp4" d="M634.32 365.22L634.32 332.52C635.39 328.35 638.92 324.67 641.58 323.93L641.58 295.14L635.6 298.38L628.76 328.48L628.76 365.22L634.32 365.22Z" />
			<path id="Layer" class="shp4" d="M634.32 365.35L634.32 332.52C635.39 328.36 638.92 324.67 641.58 323.94L641.58 293.15C637.56 293.15 635.6 298.38 635.6 298.38L628.76 328.48L628.76 365.1L634.32 365.35Z" />
			<path id="Layer" class="shp4" d="M638.57 373.74C635.8 372.49 631.77 369.06 631.77 365.62L631.77 324.75L633.67 321.38L564.03 321.38L566.75 324.75L566.75 365.62C566.75 369.06 563.98 372.49 561.21 373.74L638.57 373.74Z" />
			<path id="Layer" class="shp4" d="M575.27 373.74C578.04 372.49 582.07 369.06 582.07 365.62L582.07 326.75L576.28 321.37L623.62 321.38L617.82 326.75L617.82 365.62C617.82 369.06 621.86 372.49 624.62 373.74L575.27 373.74Z" />
			<path id="Layer" class="shp4" d="M581.91 373.74C584.68 372.49 588.71 369.06 588.71 365.62L588.71 330.48L584.92 325.1L614.99 325.1L611.2 330.48L611.2 365.62C611.2 369.06 615.23 372.49 618 373.74L581.91 373.74Z" />
			<path id="Layer" class="shp4" d="M607.14 325.11L592.77 325.11L592.77 373.74L607.14 373.74L607.14 325.11Z" />
			<path id="Layer" class="shp2" d="M626.69 338.68L620.95 338.68L620.95 365.07L626.69 365.07L626.69 338.68ZM577.49 338.68L571.75 338.68L571.75 365.07L577.49 365.07L577.49 338.68ZM631.59 294.17L624.68 294.17L624.68 321.22L631.59 321.22L631.59 294.17ZM631.59 289.08L624.72 289.08L624.72 294.1L631.59 294.1L631.59 289.08Z" />
			<path id="Layer" class="shp8" d="M574.74 299.99L564.88 299.99L564.88 320.88L574.74 320.88L574.74 299.99Z" />
			<path id="Layer" fill-rule="evenodd" class="shp4" d="M574.33 321.02L574.33 274.71C576.3 274.71 576.61 281.5 581.13 281.5C583.48 281.5 583.23 278.69 581.91 276.4C580.74 274.37 579.29 271.57 581.26 266.35C582.61 270.34 586.24 271.61 585.57 269.11C584.42 264.81 581.1 264.1 583.59 257.42C584.45 262.99 588.03 262.75 587.16 259.51C586.18 255.86 584.16 254.37 586.65 249.23C588.05 255.07 589.93 254.72 589.93 251.1C589.93 245.74 589.73 239.97 596.66 237.82C596.66 237.82 597.06 232.91 599.56 232.91C602.06 232.91 602.46 237.82 602.46 237.82C609.39 239.97 609.18 245.74 609.18 251.1C609.18 254.72 611.07 255.06 612.47 249.22C614.96 254.37 612.94 255.86 611.96 259.51C611.09 262.75 614.66 262.99 615.53 257.42C618.02 264.1 614.7 264.8 613.55 269.11C612.88 271.61 616.51 270.34 617.86 266.35C619.83 271.57 618.38 274.37 617.21 276.4C615.88 278.69 615.64 281.5 617.99 281.5C622.51 281.5 622.82 274.71 624.79 274.71L624.79 321.02L574.33 321.02ZM635.61 321.37L631.6 321.37L631.6 285.95C633.04 285.22 634.4 285.11 635.61 286.04L635.61 321.37Z" />
			<path id="Layer" class="shp4" d="M635.49 308.9C630.51 311.45 625.57 314.4 624.33 321.37L635.49 321.37L635.49 308.9ZM566.42 298.33L566.42 321.38L563.16 321.38L563.16 298.27C564.18 297.79 565.57 297.72 566.42 298.33Z" />
			<path id="Layer" class="shp4" d="M563.16 308.73C568.13 311.27 573.07 314.22 574.32 321.2L563.16 321.2L563.16 308.73Z" />
			<path id="Layer" class="shp4" d="M596.08 254.89L593.18 252.45L593.18 249.32C594.24 249.43 594.82 249.79 595.61 250.82C596.27 248.75 597.74 247.13 599.71 246.13C601.67 247.13 603.14 248.68 603.81 250.75C604.59 249.72 605.17 249.43 606.23 249.32L606.23 252.45L603.33 254.89L596.08 254.89Z" />
			<path id="Layer" class="shp4" d="M594.53 262.71L593.18 259.79L593.18 255.73C594.24 255.83 594.82 256.2 595.61 257.25C596.28 255.15 597.74 253.51 599.71 252.49C601.68 253.51 603.14 255.07 603.81 257.17C604.59 256.13 605.17 255.84 606.23 255.73L606.23 259.79L604.88 262.71L594.53 262.71Z" />
			<path id="Layer" class="shp4" d="M594.32 273.32L590.01 268.06L590.01 262.87C591.59 263.05 592.45 263.68 593.61 265.44C594.61 261.89 596.78 261.11 599.7 259.38C602.62 261.11 604.8 261.76 605.79 265.31C606.96 263.55 607.82 263.05 609.39 262.87L609.39 268.06L605.08 273.32L594.32 273.32Z" />
			<path id="Layer" class="shp4" d="M593.06 283.74C593.06 283.74 588.04 279.35 587.74 276.95L587.74 271.4C589.68 271.63 591.52 272.13 592.96 274.41C594.19 269.82 596.1 268.54 599.7 266.31C603.31 268.54 605.22 269.82 606.44 274.41C607.88 272.13 609.72 271.63 611.67 271.4L611.67 276.94C611.04 279.35 606.35 283.73 606.35 283.73L593.06 283.74Z" />
			<path id="Layer" class="shp4" d="M590.92 302.97C590.92 302.97 584.04 295.35 583.88 292.38L583.88 283.73C586.45 284.09 588.89 285.86 590.79 289.41C592.41 282.25 594.93 277.26 599.7 273.79C604.47 277.26 607 282.25 608.61 289.41C610.52 285.86 612.95 284.09 615.53 283.73L615.53 292.38C615.03 295.35 608.49 302.97 608.49 302.97L590.92 302.97Z" />
			<path id="Layer" class="shp4" d="M590.92 314.34C590.92 314.34 585.03 308.36 583.88 305.76L583.88 297.11C586.45 297.47 588.89 299.24 590.79 302.79C592.41 295.63 594.93 291.53 599.7 288.06C604.47 291.53 607 295.63 608.61 302.79C610.52 299.23 612.95 297.46 615.53 297.11L615.53 305.76C614.03 308.35 608.49 314.34 608.49 314.34L590.92 314.34Z" />
			<path id="Layer" class="shp4" d="M588.55 320.95C590.26 313.48 591.74 307.94 600.01 302.33C608.28 307.94 609.75 313.48 611.47 320.95L588.55 320.95Z" />
			<path id="Layer" class="shp4" d="M584.29 325.11L584.29 314.29C588.04 315.76 591.44 317.94 592.69 320.36C594.09 314.36 596.78 311.71 600.13 308.08C603.49 311.71 605.73 314.36 607.13 320.36C608.39 317.94 611.78 315.76 615.53 314.29L615.53 325.11L584.29 325.11Z" />
		</g>
		<g id="Layer">
			<path id="Layer" class="shp4" d="M310.49 373.3L310.49 383.18L649.51 383.18L649.51 373.3L310.49 373.3ZM304.35 383.27L304.35 396.15L655.64 396.15L655.64 383.27L304.35 383.27ZM655.64 396.15L304.35 396.25L294.08 396.15L294.08 413.15L665.92 413.15L665.92 396.15L655.64 396.15ZM283.74 413.26L283.74 433.27L676.27 433.27L676.26 413.26L283.74 413.26ZM676.27 433.27L676.27 433.3L283.74 433.3L283.74 433.27L273.39 433.27L273.39 453.29L686.61 453.29L686.61 433.27L676.27 433.27Z" />
			<path id="Layer" class="shp9" d="M347.28 373.35L372.89 373.35L372.89 453.25L347.28 453.25L347.28 373.35Z" />
			<path id="Layer" class="shp10" d="M352.95 373.35L367.21 373.35L367.21 453.25L352.95 453.25L352.95 373.35Z" />
			<path id="Layer" class="shp9" d="M466.76 373.35L492.36 373.35L492.36 453.25L466.76 453.25L466.76 373.35Z" />
			<path id="Layer" class="shp10" d="M472.6 373.35L486.86 373.35L486.86 453.25L472.6 453.25L472.6 373.35Z" />
			<path id="Layer" class="shp9" d="M586.93 373.35L612.54 373.35L612.54 453.25L586.93 453.25L586.93 373.35Z" />
			<path id="Layer" class="shp10" d="M592.6 373.35L606.86 373.35L606.86 453.25L592.6 453.25L592.6 373.35Z" />
		</g>
		<g id="Layer">
			<path id="Layer" class="shp7" d="M325.72 365.22L634.64 365.22M352.69 443.21L367.48 443.21M352.69 433.21L367.48 433.21M352.69 423.21L367.48 423.21M352.69 413.21L367.48 413.21M352.69 403.21L367.48 403.21M352.69 393.21L367.48 393.21M352.69 383.21L367.48 383.21M472.66 443.22L486.43 443.22M472.66 433.22L486.43 433.22M472.66 423.21L486.43 423.21M472.66 413.21L486.43 413.21M472.66 403.2L486.43 403.2M472.66 393.2L486.43 393.2M472.66 383.19L486.43 383.19M592.34 443.21L607.13 443.21M592.34 433.21L607.13 433.21M592.34 423.21L607.13 423.21M592.34 413.21L607.13 413.21M592.34 403.21L607.13 403.21M592.34 393.21L607.13 393.21M592.34 383.21L607.13 383.21" />
		</g>
	</g>
</svg>