<svg version="1.2" baseProfile="tiny-ps" xmlns="http://www.w3.org/2000/svg" width="900" height="600"><style>tspan{white-space:pre }.shp4{fill: #ce1126 }.shp5{fill: #002369 }.shp6{fill: none;stroke: #000000;stroke-width: 2.4 }.shp7{fill: #ffffff }.shp8{fill: #f5c819 }.shp9{fill: #0f692d }.shp10{fill: none;stroke: #0f692d;stroke-width: 3.624 }.shp11{fill: none;stroke: #000000;stroke-linecap:round;stroke-linejoin:round;stroke-width: 0.576 }.shp12{fill: none;stroke: #000000;stroke-width: 0.264 }.shp13{fill: none;stroke: #000000;stroke-width: 0.24 }.shp14{fill: #cc0000 }.shp15{fill: #000000 }.shp16{fill: none;stroke: #002369;stroke-linecap:round;stroke-linejoin:round;stroke-width: 0.588 }.shp17{fill: none;stroke: #000000;stroke-linecap:round;stroke-width: 0.3 }.shp19{fill: none;stroke: #000000;stroke-linecap:round;stroke-width: 0.456 }.shp20{fill: none;stroke: #000000;stroke-width: 0.3 }.shp21{fill: none;stroke: #000000;stroke-linecap:square;stroke-linejoin:round;stroke-width: 0.456 }.shp22{fill: none;stroke: #000000;stroke-width: 0.456 }.shp23{fill: none;stroke: #000000;stroke-width: 0.492 }.shp24{fill: #ffdd28 }.shp25{fill: none;stroke: #000000;stroke-linecap:round;stroke-width: 0.492 }.shp26{fill: none;stroke: #000000;stroke-linecap:square;stroke-width: 0.492 }</style><path d="M0 0h450v300H0V0z" fill="#00247d"/><g fill="none"><path d="M450 0L0 300M0 0l450 300" stroke="#fff" stroke-width="51.992"/><path d="M225 0v300M0 150h450" stroke="#fff" stroke-width="86.653"/><path d="M225 0v300M0 150h450" stroke="#cf142b" stroke-width="51.992"/></g><path class="shp4" d="M0 300h900v300H0V300zM450 0h450v600H450V0z"/><path class="shp5" d="M562 334h113v-92H561v89l1 1v2z"/><path class="shp6" d="M562 334h113v-92H561v89l1 1v2z"/><path class="shp7" d="M788 334H562c5 41 56 91 113 115 57-24 108-74 113-115z"/><path class="shp6" d="M788 334H562c5 41 56 91 113 115 57-24 108-74 113-115z"/><path class="shp5" d="M675 242v92h113v-2l1-1v-2-87H675z"/><path class="shp6" d="M675 242v92h113v-2l1-1v-2-87H675z"/><path class="shp8" d="M675 151v91h114v-91H675z"/><path class="shp6" d="M675 151v91h114v-91H675z"/><path class="shp4" d="M561 242h114v-91H561v91z"/><path class="shp6" d="M561 242h114v-91H561v91z"/><path class="shp9" d="M675 339l-5 7-1-1v13l-12-7v2l-8 1 3 7-2 1 12 7-5 3 1 1-3 6 8 1v2l10-6v62h4v-62l11 6v-2l7-1-3-6 1-1-5-3 12-7-2-1 3-7-8-1v-2l-12 7v-13l-1 1-5-7zM733 400h-2v7l-7-3v1l-7-10-3-2h-12l1-2-6-4 6-4-1-1h6l-7-12h2l1-8 7 4 1-2 7 12 7-12 1 2 7-4 1 8h2l-7 12h14l-1 2 7 4-7 5 1 2h-14l3 5zM617 400h2v7l7-3v1l7-10 3-2h12l-1-2 6-4-6-4 1-1h-6l7-12h-2l-1-8-7 3-1-1-7 11-7-11-1 1-7-3-1 8h-2l7 12h-14l1 2-7 4 7 5-1 1h14l-3 6z"/><path class="shp10" d="M675 413c-20 0-37-12-42-21M675 413c20 0 37-12 42-21"/><path class="shp11" d="M675 344v29M691 377l-38-21M659 378l38-22M671 348l4 7 4-7M654 362h9l-5-7M696 362h-9l5-7M690 372h-9l4 7M660 372h9l-5 7M732 367l-15 24M729 403l-23-37M701 387l44 1M726 368v8l7-4M705 372l7 4v-8M741 392l-8-4 8-4M730 398l-7-4v8M705 383l7 5-7 4M618 366l15 25M621 403l23-37M649 387l-44 1M624 368v8l-7-4M645 372l-7 4v-8M609 392l8-4-8-4M620 398l7-4v8M645 383l-7 5 7 3"/><path class="shp4" d="M732 170l1-1v-1-1-1c2 2 4 0 4-2-2 2-5 1-5-2 0-2 1-3 2-2v-1h-1v-1-1h-1v-1l-1 1v2h-1-1v1c2-1 2 0 2 2 0 3-3 4-4 2-1 2 2 5 4 2v3l1 1zM682 158c1-1 3 1 3 2 0-3 4-3 5-1-3-1-4 2-2 5 1 1 3 2 3 0v2l1 1v1h-1v-1h-1-1-1c2 0 1-2 0-3-2-2-5-1-5 2-2-1-2-5 1-5-1 0-3-2-2-3zM694 197c0-2-3-2-4-1 3-2 1-5-2-4 2 1 1 4-2 4-2 0-3 0-2-2h-1v2h-1-1l-1 1h3v2h1c-1-1 0-2 2-2 3 0 4 3 2 5 3 0 5-2 2-5h4zM782 158c-1-1-4 1-4 2 0-3-3-3-4-1 2-1 4 2 2 5-2 1-3 2-3 0l-1 1h1v1l-1 1v1l1-1h3c-2 0-1-2 0-3 2-2 5-1 5 2 2-1 1-5-2-5 2 0 3-2 3-3zM769 197c1-2 4-2 5-1-3-2-1-5 2-4-2 1-1 4 2 4 1 0 3 0 2-2l1 1v1h2v1h-2v2h-1c1-2-1-2-2-2-3 0-4 3-2 4-3 1-5-2-2-4h-5zM732 223l1 1v3c2-2 4 0 4 2-2-2-5-1-5 2 0 2 1 4 2 2v1l-1 1v1h-1v1l-1-1v-1h-1v-1h-1v-1c2 2 2 0 2-2 0-3-3-4-4-2-1-2 2-4 4-2v-1-1-1l1-1zM682 235c1 1 3-1 3-2 0 3 4 4 5 1-3 1-4-2-2-4 1-1 3-3 3 0v-1-1-1h1v-1-1l-1 1h-1v1l-1-1h-1c2 0 1 2 0 3-2 2-5 1-5-2-2 2-2 5 1 5-1 0-3 2-2 3zM782 235c-1 1-4-1-4-2 0 3-3 4-4 1 2 1 4-2 2-4-2-1-3-3-3 0v-1h-1l1-1v-1h-1v-1-1 1h2v0h2c-2 0-1 2 0 3 2 2 5 1 5-2 2 2 1 5-2 5 2 0 3 2 3 3z"/><path class="shp4" d="M732 233h-48v-73h95v73h-47v-3h44v-66h-88v66h44v3z"/><path class="shp4" d="M729 185l-2-1-2-1-1-1-1-2-4-6-2-2v-3h-2v1l-2-1v1l-2 1 1 2h1v-1h1v2l-2 1v2l2-1h2v2l1 1v-1 2l1-1v3l1-2-1 4h1v-1 3l1-1v2l1-1v2l2 2c1 1 6-3 6-5z"/><path class="shp12" d="M729 185l-2-1-2-1-1-1-1-2-4-6-2-2v-3h-2v1l-2-1v1l-2 1 1 2h1v-1h1v2l-2 1v2l2-1h2v2l1 1v-1 2l1-1v3l1-2-1 4h1v-1 3l1-1v2l1-1v2l2 2c1 1 6-3 6-5z"/><path class="shp4" d="M736 201h-3-1-1-1-1c-1 1-2 3-4 1v-2c-2 0-3 2-1 3-1 0-2 1-4-1 0 1 2 3 4 2-2 1-1 3-3 2 1 2 2 1 3-1v2h2v1l1 1v2h-2-3-1l-1-1-1-1c0-1 0-2-1-1l-1 1h-2l1 2h-1v2l2-1v1h2l1-1-1 1-2 2h1v1h1l1-2 1-1 2 2 1-1v1l1 1 1-1 2 2 1-2c0 1 1 2 2 1v-1h1l2-1-3-1v-2-1l1-2h3c3 0 3-7 1-7z"/><path class="shp12" d="M736 201h-3-1-1-1-1c-1 1-2 3-4 1v-2c-2 0-3 2-1 3-1 0-2 1-4-1 0 1 2 3 4 2-2 1-1 3-3 2 1 2 2 1 3-1v2h2v1l1 1v2h-2-3-1l-1-1-1-1c0-1 0-2-1-1l-1 1h-2l1 2h-1v2l2-1v1h2l1-1-1 1-2 2h1v1h1l1-2 1-1 2 2 1-1v1l1 1 1-1 2 2 1-2c0 1 1 2 2 1v-1h1l2-1-3-1v-2-1l1-2h3c3 0 3-7 1-7z"/><path class="shp4" d="M757 171l-1 1h-1-1l-1-1c0-1 0-2-2-2h1v-1-1-1c-1 3-1 2-4 3-4 1-5 4-5 8 0 3 1 5 4 8s5 5 5 9l-3-3c-2-1-2-2-1-3h-1l-1 1v1l1 1-1 1c-1 1-2 0-3-1 0 2 1 3 2 3-2 1-2 4 0 5-1-2 0-3 1-4 0 2 2 2 2 1-1 0-1-3 1-3s3 2 3 4v2l-1 1-2 1-2 1c-3-1-4-2-5-4l-1-1v-1-1l-5-7c0-3-11 0-11 0l-3 2-6 5h-1-1v1h-1-2-1l-1-1c-1 1-1 2 1 2h1l-2 1-2 1c1 2 1 1 2 1l1-1 2-1v2h-1v2h2v-1-1-1h1v-1l1 1v2c1-1 2-1 1-3v1h1v-1l1 1v-1h1l1 1v-2 1h2l-1-1 2 1-1-2 1 1h1v-1l1 1h1l1-1v1l2-1 1 1v1h1l5 2-1 4v4l1 1c1 2 2 3 1 4s-3 1-2 4l1-2 1 3v-1-1h3l-2-2 3 1 2-2v2l1 1-1 1-1 1v1l-1 1-1-1c-1 0-2 1-1 2v1 2h1l2 1v-2l2-2v1l1 1c-1 1-1 2 1 1l1-2-1-1v-1l-1-1c2 1 2 1 3-1h-2c2 0 3-1 3-2h-1l2-2c-1 1-1-1-2-1l2-1h-2l3-2h-1-1l-1-2h2-1l-1-1v-1-1l-4 3-1-1-1-1v-1-2h2l1 1h3c4-1 7-4 7-9-1-4-2-7-6-10-3-4-4-5-4-9 0-3 1-5 3-6h1v1h1l-1 1v4l2-1-1 1-1 1v2c1 2 3 2 4 2-2-2 0-3 0-5 1 2 2 3 3 2l-1-3v-2c2 1 2 0 2-2z"/><path class="shp12" d="M757 171l-1 1h-1-1l-1-1c0-1 0-2-2-2h1v-1-1-1c-1 3-1 2-4 3-4 1-5 4-5 8 0 3 1 5 4 8s5 5 5 9l-3-3c-2-1-2-2-1-3h-1l-1 1v1l1 1-1 1c-1 1-2 0-3-1 0 2 1 3 2 3-2 1-2 4 0 5-1-2 0-3 1-4 0 2 2 2 2 1-1 0-1-3 1-3s3 2 3 4v2l-1 1-2 1-2 1c-3-1-4-2-5-4l-1-1v-1-1l-5-7c0-3-11 0-11 0l-3 2-6 5h-1-1v1h-1-2-1l-1-1c-1 1-1 2 1 2h1l-2 1-2 1c1 2 1 1 2 1l1-1 2-1v2h-1v2h2v-1-1-1h1v-1l1 1v2c1-1 2-1 1-3v1h1v-1l1 1v-1h1l1 1v-2 1h2l-1-1 2 1-1-2 1 1h1v-1l1 1h1l1-1v1l2-1 1 1v1h1l5 2-1 4v4l1 1c1 2 2 3 1 4s-3 1-2 4l1-2 1 3v-1-1h3l-2-2 3 1 2-2v2l1 1-1 1-1 1v1l-1 1-1-1c-1 0-2 1-1 2v1 2h1l2 1v-2l2-2v1l1 1c-1 1-1 2 1 1l1-2-1-1v-1l-1-1c2 1 2 1 3-1h-2c2 0 3-1 3-2h-1l2-2c-1 1-1-1-2-1l2-1h-2l3-2h-1-1l-1-2h2-1l-1-1v-1-1l-4 3-1-1-1-1v-1-2h2l1 1h3c4-1 7-4 7-9-1-4-2-7-6-10-3-4-4-5-4-9 0-3 1-5 3-6h1v1h1l-1 1v4l2-1-1 1-1 1v2c1 2 3 2 4 2-2-2 0-3 0-5 1 2 2 3 3 2l-1-3v-2c2 1 2 0 2-2z"/><path class="shp5" d="M733 178h-2-1-1c-1 0-4-1-3-3l-1 1v1l1 1 3 1 4 1v-2z"/><path class="shp13" d="M733 178h-2-1-1c-1 0-4-1-3-3l-1 1v1l1 1 3 1 4 1v-2z"/><path class="shp14" d="M729 177v1l1-1h-1z"/><path class="shp12" d="M729 177v1l1-1h-1z"/><path class="shp14" d="M729 179v2h1v-1l-1-1z"/><path class="shp12" d="M729 179v2h1v-1l-1-1z"/><path class="shp4" d="M735 170v1h-1v1h-3l-2 1h-1v1 2 1h2l2-1v3h1l-1 1h-1-3v2h5l-2 1-2 1-1 1h-1-1l-1 1h-1l-1-1v1l1 1h1l-1 1v1l-2 1c2 0 3 0 4-2l2-1-1 1-2 2 3-1 1-1h1l-1 1-1 2h2l1-1-1 2-1 1h2l1-1v-1l1-1v-1 3h-1v1l2-2v-1-1l1 2 1 2v-4 3h3l-1-4c0 2 1 3 3 2-1 0-2-1-1-2l1-1-1-1v-1-1l2-1-1-1-1-1v-1l2-1-2-1-1-3 1-1v-1l-2 1v-1l-1-1h-1-1v-2z"/><path class="shp12" d="M735 170v1h-1v1h-3l-2 1h-1v1 2 1h2l2-1v3h1l-1 1h-1-3v2h5l-2 1-2 1-1 1h-1-1l-1 1h-1l-1-1v1l1 1h1l-1 1v1l-2 1c2 0 3 0 4-2l2-1-1 1-2 2 3-1 1-1h1l-1 1-1 2h2l1-1-1 2-1 1h2l1-1v-1l1-1v-1 3h-1v1l2-2v-1-1l1 2 1 2v-4 3h3l-1-4c0 2 1 3 3 2-1 0-2-1-1-2l1-1-1-1v-1-1l2-1-1-1-1-1v-1l2-1-2-1-1-3 1-1v-1l-2 1v-1l-1-1h-1-1v-2z"/><path class="shp12" d="M732 175v1l1 1M740 180h-1v-1h-1v-1M740 184l-1-1M740 188v-1-1l-1-1M738 188v-2M732 184l-3 1-1 1h-1v1h-1-1M733 197l1 1 1 1 1 1v1M729 196h1M713 170v1h1l1 1v1M715 170v1h1v1M751 175v-2M751 178c0 1 0 2 2 2"/><path class="shp15" d="M731 174v-1l1 1h-1-1 1z"/><path class="shp12" d="M731 174v-1l1 1h-1-1 1zM736 174h2v1h1"/><path class="shp5" d="M717 169l-2-2v2h2z"/><path class="shp13" d="M717 169l-2-2v2h2z"/><path class="shp5" d="M714 169h-1l-1-1v1h-1l2 1 1-1z"/><path class="shp13" d="M714 169h-1l-1-1v1h-1l2 1 1-1z"/><path class="shp5" d="M711 171l-2 1h3l-1-1z"/><path class="shp13" d="M711 171l-2 1h3l-1-1z"/><path class="shp5" d="M712 176l-2-1c0 2 1 2 2 2v-1z"/><path class="shp13" d="M712 176l-2-1c0 2 1 2 2 2v-1z"/><path class="shp5" d="M709 195l-2 2 1-1 1 1v-1-1z"/><path class="shp13" d="M709 195l-2 2 1-1 1 1v-1-1z"/><path class="shp5" d="M707 199v3l1-2-1-1z"/><path class="shp13" d="M707 199v3l1-2-1-1z"/><path class="shp5" d="M711 202h-1v1l1 1 1-2-1-1v1z"/><path class="shp13" d="M711 202h-1v1l1 1 1-2-1-1v1z"/><path class="shp12" d="M744 209h2v2M737 208l2 2M717 209h1v1l1 1M716 211h2"/><path class="shp5" d="M718 208h-3 2v1l1-1z"/><path class="shp13" d="M718 208h-3 2v1l1-1z"/><path class="shp5" d="M716 209c-1 0-3 0-2 2h2v-1-1z"/><path class="shp13" d="M716 209c-1 0-3 0-2 2h2v-1-1z"/><path class="shp5" d="M715 211c-1 0-2 0-2 2h1v-1h1v-1z"/><path class="shp13" d="M715 211c-1 0-2 0-2 2h1v-1h1v-1z"/><path class="shp5" d="M717 215v2h1v-1h1c-1-1-1-2-2-1z"/><path class="shp13" d="M717 215v2h1v-1h1c-1-1-1-2-2-1z"/><path class="shp12" d="M739 222h2v-1M740 224l1-1 1-1"/><path class="shp5" d="M739 220l-1 1h-1v2l2-1v-2z"/><path class="shp13" d="M739 220l-1 1h-1v2l2-1v-2z"/><path class="shp5" d="M739 223v3l1-2-1-1z"/><path class="shp13" d="M739 223v3l1-2-1-1z"/><path class="shp5" d="M740 224c-1 1-1 3 1 3v-2-1h-1z"/><path class="shp13" d="M740 224c-1 1-1 3 1 3v-2-1h-1z"/><path class="shp5" d="M747 223c0 1 0 2-2 2v-1c0-1 1-2 2-1z"/><path class="shp13" d="M747 223c0 1 0 2-2 2v-1c0-1 1-2 2-1z"/><path class="shp8" d="M732 232h46v-71h-93v71h47v-1h-45v-68h90v68h-45v1z"/><path fill-rule="evenodd" class="shp8" d="M699 250h1l1 1 1 1v1c2 4 3 8 2 11-3 7-4 9-4 14h2c0-6 3-10 6-11h3l1 1 1 1c3 2 3 8-3 9v-1-1-1l-1-1h-2-1l-1 1v2l-1 1h4v4h-7v1l1 1 1 1 1 1-1 1-1 1h-1v2l-1 1-1 1v-1l-1-1v-1l-1-1h-1v-1l-1-1 1-1 1-1v-1-1h-6v-4h3v-1-1l-1-1-1-1h-1-1l-1 1-1 1v1l1 1c-7-1-6-7-4-9l1-1 2-1h2c4 1 6 5 6 11h2c0-5-1-7-3-14-2-3-1-7 1-11l1-1 1-1v-1h1z"/><path class="shp8" d="M691 279l1-1h15l1 1v2l-1 1h-15l-1-1v-2z"/><path class="shp16" d="M691 279l1-1h15l1 1v2l-1 1h-15l-1-1v-2z"/><path fill-rule="evenodd" class="shp8" d="M732 285h1v1l1 1 1 1c2 4 3 8 2 11-3 7-4 9-4 14h2c0-6 2-10 6-11h3l1 1 1 1c2 2 3 8-4 9l1-1v-1l-1-1v-1h-1-2l-1 1v1l-1 1v1h3v4h-6v1l1 1 1 1 1 1h-1v1h-1l-1 1v2l-2 2-2-2v-2l-1-1h-1v-1h-1l1-1 1-1 1-1v-1h-6v-4h3v-1l-1-1v-1l-1-1h-1-2l-1 1v3c-6-1-6-7-3-9l1-1 1-1h3c3 1 6 5 6 11h2c0-5-1-7-4-14-1-3 0-7 2-11l1-1v-1l1-1h1z"/><path class="shp8" d="M723 314l1-1h15l1 1v2l-1 1h-15l-1-1v-2z"/><path class="shp16" d="M723 314l1-1h15l1 1v2l-1 1h-15l-1-1v-2z"/><path fill-rule="evenodd" class="shp8" d="M764 250h1l1 1 1 1v1c3 4 4 8 2 11-2 7-3 9-3 14h2c0-6 2-10 5-11h3l2 1 1 1c2 2 3 8-4 9v-1-1-1l-1-1h-1-1l-1 1-1 1v2h3v4h-7l1 1v1l1 1 1 1-1 1-1 1h-1v2l-1 1v1l-1-1-1-1v-1-1h-1l-1-1-1-1 1-1 1-1v-1l1-1h-7v-4h3v-1-1l-1-1v-1h-1-1-1l-1 1v3c-6-1-6-7-4-9l2-1 1-1h3c3 1 5 5 6 11h1c0-5-1-7-3-14-1-3-1-7 2-11v-1l1-1 1-1z"/><path class="shp8" d="M756 279l1-1h15l1 1v2l-1 1h-15l-1-1v-2z"/><path class="shp16" d="M756 279l1-1h15l1 1v2l-1 1h-15l-1-1v-2z"/><path class="shp5" d="M578 160l1 3h-1v-1-1-1z"/><path class="shp17" d="M578 160l1 3h-1v-1-1-1z"/><path class="shp5" d="M574 160h2v1h-1v0h-1v-1z"/><path class="shp17" d="M574 160h2v1h-1v0h-1v-1z"/><path class="shp5" d="M571 163l1-1h1l1 1-1 1-1-1h-1z"/><path class="shp17" d="M571 163l1-1h1l1 1-1 1-1-1h-1z"/><path class="shp5" d="M572 168l1-1h1v2h-1-1v-1z"/><path class="shp17" d="M572 168l1-1h1v2h-1-1v-1z"/><path class="shp5" d="M614 174h1l1-1 1 1-1 1h-1l-1-1z"/><path class="shp17" d="M614 174h1l1-1 1 1-1 1h-1l-1-1z"/><path class="shp5" d="M611 177v-1l1-1h1v2h-1-1z"/><path class="shp17" d="M611 177v-1l1-1h1v2h-1-1z"/><path class="shp5" d="M613 181v-1-1h2v1h-1l-1 1z"/><path class="shp17" d="M613 181v-1-1h2v1h-1l-1 1z"/><path class="shp5" d="M619 182h2v-1l-1-1v2h-1z"/><path class="shp17" d="M619 182h2v-1l-1-1v2h-1z"/><path d="M569 169l2 1-1 1-1-1v-1z" fill="#004090"/><path class="shp19" d="M569 169l2 1-1 1-1-1v-1z"/><path class="shp5" d="M565 171l1-1h2v1h-1v0h-1-1z"/><path class="shp17" d="M565 171l1-1h2v1h-1v0h-1-1z"/><path class="shp5" d="M565 176v-1h2v1h-2z"/><path class="shp20" d="M565 176v-1h2v1h-2z"/><path class="shp5" d="M570 181v-1-1h1v1l-1 1z"/><path class="shp17" d="M570 181v-1-1h1v1l-1 1z"/><path class="shp5" d="M659 181l-1-1 1-1v-1l1 1v1h-1v1z"/><path class="shp17" d="M659 181l-1-1 1-1v-1l1 1v1h-1v1z"/><path class="shp5" d="M663 183l-1-1v-1-1h1v1h0v2z"/><path class="shp17" d="M663 183l-1-1v-1-1h1v1h0v2z"/><path class="shp5" d="M670 180l-1 1h-1l-1-1h1v-1h1v1h1z"/><path class="shp17" d="M670 180l-1 1h-1l-1-1h1v-1h1v1h1z"/><path class="shp5" d="M671 175v1l-1 1h-1v-1-1l1 1h1v-1z"/><path class="shp20" d="M671 175v1l-1 1h-1v-1-1l1 1h1v-1z"/><path fill-rule="evenodd" class="shp8" d="M651 165h2l1-1h4l1 1h-1-1-1l-7 2-1 1h-1-7-2l-1 1c-2 0-4 2-4 4 1 1 4 0 4 2l-2 2-2 1v1l-1 1h-1v-1-1c-1 2-1 3-4 3l1-1v-1-1c-1 2-3 4-4 3v-1-1l-1 1v-1h-1l1 1h-1l-1 1h-1l-1-1v-1 1h-1-1l-1 1-1-1v-1-1h-1l-1-1v-1-1l3 1 1-2 3 2 8-2-2-2-1-1v-1-1c-12 2-18 10-26 10-4 0-6-1-6-2l-1 1v1h-1l-1 1h-1v-1h-1l-1 1h-1l-1 1v-1-1h-1-3v-1h1v-1h-3l-1-1h1v-1h1c-2 0-4 0-4-2h2l-4-2h1v-1h1l-1-1h-1v-1-2l-1-1v-1-1h2v-1-1h2l1 1h1l1 1-1 2h-1v3l1 1v1l1 1 1 1 2 2h1l2 1 1-1 1-1 1-1 1-1h11c7 0 23-5 36-5h7l1 1h3l2-2-3-2-4 1h-4 1v1h-1-1l-5-1-5 1h-4l-11 2-7 1c-3 1-5 0-5-2v-1-1-1-1l-1-1v-1c2 0 2 1 2 3l2-1 2-1 1-1h14l8 1 6 1h9l12-2h2l1 1h1-1-1l-8 2c1 0 2 1 1 2zm-4-2h3l-6-1h-5-1l-8 1 3 1h5l5-1h4zm-21-1h-4l-5-1h-8l-1 1h-2l-1 1c-2 0-3 1-3 2 1 3 5 2 8 1h-1v-1l-1-1h3l1 1h1v-1h4l1 1v-1h-1v-1l5 1 8-1-4-1zm-50 3zm0-1v0zm-1 3v-1h-1l1 1zm44 11h-1-1-1-1 4zm1 0v1h-1l1-1zm3 2z"/><path class="shp19" d="M651 165h2l1-1h4l1 1h-1-1-1l-7 2-1 1h-1-7-2l-1 1c-2 0-4 2-4 4 1 1 4 0 4 2l-2 2-2 1v1l-1 1h-1v-1-1c-1 2-1 3-4 3l1-1v-1-1c-1 2-3 4-4 3v-1-1l-1 1h-1v-1 1l-1 1h-1l-1-1v-1h0v1h-1-1l-1 1-1-1v-1-1h4-1-1-1-2l-1-1v-1-1l3 1h4-4l1-2 3 2 8-2-2-2-1-1v-1-1c-12 2-18 10-26 10-4 0-6-1-6-2l-1 1v1h-1l-1 1h-1v-1h-1l-1 1h-1l-1 1v-1-1h-1-3v-1h1v-1h-3l-1-1h1v-1h1c-2 0-4 0-4-2h2l-4-2h1v-1h1l-1-1h-1v-1-2h1v0h-1l-1-1v-1-1h3v0h-1v-1-1h2l1 1v0h1l1 1-1 2h-1v3l1 1v1l1 1 1 1 2 2h1l2 1 1-1 1-1 1-1 1-1h11c7 0 23-5 36-5h7l1 1h3l2-2c0-1-3-2-7-2l-5 1h-5l-5 1h-4l-11 2-7 1c-3 1-5 0-5-2v-1-1-1-1l-1-1v-1c2 0 2 1 2 3l2-1 2-1 1-1h14l8 1 6 1h9l12-2h2l1 1h1-1-1c-5 0-9 3-15 3h-4 1v1h-1-1l-12-3h-4l-5-1h-8l-1 1h-2l-1 1c-2 0-3 1-3 2 1 3 5 2 8 1h-1v-1l-1-1h3l1 1h1v-1h4l1 1v-1h-1v-1l5 1 22-2c5 0 8 1 7 3zm-75 0v-1m-2 2h1v1m40 11h4m0 1h1v-1m3 2v-1h-1"/><path fill-rule="evenodd" class="shp8" d="M651 165h2l1-1h4l1 1h-1-1-1l-7 2-1 1h-1-7l3 1 2 1h5l7-2c1 0 1 2 3 2l2-2 1-1h2l-1 1v1l-1 1 1-1h2l1 1h1l1 1h-1-1l-1 1h2v1h1v1h-1 1v1h1v1l-1 1v1l-1 2h-1-1v-1c0 2-2 3-3 2l-1-1v-1 1h-1l-1-1h-1v-1l1-1 3-1c-1-2-3-3-6-3l-14 1c-5 0-7-3-9-4h-1l-1 1h-1-1v-1h-1l-3-1c-13 2-19 10-27 10-4 0-6-1-6-2v3h-1-1-1v1h-1-1v-1c-1 1-2 2-4 1h1v-1h-1l-1 1h-1l-1 1v-1h1v-1c-1 1-3 2-4 1v-1-1c-1 2-3 2-4 2v-1h1v-1h-1-1v-1c-1 1-1 2-2 1h-1v-1-1 1h-1c-1 0-2-1-2-3l1-1-1-2v-1h3l1-1 1 2v2l2 1 1 1h4l1 1h2l1-1h3c0-2 2-4 4-5h3l2-1 2 1h4c7 0 23-5 36-5h8l1 1h2l2-2-3-2-4 1h-4 1v1h-1-1l-5-1-5 1h-5l-10 2-7 1c-3 0-5 0-5-2v-1-1-1-1l-1-1v-1c2 0 2 1 2 3l2-1 1-1 2-1h14l8 1 6 1h9l12-2h2l1 1h-1l-8 2c1 0 2 1 1 2zm15 14v-1-1l-1-1 1 2v1zm0-1v-1l-1-1 1 1v1zm-4 1c0-1 2-1 1-2l-1 2zm-94-5h0zm79-11h3l-6-1h-3-2l-9 1 3 1h5l5-1h4zm-21-1h-4l-5-1h-8l-1 1h-2l-1 1c-2 0-3 1-3 2 1 3 5 2 8 1h-1v-1l-1-1h3l1 1h1v-1h4l1 1v-1h-1v-1l5 1 8-1-4-1zm-55 14l-2-2 2 2zm1 0h-1 1zm-1 1h-1 1zm96-1c-1 1 0 2 1 2l-1-2zm1-2h-1 1zm-34-4v-1h-2l2 1z"/><path class="shp19" d="M651 165h2l1-1h4l1 1h-1-1-1l-7 2-1 1h-1-7l3 1 2 1h5l7-2c1 0 1 2 3 2l2-2 1-1h2l-1 1v1l-1 1 1-1h2l1 1h1l1 1h-1-1l-1 1h2v1h1v1h-1-1 2v1h1v1l-1 1v1h-1c-1 0-2-1-1-2-1 1 0 2 1 2h1l-1 2h-1-1v-1-1-1l-1-1 1 1v2c0 2-1 3-3 2l-1-1v-1l1-2v-1 1c1 1-1 1-1 2v1h-1l-1-1h-1v-1l1-1 3-1c-1-2-3-3-6-3l-14 1c-5 0-7-3-9-4v-1h-1l-1-1 1 1h1v1h-1l-1 1h-1-1v-1h-1l-3-1c-13 2-19 10-27 10-4 0-6-1-6-2v3h-1-1-1v1h-1-1v-1c-1 1-2 2-4 1h1v-1h-1l-1 1h-1l-1 1v-1h1v-1c-1 1-3 2-4 1v-1-1c-1 2-3 2-4 2v-1h1v-1h-1-1v-1c-1 1-1 2-2 1h-1v-1-1h0v1h-1c-1 0-2-1-2-3l2-1 3 2-3-2c-1 0-2 0-2-2v-1h3v2l1 1 2 1h1-1l-2-1-1-1v-2l1-1 1 2v2l2 1 1 1h4l1 1h2l1-1h3c0-2 2-4 4-5h3l2-1 2 1h4c7 0 23-5 36-5h8l1 1h2l2-2c0-1-3-2-7-2l-5 1h-5l-5 1h-5l-10 2-7 1c-3 0-5 0-5-2v-1-1-1-1l-1-1v-1c2 0 2 1 2 3l2-1 1-1 2-1h14l8 1 6 1h9l12-2h2l1 1h-1c-5 0-9 3-15 3h-4 1v1h-1-1l-12-3h-4l-5-1h-8l-1 1h-2l-1 1c-2 0-3 1-3 2 1 3 5 2 8 1h-1v-1l-1-1h3l1 1h1v-1h4l1 1v-1h-1v-1l5 1 22-2c5 0 8 1 7 3zm-82 9l3 2m-1 1h-1m96 2v-1-1l-1-1m3 2c-1 0-2-1-1-2m0-2h1m-36-5h2v1"/><path class="shp8" d="M602 165c0-1 1-2 3-2l1-1h2l1-1h8l5 1h4l12 3h2v-1h-1-1 5c6 0 10-3 15-3h2l-1-1h-1-1-1l-13 2h-2-6l-6-1-8-1h-14l-2 1h-1l-2 1-2-2v1l1 1v4"/><path class="shp19" d="M602 165c0-1 1-2 3-2l1-1h2l1-1h8l5 1h4l12 3h2v-1h-1-1 5c6 0 10-3 15-3h2l-1-1h-1-1-1l-13 2h-2-6l-6-1-8-1h-14l-2 1h-1l-2 1-2-2v1l1 1v4"/><path class="shp8" d="M586 177h2l2 1h1l1-1v-1l1 1v1l2-4h1v1l1-5h1v-1-1-1h-1v-1l1-1v-1h-1v-1-1h-1l-1 1v-1-1-1l-1 1h-1v1l-1-1v-1l-1 1-1 1v0h-1v-1 1h-1v2l-1-1h-1v1l-1 1 1 2v1l-1 1v2l-1 2v1l1 1v-1h1l-1 1v1l1 1z"/><path class="shp19" d="M586 177h2l2 1h1l1-1v-1l1 1v1l2-4h1v1l1-5h1v-1-1-1h-1v-1l1-1v-1h-1v-1-1h-1l-1 1v-1-1-1l-1 1h-1v1l-1-1v-1l-1 1-1 1v0h-1v-1 1h-1v2l-1-1h-1v1l-1 1 1 2v1l-1 1v2l-1 2v1l1 1v-1h1l-1 1v1l1 1z"/><path class="shp15" d="M587 174h4l1 1v-2l1-1h-1l-1-1v-1 1h-1-2v2l-1 1z"/><path class="shp19" d="M587 174h4l1 1v-2l1-1h-1l-1-1v-1 1h-1-2v2l-1 1z"/><path class="shp5" d="M589 174l-1 2 3-2 1-1v-1-1h-1v-1 1h-1-1v3z"/><path class="shp17" d="M589 174l-1 2 3-2 1-1v-1-1h-1v-1 1h-1-1v3z"/><path fill-rule="evenodd" class="shp8" d="M585 165l1-1v-1h1l1 1v-1-1h2v0l1-1 1-1v1l1 1v-1h1l1-1v3l1-1h1v2h1v1l-1 1v1h1v3h-1-1v1h-2-1v1h-1l-1-1v-1 1h-1-1l-1-2h-2v-1-1l-1-2zm1 1h1v-1l-1 1zm11 2v1-1z"/><path class="shp19" d="M585 165l1-1v-1h1l1 1v-1-1h2v0l1-1 1-1v1l1 1v-1h1l1-1v3l1-1h1v2h1v1l-1 1v1h1v3h-1-1v1h-2-1v1h-1l-1-1v-1 1h-1-1l-1-2h-2v-1-1l-1-2zm1 1h1v-1m10 4v-1"/><path class="shp15" d="M591 170l2-1h-1v-1h-1-1l1 1v1z"/><path class="shp19" d="M591 170l2-1h-1v-1h-1-1l1 1v1z"/><path class="shp15" d="M590 166l-1 1v-1l1-1v1z"/><path class="shp21" d="M590 166l-1 1v-1l1-1v1z"/><path class="shp19" d="M590 167h1v-1l1-1"/><path class="shp22" d="M592 165l-1 1-1-1h-1-1v1h1v1l2-1 1-1z"/><path class="shp15" d="M595 168l-1 1v-1l1-1v1z"/><path class="shp19" d="M595 168l-1 1v-1l1-1v1z"/><path class="shp22" d="M594 166h-1v2h1v1l2-1-1-1h-1v-1h-1 1z"/><path class="shp19" d="M594 166h-1v3"/><path class="shp5" d="M578 185l1 3h-1v-1-1-1z"/><path class="shp17" d="M578 185l1 3h-1v-1-1-1z"/><path class="shp5" d="M574 185h1l1 1h-1v1l-1-1v-1z"/><path class="shp17" d="M574 185h1l1 1h-1v1l-1-1v-1z"/><path class="shp5" d="M571 188h3v1h-1v0h-1l-1-1z"/><path class="shp17" d="M571 188h3v1h-1v0h-1l-1-1z"/><path class="shp5" d="M572 194v-1h1l1-1v2h-1-1z"/><path class="shp17" d="M572 194v-1h1l1-1v2h-1-1z"/><path class="shp5" d="M614 200v-1h3l-1 2-1-1h-1z"/><path class="shp17" d="M614 200v-1h3l-1 2-1-1h-1z"/><path class="shp5" d="M611 203v-1l1-1h1v1h-1-1v1z"/><path class="shp17" d="M611 203v-1l1-1h1v1h-1-1v1z"/><path class="shp5" d="M613 206v-1h1l1-1v2h-1-1z"/><path class="shp17" d="M613 206v-1h1l1-1v2h-1-1z"/><path class="shp5" d="M619 208h2v-1-1h-1v2h-1z"/><path class="shp17" d="M619 208h2v-1-1h-1v2h-1z"/><path class="shp5" d="M569 195l2 1h-1v0h-1v-1z"/><path class="shp17" d="M569 195l2 1h-1v0h-1v-1z"/><path class="shp5" d="M565 196h3v1h-1-1v-1h-1z"/><path class="shp17" d="M565 196h3v1h-1-1v-1h-1z"/><path class="shp5" d="M565 201h1l1-1v2h-1l-1-1z"/><path class="shp20" d="M565 201h1l1-1v2h-1l-1-1z"/><path class="shp5" d="M570 206v-1-1 1h1v1h-1z"/><path class="shp17" d="M570 206v-1-1 1h1v1h-1z"/><path class="shp5" d="M659 207l-1-1 1-1v-1h1v1l-1 1v1z"/><path class="shp17" d="M659 207l-1-1 1-1v-1h1v1l-1 1v1z"/><path class="shp5" d="M663 208h-1v-1-1-1l1 1 1 1h-1v1z"/><path class="shp17" d="M663 208h-1v-1-1-1l1 1 1 1h-1v1z"/><path class="shp5" d="M670 206h-1v1l-1-1h-1l1-1h1v1h1z"/><path class="shp17" d="M670 206h-1v1l-1-1h-1l1-1h1v1h1z"/><path class="shp5" d="M671 201v1h-1v1h-1v-1-1h2z"/><path class="shp20" d="M671 201v1h-1v1h-1v-1-1h2z"/><path fill-rule="evenodd" class="shp8" d="M587 205l-1 1h-1v-1-1h-1l-1 1-2-1h-1 1v-1h1v-1l-1 1-2-1h-1l-1-1h2v-1h1c-2 1-4 1-5-1h1l1-1c-1 0-3 0-3-2h1l1-1h-1v-1h-1l-1-1 1-2-1-1v-1l1-1h1v-1-1h2v2l1-1h1v1h1l-1 2-1 1v3l1 1v1h1l1 2 1 1 2 1h2l1-1v-1l1-1h2l1-1h10l36-5 6 1h5l2-2-4-2-5 1h-3l1 1h1l-1 1h-1l-6-2-9 2-10 2-7 1c-3 0-5-1-5-3v-1-1-1-1l-1-1v-1c1 1 2 1 2 3l2-1 1-1h2l2-1h9l3 1 14 1c4-2 8-5 11-5l-1 1-2 1-1 1-1 1 13-3h1l1 1h1v0h-1l-1 1-7 2c2 1 4 3 3 4l1-1h3l1-1 1 1h-1v1l-7 2h-1l-1 1h-7-3l-4 4c1 2 4 1 3 3l-1 1-2 1v2h-1v1h-1v-1-1-1c-1 3-1 4-4 4v-1l1-1v-1c-1 2-3 3-5 3l1-1v-1-1 1h-1v0h-1l1 1h-1l-2 1v-1h-1v-1-1 1l-1 1h-1-1-1v-1-1-1h-2v-1-1h3l1-2 3 2 8-2-2-1v-1l-1-1v-1c-12 2-18 9-26 9l-6-1h-1v1l-1 1h-2-1v-1l-1 1zm57-18l-15 1 3 1 11-1h3l2-1h-4zm-15 1h-3l-5-1h-12-1-1l-1 1h-1l-3 3c1 2 5 1 8 1l-1-1v-1h-1 4l1 1v-1-1h2l2 1h0v-1-1l5 2 7-2zm-53 2v1-1zm0-1v0zm-1 3h-1 1zm44 11h-1-1-1-1 4zm1 1h-1 1zm3 2z"/><path class="shp19" d="M588 204v1h3l1-1v-1h1l6 1c8 0 14-7 26-9v1l1 1v1l2 1-8 2-3-2-1 2h4-7v2h6-2-1-1v3h3l1-1v-1h0v2h1v1l2-1v-1 1l1-1h1v-1 2l-1 1c2 0 4-1 5-3v1l-1 1v1c3 0 3-1 4-4v3h1v-1h1v-2l2-1 1-1c1-2-2-1-3-3l4-4h10l1-1h1l7-2v-1h1l-1-1-1 1h-1-1-1l-1 1c1-2-2-4-7-4-8 0-20 2-22 3l-5-2v2h1-1l-2-1h-1-1v2l-1-1h-3-1 1v1l1 1c-3 0-7 1-8-1l3-3h1l1-1h14l5 1 12 3h1l1-1h-1l-1-1h3c4 0 10-4 14-4l1-1h1v0h-1l-1-1h-1l-13 3 1-1 1-1 2-1 1-1c-3 0-7 3-11 5l-14-1-3-1h-9l-2 1h-2l-1 1-2 1c0-2-1-2-2-3v1l1 1v4c0 2 2 3 5 3l7-1 10-2 20-3c4 0 7 1 7 2l-2 2h-2-1-2l-6-1-36 5h-8-2l-1 1h-2l-1 1v1l-1 1h-2l-2-1-1-1-1-2h-1v-1l-1-1v-1-1-1l1-1 1-2h-1v-1h-1l-1 1v1l1 1v0l-1-1v-1-1-1h-1-1v3l1 1-1-1v-1h-1l-1 1v1l1 1v1h0v-1l-1 2 1 1h1v1h1l-1 1h-1c0 2 2 2 3 2l-1 1h-1c1 2 3 2 5 1h-1v1h-1-1l1 1h1l2 1 1-1v1h-1v1h-1 1l2 1 1-1h1v2h1l1-1 1-1zm-12-13v-2m-2 3h1m40 11h4m0 1h1m3 2v-1h-1"/><path fill-rule="evenodd" class="shp8" d="M601 196c7 0 23-4 36-4h11l2-1c0-1-2-3-4-3l-5 1h-3l1 1h1v1h-1l-7-2-9 2-10 2-7 1c-3 0-5-1-5-3v-1-1-1-1l-1-1c2 0 2 0 2 2l2-1 1-1h7l3-1 3 1h3l14 1c4-1 8-5 11-5l-1 1-1 1-2 1-1 1 13-2h3v1h-2l-7 2 4 4 1-1h4v1h-1l-6 2h-2l-1 1h-7l3 1 2 1h5l7-2 3 1 2-2h3l-1 1v1h-1 4l1 1h1-1l-1 1h-1v1h2v1h0v1h1l1 1v1l-1 1-1 3h-1v-1h-1c0 1-1 3-3 2v-1h-1v-1h-2-1v-1-1h1l3-2c-1-2-3-3-6-3l-14 2c-5 0-7-3-9-5v1h-1-1v1l-1-1h-1-1l-3-1c-13 2-19 9-27 9l-6-1v3h-1-1v-1l-1 1v1h-1-1v-2c-1 2-2 3-4 2h1v-1-1l-1 1-1 1h-1-1v-1h1l-1-1c0 2-2 3-3 2v-1-1c-1 1-3 2-4 1h1v-1h-1-1v-1c-1 1-1 2-2 1h-1v-1-1h-1v1c-1 0-2-1-2-3l1-1-1-2v-1h1l1-1 1 1v-1h1l1 1v2l2 2 1 1h10l1-1c0-2 2-3 4-4h1l2-1h8zm45-8l2-1h-4l-15 2h3l11-1h3zm-20 0l-4-1h-13-1-1l-1 1h-1l-3 3c1 2 5 1 8 1l-1-1v-1h-1 4l1 1v-1-1h2l2 1h1l-1-1c3-1 4 1 6 1l6-1-3-1zm-58 12h0zm95 3c1 1-1 1-1 2 0-1 2-1 1-2zm-92-2l-2-1 2 1zm1 1l-1-1 1 1zm-1 1h-1 1zm95 2v-1-1l-1-1 1 3zm1-4v2h1l-1-2zm1-1h-1 1zm-34-5l-1-1h-1l2 1z"/><path class="shp19" d="M597 196h4c7 0 23-4 36-4h11l2-1c0-2-3-3-7-3l-20 3-10 2-7 1c-3 0-5-1-5-3v-1-1-1-1l-1-1c2 0 2 0 2 2l2-1 1-1h7l3-1 3 1h3l14 1c4-1 8-5 11-5l-1 1-1 1-2 1-1 1 13-2h3v1h-2c-4 0-10 4-14 4h-3l1 1h1v1h-1c-5 0-7-2-13-3l-4-1h-13-1-1l-1 1h-1l-3 3c1 2 5 1 8 1l-1-1v-1h-1 4l1 1v-1-1h2l2 1h1l-1-1c3-1 4 1 6 1l21-3c5 0 8 2 8 4l1-1h4v1h-1l-6 2h-2l-1 1h-7l3 1 2 1h5l7-2 3 1 2-2h3l-1 1v1h-1 4l1 1h1-1l-1 1h-1v1h2v1h0v1h-1 2l1 1v1l-1 1h-1-1v-1-1 2h2l-1 3h-1v-1h-1v-1-1l-1-1 1 1v2c0 1-1 3-3 2v-1h-1v-1c0-1 2-1 1-2v-1-1 2c1 1-1 1-1 2h-2-1v-1-1h1l3-2c-1-2-3-3-6-3l-14 2c-5 0-7-3-9-5h-1v-1h-1 1v1h1v1h-1-1v1l-1-1h-1-1l-3-1c-13 2-19 9-27 9l-6-1v3h-1-1v-1l-1 1v1h-1-1v-2c-1 2-2 3-4 2h1v-1-1l-1 1-1 1h-1-1v-1h1l-1-1c0 2-2 3-3 2v-1-1c-1 1-3 2-4 1h1v-1h-1-1v-1c-1 1-1 2-2 1h-1v-1-1h-1v1c-1 0-2-1-2-3l2-1 3 2-3-2c-1 0-2 0-2-2v-1h1l1-1 1 1v1l1 1 1 1h1l1 1-1-1h-1l-1-1-1-1v-1-1h1l1 1v2l2 2 1 1h10l1-1c0-2 2-3 4-4h1l2-1h4zm-28 4l3 2m-1 1h-1m96 2v-1-1l-1-1m3 1h-1v-1-1m0-1h1m-36-6h1l1 1"/><path class="shp8" d="M601 191v-1-1-1-1l-1-1 2 2 2-1 1-1h16c5 0 11 2 14 1 4-1 8-5 11-5l-1 1-1 1-2 1-1 1 13-2h3v1h-2c-4 0-10 4-14 4h-3l1 1h1l-1 1h-1l-12-3-4-1h-13-1-1l-1 1h-1l-3 3"/><path class="shp19" d="M601 191v-1-1-1-1l-1-1 2 2 2-1 1-1h16c5 0 11 2 14 1 4-1 8-5 11-5l-1 1-1 1-2 1-1 1 13-2h3v1h-2c-4 0-10 4-14 4h-3l1 1h1l-1 1h-1l-12-3-4-1h-13-1-1l-1 1h-1l-3 3"/><path class="shp8" d="M586 203h2v-1l2 2h1v-1h1v-1h1v2l2-5v1h1l1-4h1v-1-1-2h-1v-1h1v-1-1h-1v-1-1h-1v1h-1v-1-1h-1l-1 1v0h-1v-1h-1v1l-1 1v-1h-1l-1 1v1h-1-1l-1 1 1 3v1h-1v3l-1 1v2h1l1-1v1l-1 1v1l1 1z"/><path class="shp19" d="M586 203h2v-1l2 2h1v-1h1v-1h1v2l2-5v1h1l1-4h1v-1-1-2h-1v-1h1v-1-1h-1v-1-1h-1v1h-1v-1-1h-1l-1 1v0h-1v-1h-1v1l-1 1v-1h-1l-1 1v1h-1-1l-1 1 1 3v1h-1v3l-1 1v2h1l1-1v1l-1 1v1l1 1z"/><path class="shp15" d="M587 199h3l1 1 1 1v-2l1-2h-1-1v-1h-1-1l-1 1v1l-1 1z"/><path class="shp19" d="M587 199h3l1 1 1 1v-2l1-2h-1-1v-1h-1-1l-1 1v1l-1 1z"/><path class="shp5" d="M589 200l-1 1 3-2h1v-1-1h-1v-1h-1-1v4z"/><path class="shp17" d="M589 200l-1 1 3-2h1v-1-1h-1v-1h-1-1v4z"/><path fill-rule="evenodd" class="shp8" d="M585 190h1v-1h2v-1h1v-1l1 1 1-1v-1h1v1h1v0l1-1h1v2h1l1-1v2h1v2h-1v1h1v4h-1-1l-1 1h-1v-1 1h-2-1v-1h-1l-1 1v-1l-1-2h-2v-1l-1-3zm1 2l1-1v-1l-1 2zm11 1v2-2z"/><path class="shp19" d="M585 190h1v-1h2v-1h1v-1l1 1 1-1v-1h1v1h1v0l1-1h1v2h1l1-1v2h1v2h-1v1h1v4h-1-1l-1 1h-1v-1 1h-2-1v-1h-1l-1 1v-1l-1-2h-2v-1l-1-3zm1 2l1-1v-1m10 5v-1-1"/><path class="shp15" d="M591 196v-1h2l-1-1h-1-1 1v2z"/><path class="shp19" d="M591 196v-1h2l-1-1h-1-1 1v2z"/><path class="shp15" d="M590 192l-1 1v-1l1-1v1z"/><path class="shp21" d="M590 192l-1 1v-1l1-1v1z"/><path class="shp19" d="M590 193h1v-1-1h1"/><path class="shp22" d="M592 191h-1-2v-1h-1v2h1v1c1 0 2 0 2-2h1z"/><path class="shp15" d="M595 194h-1v-1h1v1z"/><path class="shp19" d="M595 194h-1v-1h1v1z"/><path class="shp22" d="M594 191v1h-1v1l1 1h2v-1h-1l-1-1h-1 1v-1z"/><path class="shp19" d="M594 191v1h-1v2"/><path class="shp5" d="M578 211l1 3h-1v-1-1-1z"/><path class="shp17" d="M578 211l1 3h-1v-1-1-1z"/><path class="shp5" d="M574 211h1l1 1h-1v1l-1-1v-1z"/><path class="shp17" d="M574 211h1l1 1h-1v1l-1-1v-1z"/><path class="shp5" d="M571 214h3v1h-1v0h-1l-1-1z"/><path class="shp17" d="M571 214h3v1h-1v0h-1l-1-1z"/><path class="shp5" d="M572 220l1-1 1-1v2h-1-1z"/><path class="shp17" d="M572 220l1-1 1-1v2h-1-1z"/><path class="shp5" d="M614 226v-1h3l-1 2-1-1h-1z"/><path class="shp17" d="M614 226v-1h3l-1 2-1-1h-1z"/><path class="shp5" d="M611 229v-1l1-1h1v1h-1-1v1z"/><path class="shp17" d="M611 229v-1l1-1h1v1h-1-1v1z"/><path class="shp5" d="M613 232v-1h1l1-1v2h-1-1z"/><path class="shp17" d="M613 232v-1h1l1-1v2h-1-1z"/><path class="shp5" d="M619 234h2v-1-1h-1v2h-1z"/><path class="shp17" d="M619 234h2v-1-1h-1v2h-1z"/><path class="shp5" d="M569 221l2 1h-1v0h-1v-1z"/><path class="shp17" d="M569 221l2 1h-1v0h-1v-1z"/><path class="shp5" d="M565 222h3v1h-1-1v-1h-1z"/><path class="shp17" d="M565 222h3v1h-1-1v-1h-1z"/><path class="shp5" d="M565 228v-1h1l1-1v2h-2z"/><path class="shp20" d="M565 228v-1h1l1-1v2h-2z"/><path class="shp5" d="M570 233v-1-1-1 1h1v1h-1v1z"/><path class="shp17" d="M570 233v-1-1-1 1h1v1h-1v1z"/><path class="shp5" d="M659 233l-1-1 1-1v-1l1 1-1 1v1z"/><path class="shp17" d="M659 233l-1-1 1-1v-1l1 1-1 1v1z"/><path class="shp5" d="M663 234h-1v-1-1-1l1 1 1 1h-1v1z"/><path class="shp20" d="M663 234h-1v-1-1-1l1 1 1 1h-1v1z"/><path class="shp5" d="M670 232l-1 1-1-1h-1l1-1h1v1h1z"/><path class="shp17" d="M670 232l-1 1-1-1h-1l1-1h1v1h1z"/><path class="shp5" d="M671 227v1h-1v1h-1v-1-1h2z"/><path class="shp20" d="M671 227v1h-1v1h-1v-1-1h2z"/><path fill-rule="evenodd" class="shp8" d="M587 231v1h-2v-1-1l-1 1h-3l-1-1h1v-1h1v-1l-1 1h-2l-1-1-1-1h2l1-1c-2 1-4 1-4-1h1v-1c-1 0-3 0-3-2h2v-1h-1v-1h1-1l-1 1v-3l-1-2v-1l1-1h1v-1-1h2v2h1v-1h1v1h1l-1 2-1 1v3l1 1v1h1l1 2 1 1 2 1h2l1-1v-1l1-1h2l1-1h10l36-5 6 1h5l2-1c0-2-2-3-4-3l-5 1h-3l1 1h1l-1 1-7-2-9 2-10 2-7 1c-3 0-5-1-5-3v-1-1-1-1l-1-1v-1c1 1 2 1 2 3l2-1 1-1h4l3-1h3l3 1h3l14 1c4-1 8-5 11-5l-1 1-1 1-2 1-1 1 13-2h3v1h-2l-7 2 4 4v-1h5l-1 1-6 2h-2l-1 1h-9-1c-2 1-4 3-3 4 0 2 3 1 3 3l-2 1-2 1v2h-1v1h-1v-1-1c-1 2-1 3-4 3v-1l1-1v-1l-4 3v-1-1-1 1h-1v0h-1l1 1h-1l-2 1v-1h-1v-1-1 1l-1 1h-1-1-1v-1-1-1h-2v-1-1h3l1-2 3 2 8-1-2-2v-1l-1-1v-1c-12 2-18 9-26 9l-6-1h-1v1l-1 1h-2-1v-1l-1 1zm57-18l-15 1 3 1 11-1h3l2-1h-4zm-15 1h-3l-4-1h-13-1-1l-1 1h-1l-3 3c1 2 5 1 8 1l-1-1v-1h-1 4l1 1v-1-1h2l2 1h1l-1-1v-1l6 2 6-2zm-53 2v1-1zm0-1v0zm-1 3h-1 1zm44 11h-1-1-1-1 4zm1 1l-1 1 1-1zm3 2z"/><path class="shp19" d="M588 230v1h3l1-1v-1h1l6 1c8 0 14-7 26-9v1l1 1v1l2 2-8 1-3-2-1 2h4-7v2h6-2-1-1v3h3l1-1v-1h0v2h1v1l2-1v-1 1l1-1h1v-1 3l4-3v1l-1 1v1c3 0 3-1 4-3v2h1v-1h1v-2l2-1 2-1c0-2-3-1-3-3-1-1 1-3 3-4h10l1-1h2l6-2 1-1h-1-1-1-1-1v1c0-2-3-4-8-4-8 0-20 3-21 3l-6-2v1l1 1h-1l-2-1h-1-1v2l-1-1h-1-3 1v1l1 1c-3 0-7 1-8-1l3-3h1l1-1h15l4 1c6 1 8 3 13 3l1-1h-1l-1-1h3c4 0 10-4 14-4h2v-1h-3l-13 2 1-1 2-1 1-1 1-1c-3 0-7 4-11 5l-14-1h-3l-3-1h-3l-3 1h-2-2l-1 1-2 1c0-2-1-2-2-3v1l1 1v4c0 2 2 3 5 3l7-1 10-2 20-3c4 0 7 1 7 3l-2 1h-2-1-1-1l-6-1-36 5h-8-2l-1 1h-2l-1 1v1l-1 1h-2l-2-1-1-1-1-2h-1v-1l-1-1v-1-1-1l1-1 1-2h-1v-1h-1v1h-1l1 1v0l-1-1v-1-1h-1-1v3l1 2-1-2v-1h-1l-1 1v1l1 2h0v3l1-1h1-1v1h1v1h-2c0 2 2 2 3 2v1h-1c0 2 2 2 4 1l-1 1h-1-1l1 1 1 1h2l1-1v1h-1v1h-1l1 1h3l1-1v2h2v-1l1-1zm-12-13v-2m-2 3h1m40 11h4m0 2l1-1m3 2v-1h-1"/><path fill-rule="evenodd" class="shp8" d="M601 222c7 0 23-4 36-4h11l2-1c0-1-2-3-4-3l-5 1h-3l1 1h1l-1 1h-1l-6-2-9 2-10 2-7 1c-3 0-5-1-5-3v-1-1-1-1l-1-1c2 0 2 1 2 2l2-1 1-1h16l14 1c4-1 8-5 11-5l-1 1-1 1-2 1-1 1 13-2h3v1h-2l-7 2c2 1 4 3 3 4h1l1-1h4l-1 1-7 2h-1l-1 1h-7l3 1 2 1h5l7-2 3 1 2-2h2v2h-1 4l1 1h1-1l-1 1h-1v1h2v1h1-1v1h1l1 1v1l-1 1-1 3h-1l-1-1c0 1-2 3-3 2v-1h-1v-1h-2l-1-1v-1h1v-1l3-1c-1-2-3-3-6-3l-14 1c-5 0-7-2-9-4v1h-1-1-1-1-1l-3-1c-13 2-19 9-27 9l-6-1v2l-1 1h-1v-1l-1 1-1 1h-1v-2c-1 2-2 2-4 2h1v-1-1l-1 1-1 1h-1-1l1-1v-1l-4 2v-1-1c-1 1-3 2-4 1h1v-1h-1-1v-1l-2 1h-1v-1-1h-1v1c-1 0-2-1-2-3l1-1-1-2v-1l1-1h1l1 1v-1h1l1 1v2l2 2h1l2 1h8l1-1c0-2 2-3 4-4h1l2-1h8zm45-8l2-1h-4l-15 1 3 1 11-1h3zm-20 0l-4-1h-13-1-1l-1 1h-1l-3 3c1 2 5 1 8 1l-1-1v-1h-1 4l1 1v-1-1h2l2 1h1l-1-1c2-1 4 1 5 1l7-2h-3zm40 17v-1-1l-1-1 1 2v1zm0-1v-1l-1-1 1 1v1zm-4 1c0-1 2-1 1-2l-1 2zm-94-5h0zm3 1l-2-1 2 1zm1 1l-1-1 1 1zm-1 1h-1 1zm96-2v2h1l-1-2zm1-1h-1 1zm-34-5h-1v-1h-1l2 1z"/><path class="shp19" d="M597 222h4c7 0 23-4 36-4h11l2-1c0-2-3-3-7-3l-20 3-10 2-7 1c-3 0-5-1-5-3v-1-1-1-1l-1-1c2 0 2 1 2 2l2-1 1-1h16l14 1c4-1 8-5 11-5l-1 1-1 1-2 1-1 1 13-2h3v1h-2c-4 0-10 4-14 4h-3l1 1h1l-1 1h-1l-12-3-4-1h-13-1-1l-1 1h-1l-3 3c1 2 5 1 8 1l-1-1v-1h-1 4l1 1v-1-1h2l2 1h1l-1-1c2-1 4 1 5 1 2 0 14-3 22-3 5 0 8 2 7 4h1l1-1h4l-1 1-7 2h-1l-1 1h-7l3 1 2 1h5l7-2 3 1 2-2h2v2h-1 4l1 1h1-1l-1 1h-1v1h2v1h1-1v1h-1 2l1 1v1l-1 1h-1-1v-1-1 2h2l-1 3h-1l-1-1v-1-1l-1-1 1 1v2c0 1-1 3-3 2v-1h-1v-1l1-2v-1-1 2c1 1-1 1-1 2h-2l-1-1v-1h1v-1l3-1c-1-2-3-3-6-3l-14 1c-5 0-7-2-9-4l-1-1h-1 1l1 1v1h-1-1-1-1-1l-3-1c-13 2-19 9-27 9l-6-1v2l-1 1h-1v-1l-1 1-1 1h-1v-2c-1 2-2 2-4 2h1v-1-1l-1 1-1 1h-1-1l1-1v-1l-4 2v-1-1c-1 1-3 2-4 1h1v-1h-1-1v-1l-2 1h-1v-1-1h-1v1c-1 0-2-1-2-3l2-1 3 2-3-2c-1 0-2 0-2-2v-1l1-1h1l1 1v1h1v1l1 1h1l1 1-1-1h-1l-1-1v-1h-1v-1-1h1l1 1v2l2 2h1l2 1h8l1-1c0-2 2-3 4-4h1l2-1h4zm-28 4l3 2m-1 1h-1m96 2v-1-1l-1-1m3 1h-1v-1-1m0-1h1m-36-6h1v1h1"/><path class="shp8" d="M601 217v-1-1-1-1l-1-1 2 2 2-1 1-1h16c5 0 11 2 14 1 4-1 8-5 11-5l-1 1-1 1-2 1-1 1 13-2h3v1h-2c-4 0-10 4-14 4h-3l1 1h1l-1 1h-1l-12-3-4-1h-13-1-1l-1 1h-1l-3 3"/><path class="shp19" d="M601 217v-1-1-1-1l-1-1 2 2 2-1 1-1h16c5 0 11 2 14 1 4-1 8-5 11-5l-1 1-1 1-2 1-1 1 13-2h3v1h-2c-4 0-10 4-14 4h-3l1 1h1l-1 1h-1l-12-3-4-1h-13-1-1l-1 1h-1l-3 3"/><path class="shp8" d="M586 229h2v-1l2 2h1v-1h1v-1h1v2l2-5v1h1l1-4h1v-1-1-2h-1v-1h1v-1-1h-1v-1-1l-1 1h-1v-1-1h-1l-1 1v0h-1v-1h-1v1l-1 1-1-1v1h-1v1h-1-1v1h-1l1 3v1h-1v3l-1 1v1l1 2v-1l1-1v1l-1 1v1l1 1z"/><path class="shp19" d="M586 229h2v-1l2 2h1v-1h1v-1h1v2l2-5v1h1l1-4h1v-1-1-2h-1v-1h1v-1-1h-1v-1-1l-1 1h-1v-1-1h-1l-1 1v0h-1v-1h-1v1l-1 1-1-1v1h-1v1h-1-1v1h-1l1 3v1h-1v3l-1 1v1l1 2v-1l1-1v1l-1 1v1l1 1z"/><path class="shp15" d="M587 225h3l1 1 1 1v-2l1-2h-1-1v-1h-1-1l-1 1v1l-1 1z"/><path class="shp19" d="M587 225h3l1 1 1 1v-2l1-2h-1-1v-1h-1-1l-1 1v1l-1 1z"/><path class="shp5" d="M589 226l-1 1 3-2h1v-1-1h-1v-1h-1-1v4z"/><path class="shp17" d="M589 226l-1 1 3-2h1v-1-1h-1v-1h-1-1v4z"/><path fill-rule="evenodd" class="shp8" d="M585 216h1v-1h2v-1h1v-1l1 1 1-1 1-1v1h1v0l1-1h1v2h1l1-1v2h1v2h-1v1h1v4h-1-1v1h-2v-1 1h-2-1v-1h-1l-1 1v-1l-1-2h-2v-1l-1-3zm1 2l1-1v-1l-1 2zm11 1v2-2z"/><path class="shp19" d="M585 216h1v-1h2v-1h1v-1l1 1 1-1 1-1v1h1v0l1-1h1v2h1l1-1v2h1v2h-1v1h1v4h-1-1v1h-2v-1 1h-2-1v-1h-1l-1 1v-1l-1-2h-2v-1l-1-3zm1 2l1-1v-1m10 5v-1-1"/><path class="shp15" d="M591 222v-1h2l-1-1h-1-1 1v2z"/><path class="shp19" d="M591 222v-1h2l-1-1h-1-1 1v2z"/><path class="shp15" d="M590 218l-1 1v-1l1-1v1z"/><path class="shp21" d="M590 218l-1 1v-1l1-1v1z"/><path class="shp19" d="M590 219h1v-1-1h1"/><path class="shp22" d="M592 217h-1-2v-1h-1v2h1v1c1 0 2 0 2-2h1z"/><path class="shp15" d="M595 220h-1v-1h1v1z"/><path class="shp19" d="M595 220h-1v-1h1v1z"/><path class="shp22" d="M594 217v1h-1v2h3v-1h-1l-1-1h-1 1v-1z"/><path class="shp19" d="M594 217v1h-1v2"/><path class="shp8" d="M654 262l-14 59-14 5 28-70v6z"/><path class="shp23" d="M654 262l-14 59-14 5 28-70v6z"/><path class="shp24" d="M636 321l-9 3"/><path class="shp23" d="M636 321l-9 3"/><path class="shp24" d="M640 292l-9 3"/><path class="shp23" d="M640 292l-9 3"/><path class="shp24" d="M636 318l-8 3"/><path class="shp23" d="M636 318l-8 3"/><path class="shp24" d="M637 317l-9 3"/><path class="shp23" d="M637 317l-9 3"/><path class="shp24" d="M637 315l-9 4"/><path class="shp23" d="M637 315l-9 4"/><path class="shp24" d="M637 314l-9 3"/><path class="shp23" d="M637 314l-9 3"/><path class="shp24" d="M637 313l-9 3"/><path class="shp23" d="M637 313l-9 3"/><path class="shp24" d="M637 311l-8 4"/><path class="shp23" d="M637 311l-8 4"/><path class="shp24" d="M638 310l-9 3"/><path class="shp23" d="M638 310l-9 3"/><path class="shp24" d="M638 308l-9 4"/><path class="shp23" d="M638 308l-9 4"/><path class="shp24" d="M638 307l-9 4"/><path class="shp23" d="M638 307l-9 4"/><path class="shp24" d="M638 306l-9 3"/><path class="shp23" d="M638 306l-9 3"/><path class="shp24" d="M638 304l-8 4"/><path class="shp23" d="M638 304l-8 4"/><path class="shp24" d="M639 303l-9 3"/><path class="shp23" d="M639 303l-9 3"/><path class="shp24" d="M639 302l-9 3"/><path class="shp23" d="M639 302l-9 3"/><path class="shp24" d="M639 300l-9 4"/><path class="shp23" d="M639 300l-9 4"/><path class="shp24" d="M639 299l-9 3"/><path class="shp23" d="M639 299l-9 3"/><path class="shp24" d="M640 298l-9 3"/><path class="shp23" d="M640 298l-9 3"/><path class="shp24" d="M640 296l-9 4"/><path class="shp23" d="M640 296l-9 4"/><path class="shp24" d="M640 295l-9 3"/><path class="shp23" d="M640 295l-9 3"/><path class="shp24" d="M640 293l-9 4"/><path class="shp23" d="M640 293l-9 4"/><path class="shp24" d="M636 319l-9 4"/><path class="shp23" d="M636 319l-9 4"/><path class="shp8" d="M649 259l-32 66 9 1 28-70-5 3z"/><path class="shp23" d="M649 259l-32 66 9 1 28-70-5 3z"/><path class="shp7" d="M631 263l-2 2 12 14v1h1l1-1v-1l-12-15zm-4 4l-2 1 13 17 1 1 1-1v-1l-13-17zm-4 3l-2 2 14 19h2l1-1-1-1-14-19zm-5 4l-2 1 17 22h2v-1-1l-17-21zm-5 3l-2 1 19 24 1 1h1l1-1-1-1-19-24zm-4 2l-3 1 22 28h1l1-1v-1l-21-27zm-6 2l-1 1h-1-1l25 32h2v-1-1l-24-31z"/><path class="shp25" d="M631 263l-2 2 12 14v1h1l1-1v-1l-12-15zm-4 4l-2 1 13 17 1 1 1-1v-1l-13-17zm-4 3l-2 2 14 19h2l1-1-1-1-14-19zm-5 4l-2 1 17 22h2v-1-1l-17-21zm-5 3l-2 1 19 24 1 1h1l1-1-1-1-19-24zm-4 2l-3 1 22 28h1l1-1v-1l-21-27zm-6 2l-1 1h-1-1l25 32h2v-1-1l-24-31z"/><path class="shp8" d="M595 283c3 5 5 3 7 1l-3-6-4 2v3z"/><path class="shp23" d="M595 283c3 5 5 3 7 1l-3-6-4 2v3z"/><path class="shp8" d="M599 280c3 6 5 6 7 4l-4-6-3 2z"/><path class="shp23" d="M599 280c3 6 5 6 7 4l-4-6-3 2z"/><path class="shp8" d="M602 280c6 8 9 6 11 2l-12-6 1 4z"/><path class="shp23" d="M602 280c6 8 9 6 11 2l-12-6 1 4z"/><path class="shp8" d="M607 280c4 3 12 7 13-1l-10-3-3 4z"/><path class="shp23" d="M607 280c4 3 12 7 13-1l-10-3-3 4zM610 279l4 2"/><path class="shp8" d="M611 277c3 0 12 8 13-2l-10-2-3 4z"/><path class="shp23" d="M611 277c3 0 12 8 13-2l-10-2-3 4z"/><path class="shp24" d="M605 280l2 3"/><path class="shp23" d="M605 280l2 3M601 281l1 1v2M597 280l1 1v3"/><path class="shp8" d="M609 279c-1 2-4 3-6 0 0 3-5 4-5-1 1 8-5 0-5-1v-2l13 1 3 3z"/><path class="shp23" d="M609 279c-1 2-4 3-6 0 0 3-5 4-5-1 1 8-5 0-5-1v-2l13 1 3 3z"/><path class="shp8" d="M606 277c3 5 7 2 8-2l-5-1-3 3z"/><path class="shp23" d="M606 277c3 5 7 2 8-2l-5-1-3 3z"/><path class="shp8" d="M616 274c8 3 11 1 12-3l-12-1v4z"/><path class="shp23" d="M616 274c8 3 11 1 12-3l-12-1v4zM614 275l1 1 1 1 1 1h1"/><path class="shp8" d="M608 275c7 3 8 0 9-3l-8-2-1 5z"/><path class="shp23" d="M608 275c7 3 8 0 9-3l-8-2-1 5z"/><path class="shp8" d="M618 270c5 3 13 4 12-3l-9-1-3 4z"/><path class="shp23" d="M618 270c5 3 13 4 12-3l-9-1-3 4z"/><path class="shp24" d="M624 270l-5-2"/><path class="shp23" d="M624 270l-5-2M617 272l1 1h2l1 1"/><path class="shp8" d="M611 271c6 4 9 1 9-3l-8-2-1 5z"/><path class="shp23" d="M611 271c6 4 9 1 9-3l-8-2-1 5z"/><path class="shp8" d="M622 266c12 4 19-1 21-4l-20 1-1 3z"/><path class="shp23" d="M622 266c12 4 19-1 21-4l-20 1-1 3z"/><path class="shp23" d="M623 265l1 1h3"/><path class="shp8" d="M613 268c8 3 9-1 11-4h-11v4z"/><path class="shp23" d="M613 268c8 3 9-1 11-4h-11v4z"/><path class="shp8" d="M624 263c11 4 26-1 30-7h-28l-2 7z"/><path class="shp23" d="M624 263c11 4 26-1 30-7h-28l-2 7zM636 261h-11"/><path class="shp8" d="M627 260c-2 3-3 7-13 5l-1-5h14z"/><path class="shp23" d="M627 260c-2 3-3 7-13 5l-1-5h14z"/><path class="shp8" d="M653 257l-2 4c4 4 8 0 4-2 3-3 0-4-2-2z"/><path class="shp23" d="M653 257l-2 4c4 4 8 0 4-2 3-3 0-4-2-2z"/><path class="shp8" d="M640 254h6l5-1 5-1 6-1c1 0 2 1 0 2-9 7-31 7-34 5l1-2 11-2z"/><path class="shp23" d="M640 254h6l5-1 5-1 6-1c1 0 2 1 0 2-9 7-31 7-34 5l1-2 11-2z"/><path class="shp8" d="M613 262c8 1 15-1 18-5l-5-3-13 5v3z"/><path class="shp23" d="M613 262c8 1 15-1 18-5l-5-3-13 5v3zM614 260h4M617 264h-1-1v-1h-1M614 267h2v1M613 271h3M610 274h3M607 276h1v1h1v1M599 275l1 1v3M604 277v1h1v1l1 1"/><path class="shp24" d="M596 275l1 3"/><path class="shp23" d="M596 275l1 3"/><path class="shp8" d="M619 318c1-1 2-2 4-1l2 2c1 1 0 3-1 3-1 1-2 2-3 1l-1-1-1-1v-2-1z"/><path class="shp26" d="M619 318c1-1 2-2 4-1l2 2c1 1 0 3-1 3-1 1-2 2-3 1l-1-1-1-1v-2-1z"/><path class="shp8" d="M582 283c0-3-2-3-2-5s2-3 4-4c1-1 2-4 4-3 0-3 0-5-2-5h-1l-1-1v-1l1-1-2-2c3-2 1-6 3-7-1-5 6-4 7 0 4-1 5 0 7 2l2 5-3 3-2 1-2-1v2l-1 1 1 2v1l7 2c4 0 8-6 7-9-2-7 6-10 14-10 7 0 12 2 19-1-1 5-7 6-14 5-4 5-14-3-14 6 1 2 1 4-1 5l1 1v1l-1 1-1 1-1 1v1l-1 1h-1c-3 3-6 3-9 1-2-1-4-1-6 1 5 7-1 8 2 12 3 5 7 23 24 27 3-1 4 7-2 5-30-4-36-31-36-38z"/><path class="shp23" d="M582 283c0-3-2-3-2-5s2-3 4-4c1-1 2-4 4-3 0-3 0-5-2-5h-1l-1-1v-1l1-1-2-2c3-2 1-6 3-7-1-5 6-4 7 0 4-1 5 0 7 2l2 5-3 3-2 1-2-1v2l-1 1 1 2v1l7 2c4 0 8-6 7-9-2-7 6-10 14-10 7 0 12 2 19-1-1 5-7 6-14 5-4 5-14-3-14 6 1 2 1 4-1 5l1 1v1l-1 1-1 1-1 1v1l-1 1h-1c-3 3-6 3-9 1-2-1-4-1-6 1 5 7-1 8 2 12 3 5 7 23 24 27 3-1 4 7-2 5-30-4-36-31-36-38z"/><path class="shp8" d="M599 256c1 1 0 3 2 5-2 0-2 2-2 3l1 1c-6 5 9 2 3-4 4-4 0-7-4-5z"/><path class="shp23" d="M599 256c1 1 0 3 2 5-2 0-2 2-2 3l1 1c-6 5 9 2 3-4 4-4 0-7-4-5zM601 258c1 2 2 3 0 5"/><path class="shp23" d="M598 256v6l-1 2"/><path class="shp24" d="M586 266h2"/><path class="shp23" d="M586 266h2M590 255c3-1 5 0 7 1M590 256c2-1 4 1 6 1"/><path d="M591 264c3-1 3-5 2-5-2 0 0 2-1 3v1h-1v1z" fill="none" stroke="#000" stroke-linejoin="bevel" stroke-width=".492"/><path class="shp23" d="M593 263l1 1h1M586 254c7 5 3 8 4 8l1-1M587 257h-1M586 258l1 1h-1v1"/><path class="shp15" d="M586 258v1h-1l1-1z"/><path class="shp23" d="M586 272h1v-1h1M595 270l-1 1-1 1v1l-1 1M584 276c-4 6 6 10 6 3M586 279l1 1M636 255c3 3 6 1 10 1"/><path class="shp24" d="M627 256l1 1"/><path class="shp23" d="M627 256l1 1"/><path class="shp8" d="M585 293c-5 4 3 8 2 12 3-2 1-6 0-9 2 0 2 3 2 5s1 2 2 1c2 4 6 3 3-2 3 4 2 1 1-1s-3-4-1-4c1-1 1 7 4 6 2-1-2-5 0-6 1 0 0 7 5 5l-1-1c-3-1 0-8-6-8l-11 2z"/><path class="shp23" d="M585 293c-5 4 3 8 2 12 3-2 1-6 0-9 2 0 2 3 2 5s1 2 2 1c2 4 6 3 3-2 3 4 2 1 1-1s-3-4-1-4c1-1 1 7 4 6 2-1-2-5 0-6 1 0 0 7 5 5l-1-1c-3-1 0-8-6-8l-11 2z"/><path class="shp15" d="M590 293v2h1v-2h-1z"/><path class="shp23" d="M590 293v2h1v-2h-1z"/><path class="shp24" d="M585 293v2"/><path class="shp26" d="M585 293v2"/><path class="shp23" d="M595 292h1v1h1"/><path class="shp8" d="M596 289c-2 2-6 3-12 2h-1l-1 1 1 1h1c6 1 11 0 13-2h1v-1-1h-1-1z"/><path class="shp25" d="M596 289c-2 2-6 3-12 2h-1l-1 1 1 1h1c6 1 11 0 13-2h1v-1-1h-1-1zM586 296c-1 3 2 2 2 8"/></svg>