<svg version="1.2" baseProfile="tiny-ps" xmlns="http://www.w3.org/2000/svg" viewBox="0 0 540 360" width="900" height="600">
	<style>
		tspan { white-space:pre }
		.shp0 { fill: #d4000e } 
		.shp1 { fill: #ffcc00;stroke: #332c2b;stroke-width: 0.5 } 
		.shp2 { fill: #ffffff;stroke: #000000;stroke-width: 0.881 } 
		.shp3 { fill: none;stroke: #000000;stroke-width: 0.488 } 
		.shp4 { fill: none;stroke: #000000;stroke-width: 0.517 } 
		.shp5 { fill: #0044aa;stroke: #000000;stroke-width: 0.517 } 
		.shp6 { fill: #ffcc00;stroke: #000000;stroke-width: 0.5 } 
		.shp7 { fill: #ffcc00;stroke: #000000;stroke-width: 0.497 } 
		.shp8 { fill: none;stroke: #000000;stroke-width: 0.5 } 
		.shp9 { fill: #000000;stroke: #000000;stroke-width: 1.389 } 
	</style>
	<g id="layer1">
		<path id="rect4142" class="shp0" d="M0 0L540 0L540 360L0 360L0 0Z" />
		<g id="g5018">
			<g id="g6967">
				<path id="polygon23-0" class="shp1" d="M268.73 92.6L271.7 101L280.61 101.23L273.53 106.65L276.07 115.2L268.73 110.15L261.39 115.2L263.92 106.65L256.85 101.23L265.76 101L268.73 92.6Z" />
				<path id="path3803-7" fill-rule="evenodd" class="shp2" d="M321.77 175.19C321.77 204.44 298.06 228.15 268.81 228.15C239.56 228.15 215.85 204.44 215.85 175.19C215.85 145.94 239.56 122.23 268.81 122.23C298.06 122.23 321.77 145.94 321.77 175.19L321.77 175.19Z" />
				<path id="path3830-1" class="shp3" d="M242.07 129.84C242.07 129.84 266.54 140.54 295.35 130.09" />
				<path id="path3832-7" class="shp4" d="M247.4 223.85C247.4 223.85 269.97 213.54 291.71 222.73" />
				<path id="path3836-7" class="shp4" d="M289.2 221.62C289.2 221.62 341.32 178.98 291.99 131.04" />
				<path id="path3838-7" class="shp4" d="M283.91 220.5C283.91 220.5 316.24 171.45 285.02 132.72" />
				<path id="path3840-7" class="shp4" d="M276.38 219.11C276.38 219.11 303.42 179.54 276.11 134.39" />
				<path id="path3842-3" class="shp4" d="M249.67 222.45C249.67 222.45 197 179.26 246.33 131.32" />
				<path id="path3844-3" class="shp4" d="M254.41 220.78C254.41 220.78 222.08 171.73 253.3 133" />
				<path id="path3846-5" class="shp4" d="M261.94 219.39C261.94 219.39 234.9 179.81 262.21 134.67" />
				<path id="path3848-9" class="shp4" d="M321.53 176.75C321.53 176.75 288.37 168.67 215.35 176.19" />
				<path id="path3850-9" class="shp4" d="M317.35 155.29C298.96 162.81 241.55 165.6 220.09 156.13" />
				<path id="path3852-8" class="shp4" d="M231.24 212.98C231.24 212.98 269.7 197.65 305.92 211.03" />
				<path id="path3854-1" class="shp4" d="M316.79 196.81C316.79 196.81 279.17 177.03 221.2 197.37" />
				<path id="path3856-8" class="shp4" d="M270.53 218.27L268.3 135.23" />
				<path id="path3362-2" fill-rule="evenodd" class="shp5" d="M277.51 134.97C275.12 140.02 268.65 140.14 264.16 137.89C262.37 137 261.88 135.11 260.5 134.42L246.97 132.22C245.48 134.4 244.62 136.79 241.85 137.71C240.94 138.01 240.12 138.94 239.29 139.36C236.73 140.64 228.85 140.44 233.62 145.21C233.79 145.38 234.56 145.24 234.71 145.39C237.72 148.4 243.68 139.91 246.97 139.91C248.23 139.91 250.08 137.77 250.08 140.27C250.08 140.71 250.59 141.99 250.26 142.65C249.05 145.07 247.49 147.6 245.32 148.68C243.4 149.65 238.88 150.37 237.46 151.79C237.18 152.07 236.19 151.85 235.81 151.98C233.07 152.89 228.82 154.82 230.69 158.56C231.26 159.7 232.55 160.77 233.62 161.48C234.11 161.82 235.42 163.11 235.81 163.5C236.09 163.78 236.64 163.53 237.09 163.68C241.3 165.08 245.47 164.98 249.53 162.95C249.91 162.76 256.51 161.91 256.66 162.22C257.22 163.33 265.47 166.44 267.63 167.52C268.81 168.11 269.93 168.95 271.11 169.53C272.31 170.13 272.62 172.12 273.67 172.64C274.89 173.25 276.47 173.58 277.87 174.29C279.27 174.98 281.45 170.63 282.99 170.63C283.46 170.63 285.33 170.04 285.74 170.45C286.45 171.16 295.06 172.64 295.79 171.91C296.57 171.14 298.47 171.24 299.27 170.45C301.29 168.42 305.79 165.13 304.39 160.94C304.19 160.33 304.04 158.4 303.66 158.01C303.15 157.5 302.23 155.38 301.65 155.08C299.35 153.94 298.54 150.94 298.54 147.95C298.54 146.31 298.4 144.29 300 144.29C305.08 144.29 304.14 147.82 305.67 150.88C305.89 151.32 306.83 151.68 307.13 151.98C308.22 153.06 309.33 150.33 309.51 149.96C310.65 147.67 307.83 145.87 307.13 144.48C307.01 144.24 305.93 143.71 305.67 143.2C304.32 140.5 301.32 140.11 298.35 138.63C298.11 138.5 298.09 137.87 297.62 137.71C294.92 136.81 291.3 134.21 290.13 131.86L277.51 134.97Z" />
				<path id="path3366-6" fill-rule="evenodd" class="shp5" d="M241.66 172.46C239.57 170.73 234.85 169.28 232.15 170.63C230.52 171.45 229.78 173.25 228.5 174.1C224.71 176.63 222.67 180.38 225.02 185.08C226.19 187.41 234.13 190.83 234.35 191.48C235.1 193.74 236.44 196.03 237.64 198.43C238.21 199.57 238.07 201.59 238.92 202.45C239.32 202.85 244.76 209.96 246.78 207.93C247.19 207.53 248.03 207.43 248.61 206.84C250.77 204.69 248.79 201.36 250.08 198.79C251.69 195.56 255.73 189.98 253.73 185.99C252.63 183.78 246.86 179.93 246.05 178.31C245.65 177.51 242.26 172.81 241.66 172.46L241.66 172.46Z" />
				<path id="path3368-6" fill-rule="evenodd" class="shp5" d="M305.12 185.81C303.75 186.4 296.78 185.37 296.16 185.99C295.85 186.3 294.06 187.09 293.42 187.09C292.77 187.09 289.89 188.13 289.21 187.45C288.88 187.12 285.11 185.52 284.64 185.99C283.59 187.04 279.61 193.58 280.25 195.5C280.86 197.32 284.3 199 285.55 200.25C286.34 201.04 293.34 208.87 293.42 209.03C293.91 210.02 298.17 209.58 299.45 209.58C301.15 209.58 302.31 208.55 303.48 207.39C304.39 206.47 305.58 206.2 306.77 205.01C309.02 202.76 307.86 198.68 307.86 195.5C307.86 193.53 306.81 191.92 306.04 190.38C305.41 189.12 305.63 187.08 305.12 185.81Z" />
				<g id="g6167">
					<path id="path5391" class="shp6" d="M331.4 126.01C331.31 125.76 328.62 117.95 316.47 111.03C312.84 108.61 307.69 106.81 305.14 105.74L305 106.9C314.66 110.64 325.08 116.17 330.25 126.21L331.4 126.01Z" />
					<path id="path4771-7" class="shp6" d="M232.74 106.27C232.38 106.04 232.41 106.23 231.46 106.28C230.52 106.33 231.12 104.74 227.22 106.29C222.46 108.18 223.46 111.32 223.46 111.32C223.46 111.32 225.37 113.99 229.25 111.35C232.88 108.87 231.8 108.75 232.2 108.12C232.6 107.48 232.66 107.63 232.97 107.37C233.38 107.03 233 106.42 232.74 106.26L232.74 106.27Z" />
					<path id="path4771-11" class="shp6" d="M230.09 111.78C229.73 111.56 229.76 111.74 228.81 111.81C227.87 111.88 228.45 110.28 224.57 111.88C219.84 113.83 220.88 116.96 220.88 116.96C220.88 116.96 222.82 119.6 226.67 116.91C230.27 114.38 229.18 114.28 229.57 113.64C229.97 113 230.03 113.14 230.33 112.88C230.74 112.54 230.35 111.93 230.09 111.78L230.09 111.78Z" />
					<path id="path4771-52" class="shp6" d="M223.58 109.78C223.17 109.68 223.25 109.84 222.37 110.18C221.49 110.52 221.57 108.83 218.33 111.5C214.39 114.76 216.3 117.44 216.3 117.44C216.3 117.44 218.94 119.4 221.82 115.69C224.51 112.21 223.45 112.44 223.63 111.71C223.82 110.98 223.92 111.1 224.14 110.76C224.42 110.31 223.87 109.85 223.58 109.78L223.58 109.78Z" />
					<path id="path4771-76" class="shp6" d="M225.03 117.32C224.66 117.1 224.69 117.28 223.75 117.35C222.81 117.42 223.38 115.83 219.5 117.44C214.78 119.41 215.84 122.53 215.84 122.53C215.84 122.53 217.79 125.17 221.62 122.46C225.22 119.92 224.13 119.82 224.52 119.18C224.91 118.53 224.97 118.68 225.27 118.42C225.68 118.07 225.29 117.47 225.03 117.32L225.03 117.32Z" />
					<path id="path4771-22" class="shp6" d="M217.06 116.67C216.65 116.59 216.74 116.75 215.87 117.14C215.01 117.52 215.01 115.82 211.91 118.66C208.14 122.12 210.19 124.7 210.19 124.7C210.19 124.7 212.92 126.51 215.61 122.66C218.12 119.05 217.07 119.33 217.22 118.59C217.37 117.85 217.48 117.97 217.67 117.62C217.93 117.15 217.36 116.72 217.06 116.67L217.06 116.67Z" />
					<path id="path4771-22-0-2" class="shp6" d="M211.65 121.72C211.2 121.65 211.3 121.8 210.38 122.16C209.47 122.53 209.46 120.93 206.17 123.6C202.17 126.85 204.35 129.27 204.35 129.27C204.35 129.27 207.25 130.98 210.1 127.36C212.77 123.96 211.65 124.23 211.81 123.53C211.97 122.84 212.08 122.95 212.29 122.62C212.57 122.18 211.96 121.78 211.65 121.72L211.65 121.72Z" />
					<path id="path4771-3" class="shp6" d="M206.15 127.96C205.73 127.96 205.85 128.11 205.07 128.65C204.3 129.19 203.98 127.52 201.47 130.89C198.41 134.99 200.91 137.14 200.91 137.14C200.91 137.14 203.93 138.41 205.85 134.12C207.64 130.1 206.66 130.58 206.67 129.82C206.67 129.07 206.8 129.16 206.93 128.79C207.1 128.28 206.46 127.96 206.15 127.96L206.15 127.96Z" />
					<path id="path4771-1" class="shp6" d="M200.05 133.7C199.63 133.76 199.77 133.88 199.08 134.53C198.39 135.17 197.83 133.57 195.83 137.26C193.38 141.75 196.16 143.52 196.16 143.52C196.16 143.52 199.34 144.35 200.62 139.84C201.83 135.6 200.92 136.21 200.82 135.47C200.72 134.72 200.86 134.79 200.93 134.4C201.03 133.88 200.35 133.65 200.05 133.7Z" />
					<path id="path4771-16" class="shp6" d="M212.86 134.75C212.44 134.79 212.57 134.92 211.85 135.53C211.13 136.14 210.65 134.51 208.46 138.09C205.8 142.46 208.48 144.37 208.48 144.37C208.48 144.37 211.61 145.36 213.12 140.91C214.54 136.74 213.6 137.31 213.54 136.55C213.48 135.8 213.62 135.88 213.71 135.5C213.83 134.98 213.16 134.72 212.86 134.75L212.86 134.75Z" />
					<path id="path4771-34" class="shp6" d="M209.63 140.73C209.21 140.81 209.35 140.93 208.7 141.61C208.05 142.3 207.4 140.72 205.61 144.52C203.42 149.15 206.29 150.76 206.29 150.76C206.29 150.76 209.51 151.41 210.54 146.83C211.5 142.53 210.63 143.19 210.49 142.45C210.35 141.71 210.5 141.78 210.55 141.39C210.61 140.85 209.92 140.67 209.63 140.73L209.63 140.73Z" />
					<path id="path4771-34-2" class="shp6" d="M206.21 186.26C205.84 186.47 206.01 186.53 205.58 187.38C205.16 188.22 204.08 186.9 203.48 191.06C202.74 196.12 205.96 196.83 205.96 196.83C205.96 196.83 209.22 196.51 208.87 191.82C208.53 187.44 207.9 188.32 207.54 187.66C207.19 186.99 207.35 187.01 207.28 186.62C207.19 186.09 206.47 186.12 206.21 186.26L206.21 186.26Z" />
					<path id="path4771-34-9" class="shp6" d="M193.56 178.78C193.22 179.03 193.4 179.07 193.11 179.97C192.82 180.87 191.55 179.73 191.58 183.94C191.62 189.05 194.91 189.26 194.91 189.26C194.91 189.26 198.09 188.45 197.03 183.87C196.04 179.59 195.54 180.56 195.09 179.95C194.64 179.35 194.8 179.34 194.67 178.97C194.5 178.46 193.8 178.59 193.56 178.78L193.56 178.78Z" />
					<path id="path4771-34-31" class="shp6" d="M194.52 187.42C194.26 187.75 194.44 187.75 194.38 188.69C194.33 189.63 192.82 188.85 193.9 192.91C195.21 197.85 198.45 197.23 198.45 197.23C198.45 197.23 201.33 195.65 199.15 191.49C197.12 187.58 196.88 188.65 196.3 188.17C195.71 187.7 195.86 187.66 195.65 187.32C195.36 186.88 194.71 187.18 194.52 187.42L194.52 187.42Z" />
					<path id="path4771-34-98" class="shp6" d="M195.42 197.75C195.17 198.1 195.36 198.08 195.34 199.02C195.33 199.97 193.79 199.26 195.07 203.26C196.62 208.14 199.82 207.36 199.82 207.36C199.82 207.36 202.62 205.64 200.24 201.58C198.02 197.79 197.84 198.86 197.23 198.42C196.62 197.97 196.77 197.92 196.54 197.6C196.23 197.17 195.59 197.5 195.42 197.75L195.42 197.75Z" />
					<path id="path4771-34-5-6" class="shp6" d="M198.11 206.88C197.94 207.27 198.12 207.22 198.29 208.14C198.47 209.07 196.82 208.69 198.88 212.35C201.39 216.81 204.37 215.4 204.37 215.4C204.37 215.4 206.76 213.15 203.61 209.66C200.67 206.39 200.7 207.48 200.02 207.17C199.33 206.85 199.47 206.77 199.18 206.51C198.78 206.15 198.23 206.6 198.11 206.88L198.11 206.88Z" />
					<path id="path4771-45-1" class="shp6" d="M195.46 140.54C195.05 140.65 195.2 140.76 194.59 141.48C193.98 142.2 193.25 140.67 191.68 144.57C189.78 149.32 192.75 150.76 192.75 150.76C192.75 150.76 196 151.21 196.75 146.57C197.45 142.23 196.62 142.94 196.43 142.21C196.25 141.48 196.4 141.54 196.42 141.14C196.46 140.61 195.75 140.47 195.46 140.54L195.46 140.54Z" />
					<path id="path4771-22-0" class="shp6" d="M219.22 121.72C218.78 121.65 218.88 121.8 217.96 122.16C217.04 122.53 217.04 120.93 213.75 123.6C209.74 126.85 211.92 129.27 211.92 129.27C211.92 129.27 214.83 130.98 217.68 127.36C220.35 123.96 219.23 124.23 219.39 123.53C219.55 122.84 219.66 122.95 219.87 122.62C220.15 122.18 219.54 121.78 219.22 121.72L219.22 121.72Z" />
					<path id="path4771-14" class="shp6" d="M213.14 124.63C212.72 124.64 212.84 124.78 212.08 125.33C211.31 125.89 210.96 124.23 208.51 127.64C205.53 131.8 208.07 133.9 208.07 133.9C208.07 133.9 211.11 135.12 212.95 130.79C214.67 126.75 213.7 127.24 213.69 126.48C213.68 125.73 213.81 125.82 213.93 125.44C214.09 124.93 213.45 124.63 213.14 124.63L213.14 124.63Z" />
					<path id="path4771-34-1" class="shp6" d="M210.79 131.09C210.36 131.11 210.49 131.25 209.74 131.82C208.99 132.4 208.6 130.75 206.24 134.23C203.38 138.47 205.97 140.5 205.97 140.5C205.97 140.5 209.05 141.63 210.77 137.26C212.37 133.16 211.41 133.68 211.39 132.93C211.36 132.17 211.49 132.26 211.6 131.88C211.75 131.36 211.09 131.08 210.79 131.09L210.79 131.09Z" />
					<path id="path4771-2" class="shp6" d="M205.73 136.18C205.3 136.18 205.42 136.32 204.65 136.86C203.87 137.4 203.55 135.73 201.03 139.09C197.96 143.18 200.45 145.34 200.45 145.34C200.45 145.34 203.47 146.62 205.4 142.34C207.21 138.33 206.22 138.8 206.23 138.04C206.24 137.29 206.37 137.39 206.5 137.01C206.67 136.5 206.03 136.18 205.73 136.18L205.73 136.18Z" />
					<path id="path4771-5" class="shp6" d="M198.82 142.19C198.41 142.31 198.57 142.41 197.97 143.14C197.37 143.87 196.61 142.36 195.1 146.28C193.28 151.06 196.26 152.45 196.26 152.45C196.26 152.45 199.52 152.85 200.2 148.2C200.83 143.85 200.02 144.57 199.82 143.85C199.62 143.12 199.77 143.17 199.79 142.78C199.82 142.24 199.11 142.11 198.82 142.19L198.82 142.19Z" />
					<path id="path4771-45-4" class="shp6" d="M194.66 148.64C194.26 148.79 194.42 148.88 193.88 149.66C193.34 150.43 192.46 148.98 191.28 153.01C189.84 157.92 192.92 159.07 192.92 159.07C192.92 159.07 196.2 159.21 196.51 154.52C196.79 150.13 196.04 150.92 195.78 150.21C195.53 149.5 195.68 149.54 195.67 149.15C195.65 148.61 194.94 148.54 194.66 148.64L194.66 148.64Z" />
					<path id="path4771-45-2" class="shp6" d="M193.17 157.84C192.81 158.06 192.98 158.12 192.6 158.98C192.21 159.85 191.08 158.58 190.66 162.76C190.15 167.85 193.4 168.41 193.4 168.41C193.4 168.41 196.65 167.94 196.08 163.28C195.55 158.91 194.95 159.82 194.57 159.17C194.18 158.52 194.34 158.54 194.26 158.15C194.14 157.63 193.43 157.69 193.17 157.84L193.17 157.84Z" />
					<path id="path4771-45-0" class="shp6" d="M193.69 168.6C193.35 168.85 193.53 168.89 193.21 169.78C192.89 170.67 191.66 169.5 191.58 173.71C191.49 178.82 194.77 179.11 194.77 179.11C194.77 179.11 197.97 178.39 197.03 173.78C196.15 169.47 195.62 170.43 195.19 169.81C194.76 169.19 194.92 169.2 194.8 168.82C194.64 168.31 193.94 168.42 193.69 168.6L193.69 168.6Z" />
					<path id="path5154" class="shp6" d="M193.31 139.42C191.78 140.91 171.01 172.56 201.7 218.38C200.66 219.05 183.59 162.03 193.31 139.42Z" />
					<path id="path4771-761" class="shp6" d="M204.06 144.34C203.65 144.46 203.81 144.56 203.21 145.29C202.61 146.02 201.85 144.5 200.35 148.43C198.52 153.21 201.5 154.59 201.5 154.59C201.5 154.59 204.76 155 205.44 150.35C206.07 146 205.26 146.72 205.06 145.99C204.86 145.26 205.01 145.32 205.03 144.92C205.06 144.39 204.35 144.26 204.06 144.34L204.06 144.34Z" />
					<path id="path4771-45" class="shp6" d="M198.58 150.74C198.17 150.85 198.32 150.96 197.71 151.68C197.1 152.4 196.36 150.87 194.8 154.77C192.9 159.52 195.87 160.95 195.87 160.95C195.87 160.95 199.12 161.41 199.87 156.77C200.57 152.43 199.74 153.14 199.55 152.41C199.37 151.68 199.52 151.73 199.54 151.34C199.58 150.8 198.87 150.66 198.58 150.74L198.58 150.74Z" />
					<path id="path4771-82" class="shp6" d="M197.27 159.56C196.88 159.73 197.04 159.81 196.54 160.61C196.04 161.41 195.09 160.01 194.11 164.09C192.91 169.07 196.06 170.06 196.06 170.06C196.06 170.06 199.34 170.04 199.41 165.34C199.48 160.94 198.76 161.77 198.47 161.07C198.18 160.37 198.34 160.41 198.3 160.01C198.26 159.48 197.55 159.44 197.27 159.56L197.27 159.56Z" />
					<path id="path4771-8" class="shp6" d="M197.36 167.91C196.98 168.12 197.16 168.18 196.73 169.03C196.3 169.87 195.23 168.55 194.62 172.71C193.87 177.77 197.09 178.48 197.09 178.48C197.09 178.48 200.36 178.17 200.01 173.48C199.68 169.09 199.04 169.98 198.69 169.31C198.34 168.64 198.5 168.66 198.43 168.27C198.34 167.75 197.62 167.77 197.36 167.91L197.36 167.91Z" />
					<path id="path4771-85" class="shp6" d="M208.36 147.93C207.95 148.03 208.1 148.14 207.47 148.84C206.84 149.55 206.14 148 204.48 151.87C202.47 156.57 205.4 158.07 205.4 158.07C205.4 158.07 208.64 158.61 209.5 153.99C210.3 149.66 209.46 150.35 209.29 149.62C209.12 148.88 209.27 148.94 209.3 148.55C209.35 148.02 208.65 147.86 208.36 147.93L208.36 147.93Z" />
					<path id="path4771-23" class="shp6" d="M206.54 156.68C206.13 156.79 206.28 156.89 205.67 157.61C205.06 158.33 204.32 156.81 202.76 160.71C200.86 165.46 203.83 166.89 203.83 166.89C203.83 166.89 207.08 167.34 207.83 162.71C208.53 158.36 207.7 159.07 207.51 158.34C207.33 157.61 207.47 157.67 207.5 157.27C207.53 156.74 206.83 156.6 206.54 156.68L206.54 156.68Z" />
					<path id="path4771-34-77" class="shp6" d="M205.3 165.85C204.92 166.05 205.09 166.12 204.64 166.95C204.19 167.78 203.15 166.44 202.44 170.58C201.56 175.62 204.76 176.41 204.76 176.41C204.76 176.41 208.04 176.18 207.81 171.48C207.59 167.09 206.93 167.96 206.59 167.28C206.26 166.61 206.42 166.63 206.36 166.24C206.28 165.71 205.56 165.72 205.3 165.85L205.3 165.85Z" />
					<path id="path4771-89" class="shp6" d="M202.43 153.54C202.03 153.69 202.2 153.78 201.65 154.55C201.1 155.32 200.24 153.86 199.02 157.89C197.53 162.78 200.61 163.95 200.61 163.95C200.61 163.95 203.89 164.13 204.23 159.44C204.56 155.05 203.79 155.83 203.55 155.12C203.3 154.41 203.45 154.45 203.44 154.06C203.43 153.52 202.72 153.44 202.43 153.54L202.43 153.54Z" />
					<path id="path4771-27" class="shp6" d="M200.69 163.07C200.34 163.3 200.51 163.35 200.16 164.23C199.81 165.11 198.63 163.89 198.39 168.09C198.09 173.19 201.36 173.61 201.36 173.61C201.36 173.61 204.58 173.01 203.82 168.38C203.11 164.04 202.55 164.97 202.14 164.34C201.73 163.7 201.89 163.71 201.79 163.33C201.65 162.81 200.94 162.9 200.69 163.07L200.69 163.07Z" />
					<path id="path4771-31" class="shp6" d="M203.22 171.89C202.82 172.02 202.98 172.12 202.41 172.87C201.84 173.63 201.01 172.14 199.67 176.13C198.04 180.97 201.09 182.24 201.09 182.24C201.09 182.24 204.36 182.51 204.84 177.84C205.3 173.46 204.51 174.22 204.29 173.5C204.06 172.78 204.21 172.83 204.21 172.43C204.22 171.9 203.51 171.79 203.22 171.89L203.22 171.89Z" />
					<path id="path4771-54" class="shp6" d="M204.82 177.69C204.41 177.8 204.57 177.9 203.97 178.64C203.37 179.37 202.61 177.85 201.1 181.77C199.27 186.55 202.26 187.94 202.26 187.94C202.26 187.94 205.52 188.34 206.2 183.69C206.83 179.34 206.01 180.06 205.82 179.34C205.62 178.61 205.77 178.66 205.79 178.27C205.82 177.73 205.11 177.6 204.82 177.69L204.82 177.69Z" />
					<path id="path4771-9" class="shp6" d="M197.77 175.26C197.42 175.51 197.6 175.55 197.28 176.44C196.95 177.33 195.73 176.14 195.6 180.34C195.44 185.46 198.72 185.79 198.72 185.79C198.72 185.79 201.93 185.1 201.04 180.49C200.22 176.17 199.68 177.12 199.26 176.5C198.83 175.87 198.99 175.88 198.88 175.5C198.73 174.98 198.02 175.09 197.77 175.26Z" />
					<path id="path4771" class="shp6" d="M199.64 182.16C199.26 182.36 199.43 182.43 199 183.27C198.56 184.11 197.5 182.78 196.85 186.93C196.06 191.99 199.27 192.72 199.27 192.72C199.27 192.72 202.54 192.44 202.23 187.75C201.95 183.36 201.3 184.24 200.95 183.57C200.61 182.9 200.77 182.92 200.7 182.53C200.62 182 199.9 182.02 199.64 182.16L199.64 182.16Z" />
					<path id="path4771-4" class="shp6" d="M201.54 188.19C201.24 188.5 201.43 188.51 201.27 189.44C201.11 190.38 199.7 189.44 200.35 193.59C201.15 198.64 204.43 198.36 204.43 198.36C204.43 198.36 207.46 197.08 205.73 192.72C204.11 188.63 203.76 189.66 203.22 189.13C202.69 188.59 202.85 188.57 202.67 188.22C202.42 187.74 201.75 187.98 201.54 188.19L201.54 188.19Z" />
					<path id="path4771-34-8" class="shp6" d="M204.19 196.48C203.95 196.84 204.14 196.82 204.15 197.76C204.16 198.71 202.6 198.04 203.99 202.01C205.67 206.83 208.85 205.97 208.85 205.97C208.85 205.97 211.6 204.17 209.12 200.19C206.8 196.45 206.64 197.53 206.02 197.1C205.4 196.67 205.55 196.62 205.31 196.3C204.98 195.88 204.36 196.23 204.19 196.48L204.19 196.48Z" />
					<path id="path4771-34-7" class="shp6" d="M209.55 203.23C209.24 203.52 209.42 203.54 209.23 204.47C209.03 205.39 207.65 204.39 208.12 208.57C208.69 213.65 211.98 213.51 211.98 213.51C211.98 213.51 215.06 212.38 213.53 207.94C212.1 203.78 211.7 204.8 211.19 204.24C210.68 203.68 210.84 203.66 210.68 203.3C210.45 202.82 209.77 203.02 209.55 203.23L209.55 203.23Z" />
					<path id="path4771-34-3" class="shp6" d="M198.07 192.12C197.79 192.44 197.98 192.45 197.87 193.38C197.76 194.32 196.3 193.46 197.16 197.57C198.21 202.58 201.47 202.13 201.47 202.13C201.47 202.13 204.43 200.71 202.48 196.43C200.66 192.43 200.37 193.48 199.81 192.97C199.25 192.47 199.4 192.43 199.2 192.09C198.94 191.63 198.27 191.9 198.07 192.12L198.07 192.12Z" />
					<path id="path4771-34-4" class="shp6" d="M200.52 200.86C200.34 201.25 200.52 201.2 200.68 202.13C200.83 203.06 199.19 202.64 201.16 206.35C203.55 210.87 206.56 209.53 206.56 209.53C206.56 209.53 209.01 207.35 205.96 203.78C203.1 200.44 203.1 201.53 202.42 201.2C201.75 200.87 201.89 200.79 201.6 200.52C201.21 200.14 200.65 200.59 200.52 200.86L200.52 200.86Z" />
					<path id="path4771-34-6" class="shp6" d="M205.09 208.93C204.91 209.32 205.09 209.27 205.24 210.2C205.39 211.13 203.75 210.7 205.7 214.42C208.07 218.95 211.09 217.63 211.09 217.63C211.09 217.63 213.55 215.46 210.51 211.87C207.67 208.52 207.67 209.61 206.99 209.28C206.31 208.94 206.46 208.87 206.17 208.59C205.79 208.22 205.22 208.66 205.09 208.93L205.09 208.93Z" />
					<path id="path4771-34-5" class="shp6" d="M211.55 212.13C211.33 212.49 211.52 212.46 211.58 213.4C211.64 214.35 210.05 213.76 211.64 217.65C213.57 222.39 216.7 221.35 216.7 221.35C216.7 221.35 219.35 219.42 216.67 215.57C214.15 211.96 214.05 213.04 213.41 212.65C212.77 212.25 212.91 212.19 212.66 211.89C212.31 211.48 211.71 211.87 211.55 212.13L211.55 212.13Z" />
					<path id="path5160" class="shp6" d="M254.27 251.85C254.27 251.85 240.16 237.46 234.87 230.08C229.58 222.71 231.63 219.28 217.54 210.97C217.54 210.97 221.99 230.55 234.19 238.99C246.39 247.43 238.32 242.13 254.27 251.85Z" />
					<path id="path5162" class="shp6" d="M254.62 253.64C254.62 253.64 220.93 229.88 216.55 224.26C212.17 218.64 203.05 207.91 203.05 207.91C203.05 207.91 207.46 224.9 219.2 232.56C230.93 240.22 235.29 244.95 254.62 253.64L254.62 253.64Z" />
					<path id="path5158" class="shp6" d="M256.19 253.34C256.19 253.34 222.91 249.68 208.97 233.7C195.03 217.72 186.31 202.79 186.58 200C186.58 200 213.67 229.84 221.67 235.06C230.28 240.69 234.12 242.63 256.19 253.34Z" />
					<path id="path5156" class="shp6" d="M255.29 252.88C255.29 252.88 239.51 256.29 227.38 248.71C215.26 241.13 211.97 237.6 208.81 236.96C208.81 236.96 224.6 242.52 232.05 246.82C239.51 251.11 242.66 251.24 255.29 252.88L255.29 252.88Z" />
					<path id="path5391-0" class="shp7" d="M330.13 128.31C330.14 128.04 330.54 119.91 321.83 109.11C319.35 105.56 315.23 102.02 313.26 100.1L312.71 101.1C320.29 108.08 327.91 116.98 328.99 128.07L330.13 128.31Z" />
					<path id="path5164" class="shp6" d="M328.37 121.19L329.2 127.83C329.84 132.98 336.56 130.46 333.45 126.15C332.09 124.26 328.37 121.19 328.37 121.19L328.37 121.19Z" />
					<path id="path5391-9" class="shp6" d="M335.71 140.33C335.67 140.07 334.66 131.88 324.22 122.58C321.17 119.46 316.51 116.63 314.24 115.05L313.86 116.15C322.54 121.82 331.57 129.39 334.54 140.29L335.71 140.33Z" />
					<path id="path5164-8" class="shp6" d="M327.54 127.26L328.67 133.86C329.54 138.97 336.13 136.15 332.84 131.99C331.39 130.16 327.54 127.26 327.54 127.26L327.54 127.26Z" />
					<path id="path5391-7" class="shp6" d="M332.89 146.78C332.81 146.53 330.47 138.61 318.64 131.15C315.12 128.58 310.05 126.56 307.55 125.37L307.36 126.52C316.85 130.68 327.01 136.67 331.73 146.93L332.89 146.78Z" />
					<path id="path5164-6" class="shp6" d="M333.25 126.88L333.13 133.58C333.05 138.76 340.05 137.21 337.58 132.51C336.49 130.44 333.25 126.88 333.25 126.88L333.25 126.88Z" />
					<path id="path5391-3" class="shp6" d="M335.63 145.09C335.59 144.83 334.55 136.64 324.08 127.38C321.01 124.27 316.34 121.46 314.06 119.89L313.69 120.99C322.39 126.63 331.45 134.17 334.46 145.06L335.63 145.09Z" />
					<path id="path5164-0" class="shp6" d="M332.51 133.64L332.21 140.33C331.97 145.51 339.01 144.16 336.68 139.39C335.65 137.29 332.51 133.64 332.51 133.64Z" />
					<path id="path5391-72" class="shp6" d="M337.33 166.84C337.3 166.58 336.67 158.35 326.68 148.57C323.77 145.31 319.25 142.27 317.05 140.58L316.63 141.67C325.03 147.73 333.7 155.72 336.16 166.75L337.33 166.84Z" />
					<path id="path5164-2" class="shp6" d="M331.18 137.02L330.32 143.66C329.65 148.8 336.78 148.04 334.86 143.1C334.01 140.92 331.18 137.02 331.18 137.02Z" />
					<path id="path5391-6" class="shp6" d="M339.31 142.73C339.37 142.46 341.58 134.51 335.49 121.92C333.86 117.87 330.64 113.47 329.14 111.14L328.38 112.02C334.22 120.57 339.67 131.03 338.24 142.24L339.31 142.73Z" />
					<path id="path5164-4" class="shp6" d="M337.77 136.28L336.42 142.84C335.37 147.91 342.54 147.69 340.99 142.62C340.3 140.38 337.77 136.28 337.77 136.28L337.77 136.28Z" />
					<path id="path5391-01" class="shp6" d="M343.15 156.57C343.27 156.33 347.06 148.99 343.69 135.42C342.94 131.13 340.68 126.16 339.7 123.57L338.77 124.27C342.73 133.85 345.91 145.2 342.21 155.87L343.15 156.57Z" />
					<path id="path5164-86" class="shp6" d="M335.56 142.08L334.75 148.73C334.13 153.88 341.25 153.06 339.28 148.13C338.42 145.96 335.56 142.08 335.56 142.08L335.56 142.08Z" />
					<path id="path5391-65" class="shp6" d="M332.66 194.44C332.76 194.19 336.1 186.65 331.91 173.3C330.9 169.06 328.35 164.24 327.21 161.72L326.32 162.47C330.86 171.79 334.72 182.93 331.67 193.81L332.66 194.44Z" />
					<path id="path5164-5" class="shp6" d="M341.23 143.04L339.52 149.51C338.2 154.53 345.37 154.69 344.09 149.54C343.53 147.27 341.23 143.04 341.23 143.04L341.23 143.04Z" />
					<path id="path5391-75" class="shp6" d="M335.91 186.75C335.99 186.5 338.56 178.65 333.06 165.79C331.63 161.67 328.61 157.13 327.23 154.73L326.42 155.57C331.86 164.39 336.82 175.09 334.87 186.22L335.91 186.75Z" />
					<path id="path5164-09" class="shp6" d="M333.69 145.32L332.69 151.94C331.92 157.07 339.07 156.46 337.24 151.48C336.44 149.28 333.69 145.32 333.69 145.32Z" />
					<path id="path5164-00" class="shp6" d="M338.84 149.96L336.97 156.39C335.53 161.38 342.69 161.71 341.54 156.53C341.04 154.25 338.84 149.96 338.84 149.96Z" />
					<path id="path5164-61" class="shp6" d="M343.01 151.22L341.14 157.65C339.69 162.63 346.85 162.98 345.71 157.8C345.21 155.52 343.01 151.22 343.01 151.22Z" />
					<path id="path5164-3" class="shp6" d="M336.42 153.75L334.58 160.19C333.15 165.18 340.32 165.49 339.15 160.31C338.63 158.04 336.42 153.75 336.42 153.75L336.42 153.75Z" />
					<path id="path5164-89" class="shp6" d="M340.47 158.01L338.33 164.36C336.67 169.27 343.81 169.92 342.89 164.7C342.48 162.4 340.47 158.01 340.47 158.01Z" />
					<path id="path5164-34" class="shp6" d="M344.77 159.9L342.48 166.19C340.7 171.06 347.82 171.88 347.03 166.63C346.67 164.33 344.77 159.9 344.77 159.9L344.77 159.9Z" />
					<path id="path5164-46" class="shp6" d="M337.08 162.86L335.35 169.34C334.01 174.35 341.18 174.53 339.92 169.37C339.37 167.11 337.08 162.86 337.08 162.86L337.08 162.86Z" />
					<path id="path5164-06" class="shp6" d="M341.25 165.97L339.08 172.31C337.4 177.21 344.54 177.89 343.64 172.66C343.24 170.36 341.25 165.97 341.25 165.97Z" />
					<path id="path5164-618" class="shp6" d="M345.63 168.72L342.67 174.73C340.37 179.38 347.36 180.97 347.14 175.67C347.04 173.33 345.63 168.72 345.63 168.72Z" />
					<path id="path5164-49" class="shp6" d="M338.54 171.44L335.67 177.49C333.45 182.17 340.47 183.65 340.16 178.35C340.02 176.02 338.54 171.44 338.54 171.44L338.54 171.44Z" />
					<path id="path5164-63" class="shp6" d="M342.19 174.43L338.86 180.23C336.27 184.73 343.16 186.75 343.26 181.45C343.31 179.12 342.19 174.43 342.19 174.43Z" />
					<path id="path5164-7" class="shp6" d="M345.61 177.69L342.53 183.64C340.15 188.25 347.12 189.97 346.99 184.66C346.94 182.33 345.61 177.69 345.61 177.69Z" />
					<path id="path5164-88" class="shp6" d="M339.01 180.23L334.94 185.54C331.78 189.66 338.33 192.57 339.14 187.33C339.5 185.02 339.01 180.23 339.01 180.23Z" />
					<path id="path5164-29" class="shp6" d="M342.08 183.87L338.09 189.25C335.01 193.42 341.61 196.23 342.33 190.97C342.65 188.66 342.08 183.87 342.08 183.87Z" />
					<path id="path5164-1" class="shp6" d="M337.19 187.83L333.67 193.53C330.95 197.95 337.77 200.18 338.04 194.89C338.16 192.55 337.19 187.83 337.19 187.83L337.19 187.83Z" />
					<path id="path5164-35" class="shp6" d="M345.12 186.89L341.08 192.23C337.96 196.37 344.53 199.24 345.3 193.99C345.64 191.68 345.12 186.89 345.12 186.89Z" />
					<path id="path5164-9" class="shp6" d="M340.43 192.97L335.97 197.96C332.51 201.82 338.82 205.23 340.03 200.06C340.56 197.78 340.43 192.97 340.43 192.97L340.43 192.97Z" />
					<path id="path5164-84" class="shp6" d="M332.81 193.1L330.33 199.33C328.41 204.14 335.51 205.17 334.87 199.9C334.58 197.59 332.81 193.1 332.81 193.1L332.81 193.1Z" />
					<path id="path5164-07" class="shp6" d="M328.89 198.91L326 204.95C323.76 209.62 330.77 211.13 330.49 205.83C330.36 203.5 328.89 198.91 328.89 198.91Z" />
					<path id="path5164-636" class="shp6" d="M336.92 200.21L332.31 205.08C328.75 208.84 334.96 212.42 336.31 207.29C336.91 205.04 336.92 200.21 336.92 200.21Z" />
					<path id="path5164-15" class="shp6" d="M332.3 202.24L328.75 207.92C326 212.31 332.8 214.59 333.11 209.3C333.24 206.96 332.3 202.24 332.3 202.24L332.3 202.24Z" />
					<path id="path5164-42-0" class="shp6" d="M322.72 212.74L318.92 218.26C315.98 222.53 322.67 225.11 323.21 219.83C323.45 217.51 322.72 212.74 322.72 212.74Z" />
					<path id="path5164-42" class="shp6" d="M327.49 206.82L323.69 212.33C320.75 216.6 327.44 219.19 327.98 213.91C328.22 211.59 327.49 206.82 327.49 206.82L327.49 206.82Z" />
					<path id="path5164-42-4" class="shp6" d="M322.05 220.81L316.59 224.68C312.36 227.69 317.76 232.41 320.08 227.64C321.1 225.54 322.05 220.81 322.05 220.81Z" />
					<path id="path5521" class="shp6" d="M283.24 250.71C283.24 250.71 313.54 248.24 329.1 232.98C344.66 217.72 353.4 202.5 353.4 202.5L325.28 228.96C325.28 228.96 307.44 242.47 296.85 246.33C286.27 250.19 283.24 250.71 283.24 250.71Z" />
					<path id="path4769" class="shp6" d="M318.57 210.56C318.57 210.56 320.69 250.05 271.86 253.49C271.86 253.49 298.76 246.72 318.57 210.56Z" />
					<path id="path5519" class="shp6" d="M279.04 252.37C279.04 252.37 294.7 249.09 303.29 246.82C311.88 244.54 320.47 247.83 320.47 249.34C320.47 250.86 311.88 254.14 299.25 254.65C286.62 255.15 279.04 252.37 279.04 252.37L279.04 252.37Z" />
					<path id="path5164-42-1" class="shp6" d="M329.13 214.03L323.91 218.23C319.87 221.48 325.54 225.87 327.57 220.96C328.47 218.81 329.13 214.03 329.13 214.03L329.13 214.03Z" />
					<path id="path5525" class="shp6" d="M343.18 199.23C335.6 211.42 308.92 238.3 304.42 242.47C304.42 242.47 339.81 218.35 348.82 202.46C355.59 190.52 356.59 170.53 352.71 157.35C348.82 144.16 346.17 141.1 346.17 141.1C347.81 145.78 351.15 186.41 343.18 199.23L343.18 199.23Z" />
					<g id="g5570">
						<g id="g4751">
							<path id="path3437" class="shp6" d="M264.71 252.19C264.71 252.19 269.35 233.97 281.86 234.68C294.36 235.4 283.64 253.61 268.64 251.11C268.64 251.11 284.71 243.25 281.5 239.68C278.28 236.11 264.71 252.19 264.71 252.19Z" />
							<path id="path3457" class="shp8" d="M281.16 242.56C281.16 242.56 284.16 239.1 282.01 234.64" />
						</g>
						<g id="g4763">
							<path id="path3447" class="shp6" d="M264.9 252.72C264.9 252.72 268.73 271.3 281.59 266.65C294.45 262.01 280.87 250.22 270.51 250.58C260.15 250.94 267.66 252.36 267.66 252.36C267.66 252.36 279.8 253.79 283.37 260.58C286.95 267.37 268.73 259.15 266.94 254.86C265.15 250.58 264.9 252.72 264.9 252.72L264.9 252.72Z" />
							<path id="path3461" class="shp8" d="M282.42 263.17C282.42 263.17 284.31 263.25 286.87 261.48" />
						</g>
						<g id="g4759">
							<path id="path3449" class="shp6" d="M256.4 266.39C244.61 262.46 252.47 256.03 254.97 253.88C257.47 251.74 264.5 251.64 264.5 251.64C257.02 255.22 256.76 257.81 256.76 257.81C256.76 257.81 253.54 263.17 258.55 263.53C263.55 263.89 264.65 252.01 264.65 252.01C264.65 252.01 268.19 270.32 256.4 266.39Z" />
							<path id="path3467" class="shp8" d="M255.78 261.83C255.78 261.83 256.45 265.39 259.13 266.97" />
						</g>
						<g id="g4755">
							<path id="path3443" class="shp6" d="M262.39 237.18C257.38 234.34 248.1 240.75 247.74 242.18C247.38 243.61 253.22 251 258.19 251.61C262.61 252.14 264.53 251.42 264.53 251.42C264.34 251.25 259.52 250.03 256.54 248.12C253.44 246.14 251.18 243.44 252.23 242.16C253.78 240.27 256.61 239.92 259.51 239.03C262.74 239.93 264.97 251.29 264.97 251.29C265.98 241.66 267.43 240.04 262.39 237.18Z" />
							<path id="path3469" class="shp8" d="M259.46 239.03C259.46 239.03 261.92 238.03 264.22 238.36" />
						</g>
					</g>
				</g>
				<g id="g6822">
					<path id="path6797" class="shp9" d="M263.49 162.85L273.4 154.26L256.92 152.07L241.84 164.69L250.61 173.11L257.97 167.15L294.44 203.97C299.6 208.09 304.35 201.69 300.4 198.36L263.49 162.85Z" />
					<path id="path6799" class="shp9" d="M239.03 197.31L252.01 184.33C252.01 184.33 267.44 202.92 283.57 187.84C299.7 172.76 288.31 156.8 283.22 151.98C276.86 145.95 259.02 143.3 259.02 143.3C259.02 143.3 282.69 137.18 295.14 156.63C310.38 180.42 287.29 198.34 283.22 199.94C274.53 203.35 263.93 203.62 252.36 195.2L244.64 202.92L239.03 197.31Z" />
				</g>
			</g>
		</g>
	</g>
</svg>