<svg version="1.2" baseProfile="tiny-ps" xmlns="http://www.w3.org/2000/svg" viewBox="0 0 900 600" width="900" height="600">
	<title>FLAG_CHI_minguo-svg</title>
	<style>
		tspan { white-space:pre }
		.s0 { fill: #fe0000 } 
		.s1 { fill: #000095 } 
		.s2 { fill: #ffffff } 
		.s3 { fill: #ffffff;stroke: #000095;stroke-width: 7.5 } 
		.s4 { fill: #000000 } 
	</style>
	<g id="Layer">
		<path id="Layer" fill-rule="evenodd" class="s0" d="m0 0h900v600h-900v-600z" />
		<path id="Layer" fill-rule="evenodd" class="s1" d="m0 0h450v300h-450v-300z" />
	</g>
	<path id="Layer" class="s2" d="m281.25 247.43l-153.68-153.68l209.93 56.25l-209.93 56.25l153.68-153.68l-56.25 209.93l-56.25-209.93l153.68 153.68l-209.93-56.25l209.93-56.25l-153.68 153.68l56.25-209.93l56.25 209.93z" />
	<path id="Layer" class="s3" d="m225 210c-33.18 0-60-26.82-60-60c0-33.18 26.82-60 60-60c33.18 0 60 26.82 60 60c0 33.18-26.82 60-60 60z" />
	<g id="Layer">
		<path id="Layer" fill-rule="evenodd" class="s4" d="m786.6 78.6c1.9 1.9 3.4 4.1 3.4 4.8c0 2.5-5 6.3-11.3 8.6c-5.7 2.1-14.7 7.4-14.7 8.6c0 0.3 2.5-0.8 5.5-2.5c6.1-3.4 10.6-3.9 16-1.6c6 2.4 6.5 7.4 1.4 13c-0.9 1.1-1.9 3.6-2.1 5.5c-0.3 3.2-0.9 3.8-6.4 6.5c-3.3 1.6-8 3.8-10.5 4.8c-5.9 2.3-15.2 7.7-14.5 8.4c0.3 0.3 2.7-0.7 5.3-2.2c5.2-2.9 22.4-7.5 28.6-7.5c5.2 0 11.1 3.2 13.8 7.6l2.2 3.6l-2.1 9.2c-1.2 5-2.6 12.8-3.2 17.3c-1.2 9-4.9 19.2-7.5 20.8c-1.2 0.8-2.1 0.5-3.5-1.3c-1-1.2-2-2.6-2.2-3c-0.2-0.4-2.2-2.4-4.6-4.5c-3-2.7-5.1-3.7-7.5-3.7c-4.8 0-17.8 3.8-21.1 6.2c-3.2 2.3-6.9 2.7-9 0.9c-0.8-0.7-2.7-4.2-4.2-7.9c-2.5-5.9-2.8-7.9-2.9-17.7c0-10 0.2-11.3 2.4-14.4c1.3-1.8 3.8-3.9 5.5-4.6c1.7-0.7 4.4-2.5 6-4l2.8-2.6l-2-2.2c-3.4-3.8-4.2-6.4-4.2-13.4c0-7.7 1.1-9.3 9.5-14.4l4-2.4l-5.1-0.3c-4.8-0.3-5.4-0.6-7.9-4.3c-1.4-2.3-2.4-4.7-2.1-5.4c0.5-1.3 12.4-4.5 16.8-4.5c1.3 0 3.4-0.7 4.6-1.6c1.3-0.9 4.4-1.9 7-2.4c9-1.5 10.2-1.2 13.8 2.6zm-13.3 26.4c-0.9 0-5.7 4.9-8.4 8.5c-1.3 1.9-1.3 1.8 1.3-0.1c1.4-1.1 3.9-3.5 5.3-5.2c1.5-1.8 2.3-3.2 1.8-3.2zm3.9 29.3c-3.3 3.5-2.9 5.7 1.1 5.7c1.8 0 4.2 0.6 5.2 1.4c3.1 2.3 1 6.5-4.7 9.3c-4.5 2.2-4.8 2.7-4.8 6.2c0 3.8 0 3.8 4.7 4.4c8.2 0.9 8.6 0.2 9.9-17c0.5-6.8 0.3-9.7-0.6-10.8c-2-2.4-8.3-1.9-10.8 0.8zm-21 7.9c-4.8 3.7-6 6.9-5.4 14.6c0.5 6.3 2.2 7.5 5.8 4.2c3-2.9 3-3.7-0.1-6.2c-3.6-2.8-3.2-5.6 0.9-7.3c1.9-0.8 3.6-2.4 3.9-3.6c1.2-4.6-0.6-5.1-5.1-1.7z" />
		<path id="Layer" class="s4" d="m731.9 77.6c4.4 0.9 10.5 8.7 9 11.6c-1.4 2.6-9.7 7.8-12.5 7.8c-1.3 0-2.6 0.5-3 1.1c-0.4 0.7 0.4 1 2.2 0.9c5.7-0.4 7.5 0 9.9 2.5c3.3 3.2 3.2 4.1-1.1 7.8l-3.6 3.2l4.9 0.5c4.4 0.5 4.8 0.7 5.1 3.3c0.3 2.3-1.1 4.4-7.9 11.8l-8.2 9l-0.7 18.7c-0.4 11.6-1.1 19.6-1.9 20.9c-1.4 2.8-5.2 3-7.3 0.5c-3.4-4-5.7-13.5-4.8-19.8c1.1-7.3 0.4-8-4.1-3.9c-5.6 5-8.7 5.5-11.5 1.9c-3.3-4.1-3.8-7.6-2-13.8c1.2-3.9 2.5-6.1 4.6-7.6c1.7-1.2 4.3-4.1 6-6.5l2.9-4.3l-3.2 0.7c-5.8 1.3-9.6-0.4-11.8-5.5c-1.1-2.4-1.9-5.9-1.7-7.7c0.3-2.7 1-3.6 4.9-5.5c2.6-1.3 6.3-2.6 8.4-2.9c3.8-0.6 3.8-0.6 3.3 2.5c-0.2 1.8-0.3 3.2-0.1 3.2c2.4 0 8.8-4 11.2-7.1l3.2-3.9h-2.5c-3.4 0-5-3-3.4-6.5c1-2.2 0.9-2.8-0.2-3.6c-3.9-2.3-4.3-2.8-3.7-5.1c0.4-1.4 1.7-3 2.9-3.6c2.6-1.2 11.9-1.5 16.7-0.6z" />
		<path id="Layer" class="s4" d="m795.5 244.6c3.3 3 3.7 3.8 3.1 6.6c-3.8 18.4-4.6 26.8-4.6 47.6c0 16.1 0.5 24.8 1.9 33.6c2 12.9 1.5 17.8-1.9 19.6c-3.4 1.8-5.9 1-9.9-3.3c-3.2-3.4-4.1-5.2-4.6-9.3c-0.4-2.8-0.3-6.6 0.2-8.5c1.1-4.5 0.1-46.1-1.1-43.4c-1.7 3.8-4.9 6.5-7.7 6.5c-3 0-6.5-3.6-7.6-7.9l-0.7-2.6l-0.7 3c-1 4.5-1 19.9 0.1 29.9c1.1 10.4 0.1 13.9-4.1 14.4c-3.4 0.4-6.9-2.6-10.4-8.9c-2.8-5.3-2.8-5.4-1.7-13.4c1.6-11 1.6-13.6-0.3-12.9c-2.7 1.1-8.6-1.7-10.5-4.9c-2.3-3.7-2-4.2-5.9 12c-3.2 13-4.6 15.7-14.4 28c-6.5 8.1-9.3 8.8-12.2 3.3c-1.8-3.4-2-10.9-0.4-14.3c0.6-1.3 2.6-3.1 4.4-4.1c3.8-2.1 6-6.5 10-20c3.1-10.8 3.1-10.9 0-6.3c-3.2 4.6-6.7 5.7-10.3 3c-5.6-4.1-7.6-13.3-4.7-20.8c2.1-5.8 4.5-5.9 9.6-0.5c2.1 2.2 4.7 4 5.8 4c1.1 0 2.4 0.7 2.9 1.6c0.7 1.3 1.2 0.1 2.1-4.8c1.4-8.4 1.4-9.1-0.6-12.7c-1.7-2.9-1.7-3.1 0.3-5.8c2.3-3.1 7.8-4.2 11.3-2.4c3.2 1.7 6.1 9.1 6.1 15.4c0 5.6 0 5.7 3 5.7c1.7 0 3.3 0.7 3.9 1.7c0.9 1.5 1.2 1.6 2 0.4c1.1-1.7 2.7-10.1 3.7-19c1-10.3 6.4-13.7 14-9.1c4.9 3.1 5.7 8.7 2.3 17.2c-2.4 6.1-2.4 6.8 0 6.8c1 0 3 0.9 4.4 2c1.4 1.1 3 2 3.6 2c2.4 0 5-7.8 5.6-17.1c0.8-10.8 2-14.8 4.9-15.8c2.9-1.1 4.9-0.4 9.1 3.5z" />
		<path id="Layer" fill-rule="evenodd" class="s4" d="m620.2 247.4c4.3 3.2 3.9 13.3-0.7 18.8c-2.3 2.8-6.5 10-6.5 11.2c0 0.3 3-0.8 6.6-2.4c7.1-3.3 14.6-3.9 21.7-1.9c3.1 0.8 3.8 1.4 3.5 3.2c-0.2 1.6-2.3 3.2-7.7 5.8c-4 2.1-9 5.3-10.9 7.2l-3.5 3.6l2.3 4.4l2.4 4.5l-2.7 8.2c-1.5 4.5-2.7 8.7-2.7 9.5c0 1.8 10.1 8.4 17.3 11.3c3.1 1.2 9.5 3.1 14.1 4.1c10.3 2.2 14.1 4.3 12.6 7.1c-1.6 3-16.1 6-25.6 5.3c-6.1-0.5-10.7-3.1-22.8-12.7l-3.6-2.9l-4.1 4.7c-5 5.6-9.6 8.1-16.6 8.9c-9.9 1.1-18.3-3.6-18.3-10.3c0-3.2 0-3.2-2.2-1.6c-1.3 0.9-4 2.8-6.2 4.2c-2.1 1.4-5.5 4.4-7.6 6.6c-3.7 4-3.7 4-6.8 2.4c-4-2.1-5.4-6.4-4.3-14.1c0.6-4.3 1.4-6.3 3-7.3c2.6-1.8 2.7-5.3 0.4-17.2c-1.4-7.5-1.4-9-0.2-11.5c1.2-2.6 2-3 5.4-3h4l0.7 5.5c0.5 3 1.1 9.7 1.5 14.9c0.7 7.7 1 9.1 2 7.9c1-1.1 1-2.2 0.1-4.5c-1.1-2.9-0.9-4 1.1-7.3c0.9-1.5 5.4-27.3 5.5-31.9c0.1-1.8-0.6-2.6-2.9-3.4c-4-1.3-9.5-5.5-9.5-7.2c0-1.7 1.8-2.8 10.7-5.9c6.9-2.5 11.3-3.2 19.1-2.8c10.8 0.5 9.9 10.1-1.4 15.2c-4.8 2.1-7.2 5.2-8.1 10.4c-0.5 3.3-0.4 3.6 1.9 3.6c8.2 0 8.6-0.4 14.9-17.2c4.9-13.3 8.5-20.3 11.4-22.6c3.2-2.5 9.9-2.9 12.7-0.8zm-14.4 49.3c-2.1 1.4-3.8 3-3.8 3.4c0 0.5 1.4 2.3 3 4.1c2.9 3.2 3.1 3.2 4.5 1.4c0.8-1.1 1.8-3.5 2.1-5.4c1-5.3-1.1-6.6-5.8-3.5zm-26.2-1.3c-1.1-0.4-1.6 0-1.6 1.4c0 1.1 0.7 2.3 1.6 2.6c1.2 0.5 1.5 1.7 1.2 5.6c-0.1 2.8-0.1 5 0.2 5c0.3 0 2.1-1.1 4.2-2.3l3.6-2.3l-2.9-1.6c-2.2-1.3-2.9-2.4-2.9-4.8c0-1.6-0.4-3-0.9-3c-0.5 0-1.6-0.3-2.5-0.6zm15 16.6c-1.5 0-11.1 9-13.1 12.2c-2.1 3.3-1.4 7.3 1.5 8.8c3.3 1.8 9.9-0.6 14.2-5.1c5.5-5.7 5.8-8.3 1.7-12.5c-1.8-1.9-3.8-3.4-4.3-3.4z" />
		<path id="Layer" fill-rule="evenodd" class="s4" d="m617 407.3c6.4 2.2 7.2 2.9 11.5 10.2c0.9 1.5 1.4 1.6 3.3 0.6c5.1-2.7 15.2 1.1 15.2 5.7c0 3.1-2.7 4.6-19.1 10.6c-14 5.2-16.1 6.2-20.2 10.4c-3.3 3.4-4.9 6-5.6 9.3c-0.6 2.6-1.5 5.9-2.1 7.4c-1 2.5-0.9 2.7 0.6 1.4c0.9-0.7 2.9-3.7 4.6-6.5c3.5-6.2 4.8-6.9 8.2-4.3c3.9 3.1 3.5 7.3-1.4 14.3c-2.2 3.1-4 6.1-4 6.5c0 0.4 2.1 0.8 4.8 0.8c6.2-0.1 17.9 2.1 21.6 4l2.9 1.5l-0.6-4.7c-0.4-2.6-0.7-5.9-0.7-7.2c0-2.1-0.2-2.2-2.1-1.2c-2.7 1.4-14.3 3.1-16.3 2.3c-0.9-0.3-1.6-1.3-1.6-2c0-1.6 10.8-8.8 15.8-10.5c4.1-1.3 4.8-4 3.2-12.3c-1.4-7.4-1-8.6 2.8-8.6c2 0 3.4 1 5.2 3.7c1.4 2 2.7 4.5 3.1 5.7c0.4 1.9 1.1 2.1 6 1.8c4.3-0.3 6 0.1 7.9 1.6l2.4 1.9l-2.7 2.7c-1.5 1.5-4.6 3.5-6.9 4.5c-7.4 3.2-7.3 2.7-5.9 24.7c0.6 10.7 1.6 20.5 2.1 21.8c0.5 1.3 1.2 5 1.5 8.3c0.7 6.7-0.6 9.9-4.7 12.2c-2.5 1.5-3.1 1.3-13.1-3.8c-5.8-2.9-11.4-6.2-12.4-7.4c-2.7-3-10.3-15.4-10.3-16.7c0-0.6-0.4-0.8-1-0.5c-0.5 0.3-1 3.4-1 6.9c0 7-1.2 9.2-5.6 10.5c-6.5 1.8-9.9-3.6-9.5-15.2c0.2-4.2 0-7.7-0.4-7.7c-0.4 0-2 1.1-3.7 2.5c-1.6 1.4-3.6 2.5-4.4 2.5c-0.7 0-4.3 3.9-7.9 8.8c-3.7 4.8-7.4 9.1-8.3 9.6c-0.9 0.5-2.3 1.6-3 2.3c-2 1.9-6.1 2.7-9.1 1.7c-2.3-0.9-2.6-1.5-2.9-6.8c-0.3-5 0-6.2 2.1-8.5c5.1-5.6 25-41.2 27.1-48.7c0.6-1.9 0.3-2-4.8-1.6c-6.5 0.5-9-1.4-10.1-7.8c-1-6 1.5-9.1 8.6-10.8c4.2-1.1 6.2-1.1 9.2-0.2c3.4 1 4.7 0.8 10.5-1.4c3.7-1.4 8.8-3.2 11.5-4.2c2.6-0.9 4.7-2 4.7-2.4c0-1.1-3.3-3.7-5.7-4.4c-1.2-0.4-3.1-2.6-4.3-5c-2-4.2-1.9-6.5 0.3-9.4c1.4-1.8 7.3-1.4 14.7 1.1zm-2 83.8c3 5 5.2 7.5 8.3 9.4c5.9 3.4 10.6 5 11.8 3.8c0.4-0.4 1.2-4.9 1.5-9.7c0.7-8.5 0.6-8.9-1.2-8.1c-1 0.4-5.2 1-9.2 1.3c-6.2 0.4-7.8 0.1-10-1.5c-6.5-4.7-6.5-4.4-1.2 4.8z" />
	</g>
</svg>