<svg version="1.2" baseProfile="tiny-ps" xmlns="http://www.w3.org/2000/svg" viewBox="0 0 450 300" width="900" height="600"><title></title><style>tspan { white-space:pre }.shp0 { fill: #000000 } .shp1 { fill: #ffffff } .shp2 { fill: #08639c } .shp3 { fill: #ffc500 } .shp4 { fill: #de2119 } .shp5 { fill: #d10d0a } .shp6 { fill: #f9c300 } .shp7 { fill: #000000;stroke: #000000 } </style><g ><path class="shp0" d="M-15 240L465 240L465 300L-15 300L-15 240L-15 240Z" /><path class="shp1" d="M-15 240L465 240L465 180L-15 180L-15 240L-15 240Z" /><path class="shp2" d="M-15 120L465 120L465 180L-15 180L-15 120L-15 120Z" /><path class="shp3" d="M-15 120L465 120L465 60L-15 60L-15 120L-15 120Z" /><path class="shp4" d="M-15 0L465 0L465 60L-15 60L-15 0L-15 0Z" /><g ><path fill-rule="evenodd" class="shp5" d="M225.97 181.88C256.65 181.88 273.19 163.98 273.19 148.64C273.19 139.6 264.49 126.48 266.88 122.22C249.83 137.9 270.12 138.92 245.74 151.7C259.55 139.77 253.92 121.88 259.55 114.89C251.37 122.56 253.07 132.78 244.04 134.32C253.75 119.15 243.19 111.65 247.96 105C242.5 107.73 244.38 121.36 239.27 124.77C234.15 128.18 228.53 122.39 229.55 118.64C230.91 119.66 241.65 115.74 241.65 110.28C241.65 104.83 237.9 95.8 240.8 93.24C232.96 98.52 243.36 110.8 229.89 117.95C213.36 103.47 237.39 101.08 222.05 87.27C228.19 103.81 211.99 108.58 221.71 122.39C205.69 113.86 216.42 100.74 206.03 92.22C208.07 111.99 203.47 121.19 215.4 131.93C197.85 131.42 206.54 120.51 196.31 110.28C201.42 126.65 191.03 141.48 217.62 156.14C192.05 148.98 200.56 129.09 182 115.11C185.94 123.97 181.94 135.44 181.94 146.38C181.94 164.94 194.97 181.88 225.97 181.88L225.97 181.88Z" /><path fill-rule="evenodd" class="shp6" d="M214.38 163.13C214.38 170.45 193.24 161.25 192.56 161.08C191.88 160.91 191.54 159.55 196.82 159.72C192.05 157.67 184.04 148.98 188.64 137.39C188.64 141.65 193.75 150.34 195.46 152.22C197.16 154.09 196.31 152.22 196.99 145.91C201.25 159.55 214.38 161.42 214.38 163.13ZM218.13 179.83C216.77 180 215.74 178.13 212.16 178.13C208.58 178.13 202.11 170.45 202.11 170.45C202.11 170.45 208.92 168.41 210.97 170.63C213.02 172.84 217.45 172.84 223.07 172.67C228.7 172.5 228.19 175.74 226.14 175.74C224.1 175.74 221.54 179.83 218.13 179.83ZM259.72 161.59C261.94 161.59 256.14 174.03 251.54 175.57C246.94 177.1 240.97 178.98 235 176.08C240.46 175.4 257.5 161.59 259.72 161.59ZM216.25 159.2C222.05 159.2 229.38 159.38 231.42 158.35C233.47 157.33 225.29 163.47 221.54 163.47C217.79 163.47 215.57 161.25 216.25 159.2ZM243.19 145.23C243.19 145.23 244.89 146.08 239.78 150.34C234.66 154.6 232.28 151.53 231.08 150.17C236.37 149.83 243.19 145.23 243.19 145.23ZM204.83 130.57C206.54 137.05 216.25 141.82 219.15 144.03C202.79 146.42 201.77 132.78 204.83 130.57ZM228.7 130.57C232.96 130.23 242.85 125.28 244.72 118.3C243.02 132.95 234.49 132.61 228.7 130.57ZM239.61 139.26C244.04 137.73 253.75 130.91 253.75 128.52C254.27 136.88 247.62 141.14 239.61 139.26ZM210.46 113.35C210.12 116.59 213.02 121.02 216.77 123.92C208.41 125.8 207.9 118.47 210.46 113.35ZM224.1 118.64C220.86 115.23 221.88 111.31 222.73 108.75C223.58 106.19 222.22 113.52 224.1 118.64Z" /><path fill-rule="evenodd" class="shp7" d="M146.87 188.68C147.52 188.68 148.36 189.1 149.38 189.93C150.23 190.53 150.66 191.03 150.66 191.44C150.66 191.94 150.22 192.32 149.33 192.59C147.93 192.86 145.78 193.49 142.88 194.49C143.22 194.66 143.61 194.86 144.06 195.09C145.01 195.7 145.49 196.3 145.49 196.9C145.49 197.13 145.42 197.4 145.28 197.7C145.01 198.44 144.79 199.76 144.62 201.66C144.58 201.89 144.57 202.11 144.57 202.31C144.98 202.24 145.4 202.18 145.85 202.11C147.73 201.78 148.8 201.61 149.07 201.61C149.65 201.61 150.3 201.78 151.02 202.11C151.6 202.44 151.89 202.8 151.89 203.16C151.89 203.43 151.55 203.58 150.87 203.61C148.89 203.78 146.74 204.05 144.41 204.42C144.28 205.89 144.17 207.19 144.11 208.32C144.31 208.36 144.55 208.39 144.82 208.42C145.85 208.73 146.85 209.06 147.85 209.43C149.14 210 149.98 210.51 150.36 210.98C150.7 211.42 150.87 211.88 150.87 212.38C150.87 212.79 150.76 213.2 150.56 213.64C150.35 213.97 150.06 214.14 149.69 214.14C149.52 214.14 149.26 214.04 148.92 213.84C148.37 213.5 147.64 212.84 146.72 211.83C145.59 210.53 144.74 209.65 144.16 209.18C144.12 209.18 144.09 209.16 144.05 209.13C144.02 210.23 144 211.15 144 211.88C144 211.98 143.97 216.39 143.9 225.11C143.9 225.98 143.66 226.88 143.18 227.82C142.84 228.62 142.47 229.02 142.06 229.02C141.85 229.02 141.51 228.59 141.03 227.72C140.38 226.32 140.06 225.25 140.06 224.51C140.06 224.14 140.18 223.56 140.42 222.76C140.72 221.89 140.98 220.15 141.19 217.55C141.49 215.14 141.7 212.4 141.8 209.33C139.72 212.3 137.81 214.56 136.06 216.09C134.49 217.53 132.63 218.77 130.48 219.8C129.66 220.2 128.93 220.4 128.28 220.4C128.01 220.4 127.87 220.34 127.87 220.2C130.64 218.33 133.13 216.11 135.35 213.54C137.4 211.33 139.27 208.49 140.98 205.02C139 205.39 136.9 205.82 134.68 206.32C133.35 206.72 132.48 206.92 132.07 206.92C131.52 206.92 130.67 206.69 129.51 206.22C128.69 205.75 128.28 205.34 128.28 204.97C128.28 204.77 128.62 204.63 129.3 204.57C132.07 204.3 136.25 203.7 141.85 202.76C141.82 200.39 141.7 198.72 141.49 197.75C141.36 196.82 141.14 196.1 140.83 195.6C140.76 195.46 140.71 195.34 140.67 195.24C140.64 195.24 140.62 195.26 140.62 195.29C138.06 196.13 136.22 196.55 135.09 196.55C134.27 196.55 133.86 196.41 133.86 196.15C133.86 196.01 134.22 195.83 134.94 195.6C136.65 194.99 138.73 194.01 141.19 192.64C143.27 191.37 144.91 190.17 146.1 189.03C146.48 188.8 146.74 188.68 146.87 188.68L146.87 188.68ZM153.89 202.61C154.54 202.61 155.12 202.7 155.63 202.86C156.04 203 156.36 203.13 156.6 203.26C157.93 203.13 159.4 202.91 161.01 202.61C163.02 202.18 164.78 201.71 166.28 201.21C167 200.97 167.46 200.86 167.67 200.86C168.18 200.86 168.96 201.14 170.02 201.71C171.25 202.54 171.87 203.16 171.87 203.56C171.87 203.8 171.69 204.16 171.35 204.67C170.84 205.23 170.43 206.04 170.12 207.07C169.51 208.88 168.83 211.5 168.08 214.94C168.04 214.97 168.02 215.01 168.02 215.04C168.13 215.11 168.21 215.16 168.28 215.19C168.96 215.59 169.3 215.96 169.3 216.29C169.3 216.49 169.17 216.61 168.89 216.64C167.7 216.64 166.61 216.71 165.62 216.84L161.06 217.34C160.2 217.44 159.54 217.49 159.06 217.49C158.86 217.49 158.67 217.48 158.5 217.44C158.5 217.54 158.5 217.63 158.5 217.7C158.5 218.2 158.41 218.6 158.24 218.9C158.07 219.27 157.88 219.45 157.68 219.45C157.41 219.45 157.15 219.25 156.91 218.85C156.53 218.28 156.33 217.7 156.3 217.09L155.73 212.08C155.46 209.51 155.2 207.72 154.96 206.72C154.79 205.62 154.35 204.6 153.63 203.66C153.39 203.46 153.28 203.3 153.28 203.16C153.27 202.8 153.48 202.61 153.89 202.61L153.89 202.61ZM158.4 215.64C158.4 215.64 158.4 215.64 158.4 215.64C158.4 215.64 158.4 215.64 158.4 215.64L158.4 215.64ZM164.03 214.89C164.34 214.82 164.61 214.77 164.85 214.74C164.85 214.71 164.87 214.67 164.9 214.64C165.34 213.17 165.74 211.23 166.08 208.83C166.49 206.65 166.69 205.03 166.69 203.96C166.69 203.43 166.09 203.16 164.9 203.16C164.42 203.16 163.09 203.41 160.9 203.91C159.27 204.31 158.07 204.6 157.32 204.77C157.32 205.4 157.37 206.05 157.47 206.72C157.95 210.56 158.26 213.54 158.4 215.64C160.41 215.47 162.29 215.22 164.03 214.89Z" /><path fill-rule="evenodd" class="shp7" d="M209.3 187.93C209.95 187.93 210.77 188.16 211.76 188.63C212.38 188.9 212.68 189.25 212.68 189.68C212.68 189.95 212.31 190.17 211.56 190.33C210.6 190.6 208.5 190.93 205.26 191.34C204.1 191.47 203.04 191.59 202.08 191.69C202.42 191.79 202.8 191.92 203.21 192.09C204.34 192.52 204.9 193.02 204.9 193.59C204.9 193.76 204.78 194.16 204.54 194.79C204.27 196.23 204.11 197.72 204.08 199.25L203.98 207.52C204.9 207.46 205.85 207.41 206.85 207.37C211.63 206.97 215.28 206.52 217.81 206.02C218.86 205.82 219.5 205.72 219.7 205.72C219.94 205.72 220.86 206 222.47 206.57C223.83 207.27 224.52 207.91 224.52 208.48C224.52 209.01 223.58 209.28 221.7 209.28L213.45 209.28C210.93 209.28 207.75 209.39 203.93 209.63L203.88 218.65C203.81 222.22 203.55 225.36 203.11 228.07C202.66 229.74 202.25 230.58 201.88 230.58C201.54 230.58 201.28 229.99 201.11 228.82C200.97 226.72 200.91 223.86 200.91 220.25L200.91 209.83C200.7 209.83 200.51 209.84 200.34 209.88C196.59 210.08 192.46 210.65 187.95 211.58C186.79 211.85 186.04 211.98 185.69 211.98C185.08 211.98 184.17 211.75 182.98 211.28C181.72 210.75 181.09 210.33 181.09 210.03C181.09 209.59 181.49 209.34 182.31 209.28C187.06 209.21 190.56 208.98 192.81 208.57C195.37 208.27 198.07 208.01 200.9 207.77L200.9 196.55C200.9 195.08 200.77 193.86 200.5 192.89C200.36 192.42 200.29 192.14 200.29 192.04C200.29 191.97 200.29 191.92 200.29 191.89C198.14 192.12 196.6 192.24 195.68 192.24C194.25 192.24 193.26 192.09 192.71 191.79C192.16 191.42 191.89 191.1 191.89 190.83C191.89 190.67 192.51 190.53 193.74 190.43C196.47 190.2 199.45 189.82 202.7 189.28C205.05 188.91 206.93 188.53 208.33 188.13C208.81 187.99 209.13 187.93 209.3 187.93L209.3 187.93ZM191.53 197.4C192.97 198.03 194.02 198.75 194.71 199.55C195.36 200.42 195.68 201.63 195.68 203.16C195.68 204.36 195.22 204.97 194.3 204.97C193.92 204.97 193.53 204.7 193.12 204.16C192.33 203.2 191.22 201.16 189.79 198.05C189.59 197.72 189.48 197.47 189.48 197.3C189.55 197.03 189.69 196.9 189.89 196.9C190.37 196.9 190.92 197.07 191.53 197.4ZM215.4 194.99C216.53 195.83 217.09 196.41 217.09 196.75C217.09 197.22 216.88 197.62 216.47 197.95C214.77 199.55 212.12 201.64 208.54 204.21C208.16 204.45 207.82 204.57 207.51 204.57C207.37 204.57 207.31 204.5 207.31 204.37C207.31 204.3 207.39 204.18 207.56 204.01C208.76 202.44 209.75 200.89 210.53 199.35C211.62 197.62 212.36 196.08 212.73 194.74C212.87 194.24 213.06 193.99 213.3 193.99C213.67 193.99 214.37 194.33 215.4 194.99Z" /><path fill-rule="evenodd" class="shp7" d="M264.72 190.48C265.37 190.48 266.27 190.87 267.43 191.64C268.01 191.97 268.3 192.3 268.3 192.64C268.3 192.81 268.15 193.19 267.84 193.79C267.5 194.49 267.24 195.19 267.07 195.89C267.01 196.13 266.94 196.35 266.87 196.55C267.31 196.51 267.72 196.46 268.1 196.4C270.04 196.1 271.26 195.94 271.73 195.94C271.9 195.94 272.42 196.1 273.27 196.4C274.36 196.96 274.91 197.4 274.91 197.7C274.87 198.07 274.41 198.27 273.53 198.3C271.34 198.33 268.93 198.43 266.31 198.6C265.83 200.41 265.59 201.34 265.59 201.41C265.49 201.71 265.38 201.96 265.28 202.16C265.96 202.59 266.31 202.93 266.31 203.16C266.27 203.53 265.81 203.73 264.92 203.76C263.04 203.8 260.89 203.91 258.47 204.11L258.42 207.67C259.41 207.54 260.38 207.37 261.34 207.17C262.33 207 262.86 206.92 262.92 206.92C263.23 206.92 263.86 207 264.82 207.17C265.67 207.44 266.1 207.67 266.1 207.87C266.1 208.21 265.57 208.47 264.51 208.67C263.32 208.84 262.29 208.97 261.44 209.07C260.93 209.18 259.92 209.33 258.42 209.53L258.37 211.63C258.37 212.1 258.37 212.55 258.37 212.98C262.46 212.38 265.14 211.98 266.41 211.78C267.02 211.65 267.4 211.58 267.53 211.58C267.94 211.58 268.64 211.78 269.63 212.18C270.62 212.62 271.12 212.95 271.12 213.18C271.12 213.55 270.81 213.8 270.2 213.94C269.82 214.07 269.05 214.14 267.89 214.14C265.09 214.14 262.12 214.32 258.98 214.69C258.74 214.72 258.5 214.76 258.26 214.79C258.16 216.86 257.97 218.73 257.7 220.4C257.43 221.64 257.17 222.37 256.93 222.61C257.31 222.74 257.67 222.84 258.01 222.91C261.59 223.74 265.11 224.28 268.56 224.51L276.04 224.76C277.03 224.76 277.52 224.88 277.52 225.11C277.52 225.35 277.06 225.61 276.14 225.91C273.95 226.78 271.55 227.65 268.92 228.52C266.9 229.26 265.37 229.62 264.31 229.62C263.11 229.62 261.34 229.02 258.98 227.82C252.08 223.98 246.23 220.89 241.42 218.55C241.21 218.85 241.02 219.12 240.85 219.35C239.69 220.99 238.12 222.44 236.14 223.71C234.06 225.18 232.57 225.91 231.69 225.91C231.45 225.91 231.33 225.85 231.33 225.71C231.33 225.65 231.48 225.55 231.79 225.41C233.15 224.44 234.74 222.92 236.55 220.85C237.47 219.78 238.29 218.65 239.01 217.44C237.68 216.88 236.35 216.56 235.01 216.49L233.32 216.49C232.95 216.49 232.62 216.39 232.35 216.19C232.04 215.96 231.89 215.74 231.89 215.54C231.89 215.31 232.04 215.16 232.35 215.09C232.62 215.09 233.02 215.04 233.53 214.94C234.18 214.8 234.96 214.74 235.88 214.74C236.94 214.74 238.27 215.05 239.88 215.69C240.15 215.16 240.39 214.6 240.6 214.03C241.62 211.66 242.13 209.88 242.13 208.67C242.13 208.41 242 208.27 241.72 208.27C241.07 208.27 240.19 208.42 239.06 208.72C237.9 209.19 237.18 209.42 236.91 209.42C236.63 209.42 236.4 209.24 236.19 208.87C235.88 208.34 235.73 207.87 235.73 207.47C235.73 207.2 235.92 206.82 236.29 206.32C237.15 205.52 237.92 204.55 238.6 203.41L240.65 199.4C240.95 198.73 241.11 198.23 241.11 197.9C241.11 197.63 240.97 197.5 240.7 197.5C240.49 197.5 239.9 197.61 238.91 197.85C236.38 198.42 234.84 198.7 234.3 198.7C233.78 198.7 233.27 198.6 232.76 198.4C232.45 198.23 232.3 198.07 232.3 197.9C232.3 197.73 232.66 197.61 233.37 197.55C236.17 196.95 238.6 196.21 240.65 195.34C241.43 194.98 241.98 194.79 242.29 194.79C242.83 194.79 243.63 195.11 244.69 195.74C245.38 196.28 245.72 196.66 245.72 196.9C245.72 197.33 245.48 197.8 245 198.3C243.74 199.5 242.82 200.55 242.24 201.46C240.02 204.8 238.91 206.62 238.91 206.92C238.91 207.05 239.04 207.12 239.32 207.12C239.76 207.12 240.82 206.89 242.49 206.42C243.14 206.22 243.62 206.12 243.92 206.12C244.27 206.12 244.76 206.39 245.41 206.92C245.89 207.25 246.13 207.57 246.13 207.87C246.13 208.11 246.02 208.39 245.82 208.72C245.41 209.22 245.07 209.83 244.79 210.53C243.94 213.1 243.12 215.19 242.34 216.79C248.24 219.5 252.89 221.39 256.27 222.46C256.13 222.15 256.01 221.74 255.91 221.2C255.81 219.63 255.74 217.59 255.7 215.09C253.21 215.42 251.44 215.71 250.38 215.94C249.9 216.04 249.54 216.09 249.3 216.09C248.99 216.09 248.45 215.89 247.66 215.49C247.01 215.19 246.69 214.94 246.69 214.74C246.69 214.54 246.96 214.4 247.51 214.34C249.93 214.07 252.66 213.74 255.7 213.33C255.7 213.27 255.7 213.22 255.7 213.18L255.7 209.88C255.6 209.88 255.51 209.88 255.45 209.88C253.71 210.11 252.46 210.23 251.71 210.23C251.02 210.23 250.5 210.14 250.12 209.98C249.44 209.74 249.1 209.51 249.1 209.27C249.1 208.94 249.64 208.74 250.73 208.67C252.41 208.51 254.06 208.31 255.7 208.07L255.7 204.41C254.78 204.51 253.74 204.65 252.58 204.81C252.1 204.91 251.81 204.96 251.71 204.96C251.09 204.96 250.46 204.8 249.81 204.46C249.06 204.16 248.69 203.86 248.69 203.56C248.69 203.5 248.96 203.43 249.5 203.36C251.76 203.09 253.82 202.84 255.7 202.61L255.7 199.55C254.2 199.75 252.54 199.97 250.73 200.2C249.85 200.37 249.3 200.45 249.1 200.45C248.45 200.45 247.78 200.29 247.1 199.95C246.31 199.65 245.92 199.35 245.92 199.05C245.92 198.95 246.18 198.83 246.69 198.7C249.93 198.4 252.94 198.1 255.7 197.8L255.7 193.84C253.18 194.21 251.52 194.39 250.74 194.39C250.09 194.39 249.57 194.29 249.2 194.09C248.86 193.96 248.69 193.79 248.69 193.59C248.69 193.22 249.2 193.01 250.22 192.94C251.49 192.87 253.31 192.65 255.7 192.29L255.7 191.03C255.7 189.73 255.58 188.63 255.35 187.73C255.17 187.33 255.09 187.06 255.09 186.92C255.09 186.62 255.36 186.44 255.91 186.37C256.25 186.37 256.92 186.56 257.91 186.92C258.83 187.33 259.29 187.79 259.29 188.33C259.29 188.5 259.19 188.86 258.98 189.43C258.84 190.2 258.74 190.98 258.67 191.79C259.8 191.59 261.03 191.35 262.36 191.08C263.56 190.68 264.34 190.48 264.72 190.48L264.72 190.48ZM258.52 199.25L258.47 202.21C259.49 202.04 260.45 201.89 261.34 201.76C262.06 201.63 262.58 201.53 262.93 201.46C262.93 201.39 262.93 201.31 262.93 201.21C262.93 201.14 262.96 200.92 263.03 200.56C263.16 200.09 263.3 199.5 263.44 198.8C262.69 198.87 261.92 198.94 261.13 199C260.31 199.07 259.44 199.15 258.52 199.25L258.52 199.25ZM258.57 193.59L258.52 197.5C260.37 197.3 262.11 197.12 263.75 196.95C263.75 196.85 263.76 196.75 263.8 196.65C264 195.55 264.1 194.59 264.1 193.79C264.1 193.12 263.71 192.79 262.93 192.79C262.18 192.79 260.88 192.97 259.04 193.34C258.86 193.34 258.71 193.36 258.57 193.39C258.57 193.46 258.57 193.52 258.57 193.59Z" /><path fill-rule="evenodd" class="shp7" d="M288.74 191.64C289.59 191.64 290.29 191.79 290.84 192.09C290.91 192.16 290.97 192.2 291.04 192.24C297.94 191.84 304.6 191.29 311.02 190.58C312.45 190.45 313.78 190.22 315.01 189.88C316 189.62 316.63 189.48 316.91 189.48C317.76 189.48 319.02 190.02 320.7 191.09C321.65 191.72 322.13 192.24 322.13 192.64C322.13 192.91 321.98 193.27 321.67 193.74C321.19 194.84 320.95 197.02 320.95 200.26C320.95 207.27 321.09 212.5 321.36 215.94C321.46 218.55 321.52 221.27 321.52 224.11C321.52 225.41 321.23 226.58 320.65 227.62C320.06 228.55 319.5 229.02 318.96 229.02C318.65 229.02 318.36 228.77 318.08 228.27C317.57 227.03 316.91 225.78 316.09 224.51C313.39 224.51 310.93 224.6 308.71 224.76L296.93 225.31C294.75 225.45 293.07 225.51 291.91 225.51C291.5 225.51 291.15 225.48 290.84 225.41C290.84 225.55 290.82 225.65 290.79 225.71C290.62 227.15 290.33 227.87 289.92 227.87C289.47 227.87 289.03 227.47 288.58 226.67C288 225.73 287.71 224.76 287.71 223.76C287.71 223.13 287.8 222.52 287.97 221.96C288.28 220.35 288.55 218 288.79 214.89C289.03 211.92 289.15 206.9 289.15 199.86C289.15 196.78 288.84 194.58 288.23 193.24C288.02 192.81 287.92 192.47 287.92 192.24C287.92 191.84 288.19 191.64 288.74 191.64L288.74 191.64ZM290.99 223.31C297.24 223.14 303.03 222.87 308.35 222.51C311.53 222.27 313.59 222.16 314.55 222.16C315.06 222.16 315.86 222.41 316.96 222.91C317.2 223.04 317.4 223.19 317.57 223.36C317.74 223.26 317.86 222.91 317.93 222.31C318.07 220.9 318.14 216.98 318.14 210.53C318.14 205.52 317.93 200.67 317.52 196C317.38 194.23 317.08 193.09 316.6 192.59C316.26 192.36 315.69 192.24 314.91 192.24C311.77 192.24 308.47 192.41 305.02 192.74C300.45 193.14 297.1 193.52 294.99 193.89C293.86 194.09 292.9 194.19 292.12 194.19C291.98 194.19 291.84 194.18 291.71 194.14C291.54 209.04 291.3 218.76 290.99 223.31L290.99 223.31ZM304.72 214.14C304.72 214.24 304.62 214.34 304.41 214.44C303.45 215.01 301.99 215.77 300.01 216.74C298.95 217.28 297.7 217.96 296.27 218.8C296.03 218.97 295.84 219.05 295.7 219.05C295.19 219.05 294.51 218.71 293.65 218.05C293.04 217.48 292.73 217.03 292.73 216.69C292.73 216.66 292.82 216.63 292.99 216.59C293.5 216.56 294.01 216.47 294.52 216.34C296.47 215.91 299.35 215.16 303.18 214.09C303.93 213.85 304.38 213.74 304.51 213.74C304.65 213.74 304.72 213.87 304.72 214.14ZM295.04 205.77C295.17 205.8 295.29 205.84 295.4 205.87C296.21 205.77 296.93 205.65 297.55 205.52C298.33 205.32 299.1 205.02 299.85 204.62C300.16 204.45 300.38 204.37 300.52 204.37C300.96 204.37 301.71 204.62 302.77 205.12C303.28 205.42 303.54 205.75 303.54 206.12C303.54 206.39 303.42 206.65 303.18 206.92C302.87 207.32 302.62 207.87 302.41 208.57L301.8 210.58C302.27 210.88 302.51 211.16 302.51 211.43C302.51 211.6 302.45 211.7 302.31 211.73C301.69 211.73 301.11 211.8 300.57 211.93L298.16 212.43C297.72 212.53 297.37 212.58 297.14 212.58C296.97 212.58 296.81 212.58 296.67 212.58C296.64 212.75 296.59 212.9 296.52 213.04C296.42 213.27 296.28 213.39 296.11 213.39C295.91 213.39 295.72 213.25 295.55 212.98C295.27 212.58 295.14 212.18 295.14 211.78L294.73 209.68C294.56 208.61 294.39 207.86 294.22 207.42C294.11 206.95 293.84 206.52 293.4 206.12C293.23 206.02 293.14 205.95 293.14 205.92C293.14 205.65 293.33 205.52 293.71 205.52C294.22 205.52 294.66 205.6 295.04 205.77ZM307.94 198.5C308.22 198.5 308.8 198.59 309.69 198.75C310.5 199.02 310.91 199.25 310.91 199.45C310.91 199.82 310.45 200.09 309.53 200.25C308.34 200.46 307.31 200.62 306.46 200.76L306.41 200.81C306.54 201.34 306.68 201.89 306.82 202.46C307.53 204.8 308.35 206.87 309.28 208.67C309.34 208.51 309.4 208.36 309.43 208.22C310.04 206.69 310.35 205.27 310.35 203.96L310.15 203.01C310.15 202.61 310.33 202.41 310.71 202.41C311.29 202.41 312.01 202.66 312.86 203.16C313.58 203.56 313.94 204.03 313.94 204.56C313.94 204.76 313.87 204.98 313.73 205.22C313.12 206.22 312.71 206.94 312.5 207.37C311.92 208.81 311.32 210.13 310.71 211.33C311.39 212.47 312.25 213.57 313.27 214.64C313.71 215.1 314.07 215.34 314.35 215.34C314.48 215.34 314.65 214.87 314.86 213.94L315.27 211.88C315.34 211.58 315.42 211.43 315.52 211.43C315.69 211.43 315.8 211.63 315.83 212.03C316.04 214.84 316.45 216.84 317.06 218.04C317.37 218.58 317.52 218.98 317.52 219.25C317.52 219.75 317.27 220 316.75 220C316.21 220 315.4 219.7 314.35 219.1C313.19 218.26 312.2 217.28 311.38 216.14C310.73 215.27 310.1 214.35 309.48 213.38C309.24 213.75 308.99 214.12 308.71 214.49C307.11 216.79 305.26 218.5 303.18 219.6C302.19 220.13 301.51 220.4 301.13 220.4C301 220.4 300.93 220.33 300.93 220.2C303.04 218.3 304.82 216.32 306.25 214.29C306.97 213.38 307.62 212.33 308.2 211.13C307.93 210.66 307.67 210.18 307.43 209.68C306.44 207.54 305.4 204.7 304.31 201.16C303.32 201.32 302.04 201.52 300.47 201.76C298.73 202.06 297.48 202.21 296.73 202.21C296.11 202.21 295.62 202.14 295.24 202.01C294.63 201.81 294.32 201.61 294.32 201.41C294.32 201.11 294.78 200.92 295.7 200.86C298.47 200.49 301.17 200.02 303.8 199.45C303.56 198.55 303.3 197.63 303.03 196.7C302.82 195.83 302.53 195.19 302.16 194.79C301.88 194.52 301.75 194.26 301.75 193.99C301.75 193.72 302 193.59 302.51 193.59C303.33 193.59 304.19 193.76 305.08 194.09C305.52 194.22 305.74 194.64 305.74 195.34C305.74 196.51 305.84 197.71 306.05 198.95C306.15 198.92 306.25 198.88 306.36 198.85C307.35 198.62 307.88 198.5 307.94 198.5L307.94 198.5ZM296.68 211.08C296.68 211.08 296.68 211.08 296.68 211.08C296.68 211.08 296.68 211.08 296.68 211.08L296.68 211.08ZM299.03 210.38C299.37 210.25 299.63 210.15 299.8 210.08C299.9 209.41 299.97 208.81 300.01 208.27C300.07 207.67 300.11 207.15 300.11 206.72C300.11 206.45 299.92 206.32 299.54 206.32C299.2 206.32 298.74 206.42 298.16 206.62C297.34 206.85 296.73 207 296.32 207.07C296.35 207.3 296.37 207.52 296.37 207.72C296.54 209.13 296.64 210.25 296.68 211.08C297.53 210.91 298.32 210.68 299.03 210.38ZM309.94 194.59C310.35 194.59 310.81 194.66 311.32 194.79C312.59 195.09 313.51 195.43 314.09 195.8C314.64 196.2 314.91 196.77 314.91 197.5C314.91 198.54 314.52 199.05 313.73 199.05C313.39 199.05 313.05 198.9 312.71 198.6C311.99 198.07 311.02 196.93 309.79 195.19C309.62 194.99 309.53 194.86 309.53 194.79C309.57 194.66 309.7 194.59 309.94 194.59Z" /></g></g></svg>