<svg xmlns="http://www.w3.org/2000/svg" width="900" height="600">
<g fill-rule="evenodd"><path d="M0 0h900v600H0z" fill="#fe0000"/><path d="M0 0h450v300H0z" fill="#000095"/></g><path d="M225 37.5l-56.25 209.928L322.428 93.75 112.5 150l209.928 56.25L168.75 52.572 225 262.5l56.25-209.928L127.572 206.25 337.5 150 127.572 93.75 281.25 247.428 225 37.5" fill="#fff" paint-order="markers fill stroke"/><circle cy="150" cx="225" r="60" fill="#fff" stroke="#000095" stroke-width="7.5"/>

<g transform="translate(0.000000,600.000000) scale(0.100000,-0.100000)"
fill="#000000" stroke="none">
<path d="M7420 5236 c-6 -8 -15 -36 -18 -63 -7 -47 -8 -48 -52 -55 -25 -4 -58
-13 -73 -19 -15 -7 -53 -14 -84 -18 -77 -8 -93 -32 -57 -84 18 -27 32 -37 52
-38 15 0 36 -4 47 -8 18 -7 15 -12 -25 -50 -77 -71 -136 -104 -184 -103 -59 3
-130 -34 -134 -70 -2 -20 4 -31 23 -44 25 -16 30 -15 176 36 83 28 153 49 156
46 8 -8 -17 -153 -33 -193 -11 -28 -10 -39 8 -85 l20 -52 -22 -18 c-12 -10
-31 -18 -41 -18 -17 0 -18 5 -13 43 3 23 7 48 10 55 6 22 -16 116 -32 132 -23
23 -34 -2 -34 -78 0 -81 -17 -120 -70 -162 -51 -41 -74 -88 -60 -125 17 -45
61 -34 247 60 231 116 233 117 233 160 0 30 -3 35 -22 35 -13 -1 -34 -7 -48
-15 -40 -23 -43 -19 -37 48 9 100 15 107 107 107 l45 0 34 -77 c78 -171 148
-268 289 -395 61 -55 81 -68 108 -68 24 0 38 7 48 23 18 26 38 271 27 314 -12
44 -36 40 -50 -9 -23 -74 -67 -128 -107 -128 -81 0 -294 388 -282 513 3 29 8
33 58 49 30 10 74 22 98 28 50 13 53 24 11 46 -36 18 -111 20 -152 5 -51 -20
-48 -24 -87 169 -12 57 -27 108 -33 112 -18 12 -33 9 -47 -6z m5 -297 c0 -21
-10 -28 -92 -56 -51 -18 -93 -28 -93 -23 0 16 156 110 175 106 6 -2 10 -14 10
-27z m34 -118 c6 -10 13 -36 17 -58 l6 -40 -46 -6 c-25 -4 -56 -9 -68 -12 -18
-4 -28 2 -48 32 -14 21 -25 42 -25 47 0 10 110 55 137 55 10 1 22 -7 27 -18z
m-356 -461 c-4 -4 -19 -11 -33 -14 l-25 -7 24 20 c21 19 54 19 34 1z"/>
<path d="M7633 5141 c-24 -4 -46 -10 -49 -14 -11 -11 22 -42 74 -70 40 -22 54
-25 86 -17 52 12 74 33 56 55 -32 39 -99 57 -167 46z"/>
<path d="M7693 3568 c-5 -7 -17 -49 -27 -93 -22 -96 -37 -122 -81 -141 -47
-19 -54 -18 -67 14 -38 88 -119 159 -156 135 -13 -8 -18 -29 -20 -96 -3 -103
-19 -118 -54 -54 -27 48 -87 87 -136 87 -41 0 -49 -18 -32 -71 10 -30 11 -42
2 -51 -7 -7 -12 -18 -12 -26 0 -10 18 -12 83 -10 l82 3 -3 -36 c-5 -56 17 -72
89 -64 52 6 58 5 69 -14 12 -23 11 -24 -43 -35 -31 -7 -49 -41 -40 -75 4 -15
-2 -30 -17 -46 -29 -31 -29 -84 0 -125 24 -33 25 -53 5 -70 -9 -8 -13 -21 -9
-36 5 -20 -1 -26 -60 -53 -56 -25 -66 -34 -66 -55 0 -45 31 -51 118 -22 85 28
102 31 102 16 0 -21 -83 -99 -116 -110 -78 -26 -56 -90 31 -90 53 0 96 19 143
64 39 36 57 66 92 156 l25 64 167 56 c92 30 170 58 173 62 12 11 -36 30 -84
33 -25 1 -59 6 -74 10 -26 7 -28 5 -25 -15 2 -20 -5 -26 -47 -41 -116 -41
-132 -7 -22 44 68 31 95 56 80 71 -12 12 -49 6 -86 -14 -42 -23 -47 -24 -47
-10 0 5 23 21 50 35 40 20 55 35 72 71 27 59 17 79 -39 79 -60 0 -60 18 0 54
43 27 49 56 12 65 -14 4 -30 4 -36 1 -5 -4 -12 1 -15 10 -7 17 31 65 51 65 6
0 47 18 92 39 100 48 119 81 49 81 -17 0 -41 3 -54 6 -28 8 -55 58 -47 85 13
39 -48 78 -72 47z m72 -154 c0 -10 -8 -20 -17 -22 -18 -3 -26 27 -11 42 12 11
28 0 28 -20z m-185 -175 c0 -17 -20 -49 -30 -49 -14 0 -12 34 2 48 15 15 28
15 28 1z m-52 -171 c-4 -13 -96 -78 -110 -78 -23 0 -2 32 40 59 49 32 76 40
70 19z m155 -30 c-13 -12 -25 -19 -29 -15 -10 10 16 37 34 37 13 0 12 -4 -5
-22z m-173 -78 c0 -13 -12 -28 -30 -38 -19 -11 -30 -25 -30 -39 0 -28 -11 -29
-27 -3 -17 25 -10 40 35 72 45 33 52 34 52 8z m-50 -188 c0 -10 -29 -26 -75
-42 -27 -10 -28 -9 -15 4 16 16 70 46 83 46 4 0 7 -4 7 -8z"/>
<path d="M6080 3495 c-28 -15 -79 -116 -146 -291 l-39 -100 -46 -11 c-26 -7
-57 -9 -69 -6 -20 5 -21 10 -16 46 10 63 30 89 92 122 34 17 65 42 74 58 14
27 14 29 -9 48 -47 38 -201 18 -314 -42 -17 -10 -18 -12 -2 -29 9 -10 39 -28
67 -40 50 -21 50 -22 45 -58 -33 -206 -54 -312 -66 -326 -12 -14 -12 -23 -1
-58 13 -37 12 -42 -5 -54 -31 -23 -40 -11 -42 52 -2 32 -8 98 -15 147 -11 80
-14 87 -35 87 -13 0 -29 -10 -38 -24 -15 -23 -15 -32 -1 -109 23 -122 21 -161
-9 -190 -22 -19 -26 -33 -27 -89 -2 -69 7 -92 43 -103 15 -5 31 5 62 37 52 54
145 120 158 113 5 -4 9 -18 9 -33 0 -67 64 -107 157 -99 78 8 94 16 165 84
l56 55 69 -54 c111 -89 123 -95 193 -103 74 -7 215 16 238 39 13 12 11 16 -14
29 -16 8 -63 21 -104 30 -41 8 -100 25 -131 36 -67 25 -177 94 -185 116 -4 8
6 54 22 102 l28 86 -22 38 c-12 21 -22 44 -22 52 0 23 64 74 140 112 107 54
106 72 -6 82 -63 5 -77 3 -141 -26 -79 -34 -93 -37 -93 -18 0 17 37 85 70 127
38 49 46 119 19 154 -23 30 -68 34 -109 11z m30 -471 c11 -29 0 -87 -24 -119
-14 -20 -15 -19 -46 10 -61 58 -60 77 5 117 40 24 54 23 65 -8z m-296 10 c10
-4 16 -18 16 -39 0 -28 5 -35 30 -44 17 -5 30 -14 30 -19 0 -5 -21 -22 -47
-39 -80 -50 -76 -49 -68 -12 12 52 8 90 -11 103 -11 9 -14 19 -10 34 7 22 30
28 60 16z m170 -194 c40 -44 43 -58 22 -99 -44 -84 -175 -138 -214 -88 -24 30
-22 64 6 106 25 38 123 121 142 121 4 0 24 -18 44 -40z"/>
<path d="M6952 3145 c-18 -39 -15 -57 24 -158 35 -88 36 -96 31 -187 -3 -57
-12 -111 -22 -134 -14 -33 -15 -46 -5 -82 17 -61 46 -104 70 -104 11 0 23 8
26 18 3 9 15 40 26 67 12 28 33 84 47 125 15 41 38 98 53 125 30 58 62 159 55
178 -2 6 -43 -48 -90 -120 -48 -73 -88 -133 -90 -133 -2 0 -4 55 -3 123 1 127
-3 144 -68 277 -16 34 -40 36 -54 5z"/>
<path d="M7712 2704 c-12 -8 -22 -21 -22 -29 0 -33 226 -202 256 -191 19 7 18
59 -1 100 -24 49 -73 90 -138 114 -70 26 -67 26 -95 6z"/>
<path d="M6009 1896 c-15 -31 21 -103 55 -112 31 -7 60 -39 53 -57 -3 -7 -59
-33 -126 -56 -107 -38 -124 -41 -154 -32 -25 9 -48 9 -86 0 -65 -14 -87 -41
-76 -96 10 -58 21 -65 89 -62 61 2 61 2 59 -25 -4 -53 -209 -430 -269 -497
-30 -31 -35 -123 -8 -133 55 -21 106 14 200 139 36 47 72 85 80 85 9 0 33 13
54 30 21 17 41 30 45 30 4 0 5 -40 4 -88 -3 -76 0 -94 19 -126 19 -32 25 -36
49 -30 41 9 53 31 54 93 2 103 26 141 47 74 7 -21 34 -69 60 -108 41 -62 55
-74 119 -106 39 -20 83 -43 97 -52 77 -51 124 27 92 152 -9 35 -22 150 -28
256 -14 221 -17 210 72 255 31 16 62 35 69 43 20 24 -21 41 -80 33 l-49 -7
-20 44 c-26 55 -66 95 -81 80 -7 -7 -7 -31 2 -77 16 -95 11 -105 -73 -149 -87
-45 -125 -73 -115 -83 6 -6 84 4 168 22 26 6 26 5 33 -71 4 -43 5 -80 1 -83
-3 -3 -21 2 -40 11 -46 22 -157 42 -222 40 -66 -2 -68 10 -15 87 50 71 53 80
36 119 -19 45 -41 37 -80 -29 -32 -55 -94 -123 -94 -103 0 6 7 27 15 47 8 19
20 59 26 87 17 79 88 146 194 184 157 56 239 91 249 108 26 40 -65 73 -144 53
-22 -6 -28 -2 -50 41 -23 44 -30 50 -90 70 -87 30 -127 30 -141 -1z m128 -752
c32 -24 40 -26 106 -21 40 3 85 9 101 13 l29 7 -7 -99 c-7 -97 -16 -124 -41
-124 -7 0 -44 16 -82 35 -72 36 -96 61 -140 150 -18 36 -21 65 -6 65 4 0 21
-12 40 -26z"/>
</g>
</svg>