<svg version="1.2" baseProfile="tiny-ps" xmlns="http://www.w3.org/2000/svg" viewBox="0 0 900 600" width="900" height="600"><title></title><defs><linearGradient id="grd1" gradientUnits="userSpaceOnUse"  x1="608.291" y1="273.115" x2="608.291" y2="288.182"><stop offset="0" stop-color="#ffd42a"  /><stop offset="1" stop-color="#ffd42a" stop-opacity="0" /></linearGradient><clipPath clipPathUnits="userSpaceOnUse" id="cp1"><path d="M0 0L450 0L450 300L0 300L0 0Z" /></clipPath></defs><style>tspan { white-space:pre }.shp0 { fill: #00247d } .shp1 { fill: #ffc200 } .shp2 { fill: url(#grd1) } .shp3 { fill: #ffffff;stroke: #ffcc00;stroke-width: 4.633 } .shp4 { fill: none;stroke: #ffc910;stroke-width: 4.592 } .shp5 { fill: #000000 } .shp6 { fill: #018c01 } .shp7 { fill: #ffc910;stroke: #aa8800;stroke-width: 1.853 } .shp8 { fill: #000000;stroke: #ffffff;stroke-width: 51.992 } .shp9 { fill: none;stroke: #ffffff;stroke-width: 86.653 } .shp10 { fill: none;stroke: #cf142b;stroke-width: 51.992 } </style><path class="shp0" d="M0 0L900 0L900 600L0 600L0 0Z" /><g ></g><g ><path class="shp1" d="M603.2 272.61L615.28 272.61L615.28 287.68L603.2 287.68L603.2 272.61Z" /><path class="shp2" d="M602.29 272.48L614.37 272.48L614.37 287.55L602.29 287.55L602.29 272.48Z" /><path class="shp3" d="M810.64 300C810.64 317.8 807.13 335.42 800.32 351.86C793.51 368.3 783.53 383.24 770.94 395.83C758.36 408.41 743.42 418.39 726.98 425.2C710.54 432.01 692.92 435.52 675.12 435.52C657.32 435.52 639.7 432.01 623.26 425.2C606.82 418.39 591.88 408.41 579.29 395.83C566.71 383.24 556.73 368.3 549.92 351.86C543.11 335.42 539.6 317.8 539.6 300C539.6 282.2 543.11 264.58 549.92 248.14C556.73 231.7 566.71 216.76 579.29 204.17C591.88 191.59 606.82 181.61 623.26 174.8C639.7 167.99 657.32 164.48 675.12 164.48C692.92 164.48 710.54 167.99 726.98 174.8C743.42 181.61 758.36 191.59 770.94 204.17C783.53 216.76 793.51 231.7 800.32 248.14C807.13 264.58 810.64 282.2 810.64 300L810.64 300Z" /><path class="shp4" d="M763.5 301.16C763.5 312.92 761.19 324.56 756.69 335.43C752.19 346.29 745.59 356.16 737.28 364.48C728.96 372.79 719.09 379.38 708.23 383.88C697.36 388.38 685.72 390.7 673.96 390.7C662.2 390.7 650.56 388.38 639.69 383.88C628.83 379.38 618.96 372.79 610.65 364.48C602.33 356.16 595.74 346.29 591.24 335.43C586.74 324.56 584.42 312.92 584.42 301.16C584.42 289.4 586.74 277.76 591.24 266.9C595.74 256.03 602.33 246.16 610.65 237.85C618.96 229.53 628.83 222.94 639.69 218.44C650.56 213.94 662.2 211.62 673.96 211.62C685.72 211.62 697.36 213.94 708.23 218.44C719.09 222.94 728.96 229.53 737.28 237.85C745.59 246.16 752.19 256.03 756.69 266.9C761.19 277.76 763.5 289.4 763.5 301.16L763.5 301.16Z" /><g ><path fill-rule="evenodd" class="shp5" d="M575.2 243.97C575.2 243.97 575.2 243.97 575.2 243.97C575.2 243.97 575.2 243.97 575.2 243.97L575.2 243.97ZM579.84 239.75C581.71 238.87 583.59 238.88 585.46 239.79C587.43 240.74 588.68 242.32 589.2 244.53C589.82 247.23 589.23 250.44 587.44 254.16L581 267.49L580.28 267.15C580.87 265.93 581.15 265.06 581.14 264.53C581.12 263.98 580.97 263.53 580.69 263.19C580.42 262.84 579.57 262.31 578.15 261.63L561.12 253.4C559.7 252.72 558.77 252.38 558.32 252.38C557.86 252.37 557.42 252.53 556.99 252.86C556.56 253.2 556.05 253.96 555.47 255.16L554.76 254.82L560.83 242.24C562.29 239.23 563.58 237.23 564.73 236.24C565.86 235.25 567.14 234.65 568.56 234.44C569.97 234.23 571.27 234.41 572.47 234.99C573.74 235.6 574.64 236.61 575.19 238C575.73 239.39 575.73 241.38 575.2 243.97C576.98 241.76 578.53 240.36 579.84 239.75ZM571.27 250.77C572.16 248.93 572.6 247.49 572.61 246.42C572.62 245.34 572.36 244.39 571.84 243.57C571.31 242.74 570.47 242.05 569.31 241.49C568.15 240.93 567.09 240.7 566.13 240.81C565.16 240.9 564.28 241.28 563.48 241.94C562.68 242.61 561.84 243.88 560.94 245.77L571.27 250.77ZM581.2 255.56L582.16 256.05C582.86 256.38 583.47 256.47 584 256.29C584.52 256.1 584.95 255.65 585.29 254.96C585.79 253.93 586.02 252.87 585.98 251.79C585.94 250.68 585.6 249.69 584.96 248.81C584.31 247.92 583.45 247.22 582.38 246.7C581.15 246.11 579.92 245.86 578.68 245.96C577.42 246.06 576.36 246.51 575.49 247.31C574.63 248.12 573.72 249.51 572.78 251.49L581.2 255.56Z" /><path fill-rule="evenodd" class="shp5" d="M600.66 215.04L605.89 221.31C606.9 222.52 607.61 223.22 608.02 223.42C608.43 223.6 608.9 223.63 609.43 223.51C609.96 223.38 610.74 222.89 611.76 222.04L612.27 222.65L600.82 232.2L600.31 231.59C601.34 230.73 601.96 230.05 602.17 229.56C602.38 229.05 602.43 228.59 602.31 228.16C602.21 227.72 601.65 226.9 600.64 225.69L588.53 211.17C587.52 209.96 586.81 209.26 586.4 209.08C585.99 208.88 585.52 208.85 584.99 208.97C584.46 209.1 583.68 209.58 582.66 210.44L582.15 209.83L592.54 201.15C595.25 198.89 597.39 197.43 598.95 196.76C600.52 196.08 602.12 195.92 603.76 196.28C605.38 196.62 606.76 197.46 607.89 198.82C609.27 200.47 609.81 202.33 609.52 204.39C609.33 205.71 608.7 207.11 607.62 208.59L619.32 211.67C620.84 212.06 621.85 212.26 622.35 212.25C623.09 212.22 623.76 211.97 624.39 211.5L624.9 212.11L617.85 217.99L602.13 213.81L600.66 215.04L600.66 215.04ZM599.68 213.87L600.62 213.08C602.15 211.81 603.18 210.71 603.71 209.81C604.23 208.89 604.4 207.88 604.23 206.8C604.05 205.7 603.47 204.56 602.49 203.38C601.07 201.67 599.61 200.75 598.13 200.6C596.66 200.45 595.04 201.11 593.27 202.59L591.5 204.07L599.68 213.87Z" /><path class="shp5" d="M650 201.96L650.26 202.71L635.86 207.69L635.6 206.94L636.51 206.62C637.31 206.35 637.9 205.98 638.29 205.53C638.58 205.22 638.74 204.8 638.77 204.27C638.8 203.9 638.58 203.02 638.1 201.64L631.83 183.52C631.34 182.11 630.97 181.26 630.69 180.96C630.42 180.66 630.01 180.46 629.46 180.36C628.92 180.25 628.27 180.32 627.5 180.59L626.58 180.9L626.32 180.15L640.72 175.17L640.98 175.92L640.07 176.24C639.27 176.51 638.67 176.88 638.29 177.33C638 177.64 637.83 178.06 637.79 178.59C637.75 178.97 637.97 179.85 638.45 181.23L644.72 199.35C645.21 200.75 645.59 201.61 645.86 201.91C646.15 202.2 646.56 202.41 647.1 202.53C647.65 202.62 648.31 202.54 649.08 202.27L650 201.96L650 201.96Z" /><path class="shp5" d="M689.2 170.73L689.16 178.62L688.39 178.61C687.94 176.79 687.44 175.49 686.88 174.7C686.33 173.89 685.57 173.25 684.59 172.77C684.05 172.51 683.1 172.38 681.74 172.37L679.57 172.36L679.46 194.84C679.45 196.33 679.52 197.26 679.68 197.63C679.85 198.01 680.17 198.34 680.64 198.63C681.13 198.9 681.79 199.04 682.62 199.05L683.58 199.05L683.58 199.85L668.32 199.77L668.32 198.98L669.29 198.98C670.14 198.98 670.82 198.84 671.34 198.54C671.71 198.34 672 198 672.22 197.51C672.38 197.17 672.46 196.27 672.47 194.81L672.58 172.33L670.48 172.31C668.51 172.31 667.09 172.71 666.19 173.54C664.94 174.69 664.14 176.35 663.8 178.49L662.99 178.49L663.03 170.6L689.2 170.73L689.2 170.73Z" /><path class="shp5" d="M716.15 207.63L715.88 208.37L701.57 203.13L701.85 202.38L702.75 202.72C703.55 203.01 704.24 203.1 704.83 202.99C705.25 202.93 705.63 202.71 705.99 202.32C706.25 202.05 706.64 201.23 707.14 199.86L713.74 181.86C714.25 180.46 714.5 179.56 714.48 179.16C714.46 178.75 714.27 178.34 713.9 177.91C713.56 177.48 713 177.13 712.23 176.85L711.33 176.51L711.6 175.77L725.91 181.01L725.63 181.76L724.73 181.42C723.93 181.13 723.24 181.04 722.65 181.14C722.23 181.2 721.84 181.43 721.47 181.81C721.2 182.08 720.82 182.9 720.32 184.27L713.72 202.27C713.21 203.67 712.96 204.57 712.98 204.98C713.01 205.38 713.2 205.8 713.55 206.24C713.91 206.66 714.48 207.01 715.25 207.29L716.15 207.63L716.15 207.63Z" /><path class="shp5" d="M761.58 203.34L755.69 211.07L755 210.52C756.2 208.36 756.62 206.19 756.27 204.02C755.94 201.84 755.04 200.17 753.56 198.98C752.42 198.07 751.27 197.65 750.11 197.73C748.96 197.8 748.07 198.24 747.44 199.03C747.03 199.53 746.79 200.07 746.71 200.65C746.62 201.44 746.72 202.37 747.02 203.46C747.25 204.25 747.94 205.88 749.09 208.34C750.7 211.78 751.5 214.46 751.5 216.36C751.48 218.26 750.87 219.96 749.67 221.46C748.15 223.36 746.09 224.4 743.5 224.58C740.94 224.76 738.51 223.94 736.23 222.11C735.51 221.54 734.9 220.92 734.38 220.26C733.86 219.61 733.28 218.69 732.64 217.52C732.28 216.87 731.93 216.4 731.58 216.12C731.29 215.89 730.89 215.75 730.39 215.72C729.89 215.68 729.35 215.81 728.78 216.11L728.16 215.61L735.05 207.03L735.67 207.52C734.22 210.33 733.69 212.94 734.06 215.33C734.46 217.72 735.47 219.57 737.09 220.87C738.34 221.87 739.61 222.33 740.89 222.24C742.19 222.16 743.2 221.66 743.92 220.76C744.36 220.22 744.63 219.59 744.74 218.85C744.86 218.12 744.81 217.3 744.59 216.39C744.38 215.46 743.82 214.05 742.93 212.14C741.68 209.46 740.89 207.4 740.55 205.96C740.22 204.52 740.17 203.16 740.38 201.88C740.61 200.62 741.15 199.45 742 198.39C743.45 196.58 745.35 195.57 747.71 195.36C750.06 195.15 752.25 195.86 754.27 197.48C755.01 198.07 755.65 198.74 756.2 199.47C756.62 200.03 757.05 200.79 757.51 201.76C757.98 202.73 758.37 203.33 758.67 203.57C758.96 203.81 759.26 203.9 759.57 203.86C759.88 203.81 760.38 203.51 761.08 202.94L761.58 203.34L761.58 203.34Z" /><path class="shp5" d="M771.89 241.28L763.9 245.47C762.57 246.16 761.79 246.66 761.53 246.97C761.28 247.3 761.14 247.73 761.1 248.29C761.09 248.84 761.27 249.49 761.65 250.21L762.09 251.07L761.39 251.43L754.33 237.93L755.03 237.56L755.48 238.42C755.87 239.17 756.32 239.7 756.83 240.02C757.18 240.26 757.61 240.35 758.14 240.3C758.52 240.28 759.35 239.94 760.65 239.26L777.63 230.37C778.95 229.68 779.74 229.18 780 228.87C780.26 228.55 780.39 228.12 780.41 227.56C780.44 227.01 780.27 226.37 779.89 225.65L779.44 224.79L780.15 224.42L787.21 237.92L786.51 238.29L786.06 237.43C785.67 236.69 785.22 236.15 784.71 235.84C784.36 235.6 783.92 235.5 783.39 235.53C783.01 235.55 782.18 235.9 780.88 236.58L773.57 240.4L778.34 249.53L785.65 245.7C786.97 245.01 787.76 244.51 788.02 244.2C788.28 243.88 788.41 243.45 788.43 242.89C788.46 242.33 788.28 241.68 787.9 240.96L787.46 240.12L788.17 239.75L795.22 253.23L794.52 253.6L794.08 252.76C793.68 252 793.23 251.47 792.73 251.16C792.38 250.93 791.94 250.83 791.41 250.86C791.03 250.88 790.2 251.23 788.9 251.91L771.92 260.8C770.6 261.49 769.81 261.99 769.55 262.3C769.29 262.61 769.15 263.05 769.12 263.62C769.11 264.17 769.29 264.81 769.67 265.54L770.11 266.38L769.4 266.74L762.35 253.26L763.05 252.89L763.49 253.73C763.89 254.49 764.34 255.03 764.84 255.33C765.19 255.57 765.63 255.67 766.16 255.63C766.54 255.61 767.37 255.27 768.67 254.59L776.67 250.4L771.89 241.28L771.89 241.28Z" /></g><g ><path class="shp6" d="M617.85 356.54C620.52 357.96 633.2 357.95 641.07 356.65C639.12 352.48 636.96 346.29 639.23 342.91C660.3 311.63 675.14 289.17 700.31 252C705.46 244.39 710.21 244.98 718.93 245.79C723.36 246.2 724.42 241.26 726.26 238.94C725.44 235.78 725.26 234.71 721.85 234.53C708.44 233.8 695.25 238.74 692.09 243.84C672.39 275.61 650.88 307.49 631.81 339.63C629.07 344.25 622.98 349.55 613.63 353.19C614.73 354.04 616.35 356.07 617.85 356.54L617.85 356.54Z" /><path class="shp7" d="M671.75 238.65C673.55 236.04 677.13 235.4 679.74 237.21L680.41 237.67C683.01 239.48 683.66 243.06 681.85 245.66L670.87 261.47C669.07 264.08 665.49 264.73 662.88 262.92L662.21 262.45C659.61 260.64 658.96 257.07 660.77 254.46L671.75 238.65Z" /><path class="shp7" d="M680.84 244.04C682.65 241.44 686.23 240.79 688.83 242.6L690.18 243.53C692.78 245.34 693.43 248.92 691.62 251.52L680.88 267C679.07 269.6 675.49 270.25 672.89 268.44L671.54 267.5C668.94 265.7 668.29 262.12 670.1 259.51L680.84 244.04Z" /><path class="shp7" d="M713.27 277.76C715.24 275.24 718.88 274.8 721.4 276.77L721.5 276.84C724.01 278.82 724.46 282.46 722.49 284.97L711.59 298.89C709.62 301.41 705.98 301.85 703.47 299.88L703.37 299.81C700.85 297.84 700.41 294.2 702.38 291.68L713.27 277.76Z" /><path class="shp7" d="M711.44 269.32C713.07 267.3 716.03 266.99 718.05 268.61L719.55 269.83C721.57 271.45 721.89 274.41 720.26 276.43L708.23 291.35C706.6 293.37 703.64 293.69 701.62 292.06L700.12 290.85C698.1 289.22 697.78 286.26 699.41 284.24L711.44 269.32Z" /><path class="shp7" d="M706.1 262.79C708.21 260.42 711.84 260.22 714.21 262.33L714.71 262.78C717.08 264.89 717.28 268.52 715.17 270.89L702.78 284.76C700.67 287.13 697.04 287.33 694.68 285.22L694.17 284.77C691.81 282.66 691.6 279.03 693.71 276.66L706.1 262.79Z" /><path class="shp7" d="M698.03 255.78C699.99 253.29 703.6 252.86 706.09 254.82L706.67 255.28C709.17 257.24 709.6 260.85 707.63 263.35L694.88 279.55C692.92 282.05 689.31 282.48 686.81 280.51L686.23 280.05C683.74 278.09 683.31 274.48 685.27 271.99L698.03 255.78Z" /><path class="shp7" d="M689.16 248.07C690.96 245.46 694.54 244.82 697.15 246.63L697.82 247.09C700.42 248.9 701.07 252.48 699.26 255.08L688.28 270.9C686.48 273.5 682.9 274.15 680.29 272.34L679.62 271.87C677.02 270.06 676.37 266.49 678.18 263.88L689.16 248.07Z" /><path class="shp7" d="M643.59 290.98C651.18 292.45 648.88 295.24 641.62 303.69C639.03 306.71 639.8 310.25 638.6 313.88C635.65 322.81 633.85 323.58 632.57 323.09C630.25 322.19 629.64 316.4 630.64 310.63C631.27 306.93 632.7 301.89 634.56 298.63C636.08 295.97 637.47 289.79 643.59 290.98L643.59 290.98Z" /><path class="shp7" d="M653.57 289.14C660.72 291.12 655.4 296.54 651.82 302.4C649.75 305.79 647.94 308.95 646.62 312.53C643.35 321.36 636.73 329.78 635.46 329.23C633.18 328.25 633.27 321.38 638.78 309C640.3 305.57 641.15 300.34 643.13 297.15C644.75 294.54 650.75 288.35 653.57 289.14L653.57 289.14Z" /><path class="shp7" d="M660.19 261.36C667.26 263.61 659.77 266.92 656.4 272.9C654.45 276.37 653.54 279.98 652.34 283.61C649.39 292.54 644.48 291.76 643.19 291.26C640.88 290.36 641.83 284.57 642.82 278.8C643.46 275.1 646.31 270.84 648.18 267.58C649.7 264.92 654.26 259.47 660.19 261.36L660.19 261.36Z" /><path class="shp7" d="M663.93 297.88C659.23 294.16 655.31 300.39 652.94 306.84C651.57 310.58 650.21 313.95 648.23 317.21C643.35 325.26 640.87 335.68 642.08 336.33C644.27 337.51 648.69 332.27 656.78 321.29C659.01 318.27 661.18 313.92 662.45 310.38C663.49 307.5 666.23 299.69 663.93 297.88Z" /><path class="shp7" d="M658.1 294.87C665.17 297.11 659.66 302.33 655.87 308.06C653.67 311.38 651.76 314.47 650.31 318C646.72 326.7 639.8 334.87 638.56 334.28C636.31 333.22 636.64 326.36 642.6 314.19C644.25 310.81 645.28 305.62 647.38 302.5C649.09 299.95 655.31 293.98 658.1 294.87L658.1 294.87Z" /><path class="shp7" d="M669.31 263.43C676.38 265.69 668.89 268.99 665.53 274.98C663.58 278.45 662.66 282.06 661.47 285.68C658.52 294.62 654.64 297.21 650.89 296.06C648.51 295.33 650.95 286.64 651.94 280.88C652.58 277.17 655.44 272.92 657.3 269.65C658.82 266.99 663.38 261.54 669.31 263.43L669.31 263.43Z" /><path class="shp7" d="M679.69 318.6C675.1 312.77 672.9 319.65 668.48 324.91C665.92 327.95 662.67 328.3 659.49 330.4C652.94 334.75 646.87 334.23 649.09 337.08C650.61 339.04 660.79 340.59 665.84 337.63C669.09 335.73 673.3 332.63 675.7 329.73C677.66 327.38 683.55 323.49 679.69 318.6L679.69 318.6Z" /><path class="shp7" d="M680.05 310.44C675.9 303.8 669.52 310.4 667.31 316.05C665.87 319.75 662.98 322.2 660.01 324.59C652.69 330.5 647.69 334.86 648.61 335.89C650.27 337.74 656.66 338.96 666.54 329.91C669.31 327.37 672.01 325.24 674.41 322.35C676.36 319.99 681.6 312.92 680.05 310.44L680.05 310.44Z" /><path class="shp7" d="M672.08 304.52C666.61 298.92 663.2 305.89 660.02 311.97C658.17 315.49 656.38 318.66 654 321.64C648.11 328.98 644.16 334.31 645.28 335.11C647.29 336.57 651.44 335.97 661.94 326.8C664.77 324.33 667.26 320.06 668.98 316.72C670.39 314 674.13 306.61 672.08 304.52L672.08 304.52Z" /><path class="shp7" d="M677.35 268.18C684.42 270.44 676.93 273.74 673.56 279.73C671.61 283.2 670.7 286.81 669.51 290.43C666.56 299.37 662.68 301.96 658.92 300.81C656.55 300.08 658.99 291.39 659.98 285.63C660.62 281.92 663.47 277.67 665.34 274.4C666.86 271.74 671.42 266.29 677.35 268.18Z" /><path class="shp7" d="M686.74 273.51C693.54 276.47 686.41 281.47 682.46 287.09C680.17 290.34 678.77 292.28 676.83 295.64C672.11 303.78 668.75 305.64 665.12 304.12C662.84 303.16 666.79 294.5 668.35 288.86C669.36 285.24 671.98 281.56 674.16 278.49C675.94 276 681.02 271.03 686.74 273.51L686.74 273.51Z" /><path class="shp7" d="M690.12 280.71C687.5 278.84 684.03 283.97 680.68 289.96C678.73 293.43 677.55 295.18 675.08 298.09C668.99 305.26 672.36 309.96 673.45 310.8C675.43 312.31 679.74 307.7 684.15 303.85C686.98 301.37 689.21 297.47 691.06 294.21C694.36 288.4 695.18 284.33 690.12 280.71L690.12 280.71Z" /><path class="shp7" d="M698.64 287.35C693.6 281.9 692.87 291.78 688.88 297.36C686.56 300.6 683.68 302.96 680.9 305.58C674.06 312.04 673.36 316.65 675.99 319.56C677.66 321.41 684.49 315.51 689.29 312.17C692.38 310.02 695.02 305.63 697.19 302.56C698.95 300.05 702.87 291.92 698.64 287.35L698.64 287.35Z" /><path class="shp7" d="M704.23 297.16C699.97 291.08 698.95 300.14 694.58 305.44C692.04 308.51 689.01 310.66 686.06 313.08C678.78 319.05 676.2 321.65 678.63 324.74C680.16 326.69 686.74 321.55 691.76 318.54C694.99 316.61 698.44 313.46 700.82 310.54C702.75 308.16 708.26 302.92 704.23 297.16L704.23 297.16Z" /></g><g ><path class="shp5" d="M576.71 317.09L566.63 317.71L566.58 316.87C569.17 316.08 571.11 314.79 572.41 312.99C573.71 311.18 574.29 309.2 574.16 307.02C574.04 305.21 573.42 303.57 572.28 302.12C571.15 300.67 569.71 299.64 567.98 299.05C565.77 298.28 563.34 297.97 560.69 298.14C558.09 298.29 555.74 298.77 553.63 299.56C551.54 300.35 549.99 301.47 548.97 302.94C547.97 304.41 547.54 306.26 547.67 308.49C547.79 310.32 548.29 311.97 549.18 313.44C550.08 314.92 551.56 316.44 553.62 318.01L551.11 318.16C549.31 316.64 547.97 315.01 547.09 313.29C546.22 311.57 545.71 309.54 545.57 307.18C545.38 304.07 545.83 301.28 546.93 298.78C548.03 296.3 549.7 294.34 551.95 292.88C554.2 291.43 556.65 290.63 559.28 290.47C562.05 290.3 564.73 290.86 567.3 292.15C569.88 293.46 571.93 295.3 573.46 297.68C574.98 300.07 575.83 302.65 576 305.42C576.12 307.47 575.81 309.66 575.06 311.98C574.63 313.33 574.42 314.18 574.44 314.54C574.47 315 574.66 315.38 575.01 315.69C575.37 316.01 575.92 316.2 576.66 316.26L576.71 317.09L576.71 317.09Z" /><path fill-rule="evenodd" class="shp5" d="M567.38 353.52L562.96 344.23L559.87 344.34C558.84 344.38 558.05 344.54 557.5 344.8C556.76 345.16 556.36 345.71 556.29 346.47C556.25 346.92 556.5 347.85 557.05 349.28L556.34 349.62L552.17 340.87L552.89 340.52C553.48 341.4 554.24 341.99 555.16 342.3C556.1 342.6 557.78 342.72 560.21 342.65L585.69 342.07L585.86 342.44L568.8 362.2C567.19 364.08 566.26 365.44 566 366.27C565.81 366.9 565.88 367.63 566.19 368.47L565.47 368.81L559.41 356.08L560.13 355.74L560.38 356.26C560.87 357.28 561.35 357.93 561.83 358.21C562.18 358.4 562.54 358.4 562.93 358.21C563.16 358.1 563.38 357.95 563.59 357.75C563.7 357.67 564.09 357.25 564.77 356.48L567.38 353.52L567.38 353.52ZM575.7 343.94L564.72 344.22L568.51 352.18L575.7 343.94Z" /><path class="shp5" d="M600.08 390.94L618.29 380.95L627.53 388.39L627.03 389.01L626.3 388.42C625.63 387.88 625 387.56 624.41 387.47C624 387.4 623.57 387.49 623.1 387.72C622.76 387.89 622.14 388.54 621.23 389.66L609.18 404.62C608.24 405.78 607.72 406.56 607.61 406.95C607.5 407.34 607.54 407.79 607.74 408.32C607.95 408.84 608.37 409.36 609.01 409.87L609.74 410.46L609.24 411.08L597.4 401.53L597.9 400.91L598.63 401.51C599.3 402.05 599.93 402.36 600.52 402.45C600.93 402.52 601.37 402.43 601.84 402.19C602.18 402.02 602.8 401.36 603.72 400.23L617.28 383.41L591.89 397.1L591.49 396.77L599.22 369.1L586.34 385.08C585.44 386.2 584.91 386.91 584.76 387.21C584.46 387.88 584.4 388.59 584.59 389.34C584.8 390.08 585.43 390.87 586.47 391.7L585.97 392.32L578.2 386.06L578.7 385.44L578.94 385.63C579.43 386.05 579.96 386.35 580.53 386.53C581.11 386.7 581.63 386.73 582.08 386.62C582.54 386.51 583.04 386.25 583.59 385.82C583.71 385.72 584.18 385.16 585 384.14L596.57 369.78C597.49 368.63 598.01 367.87 598.11 367.49C598.22 367.1 598.17 366.65 597.96 366.13C597.76 365.6 597.35 365.08 596.71 364.57L595.99 363.99L596.49 363.37L605.76 370.84L600.08 390.94L600.08 390.94Z" /><path class="shp5" d="M648.47 396.16L645.79 407.71L646.35 407.85C648.16 408.26 649.59 408 650.66 407.06C651.74 406.12 652.64 404.57 653.38 402.42L654.17 402.6L650.72 417.46L649.92 417.28C650.13 415.62 650.08 414.21 649.78 413.05C649.49 411.9 649.03 411.06 648.4 410.55C647.77 410.02 646.78 409.6 645.42 409.28L643.57 417.28C643.2 418.84 643.04 419.82 643.09 420.19C643.15 420.57 643.33 420.92 643.64 421.23C643.95 421.53 644.51 421.78 645.32 421.97L647.02 422.36C649.67 422.98 651.94 422.86 653.81 422C655.7 421.15 657.29 419.54 658.57 417.19L659.34 417.37L655.97 426.1L631.44 420.4L631.62 419.62L632.56 419.84C633.38 420.03 634.08 420.04 634.65 419.87C635.06 419.75 635.41 419.48 635.72 419.06C635.95 418.76 636.23 417.89 636.56 416.47L640.9 397.8C641.2 396.51 641.35 395.72 641.35 395.41C641.32 394.89 641.15 394.45 640.83 394.1C640.39 393.58 639.71 393.22 638.79 393.01L637.85 392.79L638.03 392.01L661.79 397.53L659.84 405.93L659.05 405.74C659.12 403.6 658.89 401.99 658.36 400.93C657.84 399.86 656.96 398.97 655.71 398.24C654.99 397.81 653.55 397.34 651.41 396.84L648.47 396.16L648.47 396.16Z" /><path fill-rule="evenodd" class="shp5" d="M692.07 420.47C692.35 422.02 692.62 422.98 692.88 423.36C693.15 423.72 693.54 423.97 694.07 424.12C694.59 424.28 695.51 424.23 696.82 423.99L696.96 424.78L682.29 427.46L682.15 426.68C683.47 426.44 684.34 426.15 684.77 425.83C685.2 425.49 685.47 425.1 685.58 424.67C685.71 424.24 685.63 423.25 685.34 421.7L681.94 403.1C681.66 401.55 681.38 400.59 681.11 400.23C680.85 399.86 680.46 399.6 679.94 399.44C679.41 399.29 678.5 399.34 677.19 399.58L677.04 398.79L690.36 396.36C693.83 395.72 696.41 395.5 698.1 395.68C699.8 395.87 701.27 396.52 702.52 397.63C703.77 398.72 704.56 400.14 704.87 401.87C705.26 403.99 704.82 405.87 703.55 407.53C702.74 408.58 701.5 409.49 699.83 410.25L708.5 418.69C709.63 419.78 710.41 420.44 710.85 420.68C711.51 421.01 712.22 421.13 712.99 421.03L713.13 421.82L704.11 423.47L692.48 412.09L690.6 412.44L692.07 420.47ZM688.02 398.38L690.32 410.94L691.53 410.72C693.49 410.36 694.92 409.91 695.83 409.38C696.73 408.84 697.38 408.05 697.75 407.02C698.15 405.97 698.2 404.69 697.93 403.19C697.53 401 696.72 399.48 695.5 398.63C694.29 397.77 692.55 397.55 690.29 397.96L688.02 398.38L688.02 398.38Z" /><path fill-rule="evenodd" class="shp5" d="M741.98 376.34C746.02 377.03 749.28 379.14 751.77 382.68C753.89 385.7 754.88 388.99 754.72 392.53C754.52 397.22 752.28 401.07 748 404.08C743.71 407.1 739.37 407.97 734.98 406.71C731.52 405.72 728.68 403.64 726.46 400.49C723.97 396.95 723.1 393.16 723.85 389.11C724.6 385.05 726.78 381.85 730.4 379.52C734.1 376.71 737.96 375.65 741.98 376.34ZM728.77 387.33C729.13 389.81 730.51 392.76 732.92 396.19C735.78 400.26 738.61 402.76 741.4 403.7C743.35 404.36 745.23 404.06 747.02 402.8C748.23 401.95 749.03 400.95 749.43 399.8C749.93 398.32 749.9 396.56 749.32 394.52C748.73 392.46 747.5 390.11 745.64 387.46C743.43 384.3 741.48 382.15 739.8 381.01C738.11 379.85 736.58 379.27 735.21 379.26C733.85 379.25 732.58 379.66 731.4 380.5C729.22 382.03 728.34 384.31 728.77 387.33Z" /><path fill-rule="evenodd" class="shp5" d="M768.53 340.04C772.47 338.95 776.32 339.48 780.07 341.63C783.28 343.47 785.56 346.02 786.92 349.3C788.73 353.64 788.33 358.08 785.73 362.61C783.12 367.16 779.57 369.8 775.06 370.51C771.5 371.08 768.04 370.41 764.7 368.49C760.94 366.34 758.55 363.27 757.51 359.29C756.47 355.29 757.09 351.47 759.38 347.82C761.54 343.71 764.59 341.12 768.53 340.04ZM761.22 355.59C762.59 357.69 765.1 359.77 768.73 361.85C773.04 364.33 776.66 365.4 779.59 365.06C781.64 364.83 783.21 363.77 784.3 361.87C785.04 360.59 785.34 359.34 785.21 358.12C785.04 356.57 784.26 355 782.87 353.39C781.47 351.78 779.36 350.16 776.55 348.55C773.21 346.64 770.53 345.51 768.52 345.19C766.5 344.85 764.87 344.98 763.63 345.55C762.4 346.12 761.42 347.03 760.7 348.28C759.37 350.6 759.55 353.03 761.22 355.59Z" /><path class="shp5" d="M771.98 312.69L791.26 299.97L778.78 298.86C777.04 298.71 775.84 298.85 775.18 299.3C774.29 299.91 773.79 301.02 773.68 302.64L772.88 302.57L773.74 292.98L774.53 293.05C774.58 294.29 774.71 295.13 774.93 295.59C775.14 296.02 775.51 296.39 776.06 296.68C776.6 296.96 777.55 297.16 778.92 297.28L803.09 299.43L803.03 300.16L777.11 317.64L795.56 319.28C797.23 319.43 798.39 319.15 799.04 318.45C799.7 317.73 800.07 316.88 800.16 315.89L800.22 315.21L801.01 315.28L800.09 325.57L799.3 325.5C799.43 323.9 799.2 322.76 798.61 322.08C798.03 321.39 796.96 320.98 795.42 320.84L774.94 319.02L774.11 319.57C773.28 320.12 772.73 320.61 772.44 321.06C772.16 321.51 771.96 322.18 771.86 323.06L771.07 322.99L771.98 312.69L771.98 312.69Z" /></g></g><g clip-path="url(#cp1)"><g ><g ><path class="shp0" d="M0 0L450 0L450 300L0 300L0 0Z" /><path fill-rule="evenodd" class="shp8" d="M0 0L450 300M450 0L0 300" /><path class="shp9" d="M225 0L225 300" /><path class="shp9" d="M0 150L450 150" /><path class="shp10" d="M225 0L225 300" /><path class="shp10" d="M0 150L450 150" /></g></g></g></svg>