<svg version="1.2" xmlns="http://www.w3.org/2000/svg" viewBox="0 0 900 600" width="900" height="600">
	<title></title>
	<style>
		.s0 { fill: #dd0000 } 
		.s1 { fill: #ffffff } 
		.s2 { fill: #003893 } 
		.s3 { fill: #f8c300;stroke: #000000;stroke-linejoin: round;stroke-width: 1.3 } 
		.s4 { fill: none;stroke: #000000;stroke-linecap: round;stroke-width: 1.3 } 
		.s5 { fill: none;stroke: #000000;stroke-linecap: round;stroke-width: .9 } 
		.s6 { fill: none;stroke: #000000;stroke-linecap: round;stroke-linejoin: round;stroke-width: 1.3 } 
		.s7 { fill: #000000;stroke: #000000;stroke-linecap: round;stroke-linejoin: round;stroke-width: .7 } 
		.s8 { fill: #000000 } 
		.s9 { fill: none;stroke: #000000;stroke-linecap: round;stroke-linejoin: round;stroke-width: .9 } 
		.s10 { fill: none;stroke: #49e900;stroke-linecap: round;stroke-linejoin: round;stroke-width: .8 } 
		.s11 { fill: #f8c300;stroke: #000000;stroke-linecap: round;stroke-linejoin: round;stroke-width: 1.1 } 
		.s12 { fill: #ffffff;stroke: #000000;stroke-linecap: round;stroke-width: .8 } 
		.s13 { fill: none;stroke: #000000;stroke-linecap: round;stroke-width: .5 } 
		.s14 { fill: #ffffff;stroke: #000000;stroke-linecap: round;stroke-linejoin: round;stroke-width: .8 } 
		.s15 { fill: #f8c300;stroke: #000000;stroke-width: 1.1 } 
		.s16 { fill: none;stroke: #000000;stroke-linecap: round;stroke-linejoin: round;stroke-width: .5 } 
		.s17 { fill: none;stroke: #000000;stroke-linejoin: round;stroke-width: .5 } 
	</style>
	<path id="Layer" class="s0" d="m0 0h900v600h-900z"/>
	<path id="Layer" class="s1" d="m0 0h900v400h-900z"/>
	<path id="Layer" class="s2" d="m0 0h900v200h-900z"/>
	<g id="g6">
		<path id="rect4" class="s2" d="m0 0h300v600h-300z"/>
		<g id="Layer">
			<path id="Layer" class="s3" d="m149.9 357.4c2.7 0 9.5 0 11.3 0 3.6 0 7.2 0 10.9 0 1 0.5 2.7 6.4 6 6.4 3.6 0 4.6-2.8 10.7-2.8 5.1 0 3.5 2.2 10.8 1.7-5.2 6.9-1.9 14.4-11.2 16.9-1.7 0.5-1.7 1.9-0.6 2.2 5.4 1.3 6.8-4.9 11.2-5.5 3.8-0.4 4.8-3 6.6-7.7 1.5 3.5 1.7 9.6-3.6 13.1 3.3-0.6 3.3 0.6 6.2-0.2-6 4.4-4.6 6.4-12.1 7.5 3.6 5.4 0.3 7 4.1 9.1 2.8 1.5 4.6 0.6 7.2-5.8 1.2 2.9 1.1 7-2.7 11.1 4.6 2.3 4.7 7.1 0.6 12 0.2-4.2 0.1-8.5-5-6-1.3 0.6-3.5-0.5-3.1-0.3 1.7 1.3 1.1 1.7 2.9 3 2.8 1.8 1.7 5.6 0 7.2-1.7 1.5-5.4 1.1-7.5-3.8 2.6 2 4.5 2.2 4.9 1.5 0.7-1.1-3.5-3.6-5-4.2-3.3-1.2-2-2.7-4.2-2.5 0.5 2.5-1 4.1 0.6 5.7 3.6 2.5 3.6 4.6 6.2 6.8 2.3 1.8 3.2 2.7 3 4.9-0.2 2.4 1.6 5.7 5.5 2.6 0.2 5.3-2.7 5.2-4.2 5.1-4.9-0.3-4.9-4.4-8.2-6.1-2.3-1.2-0.4-4.1-3.3-4.9-0.8 2.1-0.7 5.1 0.3 6.2 2 2.1 2.7 0 5 4.9-4.3-1.4-5-0.2-7.4-1.2 1.8 2.5 0.4 3.6 4.1 6-5-1.2-4.8 1.4-8.8-3.3 0.1 1.4-0.2 3.9-3 5.8-0.1-2.5-0.1-3.4-1-4.5-2-2.2-1-4.8-3.2-6.4-1.2 1.7 0.1 4.9-3.2 6.5 0.2-2.2-0.1-5.2-1.2-5.8-1.8-1.2-1.8-2.9-3.9-3.6 0.1 2.2 1.1 2.9 0.6 5.3-0.4 2.4 1.9 5.1 3.5 7.5-3.1-2.1-6.7-1-7.7-4.8-1-4-2.7-3.7-3.2-6.3-0.4 1.1-1.1 2.2-0.4 3.2 0.6 1 1 2.9 0.9 4.6-0.2 3.8 4.2 3.5 5 4.9-5.2 2-9.4-0.2-11.4-6.8-0.3 0.4-1.1 1.5-0.9 2.2 0.6 2.2-2.2 4.8 0.2 7.3-2.3 0.5-3.5-1.7-3.4-2.9 0-1.7-1.8-2.7-1-4.4 0.4-0.7-0.6-1.8-0.9-2.2-1.9 6.6-6.2 8.8-11.4 6.8 0.8-1.4 5.2-1.1 5-4.9 0-1.7 0.4-3.6 1-4.6 0.6-1-0.1-2.1-0.5-3.2-0.4 2.6-2.2 2.3-3.2 6.3-1 3.8-4.6 2.7-7.6 4.8 1.5-2.4 3.9-5.1 3.4-7.5-0.4-2.4 0.5-3.1 0.6-5.3-2.1 0.7-2 2.4-3.9 3.6-1 0.6-1.3 3.6-1.2 5.8-3.3-1.6-2-4.8-3.2-6.5-2.2 1.6-1.2 4.2-3.1 6.4-1 1.1-1 2-1.1 4.5-2.7-1.9-3-4.4-3-5.8-4 4.7-3.7 2.1-8.7 3.3 3.7-2.4 2.2-3.5 4.1-6-2.5 1-3.1-0.2-7.5 1.2 2.3-4.9 3-2.8 5-4.9 1.1-1.1 1.2-4.1 0.4-6.2-3 0.8-1 3.7-3.3 4.9-3.4 1.7-3.3 5.8-8.3 6.1-1.5 0.1-4.3 0.2-4.2-5.1 3.9 3.1 5.8-0.2 5.6-2.6-0.3-2.2 0.7-3.1 2.9-4.9 2.7-2.2 2.6-4.3 6.2-6.8 1.7-1.6 0.2-3.2 0.7-5.7-2.3-0.2-1 1.3-4.3 2.5-1.5 0.6-5.6 3.1-5 4.2 0.4 0.7 2.3 0.5 4.9-1.5-2.1 4.9-5.7 5.3-7.4 3.8-1.8-1.6-2.8-5.4-0.1-7.2 1.9-1.3 1.2-1.7 3-3 0.3-0.2-1.9 0.9-3.2 0.3-5-2.5-5.2 1.8-4.9 6-4.1-4.9-4-9.7 0.5-12-3.8-4.1-3.9-8.2-2.6-11.1 2.5 6.4 4.3 7.3 7.1 5.8 3.8-2.1 0.5-3.7 4.2-9.1-7.6-1.1-6.2-3.1-12.2-7.5 2.9 0.8 2.9-0.4 6.3 0.2-5.4-3.5-5.1-9.6-3.7-13.1 1.8 4.7 2.9 7.3 6.7 7.7 4.3 0.6 5.7 6.8 11.1 5.5 1.1-0.3 1.1-1.7-0.6-2.2-9.3-2.5-6-10-11.1-16.9 7.2 0.5 5.6-1.7 10.8-1.7 6 0 7.1 2.8 10.6 2.8 3.3 0 5.1-5.9 6.1-6.4 3.6 0 7.2 0 10.9 0 1.7 0 5 0 11.2 0z"/>
			<g id="Layer">
				<g id="Layer">
					<g id="Layer">
						<g id="Layer">
							<g id="Layer">
								<path id="Layer" class="s4" d="m196.3 389c-3.2 0.5-6-0.7-6.8-3"/>
								<path id="Layer" class="s4" d="m205.4 402.6c-1.1 1.3-2.3 2.3-5.2 1.5"/>
								<path id="Layer" class="s4" d="m200.8 409.1c-5.6 1.4-5-2.9-8.2-4.4-3.5-1.5-2-5-5.9-6.1"/>
								<path id="Layer" class="s4" d="m188.3 410.3c-0.2-2.3-2.4-1.4-3.2-3.1"/>
								<path id="Layer" class="s4" d="m177.4 426.2c4 1.9 4.5 4.4 3.6 6.7-0.7 1.8-0.5 3.3 0.4 4.4"/>
								<path id="Layer" class="s4" d="m173.5 432.8c0.9-5.3-4.8-5.8-4.4-11"/>
								<path id="Layer" class="s4" d="m191.8 392.8c3.6 1.4 3.6 6.4 10.5 5.9"/>
								<path id="Layer" class="s4" d="m186.2 422.1c0.2 1 0.8 1.9 2 2.5"/>
								<path id="Layer" class="s4" d="m188 379.8c-1.5 0.4-2 0.7-3.7 0.9"/>
								<path id="Layer" class="s4" d="m184.5 432.3c0.3 1 0.9 1.2 1.3 2"/>
								<path id="Layer" class="s4" d="m163.5 425.6c0.4 1.6 1.6 1.8 2.2 4.2"/>
								<path id="Layer" class="s4" d="m202.5 381.3c-0.6 0.4-1.5 1.1-2.5 1.6"/>
								<path id="Layer" class="s4" d="m198.4 362.8c-13.4 0-10.5 4.9-22.7 6"/>
							</g>
							<g id="Layer">
								<path id="Layer" class="s5" d="m180.7 411.9c-2.3-0.4-2.7-1.8-2.8-3.3-0.2-1.5-0.4-2.9-1.9-3.9-1.4-0.9-1.1-1.8-2-2.5"/>
								<path id="Layer" class="s5" d="m183.2 399.3c-2.9 0.1-1.9-2.6-4-3.6"/>
								<path id="Layer" class="s5" d="m175.3 418.5c-0.7-4-3.3-3.2-4.4-6.9"/>
								<path id="Layer" class="s5" d="m180.2 418.4c-0.4-3.5-2.8-3.9-3.8-5.8-0.9-1.7-3.2-1.6-4-6.1"/>
								<path id="Layer" class="s5" d="m185.1 389.9c-1.2-2.5-2.5-1.8-3.9-4.7"/>
								<path id="Layer" class="s5" d="m186.4 395.3c-4.4 0.4-1.7-1.8-4.9-2.8"/>
								<path id="Layer" class="s5" d="m174.3 423.7c-2.1-1.4-1.2-2.8-2.5-4.1-2.2-2-0.7-3-2.6-4.8"/>
							</g>
							<g id="Layer">
								<path id="Layer" class="s4" d="m103.5 389c3.3 0.5 6-0.7 6.9-3"/>
								<path id="Layer" class="s4" d="m94.4 402.6c1.2 1.3 2.3 2.3 5.3 1.5"/>
								<path id="Layer" class="s4" d="m113.2 398.6c-4 1.1-2.4 4.6-5.9 6.1-3.3 1.5-2.7 5.8-8.2 4.4"/>
								<path id="Layer" class="s4" d="m111.6 410.3c0.1-2.3 2.4-1.4 3.1-3.1"/>
								<path id="Layer" class="s4" d="m118.4 437.3c0.9-1.1 1.2-2.6 0.4-4.4-0.9-2.3-0.4-4.8 3.7-6.7"/>
								<path id="Layer" class="s4" d="m126.3 432.8c-0.9-5.3 4.8-5.8 4.4-11"/>
								<path id="Layer" class="s4" d="m108.1 392.8c-3.7 1.4-3.7 6.4-10.5 5.9"/>
							</g>
						</g>
						<path id="Layer" class="s6" d="m149.9 433.7c-3.4 0-5.5-2.1-6.2-4.6-0.5-1.9-3-3.5-5.5-5.7-2-1.7-2.7-3.2-2.3-4.1-1.6 0.1-1.7-0.2-3.1-1.6-4.5-4.5-3.8-7.3-5.8-12.9-0.8-2.3-2.6-4.9-0.9-7.2-2.2 0.3-3.7-0.3-5.2-1.7-2.3-2.1-3.3-4.3-2.9-7.6 0.7-5 4.1-7.1 1.6-13.6-1.1-2.8-5.6-5.4-9.9-3"/>
						<g id="Layer">
							<g id="Layer">
								<path id="Layer" class="s4" d="m113.7 422.1c-0.2 1-0.8 1.9-2.1 2.5"/>
								<path id="Layer" class="s4" d="m111.8 379.8c1.6 0.4 2 0.7 3.8 0.9"/>
								<path id="Layer" class="s4" d="m115.3 432.3c-0.2 1-0.8 1.2-1.3 2"/>
								<path id="Layer" class="s4" d="m136.4 425.6c-0.4 1.6-1.7 1.8-2.3 4.2"/>
								<path id="Layer" class="s4" d="m97.3 381.3c0.6 0.4 1.5 1.1 2.6 1.6"/>
								<path id="Layer" class="s4" d="m101.4 362.8c13.5 0 10.6 4.9 22.7 6"/>
							</g>
							<g id="Layer">
								<path id="Layer" class="s5" d="m125.8 402.2c-0.9 0.7-0.6 1.6-1.9 2.5-1.6 1-1.8 2.4-1.9 3.9-0.2 1.5-0.6 2.9-2.9 3.3"/>
								<path id="Layer" class="s5" d="m116.7 399.3c2.8 0.1 1.9-2.6 4-3.6"/>
								<path id="Layer" class="s5" d="m124.5 418.5c0.7-4 3.3-3.2 4.4-6.9"/>
								<path id="Layer" class="s5" d="m127.4 406.5c-0.8 4.5-3 4.4-3.9 6.1-1.1 1.9-3.5 2.3-3.8 5.8"/>
								<path id="Layer" class="s5" d="m118.1 404.4c5.2-1.3 3.3-5.9 7.5-6.2"/>
								<path id="Layer" class="s5" d="m114.7 389.9c1.3-2.5 2.6-1.8 3.9-4.7"/>
								<path id="Layer" class="s5" d="m113.5 395.3c4.4 0.4 1.7-1.8 4.9-2.8"/>
								<path id="Layer" class="s5" d="m130.6 414.8c-1.8 1.8-0.3 2.8-2.5 4.8-1.3 1.3-0.5 2.7-2.5 4.1"/>
							</g>
						</g>
					</g>
					<path id="Layer" class="s1" d="m140.1 378q1 0.7 2 1.2c-1.1 3.6-3.5 5.2-5.8 4.8-2.2-0.4-4.2-2.9-3.8-6.7l0.1-0.2c1.1 0.6 2.1 0.6 3.6 0.1q0.4-0.2 0.9-0.2c0.9 0 2 0.4 3 1z"/>
					<path id="Layer" class="s6" d="m142.1 379.2c-1.1 3.6-3.5 5.2-5.8 4.8-2.2-0.4-4.2-2.9-3.8-6.7"/>
					<path id="Layer" class="s7" d="m139.8 378.8c-0.3 1.9-1.5 3-2.8 2.9-1.2-0.1-2.4-1.4-2.4-3.4 0-0.6 1.9-1.2 3-1.1 1.7 0 2.3 0.8 2.2 1.6z"/>
					<path id="Layer" class="s1" d="m137.9 378.8c0 0.6-0.5 1-1 1-0.6 0-1.1-0.4-1.1-1 0-0.6 0.5-1.1 1.1-1.1 0.5 0 1 0.5 1 1.1z"/>
					<path id="Layer" class="s6" d="m146.6 365.4c-0.5 2.4 0.7 3 0.9 4.5 0.2 3.1-1.2 1.9-0.4 5 0.5 1.7 0.1 2.2-0.2 2.9-0.9 3.1-4 2.1-6.8 0.2-1.3-0.9-2.8-1.2-3.9-0.8-1.8 0.6-2.8 0.4-4.3-0.4-2.5-1.6-2.6-4.2-6.2-3.1"/>
					<path id="Layer" class="s1" d="m162.8 377q0.4 0 0.8 0.2c1.6 0.5 2.5 0.5 3.7-0.1v0.2c0.4 3.8-1.5 6.3-3.8 6.7-2.2 0.4-4.7-1.2-5.7-4.8q0.9-0.5 1.9-1.2c1.1-0.6 2.1-1 3.1-1z"/>
					<path id="Layer" class="s6" d="m167.3 377.3c0.4 3.8-1.5 6.3-3.8 6.7-2.2 0.4-4.7-1.2-5.7-4.8"/>
					<path id="Layer" class="s7" d="m162.2 377.2c1.1-0.1 3.1 0.5 3 1.1 0 2-1.1 3.3-2.4 3.4-1.2 0.1-2.5-1-2.8-2.9-0.1-0.8 0.6-1.6 2.2-1.6z"/>
					<path id="Layer" class="s1" d="m163 377.7c0.6 0 1 0.5 1 1.1 0 0.6-0.4 1-1 1-0.6 0-1.1-0.4-1.1-1 0-0.6 0.5-1.1 1.1-1.1z"/>
					<g id="Layer">
						<path id="Layer" class="s6" d="m174.2 373.7c-3.6-1.1-3.8 1.5-6.3 3.1-1.4 0.8-2.4 1-4.3 0.4-1.1-0.4-2.5-0.1-3.9 0.8-2.7 1.9-5.8 2.9-6.8-0.2-0.2-0.7-0.6-1.2-0.2-2.9 0.9-3.1-0.6-1.9-0.3-5 0.1-1.5 1.3-2.1 0.8-4.5"/>
						<path id="Layer" class="s6" d="m146.6 406.4c0 1.5-4 1.2-5.4-0.2-1.5-1.5-1.3-4.5 2.1-7.8 2.9-3 0.5-5.9 1-8.8 0.3-1.6 2-2.8 1.5-4.7"/>
						<path id="Layer" class="s6" d="m145.5 405.4c2.7 1.3 4.4 3 4.4 4.3v1.9c0 7.3-13.3 5.6-14 7.7"/>
					</g>
					<path id="Layer" class="s8" d="m146.7 404.3c0.8 0.4 1.2 1.3 0.8 1.9-0.4 0.7-1.3 0.9-2.1 0.4-0.7-0.4-1.1-1.3-0.7-1.9 0.3-0.7 1.2-0.9 2-0.4z"/>
					<g id="Layer">
						<g id="Layer">
							<path id="Layer" class="s4" d="m143.2 413.3c-7 0.5-12.4 2-16.9 5.2"/>
							<path id="Layer" class="s4" d="m142.9 410.4c-7.4-0.3-19.6 1.6-24.9 4.2"/>
							<g id="Layer">
								<path id="Layer" class="s5" d="m141.1 370.9c-3.7-3-7.9-3.8-12.3-4.1"/>
								<path id="Layer" class="s5" d="m139.9 373.5c-4-2.6-8.3-2.9-12.7-2.7"/>
								<path id="Layer" class="s5" d="m158.7 370.9c3.7-3 7.9-3.8 12.3-4.1"/>
								<path id="Layer" class="s5" d="m159.9 373.5c4.1-2.6 8.3-2.9 12.7-2.7"/>
							</g>
							<path id="Layer" class="s4" d="m156.7 413.3c7 0.5 12.3 2 16.9 5.2"/>
							<path id="Layer" class="s4" d="m157 410.4c7.3-0.3 19.5 1.6 24.8 4.2"/>
							<path id="Layer" class="s5" d="m181.7 404.4c-5.2-1.3-3.3-5.9-7.4-6.2"/>
						</g>
						<g id="Layer">
							<path id="Layer" class="s9" d="m136.5 392.2c-1.2 1.9-2.9 3.6-5 4"/>
							<path id="Layer" class="s9" d="m134.6 389.9c-1.2 2-2.9 3.6-5 4.1"/>
							<path id="Layer" class="s6" d="m154 384.9c-0.4 1.9 1.3 3.1 1.6 4.7 0.5 2.9-2 5.8 1 8.8 3.3 3.3 3.6 6.3 2 7.8-1.3 1.4-5.4 1.7-5.4 0.2"/>
						</g>
					</g>
					<path id="Layer" class="s8" d="m155.2 404.7c0.3 0.6 0 1.5-0.8 1.9-0.8 0.5-1.7 0.3-2.1-0.4-0.3-0.6 0-1.5 0.8-1.9 0.8-0.5 1.7-0.3 2.1 0.4z"/>
					<g id="Layer">
						<path id="Layer" class="s6" d="m163.9 419.3c-0.7-2.1-14-0.4-14-7.7v-1.9c0-1.3 1.8-3 4.4-4.3"/>
						<path id="Layer" class="s6" d="m190.2 371.7c-4.3-2.4-8.9 0.2-9.9 3-2.5 6.5 0.8 8.6 1.5 13.6 0.4 3.3-0.6 5.5-2.8 7.6-1.5 1.4-3 2-5.3 1.7 1.7 2.3 0 4.9-0.8 7.2-2 5.6-1.4 8.4-5.9 12.9-1.4 1.4-1.5 1.7-3.1 1.6 0.4 0.9-0.3 2.4-2.2 4.1-2.6 2.2-5.1 3.8-5.6 5.7-0.6 2.5-2.7 4.6-6.2 4.6"/>
						<path id="Layer" class="s9" d="m163.4 392.2c1.1 1.9 2.8 3.6 4.9 4"/>
						<path id="Layer" class="s9" d="m165.3 389.9c1.1 2 2.8 3.6 5 4.1"/>
					</g>
				</g>
				<g id="Layer">
					<path id="Layer" class="s10" d="m144.1 325.1c0.8 0.5 1.3 0.4 1.6 0 0.4-0.8-0.4-1.6-1.2-2.4-1.6-1.7-0.6-3.6-0.5-5.2 0.9 1.2 1.8 1.1 2.3 1.9 0.2 0.5 0.6 0.3 0.7-0.1 0.2-0.7-0.9-1.4 0.1-3.3 0.8-1.7 1.9-1.6 2.8-3.4 1 1.8 2.1 1.7 2.9 3.4 0.9 1.9-0.2 2.6 0 3.3 0.2 0.4 0.5 0.6 0.8 0.1 0.4-0.8 1.4-0.7 2.3-1.9 0 1.6 1.1 3.5-0.6 5.2-0.7 0.8-1.5 1.6-1.1 2.4 0.2 0.4 0.8 0.5 1.6 0"/>
					<path id="Layer" class="s11" d="m152.8 316c0.9 1.9-0.2 2.6 0 3.3 0.2 0.4 0.5 0.6 0.8 0.1 0.4-0.8 1.4-0.7 2.3-1.9 0 1.6 1.1 3.5-0.6 5.2-0.7 0.8-1.5 1.6-1.1 2.4 0.2 0.4 0.8 0.5 1.6 0 2.1-0.9 2.5-1.9 3.3-2.7 1.6-1.7 3.5-0.6 5.2-0.5-1.3 0.9-1.1 1.8-1.9 2.3-0.5 0.2-0.4 0.6 0.1 0.7 0.6 0.2 1.4-0.9 3.3 0.1 1.6 0.8 1.6 1.9 3.4 2.8-1.8 1-1.8 2.1-3.4 2.9-1.9 0.9-2.7-0.2-3.3 0-0.5 0.1-0.6 0.5-0.1 0.8 0.8 0.4 0.6 1.4 1.9 2.3-1.7 0-3.6 1.1-5.2-0.6-0.8-0.7-1.8-2.1-3.2-1.3-1.4 0.8-1.8 3.8 0.6 5.5 4.8 3.6 12.5-0.2 15-8.5l3 1.1c-6.4 10.4 2.4 13.7 7.7 8.6 0.5-0.5 0.2-1.1 0.1-1.3-0.3-0.6-1-0.7-1.8-0.7-1.8 0-2.2-1.5-3.1-2.4 1.1 0.1 1.6-0.4 2.2-0.3 0.4 0.2 0.6-0.1 0.4-0.4-0.3-0.5-1.2-0.3-1.7-1.8-0.5-1.3 0.1-1.8-0.3-3.3 1.4 0.5 2-0.1 3.3 0.3 1.5 0.5 1.3 1.5 1.8 1.7 0.3 0.2 0.5 0.1 0.4-0.3-0.2-0.7 0.4-1.1 0.2-2.2 0.9 0.8 2.5 1.2 2.5 3 0 0.8 0 1.7 0.6 1.9 0.4 0.1 0.7-0.2 0.9-0.8 0.3-0.7 0.3-1.5 0.3-2.4 0-2 1.7-2.4 2.7-3.4-0.2 1.3 0.5 1.7 0.3 2.5-0.2 0.4 0.1 0.5 0.5 0.3 0.4-0.2 0.2-1.3 1.9-1.8 1.4-0.5 2 0.1 3.6-0.4-0.3 2.3-3.2 5-6.1 6.8-2.5 1.6-2.6 2-3.9 4-2.4 3.7-6.2 7.3-10.6 10h-52.9c-4.5-2.7-8.3-6.3-10.6-10-1.4-2-1.5-2.4-3.9-4-3-1.8-5.8-4.5-6.2-6.8 1.6 0.5 2.2-0.1 3.7 0.4 1.6 0.5 1.4 1.6 1.9 1.8 0.3 0.2 0.6 0.1 0.5-0.3-0.2-0.8 0.4-1.2 0.2-2.5 1 1 2.7 1.4 2.7 3.4 0 0.9 0 1.7 0.3 2.4 0.2 0.6 0.6 0.9 0.9 0.8 0.6-0.2 0.7-1.1 0.7-1.9 0-1.8 1.5-2.2 2.4-3-0.2 1.1 0.4 1.5 0.2 2.2-0.1 0.4 0.2 0.5 0.5 0.3 0.4-0.2 0.2-1.2 1.8-1.7 1.3-0.4 1.8 0.2 3.3-0.3-0.5 1.5 0.1 2-0.3 3.3-0.5 1.5-1.5 1.3-1.7 1.8-0.2 0.3-0.1 0.6 0.3 0.4 0.7-0.1 1.1 0.4 2.2 0.3-0.8 0.9-1.3 2.4-3 2.4-0.8 0-1.6 0.1-1.9 0.7-0.1 0.2-0.3 0.8 0.1 1.3 5.3 5.1 14.1 1.8 7.7-8.6l3.1-1.1c2.5 8.3 10.1 12.1 15 8.5 2.4-1.7 1.9-4.7 0.6-5.5-1.5-0.8-2.5 0.6-3.2 1.3-1.7 1.7-3.6 0.6-5.2 0.6 1.2-0.9 1.1-1.9 1.9-2.3 0.5-0.3 0.3-0.7-0.1-0.8-0.7-0.2-1.4 0.9-3.3 0-1.6-0.8-1.6-1.9-3.4-2.9 1.8-0.9 1.8-2 3.4-2.8 1.9-1 2.6 0.1 3.3-0.1 0.4-0.1 0.6-0.5 0.1-0.7-0.8-0.5-0.7-1.4-1.9-2.3 1.6-0.1 3.5-1.2 5.2 0.5 0.8 0.8 1.2 1.8 3.3 2.7 0.8 0.5 1.3 0.4 1.6 0 0.4-0.8-0.4-1.6-1.2-2.4-1.6-1.7-0.6-3.6-0.5-5.2 0.9 1.2 1.8 1.1 2.3 1.9 0.2 0.5 0.6 0.3 0.7-0.1 0.2-0.7-0.9-1.4 0.1-3.3 0.8-1.7 1.9-1.6 2.8-3.4 1 1.8 2.1 1.7 2.9 3.4z"/>
					<g id="Layer">
						<path id="Layer" class="s12" d="m127.2 330.2c-1.8 0.6-3.7-0.3-4.3-2.1-0.6-1.8 0.4-3.7 2.1-4.3 1.8-0.6 3.8 0.3 4.4 2.1 0.6 1.8-0.4 3.7-2.2 4.3z"/>
						<path id="Layer" class="s13" d="m128.3 327c0 0.9-0.6 1.7-1.5 2q-0.6 0.2-1.2 0.1"/>
					</g>
					<path id="Layer" class="s14" d="m108.4 333.6c0.7-0.6 2.2-0.1 3.5 1.1 1.2 1.3 1.8 2.8 1.1 3.5-0.6 0.6-2.2 0.1-3.4-1.2-1.3-1.2-1.8-2.8-1.2-3.4z"/>
					<g id="Layer">
						<path id="Layer" class="s12" d="m174.8 330.2c-1.8 0.6-3.7-0.3-4.3-2.1-0.6-1.8 0.3-3.7 2.1-4.3 1.8-0.6 3.7 0.3 4.3 2.1 0.6 1.8-0.3 3.7-2.1 4.3z"/>
						<path id="Layer" class="s13" d="m175.8 327c0 0.9-0.5 1.7-1.4 2q-0.6 0.2-1.2 0.1"/>
					</g>
					<path id="Layer" class="s14" d="m190.3 337c-1.3 1.3-2.8 1.8-3.5 1.2-0.6-0.7-0.1-2.2 1.2-3.5 1.2-1.2 2.8-1.7 3.4-1.1 0.6 0.6 0.1 2.2-1.1 3.4z"/>
					<g id="Layer">
						<circle id="Layer" class="s12" cx="149.9" cy="328.5" r="3.2"/>
						<path id="Layer" class="s13" d="m151.6 327.6c0.3 0.5 0.3 1.1 0 1.7-0.4 1-1.6 1.4-2.7 0.9"/>
					</g>
					<g id="Layer">
						<path id="Layer" class="s15" d="m177.9 347.1c-1.9 4.1-1.2 9-0.8 14-8.6-2.4-17.7-3.9-27.2-3.9-9.5 0-18.7 1.5-27.2 3.9 0.4-5 1-9.9-0.9-14 10.9-3.2 18.4-4.8 28.1-4.8 9.7 0 17.1 1.6 28 4.8z"/>
						<path id="Layer" class="s15" d="m149.9 356.9h1.6c9 0 15.3 0.7 25.2 2.7 2.1 0.4 1.6 3.8-0.5 3.3-10.1-2.3-17.3-2.6-24.7-2.7h-3.1c-7.5 0.1-14.7 0.4-24.7 2.7-2.1 0.5-2.6-2.9-0.5-3.3 9.8-2 16.2-2.7 25.2-2.7z"/>
						<path id="Layer" class="s15" d="m153 342.2c9 0 15.3 0.7 25.2 2.7 2.1 0.4 1.6 3.8-0.5 3.3-10.1-2.3-17.3-2.6-24.7-2.6h-6.1c-7.5 0-14.7 0.3-24.7 2.6-2.1 0.5-2.6-2.9-0.5-3.3 9.8-2 16.2-2.7 25.2-2.7h3z"/>
					</g>
					<g id="Layer">
						<g id="Layer">
							<path id="Layer" class="s16" d="m162.7 358.8c0 0.6-0.1 1.3-0.4 1.8"/>
							<path id="Layer" class="s16" d="m164.3 358.9c0 0.7-0.2 1.4-0.5 1.9"/>
							<g id="Layer">
								<path id="Layer" class="s17" d="m165.6 357.5c0.4 1.2 0.3 2.6-0.3 3.6"/>
								<path id="Layer" class="s17" d="m167.2 357.7c0.4 1.2 0.2 2.6-0.4 3.6"/>
								<path id="Layer" class="s17" d="m168.8 358c0.4 1.1 0.2 2.6-0.4 3.6"/>
								<path id="Layer" class="s17" d="m170.4 358.2c0.3 1.2 0.1 2.6-0.5 3.6"/>
								<path id="Layer" class="s17" d="m172 358.5c0.3 1.2 0 2.6-0.6 3.6"/>
								<path id="Layer" class="s17" d="m173.5 358.8c0.3 1.2 0.1 2.6-0.6 3.6"/>
								<path id="Layer" class="s17" d="m175.1 359.1c0.3 1.2 0 2.6-0.7 3.6"/>
								<path id="Layer" class="s17" d="m176.7 359.4c0.2 1.2-0.1 2.6-0.7 3.6"/>
							</g>
							<g id="Layer">
								<path id="Layer" class="s16" d="m161.1 358.7c0 0.6-0.1 1.3-0.4 1.8"/>
								<path id="Layer" class="s16" d="m159.6 358.6c-0.1 0.6-0.2 1.2-0.4 1.7"/>
								<path id="Layer" class="s16" d="m134 359.3c0 0.5 0.2 1.1 0.4 1.6"/>
								<path id="Layer" class="s16" d="m132.4 359.4c0.1 0.6 0.2 1.2 0.5 1.7"/>
							</g>
							<g id="Layer">
								<path id="Layer" class="s17" d="m131 358c-0.3 1.1-0.1 2.6 0.5 3.6"/>
								<path id="Layer" class="s17" d="m129.5 358.2c-0.4 1.2-0.2 2.6 0.5 3.6"/>
								<path id="Layer" class="s17" d="m127.9 358.5c-0.3 1.2-0.1 2.6 0.5 3.6"/>
								<path id="Layer" class="s17" d="m126.3 358.8c-0.3 1.2 0 2.6 0.6 3.6"/>
								<path id="Layer" class="s17" d="m124.7 359.1c-0.2 1.2 0 2.6 0.7 3.6"/>
								<path id="Layer" class="s17" d="m123.2 359.4c-0.3 1.2 0 2.6 0.7 3.6"/>
							</g>
						</g>
						<g id="Layer">
							<path id="Layer" class="s8" d="m136 359.8c0 0.2-0.2 0.3-0.3 0.3-0.2 0-0.4-0.1-0.4-0.3 0-0.2 0.2-0.3 0.4-0.3 0.1 0 0.3 0.1 0.3 0.3z"/>
							<path id="Layer" class="s8" d="m137.6 359.6c0 0.2-0.2 0.3-0.4 0.3-0.1 0-0.3-0.1-0.3-0.3 0-0.1 0.2-0.3 0.3-0.3 0.2 0 0.4 0.2 0.4 0.3z"/>
							<path id="Layer" class="s8" d="m139.1 359.5c0 0.2-0.1 0.3-0.3 0.3-0.1 0-0.3-0.1-0.3-0.3 0-0.2 0.2-0.3 0.3-0.3 0.2 0 0.3 0.1 0.3 0.3z"/>
							<path id="Layer" class="s8" d="m140.7 359.4c0 0.2-0.1 0.3-0.3 0.3-0.2 0-0.3-0.1-0.3-0.3 0-0.2 0.1-0.3 0.3-0.3 0.2 0 0.3 0.1 0.3 0.3z"/>
							<path id="Layer" class="s8" d="m142.3 359.3c0 0.2-0.2 0.3-0.3 0.3-0.2 0-0.3-0.1-0.3-0.3 0-0.2 0.1-0.3 0.3-0.3 0.1 0 0.3 0.1 0.3 0.3z"/>
							<path id="Layer" class="s8" d="m143.9 359.2c0 0.2-0.1 0.4-0.3 0.4-0.2 0-0.3-0.2-0.3-0.4 0-0.1 0.1-0.3 0.3-0.3 0.2 0 0.3 0.2 0.3 0.3z"/>
							<path id="Layer" class="s8" d="m145.5 359.2c0 0.2-0.2 0.3-0.3 0.3-0.2 0-0.3-0.1-0.3-0.3 0-0.2 0.1-0.3 0.3-0.3 0.1 0 0.3 0.1 0.3 0.3z"/>
							<path id="Layer" class="s8" d="m147.1 359.2c0 0.2-0.2 0.3-0.3 0.3-0.2 0-0.4-0.1-0.4-0.3 0-0.2 0.2-0.3 0.4-0.3 0.1 0 0.3 0.1 0.3 0.3z"/>
							<path id="Layer" class="s8" d="m148.7 359.2c0 0.1-0.2 0.3-0.4 0.3-0.1 0-0.3-0.2-0.3-0.3 0-0.2 0.2-0.3 0.3-0.3 0.2 0 0.4 0.1 0.4 0.3z"/>
							<path id="Layer" class="s8" d="m150.2 359.2c0 0.1-0.1 0.3-0.3 0.3-0.1 0-0.3-0.2-0.3-0.3 0-0.2 0.2-0.3 0.3-0.3 0.2 0 0.3 0.1 0.3 0.3z"/>
							<path id="Layer" class="s8" d="m151.8 359.2c0 0.2-0.1 0.3-0.3 0.3-0.2 0-0.3-0.1-0.3-0.3 0-0.2 0.1-0.3 0.3-0.3 0.2 0 0.3 0.1 0.3 0.3z"/>
							<path id="Layer" class="s8" d="m153.4 359.2c0 0.2-0.1 0.3-0.3 0.3-0.2 0-0.3-0.1-0.3-0.3 0-0.2 0.1-0.3 0.3-0.3 0.2 0 0.3 0.1 0.3 0.3z"/>
							<path id="Layer" class="s8" d="m155 359.2c0 0.2-0.1 0.3-0.3 0.3-0.2 0-0.3-0.1-0.3-0.3 0-0.2 0.1-0.3 0.3-0.3 0.2 0 0.3 0.1 0.3 0.3z"/>
							<path id="Layer" class="s8" d="m158.2 359.3c0 0.2-0.2 0.3-0.3 0.3-0.2 0-0.4-0.1-0.4-0.3 0-0.2 0.2-0.3 0.4-0.3 0.1 0 0.3 0.1 0.3 0.3z"/>
							<path id="Layer" class="s8" d="m156.6 359.3c0 0.1-0.2 0.3-0.3 0.3-0.2 0-0.3-0.2-0.3-0.3 0-0.2 0.1-0.4 0.3-0.4 0.1 0 0.3 0.2 0.3 0.4z"/>
							<path id="Layer" class="s8" d="m136 344.9c0 0.2-0.2 0.4-0.3 0.4-0.2 0-0.3-0.2-0.3-0.4 0-0.1 0.1-0.3 0.3-0.3 0.1 0 0.3 0.2 0.3 0.3z"/>
							<path id="Layer" class="s8" d="m137.6 344.8c0 0.2-0.2 0.3-0.4 0.3-0.1 0-0.3-0.1-0.3-0.3 0-0.2 0.2-0.3 0.3-0.3 0.2 0 0.4 0.1 0.4 0.3z"/>
							<path id="Layer" class="s8" d="m139.1 344.7c0 0.2-0.1 0.3-0.3 0.3-0.1 0-0.3-0.1-0.3-0.3 0-0.2 0.2-0.3 0.3-0.3 0.2 0 0.3 0.1 0.3 0.3z"/>
							<path id="Layer" class="s8" d="m140.7 344.6c0 0.2-0.1 0.3-0.3 0.3-0.2 0-0.3-0.1-0.3-0.3 0-0.2 0.1-0.3 0.3-0.3 0.2 0 0.3 0.1 0.3 0.3z"/>
							<path id="Layer" class="s8" d="m142.3 344.6c0 0.1-0.1 0.3-0.3 0.3-0.2 0-0.3-0.2-0.3-0.3 0-0.2 0.1-0.4 0.3-0.4 0.2 0 0.3 0.2 0.3 0.4z"/>
							<path id="Layer" class="s8" d="m143.9 344.5c0 0.2-0.2 0.3-0.3 0.3-0.2 0-0.4-0.1-0.4-0.3 0-0.2 0.2-0.3 0.4-0.3 0.1 0 0.3 0.1 0.3 0.3z"/>
							<path id="Layer" class="s8" d="m145.4 344.5c0 0.2-0.1 0.3-0.3 0.3-0.1 0-0.3-0.1-0.3-0.3 0-0.2 0.2-0.3 0.3-0.3 0.2 0 0.3 0.1 0.3 0.3z"/>
							<path id="Layer" class="s8" d="m147 344.5c0 0.2-0.1 0.3-0.3 0.3-0.2 0-0.3-0.1-0.3-0.3 0-0.2 0.1-0.3 0.3-0.3 0.2 0 0.3 0.1 0.3 0.3z"/>
							<path id="Layer" class="s8" d="m148.6 344.5c0 0.2-0.1 0.3-0.3 0.3-0.2 0-0.3-0.1-0.3-0.3 0-0.2 0.1-0.3 0.3-0.3 0.2 0 0.3 0.1 0.3 0.3z"/>
							<path id="Layer" class="s8" d="m150.2 344.5c0 0.2-0.2 0.3-0.3 0.3-0.2 0-0.3-0.1-0.3-0.3 0-0.2 0.1-0.3 0.3-0.3 0.1 0 0.3 0.1 0.3 0.3z"/>
							<path id="Layer" class="s8" d="m151.8 344.5c0 0.2-0.2 0.3-0.4 0.3-0.1 0-0.3-0.1-0.3-0.3 0-0.2 0.2-0.3 0.3-0.3 0.2 0 0.4 0.1 0.4 0.3z"/>
							<path id="Layer" class="s8" d="m153.3 344.5c0 0.2-0.1 0.3-0.3 0.3-0.2 0-0.3-0.1-0.3-0.3 0-0.2 0.1-0.3 0.3-0.3 0.2 0 0.3 0.1 0.3 0.3z"/>
							<path id="Layer" class="s8" d="m154.9 344.5c0 0.2-0.1 0.3-0.3 0.3-0.2 0-0.3-0.1-0.3-0.3 0-0.2 0.1-0.3 0.3-0.3 0.2 0 0.3 0.1 0.3 0.3z"/>
							<path id="Layer" class="s8" d="m158.1 344.6c0 0.1-0.2 0.3-0.3 0.3-0.2 0-0.4-0.2-0.4-0.3 0-0.2 0.2-0.4 0.4-0.4 0.1 0 0.3 0.2 0.3 0.4z"/>
							<path id="Layer" class="s8" d="m156.5 344.5c0 0.2-0.1 0.3-0.3 0.3-0.2 0-0.3-0.1-0.3-0.3 0-0.2 0.1-0.3 0.3-0.3 0.2 0 0.3 0.1 0.3 0.3z"/>
							<path id="Layer" class="s8" d="m134.4 345.1c0 0.2-0.1 0.3-0.3 0.3-0.2 0-0.3-0.1-0.3-0.3 0-0.2 0.1-0.3 0.3-0.3 0.2 0 0.3 0.1 0.3 0.3z"/>
							<path id="Layer" class="s8" d="m159.6 344.6c0 0.2-0.1 0.3-0.3 0.3-0.1 0-0.3-0.1-0.3-0.3 0-0.2 0.2-0.3 0.3-0.3 0.2 0 0.3 0.1 0.3 0.3z"/>
							<path id="Layer" class="s8" d="m161.1 344.7c0 0.2-0.1 0.3-0.3 0.3-0.2 0-0.3-0.1-0.3-0.3 0-0.2 0.1-0.3 0.3-0.3 0.2 0 0.3 0.1 0.3 0.3z"/>
							<path id="Layer" class="s8" d="m162.5 344.8c0 0.2-0.1 0.3-0.3 0.3-0.1 0-0.3-0.1-0.3-0.3 0-0.2 0.2-0.3 0.3-0.3 0.2 0 0.3 0.1 0.3 0.3z"/>
						</g>
						<g id="Layer">
							<path id="Layer" class="s16" d="m131 345c0 0.6 0.2 1.1 0.5 1.6"/>
							<g id="Layer">
								<path id="Layer" class="s17" d="m129.5 343.3c-0.3 1.1-0.1 2.6 0.5 3.6"/>
								<path id="Layer" class="s17" d="m127.9 343.5c-0.3 1.2-0.1 2.6 0.6 3.6"/>
								<path id="Layer" class="s17" d="m126.4 343.8c-0.4 1.2-0.1 2.6 0.5 3.6"/>
								<path id="Layer" class="s17" d="m124.8 344.1c-0.3 1.2 0 2.6 0.6 3.6"/>
								<path id="Layer" class="s17" d="m123.2 344.4c-0.3 1.2 0 2.6 0.7 3.6"/>
								<path id="Layer" class="s17" d="m121.7 344.7c-0.3 1.2 0 2.6 0.7 3.6"/>
							</g>
							<path id="Layer" class="s16" d="m132.5 345q0.2 0.7 0.5 1.3"/>
							<path id="Layer" class="s16" d="m164.2 344.4q-0.1 0.8-0.4 1.5"/>
							<g id="Layer">
								<path id="Layer" class="s17" d="m165.5 342.7c0.5 1.1 0.3 2.6-0.2 3.6"/>
								<path id="Layer" class="s17" d="m167.1 342.8c0.4 1.2 0.3 2.6-0.3 3.7"/>
								<path id="Layer" class="s17" d="m168.7 343c0.4 1.2 0.2 2.7-0.4 3.7"/>
								<path id="Layer" class="s17" d="m170.3 343.3c0.4 1.1 0.2 2.6-0.4 3.6"/>
								<path id="Layer" class="s17" d="m171.9 343.5c0.3 1.2 0.1 2.6-0.5 3.6"/>
								<path id="Layer" class="s17" d="m173.5 343.8c0.3 1.2 0.1 2.6-0.6 3.6"/>
								<path id="Layer" class="s17" d="m175.1 344.1c0.3 1.2 0 2.6-0.7 3.6"/>
								<path id="Layer" class="s17" d="m176.6 344.4c0.3 1.2 0 2.6-0.7 3.6"/>
								<path id="Layer" class="s17" d="m178.2 344.7c0.2 1.2-0.1 2.6-0.7 3.6"/>
							</g>
							<g id="Layer">
								<path id="Layer" class="s13" d="m175.1 357.3c-4.3-0.8-8.1-1.4-11.7-1.7m-31.5 0.5q-3.3 0.5-6.9 1.2"/>
								<path id="Layer" class="s13" d="m174.9 355.7c-4.2-0.9-8-1.4-11.5-1.7m-32.4 0.6q-2.8 0.4-5.9 1.1"/>
								<g id="Layer">
									<path id="Layer" class="s13" d="m175.1 354.1c-4.3-0.9-8.1-1.4-11.7-1.7m-33.3 0.8q-2.4 0.3-5 0.8"/>
									<path id="Layer" class="s13" d="m175.2 352.5c-4.4-0.9-8.2-1.4-11.8-1.7m-34.1 0.9q-2 0.3-4.2 0.7"/>
									<path id="Layer" class="s13" d="m175.3 350.9c-4.4-0.9-8.2-1.4-11.9-1.7m-35.1 1q-1.6 0.3-3.4 0.7"/>
									<path id="Layer" class="s13" d="m175.6 349.4c-4.5-1-8.5-1.5-12.2-1.8m-35.9 1.2q-1.4 0.2-2.9 0.5"/>
								</g>
							</g>
						</g>
					</g>
					<g id="Layer">
						<path id="Layer" class="s16" d="m155.4 338.2c-3.6-2.3-2.6-5.9-1.7-6.8"/>
						<g id="Layer">
							<path id="Layer" class="s13" d="m159.2 328.3h-3.5"/>
							<path id="Layer" class="s13" d="m155.7 327.1l2.1-0.5"/>
							<path id="Layer" class="s13" d="m155.7 329.6l2.1 0.5"/>
							<path id="Layer" class="s13" d="m182.3 332.7l2.5 2.5"/>
							<path id="Layer" class="s13" d="m183.9 336l-1.9-1.1"/>
							<path id="Layer" class="s13" d="m185.6 334.3l-1.1-1.9"/>
							<path id="Layer" class="s13" d="m191.7 331.8l1.2-1.8"/>
						</g>
						<path id="Layer" class="s16" d="m144.4 338.2c3.6-2.3 2.6-5.9 1.7-6.8"/>
						<g id="Layer">
							<path id="Layer" class="s13" d="m149.9 320v3.5"/>
							<path id="Layer" class="s13" d="m151.2 323.5l0.5-2.1"/>
							<path id="Layer" class="s13" d="m148.7 323.5l-0.5-2.1"/>
							<path id="Layer" class="s13" d="m140.7 328.3h3.5"/>
							<path id="Layer" class="s13" d="m144.2 327.1l-2.2-0.5"/>
							<path id="Layer" class="s13" d="m144.2 329.6l-2.2 0.5"/>
							<path id="Layer" class="s13" d="m117.5 332.7l-2.4 2.5"/>
							<path id="Layer" class="s13" d="m116 336l1.8-1.1"/>
							<path id="Layer" class="s13" d="m114.2 334.3l1.1-1.9"/>
							<path id="Layer" class="s13" d="m108.1 331.8l-1.1-1.8"/>
						</g>
						<path id="Layer" class="s16" d="m124 342.6c-2.7-0.1-6.5-2.4-6.8-4.5"/>
						<path id="Layer" class="s16" d="m175.8 342.6c2.8-0.1 6.5-2.4 6.9-4.5"/>
					</g>
				</g>
			</g>
		</g>
		<g id="Layer">
			<path id="Layer" class="s3" d="m220.6 199.1c2.7 0 9.5 0 11.2 0 3.7 0 7.3 0 10.9 0 1 0.5 2.8 6.4 6.1 6.4 3.5 0 4.6-2.8 10.6-2.8 5.2 0 3.6 2.2 10.8 1.7-5.1 6.9-1.8 14.3-11.1 16.9-1.7 0.5-1.7 1.9-0.6 2.2 5.3 1.3 6.8-5 11.1-5.5 3.8-0.5 4.9-3 6.7-7.7 1.4 3.4 1.7 9.6-3.7 13.1 3.4-0.6 3.4 0.5 6.3-0.2-6 4.4-4.6 6.3-12.2 7.5 3.7 5.4 0.4 7 4.2 9 2.8 1.6 4.6 0.7 7.1-5.8 1.3 3 1.2 7.1-2.6 11.2 4.5 2.2 4.6 7.1 0.5 12 0.3-4.2 0.1-8.5-5-6-1.2 0.6-3.4-0.6-3.1-0.3 1.8 1.3 1.1 1.7 3 3 2.7 1.8 1.7 5.6-0.1 7.2-1.7 1.5-5.3 1.1-7.4-3.8 2.6 2 4.5 2.2 4.9 1.5 0.6-1.1-3.5-3.6-5-4.2-3.3-1.2-2-2.7-4.3-2.5 0.5 2.4-1 4 0.7 5.7 3.6 2.5 3.5 4.6 6.2 6.8 2.2 1.8 3.1 2.7 2.9 4.9-0.2 2.4 1.7 5.7 5.6 2.6 0.1 5.3-2.7 5.2-4.2 5.1-5-0.4-4.9-4.4-8.3-6.1-2.3-1.2-0.3-4.1-3.3-4.9-0.8 2.1-0.7 5.1 0.3 6.2 2.1 2.1 2.8-0.1 5.1 4.9-4.4-1.4-5-0.2-7.5-1.2 1.9 2.5 0.4 3.6 4.1 6-5-1.2-4.7 1.3-8.7-3.3 0 1.4-0.3 3.9-3.1 5.8 0-2.5 0-3.5-1-4.5-1.9-2.2-0.9-4.8-3.1-6.5-1.3 1.8 0.1 5-3.2 6.6 0.1-2.2-0.2-5.2-1.2-5.9-1.9-1.2-1.8-2.8-3.9-3.5 0.1 2.2 1 2.9 0.6 5.3-0.5 2.4 1.9 5.1 3.4 7.5-3-2.1-6.6-1-7.6-4.8-1-4-2.8-3.8-3.2-6.3-0.4 1.1-1.1 2.2-0.5 3.2 0.6 0.9 1 2.9 0.9 4.6-0.1 3.8 4.3 3.5 5.1 4.9-5.2 2-9.5-0.2-11.4-6.8-0.3 0.4-1.1 1.5-1 2.2 0.6 2.2-2.1 4.8 0.3 7.3-2.4 0.5-3.5-1.7-3.5-2.9 0.1-1.7-1.7-2.7-0.9-4.4 0.3-0.7-0.6-1.8-0.9-2.2-2 6.6-6.2 8.8-11.4 6.8 0.8-1.4 5.2-1.1 5-4.9-0.1-1.7 0.3-3.7 0.9-4.6 0.7-1 0-2.1-0.5-3.2-0.4 2.5-2.2 2.3-3.1 6.3-1 3.8-4.6 2.7-7.7 4.8 1.6-2.4 3.9-5.1 3.5-7.5-0.5-2.4 0.5-3.1 0.6-5.3-2.1 0.7-2.1 2.3-3.9 3.5-1.1 0.7-1.4 3.7-1.2 5.9-3.4-1.6-2-4.8-3.2-6.6-2.2 1.7-1.2 4.3-3.2 6.5-0.9 1-0.9 2-1 4.5-2.8-1.9-3.1-4.4-3-5.8-4.1 4.6-3.8 2.1-8.8 3.3 3.7-2.4 2.3-3.5 4.1-6-2.5 1-3.1-0.2-7.4 1.2 2.3-5 3-2.8 5-4.9 1-1.1 1.1-4.1 0.3-6.2-2.9 0.8-1 3.7-3.3 4.9-3.3 1.7-3.3 5.7-8.2 6.1-1.5 0.1-4.4 0.2-4.3-5.1 4 3.1 5.8-0.2 5.6-2.6-0.2-2.2 0.7-3.1 3-4.9 2.6-2.2 2.5-4.3 6.2-6.8 1.6-1.7 0.1-3.3 0.6-5.7-2.3-0.2-0.9 1.3-4.2 2.5-1.5 0.6-5.7 3.1-5 4.2 0.4 0.7 2.3 0.5 4.9-1.5-2.1 4.9-5.8 5.3-7.5 3.8-1.7-1.6-2.8-5.4 0-7.2 1.8-1.3 1.2-1.7 2.9-3 0.4-0.3-1.8 0.9-3.1 0.3-5.1-2.5-5.2 1.8-5 6-4.1-4.9-4-9.8 0.6-12-3.8-4.1-3.9-8.2-2.7-11.2 2.6 6.5 4.4 7.4 7.2 5.8 3.8-2 0.5-3.6 4.1-9-7.6-1.2-6.1-3.1-12.1-7.5 2.9 0.7 2.9-0.4 6.2 0.2-5.3-3.5-5.1-9.7-3.6-13.1 1.8 4.7 2.8 7.2 6.6 7.7 4.4 0.5 5.8 6.8 11.2 5.5 1.1-0.3 1.1-1.7-0.6-2.2-9.3-2.6-6-10-11.2-16.9 7.3 0.5 5.7-1.7 10.8-1.7 6.1 0 7.1 2.8 10.7 2.8 3.2 0 5-5.9 6-6.4 3.6 0 7.3 0 10.9 0 1.8 0 5.1 0 11.3 0z"/>
			<g id="Layer">
				<g id="Layer">
					<g id="Layer">
						<g id="Layer">
							<g id="Layer">
								<path id="Layer" class="s4" d="m267 230.6c-3.3 0.6-6-0.6-6.9-2.9"/>
								<path id="Layer" class="s4" d="m276.1 244.3c-1.2 1.3-2.3 2.3-5.3 1.5"/>
								<path id="Layer" class="s4" d="m271.4 250.8c-5.5 1.4-4.9-2.9-8.2-4.4-3.5-1.5-1.9-5-5.9-6.1"/>
								<path id="Layer" class="s4" d="m258.9 252c-0.1-2.3-2.4-1.4-3.1-3.2"/>
								<path id="Layer" class="s4" d="m248 267.9c4.1 1.8 4.6 4.4 3.7 6.6-0.8 1.8-0.5 3.4 0.4 4.5"/>
								<path id="Layer" class="s4" d="m244.2 274.5c0.9-5.3-4.8-5.9-4.4-11"/>
								<path id="Layer" class="s4" d="m262.4 234.5c3.7 1.4 3.7 6.4 10.5 5.9"/>
								<path id="Layer" class="s4" d="m256.8 263.8c0.2 1 0.8 1.9 2.1 2.4"/>
								<path id="Layer" class="s4" d="m258.7 221.4c-1.6 0.5-2 0.8-3.8 1"/>
								<path id="Layer" class="s4" d="m255.2 274c0.2 1 0.8 1.2 1.3 2"/>
								<path id="Layer" class="s4" d="m234.1 267.2c0.4 1.7 1.7 1.9 2.3 4.2"/>
								<path id="Layer" class="s4" d="m273.2 223c-0.6 0.4-1.5 1.1-2.6 1.6"/>
								<path id="Layer" class="s4" d="m269.1 204.5c-13.5 0-10.6 4.9-22.7 6"/>
							</g>
							<g id="Layer">
								<path id="Layer" class="s5" d="m251.4 253.6c-2.3-0.5-2.7-1.8-2.9-3.3-0.1-1.5-0.3-2.9-1.9-3.9-1.3-0.9-1-1.8-1.9-2.5"/>
								<path id="Layer" class="s5" d="m253.8 241c-2.8 0.1-1.9-2.6-4-3.6"/>
								<path id="Layer" class="s5" d="m246 260.1c-0.7-3.9-3.3-3.1-4.4-6.8"/>
								<path id="Layer" class="s5" d="m250.8 260c-0.3-3.4-2.7-3.8-3.8-5.7-0.9-1.7-3.1-1.7-3.9-6.1"/>
								<path id="Layer" class="s5" d="m255.8 231.6c-1.3-2.5-2.6-1.9-3.9-4.8"/>
								<path id="Layer" class="s5" d="m257 237c-4.4 0.4-1.7-1.8-4.9-2.8"/>
								<path id="Layer" class="s5" d="m244.9 265.4c-2-1.4-1.2-2.8-2.5-4.1-2.2-2.1-0.6-3-2.5-4.8"/>
							</g>
							<g id="Layer">
								<path id="Layer" class="s4" d="m174.2 230.6c3.2 0.6 6-0.6 6.8-2.9"/>
								<path id="Layer" class="s4" d="m165.1 244.3c1.1 1.3 2.3 2.3 5.2 1.5"/>
								<path id="Layer" class="s4" d="m183.8 240.3c-3.9 1.1-2.4 4.6-5.9 6.1-3.2 1.5-2.6 5.8-8.2 4.4"/>
								<path id="Layer" class="s4" d="m182.2 252c0.2-2.3 2.4-1.4 3.2-3.2"/>
								<path id="Layer" class="s4" d="m189.1 279c0.9-1.1 1.1-2.7 0.4-4.5-0.9-2.2-0.4-4.8 3.6-6.6"/>
								<path id="Layer" class="s4" d="m197 274.5c-0.9-5.3 4.8-5.9 4.4-11"/>
								<path id="Layer" class="s4" d="m178.7 234.5c-3.6 1.4-3.6 6.4-10.5 5.9"/>
							</g>
						</g>
						<path id="Layer" class="s6" d="m220.6 275.4c-3.5 0-5.6-2.1-6.2-4.6-0.5-1.9-3-3.5-5.6-5.7-1.9-1.7-2.6-3.2-2.2-4.2-1.6 0.2-1.7-0.1-3.1-1.6-4.5-4.4-3.9-7.2-5.9-12.9-0.8-2.2-2.5-4.8-0.8-7.1-2.3 0.3-3.8-0.3-5.3-1.7-2.2-2.1-3.2-4.4-2.8-7.6 0.7-5.1 4-7.1 1.5-13.6-1-2.8-5.6-5.4-9.9-3.1"/>
						<g id="Layer">
							<g id="Layer">
								<path id="Layer" class="s4" d="m184.3 263.8c-0.2 1-0.8 1.9-2 2.4"/>
								<path id="Layer" class="s4" d="m182.5 221.4c1.5 0.5 2 0.8 3.7 1"/>
								<path id="Layer" class="s4" d="m186 274c-0.3 1-0.9 1.2-1.3 2"/>
								<path id="Layer" class="s4" d="m207 267.2c-0.4 1.7-1.6 1.9-2.2 4.2"/>
								<path id="Layer" class="s4" d="m168 223c0.6 0.4 1.5 1.1 2.5 1.6"/>
								<path id="Layer" class="s4" d="m172.1 204.5c13.4 0 10.5 4.9 22.7 6"/>
							</g>
							<g id="Layer">
								<path id="Layer" class="s5" d="m196.5 243.9c-0.9 0.7-0.6 1.6-2 2.5-1.5 1-1.7 2.4-1.9 3.9-0.1 1.5-0.5 2.8-2.8 3.3"/>
								<path id="Layer" class="s5" d="m187.3 241c2.9 0.1 1.9-2.6 4-3.6"/>
								<path id="Layer" class="s5" d="m195.2 260.1c0.7-3.9 3.3-3.1 4.4-6.8"/>
								<path id="Layer" class="s5" d="m198.1 248.2c-0.8 4.4-3.1 4.4-4 6.1-1 1.9-3.4 2.3-3.7 5.7"/>
								<path id="Layer" class="s5" d="m188.8 246.1c5.2-1.4 3.3-5.9 7.4-6.2"/>
								<path id="Layer" class="s5" d="m185.4 231.6c1.2-2.5 2.5-1.9 3.9-4.8"/>
								<path id="Layer" class="s5" d="m184.1 237c4.4 0.4 1.7-1.8 4.9-2.8"/>
								<path id="Layer" class="s5" d="m201.3 256.5c-1.9 1.8-0.4 2.7-2.6 4.8-1.3 1.3-0.4 2.7-2.5 4.1"/>
							</g>
						</g>
					</g>
					<path id="Layer" class="s1" d="m210.8 219.7q1 0.7 1.9 1.1v0.1c-1 3.5-3.5 5.2-5.7 4.8-2.3-0.4-4.2-3-3.8-6.7v-0.2c1.2 0.6 2.1 0.6 3.7 0q0.4-0.1 0.9-0.1c0.9 0 2 0.4 3 1z"/>
					<path id="Layer" class="s6" d="m212.7 220.9c-1 3.5-3.5 5.2-5.7 4.8-2.3-0.4-4.2-3-3.8-6.7"/>
					<path id="Layer" class="s7" d="m210.5 220.5c-0.3 1.9-1.6 2.9-2.8 2.9-1.3-0.2-2.4-1.4-2.4-3.4-0.1-0.6 1.9-1.2 3-1.2 1.6 0.1 2.3 0.9 2.2 1.7z"/>
					<path id="Layer" class="s1" d="m208.6 220.5c0 0.5-0.5 1-1.1 1-0.6 0-1-0.5-1-1 0-0.6 0.4-1.1 1-1.1 0.6 0 1.1 0.5 1.1 1.1z"/>
					<path id="Layer" class="s6" d="m217.3 207.1c-0.5 2.4 0.7 3 0.8 4.5 0.3 3.1-1.2 1.8-0.3 5 0.4 1.7 0 2.2-0.2 2.9-1 3.1-4.1 2.1-6.8 0.2-1.4-0.9-2.8-1.2-3.9-0.9-1.9 0.7-2.9 0.5-4.3-0.4-2.5-1.5-2.7-4.1-6.3-3"/>
					<path id="Layer" class="s1" d="m233.4 218.7q0.5 0 0.9 0.1c1.5 0.6 2.5 0.6 3.6 0l0.1 0.2c0.4 3.7-1.6 6.3-3.8 6.7-2.3 0.4-4.7-1.3-5.8-4.8v-0.1q1-0.4 2-1.1c1-0.6 2.1-1 3-1z"/>
					<path id="Layer" class="s6" d="m238 219c0.4 3.7-1.6 6.3-3.8 6.7-2.3 0.4-4.7-1.3-5.7-4.8"/>
					<path id="Layer" class="s7" d="m232.9 218.8c1.1 0 3 0.6 3 1.2 0 2-1.2 3.2-2.4 3.4-1.3 0-2.5-1-2.8-2.9-0.1-0.8 0.5-1.6 2.2-1.7z"/>
					<path id="Layer" class="s1" d="m233.6 219.4c0.6 0 1.1 0.5 1.1 1.1 0 0.5-0.5 1-1.1 1-0.5 0-1-0.5-1-1 0-0.6 0.5-1.1 1-1.1z"/>
					<g id="Layer">
						<path id="Layer" class="s6" d="m244.8 215.4c-3.6-1.1-3.7 1.5-6.2 3-1.5 0.9-2.5 1.1-4.3 0.4-1.1-0.3-2.6 0-3.9 0.9-2.8 1.9-5.9 2.9-6.8-0.2-0.3-0.7-0.7-1.2-0.2-2.9 0.8-3.2-0.6-1.9-0.4-5 0.2-1.5 1.4-2.1 0.9-4.5"/>
						<path id="Layer" class="s6" d="m217.3 248.1c0 1.5-4.1 1.2-5.4-0.2-1.6-1.5-1.3-4.5 2-7.8 3-3 0.5-6 1-8.8 0.3-1.6 2-2.8 1.6-4.8"/>
						<path id="Layer" class="s6" d="m216.2 247.1c2.6 1.3 4.4 3 4.4 4.3v1.8c0 7.4-13.3 5.6-14 7.7"/>
					</g>
					<path id="Layer" class="s8" d="m217.4 246c0.8 0.4 1.1 1.2 0.8 1.9-0.4 0.7-1.3 0.8-2.1 0.4-0.8-0.4-1.1-1.3-0.8-1.9 0.4-0.7 1.3-0.9 2.1-0.4z"/>
					<g id="Layer">
						<g id="Layer">
							<path id="Layer" class="s4" d="m213.8 255c-7 0.5-12.3 2-16.9 5.2"/>
							<path id="Layer" class="s4" d="m213.5 252.1c-7.3-0.3-19.5 1.6-24.8 4.2"/>
							<g id="Layer">
								<path id="Layer" class="s5" d="m211.8 212.6c-3.7-3-7.9-3.9-12.3-4.1"/>
								<path id="Layer" class="s5" d="m210.6 215.2c-4.1-2.6-8.3-2.9-12.7-2.7"/>
								<path id="Layer" class="s5" d="m229.4 212.6c3.7-3 7.9-3.9 12.3-4.1"/>
								<path id="Layer" class="s5" d="m230.6 215.2c4-2.6 8.3-2.9 12.7-2.7"/>
							</g>
							<path id="Layer" class="s4" d="m227.3 255c7 0.5 12.4 2 16.9 5.2"/>
							<path id="Layer" class="s4" d="m227.6 252.1c7.4-0.3 19.6 1.6 24.9 4.2"/>
							<path id="Layer" class="s5" d="m252.4 246.1c-5.2-1.4-3.3-5.9-7.5-6.2"/>
						</g>
						<g id="Layer">
							<path id="Layer" class="s9" d="m207.1 233.8c-1.1 2-2.8 3.7-4.9 4.1"/>
							<path id="Layer" class="s9" d="m205.2 231.6c-1.1 2-2.8 3.6-5 4"/>
							<path id="Layer" class="s6" d="m224.7 226.5c-0.5 2 1.2 3.2 1.5 4.8 0.5 2.8-1.9 5.8 1 8.8 3.4 3.3 3.6 6.3 2.1 7.8-1.4 1.4-5.4 1.7-5.4 0.2"/>
						</g>
					</g>
					<path id="Layer" class="s8" d="m225.8 246.4c0.4 0.6 0 1.5-0.7 1.9-0.8 0.4-1.7 0.3-2.1-0.4-0.3-0.7 0-1.5 0.8-1.9 0.8-0.5 1.7-0.3 2 0.4z"/>
					<g id="Layer">
						<path id="Layer" class="s6" d="m234.6 260.9c-0.7-2.1-14-0.3-14-7.7v-1.8c0-1.3 1.7-3 4.4-4.3"/>
						<path id="Layer" class="s6" d="m260.8 213.3c-4.3-2.3-8.8 0.3-9.9 3.1-2.5 6.5 0.9 8.5 1.6 13.6 0.4 3.2-0.6 5.5-2.9 7.6-1.5 1.4-3 2-5.2 1.7 1.7 2.3-0.1 4.9-0.9 7.1-2 5.7-1.3 8.5-5.8 12.9-1.4 1.5-1.5 1.8-3.1 1.6 0.4 1-0.3 2.5-2.3 4.2-2.5 2.2-5 3.8-5.5 5.7-0.7 2.5-2.8 4.6-6.2 4.6"/>
						<path id="Layer" class="s9" d="m234 233.8c1.2 2 2.9 3.7 5 4.1"/>
						<path id="Layer" class="s9" d="m235.9 231.6c1.2 2 2.9 3.6 5 4"/>
					</g>
				</g>
				<g id="Layer">
					<path id="Layer" class="s10" d="m214.7 166.8c0.8 0.4 1.4 0.4 1.6-0.1 0.4-0.7-0.4-1.6-1.1-2.3-1.7-1.7-0.6-3.6-0.6-5.2 0.9 1.2 1.9 1 2.3 1.9 0.3 0.4 0.6 0.3 0.8-0.2 0.2-0.6-0.9-1.3 0-3.2 0.8-1.7 1.9-1.6 2.9-3.4 0.9 1.8 2 1.7 2.8 3.4 1 1.9-0.1 2.6 0.1 3.2 0.1 0.5 0.5 0.6 0.7 0.2 0.5-0.9 1.4-0.7 2.3-1.9 0.1 1.6 1.1 3.5-0.5 5.2-0.8 0.7-1.6 1.6-1.2 2.3 0.3 0.5 0.8 0.5 1.6 0.1"/>
					<path id="Layer" class="s11" d="m223.4 157.7c1 1.9-0.1 2.6 0.1 3.2 0.1 0.5 0.5 0.6 0.7 0.2 0.5-0.9 1.4-0.7 2.3-1.9 0.1 1.6 1.1 3.5-0.5 5.2-0.8 0.7-1.6 1.6-1.2 2.3 0.3 0.5 0.8 0.5 1.6 0.1 2.1-0.9 2.5-1.9 3.3-2.7 1.7-1.7 3.6-0.6 5.2-0.6-1.2 0.9-1.1 1.9-1.9 2.3-0.5 0.3-0.3 0.7 0.1 0.8 0.7 0.2 1.4-0.9 3.3 0 1.7 0.9 1.6 2 3.4 2.9-1.8 0.9-1.7 2-3.4 2.9-1.9 0.9-2.6-0.2-3.3 0-0.4 0.1-0.6 0.5-0.1 0.8 0.8 0.4 0.7 1.4 1.9 2.2-1.6 0.1-3.5 1.2-5.2-0.5-0.7-0.7-1.7-2.1-3.2-1.3-1.3 0.8-1.8 3.7 0.7 5.5 4.8 3.6 12.4-0.3 14.9-8.5l3.1 1.1c-6.4 10.3 2.4 13.7 7.7 8.5 0.4-0.4 0.2-1 0.1-1.2-0.3-0.6-1.1-0.7-1.9-0.7-1.7 0-2.2-1.6-3-2.5 1.1 0.2 1.5-0.4 2.2-0.2 0.4 0.1 0.5-0.1 0.3-0.4-0.2-0.5-1.2-0.3-1.7-1.8-0.4-1.3 0.2-1.9-0.3-3.3 1.5 0.5 2.1-0.1 3.3 0.3 1.6 0.5 1.4 1.4 1.8 1.7 0.3 0.2 0.6 0.1 0.5-0.3-0.2-0.7 0.4-1.1 0.2-2.3 0.9 0.9 2.4 1.3 2.4 3.1 0 0.8 0.1 1.7 0.7 1.8 0.4 0.1 0.7-0.1 0.9-0.8 0.3-0.6 0.3-1.4 0.3-2.3 0-2 1.7-2.5 2.7-3.4-0.2 1.2 0.4 1.7 0.2 2.4-0.1 0.5 0.2 0.6 0.5 0.4 0.5-0.3 0.3-1.3 1.9-1.9 1.5-0.4 2.1 0.2 3.7-0.3-0.4 2.3-3.2 5-6.2 6.8-2.4 1.6-2.5 1.9-3.9 4-2.3 3.7-6.1 7.3-10.5 10h-53c-4.4-2.7-8.2-6.3-10.6-10-1.3-2.1-1.4-2.4-3.9-4-2.9-1.8-5.8-4.5-6.1-6.8 1.6 0.5 2.2-0.1 3.6 0.3 1.7 0.6 1.5 1.6 2 1.9 0.3 0.2 0.6 0.1 0.5-0.4-0.2-0.7 0.4-1.2 0.2-2.4 1 0.9 2.7 1.4 2.7 3.4 0 0.9 0 1.7 0.3 2.3 0.2 0.7 0.5 0.9 0.9 0.8 0.6-0.1 0.6-1 0.6-1.8 0-1.8 1.6-2.2 2.5-3.1-0.2 1.2 0.4 1.6 0.2 2.3-0.1 0.4 0.1 0.5 0.4 0.3 0.5-0.3 0.3-1.2 1.8-1.7 1.3-0.4 1.9 0.2 3.3-0.3-0.4 1.4 0.2 2-0.3 3.3-0.5 1.5-1.4 1.3-1.7 1.8-0.2 0.3 0 0.5 0.4 0.4 0.6-0.2 1.1 0.4 2.2 0.2-0.9 0.9-1.3 2.5-3.1 2.5-0.8 0-1.5 0.1-1.8 0.7-0.1 0.2-0.4 0.8 0.1 1.2 5.3 5.2 14.1 1.8 7.7-8.5l3-1.1c2.5 8.2 10.2 12.1 15 8.5 2.4-1.8 2-4.7 0.6-5.5-1.4-0.8-2.4 0.6-3.2 1.3-1.6 1.7-3.5 0.6-5.2 0.5 1.3-0.8 1.1-1.8 1.9-2.2 0.5-0.3 0.4-0.7-0.1-0.8-0.6-0.2-1.4 0.9-3.3 0-1.6-0.9-1.6-2-3.4-2.9 1.8-0.9 1.8-2 3.4-2.9 1.9-0.9 2.7 0.2 3.3 0 0.5-0.1 0.6-0.5 0.1-0.8-0.8-0.4-0.6-1.4-1.9-2.3 1.7 0 3.6-1.1 5.2 0.6 0.8 0.8 1.2 1.8 3.3 2.7 0.8 0.4 1.4 0.4 1.6-0.1 0.4-0.7-0.4-1.6-1.1-2.3-1.7-1.7-0.6-3.6-0.6-5.2 0.9 1.2 1.9 1 2.3 1.9 0.3 0.4 0.6 0.3 0.8-0.2 0.2-0.6-0.9-1.3 0-3.2 0.8-1.7 1.9-1.6 2.9-3.4 0.9 1.8 2 1.7 2.8 3.4z"/>
					<g id="Layer">
						<path id="Layer" class="s12" d="m197.9 171.9c-1.8 0.6-3.7-0.4-4.3-2.1-0.6-1.8 0.3-3.7 2.1-4.4 1.8-0.6 3.7 0.4 4.3 2.2 0.6 1.8-0.3 3.7-2.1 4.3z"/>
						<path id="Layer" class="s13" d="m198.9 168.7c0 0.9-0.6 1.7-1.4 2q-0.6 0.2-1.2 0"/>
					</g>
					<path id="Layer" class="s14" d="m179.1 175.3c0.6-0.7 2.2-0.2 3.4 1.1 1.3 1.3 1.8 2.8 1.2 3.4-0.7 0.7-2.2 0.2-3.5-1.1-1.2-1.3-1.7-2.8-1.1-3.4z"/>
					<g id="Layer">
						<path id="Layer" class="s12" d="m245.5 171.9c-1.8 0.6-3.7-0.4-4.4-2.1-0.6-1.8 0.4-3.7 2.2-4.4 1.8-0.6 3.7 0.4 4.3 2.2 0.6 1.8-0.4 3.7-2.1 4.3z"/>
						<path id="Layer" class="s13" d="m246.5 168.7c0 0.9-0.6 1.7-1.4 2q-0.6 0.2-1.2 0"/>
					</g>
					<path id="Layer" class="s14" d="m260.9 178.7c-1.2 1.3-2.8 1.8-3.4 1.1-0.6-0.6-0.1-2.1 1.1-3.4 1.3-1.3 2.8-1.8 3.5-1.1 0.6 0.6 0.1 2.1-1.2 3.4z"/>
					<g id="Layer">
						<circle id="Layer" class="s12" cx="220.6" cy="170.1" r="3.2"/>
						<path id="Layer" class="s13" d="m222.3 169.2c0.2 0.6 0.3 1.2 0 1.8-0.5 1-1.7 1.4-2.7 0.9"/>
					</g>
					<g id="Layer">
						<path id="Layer" class="s15" d="m248.6 188.8c-1.9 4.1-1.3 9-0.8 13.9-8.6-2.3-17.8-3.8-27.3-3.8-9.4 0-18.6 1.5-27.2 3.8 0.4-4.9 1.1-9.8-0.8-13.9 10.9-3.3 18.3-4.8 28-4.8 9.8 0 17.2 1.5 28.1 4.8z"/>
						<path id="Layer" class="s15" d="m220.6 198.5h1.5c9 0.1 15.4 0.7 25.2 2.8 2.1 0.4 1.6 3.8-0.5 3.3-10-2.3-17.2-2.7-24.7-2.7h-3.1c-7.4 0-14.6 0.4-24.7 2.7-2.1 0.5-2.6-2.9-0.5-3.3 9.9-2.1 16.2-2.7 25.2-2.8z"/>
						<path id="Layer" class="s15" d="m223.6 183.9c9 0 15.4 0.7 25.2 2.7 2.1 0.4 1.6 3.8-0.4 3.3-10.1-2.3-17.3-2.6-24.8-2.6h-6.1c-7.4 0-14.6 0.3-24.7 2.6-2.1 0.5-2.6-2.9-0.5-3.3 9.9-2 16.2-2.7 25.2-2.7h3.1z"/>
					</g>
					<g id="Layer">
						<g id="Layer">
							<path id="Layer" class="s16" d="m233.4 200.5c-0.1 0.6-0.2 1.2-0.4 1.8"/>
							<path id="Layer" class="s16" d="m234.9 200.6c0 0.7-0.1 1.4-0.4 1.9"/>
							<g id="Layer">
								<path id="Layer" class="s17" d="m236.3 199.2c0.4 1.2 0.2 2.6-0.4 3.6"/>
								<path id="Layer" class="s17" d="m237.9 199.4c0.4 1.2 0.2 2.6-0.4 3.6"/>
								<path id="Layer" class="s17" d="m239.5 199.6c0.3 1.2 0.1 2.7-0.5 3.6"/>
								<path id="Layer" class="s17" d="m241 199.9c0.4 1.2 0.2 2.6-0.5 3.6"/>
								<path id="Layer" class="s17" d="m242.6 200.2c0.3 1.1 0.1 2.6-0.5 3.5"/>
								<path id="Layer" class="s17" d="m244.2 200.5c0.3 1.1 0 2.6-0.6 3.5"/>
								<path id="Layer" class="s17" d="m245.8 200.8c0.2 1.2 0 2.6-0.7 3.5"/>
								<path id="Layer" class="s17" d="m247.3 201.1c0.3 1.2 0 2.6-0.7 3.5"/>
							</g>
							<g id="Layer">
								<path id="Layer" class="s16" d="m231.8 200.4c0 0.6-0.2 1.2-0.4 1.8"/>
								<path id="Layer" class="s16" d="m230.2 200.3c0 0.6-0.1 1.2-0.3 1.7"/>
								<path id="Layer" class="s16" d="m204.7 200.9c0 0.6 0.1 1.2 0.4 1.7"/>
								<path id="Layer" class="s16" d="m203.1 201.1c0 0.6 0.2 1.2 0.4 1.7"/>
							</g>
							<g id="Layer">
								<path id="Layer" class="s17" d="m201.7 199.6c-0.4 1.2-0.2 2.7 0.4 3.6"/>
								<path id="Layer" class="s17" d="m200.1 199.9c-0.3 1.2-0.1 2.6 0.5 3.6"/>
								<path id="Layer" class="s17" d="m198.5 200.2c-0.3 1.1 0 2.6 0.6 3.5"/>
								<path id="Layer" class="s17" d="m197 200.5c-0.3 1.1-0.1 2.6 0.6 3.5"/>
								<path id="Layer" class="s17" d="m195.4 200.8c-0.3 1.2 0 2.6 0.7 3.5"/>
								<path id="Layer" class="s17" d="m193.8 201.1c-0.2 1.2 0.1 2.6 0.7 3.5"/>
							</g>
						</g>
						<g id="Layer">
							<path id="Layer" class="s8" d="m206.6 201.5c0 0.1-0.1 0.3-0.3 0.3-0.2 0-0.3-0.2-0.3-0.3 0-0.2 0.1-0.3 0.3-0.3 0.2 0 0.3 0.1 0.3 0.3z"/>
							<path id="Layer" class="s8" d="m208.2 201.3c0 0.2-0.1 0.3-0.3 0.3-0.2 0-0.3-0.1-0.3-0.3 0-0.2 0.1-0.3 0.3-0.3 0.2 0 0.3 0.1 0.3 0.3z"/>
							<path id="Layer" class="s8" d="m209.8 201.2c0 0.2-0.1 0.3-0.3 0.3-0.2 0-0.3-0.1-0.3-0.3 0-0.2 0.1-0.3 0.3-0.3 0.2 0 0.3 0.1 0.3 0.3z"/>
							<path id="Layer" class="s8" d="m211.4 201.1c0 0.1-0.2 0.3-0.3 0.3-0.2 0-0.3-0.2-0.3-0.3 0-0.2 0.1-0.3 0.3-0.3 0.1 0 0.3 0.1 0.3 0.3z"/>
							<path id="Layer" class="s8" d="m212.9 201c0 0.2-0.1 0.3-0.3 0.3-0.1 0-0.3-0.1-0.3-0.3 0-0.2 0.2-0.3 0.3-0.3 0.2 0 0.3 0.1 0.3 0.3z"/>
							<path id="Layer" class="s8" d="m214.6 200.9c0 0.2-0.2 0.3-0.4 0.3-0.1 0-0.3-0.1-0.3-0.3 0-0.1 0.2-0.3 0.3-0.3 0.2 0 0.4 0.2 0.4 0.3z"/>
							<path id="Layer" class="s8" d="m216.1 200.9c0 0.2-0.1 0.3-0.3 0.3-0.1 0-0.3-0.1-0.3-0.3 0-0.2 0.2-0.3 0.3-0.3 0.2 0 0.3 0.1 0.3 0.3z"/>
							<path id="Layer" class="s8" d="m217.7 200.9c0 0.1-0.1 0.3-0.3 0.3-0.2 0-0.3-0.2-0.3-0.3 0-0.2 0.1-0.3 0.3-0.3 0.2 0 0.3 0.1 0.3 0.3z"/>
							<path id="Layer" class="s8" d="m219.3 200.9c0 0.1-0.1 0.3-0.3 0.3-0.2 0-0.3-0.2-0.3-0.3 0-0.2 0.1-0.4 0.3-0.4 0.2 0 0.3 0.2 0.3 0.4z"/>
							<path id="Layer" class="s8" d="m220.9 200.9c0 0.1-0.1 0.3-0.3 0.3-0.2 0-0.3-0.2-0.3-0.3 0-0.2 0.1-0.4 0.3-0.4 0.2 0 0.3 0.2 0.3 0.4z"/>
							<path id="Layer" class="s8" d="m222.5 200.9c0 0.1-0.2 0.3-0.3 0.3-0.2 0-0.3-0.2-0.3-0.3 0-0.2 0.1-0.4 0.3-0.4 0.1 0 0.3 0.2 0.3 0.4z"/>
							<path id="Layer" class="s8" d="m224.1 200.9c0 0.1-0.2 0.3-0.3 0.3-0.2 0-0.4-0.2-0.4-0.3 0-0.2 0.2-0.3 0.4-0.3 0.1 0 0.3 0.1 0.3 0.3z"/>
							<path id="Layer" class="s8" d="m225.7 200.9c0 0.2-0.2 0.3-0.4 0.3-0.1 0-0.3-0.1-0.3-0.3 0-0.2 0.2-0.3 0.3-0.3 0.2 0 0.4 0.1 0.4 0.3z"/>
							<path id="Layer" class="s8" d="m228.8 201c0 0.2-0.1 0.3-0.3 0.3-0.2 0-0.3-0.1-0.3-0.3 0-0.2 0.1-0.3 0.3-0.3 0.2 0 0.3 0.1 0.3 0.3z"/>
							<path id="Layer" class="s8" d="m227.2 200.9c0 0.2-0.1 0.3-0.3 0.3-0.1 0-0.3-0.1-0.3-0.3 0-0.1 0.2-0.3 0.3-0.3 0.2 0 0.3 0.2 0.3 0.3z"/>
							<path id="Layer" class="s8" d="m206.6 186.6c0 0.2-0.1 0.3-0.3 0.3-0.1 0-0.3-0.1-0.3-0.3 0-0.1 0.2-0.3 0.3-0.3 0.2 0 0.3 0.2 0.3 0.3z"/>
							<path id="Layer" class="s8" d="m208.2 186.5c0 0.2-0.1 0.3-0.3 0.3-0.2 0-0.3-0.1-0.3-0.3 0-0.2 0.1-0.3 0.3-0.3 0.2 0 0.3 0.1 0.3 0.3z"/>
							<path id="Layer" class="s8" d="m209.8 186.4c0 0.2-0.1 0.3-0.3 0.3-0.2 0-0.3-0.1-0.3-0.3 0-0.2 0.1-0.3 0.3-0.3 0.2 0 0.3 0.1 0.3 0.3z"/>
							<path id="Layer" class="s8" d="m211.4 186.3c0 0.2-0.2 0.3-0.3 0.3-0.2 0-0.4-0.1-0.4-0.3 0-0.2 0.2-0.3 0.4-0.3 0.1 0 0.3 0.1 0.3 0.3z"/>
							<path id="Layer" class="s8" d="m212.9 186.2c0 0.2-0.1 0.4-0.3 0.4-0.1 0-0.3-0.2-0.3-0.4 0-0.1 0.2-0.3 0.3-0.3 0.2 0 0.3 0.2 0.3 0.3z"/>
							<path id="Layer" class="s8" d="m214.5 186.2c0 0.2-0.1 0.3-0.3 0.3-0.2 0-0.3-0.1-0.3-0.3 0-0.2 0.1-0.3 0.3-0.3 0.2 0 0.3 0.1 0.3 0.3z"/>
							<path id="Layer" class="s8" d="m216.1 186.2c0 0.2-0.1 0.3-0.3 0.3-0.2 0-0.3-0.1-0.3-0.3 0-0.2 0.1-0.3 0.3-0.3 0.2 0 0.3 0.1 0.3 0.3z"/>
							<path id="Layer" class="s8" d="m217.7 186.2c0 0.1-0.2 0.3-0.3 0.3-0.2 0-0.3-0.2-0.3-0.3 0-0.2 0.1-0.3 0.3-0.3 0.1 0 0.3 0.1 0.3 0.3z"/>
							<path id="Layer" class="s8" d="m219.3 186.2c0 0.1-0.2 0.3-0.4 0.3-0.1 0-0.3-0.2-0.3-0.3 0-0.2 0.2-0.3 0.3-0.3 0.2 0 0.4 0.1 0.4 0.3z"/>
							<path id="Layer" class="s8" d="m220.8 186.2c0 0.1-0.1 0.3-0.3 0.3-0.2 0-0.3-0.2-0.3-0.3 0-0.2 0.1-0.3 0.3-0.3 0.2 0 0.3 0.1 0.3 0.3z"/>
							<path id="Layer" class="s8" d="m222.4 186.2c0 0.1-0.1 0.3-0.3 0.3-0.2 0-0.3-0.2-0.3-0.3 0-0.2 0.1-0.3 0.3-0.3 0.2 0 0.3 0.1 0.3 0.3z"/>
							<path id="Layer" class="s8" d="m224 186.2c0 0.1-0.1 0.3-0.3 0.3-0.2 0-0.3-0.2-0.3-0.3 0-0.2 0.1-0.3 0.3-0.3 0.2 0 0.3 0.1 0.3 0.3z"/>
							<path id="Layer" class="s8" d="m225.6 186.2c0 0.2-0.2 0.3-0.3 0.3-0.2 0-0.4-0.1-0.4-0.3 0-0.2 0.2-0.3 0.4-0.3 0.1 0 0.3 0.1 0.3 0.3z"/>
							<path id="Layer" class="s8" d="m228.7 186.2c0 0.2-0.1 0.4-0.3 0.4-0.2 0-0.3-0.2-0.3-0.4 0-0.1 0.1-0.3 0.3-0.3 0.2 0 0.3 0.2 0.3 0.3z"/>
							<path id="Layer" class="s8" d="m227.1 186.2c0 0.2-0.1 0.3-0.3 0.3-0.1 0-0.3-0.1-0.3-0.3 0-0.2 0.2-0.3 0.3-0.3 0.2 0 0.3 0.1 0.3 0.3z"/>
							<path id="Layer" class="s8" d="m205.1 186.8c0 0.2-0.2 0.3-0.4 0.3-0.1 0-0.3-0.1-0.3-0.3 0-0.2 0.2-0.3 0.3-0.3 0.2 0 0.4 0.1 0.4 0.3z"/>
							<path id="Layer" class="s8" d="m230.3 186.3c0 0.2-0.1 0.3-0.3 0.3-0.2 0-0.3-0.1-0.3-0.3 0-0.2 0.1-0.3 0.3-0.3 0.2 0 0.3 0.1 0.3 0.3z"/>
							<path id="Layer" class="s8" d="m231.8 186.4c0 0.1-0.2 0.3-0.3 0.3-0.2 0-0.3-0.2-0.3-0.3 0-0.2 0.1-0.4 0.3-0.4 0.1 0 0.3 0.2 0.3 0.4z"/>
							<path id="Layer" class="s8" d="m233.2 186.5c0 0.1-0.1 0.3-0.3 0.3-0.2 0-0.3-0.2-0.3-0.3 0-0.2 0.1-0.3 0.3-0.3 0.2 0 0.3 0.1 0.3 0.3z"/>
						</g>
						<g id="Layer">
							<path id="Layer" class="s16" d="m201.6 186.7c0.1 0.5 0.3 1.1 0.5 1.6"/>
							<g id="Layer">
								<path id="Layer" class="s17" d="m200.2 185c-0.4 1.1-0.2 2.6 0.4 3.6"/>
								<path id="Layer" class="s17" d="m198.6 185.2c-0.3 1.2-0.1 2.6 0.5 3.6"/>
								<path id="Layer" class="s17" d="m197 185.5c-0.3 1.2-0.1 2.6 0.6 3.6"/>
								<path id="Layer" class="s17" d="m195.4 185.8c-0.3 1.2 0 2.6 0.7 3.6"/>
								<path id="Layer" class="s17" d="m193.9 186.1c-0.3 1.2 0 2.6 0.7 3.5"/>
								<path id="Layer" class="s17" d="m192.3 186.4c-0.2 1.2 0.1 2.6 0.7 3.6"/>
							</g>
							<path id="Layer" class="s16" d="m203.2 186.7q0.1 0.7 0.4 1.3"/>
							<path id="Layer" class="s16" d="m234.9 186.1q-0.1 0.8-0.4 1.5"/>
							<g id="Layer">
								<path id="Layer" class="s17" d="m236.2 184.3c0.4 1.2 0.3 2.6-0.3 3.7"/>
								<path id="Layer" class="s17" d="m237.8 184.5c0.4 1.2 0.2 2.6-0.3 3.6"/>
								<path id="Layer" class="s17" d="m239.4 184.7c0.4 1.2 0.2 2.6-0.4 3.6"/>
								<path id="Layer" class="s17" d="m241 185c0.3 1.1 0.1 2.6-0.5 3.6"/>
								<path id="Layer" class="s17" d="m242.6 185.2c0.3 1.2 0.1 2.6-0.6 3.6"/>
								<path id="Layer" class="s17" d="m244.1 185.5c0.4 1.2 0.1 2.6-0.5 3.6"/>
								<path id="Layer" class="s17" d="m245.7 185.8c0.3 1.2 0 2.6-0.6 3.6"/>
								<path id="Layer" class="s17" d="m247.3 186.1c0.3 1.2 0 2.6-0.7 3.5"/>
								<path id="Layer" class="s17" d="m248.8 186.4c0.3 1.2 0 2.6-0.7 3.6"/>
							</g>
							<g id="Layer">
								<path id="Layer" class="s13" d="m245.7 199c-4.3-0.9-8.1-1.4-11.6-1.7m-31.6 0.5q-3.2 0.4-6.8 1.2"/>
								<path id="Layer" class="s13" d="m245.6 197.4c-4.3-0.9-8-1.4-11.5-1.7m-32.5 0.6q-2.7 0.4-5.8 1.1"/>
								<g id="Layer">
									<path id="Layer" class="s13" d="m245.7 195.8c-4.3-0.9-8.1-1.4-11.6-1.7m-33.4 0.7q-2.3 0.4-4.9 0.9"/>
									<path id="Layer" class="s13" d="m245.8 194.2c-4.3-0.9-8.1-1.4-11.7-1.7m-34.2 0.9q-2 0.3-4.1 0.7"/>
									<path id="Layer" class="s13" d="m246 192.6c-4.4-0.9-8.3-1.4-11.9-1.7m-35.1 1q-1.7 0.3-3.4 0.6"/>
									<path id="Layer" class="s13" d="m246.3 191.1c-4.6-1-8.5-1.5-12.2-1.8m-36 1.1q-1.3 0.3-2.8 0.6"/>
								</g>
							</g>
						</g>
					</g>
					<g id="Layer">
						<path id="Layer" class="s16" d="m226.1 179.9c-3.6-2.4-2.6-5.9-1.7-6.8"/>
						<g id="Layer">
							<path id="Layer" class="s13" d="m229.8 170h-3.5"/>
							<path id="Layer" class="s13" d="m226.3 168.8l2.2-0.5"/>
							<path id="Layer" class="s13" d="m226.3 171.3l2.2 0.5"/>
							<path id="Layer" class="s13" d="m253 174.4l2.4 2.5"/>
							<path id="Layer" class="s13" d="m254.5 177.7l-1.8-1.1"/>
							<path id="Layer" class="s13" d="m256.3 176l-1.1-1.9"/>
							<path id="Layer" class="s13" d="m262.4 173.5l1.1-1.8"/>
						</g>
						<path id="Layer" class="s16" d="m215.1 179.9c3.6-2.4 2.6-5.9 1.7-6.8"/>
						<g id="Layer">
							<path id="Layer" class="s13" d="m220.6 161.7v3.5"/>
							<path id="Layer" class="s13" d="m221.8 165.2l0.5-2.1"/>
							<path id="Layer" class="s13" d="m219.3 165.2l-0.5-2.1"/>
							<path id="Layer" class="s13" d="m211.3 170h3.5"/>
							<path id="Layer" class="s13" d="m214.8 168.8l-2.1-0.5"/>
							<path id="Layer" class="s13" d="m214.8 171.3l-2.1 0.5"/>
							<path id="Layer" class="s13" d="m188.2 174.4l-2.4 2.5"/>
							<path id="Layer" class="s13" d="m186.6 177.7l1.9-1.1"/>
							<path id="Layer" class="s13" d="m184.9 176l1.1-1.9"/>
							<path id="Layer" class="s13" d="m178.8 173.5l-1.2-1.8"/>
						</g>
						<path id="Layer" class="s16" d="m194.7 184.3c-2.8-0.1-6.5-2.4-6.9-4.5"/>
						<path id="Layer" class="s16" d="m246.5 184.3c2.7-0.1 6.5-2.4 6.8-4.5"/>
					</g>
				</g>
			</g>
		</g>
		<g id="Layer">
			<path id="Layer" class="s3" d="m79.3 199.1c2.7 0 9.5 0 11.2 0 3.7 0 7.3 0 10.9 0 1 0.5 2.8 6.4 6.1 6.4 3.5 0 4.6-2.8 10.6-2.8 5.1 0 3.6 2.2 10.8 1.7-5.2 6.9-1.9 14.3-11.1 16.9-1.7 0.5-1.7 1.9-0.6 2.2 5.3 1.3 6.8-5 11.1-5.5 3.8-0.5 4.8-3 6.7-7.7 1.4 3.4 1.6 9.6-3.7 13.1 3.4-0.6 3.4 0.5 6.3-0.2-6.1 4.4-4.6 6.3-12.2 7.5 3.7 5.4 0.4 7 4.1 9 2.9 1.6 4.7 0.7 7.2-5.8 1.3 3 1.1 7.1-2.6 11.2 4.5 2.2 4.6 7.1 0.5 12 0.3-4.2 0.1-8.5-5-6-1.3 0.6-3.4-0.6-3.1-0.3 1.7 1.3 1.1 1.7 3 3 2.7 1.8 1.7 5.6-0.1 7.2-1.7 1.5-5.3 1.1-7.4-3.8 2.5 2 4.5 2.2 4.9 1.5 0.6-1.1-3.5-3.6-5.1-4.2-3.2-1.2-1.9-2.7-4.2-2.5 0.5 2.4-1 4 0.7 5.7 3.6 2.5 3.5 4.6 6.2 6.8 2.2 1.8 3.1 2.7 2.9 4.9-0.2 2.4 1.7 5.7 5.6 2.6 0.1 5.3-2.7 5.2-4.2 5.1-5-0.4-4.9-4.4-8.3-6.1-2.3-1.2-0.4-4.1-3.3-4.9-0.8 2.1-0.7 5.1 0.3 6.2 2 2.1 2.8-0.1 5 4.9-4.3-1.4-4.9-0.2-7.4-1.2 1.9 2.5 0.4 3.6 4.1 6-5-1.2-4.7 1.3-8.7-3.3 0 1.4-0.3 3.9-3.1 5.8 0-2.5 0-3.5-1-4.5-1.9-2.2-0.9-4.8-3.1-6.5-1.3 1.8 0.1 5-3.2 6.6 0.1-2.2-0.2-5.2-1.2-5.9-1.9-1.2-1.8-2.8-4-3.5 0.2 2.2 1.1 2.9 0.7 5.3-0.5 2.4 1.9 5.1 3.4 7.5-3.1-2.1-6.6-1-7.6-4.8-1-4-2.8-3.8-3.2-6.3-0.4 1.1-1.1 2.2-0.5 3.2 0.6 0.9 1 2.9 0.9 4.6-0.1 3.8 4.3 3.5 5.1 4.9-5.2 2-9.5-0.2-11.4-6.8-0.3 0.4-1.2 1.5-1 2.2 0.6 2.2-2.2 4.8 0.3 7.3-2.4 0.5-3.5-1.7-3.5-2.9 0.1-1.7-1.7-2.7-0.9-4.4 0.3-0.7-0.6-1.8-0.9-2.2-2 6.6-6.2 8.8-11.4 6.8 0.7-1.4 5.2-1.1 5-4.9-0.1-1.7 0.3-3.7 0.9-4.6 0.6-1 0-2.1-0.5-3.2-0.4 2.5-2.2 2.3-3.1 6.3-1 3.8-4.6 2.7-7.7 4.8 1.5-2.4 3.9-5.1 3.5-7.5-0.5-2.4 0.5-3.1 0.6-5.3-2.2 0.7-2.1 2.3-3.9 3.5-1.1 0.7-1.4 3.7-1.2 5.9-3.4-1.6-2-4.8-3.3-6.6-2.1 1.7-1.2 4.3-3.1 6.5-0.9 1-1 2-1 4.5-2.8-1.9-3.1-4.4-3.1-5.8-4 4.6-3.7 2.1-8.7 3.3 3.7-2.4 2.3-3.5 4.1-6-2.5 1-3.1-0.2-7.4 1.2 2.3-5 3-2.8 5-4.9 1-1.1 1.1-4.1 0.3-6.2-2.9 0.8-1 3.7-3.3 4.9-3.3 1.7-3.3 5.7-8.2 6.1-1.5 0.1-4.4 0.2-4.3-5.1 3.9 3.1 5.8-0.2 5.6-2.6-0.2-2.2 0.7-3.1 3-4.9 2.6-2.2 2.5-4.3 6.2-6.8 1.6-1.7 0.1-3.3 0.6-5.7-2.3-0.2-0.9 1.3-4.2 2.5-1.5 0.6-5.7 3.1-5 4.2 0.3 0.7 2.3 0.5 4.9-1.5-2.1 4.9-5.8 5.3-7.5 3.8-1.7-1.6-2.8-5.4 0-7.2 1.8-1.3 1.2-1.7 2.9-3 0.4-0.3-1.8 0.9-3.1 0.3-5.1-2.5-5.2 1.8-5 6-4.1-4.9-4-9.8 0.6-12-3.8-4.1-3.9-8.2-2.7-11.2 2.6 6.5 4.3 7.4 7.2 5.8 3.8-2 0.5-3.6 4.1-9-7.6-1.2-6.1-3.1-12.2-7.5 3 0.7 3-0.4 6.3 0.2-5.3-3.5-5.1-9.7-3.6-13.1 1.8 4.7 2.8 7.2 6.6 7.7 4.3 0.5 5.8 6.8 11.1 5.5 1.2-0.3 1.1-1.7-0.5-2.2-9.3-2.6-6-10-11.2-16.9 7.2 0.5 5.7-1.7 10.8-1.7 6.1 0 7.1 2.8 10.7 2.8 3.2 0 5-5.9 6-6.4 3.6 0 7.2 0 10.9 0 1.8 0 5.1 0 11.3 0z"/>
			<g id="Layer">
				<g id="Layer">
					<g id="Layer">
						<g id="Layer">
							<g id="Layer">
								<path id="Layer" class="s4" d="m125.6 230.6c-3.2 0.6-5.9-0.6-6.8-2.9"/>
								<path id="Layer" class="s4" d="m134.8 244.3c-1.2 1.3-2.3 2.3-5.3 1.5"/>
								<path id="Layer" class="s4" d="m130.1 250.8c-5.5 1.4-4.9-2.9-8.2-4.4-3.5-1.5-1.9-5-5.9-6.1"/>
								<path id="Layer" class="s4" d="m117.6 252c-0.1-2.3-2.4-1.4-3.1-3.2"/>
								<path id="Layer" class="s4" d="m106.7 267.9c4.1 1.8 4.6 4.4 3.7 6.6-0.8 1.8-0.5 3.4 0.4 4.5"/>
								<path id="Layer" class="s4" d="m102.9 274.5c0.9-5.3-4.8-5.9-4.4-11"/>
								<path id="Layer" class="s4" d="m121.1 234.5c3.6 1.4 3.7 6.4 10.5 5.9"/>
								<path id="Layer" class="s4" d="m115.5 263.8c0.2 1 0.8 1.9 2.1 2.4"/>
								<path id="Layer" class="s4" d="m117.4 221.4c-1.6 0.5-2 0.8-3.8 1"/>
								<path id="Layer" class="s4" d="m113.9 274c0.2 1 0.8 1.2 1.2 2"/>
								<path id="Layer" class="s4" d="m92.8 267.2c0.4 1.7 1.7 1.9 2.2 4.2"/>
								<path id="Layer" class="s4" d="m131.9 223c-0.6 0.4-1.5 1.1-2.6 1.6"/>
								<path id="Layer" class="s4" d="m127.8 204.5c-13.5 0-10.6 4.9-22.7 6"/>
							</g>
							<g id="Layer">
								<path id="Layer" class="s5" d="m110.1 253.6c-2.3-0.5-2.7-1.8-2.9-3.3-0.1-1.5-0.3-2.9-1.9-3.9-1.3-0.9-1-1.8-1.9-2.5"/>
								<path id="Layer" class="s5" d="m112.5 241c-2.8 0.1-1.9-2.6-4-3.6"/>
								<path id="Layer" class="s5" d="m104.7 260.1c-0.7-3.9-3.3-3.1-4.4-6.8"/>
								<path id="Layer" class="s5" d="m109.5 260c-0.3-3.4-2.7-3.8-3.8-5.7-0.9-1.7-3.1-1.7-3.9-6.1"/>
								<path id="Layer" class="s5" d="m114.4 231.6c-1.2-2.5-2.5-1.9-3.9-4.8"/>
								<path id="Layer" class="s5" d="m115.7 237c-4.4 0.4-1.7-1.8-4.9-2.8"/>
								<path id="Layer" class="s5" d="m103.6 265.4c-2-1.4-1.2-2.8-2.5-4.1-2.2-2.1-0.7-3-2.5-4.8"/>
							</g>
							<g id="Layer">
								<path id="Layer" class="s4" d="m32.9 230.6c3.2 0.6 6-0.6 6.8-2.9"/>
								<path id="Layer" class="s4" d="m23.8 244.3c1.1 1.3 2.3 2.3 5.2 1.5"/>
								<path id="Layer" class="s4" d="m42.5 240.3c-3.9 1.1-2.4 4.6-5.9 6.1-3.2 1.5-2.7 5.8-8.2 4.4"/>
								<path id="Layer" class="s4" d="m40.9 252c0.2-2.3 2.4-1.4 3.1-3.2"/>
								<path id="Layer" class="s4" d="m47.8 279c0.9-1.1 1.1-2.7 0.4-4.5-0.9-2.2-0.4-4.8 3.6-6.6"/>
								<path id="Layer" class="s4" d="m55.7 274.5c-1-5.3 4.8-5.9 4.4-11"/>
								<path id="Layer" class="s4" d="m37.4 234.5c-3.6 1.4-3.7 6.4-10.5 5.9"/>
							</g>
						</g>
						<path id="Layer" class="s6" d="m79.3 275.4c-3.5 0-5.6-2.1-6.2-4.6-0.5-1.9-3-3.5-5.6-5.7-1.9-1.7-2.6-3.2-2.2-4.2-1.6 0.2-1.7-0.1-3.2-1.6-4.4-4.4-3.8-7.2-5.8-12.9-0.8-2.2-2.5-4.8-0.8-7.1-2.3 0.3-3.8-0.3-5.3-1.7-2.2-2.1-3.2-4.4-2.8-7.6 0.7-5.1 4-7.1 1.5-13.6-1.1-2.8-5.6-5.4-9.9-3.1"/>
						<g id="Layer">
							<g id="Layer">
								<path id="Layer" class="s4" d="m43 263.8c-0.2 1-0.8 1.9-2 2.4"/>
								<path id="Layer" class="s4" d="m41.2 221.4c1.5 0.5 2 0.8 3.7 1"/>
								<path id="Layer" class="s4" d="m44.7 274c-0.3 1-0.9 1.2-1.3 2"/>
								<path id="Layer" class="s4" d="m65.7 267.2c-0.4 1.7-1.6 1.9-2.2 4.2"/>
								<path id="Layer" class="s4" d="m26.6 223c0.7 0.4 1.6 1.1 2.6 1.6"/>
								<path id="Layer" class="s4" d="m30.8 204.5c13.4 0 10.5 4.9 22.7 6"/>
							</g>
							<g id="Layer">
								<path id="Layer" class="s5" d="m55.2 243.9c-0.9 0.7-0.6 1.6-2 2.5-1.5 1-1.7 2.4-1.9 3.9-0.1 1.5-0.5 2.8-2.9 3.3"/>
								<path id="Layer" class="s5" d="m46 241c2.8 0.1 1.9-2.6 4-3.6"/>
								<path id="Layer" class="s5" d="m53.8 260.1c0.8-3.9 3.4-3.1 4.5-6.8"/>
								<path id="Layer" class="s5" d="m56.7 248.2c-0.8 4.4-3 4.4-3.9 6.1-1 1.9-3.4 2.3-3.8 5.7"/>
								<path id="Layer" class="s5" d="m47.5 246.1c5.2-1.4 3.3-5.9 7.4-6.2"/>
								<path id="Layer" class="s5" d="m44.1 231.6c1.2-2.5 2.5-1.9 3.9-4.8"/>
								<path id="Layer" class="s5" d="m42.8 237c4.4 0.4 1.7-1.8 4.9-2.8"/>
								<path id="Layer" class="s5" d="m60 256.5c-1.9 1.8-0.4 2.7-2.6 4.8-1.3 1.3-0.4 2.7-2.5 4.1"/>
							</g>
						</g>
					</g>
					<path id="Layer" class="s1" d="m69.5 219.7q0.9 0.7 1.9 1.1v0.1c-1 3.5-3.5 5.2-5.7 4.8-2.3-0.4-4.2-3-3.8-6.7v-0.2c1.2 0.6 2.1 0.6 3.7 0q0.4-0.1 0.8-0.1c1 0 2 0.4 3.1 1z"/>
					<path id="Layer" class="s6" d="m71.4 220.9c-1 3.5-3.5 5.2-5.7 4.8-2.3-0.4-4.2-3-3.8-6.7"/>
					<path id="Layer" class="s7" d="m69.2 220.5c-0.3 1.9-1.6 2.9-2.8 2.9-1.3-0.2-2.4-1.4-2.5-3.4 0-0.6 2-1.2 3.1-1.2 1.6 0.1 2.3 0.9 2.2 1.7z"/>
					<path id="Layer" class="s1" d="m67.3 220.5c0 0.5-0.5 1-1.1 1-0.6 0-1-0.5-1-1 0-0.6 0.4-1.1 1-1.1 0.6 0 1.1 0.5 1.1 1.1z"/>
					<path id="Layer" class="s6" d="m76 207.1c-0.5 2.4 0.7 3 0.8 4.5 0.3 3.1-1.2 1.8-0.3 5 0.4 1.7 0 2.2-0.2 2.9-1 3.1-4.1 2.1-6.8 0.2-1.4-0.9-2.9-1.2-3.9-0.9-1.9 0.7-2.9 0.5-4.3-0.4-2.5-1.5-2.7-4.1-6.3-3"/>
					<path id="Layer" class="s1" d="m92.1 218.7q0.5 0 0.9 0.1c1.5 0.6 2.5 0.6 3.6 0l0.1 0.2c0.4 3.7-1.6 6.3-3.9 6.7-2.2 0.4-4.6-1.3-5.7-4.8v-0.1q1-0.4 2-1.1c1-0.6 2.1-1 3-1z"/>
					<path id="Layer" class="s6" d="m96.7 219c0.4 3.7-1.6 6.3-3.8 6.7-2.3 0.4-4.7-1.3-5.8-4.8"/>
					<path id="Layer" class="s7" d="m91.6 218.8c1 0 3 0.6 3 1.2 0 2-1.2 3.2-2.4 3.4-1.3 0-2.5-1-2.8-2.9-0.1-0.8 0.5-1.6 2.2-1.7z"/>
					<path id="Layer" class="s1" d="m92.3 219.4c0.6 0 1.1 0.5 1.1 1.1 0 0.5-0.5 1-1.1 1-0.6 0-1-0.5-1-1 0-0.6 0.4-1.1 1-1.1z"/>
					<g id="Layer">
						<path id="Layer" class="s6" d="m103.5 215.4c-3.6-1.1-3.7 1.5-6.2 3-1.5 0.9-2.5 1.1-4.3 0.4-1.1-0.3-2.6 0-3.9 0.9-2.8 1.9-5.9 2.9-6.9-0.2-0.2-0.7-0.6-1.2-0.1-2.9 0.8-3.2-0.6-1.9-0.4-5 0.2-1.5 1.4-2.1 0.9-4.5"/>
						<path id="Layer" class="s6" d="m76 248.1c-0.1 1.5-4.1 1.2-5.4-0.2-1.6-1.5-1.3-4.5 2-7.8 3-3 0.5-6 1-8.8 0.3-1.6 2-2.8 1.6-4.8"/>
						<path id="Layer" class="s6" d="m74.9 247.1c2.6 1.3 4.4 3 4.4 4.3v1.8c0 7.4-13.3 5.6-14 7.7"/>
					</g>
					<path id="Layer" class="s8" d="m76.1 246c0.7 0.4 1.1 1.2 0.7 1.9-0.3 0.7-1.2 0.8-2 0.4-0.8-0.4-1.1-1.3-0.8-1.9 0.4-0.7 1.3-0.9 2.1-0.4z"/>
					<g id="Layer">
						<g id="Layer">
							<path id="Layer" class="s4" d="m72.5 255c-7 0.5-12.4 2-16.9 5.2"/>
							<path id="Layer" class="s4" d="m72.2 252.1c-7.3-0.3-19.5 1.6-24.8 4.2"/>
							<g id="Layer">
								<path id="Layer" class="s5" d="m70.5 212.6c-3.7-3-7.9-3.9-12.3-4.1"/>
								<path id="Layer" class="s5" d="m69.3 215.2c-4.1-2.6-8.3-2.9-12.7-2.7"/>
								<path id="Layer" class="s5" d="m88.1 212.6c3.7-3 7.9-3.9 12.2-4.1"/>
								<path id="Layer" class="s5" d="m89.3 215.2c4-2.6 8.3-2.9 12.7-2.7"/>
							</g>
							<path id="Layer" class="s4" d="m86 255c7 0.5 12.4 2 16.9 5.2"/>
							<path id="Layer" class="s4" d="m86.3 252.1c7.4-0.3 19.6 1.6 24.9 4.2"/>
							<path id="Layer" class="s5" d="m111.1 246.1c-5.2-1.4-3.3-5.9-7.5-6.2"/>
						</g>
						<g id="Layer">
							<path id="Layer" class="s9" d="m65.8 233.8c-1.1 2-2.9 3.7-5 4.1"/>
							<path id="Layer" class="s9" d="m63.9 231.6c-1.1 2-2.9 3.6-5 4"/>
							<path id="Layer" class="s6" d="m83.4 226.5c-0.5 2 1.2 3.2 1.5 4.8 0.5 2.8-1.9 5.8 1 8.8 3.4 3.3 3.6 6.3 2.1 7.8-1.4 1.4-5.4 1.7-5.4 0.2"/>
						</g>
					</g>
					<path id="Layer" class="s8" d="m84.5 246.4c0.4 0.6 0 1.5-0.7 1.9-0.8 0.4-1.8 0.3-2.1-0.4-0.4-0.7 0-1.5 0.8-1.9 0.8-0.5 1.7-0.3 2 0.4z"/>
					<g id="Layer">
						<path id="Layer" class="s6" d="m93.2 260.9c-0.7-2.1-13.9-0.3-13.9-7.7v-1.8c0-1.3 1.7-3 4.4-4.3"/>
						<path id="Layer" class="s6" d="m119.5 213.3c-4.3-2.3-8.8 0.3-9.9 3.1-2.5 6.5 0.9 8.5 1.5 13.6 0.5 3.2-0.5 5.5-2.8 7.6-1.5 1.4-3 2-5.2 1.7 1.7 2.3-0.1 4.9-0.9 7.1-2 5.7-1.3 8.5-5.8 12.9-1.4 1.5-1.5 1.8-3.2 1.6 0.5 1-0.2 2.5-2.2 4.2-2.5 2.2-5 3.8-5.5 5.7-0.7 2.5-2.8 4.6-6.2 4.6"/>
						<path id="Layer" class="s9" d="m92.7 233.8c1.2 2 2.9 3.7 5 4.1"/>
						<path id="Layer" class="s9" d="m94.6 231.6c1.2 2 2.9 3.6 5 4"/>
					</g>
				</g>
				<g id="Layer">
					<path id="Layer" class="s10" d="m73.4 166.8c0.8 0.4 1.4 0.4 1.6-0.1 0.4-0.7-0.4-1.6-1.1-2.3-1.7-1.7-0.6-3.6-0.6-5.2 0.9 1.2 1.8 1 2.3 1.9 0.3 0.4 0.6 0.3 0.8-0.2 0.1-0.6-0.9-1.3 0-3.2 0.8-1.7 1.9-1.6 2.9-3.4 0.9 1.8 2 1.7 2.8 3.4 1 1.9-0.1 2.6 0.1 3.2 0.1 0.5 0.4 0.6 0.7 0.2 0.5-0.9 1.4-0.7 2.3-1.9 0.1 1.6 1.1 3.5-0.5 5.2-0.8 0.7-1.6 1.6-1.2 2.3 0.3 0.5 0.8 0.5 1.6 0.1"/>
					<path id="Layer" class="s11" d="m82.1 157.7c1 1.9-0.1 2.6 0.1 3.2 0.1 0.5 0.4 0.6 0.7 0.2 0.5-0.9 1.4-0.7 2.3-1.9 0.1 1.6 1.1 3.5-0.5 5.2-0.8 0.7-1.6 1.6-1.2 2.3 0.3 0.5 0.8 0.5 1.6 0.1 2.1-0.9 2.5-1.9 3.3-2.7 1.7-1.7 3.5-0.6 5.2-0.6-1.2 0.9-1.1 1.9-1.9 2.3-0.5 0.3-0.3 0.7 0.1 0.8 0.7 0.2 1.4-0.9 3.3 0 1.6 0.9 1.6 2 3.4 2.9-1.8 0.9-1.8 2-3.4 2.9-1.9 0.9-2.6-0.2-3.3 0-0.4 0.1-0.6 0.5-0.1 0.8 0.8 0.4 0.7 1.4 1.9 2.2-1.7 0.1-3.5 1.2-5.2-0.5-0.7-0.7-1.7-2.1-3.2-1.3-1.3 0.8-1.8 3.7 0.6 5.5 4.9 3.6 12.5-0.3 15-8.5l3.1 1.1c-6.5 10.3 2.4 13.7 7.7 8.5 0.4-0.4 0.2-1 0.1-1.2-0.3-0.6-1.1-0.7-1.9-0.7-1.7 0-2.2-1.6-3-2.5 1.1 0.2 1.5-0.4 2.2-0.2 0.4 0.1 0.5-0.1 0.3-0.4-0.2-0.5-1.2-0.3-1.7-1.8-0.4-1.3 0.2-1.9-0.3-3.3 1.5 0.5 2-0.1 3.3 0.3 1.5 0.5 1.4 1.4 1.8 1.7 0.3 0.2 0.6 0.1 0.5-0.3-0.2-0.7 0.3-1.1 0.2-2.3 0.9 0.9 2.4 1.3 2.4 3.1 0 0.8 0.1 1.7 0.7 1.8 0.3 0.1 0.7-0.1 0.9-0.8 0.3-0.6 0.2-1.4 0.2-2.3 0-2 1.8-2.5 2.8-3.4-0.2 1.2 0.4 1.7 0.2 2.4-0.1 0.5 0.2 0.6 0.5 0.4 0.5-0.3 0.3-1.3 1.9-1.9 1.5-0.4 2.1 0.2 3.7-0.3-0.4 2.3-3.3 5-6.2 6.8-2.5 1.6-2.6 1.9-3.9 4-2.3 3.7-6.1 7.3-10.6 10h-52.9c-4.4-2.7-8.3-6.3-10.6-10-1.3-2.1-1.4-2.4-3.9-4-2.9-1.8-5.8-4.5-6.1-6.8 1.6 0.5 2.2-0.1 3.6 0.3 1.7 0.6 1.4 1.6 1.9 1.9 0.4 0.2 0.7 0.1 0.5-0.4-0.2-0.7 0.5-1.2 0.3-2.4 1 0.9 2.7 1.4 2.7 3.4 0 0.9 0 1.7 0.3 2.3 0.2 0.7 0.5 0.9 0.8 0.8 0.7-0.1 0.7-1 0.7-1.8 0-1.8 1.6-2.2 2.5-3.1-0.2 1.2 0.4 1.6 0.2 2.3-0.1 0.4 0.1 0.5 0.4 0.3 0.5-0.3 0.3-1.2 1.8-1.7 1.3-0.4 1.9 0.2 3.3-0.3-0.4 1.4 0.2 2-0.3 3.3-0.5 1.5-1.4 1.3-1.7 1.8-0.2 0.3-0.1 0.5 0.4 0.4 0.6-0.2 1 0.4 2.2 0.2-0.9 0.9-1.3 2.5-3.1 2.5-0.8 0-1.5 0.1-1.8 0.7-0.2 0.2-0.4 0.8 0 1.2 5.4 5.2 14.2 1.8 7.8-8.5l3-1.1c2.5 8.2 10.2 12.1 15 8.5 2.4-1.8 2-4.7 0.6-5.5-1.4-0.8-2.4 0.6-3.2 1.3-1.6 1.7-3.5 0.6-5.2 0.5 1.2-0.8 1.1-1.8 1.9-2.2 0.5-0.3 0.4-0.7-0.1-0.8-0.7-0.2-1.4 0.9-3.3 0-1.6-0.9-1.6-2-3.4-2.9 1.8-0.9 1.8-2 3.4-2.9 1.9-0.9 2.6 0.2 3.3 0 0.5-0.1 0.6-0.5 0.1-0.8-0.8-0.4-0.7-1.4-1.9-2.3 1.7 0 3.6-1.1 5.2 0.6 0.8 0.8 1.2 1.8 3.3 2.7 0.8 0.4 1.4 0.4 1.6-0.1 0.4-0.7-0.4-1.6-1.1-2.3-1.7-1.7-0.6-3.6-0.6-5.2 0.9 1.2 1.8 1 2.3 1.9 0.3 0.4 0.6 0.3 0.8-0.2 0.1-0.6-0.9-1.3 0-3.2 0.8-1.7 1.9-1.6 2.9-3.4 0.9 1.8 2 1.7 2.8 3.4z"/>
					<g id="Layer">
						<path id="Layer" class="s12" d="m56.6 171.9c-1.8 0.6-3.8-0.4-4.4-2.1-0.6-1.8 0.4-3.7 2.2-4.4 1.8-0.6 3.7 0.4 4.3 2.2 0.6 1.8-0.4 3.7-2.1 4.3z"/>
						<path id="Layer" class="s13" d="m57.6 168.7c0 0.9-0.6 1.7-1.4 2q-0.6 0.2-1.2 0"/>
					</g>
					<path id="Layer" class="s14" d="m37.8 175.3c0.6-0.7 2.2-0.2 3.4 1.1 1.3 1.3 1.8 2.8 1.2 3.4-0.7 0.7-2.2 0.2-3.5-1.1-1.2-1.3-1.7-2.8-1.1-3.4z"/>
					<g id="Layer">
						<path id="Layer" class="s12" d="m104.2 171.9c-1.8 0.6-3.8-0.4-4.4-2.1-0.6-1.8 0.4-3.7 2.2-4.4 1.8-0.6 3.7 0.4 4.3 2.2 0.6 1.8-0.4 3.7-2.1 4.3z"/>
						<path id="Layer" class="s13" d="m105.2 168.7c0 0.9-0.6 1.7-1.5 2q-0.5 0.2-1.1 0"/>
					</g>
					<path id="Layer" class="s14" d="m119.6 178.7c-1.3 1.3-2.8 1.8-3.4 1.1-0.7-0.6-0.2-2.1 1.1-3.4 1.3-1.3 2.8-1.8 3.4-1.1 0.7 0.6 0.2 2.1-1.1 3.4z"/>
					<g id="Layer">
						<circle id="Layer" class="s12" cx="79.3" cy="170.1" r="3.2"/>
						<path id="Layer" class="s13" d="m81 169.2c0.2 0.6 0.2 1.2 0 1.8-0.5 1-1.7 1.4-2.7 0.9"/>
					</g>
					<g id="Layer">
						<path id="Layer" class="s15" d="m107.3 188.8c-1.9 4.1-1.3 9-0.9 13.9-8.5-2.3-17.7-3.8-27.2-3.8-9.5 0-18.6 1.5-27.2 3.8 0.4-4.9 1.1-9.8-0.8-13.9 10.9-3.3 18.3-4.8 28-4.8 9.8 0 17.2 1.5 28.1 4.8z"/>
						<path id="Layer" class="s15" d="m79.3 198.5h1.5c9 0.1 15.4 0.7 25.2 2.8 2.1 0.4 1.6 3.8-0.5 3.3-10-2.3-17.2-2.7-24.7-2.7h-3.1c-7.4 0-14.6 0.4-24.7 2.7-2.1 0.5-2.6-2.9-0.5-3.3 9.9-2.1 16.2-2.7 25.2-2.8z"/>
						<path id="Layer" class="s15" d="m82.3 183.9c9 0 15.4 0.7 25.2 2.7 2.1 0.4 1.6 3.8-0.5 3.3-10-2.3-17.2-2.6-24.7-2.6h-6.1c-7.4 0-14.6 0.3-24.7 2.6-2.1 0.5-2.6-2.9-0.5-3.3 9.9-2 16.2-2.7 25.2-2.7h3.1z"/>
					</g>
					<g id="Layer">
						<g id="Layer">
							<path id="Layer" class="s16" d="m92 200.5c0 0.6-0.1 1.2-0.4 1.8"/>
							<path id="Layer" class="s16" d="m93.6 200.6c0 0.7-0.2 1.4-0.4 1.9"/>
							<g id="Layer">
								<path id="Layer" class="s17" d="m95 199.2c0.4 1.2 0.2 2.6-0.4 3.6"/>
								<path id="Layer" class="s17" d="m96.6 199.4c0.3 1.2 0.2 2.6-0.4 3.6"/>
								<path id="Layer" class="s17" d="m98.2 199.6c0.3 1.2 0.1 2.7-0.5 3.6"/>
								<path id="Layer" class="s17" d="m99.7 199.9c0.4 1.2 0.2 2.6-0.5 3.6"/>
								<path id="Layer" class="s17" d="m101.3 200.2c0.3 1.1 0.1 2.6-0.6 3.5"/>
								<path id="Layer" class="s17" d="m102.9 200.5c0.3 1.1 0 2.6-0.6 3.5"/>
								<path id="Layer" class="s17" d="m104.5 200.8c0.2 1.2 0 2.6-0.7 3.5"/>
								<path id="Layer" class="s17" d="m106 201.1c0.3 1.2 0 2.6-0.7 3.5"/>
							</g>
							<g id="Layer">
								<path id="Layer" class="s16" d="m90.5 200.4c0 0.6-0.2 1.2-0.4 1.8"/>
								<path id="Layer" class="s16" d="m88.9 200.3c0 0.6-0.1 1.2-0.3 1.7"/>
								<path id="Layer" class="s16" d="m63.4 200.9c0 0.6 0.1 1.2 0.4 1.7"/>
								<path id="Layer" class="s16" d="m61.8 201.1c0 0.6 0.2 1.2 0.4 1.7"/>
							</g>
							<g id="Layer">
								<path id="Layer" class="s17" d="m60.4 199.6c-0.4 1.2-0.2 2.7 0.4 3.6"/>
								<path id="Layer" class="s17" d="m58.8 199.9c-0.3 1.2-0.1 2.6 0.5 3.6"/>
								<path id="Layer" class="s17" d="m57.2 200.2c-0.3 1.1-0.1 2.6 0.6 3.5"/>
								<path id="Layer" class="s17" d="m55.6 200.5c-0.3 1.1 0 2.6 0.7 3.5"/>
								<path id="Layer" class="s17" d="m54.1 200.8c-0.3 1.2 0 2.6 0.7 3.5"/>
								<path id="Layer" class="s17" d="m52.5 201.1c-0.2 1.2 0.1 2.6 0.7 3.5"/>
							</g>
						</g>
						<g id="Layer">
							<path id="Layer" class="s8" d="m65.3 201.5c0 0.1-0.1 0.3-0.3 0.3-0.2 0-0.3-0.2-0.3-0.3 0-0.2 0.1-0.3 0.3-0.3 0.2 0 0.3 0.1 0.3 0.3z"/>
							<path id="Layer" class="s8" d="m66.9 201.3c0 0.2-0.1 0.3-0.3 0.3-0.2 0-0.3-0.1-0.3-0.3 0-0.2 0.1-0.3 0.3-0.3 0.2 0 0.3 0.1 0.3 0.3z"/>
							<path id="Layer" class="s8" d="m68.5 201.2c0 0.2-0.2 0.3-0.3 0.3-0.2 0-0.3-0.1-0.3-0.3 0-0.2 0.1-0.3 0.3-0.3 0.1 0 0.3 0.1 0.3 0.3z"/>
							<path id="Layer" class="s8" d="m70.1 201.1c0 0.1-0.2 0.3-0.3 0.3-0.2 0-0.4-0.2-0.4-0.3 0-0.2 0.2-0.3 0.4-0.3 0.1 0 0.3 0.1 0.3 0.3z"/>
							<path id="Layer" class="s8" d="m71.6 201c0 0.2-0.1 0.3-0.3 0.3-0.2 0-0.3-0.1-0.3-0.3 0-0.2 0.1-0.3 0.3-0.3 0.2 0 0.3 0.1 0.3 0.3z"/>
							<path id="Layer" class="s8" d="m73.2 200.9c0 0.2-0.1 0.3-0.3 0.3-0.1 0-0.3-0.1-0.3-0.3 0-0.1 0.2-0.3 0.3-0.3 0.2 0 0.3 0.2 0.3 0.3z"/>
							<path id="Layer" class="s8" d="m74.8 200.9c0 0.2-0.1 0.3-0.3 0.3-0.2 0-0.3-0.1-0.3-0.3 0-0.2 0.1-0.3 0.3-0.3 0.2 0 0.3 0.1 0.3 0.3z"/>
							<path id="Layer" class="s8" d="m76.4 200.9c0 0.1-0.1 0.3-0.3 0.3-0.2 0-0.3-0.2-0.3-0.3 0-0.2 0.1-0.3 0.3-0.3 0.2 0 0.3 0.1 0.3 0.3z"/>
							<path id="Layer" class="s8" d="m78 200.9c0 0.1-0.1 0.3-0.3 0.3-0.2 0-0.3-0.2-0.3-0.3 0-0.2 0.1-0.4 0.3-0.4 0.2 0 0.3 0.2 0.3 0.4z"/>
							<path id="Layer" class="s8" d="m79.6 200.9c0 0.1-0.2 0.3-0.3 0.3-0.2 0-0.3-0.2-0.3-0.3 0-0.2 0.1-0.4 0.3-0.4 0.1 0 0.3 0.2 0.3 0.4z"/>
							<path id="Layer" class="s8" d="m81.2 200.9c0 0.1-0.2 0.3-0.3 0.3-0.2 0-0.4-0.2-0.4-0.3 0-0.2 0.2-0.4 0.4-0.4 0.1 0 0.3 0.2 0.3 0.4z"/>
							<path id="Layer" class="s8" d="m82.8 200.9c0 0.1-0.2 0.3-0.4 0.3-0.1 0-0.3-0.2-0.3-0.3 0-0.2 0.2-0.3 0.3-0.3 0.2 0 0.4 0.1 0.4 0.3z"/>
							<path id="Layer" class="s8" d="m84.3 200.9c0 0.2-0.1 0.3-0.3 0.3-0.1 0-0.3-0.1-0.3-0.3 0-0.2 0.2-0.3 0.3-0.3 0.2 0 0.3 0.1 0.3 0.3z"/>
							<path id="Layer" class="s8" d="m87.5 201c0 0.2-0.1 0.3-0.3 0.3-0.2 0-0.3-0.1-0.3-0.3 0-0.2 0.1-0.3 0.3-0.3 0.2 0 0.3 0.1 0.3 0.3z"/>
							<path id="Layer" class="s8" d="m85.9 200.9c0 0.2-0.1 0.3-0.3 0.3-0.2 0-0.3-0.1-0.3-0.3 0-0.1 0.1-0.3 0.3-0.3 0.2 0 0.3 0.2 0.3 0.3z"/>
							<path id="Layer" class="s8" d="m65.3 186.6c0 0.2-0.1 0.3-0.3 0.3-0.2 0-0.3-0.1-0.3-0.3 0-0.1 0.1-0.3 0.3-0.3 0.2 0 0.3 0.2 0.3 0.3z"/>
							<path id="Layer" class="s8" d="m66.9 186.5c0 0.2-0.1 0.3-0.3 0.3-0.2 0-0.3-0.1-0.3-0.3 0-0.2 0.1-0.3 0.3-0.3 0.2 0 0.3 0.1 0.3 0.3z"/>
							<path id="Layer" class="s8" d="m68.5 186.4c0 0.2-0.2 0.3-0.3 0.3-0.2 0-0.3-0.1-0.3-0.3 0-0.2 0.1-0.3 0.3-0.3 0.1 0 0.3 0.1 0.3 0.3z"/>
							<path id="Layer" class="s8" d="m70.1 186.3c0 0.2-0.2 0.3-0.4 0.3-0.1 0-0.3-0.1-0.3-0.3 0-0.2 0.2-0.3 0.3-0.3 0.2 0 0.4 0.1 0.4 0.3z"/>
							<path id="Layer" class="s8" d="m71.6 186.2c0 0.2-0.1 0.4-0.3 0.4-0.1 0-0.3-0.2-0.3-0.4 0-0.1 0.2-0.3 0.3-0.3 0.2 0 0.3 0.2 0.3 0.3z"/>
							<path id="Layer" class="s8" d="m73.2 186.2c0 0.2-0.1 0.3-0.3 0.3-0.2 0-0.3-0.1-0.3-0.3 0-0.2 0.1-0.3 0.3-0.3 0.2 0 0.3 0.1 0.3 0.3z"/>
							<path id="Layer" class="s8" d="m74.8 186.2c0 0.2-0.1 0.3-0.3 0.3-0.2 0-0.3-0.1-0.3-0.3 0-0.2 0.1-0.3 0.3-0.3 0.2 0 0.3 0.1 0.3 0.3z"/>
							<path id="Layer" class="s8" d="m76.4 186.2c0 0.1-0.2 0.3-0.3 0.3-0.2 0-0.4-0.2-0.4-0.3 0-0.2 0.2-0.3 0.4-0.3 0.1 0 0.3 0.1 0.3 0.3z"/>
							<path id="Layer" class="s8" d="m77.9 186.2c0 0.1-0.1 0.3-0.3 0.3-0.1 0-0.3-0.2-0.3-0.3 0-0.2 0.2-0.3 0.3-0.3 0.2 0 0.3 0.1 0.3 0.3z"/>
							<path id="Layer" class="s8" d="m79.5 186.2c0 0.1-0.1 0.3-0.3 0.3-0.2 0-0.3-0.2-0.3-0.3 0-0.2 0.1-0.3 0.3-0.3 0.2 0 0.3 0.1 0.3 0.3z"/>
							<path id="Layer" class="s8" d="m81.1 186.2c0 0.1-0.1 0.3-0.3 0.3-0.2 0-0.3-0.2-0.3-0.3 0-0.2 0.1-0.3 0.3-0.3 0.2 0 0.3 0.1 0.3 0.3z"/>
							<path id="Layer" class="s8" d="m82.7 186.2c0 0.1-0.2 0.3-0.3 0.3-0.2 0-0.3-0.2-0.3-0.3 0-0.2 0.1-0.3 0.3-0.3 0.1 0 0.3 0.1 0.3 0.3z"/>
							<path id="Layer" class="s8" d="m84.3 186.2c0 0.2-0.2 0.3-0.4 0.3-0.1 0-0.3-0.1-0.3-0.3 0-0.2 0.2-0.3 0.3-0.3 0.2 0 0.4 0.1 0.4 0.3z"/>
							<path id="Layer" class="s8" d="m87.4 186.2c0 0.2-0.1 0.4-0.3 0.4-0.2 0-0.3-0.2-0.3-0.4 0-0.1 0.1-0.3 0.3-0.3 0.2 0 0.3 0.2 0.3 0.3z"/>
							<path id="Layer" class="s8" d="m85.8 186.2c0 0.2-0.1 0.3-0.3 0.3-0.2 0-0.3-0.1-0.3-0.3 0-0.2 0.1-0.3 0.3-0.3 0.2 0 0.3 0.1 0.3 0.3z"/>
							<path id="Layer" class="s8" d="m63.8 186.8c0 0.2-0.2 0.3-0.4 0.3-0.1 0-0.3-0.1-0.3-0.3 0-0.2 0.2-0.3 0.3-0.3 0.2 0 0.4 0.1 0.4 0.3z"/>
							<path id="Layer" class="s8" d="m89 186.3c0 0.2-0.2 0.3-0.3 0.3-0.2 0-0.3-0.1-0.3-0.3 0-0.2 0.1-0.3 0.3-0.3 0.1 0 0.3 0.1 0.3 0.3z"/>
							<path id="Layer" class="s8" d="m90.5 186.4c0 0.1-0.2 0.3-0.3 0.3-0.2 0-0.3-0.2-0.3-0.3 0-0.2 0.1-0.4 0.3-0.4 0.1 0 0.3 0.2 0.3 0.4z"/>
							<path id="Layer" class="s8" d="m91.9 186.5c0 0.1-0.1 0.3-0.3 0.3-0.2 0-0.3-0.2-0.3-0.3 0-0.2 0.1-0.3 0.3-0.3 0.2 0 0.3 0.1 0.3 0.3z"/>
						</g>
						<g id="Layer">
							<path id="Layer" class="s16" d="m60.3 186.7c0.1 0.5 0.2 1.1 0.5 1.6"/>
							<g id="Layer">
								<path id="Layer" class="s17" d="m58.9 185c-0.4 1.1-0.2 2.6 0.4 3.6"/>
								<path id="Layer" class="s17" d="m57.3 185.2c-0.3 1.2-0.1 2.6 0.5 3.6"/>
								<path id="Layer" class="s17" d="m55.7 185.5c-0.3 1.2-0.1 2.6 0.6 3.6"/>
								<path id="Layer" class="s17" d="m54.1 185.8c-0.3 1.2 0 2.6 0.7 3.6"/>
								<path id="Layer" class="s17" d="m52.6 186.1c-0.3 1.2 0 2.6 0.6 3.5"/>
								<path id="Layer" class="s17" d="m51 186.4c-0.3 1.2 0 2.6 0.7 3.6"/>
							</g>
							<path id="Layer" class="s16" d="m61.9 186.7q0.1 0.7 0.4 1.3"/>
							<path id="Layer" class="s16" d="m93.5 186.1q0 0.8-0.3 1.5"/>
							<g id="Layer">
								<path id="Layer" class="s17" d="m94.9 184.3c0.4 1.2 0.3 2.6-0.3 3.7"/>
								<path id="Layer" class="s17" d="m96.5 184.5c0.4 1.2 0.2 2.6-0.4 3.6"/>
								<path id="Layer" class="s17" d="m98.1 184.7c0.4 1.2 0.2 2.6-0.4 3.6"/>
								<path id="Layer" class="s17" d="m99.7 185c0.3 1.1 0.1 2.6-0.5 3.6"/>
								<path id="Layer" class="s17" d="m101.2 185.2c0.4 1.2 0.2 2.6-0.5 3.6"/>
								<path id="Layer" class="s17" d="m102.8 185.5c0.3 1.2 0.1 2.6-0.5 3.6"/>
								<path id="Layer" class="s17" d="m104.4 185.8c0.3 1.2 0 2.6-0.6 3.6"/>
								<path id="Layer" class="s17" d="m106 186.1c0.2 1.2 0 2.6-0.7 3.5"/>
								<path id="Layer" class="s17" d="m107.5 186.4c0.3 1.2 0 2.6-0.7 3.6"/>
							</g>
							<g id="Layer">
								<path id="Layer" class="s13" d="m104.4 199c-4.3-0.9-8.1-1.4-11.6-1.7m-31.6 0.5q-3.2 0.4-6.9 1.2"/>
								<path id="Layer" class="s13" d="m104.3 197.4c-4.3-0.9-8-1.4-11.5-1.7m-32.5 0.6q-2.8 0.4-5.9 1.1"/>
								<g id="Layer">
									<path id="Layer" class="s13" d="m104.4 195.8c-4.3-0.9-8.1-1.4-11.6-1.7m-33.4 0.7q-2.3 0.4-4.9 0.9"/>
									<path id="Layer" class="s13" d="m104.5 194.2c-4.3-0.9-8.1-1.4-11.7-1.7m-34.2 0.9q-2 0.3-4.2 0.7"/>
									<path id="Layer" class="s13" d="m104.7 192.6c-4.4-0.9-8.3-1.4-11.9-1.7m-35.1 1q-1.7 0.3-3.4 0.6"/>
									<path id="Layer" class="s13" d="m105 191.1c-4.6-1-8.5-1.5-12.2-1.8m-36 1.1q-1.4 0.3-2.8 0.6"/>
								</g>
							</g>
						</g>
					</g>
					<g id="Layer">
						<path id="Layer" class="s16" d="m84.8 179.9c-3.6-2.4-2.6-5.9-1.7-6.8"/>
						<g id="Layer">
							<path id="Layer" class="s13" d="m88.5 170h-3.5"/>
							<path id="Layer" class="s13" d="m85 168.8l2.1-0.5"/>
							<path id="Layer" class="s13" d="m85 171.3l2.1 0.5"/>
							<path id="Layer" class="s13" d="m111.6 174.4l2.5 2.5"/>
							<path id="Layer" class="s13" d="m113.2 177.7l-1.8-1.1"/>
							<path id="Layer" class="s13" d="m115 176l-1.2-1.9"/>
							<path id="Layer" class="s13" d="m121.1 173.5l1.1-1.8"/>
						</g>
						<path id="Layer" class="s16" d="m73.8 179.9c3.6-2.4 2.6-5.9 1.7-6.8"/>
						<g id="Layer">
							<path id="Layer" class="s13" d="m79.3 161.7v3.5"/>
							<path id="Layer" class="s13" d="m80.5 165.2l0.5-2.1"/>
							<path id="Layer" class="s13" d="m78 165.2l-0.5-2.1"/>
							<path id="Layer" class="s13" d="m70 170h3.5"/>
							<path id="Layer" class="s13" d="m73.5 168.8l-2.1-0.5"/>
							<path id="Layer" class="s13" d="m73.5 171.3l-2.1 0.5"/>
							<path id="Layer" class="s13" d="m46.9 174.4l-2.5 2.5"/>
							<path id="Layer" class="s13" d="m45.3 177.7l1.9-1.1"/>
							<path id="Layer" class="s13" d="m43.6 176l1.1-1.9"/>
							<path id="Layer" class="s13" d="m37.5 173.5l-1.2-1.8"/>
						</g>
						<path id="Layer" class="s16" d="m53.4 184.3c-2.8-0.1-6.6-2.4-6.9-4.5"/>
						<path id="Layer" class="s16" d="m105.2 184.3c2.7-0.1 6.5-2.4 6.8-4.5"/>
					</g>
				</g>
			</g>
		</g>
	</g>
</svg>