<svg version="1.2" xmlns="http://www.w3.org/2000/svg" width="900" height="600"><defs><clipPath clipPathUnits="userSpaceOnUse" id="cp1"><path d="M719.32 293.57h102.57v130.61H719.32z"/></clipPath><clipPath clipPathUnits="userSpaceOnUse" id="cp2"><path d="M728.31 299.94h308.25v462.07H728.31z"/></clipPath><clipPath clipPathUnits="userSpaceOnUse" id="cp3"><path d="M721.93 115.02h375.98v531.74H721.93z"/></clipPath><clipPath clipPathUnits="userSpaceOnUse" id="cp4"><path d="M756 149.09h307.84v461.86H756z"/></clipPath><clipPath clipPathUnits="userSpaceOnUse" id="cp5"><path d="M900.22 116.6h375.98v531.74H900.22z"/></clipPath><clipPath clipPathUnits="userSpaceOnUse" id="cp6"><path d="M934.29 150.67h307.84v461.86H934.29z"/></clipPath></defs><style>tspan{white-space:pre}.s0{fill:#00247d}.s4{fill:#fff;stroke:#000;stroke-width:.9}.s5,.t6{fill:#000}.t6{font-size:11px;font-family:&quot;&apos; Hoefler  Text&apos;&quot;}.s8{fill:#4d4d4d}.s9{fill:#fff}.s10{fill:#c1bdb6}.s11{fill:none;stroke:#4d4d4d}.s11,.s12,.s13,.s14{stroke-width:.5}.s12{fill:#a05a2c;stroke:#502d16}.s13,.s14{fill:#fff;stroke:#4d4d4d}.s14{fill:#d40000}.s16{fill:#502d16}.s17,.s20{fill:none;stroke:#502d16;stroke-width:.5}.s20{fill:#2d2d2d;stroke:#1a1a1a}.s22{fill:#666}</style><g id="Layer"><path class="s0" d="M0 0h450v300H0z"/><path d="m0 0 450 300m0-300L0 300" style="fill:none;stroke:#fff;stroke-width:52"/><path d="M225 0v300M0 150h450" style="fill:none;stroke:#fff;stroke-width:86.7"/><path d="M225 0v300M0 150h450" style="fill:none;stroke:#cf142b;stroke-width:52"/><path class="s0" d="M0 300h900v300H0zM450 0h450v600H450z"/></g><g id="g3573"><g id="g1325"><g id="layer2"><g id="g989"><g id="g1574"><g id="g1515"><path id="path1509" class="s4" d="m667.9 434.7-.1-1.8c-.7-1-1.2-2.9-.3-4.7-1.2-1.8-.9-3.5-.2-4.6-1.5-2.6-.7-3.8-.3-4.6-1.2-1.6-1.2-3.8-.3-4.6l-.1-2.8h15.9l-.1 2.8c.9.8.9 3-.3 4.6.4.8 1.2 2-.2 4.6.6 1.1.9 2.8-.3 4.6.9 1.8.4 3.7-.3 4.7l-.1 1.8z"/></g><g id="g1540"><path id="path1528" class="s5" d="M672.1 416.9q1.2.7 2.3 1.4c1.5-.9 3.1-1.7 4.5-2.5 1.5-.8 2.8-1.8 3.4-2.8l.8.5c-.7 1.3-2.1 2.3-3.7 3.2-1.4.7-2.8 1.4-4.1 2.1.9.7 1.8 1.4 2.3 2.2 2.1-.9 4-1.9 4.7-3.2l.8.4c-1 1.9-3.4 3-5.8 4-2.2 1-4.4 2.1-5.3 3.6q.2.1.5.2.8.4 1.7.8c1.4-.6 3-1.2 4.4-1.9 1.5-.7 2.8-1.5 3.4-2.5l.8.5c-.7 1.3-2.2 2.1-3.8 2.8-1.2.6-2.6 1.2-3.8 1.7 1.2.7 2.3 1.5 3 2.5l.4-.2c1.4-.7 2.5-1.4 3-2.4l.9.5c-.8 1.3-2.1 2.1-3.5 2.8-1.1.5-2.2.9-3.3 1.4 1.1.6 2.1 1.4 2.8 2.5l-.8.5c-1-1.6-3.1-2.5-5.4-3.5-2.2-.9-4.5-1.8-5.6-3.7l.8-.5c.9 1.5 3 2.4 5.2 3.3q1 .4 1.9.9c.9-.5 1.8-.8 2.7-1.2-1-1.4-3.1-2.4-5.2-3.4-2.3-1.1-4.7-2.2-5.7-4l.8-.5c.6 1.2 2.2 2.1 3.9 2.9.5-.8 1.3-1.5 2.3-2.1-1.3-.7-2.7-1.3-3.9-2-1.5-.8-2.8-1.7-3.5-3l.8-.4c.6.9 1.7 1.8 3.1 2.6 1.4.7 3 1.4 4.4 2.2.8-.4 1.6-.8 2.5-1.2-1.1-1.3-3.1-2.5-5.1-3.6-2.3-1.3-4.6-2.5-5.7-4.3l.8-.5c.9 1.5 3.1 2.7 5.3 3.9z"/></g></g><g id="g1290"><g id="g1209"><path id="path1119" class="s4" d="M750.1 428.1q-3.1 3.3-6.3 2.9c-2.5 2.1-4.6 3-9 2.4-3 1-6.2 2-8.6.7-3.4.5-6.5 1-9.2-.9-2.6-.1-5.2-.4-6.4-2.2-2.1-.3-4.2-1.1-6.2-3.4-1.7-.8-3.5-1.4-4.5-3.6-1.6-1.1-3.4-1.5-4.4-4.3-1.2-1.1-2.6-1.3-3.5-4-2.2-1.3-3.2-3.2-3.9-5.3l6.5-4.4c1.7 1.3 3.1 2.6 3.5 4.6 1.7.5 2.3 1.7 2.7 3 1.9.9 3.3 1.5 4.3 3.9 1.8.5 3.1.9 4.8 3.2 2.8.2 4.1.9 5.4 2.3 2-.5 3.4.1 4.7 1.3 2.3-1.2 3.9-.2 5 .3 1.4-.9 3-1 4.9-.5 1.3-1.4 3.1-1.9 5.4-1.6 1-1.9 3.7-2.9 6-3.1 1.3-2.5 3.6-3.3 6.1-4 1.4-2.7 1.3-3.8 7.3-6.3-.3-2.5 1.9-4.7 5.8-6.7-.1-.4-1.5-3.4 4.5-6.5-1.6-2.7.1-5.2 4.2-7.6-2.7-2.5.3-6.4 3.9-9-5.1-3.2.2-7.9 3.2-11.9-2.4-1.8-5.3-5.2-5.3-9.7l.1-110c.1-25.6-60-72.6-96.5-86.2-15.4-5.7-33.6-11.7-43.9-7.5 4.3-2.1 8.5-3.9 12.4-5.3 3.9-1.4 7.5-2.4 10.7-2.9 2.4-.4 11.6-1.1 20.8-1.1 9.1 0 18.3.7 20.7 1.1 33.6 5.6 106.2 59.8 106.2 94.3v117.6c-.4 8.1-7.9 10.9-9.1 11 0 4.6 3.1 9.8-3.8 13.4-.1 6.6-2.5 8.7-4.8 10.1-.6 6.6-4 8.2-5.3 8.5-.8 5.2-3.4 7.3-5.9 7.8-2.6 6.8-5.8 6.9-6.9 7.5-1.9 4.2-4.3 5.1-6.7 6-2.4 4.1-5.5 5.7-8.9 6.1z"/><path id="path1129" class="s4" d="M708.9 179.6c-12.1-7.9-24.1-14.3-34.3-18.1-15.4-5.7-33.6-11.7-43.9-7.5 4.3-2.1 8.5-3.9 12.4-5.3 3.9-1.4 7.5-2.4 10.7-2.9 2.4-.4 11.6-1.1 20.8-1.1 9.1 0 18.3.7 20.7 1.1 33.6 5.6 106.2 59.8 106.2 94.3v20.2c-4.3-32.5-10.6-26.2-92.6-80.7z"/><path id="path1028-7-0" class="s4" d="M590.1 422c-2.4-.9-4.8-1.8-6.7-6-1-.6-4.3-.7-6.9-7.5-2.5-.5-5.1-2.6-5.9-7.8-1.3-.3-4.7-1.9-5.2-8.5-2.4-1.4-4.8-3.5-4.9-10.1-6.9-3.6-3.8-8.8-3.8-13.4-1.2-.1-8.7-2.9-9.1-11V240.1c0-34.5 72.6-88.7 106.2-94.3 2.4-.4 11.6-1.1 20.8-1.1 9.1 0 18.3.7 20.7 1.1 3.3.5 6.9 1.5 10.7 2.9 3.9 1.4 8.1 3.2 12.4 5.3-10.2-4.2-28.5 1.8-43.8 7.5-36.6 13.6-96.7 60.6-96.6 86.2l.1 110c0 4.5-2.9 7.9-5.3 9.7 3 4 8.3 8.7 3.2 11.9 3.6 2.6 6.6 6.5 3.9 9 4.1 2.4 5.8 4.9 4.2 7.6 6 3.1 4.6 6.1 4.5 6.5 3.9 2 6.1 4.2 5.8 6.7 6 2.5 5.9 3.6 7.3 6.3 2.6.7 4.8 1.5 6.1 4 2.3.2 5.1 1.2 6.1 3.1 2.2-.3 4 .2 5.3 1.6 1.9-.5 3.5-.4 4.9.5 1.1-.5 2.7-1.5 5-.3 1.3-1.2 2.7-1.8 4.7-1.3 1.3-1.4 2.6-2.1 5.4-2.3 1.8-2.3 3-2.7 4.8-3.2 1-2.4 2.4-3 4.3-3.9.4-1.3 1-2.5 2.7-3 .4-2 1.8-3.3 3.5-4.6l6.5 4.4c-.7 2.1-1.6 4-3.9 5.3-.9 2.7-2.3 2.9-3.5 4-1 2.8-2.8 3.2-4.4 4.3-1 2.2-2.8 2.8-4.5 3.6-2 2.3-4.1 3.1-6.1 3.4-1.3 1.8-3.9 2.1-6.5 2.2-2.7 1.9-5.8 1.4-9.2.9-2.4 1.3-5.6.3-8.6-.7-4.4.6-6.5-.3-9-2.4q-3.2.4-6.3-2.9c-3.4-.4-6.5-2-8.9-6.1z"/></g><path id="path1123" class="s5" d="M784.9 368.4c.1 2.6 1.1 4.6 2.2 6.9 1.1 2.2 2.2 4.7 1.9 8l-.9-.1c.3-3-.8-5.3-1.9-7.5-.5-1.1-1.1-2.2-1.4-3.4-1.1 2.6-2.8 3.8-4.7 4.5q-.1.1-.2.1c.7 2.6 2 4.7 3 7.1 1.1 2.6 1.8 5.4 1.2 9.3l-.9-.2c.6-3.6-.1-6.2-1.2-8.7q0-.1-.1-.2c-1.9 1.5-4.1 2.3-6.2 2.8.4 4.7 1.3 7.1 2.1 9 .8 1.8 1.4 3.3 1 5.7l-.9-.1c.4-2.3-.2-3.4-1-5.3-.3-.8-.7-1.7-1-3-1.6 1.3-3.3 1.9-4.9 2.2.2 3 1.1 5.5 1.7 7.9.6 2.5.8 5-.6 7.4l-.8-.5c1.2-2.2 1-4.2.4-6.7q-.3-1.3-.7-2.7c-1.7 1.2-3.3 1.6-4.8 1.8-.4 2.7 0 5.6.2 8.1.2 2.7.2 5.1-1.1 7l-.8-.5c1.1-1.6 1.1-3.8.9-6.4q-.1-1.1-.1-2.2c-2.3.9-4.2 1.1-5.7 1.1-.9 2.9-.6 5.2-.3 7.3.3 2.2.6 4.2-.4 6l-.8-.5c.8-1.5.6-3.1.3-5.4q-.1-.4-.2-.9c-1.8.8-3.4.9-4.8.8-1.5 3.4-1.7 5.7-1.8 7.5-.2 1.9-.4 3.4-2.2 4.8l-.6-.7c1.6-1.3 1.7-2.3 1.8-4.2q.1-1 .3-2.3c-1.6.1-3.1-.2-4.4-.6-1.1 2.2-1.2 4-1.3 5.6-.1.9-.1 1.7-.3 2.4-.2.8-.6 1.4-1.3 2l-.6-.7c.6-.4.8-.9 1-1.5.1-.6.2-1.4.2-2.2q.1-.4.1-.9c-2-.3-3.6-.8-5-1.4-.7 1.5-1 3.2-1.6 4.8-.7 1.9-1.8 3.6-4.4 4.7l-.4-.9c2.4-.9 3.3-2.4 3.9-4.1v-.1c-2.1-.1-3.3-.8-4.2-1.7-1.7 1.3-2.5 2.8-3.4 4.2-.9 1.4-2.2 2.7-4.8 3.1l-.2-1c2.5-.4 3.4-1.3 4.2-2.6q.2-.3.3-.5c-.8-.5-1.4-1.2-1.9-1.9-2-.2-3.5 1-5.2 2.3-1.8 1.3-3.8 2.7-6.5 2.3l.1-.9c2.4.3 4.1-.8 5.8-2.2l.6-.4q-.6-.5-.9-1.2c-3.1-1.1-4.8-.2-6.3.7-.8.5-1.6 1.1-2.4 1.4-.9.4-1.9.5-3 .2l.2-.9c1 .3 1.7.2 2.4-.1.7-.3 1.4-.9 2.3-1.4.6-.4 1.3-.8 2.2-1q-.2-.3-.3-.5c-3.4-1.4-5.8-.9-7.9-.3-1 .3-2 .6-3 .7-1 .1-2 0-2.9-.7l.5-.8c.8.6 1.5.7 2.3.6.8-.1 1.8-.4 2.8-.7.8-.2 1.7-.5 2.7-.6-2-2.2-4-2.2-5.9-1.9-1.1.1-2.1.4-3.1.6-.9.1-1.9.2-2.7-.3l.5-.8c.5.3 1.2.3 2.1.2.9-.2 1.9-.5 3-.7h.3c-1.9-2.5-3.8-2.9-5.6-2.9-1 0-1.8.2-2.6.2s-1.6 0-2.3-.5l.7-.8c.3.3.8.4 1.5.4.7-.1 1.7-.2 2.7-.2h1c-.5-1.1-1.2-1.8-1.8-2.2-.8-.5-1.5-.6-2.4-.7-1.6 0-3.5.4-5-.5l.5-.8c1 .6 2.5.3 4.3.4-.5-1.2-.9-2.1-1.5-2.6-.5-.6-1.1-.8-1.8-1-1.4-.2-3 .2-4.6 0l.1-.9c1.4.1 3-.3 4.7 0 .8.2 1.6.5 2.3 1.2q.6.7 1.2 1.7.2-.5.6-1.1c.3-.6.6-1.2.7-1.7.1-.5.1-.9-.3-1.4l.7-.6c.6.7.7 1.5.6 2.2-.2.7-.6 1.4-.9 2-.4.6-.7 1.2-.8 1.6q-.1.3-.1.4 0 .1.1.2v.1c.7.1 1.4.3 2 .6q.8.5 1.4 1.3.1-.4.2-.9c.2-1.1.4-2.1-.2-3.4l.8-.4c.8 1.5.5 2.9.3 4-.1.6-.2 1.1-.1 1.5 0 .5.1.9.5 1.3 1 .4 2.1 1 3.1 2.1l.2-1.2c.2-1.1.3-1.9-.3-2.9l.8-.6c.8 1.3.6 2.6.4 3.6-.1.9-.3 1.7-.1 2.4 1.6 0 3.3.4 4.9 1.8q-.1-.5-.2-1.1c-.3-1-.6-2-1.1-2.6l.8-.6c.6.8 1 2 1.2 3 .2 1 .4 1.8.6 2.5 1.1 0 2.4.2 3.9.7q-.1-.5-.2-.9c-.2-1.2-.5-2.2-1.8-2.9l.5-.9c1.5.9 2 2.4 2.3 3.6.1.6.2 1.2.3 1.6q.1.6.4.8c.9-.1 1.9-.1 3.1.2l-.4-1.4c-.2-.7-.4-1.3-.6-1.7-.3-.5-.6-.8-1.2-.9l.3-.9c.8.2 1.3.7 1.7 1.3.4.6.5 1.3.7 2 .4 1.3.7 2.6 1.6 3.5 1.2-.8 2.4-1.5 3.9-1.6q-.3-.5-.5-.9c-.4-.8-.8-1.4-1.3-1.9s-1-.8-1.8-.9v-.9c1.1.1 1.8.5 2.5 1.1.6.6 1 1.4 1.4 2.1.8 1.4 1.5 2.8 2.7 3.5.7-1 1.5-2.1 2.8-3q-.2-.3-.4-.5c-.5-.6-.9-1.2-1.5-1.6-.5-.4-1.3-.7-2.5-.6v-1c1.3 0 2.3.3 3.1.8.7.5 1.2 1.2 1.7 1.9.9 1.2 1.8 2.3 4.7 2.4.4-1.3.7-2.6 1.3-3.9q-.3-.2-.7-.3c-1.8-.9-3.1-1.5-4.5-1.2l-.2-1c1.8-.3 3.3.5 5.1 1.3 1.7.8 3.7 1.7 6.3 2 .1-1.2.5-2.5 1.2-4l-1-.4c-2-.7-3.6-1.3-5.2-.6l-.3-.9c1-.4 1.9-.5 2.9-.3s1.9.5 2.9.9c1.9.7 3.8 1.4 6.1 1.2.3-1.2.7-2.6 1.4-4.2l-1-.2c-2.1-.5-3.7-1.1-5.4-.4l-.4-.9c2.1-.8 4-.1 6 .4 1.9.4 3.9.6 6.5-.6-.1-1.6-.1-3.4.5-5.6h-.5c-2-.1-3.4-.3-5.2.7l-.5-.8c2-1.1 3.8-.9 5.8-.8 1.8.1 3.9.1 7-1.1-.1-1.6-.2-3.3 0-5h-.4c-1.9 0-3.5-.2-4.9.6l-.5-.8c1.7-1 3.5-.7 5.4-.7 1.8 0 3.7-.2 6-1.9-.4-1.3-.6-2.7-.7-4.2q-.2.1-.4.1c-2.2.4-4.1.4-5.2 1l-.4-.9c1.4-.7 3.3-.7 5.4-1 2-.3 4.1-.9 6.1-2.6-.4-1.3-.6-3-.8-5.1-2.6.6-5 1.1-6.6 2.3l-.6-.7c1.9-1.5 4.4-1.9 6.9-2.5 2.5-.6 5-1.3 7-3-.9-1.9-1.9-3.8-2.5-6.1-1.9.7-4.1 1.3-6.3 3l-.6-.8c2.9-2.1 5.6-2.6 7.7-3.4 2-.9 3.7-2 4.8-5.5q-.1-1 .3-2.1z"/><path id="path1195" class="s5" d="M564.5 370.5c1.1 3.5 2.8 4.6 4.8 5.5 2.1.8 4.8 1.3 7.7 3.4l-.6.8c-2.2-1.7-4.4-2.3-6.3-3-.6 2.3-1.6 4.2-2.5 6.1 2.1 1.7 4.5 2.4 7 3 2.5.6 5 1 6.9 2.5l-.6.7c-1.6-1.2-4-1.7-6.6-2.3-.1 2.1-.4 3.8-.8 5.1 2 1.7 4.1 2.3 6.1 2.6 2.1.3 4 .3 5.4 1l-.4.9c-1-.6-3-.6-5.1-1q-.3 0-.5-.1c-.1 1.5-.3 2.9-.6 4.2 2.2 1.7 4.1 1.9 5.9 1.9 1.9 0 3.7-.3 5.4.7l-.5.8c-1.4-.8-3-.6-4.9-.6h-.4c.2 1.7.1 3.4 0 5 3.1 1.2 5.2 1.2 7.1 1.1 1.9-.1 3.7-.3 5.7.8l-.5.8c-1.7-1-3.2-.8-5.2-.7h-.5c.6 2.2.6 4 .5 5.6 2.6 1.2 4.6 1 6.5.6 2-.5 3.9-1.2 6-.4l-.4.9c-1.7-.7-3.3-.1-5.4.4l-1 .2c.7 1.6 1.1 3 1.4 4.2 2.3.2 4.2-.5 6.1-1.2 1-.4 1.9-.7 2.9-.9 1-.2 2-.1 3 .3l-.4.9c-1.6-.7-3.2-.1-5.2.6l-1 .4c.7 1.5 1.1 2.8 1.2 4 2.6-.3 4.6-1.2 6.3-2 1.8-.8 3.4-1.6 5.1-1.3l-.2 1c-1.3-.3-2.7.3-4.5 1.2q-.4.1-.7.3c.6 1.3.9 2.6 1.3 3.9 2.9-.1 3.8-1.2 4.7-2.4.5-.7 1-1.4 1.7-1.9.8-.5 1.8-.8 3.2-.8l-.1 1c-1.2-.1-1.9.2-2.5.6-.6.4-1 1-1.5 1.6q-.2.2-.4.5c1.3.9 2.1 2 2.8 3 1.3-.7 1.9-2.1 2.7-3.5.4-.7.9-1.5 1.5-2.1.6-.6 1.4-1 2.4-1.1v.9c-.8.1-1.3.4-1.8.9s-.9 1.1-1.3 1.9q-.2.4-.5.9c1.5.1 2.7.8 3.9 1.6.9-.9 1.2-2.2 1.6-3.5.2-.7.4-1.4.7-2 .4-.6.9-1.1 1.7-1.3l.3.9c-.6.1-.9.4-1.2.9-.2.4-.4 1-.6 1.7l-.4 1.4c1.2-.3 2.2-.3 3.1-.2q.3-.2.4-.8c.1-.4.2-1 .3-1.6.3-1.2.8-2.7 2.3-3.6l.5.9c-1.2.7-1.6 1.7-1.8 2.9q-.1.4-.2.9c1.5-.5 2.8-.7 3.9-.7.2-.7.4-1.5.6-2.5.3-1 .6-2.2 1.3-3l.7.6c-.5.6-.8 1.6-1.1 2.6q-.1.6-.2 1.1c1.6-1.4 3.3-1.8 4.9-1.8.2-.7 0-1.5-.1-2.4-.2-1-.4-2.3.5-3.6l.8.6c-.7 1-.6 1.8-.4 2.9l.2 1.2c1-1.1 2.1-1.7 3.1-2.1.4-.4.5-.8.6-1.3 0-.4-.1-.9-.2-1.5-.2-1.1-.5-2.5.3-4l.8.4c-.6 1.3-.4 2.3-.2 3.4q.1.5.2.9.6-.8 1.4-1.3c.6-.3 1.3-.5 2-.6v-.1q.1-.1.1-.2t-.1-.4c-.1-.4-.4-1-.8-1.6-.3-.6-.7-1.3-.8-2-.2-.7-.1-1.5.5-2.2l.7.6c-.4.5-.4.9-.3 1.4.1.5.4 1.1.7 1.7q.4.6.7 1.1.5-1 1.1-1.7c.7-.7 1.5-1 2.3-1.2 1.7-.3 3.3.1 4.8 0v.9c-1.6.2-3.2-.2-4.6 0-.7.2-1.3.4-1.8 1-.5.5-1 1.4-1.4 2.6 1.7-.1 3.2.2 4.2-.4l.5.8c-1.5.9-3.4.5-5 .5-.9.1-1.6.2-2.3.7-.7.4-1.4 1.1-1.9 2.2h1.1c1 0 1.9.1 2.6.2.7 0 1.2-.1 1.6-.4l.6.8c-.7.5-1.4.5-2.3.5-.8 0-1.6-.2-2.6-.2-1.8 0-3.7.4-5.5 2.9h.2c1.1.2 2.1.5 3 .7.9.1 1.6.1 2.1-.2l.5.8c-.8.5-1.8.4-2.7.3-1-.2-2-.5-3.1-.6-1.9-.3-3.9-.3-5.9 1.9 1 .1 1.9.4 2.7.6 1 .3 2 .6 2.8.7.8.1 1.5 0 2.3-.6l.5.8c-.9.7-1.9.8-2.9.7-1-.1-2-.4-3-.7-2.1-.6-4.5-1.1-7.9.3q-.1.2-.3.5c.9.2 1.6.6 2.2 1 .9.5 1.6 1.1 2.3 1.4.7.3 1.4.4 2.4.1l.2.9c-1.1.3-2.1.2-3-.2-.8-.3-1.6-.9-2.4-1.4-1.5-.9-3.1-1.8-6.2-.7q-.4.7-1 1.2l.6.4c1.7 1.4 3.4 2.5 5.8 2.2l.1.9c-2.7.4-4.7-1-6.5-2.3-1.7-1.3-3.2-2.5-5.1-2.3-.5.7-1.2 1.4-2 1.9q.1.2.3.5c.9 1.3 1.7 2.2 4.2 2.6l-.2 1c-2.6-.4-3.9-1.7-4.8-3.1-.9-1.4-1.7-2.9-3.4-4.2-.9.9-2.1 1.6-4.2 1.7v.1c.6 1.7 1.5 3.2 3.9 4.1l-.3.9c-2.7-1.1-3.8-2.8-4.5-4.7-.6-1.6-.9-3.3-1.6-4.8-1.4.6-3 1.1-5 1.4q.1.5.1.9c0 .8.1 1.6.2 2.2.2.6.5 1.1 1 1.5l-.6.7c-.7-.6-1.1-1.2-1.3-2-.2-.7-.2-1.5-.3-2.4-.1-1.6-.2-3.4-1.3-5.6-1.3.4-2.7.7-4.4.6.2.9.2 1.6.3 2.3.1 1.9.2 2.9 1.9 4.2l-.6.7c-1.9-1.4-2.1-2.9-2.3-4.8-.1-1.8-.3-4.1-1.7-7.5-1.5.1-3.1 0-4.9-.8q-.1.5-.1.9c-.3 2.3-.6 3.9.2 5.4l-.8.5c-1-1.8-.7-3.8-.4-6 .3-2.1.6-4.4-.3-7.3-1.5 0-3.4-.2-5.6-1.1l-.2 2.2c-.2 2.6-.2 4.8.9 6.4l-.8.5c-1.3-1.9-1.2-4.3-1.1-7 .2-2.5.6-5.4.2-8.1-1.5-.2-3.1-.6-4.8-1.8q-.4 1.4-.7 2.7c-.6 2.5-.8 4.5.4 6.7l-.8.5c-1.4-2.4-1.2-4.9-.5-7.4.5-2.4 1.4-4.9 1.6-7.9-1.6-.3-3.3-.9-4.9-2.2-.3 1.3-.7 2.2-1 3-.8 1.9-1.4 3-1 5.3l-.9.1c-.4-2.4.2-3.9 1-5.7.8-1.9 1.7-4.3 2.1-9-2.1-.5-4.3-1.3-6.2-2.8q-.1.1-.1.2c-1.1 2.5-1.8 5.1-1.2 8.7l-.9.2c-.6-3.9.1-6.7 1.2-9.3 1-2.4 2.3-4.5 3-7.1q-.1 0-.2-.1c-1.9-.7-3.6-1.9-4.7-4.5-.3 1.2-.9 2.3-1.4 3.4-1.1 2.2-2.2 4.5-1.9 7.5l-.9.1c-.3-3.3.9-5.8 1.9-8 1.1-2.3 2.1-4.3 2.2-6.9q.4 1.1.3 2.1z"/><path id="path1213" fill-rule="evenodd" class="s5" d="m654.9 156.4 1.8 2.1 2.9-.9.8-2.4.7.1-1.7 5.2-.1.1q-.1.1-.4.2-.3.2-.4.2-.1.1-.9.2h-.4q-.1 0-.2.1-.1 0-.3.1-.3 0-.6.2l-.3.2q-.1 0-.3.1l-.2.2q-.2.1-.4.1-.1.1-.5.4.3-1.4-.5-2.4l-4.9-5.9q.7-1 1.2-2.3.5-1.1.9-2.5h5.8zm-.7-.9q.1-.1.2-.4l.2-.6.1-.1v-.1q0-.1.1-.1v-.3q.1-.2.1-.3.2-.3.3-.6.1-.5.2-.8h-3.9zm-17 .9q.2.7.7 1.6l3 3.7 1.7-5.4q1.2-.1 2 0 .9.2 1.7.7l5.4 6.5q1 2.3-.1 5-1.2 2.7-3.1 5h-.2q-.1.1-.2.1l-.1.1h-.1l-.1-.4q2.9-4.1 2-6.9l-5.8-7h-1.6l-1 3 4.4 5.4 1.5.1-.9 3.1-3.3.3.2-1.4-5.6-6.9-1.5 1.1-.9-1.1 1.5-1.2-1.4-1.8q-1.3-.9-2.8-.7l.1-.2q.2 0 .3-.2h.1q.1 0 .1-.1l.9-.3q.6-.2 1-.1h.3q.2-2 1.4-3.3v-.1l.6-.5q-.3 1.2-.2 1.9zm-5.9 9.9 2.8-2.2.8 1-2.7 2.3 5.4 6.7 2-.2.5-1.4h.6l-1.2 4.4q-1.4 0-2.2.2-1.3.2-2.2.6 0-.7-.2-1.2-.2-.9-.4-1.1l-4.8-5.8-1.1.7-.1-.5.2-6.6zm-66.7 85.1h2.7l1.1-2.9-1.2-2.1.5-.5 2.9 4.6v.2q0 .1-.1.4-.1.4-.1.5l-.4.7q0 .1-.2.3v.1q-.1 0-.1.1-.1.1-.2.4l-.2.6-.1.3v.6q-.1.2-.1.4-.1.1-.1.6-.9-1.1-2.2-1.1h-7.6q-.4-1.2-1-2.5-.6-1-1.4-2.2l3.7-4.5zm-5.4 0h4.3q0-.2-.2-.4l-.4-.6v-.1q-.1 0-.1-.1v-.1h-.1q0-.1-.1-.2t-.1-.2q-.2-.3-.4-.7l-.4-.6zm221.1 2.9q.1.3.5.7.3.5.7 1l1.3 3.7h.6q1.7 0 3.3-1.7 1.5-1.5 2.2-3.6 0-.2.1-.3l3.1 5.6h2.6q.6-.2 1-1 .6-.9.6-1.7v-.4q0-.1-.1-.4-.1-.2-.2-.7v-.7q-.1 0-.1-.1v-.3q.7.4 1.1 1.2.1.2.3.7.2.5.3 1.1.1.2.1.3v1l.1.4q-.1.9-.4 1.6-.3.8-.8 1.5-.4.6-1 1-.6.5-1.2.7l3.3 6.1-5.5 4.9-2.6-4.9-2 2.9q-.1.2-.4.4l-.5.5q-.1.1-.2.1l-.3.3q-.2.1-.5.3l-4 1.9-.7.8.5.8-.5.5-2.4-3.5q0-.7.4-1.2.6-.6 1-.8.1-.1.3-.2.1-.1.3-.2l3-1.2q1.3-.5 2.5-2.1t1.2-3.6h-4.9l-1.2 3.6.6.7-.4.6-3-3.6v-.4q.8-1 1.3-2.7.5-2 .5-3.1v-1.4q-.1-1.1-.4-2.9-.3-1.3-.9-2.6l.1-.6q.7.3 1.3 1zm-219.6 5.1-1.7 2 1 1.3h7.1q.7-.7 1.1-1.7l-.9-1.2.5-.6 2.7 4q-1.5 1.7-2.2 3.9-.4-.6-.9-.8-.5-.4-1.1-.4H560l-.1.1q-.1 0-.6.3-.2.2-.3.5l.3.8-.4.3-2.2-2.9v-.1q.1-.1.1-.2t.1-.1v-.1q.2-.2.2-.3 0-.1.1-.2.1 0 .1-.1l.1-.1.1-.1.1-.1q-.1 0 .2-.1 0-.1.2-.2 0-.1.1-.1l.2-.1h.1q0-.1.1-.1h.1l.1-.1h.2l.1-.1.1-.1h.1l-2.4-3.3 2.1-2.2.2-.1zm228.8-1.6q-.2.2-.4.7-.2.3-.9 1.2h3.1l-1.4-2.6q-.2.3-.4.7zm-7.1 7h11.8l-.6-1h-11.1zm8.5 6.5 4.5-4-.8-1.5H788zm-220.3 1q0 .8-.4 1.4-.7.8-1.4.8-.1.1-.3.1h-8.8l-1.1.8-1.7-2.6 1.9-2.5 1 1h7.7q.4 0 .7-.2.3-.1.4-.6l-.5-.8.4-.5zm-16.1-1.8q.3.1.5.4.3.3.4.6.1.4.1.8t-.1.8q-.1.4-.4.6-.2.3-.5.5-.3.1-.6.1t-.6-.1q-.3-.2-.5-.5-.3-.2-.4-.6-.1-.4-.1-.8t.1-.8q.1-.3.4-.6.2-.3.5-.4.3-.2.6-.2t.6.2zm2.1 7.7q.1.1.2.1l.3.1h.3l4.2 3.8 1.6-3.3h5.3q.5 1.5.8 2.2.6 1.2 1 1.9 0 .1.1.1 0 .1.1.2v.1l.1.1q-.2.4-.5 1.2-.1.5-.3 1.2v.3q0 .1-.1.2v1.3q.1.5.4 1.6.1.3.4.9l-.3.5-4.8-4.1-1.5 3.1h-4.7q-.5-1.6-2-3.6l-.2-.2v-.1h-.1l-.1-.1 1.1-3.5q.1-.2.1-.3v-.2l.1-.3v-.7q-.1-.3-.2-.8-.2-.2-.2-.4-.1-.1-.6-.3h-.5q0 .1-.1.2l-.2.2q-.1.1-.1.2l-.1.1-.1.1h-.1v.1l-.1.1h-.2l-.3-.3q-.1-.1-.2-.3h-.1v-.4q.2-.5.4-.6.5-.3.7-.3l.1-.1zm235.8 5.2-1.8 2.5-1-1h-7.7q-.5 0-.8.1-.2.2-.4.7l.6.7-.5.6-2-3.1q0-.8.4-1.4.6-.8 1.4-.9h9l1.1-.8zM559.9 282v.2l.1.1v.7q0-.1-.2 1.9-.1.6-.5 1.8h3.1l.9-1.9-3.5-3.1q.1.1.1.3zm236.2.1q.3.1.5.4.2.3.4.7.1.3.1.7 0 .4-.1.8-.2.4-.4.7-.2.2-.5.4t-.6.2q-.3 0-.6-.2l-.6-.4q-.2-.3-.3-.7-.1-.4-.1-.8t.1-.7q.1-.4.3-.7.3-.3.6-.4.3-.2.6-.2t.6.2zm-232.3 2.1 3.8 3.3q.1-.1.1-.2v-.2q-.1-.5-.1-.6v-1.4q0-.1.1-.3 0-.2.1-.7 0-.2.1-.7.3-.8.6-1.4h-3.6zm215.3 8.9 2-3.4h9.6q.4 3.1 1.9 5.2l-2 5.3v.3l1.4 2.5h-2.9v-2.8h-7.5l-.1.1q-.4.2-1.1.6l-2.1 1.8h-.1l-.1.1h-.5v-.1h-.2l-.2-.1-.1-.1q-.1 0-.2-.1l-.1-.2q-.1-.1-.1-.2l-.1-.1-1.6-3.4.1-.2q.1-.3.1-.4.1-.2.1-.6.1-.2.2-.6v-.6q.2-1.4.2-1.9v-.3q0-.1-.1-1l-.1-.7q0-.2-.1-.4l-.1-.6q0-.1-.1-.3 0-.1-.1-.6v-.4l-.1-.2v-.2h.6zm-214.5 5.5h2.7l1.1-2.8-1.3-2.2.5-.5 2.9 4.7v.1q0 .2-.1.5v.4q-.1.1-.5.8 0 .1-.1.2l-.1.1q0 .1-.1.2 0 .1-.1.4-.2.2-.2.6l-.1.3v.3q-.1.1-.1.3 0 .2-.1.3 0 .2-.1.7-.9-1.2-2.1-1.2h-7.7q-.3-1.2-1-2.4-.5-1-1.3-2.2h-.1l3.7-4.5zm212.9-5.5q.1.4.1.8v1q0 2.6-1 5.5l.3.1q1-1.3 2.1-2.1 1.2-1 2.4-1.6l-4-4.1zm3.5 1.8q.8 1.4 2 1.9h6.3l1.1-3.9h-8.3zm-221.8 3.7h4.4q-.1-.2-.3-.5l-.3-.5v-.1l-.1-.1q0-.1-.1-.1v-.1l-.1-.2-.2-.2q-.1-.3-.3-.6-.3-.4-.5-.6zm232.9 6.1v1.9h2.2q1.6-.4 2.4-1.7l.1.3q-.1.1-.1.3v.2q-.1.3-.4.9-.2.6-.5.8v.1h-.1l-.1.2q1.4 1.4 1.7 3.2v.8q-.7-1-1.3-1.4-.6-.3-1.7-.5h-4.8l3.1 4.7q-.6 1-1.2 1.6-.8.6-1.6.8h-8.5q-2.5-.6-3.8-3.2-1.3-2.6-1.8-5.6v-.2l.1-.2v-.2l.5.2q1.2 4.8 4 6h9.1l1-1.3-1.7-2.7h-7l-1 1.1-1.8-2.7 1.8-2.7 1 1.1h8.9l.1-1.8zm-225.6 1.5q.2 0 .7.1h.7q.8 2.7 2.8 5.7-.1.5-.5 2.8l-.3 1.5q-.2 1.4-.2 2.2-.1 1.1-.1 2.2v1.1q0 .6.1 1.8.1.6.3 1.6.5 2.5 1.6 4.9v.6l-.2-.1h-.1v-.1h-.1v-.1l-3.7-7.1q-.6-1.1-1.7-2-.9-.7-2.1-.9h-.3q0 .1-.2.1h-.5l-.9.1H560q-.6-.1-1.9-.2-.2-.1-.8-.3-1-.2-1.7-.5l-.1.2q.1 0 .1.1v.2q.1.1.1.2.9 1.6 2.1 2h.6q.2.1.5.1h.8l.5.1h2.6q.4-.1.8-.1 1.8.2 3.2 1.8 1.3 1.6 2.4 3.6l.7 1.3.6 1.2v.4l-.5-.5q-.1-.2-.5-.6-1.1-1.3-1.5-1.6-.9-.7-1.8-.7h-.3q-.1.1-.2.1h-.3q-.1.1-.2.1 0 .1-.1.1-.6.3-.9.8-.4.6-.4 1.2l-.1.5q.2.2.4.7.1.3.4.7 0 .1.1.1v.1q-1.2 0-2-1.2-.6-1.2-.6-2.8v-1.1q-4.2-.1-6.3-5.2l-.1 6.3q0 1.2-1 2.3-1 .9-1.9 1.1h-.5q-.1 0-.3-.1h-.2q-.1-.1-.2-.1v-.1h-.2q1.3-.7 1.5-2.3l-.4-11.6q.1-1.3.3-3.7.2-1.7 1.2-3.1 1-1.3 2.3-2.1 1.2-.6 2.6-1 .1-.1.4-.2.1 0 .4-.1.3-.1.9-.2.2-.1 1.4-.1l1.4-.1h.9q.3 0 .5-.1zm0 4h-.4q-.3.1-.5.1l-.4.1-.6 1.2q-.3.6-.3 1.4v.7l-.1.2.1.5q.1.6.5 1.6.1.4.5 1h1.6q.3-3 .7-5.1.1-.6.4-1.7h-1.5zm-5.6.3q.1.1.1.2.1.2.2.2 0 .2.1.4.1.3.2.4v.2q.1.1.1.2.2.8.2 1.6 0 1.6-.8 3.2h3.4q-.4-1-.5-1.6-.1-.3-.1-.8 0-.1-.1-.4v-.4q0-.3.1-.9 0-.2.1-.8 0-.3.2-.9.1-.1.2-.4v-.2q.1-.1.1-.2zm-1.6.2h-.2q-1 .3-1.8 1.2-.9.9-1.3 1.9v.2q-.1 0-.1.2-.1.1-.1.5l-.1.2v1.5l-.1.6h4.3q.6-.2.9-.8.2-.4.4-1.3.1-.5.1-.6v-.6l-.1-.1v-.4q-.1-.8-.3-1.2-.2-.5-.6-1.2-.1 0-.2-.1h-.3l-.1-.1h-.3q0 .1-.1.1zm-3.8 8q.2.1.5.3h.1q.2.1.3.1.2.1.8.3h.1l.2.1h.7q.6.1.8.1h.3q.2 0 .6.1h.5q.7.1 1 .1h.4q.7 0 .9-.1h.4q.3-.1.5-.1h.4q1.3.2 2.7 1.3V319q.1-.4.1-.6v-.6h-11.3zm235.6 1.7 4.9 4.4h-4.1v3.5h-1.3v-3.6H782l-1.1 1.6.7 1.3-.4.5-2.6-3.7q.9-1.2 1.3-1.9.6-1.1.9-2.1.5.5 1 .7.9.3 1.1.3h7.6l.1-1.2z"/></g><g id="g1507"><path id="rect1279" class="s4" d="M655.2 433H694c3.9 0 7 5 7 11.1 0 6.2-3.1 11.2-7 11.2h-38.9c-3.9 0-7-5-7-11.2 0-6.1 3.1-11.1 7-11.1h.1z"/><path id="ellipse1294" fill-rule="evenodd" class="s5" d="M688.3 432.5v1q-.5 0-1 .1c-1.4.3-2.6 1.4-3.6 2.9-1.2 1.9-2 4.6-2 7.6q0 1.1.2 2.1.6.9 1.3 1.7c1.8 2 3.9 3.9 6 5.2l-.6-.8c-1.3-2.2-2.1-5-2.1-8.2 0-3.1.8-6 2.1-8.1 1.3-2.1 3.2-3.5 5.4-3.5v1c-1.8 0-3.4 1.1-4.6 3-1.2 1.9-2 4.6-2 7.6s.8 5.7 2 7.7c.9 1.3 1.9 2.3 3.1 2.7q.7.2 1.4.2v.1h.1v.9q-.9 0-1.7-.3c-3.6-.8-7-3.7-9.8-6.9-2.8-3.2-5-6.8-5.8-9.3-1.3 1.2-2.6 2.6-3.7 4l-.1.1c.3 1.5 1.6 4.3 3.5 6.7 2 2.4 4.5 4.5 7.2 4.8l-.1 1c-3.1-.4-5.8-2.7-7.8-5.2-1.8-2.2-3-4.5-3.5-6.3-1.4 1.9-2.6 3.8-3.4 5.5 1.6 2.7 3.7 4.6 6.5 4.9l-.1 1c-3-.4-5.2-2.3-6.9-4.9-.9 2-1.3 3.6-1.3 4.5v.4h-1.2q-.2 0-.3-.1c-2.8-.5-4.3-3.2-4.6-3.6v-.2c-1.2-2-1.9-4.7-1.9-7.7 0-3.1.8-6 2.1-8.1 1.4-2.1 3.3-3.5 5.4-3.5v1c-1.7 0-3.4 1.1-4.6 3-1.2 1.9-2 4.6-2 7.6 0 2.3.5 4.4 1.2 6.1.7-2.8 2.6-6.8 5.3-10.3 3.2-4.1 7.6-7.6 12.6-7.4zm-27.4 1c-1.8 0-3.4 1.1-4.6 3-1.2 1.9-2 4.6-2 7.6s.8 5.7 2 7.7c1.2 1.9 2.8 3 4.6 3v.9c-2.2 0-4.1-1.3-5.4-3.4-1.4-2.2-2.2-5-2.2-8.2 0-3.1.8-6 2.2-8.1 1.3-2.1 3.2-3.5 5.4-3.5zm6.3 7.1c-3.1 3.9-5 8.6-5.3 11.1.3.5 1.9 2.8 4.4 3 0-1.2.4-2.7 1.4-4.7 1.1-2.3 2.6-4.9 4.6-7.3 1.3-1.6 2.7-3.1 4.2-4.5 2.3-2 4.9-3.7 7.7-4.7H679c-4.6-.1-8.8 3.1-11.8 7.1zm10.4-2.1c.4 1.6 1.6 3.9 3.2 6.3v-.6c0-3.2.8-6 2.1-8.1q.6-.9 1.3-1.6c-2.4.9-4.6 2.3-6.6 4z"/></g></g><g id="g1317"><g id="g1331"><g id="Clip-Path: g120" clip-path="url(#cp2)"><g id="g120"><g id="g126"><g id="g189"><g id="g203"><g id="Clip-Path: g205" clip-path="url(#cp4)"><g id="g205"><g id="g211"><text id="tspan213" style="transform:matrix(.632,0,0,.632,757.929,157.271)">
															<tspan x="0" y="0" class="t6">DESIRE
</tspan>
														</text></g></g></g></g></g><g id="g249"><g id="g247"><g id="Clip-Path: g245" clip-path="url(#cp6)"><g id="g245"><g id="g243"><text id="tspan239" style="transform:matrix(.632,0,0,.632,936.221,158.848)">
															<tspan x="0" y="0" class="t6">DESIRE
</tspan>
														</text></g></g></g></g></g></g></g></g></g></g><g id="g2539"><path id="path819" fill-rule="evenodd" d="M771.1 172.3v129c0 55-49.5 105.7-96.5 115.2-47.1-9.5-96.6-60.2-96.6-115.2v-129z" style="fill:#0064c0;stroke:#000;stroke-width:.9"/><g id="g1841"><path id="path1529" fill-rule="evenodd" class="s8" d="m655.7 204.3-10.5-.2-12.4-16.8-11.2 16.3-8.4-.2-.8.2-1.3.3 21.7-19.1zm-42.2-1.5 7.8.1 11.5-16.8 12.8 17.3 8.1.1-20.9-17.8z"/><path id="path1468" class="s9" d="M652.4 203.7c1.9 9.8 11.8 25.2 23.1 38.6-13-1.5-28.1-6.4-41.7-5L613.1 213c1-3.2 1.4-6.6.5-9.8z"/><path id="path1468-2" class="s10" d="m642.2 231.8-1.7 5.2-4.7.1-1.1.1-1.1-2-1.1-20.4s-.8-3.4-1.9-4.7c-.8-1.2-1.9-2.8-3.3-2.7-.2.1-.5.7-.5.7-.3 1 2.6 4.8 5.3 7.2v1.6c-2.8-2.3-5.6-5.4-8.4-9.9 0 0-1.5-.7-1.9-.2-.8 1 1 2.4 1.7 3.6.9 1.7 2 3.4 3.3 4.9 1.3 1.5 4.6 3.9 4.6 3.9v1.9s-4.2-3.4-6-5.3c-1.5-1.5-2.8-3.2-4-5-.8-1.1-.8-3.1-2.1-3.6-.2-.1-.5 0-.7.2-.5.7-.2 1.8 0 2.7.3 1.3 1.4 2.4 1.8 3.7.3 1 .2 2 .5 3 .2.5.6.9.7 1.4.1.4.3 1.1 0 1-.9-.1-2.3-2.3-2.9-3.8-.3-.8 0-1.7-.2-2.4-.5-1.3-1.5-2.4-2.2-3.6-.3-.5-1-3.3-.9-1.4.1 1.9-.1 2.8-.5 4.7 5.9 6.9 11.7 13.4 17.7 21.4l1.2 3.2-20.7-24.3c1-3.2 1.4-6.6.5-9.8l38.8.5c1.9 9.8 11.8 25.2 23.1 38.6-2.4-.3-4.9-.7-7.5-1.1l-7-11.7c-1.1-1-2-1.1-3.6-4.4-7.2 1.5-12 2.9-17.9 4.4l-.9-.6c3.7-5.2 8.5-11.7 9.6-15.7.5-1.7-2.6 3.1-4.4 4.2-3.1 1.9-6.2 2.6-4.9 1.2.5-.6 2.4-1.3 4.2-2.8 1.3-1.1 3.7-6 2.6-4.8 0 0-2.5 2.2-3.9 3.1-1.9 1.3-4.8 2-3.8 1.2.3-.3 2.2-1.6 3.8-3.2 2-2.2 5-5.2 3.7-5-1.2.1.2 0-2.8.3s-5.5 1.7-6.4 6.4l-.4 18.2c2.5.8 4.3 0 6.3-.2z"/><path id="path1468-3" class="s11" d="M652.4 203.7c1.9 9.8 11.8 25.2 23.1 38.6-13-1.5-28.1-6.4-41.7-5L613.1 213c1-3.2 1.4-6.6.5-9.8z"/><path id="path1466" class="s12" d="M653.3 202.6c2 .3 1.4 2.1 0 2.2l-40.4-.6c-1.5-.4-1-2 0-2.1z"/><path id="path1415" class="s12" d="M636.7 181.8c.1 1.6-.9 3-2.3 3.6l.2 52.8-3.6-4.1.7-48.7c-1.4-.5-2.4-1.9-2.4-3.4-.1-2.1 1.5-3.8 3.6-3.8 2.1-.1 3.8 1.5 3.8 3.6z"/><path id="path1411" fill-rule="evenodd" class="s8" d="m716.6 199.8-20.1-.1-10.3-15.9-10.5 15.8-.6-.4 11.1-16.6-32 16.5-.3-.6 32.4-16.7zm-19.7-.8 17 .1-27.6-16.4z"/><path id="path1288" class="s13" d="M685.8 196.1s-2.1-1.8-3.3-2c-1.2-.3-2 .4-3.8-.1-1.6-.5-2.9-1.7-4.5-1.8-1.9 0-3.3 1.4-5.1 1.7-1.1.1-2.3.1-3.4-.3-2.4-.8-4.1-3.3-6.5-4-1.1-.3-2.4-.2-3.5 0-1 .2-1.8 1.2-2.8 1.2-1.5 0-2.5-1.8-4-2-1.2-.2-2.3.6-3.5.6-1.5.1-4.2-.5-5.4-1.3-2.2-1.4-2.9-2.7-2.9-2.7s2 .4 3 .3c2.3-.4 3.2-2.4 5.5-2.7.8-.1 2 .3 2.8.2 2.1-.1 3.8-2.1 5.8-2.4 1.3-.2 2.6-.1 3.8.2 1.9.3 3.6 1.4 5.4 1.7.7.1 1.4.1 2.1 0 1.7-.4 3-2 4.7-2.4 1.7-.4 3.6-.4 5.3-.1 1.5.4 2.5 2.3 4 2.3.9 0 2-1 2.9-1.1 1.4-.1 3.7 1.4 3.7 1.4z"/><path id="path1290" class="s14" d="m674.3 180 .2 4.9q.7 0 1.5.2c2.2.6 3.5 1.8 5.6 2.3.7.2 1.9.2 2.9.2q1.1 0 1.5-.1l-.1 1.9q-.5.1-1.3.1c-1.1 0-2.4 0-3.4-.3-2.6-.6-4-1.8-5.7-2.2q-.5-.2-1-.2l.3 5.5q-.3 0-.6-.1-.7 0-1.3.3l-.3-5.8q-.3.1-.6.1c-2.8.3-4.9 1.2-8 1.1-2.9 0-5.6-1.5-7.9-1.5-1.7 0-3.3.8-5.4.8-1.7 0-2.9-.5-4-.5-.6 0-1.3.3-2.2.6-.8.4-1.8.6-2.9.6-1 0-2-.4-2.9-.8-1.2-1-1.6-1.7-1.6-1.7s.3 0 .6.1c1.5.5 3.4.8 4.3.8.6.1 1.2 0 2-.4.8-.3 1.5-.9 2.6-.9 1.7 0 3 .4 4.1.4 1.6 0 3.2-.7 5.4-.7 2.9-.1 5.6 1.3 8 1.3 2.7.1 4.7-.7 7.7-1.1q.4 0 .8-.1l-.2-4.8h1.9z"/><path id="path1304" class="s9" d="M728.1 229.5c-7.3 19.4.3 39.5 7.3 59.6-16.9-4-39.2-10.2-62-5.3l-36.2-42.4c1.7-3 3.2-7.2 3.7-12.5z"/><path id="path1342" fill-rule="evenodd" class="s10" d="m673.4 283.8-36.2-42.4c1.7-3 3.2-7.2 3.7-12.5l87.2.6c-7.3 19.4.3 39.5 7.3 59.6q-3.2-.7-6.6-1.6c-8.8-2.1-18.8-4.3-29.3-5.2l-10.1-.3-5.2.2zm8.6-3.9s.5-11.6.3-23c-.1-6.5.4-14.8-.7-19.6-.4-1.6-2.5-2.8-5.3-3-2.8-.1 4.3 9.9 2.2 10.2-2.1.2-4.3-8.9-6.9-9.8-1-.3-1.7-.4-2.1.5-1.1 2.4 5.3 7.1 3.3 7.3-2.9.1-5.8-7-7.8-8.1-1.2-.5-3.7-.9-4.4.1-1.3 1.8 6.5 5.8 5.5 7.4-.3.4-.5.1-.9 0-3.4-1.3-5.5-5.1-8.9-6.3-.6-.2-1.6-.6-1.9 0-1.2 2.6 7.4 7.2 5.3 7.7-.8.2-2.5-1.7-4-3-1.3-1.1-2.9-3.4-3.7-3.9-.6-.3-1.7-.9-1.7-.1-.3 6.2 16.2 17.8 13.9 17.6-3.3-.4-7.7-3.9-11.2-8.1-2.5-3.2-4.5-6.9-5.5-9.3-.2-.6-.9-.8-1.3-.2-3 4.2 8.6 13.6 5.4 13.2-1.4-.2-5-3.8-6.2-6.9-1.1-2.7-1.9-5.2-2.6-4.7-1.6.2 1.3 4.2-.2 4.7-1.2.4-1.1-3.3-2.4-3-.5.1-.3 1.5-.3 1.5l34.6 40.3c2.7-.6 3.2-1 7.5-1.5zm16.7.3c-2.3-6.3-3.5-14.5.6-25.8l-7.3 4.9s-.5-1.6-.3-2.4c.2-1.4 1.1-2.7 2-3.9 4.2-5.2 15.6-12.7 15.6-12.7s1.1-1.5.8-1.5c-3.2 0-7.9 6-11.9 6-4 .1 11.9-8.9 8.1-8.5-3 .3-5 3.5-8.3 3.8-2.1.2 6.6-4.9 4.1-4.8-2.6.1-5.4.8-7.5 2.4-3.5 2.6-4.6 7.4-4.6 7.4l-.2 34.4z"/><path id="path1304-9" d="M728.1 229.5c-7.3 19.4.3 39.5 7.3 59.6-16.9-4-39.2-10.2-62-5.3l-36.2-42.4c1.7-3 3.2-7.2 3.7-12.5z" style="fill:none;stroke:#4f4f4f;stroke-width:.5"/><path id="path1355" fill-rule="evenodd" class="s8" d="m719.7 290.4-.6.3-30.4-56.7 26.4 59.6-6.1.2-23-63.4-17.8 47.3-.5-.6 17.4-46.2-19.6 43.7-.5-.6 20.1-44.9-.1.1-21.6 42.9-.5-.6 21.6-43 .9-.2.5-1zm-10.2 2.6 4.6-.1-25.4-57.2z"/><path id="path1302" class="s9" d="M638.8 229.4c5.4-6.8 10.7-11.6 16-30.4l59.9.6c1 13.1 9.8 20.8 15.7 30.4-32.4-17.8-62.5-14.4-91.6-.6z"/><path id="path1252" class="s10" d="M642 227.8c-1.4.6-1.8 1-3.2 1.6 5.4-6.8 10.7-11.6 16-30.4l59.9.6c1 13.1 9.8 20.8 15.7 30.4q-1.1-.5-2.1-1.1c-11.1-6.3-28-10.2-40-11.7 12.3.1 25.7 1.6 37.6 8.9-7.3-8.9-12.4-15.8-14.3-21-.1-.4-.7-1.8-.9-2.2-.1-.4-.5.2-.7.6-1 1.8 4.2 9.9 3.3 9.8-.4-.1-.7-.2-.9-.5-1.3-1.4-2.8-8.5-4.4-9.5-.6-.3-1.3-.4-1.6.1-.6.7 3 6.9 2.4 7.6-.2.2-.6.1-.8 0-.9-.6-2.7-7.2-3.6-7.8-.6-.4-1-.6-1.4 0-.8 1.2 1.3 3.3.8 3.9-.2.2-.8.1-1.1 0-1.3-.9-1.2-3.2-2.6-4-.5-.3-.7-.5-1.1 0-.9 1.2 1.5 3 .9 3.8-.2.2-.4.2-.6 0-1.5-.9-1.8-3.1-3.3-3.9-.6-.3-1.3 0-1.3 0-.1 0-3.6 3.7-4.7 7.2-.8 2.7-.9 8.3-.9 8.3l-3.2.1-.9-6.4c-2.9-3.3-4.1-7.1-4.5-9.5-.2-1.2-1.9-.9-2.9 0-.6.7-3.7 5-5.7 5.1-2 .1 1-4.2-.1-4.9-1.3-.9-2.6-1-3.9 0-1.1.7-3.7 7.7-5.2 7.4-.8-.2 2.6-5.6 2-6.5-1.1-1.6-1.3-.8-2.4 0-.9.6-5.6 12.3-6 10.3-.7-2.6 3.6-8.8 3.1-9.6-1-1.5-2.2-1.1-3-.3-.4.4-.4 1.2-.6 1.7-2.5 7.6-6.4 13.5-10.9 18.7 12.7-5.2 26.1-8.4 41.2-7.4-21.3 1.7-32 5.9-44.1 10.6z"/><path id="path1250" class="s11" d="M638.8 229.4c5.4-6.8 10.7-11.6 16-30.4l59.9.6c1 13.1 9.8 20.8 15.7 30.4-32.4-17.8-62.5-14.4-91.6-.6z"/><path id="path1238" class="s12" d="M715.4 198.6c1.9.3 1.3 2-.1 2.1l-61.2-.6c-1.5-.3-1-2 0-2.1zm16.4 30.1-.1 2.4-92.3-.7c-1.5 0-2.1-2.3 0-2.4z"/><path id="path1029" class="s12" d="M689.8 178c0 1.6-.9 3-2.4 3.6l.5 119.3-4.7-5.6 1.6-113.7c-1.5-.5-2.4-1.9-2.5-3.4 0-2 1.6-3.8 3.7-3.8 2-.1 3.7 1.5 3.8 3.6z"/><path id="path1248" class="s12" d="M678.2 218.5c3.6-1.5 10.6-1.6 15.6-.3l-2.4 8.9c-3.2.5-6.9.6-10.8-.1z"/><path id="path1390" class="s8" d="m769.6 269.9-.5.5c-6.7-6.6-13.2-13.1-18.6-19.7l.6-.4c5.4 6.5 11.8 13 18.5 19.6z"/><path id="path1322" fill-rule="evenodd" class="s8" d="m758.7 206.4-22.8 1.2-.3 16.6-13.2 9.3-12.7-3.1-16 25.9-.7-.4 16.3-26.2v-.1h.1l13.7-22 35.6-1.9zm-35.3 1.9-13.3 21.5 12.1 2.9 12.6-8.9.3-16.2z"/><path id="path1071" class="s9" d="M760.9 204.4c-19.5 43.7-6.5 59.7 4.3 67.6l-2.5 2.2c-24.9-3-40.7 4.5-52.6 16.6-10.5-5.6-17.3-19.5-7-42.3z"/><path id="path1071-9" class="s10" d="m725.3 241.3-.5 38.4-7.8 4.7 2-39.8c-3.8 2.9-8.7 6.7-8.7 6.7-3.7 6.7-9.5 19.4.9 36l1 1.5q-1 1-2.1 2c-10.5-5.6-17.3-19.5-7-42.3l57.8-44.1-4.5 9c-1 2-2.2 3.9-3.1 5.9-1.5 3.3-4.2 10.1-4.2 10.1s-.9 2.2-1.3 1.7c-1.4-1.4 1-4.8 1.7-6.7 1-2.8 2.7-7.1 2.9-8.5.1-1.1-1.7 1.5-2.3 2.5-2.4 3.4-3.1 7.8-5.5 11.2-.9 1.1-2.3 5.2-3.1 4-.5-.8 1.3-5.1 2.1-7.1.7-1.7 1.9-4 2.3-5.1.5-1.4-3 1-4.2 1.9-1.1.9-2 2.1-2.7 3.4-.7 1.5-.7 3.3-1.5 4.8-1.4 3-4.7 8.7-4.9 6.2-.2-1.3 1.5-4 1.9-5.5.2-.8.9-2 .2-2.4-.4-.3-.5-.2-1.1.6-1.3 1.5-3.4 4.8-4.8 6.2-1.2 1.2-1.4 1.4-2.8 2.5zm24 18.2-1.6 12.4s2.3-.1 3.5-.1c1.8.1 5.8.7 5.8.7s-3.2-1.5-4.2-2.6c-.9-.9-3.2-4-2.1-3.3.9.6 1.8 1.8 2.9 2.4 1.2.9 4.8 2 4.8 2s-3.7-2.6-4.8-4.2c-1-1.3-3.6-5.4-2.4-4.4.8.6 1.9 2.3 2.9 3.2 2 1.7 6.2 4.6 6.2 4.6-4.6-5-8.3-9.8-9.5-16.6l.1-2.1.8 1c2 5.9 4.7 12.6 12.8 19.1l-3.6 2.4c-4.8-.4-10.6-.2-17.5.1l3.6-14.5z"/><path id="path1071-3" class="s11" d="M760.9 204.4c-19.5 43.7-6.5 59.7 4.3 67.6l-2.5 2.2c-24.9-3-40.7 4.5-52.6 16.6-10.5-5.6-17.3-19.5-7-42.3z"/><path id="path1073" class="s13" d="M711.7 289.1q-.8.9-1.7 1.7c-10.5-5.6-17.3-19.5-7-42.3l5.5-4.2c-4.3 11.4-9.5 31.8 3.2 44.8z"/><path id="path1082" class="s8" d="m742.2 281.3-.6.2-18.7-50.3-.1.6-.2.9.2.4 16.7 49.1-.5.1-16.6-48.7-.1.7 14.5 48.7-.6.2-14.2-47.7-11 55.5-.6-.1 10.4-52-12.6 52.1-.6-.1 13.2-54.6-15.2 54.6-.6-.1 16.5-59.1.2.8.2-.9.3.3v-.2l.4-2.7z"/><path id="path1067" class="s12" d="M763.2 202.9c.5.7.2 2-.7 2.6l-70 52.4c-1 .6-2.2-.5-1.3-1.5l69-53.9c1.3-.7 2.7-.1 3 .4z"/><path id="path1022" class="s12" d="M724.6 201q.5.3 1 .7.5.5.7 1.1.2.6.2 1.2 0 .5-.1 1-.2.5-.4.9-.3.4-.7.7-.4.3-.9.4l-2.2 82-4.5-.1 4.4-81.9q-.4-.2-.8-.5t-.6-.7q-.3-.4-.5-.8-.1-.5-.1-1 0-.6.3-1.2.2-.6.7-1.1.4-.4 1-.7.6-.2 1.2-.2.7 0 1.3.2z"/><path id="path936" class="s13" d="M728.4 269.3c2.2-6.3.5-15.1 5.4-19.1 1.2-.9 1.7-.1 2.4-.5 1.2-.8 2-2.3 3.3-2.9 1.1-.6 2.5-.4 3.7-.9 1-.4 1.2-1.5 2.2-1.9.3-.1.7.1 1 0 .8-.3 1.2-1.2 2-1.7 1.2-.8 4-1.6 4-1.6l-3.7 19.6s-2.3.2-3.3.7c-.8.3-1.6 1.4-2.5 1.6-.7.1-1.7.4-2.2-.2-.7-.8-1.6-.7-2.3-.4-1.9.6-2.4 2.9-3.8 3.6-.5.2-1.2 0-1.7.2-.5.3-.6 1.6-1.2 1.5-1.4-.3-2 1.2-3.3 2z"/><path id="path938" class="s14" d="M739.2 252.7c2.3-.9 4.9-1 6.7-1.6 2.7-.9 4.4-3.8 4.4-3.8l.7.8-.5 2.6c-.9.9-2.2 1.9-4 2.4-2.6.9-5.6.8-7.5 1.7-.1 2.2 0 4.4-.4 7.1q-.1 0-.2.1c-.9.2-1.5.9-2 1.5.6-2.8.6-5.2.6-7.5-1.2.7-2.5 1.5-3.9 2.2-.9.5-1.9.9-2.7 1.2q-.2 0-.4.1.2-1.1.3-2.1c.6-.3 1.3-.6 2-.9 1.7-.9 3.5-2 4.9-2.8.2-2 .6-4.2 1.7-6.6q.3-.2.6-.3c.6-.3 1.3-.4 2-.5-1.4 2.5-2 4.5-2.3 6.4z"/><path id="path930" class="s12" d="M753.7 237.3q.3.1.6.4.3.3.4.6.1.4.1.7 0 .4-.1.6l-.2.6q-.2.2-.5.4-.2.2-.5.3l-6.5 40.5-3.3-.4 8-40.5-.3-.3-.2-.4q-.1-.1-.1-.4-.1-.2-.1-.4 0-.3.2-.7.1-.3.4-.6.3-.3.6-.4.4-.2.7-.2.4 0 .8.2z"/><path id="path934" class="s12" d="M740 333.1c-6 2.8-16 3.7-23.4 1.6l-29-34c4.2-1 6.7-4.8 7.4-10.4 11.2.6 26.3-3.4 39.6-8.2z"/><path id="path162" class="s12" d="M744.9 279.6c.9 0 2.6.7 2.6.7s1.6-.7 2.5-.7c2.8 0 6.6 3 9.9 3 0 0-2.5 6.6-2.9 11.9-.7 11.6 4.7 14 3.3 22.7-1.9 12.2-13.3 16.5-23 15.9-7.6-.5-15.6-5.7-15.8-15.7-.2-9.4 9.6-15.8 12-24.9 1.2-4.5 1.1-10.4 1.1-10.4 6.2-.9 7.6-2.7 10.3-2.5z"/><path id="path265" fill-rule="evenodd" class="s16" d="M733.9 302.8q.4.3.5.6.2.4.3.8v.8q-.1.4-.3.7-.3.3-.7.5-.4.2-1.1.3-.2 0-.5.1h-.5q-.3.1-.6.1-.4.1-.6.1h-.1v-.2h.1q.3-.1.4-.2.1-.2 0-.4l-.3-2.5q0-.3-.2-.3-.1-.1-.4-.1l-.1-.1v-.2q.2 0 .6-.1h.6q.2-.1.6-.1.3-.1.5-.1.6-.1 1 0 .5.1.8.3zm-.4 1.6q-.1-.8-.4-1.3-.3-.4-1-.3h-.2q-.1 0-.2.1t-.1.3l.4 2.8q0 .2.1.2.1.1.3.1l.2-.1q.6-.1.8-.5.2-.5.1-1.3z"/><path id="path267" class="s16" d="M739 304.7v.7q0 .4-.1.7h-1.7q-.4 0-1 .1h-.9l-.1-.1v-.1h.1q.3-.1.4-.2.1-.1.1-.4l-.1-2.5q0-.3-.1-.4-.1-.1-.5-.1v-.2q.3 0 .9-.1h1.8q.6-.1.9-.1 0 .3.1.6v.8h-.2q-.1-.4-.4-.7-.2-.3-.7-.3h-.3q-.1 0-.3.1-.1 0-.1.3l.1 1.2h.2q.3-.1.4-.2.2-.2.2-.5h.1q0-.1.1-.1v.1h.1v1.6h-.2v-.1q-.1-.3-.2-.4-.2-.2-.5-.2h-.2l.1 1.3q0 .2.1.3h.5q.4 0 .8-.3.3-.4.4-.8v-.1h.2v.1z"/><path id="path269" class="s16" d="M742 303.6q.3.2.6.5t.3.7q0 .6-.4 1-.5.3-1.2.3-.4 0-.7-.1-.2-.2-.6-.2v-1.2l.1-.1q.1 0 .1.1.1.5.5.9.3.3.6.3.4 0 .5-.1.2-.2.2-.4 0-.4-.3-.6l-.6-.4q-.4-.2-.7-.5-.3-.3-.3-.7 0-.5.5-.9.4-.4 1.1-.3h.5q.2.1.5.2v.5q0 .3.1.5-.1 0-.1.1h-.2v-.1q-.1-.4-.3-.7-.2-.3-.5-.3t-.5.2q-.1.1-.1.3 0 .3.3.5.2.3.6.5z"/><path id="path271" class="s16" d="m746.1 305.9-.1.1h-2.2l-.1-.1v-.1l.1-.1q.3 0 .4-.1.1-.1.1-.3l.1-2.6q0-.2-.1-.3-.1-.2-.5-.2v-.3q.3.1.6.1h1.7v.2q-.3.1-.5.2-.1.1-.1.3v2.6q0 .2.1.3.1.1.4.2h.1v.1z"/><path id="path273" fill-rule="evenodd" class="s16" d="M751.3 306.3v.1l-.1.1q-.1-.1-.4-.1-.3 0-.4-.1h-.7l-.5-1.6-.2-.2q-.1-.1-.3-.1l-.2 1q0 .3.1.4.1.1.4.2v.2q-.3 0-.6-.1h-.5q-.3-.1-.5-.1h-.6v-.3q.4 0 .5-.1.1-.1.1-.3l.3-2.5q0-.3-.1-.4-.1-.1-.4-.2v-.2h.6q.3.1.6.1h.4q.2.1.5.1.9.1 1.3.4.4.4.4.8-.1.4-.3.6-.2.2-.6.3l.6 1.4q.1.3.2.4.1.1.4.1v.1zm-1.5-2.9q0-.5-.1-.7-.2-.2-.5-.2-.2-.1-.3 0 0 .1-.1.3l-.1 1.3h.2q.4.1.6-.1.2-.2.3-.6z"/><path id="path275" class="s16" d="m755.7 305.8-.2.6q-.1.4-.2.7-.3-.1-.9-.2-.5-.1-.8-.1-.4-.1-1-.2t-.9-.1v-.2q0-.1.1-.1h.4q.1-.1.2-.4l.4-2.5q.1-.2 0-.3-.1-.2-.4-.3h-.1v-.1l.1-.1q.3 0 .9.2.5.1.9.1.3.1.8.2.6 0 1 .1-.1.2-.1.6-.1.4-.1.7h-.3q0-.4-.2-.8-.2-.3-.6-.4l-.4-.1q-.1 0-.2.1-.1 0-.1.2l-.2 1.2h.1q.3.1.5-.1.2-.1.3-.4h.2l.1.1q-.1.2-.1.4-.1.1-.1.3 0 .2-.1.4v.4h-.3q.1-.3-.1-.5-.1-.2-.4-.3h-.2l-.2 1.2q0 .2.1.3.1.1.2.1l.3.1q.4 0 .8-.2.4-.3.5-.7h.2q.1 0 .1.1z"/><path id="path919" class="s17" d="M733.7 298c.8-1.5 1.6-3.3 2.1-5 1-3.9 1.1-7.5 1.1-9.3 2.1-.4 4-.9 5.2-1.4.8-.3 2.2-.9 3.3-.6.3.1.5.1.8.2.4.2.8.3.8.3.6.2 1.2.2 1.8 0 0 0 .4-.2.8-.3.2-.1.4-.2.6-.2q.1-.1.2-.1c.6 0 2.2.6 4 1.4 1 .4 2.1.7 3.2 1-.8 2.2-2 6-2.3 10.3-.1 1.4 0 3.1 0 4.3"/><path id="path955" class="s17" d="M736.5 289.5c6.5-1.5 12.9-1.3 19.3.8m-19-2.8q4.9-1.1 9.9-.9 4.7.3 9.5 1.8"/><path id="path160" class="s12" d="M768.8 269c1.2-.1 1.3.6 1.3 1.5l-21.5 16.6c-1.3.8-2.7.8-3.5 0-.7-.8-1.3-2.5.3-3.8z"/><path id="path971" class="s17" d="M743.3 297.8c4.6 0 9.4.5 13.8 1.3q.1 1.2.3 2.2c-8.8-1.7-19.7-1.7-28-.6q.8-1.1 1.5-2.3c3.1-.4 6.4-.6 9.8-.6q1.3-.1 2.6 0zm16.5 11.9q.4 1.2.6 2.6c-10.8-2.9-28.5-2.4-38-.2q.5-1.3 1.2-2.6c5.1-1 11.7-1.5 18.4-1.5 6.2 0 12.6.5 17.8 1.7zm.8 4.9q0 1.1-.2 2.4c-10.9-2.6-29.4-2-38.9 0q0-1.3.3-2.5c5.1-1 12.2-1.6 19.4-1.7 6.9 0 13.8.5 19.4 1.8z"/><path id="path993" class="s17" d="M746.2 289.8q1.1 0 2.3.1l-.5 6.5q-2.2-.2-4.5-.2h-.4l.7-6.4q.7 0 1.4-.1.5 0 1 .1zm-5 6.4h-.4c-1.5 0-3 .1-4.5.2.7-1.7 1.3-3.9 1.6-5.8q2.2-.5 4.3-.7zm12.9-5c-.3 1.7-.6 3.9-.4 5.7l-4-.4.2-6.3q2.1.3 4.2 1z"/><path id="path1000" class="s12" d="m739.8 333.1.6-20.3c.7-1.5 2.5-1.5 3.2 0l.1 2.2c.2 1.9 1.2 1.9 1.8 2.5l.3 15.6z"/><path id="path993-4" class="s17" d="m735.7 316.9.2 7.1c-1.4.1-4.9.2-6.4.4h-.4v-7.1c2.1-.3 4.7-.5 6.6-.4z"/><path id="path1050" class="s17" d="M732.6 318q1-.1 2.1-.1l.1 5q-2 .1-4.1.2-.2.1-.4.1l.1-5q.6-.1 1.3-.2h.9z"/><path id="path1056" class="s17" d="M753.4 317.2v7.1h-.4c-1.4-.1-4.6-.3-6-.4l.2-7.1c1.8-.1 4.2.1 6.2.4z"/><path id="path1058" class="s17" d="m751.2 317.9 1.2.2v5q-.1-.1-.3-.1-1.9-.2-3.9-.2l.2-5q.9-.1 1.9 0 .5 0 .9.1z"/><path id="path944" class="s17" d="M694.3 293.1c8.7 1.2 25.3-2.4 40.3-7.9"/><path id="path946" class="s17" d="M689.7 303.3c16.7.3 35-2.7 42.3-7"/><path id="path948" class="s17" d="M692.1 306.2c14.4 0 29.8-2.5 37.7-5.9"/><path id="path950" class="s17" d="M701.2 316.7c10.4.9 19.3-3.6 22.1-6.7"/><path id="path952" class="s17" d="M707.5 324.3c6.1 1.4 12.6-3 14.2-5.2"/><path id="path954" class="s17" d="M713.3 331c4.6.8 9.1-2 10.9-4.9"/><path id="path956" class="s17" d="m719.3 297.2.3-4.2 2.8-.7-.2 4.2z"/><path id="path972" class="s17" d="m718.3 298.5.4-6.3 4.8-1.2-.5 6.4z"/><path id="path974" class="s17" d="m712.9 298.6.2-4.2 2.9-.7-.3 4.2z"/><path id="path976" class="s17" d="m711.9 299.9.3-6.3 4.8-1.2-.4 6.4z"/><path id="path1001" class="s17" d="m725.8 295.6.2-4.2 2.9-.7-.3 4.2z"/><path id="path1003" class="s17" d="m724.7 296.9.4-6.3 4.8-1.2-.4 6.4z"/><path id="path1007" class="s17" d="M731.4 335.5c-9.4.1-19.9-10.5-19.8-19.2.1-5.1 2.9-6.6 2.2-14.6"/><path id="path1018" class="s17" d="M704.4 320.4c-.2-1-.6-2.6-.5-3.6 0-5.1 3-6.2 2.3-14.2"/><path id="path1020" class="s17" d="M699 302.9c.4 5-1 6.9-1.2 9.8"/></g><path id="path821" fill-rule="evenodd" d="M746.1 369.2c-18.8 24.2-45.5 42.1-71.5 47.3-47.1-9.5-96.6-60.2-96.6-115.2v-129h.4z" style="fill:#ffe400;stroke:#000;stroke-width:.9"/><g id="g2459"><path id="path2438" d="m616 332 10.7 12.7-1.7 6.9s-2.6-.1-3.9-.1c-1.7 0-3.4.1-5.1.2-1.6.1-3.3.6-4.9.3-1.3-.3-2.6-.8-3.4-1.7-1.1-1.2-1.6-2.1-1.4-3.7.1-1.8 2.1-3.6 3.1-5.1.9-1.4 1.7-4.8 2.9-6.6 1.8-2.5 3.4-3.3 3.4-3.3z" style="fill:#2d2d2d;stroke:#000;stroke-width:.5"/><path id="path2252" class="s20" d="M601.8 250.8c1.9.3 3.8.5 5.6.2 1.3-.2 2.4-.7 3.7-.6 2.6.3 5 1.4 7.1 3 3.1 2.3 5.7 5.2 7.8 8.4 1.5 2.2 2.3 4.9 3.1 7.5 1.6 4.9.9 10.2 4.7 13.2 4.3 3.4 7.8 9 10.3 12.7 2.8 4.3 4.6 12.4 9.2 14.4 9.7 4.2 15.7 8 20.1 11.8 6.9 5.7 9.9 11.2 16.5 17.3 0 0 10.8 5.6 16.3 9.7 3.9 2.8 9.7 6.6 11.8 10.9 1.2 2.6 3.1 4.2 1.9 6.8-1 1.9-3.7 2.3-5.8 3-10.5 3.8-12.8 9.1-20.4 11.1-4.5 1.3-14.9.9-17.7-1-4.1-5 12.7-10.3 26.7-16.3 0 0-3.1-2.5-4.9-2.9-8.1-1.8-18.7 1.4-27 1.5-5 .1-10.2.1-15-1.2-2.8-.7-7.1-1.4-11.7-2.5.7.9 1.2 2.1 1.4 4 3.2 3.8 4.4 6.4 3.2 7.2 3.7 4.6 3.8 7.9 2.4 8.2 1.2.3 3.6 8 .2 8.2-1.9.1-6-2-8.8-3.9-2.5-1.7-5-4.5-7-6.7-2.6-2.8-4.1-6.4-6.5-9.2-1.7-2-5.4-5.1-6.7-7.5-1.2-1.9-1.5-2.9-1.7-5.1-.2-2 .3-3.9.8-5.7-4.9-3.8-6.2-6.9-7.4-10.2-3.1-8.7-.6-16.1-3.4-21.1-2.6-4.6-4.4-13.5-5.1-20.2-.4-4.7-.5-9.4-.1-14.1-1.5-8.4-5.8-9.8-9.1-16.4-1.7-.9-6.5-6.8-4.1-9.1 0 0-1.8-5.4 1.8-7.3q.6-.3 1.3-.3c2.1 0 4.4 1.9 6.5 2.2z"/><path id="path2356" fill-rule="evenodd" d="M688.4 379.5c-1.6.2-1.8-.1-2.5-.2l3.4-3.3c-2.8 1.5-1.3.9-5.1 3.3-1.9.4-3.9-.1-4.2-.7l4.4-3.4c-2.9.7-2.8.8-6.6 2.8l-.7-1c-.8-1.1 3.1-3.3 5.7-4.7 5.3-2.6 13.5-5.3 20.5-8.4 1.1-.5 1.3-1.9.4-2.7 0 0-.8-.7-1.9-1.4-1-.7-2.3-2.7-3.7-3-8.8-1.9-17.4-.5-25.3-.5-5 .1-10.7-3.3-15.2-4.5-2.9-.8-2.8-3.6-7.3-4.6-2.7-.6-2.6-4.5-4.4-6.3-1.9-1.8-4-4.7-6.6-4.2-1.1.2-1.7 1.6-1.9 2.7-.5 2.9 2 5.6 2.6 8.5.5 2.9-.1 7.8.6 8.7.5.8.9 1.5 1 3.2q.1.5.4.9c1.6 1.8 2.6 3.4 3 4.3.2.5.2.7.3.8-.3.3-4.3-2.2-4.3-1.8-.1.4 3.9 3.6 4.2 3.9 1.8 2.2 2.6 4 2.8 5 .1.5.1.7.1.8-.6.3-5.9-3.1-5.9-2.6 0 .6 5.3 5.1 5.8 5.4.1.1.3.3.4.6.3.7.6 1.5.7 2.4.1.8.1 1.6 0 1.9q-.1.2 0 .2h-.2c-.2 0-1.7-.3-3.3-1-1.5-.7-3.1-1.7-4.4-2.5-2.3-1.6-2.5-2.5-4.6-4.8-2.2-2.5-3.7-6.1-6.4-9.2-.9-1.1-2.3-2.4-3.6-3.7-1.2-1.3-2.4-2.6-3-3.5-1-1.8-1.2-2.4-1.4-4.5-.1-1.6.4-3.2.7-5.1 0 0 1.3-6.9 1.2-10.4 0-3.1-.9-6-1-9-.1-1.6-.1-3.3.6-4.6 1.1-1.8 3.9-2 4.8-3.9.5-1 .5-2.4.1-3.5-.2-1-.8-2.1-1.7-2.5-1.2-.6-4.1.4-4.1.4s2 1.1 2.4 2.1c.2.4.1.9-.1 1.3-.8 1.2-2.8 1.2-3.7 2.2-1.3 1.5-2.2 3.4-2.4 5.3-.4 3.5 3.6 12.9 1.4 10.8-3-2.8-3-5.4-3.9-8.2-1.8-5-.2-7.5-.9-10.8-1.1-5-4.4-4.3-5.5-21.9-.3-4.6-.5-9.2-.1-13.9v-.4c-.8-4.4-5.4-6.6-7.2-8.9-1.7-2.3-2.9-4.2-4.4-7.3q-.2-.4-.7-.7s0-1.1-.6-1.7c-.6-.7-1.9-1.4-2.4-2.2-.5-.9-.8-1.7-.9-2.3-.2-.7-1.6-5.4.9-7.3.2-.1.4-.1.6-.1.6 0 1.5.3 2.6.8 1 .5 2.2 1.1 3.7 1.4 1.9.3 4 .5 6.1.2 1.5-.3 2.5-.7 3.3-.6 2.2.2 4.3 1.2 6.3 2.7 2.8 2.2 3.6 4.6 5.5 7.6 1.3 2.1 2.1 4.6 3 7.2.7 2.2.2 5.7.8 8.1.5 2.5-.3 5.4 2 7.2 4 3.2 7.2 6.6 9.7 10.3 1.3 1.9 2.2 7.6 3.6 10.5 1.4 2.9 3.1 5.8 6 7.1 9.6 4.1 19.1 7.5 23.4 11.1 6.6 5.6 9.8 11.6 16.6 17.8q.2.1.3.2s11.8 3.9 17.1 7.8c3.9 2.9 7.4 4.6 9.2 8.2.6 1.4 1.4 2.5 1.8 3.3.3.8.4 1.2 0 2-.2.5-.7.9-1.6 1.2-.9.4-2.1.6-3.2 1.1-5.5 1.9-8.9 4.3-11.7 6.4-2.9 2-7.8 7.5-11.4 8.1zM619 264.8s0 1 .2 1.5c.2.3.5.6.9.8.7.4 2.3.6 2.3.6s-.2-1-.4-1.6c-.2-.4-.8-1.3-.8-1.3l-.8-.3z" style="fill:#414141"/><path id="path2366" fill-rule="evenodd" class="s22" d="M600.9 253.6c.6.2 1.9 1.9 2.7 3.8 1 2.3 1 2.1 1.8 2 1 0-1-2.5-.2-5 .6-2 4.3-1.3 5.1-1.3 1.9.1 3.9.6 5.4 1.9 1.3 1.1 1.9 3 2.2 4.7.3 1.5.5 3.3-.2 4.7-.7 1.4-2.2 2.5-3.7 3-1.9.6-4.1 0-6-.6-2.4-.7-4.8-1.8-6.8-3.2-1.7-1.1-3.3-2.4-4.4-4.1-.8-1.4-1.4-3-1.6-4.6-.1-1-.2-2.1.3-2.9.2-.3.5-.5.8-.5 1.7-.1 3 1.7 4.6 2.1zm24.6 35c1 1.3 1.4 3.2.9 4.7-.6 1.6-2.6 3.4-3.8 4.7-1.6 1.7 0 7.9-2 9.1-1.1.7-2.4 1.1-3.3.2-3.8-3.1-5.6-14.7-3.4-19.1.8-1.7 2.7-3 4.5-3.2h.5c2.5.1 5.1 1.6 6.6 3.6zm6.5 19.1c2 .8 4.5.9 5.9 2.4 1.6 1.7 2.9 4.3 2.3 6.6-.7 2.9-4 4.6-6.6 6.2-1.7 1-4.1.5-5.6 1.9-.8.7-1.2 2-1.3 3.1-.3 3.1 1.9 6 1.9 9 0 5.1-3.8 10-3 15 .4 2.6 2.2 4.7 3.7 6.8 1.5 1.8 3.7 3 5.1 4.8 2.5 3.3 3.1 7.8 5.8 10.9 1.9 2.2 7.3 4.6 7.1 4.9-.3.4-1 .1-1.5 0-2.5-.8-4.7-2.5-6.5-4.3-3-3.1-4-7.6-6.8-10.9-1.5-1.8-3.8-2.8-5.2-4.7-1.7-2-3.4-4.3-3.8-6.9-.8-5.2 2.8-10.3 2.8-15.6 0-3.2-2-6.3-1.7-9.5.2-1.1.8-2.1 1.4-3 1.3-2.1 4.1-3.3 5-5.6.8-2.2.4-4.8-.9-6.6-1.2-1.6-4.9-2.3-4.9-2.3-.9-1.8 1.2-2.8 3.6-2.8 1.1 0 2.2.2 3.2.6zm31.3 18.1c8.5 5.5 27.1 20.7 21.7 21.1-10.2.7-20-5.6-28.7-10.8-4.8-2.8-12.1-6-12.6-11.5-.1-1.2-1.9-4-1-5 .8-1 2.8-.4 3.9-.7q.9-.3 2-.2c4.9.1 10.7 4.5 14.7 7.1zm-3.1 15.1c.6.6-.6 2.1-1.2 2.7-1.2 1.1-2.3 1.6-3.9 2.1-1 .3-2.5.4-3.5.1-1.3-.4-2.8-1.1-3.3-2.3-.1-.3 0-.7.2-.8.9-.4 1.8.9 2.7 1.1.9.2 2.3.2 3.1.1 1.4-.2 1.6-.4 2.8-1 .8-.4 2-2.1 2.8-2.1q.1 0 .3.1zm5.7 1.5c.8.5-.2 2.2-.7 3-1 1.4-2.1 2.2-3.7 2.9-.9.5-2.5.9-3.6.8-1.4-.2-3.2-.6-3.9-1.8-.2-.3-.2-.7 0-.8.8-.7 2.1.6 3.1.6.9 0 2.4-.2 3.3-.5 1.3-.4 1.5-.7 2.7-1.6.7-.5 1.7-2.5 2.5-2.7q.2 0 .3.1zm3.7 4.4c.7.5-.2 2-.7 2.6-.8 1.3-1.8 1.9-3.1 2.6-.8.4-2.2.7-3.1.6-1.3-.1-2.8-.5-3.4-1.6-.1-.2-.2-.5 0-.7.7-.5 1.8.6 2.7.6.8 0 2-.2 2.8-.4 1.2-.4 1.3-.7 2.4-1.4.6-.5 1.4-2.2 2.1-2.3h.3zm25.2.7c2.9.3 5.7 1.2 8.3 2.5 2.3 1.1 4.5 2.7 6.3 4.6 1.2 1.3 2.3 2.4 3.2 3.9.5.8 1.6 1.7 1.3 2.7-.8 2.3-5 2.5-6.8 3.4-2.7 1.2-5 3-7.4 4.7-.2-1.4-2.4-1.2-4.4-1.1 2.6-1.4 8.2-2.7 10.7-4.1 1.1-.6 4.3-2 4.3-2s-3-4.9-4.5-6.5c-1.2-1.2-2.5-2.3-3.9-3.1-2.1-1.1-4.4-1.5-6.6-2.2-2.5-.8-9.7-.9-7.5-2.3.9-.5 2.5-.7 4.1-.7 1 .1 2 .1 2.9.2zm2.7 23.8c-.7.8-1.3 1.5-2.2 2.2-1.7 1.3-5 4.1-6.3 4.5-1.6.6 3-4.2 3-4.2s-8.7 5.1-9.9 4c-.6-.5 5.5-4.2 5.5-4.2s-7.3 2.6-8.3 2.6c-1.7 0 1-1.8 4.6-3.4 2.5-1.1 5.8-2 8.8-3.3q1.2-.2 2.1-.2c1.9 0 3.1.4 2.7 2z"/><path id="path2246" fill-rule="evenodd" d="M594.7 248.9c.4.3.6.9.4 1.4-.1.4-1 .5-1.2.9-.5.7-1.6 1.8-2.2 1.4.5-1.5.8-3.2 2.4-3.8h.2c.1 0 .3 0 .4.1zm1 5.4c-.4 0-.7-.1-.9-.4-.1-.3-.3-.6-.2-1 .7.5.9 1.1 1.1 1.4zm-1.1.6c-.4 0-.6-.2-.8-.5-.2-.3-.3-.6-.1-1 .5.6.7 1.1.9 1.5zm-1.2.9c-.4-.1-.6-.7-.7-1-.1-.3-.1-.6.1-1 .4.7.5 1.6.6 2zm2.4.5c-.4-.1-.6-.3-.7-.6-.1-.3-.2-.7 0-1 .5.6.6 1.2.7 1.6zm-.5 4.8c1.3 1.1 2.6 1.7 3.3 3.4-1-1.4-2.3-1.9-3.6-3-1.3-1.1-2.5-2.6-3.2-6l.4-.1c.7 3.3 1.9 4.7 3.1 5.7zm-.5-4.1c-.4-.1-.6-.3-.7-.6-.1-.3-.2-.6 0-1 .5.6.6 1.2.7 1.6zm2.4.4c-.4 0-.6-.3-.7-.6-.2-.3-.2-.6 0-1 .5.6.5 1.2.7 1.6zm-3.2.5c-.4 0-.6-.2-.8-.5-.1-.3-.2-.7 0-1.1.5.7.6 1.3.8 1.6zm2.5.6c-.3 0-.7-.5-.8-.7-.2-.3-.3-.7-.2-1.1.6.6.9 1.5 1 1.8zm-1.1.9c-.4-.1-.7-.5-.9-.8-.2-.3-.3-.7-.1-1.1.6.6.8 1.5 1 1.9zm2.6.2c-.4 0-.7-.5-.9-.7-.2-.3-.3-.7-.1-1.1.6.6.8 1.5 1 1.8zm-1.1.8c-.4 0-.6-.2-.8-.4-.2-.3-.3-.6-.2-1.1.6.6.8 1.2 1 1.5zm1.9.9c-.4.1-.7-.1-.9-.3-.2-.2-.4-.5-.3-1 .6.5.9 1 1.2 1.3zm22.2 2q1 .2 1.6 1.1c.2.3.3.7.4 1.3.2.5.2 1.1.3 1.6v1.4q-.1.3-.1.5l-.2.2c-.1 0-.2.1-.3 0-1.8-.5-3.1-.7-3.9-1.4-.8-.6-1.1-1.5-1-2.6.4 1 .7 1.7 1.3 2.3.7.5 1.9.7 3.6 1.2q.1 0 .1-.2v-1.4c0-.5-.1-1-.2-1.5s-.3-.9-.4-1.1c-.7-1-1.8-1.4-3.5-1.1.5-.3 1-.4 1.5-.4q.4 0 .8.1zm.4 1.4c.6.5 1 1.7 1 2.9-.2-1.2-.9-2.2-1.3-2.5-.4-.3-1-.3-1.9-.1v.4c0 .3.3 1 .3 1.3-.5 0-.7-.9-.8-1.2 0-.3 0-.6.1-.8v-.2h.2q.6-.2 1-.2.9 0 1.4.4zm5.2 50.3c.4.4.5 1 .5 1.5.1.7-.3 1.3-.6 1.8-.5.9-1.4 1.5-2.2 2.1-.9.6-1.6 1.2-1.9 2-1.2 3-.9 5-.4 7.8.5 2.7 1.2 6.1.8 11.7-.2 2.5-1 4.7-1.6 7l-.4-.1c.5-2.3 1.4-4.5 1.5-6.9.4-5.6-.3-8.9-.8-11.7-.5-2.7-.8-4.9.4-7.9.4-1 1.2-1.7 2.1-2.3.8-.6 1.6-1.2 2.1-1.9.3-.5.6-1 .5-1.5 0-.3 0-.9-.3-1.3-.2-.3-1.1-.4-1.1-.4s.3-.1.7-.1c.2 0 .5.1.7.2zm14 24.4c.8.4 1.7 1.5 2.1 2.4-.6-.6-1.6-1.6-2.3-1.9q-.2-.1-.4-.1c-.1-.1-.1 0-.1 0v.2q0 .3.2.7c1.1 2.7 2.2 5 2.5 8 .2 2.2-.2 6.3-.2 6.5.7 1.2 1.8 2 2.6 3.6l-.5.2c-.7-1.5-1.7-2.2-2.6-3.6v-.2s.4-4.4.2-6.5c-.3-2.8-1.3-5.1-2.4-7.8q-.3-.5-.3-.8 0-.4.1-.6c.2-.2.4-.2.6-.2q.2 0 .5.1z" style="fill:#1a1a1a"/><path id="path2248" class="s20" d="M611.9 258.6c0 .4 1.2 1.3.6 1.9-.7.8-1.8-.3-2.3-.3-.9 0-1.6-.7-1.6-1.6 0-.5-.2-1.3.1-1.6.3-.3 1.1-.1 1.5-.1.9 0 1.6.8 1.7 1.7z"/><path id="path2250" class="s9" d="M610.7 258c0 .3-.3.6-.5.6-.3 0-.6-.3-.6-.6 0-.2.3-.5.6-.5.2 0 .5.3.5.5z"/><path id="path2407" class="s22" d="M640.7 361.4c-1.1-.8-1.4-2.3-1.8-3.5-.8-2.9-.3-6-1-8.8-.6-2.4-2.3-4.5-2.7-6.9-.2-1.4-.6-3.2.2-4.2.7-.9.4 2.2.8 3.3.7 2.5 2.3 4.8 2.8 7.4.6 2.8 0 5.8.5 8.7.2 1.4 2.8 5.1 1.2 4z"/></g></g></g></g></g></svg>