<svg version="1.2" baseProfile="tiny-ps" xmlns="http://www.w3.org/2000/svg" viewBox="0 0 900 600" width="900" height="600"><title></title><style>tspan { white-space:pre }.shp0 { fill: #ffffff } .shp1 { fill: #000000 } </style><path class="shp0" d="M0 0L900 0L900 600L0 600L0 0Z" /><g ><path fill-rule="evenodd" class="shp1" d="M465.71 375.54C461.21 372 456.39 368.89 451.89 365.36C449.64 363.54 448.14 363.86 446 365.46C441.39 369.11 436.46 372.21 431.86 375.86C429.5 377.68 428.43 377.14 426.93 374.89C423.61 369.96 419.86 365.36 416.54 360.43C415.25 358.5 414.07 358.07 411.82 358.82C406.04 360.86 400.04 362.46 394.25 364.5C392 365.25 391.14 364.93 390.39 362.57C388.68 356.57 386.54 350.79 384.71 344.89C384.07 342.75 383.11 342 380.86 342C374.75 342.11 368.54 341.89 362.32 342C359.86 342.11 358.89 341.46 359 338.79C359.11 332.46 358.89 326.14 359 319.82C359 317.89 358.36 316.93 356.54 316.39C350.54 314.57 344.54 312.43 338.54 310.61C336.39 309.96 335.64 309.21 336.5 306.75C338.64 300.75 340.36 294.75 342.39 288.75C343.14 286.71 342.82 285.64 341.11 284.46C335.86 280.82 330.71 276.86 325.46 273.21C323.75 272.04 323.54 271.18 324.82 269.46C328.79 264.21 332.54 258.86 336.39 253.61C337.46 252.21 337.46 251.25 336.39 249.75C332.43 244.5 328.79 239.14 324.82 233.89C323.54 232.29 323.64 231.32 325.36 230.14C330.71 226.39 335.86 222.43 341.21 218.68C342.61 217.71 343.04 216.75 342.39 215.04C340.36 208.82 338.54 202.61 336.39 196.39C335.64 194.36 336.07 193.61 338.11 192.96C344.11 191.14 350.11 189 356.11 187.18C358.14 186.54 358.89 185.57 358.89 183.32C358.79 177.21 359 171 358.89 164.79C358.79 162.32 359.43 161.36 362.11 161.46C368.21 161.68 374.21 161.36 380.32 161.57C383.11 161.68 384.07 160.5 384.82 158.14C386.64 152.36 388.57 146.68 390.5 140.89C390.82 139.93 390.71 138.43 392.75 138.75C395.11 139.61 397.89 140.46 400.57 141.32C403.89 142.39 407.43 143.14 410.64 144.54C413.86 145.93 415.46 144.96 417.29 142.29C420.5 137.57 424.14 133.07 427.36 128.36C428.75 126.43 429.61 126.11 431.64 127.61C436.68 131.46 441.93 135 446.96 138.75C448.57 140.04 449.64 140.14 451.36 138.86C456.29 135.11 461.43 131.68 466.36 127.93C468.5 126.32 469.57 126.21 471.18 128.57C474.5 133.61 478.36 138.32 481.79 143.36C483.07 145.29 484.25 145.71 486.5 144.96C492.29 142.93 498.29 141.21 504.07 139.18C506.32 138.43 507.29 138.86 507.93 141.11C509.75 147.11 511.79 152.89 513.61 158.79C514.25 160.82 515.21 161.79 517.46 161.68C523.79 161.57 530.11 161.79 536.43 161.68C538.79 161.57 539.43 162.43 539.43 164.57C539.43 171 539.54 177.43 539.54 183.86C539.54 185.79 540.07 186.75 542 187.29C548.21 189.11 554.21 191.25 560.32 193.18C562.36 193.82 562.89 194.46 562.14 196.61C560 202.82 558.18 209.04 556.14 215.25C555.61 217.07 555.82 217.93 557.32 219C562.68 222.75 567.82 226.71 573.18 230.46C574.89 231.64 575.11 232.5 573.82 234.21C569.86 239.46 566.11 244.82 562.25 250.07C561.18 251.46 561.18 252.43 562.25 253.93C566.11 259.18 569.75 264.54 573.71 269.79C575 271.5 574.89 272.36 573.18 273.54C567.82 277.29 562.68 281.25 557.32 285C555.82 286.07 555.5 287.04 556.14 288.75C558.29 294.96 560 301.18 562.14 307.39C562.89 309.54 562.25 310.18 560.32 310.82C554.32 312.75 548.32 314.79 542.32 316.61C540.18 317.25 539.54 318.21 539.54 320.46C539.64 326.46 539.32 332.36 539.54 338.36C539.64 341.79 538.36 342.43 535.36 342.32C529.36 342.11 523.46 342.43 517.46 342.32C515.32 342.32 514.46 343.07 513.82 345C512 350.89 509.86 356.79 508.14 362.68C507.39 365.25 506.32 365.57 503.96 364.71C498.39 362.68 492.61 361.18 487.04 359.14C484.36 358.18 482.96 358.82 481.46 361.07C478.36 365.79 474.61 370.18 471.5 375C469.68 377.79 468.39 377.46 465.71 375.54ZM470.86 372C474.18 366.96 477.93 362.14 481.46 357.21C482.54 355.82 483.5 355.39 485.21 356.04C490.89 358.07 496.79 359.68 502.46 361.71C504.93 362.57 506.11 362.25 506.86 359.57C508.46 353.89 510.61 348.43 512.21 342.86C512.96 340.39 514.14 339.64 516.61 339.75C522.29 339.86 528.07 339.64 533.75 339.75C536.32 339.86 537.39 339.21 537.29 336.43C537.07 330.54 537.39 324.75 537.29 318.86C537.29 316.61 537.93 315.43 540.29 314.79C545.75 313.18 551.11 311.14 556.57 309.54C559.36 308.68 560.21 307.71 559.14 304.82C557.11 299.25 555.5 293.46 553.57 287.89C552.93 285.96 553.25 285 554.86 283.93C559.68 280.61 564.39 276.86 569.32 273.54C571.57 272.04 572 270.96 570.18 268.61C566.43 263.89 563.11 258.75 559.46 253.93C558.39 252.54 558.39 251.46 559.46 250.07C563.11 245.25 566.54 240.21 570.18 235.39C571.79 233.36 571.89 232.29 569.54 230.68C564.61 227.36 560 223.61 555.07 220.29C553.14 219 552.93 217.82 553.68 215.79C554.96 212.25 556.04 208.82 557.11 205.29C558.07 202.39 558.93 199.61 559.89 196.61C560.11 195.21 558.71 195.21 557.86 194.89C552.29 192.96 546.61 190.93 540.93 189.32C538.25 188.57 537.18 187.5 537.29 184.61C537.5 178.93 537.18 173.14 537.29 167.46C537.39 165 536.75 164.04 534.07 164.14C528.07 164.36 522.18 164.04 516.18 164.14C514.04 164.14 512.96 163.5 512.32 161.36C510.61 155.46 508.57 149.79 506.75 144C506 141.75 505.14 141.43 503 142.18C497.11 144.21 491.21 145.93 485.32 147.86C483.5 148.5 482.54 148.18 481.36 146.57C477.82 141.43 473.96 136.61 470.54 131.46C469.14 129.43 468.18 129.54 466.36 130.93C461.64 134.46 456.61 137.79 451.89 141.43C450.07 142.82 448.79 143.04 446.86 141.54C441.93 137.79 436.79 134.36 431.86 130.61C430.25 129.43 429.39 129.64 428.32 131.14C424.79 136.29 420.93 141.11 417.5 146.25C416.11 148.29 414.82 148.5 412.68 147.75C407 145.71 401.21 144 395.43 142.07C393.39 141.43 392.64 141.96 392 143.89C390.29 149.68 388.25 155.25 386.54 160.93C385.79 163.18 384.82 164.25 382.25 164.14C376.36 163.93 370.57 164.25 364.68 164.14C362.11 164.04 361.14 164.68 361.25 167.36C361.46 173.25 361.14 179.04 361.25 184.93C361.25 187.39 360.61 188.57 358.14 189.32C352.25 191.04 346.57 193.07 340.79 194.89C339.07 195.43 338.54 196.18 339.18 198.11C341.21 204 342.93 209.89 344.96 215.79C345.61 217.71 345.5 219 343.57 220.29C338.54 223.71 333.61 227.57 328.57 231.11C326.75 232.39 326.75 233.25 328.04 234.86C331.68 239.68 335.11 244.71 338.75 249.54C340.14 251.36 340.36 252.64 338.86 254.57C335.11 259.5 331.68 264.64 327.93 269.57C326.75 271.07 326.86 271.82 328.46 273C333.61 276.54 338.64 280.5 343.79 284.04C345.5 285.32 345.71 286.39 345.07 288.32C343.04 294.21 341.32 300.11 339.29 306C338.54 308.04 339.07 308.79 341 309.43C346.79 311.25 352.57 313.29 358.36 315C360.71 315.64 361.25 316.82 361.25 319.07C361.14 325.07 361.36 330.96 361.25 336.96C361.25 339.43 362.11 339.96 364.46 339.96C370.14 339.86 375.93 340.18 381.61 339.96C384.61 339.86 385.79 341.04 386.54 343.71C388.04 349.18 390.18 354.54 391.79 360C392.43 362.36 393.39 362.68 395.64 361.93C401.32 359.89 407.11 358.18 412.89 356.25C414.93 355.61 416 355.93 417.18 357.64C420.5 362.46 424.14 367.07 427.46 371.89C429.07 374.25 430.14 374.89 432.71 372.86C437.43 369.11 442.46 365.89 447.18 362.25C448.79 361.07 449.75 361.07 451.36 362.25C456.18 365.79 461.11 369.11 465.82 372.75C467.96 374.36 469.14 374.68 470.86 372Z" /><path fill-rule="evenodd" class="shp1" d="M467 501.32C467 503.68 466.14 504.21 464 504.11C459.07 504 454.14 504.11 449.21 504.11C444.29 504.11 439.36 504 434.43 504.11C432.39 504.11 431.64 503.57 431.64 501.43C431.75 495.21 431.86 488.89 431.64 482.57C431.54 480.21 432.61 479.79 434.64 479.79C444.5 479.89 454.36 479.89 464.21 479.79C466.25 479.79 467.11 480.21 467 482.46C466.79 488.79 466.79 495.11 467 501.32ZM461.96 482.25C457.89 482.36 453.71 482.25 449.64 482.25C445.25 482.25 440.96 482.36 436.57 482.25C434.75 482.14 433.79 482.46 433.89 484.61C434 489.64 434 494.68 433.89 499.71C433.79 501.21 434.21 501.96 435.93 501.96C444.82 501.86 453.61 501.86 462.39 501.96C464.21 501.96 464.75 501.21 464.75 499.5C464.64 494.57 464.64 489.64 464.75 484.71C464.86 482.46 463.89 482.04 461.96 482.25Z" /><path fill-rule="evenodd" class="shp1" d="M237.29 379.5C229.25 376.61 221.21 373.5 213.07 370.82C210.29 369.96 208.68 368.46 207.61 365.79C206.54 363 205.14 360.21 203.54 356.68C215.21 360.96 226.04 364.82 236.75 368.68C237.82 369.11 238.68 369.64 239.21 370.82C240.82 374.36 242.43 377.79 244.46 382.07C241.57 381.11 239.43 380.36 237.29 379.5ZM233.32 375.64C235.36 376.29 237.29 377.04 239.75 377.89C238.46 373.5 236.75 370.5 232.36 369.32C227.11 367.93 221.96 365.68 216.82 363.86C214.14 362.89 211.36 361.93 208.25 360.86C209.43 365.36 211.14 368.14 215.54 369.43C221.54 371.14 227.43 373.61 233.32 375.64Z" /><path fill-rule="evenodd" class="shp1" d="M250.79 188.46C251.21 187.61 251.96 187.29 252.71 187.07C263.43 183.21 274.25 179.36 284.96 175.5C285.18 175.5 285.39 175.61 285.93 175.71C284.21 179.46 282.5 183.21 280.79 186.86C280.36 187.71 279.71 188.04 278.96 188.36C268.04 192.21 257.11 196.18 245.21 200.46C247.36 195.96 249.07 192.21 250.79 188.46ZM250.25 195.75C251.64 196.29 252.71 195.43 253.68 195.11C260.43 192.75 267.18 189.96 274.04 187.93C278.43 186.64 280.46 183.86 281.54 179.25C273.07 182.25 265.14 185.36 257.11 187.82C252.82 189.11 251.32 192 250.25 195.75Z" /><path fill-rule="evenodd" class="shp1" d="M257.21 171.32C257.54 170.79 258.07 170.46 258.82 170.25C270.07 167.25 281.32 164.25 293.64 160.93C291.18 165.32 289.14 168.75 287.21 172.18C286.68 173.14 285.82 173.46 284.96 173.68C274.14 176.57 263.21 179.46 252.39 182.25C252.07 182.36 251.75 182.25 250.89 182.25C253.04 178.5 255.07 174.96 257.21 171.32ZM255.93 178.61C256.89 179.04 257.64 178.71 258.39 178.5C265.46 176.57 272.43 174.32 279.61 172.93C284.21 171.96 286.89 169.71 288.39 164.89C279.93 167.04 271.89 169.5 263.75 171.21C259.36 172.07 257.32 174.75 255.93 178.61Z" /><path fill-rule="evenodd" class="shp1" d="M195.18 196.07C191.32 190.29 190.04 184.71 193.04 178.29C193.46 177.21 193.68 176.04 194 174.96C195.39 175.18 195.5 176.36 196.04 177.21C201.07 186.11 206.21 194.89 211.36 203.68C212.43 205.5 212.75 207.11 212.11 209.14C211.04 212.36 210.29 215.68 209.11 219.86C204.18 211.29 200.11 203.36 195.18 196.07ZM195.07 191.25C199.14 197.46 202.57 204.11 206.32 210.54C206.86 211.5 206.96 212.79 208.36 213C210.5 208.93 210.29 205.39 207.61 201.54C204.29 196.71 201.61 191.46 198.71 186.43C197.64 184.5 196.46 182.57 195.07 180.11C193.46 184.39 192.5 187.5 195.07 191.25Z" /><path fill-rule="evenodd" class="shp1" d="M241.68 217.82C243.18 213.64 244.57 209.89 245.96 206.04C246.29 205.18 246.93 204.86 247.68 204.54C258.18 199.71 268.68 194.89 280.14 189.54C278.43 194.36 277.04 198.11 275.64 201.96C275.32 202.82 274.68 203.14 273.93 203.46C263.64 208.29 253.36 213 243.07 217.71C242.75 217.82 242.43 217.82 241.68 217.82ZM245.75 214.07C254.11 210.21 261.61 206.46 269.32 203.36C273.39 201.75 275.11 198.96 275.75 194.25C267.18 198.11 259.14 202.07 251 205.5C247.04 207.11 246.93 210.32 245.75 214.07Z" /><path fill-rule="evenodd" class="shp1" d="M261.29 429.11C258.07 428.79 254.96 428.25 251.75 428.25C248.64 428.25 246.71 426.86 245 424.5C243.29 422.04 241.36 419.89 238.89 417C248 417.86 256.25 418.5 264.5 419.25C265.25 419.25 266.11 419.57 266.86 419.46C275.86 418.18 280.04 424.29 284.54 430.93C276.5 430.29 268.89 429.64 261.29 429.11ZM264.61 427.07C269.32 427.29 274.04 428.25 279.39 427.93C277.25 425.68 276.5 422.68 273.61 422.36C264.07 421.39 254.54 420.64 244.04 419.68C246.71 422.14 247.25 425.46 250.89 425.79C255.39 426.11 260 426.75 264.61 427.07Z" /><path fill-rule="evenodd" class="shp1" d="M245.43 396.64C238.14 394.82 230.86 392.68 223.57 390.86C221.32 390.32 219.82 389.25 218.75 387.11C217.36 384.21 215.64 381.54 213.5 377.79C221.96 380.04 229.57 382.07 237.18 384.11C238.36 384.43 239.64 385.07 240.82 385.07C249.82 385.39 252.71 392.14 255.93 399.11C252.18 398.89 248.86 397.5 245.43 396.64ZM251.21 395.79C249.71 391.29 247.68 388.39 243.29 387.96C241.89 387.86 240.39 387.32 239 386.89C232.25 385.18 225.61 383.36 218.21 381.43C219.93 384.32 220.25 387.54 222.93 388.29C232.14 390.96 241.46 393.21 251.21 395.79Z" /><path fill-rule="evenodd" class="shp1" d="M266.75 153.96C278.32 151.93 289.89 149.89 302.32 147.75C299.43 151.71 297.07 155.14 294.61 158.57C294.07 159.32 293.21 159.43 292.46 159.54C281 161.46 269.54 163.5 257.32 165.64C260.11 161.68 262.46 158.25 264.93 154.82C265.36 154.29 266 154.07 266.75 153.96ZM262.89 162.43C271.36 160.93 279.29 159.21 287.32 158.25C291.93 157.71 294.93 155.79 296.75 151.07C287.96 152.57 279.5 154.29 271.04 155.36C266.64 155.89 264.71 158.46 262.89 162.43Z" /><path fill-rule="evenodd" class="shp1" d="M187.14 212.25C186.61 211.39 185.86 210.64 186.07 209.46C186.71 205.5 187.36 201.43 188.21 196.39C195.5 206.79 202.14 216.32 208.89 225.86C209.54 226.71 209.64 227.68 209.43 228.75C208.68 232.5 208.04 236.25 207.39 239.89C206.11 240.32 206 239.25 205.57 238.71C199.36 229.93 193.25 221.14 187.14 212.25ZM190.25 213.32C195.07 219.43 199.25 225.96 203.75 232.29C204.39 233.04 204.61 234.21 205.89 234.21C207.18 228.54 207.39 227.89 206.43 226.5C201.07 218.68 195.5 210.86 189.71 202.61C188.54 206.57 187.57 209.68 190.25 213.32Z" /><path fill-rule="evenodd" class="shp1" d="M206.75 146.36C205.89 144.32 206 142.61 206.96 140.79C208.46 137.79 209.86 134.68 211.68 130.82C212.86 134.04 213.71 136.39 214.57 138.86C217.46 146.79 220.36 154.71 223.36 162.64C224.11 164.89 224.21 166.71 223.04 168.86C221.54 171.64 220.25 174.75 218.43 178.39C217.04 174.54 215.86 171.43 214.79 168.43C212.11 161.04 209.43 153.64 206.75 146.36ZM210.07 149.14C211.57 152.25 212.54 155.79 213.71 159.11C215.32 163.39 216.93 167.57 218.54 172.07C221.43 168.43 222.18 165.11 220.25 160.82C218 156 216.5 150.75 214.68 145.71C213.71 142.93 212.64 140.14 211.57 137.14C208.25 141.11 207.93 144.86 210.07 149.14Z" /><path fill-rule="evenodd" class="shp1" d="M239.75 236.57C239.86 233.04 241.57 230.14 241.79 227.14C242.11 223.18 245 222 247.79 220.39C255.71 215.89 263.54 211.39 271.36 206.89C272.43 206.25 273.39 205.39 275 205.29C273.93 209.25 272.96 213.11 272 216.96C271.79 217.93 271.14 218.57 270.29 219C260.32 224.68 250.25 230.46 239.75 236.57ZM243.39 231.96C250.79 227.68 257.75 223.39 264.93 219.64C269.11 217.5 271.25 214.61 271.25 209.57C263.43 213.96 256.14 218.57 248.54 222.43C244.46 224.46 243.82 227.68 243.39 231.96Z" /><path fill-rule="evenodd" class="shp1" d="M216.5 124.29C216.29 123.21 216.39 122.25 216.93 121.29C218.96 117.96 220.89 114.54 223.25 110.57C224.96 117 226.57 122.68 228.07 128.36C229.25 132.54 230.11 136.82 231.5 140.89C232.89 144.75 232.57 148.07 230.11 151.39C228.5 153.43 227.32 155.79 225.71 158.57C222.5 146.57 219.5 135.32 216.5 124.29ZM218.86 123.86C221.11 133.29 223.79 142.61 226.46 152.57C228.07 149.68 230.75 147.75 230 144.64C227.64 135.43 225.07 126.32 222.39 116.25C221 119.36 218.21 121.18 218.86 123.86Z" /><path fill-rule="evenodd" class="shp1" d="M199.57 330.11C191.21 327.21 191 319.93 189.29 312.54C194.11 315.32 198.39 317.68 202.57 320.14C207.93 323.25 213.29 326.36 218.64 329.36C220.57 330.43 221.75 331.71 222.18 333.96C222.82 337.29 223.89 340.5 224.96 344.57C218.96 341.04 213.61 338.04 208.25 334.93C205.36 333.21 202.68 331.07 199.57 330.11ZM198.5 326.79C206.11 330.64 213.5 335.14 221.21 339.64C220.79 334.82 219.39 331.29 214.89 329.57C212.75 328.82 210.82 327.43 208.89 326.25C203.75 323.36 198.71 320.46 193.14 317.25C193.57 321.54 194.43 324.75 198.5 326.79Z" /><path fill-rule="evenodd" class="shp1" d="M294.82 392.68C294.5 392.25 294.5 391.61 294.61 391.07C296.64 379.5 298.68 367.93 300.82 355.39C303.61 359.36 305.75 362.46 308 365.46C308.64 366.32 308.96 367.29 308.75 368.36C306.71 379.82 304.68 391.29 302.43 403.71C299.54 399.64 297.18 396.21 294.82 392.68ZM301.04 397.18C301.36 396.43 301.57 395.89 301.68 395.36C303.07 387.32 304.25 379.29 306.07 371.36C307.04 366.96 304.89 364.61 302.11 361.61C300.5 370.5 299.43 378.86 297.5 387.11C296.43 391.5 298.14 394.29 301.04 397.18Z" /><path fill-rule="evenodd" class="shp1" d="M197.54 166.29C197.11 165.54 197 164.89 197.32 164.04C198.71 160.39 200.11 156.64 201.5 152.89C202.89 153.32 203 154.5 203.43 155.36C207.71 164.57 212 173.79 216.39 183C217.36 185.04 217.46 186.75 216.61 188.79C215.32 191.89 214.25 195.11 212.86 198.96C207.5 187.61 202.57 177 197.54 166.29ZM201.61 169.93C202.89 172.61 204.07 175.29 205.36 177.96C207.61 182.79 209.96 187.61 212.54 193.18C213.39 189.64 215.86 187.5 214.46 184.39C210.5 175.82 206.54 167.25 202.36 158.25C199.25 164.36 199.25 164.36 201.61 169.93Z" /><path fill-rule="evenodd" class="shp1" d="M254.54 413.14C248.32 412.07 242 410.89 235.68 409.82C234.71 409.71 233.54 409.71 232.89 408.75C230.54 405.43 228.29 402.11 225.39 397.93C232.46 399.11 238.46 400.18 244.46 401.25C249.18 402.11 253.89 403.07 258.61 403.71C261.07 404.14 262.79 405.11 264.07 407.25C265.68 409.93 267.71 412.39 270.07 415.82C264.29 414.86 259.46 414.11 254.54 413.14ZM236.21 407.57C245.54 409.29 254.86 410.79 264.61 412.5C262.79 408.11 260.11 405.43 255.5 405.43C254 405.43 252.61 404.89 251.11 404.68C244.46 403.5 237.93 402.43 230.54 401.14C232.57 404.04 233.11 407.14 236.21 407.57Z" /><path fill-rule="evenodd" class="shp1" d="M245.32 296.57C245.21 295.61 245.75 295.07 246.29 294.43C253.79 285.54 261.18 276.75 269 267.54C270.29 272.04 269.96 276.21 270.61 280.29C270.71 281.25 270.07 281.79 269.54 282.43C262.25 291 255.07 299.57 247.79 308.14C247.68 308.36 247.36 308.46 246.61 309C246.18 304.71 245.75 300.64 245.32 296.57ZM248.86 303.75C254.75 296.79 260.11 290.04 266 283.61C268.79 280.5 268.36 277.39 267.5 273.32C266.32 274.61 265.46 275.46 264.71 276.43C260.21 281.68 256.04 287.14 251.32 292.07C248 295.39 247.25 298.82 248.86 303.75Z" /><path fill-rule="evenodd" class="shp1" d="M263.96 348.32C263.64 347.36 263.75 346.5 264.18 345.64C269 335.25 273.93 324.96 278.75 314.57C278.86 314.36 279.07 314.25 279.5 313.93C280.89 317.68 282.29 321.43 283.68 325.07C284.11 326.14 283.89 327.11 283.46 328.07C278.54 338.57 273.71 348.96 268.36 360.32C266.64 355.82 265.36 352.07 263.96 348.32ZM268.89 353.89C272.54 346.18 275.75 338.46 279.71 331.18C281.75 327.21 281.43 323.89 278.86 319.71C275.21 327.75 271.68 335.25 268.14 342.75C265.57 348 265.68 348.32 268.89 353.89Z" /><path fill-rule="evenodd" class="shp1" d="M259.79 343.18C258.39 337.18 254.21 331.71 259.04 324.86C264.71 316.71 269.32 307.71 274.79 298.29C276.07 302.89 276.93 306.64 278 310.39C278.32 311.46 278.11 312.32 277.57 313.29C271.79 323.25 266 333.21 259.79 343.18ZM260.75 337.71C265.14 330.11 269.32 322.71 273.61 315.43C276.18 310.93 276.18 309.86 273.5 304.71C269.32 312 265.46 319.29 260.96 326.14C258.5 330 258.29 333.43 260.75 337.71Z" /><path fill-rule="evenodd" class="shp1" d="M283.46 379.18C282.82 378.21 283.04 377.14 283.36 376.18C286.36 365.14 289.36 354.11 292.57 342.21C295.04 346.39 296.96 349.82 299 353.25C299.43 353.89 299.43 354.64 299.21 355.5C296.11 366.86 293 378.21 289.79 390.32C287.43 386.14 285.5 382.61 283.46 379.18ZM289.25 383.89C291.61 375.21 293.64 366.86 296.21 358.61C297.5 354.43 295.89 351.75 293.21 348.21C290.86 357 288.93 365.14 286.36 373.07C284.96 377.46 286.36 380.46 289.25 383.89Z" /><path fill-rule="evenodd" class="shp1" d="M190.25 305.25C188.21 303.86 186.93 302.36 186.71 299.79C186.39 296.57 185.64 293.36 185 290.04C186.29 289.82 186.82 290.57 187.57 291.11C196.14 297.11 204.61 303.11 213.18 309C214.79 310.18 215.75 311.36 215.96 313.39C216.39 316.93 217.25 320.36 217.89 323.89C216.29 323.89 215.43 322.82 214.46 322.18C206.32 316.61 198.29 310.93 190.25 305.25ZM193.46 304.71C199.68 309 205.89 313.39 212.11 317.68C212.75 318.11 213.29 319.07 214.36 318.64C214.57 314.36 213.18 311.25 209.32 309C205.57 306.96 202.25 304.29 198.82 301.82C195.5 299.46 192.07 297.11 188.54 294.64C188.54 301.07 188.75 301.5 193.46 304.71Z" /><path fill-rule="evenodd" class="shp1" d="M234.07 363.75C222.61 358.5 212 353.57 201.5 348.64C200.75 348.32 200.21 347.89 199.89 347.04C198.5 343.29 197.11 339.54 195.71 335.68C197.11 335.36 197.96 336 198.82 336.43C207.93 340.61 216.93 345 226.14 349.07C228.39 350.14 229.68 351.54 230.43 353.89C231.29 356.89 232.46 359.79 234.07 363.75ZM229.46 359.14C228.5 354.43 227.86 352.5 226.36 351.75C217.68 347.68 209 343.71 199.89 339.43C200.54 344.14 202.14 347.14 206.32 348.54C209.32 349.5 212.11 351.11 215 352.5C219.71 354.64 224.43 356.89 229.46 359.14Z" /><path fill-rule="evenodd" class="shp1" d="M185 281.25C184.36 280.71 183.82 280.18 183.71 279.32C183.39 275.25 182.96 271.18 182.54 266.25C184.57 267.86 185.96 268.93 187.36 270.11C194.64 276.21 201.93 282.32 209.21 288.43C210.71 289.61 211.46 290.79 211.57 292.71C211.68 296.25 212 299.68 212.32 304.07C202.79 296.04 193.89 288.64 185 281.25ZM185.43 271.5C185.86 274.93 184.89 277.93 187.25 279.96C194.43 286.18 201.71 292.18 209.32 298.61C210.07 293.89 209 290.57 205.36 288C201.29 285.11 197.75 281.68 194 278.57C191.32 276.32 188.64 274.07 185.43 271.5Z" /><path fill-rule="evenodd" class="shp1" d="M272.96 363.64C272.54 362.79 272.86 362.04 273.18 361.29C277.14 350.79 281 340.29 284.86 329.79C284.96 329.46 285.18 329.25 285.71 328.61C287.54 332.46 289.14 336.21 290.86 339.86C291.18 340.82 290.96 341.68 290.64 342.54C286.79 353.25 282.82 363.86 278.96 374.46C278.86 374.57 278.64 374.68 278.11 375.11C276.29 371.14 274.57 367.39 272.96 363.64ZM278.32 369.54C281.43 361.18 284.11 352.93 287.43 345.11C289.25 340.82 287.75 337.82 285.5 334.18C282.39 342.43 279.82 350.46 276.5 358.07C274.68 362.46 275.64 365.68 278.32 369.54Z" /><path fill-rule="evenodd" class="shp1" d="M250.04 314.25C249.93 313.39 250.36 312.64 250.79 312C257.32 302.57 263.96 293.25 270.5 283.93C270.61 283.82 270.82 283.71 271.36 283.5C272.11 287.57 272.86 291.64 273.5 295.61C273.71 296.46 273.5 297.11 272.96 297.86C266.32 307.39 259.57 316.82 252.39 327.11C251.54 322.29 250.79 318.32 250.04 314.25ZM254 321C259.14 313.61 263.86 306.43 269.11 299.68C272 296.04 271.04 292.93 269.96 288.75C264.71 296.14 260.21 303.21 255.07 309.75C252.29 313.29 252.18 316.71 254 321Z" /><path fill-rule="evenodd" class="shp1" d="M241.04 272.36C240.82 272.57 240.39 272.68 239.75 272.89C240.18 268.71 240.61 264.75 240.93 260.79C241.04 259.71 241.68 258.96 242.54 258.32C251.11 251.25 259.57 244.07 268.14 237C268.36 236.79 268.68 236.79 269.32 236.46C269.54 240.86 268.68 244.93 268.36 249.11C268.36 249.64 267.71 250.29 267.18 250.71C258.5 257.89 249.82 265.18 241.04 272.36ZM242.75 268.07C249.71 262.29 256.04 256.71 262.79 251.57C266.32 248.79 267.07 245.68 266.43 241.18C259.46 247.07 252.93 252.75 246.18 258C242.75 260.68 242.64 263.89 242.75 268.07Z" /><path fill-rule="evenodd" class="shp1" d="M238.79 255.21C239.64 250.29 240.39 246.11 241.14 242.04C241.25 241.18 242 240.75 242.64 240.32C251.75 234 260.75 227.79 269.75 221.46C270.18 221.14 270.61 220.71 271.57 221.04C270.93 225 270.18 228.96 269.43 233.04C269.32 233.57 268.89 234.11 268.46 234.43C258.82 241.18 249.18 247.93 238.79 255.21ZM242.11 249.43C243.71 249.54 244.46 248.57 245.32 247.93C251.43 243.75 257.32 239.14 263.64 235.29C267.5 232.93 268.36 229.71 268.25 225.43C266.96 226.18 266 226.71 265.14 227.36C258.93 231.75 252.93 236.25 246.5 240.21C242.75 242.57 242.64 245.89 242.11 249.43Z" /><path fill-rule="evenodd" class="shp1" d="M307.36 403.18C308.32 392.14 309.39 381.11 310.36 370.07C310.46 369.64 310.68 369.32 311 368.46C313.68 371.79 316.25 374.89 318.82 377.89C319.46 378.64 319.46 379.5 319.36 380.46C318.29 391.93 317.32 403.39 316.25 415.93C312.93 412.07 310.25 408.86 307.57 405.54C307.14 405 307.25 404.04 307.36 403.18ZM313.79 409.29C314.86 408.43 314.54 407.36 314.64 406.39C315.29 399.21 315.71 392.04 316.68 384.86C317.32 380.46 316.04 377.14 312.07 374.14C311.32 382.93 311 391.39 309.71 399.75C309.07 404.25 311 406.82 313.79 409.29Z" /><path fill-rule="evenodd" class="shp1" d="M242.96 291C243.18 284.79 240.39 278.57 246.61 273.21C254.21 266.68 260.86 259.07 267.93 251.89C268.25 252.11 268.57 252.21 268.89 252.43C268.89 256.29 268.89 260.25 268.89 264.11C268.89 265.29 268.36 266.04 267.61 266.79C259.57 274.93 251.54 283.07 242.96 291ZM245.11 286.29C251.64 279.64 257.54 273.21 263.86 267.32C267.18 264.32 266.75 261.21 266.21 256.61C259.89 263.14 254.32 269.25 248.32 274.82C245 277.93 243.93 281.25 245.11 286.29Z" /><path fill-rule="evenodd" class="shp1" d="M188 239.57C183.93 235.29 182.43 230.89 183.71 225.32C184.04 223.71 184.04 222.11 184.14 220.5C185.54 220.29 185.86 221.46 186.5 222.21C193.14 230.04 199.68 237.86 206.32 245.57C207.82 247.29 208.46 248.89 208.14 251.14C207.71 254.46 207.5 257.68 207.07 262.07C200.32 254.04 194.54 246.54 188 239.57ZM188.54 236.68C190.79 238.82 192.5 241.39 194.54 243.75C197.96 247.82 201.39 251.89 204.82 255.96C204.82 252.96 207.18 250.18 204.93 247.5C198.93 240.32 192.82 233.14 186.5 225.64C184.89 230.14 185.32 233.57 188.54 236.68Z" /><path fill-rule="evenodd" class="shp1" d="M320.96 415.5C320.96 403.93 320.96 392.36 320.96 380.79C321.29 380.57 321.61 380.36 321.93 380.14C324.61 383.04 327.29 385.93 330.07 388.82C330.71 389.57 330.82 390.43 330.82 391.39C330.82 402.54 330.82 413.79 330.82 425.04C330.82 425.36 330.71 425.68 330.39 426.64C327.29 423.43 324.5 420.54 321.61 417.64C320.96 417 321.07 416.25 320.96 415.5ZM328.68 420.96C328.68 411.75 328.46 403.18 328.79 394.5C329 390.11 326.54 388.07 323.21 385.5C323.21 394.29 323.54 402.54 323.11 410.68C322.89 415.29 324.61 418.18 328.68 420.96Z" /><path fill-rule="evenodd" class="shp1" d="M231.39 110.68C230.64 107.68 231.29 105.32 233.11 103.07C234.93 100.82 236.32 98.46 238.46 95.46C239.64 101.79 240.61 107.25 241.57 112.71C242.43 117.21 242.96 121.82 244.04 126.21C244.89 129.64 244.25 132.32 242 135C240.29 136.93 239 139.18 237.07 141.96C235.89 135.54 234.93 129.75 233.86 124.07C233 119.57 232.57 114.96 231.39 110.68ZM234.07 112.29C234.71 114.11 234.82 116.04 235.14 117.96C236.11 123.75 237.18 129.54 238.36 135.96C240.18 133.5 242.54 131.89 242.21 129.43C240.82 120.32 239.11 111.21 237.39 101.68C233.75 104.79 232.68 108.11 234.07 112.29Z" /><path fill-rule="evenodd" class="shp1" d="M300.39 443.79C300.29 444.11 300.18 444.32 300.07 444.64C291.18 444.64 282.29 444.11 273.39 444.75C266.43 445.29 261.07 443.57 257.11 437.89C256.46 436.93 255.18 436.39 254.64 434.68C258.5 434.68 262.04 434.68 265.68 434.68C272.96 434.68 280.36 434.79 287.64 434.57C290.21 434.46 292.14 435.32 293.86 437.25C295.89 439.61 298.25 441.64 300.39 443.79ZM295.04 441.64C292.89 440.14 292.04 436.93 288.71 436.93C279.29 436.93 269.96 436.93 260.54 436.93C262.36 439.39 263.43 442.39 267.07 442.39C275.75 442.18 284.54 442.29 293.21 442.29C293.75 442.29 294.61 442.71 295.04 441.64Z" /><path fill-rule="evenodd" class="shp1" d="M182.54 255.54C182.54 251.57 182.54 247.61 182.54 243.64C182.86 243.43 183.18 243.21 183.5 243C185.75 245.57 187.89 248.14 190.25 250.61C195.61 256.07 201.07 261.54 206.54 266.89C208.25 268.5 209 270.21 208.89 272.57C208.79 275.79 208.89 279.11 208.89 283.07C200.11 274.29 191.86 266.14 183.71 258C183.07 257.36 182.54 256.61 182.54 255.54ZM184.57 249.21C185.43 251.79 183.5 254.68 185.86 257.04C192.61 263.79 199.25 270.43 206.32 277.5C207.29 273 206.64 269.68 203.32 266.68C197.64 261.54 192.5 255.86 187.04 250.5C186.5 249.96 186.07 248.79 184.57 249.21Z" /><path fill-rule="evenodd" class="shp1" d="M274.79 140.04C284.64 139.18 294.61 138.21 304.68 137.79C301.04 141.75 299.43 147.64 291.93 147.54C283.36 147.43 274.89 148.82 265.36 149.57C268.14 146.25 270.29 143.79 272.43 141.21C273.07 140.46 273.82 140.04 274.79 140.04ZM277.57 141.86C274.57 142.07 272.96 143.68 271.68 146.14C272.54 146.89 273.5 146.57 274.36 146.46C280.25 145.93 286.25 145.29 292.14 145.07C295.57 144.96 298.04 143.89 299.75 140.04C292.04 140.68 284.86 141.43 277.57 141.86Z" /><path fill-rule="evenodd" class="shp1" d="M390.82 457.07C388.89 452.25 386.96 447.32 384.93 442.18C388.68 442.18 392 442.29 395.32 442.18C396.93 442.18 397.57 442.93 398.11 444.21C401.11 450.96 404 457.61 407.11 464.25C407.86 465.96 407.75 466.82 405.61 466.61C405.5 466.61 405.39 466.61 405.29 466.61C394.68 467.04 394.68 467.04 390.82 457.07ZM404.43 464.14C401.96 458.79 399.5 453.96 397.57 448.82C396.39 445.39 394.57 444.21 391.04 444.54C388.79 444.64 388.14 444.96 389.11 447.21C390.71 450.75 392.11 454.39 393.5 458.04C396.29 464.89 396.29 464.89 404.43 464.14Z" /><path fill-rule="evenodd" class="shp1" d="M512.75 442.93C513.93 444.75 511.14 448.29 510.07 451.07C508.68 454.93 506.75 458.57 505.57 462.54C504.61 465.75 502.89 467.04 499.68 466.5C498.93 466.39 498.07 466.5 497.32 466.5C490.46 466.5 490.46 466.5 493.25 460.29C495.5 455.25 497.96 450.11 500.11 444.96C500.96 443.14 501.93 441.96 504.18 442.29C507.18 442.71 511.36 440.89 512.75 442.93ZM509.43 444.64C507.61 443.57 502.68 444.96 501.82 446.89C499.57 451.93 497.43 456.96 495.07 461.89C494.32 463.61 494.32 464.57 496.46 464.36C497.11 464.36 497.86 464.36 498.71 464.36C500.11 464.04 502.25 465.32 503.21 462.75C505.25 457.29 507.5 451.93 509.64 446.46C509.86 445.93 510.39 445.29 509.43 444.64Z" /><path fill-rule="evenodd" class="shp1" d="M477.82 466.71C477.07 466.61 476.21 466.71 475.46 466.71C468.5 466.71 468.5 466.71 471.29 460.5C473.64 455.14 476.21 449.89 478.46 444.54C479.11 442.93 480.07 442.18 481.79 442.39C485 442.71 489.39 441 490.89 443.14C492.18 444.86 489.18 448.61 488.11 451.5C486.71 455.25 484.89 458.79 483.71 462.64C482.75 465.75 481.14 467.25 477.82 466.71ZM481.25 462.43C483.18 457.18 485.43 452.04 487.46 446.79C487.79 446.14 488.32 445.5 487.79 444.86C487.04 443.89 480.82 444.64 480.29 445.93C477.71 451.5 475.25 457.07 472.79 462.54C472.14 464.04 472.68 464.36 474.07 464.36C474.82 464.36 475.68 464.36 476.64 464.36C478.25 464.14 480.29 465.21 481.25 462.43Z" /><path fill-rule="evenodd" class="shp1" d="M428.96 464.46C429.82 466.29 429.29 466.71 427.57 466.61C427.36 466.61 427.14 466.61 426.93 466.61C416.64 466.82 416.64 466.82 412.79 457.29C410.75 452.36 408.93 447.54 406.79 442.29C410.75 442.29 414.07 442.39 417.5 442.29C418.79 442.29 419.43 442.82 419.86 443.89C422.96 450.75 426.07 457.71 428.96 464.46ZM424.79 460.07C423.07 456.32 421.04 452.68 419.75 448.82C418.57 444.96 416.21 444.11 412.57 444.54C410.86 444.75 410.32 445.07 411.07 446.79C413 451.29 414.93 455.89 416.54 460.5C417.5 463.39 418.79 465.21 421.57 464.36C426.61 464.36 426.61 464.36 424.79 460.07Z" /><path fill-rule="evenodd" class="shp1" d="M246.93 101.36C246.82 100.18 246.93 99.21 247.79 98.25C249.71 96.11 251.64 93.86 254.11 90.96C254.86 99.64 255.5 107.36 256.36 115.07C256.68 118.07 256.14 120.54 253.79 122.68C252.39 123.96 251.21 125.57 250.04 126.96C248.86 126.43 249.07 125.57 248.96 124.82C248.21 117 247.57 109.18 246.93 101.36ZM249.39 103.07C250.04 109.07 250.46 115.18 251 121.61C253.68 120 254.64 118.07 254.11 115.39C253.79 113.57 253.79 111.75 253.57 109.93C253.14 105.64 252.71 101.46 252.29 96.86C249.82 98.68 249.07 100.5 249.39 103.07Z" /><path fill-rule="evenodd" class="shp1" d="M299.32 135.75C291.5 135.75 283.57 135.75 275 135.75C278.75 131.25 281.64 127.5 287.86 128.14C294.18 128.79 300.61 128.25 307.04 128.25C307.25 128.68 307.36 129 307.57 129.43C305.54 131.14 303.61 132.86 301.68 134.68C301.04 135.32 300.29 135.75 299.32 135.75ZM298.04 133.39C299.96 133.39 300.93 132.43 301.89 130.5C295.79 130.5 289.89 130.5 284 130.5C282.39 130.5 281.64 131.68 280.57 133.39C286.79 133.39 292.46 133.39 298.04 133.39Z" /><path fill-rule="evenodd" class="shp1" d="M501.39 501.64C501.82 502.07 502.36 502.29 503.75 503.14C502.46 503.68 501.93 503.89 501.5 504.21C498.18 506.79 494.75 509.46 491.54 512.14C490.46 513.11 489.71 513.11 488.75 511.93C485.86 508.18 482.96 504.54 479.86 501C478.79 499.82 479 499.07 480.07 498.21C480.07 498.21 480.18 498.11 480.29 498C482.75 495.64 485 491.68 487.79 491.25C490.57 490.82 493.04 495 495.71 497.04C497.54 498.43 499.36 500.14 501.39 501.64ZM498.93 503.25C498.61 502.71 498.39 502.39 498.07 502.07C494.96 499.5 491.96 496.93 488.86 494.36C488.21 493.82 487.68 493.93 487.04 494.36C482.11 497.36 481.57 499.82 485.21 504.21C485.32 504.21 485.32 504.32 485.43 504.43C490.25 510.21 490.25 510.21 496.25 505.39C497.11 504.64 497.96 503.89 498.93 503.25Z" /><path fill-rule="evenodd" class="shp1" d="M419.43 499.5C419.64 502.07 416.32 504 414.61 506.25C412.79 508.61 410.96 512.36 408.82 512.57C406.68 512.79 404.11 509.46 401.75 507.64C395.86 503.04 395.86 503.04 401.64 498.21C404.11 496.18 406.68 494.04 409.25 491.89C409.79 491.46 410.32 491.14 411.5 490.29C412.25 491.25 412.89 492.32 413.75 493.29C415.57 495.43 419 497.04 419.43 499.5ZM416.32 499.18C414.93 497.04 412.89 495.32 411.18 493.5C410.54 493.71 410.11 493.82 409.89 494.04C406.79 496.71 403.57 499.29 400.46 501.96C399.5 502.71 400.04 503.25 400.68 503.89C407.43 510.86 407.86 510.86 413.96 503.36C414.18 503.14 414.39 502.93 414.61 502.61C415.14 501.54 417.18 500.68 416.32 499.18Z" /><path fill-rule="evenodd" class="shp1" d="M259.57 115.07C259.57 108.54 259.25 101.89 259.79 95.36C260 92.79 263.11 91.29 265.79 89.57C265.79 95.89 266.11 102.32 265.68 108.64C265.46 111.75 261.93 113.04 259.57 115.07ZM262.36 109.5C263.64 107.46 264.07 99.54 263 95.14C261.71 96.86 261.29 105.21 262.36 109.5Z" /><path fill-rule="evenodd" class="shp1" d="M295.36 119.36C299.64 120.21 304.14 120.21 309.18 120.64C305.75 124.18 302.96 126.96 297.93 125.89C293.21 124.93 288.39 124.93 283.14 124.5C286.68 120.21 290.21 118.18 295.36 119.36ZM289.36 122.36C293.96 122.68 298.57 124.61 303.07 122.89C298.46 122.25 293.96 120.96 289.36 122.36Z" /><path fill-rule="evenodd" class="shp1" d="M478.89 336.21C475.14 342.11 471.07 347.79 467.32 353.68C466.14 355.39 465.39 355.5 463.89 354.21C459.82 350.68 455.54 347.46 451.46 343.93C449.96 342.54 449 342.64 447.5 343.93C443.43 347.46 439.14 350.68 435.07 354.21C433.46 355.61 432.71 355.29 431.64 353.68C427.89 347.68 423.82 341.89 419.96 335.89C419 334.29 418.14 333.96 416.54 335.04C412.25 337.71 407.86 340.18 403.57 342.86C401.43 344.25 400.14 344.46 398.96 341.79C397.46 338.57 395.43 335.57 393.82 332.46C392.96 330.96 392 330 390.18 329.79C386.96 329.36 383.75 328.29 380.43 327.96C376.79 327.64 376.46 326.04 377.32 322.93C378.61 318.54 379.36 313.93 380.43 309.54C380.96 307.39 380.64 306.32 378.18 305.68C371.43 304.07 364.89 302.04 358.25 300.32C356.21 299.79 355.79 299.04 356.64 297C358.79 292.07 360.61 286.93 362.64 282C363.29 280.29 363.07 279.32 361.46 278.36C356.96 275.57 352.57 272.57 348.07 269.89C346.04 268.71 345.71 267.75 347.32 265.82C351.61 260.68 355.68 255.21 360.07 250.07C361.57 248.36 361.57 247.29 359.64 245.79C355.57 242.46 351.82 238.82 347.75 235.39C346.25 234.11 346.25 233.36 347.54 232.07C350 229.61 352.25 226.71 354.82 224.36C356.75 222.64 357.07 220.71 356.75 218.25C356.21 214.93 356 211.5 355.46 208.07C355.14 206.14 355.68 205.39 357.71 205.29C362.96 204.96 368.21 204.32 373.46 203.89C375.61 203.79 376.57 203.14 376.36 200.57C375.71 193.82 375.5 187.07 374.86 180.32C374.64 177.86 375.39 177.11 377.86 177.43C380.54 177.86 383.11 177.86 385.79 178.07L385.79 177.96C386.75 177.96 387.61 178.07 388.57 178.07C396.29 178.5 396.18 178.5 398.21 171C399.18 167.46 400.25 163.93 401 160.39C401.43 158.36 402.18 158.14 404 158.89C410.21 161.57 416.64 164.04 422.96 166.82C425.32 167.89 426.29 167.36 427.14 165C429.07 160.07 431.32 155.25 433.36 150.43C434.11 148.61 434.96 147.96 436.89 149.04C440.32 150.75 443.75 152.14 447.18 153.86C448.79 154.61 450.07 154.71 451.68 153.86C455 152.14 458.43 150.86 461.64 149.14C463.68 148.07 464.64 148.39 465.5 150.54C467.54 155.57 469.79 160.39 471.82 165.43C472.57 167.46 473.54 167.79 475.57 166.93C481.79 164.14 488.21 161.79 494.54 159C496.79 158.04 497.32 158.89 497.86 160.82C499.04 165.86 500.64 170.79 501.71 175.82C502.25 178.39 503.43 178.82 505.79 178.61C510.82 178.07 515.86 177.96 520.89 177.54C523.04 177.32 523.89 177.75 523.68 180.21C523.04 187.07 522.82 193.93 522.18 200.79C521.96 203.14 522.93 203.68 524.96 203.89C530.32 204.32 535.68 204.96 541.04 205.39C543.07 205.61 543.71 206.25 543.29 208.18C543.18 208.82 543.07 209.57 542.96 210.21C541.25 221.68 541.25 221.68 549.07 230.04C552.82 234 552.82 234.11 548.75 237.64C545.43 240.54 542.21 243.43 538.89 246.21C537.39 247.61 537.18 248.46 538.57 250.07C543.07 255.43 547.25 261 551.75 266.36C553.14 268.07 553.04 268.82 551.11 270C546.5 272.79 542.11 275.89 537.5 278.68C536 279.64 535.57 280.61 536.32 282.32C538.36 287.25 540.18 292.39 542.21 297.32C543.07 299.36 542.64 300.11 540.61 300.64C533.86 302.36 527.11 304.39 520.36 306.11C518.32 306.64 517.89 307.39 518.43 309.43C519.71 314.25 520.57 319.29 521.86 324.11C522.61 326.79 521.75 327.64 519.18 328.07C515.64 328.5 512.21 329.46 508.68 330C506.75 330.21 505.79 331.18 505.04 332.68C503.32 335.79 501.5 338.79 499.89 342C498.82 344.25 497.86 344.79 495.61 343.29C491.43 340.5 486.82 338.25 482.64 335.46C480.71 334.18 479.86 334.61 478.89 336.21ZM536.75 251.25C535.46 249.64 534.71 249.75 533.32 251.04C526.25 257.46 518.96 263.79 511.79 270.21C510.93 271.07 510.07 271.71 510.39 273.11C512.64 282.96 514.89 292.71 517.04 302.57C517.25 303.54 517.46 304.39 518.75 304.07C525.5 302.14 532.14 300.32 538.89 298.39C540.61 297.86 539.54 296.79 539.21 295.93C537.39 291 535.57 286.07 533.54 281.25C532.79 279.54 533.11 278.68 534.71 277.71C539 275.04 543.18 272.14 547.46 269.57C549.5 268.39 549.93 267.54 548.21 265.5C544.25 260.89 540.5 256.18 536.75 251.25ZM445.46 315.64C448.36 313.93 450.29 313.82 453.18 315.54C466.89 323.89 480.82 331.93 494.54 340.18C497.11 341.68 498.39 341.46 499.36 338.79C502.14 330.86 507.5 326.46 516.07 326.46C519.5 326.46 519.82 324.86 519.18 321.86C515.54 306 512.11 290.14 508.46 274.29C507.93 272.04 508.36 270.64 510.18 269.04C522.5 258.21 534.71 247.29 547.04 236.46C549.07 234.64 549.82 233.36 547.36 231.54C540.61 226.5 537.93 220.18 540.61 211.93C540.71 211.61 540.61 211.29 540.71 210.43C541.68 208.18 540.18 207.86 537.93 207.64C521.86 206.14 505.79 204.54 489.71 203.14C486.61 202.93 485 201.86 483.71 198.86C477.39 183.86 470.75 169.07 464.43 154.07C463.57 151.82 462.61 151.18 460.57 152.57C453.29 157.82 445.89 158.04 438.61 152.68C436.46 151.18 435.5 151.82 434.43 154.18C428.11 169.18 421.46 183.96 415.14 198.96C413.86 202.07 412.14 202.82 409.04 203.14C392.75 204.54 376.57 206.25 360.39 207.75C358.36 207.86 357.39 208.29 358.04 210.54C360.71 219.21 358.68 226.5 351.07 231.96C349.25 233.36 349.57 234.43 351.29 235.93C363.61 246.64 375.82 257.57 388.14 268.39C390.29 270.21 390.93 271.93 390.29 274.82C386.64 290.57 383.21 306.32 379.68 322.07C379.14 324.54 379.14 326.25 382.36 326.25C391.04 326.36 396.82 330.54 399.61 338.79C400.46 341.25 401.64 341.57 404.11 340.07C417.82 331.71 431.64 323.68 445.46 315.64ZM377.54 182.46C377.96 188.89 378.39 195.21 378.82 201.64C378.93 202.82 379.14 203.46 380.64 203.36C390.39 202.39 400.25 201.43 410 200.46C411.39 200.36 412.14 199.61 412.68 198.32C416.43 189.54 420.18 180.86 424.04 172.18C424.79 170.57 424.36 169.82 422.75 169.18C416.96 166.93 411.29 164.57 405.61 162.11C403.46 161.14 402.82 161.68 402.29 163.71C401.11 168.64 399.61 173.57 398.43 178.61C398 180.43 397.14 180.96 395.32 180.86C391.36 180.54 387.29 180.32 383.32 180.11L383.32 180C382.14 180 381.07 180.11 379.89 180C378.07 179.79 377.21 180.32 377.54 182.46ZM381.5 302.57C383.64 292.71 385.89 282.96 388.04 273.11C388.57 271.82 387.61 271.18 386.86 270.54C379.46 264 372.07 257.57 364.79 250.93C363.61 249.75 362.86 249.86 361.89 251.14C358.04 256.18 353.96 261.21 349.89 266.14C348.71 267.64 349.04 268.29 350.54 269.25C354.82 271.93 359 274.82 363.29 277.39C365.32 278.57 365.96 279.64 364.89 282C362.86 286.61 361.14 291.32 359.32 296.04C358.79 297.32 358.36 298.29 360.29 298.82C366.61 300.43 372.82 302.25 379.14 303.96C380.43 304.29 381.29 304.18 381.5 302.57ZM474.71 172.82C478.46 181.07 482 189.32 485.54 197.68C486.39 199.71 487.57 200.46 489.61 200.68C498.93 201.54 508.36 202.39 517.68 203.36C519.39 203.46 519.71 202.93 519.82 201.32C520.25 195.54 520.68 189.64 521.11 183.54C521.75 180.86 520.79 179.68 517.57 180.11C513.07 180.64 508.57 180.54 504.18 180.96C501.5 181.18 500.32 180.43 499.79 177.75C498.82 173.04 497.32 168.54 496.25 163.82C495.71 161.68 494.96 161.36 492.93 162.21C487.46 164.57 482 166.82 476.43 168.96C474.29 169.71 473.75 170.46 474.71 172.82ZM476.11 331.61C467.64 326.68 459.29 321.75 450.93 316.71C449.75 315.96 448.79 315.86 447.5 316.61C439.14 321.64 430.57 326.68 422.11 331.61C420.5 332.57 420.29 333.32 421.36 334.82C425 340.07 428.43 345.21 431.86 350.57C433.04 352.29 433.89 352.07 435.29 350.89C439.14 347.57 443.21 344.57 446.96 341.25C448.79 339.75 449.86 339.86 451.57 341.36C455.32 344.68 459.18 347.68 463.04 350.79C463.68 351.32 464.32 351.75 464.86 352.18C465.82 351.96 466.14 351.32 466.46 350.79C470 345.43 473.54 340.07 477.18 334.82C478.25 333.21 477.71 332.57 476.11 331.61Z" /><path fill-rule="evenodd" class="shp1" d="M444.18 265.39C442.04 264.43 441.18 265.07 440 266.68C430.46 280.07 420.82 293.25 411.18 306.54C410.21 307.93 409.79 308.89 410.86 310.71C413.32 314.57 412.46 319.18 409.25 321.96C406.14 324.54 401.75 324.86 398.43 322.5C395 320.14 393.82 315.54 395.43 311.79C397.14 307.82 401 305.89 405.61 306.86C407.32 307.18 408.18 306.86 409.25 305.46C418.89 291.96 428.75 278.46 438.5 265.07C439.46 263.68 439.89 262.82 438.5 261.32C435.82 258.43 434.64 254.79 435.18 250.82C435.39 249 434.64 248.46 433.14 247.93C417.07 242.79 401.11 237.64 385.14 232.29C382.79 231.54 382.36 232.93 381.29 234C377.86 237.54 372.39 237.64 368.86 234.32C365.54 231.21 365.32 225.75 368.32 222.21C371.43 218.68 377 218.25 380.64 221.36C382.36 222.75 383.64 224.68 383.54 226.93C383.43 229.39 384.71 229.93 386.64 230.57C402.18 235.5 417.61 240.54 433.04 245.68C435.07 246.32 436.25 246.32 437.43 244.18C439.14 241.18 441.93 238.93 445.25 238.39C448.14 237.86 448.25 236.36 448.25 234.11C448.25 226.07 448.25 218.04 448.25 210C448.25 201.75 448.14 193.5 448.25 185.25C448.25 183.54 447.93 182.68 446.11 181.93C441.71 180.11 439.68 176.04 440.75 171.64C441.61 167.89 445.36 165 449.32 165C453.39 165 457.04 167.89 457.89 171.75C458.96 176.14 456.82 180.32 452.43 182.04C450.82 182.68 450.5 183.54 450.5 185.04C450.5 201.75 450.5 218.57 450.5 235.29C450.5 236.79 450.5 237.86 452.43 238.18C456.5 238.93 459.61 241.29 461.64 244.82C462.39 246.11 463.14 246.54 464.64 246C480.71 240.64 496.89 235.5 512.96 230.25C514.36 229.82 514.89 229.07 515 227.57C515.43 222.64 518.32 219.64 522.61 219.21C527 218.79 530.64 221.14 532.04 225.11C533.32 229.07 531.71 233.36 528.07 235.5C524.21 237.75 519.93 236.89 516.71 233.14C515.75 231.96 515 231.86 513.61 232.29C497.64 237.54 481.68 242.79 465.61 247.93C463.89 248.46 463.36 249.21 463.57 250.82C463.89 254.89 462.71 258.54 459.93 261.54C458.96 262.61 458.96 263.25 459.82 264.43C469.79 278.14 479.75 291.86 489.61 305.68C491 307.61 492.29 306.75 493.79 306.54C497.75 305.89 501.39 307.82 503.11 311.36C504.71 315 503.86 319.18 500.96 321.75C498.07 324.32 493.79 324.75 490.46 322.61C486.5 320.14 485.11 315 487.57 310.93C488.64 309.11 488.64 308.04 487.46 306.43C477.82 293.25 468.18 279.96 458.64 266.68C457.46 265.07 456.61 264.32 454.46 265.29C451.14 266.79 447.5 266.79 444.18 265.39ZM488.75 315.32C488.86 318.96 491.86 321.86 495.39 321.75C498.93 321.64 501.93 318.54 501.82 315C501.71 311.36 498.71 308.57 495.07 308.68C491.43 308.79 488.64 311.68 488.75 315.32ZM517.04 228C517.14 231.64 520.14 234.54 523.68 234.43C527.21 234.43 530.21 231.32 530.11 227.79C530.11 224.14 527.11 221.36 523.46 221.36C519.82 221.36 516.93 224.36 517.04 228ZM381.5 227.68C381.5 224.14 378.39 221.25 374.75 221.36C371.11 221.46 368.32 224.46 368.43 228.11C368.54 231.64 371.64 234.54 375.18 234.43C378.71 234.32 381.61 231.32 381.5 227.68ZM409.89 315.11C409.79 311.46 406.89 308.57 403.25 308.68C399.61 308.79 396.71 311.79 396.82 315.32C396.82 318.75 399.93 321.86 403.46 321.75C407.11 321.64 409.89 318.75 409.89 315.11ZM449.21 180.21C452.96 180.32 455.75 177.64 455.86 174C455.96 170.46 452.96 167.36 449.43 167.25C445.89 167.14 442.89 170.04 442.79 173.68C442.68 177.43 445.36 180.11 449.21 180.21ZM449.32 264.11C455.96 264.11 461.54 258.54 461.43 251.79C461.32 245.25 455.86 240 449.21 240C442.57 240 437.32 245.25 437.32 252C437.32 258.64 442.68 264 449.32 264.11Z" /><path fill-rule="evenodd" class="shp1" d="M431.96 305.57C431.54 307.18 431.54 308.46 433.04 309.75C435.5 312 435.93 314.89 434.11 317.79C432.39 320.46 429.82 321.64 426.71 320.68C423.61 319.71 422 317.57 422 314.36C422 310.93 423.82 308.68 427.14 308.04C428.86 307.71 429.61 306.86 430.04 305.25C431.54 300.21 433.25 295.18 434.86 290.14C435.18 290.25 435.61 290.36 435.93 290.46C434.64 295.5 433.25 300.54 431.96 305.57ZM428.32 310.07C425.75 310.18 424.36 311.68 424.25 314.25C424.14 316.71 426.07 318.64 428.54 318.64C431 318.64 432.82 316.71 432.82 314.04C432.5 311.57 431 310.07 428.32 310.07Z" /><path fill-rule="evenodd" class="shp1" d="M520.04 246.96C522.61 249.75 522.39 254.04 519.5 256.5C516.61 259.07 511.68 258.64 509.96 255.21C508.57 252.43 506.64 252.21 504.29 252C499.57 251.57 494.75 252 490.14 250.18C494.54 250.18 498.93 250.18 503.32 250.18C506.11 250.18 508.57 250.61 510.39 247.18C512.21 243.75 517.25 244.07 520.04 246.96ZM519.5 251.57C519.29 248.79 517.79 247.18 515.21 247.18C512.64 247.18 510.93 248.68 510.93 251.46C510.93 254.25 512.54 255.75 515.11 255.75C517.79 255.75 519.18 254.14 519.5 251.57Z" /><path fill-rule="evenodd" class="shp1" d="M461 213C460.68 212.89 460.36 212.79 460.04 212.68C461.54 208.07 463.04 203.46 464.64 198.96C465.39 196.71 465.71 195 463.79 192.86C461.21 189.96 462.61 185.25 465.93 183.43C469.36 181.61 473.54 183 475.14 186.54C476.75 190.18 475.04 194.57 471.18 195.32C468.07 195.86 467.11 197.68 466.14 200.25C464.54 204.54 462.71 208.82 461 213ZM469.25 193.39C471.82 193.5 473.21 191.79 473.43 189.32C473.54 186.96 471.61 184.93 468.71 184.93C466.46 185.14 464.86 186.43 464.86 189.21C464.86 192.11 466.68 193.39 469.25 193.39Z" /><path fill-rule="evenodd" class="shp1" d="M483.5 228.11C487.36 225 491 221.89 494.75 218.89C496.25 217.71 496.79 216.75 496.46 214.82C495.82 211.5 497.21 208.93 500.43 207.64C503.43 206.36 506.11 207.21 508.04 209.79C509.96 212.36 509.86 215.14 507.93 217.71C505.89 220.39 503 221.04 500 219.54C498.29 218.68 497.32 219.21 496.14 220.18C493.14 222.43 490.14 224.68 487.04 226.93C486.07 227.68 485.21 228.75 483.5 228.11ZM502.46 218.04C504.93 218.25 506.96 216.54 507.07 214.07C507.29 211.61 505.46 209.57 503 209.57C500.43 209.57 498.82 210.75 498.5 213.32C498.29 215.68 500.11 217.82 502.46 218.04Z" /><path fill-rule="evenodd" class="shp1" d="M422.86 189.43C422.64 186.32 424.14 184.07 427.04 183C430.04 181.93 432.71 182.57 434.75 185.25C436.57 187.82 436.57 191.04 434.32 193.5C432.93 195 433.04 196.18 433.57 197.79C435.29 202.71 436.89 207.75 438.5 212.68C438.18 212.79 437.86 212.89 437.54 213C435.61 208.29 433.68 203.57 431.86 198.75C431.21 197.04 430.57 195.96 428.43 195.64C425.11 195.21 423.07 192.96 422.86 189.43ZM425.21 189.32C425.11 191.68 427.25 193.71 429.61 193.5C432.18 193.29 433.79 191.89 433.89 189.43C433.79 186.75 431.86 184.82 429.39 184.93C426.61 185.04 425.21 186.75 425.21 189.32Z" /><path fill-rule="evenodd" class="shp1" d="M389.11 214.18C388.79 210.54 391.89 207.21 395.54 207.11C399.18 207 402.71 210.11 402.07 213.86C401.54 216.86 402.93 218.25 404.86 219.75C408.61 222.64 412.14 225.75 415.79 228.75C415.57 229.07 415.36 229.29 415.14 229.61C411.82 227.14 408.5 224.79 405.18 222.21C402.71 220.29 400.57 218.57 396.82 220.07C393.18 221.46 389.43 218.14 389.11 214.18ZM391.46 213.75C391.46 216.21 393.5 218.14 395.96 218.04C398.32 218.04 400.36 215.89 400.14 213.54C399.93 210.96 398.43 209.57 395.86 209.46C393.39 209.36 391.36 211.39 391.46 213.75Z" /><path fill-rule="evenodd" class="shp1" d="M476.54 314.25C476.64 317.57 475.04 319.71 471.93 320.68C468.82 321.64 466.25 320.57 464.54 317.89C462.71 315.21 462.93 312.21 465.29 310.07C467.11 308.36 466.89 306.96 466.36 304.93C464.96 300.11 463.79 295.29 462.61 290.46C463.04 290.36 463.36 290.36 463.79 290.25C465.39 295.07 466.89 300 468.39 304.82C468.93 306.54 469.57 307.82 471.71 308.14C474.82 308.68 476.54 310.93 476.54 314.25ZM474.39 314.46C474.39 311.89 473 310.18 470.21 310.18C467.54 310.18 465.93 311.68 465.82 314.36C465.82 316.93 467.32 318.54 470.21 318.75C472.57 318.43 474.39 317.14 474.39 314.46Z" /><path fill-rule="evenodd" class="shp1" d="M391.04 294.54C389.32 292.07 389.43 289.39 391.36 286.93C393.39 284.36 396.29 283.61 398.96 285.11C401.32 286.39 402.61 285.75 404.43 284.57C407.75 282.43 411.07 280.29 414.5 278.14C415.25 277.71 416 276.86 418.14 277.18C413.54 280.5 409.57 283.39 405.61 286.07C403.68 287.36 402.5 288.54 402.82 291.21C403.14 294.32 401.11 296.57 398 297.43C395 298.29 392.54 297.11 391.04 294.54ZM396.18 295.29C398.64 295.29 400.89 293.25 400.68 291C400.36 288.54 399.07 286.71 396.29 286.71C393.61 286.71 392 288.32 392 291C392 293.68 393.71 295.07 396.18 295.29Z" /><path fill-rule="evenodd" class="shp1" d="M393.18 252.21C391.25 252.43 389.96 252.75 389 254.79C387.61 257.68 384.82 258.64 381.71 257.89C378.61 257.14 376.89 254.89 376.79 251.68C376.79 248.46 378.39 246.21 381.5 245.25C384.61 244.29 387.39 245.25 388.89 248.04C389.96 249.96 391.14 250.39 393.18 250.29C397.25 250.07 401.43 250.07 405.5 250.07C406.46 250.07 407.54 249.64 408.5 250.82C403.36 251.89 398.21 251.57 393.18 252.21ZM387.71 251.79C387.71 249 385.68 246.96 383.32 247.07C381.07 247.18 378.93 249.32 379.14 251.57C379.36 254.14 380.86 255.86 383.54 255.75C386.21 255.64 387.61 253.93 387.71 251.79Z" /><path fill-rule="evenodd" class="shp1" d="M507.07 286.71C509.21 289.18 509.54 291.96 507.71 294.64C506 297.32 503.43 298.39 500.32 297.43C497.11 296.36 495.29 294 495.71 290.68C495.93 288.54 495.07 287.57 493.57 286.5C489.39 283.61 485.32 280.61 481.14 277.61C481.46 277.39 481.68 277.07 481.89 276.75C486.29 279.54 490.68 282.32 495.07 285.11C496.36 285.96 497.43 286.39 499.04 285.43C501.93 283.71 504.82 284.14 507.07 286.71ZM506.64 291.21C506.64 288.64 505.14 286.93 502.46 286.82C499.68 286.61 498.29 288.32 497.96 290.89C497.64 293.25 499.68 295.29 502.25 295.39C504.71 295.29 506.43 293.79 506.64 291.21Z" /><path fill-rule="evenodd" class="shp1" d="M283.04 102.86C283.89 101.68 285.18 100.82 285.5 99C284 98.79 283.25 99.96 282.39 100.71C262.25 118.18 247.46 139.5 237.07 163.82C224 194.25 219.18 226.39 219.61 259.39C219.93 288.11 224 316.18 235.14 342.96C248.96 375.96 270.61 402.96 298.04 425.57C322.89 446.04 350.43 461.79 380.64 472.71C382.14 473.25 383.75 473.79 385.25 474.21C386.21 474.54 386.75 474.86 386.43 475.93C386.11 477 385.25 476.68 384.71 476.46C382.57 475.39 382.25 477 381.61 478.39C376.57 489.64 371.54 500.89 366.61 512.25C365.54 514.61 364.57 515.25 362 514.5C354.71 512.36 347.86 509.36 340.89 506.36C339.5 505.71 339.07 504.86 339.07 503.46C339.18 496.39 339.18 489.21 339.07 482.14C339.07 479.89 340.25 479.57 341.96 479.25C351.5 477.21 361.04 475.18 370.57 473.14C371 473.04 371.54 472.82 372.07 472.71C360.93 467.46 350.11 462.32 339.61 456.43C303.71 436.29 272.86 410.57 250.14 375.75C232.46 348.75 222.29 318.96 219.07 286.82C215.86 254.68 217.04 222.75 225.39 191.36C234.5 157.39 250.68 127.5 276.39 103.29C280.57 99.43 285.18 95.89 289.57 92.25C290.64 91.39 292.04 90.21 293.21 91.39C294.5 92.68 293.54 94.18 292.57 95.36C288.5 100.61 284.11 105.64 280.14 111C256.68 143.25 243.07 179.36 237.07 218.68C230.96 258.96 235.57 297.96 251.43 335.46C267.93 374.68 294.93 405.21 329.75 429.11C346.68 440.79 364.79 450.32 384.18 457.29C385.14 457.71 387.18 457.5 386.43 459.43C385.79 461.14 384.39 459.75 383.54 459.43C356.21 449.57 331.68 435.21 309.5 416.68C274.25 387.21 250.36 350.46 238.89 305.79C229.04 267.43 230.43 229.29 240.18 191.25C248.43 158.89 262.46 129.32 283.04 102.86ZM373.68 474.96C366.61 476.46 359.43 477.96 352.25 479.46C348.82 480.21 344.32 480 342.29 482.14C340.04 484.5 341.86 489.11 341.54 492.11C341.54 495.86 341.54 498.96 341.54 502.07C341.43 503.46 341.64 504.43 343.14 505.07C349.14 507.64 355.14 510.11 361.36 512.14C363.29 512.79 364.25 512.25 365 510.43C369.71 499.61 374.64 488.68 379.46 477.86C380.54 475.29 379.89 474.32 377.11 474.43C376.04 474.43 374.86 474.75 373.68 474.96Z" /><path fill-rule="evenodd" class="shp1" d="M663.18 368.68C673.89 364.82 684.61 360.96 696.39 356.68C694.79 360.21 693.39 363 692.32 365.79C691.25 368.46 689.64 369.86 686.86 370.82C678.71 373.5 670.68 376.61 662.64 379.5C660.5 380.36 658.36 381.11 655.46 382.07C657.5 377.89 659.11 374.36 660.71 370.82C661.25 369.64 662.11 369.11 663.18 368.68ZM667.57 369.43C663.18 370.61 661.46 373.61 660.18 378C662.64 377.14 664.57 376.5 666.61 375.75C672.5 373.61 678.39 371.14 684.39 369.43C688.79 368.14 690.61 365.25 691.68 360.86C688.57 361.93 685.89 362.89 683.11 363.86C677.96 365.79 672.93 367.93 667.57 369.43Z" /><path fill-rule="evenodd" class="shp1" d="M649.04 188.46C650.86 192.21 652.57 195.96 654.71 200.46C642.82 196.18 631.89 192.32 620.96 188.36C620.21 188.04 619.46 187.61 619.14 186.86C617.43 183.11 615.71 179.46 614 175.71C614.54 175.61 614.75 175.39 614.96 175.5C625.68 179.36 636.5 183.21 647.21 187.07C647.96 187.29 648.71 187.61 649.04 188.46ZM649.79 195.64C648.71 191.89 647.21 189 642.93 187.71C634.79 185.25 626.96 182.14 618.5 179.14C619.68 183.86 621.61 186.54 626 187.82C632.86 189.75 639.61 192.64 646.36 195C647.32 195.43 648.39 196.18 649.79 195.64Z" /><path fill-rule="evenodd" class="shp1" d="M642.71 171.64C644.86 175.07 646.89 178.61 649.04 182.36C648.18 182.36 647.86 182.46 647.54 182.36C636.71 179.46 625.79 176.68 614.96 173.79C614 173.57 613.25 173.14 612.71 172.29C610.79 168.86 608.75 165.32 606.29 161.04C618.61 164.36 629.86 167.36 641.11 170.36C641.86 170.57 642.39 170.79 642.71 171.64ZM644.11 178.5C642.61 174.64 640.57 172.07 636.18 171.11C628.04 169.39 620 167.04 611.54 164.79C613.04 169.61 615.71 171.86 620.32 172.82C627.5 174.32 634.46 176.46 641.54 178.39C642.29 178.61 643.04 178.93 644.11 178.5Z" /><path fill-rule="evenodd" class="shp1" d="M688.57 203.57C693.71 194.79 698.75 185.89 703.89 177.11C704.43 176.25 704.64 175.07 705.93 174.86C706.25 176.04 706.46 177.21 706.89 178.18C710 184.61 708.71 190.18 704.75 195.96C699.82 203.25 695.75 211.29 690.82 219.75C689.64 215.57 688.89 212.25 687.82 209.04C687.18 207 687.5 205.39 688.57 203.57ZM691.57 213C692.96 212.79 693.07 211.39 693.61 210.54C697.36 204.11 700.68 197.46 704.86 191.25C707.43 187.5 706.46 184.39 704.86 180.11C703.46 182.57 702.29 184.5 701.21 186.43C698.21 191.46 695.64 196.71 692.32 201.54C689.64 205.39 689.43 208.93 691.57 213Z" /><path fill-rule="evenodd" class="shp1" d="M653.96 206.04C655.36 209.89 656.75 213.75 658.25 217.82C657.5 217.82 657.07 217.82 656.86 217.71C646.57 212.89 636.29 208.18 626 203.46C625.36 203.14 624.61 202.82 624.29 201.96C622.89 198.11 621.5 194.25 619.79 189.54C631.25 194.89 641.75 199.71 652.25 204.54C653 204.96 653.64 205.18 653.96 206.04ZM654.29 213.96C653 210.21 653 207 649.04 205.39C640.79 201.96 632.75 198.11 624.29 194.14C624.93 198.86 626.64 201.64 630.71 203.25C638.43 206.46 645.93 210.21 654.29 213.96Z" /><path fill-rule="evenodd" class="shp1" d="M635.32 419.14C643.57 418.39 651.82 417.64 660.93 416.89C658.57 419.89 656.54 422.04 654.82 424.39C653.11 426.86 651.18 428.14 648.07 428.14C644.86 428.14 641.75 428.68 638.54 429C631.04 429.64 623.43 430.29 615.39 430.93C620 424.29 624.18 418.18 633.07 419.46C633.82 419.57 634.68 419.25 635.32 419.14ZM655.89 419.57C645.39 420.43 635.86 421.29 626.32 422.25C623.43 422.57 622.68 425.57 620.54 427.82C625.89 428.14 630.61 427.18 635.32 426.96C639.93 426.75 644.43 426.11 649.04 425.79C652.68 425.46 653.21 422.14 655.89 419.57Z" /><path fill-rule="evenodd" class="shp1" d="M662.75 384.11C670.36 382.07 677.96 380.04 686.43 377.79C684.29 381.54 682.57 384.21 681.18 387.11C680.21 389.25 678.71 390.32 676.36 390.86C669.07 392.68 661.79 394.82 654.5 396.64C651.07 397.5 647.86 398.89 644 399.11C647.21 392.14 650.11 385.39 659.11 385.07C660.29 384.96 661.46 384.43 662.75 384.11ZM681.71 381.43C674.32 383.36 667.68 385.07 660.93 386.89C659.54 387.21 658.14 387.86 656.64 387.96C652.25 388.39 650.21 391.29 648.71 395.79C658.57 393.21 667.79 390.86 677 388.18C679.57 387.43 680 384.21 681.71 381.43Z" /><path fill-rule="evenodd" class="shp1" d="M635 154.82C637.36 158.25 639.82 161.68 642.61 165.64C630.39 163.5 618.93 161.57 607.46 159.54C606.61 159.43 605.86 159.32 605.32 158.57C602.86 155.14 600.39 151.82 597.61 147.75C610.04 150 621.61 151.93 633.18 153.96C633.93 154.07 634.57 154.29 635 154.82ZM637.14 162.54C635.32 158.46 633.39 155.89 629 155.36C620.54 154.29 612.07 152.57 603.29 151.07C605.11 155.79 608.11 157.71 612.71 158.25C620.75 159.32 628.68 160.93 637.14 162.54Z" /><path fill-rule="evenodd" class="shp1" d="M691.25 225.96C698 216.43 704.64 206.89 711.93 196.5C712.68 201.54 713.43 205.5 714.07 209.57C714.29 210.75 713.54 211.5 713 212.36C706.79 221.14 700.68 229.93 694.46 238.71C694.04 239.25 693.82 240.32 692.64 239.89C691.89 236.14 691.36 232.5 690.61 228.75C690.39 227.68 690.5 226.82 691.25 225.96ZM693.93 234.11C695.32 234.11 695.54 232.93 696.07 232.18C700.57 225.86 704.75 219.32 709.57 213.21C712.36 209.68 711.39 206.57 710.21 202.61C704.43 210.86 698.96 218.68 693.5 226.5C692.43 227.89 692.64 228.54 693.93 234.11Z" /><path fill-rule="evenodd" class="shp1" d="M676.68 162.43C679.68 154.5 682.57 146.57 685.46 138.64C686.32 136.29 687.18 133.82 688.36 130.61C690.18 134.46 691.57 137.57 693.07 140.57C694.04 142.5 694.04 144.11 693.29 146.14C690.5 153.43 687.82 160.93 685.14 168.32C684.07 171.43 682.89 174.43 681.5 178.29C679.79 174.64 678.5 171.64 676.89 168.75C675.71 166.71 675.82 164.79 676.68 162.43ZM681.39 172.07C683.11 167.68 684.61 163.39 686.21 159.11C687.39 155.79 688.25 152.25 689.86 149.14C692 144.86 691.68 141.11 688.36 137.14C687.29 140.14 686.32 142.93 685.25 145.71C683.43 150.75 681.93 156 679.68 160.82C677.64 165 678.5 168.43 681.39 172.07Z" /><path fill-rule="evenodd" class="shp1" d="M657.93 227.04C658.25 230.04 659.96 232.93 659.96 236.46C649.57 230.46 639.5 224.68 629.54 218.89C628.79 218.36 628.04 217.82 627.82 216.86C626.86 213 625.89 209.14 624.82 205.18C626.43 205.29 627.39 206.14 628.46 206.79C636.39 211.29 644.21 215.79 652.04 220.29C654.82 221.89 657.71 223.18 657.93 227.04ZM656.64 231.75C656.11 227.57 655.46 224.36 651.39 222.32C643.68 218.46 636.39 213.86 628.68 209.46C628.68 214.61 630.82 217.39 635 219.54C642.29 223.29 649.14 227.57 656.64 231.75Z" /><path fill-rule="evenodd" class="shp1" d="M668.43 140.79C669.82 136.71 670.68 132.43 671.86 128.25C673.36 122.46 674.96 116.79 676.68 110.46C679.04 114.54 680.96 117.86 683 121.18C683.64 122.25 683.75 123.11 683.43 124.18C680.43 135.43 677.43 146.68 674.21 158.57C672.5 155.79 671.32 153.43 669.82 151.39C667.36 148.07 667.14 144.64 668.43 140.79ZM673.46 152.57C676.14 142.61 678.82 133.29 681.07 123.86C681.71 121.07 679.04 119.36 677.54 116.25C674.75 126.32 672.18 135.43 669.93 144.64C669.18 147.75 671.86 149.68 673.46 152.57Z" /><path fill-rule="evenodd" class="shp1" d="M697.36 320.04C701.64 317.57 705.82 315.21 710.64 312.43C708.93 319.82 708.71 327.11 700.36 330C697.25 330.96 694.57 333.21 691.68 334.82C686.43 337.93 681.07 340.93 674.96 344.46C676.04 340.39 677.11 337.18 677.75 333.86C678.18 331.61 679.36 330.32 681.29 329.25C686.64 326.25 692 323.14 697.36 320.04ZM706.89 317.25C701.43 320.36 696.29 323.36 691.14 326.25C689.11 327.32 687.29 328.71 685.14 329.57C680.64 331.39 679.25 334.82 678.82 339.64C686.54 335.25 693.93 330.75 701.54 326.79C705.5 324.64 706.36 321.54 706.89 317.25Z" /><path fill-rule="evenodd" class="shp1" d="M599 355.39C601.14 367.93 603.18 379.5 605.21 391.07C605.32 391.61 605.32 392.25 605 392.68C602.75 396.21 600.39 399.54 597.5 403.71C595.25 391.29 593.21 379.82 591.18 368.36C591.07 367.29 591.29 366.32 591.93 365.46C594.07 362.46 596.21 359.36 599 355.39ZM602.43 387.11C600.5 378.86 599.43 370.5 597.82 361.61C595.04 364.61 592.89 366.96 593.86 371.36C595.68 379.29 596.86 387.32 598.25 395.36C598.36 395.89 598.68 396.43 598.89 397.18C601.79 394.18 603.5 391.5 602.43 387.11Z" /><path fill-rule="evenodd" class="shp1" d="M683.43 183C687.82 173.79 692.11 164.57 696.39 155.36C696.82 154.5 696.93 153.32 698.32 152.89C699.71 156.64 701.11 160.29 702.5 164.04C702.71 164.79 702.61 165.54 702.29 166.29C697.25 177 692.32 187.61 687.07 198.96C685.68 195.11 684.71 191.89 683.32 188.79C682.46 186.75 682.57 184.93 683.43 183ZM687.29 193.07C689.96 187.5 692.21 182.68 694.46 177.86C695.75 175.18 696.93 172.5 698.21 169.82C700.79 164.36 700.79 164.36 697.57 158.25C693.5 167.25 689.43 175.82 685.46 184.39C683.96 187.39 686.54 189.64 687.29 193.07Z" /><path fill-rule="evenodd" class="shp1" d="M655.36 401.36C661.36 400.29 667.46 399.21 674.43 398.04C671.64 402.21 669.29 405.54 666.93 408.86C666.29 409.71 665.11 409.71 664.14 409.93C657.93 411 651.61 412.18 645.29 413.25C640.46 414.11 635.54 414.86 629.86 415.82C632.21 412.5 634.25 409.93 635.86 407.25C637.14 405 638.86 404.04 641.32 403.71C646.14 402.96 650.86 402.11 655.36 401.36ZM669.39 401.25C662 402.54 655.46 403.61 648.82 404.79C647.32 405 645.93 405.54 644.43 405.54C639.82 405.54 637.14 408.11 635.32 412.61C645.07 411 654.39 409.39 663.71 407.68C666.82 407.04 667.36 403.93 669.39 401.25Z" /><path fill-rule="evenodd" class="shp1" d="M652.14 308.14C644.86 299.57 637.68 291 630.39 282.43C629.86 281.79 629.21 281.14 629.32 280.29C629.96 276.21 629.75 271.93 630.93 267.54C638.75 276.75 646.14 285.64 653.64 294.43C654.18 295.07 654.71 295.71 654.61 296.57C654.18 300.64 653.75 304.61 653.32 309C652.57 308.57 652.25 308.36 652.14 308.14ZM648.82 292.07C644 287.14 639.82 281.68 635.43 276.43C634.57 275.46 633.82 274.61 632.64 273.32C631.68 277.39 631.25 280.5 634.14 283.61C639.93 289.93 645.39 296.79 651.29 303.75C652.79 298.82 651.93 295.39 648.82 292.07Z" /><path fill-rule="evenodd" class="shp1" d="M631.57 360.32C626.32 348.96 621.39 338.57 616.46 328.07C616.04 327 615.82 326.14 616.25 325.07C617.64 321.43 619.04 317.68 620.43 313.93C620.86 314.25 621.07 314.36 621.18 314.57C626 324.96 630.93 335.25 635.75 345.64C636.18 346.5 636.29 347.46 635.96 348.32C634.57 352.07 633.29 355.82 631.57 360.32ZM631.14 353.89C634.36 348.32 634.36 348.11 631.89 342.75C628.46 335.25 624.93 327.64 621.18 319.71C618.5 323.89 618.18 327.21 620.32 331.18C624.18 338.46 627.5 346.18 631.14 353.89Z" /><path fill-rule="evenodd" class="shp1" d="M640.04 343.18C633.93 333.21 628.14 323.25 622.36 313.29C621.82 312.43 621.61 311.46 621.93 310.39C623 306.64 623.96 302.89 625.14 298.29C630.61 307.61 635.21 316.61 640.89 324.86C645.71 331.71 641.54 337.18 640.04 343.18ZM639.18 337.93C641.64 333.54 641.43 330.11 638.96 326.25C634.46 319.29 630.61 312.11 626.43 304.82C623.64 309.86 623.64 311.04 626.32 315.54C630.61 322.82 634.79 330.21 639.18 337.93Z" /><path fill-rule="evenodd" class="shp1" d="M610.25 390.21C606.93 378.11 603.93 366.75 600.82 355.39C600.61 354.64 600.61 353.89 601.04 353.14C603.07 349.71 605 346.29 607.46 342.11C610.68 354 613.68 365.04 616.68 376.07C616.89 377.04 617.11 378.11 616.57 379.07C614.54 382.61 612.5 386.14 610.25 390.21ZM603.82 358.61C606.39 366.75 608.43 375.21 610.79 383.89C613.68 380.46 615.07 377.46 613.57 373.07C610.89 365.14 609.07 357 606.71 348.21C604.04 351.75 602.43 354.54 603.82 358.61Z" /><path fill-rule="evenodd" class="shp1" d="M715.04 290.14C714.5 293.36 713.64 296.57 713.32 299.89C713 302.46 711.82 303.96 709.79 305.36C701.64 310.93 693.61 316.71 685.57 322.29C684.61 322.93 683.75 324 682.14 324C682.89 320.46 683.64 317.04 684.07 313.5C684.29 311.46 685.25 310.18 686.86 309.11C695.43 303.21 703.89 297.21 712.46 291.21C713.21 290.68 713.75 289.93 715.04 290.14ZM711.5 294.64C707.96 297.11 704.54 299.46 701.21 301.82C697.68 304.18 694.36 306.86 690.71 309C686.86 311.25 685.46 314.36 685.68 318.64C686.75 319.07 687.29 318.11 687.93 317.68C694.14 313.39 700.36 309.11 706.57 304.71C711.18 301.5 711.39 301.07 711.5 294.64Z" /><path fill-rule="evenodd" class="shp1" d="M704.43 335.57C702.93 339.54 701.54 343.18 700.25 346.93C699.93 347.79 699.39 348.21 698.64 348.54C688.04 353.36 677.54 358.29 666.07 363.64C667.46 359.79 668.75 356.79 669.61 353.79C670.25 351.43 671.54 350.04 673.89 348.96C683 344.89 692.11 340.5 701.21 336.32C702.07 336 702.93 335.25 704.43 335.57ZM700.14 339.43C691.04 343.61 682.36 347.68 673.68 351.75C672.18 352.5 671.43 354.43 670.57 359.14C675.5 356.89 680.21 354.64 684.93 352.5C687.82 351.21 690.61 349.5 693.61 348.54C697.79 347.14 699.39 344.14 700.14 339.43Z" /><path fill-rule="evenodd" class="shp1" d="M712.57 270C713.96 268.93 715.36 267.86 717.39 266.14C716.96 271.07 716.54 275.14 716.21 279.21C716.11 280.07 715.57 280.61 714.93 281.14C706.04 288.54 697.14 295.93 687.61 303.96C687.93 299.57 688.25 296.14 688.36 292.61C688.46 290.79 689.32 289.5 690.71 288.32C698 282.32 705.29 276.21 712.57 270ZM714.5 271.39C711.29 274.07 708.61 276.32 705.93 278.57C702.18 281.79 698.54 285.21 694.57 288C690.93 290.68 689.86 293.89 690.61 298.61C698.21 292.18 705.5 286.18 712.68 279.96C715.04 277.93 714.07 274.82 714.5 271.39Z" /><path fill-rule="evenodd" class="shp1" d="M621.07 374.36C617.11 363.75 613.25 353.04 609.39 342.43C609.07 341.57 608.75 340.71 609.18 339.75C610.89 336.11 612.5 332.46 614.32 328.5C614.75 329.14 615.07 329.36 615.18 329.68C619.14 340.18 623 350.68 626.86 361.18C627.07 361.93 627.39 362.79 627.07 363.54C625.36 367.29 623.64 371.14 621.82 375C621.29 374.68 621.07 374.57 621.07 374.36ZM612.5 345C615.93 352.93 618.5 361.07 621.61 369.43C624.29 365.68 625.25 362.36 623.43 358.07C620.11 350.46 617.54 342.43 614.43 334.18C612.29 337.82 610.68 340.82 612.5 345Z" /><path fill-rule="evenodd" class="shp1" d="M647.43 327.11C640.25 316.93 633.61 307.39 626.86 297.86C626.43 297.11 626.21 296.46 626.32 295.61C627.07 291.64 627.71 287.57 628.46 283.5C628.89 283.71 629.21 283.82 629.32 283.93C635.86 293.25 642.5 302.68 649.04 312C649.46 312.75 649.89 313.39 649.79 314.25C649.14 318.21 648.39 322.29 647.43 327.11ZM644.86 309.75C639.71 303.11 635.21 296.14 629.96 288.75C629 292.93 628.04 296.04 630.82 299.68C636.07 306.43 640.79 313.61 645.93 321C647.75 316.61 647.64 313.29 644.86 309.75Z" /><path fill-rule="evenodd" class="shp1" d="M658.89 272.46C650.21 265.18 641.43 258 632.75 250.71C632.21 250.29 631.57 249.64 631.57 249.11C631.25 245.04 630.39 240.86 630.61 236.46C631.25 236.79 631.57 236.79 631.79 237C640.36 244.07 648.82 251.25 657.39 258.32C658.25 258.96 658.89 259.61 659 260.79C659.43 264.75 659.75 268.71 660.18 272.89C659.43 272.57 659.11 272.57 658.89 272.46ZM653.75 258C647 252.75 640.46 247.07 633.5 241.18C632.86 245.79 633.61 248.89 637.14 251.57C643.89 256.71 650.21 262.29 657.18 268.07C657.29 263.89 657.18 260.68 653.75 258Z" /><path fill-rule="evenodd" class="shp1" d="M661.14 255.21C650.75 247.93 641.11 241.18 631.46 234.43C631.04 234.11 630.61 233.57 630.5 233.04C629.75 229.07 629.11 225 628.36 221.04C629.32 220.71 629.75 221.14 630.18 221.46C639.29 227.79 648.29 234 657.29 240.32C657.93 240.75 658.68 241.18 658.79 242.04C659.54 246.11 660.29 250.18 661.14 255.21ZM657.93 249.43C657.39 245.89 657.29 242.57 653.54 240.21C647.11 236.25 641.11 231.64 634.89 227.36C633.93 226.82 632.96 226.18 631.79 225.43C631.79 229.82 632.54 232.93 636.39 235.29C642.71 239.14 648.61 243.75 654.71 247.93C655.57 248.57 656.32 249.54 657.93 249.43Z" /><path fill-rule="evenodd" class="shp1" d="M580.79 380.46C580.68 379.5 580.68 378.64 581.32 377.89C583.89 374.79 586.36 371.79 589.14 368.46C589.46 369.21 589.79 369.64 589.79 370.07C590.86 381.11 591.82 392.14 592.79 403.18C592.79 404.04 592.89 405 592.46 405.54C589.79 408.86 587 412.07 583.79 415.93C582.61 403.39 581.64 391.93 580.79 380.46ZM583.04 384.86C584 392.04 584.43 399.21 585.07 406.39C585.18 407.36 584.86 408.43 585.93 409.29C588.93 406.82 590.75 404.25 590.11 399.75C588.93 391.5 588.5 383.04 587.75 374.14C583.79 377.14 582.5 380.36 583.04 384.86Z" /><path fill-rule="evenodd" class="shp1" d="M656.86 291C648.39 283.18 640.36 274.93 632.32 266.79C631.57 266.04 631.04 265.29 631.04 264.11C631.04 260.25 631.04 256.29 631.04 252.43C631.36 252.21 631.68 252.11 632 251.89C639.07 259.07 645.71 266.68 653.32 273.21C659.54 278.57 656.75 284.79 656.86 291ZM651.61 274.82C645.61 269.25 640.04 263.14 633.71 256.61C633.18 261.21 632.86 264.32 636.07 267.32C642.39 273.21 648.29 279.64 654.82 286.29C656 281.14 654.93 277.93 651.61 274.82Z" /><path fill-rule="evenodd" class="shp1" d="M713.43 222.21C714.07 221.46 714.39 220.29 715.79 220.5C715.89 222.11 715.89 223.82 716.21 225.32C717.5 231 715.89 235.29 711.93 239.57C705.39 246.54 699.61 254.04 692.86 262.07C692.43 257.68 692.21 254.36 691.79 251.14C691.46 248.89 692.11 247.29 693.61 245.57C700.25 237.86 706.79 230.04 713.43 222.21ZM713.32 225.54C707 233.04 701 240.21 694.89 247.39C692.64 250.18 695 252.86 695 255.86C698.43 251.79 701.86 247.71 705.29 243.64C707.32 241.29 709.04 238.71 711.29 236.57C714.61 233.57 715.04 230.04 713.32 225.54Z" /><path fill-rule="evenodd" class="shp1" d="M569.75 388.71C572.43 385.82 575.21 382.93 577.89 380.04C578.21 380.25 578.54 380.46 578.86 380.68C578.86 392.25 578.86 403.82 578.86 415.39C578.86 416.25 578.86 417 578.21 417.64C575.32 420.54 572.54 423.54 569.43 426.64C569.21 425.68 569 425.36 569 425.04C569 413.89 569 402.64 569 391.39C569 390.43 569.11 389.57 569.75 388.71ZM571.14 394.5C571.46 403.18 571.25 411.75 571.25 420.96C575.32 418.18 577.04 415.29 576.82 410.68C576.39 402.43 576.71 394.29 576.71 385.5C573.39 388.07 570.93 390.11 571.14 394.5Z" /><path fill-rule="evenodd" class="shp1" d="M657.93 134.79C655.68 132.21 655.04 129.43 655.89 126C656.96 121.61 657.5 117 658.36 112.5C659.32 107.04 660.29 101.46 661.46 95.25C663.5 98.25 665 100.71 666.82 102.86C668.64 105.21 669.29 107.46 668.54 110.46C667.36 114.86 666.82 119.46 666.07 123.96C665.11 129.64 664.04 135.43 662.86 141.86C660.93 139.18 659.54 136.93 657.93 134.79ZM661.57 135.75C662.75 129.32 663.71 123.54 664.79 117.75C665.21 115.93 665.21 113.89 665.86 112.07C667.25 108 666.07 104.79 662.54 101.57C660.82 111.11 659.11 120.21 657.71 129.32C657.39 131.89 659.75 133.39 661.57 135.75Z" /><path fill-rule="evenodd" class="shp1" d="M634.25 434.57C637.89 434.57 641.54 434.57 645.29 434.57C644.75 436.29 643.57 436.82 642.82 437.79C638.75 443.46 633.5 445.18 626.54 444.64C617.75 444.11 608.75 444.54 599.86 444.54C599.75 444.21 599.64 444 599.54 443.68C601.68 441.54 604.04 439.5 606.07 437.25C607.79 435.32 609.61 434.46 612.29 434.57C619.57 434.79 626.96 434.68 634.25 434.57ZM639.5 436.82C630.07 436.82 620.75 436.82 611.32 436.82C608 436.93 607.14 440.04 605 441.54C605.43 442.61 606.18 442.29 606.82 442.29C615.5 442.39 624.29 442.29 632.96 442.39C636.61 442.39 637.68 439.29 639.5 436.82Z" /><path fill-rule="evenodd" class="shp1" d="M717.29 243.75C717.29 247.71 717.29 251.68 717.29 255.64C717.29 256.61 716.75 257.36 716.11 258C707.96 266.14 699.71 274.29 690.93 283.07C690.93 279.11 691.14 275.79 690.93 272.57C690.82 270.21 691.57 268.5 693.29 266.89C698.86 261.54 704.21 256.07 709.57 250.61C711.93 248.14 714.07 245.57 716.32 243C716.64 243.21 717.07 243.43 717.29 243.75ZM715.25 249.21C713.86 248.89 713.43 249.96 712.89 250.5C707.43 255.86 702.29 261.54 696.61 266.68C693.29 269.68 692.64 273 693.61 277.5C700.68 270.43 707.43 263.79 714.07 257.04C716.32 254.68 714.5 251.79 715.25 249.21Z" /><path fill-rule="evenodd" class="shp1" d="M627.5 141.11C629.64 143.68 631.79 146.14 634.57 149.46C625.04 148.71 616.46 147.32 608 147.43C600.61 147.54 598.89 141.64 595.25 137.68C605.32 138.21 615.29 139.07 625.14 139.93C626.11 140.04 626.86 140.36 627.5 141.11ZM628.25 146.14C627.07 143.68 625.36 142.07 622.36 141.86C615.07 141.43 607.89 140.68 600.18 140.04C601.89 143.89 604.36 144.96 607.79 145.07C613.68 145.29 619.68 146.04 625.57 146.46C626.43 146.46 627.39 146.89 628.25 146.14Z" /><path fill-rule="evenodd" class="shp1" d="M643.57 114.96C644.43 107.25 645.07 99.54 645.82 90.86C648.29 93.75 650.21 96 652.14 98.14C653 99.11 653.11 100.07 653 101.25C652.36 109.18 651.71 117 650.96 124.82C650.86 125.57 651.07 126.43 649.89 126.96C648.71 125.57 647.54 123.96 646.14 122.68C643.89 120.54 643.25 118.07 643.57 114.96ZM649.04 121.61C649.57 115.07 650 109.07 650.64 103.07C650.86 100.5 650.21 98.68 647.64 96.86C647.21 101.46 646.79 105.75 646.36 109.93C646.14 111.75 646.14 113.57 645.82 115.39C645.29 118.07 646.25 119.89 649.04 121.61Z" /><path fill-rule="evenodd" class="shp1" d="M625.14 135.75C616.57 135.75 608.75 135.75 600.82 135.75C599.75 135.75 599.11 135.32 598.36 134.68C596.43 132.96 594.39 131.14 592.46 129.43C592.68 129 592.79 128.68 593 128.25C599.43 128.25 605.86 128.79 612.18 128.14C618.39 127.39 621.18 131.25 625.14 135.75ZM619.25 133.39C618.18 131.57 617.43 130.5 615.82 130.5C610.04 130.5 604.14 130.5 597.93 130.5C598.89 132.43 599.96 133.39 601.79 133.39C607.46 133.39 613.14 133.39 619.25 133.39Z" /><path fill-rule="evenodd" class="shp1" d="M634.14 108.75C633.71 102.43 634.04 96 634.04 89.68C636.71 91.39 639.82 92.79 640.04 95.46C640.57 102 640.25 108.64 640.25 115.18C638 112.93 634.46 111.75 634.14 108.75ZM637.57 109.5C638.64 105.21 638.32 96.86 636.93 95.14C635.86 99.54 636.29 107.46 637.57 109.5Z" /><path fill-rule="evenodd" class="shp1" d="M590.64 120.64C595.68 120.21 600.18 120.32 604.46 119.36C609.71 118.18 613.25 120.21 616.79 124.5C611.54 124.93 606.71 124.93 602 125.89C596.96 126.96 594.29 124.18 590.64 120.64ZM596.86 122.89C601.46 124.61 605.96 122.68 610.57 122.36C606.07 120.96 601.46 122.14 596.86 122.89Z" /><path fill-rule="evenodd" class="shp1" d="M560.54 482.36C560.43 489.43 560.54 496.61 560.54 503.68C560.54 505.07 560.11 505.93 558.71 506.57C551.86 509.57 544.89 512.57 537.61 514.71C534.93 515.46 533.96 514.82 533 512.46C528.18 501.21 523.04 489.86 518 478.61C517.46 477.32 517.04 475.71 514.89 476.68C514.36 476.89 513.5 477.11 513.18 476.14C512.86 475.07 513.5 474.64 514.36 474.43C515.96 474 517.46 473.46 518.96 472.93C549.29 462 576.71 446.14 601.57 425.79C629 403.18 650.64 376.18 664.46 343.18C675.61 316.39 679.57 288.43 680 259.61C680.54 226.61 675.61 194.57 662.54 164.04C652.14 139.61 637.36 118.29 617.21 100.93C616.36 100.18 615.61 99.11 614.11 99.21C614.43 101.04 615.71 102 616.57 103.07C637.36 129.43 651.5 159 659.75 191.36C669.5 229.39 670.89 267.54 661.04 305.89C649.46 350.46 625.68 387.32 590.43 416.79C568.25 435.32 543.61 449.79 516.39 459.54C515.54 459.86 514.14 461.14 513.5 459.54C512.64 457.61 514.79 457.71 515.75 457.39C535.14 450.43 553.25 440.89 570.18 429.21C605 405.32 632 374.79 648.5 335.57C664.25 298.07 668.96 259.07 662.86 218.79C656.96 179.46 643.25 143.36 619.79 111.11C615.82 105.64 611.43 100.71 607.36 95.46C606.5 94.29 605.43 92.79 606.71 91.5C607.89 90.32 609.29 91.5 610.36 92.36C614.86 96 619.36 99.43 623.54 103.39C649.25 127.71 665.43 157.5 674.54 191.46C682.89 222.86 684.07 254.68 680.86 286.93C677.64 319.07 667.46 348.75 649.79 375.86C627.18 410.68 596.21 436.39 560.32 456.54C549.82 462.43 539 467.57 527.86 472.82C528.29 473.04 528.82 473.14 529.36 473.25C538.89 475.29 548.43 477.32 557.96 479.36C559.68 479.79 560.86 480.11 560.54 482.36ZM557.64 482.25C555.61 480.11 551.11 480.32 547.68 479.57C540.61 478.07 533.43 476.57 526.25 475.07C525.07 474.86 524 474.54 522.82 474.54C519.93 474.43 519.29 475.39 520.46 477.96C525.29 488.79 530.21 499.61 534.93 510.54C535.68 512.36 536.64 512.89 538.57 512.25C544.79 510.21 550.79 507.75 556.79 505.18C558.18 504.54 558.39 503.46 558.39 502.18C558.39 499.07 558.39 495.96 558.39 492.21C558.07 489.21 560 484.61 557.64 482.25Z" /></g></svg>