<svg version="1.2" baseProfile="tiny-ps" xmlns="http://www.w3.org/2000/svg" viewBox="0 0 900 600" width="900" height="600">
	<defs>
		<clipPath clipPathUnits="userSpaceOnUse" id="cp1">
			<path d="M328 160L328 348.16C328 420.96 426 409.76 440 440C454 409.76 552 420.96 552 348.16L552 160L328 160Z" />
		</clipPath>
	</defs>
	<style>
		tspan { white-space:pre }
		.shp0 { fill: #ffd700 } 
		.shp1 { fill: #dd0000 } 
		.shp2 { fill: #000000 } 
		.shp3 { fill: #ffd700;stroke: #000000;stroke-width: 4.48 } 
		.shp4 { fill: #dd0000;stroke: #000000;stroke-width: 1.12 } 
		.shp5 { fill: #f0f8ff } 
		.shp6 { fill: #000000;stroke: #ffd700;stroke-width: 3.36 } 
	</style>
	<path id="Layer" class="shp0" d="M-50 0L950 0L950 600L-50 600L-50 0Z" />
	<path id="Layer" class="shp1" d="M-50 0L950 0L950 400L-50 400L-50 0Z" />
	<path id="Layer" class="shp2" d="M-50 0L950 0L950 200L-50 200L-50 0Z" />
	<g id="Layer">
		<g id="Clip-Path" clip-path="url(#cp1)">
			<g id="Layer">
				<path id="shape" class="shp3" d="M328 160L328 348.16C328 420.96 426 409.76 440 440C454 409.76 552 420.96 552 348.16L552 160L328 160Z" />
				<g id="Layer">
					<path id="Layer" class="shp2" d="M432.72 188C433.84 193.6 431.6 207.04 428.8 211.52C426 216 418.72 224.4 418.16 232.8C415.36 274.8 431.04 335.84 440 379.52C448.96 335.84 464.64 274.8 461.84 232.8C459.04 190.8 453.44 179.6 453.44 179.6" />
					<g id="Layer">
						<path id="Layer" class="shp4" d="M434.96 194.16C424.51 193.41 415.73 191.36 408.64 188C411.63 191.73 418.35 194.72 428.8 196.96" />
						<path id="Layer" class="shp4" d="M431.6 171.2C414.8 162.8 404.72 172.32 415.92 187.44C417.04 184.64 427.68 180.72 432.72 194.16C430.11 195.65 423.95 195.84 414.24 194.72C419.28 198.64 434.4 199.2 437.2 197.52C440 195.84 432.16 181.84 432.16 181.84" />
					</g>
					<path id="Layer" class="shp2" d="M452.32 182.96C455.12 182.4 459.6 180.72 462.96 177.36C456.8 177.36 445.6 174 441.12 171.76C436.64 169.52 428.8 164.48 428.8 174C428.8 183.52 438.88 190.8 437.2 198.64" />
					<path id="Layer" class="shp5" d="M438.32 176.8C438.32 176.8 432.72 174 431.6 172.88C430.48 171.76 428.8 179.04 433.84 181.28C434.59 179.41 436.08 177.92 438.32 176.8Z" />
					<path id="Layer" class="shp2" d="M434.4 173.44C431.79 174.19 431.23 176.24 432.72 179.6C433.09 176.99 434.96 175.31 438.32 174.56" />
					<g id="lhs">
						<path id="Layer" class="shp2" d="M464.64 249.6L464.64 315.68L539.68 377.28L539.68 213.2C539.68 200.51 537.07 191.92 531.84 187.44L531.84 221.6" />
						<path id="gap" class="shp6" d="M478.64 230L478.64 370" />
						<path id="gap" class="shp6" d="M494.32 230L494.32 370" />
						<path id="gap" class="shp6" d="M510 230L510 370" />
						<path id="gap" class="shp6" d="M525.68 230L525.68 370" />
						<path id="Layer" class="shp2" d="M450.08 261.92C500.48 261.92 521.76 245.68 532.4 233.36L532.4 188C538 186.51 540.99 182.4 541.36 175.68C525.68 188.56 501.04 158.32 486.48 189.68C494.32 205.36 510 203.68 515.6 194.72C526.8 204.24 517.84 240.08 450.08 239.52" />
						<g id="Layer">
							<path id="Layer" class="shp4" d="M468.56 371.68C464.64 376.72 468 381.2 471.36 382.88C470.24 379.52 470.8 376.35 473.04 373.36" />
							<path id="Layer" class="shp4" d="M488.16 390.72C488.53 392.96 487.41 395.76 484.8 399.12C491.52 397.44 494.32 395.2 492.08 391.28" />
							<path id="Layer" class="shp4" d="M510.56 382.32C511.68 384.93 511.87 387.92 511.12 391.28C516.16 386.8 517.84 380.64 513.92 379.52" />
							<path id="Layer" class="shp4" d="M510 362.16C511.87 362.53 513.73 364.4 515.6 367.76C516.16 361.6 515.04 358.24 509.44 357.12" />
							<path id="Layer" class="shp4" d="M460.72 343.68L487.04 367.76C487.04 367.76 476.96 370 473.04 370C469.12 370 465.76 371.12 466.88 372.24C468 373.36 470.24 373.36 471.36 375.04C472.48 376.72 474.16 378.96 476.4 376.72C478.64 374.48 486.48 372.24 486.48 372.24C486.48 372.24 486.48 385.12 485.92 386.8C485.36 388.48 483.68 391.84 484.8 391.84C485.92 391.84 485.92 391.28 490.4 391.84C494.88 392.4 494.32 393.52 493.2 386.8C492.08 380.08 492.64 372.8 492.64 372.8C492.64 372.8 502.72 379.52 506.08 384C509.44 388.48 508.88 385.12 510.56 383.44C512.24 381.76 514.48 381.2 516.16 380.64C517.84 380.08 511.68 378.4 510 377.28C508.32 376.16 495.44 368.88 495.44 368.88C495.44 368.88 502.72 366.64 507.2 366.08C511.68 365.52 511.68 365.52 511.12 363.28C510.56 361.04 511.12 358.8 511.12 357.68C511.12 356.56 510.56 355.44 507.76 357.68C504.96 359.92 492.08 365.52 492.08 365.52L470.24 336.4" />
						</g>
						<path id="Layer" class="shp2" d="M440 416.48L451.76 402.48C465.2 410.69 475.09 408.45 481.44 395.76C461.28 399.12 451.76 380.83 452.88 340.88L468 364.4L468 342.56L486.48 344.8L437.76 292.72" />
					</g>
					<g id="lhs">
						<path id="Layer" class="shp2" d="M415.36 249.6L415.36 315.68L340.32 377.28L340.32 213.2C340.32 200.51 342.93 191.92 348.16 187.44L348.16 221.6" />
						<path id="gap" class="shp6" d="M401.36 230L401.36 370" />
						<path id="gap" class="shp6" d="M385.68 230L385.68 370" />
						<path id="gap" class="shp6" d="M370 230L370 370" />
						<path id="gap" class="shp6" d="M354.32 230L354.32 370" />
						<path id="Layer" class="shp2" d="M429.92 261.92C379.52 261.92 358.24 245.68 347.6 233.36L347.6 188C342 186.51 339.01 182.4 338.64 175.68C354.32 188.56 378.96 158.32 393.52 189.68C385.68 205.36 370 203.68 364.4 194.72C353.2 204.24 362.16 240.08 429.92 239.52" />
						<g id="Layer">
							<path id="Layer" class="shp4" d="M411.44 371.68C415.36 376.72 412 381.2 408.64 382.88C409.76 379.52 409.2 376.35 406.96 373.36" />
							<path id="Layer" class="shp4" d="M391.84 390.72C391.47 392.96 392.59 395.76 395.2 399.12C388.48 397.44 385.68 395.2 387.92 391.28" />
							<path id="Layer" class="shp4" d="M369.44 382.32C368.32 384.93 368.13 387.92 368.88 391.28C363.84 386.8 362.16 380.64 366.08 379.52" />
							<path id="Layer" class="shp4" d="M370 362.16C368.13 362.53 366.27 364.4 364.4 367.76C363.84 361.6 364.96 358.24 370.56 357.12" />
							<path id="Layer" class="shp4" d="M419.28 343.68L392.96 367.76C392.96 367.76 403.04 370 406.96 370C410.88 370 414.24 371.12 413.12 372.24C412 373.36 409.76 373.36 408.64 375.04C407.52 376.72 405.84 378.96 403.6 376.72C401.36 374.48 393.52 372.24 393.52 372.24C393.52 372.24 393.52 385.12 394.08 386.8C394.64 388.48 396.32 391.84 395.2 391.84C394.08 391.84 394.08 391.28 389.6 391.84C385.12 392.4 385.68 393.52 386.8 386.8C387.92 380.08 387.36 372.8 387.36 372.8C387.36 372.8 377.28 379.52 373.92 384C370.56 388.48 371.12 385.12 369.44 383.44C367.76 381.76 365.52 381.2 363.84 380.64C362.16 380.08 368.32 378.4 370 377.28C371.68 376.16 384.56 368.88 384.56 368.88C384.56 368.88 377.28 366.64 372.8 366.08C368.32 365.52 368.32 365.52 368.88 363.28C369.44 361.04 368.88 358.8 368.88 357.68C368.88 356.56 369.44 355.44 372.24 357.68C375.04 359.92 387.92 365.52 387.92 365.52L409.76 336.4" />
						</g>
						<path id="Layer" class="shp2" d="M440 416.48L428.24 402.48C414.8 410.69 404.91 408.45 398.56 395.76C418.72 399.12 428.24 380.83 427.12 340.88L412 364.4L412 342.56L393.52 344.8L442.24 292.72" />
					</g>
				</g>
			</g>
		</g>
	</g>
</svg>