<svg version="1.2" baseProfile="tiny-ps" xmlns="http://www.w3.org/2000/svg" viewBox="0 0 900 600" width="900" height="600"><title></title><defs><clipPath clipPathUnits="userSpaceOnUse" id="cp1"><path d="M0 0L450 0L450 300L0 300L0 0Z" /></clipPath></defs><style>tspan { white-space:pre }.shp0 { fill: #00247d } .shp1 { fill: #fcc917 } .shp2 { fill: #f7e017 } .shp3 { fill: #f56600 } .shp4 { fill: #000000 } .shp5 { fill: #cf142b } .shp6 { fill: #144d29;stroke: #000000;stroke-width: 1.141 } .shp7 { fill: #144d29 } .shp8 { fill: #337321 } .shp9 { fill: #337321;stroke: #000000;stroke-width: 0.302 } .shp10 { fill: #144d29;stroke: #000000;stroke-width: 0.302 } .shp11 { fill: #337321;stroke: #000000;stroke-width: 0.304 } .shp12 { fill: #144d29;stroke: #000000;stroke-width: 0.304 } .shp13 { fill: none;stroke: #000000;stroke-width: 1.141 } .shp14 { fill: #5c3021;stroke: #000000;stroke-width: 0.935 } .shp15 { fill: #1a472b;stroke: #000000;stroke-width: 0.468 } .shp16 { fill: none;stroke: #337321;stroke-width: 0.468 } .shp17 { fill: none;stroke: #337321;stroke-width: 0.187 } .shp18 { fill: none;stroke: #337321;stroke-width: 0.18 } .shp19 { fill: none;stroke: #337321;stroke-width: 0.182 } .shp20 { fill: #1a472b;stroke: #000000;stroke-width: 0.5 } .shp21 { fill: none;stroke: #337321;stroke-width: 0.5 } .shp22 { fill: none;stroke: #337321;stroke-width: 0.2 } .shp23 { fill: #5c3021;stroke: #000000;stroke-width: 0.187 } .shp24 { fill: #1a472b;stroke: #000000;stroke-width: 0.505 } .shp25 { fill: none;stroke: #337321;stroke-width: 0.505 } .shp26 { fill: none;stroke: #337321;stroke-width: 0.202 } .shp27 { fill: #96877d;stroke: #000000;stroke-width: 0.786 } .shp28 { fill: #96877d;stroke: #000000;stroke-width: 0.936 } .shp29 { fill: #96877d;stroke: #000000;stroke-width: 0.606 } .shp30 { fill: #ffffff;stroke: #000000;stroke-width: 0.606 } .shp31 { fill: #ffffff } .shp32 { fill: none;stroke: #000000;stroke-width: 0.606 } .shp33 { fill: none;stroke: #000000;stroke-linecap:round;stroke-width: 0.606 } .shp34 { fill: #96877d;stroke: #000000;stroke-width: 0.57 } .shp35 { fill: none;stroke: #00247d;stroke-width: 2.269 } .shp36 { fill: #000000;stroke: #ffffff;stroke-width: 51.992 } .shp37 { fill: none;stroke: #ffffff;stroke-width: 86.653 } .shp38 { fill: none;stroke: #cf142b;stroke-width: 51.992 } </style><path class="shp0" d="M0 0L900 0L900 600L0 600L0 0Z" /><g ><path class="shp1" d="M810 300C810 307.21 809.37 314.73 808.28 321.63L541.73 321.63C540.6 314.59 540.01 307.36 540.01 300C540.01 225.44 600.45 165 675 165C749.56 165 810 225.44 810 300L810 300Z" /><path class="shp2" d="M808.28 321.63C798.1 386.12 742.35 435 675 435C607.81 435 552.09 385.91 541.73 321.63L808.28 321.63Z" /><g ><path fill-rule="evenodd" class="shp3" d="M773.3 211.99C773.07 219.77 764.88 217.05 764.06 222.24C763.24 227.44 786.66 223.27 786.59 227.03C786.52 230.51 793.84 232.64 794.05 239.05C794.26 245.85 680.16 309.06 680.16 309.06C680.16 309.06 539.61 277.61 547.48 269.69C555.55 261.58 552.18 253.79 551.75 249.71C550.9 241.61 569.59 245.3 569.97 240.63C570.39 235.58 562.48 238.46 562.34 230.29C562.2 221.73 580.8 225.32 581.11 221.44C581.6 215.29 575.33 219.35 575.64 210.73C575.96 201.75 773.54 203.82 773.3 211.99L773.3 211.99Z" /><path fill-rule="evenodd" class="shp4" d="M628.3 367.77C628.3 367.77 649.32 371.15 661.57 373.82C673.82 376.49 671.2 377.45 677.3 378.46C683.4 379.47 684.46 379.16 685.97 377.85C687.49 376.54 679.27 374.47 683.35 373.21C687.44 371.95 693.89 371.9 702.31 372.81C710.73 373.72 711.43 374.32 717.03 376.84C722.62 379.37 717.43 382.19 724.69 382.89C731.95 383.6 739.41 382.19 746.06 379.67C752.72 377.15 753.93 375.89 751.31 372.81C748.69 369.74 735.58 367.37 735.58 367.37L632.54 367.37L628.3 367.77L628.3 367.77Z" /><g ><path fill-rule="evenodd" class="shp5" d="M651.29 269.56C646.85 268.25 674.78 262.51 685.57 262.71C696.36 262.91 718.94 269.26 712.59 270.37C706.24 271.48 655.73 270.87 651.29 269.56L651.29 269.56Z" /><path fill-rule="evenodd" class="shp5" d="M715.01 244.56C710.57 242.64 729.63 237.5 740.42 237.7C751.21 237.9 764.52 243.65 758.16 245.37C751.81 247.08 719.45 246.47 715.01 244.56L715.01 244.56Z" /><path fill-rule="evenodd" class="shp5" d="M586.16 250.81C581.72 249.5 599.97 246.58 610.76 246.78C621.55 246.98 641.31 250.1 634.96 251.21C628.6 252.32 590.59 252.12 586.16 250.81L586.16 250.81Z" /></g><g ><path fill-rule="evenodd" class="shp6" d="M771.45 273.52C771.45 273.52 751.91 248.24 735.11 250.29C718.03 252.37 667.12 305.09 655.58 322.17L771.18 321.08L771.45 273.52L771.45 273.52Z" /><path fill-rule="evenodd" class="shp7" d="M570.41 263.85C553.7 264.24 545.5 269.14 543.19 270.79C541.11 280.2 540 289.98 540 300.01C540 307.58 540.65 315 541.84 322.23L710.21 322.1C678.71 313.02 604.93 265.65 578.75 264.01C575.77 263.82 572.98 263.79 570.41 263.85Z" /><path fill-rule="evenodd" class="shp7" d="M773.3 232.88C771.77 232.87 770.19 232.94 768.52 233.1C750.76 234.82 709.07 307.71 700.09 322.01C739.65 322.01 783.03 321.24 808.33 321.23C809.43 314.31 809.99 307.23 809.99 300.01C809.99 278.78 805.1 258.69 796.37 240.82C796.37 240.82 796.34 240.83 796.33 240.82C796.33 240.82 788.1 233.06 773.3 232.88L773.3 232.88Z" /></g><path fill-rule="evenodd" class="shp8" d="M569.87 278.48C553.19 278.67 541.61 284.08 540.91 284.42C540.43 288.56 540.15 292.76 540.06 297.01C594.7 270.91 684.68 327.09 689.78 319.98C694.54 313.32 598.52 280.64 577.56 278.79C574.91 278.56 572.33 278.45 569.87 278.48Z" /><path fill-rule="evenodd" class="shp8" d="M778.99 251.54C762.64 252.71 710 305.08 684.21 321.57L808.3 321.57C809.43 314.55 809.99 307.35 809.99 300.01C809.99 285.1 807.58 270.73 803.12 257.32C802.84 257.15 802.56 256.99 802.27 256.82C802.27 256.82 795.74 252.04 779.74 251.54C779.5 251.53 779.25 251.52 778.99 251.54L778.99 251.54Z" /><path fill-rule="evenodd" class="shp7" d="M783.9 257.32C783.24 257.34 782.61 257.37 781.96 257.45C771.63 258.63 699.84 309.8 674.15 321.07L808.33 321.35C809.44 314.4 809.99 307.27 809.99 300.01C809.99 287.23 808.22 274.85 804.9 263.13C804.86 263.13 804.84 263.14 804.8 263.13C804.8 263.13 793.8 257.1 783.9 257.32L783.9 257.32Z" /><path fill-rule="evenodd" class="shp8" d="M793.96 284.23C793.63 284.24 793.3 284.26 792.96 284.29C782.19 285.33 693.34 321.29 693.34 321.29L808.49 320.42C809.5 313.76 809.99 306.94 809.99 300.01C809.99 297.92 809.96 295.82 809.87 293.76C809.71 293.71 809.56 293.65 809.4 293.6C809.4 293.6 804.32 283.87 793.96 284.23L793.96 284.23Z" /><g ><g ><path fill-rule="evenodd" class="shp9" d="M761.51 357.61C753.36 353.27 753.14 339.2 753.14 339.2C753.14 339.2 761.71 353.87 765.65 354.54C760.1 346.66 762.41 342.01 762.41 342.01C762.41 342.01 764.45 348.9 768.72 354.85C768.98 349.88 766.44 339.18 766.44 339.18C766.44 339.18 771.65 348.15 772.84 354.47C772.57 346.36 773.42 340.13 773.42 340.13C773.42 340.13 775.41 349.25 775.97 354.65C777.77 348.1 781.41 342.58 781.41 342.58C781.41 342.58 782.8 347.67 778.76 354.3C784.35 351.24 788.96 344.74 788.96 344.74C788.96 344.74 787.54 353.66 779.66 357.6C779.66 357.6 768.71 356.81 761.51 357.61L761.51 357.61Z" /><path fill-rule="evenodd" class="shp10" d="M759.93 360.13C751.78 355.78 751.38 344.36 751.38 344.36C751.38 344.36 760.13 356.38 764.07 357.05C758.53 349.17 758.2 343.96 758.2 343.96C758.2 343.96 762.87 349.9 767.15 355.85C765.14 349.37 765.81 340.75 765.81 340.75C765.81 340.75 767.62 349.9 770.89 355.85C769.49 345.09 769.95 335.27 769.95 335.27C769.95 335.27 771.76 349.3 773.83 354.51C775.63 347.97 775.3 336.21 775.3 336.21C775.3 336.21 779.91 347.16 777.57 353.98C781.64 349.97 783.98 343.29 783.98 343.29C783.98 343.29 785.59 351.64 779.97 355.58C782.25 355.92 789.46 351.17 789.46 351.17C789.46 351.17 786.45 357.39 777.84 359.86C775.63 358.86 767.55 359.12 759.93 360.13L759.93 360.13Z" /></g><g ><path fill-rule="evenodd" class="shp11" d="M584.66 371.32C576.46 366.95 576.82 354.88 576.82 354.88C576.82 354.88 583.53 368.7 588.64 370.89C585.15 364.1 583.87 355.81 583.87 355.81C583.87 355.81 586.67 363.13 590.98 369.11C588.96 362.59 590.58 351.82 590.58 351.82C590.58 351.82 592.02 363.51 595.31 369.49C595.23 359.43 594.75 346.31 594.75 346.31C594.75 346.31 598.66 363.85 598.27 369.48C600.81 366.66 602.62 363.76 607.16 353.62C607.16 353.62 607.93 363.74 600.78 372.2C598.57 371.19 592.33 370.32 584.66 371.32L584.66 371.32Z" /><path fill-rule="evenodd" class="shp12" d="M581.49 373.17C573.29 368.8 573.08 354.64 573.08 354.64C573.08 354.64 581.7 369.4 585.66 370.08C580.08 362.14 582.41 357.47 582.41 357.47C582.41 357.47 584.45 364.4 588.76 370.39C589.02 365.39 586.46 354.62 586.46 354.62C586.46 354.62 591.7 363.64 592.9 370.01C592.63 361.84 593.48 355.57 593.48 355.57C593.48 355.57 595.49 364.75 596.05 370.18C597.87 363.59 601.52 358.03 601.52 358.03C601.52 358.03 602.93 363.17 598.87 369.84C604.49 366.75 609.12 360.22 609.12 360.22C609.12 360.22 607.7 369.19 599.76 373.16C599.76 373.16 588.74 372.36 581.49 373.17L581.49 373.17Z" /></g></g></g><g ><path class="shp13" d="M808.33 321.23C783.03 321.24 739.65 322.01 700.09 322.01C709.07 307.71 750.76 234.82 768.52 233.1C770.19 232.94 771.77 232.87 773.3 232.88L773.3 232.88C786.77 233.05 794.81 239.49 796.14 240.65L796.3 240.41" /><path class="shp13" d="M804.9 263.13C804.86 263.13 804.84 263.14 804.8 263.13C804.8 263.13 793.8 257.1 783.9 257.32L783.9 257.32C783.24 257.34 782.61 257.37 781.96 257.45C771.63 258.63 699.84 309.8 674.15 321.07L808.33 321.35" /><path class="shp13" d="M541.84 322.23L710.21 322.1C678.71 313.02 604.93 265.65 578.75 264.01C575.77 263.82 572.98 263.79 570.41 263.85C553.7 264.24 545.5 269.14 543.19 270.79L543.02 270.78" /></g><g ><path class="shp14" d="M670.3 214.72L679.46 214.72L679.46 331.26L670.3 331.26L670.3 214.72Z" /><g ><path fill-rule="evenodd" class="shp15" d="M674.49 220.67C664.24 218.03 658.01 259.7 649.69 258.04C640.99 256.3 654.12 217.46 659.28 213.73C664.65 209.84 674.16 207.77 674.49 220.67L674.49 220.67Z" /><path class="shp16" d="M674.41 220.43C660.88 204.7 655.68 237.56 649.75 258.07" /><path class="shp17" d="M653.74 255.97L651.67 251.09L646.71 251.09" /><path class="shp17" d="M656.55 251.09L653.41 244.31L647.29 244.48" /><path class="shp17" d="M659.19 244.48L655.06 238.28L648.7 238.78" /><path class="shp17" d="M662.34 236.21L657.21 231.5L650.68 232.08" /><path class="shp17" d="M665.39 229.6L659.11 226.13L652.75 225.88" /><path class="shp17" d="M667.87 224.89L663.25 218.85L655.81 219.18" /></g><g ><path fill-rule="evenodd" class="shp15" d="M689.37 206.02C675.44 203.18 670.3 257.73 661.87 256.77C653.06 255.77 664.34 213.37 669.76 207.68C675.06 202.12 681.78 196.99 689.37 206.02L689.37 206.02Z" /><path class="shp16" d="M688.63 205.65C668.33 200.61 666.13 235.86 661.93 256.8" /><path class="shp18" d="M665.68 253.23L663.43 248.87L658.58 249.44" /><path class="shp19" d="M668.36 247.55L664.52 242.16L658.81 243.26" /><path class="shp17" d="M670.58 241.83L665.95 236L659.64 237.02" /><path class="shp17" d="M672.86 233.24L667.46 228.51L661.39 229.77" /><path class="shp17" d="M674.97 226.85L668.49 223.27L663.07 223.33" /><path class="shp17" d="M676.84 221.49L671.47 216.52L664.88 217.64" /><path class="shp17" d="M667.81 210.63L674.42 210.74L679.16 214.94" /><path class="shp17" d="M673.91 203.65L680.17 206.26L682.52 209.66" /></g><g ><path fill-rule="evenodd" class="shp15" d="M672.15 217.92C682.7 217 681.99 259.13 690.48 258.85C699.34 258.57 692.77 218.1 688.3 213.57C683.64 208.85 674.6 205.25 672.15 217.92L672.15 217.92Z" /><path class="shp16" d="M672.27 217.69C688.2 204.41 687.93 237.67 690.41 258.88" /><path class="shp17" d="M686.82 256.15L689.66 251.68L694.55 252.49" /><path class="shp17" d="M684.85 250.88L689.06 244.71L695.07 245.87" /><path class="shp17" d="M683.33 243.92L688.42 238.48L694.62 240.02" /><path class="shp17" d="M681.59 235.25L687.42 231.44L693.76 233.09" /><path class="shp17" d="M679.66 228.22L686.42 225.83L692.74 226.63" /><path class="shp17" d="M677.98 223.17L683.54 217.97L690.83 219.52" /></g><g ><path fill-rule="evenodd" class="shp20" d="M673.63 221C682.92 214.34 707.16 251.61 714.92 246.67C723.02 241.5 692.97 209.71 686.12 208.23C678.98 206.69 668.43 208.55 673.63 221L673.63 221Z" /><path class="shp21" d="M673.6 220.73C680.61 200.26 700.02 229.53 714.87 246.73" /><path class="shp22" d="M709.91 246.33L709.91 240.84L714.96 238.84" /><path class="shp22" d="M704.95 242.81L705.23 235.07L711.53 232.76" /><path class="shp22" d="M699.42 237.56L700.96 229.97L707.65 227.88" /><path class="shp22" d="M692.67 230.93L695.86 224.37L702.75 222.28" /><path class="shp22" d="M686.72 225.85L691.62 220L697.99 217.2" /><path class="shp22" d="M682.17 222.35L684.29 214.72L692 212.04" /></g><g ><path fill-rule="evenodd" class="shp15" d="M671.3 224.37C662.3 218.79 643.94 256.71 636.49 252.64C628.7 248.39 652.82 215.23 658.85 213.2C665.14 211.1 674.83 211.96 671.3 224.37L671.3 224.37Z" /><path class="shp16" d="M671.3 224.11C663.07 205.07 648.31 234.88 636.54 252.69" /><path class="shp17" d="M640.97 251.88L640.45 246.61L635.72 245.13" /><path class="shp17" d="M645.11 248.06L644.13 240.65L638.24 238.99" /><path class="shp17" d="M649.61 242.54L647.51 235.38L641.28 233.96" /><path class="shp17" d="M655.07 235.58L651.58 229.55L645.17 228.16" /><path class="shp17" d="M659.96 230.18L655 224.99L649 222.86" /><path class="shp17" d="M663.73 226.42L661.11 219.28L653.91 217.38" /></g><g ><path fill-rule="evenodd" class="shp15" d="M673.28 220.82C663.21 210.79 628.92 253.52 622.41 248.08C615.6 242.4 648.34 213.19 656 211.42C663.48 209.69 671.91 209.1 673.28 220.82L673.28 220.82Z" /><path class="shp16" d="M672.87 220.1C658.69 204.73 637.47 232.96 622.44 248.14" /><path class="shp18" d="M627.53 247.22L628.05 242.34L623.69 240.14" /><path class="shp19" d="M632.9 243.95L632.65 237.34L627.28 235.11" /><path class="shp17" d="M637.9 240.39L637.24 232.97L631.41 230.36" /><path class="shp17" d="M644.53 234.47L642.62 227.55L636.85 225.27" /><path class="shp17" d="M649.8 230.29L646.36 223.74L641.8 220.81" /><path class="shp17" d="M654.32 226.85L652.56 219.74L646.45 217.05" /><path class="shp17" d="M652.75 212.82L658.2 216.54L659.86 222.65" /><path class="shp17" d="M661.67 210.34L665.48 215.96L665.56 220.09" /></g><g ><path fill-rule="evenodd" class="shp15" d="M672.43 220.62C678.96 207.99 724.65 238.24 729.2 231.07C733.95 223.58 693.86 205.75 686.02 206.4C678.37 207.03 670.16 209.04 672.43 220.62L672.43 220.62Z" /><path class="shp16" d="M672.61 219.81C681.43 200.85 710.24 221.26 729.18 231.14" /><path class="shp18" d="M724.05 231.81L722.07 227.32L725.55 223.9" /><path class="shp19" d="M717.94 230.33L716.16 223.96L720.6 220.2" /><path class="shp17" d="M712.09 228.47L710.46 221.2L715.22 216.94" /><path class="shp17" d="M703.97 224.85L703.69 217.68L708.48 213.75" /><path class="shp17" d="M697.68 222.48L698.96 215.19L702.41 211.01" /><path class="shp17" d="M692.33 220.58L691.84 213.28L696.84 208.85" /><path class="shp17" d="M689.55 206.74L685.49 211.94L685.78 218.27" /><path class="shp17" d="M680.29 207.1L678.38 213.61L679.56 217.57" /></g><path fill-rule="evenodd" class="shp23" d="M679.44 326.7C679.44 326.7 690.9 334.07 690.9 335.94C690.9 336.94 681.19 332.2 680.38 332.31C679.56 332.43 681.66 338.16 681.08 339.21C680.49 340.26 671.61 342.13 671.61 342.13C671.61 342.13 677.45 338.16 677.57 336.99C677.69 335.82 675.82 333.48 675.82 333.48C675.82 333.48 670.79 334.88 670.09 336.29C669.39 337.69 670.67 340.15 670.67 340.15C670.67 340.15 665.18 339.09 664.94 337.69C664.71 336.29 668.22 332.9 668.22 332.9C668.22 332.9 664.59 332.55 663.42 333.01C662.26 333.48 659.33 336.76 659.33 336.76C659.33 336.76 660.27 331.49 661.32 331.26C662.37 331.03 665.88 330.91 666.81 330.56C667.75 330.21 669.85 326.82 669.85 326.82L672.66 329.27L676.28 327.87L678.86 328.92L679.44 326.7L679.44 326.7Z" /><g ><path fill-rule="evenodd" class="shp15" d="M675.02 214.23C664.19 199.67 625.01 234.26 619.17 228.1C613.07 221.65 649 196.47 656.81 195.6C664.45 194.76 675.03 202.43 675.02 214.23L675.02 214.23Z" /><g ><path class="shp16" d="M675.83 214.18C661.26 186.56 635.89 214.84 619.2 228.16" /><path class="shp18" d="M624.36 227.84L625.45 223.05L621.37 220.36" /><path class="shp19" d="M630.07 225.21L630.6 218.62L625.53 215.78" /><g ><path class="shp17" d="M635.46 222.27L635.67 214.82L630.18 211.55" /><path class="shp17" d="M642.73 217.16L641.64 210.06L636.18 207.12" /><path class="shp17" d="M648.46 213.62L645.8 206.72L641.61 203.27" /><path class="shp17" d="M653.34 210.73L652.43 203.47L646.67 200.08" /><g ><path class="shp17" d="M653.42 196.61L658.4 200.94L659.33 207.21" /><path class="shp17" d="M662.57 195.19L665.7 201.22L665.3 205.33" /></g></g></g></g><g ><path fill-rule="evenodd" class="shp15" d="M672.89 208.03C674.83 205.22 663.34 191.84 652.11 191.24C640.57 190.64 629.28 206.62 632.62 209.77C635.88 212.84 643.87 201.49 650.47 200.08C657.02 198.68 671.03 210.72 672.89 208.03L672.89 208.03Z" /><path class="shp16" d="M672.48 207.61C660.03 195.79 648.4 187.47 632.87 210.02" /><path class="shp17" d="M668.78 200.25L671.59 206.64L663.6 204.53" /><path class="shp17" d="M663.5 195.47L668.34 203.69L656.27 200.97" /><path class="shp17" d="M657.91 192.39L663.87 200.33L653.7 200.13" /><path class="shp17" d="M651.67 190.99L658.05 196.89L649.2 200.38" /><path class="shp17" d="M640.88 195.11L650.34 196.01L644.97 202.69" /><path class="shp17" d="M634.34 202.02L644.66 198.01L636.09 209.57" /><path class="shp17" d="M632.26 206.15L636.41 205.31" /></g><g ><path fill-rule="evenodd" class="shp15" d="M673.13 219.84C669.78 219.2 668.58 201.6 676.17 193.3C683.97 184.77 703.23 188.25 703.06 192.84C702.88 197.31 689.23 194.82 683.53 198.45C677.89 202.04 676.34 220.46 673.13 219.84L673.13 219.84Z" /><path class="shp16" d="M673.13 219.26C673.71 202.1 676.17 188.01 703.06 193.19" /><path class="shp17" d="M670.6 211.41L673.08 217.94L677.3 210.83" /><path class="shp17" d="M671.02 204.3L673.33 213.56L680.03 203.14" /><path class="shp17" d="M672.83 198.18L674.16 208.02L681.27 200.75" /><path class="shp17" d="M676.31 192.81L675.89 201.49L684.66 197.77" /><path class="shp17" d="M686.89 188.18L680.77 195.46L689.29 196.45" /><path class="shp17" d="M696.39 188.51L686.23 192.89L700.45 195.13" /><path class="shp17" d="M700.78 190L697.22 192.32" /></g><g ><path fill-rule="evenodd" class="shp15" d="M672.54 219.49C675.47 222.47 680.11 206.6 692.07 207.1C704.02 207.6 717.99 220.59 723.16 217.04C728.15 213.61 704.84 197.89 691.13 197.98C677.31 198.07 669.45 216.34 672.54 219.49L672.54 219.49Z" /><path class="shp16" d="M673.01 219.49C679.65 204.5 685.67 192.05 723.28 216.57" /><path class="shp17" d="M672.83 212.24L674.98 215.3L678.21 215.46" /><path class="shp17" d="M674.82 208.27L676.8 211.83L680.11 212.9" /><path class="shp17" d="M677.3 204.88L678.79 208.85L683.42 210.01" /><path class="shp17" d="M680.69 201.74L680.77 206.29L685.98 208.35" /><path class="shp17" d="M684.49 199.34L683.66 204.38L688.95 207.2" /><path class="shp17" d="M689.62 198.02L687.47 202.98L692.67 206.95" /><path class="shp17" d="M697.06 198.52L692.18 202.9L698.87 208.44" /><path class="shp17" d="M703.42 200.5L697.39 203.72L703.67 210.34" /><path class="shp17" d="M709.13 202.98L702.1 204.96L708.79 212.98" /><path class="shp17" d="M713.59 205.71L706.56 206.95L714.09 215.3" /><path class="shp17" d="M719.13 209.59L711.03 209.01L718.96 217.28" /><path class="shp17" d="M723.1 213.64L716.65 212.49" /></g><g ><path fill-rule="evenodd" class="shp24" d="M673.82 219.88C672.17 224.08 660.84 210.26 649.16 215.8C637.48 221.35 629.08 240.19 622.43 238.84C616.03 237.54 632.57 212.04 646.24 206.34C660.03 200.58 675.57 215.43 673.82 219.88L673.82 219.88Z" /><path class="shp25" d="M673.36 220.08C660.42 207.97 649.17 198.13 622.12 238.42" /><path class="shp26" d="M670.47 212.79L669.62 216.74L666.49 218.26" /><path class="shp26" d="M666.82 209.68L666.35 214.05L663.51 216.52" /><path class="shp26" d="M662.92 207.35L663.11 211.93L659 215.04" /><path class="shp26" d="M658.22 205.66L660.06 210.22L655.75 214.48" /><path class="shp26" d="M653.42 204.89L656.38 209.55L652.3 214.58" /><path class="shp26" d="M647.76 205.74L652 209.76L648.5 215.91" /><path class="shp26" d="M640.57 209.38L647.28 211.67L642.96 220.01" /><path class="shp26" d="M635.08 214.04L642.45 214.7L638.99 223.93" /><path class="shp26" d="M630.45 218.92L638.28 217.92L635.01 228.73" /><path class="shp26" d="M627.17 223.52L634.68 221.78L630.73 233.27" /><path class="shp26" d="M623.3 229.73L631.11 225.73L626.71 237.3" /><path class="shp26" d="M621.07 235.43L626.99 231.56" /></g><path class="shp14" d="M678.06 224.43C678.06 227.4 675.65 229.81 672.68 229.81C669.71 229.81 667.31 227.4 667.31 224.43C667.31 221.46 669.71 219.05 672.68 219.05C675.65 219.05 678.06 221.46 678.06 224.43Z" /></g><g ><g ><path fill-rule="evenodd" class="shp27" d="M650.92 331.72C650.92 331.72 659.59 348.29 660.69 364.71C660.69 364.71 657.84 367.09 658.98 367.85L677.33 367.85C680.73 352.43 667.67 329.43 667.04 322.83L650.92 331.72L650.92 331.72Z" /><path fill-rule="evenodd" class="shp28" d="M699.38 367.78L700.21 365.13C707.33 355.45 703.05 319.46 703.05 319.46L717.4 328.03C717.4 328.03 718.61 353.8 713.78 364.97L712.46 367.61L699.39 367.78L699.38 367.78Z" /><path fill-rule="evenodd" class="shp29" d="M631.91 361.06L628.91 367.94L646.48 367.94C646.48 367.94 648.73 345.92 653.12 340.07C657.3 334.5 669.83 333.86 671.76 330.43C677.54 331.72 697.14 329.25 699.18 326.36C700.35 331.61 720.53 344.54 722.74 348.21C724.91 351.81 725.26 358.4 723.6 366.2L722.74 367.94L736.02 367.94C736.02 367.94 740.1 348.57 739.73 345.71C739.38 343.16 735.21 341.87 734.21 339.99C733.14 338 743.3 295.4 716.31 285.66C689.7 276.05 659.76 274.95 659.76 274.95L642.2 297.65C647.49 315.12 634.3 342.27 631.91 361.06L631.91 361.06Z" /></g><g ><path fill-rule="evenodd" class="shp30" d="M621.01 279.15C611.64 279.46 587.53 267.69 587.53 267.69C587.53 267.69 606.88 284.75 621.93 285.33" /><path class="shp31" d="M624.41 282.85C624.17 283.82 623.44 284.59 622.48 284.87C621.53 285.15 620.49 284.9 619.77 284.21C619.05 283.52 618.76 282.5 619 281.53C619.23 280.56 619.96 279.79 620.92 279.51C621.88 279.23 622.91 279.48 623.63 280.17C624.35 280.86 624.64 281.88 624.41 282.85L624.41 282.85Z" /></g><g ><g ><path fill-rule="evenodd" class="shp29" d="M668.54 275.59C658.85 275.43 653.17 265.47 640.7 263.59C628.22 261.72 618.63 268.09 618.63 268.09L614.56 276.66L617.77 283.94C617.77 283.94 624.9 285.44 622.49 290.16C620.12 294.79 600.64 283.94 600.42 285.66C600.21 287.37 619.04 296.87 625.06 299.37C631 301.83 644.77 308.31 647.12 321.43" /><path fill-rule="evenodd" class="shp29" d="M645.45 283.23C641.44 300.2 649.39 316.23 653.78 316.86C658.02 317.46 675.37 310.65 677.87 308.07C680.29 305.57 684.31 294.44 676.96 282.47C669.61 270.51 661.85 272.39 648.75 266.02C643.52 266.63 650.29 272.11 650.91 275.81C651.51 279.44 663.55 286.33 666.96 289.74" /><path fill-rule="evenodd" class="shp29" d="M623.99 267.66C607.01 265.47 599.78 253.9 585.21 252.02C570.65 250.15 565.72 260.17 565.72 260.17C565.72 260.17 564.76 262.74 565.94 264.02C567.11 265.31 570.43 265.31 570.43 265.31C570.43 265.31 574.2 259.8 586.29 262.09C598.12 264.34 606.75 279.12 618.05 284.04" /></g><g ><path class="shp32" d="M565.82 260.21C568.94 259.38 571.48 262.71 570.44 265.36" /><g ><path class="shp33" d="M608.76 262.71C609.75 264.56 609.75 268.12 608.76 269.52" /><path class="shp33" d="M605.35 261.04C606.21 262.71 606.47 265.43 605.43 267.1" /><path class="shp33" d="M601.87 258.77C602.8 260.34 603.44 262.95 602.55 264.45" /><path class="shp33" d="M612.32 264.22C614.69 267.04 614.04 270.79 613.31 273.08" /><path class="shp33" d="M625.63 269.18C627.77 268.86 631.97 271.47 631.08 272.97" /><path class="shp33" d="M624.64 270.62C624.96 272.72 628.41 274.88 629.64 274.26" /></g></g></g><path class="shp4" d="M629.06 271.8C629.06 272.55 628.45 273.16 627.7 273.16C626.94 273.16 626.33 272.55 626.33 271.8C626.33 271.04 626.94 270.43 627.7 270.43C628.45 270.43 629.06 271.04 629.06 271.8Z" /><g ><path fill-rule="evenodd" class="shp30" d="M622.6 281.83C613.29 282.86 588.34 272.98 588.34 272.98C588.34 272.98 608.95 288.5 623.99 287.92" /><path class="shp31" d="M626.27 285.25C626.11 286.24 625.44 287.06 624.51 287.41C623.58 287.77 622.53 287.6 621.76 286.97C620.99 286.33 620.61 285.34 620.78 284.36C620.93 283.37 621.61 282.55 622.54 282.19C623.47 281.84 624.52 282.01 625.29 282.64C626.06 283.28 626.43 284.27 626.27 285.25L626.27 285.25Z" /></g><g ><g ><path fill-rule="evenodd" class="shp29" d="M609.37 278.16C615.41 284.52 626.81 286.79 629.97 282.93" /><g ><path class="shp32" d="M699.11 326.33C693.4 318.98 689.53 313.38 693.21 306.03" /><g ><path class="shp33" d="M646.07 357.37C644.34 360.43 644.83 365.45 643.61 367.52" /><path class="shp33" d="M712.94 358.76C714.01 362.28 711.95 365.47 710.37 367.29" /><path class="shp33" d="M711.96 294.98C714.2 297.9 713.41 301.62 712.57 303.88" /><path class="shp33" d="M733.2 342.3C738.38 345.33 737.64 350.84 737.11 353.18" /><path class="shp33" d="M707.28 292.92C710.3 295.03 710.65 298.82 710.53 301.23" /><path class="shp33" d="M674.7 355.67C677.59 357.95 676.43 364.75 675.1 367.36" /><path class="shp33" d="M635.85 348.3C636.85 344.66 637.37 339.81 638.79 337.87" /><path class="shp33" d="M736.73 356.69C736.94 359.79 735.1 365.12 734.59 367.59" /></g></g></g><path fill-rule="evenodd" class="shp34" d="M724.24 291.18C755.5 312.41 736.8 341.43 733.11 341.39C729.42 341.36 753.88 324.66 725.86 299.45" /></g></g><path class="shp35" d="M810 300C810 374.56 749.56 435 675 435C600.45 435 540.01 374.56 540.01 300C540.01 225.44 600.45 165 675 165C749.56 165 810 225.44 810 300L810 300Z" /></g><g ><path class="shp5" d="M650.55 408.54L650.55 403.72L663.01 403.72L663.01 415.12C661.8 416.29 660.04 417.33 657.74 418.23C655.45 419.11 653.12 419.56 650.77 419.56C647.77 419.56 645.16 418.93 642.94 417.68C640.71 416.42 639.04 414.62 637.92 412.29C636.8 409.95 636.24 407.4 636.24 404.65C636.24 401.67 636.86 399.02 638.11 396.7C639.36 394.39 641.19 392.61 643.6 391.37C645.44 390.42 647.72 389.95 650.45 389.95C654.01 389.95 656.78 390.7 658.77 392.19C660.78 393.68 662.07 395.73 662.64 398.36L656.9 399.44C656.5 398.03 655.73 396.93 654.61 396.12C653.51 395.3 652.12 394.89 650.45 394.89C647.93 394.89 645.92 395.69 644.42 397.29C642.94 398.89 642.19 401.27 642.19 404.42C642.19 407.82 642.95 410.37 644.46 412.08C645.97 413.77 647.95 414.62 650.4 414.62C651.61 414.62 652.82 414.38 654.03 413.91C655.25 413.43 656.3 412.85 657.17 412.17L657.17 408.54L650.55 408.54Z" /><path class="shp5" d="M668.29 419.07L668.29 413.58L673.77 413.58L673.77 419.07L668.29 419.07Z" /><path class="shp5" d="M697.74 408.54L703.34 410.32C702.48 413.44 701.05 415.77 699.05 417.29C697.05 418.8 694.52 419.56 691.45 419.56C687.65 419.56 684.52 418.26 682.07 415.67C679.63 413.07 678.4 409.51 678.4 405.01C678.4 400.24 679.63 396.54 682.09 393.91C684.56 391.27 687.79 389.95 691.8 389.95C695.3 389.95 698.15 390.98 700.34 393.05C701.64 394.28 702.61 396.03 703.27 398.33L697.54 399.69C697.2 398.21 696.49 397.04 695.41 396.18C694.35 395.32 693.04 394.89 691.51 394.89C689.39 394.89 687.66 395.65 686.33 397.17C685.02 398.7 684.36 401.16 684.36 404.58C684.36 408.2 685.01 410.77 686.31 412.31C687.61 413.85 689.31 414.61 691.39 414.61C692.93 414.61 694.25 414.13 695.36 413.15C696.46 412.17 697.26 410.64 697.74 408.54L697.74 408.54Z" /><path class="shp5" d="M708.28 419.07L708.28 413.58L713.77 413.58L713.77 419.07L708.28 419.07Z" /></g><g clip-path="url(#cp1)"><g ><g ><path class="shp0" d="M0 0L450 0L450 300L0 300L0 0Z" /><path fill-rule="evenodd" class="shp36" d="M0 0L450 300M450 0L0 300" /><path class="shp37" d="M225 0L225 300" /><path class="shp37" d="M0 150L450 150" /><path class="shp38" d="M225 0L225 300" /><path class="shp38" d="M0 150L450 150" /></g></g></g></svg>