<svg version="1.2" baseProfile="tiny-ps" xmlns="http://www.w3.org/2000/svg" viewBox="0 0 900 600" width="900" height="600"><title></title><defs><clipPath clipPathUnits="userSpaceOnUse" id="cp1"><path d="M0 0L450 0L450 300L0 300L0 0Z" /></clipPath></defs><style>tspan { white-space:pre }.shp0 { fill: #00247d } .shp1 { fill: #d5e5ff;stroke: #000000;stroke-width: 0.493 } .shp2 { fill: #e5eeff } .shp3 { fill: #eff5ff } .shp4 { fill: #fbfcff } .shp5 { fill: #bb1426 } .shp6 { fill: #252d5b } .shp7 { fill: #ffffff } .shp8 { fill: none;stroke: #000000;stroke-width: 0.493 } .shp9 { fill: #bb1426;stroke: #000000;stroke-width: 0.493 } .shp10 { fill: #000000 } .shp11 { fill: #fcfaf2;stroke: #000000;stroke-width: 0.493 } .shp12 { fill: #fcfaf2;stroke: #000000;stroke-linejoin:round;stroke-width: 0.493 } .shp13 { fill: #483e37 } .shp14 { fill: #6c5353 } .shp15 { fill: #312a25 } .shp16 { fill: #37abc8;stroke: #ffffff;stroke-width: 0.493 } .shp17 { fill: #00d4aa } .shp18 { fill: #d5f6ff } .shp19 { fill: #fad62e;stroke: #000000;stroke-width: 0.705 } .shp20 { fill: #000000;stroke: #000000;stroke-width: 0.705 } .shp21 { fill: none;stroke: #000000;stroke-width: 0.705 } .shp22 { fill: #000000;stroke: #ffffff;stroke-width: 51.992 } .shp23 { fill: none;stroke: #ffffff;stroke-width: 86.653 } .shp24 { fill: none;stroke: #cf142b;stroke-width: 51.992 } </style><path class="shp0" d="M0 0L900 0L900 600L0 600L0 0Z" /><g ><g ><g ><g ><g ><path class="shp1" d="M675 166.17C700.34 166.17 725.35 179.45 743.37 202.58C761.43 225.76 771.88 258.13 771.88 291C771.88 323.87 761.43 356.24 743.37 379.42C725.35 402.55 700.34 415.83 675 415.83C649.66 415.83 624.65 402.55 606.63 379.42C588.57 356.24 578.12 323.87 578.12 291C578.12 258.13 588.57 225.76 606.63 202.58C624.65 179.45 649.66 166.17 675 166.17L675 166.17L675 166.17Z" /><path fill-rule="evenodd" class="shp2" d="M762.29 343.09L760.75 337.94C762.11 333.55 762.14 328.98 761.24 325.72C760.06 321.4 758.6 318.52 757.8 316.53C757.9 313.27 758.14 309.14 756.58 303.99C755.49 300.41 753.02 296.86 749.69 293.85C750.36 290.31 750.33 286.89 749.58 284.04C748.67 280.6 747.5 278.32 746.48 276.45C746.96 273.87 747.13 270.72 745.83 267.04C744.54 263.4 741.82 260.51 738.44 258.24C738.16 255.82 737.52 253.39 736.32 251.1C735.58 249.68 734.62 248.41 733.57 247.22C734.34 245.23 735.01 243.06 735.33 240.45C736.08 234.35 733.31 226.73 727.27 221.17C727.68 216.83 726.95 212.35 724.36 207.94C722.19 204.24 718.31 200.87 713.57 199.42C710.67 198.54 707.61 198.38 704.46 198.71C700.05 195.41 694.66 193.95 690.13 194.46C688.29 194.66 686.6 195.07 684.99 195.61C681.59 193.34 677.58 192.04 673.35 192.08C668 192.14 662.74 194.56 658.55 198.61C656.06 198.01 653.38 197.67 650.3 198.2C646.33 198.9 641.87 201.3 639 205.22C638.17 206.36 637.5 207.6 636.93 208.88C634.09 209.49 631.43 210.76 629.02 212.62C623.83 216.6 620.41 223.79 620.51 232.04C619.15 233.64 617.82 235.52 616.83 238.05C615.49 241.48 615.4 246.08 616.73 250.6C616.09 251.27 615.44 251.91 614.81 252.77C612.31 256.2 611.28 260.91 611.55 265.9C609.6 268.04 607.93 270.57 606.99 273.75C606.1 276.73 606.13 279.91 606.77 283.02C604.71 285.18 602.81 287.65 601.34 290.67C599.29 294.91 598.46 300.07 599.08 305.37C597.36 308.15 596.08 311.44 596.31 315.44C596.42 317.38 596.99 319.16 597.75 320.86C594.5 324.5 592.27 328.39 591.32 332.11C589.69 338.48 590.27 343.01 589.86 345.39C588.87 351.32 593.39 356.73 599.4 356.8L755.36 358.67L762.29 343.09L762.29 343.09Z" /><path fill-rule="evenodd" class="shp3" d="M599.52 347.02C600.92 338.7 597.59 330.38 611.37 322.06C604.24 317.28 605.02 312.5 609.5 307.72C606.47 297.47 611.37 291.18 618.23 285.88C613.87 278.6 616.39 273.62 621.97 269.66C618.78 258.57 624.65 256.53 629.46 253.44C620.16 244.68 628.97 236.51 630.71 235.98C627.23 220.33 641.01 215.43 644.43 219.76C645.03 203.53 658.25 207.25 661.66 210.7C667.7 198.38 679.71 200.21 683.73 208.53C685.98 204.5 695.61 200.73 701.24 209.27C717 204.49 719.65 218.35 716.17 225.37C732.54 233.04 723.53 246.62 720.54 249.7C727.61 252.72 729.75 257.71 728.51 264.05C738.51 267.56 737.54 272.64 736.13 277.77C738.8 283.77 743.45 288.49 738.01 297.73C749.25 302.33 747.97 310.51 747.99 318.32C750.05 324.97 755.47 331.63 749.86 338.28L755.47 348.89L599.52 347.02L599.52 347.02Z" /><path fill-rule="evenodd" class="shp4" d="M673.52 214.54C672.15 214.55 670.23 215 668.1 219.35C667.59 220.38 666.85 221.27 665.93 221.95C665.01 222.64 663.94 223.09 662.81 223.27C661.68 223.46 660.52 223.37 659.44 223.01C658.35 222.66 657.36 222.05 656.55 221.23C656.88 221.56 656.14 220.94 655.33 220.67C654.51 220.4 653.62 220.34 653.23 220.41C652.84 220.48 652.96 220.36 652.68 220.74C652.4 221.12 651.71 222.44 651.6 225.51C651.55 226.8 651.16 228.05 650.46 229.13C649.76 230.22 648.78 231.09 647.63 231.66C646.47 232.24 645.19 232.49 643.9 232.39C642.62 232.3 641.38 231.86 640.32 231.12C640.05 231.2 639.78 231.23 639.35 231.56C638.1 232.52 636.44 234.21 637.71 239.92C637.88 240.68 637.92 241.48 637.83 242.26C637.75 243.04 637.53 243.81 637.2 244.52C636.86 245.23 636.41 245.89 635.86 246.45C635.31 247.02 634.67 247.49 633.97 247.85C633.91 247.91 633.83 247.97 633.68 248.12C633.29 248.54 632.83 249.21 632.62 249.74C632.2 250.8 631.36 250.88 634.38 253.72C635.17 254.46 635.78 255.38 636.17 256.4C636.55 257.42 636.7 258.51 636.6 259.6C636.5 260.68 636.15 261.73 635.59 262.66C635.02 263.6 634.25 264.39 633.33 264.97C630.42 266.85 628.78 267.91 628.51 268.28C628.23 268.65 627.63 268.86 628.87 273.17C629.07 273.88 629.16 274.62 629.14 275.36C629.12 276.1 628.99 276.83 628.74 277.53C628.5 278.23 628.15 278.88 627.7 279.47C627.26 280.06 626.73 280.58 626.12 281.01C624.07 282.46 623.39 283.58 623.25 284.06C623.11 284.53 622.89 285.19 624.38 287.69C624.83 288.44 625.14 289.26 625.29 290.12C625.44 290.97 625.44 291.85 625.28 292.71C625.12 293.56 624.8 294.38 624.34 295.13C623.89 295.87 623.3 296.52 622.61 297.05C619.61 299.37 617.57 301.58 616.61 303.57C615.64 305.56 615.27 307.44 616.38 311.18C616.55 311.77 616.65 312.39 616.67 313.01C616.68 313.63 616.62 314.26 616.48 314.86C616.33 315.47 616.11 316.05 615.82 316.6C615.52 317.15 615.16 317.66 614.74 318.11C613.49 319.44 613.35 319.94 613.31 319.93C613.48 320.15 613.97 320.67 615.36 321.6C616.37 322.27 617.18 323.19 617.74 324.26C618.29 325.33 618.57 326.52 618.54 327.73C618.51 328.93 618.18 330.11 617.57 331.16C616.97 332.2 616.11 333.08 615.08 333.7C609.31 337.18 608.4 339.27 607.75 341.82C607.51 342.76 607.46 344.1 607.39 345.43L743.49 347.07C743.17 346.44 742.94 345.77 742.81 345.08C742.68 344.38 742.65 343.68 742.73 342.98C742.81 342.28 742.99 341.59 743.27 340.94C743.55 340.3 743.92 339.69 744.37 339.16C745.69 337.6 745.46 337.78 744.88 335.69C744.31 333.6 742.49 330.32 741.14 325.94C741.08 325.77 741.04 325.6 741 325.42C740.96 325.25 740.92 325.07 740.9 324.9C740.87 324.72 740.85 324.54 740.84 324.36C740.82 324.19 740.82 324.01 740.82 323.83C740.81 319.53 740.89 316.22 740.34 314.4C739.79 312.58 739.44 311.57 735.29 309.87C734.34 309.48 733.48 308.89 732.78 308.14C732.07 307.39 731.54 306.5 731.21 305.52C730.88 304.55 730.77 303.51 730.87 302.49C730.98 301.47 731.3 300.48 731.82 299.59C733.82 296.2 733.58 295.38 733.18 293.86C732.78 292.35 731.26 289.96 729.58 286.18C729.41 285.81 729.28 285.42 729.18 285.02C729.08 284.62 729.01 284.22 728.98 283.81C728.95 283.4 728.96 282.99 728.99 282.58C729.03 282.17 729.11 281.77 729.22 281.37C729.87 278.98 729.77 277.98 729.84 278.19C729.91 278.39 730.05 277.69 726.14 276.32C725.33 276.03 724.58 275.61 723.93 275.06C723.27 274.52 722.71 273.86 722.29 273.12C721.86 272.37 721.58 271.56 721.44 270.72C721.3 269.88 721.31 269.01 721.47 268.18C721.88 266.11 721.65 265.14 721.29 264.45C720.93 263.76 720.19 262.84 717.72 261.79C716.65 261.33 715.71 260.62 714.98 259.72C714.24 258.82 713.74 257.75 713.51 256.61C713.28 255.47 713.33 254.29 713.66 253.18C713.98 252.06 714.58 251.04 715.39 250.2C715.73 249.85 718.21 246.16 718.49 243.88C718.77 241.6 719.38 240.29 713.13 237.36C712.26 236.95 711.49 236.38 710.85 235.67C710.21 234.96 709.72 234.13 709.4 233.23C709.09 232.33 708.95 231.37 709.01 230.42C709.07 229.47 709.32 228.54 709.75 227.68C710.33 226.51 710.36 223.09 709.73 222.02C709.42 221.49 709.32 221.35 708.62 221.14C707.91 220.92 706.29 220.73 703.32 221.63C702.59 221.85 701.82 221.96 701.06 221.94C700.29 221.92 699.53 221.77 698.81 221.51C698.08 221.25 697.41 220.88 696.81 220.4C696.2 219.93 695.68 219.36 695.26 218.72C693.74 216.42 693.17 216.68 692.01 216.81C690.86 216.94 689.46 218.48 689.99 217.52C689.35 218.67 688.41 219.62 687.27 220.26C686.13 220.91 684.83 221.23 683.52 221.19C682.21 221.15 680.94 220.76 679.83 220.04C678.73 219.33 677.85 218.33 677.28 217.15C676.39 215.32 674.89 214.52 673.52 214.54L673.52 214.54Z" /></g><g ><g ><g ><path fill-rule="evenodd" class="shp5" d="M633.5 286.3L628.87 301.71C628.87 301.71 626.95 303.26 625.91 303.46C624.02 303.82 622.64 302.74 620.75 303.15C618.84 303.58 614.98 306.11 614.98 306.11C614.98 306.11 615.8 300.95 615.06 298.52C614.84 297.82 614.15 296.17 614.15 296.17C614.15 296.17 615.54 294.18 617.18 293.36C618.7 292.6 620.85 292.32 622.42 291.69C624.2 290.98 625.26 289.2 627.05 288.5C628.3 288.02 629.82 288.91 631.08 288.43C632.08 288.04 633.5 286.3 633.5 286.3L633.5 286.3Z" /><path fill-rule="evenodd" class="shp6" d="M625.74 289.26C626.14 288.96 626.57 288.69 627.05 288.5C628.3 288.02 629.82 288.91 631.08 288.43C632.08 288.04 633.5 286.3 633.5 286.3L630.82 295.25L625.05 295.9L625.74 289.26L625.74 289.26Z" /><path fill-rule="evenodd" class="shp7" d="M625.5 291.77L628.01 291.56L625.66 289.45L626.2 288.91L628.92 291.23L629.35 288.44L630.38 288.51L629.91 291.21L633.1 287.48L632.68 288.91L630.54 291.33L632.35 291.09L631.86 292.29L630.24 292.45L631.13 294.49L630.94 295.24L630.26 295.29L629.51 292.8L629.06 295.41L628.03 295.53L628.67 292.73L625.92 295.83L625.08 295.88L625.15 295.2L628.03 292.5L625.33 292.8L625.5 291.77L625.5 291.77Z" /><path fill-rule="evenodd" class="shp5" d="M632.74 288.34L630.39 291.17L630.1 291.17L632.83 287.96L632.74 288.34ZM629.59 288.42L630.14 288.45L629.65 291.73L632.16 291.47L631.95 291.98L629.49 292.17L628.83 295.43L628.37 295.48L629.07 292.19L625.38 292.57L625.47 292.03L629.1 291.7L629.59 288.42ZM626.03 289.15L628.66 291.41L628.23 291.46L625.83 289.39L626.03 289.15ZM629.77 292.46L630.05 292.56L630.92 294.43L630.82 294.91L629.77 292.46ZM625.83 295.58L625.4 295.58L628.28 292.7L628.71 292.61L625.83 295.58Z" /><path class="shp8" d="M633.5 286.3L628.87 301.71C628.87 301.71 626.95 303.26 625.91 303.46C624.02 303.82 622.64 302.74 620.75 303.15C618.84 303.58 614.98 306.11 614.98 306.11C614.98 306.11 615.8 300.95 615.06 298.52C614.84 297.82 614.15 296.17 614.15 296.17C614.15 296.17 615.54 294.18 617.18 293.36C618.7 292.6 620.85 292.32 622.42 291.69C624.2 290.98 625.26 289.2 627.05 288.5C628.3 288.02 629.82 288.91 631.08 288.43C632.08 288.04 633.5 286.3 633.5 286.3L633.5 286.3Z" /></g><path fill-rule="evenodd" class="shp9" d="M673.26 232.49L673.1 228.1C673.1 228.1 674.36 227.58 674.99 227.7C675.91 227.88 676.43 228.78 677.34 229.03C677.97 229.21 678.67 229.02 679.3 229.2C680.38 229.49 681.01 230.47 682.13 230.52C683.19 230.56 683.89 230.24 684.96 230.23C686.04 230.23 687.02 230.94 687.02 230.94C687.02 230.94 686.08 230.96 685.19 231.18C683.76 231.52 683.39 232.78 681.92 232.84C680.79 232.88 680.04 232.14 678.91 232.1C677.92 232.07 677.56 232.58 676.56 232.5C676.03 232.46 675.3 231.87 674.76 231.79C674.13 231.69 673.26 232.49 673.26 232.49L673.26 232.49Z" /><path class="shp8" d="M629.32 335.9L644.54 304.02L635.26 336.63L654.39 336.92L644.54 304.02L658.45 336.92L672.94 297.94L664.1 337.64L686.13 335.9L673.23 298.08L692.22 335.18L697.87 298.81L710.04 332.43L714.39 331.85L698.74 298.95" /><path class="shp8" d="M637.49 255.4L644.53 252.48L651.33 255.4" /><path fill-rule="evenodd" class="shp10" d="M749.1 318.33L749.1 318.33L749.44 318.93L730.36 333.65L730.26 333.63L730.32 337.3L729.62 337.31L729.55 333.48L718.1 331L716.95 330.75L749.1 318.33ZM747.09 319.86L730.13 326.41L730.24 332.85L747.09 319.86ZM729.43 326.68L719.4 330.56L729.54 332.75L729.43 326.68Z" /><path fill-rule="evenodd" class="shp11" d="M637.84 328.8L612.98 329.33C618.28 326.97 628.03 310.58 628.97 304.81L636.97 304.63L637.84 328.8L637.84 328.8Z" /><path fill-rule="evenodd" class="shp10" d="M644.1 244.64L644.1 338.52L645.51 338.52L645.22 255.06L645.18 244.64L644.1 244.64Z" /><path fill-rule="evenodd" class="shp10" d="M673.52 227.86L672.42 227.86L672.94 337.21L674.35 337.2L673.57 239.3L673.52 227.86L673.52 227.86L673.52 227.86Z" /><path fill-rule="evenodd" class="shp10" d="M698.22 234.15L697.2 234.16L697.72 335.64L699.13 335.63L698.26 242.41L698.22 234.15L698.22 234.15Z" /><g ><path fill-rule="evenodd" class="shp11" d="M634.97 267.7C637.27 265.26 638.82 261.98 637.51 255.5L651.42 255.5C654.65 260.13 653.49 267.89 653.01 267.7C647.1 263.79 641.03 265.98 634.97 267.7Z" /><path fill-rule="evenodd" class="shp11" d="M631.57 284.6C632.24 282.06 637.88 277.66 634.97 267.7L653.01 267.7C655.92 272.92 656.11 283.53 655.3 284.6C646.7 279.47 639.17 282.29 631.57 284.6L631.57 284.6Z" /><path fill-rule="evenodd" class="shp11" d="M627.66 304.16C629.22 302.81 634.66 299.43 631.57 284.6L655.3 284.6C658.81 293.24 658.49 303.34 657.97 304.16C647.86 299.06 637.76 300.62 627.66 304.16L627.66 304.16Z" /><path fill-rule="evenodd" class="shp11" d="M657.97 304.16C662.74 313.39 663.16 327.51 661.63 331.6C645.72 325.09 635.17 330.75 621.44 334.63C623.9 333.8 632.67 314.03 627.66 304.16L657.97 304.16L657.97 304.16Z" /></g><g ><path fill-rule="evenodd" class="shp11" d="M662.49 254.48C665.25 251.55 667.09 247.58 665.53 239.77L682.18 239.77C686.07 245.36 684.68 254.72 684.1 254.48C677.01 249.77 669.74 252.41 662.49 254.48Z" /><path fill-rule="evenodd" class="shp11" d="M658.41 274.86C659.22 271.8 665.97 266.49 662.49 254.48L684.1 254.48C687.58 260.78 687.81 273.57 686.84 274.86C676.54 268.68 667.52 272.08 658.41 274.86L658.41 274.86Z" /><path fill-rule="evenodd" class="shp11" d="M653.73 298.44C655.6 296.82 662.11 292.75 658.41 274.86L686.84 274.86C691.04 285.28 690.66 297.45 690.03 298.44C677.93 292.3 665.83 294.17 653.73 298.44L653.73 298.44Z" /><path fill-rule="evenodd" class="shp11" d="M690.03 298.44C695.75 309.58 696.25 326.6 694.42 331.54C675.37 323.69 662.72 330.51 646.28 335.19C649.22 334.19 659.73 310.35 653.73 298.44L690.03 298.44L690.03 298.44Z" /></g><g ><path fill-rule="evenodd" class="shp11" d="M686.94 256.7C689.58 253.91 691.35 250.13 689.85 242.7L705.81 242.7C709.53 248.02 708.2 256.92 707.64 256.7C700.86 252.22 693.89 254.73 686.94 256.7Z" /><path fill-rule="evenodd" class="shp11" d="M683.03 276.1C683.81 273.18 690.28 268.13 686.94 256.7L707.64 256.7C710.98 262.69 711.2 274.86 710.27 276.1C700.4 270.21 691.76 273.45 683.03 276.1L683.03 276.1Z" /><path fill-rule="evenodd" class="shp11" d="M678.55 298.54C680.34 296.99 686.58 293.12 683.03 276.1L710.27 276.1C714.3 286.02 713.93 297.6 713.33 298.54C701.73 292.69 690.14 294.47 678.55 298.54L678.55 298.54Z" /><path fill-rule="evenodd" class="shp11" d="M713.33 298.54C718.81 309.14 719.28 325.33 717.53 330.03C699.28 322.56 687.17 329.06 671.41 333.51C674.23 332.56 684.3 309.87 678.55 298.54L713.33 298.54L713.33 298.54Z" /></g><path fill-rule="evenodd" class="shp12" d="M710.19 326.51C711.07 312.43 709.14 293.49 701.52 282.52C710.56 291.15 727.28 308.68 741.01 324.21C732.27 323.44 718.93 322.76 710.19 326.51Z" /><path fill-rule="evenodd" class="shp12" d="M722.85 319.85C718.84 299.54 710.47 277.94 702.85 266.96C716.08 279.78 735.34 302.99 749.07 318.51C740.33 317.74 731.59 316.09 722.85 319.85L722.85 319.85Z" /><path fill-rule="evenodd" class="shp13" d="M627.23 347.84C627.17 344.6 625.87 341.96 619.92 338.29C618.78 335.23 619.3 335.49 619.34 334.78C650.7 337.55 686.66 336.2 722 329.23L721.42 331.27C720.26 335.32 713.21 337.75 713.72 347.84L627.23 347.84L627.23 347.84Z" /><path class="shp8" d="M665.79 239.73L672.95 236.81L681.94 239.73" /><path class="shp8" d="M689.84 242.64L697.97 239.61L705.62 242.64" /><path fill-rule="evenodd" class="shp14" d="M721.63 330.52C720.19 330.92 718.61 331.31 716.86 331.69C709.07 333.39 698.46 334.92 686.64 336.02C664.94 338.03 639.17 338.58 619.25 336.13C619.31 336.46 619.45 336.93 619.68 337.6C639.69 339.99 665.2 339.43 686.77 337.42C698.63 336.32 709.28 334.79 717.16 333.07C718.57 332.76 719.85 332.44 721.07 332.13C721.21 331.85 721.33 331.57 721.42 331.27L721.63 330.52L721.63 330.52Z" /><path fill-rule="evenodd" class="shp15" d="M719.17 334.69C718.39 334.89 717.58 335.08 716.72 335.26C708.97 336.96 698.37 338.49 686.58 339.58C666.06 341.49 641.89 342.07 622.53 340.06C623.97 341.14 625 342.15 625.71 343.13C644.71 344.77 667.37 344.13 686.83 342.32C698.24 341.26 708.5 339.8 716.32 338.15C717.25 336.81 718.27 335.72 719.17 334.69L719.17 334.69Z" /></g><path class="shp8" d="M627.23 347.84C627.17 344.6 625.87 341.96 619.92 338.29C618.78 335.23 619.3 335.49 619.34 334.78C650.7 337.55 686.66 336.2 722 329.23L721.42 331.27C720.26 335.32 713.21 337.75 713.72 347.84L627.23 347.84L627.23 347.84Z" /></g><g ><path class="shp16" d="M598.37 343.9C595.39 346.24 592.7 346.24 590.13 345.26C594.75 357.4 600.88 368.57 608.31 378.11C625.99 400.79 650.4 413.69 675 413.69C699.6 413.69 724.01 400.79 741.69 378.11C749.11 368.58 755.23 357.43 759.85 345.3C756.89 346.42 754.13 345.87 751.56 343.9C748.41 345.39 745.07 346.32 740.62 343.9C737.73 345.42 734.52 346.3 729.67 343.9C726.03 346.38 722.38 346.04 718.73 343.9C715.32 344.72 712.43 347.36 707.79 343.9C704.14 346.43 700.5 345.98 696.85 343.9C693.81 344.96 691.45 347.21 685.91 343.9C681.52 346.49 678.03 345.92 674.97 343.9C671.95 345 669.55 347.18 664.02 343.9C660.38 346.54 656.73 345.87 653.08 343.9C649.77 345.91 646.11 345.86 642.14 343.9C639.07 345.92 635.59 346.49 631.2 343.9C627.55 347 623.9 346.05 620.26 343.9C616.61 347.03 612.96 346.72 609.32 343.9C604.88 347.05 601.5 345.99 598.37 343.9L598.37 343.9Z" /><path fill-rule="evenodd" class="shp17" d="M609.09 349.76C613.32 348.8 617.65 349.35 622 349.25C629.16 349.09 636.41 348.85 643.48 349.76C646.53 350.16 652.52 349.04 652.42 352.12C652.32 355.4 643.32 350.77 642.77 354C642.33 356.6 647.06 357.29 649.6 358.01C654.59 359.4 660.15 356.85 665.14 358.24C667.24 358.83 670.98 359.36 670.79 361.54C670.68 362.87 668.33 362.67 667.02 362.95C664.43 363.51 661.41 364.49 658.57 365C656.52 365.36 654.33 364.87 653.62 366.65C652.82 368.6 655.66 367.77 657.6 368.6C661.67 370.35 666.26 366.7 670.85 366.46C675.3 366.22 679.75 369.45 683.74 367.9C687.42 366.46 694.11 363.81 692.69 360.12C691.06 355.87 683.46 361.41 679.03 360.36C677.22 359.93 673.71 359.59 674.09 357.77C675.23 352.3 688.43 361.65 690.81 356.59C691.38 355.37 689.65 353.93 688.45 353.3C681.16 349.45 671.31 356.05 663.73 352.82C662.5 352.3 660.39 351.23 660.9 350C662.96 345.03 667.87 349.24 673.6 349.14C683.02 348.98 695.08 347.41 703.52 350C706.33 350.86 711.64 352.12 710.82 354.94C709.49 359.55 698.46 351.06 696.46 355.42C695.83 356.78 697.92 358.31 699.28 358.95C702.49 360.44 706.63 357.33 709.88 358.71C711.16 359.25 713.23 360.49 712.71 361.77C711.02 365.92 703.51 360.99 699.28 362.48C695.63 363.77 693.54 368.06 689.87 369.31C683.98 371.31 677.51 370.41 671.11 370.57C665.63 370.71 660.2 372.22 655.25 370.25C651.54 368.77 645.28 365.48 646.77 361.77C648.21 358.2 657.47 365.29 658.31 361.54C658.58 360.34 656.21 360.16 655.01 359.89C645.67 357.77 631.88 365.82 623.28 361.61C622.22 361.09 620.65 359.85 621.16 358.79C623.72 353.48 639.72 362.56 641.83 357.06C642.56 355.15 639.26 353.58 637.35 352.82C632.79 351.03 626.56 354.21 621.04 353.87C616.21 353.57 611.93 349.34 609.8 353.06C607.15 357.7 613.15 364.33 617.81 366.95C624.71 370.85 634.22 363.57 641.59 366.48C645.67 368.09 646.95 374.01 651.01 375.67C658.43 378.68 671.48 368.49 675.03 375.67C675.77 377.17 673.47 378.91 671.97 379.67C670.56 380.39 668.82 378.68 666.95 378.43C660.94 377.6 653.63 375.33 651.95 380.14C651.15 382.46 655.29 384.05 657.6 384.85C664.91 387.39 670.7 385.81 678.68 384.54C682.85 383.88 691.81 380.03 692.93 383.91C693.48 385.84 689.67 386.41 687.75 386.97C679.15 389.48 669.84 387.42 660.9 387.91C657.76 388.08 652.36 385.6 651.48 388.62C651.04 390.13 653.76 390.96 655.25 391.44C660.47 393.13 665.49 392.62 671.03 391.97C673.73 391.66 678.84 388.45 679.74 390.97C680.38 392.76 677.05 393.86 675.27 394.51C668.36 397.02 663.17 395.67 655.59 395.84C649.15 395.99 640.29 398.07 634.53 395.68C632.73 394.94 629.75 393.23 630.52 391.44C632.95 385.82 646.55 397.1 648.89 391.44C649.83 389.19 642.78 388.52 643.71 386.26C644.79 383.65 650.91 388.78 652.19 386.26C652.85 384.96 650.91 383.38 649.6 382.73C645.17 380.53 639.16 385.23 634.76 382.97C633.41 382.27 630.21 381.3 630.92 379.95C633.04 375.92 643.83 383.29 645.83 379.2C646.62 377.59 644.19 375.64 642.53 374.96C635.21 371.93 625.79 382.1 617.34 375.2C616.38 374.41 613.98 372.05 615.22 372.13C622.25 372.61 636.42 375.46 639.47 372.61C640.21 371.92 638.59 370.21 637.59 370.25C608.48 371.43 604.99 362.32 606.98 369.54C608.71 375.86 614.51 380.31 618.98 385.09C624.35 390.81 629.67 397.05 636.65 400.63C645.03 404.93 654.82 406.05 664.2 406.99C672.79 407.85 681.67 408.17 690.1 406.28C697.71 404.57 705.17 401.38 711.53 396.86C714.07 395.06 719.25 392.83 717.89 390.03C713.15 380.33 688.93 403.14 685.63 392.86C685.01 390.95 689.07 390.8 690.81 389.8C694.08 387.91 697.59 388.78 701.01 387.84C705.24 386.67 709.33 383.92 712.69 383.97C717.26 384.05 720.45 385.15 720.71 386.97C721.06 389.4 725.39 382.41 724.01 380.38C720.42 375.1 710.44 381.05 703.5 382.93C700.68 383.7 698.35 385.04 697.17 382.73C696.5 381.44 698.71 380.11 699.99 379.43C702.65 378.04 706.23 379.78 708.94 378.49C710.34 377.82 712.85 376.62 712.24 375.2C711.43 373.32 708.85 374.67 706.64 374.69C703.14 374.72 699.43 374.43 696.46 375.67C694.46 376.5 693.75 379.32 691.75 380.14C687.68 381.81 681.23 383.87 678.56 380.38C677.72 379.27 678.61 377.18 679.74 376.37C682.37 374.51 686.36 377.94 689.39 376.84C691.69 376.02 692.54 372.81 694.81 371.9C700.93 369.44 708.97 374.88 714.59 371.43C715.58 370.82 716.82 369.37 716.24 368.37C713.49 363.61 702.1 372.87 699.76 367.9C699.37 367.09 700.61 366.19 701.4 365.78C706.84 362.94 714.35 367.7 719.77 364.83C721.6 363.87 724.33 361.8 723.54 359.89C722.21 356.67 714.58 361.67 713.18 358.48C712.79 357.6 713.99 356.59 714.83 356.12C718.33 354.17 723.49 357.62 726.84 355.42C727.57 354.93 728.47 353.81 728.01 353.06C726.07 349.83 718.4 356.19 716.71 352.82C716.11 351.62 717.88 350.18 719.07 349.53C724 346.81 731.38 348.98 737.69 348.61C742.22 348.35 746.32 344.22 748.03 347.88C748.76 349.44 746.05 350.89 744.5 351.65C740.53 353.58 734.96 350.34 731.31 352.82C729.72 353.91 727.58 356.45 728.72 358.01C729.9 359.61 733.45 355.45 734.61 357.06C735.38 358.15 733.88 359.93 732.72 360.6C731.02 361.57 728.58 359.46 726.84 360.36C724.92 361.35 725.16 364.67 723.3 365.78C721.68 366.75 718.93 364.86 717.65 366.25C717.01 366.94 716.99 368.41 717.65 369.07C721.59 373.01 733.09 363.65 734.37 369.07C734.82 370.95 731.07 371.22 729.19 371.66C725.68 372.49 721.56 370 718.36 371.66C716.66 372.55 714.23 374.65 715.06 376.37C716 378.32 718.22 376.07 720.82 375.53C725.42 374.58 731.18 374.17 732.96 377.55C735.77 382.87 727.67 388.5 723.78 393.09C721.32 395.98 718.31 398.43 715.06 400.39C707.8 404.78 699.78 408.13 691.51 410.05C683.47 411.91 675.02 412.37 666.79 411.7C659.56 411.11 652.44 409.16 645.59 406.75C639.1 404.46 632.57 401.83 626.99 397.8C621.68 393.97 617.37 388.83 613.33 383.67C609.05 378.2 599.71 372.47 602.27 366.01C603.28 363.44 609.31 366.48 610.27 363.89C611.83 359.71 601.58 357.14 602.74 352.82C603.35 350.55 606.8 350.29 609.09 349.76L609.09 349.76Z" /><path fill-rule="evenodd" class="shp18" d="M680.1 346.74C681.31 348.39 686.12 350.04 689.37 351.69C686.28 351.29 683.19 352.4 680.1 349.94C677.51 351.4 674.92 351.14 672.33 350.83C674.46 349.85 674.84 350.32 680.1 346.74ZM716.33 346.95C717.24 348.19 720.18 349.44 722.97 350.68C724.19 350.24 725.43 349.79 729.27 347.17C730.48 348.82 735.29 350.47 738.54 352.13C735.45 351.72 732.36 352.83 729.27 350.37C727.76 351.22 726.25 351.48 724.74 351.49C725.03 351.63 725.33 351.77 725.6 351.91C722.51 351.5 719.42 352.62 716.33 350.15C713.74 351.62 711.15 351.35 708.56 351.05C710.69 350.07 711.07 350.54 716.33 346.95ZM638.69 348.24C639.9 349.9 644.71 351.55 647.97 353.2C644.88 352.8 641.78 353.91 638.69 351.45C636.11 352.91 633.52 352.65 630.93 352.34C633.05 351.36 633.44 351.83 638.69 348.24ZM662.41 348.89C663.38 350.22 666.66 351.54 669.6 352.87C669.87 352.69 670.1 352.54 670.39 352.34C671.6 353.99 676.42 355.65 679.67 357.3C676.58 356.9 673.49 358.01 670.4 355.54C668.66 356.53 666.93 356.72 665.2 356.66C666.84 358.17 671.1 359.68 674.06 361.18C670.97 360.78 667.88 361.89 664.79 359.42C662.2 360.89 659.61 360.63 657.02 360.32C659.06 359.38 659.54 359.74 664.22 356.6C663.69 356.55 663.16 356.5 662.63 356.44C664.41 355.62 665 355.78 668.22 353.77C666.29 353.78 664.35 353.64 662.42 352.09C659.83 353.56 657.24 353.3 654.65 352.99C656.77 352.01 657.16 352.48 662.41 348.89ZM700.8 350.4C702.01 352.05 706.82 353.71 710.07 355.36C706.98 354.95 703.89 356.07 700.8 353.6C698.21 355.07 695.62 354.8 693.04 354.5C695.16 353.52 695.55 353.99 700.8 350.4ZM632.22 355.58C629.13 355.17 626.04 356.28 622.95 353.82C620.36 355.29 617.78 355.02 615.19 354.71C617.31 353.73 617.7 354.2 622.95 350.62C624.16 352.27 628.97 353.92 632.22 355.58ZM644.73 356.22L644.73 356.22C645.94 357.88 650.75 359.53 654 361.18C650.91 360.78 647.82 361.89 644.73 359.42C642.81 360.52 640.88 360.65 638.96 360.52C640.86 361.89 644.62 363.26 647.32 364.63C646.87 364.57 646.42 364.55 645.97 364.54C647.84 365.94 651.69 367.33 654.43 368.73C651.34 368.32 648.25 369.44 645.16 366.97C642.57 368.44 639.99 368.18 637.4 367.87C639.35 366.97 639.88 367.25 643.99 364.55C642.01 364.57 640.03 364.46 638.05 362.88C635.46 364.34 632.87 364.08 630.28 363.77C632.26 362.86 632.78 363.16 637.06 360.33C637.03 360.33 637 360.32 636.97 360.32C637.07 360.27 637.16 360.24 637.26 360.19C637.52 360.02 637.75 359.87 638.05 359.67C638.08 359.73 638.14 359.78 638.18 359.83C639.49 359.35 640.63 359.02 644.73 356.22ZM719.96 358.25C721.17 359.9 725.98 361.55 729.23 363.21C726.14 362.8 723.05 363.92 719.96 361.45C717.37 362.92 714.78 362.65 712.19 362.35C714.32 361.37 714.7 361.84 719.96 358.25ZM708.08 367.94C704.99 367.53 701.9 368.65 698.81 366.18C696.22 367.65 693.63 367.38 691.04 367.08C693.17 366.1 693.55 366.57 698.81 362.98C700.02 364.63 704.83 366.29 708.08 367.94ZM687.43 368.08C684.34 367.68 681.25 368.79 678.16 366.33C675.57 367.79 672.98 367.53 670.39 367.22C672.52 366.24 672.9 366.71 678.16 363.12C679.37 364.78 684.18 366.43 687.43 368.08ZM629.85 368.3C631.06 369.95 635.87 371.61 639.12 373.26C636.03 372.85 632.94 373.97 629.85 371.5C627.26 372.97 624.68 372.7 622.09 372.4C624.21 371.42 624.6 371.89 629.85 368.3ZM668.67 368.3C669.88 369.95 674.69 371.61 677.94 373.26C674.85 372.85 671.76 373.97 668.67 371.5C667.38 372.23 666.09 372.53 664.8 372.61C666.5 373.4 668.41 374.2 669.96 374.99C666.87 374.58 663.78 375.69 660.69 373.23C658.1 374.69 655.51 374.43 652.92 374.12C655.05 373.14 655.43 373.61 660.69 370.03C661.08 370.56 661.88 371.1 662.85 371.64C663.96 371.22 665.33 370.58 668.67 368.3ZM710.93 368.9C712.14 370.55 716.96 372.2 720.21 373.86C717.12 373.45 714.03 374.56 710.94 372.1C709.32 373.02 707.7 373.26 706.08 373.23C708.08 374.28 710.76 375.32 712.81 376.37C709.72 375.96 706.63 377.08 703.54 374.61C700.95 376.08 698.36 375.81 695.78 375.51C697.9 374.53 698.29 375 703.54 371.41C703.78 371.74 704.17 372.07 704.66 372.4C705.87 371.97 707.12 371.5 710.93 368.9ZM646.02 374.12L646.02 374.12C646.92 375.35 649.81 376.58 652.57 377.81C652.7 377.72 652.79 377.66 652.92 377.57C653.11 377.82 653.38 378.08 653.72 378.33C654.27 378.58 654.8 378.83 655.3 379.08C655.15 379.06 654.99 379.06 654.84 379.05C656.88 380.21 659.91 381.37 662.2 382.53C659.11 382.13 656.02 383.24 652.93 380.77C650.34 382.24 647.75 381.98 645.16 381.67C646.95 380.85 647.54 381.02 650.78 378.98C649.2 378.91 647.61 378.59 646.03 377.32C643.44 378.79 640.85 378.53 638.26 378.22C640.38 377.24 640.77 377.71 646.02 374.12ZM691.96 380.81C688.87 380.4 685.78 381.52 682.69 379.05C680.1 380.52 677.51 380.25 674.92 379.94C677.05 378.97 677.43 379.43 682.69 375.85C683.9 377.5 688.71 379.15 691.96 380.81ZM693.9 388.36C690.81 387.95 687.72 389.06 684.63 386.6C682.04 388.06 679.45 387.8 676.86 387.49C678.99 386.51 679.37 386.98 684.63 383.4C685.84 385.05 690.65 386.7 693.9 388.36ZM649.26 384.26C650.47 385.91 655.28 387.56 658.53 389.22C655.44 388.81 652.35 389.93 649.26 387.46C646.67 388.93 644.08 388.66 641.5 388.36C643.62 387.38 644.01 387.85 649.26 384.26ZM677.94 390.3C674.85 389.89 671.76 391 668.67 388.54C666.08 390.01 663.49 389.74 660.9 389.43C663.03 388.45 663.41 388.92 668.67 385.34C669.88 386.99 674.69 388.64 677.94 390.3Z" /></g></g><g ><path fill-rule="evenodd" class="shp19" d="M675 164.41C700.96 164.41 726.46 178 744.76 201.5C763.1 225.04 773.64 257.76 773.64 291C773.64 324.24 763.1 356.96 744.76 380.5C726.46 404 700.96 417.59 675 417.59C649.04 417.59 623.54 404 605.24 380.5C586.9 356.96 576.36 324.24 576.36 291C576.36 257.76 586.9 225.04 605.24 201.5C623.54 178 649.04 164.41 675 164.41ZM675 182.03C655.22 182.03 634.61 192.48 619.14 212.33C603.72 232.13 593.98 261.56 593.98 291C593.98 320.44 603.72 349.87 619.14 369.67C634.61 389.52 655.22 399.97 675 399.97C694.78 399.97 715.39 389.52 730.86 369.67C746.28 349.87 756.02 320.44 756.02 291C756.02 261.56 746.28 232.13 730.86 212.33C715.39 192.48 694.78 182.03 675 182.03Z" /><path fill-rule="evenodd" class="shp19" d="M675 162.65C701.57 162.65 727.56 176.56 746.15 200.41C764.78 224.32 775.41 257.39 775.41 291C775.41 324.61 764.78 357.68 746.15 381.59C727.56 405.45 701.57 419.35 675 419.35C648.43 419.35 622.44 405.45 603.85 381.59C585.22 357.68 574.59 324.61 574.59 291C574.59 257.39 585.22 224.32 603.85 200.41C622.44 176.56 648.43 162.65 675 162.65ZM675 166.17C649.66 166.17 624.65 179.45 606.63 202.58C588.57 225.76 578.12 258.13 578.12 291C578.12 323.87 588.57 356.24 606.63 379.42C624.65 402.55 649.66 415.83 675 415.83C700.34 415.83 725.35 402.55 743.37 379.42C761.43 356.24 771.88 323.87 771.88 291C771.88 258.13 761.43 225.76 743.37 202.58C725.35 179.45 700.34 166.17 675 166.17ZM732.25 211.24C747.97 231.43 757.78 261.17 757.78 291C757.78 320.83 747.97 350.57 732.25 370.76C716.5 390.97 695.4 401.73 675 401.73C654.59 401.73 633.5 390.97 617.75 370.76C602.03 350.57 592.22 320.83 592.22 291C592.22 261.17 602.03 231.43 617.75 211.24C633.5 191.03 654.6 180.27 675 180.27C695.4 180.27 716.5 191.03 732.25 211.24ZM620.53 213.41C605.41 232.83 595.74 261.95 595.74 291C595.74 320.05 605.41 349.17 620.53 368.59C635.71 388.08 655.84 398.2 675 398.2C694.16 398.2 714.28 388.08 729.47 368.59C744.59 349.17 754.26 320.05 754.26 291C754.26 261.95 744.59 232.83 729.47 213.41C714.28 193.92 694.16 183.8 675 183.8C655.84 183.8 635.71 193.92 620.53 213.41Z" /><g ><path fill-rule="evenodd" class="shp10" d="M586.52 329.21C587.02 328.01 587.92 327.2 589.22 326.78C590.89 326.24 592.42 326.46 593.79 327.42C594.8 328.12 595.48 329.06 595.84 330.24C595.9 330.44 596 330.83 596.14 331.44C596.22 331.78 596.32 332.12 596.42 332.48C596.67 333.31 596.86 333.85 597 334.11C597.1 334.31 597.17 334.44 597.19 334.52C597.22 334.63 597.17 334.7 597.04 334.74C596.94 334.77 596.87 334.73 596.81 334.63C596.67 334.36 596.5 334.2 596.29 334.15C596.08 334.1 595.76 334.15 595.34 334.29L589.44 336.18C589.01 336.32 588.71 336.55 588.55 336.87C588.39 337.19 588.38 337.58 588.51 338.03C588.56 338.17 588.52 338.26 588.4 338.3C588.32 338.33 588.26 338.31 588.21 338.26C588.17 338.21 588.12 338.08 588.06 337.87L587.75 336.81C587.68 336.57 587.61 336.35 587.54 336.16C587.43 335.88 587.28 335.49 587.08 334.99C586.81 334.32 586.61 333.79 586.49 333.38L586.49 333.38C586.01 331.8 586.03 330.41 586.52 329.21ZM587.67 334.75C587.81 334.86 588.12 334.85 588.6 334.69L594.53 332.79L595.12 332.51C595.59 332.19 595.68 331.53 595.38 330.54C595.06 329.46 594.44 328.72 593.52 328.32C592.61 327.92 591.54 327.92 590.31 328.31C589.02 328.73 588.09 329.44 587.51 330.46C586.92 331.48 586.81 332.59 587.18 333.8L587.18 333.8C587.33 334.29 587.49 334.61 587.67 334.75Z" /><path fill-rule="evenodd" class="shp10" d="M582.79 315.12L583.13 314.87L589.85 310.26C590.19 310.03 590.43 309.78 590.57 309.53C590.71 309.27 590.78 308.97 590.78 308.61C590.78 308.52 590.84 308.46 590.96 308.44C591.09 308.42 591.16 308.46 591.18 308.57C591.18 308.63 591.18 308.73 591.18 308.85C591.17 309.24 591.23 309.84 591.38 310.66C591.52 311.49 591.65 312.04 591.78 312.33C591.81 312.39 591.83 312.46 591.84 312.51C591.87 312.64 591.81 312.72 591.68 312.75C591.62 312.76 591.56 312.71 591.51 312.61C591.4 312.4 591.25 312.23 591.06 312.11C590.86 311.99 590.67 311.94 590.49 311.98C590.23 312.03 589.69 312.34 588.88 312.92C588.63 313.1 588.5 313.27 588.48 313.43C588.47 313.6 588.55 314.15 588.71 315.1L588.88 316.08L589.1 316.71C589.21 316.87 589.56 317.01 590.13 317.14L590.71 317.26C590.87 317.3 591.03 317.31 591.19 317.28C591.78 317.17 592.04 316.68 591.99 315.82C591.98 315.64 592.03 315.54 592.15 315.52C592.27 315.51 592.34 315.58 592.37 315.75C592.39 315.83 592.39 315.96 592.39 316.12C592.38 316.45 592.4 316.74 592.44 316.99C592.48 317.22 592.57 317.58 592.7 318.07C592.81 318.44 592.86 318.67 592.88 318.76C592.9 318.9 592.86 318.98 592.74 319C592.65 319.01 592.57 318.96 592.5 318.83C592.37 318.59 592.19 318.41 591.95 318.29C591.71 318.17 591.23 318.02 590.5 317.84L585.78 316.68C585.4 316.59 585.14 316.52 585 316.49L583.56 316.06C583.08 315.91 582.84 315.84 582.84 315.84C582.86 315.83 582.86 315.83 582.86 315.83C582.86 315.83 582.77 315.81 582.58 315.77C582.39 315.72 582.29 315.67 582.28 315.62L582.28 315.62C582.26 315.54 582.44 315.38 582.79 315.12ZM584.81 315.76C584.82 315.81 585 315.89 585.36 315.98L585.67 316.06L587.68 316.56L587.86 316.61C587.94 316.63 588 316.63 588.05 316.63C588.21 316.6 588.26 316.41 588.2 316.06L587.83 313.94C587.8 313.75 587.74 313.67 587.64 313.69C587.62 313.69 587.58 313.71 587.53 313.75L587.46 313.8L585.49 315.13C585.02 315.45 584.79 315.66 584.81 315.76L584.81 315.76Z" /><path class="shp10" d="M579.98 290.89C579.97 290.72 580.03 290.63 580.17 290.63C580.28 290.62 580.34 290.68 580.35 290.81C580.41 291.27 580.57 291.58 580.85 291.75C581.12 291.92 581.57 291.99 582.2 291.95L582.68 291.92L587.07 291.53L587.36 291.51C588.02 291.47 588.49 291.33 588.8 291.08C589.1 290.83 589.27 290.43 589.3 289.89C589.31 289.75 589.38 289.68 589.5 289.67C589.63 289.67 589.7 289.83 589.72 290.16C589.72 290.26 589.71 290.41 589.7 290.63C589.66 291.23 589.64 291.65 589.65 291.89C589.68 292.41 589.72 292.83 589.79 293.17C589.85 293.48 589.88 293.7 589.89 293.82C589.89 293.94 589.84 294 589.72 294.01C589.62 294.02 589.56 293.95 589.51 293.81C589.42 293.54 589.29 293.35 589.12 293.24C588.95 293.14 588.7 293.09 588.38 293.11C588.22 293.12 588.11 293.13 588.05 293.14L583.36 293.58C583.23 293.59 583.17 293.63 583.18 293.69C583.18 293.76 583.31 293.85 583.58 293.97L589.35 296.44L589.57 296.53C589.87 296.66 590.02 296.77 590.03 296.86C590.04 296.96 589.79 297.16 589.28 297.43L588.56 297.84L583.62 300.43L583.52 300.49C583.49 300.51 583.47 300.54 583.47 300.58C583.48 300.66 583.57 300.69 583.77 300.68L584 300.68L587.57 300.59L587.86 300.58L588.52 300.48C589.21 300.31 589.61 299.9 589.74 299.27C589.78 299.05 589.86 298.93 589.97 298.93C590.1 298.92 590.16 299 590.17 299.18C590.18 299.31 590.17 299.46 590.16 299.65L590.12 300.17C590.1 300.3 590.1 300.49 590.11 300.74C590.14 301.19 590.17 301.53 590.22 301.78C590.26 301.94 590.28 302.06 590.28 302.15C590.29 302.3 590.23 302.38 590.11 302.38C590.02 302.39 589.95 302.33 589.91 302.22C589.77 301.85 589.54 301.59 589.22 301.43C588.89 301.27 588.46 301.21 587.9 301.24L583.25 301.28L582.77 301.28C582.21 301.31 581.77 301.47 581.46 301.77C581.15 302.07 581.01 302.47 581.03 302.97C581.04 303.15 580.98 303.25 580.84 303.26C580.71 303.26 580.63 303.16 580.62 302.95C580.62 302.91 580.62 302.85 580.62 302.78L580.63 302.36C580.63 302.28 580.63 302.18 580.62 302.06C580.61 301.83 580.59 301.61 580.55 301.39C580.49 301.06 580.47 300.85 580.46 300.75C580.45 300.43 580.58 300.19 580.87 300.04L587.07 296.72C587.35 296.58 587.48 296.46 587.47 296.37C587.46 296.29 587.36 296.2 587.17 296.12L581.36 293.66C580.81 293.42 580.46 293.26 580.32 293.15C580.18 293.05 580.1 292.9 580.1 292.72C580.09 292.66 580.09 292.55 580.1 292.4C580.11 292.26 580.11 292.11 580.1 291.96C580.09 291.76 580.07 291.52 580.02 291.23C580 291.08 579.98 290.96 579.98 290.89L579.98 290.89L579.98 290.89Z" /><path class="shp10" d="M580.08 282.43C580.08 282.38 580.09 282.28 580.12 282.13C580.22 281.52 580.29 281.05 580.32 280.71C580.35 280.24 580.37 279.71 580.37 279.13C580.37 278.89 580.37 278.73 580.38 278.62C580.4 278.37 580.48 278.25 580.62 278.26C580.69 278.27 580.75 278.29 580.77 278.34C580.8 278.38 580.82 278.47 580.83 278.62C580.87 278.92 580.96 279.13 581.11 279.24C581.26 279.36 581.56 279.45 582.01 279.51L583.78 279.78L585.03 279.88C586.17 279.97 586.99 279.98 587.48 279.9C587.97 279.82 588.41 279.6 588.78 279.24C589.35 278.7 589.67 277.97 589.75 277.05C589.82 276.11 589.62 275.33 589.13 274.71C588.8 274.29 588.29 273.97 587.61 273.75C586.92 273.53 585.93 273.36 584.63 273.25L584.06 273.2L582.61 273.11C582.17 273.1 581.82 273.21 581.55 273.45C581.29 273.68 581.14 274.01 581.11 274.44C581.09 274.63 581.01 274.72 580.87 274.71C580.76 274.7 580.71 274.65 580.71 274.56C580.71 274.52 580.72 274.47 580.75 274.39C580.77 274.31 580.8 274.12 580.84 273.82L580.93 273.04L580.97 272.32C580.97 272.08 580.96 271.86 580.96 271.68C580.96 271.59 580.96 271.51 580.96 271.43C580.97 271.3 581.04 271.24 581.17 271.25C581.26 271.26 581.32 271.33 581.33 271.45L581.35 271.73C581.38 272.11 581.76 272.33 582.48 272.39L583.1 272.44L583.96 272.53C585.32 272.65 586.41 272.81 587.23 273.02C588.05 273.23 588.67 273.51 589.1 273.85C590.13 274.68 590.58 275.97 590.44 277.72C590.34 278.96 590.03 279.9 589.53 280.54C588.84 281.42 587.61 281.78 585.83 281.63L583.11 281.31L581.83 281.22C581.51 281.2 581.28 281.21 581.14 281.26C581.01 281.32 580.88 281.44 580.77 281.64C580.65 281.87 580.55 282.13 580.48 282.43C580.44 282.61 580.36 282.7 580.24 282.69C580.12 282.68 580.06 282.59 580.08 282.43L580.08 282.43L580.08 282.43Z" /><path class="shp10" d="M582.56 260.93C582.65 260.48 582.82 260.06 583.06 259.66L583.35 259.22C583.47 259.02 583.54 258.88 583.56 258.79C583.57 258.72 583.57 258.65 583.55 258.57L583.47 258.27C583.46 258.23 583.45 258.19 583.46 258.15C583.48 258.05 583.57 258.01 583.72 258.04L584.28 258.17C584.37 258.19 584.46 258.2 584.54 258.21L585.24 258.25L585.88 258.31C585.94 258.31 585.99 258.32 586.03 258.33C586.23 258.37 586.32 258.45 586.29 258.57C586.28 258.65 586.18 258.7 585.99 258.7C585.32 258.71 584.7 258.95 584.12 259.41C583.54 259.87 583.19 260.42 583.07 261.05C582.99 261.48 583.06 261.88 583.28 262.26C583.5 262.64 583.8 262.86 584.19 262.94C584.54 263.01 584.87 262.93 585.18 262.7C585.39 262.55 585.76 262.04 586.32 261.16C586.98 260.12 587.57 259.45 588.07 259.17C588.67 258.84 589.34 258.75 590.07 258.9C590.88 259.06 591.52 259.5 592.01 260.23C592.49 260.95 592.65 261.72 592.5 262.53C592.44 262.86 592.23 263.36 591.88 264.04C591.71 264.35 591.59 264.58 591.53 264.73C591.44 264.95 591.38 265.07 591.33 265.09C591.29 265.12 591.16 265.13 590.96 265.11C590.74 265.09 590.41 265.1 589.97 265.14C589.31 265.19 588.89 265.2 588.71 265.17C588.49 265.12 588.39 265.03 588.42 264.88C588.43 264.81 588.5 264.77 588.62 264.77C589.45 264.69 590.2 264.42 590.85 263.94C591.5 263.47 591.88 262.92 592 262.3C592.09 261.81 591.99 261.34 591.71 260.89C591.42 260.44 591.05 260.16 590.59 260.07C590.23 260 589.91 260.04 589.63 260.19C589.36 260.34 589.08 260.64 588.77 261.09L588.1 262.09C587.46 263.03 586.9 263.64 586.43 263.93C585.97 264.22 585.41 264.3 584.75 264.17C583.98 264.01 583.39 263.63 582.97 263.01C582.56 262.39 582.42 261.7 582.56 260.93L582.56 260.93L582.56 260.93Z" /><path class="shp10" d="M603.44 210.55C604.19 209.41 604.97 208.74 605.78 208.55C606.5 208.38 607.15 208.5 607.75 208.92C608.38 209.38 608.76 210.01 608.88 210.81C609 211.61 608.82 212.37 608.35 213.08C608.1 213.47 607.84 213.78 607.57 214.01C607.3 214.25 607.11 214.33 607 214.25C606.9 214.18 606.88 214.09 606.95 213.99C606.96 213.97 606.99 213.94 607.03 213.91C607.23 213.73 607.41 213.54 607.54 213.33C607.86 212.85 607.97 212.35 607.87 211.82C607.78 211.29 607.49 210.86 607.02 210.53C606.44 210.11 605.84 209.95 605.23 210.05C604.62 210.15 604.13 210.48 603.76 211.05C603.47 211.49 603.33 211.83 603.36 212.07C603.39 212.31 603.58 212.56 603.94 212.82L608.34 215.95C609.07 216.47 609.59 216.77 609.89 216.83C610.25 216.91 610.59 216.75 610.92 216.34L611.12 216.1C611.2 215.99 611.29 215.98 611.4 216.06C611.5 216.13 611.51 216.25 611.4 216.4C611.38 216.44 611.34 216.49 611.28 216.57C611.18 216.69 611.09 216.82 611 216.95L610.35 217.86L610.2 218.1C610.01 218.38 609.78 218.79 609.51 219.33C609.43 219.51 609.36 219.64 609.29 219.73C609.21 219.86 609.12 219.89 609.02 219.83C608.93 219.77 608.91 219.68 608.95 219.56C609.09 219.2 609.08 218.89 608.94 218.64C608.8 218.38 608.44 218.05 607.86 217.64L603.4 214.46C602.95 214.15 602.57 214 602.25 214.03C601.93 214.06 601.61 214.27 601.29 214.65C601.18 214.79 601.07 214.82 600.96 214.74C600.85 214.66 600.85 214.53 600.96 214.36C600.99 214.32 601.06 214.23 601.17 214.09C601.49 213.67 601.84 213.16 602.22 212.58C602.41 212.3 602.55 212.07 602.66 211.88L603.06 211.18C603.19 210.94 603.32 210.73 603.44 210.55L603.44 210.55L603.44 210.55Z" /><path class="shp10" d="M610.29 201.35C610.31 201.32 610.36 201.27 610.44 201.19C610.5 201.13 610.58 201.05 610.68 200.93L611.18 200.41L613 198.38C614.03 197.21 614.66 196.47 614.87 196.16C614.89 196.13 614.91 196.1 614.93 196.08C615.02 195.98 615.12 195.98 615.24 196.09C615.31 196.16 615.47 196.29 615.69 196.46C616.02 196.72 616.24 196.91 616.38 197.03C616.64 197.28 616.71 197.48 616.6 197.62C616.54 197.69 616.43 197.66 616.28 197.51C615.94 197.18 615.57 197.08 615.19 197.19C614.81 197.31 614.36 197.66 613.84 198.24L613.26 198.9L612.98 199.31C612.87 199.55 612.97 199.81 613.26 200.09L613.47 200.29L614.59 201.36C614.91 201.67 615.14 201.84 615.27 201.87C615.4 201.91 615.55 201.83 615.71 201.64L615.85 201.47L616.05 201.23L616.46 200.77C616.77 200.41 616.83 199.96 616.63 199.41L616.48 199.04C616.45 198.95 616.46 198.87 616.53 198.79C616.59 198.71 616.67 198.71 616.77 198.81C616.8 198.83 616.87 198.91 616.98 199.04C617.07 199.13 617.14 199.2 617.2 199.26C617.32 199.37 617.59 199.6 618.02 199.95C618.31 200.19 618.55 200.4 618.74 200.58L619.01 200.83C619.06 200.88 619.09 200.91 619.1 200.94C619.1 200.97 619.09 201.01 619.06 201.06C618.98 201.16 618.87 201.15 618.71 201.04C618.38 200.81 618.06 200.7 617.76 200.73C617.59 200.74 617.44 200.81 617.29 200.92C617.15 201.03 616.92 201.27 616.59 201.64L616.27 202.01C616.11 202.18 616.03 202.33 616.03 202.44C616.02 202.55 616.09 202.69 616.22 202.85C616.37 203.04 616.64 203.31 617.01 203.66L617.48 204.11C617.96 204.57 618.35 204.86 618.63 204.99C618.84 205.07 619.01 205.1 619.14 205.07C619.27 205.04 619.41 204.94 619.56 204.77C620.85 203.3 621.26 201.94 620.81 200.68C620.79 200.61 620.78 200.57 620.8 200.55C620.82 200.51 620.86 200.48 620.92 200.48C620.97 200.48 621.02 200.5 621.07 200.54C621.41 200.87 621.66 201.28 621.81 201.77C621.94 202.19 621.96 202.57 621.87 202.92C621.77 203.27 621.55 203.64 621.21 204.03C621 204.26 620.77 204.5 620.49 204.76L619.88 205.33C619.66 205.54 619.38 205.84 619.03 206.23C618.8 206.5 618.46 206.91 618.02 207.48C617.9 207.63 617.81 207.75 617.76 207.81C617.68 207.9 617.6 207.91 617.52 207.84C617.45 207.79 617.44 207.7 617.48 207.59C617.59 207.31 617.63 207.1 617.61 206.94C617.59 206.79 617.49 206.58 617.31 206.33C617.16 206.12 616.93 205.86 616.62 205.56L612.51 201.65C612.12 201.28 611.8 201.1 611.55 201.1C611.29 201.1 610.96 201.28 610.54 201.64C610.44 201.72 610.34 201.72 610.25 201.64C610.17 201.56 610.18 201.46 610.29 201.35L610.29 201.35L610.29 201.35Z" /><path class="shp10" d="M627.36 184.65C627.56 184.49 627.73 184.49 627.88 184.65L628.22 185.04C628.27 185.1 628.41 185.23 628.63 185.45C628.81 185.63 628.95 185.78 629.04 185.9C629.14 186.02 629.13 186.13 629.03 186.21C628.95 186.28 628.84 186.26 628.69 186.14C628.34 185.85 628 185.72 627.66 185.74C627.32 185.77 626.95 185.95 626.53 186.29C625.98 186.76 625.67 187.09 625.6 187.29C625.53 187.49 625.63 187.77 625.9 188.13L629.21 192.43C629.7 193.07 630.14 193.45 630.53 193.57C630.91 193.69 631.34 193.57 631.82 193.23C631.96 193.13 632.08 193.14 632.18 193.27C632.25 193.36 632.22 193.45 632.11 193.54C632.08 193.57 632.04 193.6 631.97 193.65L631.54 193.98L630.82 194.5C630.76 194.54 630.69 194.6 630.6 194.68C630.38 194.85 630.2 195.02 630.04 195.17L628.88 196.25C628.76 196.37 628.68 196.45 628.63 196.49C628.52 196.58 628.43 196.58 628.35 196.47C628.29 196.39 628.27 196.32 628.28 196.26C628.3 196.21 628.36 196.14 628.46 196.04C628.73 195.78 628.87 195.49 628.87 195.17C628.88 194.84 628.75 194.51 628.49 194.17L628.28 193.91L624.38 188.84C624.15 188.54 623.88 188.51 623.57 188.77C622.84 189.38 622.38 189.85 622.2 190.18C622.07 190.43 622.01 190.63 622.03 190.79C622.05 190.94 622.16 191.28 622.37 191.78L622.45 191.98C622.53 192.17 622.53 192.3 622.44 192.37C622.32 192.47 622.22 192.46 622.13 192.34C622.05 192.23 621.96 192.06 621.85 191.85L621.52 191.3L621.19 190.74L620.96 190.36C620.86 190.2 620.88 190.06 621.02 189.95C621.06 189.92 621.13 189.87 621.22 189.8C621.37 189.7 621.58 189.53 621.84 189.32L622.97 188.4L624.32 187.31C625.18 186.59 626.07 185.82 627 184.97C627.18 184.8 627.3 184.7 627.36 184.65L627.36 184.65L627.36 184.65Z" /><path class="shp10" d="M636.88 178.56C637.01 178.48 637.11 178.49 637.16 178.59C637.21 178.67 637.22 178.73 637.22 178.76C637.21 178.8 637.17 178.85 637.1 178.91C636.83 179.14 636.69 179.34 636.67 179.5C636.65 179.67 636.75 179.94 636.95 180.3L639.94 185.7L640.34 186.31C640.56 186.6 640.82 186.78 641.11 186.84C641.39 186.9 641.69 186.84 641.99 186.66C642.19 186.54 642.33 186.54 642.4 186.67C642.47 186.79 642.37 186.93 642.1 187.09C641.99 187.16 641.82 187.25 641.6 187.35C641.03 187.6 640.59 187.83 640.26 188.02C639.85 188.27 639.54 188.48 639.33 188.67C639.15 188.83 639.02 188.94 638.93 188.99C638.84 189.05 638.75 189.03 638.68 188.96L638.64 188.91L638.73 188.66C638.97 188.37 639.09 188.12 639.1 187.91C639.1 187.69 639.01 187.4 638.8 187.03L638.5 186.47L635.71 181.42C635.49 181.04 635.27 180.8 635.05 180.71C634.83 180.62 634.53 180.66 634.15 180.81C633.93 180.9 633.78 180.94 633.7 180.95C633.62 180.95 633.56 180.91 633.52 180.84C633.45 180.71 633.47 180.63 633.57 180.57C633.64 180.53 633.76 180.48 633.93 180.43C634.09 180.37 634.35 180.25 634.69 180.04C634.92 179.9 635.2 179.72 635.52 179.49L635.94 179.19C636.34 178.9 636.65 178.69 636.88 178.56L636.88 178.56L636.88 178.56Z" /><path class="shp10" d="M655.43 170.6C655.59 170.55 655.69 170.59 655.73 170.72C655.76 170.82 655.72 170.9 655.61 170.95C655.2 171.13 654.96 171.38 654.88 171.7C654.79 172.02 654.85 172.48 655.05 173.1L655.22 173.57L656.78 177.82L656.88 178.1C657.09 178.74 657.35 179.17 657.67 179.4C657.99 179.64 658.4 179.69 658.91 179.57C659.04 179.55 659.12 179.6 659.16 179.71C659.2 179.84 659.07 179.96 658.77 180.06C658.68 180.1 658.54 180.13 658.33 180.18C657.77 180.3 657.38 180.4 657.15 180.48C656.69 180.64 656.31 180.81 656.01 180.96C655.73 181.11 655.54 181.21 655.44 181.24C655.32 181.28 655.25 181.24 655.21 181.13C655.18 181.04 655.22 180.95 655.34 180.87C655.57 180.7 655.71 180.52 655.76 180.33C655.81 180.13 655.78 179.87 655.68 179.55C655.63 179.4 655.59 179.29 655.56 179.23L653.87 174.7C653.82 174.58 653.77 174.53 653.72 174.55C653.65 174.57 653.6 174.73 653.57 175.02L652.86 181.44L652.84 181.68C652.8 182.01 652.75 182.19 652.66 182.22C652.57 182.26 652.32 182.07 651.92 181.64L651.35 181.04L647.6 176.85L647.52 176.76C647.49 176.73 647.46 176.73 647.43 176.74C647.36 176.76 647.35 176.87 647.41 177.06L647.48 177.29L648.54 180.81L648.63 181.09L648.9 181.72C649.25 182.36 649.73 182.65 650.35 182.6C650.57 182.58 650.7 182.63 650.73 182.73C650.77 182.86 650.71 182.95 650.56 183C650.44 183.04 650.29 183.08 650.12 183.12L649.62 183.22C649.5 183.24 649.32 183.3 649.09 183.38C648.69 183.52 648.38 183.65 648.16 183.77C648.02 183.85 647.92 183.9 647.84 183.93C647.7 183.98 647.61 183.94 647.57 183.82C647.54 183.73 647.58 183.65 647.67 183.58C647.97 183.34 648.15 183.04 648.21 182.67C648.27 182.31 648.21 181.86 648.03 181.31L646.72 176.71L646.59 176.24C646.41 175.68 646.13 175.29 645.77 175.07C645.41 174.85 645 174.81 644.55 174.98C644.38 175.03 644.27 175 644.23 174.87C644.19 174.73 644.26 174.63 644.45 174.57C644.49 174.55 644.54 174.54 644.61 174.52L645 174.41C645.07 174.39 645.17 174.36 645.28 174.32C645.49 174.25 645.69 174.16 645.88 174.06C646.17 173.92 646.36 173.83 646.44 173.8C646.74 173.69 646.99 173.77 647.21 174.01L651.98 179.25C652.19 179.48 652.33 179.58 652.41 179.55C652.49 179.51 652.54 179.39 652.56 179.18L653.25 172.73C653.31 172.13 653.38 171.74 653.43 171.57C653.49 171.4 653.6 171.28 653.77 171.22C653.83 171.2 653.93 171.17 654.07 171.14C654.2 171.11 654.34 171.07 654.48 171.02C654.66 170.96 654.88 170.86 655.13 170.73C655.27 170.67 655.36 170.63 655.43 170.6L655.43 170.6Z" /><path class="shp10" d="M664.3 168.69C664.35 168.68 664.45 168.68 664.59 168.69C665.18 168.7 665.64 168.69 665.97 168.67C666.42 168.64 666.93 168.58 667.48 168.49C667.7 168.45 667.87 168.43 667.96 168.42C668.21 168.41 668.33 168.47 668.34 168.61C668.35 168.69 668.33 168.74 668.3 168.78C668.26 168.81 668.17 168.84 668.04 168.88C667.75 168.96 667.57 169.09 667.48 169.26C667.4 169.43 667.36 169.75 667.36 170.22L667.37 172.07L667.47 173.36C667.55 174.54 667.67 175.37 667.82 175.86C667.97 176.35 668.25 176.76 668.64 177.09C669.24 177.59 669.99 177.81 670.87 177.74C671.77 177.68 672.48 177.35 673 176.75C673.35 176.35 673.58 175.79 673.69 175.06C673.8 174.33 673.81 173.29 673.72 171.94L673.68 171.35L673.54 169.86C673.49 169.41 673.33 169.07 673.07 168.83C672.81 168.6 672.47 168.5 672.05 168.53C671.87 168.54 671.77 168.48 671.76 168.33C671.75 168.22 671.79 168.15 671.88 168.14C671.92 168.14 671.97 168.14 672.05 168.15C672.13 168.16 672.31 168.16 672.61 168.16L673.36 168.14L674.04 168.06C674.28 168.03 674.48 167.99 674.66 167.96C674.74 167.94 674.82 167.93 674.89 167.93C675.02 167.92 675.09 167.98 675.1 168.11C675.1 168.21 675.05 168.27 674.93 168.3L674.67 168.37C674.31 168.46 674.16 168.88 674.21 169.62L674.26 170.26L674.3 171.15C674.39 172.56 674.4 173.69 674.33 174.56C674.25 175.43 674.08 176.11 673.82 176.59C673.18 177.77 672.03 178.43 670.34 178.55C669.14 178.63 668.2 178.46 667.51 178.05C666.58 177.47 666.05 176.27 665.93 174.44L665.82 171.62L665.71 170.29C665.69 169.96 665.64 169.73 665.57 169.6C665.5 169.47 665.36 169.36 665.15 169.28C664.92 169.18 664.65 169.12 664.36 169.1C664.18 169.08 664.08 169.02 664.07 168.9C664.06 168.77 664.14 168.7 664.3 168.69L664.3 168.69L664.3 168.69Z" /><path class="shp10" d="M686.03 168.83C686.47 168.89 686.88 169.05 687.27 169.28L687.71 169.55C687.91 169.67 688.05 169.74 688.14 169.75C688.2 169.76 688.27 169.75 688.35 169.73L688.63 169.63C688.67 169.62 688.71 169.62 688.75 169.62C688.85 169.64 688.88 169.73 688.86 169.89L688.76 170.47C688.75 170.56 688.74 170.65 688.74 170.73L688.73 171.46L688.7 172.13C688.7 172.19 688.7 172.24 688.69 172.28C688.67 172.49 688.59 172.58 688.48 172.56C688.39 172.55 688.34 172.45 688.33 172.26C688.29 171.57 688.04 170.93 687.56 170.36C687.09 169.79 686.55 169.45 685.94 169.36C685.52 169.29 685.14 169.38 684.79 169.63C684.43 169.87 684.23 170.19 684.17 170.59C684.12 170.96 684.21 171.3 684.45 171.61C684.6 171.81 685.11 172.18 685.98 172.71C687.02 173.35 687.68 173.92 687.97 174.42C688.32 175.03 688.44 175.71 688.33 176.47C688.21 177.31 687.81 178 687.14 178.53C686.47 179.06 685.74 179.27 684.95 179.15C684.63 179.1 684.14 178.91 683.47 178.57C683.16 178.41 682.93 178.3 682.78 178.24C682.58 178.17 682.46 178.11 682.43 178.06C682.4 178.01 682.39 177.89 682.4 177.67C682.4 177.44 682.38 177.11 682.33 176.66C682.24 175.98 682.21 175.55 682.24 175.36C682.27 175.13 682.36 175.03 682.51 175.05C682.57 175.06 682.61 175.12 682.62 175.24C682.73 176.1 683.03 176.86 683.51 177.51C684 178.15 684.54 178.52 685.15 178.62C685.62 178.69 686.07 178.57 686.49 178.25C686.91 177.94 687.16 177.54 687.23 177.06C687.28 176.68 687.23 176.36 687.07 176.08C686.91 175.81 686.61 175.53 686.17 175.24L685.17 174.58C684.24 173.97 683.62 173.42 683.32 172.96C683.02 172.49 682.92 171.91 683.02 171.23C683.13 170.43 683.48 169.8 684.05 169.34C684.63 168.88 685.29 168.71 686.03 168.83L686.03 168.83L686.03 168.83Z" /><path fill-rule="evenodd" class="shp10" d="M704.88 174.94C705.38 176.04 705.39 177.25 704.92 178.56C704.59 179.5 704.09 180.28 703.41 180.9C703.01 181.26 702.59 181.53 702.16 181.7C701.72 181.87 701.19 181.97 700.56 182.01C700.39 182.02 700.29 182.05 700.27 182.1C700.24 182.16 700.33 182.32 700.55 182.57L701.11 183.23C701.38 183.54 701.7 183.77 702.05 183.91C702.29 184 702.59 183.98 702.96 183.85C703.02 183.84 703.06 183.83 703.1 183.84C703.13 183.85 703.16 183.88 703.18 183.95C703.2 184.02 703.2 184.07 703.18 184.11C703.14 184.2 702.93 184.32 702.55 184.47C701.82 184.76 701.2 184.81 700.69 184.61C700.38 184.5 700.08 184.3 699.79 184.03C699.49 183.76 699.11 183.33 698.65 182.73C698.08 182 697.69 181.54 697.49 181.33C697.29 181.12 697.08 180.98 696.86 180.89C696.52 180.76 696.19 180.8 695.85 181C695.52 181.2 695.28 181.5 695.13 181.92C695.08 182.06 695 182.11 694.89 182.06C694.76 182.01 694.72 181.9 694.79 181.71L694.95 181.2L695.19 180.81C695.38 180.56 695.7 180.33 696.15 180.11C696.21 180.08 696.24 180.06 696.25 180.04C696.26 180.01 696.2 179.88 696.06 179.66C695.72 179.13 695.53 178.48 695.48 177.73C695.44 176.97 695.54 176.23 695.8 175.51C696.3 174.09 697.15 173.11 698.34 172.56C699.53 172.02 700.83 172.01 702.24 172.55L702.24 172.55C703.51 173.04 704.39 173.84 704.88 174.94ZM699.17 173C698.48 173.43 697.95 174.17 697.58 175.22C697.08 176.62 696.99 177.9 697.3 179.06C697.61 180.21 698.26 180.97 699.24 181.35C700.07 181.66 700.85 181.58 701.59 181.1C702.32 180.62 702.89 179.82 703.28 178.71C703.73 177.44 703.78 176.23 703.42 175.09C703.05 173.94 702.39 173.19 701.43 172.82C700.61 172.51 699.86 172.57 699.17 173Z" /><path class="shp10" d="M714.6 178.74C714.64 178.77 714.72 178.83 714.83 178.92C715.3 179.31 715.67 179.59 715.94 179.77C716.33 180.03 716.77 180.3 717.26 180.57C717.46 180.68 717.6 180.77 717.68 180.82C717.89 180.96 717.95 181.09 717.88 181.21C717.83 181.28 717.79 181.31 717.74 181.31C717.7 181.32 717.61 181.29 717.47 181.24C717.2 181.12 716.98 181.11 716.82 181.19C716.65 181.27 716.43 181.5 716.16 181.88L715.1 183.37L714.43 184.46C713.81 185.45 713.42 186.19 713.26 186.67C713.1 187.16 713.08 187.66 713.21 188.17C713.4 188.94 713.87 189.58 714.61 190.08C715.37 190.6 716.12 190.78 716.88 190.63C717.39 190.53 717.9 190.22 718.41 189.7C718.92 189.19 719.53 188.36 720.24 187.23L720.55 186.73L721.31 185.46C721.52 185.06 721.59 184.69 721.52 184.34C721.45 183.99 721.23 183.7 720.88 183.46C720.73 183.36 720.69 183.25 720.77 183.12C720.83 183.03 720.9 183 720.97 183.05C721 183.06 721.05 183.1 721.1 183.16C721.16 183.22 721.31 183.34 721.54 183.51L722.15 183.97L722.75 184.34C722.95 184.46 723.14 184.56 723.3 184.64C723.38 184.68 723.44 184.72 723.5 184.76C723.61 184.83 723.63 184.92 723.56 185.03C723.51 185.11 723.43 185.13 723.32 185.08L723.07 184.97C722.73 184.82 722.37 185.06 721.97 185.68L721.65 186.22L721.16 186.97C720.43 188.14 719.78 189.06 719.21 189.7C718.65 190.35 718.12 190.78 717.63 191.01C716.44 191.56 715.14 191.35 713.72 190.39C712.71 189.72 712.06 188.99 711.75 188.23C711.33 187.19 711.61 185.9 712.57 184.36L714.12 182.03L714.8 180.91C714.97 180.63 715.07 180.42 715.09 180.27C715.1 180.12 715.06 179.94 714.94 179.75C714.81 179.53 714.63 179.31 714.41 179.11C714.27 178.98 714.24 178.87 714.3 178.77C714.37 178.66 714.47 178.65 714.6 178.74L714.6 178.74L714.6 178.74Z" /><path class="shp10" d="M729.72 190.39C729.75 190.41 729.79 190.46 729.87 190.55C729.92 190.61 730.01 190.7 730.11 190.8L730.61 191.33L732.52 193.26C733.63 194.36 734.33 195.02 734.62 195.24C734.65 195.26 734.68 195.29 734.7 195.31C734.79 195.4 734.79 195.51 734.68 195.63C734.61 195.71 734.49 195.86 734.32 196.09C734.07 196.43 733.88 196.66 733.76 196.79C733.51 197.06 733.32 197.13 733.18 197.01C733.11 196.95 733.15 196.84 733.3 196.68C733.62 196.34 733.73 195.96 733.62 195.56C733.52 195.16 733.19 194.69 732.64 194.14L732.01 193.52L731.63 193.22C731.4 193.1 731.15 193.2 730.88 193.5L730.67 193.71L729.62 194.86C729.32 195.19 729.15 195.42 729.12 195.55C729.08 195.68 729.15 195.84 729.33 196.01L729.49 196.16L729.72 196.38L730.16 196.81C730.49 197.14 730.93 197.21 731.46 197.01L731.82 196.87C731.91 196.83 731.99 196.85 732.06 196.92C732.14 196.98 732.13 197.07 732.04 197.17C732.01 197.2 731.94 197.27 731.81 197.39C731.73 197.47 731.65 197.55 731.59 197.61C731.49 197.72 731.26 198 730.91 198.45C730.68 198.74 730.48 198.98 730.29 199.18L730.05 199.46C730 199.51 729.97 199.54 729.94 199.54C729.91 199.55 729.87 199.54 729.83 199.5C729.74 199.42 729.74 199.3 729.85 199.14C730.08 198.8 730.19 198.47 730.17 198.16C730.16 197.99 730.1 197.82 730 197.67C729.89 197.52 729.66 197.27 729.31 196.93L728.97 196.58C728.8 196.42 728.67 196.34 728.56 196.33C728.45 196.32 728.32 196.38 728.16 196.52C727.98 196.67 727.71 196.94 727.36 197.32L726.93 197.8C726.47 198.3 726.18 198.69 726.06 198.98C725.97 199.2 725.94 199.37 725.96 199.51C725.99 199.64 726.09 199.79 726.25 199.95C727.63 201.32 728.94 201.78 730.16 201.33C730.22 201.31 730.26 201.3 730.28 201.32C730.32 201.34 730.35 201.39 730.35 201.44C730.35 201.5 730.33 201.56 730.28 201.6C729.97 201.95 729.57 202.2 729.09 202.34C728.69 202.47 728.32 202.49 727.99 202.38C727.65 202.28 727.3 202.04 726.93 201.68C726.71 201.46 726.48 201.21 726.24 200.92L725.7 200.28C725.51 200.04 725.22 199.74 724.85 199.37C724.6 199.13 724.21 198.77 723.67 198.3C723.52 198.17 723.42 198.08 723.36 198.02C723.28 197.94 723.27 197.86 723.33 197.77C723.39 197.7 723.47 197.69 723.58 197.74C723.84 197.85 724.05 197.9 724.2 197.89C724.35 197.87 724.54 197.77 724.79 197.59C725 197.44 725.25 197.2 725.54 196.88L729.38 192.69C729.75 192.29 729.93 191.96 729.93 191.7C729.94 191.43 729.77 191.08 729.43 190.64C729.36 190.53 729.36 190.44 729.44 190.34C729.52 190.26 729.61 190.28 729.72 190.39L729.72 190.39L729.72 190.39Z" /><path class="shp10" d="M762.34 241.95C762.37 242.03 762.33 242.09 762.22 242.14C762.12 242.18 762.03 242.13 761.95 242.01C761.8 241.76 761.59 241.6 761.31 241.51C761.04 241.43 760.51 241.37 759.72 241.33L757.06 241.21L754.14 241.03C753.18 240.97 752.67 240.94 752.6 240.93C752.02 240.88 751.68 240.85 751.6 240.85C751.37 240.84 751.23 240.77 751.18 240.64C751.15 240.55 751.18 240.46 751.26 240.37L751.54 240.08L751.88 239.75L754.83 236.73C755.56 235.99 756.21 235.35 756.81 234.81C757.5 234.18 757.94 233.72 758.13 233.43C758.33 233.15 758.4 232.83 758.34 232.49C758.31 232.29 758.35 232.17 758.47 232.13C758.59 232.08 758.67 232.12 758.72 232.25C758.73 232.28 758.75 232.35 758.78 232.45C758.84 232.7 758.93 232.97 759.05 233.28L759.44 234.43L759.73 235.14C759.86 235.44 759.94 235.63 759.98 235.72C760.02 235.85 759.99 235.93 759.86 235.98C759.76 236.02 759.65 235.96 759.55 235.78C759.36 235.46 759.11 235.37 758.79 235.49C758.4 235.65 757.7 236.21 756.72 237.17L753.68 240.13C753.54 240.26 753.48 240.35 753.5 240.41C753.52 240.46 753.6 240.49 753.75 240.5L757.63 240.74C758.9 240.82 759.78 240.76 760.26 240.57C760.53 240.46 760.72 240.28 760.82 240.01C760.92 239.74 760.93 239.42 760.84 239.03C760.8 238.86 760.83 238.76 760.94 238.72C761.04 238.67 761.12 238.71 761.16 238.82C761.18 238.88 761.22 239.01 761.28 239.21L761.51 239.94C761.61 240.27 761.69 240.5 761.74 240.64C761.89 241.05 762.05 241.4 762.22 241.69C762.28 241.8 762.32 241.88 762.34 241.95L762.34 241.95L762.34 241.95Z" /><path class="shp10" d="M765 252.44C765.04 252.59 765 252.69 764.89 252.72C764.81 252.74 764.75 252.74 764.72 252.73C764.68 252.71 764.65 252.66 764.61 252.57C764.47 252.24 764.32 252.05 764.16 251.99C764.01 251.93 763.74 251.95 763.35 252.06L757.52 253.68L756.85 253.92C756.51 254.08 756.28 254.29 756.15 254.56C756.02 254.83 756 255.15 756.09 255.5C756.15 255.73 756.11 255.87 755.98 255.9C755.84 255.94 755.74 255.81 755.66 255.5C755.62 255.37 755.59 255.18 755.55 254.92C755.46 254.29 755.36 253.79 755.26 253.41C755.14 252.94 755.02 252.57 754.9 252.31C754.79 252.09 754.73 251.92 754.7 251.82C754.67 251.72 754.7 251.64 754.79 251.58L754.85 251.55L755.06 251.71C755.27 252.02 755.47 252.21 755.67 252.27C755.87 252.33 756.17 252.31 756.57 252.2L757.17 252.04L762.62 250.53C763.04 250.41 763.31 250.25 763.45 250.05C763.59 249.85 763.64 249.54 763.59 249.13C763.57 248.88 763.56 248.71 763.58 248.63C763.6 248.56 763.65 248.5 763.73 248.48C763.86 248.44 763.94 248.48 763.97 248.6C763.98 248.68 764 248.82 764.01 248.99C764.02 249.17 764.07 249.46 764.17 249.86C764.24 250.13 764.34 250.45 764.48 250.83L764.65 251.34C764.81 251.81 764.93 252.18 765 252.44L765 252.44L765 252.44Z" /><path class="shp10" d="M767.69 265.05C767.83 265.94 767.77 266.76 767.51 267.49L767.32 268.01C767.28 268.12 767.27 268.21 767.28 268.29C767.29 268.38 767.34 268.45 767.42 268.48L767.66 268.6C767.7 268.61 767.73 268.66 767.74 268.72C767.76 268.87 767.62 268.97 767.32 269.02L766.81 269.12L766.18 269.23L765.66 269.38L765.36 269.5C765.21 269.55 765.07 269.59 764.95 269.61C764.77 269.64 764.68 269.59 764.65 269.46C764.64 269.38 764.69 269.32 764.8 269.28C764.97 269.21 765.22 269.03 765.54 268.74C765.87 268.44 766.13 268.18 766.31 267.93C767.04 266.94 767.33 265.94 767.16 264.91C767.02 264 766.53 263.33 765.72 262.89C764.9 262.45 763.92 262.32 762.77 262.52C761.26 262.79 760.13 263.46 759.39 264.54C758.83 265.35 758.62 266.17 758.75 266.99C758.83 267.48 759.03 267.98 759.34 268.48C759.66 268.98 760 269.36 760.39 269.62L760.96 270C761.04 270.06 761.09 270.11 761.11 270.17C761.13 270.26 761.08 270.31 760.98 270.33C760.79 270.37 760.45 270.23 759.97 269.92C758.72 269.12 757.97 267.99 757.74 266.53C757.51 265.12 757.76 263.9 758.49 262.86C759.22 261.83 760.29 261.19 761.69 260.95C762.46 260.82 763.24 260.85 764.03 261.06C764.82 261.26 765.49 261.6 766.04 262.07C766.94 262.85 767.49 263.84 767.69 265.05L767.69 265.05L767.69 265.05Z" /><path class="shp10" d="M769.18 279.92C769.19 280.08 769.14 280.16 769.02 280.17C768.94 280.18 768.88 280.17 768.85 280.15C768.82 280.13 768.79 280.07 768.77 279.97C768.69 279.62 768.58 279.41 768.44 279.32C768.3 279.23 768.03 279.2 767.63 279.23L761.61 279.68L760.91 279.79C760.55 279.88 760.28 280.04 760.1 280.28C759.92 280.52 759.85 280.83 759.87 281.19C759.89 281.43 759.83 281.56 759.69 281.57C759.55 281.58 759.47 281.42 759.45 281.11C759.44 280.97 759.44 280.78 759.44 280.52C759.47 279.88 759.47 279.37 759.44 278.98C759.41 278.49 759.35 278.11 759.28 277.83C759.22 277.59 759.18 277.42 759.18 277.31C759.17 277.2 759.22 277.13 759.31 277.09L759.37 277.07L759.55 277.27C759.7 277.62 759.87 277.84 760.05 277.94C760.23 278.04 760.53 278.07 760.94 278.04L761.57 278L767.19 277.58C767.62 277.55 767.92 277.45 768.1 277.28C768.27 277.11 768.37 276.81 768.4 276.39C768.42 276.14 768.45 275.98 768.48 275.91C768.51 275.83 768.57 275.79 768.66 275.79C768.79 275.78 768.86 275.83 768.87 275.95C768.87 276.04 768.86 276.17 768.84 276.35C768.81 276.52 768.81 276.82 768.84 277.23C768.86 277.5 768.9 277.84 768.96 278.24L769.04 278.77C769.11 279.27 769.16 279.65 769.18 279.92L769.18 279.92L769.18 279.92Z" /><path class="shp10" d="M769.58 290.28C769.57 290.73 769.49 291.18 769.31 291.62L769.11 292.11C769.03 292.33 768.98 292.48 768.98 292.57C768.98 292.64 769 292.71 769.03 292.79L769.16 293.07C769.18 293.11 769.19 293.15 769.19 293.18C769.19 293.29 769.11 293.34 768.95 293.34L768.38 293.32C768.29 293.31 768.2 293.32 768.12 293.33L767.42 293.41L766.78 293.48C766.72 293.49 766.67 293.49 766.64 293.49C766.43 293.49 766.33 293.43 766.33 293.31C766.33 293.22 766.42 293.16 766.6 293.12C767.26 292.98 767.83 292.63 768.32 292.07C768.8 291.5 769.05 290.9 769.06 290.26C769.06 289.82 768.92 289.44 768.64 289.11C768.35 288.78 768.02 288.61 767.63 288.61C767.27 288.6 766.95 288.75 766.69 289.03C766.52 289.22 766.24 289.79 765.85 290.76C765.38 291.91 764.92 292.67 764.48 293.05C763.95 293.49 763.31 293.7 762.56 293.69C761.74 293.69 761.02 293.37 760.42 292.75C759.82 292.13 759.52 291.41 759.53 290.58C759.53 290.25 759.64 289.71 759.87 288.98C759.98 288.64 760.06 288.39 760.09 288.23C760.14 288.01 760.18 287.88 760.22 287.84C760.26 287.8 760.38 287.77 760.58 287.75C760.81 287.73 761.13 287.66 761.55 287.54C762.19 287.36 762.6 287.27 762.78 287.27C763.01 287.28 763.12 287.35 763.12 287.51C763.12 287.57 763.06 287.62 762.95 287.65C762.14 287.88 761.46 288.29 760.9 288.88C760.35 289.47 760.07 290.08 760.06 290.71C760.06 291.21 760.23 291.65 760.6 292.04C760.96 292.44 761.37 292.64 761.84 292.64C762.21 292.64 762.52 292.54 762.76 292.34C763 292.14 763.23 291.79 763.44 291.3L763.94 290.19C764.4 289.14 764.83 288.43 765.24 288.06C765.65 287.68 766.19 287.5 766.86 287.51C767.64 287.52 768.29 287.78 768.81 288.31C769.33 288.84 769.58 289.5 769.58 290.28L769.58 290.28L769.58 290.28Z" /><path class="shp10" d="M768.9 303.8C768.86 304.26 768.73 304.69 768.52 305.11L768.28 305.58C768.17 305.79 768.12 305.94 768.11 306.03C768.1 306.1 768.11 306.17 768.14 306.25L768.25 306.54C768.26 306.58 768.27 306.62 768.26 306.66C768.25 306.76 768.17 306.8 768.01 306.79L767.44 306.72C767.35 306.71 767.27 306.7 767.19 306.7L766.49 306.73L765.83 306.73C765.78 306.73 765.73 306.73 765.69 306.73C765.49 306.71 765.39 306.64 765.41 306.52C765.41 306.43 765.51 306.38 765.69 306.35C766.36 306.28 766.96 305.99 767.49 305.47C768.03 304.95 768.32 304.37 768.38 303.73C768.43 303.3 768.32 302.9 768.07 302.55C767.81 302.19 767.49 302 767.11 301.96C766.75 301.92 766.42 302.03 766.13 302.29C765.95 302.46 765.62 303.01 765.14 303.93C764.58 305.04 764.06 305.76 763.58 306.09C763.01 306.47 762.36 306.63 761.62 306.55C760.8 306.47 760.11 306.09 759.57 305.42C759.02 304.74 758.79 303.99 758.86 303.17C758.9 302.84 759.06 302.32 759.35 301.61C759.49 301.28 759.59 301.04 759.63 300.88C759.7 300.66 759.75 300.54 759.79 300.51C759.84 300.47 759.96 300.45 760.17 300.45C760.39 300.45 760.71 300.41 761.14 300.33C761.8 300.21 762.22 300.16 762.4 300.18C762.62 300.2 762.73 300.29 762.71 300.44C762.71 300.51 762.64 300.55 762.53 300.57C761.7 300.73 760.99 301.07 760.38 301.6C759.78 302.14 759.45 302.72 759.39 303.35C759.34 303.85 759.48 304.3 759.8 304.73C760.13 305.15 760.52 305.39 760.99 305.44C761.36 305.47 761.67 305.4 761.93 305.23C762.19 305.05 762.45 304.72 762.71 304.25L763.29 303.19C763.84 302.19 764.34 301.52 764.78 301.19C765.21 300.85 765.77 300.72 766.44 300.79C767.21 300.87 767.83 301.2 768.31 301.77C768.78 302.35 768.98 303.02 768.9 303.8L768.9 303.8L768.9 303.8Z" /><path class="shp10" d="M766.79 317.93C766.76 318.09 766.69 318.16 766.58 318.13C766.49 318.12 766.44 318.1 766.41 318.07C766.39 318.04 766.38 317.97 766.38 317.87C766.39 317.52 766.34 317.28 766.22 317.15C766.11 317.03 765.85 316.93 765.45 316.86L759.52 315.73L758.81 315.65C758.45 315.64 758.15 315.73 757.92 315.92C757.69 316.11 757.54 316.38 757.47 316.74C757.43 316.98 757.34 317.08 757.2 317.05C757.06 317.03 757.02 316.86 757.08 316.55C757.1 316.41 757.15 316.22 757.22 315.98C757.4 315.37 757.53 314.87 757.6 314.48C757.68 314 757.72 313.62 757.72 313.33C757.72 313.08 757.73 312.91 757.75 312.8C757.77 312.69 757.83 312.64 757.93 312.63L757.99 312.62L758.12 312.86C758.18 313.23 758.29 313.49 758.44 313.64C758.59 313.78 758.87 313.89 759.27 313.97L759.89 314.1L765.43 315.15C765.86 315.23 766.18 315.21 766.39 315.09C766.6 314.97 766.77 314.71 766.9 314.32C766.98 314.08 767.05 313.93 767.09 313.87C767.14 313.8 767.21 313.78 767.29 313.8C767.43 313.82 767.48 313.89 767.46 314C767.44 314.09 767.39 314.22 767.33 314.38C767.26 314.55 767.19 314.83 767.12 315.24C767.07 315.51 767.03 315.85 766.99 316.25L766.93 316.78C766.88 317.28 766.83 317.67 766.79 317.93L766.79 317.93L766.79 317.93Z" /><path class="shp10" d="M761.83 337.36C761.78 337.52 761.69 337.58 761.56 337.54C761.46 337.51 761.42 337.43 761.45 337.3C761.55 336.85 761.49 336.5 761.29 336.25C761.09 336 760.68 335.78 760.08 335.59L759.62 335.45L755.35 334.3L755.07 334.22C754.44 334.03 753.95 334 753.58 334.13C753.21 334.26 752.93 334.58 752.72 335.08C752.67 335.2 752.58 335.25 752.47 335.21C752.34 335.17 752.32 334.99 752.42 334.68C752.44 334.58 752.5 334.44 752.59 334.24C752.82 333.7 752.97 333.3 753.04 333.07C753.18 332.58 753.28 332.16 753.33 331.82C753.37 331.5 753.41 331.28 753.44 331.17C753.47 331.05 753.55 331.01 753.66 331.05C753.75 331.08 753.8 331.16 753.79 331.31C753.79 331.6 753.85 331.82 753.98 331.98C754.1 332.14 754.32 332.26 754.63 332.36C754.78 332.41 754.89 332.44 754.95 332.45L759.51 333.65C759.64 333.69 759.71 333.67 759.72 333.62C759.74 333.55 759.65 333.41 759.43 333.21L754.8 328.89L754.62 328.72C754.38 328.5 754.27 328.35 754.29 328.26C754.32 328.15 754.61 328.06 755.19 327.98L756 327.84L761.49 327.11L761.61 327.09C761.64 327.08 761.67 327.06 761.68 327.02C761.7 326.95 761.62 326.88 761.43 326.82L761.22 326.75L757.82 325.6L757.55 325.5L756.89 325.37C756.19 325.29 755.67 325.53 755.35 326.09C755.24 326.28 755.13 326.36 755.02 326.33C754.9 326.29 754.86 326.19 754.91 326.03C754.95 325.9 755 325.75 755.08 325.59L755.29 325.11C755.34 324.99 755.4 324.81 755.47 324.57C755.6 324.14 755.68 323.8 755.71 323.55C755.73 323.39 755.75 323.27 755.77 323.19C755.81 323.04 755.89 322.99 756.02 323.03C756.1 323.05 756.14 323.13 756.15 323.25C756.16 323.65 756.29 323.97 756.54 324.23C756.8 324.49 757.19 324.7 757.72 324.87L762.12 326.44L762.57 326.6C763.11 326.77 763.57 326.77 763.96 326.59C764.35 326.42 764.62 326.09 764.76 325.61C764.81 325.44 764.9 325.37 765.02 325.41C765.16 325.45 765.19 325.57 765.13 325.77C765.12 325.81 765.1 325.87 765.08 325.93L764.93 326.33C764.91 326.4 764.88 326.49 764.84 326.61C764.78 326.83 764.73 327.05 764.7 327.27C764.64 327.6 764.6 327.81 764.57 327.9C764.48 328.21 764.28 328.39 763.95 328.43L757.03 329.41C756.73 329.45 756.57 329.51 756.55 329.6C756.53 329.69 756.6 329.8 756.75 329.94L761.42 334.27C761.87 334.68 762.14 334.96 762.24 335.11C762.34 335.26 762.36 335.42 762.31 335.59C762.29 335.66 762.26 335.76 762.2 335.89C762.15 336.02 762.1 336.16 762.06 336.31C762 336.5 761.95 336.74 761.9 337.03C761.87 337.18 761.85 337.29 761.83 337.36L761.83 337.36L761.83 337.36Z" /></g><g ><path fill-rule="evenodd" class="shp19" d="M686.67 424.83L686.55 436.49C686.37 436.85 690.72 439.91 692.86 435.89L690.44 424.71L689.83 422.04L686.67 422.16L686.67 424.83L686.67 424.83Z" /><path fill-rule="evenodd" class="shp19" d="M679.63 418.4L680.48 420.7C681.79 422.16 683.74 423.62 686.67 425.08C687.48 424.19 688.78 424.11 690.56 424.83C693.65 422.78 695.16 420 696.51 416.58L696.75 414.15L679.63 418.4L679.63 418.4Z" /><path class="shp20" d="M667.38 410.29C666.07 410.29 665.01 409.23 665.01 407.92C665.01 406.61 666.07 405.55 667.38 405.55C668.7 405.55 669.76 406.61 669.76 407.92C669.76 409.23 668.7 410.29 667.38 410.29Z" /><g ><path fill-rule="evenodd" class="shp19" d="M637.71 385.74C638.2 385.71 638.7 385.83 639.15 386.1L649.08 392.03C650.29 392.75 650.68 394.31 649.95 395.52L641.28 410.03C640.56 411.24 639 411.63 637.79 410.91L627.87 404.98C626.66 404.26 626.27 402.7 626.99 401.49L635.66 386.98C636.11 386.22 636.89 385.78 637.71 385.74ZM638.61 390.82C638.28 390.84 637.98 391.01 637.79 391.32L631.83 401.31C631.53 401.8 631.69 402.41 632.18 402.7L637.76 406.04C638.25 406.33 638.86 406.18 639.16 405.69L645.12 395.7C645.41 395.21 645.26 394.6 644.77 394.3L639.19 390.97C639.01 390.86 638.8 390.81 638.61 390.82Z" /><path class="shp19" d="M637.81 395.43C637.66 395.44 629 390.68 628.05 392.28C627.1 393.87 635.39 399.25 635.45 399.38C636.58 400.05 638.03 399.68 638.67 398.62C639.3 397.56 638.94 396.1 637.81 395.43Z" /></g><path fill-rule="evenodd" class="shp19" d="M707.95 387.99C701.62 391.93 695 394.71 688.33 396.3C683.15 403.57 679.68 412.74 679.16 419.7C684.97 419.38 690.74 418.41 696.39 416.82C698.84 404.92 703.64 393.77 707.95 387.99L707.95 387.99Z" /><path fill-rule="evenodd" class="shp19" d="M706.46 387.25C708.68 385.22 710.31 388.04 709.29 389.36C705.21 394.82 700.51 405.44 698.11 417.09C697.81 418.95 694.21 418.77 694.66 416.38C697.16 404.25 701.92 393.34 706.46 387.25ZM689.69 397.63C684.76 404.55 681.52 412.96 680.95 419.4C680.67 421.44 677.45 421.83 677.41 419.49C677.96 412.07 681.48 403.09 686.81 395.59C688.06 393.52 691.78 394.16 689.69 397.63Z" /><path class="shp20" d="M691.18 408.76C689.87 408.76 688.81 407.7 688.81 406.39C688.81 405.08 689.87 404.02 691.18 404.02C692.49 404.02 693.55 405.08 693.55 406.39C693.55 407.7 692.49 408.76 691.18 408.76Z" /><path class="shp20" d="M718.43 396.21C717.12 396.21 716.06 395.15 716.06 393.84C716.06 392.53 717.12 391.46 718.43 391.46C719.74 391.46 720.8 392.53 720.8 393.84C720.8 395.15 719.74 396.21 718.43 396.21Z" /><path class="shp20" d="M735.41 380.62C734.1 380.62 733.04 379.56 733.04 378.25C733.04 376.94 734.1 375.88 735.41 375.88C736.72 375.88 737.78 376.94 737.78 378.25C737.78 379.56 736.72 380.62 735.41 380.62Z" /><path class="shp21" d="M682.96 422.76C685.29 421.84 689.6 420.88 693.69 421.86" /></g></g></g></g></g><g clip-path="url(#cp1)"><g ><g ><path class="shp0" d="M0 0L450 0L450 300L0 300L0 0Z" /><path fill-rule="evenodd" class="shp22" d="M0 0L450 300M450 0L0 300" /><path class="shp23" d="M225 0L225 300" /><path class="shp23" d="M0 150L450 150" /><path class="shp24" d="M225 0L225 300" /><path class="shp24" d="M0 150L450 150" /></g></g></g></svg>