<svg version="1.2" baseProfile="tiny-ps" xmlns="http://www.w3.org/2000/svg" viewBox="0 0 900 600" width="900" height="600">
	<title>Chinese_soviet_flag-svg</title>
	<style>
		tspan { white-space:pre }
		.s0 { fill: #de2910 } 
		.s1 { fill: none;stroke: #ffde00;stroke-width: 8 } 
		.s2 { fill: #ffde00;stroke: #ffde00;stroke-linejoin:round;stroke-width: 2 } 
		.s3 { fill: #fdd301 } 
	</style>
	<path id="Layer" class="s0" d="m0 0h900v600h-900v-600z" />
	<path id="Layer" class="s1" d="m160.85 50.23l11.65 34.79l36.69 0.33l-29.49 21.83l11.02 35l-29.88-21.3l-29.88 21.3l11.02-35l-29.49-21.83l36.69-0.33l11.65-34.79z" />
	<path id="Layer" class="s2" d="m235.08 130.45c53.22 9.73 74.51 50.48 74.51 50.48c0 0 17.03 32.54 13.38 73.6c-2.22 25.02-15.27 44.57-25.14 56.06l24.07 24.07c-2.65 10.89-8.17 16.37-18.09 18.1l-25.26-25.26c-13.35 8.24-43.1 22.64-84.83 19.79c-23.85-1.63-42.36-11.25-55.88-21.98l-56.19 56.19l-0.17-0.17c-32.46 8.7-23.7-23.7-23.7-23.7l56.88-56.88c-1.74-2.47-3.04-4.52-3.9-5.95c-6.74-1.32-19.16-2.51-21.66-1.33c0 0 6.69-22.2 10.64-22.2c3.95 0 26.15 0.3 26.15 0.3l2.43 7.91c18.03 35.48 54.77 43.49 66.6 43.49c29.39 0.4 49.93-6.94 63.76-15.32l-80.65-80.65l-18.08 16.9l-27.67-27.68l45.16-45.16h26.31l16.5 16.5l-23.5 21.96l81.56 81.56c3.35-4 4.82-6.74 4.82-6.74c0 0 19.46-17.94 17.94-72.08c-1.52-54.13-65.99-81.81-65.99-81.81l0 0z" />
	<g id="Layer">
		<path id="Layer" fill-rule="evenodd" class="s3" d="m684.6 78.4c4 4 4.2 6.3 2.3 25.3c-1.2 11-1.1 11.4 0.9 13.6c1.2 1.2 4.4 3.1 7.3 4.2c2.8 1.1 5.7 2.8 6.4 3.7c1.2 1.8 2.5 1.4 2.5-0.7c0-0.7-1.4-2.9-3-5.1c-4.7-5.8-3.9-7.1 6-10.3c4.7-1.5 11.5-4.1 15.1-5.8c18.2-8.4 30.6-6.2 32.2 5.7c0.4 2.5 0.3 9.2-0.2 15c-0.9 10.8-0.7 15.5 2.9 64.5c2.2 31.4 2.5 33.5 5.1 38.7c1.1 2.2 1.9 5.8 1.9 8.7c0 4.2-0.5 5.6-3.1 8.6c-2.6 2.9-3.8 3.5-7.2 3.5c-3.7 0-4.6-0.5-8.7-5.2c-2.5-2.8-9.6-10.4-15.7-16.9c-12.5-12.9-16.7-19.9-16.1-26.6c0.3-3.3 0.7-3.8 3.1-4.1c1.8-0.2 3.8 0.5 5.9 2.3c4.7 4 10.7 6.7 13.3 6.1c1.5-0.4 2.4-1.6 2.9-3.7c0.7-3.9 0.8-16.4 0.1-17.1c-0.3-0.3-4.1 0.6-8.3 1.9c-5.4 1.7-8.9 2.3-11.9 1.9c-4.8-0.6-4.6-0.9-6.3 9.9c-1.7 11.1-2.9 14.5-7.5 21.6c-5.9 9.2-14.1 17-21.5 20.8c-8.2 4-12.2 4.1-16.2 0.1c-4.7-4.8-3.6-7.4 8.5-19.9c12.3-12.8 16.8-20.8 19.8-35.7c1.1-5.3 1.8-9.8 1.7-10c-0.7-0.6-5.6 6.3-8.7 12.2c-2.8 5.4-3 6.5-2 8.7c0.9 2 0.9 3.3 0 5.5c-1.4 3.4-2.7 4.2-14.4 8.2c-4.9 1.7-11.1 4.5-13.8 6.2c-2.7 1.6-6.6 3.2-8.7 3.5c-3.3 0.4-4.2 0.1-6.9-2.7c-3.3-3.4-10-16.3-11-21.2c-0.8-4.2-1.7-3.4-3.7 2.9c-3.3 10.8-21.3 40.9-25.3 42.4c-4.6 1.7-8.7-1.1-12.4-8.6c-4.7-9.7-4.7-17.1 0.3-28c5-11.2 6.3-17.3 6.3-30.2l-0.1-11.3l-3.6-3.7c-6.3-6.6-8.6-13.7-6.7-20.7c1.7-6.2 4.6-9.8 7.8-9.4c2.1 0.2 3.2 1.6 6.1 7.4c1.9 3.9 5.6 10.4 8.2 14.5c5.9 9.3 7.2 14.6 5.7 23.9c-0.6 3.9-0.9 7.6-0.7 8.2c0.5 1.5 8.9-11.2 13.5-20.3c3.3-6.5 3.3-6.5 1.7-11.1c-2.5-7.5 0.6-10.5 14.8-14.3c3.7-1 7.4-2.5 8.3-3.5c1.2-1.3 7.4-26.3 11.1-44.7c0.6-3.1 6.2-9.3 9.9-10.9c5.2-2.3 8.4-1.7 12.1 2zm45.1 37.6c-5.5 3.5-6.7 5.9-6.7 14.1v5.9l2.8-0.7c1.5-0.4 4.9-0.7 7.5-0.6l4.8 0.1l-0.3-10.6c-0.3-12.4-0.8-12.9-8.1-8.2zm-28.1 15.8c-0.6 1.8-13 10.5-20.3 14.2c-5.3 2.7-6.1 3.7-6.9 8.7l-0.6 4l5-0.5c7.2-0.7 11.7 0.5 15.6 3.9c3.1 2.6 3.5 2.8 4 1.2c0.6-2.1 3.2-19.4 4.1-27.6c0.6-5.6 0.2-7.5-0.9-3.9zm36.7 23.7l-0.8-7l-8.8 10.9c-4.8 6-8.5 11.1-8.3 11.4c0.3 0.2 2.7-0.1 5.5-0.8c2.7-0.6 6.7-1 8.8-0.8c3.7 0.3 3.8 0.2 4.1-3.2c0.1-1.9-0.1-6.7-0.5-10.5zm-92.2 1.5c-1.1 0-7.3 12.1-6.7 12.8c0.8 0.7 6.5-3.8 7.7-6c0.6-1.1 0.8-3.1 0.5-4.4c-0.4-1.3-1-2.4-1.5-2.4zm29.7 18.1c-0.2 0-3.8 1.8-8.2 3.9c-11.5 5.6-17.8 12.6-13 14.4c3.7 1.4 16.3-8.4 20-15.5c0.8-1.6 1.3-2.9 1.2-2.8z" />
		<path id="Layer" class="s3" d="m638.7 98.2c4.8 4.9 6.6 9 5.8 12.9c-0.9 3.9-3 5.4-12 8.2c-11.4 3.5-19 4.3-22.1 2.3c-3-2.1-3-3.7 0.1-7.4c1.4-1.7 2.5-3.4 2.5-3.8c0-0.5-1.4-2.9-3-5.4c-1.6-2.5-3-5.2-3-6.1c0-2.1 4.1-5.8 7.6-6.9c8.4-2.5 18.1 0 24.1 6.2z" />
		<path id="Layer" fill-rule="evenodd" class="s3" d="m673.6 335.1c0.1 0 1.6 0.4 3.5 1.1c6.4 2.1 8.8 4.6 10.5 10.6c2.1 7.3 2.5 7.7 10.5 11.8c8.2 4.1 13.7 8.8 15.5 13.1c1.2 2.9 1.2 3.9-0.7 8.8c-2.4 6.4-5.2 8.8-18 15.5c-7.8 4-8.2 4.5-10.9 10.4c-1.6 3.3-3.2 7.4-3.6 9c-0.7 2.8-0.6 2.8 2.7 2.1c6.3-1.4 6.9-2.1 6.9-7.9c0-7.6 1.8-9.4 10.2-10.2c6.5-0.6 6.8-0.6 9.7 2.4c2.2 2.1 3.1 4 3.1 6.2c0 2.6 0.3 3.1 1.7 2.5c7.6-2.9 16.8-2.9 23.6 0c3.4 1.4 11.5 9.4 13.7 13.5c1.4 2.6 0.9 13.3-1.5 31c-0.8 5.8-1.9 17.7-2.5 26.5c-1.8 28.4-5.1 41.7-10.4 43.1c-3.4 0.8-8-2-9.9-6.2c-2.2-4.5-8.1-10.9-14.4-15.5c-4.9-3.7-7.3-7.8-7.3-12.6c0-2.7 3.9-3.5 9.4-1.9c7.4 2.2 12.2 2 14.6-0.4c1.1-1.1 2-2.4 2-2.9c0-0.5 0.9-6.3 2.1-12.8c2.5-14.3 3.8-43.8 2-47.1c-0.6-1.2-2.9-2.7-5.1-3.3c-3.5-1.1-5.3-0.9-14.7 1.6c-11.8 3-15 4.5-16.2 7.8c-1 2.6-0.2 3.2 5.7 4.2c5.6 0.9 7.7 3.8 6.1 8.3c-1.2 3.6-4.8 6.1-13 9.1c-3.1 1.2-6.4 3-7.3 4c-1.6 1.7-1.4 1.8 3.1 2.4c6.7 0.8 15.4 3.9 16.6 5.8c0.5 0.9 0.7 2.8 0.3 4.2c-0.5 2.1-2.6 3.5-11 7.6c-5.8 2.7-10.9 5.8-11.4 6.8c-0.6 1-1.3 4.5-1.7 7.8c-0.9 7.7-4.4 13.9-8.6 15.4c-3.1 1.1-3.4 0.9-7.4-3.2c-2.3-2.4-5-6.5-6.1-9c-1.1-2.8-2.5-4.7-3.5-4.7c-0.8 0-4.3 1.1-7.7 2.5c-7.4 3-9.7 3.1-13.9 0.6c-2.7-1.7-3.2-2.7-3.9-7.7c-0.6-5.4-0.5-5.9 2-8.1c1.5-1.2 3.9-2.5 5.4-2.8c1.5-0.3 4.1-1 5.7-1.4c2.8-0.8 2.7-0.9-1.6-1c-5.4-0.1-7.7-2.1-10.9-9.4c-2.5-5.6-1.9-8.5 1.8-9.2c7.9-1.6 9.1-2.7 6.7-5.9c-1.3-1.8-1.8-1.8-5.6-0.6c-6.6 2.2-14.2 7.2-15.9 10.5c-2.1 4.1-1.9 15.1 0.4 25.4c3.3 15.1 1.2 27.1-4.9 27.1c-2.8 0-10.4-5.1-13.1-8.7c-7.6-10.3-9.9-19.5-9.1-36.9c0.5-11.4 1-14 3-18.1c1.4-2.6 3-6.7 3.7-9c1.9-6.4 4.6-8.3 14-9.9c4.5-0.8 10.4-2.4 13.1-3.5c4.5-2 4.8-2.4 4.7-5.5c-0.2-4.8 1.2-5.7 8.4-5.8c5.9-0.1 6.3-0.3 8.5-3.5c1.3-1.9 2.2-3.9 2-4.5c-0.2-0.6-3.2-1.6-6.7-2.3c-7.4-1.5-15.9-5.2-18.9-8.2c-1.2-1.2-2.1-3.3-2.1-4.7c0-3.5 5-8.4 8.7-8.4c1.5 0 7.5-2 13.3-4.3l10.4-4.2l1.4-6c2.4-10.8 6.5-24.9 7.8-27.7c0.8-1.4 2.2-2.9 3.1-3.1c1-0.3 1.8-0.5 1.9-0.6zm-3.2 102c-0.7 0.8-1.5 2.9-1.9 4.7c-0.7 3.3-0.6 3.3 1.5 2.2c3-1.6 11-9 11-10.1c0-2.1-8.4 0.4-10.6 3.2z" />
	</g>
</svg>