<svg version="1.2" baseProfile="tiny-ps" xmlns="http://www.w3.org/2000/svg" viewBox="0 0 945 630" width="900" height="600"><title></title><style>tspan { white-space:pre }.shp0 { fill: #0d3b9f } .shp1 { fill: #ffffff } .shp2 { fill: #ffe401 } </style><path class="shp0" d="M1102 0L-158 0L-158 630L1102 630L1102 0Z" /><path class="shp1" d="M1102 210L-158 210L-158 420L1102 420L1102 210Z" /><g ><path class="shp2" d="M472 350.06L449.22 279.94L508.87 323.28L435.13 323.28L494.78 279.94L472 350.06Z" /><g ><path class="shp2" d="M571.21 397.98L548.42 327.86L608.07 371.19L534.34 371.19L593.99 327.86L571.21 397.98Z" /><path class="shp2" d="M571.21 302.14L548.42 232.02L608.07 275.36L534.34 275.36L593.99 232.02L571.21 302.14Z" /></g><g ><path class="shp2" d="M372.79 397.98L395.58 327.86L335.93 371.19L409.66 371.19L350.01 327.86L372.79 397.98Z" /><path class="shp2" d="M372.79 302.14L395.58 232.02L335.93 275.36L409.66 275.36L350.01 232.02L372.79 302.14Z" /></g></g></svg>