<svg version="1.2" baseProfile="tiny-ps" xmlns="http://www.w3.org/2000/svg" viewBox="0 0 900 600" width="900" height="600"><style>tspan { white-space:pre }.s0 { fill: #ffffff } .s1 { fill: #cd2a3e } .s2 { fill: #436f4d } .s3 { fill: none;stroke: #1f1a17;stroke-width: 5.3 } .s4 { fill: none;stroke: #ffffff;stroke-width: 3.9 } .s5 { fill: none;stroke: #1f1a17;stroke-width: 2 } .s6 { fill: #ffffff;stroke: #1f1a17;stroke-width: .7 } .s7 { fill: none;stroke: #1f1a17;stroke-width: .7 } .s8 { fill: #f8c300;stroke: #1f1a17;stroke-width: .7 } .s9 { fill: #f8c300;stroke: #1f1a17;stroke-linecap:round;stroke-linejoin:round;stroke-width: .7 } .s10 { fill: #f8c300;stroke: #1f1a17;stroke-linejoin:round;stroke-width: .7 } .s11 { fill: #ffffff;stroke: #1f1a17;stroke-linecap:round;stroke-linejoin:round;stroke-width: .7 } .s12 { fill: #f8c300;stroke: #1f1a17;stroke-linecap:round;stroke-width: .7 } .s13 { fill: none;stroke: #1f1a17;stroke-linecap:round;stroke-width: .5 } .s14 { fill: none;stroke: #1f1a17;stroke-width: 1 } </style><g ><g ><path class="s0" d="m-150 100h1200v400h-1200v-400z" /><path class="s1" d="m-150 0h1200v200h-1200v-200z" /><path class="s2" d="m-150 400h1200v200h-1200v-200z" /></g><g ><path class="s3" d="m373.35 159.87c16.93 5.04 49.83 10.75 76.65 10.75c26.83 0 59.72-5.72 76.65-10.75l24.52 40.07c-38.58 34.35-24.23 86.24 10.61 102.07c-3.41 64.94-52.41 116.91-111.78 131.32c-59.37-14.41-108.37-66.39-111.78-131.32c34.85-15.83 49.19-67.72 10.61-102.07l24.52-40.07l0 0z" /><path class="s4" d="m373.35 159.87c16.93 5.04 49.83 10.75 76.65 10.75c26.83 0 59.72-5.72 76.65-10.75l24.52 40.07c-38.58 34.35-24.23 86.24 10.61 102.07c-3.41 64.94-52.41 116.91-111.78 131.32c-59.37-14.41-108.37-66.39-111.78-131.32c34.85-15.83 49.19-67.72 10.61-102.07l24.52-40.07l0 0z" /><path class="s1" d="m373.35 159.87c16.93 5.04 49.83 10.75 76.65 10.75c26.83 0 59.72-5.72 76.65-10.75l24.52 40.07c-38.58 34.35-24.23 86.24 10.61 102.07c-3.41 64.94-52.41 116.91-111.78 131.32c-59.37-14.41-108.37-66.39-111.78-131.32c34.85-15.83 49.19-67.72 10.61-102.07l24.52-40.07l0 0z" /><g ><g ><path class="s5" d="m507.21 354.28v-159.46c0-1.03 2.04-1.19 2.04-2.22v-1.99" /><path class="s5" d="m520.28 215.21v35.09h-1.63c-1.02 0-1.19-2.04-2.22-2.04h-14.92" /><path class="s5" d="m525.78 266.25v35.09h-1.63c-1.02 0-1.19-2.04-2.22-2.04h-22.34" /><path class="s5" d="m458.2 301.34h1.99c1.02 0 1.19-2.04 2.22-2.04h23.48" /><path class="s5" d="m463.7 250.3h1.99c1.02 0 1.19-2.04 2.22-2.04h14.92" /></g><path class="s6" d="m509.25 190.98v1.63c0 1.02-2.04 1.19-2.04 2.22v22.78h9.22c1.03 0 1.19-2.04 2.22-2.04h1.63v34.74h-1.63c-1.02 0-1.19-2.04-2.22-2.04h-9.22v20.39h14.72c1.03 0 1.19-2.04 2.22-2.04h1.63v34.74h-1.63c-1.02 0-1.19-2.04-2.22-2.04h-14.72v54.63h-30.08v-54.63h-14.72c-1.03 0-1.19 2.04-2.22 2.04h-1.63v-34.74h1.63c1.02 0 1.19 2.04 2.22 2.04h14.72v-20.39h-9.22c-1.03 0-1.19 2.04-2.22 2.04h-1.63v-34.74h1.63c1.02 0 1.19 2.04 2.22 2.04h9.22v-22.78c0-1.03-2.04-1.19-2.04-2.22v-1.63h34.17z" /></g><g ><path class="s0" d="m450 400v33.19c0 0.05 0 0.1-0.01 0.14c-23.54-5.71-45.45-17.34-63.53-33.33h63.54z" /><path class="s0" d="m450 333.33v33.33h-91.58c-6.32-10.32-11.36-21.49-14.84-33.33h106.43z" /><path class="s0" d="m450 266.67v33.33h-107.81c12.74-7.12 22.27-19.24 26.77-33.33h81.04z" /><path class="s0" d="m450 200v33.33h-80.07c-3.02-11.72-9.76-23.27-21.04-33.33h101.11z" /></g><g ><path class="s7" d="m450 400h-63.54" /><path class="s7" d="m450 333.33h-106.43" /><path class="s7" d="m450 266.67h-81.04" /><path class="s7" d="m369.93 233.33h80.07" /><path class="s7" d="m358.42 366.67h91.58" /><path class="s7" d="m342.19 300h107.81" /><path class="s7" d="m450 200h-101.11" /></g><path class="s2" d="m492.17 330.73c15.03 0 20.87 21.7 20.87 21.7c14.71-2.46 25.23 10.7 27.2 16.24v0.16c-20.43 32.08-53.33 55.55-90.23 64.51v-72.55c5.58-6.81 12.14-9.94 21.3-8.35c0 0 5.84-21.7 20.87-21.7l0 0z" /><path class="s7" d="m450 360.78c5.58-6.81 12.14-9.94 21.3-8.35c0 0 5.84-21.7 20.87-21.7c15.03 0 20.87 21.7 20.87 21.7c14.71-2.46 25.23 10.7 27.2 16.24v0.16" /><g ><path class="s8" d="m511.25 335.39c-0.47 3.78-0.49 7.1 0 10.8c0 0-9.17-2.54-19.09-2.54c-9.92 0-19.09 2.54-19.09 2.54c0.49-3.71 0.47-7.02 0-10.8c0 0 12.72-1.98 19.09-1.98c6.36 0 19.09 1.98 19.09 1.98z" /><g ><g ><path class="s9" d="m508.41 320.69c0.04-0.1 0.11-0.2 0.19-0.28c0.08-0.08 0.17-0.14 0.28-0.19c0.1-0.04 0.22-0.07 0.33-0.07c0.11 0 0.22 0.02 0.33 0.07c0.1 0.04 0.2 0.11 0.28 0.19c0.08 0.08 0.14 0.17 0.19 0.28c0.04 0.1 0.07 0.22 0.07 0.33c0 0.11-0.02 0.22-0.07 0.33c-0.04 0.1-0.11 0.2-0.19 0.28c-0.08 0.08-0.17 0.14-0.28 0.19c-0.1 0.04-0.22 0.07-0.33 0.07c-0.11 0-0.22-0.02-0.33-0.07c-0.1-0.04-0.2-0.11-0.28-0.19c-0.08-0.08-0.14-0.17-0.19-0.28c-0.04-0.1-0.07-0.22-0.07-0.33c0-0.11 0.02-0.22 0.07-0.33z" /><path class="s10" d="m492.17 305.9c1.52 0 2.19 1.54 1.75 2.83c3.28 0.77 2.94 5.13 1.89 7.58c2.71-1.75 6.75-0.84 5.93 2.87c1.79-0.14 2.5 0.67 2.5 1.94c0 1.27-0.71 2.08-2.5 1.94c0.82 3.71-3.22 4.62-5.93 2.87c-0.8-0.52-1.33-0.94-1.94-1.58c1.97 6.95 10.99 7.52 13.1 0.68l1.58 0.51c-2.76 6.69 5.63 8.16 5.37 3.3c-1.33-0.62-2.29-2.15-0.59-3.44c-0.99-0.67-1.5-1.63-0.85-2.77c0.66-1.13 1.74-1.18 2.82-0.65c0.27-2.12 2.08-2.05 3.28-1.21c0.96-1.82 2.07-3.18 4.44-3.31c0.42 4.53-1.97 6.09-4.35 8.39c-2.07 7.36-5.1 8.88-7.7 9.55l-18.79-1.98l-18.79 1.98c-2.59-0.66-5.62-2.19-7.7-9.55c-2.38-2.31-4.77-3.86-4.35-8.39c2.37 0.13 3.48 1.49 4.44 3.31c1.2-0.84 3.01-0.91 3.28 1.21c1.08-0.52 2.16-0.48 2.82 0.65c0.65 1.14 0.15 2.1-0.85 2.77c1.7 1.29 0.74 2.82-0.59 3.44c-0.26 4.86 8.13 3.39 5.37-3.3l1.58-0.51c2.11 6.84 11.12 6.27 13.1-0.68c-0.61 0.64-1.14 1.06-1.94 1.58c-2.71 1.75-6.75 0.84-5.93-2.87c-1.79 0.14-2.5-0.67-2.5-1.94c0-1.27 0.71-2.08 2.5-1.94c-0.82-3.71 3.22-4.62 5.93-2.87c-1.05-2.44-1.39-6.81 1.89-7.58c-0.45-1.29 0.22-2.83 1.75-2.83h0z" /><path class="s9" d="m475.99 321.02c0 0.11-0.02 0.22-0.07 0.33c-0.04 0.1-0.11 0.2-0.19 0.28c-0.08 0.08-0.17 0.14-0.28 0.19c-0.1 0.04-0.22 0.07-0.33 0.07c-0.11 0-0.22-0.02-0.33-0.07c-0.1-0.04-0.2-0.11-0.28-0.19c-0.08-0.08-0.14-0.17-0.19-0.28c-0.04-0.1-0.07-0.22-0.07-0.33c0-0.11 0.02-0.22 0.07-0.33c0.04-0.1 0.11-0.2 0.19-0.28c0.08-0.08 0.17-0.14 0.28-0.19c0.1-0.04 0.22-0.07 0.33-0.07c0.11 0 0.22 0.02 0.33 0.07c0.1 0.04 0.2 0.11 0.28 0.19c0.08 0.08 0.14 0.17 0.19 0.28c0.04 0.1 0.07 0.22 0.07 0.33z" /></g><g ><path class="s11" d="m478.15 323.69c0 0.27-0.05 0.54-0.16 0.79c-0.1 0.25-0.25 0.48-0.45 0.67c-0.19 0.19-0.42 0.34-0.67 0.45c-0.25 0.1-0.52 0.16-0.79 0.16c-0.27 0-0.54-0.05-0.79-0.16c-0.25-0.1-0.48-0.25-0.67-0.45c-0.19-0.19-0.34-0.42-0.45-0.67c-0.1-0.25-0.16-0.52-0.16-0.79c0-0.27 0.05-0.54 0.16-0.79c0.1-0.25 0.25-0.48 0.45-0.67c0.19-0.19 0.42-0.34 0.67-0.45c0.25-0.1 0.52-0.16 0.79-0.16c0.27 0 0.54 0.05 0.79 0.16c0.25 0.1 0.48 0.25 0.67 0.45c0.19 0.19 0.34 0.42 0.45 0.67c0.1 0.25 0.16 0.52 0.16 0.79z" /><path class="s11" d="m506.35 322.9c0.1-0.25 0.25-0.48 0.45-0.67c0.19-0.19 0.42-0.34 0.67-0.45c0.25-0.1 0.52-0.16 0.79-0.16c0.27 0 0.54 0.05 0.79 0.16c0.25 0.1 0.48 0.25 0.67 0.45c0.19 0.19 0.34 0.42 0.45 0.67c0.1 0.25 0.16 0.52 0.16 0.79c0 0.27-0.05 0.54-0.16 0.79c-0.1 0.25-0.25 0.48-0.45 0.67c-0.19 0.19-0.42 0.34-0.67 0.45c-0.25 0.1-0.52 0.16-0.79 0.16c-0.27 0-0.54-0.05-0.79-0.16c-0.25-0.1-0.48-0.25-0.67-0.45c-0.19-0.19-0.34-0.42-0.45-0.67c-0.1-0.25-0.16-0.52-0.16-0.79c0-0.27 0.05-0.54 0.16-0.79z" /><path class="s11" d="m493.88 318.6c0 0.41-0.04 0.82-0.13 1.2c-0.09 0.38-0.21 0.73-0.37 1.02c-0.16 0.29-0.35 0.52-0.56 0.68c-0.21 0.16-0.43 0.24-0.66 0.24c-0.22 0-0.45-0.08-0.66-0.24c-0.21-0.16-0.4-0.39-0.56-0.68c-0.16-0.29-0.29-0.64-0.37-1.02c-0.09-0.38-0.13-0.79-0.13-1.2c0-0.41 0.04-0.82 0.13-1.2c0.09-0.38 0.21-0.73 0.37-1.02c0.16-0.29 0.35-0.52 0.56-0.68c0.21-0.16 0.43-0.24 0.66-0.24c0.22 0 0.45 0.08 0.66 0.24c0.21 0.16 0.4 0.39 0.56 0.68c0.16 0.29 0.29 0.64 0.37 1.02c0.09 0.38 0.13 0.79 0.13 1.2z" /><path class="s11" d="m520.08 326.66c-0.16 0.23-0.33 0.43-0.52 0.61c-0.19 0.18-0.39 0.32-0.59 0.42c-0.2 0.1-0.39 0.15-0.56 0.16c-0.17 0.01-0.33-0.03-0.45-0.12c-0.12-0.09-0.22-0.21-0.27-0.38c-0.05-0.16-0.07-0.36-0.05-0.58c0.02-0.22 0.08-0.46 0.18-0.7c0.1-0.24 0.23-0.48 0.38-0.71c0.16-0.23 0.33-0.43 0.52-0.61c0.19-0.18 0.39-0.32 0.59-0.42c0.2-0.1 0.39-0.15 0.56-0.16c0.17-0.01 0.33 0.03 0.45 0.12c0.12 0.09 0.22 0.21 0.27 0.38c0.05 0.16 0.07 0.36 0.05 0.58c-0.02 0.22-0.08 0.46-0.18 0.7c-0.1 0.24-0.23 0.48-0.38 0.71z" /><path class="s11" d="m464.25 326.66c-0.16-0.23-0.28-0.47-0.38-0.71c-0.1-0.24-0.16-0.48-0.18-0.7c-0.02-0.22-0.01-0.42 0.05-0.58c0.05-0.16 0.15-0.29 0.27-0.38c0.12-0.09 0.28-0.12 0.45-0.12c0.17 0.01 0.36 0.06 0.56 0.16c0.2 0.1 0.4 0.24 0.59 0.42c0.19 0.18 0.37 0.38 0.52 0.61c0.16 0.23 0.28 0.47 0.38 0.71c0.1 0.24 0.16 0.48 0.18 0.7c0.02 0.22 0.01 0.42-0.05 0.58c-0.05 0.16-0.15 0.29-0.27 0.38c-0.12 0.09-0.28 0.12-0.45 0.12c-0.17-0.01-0.36-0.06-0.56-0.16c-0.2-0.1-0.4-0.24-0.59-0.42c-0.19-0.18-0.37-0.38-0.52-0.61l0 0z" /></g></g><g ><path class="s12" d="m474.96 335.9c0 0.22-0.04 0.45-0.13 0.66c-0.09 0.21-0.21 0.4-0.37 0.56c-0.16 0.16-0.35 0.29-0.56 0.37c-0.21 0.09-0.43 0.13-0.66 0.13c-0.22 0-0.45-0.04-0.66-0.13c-0.21-0.09-0.4-0.21-0.56-0.37c-0.16-0.16-0.29-0.35-0.37-0.56c-0.09-0.21-0.13-0.43-0.13-0.66c0-0.22 0.04-0.45 0.13-0.66c0.09-0.21 0.21-0.4 0.37-0.56c0.16-0.16 0.35-0.29 0.56-0.37c0.21-0.09 0.43-0.13 0.66-0.13c0.22 0 0.45 0.04 0.66 0.13c0.21 0.09 0.4 0.21 0.56 0.37c0.16 0.16 0.29 0.35 0.37 0.56c0.09 0.21 0.13 0.43 0.13 0.66z" /><path class="s12" d="m477.25 335.44c0 0.22-0.04 0.45-0.13 0.66c-0.09 0.21-0.21 0.4-0.37 0.56c-0.16 0.16-0.35 0.29-0.56 0.37c-0.21 0.09-0.43 0.13-0.66 0.13c-0.22 0-0.45-0.04-0.66-0.13c-0.21-0.09-0.4-0.21-0.56-0.37c-0.16-0.16-0.29-0.35-0.37-0.56c-0.09-0.21-0.13-0.43-0.13-0.66c0-0.22 0.04-0.45 0.13-0.66c0.09-0.21 0.21-0.4 0.37-0.56c0.16-0.16 0.35-0.29 0.56-0.37c0.21-0.09 0.43-0.13 0.66-0.13c0.22 0 0.45 0.04 0.66 0.13c0.21 0.09 0.4 0.21 0.56 0.37c0.16 0.16 0.29 0.35 0.37 0.56c0.09 0.21 0.13 0.43 0.13 0.66z" /><path class="s12" d="m479.53 335.04c0 0.22-0.04 0.45-0.13 0.66c-0.09 0.21-0.21 0.4-0.37 0.56c-0.16 0.16-0.35 0.29-0.56 0.37c-0.21 0.09-0.43 0.13-0.66 0.13c-0.22 0-0.45-0.04-0.66-0.13c-0.21-0.09-0.4-0.21-0.56-0.37c-0.16-0.16-0.29-0.35-0.37-0.56c-0.09-0.21-0.13-0.43-0.13-0.66c0-0.22 0.04-0.45 0.13-0.66c0.09-0.21 0.21-0.4 0.37-0.56c0.16-0.16 0.35-0.29 0.56-0.37c0.21-0.09 0.43-0.13 0.66-0.13c0.22 0 0.45 0.04 0.66 0.13c0.21 0.09 0.4 0.21 0.56 0.37c0.16 0.16 0.29 0.35 0.37 0.56c0.09 0.21 0.13 0.43 0.13 0.66z" /><path class="s12" d="m482.24 334.64c0 0.22-0.04 0.45-0.13 0.66c-0.09 0.21-0.21 0.4-0.37 0.56c-0.16 0.16-0.35 0.29-0.56 0.37c-0.21 0.09-0.43 0.13-0.66 0.13c-0.22 0-0.45-0.04-0.66-0.13c-0.21-0.09-0.4-0.21-0.56-0.37c-0.16-0.16-0.29-0.35-0.37-0.56c-0.09-0.21-0.13-0.43-0.13-0.66c0-0.22 0.04-0.45 0.13-0.66c0.09-0.21 0.21-0.4 0.37-0.56c0.16-0.16 0.35-0.29 0.56-0.37c0.21-0.09 0.43-0.13 0.66-0.13c0.22 0 0.45 0.04 0.66 0.13c0.21 0.09 0.4 0.21 0.56 0.37c0.16 0.16 0.29 0.35 0.37 0.56c0.09 0.21 0.13 0.43 0.13 0.66z" /><path class="s12" d="m484.96 334.34c0 0.22-0.04 0.45-0.13 0.66c-0.09 0.21-0.21 0.4-0.37 0.56c-0.16 0.16-0.35 0.29-0.56 0.37c-0.21 0.09-0.43 0.13-0.66 0.13c-0.22 0-0.45-0.04-0.66-0.13c-0.21-0.09-0.4-0.21-0.56-0.37c-0.16-0.16-0.29-0.35-0.37-0.56c-0.09-0.21-0.13-0.43-0.13-0.66c0-0.22 0.04-0.45 0.13-0.66c0.09-0.21 0.21-0.4 0.37-0.56c0.16-0.16 0.35-0.29 0.56-0.37c0.21-0.09 0.43-0.13 0.66-0.13c0.22 0 0.45 0.04 0.66 0.13c0.21 0.09 0.4 0.21 0.56 0.37c0.16 0.16 0.29 0.35 0.37 0.56c0.09 0.21 0.13 0.43 0.13 0.66z" /><path class="s12" d="m487.81 334.12c0 0.22-0.04 0.45-0.13 0.66c-0.09 0.21-0.21 0.4-0.37 0.56c-0.16 0.16-0.35 0.29-0.56 0.37c-0.21 0.09-0.43 0.13-0.66 0.13c-0.22 0-0.45-0.04-0.66-0.13c-0.21-0.09-0.4-0.21-0.56-0.37c-0.16-0.16-0.29-0.35-0.37-0.56c-0.09-0.21-0.13-0.43-0.13-0.66c0-0.22 0.04-0.45 0.13-0.66c0.09-0.21 0.21-0.4 0.37-0.56c0.16-0.16 0.35-0.29 0.56-0.37c0.21-0.09 0.43-0.13 0.66-0.13c0.22 0 0.45 0.04 0.66 0.13c0.21 0.09 0.4 0.21 0.56 0.37c0.16 0.16 0.29 0.35 0.37 0.56c0.09 0.21 0.13 0.43 0.13 0.66z" /><path class="s12" d="m490.67 334c0 0.22-0.04 0.45-0.13 0.66c-0.09 0.21-0.21 0.4-0.37 0.56c-0.16 0.16-0.35 0.29-0.56 0.37c-0.21 0.09-0.43 0.13-0.66 0.13c-0.22 0-0.45-0.04-0.66-0.13c-0.21-0.09-0.4-0.21-0.56-0.37c-0.16-0.16-0.29-0.35-0.37-0.56c-0.09-0.21-0.13-0.43-0.13-0.66c0-0.22 0.04-0.45 0.13-0.66c0.09-0.21 0.21-0.4 0.37-0.56c0.16-0.16 0.35-0.29 0.56-0.37c0.21-0.09 0.43-0.13 0.66-0.13c0.22 0 0.45 0.04 0.66 0.13c0.21 0.09 0.4 0.21 0.56 0.37c0.16 0.16 0.29 0.35 0.37 0.56c0.09 0.21 0.13 0.43 0.13 0.66z" /><path class="s12" d="m509.5 335.24c0.09-0.21 0.21-0.4 0.37-0.56c0.16-0.16 0.35-0.29 0.56-0.37c0.21-0.09 0.43-0.13 0.66-0.13c0.22 0 0.45 0.04 0.66 0.13c0.21 0.09 0.4 0.21 0.56 0.37c0.16 0.16 0.29 0.35 0.37 0.56c0.09 0.21 0.13 0.43 0.13 0.66c0 0.22-0.04 0.45-0.13 0.66c-0.09 0.21-0.21 0.4-0.37 0.56c-0.16 0.16-0.35 0.29-0.56 0.37c-0.21 0.09-0.43 0.13-0.66 0.13c-0.22 0-0.45-0.04-0.66-0.13c-0.21-0.09-0.4-0.21-0.56-0.37c-0.16-0.16-0.29-0.35-0.37-0.56c-0.09-0.21-0.13-0.43-0.13-0.66c0-0.22 0.04-0.45 0.13-0.66z" /><path class="s12" d="m507.22 334.79c0.09-0.21 0.21-0.4 0.37-0.56c0.16-0.16 0.35-0.29 0.56-0.37c0.21-0.09 0.43-0.13 0.66-0.13c0.22 0 0.45 0.04 0.66 0.13c0.21 0.09 0.4 0.21 0.56 0.37c0.16 0.16 0.29 0.35 0.37 0.56c0.09 0.21 0.13 0.43 0.13 0.66c0 0.22-0.04 0.45-0.13 0.66c-0.09 0.21-0.21 0.4-0.37 0.56c-0.16 0.16-0.35 0.29-0.56 0.37c-0.21 0.09-0.43 0.13-0.66 0.13c-0.22 0-0.45-0.04-0.66-0.13c-0.21-0.09-0.4-0.21-0.56-0.37c-0.16-0.16-0.29-0.35-0.37-0.56c-0.09-0.21-0.13-0.43-0.13-0.66c0-0.22 0.04-0.45 0.13-0.66z" /><path class="s12" d="m504.94 334.39c0.09-0.21 0.21-0.4 0.37-0.56c0.16-0.16 0.35-0.29 0.56-0.37c0.21-0.09 0.43-0.13 0.66-0.13c0.22 0 0.45 0.04 0.66 0.13c0.21 0.09 0.4 0.21 0.56 0.37c0.16 0.16 0.29 0.35 0.37 0.56c0.09 0.21 0.13 0.43 0.13 0.66c0 0.22-0.04 0.45-0.13 0.66c-0.09 0.21-0.21 0.4-0.37 0.56c-0.16 0.16-0.35 0.29-0.56 0.37c-0.21 0.09-0.43 0.13-0.66 0.13c-0.22 0-0.45-0.04-0.66-0.13c-0.21-0.09-0.4-0.21-0.56-0.37c-0.16-0.16-0.29-0.35-0.37-0.56c-0.09-0.21-0.13-0.43-0.13-0.66c0-0.22 0.04-0.45 0.13-0.66z" /><path class="s12" d="m502.22 333.99c0.09-0.21 0.21-0.4 0.37-0.56c0.16-0.16 0.35-0.29 0.56-0.37c0.21-0.09 0.43-0.13 0.66-0.13c0.22 0 0.45 0.04 0.66 0.13c0.21 0.09 0.4 0.21 0.56 0.37c0.16 0.16 0.29 0.35 0.37 0.56c0.09 0.21 0.13 0.43 0.13 0.66c0 0.22-0.04 0.45-0.13 0.66c-0.09 0.21-0.21 0.4-0.37 0.56c-0.16 0.16-0.35 0.29-0.56 0.37c-0.21 0.09-0.43 0.13-0.66 0.13c-0.22 0-0.45-0.04-0.66-0.13c-0.21-0.09-0.4-0.21-0.56-0.37c-0.16-0.16-0.29-0.35-0.37-0.56c-0.09-0.21-0.13-0.43-0.13-0.66c0-0.22 0.04-0.45 0.13-0.66z" /><path class="s12" d="m499.51 333.68c0.09-0.21 0.21-0.4 0.37-0.56c0.16-0.16 0.35-0.29 0.56-0.37c0.21-0.09 0.43-0.13 0.66-0.13c0.22 0 0.45 0.04 0.66 0.13c0.21 0.09 0.4 0.21 0.56 0.37c0.16 0.16 0.29 0.35 0.37 0.56c0.09 0.21 0.13 0.43 0.13 0.66c0 0.22-0.04 0.45-0.13 0.66c-0.09 0.21-0.21 0.4-0.37 0.56c-0.16 0.16-0.35 0.29-0.56 0.37c-0.21 0.09-0.43 0.13-0.66 0.13c-0.22 0-0.45-0.04-0.66-0.13c-0.21-0.09-0.4-0.21-0.56-0.37c-0.16-0.16-0.29-0.35-0.37-0.56c-0.09-0.21-0.13-0.43-0.13-0.66c0-0.22 0.04-0.45 0.13-0.66z" /><path class="s12" d="m496.66 333.47c0.09-0.21 0.21-0.4 0.37-0.56c0.16-0.16 0.35-0.29 0.56-0.37c0.21-0.09 0.43-0.13 0.66-0.13c0.22 0 0.45 0.04 0.66 0.13c0.21 0.09 0.4 0.21 0.56 0.37c0.16 0.16 0.29 0.35 0.37 0.56c0.09 0.21 0.13 0.43 0.13 0.66c0 0.22-0.04 0.45-0.13 0.66c-0.09 0.21-0.21 0.4-0.37 0.56c-0.16 0.16-0.35 0.29-0.56 0.37c-0.21 0.09-0.43 0.13-0.66 0.13c-0.22 0-0.45-0.04-0.66-0.13c-0.21-0.09-0.4-0.21-0.56-0.37c-0.16-0.16-0.29-0.35-0.37-0.56c-0.09-0.21-0.13-0.43-0.13-0.66c0-0.22 0.04-0.45 0.13-0.66z" /><path class="s12" d="m493.8 333.35c0.09-0.21 0.21-0.4 0.37-0.56c0.16-0.16 0.35-0.29 0.56-0.37c0.21-0.09 0.43-0.13 0.66-0.13c0.22 0 0.45 0.04 0.66 0.13c0.21 0.09 0.4 0.21 0.56 0.37c0.16 0.16 0.29 0.35 0.37 0.56c0.09 0.21 0.13 0.43 0.13 0.66c0 0.22-0.04 0.45-0.13 0.66c-0.09 0.21-0.21 0.4-0.37 0.56c-0.16 0.16-0.35 0.29-0.56 0.37c-0.21 0.09-0.43 0.13-0.66 0.13c-0.22 0-0.45-0.04-0.66-0.13c-0.21-0.09-0.4-0.21-0.56-0.37c-0.16-0.16-0.29-0.35-0.37-0.56c-0.09-0.21-0.13-0.43-0.13-0.66c0-0.22 0.04-0.45 0.13-0.66z" /><path class="s12" d="m493.88 333.95c0 0.22-0.04 0.45-0.13 0.66c-0.09 0.21-0.21 0.4-0.37 0.56c-0.16 0.16-0.35 0.29-0.56 0.37c-0.21 0.09-0.43 0.13-0.66 0.13c-0.22 0-0.45-0.04-0.66-0.13c-0.21-0.09-0.4-0.21-0.56-0.37c-0.16-0.16-0.29-0.35-0.37-0.56c-0.09-0.21-0.13-0.43-0.13-0.66c0-0.22 0.04-0.45 0.13-0.66c0.09-0.21 0.21-0.4 0.37-0.56c0.16-0.16 0.35-0.29 0.56-0.37c0.21-0.09 0.43-0.13 0.66-0.13c0.22 0 0.45 0.04 0.66 0.13c0.21 0.09 0.4 0.21 0.56 0.37c0.16 0.16 0.29 0.35 0.37 0.56c0.09 0.21 0.13 0.43 0.13 0.66z" /></g><g ><path class="s12" d="m474.96 345.9c0 0.22-0.04 0.45-0.13 0.66c-0.09 0.21-0.21 0.4-0.37 0.56c-0.16 0.16-0.35 0.29-0.56 0.37c-0.21 0.09-0.43 0.13-0.66 0.13c-0.22 0-0.45-0.04-0.66-0.13c-0.21-0.09-0.4-0.21-0.56-0.37c-0.16-0.16-0.29-0.35-0.37-0.56c-0.09-0.21-0.13-0.43-0.13-0.66c0-0.22 0.04-0.45 0.13-0.66c0.09-0.21 0.21-0.4 0.37-0.56c0.16-0.16 0.35-0.29 0.56-0.37c0.21-0.09 0.43-0.13 0.66-0.13c0.22 0 0.45 0.04 0.66 0.13c0.21 0.09 0.4 0.21 0.56 0.37c0.16 0.16 0.29 0.35 0.37 0.56c0.09 0.21 0.13 0.43 0.13 0.66z" /><path class="s12" d="m477.25 345.45c0 0.22-0.04 0.45-0.13 0.66c-0.09 0.21-0.21 0.4-0.37 0.56c-0.16 0.16-0.35 0.29-0.56 0.37c-0.21 0.09-0.43 0.13-0.66 0.13c-0.22 0-0.45-0.04-0.66-0.13c-0.21-0.09-0.4-0.21-0.56-0.37c-0.16-0.16-0.29-0.35-0.37-0.56c-0.09-0.21-0.13-0.43-0.13-0.66c0-0.22 0.04-0.45 0.13-0.66c0.09-0.21 0.21-0.4 0.37-0.56c0.16-0.16 0.35-0.29 0.56-0.37c0.21-0.09 0.43-0.13 0.66-0.13c0.22 0 0.45 0.04 0.66 0.13c0.21 0.09 0.4 0.21 0.56 0.37c0.16 0.16 0.29 0.35 0.37 0.56c0.09 0.21 0.13 0.43 0.13 0.66z" /><path class="s12" d="m479.53 345.05c0 0.22-0.04 0.45-0.13 0.66c-0.09 0.21-0.21 0.4-0.37 0.56c-0.16 0.16-0.35 0.29-0.56 0.37c-0.21 0.09-0.43 0.13-0.66 0.13c-0.22 0-0.45-0.04-0.66-0.13c-0.21-0.09-0.4-0.21-0.56-0.37c-0.16-0.16-0.29-0.35-0.37-0.56c-0.09-0.21-0.13-0.43-0.13-0.66c0-0.22 0.04-0.45 0.13-0.66c0.09-0.21 0.21-0.4 0.37-0.56c0.16-0.16 0.35-0.29 0.56-0.37c0.21-0.09 0.43-0.13 0.66-0.13c0.22 0 0.45 0.04 0.66 0.13c0.21 0.09 0.4 0.21 0.56 0.37c0.16 0.16 0.29 0.35 0.37 0.56c0.09 0.21 0.13 0.43 0.13 0.66z" /><path class="s12" d="m482.24 344.65c0 0.22-0.04 0.45-0.13 0.66c-0.09 0.21-0.21 0.4-0.37 0.56c-0.16 0.16-0.35 0.29-0.56 0.37c-0.21 0.09-0.43 0.13-0.66 0.13c-0.22 0-0.45-0.04-0.66-0.13c-0.21-0.09-0.4-0.21-0.56-0.37c-0.16-0.16-0.29-0.35-0.37-0.56c-0.09-0.21-0.13-0.43-0.13-0.66c0-0.22 0.04-0.45 0.13-0.66c0.09-0.21 0.21-0.4 0.37-0.56c0.16-0.16 0.35-0.29 0.56-0.37c0.21-0.09 0.43-0.13 0.66-0.13c0.22 0 0.45 0.04 0.66 0.13c0.21 0.09 0.4 0.21 0.56 0.37c0.16 0.16 0.29 0.35 0.37 0.56c0.09 0.21 0.13 0.43 0.13 0.66z" /><path class="s12" d="m484.96 344.34c0 0.22-0.04 0.45-0.13 0.66c-0.09 0.21-0.21 0.4-0.37 0.56c-0.16 0.16-0.35 0.29-0.56 0.37c-0.21 0.09-0.43 0.13-0.66 0.13c-0.22 0-0.45-0.04-0.66-0.13c-0.21-0.09-0.4-0.21-0.56-0.37c-0.16-0.16-0.29-0.35-0.37-0.56c-0.09-0.21-0.13-0.43-0.13-0.66c0-0.22 0.04-0.45 0.13-0.66c0.09-0.21 0.21-0.4 0.37-0.56c0.16-0.16 0.35-0.29 0.56-0.37c0.21-0.09 0.43-0.13 0.66-0.13c0.22 0 0.45 0.04 0.66 0.13c0.21 0.09 0.4 0.21 0.56 0.37c0.16 0.16 0.29 0.35 0.37 0.56c0.09 0.21 0.13 0.43 0.13 0.66z" /><path class="s12" d="m487.81 344.13c0 0.22-0.04 0.45-0.13 0.66c-0.09 0.21-0.21 0.4-0.37 0.56c-0.16 0.16-0.35 0.29-0.56 0.37c-0.21 0.09-0.43 0.13-0.66 0.13c-0.22 0-0.45-0.04-0.66-0.13c-0.21-0.09-0.4-0.21-0.56-0.37c-0.16-0.16-0.29-0.35-0.37-0.56c-0.09-0.21-0.13-0.43-0.13-0.66c0-0.22 0.04-0.45 0.13-0.66c0.09-0.21 0.21-0.4 0.37-0.56c0.16-0.16 0.35-0.29 0.56-0.37c0.21-0.09 0.43-0.13 0.66-0.13c0.22 0 0.45 0.04 0.66 0.13c0.21 0.09 0.4 0.21 0.56 0.37c0.16 0.16 0.29 0.35 0.37 0.56c0.09 0.21 0.13 0.43 0.13 0.66z" /><path class="s12" d="m490.67 344c0 0.22-0.04 0.45-0.13 0.66c-0.09 0.21-0.21 0.4-0.37 0.56c-0.16 0.16-0.35 0.29-0.56 0.37c-0.21 0.09-0.43 0.13-0.66 0.13c-0.22 0-0.45-0.04-0.66-0.13c-0.21-0.09-0.4-0.21-0.56-0.37c-0.16-0.16-0.29-0.35-0.37-0.56c-0.09-0.21-0.13-0.43-0.13-0.66c0-0.22 0.04-0.45 0.13-0.66c0.09-0.21 0.21-0.4 0.37-0.56c0.16-0.16 0.35-0.29 0.56-0.37c0.21-0.09 0.43-0.13 0.66-0.13c0.22 0 0.45 0.04 0.66 0.13c0.21 0.09 0.4 0.21 0.56 0.37c0.16 0.16 0.29 0.35 0.37 0.56c0.09 0.21 0.13 0.43 0.13 0.66z" /><path class="s12" d="m509.5 345.25c0.09-0.21 0.21-0.4 0.37-0.56c0.16-0.16 0.35-0.29 0.56-0.37c0.21-0.09 0.43-0.13 0.66-0.13c0.22 0 0.45 0.04 0.66 0.13c0.21 0.09 0.4 0.21 0.56 0.37c0.16 0.16 0.29 0.35 0.37 0.56c0.09 0.21 0.13 0.43 0.13 0.66c0 0.22-0.04 0.45-0.13 0.66c-0.09 0.21-0.21 0.4-0.37 0.56c-0.16 0.16-0.35 0.29-0.56 0.37c-0.21 0.09-0.43 0.13-0.66 0.13c-0.22 0-0.45-0.04-0.66-0.13c-0.21-0.09-0.4-0.21-0.56-0.37c-0.16-0.16-0.29-0.35-0.37-0.56c-0.09-0.21-0.13-0.43-0.13-0.66c0-0.22 0.04-0.45 0.13-0.66z" /><path class="s12" d="m507.22 344.79c0.09-0.21 0.21-0.4 0.37-0.56c0.16-0.16 0.35-0.29 0.56-0.37c0.21-0.09 0.43-0.13 0.66-0.13c0.22 0 0.45 0.04 0.66 0.13c0.21 0.09 0.4 0.21 0.56 0.37c0.16 0.16 0.29 0.35 0.37 0.56c0.09 0.21 0.13 0.43 0.13 0.66c0 0.22-0.04 0.45-0.13 0.66c-0.09 0.21-0.21 0.4-0.37 0.56c-0.16 0.16-0.35 0.29-0.56 0.37c-0.21 0.09-0.43 0.13-0.66 0.13c-0.22 0-0.45-0.04-0.66-0.13c-0.21-0.09-0.4-0.21-0.56-0.37c-0.16-0.16-0.29-0.35-0.37-0.56c-0.09-0.21-0.13-0.43-0.13-0.66c0-0.22 0.04-0.45 0.13-0.66z" /><path class="s12" d="m504.94 344.39c0.09-0.21 0.21-0.4 0.37-0.56c0.16-0.16 0.35-0.29 0.56-0.37c0.21-0.09 0.43-0.13 0.66-0.13c0.22 0 0.45 0.04 0.66 0.13c0.21 0.09 0.4 0.21 0.56 0.37c0.16 0.16 0.29 0.35 0.37 0.56c0.09 0.21 0.13 0.43 0.13 0.66c0 0.22-0.04 0.45-0.13 0.66c-0.09 0.21-0.21 0.4-0.37 0.56c-0.16 0.16-0.35 0.29-0.56 0.37c-0.21 0.09-0.43 0.13-0.66 0.13c-0.22 0-0.45-0.04-0.66-0.13c-0.21-0.09-0.4-0.21-0.56-0.37c-0.16-0.16-0.29-0.35-0.37-0.56c-0.09-0.21-0.13-0.43-0.13-0.66c0-0.22 0.04-0.45 0.13-0.66z" /><path class="s12" d="m502.22 343.99c0.09-0.21 0.21-0.4 0.37-0.56c0.16-0.16 0.35-0.29 0.56-0.37c0.21-0.09 0.43-0.13 0.66-0.13c0.22 0 0.45 0.04 0.66 0.13c0.21 0.09 0.4 0.21 0.56 0.37c0.16 0.16 0.29 0.35 0.37 0.56c0.09 0.21 0.13 0.43 0.13 0.66c0 0.22-0.04 0.45-0.13 0.66c-0.09 0.21-0.21 0.4-0.37 0.56c-0.16 0.16-0.35 0.29-0.56 0.37c-0.21 0.09-0.43 0.13-0.66 0.13c-0.22 0-0.45-0.04-0.66-0.13c-0.21-0.09-0.4-0.21-0.56-0.37c-0.16-0.16-0.29-0.35-0.37-0.56c-0.09-0.21-0.13-0.43-0.13-0.66c0-0.22 0.04-0.45 0.13-0.66z" /><path class="s12" d="m499.51 343.68c0.09-0.21 0.21-0.4 0.37-0.56c0.16-0.16 0.35-0.29 0.56-0.37c0.21-0.09 0.43-0.13 0.66-0.13c0.22 0 0.45 0.04 0.66 0.13c0.21 0.09 0.4 0.21 0.56 0.37c0.16 0.16 0.29 0.35 0.37 0.56c0.09 0.21 0.13 0.43 0.13 0.66c0 0.22-0.04 0.45-0.13 0.66c-0.09 0.21-0.21 0.4-0.37 0.56c-0.16 0.16-0.35 0.29-0.56 0.37c-0.21 0.09-0.43 0.13-0.66 0.13c-0.22 0-0.45-0.04-0.66-0.13c-0.21-0.09-0.4-0.21-0.56-0.37c-0.16-0.16-0.29-0.35-0.37-0.56c-0.09-0.21-0.13-0.43-0.13-0.66c0-0.22 0.04-0.45 0.13-0.66z" /><path class="s12" d="m496.66 343.47c0.09-0.21 0.21-0.4 0.37-0.56c0.16-0.16 0.35-0.29 0.56-0.37c0.21-0.09 0.43-0.13 0.66-0.13c0.22 0 0.45 0.04 0.66 0.13c0.21 0.09 0.4 0.21 0.56 0.37c0.16 0.16 0.29 0.35 0.37 0.56c0.09 0.21 0.13 0.43 0.13 0.66c0 0.22-0.04 0.45-0.13 0.66c-0.09 0.21-0.21 0.4-0.37 0.56c-0.16 0.16-0.35 0.29-0.56 0.37c-0.21 0.09-0.43 0.13-0.66 0.13c-0.22 0-0.45-0.04-0.66-0.13c-0.21-0.09-0.4-0.21-0.56-0.37c-0.16-0.16-0.29-0.35-0.37-0.56c-0.09-0.21-0.13-0.43-0.13-0.66c0-0.22 0.04-0.45 0.13-0.66z" /><path class="s12" d="m493.8 343.35c0.09-0.21 0.21-0.4 0.37-0.56c0.16-0.16 0.35-0.29 0.56-0.37c0.21-0.09 0.43-0.13 0.66-0.13c0.22 0 0.45 0.04 0.66 0.13c0.21 0.09 0.4 0.21 0.56 0.37c0.16 0.16 0.29 0.35 0.37 0.56c0.09 0.21 0.13 0.43 0.13 0.66c0 0.22-0.04 0.45-0.13 0.66c-0.09 0.21-0.21 0.4-0.37 0.56c-0.16 0.16-0.35 0.29-0.56 0.37c-0.21 0.09-0.43 0.13-0.66 0.13c-0.22 0-0.45-0.04-0.66-0.13c-0.21-0.09-0.4-0.21-0.56-0.37c-0.16-0.16-0.29-0.35-0.37-0.56c-0.09-0.21-0.13-0.43-0.13-0.66c0-0.22 0.04-0.45 0.13-0.66z" /><path class="s12" d="m493.88 343.95c0 0.22-0.04 0.45-0.13 0.66c-0.09 0.21-0.21 0.4-0.37 0.56c-0.16 0.16-0.35 0.29-0.56 0.37c-0.21 0.09-0.43 0.13-0.66 0.13c-0.22 0-0.45-0.04-0.66-0.13c-0.21-0.09-0.4-0.21-0.56-0.37c-0.16-0.16-0.29-0.35-0.37-0.56c-0.09-0.21-0.13-0.43-0.13-0.66c0-0.22 0.04-0.45 0.13-0.66c0.09-0.21 0.21-0.4 0.37-0.56c0.16-0.16 0.35-0.29 0.56-0.37c0.21-0.09 0.43-0.13 0.66-0.13c0.22 0 0.45 0.04 0.66 0.13c0.21 0.09 0.4 0.21 0.56 0.37c0.16 0.16 0.29 0.35 0.37 0.56c0.09 0.21 0.13 0.43 0.13 0.66z" /></g><g ><path class="s13" d="m484.1 337.76c-2.89 0.25-5.76 0.65-9.09 1.27" /><path class="s13" d="m483.83 339.24c-2.52 0.22-5.04 0.57-7.88 1.08" /><path class="s13" d="m483.61 340.96c-1.18 0.11-2.35 0.24-3.56 0.41" /></g><g ><path class="s13" d="m499.26 337.59c3.32 0.25 6.55 0.7 10.42 1.43" /><path class="s13" d="m499.28 339.17c3.31 0.25 6.53 0.7 10.4 1.43" /><path class="s13" d="m499.27 340.74c3.31 0.25 6.54 0.7 10.41 1.43" /></g></g><path class="s14" d="m450 433.19l0-262.71" /><path class="s14" d="m373.35 159.87c16.93 5.04 49.83 10.75 76.65 10.75c26.83 0 59.72-5.72 76.65-10.75l24.52 40.07c-38.58 34.35-24.23 86.24 10.61 102.07c-3.41 64.94-52.41 116.91-111.78 131.32c-59.37-14.41-108.37-66.39-111.78-131.32c34.85-15.83 49.19-67.72 10.61-102.07l24.52-40.07l0 0z" /></g></g></svg>