<svg version="1.2" baseProfile="tiny-ps" xmlns="http://www.w3.org/2000/svg" viewBox="0 0 750 500" width="900" height="600">
<style>tspan { white-space:pre }.shp0 { fill: #00afca } .shp1 { fill: #fec50c } .shp2 { fill: #fec50c;stroke: #00afca;stroke-width: 0.191 } </style><path class="shp0" d="M-125 0L875 0L875 500L-125 500L-125 0Z" /><g ><path class="shp1" d="M415.24 277.27C378.03 277.27 347.96 247.2 347.96 210C347.96 172.8 378.03 142.72 415.24 142.72C452.44 142.72 482.51 172.8 482.51 210C482.51 247.2 452.44 277.27 415.24 277.27Z" /><g ><g ><path class="shp1" d="M415.24 133.55C419.24 133.5 420.74 131 420.74 128C420.74 124 415.24 104.95 415.24 104.95C415.24 104.95 409.74 124 409.74 128C409.74 131 411.24 133.55 415.24 133.55Z" /><path class="shp1" d="M491.69 210C491.74 214 494.24 215.5 497.24 215.5C501.24 215.5 520.29 210 520.29 210C520.29 210 501.24 204.5 497.24 204.5C494.24 204.5 491.69 206 491.69 210Z" /><path class="shp1" d="M415.24 286.45C411.24 286.5 409.74 289 409.74 292C409.74 296 415.24 315.05 415.24 315.05C415.24 315.05 420.74 296 420.74 292C420.74 289 419.24 286.45 415.24 286.45Z" /><path class="shp1" d="M338.79 210C338.74 206 336.24 204.5 333.24 204.5C329.24 204.5 310.19 210 310.19 210C310.19 210 329.24 215.5 333.24 215.5C336.24 215.5 338.79 214 338.79 210Z" /></g><g ><path class="shp1" d="M444.49 139.37C448.21 140.85 450.55 139.12 451.7 136.35C453.23 132.65 455.44 112.95 455.44 112.95C455.44 112.95 443.07 128.44 441.53 132.14C440.39 134.91 440.8 137.84 444.49 139.37Z" /><path class="shp1" d="M485.87 239.26C484.38 242.97 486.12 245.31 488.89 246.46C492.58 247.99 512.29 250.2 512.29 250.2C512.29 250.2 496.79 237.83 493.1 236.3C490.33 235.15 487.4 235.56 485.87 239.26Z" /><path class="shp1" d="M385.98 280.63C382.27 279.15 379.92 280.88 378.77 283.65C377.24 287.35 375.04 307.05 375.04 307.05C375.04 307.05 387.41 291.56 388.94 287.86C390.09 285.09 389.68 282.16 385.98 280.63Z" /><path class="shp1" d="M344.61 180.74C346.09 177.03 344.35 174.69 341.58 173.54C337.89 172.01 318.18 169.8 318.18 169.8C318.18 169.8 333.68 182.17 337.37 183.7C340.14 184.85 343.07 184.44 344.61 180.74Z" /></g><g ><path class="shp1" d="M469.29 155.94C472.16 158.73 474.99 158.03 477.11 155.91C479.94 153.08 489.52 135.72 489.52 135.72C489.52 135.72 472.16 145.3 469.33 148.13C467.21 150.25 466.47 153.11 469.29 155.94Z" /><path class="shp1" d="M469.29 264.06C466.5 266.92 467.21 269.75 469.33 271.87C472.16 274.7 489.52 284.28 489.52 284.28C489.52 284.28 479.94 266.92 477.11 264.09C474.99 261.97 472.12 261.23 469.29 264.06Z" /><path class="shp1" d="M361.18 264.06C358.31 261.27 355.49 261.97 353.36 264.09C350.54 266.92 340.95 284.28 340.95 284.28C340.95 284.28 358.31 274.7 361.14 271.87C363.26 269.75 364.01 266.89 361.18 264.06Z" /><path class="shp1" d="M361.18 155.94C363.97 153.08 363.26 150.25 361.14 148.13C358.31 145.3 340.95 135.72 340.95 135.72C340.95 135.72 350.54 153.08 353.36 155.91C355.49 158.03 358.35 158.77 361.18 155.94Z" /></g><g ><path class="shp1" d="M485.87 180.74C487.44 184.42 490.33 184.85 493.1 183.7C496.79 182.17 512.29 169.8 512.29 169.8C512.29 169.8 492.58 172.01 488.89 173.54C486.12 174.69 484.34 177.05 485.87 180.74Z" /><path class="shp1" d="M444.49 280.63C440.82 282.21 440.39 285.09 441.53 287.86C443.07 291.56 455.44 307.05 455.44 307.05C455.44 307.05 453.23 287.35 451.7 283.65C450.55 280.88 448.19 279.1 444.49 280.63Z" /><path class="shp1" d="M344.61 239.26C343.03 235.58 340.14 235.15 337.37 236.3C333.68 237.83 318.18 250.2 318.18 250.2C318.18 250.2 337.89 247.99 341.58 246.46C344.35 245.31 346.14 242.95 344.61 239.26Z" /><path class="shp1" d="M385.98 139.37C389.66 137.79 390.09 134.91 388.94 132.14C387.41 128.44 375.04 112.95 375.04 112.95C375.04 112.95 377.24 132.65 378.77 136.35C379.92 139.12 382.28 140.9 385.98 139.37Z" /></g></g><g ><g ><path class="shp1" d="M430.15 135.02C434.08 135.75 436.04 133.59 436.63 130.65C437.41 126.73 435.73 106.97 435.73 106.97C435.73 106.97 426.62 124.58 425.84 128.5C425.25 131.44 426.23 134.24 430.15 135.02Z" /><path class="shp1" d="M490.22 224.91C489.49 228.85 491.65 230.81 494.59 231.39C498.51 232.17 518.27 230.49 518.27 230.49C518.27 230.49 500.66 221.38 496.73 220.6C493.79 220.02 491 220.99 490.22 224.91Z" /><path class="shp1" d="M400.32 284.98C396.39 284.25 394.43 286.41 393.84 289.35C393.06 293.27 394.74 313.03 394.74 313.03C394.74 313.03 403.85 295.42 404.63 291.5C405.22 288.56 404.24 285.76 400.32 284.98Z" /><path class="shp1" d="M340.25 195.09C340.99 191.15 338.83 189.19 335.88 188.61C331.96 187.83 312.2 189.51 312.2 189.51C312.2 189.51 329.82 198.62 333.74 199.4C336.68 199.98 339.47 199.01 340.25 195.09Z" /></g><g ><path class="shp1" d="M457.71 146.43C461.06 148.61 463.7 147.37 465.37 144.88C467.59 141.55 473.6 122.65 473.6 122.65C473.6 122.65 458.44 135.44 456.22 138.76C454.55 141.26 454.38 144.21 457.71 146.43Z" /><path class="shp1" d="M478.8 252.47C476.62 255.83 477.87 258.46 480.36 260.13C483.69 262.35 502.58 268.36 502.58 268.36C502.58 268.36 489.8 253.21 486.47 250.98C483.98 249.32 481.02 249.15 478.8 252.47Z" /><path class="shp1" d="M372.76 273.57C369.41 271.39 366.77 272.63 365.11 275.12C362.88 278.45 356.87 297.35 356.87 297.35C356.87 297.35 372.03 284.56 374.25 281.24C375.92 278.74 376.09 275.79 372.76 273.57Z" /><path class="shp1" d="M351.67 167.53C353.85 164.17 352.61 161.54 350.11 159.87C346.79 157.65 327.89 151.64 327.89 151.64C327.89 151.64 340.67 166.79 344 169.02C346.49 170.68 349.45 170.85 351.67 167.53Z" /></g><g ><path class="shp1" d="M478.8 167.53C481.07 170.82 483.98 170.68 486.47 169.02C489.8 166.79 502.58 151.64 502.58 151.64C502.58 151.64 483.69 157.65 480.36 159.87C477.87 161.54 476.58 164.2 478.8 167.53Z" /><path class="shp1" d="M457.71 273.57C454.41 275.83 454.55 278.74 456.22 281.24C458.44 284.56 473.6 297.35 473.6 297.35C473.6 297.35 467.59 278.45 465.37 275.12C463.7 272.63 461.04 271.34 457.71 273.57Z" /><path class="shp1" d="M351.67 252.47C349.41 249.18 346.49 249.32 344 250.98C340.67 253.21 327.89 268.36 327.89 268.36C327.89 268.36 346.79 262.35 350.11 260.13C352.61 258.46 353.89 255.8 351.67 252.47Z" /><path class="shp1" d="M372.76 146.43C376.06 144.17 375.92 141.26 374.25 138.76C372.03 135.44 356.87 122.65 356.87 122.65C356.87 122.65 362.88 141.55 365.11 144.88C366.77 147.37 369.44 148.66 372.76 146.43Z" /></g><g ><path class="shp1" d="M490.22 195.09C491.05 199 493.79 199.98 496.73 199.4C500.66 198.62 518.27 189.51 518.27 189.51C518.27 189.51 498.51 187.83 494.59 188.61C491.65 189.19 489.44 191.16 490.22 195.09Z" /><path class="shp1" d="M430.15 284.98C426.24 285.81 425.25 288.56 425.84 291.5C426.62 295.42 435.73 313.03 435.73 313.03C435.73 313.03 437.41 293.27 436.63 289.35C436.04 286.41 434.07 284.2 430.15 284.98Z" /><path class="shp1" d="M340.25 224.91C339.43 221 336.68 220.02 333.74 220.6C329.82 221.38 312.2 230.49 312.2 230.49C312.2 230.49 331.96 232.17 335.88 231.39C338.83 230.81 341.04 228.84 340.25 224.91Z" /><path class="shp1" d="M400.32 135.02C404.23 134.19 405.22 131.44 404.63 128.5C403.85 124.58 394.74 106.97 394.74 106.97C394.74 106.97 393.06 126.73 393.84 130.65C394.43 133.59 396.4 135.8 400.32 135.02Z" /></g></g></g><g ><path class="shp1" d="M403.23 355.73C401.43 355.83 399.68 356.07 397.97 356.62C395.62 356.93 393.37 357.75 391.03 358.13L390.1 358.28L388.53 358.43C388.63 358.87 388.7 359.3 388.7 359.73C388.7 360.18 388.65 360.62 388.53 360.98C388.43 361.33 388.12 361.77 387.87 362.03C387.53 362.4 387.18 362.72 386.77 362.92C386.37 363.12 385.92 363.2 385.47 363.23C385.02 363.25 384.55 363.23 384.12 363.07C383.67 362.92 383.25 362.63 382.87 362.3C382.4 362.42 381.92 362.5 381.47 362.55C381 362.6 380.57 362.6 380.15 362.55C379.68 362.42 379.2 362.27 378.75 362.08C378.64 362.04 378.52 361.99 378.41 361.94C378.3 361.88 378.19 361.83 378.08 361.77C377.98 361.71 377.87 361.65 377.76 361.59C377.66 361.53 377.55 361.47 377.45 361.4C375.75 362.4 373.85 363.35 372.82 365.1C372.23 365.9 372.12 366.82 371.98 367.77C371.9 368.93 372.2 370.17 372.7 371.25C372.88 371.57 373.03 370.1 373.6 369.9C374.55 369.12 375.73 368.55 376.93 368.23C377.95 367.72 377.82 368.27 377.4 369.07C377.3 369.48 376.73 371.07 377.5 370.27C380.88 368.77 384.63 368.47 388.28 368.18C393.58 367.63 398.9 367.52 404.22 367.45C409.22 367.52 414.22 367.58 419.22 367.77C421.6 367.83 424 368.37 426.35 367.97C426.92 367.82 427.8 367.78 428.13 367.45C427.07 366.83 425.82 366.82 424.63 366.67L415.1 366.67C412.45 366.4 409.68 366.37 407.18 365.37C406.52 365.1 405.9 364.47 405.27 365.15C404.32 365.48 403.3 365.72 402.3 365.78C400.55 365.92 398.8 365.55 397.18 364.9C398.35 363.28 399.75 361.87 401.03 360.37C400 360.2 399 359.98 397.97 359.73C399.78 358.48 401.47 357.07 403.23 355.73L403.23 355.73Z" /><path fill-rule="evenodd" class="shp1" d="M481.1 373.01C483.27 371.42 482.91 368.29 483.42 365.91C482.68 361.39 486.47 367.61 488.99 367.2C494.28 369.02 500.85 364.87 499.93 358.95C487.78 358.51 475.74 355.94 463.55 356.47C460.83 356.75 458.05 356.31 458.37 359.52C457.85 362.06 452.49 361.21 453.98 363.39C455.66 366.14 450.93 367.82 448.98 369.01C436.91 373.54 423.72 370.7 411.17 372.24C403.88 372.86 395.21 375.65 393.14 383.58C398.46 385 402.93 380.47 407.16 377.94C408.43 378.62 406.36 383.26 408.36 384.87C412.48 384.55 415.13 380.07 417.51 377C419.53 379.3 416.57 382.8 418.42 384.87C423.16 385.32 425.14 379.74 428.54 377.49C430.81 377.11 427.59 382.51 429.38 383.97C432.64 385.35 436.02 383.03 437.07 379.86C438.6 375.39 440.01 378.7 440.6 381.52C442.5 384.71 446.18 381.7 447.56 379.59C449.25 375.27 450.9 379.07 453.11 380.87C457.79 381.61 459.25 376.09 462.14 373.65C461.92 376.36 464.88 379.88 467.3 377.13C469.32 375.27 469.52 371.34 471.68 370.17C474.71 371.32 477.48 375.18 481.1 373M377.4 360.88C380.22 363.46 382.2 360.4 384.84 359.27C393.68 356.23 401.4 350.91 409.01 345.6C413.62 341.79 417.62 336.84 423.81 335.6C435.89 331.95 448.73 332.39 460.85 329.02C470.08 316.38 485.76 311.87 498.9 304.61C501.85 303.69 502.99 301.26 503.93 298.58C508.94 290.67 515.77 283.66 523.85 278.86C527.67 276.78 532.23 275.57 536.56 276.53C536.25 281.68 533.29 286.25 529.72 289.81C532.64 289.75 535.16 287.9 538.11 288.01C539.12 293.3 533.41 296.07 530.37 299.36C532.06 299.75 538.54 300.24 535.01 301.94C530.51 305.06 525.37 307.21 521.21 310.84C525.05 311.53 525.48 312.34 521.58 313.73C519.47 315.16 515.41 315.66 515.02 318.45C517.92 320.23 513.69 322 512.05 322.57C508.93 323.3 505.65 324.66 509.8 327.03C508.23 329.4 504.87 329.9 502.12 329.67C502.95 332.35 504.16 335.36 500.68 336.54C492.86 342.45 483.7 346.74 473.88 347.73C486.14 348.67 498.78 346.39 509.26 339.72C510.65 338.08 517.9 336.32 513.84 334.95C511.93 334.15 507.84 333.27 507.56 331.81C513.24 328.31 520.39 329.56 526.5 327.48C526.66 325.5 521.85 326.05 520.06 325.6C515.79 325.25 516.04 324.16 520.16 323.75C525.37 322.37 531.27 322.1 535.66 318.7C532.09 317.05 527.6 318.51 523.79 317.16C530.25 314.33 537.86 314.05 543.65 309.8C546.29 306.87 540.27 307.79 538.52 307.86C534.94 308.48 533.29 306.77 537.35 305.28C544.29 300.17 553.07 296.85 557.94 289.44C559.1 287.78 560.66 282.78 556.98 284.57C552.14 286.18 547.88 291.62 542.36 289.94C553.23 281.52 563.57 271.93 571 260.28C571.38 256.92 566.1 256.55 564.73 259.19C557.75 265.92 551.43 273.86 542.49 278.08C551.05 269.81 558.13 260.03 564.31 249.89C565.63 246.87 569.19 243.25 567.26 239.9C564.14 237.32 560.25 239.68 558.63 242.76C553.21 249.85 549.08 258.12 542.11 263.89C548.22 252.23 554.54 239.81 554.7 226.37C554.68 223.6 554.12 219.52 550.36 220.04C547.38 220.57 548.09 225.03 546.86 227.29C544.15 236.48 542.88 246.43 537.33 254.47C538.58 247.01 540.77 239.22 539.09 231.68C538.31 228.31 532.86 229.76 533.57 233.1C527.06 266.03 504.97 294.83 476.07 311.49C462.84 318.97 448.06 323.8 433.02 325.99C428.98 326.87 424.6 326.35 420.74 327.73C411.37 334.92 405.7 346.94 393.84 350.7C388.52 353.34 381.59 353.88 377.79 358.82C377.46 359.45 377.39 360.18 377.4 360.88L377.4 360.88Z" /><path class="shp1" d="M412.9 327.48C411.15 330.65 410.12 334.3 407.87 337.15C401.1 330.99 391.28 331.19 382.7 330.78C375.61 330.4 367.9 329.75 362.42 324.69C356.65 319.97 351.94 313.83 345.49 310C339.6 308.4 333.67 306.39 328.94 302.36C318.83 294.12 313.04 281.89 303.16 273.39C301.28 271.54 299.06 270.1 296.95 268.53C294.94 269.02 295.85 273.35 293.4 271.14C292.06 270.19 288.72 270.1 288.42 271.43C291.44 275.41 294.47 279.95 294.88 285.04C292.82 285.25 289.16 284.61 288.14 285.37C290.88 289.47 294.38 293.11 298.37 296C296.46 296.31 292.69 296.14 291.96 296.91C295.91 300.14 300.15 303.43 305.33 304.26C306.39 305.66 303.78 308.35 305.98 309.55C307.25 310.07 311.45 310.94 308.56 312.39C306.57 313.72 307.31 316.84 309.85 316.77C311.45 317.59 315.05 317.79 315.34 319.21C313.91 320.66 309.49 322.37 313.25 323.73C316.77 325.68 320.79 326.95 324.81 327.09C322.79 328.79 320.31 329.75 318.23 331.35C327.5 336.78 337.79 340.36 347.95 343.8C351.99 345.16 356.08 346.42 360.28 347.21C348.09 346.51 336.32 342.9 325.22 337.96C319.47 335.44 313.68 333 307.78 330.83C310.37 329.48 313.36 329.16 316.04 327.99C310.47 326.88 304.39 326.51 299.5 323.45C300.25 322.12 303.09 322.05 304.67 321.37C307.62 320.66 309.45 319.8 305.29 319.55C301.09 318.41 296.27 318.92 292.56 316.38C292.8 314.86 296.68 315.39 298.25 314.74C300.24 314.4 302.45 314.11 304.04 312.77C297.54 310.08 289.05 311.99 283.96 306.25C282.78 304.06 287.6 305.82 288.97 305.46C292.46 305.46 296.21 306.57 299.53 305.16C290.06 301.01 279.92 297.12 272.7 289.43C271.9 288.19 269.5 284.81 271.43 284.4C277.05 285.14 281.12 291.27 287.13 290.32C287.93 289.24 283.64 287.48 282.57 285.94C273.81 278.42 265.3 270.26 259.16 260.41C258.73 257.12 263.9 256.62 265.27 259.17C271.97 265.62 278.02 273.15 286.37 277.56C289.33 279 284.67 275.86 284.05 274.72C276.34 265.77 268.99 256.31 263.6 245.76C262.64 243.86 261.04 240.41 263.93 239.4C266.81 237.96 269.68 239.93 271.14 242.41C276.81 249.56 280.98 258.06 288.05 264.02C282.03 252.34 275.6 240.04 275.45 226.6C275.59 224 275.76 220.06 279.29 220.17C282.26 219.72 281.79 223.51 282.76 225.32C285.68 235.2 286.96 245.88 292.82 254.6C291.53 247.28 289.62 239.73 290.89 232.29C291.18 229.84 293.93 229.1 295.73 230.58C297.18 234.14 297.48 238.53 298.81 242.33C306.33 268.09 323.24 290.74 345.28 305.95C363.42 318.39 384.96 325.82 406.94 327.12C408.92 327.29 410.91 327.35 412.9 327.47" /><path class="shp1" d="M385 361.63C384.35 361.63 383.82 361.1 383.82 360.44C383.82 359.79 384.35 359.26 385 359.26C385.65 359.26 386.18 359.79 386.18 360.44C386.18 361.1 385.65 361.63 385 361.63Z" /><path class="shp2" d="M384.9 360.74C384.63 360.74 384.42 360.52 384.42 360.25C384.42 359.99 384.63 359.77 384.9 359.77C385.17 359.77 385.38 359.99 385.38 360.25C385.38 360.52 385.17 360.74 384.9 360.74Z" /></g><g ><g ><g ><path class="shp1" d="M60 36.46C60 36.46 55.19 32.42 53.56 34.45C50.94 37.71 61.63 53.93 61.63 59.65C61.63 69.03 55.37 71.58 47.65 72.92C42.46 73.81 34.02 72.54 34.02 72.54C35.61 70.4 36.64 69.77 39.32 69.6C36.34 68.05 33.3 64.69 33.3 59.46C33.3 51.39 36.62 48.07 36.62 38.97C36.62 33.92 32.48 27.5 32.48 27.5C39.8 28.23 43.42 35 41.36 40.42C42.53 40.58 43.58 40.32 44.49 39.46C45.03 40.96 44.18 42.7 43.05 44.2C43.96 44.69 44.63 44.4 46.08 44.1C45.94 45.64 45.02 47.29 42.75 48.83C49.33 47.13 53.37 51.71 53.37 56.51C53.37 60.13 50.83 62.73 48.35 62.73C47.55 62.73 46.37 62.4 45.71 61.9C45.24 62.9 45.48 64.23 45.96 65.23C44.14 64.75 42.99 63.67 43.81 61.42C42.41 61.29 41.3 60.82 40.54 59.92C41.31 58.94 42.47 58.37 43.81 58.42C42.79 56.32 43.93 55.14 45.58 54.19C45.58 54.19 44.53 58.42 47.21 58.42C48.42 58.42 49.52 58.03 49.52 56.25C49.52 54.7 48.16 52.55 45.03 52.69C41.9 52.83 39.37 54.85 39.37 59.84C39.37 64.45 43.08 66.74 47.98 66.89C52.4 67.03 55.73 64.64 55.73 60.08C55.73 54.02 46.98 40.19 46.98 34.79C46.98 30.73 50.62 28.47 54.19 28.47C58.82 28.47 62.72 33.05 62.72 33.05L60 36.46L60 36.46Z" /><path class="shp1" d="M61.01 146.07C61.01 156.2 51.91 161.41 44.76 161.41C35.13 161.41 30 155.65 30 148.11C30 143.84 30.78 141.16 32.75 137.07C32.75 137.07 48.64 104.02 54.83 91.24C55.6 89.65 55.85 87.83 55.85 85.17C55.85 81.06 51.86 77.71 47.69 77.6C43.88 77.51 39.73 81.15 39.73 85.31C39.73 90.36 42.34 92.61 45.03 92.61C48.34 92.61 49.66 91.25 49.66 88.92C49.66 87.31 48.88 86.61 47.75 86.61C44.92 86.61 45.71 90.42 45.71 90.42C44.3 90.12 43.15 88.68 43.81 86.88C43.54 86.82 43.28 86.74 43.03 86.64C42.78 86.54 42.53 86.42 42.3 86.28C42.07 86.14 41.84 85.99 41.64 85.81C41.43 85.64 41.23 85.45 41.05 85.24C41.81 84.5 42.69 83.93 43.81 83.74C43.14 81.55 44.03 80.48 45.95 80.02C45.56 80.87 45.55 81.64 45.68 82.38C48.7 81.52 53.33 82.89 53.33 88.11C53.33 93.29 49.74 97.65 42.99 96.56C44.6 97.33 45.41 98.9 45.58 100.65C44.35 100.18 42.99 100.11 42.99 100.11C43.78 101.5 44.88 102.7 44.83 105.43C43.58 104.86 42.42 103.81 40.81 104.47C43.33 109.42 40.24 116.23 32.38 117.84C35.26 114.47 36.66 110.82 36.66 107.2C36.66 95.45 33.4 93.48 33.4 85.31C33.4 81.89 35.16 78.2 38.64 75.69L38.64 75.83C36.34 75.21 34.86 74.08 34.02 72.54C39.27 71.05 46.92 71.08 51.02 72.69C55.74 73.24 59.03 76.86 60 78.69C60.97 80.53 62.85 87.17 60 93.15C56.87 99.69 42.14 130.93 37.55 140.75C36.58 142.83 35.98 145.04 35.98 147.43C35.98 153.45 41.49 155.55 44.62 155.55C48.37 155.55 52.18 152.7 52.18 149.14C52.18 146.88 50.95 145.52 49.18 145.52C44.95 145.52 45.21 149.12 46.05 151.39C43.42 150.2 41.89 148.09 42.31 145.86C40.82 145.66 39.4 144.95 38.09 143.48C39.12 142.18 40.38 141.19 42.31 141.16C41.47 137.7 43.78 136.24 46.05 135.43C45.33 137.97 44.86 140.89 49.18 140.89C52.33 140.89 54.81 141.43 56.26 143.48C56.34 140.75 56.6 129.98 56.6 129.98C56.78 125.93 51.18 126.04 47.62 127.25C48.96 122.58 51.72 120.06 58.09 120.7C56.55 120.05 54.9 118.6 54.9 115.79C54.9 111.99 57.98 107.79 60 106.54L61.01 146.07L61.01 146.07Z" /><path class="shp1" d="M61.01 176.47C61.01 166.34 51.91 161.13 44.76 161.13C35.13 161.13 30 166.89 30 174.43C30 178.7 30.78 181.38 32.75 185.47C32.75 185.47 48.64 218.52 54.83 231.3C55.6 232.89 55.85 234.71 55.85 237.37C55.85 241.48 51.86 244.83 47.69 244.94C43.88 245.03 39.73 241.39 39.73 237.23C39.73 232.18 42.34 229.93 45.03 229.93C48.34 229.93 49.66 231.29 49.66 233.62C49.66 235.23 48.88 235.93 47.75 235.93C44.92 235.93 45.71 232.12 45.71 232.12C44.3 232.42 43.15 233.86 43.81 235.66C43.54 235.72 43.28 235.8 43.03 235.9C42.78 236 42.53 236.12 42.3 236.26C42.07 236.4 41.84 236.55 41.64 236.73C41.43 236.9 41.23 237.09 41.05 237.3C41.81 238.04 42.69 238.61 43.81 238.8C43.14 240.99 44.03 242.06 45.95 242.52C45.56 241.67 45.55 240.9 45.68 240.16C48.7 241.02 53.33 239.65 53.33 234.43C53.33 229.25 49.74 224.89 42.99 225.98C44.6 225.21 45.41 223.64 45.58 221.89C44.35 222.36 42.99 222.43 42.99 222.43C43.78 221.04 44.88 219.84 44.83 217.11C43.58 217.68 42.42 218.73 40.81 218.07C43.33 213.12 40.24 206.31 32.38 204.7C35.26 208.07 36.66 211.72 36.66 215.34C36.66 227.09 33.4 229.06 33.4 237.23C33.4 240.65 35.16 244.34 38.64 246.85L38.64 246.71C36.34 247.33 34.86 248.46 34.02 250C39.27 251.49 46.92 251.46 51.02 249.85C55.74 249.3 59.03 245.68 60 243.85C60.97 242.01 62.85 235.37 60 229.39C56.87 222.85 42.14 191.61 37.55 181.79C36.58 179.71 35.98 177.5 35.98 175.11C35.98 169.09 41.49 166.99 44.62 166.99C48.37 166.99 52.18 169.84 52.18 173.4C52.18 175.66 50.95 177.02 49.18 177.02C44.95 177.02 45.21 173.42 46.05 171.15C43.42 172.34 41.89 174.45 42.31 176.68C40.82 176.88 39.4 177.59 38.09 179.06C39.12 180.36 40.38 181.35 42.31 181.38C41.47 184.84 43.78 186.3 46.05 187.11C45.33 184.57 44.86 181.65 49.18 181.65C52.33 181.65 54.81 181.11 56.26 179.06C56.34 181.79 56.6 192.56 56.6 192.56C56.78 196.61 51.18 196.5 47.62 195.29C48.96 199.96 51.72 202.48 58.09 201.84C56.55 202.49 54.9 203.94 54.9 206.75C54.9 210.55 57.98 214.75 60 216L61.01 176.47L61.01 176.47Z" /></g><g ><path class="shp1" d="M60 36.46C60 36.46 64.81 32.42 66.44 34.45C69.06 37.71 58.37 53.93 58.37 59.65C58.37 69.03 64.63 71.58 72.35 72.92C77.54 73.81 85.98 72.54 85.98 72.54C84.39 70.4 83.36 69.77 80.68 69.6C83.66 68.05 86.7 64.69 86.7 59.46C86.7 51.39 83.38 48.07 83.38 38.97C83.38 33.92 87.52 27.5 87.52 27.5C80.2 28.23 76.58 35 78.64 40.42C77.47 40.58 76.42 40.32 75.51 39.46C74.97 40.96 75.82 42.7 76.95 44.2C76.04 44.69 75.37 44.4 73.92 44.1C74.06 45.64 74.98 47.29 77.25 48.83C70.67 47.13 66.63 51.71 66.63 56.51C66.63 60.13 69.17 62.73 71.65 62.73C72.45 62.73 73.63 62.4 74.29 61.9C74.76 62.9 74.52 64.23 74.04 65.23C75.86 64.75 77.01 63.67 76.19 61.42C77.59 61.29 78.7 60.82 79.46 59.92C78.69 58.94 77.53 58.37 76.19 58.42C77.21 56.32 76.07 55.14 74.42 54.19C74.42 54.19 75.47 58.42 72.79 58.42C71.58 58.42 70.48 58.03 70.48 56.25C70.48 54.7 71.84 52.55 74.97 52.69C78.1 52.83 80.63 54.85 80.63 59.84C80.63 64.45 76.92 66.74 72.02 66.89C67.6 67.03 64.27 64.64 64.27 60.08C64.27 54.02 73.02 40.19 73.02 34.79C73.02 30.73 69.38 28.47 65.81 28.47C61.18 28.47 57.28 33.05 57.28 33.05L60 36.46L60 36.46Z" /><path class="shp1" d="M58.99 146.07C58.99 156.2 68.09 161.41 75.24 161.41C84.87 161.41 90 155.65 90 148.11C90 143.84 89.22 141.16 87.25 137.07C87.25 137.07 71.36 104.02 65.17 91.24C64.4 89.65 64.15 87.83 64.15 85.17C64.15 81.06 68.14 77.71 72.31 77.6C76.12 77.51 80.27 81.15 80.27 85.31C80.27 90.36 77.66 92.61 74.97 92.61C71.66 92.61 70.34 91.25 70.34 88.92C70.34 87.31 71.12 86.61 72.25 86.61C75.08 86.61 74.29 90.42 74.29 90.42C75.7 90.12 76.85 88.68 76.19 86.88C76.46 86.82 76.72 86.74 76.97 86.64C77.22 86.54 77.47 86.42 77.7 86.28C77.93 86.14 78.16 85.99 78.36 85.81C78.57 85.64 78.77 85.45 78.95 85.24C78.19 84.5 77.31 83.93 76.19 83.74C76.86 81.55 75.97 80.48 74.05 80.02C74.44 80.87 74.45 81.64 74.32 82.38C71.3 81.52 66.67 82.89 66.67 88.11C66.67 93.29 70.26 97.65 77.01 96.56C75.4 97.33 74.59 98.9 74.42 100.65C75.65 100.18 77.01 100.11 77.01 100.11C76.22 101.5 75.12 102.7 75.17 105.43C76.42 104.86 77.58 103.81 79.19 104.47C76.67 109.42 79.76 116.23 87.62 117.84C84.74 114.47 83.34 110.82 83.34 107.2C83.34 95.45 86.6 93.48 86.6 85.31C86.6 81.89 84.84 78.2 81.36 75.69L81.36 75.83C83.66 75.21 85.14 74.08 85.98 72.54C80.73 71.05 73.08 71.08 68.98 72.69C64.26 73.24 60.97 76.86 60 78.69C59.03 80.53 57.15 87.17 60 93.15C63.13 99.69 77.86 130.93 82.45 140.75C83.42 142.83 84.02 145.04 84.02 147.43C84.02 153.45 78.51 155.55 75.38 155.55C71.63 155.55 67.82 152.7 67.82 149.14C67.82 146.88 69.05 145.52 70.82 145.52C75.05 145.52 74.79 149.12 73.95 151.39C76.58 150.2 78.11 148.09 77.69 145.86C79.18 145.66 80.6 144.95 81.91 143.48C80.88 142.18 79.62 141.19 77.69 141.16C78.53 137.7 76.22 136.24 73.95 135.43C74.67 137.97 75.14 140.89 70.82 140.89C67.67 140.89 65.19 141.43 63.74 143.48C63.66 140.75 63.4 129.98 63.4 129.98C63.22 125.93 68.82 126.04 72.38 127.25C71.04 122.58 68.28 120.06 61.91 120.7C63.45 120.05 65.1 118.6 65.1 115.79C65.1 111.99 62.02 107.79 60 106.54L58.99 146.07L58.99 146.07Z" /><path class="shp1" d="M58.99 176.47C58.99 166.34 68.09 161.13 75.24 161.13C84.87 161.13 90 166.89 90 174.43C90 178.7 89.22 181.38 87.25 185.47C87.25 185.47 71.36 218.52 65.17 231.3C64.4 232.89 64.15 234.71 64.15 237.37C64.15 241.48 68.14 244.83 72.31 244.94C76.12 245.03 80.27 241.39 80.27 237.23C80.27 232.18 77.66 229.93 74.97 229.93C71.66 229.93 70.34 231.29 70.34 233.62C70.34 235.23 71.12 235.93 72.25 235.93C75.08 235.93 74.29 232.12 74.29 232.12C75.7 232.42 76.85 233.86 76.19 235.66C76.46 235.72 76.72 235.8 76.97 235.9C77.22 236 77.47 236.12 77.7 236.26C77.93 236.4 78.16 236.55 78.36 236.73C78.57 236.9 78.77 237.09 78.95 237.3C78.19 238.04 77.31 238.61 76.19 238.8C76.86 240.99 75.97 242.06 74.05 242.52C74.44 241.67 74.45 240.9 74.32 240.16C71.3 241.02 66.67 239.65 66.67 234.43C66.67 229.25 70.26 224.89 77.01 225.98C75.4 225.21 74.59 223.64 74.42 221.89C75.65 222.36 77.01 222.43 77.01 222.43C76.22 221.04 75.12 219.84 75.17 217.11C76.42 217.68 77.58 218.73 79.19 218.07C76.67 213.12 79.76 206.31 87.62 204.7C84.74 208.07 83.34 211.72 83.34 215.34C83.34 227.09 86.6 229.06 86.6 237.23C86.6 240.65 84.84 244.34 81.36 246.85L81.36 246.71C83.66 247.33 85.14 248.46 85.98 250C80.73 251.49 73.08 251.46 68.98 249.85C64.26 249.3 60.97 245.68 60 243.85C59.03 242.01 57.15 235.37 60 229.39C63.13 222.85 77.86 191.61 82.45 181.79C83.42 179.71 84.02 177.5 84.02 175.11C84.02 169.09 78.51 166.99 75.38 166.99C71.63 166.99 67.82 169.84 67.82 173.4C67.82 175.66 69.05 177.02 70.82 177.02C75.05 177.02 74.79 173.42 73.95 171.15C76.58 172.34 78.11 174.45 77.69 176.68C79.18 176.88 80.6 177.59 81.91 179.06C80.88 180.36 79.62 181.35 77.69 181.38C78.53 184.84 76.22 186.3 73.95 187.11C74.67 184.57 75.14 181.65 70.82 181.65C67.67 181.65 65.19 181.11 63.74 179.06C63.66 181.79 63.4 192.56 63.4 192.56C63.22 196.61 68.82 196.5 72.38 195.29C71.04 199.96 68.28 202.48 61.91 201.84C63.45 202.49 65.1 203.94 65.1 206.75C65.1 210.55 62.02 214.75 60 216L58.99 176.47L58.99 176.47Z" /></g></g><g ><g ><path class="shp1" d="M60 463.54C60 463.54 55.19 467.58 53.56 465.55C50.94 462.29 61.63 446.07 61.63 440.35C61.63 430.97 55.37 428.42 47.65 427.08C42.46 426.19 34.02 427.46 34.02 427.46C35.61 429.6 36.64 430.23 39.32 430.4C36.34 431.94 33.3 435.31 33.3 440.54C33.3 448.61 36.62 451.93 36.62 461.03C36.62 466.08 32.48 472.5 32.48 472.5C39.8 471.77 43.42 465 41.36 459.58C42.53 459.42 43.58 459.68 44.49 460.54C45.03 459.04 44.18 457.3 43.05 455.8C43.96 455.31 44.63 455.6 46.08 455.9C45.94 454.36 45.02 452.71 42.75 451.17C49.33 452.88 53.37 448.29 53.37 443.49C53.37 439.87 50.83 437.27 48.35 437.27C47.55 437.27 46.37 437.6 45.71 438.1C45.24 437.1 45.48 435.77 45.96 434.77C44.14 435.25 42.99 436.33 43.81 438.58C42.41 438.71 41.3 439.18 40.54 440.08C41.31 441.06 42.47 441.63 43.81 441.58C42.79 443.68 43.93 444.86 45.58 445.81C45.58 445.81 44.53 441.58 47.21 441.58C48.42 441.58 49.52 441.97 49.52 443.75C49.52 445.3 48.16 447.45 45.03 447.31C41.9 447.17 39.37 445.15 39.37 440.16C39.37 435.55 43.08 433.26 47.98 433.11C52.4 432.97 55.73 435.36 55.73 439.92C55.73 445.98 46.98 459.81 46.98 465.21C46.98 469.27 50.62 471.53 54.19 471.53C58.82 471.53 62.72 466.95 62.72 466.95L60 463.54L60 463.54Z" /><path class="shp1" d="M61.01 353.93C61.01 343.8 51.91 338.59 44.76 338.59C35.13 338.59 30 344.35 30 351.88C30 356.16 30.78 358.84 32.75 362.93C32.75 362.93 48.64 395.98 54.83 408.76C55.6 410.35 55.85 412.17 55.85 414.83C55.85 418.94 51.86 422.29 47.69 422.4C43.88 422.49 39.73 418.85 39.73 414.69C39.73 409.64 42.34 407.39 45.03 407.39C48.34 407.39 49.66 408.75 49.66 411.08C49.66 412.69 48.88 413.39 47.75 413.39C44.92 413.39 45.71 409.58 45.71 409.58C44.3 409.88 43.15 411.32 43.81 413.12C43.54 413.18 43.28 413.26 43.03 413.36C42.78 413.46 42.53 413.58 42.3 413.72C42.07 413.86 41.84 414.01 41.64 414.19C41.43 414.36 41.23 414.55 41.05 414.76C41.81 415.5 42.69 416.07 43.81 416.26C43.14 418.45 44.03 419.52 45.95 419.98C45.56 419.13 45.55 418.36 45.68 417.62C48.7 418.48 53.33 417.11 53.33 411.89C53.33 406.71 49.74 402.35 42.99 403.44C44.6 402.67 45.41 401.1 45.58 399.35C44.35 399.82 42.99 399.89 42.99 399.89C43.78 398.5 44.88 397.3 44.83 394.57C43.58 395.14 42.42 396.19 40.81 395.53C43.33 390.58 40.24 383.77 32.38 382.16C35.26 385.53 36.66 389.18 36.66 392.8C36.66 404.55 33.4 406.52 33.4 414.69C33.4 418.11 35.16 421.8 38.64 424.31L38.64 424.17C36.34 424.79 34.86 425.92 34.02 427.46C39.27 428.95 46.92 428.92 51.02 427.31C55.74 426.76 59.03 423.14 60 421.31C60.97 419.47 62.85 412.83 60 406.85C56.87 400.31 42.14 369.07 37.55 359.25C36.58 357.17 35.98 354.96 35.98 352.57C35.98 346.55 41.49 344.45 44.62 344.45C48.37 344.45 52.18 347.3 52.18 350.86C52.18 353.12 50.95 354.48 49.18 354.48C44.95 354.48 45.21 350.88 46.05 348.61C43.42 349.8 41.89 351.91 42.31 354.14C40.82 354.34 39.4 355.05 38.09 356.52C39.12 357.82 40.38 358.81 42.31 358.84C41.47 362.3 43.78 363.76 46.05 364.57C45.33 362.03 44.86 359.11 49.18 359.11C52.33 359.11 54.81 358.57 56.26 356.52C56.34 359.25 56.6 370.02 56.6 370.02C56.78 374.07 51.18 373.96 47.62 372.75C48.96 377.42 51.72 379.94 58.09 379.3C56.55 379.95 54.9 381.4 54.9 384.21C54.9 388.01 57.98 392.21 60 393.46L61.01 353.93L61.01 353.93Z" /><path class="shp1" d="M61.01 323.53C61.01 333.66 51.91 338.87 44.76 338.87C35.13 338.87 30 333.11 30 325.57C30 321.3 30.78 318.62 32.75 314.53C32.75 314.53 48.64 281.48 54.83 268.7C55.6 267.11 55.85 265.29 55.85 262.63C55.85 258.52 51.86 255.17 47.69 255.06C43.88 254.97 39.73 258.61 39.73 262.77C39.73 267.82 42.34 270.07 45.03 270.07C48.34 270.07 49.66 268.71 49.66 266.38C49.66 264.77 48.88 264.07 47.75 264.07C44.92 264.07 45.71 267.88 45.71 267.88C44.3 267.58 43.15 266.14 43.81 264.34C43.54 264.28 43.28 264.2 43.03 264.1C42.78 264 42.53 263.88 42.3 263.74C42.07 263.6 41.84 263.45 41.64 263.27C41.43 263.1 41.23 262.91 41.05 262.7C41.81 261.96 42.69 261.39 43.81 261.2C43.14 259.01 44.03 257.94 45.95 257.48C45.56 258.33 45.55 259.1 45.68 259.84C48.7 258.98 53.33 260.35 53.33 265.57C53.33 270.75 49.74 275.11 42.99 274.02C44.6 274.79 45.41 276.36 45.58 278.11C44.35 277.64 42.99 277.57 42.99 277.57C43.78 278.96 44.88 280.16 44.83 282.89C43.58 282.32 42.42 281.27 40.81 281.93C43.33 286.88 40.24 293.69 32.38 295.3C35.26 291.93 36.66 288.28 36.66 284.66C36.66 272.91 33.4 270.94 33.4 262.77C33.4 259.35 35.16 255.66 38.64 253.15L38.64 253.29C36.34 252.67 34.86 251.54 34.02 250C39.27 248.51 46.92 248.54 51.02 250.15C55.74 250.7 59.03 254.32 60 256.15C60.97 257.99 62.85 264.63 60 270.61C56.87 277.15 42.14 308.39 37.55 318.21C36.58 320.29 35.98 322.5 35.98 324.89C35.98 330.91 41.49 333.01 44.62 333.01C48.37 333.01 52.18 330.16 52.18 326.6C52.18 324.34 50.95 322.98 49.18 322.98C44.95 322.98 45.21 326.58 46.05 328.85C43.42 327.66 41.89 325.55 42.31 323.32C40.82 323.12 39.4 322.41 38.09 320.94C39.12 319.64 40.38 318.65 42.31 318.62C41.47 315.16 43.78 313.7 46.05 312.89C45.33 315.43 44.86 318.35 49.18 318.35C52.33 318.35 54.81 318.89 56.26 320.94C56.34 318.21 56.6 307.44 56.6 307.44C56.78 303.39 51.18 303.5 47.62 304.71C48.96 300.04 51.72 297.52 58.09 298.16C56.55 297.51 54.9 296.06 54.9 293.25C54.9 289.45 57.98 285.25 60 284L61.01 323.53L61.01 323.53Z" /></g><g ><path class="shp1" d="M60 463.54C60 463.54 64.81 467.58 66.44 465.55C69.06 462.29 58.37 446.07 58.37 440.35C58.37 430.97 64.63 428.42 72.35 427.08C77.54 426.19 85.98 427.46 85.98 427.46C84.39 429.6 83.36 430.23 80.68 430.4C83.66 431.94 86.7 435.31 86.7 440.54C86.7 448.61 83.38 451.93 83.38 461.03C83.38 466.08 87.52 472.5 87.52 472.5C80.2 471.77 76.58 465 78.64 459.58C77.47 459.42 76.42 459.68 75.51 460.54C74.97 459.04 75.82 457.3 76.95 455.8C76.04 455.31 75.37 455.6 73.92 455.9C74.06 454.36 74.98 452.71 77.25 451.17C70.67 452.88 66.63 448.29 66.63 443.49C66.63 439.87 69.17 437.27 71.65 437.27C72.45 437.27 73.63 437.6 74.29 438.1C74.76 437.1 74.52 435.77 74.04 434.77C75.86 435.25 77.01 436.33 76.19 438.58C77.59 438.71 78.7 439.18 79.46 440.08C78.69 441.06 77.53 441.63 76.19 441.58C77.21 443.68 76.07 444.86 74.42 445.81C74.42 445.81 75.47 441.58 72.79 441.58C71.58 441.58 70.48 441.97 70.48 443.75C70.48 445.3 71.84 447.45 74.97 447.31C78.1 447.17 80.63 445.15 80.63 440.16C80.63 435.55 76.92 433.26 72.02 433.11C67.6 432.97 64.27 435.36 64.27 439.92C64.27 445.98 73.02 459.81 73.02 465.21C73.02 469.27 69.38 471.53 65.81 471.53C61.18 471.53 57.28 466.95 57.28 466.95L60 463.54L60 463.54Z" /><path class="shp1" d="M58.99 353.93C58.99 343.8 68.09 338.59 75.24 338.59C84.87 338.59 90 344.35 90 351.88C90 356.16 89.22 358.84 87.25 362.93C87.25 362.93 71.36 395.98 65.17 408.76C64.4 410.35 64.15 412.17 64.15 414.83C64.15 418.94 68.14 422.29 72.31 422.4C76.12 422.49 80.27 418.85 80.27 414.69C80.27 409.64 77.66 407.39 74.97 407.39C71.66 407.39 70.34 408.75 70.34 411.08C70.34 412.69 71.12 413.39 72.25 413.39C75.08 413.39 74.29 409.58 74.29 409.58C75.7 409.88 76.85 411.32 76.19 413.12C76.46 413.18 76.72 413.26 76.97 413.36C77.22 413.46 77.47 413.58 77.7 413.72C77.93 413.86 78.16 414.01 78.36 414.19C78.57 414.36 78.77 414.55 78.95 414.76C78.19 415.5 77.31 416.07 76.19 416.26C76.86 418.45 75.97 419.52 74.05 419.98C74.44 419.13 74.45 418.36 74.32 417.62C71.3 418.48 66.67 417.11 66.67 411.89C66.67 406.71 70.26 402.35 77.01 403.44C75.4 402.67 74.59 401.1 74.42 399.35C75.65 399.82 77.01 399.89 77.01 399.89C76.22 398.5 75.12 397.3 75.17 394.57C76.42 395.14 77.58 396.19 79.19 395.53C76.67 390.58 79.76 383.77 87.62 382.16C84.74 385.53 83.34 389.18 83.34 392.8C83.34 404.55 86.6 406.52 86.6 414.69C86.6 418.11 84.84 421.8 81.36 424.31L81.36 424.17C83.66 424.79 85.14 425.92 85.98 427.46C80.73 428.95 73.08 428.92 68.98 427.31C64.26 426.76 60.97 423.14 60 421.31C59.03 419.47 57.15 412.83 60 406.85C63.13 400.31 77.86 369.07 82.45 359.25C83.42 357.17 84.02 354.96 84.02 352.57C84.02 346.55 78.51 344.45 75.38 344.45C71.63 344.45 67.82 347.3 67.82 350.86C67.82 353.12 69.05 354.48 70.82 354.48C75.05 354.48 74.79 350.88 73.95 348.61C76.58 349.8 78.11 351.91 77.69 354.14C79.18 354.34 80.6 355.05 81.91 356.52C80.88 357.82 79.62 358.81 77.69 358.84C78.53 362.3 76.22 363.76 73.95 364.57C74.67 362.03 75.14 359.11 70.82 359.11C67.67 359.11 65.19 358.57 63.74 356.52C63.66 359.25 63.4 370.02 63.4 370.02C63.22 374.07 68.82 373.96 72.38 372.75C71.04 377.42 68.28 379.94 61.91 379.3C63.45 379.95 65.1 381.4 65.1 384.21C65.1 388.01 62.02 392.21 60 393.46L58.99 353.93L58.99 353.93Z" /><path class="shp1" d="M58.99 323.53C58.99 333.66 68.09 338.87 75.24 338.87C84.87 338.87 90 333.11 90 325.57C90 321.3 89.22 318.62 87.25 314.53C87.25 314.53 71.36 281.48 65.17 268.7C64.4 267.11 64.15 265.29 64.15 262.63C64.15 258.52 68.14 255.17 72.31 255.06C76.12 254.97 80.27 258.61 80.27 262.77C80.27 267.82 77.66 270.07 74.97 270.07C71.66 270.07 70.34 268.71 70.34 266.38C70.34 264.77 71.12 264.07 72.25 264.07C75.08 264.07 74.29 267.88 74.29 267.88C75.7 267.58 76.85 266.14 76.19 264.34C76.46 264.28 76.72 264.2 76.97 264.1C77.22 264 77.47 263.88 77.7 263.74C77.93 263.6 78.16 263.45 78.36 263.27C78.57 263.1 78.77 262.91 78.95 262.7C78.19 261.96 77.31 261.39 76.19 261.2C76.86 259.01 75.97 257.94 74.05 257.48C74.44 258.33 74.45 259.1 74.32 259.84C71.3 258.98 66.67 260.35 66.67 265.57C66.67 270.75 70.26 275.11 77.01 274.02C75.4 274.79 74.59 276.36 74.42 278.11C75.65 277.64 77.01 277.57 77.01 277.57C76.22 278.96 75.12 280.16 75.17 282.89C76.42 282.32 77.58 281.27 79.19 281.93C76.67 286.88 79.76 293.69 87.62 295.3C84.74 291.93 83.34 288.28 83.34 284.66C83.34 272.91 86.6 270.94 86.6 262.77C86.6 259.35 84.84 255.66 81.36 253.15L81.36 253.29C83.66 252.67 85.14 251.54 85.98 250C80.73 248.51 73.08 248.54 68.98 250.15C64.26 250.7 60.97 254.32 60 256.15C59.03 257.99 57.15 264.63 60 270.61C63.13 277.15 77.86 308.39 82.45 318.21C83.42 320.29 84.02 322.5 84.02 324.89C84.02 330.91 78.51 333.01 75.38 333.01C71.63 333.01 67.82 330.16 67.82 326.6C67.82 324.34 69.05 322.98 70.82 322.98C75.05 322.98 74.79 326.58 73.95 328.85C76.58 327.66 78.11 325.55 77.69 323.32C79.18 323.12 80.6 322.41 81.91 320.94C80.88 319.64 79.62 318.65 77.69 318.62C78.53 315.16 76.22 313.7 73.95 312.89C74.67 315.43 75.14 318.35 70.82 318.35C67.67 318.35 65.19 318.89 63.74 320.94C63.66 318.21 63.4 307.44 63.4 307.44C63.22 303.39 68.82 303.5 72.38 304.71C71.04 300.04 68.28 297.52 61.91 298.16C63.45 297.51 65.1 296.06 65.1 293.25C65.1 289.45 62.02 285.25 60 284L58.99 323.53L58.99 323.53Z" /></g></g></g></svg>