<svg version="1.2" baseProfile="tiny-ps" xmlns="http://www.w3.org/2000/svg" viewBox="0 0 165 110" width="900" height="600"><title></title><style>tspan { white-space:pre }.shp0 { fill: #bf0a30 } .shp1 { fill: #000000;stroke: #ffffff;stroke-width: 10 } .shp2 { fill: #002868 } .shp3 { fill: #ffffff } </style><path class="shp0" d="M0 0L209 0L209 110L0 110L0 0Z" /><path class="shp1" d="M0 15L209 15M209 35L0 35" /><path class="shp2" d="M0 0L50 0L50 55L0 55L0 0Z" /><path class="shp1" d="M0 55L209 55M209 75L0 75M0 95L209 95" /><g ><g ><path class="shp3" d="M25 10L20.36 24.27L27.5 26.58L25 10Z" /><path class="shp3" d="M25 10L29.64 24.27L22.5 26.58L25 10Z" /></g><g ><g ><path class="shp3" d="M39.27 20.36L24.27 20.36L24.27 27.86L39.27 20.36Z" /><path class="shp3" d="M39.27 20.36L27.13 29.18L22.72 23.11L39.27 20.36Z" /></g><g ><path class="shp3" d="M16.18 37.14L28.32 28.32L23.91 22.25L16.18 37.14Z" /><path class="shp3" d="M16.18 37.14L20.82 22.87L27.95 25.19L16.18 37.14Z" /></g></g><g ><g ><path class="shp3" d="M33.82 37.14L29.18 22.87L22.05 25.19L33.82 37.14Z" /><path class="shp3" d="M33.82 37.14L21.68 28.32L26.09 22.25L33.82 37.14Z" /></g><g ><path class="shp3" d="M10.73 20.36L22.87 29.18L27.28 23.11L10.73 20.36Z" /><path class="shp3" d="M10.73 20.36L25.73 20.36L25.73 27.86L10.73 20.36Z" /></g></g></g></svg>