<svg version="1.2" xmlns="http://www.w3.org/2000/svg" viewBox="0 0 900 600" width="900" height="600">
	<title></title>
	<style>
		.s0 { fill: #dd0000 } 
		.s1 { fill: #ffffff } 
		.s2 { fill: #003893 } 
		.s3 { fill: #ffe600 } 
	</style>
	<path id="Layer" class="s0" d="m0 0h900v600h-900z"/>
	<path id="Layer" class="s1" d="m0 0h900v400h-900z"/>
	<path id="Layer" class="s2" d="m0 0h900v200h-900z"/>
	<g id="g6">
		<path id="rect4" class="s0" d="m0 0h300v600h-300z"/>
		<g id="Layer">
			<circle id="Layer" class="s3" cx="150" cy="300" r="19.5"/>
			<g id="rays">
				<path id="Layer" class="s3" d="m150 179l7.5 89c0 2-0.8 3.9-2.2 5.3-1.4 1.4-3.3 2.2-5.3 2.2-2 0-3.9-0.8-5.3-2.2-1.4-1.4-2.2-3.3-2.2-5.3z"/>
				<path id="Layer" class="s3" d="m194.8 191.8l-21.8 67.1c-0.6 1.4-1.7 2.4-3 3-1.4 0.5-2.9 0.5-4.2 0-1.4-0.6-2.4-1.6-3-3-0.5-1.3-0.5-2.8 0-4.2z"/>
			</g>
			<g id="rays">
				<path id="Layer" class="s3" d="m235.6 214.4l-57.7 68.3c-1.4 1.4-3.3 2.2-5.3 2.2-2 0-3.9-0.8-5.3-2.2-1.4-1.4-2.2-3.3-2.2-5.3 0-2 0.8-3.9 2.2-5.3z"/>
				<path id="Layer" class="s3" d="m258.2 255.2l-62.9 32c-1.4 0.5-2.9 0.5-4.2 0-1.4-0.6-2.4-1.6-3-3-0.5-1.3-0.5-2.8 0-4.2 0.6-1.3 1.6-2.4 3-3z"/>
			</g>
			<g id="rays">
				<path id="Layer" class="s3" d="m271 300l-89 7.5c-2 0-3.9-0.8-5.3-2.2-1.4-1.4-2.2-3.3-2.2-5.3 0-2 0.8-3.9 2.2-5.3 1.4-1.4 3.3-2.2 5.3-2.2z"/>
				<path id="Layer" class="s3" d="m258.2 344.8l-67.1-21.8c-1.4-0.6-2.4-1.7-3-3-0.5-1.4-0.5-2.9 0-4.2 0.6-1.4 1.6-2.4 3-3 1.3-0.5 2.8-0.5 4.2 0z"/>
			</g>
			<g id="rays">
				<path id="Layer" class="s3" d="m235.6 385.6l-68.3-57.7c-1.4-1.4-2.2-3.3-2.2-5.3 0-2 0.8-3.9 2.2-5.3 1.4-1.4 3.3-2.2 5.3-2.2 2 0 3.9 0.8 5.3 2.2z"/>
				<path id="Layer" class="s3" d="m194.8 408.2l-32-62.9c-0.5-1.4-0.5-2.9 0-4.2 0.6-1.4 1.6-2.4 3-3 1.3-0.5 2.8-0.5 4.2 0 1.3 0.6 2.4 1.6 3 3z"/>
			</g>
			<g id="rays">
				<path id="Layer" class="s3" d="m150 421l-7.5-89c0-2 0.8-3.9 2.2-5.3 1.4-1.4 3.3-2.2 5.3-2.2 2 0 3.9 0.8 5.3 2.2 1.4 1.4 2.2 3.3 2.2 5.3z"/>
				<path id="Layer" class="s3" d="m105.2 408.2l21.8-67.1c0.6-1.4 1.7-2.4 3-3 1.4-0.5 2.9-0.5 4.2 0 1.4 0.6 2.4 1.6 3 3 0.5 1.3 0.5 2.8 0 4.2z"/>
			</g>
			<g id="rays">
				<path id="Layer" class="s3" d="m64.4 385.6l57.7-68.3c1.4-1.4 3.3-2.2 5.3-2.2 2 0 3.9 0.8 5.3 2.2 1.4 1.4 2.2 3.3 2.2 5.3 0 2-0.8 3.9-2.2 5.3z"/>
				<path id="Layer" class="s3" d="m41.8 344.8l62.9-32c1.4-0.5 2.9-0.5 4.2 0 1.4 0.6 2.4 1.6 3 3 0.5 1.3 0.5 2.8 0 4.2-0.6 1.3-1.6 2.4-3 3z"/>
			</g>
			<g id="rays">
				<path id="Layer" class="s3" d="m29 300l89-7.5c2 0 3.9 0.8 5.3 2.2 1.4 1.4 2.2 3.3 2.2 5.3 0 2-0.8 3.9-2.2 5.3-1.4 1.4-3.3 2.2-5.3 2.2z"/>
				<path id="Layer" class="s3" d="m41.8 255.2l67.1 21.8c1.4 0.6 2.4 1.7 3 3 0.5 1.4 0.5 2.9 0 4.2-0.6 1.4-1.6 2.4-3 3-1.3 0.5-2.8 0.5-4.2 0z"/>
			</g>
			<g id="rays">
				<path id="Layer" class="s3" d="m64.4 214.4l68.3 57.7c1.4 1.4 2.2 3.3 2.2 5.3 0 2-0.8 3.9-2.2 5.3-1.4 1.4-3.3 2.2-5.3 2.2-2 0-3.9-0.8-5.3-2.2z"/>
				<path id="Layer" class="s3" d="m105.2 191.8l32 62.9c0.5 1.4 0.5 2.9 0 4.2-0.6 1.4-1.6 2.4-3 3-1.3 0.5-2.8 0.5-4.2 0-1.3-0.6-2.4-1.6-3-3z"/>
			</g>
		</g>
	</g>
</svg>