<svg version="1.2" baseProfile="tiny-ps" xmlns="http://www.w3.org/2000/svg" viewBox="0 0 900 600" width="900" height="600"><title></title><style>tspan { white-space:pre }.shp0 { fill: #ffffff } .shp1 { fill: #c8102e } .shp2 { fill: #ffc72c } .shp3 { fill: #000000 } .shp4 { fill: #ea9e00 } .shp5 { fill: #ea9e00;stroke: #ea9e00;stroke-width: 0.902 } </style><g ><path class="shp0" d="M-150 0L1050 0L1050 600L-150 600L-150 0Z" /><path class="shp1" d="M-150 150L1050 150L1050 600L-150 600L-150 150Z" /><path class="shp2" d="M-150 300L1050 300L1050 600L-150 600L-150 300Z" /><path class="shp3" d="M-150 450L1050 450L1050 600L-150 600L-150 450Z" /><path class="shp0" d="M455.99 207.42C393.23 207.42 342.37 246.17 342.37 293.95C342.37 341.74 393.23 380.46 455.99 380.46C518.76 380.46 569.64 341.74 569.64 293.95C569.64 246.17 518.76 207.42 455.99 207.42Z" /><g ><path fill-rule="evenodd" class="shp2" d="M392.29 255.44C393.9 257.05 394.58 259.34 390.52 259.33L387.11 260.61L384.07 264.87L382.55 267.92C381.97 267.56 382 273.29 384.57 276.08L393.51 280.4L392.03 283.44L384.31 282.79L382.24 285.57L386.51 290.14L391.98 291.96L400.2 291.36L401.12 287.4L404.77 292.27L407.81 296.53L410.86 303.84L406.59 309.92L402.33 314.79L398.38 320.58L391.68 320.58L384.68 325.45L380.72 333.06L382.24 335.19L386.51 335.19L391.68 330.93L401.42 326.66L414.81 322.71L420.29 324.53L418.16 327.88L410.86 334.58L407.81 334.27L407.51 335.8L402.94 337.93L402.94 341.88L411.16 343.71L436.12 323.92L441.6 321.79L447.38 318.75L472.65 312.36L478.13 313.27L482.39 312.66L510.09 321.19L523.48 317.53L532.91 315.4L534.74 313.58L535.04 312.05L539.31 315.71L543.87 317.84L546.92 319.97L546.61 322.4L551.18 321.19L552.7 317.53L536.87 308.71L522.87 310.23L512.52 285.27L498.21 272.18L469.3 278.57L446.16 281.31L425.77 273.09L419.07 262.44L418.77 260.31L418.16 255.44L418.16 252.7L414.81 252.7L412.68 254.22L412.68 257.87L398.38 256.35L392.29 255.44Z" /><path fill-rule="evenodd" class="shp4" d="M413.11 260L416.15 256.96L416.15 253L419.2 255.74L419.81 260.61L420.11 263.96L414.33 264.27L413.11 260Z" /><path fill-rule="evenodd" class="shp3" d="M535.6 231.26C535.6 231.26 535.6 231.26 535.6 231.26C535.6 231.26 535.6 231.26 535.6 231.26L535.6 231.26ZM535.6 231.26C535.61 231.26 535.75 231.28 535.79 231.29C535.78 231.29 535.77 231.31 535.76 231.31C535.71 231.3 535.68 231.28 535.6 231.26ZM526.7 242.79C532.57 242.73 541.19 246.17 541.19 249.74C541.19 250.55 541.77 251.69 542.47 252.27C545.13 254.48 542.98 264.75 539.68 265.62C538.82 265.84 537.69 267.14 537.17 268.52C536.64 269.92 535.6 271.02 534.8 271.02C534.01 271.02 532.4 271.79 531.21 272.73C530.01 273.66 528.52 274.43 527.88 274.43C527.24 274.43 526.7 274.79 526.7 275.23C526.7 275.67 524.88 276.29 522.66 276.62C514.34 277.82 513.84 279.58 519.35 287.96C523.73 294.61 524.48 297.13 523.19 300.83C521.16 306.65 526.62 310.55 530.97 306.39C533.83 303.65 536.15 304.05 540.63 308.04C542.8 309.97 545 311.02 547.59 311.37C554.33 312.3 557.81 317.41 554.03 320.83C551.56 323.07 549.34 322.24 549.02 318.96C548.78 316.41 547.83 315.68 545.24 316.09C544.89 316.14 543.8 315.39 542.82 314.41C540.79 312.38 534.68 309.43 532.46 309.4C529.94 309.37 530.76 312.45 534.19 315.93C539.37 321.17 539.73 321.82 538.66 323.81C537.47 326.03 532.57 326.21 530.46 324.1C527.21 320.85 525.25 320.45 521.32 322.19C519.31 323.08 516.92 323.6 516 323.36C515.07 323.12 513.16 323.51 511.76 324.24C508.59 325.89 504.65 325.94 504.04 324.34C503.78 323.68 502.24 322.51 500.6 321.73C498.27 320.62 497.37 320.55 496.4 321.36C495.72 321.92 493.6 322.43 491.71 322.48C487.93 322.58 487.06 321.8 482.39 314.28C479.58 309.76 477.71 309.18 476.26 312.36C475.73 313.53 474.78 314.49 474.16 314.49C473.53 314.49 473.01 314.87 473.01 315.34C473.01 315.81 472.6 316.19 472.11 316.19C471.61 316.19 469.46 317 467.31 317.98C464.37 319.32 461.61 319.75 456.07 319.79C452.03 319.82 447.86 319.59 446.8 319.26C445.37 318.8 444.72 319.03 444.27 320.19C442.81 324.02 438.14 328.07 434.53 328.66C432.42 329 430.07 330.46 427.23 333.13C413.36 346.18 411.32 347.73 408.24 347.67C406.56 347.65 404.6 346.95 403.76 346.1C401.24 343.55 401.86 340.99 405.36 339.52C407.56 338.61 408.74 338.51 409.38 339.15C411.79 341.56 414.5 340.05 422.73 331.75C427.26 327.18 431.68 323.02 432.58 322.51C433.48 321.99 435.06 320.37 436.07 318.88C437.61 316.62 437.77 315.77 437 313.74C435.86 310.72 436.64 308.52 438.87 308.52C441.05 308.52 442.51 311.24 442.17 314.7C441.99 316.58 442.3 317.51 443.18 317.68C444.69 317.98 453.04 310.19 453.81 307.78C454.38 305.99 456.49 304.82 457.75 305.59C458.18 305.86 458.52 307.56 458.52 309.38C458.52 311.19 458.91 312.92 459.38 313.21C459.84 313.5 463.33 311.99 467.13 309.85C470.93 307.72 474.37 305.97 474.77 305.97C475.17 305.97 475.92 306.73 476.42 307.67C477.57 309.82 479.14 309.84 481.05 307.72C481.88 306.81 483.76 305.95 485.24 305.81C487.15 305.62 487.87 305.14 487.71 304.15C487.59 303.4 488.08 302.3 488.81 301.7C491.02 299.87 493.97 301.96 496.53 307.19C499.11 312.46 500.68 313.74 506.97 315.79C509.36 316.57 511.75 317.75 512.3 318.4C513.41 319.74 515.63 320.03 515.63 318.83C515.63 318.4 516.97 317.21 518.61 316.19C520.25 315.18 521.59 313.83 521.59 313.18C521.59 311.49 518.69 310.18 515.49 310.44L512.75 310.65L512.96 306.58C513.09 304.34 513.52 301.37 513.92 299.97C514.32 298.58 514.47 297.44 514.27 297.44C513.91 297.44 511.01 299.94 506.49 304.1C504.18 306.23 501.72 306.3 501.32 304.23C501.19 303.52 502.44 301.41 504.09 299.55C507.24 296.01 508 292.63 505.82 291.8C504.41 291.25 504.02 286.36 505.4 286.36C505.87 286.36 506.25 285.6 506.25 284.66C506.25 283.72 505.94 282.95 505.56 282.95C505.18 282.95 504.34 281.61 503.69 279.97C502.2 276.16 501.14 276.16 501.14 279.97C501.14 281.67 500.49 283.61 499.64 284.47C498.82 285.31 497.62 287 496.98 288.23C496.28 289.58 494.83 290.64 493.31 290.94C491.93 291.22 490.23 292.05 489.52 292.76C487.75 294.53 486.04 294.36 484.94 292.3C483.75 290.07 482.95 290.63 480.68 295.31C479.6 297.55 478.23 299.14 477.41 299.15C476.09 299.16 474.88 299.74 470.72 302.29C469.78 302.87 468.6 302.99 467.95 302.58C467.02 302.01 467.09 301.12 468.32 297.68C469.69 293.87 469.69 293.29 468.51 291.02L467.21 288.52L466.27 292.36C465.06 297.28 462.42 302.13 460.95 302.13C459.69 302.13 459.59 299.55 460.6 293.18C461.06 290.29 460.88 288.93 459.88 287.64C458.73 286.17 458.45 286.11 457.72 287.22C457.26 287.92 456.62 290.22 456.31 292.33C455.57 297.37 453.37 302.37 451.73 302.8C449.14 303.47 448.3 302.43 448.3 298.64C448.3 296.57 447.97 294.89 447.58 294.89C447.18 294.89 445.97 296.61 444.89 298.72C442.88 302.62 442.53 302.86 439.16 302.58C438.11 302.5 436.38 303.05 435.32 303.78C434.27 304.52 432.75 305.11 431.92 305.11C429.16 305.11 430.3 302.06 434.66 297.79C437.68 294.83 438.92 292.94 438.92 291.32C438.92 288.1 437.18 287.35 435.56 289.85C432.5 294.6 427.25 299.42 425.76 298.85C424.63 298.42 424.42 297.71 424.86 295.74C425.51 292.78 424.51 292.45 422.3 294.89C420.36 297.03 417.61 297.12 417.61 295.05C417.61 294.2 418.04 293.1 418.57 292.57C419.76 291.38 418.92 288.83 417.43 289.13C416.72 289.28 416.33 288.35 416.31 286.52C416.29 284.97 415.76 283.39 415.14 283.01C414.32 282.5 414.19 281.32 414.63 278.69C414.97 276.7 414.9 274.83 414.5 274.54C414.09 274.24 412.87 272.18 411.75 269.96C410.63 267.73 409.1 265.87 408.35 265.8C401.3 265.19 394.91 267.99 395.77 271.34C397.54 278.2 397.72 277.71 393.46 277.23L389.62 276.78L388.64 280.37C388.1 282.35 387.8 284.09 387.94 284.23C388.09 284.38 389.55 284.85 391.19 285.27C395.05 286.27 395.15 288.4 391.35 288.76C389.17 288.97 388.42 288.68 388.1 287.46C387.88 286.58 386.84 285.51 385.81 285.06C384.31 284.4 383.95 283.52 383.95 280.53C383.95 278.71 383.77 277.57 383.23 276.64C383.29 276.62 383.29 276.62 383.36 276.59C385.06 275.94 391.38 271.73 390.77 268.2C390.17 264.75 390.91 263.71 394.55 262.77C398.57 261.73 398.71 260.31 395.03 258.13C391.35 255.96 389.69 252.58 391.43 250.83C392.4 249.87 393.18 250.09 396.36 252.25C398.44 253.66 401.23 254.79 402.54 254.8C403.85 254.81 406.09 255.44 407.55 256.19C409.34 257.12 411.26 257.4 413.49 257.04C415.93 256.65 416.76 256.8 416.76 257.65C416.76 259.43 415.76 260.03 414.5 258.98C413.25 257.95 413.12 258.63 414.1 261.12C414.7 262.64 414.79 262.63 416.23 261.19C417.67 259.76 417.89 259.79 421.29 261.59C427.27 264.77 429.95 266.32 430.4 266.87C430.63 267.15 431.97 267.98 433.38 268.71C434.79 269.43 436.75 270.77 437.72 271.69C440.03 273.87 448.33 276.28 453.78 276.32C458.68 276.36 470.42 273.93 473.76 272.19C474.98 271.56 476.58 271.03 477.3 271.02C478.02 271.02 479.36 270.49 480.28 269.85C481.97 268.68 484.94 268.06 493.25 267.08C497 266.64 498.44 266.91 502.28 268.79C507.55 271.36 516.22 271.84 519.89 269.74C521.06 269.07 523.03 268.51 524.25 268.49C525.48 268.48 527.46 267.7 528.65 266.76C529.84 265.82 531.23 265.06 531.74 265.06C532.25 265.06 532.67 264.67 532.67 264.2C532.67 263.74 533.17 263.35 533.79 263.35C534.88 263.35 538.64 256.88 538.64 254.99C538.64 254.48 536.85 252.84 534.67 251.34C531.38 249.08 529.98 248.63 526.46 248.76C523.81 248.85 521.34 249.54 519.86 250.59C518.56 251.52 517.07 252.27 516.56 252.27C516.04 252.27 515.63 252.66 515.63 253.13C515.63 253.59 515.04 253.98 514.32 253.98C513.6 253.98 512.79 254.53 512.54 255.2C511.92 256.8 507.21 257.84 506.01 256.64C505.04 255.67 506.71 251.42 508.06 251.42C508.43 251.42 510.36 250.31 512.38 248.97C514.39 247.63 517.16 246.28 518.5 245.96C519.85 245.64 521.5 244.8 522.18 244.12C523.1 243.2 524.75 242.81 526.7 242.79L526.7 242.79ZM383.1 276.43C383.14 276.5 383.19 276.57 383.23 276.64C382.87 276.77 382.88 276.65 383.1 276.43ZM381.87 275.18C380.12 273.76 379.94 273.13 380.62 271.18C381.2 269.52 382.03 268.89 383.55 268.89C385.35 268.89 385.66 269.31 385.73 271.72C385.8 274.03 383.7 275.8 383.1 276.43C382.8 275.98 382.38 275.59 381.87 275.18ZM409.94 281.57C409.94 284.84 406.86 288.07 403.74 288.07C402.2 288.07 402.1 287.69 402.59 284.1C403.01 281.06 402.8 279.75 401.74 278.59C400.11 276.79 400.71 271.84 402.75 270.14C403.28 269.7 403.82 269.46 404.35 269.42C407.24 269.24 409.94 274.62 409.94 281.57ZM472.48 280.74C470.84 281.37 470.99 282.17 473.57 286.79C475.82 290.81 475.84 290.82 476.95 288.81C477.57 287.7 478.08 286.27 478.1 285.62C478.14 284.02 474.39 280.66 472.77 280.69C472.66 280.69 472.57 280.71 472.48 280.74ZM427.84 309.35C427.84 311.65 428.22 313.77 428.69 314.06C430.65 315.27 429.54 319.68 426.43 323.04C422.98 326.77 421.94 327.06 418.89 325.06C417.75 324.31 415.04 323.53 412.9 323.3C409.42 322.94 408.71 323.18 406.32 325.51C404.85 326.96 403.25 328.14 402.75 328.15C402.26 328.17 400.31 328.92 398.44 329.83C394.27 331.84 388.8 332.07 388.1 330.26C387.49 328.65 386.02 328.63 383.9 330.2C382.63 331.14 382.46 331.66 383.23 332.44C384.38 333.6 383.83 335.8 382.38 335.8C381.84 335.79 380.29 334.9 378.94 333.82C377.29 332.5 376.49 331.1 376.49 329.48C376.49 326.47 377.84 325.58 382.59 325.57C384.97 325.56 386.99 325.01 388.02 324.08C389.16 323.04 390.87 322.63 393.62 322.75C395.96 322.84 398.39 322.38 399.56 321.63C400.82 320.8 402.41 320.53 404 320.88C405.61 321.23 408.35 320.77 411.73 319.58C414.84 318.47 417.92 317.91 419.34 318.19C422.81 318.88 424.13 316.97 422.22 314.06C420.22 311.01 420.47 306.78 422.75 304.93C423.7 304.16 424.56 303.8 425.28 303.84C426.88 303.91 427.84 305.84 427.84 309.35Z" /><g ><path fill-rule="evenodd" class="shp5" d="M531.84 265.81L534.25 270.63L535.76 269.94L536.36 269.26L531.84 265.81Z" /><path fill-rule="evenodd" class="shp4" d="M516.7 247.02C519.07 249.82 517.99 250.46 519.07 249.82C520.14 249.17 522.3 251.97 520.14 249.17C517.99 246.37 516.7 246.37 516.7 247.02Z" /></g></g></g></svg>