<svg version="1.2" baseProfile="tiny-ps" xmlns="http://www.w3.org/2000/svg" viewBox="0 0 600 400" width="900" height="600"><defs><radialGradient id="grd1" gradientUnits="userSpaceOnUse" cx="230.262" cy="213.002" r="6.098"><stop offset="0" stop-color="#fff"/><stop offset="1" stop-color="#9ca268"/></radialGradient><radialGradient id="grd2" gradientUnits="userSpaceOnUse" cx="345.703" cy="244.574" r="6.098"><stop offset="0" stop-color="#fff"/><stop offset="1" stop-color="#9ca268"/></radialGradient><radialGradient id="grd3" gradientUnits="userSpaceOnUse" cx="259.336" cy="235.595" r="4.858"><stop offset="0" stop-color="#fff"/><stop offset="1" stop-color="#9ca268"/></radialGradient></defs><style>tspan{white-space:pre }.shp0{fill: #076d4a }.shp1{fill: #ffffff }.shp2{fill: #d32927 }.shp3{fill: #97492d }.shp4{fill: #d3a565 }.shp5{fill: #93472d }.shp6{fill: #5b312a }.shp7{fill: #282c2e }.shp8{fill: #673f2c }.shp9{fill: #984a2d }.shp10{fill: #3f2d29 }.shp11{fill: #2c2b2e }.shp12{fill: #cdd776 }.shp13{fill: #757b3b }.shp14{fill: #9ca268 }.shp15{fill: #f1be34 }.shp16{fill: #b08e38 }.shp17{fill: #de4f63 }.shp19{fill: #d92c2e }.shp20{fill: #f2db00 }.shp23{fill: #3b3e1e }.shp25{fill: #efbe32 }.shp26{fill: #9e7e36 }.shp27{fill: #282e2e }.shp28{fill: #514842 }.shp29{fill: #a8ad70 }.shp31{fill: #7d7738 }.shp34{fill: #b47230 }.shp35{fill: #896e35 }.shp36{fill: #f1be33 }.shp39{fill: #b06f2f }.shp40{fill: #89422d }.shp42{fill: #272d2f }.shp43{fill: #693c2b }.shp46{fill: #dbad68 }.shp48{fill: #b77230 }.shp50{fill: #efbe30 }.shp53{fill: #77452c }.shp59{fill: #800000 }</style><path fill-rule="evenodd" class="shp0" d="M-50 0h700v400H-50V0z"/><path fill-rule="evenodd" class="shp1" d="M200 0h467v400H200V0z"/><path fill-rule="evenodd" class="shp2" d="M401 0h233v400H401V0z"/><path class="shp3" d="M306 225l-1 6-1 4-3 3-1-1 1-3v-4l5-5z"/><path class="shp4" d="M311 236l1-2v-10l-1 1h-2l-1-1h-4l-2 2-1-1v4l2 4 1-2 1 5 1-3s1 4 2 3l1-3 2 3z"/><path class="shp5" d="M304 237l3 3c2-1 1-15 1-17l2-6-4 4-2 15v1z"/><path class="shp6" d="M300 237l-1-1-1-3-2-7 1-4v-4l3 4s2 6 1 8l-1 7z"/><path class="shp7" d="M299 221l2-6 15 9-8 5-9-8z"/><path class="shp6" d="M300 232l-1-1v-2l-1-3v-4h4l1 2v4l1 4-2 1-2-1z"/><path class="shp6" d="M305 236l-2-4v-9l2-2 2 1v9l-2 5z"/><path class="shp7" d="M305 222l-1 4-1 4 2 1-3 2v-3l1-1v-5l-1-3-1 6v-3-3l-1-1v-1h-1l-1-2-2-7 10 9-1 3z"/><path class="shp7" d="M301 222l2 6v4l2 4-1-9v-4l1-1h-4z"/><path class="shp6" d="M308 237v-1l-1-3 1-7 2-4v-3l2 4-1 8-3 6z"/><path class="shp7" d="M309 229l1-5v-2-3l-1 3-2 2 1 2 1 3z"/><path class="shp7" d="M307 224v8l1 4-1-4 1-7-1-1z"/><path class="shp5" d="M313 228l-2 1 2-4 11-9-11 12z"/><path class="shp7" d="M314 228l1-3 1-2 7-9 3-2v3l-5 6-7 7zM308 227l-2-1-2 1 1-2v-3l1 3 2 2z"/><path class="shp6" d="M303 225l-1-7 1-3 3-7 1 1 3-2v3l1 3-6 11-2 1z"/><path class="shp5" d="M310 225l1 4c2 1 10-11 11-12l5-5-5 2-11 10-1 1z"/><path class="shp8" d="M310 225v2l1 2 2-1 9-11 1-1 2-2 2-2-3 1-2 1-11 10-1 1 1-1 11-10 5-2-1 1-4 4-5 7-4 4-2 1-1-2v-2z"/><path class="shp6" d="M306 228v-4l5-11h1l3-2 2-2-1 4v2l-3 7-7 6zM300 222l-1-1 1-6 3-11h1l2-2-1 7-3 9v3l-2 1z"/><path class="shp7" d="M311 224l4-5 2-4h2l2-2s1 2-3 7c-5 5-7 4-7 4z"/><path class="shp5" d="M303 226c-2-1-2-6 0-10l3-8-3 9v4l2-4 1-3-2 10 6-12 1 1s-5 14-8 13z"/><path class="shp6" d="M299 198l-2 5-1 5v5l1 8c1 1 2 0 2-1l2-9 2-10-1-1v-2h-3z"/><path class="shp5" d="M306 228v-2h1l2-4 1-1 1 1 5-7h1s-6 14-11 13z"/><path class="shp7" d="M309 222l-1-3 3-6h1l3-2-2 6-4 5zM305 220l2-8 3-5v4l-2 3-3 6zM300 213l1-7 1-6h-1l-1 2v-3-1h2v2l1-1v5l-1 4-2 5zM296 213s-1-7 1-11l2-5 1 1-3 7-1 8zM303 216l1-8 1-5 1-1v6l-2 3-1 5z"/><path class="shp9" d="M299 223l1-8 3-11-3 13 2-4s-3 8-2 9l2-2v2l-3 1zM298 220v-10l3-9-3 9v11l1-1v-1l-1 1z"/><path class="shp10" d="M311 224c0 1 2 3 3 2l1-6-2 5-3-3 1 2z"/><path class="shp7" d="M302 227l-1 3v5h1l-1 2-1-2 1-1v-5l-1-3v6l-1-3v-3-2-1l-1 1-1-3-1-6 7 9-1 3z"/><path class="shp11" d="M340 238l-1 1v2l1-2v-1zM335 237l-1 2v2l1-2v-2zM333 238v3l1-1-1-2zM327 243l-1 1 1 2 1-2h-1v-1zM325 244v2l1 1v-2l-1-1zM345 254l-1 1-2-1 1-1 1 1h1zM339 259h-2l-1-1h1l2 1zM333 262l-1-1c-1 0-2 0-1-1l1 1 1 1z"/><path class="shp11" d="M331 262l-1-1-1-1 2 1v1z"/><path class="shp12" d="M345 245c-1-2-8-6-12-5l-7 6-3 5-4 1-5 2 7 4 2 1s2 2 6 2c5-1 10-4 13-6 2-2 4-6 3-10z"/><path class="shp13" d="M345 245l-2-1c-1-2-3-3-5-3h-4l-4 2-3 3-2 3-2 2-2 1-2 1-4 1 6 4 2 1 6 1 5-1 8-4 2-4 1-5v-1 6l-3 4-8 5-5 1c-4 0-7-2-7-2h1-1l-2-1-7-4 6-2 2-1 2-1 1-1 2-3 4-4 3-2h4l5 2 3 3z"/><path class="shp14" d="M320 257h2l12-14c4-1 8-1 10 3 2 3 1 4 0 5l-6 6-5 2-3 1h-4l-2-1-2-1-2-1z"/><path class="shp13" d="M337 247l2 1 1-1-2-1-1 1zM335 245l-2-1-1 2h2l1-1zM329 250l-2-1v1l1 1 1-1zM329 254h-1l-1 1 1 1c1 0 2-1 1-2zM334 256l-2-1v2h1l1-1zM340 252l-2-1v2h1l1-1z"/><path class="shp12" d="M337 247l2 1 1-2h-2l-1 1zM333 245l1 1 1-2h-2v1zM327 250h1l1-1h-2v1z"/><path class="shp13" d="M332 251l1 1 1-1-2-1v1z"/><path class="shp12" d="M338 252l1 1 1-2h-2v1zM332 251l1 1 1-2h-2v1zM327 255l1 1 1-2-1-1-1 2zM332 256l1 1 1-2h-2v1z"/><path class="shp11" d="M330 253l-2 1v1l1-1 1-1zM329 247l-1 1v2l1-1v-2zM334 248l-1 2v1l1-1v-2z"/><path class="shp11" d="M335 249l-2 1v1h1l1-1v-1zM335 243l-2 1 1 1v-1l1-1zM340 244l-2 2 1 1v-1l1-2z"/><path class="shp11" d="M341 246h-1l-2 1h2l1-1zM335 255h-2l-1 1h1l2-1zM341 252l-2-1v1h2z"/><path class="shp13" d="M322 258l6 2c3 0 5-1 8-3 3-1 4-2 6-5l3-5v1l-1 4-2 2-3 3-3 1-3 2h-3l-2 1-2-1h-1l-3-2zM323 251l2-2c2-3 4-5 8-7 5-2 8 0 8 0l-3-2h-3l-1 1h-2l-2 2-1 1-2 2-2 2-1 2-1 1z"/><path class="shp11" d="M240 241l1-1h2l-1 1h-2zM248 246l1-1 1-1-1 1-1 1zM247 245l1-1h1v1h-2z"/><path class="shp12" d="M263 242s-4-10-12-12c-7-2-10 4-11 6 0 2 2 6 11 9s12-2 12-2v-1z"/><path class="shp13" d="M263 242l1-1-3-5c-3-2-6-5-10-6h-1c-3-1-5 0-7 1l-2 2-1 3c0 2 2 7 11 9l2 1 8-1 2-1v-1h1v-1-1l-1 1v1l-3 2h-9c-9-3-10-7-10-9l1-2 3-3 5-1h1c4 1 7 4 9 7l2 3 1 1v1z"/><path class="shp14" d="M258 235l3 3v3l-9-7c-4-2-8-2-9 0v6l10 5h5l2-1 1-1 1-1 1-1-2-3-3-3z"/><path class="shp13" d="M250 239l1-1c1 0 2 1 1 2l-1 1-1-2zM246 239h1l1 1-2 1v-2zM253 243l1-1v1l-1 1v-1zM256 241h1c1 0 2 0 1 1l-1 1-1-2z"/><path class="shp12" d="M248 240h-1l-1-1h1l1 1zM252 239l-1 1-1-1 1-1 1 1zM258 242h-1l-1-1 2-1v2zM254 243l-1 1v-1l1-1v1z"/><path class="shp11" d="M255 241h2-2zM251 243h2l-1 1-1-1zM250 237l1 2v1l-1-1v-2z"/><path class="shp11" d="M249 239h2v1l-2-1zM245 238l2 1v1h-1l-1-2z"/><path class="shp11" d="M244 240l2-1 1 1h-3z"/><path class="shp13" d="M261 244s-3 2-9 0c-6-1-11-5-12-8l1 1 1 2 3 4 5 2 4 1h3l3-1 1-1zM263 241l-2-3-6-6 4 3 2 3 2 3z"/><path class="shp11" d="M248 228l1 1v1l-1-1v-1z"/><path class="shp13" d="M251 234l-2 1v-1l1-1 1 1zM245 235h1l1 1-1 1-1-2z"/><path class="shp12" d="M250 234l-1-1h1v1zM247 235l-1 1-1-1 1-1 1 1z"/><path class="shp11" d="M245 234l1 1v1l-1-1v-1zM248 231l2 2v1l-1-1-1-2zM258 253l1 1 2-1-1-1-1 1h-1zM264 258h2l1-1h-1l-2 1zM269 261h2l1-1h-1v1h-2z"/><path class="shp12" d="M259 244c1-2 8-6 12-4l6 6 3 5 4 2 5 2-7 4h-2s-2 2-7 2c-4-1-9-5-12-7-2-2-4-6-2-10z"/><path class="shp13" d="M259 244l2-1 5-3 5 1 3 2 3 4 2 2 1 2 2 2 2 1 5 1-7 4h-2s-2 2-7 1l-4-1-7-5-3-4v-6l-1 6 3 4 7 5 5 2c5 1 7-1 7-1v-1 1l2-1 8-4-6-2-2-1-1-1-2-2-2-3-3-3-3-3-4-1-5 2-3 3z"/><path class="shp14" d="M283 258h-2c0-1-8-13-11-15-4-1-8-2-10 2-2 3-1 4-1 5l6 7 4 2 4 1h6l2-1 2-1z"/><path class="shp13" d="M266 247h-1l-1-1 2-1v2zM269 244h2v2h-1l-1-2zM275 250l1-1 1 2h-2v-1zM274 254h2v1l-1 1-1-2zM269 255h2v2h-1l-1-2zM264 251h1l1 1-2 1v-2z"/><path class="shp12" d="M266 247h-1l-1-1 2-1v2zM271 245l-1 1-1-2h2v1zM277 250l-2 1v-2h1l1 1z"/><path class="shp13" d="M272 251l-2 1v-2h1l1 1z"/><path class="shp12" d="M266 252h-2v-1l1-1 1 2zM272 251l-2 1v-2h1l1 1zM276 255l-1 1-1-2h1l1 1zM271 256l-1 1-1-2h2v1z"/><path class="shp11" d="M273 253l2 1v1h-1l-1-2zM275 247l1 2v1l-1-1v-2zM270 247l1 3-1 1v-1-3zM268 248l2 2v1l-1-1-1-2zM264 243l1 3-1-1v-2z"/><path class="shp11" d="M263 245h1l1 1h-1l-1-1zM268 255h2l1 1h-1l-2-1zM263 251h2-2z"/><path class="shp13" d="M280 259l-5 1c-3 0-5-1-8-3l-6-5-2-6-1 1 1 4 2 2 3 3 3 2 2 1 4 1 2 1h2l1-1 2-1zM281 251s-2 0-3-2-3-5-7-8c-5-2-8 0-8 0l3-1h5l1 1 2 2 1 1 2 2 1 2 2 2 1 1z"/><path class="shp11" d="M264 237l1 2 1 1h-1l-1-1v-2zM270 237l1 2-1 2v-2-2zM277 243v3l-1-1 1-1v-1zM278 244l1 2-1 1v-1-2zM269 242l2 2-1 1-1-1v-2zM233 235l2-1 1-1c-1-1-1 0-1 1l-2 1zM238 214l1 2-1 1v-1-2zM245 224l-1 1-1-1h2zM226 221l1 1h1l-2-1zM228 228l2 2 1-1h-1l-2-1z"/><path class="shp12" d="M243 233s3-7-2-13c-4-6-8-5-10-4s-5 7-1 13c5 6 13 6 13 6v-2z"/><path class="shp13" d="M243 233h1v-2c0-2 1-7-2-11-3-3-5-5-7-5l-4 1c-2 0-3 2-3 4-1 3 0 6 2 9 3 4 7 6 10 6h3l1-2h-1 1-1l-1 2h1-3c-3-1-6-2-9-6-3-3-3-6-3-9l3-4h4c2 0 4 1 6 4 3 5 3 9 2 11v2z"/><path class="shp14" d="M228 222s1-4 3-5c2 0 8 0 9 6 2 6 2 9 0 12l-3-1-4-3-3-4-2-5z"/><path class="shp13" d="M242 233l-3 1c-2-1-10-5-11-14v4l1 4 2 2 3 2 2 2 3 1h2l1-2z"/><path class="shp13" d="M238 230l1-1 1 1-1 2-1-2zM239 226l2-1v1l-1 1-1-1zM234 230l2-1 1 1-2 1-1-1zM235 224h1l1 1-2 2v-3zM231 225l1-2 1 2-1 1-1-1zM233 220h1l1 1-2 1v-2zM237 221l1-1 1 2-2 1v-2z"/><path class="shp12" d="M233 220h1s1 0 0 0l-1 1v-1zM231 224l1-1 1 1-1 1-1-1zM237 221l1-1 1 1-2 1v-1zM235 225l1 1 1-1-1-1-1 1zM240 225l1 1h1l-1-2-1 1zM234 230l1-1 1 1-2 1v-1zM238 230l1-1 1 1-1 1-1-1z"/><path class="shp11" d="M241 223v3l-1-1 1-2zM238 219v2l-1-1 1-1zM234 218v2l-1 1v-1l1-2zM232 219l1 1v0l-1-1zM234 224h2v2l-1-1-1-1zM231 223h1v1h-1v-1zM239 228v2-1-1zM238 229l1 1h-1v-1zM234 228l1 1v1h-1v-2z"/><path class="shp13" d="M235 215s-4 0-5 3l-2 4v-3l1-1 2-2 2-1h2zM243 232v-4l-2-8 2 3 1 2v6l-1 1z"/><path class="shp15" d="M230 206l-2-5h-1l1 6 2-1z"/><path class="shp16" d="M227 201h1l1 5-1 1-1-6 1 6 2-1-2-5h-1z"/><path class="shp15" d="M226 199v2h2v-2h-2z"/><path class="shp17" d="M234 212c1 2 0 5-2 6-2 0-4-2-5-4-1-3 0-6 2-6 2-1 4 1 5 4z"/><path d="M229 208c-2 0-3 3-2 6 1 2 3 4 5 4 2-1 3-4 2-6-1-3-2-4-4-4h-1z" fill="url(#grd1)"/><path class="shp16" d="M226 199v-1 3l1 1 1-1 1-1v-1l-2-1h-1v1h2v2h-1-1v-1l1-1h-1z"/><path class="shp16" d="M227 198v1l-1 2h2c1 0 0 0 0 0l-1 1v-1h-1v-2h1v-1z"/><path class="shp16" d="M228 202v3l-1-4h1v1z"/><path class="shp19" d="M225 210l1 1 1-1 1-1-1-2h-1v-1l-2 2v1l1 1zM227 207l1 1 1 1 1-1v-1-1-1-1l-3 1v2zM233 208v-2-1h-3 1l-1 1v1l1 1h2z"/><path class="shp20" d="M227 208v2l-2-1v-1h2zM228 207v1h1l1-2h-1l-1 1zM231 206v1h1l1-1h-1-1z"/><path class="shp15" d="M350 239l4-3h1l-4 5-1-2z"/><path class="shp16" d="M355 236l-5 5v-2l4-3h1-1l-4 3 1 1 4-4z"/><path class="shp15" d="M357 234l-1 3-2-1 1-2h2z"/><path class="shp17" d="M344 242c-3 1-3 4-2 6 1 1 4 1 6-1s3-5 2-6c-2-2-4-1-6 1z"/><path d="M350 241c1 1 0 4-2 6s-5 2-6 1c-1-2-1-5 2-6 1-2 3-3 5-2l1 1z" fill="url(#grd2)"/><path class="shp16" d="M357 234v2l-1 1h-1l-1-1v-1l1-1h2v1l-1-1h-1l-1 1v1l1 1 1-1h1v-2z"/><path class="shp16" d="M356 234v2h-2c0-1 0 0 0 0v1h2v-1l1-1v-1h-1z"/><path class="shp16" d="M353 237l-1 2 3-2-1-1-1 1z"/><path class="shp19" d="M352 245h-2v-2-1l2-1h1l1 3-1-1v2h-1z"/><path class="shp19" d="M352 241l-2 1h-1l-1-2 1-1 1-1h1l2 2h-1v1z"/><path class="shp19" d="M346 239l1-2h1v-1l2 1h-1l1 1-1 1v1h-1l-2-1z"/><path class="shp20" d="M351 242v2h1l1-1-1-1h-1zM351 241h-2l1-2 1 2zM349 238l-1 1h-1v-1l1-1 1 1z"/><path class="shp11" d="M312 268l-2-2v-1l1 1 1 2z"/><path class="shp2" d="M302 250l-1-1h-4l-3 1 3 11 5 6 2 1h3l1-2-1-11-5-5z"/><path d="M302 250l-1-1h-3-4-1v1l4 11 5 6v1h6v-2l-1-11-5-5h-1l5 5 2 11-1 1-3 1-2-1-4-6-4-12v1h7v-1 1h1-1 1z" fill="#9f352c"/><path class="shp0" d="M289 251v-1l2-1 3 1 3 5 3 7 4 6h-5l-2-1-6-10-2-6z"/><path class="shp1" d="M289 251v-1h5-1 1-1 1-1 1-1 1l3 5 1 4 2 3 4 6h-1-4l-2-1-6-10-2-6 1 6 7 10 2 1h5v-1l-4-5-1-4-2-3-2-4-1-1v-1h-1-1-3v2z"/><path class="shp14" d="M286 249l3 1 5 5c1 4 0 4 2 7l3 6h-7l-4-1-2-2h-2l1-3-1-8v-4l2-1z"/><path class="shp23" d="M286 249v1h3l4 6 1 3 1 4 4 5h-1-6l-2-1h-1l-2-2h-3l1-3-1-8v-4h2v-1 1-1l-2 1v15h2l1 1 1 1h1l3 1h7c1 0 1 0 0 0l-3-6-1-3-1-4-3-4-1-1v-1h-1-1-1-1z"/><path class="shp14" d="M313 251l-5-1-7-1v4l3 9 3 6 6-2h2v-15h-2z"/><path class="shp23" d="M313 251l-4-2h-8-1l1 4 3 9 2 4 1 1v1h2l4-1v-1 1l3-1-1-3v-1l1-9-1-2h-2v1h2v1l-1 9 1 1v3h-3l-2 1h-3l-3-5-2-9-1-2v-2 1h7l5 2v-1z"/><path class="shp14" d="M285 252l1 1 2-2c0-2-1-3-3-3s-3 2-3 4l2 2-2 4 2 4s-2 1-2 3l3 3c1 0 3-1 3-3l-2-1h-1v-12z"/><path class="shp23" d="M285 252l1 1 1-1 1-1-1-2-2-1-2 1-1 3 1 1v1h1-1v1l-1 3 1 3 1 1-1 1-1 2 1 2 2 1 2-1 1-1 1-1-1-1-2-1-1 1v0h2l1 1v1l-1 1h-4l-1-2 1-2 1-1-1-4v-3h1v-1l-1-1-1-1 1-2 2-1h2v3h-1-1v-1 1z"/><path class="shp14" d="M314 252l-1 1-1-1c0-2 1-2 2-2s3 1 3 3l-1 3v2l-1 4s2 1 2 3-2 3-3 3l-3-2c0-2 1-2 2-2l2 1-1-13z"/><path class="shp23" d="M314 252v1h-1-1v-1-1l1-1h2l1 1 1 2-1 2-1 1h1v5l-1 1 1 1 1 2-1 2-2 1-1-1-1-1v-2h2v1l1 1v-1l-1-1-1-1-1 1-1 2v1l2 1h1l2-1 1-2-1-3h-1s2-1 2-4l-1-2v-1 1l1-1v-2l-1-3h-1l-1-1-2 1v1l-1 1 1 1h2v-1z"/><path class="shp23" d="M288 264v1l1 1 10 1h10l3-3h1l-1 1v2l-1 1-2 1-17-1h-3l-1-1v-3z"/><path class="shp15" d="M263 233l2 1 3-3v-1l-5 3z"/><path class="shp16" d="M268 231v-1l-5 3 2 1 3-3v-1 1l-3 2h-1l4-2v-1 1z"/><path class="shp15" d="M270 230h-2v1h1l1-1z"/><path class="shp17" d="M261 238h-5c-1-2 0-4 2-5h5c1 2 0 4-2 5z"/><path d="M263 233h-5c-2 1-3 3-2 5h5c2-1 3-2 3-4l-1-1z" fill="url(#grd3)"/><path class="shp16" d="M270 230v-1h-2l-1 2h1l1 1 1-1v-1-1 1l-1 1v1l-1-1v-1l1-1 1 1z"/><path class="shp16" d="M270 230h-2v1c0 1 0 0 0 0h-1l1-1v-1h1l1 1z"/><path class="shp16" d="M267 232h-1-1l3-1-1 1z"/><path class="shp19" d="M260 231v1l1 1h1l1-1v-1h1l-2-1h-1l-1 1zM263 232l-1 1v1l1 1 1-1h1l1-1-2-2v1h-1z"/><path class="shp19" d="M264 237l2-1v-2h-1-1v1h-1l1 1v1z"/><path class="shp20" d="M262 232h-1v-1h2l-1 1zM264 232l-1 1v1h1v-1-1zM265 235h-1v1h1v-1z"/><path class="shp13" d="M291 250l-4-1-1 1-1-2h4l2 1v1z"/><path class="shp25" d="M296 244h2l2-2v3l-2 1h-2l-1-1 1-1z"/><path class="shp26" d="M296 244h2l2-2v3l-2 1h-2l-1-1 1-1h-1v1l1 1 2 1 2-2v-3l-1 1h-2l-1 1h-1 1z"/><path class="shp25" d="M293 244h3v2h-1l-1 1-2-1v-2h1z"/><path class="shp26" d="M293 244h3v2h-1l-1 1-2-1v-2h1-1v2l2 1h2v-1-1-1h-1-2z"/><path class="shp25" d="M307 245l-1-1-2-3-1 6h3l1-2z"/><path class="shp26" d="M307 245l-1-2-1-1-1-1-1 6h3l1-2-1 2h-3l1-6 2 3 1 1z"/><path class="shp25" d="M293 244l-2-1-2 2v4h2l8-3h-3l-2 1-1-2v-1z"/><path class="shp26" d="M293 244l-1-1h-1l-1 1-1 1-1 1v1l1 2h4l6-3h-2-1c0-1 0-1 0 0h-3v-1-1 2l1 1 2-1h2l-4 2-1 1h-2-1l-1-1v-1-1-1l1-1h3z"/><path class="shp27" d="M286 250v-2l3 1v-3-1c-1 0-4 0-5 2 0 3 2 3 2 3z"/><path class="shp25" d="M297 247h-2l-1 1v1l3 1 1-1 1-2h-2z"/><path class="shp26" d="M297 247v-1l-1 1h-1-1v3l2 1h1l1-2 1-2-2-1v1h1v2l-1 1-3-1v-1l1-1h2z"/><path class="shp25" d="M309 247l-1-1-1-1-2 1v2l2 1h1l1-1v-1z"/><path class="shp26" d="M309 247v-1l-1-1h-1l-2 1v2l1 1h2l1-1v-1 1l-1 1-1-1h-2l1-2h-1l1 1v-1l1-1 1 1 1 1z"/><path class="shp25" d="M300 245h-2l-1 2 1 1 1 1 3-2v-2h-2z"/><path class="shp26" d="M300 245h-2l-1 1v1l1 1 1 1 3-2v-2h-2 2v2l-3 1h-1l-1-1v-1h1l1-1h1z"/><path class="shp25" d="M311 248l-1-1h-1l-2 1v1l1 1 2 1 1-2v-1z"/><path class="shp26" d="M311 248l-1-1-1-1v1h-1l-1 1v1l1 1 2 1 1-1v-2 1l-1 1h-2l-1-1 1-1h-1l1-1h2l1 1z"/><path class="shp25" d="M306 250h1v1h1l1 3h3c1 0 0 0 0 0l3-3-1-3h-3l-2 2-1-1-1-1h-1l-1-2h-1v-1l-3 1-1 2h-2l-2 2-2-2h-2l-1 2v3l4 1c2-1 1-2 1-2l1-1 3-2 6 1z"/><path class="shp26" d="M306 250h1v1h1l1 3h3l3-2v-1-1-1l-1-1h-3v1h-1l-1 1-1-1v-1h-1-1v-1-1h-1-1v-1l-3 1-1 1-2 1-1 1-1 1-2-2v-1l-2 1-1 1v4l3 1h1l1-2v-1 1l1-1 3-1 1-1h-1l-3 2h-1v1-1 1-1 1-1 1l-1 2h-1l-2-1-1-2v-1-1l1-1h2v1l2 1 2-1v-1h2l2-2h-1 1l2-1v1h1v1-1l1 2h1l1 1 1 1h1l1-2h2l1 1v2h1l-3 3h0-2l-1-1v1-1l-1-1v-1l-1-1h-1z"/><path class="shp25" d="M305 238l-1 4-1 4-3-1v-3l5-4z"/><path class="shp26" d="M305 238h-1v6l-1 2h-3v-1-2-1l5-4h-1 1-1l-4 4v1l-1 2 1 1 2 1 2-1v-2-2l1-4h-1 1z"/><path class="shp27" d="M291 257v-3h1l1-2-2-2s-3 1-3 4l3 3zM313 257s3 3 4-2c1-2-1-4-2-4l-1 1-2 2 2 1c1 3-1 2-1 2z"/><path class="shp25" d="M300 249l1 1h2v-1l1 2c2 0 2-2 2-2h-6z"/><path class="shp26" d="M300 249v1h3v-1 1l1 1 2-1v-1l-1 1h-1-1v-1l-1 1h-1l-1-1h0z"/><path class="shp28" d="M291 257s-3-1-3-4l3-3s-2 1-2 3c-1 3 2 4 2 4zM313 257l1 1c1 0 2 0 3-2v-3l-2-2 1 2c1 1 2 2 1 3-1 2-3 2-3 2l-1-1z"/><path class="shp3" d="M306 229l-1 6-1 4-3 3-1-2 1-2v-5l5-4z"/><path class="shp4" d="M311 240l1-3v-10l-1 2h-2l-1-1h-4l-2 2-1-1v4l2 4 1-2 1 4 1-3 2 4 1-4 2 4z"/><path class="shp5" d="M305 241l2 3c2-1 1-15 1-17l2-7-4 5-2 15 1 1z"/><path class="shp6" d="M300 240l-1-1-1-2-2-7 1-5v-3l3 4s2 6 1 8l-1 6z"/><path class="shp7" d="M308 233l-9-8 2-6 15 9-8 5z"/><path class="shp6" d="M300 236l-1-2v-2l-1-3v-3l1-1 3 1 1 2v4l1 3-2 1h-2z"/><path class="shp6" d="M305 240l-1-4-1-7v-3l2-1 2 1v9l-2 5z"/><path class="shp7" d="M305 226l-1 3-1 5h2l-3 3v-3l1-1v-5l-1-3-1 6v-3-3l-1-2v-1l-1 1-1-2-1-7 9 9-1 3z"/><path class="shp7" d="M301 226s2 2 2 6v4l2 4-1-9v-5h1-4z"/><path class="shp6" d="M309 241l-1-1-1-3 1-7 2-4v-4l2 5-1 8-2 6z"/><path class="shp7" d="M309 233l1-5v-3-2l-1 3-2 1 1 3 1 3z"/><path class="shp7" d="M307 227v8l1 5-1-4 1-7-1-2z"/><path class="shp5" d="M313 232h-2l2-3 11-10c2 0-11 13-11 13z"/><path class="shp7" d="M314 231l1-2 1-2 7-10 3-1v3l-5 6-7 6zM308 230h-4l1-1v-3l1 3 2 1z"/><path class="shp6" d="M303 229l-1-7 1-3 3-7 1 1 3-2v3l1 2-6 12-2 1z"/><path class="shp5" d="M310 229l1 4c2 0 10-11 11-13l5-4-5 1-11 11-1 1z"/><path class="shp8" d="M310 229v2l1 2 2-2 9-11h1l2-2 2-2-3 1h-2l-11 11-1 1 1-1 11-11 5-1-1 1-4 3-5 7-4 4-2 2-1-2v-2z"/><path class="shp6" d="M306 232v-4l5-12 1 1 3-2 2-2-1 4v2l-3 6-7 7zM300 226l-1-2 1-5 3-11h1l2-2-1 7-3 9v3l-2 1z"/><path class="shp7" d="M311 228l4-5 2-4h2l3-2-4 7c-5 5-7 4-7 4z"/><path class="shp5" d="M303 229c-2 0-2-6 0-10l3-7-3 9v4l2-4 1-3-2 10 6-12h1s-5 15-8 13z"/><path class="shp6" d="M299 202l-2 5-1 5v4l1 9 2-1 2-10 2-10h-1v-2h-3z"/><path class="shp5" d="M306 232v-3l1 1 2-4 1-2 1 2 5-8 1 1s-6 13-11 13z"/><path class="shp7" d="M309 226l-1-4 3-6h1l3-1-2 5-4 6zM305 223l2-7 3-5v4l-2 3-3 5zM300 217l1-7 1-6h-1l-1 2v-4h2v1h1v5l-1 4-2 5zM296 216s-1-6 1-10l2-5 1 1-3 6-1 8zM303 219l1-8 1-4 1-1v6l-2 3-1 4z"/><path class="shp9" d="M299 227l1-9 3-10-3 13 2-4-2 8 2-2v2s-1 2-3 2zM298 224l1-10 2-9-3 9v11l1-1v-1l-1 1z"/><path class="shp10" d="M311 228s2 2 3 1l1-5-2 4-3-2 1 2z"/><path class="shp7" d="M302 231l-1 3v4l1 1-1 2-1-3 1-1v-4l-1-4v7l-1-4v-3-1-1h-1l-1-2-1-7 7 9-1 4z"/><path class="shp1" d="M263 157c1 1 2 2 1 4h-4l3-4z"/><path class="shp29" d="M253 173l-8 1c-3 0-3-8-3-8l-2-4c0-2 5-7 6-8l2 1 1-2 1 1-2 3v2l-2 3 1 2 4-1 2-2-2 3-4 2s-1 2 2 2l5-1-1 6zM237 194s3 1 3 3c0 3-2 5-1 10 0 4 1 4 7 9l3 3c0 1 2 10 8 9s6-4 6-4l-3-4-3 1-3-2-2-6c-3-4-8-4-8-8s2-4 1-9-7-6-7-6l-2-1-1 5h2z"/><path d="M250 160c2-1 0-6 0-6l-1 1 1 3v2z" fill="#e99e2f"/><path class="shp29" d="M259 211l-1-1c-1 0-4-3-4-10-1-8 11-14 11-18 1-3 3-5-7-12l-2 3 4 3h1l-1 3-6 6-3 4s-2 1-3 5v7s1 9 11 10z"/><path class="shp31" d="M254 216l1 3-2 1h-2l-1 2-1-1v-2l2 1h1v-2l2-2zM248 217l-1-1-1-1 1-1h2v2l-1 1zM251 212l1 1 1 1h-4l1-2h1zM251 226v-1l-1-2h4l-1 1-1 2h-1zM257 220h-2v-1 2l-1 2 2-1 1-1v-1zM252 227h2l1 1 1-1v-2l-3 1-1 1zM257 225l3-2v-2l-1-1-1 1h-1v4zM255 228l6-1 2-2h-2l-1 1-5 2zM250 204l-1-1v-1h1l1 1-1 1zM253 208l-2-1v-1h1l1 1v2-1z"/><path d="M240 160l1 3c1 0 3-1 5-4l1-3 1-1h-3l-5 5z" fill="#c6c8a6"/><path d="M247 155v1h-1l1-1z" fill="#28303d"/><path class="shp29" d="M244 156l-2 2s2 0 3-2l3-1h-2l-2 1z"/><path class="shp31" d="M254 203v-1-2l-1 1-1 2h2zM248 201v-3-4l1 2 2 2 1 1-2 1-1 1h-1zM254 199v-1-2 1l-1 1-1 1h2zM249 193v-2l2-2 1 2 1 3-1 1-2-1-1-1zM254 196l1-1 1-2-3 1v1l1 1zM251 188l2-1 1-1 1 4-2-1-2-1zM257 193l2-3h-4l1 2 1 1zM258 187l-1-4-1 1-2 1 1 1 1 1h2zM260 183v-4 1l-1 1-1 1 1 1h1zM262 186l2-1 2-2h-5v2l1 1zM249 174l4-1-1-1-1-1-1-1-1 2v2zM259 190l2-2 1-1h-4l1 2v1zM266 182v-3l-1-2-2 2v2l1 1h2z"/><path class="shp31" d="M260 179l1-2h4l-1 1-1 1h-3zM265 176l-2-2-1-1-1 3v1l4-1z"/><path fill-rule="evenodd" class="shp1" d="M244 157l-2 1 2-1 2-2h2l-1 3-1 3-1 3 1 1-1 1v-2l1-3 1-3v-3 1c-1-1-2 0-2 1h-1zm-2 56l-1-1 2-3 2-1 1 1-2 1-2 3zm4-1l-1 3-1-1 1-3 2-2 2 1-3 2zm-4-4l-2 3-1-1 2-3h3l1 1h-3zm7 6zm0 0l-1 4v-1-3l-2 1 2-1h1v-1l1-2 1 1-2 2h4v1l-4-1zm10 12l2-2-2 3-4 1 1-3-4 2-1-1 2-3h-3v-1l1-2-2-1 2 1 1-1 1-3h1l-2 4h1l2-1-1 4 3-3v4l3-3v1s0 2-3 3l-1 2 3-1zm-8-4l3 1v-3h-2l-1 2zm2 4l4-1v-4s-1 2-3 2v1l-1 2zm-12-21l-2 2-1-2 3-1 3 1v1l-3-1zm13 0zm0 0v1h1v3h2v1h-2l-1-1 1-1v-1h-2v2-1-1l-2-1h-1 3l1-1zm1 2zm9-27l2 2v1h-4-1l1 3v1h-4l1 3h-4l2 3h-1l-3 1 1 2-2 3h2v1l-2 3h2v1l-2-1-2 2v-1l1-1-2-1-1-1 4-2h-1l-3-5 1-1 2 1h1l-1-5v-1l4 1-1-3v-1l3 2v-1-3l1-1h2v-3h2l-1-1v-1l2 2 2-2h-4v-1-1l1-2h-5v-1l4 1v-1l1 1v1l-1 2h4v1l-2 2 1 1zm-2 6zm0 0l-2-3-2-1v5l4-1zm-7 4l3-1v-2l-3-1v4zm1 3l-1-3-3-1 1 4v1l3-1zm-3 2h-2l-2-1 2 4 1 1 2-3-1-1zm0 5l-1-1-3 2 2 1 1 1v-1l1-2zm8-17l4-1-2-1-1-2h-1v4zm-21 13l2-1h3v2l-3-1-2 1v-1zm4-28l-2 2v-1l2-1 3-1-1 3 2-2h1l1 2 2-2h1v1l-1-1-2 2 2 2-2-1-1 3h-1l-2-2-1 2v-3l1-3h-2zm2 3c1 2 3 2 3 2v-3l-1-1-2 2zm-9 21v-1l1-1h1l-2 2zm1 2v-2l2-1-1 1v3l-1-1zm7 6v1l-2-2-3 1v-1l3-1 2 2zm-6-5l1-2 2-1 1 1-2 1-1 1h-1zm0 7l2-1 3 1v1l-3-1-2 1v-1z"/><path class="shp31" d="M249 168l1 2 1-2h-2zM248 168h-1v-1l-1 1v3l2-3zM248 174l-2-3-1 3h3zM263 225h-1l-5 3-4-1-2-2-2-4-1-5-5-3c-2-1-4-3-4-6v-6l1-4v-1l-2-2-1-1h-2v1h2l1 1 2 1v1l-1 4-1 5v1c1 4 3 5 5 6l4 4 2 5 2 3 2 2 4 1 6-2v-1z"/><path class="shp31" d="M259 220h-3l-2-3-1-4-5-3-4-4v-1l1-4v-4-1c0-3-2-4-4-5l-4-1h1l3 2 4 4v1l-1 4v5c0 2 2 3 4 4s4 2 4 4l2 3 2 3 2 1 2-1h-1z"/><path class="shp29" d="M269 210s2 0 2 2v4l-3-3 1-1 1-1-1-1z"/><path class="shp25" d="M232 194h-2l-1-2-1-1c0-2 1-2 2-2l1-1c1-1 1 1 1 1v5z"/><path class="shp26" d="M232 194v-1 1h-2l-1-2-1-1 1-1 1-1v-1h2v6-1 1l1-5-1-1-1-1-1 1v1h-1-1v3h1v2h3z"/><path class="shp25" d="M234 194h-2v-2l-2-1 2-1c0-1 0-2 2-2l1 1-1 5z"/><path class="shp26" d="M234 194h-1-1v-1-1h-1v-1-1h1v-1h1v-1l1 1h1l-1 2v3l1-3v-2-1h-2l-1 1v1h-1l-1 1 1 1h1v2l1 1 1-1z"/><path class="shp25" d="M237 194l-1 1c-2 0-1-2-2-2l-1-2 2-1 1-2 2 2s-2 0-2 2l1 2z"/><path class="shp26" d="M237 194l-1 1h-1v-1-1h-1v-1l-1-1h1v-1h1l1-1v-1l1 1 1 1h-1l-1 2 1 2-1-2 1-2h1l-1-1-1-1-1 1v1h-1l-1 1v1l1 1v1l1 1h2v-1z"/><path class="shp34" d="M266 210l-3-3-3-3-3-1-2-3v-5l1-1s-5 2-1 12c1 4 5 5 5 5l4-1h2z"/><path class="shp35" d="M260 175l1 1v1c-1 4-5 6-8 9l-4 5-1 8c1 6 3 9 6 11l6 1h1l1-1h7v2l-1 1 1-1 1-1-1-1-1-1-2 1h-5v1-1h-1c-1 1-3 1-6-1-2-1-5-4-6-10l1-8 7-7 5-7v-1l-1-1z"/><path class="shp1" d="M271 211l-1 2 1 1v1l-2-1-1-1 2-1v-2l1 1z"/><path class="shp36" d="M276 212l-3 1-2-1v-2h-5l-7-6h2l4-1h6l1 1h1l2 2v2l1 2v2z"/><path class="shp34" d="M276 212h-5v7h3l2-1v-6z"/><path class="shp36" d="M275 210l1 2v-2h-1zM269 175l-1-2-1-2-2-1-1-2h-1v-1l-4 1-1 2 7 6 3 2 1-3z"/><path class="shp34" d="M266 179l-1 4 2-2 1-3-3-2 1 3z"/><path class="shp35" d="M275 217l-2-2-2-1 1 1 2 1v1h1z"/><path d="M276 214l-1 2-2 2 3 1 2-2-2-3z" fill="#785e31"/><path d="M277 215v2h-1v1-4l1 1z" fill="#48492f"/><path class="shp9" d="M275 160h3l1 1 1 2-4 3v1l-1-1-1-2-2-1h-1v-1l2-1 2-1z"/><path class="shp39" d="M288 136s-9-1-8 6c0 2 1 3 3 3 1 0 5 0 8 2l4 6v3l2 9 3 7 5-4 2-10-6-18-13-4z"/><path class="shp6" d="M288 136v-1l-2 1-4 1c-2 1-2 2-2 5l1 2 2 1 3 1c2 0 3 0 5 2l3 3 1 2v2l-1 1 3 9 3 7 5-4 3-10-7-18-13-5v1h-1l14 4 6 18-2 10-5 3-2-6-3-9v-3l-1-3-3-3-5-2h-3l-2-1-1-2c0-3 1-4 2-5l4-1h2-1 1z"/><path class="shp6" d="M299 169s3-1 4-4l-4-3 3 1 1 1c1 0 2-3 1-4-1 0-1-2-3-2l-3-1h4l1 1-1-5-3-1h-2l3-1 2 1-2-4-3-2h-2v1l2-1h2l-1-1-6-2-3 1s-1-1 1-1l1-1h-3-3l-3 1v-1l2-1c1-1-1-2-1-2l1-1h4l11 4 5 4 3 7 1 12-6 6-3 1v-3z"/><path class="shp4" d="M288 139l-1-2v-1s-3 0-5 2 0 5 0 5l2-2 3-1-1-1h-3l3-1 2 1z"/><path class="shp3" d="M301 170l-2 1 2 9 10 13 4-1 1-3h1l4 4 4 1 6 7v-3l-2-4-2-2v-1h2l2 1 2 1 1 1 1 2v1l1 2 2 2 1 3 1-2-1-2-3-7-2-2 3 1 2 2 1 3 1 2 1 2 1 2 1-1v-2l-2-4-1-6 2 1 1 3 1 4 2 5 2 4 1 3 1 1v-2l-4-19 1-1v1l2 2 1 3v2l1 4 1 4 2 4 2 2v-2l-3-20v-1l2 1 1 2 1 4 2 12 1 4v-34l2-1-1-1-5-6-3-5-5-8-9-8-7-5-2-1v-1l1-2h-6l-5-3-6-2-4-1-7-1h-12l-3 1-2 2v3l4 3 7 3 3 2 1 1v1l3 13-2 8-2 1z"/><path class="shp39" d="M311 189s2 3 4 1c1-2-2-7-2-8h1l2 2 1 4-3 5-2-1-1-3z"/><path class="shp6" d="M363 215l-2-5-1-4-2-11-1-4-2-2-1-1h2l-2-5-5-10v1l1 1 3 1 5 1 2 1 2 3 2 8v8 14l-1 3v1z"/><path class="shp3" d="M361 199l1-3c1-1-1-14-2-15l-5-3 1 4 2 2v2c1 1 2 3 2 7l1 6z"/><g><path class="shp6" d="M355 208l-1-10-1-6-4-7-3-7-3-2v2l-2-1v-4l-1-1 3 2 5 3 4 9 3 6 1 11 1 9-2-4zM355 179l2 1 2 2-2-1-2-1v-1z"/><path class="shp6" d="M348 206l1-4-3-10-5-5-3-6-3-3v-3l4 1 2 1 4 10 2 3 1 4 2 9 1 7v1l-3-5zM343 203l-1-6-3-5-5-6-6-5v-4l3 2 2 1 2 4 2 3 2 3 2 1 1 4 1 3 1 4v2l-1-1zM340 203l-2-1v-2l-2-4-1-3-6-4c-1-1-3-3-5-3l-2-1-1-5 3 2 2 1 4 5 2 2 3 2 1 2 2 3 1 4 1 2zM333 202l-3-3v-3l-5-5-5-4 1-1 1 1 6 5 1 2 2 4 1 2 1 2zM349 173s4 4 4 0c1-2-1-5-1-5l-6-7-7-8-5-1 2 2 8 9c5 6 4 10 4 10h1zM325 149s8 5 13 11 8 10 7 11-4 0-6-1c-1-2-2-5-7-10l-7-5-4-4 4-2zM323 164l7 5 5 5 2 1-1-2 1-1-15-12 1 4zM322 164l4 5 5 4 2 3-7-3 2 3h-2l-3-4-2-3-2-4 3-1z"/><path class="shp6" d="M305 181s4 2 5-1c2-3 0-6 0-6s5 6 6 0l-4-5 1-1 3 3s2-1 2-4l-3-5 2 2s4-1 4-3c0-3-4-5-4-5s3 0 3-2l-5-3c0-1 1-3 3-2 2 0 4 1 5-1v-2l-3-1-4-1-3-1h-3l1 2 2 7v3l1 6-1 6v1l-1 1-1 3-2 2-2 4-2 3z"/></g><g><path class="shp39" d="M329 191l-3-3c-2-2-4-1-4-1l5 4h2zM336 191l-4-4-4-4h-1l1 4 4 2 4 2zM341 190l-3-6-4-5v4l2 3 3 3 2 1zM345 188s1-8-1-9c-1-2-3-2-3-2l-1 1 2 5 2 4 1 1zM348 175l3 3c2 2 4 9 4 10h-1l-5-6-1-7z"/></g><g><path class="shp4" d="M319 187l2-2-3-3 2-1-2-5c1-1 4 4 4 4l1 4c-1 4-4 3-4 3zM324 181h3l-3-3-1-2h2l-2-4c0-1 0 0 0 0l4 3 2 6c0 3-6 1-5 0zM339 174l-1-2 2-1-3-1h-2l2 3 2 1z"/><path class="shp4" d="M328 177l6 1-5-5v-1h3v2l2 2v-4l3 2c0 1 3 3 4 1v-2 4h-3l-2-1v-1 4h-5l-3-2z"/></g><path fill-rule="evenodd" class="shp31" d="M254 167l-1 6-8 1c-3 0-3-6-3-8l-1-1s-2-2-1-3c0-2 5-7 6-8h1l2-1h1v2l-2 2v3l-1 2v1 1l4-1 1-2h1l-2 3-2 1-2 1v1l2 1 5-1zm-7-1zm0-12h0zm-5 12zm11 7zm0 0l1-6-5 1h-2v-2l2-1 2-1 2-3-2 2-4 1-1-1v-1l1-2 1-1v-2l2-2v-1l-1-1-1 2h-1-1c-1 0-6 5-6 7l2 3v1c0 5 1 8 3 8l8-1zm0-12zm1 6z"/><g><path class="shp4" d="M340 172l7 2-2-9c0-1 6 9 4 10l-3 1-3-1-3-3zM358 185h1l1 1h-1l-1-1zM350 166l1 1h0l-1-1zM348 164l2-1v-1h-1l-1-1h-2l2 3zM355 180l3 1 1 1h-3l-1-2zM343 155h1s0-1 0 0v1l-1 1-2-2h2zM334 148h2l2 1 1 4-5-2-2-3h2zM330 147s3 0 3-2l-2-2-3 2 2 2zM322 145l2-1 4-4h2v3l-4 3h-2l-2-1zM321 139l-3-2 2 4 1 4h1v-3l-1-1v-1-1zM314 138c-3-3-7-4-7-4s5 2 6 4l2 5h1v-1-1l-1-2-1-1zM307 136c-3-2-8-3-12-3-4 1-6 1-5 3 0 3 2 3 6 3h6l4 1-3-2-3-2s-1-1 2-1l7 4 1 3 1-1-1-2-2-2-1-1zM299 170c2 0 6-4 6-8 0-5-4-14-5-15l2 1c1 0 4 7 4 12 1 4 0 6-2 9l-5 2v-1zM307 183l2 1c1-1 4-3 4-5s-3-3-3-4v-1h2l1 3h1c1 0 3-2 2-4l-3-3v-2h2l1 2 1 1 3-3-3-3v-1h3c1-1 3-2 2-3l-1-2v-1h1l1 1 1 2-1 2-1 1-2 1 1 2v2l-1 2-2 1v2l-1 3-2 2h-1v1l-1 3-3 2h-2l-1-1v-1z"/><path class="shp4" d="M319 157s5 1 4-2c0-2-5-5-5-6v-1l2 2s3 0 4-2l-1-2 1-1 1 1 1 2-1 7s0 2-2 3l-4-1zM327 191l-1-2-4-2 4 4h1zM334 190l-3-3-3-3 1 3 4 3h1zM340 190l-3-5-3-4v1l2 4 2 3 2 1zM344 186l-1-5-2-4v4l3 5zM354 188l-3-6-3-4 1 3 3 6 2 1zM361 177l-5-2-6-1 2 2 3 1h6z"/></g><g><path class="shp7" d="M328 183l1 4 6 5 3 6 3 6v2l-1-2-1-2-4-10-8-6-2-3h3z"/><path class="shp7" d="M337 200l-2-5-6-4-3-1-4-4-1 1 6 5c2 1 3 4 4 6l1 3 2 2 1-1-3-4-4-6v-1h1l6 4 2 5 3 4-3-4zM328 177l4 2h2l3 8 4 3 3 9c2 4 3 9 2 10l-3-5-3-7c0-2-2-4-3-5s-1-1 0 0l4 5 2 5 1-1-2-5-2-5-3-3-4-6v-2h-2l-3-3zM336 175l2 2h3s0 5 2 8 5 4 5 4l1 8 2 10 1 12-2-8c0-3-2-3-4-9l-2-9-3-3 3 2 3 10 4 8-2-11-3-9-3-5c-2-2-2-6-3-7h-2c-2-1-2-3-2-3z"/><path class="shp7" d="M340 172l4 3h4c0 1 0 5 3 9l3 4 3 16c1 4 2 17 1 18-2 0-2-10-3-12l-2-4c-1-2-1-9-3-13l-2-4 2 4 4 13 2 4-2-18c-1-1-5-7-6-11l-1-4-3-2-4-3z"/><path class="shp7" d="M349 173s1 2 5 3l7 1s3 5 4 11l-1 12v20l-1 2v3l-1-2v-8l-2-7-3-17-3-3s3 1 3 3l3 17c1 3 1 0 1-2v-12c-1-3-3-11-5-12l2 3h1l1 1-1-1h-1l3 9 2 20v-14c1-6 2-7 1-12l-4-10-7-1-4-4zM308 185l2-1 4-4-1-2h1l3-3v-3l1-1 3-3-2-3h2c0-1 3-2 2-4 0-1-1-3-3-3h3c1-1 2-2 1-3 0-2-3-5-3-5-1 0 3 1 3-1l1-3h-1l3-1 4-3-2 3 2 2 1 1h4l-3 1 8 5 1 1h-1l5 5 1 1h0l5 7-10-10-6-5 6 7 4 7s-5-9-12-14c-6-5-7-5-8-5v5l10 8 10 11s-4-5-11-10c-6-6-9-7-9-7l-1 2-2 2 6 4 3 1 1 1-2-1-1 1 5 4 2 1 3 1-3-1h-1l3 4-9-8-7-3v2l-2 1 6 5 6 5-6-4c-3-3-5-3-5-3v2l6 5-7-6-1 1-2 2 9 8-7-5 3 6-5-6-1 2-2 1 6 6-7-5v1l2 4-3-3-1 2-1 1 1 1 2 3-2-2-2-2-1 1-1-1zM361 177l2-1-3-2c-2-1-7-13-12-19-9-9-17-13-17-13s9 4 17 13 10 16 12 18l4 3-1 1h-2z"/><path class="shp7" d="M305 180l2-3-2-1-1-2 1 2h3l3-4-2-1-2-2 2 2 2-1 2-4-2-1-2-2 2 2c2 0 3-1 3-2l-1-5h-3l-2-2 3 1 2-1-1-4-1-2-3 1-2-2 2 1c2 0 2-1 2-2l-1-3-1-1h-2l-3-1 3 1 1-2-3-3-4-3 5 3 3 3 2-1v-3l-3-2 3 3 1 3h5l-1-2-1-2 1 2 2 2-1 1 3 1 3 1v-3l-1-3 1 3v3l2 1h-3l-9-3 5 4 3 3-3-2-5-2c-1 1 1 1 1 1l-1 2 6 4-1 2-3-1 1 1v2l3 4-1 2 2 2-2-2-2-1-1 3c0 1 2 1 2 3v2l-3-2-1 1-1 3 3 2-1 3-3-3-2 4 1 1-2 1-2 1v-1z"/><path class="shp7" d="M331 142l1-1 1-3-4 1-6-2s-11-6-28-6c-5 1-8 3-8 4 0 0 1-2 7-3 2 0 19-1 29 5 0 1 3 3 6 2h3l-1 2v1zM302 147l-3-3-10-4 9 4 4 3z"/></g><g><path class="shp4" d="M303 160l-2-2-3-1 4 1 1 2zM302 153l-3-1h-2 3l2 1zM300 148l-2-1h-3l3-1 2 2zM298 145l-5-1h-4l6-1 3 2zM291 142h-4l-5 1 7-2 2 1z"/></g><path class="shp25" d="M279 217l4 1c2 0 4 3 4 3l-2 2-6 1-2-2 2-5z"/><path class="shp26" d="M279 217l1 1h3l2 2 1 1h1l-2 2-6 1-2-2 3-5h-1l-2 5 2 2 6-1 2-2-1-2-3-1-3-1-1-1v1z"/><path class="shp25" d="M279 215c1-1-2-4-3-4v3l1 3 2-2z"/><path class="shp26" d="M279 215h1l-1-1-1-2-2-1v-1 1h-1 1v3l1 1v2l2-1 1-1h-1l-1 1h-1v1-1 1-1 1-1-1l-1-1 1-1v-1l-1-1 2 2 1 1v1z"/><path class="shp25" d="M279 220h2l1-1-3 1z"/><path class="shp26" d="M279 220l1 1 1-1 1-1-1 1h-1-1z"/><path class="shp25" d="M278 219s3-3 2-4l-1-1-2 3 1 2z"/><path class="shp26" d="M278 219l1-1 1-1v-2-1h-1l-1 1-1 1v1l1 2-1-1v-1l1-2h2v1l-1 2-1 1z"/><path class="shp25" d="M276 221l2 1 2-2-2-1h-2v2z"/><path class="shp26" d="M276 221v1h3l1-1v-1l-1-1-1-1-2 1v2-2h3l1 1v1l-2 1-2-1z"/><path class="shp25" d="M278 218l-2 2-2-1 2-1 1-1h1v1z"/><path class="shp26" d="M278 218v1l-1 1h-1-1v-1h-1l2-1 1-1h1v1h0v-1h-1-1v1h-2v1l1 1h2l1-1 1-1h-1z"/><path class="shp25" d="M277 220l-4 4v-6l1 1 3 1z"/><path class="shp26" d="M277 220h-1v1l-1 2-1 1h-1l-1-1 1-3v-1-1 1h3v1h1-1 1l-1-1h-2l-1-1-1 5v1h2l3-4z"/><path class="shp25" d="M271 218h4l-3 2-1-2z"/><path class="shp26" d="M271 218h4v1l-3 1-1-2v1l1 1h2l1-1v-1h-2l-2-1v1z"/><path class="shp27" d="M262 224l2 2c2 0 3-2 3-2l-4-1-1 1z"/><path class="shp28" d="M262 224v1h1l1 1h1l3-2-5-1-1 1v1-1 1l1-2 4 1-2 2h-1l-1-1h-1v-1 1-1z"/><path class="shp27" d="M263 224l3 1 4-2-4-3-3 4z"/><path class="shp28" d="M263 224l3 1 4-2-4-3-3 4 3-3 4 2-4 2-2-1h-1z"/><path class="shp28" d="M263 224l3 1 2-1-1 1h-3v-1h-1z"/><path class="shp27" d="M266 222s1 2 3 2l2-2-3-3-2 3z"/><g><path class="shp28" d="M266 222v1l3 1 2-1v-1l-3-3-2 3 2-3 3 3-2 2-2-1-1-1z"/><path class="shp28" d="M266 222s1 2 3 2l1-1-1 1h-1l-1-1-1-1zM263 225l1 1 3-1h-1v1h-3v-1z"/></g><path class="shp25" d="M271 217l3 4-1 3-4-2-1-2 3-3z"/><path class="shp26" d="M271 217v1h1l1 1 1 2v2l-1 1h-1l-3-2-1-2 1-1 1-1h1v-1 1-1l-2 1v1l-1 1 1 2 2 1 1 1h2v-3l-1-2-1-1-1-1z"/><path class="shp25" d="M261 219l-2-1v3c1 1 3-1 3-1l-1-1z"/><path class="shp26" d="M261 219v-1h-2v4h1v-1l2-1-1-1v1h0v1h-1-1v-1-2h1l1 1z"/><path class="shp25" d="M261 220l-2 2 2 1 2-1-2-2z"/><path class="shp26" d="M261 220h-1v1l-1 1 1 1 1 1v-1h2v-1l-2-2 2 3v-1l-1 1h-1-1v-2l1-1z"/><path class="shp25" d="M262 222l-2 1 2 2 1-1c1-1-1-2-1-2z"/><path class="shp26" d="M262 222h-1v1h-1l1 2h2v-1h1v-1h-1l-1-1 1 1v2h-1l-1-1v-1c-1 0 0 0 0 0l1-1z"/><path class="shp25" d="M263 216h-2l-1 2 1 3 3-2-1-3z"/><path class="shp26" d="M263 216l-1-1h-1l-1 1v2l1 3 3-2-1-3 1 3-3 1v1l-1-3v-1l1-1h2z"/><path class="shp25" d="M263 218l-2 2 1 2 3-2-2-2z"/><path class="shp26" d="M263 218l-1 1h-1l-1 1 1 2 1 1 1-1 2-2-2-2 2 2h-1l-1 1v1h-1-1v-2l1-1 1-1z"/><path class="shp25" d="M266 222l-3 2-1-2 2-2c1-1 2 2 2 2z"/><path class="shp26" d="M266 222l-1 1-1 1h-1l-1-2 1-1 1-1h1v1l1 1v-1l-1-1h-1l-1 1-1 1v2h1l2-1 1-1z"/><path class="shp25" d="M267 212h-2c-2 0-3 2-3 4l1 3 4-3v-4z"/><path class="shp26" d="M267 212h-2l-2 1-1 2v3l1 1 1-1 3-2v-4 4h-1l-1 2h-1l-1 1v-1l-1-2 1-2 2-2h2z"/><path class="shp25" d="M265 221l-2-3 3-3 1 3-2 3z"/><path class="shp26" d="M265 221v-1h-1l-1-2v-1l1-1 2-1v1l1 2-1 2h-1v1l2-2v-1-2-1h-1l-2 1-1 1v3l2 1z"/><path class="shp25" d="M268 220l-1 2c-1 1-2 0-3-1l1-2 2-1 1 2z"/><path class="shp26" d="M268 220l-1 2h-1-1l-1-1v-1h1l1-1h1v-1 1l1 1-1-2-1 1h-1l-1 1v1l1 1h2l1-2z"/><path class="shp25" d="M266 217v2l2 1 2-1 2-2-2-2-4 2z"/><path class="shp26" d="M266 217l-1 1 1 1 1 1 1 1h1l1-2 1-1 1-1-2-3-4 3 4-2 2 2-1 1-1 1-1 1h-1-1l-1-1v-1-1z"/><path class="shp27" d="M269 211l-2 1c-1 0-2 2-1 3v2l2-1 1-2-1-1 1-2z"/><path class="shp28" d="M269 211l-2 1-1 2v0l1-3h2z"/><g><path class="shp4" d="M285 213l-2-1-1-1-2 1 2 2 3 1 1 1h1l-2-3zM289 220v1l-2-1-6-1 1-1 1-1v-1h3l1 1 1 1 1 2z"/><path class="shp4" d="M289 220h1l1-1-1-2v-6l-6-5v3l2 5 1 3 2 3z"/></g><g><path class="shp39" d="M284 208l1 3 3 8-1-2-4-10c0-4 1 1 1 1zM288 211l-1 3 1 2v-1c1-1 1 2 2 2v-5l-2-1zM290 222h-5l-5-2 6-1 3 1h1l2-1v2l-2 1zM281 222s2 1 1 2h-3l5 1 1-1-4-2z"/></g><path class="shp4" d="M280 221l2 1 2-1 1 1h1l-1 1h-3l-2-1v-1z"/><path class="shp39" d="M291 218l1 1v-6l-2-1 1 6z"/><path class="shp6" d="M285 213l-1-2-3-3 1-3 2 2v3l1 3z"/><path class="shp4" d="M276 224l2-2h3l3 2h1-9z"/><path class="shp3" d="M290 212l1 4 1 3-1 1h-2 1l-1-3v-3l-1 1v-5c1-1 2 2 2 2z"/><path class="shp39" d="M280 222v-1s1 2 4 2l3-1h1v1l-2 2-1 1-1-3-3-1h-1z"/><path class="shp3" d="M285 213s-4-3-5-6c-2-2-2-6-2-6l4 5v2l3 5z"/><path class="shp39" d="M284 228l1-2 7-6v4l-6 4h-2z"/><path class="shp3" d="M285 225l1-2h-3l-3-1 3 2h1l1 1zM294 225l-1-2-1-3-1 1-2 1 2 1-3 1h2l-2 2-3 1-1 1h2l3-1 5-2z"/><path class="shp39" d="M294 225l-2-5-2-7 3 1 2 3-1 8z"/><path class="shp3" d="M294 216v9l3 2 1-3-1-4-3-4z"/><path class="shp7" d="M297 220s2 7 0 8l-3-3 3 2v-8 1zM294 225l-1-1-3 3-6 1s2 1 6-1l4-2z"/><path class="shp39" d="M286 216l2 2 1 2-1-2-3-3 1 1z"/><path class="shp3" d="M285 226l-1-2h-8l4 1h4v1h1z"/><path class="shp7" d="M285 226l-1-1h-4l-4-1 4 1 5 1z"/><path class="shp39" d="M285 216l-3 1-2 3h2v-3l3-1z"/><path class="shp3" d="M280 212l2 1 3 1 1 2-4-2-2-2z"/><path class="shp3" d="M283 212l-1-1h-2v1l1 2 1-1-2-1h3z"/><path class="shp7" d="M311 194l11 12-17 7-9 2-4-3v-5l19-13z"/><path class="shp6" d="M346 228l-2 2-6-1-13-10-5-4v-6l26 19zM353 223l-15-9-20-11 2 6 22 16 7 3 3-2 2-2-1-1z"/><path class="shp40" d="M320 211l13 11c6 4 12 8 13 7v-2l-27-17 1 1z"/><path class="shp6" d="M337 232l-3-1-17-13 1-3h2l19 15-2 2z"/><path class="shp7" d="M353 223s-2 5-6 4c-4 0-28-19-28-19l1 2s24 18 28 19c4 0 8-4 7-5l-2-1z"/><path class="shp40" d="M318 215l12 11 9 5c1-1-1-2-1-2l-12-9-6-5h-2z"/><path class="shp7" d="M319 215s20 16 22 16c3 1 7-3 7-3h-2s-1 2-5 2c-4-1-21-16-21-16l-1 1z"/><path class="shp6" d="M331 232h-2l-1-1-7-6-2-3-1-3 15 12-2 1z"/><path class="shp7" d="M340 230s-2 3-4 3l-3-2-14-11-1-2 18 14c2 0 3-2 3-2h1z"/><path class="shp7" d="M333 231s-1 2-3 2l-2-1-9-8v-3l11 11c2 0 2-2 2-2l1 1z"/><path d="M322 208l9 6h3l-2 1 5 3h4l-2 1 4 2h5l-4 1 6 4-7-3v2l-1-3-5-3v0l-5-3v1c-1 1-1-1-1-2l-9-7z" fill="#b57330"/><path class="shp6" d="M315 220v-7l-1-3-4-6-1 1-4-2 1 3v3l7 11h2z"/><path class="shp5" d="M303 226l2 1-1-4-10-11c-2 0 9 14 9 14z"/><path class="shp5" d="M308 221v4c-2 1-11-10-13-11l-6-4 6 1 12 9 1 1z"/><path class="shp7" d="M303 226l-1-3-1-2-7-9-3-1v3l6 6 6 6z"/><path class="shp6" d="M312 223v-4l-6-10h-2l-3-1-2-2 1 4v2l5 6 7 5zM317 217l1-2-1-5-4-11h-2l-2-1 2 6 4 9v3l2 1z"/><path class="shp7" d="M307 220l-5-5-2-3h-2l-3-1s-1 1 5 6 7 3 7 3z"/><path class="shp5" d="M315 221c2-1 1-7-1-11l-4-6 4 8v4l-2-4-2-2 4 9-8-11v1s6 13 9 12z"/><path class="shp6" d="M315 193l3 4 1 5 1 5v9l-2-1-3-10-3-9 1-1v-2h2z"/><path class="shp5" d="M312 223v-2h-1l-2-3-1-2-1 2c-1 1-6-7-6-7l-1 1s8 13 12 11z"/><g><path class="shp7" d="M309 218v-4l-3-5h-2l-3-1 3 5 5 5zM312 215l-3-7-4-5 1 2v2l3 3 3 5zM316 208l-1-7-2-6h1l1 2v-3l-1-1h-1v2l-1-1v5l2 4 2 5zM320 207s0-7-2-10c-1-4-3-5-3-5v1l3 6 2 8zM314 210l-2-7-2-4-1-2 1 5v1l2 3 2 4z"/></g><path class="shp9" d="M318 218c2 0 0-7-1-9l-5-10 5 12-2-3 2 8-2-1 1 1s0 2 2 2z"/><path class="shp9" d="M319 214l-1-9-4-9 4 9 2 10h-2v-2l1 1z"/><path class="shp10" d="M307 220s-1 3-2 2c-2-1-3-4-2-6l2 5 2-3v2z"/><path class="shp4" d="M312 191h3l1-4-1-2 2 2c0 2 0 5-3 6h-1l-1-2z"/><path class="shp3" d="M309 186l3 5 1 4-1-1-3-8z"/><path class="shp42" d="M276 193l15 16 13-19-10-9-18 12z"/><path class="shp6" d="M303 185l2-4-1-1v-1l-4-5-1 2-1 1-2-1-2 3-2-1-1 2v3l2 5 2 2 4 2v-5l1-1 2 1 1-2z"/><path class="shp43" d="M299 192v-2l-1-8-2-4s2 3 2 7v7h1zM299 184s2 3 3 2 0-5-1-6l-2-4h1l1 4c1 1 2 5 1 6s-3-1-3-1v-1z"/><path class="shp3" d="M292 187l2-1h1l1 2 2 3 1 1-1 1h-1l-3-1-1-1-1-4z"/><path class="shp4" d="M300 212c-1 1-3 0-5-1l-9-7-1-4 3 1 4-3 1-1 5-4 3-2 6-1 1-3 3 5 1 7-3-1c-1-1 2 6 0 7l-4-3s2 6 0 7l-6-3s2 5 1 6z"/><g><path class="shp3" d="M298 204l1 2v4l-3-3-3-4 5 1zM309 188s3 9 2 10l-5-3-6-7-1-1 1-1 2 1 7 1zM294 208l-2-2-4-3-3-3-1-1 1-1h1l7 5 1 5zM304 207s-5-2-7-5l-5-5-1-2h2l11 12zM305 202l-4-2v-3l4 5zM307 202l-5-6-3-2-2-1h1l1-1 1-2 6 9 1 3z"/></g><path class="shp39" d="M295 211l-1 1c-2 0-9-3-13-8l-4-6 1-1 13 11 4 3z"/><path class="shp3" d="M295 211l-1 1c-1-1-4-1-9-6-5-4-7-8-7-8v-2l1-1 9 11 7 5z"/><g><path class="shp6" d="M302 205l-4-3-5-6 1-1v-3l2 1 3 3 2 1 1 4-3-1 3 5zM298 204v2c0 1 0 2-2 0l-3-3v2l-4-3-3-4v-3l-1-3 1 1v1l5 5 1-1 3 4 3 2zM281 199l7 8 7 4-11-11-3-1zM306 200l-4-4-2-6-1-4 5 5 2 4-3-1 3 6zM310 196l-3-3-1-4-2-3v-4h1l3 2 1 5 1 7zM284 208l-5-7-2-3h1s1 4 6 8l7 4v4l-7-6z"/></g><g><path class="shp7" d="M290 213l-8-7-6-7 1-2 6 8 7 8zM295 211l-8-7-4-4h2l3 4 7 7zM293 203l-4-5-3-4 5 4h1v2l1 3zM293 190l1 4-1 1 2 2 3 2-2-3-2-3 3 1 4 3-3-4-5-3z"/><path class="shp7" d="M304 196l-3-5-2-6v3l-1 4-2 1h1l2-1s0-2 1-1l2 2 2 3z"/><path class="shp7" d="M299 185s2 2 3 1v-5h2v-1l5 6 2 6-4-6-3-4v3l3 4 1 4-2-3-2-1-2-2h-2l-1-1v-1z"/></g><path d="M292 197l3 4 3 3-4-3-2-4z" fill="#212426"/><path class="shp3" d="M308 196l-2 1 2 2 1 1v-2-2h-1z"/><path class="shp4" d="M278 183l-2 1-1 3 1 6 3 4 5 4 2-4-1-4 3 2 3 3 2-5-6-11-2-1-7 2z"/><path class="shp39" d="M289 191l2 4v3l2-5-1-8v-5l-2-1-2 5 1 7zM281 189l1 6 2 4 1-6-1-6-1-5-2 7z"/><path d="M273 181s-3 6-2 8c0 3 0 3 2 5l2 7v-1l-2-19z" fill="#4d4137"/><path class="shp39" d="M273 182l-2 7 2 5c2 3 2 7 2 7l2-2 2-2-1-3-2-2-1-1v-5l1-3v-2l-3 1z"/><path class="shp46" d="M291 188h-2l-1-2v-1l3 3z"/><path class="shp4" d="M274 182s-2 5-1 9l3 7v-1l-1-10 1-4v-1h-2z"/><path class="shp3" d="M280 182v3l-2 2v4l1-3 1-1v3l-1 2 1 3v-2l1-2 1 3v-2l2-3-1-1v-5l2-1-3-2-2 2z"/><path class="shp46" d="M292 191h-3v-1l2 1h1z"/><path class="shp3" d="M277 194v1l-1 2-1-4v-2l-1 1v-3-2l-1 1-1 1 1-2 2-4v-1l1-1 2 2-1 1-1 4 1 6zM287 182v3l-1 2v1l1-1 1 2 1 3v-2l1 1h2l-1-1-2-1v-3l1 1 2 1-1-1-1-3 1-3v-2l-4 3z"/><g><path class="shp42" d="M299 176l1 4 2 5-3-4-2-5-1 2 2 5-2-2-1-3v3l2 2h-1l-1-1v2l2 2-2-1v-1l1 4 2 3-3-3-2-9 1-3 1-5 2 5h2zM289 176l1 2 1 1-3 3-3 2-1-1 3-3 1-3 1-1zM276 182l2 2 4-4 1-1-1-1-4 4h-2zM276 178v4h-2l-1-2h2l1-2zM300 172l2 4 2 3-3-2-1-1v-2-2z"/></g><path class="shp46" d="M273 180h2l1-2v3l2 1 2-1 2-3 1 3c1 2 2 2 3 1l2-4 1-1 1-1 1-7-1-1-2 1h-2v-1l-1 2-1 1h-2l-1-1-1-1-3 3h-1l-2 3-1 2-1 3h1z"/><path class="shp3" d="M286 172v5l-2 4s3-2 4-5v-7l-2 3zM289 169v8l1 1 2 2 2-3 1-4h1l1 2 2 1 1-1-2-5-2-4-2-2-3 1-2 4z"/><path class="shp39" d="M294 164l2 4v5l-1-5-1-3v-1z"/><g><path class="shp6" d="M300 172v3l-3-3-1-5-2-3h2l4 8zM292 178s3-2 3-7l-2-7-1 8-1 5 1-1 1-2v2l-1 2zM288 169l-1 3-3 2 2-3v-2l-1 1-2 1 1-2 1-3 2 2 1 1z"/></g><path class="shp42" d="M298 162l1 4 1 6-3-3-1-3-1-2h-1v-1-1h4zM292 174l1-6v-4h-2l-1-2v3l-2 4h2c2-1 1-3 1-3l1 2v6z"/><path class="shp3" d="M272 180l1-4 2-4h1l3-2 1-3 1 3 2 1v3l-1 4v-3c-1-1-1 0-1 1l-2 2 1-3v-1l-1 1v-1l1-3 1-1h-1l-1 1-2 2v3l-1 3-1 1 1-3 1-4h-1l-2 3-1 4h-1z"/><path d="M298 160v2h-3l-1-2h4z" fill="#8f512e"/><path class="shp48" d="M276 166l-1 3-1 3h2v-6z"/><path class="shp46" d="M290 162s0 7-2 7c-2 1-3-3-3-3s0 5-2 5-3-3-3-4c0 0 0 3-2 4-2 2-4 1-4 1l2-6 1-1 1-1 4-2 1-2 2-1 1-2 3 3 1 2z"/><path class="shp48" d="M281 155l4 4 1 1v2l1-1 2 6v-5c0-2 0 0 1 0 0 0 2 3 4 3l1-4-2-5-8-3v2h-4z"/><path class="shp3" d="M291 154l1 2 1 7-3-1-1-5-2-3v-2l2-1 2 3z"/><path class="shp6" d="M290 152l4 4 3 4h1s-1 2-3 1l-3-5c-1-3-4-4-4-4l1-1 1 1z"/><path class="shp42" d="M289 150l4 3 3 5 2 2h-1l-2-2-3-4-3-2 2 2 2 4-2-3-4-3 2 3 2 4-2-3-2-2-2-2 2-1 2-1z"/><path class="shp3" d="M282 155h4l1 2-1 2-1-2-3-2z"/><path class="shp48" d="M284 160v4l-2 6-1-5v-1-1l2-3h1z"/><path class="shp3" d="M280 162l-2 1v1l1 1-3 4 3-3 1-2 1-1h1l1 3v-3-3h-1l-1-1-1 3z"/><path class="shp46" d="M288 148v3l-2 1-2-1-4-1-3-1h-1v-1h3l4 1h5v-1z"/><path class="shp39" d="M288 148v1l-2 1-5-2h-4c-1 0 0 0 0 0h5l4 1 2-1z"/><path class="shp6" d="M276 148l1-1h1l-1 1h-1z"/><path class="shp46" d="M285 152l2 3-3-1-6-2h-2l-1-1 1-1h7l2 2zM282 155l3 4-7-3-2 4-6-2 5-5v-1l3 1 4 1v1z"/><path class="shp39" d="M280 150h4l4 1-3 1-2-1-3-1z"/><path class="shp6" d="M276 149h4v1h-4v-1z"/><path class="shp39" d="M286 154l1 1-2 1h-2l-4-2-3-1h-1l1-1h4l3 1 2 1h1zM280 157l1 3-1 2-1 1-1-1v-1l-2-2 1-2v-1l3 1z"/><path class="shp6" d="M275 151l2 1h4-1l3 1 3 1-3-1h-8v-1-1z"/><path class="shp39" d="M285 159v1l-4-1-1-1-3-2c-1 0 0 0 0 0l5 1 3 2z"/><path class="shp6" d="M285 159s-2-2-7-3l2-1h-3-3-1l-1 1h3l2 1-2 3 2-2h2l-2-2 4 1 4 2z"/><path class="shp46" d="M277 156s4 1 4 4c0 4-2 3-3 2h1l1-2-1-3-2-1z"/><path d="M262 149v3l-2 5c-3 4-4 4-3 5l1 1 4-8 1-4v-1l-1-1z" fill="#77432c"/><path class="shp46" d="M274 143l1 6c0 4-5 8-5 8l-7 6h-3-1l-1-1v-2l3-3 1-3 1-3-1-2 1 1 1 2v3l1-2 3-1 1-2v-5-2l1 2 1 3 1-1 1-2 1-2z"/><path class="shp9" d="M276 162l1 2c0 2-1 3-2 3v-2l-2-1-1-1 2-1h2z"/><path class="shp39" d="M275 163h2v-2l-1 1-2-1-2 1h3v1z"/><path class="shp9" d="M264 158h2l3-1 2-2c1-1 4-3 4-6l-1-6s4 4 1 10l-4 4h4v2l3 2h-4l-3 2h-3l-3 1-5-1 2-3c0-2 2-2 2-2z"/><path class="shp39" d="M271 148l2-3 1-2-1 3-2 2z"/><path class="shp9" d="M270 145s2 5 1 7-7 5-7 5 5-2 6-6v-6z"/><g><path class="shp42" d="M266 158l3-1 2-2-1 1-1-1-1 2-2 1zM270 151l1-5-2-3 1 4v4zM272 152l2-2v-3 2l-2 3zM272 163l2-2 1 2-1-1-2 1zM268 160l4-2 3-1-3 3-3 1 4-2-5 1z"/></g><path class="shp1" d="M263 156c2 1 2 3 1 5l-4 1 3-6z"/><path class="shp50" d="M263 157c1 1 2 2 1 3s-2 2-3 1l2-4z"/><path d="M262 158l1 1c0 1 0 2-1 1h-1l1-2z" fill="#131516"/><path d="M262 160v-1 1z" fill="#d5d4cc"/><path class="shp39" d="M264 154l1-4v-4l1 1 1 2v3l1-1c1-1 2-5 1-8v5c0 3-1 4-3 5l-4 6-2 4 1-4 2-3 1-2z"/><path class="shp9" d="M263 156v-4l-1-3 2 3-1 4z"/><path class="shp6" d="M266 152l1-3-2-3s2 0 2 3l-1 3z"/><path class="shp39" d="M259 163l-1-2 2-2 2-4c1-1 2-4 0-6v5l-3 5-2 2 1 2h1z"/><path class="shp53" d="M275 167l1-1-1-2-2-1h-2l1 1 2 1 1 2z"/><path class="shp53" d="M275 167s2-1 2-3v-1h1s0 3-3 4z"/><path d="M263 168h1l1 1 4-1 1-2-1-2-3 1-3 3z" fill="#c58134"/><path class="shp50" d="M273 165l-1-1-1-1h-3l-2 1h-5l-2-1h-2l-1 1v1h-1s-3 3-3 6 6 7 8 5c0 0-3-2-3-4 1-3 2-4 5-4l3-2c1-1 3-2 5 0 2 1-6 4-6 4l1 1s9-4 8-6z"/><path class="shp3" d="M273 165l-1-1-1-1h-3l-2 1h-3l-1-1-1 1 1-1h-3l-2-1v1l-1 1v1h-1l-1 2-2 4 2 4 5 2 1-1h1l-1-1-1-1-2-2 2-3 3-1 2-1 1-1 2-1 3 1v1l-1 1-3 1h-1-1l1 2 4-2 3-2 1-1v-1 1l-2 1-4 2-1 1h-1v1l1-1-1-1-1 1h1l2-1 2-1 1-1v-1l-3-1-2 1-1 1h-2l-4 2-1 3 2 3 1 1h-1l-4-1-3-4 2-4 1-1v-1 1h1v-1-1h1v-1h2l2 1 4 1 1-1h2v-1 1l2-1h1l1 1 1 1z"/><path d="M257 174s-4 0-4-3c0-4 3-5 4-6l1-2 2 1h2s-7 4-6 8l1 2z" fill="#f5ecd0"/><path d="M273 165c-1-1-3-2-4-1l-4 1h-2l-5-2-1 2h-1l2-2c3-1 5 1 7 1l4-1c2-1 4 0 4 2z" fill="#f3e2a4"/><path d="M263 168l3-1 2-1-2 2h-3z" fill="#5b3d30"/><path class="shp50" d="M259 176l-4-1-3-3 1-5c2-2 3-2 3-1l-2 1-1 2v3l1 2 3 1 2 1z"/><path d="M256 164v-1 1-1 1-1 1-1 1-1 1-1 1l-1 1 1 1h1l1-1h-2v-1h1v-1h-1v1z" fill="#93532e"/><path class="shp50" d="M263 166l-4 2h4l1-1 5-1c1 1-4 3-4 3v1l4-2 2-1v-1l-2-2-3 1h-1l-2 1z"/><path class="shp3" d="M257 173l2 3h-1c-2 0-4-1-6-4v1l1 1 2 1 2 1 2 1 1-1-1-1-2-3v1z"/><path class="shp36" d="M276 210v2h-1v-2h1zM266 171l-1-2h-1l1 2h1z"/><g><path class="shp35" d="M276 214l-2-1-3-1v1h3l1 1h1zM276 210h-2-1l-2 1v1l2-1 1-1h2zM275 207l-3 2-2 1 1 1v-1l1-1 2-1 1-1zM273 204v1l-1 1-2 3-1 1h1l1-2 1-1 1-1v-2zM270 203v2l-1 3v2l2-4v-2l-1-1zM268 203v3l-1 2v2l1-4v-2-1zM266 203v0zM264 204v-1 1zM262 204v3l1-3h-1zM260 204v3l-1 2-1 1 3-2v-3-1h-1z"/><path class="shp35" d="M259 204l-1 2-1 2h-1v1l3-2 1-3h-1zM257 203v1l-1 1-1 1v1l1-1 1-1v-1l1-1h-1zM256 202v1l-1 1-1 1 1-1 2-2h-1zM256 202l-1 1h-1 1l1-1zM256 201h-1l-1 1 2-1zM255 199l-1 1h-1v1l2-1v-1zM255 197h-1l-1 2h1v-1l1-1zM266 180h2-1-1zM266 179h1l1-1v-1l-1 1-1 1zM265 177h1l1-1 1-1-2 1-1 1zM264 176l2-2 2-1-2 1-2 2zM263 174l4-3h-1l-3 3zM261 173l2-2 2-1v-1l-2 2-2 1v1zM260 172l2-2 1-1 1-1h-1v1l-3 2v1z"/></g><path class="shp31" d="M262 168h1l3 2 2 5v1c0 2 0 4-2 6l-7 8-3 4-1 4v1l1 3 4 2h1l7-1 5 1c2 2 3 4 3 7v0c0-3-1-5-3-7-1-2-3-2-5-2l-7 2h-1l-3-2-2-4 2-5 7-8c3-3 5-6 5-9v-1c0-2-2-4-3-5l-3-3-1 1z"/><path class="shp50" d="M263 167v1h-1l1-1z"/><path class="shp3" d="M263 168h-1 1z"/><path class="shp26" d="M275 218h1c0-1 0 0 0 0h-1z"/><g><path class="shp29" d="M260 172v-1h-1l1 1zM261 173v-1 1z"/><path class="shp31" d="M263 174zM265 176h-1 1zM265 178v-1 1zM266 179h-1 1zM266 180z"/></g><path class="shp31" d="M253 199v-1 1z"/><path class="shp1" d="M253 200v0z"/><g><path class="shp31" d="M254 202h-1l1 1v-1z"/><path class="shp1" d="M254 203zM254 205zM255 207v-1 1z"/><path class="shp29" d="M256 209z"/></g><path class="shp29" d="M258 210c-1 0 0 0 0 0v1-1zM270 210h-1 1c0 1 0 0 0 0z"/><path class="shp1" d="M271 211l-1-1v1h1z"/><path class="shp29" d="M271 211v0zM271 213v-1 1z"/><g><path class="shp1" d="M271 214zM247 155v0z"/></g><g><path class="shp15" d="M384 192l5 2v-2h-5z"/><path class="shp16" d="M389 195v-3l-5-1v2-1h5v2l-5-2v1l5 2z"/><path class="shp15" d="M384 191v2c-1 1-2 0-3-1l1-2 2 1z"/><path class="shp16" d="M384 191v2l-3-1 1-2 2 1h1l-3-1-1 2c1 1 2 2 3 1l1-2h-1zM385 192l1 1h-2l1-1z"/><path class="shp16" d="M384 191l-1 2-2-2v1l1 1h2v-1l1-1h-1z"/><path class="shp15" d="M395 190l-5 4-1-2 5-2h1z"/><path class="shp16" d="M390 194l-1-2 5-2h1l-1-1-5 3 1 3 5-5-5 4z"/><path class="shp15" d="M397 188l-1 3-2-1c-1-1 0-2 1-3l2 1z"/><path class="shp16" d="M397 188l-1 2h-2c-1-1 0-2 1-2h2l-3-1v3l2 1 1-3z"/><path class="shp16" d="M396 188s0-1 0 0v2l-2-1v1l1 1h1v-1l1-1v-1h-1zM393 190v1l-1 2 2-3h-1z"/><path class="shp14" d="M394 175c2 5-1 9-3 11l-2 5 1 3v2l-1 1v-3l-1-3-2-4-1-2-4-4-3-6-2-1h3l5 5-1-13 3 3 2 3v-4l1 1c1 1 4 2 5 6z"/><path class="shp13" d="M376 174l3 3c0 2 1 5 3 7l4 3 2 4-3-7-2-1-4-7c-1-2-3-2-3-2zm14 22l-1-6 1-6 2-7-4-9v3l2 7-1 9-2-6c-2-4-1-5-1-7l-3-8-1 5 2 9 4 6 1 4v3l1 3z"/></g><g><path class="shp15" d="M344 266v6l2-1-1-5h-1z"/><path class="shp16" d="M344 266v6l3-1-2-5h-1v1l1-1 1 4-2 2v-6 1-1z"/><path class="shp15" d="M346 265l-2 2-2-2 2-2 2 2z"/><path class="shp16" d="M346 265h-1l-1 2-2-2 2-2 1 2h1l-2-2-2 2 2 2 2-2z"/><path class="shp16" d="M345 267h-1v1-1l1-1v1z"/><path class="shp16" d="M345 266h-1l-2-1 1-1h-1v2h1v1h1l1-1z"/><path class="shp15" d="M351 275l-4-4-2 2 5 3 1-1z"/><path class="shp16" d="M351 275l-4-4-3 2 6 3 1-1h-1l-5-2 2-2 3 4h1-1 1z"/><path class="shp15" d="M350 277l1-2h2v2h-3z"/><path class="shp16" d="M350 277v-1l1-1 1-1 1 1v2l-1 1-2-1 2 1 1-1 1-1-1-1-1-1-1 1-1 1v1zM350 275l-5-2 5 3v-1z"/><path class="shp16" d="M353 276l-1 1h-1l-1-1c0-1 0 0 0 0v1l1 1h1l1-1v-1z"/><path class="shp15" d="M381 218l4 4 1-2-4-3-1 1z"/><path class="shp16" d="M381 218l4 4 1-2-4-3-1 1 1-1 4 3-1 2-4-4z"/><path class="shp15" d="M382 217l-1 1-2-1 2-2 1 2z"/><path class="shp16" d="M382 217l-1 1-2-1 2-2 1 2h1l-2-2-2 2 2 2 2-2h-1z"/><path class="shp16" d="M383 218v1l-1-1h1zM382 217l-2 1-1-2c1-1 0 0 0 0v2h3v-1z"/><path class="shp15" d="M392 220l-6 2v-2l6-1v1z"/><path class="shp16" d="M392 220l-6 2v-2h6v-1l-6 1v2l6-2z"/><path class="shp15" d="M395 219l-2 2-2-2 2-1 2 1z"/><path class="shp16" d="M395 219l-2 2-1-2 1-1 2 1-2-1-2 1 2 2 2-2z"/><path class="shp16" d="M395 219s-1-1 0 0l-2 2-1-2h-1l1 1v1h2v-1h1v-1z"/><path class="shp16" d="M390 220l-2 1 4-1-1-1-1 1z"/><path class="shp15" d="M371 251l-4-6h1l4 5-1 1z"/><path class="shp16" d="M371 251l-4-6h1l4 5-1 1 1-1-4-5h-1l4 6z"/><path class="shp15" d="M367 242l2 2-2 2-2-2 2-2z"/><g><path class="shp16" d="M369 244h-1l-1 1-2-1 2-2 1 2h1l-2-2-2 2 2 2 2-2zM370 247l-1 1v1l-1-4 2 2z"/><path class="shp16" d="M368 244l-2 1v-2h-1v2h1l1 1 1-1v-1z"/></g><path class="shp15" d="M371 251l5 1v-1l-4-1-1 1z"/><path class="shp16" d="M371 251l5 1v-1l-4-1-1 1 1-1 4 2-5-1z"/><path class="shp15" d="M379 252l-1 2-2-2 2-2 1 2z"/><g><path class="shp16" d="M379 252l-1 2-2-2 2-1 1 1-1-2-2 2 2 2 1-2zM375 251h-2l3 1v-1h-1z"/><path class="shp16" d="M379 252c1 1 0 2-2 2l-1-3v2l1 1h1l1-1v-1z"/></g><path fill-rule="evenodd" class="shp14" d="M316 286l-5-4-7-2v1l6 3 3 2h3zm82-80c0-4-2-6-3-7v-1l-1 3-1-4-2-4-4 13-3-6c-1-3-3-3-3-3l2 2v7l2 6 1 2-1 4v4l-1 2-4 4v-2l1-1h-1l-4 4-3 6v12l-1 3-3 2-3 1-5 3 1-4-1-3v1l-2 4-3 3-5 5v2l-2 4-2 1-4 4-1 1h-7l2-2 1-1h-1l-1-1h-3l-7 3-7 5-4 1-6-2h-4l-1 1v1h6l4 1 2 2s6 5 10 6c4 0 12-5 14-6h4l-4-2h-3l4-2 2-3 2-3 2-1 3-1s11 0 16-2c5-3 4-8 4-9l1-2-1 1h-2l1-3v-2h1l1-1 1-2 2-2 1-1 7-2c4-2 5-8 6-11s4-5 4-5h-1l-2 1-3 2v-5-5l1-3 3-4c3-2 7-4 8-9z"/><path fill-rule="evenodd" class="shp13" d="M381 197l3 4v8l2 2v7l-1-4c0-2-2-2-3-4l1-8c0-3-2-5-2-5zm5 24l1-3v-4l-1-7 2-10 3-4v8l-3 7v7l5-8 1-7 1-2v9l-4 6-4 4-1 7h-1l-2 5-3 9-4 4-1 3 1-8 6-11c1-2 3-2 3-2l1-3zm-13 22l-2-7c0-3 1-6 4-8 3-3 6-3 6-3l-7 8-1 11v-1zm2 2zm11-13c4-4 6-3 6-3l-5 3-6 10-6 6-3 3-2 2c-1 0-1 0 0 0l1-1 4-5 4-4 7-11zm-69 48l5-1c3-1 10-6 17-6l4 2h-6c-4 2-8 6-15 6-3 1-5-1-5-1zm26-5l3-3c1-1 2-2 5-2 0 0 6 0 9-2l7-6 4-5-3 1c-1 1-2 5-7 8l-8 3-4 1-5 4-1 1zm0 0zm-29 10l2 1-2 1-2-1-3-3-4-2h-1l5 2 4 2h1zm6-8l6-5c2-2 4-2 7-2l5 1h-5c-2 0-6 3-10 6-3 3-8 2-8 2l5-2zm24 5l-5-1c-3 0-8 4-15 4-5 1-7-4-12-5l-8-1s8-1 12 1c3 2 4 4 8 4s9-3 15-4l5 2zm0 0zm4-13l2-4 1-4c1-3 7-7 9-9l1-3s1 3-2 7l-7 7-1 3-3 3zm21-17l-1 1-3 4-7 4-6 6s1-4 6-9c9-8 11-6 11-6zm-26 23z"/></g><g><path class="shp15" d="M380 164l-5 2 1 1h5l-1-3z"/><path class="shp16" d="M376 167h5l-1-3-5 2 1 1-1-1 5-1 1 1h-5v1z"/><path class="shp15" d="M374 165l2 2-2 2-2-2 2-2z"/><path class="shp16" d="M374 165l2 2-2 1-1-1 1-2-2 2 2 2 2-2-2-2zM376 166h1l1 1-2-1z"/><path class="shp16" d="M375 165l1 2-2 1h2v-2l-1-1z"/><path class="shp15" d="M382 166l3-5h-1l-4 3 2 2z"/><path class="shp16" d="M384 161v-1l-4 4 2 2 3-5-1-1v1h1l-3 5-1-2 4-3h-1z"/><path class="shp15" d="M387 161c-1 1-2 0-3-1l1-2 2 1v2z"/><path class="shp16" d="M387 161h-1l-2-1v-1l1-1h1l1 1v2l1-1-1-2h-2l-1 1v2h3zM384 161v1l-2 4 3-5h-1z"/><path class="shp16" d="M386 158l1 1v2h-2 2v-3h-1z"/><path class="shp15" d="M331 122l-2 4v1l4-4-2-1z"/><path class="shp16" d="M329 127l5-4-3-1-2 4v1-1l3-4 1 1-4 4z"/><path class="shp15" d="M328 125l2 2-2 2-2-2 2-2z"/><path class="shp16" d="M328 125v1l2 1-2 2c-1 0-2-1-1-2l1-1v-1l-2 2 2 2 2-2-2-2z"/><path class="shp16" d="M329 125h2l-1 1h-1v-1z"/><path class="shp16" d="M328 125c1 0 2 2 1 3h-2l1 1h1l1-1v-1l-1-1-1-1z"/><path class="shp15" d="M332 122l-1-6h1l2 6h-2z"/><path class="shp16" d="M332 116l1 6h-1v-6h-1v6l3 1-2-7z"/><path class="shp15" d="M331 113l2 2-2 2-1-2 1-2z"/><path class="shp16" d="M331 113l2 2c0 1-1 2-2 1l-1-1 1-2h1c-2 0-2 1-2 2l1 2 2-2-1-2h-1z"/><path class="shp16" d="M331 113s-1 1 0 0l2 2c-1 1-1 2-2 1v1l1-1h1v-2l-1-1h-1z"/><path class="shp16" d="M332 118l1 2-1-4-1 1 1 1z"/><path class="shp15" d="M355 142l6-4 1 1-6 3h-1z"/><path class="shp16" d="M362 139l-6 3 5-4 1 1-1-2-6 5h1l6-3z"/><path class="shp15" d="M352 142l2-1 2 2-2 1-2-2z"/><g><path class="shp16" d="M354 141l2 2-2 1-1-2 1-1-2 1 2 2 2-1-2-2zM358 140h1l-3 2v-1l2-1z"/><path class="shp16" d="M355 141v2l-2 1h2l1-1v-1l-1-1s-1-1 0 0z"/></g><path class="shp15" d="M362 133l-1 4 1 1 1-4-1-1z"/><path class="shp16" d="M362 138v1l1-5-1-1-2 5 2 1v-1l-1-1 2-3-1 4z"/><path class="shp15" d="M363 130l2 2-2 2c-1 0-2-1-1-2l1-2z"/><g><path class="shp16" d="M363 130v1l2 1-2 2-1-2 1-1v-1l-2 2 2 2 2-2-2-2zM362 134v3l1-3h-1z"/><path class="shp16" d="M363 131c1-1 2 0 2 2l-3 1h2l1-1v-1l-1-1-1-1v1z"/></g><path class="shp14" d="M319 109c4 1 6 6 8 8l4 4 2 1 2 1h8l-2-3v-4s2 3 5 4c2 2 8 4 10 7l2 8 1 1 2 1 2 2v1l1 1h2l3 1-1-2v-1l2 1c1 0 5 0 8 5 3 4 2 16 2 16v2l2 3 2 2-1 1-1-1c-1-1-3-3-3-5l-1-1-5-2-1-1-5-5-3-3-4-2h-1l4-1 3 1-3-5v-3l-2-3-3-1-3-1h-9l-6-3-4-5h3l-3-3v-1l-3-1-3-1h-4l-3 1-5 1h-7l-2 1 2-3 6-1-12-5 4-2 4-1-3-1 1-1c1 0 3-2 8-2z"/><path fill-rule="evenodd" class="shp13" d="M312 123h8l3-1h6l-4 1-4 2c-2 1-6 0-8-1l-4 1 3-2zm20-1l-2-1-5-1-7 1-9-2-4-3h8l7 3 7 1c-1-2-6-4-8-5-2-2-6-1-7-2l-2-1 9 1c3 1 4 2 5 4 3 3 4 3 5 3l6 3 6 3 8 3 4 4 3 2-8-2-11-7-2-3-3-1zm27 15h-5l-7 1c-3 0-6-2-8-5-3-3-3-5-3-5l8 7 11 1 4 1zm-3-2zm-12-12c-4-4-3-7-3-7s0 4 2 5l11 7 5 7 3 3 1 2c1 1 1 0 0 0l-1-1-4-4-4-5-10-7zm34 40s0-2-4-3l-4-1-8-9-3-1s3-1 7 2l6 7 4 2c2 1 2 3 2 3zm-15-22l1 1 3 3 4 7 6 7-9-7c-7-9-5-11-5-11zm20 26l-4-5-1-4-2-8c-3-6-6-7-7-8l-1-3 5 4 5 8c2 3 1 9 1 9 1 3 1 4 3 5l2 3-1-1zm1 1z"/></g><g><path class="shp15" d="M225 167l-2-2 2-1 1 1-1 2z"/><path class="shp16" d="M225 167v-1h-1l-1-1h1l1-1 1 1v1h-1v1l1-1v-1-1h-2l-1 1 2 2z"/><path class="shp15" d="M222 167l-6 2v-2l6-1v1z"/><path class="shp16" d="M222 167v-1l-6 1v2l6-2-6 1 1-1 5-1v1z"/><path class="shp15" d="M224 168c-1 1-2 0-3-2l1-3c2 0 1 2 1 3 1 1 2 1 1 2z"/><path class="shp16" d="M224 168h-2l-1-2 1-2h1v2l1 1v1l1-1-1-1v-2h-1l-1-1-1 1v3l1 1h2z"/><path class="shp16" d="M224 168l-2-1v-3h1l-1-1v1h-1v3h1v1h2z"/><path class="shp16" d="M221 167h-1l-1-1h2l1 1h-1z"/><path class="shp15" d="M214 160l-2-2 2-2 1 2-1 2z"/><path class="shp16" d="M214 160h-1v-2-1h2v2l-1 1h1v-2-1l-1-1-1 1-1 1 1 2h1z"/><path class="shp15" d="M214 161l1 6 1-1-1-5h-1z"/><path class="shp16" d="M214 161v1h1l1 4-1 1v-6h-1v1-1l1 7 2-2-2-5h-1z"/><path class="shp15" d="M215 162c-1 1-3 1-3-1s1-1 2-2h3c1 1 0 2-2 3z"/><path class="shp16" d="M215 162h-2-1v-1-1h2l2-1h1v2l-2 1 2-1v-1-1l-1-1-2 1-1 1h-1v2h3zM216 163h-1v1-2l1 1z"/><path class="shp16" d="M214 162h-1l-1-1 1-1 1-1h-1l-1 1v2h2z"/><path class="shp16" d="M214 156l-1 2v2-1l-1-1 1-1v-1h1z"/><path class="shp15" d="M247 140l-2 1-2-1 2-1 2 1z"/><path class="shp16" d="M245 141h-1v-1-1h2l1 1h-1l-1 1h2v-1l-1-1h-1-1l-1 1 1 1h1z"/><path class="shp15" d="M241 140l-5 1 1-2h4v1z"/><path class="shp16" d="M241 140h1v-1h-5l-2 2 7-1h-1l-5 1 1-2h4v1z"/><path class="shp15" d="M243 142c-1 1-2-1-2-3l2-2 1 3s1 2-1 2z"/><path class="shp16" d="M243 142h-1l-1-2 1-2 1-1 1 1v4h-1 1v-1-1-2-1h-1l-1 1-1 1v1l1 2h1z"/><path class="shp16" d="M244 142h-1l-1-2v-2l1-1-1 1-1 1v1l1 2h2zM241 140h-1v-1h1v1z"/><path class="shp15" d="M236 133l-1-2v-2l1 2v2z"/><path class="shp16" d="M236 133l-1-1v-1-2h1v0h-1l-1 2 1 1v1h1z"/><path class="shp15" d="M236 134v5l-1 2v-7h1z"/><path class="shp16" d="M236 134h-1v7l2-2-1-5v5l-1 1v-6h1z"/><path class="shp15" d="M238 132c0 2-1 3-3 3l-2-3 1-1 1 1 2-1 1 1z"/><path class="shp16" d="M238 132l-1 2h-1-1l-2-1v-1l1-1 1 1h3l-1-1-1 1h-1v-1h-1-1v2l2 2h1l1-1 1-2z"/><path class="shp16" d="M236 135l-1 1v3-5l1 1zM236 134h-1c-1 0-2 0-2-2l1-1-1 1v1l1 1h2zM235 132v-1-2 3z"/><path class="shp15" d="M272 126l-1-2h2l1 1-2 1z"/><path class="shp16" d="M272 126v-1h-1v-1l1-1 1 1 1 1-1 1-1-1v1h1l1-1-1-1-2-1v2l1 1z"/><path class="shp15" d="M263 121l6 2-4-2h-2z"/><path class="shp16" d="M263 122v-1 1l2-1 4 2-6-2v1-1 1l6 2v-1l-4-3-3 1 1 1z"/><path class="shp15" d="M269 123c1-1 1-2 2-1l1 1-1 1-1 2h-1v-3z"/><g><path class="shp16" d="M269 123l2-1h1v1l-1 1v1l-1 1h-1v-2-1l-1 1 1 2h2v-1-1l1-1v-1l-1-1-2 2z"/><path class="shp16" d="M270 126h-1v-3l1-2-1 1v1l-1 1 1 1v1h1z"/><path class="shp16" d="M268 122v1l-2-1 3 1-1-1z"/></g><path class="shp15" d="M269 113l-2 1-1-2 2-2 1 3z"/><path class="shp16" d="M269 113l-1-1-1 2-1-1 1-1 1-2v1h1l-1 1 1 1v-2l-1-1-2 2v1l1 1 2-1z"/><path class="shp15" d="M266 115l-2 5h-2l4-5z"/><path class="shp16" d="M266 115h-1l-4 5h3l2-5-2 5h-2l4-5z"/><path class="shp15" d="M266 115c-2-1-2-1-1-2l1-1 1 1 2 1-1 2-2-1z"/><g><path class="shp16" d="M266 115l-1-1v-1-1h1l1 1 1 1h1v1h-1v1l-2-1 2 1h1v-1-1l-1-1h-1-1v-1h-1l-1 1v1l2 1zM266 116h-1l-3 4 3-5 1 1z"/><path class="shp16" d="M265 115v-1-2h1-1v3zM267 113v-1l1-2-1 1-1 2h1z"/></g><path class="shp14" d="M213 170h2l2-3 2-3 2-3 3-1 1-1-1-1 7-3 2-1-5-2 2-2 7-1-2-1-2-1 6-4h-1-3l2-4 4-4 3-1 2 1h3l-1-3 7-1h2l-5-3 2-2h4l1-1-3-1 3-2 5-1 6-2 3 1 1-1c1 0 4 4 5 3 2-1-2-4 0-4 3 1 3 5 7 5 2 0-2-4-1-4 1-1 3 2 5 2l2-1c1-1-3-3-3-3l1-2-4-1h-3l1-4-3 2-4 1v-4l-3 2-2 3-1 1-1 1-1 2-2 1-2 1h-7v-2l-3 2s1-4-1-4c-1 0-2 1-2 3-1 2-1 6-2 5-1 0 2-5-1-5-2 0-3 2-4 4v6c-1-1 0-4-2-5-2 0-2 3-1 4l-1 3-4 6-4 6v-3c-1-1-3 8-4 5-2-2 1-4-1-5-2 0-3 2-4 3 0 1 1 8-1 7-1-1 1-6-1-6s-5 4-4 5c0 2 3 4 1 5-1 1-2-2-2 0l2 5c-1 2-1 5-3 7l-3 4z"/><path class="shp13" d="M240 136l4-1 7 1c1-1-3-2-2-3h7c2-1 3-1 3-3l-5-2 5-1 1-2-3-1c0-1 3-2 2-3l-5 3 2 1 2 1h-3-2v-3-3 3l-1 3-1 2-2 1 3 1 4 1h-5l-4-1 1-3v-4l-1 4-1 4-2 1 2 1 3 1h-3l-2-1v-2l-1-3v6l-2 1-1 1zm19-16h5l6-2v-1l2 1-1-1v-2l1-1v2c-1 0 0 0 0 0h2l1-3 2-3-2 4v2l1 1 2 2-2-2v-2h3l1-2 3-2-2 2-1 2 1 2 3 3-2-3-1-2h2l2 1 1-1h1l-1 1 4 4c1 0 3 1 2-1l-2-2 1-2-3-2h-4c-1 0 2-1 2-3l-4-1-4 3c-1-1 3-4 0-5-2-1-4 5-5 5l-2 2-2 3s-4 3-7 3h-3zm-40 42v2l3-3 5-1c0-1-3-1-2-2 0-1 5 0 7-2 2-1 3-3 2-3-1-1-5 0-4-2l6-1c2 0 3-2 3-2l-4-1 2-2v-1l2-1h-2l-2 1-2 2v-2l-1-2v5l-2 2h3-4l-1 1-1-3v-4l-1 3v5l-2 3h8l-4 1h-4l-2-3-1-4 1 5 1 2-1 1-1 2-1-1-1-2 1 3v2l2-1h2l-2 1h-2l-1 2zm14-19h1l1-2 4-7-3 4-3 5z"/></g><g><path class="shp15" d="M219 188l-2 1v-2l2-1v2z"/><path class="shp16" d="M219 188h-1l-1 1v-1-1l2-1v2l1-1-1-1h-2l-1 2 1 1h1l1-1z"/><path class="shp15" d="M216 190l-4 4 1 2 3-5v-1z"/><path class="shp16" d="M213 196l3-5v-1l-4 4 1 2-1-2 4-4v1l-4 5h1z"/><path class="shp15" d="M216 190c-2-1-2-2-1-2l1-1 1 2h2l-1 2-2-1z"/><path class="shp16" d="M216 190l-1-2 1-1v1-1 1l1 1h1l1 1-1 1h-1l-1-1-1 1h3l1-1v-1h-1l-1-1-1-1-1 1h-1l1 3 1-1z"/><path class="shp16" d="M219 190l-1 1h-2l-1-2v1l1 1h3v-1z"/><path class="shp16" d="M215 191v1l-1 1 2-2-1-1v1z"/><path class="shp15" d="M205 188l1 2h-2l-1-2h2z"/><path class="shp16" d="M205 188l1 2h-1-1l-1-2h2l-1-1-1 1 1 2 1 1 1-1c1-1 0-1-1-2z"/><path class="shp15" d="M211 197l-4-5 1-1 4 4-1 2z"/><path class="shp16" d="M208 191h-1l5 4-1 1-4-4 1-1h-1 1-1v1l4 5 1-3-4-3h-1 1z"/><path class="shp15" d="M207 192h-2v-1l1-1 1-2 1 1-1 3z"/><path class="shp16" d="M207 192v-1l-2 1-1-1h1l1-1v-1l1-1h1v2l-1 1v1h1l1-2v-1l-1-1h-1l-1 1v1h-1v1h-1v1l1 1 3-1h-1z"/><path class="shp16" d="M208 192l3 4-4-4 1-1v1zM207 192h-1l-2-1h1-1v1h3zM205 190l-2-1 1 1h1z"/><path class="shp14" d="M212 200l1-6-1-6 2-3h-1c1-1 5-3 4-5 0-2-5 1-3-1 1-2 5-2 5-5 1-2-3 1-4 0l3-4 1-3c-1-1-4 3-4 3l-2-2-2 4-1 3-3-3v4l1 4-4-1 2 3 2 3 1 2 1 1 1 1v10l-1 1h2z"/><path class="shp13" d="M212 195l-1-7h-1l2-2-2 1-1-1-1-1 1 1h1v-2l-2-2-3-2 3 2 2 1 2-1 2-1-2 1h-2v-3l-1-2-1-3 1 2 2 2 2-1 4-2-4 1-2 1v-2l1-2v-1l1-3v3l5-3c0-1 1-2-1-2-1 0-1 2-3 2l-1-2s-2 1-2 3l-1 3c-1 1-1-2-3-2l-2 3 2 5c-1 0-3-4-4-1-2 2 3 5 3 6l1 2 3 2c0 1 2 5 1 8-1 6 0 2 1-1z"/></g><g><path class="shp14" d="M284 285l3-3 9-3v2l-3 1-3 1-3 2h-3z"/><path class="shp15" d="M257 265l-2 1-1-1 1-2 2 2z"/><path class="shp16" d="M257 265l-1 1h-1l-1-1 1-1v-1l1 1 1 1-1-1-1-1h-1v3h1l2-1z"/><path class="shp15" d="M258 274l-2-1v-5l1-1 1 7z"/><path class="shp16" d="M257 267l-1 1 2 5h-2v-5h1v-1l-1 1 1-1-1 1v5l2 1-1-7z"/><path class="shp15" d="M258 265c1 1 0 3-2 3l-3-1c0-2 2-1 3-1 0 0 1-2 2-1z"/><path class="shp16" d="M258 265v1l-1 1-1 1h-1-1v-1-1h2l1-1h-1v1h-2l-1 1 1 1h2l2-1v-1-1z"/><path class="shp16" d="M258 265c0 1 0 2-2 3l-2-1v-1l-1 1h1v1h3l1-1v-2zM257 268l-1 1v1-2h1z"/><path class="shp15" d="M249 275l-2 1-2-1 2-2 2 2z"/><path class="shp16" d="M249 275v1h-2-1v-1-1h3v0l-2-1-1 1-1 1 1 1h3v-1z"/><path class="shp15" d="M256 274l-1-1-4 1h5z"/><path class="shp16" d="M251 274v1l6-1-1-1h-6v2h1v-1l4-1 1 1h-5z"/><path class="shp15" d="M251 274c1 1 1 3-1 3s-1-2-2-2v-3c1-1 3 0 3 2z"/><path class="shp16" d="M251 274v2l-1 1h-1v-1-1l-1-2v-1h2l1 2-1-2-1-1-1 1v4l1 1h2l1-2-1-1z"/><path class="shp16" d="M252 273v1h2-3l1-1zM251 275v1l-1 1-1-2h-1l1 2h2v-2z"/><path class="shp16" d="M246 275l1 1 1-1 1 1h-3v-1z"/><path class="shp15" d="M232 240l1 2-1 1-1-1 1-2z"/><path class="shp16" d="M233 242v1h-1-1v-1-1l1-1 1 1v-1h-1-1v3l1 1 1-1v-1z"/><path class="shp15" d="M232 251l-1-1v-5l1 1v5z"/><path class="shp16" d="M232 246v5l-1-1v-4h1v-1h-1l-1 5 2 2v-7 1z"/><path class="shp15" d="M234 244c0 1-1 2-3 2l-2-2c0-2 2-1 3-1 0 0 2-1 2 1z"/><path class="shp16" d="M234 244l-1 1-1 1h-1l-1-1-1-1 1-1h4v0h-1-3l-1 1 1 1 1 1h1l1-1 1-1z"/><path class="shp16" d="M234 244l-2 1h-2l-1-1 1 1 1 1h1l2-1v-1zM232 246l-1 1v-1h1z"/><path class="shp15" d="M224 251h-4l2-1 2 1z"/><path class="shp16" d="M224 251h-4v-1h4v0h-4v1l2 1 1-1h1z"/><path class="shp15" d="M230 250l2 2h-7l1-1 4-1z"/><path class="shp16" d="M226 251l4-1 1 2-5-1h-1v1h7l-2-2h-5v1h1z"/><path class="shp15" d="M224 248l2 3c0 1-2 3-3 2l-1-1 1-1v-2l1-1z"/><path class="shp16" d="M224 248l1 1 1 2-2 2h-1v-1-1-2-1h0v3l-1 1v1h2l2-2-1-2-1-1zM226 251h1l4 1h-5v-1z"/><path class="shp16" d="M226 251h-1c0 1 0 2-2 2v-1h-1l1 1h1l1-1 1-1zM223 251h-3 3z"/><path class="shp15" d="M220 214l-2 1 1-2 1-1v2z"/><path class="shp16" d="M220 214h-1v1h-1v-1l1-1 1-1h1l-1 2 1-2h-1v-1l-2 1v3h2v-1z"/><path class="shp15" d="M218 217l-1-1-2 5v2l3-6z"/><path class="shp16" d="M215 223l3-6-1-1-3 4 1 3v-2l2-4h1l-3 6z"/><path class="shp15" d="M217 217l-1-3h2l1 1h1v2h-3z"/><g><path class="shp16" d="M217 217l-1-2v-1h2-1l2 1h1v2h-3 3l1-1-1-1h-1v-1h-1l-1-1-1 1v1l1 2z"/><path class="shp16" d="M220 216s1 0 0 0l-2 1-2-2 1 1 1 1h2l1-1h-1zM217 217v2l1-2h-1z"/></g><path class="shp15" d="M207 216l1 2h-2l-1-2h2z"/><path class="shp16" d="M207 216l1 1v1h-1-1l-1-2h2l-1-1-1 1 1 2h2v-1l-1-1z"/><path class="shp15" d="M214 221v2l-5-4h1l4 2z"/><path class="shp16" d="M210 219l4 2v2l-5-4h1l-1-1v1l5 5v-3l-4-3h-1l1 1z"/><path class="shp15" d="M210 219l-3 1v-2h1v-2h2v3z"/><g><path class="shp16" d="M210 219h-1l-1 1h-1l-1-1h1v-1 1l1-1v-1l1-1h1v1l-1 2h1v-2-1h-1-1v1h-1v1h-1v1l1 1h1l2-1z"/><path class="shp16" d="M210 219v1l3 3-4-4h1zM209 219l-1 1-1-1v-1l-1 1 1 1h2v-1zM207 218l-2-1v1h2z"/></g><path class="shp14" d="M259 277v-3l-3-2-2-2-3-2-1-3-1-1-1 1-2-8-1-1-2 4-2-3-1-6-1 2-1 1-3-5h-1v3l-3-3-4-3-1-3 1-3 1-3-3 1-1-7v-2l-3 5-1-2v-5h-1l-2 2-1-3-1-5-1-6 1-3c0-1-2 1-1-1 0-1 5-4 4-5s-5 2-4 0c1-3 5-3 5-6 0-2-4 1-4 0-1-1 2-3 2-4v-3l-3 3-3-1-1 4-1 3-3-2 1 4 1 4-3-1 1 3 3 2 1 2 1 1 1 1 1 2 1 2v7h-2c-1 1 2 2 1 3h-4c0 1 0 3 2 3 2 1 7 2 6 3s-6-3-5 0c0 2 2 3 3 4l6 1-5 1c0 2 3 2 4 2l3 1 5 5 6 4h-3c-1 1 7 4 5 5s-5-3-5-1c-1 2 1 4 2 5 2 1 8 0 7 2h-6c0 2 3 5 5 5s3-3 4-1c1 1-1 2 1 2 1 1 2-1 4-1l7 3 4 4zm33-1l-7 2h-2l-2-2v-1l-1 4-6-6-1 4v1l-7-5 1 4h-2l-4-3-2 1 2 2-6 1-1 1-1 1h3l1 1c1 0 3-2 5-1s-2 2-2 4h5c1 0 3-4 4-2 2 1-3 3-2 4 1 2 3 2 5 1l4-4c1 1-2 3-1 4s3 0 4-1l4-4h2l2-2 4-2 2 1h3v-1l-4-2z"/><path fill-rule="evenodd" class="shp13" d="M228 247zm0 0l-2-2-1-1-2-1-3-1 3 1 2-1 1-1 1-3-1 2-1 2-2-2-4-1-4-2 4 1 4 1v-4l1-5-1 4-1 3-2-2-1-1-3-1-3-1 3 1 3-1v-2-2l-1 2-1 1s-4-5-2-5c1-1 2 2 2 2l2-2 1 1 1 5c0 1 1-5 3-5l2 3v7l3-2-2 8 1 4zm-14-21v-3c0-3-2-7-3-7l-3-3-1-2s-6-3-4-5c1-2 3 1 4 1 1-1-2-4-2-5l1-3c2-1 2 2 3 2l1-4c0-2 1-3 2-3l1 1 3-2v2l-4 4v-2l-1-1v3l1 1-1 2v2l2-1 3-2-3 3-2 1-2-2-2-2 2 4 1 1 1 3h1l3-1-2 1-2 1-2-1-4-2 3 3 3 1v2h-1l-1-1 1 1 1 1 2-1-1 2 2 7v4zm38 43h-2v-2l-1-2v4-1l-2 1-2 1 2-1 1-1-2-1-1-1h-2l-5 1 4-1 3-1v-5-3 3l-1 4-3-3h-4l-4-1 4 1 4-1-1-1v-4-3 3l-1 3-2-2-2-1h-2 2l2-1-2-1v-5l1 2h1l1 3c2 0 0-4 1-4s2 1 2 3c1 1-1 5 1 6 1 1 1-3 2-4l3 3 1 7 2-2 1 5 3 3-2-1zm26 16zm0 0l1-3 1-2h-2l-2-2-1-3v3l1 2h-1l-2 2-2 2 1-3 1-2h-2l-1-2-3-3 2 3 1 2h-2l-2 1-2 2 2-2 1-2h-2l-3-1-2-2 2 2 1 1h-7l-3 2 3-3 2-1v-2l2-1c3 0 5 4 6 3 0-2-2-2-2-3-1-1 0-1 2-1s6 5 7 5c1-1-2-4-2-4l3-1c3 0 4 5 6 5v-2l4 3h1l-1 1-2-1-1-2v2l1 1-2 3-2 3zm-25-5zm-19-26l-5-4-3-3 6 5 2 1v1zm62 25zm0 0v1l-2-1h-2l-5 1-2 2 1-2c2-2 4-2 5-2l3 1h2zm-9 6l4-3 5-1-5 2-4 2-2 1-1-1 2-1 1 1z"/></g><g><path class="shp1" d="M293 293l-2-2h-2l1-3 7-6 1-7h4v9l1 1 8 4v2l-1 1h-4l-5-3-2-2-4 4-2 2z"/><path class="shp1" d="M293 291l-2-1-2-1 1-2 7-7 1-7h4v9l1 1 8 5v2h-1l-1 1h-3l-5-4-2-2-4 5-2 1z"/><path class="shp59" d="M298 273v9l-6 4-3 3-2 1-2 1s1-3 5-6l5-4v-7l1-1h2zM307 293l1-1 1-1-2-1-4-2-3-2-1 1 2 3 4 2 2 1z"/><path class="shp59" d="M301 273h3v8l-2 4-5 4-3 4-1-1-1-2 4-4c3-2 5-3 5-6v-7z"/><path class="shp59" d="M315 290l-2-1-2 1-2-3-5-1-2-3 1-3 3 3 6 3 3 4z"/></g></svg>