<svg version="1.2" xmlns="http://www.w3.org/2000/svg" viewBox="0 0 900 600" width="900" height="600">
	<title></title>
	<style>
		.s0 { fill: #00247d } 
		.s1 { fill: none;stroke: #ffffff;stroke-width: 52 } 
		.s2 { fill: none;stroke: #ffffff;stroke-width: 86.7 } 
		.s3 { fill: none;stroke: #cf142b;stroke-width: 52 } 
		.s4 { fill: #047734 } 
		.s5 { fill: #ffdd55 } 
		.s6 { fill: #ffe88d } 
		.s7 { fill: none;stroke: #000000;stroke-width: 1.2 } 
		.s8 { fill: #ffffff } 
		.s9 { fill: #808080 } 
		.s10 { fill: #656565 } 
		.s11 { fill: #e9c43f } 
		.s12 { fill: #ffffff;stroke: #000000;stroke-width: 1.2 } 
		.s13 { fill: #000000 } 
		.s14 { fill: #ffe47a } 
		.s15 { fill: none;stroke: #000000;stroke-width: 1.6 } 
	</style>
	<g id="Layer">
		<path id="Layer" class="s0" d="m0 0h450v300h-450z"/>
		<g id="Layer">
			<path id="Layer" class="s1" d="m0 0l450 300m0-300l-450 300"/>
			<path id="Layer" class="s2" d="m225 0v300m-225-150h450"/>
			<path id="Layer" class="s3" d="m225 0v300m-225-150h450"/>
		</g>
		<path id="Layer" class="s0" d="m0 300h900v300h-900zm450-300h450v600h-450z"/>
	</g>
	<g id="g184">
		<g id="g182">
			<path id="path22" class="s4" d="m555 293.3v-149.5h240v149.5z"/>
			<g id="g148">
				<g id="g30">
					<path id="path24" class="s5" d="m659.3 194.4c0 0-5.5-38-5.5-39.2l17.1 37.6"/>
					<path id="path26" class="s6" d="m654.2 155.6l9.3 36.5c0 0-3.5 1.6-4.5 1.7z"/>
					<path id="path28" class="s7" d="m659.3 194.4c0 0-5.5-38-5.5-39.2l17.1 37.6"/>
				</g>
				<path id="path32" class="s5" d="m672.1 193.9c-1-3.3-2-5.7-1-9.6 0.9-4 0-7.6-0.8-11.4-0.7-3.7-0.3-7.2 1.9-10.2 2.3-3 2.4-5.2 1.4-9.1 3.6 2.4 5.4 4.3 4.6 8-0.8 3.6 0 7.2 1.4 9.8 1.5 2.7 2.5 6.3 1.6 10.3-1 3.9-0.4 8.2 1.4 11.5"/>
				<path id="path34" class="s6" d="m670.6 191.9c0 0-0.4-3.7-0.4-4.7 0-1.1 1-4.3 1-5v-4.6l-1-7c0 0-0.3-3.2-0.3-4 0-0.7 2.2-4 2.8-4.6 0.6-0.6 1.5-3.8 1.5-3.8l-0.3-4.6c0 0 1.3 1 1.7 1.6 0.5 0.6 0.5 1.2 0.7 3.5 0.3 2.3 0 2.3 0 3.1 0 0.8-0.4 1.9-0.8 2.9-0.3 1-0.2 1-0.9 2.5-0.7 1.6-0.4 1.6-0.6 2.4-0.3 0.9-0.1 2.2-0.1 2.9 0 0.8 0.3 2.6 0.8 3.5 0.5 1 0.6 2.9 0.6 3.7v0.3c0 0-0.6 2.7-0.7 3.5-0.1 0.9-0.6 2.5-0.6 2.5 0 0 0 1.4 0.2 3.1 0.3 1.7 0.1 2.4 0.1 2.4z"/>
				<path id="path36" class="s7" d="m672.1 193.9c-1-3.3-2-5.7-1-9.6 0.9-4 0-7.6-0.8-11.4-0.7-3.7-0.3-7.2 1.9-10.2 2.3-3 2.4-5.2 1.4-9.1 3.6 2.4 5.4 4.3 4.6 8-0.8 3.6 0 7.2 1.4 9.8 1.5 2.7 2.5 6.3 1.6 10.3-1 3.9-0.4 8.2 1.4 11.5"/>
				<g id="g44">
					<path id="path38" class="s5" d="m640.3 204.5c0 0-18.4-33.4-18.9-34.5l29.2 28.7"/>
					<path id="path40" class="s6" d="m621.9 170.3l21.5 30.5c0 0-2.7 2.8-3.5 3.2z"/>
					<path id="path42" class="s7" d="m640.3 204.5c0 0-18.4-33.4-18.9-34.5l29.2 28.7"/>
				</g>
				<g id="g52">
					<path id="path46" class="s5" d="m650.5 198.5c-2.4-2.5-4.2-4.2-5.1-8.2-0.8-4-3.1-6.8-5.4-9.9-2.2-3-3.3-6.3-2.6-10 0.8-3.8 0-5.8-2.5-8.9 4.2 0.6 6.6 1.5 7.4 5.2 0.8 3.6 3 6.5 5.5 8.2 2.4 1.8 4.8 4.6 5.7 8.6 0.8 4 3.2 7.6 6.1 9.8"/>
					<path id="path48" class="s6" d="m648.2 197.4c0 0-1.8-3.1-2.3-4.1-0.4-1-0.9-4.2-1.2-4.9l-2-4.1-3.8-5.9c0 0-1.6-2.8-2-3.5-0.3-0.6 0.4-4.5 0.7-5.3 0.2-0.8-0.3-4.2-0.3-4.2l-2.2-4c0 0 1.5 0.3 2.2 0.6 0.7 0.4 0.9 0.9 2.1 2.9 1.2 2 1 2.1 1.3 2.8 0.4 0.8 0.4 2 0.5 3 0.1 1 0.2 1 0.2 2.7 0.1 1.7 0.4 1.6 0.5 2.4 0.2 0.9 0.8 2 1.1 2.7 0.3 0.7 1.4 2.1 2.3 2.8 0.8 0.7 1.7 2.3 2 3l0.2 0.3c0 0 0.6 2.7 0.8 3.5 0.3 0.8 0.5 2.4 0.5 2.4 0 0 0.6 1.3 1.5 2.8 0.9 1.4 1.1 2.1 1.1 2.1z"/>
					<path id="path50" class="s7" d="m650.5 198.5c-2.4-2.5-4.2-4.2-5.1-8.2-0.8-4-3.1-6.8-5.4-9.9-2.2-3-3.3-6.3-2.6-10 0.8-3.8 0-5.8-2.5-8.9 4.2 0.6 6.6 1.5 7.4 5.2 0.8 3.6 3 6.5 5.5 8.2 2.4 1.8 4.8 4.6 5.7 8.6 0.8 4 3.2 7.6 6.1 9.8"/>
				</g>
				<g id="g60">
					<path id="path54" class="s5" d="m629.2 224.9l-32-25.4c1.1 0.3 36 14.1 36 14.1"/>
					<path id="path56" class="s6" d="m632.7 213.2c-0.3 0.9-2.6 4.1-2.6 4.1l-32.5-17.3z"/>
					<path id="path58" class="s7" d="m629.2 224.9l-32-25.4c1.1 0.3 36 14.1 36 14.1"/>
				</g>
				<g id="g68">
					<path id="path62" class="s5" d="m633 215.3c-1.3-3.5-4.1-6.8-7.7-8.6-3.6-1.8-5.6-4.9-6.6-7.8-1.1-2.8-3.2-5.7-6.5-7.4-3.2-1.7-3.4-4.4-2.9-8.8 2.2 3.4 3.9 4.6 7.6 4.8 3.7 0.2 6.5 2.1 8.9 5.1 2.3 3 4.4 6 7.9 7.8 3.6 1.9 4.7 4.1 6.5 7.1"/>
					<path id="path64" class="s6" d="m637 207.7c0 0-0.6-0.4-1.7-1.7-1.1-1.2-2.2-2.2-2.2-2.2 0 0-1.5-0.6-2.2-1.1-0.7-0.4-3-1.7-3-1.7l-0.3-0.2c-0.5-0.5-1.9-1.8-2.3-2.8-0.4-1-1.6-2.4-2.1-2.9-0.5-0.5-1.5-1.4-2.2-1.8-0.8-0.3-0.6-0.6-2.2-1.1-1.6-0.4-1.6-0.5-2.5-0.8-0.9-0.4-2.1-0.7-2.7-1.3-0.6-0.5-0.8-0.3-2.3-2-1.6-1.6-2-2-2.2-2.8-0.1-0.7 0-2.4 0-2.4l3.2 3.2c0 0 3 1.4 3.8 1.3 0.9 0 4.7 0.3 5.3 0.8 0.5 0.4 2.7 2.8 2.7 2.8l4.6 5.2 3.4 3c0.6 0.5 3.5 1.7 4.3 2.4 0.8 0.7 3.3 3.3 3.3 3.3z"/>
					<path id="path66" class="s7" d="m633 215.3c-1.3-3.5-4.1-6.8-7.7-8.6-3.6-1.8-5.6-4.9-6.6-7.8-1.1-2.8-3.2-5.7-6.5-7.4-3.2-1.7-3.4-4.4-2.9-8.8 2.2 3.4 3.9 4.6 7.6 4.8 3.7 0.2 6.5 2.1 8.9 5.1 2.3 3 4.4 6 7.9 7.8 3.6 1.9 4.7 4.1 6.5 7.1"/>
				</g>
				<g id="g76">
					<path id="path70" class="s5" d="m624.7 234.8c-2.4-2.8-6.1-4.8-10.1-5.2-4-0.4-6.9-2.5-8.9-4.8-2-2.3-5-4.3-8.6-4.6-3.6-0.4-4.7-2.9-5.8-7.1 3.3 2.3 5.3 2.8 8.8 1.6 3.5-1.2 6.8-0.4 10 1.5 3.2 2 6.3 4.1 10.2 4.4 4 0.4 5.8 2.1 8.5 4.2"/>
					<path id="path72" class="s6" d="m625.9 226.2c0 0-0.7-0.1-2.2-0.9-1.5-0.8-2.8-1.3-2.8-1.3 0 0-1.6 0-2.4-0.2-0.8-0.1-3.5-0.4-3.5-0.4l-0.3-0.2c-0.7-0.2-2.4-1-3.1-1.7-0.8-0.8-2.3-1.7-3-2-0.7-0.2-1.8-0.8-2.7-0.8-0.8-0.1-0.7-0.4-2.4-0.2-1.7 0.1-1.6 0-2.6 0.1-1 0-2.2 0.1-3-0.2-0.7-0.3-0.8 0-2.9-1-2-1-2.5-1.2-2.9-1.9-0.4-0.6-0.9-2.2-0.9-2.2l4.1 1.9c0 0 3.3 0.1 4-0.3 0.8-0.3 4.5-1.4 5.2-1.2 0.7 0.2 3.5 1.7 3.5 1.7l6.2 3.2 4.2 1.5c0.6 0.2 3.8 0.3 4.8 0.7 1 0.3 4.2 1.9 4.2 1.9z"/>
					<path id="path74" class="s7" d="m624.7 234.8c-2.4-2.8-6.1-4.8-10.1-5.2-4-0.4-6.9-2.5-8.9-4.8-2-2.3-5-4.3-8.6-4.6-3.6-0.4-4.7-2.9-5.8-7.1 3.3 2.3 5.3 2.8 8.8 1.6 3.5-1.2 6.8-0.4 10 1.5 3.2 2 6.3 4.1 10.2 4.4 4 0.4 5.8 2.1 8.5 4.2"/>
				</g>
				<g id="g84">
					<path id="path78" class="s5" d="m626.3 242.9l-39.3-9.5c1.2-0.3 38.5-2.6 38.5-2.6"/>
					<path id="path80" class="s6" d="m624.9 230.7c0 1-0.7 4.8-0.7 4.8l-36.6-1.8z"/>
					<path id="path82" class="s7" d="m626.3 242.9l-39.3-9.5c1.2-0.3 38.5-2.6 38.5-2.6"/>
				</g>
				<g id="g92">
					<path id="path86" class="s5" d="m680.5 192.8l17.1-37.6c0 1.2-5.5 39.2-5.5 39.2"/>
					<path id="path88" class="s6" d="m692.4 193.8c-0.9-0.1-4.4-1.7-4.4-1.7l9.2-36.5z"/>
					<path id="path90" class="s7" d="m680.5 192.8l17.1-37.6c0 1.2-5.5 39.2-5.5 39.2"/>
				</g>
				<g id="g100">
					<path id="path94" class="s5" d="m700.8 198.7l29.2-28.7c-0.4 1.1-18.9 34.5-18.9 34.5"/>
					<path id="path96" class="s6" d="m710.4 205.6c-0.8-0.4-3.5-3.2-3.5-3.2l22.6-32.1z"/>
					<path id="path98" class="s7" d="m700.8 198.7l29.2-28.7c-0.4 1.1-18.9 34.5-18.9 34.5"/>
				</g>
				<g id="g108">
					<path id="path102" class="s5" d="m691.8 193.3c3-2.2 5.3-5.8 6.2-9.8 0.8-4 3.2-6.8 5.7-8.6 2.4-1.7 4.6-4.6 5.4-8.2 0.8-3.7 3.3-4.6 7.5-5.2-2.6 3.1-3.3 5.1-2.6 8.9 0.7 3.7-0.3 7-2.6 10-2.3 3.1-4.6 5.9-5.4 9.9-0.8 4-2.7 5.7-5 8.2"/>
					<path id="path104" class="s6" d="m699.3 197c0 0 0.9-2.3 1.8-3.7 0.9-1.5 1.5-2.8 1.5-2.8 0 0 0.3-1.6 0.5-2.4 0.3-0.8 0.9-3.5 0.9-3.5l0.1-0.3c0.3-0.7 1.2-2.3 2.1-3 0.8-0.7 1.9-2.1 2.2-2.8 0.3-0.6 1-1.8 1.1-2.7 0.1-0.8 0.5-0.7 0.5-2.4 0-1.7 0.1-1.7 0.2-2.7 0.1-1 0.1-2.2 0.5-3 0.3-0.7 0.1-0.8 1.3-2.8 1.2-2 1.4-2.5 2.1-2.9 0.7-0.3 2.3-0.6 2.3-0.6l-2.3 4c0 0-0.5 3.4-0.2 4.2 0.2 0.8 0.9 4.7 0.6 5.3-0.3 0.7-2 3.5-2 3.5l-3.8 5.9-1.9 4.1c-0.4 0.7-0.8 3.9-1.3 4.9-0.4 1-3 5.7-3 5.7z"/>
					<path id="path106" class="s7" d="m691.8 193.3c3-2.2 5.3-5.8 6.2-9.8 0.8-4 3.2-6.8 5.7-8.6 2.4-1.7 4.6-4.6 5.4-8.2 0.8-3.7 3.3-4.6 7.5-5.2-2.6 3.1-3.3 5.1-2.6 8.9 0.7 3.7-0.3 7-2.6 10-2.3 3.1-4.6 5.9-5.4 9.9-0.8 4-2.7 5.7-5 8.2"/>
				</g>
				<g id="g116">
					<path id="path110" class="s5" d="m718.2 213.6c0 0 34.9-13.8 36.1-14.1l-32 25.4"/>
					<path id="path112" class="s6" d="m753.9 200l-32.6 17.3c0 0-2.3-3.2-2.6-4.1z"/>
					<path id="path114" class="s7" d="m718.2 213.6c0 0 34.9-13.8 36.1-14.1l-32 25.4"/>
				</g>
				<g id="g124">
					<path id="path118" class="s5" d="m711.2 207.5c1.8-3 2.9-5.2 6.5-7.1 3.6-1.8 5.7-4.8 8-7.8 2.3-3 5.1-4.9 8.8-5.1 3.7-0.2 5.4-1.4 7.7-4.8 0.5 4.4 0.2 7.1-3 8.8-3.2 1.7-5.4 4.6-6.4 7.4-1.1 2.9-3.1 6-6.7 7.8-3.5 1.8-6.3 5.1-7.7 8.6"/>
					<path id="path120" class="s6" d="m710.8 205.6c0 0 3.4-3.3 4.2-4 0.8-0.7 3.8-1.9 4.3-2.4l3.4-3 4.6-5.2c0 0 2.2-2.4 2.8-2.8 0.5-0.5 4.4-0.8 5.2-0.8 0.8 0.1 3.9-1.3 3.9-1.3l3.2-3.2c0 0 0.1 1.7-0.1 2.4-0.1 0.8-0.6 1.2-2.1 2.8-1.6 1.7-1.7 1.5-2.4 2-0.6 0.6-1.7 0.9-2.7 1.3-0.9 0.3-0.8 0.4-2.5 0.8-1.6 0.5-1.3 0.8-2.1 1.1-0.8 0.4-1.7 1.3-2.3 1.8-0.5 0.5-1.6 1.9-2 2.9-0.5 1-1.8 2.3-2.4 2.8l-0.2 0.2c0 0-2.4 1.3-3.1 1.7-0.7 0.5-2.2 1.1-2.2 1.1 0 0-1 1-2.2 2.2-1.1 1.3-2.6 2.4-2.6 2.4z"/>
					<path id="path122" class="s7" d="m710.5 206.7c1.8-2.9 3.6-4.5 7.2-6.3 3.6-1.8 5.6-4.8 8-7.8 2.3-3 5.1-4.9 8.8-5.1 3.7-0.2 5.4-1.4 7.7-4.8 0.5 4.4 0.2 7.1-3 8.8-3.2 1.7-5.4 4.6-6.4 7.4-1.1 2.9-3.1 6-6.7 7.8-3.5 1.8-6.3 5.1-7.7 8.6"/>
				</g>
				<g id="g132">
					<path id="path126" class="s5" d="m720.1 224.8c2.7-2.1 4.6-3.8 8.5-4.2 4-0.3 7-2.4 10.2-4.4 3.2-1.9 6.5-2.7 10-1.5 3.5 1.2 5.5 0.7 8.8-1.6-1 4.2-2.2 6.7-5.8 7.1-3.6 0.3-6.6 2.3-8.6 4.6-2 2.3-4.9 4.4-8.9 4.8-3.9 0.4-7.7 2.4-10.1 5.2"/>
					<path id="path128" class="s6" d="m721.5 222.7c0 0 3.2-1.6 4.2-1.9 1-0.4 4.2-0.5 4.8-0.7l4.3-1.5 6.1-3.2c0 0 2.9-1.5 3.5-1.7 0.7-0.2 4.4 0.9 5.2 1.2 0.7 0.4 4 0.3 4 0.3l4.1-1.9c0 0-0.5 1.6-0.9 2.2-0.4 0.7-0.9 0.9-2.9 1.9-2.1 1-2.1 0.7-2.9 1-0.8 0.3-1.9 0.2-3 0.2-1-0.1-0.9 0-2.6-0.1-1.7-0.2-1.5 0.1-2.4 0.2-0.9 0-2 0.6-2.7 0.8-0.7 0.3-2.2 1.2-2.9 2-0.8 0.7-2.5 1.5-3.2 1.7l-0.3 0.2c0 0-2.6 0.3-3.5 0.4-0.8 0.2-2.4 0.2-2.4 0.2 0 0-1.3 0.5-2.8 1.3-1.5 0.8-2.2 0.9-2.2 0.9z"/>
					<path id="path130" class="s7" d="m720.1 224.8c2.7-2.1 4.6-3.8 8.5-4.2 4-0.3 7-2.4 10.2-4.4 3.2-1.9 6.5-2.7 10-1.5 3.5 1.2 5.5 0.7 8.8-1.6-1 4.2-2.2 6.7-5.8 7.1-3.6 0.3-6.6 2.3-8.6 4.6-2 2.3-4.9 4.4-8.9 4.8-3.9 0.4-7.7 2.4-10.1 5.2"/>
				</g>
				<g id="g140">
					<path id="path134" class="s5" d="m723.5 230.8c0 0 37.2 2.3 38.4 2.6l-39.3 9.5"/>
					<path id="path136" class="s6" d="m761.4 233.7l-36.6 1.8c0 0-0.8-3.8-0.7-4.8z"/>
					<path id="path138" class="s7" d="m723.5 230.8c0 0 37.2 2.3 38.4 2.6l-39.3 9.5"/>
				</g>
				<ellipse id="path142" class="s5" cx="674.3" cy="237.6" rx="49.9" ry="46.4"/>
				<ellipse id="path144" class="s7" cx="674.3" cy="237.6" rx="49.9" ry="46.4"/>
				<path id="path146" class="s6" d="m674.3 194.7c0 0-39-2.6-46.4 39.3 9.6-28.3 46.4-39.3 46.4-39.3z"/>
			</g>
			<path id="path150" class="s8" d="m795 383.7c0 0 0 26.6-120 72.1-120-45.5-120-72.1-120-72.1v-146.5c16 0 24 13 40 13 15.9 0 23.9-13 39.9-13 16 0 24 13 40 13 16 0 24-13 40-13 16 0 24 13 40 13 16 0 24-13 40-13z"/>
			<path id="path152" class="s7" d="m794.9 237.2c-16 0-24 13-40 13-16 0-24-13-40-13-16 0-24 13-40 13-16 0-24-13-40-13-16 0-24 13-39.9 13-16 0-24-13-40-13"/>
			<path id="path154" class="s9" d="m582.9 412.2c-4.2-2.4 9-18.4 10.1-19.1 0.3-0.2 1.1-1.8 1.7-3.6 0.8-2.5 1.7-3.7 4.6-5.8 1.9-1.5 5.4-5 7.7-7.8 4.1-4.9 8.1-7.9 12.7-9.2 3-0.8 27.7 0.5 36.8 2.1 6.9 1.1 8.5 1.2 12.3 0.5 2.4-0.4 8.9-1 14.4-1.2 9.5-0.5 10.4-0.7 15.2-2.8l5.2-2.2 6.1 0.9c4.5 0.6 7.3 1.5 10.7 3.2 7.1 3.6 9.1 4.1 19.1 5.1 8.6 0.9 9.6 1.1 12.2 2.9 1.8 1.3 3.4 3.2 4.5 5.2 0.9 1.8 2.6 4.4 3.9 5.8l19.1 17.1c-29.5 20.3-49.5 31.5-104.6 51.8-30.9-11.7-61.3-25.3-91.7-42.9z"/>
			<path id="path156" fill-rule="evenodd" class="s10" d="m708.6 364c5.9 0.9 8 1.6 12.9 3.9 4.5 2.1 7.9 3.2 11.5 3.8 3 0.4 2.9 0.4 3 3.9 0 1.8-0.2 2.5-0.8 3.5-0.9 1.4-1.8 4-1.8 5.1 0 0.5-0.6 1.3-1.5 2.1-1.3 1.2-2.4 2.8-2.4 3.4 0 0.5 11.2-4.3 12.7-5.5 1-0.9 3.7-1.8 5.2-1.8 1.4 0 2.9-0.8 4.9-2.6 1.1-0.9 2-1.6 2.1-1.6 0.1 0 1 1.3 2 3 1 1.6 2.6 3.9 3.5 5l1.7 2.1-0.9 1.3c-0.5 0.8-2 2.9-3.5 4.8-1.6 2.2 4.5 11.3 2.8 13.3-1.4 1.7 13.5-0.4 12 1.1-18.3 15.9-51.2 28.5-76 38.3-1.3-2.7-3.2-2.1-5.5-3.3l-4.1-2.3-2-3.4c-1.8-3-2.4-3.7-4.6-5.4-2.5-1.9-3.3-3-4.2-5.6-0.5-1.6-0.1-1.8 2.3-1.8 1.2 0 1.7-0.1 1.6-0.4-0.1-0.2-0.4-1.4-0.6-2.6-0.7-3.3-0.7-3.3 6-2.8 5 0.3 5.7 0.5 7.3 1.3 1 0.5 4.4 2 7.5 3.3 4.4 2 6 2.6 7.6 2.7 1.8 0.2 2 0.1 2.4-0.5 0.2-0.5 0.2-0.9-0.1-1.6-0.7-1.2-1.5-1.9-4.8-4.1-3.2-2-7.1-6-8.2-8.2l-0.6-1.4 0.8-3.1c1-3.4 1.1-4.8 0.4-5.3q-0.4-0.4-2.7-0.2c-2 0.2-2.3 0.1-4.3-0.9-1.2-0.5-2.5-1.4-3.1-1.8-0.5-0.3-1.4-0.8-1.9-1-1.4-0.6-2.7-1.8-3.6-3.7-0.9-1.9-1.9-2.6-3.3-2.6-1.5 0-2.8 0.8-3.7 2.1-0.7 1-0.8 1.3-0.8 6.5 0 3.3-0.1 5.8-0.3 6.1-0.3 0.6-0.4 0.5-1.5-0.2-0.6-0.5-2.1-1.4-3.4-2-1.2-0.5-3.1-1.7-4.1-2.6-2.6-2.1-3.7-2.2-6.4-0.4-2.5 1.7-3.3 3-4 6.6-0.7 3.5-1.2 5.1-1.5 5.1-0.1 0-0.4-2.5-0.6-5.5-0.2-3-0.6-6.7-0.9-8.4-0.4-2.2-0.4-3.3-0.2-5.1 0.4-2.5 0.1-3.8-1.1-5.4-0.4-0.6-0.7-1.2-0.7-1.2 0.3-0.3 3.8 2.1 5.8 3.9 2.5 2.5 4.3 3.1 8.3 3.1 2.5 0 2.8-0.1 3.5-0.8 0.4-0.4 0.8-0.9 0.8-1 0-0.2-0.9-1-2-1.8-1.1-0.8-3.5-2.9-5.3-4.5-3.8-3.5-4.3-3.7-6.6-4-1-0.1-3.2-0.7-4.9-1.3-5.3-2-6-1.7-10.6 4-4.2 5.2-7.2 7.8-9 7.8-0.6 0-0.6 0.2 0.3-2.5 0.4-1.2 1-3.3 1.3-4.7 0.3-1.4 0.9-3 1.3-3.6 2.1-2.9 2.8-4 2.7-4.8-0.1-0.8-0.2-0.8-2.6-1-2.9-0.2-4.6-1.1-5.8-3.3-0.4-0.7-1.9-2.2-3.2-3.3-1.3-1.1-2.6-2.3-2.9-2.7l-0.5-0.9 8.7 0.2c10.1 0.3 19.4 0.9 27.3 2 8.9 1.3 8.8 1.3 14.4 0.6 3-0.4 9-0.9 13.4-1.2 9.1-0.6 10.9-0.9 16.5-3.3l3.8-1.6zm-4.8 9.5c-1.2 0.2-3.4 0.8-5 1.3-2.5 0.9-3.1 1.3-6.1 3.8l-3.2 2.9 3.8 1.3c4.2 1.5 5.6 1.7 8.2 1 1-0.3 2.7-0.9 3.8-1.5 1.1-0.5 3.4-1.2 5.1-1.5 3-0.6 3.1-0.6 3.3-1.6 0.4-2.4-1.1-3.9-5.5-5.4-1-0.3-1.6-0.5-2.2-0.6-0.6 0-1.1 0.1-2.2 0.3zm-98.1 16.2l0.7 1.3c0.4 0.8 1 2.3 1.4 3.4 0.6 1.7 1.2 2.5 3.6 5.1 2.7 2.8 3.3 3.3 6.4 4.8l3.5 1.6 3.3-0.1 3.3-0.1 0.2 1.3c0.5 1.9 1.8 4.2 3.6 6.2l1.7 1.8-4.8 3.5c-0.9 1.7-5.1 10.7-5.7 13.4-0.2 0.6-0.5 1.2-0.6 1.2-0.2 0.1-12.5-4.9-14.2-6.3-5.4-4.4-16.3-11-15-14.4 0.8-2.3-3.4-11.6-3.4-12.3 0-0.4 7.5-6.6 10.4-8l1.9-0.8zm118.4 6.2l-3 0.3-0.7 1.7c-0.9 2.3-3 4.7-4.7 5.6-1.1 0.5-1.3 0.8-1.2 1.3 0.1 0.4 0.4 2.5 0.7 4.7 0.8 6.4 2.1 9.4 4.7 11 2 1.3 2 1.3 3.4-1.4 0.8-1.6 1.9-5 2.3-6.7 0.2-1 0.3-1.1 2.3-1.4 1.2-0.2 3.2-0.5 4.4-0.6l2.2-0.2-0.1-4.4c0-5.9 0-6.1-2.2-7.6-2.6-1.8-4.2-2.4-6.9-2.4q-0.5 0.1-1.2 0.1zm-77.3 25.4c1.4 3.7 1.7 4.2 4.9 8.4l5.7 10.3h-2.6c-1.4-0.1-11.5 2.1-12.6 1.7-3.4-1-10.3-3.5-10.7-3.9-0.6-0.5 7.9-15.2 10-16.4 1-0.6 2.3-1.6 2.9-2.4l1-1.3c0 0 1.4 3.6 1.4 3.6z"/>
			<path id="path158" class="s7" d="m581.7 411.4c-1.3-0.5 5.6-12.9 10.1-16.3 0.4-0.2 2.3-3.8 2.9-5.6 0.8-2.5 1.8-3.7 4.6-5.8 1.9-1.5 5.4-5 7.7-7.8 4.1-4.9 8.1-7.9 12.7-9.2 3-0.8 27.7 0.5 36.8 2.1 6.9 1.1 8.5 1.2 12.3 0.5 2.4-0.4 8.9-1 14.4-1.2 9.5-0.5 10.4-0.7 15.2-2.8l5.2-2.2 6.1 0.9c4.5 0.6 7.3 1.5 10.7 3.2 7.1 3.5 9.1 4.1 19.1 5.1 8.6 0.9 9.6 1.1 12.2 2.9 1.8 1.3 3.5 3.2 4.5 5.2 0.9 1.8 2.5 4.6 3.9 5.8l19.5 17.1"/>
			<g id="g178">
				<path id="path160" class="s5" d="m600.6 266.1c0.6-0.3 2.6-1.1 3.2-1.3 0.6-0.1 3-0.2 4.5 0 1.5 0.3 3.8 1.7 3.8 1.7 0 0 2-1 2.9-1.4 0.9-0.4 2.4 0.4 3.2 0.8 0.8 0.4 1.6 1.9 1.8 2.7 0.1 0.9-0.6 0.7-0.6 0.7 0 0 6.2 4.6 8.2 6.1 2.1 1.5 6.2 5.3 8.3 6.3 2 0.9 4.5 1.1 6.1 1.5 1.6 0.4 10.3 4.2 12.3 4.5 1.9 0.2 6.2 3.9 9 5.1 2.9 1.3 7.1 2.1 8.5 2.2 1.4 0.1 9.5 0.7 12.3 0.8 2.7 0.2 8.3-2 9.9-1.7 0 0 5.2-0.9 7.6-0.9 2.4 0 6.5 0.6 7.1 0.6 0.5 0 7.4 1.3 7.4 1.3 0 0 8.6-0.1 9.5 0 0.9 0.2 8 1.9 8.6 1.9 0.6 0 7.1 1.7 8.8 2.2 1.7 0.6 4 0.3 5.8 1.1 1.9 0.8 3.6-0.8 6.1-1.3 2.5-0.6 4.1-2.2 6.2-3.2 2-0.9 1.5-3.1 1.8-4.7 0.4-1.7-0.1-3.6-0.3-4.8-0.3-1.2-2.7-3.8-3.6-4.6-0.9-0.8-3.4-2.5-4.3-3.3-0.9-0.8-2.3 0-3.2 0.3-0.9 0.3-3.7-0.4-4.6-0.5-0.9-0.2-0.2-1.1-0.2-1.1 0 0 1.2-1 2.8-1.1 1.6-0.2 2.9-0.4 4.5-0.3 1.6 0.1 2.7 0.7 4.8 1.8 2.1 1.1 1.8 1.6 2.6 2.6 0.8 0.9 2.7 4 3 4.6 0.4 0.5 1.6 3.5 2 5.1 0.3 1.7-1.2 5.6-1.9 7.2-0.7 1.7-2.3 3-2.8 3.4-0.6 0.5-2.8 2.2-3.9 2.8-1.2 0.5-3.8 0.5-5.3 1.2-1.5 0.7-6.4 0.1-8 0.1-1.6 0-4.2-1.3-5.4-1.6-1.1-0.3-4.9-0.8-6.1-1.4-1.1-0.5-5.8-0.1-5.8-0.1l-5.6 1.5c0 0 2.3 2.7 3.1 3.8 0.8 1.1 2.6 5.4 3.1 6.8 0.4 1.4 1.4 3.3 2.4 5.8 1 2.6 2.3 7.5 2.3 7.5 0 0 1.6 0.6 2.9 2.3 1.4 1.8 3.9 5.3 4.4 5.9 0.5 0.5 1.3 2.4 2.1 3.9 0.8 1.5 2.4 2.6 3.5 3.1 1.2 0.6 3.3 1.1 4.6 1.9 1.2 0.9 0.6 4.4 0.3 5.1-0.2 0.7-0.4 4.3-0.2 5.6 0.2 1.2 1.8 8.9 2.1 10.7 0.2 1.8 0.8 2.2 0.6 4.7-0.1 2.6-0.8 1.7-1.9 3-1.1 1.4-1.3 2.4-1.5 3.2-0.2 0.8-0.3 3.5-0.8 4.5-0.4 0.9-3.7 1.6-3.7 1.6 0 0-2.4-0.4-2.9-1.5-0.6-1.1-0.8 0.8-2.5 1.3-1.8 0.6-2.2-0.2-2.7-0.8-0.4-0.5-0.7-2.3-0.7-2.3 0 0-2.4-0.9-2.4-1.6 0-0.7 0.1-2 0.6-3.4 0.5-1.4 1.1-1 2.1-1.8 0.9-0.8 2.9-0.4 5.3-1.5 2.4-1.1 1.4-1.1 1.8-2.1 0.3-1.1 1.2-4 0.9-6.4-0.4-2.5-1.7-5.6-1.7-6.8 0-1.3-1.8-4.7-3-7-1.3-2.3-3-1.3-5.3-3.2-2.3-1.9-1.8-1.7-3-1.4-1.1 0.3-2.4-0.5-3.5-0.5-1.2 0 0.6 3.6 0.8 5 0.2 1.4 0.1 3.5-0.1 4.9-0.2 1.4-0.7 4.3-0.9 5.3-0.3 0.9-2 3.8-2.4 4.5-0.5 0.7-2.1 4.6-3 5.8-0.9 1.2-1.6 4.1-1.8 4.6-0.3 0.6-0.4 2.5-0.8 4.3-0.5 1.7-1.8 0.5-2.5 0.8-0.6 0.2-3.4 0.7-4.3 0.9-0.9 0.3-1.9 0.7-2.6 0.6-0.7-0.2-0.5-1.5-0.5-1.5 0 0-1.6 0.4-2.2 0.4-0.5 0-1-0.7-1.1-1.5-0.1-0.8 0.1-1.2 0.4-1.9 0.4-0.7-1.2-0.3-1.7-1-0.4-0.6 0-0.8 0.3-1.7 0.2-1 0.5-1 1.4-1.7 1-0.6 3.8-0.6 4.3-0.6 0.4 0 1.8-1 1.8-1 0 0 2.8-2.6 4-4.1 1.3-1.5 0.6-4.5 0.8-5.5 0.2-1.1 2.2-2.9 2.2-2.9 0 0 0.2-3.3 0.1-5-0.1-1.8-1.1-2.1-1.8-4-0.7-1.9-1.1-2.1-1.4-3.4-0.3-1.2-0.8-0.1-2.7-1.1-2-0.9-1.4-3.4-2.1-4.3-0.7-1-3.6-0.8-8-4-4.5-3.1-3.3-3.8-4.6-5-1.3-1.2-2.3-3.9-2.4-4.5-0.1-0.5-1.4-0.8-3.2-1.2-1.8-0.4-6.6 1-8.4 0.7-1.7-0.3-6.3 3.9-8 4.3-1.7 0.4-6.8 3.4-7.3 3.4-0.5 0-5.6 2.8-6.3 3.3-0.7 0.5-4.9 0.4-6.4 0.4-1.5 0-8-0.7-8-0.7 0 0-2.3-2-3.7-0.9-1.4 1.1-1.8 2.4-2.4 3.6-0.6 1.3-1.9 3.3-3.1 5.6-1.1 2.3-3.8 6.4-4.6 8.4-0.8 2.1-3.6 6.6-4.3 8.1-0.7 1.5-3.1 6.6-3.9 8.5-0.8 1.9-1.6 2.5-2.2 3.7-0.5 1.2-0.4 2.3-0.9 3.9-0.4 1.7-2 1.4-3 2.2-0.9 0.8-3.1 1.2-4.2 1.9-1.1 0.7-2.2-1.3-2.5-2.4-0.4-1.1-0.8 0.5-1.8 0.8-1.1 0.3-1.1-1.8-1.1-1.8 0 0-1.3 0.4-2.3 0.4-0.9 0-0.7-1.9-0.7-1.9 0 0-2.2 0-2.7-0.5-0.5-0.6 0.1-2.3 0.1-2.3 0 0-1.7-0.2-2.5-0.8-0.8-0.7-0.1-1.7 0-2.5 0.1-0.8 1-1.9 1-1.9 0 0 1.2-1.9 2.4-2.3 1.3-0.4 1.5 0.3 2 0.3 0.4 0 1.5-0.6 2.3-1.1 0.8-0.6 1.1-1.4 1.8-2.5 0.7-1.1 1.8-5.9 1.8-5.9 0 0 3.2-5.5 4.3-7 1-1.5 3.5-9.1 4.2-10.9 0.7-1.7 1.8-3.8 2.2-4.7 0.3-1-0.1-2.3-0.3-2.7-0.1-0.4-0.5-1.5-0.8-2.5-0.2-0.9-1.4-1.5-1.8-2.2-0.3-0.6-0.7-3.9-0.7-3.9l-0.1-4.1c0 0-0.3-0.2-0.3-1.9 0-1.6 0.3-2.3 0.2-3-0.1-0.6 0.2-1.9 0.7-3.5 0.4-1.6-0.5-1.5-0.5-2.2 0-0.7 0.7-2.7 0.6-3.4-0.1-0.7-1.4-1.1-1.9-2.3-0.6-1.2-1.4-0.9-2-1.2-0.6-0.3-1.6-0.7-1.9-1.2-0.4-0.6-1.1-1.5-1.1-1.5l-1.1 0.5-1.2-2.4c0 0-1.1-1-1.7-1.4-0.5-0.4-1.8-1.2-2.4-1.6-0.6-0.4-1.1-1.2-1.5-2.1-0.3-0.8-1.2-0.6-1.2-0.6 0 0-0.8 0.1-1.6 0.1-0.8 0-5.3-0.4-5.3-0.4h-3c0 0-1.3 0.5-1.9 0.5-0.6 0-0.6-0.8-0.6-0.8l-1.2 0.7-0.4-1.4-0.9-0.8-0.2-0.9 0.3-1.8c0 0 0.5-0.5 0.8-1.1 0.4-0.5 0.1-1.6 0.1-1.6l0.5 0.7 1.5 0.9c0 0 1.5 0 2.3 0.3 0.8 0.3 1.4-0.1 2.1-0.1 0.7 0 0.8-0.7 1.3-1.5 0.4-0.9 0-1-0.2-1.8-0.3-0.8-1-1.4-1-1.4 0 0-2.2-0.4-2.8-0.5l-1-0.2-1.2 1-0.2 2.4-1-1-0.6-1.4-1.6-1-0.8-0.9-0.4-1.5v-1.8c0-0.5 0.3-1.1 0.5-1.6 0.2-0.5 0.3-1.9 0.3-1.9 0 0-0.2-1 0.1-1.6 0.4-0.7 0.5-0.4 1.4-1 0.9-0.5 1.3 0.3 2.1 0.4 0.8 0.2 1.1-0.4 2.4-0.7 1.2-0.2 2.3-1.6 2.3-1.6 0 0 1.2-1.1 1.8-1.3z"/>
				<path id="path162" fill-rule="evenodd" class="s11" d="m591 269.7c0.1 0.4 0.4 0.9 0.5 1.2 0.2 0.2 0.1 0.3 0.8 0.5 0.6 0.3 0.9 0.5 1.7 0.5 0.7 0 1.3-0.7 1.1-0.1-0.2 0.6-0.7 1.1-0.7 1.1 0 0-0.5 0.4-0.7 0.5-0.3 0-0.4 0.1-0.8 0.1-0.5-0.1-2.7-0.7-2.7-0.7zm-0.9 4.9c0 0.6 0.4 2 0.4 2 0.3 0.4 1.3 1.1 1.3 1.1 0.5 0.4 2 0.6 2 0.6 1-0.1 2.9-0.7 2.9-0.7 0.7-0.1 2.8 0 2.8 0 0.7 0 1.6 0.2 1.6 0.2 0.3 0.5 1 1.2 1 1.2 0.1 0.5 0.1 2.6 0.1 2.6-0.1 0.3-0.6 1.6-0.6 1.6-0.4 0.5-1.3 1.1-1.3 1.1 0-0.4 0.1-2.2 0.1-2.2-0.3-0.7-1.2-1.6-1.2-1.6-0.8-0.3-3-0.8-3-0.8-0.2 0-1.6 0.4-1.6 0.4-1.1 0.3-2.2 0.2-2.2 0.2-0.5-0.1-1.1-0.3-1.1-0.3-0.6-0.5-1-1.3-1-1.3-0.3-0.6-0.4-1.7-0.4-1.7 0-0.8 0.2-2 0.2-2.4zm1.8 12.4l-0.1 0.2q-0.1-0.3-0.2-0.5zm0.7 1.1c0.7-0.5 1.1-0.5 1.1-0.5 0.2 0.2 2.2-1.5 2.2-1.5 0.3 1.1 0.7 1.4 0.7 1.4 0.6 1.1 1.7 0.6 1.7 0.6 0.9 0.7 1.7-0.4 1.7-0.4 0.6 0.3 2.3-0.5 2.3-0.5 1.2 1.2 2.2 0.3 2.2 0.3 0.9 1.1 1.2 1.1 1.2 1.1 1.4-0.6 3.2-0.2 3.2-0.2 0.5-1 1.1-0.9 1.1-0.9 0.9-0.7 2-1.3 2-1.3 1.2-0.2 3.1-1 3.1-1 0.6-1 1-1.3 1-1.3 1-0.7 2.2-1.7 2.2-1.7 0.2-0.3 0.6-1.7 0.6-1.7l0.4-0.1c0.3 2.8 0.2 3 0.2 3-1 1.6-1.5 2.1-1.5 2.1-0.6 1.3-0.7 2.6-0.7 2.6-0.3 1.3-0.6 1.9-0.6 1.9-0.2-0.6-0.5-0.4-0.5-0.4-1.3 1.3-2.1 0.8-2.1 0.8-1.6 1.6-2.1 1.3-2.1 1.3-0.3 1-1 2.3-1 2.3l-0.5 0.1c-1-0.7-1.9-1.8-1.9-1.8-0.5-0.7-1.3-1.5-1.3-1.5-1.2 0-2.8 0.1-2.8 0.1-0.7 0.1-5.2-0.3-5.2-0.3-1.1-0.1-3.1-0.1-3.1-0.1-0.2 0.1-1.2 0.4-1.2 0.4l-1.4-1c-0.2 0.5-0.7 1-0.7 1 0-0.2-0.2-1.4-0.2-1.4-0.4-0.3-1.1-1.3-1.1-1.3l0.2-1c0.4 0.5 0.8 0.9 0.8 0.9zm8.9-19.1c0 0.5 0.4 0.9 0.4 0.9 0.9 0.2 1.7-0.2 1.7-0.2 0.3-0.1 1.8-0.2 1.8-0.2 0.5 0.2 1.3 0.5 1.3 0.5 0.6 0.4 0.5 1 0.5 1v1.2c-0.3 0.4-0.9 1.3-0.9 1.3-0.2 0.4-0.9 1-0.9 1-0.3 0.1-1.1 0.1-1.1 0.1-0.9-0.3-1.8-0.5-1.8-0.5-0.8-0.4-1.3-0.6-1.3-0.6 0.2 0.6 0.6 1.3 0.6 1.3 0.1 0.3-0.9 0.2-0.9 0.2-0.7-0.7-1.1-1.6-1.1-1.6 0-0.9 0.4-1.9 0.4-1.9 0.4-0.6 1.3-2.5 1.3-2.5zm18.3-0.5c0 0 0.1 0.8 0.2 1.1 0 0 0 0.9-0.1 1.1 0 0-0.9 0.8-1.5 1.4 0 0-1.6 1.2-2.3 1.4 0 0-1.4 0.2-2.3 0.1 0 0-1.6-0.6-2-0.9 0 0-0.9-0.6-1.3-1.2l-0.2-1.5c0 0 1.7 0.6 1.9 0.6h0.9c0 0 0.8-0.5 1.7-0.3 0 0 0.7 0.2 1.4 0.1 0 0 0.9-0.4 1.4-0.7 0 0 0.4-0.4 0.7-0.8 0 0 0.6-0.8 0.9-1 0 0 0-0.6-0.1-1.3 0 0 0.6 1.5 0.7 1.9zm-5.9-1.5c0 0 0.8-0.2 2.4-0.2 0 0 0.7 0.3 1.2 0.8 0 0 0.3 1 0.3 1.5l-0.3-0.3c0 0-0.2-0.1-0.9-0.3 0 0-1.4 0-2.2 0.3 0 0-1.3-0.1-1.9 0.1 0 0-1.3 0-1-0.3 0 0 0.8-0.7 1.2-0.9 0 0 0.7-0.4 1.2-0.7zm-1.6 28.1c0.4 0 4.4-1.3 4.4-1.3 0.5 1.2 1 1.4 1 1.4 0.9 1.5 2.6 1.6 2.6 1.6 0.7 1.2 2.1 1.3 2.1 1.3 0.7 2.4 2.8 2.8 2.8 2.8-1.1 3 0 3.9 0 3.9-1 2.7-1.9 4.8-1.9 4.8-0.1 0.5-0.6 1.1-0.6 1.1-0.2-0.6-0.8-2.5-0.8-2.5 0.3-1.3 1-3 1-3-1.2-1.4-1.8-2.5-1.8-2.5-0.6-0.6-1.6-1.3-1.6-1.3-1.2-0.9-2.6-2-2.6-2-0.4-0.4-1.1-1.2-1.1-1.2-0.9 0.6-1.3 1-1.3 1-0.2-0.5-0.7-2.2-0.7-2.2-0.4-0.3-1.5-1.9-1.5-1.9zm9.9 18c0.8 0.8 2.3 3.8 2.3 3.8 0.5 1.3 1.8 3.5 1.8 3.5 0.6 1.6 2.5 2.7 2.5 2.7 0.4 2.4 2.1 3.2 2.1 3.2-0.3 2.4 1.5 3.9 1.5 3.9-0.3 1.2-0.1 2.1-0.1 2.1-0.2 1.3-0.8 4.3-0.8 4.3-0.9 1.4-2.1 3.9-2.1 3.9l-1.5 3.1c-0.2 0.7-5.1 13.5-5.1 13.5l0.7-4.5c0.3-1.8 0.9-4.5 0.9-4.5v-3.9c0-1.3 0.1-2.9 0.1-2.9 0-1-0.7-3.4-0.7-3.4l2.4-4.4-0.7-4.4-1.9-2.1c-0.3-0.9-1.4-1.7-1.4-1.7-0.2-1.1-0.2-4.6-0.2-4.6 0-1-0.2-4.4-0.2-4.4 0.1-0.4 0.4-3.2 0.4-3.2zm26.2 22c0 0-2.5 0.1-2.9 0.1 0 0-5.7 9.6-5.8 10.1l-6.5 11.9c0 0 0.1-2.5 0.4-3.9 0 0 0.7-1.5 1.2-2.7 0 0 1-2.1 1.6-3.6 0 0 0.9-2.9 1.5-5.2 0 0 0.7-3.8 0.9-4.2 0 0 1.1-4.1 2.3-4.2 0 0 1 0.1 2.2-3.1 0 0 0.9 0.1 3.3-3.5 0 0 0.7 0 2.7-3.2 0 0 0.6 0.6 1.3 2 0 0 0.9-0.6 1.9-2 0 0 1.6-3.2 2.5-4.4 0 0 1.8 5.3 2.7 5.6 0 0 2.6-1.5 3.3-0.4 0 0-1.9 2-3.3 3.4 0 0-0.9 0.5-3.1 2.6 0 0-2.2 4.1-2.6 5.7 0 0-2.7-0.8-3.6-1zm-27.8 27.1c0 0-2.4 7-2.6 7.5 0 0-1.6 0.9-2.8 1.3l-1.3 0.2c0 0-2 1.4-2.5 1.9 0 0-0.3 1 0 1.8 0 0 1.4-0.5 1.8-0.6 0 0-0.3 1.7-0.2 2.2 0 0 1.5 0 2.6-0.9l1.1-0.5 0.1 1.6c0 0 1.2 0.6 1.9 0.7 0 0 1.6-0.4 2.9-1.3 0 0 1.2-1.7 1.6-2.5 0 0 1.3-2.3 2-3.9 0 0 1.2-3.2 2.2-5 0 0 1.3-2.3 1.8-3.1l2.8-2.6c0 0-2.3 4.2-2.9 5.3 0 0-0.6 2.6-0.9 4.2l-1.2 2.6c0 0-1.3 2.6-2.1 3.5 0 0-0.8 2.4-0.8 2.9 0 0-0.9 0.6-1.5 0.9 0 0-1.8 1-2.7 1.5 0 0-1.7 0.7-2.8 0.8l-1.9-0.5-0.4-2.4c0 0-1.6 1.1-2.2 1.4 0 0-0.6-0.6-0.6-1.8 0 0-0.3 0.2-0.7 0.4 0 0-1.1 0-2.1-0.3l-0.7-1.3c0 0-0.7-0.2-1.1-0.4 0 0-1.1-0.4-1.2-0.9 0 0-0.4-1.3-0.5-2.5h-1.3l-1.2-1.3 1.1-2.5c0 0 0.7 1.1 1 1.9 0 0 0.7 0.6 1.4 0.5 0 0 1-0.9 2.5-1.7l-0.1 1.1-0.3 2.6c0 0 0.8-0.5 1.5-1.4 0 0 0.6-1.6 1-1.9l1.2-1.1 2 0.4c0 0 1.2-0.5 1.6-0.8 0 0 0.9-0.4 1.6-1 0 0 0.9-1.4 1.6-2.6zm36.4-26.1c2-0.6 6.4-2.2 6.4-2.2 1-1.4 7.3-5.1 7.3-5.1 2.5-2.7 6.2-5.8 6.2-5.8 2.6-1.8 6.4-3.5 6.4-3.5 2.5-1.4 6.7-3.1 6.7-3.1 2.6-0.7 5.6-0.8 5.6-0.8 2.7 0 5.7 0.5 5.7 0.5 1.4 1 4.1 2.4 4.1 2.4 1.2 1.5 3 4.7 3 4.7 0.7 1.3 1.7 3.2 1.7 3.2 0.6 1.4 2 4.2 2 4.2 1.4 2.7 2.9 4.1 2.9 4.1 1.2 1.5 3.1 2.7 3.1 2.7 1.1 0.3 5.5 1.4 5.5 1.4 0.6 0.1 5.7 2 5.7 2 1.8 0.2 5 0.5 5 0.5l3.3 2.4c2.1 2 4 5.2 4 5.2 0 1.4 0.3 3.1 0.3 3.1l-3.2-4.8c-1.2-0.8-3.7-2-3.7-2-1.1-0.7-3.1-1.4-3.1-1.4-0.8-0.3-3.7-0.3-3.7-0.3l-2.4-0.2c-2.2 0-4.3 0.2-4.3 0.2-1.3 0.2-3 0.7-3 0.7l-3-0.5-2.1-1.2c-0.4-0.7-0.9-3.1-0.9-3.1-1-0.5-6.8-3.2-6.8-3.2l-5.7-5.2c-0.4-0.9-3.6-5.3-3.6-5.3-0.2-0.8-4-2-4-2l-8.6 2-11 6c-1.9 0.6-5.9 2.3-5.9 2.3l-3.4 2.7-5.4 0.4zm90.3 11.3c0 0 0.3 1.7 0.3 3.6l-1 4c0 0-0.3-0.2-0.7-1.8 0 0-0.8-3.6-1.4-5.8 0 0-0.4-0.3-1.3-2 0 0 0.9-1 1.4-0.9 0 0 1.7 1.9 2.7 2.9zm-18.9 2.9q0 0 0 0 0 0 0 0zm0 0c0 0.1 0 3.5 0 3.5l-1.6 6.6c0 0-4.4 7.2-4.9 9.1 0 0-1.7 4.5-1.9 6.2 0 0-0.4 1.5-1 2.7 0 0-2.6 0.3-3.7 0.5 0 0-2.7 1-4.7 1.2l-0.9-1.2c0 0-1.6 0-2.3-0.8 0 0-0.7-0.1-0.8-0.6-0.2-0.9 0.2-2.3 0.4-2.2l-1.5-0.7-0.2-1.8 2.4-1.2c0 0 1.2 0.7 1.9 1.9 0 0 0.1 0.8 0.3 1.6 0 0 1 0.9 1.8 0.4 0 0 1.4-0.7 2.2-1.2l0.5 1.9c0 0 1.4 0 3.6-1.9 0 0 1.4-2.5 2.1-4.9 0 0 0.2-2.4 0.7-5.1 0 0 1.3-3.7 2.5-5.1 0 0 1.2-2 2.2-3.2 0 0 2.9-5 2.9-5.7zm24.7 20.6l-1.8 1.7c0 0-0.7 2-1.6 3.1 0 0-0.2 1.3-0.5 2.2l-0.9 2.9c0 0-1.3 0.8-1.9 1.1 0 0-2.6-0.1-3.2-0.1l-1.6-1.7-1.7 1.8-2.3-0.1c0 0-0.9-1.9-0.9-3 0 0-2.1-0.7-2.8-1.1l0.7-4.2c0 0 1.6 2 2.7 3.1 0 0 0.4 0.9 1.8 1.7 0 0 2-0.4 3.6-1.1 0 0 0.9 0.7 1.8 0.7 0 0 1.4-0.2 3.5-2.8 0 0 0.6-2.3 0.9-3.8 0 0 0.4-0.9 1.8-2.6 0 0 1-1.3 1.6-2.6 0 0 0.6 3.9 0.8 4.8zm11.1-73.1c0 0-2.3 2.1-3 3 0 0-4.6 2.6-5.4 3.1 0 0-6.8 0.9-7.6 0.9 0 0-4.1-0.2-5.5-0.7l-8.5-2.1-6.5-0.7c0 0-3.6 1.2-5.7 1.9l1 0.7 2.7 4.4 1.4 5.3c0 0-3.7-6-4.3-7 0 0-3.3-2.3-5.3-3.4l-4.1-3.8c0 0 6.8-1.8 8.6-1.6 0 0 2.7 0.3 6.8 1 0 0 3.7 0.9 7.1 1.6 0 0 7.6 1.6 9.7 1.8 0 0 5.5-0.2 7.9-0.2 0 0 5.8-2.1 7.2-3l3.1-2.9 2.9-6.4c0 0-1.7 7.7-2.5 8.1z"/>
				<path id="path164" class="s7" d="m600.6 266.1c0.6-0.3 2.6-1.1 3.2-1.3 0.6-0.1 3-0.2 4.5 0 1.5 0.3 3.8 1.7 3.8 1.7 0 0 2-1 2.9-1.4 0.9-0.4 2.4 0.4 3.2 0.8 0.8 0.4 1.6 1.9 1.8 2.7 0.1 0.9-0.6 0.7-0.6 0.7 0 0 6.2 4.6 8.2 6.1 2.1 1.5 6.2 5.3 8.3 6.3 2 0.9 4.5 1.1 6.1 1.5 1.6 0.4 10.3 4.2 12.3 4.5 1.9 0.2 6.2 3.9 9 5.1 2.9 1.3 7.1 2.1 8.5 2.2 1.4 0.1 9.5 0.7 12.3 0.8 2.7 0.2 8.3-2 9.9-1.7 0 0 5.2-0.9 7.6-0.9 2.4 0 6.5 0.6 7.1 0.6 0.5 0 7.4 1.3 7.4 1.3 0 0 8.6-0.1 9.5 0 0.9 0.2 8 2 8.6 2 0.6 0 7.1 1.6 8.8 2.1 1.7 0.6 4 0.3 5.8 1.1 1.9 0.8 3.6-0.8 6.1-1.3 2.5-0.6 4.1-2.2 6.2-3.2 2-0.9 1.5-3.1 1.8-4.7 0.4-1.7-0.1-3.6-0.3-4.8-0.3-1.2-2.7-3.8-3.6-4.6-0.9-0.8-3.4-2.5-4.3-3.3-0.9-0.8-2.3 0-3.2 0.3-0.9 0.3-3.7-0.4-4.6-0.5-0.9-0.2-0.2-1.1-0.2-1.1 0 0 1.2-1 2.8-1.1 1.6-0.2 2.9-0.4 4.5-0.3 1.6 0.1 2.7 0.7 4.8 1.8 2.1 1.1 1.8 1.6 2.6 2.6 0.8 0.9 2.7 4 3 4.6 0.4 0.5 1.6 3.5 2 5.1 0.3 1.7-1.2 5.6-1.9 7.3-0.7 1.6-2.3 2.9-2.8 3.4-0.6 0.4-2.8 2.1-3.9 2.7-1.2 0.5-3.8 0.5-5.3 1.2-1.5 0.7-6.4 0.1-8 0.1-1.6 0-4.2-1.3-5.4-1.6-1.1-0.3-4.9-0.8-6.1-1.4-1.1-0.5-5.8-0.1-5.8-0.1l-5.6 1.5c0 0 2.3 2.7 3.1 3.8 0.8 1.1 2.6 5.4 3.1 6.8 0.4 1.4 1.4 3.3 2.4 5.8 1 2.6 2.3 7.5 2.3 7.5 0 0 1.6 0.6 2.9 2.3 1.4 1.8 3.9 5.3 4.4 5.9 0.5 0.5 1.3 2.4 2.1 3.9 0.8 1.5 2.4 2.6 3.5 3.1 1.2 0.6 3.3 1.1 4.6 2 1.2 0.8 0.6 4.3 0.3 5-0.2 0.7-0.4 4.3-0.2 5.6 0.2 1.2 1.8 8.9 2.1 10.7 0.2 1.8 0.8 2.2 0.6 4.8-0.1 2.5-0.8 1.6-1.9 2.9-1.1 1.4-1.3 2.4-1.5 3.2-0.2 0.8-0.3 3.5-0.8 4.5-0.4 0.9-3.7 1.6-3.7 1.6 0 0-2.4-0.4-2.9-1.5-0.6-1.1-0.8 0.8-2.5 1.4-1.8 0.5-2.2-0.3-2.7-0.9-0.4-0.5-0.7-2.3-0.7-2.3 0 0-2.4-0.9-2.4-1.6 0-0.7 0.1-2 0.6-3.4 0.5-1.4 1.1-1 2.1-1.8 0.9-0.8 2.9-0.4 5.3-1.5 2.4-1.1 1.4-1.1 1.8-2.1 0.3-1.1 1.2-4 0.9-6.4-0.4-2.5-1.7-5.6-1.7-6.8 0-1.3-1.8-4.7-3-7-1.3-2.3-3-1.3-5.3-3.2-2.3-1.9-1.8-1.7-3-1.4-1.1 0.3-2.4-0.5-3.5-0.5-1.2 0 0.6 3.6 0.8 5 0.2 1.4 0.1 3.5-0.1 4.9-0.2 1.4-0.7 4.3-0.9 5.3-0.3 0.9-2 3.8-2.4 4.5-0.5 0.7-2.1 4.6-3 5.8-0.9 1.3-1.6 4.1-1.8 4.7-0.3 0.5-0.4 2.4-0.8 4.2-0.5 1.7-1.8 0.5-2.5 0.8-0.6 0.3-3.4 0.7-4.3 0.9-0.9 0.3-1.9 0.7-2.6 0.6-0.7-0.2-0.5-1.5-0.5-1.5 0 0-1.6 0.4-2.2 0.4-0.5 0-1-0.7-1.1-1.5-0.1-0.8 0.1-1.2 0.4-1.9 0.4-0.7-1.2-0.3-1.7-1-0.4-0.6 0-0.8 0.3-1.7 0.2-1 0.5-1 1.4-1.7 1-0.6 3.8-0.6 4.3-0.6 0.4 0 1.8-1 1.8-1 0 0 2.8-2.6 4-4.1 1.3-1.5 0.6-4.5 0.8-5.5 0.2-1.1 2.2-2.9 2.2-2.9 0 0 0.2-3.3 0.1-5-0.1-1.8-1.1-2.1-1.8-4-0.7-1.9-1.1-2.1-1.4-3.4-0.3-1.2-0.8-0.1-2.7-1.1-2-0.9-1.4-3.4-2.1-4.3-0.7-1-3.6-0.8-8-3.9-4.5-3.2-3.3-3.9-4.6-5.1-1.3-1.2-2.3-3.9-2.4-4.5-0.1-0.5-1.4-0.8-3.2-1.2-1.8-0.4-6.6 1-8.4 0.7-1.7-0.3-6.3 3.9-8 4.3-1.7 0.4-6.8 3.4-7.3 3.4-0.5 0-5.6 2.8-6.3 3.3-0.7 0.5-4.9 0.4-6.4 0.4-1.5 0-8-0.7-8-0.7 0 0-2.3-2-3.7-0.9-1.4 1.1-1.8 2.4-2.4 3.6-0.6 1.3-1.9 3.3-3.1 5.6-1.1 2.3-3.8 6.4-4.6 8.5-0.8 2-3.6 6.5-4.3 8-0.7 1.5-3.1 6.6-3.9 8.5-0.8 1.9-1.6 2.5-2.2 3.7-0.5 1.2-0.4 2.3-0.9 3.9-0.4 1.7-2 1.4-3 2.2-0.9 0.8-3.1 1.2-4.2 1.9-1.1 0.7-2.2-1.3-2.5-2.4-0.4-1.1-0.8 0.5-1.8 0.8-1.1 0.3-1.1-1.8-1.1-1.8 0 0-1.3 0.4-2.3 0.4-0.9 0-0.7-1.9-0.7-1.9 0 0-2.2 0-2.7-0.5-0.5-0.6 0.1-2.3 0.1-2.3 0 0-1.7-0.2-2.5-0.8-0.8-0.7-0.1-1.7 0-2.5 0.1-0.8 1-1.9 1-1.9 0 0 1.2-1.9 2.4-2.3 1.3-0.4 1.5 0.3 2 0.3 0.4 0 1.5-0.6 2.3-1.1 0.8-0.6 1.1-1.4 1.8-2.5 0.7-1 1.8-5.9 1.8-5.9 0 0 3.2-5.5 4.3-7 1-1.5 3.5-9.1 4.2-10.8 0.7-1.8 1.8-3.9 2.2-4.8 0.3-1-0.1-2.3-0.3-2.7-0.1-0.4-0.5-1.5-0.8-2.5-0.2-0.9-1.4-1.5-1.8-2.1-0.3-0.7-0.7-4-0.7-4l-0.1-4.1c0 0-0.3-0.2-0.3-1.9 0-1.6 0.3-2.3 0.2-3-0.1-0.6 0.2-1.9 0.7-3.5 0.4-1.6-0.5-1.5-0.5-2.2 0-0.7 0.7-2.7 0.6-3.4-0.1-0.7-1.4-1.1-1.9-2.3-0.6-1.2-1.4-0.9-2-1.2-0.6-0.3-1.6-0.7-1.9-1.2-0.4-0.6-1.1-1.5-1.1-1.5l-1.1 0.5-1.2-2.4c0 0-1.1-1-1.7-1.4-0.5-0.4-1.8-1.2-2.4-1.6-0.6-0.4-1.1-1.2-1.5-2.1-0.3-0.8-1.2-0.6-1.2-0.6 0 0-0.8 0.1-1.6 0.1-0.8 0-5.3-0.4-5.3-0.4h-3c0 0-1.3 0.5-1.9 0.5-0.6 0-0.6-0.8-0.6-0.8l-1.2 0.7-0.4-1.4-0.9-0.8-0.2-0.9 0.3-1.8c0 0 0.5-0.5 0.8-1.1 0.4-0.5 0.1-1.6 0.1-1.6l0.5 0.7 1.5 0.9c0 0 1.5 0 2.3 0.3 0.8 0.3 1.4-0.1 2.1-0.1 0.7 0 0.8-0.7 1.3-1.5 0.4-0.9 0-1-0.2-1.8-0.3-0.8-1-1.4-1-1.4 0 0-2.2-0.4-2.8-0.5l-1-0.1-1.2 0.9-0.2 2.5-1-1.1-0.6-1.4-1.6-0.9-0.8-1-0.4-1.5v-1.8c0-0.5 0.3-1.1 0.5-1.6 0.2-0.5 0.3-1.9 0.3-1.9 0 0-0.2-0.9 0.1-1.6 0.4-0.7 0.5-0.4 1.4-1 0.9-0.5 1.3 0.3 2.1 0.4 0.8 0.2 1.1-0.4 2.4-0.7 1.2-0.2 2.3-1.6 2.3-1.6 0 0 1.2-1.1 1.8-1.3z"/>
				<path id="path166" class="s7" d="m624.5 328.2c0.4 0.6 3 2.8 3.5 3.1 0.6 0.3 1.6 0.9 1.6 0.9 0 0-0.8 2.9-0.9 3.8-0.1 0.9 0 4.1-0.3 5.4-0.2 1.4-1.2 3.7-1.9 5.5-0.6 1.8-1.9 5.4-3.3 8.4-1.4 3-2.7 7.4-3.2 8.6-0.5 1.2-1.5 4.2-2 5.1-0.5 1-3 1.9-3 1.9 0 0-1.9-0.5-2.7-0.2-0.8 0.3-0.5-0.1-1.5 1.1-1.1 1.2-1.6 1.3-1.7 2.1-0.1 0.7 0 1.9 0 1.9m5.7 1.8l0.4-1.8c0.8-0.7 1.7-1.2 1.7-1.2h2m-7 2.9c0-0.6-0.1-2.1-0.1-2.1 0.5-0.6 1.4-1.4 1.4-1.4l2-0.9m-8.8 0c0-0.7 0.4-2.2 0.4-2.2 0.7-0.6 1.7-1.4 1.7-1.4 0.6 0 2.3 0.6 2.3 0.6m35.3-35c0.1-0.6 1.8-3 1.8-3 1.1-1.2 2.3-1.8 2.3-1.8 0.5-0.5 2.6-1.5 2.6-1.5m75 14l-2.7-1.2c-2-0.9-4.4-1.8-4.4-1.8-2.6-0.3-4.5-0.8-4.5-0.8-1.4-0.9-4-3-4-3-1.8-1.4-3.2-3-3.2-3-1.7-1.5-3.5-3.3-3.5-3.3-1.7-2.8-3-3.4-3-3.4-1-1.3-6.2-1.8-6.2-1.8m-77.3-40.4l-2 2.7c0 0-0.9 0.8-2.3 2l-1.5 0.6c0 0-1.2 0-1.9 1.2 0 0-0.9-0.3-2.1-1.1 0 0-0.3 0.8-1 1.7l-1-0.9m12.7-21.6c-0.4 0.6-1.4 2.1-1.4 2.1-1.3 0.9-2.8 1.4-2.8 1.4-1.1 0.1-1.8 0.1-1.8 0.1-1.1-0.1-2.1-0.4-2.1-0.4m-17.6 1c0 0-1 0-1.3 0.1 0 0-0.6 0-1-0.1 0 0-0.6-0.4-0.8-0.5l-0.6-0.6m17.1-0.9c0 0-1.9-0.2-2.3-0.2 0 0-1.4 0.2-1.8 0.2 0 0-0.5 0.1-0.7 0.2 0 0-1.1 0.4-1.6 0.6 0 0-0.6-0.3-0.6-0.6 0 0 0.3-0.8 0.4-1.2 0 0 0.6-0.7 0.7-0.8m-5.8 8.4c0.9 0 2.2-0.1 2.2-0.1 0.6-0.1 1.5-0.1 1.5-0.1 0.5 0.2 1.3 0.5 1.3 0.5 0.4 0.2 1.1 0.6 1.1 0.6 0.1 0.3 0.6 2.1 0.6 2.1m-7.5-0.6c0 0-0.9 0.3-1.4 0.5 0 0-1.1 0-1.3-0.1m2.5 4.5l-0.7 0.6c-0.3 0.1-1 0.5-1 0.5-0.4 0-1.1 0-1.1 0m117.5 92.9c0-0.7 1-2.9 1-2.9 0.6-0.6 1.6-0.9 1.6-0.9 0.9 0.1 3.1-1.5 3.1-1.5m-8.3 2c0.3-0.9 2.2-2.3 2.2-2.3 0.5 0.2 1.6 0.6 1.6 0.6 0.8 0.1 2.3-1 2.3-1m28.7 7.8c-0.1-1.6 0.1-3.2 0.1-3.2 0.7-0.7 1.1-1.1 1.1-1.1 1.1-1.4 1.9-2.5 1.9-2.5 0.2-1 0.2-1.1 0.2-1.1m-8.8 6.5c0.1-0.7 1.3-2.8 1.3-2.8 0.8-0.8 1.4-1.1 1.4-1.1 1.3-0.6 3.4-2.6 3.4-2.6m1.4-28.2c0 0 1.6 0.6 2.7 1.4 0 0 0.4 0.9 0.5 2.2 0 0 0.1 2.4 0.2 3.3m-135.1-83.4l1.3-0.6c0 0 1.5-0.8 2-0.8 0.5 0 1.3 0.1 1.7 0.4 0.5 0.2 0.8 1.3 0.8 1.3 0 0 0.2 1-0.7 1.6 0 0-0.5 0.3-1.1 0.6 0 0-1.3 0-1.8 0.2l-1.6 0.1m101.3 28.3l3.6 1.6 3.9 2.2"/>
				<path id="path168" class="s12" d="m602 271.4c0 0 0.7-0.1 0.9-0.2 0.2-0.2 0.9-0.2 1.4-0.2 0.5 0 1.1-0.3 1.9-0.3 0.7 0.1 0 0.8-0.1 1.1 0 0.4-0.5 1.1-0.6 1.3-0.2 0.2-0.9 0.5-1.3 0.5-0.3 0.1-1.1-0.3-1.4-0.4-0.2-0.1-0.7-0.7-0.7-0.7l-0.4-1"/>
				<path id="path170" class="s13" d="m603.1 271.5c0 0 0.8-0.4 1.2-0.5 0.5-0.2 0.1 0.1 0.1 0.6-0.1 0.4 0.2 1.5 0.4 1.9 0.2 0.4-0.7-0.2-0.9-0.3-0.2-0.2-0.8-0.8-0.8-0.8l-0.1-1.2z"/>
				<path id="path172" class="s14" d="m608.1 276.3c1.7 0.2 1.7 0.5 2.4 0.9 0.8 0.5 2.5 1.1 4.8 2.4 2.2 1.2 1.4 2.1-0.7 1.5-2.1-0.6-1.3 0.5-1.3 2.2 0 1.7-0.8 0.3-4.1-1.7-3.2-2-0.6 2.2-1.1 3.4-0.6 1.3-1-0.9-2.4-1.9-1.4-0.9-1.4 1-1.4 1 0 0 0.1-1.9 0.4-3.4 0.2-1.6-0.3-1.9-0.4-2.8-0.2-1-0.8-1.1-1.5-1.7 0 0 3.6 0 5.3 0.1zm14.8 6.6l-3.5-4.5c0 0 3.9 2.1 5.3 2.8 0 0 4.6 4.2 5.4 4.7 0 0 1.7 0.7 6 1.4 0 0 3.2 0.2 7.6 1.1 0 0 4.3 1.4 8.8 2.7 0 0 5.6 2.7 8 4.1 0 0 6.2 0.9 12.2 1.8 0 0 7 1.1 11.2 1.1 0 0 6.3 0 10.2 1.9 0 0 2.1 2.9 2 4 0 0-5.3 4.1-9.1 3.7 0 0-1.8 0.2-5.7 1.6 0 0-4.7 1.1-7.2 1.8l-8 1.4c0 0-1.4-2.1-2.6-2.3 0 0-2.8 0.6-5.1 1.6 0 0-0.7 2.4-0.3 3.8l-0.1 5.5c0 0-1.7-2.5-2.3-2.3 0 0-2.1 0.4-3 0.9 0 0-1.5 1.4-3.2 1.4 0 0-2.5 1.3-4.2 2.5 0 0-1.5 2-4.5 6.1 0 0-3 3.4-4.2 6.8 0 0-2.9 5.4-4.5 7.3 0 0 0.1-3 0.6-5.3 0 0 1.5-4.1 1.9-6.3v-5c0 0-0.7-1.6-1.3-2.1l-1.8-0.9c0 0-0.5-2.7-0.9-4 0 0-1.4-1.9-2.2-2.6 0 0-0.9-2-1.3-4 0 0-0.6-2.7-0.8-3.4 0 0-0.3 0 1.7-5.3 0 0 0.7-0.8 2-4 0 0 0.4-2.7 0.6-5.3 0 0-3.1 0-3.5-3.3 0 0-2.6 2.4-3-1.2l-2.7-0.6c0 0 0.7-2.3 2.4-6.4zm91.8 24.7c0 0 2.9 1.4 4.9 3.2 0 0 1.5 2.2 3.6 6.4 0 0 1.6 3.3 3.6 8.5 0 0 1.7 3.9 3.9 5.7 0 0 3.5 2.5 4.8 4.6 0 0 0.3 2.2-1.5 1.3 0 0-2.7-1.1-5.1-1.8 0 0-3.6-0.7-6.3-1.6 0 0-4.1-2.3-7.1-5.9 0 0-2.7-3.8-5-9.1 0 0-1-1.5-3.7-5.1 0 0-1.7-2.8-1.1-6.2 0 0 2.7-1.4 6.5-0.9 0 0 1.6 0.4 2.5 0.9z"/>
				<path id="path174" class="s13" d="m591.9 272.7c0.2 0.1 1.8 0.2 1.8 0.2 0 0-0.4 0.3-0.8 0.4-0.3 0.1-0.6 0.3-1.1 0.6-0.5 0.2-0.7 0.2-1 0.2-0.4 0.1-0.8 0.5-0.8 0.5 0 0 0.4-1 0.4-1.2 0-0.3 0.2-1.3 0.2-1.3 0 0 1 0.6 1.3 0.6z"/>
				<path id="path176" fill-rule="evenodd" class="s13" d="m607.3 267.2c0 0.7-0.5 0.9-1.3 0.9-0.7 0-1.4-0.5-1.3-1.1 0.1-0.6 1-0.8 1.9-1.4 0 0 0.7 1 0.7 1.6zm2.5 6.2l-0.1 2.1c0 0-0.5-0.2-1.5-0.8 0 0 0.2-1.6 1-2.4 0 0 0.5 0.6 0.6 1.1zm-13.1 0.4c0 0-0.8 0.8-1.2 0.8 0 0 0-1.1 0.6-1.7 0 0 0.6 0.4 0.6 0.9zm24 1.3c0 0-0.7 1-1.8 0.2 0 0-0.1-1.6 1.5-2.2 0 0 0.4 0.6 0.3 2zm-21.8 0l-0.2-1 0.8-0.1zm-1.8 0.6c0 0-0.2-0.5 0.4-1 0 0-0.4 1-0.4 1zm28.9-0.7c0 0 1.4 2.2 0.7 3.8 0 0-1.3 0.3-2.6-1.6 0 0 0.5-1.5 1.4-2.3zm-30.5 0.5c0 0-0.3 0.9-1.1 0.7 0 0-0.1-0.7 0.5-1.2zm20.4 0.7c0 0 0 1.6-0.5 2 0 0-1.9-0.1-2.6-1.5 0 0 1-1.3 1.6-1.7 0 0 0.8 0.8 1.5 1.2zm-23 0l-0.5 0.2c0 0 0.1-0.5 0.2-1.1zm165.9 1.2c0 0 2 1.6 1.7 2.9 0 0-0.4 0.9-1.9 0 0 0-0.4-2 0.2-2.9zm-164.5 0.2l-0.5 0.8-0.5-0.8zm15.5 0.8c0 0 0.5 1.2-0.2 2.4 0 0-1.8-0.7-2.5-1.5 0 0 0.3-1 1.7-1.4 0 0 0.5 0.2 1 0.5zm9.1 1.3c0 0-0.2 0.9-0.6 0.9 0 0-0.3-1.4 0.2-2.5 0 0 0.3 1.1 0.4 1.6zm6.2-0.2c0 0 0.1 1.9-0.5 3.1 0 0-2-0.4-3.2-1.4 0 0 0.2-2 1.7-3 0 0 1.5 1 2 1.3zm7.8 3.5c0 0 0 0.2 0 0.3-0.1-0.2-0.2-0.3-0.4-0.4-1.1-1-1.2-3.3-2.1-2.7-0.8 0.6-1.6 1.2-1.6 1.8 0 0.6 0.2 1.4 1.1 1.9 0.8 0.5 0.9 0.9 1.7 0.9 0.4 0 1.1-0.4 1.3-0.9q0 0.6 0 1.5c0 0-1.1 0.6-2.8 0.6 0 0-1.3-0.7-1.3-1.5 0 0-0.9-1.5-0.9-3 0 0 2.3-2.7 3.1-2.8 0 0 1.4 2.7 1.9 4.3zm0 0.9c0-0.3 0-0.5 0-0.6 0.1 0.2 0.1 0.5 0 0.6zm-10.1-4.9c0 0 0.4 0.5 0.4 0.5l-0.2 1.1c0.5 0.5 1.2 0.9 1.2 0.9l-0.6-1.8-0.3-0.1-0.1-0.1 0.1-0.4zm14.4 3.4l-0.3 1.3c0 0-0.6 0.5-1.5 0 0 0-0.1-1.1 0.7-1.9 0 0 1.1 0.6 1.1 0.6zm-22.1 1.4c0 0-1.1 1.8-2 1.1 0 0 0-1.7 1-2.9 0 0 1.1 0.8 1 1.8zm-7.9 1.6c0 0-1.4 0.5-2-0.2 0 0 0-1.4 0.5-2.3l0.5-0.3c0 0 1.1 1.3 1 2.8zm36-1.6l-0.2 0.7c0 0.9 0.4 1.8 0.4 1.8 0.1 0.5 0 1.5 0.7 1.3 0.6-0.3 1.7-2 1.7-2l-1-1.1c0.5 0.2 1.1 0.5 1.5 0.5 0 0 0.9 0.7 0.5 1.7 0 0-0.5 0.9-1.1 2.1 0 0-1.8 0.8-2.6-0.5 0 0-0.1-0.7-1.8-1.5 0 0-0.3-2 0.5-3.5 0 0 0.6 0.3 1.4 0.5zm0 0q0 0 0 0v0.1zm0 0l0.1-0.5 0.8 0.5c0 0 0.1 0.3 0.5 0.4l0.2 0.3c-0.8-0.4-1.5-0.7-1.5-0.7q-0.1 0-0.1 0zm-15.5 1.8c0 0-0.9 1.5-1.5 1l-0.5-1.6 0.5-0.8c0 0 1.4 0.5 1.5 1.4zm-8.5 0.9c0 0-0.6 1.8-1.1 2.3 0 0-1.1-1.1-0.7-3 0 0 0.4-0.1 0.8-0.2 0 0 0.8 0 1 0.9zm21.3 2.3c0 0-0.4 1.9-1.8 2.1 0 0-1.5-0.4-2.3 0.6 0 0-1.4 0-2.5-1.5 0 0 1.1-2.4 4.3-4.4 0 0 1.6 1.4 2.3 3.2zm-16-1.6c0 0 1.6 1.9 1.7 3.7 0 0-1.3 2.4-3.3 2.8 0 0-1-0.1-1.8-0.5 0 0-0.8-2.5-0.9-3.9 0 0 0.8-1.6 2.9-2.7 0 0 0.9 0.3 1.4 0.6zm11.5 1.2v0.9c1.1 0.5 2.6-0.2 2.6-0.2 0.2-0.8-0.2-0.7-0.2-1.2 0-0.5-0.2-0.8-0.2-0.8-1.8 0.5-2.2 1.3-2.2 1.3zm21.8 1.1c0 0 2.7 1.8 4.5 2.5 0 0-0.5 1.7-1.4 3.3 0 0-2.7 0.9-3.6-0.1 0 0-0.9-3.3-1.7-5.2 0 0-1-1.7-1.1-2.8 0 0 2.2 1.7 3.3 2.3zm107 0.2c0 0 0 2-0.8 2.3 0 0-1.5-1.4 0.2-3.9 0 0 0.9 0.2 0.6 1.6zm-143.6-0.1c-0.3 1.4 0.1 2.6 0.1 2.6 1.6 0 3.7-0.2 3.9-0.9 0.2-0.8-0.8-2.7-0.8-2.7l-1.1-0.5c-0.9 0-2.1 1.5-2.1 1.5zm36.1 2.7c0.4 1.1 1.1 1.8 1.1 1.8 1 0.2 1.5 0.6 1.8-0.2 0.4-0.7 0.8-2.2 0.8-2.2l-4.7-2.9c0.1 0.8 1 3.5 1 3.5zm-25.2-1.3c0 0 0.9 1.8 1 3.6 0 0-0.2 1.6-0.9 3.5 0 0-2.7 0.8-2.9-2.3 0 0-0.6-0.8-1.3-2.4 0 0 0.4-1.6 2.3-3.1 0 0 1.1 0.4 1.8 0.7zm17.9-0.7c0 0 0.4 0 1.1 0.1 0 0 1.1 0.8 2.8 1.3 0 0 0.1 2.7-1.2 3.8 0 0-0.3 0.6-1.9 0.7 0 0-1.4 0.3-2.3-0.4 0 0-1.1-1.7-0.9-2.7 0 0 0.8-1.6 2.4-2.8zm-5.5 0.8q0.3 0 0.6 0.1c0.4 0.7 0.6 1.2 0.2 2.2 0 0-0.6 0-1-0.5 0 0-0.6-0.1-1.8-1.1 0 0 0.5-0.6 1.9-0.7zm4.6 1.6c0 1.6 0.1 2.1 0.1 2.1 1.5 0 2.9-0.7 2.9-0.7 0.4-0.3 1.5-0.8 0.7-1.4-0.9-0.7-2-1.3-2-1.3-1.2 0.5-1.7 1.3-1.7 1.3zm-19.6 1.1c0.5 1.1 1 1.9 1 1.9 0.2 1.3 1.3 1 1.3 1 0.2-1.9 0.1-2.8-0.3-3.4-0.5-0.6-1.1-1.6-1.1-1.6-0.5 0.1-0.9 2.1-0.9 2.1zm6.1 0c0 0-0.5 0.8-1.1 0.6 0 0 0.2-1.2 0.8-2.5 0 0 0.2 0.4 0.3 1.9zm-16.8 0.8c0 0-0.9 1-1.8 0.7 0 0 0-1.5 0.9-2.9 0.6 0.4 0.9 0.9 0.9 2.2zm23.2-0.9c0 0 1.6 0.7 1.8 1.8 0 0 0.8 1.3 0 3.4 0 0-1.1 1.4-3 1.6 0 0-1.5-0.4-2.2-1.3 0 0-1-1.1-1.6-2.6 0 0 0.4-0.6 2.7-3.2 0 0 1.5 0 2.3 0.3zm23.5 0.1c0 0 1.5 0.9 2.4 1.6 0 0-0.2 2.4-1.1 3.4 0 0-3.2 1.1-4.2-0.3 0 0 1.4-3.4 2.9-4.7zm26.6 0.4c0 0 3.3 0.1 3.3 0.9 0 0-1.5 2.1-3.6 3.5 0 0-1.8-1.2-2.5-3.9 0 0 0.4 0.2 1.1 0.2 0.3 1 0.7 2.4 0.7 2.4l1.8-0.5c0.7-0.3 1.4-1.2 1.4-1.2-0.1-0.7-1.6-0.9-1.6-0.9-0.2-0.1-0.8-0.1-1.3 0q0.4-0.2 0.7-0.5zm-1.7 0.6c0 0 0.5-0.1 1-0.1q-0.5 0.2-1 0.2 0 0 0-0.1zm13 1.4c0 0-1.5 1.6-4.3 0.8 0 0 0.1-1 3.3-2.8 0 0 1 1.2 1 2zm10.9 0c0 0 0.1 1.7-1.7 1.7 0 0-1-2.8-0.4-3.5 0 0 1.2 1 2.1 1.8zm-74.9-0.5c-0.7 1.4-0.2 2.3-0.2 2.3l2.2 0.4c0.6-1.3 0.6-3.1 0.3-3.7-1.3 0-1.7-0.4-2.3 1zm25.4 1.5c0.4 0.4 1.4 0 1.4 0l-0.1-2.5c-1.1 2-1.7 2.1-1.3 2.5zm57.6-2.1c0 0-0.4 3-1.9 4.1 0 0-3.4-1.6-3.4-3.6 0 0 3.6-0.5 4.9-0.6q0.3 0 0.4 0.1zm-46.1 0.3c0 0 2.9 2.2 3.8 3.8 0 0 0 1.6-0.3 3.7 0 0-1.7 1.1-2.6 1.3 0 0-2.7-0.7-4.2-2.3 0 0-0.1-2.5 0.3-4.9 0 0 1-1.5 2.4-1.6q0.3 0 0.6 0zm36 3.1c0 0 0.5 2.8 0.9 5.5 0 0-4.2 0.9-5-1.2 0 0-2.1-0.6-4.8-3.3 0 0 1.1-2.5 3.4-2.8 0 0 0.4-0.6 1-0.7 0 0 2.4 0.7 4.5 2.5zm7.6-1l1.4-1-2.2-0.3c-0.5 0-1.4-0.1-1.4-0.1zm-66.2 1c0 0-1 0.3-1.9-0.2 0 0 0.4-0.7 2.5-2.1 0 0-0.3 1.6-0.6 2.3zm109-0.4l-1.1 1.3c0 0-1.3-1.1 0.5-3.2zm-136.5 0.5c0 0-1.6 0.5-2.4-0.8 0 0-0.1-0.4 2.1-1.6 0 0 0.6 0.7 0.3 2.4zm71.9 1.3c0 0-2.4 2.3-4.5 1.7 0 0-0.5-1 3.9-5.1 0 0 0.7 1.1 0.6 3.4zm-24-0.4c0.4 1 1 1.7 1 1.7 2 0.5 2.8-0.1 2.8-0.1 0.2-1 0.4-2-0.3-2.5-0.8-0.5-1.5-1.4-1.5-1.4l-0.4-0.6c-1.1 1.1-1.6 2.9-1.6 2.9zm56.2-2.2c0 0 1.2 1.8 0.4 3.3 0 0-2.1-1.1-1.2-3.9 0 0 0.8 0.6 0.8 0.6zm-24.9 2.2c1.1 0.7 2.5 1.9 2.5 1.9 2.3 1.6 3.8 2.5 3.8 2.5 0.9-1.1 0.8-2.5 0.8-2.5-1.1-1.9-2-3.3-2.8-3.6-0.7-0.2-1.9-0.6-1.9-0.6-1.5 1.4-2.4 2.3-2.4 2.3zm-13.1 1.8c0 0-0.6 3.2-1.8 4.3 0 0-4.6-0.9-5.5-3 0 0 0.4-2.2 1.8-4 0 0 0.1-0.7 0.7-0.7 0 0 3.9 1.8 4.8 3.4zm-56.2-1.3c0 0-0.8-1.4-0.2-1.8 0.5 0.5 0.6 2 0.2 1.8zm22.8-1.7c0 0 2.5 1.9 2.7 4.8 0 0-1.6 2.4-3.2 2.6 0 0-2.1 0.2-3-1.5 0 0-0.9-1.6-2.5-2.1 0 0 2.2-2.2 4.9-3.3 0 0 0.1-0.5 0.8-0.5q0.1 0 0.3 0zm81 2.1c0 0-0.3 1.6-2.4 1.8 0 0-1.5-1.1-0.3-3.2 0 0 1.7 0.2 2.7 1.4zm-14.4 0.9c-1.1 0.2-4.5 0.9-4.5 0.9l4-3c0.8 0.3 1.5 1.9 0.5 2.1zm-74.6 2c0 0 0 2.9-0.7 4.4 0 0-1.8 0.1-3.6 0.4 0 0-1.4-0.5-1.6-1.8 0 0 0.2-2.3-0.3-2.9 0 0 2-3.4 3.1-4.2 0 0 2.5 2.5 3.1 4.1zm95.7-2.5c0 0 0.3 0.5-1.2 1.9 0 0-2.3-1.2-2-3.2 0 0 3.2 1.3 3.2 1.3zm-115.8-0.2c0 0 0.2 1.3-0.1 3 0 0-1.4 0.3-2.9-1.2 0 0 0.3-1.7 1.2-2.8 0 0 1.4 0.9 1.8 1zm125.6 1.4c0 0-0.3 0.5-1.7 0.7 0 0-0.2-0.9 1.7-3 0 0 0.3 1.6 0 2.3zm-100.9-0.9c-1 0.4-0.7 1.4-0.7 1.4 0.8 0.3 1.4 1 1.4 1 0.9 0.8 4.3 0.6 4.3 0.6 0.5-1.2 0.3-1.8-0.3-2.4-0.7-0.5-1.7-1.9-1.7-1.9-1.3 0.4-3 1.3-3 1.3zm16.1 2c0 0 1 0.7 1.1 2.7 0 0-0.8 2.9-2.8 3.6 0 0-1.2 0.7-2.7 0.1 0 0-2.6-2.5-3.5-3.5 0 0 1.8-3.4 5-6.1 0 0 1.9 2.3 2.9 3.2zm29-1.4c0 0-1.2-0.9-0.3-1.8zm-12.5-1.3c-0.4 2.4-0.1 2.9-0.1 2.9 1.7 0.4 3-0.5 3-0.5-0.2-1.7-1.1-2.5-1.1-2.5q-0.5-0.2-0.8-0.2c-0.7 0-1 0.3-1 0.3zm-59.4 1.4l1.2 1 0.3-1.2-1-1.1c-0.3 0.6-0.5 1.3-0.5 1.3zm17.6 1.5c0.3 2.3-1.1 2.1 0.3 2.5 1.3 0.4 2.4-0.1 2.4-0.1l-0.3-2.2c-0.5-1.2-0.8-2-1-2.7-0.9 1-1.4 2.5-1.4 2.5zm-10.7-1.9l0.5 0.1c0 0 0.8 0.5 1.3 1l0.6 1.8c0 0 2.6 0.3 2.6 1.6 0 0-1.1 1.7-3.1 4.3 0 0-1.8-0.1-3.3-1.5 0 0-1.3-0.1-2.1-1 0 0 0-1.2 0.3-2.1 0 0-0.6-1.2 0-2.2 0 0 1.6-1.8 3.2-2zm-1.5 2.5c0 1.3 0.2 1.7 0.2 1.7-0.5 1.1-0.6 2.1-0.6 2.1 1.5 0.4 2.4 0.8 2.4 0.8 1.9-0.4 2.9-2.3 2.9-2.3-1.3-0.5-2.5-0.9-2.8-1.4-0.3-0.5-0.8-2.3-0.8-2.3-0.8 0-1.3 1.4-1.3 1.4zm31.7 0.9c-0.9 1.4 0.2 3.2 0.2 3.2 1.3 0.3 2.9-0.2 2.9-0.2 1.7-0.9 3-1.1 2.1-2.5-0.8-1.4-1.9-2.1-1.9-2.1l0.7-0.2-0.7-0.5c-2.5 1.4-3.3 2.3-3.3 2.3zm85.6-1.3c-0.9 0.9-2.9 1.2-3.6 0.5-0.2-0.7 2.1-1.4 2.1-1.4 0.7 0 1.5 0.9 1.5 0.9zm-45 5.5c0 0-1.9 3-4.1 2.2 0 0-1.8 1-3.9 0.8 0 0-1.5-0.1-2.1-3.2 0 0 2.1-3.7 6.4-4.8 0.3 1.1 2 2.9 3.7 5zm-52.2-1.8c0 0-1.2 2-2.8 1.1 0 0 0.3-1.1 2.7-2.7 0 0 0.1 1.6 0.1 1.6zm67.1 0.4c0 0-0.2 0.9-1.7 3 0 0-1 0-2.1-1.9 0 0 0.3-1.9 2.2-2.9 0 0 1.6 1.1 1.6 1.8zm-42.5 0.3c0 0-0.6 0.9-3.3-0.3 0 0 1.5-1.8 2.5-1.6 0 0 0.8 0.9 0.8 1.9zm19.7 0.6c-0.2 1.1 3.4 2 4.2 1.7 0.7-0.2 1-1.6 1-1.6l-1.9-2.3c-1.6 0.4-3.3 2.2-3.3 2.2zm-6 2.1c0 0-2.3-1.8-1.5-3.9 0 0 2.1 3 1.5 3.9zm20.2-3.4c0 0 1.5 0.9 3 2.5 0 0 0 1.8-0.2 5 0 0-1.6-0.2-3.7-2.1 0 0-0.5-1.8-3.2-3.8 0 0 0.8-1.4 3-1.6q0.5 0 1.1 0zm-0.4 1.4c-0.5 0.6-1.7 0.5-1.7 0.5 0.6 1.1 1.8 2.5 1.8 2.5 1 1 1.4 1.2 1.4 1.2 0.3-1.6 0-4.1 0-4.1-0.5-0.4-0.9-0.5-1.1-0.5-0.4 0-0.4 0.4-0.4 0.4zm-25.1 0.8c0 0-0.6 4.6-1.5 4.8 0 0-2.4-0.4-5-2 0 0 1.1-1.6 4-3.9 0 0 1.9 0 2.5 1.1zm-59.8 1c0 0-0.5 2.4-1.5 2.1 0 0-0.2-2.1 1.1-3.5 0 0 0.4 0.7 0.4 1.4zm55.9 0.3c-0.7 1.4 0.2 2.3 0.2 2.3 1.7-1 2.1-2.9 1.8-3.8-0.5 0-2 1.5-2 1.5zm-23.9 0.4c0 0 0.5 3.1-0.1 4.1 0 0-1.1 0.7-4.4 1.6 0 0-2.7-1.6-3.3-4.7 0 0 1.3-1.5 3.7-2.4 0 0 1.3-0.2 2.8-0.2 0 0 0.2 0.1 1.3 1.6zm-35.2 0.8c0.3 1 2.3 0.6 0.8 2.3-1.4 1.6-3.4 2.2-3.4 2.2 0 0 0.2-0.8 0.3-1.6 1.2 0.1 2.5-0.4 2.5-0.4-0.3-0.8-1.1-2-1.1-2-0.6-0.8-0.9-1.1-0.9-1.1l0.1-1.7c0.7 0.6 1.7 2.3 1.7 2.3zm-2.5 2.9l0.1-0.6c0 0 0-1.1 0.6-3 0 0 0 0.1 0 0.1v0.8c0 0 0 0.1 0 0.1-0.1 0-0.4 0.8-0.4 1.7q0 0.4-0.1 0.9-0.1 0-0.2 0zm12-4.3c0 0 0.9 0.9 1.1 2.9 0 0-0.6 1.5-1.9 2 0 0-1.6 0.2-3.1-2.3 0 0 0.8-1.6 2.6-3 0 0 0.8 0.4 1.3 0.4zm32 2.1c0 0-1.4 2.1-3.5 1.2 0 0-0.3-2.1 0.2-2.8l0.7-0.6c0 0 1 0.2 2.6 2.2zm9.6-1.3c0 0 0 3.2-0.7 5.9 0 0-3-0.1-3.9-0.7 0 0 0.4-3.4 4.6-6.1 0 0 0 0.9 0 0.9zm-30 1.5c0 0 0.5-0.3 1.5-0.9 0 0 0.6 0.4 0.7 1.5 0 0 0 2 0.4 3.7 0 0-0.4 1.7-1.1 3 0 0-1.6 0.1-3.4-0.5 0 0-0.8 0.8-1.6 0.4 0 0-1.4-0.5-2.1-0.5 0 0-0.4-2.8-0.3-5.2 0 0 1.1-2 3.1-2.8 0 0 0.4-0.5 1.5-0.7 0 0 0.8 1.5 1.3 2zm8.7-0.8c-0.2 1.3-0.2 2.2-0.2 2.2 0.9 0.5 2.7 0.6 2.7 0.6 0.9-0.8 1.9 0.1 1.4-1.5-0.6-1.7-1-2.4-1-2.4-2.7 1-2.9 1.1-2.9 1.1zm-22.9 0.9c0.2 1 0.3 1.4 1 1.4 0.6 0 1.1-1.1 1.1-1.1l-0.4-1.6c-1.4 0.4-1.7 1.3-1.7 1.3zm41.9 1.1c-0.3 0.8-0.5 1.4-0.5 1.4 0.4 0.9 0.4 1.9 1 1 0.6-0.8 1-3.8 1-3.8l-0.2-0.7zm-29.8-1.9c0 0 0.1 0.2 0.1 0.2-2 1.5-1.1 3.1-1.1 3.1-0.2 0.6-0.6 1.7-0.9 2.4-0.3 0.6 1.4 0 1.4 0l1.7 0.2 1.6-2.1c0.2-0.9 0-1.5 0-1.5-1.7 0.3-2 0.5-2 0.5-0.2-0.9-0.6-2.4-0.7-2.6q0.2-0.2 0.5-0.3c0 0-0.6 0.1-0.6 0.1zm81.5 3.3c0 0-0.4 3.4-0.6 4.3 0 0-0.7 3.2-1.5 3.2l-2.3-0.9c0 0-1.6-0.5-3.3-3.2 0 0 1.8-4.5 5-6.4 0 0 1.5 1 2.7 3zm-21.1 0c0 0-0.6-1.1 2.6-2.7 0 0-0.3 2.9-2.6 2.7zm16 1.5c-0.5 1.4 0.2 3 0.2 3 0.5 0.5 3.1 0.8 3.1 0.8-0.1-1.8-0.2-2.4-0.2-3.7 0-1.2-0.1-2.1-0.1-2.1-1.8 0.7-3 2-3 2zm-22 0.7c0 0-0.6 1-1.5 1 0 0-0.3-1.6 0.9-3 0 0 0.6 2 0.6 2zm-67.7 0c0 0 0.7 1.8 0.2 3.5 0 0-2.2 0.1-4.6-1.3 0 0-0.4-1.8 1.4-3.7 0 0 1.4 0.4 3 1.5zm51-0.1l-0.2 2c0 0-2.1-1.4-1.2-2.7 0 0 1.4 0.7 1.4 0.7zm-44.4 0c0 0 1.1 0.4 1.3 2.7 0 0-1.3 1-3.3 0 0 0 0-1.7 1.4-3.2zm75.7 1.7c0 0 1.6 1.4 2.2 3.1 0 0-1 3.1-3 2.9 0 0-3.7-2.3-4.9-5 0 0 0.3-2.9 2.1-2.9 0 0 2.2 0.6 3.6 1.9zm-85.9-0.4c-0.1 0.6 1.5 1.1 1.5 1.1 0.8 0.4 1.5 0.9 1.5-0.1 0-1-1.3-2-1.3-2zm45.2 2.1c0 0-1 0.7-2.1-0.5 0 0-0.1-1.1 1.4-2.5 0 0 0.7 1.6 0.7 3zm-5.4 0.9c0 0-2.1 2.5-4.7 2.9 0 0-0.4-0.2-2.8-1.3 0 0 0.4-2.5 3.7-3.2 0 0 0.2-1.4 2.5-2.1 0 0 1.2 1.6 1.3 3.7zm43.2 0.4c2.3 1.2 3.2 1.4 3.2 1.4 0.4-2.7 0.8-2.3-0.8-3.4-1.6-1.2-2.3-1.3-2.3-1.3-0.7 1.6-0.1 3.3-0.1 3.3zm-55.4-0.8c0 0-1.8 1.1-3.6 0.9 0 0 0.4-2.1 3.5-3.2 0 0 0.1 1.6 0.1 2.3zm10-0.7c-0.8 0.5-2.1 1.5-2.1 1.5l-1.3 0.5c0 0.9 0.5 2.4 2 1.1 1.5-1.2 2-3.4 2-3.4zm64 6c0 0-0.5 1.1-2.6-1.1 0 0-0.1-2.3 2.3-4.1 0 0 0.7 3 0.3 5.2zm-98.1-1.6c0 0 0.4 1.8-0.1 3.1 0 0-1.6-0.8-3.5-2.3 0 0 0.2-2 2.1-2.3 0 0 0.7 0.5 1.5 1.5zm26.8 0c0 0-0.6 0.7-1.8 0.3 0 0 0.2-0.7 1.7-1.8zm-13.7-0.1c0 0 0.4 1 0 2.5 0 0-0.8 1-2.8 0.5 0 0-1.2-1.5 1.9-3.8zm6.8 4.5c0 0-2.2 1.6-3.9 2.1 0 0-0.3-1.2 0-3.5 0 0 1.2-1.8 4.4-2.7 0 0 0.7 2.5-0.5 4.1zm12.7-0.2c0 0-2.9 0-2.9-0.9 0 0 3.2-1.8 5.3-2.5 0 0-1.1 1.2-2.4 3.4zm59.1-2.9l1.1 0.6c0 0 1.2 0.3 2.3 0.9 0 0 1.6 1.2 1.6 3.2 0 0-0.6 2-1.8 2.3 0 0-1.8-0.7-4.6-1.8 0 0-1.1-0.5-1.1-2.8 0 0-0.5-0.8-1.7-2 0 0 1.2-0.6 2.7-0.6q0.8 0 1.5 0.2zm-11.5 2c0 0-0.7 1.1-2.2 0.4 0 0-0.1-1.5 0-2.4 1.2 0.2 1.7 0.8 2.2 2zm-62.8 0c-0.3 0.9-0.8 2 0.7 1.4 1.5-0.6 1.4-1.8 1.4-1.8l-0.3-1.5c-1.1 0.8-1.8 1.9-1.8 1.9zm-10.3 2.4c0 0-0.6 1-2 2.9 0 0-0.4-0.2-2.3-1.1 0 0-0.1-4.7 3.2-5.8 0 0 0.6 2.4 1.1 4zm83.3-1.5c0.7 0.6 2.1 1.9 2.1 1.9 1.2 0.6 2.5 0.3 2.5 0.3 0.2-1.3 2.5-0.7 0.1-1.9-2.3-1.3-4.1-2.3-4.1-2.3-0.6 0-0.6 2-0.6 2zm-85.7-1zm0 0l0.3 0.3c-0.9 1.1-1.3 1.8-1.3 1.8 0.2 0.9 0.6 1.8 0.6 1.8 1.1 0.3 1.4 1 1.4-0.5 0-1.5-0.5-2.9-0.5-2.9l-0.2-0.2c0.1-0.1 0.1-0.2 0.2-0.3zm68.9 1.2c0 0-0.5 2.5-1.1 2.5l-1.4-3.4c0 0 0.1 0 0.2 0 0.4 0 1.2 0.1 2.3 0.9zm-46.4 1.2c0 0-1.7 1.6-3.3 1.3 0 0 0-1.6 2.4-3.2 0 0 0.7 0.7 0.9 1.9zm75 2.2c0 0-1.2-1.4 0.7-3.4 0 0 0.5 3.4-0.7 3.4zm-21.6 0.7c0 0-0.1 1.1-1 1.6 0 0-1.7-0.3-3-2 0 0 0-0.3 0.6-2.1 0 0 2.1 0.5 3.4 2.5zm6.7-1.4c0 0 1.6 1.7 1.5 3.4 0 0-1.4 0-2.6-1.7l0.3-2.3c0 0 0.8 0.6 0.8 0.6zm12.9 3.7l0.3 0.9-0.5 2.2c0 0-1.6-1.8 0.2-4 0 0 0 0.9 0 0.9zm9.6 3.3c0 0-0.8 2.3-3.3 1 0 0-1.2-1.2-0.1-3.7l0.7-0.4c0 0 1.4 1.1 2.7 3.1zm-108.5-1.3c-0.2 1.3-1.1 2.3-1.1 2.3-1.1 0.8-1.5 3.7-1.2 0.8 0.2-2.9-0.1-3.5-0.1-3.5l0.3-0.8c0.8 0.3 2.1 1.2 2.1 1.2zm7.6-0.7c0 0 0.6 1.6 0.4 3 0 0-1.6 1.4-3.2 1.2 0 0 0.4-2.2 2.2-4.4 0 0 0.6 0.2 0.6 0.2zm-11.6 3.9c0 0-0.7 0.6-2.1 0.6 0 0 0-1.3 1.5-2.5 0 0 1.1 0.5 0.6 1.9zm95.8 0c0 0-1.2 1.3-1.9 1.6 0 0-0.6-1.4-0.5-3 0 0 2.4 1.4 2.4 1.4zm-4.8 2.5c0 0-1.2-1.1-0.6-2.3 0 0 1.4 1.6 0.6 2.3zm-85.5 0.4c0 0 0.2 1.6-0.3 2.9 0 0-1.6 0.3-1.9-0.6 0 0 0.5-2.1 1.3-2.9zm-10.7 2c0 0-0.9 0.9-1.7 0.9l0.9-1.4 1.2-1.5c0 0-0.1 0.6-0.4 2zm102.6 1c0 0-1.2 2-2.1 2 0 0-0.8-1 0.1-4.1 0 0 1.4 0.5 2 2.1zm-87.1 0.6c0 0-1 2.3-2.4 3.4 0 0-1.5 0.7-2.3 0.5 0 0-0.6-1.8 0.8-3.4 0 0 2.5-0.5 3.6-0.5 0.1 0 0.2 0 0.3 0zm-13.8 3.7c0 0-1.1 0.4-1.7-0.7 0 0 0.6-0.9 1.5-1.8 0 0 0.5 1.6 0.2 2.5zm6.3-2.3c0 0-0.6 1.6-2 2.9 0 0 0.2-1.3 0.8-2.9zm0.1 8.8c0 0-0.3 1.1-1.6 1.2 0 0-0.2-2.3 1.2-3.4 0 0 0.4 0.6 0.4 2.2zm-5.4 1.1c0 0-1 2.7-1.9 2.7 0 0-0.8-0.6 0-2.4 0 0 0.4-0.5 1.1-0.5q0.4 0 0.8 0.2zm-5.5-3.6l-1.3 2.9c0 0-0.8-2.9 0.5-5.4 0 0 0.4 0.6 0.8 2.5zm54.9-28.4l-1.5 1.3c0 0-0.8-3.4-0.4-4.2 0 0 1.7 1.3 1.9 2.9zm16.3-7.9c0 0-0.6-0.3-1-1.1l1.9-2.1c0 0 0.2 2.3-0.9 3.2zm35.8-9.3c0 0 1.1 3.4 0.3 3.6 0 0-1.5-0.9-1.9-2.3zm-6.9-6.3c0 0-0.2 0.2-1.7 0.2 0 0-0.6-2.3-0.4-3.4zm7.1 48.7l-1.1-0.6c0 0-0.2-1 0.5-1.9zm-2.8 3.8l-1-0.4 0.4-1.7c0 0 0.8 1.3 0.6 2.1zm-113.3-73.1q-0.1 0-0.3 0 0 0 0 0zm-0.2 0c0 0.2 0.2 0.6 0.3 1.3 0 0-0.7 0-1.3-0.8 0 0 0.1-0.5 1-0.5zm2.1-2.9l0.5 0.9-1-1zm-2.1-10.3c0 0-0.7-0.1-1-0.8 0 0 0.5-0.8 1.1-1zm-8-2.5c0 0 0.7 0.6 0.6 0.8 0 0-0.8 0.2-1.2-0.2zm8.4 15.9v2.1z"/>
			</g>
			<path id="path180" class="s15" d="m795 143.8v240.8c0 0 0 25.7-120 71.2-120-45.5-120-71.2-120-71.2v-240.8z"/>
		</g>
	</g>
</svg>