<svg version="1.2" baseProfile="tiny-ps" xmlns="http://www.w3.org/2000/svg" viewBox="0 0 900 600" width="900" height="600">
	<style>
		tspan { white-space:pre }
		.s0 { fill: #cf142b } 
		.s1 { fill: #f9dd16;stroke: #000000;stroke-width: 2.1 } 
		.s2 { fill: #ffffff;stroke: #000000;stroke-width: 2.7 } 
		.s3 { fill: #f9dd16 } 
		.s4 { fill: none;stroke: #000000;stroke-width: 2.4 } 
		.s5 { fill: none;stroke: #000000;stroke-width: 2.1 } 
		.s6 { fill: #f9dd16;stroke: #000000;stroke-width: 2.7 } 
	</style>
	<path class="s0" d="m-150 0h1200v600h-1200v-600z" />
	<g >
		<g >
			<path class="s1" d="m290.02 215.73c0.45 0.48 5.92 3.97 6.02 3.79c0.1-0.18 14.7-3 14.6-2.82c-0.1 0.18-8.43 9.3-8.07 9.5c0.37 0.2 8.07 9.89 8.25 10c0.18 0.1-15.13-1.73-15.13-1.73l-10.42 7.72l-1.93-10.53c0 0-12.64-4.85-12.82-4.95c-0.18-0.1 11.06-3.35 11.06-3.35l3.6-8.42c0 0 4.28 0.94 4.85 0.79h0z" />
			<path class="s2" d="m444.88 269.96l-34.78-18.96c-1.4-23.21-3.8-38.13-3.51-61.35c-0.4-2.47-2.31-6.04-4.94-3.96c-8.56 7.2-6.01 4.95-10.6 7.73c-5.52 4.14-5.83 1.23-12.15 4.45c-7 2.99-49.08 9.47-65.23 6.57c-0.25 0.44-15.54 4.65-15.54 4.65c-2.62 2.2-5.24 4.39-7.86 6.59c-3.62 2.97-11.16 5.47-15.5-5.68c-0.44-0.25 0.27-5.61 0.27-5.61c-3.03-6.66-6.06-13.32-9.09-19.98c-24.93-24.64-18.02-28.44-20.94-35.15c-1.75-1.57 0.89-11.42 10.03-4.24c10.49 10.01 20.98 20.02 31.47 30.03c3.24 2.47 10.03 7.14 19.57 7.42c3.54-0.63 11.26-3.93 20.4-9.75c17.16-7.57 39.77-18.77 63.37-21.6c2.94-2.41 5.16-1.89 9.48-7.56c1.91-2.87 5.17-4.76 8.95-5.42c7.66-0.4 15.65-1.81 23.64 2.7c6.96 2.67 11.72 10.03 13.01 19.27c2.16 9.18 7.54 19.89 12.72 26.72c2.71 6.22 19.05 46.66 18.73 55.47l-31.51 27.67z" />
			<path class="s3" d="m274.47 165.18c0.31 0.29-6.5 19.82-6.5 19.82c0 0-5.5-5.76-5.45-5.85l4.66-20.6l7.29 6.62z" />
			<g >
				<path class="s4" d="m268.16 188.97c0.51-1.72 0.93-3.34 1.19-5.07c0.7-2 0.99-3.29 1.63-5.24c0.37-1.79 0.84-3.59 1.37-5.38c0.61-1.61 2-7.52 2.32-8.84m-9.31-9.36c0.12 0.26 0.51 2.06 0.54 3.22c-0.25 1.2-0.74 5.52-1.26 6.97c-0.43 1.62-0.81 3.25-1.08 4.88c-0.53 1.76-0.75 2.93-1.34 4.74c-0.17 1.58-0.51 3.04-0.92 4.6" />
				<path class="s5" d="m368.67 156.49c7.29 8.52 9.2 22.04 7.58 29.53" />
				<path class="s5" d="m337.81 204.55c0.05-0.09 0.1-0.17 0.14-0.25c-0.45 0.8-0.11 0.34-0.86-1.48c-0.83-0.96-1.28-5.5 0.12-7.96c0.55-1.26 1.46-3.15 2.14-4.34c0.19-0.34 0.72-0.66 0.91-1" />
				<path class="s5" d="m284.64 174.86c-0.05 0.08-0.1 0.17-0.14 0.25c0.19-0.34-0.39 0.68-0.58 1.02c-0.75 1.32-1.75 2.51-2.44 3.67c-0.73 1.27-1.82 2.34-2.54 3.61c-0.92 1.18-1.74 2.76-2.69 3.98c-0.9 1.46-1.88 2.49-2.77 4.04c-0.76 1.22-1.36 1.78-2.15 3.16l2.15-3.16c-0.76 1.22-1.36 1.78-2.15 3.16" />
				<path class="s5" d="m258 148.78c0.12 0.25 0.58 1.95 0.65 3.03c-0.21 1.12-0.52 5.14-0.98 6.48c-0.36 1.5-0.67 3.01-0.88 4.53c-0.45 1.63-0.63 2.71-1.14 4.39c-0.11 1.47-0.39 2.83-0.74 4.27" />
				<path class="s5" d="m275.16 203.4c0.57-0.46 1-0.74 1.53-1.49c1.16-0.95 1.9-1.59 2.78-2.48c2.41-2.23 4.74-3.19 6.01-3.37c1.14 0.12 2.2-0.52 3.92 1.38" />
				<path class="s5" d="m426.08 145.27c-0.52-1.3-0.55-2.23-1.02-3.57c-0.33-1.94 0-2.39-0.46-1.59c0.05-0.08 0.1-0.17 0.14-0.25" />
				<path class="s5" d="m403.73 184.62c-0.77-0.7-2.05-2.26-2.83-3.14c-0.54-1.26-1.62-1.34-1.9-2.68c-0.63-0.98-0.73-2.19-1.33-3.41c-0.05-1.09-0.28-2.03-0.25-3.15c-0.16-1.86-0.54-3.17-0.73-4.73c-0.71-2.45 0.13-21.21 0.23-21.38" />
				<path class="s5" d="m381.97 197.1c-0.58-0.22-2.05-1.44-3.32-2.11c-1.43-0.85-4.87-5.17-4.95-8.14" />
				<path class="s5" d="m397.13 170.92c-0.05 0.09-2.06 1.9-5.34 4.98c-4.19 3.57-15.48 9.59-16.83 10.06c-1.29 0.53-2.93 1.84-4.2 1.99c-1.47 0.52-2.92 0.7-4.3 0.97c-1.68 0.29-3.11 0.55-4.41 0.57c-3.95 1.54-24.45 0.22-25.5-0.04c-1.1-0.04-2.59-0.17-3.57-0.3c-0.98 0.2-2.14 0.07-3.46 0.1c-1.59-0.18-2.52 0.09-3.86 0.21c-1.08 0.51-2.85 1.02-4.07 1.77c-1.65 0.6-2.67 1.45-3.81 1.91c-1.2 0.91-17.47 9.56-18.26 9.94c-1.7 0.67-7.78 2.23-9.15-1.97c-0.33-1.65-1.05-3.36-1.05-4.61c-0.43-1.51-0.11-3.11 0.02-4.5c1.63-7.04 4.03-9.76 4.71-10.94c0.24-0.42 0.48-0.85 0.73-1.27" />
				<path class="s5" d="m417.67 182.09c0.68-1.19 1.35-2.37 2.03-3.56l-2.03 3.56c0.68-1.19 1.35-2.37 2.03-3.56c0.83-1.46 1.7-2.6 2.58-3.93c0.89-1.44 1.92-2.18 2.95-3.39c1.64-0.85 2.74-1.68 4.51-2.53c1.38-0.78 2.48-1.24 4.07-1.77c1.18-0.56 2.26-0.87 3.15-1.94c0.86-0.32 1.81-1.59 2.78-2.48c0.96-0.81 2.27-2.06 3.33-2.85c1.05-1.2 1.23-1.56 0.84-0.87c0.05-0.08 0.1-0.17 0.14-0.25" />
				<path class="s5" d="m417.31 183.9c0.26 0.43 0.36 0.97 0.86 1.48c0.29 1.45 0.9 2.68 1.4 4.12c0.5 1.14 0.82 2.56 1.28 3.72c0.54 1.41 1.05 2.9 1.54 3.86c0.15 1.25 0.82 2.61 1.28 3.72c0.15 1.19 0.58 2.56 1.02 3.57c0.3 1.37 1.1 3.44 1.22 5.02c0.43 1.68 0.7 3.11 0.99 4.23c0.47 2.09 0.63 3.26 1.07 5.28c0.25 1.05 0.58 2.25 0.36 3.54c0.28 1.66 0.3 3.5 0.3 4.85c0.35 1.81 0.44 3.39 0.41 5.24c0 1.87 0.16 3.85 0.12 5.75c0.26 2.08 0.19 4 0.23 6.15c-0.08 1.83-0.44 3.78-0.8 5.58c-0.08 1.71-0.62 4.04-0.69 5.98c-0.53 1.6-0.71 1.85-0.18 0.9c-0.1 0.17-0.19 0.34-0.29 0.51" />
			</g>
			<path class="s1" d="m427.47 148.21c-1.92 3.96-6.71 9.67-6.78 9.8c0 0-4.66 8.46-4.66 8.46c-2.08 4.65-0.91 6.57-0.12 7.96c1.64 3.08 1.9 4.73 3.11 7.07c0.39 2.89-4.83 3.69-4.9 3.82c-10.92 3.33-16.07-7.03-16.11-7.56c-1.29-5.39-1.07-6.28 2.28-7.27c3.82-0.73 5.35-0.73 7.27-2.01c3.64-2.5 6.41-10.34 6.48-10.47c0.07-0.13 0.68-4.47 0.68-4.47c0.35-2.1-0.58-4.06 0.62-7.35c1.52-3.17 2.41-4.02 5.78-4.17c4.4-0.25 7.7 2.91 6.34 6.18l0 0z" />
		</g>
		<g >
			<path class="s1" d="m569.96 165.27c-0.65 0.14-6.45 3.05-6.35 3.22c0.11 0.18-4.7 14.02-4.81 13.84c-0.11-0.18-3.98-11.83-4.34-11.62c-0.36 0.21-12.74 1.92-12.93 2.02c-0.18 0.1 9.08-12.02 9.08-12.02l-1.6-12.74l10.24 3.62c0 0 10.58-8.33 10.76-8.44c0.18-0.1-2.57 11.09-2.57 11.09l5.62 7.28c0 0-2.96 3.17-3.11 3.73h0z" />
			<path class="s2" d="m444.89 269.96l34.07-20.12c21.14 10.43 35.49 15.86 55.8 27.74c2.37 0.9 6.47 1.06 5.95-2.22c-2.07-10.89-1.36-7.59-1.52-12.9c-0.89-6.78 1.83-5.57 2.15-12.57c0.86-7.46 16.16-46.52 26.78-58.82c-0.26-0.43 3.66-15.56 3.66-15.56c-0.63-3.33-1.25-6.66-1.88-9.99c-0.81-4.57 0.76-12.24 12.74-10.35c0.44-0.26 4.8 3.04 4.8 3.04c7.38 0.75 14.76 1.51 22.14 2.26c34.15-8.88 34.05-1.1 41.41-0.22c2.26-0.7 9.61 6.48-1.27 10.67c-14.05 3.92-28.11 7.83-42.16 11.75c-3.79 1.52-11.3 4.96-16.3 12.95c-1.21 3.33-2.15 11.55-1.6 22.25c-1.9 18.41-3.32 43.26-12.61 64.77c0.66 3.7-0.91 5.34 1.93 11.85c1.58 3.06 1.61 6.79 0.31 10.33c-3.47 6.73-6.22 14.23-14.18 18.78c-5.83 4.59-14.69 4.96-23.47 1.43c-9.16-2.76-21.29-3.55-29.89-2.55c-6.83-0.81-50.61-7.15-58.21-11.83l-8.64-40.69z" />
			<path class="s3" d="m622.26 177.35c-0.41 0.12-14.22-15.46-14.22-15.46c0 0 7.82-1.8 7.87-1.71l15.82 14.28l-9.47 2.89z" />
			<g >
				<path class="s4" d="m604.45 160.07c1.26 1.29 2.48 2.47 3.87 3.55c1.42 1.6 2.4 2.49 3.8 4.01c1.39 1.21 2.75 2.52 4.06 3.86c1.11 1.32 5.62 5.47 6.63 6.4m12.89-3.24c-0.29-0.03-2.08-0.6-3.11-1.15c-0.93-0.82-4.5-3.39-5.52-4.56c-1.21-1.17-2.46-2.31-3.76-3.37c-1.29-1.33-2.2-2.11-3.5-3.52c-1.3-0.94-2.43-1.96-3.59-3.09" />
				<path class="s5" d="m582.89 261.9c-11.14 1.94-24.01-3.21-29.8-8.33" />
				<path class="s5" d="m555.96 211.56c0.05 0.08 0.1 0.17 0.15 0.25c-0.47-0.79-0.25-0.26 1.73 0.01c1.26-0.23 5.49 1.66 6.95 4.09c0.83 1.1 2.05 2.82 2.76 3.99c0.2 0.33 0.23 0.94 0.43 1.28" />
				<path class="s5" d="m608.65 181.16c-0.05-0.08-0.1-0.17-0.15-0.25c0.2 0.34-0.4-0.67-0.61-1c-0.79-1.3-1.34-2.74-2.02-3.91c-0.76-1.25-1.15-2.72-1.91-3.97c-0.58-1.37-1.56-2.86-2.17-4.28c-0.84-1.5-1.25-2.85-2.18-4.38c-0.7-1.26-0.89-2.05-1.71-3.41l1.71 3.41c-0.7-1.26-0.89-2.05-1.71-3.41" />
				<path class="s5" d="m644.92 171.54c-0.28-0.02-2.01-0.48-3-0.97c-0.88-0.73-4.27-3.02-5.22-4.08c-1.14-1.06-2.32-2.08-3.55-3.02c-1.21-1.2-2.08-1.89-3.29-3.17c-1.24-0.83-2.3-1.75-3.4-2.77" />
				<path class="s5" d="m588.24 158.8c0.11 0.72 0.15 1.22 0.55 2.05c0.26 1.46 0.46 2.41 0.8 3.61c0.76 3.16 0.45 5.63-0.03 6.8c-0.67 0.91-0.64 2.13-3.17 2.65" />
				<path class="s5" d="m564.11 316.4c1.41 0.21 2.24 0.64 3.66 0.92c1.87 0.69 2.1 1.2 1.63 0.41c0.05 0.08 0.1 0.17 0.15 0.25" />
				<path class="s5" d="m540.6 277.66c1.01-0.31 3.01-0.62 4.18-0.84c1.37 0.17 1.99-0.7 3.31-0.27c1.18-0.04 2.29 0.48 3.67 0.57c0.98 0.51 1.93 0.78 2.89 1.37c1.72 0.79 3.06 1.13 4.53 1.75c2.51 0.62 18.62 10.73 18.72 10.9" />
				<path class="s5" d="m540.47 252.89c0.48-0.39 2.29-1.03 3.52-1.77c1.46-0.79 6.99-1.56 9.64-0.14" />
				<path class="s5" d="m555.96 278.91c-0.05-0.08-0.65-2.7-1.72-7.04c-1.05-5.36-0.72-17.98-0.46-19.37c0.18-1.37-0.16-3.42 0.34-4.57c0.27-1.51 0.84-2.83 1.29-4.15c0.58-1.58 1.07-2.92 1.7-4.04c0.61-4.13 12.01-20.93 12.76-21.7c0.59-0.91 1.44-2.12 2.05-2.89c0.32-0.94 1.01-1.85 1.64-2.99c0.95-1.26 1.17-2.19 1.74-3.39c0.08-1.17 0.52-2.94 0.48-4.35c0.3-1.7 0.06-3 0.22-4.2c-0.2-1.48 0.3-19.66 0.36-20.52c0.26-1.78 1.91-7.74 6.31-6.8c1.62 0.54 3.48 0.79 4.59 1.42c1.55 0.39 2.79 1.46 3.96 2.27c5.39 4.91 6.58 8.32 7.29 9.49c0.25 0.42 0.51 0.84 0.76 1.25" />
				<path class="s5" d="m535.88 290.8c0.71 1.17 1.41 2.34 2.12 3.51l-2.12-3.51c0.71 1.17 1.41 2.34 2.12 3.51c0.87 1.44 1.44 2.75 2.17 4.16c0.82 1.48 0.96 2.72 1.51 4.21c-0.07 1.82 0.11 3.18-0.02 5.1c-0.01 1.57-0.15 2.73-0.48 4.35c-0.09 1.29-0.36 2.37 0.14 3.65c-0.14 0.89 0.5 2.33 0.8 3.61c0.24 1.22 0.68 2.97 0.85 4.26c0.54 1.49 0.76 1.83 0.35 1.15c0.05 0.08 0.1 0.17 0.15 0.25" />
				<path class="s5" d="m534.46 289.59c-0.51 0.01-1.04-0.18-1.73-0.01c-1.42-0.48-2.81-0.57-4.32-0.87c-1.25-0.15-2.66-0.58-3.91-0.77c-1.51-0.25-3.08-0.56-4.17-0.62c-1.17-0.49-2.71-0.61-3.92-0.77c-1.12-0.47-2.55-0.79-3.66-0.92c-1.36-0.43-3.58-0.79-5.03-1.48c-1.69-0.47-3.09-0.96-4.22-1.27c-2.07-0.65-3.19-1.1-5.18-1.73c-1.05-0.31-2.28-0.63-3.3-1.47c-1.6-0.59-3.24-1.5-4.42-2.17c-1.77-0.61-3.21-1.33-4.82-2.27c-1.64-0.94-3.47-1.79-5.13-2.78c-1.96-0.82-3.62-1.84-5.53-2.88c-1.57-0.99-3.11-2.27-4.51-3.47c-1.47-0.92-3.25-2.55-4.92-3.58c-1.15-1.25-1.27-1.53-0.71-0.6c-0.1-0.17-0.2-0.34-0.3-0.5" />
			</g>
			<path class="s1" d="m560.83 316.11c-2.53-3.61-5.17-10.56-5.24-10.68c0 0-5.13-8.21-5.13-8.21c-3.05-4.1-5.33-4.07-6.95-4.09c-3.53-0.14-5.11-0.75-7.78-0.89c-2.74-1.11-0.84-5.96-0.92-6.08c2.52-10.97 14.22-10.16 14.7-9.93c5.4 1.6 6.06 2.23 5.27 5.58c-1.26 3.62-2.03 4.92-1.86 7.19c0.39 4.35 5.91 10.63 5.98 10.76c0.08 0.13 3.6 2.82 3.6 2.82c1.67 1.34 3.86 1.54 6.16 4.21c2.03 2.89 2.34 4.06 0.79 7.01c-1.98 3.87-6.41 5.1-8.61 2.31l0 0z" />
		</g>
		<g >
			<path class="s1" d="m474.67 428.88c0.2-0.62 0.54-7.02 0.33-7.02c-0.21 0-10-11.02-9.79-11.03c0.21 0 12.41 2.54 12.41 2.13c-0.01-0.41 4.67-11.81 4.67-12.02c0-0.2 6.05 13.75 6.05 13.75l12.02 5.02l-8.3 6.9c0 0 2.06 13.18 2.06 13.38c0 0.2-8.49-7.74-8.49-7.74l-9.22 1.14c0 0-1.31-4.11-1.73-4.52v0z" />
			<path class="s2" d="m444.88 269.97l0.72 39.08c-19.75 12.77-31.69 22.27-52.29 33.62c-1.97 1.57-4.16 4.98-1.01 6.18c10.63 3.69 7.37 2.64 12.12 5.17c6.41 2.64 4 4.35 10 8.13c6.14 4.47 32.92 37.06 38.45 52.26c0.51-0.01 11.88 10.9 11.88 10.9c3.25 1.13 6.5 2.27 9.74 3.4c4.43 1.6 10.4 6.78 2.76 16.03c0.01 0.5-5.07 2.57-5.07 2.57c-4.35 5.91-8.7 11.81-13.05 17.72c-9.22 33.52-16.03 29.54-20.48 35.37c-0.51 2.27-10.5 4.94-8.76-6.42c3.56-13.93 7.13-27.85 10.69-41.78c0.56-3.99 1.27-12.1-3.27-20.37c-2.33-2.7-9.1-7.62-18.81-12.5c-15.27-10.83-36.45-24.49-50.77-43.17c-3.59-1.3-4.25-3.45-11.41-4.3c-3.48-0.19-6.78-2.03-9.25-4.91c-4.19-6.32-9.43-12.42-9.46-21.47c-1.13-7.26 2.97-14.99 10.46-20.7c7-6.42 13.75-16.35 17.16-24.17c4.13-5.41 31.56-39.51 39.48-43.64l40.16 13.02z" />
			<path class="s3" d="m437.92 467.36c0.1-0.41 20.71-4.36 20.71-4.36c0 0-2.32 7.56-2.42 7.56l-20.48 6.32l2.19-9.51z" />
			<g >
				<path class="s4" d="m462.04 460.85c-1.77 0.43-3.41 0.87-5.06 1.52c-2.12 0.4-3.39 0.8-5.43 1.23c-1.76 0.58-3.59 1.08-5.42 1.52c-1.72 0.28-7.62 2.05-8.95 2.44m-3.58 12.6c0.17-0.23 1.56-1.47 2.57-2.07c1.19-0.38 5.24-2.13 6.77-2.41c1.64-0.44 3.27-0.94 4.84-1.51c1.82-0.43 2.96-0.82 4.85-1.22c1.48-0.64 2.94-1.08 4.52-1.51" />
				<path class="s5" d="m383.09 391.5c3.85-10.46 14.81-18.83 22.21-21.2" />
				<path class="s5" d="m440.88 393.78c-0.1 0-0.2 0-0.3 0c0.93-0.01 0.36-0.08-0.87 1.47c-0.43 1.18-4.2 3.84-7.07 3.87c-1.38 0.16-3.51 0.33-4.89 0.35c-0.39 0-0.94-0.28-1.34-0.28" />
				<path class="s5" d="m441.35 453.87c0.1 0 0.2 0 0.3 0c-0.4 0 0.79-0.01 1.19-0.01c1.54-0.02 3.09 0.23 4.45 0.24c1.48-0.02 2.97 0.38 4.46 0.36c1.5 0.19 3.3 0.1 4.86 0.3c1.74 0.04 3.14 0.36 4.94 0.34c1.46 0.04 2.25 0.27 3.86 0.25l-3.86-0.25c1.46 0.04 2.25 0.27 3.86 0.25" />
				<path class="s5" d="m431.72 489.56c0.16-0.23 1.43-1.47 2.35-2.07c1.09-0.38 4.79-2.12 6.2-2.4c1.5-0.44 2.99-0.93 4.43-1.51c1.67-0.43 2.71-0.82 4.44-1.22c1.35-0.64 2.69-1.08 4.13-1.51" />
				<path class="s5" d="m471.24 447.69c-0.69-0.26-1.15-0.48-2.08-0.56c-1.41-0.51-2.35-0.82-3.57-1.13c-3.17-0.94-5.18-2.44-5.98-3.43c-0.46-1.03-1.56-1.62-0.75-4.02" />
				<path class="s5" d="m344.45 348.22c-0.89 1.1-1.69 1.58-2.64 2.65c-1.54 1.24-2.1 1.19-1.17 1.18c-0.1 0-0.2 0-0.3 0" />
				<path class="s5" d="m390.31 347.6c-0.23 1.01-0.96 2.87-1.35 3.98c-0.84 1.09-0.37 2.05-1.41 2.95c-0.55 1.03-1.57 1.71-2.34 2.84c-0.94 0.58-1.65 1.25-2.65 1.78c-1.56 1.06-2.52 2.05-3.8 2.98c-1.8 1.83-18.75 10.48-18.95 10.48" />
				<path class="s5" d="m412.2 359.9c0.1 0.6-0.24 2.46-0.2 3.88c-0.04 1.64-2.12 6.73-4.69 8.27" />
				<path class="s5" d="m381.55 360.06c0.1 0 2.71 0.8 7.06 2.06c5.25 1.79 16.2 8.39 17.29 9.31c1.11 0.84 3.09 1.58 3.86 2.58c1.19 0.99 2.07 2.14 3.01 3.17c1.1 1.29 2.04 2.38 2.71 3.47c3.33 2.59 12.44 20.71 12.74 21.73c0.51 0.96 1.14 2.29 1.52 3.19c0.67 0.74 1.13 1.79 1.82 2.9c0.64 1.44 1.34 2.1 2.12 3.18c0.99 0.66 2.33 1.92 3.59 2.58c1.35 1.11 2.61 1.55 3.59 2.29c1.41 0.57 17.17 10.11 17.9 10.58c1.44 1.11 5.86 5.51 2.84 8.77c-1.29 1.11-2.44 2.57-3.54 3.2c-1.12 1.13-2.68 1.64-3.97 2.23c-7.02 2.13-10.61 1.44-12 1.45c-0.49 0.01-0.99 0.01-1.48 0.02" />
				<path class="s5" d="m381.1 337c-1.39 0.02-2.77 0.03-4.15 0.05l4.15-0.05c-1.39 0.02-2.77 0.03-4.15 0.05c-1.7 0.02-3.14-0.15-4.75-0.24c-1.71-0.04-2.88-0.55-4.46-0.82c-1.57-0.97-2.85-1.5-4.48-2.57c-1.38-0.79-2.34-1.49-3.59-2.58c-1.09-0.72-1.9-1.49-3.29-1.71c-0.72-0.57-2.31-0.74-3.57-1.13c-1.2-0.41-2.95-0.9-4.17-1.41c-1.58-0.29-1.99-0.27-1.19-0.28c-0.1 0-0.2 0-0.3 0" />
				<path class="s5" d="m382.88 336.4c0.25-0.44 0.67-0.79 0.87-1.47c1.14-0.97 1.91-2.11 2.93-3.24c0.75-0.99 1.84-1.97 2.63-2.95c0.97-1.16 2.03-2.34 2.63-3.24c1.02-0.75 1.89-2 2.63-2.95c0.98-0.72 1.96-1.77 2.64-2.66c1.05-0.94 2.48-2.65 3.81-3.54c1.26-1.21 2.38-2.15 3.23-2.95c1.6-1.44 2.56-2.16 4.11-3.55c0.8-0.73 1.69-1.62 2.94-2.08c1.32-1.06 2.93-2.01 4.12-2.67c1.42-1.2 2.77-2.07 4.41-2.97c1.65-0.93 3.31-2.06 5.01-2.98c1.7-1.26 3.43-2.16 5.3-3.27c1.65-0.85 3.55-1.51 5.31-2.1c1.54-0.79 3.87-1.49 5.61-2.4c1.67-0.35 1.98-0.31 0.89-0.3c0.2 0 0.4 0 0.59-0.01" />
			</g>
			<path class="s1" d="m346.35 345.57c4.45-0.34 11.88 0.89 12.03 0.88c0 0 9.79-0.26 9.79-0.26c5.14-0.55 6.25-2.5 7.07-3.87c1.89-2.94 3.21-3.97 4.67-6.18c2.35-1.78 5.67 2.27 5.82 2.27c8.4 7.63 1.85 17.19 1.41 17.49c-4.1 3.79-4.99 4.04-7.54 1.69c-2.56-2.89-3.32-4.19-5.41-5.19c-4.03-1.85-12.32-0.3-12.47-0.29c-0.15 0-4.28 1.65-4.28 1.65c-2.02 0.75-3.28 2.52-6.78 3.14c-3.56 0.28-4.75-0.04-6.56-2.84c-2.42-3.62-1.29-8.01 2.27-8.49l0 0z" />
		</g>
		<path class="s6" d="m453.33 310.53c-3.69-2-6.54-2.47-7.93-1.6c-1.78-12.01-3.3-24.02-5.7-36.02c-22.72-10.17-27.52-12.48-34.97-15.96c3.6-2.14 5.43-4.33 5.37-5.95c11.47 4.5 22.81 9.22 34.58 13.18c20.31-14.25 24.73-17.18 31.52-21.78c0.09 4.14 1.1 6.8 2.56 7.55c-9.69 7.51-19.51 14.81-28.87 22.84c2.42 24.42 2.78 29.66 3.45 37.74l0 0z" />
	</g>
</svg>