<svg version="1.2" baseProfile="tiny-ps" xmlns="http://www.w3.org/2000/svg" viewBox="0 0 900 600" width="900" height="600"><title></title><style>tspan { white-space:pre }.shp0 { fill: #da2032 } .shp1 { fill: #0066b3 } .shp2 { fill: #ffd900 } </style><path class="shp0" d="M-150 0L1050 0L1050 600L-150 600L-150 0Z" /><path class="shp1" d="M300 0L600 0L600 600L300 600L300 0Z" /><path class="shp2" d="M150 260C119.59 260 95 235.41 95 205C95 174.59 119.59 150 150 150C180.41 150 205 174.59 205 205C205 235.41 180.41 260 150 260Z" /><path class="shp0" d="M150 240C116.82 240 90 213.18 90 180C90 146.82 116.82 120 150 120C183.18 120 210 146.82 210 180C210 213.18 183.18 240 150 240Z" /><path class="shp2" d="M150 230C127.88 230 110 212.12 110 190C110 167.88 127.88 150 150 150C172.12 150 190 167.88 190 190C190 212.12 172.12 230 150 230Z" /><path fill-rule="evenodd" class="shp2" d="M154.2 60C154.19 60 154.19 60.01 154.18 60.01C154.19 60 154.19 60 154.2 59.99L154.2 60ZM154.18 60.01C150.63 63.42 150.04 67.7 150.04 70.21C150.04 77.65 159.16 82.47 159.16 92.64C159.16 99.76 155.04 100.37 155.04 110C155.29 113.36 157.28 114.65 160.04 115C160.7 115 161.35 114.87 161.96 114.62C162.56 114.37 163.11 114 163.58 113.54C164.04 113.07 164.41 112.52 164.66 111.91C164.91 111.31 165.04 110.66 165.04 110C165.04 109.68 165.01 109.37 164.95 109.06C164.89 108.75 164.8 108.44 164.68 108.15C164.56 107.85 164.42 107.57 164.25 107.3C164.07 107.04 163.88 106.79 163.66 106.56C163.62 106.52 163.58 106.47 163.54 106.43C163.5 106.39 163.45 106.34 163.41 106.3C163.37 106.26 163.33 106.22 163.28 106.18C163.24 106.14 163.19 106.1 163.15 106.06C162.01 104.91 160.45 104.46 160.45 101.43C160.45 99.87 161.47 98.45 162.44 95.69C163.35 93.01 162.69 88.53 160.53 85.88C164.03 87.23 166.19 90.59 167.29 93.6C168.45 97.3 167.44 99.43 169.01 102.5C169.98 104.49 171.15 105.32 172.25 106.98C173.54 108.79 175.04 113.02 175.04 114.99C175.04 121.62 172.41 127.98 167.72 132.66C163.03 137.35 156.67 139.99 150.04 139.99C143.41 139.99 137.05 137.35 132.36 132.66C127.68 127.98 125.04 121.62 125.04 114.99C125.04 113.02 126.56 108.79 127.86 106.98C128.95 105.32 130.11 104.49 131.08 102.5C132.67 99.43 131.66 97.3 132.82 93.6C133.92 90.59 136.07 87.23 139.57 85.88C137.41 88.53 136.75 93.01 137.66 95.69C138.62 98.45 139.63 99.87 139.63 101.43C139.64 104.46 138.08 104.91 136.94 106.06C136.89 106.1 136.85 106.14 136.8 106.18C136.76 106.22 136.72 106.26 136.67 106.3C136.63 106.34 136.59 106.39 136.55 106.43C136.51 106.47 136.47 106.52 136.43 106.56C136.21 106.79 136.01 107.04 135.84 107.3C135.67 107.57 135.52 107.85 135.41 108.15C135.29 108.44 135.2 108.75 135.14 109.06C135.08 109.37 135.04 109.68 135.04 110C135.04 110.66 135.17 111.31 135.42 111.91C135.68 112.52 136.04 113.07 136.51 113.54C136.97 114 137.52 114.37 138.13 114.62C138.74 114.87 139.39 115 140.04 115C142.45 114.7 144.59 113.83 145.04 110C145.04 102.69 142.44 99.59 142.44 96.78C142.44 88.59 148.38 86.7 148.38 80.96C148.23 77.62 146.73 73.78 146.98 70.37C147.38 66.33 149.23 62.27 154.18 60.01ZM40 270L90 270L90 510L40 510L40 270ZM210 270L260 270L260 510L210 510L210 270ZM100 270L200 270L150 300L100 270ZM100 310L200 310L200 330L100 330L100 310ZM100 450L200 450L200 470L100 470L100 450ZM100 480L200 480L150 510L100 480Z" /><path class="shp2" d="M150 440C122.35 440 100 417.65 100 390C100 362.35 122.35 340 150 340C177.65 340 200 362.35 200 390C200 417.65 177.65 440 150 440Z" /><g ><path class="shp0" d="M150 373.5C144.47 373.5 140 369.03 140 363.5C140 357.97 144.47 353.5 150 353.5C155.53 353.5 160 357.97 160 363.5C160 369.03 155.53 373.5 150 373.5Z" /><path class="shp0" d="M150 426.5C144.47 426.5 140 422.03 140 416.5C140 410.97 144.47 406.5 150 406.5C155.53 406.5 160 410.97 160 416.5C160 422.03 155.53 426.5 150 426.5Z" /><path class="shp0" d="M150 334C157.82 334 165.33 337.11 170.86 342.64C176.39 348.17 179.5 355.68 179.5 363.5C179.5 371.32 176.39 378.83 170.86 384.36C165.33 389.89 157.82 393 150 393C143.77 393 137.79 395.48 133.38 399.88C128.98 404.29 126.5 410.27 126.5 416.5C126.5 422.73 128.98 428.71 133.38 433.12C137.79 437.52 143.77 440 150 440L150 446C142.18 446 134.67 442.89 129.14 437.36C123.61 431.83 120.5 424.32 120.5 416.5C120.5 408.68 123.61 401.17 129.14 395.64C134.67 390.11 142.18 387 150 387C156.23 387 162.21 384.52 166.62 380.12C171.02 375.71 173.5 369.73 173.5 363.5C173.5 357.27 171.02 351.29 166.62 346.88C162.21 342.48 156.23 340 150 340L150 334Z" /></g></svg>