<svg version="1.2" xmlns="http://www.w3.org/2000/svg" viewBox="0 0 900 600" width="900" height="600">
	<title></title>
	<style>
		.s0 { fill: #00247d } 
		.s1 { fill: none;stroke: #ffffff;stroke-width: 52 } 
		.s2 { fill: none;stroke: #ffffff;stroke-width: 86.7 } 
		.s3 { fill: none;stroke: #cf142b;stroke-width: 52 } 
		.s4 { fill: #c80000 } 
		.s5 { fill: #007800;stroke: #000000;stroke-linecap: round;stroke-width: 1.7 } 
		.s6 { fill: #ffffff } 
		.s7 { fill: #000000 } 
		.s8 { fill: #cccccc } 
		.s9 { fill: none;stroke: #000000;stroke-width: .3 } 
		.s10 { fill: #fed100 } 
		.s11 { fill: #ffffff;stroke: #000000;stroke-width: .3 } 
		.s12 { fill: #f6e078 } 
		.s13 { fill: #fed100;stroke: #000000;stroke-width: .3 } 
		.s14 { fill: #00247d;stroke: #a0892c;stroke-width: .3 } 
		.s15 { fill: #2b96f6;stroke: #a0892c;stroke-width: .3 } 
		.s16 { fill: #00247d;stroke: #000000;stroke-width: .3 } 
		.s17 { fill: #306947 } 
		.s18 { fill: #cf142b } 
	</style>
	<g id="Layer">
		<path id="Layer" class="s0" d="m0 0h450v300h-450z"/>
		<g id="Layer">
			<path id="Layer" class="s1" d="m0 0l450 300m0-300l-450 300"/>
			<path id="Layer" class="s2" d="m225 0v300m-225-150h450"/>
			<path id="Layer" class="s3" d="m225 0v300m-225-150h450"/>
		</g>
		<path id="Layer" class="s0" d="m0 300h900v300h-900zm450-300h450v600h-450z"/>
	</g>
	<circle id="path1520" class="s4" cx="675" cy="300" r="140"/>
	<path id="path2505" fill-rule="evenodd" class="s5" d="m612 300l31.5-54.6h-63.1l23.5 40.6-8.1 14-39.6-68.6h79.2 16.2 46.8l1.1 1.8 7 12.2h-63-16.2l-23.4 40.6-8.1 14-39.6 68.6h79.2l-8.1-14h-46.9l23.5-40.6m71.1 95.2l23.4-40.6h16.2l-39.6 68.6-39.6-68.6-8.1-14-23.4-40.6 8.1-14 31.5 54.6 8.1 14zm23.4-40.6h16.2 79.2l-39.6-68.6-8.1 14 23.4 40.6h-126.1l8.1 14h46.9zm8.1-14l31.5-54.6 3.4-5.9 28.1-48.7h-46.9l-8-14h79.2l-39.6 68.6-8.1 14-23.5 40.6zm16.2-109.2l23.5 40.6-4.7 8.1-3.4 5.9-31.6-54.6-7-12.2-24.5-42.4-23.4 40.6h-16.2l39.6-68.6 39.6 68.6 8.1 14z"/>
	<path id="path6200" fill-rule="evenodd" class="s6" d="m647.2 348.6v-9.8h1.9l4 6.5v-6.5h1.8v9.8h-2l-3.9-6.4v6.4zm9.7 0v-9.8h2v9.8zm8.4-3.6v-1.7h4.2v3.9q-0.6 0.6-1.8 1.1-1.1 0.4-2.3 0.4-1.6 0-2.7-0.6-1.1-0.7-1.7-1.9-0.6-1.2-0.6-2.6 0-1.5 0.7-2.7 0.6-1.1 1.8-1.8 1-0.5 2.4-0.5 1.8 0 2.8 0.8 1 0.8 1.3 2.1l-2 0.4q-0.2-0.7-0.7-1.2-0.6-0.4-1.4-0.4-1.3 0-2.1 0.8-0.8 0.9-0.8 2.5 0 1.7 0.8 2.6 0.8 0.8 2 0.8 0.7 0 1.3-0.2 0.6-0.2 1-0.6v-1.2zm6.1 3.6v-9.8h7.2v1.7h-5.2v2.1h4.9v1.7h-4.9v2.6h5.4v1.7zm9.1 0v-9.8h4.1q1.6 0 2.3 0.3 0.7 0.2 1.2 0.9 0.4 0.7 0.4 1.5 0 1.1-0.7 1.9-0.6 0.7-1.9 0.9 0.6 0.3 1.1 0.8 0.4 0.4 1.1 1.6l1.2 1.9h-2.4l-1.4-2.2q-0.8-1.1-1-1.4-0.3-0.3-0.6-0.4-0.3-0.1-1-0.1h-0.4v4.1zm1.9-5.7h1.5q1.4 0 1.8-0.1 0.3-0.1 0.5-0.4 0.2-0.3 0.2-0.7 0-0.5-0.2-0.8-0.3-0.3-0.8-0.4-0.2 0-1.4 0h-1.6zm7.8 5.6v-9.8h2v9.8zm12.6 0h-2.1l-0.8-2.2h-3.9l-0.8 2.2h-2.1l3.8-9.8h2zm-3.6-3.8l-1.3-3.6-1.3 3.6z"/>
	<g id="g490">
		<g id="g50">
			<path id="path30" class="s6" d="m675 321.1h4.4c4.5 0 9.1 0.1 13.6 0.4 3.4 0.3 7.2 0.6 10.4 1.1l0.9 0.2c2 0.4 2.3 3 1.2 4.5-2.2 2.9-15.2 5.2-30.5 5.2-15.3 0-28.3-2.3-30.5-5.2-1.1-1.5-0.8-4.1 1.2-4.5l0.9-0.2c3.2-0.5 7-0.8 10.4-1.1 4.5-0.3 9.1-0.4 13.6-0.4z"/>
			<g id="g42">
				<path id="path32" class="s7" d="m674.8 324.7q-1.2 0.3-2.2 0.7c0.2-0.4 0.5-0.8 1.3-1.1-0.7 0-1.6-0.3-1.9-0.4 0.3-0.2 1.2-0.4 1.8-0.4-0.8-0.3-1.1-0.7-1.4-1.1q1.2 0.4 2.5 0.8 1.5 0.4 3.2 0.7-1.8 0.3-3.3 0.8z"/>
				<path id="path34" class="s7" d="m662.9 324.8q-1.2 0.4-2.2 0.8c0.2-0.4 0.5-0.8 1.3-1.1-0.7 0-1.6-0.2-2-0.3 0.4-0.2 1.2-0.5 1.9-0.5-0.8-0.3-1.2-0.7-1.4-1.1q1.1 0.4 2.5 0.7 1.4 0.4 3.1 0.7-1.7 0.3-3.2 0.8z"/>
				<path id="path36" class="s7" d="m651.1 325.7q-1.1 0.4-2.1 1c0.1-0.5 0.4-0.9 1.1-1.3-0.6 0.1-1.5-0.1-1.9-0.2 0.3-0.2 1.2-0.5 1.8-0.6-0.8-0.2-1.2-0.6-1.5-0.9q1.2 0.3 2.6 0.5 1.5 0.3 3.2 0.4-1.7 0.5-3.2 1.1z"/>
				<path id="path38" class="s7" d="m690 324.2q-1.7 0.2-3.2 0.6-1.3 0.3-2.5 0.7c0.3-0.4 0.6-0.8 1.4-1.1-0.6 0-1.5-0.3-1.8-0.4 0.3-0.2 1.2-0.4 1.9-0.4-0.8-0.3-1.1-0.7-1.3-1.1q1.1 0.4 2.3 0.8 1.4 0.5 3.2 0.9z"/>
				<path id="path40" class="s7" d="m701.8 325.2q-1.7 0.1-3.2 0.4-1.3 0.2-2.5 0.5c0.2-0.3 0.6-0.7 1.5-0.9-0.7-0.1-1.6-0.4-1.9-0.6 0.4-0.1 1.3-0.3 2-0.2-0.8-0.4-1.1-0.8-1.2-1.3q1 0.5 2.1 1 1.5 0.6 3.2 1.1z"/>
			</g>
			<path id="path44" class="s8" d="m703.5 328.7c-6.5 2.9-19.1 3.8-28.5 3.8-9.4 0-22-0.9-28.4-3.8-1-0.9 10.1-2 28.4-2 18.3 0 29.4 1.1 28.5 2z"/>
			<path id="path46" class="s9" d="m646.6 328.8c-0.2-0.5 0.5-0.6 1.3-0.7 2.9-0.4 6.2-0.7 9.1-0.9 4.5-0.4 9.1-0.5 13.6-0.5h4.4 4.4c4.5 0 9.1 0.1 13.6 0.5 2.9 0.2 6.2 0.5 9.1 0.9 0.8 0.1 1.5 0.2 1.3 0.7"/>
			<path id="path48" class="s9" d="m675 321.1h4.4c4.5 0 9.1 0.1 13.6 0.4 3.4 0.3 7.2 0.6 10.4 1.1l0.9 0.2c2 0.4 2.3 3 1.2 4.5-2.2 2.9-15.2 5.2-30.5 5.2-15.3 0-28.3-2.3-30.5-5.2-1.1-1.5-0.8-4.1 1.2-4.5l0.9-0.2c3.2-0.5 7-0.8 10.4-1.1 4.5-0.3 9.1-0.4 13.6-0.4z"/>
		</g>
		<g id="g56">
			<path id="path52" fill-rule="evenodd" class="s4" d="m649.3 316.7l-1.7-5.4-1.5-4.2-2.2-4.2-1.7-2.1-0.4-2.1-0.2-5.5c0 0 1.8-3.6 4.4-5.3 2.1-1.3 5.1-0.9 5.1-0.9 0 0 2.6-3.1 4.5-4.3 2.1-1.2 4.2-1.4 6.5-1.4 2.3 0 6.4 2.2 8.6 2.8 1.2 0.4 3.8 1.5 3.8 1.5 0 0 2.6-1.1 3.8-1.5 2.2-0.6 6.3-2.8 8.6-2.8 2.3 0 4.5 0.3 6.5 1.4 1.9 1.2 3 4.3 3 4.3 0 0 4.7-0.3 8.1 1.6 2.4 1.3 3.9 4.9 3.9 4.9l-0.1 5-1.1 1.4-2.2 5.5-2.2 1.5-0.9 2.9-2.2 6.9z"/>
			<path id="path54" class="s9" d="m649.3 316.7l-1.7-5.4-1.5-4.2-2.2-4.2-1.7-2.1-0.4-2.1-0.2-5.5c0 0 1.8-3.6 4.4-5.3 2.1-1.3 5.1-0.9 5.1-0.9 0 0 2.6-3.1 4.5-4.3 2.1-1.2 4.2-1.4 6.5-1.4 2.3 0 6.4 2.2 8.6 2.8 1.2 0.4 3.8 1.5 3.8 1.5 0 0 2.6-1.1 3.8-1.5 2.2-0.6 6.3-2.8 8.6-2.8 2.3 0 4.5 0.3 6.5 1.4 1.9 1.2 3 4.3 3 4.3 0 0 4.7-0.3 8.1 1.6 2.4 1.3 3.9 4.9 3.9 4.9l-0.1 5-1.1 1.4-2.2 5.5-2.2 1.5-0.9 2.9-2.2 6.9z"/>
		</g>
		<g id="g488">
			<g id="g174">
				<g id="g114">
					<g id="g62">
						<path id="path58" class="s10" d="m674.6 271.3c10.6-0.3 25.3 4.4 37.4 20.6l-2.7 2.3c-11.5-15.3-25-19.4-34.6-19.1z"/>
						<path id="path60" class="s9" d="m674.6 271.3c10.6-0.3 25.3 4.4 37.4 20.6l-2.7 2.3c-11.5-15.3-25-19.4-34.6-19.1z"/>
					</g>
					<g id="g112">
						<g id="g68">
							<g id="g66">
								<ellipse id="ellipse64" class="s11" cx="710.8" cy="288.6" rx="1.9" ry="2"/>
							</g>
						</g>
						<g id="g74">
							<g id="g72">
								<ellipse id="ellipse70" class="s11" cx="707.6" cy="284.8" rx="1.9" ry="2"/>
							</g>
						</g>
						<g id="g80">
							<g id="g78">
								<ellipse id="ellipse76" class="s11" cx="682.5" cy="270.9" rx="1.9" ry="2"/>
							</g>
						</g>
						<g id="g86">
							<g id="g84">
								<ellipse id="ellipse82" class="s11" cx="703.8" cy="281.3" rx="1.9" ry="2"/>
							</g>
						</g>
						<g id="g92">
							<g id="g90">
								<ellipse id="ellipse88" class="s11" cx="699.9" cy="278.2" rx="1.9" ry="2"/>
							</g>
						</g>
						<g id="g98">
							<g id="g96">
								<ellipse id="ellipse94" class="s11" cx="695.7" cy="275.6" rx="1.9" ry="2"/>
							</g>
						</g>
						<g id="g104">
							<g id="g102">
								<ellipse id="ellipse100" class="s11" cx="687.3" cy="272" rx="1.9" ry="2"/>
							</g>
						</g>
						<g id="g110">
							<g id="g108">
								<ellipse id="ellipse106" class="s11" cx="691.5" cy="273.6" rx="1.9" ry="2"/>
							</g>
						</g>
					</g>
				</g>
				<g id="g172">
					<g id="g120">
						<path id="path116" class="s12" d="m675.3 275.1c-9.6-0.3-23.1 3.8-34.6 19.1l-2.7-2.3c12.1-16.2 26.8-20.9 37.4-20.6z"/>
						<path id="path118" class="s13" d="m675.3 275.1c-9.6-0.3-23.1 3.8-34.6 19.1l-2.7-2.3c12.1-16.2 26.8-20.9 37.4-20.6z"/>
					</g>
					<g id="g170">
						<g id="g126">
							<g id="g124">
								<ellipse id="ellipse122" class="s11" cx="639.2" cy="288.6" rx="1.9" ry="2"/>
							</g>
						</g>
						<g id="g132">
							<g id="g130">
								<ellipse id="ellipse128" class="s11" cx="642.4" cy="284.8" rx="1.9" ry="2"/>
							</g>
						</g>
						<g id="g138">
							<g id="g136">
								<ellipse id="ellipse134" class="s11" cx="667.5" cy="270.9" rx="1.9" ry="2"/>
							</g>
						</g>
						<g id="g144">
							<g id="g142">
								<ellipse id="ellipse140" class="s11" cx="646.2" cy="281.3" rx="1.9" ry="2"/>
							</g>
						</g>
						<g id="g150">
							<g id="g148">
								<ellipse id="ellipse146" class="s11" cx="650.1" cy="278.2" rx="1.9" ry="2"/>
							</g>
						</g>
						<g id="g156">
							<g id="g154">
								<ellipse id="ellipse152" class="s11" cx="654.3" cy="275.6" rx="1.9" ry="2"/>
							</g>
						</g>
						<g id="g162">
							<g id="g160">
								<ellipse id="ellipse158" class="s11" cx="662.7" cy="272" rx="1.9" ry="2"/>
							</g>
						</g>
						<g id="g168">
							<g id="g166">
								<ellipse id="ellipse164" class="s11" cx="658.5" cy="273.6" rx="1.9" ry="2"/>
							</g>
						</g>
					</g>
				</g>
			</g>
			<g id="g486">
				<g id="g260">
					<g id="g186">
						<g id="g178">
							<path id="path176" class="s13" d="m670.5 261.7c0.5-0.7 1.1-1.2 1.6-1.9 0.5-0.7 0.9-1.7 1.1-2.6-0.9 0.2-1.8 0.7-2.5 1.2-0.6 0.5-1.1 1.2-1.7 1.7v-8.8c0.6 0.6 1.1 1.2 1.7 1.7 0.7 0.6 1.6 1 2.5 1.3-0.2-1-0.6-1.9-1.1-2.6-0.5-0.7-1.1-1.2-1.6-1.9h9c-0.5 0.7-1.1 1.2-1.6 1.9-0.5 0.7-0.9 1.6-1.1 2.6 0.9-0.3 1.8-0.7 2.5-1.3 0.6-0.5 1.1-1.1 1.7-1.7v8.8c-0.6-0.5-1.1-1.2-1.7-1.7-0.7-0.5-1.6-1-2.5-1.2 0.2 0.9 0.6 1.9 1.1 2.6 0.5 0.7 1.1 1.2 1.6 1.9z"/>
						</g>
						<g id="g184">
							<g id="g182">
								<ellipse id="ellipse180" class="s11" cx="675" cy="255.7" rx="2.2" ry="2.5"/>
							</g>
						</g>
					</g>
					<g id="g200">
						<g id="g192">
							<ellipse id="ellipse188" class="s10" cx="675" cy="267.2" rx="5.1" ry="5.5"/>
							<ellipse id="ellipse190" class="s9" cx="675" cy="267.2" rx="5.1" ry="5.5"/>
						</g>
						<g id="g198">
							<path id="path194" class="s10" d="m676.1 261.3v4.6h4.3v2.3h-10.8v-2.3h4.3v-4.6z"/>
							<path id="path196" class="s9" d="m676.1 261.3v4.6h4.3v2.3h-10.8v-2.3h4.3v-4.6z"/>
						</g>
					</g>
					<g id="g258">
						<g id="g224">
							<g id="g206">
								<path id="rect202" class="s10" d="m671.6 271.6h6.8v20.5h-6.8z"/>
								<path id="rect204" class="s9" d="m671.6 271.6h6.8v20.5h-6.8z"/>
							</g>
							<g id="g222">
								<g id="g220">
									<g id="g212">
										<path id="rect208" class="s10" d="m670.3 271.5h2.2v20.6h-2.2z"/>
										<path id="path210" class="s9" d="m671.4 271.5c0.6 0 1.1 0.5 1.1 1v18.6c0 0.6-0.5 1-1.1 1-0.6 0-1.1-0.4-1.1-1v-18.6c0-0.5 0.5-1 1.1-1z"/>
									</g>
									<g id="g218">
										<path id="rect214" class="s10" d="m677.5 271.5h2.2v20.6h-2.2z"/>
										<path id="rect216" class="s9" d="m677.5 271.5h2.2v20.6h-2.2z"/>
									</g>
								</g>
							</g>
						</g>
						<g id="g256">
							<g id="g230">
								<g id="g228">
									<ellipse id="ellipse226" class="s11" cx="675" cy="272" rx="1.9" ry="2"/>
								</g>
							</g>
							<g id="g236">
								<g id="g234">
									<ellipse id="ellipse232" class="s11" cx="675" cy="276" rx="1.9" ry="2"/>
								</g>
							</g>
							<g id="g242">
								<g id="g240">
									<ellipse id="ellipse238" class="s11" cx="675" cy="280.1" rx="1.9" ry="2"/>
								</g>
							</g>
							<g id="g248">
								<g id="g246">
									<ellipse id="ellipse244" class="s11" cx="675" cy="284.1" rx="1.9" ry="2"/>
								</g>
							</g>
							<g id="g254">
								<g id="g252">
									<ellipse id="ellipse250" class="s11" cx="675" cy="288.2" rx="1.9" ry="2"/>
								</g>
							</g>
						</g>
					</g>
				</g>
				<g id="g322">
					<g id="g286">
						<g id="g268">
							<g id="g264">
								<path id="path262" class="s10" d="m708.3 301c-1.8 4.3-3.2 8.5-4.6 12.8h-28.8-28.8c-1.3-4.2-2.7-8.7-4.4-12.8 0 0 3.6 5.4 6.3 6.7 1.5 0.7 3.3 0.9 4.9 0.3 2-0.7 4.7-4.7 4.7-4.7 0 0 2.4 3.1 4.1 3.9 1.5 0.7 3.3 0.7 5 0.7 1.5-0.1 3.2-0.2 4.4-1.1 1.9-1.4 3.8-6.1 3.8-6.1 0 0 1.8 3.7 3.2 5.1 1.2 1.1 2.7 1.9 4.3 2.2 1.5 0.4 3.2 0.3 4.7-0.3 2-0.8 5.2-4.1 5.2-4.1 0 0 2.2 3 3.8 3.7 1.5 0.8 3.3 1 4.9 0.6 1.7-0.5 3.1-1.8 4.4-3 1.1-1.1 2.9-3.9 2.9-3.9z"/>
							</g>
							<path id="path266" class="s9" d="m708.3 301c-1.8 4.3-3.2 8.5-4.6 12.8h-7.5-21.3-21.9-6.9c-1.3-4.2-2.7-8.7-4.4-12.8 0 0 3.6 5.4 6.3 6.7 1.5 0.7 3.3 0.9 4.9 0.3 2-0.7 4.7-4.7 4.7-4.7 0 0 2.4 3.1 4.1 3.9 1.5 0.7 3.3 0.7 5 0.7 1.5-0.1 3.2-0.2 4.4-1.1 1.9-1.4 3.8-6.1 3.8-6.1 0 0 1.8 3.7 3.2 5.1 1.2 1.1 2.7 1.9 4.3 2.2 1.5 0.4 3.2 0.3 4.7-0.3 2-0.8 5.2-4.1 5.2-4.1 0 0 2.2 3 3.8 3.7 1.5 0.8 3.3 1 4.9 0.6 1.7-0.5 3.1-1.8 4.4-3 1.1-1.1 2.9-3.9 2.9-3.9z"/>
						</g>
						<g id="g284">
							<g id="g278">
								<path id="path270" class="s10" d="m675 303.4c0 0-1.3 2.2-2.1 2.9-1.1 1.1-1.9 1.7-3.3 2.2-1.5 0.5-3.5 0.7-5 0.7-1.4-0.1-2.9-0.6-4.2-1.3-1.2-0.6-3-2.3-3-2.3-0.9 1.2-2 2.1-3.1 2.7-1.3 0.9-2.7 0.9-4.1 0.9-2.9-0.2-5.6-2.2-7.7-6.1-1.4-3.6-3-7.2-5-11 2.3-0.8 5-1.3 8-1.5-1.3 3.7-2.5 7.3-2.1 10.3 2.5-2 3.4-4.8 4.2-7.5l3 11.1c-1.8-0.4-0.9-0.8-5.5-1.7 0.9 1.9 3 4.2 5.4 4.5 1.6 0.1 2.7-0.4 3.7-1.4 0.8-0.6 1.4-1.5 1.4-2.5q0-0.9 0-1.8c0-0.3-0.4-0.9-0.8-0.9-0.3 0-0.4 0.6-0.5 0.9-0.2 0.7 0.2 1.5 0 2.2-0.2 0.7-0.5 1.3-1.2 1.7-0.5 0.4-1.7 0.4-1.7 0.4l0.4-1.6c0.3-1.1-0.8-2-1-3.2-0.2-0.8-0.3-1.6 0-2.3 0.2-0.8 0.8-1.5 1.5-1.9 0.3-0.1 0.6-0.1 0.8-0.1 0.4 0 1.2 0.3 1.2 0.3 0 0-0.2-1.2-0.1-1.9 0-0.8 0.7-2.4 1.1-3.2 0.6-1.3 1.6-2.4 1.7-2.5 0.1 0.1 1.2 1.2 1.9 2.4 0.5 0.7 0.9 1.8 1 2.6 0.1 0.7 0.1 2.2 0.1 2.2 0 0 1.2-0.5 1.6-0.5 0.2-0.1 0.5-0.1 0.8 0 0.7 0.3 1.3 1 1.6 1.8 0.3 0.7 0.3 1.5 0.2 2.3-0.2 1.2-0.8 2.1-0.5 3.2l0.5 1.6c0 0-1.2 0-1.7-0.3-0.7-0.4-1.1-0.9-1.3-1.7-0.3-0.6-0.1-1.4-0.5-2-0.2-0.3-0.4-0.5-0.7-0.5-0.4 0-0.6 0.6-0.6 1l-0.1 1.5c0 0.5 0.2 1 0.4 1.4 0.6 1 1.5 1.5 2.5 2 1 0.4 2 0.6 3.1 0.6 1 0 2.6-0.1 3.5-0.5 1.2-0.4 1.8-0.9 2.7-1.7 0.5-0.5 0.8-1.2 1-1.9 0.2-0.8 0.2-2.1 0.2-2.1-1.2 0.4-2.1 1-3 1.7-1 0.8-1.8 1.8-2.6 2.8l-0.1-13.5c1.1 1.4 2 2.6 3.1 3.7 1 0.8 1.5 1.2 2.5 1.5-0.3-1.1-0.4-1.7-1.1-2.8-1-1.5-2-3.1-3.2-4.6 2.2-0.4 4.5-0.5 6.7-0.5 2.2 0 4.5 0.1 6.7 0.5-1.2 1.5-2.2 3.1-3.2 4.6-0.7 1.1-0.8 1.7-1.1 2.8 1-0.3 1.5-0.7 2.5-1.5 1.1-1.1 2-2.3 3.1-3.7l-0.1 13.5c-0.8-1-1.6-2-2.6-2.8-0.9-0.7-1.8-1.3-3-1.7 0 0 0 1.3 0.2 2.1 0.2 0.7 0.5 1.4 1 1.9 0.9 0.8 1.5 1.3 2.7 1.7 0.9 0.4 2.5 0.5 3.5 0.5 1.1 0 2.1-0.2 3.1-0.6 1-0.5 1.9-1 2.5-2 0.2-0.4 0.4-0.9 0.4-1.4l-0.1-1.5c0-0.4-0.2-1-0.6-1-0.3 0-0.5 0.2-0.7 0.5-0.4 0.6-0.2 1.4-0.5 2-0.2 0.8-0.6 1.3-1.3 1.7-0.5 0.3-1.7 0.3-1.7 0.3l0.5-1.6c0.3-1.1-0.3-2-0.5-3.2-0.1-0.8-0.1-1.6 0.2-2.3 0.3-0.8 0.9-1.5 1.6-1.8 0.3-0.1 0.6-0.1 0.8 0 0.4 0 1.6 0.5 1.6 0.5 0 0 0-1.5 0.1-2.2 0.1-0.8 0.5-1.9 1-2.6 0.7-1.2 1.8-2.3 1.9-2.4 0.1 0.1 1.1 1.2 1.7 2.5 0.4 0.8 1.1 2.4 1.1 3.2 0.1 0.7-0.1 1.9-0.1 1.9 0 0 0.8-0.3 1.2-0.3 0.2 0 0.5 0 0.8 0.1 0.7 0.4 1.3 1.1 1.5 1.9 0.3 0.7 0.2 1.5 0 2.3-0.2 1.2-1.3 2.1-1 3.2l0.4 1.6c0 0-1.2 0-1.7-0.4-0.7-0.4-1-1-1.2-1.7-0.2-0.7 0.2-1.5 0-2.2-0.1-0.3-0.2-0.9-0.5-0.9-0.4 0-0.8 0.6-0.8 0.9q0 0.9 0 1.8c0 1 0.6 1.9 1.4 2.5 1 1 2.1 1.5 3.7 1.4 2.4-0.3 4.5-2.6 5.4-4.5-4.6 0.9-3.7 1.3-5.5 1.7l3-11.1c0.8 2.7 1.7 5.5 4.2 7.5 0.4-3-0.8-6.6-2.1-10.3 3 0.2 5.7 0.7 8 1.5-2 3.8-3.6 7.4-5 11-2.1 3.9-4.8 5.9-7.7 6.1-1.4 0-2.8 0-4.1-0.9-1.1-0.6-2.2-1.5-3.1-2.7 0 0-1.8 1.7-3 2.3-1.3 0.7-2.8 1.2-4.2 1.3-1.5 0-3.5-0.2-5-0.7-1.4-0.5-2.2-1.1-3.3-2.2-0.8-0.7-2.1-2.9-2.1-2.9z"/>
								<path id="path272" class="s10" d="m650.2 309.2c-2.9-0.2-5.6-2.2-7.7-6.1-1.4-3.6-3-7.2-5-11 2.3-0.8 5-1.3 8-1.5-1.3 3.7-2.5 7.3-2.1 10.3 2.5-2 3.4-4.8 4.2-7.5l3 11.1c-1.8-0.4-0.9-0.8-5.5-1.7 0.9 1.9 3 4.2 5.4 4.5zm49.3-1.9c2.3-0.3 4.5-2.6 5.4-4.5-4.6 1-3.7 1.3-5.5 1.7l3-11.1c0.8 2.7 1.6 5.5 4.2 7.5 0.4-3-0.9-6.6-2.1-10.3 3 0.2 5.7 0.7 8 1.5-2 3.8-3.6 7.4-5 11-2.1 4-4.8 5.9-7.7 6.1l-0.1 0.1z"/>
								<path id="path274" class="s10" d="m664.6 309.2c-1.4-0.1-2.9-0.6-4.2-1.3-1.2-0.6-3-2.3-3-2.3-0.9 1.2-2 2.1-3.1 2.7-1.3 0.9-2.7 0.9-4.1 0.9v0.5l0.3-2.4c1.6 0.1 2.7-0.4 3.7-1.4 0.8-0.6 1.4-1.5 1.4-2.5q0-0.9 0-1.8c0-0.3-0.4-0.9-0.8-0.9-0.3 0-0.4 0.6-0.5 0.9-0.2 0.7 0.2 1.5 0 2.2-0.2 0.7-0.5 1.3-1.2 1.7-0.5 0.4-1.7 0.4-1.7 0.4l0.4-1.6c0.3-1.1-0.8-2-1-3.2-0.2-0.8-0.3-1.6 0-2.3 0.2-0.8 0.8-1.5 1.5-1.9 0.3-0.1 0.6-0.1 0.8-0.1 0.4 0 1.2 0.3 1.2 0.3 0 0-0.2-1.2-0.1-1.9 0-0.8 0.7-2.4 1.1-3.2 0.6-1.3 1.6-2.4 1.7-2.5 0.1 0.1 1.2 1.2 1.9 2.4 0.5 0.7 0.9 1.8 1 2.6 0.1 0.7 0.1 2.2 0.1 2.2 0 0 1.2-0.5 1.6-0.5 0.2-0.1 0.5-0.1 0.8 0 0.7 0.3 1.3 1 1.6 1.8 0.3 0.7 0.3 1.5 0.2 2.3-0.2 1.2-0.8 2.1-0.5 3.2l0.5 1.6c0 0-1.2 0-1.7-0.3-0.7-0.4-1.1-0.9-1.3-1.7-0.3-0.6-0.1-1.4-0.5-2-0.2-0.3-0.4-0.5-0.7-0.5-0.4 0-0.6 0.6-0.6 1l-0.1 1.5c0 0.5 0.2 1 0.4 1.4 0.6 1 1.5 1.5 2.5 2 1 0.4 2 0.6 3.1 0.6z"/>
								<path id="path276" class="s10" d="m675 298.8l1.8 2.3 0.9 3.8 2.5 1.9 3.8 0.9 3.7-0.5 2.8-2 0.4-2.1 3 0.1 0.5 2.3 3 2.1 2.6 0.2 3.3-1.9 1.8-2.5 1.9 0.7-1.9 2.4-2.1 1.8-1.7 0.6-1.2 0.2h-1.6l-1.3-0.2-1.2-0.3-1.5-1-1.9-1.9-1.8 1.4-1.7 1.1-2.3 0.8-2.2 0.2-2.7-0.3-2.3-0.7-2.2-1.6-1.7-2.1-0.7-1.1-0.7 1.1-1.7 2.1-2.2 1.6-2.3 0.7-2.7 0.3-2.2-0.2-2.3-0.8-1.7-1.1-1.8-1.4-1.9 1.9-1.5 1-1.2 0.3-1.3 0.2h-1.6l-1.2-0.2-1.7-0.6-2.1-1.8-2-2.4 2-0.7 1.8 2.5 3.2 1.9 2.7-0.2 3-2.1 0.5-2.3 2.9-0.1 0.4 2.1 2.9 2 3.7 0.5 3.8-0.9 2.5-1.9 0.9-4z"/>
							</g>
							<path id="path280" fill-rule="evenodd" class="s7" d="m693.3 303.3h-0.1c0-0.8 0.2-2 0.2-2 0.2-0.7 0.7-1.3 1.3-1.6 0.3-0.1 0.7-0.1 1.1 0 0.2 0.2 0.4 0.2 0.5 0.4 0.2 0.2 0.2 0.4 0.3 0.7 0.2 0.4 0.1 0.9 0 1.3q-0.1 1 0.1 1.7c0.1 0.3 0.4 0.5 0.7 0.7-0.1-0.2-0.1-0.3-0.1-0.6-0.1-0.3 0-0.7 0.1-1 0.2-0.6 0.5-1.1 0.8-1.6 0.2-0.5 0.3-1 0.2-1.5 0-0.5-0.1-0.9-0.3-1.2-0.3-0.4-0.7-0.6-1-0.7-0.4-0.1-0.9 0-1.4 0.2-0.4 0.1-0.7 0.3-0.7 0.3l-0.4 0.2v-0.4c0.3-1.6 0.5-2.4 0-3.8-0.1-0.6-0.4-1.2-0.9-2-0.3-0.4-0.5-0.8-0.8-1.2q-1.3 1.5-1.7 3c-0.4 1.1-0.4 2.6-0.3 3.8v0.4l-0.4-0.2c0 0-0.4-0.3-0.9-0.6-0.5-0.2-1.1-0.5-1.4-0.4-0.5 0-0.8 0.3-1.1 0.7-0.3 0.4-0.4 0.7-0.4 1.3-0.1 0.3 0 0.9 0.1 1.3 0 0.5 0.3 1 0.3 1.6 0.1 0.2 0.1 0.3 0.2 0.5q0 0.3 0 0.7c0 0.2-0.1 0.3-0.2 0.5q0.2 0 0.3-0.1c0.3-0.2 0.4-0.5 0.5-0.9 0.1-0.3 0.1-0.5 0.1-0.7 0.1-0.2 0.1-0.5 0.2-0.8 0.2-0.5 0.4-1.1 0.9-1.5 0.4-0.3 0.9-0.4 1.4-0.3 0.3 0.1 0.5 0.3 0.6 0.5q0.2 0.3 0.4 0.7c0.1 0.3 0.2 0.7 0.2 1.1 0.1 0.4 0.1 0.8 0.1 0.8l-0.3 1.3-0.5-0.1 0.4-1.2c0 0-0.1-0.3-0.1-0.7-0.1-0.4-0.2-0.8-0.3-1q-0.1-0.4-0.3-0.6c-0.1-0.1-0.2-0.2-0.3-0.3-0.4-0.1-0.8 0-1.1 0.2-0.3 0.2-0.5 0.8-0.7 1.3-0.1 0.2-0.1 0.4-0.1 0.6 0 0.3 0 0.5-0.2 0.8-0.1 0.4-0.2 0.9-0.6 1.2-0.3 0.2-0.8 0.4-0.8 0.4l-0.5 0.2 0.2-0.5c0 0 0.2-0.7 0.2-1 0.1-0.2 0.1-0.3 0-0.5 0-0.1-0.1-0.3-0.1-0.6-0.1-0.4-0.3-0.9-0.4-1.5 0-0.4-0.1-1-0.1-1.5 0.1-0.5 0.2-1 0.5-1.5 0.4-0.5 0.8-0.9 1.5-0.9 0.5-0.1 1.1 0.2 1.6 0.5 0.4 0.2 0.5 0.3 0.6 0.4 0-1.2 0-2.5 0.3-3.6 0.4-1.1 1-2.3 2-3.4l0.2-0.2 0.1 0.2c0.5 0.5 0.8 1.1 1 1.5 0.6 0.8 0.9 1.5 1.1 2.2 0.4 1.3 0.2 2.3 0 3.5 0.2 0 0.2-0.1 0.5-0.2 0.5-0.1 1.1-0.3 1.5-0.2 0.6 0.1 1 0.4 1.3 0.9 0.3 0.4 0.5 0.9 0.5 1.4 0 0.6-0.1 1.3-0.3 1.8-0.3 0.6-0.6 1-0.8 1.6-0.1 0.2-0.1 0.5-0.1 0.8 0.1 0.4 0.3 1 0.3 1l0.1 0.5-0.4-0.2c-0.7-0.2-1.2-0.7-1.4-1.3-0.2-0.5-0.2-1.2-0.1-1.9 0.1-0.4 0.1-0.8 0-1-0.1-0.3-0.1-0.5-0.2-0.5-0.1-0.1-0.2-0.2-0.4-0.3-0.2-0.1-0.5-0.1-0.8 0-0.4 0.2-0.9 0.7-0.9 1.2-0.1 0.7-0.3 1.5-0.6 1.9zm12.4-0.7v-0.1c-1.8-0.5-3.4 0-5.1 0.8l-0.5 0.3 0.2-0.6q1.2-3.4 1.8-6.7l0.1-0.7 0.3 0.6c1.8 3.6 3.1 4.6 4.5 5.3 0.3-2.2 0.3-5.2-1.5-9.7l-0.1-0.4h0.3c2.2 0.1 4.3 0.4 6.5 1.4l-0.2 0.4c-2-0.9-4-1.1-5.9-1.3 1.7 4.6 1.7 7.7 1.3 10.1l-0.1 0.3-0.2-0.2c-1.4-0.6-2.9-1.8-4.7-5.2q-0.5 2.9-1.5 5.8c1.6-0.7 3.3-1.2 5.2-0.6l0.2 0.1-0.1 0.3zm-62-0.1h0.1l-0.1-0.3 0.2-0.1c1.9-0.6 3.6-0.1 5.2 0.6q-1-2.9-1.5-5.8c-1.8 3.4-3.3 4.6-4.7 5.2l-0.2 0.2-0.1-0.3c-0.4-2.4-0.4-5.5 1.3-10.1-1.9 0.1-3.9 0.4-5.9 1.3l-0.2-0.4c2.2-1 4.3-1.3 6.5-1.4h0.3l-0.1 0.4c-1.8 4.5-1.9 7.5-1.5 9.7 1.4-0.7 2.7-1.7 4.5-5.3l0.3-0.6 0.1 0.7q0.6 3.3 1.8 6.7l0.2 0.6-0.5-0.3c-1.7-0.8-3.3-1.3-5.1-0.8 0 0-0.6 0-0.6 0zm14.9 1.2h-0.1l-0.3-1.1c0 0 0-0.4 0.1-0.8 0-0.4 0.1-0.8 0.2-1.1 0.1-0.2 0.2-0.5 0.4-0.7 0.1-0.2 0.3-0.4 0.6-0.5 0.5-0.1 1 0 1.4 0.3 0.5 0.3 0.7 1 0.9 1.5 0.1 0.3 0.1 0.6 0.2 0.8 0 0.2 0 0.4 0.1 0.7 0.1 0.4 0.2 0.7 0.5 0.9q0.1 0.1 0.3 0.1c-0.1-0.2-0.2-0.3-0.2-0.5 0-0.3 0-0.5 0-0.7 0.1-0.2 0.1-0.3 0.2-0.5 0-0.6 0.3-1.1 0.3-1.6 0.1-0.4 0.2-1 0.1-1.3 0-0.6-0.1-0.9-0.4-1.3-0.3-0.4-0.6-0.7-1.1-0.7-0.3-0.1-0.9 0.2-1.4 0.4-0.5 0.3-1 0.6-1 0.6l-0.3 0.2v-0.4c0.1-1.2 0.1-2.7-0.3-3.8q-0.5-1.5-1.7-3c-0.3 0.4-0.5 0.8-0.8 1.2-0.5 0.8-0.8 1.4-1 2-0.4 1.4-0.2 2.2 0 3.8l0.1 0.4-0.4-0.2c0 0-0.3-0.2-0.8-0.3-0.4-0.2-0.9-0.3-1.3-0.2-0.3 0.1-0.7 0.3-1 0.7-0.2 0.3-0.3 0.7-0.3 1.2-0.1 0.5 0 1 0.2 1.5 0.3 0.5 0.6 1 0.8 1.6 0.1 0.3 0.2 0.7 0.1 1 0 0.3 0 0.4-0.1 0.6q0.5-0.3 0.7-0.7 0.2-0.7 0-1.7c0-0.4-0.1-0.9 0-1.3q0.2-0.5 0.4-0.7c0.1-0.2 0.3-0.2 0.5-0.4 0.4-0.1 0.8-0.1 1.1 0 0.6 0.3 1.1 0.9 1.3 1.6 0 0 0.2 1.2 0.2 2l-0.5-0.1c0-0.5-0.2-1.8-0.2-1.8q0 0 0 0c-0.1-0.5-0.5-1-0.9-1.2-0.3-0.1-0.6-0.1-0.8 0-0.2 0.1-0.3 0.2-0.4 0.2-0.1 0.1-0.1 0.3-0.2 0.6-0.1 0.2-0.1 0.6 0 1 0.1 0.7 0.1 1.4-0.1 1.9-0.2 0.6-0.7 1.1-1.4 1.3l-0.4 0.2 0.1-0.5c0 0 0.2-0.6 0.3-1 0-0.3 0-0.6-0.1-0.8-0.2-0.6-0.5-1-0.8-1.6-0.2-0.5-0.3-1.2-0.3-1.8 0-0.5 0.2-1 0.5-1.4 0.3-0.5 0.7-0.8 1.3-0.9 0.4-0.1 1 0.1 1.5 0.2 0.2 0.1 0.3 0.2 0.5 0.2-0.2-1.2-0.4-2.2 0-3.5 0.2-0.7 0.5-1.4 1-2.2 0.3-0.4 0.6-1 1.1-1.5l0.1-0.2 0.2 0.2c1 1.1 1.6 2.3 2 3.4 0.3 1.1 0.3 2.4 0.3 3.6 0.1-0.1 0.2-0.2 0.6-0.4 0.5-0.3 1.1-0.6 1.6-0.5 0.7 0 1.1 0.4 1.5 0.9 0.3 0.5 0.4 1 0.5 1.5 0 0.5-0.1 1.1-0.1 1.5-0.1 0.6-0.4 1.1-0.4 1.5q-0.1 0.4-0.1 0.6c-0.1 0.2-0.1 0.3-0.1 0.5 0.1 0.3 0.3 1 0.3 1l0.2 0.5-0.5-0.2c0 0-0.5-0.2-0.8-0.4-0.4-0.3-0.5-0.8-0.7-1.2-0.1-0.3-0.1-0.5-0.1-0.8 0-0.2 0-0.4-0.1-0.6-0.2-0.5-0.4-1.1-0.7-1.3-0.3-0.2-0.7-0.3-1.1-0.2-0.1 0.1-0.2 0.2-0.4 0.3q-0.1 0.2-0.3 0.6c0 0.2-0.1 0.6-0.2 1 0 0.4-0.1 0.6-0.1 0.7l0.3 1c0 0-0.3 0.1-0.3 0.1zm17.5-4.1v-0.3l0.3 0.1c1.2 0.4 2.2 0.8 3 1.3 1 0.7 1.7 1.4 2.5 2.1l0.2-8.1c-0.7 0.8-1.3 1.7-2.3 2.4-0.7 0.5-2.1 1.3-3.5 1.4l-0.3 0.1 0.1-0.4c0.2-0.9 0.2-1.5 0.6-2.6 0.4-1 1.2-2.5 2.9-5-1.4-0.1-2.7-0.3-4.6-0.3-1.9 0-3.2 0.2-4.6 0.3 1.7 2.5 2.5 4 2.9 5 0.4 1.1 0.4 1.7 0.6 2.6l0.1 0.4-0.3-0.1c-1.4-0.1-2.8-0.9-3.5-1.4-1-0.7-1.6-1.6-2.3-2.4l0.2 8.1c0.7-0.7 1.5-1.4 2.5-2.1 0.8-0.5 1.8-0.9 3-1.3l0.3-0.1v0.3l-0.4 0.4q-1.6 0.5-2.7 1.1c-1.1 0.8-1.9 1.6-2.8 2.4l-0.4 0.3v-0.5l-0.1-9.2-0.1-0.6 0.4 0.4c0.9 1 1.6 2 2.6 2.8 0.6 0.4 1.9 1.1 3 1.3-0.1-0.8-0.2-1.3-0.5-2.2-0.4-1-1.2-2.5-3.1-5.2l-0.2-0.4h0.3c1.7-0.2 3-0.4 5.1-0.4 2.1 0 3.4 0.2 5 0.4h0.4l-0.2 0.4c-1.9 2.7-2.7 4.2-3.1 5.2-0.3 0.9-0.4 1.5-0.5 2.2 1.1-0.2 2.3-0.9 3-1.3 1-0.8 1.7-1.8 2.5-2.8l0.4-0.4v0.6l-0.1 9.2v0.5l-0.4-0.3c-0.9-0.8-1.7-1.6-2.9-2.4q-1-0.6-2.6-1.1z"/>
							<path id="path282" class="s9" d="m675 303.4c0 0-1.3 2.2-2.1 2.9-1.1 1.1-1.9 1.7-3.3 2.2-1.5 0.5-3.5 0.7-5 0.7-1.4-0.1-2.9-0.6-4.2-1.3-1.2-0.6-3-2.3-3-2.3-0.9 1.2-2 2.1-3.1 2.7-1.3 0.9-2.7 0.9-4.1 0.9-2.9-0.2-5.6-2.2-7.7-6.1-1.4-3.6-3-7.2-5-11 2.3-0.8 5-1.3 8-1.5-1.3 3.7-2.5 7.3-2.1 10.3 2.5-2 3.4-4.8 4.2-7.5l3 11.1c-1.8-0.4-0.9-0.8-5.5-1.7 0.9 1.9 3 4.2 5.4 4.5 1.6 0.1 2.7-0.4 3.7-1.4 0.8-0.6 1.4-1.5 1.4-2.5q0-0.9 0-1.8c0-0.3-0.4-0.9-0.8-0.9-0.3 0-0.4 0.6-0.5 0.9-0.2 0.7 0.2 1.5 0 2.2-0.2 0.7-0.5 1.3-1.2 1.7-0.5 0.4-1.7 0.4-1.7 0.4l0.4-1.6c0.3-1.1-0.8-2-1-3.2-0.2-0.8-0.3-1.6 0-2.3 0.2-0.8 0.8-1.5 1.5-1.9 0.3-0.1 0.6-0.1 0.8-0.1 0.4 0 1.2 0.3 1.2 0.3 0 0-0.2-1.2-0.1-1.9 0-0.8 0.7-2.4 1.1-3.2 0.6-1.3 1.6-2.4 1.7-2.5 0.1 0.1 1.2 1.2 1.9 2.4 0.5 0.7 0.9 1.8 1 2.6 0.1 0.7 0.1 2.2 0.1 2.2 0 0 1.2-0.5 1.6-0.5 0.2-0.1 0.5-0.1 0.8 0 0.7 0.3 1.3 1 1.6 1.8 0.3 0.7 0.3 1.5 0.2 2.3-0.2 1.2-0.8 2.1-0.5 3.2l0.5 1.6c0 0-1.2 0-1.7-0.3-0.7-0.4-1.1-0.9-1.3-1.7-0.3-0.6-0.1-1.4-0.5-2-0.2-0.3-0.4-0.5-0.7-0.5-0.4 0-0.6 0.6-0.6 1l-0.1 1.5c0 0.5 0.2 1 0.4 1.4 0.6 1 1.5 1.5 2.5 2 1 0.4 2 0.6 3.1 0.6 1 0 2.6-0.1 3.5-0.5 1.2-0.4 1.8-0.9 2.7-1.7 0.5-0.5 0.8-1.2 1-1.9 0.2-0.8 0.2-2.1 0.2-2.1-1.2 0.4-2.1 1-3 1.7-1 0.8-1.8 1.8-2.6 2.8l-0.1-13.5c1.1 1.4 2 2.6 3.1 3.7 1 0.8 1.5 1.2 2.5 1.5-0.3-1.1-0.4-1.7-1.1-2.8-1-1.5-2-3.1-3.2-4.6 2.2-0.4 4.5-0.5 6.7-0.5 2.2 0 4.5 0.1 6.7 0.5-1.2 1.5-2.2 3.1-3.2 4.6-0.7 1.1-0.8 1.7-1.1 2.8 1-0.3 1.5-0.7 2.5-1.5 1.1-1.1 2-2.3 3.1-3.7l-0.1 13.5c-0.8-1-1.6-2-2.6-2.8-0.9-0.7-1.8-1.3-3-1.7 0 0 0 1.3 0.2 2.1 0.2 0.7 0.5 1.4 1 1.9 0.9 0.8 1.5 1.3 2.7 1.7 0.9 0.4 2.5 0.5 3.5 0.5 1.1 0 2.1-0.2 3.1-0.6 1-0.5 1.9-1 2.5-2 0.2-0.4 0.4-0.9 0.4-1.4l-0.1-1.5c0-0.4-0.2-1-0.6-1-0.3 0-0.5 0.2-0.7 0.5-0.4 0.6-0.2 1.4-0.5 2-0.2 0.8-0.6 1.3-1.3 1.7-0.5 0.3-1.7 0.3-1.7 0.3l0.5-1.6c0.3-1.1-0.3-2-0.5-3.2-0.1-0.8-0.1-1.6 0.2-2.3 0.3-0.8 0.9-1.5 1.6-1.8 0.3-0.1 0.6-0.1 0.8 0 0.4 0 1.6 0.5 1.6 0.5 0 0 0-1.5 0.1-2.2 0.1-0.8 0.5-1.9 1-2.6 0.7-1.2 1.8-2.3 1.9-2.4 0.1 0.1 1.1 1.2 1.7 2.5 0.4 0.8 1.1 2.4 1.1 3.2 0.1 0.7-0.1 1.9-0.1 1.9 0 0 0.8-0.3 1.2-0.3 0.2 0 0.5 0 0.8 0.1 0.7 0.4 1.3 1.1 1.5 1.9 0.3 0.7 0.2 1.5 0 2.3-0.2 1.2-1.3 2.1-1 3.2l0.4 1.6c0 0-1.2 0-1.7-0.4-0.7-0.4-1-1-1.2-1.7-0.2-0.7 0.2-1.5 0-2.2-0.1-0.3-0.2-0.9-0.5-0.9-0.4 0-0.8 0.6-0.8 0.9q0 0.9 0 1.8c0 1 0.6 1.9 1.4 2.5 1 1 2.1 1.5 3.7 1.4 2.4-0.3 4.5-2.6 5.4-4.5-4.6 0.9-3.7 1.3-5.5 1.7l3-11.1c0.8 2.7 1.7 5.5 4.2 7.5 0.4-3-0.8-6.6-2.1-10.3 3 0.2 5.7 0.7 8 1.5-2 3.8-3.6 7.4-5 11-2.1 3.9-4.8 5.9-7.7 6.1-1.4 0-2.8 0-4.1-0.9-1.1-0.6-2.2-1.5-3.1-2.7 0 0-1.8 1.7-3 2.3-1.3 0.7-2.8 1.2-4.2 1.3-1.5 0-3.5-0.2-5-0.7-1.4-0.5-2.2-1.1-3.3-2.2-0.8-0.7-2.1-2.9-2.1-2.9z"/>
						</g>
					</g>
					<g id="g306">
						<g id="g292">
							<g id="g290">
								<ellipse id="ellipse288" class="s11" cx="675" cy="298.9" rx="2" ry="2.2"/>
							</g>
						</g>
						<g id="g298">
							<g id="g296">
								<ellipse id="ellipse294" class="s11" cx="642.7" cy="302" rx="2" ry="2.2"/>
							</g>
						</g>
						<g id="g304">
							<g id="g302">
								<ellipse id="ellipse300" class="s11" cx="707.3" cy="302" rx="2" ry="2.2"/>
							</g>
						</g>
					</g>
					<g id="g320">
						<g id="g312">
							<path id="path308" class="s10" d="m655.4 302.2l4.4-0.3 0.7 1.1-0.5 1.1-4.5 0.3-0.8-1.1z"/>
							<path id="path310" class="s9" d="m655.4 302.2l4.4-0.3 0.7 1.1-0.5 1.1-4.5 0.3-0.8-1.1z"/>
						</g>
						<g id="g318">
							<path id="path314" class="s10" d="m695.3 303.3l-0.8 1.1-4.5-0.3-0.5-1.1 0.7-1.1 4.4 0.3z"/>
							<path id="path316" class="s9" d="m695.3 303.3l-0.8 1.1-4.5-0.3-0.5-1.1 0.7-1.1 4.4 0.3z"/>
						</g>
					</g>
				</g>
				<g id="g484">
					<g id="g328">
						<path id="path324" fill-rule="evenodd" class="s10" d="m644.8 311.5c0 0 20.1-1.9 30.2-1.9 10.1 0 30.2 1.9 30.2 1.9l-1.9 9.5c0 0-3.2-0.3-8.8-0.6-5.6-0.4-11.8-0.6-14.8-0.6h-9.4c-3.1 0-9.1 0.2-14.8 0.6-5.6 0.3-8.8 0.6-8.8 0.6z"/>
						<path id="path326" class="s9" d="m674.9 309.7q15.1 0 30.2 1.8l-1.8 9.5c-10-1-18.2-1.2-28.3-1.3m0 0c-10.1 0.1-18.3 0.3-28.3 1.3l-1.8-9.5q15.1-1.8 30.2-1.8"/>
					</g>
					<g id="g334">
						<path id="path330" class="s12" d="m670.3 309.4h9.4c3 0 9.2 0.2 14.8 0.5 5.7 0.4 11.4 1.1 11.4 1.1 0.5 0.7 0.6 1.3-0.3 1.8 0 0-5.7-0.7-11.2-1.1-5.6-0.4-11.8-0.6-14.7-0.6h-9.4q-7.4 0.1-14.7 0.6c-3.6 0.3-7.7 0.6-11.2 1.1-0.9-0.5-0.9-1.1-0.3-1.8 3.6-0.5 7.7-0.8 11.3-1.1 5-0.3 9.9-0.5 14.9-0.5z"/>
						<path id="path332" class="s13" d="m670.3 309.4h9.4c3 0 9.2 0.2 14.8 0.5 5.7 0.4 11.4 1.1 11.4 1.1 0.5 0.7 0.6 1.3-0.3 1.8 0 0-5.7-0.7-11.2-1.1-5.6-0.4-11.8-0.6-14.7-0.6h-9.4q-7.4 0.1-14.7 0.6c-3.6 0.3-7.7 0.6-11.2 1.1-0.9-0.5-0.9-1.1-0.3-1.8 3.6-0.5 7.7-0.8 11.3-1.1 5-0.3 9.9-0.5 14.9-0.5z"/>
					</g>
					<g id="g340">
						<path id="path336" class="s12" d="m670.6 319.2h8.8c2.8 0 8.5 0.2 13.8 0.6 5.2 0.3 10.5 1.1 10.5 1.1 0.5 0.6 0.6 1.2-0.3 1.7 0 0-5.2-0.7-10.4-1.1-5.2-0.3-10.9-0.5-13.6-0.5h-8.8q-6.8 0.1-13.6 0.5c-3.4 0.3-7.2 0.6-10.4 1.1-0.9-0.5-0.8-1.1-0.4-1.7 3.4-0.6 7.3-0.9 10.6-1.1 4.6-0.3 9.2-0.6 13.8-0.6z"/>
						<path id="path338" class="s13" d="m670.6 319.3h8.8c2.8 0 8.5 0.1 13.8 0.5 5.2 0.3 10.5 1.1 10.5 1.1 0.5 0.6 0.6 1.2-0.3 1.7 0 0-5.2-0.7-10.4-1.1-5.2-0.3-10.9-0.4-13.6-0.4h-8.8c-4.5 0-9.1 0.1-13.6 0.4-3.4 0.3-7.2 0.6-10.4 1.1-0.9-0.5-0.8-1.1-0.4-1.7 3.4-0.6 7.3-0.9 10.6-1.1q6.9-0.5 13.8-0.5z"/>
					</g>
					<g id="g482">
						<g id="g370">
							<g id="g346">
								<path id="rect342" class="s10" d="m669 311.8h12v6.6h-12z"/>
								<path id="rect344" class="s9" d="m669 311.8h12v6.6h-12z"/>
							</g>
							<g id="g368">
								<g id="g366">
									<g id="g362">
										<path id="rect348" class="s14" d="m670.3 312.7h9.4v4.8h-9.4z"/>
										<path id="path350" fill-rule="evenodd" class="s15" d="m679.5 317.4q-0.2 0.1-0.5 0.1h-8q-0.3 0-0.5-0.1-0.2-0.2-0.2-0.4v-3.7q0-0.3 0.2-0.4c0.1-0.1 9.1 4.4 9 4.5z"/>
										<g id="g358">
											<path id="path352" fill-rule="evenodd" class="s16" d="m679.5 317.4q-0.2 0.1-0.5 0.1h-8q-0.3 0-0.5-0.1-0.2-0.2-0.2-0.4v-3.7q0-0.3 0.2-0.4c0.1-0.1 2.4 1 4.7 2.2 2.2 1.1 4.4 2.2 4.3 2.3z"/>
											<path id="path354" fill-rule="evenodd" class="s16" d="m679.5 312.9q0.2 0.1 0.2 0.4v3.7q0 0.2-0.2 0.4-0.2 0.1-0.5 0.1h-8q-0.3 0-0.5-0.1c-0.1-0.1 8.9-4.6 9-4.5z"/>
											<path id="path356" fill-rule="evenodd" class="s16" d="m679.5 317.4q-0.2 0.1-0.5 0.1h-8q-0.3 0-0.5-0.1c-0.1-0.1 2.2-1.3 4.5-2.4 0 0 4.6 2.3 4.5 2.4z"/>
										</g>
										<path id="rect360" class="s9" d="m670.3 312.7h9.4v4.8h-9.4z"/>
									</g>
									<path id="rect364" class="s16" d="m672.4 313.8h5.2v2.5h-5.2z"/>
								</g>
							</g>
						</g>
						<g id="g480">
							<g id="g424">
								<g id="g378">
									<path id="rect372" class="s13" d="m654.9 313.4l8.2-0.9 0.8 5-8.2 0.9z"/>
									<path id="rect374" class="s17" d="m655.6 314l6.9-0.7 0.6 3.6-6.9 0.7z"/>
									<path id="rect376" class="s9" d="m655.6 314l6.9-0.7 0.6 3.6-6.9 0.7z"/>
								</g>
								<g id="g392">
									<g id="g386">
										<path id="path380" class="s13" d="m644.9 317l0.1-3.4 5.6 2-4.6 4.3z"/>
										<path id="path382" class="s18" d="m644.2 316.8l0.9-2.4 4.1 1.5-3.4 3.1z"/>
										<path id="path384" class="s18" d="m644.3 316.8l4.9-0.9-3.4 3.1z"/>
									</g>
									<path id="path388" class="s9" d="m649.2 315.9l-5 1"/>
									<path id="path390" class="s9" d="m644.2 316.8l0.9-2.4 4.1 1.5-3.4 3.1z"/>
								</g>
								<g id="g422">
									<g id="g406">
										<g id="g398">
											<g id="g396">
												<ellipse id="ellipse394" class="s11" cx="666.1" cy="313.4" rx="1" ry="1.1"/>
											</g>
										</g>
										<g id="g404">
											<g id="g402">
												<ellipse id="ellipse400" class="s11" cx="666.3" cy="316.9" rx="1" ry="1.1"/>
											</g>
										</g>
									</g>
									<g id="g420">
										<g id="g412">
											<g id="g410">
												<ellipse id="ellipse408" class="s11" cx="652.4" cy="314.2" rx="1" ry="1.1"/>
											</g>
										</g>
										<g id="g418">
											<g id="g416">
												<ellipse id="ellipse414" class="s11" cx="652.6" cy="317.7" rx="1" ry="1.1"/>
											</g>
										</g>
									</g>
								</g>
							</g>
							<g id="g478">
								<g id="g432">
									<path id="rect426" class="s13" d="m694.3 318.4l-8.2-0.9 0.8-5 8.2 0.9z"/>
									<path id="rect428" class="s17" d="m693.8 317.6l-6.9-0.7 0.6-3.6 6.9 0.7z"/>
									<path id="rect430" class="s9" d="m693.8 317.6l-6.9-0.7 0.6-3.6 6.9 0.7z"/>
								</g>
								<g id="g446">
									<g id="g440">
										<path id="path434" class="s13" d="m704 319.9l-4.6-4.3 5.6-2 0.1 3.4z"/>
										<path id="path436" class="s18" d="m704.2 319l-3.4-3.1 4.1-1.5 0.9 2.4z"/>
										<path id="path438" class="s18" d="m704.2 319l-3.4-3.1 4.9 0.9z"/>
									</g>
									<path id="path442" class="s9" d="m700.8 315.9l5 1"/>
									<path id="path444" class="s9" d="m704.2 319l-3.4-3.1 4.1-1.5 0.9 2.4z"/>
								</g>
								<g id="g476">
									<g id="g460">
										<g id="g452">
											<g id="g450">
												<ellipse id="ellipse448" class="s11" cx="683.9" cy="313.4" rx="1" ry="1.1"/>
											</g>
										</g>
										<g id="g458">
											<g id="g456">
												<ellipse id="ellipse454" class="s11" cx="683.7" cy="316.9" rx="1" ry="1.1"/>
											</g>
										</g>
									</g>
									<g id="g474">
										<g id="g466">
											<g id="g464">
												<ellipse id="ellipse462" class="s11" cx="697.6" cy="314.2" rx="1" ry="1.1"/>
											</g>
										</g>
										<g id="g472">
											<g id="g470">
												<ellipse id="ellipse468" class="s11" cx="697.4" cy="317.7" rx="1" ry="1.1"/>
											</g>
										</g>
									</g>
								</g>
							</g>
						</g>
					</g>
				</g>
			</g>
		</g>
	</g>
</svg>