<svg version="1.2" baseProfile="tiny-ps" xmlns="http://www.w3.org/2000/svg" viewBox="0 0 900 600" width="900" height="600"><title></title><defs><clipPath clipPathUnits="userSpaceOnUse" id="cp1"><path d="M450 226.38L386.3 336.71L513.7 336.71L450 226.38Z" /></clipPath><linearGradient id="grd1" gradientUnits="userSpaceOnUse"  x1="448.738" y1="289.055" x2="450.626" y2="283.42"><stop offset="0" stop-color="#510000"  /><stop offset="0.3" stop-color="#8a0000"  /><stop offset="1" stop-color="#aa0000"  /></linearGradient><linearGradient id="grd2" gradientUnits="userSpaceOnUse"  x1="451.444" y1="291.373" x2="452.927" y2="287.449"><stop offset="0" stop-color="#ff2a2a"  /><stop offset="1" stop-color="#ff0000"  /></linearGradient><linearGradient id="grd3" gradientUnits="userSpaceOnUse"  x1="394.509" y1="317.486" x2="584.411" y2="317.486"><stop offset="0" stop-color="#002255"  /><stop offset="0.5" stop-color="#0044aa"  /><stop offset="1" stop-color="#002255"  /></linearGradient><linearGradient id="grd4" gradientUnits="userSpaceOnUse"  x1="394.509" y1="316.373" x2="584.411" y2="316.373"><stop offset="0" stop-color="#002255"  /><stop offset="0.5" stop-color="#0044aa"  /><stop offset="1" stop-color="#002255"  /></linearGradient><linearGradient id="grd5" gradientUnits="userSpaceOnUse"  x1="394.509" y1="315.256" x2="584.411" y2="315.256"><stop offset="0" stop-color="#002255"  /><stop offset="0.5" stop-color="#0044aa"  /><stop offset="1" stop-color="#002255"  /></linearGradient><linearGradient id="grd6" gradientUnits="userSpaceOnUse"  x1="394.509" y1="314.142" x2="584.411" y2="314.142"><stop offset="0" stop-color="#002255"  /><stop offset="0.5" stop-color="#0044aa"  /><stop offset="1" stop-color="#002255"  /></linearGradient><linearGradient id="grd7" gradientUnits="userSpaceOnUse"  x1="394.509" y1="313.029" x2="584.411" y2="313.029"><stop offset="0" stop-color="#002255"  /><stop offset="0.5" stop-color="#0044aa"  /><stop offset="1" stop-color="#002255"  /></linearGradient><linearGradient id="grd8" gradientUnits="userSpaceOnUse"  x1="394.509" y1="311.912" x2="584.411" y2="311.912"><stop offset="0" stop-color="#002255"  /><stop offset="0.5" stop-color="#0044aa"  /><stop offset="1" stop-color="#002255"  /></linearGradient><linearGradient id="grd9" gradientUnits="userSpaceOnUse"  x1="394.509" y1="310.795" x2="584.411" y2="310.795"><stop offset="0" stop-color="#002255"  /><stop offset="0.5" stop-color="#0044aa"  /><stop offset="1" stop-color="#002255"  /></linearGradient><linearGradient id="grd10" gradientUnits="userSpaceOnUse"  x1="394.509" y1="309.682" x2="584.411" y2="309.682"><stop offset="0" stop-color="#002255"  /><stop offset="0.5" stop-color="#0044aa"  /><stop offset="1" stop-color="#002255"  /></linearGradient><linearGradient id="grd11" gradientUnits="userSpaceOnUse"  x1="394.509" y1="308.565" x2="584.411" y2="308.565"><stop offset="0" stop-color="#002255"  /><stop offset="0.5" stop-color="#0044aa"  /><stop offset="1" stop-color="#002255"  /></linearGradient><linearGradient id="grd12" gradientUnits="userSpaceOnUse"  x1="394.509" y1="317.486" x2="584.411" y2="317.486"><stop offset="0" stop-color="#002255"  /><stop offset="0.5" stop-color="#0044aa"  /><stop offset="1" stop-color="#002255"  /></linearGradient><linearGradient id="grd13" gradientUnits="userSpaceOnUse"  x1="434.764" y1="311.709" x2="434.764" y2="317.647"><stop offset="0" stop-color="#f5f549"  /><stop offset="1" stop-color="#97c924"  /></linearGradient><linearGradient id="grd14" gradientUnits="userSpaceOnUse"  x1="419.423" y1="311.709" x2="419.423" y2="317.647"><stop offset="0" stop-color="#f5f549"  /><stop offset="1" stop-color="#97c924"  /></linearGradient><linearGradient id="grd15" gradientUnits="userSpaceOnUse"  x1="434.764" y1="311.709" x2="434.764" y2="317.647"><stop offset="0" stop-color="#f5f549"  /><stop offset="1" stop-color="#97c924"  /></linearGradient><linearGradient id="grd16" gradientUnits="userSpaceOnUse"  x1="434.764" y1="311.709" x2="434.764" y2="317.647"><stop offset="0" stop-color="#f5f549"  /><stop offset="1" stop-color="#97c924"  /></linearGradient><linearGradient id="grd17" gradientUnits="userSpaceOnUse"  x1="419.334" y1="311.709" x2="419.334" y2="317.647"><stop offset="0" stop-color="#f5f549"  /><stop offset="1" stop-color="#97c924"  /></linearGradient><linearGradient id="grd18" gradientUnits="userSpaceOnUse"  x1="390.816" y1="323.111" x2="13892.559" y2="323.111"><stop offset="0" stop-color="#002255"  /><stop offset="0.5" stop-color="#0044aa"  /><stop offset="1" stop-color="#002255"  /></linearGradient><linearGradient id="grd19" gradientUnits="userSpaceOnUse"  x1="386.635" y1="334.743" x2="16446.114" y2="334.743"><stop offset="0" stop-color="#002255"  /><stop offset="0.5" stop-color="#0044aa"  /><stop offset="1" stop-color="#002255"  /></linearGradient><linearGradient id="grd20" gradientUnits="userSpaceOnUse"  x1="386.635" y1="333.454" x2="16446.114" y2="333.454"><stop offset="0" stop-color="#002255"  /><stop offset="0.5" stop-color="#0044aa"  /><stop offset="1" stop-color="#002255"  /></linearGradient><linearGradient id="grd21" gradientUnits="userSpaceOnUse"  x1="386.635" y1="332.168" x2="16446.114" y2="332.168"><stop offset="0" stop-color="#002255"  /><stop offset="0.5" stop-color="#0044aa"  /><stop offset="1" stop-color="#002255"  /></linearGradient><linearGradient id="grd22" gradientUnits="userSpaceOnUse"  x1="386.635" y1="330.876" x2="16446.114" y2="330.876"><stop offset="0" stop-color="#002255"  /><stop offset="0.5" stop-color="#0044aa"  /><stop offset="1" stop-color="#002255"  /></linearGradient><linearGradient id="grd23" gradientUnits="userSpaceOnUse"  x1="386.635" y1="329.587" x2="16446.114" y2="329.587"><stop offset="0" stop-color="#002255"  /><stop offset="0.5" stop-color="#0044aa"  /><stop offset="1" stop-color="#002255"  /></linearGradient><linearGradient id="grd24" gradientUnits="userSpaceOnUse"  x1="386.635" y1="328.301" x2="16446.114" y2="328.301"><stop offset="0" stop-color="#002255"  /><stop offset="0.5" stop-color="#0044aa"  /><stop offset="1" stop-color="#002255"  /></linearGradient><linearGradient id="grd25" gradientUnits="userSpaceOnUse"  x1="386.635" y1="327.014" x2="16446.114" y2="327.014"><stop offset="0" stop-color="#002255"  /><stop offset="0.5" stop-color="#0044aa"  /><stop offset="1" stop-color="#002255"  /></linearGradient><linearGradient id="grd26" gradientUnits="userSpaceOnUse"  x1="386.635" y1="325.725" x2="16446.114" y2="325.725"><stop offset="0" stop-color="#002255"  /><stop offset="0.5" stop-color="#0044aa"  /><stop offset="1" stop-color="#002255"  /></linearGradient><linearGradient id="grd27" gradientUnits="userSpaceOnUse"  x1="386.635" y1="324.439" x2="16446.114" y2="324.439"><stop offset="0" stop-color="#002255"  /><stop offset="0.5" stop-color="#0044aa"  /><stop offset="1" stop-color="#002255"  /></linearGradient></defs><style>tspan { white-space:pre }.shp0 { fill: #0067c6 } .shp1 { fill: #ffffff } .shp2 { fill: #c8a400 } .shp3 { opacity: 0.62;fill: #17c0eb;stroke: #17c0eb;stroke-width: 0.129 } .shp4 { fill: #ff0000 } .shp5 { fill: #ff6600 } .shp6 { fill: #ffff00 } .shp7 { fill: #00ff00 } .shp8 { fill: #00ccff } .shp9 { fill: #0000ff } .shp10 { fill: #800080 } .shp11 { fill: #510000 } .shp12 { fill: url(#grd1) } .shp13 { fill: #ff2a2a } .shp14 { fill: url(#grd2) } .shp15 { fill: #910000 } .shp16 { fill: #ff3a3a } .shp17 { fill: url(#grd3) } .shp18 { fill: url(#grd4) } .shp19 { fill: url(#grd5) } .shp20 { fill: url(#grd6) } .shp21 { fill: url(#grd7) } .shp22 { fill: url(#grd8) } .shp23 { fill: url(#grd9) } .shp24 { fill: url(#grd10) } .shp25 { fill: url(#grd11) } .shp26 { fill: url(#grd12) } .shp27 { fill: url(#grd13) } .shp28 { fill: #97c924 } .shp29 { fill: #ede71f } .shp30 { fill: #c6cb24 } .shp31 { fill: #9ecb34 } .shp32 { fill: url(#grd14) } .shp33 { fill: url(#grd15) } .shp34 { fill: url(#grd16) } .shp35 { fill: #93bc30 } .shp36 { fill: #ccd11e } .shp37 { fill: url(#grd17) } .shp38 { fill: url(#grd18) } .shp39 { fill: url(#grd19) } .shp40 { fill: url(#grd20) } .shp41 { fill: url(#grd21) } .shp42 { fill: url(#grd22) } .shp43 { fill: url(#grd23) } .shp44 { fill: url(#grd24) } .shp45 { fill: url(#grd25) } .shp46 { fill: url(#grd26) } .shp47 { fill: url(#grd27) } </style><path class="shp0" d="M-50 0L950 0L950 600L-50 600L-50 0Z" /><path class="shp1" d="M-50 200L950 200L950 400L-50 400L-50 200Z" /><g ><path fill-rule="evenodd" class="shp2" d="M360 299.33C360.15 297.15 360.28 294.97 360.45 292.79C360.58 291.64 360.76 290.32 361.77 289.58C362.56 288.93 363.68 288.99 364.59 289.32C365.63 289.68 366.2 290.75 366.35 291.79L370.74 288.6L370.62 290.45C369.23 291.46 367.84 292.46 366.46 293.47C366.38 295.07 366.25 296.67 366.15 298.28L370.08 298.54C370.04 299.02 370.01 299.51 369.98 300L360 299.33ZM361.52 297.97C362.59 298.04 363.66 298.11 364.73 298.18L364.92 295.34C364.99 294.03 365.22 292.66 364.7 291.41C364.43 290.69 363.49 290.37 362.85 290.8C362.14 291.31 361.99 292.25 361.87 293.05C361.71 294.69 361.64 296.33 361.52 297.97L361.52 297.97ZM361.3 284.01L363.44 274.83L364.83 275.15L363.02 282.91L365.64 283.53L367.34 276.26L368.72 276.58L367.02 283.85L369.98 284.54L371.87 276.48L373.25 276.8L371.04 286.28L361.3 284.01ZM364.81 270.93L365.71 268.33C366.23 266.91 366.63 265.43 367.35 264.09C367.83 263.16 368.72 262.36 369.8 262.32C370.79 262.28 371.79 262.8 372.35 263.61C373.05 264.71 372.8 266.08 372.48 267.26C372.03 268.7 371.5 270.11 371.02 271.54L374.73 272.83L374.25 274.21L364.81 270.93ZM366.63 270.02L369.67 271.07L370.45 268.83C370.86 267.59 371.44 266.33 371.27 265C371.21 264.27 370.47 263.72 369.76 263.89C368.9 264.13 368.48 265.01 368.14 265.76C367.59 267.17 367.14 268.6 366.63 270.02ZM370.02 258.83L370.76 257.58L374.16 259.57C375.06 260.05 375.9 260.73 376.93 260.92C377.91 261.13 378.84 260.51 379.4 259.74C380.07 258.79 380.74 257.75 380.9 256.58C381.04 255.59 380.37 254.7 379.56 254.21C377.88 253.2 376.17 252.22 374.48 251.22L375.21 249.97L378.67 251.99C379.86 252.73 381.25 253.29 382.01 254.53C382.72 255.77 382.32 257.27 381.76 258.48C381.05 259.92 380.15 261.39 378.71 262.19C377.65 262.79 376.37 262.48 375.36 261.94C373.57 260.93 371.8 259.87 370.02 258.83ZM377.23 247.06L378.51 245.39C379.35 244.32 380.12 243.19 381.04 242.19C381.82 241.35 383.02 240.59 384.2 241.01C385.18 241.3 386.06 242.3 385.77 243.36C386.04 243.2 386.69 242.82 387.19 242.89C388.29 242.94 389.32 243.71 389.76 244.71C390.24 245.97 389.58 247.29 388.87 248.31C387.63 249.92 386.4 251.53 385.17 253.14L377.23 247.06ZM379.24 246.76L381.35 248.38L382.44 246.95C383.11 246.03 383.91 245.19 384.4 244.15C384.7 243.57 384.55 242.76 383.91 242.48C383.2 242.11 382.48 242.68 382.02 243.19C381.05 244.34 380.17 245.57 379.24 246.76ZM382.48 249.24L384.93 251.12L386.17 249.5C386.96 248.41 387.94 247.41 388.34 246.1C388.58 245.39 388.07 244.63 387.36 244.47C386.54 244.31 385.89 244.99 385.37 245.54C384.35 246.73 383.44 248.01 382.48 249.24ZM387.29 235.46L393.09 241.6L393.18 241.69L393.3 241.58L398 237.13L398.98 238.17L393.1 243.72L386.23 236.46L387.29 235.46ZM396.22 227.84L402.32 235.77L401.13 236.68L395.04 228.75L396.22 227.84ZM403.99 222.67C405.11 221.97 406.17 221.6 407.18 221.54C408.14 221.49 408.99 221.73 409.73 222.24L408.65 223.21C407.37 222.39 406.03 222.97 404.66 223.82C402.74 225.07 401.22 227 402.61 229.32C403.96 231.39 406.16 231.49 408.42 230.11C409.86 229.2 411.15 228.24 410.79 226.24L412.17 225.7C412.38 226.74 412.25 227.72 411.76 228.65C411.25 229.61 410.42 230.44 409.26 231.17C408.04 231.93 406.95 232.35 405.99 232.46C405.02 232.57 404.13 232.41 403.31 231.97C403.11 231.86 402.92 231.74 402.73 231.61C402.55 231.48 402.37 231.33 402.2 231.18C402.04 231.02 401.88 230.86 401.73 230.68C401.59 230.5 401.46 230.32 401.34 230.12C400.8 229.26 400.56 228.38 400.6 227.47C400.65 226.56 400.98 225.68 401.59 224.85C402.21 224 403 223.28 403.99 222.67ZM415.81 216.77L417.36 216.15L425.89 223.49L424.33 224.12L421.7 221.83L416.64 223.87L416.63 223.88L416.32 227.35L414.76 227.98L415.81 216.77L415.81 216.77ZM417.18 217.92L416.78 222.3L420.5 220.8L417.18 217.92L417.18 217.92ZM437.73 210.59L440.56 210.41C442.1 210.34 443.65 210.11 445.18 210.41C446.73 210.7 448.09 211.85 448.55 213.37C449.1 215.09 448.92 217.17 447.67 218.56C446.7 219.69 445.18 220.05 443.76 220.22C441.96 220.37 440.16 220.45 438.35 220.57L437.73 210.59ZM439.27 211.92L439.71 219.06L442.51 218.88C443.3 218.8 444.1 218.74 444.88 218.54C446.23 218.19 447.25 216.91 447.32 215.52C447.45 214.31 446.86 213.08 445.86 212.4C445.7 212.28 445.52 212.17 445.34 212.08C445.16 211.99 444.97 211.91 444.78 211.85C444.58 211.79 444.38 211.75 444.18 211.72C443.98 211.7 443.78 211.69 443.58 211.69C442.14 211.7 440.7 211.84 439.27 211.92L439.27 211.92ZM451.66 210L461.07 210.54L460.99 211.96C458.34 211.81 455.68 211.66 453.03 211.51L452.88 214.2C455.36 214.34 457.85 214.48 460.33 214.62L460.25 216.03L452.8 215.61C452.74 216.62 452.68 217.64 452.62 218.65C455.38 218.81 458.14 218.96 460.89 219.12L460.81 220.54L451.09 219.98L451.66 210ZM479.45 214.82L482.91 224.73L483.07 225.15L483.21 224.78L486.08 217.39L487.37 217.89L483.75 227.21L482.07 226.56L478.62 216.64L478.46 216.21L478.31 216.6L475.44 223.99L474.16 223.49L477.77 214.17L479.45 214.82ZM491.21 219.94L486.66 228.84L485.33 228.16L489.87 219.26L491.21 219.94ZM498.75 224.36C499.85 225.08 500.63 225.89 501.1 226.78C501.56 227.64 501.69 228.51 501.54 229.4L500.21 228.82C500.41 227.31 499.32 226.34 497.98 225.45C496.04 224.23 493.66 223.64 492.13 225.88C490.81 227.97 491.64 230.01 493.83 231.49C495.27 232.42 496.68 233.19 498.34 232.03L499.41 233.06C498.55 233.68 497.6 233.97 496.56 233.91C495.47 233.85 494.37 233.45 493.22 232.69C492.03 231.9 491.19 231.09 490.69 230.26C490.18 229.42 489.96 228.55 490.02 227.62C490.03 227.39 490.06 227.17 490.1 226.94C490.14 226.72 490.2 226.5 490.27 226.28C490.34 226.06 490.43 225.85 490.53 225.65C490.63 225.44 490.74 225.24 490.87 225.06C491.43 224.21 492.13 223.62 492.98 223.28C493.83 222.94 494.76 222.88 495.77 223.09C496.79 223.29 497.78 223.72 498.75 224.36ZM508.27 231.54L509.54 232.64L506.88 243.57L505.61 242.47L506.45 239.09L502.33 235.51L502.32 235.51L499.09 236.81L497.82 235.71L508.27 231.54L508.27 231.54ZM503.79 234.92L506.82 237.55L507.87 233.28L503.79 234.92ZM515.82 238.49C517.08 240.01 518.34 241.53 519.59 243.06C520.38 244.08 521.36 245.2 521.26 246.58C521.21 247.6 520.43 248.41 519.54 248.83C518.51 249.39 517.24 249.04 516.38 248.33L515.37 253.66L514.2 252.23C514.51 250.55 514.83 248.86 515.15 247.18C514.1 245.97 513.1 244.71 512.07 243.47L509.04 245.98L508.11 244.85L515.82 238.49ZM513.17 242.57L514.4 244.05C515.35 245.15 516.16 246.41 517.38 247.23C517.99 247.69 518.97 247.75 519.42 247.05C519.97 246.22 519.38 245.23 518.9 244.52C517.87 243.15 516.74 241.85 515.66 240.52L513.17 242.57ZM527.52 254.4L528.36 255.86L522.27 265.32L521.43 263.86L523.33 260.93L520.61 256.21L520.6 256.2L517.12 256.37L516.28 254.92L527.52 254.4ZM526.58 255.92L526.57 255.92L526.58 255.92L526.58 255.92ZM526.57 255.92L522.18 256.13L524.19 259.61L526.57 255.92ZM533.94 267.64C534.3 268.64 534.53 269.69 534.5 270.76C534.5 271.02 534.48 271.29 534.42 271.55C534.36 271.81 534.27 272.07 534.15 272.31C534.04 272.55 533.9 272.78 533.73 272.99C533.56 273.2 533.37 273.39 533.16 273.55L532.78 272.92C532.72 272.72 532.36 272.48 532.59 272.32C533.39 271.49 533.43 270.23 533.17 269.17C532.78 267.56 532 265.94 530.64 264.94C529.25 263.91 527.21 264.28 526.05 265.49C525.04 266.53 525.06 268.12 525.36 269.45C525.76 271.21 526.54 272.99 527.94 274.19L529.53 273.62L528.19 269.9L529.27 269.51L531.09 274.56L526.41 276.25L525.93 274.92L526.68 274.65C525.36 273.21 524.48 271.38 524.12 269.46C523.81 267.79 523.87 265.87 525.01 264.51C526.33 262.88 528.8 262.42 530.66 263.36C532.33 264.2 533.31 265.94 533.94 267.64ZM536.81 275.45L537.09 276.87L531.63 277.93C529.18 278.41 528.9 279.92 529.34 282.12L529.34 282.15C529.76 284.35 530.59 285.64 533.04 285.17L538.5 284.1L538.77 285.53L533.18 286.62C532.14 286.82 531.3 286.81 530.65 286.6C530.01 286.39 529.47 285.94 529.02 285.24C528.57 284.55 528.21 283.62 527.98 282.41C527.98 282.41 527.98 282.41 527.98 282.41C527.98 282.4 527.98 282.4 527.97 282.4C527.97 282.4 527.97 282.39 527.97 282.39C527.97 282.39 527.97 282.39 527.97 282.38C527.74 281.18 527.72 280.18 527.88 279.37C528.03 278.56 528.37 277.94 528.88 277.5C529.4 277.06 530.18 276.74 531.22 276.54L536.81 275.45ZM540 294.14L530.4 300.01L530.28 298.34L533.26 296.53L532.86 291.09L532.86 291.08L529.65 289.72L529.53 288.04L539.88 292.47L540 294.14ZM538.37 293.42L538.37 293.42L538.37 293.42L538.37 293.42ZM538.37 293.42L534.32 291.7L534.61 295.7L538.37 293.42ZM369.35 324.43L367.9 324.81L366.3 318.72L367.75 318.33L369.35 324.43ZM532.28 318.33L533.73 318.72L532.13 324.81L530.68 324.43L532.28 318.33ZM383.22 343.99L384.15 345.38L378.72 355.24L377.79 353.85L379.48 350.8L376.44 346.27L376.44 346.26L372.97 346.67L372.04 345.27L383.22 343.99ZM378.01 346.08L380.25 349.41L382.38 345.56L378.01 346.08ZM389.14 351.86L385.86 360.32L394.62 357.71L396.06 359.26L388.93 365.92L387.98 364.9L393.88 359.39L385.27 362L384.18 360.83L387.33 352.16L381.32 357.78L380.37 356.76L387.5 350.1L389.14 351.86ZM405.41 366.36L404.55 367.5L398.18 362.7L396.56 364.86L402.52 369.34L401.67 370.47L395.71 365.99L393.88 368.42L400.49 373.4L399.64 374.53L391.86 368.68L397.88 360.69L405.41 366.36ZM407.66 367.85C409.47 368.82 411.27 369.77 413.08 370.74C414.16 371.38 415.44 372.06 415.79 373.36C416.1 374.31 415.67 375.3 415.04 376C414.3 376.91 413 377.07 411.93 376.74L413.03 382.05L411.39 381.18C411.04 379.5 410.7 377.82 410.35 376.14C408.92 375.42 407.51 374.64 406.09 373.89L404.24 377.36C403.81 377.13 403.38 376.9 402.95 376.67L407.66 367.85ZM408.28 369.79L406.76 372.63L408.58 373.6C409.88 374.25 411.11 375.12 412.57 375.36C413.31 375.54 414.19 375.1 414.27 374.28C414.36 373.35 413.49 372.72 412.8 372.25C411.33 371.38 409.79 370.62 408.28 369.79ZM420.35 374.32L416.57 383.58L415.18 383.01L418.96 373.76L420.35 374.32ZM427.97 376.87C429.23 377.29 430.19 377.86 430.88 378.61C431.53 379.31 431.89 380.12 431.97 381.02L430.54 380.8C430.35 379.3 429.04 378.63 427.52 378.13C425.33 377.45 422.87 377.5 421.97 380.06C421.25 382.42 422.58 384.18 425.08 385.04C426.7 385.56 428.27 385.94 429.57 384.38L430.87 385.1C430.2 385.93 429.36 386.45 428.34 386.66C427.27 386.89 426.1 386.79 424.8 386.35C423.44 385.9 422.42 385.34 421.72 384.66C421.01 383.99 420.57 383.2 420.39 382.29C420.34 382.07 420.31 381.84 420.29 381.61C420.27 381.39 420.27 381.16 420.29 380.93C420.3 380.7 420.33 380.48 420.37 380.25C420.41 380.03 420.47 379.81 420.54 379.59C420.86 378.63 421.39 377.88 422.12 377.33C422.85 376.79 423.74 376.48 424.77 376.42C425.81 376.35 426.87 376.5 427.97 376.87ZM439.69 379.36L443.37 390L441.7 389.76L440.57 386.46L435.18 385.68L435.17 385.68L433.15 388.52L431.49 388.28L438.03 379.12L439.69 379.36ZM438.63 380.8L436.09 384.39L440.06 384.96L438.63 380.8L438.63 380.8ZM461.47 379.19C462.77 378.94 463.89 378.97 464.85 379.28C465.77 379.58 466.47 380.1 466.99 380.85L465.63 381.36C464.73 380.15 463.26 380.21 461.69 380.51C459.44 380.99 457.33 382.24 457.8 384.91C458.32 387.32 460.34 388.2 462.94 387.73C464.62 387.39 466.16 386.96 466.54 384.96L468.03 384.95C467.85 386 467.37 386.87 466.58 387.56C465.76 388.27 464.69 388.76 463.34 389.02C461.94 389.29 460.77 389.3 459.83 389.05C458.88 388.81 458.12 388.34 457.51 387.63C457.36 387.46 457.22 387.28 457.09 387.09C456.96 386.9 456.85 386.7 456.75 386.5C456.65 386.29 456.57 386.08 456.49 385.86C456.42 385.65 456.36 385.43 456.32 385.2C456.13 384.2 456.22 383.29 456.59 382.46C456.96 381.63 457.58 380.93 458.45 380.37C459.33 379.8 460.33 379.41 461.47 379.19ZM468.15 378.01L477.18 375.33L477.59 376.7L469.95 378.97L470.71 381.55L477.87 379.43L478.27 380.78L471.12 382.9L471.98 385.82L479.92 383.47L480.32 384.83L470.99 387.6L468.15 378.01ZM478.97 374.61L480.6 373.85C483.92 375.38 487.22 376.92 490.55 378.43L487.05 370.87L488.31 370.29L492.5 379.37L491.24 379.95C491.03 380.06 490.81 380.19 490.6 380C487.37 378.52 484.15 377.01 480.91 375.54L484.42 383.11L483.16 383.69L478.97 374.61ZM498.6 363.76L499.38 364.95L495.79 367.31L495.65 367.4L495.72 367.51L500.37 374.57L499.15 375.37L494.5 368.31L494.44 368.2L494.3 368.29L490.73 370.64L489.95 369.45L498.6 363.76ZM500.01 362.56C501.46 361.23 502.91 359.89 504.37 358.55C505.34 357.71 506.41 356.66 507.79 356.69C508.82 356.68 509.67 357.42 510.14 358.28C510.75 359.28 510.47 360.57 509.81 361.47L515.18 362.18L513.82 363.43C512.12 363.21 510.43 362.98 508.73 362.76C507.57 363.87 506.37 364.94 505.2 366.04L507.86 368.93L506.79 369.92L500.01 362.56ZM502.05 362.62L504.23 364.99L505.64 363.69C506.68 362.67 507.9 361.79 508.66 360.52C509.08 359.9 509.09 358.91 508.36 358.5C507.5 358 506.54 358.65 505.86 359.16C504.55 360.26 503.32 361.47 502.05 362.62ZM511.64 350.92L511.64 350.92L511.64 350.92L511.64 350.92ZM511.64 350.92L512.7 349.62L523.71 351.96L522.65 353.26L519.24 352.52L515.79 356.74L515.78 356.75L517.18 359.94L516.12 361.25L511.64 350.92ZM513.39 351.27L515.15 355.3L517.69 352.19L513.39 351.27ZM516.79 344.03L523.88 348.63L523.99 348.7L524.08 348.56L527.6 343.13L528.79 343.9L524.39 350.69L516 345.25L516.79 344.03Z" /></g><g clip-path="url(#cp1)"><g ><path class="shp1" d="M450 226.41L418.52 280.94L403.1 307.64L496.9 307.64L482.19 282.16L450 226.41L450 226.41Z" /><g ><g ><path class="shp3" d="M450 226.41L447.64 230.49L450 285.47L452.36 230.49L450 226.41Z" /><path class="shp1" d="M450 277.48L449.87 277.48L450 280.59L450.13 277.48L450 277.48Z" /></g><g ><path class="shp3" d="M506.17 267.22L501.56 266.24L450 285.47L503.02 270.72L506.17 267.22Z" /><path class="shp1" d="M457.6 283L457.56 282.87L454.64 283.96L457.64 283.13L457.6 283Z" /></g><g ><path class="shp3" d="M484.72 333.25L484.22 328.56L450 285.47L480.41 331.33L484.72 333.25Z" /><path class="shp1" d="M454.7 291.93L454.81 291.85L452.87 289.41L454.59 292.01L454.7 291.93Z" /></g><g ><path class="shp3" d="M415.29 333.25L419.59 331.33L450 285.47L415.78 328.56L415.29 333.25Z" /><path class="shp1" d="M445.3 291.93L445.41 292.01L447.13 289.41L445.2 291.85L445.3 291.93Z" /></g><g ><path class="shp3" d="M393.83 267.22L396.99 270.72L450 285.47L398.44 266.24L393.83 267.22Z" /><path class="shp1" d="M442.4 283L442.36 283.13L445.36 283.96L442.44 282.87L442.4 283Z" /></g></g><g ><g ><path class="shp3" d="M458.22 226.98L455.32 230.7L450 285.47L459.99 231.35L458.22 226.98Z" /><path class="shp1" d="M451.11 277.55L450.98 277.54L450.68 280.64L451.25 277.57L451.11 277.55Z" /></g><g ><path class="shp3" d="M508.16 275.21L503.73 273.6L450 285.47L504.55 278.24L508.16 275.21Z" /><path class="shp1" d="M457.87 284.08L457.85 283.95L454.8 284.62L457.89 284.21L457.87 284.08Z" /></g><g ><path class="shp3" d="M477.73 337.61L477.89 332.9L450 285.47L473.73 335.12L477.73 337.61Z" /><path class="shp1" d="M453.75 292.52L453.87 292.46L452.29 289.77L453.63 292.58L453.75 292.52Z" /></g><g ><path class="shp3" d="M408.98 327.95L413.51 326.65L450 285.47L410.12 323.38L408.98 327.95Z" /><path class="shp1" d="M444.45 291.22L444.55 291.31L446.61 288.98L444.35 291.12L444.45 291.22Z" /></g><g ><path class="shp3" d="M396.92 259.58L399.55 263.49L450 285.47L401.62 259.25L396.92 259.58Z" /><path class="shp1" d="M442.82 281.96L442.76 282.09L445.62 283.33L442.88 281.84L442.82 281.96Z" /></g></g><g ><g ><path class="shp3" d="M466.28 228.7L462.89 231.97L450 285.47L467.42 233.27L466.28 228.7Z" /><path class="shp1" d="M452.2 277.78L452.07 277.75L451.35 280.78L452.33 277.82L452.2 277.78Z" /></g><g ><path class="shp3" d="M509.02 283.41L504.86 281.19L450 285.47L505.03 285.9L509.02 283.41Z" /><path class="shp1" d="M457.99 285.19L457.98 285.05L454.88 285.3L457.99 285.32L457.99 285.19Z" /></g><g ><path class="shp3" d="M470.2 340.96L471.02 336.32L450 285.47L466.59 337.93L470.2 340.96Z" /><path class="shp1" d="M452.73 292.98L452.86 292.93L451.67 290.05L452.61 293.02L452.73 292.98Z" /></g><g ><path class="shp3" d="M403.46 321.83L408.13 321.17L450 285.47L405.23 317.46L403.46 321.83Z" /><path class="shp1" d="M443.7 290.39L443.79 290.49L446.16 288.47L443.62 290.28L443.7 290.39Z" /></g><g ><path class="shp3" d="M401.04 252.44L403.1 256.68L450 285.47L405.74 252.77L401.04 252.44Z" /><path class="shp1" d="M443.38 281L443.3 281.11L445.96 282.74L443.45 280.89L443.38 281Z" /></g></g><g ><g ><path class="shp3" d="M474.02 231.51L470.21 234.28L450 285.47L474.52 236.2L474.02 231.51Z" /><path class="shp1" d="M453.25 278.17L453.13 278.11L451.99 281.01L453.37 278.22L453.25 278.17Z" /></g><g ><path class="shp3" d="M508.74 291.64L504.92 288.87L450 285.47L504.43 293.56L508.74 291.64Z" /><path class="shp1" d="M457.95 286.3L457.96 286.17L454.85 285.98L457.93 286.44L457.95 286.3Z" /></g><g ><path class="shp3" d="M462.28 343.24L463.74 338.75L450 285.47L459.13 339.73L462.28 343.24Z" /><path class="shp1" d="M451.66 293.28L451.79 293.25L451.02 290.24L451.53 293.31L451.66 293.28Z" /></g><g ><path class="shp3" d="M398.85 315L403.57 315L450 285.47L401.21 310.91L398.85 315Z" /><path class="shp1" d="M443.08 289.46L443.15 289.58L445.78 287.91L443.02 289.35L443.08 289.46Z" /></g><g ><path class="shp3" d="M406.11 245.95L407.57 250.43L450 285.47L410.72 246.93L406.11 245.95Z" /><path class="shp1" d="M444.06 280.12L443.97 280.22L446.38 282.2L444.15 280.02L444.06 280.12Z" /></g></g><g ><g ><path class="shp3" d="M481.3 235.38L477.14 237.59L450 285.47L481.13 240.09L481.3 235.38Z" /><path class="shp1" d="M454.24 278.69L454.12 278.62L452.59 281.33L454.35 278.76L454.24 278.69Z" /></g><g ><path class="shp3" d="M507.31 299.75L503.92 296.48L450 285.47L502.77 301.05L507.31 299.75Z" /><path class="shp1" d="M457.76 287.4L457.79 287.27L454.73 286.65L457.72 287.53L457.76 287.4Z" /></g><g ><path class="shp3" d="M454.12 344.38L456.19 340.15L450 285.47L451.48 340.47L454.12 344.38Z" /><path class="shp1" d="M450.56 293.44L450.69 293.43L450.34 290.33L450.42 293.45L450.56 293.44Z" /></g><g ><path class="shp3" d="M395.24 307.59L399.91 308.25L450 285.47L398.14 303.88L395.24 307.59Z" /><path class="shp1" d="M442.59 288.46L442.64 288.58L445.48 287.29L442.54 288.34L442.59 288.46Z" /></g><g ><path class="shp3" d="M412.04 240.23L412.86 244.87L450 285.47L416.47 241.84L412.04 240.23Z" /><path class="shp1" d="M444.86 279.34L444.76 279.43L446.87 281.73L444.97 279.26L444.86 279.34Z" /></g></g><g ><g ><path class="shp3" d="M487.96 240.23L483.53 241.84L450 285.47L487.15 244.87L487.96 240.23Z" /><path class="shp1" d="M455.14 279.34L455.03 279.26L453.14 281.73L455.24 279.43L455.14 279.34Z" /></g><g ><path class="shp3" d="M504.76 307.59L501.86 303.88L450 285.47L500.09 308.25L504.76 307.59Z" /><path class="shp1" d="M457.41 288.46L457.46 288.34L454.52 287.29L457.36 288.58L457.41 288.46Z" /></g><g ><path class="shp3" d="M445.88 344.38L448.52 340.47L450 285.47L443.81 340.15L445.88 344.38Z" /><path class="shp1" d="M449.44 293.44L449.58 293.45L449.66 290.33L449.31 293.43L449.44 293.44Z" /></g><g ><path class="shp3" d="M392.7 299.75L397.23 301.05L450 285.47L396.09 296.48L392.7 299.75Z" /><path class="shp1" d="M442.25 287.4L442.28 287.53L445.27 286.65L442.22 287.27L442.25 287.4Z" /></g><g ><path class="shp3" d="M418.7 235.38L418.87 240.09L450 285.47L422.87 237.59L418.7 235.38Z" /><path class="shp1" d="M445.77 278.69L445.65 278.76L447.42 281.33L445.88 278.62L445.77 278.69Z" /></g></g><g ><g ><path class="shp3" d="M493.89 245.95L489.28 246.93L450 285.47L492.43 250.43L493.89 245.95Z" /><path class="shp1" d="M455.94 280.12L455.85 280.02L453.63 282.2L456.03 280.22L455.94 280.12Z" /></g><g ><path class="shp3" d="M501.15 315L498.79 310.91L450 285.47L496.43 315L501.15 315Z" /><path class="shp1" d="M456.92 289.46L456.99 289.35L454.23 287.91L456.85 289.58L456.92 289.46Z" /></g><g ><path class="shp3" d="M437.72 343.24L440.88 339.73L450 285.47L436.27 338.75L437.72 343.24Z" /><path class="shp1" d="M448.34 293.28L448.47 293.31L448.99 290.24L448.21 293.25L448.34 293.28Z" /></g><g ><path class="shp3" d="M391.27 291.64L395.57 293.56L450 285.47L395.08 288.87L391.27 291.64Z" /><path class="shp1" d="M442.05 286.3L442.07 286.44L445.15 285.98L442.04 286.17L442.05 286.3Z" /></g><g ><path class="shp3" d="M425.98 231.51L425.49 236.2L450 285.47L429.79 234.28L425.98 231.51Z" /><path class="shp1" d="M446.75 278.17L446.63 278.22L448.02 281.01L446.87 278.11L446.75 278.17Z" /></g></g><g ><g ><path class="shp3" d="M498.96 252.44L494.26 252.77L450 285.47L496.9 256.68L498.96 252.44Z" /><path class="shp1" d="M456.63 281L456.55 280.89L454.05 282.74L456.7 281.11L456.63 281Z" /></g><g ><path class="shp3" d="M496.54 321.83L494.77 317.46L450 285.47L491.87 321.17L496.54 321.83Z" /><path class="shp1" d="M456.3 290.39L456.38 290.28L453.84 288.47L456.21 290.49L456.3 290.39Z" /></g><g ><path class="shp3" d="M429.8 340.96L433.41 337.93L450 285.47L428.98 336.32L429.8 340.96Z" /><path class="shp1" d="M447.27 292.98L447.39 293.02L448.33 290.05L447.14 292.93L447.27 292.98Z" /></g><g ><path class="shp3" d="M390.98 283.41L394.98 285.9L450 285.47L395.14 281.19L390.98 283.41Z" /><path class="shp1" d="M442.01 285.19L442.01 285.32L445.13 285.3L442.02 285.05L442.01 285.19Z" /></g><g ><path class="shp3" d="M433.72 228.7L432.58 233.27L450 285.47L437.11 231.97L433.72 228.7Z" /><path class="shp1" d="M447.8 277.78L447.67 277.82L448.66 280.78L447.93 277.75L447.8 277.78Z" /></g></g><g ><g ><path class="shp3" d="M503.08 259.58L498.38 259.25L450 285.47L500.45 263.49L503.08 259.58Z" /><path class="shp1" d="M457.18 281.96L457.12 281.84L454.39 283.33L457.24 282.09L457.18 281.96Z" /></g><g ><path class="shp3" d="M491.03 327.95L489.89 323.38L450 285.47L486.5 326.65L491.03 327.95Z" /><path class="shp1" d="M455.55 291.22L455.65 291.12L453.39 288.98L455.45 291.31L455.55 291.22Z" /></g><g ><path class="shp3" d="M422.27 337.61L426.27 335.12L450 285.47L422.11 332.9L422.27 337.61Z" /><path class="shp1" d="M446.25 292.52L446.37 292.58L447.71 289.77L446.13 292.46L446.25 292.52Z" /></g><g ><path class="shp3" d="M391.84 275.21L395.45 278.24L450 285.47L396.27 273.6L391.84 275.21Z" /><path class="shp1" d="M442.13 284.08L442.11 284.21L445.2 284.62L442.16 283.95L442.13 284.08Z" /></g><g ><path class="shp3" d="M441.78 226.98L440.02 231.35L450 285.47L444.68 230.7L441.78 226.98Z" /><path class="shp1" d="M448.89 277.55L448.76 277.57L449.32 280.64L449.02 277.54L448.89 277.55Z" /></g></g><g ><path class="shp4" d="M450 265.84C447.37 265.84 444.74 266.07 442.15 266.53C439.56 267 437.01 267.69 434.55 268.61C432.08 269.52 429.7 270.66 427.43 272C425.17 273.34 423.02 274.87 421.03 276.59L406.38 302C406.25 302.68 406.14 303.36 406.04 304.05C405.95 304.73 405.87 305.42 405.81 306.11C405.75 306.8 405.7 307.49 405.67 308.18C405.64 308.87 405.62 309.56 405.63 310.25L410.66 310.25C410.66 288.52 428.27 270.91 450 270.91C471.73 270.91 489.34 288.52 489.34 310.25L494.38 310.25C494.38 307.44 494.13 304.67 493.63 302L478.97 276.59C476.98 274.87 474.83 273.34 472.57 272C470.3 270.66 467.92 269.52 465.45 268.61C462.99 267.69 460.44 267 457.85 266.54C455.26 266.07 452.63 265.84 450 265.84Z" /><path class="shp5" d="M450 266.66C438.24 266.66 427.56 271.33 419.72 278.91L407.69 299.75C407.48 300.61 407.29 301.47 407.13 302.34C406.97 303.21 406.83 304.08 406.73 304.96C406.62 305.84 406.54 306.72 406.49 307.6C406.43 308.48 406.41 309.37 406.41 310.25L410.66 310.25C410.66 288.52 428.27 270.91 450 270.91C471.73 270.91 489.34 288.52 489.34 310.25L493.59 310.25C493.59 306.63 493.15 303.09 492.31 299.72L480.28 278.91C472.44 271.33 461.76 266.66 450 266.66L450 266.66Z" /><path class="shp6" d="M450 267.47C437.3 267.47 425.9 272.99 418.06 281.78L409.34 296.88C408.99 297.95 408.68 299.04 408.41 300.14C408.15 301.25 407.93 302.36 407.75 303.48C407.57 304.6 407.44 305.72 407.35 306.85C407.26 307.98 407.22 309.12 407.22 310.25L410.66 310.25C410.66 288.52 428.27 270.91 450 270.91C471.73 270.91 489.34 288.52 489.34 310.25L492.78 310.25C492.78 305.58 492.04 301.08 490.66 296.88L481.94 281.78C474.1 272.99 462.7 267.47 450 267.47L450 267.47Z" /><path class="shp7" d="M450 268.25C435.45 268.25 422.63 275.66 415.09 286.91L412.28 291.78C411.58 293.21 410.96 294.68 410.42 296.18C409.89 297.69 409.44 299.22 409.08 300.77C408.72 302.32 408.45 303.9 408.27 305.48C408.09 307.06 408 308.66 408 310.25L410.66 310.25C410.66 288.52 428.27 270.91 450 270.91C471.73 270.91 489.34 288.52 489.34 310.25L492 310.25C492 308.66 491.91 307.07 491.73 305.49C491.55 303.91 491.28 302.34 490.92 300.79C490.56 299.24 490.11 297.71 489.57 296.21C489.04 294.71 488.42 293.24 487.72 291.81L484.88 286.88C477.34 275.65 464.54 268.25 450 268.25L450 268.25Z" /><path class="shp8" d="M450 269.06C427.25 269.06 408.81 287.5 408.81 310.25L410.66 310.25C410.66 288.52 428.27 270.91 450 270.91C471.73 270.91 489.34 288.52 489.34 310.25L491.19 310.25C491.19 287.5 472.75 269.06 450 269.06L450 269.06Z" /><path class="shp9" d="M450 269.84C427.69 269.84 409.63 287.94 409.63 310.25L410.97 310.25C410.97 288.69 428.44 271.22 450 271.22C471.56 271.22 489.03 288.69 489.03 310.25L490.41 310.25C490.41 287.94 472.31 269.84 450 269.84L450 269.84Z" /><path class="shp10" d="M450 270.66C428.14 270.66 410.41 288.38 410.41 310.25C410.41 310.49 410.41 310.74 410.42 310.98L411.22 310.98C411.22 310.92 411.22 310.86 411.22 310.8C411.22 310.73 411.22 310.67 411.21 310.61C411.21 310.55 411.21 310.49 411.21 310.43C411.21 310.37 411.21 310.31 411.21 310.25C411.21 288.82 428.58 271.46 450 271.46C471.42 271.46 488.79 288.82 488.79 310.25C488.79 310.49 488.79 310.74 488.78 310.98L489.58 310.98C489.58 310.74 489.59 310.49 489.59 310.25C489.59 288.38 471.87 270.66 450 270.66L450 270.66Z" /></g><g ><path class="shp11" d="M450.39 288.13C449.75 288.01 449.17 287.65 448.62 287.52C447.86 288.25 447.79 288.98 447.89 289.6C448.15 289.74 448.2 289.96 448.77 290.46C449.33 290.97 449.26 291.24 449.23 292.43C449.21 292.93 449.3 294.01 449.81 294.11C450.36 294.22 450.74 293.76 450.9 292.95C451.05 292.16 451.31 291.73 451.6 291.25C451.9 289.4 451.4 288.74 450.39 288.13L450.39 288.13Z" /><path class="shp4" d="M447.17 283.52C446.57 283.54 445.64 284.54 445.23 284C444.99 283.69 444.95 283.1 445.19 282.6C445.75 281.45 446.31 280.88 447.36 280.27C449.73 278.87 451.25 279.32 452.43 281.33C453.53 283.1 454.58 285.06 454.68 286.7C454.7 287.2 454.96 288.11 454.52 288.56C453.17 289.95 449.92 287.13 448.02 287.58C447.38 287.73 446.64 288.19 446.04 287.79C445.57 287.48 445.96 286.8 446.31 286.5C446.93 285.98 447.81 284.13 447.69 283.33C447.63 282.89 447.61 283.51 447.17 283.52L447.17 283.52Z" /><path class="shp12" d="M446.93 282.55C445.84 282.99 445.96 283.62 445.42 284.14C445.57 284.2 446.18 284.45 446.78 283.84C447.04 283.62 447.33 283.54 447.46 283.47C447.15 283.7 446.94 284.03 446.77 284.16C446.37 284.49 445.74 285.24 445.43 286C445.13 286.77 445 287.68 445.06 287.79C445.11 287.9 445.48 288.57 446.62 289.02C448.65 289.83 449.04 291.46 451.1 291.46C452.71 291.46 452.46 290.4 453.75 290.63C454.87 290.82 455.46 289.93 454.38 289.39C453.01 288.93 450.29 289.2 449.01 289.43C448.6 285.34 448.96 286.78 448.86 285.02C448.76 283.27 448.24 283.16 448.93 281.74C448.35 282.61 447.65 282.48 446.93 282.55L446.93 282.55Z" /><path class="shp13" d="M450.94 279.8C450.9 280.02 450.86 280.31 450.88 280.4C450.97 280.73 451.06 281.09 451.16 281.39C451.28 281.73 451.32 281.97 451.4 282.32C451.48 282.68 451.8 282.82 452.09 283.04C452.46 283.32 452.18 284.08 452.41 284.11C452.59 284.13 452.9 283.04 452.9 282.86C452.9 282.81 452.9 282.75 452.9 282.7C452.9 282.64 452.9 282.59 452.89 282.54C452.89 282.48 452.89 282.43 452.88 282.38C452.88 282.32 452.87 282.27 452.86 282.21C452.83 282.14 452.8 282.07 452.76 281.99C452.73 281.92 452.69 281.85 452.66 281.77C452.62 281.7 452.58 281.63 452.55 281.56C452.51 281.49 452.47 281.41 452.44 281.34C452.43 281.34 452.43 281.34 452.43 281.33C452.41 281.3 452.4 281.28 452.38 281.25C452.37 281.22 452.35 281.19 452.33 281.17C452.32 281.14 452.3 281.11 452.28 281.08C452.27 281.06 452.25 281.03 452.23 281.01C452.18 280.92 452.12 280.85 452.06 280.77C452 280.69 451.94 280.62 451.87 280.55C451.8 280.47 451.74 280.4 451.67 280.34C451.6 280.27 451.52 280.2 451.45 280.14L451.39 280.1C451.31 280.03 451.22 279.97 451.13 279.91C451.07 279.87 451 279.83 450.94 279.8L450.94 279.8Z" /><path class="shp14" d="M451.25 287.4C450.53 287.21 449.82 286.86 449.21 286.67C448.01 286.31 446.73 285.54 445.85 285.86C445.53 286 445.56 286.31 445.46 286.77C445.41 287.3 444.86 288.09 445.32 287.83C446.01 287.45 447.81 288.56 448.42 288.94C448.7 289.11 449.31 289.46 449.5 289.96C449.69 290.46 449.59 291.71 449.54 292.25C449.49 292.82 449.66 294.09 450.22 294.24C450.84 294.41 451.3 293.92 451.54 293.01C451.77 292.13 451.94 291.63 452.3 291.1C452.65 290.57 453.05 290.34 453.62 290.23C454.18 290.13 455 290.7 455 290.03C455 289.59 454.62 289.18 454.78 288.58C454.91 288.11 454.38 288.2 453.94 288C452.9 287.69 451.97 287.58 451.25 287.4L451.25 287.4Z" /><path class="shp15" d="M448.36 288.9C448.04 288.72 446.05 287.42 445.32 287.83C445.09 287.96 445 287.81 445 287.57C445 287.33 445.11 286.98 445.18 286.71C445.26 286.43 445.38 285.92 445.7 285.65C446.39 285.07 447.97 286.22 448.81 286.53C448.74 286.97 448.34 288.89 448.36 288.9L448.36 288.9Z" /><path class="shp16" d="M451.76 291.36C452.68 289.76 453.27 289.96 454.38 289.99C454.75 289.99 454.85 289.66 454.77 289.32C454.49 289.94 453.11 289.25 452.35 289.58C450.78 290.27 451.07 293.35 450.33 293.65C451.1 294.3 451.45 291.91 451.76 291.36L451.76 291.36Z" /></g><g ><path class="shp1" d="M403.1 307.64L393.15 324.88L506.86 324.88L496.9 307.64L403.1 307.64L403.1 307.64Z" /><g ><path class="shp17" d="M399.7 321.36C398.05 321.36 396.51 321.53 395 321.72L394.51 322.56C396.94 322.35 399.21 321.91 401.65 321.85C404.94 321.93 407.93 322.68 411.44 322.68C412.95 322.7 414.46 322.65 415.96 322.68C419.46 322.68 422.45 321.93 425.74 321.85C429.04 321.93 432.05 322.68 435.55 322.68C437.06 322.69 438.73 322.66 440.08 322.68C443.58 322.68 446.55 321.93 449.84 321.85C453.13 321.93 456.11 322.68 459.61 322.68C461.14 322.7 462.64 322.65 464.15 322.68C467.65 322.68 470.64 321.93 473.94 321.85C477.24 321.93 480.22 322.68 483.72 322.68C485.24 322.7 486.75 322.65 488.25 322.68C491.75 322.68 494.73 321.93 498.02 321.85C500.57 321.92 502.94 322.37 505.5 322.58L504.99 321.69C503.59 321.52 502.15 321.36 500.62 321.36C499.09 321.34 497.59 321.39 496.07 321.36C492.57 321.36 489.6 322.11 486.31 322.19C483.01 322.11 480.03 321.36 476.52 321.36C475.01 321.34 473.49 321.39 472 321.36C468.5 321.36 465.5 322.11 462.21 322.19C458.92 322.11 455.93 321.36 452.43 321.36C450.91 321.34 449.39 321.39 447.88 321.36C444.38 321.36 441.41 322.11 438.12 322.19C434.82 322.11 431.85 321.36 428.35 321.36C426.83 321.34 425.32 321.39 423.82 321.36C420.32 321.36 417.33 322.11 414.04 322.19C410.74 322.11 407.75 321.36 404.25 321.36C402.73 321.34 401.21 321.39 399.71 321.36L399.7 321.36Z" /><path class="shp18" d="M399.7 320.25C398.05 320.25 396.51 320.42 395 320.6L394.51 321.45C396.94 321.23 399.21 320.8 401.65 320.74C404.94 320.82 407.93 321.57 411.44 321.57C412.95 321.58 414.46 321.54 415.96 321.57C419.46 321.57 422.45 320.82 425.74 320.74C429.04 320.82 432.05 321.57 435.55 321.57C437.06 321.57 438.73 321.55 440.08 321.57C443.58 321.57 446.55 320.82 449.84 320.74C453.13 320.82 456.11 321.57 459.61 321.57C461.14 321.58 462.64 321.54 464.15 321.57C467.65 321.57 470.64 320.82 473.94 320.74C477.24 320.82 480.22 321.57 483.72 321.57C485.24 321.58 486.75 321.54 488.25 321.57C491.75 321.57 494.73 320.82 498.02 320.74C500.57 320.8 502.94 321.26 505.5 321.46L504.99 320.57C503.59 320.4 502.15 320.25 500.62 320.25C499.09 320.23 497.59 320.28 496.07 320.25C492.57 320.25 489.6 321 486.31 321.08C483.01 321 480.03 320.25 476.52 320.25C475.01 320.23 473.49 320.28 472 320.25C468.5 320.25 465.5 321 462.21 321.08C458.92 321 455.93 320.25 452.43 320.25C450.91 320.23 449.39 320.28 447.88 320.25C444.38 320.25 441.41 321 438.12 321.08C434.82 321 431.85 320.25 428.35 320.25C426.83 320.23 425.32 320.28 423.82 320.25C420.32 320.25 417.33 321 414.04 321.08C410.74 321 407.75 320.25 404.25 320.25C402.73 320.23 401.21 320.28 399.71 320.25L399.7 320.25Z" /><path class="shp19" d="M399.7 319.13C398.05 319.13 396.51 319.3 395 319.49L394.51 320.33C396.94 320.12 399.21 319.68 401.65 319.62C404.94 319.7 407.93 320.45 411.44 320.45C412.95 320.47 414.46 320.42 415.96 320.45C419.46 320.45 422.45 319.7 425.74 319.62C429.04 319.7 432.05 320.45 435.55 320.45C437.06 320.46 438.73 320.43 440.08 320.45C443.58 320.45 446.55 319.7 449.84 319.62C453.13 319.7 456.11 320.45 459.61 320.45C461.14 320.47 462.64 320.42 464.15 320.45C467.65 320.45 470.64 319.7 473.94 319.62C477.24 319.7 480.22 320.45 483.72 320.45C485.24 320.47 486.75 320.42 488.25 320.45C491.75 320.45 494.73 319.7 498.02 319.62C500.57 319.69 502.94 320.14 505.5 320.35L504.99 319.45C503.59 319.29 502.15 319.13 500.62 319.13C499.09 319.11 497.59 319.16 496.07 319.13C492.57 319.13 489.6 319.88 486.31 319.96C483.01 319.88 480.03 319.13 476.52 319.13C475.01 319.11 473.49 319.16 472 319.13C468.5 319.13 465.5 319.88 462.21 319.96C458.92 319.88 455.93 319.13 452.43 319.13C450.91 319.11 449.39 319.16 447.88 319.13C444.38 319.13 441.41 319.88 438.12 319.96C434.82 319.88 431.85 319.13 428.35 319.13C426.83 319.11 425.32 319.16 423.82 319.13C420.32 319.13 417.33 319.88 414.04 319.96C410.74 319.88 407.75 319.13 404.25 319.13C402.73 319.11 401.21 319.16 399.71 319.13L399.7 319.13Z" /></g><g ><path class="shp20" d="M399.7 318.02C398.05 318.02 396.51 318.19 395 318.37L394.51 319.22C396.94 319 399.21 318.57 401.65 318.51C404.94 318.59 407.93 319.34 411.44 319.34C412.95 319.35 414.46 319.31 415.96 319.34C419.46 319.34 422.45 318.59 425.74 318.51C429.04 318.59 432.05 319.34 435.55 319.34C437.06 319.34 438.73 319.32 440.08 319.34C443.58 319.34 446.55 318.59 449.84 318.51C453.13 318.59 456.11 319.34 459.61 319.34C461.14 319.35 462.64 319.31 464.15 319.34C467.65 319.34 470.64 318.59 473.94 318.51C477.24 318.59 480.22 319.34 483.72 319.34C485.24 319.35 486.75 319.31 488.25 319.34C491.75 319.34 494.73 318.59 498.02 318.51C500.57 318.57 502.94 319.03 505.5 319.23L504.99 318.34C503.59 318.17 502.15 318.02 500.62 318.02C499.09 318 497.59 318.05 496.07 318.02C492.57 318.02 489.6 318.77 486.31 318.85C483.01 318.77 480.03 318.02 476.52 318.02C475.01 318 473.49 318.05 472 318.02C468.5 318.02 465.5 318.77 462.21 318.85C458.92 318.77 455.93 318.02 452.43 318.02C450.91 318 449.39 318.05 447.88 318.02C444.38 318.02 441.41 318.77 438.12 318.85C434.82 318.77 431.85 318.02 428.35 318.02C426.83 318 425.32 318.05 423.82 318.02C420.32 318.02 417.33 318.77 414.04 318.85C410.74 318.77 407.75 318.02 404.25 318.02C402.73 318 401.21 318.05 399.71 318.02L399.7 318.02Z" /><path class="shp21" d="M399.7 316.91C398.05 316.91 396.51 317.07 395 317.26L394.51 318.11C396.94 317.89 399.21 317.46 401.65 317.4C404.94 317.48 407.93 318.23 411.44 318.23C412.95 318.24 414.46 318.2 415.96 318.23C419.46 318.23 422.45 317.48 425.74 317.4C429.04 317.48 432.05 318.23 435.55 318.23C437.06 318.23 438.73 318.2 440.08 318.23C443.58 318.23 446.55 317.48 449.84 317.4C453.13 317.48 456.11 318.23 459.61 318.23C461.14 318.24 462.64 318.2 464.15 318.23C467.65 318.23 470.64 317.48 473.94 317.4C477.24 317.48 480.22 318.23 483.72 318.23C485.24 318.24 486.75 318.2 488.25 318.23C491.75 318.23 494.73 317.48 498.02 317.4C500.57 317.46 502.94 317.91 505.5 318.12L504.99 317.23C503.59 317.06 502.15 316.91 500.62 316.91C499.09 316.89 497.59 316.94 496.07 316.91C492.57 316.91 489.6 317.65 486.31 317.74C483.01 317.66 480.03 316.91 476.52 316.91C475.01 316.89 473.49 316.94 472 316.91C468.5 316.91 465.5 317.66 462.21 317.74C458.92 317.66 455.93 316.91 452.43 316.91C450.91 316.89 449.39 316.94 447.88 316.91C444.38 316.91 441.41 317.66 438.12 317.74C434.82 317.66 431.85 316.91 428.35 316.91C426.83 316.89 425.32 316.94 423.82 316.91C420.32 316.91 417.33 317.66 414.04 317.74C410.74 317.66 407.75 316.91 404.25 316.91C402.73 316.89 401.21 316.94 399.71 316.91L399.7 316.91Z" /><path class="shp22" d="M399.7 315.79C398.05 315.79 396.51 315.96 395 316.14L394.51 316.99C396.94 316.77 399.21 316.34 401.65 316.28C404.94 316.36 407.93 317.11 411.44 317.11C412.95 317.12 414.46 317.08 415.96 317.11C419.46 317.11 422.45 316.36 425.74 316.28C429.04 316.36 432.05 317.11 435.55 317.11C437.06 317.11 438.73 317.09 440.08 317.11C443.58 317.11 446.55 316.36 449.84 316.28C453.13 316.36 456.11 317.11 459.61 317.11C461.14 317.12 462.64 317.08 464.15 317.11C467.65 317.11 470.64 316.36 473.94 316.28C477.24 316.36 480.22 317.11 483.72 317.11C485.24 317.12 486.75 317.08 488.25 317.11C491.75 317.11 494.73 316.36 498.02 316.28C500.57 316.34 502.94 316.8 505.5 317L504.99 316.11C503.59 315.94 502.15 315.79 500.62 315.79C499.09 315.77 497.59 315.82 496.07 315.79C492.57 315.79 489.6 316.54 486.31 316.62C483.01 316.54 480.03 315.79 476.52 315.79C475.01 315.77 473.49 315.82 472 315.79C468.5 315.79 465.5 316.54 462.21 316.62C458.92 316.54 455.93 315.79 452.43 315.79C450.91 315.77 449.39 315.82 447.88 315.79C444.38 315.79 441.41 316.54 438.12 316.62C434.82 316.54 431.85 315.79 428.35 315.79C426.83 315.77 425.32 315.82 423.82 315.79C420.32 315.79 417.33 316.54 414.04 316.62C410.74 316.54 407.75 315.79 404.25 315.79C402.73 315.77 401.21 315.82 399.71 315.79L399.7 315.79Z" /></g><g ><path class="shp23" d="M399.7 314.67C398.05 314.67 396.51 314.84 395 315.03L394.51 315.87C396.94 315.66 399.21 315.22 401.65 315.16C404.94 315.24 407.93 315.99 411.44 315.99C412.95 316.01 414.46 315.96 415.96 315.99C419.46 315.99 422.45 315.24 425.74 315.16C429.04 315.24 432.05 315.99 435.55 315.99C437.06 316 438.73 315.97 440.08 315.99C443.58 315.99 446.55 315.24 449.84 315.16C453.13 315.24 456.11 315.99 459.61 315.99C461.14 316.01 462.64 315.96 464.15 315.99C467.65 315.99 470.64 315.24 473.94 315.16C477.24 315.24 480.22 315.99 483.72 315.99C485.24 316.01 486.75 315.96 488.25 315.99C491.75 315.99 494.73 315.24 498.02 315.16C500.57 315.23 502.94 315.68 505.5 315.89L504.99 314.99C503.59 314.83 502.15 314.67 500.62 314.67C499.09 314.65 497.59 314.7 496.07 314.67C492.57 314.67 489.6 315.42 486.31 315.5C483.01 315.42 480.03 314.67 476.52 314.67C475.01 314.65 473.49 314.7 472 314.67C468.5 314.67 465.5 315.42 462.21 315.5C458.92 315.42 455.93 314.67 452.43 314.67C450.91 314.65 449.39 314.7 447.88 314.67C444.38 314.67 441.41 315.42 438.12 315.5C434.82 315.42 431.85 314.67 428.35 314.67C426.83 314.65 425.32 314.7 423.82 314.67C420.32 314.67 417.33 315.42 414.04 315.5C410.74 315.42 407.75 314.67 404.25 314.67C402.73 314.65 401.21 314.7 399.71 314.67L399.7 314.67Z" /><path class="shp24" d="M399.7 313.56C398.05 313.56 396.51 313.73 395 313.91L394.51 314.76C396.94 314.54 399.21 314.11 401.65 314.05C404.94 314.13 407.93 314.88 411.44 314.88C412.95 314.89 414.46 314.85 415.96 314.88C419.46 314.88 422.45 314.13 425.74 314.05C429.04 314.13 432.05 314.88 435.55 314.88C437.06 314.88 438.73 314.86 440.08 314.88C443.58 314.88 446.55 314.13 449.84 314.05C453.13 314.13 456.11 314.88 459.61 314.88C461.14 314.89 462.64 314.85 464.15 314.88C467.65 314.88 470.64 314.13 473.94 314.05C477.24 314.13 480.22 314.88 483.72 314.88C485.24 314.89 486.75 314.85 488.25 314.88C491.75 314.88 494.73 314.13 498.02 314.05C500.57 314.11 502.94 314.57 505.5 314.77L504.99 313.88C503.59 313.71 502.15 313.56 500.62 313.56C499.09 313.54 497.59 313.59 496.07 313.56C492.57 313.56 489.6 314.31 486.31 314.39C483.01 314.31 480.03 313.56 476.52 313.56C475.01 313.54 473.49 313.59 472 313.56C468.5 313.56 465.5 314.31 462.21 314.39C458.92 314.31 455.93 313.56 452.43 313.56C450.91 313.54 449.39 313.59 447.88 313.56C444.38 313.56 441.41 314.31 438.12 314.39C434.82 314.31 431.85 313.56 428.35 313.56C426.83 313.54 425.32 313.59 423.82 313.56C420.32 313.56 417.33 314.31 414.04 314.39C410.74 314.31 407.75 313.56 404.25 313.56C402.73 313.54 401.21 313.59 399.71 313.56L399.7 313.56Z" /><path class="shp25" d="M399.7 312.44C398.05 312.44 396.51 312.61 395 312.8L394.51 313.64C396.94 313.43 399.21 312.99 401.65 312.93C404.94 313.01 407.93 313.76 411.44 313.76C412.95 313.78 414.46 313.73 415.96 313.76C419.46 313.76 422.45 313.01 425.74 312.93C429.04 313.01 432.05 313.76 435.55 313.76C437.06 313.77 438.73 313.74 440.08 313.76C443.58 313.76 446.55 313.01 449.84 312.93C453.13 313.01 456.11 313.76 459.61 313.76C461.14 313.78 462.64 313.73 464.15 313.76C467.65 313.76 470.64 313.01 473.94 312.93C477.24 313.01 480.22 313.76 483.72 313.76C485.24 313.78 486.75 313.73 488.25 313.76C491.75 313.76 494.73 313.01 498.02 312.93C500.57 313 502.94 313.45 505.5 313.66L504.99 312.76C503.59 312.6 502.15 312.44 500.62 312.44C499.09 312.42 497.59 312.47 496.07 312.44C492.57 312.44 489.6 313.19 486.31 313.27C483.01 313.19 480.03 312.44 476.52 312.44C475.01 312.42 473.49 312.47 472 312.44C468.5 312.44 465.5 313.19 462.21 313.27C458.92 313.19 455.93 312.44 452.43 312.44C450.91 312.42 449.39 312.47 447.88 312.44C444.38 312.44 441.41 313.19 438.12 313.27C434.82 313.19 431.85 312.44 428.35 312.44C426.83 312.42 425.32 312.47 423.82 312.44C420.32 312.44 417.33 313.19 414.04 313.27C410.74 313.19 407.75 312.44 404.25 312.44C402.73 312.42 401.21 312.47 399.71 312.44L399.7 312.44Z" /></g><path fill-rule="evenodd" class="shp26" d="M496.77 307.46L496.9 307.67L403.11 307.67L403.23 307.46L496.77 307.46ZM496.99 307.84L497.12 308.06L402.88 308.06L403.01 307.84L496.99 307.84ZM497.19 308.18L497.4 308.54L402.61 308.54L402.81 308.18L497.19 308.18ZM402.49 308.73L497.51 308.73L497.76 309.17L402.24 309.17L402.49 308.73L402.49 308.73ZM497.91 309.42L498.16 309.86L401.84 309.86L402.09 309.42L497.91 309.42ZM401.7 310.11L498.31 310.11L498.56 310.54L401.45 310.54L401.7 310.11ZM498.71 310.81L498.96 311.24L401.05 311.24L401.3 310.81L498.71 310.81ZM400.87 311.55L499.14 311.55L499.44 312.08L400.56 312.08L400.87 311.55ZM411.14 312.29C411.14 312.29 410.81 312.95 407.36 312.29L411.14 312.29ZM492.64 312.29C489.19 312.95 488.86 312.29 488.86 312.29L492.64 312.29Z" /></g><g ><g ><path class="shp27" d="M480.63 297.04C478.92 297.04 478.4 297.91 478.4 297.91C475.66 308.48 466.59 319.24 455.8 319.24L447.72 319.24L447.72 330.01C447.72 330.01 447.73 330.01 447.74 330.01L509.23 330.01L503.05 319.05C493.34 317.6 485.41 307.68 482.88 297.91C482.88 297.91 482.34 297.04 480.63 297.04L480.63 297.04Z" /><path class="shp28" d="M480.63 297.46C479.85 297.46 479.37 297.64 479.09 297.82C478.83 297.99 478.78 298.1 478.77 298.11C478.77 298.12 478.76 298.12 478.75 298.12C477.35 303.45 474.4 308.79 470.42 312.83C466.41 316.9 461.35 319.66 455.81 319.66L448.14 319.66L448.14 329.58L509 329.58L503.32 319.53C498.63 318.91 494.34 316.36 490.86 312.83C486.87 308.79 483.93 303.45 482.52 298.12L482.51 298.11C482.5 298.1 482.44 298 482.17 297.84C481.89 297.66 481.42 297.46 480.63 297.46L480.63 297.46Z" /><path class="shp29" d="M480.63 297.46C480.78 297.46 480.91 297.49 481.04 297.5C481.06 300.52 481.04 305.61 481.04 308.3C481.01 310.64 480.21 312.52 479.02 314.74C478.48 316.29 478.04 315.7 476.67 317.6C474.84 318.25 473.49 318.51 471.54 318.81C469.02 319.21 463.41 319.56 460.65 318.95C464.29 317.88 467.61 315.68 470.42 312.83C470.61 312.64 470.79 312.45 470.98 312.25C471.16 312.06 471.34 311.86 471.52 311.66C471.69 311.46 471.87 311.26 472.04 311.05C472.21 310.85 472.38 310.64 472.55 310.43C472.83 310.08 473.1 309.72 473.37 309.36C473.64 308.99 473.89 308.62 474.14 308.25C474.4 307.88 474.64 307.5 474.88 307.11C475.11 306.73 475.34 306.34 475.56 305.95C475.91 305.32 476.25 304.7 476.56 304.06C477.02 303.09 477.44 302.11 477.81 301.12C477.93 300.79 478.05 300.45 478.16 300.12C478.38 299.46 478.58 298.79 478.75 298.12C478.76 298.12 478.77 298.11 478.77 298.11C478.78 298.1 478.83 297.99 479.09 297.82C479.23 297.74 479.42 297.65 479.67 297.58L479.68 297.58C479.94 297.52 480.24 297.47 480.63 297.47L480.63 297.46Z" /><path class="shp30" d="M479.94 298.9C479.53 304.94 477.66 312.09 473.29 316.71C471.69 318.05 469.63 319.26 467.65 318.97C474.42 313.46 478.53 305.02 479.94 298.9Z" /><path class="shp31" d="M474.49 309.28C473.49 312 469.71 316.03 465.65 319.33C464.5 319.36 463.89 319.43 462.85 319.36C465.32 319.14 471.07 314.28 474.49 309.28Z" /></g><g ><path class="shp32" d="M465.29 297.04C463.58 297.04 463.06 297.91 463.06 297.91C460.32 308.48 451.25 319.24 440.46 319.24L432.38 319.24L432.38 330.01C432.38 330.01 432.39 330.01 432.39 330.01L493.89 330.01L487.71 319.05C478 317.6 470.07 307.68 467.54 297.91C467.54 297.91 467 297.04 465.29 297.04L465.29 297.04Z" /><path class="shp28" d="M465.29 297.46C464.51 297.46 464.03 297.64 463.75 297.82C463.49 297.99 463.44 298.1 463.43 298.11C463.43 298.12 463.42 298.12 463.41 298.12C462.01 303.45 459.06 308.79 455.08 312.83C451.07 316.9 446.01 319.66 440.47 319.66L432.8 319.66L432.8 329.58L493.65 329.58L487.98 319.53C483.29 318.91 479 316.36 475.52 312.83C471.53 308.79 468.59 303.45 467.18 298.12L467.17 298.11C467.16 298.1 467.1 298 466.83 297.84C466.55 297.66 466.07 297.46 465.29 297.46L465.29 297.46Z" /><path class="shp29" d="M465.29 297.46C465.44 297.46 465.57 297.49 465.69 297.5C465.72 300.52 465.69 305.61 465.69 308.3C465.67 310.64 464.86 312.52 463.68 314.74C463.14 316.29 462.7 315.7 461.33 317.6C459.5 318.25 458.15 318.51 456.19 318.81C453.68 319.21 448.07 319.56 445.31 318.95C448.95 317.88 452.27 315.68 455.08 312.83C455.27 312.64 455.45 312.45 455.63 312.25C455.82 312.06 456 311.86 456.18 311.66C456.35 311.46 456.53 311.26 456.7 311.05C456.87 310.85 457.04 310.64 457.21 310.43C457.49 310.08 457.76 309.72 458.03 309.36C458.29 308.99 458.55 308.62 458.8 308.25C459.06 307.88 459.3 307.5 459.53 307.11C459.77 306.73 460 306.34 460.22 305.95C460.57 305.32 460.9 304.7 461.22 304.06C461.68 303.09 462.1 302.11 462.47 301.12C462.59 300.79 462.71 300.45 462.82 300.12C463.04 299.46 463.24 298.79 463.41 298.12C463.42 298.12 463.43 298.11 463.43 298.11C463.44 298.1 463.49 297.99 463.75 297.82C463.89 297.74 464.08 297.65 464.33 297.58L464.34 297.58C464.59 297.52 464.9 297.47 465.29 297.47L465.29 297.46Z" /><path class="shp30" d="M464.6 298.9C464.18 304.94 462.32 312.09 457.95 316.71C456.35 318.05 454.29 319.26 452.31 318.97C459.08 313.46 463.19 305.02 464.6 298.9Z" /><path class="shp31" d="M459.15 309.28C458.15 312 454.37 316.03 450.31 319.33C449.16 319.36 448.55 319.43 447.51 319.36C449.98 319.14 455.73 314.28 459.15 309.28Z" /></g><g ><path class="shp33" d="M452.22 297.91C454.95 308.49 464.01 319.24 474.8 319.24L482.89 319.24L482.89 330.01C482.89 330.02 482.88 330.01 482.87 330.01L417.08 330.01C417.07 330.01 417.06 330.02 417.06 330.01L417.06 319.24L425.13 319.24C435.93 319.24 445 308.49 447.73 297.91C447.73 297.91 448.27 297.05 449.98 297.05C451.69 297.05 452.22 297.91 452.22 297.91L452.22 297.91Z" /><path class="shp28" d="M449.98 297.46C450.76 297.46 451.23 297.66 451.51 297.84C451.78 298 451.85 298.1 451.85 298.11L451.87 298.12C453.27 303.45 456.22 308.79 460.2 312.83C464.22 316.9 469.29 319.66 474.83 319.66L482.47 319.66L482.47 329.58L417.49 329.58L417.49 319.66L425.16 319.66C430.7 319.66 435.75 316.9 439.77 312.83C443.75 308.79 446.7 303.45 448.1 298.12C448.1 298.12 448.11 298.11 448.12 298.11C448.12 298.1 448.17 297.98 448.44 297.82C448.72 297.65 449.19 297.46 449.98 297.46L449.98 297.46Z" /><path class="shp29" d="M449.26 297.53C449.24 297.53 449.22 297.54 449.2 297.54C449.18 297.55 449.16 297.55 449.14 297.56C449.12 297.56 449.1 297.56 449.08 297.57C449.06 297.57 449.04 297.58 449.02 297.59L449 297.58C448.95 297.6 448.9 297.61 448.85 297.63C448.8 297.64 448.76 297.66 448.71 297.68C448.66 297.7 448.61 297.72 448.57 297.75C448.52 297.77 448.48 297.79 448.43 297.82C448.17 297.99 448.12 298.09 448.11 298.11C448.11 298.11 448.09 298.12 448.09 298.12C447.92 298.79 447.72 299.46 447.5 300.12C447.39 300.45 447.27 300.78 447.14 301.12C446.77 302.11 446.36 303.09 445.89 304.06C445.82 304.22 445.74 304.38 445.66 304.54C445.58 304.7 445.49 304.85 445.41 305.01C445.33 305.17 445.24 305.33 445.16 305.48C445.07 305.64 444.99 305.8 444.9 305.95C444.68 306.34 444.45 306.73 444.21 307.12C443.98 307.5 443.73 307.88 443.48 308.25C443.23 308.62 442.97 308.99 442.71 309.36C442.44 309.72 442.17 310.08 441.89 310.43C441.72 310.64 441.55 310.85 441.38 311.05C441.21 311.26 441.03 311.46 440.85 311.66C440.68 311.86 440.5 312.06 440.31 312.25C440.13 312.45 439.94 312.64 439.76 312.83C436.95 315.68 433.63 317.88 429.99 318.95C432.75 319.56 434.02 318.89 436.54 318.5C438.49 318.19 440.75 317.93 442.58 317.28C443.94 315.38 443.48 315.98 444.03 314.42C445.21 312.21 446.93 310.2 447.36 307.74C448.98 304.72 449.26 299.13 449.26 297.53L449.26 297.53Z" /><path class="shp30" d="M449.27 298.9C448.86 304.94 447 312.09 442.63 316.71C441.02 318.05 438.97 319.26 436.98 318.97C443.75 313.46 447.87 305.02 449.27 298.9Z" /><path class="shp31" d="M443.83 309.28C442.83 312 439.04 316.03 434.99 319.33C433.84 319.36 433.23 319.43 432.19 319.36C434.66 319.14 440.41 314.28 443.83 309.28L443.83 309.28Z" /><path class="shp29" d="M450.95 297.58L450.97 297.58C451.21 297.65 451.4 297.74 451.54 297.82C451.8 297.99 451.86 298.09 451.86 298.11C451.86 298.11 451.88 298.12 451.88 298.12C452.05 298.79 452.25 299.46 452.47 300.12C452.58 300.45 452.7 300.78 452.83 301.11C453.2 302.1 453.61 303.09 454.08 304.06C454.39 304.7 454.72 305.32 455.08 305.95C455.3 306.34 455.52 306.73 455.76 307.12C456 307.5 456.24 307.88 456.49 308.25C456.74 308.62 457 308.99 457.27 309.36C457.53 309.72 457.8 310.08 458.09 310.43C458.25 310.64 458.42 310.85 458.59 311.05C458.77 311.26 458.94 311.46 459.12 311.66C459.3 311.86 459.48 312.06 459.66 312.25C459.84 312.45 460.03 312.64 460.22 312.83C463.02 315.68 466.34 318.28 469.98 319.34C462.74 319.37 459.59 318.71 456.96 315.33C454.33 311.94 453.36 310.46 452.82 308.39C452.29 306.32 450.8 301.82 450.95 297.58L450.95 297.58Z" /><path class="shp30" d="M451.48 298.9C451.89 304.94 453.7 310.91 458.06 315.53C459.67 316.86 461.72 318.08 463.71 317.78C456.37 312.78 452.88 305.02 451.48 298.9L451.48 298.9Z" /></g><g ><path class="shp34" d="M434.75 297.04C433.04 297.04 432.5 297.91 432.5 297.91C429.98 307.65 420.68 320.22 411 321.72L406.21 330.01L455.23 330.01L455.23 318.66C446.4 316.29 439.34 307.03 436.98 297.91C436.98 297.91 436.46 297.04 434.75 297.04L434.75 297.04Z" /><path class="shp28" d="M434.75 297.46C433.97 297.46 433.49 297.66 433.21 297.84C432.94 298 432.88 298.1 432.87 298.11L432.86 298.12C431.45 303.45 428.18 308.83 424.78 313.11C421.37 317.4 415.06 321.73 410.73 322.19L406.45 329.58L454.51 329.58L454.51 318.89C450.96 317.8 447.71 315.62 444.96 312.83C440.98 308.79 438.03 303.45 436.63 298.12C436.62 298.12 436.61 298.11 436.61 298.11C436.6 298.1 436.55 297.98 436.29 297.82C436.01 297.65 435.53 297.46 434.75 297.46L434.75 297.46Z" /><path class="shp35" d="M433.44 298.9C432.83 307.95 427.79 319.36 422.11 321.32C420.25 321.96 417.01 322.19 415.88 322.33C425.83 317.6 431.71 306.48 433.45 298.9L433.44 298.9Z" /><path class="shp29" d="M434.75 297.46C434.6 297.46 434.47 297.49 434.34 297.5C434.32 300.52 434.34 305.61 434.34 308.3C434.37 310.64 435.17 312.52 436.35 314.74C436.42 314.93 436.49 315.09 436.55 315.23C436.96 316.32 437.27 316.69 438.84 317.88C443.82 321.67 450.01 322.24 453.64 321.92C452.5 321.03 451.29 320.21 450.21 319.46C451.92 319.4 453.56 319.21 454.73 318.95C451.09 317.88 447.77 315.68 444.96 312.83C444.84 312.7 444.72 312.58 444.6 312.45C444.48 312.32 444.36 312.19 444.24 312.07C444.13 311.94 444.01 311.8 443.89 311.67C443.78 311.54 443.67 311.41 443.55 311.28C443.34 310.98 443.05 310.58 442.96 310.46C441.84 309.06 440.7 307.52 439.82 305.95C439.73 305.8 439.64 305.64 439.56 305.48C439.47 305.33 439.39 305.17 439.3 305.01C439.22 304.85 439.14 304.7 439.06 304.54C438.98 304.38 438.9 304.22 438.82 304.06C438.67 303.74 438.52 303.42 438.37 303.09C438.23 302.77 438.09 302.44 437.96 302.11C437.82 301.78 437.69 301.45 437.57 301.12C437.45 300.79 437.33 300.46 437.21 300.12C437.16 299.95 437.11 299.79 437.05 299.62C437 299.46 436.95 299.29 436.9 299.13C436.85 298.96 436.8 298.79 436.76 298.63C436.71 298.46 436.67 298.29 436.62 298.12C436.62 298.12 436.61 298.11 436.6 298.11C436.6 298.1 436.55 297.99 436.28 297.82C436.24 297.79 436.19 297.77 436.15 297.75C436.1 297.72 436.05 297.7 436 297.68C435.96 297.66 435.91 297.64 435.86 297.63C435.81 297.61 435.76 297.6 435.71 297.58L435.69 297.58C435.61 297.56 435.54 297.55 435.46 297.53C435.38 297.52 435.3 297.5 435.22 297.49C435.14 297.48 435.06 297.48 434.98 297.47C434.91 297.47 434.83 297.46 434.75 297.47L434.75 297.46Z" /><path class="shp36" d="M435.45 298.9C435.86 304.94 437.72 312.09 442.09 316.71C443.7 318.05 445.75 319.26 447.74 318.97C440.97 313.46 436.85 305.02 435.45 298.9Z" /><path class="shp31" d="M439.61 307.25C441.98 313.08 447.98 318.54 454.16 322.2C455.31 322.24 455.65 322.2 456.69 322.14C452.27 319.77 445.15 316.39 439.61 307.25Z" /></g><g ><path class="shp37" d="M419.32 297.04C417.61 297.04 417.07 297.91 417.07 297.91C414.55 307.65 405.25 320.22 395.57 321.72L390.78 330.01L439.8 330.01L439.8 318.66C430.97 316.29 423.91 307.03 421.55 297.91C421.55 297.91 421.03 297.04 419.32 297.04L419.32 297.04Z" /><path class="shp28" d="M419.32 297.46C418.54 297.46 418.06 297.66 417.78 297.84C417.51 298 417.45 298.1 417.44 298.11L417.43 298.12C416.02 303.45 412.75 308.83 409.35 313.11C405.94 317.4 399.63 321.73 395.3 322.19L391.02 329.58L439.08 329.58L439.08 318.89C435.53 317.8 432.28 315.62 429.53 312.83C425.55 308.79 422.6 303.45 421.2 298.12C421.19 298.12 421.18 298.11 421.18 298.11C421.17 298.1 421.12 297.98 420.86 297.82C420.58 297.65 420.1 297.46 419.32 297.46L419.32 297.46Z" /><path class="shp35" d="M418.01 298.9C417.4 307.95 412.36 319.36 406.68 321.32C404.82 321.96 401.58 322.19 400.45 322.33C410.4 317.6 416.28 306.48 418.02 298.9L418.01 298.9Z" /><path class="shp29" d="M419.32 297.46C419.17 297.46 419.04 297.49 418.91 297.5C418.89 300.52 418.91 305.61 418.91 308.3C418.94 310.64 419.74 312.52 420.92 314.74C420.99 314.93 421.06 315.09 421.12 315.23C421.53 316.32 421.84 316.69 423.41 317.88C428.39 321.67 434.58 322.24 438.21 321.92C437.07 321.03 435.86 320.21 434.78 319.46C436.49 319.4 438.13 319.21 439.3 318.95C435.66 317.88 432.34 315.68 429.53 312.83C429.41 312.7 429.29 312.58 429.17 312.45C429.05 312.32 428.93 312.19 428.81 312.07C428.7 311.94 428.58 311.8 428.46 311.67C428.35 311.54 428.24 311.41 428.12 311.28C427.91 310.98 427.62 310.58 427.53 310.46C426.41 309.06 425.27 307.52 424.39 305.95C424.3 305.8 424.21 305.64 424.13 305.48C424.04 305.33 423.96 305.17 423.87 305.01C423.79 304.85 423.71 304.7 423.63 304.54C423.55 304.38 423.47 304.22 423.39 304.06C423.24 303.74 423.09 303.42 422.94 303.09C422.8 302.77 422.66 302.44 422.53 302.11C422.39 301.78 422.26 301.45 422.14 301.12C422.02 300.79 421.9 300.46 421.78 300.12C421.73 299.95 421.68 299.79 421.62 299.62C421.57 299.46 421.52 299.29 421.47 299.13C421.42 298.96 421.37 298.79 421.33 298.63C421.28 298.46 421.24 298.29 421.19 298.12C421.19 298.12 421.18 298.11 421.17 298.11C421.17 298.1 421.12 297.99 420.85 297.82C420.81 297.79 420.76 297.77 420.72 297.75C420.67 297.72 420.62 297.7 420.57 297.68C420.53 297.66 420.48 297.64 420.43 297.63C420.38 297.61 420.33 297.6 420.28 297.58L420.26 297.58C420.18 297.56 420.11 297.55 420.03 297.53C419.95 297.52 419.87 297.5 419.79 297.49C419.71 297.48 419.63 297.48 419.55 297.47C419.48 297.47 419.4 297.46 419.32 297.47L419.32 297.46Z" /><path class="shp30" d="M420.02 298.9C420.43 304.94 422.29 312.09 426.66 316.71C428.27 318.05 430.32 319.26 432.31 318.97C425.54 313.46 421.42 305.02 420.02 298.9Z" /><path class="shp31" d="M424.18 307.25C426.55 313.08 432.55 318.54 438.73 322.2C439.88 322.24 440.22 322.2 441.26 322.14C436.84 319.77 429.72 316.39 424.18 307.25Z" /></g></g><g ><path class="shp1" d="M506.5 324.69C505.93 324.89 502.08 324.5 500.07 324.65L498.79 324.98C497.66 324.98 496.55 325.01 495.46 324.98C491.86 324.98 488.81 325.93 485.38 325.93C481.95 325.93 478.91 324.98 475.31 324.98C474.19 324.98 473.07 325.01 471.98 324.98C468.37 324.98 465.33 325.93 461.9 325.93C458.47 325.93 455.43 324.98 451.83 324.98C450.69 324.98 449.58 325.01 448.48 324.98C444.88 324.98 441.85 325.93 438.42 325.93C434.99 325.93 431.96 324.98 428.36 324.98C428.09 324.98 427.85 324.99 427.59 325C427.41 325 427.21 324.98 427.03 324.98C426.91 324.98 426.81 324.98 426.69 324.98C426.57 324.98 426.45 324.98 426.33 324.98C426.15 324.98 425.99 325 425.81 325C425.55 324.99 425.3 324.98 425.03 324.98C421.43 324.98 418.39 325.93 414.96 325.93C411.53 325.93 408.48 324.98 404.88 324.98C404.62 324.98 404.36 324.99 404.1 325C403.92 325 403.77 324.98 403.58 324.98C403.46 324.98 403.33 324.98 403.21 324.98C403.09 324.98 402.97 324.98 402.85 324.98C402.67 324.98 402.49 325 402.31 325C402.05 324.99 401.8 324.98 401.54 324.98C398.66 324.98 395.32 325.59 392.6 325.83L386.33 336.69L449.3 336.69L513.67 336.69L506.5 324.69Z" /><path class="shp38" d="M497.99 323.11C497.79 323.11 497.6 323.11 497.4 323.12C494.16 323.21 491.83 324.23 486.2 324.23C480.56 324.23 479.98 323.21 473.61 323.35C467.67 323.48 465.17 324.62 461.94 324.57C458.72 324.53 453.47 323.87 449.43 324.3C445.4 324.72 440.61 325.58 437.46 325.59C433.55 325.57 429.64 324.86 425.55 325.26C421.47 325.67 419.56 326.76 414.49 326.75C410.14 326.74 405.41 326.05 401.75 326.05C398.31 326.06 394.48 327.01 391.66 327.5L390.82 328.96C393.06 328.7 399.37 327.74 401.62 327.68C403.96 327.62 412.34 328.17 416.95 328.01C421.57 327.85 422.11 326.84 427.57 326.84C431.37 326.84 434.24 327.23 438.14 327.23C440.57 327.23 442.78 325.99 446.48 325.99C447.42 325.97 448.35 325.93 449.27 325.9C452.39 325.39 457.66 325.95 461.32 326.13C464.64 326.31 466.78 325.52 470.24 325.4C471.73 325.34 473.23 325.34 474.71 325.26C478.17 325.14 481.13 325.9 484.39 325.88C487.64 325.68 490.79 324.96 494.25 324.84C495.76 324.77 497.25 324.77 498.74 324.69C501.03 324.62 504.58 324.77 507.01 325.2L506.17 323.75C503.79 323.67 500.86 323.11 497.99 323.11L497.99 323.11Z" /><g ><path class="shp39" d="M400.31 334.75C396.86 334.75 393.91 335.6 390.66 335.69C389.45 335.66 388.29 335.51 387.13 335.35L386.63 336.2C387.12 336.23 387.61 336.26 388.12 336.26C389.63 336.28 391.11 336.22 392.6 336.26C396.05 336.26 398.98 335.41 402.23 335.32C405.49 335.41 408.44 336.26 411.9 336.26C413.4 336.28 414.89 336.22 416.37 336.26C419.83 336.26 422.78 335.41 426.04 335.32C429.29 335.41 432.27 336.26 435.72 336.26C437.22 336.28 438.72 336.22 440.19 336.26C443.65 336.26 446.6 335.41 449.85 335.32C453.1 335.41 456.04 336.26 459.5 336.26C461.01 336.28 462.49 336.22 463.99 336.26C467.44 336.26 470.39 335.41 473.65 335.32C476.91 335.41 479.86 336.26 483.32 336.26C484.82 336.28 486.31 336.22 487.79 336.26C491.25 336.26 494.19 335.41 497.44 335.32C500.7 335.41 503.65 336.26 507.11 336.26C508.61 336.28 510.11 336.22 511.58 336.26C512.19 336.26 512.78 336.23 513.36 336.18L512.9 335.39C511.83 335.53 510.77 335.66 509.66 335.69C506.41 335.6 503.47 334.75 500.01 334.75C498.5 334.73 497.01 334.78 495.52 334.75C492.06 334.75 489.12 335.6 485.87 335.69C482.62 335.6 479.67 334.75 476.21 334.75C474.71 334.73 473.21 334.78 471.73 334.75C468.28 334.75 465.32 335.6 462.07 335.69C458.81 335.6 455.86 334.75 452.4 334.75C450.9 334.73 449.4 334.78 447.91 334.75C444.45 334.75 441.51 335.6 438.26 335.69C435.01 335.6 432.07 334.75 428.61 334.75C427.1 334.73 425.62 334.78 424.14 334.75C420.68 334.75 417.73 335.6 414.47 335.69C411.22 335.6 408.26 334.75 404.8 334.75C403.3 334.73 401.8 334.78 400.31 334.75L400.31 334.75Z" /><path class="shp40" d="M400.31 333.46C396.86 333.46 393.91 334.31 390.66 334.4C389.45 334.37 388.29 334.22 387.13 334.06L386.63 334.91C387.12 334.94 387.61 334.97 388.12 334.97C389.63 334.99 391.11 334.94 392.6 334.97C396.05 334.97 398.98 334.12 402.23 334.03C405.49 334.12 408.44 334.97 411.9 334.97C413.4 334.99 414.89 334.94 416.37 334.97C419.83 334.97 422.78 334.12 426.04 334.03C429.29 334.12 432.27 334.97 435.72 334.97C437.22 334.99 438.72 334.94 440.19 334.97C443.65 334.97 446.6 334.12 449.85 334.03C453.1 334.12 456.04 334.97 459.5 334.97C461.01 334.99 462.49 334.94 463.99 334.97C467.44 334.97 470.39 334.12 473.65 334.03C476.91 334.12 479.86 334.97 483.32 334.97C484.82 334.99 486.31 334.94 487.79 334.97C491.25 334.97 494.19 334.12 497.44 334.03C500.7 334.12 503.65 334.97 507.11 334.97C508.61 334.99 510.11 334.94 511.58 334.97C512.19 334.97 512.78 334.94 513.36 334.89L512.9 334.1C511.83 334.24 510.77 334.37 509.66 334.4C506.41 334.31 503.47 333.46 500.01 333.46C498.5 333.44 497.01 333.49 495.52 333.46C492.06 333.46 489.12 334.31 485.87 334.4C482.62 334.31 479.67 333.46 476.21 333.46C474.71 333.44 473.21 333.49 471.73 333.46C468.28 333.46 465.32 334.31 462.07 334.4C458.81 334.31 455.86 333.46 452.4 333.46C450.9 333.44 449.4 333.49 447.91 333.46C444.45 333.46 441.51 334.31 438.26 334.4C435.01 334.31 432.07 333.46 428.61 333.46C427.1 333.44 425.62 333.49 424.14 333.46C420.68 333.46 417.73 334.31 414.47 334.4C411.22 334.31 408.26 333.46 404.8 333.46C403.3 333.44 401.8 333.49 400.31 333.46L400.31 333.46Z" /><path class="shp41" d="M400.31 332.17C396.86 332.17 393.91 333.03 390.66 333.12C389.45 333.08 388.29 332.94 387.13 332.77L386.63 333.62C387.12 333.65 387.61 333.69 388.12 333.69C389.63 333.7 391.11 333.65 392.6 333.69C396.05 333.69 398.98 332.83 402.23 332.74C405.49 332.83 408.44 333.69 411.9 333.69C413.4 333.7 414.89 333.65 416.37 333.69C419.83 333.69 422.78 332.83 426.04 332.74C429.29 332.83 432.27 333.69 435.72 333.69C437.22 333.7 438.72 333.65 440.19 333.69C443.65 333.69 446.6 332.83 449.85 332.74C453.1 332.83 456.04 333.69 459.5 333.69C461.01 333.7 462.49 333.65 463.99 333.69C467.44 333.69 470.39 332.83 473.65 332.74C476.91 332.83 479.86 333.69 483.32 333.69C484.82 333.7 486.31 333.65 487.79 333.69C491.25 333.69 494.19 332.83 497.44 332.74C500.7 332.83 503.65 333.69 507.11 333.69C508.61 333.7 510.11 333.65 511.58 333.69C512.19 333.69 512.78 333.65 513.36 333.61L512.9 332.81C511.83 332.96 510.77 333.09 509.66 333.12C506.41 333.03 503.47 332.17 500.01 332.17C498.5 332.15 497.01 332.2 495.52 332.17C492.06 332.17 489.12 333.03 485.87 333.12C482.62 333.03 479.67 332.17 476.21 332.17C474.71 332.15 473.21 332.2 471.73 332.17C468.28 332.17 465.32 333.03 462.07 333.12C458.81 333.03 455.86 332.17 452.4 332.17C450.9 332.15 449.4 332.2 447.91 332.17C444.45 332.17 441.51 333.03 438.26 333.12C435.01 333.03 432.07 332.17 428.61 332.17C427.1 332.15 425.62 332.2 424.14 332.17C420.68 332.17 417.73 333.03 414.47 333.12C411.22 333.03 408.26 332.17 404.8 332.17C403.3 332.15 401.8 332.2 400.31 332.17L400.31 332.17Z" /></g><g ><path class="shp42" d="M400.31 330.88C396.86 330.88 393.91 331.73 390.66 331.83C389.45 331.79 388.29 331.64 387.13 331.48L386.63 332.33C387.12 332.36 387.61 332.39 388.12 332.39C389.63 332.41 391.11 332.36 392.6 332.39C396.05 332.39 398.98 331.54 402.23 331.45C405.49 331.54 408.44 332.39 411.9 332.39C413.4 332.41 414.89 332.36 416.37 332.39C419.83 332.39 422.78 331.54 426.04 331.45C429.29 331.54 432.27 332.39 435.72 332.39C437.22 332.41 438.72 332.36 440.19 332.39C443.65 332.39 446.6 331.54 449.85 331.45C453.1 331.54 456.04 332.39 459.5 332.39C461.01 332.41 462.49 332.36 463.99 332.39C467.44 332.39 470.39 331.54 473.65 331.45C476.91 331.54 479.86 332.39 483.32 332.39C484.82 332.41 486.31 332.36 487.79 332.39C491.25 332.39 494.19 331.54 497.44 331.45C500.7 331.54 503.65 332.39 507.11 332.39C508.61 332.41 510.11 332.36 511.58 332.39C512.19 332.39 512.78 332.36 513.36 332.32L512.9 331.52C511.83 331.66 510.77 331.8 509.66 331.83C506.41 331.73 503.47 330.88 500.01 330.88C498.5 330.86 497.01 330.91 495.52 330.88C492.06 330.88 489.12 331.73 485.87 331.83C482.62 331.73 479.67 330.88 476.21 330.88C474.71 330.86 473.21 330.91 471.73 330.88C468.28 330.88 465.32 331.73 462.07 331.83C458.81 331.73 455.86 330.88 452.4 330.88C450.9 330.86 449.4 330.91 447.91 330.88C444.45 330.88 441.51 331.73 438.26 331.83C435.01 331.73 432.07 330.88 428.61 330.88C427.1 330.86 425.62 330.91 424.14 330.88C420.68 330.88 417.73 331.73 414.47 331.83C411.22 331.73 408.26 330.88 404.8 330.88C403.3 330.86 401.8 330.91 400.31 330.88L400.31 330.88Z" /><path class="shp43" d="M400.31 329.59C396.86 329.59 393.91 330.44 390.66 330.54C389.45 330.5 388.29 330.35 387.13 330.19L386.63 331.04C387.12 331.07 387.61 331.1 388.12 331.1C389.63 331.12 391.11 331.07 392.6 331.1C396.05 331.1 398.98 330.25 402.23 330.16C405.49 330.25 408.44 331.1 411.9 331.1C413.4 331.12 414.89 331.07 416.37 331.1C419.83 331.1 422.78 330.25 426.04 330.16C429.29 330.25 432.27 331.1 435.72 331.1C437.22 331.12 438.72 331.07 440.19 331.1C443.65 331.1 446.6 330.25 449.85 330.16C453.1 330.25 456.04 331.1 459.5 331.1C461.01 331.12 462.49 331.07 463.99 331.1C467.44 331.1 470.39 330.25 473.65 330.16C476.91 330.25 479.86 331.1 483.32 331.1C484.82 331.12 486.31 331.07 487.79 331.1C491.25 331.1 494.19 330.25 497.44 330.16C500.7 330.25 503.65 331.1 507.11 331.1C508.61 331.12 510.11 331.07 511.58 331.1C512.19 331.1 512.78 331.07 513.36 331.03L512.9 330.23C511.83 330.37 510.77 330.51 509.66 330.54C506.41 330.44 503.47 329.59 500.01 329.59C498.5 329.57 497.01 329.62 495.52 329.59C492.06 329.59 489.12 330.44 485.87 330.54C482.62 330.45 479.67 329.59 476.21 329.59C474.71 329.57 473.21 329.62 471.73 329.59C468.28 329.59 465.32 330.44 462.07 330.54C458.81 330.44 455.86 329.59 452.4 329.59C450.9 329.57 449.4 329.62 447.91 329.59C444.45 329.59 441.51 330.44 438.26 330.54C435.01 330.44 432.07 329.59 428.61 329.59C427.1 329.57 425.62 329.62 424.14 329.59C420.68 329.59 417.73 330.45 414.47 330.54C411.22 330.44 408.26 329.59 404.8 329.59C403.3 329.57 401.8 329.62 400.31 329.59L400.31 329.59Z" /><path class="shp44" d="M400.31 328.31C396.86 328.31 393.91 329.16 390.66 329.25C389.45 329.22 388.29 329.07 387.13 328.91L386.63 329.76C387.12 329.79 387.61 329.82 388.12 329.82C389.63 329.84 391.11 329.78 392.6 329.82C396.05 329.82 398.98 328.97 402.23 328.87C405.49 328.97 408.44 329.82 411.9 329.82C413.4 329.84 414.89 329.78 416.37 329.82C419.83 329.82 422.78 328.97 426.04 328.87C429.29 328.97 432.27 329.82 435.72 329.82C437.22 329.84 438.72 329.78 440.19 329.82C443.65 329.82 446.6 328.97 449.85 328.87C453.1 328.97 456.04 329.82 459.5 329.82C461.01 329.84 462.49 329.78 463.99 329.82C467.44 329.82 470.39 328.97 473.65 328.87C476.91 328.97 479.86 329.82 483.32 329.82C484.82 329.84 486.31 329.78 487.79 329.82C491.25 329.82 494.19 328.97 497.44 328.87C500.7 328.97 503.65 329.82 507.11 329.82C508.61 329.84 510.11 329.78 511.58 329.82C512.19 329.82 512.78 329.78 513.36 329.74L512.9 328.94C511.83 329.09 510.77 329.22 509.66 329.25C506.41 329.16 503.47 328.31 500.01 328.31C498.5 328.29 497.01 328.34 495.52 328.31C492.06 328.31 489.12 329.16 485.87 329.25C482.62 329.16 479.67 328.31 476.21 328.31C474.71 328.29 473.21 328.34 471.73 328.31C468.28 328.31 465.32 329.16 462.07 329.25C458.81 329.16 455.86 328.31 452.4 328.31C450.9 328.29 449.4 328.34 447.91 328.31C444.45 328.31 441.51 329.16 438.26 329.25C435.01 329.16 432.07 328.31 428.61 328.31C427.1 328.29 425.62 328.34 424.14 328.31C420.68 328.31 417.73 329.16 414.47 329.25C411.22 329.16 408.26 328.31 404.8 328.31C403.3 328.29 401.8 328.34 400.31 328.31L400.31 328.31Z" /></g><g ><path class="shp45" d="M400.31 327.02C396.86 327.02 393.91 327.87 390.66 327.96C389.45 327.93 388.29 327.78 387.13 327.62L386.63 328.47C387.12 328.5 387.61 328.53 388.12 328.53C389.63 328.55 391.11 328.5 392.6 328.53C396.05 328.53 398.98 327.68 402.23 327.59C405.49 327.68 408.44 328.53 411.9 328.53C413.4 328.55 414.89 328.5 416.37 328.53C419.83 328.53 422.78 327.68 426.04 327.59C429.29 327.68 432.27 328.53 435.72 328.53C437.22 328.55 438.72 328.5 440.19 328.53C443.65 328.53 446.6 327.68 449.85 327.59C453.1 327.68 456.04 328.53 459.5 328.53C461.01 328.55 462.49 328.5 463.99 328.53C467.44 328.53 470.39 327.68 473.65 327.59C476.91 327.68 479.86 328.53 483.32 328.53C484.82 328.55 486.31 328.5 487.79 328.53C491.25 328.53 494.19 327.68 497.44 327.59C500.7 327.68 503.65 328.53 507.11 328.53C508.61 328.55 510.11 328.5 511.58 328.53C512.19 328.53 512.78 328.5 513.36 328.45L512.9 327.66C511.83 327.8 510.77 327.93 509.66 327.96C506.41 327.87 503.47 327.02 500.01 327.02C498.5 327 497.01 327.05 495.52 327.02C492.06 327.02 489.12 327.87 485.87 327.96C482.62 327.87 479.67 327.02 476.21 327.02C474.71 327 473.21 327.05 471.73 327.02C468.28 327.02 465.32 327.87 462.07 327.96C458.81 327.87 455.86 327.02 452.4 327.02C450.9 327 449.4 327.05 447.91 327.02C444.45 327.02 441.51 327.87 438.26 327.96C435.01 327.87 432.07 327.02 428.61 327.02C427.1 327 425.62 327.05 424.14 327.02C420.68 327.02 417.73 327.87 414.47 327.96C411.22 327.87 408.26 327.02 404.8 327.02C403.3 327 401.8 327.05 400.31 327.02L400.31 327.02Z" /><path class="shp46" d="M400.31 325.73C396.86 325.73 393.91 326.58 390.66 326.67C389.45 326.64 388.29 326.49 387.13 326.33L386.63 327.18C387.12 327.21 387.61 327.24 388.12 327.24C389.63 327.26 391.11 327.21 392.6 327.24C396.05 327.24 398.98 326.39 402.23 326.3C405.49 326.39 408.44 327.24 411.9 327.24C413.4 327.26 414.89 327.21 416.37 327.24C419.83 327.24 422.78 326.39 426.04 326.3C429.29 326.39 432.27 327.24 435.72 327.24C437.22 327.26 438.72 327.21 440.19 327.24C443.65 327.24 446.6 326.39 449.85 326.3C453.1 326.39 456.04 327.24 459.5 327.24C461.01 327.26 462.49 327.21 463.99 327.24C467.44 327.24 470.39 326.39 473.65 326.3C476.91 326.39 479.86 327.24 483.32 327.24C484.82 327.26 486.31 327.21 487.79 327.24C491.25 327.24 494.19 326.39 497.44 326.3C500.7 326.39 503.65 327.24 507.11 327.24C508.61 327.26 510.11 327.21 511.58 327.24C512.19 327.24 512.78 327.21 513.36 327.17L512.9 326.37C511.83 326.51 510.77 326.64 509.66 326.67C506.41 326.58 503.47 325.73 500.01 325.73C498.5 325.71 497.01 325.76 495.52 325.73C492.06 325.73 489.12 326.58 485.87 326.67C482.62 326.58 479.67 325.73 476.21 325.73C474.71 325.71 473.21 325.76 471.73 325.73C468.28 325.73 465.32 326.58 462.07 326.67C458.81 326.58 455.86 325.73 452.4 325.73C450.9 325.71 449.4 325.76 447.91 325.73C444.45 325.73 441.51 326.58 438.26 326.67C435.01 326.58 432.07 325.73 428.61 325.73C427.1 325.71 425.62 325.76 424.14 325.73C420.68 325.73 417.73 326.58 414.47 326.67C411.22 326.58 408.26 325.73 404.8 325.73C403.3 325.71 401.8 325.76 400.31 325.73L400.31 325.73Z" /><path class="shp47" d="M400.31 324.44C396.86 324.44 393.91 325.3 390.66 325.39C389.45 325.36 388.29 325.21 387.13 325.04L386.63 325.89C387.12 325.93 387.61 325.96 388.12 325.96C389.63 325.97 391.11 325.92 392.6 325.96C396.05 325.96 398.98 325.11 402.23 325.01C405.49 325.1 408.44 325.96 411.9 325.96C413.4 325.98 414.89 325.92 416.37 325.96C419.83 325.96 422.78 325.1 426.04 325.01C429.29 325.1 432.27 325.96 435.72 325.96C437.22 325.97 438.72 325.92 440.19 325.96C443.65 325.96 446.6 325.1 449.85 325.01C453.1 325.1 456.04 325.96 459.5 325.96C461.01 325.98 462.49 325.92 463.99 325.96C467.44 325.96 470.39 325.1 473.65 325.01C476.91 325.1 479.86 325.96 483.32 325.96C484.82 325.97 486.31 325.92 487.79 325.96C491.25 325.96 494.19 325.1 497.44 325.01C500.7 325.1 503.65 325.96 507.11 325.96C508.61 325.97 510.11 325.92 511.58 325.96C512.19 325.96 512.78 325.92 513.36 325.88L512.9 325.08C511.83 325.23 510.77 325.36 509.66 325.39C506.41 325.3 503.47 324.44 500.01 324.44C498.5 324.42 497.01 324.47 495.52 324.44C492.06 324.44 489.12 325.3 485.87 325.39C482.62 325.3 479.67 324.44 476.21 324.44C474.71 324.42 473.21 324.47 471.73 324.44C468.28 324.44 465.32 325.3 462.07 325.39C458.81 325.3 455.86 324.44 452.4 324.44C450.9 324.42 449.4 324.47 447.91 324.44C444.45 324.44 441.51 325.3 438.26 325.39C435.01 325.3 432.07 324.44 428.61 324.44C427.1 324.42 425.62 324.47 424.14 324.44C420.68 324.44 417.73 325.3 414.47 325.39C411.22 325.3 408.26 324.44 404.8 324.44C403.3 324.42 401.8 324.47 400.31 324.44L400.31 324.44Z" /></g></g><path class="shp28" d="M393.85 324.7L391.42 328.9C394.26 328.43 398.52 327.19 402.05 327.19C405.72 327.19 410.13 328.09 414.49 328.11C419.56 328.12 421.47 327.03 425.55 326.62C429.64 326.21 433.55 327.15 437.46 327.17C440.6 327.16 445.4 326.08 449.43 325.65C453.47 325.23 457.17 325.95 462.04 326.02C466.9 326.1 467.67 324.84 473.61 324.71C479.98 324.57 480.56 325.59 486.2 325.59C490.44 325.82 494.08 324.74 497.86 324.47C501.65 324.2 503.4 324.51 506.17 324.58L504.33 321.32C504.3 321.32 504.27 321.33 504.24 321.33L402.99 323.56L393.85 324.7Z" /><path class="shp1" d="M500.07 324.65C500.07 324.65 502.78 324.8 503.91 324.92C504.16 324.95 504.41 324.97 504.65 325C504.9 325.02 505.14 325.04 505.39 325.06C505.64 325.08 505.88 325.1 506.13 325.12C506.38 325.14 506.62 325.16 506.87 325.18L506.5 324.69C505.93 324.89 502.08 324.5 500.07 324.65Z" /></g></g><path fill-rule="evenodd" class="shp2" d="M482.85 281.78L515 337.46L449.3 337.45L385 337.46L417.86 280.56L450 224.87L482.85 281.78ZM419.16 281.31L387.6 335.96L449.3 335.95L512.4 335.96L481.55 282.53L450 227.88L419.16 281.31Z" /></svg>