<svg version="1.2" baseProfile="tiny-ps" xmlns="http://www.w3.org/2000/svg" viewBox="0 0 900 600" width="900" height="600"><title></title><style>tspan { white-space:pre }.shp0 { fill: #00247d } .shp1 { fill: none;stroke: #ffffff;stroke-width: 51.992 } .shp2 { fill: none;stroke: #ffffff;stroke-width: 86.653 } .shp3 { fill: none;stroke: #cf142b;stroke-width: 51.992 } .shp4 { fill: #ce1126 } .shp5 { fill: #ffffff } </style><g ><path class="shp0" d="M0 0L450 0L450 300L0 300L0 0Z" /><g ><path class="shp1" d="M450 0L0 300M0 0L450 300" /><path class="shp2" d="M225 0L225 300M0 150L450 150" /><path class="shp3" d="M225 0L225 300M0 150L450 150" /></g><path class="shp4" d="M0 300L900 300L900 600L0 600L0 300ZM450 0L900 0L900 600L450 600L450 0Z" /></g><g ><path class="shp5" d="M683 459.14L691.26 484.84L716.51 475.28L701.57 497.76L724.78 511.54L697.89 513.88L701.6 540.61L683 521.05L664.4 540.61L668.11 513.88L641.22 511.54L664.43 497.76L649.49 475.28L674.74 484.84L683 459.14Z" /><path class="shp5" d="M533 221.64L541.26 247.34L566.51 237.78L551.57 260.26L574.78 274.04L547.89 276.38L551.6 303.11L533 283.55L514.4 303.11L518.11 276.38L491.22 274.04L514.43 260.26L499.49 237.78L524.74 247.34L533 221.64Z" /><path class="shp5" d="M683 59.14L691.26 84.84L716.51 75.28L701.57 97.76L724.78 111.54L697.89 113.88L701.6 140.61L683 121.05L664.4 140.61L668.11 113.88L641.22 111.54L664.43 97.76L649.49 75.28L674.74 84.84L683 59.14Z" /><path class="shp5" d="M816.33 181.64L824.6 207.34L849.84 197.78L834.9 220.26L858.12 234.04L831.23 236.38L834.93 263.11L816.33 243.55L797.74 263.11L801.44 236.38L774.55 234.04L797.76 220.26L782.83 197.78L808.07 207.34L816.33 181.64Z" /><path class="shp5" d="M743 302L749.53 318.01L766.78 319.27L753.57 330.43L757.69 347.23L743 338.11L728.31 347.23L732.43 330.43L719.22 319.27L736.47 318.01L743 302Z" /></g><path class="shp5" d="M225 364L242.36 417.96L295.36 397.89L264 445.1L312.74 474.03L256.27 478.94L264.05 535.09L225 494L185.95 535.09L193.73 478.94L137.26 474.03L186 445.1L154.64 397.89L207.64 417.96L225 364Z" /></svg>