<svg version="1.2" baseProfile="tiny-ps" xmlns="http://www.w3.org/2000/svg" viewBox="0 0 900 600" width="900" height="600"><title></title><defs><clipPath clipPathUnits="userSpaceOnUse" id="cp1"><path d="M0 0L450 0L450 300L0 300L0 0Z" /></clipPath></defs><style>tspan { white-space:pre }.shp0 { fill: #00247d } .shp1 { fill: #ffffff } .shp2 { fill: #c8102e } .shp3 { fill: #000000;stroke: #ffffff;stroke-width: 51.992 } .shp4 { fill: none;stroke: #ffffff;stroke-width: 86.653 } .shp5 { fill: none;stroke: #cf142b;stroke-width: 51.992 } </style><path class="shp0" d="M0 0L900 0L900 600L0 600L0 0Z" /><g ><g ><g ><g ><path class="shp1" d="M687 107.25L687 129.95L732.4 107.25L687 107.25Z" /><path class="shp1" d="M695.67 133.93L682.33 115.57L732.4 107.25L695.67 133.93Z" /></g><g ><path class="shp1" d="M687 107.25L687 129.95L641.6 107.25L687 107.25Z" /><path class="shp1" d="M678.33 133.93L691.67 115.57L641.6 107.25L678.33 133.93Z" /></g><g ><path class="shp1" d="M701.03 117.44L679.44 124.46L715.06 160.62L701.03 117.44Z" /><path class="shp1" d="M678.33 133.93L691.67 115.57L715.06 160.62L678.33 133.93Z" /></g><g ><path class="shp1" d="M672.97 117.44L694.56 124.46L687 74.26L672.97 117.44Z" /><path class="shp1" d="M701.03 117.44L679.44 124.46L687 74.26L701.03 117.44Z" /></g><g ><path class="shp1" d="M672.97 117.44L694.56 124.46L658.94 160.62L672.97 117.44Z" /><path class="shp1" d="M695.67 133.93L682.33 115.57L658.94 160.62L695.67 133.93Z" /></g></g><g ><g ><path class="shp2" d="M687 112.25L687 127.25L717 112.25L687 112.25Z" /><path class="shp2" d="M692.73 129.89L683.91 117.75L717 112.25L692.73 129.89Z" /></g><g ><path class="shp2" d="M687 112.25L687 127.25L657 112.25L687 112.25Z" /><path class="shp2" d="M681.27 129.89L690.09 117.75L657 112.25L681.27 129.89Z" /></g><g ><path class="shp2" d="M696.27 118.99L682 123.62L705.54 147.52L696.27 118.99Z" /><path class="shp2" d="M681.27 129.89L690.09 117.75L705.54 147.52L681.27 129.89Z" /></g><g ><path class="shp2" d="M677.73 118.99L692 123.62L687 90.46L677.73 118.99Z" /><path class="shp2" d="M696.27 118.99L682 123.62L687 90.46L696.27 118.99Z" /></g><g ><path class="shp2" d="M677.73 118.99L692 123.62L668.46 147.52L677.73 118.99Z" /><path class="shp2" d="M692.73 129.89L683.91 117.75L668.46 147.52L692.73 129.89Z" /></g></g></g><g ><g ><g ><g ><path class="shp1" d="M805.83 212.17L805.83 232.37L846.23 212.17L805.83 212.17Z" /><path class="shp1" d="M813.55 235.92L801.67 219.58L846.23 212.17L813.55 235.92Z" /></g><g ><path class="shp1" d="M805.83 212.17L805.83 232.37L765.43 212.17L805.83 212.17Z" /><path class="shp1" d="M798.12 235.92L809.99 219.58L765.43 212.17L798.12 235.92Z" /></g><g ><path class="shp1" d="M818.32 221.24L799.11 227.48L830.8 259.67L818.32 221.24Z" /><path class="shp1" d="M798.12 235.92L809.99 219.58L830.8 259.67L798.12 235.92Z" /></g><g ><path class="shp1" d="M793.35 221.24L812.56 227.48L805.83 182.82L793.35 221.24Z" /><path class="shp1" d="M818.32 221.24L799.1 227.48L805.83 182.82L818.32 221.24Z" /></g><g ><path class="shp1" d="M793.35 221.24L812.56 227.48L780.86 259.67L793.35 221.24Z" /><path class="shp1" d="M813.55 235.92L801.67 219.58L780.86 259.67L813.55 235.92Z" /></g></g><g ><g ><path class="shp2" d="M805.83 217.18L805.83 229.68L830.83 217.18L805.83 217.18Z" /><path class="shp2" d="M810.61 231.87L803.26 221.76L830.83 217.18L810.61 231.87Z" /></g><g ><path class="shp2" d="M805.83 217.18L805.83 229.68L780.83 217.18L805.83 217.18Z" /><path class="shp2" d="M801.06 231.87L808.4 221.76L780.83 217.18L801.06 231.87Z" /></g><g ><path class="shp2" d="M813.56 222.79L801.67 226.65L821.28 246.57L813.56 222.79Z" /><path class="shp2" d="M801.06 231.87L808.41 221.76L821.28 246.57L801.06 231.87Z" /></g><g ><path class="shp2" d="M798.11 222.79L809.99 226.65L805.83 199.01L798.11 222.79Z" /><path class="shp2" d="M813.56 222.79L801.67 226.65L805.83 199.01L813.56 222.79Z" /></g><g ><path class="shp2" d="M798.11 222.79L809.99 226.65L790.38 246.57L798.11 222.79Z" /><path class="shp2" d="M810.61 231.87L803.26 221.76L790.38 246.57L810.61 231.87Z" /></g></g></g><g ><g ><g ><path class="shp1" d="M548.36 246.73L548.36 269.43L593.76 246.73L548.36 246.73Z" /><path class="shp1" d="M557.03 273.42L543.69 255.05L593.76 246.73L557.03 273.42Z" /></g><g ><path class="shp1" d="M548.36 246.73L548.36 269.43L502.96 246.73L548.36 246.73Z" /><path class="shp1" d="M539.69 273.42L553.03 255.05L502.96 246.73L539.69 273.42Z" /></g><g ><path class="shp1" d="M562.39 256.93L540.8 263.94L576.42 300.1L562.39 256.93Z" /><path class="shp1" d="M539.69 273.42L553.03 255.05L576.42 300.1L539.69 273.42Z" /></g><g ><path class="shp1" d="M534.33 256.93L555.92 263.94L548.36 213.75L534.33 256.93Z" /><path class="shp1" d="M562.39 256.93L540.8 263.94L548.36 213.75L562.39 256.93Z" /></g><g ><path class="shp1" d="M534.33 256.93L555.92 263.94L520.3 300.1L534.33 256.93Z" /><path class="shp1" d="M557.03 273.42L543.69 255.05L520.3 300.1L557.03 273.42Z" /></g></g><g ><g ><path class="shp2" d="M548.36 251.74L548.36 266.74L578.36 251.74L548.36 251.74Z" /><path class="shp2" d="M554.09 269.37L545.28 257.23L578.36 251.74L554.09 269.37Z" /></g><g ><path class="shp2" d="M548.36 251.74L548.36 266.74L518.36 251.74L548.36 251.74Z" /><path class="shp2" d="M542.63 269.37L551.45 257.23L518.36 251.74L542.63 269.37Z" /></g><g ><path class="shp2" d="M557.63 258.47L543.37 263.11L566.9 287L557.63 258.47Z" /><path class="shp2" d="M542.63 269.37L551.45 257.23L566.9 287L542.63 269.37Z" /></g><g ><path class="shp2" d="M539.09 258.47L553.36 263.11L548.36 229.94L539.09 258.47Z" /><path class="shp2" d="M557.63 258.47L543.37 263.11L548.36 229.94L557.63 258.47Z" /></g><g ><path class="shp2" d="M539.09 258.47L553.36 263.11L529.82 287L539.09 258.47Z" /><path class="shp2" d="M554.09 269.37L545.28 257.23L529.82 287L554.09 269.37Z" /></g></g></g></g><g ><g ><g ><path class="shp1" d="M687 465.62L687 490.82L737.4 465.62L687 465.62Z" /><path class="shp1" d="M696.63 495.25L681.81 474.86L737.4 465.62L696.63 495.25Z" /></g><g ><path class="shp1" d="M687 465.62L687 490.82L636.6 465.62L687 465.62Z" /><path class="shp1" d="M677.37 495.25L692.19 474.86L636.6 465.62L677.37 495.25Z" /></g><g ><path class="shp1" d="M702.57 476.94L678.61 484.73L718.15 524.87L702.57 476.94Z" /><path class="shp1" d="M677.37 495.25L692.19 474.86L718.15 524.87L677.37 495.25Z" /></g><g ><path class="shp1" d="M671.43 476.94L695.39 484.73L687 429.01L671.43 476.94Z" /><path class="shp1" d="M702.57 476.94L678.61 484.73L687 429.01L702.57 476.94Z" /></g><g ><path class="shp1" d="M671.43 476.94L695.39 484.73L655.85 524.87L671.43 476.94Z" /><path class="shp1" d="M696.63 495.25L681.81 474.86L655.85 524.87L696.63 495.25Z" /></g></g><g ><g ><path class="shp2" d="M687 470.63L687 488.13L722 470.63L687 470.63Z" /><path class="shp2" d="M693.68 491.2L683.4 477.04L722 470.63L693.68 491.2Z" /></g><g ><path class="shp2" d="M687 470.63L687 488.13L652 470.63L687 470.63Z" /><path class="shp2" d="M680.32 491.2L690.6 477.04L652 470.63L680.32 491.2Z" /></g><g ><path class="shp2" d="M697.82 478.49L681.17 483.89L708.63 511.77L697.82 478.49Z" /><path class="shp2" d="M680.32 491.2L690.6 477.04L708.63 511.77L680.32 491.2Z" /></g><g ><path class="shp2" d="M676.18 478.49L692.83 483.89L687 445.2L676.18 478.49Z" /><path class="shp2" d="M697.82 478.49L681.17 483.89L687 445.2L697.82 478.49Z" /></g><g ><path class="shp2" d="M676.18 478.49L692.83 483.89L665.37 511.77L676.18 478.49Z" /><path class="shp2" d="M693.68 491.2L683.4 477.04L665.37 511.77L693.68 491.2Z" /></g></g></g></g><g clip-path="url(#cp1)"><g ><g ><path class="shp0" d="M0 0L450 0L450 300L0 300L0 0Z" /><path fill-rule="evenodd" class="shp3" d="M0 0L450 300M450 0L0 300" /><path class="shp4" d="M225 0L225 300" /><path class="shp4" d="M0 150L450 150" /><path class="shp5" d="M225 0L225 300" /><path class="shp5" d="M0 150L450 150" /></g></g></g></svg>