<svg version="1.2" baseProfile="tiny-ps" xmlns="http://www.w3.org/2000/svg" viewBox="0 0 750 500" width="900" height="600"><title></title><style>tspan { white-space:pre }.shp0 { fill: #ffffff } .shp1 { fill: #ffffff;stroke: #ef2d28;stroke-width: 0.841 } .shp2 { fill: #ffffff;stroke: #ef2d28;stroke-width: 0.847 } .shp3 { fill: #ffffff;stroke: #ef2d28;stroke-width: 0.84 } .shp4 { fill: #ffffff;stroke: #ef2d28;stroke-width: 0.848 } .shp5 { fill: #ffffff;stroke: #ef2d28;stroke-width: 0.842 } .shp6 { fill: none;stroke: #ef2d28;stroke-width: 0.842 } .shp7 { fill: none;stroke: #ef2d28;stroke-width: 0.84 } .shp8 { fill: none;stroke: #ef2d28;stroke-width: 0.841 } .shp9 { fill: #ffffff;stroke: #ef2d28;stroke-width: 0.87 } .shp10 { fill: #ffffff;stroke: #ef2d28;stroke-width: 0.853 } .shp11 { fill: #ffffff;stroke: #ef2d28;stroke-width: 0.871 } .shp12 { fill: #ef0000;stroke: #ef2d28;stroke-width: 0.842 } .shp13 { fill: #ffffff;stroke: #ef2d28;stroke-width: 0.857 } .shp14 { fill: #ffffff;stroke: #ef2d28;stroke-width: 1.07 } .shp15 { fill: #ffffff;stroke: #ef2d28;stroke-width: 0.868 } .shp16 { fill: #ffffff;stroke: #ef2d28;stroke-width: 0.844 } .shp17 { fill: #ffffff;stroke: #ef2d28;stroke-width: 0.877 } </style><g ><g ><path class="shp0" d="M0 0L1000 0L1000 500L0 500L0 0Z" /><g ><g ><path class="shp1" d="M165.03 88.18C165.03 86.79 166.29 85.67 167.85 85.67L196.06 85.67C197.61 85.67 198.87 86.79 198.87 88.18L198.87 101.72C198.87 103.11 197.61 104.23 196.06 104.23L167.85 104.23C166.29 104.23 165.03 103.11 165.03 101.72L165.03 88.18Z" /><path class="shp1" d="M165.9 88.82C165.9 87.51 167.1 86.44 168.57 86.44L195.33 86.44C196.81 86.44 198 87.51 198 88.82L198 101.08C198 102.39 196.81 103.46 195.33 103.46L168.57 103.46C167.1 103.46 165.9 102.39 165.9 101.08L165.9 88.82Z" /><path fill-rule="evenodd" class="shp2" d="M180.83 91.08L182.45 91.14L182.52 91.87L183.85 92.55L184.88 91.7L186.13 92.38L184.95 93.11L185.25 94.13L186.72 94.07L186.72 95.43L185.54 95.37L184.95 96.22L186.28 97.18L185.25 97.97L184.14 97.12L182.52 97.46L182.6 98.7L180.83 98.82L180.61 97.63L179.13 97.01L178.32 97.86L177.07 97.24L177.81 96.28L176.92 95.65L175.67 95.65L175.59 93.9L176.85 94.02L177.73 93L176.7 92.21L178.03 91.31L178.98 92.04L180.61 91.82L180.83 91.08L180.83 91.08Z" /><path class="shp3" d="M181.32 96.28C180.33 96.28 179.54 95.59 179.54 94.75C179.54 93.91 180.33 93.23 181.32 93.23C182.3 93.23 183.1 93.91 183.1 94.75C183.1 95.59 182.3 96.28 181.32 96.28Z" /><g ><path fill-rule="evenodd" class="shp1" d="M170.24 87.21L167.64 89.53" /><path fill-rule="evenodd" class="shp1" d="M171.97 87.21L169.37 89.53" /><path fill-rule="evenodd" class="shp1" d="M173.71 87.21L171.11 89.53" /><path fill-rule="evenodd" class="shp1" d="M175.44 87.21L172.84 89.53" /><path fill-rule="evenodd" class="shp1" d="M177.18 87.21L174.58 89.53" /><path fill-rule="evenodd" class="shp1" d="M178.91 87.21L176.31 89.53" /><path fill-rule="evenodd" class="shp1" d="M180.65 87.21L178.05 89.53" /><path fill-rule="evenodd" class="shp1" d="M182.38 87.21L179.78 89.53" /><path fill-rule="evenodd" class="shp1" d="M184.12 87.21L181.52 89.53" /><path fill-rule="evenodd" class="shp1" d="M185.86 87.21L183.25 89.53" /><path fill-rule="evenodd" class="shp1" d="M187.59 87.21L184.99 89.53" /><path fill-rule="evenodd" class="shp1" d="M189.33 87.21L186.72 89.53" /><path fill-rule="evenodd" class="shp1" d="M182.38 87.21L179.78 89.53" /><path fill-rule="evenodd" class="shp1" d="M191.06 87.21L188.46 89.53" /><path fill-rule="evenodd" class="shp1" d="M192.8 87.21L190.19 89.53" /><path fill-rule="evenodd" class="shp1" d="M194.53 87.21L191.93 89.53" /><path fill-rule="evenodd" class="shp1" d="M196.27 87.21L193.66 89.53" /><path fill-rule="evenodd" class="shp1" d="M193.66 87.21L196.27 89.53" /><path fill-rule="evenodd" class="shp1" d="M191.93 87.21L194.53 89.53" /><path fill-rule="evenodd" class="shp1" d="M190.19 87.21L192.8 89.53" /><path fill-rule="evenodd" class="shp1" d="M188.46 87.21L191.06 89.53" /><path fill-rule="evenodd" class="shp1" d="M186.72 87.21L189.33 89.53" /><path fill-rule="evenodd" class="shp1" d="M184.99 87.21L187.59 89.53" /><path fill-rule="evenodd" class="shp1" d="M183.25 87.21L185.86 89.53" /><path fill-rule="evenodd" class="shp1" d="M181.52 87.21L184.12 89.53" /><path fill-rule="evenodd" class="shp1" d="M179.78 87.21L182.38 89.53" /><path fill-rule="evenodd" class="shp1" d="M178.05 87.21L180.65 89.53" /><path fill-rule="evenodd" class="shp1" d="M176.31 87.21L178.91 89.53" /><path fill-rule="evenodd" class="shp1" d="M174.58 87.21L177.18 89.53" /><path fill-rule="evenodd" class="shp1" d="M181.52 87.21L184.12 89.53" /><path fill-rule="evenodd" class="shp1" d="M172.84 87.21L175.44 89.53" /><path fill-rule="evenodd" class="shp1" d="M171.11 87.21L173.71 89.53" /><path fill-rule="evenodd" class="shp1" d="M169.37 87.21L171.97 89.53" /><path fill-rule="evenodd" class="shp1" d="M167.64 87.21L170.24 89.53" /></g><g ><path fill-rule="evenodd" class="shp1" d="M170.24 100.36L167.64 102.68" /><path fill-rule="evenodd" class="shp1" d="M171.97 100.36L169.37 102.68" /><path fill-rule="evenodd" class="shp1" d="M173.71 100.36L171.11 102.68" /><path fill-rule="evenodd" class="shp1" d="M175.44 100.36L172.84 102.68" /><path fill-rule="evenodd" class="shp1" d="M177.18 100.36L174.58 102.68" /><path fill-rule="evenodd" class="shp1" d="M178.91 100.36L176.31 102.68" /><path fill-rule="evenodd" class="shp1" d="M180.65 100.36L178.05 102.68" /><path fill-rule="evenodd" class="shp1" d="M182.38 100.36L179.78 102.68" /><path fill-rule="evenodd" class="shp1" d="M184.12 100.36L181.52 102.68" /><path fill-rule="evenodd" class="shp1" d="M185.86 100.36L183.25 102.68" /><path fill-rule="evenodd" class="shp1" d="M187.59 100.36L184.99 102.68" /><path fill-rule="evenodd" class="shp1" d="M189.33 100.36L186.72 102.68" /><path fill-rule="evenodd" class="shp1" d="M182.38 100.36L179.78 102.68" /><path fill-rule="evenodd" class="shp1" d="M191.06 100.36L188.46 102.68" /><path fill-rule="evenodd" class="shp1" d="M192.8 100.36L190.19 102.68" /><path fill-rule="evenodd" class="shp1" d="M194.53 100.36L191.93 102.68" /><path fill-rule="evenodd" class="shp1" d="M196.27 100.36L193.66 102.68" /><path fill-rule="evenodd" class="shp1" d="M193.66 100.36L196.27 102.68" /><path fill-rule="evenodd" class="shp1" d="M191.93 100.36L194.53 102.68" /><path fill-rule="evenodd" class="shp1" d="M190.19 100.36L192.8 102.68" /><path fill-rule="evenodd" class="shp1" d="M188.46 100.36L191.06 102.68" /><path fill-rule="evenodd" class="shp1" d="M186.72 100.36L189.33 102.68" /><path fill-rule="evenodd" class="shp1" d="M184.99 100.36L187.59 102.68" /><path fill-rule="evenodd" class="shp1" d="M183.25 100.36L185.86 102.68" /><path fill-rule="evenodd" class="shp1" d="M181.52 100.36L184.12 102.68" /><path fill-rule="evenodd" class="shp1" d="M179.78 100.36L182.38 102.68" /><path fill-rule="evenodd" class="shp1" d="M178.05 100.36L180.65 102.68" /><path fill-rule="evenodd" class="shp1" d="M176.31 100.36L178.91 102.68" /><path fill-rule="evenodd" class="shp1" d="M174.58 100.36L177.18 102.68" /><path fill-rule="evenodd" class="shp1" d="M181.52 100.36L184.12 102.68" /><path fill-rule="evenodd" class="shp1" d="M172.84 100.36L175.44 102.68" /><path fill-rule="evenodd" class="shp1" d="M171.11 100.36L173.71 102.68" /><path fill-rule="evenodd" class="shp1" d="M169.37 100.36L171.97 102.68" /><path fill-rule="evenodd" class="shp1" d="M167.64 100.36L170.24 102.68" /></g></g><g ><path class="shp1" d="M51.38 87.4C51.38 86.02 52.64 84.89 54.19 84.89L82.4 84.89C83.96 84.89 85.22 86.02 85.22 87.4L85.22 100.95C85.22 102.33 83.96 103.46 82.4 103.46L54.19 103.46C52.64 103.46 51.38 102.33 51.38 100.95L51.38 87.4Z" /><path class="shp1" d="M52.25 88.05C52.25 86.73 53.44 85.67 54.92 85.67L81.68 85.67C83.15 85.67 84.35 86.73 84.35 88.05L84.35 100.3C84.35 101.62 83.15 102.68 81.68 102.68L54.92 102.68C53.44 102.68 52.25 101.62 52.25 100.3L52.25 88.05Z" /><path fill-rule="evenodd" class="shp2" d="M67.17 90.31L68.8 90.36L68.87 91.1L70.2 91.78L71.23 90.93L72.48 91.61L71.3 92.34L71.6 93.36L73.07 93.3L73.07 94.66L71.89 94.6L71.3 95.45L72.63 96.41L71.6 97.2L70.49 96.35L68.87 96.69L68.94 97.93L67.17 98.04L66.95 96.86L65.48 96.24L64.67 97.08L63.42 96.46L64.15 95.5L63.27 94.88L62.02 94.88L61.94 93.13L63.19 93.24L64.08 92.23L63.05 91.44L64.37 90.53L65.33 91.27L66.95 91.04L67.17 90.31L67.17 90.31Z" /><path class="shp3" d="M67.66 95.5C66.68 95.5 65.88 94.82 65.88 93.98C65.88 93.13 66.68 92.45 67.66 92.45C68.65 92.45 69.45 93.13 69.45 93.98C69.45 94.82 68.65 95.5 67.66 95.5Z" /><g ><path fill-rule="evenodd" class="shp1" d="M56.59 86.44L53.98 88.76" /><path fill-rule="evenodd" class="shp1" d="M58.32 86.44L55.72 88.76" /><path fill-rule="evenodd" class="shp1" d="M60.06 86.44L57.45 88.76" /><path fill-rule="evenodd" class="shp1" d="M61.79 86.44L59.19 88.76" /><path fill-rule="evenodd" class="shp1" d="M63.53 86.44L60.92 88.76" /><path fill-rule="evenodd" class="shp1" d="M65.26 86.44L62.66 88.76" /><path fill-rule="evenodd" class="shp1" d="M67 86.44L64.39 88.76" /><path fill-rule="evenodd" class="shp1" d="M68.73 86.44L66.13 88.76" /><path fill-rule="evenodd" class="shp1" d="M70.47 86.44L67.86 88.76" /><path fill-rule="evenodd" class="shp1" d="M72.2 86.44L69.6 88.76" /><path fill-rule="evenodd" class="shp1" d="M73.94 86.44L71.34 88.76" /><path fill-rule="evenodd" class="shp1" d="M75.67 86.44L73.07 88.76" /><path fill-rule="evenodd" class="shp1" d="M68.73 86.44L66.13 88.76" /><path fill-rule="evenodd" class="shp1" d="M77.41 86.44L74.81 88.76" /><path fill-rule="evenodd" class="shp1" d="M79.14 86.44L76.54 88.76" /><path fill-rule="evenodd" class="shp1" d="M80.88 86.44L78.28 88.76" /><path fill-rule="evenodd" class="shp1" d="M82.61 86.44L80.01 88.76" /><path fill-rule="evenodd" class="shp1" d="M80.01 86.44L82.61 88.76" /><path fill-rule="evenodd" class="shp1" d="M78.28 86.44L80.88 88.76" /><path fill-rule="evenodd" class="shp1" d="M76.54 86.44L79.14 88.76" /><path fill-rule="evenodd" class="shp1" d="M74.81 86.44L77.41 88.76" /><path fill-rule="evenodd" class="shp1" d="M73.07 86.44L75.67 88.76" /><path fill-rule="evenodd" class="shp1" d="M71.34 86.44L73.94 88.76" /><path fill-rule="evenodd" class="shp1" d="M69.6 86.44L72.2 88.76" /><path fill-rule="evenodd" class="shp1" d="M67.86 86.44L70.47 88.76" /><path fill-rule="evenodd" class="shp1" d="M66.13 86.44L68.73 88.76" /><path fill-rule="evenodd" class="shp1" d="M64.39 86.44L67 88.76" /><path fill-rule="evenodd" class="shp1" d="M62.66 86.44L65.26 88.76" /><path fill-rule="evenodd" class="shp1" d="M60.92 86.44L63.53 88.76" /><path fill-rule="evenodd" class="shp1" d="M67.86 86.44L70.47 88.76" /><path fill-rule="evenodd" class="shp1" d="M59.19 86.44L61.79 88.76" /><path fill-rule="evenodd" class="shp1" d="M57.45 86.44L60.06 88.76" /><path fill-rule="evenodd" class="shp1" d="M55.72 86.44L58.32 88.76" /><path fill-rule="evenodd" class="shp1" d="M53.98 86.44L56.59 88.76" /></g><g ><path fill-rule="evenodd" class="shp1" d="M56.59 99.59L53.98 101.91" /><path fill-rule="evenodd" class="shp1" d="M58.32 99.59L55.72 101.91" /><path fill-rule="evenodd" class="shp1" d="M60.06 99.59L57.45 101.91" /><path fill-rule="evenodd" class="shp1" d="M61.79 99.59L59.19 101.91" /><path fill-rule="evenodd" class="shp1" d="M63.53 99.59L60.92 101.91" /><path fill-rule="evenodd" class="shp1" d="M65.26 99.59L62.66 101.91" /><path fill-rule="evenodd" class="shp1" d="M67 99.59L64.39 101.91" /><path fill-rule="evenodd" class="shp1" d="M68.73 99.59L66.13 101.91" /><path fill-rule="evenodd" class="shp1" d="M70.47 99.59L67.86 101.91" /><path fill-rule="evenodd" class="shp1" d="M72.2 99.59L69.6 101.91" /><path fill-rule="evenodd" class="shp1" d="M73.94 99.59L71.34 101.91" /><path fill-rule="evenodd" class="shp1" d="M75.67 99.59L73.07 101.91" /><path fill-rule="evenodd" class="shp1" d="M68.73 99.59L66.13 101.91" /><path fill-rule="evenodd" class="shp1" d="M77.41 99.59L74.81 101.91" /><path fill-rule="evenodd" class="shp1" d="M79.14 99.59L76.54 101.91" /><path fill-rule="evenodd" class="shp1" d="M80.88 99.59L78.28 101.91" /><path fill-rule="evenodd" class="shp1" d="M82.61 99.59L80.01 101.91" /><path fill-rule="evenodd" class="shp1" d="M80.01 99.59L82.61 101.91" /><path fill-rule="evenodd" class="shp1" d="M78.28 99.59L80.88 101.91" /><path fill-rule="evenodd" class="shp1" d="M76.54 99.59L79.14 101.91" /><path fill-rule="evenodd" class="shp1" d="M74.81 99.59L77.41 101.91" /><path fill-rule="evenodd" class="shp1" d="M73.07 99.59L75.67 101.91" /><path fill-rule="evenodd" class="shp1" d="M71.34 99.59L73.94 101.91" /><path fill-rule="evenodd" class="shp1" d="M69.6 99.59L72.2 101.91" /><path fill-rule="evenodd" class="shp1" d="M67.86 99.59L70.47 101.91" /><path fill-rule="evenodd" class="shp1" d="M66.13 99.59L68.73 101.91" /><path fill-rule="evenodd" class="shp1" d="M64.39 99.59L67 101.91" /><path fill-rule="evenodd" class="shp1" d="M62.66 99.59L65.26 101.91" /><path fill-rule="evenodd" class="shp1" d="M60.92 99.59L63.53 101.91" /><path fill-rule="evenodd" class="shp1" d="M67.86 99.59L70.47 101.91" /><path fill-rule="evenodd" class="shp1" d="M59.19 99.59L61.79 101.91" /><path fill-rule="evenodd" class="shp1" d="M57.45 99.59L60.06 101.91" /><path fill-rule="evenodd" class="shp1" d="M55.72 99.59L58.32 101.91" /><path fill-rule="evenodd" class="shp1" d="M53.98 99.59L56.59 101.91" /></g></g><g ><path fill-rule="evenodd" class="shp4" d="M104.45 123.81C62.35 164.98 44.4 170.19 52.82 173.5C61.25 176.82 88.36 155.58 116.57 127.35C144.78 99.13 162.06 74.01 153.63 70.7C145.2 67.38 149.23 80.03 104.45 123.81Z" /><path fill-rule="evenodd" class="shp1" d="M69.02 153.74L83.76 157.6C69.88 170.75 54.27 176.17 49.93 173.85C45.59 171.53 57.74 166.11 69.02 153.74Z" /><path fill-rule="evenodd" class="shp5" d="M69.02 155.28L81.16 158.38C67.64 171.02 54.27 174.62 50.81 173.07C47.33 171.53 58.03 167.18 69.02 155.28Z" /><path class="shp6" d="M114.32 122.02C114.29 122.21 114.19 123.1 114.11 123.45C114.11 123.93 114.06 124.31 114 124.69C113.86 125.02 113.88 125.33 113.46 125.45C113.17 125.85 112.98 125.96 112.6 126.12C112.33 126.32 111.94 126.52 111.52 126.69C111.09 126.86 110.7 126.88 110.23 126.79C109.85 126.56 109.57 126.32 109.26 126.12C109.18 125.82 109.11 125.37 109.04 125.07C109.16 125.38 109.24 125.87 109.26 126.31C109.22 126.79 109.04 127 108.83 127.36" /><path class="shp6" d="M110.33 128.41C110.3 128.38 110.26 128.35 110.23 128.32C110.48 128.54 110.38 128.43 109.8 128.12C109.38 127.93 108.93 127.83 108.39 127.74C107.89 127.74 107.39 127.74 106.89 127.74C106.3 127.74 105.9 127.82 105.48 127.93C105.18 128.2 104.73 128.36 104.41 128.6C104.08 128.8 103.94 129.03 103.76 129.37C103.47 129.63 103.28 130.03 103.01 130.22C102.88 130.66 102.64 130.65 102.47 130.99C102.98 131.02 103.38 131.08 103.65 131.37C104.1 131.58 103.28 131.17 103.11 130.99C102.76 130.89 102.67 130.8 102.14 130.8C101.65 130.66 101.35 130.91 100.85 130.99C100.56 131.14 100.48 131.18 100.1 131.18" /><path class="shp6" d="M104.51 133.18C104.3 133.2 103.29 133.36 102.9 133.18C102.46 133.08 102.2 132.87 101.93 132.52C101.8 132.26 101.93 132.97 101.93 133.28C101.88 133.84 101.69 133.85 101.39 134.23C101.08 134.41 100.75 134.66 100.42 134.81C100.15 135.02 99.81 135.15 99.45 135.28C99.12 135.42 98.74 135.56 98.48 135.76C98.12 135.99 98.15 136.26 97.94 136.62C97.98 137.09 98.07 137.35 98.37 137.57C98.5 137.9 98.78 138.22 99.02 138.43C99.28 138.87 99.58 139.08 98.91 139.2C98.54 139.34 98.34 139.23 97.94 139.2" /><path class="shp6" d="M97.73 139.87C97.46 139.81 96.52 139.53 96.11 139.39C95.61 139.39 95.1 139.39 94.6 139.39C94.02 139.43 93.9 139.58 93.41 139.77C93.1 140.06 92.88 140.25 92.44 140.44C92.21 140.7 91.76 141.15 91.58 141.49C91.45 141.81 91.37 142.25 91.37 142.73C91.37 143.29 91.54 143.38 91.58 143.87C91.7 144.28 91.9 144.66 92.23 145.02C92.27 145.14 92.31 145.17 92.44 145.21" /><path class="shp7" d="M92.59 146.46C92.55 146.46 92.44 146.7 92.28 146.91C91.94 147.26 91.89 147.29 91.37 147.29C90.89 147.27 90.94 147.1 90.6 146.99C90.44 146.74 90.25 146.55 90.07 146.23C89.94 146.04 89.83 145.74 89.68 145.56C89.54 145.33 89.37 145.16 89.22 144.95C89.08 144.89 89.03 144.83 88.84 144.8C89.28 144.87 89.32 145.03 89.61 145.25C89.74 145.47 89.87 145.69 89.99 145.93C90.03 146.25 90.14 146.51 90.14 146.91C90.14 147.33 90.14 147.62 89.99 147.97C89.81 148.15 89.68 148.35 89.45 148.49C89.28 148.66 89.06 148.9 88.92 149.1C88.68 149.24 88.5 149.36 88.23 149.55C88 149.68 87.75 149.82 87.39 149.85C86.94 149.82 86.81 149.69 86.47 149.55C86.18 149.34 85.96 149.21 85.7 149.02C85.51 148.88 85.3 148.61 85.17 148.42C84.75 148.32 84.49 148.36 84.25 148.57C84.04 148.71 83.86 148.89 83.72 149.1C83.59 149.16 83.38 149.34 83.26 149.4" /><path class="shp7" d="M84.16 149.58C84.28 149.63 84.73 149.93 84.92 150.05C85.04 150.44 85.24 150.66 85.3 151.08C85.41 151.49 85.4 151.94 85.4 152.4C85.29 152.88 85.09 153.23 84.92 153.62C84.62 153.82 84.47 153.97 84.07 154.19C83.69 154.24 83.31 154.28 82.83 154.28C82.54 154.37 81.98 154.42 81.69 154.28C81.26 154.22 80.95 154.05 80.64 153.9C80.29 153.71 80.07 153.52 79.69 153.34C79.5 153.07 79.21 152.82 78.93 152.49C78.69 152.18 78.52 152 78.36 151.65C78.5 152.05 78.71 152.4 78.83 152.77C79.05 153.18 79.18 153.32 79.22 153.81C79.35 154.2 79.31 154.68 79.31 155.13C79.27 155.43 79.25 156 79.12 156.25C79.12 156.35 79.12 156.44 79.12 156.54" /><path class="shp8" d="M70.1 158.04C70.1 158.08 70.1 158.13 70.1 158.17C70.1 157.81 70.09 157.99 70.25 158.72C70.54 159.04 71.21 159.13 71.78 158.99C72.27 158.63 72.26 158.35 73.16 158.17C74.02 158.23 74.35 158.45 74.84 158.72C75.42 158.98 75.68 159.11 76.06 159.67C76.25 160.14 76.36 160.45 75.76 160.63C75.28 160.93 74.71 161.1 74.07 161.18C73.37 161.18 72.86 161.1 72.54 161.45C72.06 161.9 72.08 162.16 72.08 162.95C71.92 163.19 71.89 163.91 71.78 164.18C71.35 164.36 71.1 164.45 70.4 164.45C70.24 164.03 70.05 163.27 69.94 162.81C69.82 162.32 69.79 161.64 69.48 161.31C69.2 160.94 68.83 160.61 68.41 160.36C68.22 160.12 67.87 159.93 67.49 159.81C68.09 160.08 68.18 160.38 68.26 161.04C67.73 161.27 67.59 161.44 66.73 161.45C65.88 161.38 65.68 161.19 65.35 160.77C65.29 161.45 65.05 161.68 64.89 162.27C64.58 162.68 64.44 163.1 64.13 163.63C64.26 164.29 64.55 164.32 64.59 165.13C64.78 165.66 64.76 166.18 65.2 166.5C65.39 166.71 65.54 166.75 65.96 166.77C65.08 166.77 64.56 166.68 63.97 166.36C63.52 166.11 63.18 165.8 62.75 165.54C62.21 165.19 61.54 164.87 60.91 164.72C60.21 164.72 59.7 164.65 59.38 165C58.95 165.27 58.66 165.75 58.46 166.36C58.32 167.07 58.27 167.54 58.62 168C58.88 168.52 58.94 168.73 58.62 169.36C58.26 169.81 57.73 169.86 56.93 170.04C56.35 170.02 55.79 169.9 55.4 169.77" /></g><g ><path fill-rule="evenodd" class="shp9" d="M152.49 86.66C171.17 54.41 183.57 26.97 180.16 25.4C176.76 23.83 158.84 48.73 140.16 80.98L152.49 86.66Z" /><path fill-rule="evenodd" class="shp10" d="M151.26 86.09C169.28 54.98 181.69 28.72 178.97 27.46C176.25 26.21 159.41 50.44 141.39 81.55" /><path fill-rule="evenodd" class="shp11" d="M148.16 69.86C145.97 73.5 143.64 77.66 141.39 81.55L151.26 86.09C153.51 82.2 155.97 78.1 158.02 74.41L148.16 69.86Z" /><path fill-rule="evenodd" class="shp11" d="M148.99 71.12C146.8 74.76 145.27 77.54 143.02 81.43L150.42 84.83C152.67 80.95 154.33 78.22 156.39 74.53L148.99 71.12Z" /><path class="shp11" d="M154.36 75.33L149.43 73.06L145.05 80.62L149.98 82.89L154.36 75.33Z" /><path fill-rule="evenodd" class="shp11" d="M154.36 75.33L145.05 80.62" /><path fill-rule="evenodd" class="shp11" d="M149.98 82.89L149.43 73.06" /><path fill-rule="evenodd" class="shp11" d="M176.66 36.85L171.73 34.57" /><path class="shp12" d="M176.67 33.28C177.44 33.09 177.92 32.39 177.74 31.71C177.57 31.04 176.81 30.65 176.04 30.84C175.27 31.04 174.79 31.74 174.96 32.41C175.13 33.09 175.9 33.48 176.67 33.28Z" /></g><g ><path fill-rule="evenodd" class="shp4" d="M145.21 123.04C187.31 164.21 205.27 169.42 196.84 172.73C188.41 176.05 161.3 154.8 133.09 126.58C104.88 98.36 87.61 73.24 96.03 69.92C104.46 66.61 100.44 79.25 145.21 123.04Z" /><path fill-rule="evenodd" class="shp1" d="M180.65 152.96L165.9 156.83C179.78 169.98 195.4 175.4 199.74 173.07C204.07 170.75 191.93 165.34 180.65 152.96Z" /><path fill-rule="evenodd" class="shp5" d="M180.65 154.51L168.5 157.6C182.03 170.25 195.4 173.85 198.86 172.3C202.34 170.75 191.64 166.41 180.65 154.51Z" /><path class="shp6" d="M135.34 121.24C135.38 121.44 135.47 122.32 135.56 122.68C135.56 123.16 135.61 123.54 135.67 123.92C135.8 124.25 135.78 124.56 136.21 124.68C136.5 125.08 136.68 125.19 137.07 125.35C137.33 125.55 137.73 125.75 138.15 125.92C138.58 126.08 138.97 126.11 139.44 126.02C139.82 125.78 140.09 125.54 140.41 125.35C140.48 125.05 140.55 124.6 140.62 124.3C140.51 124.61 140.43 125.1 140.41 125.54C140.45 126.02 140.63 126.22 140.84 126.59" /><path class="shp6" d="M139.33 127.64C139.37 127.61 139.4 127.58 139.44 127.54C139.18 127.77 139.29 127.66 139.87 127.35C140.29 127.16 140.73 127.06 141.27 126.97C141.77 126.97 142.28 126.97 142.78 126.97C143.37 126.97 143.76 127.05 144.18 127.16C144.48 127.43 144.94 127.58 145.26 127.83C145.59 128.03 145.73 128.26 145.9 128.59C146.2 128.85 146.39 129.25 146.66 129.45C146.78 129.89 147.03 129.88 147.2 130.22C146.69 130.25 146.28 130.31 146.01 130.6C145.56 130.8 146.39 130.4 146.55 130.22C146.9 130.12 147 130.03 147.52 130.03C148.01 129.89 148.31 130.14 148.81 130.22C149.11 130.37 149.19 130.41 149.57 130.41" /><path class="shp6" d="M145.15 132.41C145.37 132.42 146.37 132.59 146.77 132.41C147.21 132.31 147.47 132.1 147.74 131.74C147.87 131.49 147.74 132.2 147.74 132.51C147.79 133.07 147.97 133.07 148.28 133.46C148.59 133.64 148.92 133.89 149.25 134.03C149.52 134.24 149.85 134.38 150.22 134.51C150.54 134.65 150.92 134.79 151.19 134.99C151.55 135.22 151.51 135.49 151.72 135.85C151.68 136.32 151.6 136.58 151.29 136.8C151.17 137.13 150.88 137.45 150.65 137.66C150.38 138.1 150.09 138.31 150.75 138.43C151.12 138.57 151.33 138.46 151.72 138.43" /><path class="shp6" d="M151.94 139.09C152.2 139.03 153.14 138.76 153.56 138.62C154.06 138.62 154.56 138.62 155.07 138.62C155.65 138.66 155.76 138.81 156.25 139C156.57 139.28 156.78 139.48 157.22 139.67C157.45 139.93 157.9 140.38 158.08 140.72C158.21 141.04 158.3 141.48 158.3 141.96C158.29 142.51 158.13 142.61 158.08 143.1C157.96 143.51 157.77 143.89 157.44 144.25C157.39 144.37 157.36 144.4 157.22 144.44" /><path class="shp7" d="M157.07 145.69C157.12 145.69 157.22 145.93 157.38 146.14C157.73 146.49 157.77 146.52 158.3 146.52C158.77 146.5 158.73 146.33 159.06 146.22C159.22 145.97 159.42 145.78 159.6 145.46C159.72 145.26 159.83 144.96 159.98 144.78C160.12 144.56 160.3 144.39 160.44 144.18C160.58 144.12 160.64 144.06 160.82 144.03C160.38 144.1 160.34 144.26 160.06 144.48C159.92 144.7 159.79 144.92 159.68 145.16C159.63 145.48 159.53 145.74 159.52 146.14C159.52 146.56 159.52 146.85 159.68 147.19C159.86 147.38 159.99 147.57 160.21 147.72C160.39 147.89 160.61 148.12 160.75 148.33C160.99 148.47 161.16 148.59 161.44 148.78C161.67 148.91 161.91 149.05 162.28 149.08C162.73 149.05 162.86 148.92 163.2 148.78C163.48 148.57 163.71 148.43 163.96 148.25C164.16 148.11 164.36 147.84 164.5 147.65C164.91 147.54 165.17 147.59 165.41 147.8C165.62 147.94 165.81 148.12 165.95 148.33C166.07 148.39 166.28 148.56 166.41 148.63" /><path class="shp7" d="M165.5 148.81C165.38 148.86 164.94 149.16 164.74 149.28C164.62 149.67 164.43 149.89 164.36 150.31C164.26 150.72 164.27 151.17 164.27 151.63C164.37 152.11 164.57 152.46 164.74 152.85C165.04 153.05 165.19 153.2 165.6 153.41C165.98 153.46 166.35 153.51 166.84 153.51C167.12 153.6 167.69 153.65 167.98 153.51C168.4 153.45 168.72 153.28 169.02 153.13C169.37 152.93 169.59 152.75 169.97 152.57C170.16 152.3 170.45 152.05 170.74 151.72C170.97 151.4 171.15 151.23 171.31 150.87C171.17 151.28 170.95 151.63 170.83 152C170.61 152.4 170.49 152.55 170.45 153.04C170.32 153.43 170.35 153.9 170.35 154.35C170.4 154.66 170.42 155.23 170.55 155.48C170.55 155.58 170.55 155.67 170.55 155.76" /><path class="shp8" d="M179.57 157.27C179.57 157.31 179.57 157.36 179.57 157.4C179.57 157.03 179.58 157.22 179.42 157.95C179.13 158.27 178.45 158.36 177.89 158.22C177.39 157.86 177.41 157.58 176.51 157.4C175.64 157.46 175.31 157.68 174.83 157.95C174.25 158.2 173.98 158.33 173.6 158.9C173.41 159.37 173.31 159.68 173.91 159.86C174.39 160.16 174.96 160.33 175.59 160.4C176.3 160.4 176.81 160.33 177.12 160.68C177.61 161.12 177.58 161.39 177.58 162.18C177.74 162.42 177.78 163.14 177.89 163.4C178.31 163.58 178.56 163.68 179.26 163.68C179.43 163.26 179.61 162.49 179.72 162.04C179.84 161.55 179.88 160.87 180.18 160.54C180.47 160.16 180.83 159.84 181.25 159.58C181.44 159.35 181.8 159.16 182.17 159.04C181.57 159.31 181.49 159.61 181.41 160.27C181.93 160.5 182.07 160.67 182.94 160.68C183.78 160.61 183.99 160.42 184.31 159.99C184.37 160.68 184.62 160.91 184.77 161.49C185.09 161.91 185.22 162.33 185.54 162.86C185.4 163.52 185.11 163.55 185.08 164.36C184.88 164.89 184.9 165.4 184.47 165.72C184.27 165.94 184.13 165.98 183.7 166C184.59 166 185.1 165.91 185.69 165.59C186.15 165.34 186.49 165.03 186.92 164.77C187.46 164.42 188.13 164.1 188.75 163.95C189.46 163.95 189.97 163.88 190.28 164.22C190.72 164.5 191.01 164.98 191.2 165.59C191.34 166.3 191.4 166.77 191.05 167.23C190.79 167.75 190.73 167.96 191.05 168.59C191.4 169.03 191.93 169.09 192.73 169.27C193.31 169.24 193.87 169.13 194.26 169" /></g><g ><path fill-rule="evenodd" class="shp9" d="M97.18 85.89C78.5 53.64 66.1 26.2 69.5 24.63C72.91 23.06 90.83 47.96 109.51 80.21L97.18 85.89Z" /><path fill-rule="evenodd" class="shp10" d="M98.41 85.32C80.39 54.21 67.97 27.94 70.7 26.69C73.42 25.44 90.25 49.67 108.28 80.77" /><path fill-rule="evenodd" class="shp11" d="M101.51 69.09C103.7 72.73 106.02 76.89 108.28 80.77L98.41 85.32C96.16 81.43 93.7 77.33 91.64 73.63L101.51 69.09Z" /><path fill-rule="evenodd" class="shp11" d="M100.67 70.35C102.86 73.98 104.39 76.77 106.64 80.66L99.24 84.06C96.99 80.17 95.33 77.45 93.27 73.75L100.67 70.35Z" /><path class="shp11" d="M95.3 74.56L100.23 72.29L104.61 79.85L99.68 82.12L95.3 74.56Z" /><path fill-rule="evenodd" class="shp11" d="M95.3 74.56L104.61 79.85" /><path fill-rule="evenodd" class="shp11" d="M99.68 82.12L100.23 72.29" /><path fill-rule="evenodd" class="shp11" d="M73.01 36.07L77.94 33.8" /><path class="shp12" d="M73 32.51C72.23 32.32 71.75 31.62 71.92 30.94C72.1 30.27 72.86 29.88 73.63 30.07C74.4 30.26 74.88 30.97 74.71 31.64C74.53 32.32 73.77 32.71 73 32.51Z" /></g><g ><path fill-rule="evenodd" class="shp13" d="M112.11 69.42C112.11 96.5 112.27 106.7 110.28 108.1C108.39 109.6 55.72 108.1 55.72 115.83C55.72 123.57 99.1 131.3 112.11 131.3C129.46 131.3 138.14 123.57 138.14 108.1L138.14 69.42L112.11 69.42L112.11 69.42Z" /><path fill-rule="evenodd" class="shp1" d="M112.11 77.16L112.11 81.03C120.79 82.31 129.46 82.31 138.14 81.03L138.14 77.16C129.46 78.45 120.79 78.45 112.11 77.16L112.11 77.16Z" /><path fill-rule="evenodd" class="shp1" d="M112.11 69.42L112.11 73.29C120.79 74.58 129.46 74.58 138.14 73.29L138.14 69.42C129.46 70.71 120.79 70.71 112.11 69.42L112.11 69.42Z" /><path fill-rule="evenodd" class="shp1" d="M112.11 73.29L112.11 77.16C120.79 78.45 129.46 78.45 138.14 77.16L138.14 73.29C129.46 74.58 120.79 74.58 112.11 73.29L112.11 73.29Z" /><path fill-rule="evenodd" class="shp1" d="M112.11 81.03L112.11 84.89C120.79 86.18 129.46 86.18 138.14 84.89L138.14 81.03C129.46 82.31 120.79 82.31 112.11 81.03L112.11 81.03Z" /><path class="shp14" d="M113.29 76.32C112.64 76.32 112.11 75.95 112.11 75.49C112.11 75.03 112.64 74.65 113.29 74.65C113.95 74.65 114.48 75.03 114.48 75.49C114.48 75.95 113.95 76.32 113.29 76.32Z" /><path class="shp14" d="M118.03 76.74C117.37 76.74 116.84 76.37 116.84 75.91C116.84 75.44 117.37 75.07 118.03 75.07C118.68 75.07 119.21 75.44 119.21 75.91C119.21 76.37 118.68 76.74 118.03 76.74Z" /><path class="shp14" d="M122.76 77.16C122.1 77.16 121.58 76.78 121.58 76.32C121.58 75.86 122.1 75.49 122.76 75.49C123.41 75.49 123.94 75.86 123.94 76.32C123.94 76.78 123.41 77.16 122.76 77.16Z" /><path class="shp14" d="M127.49 77.16C126.84 77.16 126.31 76.78 126.31 76.32C126.31 75.86 126.84 75.49 127.49 75.49C128.15 75.49 128.67 75.86 128.67 76.32C128.67 76.78 128.15 77.16 127.49 77.16Z" /><path class="shp14" d="M132.22 76.74C131.57 76.74 131.04 76.37 131.04 75.91C131.04 75.44 131.57 75.07 132.22 75.07C132.88 75.07 133.41 75.44 133.41 75.91C133.41 76.37 132.88 76.74 132.22 76.74Z" /><path class="shp14" d="M136.96 76.32C136.3 76.32 135.77 75.95 135.77 75.49C135.77 75.03 136.3 74.65 136.96 74.65C137.61 74.65 138.14 75.03 138.14 75.49C138.14 75.95 137.61 76.32 136.96 76.32Z" /><path fill-rule="evenodd" class="shp1" d="M112.11 88.76L138.14 109.65" /><path fill-rule="evenodd" class="shp1" d="M114.71 88.76L138.14 107.33" /><path fill-rule="evenodd" class="shp1" d="M118.18 89.53L138.14 105" /><path fill-rule="evenodd" class="shp1" d="M120.79 89.53L138.14 102.68" /><path fill-rule="evenodd" class="shp1" d="M123.39 89.53L138.14 100.36" /><path fill-rule="evenodd" class="shp1" d="M125.99 89.53L138.14 98.04" /><path fill-rule="evenodd" class="shp1" d="M128.6 89.53L138.14 95.72" /><path fill-rule="evenodd" class="shp1" d="M131.2 89.53L138.14 94.18" /><path fill-rule="evenodd" class="shp1" d="M133.8 89.53L138.14 92.63" /><path fill-rule="evenodd" class="shp1" d="M136.4 89.53L138.14 91.08" /><path fill-rule="evenodd" class="shp1" d="M112.11 91.08L138.14 111.97" /><path fill-rule="evenodd" class="shp1" d="M138.14 88.76L109.51 111.97" /><path fill-rule="evenodd" class="shp1" d="M135.54 88.76L110.38 108.87" /><path fill-rule="evenodd" class="shp1" d="M132.07 89.53L112.11 105" /><path fill-rule="evenodd" class="shp1" d="M129.46 89.53L112.11 102.68" /><path fill-rule="evenodd" class="shp1" d="M126.86 89.53L112.11 100.36" /><path fill-rule="evenodd" class="shp1" d="M124.26 89.53L112.11 98.04" /><path fill-rule="evenodd" class="shp1" d="M121.65 89.53L112.11 95.72" /><path fill-rule="evenodd" class="shp1" d="M119.05 89.53L112.11 94.18" /><path fill-rule="evenodd" class="shp1" d="M116.45 89.53L112.11 92.63" /><path fill-rule="evenodd" class="shp1" d="M113.85 89.53L112.11 91.08" /><path fill-rule="evenodd" class="shp1" d="M138.14 91.08L109.51 114.29" /><path fill-rule="evenodd" class="shp1" d="M138.14 93.4L109.51 116.61" /><path fill-rule="evenodd" class="shp1" d="M138.14 95.72L109.51 118.93" /><path fill-rule="evenodd" class="shp1" d="M138.14 98.04L109.51 121.25" /><path fill-rule="evenodd" class="shp1" d="M138.14 100.36L109.51 123.57" /><path fill-rule="evenodd" class="shp1" d="M138.14 102.68L109.51 125.89" /><path fill-rule="evenodd" class="shp1" d="M138.14 105L109.51 128.21" /><path fill-rule="evenodd" class="shp1" d="M138.14 107.33L109.51 130.53" /><path fill-rule="evenodd" class="shp1" d="M138.14 109.65L111.24 131.3" /><path fill-rule="evenodd" class="shp1" d="M138.14 111.97L113.85 131.3" /><path fill-rule="evenodd" class="shp1" d="M137.27 115.06L118.18 130.53" /><path fill-rule="evenodd" class="shp1" d="M136.4 118.15L120.79 130.53" /><path fill-rule="evenodd" class="shp1" d="M134.67 122.02L126.86 128.21" /><path fill-rule="evenodd" class="shp1" d="M112.11 93.4L137.27 113.51" /><path fill-rule="evenodd" class="shp1" d="M112.11 95.72L137.27 115.83" /><path fill-rule="evenodd" class="shp1" d="M112.11 98.04L136.4 117.38" /><path fill-rule="evenodd" class="shp1" d="M112.11 100.36L136.4 119.7" /><path fill-rule="evenodd" class="shp1" d="M112.11 102.68L135.54 121.25" /><path fill-rule="evenodd" class="shp1" d="M111.24 104.23L134.67 122.8" /><path fill-rule="evenodd" class="shp1" d="M111.24 106.55L132.93 123.57" /><path fill-rule="evenodd" class="shp1" d="M110.38 108.1L132.07 125.12" /><path fill-rule="evenodd" class="shp1" d="M109.51 109.65L130.33 125.89" /><path fill-rule="evenodd" class="shp1" d="M109.51 111.97L129.46 127.44" /><path fill-rule="evenodd" class="shp1" d="M109.51 114.29L126.86 128.21" /><path fill-rule="evenodd" class="shp1" d="M112.11 84.89L112.11 88.76C120.79 90.05 129.46 90.05 138.14 88.76L138.14 84.89C129.46 86.18 120.79 86.18 112.11 84.89L112.11 84.89Z" /><path fill-rule="evenodd" class="shp1" d="M109.51 116.61L125.12 128.98" /><path fill-rule="evenodd" class="shp1" d="M109.51 118.93L123.39 129.76" /><path fill-rule="evenodd" class="shp1" d="M109.51 121.25L121.65 130.53" /><path fill-rule="evenodd" class="shp1" d="M109.51 123.57L118.18 130.53" /><path fill-rule="evenodd" class="shp1" d="M109.51 125.89L116.45 131.3" /><path fill-rule="evenodd" class="shp1" d="M109.51 128.21L113.85 131.3" /><path class="shp14" d="M113.29 87.93C112.64 87.93 112.11 87.55 112.11 87.09C112.11 86.63 112.64 86.26 113.29 86.26C113.95 86.26 114.48 86.63 114.48 87.09C114.48 87.55 113.95 87.93 113.29 87.93Z" /><path class="shp14" d="M118.03 88.34C117.37 88.34 116.84 87.97 116.84 87.51C116.84 87.05 117.37 86.67 118.03 86.67C118.68 86.67 119.21 87.05 119.21 87.51C119.21 87.97 118.68 88.34 118.03 88.34Z" /><path class="shp14" d="M122.76 88.76C122.1 88.76 121.58 88.39 121.58 87.93C121.58 87.46 122.1 87.09 122.76 87.09C123.41 87.09 123.94 87.46 123.94 87.93C123.94 88.39 123.41 88.76 122.76 88.76Z" /><path class="shp14" d="M127.49 88.76C126.84 88.76 126.31 88.39 126.31 87.93C126.31 87.46 126.84 87.09 127.49 87.09C128.15 87.09 128.67 87.46 128.67 87.93C128.67 88.39 128.15 88.76 127.49 88.76Z" /><path class="shp14" d="M132.22 88.34C131.57 88.34 131.04 87.97 131.04 87.51C131.04 87.05 131.57 86.67 132.22 86.67C132.88 86.67 133.41 87.05 133.41 87.51C133.41 87.97 132.88 88.34 132.22 88.34Z" /><path class="shp14" d="M136.96 87.93C136.3 87.93 135.77 87.55 135.77 87.09C135.77 86.63 136.3 86.26 136.96 86.26C137.61 86.26 138.14 86.63 138.14 87.09C138.14 87.55 137.61 87.93 136.96 87.93Z" /><path fill-rule="evenodd" class="shp1" d="M74.81 125.12L106.04 108.87" /><path fill-rule="evenodd" class="shp1" d="M73.07 124.34L102.57 108.87" /><path fill-rule="evenodd" class="shp1" d="M72.2 122.8L99.1 108.87" /><path fill-rule="evenodd" class="shp1" d="M71.34 121.25L94.76 108.87" /><path fill-rule="evenodd" class="shp1" d="M69.6 119.7L91.29 108.87" /><path fill-rule="evenodd" class="shp1" d="M70.47 117.38L85.22 109.65" /><path fill-rule="evenodd" class="shp1" d="M69.6 115.83L80.88 109.65" /><path fill-rule="evenodd" class="shp1" d="M69.6 113.51L77.41 109.65" /><path fill-rule="evenodd" class="shp1" d="M77.41 125.89L106.91 110.42" /><path fill-rule="evenodd" class="shp1" d="M80.01 126.66L107.77 111.97" /><path fill-rule="evenodd" class="shp1" d="M82.61 127.44L108.64 113.51" /><path fill-rule="evenodd" class="shp1" d="M85.22 128.21L106.91 116.61" /><path fill-rule="evenodd" class="shp1" d="M88.69 128.21L107.77 118.15" /><path fill-rule="evenodd" class="shp1" d="M91.29 128.98L107.77 120.48" /><path fill-rule="evenodd" class="shp1" d="M93.89 129.76L106.91 122.8" /><path fill-rule="evenodd" class="shp1" d="M97.36 129.76L107.77 124.34" /><path fill-rule="evenodd" class="shp1" d="M100.83 130.53L107.77 126.66" /><path fill-rule="evenodd" class="shp1" d="M104.3 130.53L108.64 128.21" /><path fill-rule="evenodd" class="shp1" d="M110.38 108.1L106.04 108.1C104.59 115.83 104.59 123.57 106.04 131.3L110.38 131.3C108.93 123.57 108.93 115.83 110.38 108.1L110.38 108.1Z" /><path fill-rule="evenodd" class="shp1" d="M59.19 118.93L69.6 111.19" /><path fill-rule="evenodd" class="shp1" d="M59.19 113.51L69.6 122.8" /><path fill-rule="evenodd" class="shp10" d="M74.81 109.65L69.6 110.42C68.44 115.32 68.44 119.44 69.6 124.34L74.81 125.89C73.65 120.99 73.65 114.54 74.81 109.65Z" /><path fill-rule="evenodd" class="shp15" d="M138.11 70.97L138.11 67.07C134.21 67.1 131.61 64.78 131.61 62.43L118.61 62.46C118.61 64.78 116.01 67.1 112.11 67.1L112.11 70.97L138.11 70.97Z" /><path class="shp1" d="M119.54 57.82L130.68 57.82L130.68 62.46L119.54 62.46L119.54 57.82Z" /><path class="shp1" d="M120.47 53.18L129.75 53.18L129.75 57.82L120.47 57.82L120.47 53.18Z" /><path class="shp1" d="M120.47 48.54L129.75 48.54L129.75 53.18L120.47 53.18L120.47 48.54Z" /><path class="shp1" d="M121.4 42.35L128.82 42.35L128.82 48.54L121.4 48.54L121.4 42.35Z" /><path class="shp1" d="M121.08 36.93L129.14 36.93L129.14 42.35L121.08 42.35L121.08 36.93Z" /><path class="shp5" d="M125.56 39.26C119.61 39.26 114.8 35.97 114.8 31.91C114.8 27.84 119.61 24.56 125.56 24.56C131.51 24.56 136.32 27.84 136.32 31.91C136.32 35.97 131.51 39.26 125.56 39.26Z" /><path fill-rule="evenodd" class="shp5" d="M130.94 31.52C130.94 33.55 133.63 36.93 133.63 36.93C131.68 38.26 128.53 39.26 125.56 39.26C122.59 39.26 118.89 38.7 117.49 36.93C117.49 36.93 120.18 33.55 120.18 31.52C120.18 29.49 117.49 26.88 117.49 26.88C119.44 25.55 122.59 24.56 125.56 24.56C128.53 24.56 131.68 25.55 133.63 26.88C133.63 26.88 130.94 29.49 130.94 31.52Z" /><path fill-rule="evenodd" class="shp5" d="M129.14 31.52C129.14 33.55 131.83 37.71 131.83 37.71C129.89 39.04 128.53 39.26 125.56 39.26C122.59 39.26 120.69 39.48 119.28 37.71C119.28 37.71 121.97 33.55 121.97 31.52C121.97 29.49 119.28 26.11 119.28 26.11C121.23 24.78 122.59 24.56 125.56 24.56C128.53 24.56 129.89 24.78 131.83 26.11C131.83 26.11 129.14 29.49 129.14 31.52Z" /><path class="shp5" d="M114.8 34.61C113.31 34.61 112.11 33.58 112.11 32.29C112.11 31.01 113.31 29.97 114.8 29.97C116.29 29.97 117.49 31.01 117.49 32.29C117.49 33.58 116.29 34.61 114.8 34.61Z" /><path class="shp5" d="M136.32 34.61C134.83 34.61 133.63 33.58 133.63 32.29C133.63 31.01 134.83 29.97 136.32 29.97C137.8 29.97 139.01 31.01 139.01 32.29C139.01 33.58 137.8 34.61 136.32 34.61Z" /><path class="shp5" d="M125.56 34.61C124.07 34.61 122.87 33.58 122.87 32.29C122.87 31.01 124.07 29.97 125.56 29.97C127.05 29.97 128.25 31.01 128.25 32.29C128.25 33.58 127.05 34.61 125.56 34.61Z" /><path class="shp5" d="M125.56 26.88C124.07 26.88 122.87 25.84 122.87 24.56C122.87 23.28 124.07 22.24 125.56 22.24C127.05 22.24 128.25 23.28 128.25 24.56C128.25 25.84 127.05 26.88 125.56 26.88Z" /><path class="shp16" d="M117.68 70.97C116.14 70.97 114.9 69.93 114.9 68.65C114.9 67.37 116.14 66.33 117.68 66.33C119.22 66.33 120.47 67.37 120.47 68.65C120.47 69.93 119.22 70.97 117.68 70.97Z" /><path class="shp16" d="M132.54 70.97C131 70.97 129.75 69.93 129.75 68.65C129.75 67.37 131 66.33 132.54 66.33C134.08 66.33 135.32 67.37 135.32 68.65C135.32 69.93 134.08 70.97 132.54 70.97Z" /><path fill-rule="evenodd" class="shp16" d="M118.61 62.46L131.61 62.46L125.11 69.42L118.61 62.46L118.61 62.46Z" /><path class="shp16" d="M125.11 70.97C123.06 70.97 121.4 69.59 121.4 67.88C121.4 66.16 123.06 64.78 125.11 64.78C127.16 64.78 128.82 66.16 128.82 67.88C128.82 69.59 127.16 70.97 125.11 70.97Z" /></g><g ><path class="shp1" d="M110.81 92.06C110.81 91.52 111.3 91.09 111.89 91.09L129.68 91.09C130.28 91.09 130.77 91.52 130.77 92.06L130.77 94.77C130.77 95.3 130.28 95.73 129.68 95.73L111.89 95.73C111.3 95.73 110.81 95.3 110.81 94.77L110.81 92.06Z" /><path fill-rule="evenodd" class="shp1" d="M141.18 91.27L141.18 94.78C141.18 97.02 139.24 98.83 136.84 98.83C134.44 98.83 132.5 97.02 132.5 94.78L132.5 91.27C132.5 89.03 134.44 87.22 136.84 87.22C139.24 87.22 141.18 89.03 141.18 91.27ZM134.24 92.01L134.24 94.05C134.24 95.84 135.4 97.28 136.84 97.28C138.28 97.28 139.44 95.84 139.44 94.05L139.44 92.01C139.44 90.21 138.28 88.77 136.84 88.77C135.4 88.77 134.24 90.21 134.24 92.01Z" /><path fill-rule="evenodd" class="shp1" d="M114.28 86.45C116.68 86.45 118.62 88.25 118.62 90.49L118.62 95.56C118.62 97.8 116.68 99.6 114.28 99.6C111.88 99.6 109.94 97.8 109.94 95.56L109.94 90.49C109.94 88.25 111.88 86.45 114.28 86.45ZM114.28 88C112.84 88 111.68 89.44 111.68 91.23L111.68 94.82C111.68 96.61 112.84 98.05 114.28 98.05C115.72 98.05 116.88 96.61 116.88 94.82L116.88 91.23C116.88 89.44 115.72 88 114.28 88Z" /><path fill-rule="evenodd" class="shp1" d="M107.34 88C109.74 88 111.68 89.8 111.68 92.04L111.68 94.36C111.68 96.6 109.74 98.4 107.34 98.4C104.94 98.4 103 96.6 103 94.36L103 92.04C103 89.8 104.94 88 107.34 88ZM107.34 89.54C105.9 89.54 104.74 90.99 104.74 92.78L104.74 93.62C104.74 95.41 105.9 96.86 107.34 96.86C108.78 96.86 109.94 95.41 109.94 93.62L109.94 92.78C109.94 90.99 108.78 89.54 107.34 89.54Z" /><path fill-rule="evenodd" class="shp17" d="M96.93 85.68C101.26 85.68 104.74 87.69 104.74 90.2L104.74 95.86C104.74 98.36 101.26 100.37 96.93 100.37C92.6 100.37 89.12 98.36 89.12 95.86L89.12 90.2C89.12 87.69 92.6 85.68 96.93 85.68ZM96.93 87.41C94.33 87.41 92.24 89.02 92.24 91.02L92.24 95.03C92.24 97.03 94.33 98.64 96.93 98.64C99.52 98.64 101.61 97.03 101.61 95.03L101.61 91.02C101.61 89.02 99.52 87.41 96.93 87.41Z" /><path fill-rule="evenodd" class="shp17" d="M153.32 86.45C157.65 86.45 161.13 88.47 161.13 90.97L161.13 96.63C161.13 99.13 157.65 101.15 153.32 101.15C149 101.15 145.51 99.13 145.51 96.63L145.51 90.97C145.51 88.47 149 86.45 153.32 86.45ZM153.32 88.18C150.73 88.18 148.64 89.79 148.64 91.79L148.64 95.8C148.64 97.81 150.73 99.42 153.32 99.42C155.92 99.42 158.01 97.81 158.01 95.8L158.01 91.79C158.01 89.79 155.92 88.18 153.32 88.18Z" /><path class="shp1" d="M138.57 91.6C138.57 91.32 138.83 91.09 139.14 91.09L148.42 91.09C148.73 91.09 148.98 91.32 148.98 91.6L148.98 95.23C148.98 95.51 148.73 95.73 148.42 95.73L139.14 95.73C138.83 95.73 138.57 95.51 138.57 95.23L138.57 91.6Z" /><path class="shp1" d="M129.03 90.61C129.03 90.45 129.18 90.32 129.36 90.32L134.77 90.32C134.96 90.32 135.1 90.45 135.1 90.61L135.1 96.21C135.1 96.37 134.96 96.51 134.77 96.51L129.36 96.51C129.18 96.51 129.03 96.37 129.03 96.21L129.03 90.61Z" /><path class="shp1" d="M100.4 90.61C100.4 90.45 100.55 90.32 100.73 90.32L106.14 90.32C106.33 90.32 106.47 90.45 106.47 90.61L106.47 96.21C106.47 96.37 106.33 96.51 106.14 96.51L100.73 96.51C100.55 96.51 100.4 96.37 100.4 96.21L100.4 90.61Z" /><path class="shp1" d="M81.31 90.13C81.31 89.81 81.61 89.54 81.97 89.54L92.8 89.54C93.16 89.54 93.46 89.81 93.46 90.13L93.46 96.69C93.46 97.02 93.16 97.28 92.8 97.28L81.97 97.28C81.61 97.28 81.31 97.02 81.31 96.69L81.31 90.13Z" /><path class="shp1" d="M156.79 90.86C156.79 90.56 157.07 90.32 157.4 90.32L167.46 90.32C167.8 90.32 168.07 90.56 168.07 90.86L168.07 97.51C168.07 97.81 167.8 98.05 167.46 98.05L157.4 98.05C157.07 98.05 156.79 97.81 156.79 97.51L156.79 90.86Z" /></g></g></g></g></svg>