<svg version="1.2" baseProfile="tiny-ps" xmlns="http://www.w3.org/2000/svg" viewBox="0 0 900 600" width="900" height="600"><title></title><defs><clipPath clipPathUnits="userSpaceOnUse" id="cp1"><path d="M0 0L450 0L450 300L0 300L0 0Z" /></clipPath></defs><style>tspan { white-space:pre }.shp0 { fill: #cf142b } .shp1 { fill: #ffffff } .txt2 { font-size: 24px;fill: #000000;font-family: "Arial" } .shp3 { fill: #00247d } .shp4 { fill: #000000;stroke: #ffffff;stroke-width: 51.992 } .shp5 { fill: none;stroke: #ffffff;stroke-width: 86.653 } .shp6 { fill: none;stroke: #cf142b;stroke-width: 51.992 } </style><path class="shp0" d="M0 0L900 0L900 600L0 600L0 0Z" /><path class="shp1" d="M675 450C592.05 450 525 382.95 525 300C525 217.05 592.05 150 675 150C757.95 150 825 217.05 825 300C825 382.95 757.95 450 675 450Z" /><g ><text style="transform: matrix(-1,-1.732,1.732,-1,602.986,358.332)" ><tspan x="0" y="0" class="txt2">P
</tspan></text><text style="transform: matrix(0,-2,2,0,583.362,313.906)" ><tspan x="0" y="0" class="txt2">A
</tspan></text><text style="transform: matrix(1,-1.732,1.732,1,590.416,262.554)" ><tspan x="0" y="0" class="txt2">L
</tspan></text><text style="transform: matrix(1.732,-1,1,1.732,617.65,227.452)" ><tspan x="0" y="0" class="txt2">E
</tspan></text><text style="transform: matrix(2,0,0,2,663.772,208.214)" ><tspan x="0" y="0" class="txt2">S
</tspan></text><text style="transform: matrix(1.732,1,-1,1.732,710.206,214.67)" ><tspan x="0" y="0" class="txt2">T
</tspan></text><text style="transform: matrix(1,1.732,-1.732,1,751.812,249.106)" ><tspan x="0" y="0" class="txt2">I
</tspan></text><text style="transform: matrix(0,2,-2,0,766.26,279.072)" ><tspan x="0" y="0" class="txt2">N
</tspan></text><text style="transform: matrix(-1,1.732,-1.732,-1,762.584,331.652)" ><tspan x="0" y="0" class="txt2">E
</tspan></text></g><g clip-path="url(#cp1)"><g ><path class="shp3" d="M0 0L450 0L450 300L0 300L0 0Z" /><path class="shp4" d="M450 0L0 300M0 0L450 300" /><path class="shp5" d="M225 0L225 300" /><path class="shp5" d="M0 150L450 150" /><path class="shp6" d="M225 0L225 300" /><path class="shp6" d="M0 150L450 150" /></g></g></svg>