<svg version="1.2" baseProfile="tiny-ps" xmlns="http://www.w3.org/2000/svg" viewBox="0 0 600 400" width="900" height="600"><title></title><style>tspan { white-space:pre }.shp0 { fill: #ff0000 } .shp1 { fill: #006600 } .shp2 { fill: #ffff00;stroke: #000000;stroke-linecap:round;stroke-linejoin:round;stroke-width: 0.573 } .shp3 { fill: #ffff00;stroke: #000000;stroke-linecap:round;stroke-linejoin:round;stroke-width: 0.55 } .shp4 { fill: #ffffff;stroke: #000000;stroke-width: 0.67 } .shp5 { fill: #ff0000;stroke: #000000;stroke-width: 0.507 } .shp6 { fill: #ffff00 } .shp7 { fill: #ffff00;stroke: #000000;stroke-width: 0.5 } .shp8 { fill: #000000 } .shp9 { fill: #003399 } .shp10 { fill: #ffffff } </style><path class="shp0" d="M0 0L600 0L600 400L0 400L0 0Z" /><path class="shp1" d="M0 0L240 0L240 400L0 400L0 0Z" /><g ><path fill-rule="evenodd" class="shp2" d="M318.24 262.04C288.03 261.13 149.5 174.66 148.55 160.89L156.2 148.13C169.94 168.1 311.56 252.19 325.47 249.21L318.24 262.04" /><path fill-rule="evenodd" class="shp2" d="M154.59 146.4L154.59 146.4L154.75 146.08L155.93 144.03L156.06 144.03C156.01 144.98 156.28 146.21 156.66 146.88C162.18 156.56 197.68 179.37 238.47 204.11C279.27 228.85 312.22 243.97 324.85 247.61C326.97 248.23 328.34 247.96 328.9 247.12C329.02 247.1 327.73 249.31 327.55 249.64C324.56 252.16 284.25 234.59 237.49 206.15C190.74 177.72 151.88 153.69 154.59 146.4L154.59 146.4ZM318.95 262.44C318.44 263.37 317.48 263.4 315.67 263.2C304.37 261.95 270.08 245.28 229.51 220.99C182.3 192.73 143.31 166.98 147.54 160.25L148.69 158.21L148.91 158.28C145.11 169.69 225.86 215.86 230.62 218.81C277.34 247.75 316.73 264.66 320.22 260.26L318.95 262.45L318.95 262.44L318.95 262.44Z" /><path fill-rule="evenodd" class="shp2" d="M240.17 169.23C270.41 168.99 307.72 165.1 329.19 156.54L324.57 149.02C311.87 156.05 274.36 160.67 239.91 161.36C199.18 160.98 170.42 157.19 156.02 147.52L151.65 155.53C178.13 166.73 205.27 169.11 240.17 169.23" /><path fill-rule="evenodd" class="shp2" d="M330.44 156.71C329.7 157.89 315.7 162.72 295.07 166.29C281.08 168.42 262.83 170.24 240.06 170.26C218.43 170.28 200.76 168.74 187.38 166.93C165.72 163.53 154.55 158.81 150.41 157.14C150.81 156.35 151.06 155.8 151.44 155.07C163.34 159.81 174.57 162.66 187.72 164.69C201.01 166.49 218.47 168.05 240 168.03C262.66 168 280.71 166.04 294.62 163.97C315.77 160.56 327.33 156.17 328.95 154.13L330.44 156.71L330.44 156.71ZM326.38 149.09C324.09 150.93 312.66 154.98 292.56 158.19C279.15 160.11 262.09 161.83 240.3 161.86C219.59 161.88 202.68 160.48 189.81 158.61C169.4 155.94 158.53 151.13 154.61 149.73C155 149.05 155.4 148.39 155.81 147.72C158.86 149.25 169.34 153.51 190.03 156.44C202.75 158.24 219.7 159.59 240.3 159.56C261.99 159.54 278.85 157.79 292.18 155.88C312.38 153.1 323.26 147.93 324.91 146.63L326.38 149.09L326.38 149.09L326.38 149.09Z" /><path fill-rule="evenodd" class="shp2" d="M140.88 205.66C159.48 215.66 200.78 220.7 239.87 221.05C275.46 221.11 321.83 215.55 339.17 206.36L338.69 196.35C333.27 204.83 283.58 212.96 239.49 212.63C195.39 212.29 154.45 205.48 140.8 196.67L140.88 205.66" /><path fill-rule="evenodd" class="shp2" d="M340.12 204.22L340.12 204.22C336 207.9 315.05 213.42 300.35 215.55C284.86 217.92 264.64 219.71 239.42 219.71C215.47 219.71 196.39 218.01 181.6 215.74C173.35 214.39 148.76 209.97 139.69 203.94L139.67 206.73C142.69 208.52 157.74 214.52 181.27 217.94C196.16 220.23 215.35 221.94 239.42 221.94C264.76 221.94 285.09 220.14 300.68 217.75C321.17 214.43 337.51 209.72 340.12 206.61L340.12 204.22L340.12 204.22ZM340.13 195.73L340.13 195.73C336.01 199.4 315.06 204.93 300.36 207.05C284.87 209.43 264.65 211.22 239.43 211.22C215.48 211.22 196.4 209.51 181.61 207.24C173.36 205.89 148.77 201.48 139.7 195.45L139.68 198.23C142.7 200.02 157.75 206.02 181.28 209.45C196.17 211.74 215.36 213.45 239.43 213.45C264.77 213.45 285.1 211.65 300.69 209.26C321.18 205.94 337.52 201.23 340.13 198.12L340.13 195.73L340.13 195.73Z" /><path fill-rule="evenodd" class="shp2" d="M239.79 260.32C197.02 260.07 160.37 248.66 152.63 246.78L158.27 255.61C171.94 261.36 207.7 269.93 240.2 268.98C272.7 268.03 301.11 265.52 321.13 255.77L326.91 246.61C313.27 253.04 266.85 260.25 239.79 260.32" /><path fill-rule="evenodd" class="shp3" d="M323.3 253.72L323.3 253.72C323.3 253.72 323.3 253.72 323.3 253.72L323.3 253.72ZM323.3 253.72L322.61 254.11C319.91 255.6 311.11 258.88 289.34 263.25C275.14 265.79 257.58 267.86 240.05 267.8C212.44 267.13 183.3 263.43 157.35 254.14L155.35 253.37L155.16 253.67L156.34 255.7C170.93 262.02 201.94 269.44 239.83 270C257.44 269.99 277.28 268.04 290.11 265.39C296.38 264.37 311.26 260.88 320.7 257.55C321.58 256.3 322.45 255.02 323.3 253.72ZM323.3 253.72L323.3 253.72C323.3 253.72 323.3 253.72 323.3 253.72L323.3 253.72ZM328.32 245.44L328.32 245.44L325.8 246.39C325.85 246.45 325.91 246.52 325.95 246.59C322.43 247.69 310.71 251.52 287.44 255.14C274.4 256.92 264.21 258.68 240.28 259.19C208.3 258.66 179.28 253.49 150.88 246.07L151.99 248.21C159.53 250.58 191.27 260.16 240.28 261.41C266.44 260.9 274.61 259.17 287.76 257.37C307.72 254.58 321.38 250.58 326.42 248.78C327.09 247.69 327.75 246.6 328.38 245.52C328.36 245.5 328.34 245.47 328.32 245.44L328.32 245.44Z" /><path fill-rule="evenodd" class="shp2" d="M239.64 101.42C294.13 101.42 338.94 145.76 338.94 200.12C338.94 254.48 294.13 298.82 239.64 298.82C185.16 298.82 140.72 254.49 140.72 200.12C140.72 145.76 185.16 101.42 239.64 101.42ZM309.2 144.57C291.16 122.79 265.04 111.83 242.68 111.23C223.3 110.72 200.04 117.87 182.56 132.54C165.09 147.21 153.03 168.6 151.29 199.31C151.66 226.49 163.08 246.66 177.11 262.55C184.28 270.67 211.03 289.17 239.4 288.65C264.81 288.18 286.56 278.04 302.97 262.28C314.57 251.15 328.97 225.9 328.83 197.76C326.15 174.31 321.03 158.83 309.2 144.57Z" /><path fill-rule="evenodd" class="shp2" d="M338.92 200.1C338.92 254.64 294.44 299.12 239.91 299.12C185.38 299.12 140.9 254.64 140.9 200.1C140.9 145.56 185.38 101.08 239.91 101.08C294.44 101.08 338.92 145.56 338.92 200.1ZM143.08 200.1C143.08 253.36 186.81 296.94 239.91 296.94C293.01 296.94 336.74 253.36 336.74 200.1C336.74 146.84 293.01 103.26 239.91 103.26C186.81 103.26 143.08 146.84 143.08 200.1Z" /><path fill-rule="evenodd" class="shp2" d="M330.68 200.01C330.68 249.9 289.72 290.72 239.99 290.72C190.26 290.72 149.3 249.9 149.3 200.01C149.3 150.13 190.26 109.31 239.99 109.31C289.72 109.31 330.68 150.13 330.68 200.01ZM151.48 200.01C151.48 248.7 191.45 288.54 239.99 288.54C288.53 288.54 328.5 248.7 328.5 200.01C328.5 151.33 288.53 111.49 239.99 111.49C191.45 111.49 151.48 151.33 151.48 200.01Z" /><path fill-rule="evenodd" class="shp2" d="M243.98 100.68L235.49 100.68L235.5 299.64L244.02 299.64L243.98 100.68Z" /><path fill-rule="evenodd" class="shp2" d="M243.13 99.55L243.15 300.8L245.31 300.8L245.29 99.55L243.13 99.55ZM234.71 99.55L234.71 300.8L236.89 300.8L236.89 99.55L234.71 99.55Z" /><path fill-rule="evenodd" class="shp2" d="M338.99 203.94L338.99 196.58L333 191L299 182L250 177L191 180L149 190L140.52 196.28L140.52 203.64L162 194L213 186L262 186L298 190L323 196L338.99 203.94Z" /><path fill-rule="evenodd" class="shp2" d="M239.95 184.77C215.27 184.81 192.38 187.1 174.65 190.56C154.98 194.49 140.96 200.17 139.66 203.97L139.66 206.66C142.02 201.17 160.85 195.61 174.97 192.8C192.56 189.37 215.41 187.05 239.95 187C263.2 186.96 285.74 189.2 303.6 192.67C317.14 195.39 334.73 200.15 340.12 206.64L340.12 204.06C335.65 198.85 322.58 194.2 304.01 190.49C286.02 186.99 263.33 184.73 239.95 184.77L239.95 184.77ZM239.96 176.28C215.28 176.32 192.39 178.61 174.66 182.06C155.27 185.84 140.96 191.72 139.67 195.48L139.67 198.17C141.86 192.68 161.46 186.9 175.08 184.31C192.68 180.88 215.42 178.56 239.96 178.51C263.21 178.47 285.75 180.71 303.61 184.18C317.15 186.9 334.74 191.66 340.13 198.15L340.13 195.57C335.66 190.35 322.59 185.71 304.02 182C286.03 178.5 263.34 176.24 239.96 176.28L239.96 176.28Z" /><path fill-rule="evenodd" class="shp2" d="M239.48 132.96C276.33 132.78 308.47 138.11 323.17 145.65L328.54 154.92C315.76 148.04 281.08 140.87 239.53 141.94C205.68 142.15 169.51 145.67 151.36 155.35L157.76 144.65C172.66 136.92 207.78 133 239.48 132.96" /><path fill-rule="evenodd" class="shp2" d="M239.97 140.62C260.99 140.56 281.3 141.75 297.45 144.66C312.49 147.46 326.83 151.66 328.88 153.92L330.47 156.73C325.48 153.48 313.07 149.85 297.13 146.83C281.13 143.82 260.83 142.82 239.93 142.88C216.21 142.8 197.78 144.05 181.96 146.81C165.24 149.94 153.63 154.41 150.77 156.53L152.33 153.56C157.89 150.72 166.72 147.3 181.55 144.63C197.91 141.64 216.53 140.75 239.97 140.62L239.97 140.62L239.97 140.62ZM239.96 132.14C260.07 132.08 279.93 133.2 295.41 135.99C307.62 138.36 319.7 142.07 324.12 145.38L326.44 149.07C322.49 144.68 307.61 140.51 294.47 138.18C279.11 135.53 260.07 134.48 239.96 134.31C218.85 134.37 199.35 135.67 184.21 138.42C169.77 141.17 160.45 144.42 156.51 146.96L158.55 143.88C163.99 141.01 172.78 138.38 183.85 136.23C199.1 133.45 218.73 132.19 239.96 132.14L239.96 132.14Z" /><path fill-rule="evenodd" class="shp2" d="M289.15 241.26C270.93 237.86 252.68 237.37 239.93 237.52C178.53 238.23 158.69 250.12 156.27 253.72L151.68 246.24C167.31 234.91 200.75 228.56 240.27 229.21C260.78 229.54 278.49 230.9 293.38 233.79L289.15 241.26" /><path fill-rule="evenodd" class="shp3" d="M239.58 236.46C239.58 236.46 239.58 236.46 239.58 236.46L239.58 236.46L239.58 236.46ZM239.58 236.46L239.58 236.46C217.8 236.61 196.42 237.71 173.56 244.26C161.78 247.57 155.48 251.67 155.15 253.65L156.31 255.57C157.38 252.22 167.8 248.18 174.1 246.42C194.05 240.7 216.97 238.58 239.64 238.76C257.39 238.67 273.41 239.73 288.44 242.51L289.61 240.44C273.43 237.42 256.66 236.71 239.58 236.46ZM240.36 227.86C217.44 227.91 193.27 229.56 171.17 235.98C161.65 238.75 151.08 242.93 150.81 246.14L151.98 248.2C152.38 244.67 164.6 240.21 171.68 238.15C193.61 231.78 217.72 230.16 240.46 230.12C261.51 230.44 276.83 231.5 292.87 234.69L294.1 232.53C276.33 229.01 258.05 228.19 240.36 227.86L240.36 227.86Z" /><path fill-rule="evenodd" class="shp2" d="M327.58 247.38L320.2 258.83L299 240L244 203L182 169L149.81 157.99L156.67 145.27L159 144L179 149L245 183L283 207L315 230L328 245L327.58 247.38Z" /><path fill-rule="evenodd" class="shp2" d="M148.65 158.29L147.4 160.68C151.36 155.8 190.93 172.86 238.4 201.17C287.1 230.58 316.45 254 318.29 260.07C319.07 262.07 318.51 262.84 318.37 262.96L318.92 262.53L320.15 260.6C323.88 255.04 282.51 225.38 239.21 199.12C195.79 172.94 154.3 154.46 148.65 158.29L148.65 158.29ZM318.35 262.97C318.36 262.97 318.36 262.97 318.37 262.96L318.35 262.97ZM148.65 158.29L148.65 158.29L148.65 158.29L148.65 158.29ZM329.09 247.22C332.66 240.16 294.17 211.17 246.46 182.94C197.65 155.28 162.46 138.99 156.04 143.85L154.61 146.45C154.6 146.59 154.66 146.27 154.96 146.04C156.13 145.02 158.07 145.09 158.94 145.07C170.01 145.24 201.61 159.78 245.95 185.2C265.38 196.52 328.02 236.69 327.78 247.99C327.79 248.78 327.84 249.06 327.66 249.39L329.09 247.22L329.09 247.22L329.09 247.22ZM327.66 249.39L327.5 249.64C327.57 249.55 327.62 249.47 327.66 249.39Z" /></g><g ><path class="shp4" d="M180.6 211.01C180.6 227.28 187.26 242 198.06 252.75C208.87 263.53 223.57 270.33 239.87 270.33C256.25 270.33 271.11 263.68 281.88 252.94C292.65 242.21 299.32 227.39 299.33 211.06L299.33 211.06L299.33 131.87L180.59 131.73L180.6 211.01L180.6 211.01L180.6 211.01Z" /><path fill-rule="evenodd" class="shp5" d="M182.82 211.12L182.89 134.37L296.73 134.39L296.73 211.22L296.73 211.22C296.73 226.83 290.34 240.99 280.03 251.26C269.72 261.53 255.49 267.89 239.81 267.89C224.21 267.89 209.95 261.48 199.59 251.17C189.26 240.89 182.82 226.72 182.82 211.16L182.82 211.12M273.84 157.37L273.84 157.37L205.9 157.25L205.91 211.27C205.91 220.23 209.59 228.9 215.94 235.22C222.13 241.38 230.44 245.32 239.77 245.32C249.15 245.32 257.65 241.51 263.82 235.38C269.08 230.14 272.64 223.4 273.56 215.67C273.72 214.35 273.8 212.8 273.8 211.44L273.8 211.44L273.84 206.26L273.84 157.37L273.84 157.37Z" /><g ><g ><path class="shp6" d="M190.19 154.43C190.32 148.91 194.24 147.6 194.27 147.58C194.3 147.56 198.5 148.99 198.49 154.48L190.19 154.43" /><path class="shp7" d="M186.81 147.69L186.13 154.03L190.27 154.04C190.31 148.79 194.24 147.92 194.34 147.94C194.43 147.94 198.33 149.1 198.43 154.04L202.58 154.04L201.83 147.65L186.81 147.69L186.81 147.69L186.81 147.69Z" /><path class="shp7" d="M185.85 154.06L202.8 154.06C203.15 154.06 203.45 154.41 203.45 154.84C203.45 155.27 203.15 155.63 202.8 155.63L185.85 155.63C185.49 155.63 185.2 155.27 185.2 154.84C185.2 154.41 185.49 154.06 185.85 154.06Z" /><path class="shp7" d="M192.01 154.03C192.03 150.72 194.27 149.78 194.28 149.78C194.28 149.78 196.63 150.75 196.64 154.03L192.01 154.03" /><path class="shp7" d="M186.21 145.05L202.46 145.05C202.8 145.05 203.08 145.37 203.08 145.75C203.08 146.14 202.8 146.46 202.46 146.46L186.21 146.46C185.87 146.46 185.59 146.14 185.59 145.75C185.59 145.37 185.87 145.05 186.21 145.05Z" /><path class="shp7" d="M186.55 146.47L202.09 146.47C202.42 146.47 202.68 146.79 202.68 147.17C202.68 147.56 202.42 147.88 202.09 147.88L186.55 147.88C186.22 147.88 185.95 147.56 185.95 147.17C185.95 146.79 186.22 146.47 186.55 146.47Z" /><path class="shp7" d="M191.57 135.88L192.8 135.88L192.8 136.75L193.69 136.75L193.69 135.86L194.95 135.87L194.95 136.75L195.85 136.75L195.85 135.86L197.1 135.86L197.1 137.87C197.1 138.19 196.85 138.4 196.55 138.4L192.14 138.4C191.85 138.4 191.57 138.16 191.57 137.87L191.57 135.88L191.57 135.88L191.57 135.88Z" /><path class="shp7" d="M196.19 138.57L196.47 145.02L192.16 145.01L192.45 138.55L196.19 138.57" /><path class="shp7" d="M190.94 141.56L191.07 145.04L186.95 145.04L187.06 141.56L190.94 141.56L190.94 141.56L190.94 141.56Z" /><path class="shp7" d="M201.55 141.56L201.68 145.04L197.55 145.04L197.67 141.56L201.55 141.56L201.55 141.56L201.55 141.56Z" /><path class="shp7" d="M186.3 139.04L187.5 139.04L187.5 139.92L188.38 139.92L188.38 139.02L189.61 139.03L189.61 139.92L190.49 139.92L190.49 139.02L191.72 139.03L191.71 141.04C191.71 141.35 191.47 141.56 191.18 141.56L186.86 141.56C186.57 141.56 186.3 141.32 186.3 141.03L186.3 139.04L186.3 139.04L186.3 139.04Z" /><path class="shp7" d="M196.91 139.04L198.11 139.04L198.11 139.92L198.99 139.92L198.99 139.02L200.22 139.03L200.22 139.92L201.09 139.92L201.09 139.02L202.32 139.03L202.32 141.04C202.32 141.35 202.07 141.56 201.79 141.56L197.47 141.56C197.18 141.56 196.91 141.32 196.91 141.03L196.91 139.04L196.91 139.04L196.91 139.04Z" /><path class="shp8" d="M193.9 140.61C193.87 139.98 194.78 139.98 194.77 140.61L194.77 142.15L193.9 142.15L193.9 140.61" /><path class="shp8" d="M188.57 142.84C188.57 142.23 189.41 142.22 189.4 142.84L189.4 144.03L188.57 144.03L188.57 142.84" /><path class="shp8" d="M199.21 142.84C199.21 142.23 200.05 142.22 200.04 142.84L200.04 144.03L199.21 144.03L199.21 142.84" /></g><g ><path class="shp6" d="M190.19 200.75C190.32 195.23 194.24 193.92 194.27 193.9C194.3 193.88 198.5 195.31 198.49 200.8L190.19 200.75" /><path class="shp7" d="M186.81 194.01L186.13 200.35L190.27 200.36C190.31 195.11 194.24 194.24 194.34 194.26C194.43 194.26 198.33 195.42 198.43 200.36L202.58 200.36L201.83 193.97L186.81 194.01L186.81 194.01L186.81 194.01Z" /><path class="shp7" d="M185.85 200.38L202.8 200.38C203.15 200.38 203.45 200.73 203.45 201.16C203.45 201.59 203.15 201.95 202.8 201.95L185.85 201.95C185.49 201.95 185.2 201.59 185.2 201.16C185.2 200.73 185.49 200.38 185.85 200.38Z" /><path class="shp7" d="M192.01 200.35C192.03 197.04 194.27 196.1 194.28 196.1C194.28 196.1 196.63 197.07 196.64 200.35L192.01 200.35" /><path class="shp7" d="M186.21 191.37L202.46 191.37C202.8 191.37 203.08 191.69 203.08 192.07C203.08 192.46 202.8 192.78 202.46 192.78L186.21 192.78C185.87 192.78 185.59 192.46 185.59 192.07C185.59 191.69 185.87 191.37 186.21 191.37Z" /><path class="shp7" d="M186.55 192.79L202.09 192.79C202.42 192.79 202.68 193.11 202.68 193.49C202.68 193.88 202.42 194.2 202.09 194.2L186.55 194.2C186.22 194.2 185.95 193.88 185.95 193.49C185.95 193.11 186.22 192.79 186.55 192.79Z" /><path class="shp7" d="M191.57 182.2L192.8 182.2L192.8 183.07L193.69 183.07L193.69 182.18L194.95 182.19L194.95 183.07L195.85 183.07L195.85 182.18L197.1 182.18L197.1 184.19C197.1 184.51 196.85 184.71 196.55 184.71L192.14 184.71C191.85 184.71 191.57 184.48 191.57 184.19L191.57 182.2L191.57 182.2L191.57 182.2Z" /><path class="shp7" d="M196.19 184.89L196.47 191.34L192.16 191.33L192.45 184.87L196.19 184.89" /><path class="shp7" d="M190.94 187.88L191.07 191.36L186.95 191.36L187.06 187.88L190.94 187.88L190.94 187.88L190.94 187.88Z" /><path class="shp7" d="M201.55 187.88L201.68 191.36L197.55 191.36L197.67 187.88L201.55 187.88L201.55 187.88L201.55 187.88Z" /><path class="shp7" d="M186.3 185.36L187.5 185.36L187.5 186.24L188.38 186.24L188.38 185.34L189.61 185.35L189.61 186.24L190.49 186.24L190.49 185.34L191.72 185.34L191.71 187.36C191.71 187.67 191.47 187.88 191.18 187.88L186.86 187.88C186.57 187.88 186.3 187.64 186.3 187.35L186.3 185.36L186.3 185.36L186.3 185.36Z" /><path class="shp7" d="M196.91 185.36L198.11 185.36L198.11 186.24L198.99 186.24L198.99 185.34L200.22 185.35L200.22 186.24L201.09 186.24L201.09 185.34L202.32 185.34L202.32 187.36C202.32 187.67 202.07 187.88 201.79 187.88L197.47 187.88C197.18 187.88 196.91 187.64 196.91 187.35L196.91 185.36L196.91 185.36L196.91 185.36Z" /><path class="shp8" d="M193.9 186.93C193.87 186.3 194.78 186.3 194.77 186.93L194.77 188.47L193.9 188.47L193.9 186.93" /><path class="shp8" d="M188.57 189.16C188.57 188.55 189.41 188.54 189.4 189.16L189.4 190.35L188.57 190.35L188.57 189.16" /><path class="shp8" d="M199.21 189.16C199.21 188.55 200.05 188.54 200.04 189.16L200.04 190.35L199.21 190.35L199.21 189.16" /></g><g ><path class="shp6" d="M208.25 248.96C204.43 244.98 206.26 241.28 206.27 241.24C206.27 241.21 210.25 239.23 214.13 243.11L208.25 248.96" /><path class="shp7" d="M201.09 246.61L205.11 251.57L208.03 248.64C204.34 244.91 206.49 241.5 206.57 241.45C206.63 241.38 210.2 239.44 213.78 242.84L216.71 239.9L211.64 235.93L201.09 246.61L201.09 246.61L201.09 246.61Z" /><path class="shp7" d="M204.93 251.78L216.87 239.76C217.12 239.5 217.58 239.55 217.88 239.85C218.19 240.15 218.23 240.61 217.98 240.86L206.04 252.89C205.79 253.14 205.33 253.1 205.03 252.8C204.72 252.49 204.68 252.04 204.93 251.78Z" /><path class="shp7" d="M209.25 247.39C206.91 245.04 207.83 242.79 207.84 242.78C207.84 242.78 210.17 241.8 212.52 244.1L209.25 247.39" /><path class="shp7" d="M198.79 245.18L210.24 233.65C210.48 233.41 210.9 233.43 211.18 233.71C211.45 233.98 211.48 234.4 211.24 234.64L199.79 246.17C199.55 246.41 199.13 246.39 198.85 246.12C198.58 245.84 198.55 245.42 198.79 245.18Z" /><path class="shp7" d="M200.04 245.94L210.99 234.91C211.22 234.68 211.63 234.71 211.9 234.99C212.18 235.26 212.22 235.67 211.99 235.9L201.04 246.93C200.81 247.16 200.39 247.13 200.12 246.86C199.84 246.58 199.81 246.17 200.04 245.94Z" /><path class="shp7" d="M196.06 234.91L196.93 234.04L197.54 234.66L198.18 234.02L197.54 233.4L198.43 232.51L199.06 233.13L199.69 232.5L199.06 231.87L199.95 230.98L201.37 232.39C201.6 232.62 201.56 232.94 201.36 233.15L198.25 236.28C198.04 236.49 197.68 236.52 197.47 236.31L196.06 234.92L196.06 234.91L196.06 234.91Z" /><path class="shp7" d="M201.22 233.53L206 237.88L202.95 240.92L198.58 236.17L201.22 233.53" /><path class="shp7" d="M199.65 239.36L202.21 241.72L199.3 244.65L196.91 242.11L199.65 239.36L199.65 239.36L199.65 239.36Z" /><path class="shp7" d="M207.12 231.84L209.68 234.19L206.78 237.12L204.39 234.59L207.12 231.83L207.12 231.84L207.12 231.84Z" /><path class="shp7" d="M194.59 240.88L195.44 240.03L196.06 240.65L196.67 240.02L196.04 239.39L196.91 238.52L197.54 239.15L198.16 238.53L197.53 237.9L198.39 237.03L199.82 238.45C200.04 238.67 200.01 238.99 199.81 239.19L196.77 242.25C196.57 242.46 196.21 242.48 196 242.28L194.59 240.88L194.59 240.88L194.59 240.88Z" /><path class="shp7" d="M202.06 233.35L202.91 232.5L203.53 233.12L204.15 232.49L203.52 231.87L204.38 231L205.02 231.62L205.64 231L205 230.37L205.87 229.5L207.3 230.92C207.52 231.14 207.49 231.46 207.29 231.66L204.24 234.73C204.04 234.93 203.68 234.96 203.48 234.75L202.06 233.35L202.06 233.35L202.06 233.35Z" /><path class="shp8" d="M201.06 236.59C200.59 236.17 201.23 235.52 201.67 235.98L202.76 237.06L202.15 237.68L201.06 236.59" /><path class="shp8" d="M198.89 241.95C198.45 241.52 199.04 240.92 199.47 241.36L200.31 242.2L199.73 242.78L198.89 241.95" /><path class="shp8" d="M206.38 234.4C205.95 233.97 206.53 233.37 206.97 233.81L207.81 234.65L207.23 235.23L206.38 234.4" /></g></g><g ><path class="shp6" d="M235.9 154.43C236.04 148.91 239.96 147.6 239.98 147.58C240.01 147.56 244.22 148.99 244.2 154.48L235.9 154.43" /><path class="shp7" d="M232.52 147.69L231.84 154.03L235.98 154.04C236.02 148.79 239.96 147.92 240.05 147.94C240.14 147.94 244.04 149.1 244.14 154.04L248.3 154.04L247.55 147.65L232.52 147.69L232.52 147.69L232.52 147.69Z" /><path class="shp7" d="M231.56 154.06L248.51 154.06C248.87 154.06 249.16 154.41 249.16 154.84C249.16 155.27 248.87 155.63 248.51 155.63L231.56 155.63C231.21 155.63 230.91 155.27 230.91 154.84C230.91 154.41 231.21 154.06 231.56 154.06Z" /><path class="shp7" d="M237.72 154.03C237.74 150.72 239.99 149.78 240 149.78C240 149.78 242.34 150.75 242.36 154.03L237.72 154.03" /><path class="shp7" d="M231.92 145.05L248.17 145.05C248.51 145.05 248.79 145.37 248.79 145.75C248.79 146.14 248.51 146.46 248.17 146.46L231.92 146.46C231.58 146.46 231.3 146.14 231.3 145.75C231.3 145.37 231.58 145.05 231.92 145.05Z" /><path class="shp7" d="M232.26 146.47L247.8 146.47C248.13 146.47 248.4 146.79 248.4 147.17C248.4 147.56 248.13 147.88 247.8 147.88L232.26 147.88C231.94 147.88 231.67 147.56 231.67 147.17C231.67 146.79 231.94 146.47 232.26 146.47Z" /><path class="shp7" d="M237.28 135.88L238.51 135.88L238.51 136.75L239.41 136.75L239.41 135.86L240.66 135.87L240.66 136.75L241.56 136.75L241.56 135.86L242.82 135.86L242.82 137.87C242.82 138.19 242.56 138.4 242.27 138.4L237.86 138.4C237.56 138.4 237.29 138.16 237.29 137.87L237.28 135.88L237.28 135.88L237.28 135.88Z" /><path class="shp7" d="M241.9 138.57L242.18 145.02L237.88 145.01L238.16 138.55L241.9 138.57" /><path class="shp7" d="M236.65 141.56L236.79 145.04L232.66 145.04L232.78 141.56L236.65 141.56L236.65 141.56L236.65 141.56Z" /><path class="shp7" d="M247.26 141.56L247.39 145.04L243.27 145.04L243.39 141.56L247.26 141.56L247.26 141.56L247.26 141.56Z" /><path class="shp7" d="M232.01 139.04L233.21 139.04L233.21 139.92L234.09 139.92L234.09 139.02L235.32 139.03L235.32 139.92L236.2 139.92L236.2 139.02L237.43 139.03L237.43 141.04C237.43 141.35 237.18 141.56 236.89 141.56L232.57 141.56C232.29 141.56 232.02 141.32 232.02 141.03L232.01 139.04L232.01 139.04L232.01 139.04Z" /><path class="shp7" d="M242.62 139.04L243.82 139.04L243.82 139.92L244.7 139.92L244.7 139.02L245.93 139.03L245.93 139.92L246.81 139.92L246.81 139.02L248.04 139.03L248.04 141.04C248.04 141.35 247.79 141.56 247.5 141.56L243.18 141.56C242.89 141.56 242.63 141.32 242.62 141.03L242.62 139.04L242.62 139.04L242.62 139.04Z" /><path class="shp8" d="M239.61 140.61C239.59 139.98 240.49 139.98 240.48 140.61L240.48 142.15L239.61 142.15L239.61 140.61" /><path class="shp8" d="M234.28 142.84C234.28 142.23 235.12 142.22 235.11 142.84L235.11 144.03L234.28 144.03L234.28 142.84" /><path class="shp8" d="M244.92 142.84C244.92 142.23 245.76 142.22 245.75 142.84L245.75 144.03L244.93 144.03L244.93 142.84" /></g><g ><g ><path class="shp6" d="M289.6 154.43C289.47 148.91 285.55 147.6 285.52 147.58C285.49 147.56 281.29 148.99 281.3 154.48L289.6 154.43" /><path class="shp7" d="M292.98 147.69L293.66 154.03L289.52 154.04C289.48 148.79 285.55 147.92 285.45 147.94C285.36 147.94 281.47 149.1 281.36 154.04L277.21 154.04L277.96 147.65L292.98 147.69L292.98 147.69L292.98 147.69Z" /><path class="shp7" d="M293.94 154.06L277 154.06C276.64 154.06 276.35 154.41 276.35 154.84C276.35 155.27 276.64 155.63 277 155.63L293.94 155.63C294.3 155.63 294.59 155.27 294.59 154.84C294.59 154.41 294.3 154.06 293.94 154.06Z" /><path class="shp7" d="M287.78 154.03C287.76 150.72 285.52 149.78 285.51 149.78C285.51 149.78 283.17 150.75 283.15 154.03L287.78 154.03" /><path class="shp7" d="M293.58 145.05L277.34 145.05C276.99 145.05 276.71 145.37 276.71 145.75C276.71 146.14 276.99 146.46 277.34 146.46L293.58 146.46C293.92 146.46 294.2 146.14 294.2 145.75C294.2 145.37 293.92 145.05 293.58 145.05Z" /><path class="shp7" d="M293.24 146.47L277.7 146.47C277.38 146.47 277.11 146.79 277.11 147.17C277.11 147.56 277.38 147.88 277.7 147.88L293.24 147.88C293.57 147.88 293.84 147.56 293.84 147.17C293.84 146.79 293.57 146.47 293.24 146.47Z" /><path class="shp7" d="M288.22 135.88L287 135.88L287 136.75L286.1 136.75L286.1 135.86L284.84 135.87L284.84 136.75L283.95 136.75L283.95 135.86L282.69 135.86L282.69 137.87C282.69 138.19 282.94 138.4 283.24 138.4L287.65 138.4C287.95 138.4 288.22 138.16 288.22 137.87L288.22 135.88L288.22 135.88L288.22 135.88Z" /><path class="shp7" d="M283.6 138.57L283.33 145.02L287.63 145.01L287.34 138.55L283.6 138.57" /><path class="shp7" d="M288.85 141.56L288.72 145.04L292.85 145.04L292.73 141.56L288.85 141.56L288.85 141.56L288.85 141.56Z" /><path class="shp7" d="M278.24 141.56L278.11 145.04L282.24 145.04L282.12 141.56L278.24 141.56L278.24 141.56L278.24 141.56Z" /><path class="shp7" d="M293.49 139.04L292.29 139.04L292.29 139.92L291.42 139.92L291.42 139.02L290.19 139.03L290.19 139.92L289.31 139.92L289.31 139.02L288.08 139.03L288.08 141.04C288.08 141.35 288.33 141.56 288.61 141.56L292.93 141.56C293.22 141.56 293.49 141.32 293.49 141.03L293.49 139.04L293.49 139.04L293.49 139.04Z" /><path class="shp7" d="M282.88 139.04L281.68 139.04L281.68 139.92L280.81 139.92L280.81 139.02L279.58 139.03L279.58 139.92L278.7 139.92L278.7 139.02L277.47 139.03L277.47 141.04C277.47 141.35 277.72 141.56 278.01 141.56L282.32 141.56C282.61 141.56 282.88 141.32 282.88 141.03L282.88 139.04L282.88 139.04L282.88 139.04Z" /><path class="shp8" d="M285.89 140.61C285.92 139.98 285.02 139.98 285.03 140.61L285.03 142.15L285.89 142.15L285.89 140.61" /><path class="shp8" d="M291.22 142.84C291.22 142.23 290.39 142.22 290.4 142.84L290.4 144.03L291.22 144.03L291.22 142.84" /><path class="shp8" d="M280.58 142.84C280.58 142.23 279.74 142.22 279.75 142.84L279.75 144.03L280.58 144.03L280.58 142.84" /></g><g ><path class="shp6" d="M289.6 200.75C289.47 195.23 285.55 193.92 285.52 193.9C285.49 193.88 281.29 195.31 281.3 200.8L289.6 200.75" /><path class="shp7" d="M292.98 194.01L293.66 200.35L289.52 200.36C289.48 195.11 285.55 194.24 285.45 194.26C285.36 194.26 281.47 195.42 281.36 200.36L277.21 200.36L277.96 193.97L292.98 194.01L292.98 194.01L292.98 194.01Z" /><path class="shp7" d="M293.94 200.38L277 200.38C276.64 200.38 276.35 200.73 276.35 201.16C276.35 201.59 276.64 201.95 277 201.95L293.94 201.95C294.3 201.95 294.59 201.59 294.59 201.16C294.59 200.73 294.3 200.38 293.94 200.38Z" /><path class="shp7" d="M287.78 200.35C287.76 197.04 285.52 196.1 285.51 196.1C285.51 196.1 283.17 197.07 283.15 200.35L287.78 200.35" /><path class="shp7" d="M293.58 191.37L277.34 191.37C276.99 191.37 276.71 191.69 276.71 192.07C276.71 192.46 276.99 192.78 277.34 192.78L293.58 192.78C293.92 192.78 294.2 192.46 294.2 192.07C294.2 191.69 293.92 191.37 293.58 191.37Z" /><path class="shp7" d="M293.24 192.79L277.7 192.79C277.38 192.79 277.11 193.11 277.11 193.49C277.11 193.88 277.38 194.2 277.7 194.2L293.24 194.2C293.57 194.2 293.84 193.88 293.84 193.49C293.84 193.11 293.57 192.79 293.24 192.79Z" /><path class="shp7" d="M288.22 182.2L287 182.2L287 183.07L286.1 183.07L286.1 182.18L284.84 182.19L284.84 183.07L283.95 183.07L283.95 182.18L282.69 182.18L282.69 184.19C282.69 184.51 282.94 184.71 283.24 184.71L287.65 184.71C287.95 184.71 288.22 184.48 288.22 184.19L288.22 182.2L288.22 182.2L288.22 182.2Z" /><path class="shp7" d="M283.6 184.89L283.33 191.34L287.63 191.33L287.34 184.87L283.6 184.89" /><path class="shp7" d="M288.85 187.88L288.72 191.36L292.85 191.36L292.73 187.88L288.85 187.88L288.85 187.88L288.85 187.88Z" /><path class="shp7" d="M278.24 187.88L278.11 191.36L282.24 191.36L282.12 187.88L278.24 187.88L278.24 187.88L278.24 187.88Z" /><path class="shp7" d="M293.49 185.36L292.29 185.36L292.29 186.24L291.42 186.24L291.42 185.34L290.19 185.35L290.19 186.24L289.31 186.24L289.31 185.34L288.08 185.34L288.08 187.36C288.08 187.67 288.33 187.88 288.61 187.88L292.93 187.88C293.22 187.88 293.49 187.64 293.49 187.35L293.49 185.36L293.49 185.36L293.49 185.36Z" /><path class="shp7" d="M282.88 185.36L281.68 185.36L281.68 186.24L280.81 186.24L280.81 185.34L279.58 185.35L279.58 186.24L278.7 186.24L278.7 185.34L277.47 185.34L277.47 187.36C277.47 187.67 277.72 187.88 278.01 187.88L282.32 187.88C282.61 187.88 282.88 187.64 282.88 187.35L282.88 185.36L282.88 185.36L282.88 185.36Z" /><path class="shp8" d="M285.89 186.93C285.92 186.3 285.02 186.3 285.03 186.93L285.03 188.47L285.89 188.47L285.89 186.93" /><path class="shp8" d="M291.22 189.16C291.22 188.55 290.39 188.54 290.4 189.16L290.4 190.35L291.22 190.35L291.22 189.16" /><path class="shp8" d="M280.58 189.16C280.58 188.55 279.74 188.54 279.75 189.16L279.75 190.35L280.58 190.35L280.58 189.16" /></g><g ><path class="shp6" d="M271.54 248.96C275.36 244.98 273.53 241.28 273.52 241.24C273.52 241.21 269.54 239.23 265.66 243.11L271.54 248.96" /><path class="shp7" d="M278.71 246.61L274.68 251.57L271.76 248.64C275.46 244.91 273.3 241.5 273.22 241.45C273.16 241.38 269.59 239.44 266.01 242.84L263.08 239.9L268.15 235.93L278.71 246.61L278.7 246.61L278.71 246.61Z" /><path class="shp7" d="M274.86 251.78L262.92 239.76C262.67 239.5 262.21 239.55 261.91 239.85C261.6 240.15 261.56 240.61 261.81 240.86L273.75 252.89C274 253.14 274.46 253.1 274.76 252.8C275.07 252.49 275.11 252.04 274.86 251.78Z" /><path class="shp7" d="M270.54 247.39C272.88 245.04 271.96 242.79 271.95 242.78C271.95 242.78 269.62 241.8 267.28 244.1L270.54 247.39" /><path class="shp7" d="M281 245.18L269.55 233.65C269.31 233.41 268.89 233.43 268.62 233.71C268.34 233.98 268.31 234.4 268.55 234.64L280 246.17C280.24 246.41 280.66 246.39 280.94 246.12C281.21 245.84 281.24 245.42 281 245.18Z" /><path class="shp7" d="M279.75 245.94L268.81 234.91C268.58 234.68 268.16 234.71 267.89 234.99C267.61 235.26 267.58 235.67 267.81 235.9L278.75 246.93C278.99 247.16 279.4 247.13 279.67 246.86C279.95 246.58 279.98 246.17 279.75 245.94Z" /><path class="shp7" d="M283.73 234.91L282.87 234.04L282.25 234.66L281.62 234.02L282.25 233.4L281.36 232.51L280.73 233.13L280.1 232.5L280.73 231.87L279.84 230.98L278.42 232.39C278.19 232.62 278.23 232.94 278.44 233.15L281.54 236.28C281.75 236.49 282.11 236.52 282.32 236.31L283.73 234.92L283.73 234.91L283.73 234.91Z" /><path class="shp7" d="M278.57 233.53L273.79 237.88L276.84 240.92L281.22 236.17L278.57 233.53" /><path class="shp7" d="M280.14 239.36L277.58 241.72L280.49 244.65L282.88 242.11L280.14 239.36L280.14 239.36L280.14 239.36Z" /><path class="shp7" d="M272.67 231.84L270.11 234.19L273.02 237.12L275.4 234.59L272.67 231.83L272.67 231.84L272.67 231.84Z" /><path class="shp7" d="M285.2 240.88L284.36 240.03L283.74 240.65L283.12 240.02L283.75 239.39L282.88 238.52L282.25 239.15L281.63 238.53L282.27 237.9L281.4 237.03L279.97 238.45C279.75 238.67 279.78 238.99 279.98 239.19L283.02 242.25C283.23 242.46 283.58 242.48 283.79 242.28L285.2 240.88L285.2 240.88L285.2 240.88Z" /><path class="shp7" d="M277.73 233.35L276.88 232.5L276.26 233.12L275.64 232.49L276.28 231.87L275.41 231L274.78 231.62L274.16 231L274.79 230.37L273.92 229.5L272.5 230.92C272.27 231.14 272.3 231.46 272.51 231.66L275.55 234.73C275.75 234.93 276.11 234.96 276.31 234.75L277.73 233.35L277.73 233.35L277.73 233.35Z" /><path class="shp8" d="M278.73 236.59C279.2 236.17 278.57 235.52 278.12 235.98L277.03 237.06L277.64 237.68L278.73 236.59" /><path class="shp8" d="M280.91 241.95C281.34 241.52 280.76 240.92 280.32 241.36L279.48 242.2L280.06 242.78L280.91 241.95" /><path class="shp8" d="M273.41 234.4C273.84 233.97 273.26 233.37 272.83 233.81L271.98 234.65L272.57 235.23L273.41 234.4" /></g></g><g ><path class="shp9" d="M232.64 202.41L232.64 202.41C232.64 204.62 233.49 206.64 234.85 208.1C236.21 209.57 238.09 210.48 240.15 210.48C242.22 210.48 244.09 209.57 245.45 208.11C246.81 206.65 247.65 204.64 247.65 202.42L247.65 191.65L232.66 191.64L232.64 202.41" /><path class="shp10" d="M236.07 197.22C235.25 197.22 234.59 196.56 234.59 195.74C234.59 194.91 235.25 194.25 236.07 194.25C236.9 194.25 237.56 194.91 237.56 195.74C237.56 196.56 236.9 197.22 236.07 197.22Z" /><path class="shp10" d="M244.39 197.23C243.57 197.23 242.91 196.56 242.91 195.74C242.91 194.92 243.57 194.26 244.39 194.26C245.21 194.26 245.88 194.92 245.88 195.74C245.88 196.56 245.21 197.23 244.39 197.23Z" /><path class="shp10" d="M240.23 201.22C239.4 201.22 238.74 200.56 238.74 199.74C238.74 198.91 239.4 198.25 240.23 198.25C241.05 198.25 241.71 198.91 241.71 199.74C241.71 200.56 241.05 201.22 240.23 201.22Z" /><path class="shp10" d="M236.07 205.4C235.25 205.4 234.59 204.74 234.59 203.92C234.59 203.09 235.25 202.43 236.07 202.43C236.9 202.43 237.56 203.09 237.56 203.92C237.56 204.74 236.9 205.4 236.07 205.4Z" /><path class="shp10" d="M244.38 205.39C243.56 205.39 242.9 204.73 242.9 203.91C242.9 203.08 243.56 202.42 244.38 202.42C245.2 202.42 245.87 203.08 245.87 203.91C245.87 204.73 245.2 205.39 244.38 205.39Z" /></g><g ><path class="shp9" d="M232.64 176.39L232.64 176.4C232.64 178.61 233.49 180.62 234.85 182.08C236.21 183.55 238.09 184.46 240.15 184.46C242.22 184.46 244.09 183.56 245.45 182.1C246.81 180.64 247.65 178.62 247.65 176.4L247.65 165.64L232.66 165.62L232.64 176.39" /><path class="shp10" d="M236.07 171.21C235.25 171.21 234.59 170.54 234.59 169.72C234.59 168.9 235.25 168.23 236.07 168.23C236.9 168.23 237.56 168.9 237.56 169.72C237.56 170.54 236.9 171.21 236.07 171.21Z" /><path class="shp10" d="M244.39 171.21C243.57 171.21 242.91 170.55 242.91 169.73C242.91 168.9 243.57 168.24 244.39 168.24C245.21 168.24 245.88 168.9 245.88 169.73C245.88 170.55 245.21 171.21 244.39 171.21Z" /><path class="shp10" d="M240.23 175.21C239.4 175.21 238.74 174.54 238.74 173.72C238.74 172.9 239.4 172.23 240.23 172.23C241.05 172.23 241.71 172.9 241.71 173.72C241.71 174.54 241.05 175.21 240.23 175.21Z" /><path class="shp10" d="M236.07 179.39C235.25 179.39 234.59 178.72 234.59 177.9C234.59 177.08 235.25 176.41 236.07 176.41C236.9 176.41 237.56 177.08 237.56 177.9C237.56 178.72 236.9 179.39 236.07 179.39Z" /><path class="shp10" d="M244.38 179.38C243.56 179.38 242.9 178.71 242.9 177.89C242.9 177.07 243.56 176.4 244.38 176.4C245.2 176.4 245.87 177.07 245.87 177.89C245.87 178.71 245.2 179.38 244.38 179.38Z" /></g><g ><path class="shp9" d="M211.84 202.41L211.84 202.41C211.84 204.62 212.69 206.64 214.05 208.1C215.41 209.57 217.29 210.48 219.35 210.48C221.42 210.48 223.29 209.57 224.65 208.11C226.01 206.65 226.86 204.64 226.86 202.42L226.86 191.65L211.86 191.64L211.84 202.41" /><path class="shp10" d="M215.28 197.22C214.45 197.22 213.79 196.56 213.79 195.74C213.79 194.91 214.45 194.25 215.28 194.25C216.1 194.25 216.76 194.91 216.76 195.74C216.76 196.56 216.1 197.22 215.28 197.22Z" /><path class="shp10" d="M223.59 197.23C222.77 197.23 222.11 196.56 222.11 195.74C222.11 194.92 222.77 194.26 223.59 194.26C224.41 194.26 225.08 194.92 225.08 195.74C225.08 196.56 224.41 197.23 223.59 197.23Z" /><path class="shp10" d="M219.43 201.22C218.6 201.22 217.94 200.56 217.94 199.74C217.94 198.91 218.6 198.25 219.43 198.25C220.25 198.25 220.91 198.91 220.91 199.74C220.91 200.56 220.25 201.22 219.43 201.22Z" /><path class="shp10" d="M215.28 205.4C214.45 205.4 213.79 204.74 213.79 203.92C213.79 203.09 214.45 202.43 215.28 202.43C216.1 202.43 216.76 203.09 216.76 203.92C216.76 204.74 216.1 205.4 215.28 205.4Z" /><path class="shp10" d="M223.58 205.39C222.76 205.39 222.1 204.73 222.1 203.91C222.1 203.08 222.76 202.42 223.58 202.42C224.41 202.42 225.07 203.08 225.07 203.91C225.07 204.73 224.41 205.39 223.58 205.39Z" /></g><g ><path class="shp9" d="M253.38 202.41L253.38 202.41C253.38 204.62 254.23 206.64 255.59 208.1C256.96 209.57 258.84 210.48 260.89 210.48C262.96 210.48 264.84 209.57 266.2 208.11C267.56 206.65 268.4 204.64 268.4 202.42L268.4 191.65L253.41 191.64L253.38 202.41" /><path class="shp10" d="M256.82 197.22C256 197.22 255.33 196.56 255.33 195.74C255.33 194.91 256 194.25 256.82 194.25C257.64 194.25 258.31 194.91 258.31 195.74C258.31 196.56 257.64 197.22 256.82 197.22Z" /><path class="shp10" d="M265.14 197.23C264.32 197.23 263.65 196.56 263.65 195.74C263.65 194.92 264.32 194.26 265.14 194.26C265.96 194.26 266.62 194.92 266.62 195.74C266.62 196.56 265.96 197.23 265.14 197.23Z" /><path class="shp10" d="M260.97 201.22C260.15 201.22 259.48 200.56 259.48 199.74C259.48 198.91 260.15 198.25 260.97 198.25C261.79 198.25 262.46 198.91 262.46 199.74C262.46 200.56 261.79 201.22 260.97 201.22Z" /><path class="shp10" d="M256.82 205.4C256 205.4 255.33 204.74 255.33 203.92C255.33 203.09 256 202.43 256.82 202.43C257.64 202.43 258.31 203.09 258.31 203.92C258.31 204.74 257.64 205.4 256.82 205.4Z" /><path class="shp10" d="M265.13 205.39C264.31 205.39 263.64 204.73 263.64 203.91C263.64 203.08 264.31 202.42 265.13 202.42C265.95 202.42 266.61 203.08 266.61 203.91C266.61 204.73 265.95 205.39 265.13 205.39Z" /></g><g ><path class="shp9" d="M232.64 228.19L232.64 228.19C232.64 230.41 233.49 232.42 234.85 233.88C236.21 235.35 238.09 236.26 240.15 236.26C242.22 236.26 244.09 235.36 245.45 233.9C246.81 232.44 247.65 230.42 247.65 228.2L247.65 217.44L232.66 217.42L232.64 228.19" /><path class="shp10" d="M236.07 223C235.25 223 234.59 222.34 234.59 221.52C234.59 220.7 235.25 220.03 236.07 220.03C236.9 220.03 237.56 220.7 237.56 221.52C237.56 222.34 236.9 223 236.07 223Z" /><path class="shp10" d="M244.39 223.01C243.57 223.01 242.91 222.35 242.91 221.53C242.91 220.7 243.57 220.04 244.39 220.04C245.21 220.04 245.88 220.7 245.88 221.53C245.88 222.35 245.21 223.01 244.39 223.01Z" /><path class="shp10" d="M240.23 227C239.4 227 238.74 226.34 238.74 225.52C238.74 224.7 239.4 224.03 240.23 224.03C241.05 224.03 241.71 224.7 241.71 225.52C241.71 226.34 241.05 227 240.23 227Z" /><path class="shp10" d="M236.07 231.19C235.25 231.19 234.59 230.52 234.59 229.7C234.59 228.88 235.25 228.21 236.07 228.21C236.9 228.21 237.56 228.88 237.56 229.7C237.56 230.52 236.9 231.19 236.07 231.19Z" /><path class="shp10" d="M244.38 231.18C243.56 231.18 242.9 230.51 242.9 229.69C242.9 228.87 243.56 228.2 244.38 228.2C245.2 228.2 245.87 228.87 245.87 229.69C245.87 230.51 245.2 231.18 244.38 231.18Z" /></g></g></svg>