<svg version="1.2" xmlns="http://www.w3.org/2000/svg" viewBox="0 0 900 600" width="900" height="600">
	<title></title>
	<style>
		.s0 { fill: #00247d } 
		.s1 { fill: none;stroke: #ffffff;stroke-width: 52 } 
		.s2 { fill: none;stroke: #ffffff;stroke-width: 86.7 } 
		.s3 { fill: none;stroke: #cf142b;stroke-width: 52 } 
		.s4 { fill: #fcd116 } 
		.s5 { fill: #ee0000 } 
		.s6 { fill: #980500 } 
		.s7 { fill: #4b0500 } 
	</style>
	<g id="Layer">
		<path id="Layer" class="s0" d="m0 0h450v300h-450z"/>
		<g id="Layer">
			<path id="Layer" class="s1" d="m0 0l450 300m0-300l-450 300"/>
			<path id="Layer" class="s2" d="m225 0v300m-225-150h450"/>
			<path id="Layer" class="s3" d="m225 0v300m-225-150h450"/>
		</g>
		<path id="Layer" class="s0" d="m0 300h900v300h-900zm450-300h450v600h-450z"/>
	</g>
	<circle id="path1373" class="s4" cx="675" cy="300" r="140"/>
	<g id="g2395">
		<path id="path2176" fill-rule="evenodd" class="s5" d="m738.1 383.4c-0.5-1.2-0.6-3.3-0.2-4.7 0.9-2.5-1.2-3.4-2.6-1.1-1.4 2.2-2.8 1.5-4.4-2-2.9-6.4 2.5-11.1 12.8-11.1 5.3 0 6.6-1.4 6.6-7.1 0-2.6-1.3-3.5-8.8-6-11-3.6-20.5-8.3-26.6-13.1-4.5-3.6-5-3.7-8.5-1.9-2 1.1-5 1.6-6.6 1.2-3.7-0.9-3.8 0-0.4 4.7 1.4 2.1 2.7 5.1 2.9 6.8 0.3 2.7-0.3 3.1-6.8 3.9-21 2.6-26.5 3.7-28.6 5.6-3.5 3.1-4.4 2.5-3.6-2.5 0.7-4.4 0.6-4.6-2.5-3.8-2.7 0.7-3 0.4-2.3-1.6 0.5-1.4 1.7-3.4 2.7-4.6 1.6-1.8 1.4-2.2-1.2-2.9-3-0.9-3-0.9-0.4-2.9 5-3.8 8.6-3.8 15.8 0 6.8 3.5 9.7 3.6 9.7 0.2 0-0.9-1.3-2.8-2.8-4.1-1.9-1.8-2.5-3.5-2-5.9 0.7-3.3 0.4-3.5-6.1-4.4-3.7-0.4-10.3-2-14.7-3.4l-8-2.6-9.6 3.2c-5.3 1.7-17.6 4.2-27.3 5.4-9.9 1.3-18.5 3-19.7 4-1.1 1-2.4 1.8-2.9 1.8-1.4 0-1-5 0.4-5.9 2.5-1.5 1.4-3.4-1.2-2-3.6 2-4.4 1.7-3.6-1.2 0.8-3.2-1.4-3.4-3.8-0.3-1.5 2-1.7 1.7-1.8-2.5 0-6.4 3.5-9.3 12.2-10 6-0.5 7.3-0.2 9 2.2 2.4 3.5 5.4 2.6 11.1-3.5 2.3-2.5 4.2-4.7 4.2-4.9 0-0.3-2-2.7-4.6-5.4-2.5-2.8-7.3-9.1-10.7-14-8.3-12.1-14.8-18.5-19.8-19.5-3-0.6-4.6-1.9-5.8-4.9-1.1-2.5-2.1-3.5-2.7-2.7-1.4 2.3-3 1.8-3.7-1.1-0.5-1.7 0.5-4.1 2.6-6.6 3.4-4 4.2-4.1 15.5-1.8 1.6 0.3 5.1 3.5 7.9 7.1 2.7 3.6 8.3 9.2 12.3 12.4l7.4 5.8 1.7-3.6c3-5.9 3-6.2 0.3-3.8-1.4 1.2-2.9 2.2-3.4 2.2-1.7 0-0.9-4.6 1.6-9.4 1.4-2.8 1.8-5 1.1-5.2-0.8-0.3-0.6-2.2 0.7-5 1.1-2.5 2.4-5.9 2.9-7.5 0.7-2.3 1.3-2.7 2.6-1.6 1.3 1.1 2 1.1 2.6 0 1.8-2.8 6.4-3.7 9.5-1.8 3.4 2.2 3.8 1.1 0.7-2.3-2-2.2-2-2.4 0.4-2.4 1.3 0 4 0.8 5.8 1.8 2.9 1.5 3.8 1.5 5.8 0 2.6-2 8.5-2.5 8.5-0.8 0 0.6-0.8 1.9-1.7 2.8-1.3 1.4-1.1 1.5 1.3 0.2 2.3-1.2 3.8-1.1 6.8 0.5 4.9 2.6 5.3 2.5 5.4-0.3 0-1.2 1.5 1.8 3.3 6.7 3.3 8.7 3.3 12 0.2 8.9-1.9-1.9-3.6-2-3.6-0.2 0 0.7 0.9 1.3 1.9 1.3 1 0 2.9 1.4 4.2 3.1l2.4 3.1 5.4-5c6.2-5.7 10.2-7.1 16.6-5.9 6.5 1.2 11.2 5.4 11.2 10 0 2.5 0.7 3.8 2 3.8 4.7 0 16.6 5.8 21.7 10.6 4.9 4.5 5.2 5.1 2.4 4.4-1.8-0.5-10.6-1.3-19.6-1.7-18.1-1-22.6-2.6-25.2-9.5-1.6-4.3-4.3-5.8-6.9-3.6-3 2.5-2 5.8 3.4 11.3 4.4 4.6 6 5.4 12.7 6.1 18.1 2.1 32.2 4.8 36.7 7.1 12.1 6.2 14.5 14.8 7.1 24.9-4.5 6.1-5.2 10.4-2.9 18.5 1.3 4.9 3.7 6.3 10.4 6.3 2.4 0.1 4.1 1.4 6.5 5.6 4.3 7.5 5 23.3 1.2 28.2-1.4 1.7-2.5 4.2-2.5 5.6 0 1.3-0.5 2.4-1 2.4-1.9 0-4.2-3.1-4.2-5.5 0-2.1-0.7-1.9-5.8 1.6-3.2 2.2-6.4 4.9-7 6.1-1 1.8-1.3 1.8-2-0.3zm3.1-80.7c0-1-2-3.6-4.4-5.7-4.8-4.2-17.1-7.3-34.8-8.9l-9.8-0.9-9.3-9.6c-9.5-9.8-13.4-12.6-8.3-6.1 2.1 2.6 2.7 5 2.4 9.4-0.3 5.9-0.3 6 6.1 9.5 8.2 4.4 19.3 7.2 35.3 8.9 6.8 0.7 14 2.1 16 3.2 4.5 2.4 6.8 2.5 6.8 0.2z"/>
		<path id="path2174" fill-rule="evenodd" class="s6" d="m737.9 383.1c-0.4-1.1-0.4-3 0-4.4 0.9-2.7 0.2-3-3.2-1.1-1.8 1-2.6 0.5-3.8-2.1-2.9-6.3 2.5-11 12.8-11 5.3 0 6.6-1.4 6.6-7.1 0-2.6-1.3-3.5-8.8-6-11-3.6-20.5-8.3-26.6-13.1-4.5-3.6-5-3.7-8.5-1.9-2 1.1-5 1.6-6.6 1.2-3.7-0.9-3.8 0-0.4 4.7 1.4 2.1 2.7 5.1 2.9 6.8 0.3 2.7-0.3 3.1-6.8 3.9-21 2.6-26.5 3.7-28.6 5.6-3.5 3.1-4.4 2.5-3.6-2.5 0.7-4.4 0.5-4.6-2.5-3.8-2.7 0.7-3 0.4-2.3-1.6 0.5-1.4 1.7-3.4 2.7-4.6 1.6-1.8 1.4-2.2-1.2-2.9-3-0.9-3-0.9-0.4-2.9 5-3.8 8.6-3.8 15.8 0 6.8 3.5 9.7 3.6 9.7 0.2 0-0.9-1.2-2.7-2.7-4-2.8-2.6-3.3-5.9-1.2-8.1 1-0.9-0.9-1.6-6.2-2.2-4.1-0.5-11.1-2.1-15.5-3.5l-8-2.6c3.6-0.1 7 0.8 13 2.4 5.7 1.6 16.7 3.2 25.1 3.7l15 0.9 0.2-5.8 0.2-5.7 0.8 5.2c0.5 2.9 1.6 6.5 2.4 8 4.3 7.7 20.1 17.4 35.9 22 6.7 2 7.5 2.5 7.5 5.7-0.1 7.9-1.2 9.4-7.3 9.4-6.1 0-12.3 1.8-12.3 3.7 0 0.6 1.6 0.8 3.6 0.5l3.6-0.7-3.7 3c-4.7 3.8-3.9 4.4 2.8 2 3-1 5.5-1.3 5.5-0.7 0 0.7-0.6 1.3-1.3 1.3-0.7 0-1.9 1.2-2.6 2.6-2 3.6-1 3.3 7.2-1.9l7.1-4.6v3.9c0 5 1.3 4.9 4.5-0.3 4.1-6.7 3.9-20.9-0.2-28.1-2.4-4-4.1-5.6-6.3-5.6-6.1 0-9.5-2.3-11-7.4-2.3-8.3-1.7-14.1 1.9-18.4 5.4-6.5 6.3-10.4 3.5-15.8-4.4-8.5-10.8-10.6-47.2-15.3-10.4-1.3-20.7-14.5-15.4-19.8 2.4-2.4 5.9-1.9 8.2 1.3 1.8 2.6 2 2.6 2 0.5 0-1.7 0.4-2 1.6-1.1 0.9 0.7 3.1 1.6 4.8 2 4.3 1.1 1.7-1.4-4.7-4.4l-5-2.3 4.4-0.1c3.1-0.1 5.4 1 8.2 3.8 3.1 3.1 5 3.9 8.7 3.7 4-0.1 4.2-0.3 1.2-0.7-2.9-0.4-3.6-1.2-3.6-4.4 0-8.6-10.9-12.8-20.4-7.8-6.9 3.7-9.3 6.4-10.3 11.3-0.9 4.9 2.8 10.9 9.8 16 4.4 3.2 7.1 4 16.1 4.8 17 1.5 29.6 5.1 33.9 9.8 6.4 7 3.9 10.7-4.9 7.1-2.7-1.2-10.6-2.7-17.5-3.4-14.7-1.4-31.6-6.3-38.4-10.9-4.7-3.2-4.8-3.2-4.8-0.5 0 3.2-4.8 11.6-6.6 11.6-0.7 0-1.3-1.9-1.4-4.3l-0.1-4.2-1 4.9c-0.9 4.6-4.5 10.1-6.6 10.1-0.5 0-1.3-1.3-1.7-2.9l-0.8-2.9-3.7 3.6c-4.6 4.4-5.8 4.4-9.8-0.4l-3.3-3.9-1.2 3.6-1.2 3.6-6.1-6.9-7.6 5.8c-4.1 3.2-8 6.5-8.5 7.5-1.3 2-6.1 4.7-8.6 4.7-1.1 0-2.2-1.2-2.6-2.7-0.4-1.4-1.8-2.6-3.2-2.6-3 0-9.5 6.5-9.5 9.5 0 1.9 0.5 2 3.3 0.7 4.5-2 5.4-0.5 2.1 3.6-3.4 4.4-3.6 7-0.4 4.1 1.3-1.2 4.2-2.2 6.5-2.2 2.2 0 4.4-0.6 4.8-1.3 0.5-0.7 0.2-1.3-0.5-1.3-0.8 0-1.4-0.6-1.4-1.4 0-0.9 1.4-1.1 3.9-0.6 2.2 0.5 4.7 0.3 5.6-0.4 0.9-0.7 5.2-3.1 9.6-5.3 6.3-3.2 9.6-4.1 15.9-4.1 4.4 0 8 0.6 8 1.2 0 1.7-11.4 5.4-16.8 5.4-2.6 0-7 1.1-9.9 2.5l-5.2 2.5h4.5c2.5 0 9.9-1.4 16.3-3.2 7.6-2.2 11.6-3.2 15.4-3.2l-9.7 3.2c-5.2 1.7-17.5 4.2-27.2 5.4-9.9 1.3-18.5 3-19.7 4-1.1 1-2.4 1.8-2.9 1.8-1.5 0-1-4.6 0.7-6.2 0.8-0.9 1.1-2 0.6-2.5-0.5-0.5-1.6-0.2-2.5 0.6-2.3 2.4-4 1.9-3.2-1 0.8-3.2-1.4-3.4-3.8-0.3-1.5 2-1.7 1.7-1.8-2.5 0-6.3 3.2-9 12.1-9.9 6.4-0.6 7.4-0.4 9 2.1 0.9 1.5 2.5 2.7 3.4 2.7 1.6 0 12-9.7 12-11.2 0-0.3-1.5-2.2-3.4-4.1-1.9-2-6.8-8.3-11-14-12.5-17.1-14.1-18.8-19.7-20.3-3.9-1.1-5.6-2.4-6.9-5.4-1-2.4-2-3.4-2.6-2.6-1.4 2.3-3 1.8-3.7-1.1-0.5-1.7 0.5-4.1 2.6-6.6 3.4-4 4.1-4.1 15.5-1.8 1.6 0.3 5.1 3.5 7.8 7.1 2.8 3.6 8.4 9.2 12.4 12.4l7.3 5.8 1.8-3.6c3-5.9 3-6.2 0.3-3.8-1.4 1.2-2.9 2.2-3.4 2.2-1.7 0-0.9-4.6 1.5-9.4 1.5-2.8 1.9-5 1.2-5.2-0.8-0.3-0.6-2.2 0.7-5 1.1-2.5 2.4-5.9 2.9-7.5 0.7-2.3 1.3-2.7 2.6-1.6 1.2 1.1 2 1.1 2.6 0 1.8-2.8 6.4-3.7 9.5-1.8 1.6 1 2.9 1.3 2.9 0.6 0-0.6 0.7-1.4 1.6-1.8 0.9-0.3 0.7-0.4-0.6-0.2-1.2 0.2-2.9-0.5-3.7-1.5-2.1-2.4 2.1-2.5 6.7 0 2.9 1.5 3.8 1.5 5.8 0 2.6-2 8.5-2.5 8.5-0.8 0 0.6-0.8 1.9-1.7 2.8-1.3 1.4-1.1 1.5 1.3 0.2 2.3-1.2 3.8-1.1 6.8 0.5 4.9 2.6 5.3 2.5 5.4-0.3 0-1.2 1.5 1.8 3.3 6.7 3.3 8.7 3.3 12 0.2 8.9-1.9-1.9-3.6-2-3.6-0.2 0 0.7 0.9 1.3 1.9 1.3 1 0 2.9 1.4 4.2 3.1l2.4 3.1 5.4-5c3.1-2.8 7-5.4 8.9-5.9 8.3-2.1 18.9 3.4 18.9 9.7 0 3.1 0.8 3.7 6.9 5.5 3.8 1 6.9 2.5 6.9 3.2 0 0.7 0.5 2.1 1.1 3.1 0.9 1.4 0.6 1.4-1.7 0.2-1.9-1-2.7-1-2.7 0 0 0.7-0.8 1.2-1.6 1.1-0.9-0.2-4.4 0.1-7.8 0.6-4.3 0.7-7.5 0.4-11.1-1l-5-2 3.1 2.6c2.6 2.2 5 2.6 15.8 2.6 7 0 14.8 0.3 17.2 0.8l4.4 0.8-4.9-3.7c-2.7-1.9-4.6-3.8-4.3-4.2 0.7-0.7 7.2 3.9 10.5 7.6l2.6 3-3.3-1c-1.8-0.5-10.6-1.4-19.6-1.8-18.1-1-22.6-2.6-25.2-9.5-1.6-4.3-4.3-5.8-6.9-3.6-3 2.5-2 5.8 3.4 11.3 4.1 4.3 6.3 5.5 11.4 6.1 22 2.7 33.6 4.9 37.9 7.1 12.2 6.2 14.6 14.8 7.2 24.9-4.5 6.1-5.2 10.4-2.9 18.5 1.3 4.9 3.7 6.3 10.4 6.3 2.4 0.1 4.1 1.4 6.5 5.6 4.3 7.5 5 23.3 1.2 28.2-1.4 1.7-2.5 4.2-2.5 5.6 0 1.3-0.5 2.4-1 2.4-1.9 0-4.2-3-4.2-5.5 0-3.1-3-1.6-9.6 4.6-3.6 3.4-4.8 4-5.4 2.5zm-86.4-63q0 0 0 0zm105 48.2c-0.5-1.2-0.5-3.4-0.1-4.9 0.4-1.5-0.3-5.4-1.4-8.8-2.7-8-2.7-8 1.1-4.4 3.4 3.2 4.2 9.5 2.1 17-0.7 2.6-1 2.8-1.7 1.1zm-19.9-24.5c-21.4-6.2-29.9-16.5-25.4-30.6l1.7-5.4 0.8 6.3c1.1 8.3 4.6 11.3 13 11.3 6 0 6.2 0.1 5.6 3.3-0.5 2.8 0.7 4.7 6.7 10.5 4 3.9 6.9 7 6.3 7-0.5-0.1-4.4-1.1-8.7-2.4zm-46.3-21.7c-4.7-0.9-12.1-1.3-16.6-0.9-10.2 0.8-20-3.2-20-8.3 0-2.7 0.7-3.2 3.8-3.2 5.3 0 8-1.2 8-3.5 0-1.6 1-1.3 4.2 1.2 6.8 5.2 11.8 7.3 21 8.9 7.9 1.4 8.7 1.8 8.7 4.6 0 1.8-0.2 3.1-0.3 3-0.2-0.1-4.2-0.9-8.8-1.8zm13.1-61.2c-1-1.2-3.7-2.1-6.2-2.1-2.7 0-4.2-0.5-3.7-1.3 2.3-3.8 13.5-0.1 12.2 4-0.4 1-1.1 0.8-2.3-0.6zm-18.4 92c18.6-2.2 17.9-1.7 13.8-8.6-1.9-3.3-3.1-6.5-2.7-7.2 0.5-0.7 3.1-1.3 5.9-1.3 2.8 0 5.3-0.4 5.7-1 0.7-1.1-14.3-1.2-15.5-0.1-0.4 0.5 0.1 3 1.3 5.7 1.1 2.8 1.9 5.1 1.7 5.3-1.3 1.1-6.2-2.4-6.2-4.5 0-1.3-0.9-3.2-2-4.1-1.8-1.5-1.9-1.3-0.8 1.6 2.5 6.6-3.4 8.2-11.1 3-5.4-3.7-9.3-4.1-12.8-1.5-2.2 1.6-1.9 1.8 3.3 2.8l5.7 1-4.4 1c-2.4 0.6-4.9 1.8-5.5 2.8-0.8 1.4 0.5 1.8 6.1 2.1 3.9 0.2 7.1 1 7.1 1.7 0 0.7-1.4 0.9-3.1 0.5-1.9-0.5-3.8 0-5.2 1.3-3.3 3.4-2.5 4.9 1.5 2.9 1.9-1.1 9.7-2.6 17.2-3.4zm-32.6-53.3c0-2.6 3-1.3 4.7 2.1 1.8 3.5 3.8 1.7 5-4.4l0.8-3.9-1.5 3.8-1.5 3.7-1.7-4.1c-2.4-5.5-4.7-5.1-7.8 1.4-1.4 3.1-3.2 5.7-4 6-0.8 0.2-2.6-2.2-4-5.5-2.8-6.6-5-6.4-6.9 0.7l-1.3 4.4 2.7-3.2c1.7-2.1 2.9-2.7 3.3-1.7 0.4 0.8 1.9 3.1 3.3 4.9l2.7 3.5 3.1-3c1.7-1.6 3.1-3.7 3.1-4.7zm88.7 3.2c0-3.1-7.1-8.7-13.7-10.7-3.6-1-12.6-2.6-20.2-3.4-15.4-1.6-18-3-27.5-14.3-5.7-6.7-10.1-9.2-5.1-2.9 2 2.5 2.7 5 2.4 8.8-0.1 3 0.2 6.1 0.8 7 2.7 4.4 21.7 10 40.4 12 7 0.7 14.2 2.1 16.2 3.2 4.4 2.4 6.7 2.5 6.7 0.3zm-110.7-11.7c2 0.5 2.6 0.2 2.2-1-0.3-1-1.2-2-2-2.3-1.8-0.5-6.9 4.3-6.9 6.5 0 0.9 0.9 0.4 2-1.2 1.3-1.9 2.8-2.5 4.7-2zm40.4-7c-0.8-2.3-1.3-4.9-1.1-5.9 0.2-0.9-0.7-1.9-1.9-2.1-2.9-0.6-3.1 2.6-0.4 4.9 1.1 0.9 2 3.3 2 5.4 0 3.7-0.2 3.8-2.8 1.9-3.3-2.3-6.3-1.4-6.3 2 0 2.1 0.4 2.3 2.5 1.1 2.1-1.1 2.9-0.8 4.2 1.3 1.6 2.5 1.7 2.5 3.5-0.9 1.5-2.8 1.5-4.3 0.3-7.7zm-63.4 1.8c-0.5-2.4-2.4-7.1-4.1-10.5-1.7-3.4-2.8-6.2-2.5-6.2 0.4 0 2.8 1.5 5.4 3.3 2.7 1.8 5.5 3.3 6.2 3.3 1.6 0 1.2-0.5-6.5-6.3-2.9-2.3-7.6-7.1-10.3-10.7-5.3-6.9-9-9.1-11.4-6.7-1 1.1-0.5 1.5 2 1.5 2.6 0 3.7 0.9 4.8 4 1.6 4.8 1 6.4-2.6 6.4-3.6 0-3.1 1.6 1.2 4.1 2.1 1.2 6.9 6.6 10.7 12.1 3.8 5.4 7.2 9.9 7.5 9.9 0.2 0 0.1-1.9-0.4-4.2zm43-0.5c2.5-1 2.7-3.1 0.2-3.1-1 0-2.1-0.7-2.4-1.5-0.3-1-1.6-0.8-4.1 0.8-2.7 1.8-3.1 2.7-1.9 3.5 2.1 1.3 5.3 1.4 8.2 0.3zm24.9-6.9c-0.5-0.8-1.5-1.4-2.2-1.4-0.9 0-0.8 0.7 0.2 2 1.8 2.1 3.4 1.6 2-0.6zm-47.7-0.1c0-0.7-1.2-1.3-2.6-1.3-1.5 0-2.4 0.6-1.9 1.3 1 1.7 4.5 1.7 4.5 0zm44.7-6.9c-2-2.1-2.4-3.5-1.6-4.9 1-1.6 1.7-1.6 3.9-0.3 2.6 1.7 3.4 0.9 1.6-1.7-0.5-0.8-2.7-1.4-4.9-1.3-3.4 0.1-3.9 0.6-4.3 4.3-0.3 3.5 0.1 4.2 2.2 4.2 1.5 0 3 0.6 3.4 1.4 0.5 0.7 1.2 1.3 1.7 1.3 0.4 0-0.5-1.4-2-3zm-30.3-0.9c0-0.6 0.3-2 0.7-3 0.5-1.4-0.2-1.7-2.9-1.4-3.5 0.5-8.2-1.4-6.9-2.7 1.1-1.1 25.8-1.4 26.9-0.4 1.4 1.4-2.1 3.5-5.7 3.5-1.7 0-3 0.8-3 1.9 0 2.7 2.2 3.7 3.1 1.5 0.4-1 2.3-2.1 4.3-2.3 3.3-0.4 3.7-0.9 3.5-4.8-0.2-4.6-3.9-9.8-6.3-8.8-0.9 0.3-3.3-0.3-5.4-1.4-3.4-1.6-4.4-1.6-7.6 0.1-2 1-4.4 1.6-5.2 1.3-0.9-0.4-2.3 0.2-3.2 1.3-1.3 1.6-1.1 1.8 1.1 1.2 1.5-0.4 2.7-0.1 2.7 0.7 0 0.8-1.5 1.8-3.2 2.2-5.7 1.5-5.7 8.4 0.1 8.4 1.7 0 3.5 0.9 3.9 2 0.8 2.1 3.1 2.7 3.1 0.7zm-1.3-13.6c0-0.3 0.9-0.9 2-1.3 1.2-0.5 1.7-0.2 1.2 0.5-0.7 1.2-3.2 1.8-3.2 0.8zm69.1 13.5c-1.8-0.5-4.4-1.1-5.8-1.1-2.2-0.1-2.3 0.1-0.7 1.1 1.1 0.7 3.7 1.3 5.9 1.2 3.8-0.1 3.8-0.1 0.6-1.2zm-83.5-2.4c0-3.2-2.8-5.5-5-4.2-1.3 0.8-1.2 1.2 0.5 1.9 1.3 0.5 1.9 1.7 1.4 2.8-0.4 1.2 0.1 1.9 1.2 1.9 1.1 0 1.9-1.1 1.9-2.4zm29-3.7c-1-0.3-2.1-0.3-2.5 0.1-0.5 0.5 0.3 0.8 1.7 0.7 1.5 0 1.8-0.4 0.8-0.8zm18-5c-0.9-1-2.6-1.9-3.8-1.9-1.4 0.1-1.1 0.7 1.2 1.9 4.2 2.4 4.6 2.4 2.6 0zm-92.2-3.6c-0.4-0.7-1.2-0.4-1.8 0.5-0.6 0.9-0.7 2.2-0.3 2.9 0.4 0.6 1.2 0.4 1.8-0.5 0.5-1 0.7-2.3 0.3-2.9zm42 1.9c-0.4-0.4-1.4 0-2.3 0.9-1.3 1.3-1.2 1.5 0.7 0.8 1.3-0.5 2-1.3 1.6-1.7zm-47.6-1.6c0-0.7-0.6-1.2-1.4-1.2-0.7 0-1.3 0.9-1.3 2 0 1.1 0.6 1.7 1.3 1.2 0.8-0.4 1.4-1.3 1.4-2zm52.4-2.8c-1-0.9-1.6-1-1.6-0.2 0 1.7 1.6 3.3 2.4 2.4 0.4-0.4 0-1.4-0.8-2.2zm39.3 0.9c0.5-1.1 2.1-1.9 3.6-1.9 2.8 0 2.8-0.1 0.5-2.7-1.7-1.9-3.7-2.5-7.3-2.2-2.8 0.1-4.9 0.9-4.6 1.6 0.2 0.7 1 1.1 1.6 0.9 4.8-1.5 7.5-1.7 8.6-0.6q1.3 1.3-2.1 2.2c-1.8 0.4-3.3 1.7-3.3 2.7 0 2.6 2.1 2.5 3 0zm-44.5-2.8c-1-0.4-2.1-0.4-2.5 0.1-0.5 0.4 0.3 0.7 1.7 0.7 1.5-0.1 1.8-0.4 0.8-0.8zm26.4-4.7c-1.3-4-1.8-4.5-3.2-2.2-1.6 2.5-1.6 4.2-0.1 3.3 0.7-0.5 1.6-0.2 2 0.5 1.5 2.4 2.2 1.4 1.3-1.6zm-19.8 0.8c-0.9-0.4-2.4-0.4-3.3 0-0.9 0.3-0.2 0.6 1.6 0.6 1.8 0 2.6-0.3 1.7-0.6zm34.1-5.8c-0.9-1.6-5.8-1.5-5.8 0.1 0 0.7 1 0.9 2.2 0.4q2.2-0.8 1.2 0.7-0.9 1.5 1.1 0.7c1.1-0.4 1.7-1.3 1.3-1.9zm-29.9 0.1c2.5-1.1 2.5-1.1-0.2-1.2-1.6 0-3.3 0.5-3.7 1.2-1 1.6 0.3 1.6 3.9 0zm19.6-3.7c-0.3-0.3-1.6-0.1-2.9 0.4-1.9 0.7-2 1-0.4 2 1.8 1.1 4.6-1 3.3-2.4z"/>
		<path id="path2172" fill-rule="evenodd" class="s7" d="m738.6 382.3c0-1.4 0.3-2.2 0.7-1.7 0.5 0.4 0.5 1.5 0.1 2.5-0.4 1-0.7 0.7-0.8-0.8zm18.3-2.6c0-1.4 0.3-2.2 0.7-1.7 0.4 0.4 0.5 1.5 0.1 2.5-0.4 1-0.7 0.7-0.8-0.8zm-4.4-4.7c-0.4-1.4-0.1-2.6 0.5-2.6 0.7 0 1.2 1.2 1.2 2.6 0 3.3-0.8 3.3-1.7 0zm-23.1-2.4c0.1-1.6 2.6-4.8 2.6-3.3 0 0.8 1.5 1.2 3.6 0.8 2-0.4 3.2-0.3 2.8 0.2-1.2 1.3-9 3.3-9 2.3zm27.2-4.8c-0.5-0.5-0.6-2.7-0.3-5 0.4-2.3-0.3-6.7-1.4-9.9l-2.1-5.8 3.3 3.1c2.3 2.1 3.3 4.3 3.2 7.1-0.3 5.9-1.7 11.5-2.7 10.5zm-6.1-9.8c0-1.8 0.3-2.5 0.6-1.6 0.4 0.9 0.4 2.4 0 3.3-0.3 0.8-0.6 0.1-0.6-1.7zm-76.2-3.5c0.9-0.3 2.4-0.3 3.3 0 0.9 0.4 0.1 0.7-1.7 0.7-1.8 0-2.5-0.3-1.6-0.7zm-9.3-2.4c0.4-1 1.4-1.9 2.1-1.9 0.8 0 0.6 0.8-0.3 1.9-2.1 2.5-2.7 2.5-1.8 0zm0.2-8c0.9-0.4 2.3-0.4 3.2 0 0.9 0.4 0.2 0.7-1.6 0.7-1.8 0-2.5-0.3-1.6-0.7zm25.5-1.4c-1.3-3.7-5.8-8-7.6-7.4-2.4 1-3.5-3.1-1.6-6.1 1.4-2.2 3.1-2.5 13.3-2.5 10.1 0 12 0.3 13.3 2.4 1.3 2.1 1.1 2.7-1.7 3.9-4 1.9-7.7 1.9-11 0.2-3.7-2-4.7 1.7-2.1 7.3 1.9 3.9 1.9 4.5 0.2 4.5-1.1 0-2.4-1.1-2.8-2.3zm4.5-14.3c-1.3-0.3-3.3-0.3-4.6 0-1.3 0.3-0.2 0.6 2.3 0.6 2.5 0 3.5-0.3 2.3-0.6zm40.7 14.7c-18.2-5-27.2-15-24.8-27.5l0.8-3.9 0.9 4.2c1.4 6.7 5.1 9.5 12.8 9.5 5.5 0 6.6 0.3 5.9 2-1.1 3 2.3 8.8 8 13.4 5.4 4.5 5.1 4.7-3.6 2.3zm-78.1-1.1c0.3-0.2 1.7-1.2 3.1-2.3 2.4-1.8 2.5-1.7 0.8 0.4-0.9 1.2-2.4 2.3-3.1 2.3-0.8 0-1.1-0.2-0.8-0.4zm58.4-3.2c-1.6-2.1-1.6-2.2 0.5-0.5 2.2 1.7 2.9 2.7 1.8 2.7-0.3 0-1.3-1-2.3-2.2zm-8-4.4c0.9-0.9 1.9-1.3 2.3-0.9 0.4 0.4-0.3 1.1-1.6 1.6-1.8 0.7-2 0.5-0.7-0.7zm-116.5-1.3c-0.4-0.7-0.5-1.7-0.1-2.1 0.5-0.5 0.8-0.1 0.8 0.9 0 1.3 0.5 1.3 2.3-0.2 2.1-1.6 2.1-1.5 0.5 0.5-2.1 2.7-2.3 2.8-3.5 0.9zm14.9-6.5c-1.2-0.8-0.5-1.2 2.4-1.2 2.4 0 7.4-2 12-4.7 6.3-3.7 9.8-4.9 16.4-5.4 14.9-1.2 9 3.9-6.5 5.6-4.3 0.5-9.5 1.8-11.6 2.9-6 3-10.7 4-12.7 2.8zm9.7 0.6c0.4-0.4 1.5-0.5 2.5-0.1 1 0.4 0.7 0.7-0.8 0.8-1.4 0-2.2-0.3-1.7-0.7zm-34.3-3.9c0-2.2 0.7-5 1.7-6.2 1.6-2.2 11.4-5.4 11.3-3.7-0.1 1.5-6.3 8.1-7.7 8.1-0.7 0-2.2 1.3-3.3 2.9-2 2.9-2 2.9-2-1.1zm93.6 2.5c0.9-0.3 2.6-0.3 3.9 0 1.3 0.3 0.5 0.6-1.6 0.6-2.2 0.1-3.2-0.2-2.3-0.6zm-7.2-1.2c0.5-0.4 1.6-0.5 2.5-0.1 1.1 0.4 0.8 0.7-0.7 0.8-1.4 0-2.2-0.3-1.8-0.7zm19.9-3.3c-3.6-0.6-9.8-0.8-13.9-0.4-5.8 0.6-8.6 0.2-13.4-1.9-9.1-4-9.4-9.2-0.6-9.3 1.9 0 4.2-0.9 5.1-2 1.5-1.8 2-1.7 4.4 0.6 4.2 4 13.9 7.8 22.1 8.7 6 0.7 7.4 1.4 7.4 3.3 0 2.7-1 2.8-11.1 1zm-38.1-1.9c0.4-0.5 1.5-0.5 2.5-0.1 1 0.4 0.7 0.7-0.8 0.8-1.4 0-2.1-0.3-1.7-0.7zm-8.4-15.1c-3.7-4-3.9-4-4.6-1.3-0.9 3.6-2.4 3.5-5.2-0.4l-2.4-3.1-4.2 4-4.3 4.1-4-3.8c-2.2-2.1-4.6-5.1-5.4-6.5-0.8-1.4 1.1 0 4.1 3.3l5.5 5.9-5.9-7.6c-3.3-4.2-6.6-10.1-7.4-13.1-0.8-3-2.6-7.6-4-10.3l-2.5-4.9 6.2 3.3c3.7 1.9 6.4 2.7 6.7 1.9 0.2-0.7 1-1 1.6-0.6 0.7 0.4 1.2 0.1 1.2-0.7 0-0.7 0.5-1.2 1-1.1 0.5 0.1 2.6-0.6 4.6-1.6 2.8-1.3 3.6-2.5 3.3-5.1-0.3-2.8-1.1-3.3-4.6-3.4-2.5 0-4.5 0.7-4.9 1.8-1.1 2.8 0.2 3.5 2.6 1.5 1.8-1.5 2.3-1.5 3.3 0.1 1.1 1.8-2.4 7.2-3.8 5.8-0.4-0.4 0-1.4 0.9-2.2 2.6-2.7 1.7-4.2-1.1-1.7-1.4 1.3-3 2-3.5 1.5-1-1.1 1.9-10.9 3.5-12 0.7-0.4 0.9 0.2 0.5 1.3-0.7 1.8-0.3 1.9 2.8 0.5l3.6-1.7-4.1-1c-2.2-0.6-4.1-1.2-4.1-1.4 0.1-2.2 6.4-15 6.9-13.8 0.4 1.4 1 1.4 3-0.3 3.9-3.2 6.6-3.8 9.2-1.9 1.6 1.2 3.2 1.4 4.6 0.6 2.7-1.4 5.5 1.6 4.5 5-0.5 1.7 0.5 2.9 3.9 4.6 2.5 1.2 5.7 2.3 7 2.3 3.8 0 7.9 6.1 7.9 11.9 0 4.4-0.4 5-3 5-5.2 0-6.3 2.5-3.1 6.8l2.8 3.9-4.6 3.8c-2.5 2-5.5 3.8-6.8 3.8-1.9 0-2.3 1.3-2.3 7.9 0 4.3-0.5 7.8-1.1 7.8-0.7 0-2.2-2.4-3.3-5.3-2.4-6-4.5-6.2-7.2-0.6l-1.8 3.7-3.6-6.3 0.8 3.3c1.6 5.9 3.4 7.1 5.4 3.3 1.9-3.6 4.3-4.5 4.3-1.6 0 1.7 5.3 7.4 6.9 7.4 0.5 0 2.3-2.1 4-4.7l3.2-4.7 3.8 7.1 2.1-3c1.2-1.7 2.2-4.7 2.2-6.7 0-4.4 3.3-5 4.6-0.8l0.9 2.8 1.8-3.2c2.1-3.8 2.3-8.3 0.4-11.8-1.9-3.6-0.4-4.6 2.7-1.8 2.6 2.4 2.6 2.3 2.6-1.5 0-2.2-1.2-5.5-2.7-7.4-3.2-4.1-2.3-6.7 1.7-4.6 2.4 1.3 2.6 1.1 1.9-1.8-0.6-2.2-0.3-3.2 1-3.2 1.4 0 1.7 1.1 1.1 4.1-1 5.3-1.2 5.5-4.3 2.7-3.3-3.1-3.3-1.4 0 2.9 2.6 3.2 3.4 9.8 1.8 13.9-0.4 1.2-1.2 1.8-1.8 1.5-0.5-0.4-1.3 1-1.7 3.1-0.4 2.1-2.3 5.4-4.2 7.5l-3.4 3.7 0.7-3.5c0.5-1.9 0.2-3.9-0.5-4.3-0.8-0.5-1.3 0.8-1.3 2.9 0 3.6-4 9.5-6.4 9.5-0.6 0-1.5-1.3-1.9-2.8-0.7-2.7-0.9-2.6-4.2 1.3-1.9 2.3-4 4.1-4.7 4.1-0.7 0-3.1-1.8-5.2-4.1zm-12.1-12.3c2.6 0.6 3.2 0.3 3.2-1.8 0-3.3-3.5-3.5-6.8-0.5-2.2 2-2.4 1.9-2.4-1.7 0-2.1 1-5.1 2.1-6.7 2.1-3.1 1.5-5.8-1.1-4.8-2.8 1-3.4 15.2-0.9 18.3 1.8 2.2 1.9 2.1 2.3-0.7 0.4-2.3 1-2.7 3.6-2.1zm-1.3 1.1c-0.4-0.4-0.7 0.3-0.6 1.7 0 1.5 0.3 1.8 0.7 0.8 0.4-0.9 0.4-2.1-0.1-2.5zm24.3-9.3c1.1-1.4 2.9-2.8 3.8-3.1 1.5-0.6 1.5-1.1 0.2-3.1-3-4.5-3.3-5.8-1.6-7.7 0.8-1.1 3-2 4.7-2 2.5 0 3.1-0.6 3.1-3.7 0-4.8-4.6-10.6-8.3-10.6-1.6 0-4.1-0.9-5.6-2-2.5-1.7-3-1.7-4.4 0-0.9 1.1-3.3 2-5.3 2-4.5 0-9 5.3-9 10.6 0 3.1 0.5 3.7 3.2 3.7 1.8 0 4 1.2 4.9 2.6 1.9 3.1 3.6 3.5 3.6 0.9 0-1.2 1.1-1.6 3.4-1.1 2.1 0.3 3.9-0.1 4.7-1.2 1-1.4 1.1-1.4 0.6 0.4-0.4 1.2-0.1 2.4 0.7 2.7 0.8 0.2-0.1 1.4-2 2.7-2.8 1.8-3.9 1.9-5.9 0.7-1.4-0.9-3.4-1.2-4.6-0.7-2.9 1.1-4.4 5.1-2.2 5.8 0.9 0.4 2.6 1.7 3.8 3.1 2.7 3.2 9.4 3.2 12.2 0zm-9.7-18.4c-0.6-2.1-0.4-2.7 0.5-1.7 0.8 0.8 1.1 2.2 0.8 3.1-0.3 1-0.9 0.4-1.3-1.4zm5.5 0.1c0-0.7 0.6-1.7 1.3-2.1 0.7-0.5 1.3-0.3 1.3 0.5 0 0.7-0.6 1.6-1.3 2.1-0.7 0.4-1.3 0.2-1.3-0.5zm-15.6-5.9c0-0.3 0.9-1.2 1.9-2.1 1.2-0.9 2-1.1 2-0.3 0 0.7-0.9 1.7-2 2.1-1 0.4-1.9 0.5-1.9 0.3zm40.4 22.7c-0.8-1.4-1.7-2.6-2-2.6-0.4 0-0.1 1.2 0.7 2.6 0.8 1.4 1.7 2.6 2.1 2.6 0.3 0 0-1.2-0.8-2.6zm-51.7-1.7c0.6 0.5 0.6-0.1 0.1-1.3-0.7-1.8-1.3-2-2.7-0.8-1 0.8-1.8 2.1-1.8 2.8 0 0.8 0.7 0.8 1.8-0.1 0.9-0.8 2.1-1.1 2.6-0.6zm7.4-26.2c0-1-1.5-2.2-3.4-2.7-5.3-1.3-2.3-3.7 3.5-2.8 2.8 0.4 5.1 0.3 5.1-0.3 0-2.1-9.5-1.7-11.9 0.6-3.2 2.8-3.1 4.3 0.1 3.5 1.7-0.5 2.9 0 3.4 1.4 1 2.6 3.2 2.8 3.2 0.3zm3.2-11.1c-0.5-1.3 0.1-1.6 2-1.1 1.4 0.4 2.3 0.2 1.9-0.5-0.4-0.6-2.3-1.2-4.1-1.2-2.4 0-3.1 0.6-2.6 1.9 0.4 1.1-0.2 2.1-1.5 2.5-1.2 0.3-0.6 0.5 1.4 0.4 2.5-0.1 3.4-0.7 2.9-2zm8.5 1.1c0-0.8-0.6-1.1-1.3-0.6-1.7 1-1.7 1.9 0 1.9 0.7 0 1.3-0.6 1.3-1.3zm-34.1 47.4c-1.6-2.1-1.6-2.2 0.5-0.5 2.2 1.7 2.9 2.7 1.8 2.7-0.3 0-1.3-1-2.3-2.2zm111.4-2.5c0.5-0.4 1.6-0.4 2.5-0.1 1.1 0.5 0.8 0.8-0.8 0.8-1.3 0.1-2.1-0.2-1.7-0.7zm-117.9-6.7c-1.6-2-1.6-2.1 0.5-0.5 2.2 1.7 2.8 2.8 1.8 2.8-0.3 0-1.3-1-2.3-2.3zm83.6-3.9l-4.5-4.9 4.9 4.5c4.5 4.2 5.5 5.3 4.5 5.3-0.2 0-2.4-2.2-4.9-4.9zm9.8 3.6c-0.4-0.7 0.1-0.9 1.3-0.5 2.2 0.9 2.6 1.8 0.8 1.8-0.7 0-1.6-0.6-2.1-1.3zm41.9-4.9l-2.5-3.6 3.5 3.2c3.6 3.3 4.1 4 2.5 4-0.6-0.1-2.1-1.7-3.5-3.6zm-141.7-4.2c-0.7-1.5-1.1-2.7-0.7-2.7 0.3 0 1.3 1.2 2 2.7 0.8 1.4 1.1 2.6 0.8 2.6-0.4 0-1.3-1.2-2.1-2.6zm109.6 1c-2.5-0.7-5.5-2.1-6.6-3.1-1.1-1-2.4-1.5-2.8-1.2-0.4 0.4-0.4-0.8 0-2.6 0.6-3.2 0.7-3.3 3-1.2 1.8 1.6 5.1 2.2 12.8 2.3 5.7 0.1 9.7-0.2 8.8-0.8-1.8-1.1-0.5-1.3 2.3-0.2 1.1 0.5 1.7 1.4 1.2 2.2-0.5 0.9 0 1.1 1.4 0.5 1.3-0.5 1.9-0.3 1.4 0.5-0.4 0.7-1.6 1.3-2.7 1.3-1.1 0-1.7 0.4-1.4 0.9 0.4 0.6-0.6 1-2.2 1.1-1.5 0-4.5 0.4-6.7 0.8-2.2 0.4-6 0.2-8.5-0.5zm11.6-2.3c-3.1-1.9-13.8-3.3-12.2-1.6 1.5 1.6 5.1 2.5 10.4 2.7 3 0.1 3.4-0.2 1.8-1.1zm-129.6-4c-2.9-1.3-4.8-2.4-4.2-2.5 1.5-0.1 10 3.6 10 4.4 0 0.9 0.4 1-5.8-1.9zm16.2-3.6l-4.5-4.8 4.9 4.4c4.5 4.2 5.5 5.3 4.5 5.3-0.2 0-2.4-2.2-4.9-4.9zm96.8-0.6c-6.3-2.8-6.5-4.3-0.4-3 3.6 0.8 7.8 4.1 6.6 5.1-0.3 0.3-3.1-0.7-6.2-2.1zm-117.6-2.3c0-1.5 0.9-3 2.1-3.5 1.9-0.7 1.8-0.9-0.2-2.1-1.7-0.9-2.7-0.8-3.8 0.5-2.2 2.9-4.5 2.7-3.7-0.2 0.4-1.5 0-2.5-0.9-2.5-1.1 0-1.4 1.3-1.1 3.8 0.3 2.1 0.1 3.6-0.5 3.2-2.2-1.3-0.9-6.4 2.2-9.1 3.7-3.1 10.1-2.9 8.9 0.3q-0.7 1.8 2.1 1.8c1.8 0 3.2 1.2 4.1 3.5 1.9 5 0.7 6.9-4.6 6.9-3.8 0-4.6-0.5-4.6-2.6zm92-3.3c-1.4-1.1-1.8-1.9-0.9-1.9 0.9 0 1.3-0.6 0.9-1.3-0.5-0.7-1.7-1.3-2.8-1.3-1.1 0-1.6 0.6-1.2 1.3 0.5 0.7 0.2 1.3-0.6 1.3-0.9 0-1.3-0.7-0.9-1.6 0.3-0.9 2.1-1.6 4-1.4 3 0.2 3.3-0.1 2.1-2.3-1.5-2.8-6.5-4.5-10.4-3.5-3.4 0.9-3.4-1 0-3.3 1.4-1 2.2-2.2 1.7-2.7-1.6-1.6-7-0.9-7.8 1.1-1.3 3.5-2.8 2.1-2.6-2.6 0-2.8 0.7-4.6 1.8-4.6 2.1 0 2.1 1.6 0 3.8-1.3 1.4-1.1 1.5 1.3 0.2 2.3-1.2 3.8-1.1 6.8 0.5 4.9 2.6 5.3 2.5 5.3-0.3 0.1-1.2 1.3 1 2.8 4.9 4 10.8 4.2 11.8 2.4 11.8-1.3 0-1.3 0.4 0 1.9q3.1 3.7-1.9 0zm26.8 0.6c-1.7-0.7-2.8-1.6-2.4-2 1-1 7.5 0.9 7.5 2.2 0 1.5-1 1.4-5.1-0.2zm-107.2-4.8l-3.1-3.6 3.6 3.2c3.3 2.9 4.1 4 3.1 4-0.2 0-1.8-1.6-3.6-3.6zm113 0.9c-2.2-1.4-3.3-2.5-2.5-2.5 0.9 0 2.9 1.1 4.6 2.5 3.9 3.3 3 3.3-2.1 0zm-20.2 0.9c0-0.3 0.9-0.9 2-1.3 1.1-0.5 1.7-0.2 1.2 0.5-0.8 1.2-3.2 1.8-3.2 0.8zm-41.1-16.5c-1.3-1.4-1.8-2.6-1-2.6 0.8 0 1.8 0.6 2.3 1.3 0.5 0.9 1.8 0.8 3.6-0.2 2.9-1.5 2.9-1.5 0.4 1.3-3 3.4-2.5 3.4-5.3 0.2zm-6.5-1.1c-0.5-0.9-0.6-2-0.2-2.5 1.2-1.1 2.4 0.6 1.8 2.5-0.4 1.3-0.7 1.3-1.6 0z"/>
	</g>
</svg>