<svg version="1.2" baseProfile="tiny-ps" xmlns="http://www.w3.org/2000/svg" viewBox="0 0 3004 2004" width="900" height="600"><style>tspan { white-space:pre }.shp0 { fill: #006c35 } .shp1 { fill: #ffffff } .shp2 { fill: #ffffff;stroke: #ffffff;stroke-width: 12.778 } </style><path class="shp0" d="M3005 2004L3005 0L-1 0L-1 2004L3005 2004Z" /><g ><path fill-rule="evenodd" class="shp1" d="M284.6 246.11C267.22 261.37 256.8 246.11 270.7 228.94C288.07 204.14 310.66 196.51 315.87 238.48C317.61 270.91 296.76 310.97 286.34 330.05C303.71 276.63 305.44 228.94 284.6 246.11ZM435.75 629.56C336.72 631.46 333.25 507.46 345.41 431.16C350.62 402.54 345.41 366.29 331.51 413.99C307.18 490.29 317.61 536.08 291.55 587.59C274.18 621.92 249.86 631.46 230.75 589.49C211.64 547.53 185.58 448.33 208.16 356.76C215.11 330.05 220.32 333.87 220.32 356.76C218.59 404.45 225.53 496.02 246.38 532.26C258.55 555.16 270.71 553.25 277.66 537.99C286.34 522.73 291.56 482.66 293.29 461.68C295.03 410.17 314.14 360.57 334.99 326.24C347.16 305.25 366.26 291.9 380.16 303.34C395.8 314.79 387.12 358.67 378.43 387.28C369.74 415.9 364.54 459.77 383.64 507.47C392.32 530.36 406.22 547.53 430.54 547.53L418.38 377.74C413.17 335.77 401 312.88 407.95 297.62C399.27 278.54 390.58 269 402.74 246.11C414.9 223.22 421.85 207.96 439.23 244.2C463.55 291.9 479.19 335.77 449.65 347.22C453.12 408.26 461.81 484.57 467.02 541.8C489.61 522.72 505.25 486.48 501.77 469.31C496.56 444.51 491.35 408.26 482.66 366.29C475.71 337.68 482.66 312.88 486.14 295.71C491.35 280.45 493.09 274.73 513.94 305.25C533.05 335.77 529.57 356.76 527.84 387.28C526.1 417.8 531.31 438.79 541.74 484.57C552.16 530.35 578.22 536.08 597.33 536.08C616.44 536.08 626.87 528.45 621.66 497.92C618.18 465.49 604.28 408.26 583.43 354.85C576.48 335.77 576.48 328.14 581.7 320.51C586.91 312.88 595.6 303.34 602.55 291.89C611.23 280.45 619.92 289.99 628.61 301.43C637.29 312.88 647.72 324.32 652.93 337.68C665.09 360.57 658.13 377.74 639.03 373.92C661.62 465.49 684.2 549.43 632.08 589.49C576.48 633.37 534.78 602.85 524.36 557.06C519.15 534.17 515.67 532.26 501.77 560.88C496.56 572.32 484.4 591.4 470.5 602.85C477.45 688.69 479.19 751.65 482.66 789.8C484.4 826.05 486.14 852.75 475.71 877.55C465.29 902.35 460.08 915.71 458.34 869.92C458.34 826.06 440.96 698.23 435.75 629.56L435.75 629.56ZM510.46 228.94C519.15 204.14 524.36 221.31 524.36 242.3C524.36 267.1 541.74 272.82 553.9 244.21C560.85 225.13 566.06 209.87 566.06 238.48C567.8 269.01 588.64 274.73 592.12 249.93C595.6 234.67 595.6 230.85 600.81 244.21C606.02 257.56 600.81 267.1 597.33 276.64C592.12 288.08 574.74 291.9 569.53 280.45C560.85 265.19 560.85 267.1 552.16 278.54C541.73 288.08 526.1 288.08 517.41 274.73C508.72 263.28 505.25 244.2 510.46 228.94L510.46 228.94ZM227.26 803.15C277.65 736.38 341.93 702.05 374.94 690.6C395.79 682.97 406.22 673.43 406.22 696.32C407.95 717.31 406.22 719.22 388.84 724.94C348.88 736.38 265.49 782.17 237.69 805.06C223.79 816.51 206.42 829.86 227.27 803.15L227.26 803.15ZM263.75 923.34C265.49 942.42 265.49 955.77 265.49 963.4C265.49 976.75 258.54 990.11 255.06 1007.28C234.21 1089.31 265.49 1129.37 282.86 1098.85C298.5 1068.32 307.19 1072.14 305.45 1096.94C303.71 1178.97 232.48 1184.69 227.26 1116.01C218.58 1007.28 241.16 990.11 248.11 953.86C253.33 929.06 260.28 909.98 263.75 923.34L263.75 923.34ZM630.33 759.27L630.34 759.27C619.9 742.11 609.49 728.75 600.81 724.94C579.96 715.4 578.22 721.12 576.48 742.11C574.74 763.09 579.96 776.45 611.23 766.91C616.44 765 623.39 761.19 630.34 759.28L630.33 759.27ZM630.34 759.28L677.24 740.2C677.24 740.2 677.24 740.19 677.24 740.19C677.23 740.19 677.23 740.2 677.23 740.2L630.34 759.27C630.34 759.27 630.34 759.27 630.34 759.28ZM677.24 740.19C687.66 734.47 703.29 723.03 713.71 717.31C706.76 591.41 692.86 492.2 687.65 444.51C680.7 377.74 675.49 345.31 678.96 312.88C668.54 286.17 665.06 280.45 685.91 253.74C708.5 228.94 713.71 219.4 722.4 249.92C732.82 280.45 748.46 335.77 758.88 360.57C772.78 393 753.67 425.43 732.82 396.82L751.94 690.6C760.62 684.88 767.57 675.34 776.26 667.71C784.95 656.26 802.32 646.72 800.58 677.24C793.63 780.26 864.87 763.09 889.19 673.43C894.4 652.44 901.35 635.28 904.83 681.06C911.78 755.46 969.11 761.18 962.16 688.69C960.42 669.61 946.52 667.7 963.9 652.44C979.54 639.09 984.75 637.18 988.22 663.89C991.7 690.6 993.43 724.94 981.27 761.18C967.37 795.52 913.51 787.89 897.88 763.09C887.45 745.92 887.45 747.83 875.29 763.09C852.7 795.52 779.73 810.78 764.1 755.46C762.36 757.37 760.62 761.18 757.15 763.09C758.88 795.52 760.62 826.04 760.62 854.66C765.83 963.4 753.67 1072.14 645.95 1129.37C536.49 1186.6 395.76 1211.4 354.07 1123.64C314.11 1035.89 329.74 929.06 341.91 883.27C355.81 835.59 361.02 827.95 362.76 875.64C362.76 900.44 355.81 911.89 355.81 929.06C354.07 1041.61 381.87 1125.55 501.75 1106.47C552.14 1096.93 611.21 1072.14 654.65 1033.98C685.92 1007.28 720.67 978.66 717.19 881.37C715.46 850.84 718.93 812.69 717.19 782.17C708.49 785.98 696.34 795.52 689.39 799.34C689.39 810.78 691.13 826.04 691.13 843.21C694.61 932.88 621.63 997.74 546.93 1033.98C472.22 1070.23 425.31 1045.43 395.77 990.11C374.92 950.04 380.14 869.92 395.77 814.6C400.98 797.43 414.88 776.44 407.93 824.14C400.99 881.37 411.41 929.06 435.73 959.58C479.17 1014.91 578.2 953.86 642.48 869.92C652.91 854.66 654.65 833.68 651.17 814.6C633.81 822.23 616.43 827.95 604.27 831.77C588.63 837.49 578.21 841.31 553.89 831.77C527.82 822.23 534.77 808.88 533.04 772.63C531.3 736.38 529.56 726.85 553.89 686.78C579.95 644.82 606.01 646.72 637.28 681.06C656.39 702.04 668.55 719.21 677.24 740.19ZM1539 730.66C1551.16 726.85 1563.33 724.94 1577.22 721.12C1613.71 711.59 1592.86 707.77 1568.54 690.6C1542.48 673.43 1532.05 673.43 1533.79 692.51C1535.53 703.96 1535.53 715.4 1539 730.66L1493.83 745.92C1464.29 698.23 1483.41 663.89 1505.99 627.65C1533.79 583.77 1578.96 597.12 1631.09 637.19C1683.21 677.25 1662.36 740.2 1611.98 772.63C1599.82 780.26 1584.19 787.89 1565.09 795.52C1570.3 808.88 1563.35 812.69 1547.71 801.25C1502.54 818.42 1443.47 843.22 1401.77 868.02C1452.15 871.83 1660.64 868.02 1702.34 862.29C1744.04 858.48 1737.09 866.11 1724.92 906.17C1712.76 944.32 1698.87 940.51 1664.13 946.23C1608.53 957.68 1526.87 984.38 1467.8 1011.09C1408.73 1037.8 1429.58 1085.49 1490.38 1110.29C1537.28 1123.64 1532.08 1129.37 1523.38 1159.89C1516.43 1188.5 1516.43 1196.13 1459.1 1186.6C1318.37 1161.8 1267.99 1075.95 1245.4 1009.18C1158.53 1144.63 1073.4 1219.03 993.48 1196.14C953.52 1186.6 934.41 1146.54 930.93 1096.94C875.33 1125.55 811.05 1150.35 727.66 1177.06C708.54 1184.69 692.91 1175.15 718.97 1161.8C774.57 1131.28 861.44 1079.77 932.67 1024.45C939.62 990.11 955.25 942.42 970.89 908.08C979.58 887.09 984.79 894.72 984.79 911.89C984.79 925.25 981.32 959.59 983.05 984.38C995.22 972.94 1012.59 961.49 1021.28 951.96C1069.92 904.26 1123.78 873.74 1087.3 797.43C1071.66 763.1 1059.5 738.29 1054.3 723.03C1023.02 709.68 1031.71 690.6 1045.61 658.17C1059.51 625.74 1064.71 618.11 1092.51 654.36C1132.47 705.86 1137.68 728.76 1109.88 724.94C1153.32 847.03 1142.88 909.99 1075.14 982.48C1043.86 1018.73 1010.85 1047.34 972.63 1070.23C969.15 1102.66 981.32 1135.09 1036.91 1125.56C1109.88 1114.11 1191.54 1009.19 1226.29 929.06C1210.65 862.29 1175.9 742.1 1155.06 681.06C1144.63 650.53 1155.06 637.18 1163.74 612.38C1174.17 587.58 1179.38 572.32 1191.54 606.66C1203.71 639.09 1241.93 721.12 1259.3 818.41C1278.4 915.7 1274.94 999.64 1320.1 1045.42C1340.95 1066.41 1367 1079.76 1394.81 1087.39C1373.96 1022.53 1417.4 972.93 1474.73 950.04C1439.98 913.79 1386.12 919.52 1325.32 915.7C1280.14 913.79 1285.36 908.07 1297.52 864.2C1309.68 820.32 1323.58 814.6 1356.59 799.34C1401.76 780.26 1446.93 761.18 1493.84 745.92L1539.01 730.66L1539 730.66ZM925.69 473.13C946.54 440.69 958.7 448.33 937.85 482.66C906.58 532.26 936.11 564.69 965.65 528.45C986.5 503.65 991.71 507.46 979.55 537.99C967.4 566.6 934.39 583.77 918.75 568.51C889.21 543.71 904.85 501.74 925.7 473.13L925.69 473.13ZM979.56 278.54C983.03 267.1 974.35 255.65 967.4 272.82C962.18 286.17 960.45 295.71 970.87 303.34C974.35 295.71 977.82 286.17 979.56 278.54ZM970.87 303.34L970.87 303.34L951.76 339.59C951.76 339.59 951.76 339.59 951.76 339.59L970.87 303.34ZM937.86 261.37C958.71 202.24 1028.2 209.87 1009.09 286.17C1007.36 297.62 1002.14 312.88 995.19 328.14C1005.62 343.4 1000.4 362.48 979.56 358.67C956.97 398.73 913.54 442.6 838.83 478.85C804.08 496.02 798.87 482.67 824.93 465.5C875.31 429.25 922.22 385.37 951.76 339.59L951.76 339.59C929.17 318.6 929.17 288.08 937.86 261.37ZM1050.81 310.98C1062.97 276.64 1066.45 289.99 1059.5 320.51C1052.55 351.04 1050.81 429.25 1069.92 473.13C1087.3 509.37 1111.62 524.64 1123.78 480.76C1135.94 438.79 1170.69 349.13 1205.44 295.71C1221.08 270.91 1231.5 263.28 1243.66 284.27C1255.83 303.34 1247.14 309.07 1243.66 347.22C1238.45 385.38 1238.45 436.88 1240.19 478.85C1240.19 520.82 1269.72 555.16 1325.32 518.91C1380.91 484.57 1384.38 423.53 1358.32 289.99C1353.11 263.28 1346.16 259.47 1353.11 246.11C1360.06 232.76 1361.8 223.22 1368.75 209.87C1377.43 192.7 1380.91 198.42 1393.07 230.85C1403.48 263.28 1410.43 314.79 1412.17 375.83C1413.91 421.62 1441.7 524.63 1485.14 515.09C1532.05 503.65 1504.25 381.56 1474.72 297.63C1466.03 276.64 1464.29 270.92 1474.72 259.47C1485.14 249.93 1483.4 246.12 1490.35 232.76C1497.3 219.41 1500.78 209.87 1518.15 227.04C1537.26 244.21 1551.16 265.19 1563.32 301.44C1573.74 339.59 1552.9 331.96 1540.74 318.61C1528.58 307.16 1523.36 307.16 1532.05 330.06C1540.74 351.04 1554.64 425.44 1552.9 459.78C1544.21 570.42 1474.72 623.84 1396.53 509.38C1370.47 566.61 1295.76 621.94 1247.12 589.5C1198.47 557.06 1201.95 471.22 1207.16 417.8C1208.89 391.09 1200.21 385.37 1189.78 413.99C1179.36 442.6 1168.93 484.57 1153.3 526.54C1139.4 570.42 1115.07 589.49 1082.07 549.43C1024.73 478.85 1022.99 396.82 1050.79 310.97L1050.81 310.98ZM1287.08 236.57C1294.04 225.13 1304.45 232.76 1313.14 261.37C1321.83 289.99 1323.57 337.68 1316.62 372.02C1307.93 406.36 1304.46 387.28 1306.19 368.2C1311.4 324.32 1295.77 282.36 1285.34 269C1274.92 251.83 1274.92 249.93 1287.08 236.57L1287.08 236.57ZM878.8 892.82C854.47 904.26 845.79 883.28 852.74 864.2C857.95 848.94 863.16 837.49 880.54 845.12C896.17 852.75 896.17 858.48 897.91 877.55C903.12 904.26 896.17 930.97 885.75 953.86C875.32 974.85 868.37 967.22 875.32 950.05C880.54 936.69 882.27 906.17 878.8 892.82L878.8 892.82ZM1337.44 652.45C1340.91 623.84 1344.39 639.1 1347.87 658.17C1358.29 702.05 1375.66 696.33 1375.66 652.45C1377.4 629.56 1384.35 629.56 1389.56 646.73C1405.2 692.51 1419.1 692.51 1419.1 644.82C1419.1 614.3 1422.57 608.57 1431.26 635.28C1450.38 702.05 1410.42 713.5 1398.26 700.14C1387.85 686.79 1384.37 688.69 1379.16 705.86C1373.95 721.13 1356.58 723.03 1347.89 709.68C1339.2 696.33 1333.99 679.16 1337.46 652.45L1337.44 652.45ZM1982.03 932.88C1992.46 997.75 1978.57 988.21 1962.93 944.33C1933.39 862.3 1867.37 744.02 1794.4 620.02C1799.61 673.44 1801.35 730.67 1806.56 776.45C1820.45 892.82 1822.2 967.22 1801.35 1045.44C1778.76 1123.65 1764.86 1100.76 1778.76 1049.25C1796.14 980.58 1775.29 822.24 1761.39 700.15C1756.18 648.63 1745.75 585.68 1740.54 528.45C1698.84 459.77 1653.67 393 1608.5 328.14C1585.91 318.6 1580.7 307.16 1582.44 289.99C1584.18 272.82 1582.44 257.56 1580.7 236.57C1577.24 215.59 1587.65 200.33 1610.24 223.22C1632.82 246.11 1669.31 278.54 1695.37 310.97C1721.42 341.5 1704.06 351.03 1674.52 337.68L1737.07 438.79C1733.6 396.82 1724.91 351.04 1726.64 324.33C1711.01 299.53 1712.75 291.9 1724.91 255.65C1733.6 225.13 1752.71 230.85 1759.66 251.84C1778.77 301.44 1794.4 337.68 1804.83 381.56C1810.04 406.36 1799.62 417.81 1783.98 398.73C1783.98 438.79 1785.72 482.67 1789.19 530.36C1895.17 709.68 1966.4 847.03 1982.04 932.88L1982.03 932.88ZM1851.73 236.57C1860.42 221.31 1869.11 215.59 1883.01 242.3C1898.64 272.82 1910.8 320.51 1895.17 360.57C1879.53 398.73 1874.32 377.74 1879.53 351.03C1888.22 316.7 1867.37 286.17 1853.47 274.73C1839.57 263.28 1844.78 251.83 1851.73 236.57L1851.73 236.57ZM2022 372.02C2016.79 505.56 2048.06 612.39 2051.53 860.39C2055.01 1001.56 2035.9 1062.6 1997.68 1108.39C1931.66 1194.23 1919.49 1196.14 1837.84 1201.86C1782.24 1205.68 1796.14 1188.51 1832.62 1177.06C1862.16 1169.43 1902.12 1150.35 1968.14 1072.14C2028.94 999.65 2015.05 950.05 2009.84 843.22C2004.63 736.39 2002.89 608.57 1964.67 320.51C1954.24 301.44 1955.98 280.45 1964.67 270.91C1973.35 259.47 1982.04 253.75 1994.2 236.58C2004.63 221.32 2009.84 228.94 2018.53 261.38C2027.21 293.81 2034.16 328.15 2042.85 356.76C2051.54 385.37 2035.9 385.37 2022 372.02ZM1585.91 1100.75C1603.29 1089.31 1611.97 1079.77 1625.87 1074.04C1639.77 1066.41 1650.2 1068.32 1639.77 1100.75C1629.35 1138.91 1634.56 1150.35 1657.15 1140.81C1678 1133.18 1690.15 1123.64 1707.53 1116.01C1723.17 1108.38 1740.53 1108.38 1716.22 1129.37C1697.12 1146.54 1669.32 1169.43 1653.67 1173.24C1618.92 1182.78 1601.55 1167.52 1608.5 1137C1615.45 1108.38 1620.66 1096.94 1599.81 1106.47C1575.49 1117.92 1577.23 1106.47 1585.91 1100.75L1585.91 1100.75ZM1865.63 452.14C1872.58 475.03 1881.27 486.48 1886.48 457.87C1889.96 433.06 1896.91 425.44 1900.38 452.14C1905.6 478.85 1919.48 475.03 1922.97 450.23C1928.18 425.43 1935.13 412.08 1938.61 438.79C1942.08 467.4 1940.34 476.94 1936.87 486.48C1935.13 494.11 1921.23 503.65 1910.81 492.2C1898.65 480.76 1895.17 480.76 1886.48 490.29C1867.38 509.37 1860.42 496.02 1856.95 469.31C1855.21 446.42 1862.16 436.88 1865.64 452.14L1865.63 452.14Z" /><path class="shp2" d="M2141.88 381.56C2166.2 394.91 2192.26 402.54 2173.15 370.11C2154.04 339.59 2138.4 288.08 2127.98 249.93C2115.82 211.77 2112.34 213.68 2093.23 246.11C2063.7 295.71 2089.76 343.4 2096.71 400.63L2152.3 868.02C2159.26 929.06 2167.94 969.12 2154.04 1035.89C2148.83 1056.88 2155.78 1062.6 2167.94 1037.8C2216.59 936.69 2183.58 848.94 2178.37 791.71L2136.67 377.74" /><path fill-rule="evenodd" class="shp1" d="M2732.6 921.43C2737.8 1003.46 2725.65 969.12 2704.8 929.06C2685.69 896.62 2657.88 850.83 2610.98 782.16C2616.19 848.93 2616.19 904.25 2612.72 930.96C2600.55 995.82 2588.39 995.82 2591.87 932.87C2595.33 877.54 2588.39 808.87 2576.23 732.56L2485.89 593.3L2501.53 898.54C2506.74 1032.08 2440.72 1066.41 2404.24 1058.78C2367.75 1053.06 2345.16 1039.71 2319.11 1003.46C2308.68 990.11 2308.68 969.12 2287.83 995.83C2261.77 1030.17 2249.61 1091.21 2204.44 1159.89C2181.85 1196.14 2167.95 1192.32 2124.52 1150.35C2089.77 1119.84 2070.66 1089.31 2101.93 948.14C2114.09 890.91 2119.31 919.52 2119.31 955.77C2117.57 992.01 2121.04 1043.52 2141.89 1089.31C2164.47 1135.09 2188.79 1104.57 2202.69 1070.23C2218.34 1033.98 2237.44 992.01 2265.24 942.41C2294.77 889 2308.67 877.55 2346.9 938.6C2367.74 972.94 2390.33 990.11 2412.91 980.57C2435.5 972.94 2449.4 946.23 2451.14 900.45C2454.62 824.14 2445.94 702.05 2432.04 511.28C2395.55 459.77 2357.33 404.45 2317.37 351.03C2296.52 324.33 2296.52 309.06 2300 293.8C2301.73 276.64 2300 259.47 2300 240.39C2300 221.31 2313.89 221.31 2329.53 242.3C2343.43 263.28 2376.44 291.9 2392.08 309.07C2409.45 326.24 2397.29 341.5 2381.65 331.96C2393.82 352.95 2407.72 375.84 2423.35 398.73C2421.61 373.93 2418.14 345.31 2416.4 318.61C2400.77 288.08 2405.99 265.19 2425.09 232.76C2437.25 213.68 2442.46 213.68 2451.15 238.48C2459.84 263.28 2478.95 318.61 2485.9 345.31C2494.58 370.11 2487.63 373.93 2472 360.57L2478.95 486.48L2557.13 604.76C2541.5 507.47 2527.6 400.63 2524.13 289.99C2515.44 270.91 2524.13 259.47 2536.29 234.67C2550.19 209.87 2560.6 204.14 2569.29 230.85C2579.71 259.47 2593.61 326.24 2600.56 351.04C2607.51 375.84 2597.09 391.1 2583.19 375.84C2583.19 440.7 2595.35 562.79 2604.04 677.25L2690.91 816.51C2722.18 868.02 2729.13 894.72 2732.61 921.43L2732.6 921.43ZM2256.56 770.73C2256.56 757.37 2261.77 753.56 2282.62 734.48C2299.99 719.22 2348.64 681.06 2364.28 663.89C2379.92 646.73 2392.08 631.47 2395.55 652.45C2397.29 673.43 2400.76 681.06 2381.65 692.51C2362.55 702.05 2312.15 736.39 2296.52 749.74C2279.14 765 2256.56 784.08 2256.56 770.72L2256.56 770.73ZM2261.76 536.08C2258.28 553.25 2237.44 553.25 2239.17 534.17C2240.91 515.09 2239.17 518.91 2239.17 503.65C2237.44 488.39 2254.81 478.85 2263.5 492.2C2273.92 505.56 2291.3 547.53 2296.5 562.79C2303.45 578.05 2306.92 574.23 2306.92 553.25C2305.18 528.45 2301.71 505.56 2303.45 488.39C2305.18 478.85 2310.4 467.41 2320.82 457.87C2332.98 448.33 2339.92 446.42 2345.14 463.59C2348.62 478.85 2359.05 480.76 2353.83 494.11C2346.88 513.19 2331.25 475.04 2320.83 501.74C2315.62 520.82 2320.83 574.23 2319.09 593.31C2319.09 610.48 2312.14 635.28 2299.99 606.67C2291.31 587.59 2279.14 555.16 2261.77 536.08L2261.76 536.08ZM2772.56 351.05C2772.56 351.05 2772.56 351.05 2772.57 351.05C2772.57 351.05 2772.57 351.05 2772.57 351.05L2772.56 351.05ZM2772.57 351.05C2765.62 444.53 2795.15 553.27 2803.84 801.26C2814.26 1077.87 2716.97 1144.64 2626.63 1169.44C2534.54 1194.24 2577.98 1161.81 2616.2 1133.19C2734.35 1047.35 2763.88 972.95 2756.93 839.41C2753.46 747.84 2737.81 589.5 2704.81 286.18C2697.87 272.83 2699.6 255.66 2716.97 232.77C2732.6 209.88 2736.07 202.25 2749.97 234.68L2789.93 331.97C2802.09 364.39 2791.66 370.12 2772.57 351.05ZM2631.83 290C2640.51 276.65 2645.73 261.38 2661.36 303.35C2677 343.41 2678.74 400.65 2673.52 429.26C2668.31 459.78 2657.89 463.6 2657.89 431.17C2657.89 398.74 2647.46 356.77 2635.3 333.88C2623.14 312.89 2621.4 309.08 2631.83 290ZM2349.28 755.72C2357.97 744.39 2366.65 740.14 2380.55 759.96C2396.19 782.62 2408.35 818.03 2392.71 847.76C2377.08 876.09 2371.86 860.51 2377.08 840.68C2385.76 815.19 2364.92 792.53 2351.02 784.04C2337.12 775.54 2342.33 767.05 2349.28 755.72L2349.28 755.72Z" /><path fill-rule="evenodd" class="shp1" d="M2444.79 1114.09C2449.78 1121.06 2453 1127.5 2444.39 1138.94C2436.22 1147.15 2430.47 1151.67 2422.3 1159.88C2418.45 1167.09 2415.98 1178.03 2427.78 1181.52C2449.56 1188.23 2490.66 1158.38 2490.66 1157.63C2498.82 1150.91 2496.1 1138.23 2495.42 1138.23C2490.66 1132.26 2479.93 1135.8 2472.71 1134.84C2469.27 1134.84 2467.25 1127 2472.62 1116.06C2477.1 1109.25 2478.7 1105.08 2481.73 1096.69C2485.13 1088.48 2482.21 1083.01 2469.96 1078.53C2457.49 1076.04 2452.5 1077.29 2438.66 1078.53C2431.18 1080.27 2428.63 1083.93 2427.27 1093.89C2427.8 1108.99 2436.17 1108.12 2444.78 1114.09L2444.79 1114.09Z" /></g><g ><path class="shp1" d="M2123.21 1764.25C2117.64 1752.03 2103.87 1737.99 2092.6 1733.04C2081.34 1728.1 2070.66 1713.71 2068.88 1701.06C2066.08 1681.22 2067.62 1679.72 2080.18 1690.15C2096.15 1703.4 2114.31 1697.01 2114.31 1678.13C2114.31 1649.5 2071.92 1645.13 1948.71 1661.05C1856.33 1672.98 1749.92 1676.63 1490.85 1676.73C1036.98 1676.9 931.66 1663.24 768.96 1583.07C722.55 1560.21 665.59 1524.8 642.39 1504.39L600.2 1467.28L659.91 1491.02C743.56 1524.27 874.31 1556.09 984.59 1570.02C1103.4 1585.04 1600.11 1585.44 1753.36 1570.65C2031.35 1543.81 2058.31 1539.53 2068.42 1520.63C2082.31 1494.68 2074.41 1479.35 2056.41 1497.34C2048.23 1505.52 2038.93 1509.6 2035.73 1506.41C2024.28 1494.95 2030.25 1467.06 2046.74 1455.04C2055.98 1448.3 2064.19 1432.82 2064.98 1420.64C2065.78 1408.45 2068.66 1396.25 2071.39 1393.52C2078.94 1385.97 2104.93 1410.52 2104.93 1425.19C2104.93 1432.29 2112.69 1438.11 2122.18 1438.11C2131.66 1438.11 2144.04 1448.23 2149.68 1460.61C2161.53 1486.63 2154.51 1498.89 2136.37 1483.84C2119.08 1469.49 2108.15 1499.08 2123.78 1517.91C2138.18 1535.26 2155.55 1535.29 2203.37 1518.07C2224 1510.64 2266.87 1504.37 2298.64 1504.14C2351.86 1503.76 2358.3 1506 2380.67 1532.58C2410.85 1568.44 2411.46 1598.24 2382.72 1631.65C2360.98 1656.93 2359.96 1657.14 2335.84 1641.33C2322.28 1632.45 2311.19 1621.06 2311.19 1616.02C2311.19 1599.91 2287.98 1606.21 2275.86 1625.61C2263.4 1645.57 2223.14 1650.65 2198.9 1635.32C2180.86 1623.91 2151.7 1649.44 2152.11 1676.28C2152.38 1694.52 2153.29 1694.76 2164.75 1679.66C2179.53 1660.2 2189.31 1667.42 2189.31 1697.79C2189.31 1710.1 2182.01 1722.96 2172.9 1726.7C2163.66 1730.49 2156.49 1743.32 2156.49 1756.08C2156.49 1786.66 2135.73 1791.75 2123.19 1764.25L2123.21 1764.25Z" /><g ><path class="shp0" d="M2287.17 1555.81C2287.17 1565.11 2294.7 1572.65 2304 1572.65C2313.3 1572.65 2320.83 1565.11 2320.83 1555.81C2320.83 1546.52 2313.3 1538.98 2304 1538.98C2294.7 1538.98 2287.17 1546.52 2287.17 1555.81Z" /><path class="shp0" d="M2194.58 1564.23C2194.58 1573.53 2202.12 1581.07 2211.42 1581.07C2220.71 1581.07 2228.25 1573.53 2228.25 1564.23C2228.25 1554.93 2220.71 1547.4 2211.42 1547.4C2202.12 1547.4 2194.58 1554.93 2194.58 1564.23Z" /><g ><path class="shp0" d="M2110.05 1546.01C2111.56 1551.84 2108.06 1557.79 2102.22 1559.29C2096.39 1560.8 2090.44 1557.3 2088.94 1551.47C2087.43 1545.63 2090.93 1539.68 2096.76 1538.18C2102.6 1536.67 2108.55 1540.17 2110.05 1546.01L2110.05 1546.01Z" /><path class="shp0" d="M2146.25 1606.12C2147.75 1611.95 2144.25 1617.9 2138.42 1619.4C2132.59 1620.91 2126.64 1617.41 2125.13 1611.58C2123.62 1605.74 2127.13 1599.79 2132.96 1598.29C2138.79 1596.78 2144.74 1600.28 2146.25 1606.12L2146.25 1606.12Z" /><path class="shp0" d="M2107.53 1616.13C2109.04 1621.96 2105.53 1627.91 2099.7 1629.41C2093.87 1630.92 2087.92 1627.42 2086.41 1621.58C2084.9 1615.75 2088.41 1609.8 2094.24 1608.3C2100.07 1606.79 2106.02 1610.29 2107.53 1616.13L2107.53 1616.13Z" /><path class="shp0" d="M2150.84 1566.82C2152.35 1572.65 2148.84 1578.6 2143.01 1580.1C2137.18 1581.61 2131.23 1578.11 2129.72 1572.27C2128.22 1566.44 2131.72 1560.49 2137.55 1558.99C2143.38 1557.48 2149.33 1560.98 2150.84 1566.82L2150.84 1566.82Z" /><path class="shp0" d="M2084.46 1583.98C2085.97 1589.81 2082.47 1595.76 2076.63 1597.27C2070.8 1598.77 2064.85 1595.27 2063.34 1589.44C2061.84 1583.61 2065.34 1577.66 2071.17 1576.15C2077.01 1574.64 2082.95 1578.15 2084.46 1583.98L2084.46 1583.98Z" /></g></g></g></svg>