<svg version="1.2" xmlns="http://www.w3.org/2000/svg" viewBox="0 0 900 600" width="900" height="600">
	<style>
		.s0 { fill: #dd0000 } 
		.s1 { fill: #ffffff } 
		.s2 { fill: #003893 } 
		.s3 { fill: #fefefe } 
	</style>
	<path id="Layer" class="s0" d="m0 0h900v600h-900z" />
	<path id="Layer" class="s1" d="m0 0h900v400h-900z" />
	<path id="Layer" class="s2" d="m0 0h900v200h-900z" />
	<g id="g6">
		<path id="rect4" class="s0" d="m0 0h300v600h-300z" />
		<path id="p" class="s3" d="m269.5 193.4c-5.2 11.6-23.8 16.2-31.8 5c3.7-1 9.3-1.7 11-6.6c0.5-3 0.6-6.7-2-8.8c-18.1-13.8-31.3 21.8-11.4 27.4c-12.8 4.6-13.4 22.7-2.2 29.4c10.1 6.5 22.6-8.3 11.6-15.6c-8.8-0.2-6.7-4.4 0-6.8c10.5-4.4 23.5 3.2 26.6 13.8c1 14.7-15.1 26.5-28 17.6c-4.1-1-8.5-0.8-12.8-0.8c-6.4-0.4-12.4 0.6-18.4 1.6c-0.8-0.1-2.4 0.5-2.4-0.8v-76.8c0-1.3 1.6-0.6 2.4-0.8q5.5 1.3 11.2 1.6c3.2 1.3 9.6 1.3 12.8 0c15.5-8.6 40.9-0.4 33.4 20.6z" />
		<path id="p" class="s3" d="m63.9 172.8c3.2 1.3 9.6 1.3 12.8 0q5.7-0.3 11.2-1.6c0.8 0.2 2.4-0.5 2.4 0.8v76.8c0 1.3-1.6 0.7-2.4 0.8c-6-1-12-2-18.4-1.6c-4.3 0-8.7-0.2-12.8 0.8c-12.9 8.9-29-2.9-28-17.6c3.1-10.6 16.1-18.2 26.6-13.8c6.7 2.4 8.8 6.6 0 6.8c-11 7.3 1.5 22.1 11.6 15.6c11.2-6.7 10.6-24.8-2.2-29.4c19.9-5.6 6.7-41.2-11.4-27.4c-2.6 2.1-2.5 5.8-2 8.8c1.7 4.9 7.3 5.6 11 6.6c-8 11.2-26.6 6.6-31.8-5c-7.5-21 17.9-29.2 33.4-20.6z" />
		<path id="p" class="s3" d="m269.5 373.4c-5.2 11.6-23.8 16.2-31.8 5c3.7-1 9.3-1.7 11-6.6c0.5-3 0.6-6.7-2-8.8c-18.1-13.8-31.3 21.8-11.4 27.4c-12.8 4.6-13.4 22.7-2.2 29.4c10.1 6.5 22.6-8.3 11.6-15.6c-8.8-0.2-6.7-4.4 0-6.8c10.5-4.4 23.5 3.2 26.6 13.8c1 14.7-15.1 26.5-28 17.6c-4.1-1-8.5-0.8-12.8-0.8c-6.4-0.4-12.4 0.6-18.4 1.6c-0.8-0.1-2.4 0.5-2.4-0.8v-76.8c0-1.3 1.6-0.6 2.4-0.8q5.5 1.3 11.2 1.6c3.2 1.3 9.6 1.3 12.8 0c15.5-8.6 40.9-0.4 33.4 20.6z" />
		<path id="p" class="s3" d="m63.9 352.8c3.2 1.3 9.6 1.3 12.8 0q5.7-0.3 11.2-1.6c0.8 0.2 2.4-0.5 2.4 0.8v76.8c0 1.3-1.6 0.7-2.4 0.8c-6-1-12-2-18.4-1.6c-4.3 0-8.7-0.2-12.8 0.8c-12.9 8.9-29-2.9-28-17.6c3.1-10.6 16.1-18.2 26.6-13.8c6.7 2.4 8.8 6.6 0 6.8c-11 7.3 1.5 22.1 11.6 15.6c11.2-6.7 10.6-24.8-2.2-29.4c19.9-5.6 6.7-41.2-11.4-27.4c-2.6 2.1-2.5 5.8-2 8.8c1.7 4.9 7.3 5.6 11 6.6c-8 11.2-26.6 6.6-31.8-5c-7.5-21 17.9-29.2 33.4-20.6z" />
		<path id="rect10" class="s3" d="m120 0h60v600h-60z" />
		<path id="rect8" class="s3" d="m0 270h300v60h-300z" />
	</g>
</svg>