<svg version="1.2" baseProfile="tiny-ps" xmlns="http://www.w3.org/2000/svg" viewBox="0 0 300 200" width="900" height="600"><title></title><style>tspan { white-space:pre }.shp0 { fill: #ffd509 } .shp1 { fill: #009801 } .shp2 { fill: #e80000 } </style><path class="shp0" d="M0 0L300 0L300 200L0 200L0 0Z" /><g ><path class="shp1" d="M149.51 167.08C112.43 167.08 82.46 137.11 82.46 100.03C82.46 62.95 112.43 32.98 149.51 32.98C186.59 32.98 216.56 62.95 216.56 100.03C216.56 137.11 186.59 167.08 149.51 167.08Z" /><path class="shp2" d="M150.56 167.08C106.68 161.9 88.91 116.45 96.56 92.6C104.21 68.75 125.75 58.23 142.63 58.01C159.5 57.78 170.08 71.96 168.28 83.66C166.63 94.37 158.03 102.05 149.03 100.03C140.03 98 131.44 105.69 129.79 116.4C127.99 128.1 138.57 142.27 155.44 142.05C172.32 141.82 193.86 131.3 201.51 107.45C209.16 83.6 191.39 38.15 149 32.95C187.5 32.92 217.54 62.96 217.54 99.97C217.54 136.98 187.5 167.02 150.49 167.02L150.49 167.02" /><path class="shp1" d="M149.5 86.31C146.21 86.31 143.56 83.65 143.56 80.37C143.56 77.08 146.21 74.43 149.5 74.43C152.78 74.43 155.44 77.08 155.44 80.37C155.44 83.65 152.78 86.31 149.5 86.31Z" /><path class="shp2" d="M149.5 125.65C146.21 125.65 143.56 122.99 143.56 119.71C143.56 116.42 146.21 113.77 149.5 113.77C152.78 113.77 155.44 116.42 155.44 119.71C155.44 122.99 152.78 125.65 149.5 125.65Z" /></g></svg>