<svg version="1.2" xmlns="http://www.w3.org/2000/svg" viewBox="0 0 900 600" width="900" height="600">
	<title></title>
	<style>
		.s0 { fill: #dd0000 } 
		.s1 { fill: #ffffff } 
		.s2 { fill: #003893 } 
		.s3 { fill: #ffe500 } 
	</style>
	<path id="Layer" class="s0" d="m0 0h900v600h-900z"/>
	<path id="Layer" class="s1" d="m0 0h900v400h-900z"/>
	<path id="Layer" class="s2" d="m0 0h900v200h-900z"/>
	<g id="g6">
		<path id="rect4" class="s2" d="m0 0h300v600h-300z"/>
		<g id="Layer">
			<path id="Layer" fill-rule="evenodd" class="s1" d="m194.9 300.4l29.1-37.8 75.8 100.3q-2.1 9.6-4.9 18.7c-8.5 14.2-24.7 30.3-45.4 30.3-16.6 0-33.2-13.3-49.8-13.3-16.6 0-33.2 13.3-49.7 13.3-16.6 0-33.2-13.3-49.8-13.3-16.6 0-33.2 13.3-49.8 13.3-20.9 0-37.2-16.4-45.7-30.7-1.7-5.9-3.3-11.9-4.7-18.2l75.9-100.4 29.1 37.8 45-87.9zm-45 124.8c16.6 0 33.2-13.3 49.8-13.3 16.6 0 33.1 13.3 49.7 13.3 13 0 24.2-4.6 32.9-11.1-3.1 6.6-6.4 12.9-9.9 18.9-6.8 4.2-14.5 7-23 7-16.6 0-33.1-13.3-49.7-13.3-16.6 0-33.2 13.3-49.8 13.3-16.6 0-33.2-13.3-49.8-13.3-16.6 0-33.1 13.3-49.7 13.3-8.6 0-16.4-2.9-23.3-7.1-3.5-6.1-6.8-12.4-9.9-19 8.8 6.6 20 11.3 33.2 11.3 16.6 0 33.1-13.3 49.7-13.3 16.6 0 33.2 13.3 49.8 13.3zm0 28.1c16.6 0 33.2-13.3 49.8-13.3 16.6 0 33.1 13.3 49.7 13.3 3.5 0 6.9-0.4 10.2-1-28.7 38.3-67.8 64-109.7 78.8-42-14.8-81.2-40.5-109.9-78.9 3.3 0.7 6.8 1.1 10.4 1.1 16.6 0 33.1-13.3 49.7-13.3 16.6 0 33.2 13.3 49.8 13.3z"/>
			<g id="a">
				<path id="b" fill-rule="evenodd" class="s3" d="m75.1 78h37.7l-18.9 32.6"/>
				<path id="b" fill-rule="evenodd" class="s3" d="m93.9 67.1l18.9 32.6h-37.7"/>
			</g>
			<g id="a">
				<path id="b" fill-rule="evenodd" class="s3" d="m187.2 78h37.6l-18.8 32.6"/>
				<path id="b" fill-rule="evenodd" class="s3" d="m206 67.1l18.8 32.6h-37.6"/>
			</g>
			<g id="a">
				<path id="b" fill-rule="evenodd" class="s3" d="m131.1 153.1h37.7l-18.8 32.6"/>
				<path id="b" fill-rule="evenodd" class="s3" d="m150 142.2l18.8 32.6h-37.7"/>
			</g>
		</g>
		<path id="Layer copy" class="s1" d="m0 364h300v236h-300z"/>
	</g>
</svg>