<svg version="1.2" xmlns="http://www.w3.org/2000/svg" viewBox="0 0 900 600" width="900" height="600">
	<title></title>
	<style>
		.s0 { fill: #00247d } 
		.s1 { fill: none;stroke: #ffffff;stroke-width: 52 } 
		.s2 { fill: none;stroke: #ffffff;stroke-width: 86.7 } 
		.s3 { fill: none;stroke: #cf142b;stroke-width: 52 } 
		.s4 { fill: #ffffff } 
		.s5 { fill: #a77433 } 
		.s6 { fill: #663300 } 
		.s7 { fill: none;stroke: #000000;stroke-width: .6 } 
		.s8 { fill: #a77433;stroke: #000000;stroke-width: .6 } 
		.s9 { fill: #5e3812 } 
		.s10 { fill: #28170b } 
		.s11 { fill: #4c2712 } 
		.s12 { fill: #4c2712;stroke: #000000;stroke-width: .6 } 
		.s13 { fill: none;stroke: #00247d;stroke-width: 1.2 } 
	</style>
	<g id="Layer">
		<path id="Layer" class="s0" d="m0 0h450v300h-450z"/>
		<g id="Layer">
			<path id="Layer" class="s1" d="m0 0l450 300m0-300l-450 300"/>
			<path id="Layer" class="s2" d="m225 0v300m-225-150h450"/>
			<path id="Layer" class="s3" d="m225 0v300m-225-150h450"/>
		</g>
		<path id="Layer" class="s0" d="m0 300h900v300h-900zm450-300h450v600h-450z"/>
	</g>
	<g id="layer">
		<circle id="path3215-6-4" class="s4" cx="675" cy="300" r="140"/>
		<path id="path4142" fill-rule="evenodd" class="s5" d="m713.5 287.1c-1.5-4.9-2.9-14 6.4-24.8 0 0-9.9-0.4-18.4-7-2.8-2.3-6.9-5.9-8.6-9.4-5-10.6-5.4-17.9-4.7-23 1.3-9 6.9-11.6 4.4-17.3-2.5-5.5-9.2-6.3-10-13.7-0.5-3.9 0.6-7.1 1.8-9 1-1.5 1.9-2.6 2.9-2.3 0.9 0.3-0.3 1.8-0.1 4.5 0.2 2.7 0.7 5.9 1.8 8.1 2.9 5.4 11.4 9 13.7 14.7 2.4 6.3-3.5 9-5.1 18.5-0.7 4.3 0.8 9.3 4.1 13.8 7.3 10.1 26.7 4.3 34.1 14.4 1.9 2.6 0.9 5.2 0.5 8.3-0.5 3.5-5.6 8.1-7.3 12.4-2.7 6.6-1.8 13.7-1.8 13.7z"/>
		<path id="path4329" fill-rule="evenodd" class="s6" d="m687.3 180.6c0.9 0.3-0.3 1.8-0.1 4.5 0.2 2.7 0.7 5.9 1.8 8.1 2.9 5.4 11.4 9 13.7 14.7 2.5 6.3-3.5 9-5.1 18.5q-0.3 1.7-0.1 3.5c0 0-0.8-0.5-1.3-0.6-1.1-0.2-2.3-0.4-3.3 0.1-1.1 0.6-1.8 1.9-2 3.2-0.4 3.8 2 7.6 4.1 10.8 2.2 3.3 5.2 6.3 8.7 8.2 3 1.8 6.6 2.6 10.1 2.8 2.5 0.1 5.2 0 7.5-1.1 0.8-0.4 2.1-1.9 2.1-1.9 0 0 0.5 4.1 0 6-0.7 2.9-3.6 5.1-3.6 5.1h-0.1q0.1-0.1 0.2-0.2c0 0-9.9-0.4-18.4-7-2.8-2.3-6.9-5.9-8.6-9.4-5-10.6-5.4-17.9-4.7-23 0.2-1.6 0.6-2.9 1-4.1 0 0-0.8 4.4 0.8 5.1 3.1 1.3 4.6-3.7 6.5-6.4 1.1-1.6 1.4-3.5 1.7-5.5 0.4-2.3 0.7-4.9-0.4-7.1-1.2-2.4-3.2-4-5.6-5.2-0.9-0.5-2-0.9-3.1-0.8-0.6 0.1-1.5 1-1.5 1-2.4-1.9-4.6-4-5-8-0.5-3.9 0.6-7.1 1.8-9 0.9-1.3 1.7-2.3 2.5-2.3q0.2 0 0.4 0zm48.5 74c1.9 2.6 0.9 5.2 0.5 8.3-0.2 1-0.7 2.1-1.4 3.2 0 0-3.9-3.8-5.4-6-1.1-1.6-2-3.3-2.5-5.1-0.5-1.9-0.3-6-0.3-6 3.7 1 6.9 2.6 9.1 5.6zm-8 9.2c2.3 0.7 6 4 6 4-1.7 2.4-3.8 5-4.8 7.5-2.7 6.6-1.8 13.7-1.8 13.7l-10.8-1.5c-0.4-4.9-1.6-11-0.5-13.7 2 0.8 3.9 1.3 5.9 0.8-0.8-1.7-1.6-3.4-4.2-5 2.6-0.7 5.1-2 8.4-0.1-0.6-2.9-1.9-4.5-3.3-5.7 0 0 3.5-0.5 5.1 0z"/>
		<path id="path4334" class="s7" d="m713.5 287.1c-1.5-4.9-2.9-14 6.4-24.8 0 0-9.9-0.4-18.4-7-2.8-2.3-6.9-5.9-8.6-9.4-5-10.6-5.4-17.9-4.7-23 1.3-9 6.9-11.6 4.4-17.3-2.5-5.5-9.2-6.3-10-13.7-0.5-3.9 0.6-7.1 1.8-9 1-1.5 1.9-2.6 2.9-2.3 0.9 0.3-0.3 1.8-0.1 4.5 0.2 2.7 0.7 5.9 1.8 8.1 2.9 5.4 11.4 9 13.7 14.7 2.4 6.3-3.5 9-5.1 18.5-0.7 4.3 0.8 9.3 4.1 13.8 7.3 10.1 26.7 4.3 34.1 14.4 1.9 2.6 0.9 5.2 0.5 8.3-0.5 3.5-5.6 8.1-7.3 12.4-2.7 6.6-1.8 13.7-1.8 13.7z"/>
		<path id="path4245" fill-rule="evenodd" class="s8" d="m729.4 291c0.3-11.1 11.9-14.4 16.8-13.1 1.4 11.4-11.4 18-13.4 15.9z"/>
		<path id="path4247" fill-rule="evenodd" class="s6" d="m741.2 281.9c0.5 3-3.5 6.3-4.2 6.8-2.8 0.6-3.9-1.5-3.8-2.4 1.3-2.1 3.3-4.2 8-4.4z"/>
		<path id="path4143" fill-rule="evenodd" class="s5" d="m695.5 294.9c0 0-6.7-6.4-15.7-7.4-10.5-1.2-19.4 5.8-28.6 3.6-2.5-0.6-6.3-3.1-7.9-5.2-7.4-10-4.1-30.7-10.3-34.9-5.5-3.6-28.4 3.8-36-2.9-6.1-5.4-1.3-8.8-9.3-20.2-0.9-1.4-2.7-3.4-4.3-5-1.7-1.9-3.5-2.8-2.5-3.9 1-1.1 3.1-0.3 5.6 1 3 1.7 6.2 4.6 8.4 7.1 3.6 4.1 3.4 10.7 8 13.8 4.4 3 25.8-3.2 37.1 1.8 2.8 1.2 5.1 4.5 6.5 7.2 4.5 8.7 1 24.3 8.3 26.1 4.4 1.1 11.9-6.7 27.7-4.8 20.5 2.5 27.8 16.6 27.8 16.6"/>
		<path id="path4308" fill-rule="evenodd" class="s6" d="m583.5 220.4c1.6 0.5 3 1.8 4.2 3 2.7 2.4 4.1 4.2 5.9 7.4 2 3.6 2.6 9.2 4.9 12.6 1.4 2 3.4 3.7 5.7 4.5 8 2.7 19.4-4 26.5 0.7 0.8 0.5 1.3 1.2 1.8 2.2-6.3-3-28.1 3.8-35.5-2.7-6.1-5.4-1.3-8.8-9.3-20.2-0.9-1.4-2.7-3.4-4.3-5-1.1-1.2-2.2-2-2.6-2.8q0.1 0 0.2 0c1 0.1 1.8 0.1 2.5 0.3zm55.3 29.7c1.4 0.8 2.4 2.3 3 3.9 0.9 2.8 0.8 6.1 0 9-0.7 2-2.4 4.1-3.8 5.5-0.9-7-1.5-13.6-4-16.5 0.2-1 0.6-1.9 1.2-2.3 0.4-0.3 0.8-0.4 1.3-0.3 0.8 0 1.7 0.4 2.3 0.7zm6.5 16c-0.4 5.2 1.5 9.2 2 14.1-2.9-5.1-6-12.4-3.9-17.7 0.4-1.1 2.1-2.5 2.1-2.5 0 0 0 4.1-0.2 6.1zm37.2 5.1c5.7 0.7 10.4 2.3 14.1 4.2-1.1 0.1-2.3 0.2-3 0.6-0.9 0.5-1.5 1.5-2 2.4-0.5 0.8-1.1 2.5-1.1 2.5 0 0-2.8-0.5-3.5-1.6-0.3-0.6-0.2-1.4 0-2 0.4-1.1 2.4-2.6 2.4-2.6 0 0-2.9 0-3.8 0.9-0.8 0.7-1 3-1 3 0 0-2.3-0.1-2.9-1-0.5-0.6 0.3-1.6 0-2.3-0.3-0.8-1.8-1.9-1.8-1.9-1.9 1.3-1.4 3.1-1.3 4.8 0 0-3.1 0.2-4-1-1.2-1.4-0.5-4.6-0.1-6.2q1.2-0.1 2.4-0.1 2.6-0.1 5.6 0.3zm-12.7 7c0 0-2.6 0.6-3.4-0.2-1.1-1-1-3.4-0.7-5.1 1.3-0.5 2.7-0.9 4.2-1.2-0.5 2.2-1 4.4-0.1 6.5zm-6.2 1.6c0 0-3.6 0.6-5.3 0-1.4-0.4-2.9-1.3-3.8-2.5-0.4-0.5-0.7-1.1-1.1-1.9q0.6 0.4 1.4 0.6c2 0.5 4.6-0.8 8.3-2.2-0.1 2-0.1 4 0.5 6zm-15.8 5.7c3.5 1.5 7.6 0.8 11.3 0.4 5.8-0.6 12-4.1 17.8-4.7 4.6-0.4 8.6-0.3 13 1.4 4.5 1.6 10.9 7.4 12.6 9l-7 3.3c0 0-6.7-6.4-15.7-7.4-10.5-1.2-19.4 5.8-28.6 3.6-2.5-0.6-6.3-3.1-7.9-5.2-1.8-2.5-3-5.7-3.9-9.1 2.4 3.5 5.6 7.4 8.4 8.7zm54.9-6.2c-1 0.8-2.2 1.7-3.1 2.2-0.8 0.5-1.6 1-2.5 1.1-1.1 0.1-2.5 0.3-3.1-0.6-0.5-0.6 0-1.5 0.3-2.2 0.7-1 1.8-1.8 3-2.3 0.5-0.3 1.2-0.5 1.9-0.6q1.9 1.2 3.5 2.4zm4.8 4.6c-1.9 0.6-4.3 1.2-5.9 1.1-1.1-0.1-3.1-1.3-3.1-1.3 0 0 3.2-1.3 4.8-1.8 0.5-0.3 1-0.4 1.7-0.6 1 0.9 1.8 1.8 2.5 2.6z"/>
		<path id="path4319" class="s7" d="m695.5 294.9c0 0-6.7-6.4-15.7-7.4-10.5-1.2-19.4 5.8-28.6 3.6-2.5-0.6-6.3-3.1-7.9-5.2-7.4-10-4.1-30.7-10.3-34.9-5.5-3.6-28.4 3.8-36-2.9-6.1-5.4-1.3-8.8-9.3-20.2-0.9-1.4-2.7-3.4-4.3-5-1.7-1.9-3.5-2.8-2.5-3.9 1-1.1 3.1-0.3 5.6 1 3 1.7 6.2 4.6 8.4 7.1 3.6 4.1 3.4 10.7 8 13.8 4.4 3 25.8-3.2 37.1 1.8 2.8 1.2 5.1 4.5 6.5 7.2 4.5 8.7 1 24.3 8.3 26.1 4.4 1.1 11.9-6.7 27.7-4.8 20.5 2.5 27.8 16.6 27.8 16.6z"/>
		<path id="path4282" fill-rule="evenodd" class="s5" d="m714.8 336.9c0 0 5.1 5.2 8.3 6.7 1.3 0.6 3.2-0.3 4.1 0.8 1.5 1.7-1.2 5.3 0.5 6.8 0.8 0.6 3-0.3 3-0.3 0 0-0.1 3.1-1.2 4.1-0.4 0.5-1.4 0.1-1.9 0.5-1.3 0.8-2.7 3.5-2.7 3.5 0 0 2.2 2.4 3.6 2.8 1.7 0.5 3.5-1.1 5-0.5 1.2 0.5 2 2.6 3 3.9 0.7 1 1.7 1.3 1.7 1.3 0 0-2.2 1-3.3 1-1.1-0.1-1.9-1.1-2.9-1.4-0.6-0.1-1.8 0-1.8 0 0 0 0.1 2.9 0.8 4 0.4 0.5 1.4 0.5 1.7 1 0.4 0.7-0.3 1.7 0 2.5 0.2 0.6 0.8 1.1 1.3 1.5 0.8 0.5 2.7 0.8 2.7 0.8 0 0-2.4 0.7-3.3 1.5-0.7 0.6-1.3 1.5-1.5 2.3-0.5 1.8 1 3.8 0.3 5.5-0.7 1.8-4.3 4-4.3 4 0 0 6.2-0.7 8.9 0.5 1.7 0.7 2.8 2.5 4 3.8 1.7 1.8 2.7 4.4 4.8 5.7 1.5 0.8 5 1.1 5 1.1 0 0-4.8 1.9-7.1 1.2-2.5-0.8-3.3-4.4-5.7-5.7-1.4-0.7-4.8-1-4.8-1 0 0 2 1.9 3.2 2.7 1.1 0.8 2.7 0.9 3.6 2 1.2 1.3 1.7 3.1 1.9 4.8 0 0.7-0.5 2.2-0.5 2.2 0 0-1.8-3.2-3.4-3.9-1.4-0.6-3.2 0.4-4.8 0.2-1.2-0.2-3.5-1.2-3.5-1.2 0 0 0.1 3.9 1.2 5.4 0.9 1.2 4 2.1 4 2.1 0 0-4.5 0.7-6.6 0-1-0.3-1.9-1-2.5-1.8-0.7-0.9-1-3.2-1-3.2 0 0-2.1 1.3-2.2 2.4-0.2 1.6 2.5 4.1 2.5 4.1 0 0-2.4-0.5-3.5-0.2-0.7 0.3-1.6 1.4-1.6 1.4 0 0 3.3 0.6 4.9 1 1.5 0.3 3 0.9 4.5 1.3 1.1 0.3 2.3 0.2 3.2 0.8 1 0.8 1.9 1.9 2.3 3.2 0.2 0.6 0 1.8 0 1.8 0 0-1.1-1.6-2-1.8-1.6-0.5-3.3 0.7-5 0.8-1.3 0.1-3.8-0.3-3.8-0.3 0 0 1.1 3.3 0.2 4.5-0.9 1-2.9 0-4 0.8-0.7 0.5-0.7 1.5-1.2 2.1-0.9 1.2-1.9 2.6-3.3 3-1 0.3-2.2-0.1-3.1-0.5-0.9-0.3-1.3-1.5-2.2-1.6-0.7-0.1-1.5 0.2-2 0.6-0.7 0.7-0.6 1.9-1.2 2.7-0.7 0.9-1.5 1.9-2.6 2.3-0.7 0.3-1.5-0.1-2.2 0.2-0.3 0.1-0.6 0.5-0.8 0.8-0.5 0.7-0.5 1.8-1.2 2.3-1.2 1-4.6 1-4.6 1l2.3-10.4 0.2-22.4 14.6-29.2 3.1-13.1-1.6-11.7z"/>
		<path id="path4284" fill-rule="evenodd" class="s6" d="m729.5 355c-0.4 0.5-1.4 0.1-1.9 0.5-1.2 0.8-2.5 3.1-2.6 3.4h-0.7c0 0 0.4-4.1 1.9-5.1 0.4-0.3 1.1 0.3 1.5 0 0.5-0.4 0.8-1.6 1-2.4 0.9 0 2-0.5 2-0.5 0 0-0.1 3.1-1.2 4.1zm-3 5.5c0.6 0.6 1.4 1.1 2 1.3 1.7 0.5 3.5-1.1 5-0.5 1.2 0.5 2 2.6 3 3.9 0.7 1 1.7 1.3 1.7 1.3 0 0-2.2 1-3.3 1-1.1-0.1-1.9-1.1-2.9-1.4-0.6-0.1-1.8 0-1.8 0 0 0 0 0.4 0.1 0.8-0.8-0.3-1.6-0.8-2-1.2-1.5-1.4-3.1-5.2-3.1-5.2zm-3.4 7.6c0.5 0.8 2.1 0.7 2.6 1.6 0.4 0.7 0.3 1.6 0.1 2.3-0.2 0.8-1.2 1.2-1.5 2-0.1 0.6 0.6 1.4 0.1 1.8-0.5 0.6-1.8-0.7-2.4-0.2-0.6 0.5-0.2 1.5-0.2 2.2 0.1 0.6 0.8 1.3 0.4 1.8-0.3 0.5-1.7 0.4-1.7 0.4 0 0-2.3-2.8-2-4.4 0.3-1.4 2.9-1.5 3.3-2.9 0.5-1.4-1.1-2.8-1-4.3 0.2-1.2 1.8-3.3 1.8-3.3 0 0-0.1 2.1 0.5 3zm-4.6 20.8c0 0 3.1 1.2 4.7 1.2 1.5 0.1 4.3-0.8 4.3-0.8l0.4-0.1c0 0 6.2-0.7 9 0.5 1.6 0.7 2.7 2.5 3.9 3.8 1.7 1.8 2.7 4.4 4.9 5.7 1.4 0.8 4.9 1.1 4.9 1.1 0 0-4.8 1.9-7.1 1.2-2.5-0.8-3.3-4.4-5.6-5.7-1.5-0.7-4.9-1-4.9-1 0 0 2.1 1.9 3.2 2.7 1.1 0.8 2.7 0.9 3.6 2 1.2 1.3 1.8 3.1 1.9 4.8 0 0.7-0.5 2.2-0.5 2.2 0 0-1.8-3.2-3.3-3.9q-0.5-0.1-1-0.2c-0.3-0.9-0.8-1.8-1.3-2.3-1.3-1.3-3.6-1.2-5.1-2.4-1.9-1.4-2.4-4.5-4.6-5.5-1-0.5-2.3 0.3-3.3 0-1.7-0.6-4.1-3.3-4.1-3.3zm0.1 4.9c1 0.7 2.1 1.5 3.2 1.8 1.1 0.4 2.6-0.4 3.5 0.3 0.5 0.4 0.3 1.3 0.6 1.8 0.8 1.3 2.4 2.8 3.9 4-0.1 0-0.2-0.1-0.2-0.1 0 0 0 3.9 1.1 5.4 0.9 1.2 4 2.1 4 2.1 0 0-4.5 0.7-6.6 0-1-0.3-1.9-1-2.5-1.8-0.5-0.6-0.8-1.9-0.9-2.6 0.1-1 0.2-2.1-0.1-2.9-0.5-1-1.5-1.9-2.5-2.3-0.8-0.3-1.7 0.3-2.5 0-1.5-0.7-2.7-2.1-3.3-3.6-0.8-1.6-0.7-5.2-0.7-5.2 0 0 1.9 2.2 3 3.1zm-3.1 5.1c2.4 1.4 3.4 4.3 5.3 6.3 0.5 0.4 1 1 1.6 1.5 0.1 1.6 2.5 3.9 2.5 3.9 0 0-2.4-0.5-3.5-0.2-0.6 0.3-1.6 1.4-1.6 1.4 0 0 3.3 0.6 4.9 1 1.6 0.3 3 0.9 4.5 1.3 1.1 0.3 2.3 0.2 3.2 0.8 1.1 0.8 1.9 1.9 2.3 3.2 0.2 0.6 0 1.8 0 1.8 0 0-1.1-1.6-2-1.8-1.6-0.5-3.3 0.7-5 0.8-1.2 0.1-3.8-0.3-3.8-0.3 0 0 0.1 0.4 0.3 0.9-0.9-0.2-1.7-0.5-2.4-0.8-1.2-0.5-3.7-1.7-3.7-1.7-2.4-1.2-2.4-4-3.2-6.4 0 0-0.9 2.6-0.9 3.9 0.1 1 1 3 1 3 0 0-1.9-0.4-2.6-1-0.1-0.1-0.1-0.4-0.2-0.5-0.6-0.4-1.6 0-2-0.5-0.7-0.7-0.7-1.9-0.6-2.9 0-0.6 0.7-1.8 0.7-1.8 0 0-1.1-0.4-1.4-0.8-0.6-0.8-0.6-3.1-0.6-3.1 0 0 2.4-0.7 3.6-0.4 1.2 0.4 1.8 2 3 2.2 0.7 0.1 1.8-0.1 2.1-0.8 0.5-1.2-0.6-2.7-1.6-3.6-0.9-0.8-2.5-0.3-3.4-1.1-0.7-0.6-0.6-1.9-1.3-2.5-1.6-1.1-5.7-0.9-5.7-0.9 0 0 4-1.7 6.2-1.8q0.2 0 0.5 0c1.3 0 2.7 0.2 3.8 0.9zm-8.9 18.1h0.7c0 0 1.4 0.7 2.1 1 1.2 0.4 2.9 0.1 3.8 1.1 0.3 0.4 0.1 1.5 0.1 1.5 0 0 5.1-0.7 7.7-0.3 0.9 0.2 2.3 0.6 3.4 1.1 0.1 0.6 0 1.3-0.3 1.7-0.9 1-2.9 0-4 0.8-0.7 0.5-0.7 1.5-1.2 2.1-0.3 0.5-0.7 1-1.1 1.4-0.6-0.4-1.3-0.8-1.7-1.2-0.4-0.5-0.3-1.4-0.8-1.8-0.6-0.4-1.5 0.1-2.1-0.2-0.8-0.5-0.6-1.9-1.4-2.1-0.9-0.2-1.5 1.2-2.4 1.3-0.8 0.2-1.6-0.1-2.3-0.5-1.3-0.6-3.1-2.8-3.1-2.8 0 0 1-1.1 1.2-1.8 0.3-0.9 0-3.1 0-3.1z"/>
		<path id="path4301" class="s7" d="m714.8 336.9c0 0 5.1 5.2 8.3 6.7 1.3 0.6 3.2-0.3 4.1 0.8 1.5 1.7-1.2 5.3 0.5 6.8 0.8 0.6 3-0.3 3-0.3 0 0-0.1 3.1-1.2 4.1-0.4 0.5-1.4 0.1-1.9 0.5-1.3 0.8-2.7 3.5-2.7 3.5 0 0 2.2 2.4 3.6 2.8 1.7 0.5 3.5-1.1 5-0.5 1.2 0.5 2 2.6 3 3.9 0.7 1 1.7 1.3 1.7 1.3 0 0-2.2 1-3.3 1-1.1-0.1-1.9-1.1-2.9-1.4-0.6-0.1-1.8 0-1.8 0 0 0 0.1 2.9 0.8 4 0.4 0.5 1.4 0.5 1.7 1 0.4 0.7-0.3 1.7 0 2.5 0.2 0.6 0.8 1.1 1.3 1.5 0.8 0.5 2.7 0.8 2.7 0.8 0 0-2.4 0.7-3.3 1.5-0.7 0.6-1.3 1.5-1.5 2.3-0.5 1.8 1 3.8 0.3 5.5-0.7 1.8-4.3 4-4.3 4 0 0 6.2-0.7 8.9 0.5 1.7 0.7 2.8 2.5 4 3.8 1.7 1.8 2.7 4.4 4.8 5.7 1.5 0.8 5 1.1 5 1.1 0 0-4.8 1.9-7.1 1.2-2.5-0.8-3.3-4.4-5.7-5.7-1.4-0.7-4.8-1-4.8-1 0 0 2 1.9 3.2 2.7 1.1 0.8 2.7 0.9 3.6 2 1.2 1.3 1.7 3.1 1.9 4.8 0 0.7-0.5 2.2-0.5 2.2 0 0-1.8-3.2-3.4-3.9-1.4-0.6-3.2 0.4-4.8 0.2-1.2-0.2-3.5-1.2-3.5-1.2 0 0 0.1 3.9 1.2 5.4 0.9 1.2 4 2.1 4 2.1 0 0-4.5 0.7-6.6 0-1-0.3-1.9-1-2.5-1.8-0.7-0.9-1-3.2-1-3.2 0 0-2.1 1.3-2.2 2.4-0.2 1.6 2.5 4.1 2.5 4.1 0 0-2.4-0.5-3.5-0.2-0.7 0.3-1.6 1.4-1.6 1.4 0 0 3.3 0.6 4.9 1 1.5 0.3 3 0.9 4.5 1.3 1.1 0.3 2.3 0.2 3.2 0.8 1 0.8 1.9 1.9 2.3 3.2 0.2 0.6 0 1.8 0 1.8 0 0-1.1-1.6-2-1.8-1.6-0.5-3.3 0.7-5 0.8-1.3 0.1-3.8-0.3-3.8-0.3 0 0 1.1 3.3 0.2 4.5-0.9 1-2.9 0-4 0.8-0.7 0.5-0.7 1.5-1.2 2.1-0.9 1.2-1.9 2.6-3.3 3-1 0.3-2.2-0.1-3.1-0.5-0.9-0.3-1.3-1.5-2.2-1.6-0.7-0.1-1.5 0.2-2 0.6-0.7 0.7-0.6 1.9-1.2 2.7-0.7 0.9-1.5 1.9-2.6 2.3-0.7 0.3-1.5-0.1-2.2 0.2-0.3 0.1-0.6 0.5-0.8 0.8-0.5 0.7-0.5 1.8-1.2 2.3-1.2 1-4.6 1-4.6 1l2.3-10.4 0.2-22.4 14.6-29.2 3.1-13.1-1.6-11.7z"/>
		<path id="path4249" fill-rule="evenodd" class="s9" d="m641.9 328.6c6.7 4 11.4 11.5 11.4 11.5l2.9 1-8.3 2.4c0.6 1.1 1 1.8 1 1.8l-23.1 15.4-23.3 4.8-2.2 3.3-20.4 33.4c-6.8-6.3-13-13.3-18.4-20.8 0.2-2.6 0.5-5 1.9-5.4l2.6 0.4c-0.1-0.6-0.3-1.2-0.5-1.9-1.9-0.7-3.9-1.2-3.9-1.2 0 0 1.9-0.5 3.7-0.7 0-0.6 0.2-1.1 0.7-1.6h3c0-1.3 0-2.7 0.1-3.9-0.5-0.5-1-0.9-1-0.9 0 0 0.9-1.7 1.7-2.1 1.2-0.7 2.7-0.6 3.9-0.2q0.3 0 0.5 0.1c-0.1-0.6-0.2-1.5 0.2-3.7l0.6-0.2c-1.6-0.8-3.2-1.3-3.2-1.3 0 0 3.2-0.3 5.4 0.2l0.2-4.5q0.1 0 0.2-0.1c0 0 0-0.1 0-0.1 0 0 0.1 0.1 0.1 0.1 2.3-0.8 4 0.1 6 0.1l0.4-3.7c-0.2-0.8 0.4-0.9 1.2-0.8-0.4-1.5-0.5-2.8-0.5-2.8 0 0 2.1 0.3 3.3 0.6l0.2-0.7c2.4-1.8 4.9-0.3 7.4-0.2-1.5-1.8-2.9-3.5-2.9-3.5 0 0 1.3 0.3 2.8 0.8 0-0.7 0.2-1.5 1.3-2.2l3.7 1c-0.7-1.5-0.9-2.9-0.9-2.9 0 0 1.6 2.2 3 3.5l1.6 0.5c-0.3-1.3-0.4-2.2-0.3-2.9q-0.5-0.7-0.8-1.4c-0.8-1.6-0.8-5.3-0.8-5.3 0 0 1.2 2.7 2.3 3.5 0.8 0.6 1.8 1 2.8 1.4h0.6l0.3-2.4c2.4-1.9 5.4-0.5 8.1-0.6v-2c1-0.3 0-1.6 4.6 0v-2.9c0.4-1.7 5.1-1.1 8.4-0.7l-0.4-1.9c1.7 0.1 3.4 0.4 5.1-1.1l1.9-1.3c0 0 4 1 5.8 2.1z"/>
		<path id="path4254" fill-rule="evenodd" class="s10" d="m625.8 360.7l-23.3 4.8-20.9 30.8c0 0-0.2-4.3-1.3-6.1-0.6-0.9-1.7-1.6-2.7-2-2.5-0.9-8-0.9-8-0.9 0 0 3.9-1.8 8.5-1.8 2.7 0 8.1 1.1 8.1 1.1l2.7-2c0 0-4.2 0.5-6.2 0.1-2.3-0.4-4.5-1.3-6.5-2.5-2.9-1.7-4.9-4.8-7.9-6.4-2-1.2-6.7-2.5-6.7-2.5 0 0 3.7-1 5.6-0.9 0.6 0 1.2 0.2 1.8 0.4 3 1.1 5.5 3.2 8.3 4.6 2 1 4.1 2.1 6.2 2.6 2.4 0.5 7.2 0.5 7.2 0.5l0.4-2.8c0 0-2.9-1.2-4.4-1.6-1.4-0.3-2.9-0.1-4.3-0.5-1.3-0.5-2.5-1.2-3.6-2.1-1.8-1.4-2.7-3.9-4.8-4.9-0.9-0.4-2 0.1-2.9-0.2-1.2-0.4-3-2.2-3-2.2 0 0 0.9-1.7 1.7-2.1 1.2-0.7 2.7-0.6 3.9-0.2 1.1 0.2 1.9 1 2.7 1.6 2.1 1.6 3.7 3.9 5.9 5.3 1.6 1 3.4 1.9 5.3 2.2 2.1 0.3 6.3-0.7 6.3-0.7 0 0-4.9-1.1-7.2-2.1-2-0.9-4.1-1.9-5.8-3.5-1.6-1.5-2-4-3.7-5.4-1.5-1.3-5.4-2.5-5.4-2.5 0 0 4.7-0.4 6.7 0.6 1.3 0.7 1.7 2.4 2.8 3.4 2.2 1.9 4.5 3.8 7.3 4.7 2.8 0.9 8.8 0.6 8.8 0.6 0 0-2-2.5-3.2-3.5-1.7-1.2-3.6-2.1-5.6-2.8-2.3-0.8-5.2-0.2-7.3-1.6-1.9-1.4-3.7-5.9-3.7-5.9 0 0 2.6 1.7 4.1 2.2 1.8 0.5 3.8 0 5.6 0.4 2.1 0.5 4.1 1.4 5.9 2.5 2.7 1.6 7.2 5.9 7.2 5.9l0.6-2.6c0 0-0.7-2.8-1.6-3.9-1.1-1.5-2.6-2.6-4.3-3.3-2.4-1-5.8 0.3-7.8-1.4-1.9-1.5-2.5-6.9-2.5-6.9 0 0 2.4 0.4 3.5 0.6 1.6 0.4 3.2 0.8 4.7 1.4 2.5 1.1 5 2.4 6.9 4.3 2.5 2.5 5.5 9 5.5 9l3.6-1.3c0 0-1.8-4.2-3.1-6.1-0.9-1.3-1.8-2.5-3-3.5-1.4-1-3.3-1.2-4.6-2.2-2.2-1.6-5.5-6-5.5-6 0 0 4.5 1.2 6.5 2.3 2.2 1.2 4.3 2.8 6.1 4.5 3.1 3 8 10.2 8 10.2l4.4-0.2c0 0-5.5-7.2-8.9-10.2-2-1.8-4.9-2.6-6.8-4.7-2-2.1-2.4-5.2-2.4-5.2 0 0 2.2 3 3.7 4.2 2.3 1.7 5.3 2.2 7.6 3.8 4.4 3.2 11.6 11.3 11.6 11.3 0 0 0.3-5.4-0.9-7.6-1.4-2.5-4-4.1-6.5-5.4-2.5-1.4-5.8-0.9-8.3-2.5-1.6-0.9-3-2.4-3.7-4.1-0.8-1.6-0.8-5.3-0.8-5.3 0 0 1.2 2.7 2.3 3.5 1.5 1.1 3.7 1.6 5.4 2.3 3.1 1.3 6 2 8.6 4.1 3.8 3 9.6 11 9.6 11 0 0 4.3-5.8-0.5-11.4-2-2.4-6.7-0.1-9.2-2.1-2.6-2.1-2.1-7.3-2.1-7.3 0 0 1.5 3.9 3.7 5.3 2.5 1.4 6.6 0.2 9.4 2.1 3.3 2.2 3.7 9.2 3.7 9.2l5-2.6c0 0-4.7-7.7-8-10.6-1.2-1-3-2-4.4-2.6-2.6-1-4.3-1.8-4.3-1.8 0 0 1.5-0.5 2.9-0.4 2.8 0.4 5.7 1.2 7.9 2.8 3.8 2.8 8.4 11.3 8.4 11.3l4.2-1.9c0 0-3.9-5.7-6.4-8.1-1.5-1.5-3-2.3-4.9-3.3-2.4-1.4-7.6-3-7.6-3 0 0 5.8-0.5 8.6 0.5 2.9 0.9 5.6 2.6 7.8 4.6 2.7 2.6 6.4 9.2 6.4 9.2z"/>
		<path id="path4249-3" class="s7" d="m641.9 328.6c6.7 4 11.4 11.6 11.4 11.6l2.9 0.9-8.3 2.5c0.6 1 1 1.8 1 1.8l-23.1 15.3-23.3 4.9-2.2 3.2-20.4 33.5c-6.8-6.3-13-13.3-18.4-20.8 0.2-2.6 0.5-5.1 1.9-5.4l2.6 0.4c-0.1-0.7-0.3-1.3-0.5-1.9-1.9-0.7-3.9-1.3-3.9-1.3 0 0 1.9-0.4 3.7-0.7 0-0.5 0.2-1 0.7-1.6h3c0-1.2 0-2.7 0.1-3.8-0.5-0.5-1-0.9-1-0.9 0 0 0.9-1.8 1.7-2.2 1.2-0.6 2.7-0.5 3.9-0.2q0.3 0.1 0.5 0.2c-0.1-0.7-0.2-1.6 0.2-3.7l0.6-0.3c-1.6-0.7-3.2-1.2-3.2-1.2 0 0 3.2-0.3 5.4 0.2l0.2-4.5q0.1-0.1 0.2-0.1c0 0 0-0.1 0-0.1 0 0 0.1 0 0.1 0.1 2.3-0.9 4 0.1 6 0.1l0.4-3.7c-0.2-0.9 0.4-1 1.2-0.8-0.4-1.5-0.5-2.8-0.5-2.8 0 0 2.1 0.3 3.3 0.5l0.2-0.7c2.4-1.7 4.9-0.3 7.4-0.2-1.5-1.7-2.9-3.5-2.9-3.5 0 0 1.3 0.4 2.8 0.9 0-0.8 0.2-1.5 1.3-2.2l3.7 1c-0.7-1.6-0.9-3-0.9-3 0 0 1.6 2.2 3 3.6l1.6 0.4c-0.3-1.3-0.4-2.2-0.3-2.9q-0.5-0.6-0.8-1.3c-0.8-1.7-0.8-5.4-0.8-5.4 0 0 1.2 2.7 2.3 3.6 0.8 0.5 1.8 1 2.8 1.3l0.6 0.1 0.3-2.5c2.4-1.9 5.4-0.4 8.1-0.5v-2.1c1-0.3 0-1.5 4.6 0v-2.8c0.4-1.8 5.1-1.1 8.4-0.7l-0.4-1.9c1.7 0.1 3.4 0.3 5.1-1.1l1.9-1.3c0 0 4 1 5.8 2z"/>
		<path id="path4139" fill-rule="evenodd" class="s5" d="m719.4 284.7c6.4 0.5 14.4 5.3 18.7 10 3.1 3.5 0.7 7.7 5.7 12.5 4.7 4.5 12.5 4.4 16 9.8 0.8 1.3 0.4 3.3 0.4 3.3 0 0 2.9 2.7 1.7 6.9 0 0-3.9 5.9-6.7 7.1-1.9 0.9-4.4 0.7-6.4 0.2-3.6-0.8-6.6-3.2-10.3-3-4.5 0.2-9.9 5.2-14.1 6.7-3.1 1.1-7.1 1.1-7.1 1.1 0 0-0.8 4-0.5 8.3 0.6 6.9 2.3 14.2 1.1 20.3-2.8 14.2-14.6 27.5-17.5 41.7-1.1 5.8 0.4 14.2-0.9 20-0.6 2.6-1.9 5.6-3.4 8.4q-2.6 0.4-5.2 0.7-2.7 0.3-5.3 0.6-2.6 0.2-5.3 0.3-2.6 0.1-5.3 0.1c-9 0-18-0.9-26.8-2.6-8.9-1.8-17.5-4.3-25.8-7.7-8.4-3.4-16.4-7.6-23.9-12.6-7.5-4.9-14.6-10.6-21-16.8 4.9-8.9 17.3-32.7 23.8-37.9 5.7-4.6 13.7-3.7 20.3-6.8 5.9-2.8 10.6-8.2 16.5-11 16.4-8.1 37.8-8 37.8-8-1.1-6 0.1-10.3 1.4-14.7-22.9 0.5-23.2-26.5-25.8-26.1 1.8-1.9 13-5.8 28.5 8.5 0 0 5.2-3.2 8.1-5.4 4.6-3.7 5.3-10.2 14-12.9 5.5-1.7 11.2 1.3 11.2 1.3 0 0 3-2.2 5.6-2.3q0.3 0 0.5 0z"/>
		<path id="path4140" fill-rule="evenodd" class="s10" d="m699.7 304.4c1.5-2.5 6.7-3.3 8.6-1.4 1.9 1.8 3.1 3.1 3.8 5.3l-3.5-1.3c-2 1.3-8 2-8.9-2.6z"/>
		<path id="path4145" fill-rule="evenodd" class="s11" d="m717.2 339.3c-0.1 0.7-0.7 4.5-0.4 8.3 0.6 6.9 2.3 14.2 1.1 20.3-2.8 14.2-14.6 27.5-17.5 41.7-0.7 3.6-0.4 8.2-0.3 12.5 0 0-1.5-2.1-2.7-2.5-1.3-0.3-4.1 0.2-4.1 0.2 0 0-1.2-2.3-2.5-3-3.5-1.6-7.8 0.6-11.5-0.1-4.4-0.9-8.8-2.8-12-5.9-3.1-3-6.1-10.5-6.1-10.5 0 0 5.8 6.3 9.4 8.9 2.7 1.8 5.7 3.4 8.9 4.1 1.5 0.2 4.4 0.2 4.4 0.2 0 0-0.5-2.8-2.1-4.4-1.9-1.7-5.5-3.5-7.5-5-2-1.6-3.8-3.8-4.8-6.2-1.3-3-2-9.4-2-9.4 0 0 2.2 5.7 3.9 8.2 1.6 2.4 3.6 4.8 6.1 6.4 1.8 1.1 4.3 0.8 6.1 2 1.5 1 3.6 3.8 3.6 3.8 0 0 2.3-4 0.7-7-1-2.2-4.4-2.3-5.9-4.1-1.6-2.1-2.8-7.3-2.8-7.3 0 0 5.7 6.4 9.6 7.7 3 1.1 9.5 0 9.5 0 0 0-3-6-5.6-7.7-2-1.4-4.9-0.7-7-1.8-3.1-1.7-6.1-4-7.5-7.1-1.2-2.5-0.4-8.2-0.4-8.2 0 0 1.1 4.2 2.4 5.9 2.4 3.1 5.7 6 9.4 7.1 3.7 1.1 11.3-0.8 11.3-0.8 0 0-6.2-1.2-8.8-3-1.9-1.3-3.4-3.3-4.5-5.4-1.3-2.8-1.9-9-1.9-9 0 0 2.4 4.5 4 6.5 1.5 1.8 3.1 3.6 5.1 4.8 3.2 2.1 10.7 4 10.7 4 0 0-1.9-3.7-3.5-4.9-2-1.5-4.9-1.3-7-2.7-2-1.2-3.8-3-5-5-1.8-3.1-3.3-10.2-3.3-10.2 0 0 2.9 5.2 4.8 7.5 1.6 1.9 3.3 3.7 5.4 5 2.6 1.6 8.7 3.1 8.7 3.1 0 0-1.3-5.9-3.2-8.2-2.4-2.8-6.9-3-9.4-5.7-2.8-2.8-5.9-10.3-5.9-10.3 0 0 4.5 5.4 7.3 7.5 1.8 1.4 3.9 2.6 6.1 3.1 1.5 0.3 3.1-0.4 4.5 0 2.1 0.6 5.4 3.5 5.4 3.5 0 0-0.9-3.7-5.2-6.1-2.7-1.5-5.5-3.3-7.5-5.7-2-2.3-4-8.2-4-8.2 0 0 3.9 4 6.1 5.6 2.6 1.8 8.3 4.5 8.3 4.5 0 0-0.9-4.4-2.1-6.1-2-2.6-5.7-3.3-7.8-5.7-1.1-1.1-1.8-2.6-2.4-4-1-2.4-1.9-7.6-1.9-7.6 0 0 2.4 4.4 3.8 6.4 1 1.4 2 2.9 3.3 4 2.3 1.9 7.8 4.3 7.8 4.3 0 0 0.3-3.8-0.7-5.2-1.1-1.6-3.7-1.4-5-2.8-0.7-0.8-0.5-2.1-1.2-2.9-0.5-0.6-1.5-0.8-2.1-1.4-1-1-1.9-2.2-2.3-3.5-0.3-0.8 0-2.4 0-2.4 7.4 8.1 11 8.7 19.7 9.9zm-43.3 86c0 0-10.4 7.7-22.3 3.8-12.9-4.1-14.6-17.2-14.6-17.2 7.8 9.8 18.2 16.5 36.9 13.4zm14.7-6.9c0.5 0.3 1 1.3 1 1.3 0 0 3.3 0.7 4.8 1.6 2.2 1.5 5.5 6 5.5 6q-0.1 1.2-0.4 2.3c-0.6 2.6-1.9 5.6-3.4 8.4q-10.5 1.7-21.1 1.7c-15.6-0.1-31.1-2.8-45.9-7.9 0 0 5.9 0 8.9 0.3 6 0.4 11.6 2.1 17.6 3.2 2.7 0.4 5.4 0.7 8.1 0.9 3.2 0.4 6.5 0.7 9.7 0.8 2.7 0.1 5.4 0.4 8 0 1.1-0.2 3.1-1 3.1-1 0 0-0.4-2.2-1.2-2.7-1.3-0.8-3.1-0.2-4.6 0-1.7 0.2-3.3 1.1-5 1.2-2.5 0.2-7.5-1-7.5-1 0 0 2-1.7 3.2-2.3 1.3-0.7 2.7-1.1 4.2-1.5 1.2-0.3 2.5-0.1 3.7-0.5 0.5-0.1 0.9-0.6 1.4-0.7 0.9-0.2 2-0.4 2.9 0 1.4 0.7 1.6 2.8 2.8 3.9 0.6 0.6 1.3 1.3 2.1 1.3 0.9 0 1.4-1.1 2.2-1.4 1.8-0.7 4-0.4 5.7-1.3 0.7-0.4 1.8-1.8 1.8-1.8 0 0-0.9-1.1-1.6-1.3-1.5-0.5-3.5-0.6-4.8 0.3-0.6 0.5-0.3 1.7-1 2.1-0.8 0.5-2.1 0.7-2.8 0-0.4-0.3 0.2-1.1 0-1.6-0.5-0.9-1.4-1.8-2.5-2.1-0.8-0.2-1.7 0.6-2.6 0.5-1.3-0.1-2.8-0.3-3.6-1.3-1.4-1.5-2.6-4.2-1.4-5.8 0.6-0.8 2-0.1 3-0.3 1.9-0.4 3.6-1.7 5.6-1.9q0.5-0.1 1.1-0.1c1 0 2.1 0.2 3 0.7z"/>
		<path id="path4178" fill-rule="evenodd" class="s11" d="m689.9 316.3c0 0 2 1.4 0.5 3.4-0.6 0.8-2 0.8-2 0.8 0 0-0.4-2.6-1.4-2.9-1.3-0.5-3.8 1.5-3.8 1.5 0 0-0.4 0.8 0.2 1.1 1.1 0.4 2.9-0.4 4.2 1.4 1.1 1.4 1.3 3.5 2.1 5 0.5 1 2.2 2.5 2.2 2.5 0 0-3-0.7-4.2-1.7-0.6-0.4-1.4-1.8-1.4-1.8 0 0-0.7 1.5-0.7 2.4 0.1 0.9 1.2 2.7 1.2 2.7 0 0-2.2-1.4-3.4-1.4-1 0-2.3 0.4-2.9 1.2-0.9 1.4-0.7 3.4-0.3 5 0.3 1.4 1.4 3.6 2.5 5.1 1.1 1.6 2.3 2.4 2.3 2.4 0 0-2.3 0.4-3.4 0-1.6-0.7-2.7-3-4.3-3.6-0.7-0.2-1.9 0.3-1.9 0.3 0 0 0.2 5.6 1.2 8.2 0.9 2.2 3.2 3.9 2.9 6.3-0.2 1.8-2.9 3.1-2.9 3.1q0 0 0 0 0 0 0 0 0 0 0 0c0 0-2-3.1-2.8-5.4-0.7-2-1.1-5.8-2.2-7.5-0.7-1.1-2.7-1.8-2.7-1.8 0 0-1 6.6 0 9.6 1 2.8 5.7 7 5.7 7 0 0-2.5 2.3-4.2 2-3.3-0.7-5.2-4.9-6.4-7.5-1.2-2.6-1.2-5.7-1.2-8.5 0-1 0.3-2.9 0.3-2.9 0 0-1.6 1.5-1.8 2.5-1 3.2-0.4 6.9 0.6 9.9 0.8 2.3 3.1 3.8 4 6.1 0.5 1.5 0.8 4.3 0.8 4.3 0 0-3.4-0.3-4.8-1.2-2.1-1.2-3.7-3.2-4.6-5.5-1.6-3.9-0.5-12.5-0.5-12.5 0 0-2.5 2.7-3 4.4-0.7 1.8-0.6 3.7-0.4 5.6 0.2 2.1 1.8 3.9 2.7 5.7 0.9 2.2 2.8 6.1 2.8 6.1 0 0-4.3-1.7-5.9-3.3-1.4-1.4-3-5.2-3-5.2-0.3 1.6-0.3 3.1-0.1 4.6 0.4 2.1 2.6 1.7 1.9 6.1-4.9-1.4-5.9-5.1-5.2-10.2 0 0-1.5 3.6-2.1 5.6-1.4 5.3 0 11.8 0 11.8 0 0-2.6-2.3-3.4-4.1-1.3-2.9-1.2-7-1.2-7-3.8 4.6-1.6 9.2-5.9 12.2-1.6-2.2-3.2-4.6-4.6-3.4-1.9 1.7 0.9 5.1 1 7.6 0 1.8-0.4 3.7-1.5 5.6-1.2-2.5-3.5-3.5-6-4.3-4.1-1.3 1.5 6.8-0.5 10.4-2.3-4.4-2.9-11.7-8.9-9.9 1.6 1.5 3.4 2.9 2.5 7.1 0 0-2.5 0.5-3.6 0-1.4-0.6-2.6-1.8-3.1-3.3-0.5-1.8-0.2-4.1 1-5.5 1.6-2.2 6.3-1.5 8-3.6 2.3-3 1.1-7.6 1.1-7.6 0.7-1.5 3-0.4 4.3-1.3 2.9-2.1 2.5-7 5-9.4 2.7-2.5 7.2-2.2 9.9-4.5 2.8-2.5 2.8-7.6 6-9.7 1.6-1 3.9 0 5.8-0.7 1.5-0.6 2.9-1.6 4-2.9 1.2-1.2 1.9-2.9 2.7-4.5 10.3-2 18.8-2 18.8-2-1.1-6 0.1-10.3 1.4-14.7q0 0 0 0c3.1-2.7 6.9-5.8 10.5-5.7q1.1 0 2.1 0.4zm-85.1 61.1c0 0-0.3 5.5 0.4 7.8 0.4 1.4 0.9 3.1 1.9 4.7 1.9 2.8 2.9 2.6 3.6 4.6 1 2.7 0.1 8.6 0.1 8.6 0 0-1.1-2.3-2-3.1-1.1-0.9-2.1-1-3-2.1-0.8-0.9-1.2-2.3-1.2-3.5 0.1-1.4 1.1-3.6 1.1-3.6 0 0-2.1-0.7-2.8-1.7-1.4-1.9-1.4-4.6-1.1-7 0.3-3.3 2.1-4.8 2.7-4.9q0.2 0 0.3 0.2zm-5.4 12.3c2 1.5 3.3 3.8 4 6.3 0.5 1.9 0.5 3.4 0 5.4-0.3 1-0.7 2.2-1.5 2.9-0.2 0.2-0.6 0.4-0.8 0.3-0.7-0.7 0.5-1.9 0.4-2.8 0-1.5-0.1-3.1-0.8-4.5-0.7-1.4-1.9-2.5-3.2-3.4-0.8-0.6-2-0.7-2.7-1.4-0.9-0.8-2.1-1.3-1.8-2.5 0.2-1 1.4-1.7 2.5-1.8q0.2-0.1 0.5 0c1.2 0 2.4 0.7 3.4 1.5z"/>
		<path id="path4188" fill-rule="evenodd" class="s9" d="m701.5 287.5c1.2 0.6 2.2 1.4 3.4 1.8 1.3 0.4 4 0.6 4 0.6 0 0-3.5 3.5-5.9 4.7-1.2 0.7-2.8 1-4.1 1.6-1.3 0.6-2.6 1.3-3.3 2.5-0.7 1.3-0.4 3.1-1.2 4.3-1 1.8-2.4 2.6-4.4 3.1-0.9 0.3-2.9 0-2.9 0 0 0 1.2 0.9 1.9 1.1 1.2 0.3 2.5 0.2 3.5 1 0.7 0.5 0.9 1.5 0.9 1.5 0 0-5.3 0.9-7.5-0.2-1.3-0.6-1.4-2.6-2.7-3.2-1.4-0.7-4.6-0.2-4.6-0.2-5.2-0.2-4.7-7.1-18.4-12.4 5 0.4 11.8 2.9 19.8 10.3 0 0 5.2-3.2 8.1-5.4 4.2-3.4 5.1-8.9 11.6-12 0.8 0.4 1.2 0.6 1.8 0.9z"/>
		<path id="path4193" fill-rule="evenodd" class="s6" d="m722.2 290.4c1.6 0.4 1.4 2.5 3 3.1 1.2 0.4 2.2-0.7 3.4-0.3 1.3 0.3 2.2 1.6 2.9 2.8 0.5 1 0.5 1.7 0.9 2.8 0.5 1.2 1.5 3 2.6 3.8 0.5 0.4 1.3 0.1 1.9 0.5 0.7 0.5 1 0.9 1.3 1.8 0.2 0.3 0.1 1.1 0.1 1.1 0 0-0.8-0.9-1.3-1.1-0.6-0.2-1.2 0.2-1.8 0-1.1-0.4-2-1.3-2.9-2.2-1-1-2.1-2-2.6-3.4-0.3-0.6 0-1.3-0.2-1.9-0.1-0.5-0.3-1.2-0.7-1.4-1.3-0.8-3 0.5-4.3-0.1-1-0.4-1.1-1.9-2.1-2.4-0.9-0.4-2.9-0.1-2.9-0.1 0 0-0.3 2-0.1 3 0.2 0.8 0.6 1.6 1.1 2.3 1 1.3 2.3 2.4 3.7 3.1 0.7 0.4 1.2 0.4 1.7 0.9 0.8 0.9 0.9 2.4 0.7 3.6-0.2 1.7-1.6 4.3-1.6 4.3 0 0 0.1-4.9-1.5-6.5-0.5-0.6-1.2-0.5-1.8-0.9-0.8-0.5-1.6-1.2-1.9-2.1-0.3-0.6 0.3-1.3-0.2-1.9-0.5-0.5-0.7 0.2-1.3-0.2-1.1-0.9-1.5-2.5-1.4-3.9 0-0.9 0.4-1.9 1.2-2.4 0.4-0.2 0.7 0.1 0.7 0.1 0 0 0.1-0.8 0.6-1.4 0.6-0.6 1.6-1.1 2.5-1.1q0.2 0 0.3 0.1zm-69.4 4.3c-0.6 0.2-1 0.5-1.3 0.8 2.6-0.4 2.9 26.6 25.8 26.1q0 0.1 0 0.1l0.3-0.2c0 0-1.6-2-3.3-2.8-2.2-1.1-5-0.9-7.1-2.2-6.5-3.9-9.5-11.8-11.3-18.2-0.4-1.4-1.4-2.9-3.1-3.6zm53.8 0.6c-1.2 0-2.4 0.2-3.6 0.6-0.5 0.1-1.4 0.9-1.4 0.9 0 0 0.6 0.6 1 0.8 1 0.4 2.2 0.3 3.3 0.4 0.6 0 1.4-0.2 1.9 0.1 0.4 0.3 0.5 0.9 0.8 1.2 1.1 1.2 2.5 2.2 3.9 3 1.1 0.6 2.4 0.6 3.4 1.3 1 0.7 1.3 2.3 2.4 2.9 0.5 0.2 1.5 0 1.5 0 0 0-1.4-2.6-2.3-3.8-1.6-2-3.3-4-5.4-5.5-1-0.8-2.1-1.4-3.3-1.7q-1.1-0.2-2.2-0.2zm-33.4 9c-0.9 0-0.4 1.7-0.2 2.5 0.5 1.4 1.5 2 2.9 2.6 1.3 0.5 3-0.3 4.2 0.5 0.7 0.3 1.1 1.3 1.6 1.8 0.8 0.7 1.4 1.1 2.4 1.3 1 0.2 1.2 0.2 2.1-0.2 0.6-0.3 2-1.2 1.4-1.6 0 0-1.5 0.2-2.5-0.4-1.3-0.6-2-2.6-3.3-3.2-1.5-0.6-2.8 0.6-4.3 0.1-1.8-0.6-4.3-3.4-4.3-3.4zm25.1 3.9c-1.3 0-2.5 0.2-2.5 0.2 0 0-0.5 3.2-0.1 4.7 0.4 1.4 1.2 2.7 2.3 3.6 1.2 1 2.9 1 4.2 1.8 1.4 0.9 3.8 3.2 3.8 3.2 0 0 1.1-1.5 1-2.3-0.1-0.7-0.8-1.4-1.4-1.8-0.8-0.5-2-0.1-2.8-0.6-1.4-0.8-2.5-2.1-3.2-3.6-0.3-0.4-0.6-1.1-0.3-1.5 0.4-0.4 1.1 0 1.6 0.1 1.7 0.7 2.6 2.8 4.3 3.4 1.8 0.5 4.2 1 5.6-0.2 0.3-0.3 0.3-1.2 0.3-1.2 0 0-3.2 0-4.7-0.7-2.3-1-3.6-3.9-6-4.8-0.6-0.2-1.3-0.3-2.1-0.3zm-19 4.7q-0.5 0-1 0c-1.5 0.1-2.8 1-4.2 1.2-1.1 0.1-3.3-0.1-3.3-0.1 0 0 1.4 1.8 2.5 2.2 2.4 0.8 5-0.4 7.6-0.3 1.1 0 3.4 0.3 3.4 0.3 0 0-1.2-2-2.1-2.5-0.9-0.5-1.9-0.7-2.9-0.8zm58 4c-0.9 0-1.7 0.2-2.5 0.4-1.1 0.3-2.9 0.8-2.9 0.8 0 0 1.1 1.3 1.9 1.6 1.4 0.7 3.7-0.4 4.6 0.8 0.5 0.7-0.4 1.7-0.1 2.4 0.2 0.6 1.1 0.7 1.2 1.3 0.1 0.7-0.2 1.5-0.8 1.8-0.5 0.2-1-0.4-1.5-0.3-0.9 0.1-2 0.3-2.3 1.1-0.3 0.7 0.3 1.6 0.9 2.1 0.5 0.5 1.2 0.8 1.8 0.6 0.3-0.1 0.2-0.5 0.4-0.7 1-1.5 1.9-3.4 3.6-4.2 0.9-0.5 2.1 0 3.1-0.2 1.1-0.4 1.9-1.5 3.1-1.6 0.9-0.2 1.9 1 2.8 0.6 0.6-0.3 0.8-1.2 0.7-1.9-0.1-0.5-0.9-0.5-1.2-1-0.4-0.9-0.3-1.7-1-2.4-1.4-1.4-3.4-1-5.5-0.7-0.9 0.1-1.7 0.4-2.6 0.4-1.2 0-2.2-0.7-3.4-0.9q-0.2 0-0.3 0zm16.2 0.6q-0.3 0.1-0.3 0.1c0 0 0.4 2.3 1.1 3.2 0.7 0.9 3.1 1.8 3.1 1.8 0 0 0.5-1.7 0.2-2.5-0.3-0.9-0.9-1.8-1.7-2.2-0.6-0.4-1.8-0.4-2.4-0.4zm-23.7 3.7c-1 0-2.1 0.2-3 0.6-0.9 0.3-2.3 1.7-2.3 1.7 0 0 2.2-0.5 2.9 0.1 0.3 0.4 0.1 1 0 1.5-0.2 0.8-0.6 1.6-1.2 2.2-0.7 0.6-1.6 1-2.5 1-1.1-0.1-1.8-1.5-2.9-1.8-0.3-0.1-0.8-0.2-1 0-0.2 0.2-0.1 0.7 0 1.1 0.4 0.9 1.8 1.2 2.2 2.1 0.3 0.7 0 2.3 0 2.3 0 0-2-1.4-3.2-1.7-1.3-0.3-2.8 0.6-4 0-1.3-0.6-1.3-2.7-2.5-3.4-0.8-0.4-1.8 0-2.7-0.2-0.5-0.1-0.9-0.6-1.5-0.7-1.3-0.3-2.6 0.4-3.9 0-1.8-0.5-3-2.5-4.8-3-1.4-0.5-4.3-0.1-4.3-0.1 0 0 0.1 1.6 0.7 2.1 0.5 0.6 1.6 0.3 2.3 0.6 1.3 0.6 2.5 1.5 3.4 2.6 1 1 1.3 2.7 2.3 3.7 1.5 1.4 3.4 2.4 5.3 2.9 2.8 0.8 5.8 0.6 8.7 0.3 2.5-0.2 5.2-0.3 7.5-1.4 2.3-1.1 3.5-3.8 5.8-4.9 0.9-0.4 3-0.4 3-0.4 0 0-1.4-1.4-1.7-2.2-0.4-0.9-0.6-2-0.2-2.9 0.2-0.6 1.3-1.2 1.3-1.2 0 0-1.2-0.7-1.8-0.8q-0.9-0.2-1.9-0.1z"/>
		<path id="path4206" fill-rule="evenodd" class="s12" d="m754.1 325.7c1.4 0.3 2.4 1.5 3.7 1.9 0.9 0.3 2.2 0.6 3.3 0.7-0.7 1-1.8 2.5-3.1 3.8-1.9-1.3-4.8-3-6.8-3.5-1.9-0.5-4.1 0.4-6-0.1-1.1-0.3-3.1-0.6-2.8-1.6 0.1-0.7 1.4 0.1 2.2 0 1.3-0.2 2.4-1.2 3.8-1.4q1.4-0.2 2.9-0.2 1.4 0 2.8 0.4z"/>
		<path id="path4139-9" class="s7" d="m719.4 284.7c6.4 0.5 14.4 5.3 18.7 10 3.1 3.5 0.7 7.7 5.7 12.5 4.7 4.5 12.5 4.4 16 9.8 0.8 1.3 0.4 3.3 0.4 3.3 0 0 2.9 2.7 1.7 6.9 0 0-3.9 5.9-6.7 7.1-1.9 0.9-4.4 0.7-6.4 0.2-3.6-0.8-6.6-3.2-10.3-3-4.5 0.2-9.9 5.2-14.1 6.7-3.1 1.1-7.1 1.1-7.1 1.1 0 0-0.8 4-0.5 8.3 0.6 6.9 2.3 14.2 1.1 20.3-2.8 14.2-14.6 27.5-17.5 41.7-1.1 5.8 0.4 14.2-0.9 20-0.6 2.6-1.9 5.8-3.4 8.5-7 1.1-14 1.6-21.1 1.6-36.4 0-71.4-14.3-97.5-39.7 4.9-8.9 17.3-32.7 23.8-37.9 5.7-4.6 13.7-3.7 20.3-6.8 5.9-2.8 10.6-8.2 16.5-11 16.4-8.1 37.8-8 37.8-8-1.1-6 0.1-10.3 1.4-14.7-22.9 0.5-23.2-26.5-25.8-26.1 1.8-1.9 13-5.8 28.5 8.5 0 0 5.2-3.2 8.1-5.4 4.6-3.7 5.3-10.2 14-12.9 5.5-1.7 11.2 1.3 11.2 1.3 0 0 3-2.2 5.6-2.3q0.3 0 0.5 0z"/>
		<circle id="ellipse4383" class="s13" cx="675" cy="300" r="140.6"/>
	</g>
</svg>