<svg version="1.2" baseProfile="tiny-ps" xmlns="http://www.w3.org/2000/svg" viewBox="0 0 1440 960" width="900" height="600"><title></title><style>tspan { white-space:pre }.shp0 { fill: #ffffff } .shp1 { fill: #0081c4 } .shp2 { fill: #00a23d;stroke: #131516;stroke-linejoin:round;stroke-width: 1.481 } .shp3 { fill: #007ac7 } .shp4 { fill: #ffffff;stroke: #131516;stroke-linejoin:round;stroke-width: 1.481 } .shp5 { fill: none;stroke: #131516;stroke-linecap:round;stroke-linejoin:round;stroke-width: 1.481 } .shp6 { fill: #131516 } .shp7 { fill: #d4282b;stroke: #131516;stroke-linejoin:round;stroke-width: 1.481 } .shp8 { fill: #a34f2c;stroke: #131516;stroke-linejoin:round;stroke-width: 1.481 } .shp9 { fill: #f4d639;stroke: #131516;stroke-linejoin:round;stroke-width: 1.481 } .shp10 { fill: #a34f2c;stroke: #131516;stroke-linecap:round;stroke-linejoin:round;stroke-width: 1.481 } .shp11 { fill: #f0cd1e;stroke: #131516;stroke-linejoin:round;stroke-width: 1.481 } .shp12 { fill: #131516;stroke: #131516;stroke-linejoin:round;stroke-width: 1.481 } .shp13 { fill: #239e46;stroke: #131516;stroke-linejoin:round;stroke-width: 1.481 } </style><path class="shp0" d="M0 0L1440 0L1440 960L0 960L0 0Z" /><path class="shp1" d="M-0.75 476.61L1440.05 476.61L1440.05 960L-0.75 960L-0.75 476.61Z" /><g ><g ><g ><path class="shp2" d="M819.01 576.58C815.73 573.74 810.08 573.74 808.68 576.1C807.27 577.99 805.85 578.95 803.5 578.47C801.15 577.52 796.92 577.52 794.11 579.89C791.28 582.26 789.88 586.52 789.88 588.89C789.88 591.25 789.41 594.1 787.53 595.51C785.65 596.93 783.3 600.24 786.59 602.61C789.88 604.98 797.4 602.14 799.75 600.24C800.69 602.61 802.1 603.09 803.04 604.03C805.39 601.67 806.33 600.24 809.62 601.67C813.38 603.09 819.96 600.72 819.49 595.99C818.55 591.72 818.55 590.78 820.43 589.83C822.78 588.41 824.19 585.1 822.31 583.68C820.43 582.26 819.96 580.84 819.96 579.42C819.96 578 819.49 577.52 819.01 576.58L819.01 576.58Z" /><path class="shp2" d="M825.63 518.31L830.8 516.88C830.8 509.31 833.15 503.63 836.44 501.26C839.73 498.9 840.66 496.05 838.79 493.22C837.38 490.85 839.26 488.95 841.14 487.54C845.36 484.23 844.43 475.7 835.5 475.23C838.79 471.92 834.56 464.82 836.91 462.92C843.49 459.13 841.61 452.51 838.32 450.14C839.26 445.41 835.03 444.93 836.44 440.68C837.85 436.41 834.57 435.47 831.74 438.79C829.39 442.57 828.92 441.63 827.04 439.73C825.16 437.84 822.34 435 818.11 438.79C817.16 449.19 816.69 517.36 825.63 518.31L825.63 518.31Z" /><path class="shp2" d="M822.79 568.02C816.21 562.34 816.21 557.6 818.56 554.76C821.38 551.45 824.67 546.24 815.74 538.2C810.1 544.35 805.87 558.08 804.93 561.87C805.4 566.13 808.22 571.33 812.45 574.65C813.86 574.65 816.68 574.17 819.03 577.01C819.5 573.23 822.79 572.75 822.79 568.02L822.79 568.02Z" /><path class="shp2" d="M780.05 614.46C784.75 614.93 786.62 614.46 789.92 613.04C792.74 611.61 795.09 611.14 797.44 612.09C800.26 613.04 800.73 613.04 802.61 612.57C804.96 611.62 808.72 614.46 809.66 616.83C811.07 619.2 814.36 619.67 816.25 617.3C817.66 615.41 820.95 613.99 824.23 614.94C827.52 615.41 829.87 617.3 828.93 619.2C827.52 620.62 827.52 625.35 827.99 626.77L810.6 634.35C804.49 633.4 803.55 631.03 803.08 629.14C802.61 627.25 802.14 625.35 798.85 626.3C795.56 626.77 793.67 626.3 793.67 623.45C793.67 620.14 790.85 616.35 788.04 616.82C785.69 617.3 779.1 617.3 777.23 615.88L780.05 614.46Z" /></g><path class="shp3" d="M716.11 430.78C749.48 417.52 811.06 428.89 808.71 493.74C806.36 558.6 765.46 634.34 716.11 634.34C666.75 634.34 625.86 558.6 623.51 493.74C621.62 428.89 682.73 417.52 716.11 430.78Z" /><g ><path class="shp4" d="M715.16 479.54C722.21 479.54 726.44 469.59 724.56 464.38C722.21 456.81 709.99 454.92 708.11 464.86C706.23 474.33 711.41 479.54 715.16 479.54Z" /><path class="shp4" d="M716.11 486.61C716.11 475.72 715.63 471.46 715.63 467.67C716.11 462.94 707.17 463.42 712.81 470.04C713.28 477.14 713.75 484.25 713.75 487.08L716.11 486.61Z" /><path class="shp5" d="M718.88 458.66C723.58 463.4 721.23 473.34 715.59 475.71" /><path class="shp4" d="M702.94 543.87C704.82 528.25 706.23 502.21 707.64 489.91C706.7 488.02 705.76 487.06 705.29 485.65C706.7 484.7 708.11 483.76 709.05 483.28C709.99 484.7 710.93 485.65 711.4 486.12C712.34 486.6 712.81 486.6 712.81 486.6L713.75 483.76L715.63 483.76L717.05 486.12L718.92 485.65L719.86 482.81L721.27 482.81L722.21 486.12L723.15 487.06L725.03 484.7L727.86 486.12C726.44 488.01 725.97 488.96 725.03 490.38C724.56 498.42 724.56 503.63 725.5 510.73C726.44 517.83 729.73 538.66 730.2 542.45C730.21 545.77 702 547.19 702.94 543.87L702.94 543.87Z" /><path class="shp4" d="M668.17 458.66C674.28 458.66 679.91 468.13 675.21 476.18C670.52 484.23 661.58 478.55 661.12 473.34C660.18 468.61 661.12 458.66 668.17 458.66Z" /><path class="shp5" d="M668.17 458.66C675.21 460.09 678.04 472.39 669.1 477.6" /><g ><path class="shp4" d="M669.52 487.56L669.52 471.94C669.52 469.58 668.58 465.79 666.7 465.79C664.35 465.79 660.59 470.05 666.7 472.89C667.17 476.2 666.7 483.78 666.7 486.62L669.52 487.56Z" /><path class="shp4" d="M654.04 543.87C655.92 530.62 659.68 494.64 660.63 490.38C659.21 488.02 656.86 486.12 655.93 484.7L658.75 482.81L659.69 485.65L661.56 485.65L662.5 482.81L664.85 482.81L664.85 485.18L667.2 485.65L668.14 482.81L671.9 482.81L672.37 485.65L675.2 485.65L676.61 483.76L679.9 485.18L677.07 490.86C677.55 507.44 678.49 531.1 679.42 542.94C679.89 549.56 653.1 551.45 654.04 543.87L654.04 543.87Z" /><path class="shp4" d="M760.74 459.62C753.22 459.62 749.93 469.56 755.1 476.19C759.8 482.82 766.39 483.76 769.2 474.77C771.56 466.72 767.32 459.62 760.74 459.62Z" /></g><path class="shp5" d="M756.49 460.57C763.54 457.25 771.53 468.61 761.66 478.08" /><path class="shp4" d="M764.05 489.94C764.05 485.68 763.58 477.16 763.58 474.32C763.58 471.48 761.7 466.75 758.88 466.75C755.59 466.75 752.77 471 759.35 473.37C759.83 475.74 760.76 487.1 760.76 489.94L764.05 489.94Z" /><path class="shp4" d="M746.63 542.92C748.04 528.25 750.86 497.95 750.86 492.74L748.98 488.48L754.15 485.64L756.5 488.48L758.39 488.01L758.86 484.7L761.21 485.17L762.15 488.02L764.5 488.02L766.38 485.65L769.2 486.12L768.26 488.49L770.14 489.91L771.55 488.02L773.43 489.91L771.08 493.22C771.55 508.84 773.43 538.2 773.9 542.93C774.36 550.97 745.69 551.92 746.63 542.92L746.63 542.92Z" /></g><g ><path class="shp5" d="M705.77 510.75C710.95 510.75 722.23 511.7 725.52 511.7" /><path class="shp5" d="M706.72 504.63C709.54 502.74 722.23 505.57 725.05 504.63" /><path class="shp5" d="M725.02 495.59C720.32 493.7 710.92 493.22 707.16 495.59" /><path class="shp5" d="M707.6 490.89C712.3 488.53 719.83 488.53 725 490.42" /><path class="shp5" d="M726.91 518.78C719.86 517.84 709.99 516.41 705.29 518.31" /><path class="shp5" d="M705.3 524.49C709.06 524.49 720.81 524.01 727.87 525.91" /><path class="shp5" d="M728.8 532.04C721.28 531.57 710.47 530.15 703.88 532.04" /><path class="shp5" d="M703.88 537.27C709.06 536.8 725.51 536.8 729.27 536.8" /><path class="shp5" d="M654.98 537.27C656.86 535.85 674.72 536.33 678.95 536.8" /><path class="shp5" d="M655.45 531.62C659.69 530.2 675.2 531.15 678.96 531.15" /><path class="shp5" d="M678.5 525.44C674.74 524.97 659.69 525.44 656.4 526.39" /><path class="shp5" d="M656.86 521.16C661.09 519.74 673.78 519.74 678.01 520.68" /><path class="shp5" d="M657.33 515.99C660.15 514.57 670.02 513.14 678.01 515.51" /><path class="shp5" d="M677.55 510.28C670.97 508.86 661.57 509.33 658.28 511.22" /><path class="shp5" d="M658.74 507.42C662.5 506.48 673.31 506 677.55 506.48" /><path class="shp5" d="M676.61 495.11C671.91 492.75 664.39 493.22 660.16 495.11" /><path class="shp5" d="M660.62 490.42C663.91 489 670.49 488.05 677.07 490.89" /><path class="shp5" d="M666.75 514.08L666.75 520.21" /><path class="shp5" d="M667.22 493.69L667.22 496.54" /><path class="shp5" d="M667.69 506.53L667.69 509.8" /><path class="shp5" d="M659.21 501.3L663.44 501.3" /><path class="shp5" d="M668.64 500.82C670.05 501.3 675.69 501.3 677.1 501.3" /><path class="shp5" d="M706.72 497.97C710.01 497.49 717.53 497.49 720.82 497.97" /><path class="shp5" d="M714.69 504.15C714.69 506.04 715.16 510.31 714.69 511.25" /><path class="shp5" d="M709.49 511.23L709.49 514.08" /><path class="shp5" d="M716.11 516.94L716.11 514.56" /><path class="shp5" d="M710.91 497.49C710.91 497.49 710.91 499.38 711.38 500.34C711.38 501.28 713.26 501.28 714.67 501.28" /><path class="shp5" d="M718.88 497.97L718.88 501.76" /><path class="shp5" d="M747.1 534.42C753.21 533 764.02 532.05 772.96 533.94" /><path class="shp5" d="M748.05 527.34C753.69 527.82 765.44 527.34 772.96 529.71" /><path class="shp5" d="M748.05 524.01C753.69 521.17 764.5 520.7 772.49 524.49" /><path class="shp5" d="M748.99 517.41C755.58 515.05 767.79 514.57 772.02 516.47" /><path class="shp5" d="M749.46 512.66C756.05 510.77 767.32 510.29 772.02 511.71" /><path class="shp5" d="M750.41 506.06C756.05 505.11 767.33 504.17 771.56 506.53" /><path class="shp5" d="M750.88 501.77C755.11 500.35 768.27 499.88 771.56 500.83" /><path class="shp5" d="M771.07 497.02C765.9 495.6 754.62 494.65 750.86 497.96" /><path class="shp5" d="M750.88 492.8C756.05 490.43 765.45 490.9 771.09 493.27" /><path class="shp5" d="M760.74 495.59L761.21 500.35" /><path class="shp5" d="M757.44 500.35L757.91 505.1" /><path class="shp5" d="M764.52 500.35L764.52 505.1" /><path class="shp5" d="M761.21 505.1L761.21 510.75" /><path class="shp5" d="M760.74 515.51L759.8 521.64" /></g><g ><path class="shp6" d="M664.85 498.92C662.03 498.92 662.03 503.65 664.38 503.65C666.73 503.65 667.2 498.92 664.85 498.92Z" /><path class="shp6" d="M670.94 498.44C669.06 498.44 669.53 502.71 671.41 502.71C672.82 502.71 673.29 498.44 670.94 498.44Z" /><path class="shp6" d="M709.49 545.3C709.97 532.99 709.02 523.53 714.67 523.53C720.3 524 718.9 531.57 719.37 545.3C715.13 545.78 712.31 545.78 709.49 545.3L709.49 545.3Z" /><path class="shp6" d="M660.15 543.87C660.15 536.3 658.74 523.04 664.85 523.04C670.96 523.04 669.09 537.72 669.09 543.4" /><path class="shp6" d="M755.07 548.16C755.07 537.27 753.66 524.96 759.31 524.96C763.53 524.96 764.01 535.85 764.01 547.68L755.07 548.16Z" /></g><g ><path class="shp5" d="M767.29 525.44C768.23 525.44 771.53 526.39 772.93 526.86" /><path class="shp5" d="M767.29 531.15C768.71 531.15 771.99 531.62 772.93 532.09" /><path class="shp5" d="M766.88 536.32C768.76 536.32 771.58 536.8 773.46 537.27" /><path class="shp5" d="M766.88 519.73C768.29 519.73 770.64 520.21 772.52 520.68" /><path class="shp5" d="M766.88 517.41C769.23 517.41 771.11 517.89 772.52 518.36" /><path class="shp5" d="M766.88 513.13C768.29 513.13 771.11 513.61 772.05 513.61" /><path class="shp5" d="M767.77 507.9C769.18 508.38 770.59 508.38 771.99 508.84" /><path class="shp5" d="M767.77 503.2C769.18 503.2 770.59 503.2 771.53 503.68" /><path class="shp5" d="M723.13 534.42L729.24 534.42" /><path class="shp5" d="M723.13 529.25C724.54 529.25 727.37 529.72 728.3 529.72" /><path class="shp5" d="M723.13 526.87C724.54 527.34 726.89 527.81 727.83 527.81" /><path class="shp5" d="M722.66 522.59C724.07 523.06 726.89 523.06 727.36 523.53" /><path class="shp5" d="M722.66 520.21C723.6 520.21 725.95 521.15 726.89 521.15" /><path class="shp5" d="M722.66 515.99L726.42 515.99" /><path class="shp5" d="M722.66 513.13C723.13 513.13 725.95 513.61 725.95 513.61" /><path class="shp5" d="M721.72 508.85C723.13 508.85 724.54 508.85 725.48 509.33" /><path class="shp5" d="M722.19 507.01L725.01 507.01" /><path class="shp5" d="M722.19 501.77L724.54 501.77" /><path class="shp5" d="M722.66 496.54C723.13 496.54 723.6 497.02 724.54 497.02" /><path class="shp5" d="M673.3 538.7C675.18 538.7 678 539.18 678.94 539.18" /><path class="shp5" d="M673.3 533.47C674.71 533.47 678 534.41 678.94 534.41" /><path class="shp5" d="M673.3 529.25L678.47 529.25" /><path class="shp5" d="M674.25 526.87C675.66 526.87 677.54 527.34 678.48 527.34" /><path class="shp5" d="M673.77 524.01L678.47 524.01" /><path class="shp5" d="M674.25 521.64C675.19 521.64 677.07 522.11 678.01 522.11" /><path class="shp5" d="M674.72 517.89L678.01 517.89" /><path class="shp5" d="M674.25 512.18C675.66 512.18 677.07 512.66 678.01 512.66" /><path class="shp5" d="M675.19 508.38L677.54 508.38" /><path class="shp5" d="M674.72 503.68L677.54 503.68" /><path class="shp5" d="M674.72 498.44L677.07 498.44" /></g><g ><path class="shp2" d="M788.02 557.61C782.85 552.88 778.15 546.25 775.33 541.51C772.98 537.25 767.34 540.09 760.76 542.93C757.47 542.93 751.83 541.51 749.95 539.62C747.6 538.2 746.66 538.68 743.84 541.99C741.49 545.3 741.96 545.3 742.43 548.62C742.9 551.46 740.55 554.3 738.2 557.62C737.73 557.14 737.73 556.67 737.26 556.67C735.38 553.83 734.91 547.67 732.56 542C730.68 536.32 727.86 537.73 723.16 542.47C720.34 540.1 713.76 541.05 711.41 542C708.59 542.94 705.3 543.42 702.01 542.47C698.25 541.53 698.72 542.47 697.79 546.26C696.85 550.05 694.96 554.3 693.55 559.99C691.68 559.04 689.79 557.62 687.44 556.2C685.56 547.2 684.15 544.36 681.8 542C679.45 539.63 674.75 539.63 670.99 540.57C666.76 541.05 661.12 542 655.95 541.52C653.6 539.63 651.25 540.57 649.84 542.94C647.96 545.78 645.14 551.94 643.26 555.72C648.89 574.66 677.57 624.84 716.11 634.31C738.2 622.47 782.85 587.44 788.02 557.61L788.02 557.61Z" /><g ><path class="shp5" d="M738.19 557.61C740.54 560.45 743.36 565.66 744.77 569.92C746.18 574.18 748.06 579.39 750.41 581.75C752.29 584.59 756.52 592.64 757.46 597.85" /><path class="shp5" d="M693.49 559.99C700.54 565.2 701.95 568.99 704.3 577.51C708.54 581.29 712.76 585.55 714.64 587.92C716.52 590.76 717.93 596.44 717.93 600.7C726.39 608.28 730.15 614.43 733.44 622.95" /><path class="shp5" d="M673.3 601.67C676.59 599.78 679.88 595.52 680.82 592.21C684.11 594.1 688.81 595.99 691.17 597.88C693.05 603.09 694.93 610.19 697.28 613.51C701.51 613.51 705.27 612.56 707.62 610.66C705.27 608.3 701.98 605.93 700.57 603.09C701.98 598.82 703.39 592.68 703.39 589.83C701.04 587.47 697.75 585.1 695.4 583.68" /><path class="shp5" d="M687.41 556.18C683.65 553.82 673.31 552.87 669.55 552.87" /><path class="shp5" d="M723.13 542.51C719.84 546.29 717.02 549.14 717.02 552.45C717.02 555.76 717.96 566.65 716.08 569.97" /><path class="shp5" d="M718.88 546.73C719.35 551.94 721.23 562.83 720.76 567.08C723.11 566.14 726.87 562.83 726.87 559.98C727.81 569.45 724.99 576.55 724.99 580.34C724.99 576.55 732.98 574.18 733.92 570.87C734.86 573.24 735.81 579.39 735.34 580.81" /><path class="shp5" d="M735.35 580.8L738.19 576.58" /><path class="shp5" d="M738.19 576.58C740.07 577.05 742.89 576.1 744.3 575.16C743.83 578.47 744.3 583.68 744.3 586.05" /><path class="shp5" d="M726.91 604.53C727.38 602.16 726.91 599.32 723.15 597.9C723.15 596.01 723.15 593.16 721.27 591.74C723.62 590.8 728.32 591.74 730.21 593.64C733.49 591.74 741.95 593.16 745.25 597.43C740.08 583.7 728.33 589.85 722.22 587.01C725.04 587.49 731.62 586.07 733.03 584.65C734.91 583.7 738.2 584.65 741.02 582.76" /><path class="shp5" d="M741.02 582.7L741.43 585.56" /><path class="shp5" d="M760.74 542.92C756.51 545.29 756.98 547.66 751.34 548.6C756.04 547.66 759.8 549.55 762.62 550.49C765.45 551.91 772.02 553.33 776.26 550.02C776.26 551.91 776.26 552.86 777.67 554.75C773.44 556.65 767.33 557.12 763.57 555.7C759.81 554.75 756.99 555.7 754.17 554.27C752.29 556.17 750.88 557.59 750.88 559.01C754.64 557.12 758.87 561.85 763.1 559.95C765.93 564.21 767.33 568 768.74 570.84C768.27 572.26 767.8 573.21 767.33 575.1C761.69 573.21 760.28 571.32 759.81 569.9C756.99 567.05 753.7 565.63 749.94 566.58" /><path class="shp5" d="M759.8 569.92C757.92 571.81 757.92 577.02 757.92 578.44" /><path class="shp5" d="M757.91 578.48L756.02 578.48" /><path class="shp5" d="M756.02 578.48C756.49 582.75 756.02 588.89 756.02 592.21" /><path class="shp5" d="M705.77 578.96C700.6 578.96 686.97 574.69 682.74 569.96C679.45 570.44 673.34 569.96 669.11 566.17" /><path class="shp5" d="M693.49 559.99C692.08 563.3 687.86 564.25 685.03 564.25C680.8 567.09 671.4 567.09 666.7 566.14" /></g><g ><path class="shp5" d="M704.83 557.61L704.83 561.89" /><path class="shp5" d="M707.6 556.18L706.72 569.92" /><path class="shp5" d="M710.91 557.13C710.91 557.13 709.97 562.34 709.97 563.76" /><path class="shp5" d="M721.72 543.4L721.72 551.44" /><path class="shp5" d="M723.6 541.56C724.07 544.87 724.07 552.44 724.07 552.44" /><path class="shp5" d="M724.08 552.44L723.13 552.44" /><path class="shp5" d="M723.13 552.44C723.13 552.44 723.13 557.65 722.66 560.01" /><path class="shp5" d="M725.97 539.65L725.97 553.38" /><path class="shp5" d="M728.33 538.23L728.33 550.53" /><path class="shp5" d="M730.69 539.18C730.69 541.54 731.16 548.64 730.69 549.59" /><path class="shp5" d="M733.46 544.83C733.46 546.72 732.99 551.46 732.53 552.87" /><path class="shp5" d="M729.27 559.99C729.27 564.25 730.21 572.3 729.74 575.14" /><path class="shp5" d="M731.58 558.56C732.05 562.35 732.51 570.87 732.51 573.24" /><path class="shp5" d="M733.94 559.99C733.94 564.25 734.41 570.88 734.41 572.77" /><path class="shp5" d="M736.3 560.94C736.77 564.25 737.24 574.19 737.24 577.04" /><path class="shp5" d="M739.6 560.46C740.08 564.25 740.54 573.24 740.54 576.09" /><path class="shp5" d="M743.32 561.89C743.32 565.68 742.85 572.78 743.32 575.15" /><path class="shp5" d="M685.52 549.11C683.17 548.63 680.35 547.69 680.35 547.69" /><path class="shp5" d="M686.47 552.44C683.65 551.96 678.48 550.55 678.48 550.55" /><path class="shp5" d="M714.69 544.35L717.46 544.35" /><path class="shp5" d="M714.69 547.2L717.46 547.2" /><path class="shp5" d="M714.22 550.06L717.05 550.06" /><path class="shp5" d="M666.75 540.6C666.28 544.86 661.58 550.07 661.11 553.86" /><path class="shp5" d="M662.03 541.08C662.03 543.92 660.15 550.08 658.74 551.97" /><path class="shp5" d="M658.74 541.56C659.21 543.45 658.27 546.76 657.8 547.71" /><path class="shp5" d="M655.92 541.56C655.92 542.98 655.45 545.34 654.98 546.76" /><path class="shp5" d="M665.32 571.35L665.32 574.68" /><path class="shp5" d="M668.17 571.82L668.17 576.58" /><path class="shp5" d="M671.41 573.72L671.88 578.48" /><path class="shp5" d="M674.25 575.15L674.25 579.85" /><path class="shp5" d="M676.61 576.58L677.08 581.75" /><path class="shp5" d="M679.91 578.01C678.98 580.37 679.91 582.74 679.91 584.16" /><path class="shp5" d="M663.44 563.32L663.44 567.54" /><path class="shp5" d="M700.11 566.65C700.58 569.49 700.58 575.17 700.11 578.01" /><path class="shp5" d="M697.27 562.84C697.27 568.52 696.8 579.41 696.33 583.67" /><path class="shp5" d="M694.44 560.94C693.97 564.25 693.5 574.19 693.97 576.56C693.97 578.93 693.49 580.82 693.97 583.19" /><path class="shp5" d="M692.14 562.37C691.66 567.1 691.2 573.25 691.2 575.62C690.72 577.51 690.72 582.72 691.2 585.09" /><path class="shp5" d="M687.88 564.27C688.36 569 687.88 572.32 688.36 574.69C686.95 576.58 687.88 582.26 687.42 585.1" /><path class="shp5" d="M685.05 564.27C685.52 567.58 685.99 570.9 685.99 572.79C685.05 574.21 683.64 579.89 684.11 583.68" /><path class="shp5" d="M681.8 565.22C681.8 566.64 682.28 569.01 681.8 569.95" /><path class="shp5" d="M678.97 570.39L678.97 566.14C682.73 565.66 689.31 565.66 694.95 569.92" /><path class="shp5" d="M702.47 581.75C702.94 583.64 703.88 587.43 703.41 589.8" /><path class="shp5" d="M704.83 582.23C706.24 586.49 705.77 597.38 704.83 601.17" /><path class="shp5" d="M707.13 581.75C708.07 585.06 708.54 589.8 709.02 591.69C708.08 594.54 708.08 598.79 708.54 601.16" /><path class="shp5" d="M710.44 583.65C710.44 586.5 710.44 595.96 709.97 599.28" /><path class="shp5" d="M680.39 593.59C680.39 596.43 678.5 604 678.04 605.89" /><path class="shp5" d="M682.75 593.11C682.75 596.42 680.87 606.36 680.4 608.73" /><path class="shp5" d="M685.05 594.54C684.58 598.32 683.64 607.32 683.17 609.21" /><path class="shp5" d="M687.41 595.49C687.41 598.8 687.41 604.01 686.94 606.38" /><path class="shp5" d="M690.25 596.91C689.77 600.23 688.84 609.69 688.84 612.06" /><path class="shp5" d="M692.14 601.2C692.14 604.51 691.66 610.66 691.66 612.08" /><path class="shp5" d="M694.44 606.85L694.44 615.84" /><path class="shp5" d="M696.8 613.03C696.8 614.92 696.33 621.55 696.33 621.55" /><path class="shp5" d="M700.11 613.51L699.63 623.91" /><path class="shp5" d="M702.47 613.03C702.47 615.87 702.94 623.92 702.47 625.34" /><path class="shp5" d="M704.83 612.08C705.3 615.39 704.83 624.86 704.36 626.75" /><path class="shp5" d="M707.6 610.65C707.6 615.86 707.13 626.75 706.67 629.59" /><path class="shp5" d="M710.91 608.27C710.44 613.48 709.03 628.16 709.03 630.05" /><path class="shp5" d="M713.74 608.27C713.74 612.53 712.81 623.89 712.81 625.31" /><path class="shp5" d="M716.11 607.8L716.11 620.58" /><path class="shp5" d="M718.41 609.22L718.41 612.55" /><path class="shp5" d="M720.77 608.75C720.3 612.06 719.83 618.69 719.83 620.11" /><path class="shp5" d="M722.66 608.75C722.66 611.11 722.19 617.74 722.19 619.16" /><path class="shp5" d="M725.97 607.8C725.97 610.64 725.97 615.84 725.49 617.26" /><path class="shp5" d="M713.27 586.03C712.8 590.29 712.33 599.29 711.86 601.18" /><path class="shp5" d="M715.63 594.54C715.63 596.9 714.7 599.75 714.7 600.69" /><path class="shp5" d="M700.11 581.75L700.11 586.49" /><path class="shp5" d="M725.49 591.68C725.49 593.1 725.02 597.36 725.02 598.78" /><path class="shp5" d="M728.33 592.63C728.33 595 729.27 605.89 728.79 607.78" /><path class="shp5" d="M731.58 593.59C731.58 596.9 731.1 608.74 731.1 610.16" /><path class="shp5" d="M733.94 592.63C733.94 596.89 733.94 609.68 733 612.04" /><path class="shp5" d="M736.77 592.63C736.77 597.37 736.3 611.1 735.83 613.46" /><path class="shp5" d="M739.6 594.06C740.08 597.37 740.08 612.52 739.6 614.41" /><path class="shp5" d="M742.44 595.01C742.91 598.32 741.97 606.38 741.97 608.27" /><path class="shp5" d="M744.27 590.79C744.74 595.05 745.68 608.31 745.21 610.67" /><path class="shp5" d="M746.16 563.32C746.16 566.16 745.69 569.95 745.69 572.79C746.62 575.63 746.62 584.15 746.62 585.56" /><path class="shp5" d="M748.99 578.48C748.99 583.69 747.58 603.1 747.58 606.89" /><path class="shp5" d="M751.35 582.7C751.35 586.97 750.88 603.06 750.88 605.42" /><path class="shp5" d="M754.19 587.94C753.72 591.25 754.19 601.19 754.19 603.56" /><path class="shp5" d="M761.69 572.3C761.21 574.66 759.81 582.24 759.34 583.66" /><path class="shp5" d="M764.52 574.2C764.05 577.04 763.11 582.72 762.64 584.14" /><path class="shp5" d="M767.29 575.15C766.36 577.99 764.47 585.09 766.36 588.88" /><path class="shp5" d="M747.58 565.22L747.58 572.32" /><path class="shp5" d="M750.88 566.65C750.88 568.07 750.41 570.44 750.41 571.38" /><path class="shp5" d="M753.24 566.17C753.24 568.06 753.24 574.22 752.77 575.64" /><path class="shp5" d="M755.6 567.12C755.6 569.49 755.6 574.22 755.13 576.12" /><path class="shp5" d="M756.49 554.82L756.49 559.04" /><path class="shp5" d="M759.32 555.29L759.32 559.99" /><path class="shp5" d="M762.16 555.29L762.16 559.99" /><path class="shp5" d="M766.35 556.18L765.46 563.79" /><path class="shp5" d="M768.24 556.66L768.24 568.97" /><path class="shp5" d="M771.55 556.18C771.55 563.76 771.07 579.38 770.61 582.22" /><path class="shp5" d="M774.38 555.77C774.85 559.55 774.85 575.18 774.38 577.54" /><path class="shp5" d="M777.69 554.82L777.69 574.22" /><path class="shp5" d="M780.46 549.11C780.46 553.36 781.4 565.67 780.93 568.99" /><path class="shp5" d="M774.85 568.49C778.14 568.97 781.9 567.55 783.78 567.55" /><path class="shp5" d="M771.55 563.32C774.37 563.32 781.88 562.84 784.23 562.84" /><path class="shp5" d="M768.71 560.46C775.76 559.52 783.76 558.57 786.57 558.57" /><path class="shp5" d="M776.74 551.01C778.62 551.01 780.5 550.53 781.44 551.01" /><path class="shp5" d="M768.24 548.63C771.53 548.63 777.64 548.16 779.52 548.16" /><path class="shp5" d="M768.71 546.25C771.53 546.25 777.17 545.78 778.11 545.78" /><path class="shp5" d="M767.29 543.87C770.12 543.87 774.82 543.4 775.76 543.4" /><path class="shp5" d="M759.8 546.73L762.16 546.73" /><path class="shp5" d="M762.16 548.63L764.99 548.63" /><path class="shp5" d="M684.11 577.05C688.34 579.42 689.74 580.37 692.09 581.79C696.33 582.26 705.73 581.79 708.55 582.26" /></g></g><g ><g ><path class="shp7" d="M519.13 528.3C514.43 528.3 514.43 535.39 519.13 535.39C523.84 535.39 523.84 528.3 519.13 528.3Z" /><path class="shp7" d="M555.8 574.68C551.1 574.68 551.1 581.78 555.8 581.78C560.5 581.78 560.5 574.68 555.8 574.68Z" /><path class="shp7" d="M567.55 585.56C562.85 585.56 562.85 592.66 567.55 592.66C572.25 592.66 572.25 585.56 567.55 585.56Z" /><path class="shp7" d="M580.71 584.13C576.01 584.13 576.01 591.23 580.71 591.23C585.41 591.23 585.41 584.13 580.71 584.13Z" /><path class="shp7" d="M623.49 578.48C618.79 578.48 618.79 585.58 623.49 585.58C628.19 585.58 628.19 578.48 623.49 578.48Z" /><path class="shp7" d="M600.92 607.32C596.22 607.32 596.22 614.42 600.92 614.42C605.62 614.43 605.62 607.32 600.92 607.32Z" /><path class="shp7" d="M604.22 597.39C599.05 597.39 599.05 604.49 604.22 604.49C608.92 604.49 608.92 597.39 604.22 597.39Z" /><path class="shp7" d="M547.34 489.47C542.64 489.47 542.64 496.1 547.34 496.1C552.04 496.1 552.04 489.47 547.34 489.47Z" /></g><g ><path class="shp2" d="M617.38 532.04C623.96 541.04 622.08 556.66 620.67 562.34C619.26 567.55 617.38 579.86 620.19 585.53L616.91 585.53C607.97 573.7 607.51 555.71 610.32 550.03C613.62 544.35 616.44 539.15 617.38 532.04Z" /><path class="shp2" d="M622.54 608.75C622.07 610.64 622.07 614.9 622.54 618.21C622.54 621.53 623.48 628.63 620.19 632.41C616.91 636.67 610.8 641.88 604.68 643.3C605.16 628.63 611.73 624.84 613.15 620.58C613.62 617.27 617.84 610.64 622.54 608.75L622.54 608.75Z" /></g><g ><path class="shp8" d="M574.6 488.04L571.78 488.51C571.31 492.3 570.84 497.04 570.84 499.4C570.84 501.77 570.84 500.82 572.25 502.71C573.66 504.61 574.13 506.03 573.19 508.39C572.72 510.76 569.43 524.49 569.9 531.11L575.08 533.48C575.55 523.54 576.01 506.5 577.9 502.71C575.08 501.76 573.66 498.92 574.14 496.08C574.13 493.72 574.13 491.83 574.6 488.04L574.6 488.04Z" /><path class="shp8" d="M752.3 717.15C753.24 707.21 753.24 700.58 748.54 696.79C744.3 693.01 740.55 689.22 740.08 685.91C739.14 682.12 735.85 678.81 731.62 676.44C727.38 673.6 716.11 662.71 710.93 656.56C705.76 649.93 688.84 635.25 680.85 630.52C672.86 626.25 657.82 617.26 647.48 613.95C637.61 611.1 634.78 610.16 631.03 608.74C627.27 606.85 620.22 599.27 619.28 594.06C613.64 592.17 608.94 582.7 607.53 579.39C604.24 577.02 593.43 567.55 588.73 561.4C587.79 559.51 583.09 555.72 584.49 561.4C585.9 567.08 587.31 571.34 593.43 574.65C603.76 580.81 608.94 590.75 611.76 594.54C615.05 598.8 618.81 601.64 620.69 604C614.58 603.06 615.99 606.85 606.59 604.48C601.42 603.06 593.9 606.85 586.38 607.32C578.39 607.8 581.21 612.05 586.38 610.63C590.14 610.16 593.9 608.27 595.31 609.21C597.19 610.16 599.55 609.21 601.43 608.27C603.78 607.32 605.66 607.32 607.54 608.27C608.95 609.21 612.24 610.16 615.52 609.21C618.35 608.27 622.57 606.85 624.92 611.1C627.27 615.84 629.16 615.84 631.51 615.84C634.33 615.84 637.15 616.31 639.49 617.73C641.38 619.15 653.6 621.99 661.12 627.19C669.58 633.35 694.02 648.02 705.3 659.39C717.05 670.75 718.46 673.12 721.28 677.85C723.63 683.06 728.33 686.85 731.62 690.16C735.38 693 740.08 699.16 741.96 702.94C743.84 706.74 747.6 714.31 752.3 717.15L752.3 717.15Z" /><path class="shp9" d="M752.3 717.15C753.24 707.21 753.24 700.58 748.54 696.79C745.72 701.53 742.9 710.52 752.3 717.15Z" /><path class="shp10" d="M650.28 615.41C645.11 613.04 636.18 606.89 633.83 597.89C631.48 588.42 628.19 584.64 616.44 584.64C605.16 584.16 576.49 582.75 569.9 581.79C566.14 577.06 562.85 571.85 560.5 569.02C558.62 566.17 554.39 569.02 558.15 572.8C561.92 577.06 564.27 580.85 565.2 582.75C562.85 584.17 560.03 585.11 558.62 585.59C557.21 586.53 556.74 589.85 560.03 587.95C564.26 586.06 567.55 585.59 571.31 586.06C578.36 587.48 596.23 588.43 604.69 588.43C613.15 587.95 623.96 587.48 626.31 594.11C628.66 600.26 631.01 608.78 636.65 613.52" /><path class="shp8" d="M825.63 518.31L830.8 516.88C830.8 522.56 831.74 537.24 832.21 542.92L828.92 543.4C827.98 535.82 826.57 522.09 825.63 518.31L825.63 518.31Z" /><path class="shp8" d="M855.21 454.92C854.73 452.08 854.73 448.29 853.8 444.51C855.68 444.51 856.62 444.03 858.97 444.51C858.97 459.65 859.44 479.07 859.91 487.11C862.26 483.32 863.67 480.01 863.67 477.17C863.67 474.33 864.14 469.59 866.49 467.7L869.78 470.54C869.31 480.01 868.37 482.38 865.54 485.7C862.72 489.01 861.32 491.85 861.32 494.69C861.32 497.54 857.56 503.21 856.62 508.9C857.56 511.26 858.97 513.16 860.38 514.11C863.67 514.11 865.08 514.58 864.14 516.95C862.26 516.95 859.44 518.37 858.97 522.16C856.62 522.63 855.68 519.79 857.56 516.48C856.62 514.11 855.68 513.64 854.73 512.22C846.75 520.74 848.62 538.73 845.34 550.57C845.34 551.99 845.81 554.83 845.34 555.78C850.97 551.52 856.15 551.52 858.97 546.78C861.79 542.05 861.79 539.21 864.61 537.32C868.37 534.47 869.78 528.32 871.19 523.12C872.6 523.59 874.48 525.01 874.48 525.01C871.19 537.79 869.78 540.63 866.96 542.52C864.61 544.42 863.19 545.84 862.73 547.73C861.79 549.15 858.97 552.47 856.62 553.89C857.56 555.31 858.97 555.31 860.38 555.31C862.26 554.83 865.08 556.73 864.14 558.62C860.85 559.57 858.97 560.99 858.5 563.35C855.68 564.3 854.27 560.51 855.21 559.09C856.15 557.67 855.68 556.72 854.74 555.78C852.39 557.2 848.63 558.62 846.28 558.62C844.87 562.41 842.52 568.09 841.11 570.45C845.34 568.09 855.68 573.3 868.37 566.67C868.85 568.09 867.43 570.45 867.43 571.4C859.45 574.24 853.8 574.71 850.04 574.71C846.28 574.71 842.99 575.19 841.11 577.08C838.76 578.97 834.06 580.87 829.36 584.65C825.13 587.97 811.5 604.06 805.85 605.96C800.22 607.38 794.11 606.9 791.28 609.75C788.46 613.06 784.7 614.96 780.95 616.85C776.71 618.27 774.83 621.58 769.2 626.31C759.32 634.36 729.24 655.19 723.13 659.92C718.9 663.23 712.79 668.92 709.03 674.6C705.74 680.75 702.45 682.17 700.57 683.59C698.22 685.01 694.93 688.32 693.52 691.64C692.58 694.95 690.7 696.85 688.35 697.79C686 698.27 679.42 706.31 678.95 708.21C678.01 710.1 677.07 713.41 674.72 715.31C670.96 711.52 670.02 704.89 673.78 701.1C678.48 696.37 681.77 693.52 683.18 692.58C683.65 689.74 685.53 689.27 691.17 684.06C697.28 678.85 698.69 677.9 698.69 676.01C699.16 673.65 702.45 670.8 706.68 667.02C715.61 658.97 742.4 638.14 752.74 631.03C762.61 623.93 772.01 620.15 770.6 604.53L777.65 596.01C778.12 599.79 777.65 609.74 776.24 612.57C781.41 612.1 788.46 604.53 796.45 600.74C804.44 596.95 820.89 584.64 827 578.96C833.11 573.75 837.81 567.13 838.75 563.81C839.22 560.5 841.1 556.24 842.51 551.98C845.34 540.62 844.86 526.89 845.8 521.21C846.74 515.53 847.68 514.58 849.56 510.8C851.91 506.53 855.2 502.27 855.67 498.96C856.61 495.65 856.61 492.33 855.67 489.02C854.73 485.71 853.79 483.81 854.73 479.55C855.67 475.3 856.15 466.3 855.21 462.51C853.33 461.09 852.86 461.57 851.45 462.51C849.57 463.46 846.75 460.14 849.1 457.3C850.03 456.83 851.92 455.88 852.38 453.99C852.86 453.51 853.8 453.99 853.8 454.94C853.8 455.39 855.21 456.34 855.21 454.92L855.21 454.92Z" /><path class="shp9" d="M674.72 715.25C670.96 711.46 670.02 704.83 673.78 701.04C676.6 702.94 679.42 710.04 674.72 715.25Z" /><path class="shp8" d="M874.99 600.72C876.4 602.14 878.27 603.09 879.21 603.56C880.15 604.04 881.56 604.04 882.5 602.62C883.44 601.67 886.73 598.83 888.14 601.67C887.2 602.15 886.73 607.83 889.08 609.72C888.14 612.08 884.38 612.08 883.44 610.19C882.03 608.77 881.09 607.35 879.68 607.35C877.8 606.87 874.98 605.46 873.1 603.09L874.99 600.72Z" /><g ><path class="shp9" d="M889.04 609.7C886.69 607.81 887.15 602.12 888.1 601.65C896.09 601.18 900.79 608.28 889.04 609.7Z" /><path class="shp9" d="M864.12 558.56C860.83 559.51 858.95 560.93 858.48 563.29C862.72 566.61 869.29 567.08 864.12 558.56Z" /><path class="shp9" d="M864.12 516.94C862.24 516.94 859.42 518.36 858.95 522.15C865.07 525.93 869.29 523.09 864.12 516.94Z" /><path class="shp9" d="M852.43 453.97C851.96 455.86 850.08 456.81 849.14 457.28C846.79 454.44 844.44 450.18 846.32 448.76C847.73 447.81 850.55 449.71 852.43 453.97Z" /></g></g><g ><path class="shp2" d="M548.28 620.11C527.6 617.74 510.68 622 498.46 639.04C515.85 631.94 534.18 636.68 548.28 620.11Z" /><path class="shp2" d="M553.45 616.78C528.54 616.3 520.55 640.45 512.08 642.34C544.52 649.44 545.93 617.73 553.45 616.78Z" /><path class="shp2" d="M574.13 611.6C554.39 613.02 547.81 621.07 545.93 626.28C544.52 631.01 542.17 638.59 537.94 640.95C551.1 641.43 568.02 612.55 574.13 611.6L574.13 611.6Z" /><path class="shp2" d="M574.6 609.22C552.98 598.81 530.89 616.32 525.72 616.32C539.82 620.12 557.68 619.17 574.6 609.22Z" /><path class="shp2" d="M592.94 609.22C585.89 612.54 581.65 621.53 574.13 623.43C566.61 624.85 561.44 627.22 558.62 631C563.79 600.23 585.41 613.96 592.94 609.22Z" /><path class="shp2" d="M594.35 606.85C579.3 605.9 571.31 594.54 553.45 601.17C562.38 601.64 568.96 620.11 594.35 606.85Z" /><path class="shp2" d="M555.8 585.08C538.41 570.41 536.06 566.15 513.5 567.56C528.07 580.82 540.29 589.82 555.8 585.08Z" /><path class="shp2" d="M567.55 583.65C540.76 581.76 529.95 581.76 526.19 587.44C521.96 592.65 521.02 601.64 516.32 604.96C526.19 598.33 537 600.7 544.52 597.38C552.98 594.07 561.91 590.28 567.55 583.65Z" /><path class="shp2" d="M553.45 582.7C532.29 577.02 516.32 579.86 503.62 591.22C521.02 590.28 527.6 597.85 553.45 582.7Z" /><path class="shp2" d="M605.62 423.64C599.04 435.95 595.75 456.3 597.63 469.56C609.38 455.36 604.22 426.48 605.62 423.64Z" /><path class="shp2" d="M606.1 449.21C598.57 456.79 591.05 467.2 594.81 485.19C600.92 474.3 603.75 458.68 606.1 449.21Z" /><path class="shp2" d="M593.87 504.63C599.51 485.69 595.75 462.02 587.76 449.72C579.3 478.12 592.46 492.32 593.87 504.63L593.87 504.63Z" /><path class="shp2" d="M595.76 481.44C602.81 491.86 602.34 513.63 592.94 524.99C588.7 508.9 597.16 491.86 595.76 481.44Z" /><path class="shp2" d="M581.19 487.09C576.01 506.5 591.06 530.17 594.35 542C596.7 524.01 594.35 513.6 592.47 508.39C589.65 500.35 582.59 492.77 581.19 487.09Z" /><path class="shp2" d="M533.24 538.23C526.19 530.65 521.49 520.24 520.08 514.55C516.79 500.35 504.57 501.77 499.87 494.67C506.45 517.87 510.68 520.23 515.38 523.54C519.61 526.86 528.54 534.91 530.89 539.16L533.24 538.23Z" /><path class="shp2" d="M543.11 552.91C537.47 537.29 547.34 531.61 523.84 506.99C518.67 524.51 532.77 542.02 543.11 552.91Z" /><path class="shp2" d="M549.22 562.84C544.05 549.59 536.53 537.28 528.54 535.86C520.55 534.44 513.03 537.75 507.86 532.07C513.5 550.53 538.41 544.38 545.46 560L549.22 562.84Z" /><path class="shp2" d="M560.97 573.72C567.08 559.99 557.21 542.95 552.04 533.96C547.34 545.79 546.87 560.95 560.97 573.72Z" /><path class="shp2" d="M562.85 572.77C551.1 558.57 546.4 557.15 538.88 557.15C530.9 557.15 523.37 556.21 519.14 552.89C523.84 568.04 549.22 562.83 559.57 574.66L562.85 572.77Z" /><path class="shp2" d="M548.28 429.35C538.41 445.92 537 465.8 548.76 486.63C547.82 471.95 553.93 464.38 552.52 453.49C550.63 442.13 546.87 435.03 548.28 429.35Z" /><path class="shp2" d="M551.57 489.94C551.57 474.32 559.56 477.16 558.62 460.59C558.15 452.07 556.27 442.6 560.03 436.92C546.4 450.18 544.52 474.8 551.57 489.94Z" /><path class="shp2" d="M529.95 449.21C532.77 467.67 536.06 479.04 541.23 482.82C546.41 487.09 552.04 497.5 554.39 508.39L556.74 508.39C555.33 487.56 550.16 487.56 548.28 474.3C546.4 461.05 531.83 454.89 529.95 449.21L529.95 449.21Z" /><path class="shp2" d="M565.67 524.97C559.56 509.34 574.6 510.29 560.5 480.46C557.21 490.88 550.16 507.45 565.67 524.97Z" /><path class="shp2" d="M565.67 524.97C559.56 506.98 555.8 502.24 550.16 499.4C544.99 496.56 535.59 492.77 533.71 488.51C535.12 502.24 542.17 506.03 548.28 510.29C554.86 514.08 560.03 518.34 565.67 524.97Z" /><path class="shp2" d="M588.7 562.37C577.89 547.69 578.83 534.44 576.01 529.23C573.19 523.55 568.96 517.87 568.96 513.13C561.91 525.44 561.91 543.9 588.7 562.37Z" /><path class="shp2" d="M588.7 562.37C580.24 547.69 556.27 531.6 552.98 523.55C552.98 542.49 566.61 551.96 571.78 554.79C577.42 557.16 581.65 560.47 583.53 562.37C585.41 564.26 591.05 566.63 588.7 562.37Z" /><path class="shp2" d="M581.65 517.89C575.07 528.78 573.66 556.71 598.57 574.22C589.17 554.82 595.29 548.66 590.11 539.19C584.47 529.25 581.19 521.21 581.65 517.89L581.65 517.89Z" /><path class="shp2" d="M599.98 576.1C590.59 565.69 587.29 538.71 599.98 523.56C598.57 535.86 606.1 548.17 603.75 553.38C600.92 558.59 598.11 569.48 599.98 576.1Z" /><path class="shp2" d="M602.33 382.49C601.4 395.75 587.76 415.16 580.24 423.21C582.59 416.11 583.53 409.95 584 405.22C584.47 400.01 594.35 386.28 602.33 382.49Z" /><path class="shp2" d="M573.19 441.66C567.55 425.56 567.08 414.67 569.9 408.52C573.19 402.36 576.49 395.74 576.49 391.95C582.59 410.42 579.3 429.82 573.19 441.66L573.19 441.66Z" /><path class="shp2" d="M607.51 399.97C586.82 411.34 579.78 422.23 576.01 429.8C571.31 439.74 570.84 448.74 572.73 460.57L576.49 458.21C573.2 441.63 574.61 439.74 584.47 431.7C604.22 416.07 600.46 405.66 607.51 399.97L607.51 399.97Z" /><path class="shp2" d="M574.6 488.04C580.71 472.89 582.12 451.11 580.71 441.65C574.6 454.9 568.96 454.9 567.08 467.21C565.2 477.62 573.19 480.46 571.78 488.51L574.6 488.04Z" /><path class="shp2" d="M887.62 629.62C887.62 637.19 884.33 641.93 886.21 645.72C888.09 649.5 889.5 648.56 891.38 646.19C893.73 644.3 895.61 646.19 893.73 649.03C891.85 652.35 893.73 654.71 895.14 656.61C897.02 658.51 899.37 657.09 901.25 655.66C903.13 653.77 903.13 651.88 902.19 650.46C901.25 649.03 902.19 646.67 904.54 644.3C906.42 641.93 907.36 637.2 904.07 636.26C900.79 635.31 897.96 633.41 896.09 627.73L888.1 628.68L887.62 629.62Z" /><path class="shp2" d="M864.12 616.3C877.28 612.99 889.04 612.51 893.26 613.46C897.5 613.93 898.44 616.3 897.5 616.77C896.09 617.25 896.09 619.61 900.79 621.03C905.02 622.92 908.77 626.24 905.96 629.08C903.61 631.92 901.73 633.34 898.44 631.92C894.68 630.5 893.74 629.55 892.8 632.87C891.86 636.18 884.34 637.6 881.99 632.39C879.64 627.66 876.82 618.2 864.12 616.3Z" /><path class="shp2" d="M859.46 621.06C853.82 626.27 852.87 632.89 853.82 635.26C855.23 638.1 856.17 639.52 855.7 641.42C855.22 643.31 856.64 645.2 858.52 643.78C859.93 642.36 860.87 643.78 860.4 645.67C859.92 648.04 862.27 649.93 864.62 648.52C866.97 647.1 868.86 648.04 869.32 650.41C869.8 652.77 877.32 652.3 876.37 648.99C875.43 646.14 875.43 644.25 877.78 643.78C879.67 642.83 880.13 638.57 879.2 633.84C878.26 628.63 871.69 615.85 859.46 621.06L859.46 621.06Z" /><path class="shp2" d="M829.35 608.27C833.58 607.8 835.46 607.33 838.75 604.01C842.03 601.17 848.15 594.54 848.62 591.23C848.62 587.44 851.44 585.55 852.85 585.08C854.73 584.6 856.61 583.65 857.08 581.76C857.56 580.34 859.43 578.45 863.67 578.45C867.43 577.98 870.72 580.34 868.84 583.66C866.49 586.97 864.61 590.76 863.67 596.45C862.73 602.12 855.68 610.18 848.16 610.18C841.1 610.17 834.52 609.69 829.35 608.27L829.35 608.27Z" /><path class="shp2" d="M832.18 609.22C838.29 610.17 843.93 608.75 846.75 605.91C850.04 602.6 851.92 601.18 853.8 603.07C855.68 604.96 858.5 603.55 858.5 598.81C858.03 594.07 859.91 586.97 863.67 588.86C866.96 590.75 868.37 591.71 870.26 586.5C872.61 581.29 878.24 579.87 881.54 582.71C885.3 586.02 885.3 588.86 882.48 591.23C879.66 593.13 878.25 595.02 880.6 595.96C882.48 596.91 882.01 599.28 880.13 600.22C878.25 601.64 874.49 604.01 873.54 606.38C872.61 608.74 871.67 608.74 869.78 608.27C867.43 607.32 866.96 608.27 865.55 609.69C864.14 611.11 863.67 612.53 860.85 612.05C858.5 612.05 854.27 613.95 850.51 613.95C846.76 613.95 836.41 611.59 832.18 609.22L832.18 609.22Z" /><path class="shp2" d="M819.96 605.42C829.83 605.89 839.23 608.73 844.4 612.05C849.57 614.89 858.5 616.78 863.21 616.31C868.38 615.84 876.37 613.95 881.54 621.04C884.36 624.36 883.89 626.25 882.48 626.72C881.07 627.2 880.13 628.14 881.54 630.99C883.42 633.83 883.89 637.14 881.54 638.09C879.19 639.03 876.37 637.61 876.37 635.72C875.89 633.83 874.96 633.35 872.61 635.24C870.26 637.14 867.43 633.82 867.91 630.99C868.85 628.14 868.38 627.2 867.43 625.78C866.96 624.36 864.61 624.83 865.08 627.2C865.56 629.57 864.15 631.46 861.8 630.51C859.45 629.57 857.57 626.25 858.03 623.88C858.51 621.04 860.38 619.15 855.21 618.2C850.04 617.73 845.81 616.31 842.05 613.95C838.76 611.58 824.66 608.27 816.2 608.74L819.96 605.42Z" /><path class="shp2" d="M822.32 583.65C824.2 585.08 822.79 588.39 820.44 589.81C818.57 590.75 818.57 591.7 819.5 595.96C819.98 600.7 813.39 603.06 809.63 601.64C806.34 600.22 805.4 601.64 803.05 604.01C803.05 607.32 803.99 607.8 807.75 608.74C811.51 609.22 817.62 611.58 821.38 610.16C825.62 608.74 830.32 606.38 828.9 603.06C827.97 600.22 829.38 598.8 830.79 596.43C832.2 594.07 832.2 591.7 830.79 588.86C829.38 586.49 828.9 582.7 828.9 580.81C827.97 581.76 824.67 583.65 822.32 583.65L822.32 583.65Z" /><path class="shp2" d="M858.99 439.76C860.86 433.6 865.57 422.71 871.21 421.77C874.5 421.77 876.85 420.82 876.85 419.4C876.37 417.98 877.78 416.56 879.2 416.56C880.61 416.08 881.08 413.72 879.67 411.83C878.26 409.46 878.73 406.15 881.08 405.2C883.9 404.25 885.78 400.94 883.9 398.1C881.55 395.73 876.38 393.84 873.56 400.46C872.15 402.83 871.69 403.77 869.8 402.83C867.92 401.41 862.75 401.88 863.22 407.09C863.69 411.82 866.04 417.97 861.81 424.13C859.46 426.97 857.58 436.44 857.11 438.33L858.99 439.76Z" /><path class="shp2" d="M855.21 441.18C854.73 435.97 851.92 429.82 849.57 427.93C847.22 426.04 843.93 420.83 846.28 417.52C848.16 414.2 849.1 412.31 847.22 411.36C845.34 409.94 843.46 407.1 844.4 405.68C840.17 406.63 838.76 402.84 840.64 400.95C842.05 399.06 842.99 396.69 840.64 394.8C838.29 392.9 839.7 388.64 842.99 387.7C846.27 386.27 849.1 388.17 850.03 391.01C850.51 393.37 851.91 394.8 855.21 396.22C858.5 397.64 861.32 399.53 858.5 406.16C857.08 409.95 857.08 410.89 859.43 411.37C861.78 412.31 863.19 416.58 862.26 420.36C860.85 424.63 858.02 437.41 858.02 440.72L855.21 441.18Z" /><path class="shp2" d="M858.99 444.51C860.4 435.99 854.29 435.99 853.81 427.95C853.34 425.58 851.94 422.74 850.05 423.21C847.7 423.21 847.23 422.74 847.23 419.9C847.23 416.59 845.82 412.32 842.06 413.27C838.3 413.75 837.36 412.79 836.42 410.43C835.48 408.06 831.25 407.59 828.43 410.43C825.14 412.79 821.38 420.37 829.84 419.42C833.6 418.95 835.48 419.42 833.6 421.32C831.73 423.68 830.78 428.42 836.89 428.89C839.71 429.37 842.06 429.37 844.41 430.78C840.65 431.73 840.65 434.09 843.48 435.52C846.3 436.94 852.87 437.88 853.81 444.51C855.69 444.51 856.64 444.04 858.99 444.51L858.99 444.51Z" /><path class="shp2" d="M877.76 440.71C885.75 432.19 893.27 426.5 902.67 428.87C906.43 429.81 905.96 429.81 904.55 431.23C903.61 432.66 904.55 434.08 907.38 435.49C909.73 437.39 911.6 441.65 910.2 443.07C909.26 444.49 907.38 445.43 905.03 443.07C903.14 440.7 902.68 442.12 902.68 444.01C902.68 446.38 903.61 447.32 900.33 446.85C897.5 446.38 895.63 445.91 893.75 446.38C891.87 446.85 890.46 446.38 890.46 443.54C890.46 441.17 886.23 439.75 881.06 444.01L877.76 440.71Z" /><path class="shp2" d="M869.79 470.5C872.14 466.23 877.31 461.5 879.66 459.61C882.48 457.72 884.36 454.4 882.01 452.98C879.66 452.03 878.72 449.19 881.54 447.3C884.83 444.93 885.77 442.09 883.89 441.15C882.48 440.2 881.54 439.26 882.48 437.83C883.42 436.89 882.96 435.94 881.54 434.52C880.13 433.58 880.61 432.16 881.54 430.73C882.48 428.84 881.54 426.95 877.31 428.84C873.08 431.21 871.67 434.05 871.67 436.42C871.67 438.31 872.15 439.26 868.85 440.21C865.56 441.15 865.09 445.42 866.03 447.31C867.44 449.2 868.38 450.62 870.73 451.09C873.08 451.57 873.55 454.41 870.73 453.46C867.91 452.52 864.62 452.99 866.03 456.77C867.91 460.56 865.09 464.35 866.5 467.66L869.79 470.5Z" /><path class="shp2" d="M891.87 515.99C896.57 512.2 899.39 500.84 898.45 496.1C900.8 495.63 902.22 495.63 903.63 496.58C905.98 489.48 907.39 480.96 914.91 488.53C922.9 483.8 926.66 483.8 929.48 484.27C932.77 484.27 933.71 489.95 930.89 494.21C927.13 500.84 903.15 516.46 891.87 515.99Z" /><path class="shp2" d="M874.51 524.97C881.56 520.7 890.5 516.92 897.08 521.18C903.66 525.43 911.65 528.75 915.41 526.39C919.64 524.02 922.93 523.07 926.69 523.54C929.98 524.49 932.8 523.54 933.74 521.65C934.68 519.76 934.68 518.34 937.5 517.39C940.79 516.91 940.79 509.34 929.04 509.81C927.63 506.5 929.52 505.55 931.87 502.71C934.22 499.87 936.09 497.04 932.8 494.19C929.52 491.35 920.58 495.61 917.29 500.35C913.53 505.08 912.59 505.56 913.06 501.77C914 498.46 910.71 497.98 908.36 502.24C906.01 506.03 903.19 511.24 898.49 512.66C894.26 514.08 880.63 518.34 874.52 522.6L874.52 524.97L874.51 524.97Z" /><path class="shp2" d="M874.51 524.97C879.69 522.6 885.32 516.44 885.32 513.6C885.32 510.76 887.67 507.92 890.5 506.03C893.78 504.14 895.67 500.35 893.78 498.45C891.91 496.08 891.91 493.72 894.72 492.77C897.54 491.35 899.42 488.51 898.01 486.62C896.6 484.73 895.66 480.94 896.6 478.57C898.01 476.68 893.78 474.31 889.55 478.1C885.79 481.41 885.79 487.09 886.73 489.93C887.67 492.77 884.38 492.3 882.03 491.82C885.32 486.61 884.85 482.35 881.09 479.99C877.33 477.15 876.39 479.04 873.57 482.83C871.69 485.2 871.22 487.56 872.16 488.98C873.1 490.88 872.63 492.3 870.75 493.72C868.86 495.61 868.4 497.51 870.75 499.4C873.1 501.76 872.62 502.71 870.27 505.55C867.45 507.92 868.4 511.7 869.8 514.55C871.21 517.39 871.68 520.23 871.21 523.07C872.63 523.54 874.51 524.97 874.51 524.97L874.51 524.97Z" /><path class="shp2" d="M845.35 550.53C845.35 546.75 846.29 541.07 848.17 539.17C852.87 534.91 849.11 529.23 852.4 526.39C855.22 523.07 855.22 520.71 852.4 521.18C849.58 521.18 850.05 519.29 852.4 516.44C854.75 513.6 854.75 511.71 852.87 510.77C851.46 509.82 847.24 511.24 845.35 514.55C846.29 511.24 846.76 507.45 848.64 505.56C850.52 503.19 850.52 499.88 847.7 498.93C844.41 497.51 837.83 500.35 841.59 510.29C840.65 507.92 838.77 508.4 836.42 512.19C834.54 515.5 835.01 517.4 836.89 519.76C838.77 521.65 839.24 523.55 837.83 525.44C836.42 527.81 837.36 530.17 839.71 532.54C842.06 534.91 842.54 537.27 842.06 541.06C841.59 544.37 842.06 548.16 842.54 551.95L845.35 550.53Z" /><path class="shp2" d="M822.32 583.65C824.67 583.65 827.96 581.76 828.9 580.81C831.73 577.97 831.25 574.18 834.08 571.82C836.43 569.92 836.9 567.08 836.43 564.72C836.43 562.83 836.9 560.45 838.3 559.04C839.24 557.62 838.78 554.3 836.43 552.41C834.08 550.05 833.6 547.68 835.95 545.31C838.3 542.95 835.48 540.58 833.6 541.06C831.25 542 829.38 542.48 827.02 540.11C824.2 537.74 823.26 541.06 824.67 543.42C825.61 546.26 821.85 545.79 824.2 548.63C825.14 550.05 825.62 551.94 826.55 553.84C822.32 551.47 820.44 556.68 821.85 561.42C823.27 566.15 823.27 570.41 821.38 572.78C819.5 575.13 817.62 578.45 822.32 583.65Z" /><path class="shp2" d="M867.43 571.35C871.19 570.4 878.24 573.71 880.59 577.5C883.41 581.29 886.7 584.6 889.05 583.18C890.93 581.76 893.75 581.29 896.1 583.18C897.98 585.55 901.27 586.02 903.15 584.6C904.56 583.65 905.97 583.18 908.32 584.6C911.14 585.55 917.72 586.49 913.49 576.08C911.14 569.46 872.59 560.93 867.43 571.35L867.43 571.35Z" /><path class="shp2" d="M869.32 568.49C871.67 562.34 876.37 559.03 878.72 559.03C880.6 559.03 881.54 558.55 882.01 557.13C882.48 555.71 885.77 553.35 888.59 554.77C891.41 556.19 892.82 555.71 892.82 553.82C893.29 551.46 895.64 548.61 903.63 551.46C911.15 554.77 915.38 556.66 905.04 564.24C900.34 567.55 874.02 569.91 869.32 568.49Z" /><path class="shp2" d="M868.37 566.65C870.72 564.76 873.07 564.76 874.48 565.23C875.89 565.23 878.24 564.28 880.59 562.86C882.94 560.97 885.77 561.44 887.64 562.38C889.52 563.33 893.28 563.33 895.17 561.91C897.05 560.49 900.8 559.54 903.15 561.91C905.03 564.28 907.39 564.75 910.68 564.28C913.5 563.8 915.38 564.28 918.2 567.59C921.02 570.9 921.02 572.8 916.32 576.11C912.09 578.95 910.68 578.95 907.86 576.11C905.04 572.8 902.69 571.85 902.69 575.63C902.69 578.95 899.4 579.42 895.17 577.05C891.4 575.16 881.53 566.17 867.43 571.38C867.43 570.44 868.85 568.07 868.37 566.65L868.37 566.65Z" /></g><g ><path class="shp7" d="M574.6 524.97C569.9 524.97 569.9 531.6 574.6 531.6C579.3 531.6 579.3 524.97 574.6 524.97Z" /><path class="shp7" d="M571.31 573.72C566.61 573.72 566.61 580.82 571.31 580.82C576.01 580.82 576.01 573.72 571.31 573.72Z" /><path class="shp7" d="M603.27 564.27C598.57 564.27 598.57 571.37 603.27 571.37C607.98 571.37 607.98 564.27 603.27 564.27Z" /></g></g><g ><path class="shp4" d="M714.69 640.03C701.53 634.82 688.84 630.08 681.31 630.08C674.26 630.56 667.21 630.08 660.16 627.72C653.58 624.87 643.7 626.77 639.95 630.56C636.19 634.35 633.84 637.18 638.07 641.45C627.26 638.13 622.08 637.18 617.38 633.4C612.21 629.61 605.16 627.72 598.58 627.72C588.71 627.72 580.72 618.26 571.79 618.26C576.49 627.25 585.89 631.99 592.94 635.77C576.49 637.19 561.45 636.72 555.34 633.88C561.92 637.67 566.15 640.51 569.91 643.35C573.67 645.72 577.9 647.61 586.36 646.66C594.35 645.72 601.41 646.19 604.22 650.92C607.51 655.18 607.98 657.07 617.86 660.86C627.73 665.12 631.96 665.12 634.78 674.12C637.13 682.64 640.42 692.58 647.94 697.79C655.46 703.47 661.1 701.1 663.45 694C665.8 687.37 666.27 682.17 667.68 678.38C678.02 681.22 684.13 681.22 685.54 672.7C686.95 663.7 689.77 659.45 691.65 656.13C708.1 659.44 726.9 661.81 736.77 658.49C739.12 663.7 737.71 669.86 741.94 674.59C746.17 678.85 752.28 679.32 756.98 678.38C761.68 684.06 756.51 689.74 764.03 695.42C771.55 701.1 777.66 695.9 781.89 687.38C786.12 678.85 791.76 665.12 806.33 659.45C815.27 656.13 823.25 651.4 826.08 648.08C828.9 644.77 834.06 642.4 839.71 640.51C845.35 638.62 851.93 632.46 854.75 626.31C847.7 625.83 846.29 627.25 841.59 630.57C836.41 633.88 833.13 633.88 829.36 634.36C825.6 634.83 819.03 635.78 815.73 639.57C822.78 632.47 828.89 633.41 834.06 628.2C838.76 623.47 841.11 621.57 845.35 621.1C849.58 620.63 852.87 619.21 854.75 618.26C846.29 616.37 839.71 616.37 832.65 621.1C825.13 625.84 810.56 632.94 805.39 633.88C800.22 635.3 796.46 635.77 792.7 637.67C795.05 629.15 785.18 623.47 775.31 626.31C764.97 628.67 741.94 634.35 734.88 634.83C727.38 635.29 721.74 637.19 714.69 640.03L714.69 640.03Z" /><g ><path class="shp5" d="M592.94 635.74C599.05 637.17 606.1 640.95 609.39 642.84" /><path class="shp5" d="M654.51 700.62C658.74 699.67 664.38 693.04 657.33 688.31C650.28 683.1 646.52 682.15 648.4 676.48C650.28 670.32 659.21 672.21 666.73 674.11C673.78 676.48 682.24 676.95 682.71 672.69C683.65 667.96 678.01 666.53 670.96 666.53C664.38 666.53 660.63 666.06 657.33 665.59C654.04 665.12 650.75 663.22 648.87 658.49C646.99 653.28 643.23 645.7 638.06 641.45" /><path class="shp5" d="M667.69 678.38C659.23 676.48 653.59 676.01 652.18 678.38C651.24 680.75 653.59 682.17 656.88 684.06C660.64 685.95 664.87 689.27 663.93 693.05" /><path class="shp5" d="M691.66 656.08C681.33 653.71 669.1 650.87 661.58 651.35C654.06 651.82 650.3 654.66 651.71 658.45C653.59 662.71 657.82 662.71 664.4 662.71C674.74 663.19 687.44 663.66 686.03 671.71" /><path class="shp5" d="M736.77 658.46C743.82 656.57 758.39 649.94 767.32 649.94C772.02 649.94 777.2 651.36 777.2 655.62C777.2 659.87 771.56 662.72 763.1 662.25C751.81 661.3 736.78 669.82 742.89 675.5" /><path class="shp5" d="M765.46 695.86C762.18 693.96 766.88 688.29 770.16 686.39C773.93 684.5 778.15 681.66 776.75 676.45C775.34 671.24 767.35 671.72 763.11 673.61C758.89 675.03 754.18 675.03 750.43 674.56C746.19 674.08 746.19 672.66 749.02 670.29C751.37 667.93 759.83 665.08 768.76 665.56C777.69 666.03 780.98 661.77 782.39 655.62C783.33 649.46 788.97 641.89 792.73 637.63" /><path class="shp5" d="M756.96 678.38C763.55 676.96 767.3 674.59 770.6 676.01C773.88 676.96 775.29 680.28 770.6 682.64C766.36 685.01 759.31 688.32 761.66 692.58" /><path class="shp5" d="M767.29 665.53C768.23 666.48 772.47 671.69 773.41 673.11" /></g><g ><path class="shp5" d="M636.65 673.15L637.59 676.48" /><path class="shp5" d="M639 672.67C639.47 673.62 640.88 675.98 641.35 676.46" /><path class="shp5" d="M644.64 677.43C643.23 676.01 641.35 671.75 640.88 670.33" /><path class="shp5" d="M643.23 667.44C644.17 669.8 647.93 675.48 648.4 676.43" /><path class="shp5" d="M645.11 666.01C646.05 667.43 648.4 672.16 649.81 673.11" /><path class="shp5" d="M647.93 665.53C649.34 666.96 652.17 669.79 654.04 670.74C654.98 670.27 656.86 667.43 657.8 666.01" /><path class="shp5" d="M647.46 660.84C648.87 662.73 653.57 667.47 655.45 668.41" /><path class="shp5" d="M640.41 655.13C641.35 656.07 642.76 657.97 643.23 658.92" /><path class="shp5" d="M642.76 654.18L644.64 656.56" /><path class="shp5" d="M637.59 659.89L639 661.31" /><path class="shp5" d="M636.18 661.79L637.12 662.74" /><path class="shp5" d="M641.35 684.5C641.82 687.82 648.87 697.76 654.04 699.65" /><path class="shp5" d="M644.64 684.5C646.52 687.82 654.51 697.29 657.8 698.23" /><path class="shp5" d="M650.28 687.36C652.16 689.72 657.8 695.88 659.21 696.35" /><path class="shp5" d="M655.45 690.15C656.86 691.1 659.21 692.52 660.63 692.99" /><path class="shp5" d="M657.33 670.29C658.27 670.29 661.09 670.77 661.09 670.77" /><path class="shp5" d="M658.27 667.91C659.21 667.91 662.03 668.39 662.03 668.39" /><path class="shp5" d="M667.69 668.39C667.69 668.39 669.57 668.86 670.52 668.86" /><path class="shp5" d="M667.69 670.29C667.69 670.29 669.57 670.77 670.04 670.77" /><path class="shp5" d="M667.22 672.19C667.22 672.19 669.1 672.67 670.04 672.67" /><path class="shp5" d="M675.66 670.29C677.07 670.77 680.84 671.24 682.71 672.66" /><path class="shp5" d="M675.19 672.67C677.07 672.67 679.89 673.62 681.3 673.62" /><path class="shp5" d="M686.94 664.64C680.83 660.38 662.03 657.07 654.04 660.86" /><path class="shp5" d="M688.36 661.31C679.42 657.53 662.98 654.21 652.17 658.95" /><path class="shp5" d="M651.22 656.08C656.39 654.66 670.49 651.82 690.23 658.45" /><path class="shp5" d="M785.18 632.89C787.06 633.84 790.36 635.26 791.29 639.04" /><path class="shp5" d="M785.18 637.65C787.06 638.59 788.95 640.49 788.95 641.9" /><path class="shp5" d="M784.71 640.92C785.65 641.39 787.53 642.81 787.53 643.76" /><path class="shp5" d="M782.35 644.25C783.76 644.72 785.64 645.67 786.11 646.61" /><path class="shp5" d="M781.41 648.05C782.34 648.53 783.76 649.94 783.76 650.42" /><path class="shp5" d="M780.05 651.38C780.99 651.86 781.93 655.17 781.93 656.59" /><path class="shp5" d="M781.88 657.03C784.23 655.61 790.81 651.82 794.1 651.35" /><path class="shp5" d="M794.57 648.05C792.22 648.53 785.64 650.9 783.29 653.26" /><path class="shp5" d="M791.27 645.67C789.38 646.15 786.09 648.04 785.15 649.46" /><path class="shp5" d="M792.68 641.87C790.8 642.81 788.46 643.76 787.04 644.71" /><path class="shp5" d="M785.66 660.84L787.55 659.41" /><path class="shp5" d="M791.27 656.56L792.68 655.13" /><path class="shp5" d="M788.96 661.79L795.52 657.51" /><path class="shp5" d="M788.02 665.12L795.52 660.36" /><path class="shp5" d="M788.96 668.39C790.37 666.02 796.95 662.23 797.9 660.81" /><path class="shp5" d="M761.69 658.46C761.69 658.46 763.1 658.93 764.04 659.4" /><path class="shp5" d="M761.21 656.56L764.5 656.56" /><path class="shp5" d="M760.27 654.24L764.97 654.24" /><path class="shp5" d="M747.1 672.67C748.51 671.72 751.34 670.78 752.74 670.78" /><path class="shp5" d="M749.94 673.62C751.35 673.62 753.23 672.68 754.16 672.68" /><path class="shp5" d="M770.13 668.86C772.95 667.44 779.53 662.23 783.29 661.29" /><path class="shp5" d="M783.77 664.64C780.95 665.12 775.31 668.9 772.48 671.27" /><path class="shp5" d="M775.32 673.62C777.21 672.2 781.91 667.94 784.26 666.99" /><path class="shp5" d="M784.71 669.82C782.36 671.24 779.07 675.97 777.19 677.39" /><path class="shp5" d="M786.13 672.19C780.49 675.51 777.67 688.77 764.51 693.5" /><path class="shp5" d="M784.71 676.48C780.95 685 774.37 694.94 765.44 695.88" /></g></g><g ><path class="shp6" d="M653.1 631.94C652.16 632.41 651.69 634.31 653.57 633.84C653.57 633.84 654.04 633.84 654.04 634.78C654.51 635.73 654.98 642.83 654.98 643.3C654.98 643.78 654.98 644.72 654.51 644.72C653.57 645.2 653.1 646.61 654.98 646.61C656.39 646.14 660.15 646.14 662.03 646.14C662.97 646.14 663.91 645.66 664.38 644.72C664.38 644.24 664.85 642.83 664.85 641.87C664.85 641.4 663.44 640.93 662.98 642.35C662.04 644.72 660.63 644.25 659.69 644.25C658.28 644.25 658.28 643.3 658.28 642.35C658.28 641.4 657.34 635.73 657.34 634.31C656.86 633.36 657.34 633.36 657.81 632.88C658.75 632.41 658.75 630.99 657.34 630.99C655.92 630.99 654.04 631.47 653.1 631.94L653.1 631.94Z" /><path class="shp6" d="M668.17 631.94C667.23 631.94 666.29 632.41 667.23 633.36C668.17 633.84 668.64 633.84 668.64 634.78L668.64 642.83C668.64 643.77 669.11 644.25 668.17 644.72C667.69 644.72 667.23 646.61 668.64 646.14C670.05 646.14 670.52 646.61 671.93 646.61C672.86 646.61 673.34 645.19 672.4 644.72C671.46 644.25 671.93 643.78 671.93 642.83L671.93 634.79C671.93 634.31 671.93 633.84 672.4 633.84C672.87 633.37 673.34 632.42 671.93 632.42C670.52 631.94 669.58 631.94 668.17 631.94L668.17 631.94Z" /><path class="shp6" d="M681.8 644.72L681.8 642.83C686.98 643.77 688.85 645.67 687.91 647.56C687.44 648.98 684.15 648.04 681.33 646.61C681.33 646.14 681.33 645.2 681.8 644.72L678.04 643.78C678.04 644.72 678.04 645.2 677.57 645.67C676.63 646.14 675.69 647.56 677.1 647.56C679.45 648.5 682.74 649.93 684.15 650.4C686.03 650.88 688.85 650.88 690.26 649.46C691.2 648.04 690.73 645.2 688.85 643.78C690.73 642.36 691.2 639.04 689.32 637.62C687.44 635.73 683.21 634.31 678.98 633.84C677.1 633.36 676.63 634.78 678.04 635.73C678.52 636.2 678.98 636.67 678.98 637.62L682.27 638.1L682.27 636.68C684.15 637.15 686.5 637.62 687.44 638.57C688.85 639.99 688.38 641.88 686.5 641.88C685.56 641.4 683.21 640.94 681.8 640.46C682.28 639.51 682.28 638.57 682.28 638.09L678.99 637.62C678.52 639.51 678.05 643.3 678.05 643.77L681.8 644.72Z" /><path class="shp6" d="M699.16 638.6C696.81 637.65 695.87 640.02 696.81 640.96C697.28 641.44 697.75 641.91 697.28 642.86C696.81 644.28 695.87 648.06 695.87 649.01C695.4 649.96 695.4 650.43 694.46 650.43C693.05 650.43 692.11 652.32 693.99 652.8C696.81 653.27 701.98 654.69 703.39 655.16C704.33 655.64 705.27 655.64 705.74 655.16C706.68 654.69 707.15 654.22 708.09 653.74C708.56 653.27 707.62 651.38 706.68 652.32C705.74 652.8 705.27 653.74 704.33 653.27C702.92 652.79 700.09 651.85 699.16 651.85C698.22 651.37 698.68 650.9 699.16 649.95C699.16 649.47 699.63 647.58 699.63 647.11C700.1 646.63 700.1 646.63 701.04 647.11C701.51 647.11 701.98 647.11 701.98 647.58L703.39 649C703.86 649.48 704.8 649.48 704.8 648.53C704.8 647.58 704.33 646.16 703.86 645.69C703.86 645.21 702.92 644.27 702.45 645.21C701.98 645.69 701.51 645.69 701.04 645.21C700.1 645.21 700.57 644.73 700.57 644.27C701.04 644.27 701.04 642.84 701.04 642.37C701.04 641.9 701.51 641.9 701.98 642.37C702.92 642.37 704.8 643.32 705.27 643.32C705.74 643.8 706.21 643.8 706.21 644.27C706.21 644.74 706.68 645.21 707.14 645.69C707.62 647.11 708.56 646.63 708.56 645.69L708.56 642.84C708.08 642.37 707.62 641.42 707.14 641.42C706.21 641.9 705.73 641.42 704.79 641.42C702.45 640.5 700.57 639.54 699.16 638.6L699.16 638.6Z" /><path class="shp6" d="M715.16 645.67L715.16 643.78C717.98 643.78 720.8 643.78 720.8 645.67C720.33 647.57 717.51 647.57 715.16 647.1L715.16 645.67L712.34 645.67C712.34 647.57 711.87 651.35 711.87 653.25C711.87 653.73 711.87 654.2 711.39 654.2C710.46 654.2 709.98 656.09 711.39 656.09C712.81 656.09 714.68 656.09 715.63 656.56C716.57 656.56 716.57 655.14 716.1 655.14C715.16 654.67 714.69 654.67 714.69 654.2L714.69 649.46C714.69 648.52 715.63 648.99 716.1 648.99L717.51 648.99C717.98 648.99 718.45 648.99 718.92 649.93C719.86 651.83 721.27 654.67 721.74 655.14C722.22 656.09 722.68 656.09 723.16 656.09L725.51 656.09C725.98 656.09 726.44 654.67 725.51 654.67C723.63 654.19 723.16 653.72 723.16 652.77C722.68 652.3 721.28 649.46 720.81 648.99C722.68 648.04 723.63 645.67 723.16 644.25C722.68 642.36 720.81 641.41 718.93 641.41C716.58 641.41 713.29 641.89 711.88 641.89C710 641.89 710 644.25 711.41 644.25C711.88 644.25 712.35 644.25 712.35 644.73L712.35 645.67L715.16 645.67Z" /><path class="shp6" d="M727.86 643.77C726.92 645.19 728.32 646.14 728.79 645.19C729.27 644.72 729.73 643.77 730.21 643.3C730.68 642.83 731.62 642.83 732.08 642.83C732.56 642.83 733.02 642.83 733.02 643.77L733.02 650.87C733.02 651.82 733.02 652.29 732.08 653.24C731.14 653.71 731.14 655.13 732.56 654.66C733.97 654.18 736.79 653.71 737.73 653.71C738.67 653.71 739.14 652.77 737.73 652.29C736.79 651.82 735.85 651.82 735.85 650.4L735.85 642.83C735.85 641.88 736.79 641.88 737.73 641.4C738.67 641.4 739.14 641.4 740.08 642.35C740.55 643.3 741.49 643.77 741.96 643.77C742.43 643.3 742.9 642.83 741.96 641.4C741.96 640.93 741.02 639.98 741.02 639.51C740.55 639.03 739.61 638.56 737.73 639.03C735.86 639.98 731.62 640.45 730.68 640.45C729.74 640.45 729.27 640.93 728.81 641.4C728.32 641.88 727.86 642.83 727.86 643.77L727.86 643.77Z" /><path class="shp6" d="M753.72 642.34C751.37 642.82 752.3 642.82 752.78 639.98C753.72 637.61 753.72 638.09 755.6 640.45C757.47 641.87 756.07 641.87 753.72 642.34L754.65 643.77C755.59 643.77 756.07 643.29 756.54 643.29C757.48 643.29 757.48 643.29 757.95 643.77L759.36 645.19L759.36 646.13C758.89 646.61 758.89 647.55 759.36 647.55C760.3 647.55 763.12 647.08 764.06 647.08C765 647.08 765.47 646.13 764.06 645.66C763.12 645.18 762.65 645.66 761.71 644.71C760.3 642.82 758.89 640.45 757.01 638.08C756.54 637.61 756.54 637.14 757.01 636.66C757.95 636.66 757.95 636.18 759.36 636.66C760.77 637.61 761.71 637.14 760.77 635.71C759.36 634.29 758.42 634.29 756.54 634.77C755.13 635.24 751.84 636.66 749.02 637.61C748.08 638.09 747.61 638.56 747.14 639.98C747.14 641.4 748.08 641.87 748.56 640.45C749.03 639.51 749.49 639.51 749.97 639.03C749.97 639.03 750.43 639.03 750.43 639.98C749.97 640.45 748.56 646.61 748.08 647.55C748.08 648.5 746.67 648.5 746.21 648.97C744.79 649.45 744.79 650.87 746.21 650.87C747.62 650.39 749.97 649.92 750.91 649.44C751.84 649.44 751.38 648.5 750.91 648.02C750.43 648.02 749.97 647.08 750.43 646.13C750.91 644.71 751.37 644.71 752.32 644.71C752.79 644.24 753.73 644.24 754.67 643.77L753.72 642.34Z" /><path class="shp6" d="M781.41 633.84C781.88 632.9 780.47 631.47 779.06 632.9C778.58 633.37 778.12 633.37 776.71 632.9C774.36 632.42 770.6 632.9 769.66 635.26C768.72 637.63 770.6 640 773.88 640C777.17 639.52 777.17 641.89 776.71 642.84C776.23 644.73 773.42 644.26 772.01 643.78C770.6 643.78 771.07 643.31 770.13 641.89C769.66 640.95 768.72 640.95 768.25 642.37C767.78 643.79 767.31 645.21 767.31 646.16C767.31 646.63 767.78 647.58 768.72 646.63C770.13 645.69 770.13 645.21 771.07 645.69C772.48 646.63 777.18 647.58 779.06 644.74C780.94 641.9 779.53 638.59 776.71 638.11C773.42 637.64 773.42 636.22 773.89 635.74C774.36 634.8 775.77 634.8 777.18 635.27C777.65 635.74 778.12 635.74 778.12 636.69C778.12 637.17 779.53 637.64 780 636.69C780.46 635.74 780.46 635.26 781.41 633.84Z" /></g><g ><path class="shp5" d="M846.29 396.17C849.58 402.32 857.1 426.47 857.1 433.57" /><path class="shp5" d="M837.85 418.94C843.02 423.68 850.54 433.14 852.42 435.99" /><path class="shp5" d="M874.51 406.63C870.75 410.9 866.99 421.79 863.23 425.57" /><path class="shp5" d="M883.9 439.28C889.54 435.49 898 432.66 903.17 437.86" /><path class="shp5" d="M877.76 444.51C877.76 453.51 870.24 462.5 869.3 467.71" /><path class="shp5" d="M837.85 449.69C835.97 452.53 834.09 453.95 834.09 455.84C833.62 457.26 828.45 457.26 825.15 456.79" /><path class="shp5" d="M836.43 463.42C834.08 464.37 831.73 466.26 831.26 469.58" /><path class="shp5" d="M835.49 475.73C834.08 478.57 833.6 482.36 834.55 484.73C835.49 486.62 835.49 488.98 834.55 490.88C833.14 492.3 832.2 497.51 832.67 499.88" /><path class="shp5" d="M882.01 492.32C880.13 494.69 880.13 497.53 881.07 499.9C881.54 502.74 881.54 507.94 879.2 511.73C876.85 515.04 874.5 519.77 874.02 523.56" /><path class="shp5" d="M928.06 509.8C926.65 512.17 925.24 513.11 922.89 512.64C920.07 512.17 916.31 512.64 913.49 515.01" /><path class="shp5" d="M904.09 519.73L905.04 522.11" /><path class="shp5" d="M907.4 520.21L908.82 522.11" /><path class="shp5" d="M910.23 519.73L912.12 522.59" /><path class="shp5" d="M913.48 519.73L915.37 521.64" /><path class="shp5" d="M924.34 518.84L926.65 521.16" /><path class="shp5" d="M927.59 517.89L929.48 519.73" /><path class="shp5" d="M916.31 511.23L917.26 512.66" /><path class="shp5" d="M918.68 510.28L919.62 512.18" /><path class="shp5" d="M922.93 512.66L921.04 509.8" /><path class="shp5" d="M927.59 509.33L923.87 508.38" /><path class="shp5" d="M928.06 506.53L924.82 506.06" /><path class="shp5" d="M914.9 495.59L916.79 496.54" /><path class="shp5" d="M917.26 493.69L919.62 494.64" /><path class="shp5" d="M920.09 492.32L922.45 493.27" /><path class="shp5" d="M907.87 497.49L911.65 498.92" /><path class="shp5" d="M906.93 500.82L908.82 501.77" /><path class="shp5" d="M901.73 503.68L906.93 503.68" /><path class="shp5" d="M901.73 506.53C901.73 506.53 903.61 507.01 905.02 506.53" /><path class="shp5" d="M847.71 524.01L849.13 523.06" /><path class="shp5" d="M850.54 528.3L847.71 528.3" /><path class="shp5" d="M846.76 531.62C848.17 531.15 849.11 531.62 850.05 532.57" /><path class="shp5" d="M849.13 537.27C849.13 537.27 847.24 535.38 846.3 535.85" /><path class="shp5" d="M844.87 538.7L846.29 539.18" /><path class="shp5" d="M913.01 569.92C908.31 567.08 900.79 568.5 897.96 567.08C894.68 565.66 884.8 565.66 881.51 566.6" /><path class="shp5" d="M843.46 611.6C851.92 611.13 866.96 606.39 875.89 592.19" /><path class="shp5" d="M830.29 556.18C832.17 563.76 824.65 571.33 825.59 575.59" /><path class="shp5" d="M818.54 547.68C818.07 549.1 818.07 552.89 818.54 554.31" /><path class="shp5" d="M815.71 552.44C815.24 556.7 815.71 565.22 819.47 569.48" /><path class="shp5" d="M812.93 559.99C813.41 561.89 815.28 566.14 816.22 567.56" /><path class="shp5" d="M811.04 560.94C811.52 564.73 814.33 569.46 816.22 571.35" /><path class="shp5" d="M809.63 566.65C810.57 568.07 811.98 570.44 812.92 571.38" /><path class="shp5" d="M827.99 581.75C827.05 584.12 826.11 587.91 826.58 589.33" /><path class="shp5" d="M825.63 582.7C825.63 584.59 824.69 586.49 824.22 587.91" /><path class="shp5" d="M818.07 577.53C817.13 578.01 817.13 578.95 816.66 579.9" /><path class="shp5" d="M819.49 580.38C811.5 584.65 807.74 588.43 806.33 591.27C804.45 593.64 802.1 597.9 799.75 600.27" /><path class="shp5" d="M795.99 592.63C798.81 591.69 803.51 591.21 806.33 591.21" /><path class="shp5" d="M798.35 587.46C802.11 587.46 806.34 587.46 808.22 587.94" /><path class="shp5" d="M816.18 576.58C814.77 577.52 813.36 578.47 812.89 579.42" /><path class="shp5" d="M812.93 576.58C811.52 577.52 808.71 579.89 808.71 579.89" /><path class="shp5" d="M806.79 578.48C805.85 579.9 803.5 582.75 803.5 582.75" /><path class="shp5" d="M799.29 581.28C801.17 581.28 803.06 578.43 804.47 578.43" /><path class="shp5" d="M821.38 603.1C821.38 603.1 824.2 602.15 825.14 601.68" /><path class="shp5" d="M825.63 598.82C826.57 597.87 826.57 594.55 827.04 593.14" /><path class="shp5" d="M789.44 616.3C795.07 615.82 800.72 617.25 804.48 620.56C807.77 623.87 812 627.66 814.35 628.6" /><path class="shp5" d="M810.57 619.15C813.39 621.05 813.86 622.94 815.74 622.94C817.63 622.94 819.5 623.42 820.44 623.89" /><path class="shp5" d="M823.27 621.53C821.85 620.59 820.44 620.11 819.03 620.11" /><path class="shp5" d="M803.96 615.88L807.27 617.25" /><path class="shp5" d="M805.38 624.86C805.38 625.81 806.79 628.17 807.73 628.65" /><path class="shp5" d="M825.63 475.25C827.5 475.25 831.74 474.78 831.74 474.78" /><path class="shp5" d="M821.85 451.59C821.85 451.59 825.61 451.59 827.96 450.64" /><path class="shp5" d="M824.68 502.73C825.62 503.67 828.92 506.51 830.32 506.98" /><path class="shp5" d="M826.1 496.54L830.76 495.59" /><path class="shp5" d="M825.15 492.32C826.57 491.84 831.27 491.84 831.27 491.84" /><path class="shp5" d="M825.15 490.42C826.57 489.47 831.74 487.58 831.74 487.58" /><path class="shp5" d="M825.63 487.09C827.98 486.14 830.33 483.78 831.27 481.88" /><path class="shp5" d="M835.49 460.09C835.49 460.09 832.2 460.57 831.25 459.62" /><path class="shp5" d="M830.76 443.56L832.65 444.99" /><path class="shp5" d="M820.43 446.83C821.37 446.36 824.66 445.89 825.6 445.41" /><path class="shp5" d="M819.96 443.09C820.9 442.14 823.72 442.14 823.72 442.14" /><path class="shp5" d="M824.21 510.75C824.68 512.17 827.5 514.54 827.5 514.54" /><path class="shp5" d="M825.63 507.42C826.1 508.84 828.92 511.21 828.92 511.21" /><path class="shp5" d="M835.01 456.82L837.38 456.82" /><path class="shp5" d="M859.46 619.15C864.63 619.63 872.15 620.58 876.38 626.73" /></g><g ><g ><path class="shp11" d="M716.11 430.78C719.39 433.14 735.85 441.66 749.95 450.18C744.31 445.45 748.54 413.73 753.71 406.63C745.72 409.47 716.11 427.46 716.11 427.46C716.11 427.46 686.96 409.47 678.5 406.63C683.68 413.73 687.9 445.45 682.26 450.18C696.36 441.67 712.81 433.14 716.11 430.78Z" /><path class="shp11" d="M716.11 421.26C703.88 421.26 703.88 434.99 716.11 434.99C728.33 434.99 728.33 421.26 716.11 421.26Z" /><path class="shp11" d="M716.11 439.76C719.87 439.76 719.87 441.18 719.87 428.87C719.87 417.03 719.87 417.98 716.11 417.98C712.35 417.98 712.35 417.03 712.35 428.87C712.35 441.18 712.35 439.76 716.11 439.76Z" /><path class="shp11" d="M716.11 631.46C779.09 600.22 828.92 491.33 777.21 445.89C763.58 460.56 739.14 452.52 739.14 429.32C739.14 406.59 763.11 400.44 777.68 404.7C833.62 422.22 845.84 489.44 813.87 551.93C784.26 609.69 748.54 629.1 716.1 640.46C683.67 629.1 647.94 609.69 618.33 551.93C586.36 489.44 598.59 422.22 654.52 404.7C669.09 400.44 693.06 406.59 693.06 429.32C693.06 452.52 668.62 460.56 654.99 445.89C607.99 504.59 653.12 600.22 716.11 631.46Z" /></g><path class="shp5" d="M777.21 445.88C783.79 437.36 780.04 424.57 768.75 424.57C757.47 424.1 757.47 435.46 765.46 440.2C762.18 444.93 748.54 445.4 748.54 428.83C749.02 412.26 771.58 408 789.44 418.89C810.12 432.14 835.03 482.8 813.88 539.14C801.18 571.8 769.23 615.35 716.11 636.65C662.99 615.35 631.03 571.8 618.81 539.14C597.19 482.8 622.1 432.14 642.78 418.89C660.64 408 683.2 412.26 683.68 428.83C683.68 445.4 670.04 444.93 666.75 440.2C674.74 435.46 674.74 424.1 663.47 424.57C652.18 424.57 648.42 437.36 655.01 445.88" /><g ><path class="shp5" d="M653.1 429.82C650.28 432.19 645.11 438.82 642.75 442.6" /><path class="shp5" d="M651.69 434.52C649.81 435.94 647.46 440.2 645.58 442.57" /><path class="shp5" d="M651.69 438.8C649.81 440.69 648.87 443.07 647.93 443.54" /><path class="shp5" d="M652.63 442.13C652.16 442.61 650.75 444.5 649.81 445.45" /><path class="shp5" d="M639.94 441.18C646.99 431.24 654.98 421.3 667.67 423.19C680.36 424.62 680.83 437.39 676.6 442.6" /><path class="shp5" d="M670.94 427.45C674.7 431.23 676.58 438.81 671.88 443.07" /><path class="shp5" d="M626.31 463.9C634.77 442.12 644.64 423.18 661.09 420.82C678.01 418.93 682.71 426.49 681.77 437.86" /><path class="shp5" d="M623.02 461.52C633.35 431.22 647.93 419.86 662.03 417.96C676.13 416.54 682.71 421.75 683.19 430.75" /><path class="shp5" d="M620.19 461.04C631 428.38 644.64 417.49 660.62 415.12C674.72 413.7 678.95 418.91 681.3 421.27" /><path class="shp5" d="M669.05 438.33C673.75 438.8 680.8 435.49 683.62 428.86" /><path class="shp5" d="M671.41 435C674.23 434.52 680.81 429.32 682.22 422.69" /><path class="shp5" d="M676.14 416.09C677.55 419.88 677.55 427.45 672.37 430.76" /><path class="shp5" d="M671.41 414.19C673.29 416.55 673.76 423.18 670.94 427.44" /><path class="shp5" d="M666.26 413.23C669.09 415.13 670.5 419.86 667.68 425.07" /><path class="shp5" d="M683.63 431.73C682.7 435.52 675.17 443.09 666.71 440.25" /><path class="shp5" d="M693.97 414.66C694.9 416.55 695.84 422.24 695.38 425.07" /><path class="shp5" d="M696.8 416.09C697.27 417.98 698.21 423.66 697.74 426.03" /><path class="shp5" d="M700.11 417.99C700.11 419.89 700.58 425.57 700.58 426.99" /><path class="shp5" d="M702.94 419.89C702.94 421.79 703.41 425.1 702.94 426.52" /><path class="shp5" d="M705.3 421.26C705.3 423.15 705.77 424.57 705.3 426" /><path class="shp5" d="M695.38 431.73C695.38 433.62 693.97 438.35 693.03 440.25" /><path class="shp5" d="M697.27 431.73C697.27 433.15 696.8 437.41 696.33 438.83" /><path class="shp5" d="M700.11 431.73C700.11 433.62 699.17 436.46 699.17 437.41" /><path class="shp5" d="M702.47 432.68C702.47 433.62 702 435.05 701.53 435.99" /><path class="shp5" d="M704.83 432.2C704.36 433.15 704.36 434.09 704.36 435.05" /><path class="shp5" d="M648.4 416.09C623.48 428.87 599.51 483.31 623.02 543.43" /><path class="shp5" d="M619.73 465.8C617.38 472.43 615.03 490.42 615.49 500.36" /><path class="shp5" d="M621.61 467.23C619.26 477.17 616.43 498.47 618.78 509.83" /><path class="shp5" d="M623.02 473.35C620.67 482.82 619.73 496.55 620.67 503.18" /><path class="shp5" d="M615.49 507.42C616.91 514.05 618.78 525.41 620.19 530.62" /><path class="shp5" d="M619.26 512.66C619.73 518.34 623.02 532.54 624.89 537.75" /><path class="shp5" d="M728.33 429.35C727.39 431.24 727.39 435.5 727.86 437.39" /><path class="shp5" d="M731.16 430.3C730.22 432.19 729.75 437.4 730.22 439.3" /><path class="shp5" d="M733.46 430.78C732.53 432.67 732.53 438.35 732.99 440.24" /><path class="shp5" d="M736.3 429.82C735.36 432.67 734.89 438.82 737.71 443.08" /><path class="shp5" d="M801.66 434.52C788.5 413.69 768.29 413.22 759.82 417.48C751.36 421.74 748.07 435 757.94 443.04" /><path class="shp5" d="M796.93 432.2C785.65 417.53 767.79 414.22 759.33 420.37C749.46 427.95 756.98 439.31 760.27 442.62" /><path class="shp5" d="M797.41 436.43C783.31 421.27 772.96 416.54 764.03 420.8C754.16 425.54 756.51 438.32 763.56 441.63" /><path class="shp5" d="M753.24 440.71C755.12 441.18 760.29 438.34 761.23 436.44" /><path class="shp5" d="M763.58 438.8C762.64 440.69 759.81 442.59 758.4 443.07" /><path class="shp5" d="M750.41 436.43C752.76 437.37 758.4 435.95 760.28 434.53" /><path class="shp5" d="M748.99 432.2C750.87 433.62 757.93 433.15 759.8 432.2" /><path class="shp5" d="M748.99 427.45C751.34 429.34 756.98 430.29 759.8 430.29" /><path class="shp5" d="M749.46 423.64C751.81 425.53 758.4 426.95 761.21 427.43" /><path class="shp5" d="M763.58 425.07C760.29 424.59 755.11 420.81 753.24 417.97" /><path class="shp5" d="M760.74 414.19C760.74 416.55 763.09 422.23 765.44 424.6" /><path class="shp5" d="M800.71 445.88C789.9 426.94 766.87 411.32 760.29 428.84" /><path class="shp5" d="M802.13 454.44C793.2 438.35 775.81 415.15 762.18 426.04" /><path class="shp5" d="M774.85 426.02C781.9 431.23 794.12 442.59 799.29 455.37" /><path class="shp5" d="M780.05 433.57C782.4 435.94 789.92 443.51 791.8 447.3" /><path class="shp5" d="M780.46 437.38C785.63 442.59 792.22 450.63 796.44 459.15" /><path class="shp5" d="M780.05 441.18C783.34 444.49 791.8 453.49 796.03 464.38" /><path class="shp5" d="M778.63 444.04C781.92 447.82 789.91 453.98 795.08 468.65" /><path class="shp5" d="M662.5 412.76C663.44 414.65 663.91 417.97 663.44 418.91" /><path class="shp5" d="M655.45 413.71C656.39 414.66 657.8 417.5 657.8 418.92" /><path class="shp5" d="M650.28 415.61C651.22 416.09 651.69 417.51 651.69 417.51" /></g></g><g ><path class="shp5" d="M551.1 617.73C543.58 620.09 538.41 624.83 532.77 630.51" /><path class="shp5" d="M615.49 548.63C615.02 553.36 612.67 567.09 614.56 570.88" /><path class="shp5" d="M617.84 621.06C616.43 625.32 616.43 628.63 615.02 631.47" /><path class="shp5" d="M562.38 497.49C562.38 500.81 561.91 507.44 560.97 510.27" /><path class="shp5" d="M578.36 451.59C575.54 457.27 572.25 470.05 571.78 477.15" /><path class="shp5" d="M588.7 465.32C589.64 472.42 593.4 486.63 592.46 492.78" /><path class="shp5" d="M596.7 503.2C596.22 506.51 595.76 513.14 595.29 515.99" /><path class="shp5" d="M598.57 542.03C598.1 547.71 596.7 559.55 597.63 564.76" /><path class="shp5" d="M602.33 439.76C602.33 442.6 601.86 450.17 601.4 453.49" /><path class="shp5" d="M595.29 393.85C592.46 399.06 586.82 406.16 584 414.2" /><path class="shp5" d="M576.01 405.68C574.6 412.31 573.66 423.67 574.6 430.77" /><path class="shp5" d="M569.9 546.73C573.19 550.04 580.71 554.3 583.06 557.62" /></g><g ><g ><path class="shp11" d="M717.46 305.31C708.07 317.15 683.62 324.72 670.46 325.66C657.3 326.14 639.44 338.45 659.65 363.07C660.59 368.74 656.36 372.06 644.61 368.74C635.21 356.91 623.45 332.29 643.67 320.93C663.88 310.04 701.95 316.67 717.46 292.53L717.46 305.31Z" /><path class="shp11" d="M717.46 305.31C726.86 317.15 751.31 324.72 764.47 325.66C777.63 326.14 795.49 338.45 775.28 363.07C774.34 368.74 778.57 372.06 790.31 368.74C799.71 356.91 811.47 332.29 791.25 320.93C771.04 310.04 732.97 316.67 717.46 292.53L717.46 305.31L717.46 305.31Z" /></g><g ><path class="shp5" d="M716.58 298.65C699.66 314.75 692.14 318.53 669.1 319.96C646.07 320.9 629.15 341.73 655.94 368.72" /><path class="shp5" d="M646.99 357.88C648.86 356.45 651.22 354.56 653.57 353.61" /><path class="shp5" d="M651.69 350.74C649.34 351.22 646.52 353.11 645.11 354.05" /><path class="shp5" d="M643.7 350.26C645.11 349.32 648.4 348.37 650.75 347.42" /><path class="shp5" d="M650.75 345.09C647.93 344.61 644.17 345.09 642.75 346.04" /><path class="shp5" d="M642.29 341.76C645.11 341.76 648.87 341.76 650.75 342.24" /><path class="shp5" d="M651.22 338.43C649.34 337.96 645.11 337.01 642.76 337.96" /><path class="shp5" d="M644.17 333.26C646.05 333.73 650.75 334.68 652.63 335.62" /><path class="shp5" d="M646.52 329.93C648.87 330.87 652.63 332.29 654.04 332.77" /><path class="shp5" d="M648.4 328.02C651.69 328.5 654.98 329.92 655.92 331.34" /><path class="shp5" d="M653.1 324.69C654.98 325.17 658.27 327.54 659.21 328.95" /><path class="shp5" d="M656.39 322.79C658.27 324.21 661.56 326.1 662.5 327.06" /><path class="shp5" d="M660.62 321.42C662.5 322.37 665.32 325.68 666.26 326.16" /><path class="shp5" d="M648.4 360.19C650.28 359.72 652.63 356.41 654.98 355.93" /><path class="shp5" d="M665.32 320.47C666.73 320.95 670.02 324.26 670.96 325.68" /><path class="shp5" d="M670 320C671.41 320.94 674.7 324.26 675.17 324.73" /><path class="shp5" d="M675.66 319.52C677.07 320.47 679.42 323.31 679.89 324.25" /><path class="shp5" d="M680.86 318.57L685.09 322.83" /><path class="shp5" d="M686 317.62C686.93 318.56 688.35 320.93 688.82 321.41" /><path class="shp5" d="M690.72 316.67C691.19 317.61 693.07 319.51 693.54 320.46" /><path class="shp5" d="M695.38 314.76L697.74 318.57" /><path class="shp5" d="M699.16 312.86L701.52 316.67" /><path class="shp5" d="M718.41 298.65C735.33 314.75 742.85 318.53 765.88 319.96C788.92 320.9 805.84 341.73 779.04 368.72" /><path class="shp5" d="M788.02 357.88C786.14 356.45 783.78 354.56 781.44 353.61" /><path class="shp5" d="M783.29 350.74C785.64 351.22 788.47 353.11 789.88 354.05" /><path class="shp5" d="M791.27 350.26C789.85 349.32 786.57 348.37 784.22 347.42" /><path class="shp5" d="M784.24 345.09C787.06 344.61 790.82 345.09 792.23 346.04" /><path class="shp5" d="M792.68 341.76C789.86 341.76 786.1 341.76 784.22 342.24" /><path class="shp5" d="M783.77 338.43C785.64 337.96 789.88 337.01 792.23 337.96" /><path class="shp5" d="M790.85 333.26C788.97 333.73 784.27 334.68 782.39 335.62" /><path class="shp5" d="M788.49 329.93C786.14 330.87 782.38 332.29 780.97 332.77" /><path class="shp5" d="M786.6 328.02C783.31 328.5 780.02 329.92 779.08 331.34" /><path class="shp5" d="M781.88 324.69C779.99 325.17 776.71 327.54 775.77 328.95" /><path class="shp5" d="M778.63 322.79C776.75 324.21 773.46 326.1 772.52 327.06" /><path class="shp5" d="M774.38 321.42C772.5 322.37 769.68 325.68 768.74 326.16" /><path class="shp5" d="M786.6 360.19C784.72 359.72 782.37 356.41 780.02 355.93" /><path class="shp5" d="M769.66 320.47C768.25 320.95 764.96 324.26 764.02 325.68" /><path class="shp5" d="M764.99 320C763.58 320.94 760.29 324.26 759.82 324.73" /><path class="shp5" d="M759.32 319.52C757.91 320.47 755.56 323.31 755.1 324.25" /><path class="shp5" d="M754.19 318.57C753.25 319.52 750.9 321.88 749.96 322.83" /><path class="shp5" d="M748.99 317.62C748.05 318.56 746.64 320.93 746.17 321.41" /><path class="shp5" d="M744.27 316.67C743.8 317.61 741.92 319.51 741.45 320.46" /><path class="shp5" d="M739.6 314.76L737.24 318.57" /><path class="shp5" d="M735.83 312.86L733.46 316.67" /></g><path class="shp12" d="M717.46 339.86C725.92 330.86 725.92 313.35 724.05 305.3C730.63 298.67 728.75 282.57 717.46 282.57C706.18 282.57 704.3 298.67 710.88 305.3C709 313.35 709 330.87 717.46 339.86Z" /><g ><path class="shp11" d="M721.24 246.6L721.24 254.65L728.29 254.65L728.29 262.69L721.24 262.69L721.24 267.43C725 268.85 727.35 272.64 727.35 277.37C727.35 281.63 722.65 286.83 717.48 286.83C712.31 286.83 707.61 281.63 707.61 277.37C707.61 272.64 709.96 268.85 713.72 267.43L713.72 262.69L706.67 262.69L706.67 254.65L713.72 254.65L713.72 246.6L721.24 246.6Z" /><path class="shp11" d="M717.46 339.86C725.92 330.86 725.92 313.35 724.05 305.3L727.34 298.67C735.32 307.66 734.86 332.28 717.46 346.01C700.07 332.28 699.6 307.66 707.59 298.67L710.88 305.3C709 313.35 709 330.87 717.46 339.86Z" /><path class="shp11" d="M717.46 297.7C717.46 290.6 717.94 285.87 723.58 285.87C729.21 285.87 731.1 291.54 732.04 296.28C733.45 301.01 735.32 304.8 738.62 303.38C741.91 301.96 745.2 303.38 742.38 306.69C740.03 310 731.57 309.06 727.81 304.8C726.87 307.64 722.17 306.22 724.52 302.91C726.4 299.12 724.99 296.75 723.11 296.75C721.23 296.75 720.29 300.07 721.7 302.43C723.58 304.8 721.7 308.59 717.46 308.59C713.23 308.59 711.35 304.8 713.23 302.43C714.64 300.07 713.7 296.75 711.82 296.75C709.94 296.75 708.53 299.12 710.41 302.91C712.76 306.22 708.06 307.64 707.12 304.8C703.36 309.06 694.9 310.01 692.55 306.69C689.73 303.38 693.02 301.96 696.31 303.38C699.6 304.8 701.48 301.01 702.89 296.28C703.83 291.54 705.72 285.87 711.35 285.87C717 285.87 717.46 290.6 717.46 297.7L717.46 297.7Z" /><path class="shp11" d="M717.46 308.64C708.53 308.64 708.07 322.84 717.46 322.84C726.87 322.85 726.4 308.64 717.46 308.64Z" /></g><g ><path class="shp4" d="M691.19 308.64C686.96 308.64 686.96 315.27 691.19 315.27C695.42 315.27 695.42 308.64 691.19 308.64Z" /><path class="shp4" d="M680.39 308.64C676.15 308.64 676.15 315.74 680.39 315.74C685.09 315.75 685.09 308.64 680.39 308.64Z" /><path class="shp4" d="M669.05 308.16C663.88 308.16 663.88 315.74 669.05 315.74C674.22 315.74 673.75 308.16 669.05 308.16Z" /><path class="shp4" d="M654.51 311.91C648.87 311.91 648.87 320.91 654.51 320.91C660.62 320.91 660.62 311.91 654.51 311.91Z" /><path class="shp4" d="M641.35 319.52C635.24 319.52 635.24 328.52 641.35 328.52C646.99 328.52 646.99 319.52 641.35 319.52Z" /><path class="shp4" d="M633.83 334.21C626.78 334.21 626.78 345.1 633.83 345.1C640.88 345.1 640.88 334.21 633.83 334.21Z" /><path class="shp4" d="M636.65 350.74C630.07 350.74 630.07 360.68 636.65 360.68C642.76 360.68 642.76 350.74 636.65 350.74Z" /><path class="shp4" d="M743.8 308.64C748.03 308.64 748.03 315.27 743.8 315.27C739.57 315.27 739.57 308.64 743.8 308.64Z" /><path class="shp4" d="M754.66 308.64C758.89 308.64 758.89 315.74 754.66 315.74C749.96 315.75 749.96 308.64 754.66 308.64Z" /><path class="shp4" d="M765.88 308.16C771.05 308.16 771.05 315.74 765.88 315.74C760.71 315.74 761.18 308.16 765.88 308.16Z" /><path class="shp4" d="M780.46 311.91C786.1 311.91 786.1 320.91 780.46 320.91C774.36 320.91 774.36 311.91 780.46 311.91Z" /><path class="shp4" d="M793.63 319.52C799.74 319.52 799.74 328.52 793.63 328.52C787.98 328.52 787.98 319.52 793.63 319.52Z" /><path class="shp4" d="M801.18 334.21C808.23 334.21 808.23 345.1 801.18 345.1C794.13 345.1 794.13 334.21 801.18 334.21Z" /><path class="shp4" d="M798.35 350.74C804.93 350.74 804.93 360.68 798.35 360.68C792.24 360.68 792.24 350.74 798.35 350.74Z" /></g><g ><path class="shp11" d="M717.46 315.72C709.94 315.72 709.48 327.56 717.46 327.56C725.46 327.56 724.99 315.72 717.46 315.72Z" /><path class="shp11" d="M717.46 324.22C711.35 324.22 711.35 333.69 717.46 333.69C723.58 333.69 723.58 324.22 717.46 324.22Z" /><path class="shp11" d="M717.46 411.81C748.96 411.81 766.82 407.54 772.93 402.34C776.22 399.03 775.28 397.61 776.69 391.93C778.11 385.77 788.92 370.62 798.31 363.05C793.14 361.16 785.15 363.05 779.04 367.79C781.39 363.52 783.74 357.37 780.92 352.64C774.81 351.69 766.82 355.48 762.12 361.63C765.41 356.42 766.35 349.32 764.47 344.12C758.83 343.64 750.83 347.9 745.2 356.42C749.9 349.32 749.43 340.8 744.72 336.07C736.74 337.49 730.62 344.12 727.8 353.59C728.27 345.54 724.04 333.7 717.46 329.92C710.88 333.7 706.65 345.54 707.12 353.59C704.3 344.12 698.19 337.49 690.2 336.07C685.5 340.8 685.03 349.32 689.73 356.42C684.09 347.9 676.09 343.64 670.46 344.12C668.58 349.32 669.52 356.42 672.81 361.63C668.11 355.48 660.12 351.69 654.01 352.64C651.19 357.37 653.53 363.52 655.88 367.79C649.77 363.05 641.79 361.16 636.61 363.05C646.01 370.63 656.82 385.78 658.23 391.93C659.65 397.61 658.71 399.03 662 402.34C668.11 407.55 685.97 411.81 717.46 411.81L717.46 411.81Z" /><path class="shp11" d="M717.46 368.28C740.5 368.28 766.35 377.27 781.39 384.85C783.74 385.79 787.03 381.06 782.33 378.69C766.82 371.12 740.49 361.65 717.46 361.65C694.43 361.65 668.11 371.12 652.59 378.69C647.89 381.06 651.18 385.79 653.53 384.85C668.58 377.28 694.43 368.28 717.46 368.28L717.46 368.28Z" /><path class="shp11" d="M717.46 391C740.97 391 758.36 398.1 771.52 403.3C776.69 405.2 777.63 398.57 774.34 396.67C760.71 390.52 740.03 383.42 717.47 383.42C694.91 383.42 674.23 390.52 660.6 396.67C657.31 398.57 658.25 405.2 663.42 403.3C676.57 398.1 693.97 391 717.46 391Z" /><path class="shp11" d="M694.44 379.64C691.62 379.64 691.15 384.37 694.44 384.37C697.25 384.37 697.25 379.64 694.44 379.64Z" /><path class="shp11" d="M700.58 374.41C697.76 374.41 697.76 378.67 700.58 378.67C703.4 378.67 703.4 374.41 700.58 374.41Z" /><path class="shp11" d="M692.61 372.5C689.79 372.5 689.79 376.77 692.61 376.77C695.9 376.77 695.42 372.5 692.61 372.5Z" /><path class="shp11" d="M686 377.74C683.17 377.74 683.17 382.47 686 382.47C688.82 382.47 688.82 377.74 686 377.74Z" /><path class="shp11" d="M662.5 386.71C659.68 386.71 659.68 390.97 662.5 390.97C665.32 390.98 665.32 386.71 662.5 386.71Z" /><path class="shp11" d="M740.55 379.64C743.37 379.64 743.84 384.37 740.55 384.37C737.73 384.37 737.73 379.64 740.55 379.64Z" /><path class="shp11" d="M734.41 374.41C737.23 374.41 737.23 378.67 734.41 378.67C731.59 378.67 731.59 374.41 734.41 374.41Z" /><path class="shp11" d="M742.44 372.5C745.26 372.5 745.26 376.77 742.44 376.77C739.14 376.77 739.62 372.5 742.44 372.5Z" /><path class="shp11" d="M748.99 377.74C751.81 377.74 751.81 382.47 748.99 382.47C746.17 382.47 746.17 377.74 748.99 377.74Z" /><path class="shp11" d="M772.49 386.71C775.31 386.71 775.31 390.97 772.49 390.97C769.67 390.98 769.67 386.71 772.49 386.71Z" /></g><path class="shp7" d="M673.3 380.59C670.48 381.54 667.19 383.9 668.13 385.32C669.54 388.17 672.83 387.21 676.12 386.27C678.47 385.32 681.76 383.43 680.82 381.54C679.88 378.22 676.12 379.17 673.3 380.59Z" /><path class="shp7" d="M761.69 380.59C764.51 381.54 767.8 383.9 766.86 385.32C765.45 388.17 762.16 387.21 758.87 386.27C756.52 385.32 753.23 383.43 754.17 381.54C755.11 378.22 758.87 379.17 761.69 380.59Z" /><path class="shp13" d="M717.46 378.69C722.16 378.69 726.86 378.69 726.86 375.37C726.86 372.06 722.63 372.06 717.46 372.06C712.29 372.06 708.07 372.06 708.07 375.37C708.07 378.69 712.76 378.69 717.46 378.69Z" /><g ><path class="shp5" d="M659.21 361.62C661.56 364.46 666.73 370.62 668.14 372.04" /><path class="shp5" d="M678.03 354.07C681.31 359.28 684.61 364.01 686.01 366.38" /><path class="shp5" d="M694.91 349.31C696.32 353.1 698.2 360.2 698.67 363.51" /><path class="shp5" d="M775.8 361.62C773.45 364.46 768.27 370.62 766.86 372.04" /><path class="shp5" d="M756.96 354.07C753.67 359.28 750.38 364.01 748.97 366.38" /><path class="shp5" d="M740.08 349.31C738.67 353.1 736.79 360.2 736.32 363.51" /><path class="shp5" d="M716.11 361.62C716.11 354.52 717.05 347.89 717.05 345.05" /></g><g ><path class="shp5" d="M722.19 272.19C724.54 274.08 725.48 281.19 721.72 284.5" /><path class="shp5" d="M721.72 274.98C722.65 276.87 722.65 284.45 718.89 286.35" /><path class="shp5" d="M719.35 277.84C721.24 279.73 719.83 284.47 717.48 286.83" /><path class="shp5" d="M714.69 280.69L714.69 282.6" /><path class="shp5" d="M716.11 279.27L716.58 282.12" /><path class="shp5" d="M712.8 280.22L713.27 281.64" /><path class="shp5" d="M718.41 280.22C718.41 281.64 718.41 284.47 716.53 285.43" /><path class="shp5" d="M724.08 270.76C725.49 273.13 726.43 279.28 725.02 282.6" /><path class="shp5" d="M750.41 361.15C753.7 362.57 763.57 366.35 766.39 367.78" /><path class="shp5" d="M771.55 369.71C772.48 370.18 773.9 370.65 775.31 371.13" /><path class="shp5" d="M772.02 366.38C773.9 367.32 775.31 368.28 776.72 368.74" /><path class="shp5" d="M774.85 364C775.32 364.48 777.2 365.42 777.67 365.9" /><path class="shp5" d="M780.05 369.23C780.99 369.71 782.4 370.65 782.87 370.65" /><path class="shp5" d="M785.18 365.9L786.6 366.85" /><path class="shp5" d="M782.35 367.81L784.71 368.76" /><path class="shp5" d="M748.52 358.35C749.46 358.35 751.34 359.3 751.34 359.3" /><path class="shp5" d="M754.19 360.67C757.01 361.62 763.59 363.98 765.94 364.93" /><path class="shp5" d="M759.32 356.92C760.26 357.4 763.09 358.34 763.56 358.82" /><path class="shp5" d="M760.74 355.02C761.21 355.02 764.03 356.44 764.5 356.91" /><path class="shp5" d="M762.16 353.12C763.1 353.12 764.98 354.06 764.98 354.06" /><path class="shp5" d="M763.58 350.74L765.46 351.69" /><path class="shp5" d="M751.35 356.45L753.24 357.4" /><path class="shp5" d="M750.88 364C752.76 364.48 758.4 366.37 760.28 367.31" /><path class="shp5" d="M787.07 364L788.96 364.95" /><path class="shp5" d="M777.69 362.1C778.16 362.1 780.04 363.04 780.04 363.04" /><path class="shp5" d="M778.16 359.3L780.05 360.19" /><path class="shp5" d="M779.1 356.45L780.93 357.4" /><path class="shp5" d="M755.6 358.83C757.02 359.3 759.37 359.77 760.3 360.25" /><path class="shp5" d="M764.52 362.1C764.99 362.1 766.4 363.04 766.4 363.04" /><path class="shp5" d="M753.72 354.55L756.02 355.5" /><path class="shp5" d="M748.99 363.05L747.1 362.1" /><path class="shp5" d="M746.16 359.78L748.52 360.19" /><path class="shp5" d="M747.58 364L744.74 363.05" /><path class="shp5" d="M790.85 363.05L791.74 364" /><path class="shp5" d="M770.13 371.08L766.35 369.23" /><path class="shp5" d="M737.72 367.81L738.66 366.85" /><path class="shp5" d="M742.85 369.23L743.32 367.81" /><path class="shp5" d="M746.63 370.18L747.58 368.76" /><path class="shp5" d="M750.41 371.08L751.83 369.23" /><path class="shp5" d="M754.19 371.55L755.6 370.18" /><path class="shp5" d="M757.91 371.55L757.44 372.98" /><path class="shp5" d="M762.16 372.03L760.74 373.93" /><path class="shp5" d="M765.46 373.45L764.99 375.36" /><path class="shp5" d="M768.71 374.41L767.29 376.78" /><path class="shp5" d="M772.02 375.83L771.07 377.74" /><path class="shp5" d="M773.91 377.26L773.44 378.69" /><path class="shp5" d="M776.74 378.21L775.8 379.64" /><path class="shp5" d="M779.1 379.64L778.16 381.54" /><path class="shp5" d="M780.93 380.59L780.05 382.49" /><path class="shp5" d="M739.13 390.52C743.83 391.47 756.53 394.78 762.16 397.15" /><path class="shp5" d="M745.21 389.09C748.5 390.04 757.44 392.41 760.26 393.83" /><path class="shp5" d="M728.8 380.59C731.15 381.07 736.79 382.01 738.2 382.48" /><path class="shp5" d="M742.44 383.44C744.79 384.39 761.71 389.12 765.47 390.54" /><path class="shp5" d="M734.41 378.69C735.82 379.16 738.17 379.63 739.58 380.11" /><path class="shp5" d="M742.85 381.07C745.67 382.01 761.66 386.27 765.41 388.17" /><path class="shp5" d="M732.99 371.55C734.87 372.03 737.69 372.5 739.1 373.44" /><path class="shp5" d="M738.19 376.78C740.54 377.73 744.3 378.68 745.71 379.15" /><path class="shp5" d="M751.83 375.83C755.11 376.78 765.46 380.09 767.34 381.04" /><path class="shp5" d="M766.88 385.29L768.71 386.24" /><path class="shp5" d="M746.16 374.41L748.99 374.88" /><path class="shp5" d="M746.16 376.31C748.51 376.78 753.21 378.68 753.68 378.68" /><path class="shp5" d="M767.77 401.88C766.36 402.35 757.9 405.19 753.66 405.67" /><path class="shp5" d="M764.05 400.45C762.17 400.93 755.11 402.35 752.76 402.82" /><path class="shp5" d="M757.91 398.07C756.5 398.55 753.21 399.49 751.32 399.49" /><path class="shp5" d="M753.24 396.64C752.3 397.12 750.42 397.59 749.48 397.59" /><path class="shp5" d="M748.99 395.28C747.58 395.75 745.7 396.22 745.23 396.22" /><path class="shp5" d="M743.32 393.85L741.02 394.8" /><path class="shp5" d="M675.19 398.55C677.54 399.49 688.35 402.34 694.93 401.86" /><path class="shp5" d="M671.41 399.97C678.46 402.82 689.74 404.23 698.21 404.23" /><path class="shp5" d="M700.11 404.26L701.52 404.26" /><path class="shp5" d="M669.05 400.93C672.34 403.29 680.33 405.18 688.32 406.13" /><path class="shp5" d="M692.14 406.63C694.49 406.63 696.37 407.11 698.25 407.11" /><path class="shp5" d="M701.05 407.11C701.99 407.11 703.4 407.11 704.34 406.63" /><path class="shp5" d="M666.26 402.35C671.9 405.67 683.66 408.03 696.35 408.98" /><path class="shp5" d="M699.16 409.01C700.57 409.49 701.98 409.49 703.39 409.49" /><path class="shp5" d="M706.25 409.43L709.07 409.43" /><path class="shp5" d="M679.91 397.12C683.68 399.01 693.07 400.43 698.25 399.96" /><path class="shp5" d="M685.05 395.69C687.4 396.64 692.1 397.11 693.98 397.11" /></g></g></g></g></svg>