<?xml version="1.0" encoding="UTF-8" standalone="no"?>
<svg
   xmlns:dc="http://purl.org/dc/elements/1.1/"
   xmlns:cc="http://creativecommons.org/ns#"
   xmlns:rdf="http://www.w3.org/1999/02/22-rdf-syntax-ns#"
   xmlns:svg="http://www.w3.org/2000/svg"
   xmlns="http://www.w3.org/2000/svg"
   version="1.1"
   width="900"
   height="600"
   viewBox="63 0 900 600"
   id="svg10">
  <metadata
     id="metadata16">
    <rdf:RDF>
      <cc:Work
         rdf:about="">
        <dc:format>image/svg+xml</dc:format>
        <dc:type
           rdf:resource="http://purl.org/dc/dcmitype/StillImage" />
        <dc:title></dc:title>
      </cc:Work>
    </rdf:RDF>
  </metadata>
  <defs
     id="defs14" />
  <path
     fill="#bc0000"
     fill-opacity="1"
     d="M 0 0 h 1200 v 600 H 0 z"
     id="path2"
     style="fill: #cc0000; fill-opacity: 1" />
  <path
     id="path11728"
     d="M 200 37.5 l -8.4 25.9 H 164.3 L 186.4 79.4 L 178 105.3 L 200 89.3 L 222 105.3 L 213.6 79.4 L 235.7 63.4 h -27.2 z m 0 13.5 l 5.4 16.6 h 17.4 l -14.1 10.2 l 5.4 16.6 L 200 84.2 L 185.9 94.4 L 191.3 77.8 L 177.2 67.6 h 17.4 z"
     style="fill: #ffd700; stroke: none; stroke-width: 0.1px; stroke-linecap: butt; stroke-linejoin: miter; fill-opacity: 1; stroke-opacity: 1" />
  <g
     style="fill: #ffd700; fill-opacity: 1"
     id="g2900"
     transform="matrix(1,0,0,1,3.8,3.8)">
    <path
       id="rect4165-6"
       d="M 137.4 171.7 l 18.9 19 l 17.8 -17.7 c 27.1 29 55.4 57 82.3 86.1 c 4 4.1 10.6 4.1 14.7 0.1 c 4.1 -4 4.1 -10.6 0.1 -14.7 c -28.8 -27.2 -57.7 -54.6 -86.6 -81.9 l 24 -23.8 l -33.3 -4.6 z"
       style="fill: #ffd700; stroke: none; stroke-width: 0.5; stroke-dasharray: none; stroke-dashoffset: 0; fill-opacity: 1; stroke-miterlimit: 4; stroke-opacity: 1" />
    <path
       id="path4179-3"
       d="M 198.3 110.2 c 15.5 8.7 27.3 21.3 34.2 34.4 c 7 13.3 10.1 27.2 10.2 38.3 c 0.1 22.7 -18.4 41.2 -41.2 41.2 c -12.1 0 -23 -5.2 -30.6 -13.6 l -4.2 3.5 c -0.7 -0.3 -1.5 -0.4 -2.2 -0.4 c -1.8 0 -3.6 0.8 -4.7 2.2 c -3 0.4 -5.5 2.4 -6.4 5.3 c -3.1 6.3 -8.6 11.2 -15.3 13.5 c -0.1 0 -0.1 0.1 -0.2 0.1 c -3.1 1.1 -6.2 3.2 -8.8 5.8 c -5.2 5.2 -7.7 11.9 -6.3 16.6 c -0.1 0.4 -0.2 0.8 -0.2 1.3 c 0 2.2 1.8 3.9 3.9 3.9 c 0.5 0 1.1 -0.1 1.6 -0.3 c 4.7 1.1 11.1 -1.5 16.1 -6.6 c 2.8 -2.9 4.9 -6.2 6 -9.5 c 2.3 -6.6 7.3 -12 13.6 -15.1 c 0.2 -0.1 0.3 -0.1 0.4 -0.2 c 2.1 -1 3.7 -2.9 4.2 -5.2 c 9.7 11.4 24.3 18.8 40.5 19.1 c 29.8 0.7 52.1 -21.3 53.2 -52.8 c 0.5 -15.9 -5.6 -36.4 -19.6 -53.2 c -10.7 -12.8 -26.4 -23.5 -44.2 -28.2 z"
       style="fill: #ffd700; stroke: none; stroke-width: 0.5; stroke-dasharray: none; stroke-dashoffset: 0; fill-opacity: 1; stroke-miterlimit: 4; stroke-opacity: 1" />
  </g>
</svg>
