<svg version="1.2" baseProfile="tiny-ps" xmlns="http://www.w3.org/2000/svg" viewBox="0 0 900 600" width="900" height="600"><title></title><style>tspan { white-space:pre }.shp0 { fill: #fcd116 } .shp1 { fill: #000000 } .shp2 { fill: #ce1126 } .shp3 { fill: none;stroke: #000000;stroke-width: 2.792 } .shp4 { fill: none;stroke: #000000;stroke-linecap:round;stroke-linejoin:round;stroke-width: 2.792 } .shp5 { fill: none;stroke: #000000;stroke-linecap:round;stroke-linejoin:round;stroke-width: 2.564 } .shp6 { fill: none;stroke: #000000;stroke-linecap:round;stroke-linejoin:round;stroke-width: 2.413 } </style><path class="shp0" d="M-150 0L1050 0L1050 600L-150 600L-150 0Z" /><path fill-rule="evenodd" class="shp1" d="M450 0L450 600L375 600L375 375L-150 375L-150 225L375 225L375 0L450 0Z" /><path fill-rule="evenodd" class="shp2" d="M450 0L450 600L525 600L525 375L1050 375L1050 225L525 225L525 0L450 0Z" /><path fill-rule="evenodd" class="shp0" d="M390.1 315.53L380.93 253.6L411.38 305.85L412.59 305.5L412.77 240.05L435.08 300.05L437.68 293.89L449.27 235.29L461.55 301.28L463.63 300.93L486.81 237.76L486.98 304.26L488.88 304.26L520.03 249.73L508.61 315.18L507.57 357.05L503.77 363.03L495.29 366.9L485.59 370.25L470.2 372.89L453.07 373.24L435.08 373.06L418.82 370.96L405.15 368.14L396.85 364.97L392 361.1L389.06 357.05L389.76 339.63L390.45 321.16L390.1 315.53L390.1 315.53Z" /><g ><path class="shp3" d="M436.69 300.2L449.15 231.4L461.6 300.9L436.69 300.2ZM463.35 301.01L487.54 233.85L487.21 304.31L463.32 301.01L463.35 301.01ZM488.59 304.93L521.45 246.18L508.91 315.15L488.59 304.93L488.59 304.93ZM435.31 300.37L411.78 234.92L412.47 306L435.31 300.37ZM410.75 306.33L379.25 248.29L389.99 315.93L410.75 306.36L410.75 306.33ZM390.33 316.38L390.33 316.05L389.63 355.6M508.8 315.85L507.61 357.32" /><path class="shp4" d="M440.33 320.15C440.33 322.27 439.69 324.31 438.55 325.81C437.41 327.31 435.87 328.15 434.26 328.15C432.66 328.15 431.11 327.31 429.98 325.81C428.84 324.31 428.2 322.27 428.2 320.15C428.2 318.03 428.84 316 429.98 314.5C431.11 313 432.66 312.16 434.26 312.16C435.87 312.16 437.41 313 438.55 314.5C439.69 316 440.33 318.03 440.33 320.15L440.33 320.15Z" /><path class="shp4" d="M473.89 320.06C473.89 322.18 473.25 324.22 472.11 325.72C470.97 327.22 469.43 328.06 467.82 328.06C466.22 328.06 464.67 327.22 463.54 325.72C462.4 324.22 461.76 322.18 461.76 320.06C461.76 317.94 462.4 315.91 463.54 314.41C464.67 312.91 466.22 312.07 467.82 312.07C469.43 312.07 470.97 312.91 472.11 314.41C473.25 315.91 473.89 317.94 473.89 320.06L473.89 320.06Z" /><path class="shp5" d="M503.42 329.74C503.42 331.9 502.89 333.96 501.96 335.48C501.03 337.01 499.76 337.86 498.44 337.86C497.13 337.86 495.86 337.01 494.93 335.48C494 333.96 493.47 331.9 493.47 329.74C493.47 327.59 494 325.53 494.93 324C495.86 322.48 497.13 321.63 498.44 321.63C499.76 321.63 501.03 322.48 501.96 324C502.89 325.53 503.42 327.59 503.42 329.74L503.42 329.74Z" /><path class="shp5" d="M406.02 329.21C406.02 331.37 405.49 333.43 404.56 334.95C403.63 336.48 402.36 337.33 401.04 337.33C399.73 337.33 398.46 336.48 397.53 334.95C396.6 333.43 396.07 331.37 396.07 329.21C396.07 327.06 396.6 325 397.53 323.47C398.46 321.95 399.73 321.1 401.04 321.1C402.36 321.1 403.63 321.95 404.56 323.47C405.49 325 406.02 327.06 406.02 329.21L406.02 329.21Z" /><path class="shp3" d="M391.02 320.94L404.86 313.74L415.74 308.81L433.23 305.12L449.29 304.05L468.66 306L485.99 308.28L496.54 312.87L508.47 319.34" /><path class="shp3" d="M412.8 326.24L416.43 319.9L422.52 324.13M445.35 321.48L451.03 316.38L456.23 321.82M480.79 324.63L485.3 320.97L488.76 327.64" /><path class="shp4" d="M507.59 356.3C507.59 360.89 501.38 365.28 490.32 368.52C479.27 371.76 464.27 373.59 448.63 373.59C433 373.59 418 371.76 406.94 368.52C395.89 365.28 389.67 360.89 389.67 356.3C389.67 351.72 395.89 347.32 406.94 344.08C418 340.84 433 339.02 448.63 339.02C464.27 339.02 479.27 340.84 490.32 344.08C501.38 347.32 507.59 351.72 507.59 356.3Z" /><path class="shp6" d="M502.51 356.72C502.51 360.43 496.79 363.99 486.62 366.61C476.44 369.24 462.64 370.71 448.25 370.71C433.86 370.71 420.06 369.24 409.89 366.61C399.71 363.99 394 360.43 394 356.72C394 353 399.71 349.44 409.89 346.82C420.06 344.19 433.86 342.72 448.25 342.72C462.64 342.72 476.44 344.19 486.62 346.82C496.79 349.44 502.51 353 502.51 356.72Z" /></g></svg>