<svg version="1.2" baseProfile="tiny-ps" xmlns="http://www.w3.org/2000/svg" viewBox="0 0 900 600" width="900" height="600"><title></title><defs><clipPath clipPathUnits="userSpaceOnUse" id="cp1"><path d="M0 0L450 0L450 300L0 300L0 0Z" /></clipPath></defs><style>tspan { white-space:pre }.shp0 { fill: #00247d } .shp1 { fill: #ffffff } .shp2 { fill: #cf142b } .shp3 { fill: #cf142b;stroke: #000000;stroke-width: 0.2 } .shp4 { fill: #f7d917;stroke: #000000;stroke-width: 0.2 } .shp5 { fill: #ffffff;stroke: #000000;stroke-width: 0.2 } .shp6 { fill: #f7d917;stroke: #000000;stroke-width: 0.201 } .shp7 { fill: #0c3fa0;stroke: #000000;stroke-width: 0.2 } .shp8 { fill: #217821;stroke: #000000;stroke-width: 0.202 } .shp9 { fill: #cccccc;stroke: #000000;stroke-width: 0.2 } .shp10 { fill: #000000 } .shp11 { fill: #000000;stroke: #ffffff;stroke-width: 51.992 } .shp12 { fill: none;stroke: #ffffff;stroke-width: 86.653 } .shp13 { fill: none;stroke: #cf142b;stroke-width: 51.992 } </style><path class="shp0" d="M0 0L900 0L900 600L0 600L0 0Z" /><path class="shp1" d="M827.63 300C827.63 340.52 811.53 379.38 782.88 408.04C754.23 436.69 715.37 452.79 674.84 452.79C634.32 452.79 595.46 436.69 566.81 408.04C538.16 379.38 522.06 340.52 522.06 300C522.06 259.48 538.16 220.62 566.81 191.96C595.46 163.31 634.32 147.21 674.84 147.21C715.37 147.21 754.23 163.31 782.88 191.96C811.53 220.62 827.63 259.48 827.63 300L827.63 300Z" /><g ><path class="shp2" d="M525.27 300L674.34 219.11L823.42 300L674.34 380.89L525.27 300Z" /><path fill-rule="evenodd" class="shp1" d="M653.77 230.88L653.77 287.61L581.08 329.18L616.11 348.75L673.52 318.14L730.55 349.35L768.6 328.87L694.06 287.42L693.93 230.62L674.63 219.77L653.77 230.88Z" /><g ><g ></g><g ><path class="shp3" d="M674.59 257.42L681.75 258.12L684.67 257.42C684.67 257.42 686.76 254.99 686.92 253.53C687 252.86 686.33 252.26 686.31 251.58C686.3 251.23 686.56 250.91 686.56 250.56C686.56 249.96 686.49 249.29 686.1 248.8C685.8 248.41 685.14 247.93 684.63 247.82C683.16 247.49 682.63 248.04 681.37 248.8C679.74 246.98 677.09 246.62 674.69 246.46C674.46 246.45 674.23 246.45 674 246.46C671.68 246.63 669.49 246.87 667.91 248.8C666.65 248.04 665.53 247.49 664.06 247.82C663.55 247.93 662.89 248.41 662.59 248.8C662.2 249.29 662.13 249.96 662.12 250.56C662.12 250.91 662.39 251.23 662.38 251.58C662.36 252.26 661.69 252.86 661.77 253.53C661.93 254.99 664.02 257.42 664.02 257.42L666.93 258.12L674.1 257.42L674.59 257.42Z" /><g ><g ><path class="shp4" d="M674.25 242.51C676.58 242.59 679.44 243.26 682.02 244.71C684.59 246.16 686.88 248.43 687.79 251.63L686.08 252.12C685.32 249.45 683.43 247.55 681.15 246.27C678.87 244.98 676.21 244.36 674.18 244.29L674.25 242.51L674.25 242.51Z" /><g ><path class="shp5" d="M677.68 243.01C677.14 243.01 676.71 242.58 676.71 242.04C676.71 241.5 677.14 241.07 677.68 241.07C678.21 241.07 678.65 241.5 678.65 242.04C678.65 242.58 678.21 243.01 677.68 243.01Z" /><path class="shp5" d="M679.61 243.62C679.08 243.62 678.64 243.19 678.64 242.65C678.64 242.11 679.08 241.68 679.61 241.68C680.15 241.68 680.58 242.11 680.58 242.65C680.58 243.19 680.15 243.62 679.61 243.62Z" /><path class="shp5" d="M681.48 244.37C680.94 244.37 680.51 243.93 680.51 243.4C680.51 242.86 680.94 242.42 681.48 242.42C682.01 242.42 682.45 242.86 682.45 243.4C682.45 243.93 682.01 244.37 681.48 244.37Z" /><path class="shp5" d="M683.25 245.34C682.72 245.34 682.28 244.91 682.28 244.37C682.28 243.83 682.72 243.4 683.25 243.4C683.79 243.4 684.22 243.83 684.22 244.37C684.22 244.91 683.79 245.34 683.25 245.34Z" /><path class="shp5" d="M684.86 246.54C684.32 246.54 683.89 246.11 683.89 245.57C683.89 245.04 684.32 244.6 684.86 244.6C685.4 244.6 685.83 245.04 685.83 245.57C685.83 246.11 685.4 246.54 684.86 246.54Z" /><path class="shp5" d="M686.29 247.92C685.76 247.92 685.32 247.49 685.32 246.95C685.32 246.41 685.76 245.98 686.29 245.98C686.83 245.98 687.26 246.41 687.26 246.95C687.26 247.49 686.83 247.92 686.29 247.92Z" /><path class="shp5" d="M687.47 249.56C686.93 249.56 686.5 249.12 686.5 248.59C686.5 248.05 686.93 247.61 687.47 247.61C688 247.61 688.44 248.05 688.44 248.59C688.44 249.12 688 249.56 687.47 249.56Z" /><path class="shp5" d="M688.39 251.36C687.86 251.36 687.42 250.93 687.42 250.39C687.42 249.85 687.86 249.42 688.39 249.42C688.93 249.42 689.36 249.85 689.36 250.39C689.36 250.93 688.93 251.36 688.39 251.36Z" /></g></g><g ><path class="shp4" d="M674.44 242.51C672.11 242.59 669.25 243.26 666.67 244.71C664.1 246.16 661.81 248.43 660.89 251.63L662.61 252.12C663.37 249.45 665.26 247.55 667.54 246.27C669.82 244.98 672.48 244.36 674.51 244.29L674.44 242.51L674.44 242.51Z" /><g ><path class="shp5" d="M671.01 243.01C671.55 243.01 671.98 242.58 671.98 242.04C671.98 241.5 671.55 241.07 671.01 241.07C670.48 241.07 670.04 241.5 670.04 242.04C670.04 242.58 670.48 243.01 671.01 243.01Z" /><path class="shp5" d="M669.08 243.62C669.61 243.62 670.05 243.19 670.05 242.65C670.05 242.11 669.61 241.68 669.08 241.68C668.54 241.68 668.11 242.11 668.11 242.65C668.11 243.19 668.54 243.62 669.08 243.62Z" /><path class="shp5" d="M667.21 244.37C667.75 244.37 668.18 243.93 668.18 243.4C668.18 242.86 667.75 242.42 667.21 242.42C666.68 242.42 666.24 242.86 666.24 243.4C666.24 243.93 666.68 244.37 667.21 244.37Z" /><path class="shp5" d="M665.44 245.34C665.97 245.34 666.41 244.91 666.41 244.37C666.41 243.83 665.97 243.4 665.44 243.4C664.9 243.4 664.47 243.83 664.47 244.37C664.47 244.91 664.9 245.34 665.44 245.34Z" /><path class="shp5" d="M663.83 246.54C664.37 246.54 664.8 246.11 664.8 245.57C664.8 245.04 664.37 244.6 663.83 244.6C663.29 244.6 662.86 245.04 662.86 245.57C662.86 246.11 663.29 246.54 663.83 246.54Z" /><path class="shp5" d="M662.4 247.92C662.93 247.92 663.37 247.49 663.37 246.95C663.37 246.41 662.93 245.98 662.4 245.98C661.86 245.98 661.43 246.41 661.43 246.95C661.43 247.49 661.86 247.92 662.4 247.92Z" /><path class="shp5" d="M661.22 249.56C661.76 249.56 662.19 249.12 662.19 248.59C662.19 248.05 661.76 247.61 661.22 247.61C660.68 247.61 660.25 248.05 660.25 248.59C660.25 249.12 660.68 249.56 661.22 249.56Z" /><path class="shp5" d="M660.3 251.36C660.83 251.36 661.27 250.93 661.27 250.39C661.27 249.85 660.83 249.42 660.3 249.42C659.76 249.42 659.32 249.85 659.32 250.39C659.32 250.93 659.76 251.36 660.3 251.36Z" /></g></g></g><g ><g ><path class="shp4" d="M673.81 235.47C673.65 234.68 672.94 234.07 672.24 233.44C673.65 233.31 675.06 233.32 676.47 233.44C675.83 234.09 674.92 234.67 674.86 235.47C675.68 235.12 676.21 234.4 676.84 233.81C676.69 235 676.79 236.19 676.84 237.38C676.21 236.87 675.68 236.24 674.86 236.01C675.1 236.75 675.7 237.32 676.48 237.79L672.2 237.79C672.91 237.3 673.55 236.76 673.81 236.01C673.04 236.26 672.48 236.91 671.85 237.44C671.96 236.24 671.95 235.04 671.85 233.84C672.45 234.49 673.01 235.23 673.81 235.47L673.81 235.47Z" /><path class="shp5" d="M674.34 236.55C674.86 236.55 675.28 236.14 675.28 235.62C675.28 235.1 674.86 234.69 674.34 234.69C673.83 234.69 673.41 235.1 673.41 235.62C673.41 236.14 673.83 236.55 674.34 236.55Z" /><path class="shp4" d="M674.34 242.93C672.94 242.93 671.81 241.79 671.81 240.39C671.81 238.99 672.94 237.85 674.34 237.85C675.75 237.85 676.88 238.99 676.88 240.39C676.88 241.79 675.75 242.93 674.34 242.93Z" /><path class="shp4" d="M674.24 237.59C674.01 237.59 673.82 237.78 673.82 238.01L673.82 239.7L672.13 239.7C671.89 239.7 671.7 239.89 671.7 240.12L671.7 240.31C671.7 240.54 671.89 240.73 672.13 240.73L676.57 240.73C676.8 240.73 676.99 240.54 676.99 240.31L676.99 240.12C676.99 239.89 676.8 239.7 676.57 239.7L674.88 239.7L674.88 238.01C674.88 237.78 674.69 237.59 674.46 237.59L674.24 237.59L674.24 237.59Z" /></g><g ><path class="shp4" d="M672.5 243.05L676.19 243.05L676.19 249.31L672.5 249.31L672.5 243.05Z" /><g ><path class="shp6" d="M672.25 242.75L673.27 242.75L673.27 249.46L672.25 249.46L672.25 242.75Z" /><path class="shp6" d="M675.42 242.75L676.44 242.75L676.44 249.46L675.42 249.46L675.42 242.75Z" /></g><path class="shp5" d="M674.34 244.06C674.88 244.06 675.32 243.62 675.32 243.09C675.32 242.55 674.88 242.12 674.34 242.12C673.81 242.12 673.37 242.55 673.37 243.09C673.37 243.62 673.81 244.06 674.34 244.06Z" /><path class="shp5" d="M674.34 245.86C674.88 245.86 675.32 245.42 675.32 244.89C675.32 244.35 674.88 243.92 674.34 243.92C673.81 243.92 673.37 244.35 673.37 244.89C673.37 245.42 673.81 245.86 674.34 245.86Z" /><path class="shp5" d="M674.34 247.66C674.88 247.66 675.32 247.22 675.32 246.69C675.32 246.15 674.88 245.72 674.34 245.72C673.81 245.72 673.37 246.15 673.37 246.69C673.37 247.22 673.81 247.66 674.34 247.66Z" /><path class="shp5" d="M674.34 249.47C674.88 249.47 675.32 249.04 675.32 248.5C675.32 247.96 674.88 247.53 674.34 247.53C673.81 247.53 673.37 247.96 673.37 248.5C673.37 249.04 673.81 249.47 674.34 249.47Z" /></g></g><g ><g ><path class="shp4" d="M662.66 255.11C665.36 257.27 667.41 257.45 668.5 254.75C670.45 255.98 672.4 256.23 674.34 254.39C676.29 256.36 678.24 256.19 680.19 254.75C680.89 257.61 682.9 257.6 686.03 255.11L684.66 261.48L664.07 261.54L662.66 255.11Z" /><g ><path class="shp7" d="M672.71 257.05L675.98 257.05L675.98 258.81L672.71 258.81L672.71 257.05Z" /><path class="shp8" d="M669.17 259.25C668.32 259.37 667.54 259.08 667.43 258.6C667.32 258.12 667.91 257.64 668.76 257.52C669.6 257.4 670.38 257.69 670.49 258.17C670.61 258.65 670.01 259.13 669.17 259.25Z" /><path class="shp3" d="M663.79 259.82L665.37 258.71L662.98 257.85C662.98 257.85 662.61 258.18 662.54 258.46C662.44 258.85 662.45 259.12 662.71 259.44C662.95 259.72 663.79 259.82 663.79 259.82Z" /><path class="shp8" d="M679.52 259.25C680.37 259.37 681.15 259.08 681.26 258.6C681.37 258.12 680.78 257.64 679.93 257.52C679.09 257.4 678.31 257.69 678.2 258.17C678.08 258.65 678.68 259.13 679.52 259.25Z" /><path class="shp3" d="M684.9 259.82L683.32 258.71L685.71 257.85C685.71 257.85 686.08 258.18 686.15 258.46C686.25 258.85 686.24 259.12 685.98 259.44C685.74 259.72 684.9 259.82 684.9 259.82Z" /></g></g><g ><path class="shp4" d="M671.82 256.4C670.92 256.52 670 256.18 669.21 255.44C668.53 256.65 667.37 257.27 666.17 257.34C664.98 257.4 663.75 256.92 662.91 255.93C662.66 255.29 662.4 254.68 662.16 254.21C661.71 253.29 660.75 251.57 660.75 251.57C661.71 250.96 662.54 250.47 663.68 250.4C663.19 251.62 663.22 252.47 663.21 253.35C664.24 253.18 664.71 252.46 665.26 251.96L665.91 254.52C664.88 254.09 664.2 254.31 663.54 254.56C663.54 254.56 663.96 255.33 664.28 255.6C664.65 255.91 665.05 256.08 665.54 256.16C665.99 256.24 666.51 256.27 666.93 256.08C667.81 255.68 668.26 254.81 668.13 254.86C668.13 254.86 668.22 254.1 668 253.82C667.83 253.62 667.48 253.45 667.21 253.52C666.78 253.63 666.56 254.52 666.56 254.52C666.56 254.52 666.15 253.76 666.05 253.35C665.95 252.98 665.82 252.56 666 252.22C666.13 251.97 666.45 251.8 666.74 251.75C667.13 251.68 667.86 252.01 667.86 252.01C667.86 252.01 667.64 251.33 667.58 250.97C667.55 250.78 667.59 250.53 667.67 250.36C667.85 249.96 668.13 249.75 668.31 249.53C668.54 249.75 668.84 249.83 669.11 250.17C669.23 250.32 669.34 250.55 669.36 250.74C669.4 251.1 669.37 251.81 669.37 251.81C669.37 251.81 669.98 251.33 670.38 251.3C670.68 251.28 671.03 251.38 671.22 251.59C671.49 251.88 671.47 252.32 671.47 252.7C671.48 253.12 671.29 253.95 671.29 253.95C671.29 253.95 670.83 253.14 670.39 253.13C670.12 253.12 669.82 253.37 669.71 253.61C669.56 253.92 669.85 254.65 669.85 254.65C671.59 255.91 673.38 254.61 673.75 253.35L673.75 252.87C673.02 252.97 672.71 253.08 671.99 253.87L671.76 250.71C672.45 251.29 673.06 251.5 673.75 251.4C673.69 250.48 673.16 250.09 672.36 249.29C673.67 248.96 675.06 248.88 676.33 249.29C675.53 250.09 675 250.48 674.94 251.4C675.63 251.5 676.24 251.29 676.93 250.71L676.7 253.87C675.97 253.08 675.67 252.97 674.94 252.87L674.94 253.35C675.31 254.61 677.1 255.91 678.84 254.65C678.84 254.65 679.13 253.92 678.98 253.61C678.87 253.37 678.57 253.12 678.29 253.13C677.85 253.14 677.4 253.95 677.4 253.95C677.4 253.95 677.21 253.12 677.22 252.7C677.22 252.32 677.2 251.88 677.47 251.59C677.66 251.38 678.01 251.28 678.31 251.3C678.71 251.33 679.32 251.81 679.32 251.81C679.32 251.81 679.29 251.1 679.33 250.74C679.35 250.55 679.46 250.32 679.58 250.17C679.85 249.83 680.15 249.75 680.38 249.53C680.56 249.75 680.84 249.96 681.02 250.36C681.1 250.53 681.14 250.78 681.11 250.97C681.05 251.33 680.83 252.01 680.83 252.01C680.83 252.01 681.56 251.68 681.95 251.75C682.24 251.8 682.56 251.97 682.69 252.22C682.87 252.56 682.73 252.98 682.64 253.35C682.54 253.76 682.13 254.52 682.13 254.52C682.13 254.52 681.91 253.63 681.48 253.52C681.21 253.45 680.86 253.62 680.69 253.82C680.47 254.1 680.55 254.86 680.55 254.86C680.43 254.81 680.88 255.68 681.76 256.08C682.18 256.27 682.7 256.24 683.15 256.16C683.64 256.08 684.04 255.91 684.41 255.6C684.73 255.33 685.15 254.56 685.15 254.56C684.49 254.31 683.81 254.09 682.78 254.52L683.43 251.96C683.98 252.46 684.45 253.18 685.48 253.35C685.47 252.47 685.5 251.62 685.01 250.4C686.11 250.41 687.02 250.99 687.94 251.57C687.94 251.57 686.98 253.29 686.52 254.21C686.29 254.68 686.03 255.29 685.77 255.93C684.94 256.92 683.71 257.4 682.52 257.34C681.32 257.27 680.16 256.65 679.48 255.44C678.69 256.18 677.77 256.52 676.87 256.4C675.98 256.27 675.12 255.7 674.34 254.59C673.57 255.7 672.71 256.27 671.82 256.4L671.82 256.4Z" /><g ><path class="shp5" d="M674.34 253.04C674.88 253.04 675.32 252.61 675.32 252.07C675.32 251.53 674.88 251.1 674.34 251.1C673.81 251.1 673.37 251.53 673.37 252.07C673.37 252.61 673.81 253.04 674.34 253.04Z" /><g ><path class="shp5" d="M662.64 255.08C663.18 255.08 663.61 254.64 663.61 254.11C663.61 253.57 663.18 253.14 662.64 253.14C662.1 253.14 661.67 253.57 661.67 254.11C661.67 254.64 662.1 255.08 662.64 255.08Z" /><path class="shp5" d="M686.05 255.08C686.59 255.08 687.02 254.64 687.02 254.11C687.02 253.57 686.59 253.14 686.05 253.14C685.51 253.14 685.08 253.57 685.08 254.11C685.08 254.64 685.51 255.08 686.05 255.08Z" /></g></g><g ><path class="shp4" d="M667.46 253.86L670.21 253.47L670.38 254.65L667.63 255.04L667.46 253.86Z" /><path class="shp4" d="M681.23 253.86L678.48 253.47L678.31 254.65L681.06 255.04L681.23 253.86Z" /></g></g><g ><path class="shp9" d="M674.34 265.05C668.29 265.05 663.4 264.17 663.4 263.08C663.4 261.99 668.29 261.11 674.34 261.11C680.4 261.11 685.29 261.99 685.29 263.08C685.29 264.17 680.4 265.05 674.34 265.05Z" /><g ><path class="shp5" d="M663.94 263.55C671.13 262.08 678.06 262.22 684.85 263.56C686.02 263.92 686.29 261.42 685.15 260.89C678.07 258.93 665.5 260.06 663.52 260.89C662.92 260.79 662.1 263.48 663.94 263.55L663.94 263.55Z" /><g ><path class="shp10" d="M673.08 261.78C673.08 261.78 674 261.42 674.48 261.34C674.98 261.25 676.01 261.26 676.01 261.26L675.43 260.99C675.43 260.99 674.89 260.91 674.42 260.78C674.16 260.7 673.85 260.57 673.58 260.56C673.25 260.55 672.77 260.67 672.77 260.67L673.68 260.88C673.68 260.88 673.41 260.94 673.21 261.01C673.07 261.05 672.68 261.25 672.68 261.25L673.72 261.26C673.72 261.26 673.42 261.39 673.3 261.49C673.21 261.57 673.08 261.78 673.08 261.78L673.08 261.78L673.08 261.78Z" /><path class="shp10" d="M668.84 262.01C668.84 262.01 669.71 261.55 670.18 261.41C670.66 261.26 671.68 261.15 671.68 261.15L671.07 260.95C671.07 260.95 670.52 260.94 670.04 260.87C669.77 260.82 669.44 260.73 669.18 260.75C668.84 260.77 668.38 260.95 668.38 260.95L669.31 261.05C669.31 261.05 669.06 261.15 668.87 261.23C668.74 261.3 668.38 261.54 668.38 261.54L669.41 261.42C669.41 261.42 669.13 261.59 669.02 261.71C668.94 261.8 668.84 262.01 668.84 262.01L668.84 262.01L668.84 262.01Z" /><path class="shp10" d="M677.35 261.97C677.35 261.97 678.3 261.67 678.78 261.62C679.29 261.55 680.31 261.62 680.31 261.62L679.76 261.32C679.76 261.32 679.21 261.22 678.76 261.06C678.5 260.97 678.2 260.81 677.94 260.79C677.6 260.76 677.12 260.85 677.12 260.85L678.01 261.12C678.01 261.12 677.74 261.16 677.54 261.21C677.39 261.25 676.99 261.43 676.99 261.43L678.03 261.49C678.03 261.49 677.72 261.61 677.59 261.7C677.49 261.78 677.35 261.97 677.35 261.97L677.35 261.97L677.35 261.97Z" /><path class="shp10" d="M664.7 262.49C664.7 262.49 665.5 261.94 665.95 261.74C666.41 261.55 667.41 261.32 667.41 261.32L666.78 261.19C666.78 261.19 666.23 261.24 665.75 261.22C665.47 261.21 665.14 261.15 664.88 261.19C664.55 261.26 664.11 261.49 664.11 261.49L665.05 261.49C665.05 261.49 664.81 261.6 664.63 261.71C664.51 261.79 664.18 262.07 664.18 262.07L665.19 261.84C665.19 261.84 664.93 262.04 664.84 262.17C664.77 262.26 664.7 262.49 664.7 262.49L664.7 262.49L664.7 262.49Z" /><path class="shp10" d="M681.6 262.41C681.6 262.41 682.57 262.2 683.06 262.19C683.57 262.18 684.58 262.35 684.58 262.35L684.06 262C684.06 262 683.53 261.84 683.1 261.63C682.85 261.52 682.57 261.34 682.31 261.29C681.98 261.22 681.49 261.27 681.49 261.27L682.34 261.62C682.34 261.62 682.07 261.64 681.87 261.67C681.72 261.7 681.3 261.83 681.3 261.83L682.32 262C682.32 262 682 262.08 681.86 262.17C681.76 262.23 681.6 262.41 681.6 262.41L681.6 262.41L681.6 262.41Z" /></g></g></g></g></g></g><g ><g ><g ></g><g ><path class="shp3" d="M626.53 328.87L633.69 329.56L636.61 328.87C636.61 328.87 638.7 326.43 638.86 324.97C638.94 324.3 638.27 323.7 638.24 323.03C638.23 322.68 638.5 322.35 638.5 322.01C638.5 321.4 638.42 320.74 638.04 320.25C637.74 319.85 637.08 319.38 636.56 319.26C635.09 318.94 634.57 319.48 633.31 320.25C631.67 318.42 629.03 318.07 626.63 317.91C626.4 317.89 626.17 317.89 625.94 317.91C623.62 318.07 621.43 318.31 619.85 320.25C618.59 319.48 617.47 318.94 616 319.26C615.48 319.38 614.83 319.85 614.52 320.25C614.14 320.74 614.06 321.4 614.06 322.01C614.06 322.35 614.33 322.68 614.32 323.03C614.3 323.7 613.63 324.3 613.7 324.97C613.87 326.43 615.96 328.87 615.96 328.87L618.87 329.56L626.04 328.87L626.53 328.87Z" /><g ><g ><path class="shp4" d="M626.18 313.96C628.52 314.04 631.38 314.71 633.95 316.16C636.52 317.61 638.81 319.87 639.73 323.08L638.02 323.57C637.26 320.9 635.36 319 633.08 317.71C630.8 316.43 628.15 315.8 626.12 315.73L626.18 313.96L626.18 313.96Z" /><g ><path class="shp5" d="M629.61 314.46C629.08 314.46 628.64 314.02 628.64 313.48C628.64 312.95 629.08 312.51 629.61 312.51C630.15 312.51 630.59 312.95 630.59 313.48C630.59 314.02 630.15 314.46 629.61 314.46Z" /><path class="shp5" d="M631.55 315.07C631.01 315.07 630.58 314.63 630.58 314.1C630.58 313.56 631.01 313.12 631.55 313.12C632.09 313.12 632.52 313.56 632.52 314.1C632.52 314.63 632.09 315.07 631.55 315.07Z" /><path class="shp5" d="M633.41 315.81C632.88 315.81 632.44 315.38 632.44 314.84C632.44 314.3 632.88 313.87 633.41 313.87C633.95 313.87 634.38 314.3 634.38 314.84C634.38 315.38 633.95 315.81 633.41 315.81Z" /><path class="shp5" d="M635.19 316.79C634.65 316.79 634.22 316.35 634.22 315.82C634.22 315.28 634.65 314.84 635.19 314.84C635.73 314.84 636.16 315.28 636.16 315.82C636.16 316.35 635.73 316.79 635.19 316.79Z" /><path class="shp5" d="M636.8 317.99C636.26 317.99 635.83 317.56 635.83 317.02C635.83 316.48 636.26 316.05 636.8 316.05C637.33 316.05 637.77 316.48 637.77 317.02C637.77 317.56 637.33 317.99 636.8 317.99Z" /><path class="shp5" d="M638.23 319.37C637.69 319.37 637.26 318.93 637.26 318.4C637.26 317.86 637.69 317.43 638.23 317.43C638.77 317.43 639.2 317.86 639.2 318.4C639.2 318.93 638.77 319.37 638.23 319.37Z" /><path class="shp5" d="M639.41 321C638.87 321 638.44 320.57 638.44 320.03C638.44 319.49 638.87 319.06 639.41 319.06C639.94 319.06 640.38 319.49 640.38 320.03C640.38 320.57 639.94 321 639.41 321Z" /><path class="shp5" d="M640.33 322.8C639.79 322.8 639.36 322.37 639.36 321.83C639.36 321.3 639.79 320.86 640.33 320.86C640.87 320.86 641.3 321.3 641.3 321.83C641.3 322.37 640.87 322.8 640.33 322.8Z" /></g></g><g ><path class="shp4" d="M626.38 313.96C624.05 314.04 621.18 314.71 618.61 316.16C616.04 317.61 613.75 319.87 612.83 323.08L614.54 323.57C615.31 320.9 617.2 319 619.48 317.71C621.76 316.43 624.42 315.8 626.44 315.73L626.38 313.96L626.38 313.96Z" /><g ><path class="shp5" d="M622.95 314.46C623.49 314.46 623.92 314.02 623.92 313.48C623.92 312.95 623.49 312.51 622.95 312.51C622.41 312.51 621.98 312.95 621.98 313.48C621.98 314.02 622.41 314.46 622.95 314.46Z" /><path class="shp5" d="M621.02 315.07C621.55 315.07 621.99 314.63 621.99 314.1C621.99 313.56 621.55 313.12 621.02 313.12C620.48 313.12 620.04 313.56 620.04 314.1C620.04 314.63 620.48 315.07 621.02 315.07Z" /><path class="shp5" d="M619.15 315.81C619.69 315.81 620.12 315.38 620.12 314.84C620.12 314.3 619.69 313.87 619.15 313.87C618.61 313.87 618.18 314.3 618.18 314.84C618.18 315.38 618.61 315.81 619.15 315.81Z" /><path class="shp5" d="M617.37 316.79C617.91 316.79 618.34 316.35 618.34 315.82C618.34 315.28 617.91 314.84 617.37 314.84C616.84 314.84 616.4 315.28 616.4 315.82C616.4 316.35 616.84 316.79 617.37 316.79Z" /><path class="shp5" d="M615.77 317.99C616.3 317.99 616.74 317.56 616.74 317.02C616.74 316.48 616.3 316.05 615.77 316.05C615.23 316.05 614.8 316.48 614.8 317.02C614.8 317.56 615.23 317.99 615.77 317.99Z" /><path class="shp5" d="M614.33 319.37C614.87 319.37 615.3 318.93 615.3 318.4C615.3 317.86 614.87 317.43 614.33 317.43C613.8 317.43 613.36 317.86 613.36 318.4C613.36 318.93 613.8 319.37 614.33 319.37Z" /><path class="shp5" d="M613.16 321C613.7 321 614.13 320.57 614.13 320.03C614.13 319.49 613.7 319.06 613.16 319.06C612.62 319.06 612.19 319.49 612.19 320.03C612.19 320.57 612.62 321 613.16 321Z" /><path class="shp5" d="M612.23 322.8C612.77 322.8 613.2 322.37 613.2 321.83C613.2 321.3 612.77 320.86 612.23 320.86C611.7 320.86 611.26 321.3 611.26 321.83C611.26 322.37 611.7 322.8 612.23 322.8Z" /></g></g></g><g ><g ><path class="shp4" d="M625.75 306.92C625.58 306.13 624.87 305.51 624.18 304.89C625.59 304.76 627 304.76 628.4 304.89C627.77 305.54 626.86 306.11 626.8 306.92C627.62 306.56 628.14 305.84 628.78 305.25C628.63 306.44 628.73 307.63 628.78 308.82C628.15 308.32 627.61 307.68 626.8 307.45C627.04 308.19 627.64 308.76 628.42 309.24L624.13 309.24C624.84 308.74 625.49 308.2 625.75 307.45C624.97 307.71 624.41 308.36 623.79 308.89C623.9 307.69 623.89 306.49 623.79 305.28C624.39 305.94 624.95 306.68 625.75 306.92L625.75 306.92Z" /><path class="shp5" d="M626.28 308C626.8 308 627.22 307.58 627.22 307.06C627.22 306.55 626.8 306.13 626.28 306.13C625.77 306.13 625.35 306.55 625.35 307.06C625.35 307.58 625.77 308 626.28 308Z" /><path class="shp4" d="M626.28 314.37C624.88 314.37 623.75 313.24 623.75 311.83C623.75 310.43 624.88 309.3 626.28 309.3C627.69 309.3 628.82 310.43 628.82 311.83C628.82 313.24 627.69 314.37 626.28 314.37Z" /><path class="shp4" d="M626.18 309.04C625.95 309.04 625.76 309.23 625.76 309.46L625.76 311.14L624.07 311.14C623.83 311.14 623.64 311.33 623.64 311.57L623.64 311.75C623.64 311.99 623.83 312.18 624.07 312.18L628.51 312.18C628.74 312.18 628.93 311.99 628.93 311.75L628.93 311.57C628.93 311.33 628.74 311.14 628.51 311.14L626.81 311.14L626.81 309.46C626.81 309.23 626.63 309.04 626.39 309.04L626.18 309.04L626.18 309.04Z" /></g><g ><path class="shp4" d="M624.44 314.49L628.13 314.49L628.13 320.75L624.44 320.75L624.44 314.49Z" /><g ><path class="shp6" d="M624.19 314.2L625.2 314.2L625.2 320.9L624.19 320.9L624.19 314.2Z" /><path class="shp6" d="M627.36 314.2L628.37 314.2L628.37 320.9L627.36 320.9L627.36 314.2Z" /></g><path class="shp5" d="M626.28 315.5C626.82 315.5 627.25 315.07 627.25 314.53C627.25 313.99 626.82 313.56 626.28 313.56C625.75 313.56 625.31 313.99 625.31 314.53C625.31 315.07 625.75 315.5 626.28 315.5Z" /><path class="shp5" d="M626.28 317.3C626.82 317.3 627.25 316.87 627.25 316.33C627.25 315.79 626.82 315.36 626.28 315.36C625.75 315.36 625.31 315.79 625.31 316.33C625.31 316.87 625.75 317.3 626.28 317.3Z" /><path class="shp5" d="M626.28 319.1C626.82 319.1 627.25 318.67 627.25 318.13C627.25 317.6 626.82 317.16 626.28 317.16C625.75 317.16 625.31 317.6 625.31 318.13C625.31 318.67 625.75 319.1 626.28 319.1Z" /><path class="shp5" d="M626.28 320.92C626.82 320.92 627.25 320.48 627.25 319.95C627.25 319.41 626.82 318.98 626.28 318.98C625.75 318.98 625.31 319.41 625.31 319.95C625.31 320.48 625.75 320.92 626.28 320.92Z" /></g></g><g ><g ><path class="shp4" d="M614.59 326.55C617.3 328.72 619.35 328.89 620.44 326.2C622.39 327.43 624.33 327.68 626.28 325.84C628.23 327.8 630.18 327.63 632.13 326.2C632.83 329.06 634.84 329.04 637.97 326.55L636.6 332.92L616.01 332.99L614.59 326.55Z" /><g ><path class="shp7" d="M624.65 328.5L627.91 328.5L627.91 330.26L624.65 330.26L624.65 328.5Z" /><path class="shp8" d="M621.11 330.7C620.26 330.82 619.48 330.53 619.37 330.05C619.25 329.57 619.85 329.09 620.69 328.97C621.54 328.85 622.32 329.14 622.43 329.61C622.54 330.09 621.95 330.58 621.11 330.7Z" /><path class="shp3" d="M615.72 331.26L617.31 330.15L614.91 329.3C614.91 329.3 614.55 329.63 614.48 329.91C614.38 330.3 614.38 330.57 614.65 330.88C614.89 331.16 615.72 331.26 615.72 331.26Z" /><path class="shp8" d="M631.46 330.7C632.31 330.82 633.08 330.53 633.2 330.05C633.31 329.57 632.72 329.09 631.87 328.97C631.03 328.85 630.25 329.14 630.13 329.61C630.02 330.09 630.61 330.58 631.46 330.7Z" /><path class="shp3" d="M636.84 331.26L635.26 330.15L637.65 329.3C637.65 329.3 638.02 329.63 638.09 329.91C638.18 330.3 638.18 330.57 637.91 330.88C637.67 331.16 636.84 331.26 636.84 331.26Z" /></g></g><g ><path class="shp4" d="M623.76 327.84C622.86 327.96 621.94 327.62 621.15 326.89C620.47 328.1 619.31 328.72 618.1 328.78C616.92 328.84 615.69 328.37 614.85 327.37C614.6 326.73 614.34 326.13 614.1 325.65C613.64 324.73 612.69 323.02 612.69 323.02C613.65 322.41 614.48 321.92 615.62 321.85C615.13 323.06 615.16 323.91 615.15 324.79C616.18 324.63 616.65 323.9 617.19 323.41L617.84 325.96C616.82 325.54 616.14 325.75 615.48 326.01C615.48 326.01 615.9 326.78 616.22 327.05C616.59 327.35 616.99 327.53 617.47 327.61C617.93 327.69 618.45 327.71 618.87 327.52C619.75 327.12 620.2 326.25 620.07 326.31C620.07 326.31 620.16 325.55 619.93 325.27C619.76 325.06 619.41 324.9 619.14 324.97C618.72 325.08 618.49 325.96 618.49 325.96C618.49 325.96 618.09 325.21 617.98 324.79C617.89 324.43 617.76 324 617.94 323.67C618.07 323.42 618.38 323.24 618.68 323.19C619.07 323.12 619.79 323.45 619.79 323.45C619.79 323.45 619.58 322.77 619.52 322.41C619.48 322.23 619.53 321.98 619.61 321.8C619.78 321.41 620.06 321.2 620.24 320.97C620.48 321.19 620.77 321.27 621.05 321.62C621.17 321.77 621.28 322 621.3 322.18C621.33 322.55 621.3 323.26 621.3 323.26C621.3 323.26 621.92 322.77 622.31 322.75C622.61 322.73 622.96 322.83 623.16 323.04C623.42 323.32 623.4 323.77 623.41 324.14C623.42 324.57 623.22 325.39 623.22 325.39C623.22 325.39 622.77 324.59 622.33 324.58C622.05 324.57 621.76 324.81 621.65 325.05C621.5 325.37 621.79 326.09 621.79 326.09C623.52 327.36 625.32 326.06 625.69 324.79L625.69 324.32C624.96 324.41 624.65 324.53 623.93 325.31L623.69 322.15C624.39 322.74 624.99 322.95 625.69 322.84C625.62 321.93 625.1 321.54 624.3 320.73C625.61 320.4 627 320.32 628.27 320.73C627.46 321.54 626.94 321.93 626.88 322.84C627.57 322.95 628.18 322.74 628.87 322.15L628.64 325.31C627.91 324.53 627.6 324.41 626.88 324.32L626.88 324.79C627.24 326.06 629.04 327.36 630.78 326.09C630.78 326.09 631.07 325.37 630.92 325.05C630.81 324.81 630.51 324.57 630.23 324.58C629.79 324.59 629.34 325.39 629.34 325.39C629.34 325.39 629.14 324.57 629.15 324.14C629.16 323.77 629.14 323.32 629.4 323.04C629.6 322.83 629.95 322.73 630.25 322.75C630.65 322.77 631.26 323.26 631.26 323.26C631.26 323.26 631.23 322.55 631.27 322.18C631.28 322 631.39 321.77 631.52 321.62C631.79 321.27 632.08 321.19 632.32 320.97C632.5 321.2 632.78 321.41 632.96 321.8C633.03 321.98 633.08 322.23 633.05 322.41C632.99 322.77 632.77 323.45 632.77 323.45C632.77 323.45 633.49 323.12 633.88 323.19C634.18 323.24 634.49 323.42 634.63 323.67C634.81 324 634.67 324.43 634.58 324.79C634.48 325.21 634.07 325.96 634.07 325.96C634.07 325.96 633.84 325.08 633.42 324.97C633.15 324.9 632.8 325.06 632.63 325.27C632.4 325.55 632.49 326.31 632.49 326.31C632.37 326.25 632.82 327.12 633.7 327.52C634.12 327.71 634.63 327.69 635.09 327.61C635.58 327.53 635.98 327.35 636.34 327.05C636.66 326.78 637.09 326.01 637.09 326.01C636.43 325.75 635.74 325.54 634.72 325.96L635.37 323.41C635.92 323.9 636.39 324.63 637.41 324.79C637.4 323.91 637.44 323.06 636.95 321.85C638.05 321.85 638.96 322.43 639.87 323.02C639.87 323.02 638.92 324.73 638.46 325.65C638.23 326.13 637.97 326.73 637.71 327.37C636.87 328.37 635.65 328.84 634.46 328.78C633.26 328.72 632.09 328.1 631.42 326.89C630.63 327.62 629.7 327.96 628.81 327.84C627.92 327.72 627.05 327.14 626.28 326.04C625.51 327.14 624.65 327.72 623.76 327.84L623.76 327.84Z" /><g ><path class="shp5" d="M626.28 324.49C626.82 324.49 627.25 324.05 627.25 323.52C627.25 322.98 626.82 322.54 626.28 322.54C625.75 322.54 625.31 322.98 625.31 323.52C625.31 324.05 625.75 324.49 626.28 324.49Z" /><g ><path class="shp5" d="M614.58 326.52C615.11 326.52 615.55 326.09 615.55 325.55C615.55 325.02 615.11 324.58 614.58 324.58C614.04 324.58 613.61 325.02 613.61 325.55C613.61 326.09 614.04 326.52 614.58 326.52Z" /><path class="shp5" d="M637.99 326.52C638.52 326.52 638.96 326.09 638.96 325.55C638.96 325.02 638.52 324.58 637.99 324.58C637.45 324.58 637.02 325.02 637.02 325.55C637.02 326.09 637.45 326.52 637.99 326.52Z" /></g></g><g ><path class="shp4" d="M619.4 325.31L622.15 324.92L622.32 326.1L619.56 326.49L619.4 325.31Z" /><path class="shp4" d="M633.17 325.31L630.42 324.92L630.25 326.1L633 326.49L633.17 325.31Z" /></g></g><g ><path class="shp9" d="M626.28 336.5C620.23 336.5 615.34 335.61 615.34 334.52C615.34 333.43 620.23 332.55 626.28 332.55C632.33 332.55 637.23 333.43 637.23 334.52C637.23 335.61 632.33 336.5 626.28 336.5Z" /><g ><path class="shp5" d="M615.87 334.99C623.07 333.52 630 333.66 636.79 335C637.96 335.36 638.23 332.87 637.08 332.34C630 330.38 617.44 331.5 615.46 332.34C614.86 332.24 614.04 334.93 615.87 334.99L615.87 334.99Z" /><g ><path class="shp10" d="M625.02 333.22C625.02 333.22 625.94 332.87 626.42 332.78C626.92 332.69 627.94 332.7 627.94 332.7L627.37 332.44C627.37 332.44 626.82 332.36 626.36 332.23C626.1 332.15 625.79 332.02 625.52 332C625.18 331.99 624.71 332.11 624.71 332.11L625.61 332.33C625.61 332.33 625.35 332.39 625.15 332.45C625.01 332.5 624.62 332.69 624.62 332.69L625.66 332.7C625.66 332.7 625.36 332.84 625.24 332.94C625.14 333.02 625.02 333.22 625.02 333.22L625.02 333.22L625.02 333.22Z" /><path class="shp10" d="M620.78 333.46C620.78 333.46 621.65 333 622.11 332.85C622.6 332.71 623.61 332.6 623.61 332.6L623.01 332.4C623.01 332.4 622.46 332.39 621.98 332.31C621.7 332.27 621.38 332.17 621.12 332.19C620.78 332.22 620.32 332.4 620.32 332.4L621.25 332.5C621.25 332.5 621 332.59 620.81 332.68C620.68 332.74 620.32 332.98 620.32 332.98L621.34 332.87C621.34 332.87 621.07 333.03 620.96 333.15C620.88 333.24 620.78 333.46 620.78 333.46L620.78 333.46L620.78 333.46Z" /><path class="shp10" d="M629.29 333.42C629.29 333.42 630.23 333.12 630.72 333.06C631.23 333 632.25 333.07 632.25 333.07L631.69 332.77C631.69 332.77 631.15 332.66 630.7 332.5C630.44 332.41 630.14 332.26 629.87 332.23C629.54 332.2 629.05 332.3 629.05 332.3L629.95 332.56C629.95 332.56 629.68 332.61 629.48 332.66C629.33 332.7 628.93 332.87 628.93 332.87L629.96 332.94C629.96 332.94 629.66 333.05 629.53 333.15C629.43 333.22 629.29 333.42 629.29 333.42L629.29 333.42L629.29 333.42Z" /><path class="shp10" d="M616.64 333.93C616.64 333.93 617.44 333.38 617.89 333.19C618.35 332.99 619.34 332.77 619.34 332.77L618.72 332.64C618.72 332.64 618.17 332.69 617.68 332.66C617.41 332.65 617.07 332.59 616.81 332.64C616.48 332.7 616.05 332.93 616.05 332.93L616.99 332.93C616.99 332.93 616.75 333.05 616.57 333.16C616.45 333.24 616.12 333.51 616.12 333.51L617.13 333.29C617.13 333.29 616.87 333.48 616.78 333.61C616.71 333.71 616.64 333.93 616.64 333.93L616.64 333.93L616.64 333.93Z" /><path class="shp10" d="M633.54 333.86C633.54 333.86 634.5 333.65 635 333.64C635.51 333.63 636.51 333.79 636.51 333.79L636 333.44C636 333.44 635.47 333.28 635.04 333.08C634.79 332.96 634.51 332.78 634.25 332.73C633.92 332.67 633.42 332.72 633.42 332.72L634.28 333.06C634.28 333.06 634.01 333.08 633.8 333.12C633.66 333.14 633.24 333.28 633.24 333.28L634.26 333.44C634.26 333.44 633.94 333.53 633.8 333.61C633.7 333.67 633.54 333.86 633.54 333.86L633.54 333.86L633.54 333.86Z" /></g></g></g></g></g></g><g ><g ></g><g ><path class="shp3" d="M720.86 328.87L728.03 329.56L730.95 328.87C730.95 328.87 733.03 326.43 733.2 324.97C733.27 324.3 732.6 323.7 732.58 323.03C732.57 322.68 732.84 322.35 732.84 322.01C732.83 321.4 732.76 320.74 732.38 320.25C732.08 319.85 731.42 319.38 730.9 319.26C729.43 318.94 728.91 319.48 727.65 320.25C726.01 318.42 723.37 318.07 720.97 317.91C720.74 317.89 720.5 317.89 720.27 317.91C717.96 318.07 715.77 318.31 714.18 320.25C712.92 319.48 711.81 318.94 710.34 319.26C709.82 319.38 709.16 319.85 708.86 320.25C708.48 320.74 708.4 321.4 708.4 322.01C708.4 322.35 708.67 322.68 708.66 323.03C708.64 323.7 707.97 324.3 708.04 324.97C708.21 326.43 710.29 328.87 710.29 328.87L713.21 329.56L720.38 328.87L720.86 328.87Z" /><g ><g ><path class="shp4" d="M720.52 313.96C722.85 314.04 725.72 314.71 728.29 316.16C730.86 317.61 733.15 319.87 734.07 323.08L732.36 323.57C731.59 320.9 729.7 319 727.42 317.71C725.14 316.43 722.49 315.8 720.46 315.73L720.52 313.96L720.52 313.96Z" /><g ><path class="shp5" d="M723.95 314.46C723.42 314.46 722.98 314.02 722.98 313.48C722.98 312.95 723.42 312.51 723.95 312.51C724.49 312.51 724.92 312.95 724.92 313.48C724.92 314.02 724.49 314.46 723.95 314.46Z" /><path class="shp5" d="M725.89 315.07C725.35 315.07 724.92 314.63 724.92 314.1C724.92 313.56 725.35 313.12 725.89 313.12C726.42 313.12 726.86 313.56 726.86 314.1C726.86 314.63 726.42 315.07 725.89 315.07Z" /><path class="shp5" d="M727.75 315.81C727.21 315.81 726.78 315.38 726.78 314.84C726.78 314.3 727.21 313.87 727.75 313.87C728.29 313.87 728.72 314.3 728.72 314.84C728.72 315.38 728.29 315.81 727.75 315.81Z" /><path class="shp5" d="M729.53 316.79C728.99 316.79 728.56 316.35 728.56 315.82C728.56 315.28 728.99 314.84 729.53 314.84C730.07 314.84 730.5 315.28 730.5 315.82C730.5 316.35 730.07 316.79 729.53 316.79Z" /><path class="shp5" d="M731.13 317.99C730.6 317.99 730.16 317.56 730.16 317.02C730.16 316.48 730.6 316.05 731.13 316.05C731.67 316.05 732.1 316.48 732.1 317.02C732.1 317.56 731.67 317.99 731.13 317.99Z" /><path class="shp5" d="M732.57 319.37C732.03 319.37 731.6 318.93 731.6 318.4C731.6 317.86 732.03 317.43 732.57 317.43C733.1 317.43 733.54 317.86 733.54 318.4C733.54 318.93 733.1 319.37 732.57 319.37Z" /><path class="shp5" d="M733.74 321C733.21 321 732.77 320.57 732.77 320.03C732.77 319.49 733.21 319.06 733.74 319.06C734.28 319.06 734.71 319.49 734.71 320.03C734.71 320.57 734.28 321 733.74 321Z" /><path class="shp5" d="M734.67 322.8C734.13 322.8 733.7 322.37 733.7 321.83C733.7 321.3 734.13 320.86 734.67 320.86C735.21 320.86 735.64 321.3 735.64 321.83C735.64 322.37 735.21 322.8 734.67 322.8Z" /></g></g><g ><path class="shp4" d="M720.72 313.96C718.39 314.04 715.52 314.71 712.95 316.16C710.38 317.61 708.09 319.87 707.17 323.08L708.88 323.57C709.65 320.9 711.54 319 713.82 317.71C716.1 316.43 718.75 315.8 720.78 315.73L720.72 313.96L720.72 313.96Z" /><g ><path class="shp5" d="M717.29 314.46C717.82 314.46 718.26 314.02 718.26 313.48C718.26 312.95 717.82 312.51 717.29 312.51C716.75 312.51 716.32 312.95 716.32 313.48C716.32 314.02 716.75 314.46 717.29 314.46Z" /><path class="shp5" d="M715.35 315.07C715.89 315.07 716.32 314.63 716.32 314.1C716.32 313.56 715.89 313.12 715.35 313.12C714.82 313.12 714.38 313.56 714.38 314.1C714.38 314.63 714.82 315.07 715.35 315.07Z" /><path class="shp5" d="M713.49 315.81C714.03 315.81 714.46 315.38 714.46 314.84C714.46 314.3 714.03 313.87 713.49 313.87C712.95 313.87 712.52 314.3 712.52 314.84C712.52 315.38 712.95 315.81 713.49 315.81Z" /><path class="shp5" d="M711.71 316.79C712.25 316.79 712.68 316.35 712.68 315.82C712.68 315.28 712.25 314.84 711.71 314.84C711.17 314.84 710.74 315.28 710.74 315.82C710.74 316.35 711.17 316.79 711.71 316.79Z" /><path class="shp5" d="M710.11 317.99C710.64 317.99 711.08 317.56 711.08 317.02C711.08 316.48 710.64 316.05 710.11 316.05C709.57 316.05 709.14 316.48 709.14 317.02C709.14 317.56 709.57 317.99 710.11 317.99Z" /><path class="shp5" d="M708.67 319.37C709.21 319.37 709.64 318.93 709.64 318.4C709.64 317.86 709.21 317.43 708.67 317.43C708.14 317.43 707.7 317.86 707.7 318.4C707.7 318.93 708.14 319.37 708.67 319.37Z" /><path class="shp5" d="M707.5 321C708.03 321 708.47 320.57 708.47 320.03C708.47 319.49 708.03 319.06 707.5 319.06C706.96 319.06 706.53 319.49 706.53 320.03C706.53 320.57 706.96 321 707.5 321Z" /><path class="shp5" d="M706.57 322.8C707.11 322.8 707.54 322.37 707.54 321.83C707.54 321.3 707.11 320.86 706.57 320.86C706.03 320.86 705.6 321.3 705.6 321.83C705.6 322.37 706.03 322.8 706.57 322.8Z" /></g></g></g><g ><g ><path class="shp4" d="M720.09 306.92C719.92 306.13 719.21 305.51 718.52 304.89C719.93 304.76 721.33 304.76 722.74 304.89C722.11 305.54 721.2 306.11 721.13 306.92C721.95 306.56 722.48 305.84 723.11 305.25C722.96 306.44 723.07 307.63 723.11 308.82C722.49 308.32 721.95 307.68 721.13 307.45C721.38 308.19 721.98 308.76 722.76 309.24L718.47 309.24C719.18 308.74 719.83 308.2 720.09 307.45C719.31 307.71 718.75 308.36 718.13 308.89C718.24 307.69 718.22 306.49 718.13 305.28C718.73 305.94 719.29 306.68 720.09 306.92L720.09 306.92Z" /><path class="shp5" d="M720.62 308C721.14 308 721.55 307.58 721.55 307.06C721.55 306.55 721.14 306.13 720.62 306.13C720.1 306.13 719.69 306.55 719.69 307.06C719.69 307.58 720.1 308 720.62 308Z" /><path class="shp4" d="M720.62 314.37C719.22 314.37 718.08 313.24 718.08 311.83C718.08 310.43 719.22 309.3 720.62 309.3C722.02 309.3 723.16 310.43 723.16 311.83C723.16 313.24 722.02 314.37 720.62 314.37Z" /><path class="shp4" d="M720.52 309.04C720.28 309.04 720.1 309.23 720.1 309.46L720.1 311.14L718.4 311.14C718.17 311.14 717.97 311.33 717.97 311.57L717.97 311.75C717.97 311.99 718.17 312.18 718.4 312.18L722.84 312.18C723.08 312.18 723.27 311.99 723.27 311.75L723.27 311.57C723.27 311.33 723.08 311.14 722.84 311.14L721.15 311.14L721.15 309.46C721.15 309.23 720.96 309.04 720.73 309.04L720.52 309.04L720.52 309.04Z" /></g><g ><path class="shp4" d="M718.78 314.49L722.46 314.49L722.46 320.75L718.78 320.75L718.78 314.49Z" /><g ><path class="shp6" d="M718.53 314.2L719.54 314.2L719.54 320.9L718.53 320.9L718.53 314.2Z" /><path class="shp6" d="M721.7 314.2L722.71 314.2L722.71 320.9L721.7 320.9L721.7 314.2Z" /></g><path class="shp5" d="M720.62 315.5C721.16 315.5 721.59 315.07 721.59 314.53C721.59 313.99 721.16 313.56 720.62 313.56C720.08 313.56 719.65 313.99 719.65 314.53C719.65 315.07 720.08 315.5 720.62 315.5Z" /><path class="shp5" d="M720.62 317.3C721.16 317.3 721.59 316.87 721.59 316.33C721.59 315.79 721.16 315.36 720.62 315.36C720.08 315.36 719.65 315.79 719.65 316.33C719.65 316.87 720.08 317.3 720.62 317.3Z" /><path class="shp5" d="M720.62 319.1C721.16 319.1 721.59 318.67 721.59 318.13C721.59 317.6 721.16 317.16 720.62 317.16C720.08 317.16 719.65 317.6 719.65 318.13C719.65 318.67 720.08 319.1 720.62 319.1Z" /><path class="shp5" d="M720.62 320.92C721.16 320.92 721.59 320.48 721.59 319.95C721.59 319.41 721.16 318.98 720.62 318.98C720.08 318.98 719.65 319.41 719.65 319.95C719.65 320.48 720.08 320.92 720.62 320.92Z" /></g></g><g ><g ><path class="shp4" d="M708.93 326.55C711.64 328.72 713.69 328.89 714.78 326.2C716.72 327.43 718.67 327.68 720.62 325.84C722.57 327.8 724.52 327.63 726.46 326.2C727.17 329.06 729.18 329.04 732.31 326.55L730.94 332.92L710.35 332.99L708.93 326.55Z" /><g ><path class="shp7" d="M718.99 328.5L722.25 328.5L722.25 330.26L718.99 330.26L718.99 328.5Z" /><path class="shp8" d="M715.44 330.7C714.6 330.82 713.82 330.53 713.71 330.05C713.59 329.57 714.18 329.09 715.03 328.97C715.88 328.85 716.65 329.14 716.77 329.61C716.88 330.09 716.29 330.58 715.44 330.7Z" /><path class="shp3" d="M710.06 331.26L711.65 330.15L709.25 329.3C709.25 329.3 708.88 329.63 708.82 329.91C708.72 330.3 708.72 330.57 708.99 330.88C709.23 331.16 710.06 331.26 710.06 331.26Z" /><path class="shp8" d="M725.8 330.7C726.64 330.82 727.42 330.53 727.53 330.05C727.65 329.57 727.06 329.09 726.21 328.97C725.36 328.85 724.59 329.14 724.47 329.61C724.36 330.09 724.95 330.58 725.8 330.7Z" /><path class="shp3" d="M731.18 331.26L729.6 330.15L731.99 329.3C731.99 329.3 732.36 329.63 732.42 329.91C732.52 330.3 732.52 330.57 732.25 330.88C732.01 331.16 731.18 331.26 731.18 331.26Z" /></g></g><g ><path class="shp4" d="M718.1 327.84C717.2 327.96 716.27 327.62 715.48 326.89C714.81 328.1 713.65 328.72 712.44 328.78C711.26 328.84 710.03 328.37 709.19 327.37C708.93 326.73 708.68 326.13 708.44 325.65C707.98 324.73 707.03 323.02 707.03 323.02C707.99 322.41 708.82 321.92 709.95 321.85C709.47 323.06 709.5 323.91 709.49 324.79C710.51 324.63 710.98 323.9 711.53 323.41L712.18 325.96C711.16 325.54 710.47 325.75 709.81 326.01C709.81 326.01 710.24 326.78 710.56 327.05C710.92 327.35 711.33 327.53 711.81 327.61C712.27 327.69 712.78 327.71 713.2 327.52C714.08 327.12 714.53 326.25 714.41 326.31C714.41 326.31 714.5 325.55 714.27 325.27C714.1 325.06 713.75 324.9 713.48 324.97C713.06 325.08 712.83 325.96 712.83 325.96C712.83 325.96 712.42 325.21 712.32 324.79C712.23 324.43 712.09 324 712.28 323.67C712.41 323.42 712.72 323.24 713.02 323.19C713.41 323.12 714.13 323.45 714.13 323.45C714.13 323.45 713.92 322.77 713.85 322.41C713.82 322.23 713.87 321.98 713.95 321.8C714.12 321.41 714.4 321.2 714.58 320.97C714.82 321.19 715.11 321.27 715.39 321.62C715.51 321.77 715.62 322 715.64 322.18C715.67 322.55 715.64 323.26 715.64 323.26C715.64 323.26 716.26 322.77 716.65 322.75C716.95 322.73 717.3 322.83 717.5 323.04C717.76 323.32 717.74 323.77 717.75 324.14C717.76 324.57 717.56 325.39 717.56 325.39C717.56 325.39 717.11 324.59 716.67 324.58C716.39 324.57 716.1 324.81 715.99 325.05C715.84 325.37 716.12 326.09 716.12 326.09C717.86 327.36 719.66 326.06 720.03 324.79L720.03 324.32C719.3 324.41 718.99 324.53 718.26 325.31L718.03 322.15C718.73 322.74 719.33 322.95 720.03 322.84C719.96 321.93 719.44 321.54 718.63 320.73C719.94 320.4 721.34 320.32 722.61 320.73C721.8 321.54 721.28 321.93 721.21 322.84C721.91 322.95 722.51 322.74 723.21 322.15L722.98 325.31C722.25 324.53 721.94 324.41 721.21 324.32L721.21 324.79C721.58 326.06 723.38 327.36 725.12 326.09C725.12 326.09 725.4 325.37 725.26 325.05C725.14 324.81 724.85 324.57 724.57 324.58C724.13 324.59 723.68 325.39 723.68 325.39C723.68 325.39 723.48 324.57 723.49 324.14C723.5 323.77 723.48 323.32 723.74 323.04C723.94 322.83 724.29 322.73 724.59 322.75C724.98 322.77 725.6 323.26 725.6 323.26C725.6 323.26 725.57 322.55 725.6 322.18C725.62 322 725.73 321.77 725.85 321.62C726.13 321.27 726.42 321.19 726.66 320.97C726.84 321.2 727.12 321.41 727.29 321.8C727.37 321.98 727.42 322.23 727.39 322.41C727.32 322.77 727.11 323.45 727.11 323.45C727.11 323.45 727.83 323.12 728.22 323.19C728.52 323.24 728.83 323.42 728.97 323.67C729.15 324 729.01 324.43 728.92 324.79C728.82 325.21 728.41 325.96 728.41 325.96C728.41 325.96 728.18 325.08 727.76 324.97C727.49 324.9 727.14 325.06 726.97 325.27C726.74 325.55 726.83 326.31 726.83 326.31C726.71 326.25 727.16 327.12 728.04 327.52C728.46 327.71 728.97 327.69 729.43 327.61C729.91 327.53 730.32 327.35 730.68 327.05C731 326.78 731.43 326.01 731.43 326.01C730.77 325.75 730.08 325.54 729.06 325.96L729.71 323.41C730.26 323.9 730.73 324.63 731.75 324.79C731.74 323.91 731.77 323.06 731.29 321.85C732.39 321.85 733.3 322.43 734.21 323.02C734.21 323.02 733.26 324.73 732.8 325.65C732.56 326.13 732.31 326.73 732.05 327.37C731.21 328.37 729.98 328.84 728.8 328.78C727.6 328.72 726.43 328.1 725.76 326.89C724.97 327.62 724.04 327.96 723.14 327.84C722.26 327.72 721.39 327.14 720.62 326.04C719.85 327.14 718.98 327.72 718.1 327.84L718.1 327.84Z" /><g ><path class="shp5" d="M720.62 324.49C721.16 324.49 721.59 324.05 721.59 323.52C721.59 322.98 721.16 322.54 720.62 322.54C720.08 322.54 719.65 322.98 719.65 323.52C719.65 324.05 720.08 324.49 720.62 324.49Z" /><g ><path class="shp5" d="M708.92 326.52C709.45 326.52 709.89 326.09 709.89 325.55C709.89 325.02 709.45 324.58 708.92 324.58C708.38 324.58 707.95 325.02 707.95 325.55C707.95 326.09 708.38 326.52 708.92 326.52Z" /><path class="shp5" d="M732.32 326.52C732.86 326.52 733.29 326.09 733.29 325.55C733.29 325.02 732.86 324.58 732.32 324.58C731.79 324.58 731.35 325.02 731.35 325.55C731.35 326.09 731.79 326.52 732.32 326.52Z" /></g></g><g ><path class="shp4" d="M713.73 325.31L716.49 324.92L716.66 326.1L713.9 326.49L713.73 325.31Z" /><path class="shp4" d="M727.51 325.31L724.75 324.92L724.58 326.1L727.34 326.49L727.51 325.31Z" /></g></g><g ><path class="shp9" d="M720.62 336.5C714.57 336.5 709.68 335.61 709.68 334.52C709.68 333.43 714.57 332.55 720.62 332.55C726.67 332.55 731.56 333.43 731.56 334.52C731.56 335.61 726.67 336.5 720.62 336.5Z" /><g ><path class="shp5" d="M710.21 334.99C717.41 333.52 724.34 333.66 731.13 335C732.3 335.36 732.56 332.87 731.42 332.34C724.34 330.38 711.77 331.5 709.79 332.34C709.2 332.24 708.38 334.93 710.21 334.99L710.21 334.99Z" /><g ><path class="shp10" d="M719.35 333.22C719.35 333.22 720.27 332.87 720.76 332.78C721.26 332.69 722.28 332.7 722.28 332.7L721.71 332.44C721.71 332.44 721.16 332.36 720.7 332.23C720.43 332.15 720.12 332.02 719.86 332C719.52 331.99 719.04 332.11 719.04 332.11L719.95 332.33C719.95 332.33 719.69 332.39 719.49 332.45C719.35 332.5 718.96 332.69 718.96 332.69L719.99 332.7C719.99 332.7 719.69 332.84 719.57 332.94C719.48 333.02 719.35 333.22 719.35 333.22L719.35 333.22L719.35 333.22Z" /><path class="shp10" d="M715.12 333.46C715.12 333.46 715.98 333 716.45 332.85C716.94 332.71 717.95 332.6 717.95 332.6L717.35 332.4C717.35 332.4 716.79 332.39 716.32 332.31C716.04 332.27 715.72 332.17 715.45 332.19C715.12 332.22 714.66 332.4 714.66 332.4L715.59 332.5C715.59 332.5 715.34 332.59 715.15 332.68C715.01 332.74 714.66 332.98 714.66 332.98L715.68 332.87C715.68 332.87 715.4 333.03 715.3 333.15C715.22 333.24 715.12 333.46 715.12 333.46L715.12 333.46L715.12 333.46Z" /><path class="shp10" d="M723.63 333.42C723.63 333.42 724.57 333.12 725.06 333.06C725.56 333 726.58 333.07 726.58 333.07L726.03 332.77C726.03 332.77 725.49 332.66 725.04 332.5C724.78 332.41 724.48 332.26 724.21 332.23C723.88 332.2 723.39 332.3 723.39 332.3L724.28 332.56C724.28 332.56 724.02 332.61 723.81 332.66C723.67 332.7 723.27 332.87 723.27 332.87L724.3 332.94C724.3 332.94 723.99 333.05 723.87 333.15C723.77 333.22 723.63 333.42 723.63 333.42L723.63 333.42L723.63 333.42Z" /><path class="shp10" d="M710.98 333.93C710.98 333.93 711.78 333.38 712.23 333.19C712.69 332.99 713.68 332.77 713.68 332.77L713.06 332.64C713.06 332.64 712.51 332.69 712.02 332.66C711.75 332.65 711.41 332.59 711.15 332.64C710.82 332.7 710.39 332.93 710.39 332.93L711.32 332.93C711.32 332.93 711.08 333.05 710.91 333.16C710.78 333.24 710.46 333.51 710.46 333.51L711.46 333.29C711.46 333.29 711.21 333.48 711.12 333.61C711.05 333.71 710.98 333.93 710.98 333.93L710.98 333.93L710.98 333.93Z" /><path class="shp10" d="M727.87 333.86C727.87 333.86 728.84 333.65 729.34 333.64C729.84 333.63 730.85 333.79 730.85 333.79L730.33 333.44C730.33 333.44 729.81 333.28 729.37 333.08C729.13 332.96 728.84 332.78 728.59 332.73C728.26 332.67 727.76 332.72 727.76 332.72L728.62 333.06C728.62 333.06 728.35 333.08 728.14 333.12C727.99 333.14 727.58 333.28 727.58 333.28L728.6 333.44C728.6 333.44 728.28 333.53 728.14 333.61C728.03 333.67 727.87 333.86 727.87 333.86L727.87 333.86L727.87 333.86Z" /></g></g></g></g></g></g></g></g><g clip-path="url(#cp1)"><g ><g ><path class="shp0" d="M0 0L450 0L450 300L0 300L0 0Z" /><path fill-rule="evenodd" class="shp11" d="M0 0L450 300M450 0L0 300" /><path class="shp12" d="M225 0L225 300" /><path class="shp12" d="M0 150L450 150" /><path class="shp13" d="M225 0L225 300" /><path class="shp13" d="M0 150L450 150" /></g></g></g></svg>