<svg version="1.2" baseProfile="tiny-ps" xmlns="http://www.w3.org/2000/svg" viewBox="0 0 900 600" width="900" height="600"><title></title><style>tspan { white-space:pre }.shp0 { fill: #007a3d } .shp1 { fill: #ffffff } .shp2 { fill: #000000 } .shp3 { fill: #ce1126 } </style><g ><path class="shp0" d="M-150 0L-150 600L1050 600L1050 0L-150 0Z" /><path class="shp1" d="M-150 200L-150 600L1050 600L1050 200L-150 200Z" /><path class="shp2" d="M-150 400L-150 600L1050 600L1050 400L-150 400Z" /></g><g ><path class="shp3" d="M450.01 228L496.69 372L374.48 283L525.52 283L403.31 372L449.99 228L450.01 228Z" /><path class="shp3" d="M150.01 228L196.69 372L74.48 283L225.52 283L103.31 372L149.99 228L150.01 228Z" /><path class="shp3" d="M750.01 228L796.69 372L674.48 283L825.52 283L703.31 372L749.99 228L750.01 228Z" /></g></svg>