<svg version="1.2" baseProfile="tiny-ps" xmlns="http://www.w3.org/2000/svg" viewBox="0 0 900 600" width="900" height="600"><title></title><style>tspan { white-space:pre }.shp0 { fill: #006a3e } .shp1 { fill: #ffffff } .shp2 { fill: #002654 } .shp3 { fill: #ce1126 } </style><path class="shp0" d="M-100 0L900 0L900 600L-100 600L-100 0Z" /><g ><g ><path class="shp1" d="M53.67 468.49L114.35 512.57L136.39 482.24" /><path class="shp1" d="M53.67 468.49L128.67 468.49L128.67 505.99" /></g><g ><path class="shp1" d="M125 416.67L101.82 488L137.49 499.58" /><path class="shp1" d="M125 416.67L148.18 488L112.51 499.58" /></g><g ><path class="shp1" d="M196.33 468.49L121.33 468.49L121.33 505.99" /><path class="shp1" d="M196.33 468.49L135.65 512.57L113.61 482.24" /></g><g ><path class="shp1" d="M169.08 552.34L145.91 481.01L110.24 492.6" /><path class="shp1" d="M169.08 552.34L108.41 508.26L130.45 477.92" /></g><g ><path class="shp1" d="M80.92 552.34L141.59 508.26L119.55 477.92" /><path class="shp1" d="M80.92 552.34L104.09 481.01L139.76 492.6" /></g></g><g ><g ><path class="shp1" d="M703.67 85.16L764.35 129.24L786.39 98.9" /><path class="shp1" d="M703.67 85.16L778.67 85.16L778.67 122.66" /></g><g ><path class="shp1" d="M775 33.33L751.82 104.66L787.49 116.25" /><path class="shp1" d="M775 33.33L798.18 104.66L762.51 116.25" /></g><g ><path class="shp1" d="M846.33 85.16L771.33 85.16L771.33 122.66" /><path class="shp1" d="M846.33 85.16L785.65 129.24L763.61 98.9" /></g><g ><path class="shp1" d="M819.08 169.01L795.91 97.68L760.24 109.27" /><path class="shp1" d="M819.08 169.01L758.41 124.93L780.45 94.59" /></g><g ><path class="shp1" d="M730.92 169.01L791.59 124.93L769.55 94.59" /><path class="shp1" d="M730.92 169.01L754.09 97.68L789.76 109.27" /></g></g><path class="shp1" d="M0 0L250 0L250 166.67L0 166.67L0 0Z" /><path class="shp2" d="M0 0L83.33 0L83.33 166.67L0 166.67L0 0Z" /><path class="shp3" d="M166.67 0L250 0L250 166.67L166.67 166.67L166.67 0Z" /></svg>