<svg version="1.2" baseProfile="tiny-ps" xmlns="http://www.w3.org/2000/svg" viewBox="0 0 270 180" width="900" height="600"><title></title><style>tspan { white-space:pre }.shp0 { fill: #e70013 } .shp1 { fill: #ffffff } .shp2 { fill: #002654 } .shp3 { fill: #ce1326 } </style><path class="shp0" d="M0 0L270 0L270 180L0 180" /><path class="shp1" d="M135 135C110.12 135 90 114.88 90 90C90 65.12 110.12 45 135 45C159.88 45 180 65.12 180 90C180 114.88 159.88 135 135 135Z" /><path class="shp0" d="M135 120C118.41 120 105 106.59 105 90C105 73.41 118.41 60 135 60C151.59 60 165 73.41 165 90C165 106.59 151.59 120 135 120Z" /><path class="shp1" d="M144 117C129.07 117 117 104.93 117 90C117 75.07 129.07 63 144 63C158.93 63 171 75.07 171 90C171 104.93 158.93 117 144 117Z" /><g ><path class="shp0" d="M124 90L143.02 96.18L146.11 86.67" /><path class="shp0" d="M124 90L143.02 83.82L146.11 93.33" /></g><g ><g ><path class="shp0" d="M137.82 70.98L137.82 90.98L147.82 90.98" /><path class="shp0" d="M137.82 70.98L149.58 87.16L141.49 93.04" /></g><g ><path class="shp0" d="M160.18 101.76L148.42 85.58L140.33 91.45" /><path class="shp0" d="M160.18 101.76L141.16 95.58L144.25 86.06" /></g></g><g ><g ><path class="shp0" d="M160.18 78.24L141.16 84.42L144.25 93.94" /><path class="shp0" d="M160.18 78.24L148.42 94.42L140.33 88.55" /></g><g ><path class="shp0" d="M137.82 109.02L149.58 92.84L141.49 86.96" /><path class="shp0" d="M137.82 109.02L137.82 89.02L147.82 89.02" /></g></g><path class="shp1" d="M0 0L68.63 0L68.63 46.13L0 46.13L0 0Z" /><path class="shp2" d="M0 0L22.5 0L22.5 45L0 45L0 0Z" /><path class="shp3" d="M45 0L67.5 0L67.5 45L45 45L45 0Z" /></svg>