<svg version="1.2" baseProfile="tiny-ps" xmlns="http://www.w3.org/2000/svg" viewBox="0 0 900 600" width="900" height="600">
	<title></title>
	<style>
		tspan { white-space:pre }
		.shp0 { fill: #e30a17 } 
		.shp1 { fill: #ffffff } 
	</style>
	<g id="surface1">
		<path id="Layer" class="shp0" d="M0 0L900 0L900 600L0 600L0 0Z" />
		<path id="Layer" class="shp1" d="M417.5 300L553.18 255.92L469.32 371.33L469.32 228.67L553.18 344.08L417.5 300ZM426.75 380.21C391.05 436.63 322.36 462.66 258.24 444.07C194.12 425.49 150 366.76 150 300C150 233.24 194.12 174.51 258.24 155.93C322.36 137.34 391.05 163.38 426.75 219.79C393.53 182.82 340.95 170.16 294.55 187.95C248.14 205.74 217.5 250.3 217.5 300C217.5 349.7 248.14 394.26 294.55 412.05C340.95 429.84 393.53 417.18 426.75 380.21Z" />
	</g>
</svg>