<svg version="1.2" baseProfile="tiny-ps" xmlns="http://www.w3.org/2000/svg" viewBox="0 0 945 630" width="900" height="600"><title></title><style>tspan { white-space:pre }.shp0 { fill: #ffffff } .shp1 { fill: #0038a8 } .shp2 { fill: #fcd116;stroke: #7b3f00;stroke-linecap:square;stroke-width: 2.309 } .shp3 { fill: #fcd116;stroke: #7b3f00;stroke-linecap:square;stroke-width: 2.31 } .shp4 { fill: #7b3f00;stroke: #7b3f00;stroke-linecap:square;stroke-width: 1.051 } .shp5 { fill: none;stroke: #7b3f00;stroke-width: 2.31 } .shp6 { fill: #fcd116;stroke: #7b3f00;stroke-width: 2.309 } .shp7 { fill: #fcd116;stroke: #7b3f00;stroke-width: 2.31 } .shp8 { fill: #7b3f00 } .shp9 { fill: none;stroke: #7b3f00;stroke-width: 2.309 } </style><path class="shp0" d="M0 0L945 0L945 630L0 630L0 0Z" /><g ><path class="shp1" d="M350 70L945 70L945 140L350 140L350 70Z" /><path class="shp1" d="M350 210L945 210L945 280L350 280L350 210Z" /><path class="shp1" d="M0 350L945 350L945 420L0 420L0 350Z" /><path class="shp1" d="M0 490L945 490L945 560L0 560L0 490Z" /></g><g ><g ><g ><path class="shp2" d="M167.08 209.22L178.66 226.52C131.05 260.98 160.12 281.35 126.38 292.38C147.36 271.9 123.61 268.74 141.29 226.06" /><g ><path class="shp3" d="M145.2 193.6L141.16 214.02C83.13 204.72 89.28 239.68 57.62 223.62C86.94 223.98 73.04 204.69 115.72 187.01" /><path class="shp4" d="M145.2 193.6L136.06 191.95L136.15 192.33C111.76 198.31 98.52 208.42 88.14 216.1C82.96 219.94 78.48 223.21 73.62 224.98C72.82 225.28 72.01 225.53 71.18 225.73C70.35 225.93 69.51 226.08 68.66 226.18C67.81 226.28 66.96 226.34 66.1 226.34C65.25 226.34 64.4 226.29 63.55 226.19C88.73 235.14 87.06 205.36 141.16 214.03L145.2 193.6Z" /><path class="shp5" d="M135.87 191.21C86.69 203.25 82.04 232.26 57.62 223.62" /></g><path class="shp6" d="M175 175L158.67 158.67L85.16 264.84L191.33 191.33L175 175L85.16 264.84" /><g ><g ><g ><path class="shp3" d="M140.78 167.08L123.48 178.66C89.02 131.05 68.65 160.12 57.62 126.38C78.1 147.36 81.45 123.65 124.14 141.33" /><path class="shp4" d="M140.78 167.08L135.48 159.45L135.28 159.78C113.8 146.76 97.29 144.55 84.52 142.65C78.13 141.7 72.66 140.84 67.97 138.66C67.2 138.3 66.44 137.9 65.72 137.46C64.99 137.01 64.29 136.52 63.61 136C62.94 135.47 62.3 134.9 61.7 134.3C61.09 133.7 60.52 133.06 59.99 132.39C71.47 156.52 91.35 134.28 123.47 178.67L140.78 167.08Z" /><path class="shp5" d="M135.87 158.79C92.58 132.53 68.78 149.75 57.62 126.38" /></g><path class="shp7" d="M175 175L175 151.9L47.95 175L175 198.1L175 175L47.95 175" /><path class="shp8" d="M175 175L175 198.1L175 175L47.95 175L175 198.1" /></g><g ><g ><path class="shp3" d="M156.4 145.2L135.98 141.16C145.28 83.13 110.32 89.28 126.38 57.62C126.02 86.94 146.3 75.38 163.98 118.06" /><path class="shp4" d="M156.4 145.2L158.05 136.06L157.67 136.15C151.69 111.76 141.58 98.52 133.9 88.15C130.06 82.96 126.79 78.48 125.02 73.62C124.72 72.82 124.47 72.01 124.27 71.18C124.07 70.35 123.92 69.51 123.82 68.66C123.72 67.81 123.66 66.96 123.66 66.11C123.66 65.25 123.71 64.4 123.81 63.55C114.86 88.73 144.64 87.06 135.97 141.16L156.4 145.2Z" /><path class="shp5" d="M158.79 135.87C146.75 86.69 117.74 82.04 126.38 57.62" /></g><path class="shp7" d="M175 175L191.33 158.67L85.16 85.16L158.67 191.33L175 175L85.16 85.16" /><path class="shp8" d="M175 175L158.67 191.33L175 175L85.16 85.16L158.67 191.33" /></g><g ><g ><path class="shp3" d="M182.92 140.78L171.34 123.48C218.95 89.02 189.88 68.65 223.62 57.62C202.64 78.1 226.27 81.48 208.59 124.16" /><path class="shp4" d="M182.92 140.78L190.55 135.48L190.22 135.28C203.24 113.8 205.45 97.29 207.35 84.52C208.3 78.14 209.16 72.66 211.34 67.98C211.7 67.2 212.1 66.45 212.54 65.72C212.99 64.99 213.48 64.29 214 63.61C214.53 62.94 215.1 62.3 215.7 61.7C216.3 61.09 216.94 60.52 217.61 59.99C193.48 71.47 215.72 91.35 171.33 123.47L182.92 140.78Z" /><path class="shp5" d="M191.21 135.87C217.47 92.58 200.25 68.78 223.62 57.62" /></g><path class="shp7" d="M175 175L198.1 175L175 47.95L151.9 175L175 175L175 47.95" /><path class="shp8" d="M175 175L151.9 175L175 175L175 47.95L151.9 175" /><g ><g ><path class="shp3" d="M204.8 156.4L208.84 135.98C266.87 145.28 260.72 110.32 292.38 126.38C263.06 126.02 276.12 145.41 233.44 163.09" /><path class="shp4" d="M204.8 156.4L213.94 158.05L213.85 157.67C238.24 151.69 251.48 141.58 261.85 133.9C267.04 130.06 271.52 126.79 276.38 125.02C277.18 124.72 277.99 124.47 278.82 124.27C279.65 124.07 280.49 123.92 281.34 123.82C282.19 123.72 283.04 123.66 283.89 123.66C284.75 123.66 285.6 123.71 286.45 123.81C261.27 114.86 262.94 144.64 208.84 135.97L204.8 156.4Z" /><path class="shp5" d="M214.13 158.79C263.31 146.75 267.96 117.74 292.38 126.38" /></g><path class="shp7" d="M175 175L191.33 191.33L264.84 85.16L158.67 158.67L175 175L264.84 85.16" /><path class="shp8" d="M175 175L158.67 158.67L175 175L264.84 85.16L158.67 158.67" /></g></g><g ><g ><path class="shp3" d="M209.22 182.92L226.52 171.34C260.98 218.95 281.35 189.88 292.38 223.62C271.9 202.64 268.06 226.12 225.37 208.44" /><path class="shp4" d="M209.22 182.92L214.52 190.55L214.72 190.22C236.2 203.24 252.71 205.45 265.48 207.35C271.86 208.31 277.34 209.16 282.02 211.34C282.8 211.7 283.55 212.1 284.28 212.55C285.01 212.99 285.71 213.48 286.39 214C287.06 214.53 287.7 215.1 288.3 215.7C288.91 216.3 289.48 216.94 290.01 217.61C278.53 193.48 258.65 215.72 226.53 171.33L209.22 182.92Z" /><path class="shp5" d="M214.13 191.21C257.42 217.47 281.22 200.25 292.38 223.62" /></g><path class="shp7" d="M175 175L175 198.1L302.05 175L175 151.9L175 175L302.05 175" /><path class="shp8" d="M175 175L175 151.9L175 175L302.05 175L175 151.9" /></g><g ><g ><path class="shp3" d="M193.6 204.8L214.02 208.84C204.72 266.87 239.68 260.72 223.62 292.38C223.98 263.06 204.67 276.64 186.99 233.96" /><path class="shp4" d="M193.6 204.8L191.95 213.94L192.33 213.85C198.31 238.24 208.42 251.48 216.1 261.86C219.94 267.04 223.21 271.52 224.98 276.38C225.28 277.18 225.53 277.99 225.73 278.82C225.93 279.65 226.08 280.49 226.18 281.34C226.28 282.19 226.34 283.04 226.34 283.9C226.34 284.75 226.29 285.6 226.19 286.45C235.14 261.27 205.36 262.94 214.03 208.84L193.6 204.8Z" /><path class="shp5" d="M191.21 214.13C203.25 263.31 232.26 267.96 223.62 292.38" /></g><path class="shp7" d="M175 175L158.67 191.33L264.84 264.84L191.33 158.67L175 175L264.84 264.84" /><path class="shp8" d="M175 175L191.33 158.67L175 175L264.84 264.84L191.33 158.67" /></g></g></g><path class="shp4" d="M167.08 209.22L159.45 214.52L159.78 214.72C146.76 236.2 144.55 252.71 142.65 265.48C141.69 271.87 140.84 277.34 138.66 282.03C138.3 282.8 137.9 283.56 137.45 284.28C137.01 285.01 136.52 285.71 136 286.39C135.47 287.06 134.9 287.7 134.3 288.3C133.7 288.91 133.06 289.48 132.39 290.01C156.52 278.53 134.28 258.65 178.67 226.53L167.08 209.22Z" /><g ><path class="shp9" d="M158.79 214.13C132.53 257.42 149.75 281.22 126.38 292.38" /><path class="shp6" d="M175 175L151.9 175L175 302.05L198.1 175L175 175L175 302.05" /></g></g><path class="shp8" d="M175 175L198.1 175L175 175L175 302.05L198.1 175" /><path class="shp8" d="M175 175L191.33 191.33L175 175L85.16 264.84L191.33 191.33" /><path class="shp6" d="M175 217.35C151.58 217.35 132.65 198.42 132.65 175C132.65 151.58 151.58 132.65 175 132.65C198.42 132.65 217.35 151.58 217.35 175C217.35 198.42 198.42 217.35 175 217.35Z" /><g ><path fill-rule="evenodd" class="shp8" d="M206.18 158.06C203.49 161.14 201.95 155.75 192.32 155.75C182.7 155.75 181.16 161.53 179.62 160.37C178.08 159.22 187.7 152.29 190.78 151.9C193.86 151.52 202.72 154.6 206.18 158.06ZM195.02 161.53C197.71 163.84 195.4 168.84 192.71 168.84C190.01 168.84 185.01 164.22 187.32 161.14L195.02 161.53Z" /><path class="shp8" d="M182.31 164.99C182.7 160.37 186.55 159.6 192.71 159.6C198.87 159.6 201.56 164.22 203.87 165.38C201.18 165.38 198.87 161.53 192.71 161.53C186.55 161.53 186.55 161.53 182.31 165.38M183.47 166.15C185.01 163.84 186.93 168.46 191.17 168.46C195.4 168.46 197.71 167.3 200.41 165.38C203.1 163.45 196.56 170 192.32 170C188.09 170 182.31 167.69 183.47 166.15" /><path class="shp8" d="M153.44 161.14C151.51 161.91 148.43 165.76 153.44 168.46C149.59 165.76 152.67 161.91 153.44 161.14Z" /><path class="shp8" d="M196.56 161.14C197.33 161.91 200.41 165.76 196.56 168.46C201.57 165.76 198.49 161.91 196.56 161.14Z" /><path class="shp8" d="M168.84 177.7C165.37 178.47 166.53 183.47 163.45 183.86C160.37 184.24 158.83 187.71 159.21 187.32C161.14 185.78 165.37 184.63 168.45 184.63C171.53 184.63 172.3 186.55 175 186.55C177.69 186.55 178.46 184.63 181.54 184.63C184.62 184.63 188.86 185.78 190.78 187.32C191.17 187.71 189.63 184.24 186.55 183.86C183.47 183.47 184.62 178.47 181.16 177.7C181.16 179.24 182.31 178.85 182.7 181.16C182.7 183.09 179.23 183.09 178.46 181.16C179.23 184.24 176.92 184.24 175 184.24C173.07 184.24 170.76 184.24 171.53 181.16C170.76 183.09 167.3 183.09 167.3 181.16C167.69 178.85 168.84 179.24 168.84 177.7Z" /><path class="shp8" d="M156.9 190.79C153.82 193.1 153.05 194.25 152.67 196.95C153.59 195.33 154.05 194.67 154.75 193.72C154.56 193.64 154.4 193.56 154.21 193.48C154.43 193.51 154.64 193.54 154.85 193.57C155.32 192.94 155.73 192.4 156.9 190.79L156.9 190.79Z" /><path class="shp8" d="M154.85 193.57C154.84 193.59 154.81 193.62 154.8 193.64C155.28 193.75 155.79 193.8 156.33 193.81C155.86 193.72 155.37 193.64 154.85 193.57L154.85 193.57Z" /><path class="shp8" d="M156.33 193.81C158.73 194.23 160.62 194.78 162.34 195.34C164.5 195.18 167.47 194.64 175 194.64C182.53 194.64 185.5 195.18 187.66 195.34C189.38 194.78 191.27 194.23 193.67 193.81C189.43 193.82 183.77 190.79 181.16 190.79C178.08 190.79 177.31 191.56 175 191.56C172.69 191.56 171.92 190.79 168.84 190.79C166.23 190.79 160.57 193.82 156.33 193.81Z" /><path class="shp8" d="M193.67 193.81C194.21 193.8 194.72 193.75 195.2 193.64C195.19 193.62 195.16 193.59 195.15 193.57C194.63 193.64 194.14 193.72 193.67 193.81L193.67 193.81Z" /><path class="shp8" d="M195.15 193.57C195.36 193.54 195.56 193.51 195.79 193.48C195.6 193.56 195.44 193.64 195.25 193.72C195.95 194.67 196.41 195.33 197.33 196.95C196.94 194.25 196.18 193.1 193.1 190.79C194.27 192.4 194.68 192.94 195.15 193.57L195.15 193.57Z" /><path class="shp8" d="M195.25 193.72C195.25 193.71 195.24 193.69 195.23 193.69C191.21 195.24 189.8 195.5 187.66 195.34C184.01 196.52 181 197.72 175 197.72C169 197.72 165.99 196.52 162.34 195.34C160.2 195.5 158.79 195.24 154.77 193.69C154.76 193.7 154.75 193.71 154.75 193.72C166.84 198.92 165.52 200.8 175 200.8C184.48 200.8 183.16 198.92 195.25 193.72L195.25 193.72Z" /><path class="shp8" d="M154.77 193.69C154.78 193.68 154.79 193.65 154.8 193.64C154.6 193.59 154.4 193.55 154.21 193.48C154.43 193.57 154.56 193.61 154.77 193.69Z" /><path class="shp8" d="M195.23 193.69C195.44 193.61 195.57 193.57 195.79 193.48C195.6 193.55 195.4 193.59 195.2 193.64C195.2 193.65 195.22 193.68 195.23 193.69L195.23 193.69Z" /><g ><path class="shp8" d="M143.81 158.06C146.51 161.14 148.05 155.75 157.67 155.75C167.3 155.75 168.84 161.53 170.38 160.37C171.92 159.22 162.29 152.29 159.21 151.9C156.13 151.52 147.28 154.6 143.81 158.06ZM154.98 161.53C152.28 163.84 154.59 168.84 157.29 168.84C159.98 168.84 164.99 164.22 162.68 161.14" /><path class="shp8" d="M167.68 164.99C167.3 160.37 163.45 159.6 157.29 159.6C151.13 159.6 148.43 164.22 146.12 165.38C148.82 165.38 151.13 161.53 157.29 161.53C163.45 161.53 163.45 161.53 167.68 165.38M166.53 166.15C164.99 163.84 163.06 168.46 158.83 168.46C154.59 168.46 152.28 167.3 149.59 165.38C146.89 163.45 153.44 170 157.67 170C161.91 170 167.68 167.69 166.53 166.15Z" /></g><path class="shp8" d="M175 204.26C173.07 204.26 168.07 205.42 175 205.42C181.93 205.42 176.92 204.26 175 204.26Z" /></g></g></svg>