<svg version="1.2" baseProfile="tiny-ps" xmlns="http://www.w3.org/2000/svg" viewBox="0 0 900 600" width="900" height="600"><title></title><style>tspan { white-space:pre }.shp0 { fill: #bb133e } .shp1 { fill: #000000;stroke: #ffffff;stroke-width: 46.144 } .shp2 { fill: #002664 } .shp3 { fill: #ffffff } </style><path class="shp0" d="M0 0L1139.59 0L1139.59 600L0 600L0 0Z" /><path class="shp1" d="M0 69.23L1139.59 69.23M0 161.53L1139.59 161.53M0 253.84L1139.59 253.84M0 346.14L1139.59 346.14M0 438.45L1139.59 438.45M0 530.76L1139.59 530.76" /><path class="shp2" d="M0 0L455.84 0L455.84 323.05L0 323.05L0 0Z" /><g ><g ><path class="shp3" d="M28.49 8.37L39.35 41.79L10.92 21.14L46.06 21.14L17.63 41.79L28.49 8.37Z" /><path class="shp3" d="M85.47 8.37L96.33 41.79L67.9 21.14L103.04 21.14L74.61 41.79L85.47 8.37Z" /><path class="shp3" d="M142.45 8.37L153.31 41.79L124.88 21.14L160.02 21.14L131.59 41.79L142.45 8.37Z" /><path class="shp3" d="M199.43 8.37L210.29 41.79L181.86 21.14L217 21.14L188.57 41.79L199.43 8.37Z" /><path class="shp3" d="M256.41 8.37L267.27 41.79L238.84 21.14L273.98 21.14L245.55 41.79L256.41 8.37Z" /><path class="shp3" d="M313.39 8.37L324.24 41.79L295.82 21.14L330.95 21.14L302.53 41.79L313.39 8.37Z" /><path class="shp3" d="M370.37 8.37L381.22 41.79L352.8 21.14L387.93 21.14L359.51 41.79L370.37 8.37Z" /><path class="shp3" d="M427.35 8.37L438.2 41.79L409.78 21.14L444.91 21.14L416.49 41.79L427.35 8.37Z" /></g><g ><path class="shp3" d="M28.49 62.21L39.35 95.64L10.92 74.98L46.06 74.98L17.63 95.64L28.49 62.21Z" /><path class="shp3" d="M85.47 62.21L96.33 95.64L67.9 74.98L103.04 74.98L74.61 95.64L85.47 62.21Z" /><path class="shp3" d="M142.45 62.21L153.31 95.64L124.88 74.98L160.02 74.98L131.59 95.64L142.45 62.21Z" /><path class="shp3" d="M199.43 62.21L210.29 95.64L181.86 74.98L217 74.98L188.57 95.64L199.43 62.21Z" /><path class="shp3" d="M256.41 62.21L267.27 95.64L238.84 74.98L273.98 74.98L245.55 95.64L256.41 62.21Z" /><path class="shp3" d="M313.39 62.21L324.24 95.64L295.82 74.98L330.95 74.98L302.53 95.64L313.39 62.21Z" /><path class="shp3" d="M370.37 62.21L381.22 95.64L352.8 74.98L387.93 74.98L359.51 95.64L370.37 62.21Z" /><path class="shp3" d="M427.35 62.21L438.2 95.64L409.78 74.98L444.91 74.98L416.49 95.64L427.35 62.21Z" /></g><g ><path class="shp3" d="M28.49 116.05L39.35 149.48L10.92 128.82L46.06 128.82L17.63 149.48L28.49 116.05Z" /><path class="shp3" d="M85.47 116.05L96.33 149.48L67.9 128.82L103.04 128.82L74.61 149.48L85.47 116.05Z" /><path class="shp3" d="M142.45 116.05L153.31 149.48L124.88 128.82L160.02 128.82L131.59 149.48L142.45 116.05Z" /><path class="shp3" d="M199.43 116.05L210.29 149.48L181.86 128.82L217 128.82L188.57 149.48L199.43 116.05Z" /><path class="shp3" d="M256.41 116.05L267.27 149.48L238.84 128.82L273.98 128.82L245.55 149.48L256.41 116.05Z" /><path class="shp3" d="M313.39 116.05L324.24 149.48L295.82 128.82L330.95 128.82L302.53 149.48L313.39 116.05Z" /><path class="shp3" d="M370.37 116.05L381.22 149.48L352.8 128.82L387.93 128.82L359.51 149.48L370.37 116.05Z" /><path class="shp3" d="M427.35 116.05L438.2 149.48L409.78 128.82L444.91 128.82L416.49 149.48L427.35 116.05Z" /></g><g ><path class="shp3" d="M28.49 169.89L39.35 203.32L10.92 182.66L46.06 182.66L17.63 203.32L28.49 169.89Z" /><path class="shp3" d="M85.47 169.89L96.33 203.32L67.9 182.66L103.04 182.66L74.61 203.32L85.47 169.89Z" /><path class="shp3" d="M142.45 169.89L153.31 203.32L124.88 182.66L160.02 182.66L131.59 203.32L142.45 169.89Z" /><path class="shp3" d="M199.43 169.89L210.29 203.32L181.86 182.66L217 182.66L188.57 203.32L199.43 169.89Z" /><path class="shp3" d="M256.41 169.89L267.27 203.32L238.84 182.66L273.98 182.66L245.55 203.32L256.41 169.89Z" /><path class="shp3" d="M313.39 169.89L324.24 203.32L295.82 182.66L330.95 182.66L302.53 203.32L313.39 169.89Z" /><path class="shp3" d="M370.37 169.89L381.22 203.32L352.8 182.66L387.93 182.66L359.51 203.32L370.37 169.89Z" /><path class="shp3" d="M427.35 169.89L438.2 203.32L409.78 182.66L444.91 182.66L416.49 203.32L427.35 169.89Z" /></g><g ><path class="shp3" d="M28.49 223.74L39.35 257.16L10.92 236.5L46.06 236.5L17.63 257.16L28.49 223.74Z" /><path class="shp3" d="M85.47 223.74L96.33 257.16L67.9 236.5L103.04 236.5L74.61 257.16L85.47 223.74Z" /><path class="shp3" d="M142.45 223.74L153.31 257.16L124.88 236.5L160.02 236.5L131.59 257.16L142.45 223.74Z" /><path class="shp3" d="M199.43 223.74L210.29 257.16L181.86 236.5L217 236.5L188.57 257.16L199.43 223.74Z" /><path class="shp3" d="M256.41 223.74L267.27 257.16L238.84 236.5L273.98 236.5L245.55 257.16L256.41 223.74Z" /><path class="shp3" d="M313.39 223.74L324.24 257.16L295.82 236.5L330.95 236.5L302.53 257.16L313.39 223.74Z" /><path class="shp3" d="M370.37 223.74L381.22 257.16L352.8 236.5L387.93 236.5L359.51 257.16L370.37 223.74Z" /><path class="shp3" d="M427.35 223.74L438.2 257.16L409.78 236.5L444.91 236.5L416.49 257.16L427.35 223.74Z" /></g><g ><path class="shp3" d="M28.49 277.58L39.35 311.01L10.92 290.35L46.06 290.35L17.63 311.01L28.49 277.58Z" /><path class="shp3" d="M85.47 277.58L96.33 311.01L67.9 290.35L103.04 290.35L74.61 311.01L85.47 277.58Z" /><path class="shp3" d="M142.45 277.58L153.31 311.01L124.88 290.35L160.02 290.35L131.59 311.01L142.45 277.58Z" /><path class="shp3" d="M199.43 277.58L210.29 311.01L181.86 290.35L217 290.35L188.57 311.01L199.43 277.58Z" /><path class="shp3" d="M256.41 277.58L267.27 311.01L238.84 290.35L273.98 290.35L245.55 311.01L256.41 277.58Z" /><path class="shp3" d="M313.39 277.58L324.24 311.01L295.82 290.35L330.95 290.35L302.53 311.01L313.39 277.58Z" /><path class="shp3" d="M370.37 277.58L381.22 311.01L352.8 290.35L387.93 290.35L359.51 311.01L370.37 277.58Z" /><path class="shp3" d="M427.35 277.58L438.2 311.01L409.78 290.35L444.91 290.35L416.49 311.01L427.35 277.58Z" /></g></g></svg>