<svg version="1.2" baseProfile="tiny-ps" xmlns="http://www.w3.org/2000/svg" viewBox="0 0 900 600" width="900" height="600"><title></title><style>tspan { white-space:pre }.shp0 { fill: #ffffff } .shp1 { fill: #369443;stroke: #010002;stroke-width: 2.116 } .shp2 { fill: #f4c53d;stroke: #010002;stroke-width: 2.116 } .shp3 { fill: none;stroke: #010002;stroke-width: 2.116 } .shp4 { fill: #f6e200;stroke: #010002;stroke-width: 2.116 } .shp5 { fill: #0081c6;stroke: #010002;stroke-width: 2.116 } .shp6 { fill: #ffffff;stroke: #010002;stroke-width: 2.116 } .shp7 { fill: #a60032;stroke: #010002;stroke-width: 2.116 } .shp8 { fill: none } .shp9 { fill: #162667;stroke: #010002;stroke-width: 2.116 } </style><path class="shp0" d="M0.13 0.09L899.43 0.09L899.43 599.38L0.13 599.38L0.13 0.09Z" /><path class="shp1" d="M280.68 405.84C280.68 405.84 279.95 400.92 289.31 397.3C298.67 393.69 299.4 380.22 297.53 371.24C297.53 371.24 292.64 379.78 286.71 382.63C286.71 382.63 277.03 387.66 276.59 397.29C276.59 397.29 276.51 400.81 275.79 403.54C275.39 405.04 271.1 391.5 279.22 381.42C287.59 371.02 289.93 362.58 283.28 346.16C283.28 346.16 282.65 356.12 276.1 361.82C269.54 367.51 268.71 367.95 268.82 381.53C268.82 381.53 268.92 386.24 266.42 387.77C266.42 387.77 261.33 380.33 259.97 375.4C258.62 370.47 258 368.39 263.82 362.69C263.82 362.69 282.49 350.64 269.02 324.25C269.02 324.25 268.61 333.34 262.16 338.71C255.71 344.08 256.23 347.69 255.91 357C255.6 366.31 254.98 365.65 254.25 366.97C254.25 366.97 242.39 345.17 251.55 333.56C260.7 321.95 265.8 319.54 255.71 297.97C255.71 297.97 256.15 309.03 248.08 314.51C240 319.98 241.87 332.8 241.87 332.8C241.87 332.8 242.39 337.62 240.73 341.12C240.73 341.12 229.3 318.84 240.21 306.84C249.47 296.65 250.09 289.54 245.1 275.08C245.1 275.08 244.47 281.76 239.37 285.37C234.28 288.99 230.22 292.6 231.16 306.51C231.16 306.51 231.57 316.26 230.32 319C230.32 319 225.54 310.12 224.19 304.32C222.83 298.52 222.31 295.12 225.85 289.32C229.39 283.51 243.43 266.86 226.68 242.88C226.68 242.88 226.16 250.66 221.9 257.67C217.63 264.67 219.61 273 220.55 279.35C221.48 285.7 218.36 291.83 218.36 291.83C218.36 291.83 211.08 278.47 212.64 263.14C214.2 247.81 207.96 235.21 193.81 226.12C193.81 226.12 183.51 250 197.55 262.16C197.55 262.16 209.52 273.98 212.53 288.33C212.53 288.33 203.48 287.45 195.27 271.47C187.05 255.48 169.99 257.99 168.84 257.89C168.84 257.89 171.65 282.64 197.87 289.65C197.87 289.65 214.62 292.49 217.74 304.76C217.74 304.76 220.55 313.19 221.69 317.68C221.69 317.68 216.38 315.6 211.49 308.37C206.61 301.15 207.23 300.27 190.69 298.63C190.69 298.63 184.03 297.86 180.49 293.15C180.49 293.15 187.46 319.32 205.36 319.11C205.36 319.11 221.69 317.35 230.84 338.82C230.84 338.82 229.08 337.72 226.68 336.08C224.29 334.44 218.26 331.37 206.29 332.79C194.33 334.22 191 332.25 187.98 331.26C187.98 331.26 200.05 353.38 217.11 346.81C234.17 340.24 242.41 364.2 242.6 364.66C242.6 364.66 240.31 362.91 237.29 359.95C234.28 357 228.01 353.35 216.17 357.11C216.17 357.11 207.64 360.39 199.01 357.76C199.01 357.76 207.33 373.86 226.79 371.13C246.24 368.39 251.13 385.47 251.13 385.47C251.13 385.47 248.53 383.94 246.76 382.52C244.99 381.09 238.44 377.37 224.39 381.53C210.35 385.69 205.25 380.87 205.25 380.87C205.25 380.87 213.05 395.11 228.03 396.75C228.03 396.75 236.36 396.64 239.89 395.33C243.43 394.01 252.79 391.93 259.24 401.24C259.24 401.24 257.48 401.57 254.77 400.37C254.77 400.37 244.78 396.75 237.19 403.1C237.19 403.1 230.43 410 220.86 408.69C220.86 408.69 233.24 420.74 252.9 410.55C252.9 410.55 259.56 405.73 264.44 409.46C269.34 413.18 280.68 405.84 280.68 405.84Z" /><path class="shp2" d="M390.12 109.05C390.12 109.05 387.83 88.67 404.13 86.71C421.12 84.66 429.51 88.24 429.51 88.24L437.14 103.21L434.5 113.29L423.96 118.1C423.96 118.1 425.77 102.63 411.57 102.3C407.98 102.22 405.86 103.65 400.17 102.74C394.45 101.84 391.39 108.12 390.12 109.05Z" /><path class="shp2" d="M504.76 159.5C502.33 162.64 492.62 163.74 492.62 163.74C492.62 163.74 502.61 171.4 506.91 182.35C511.21 193.31 391.16 182.43 391.16 182.43C391.16 182.43 396.36 178.7 399.9 171.69C399.9 171.69 394.59 173.67 389.29 168.41C389.29 168.41 393.24 169.72 398.44 161.84C398.44 161.84 406.14 151.98 411.55 149.35C411.55 149.35 409.05 150.89 403.02 147.6C403.02 147.6 413.42 146.29 417.17 128.54C417.17 128.54 417.79 124.6 421.74 118.91C425.7 113.21 424.86 120 432.15 111.24C432.15 111.24 435.48 105.03 432.56 101.24C429.65 97.44 426.53 98.83 420.43 95.18C414.32 91.53 411.62 89.48 413.7 83.86C415.78 78.24 421.19 79.11 421.95 79.11C422.71 79.11 423.13 74.22 429.79 70.86C436.45 67.51 454.13 68.97 456.77 70.43C459.4 71.89 470.08 75.03 476.33 90.8C482.57 106.57 474.66 112.48 491.65 136.28C491.65 136.28 484.86 137.74 480.49 136.43C480.49 136.43 489.29 152.05 504.76 159.5Z" /><path class="shp3" d="M430.48 92.95C416.65 92.29 421.95 79.11 421.95 79.11" /><path class="shp2" d="M454.51 94.76C454.51 94.76 452.07 93.61 450 90.87C447.1 87.03 440.63 85.18 437.14 88.79C437.14 88.79 433.6 92.73 430.48 92.95C430.48 92.95 434.02 94.05 436.46 96.29C438.91 98.54 441.46 100.18 445.1 99.69C448.74 99.19 449.31 97.28 451.03 96.13C452.75 94.98 454.51 94.76 454.51 94.76Z" /><path class="shp2" d="M544.5 291.73C544.5 291.73 557.4 302.24 568.22 291.73C568.22 291.73 572.59 296.98 581.33 295.45C590.07 293.92 591.52 289.32 592.36 286.69C592.36 286.69 599.92 291.1 606.3 287.61C612.68 284.13 612.68 278.88 612.68 278.88C612.68 278.88 623.77 281.06 629.46 273.54C635.15 266.03 631.68 258.58 628.63 257.7C628.63 257.7 640.63 260.84 643.89 250.55C646.66 241.79 640.42 237.26 640.42 237.26C640.42 237.26 665.7 237.14 676.07 229.23C676.07 229.23 684.67 223.83 679.54 218.13C679.54 218.13 702.28 214.48 707.97 205.43C707.97 205.43 710.47 202.94 709.64 198.56C709.64 198.56 709.5 196.08 707 195.93C707 195.93 732.94 191.93 740.43 183.38C740.43 183.38 744.04 179.43 742.23 174.18C742.23 174.18 741.85 172.79 741.23 171.86C741.23 171.86 764.84 166.88 776.49 156.36C776.49 156.36 783.22 150.37 779.75 142.34C779.75 142.34 819.22 131.54 810.06 114.16C810.06 114.16 828.51 108.17 822.68 91.53C822.68 91.53 837.94 83.79 831.28 71.52C824.91 59.78 805.35 73.57 782.18 79.97C782.18 79.97 719.48 99.71 688.61 104.96L600.89 235.51L549.7 255.22L544.5 291.73Z" /><path class="shp2" d="M543.88 195.57C543.88 195.57 552.1 189.4 566.76 196.66C566.76 196.66 571.7 200.06 575.59 196.34C578.83 193.23 579.14 187.49 574.67 184.18C563.75 176.07 559.69 151.76 576.34 141.69C576.34 141.69 600.47 127.38 688.97 104.86C688.97 104.86 696.39 102.81 700.34 103.79C704.7 104.88 707.69 108.61 708.31 111.81C708.31 111.81 712.27 123.06 698.96 129.49C698.96 129.49 692.94 132.24 686.75 134.02C686.75 134.02 693.55 132.55 696.46 139.28C699.23 145.7 695.21 152.27 682.73 156.51C682.73 156.51 679.35 157.82 674.54 158.99C674.54 158.99 685.22 162.06 680.09 170.67C680.09 170.67 675.51 179.73 659.35 181.33C659.35 181.33 671.42 182.65 662.89 194.11C662.89 194.11 659.14 200.39 647.35 202.72C647.35 202.72 656.3 203.02 651.79 211.05C647.29 219.08 636.68 223.61 626.24 224.34C626.24 224.34 620.58 224.63 616.63 223.75C616.63 223.75 626.55 228.72 620.72 237.04C620.72 237.04 616.42 242.95 605.67 242.66C605.67 242.66 608.46 251.96 600.58 255.48C594.44 258.21 589.34 253.83 589.34 253.83C589.34 253.83 591.42 263.8 582.47 267.3C582.47 267.3 578 269.6 571.34 267.3C571.34 267.3 566.24 278.69 548.14 270.7C530.04 262.7 543.88 195.57 543.88 195.57Z" /><path class="shp4" d="" /><path class="shp3" d="M822.68 91.53C822.68 91.53 794.25 107.98 705.69 124.44" /><path class="shp2" d="M314.85 382.55C314.85 382.55 304.31 400.66 291.54 400.95C291.54 400.95 269.59 398.28 263.39 404.02C259.06 408.02 254.65 411.32 252.84 421.54C251.04 431.76 256.31 433.96 257.56 434.39C257.56 434.39 258.53 441.69 265.74 439.8C265.74 439.8 266.16 447.39 278.92 443.74C291.68 440.09 296.95 441.26 299.45 428.55C301.95 415.85 304.25 416.06 306.53 414.53C309.58 412.49 315.31 410.56 319.56 408.11C323.39 405.91 338.01 398.47 343.01 397.89C348 397.3 346.89 380.51 346.89 380.51L333.99 380.51L327.75 371.31L314.85 382.55Z" /><path class="shp3" d="M810.06 114.16C810.06 114.16 733.1 139.26 697.26 142.34" /><path class="shp3" d="M779.75 142.34C779.75 142.34 734.6 156.51 681.73 165.45" /><path class="shp3" d="M741.23 171.86C741.23 171.86 690.22 184.11 665.86 186.14" /><path class="shp3" d="M707 195.93C707 195.93 663.85 204.93 652.92 206.01" /><path class="shp5" d="M658.43 261.53L660.59 329.97L660.59 329.97L648.5 322.96L648.5 322.96L628.38 409.81L620.07 403.84L639.67 320.64L639.67 320.64L626.01 320.89L626.01 320.89L658.43 261.53Z" /><path class="shp3" d="M679.54 218.13C679.54 218.13 648.05 222.91 635.52 222.66" /><path class="shp3" d="M640.42 237.26C640.42 237.26 627.69 236.66 621.57 235.65" /><path class="shp3" d="M628.63 257.7C628.63 257.7 617.81 254.78 611.43 250.69" /><path class="shp3" d="M612.68 278.88C612.68 278.88 604.35 275.66 600.33 266.9" /><path class="shp3" d="M592.36 286.69C592.36 286.69 585.91 280.92 585.49 274.5" /><path class="shp5" d="M736.62 291.96L708.01 353.46L708.01 353.46L700.47 341.29L700.47 341.29L640.06 412.64L633.52 405.32L693.7 334.88L693.7 334.88L681.52 328.35L681.52 328.35L736.62 291.96Z" /><path class="shp3" d="M568.22 291.73C568.22 291.73 570.64 289.64 568.98 280.59" /><path class="shp5" d="M710.53 246.82L695.79 313.52L695.79 313.52L685.83 303.45L685.83 303.45L631.77 407.37L623.44 402.51L677.87 298.8L677.87 298.8L664.61 295.32L664.61 295.32L710.53 246.82Z" /><path class="shp3" d="M571.34 267.3C571.34 267.3 572.59 264.71 572.17 260.62" /><path class="shp2" d="M355.48 291.73C355.48 291.73 342.58 302.24 331.76 291.73C331.76 291.73 327.39 296.98 318.65 295.45C309.91 293.92 308.45 289.32 307.62 286.69C307.62 286.69 300.06 291.1 293.68 287.62C287.3 284.13 287.3 278.88 287.3 278.88C287.3 278.88 276.2 281.06 270.52 273.54C264.83 266.03 268.3 258.58 271.35 257.7C271.35 257.7 259.35 260.84 256.09 250.55C253.32 241.79 259.56 237.26 259.56 237.26C259.56 237.26 234.28 237.14 223.91 229.23C223.91 229.23 215.31 223.83 220.44 218.13C220.44 218.13 197.69 214.48 192.01 205.43C192.01 205.43 189.51 202.94 190.34 198.56C190.34 198.56 190.48 196.08 192.98 195.93C192.98 195.93 167.03 191.93 159.55 183.38C159.55 183.38 155.94 179.43 157.74 174.18C157.74 174.18 158.13 172.79 158.75 171.86C158.75 171.86 135.13 166.88 123.48 156.36C123.48 156.36 116.76 150.37 120.22 142.34C120.22 142.34 80.76 131.54 89.91 114.16C89.91 114.16 71.47 108.17 77.29 91.53C77.29 91.53 62.03 83.79 68.69 71.52C75.06 59.78 94.63 73.57 117.8 79.97C117.8 79.97 180.49 99.71 211.37 104.96L299.09 235.51L350.27 255.22L355.48 291.73Z" /><path class="shp3" d="M616.84 137.67C616.84 137.67 602.27 143.51 597.42 151.54C592.56 159.57 595.76 167.38 597.42 171.86C598.25 174.11 608.52 193.89 596.45 208.2" /><path class="shp2" d="M356.1 195.57C356.1 195.57 347.88 189.4 333.21 196.66C333.21 196.66 328.28 200.06 324.39 196.34C321.15 193.23 320.84 187.49 325.31 184.18C336.23 176.07 340.29 151.76 323.64 141.69C323.64 141.69 299.51 127.38 211 104.86C211 104.86 203.59 102.81 199.64 103.79C195.28 104.88 192.28 108.61 191.67 111.81C191.67 111.81 187.71 123.06 201.02 129.49C201.02 129.49 207.03 132.24 213.23 134.02C213.23 134.02 206.42 132.55 203.52 139.28C200.75 145.7 204.77 152.27 217.25 156.51C217.25 156.51 220.63 157.82 225.44 158.99C225.44 158.99 214.76 162.06 219.89 170.67C219.89 170.67 224.47 179.73 240.63 181.33C240.63 181.33 228.56 182.65 237.09 194.11C237.09 194.11 240.83 200.39 252.62 202.73C252.62 202.73 243.68 203.02 248.18 211.05C252.69 219.08 263.3 223.61 273.74 224.34C273.74 224.34 279.39 224.63 283.35 223.75C283.35 223.75 273.43 228.72 279.26 237.04C279.26 237.04 283.56 242.95 294.31 242.66C294.31 242.66 291.52 251.96 299.4 255.48C305.54 258.21 310.64 253.83 310.64 253.83C310.64 253.83 308.56 263.8 317.51 267.3C317.51 267.3 321.98 269.6 328.64 267.3C328.64 267.3 333.73 278.69 351.84 270.7C369.94 262.7 356.1 195.57 356.1 195.57Z" /><path class="shp3" d="M616.63 223.75C616.63 223.75 616.56 223.68 611.43 222.07" /><path class="shp3" d="M647.35 202.72C647.35 202.72 638.67 204.47 630.15 204.55" /><path class="shp3" d="M659.35 181.33C659.35 181.33 649.16 182.35 639.59 182.21" /><path class="shp3" d="M674.54 158.99C674.54 158.99 659.84 161.91 651.93 162.06" /><path class="shp3" d="M686.75 134.02C686.75 134.02 668.61 139.19 655.12 141.03" /><path class="shp3" d="M625.16 151.69C625.16 151.69 638.2 163.81 622.52 175.05C622.52 175.05 629.04 185.27 616.01 195.93" /><path class="shp2" d="M357.17 299.08C357.17 299.08 354.52 313.34 333.46 331.28C333.46 331.28 317.21 345.61 317.62 362.11C318.05 378.91 314.71 380.8 308.33 386.5C308.33 386.5 321.51 387.52 327.89 378.76C327.89 378.76 327.61 393.36 325.67 394.67C325.67 394.67 329.8 394.94 335.79 388.39C335.79 388.39 339.4 384.6 342.73 383.14C342.73 383.14 338.84 393.21 341.9 402.56C341.9 402.56 342.87 398.91 348 397.3C348 397.3 357.29 395.4 360.9 381.97C360.9 381.97 363.26 373.06 377.82 365.18C377.82 365.18 394.33 358.95 393.91 350.82C393.5 342.69 357.17 299.08 357.17 299.08Z" /><path class="shp3" d="M619.47 200.97C619.47 200.97 621.42 220.46 597.56 220.47C597.56 220.47 602.14 237.84 579.11 237.26C579.11 237.26 576.47 251.13 559.83 248.36" /><path class="shp2" d="M585.15 382.55C585.15 382.55 595.7 400.66 608.46 400.95C608.46 400.95 630.41 398.28 636.62 404.02C640.94 408.02 645.35 411.32 647.16 421.54C648.96 431.76 643.69 433.95 642.44 434.39C642.44 434.39 641.47 441.69 634.26 439.8C634.26 439.8 633.84 447.39 621.08 443.74C608.32 440.09 603.05 441.26 600.55 428.55C598.05 415.85 595.75 416.06 593.48 414.53C590.42 412.49 584.69 410.56 580.44 408.11C576.62 405.91 561.99 398.47 556.99 397.89C552 397.3 553.11 380.51 553.11 380.51L566.01 380.51L572.25 371.31L585.15 382.55Z" /><path class="shp2" d="M542.83 299.08C542.83 299.08 545.48 313.34 566.55 331.28C566.55 331.28 582.8 345.61 582.38 362.11C581.96 378.91 585.29 380.8 591.67 386.5C591.67 386.5 578.5 387.52 572.12 378.76C572.12 378.76 572.39 393.36 574.33 394.67C574.33 394.67 570.2 394.94 564.21 388.39C564.21 388.39 560.6 384.6 557.27 383.14C557.27 383.14 561.16 393.21 558.11 402.56C558.11 402.56 557.13 398.91 552 397.3C552 397.3 542.71 395.4 539.1 381.97C539.1 381.97 536.74 373.06 522.18 365.18C522.18 365.18 505.67 358.95 506.09 350.82C506.51 342.69 542.83 299.08 542.83 299.08Z" /><path class="shp3" d="M596.49 400.95C596.49 400.95 600.27 401.79 608.46 400.95" /><path class="shp3" d="M631.48 411.17C631.48 411.17 643 409.42 642.44 434.39" /><path class="shp3" d="M624.55 416.87C624.55 416.87 634.95 415.56 634.26 439.8" /><path class="shp3" d="M524.12 358.46C524.12 358.46 529.12 359.48 532.58 363.43C536.05 367.37 542.71 366.64 542.71 366.64C542.71 366.64 539.1 363.72 537.85 356.42C536.61 349.11 532.58 346.92 532.58 346.92" /><path class="shp3" d="M544.5 340.01C544.5 340.01 549.49 341.03 552.96 344.97C556.42 348.92 563.08 348.19 563.08 348.19C563.08 348.19 559.48 345.27 558.23 337.96C556.98 330.66 552.96 328.47 552.96 328.47" /><path class="shp3" d="M547.93 368.35C547.93 368.35 552.29 369.25 555.32 372.69C558.34 376.13 564.16 375.49 564.16 375.49C564.16 375.49 561.01 372.94 559.92 366.57C558.83 360.19 555.32 358.28 555.32 358.28" /><path class="shp2" d="M466.32 482.87C466.32 482.87 470.1 499.55 483.24 498.21C483.24 498.21 492.53 497.33 491.84 481.85C491.84 481.85 505.57 489.15 507.79 471.05C507.79 471.05 520.28 473.97 520.14 457.03C520.14 457.03 531.79 459.07 530.4 444.03C530.4 444.03 543.03 447.39 543.03 433.22C543.03 433.22 572.57 428.33 510.98 372.19L456.06 404.9L466.32 482.87Z" /><path class="shp2" d="M460.22 408.02C460.22 408.02 469.37 416.14 475.89 404.02C475.89 404.02 484.77 403.58 486.15 396.86C486.15 396.86 493.37 396.13 494.75 389.27C494.75 389.27 504.6 388.25 504.33 379.93C504.33 379.93 522.23 378.54 504.33 358.28C486.43 338.02 456.05 391.9 456.05 391.9L460.22 408.02Z" /><path class="shp3" d="M491.84 481.85C491.84 481.85 490.45 452.5 465.01 410.44" /><path class="shp3" d="M507.79 471.05C507.79 471.05 511.75 454.11 475.89 404.02C475.89 404.02 480.05 392.05 467.29 384.38" /><path class="shp3" d="M520.14 457.03C520.14 457.03 521.25 438.7 486.15 396.86C486.15 396.86 489.25 386.06 476.54 377.44" /><path class="shp3" d="M530.4 444.03C530.4 444.03 529.09 425.49 494.75 389.27C494.75 389.27 496.47 378.17 484.17 371.31" /><path class="shp3" d="M543.03 433.22C543.03 433.22 540.53 412.05 504.33 379.93C504.33 379.93 505.57 371.6 493.51 363.13" /><path class="shp2" d="M433.68 482.87C433.68 482.87 429.9 499.55 416.76 498.21C416.76 498.21 407.47 497.33 408.16 481.85C408.16 481.85 394.43 489.15 392.21 471.05C392.21 471.05 379.72 473.97 379.86 457.03C379.86 457.03 368.21 459.07 369.6 444.03C369.6 444.03 356.98 447.39 356.98 433.22C356.98 433.22 327.43 428.33 389.02 372.19L443.95 404.9L433.68 482.87Z" /><path class="shp2" d="M439.79 408.02C439.79 408.02 430.63 416.14 424.11 404.02C424.11 404.02 415.23 403.58 413.85 396.87C413.85 396.87 406.63 396.13 405.25 389.27C405.25 389.27 395.4 388.25 395.68 379.93C395.68 379.93 377.77 378.54 395.67 358.28C413.57 338.02 443.95 391.9 443.95 391.9L439.79 408.02Z" /><path class="shp3" d="M408.16 481.85C408.16 481.85 409.55 452.5 435 410.44" /><path class="shp3" d="M392.21 471.05C392.21 471.05 388.25 454.11 424.11 404.02C424.11 404.02 419.95 392.05 432.71 384.38" /><path class="shp2" d="M450 403C458.88 403 468.93 458.41 466.32 491.8C465.37 503.93 458.88 513.83 450 513.83C441.13 513.83 434.63 503.93 433.68 491.8C431.07 458.41 441.13 403 450 403Z" /><path class="shp3" d="M379.86 457.03C379.86 457.03 378.75 438.7 413.85 396.86C413.85 396.86 410.75 386.06 423.46 377.44" /><path class="shp3" d="M369.6 444.03C369.6 444.03 370.92 425.49 405.25 389.27C405.25 389.27 403.53 378.17 415.83 371.31" /><path class="shp2" d="M450 420.74C443.21 420.74 437.72 412.61 437.72 402.56C437.72 392.51 443.21 384.38 450 384.38C456.79 384.38 462.28 392.51 462.28 402.56C462.28 412.61 456.79 420.74 450 420.74Z" /><path class="shp3" d="M356.98 433.22C356.98 433.22 359.47 412.05 395.68 379.93C395.68 379.93 394.43 371.6 406.5 363.13" /><path class="shp6" d="M450 398.59C450 398.59 554.15 352.45 554.41 245.73L345.59 245.73C345.85 352.45 450 398.59 450 398.59Z" /><path class="shp3" d="M393.78 245.73L409.84 245.73" /><path class="shp3" d="M361.65 245.73L377.72 245.73" /><path class="shp3" d="M425.91 245.73L441.97 245.73" /><path class="shp7" d="M361.65 245.73L361.65 313.92C361.65 313.92 369.63 329.74 377.72 339.65L377.72 245.73L361.65 245.73L361.65 245.73Z" /><path class="shp7" d="M393.78 245.73L393.78 358.14C393.78 358.14 403.83 367.98 409.84 372.73L409.84 245.73L393.78 245.73L393.78 245.73Z" /><path class="shp7" d="M425.91 245.73L425.91 384.68C425.91 384.68 437.37 392.08 441.97 394.5L441.97 245.73L425.91 245.73Z" /><path class="shp3" d="M361.65 245.73L377.72 245.73" /><path class="shp3" d="M393.78 245.73L409.84 245.73" /><path class="shp3" d="M425.91 245.73L441.97 245.73" /><path class="shp7" d="M538.35 245.73L538.35 313.92C538.35 313.92 530.37 329.74 522.28 339.65L522.28 245.73L538.35 245.73Z" /><path class="shp7" d="M506.22 245.73L506.22 358.14C506.22 358.14 496.18 367.98 490.16 372.73L490.16 245.73L506.22 245.73L506.22 245.73Z" /><path class="shp7" d="M474.09 245.73L474.09 384.68C474.09 384.68 462.63 392.08 458.03 394.5L458.03 245.73L474.09 245.73Z" /><path class="shp8" d="M560.02 501.79L550.34 513.62" /><path class="shp8" d="M538.35 500.48L565.01 525.12" /><path class="shp5" d="M618.38 439.06L614.33 455.61L614.33 455.61L625.42 466.65L625.42 466.65L609.75 532.81L595.81 514.1L575.16 523.73L590.83 457.57L590.83 457.57L605.36 453.52L605.36 453.52L609.13 437C609.13 437 613.52 435.28 618.38 439.06Z" /><path class="shp5" d="M622.09 428.14L614.11 443.03L614.11 443.03L622.11 456.71L622.11 456.71L590.7 516.35L581.84 494.48L559.53 498.16L590.93 438.52L590.93 438.52L605.96 438.56L605.96 438.56L613.66 423.63C613.66 423.63 619.27 423.62 622.09 428.14Z" /><path class="shp5" d="M623.44 432.47L602.21 459.43L602.21 459.43L607.08 474.66L607.08 474.66L563.74 525.33L559.78 501.92L537.25 500.22L580.59 449.54L580.59 449.54L595.22 453.15L595.22 453.15L617.74 424.53C617.74 424.53 623.77 427.53 623.44 432.47Z" /><path class="shp3" d="" /><path class="shp3" d="M77.29 91.53C77.29 91.53 105.73 107.98 194.29 124.44" /><path class="shp3" d="M89.92 114.16C89.92 114.16 166.88 139.26 202.72 142.34" /><path class="shp3" d="M120.23 142.34C120.23 142.34 165.37 156.51 218.25 165.45" /><path class="shp3" d="M158.75 171.86C158.75 171.86 209.76 184.11 234.11 186.14" /><path class="shp3" d="M192.98 195.93C192.98 195.93 236.12 204.93 247.06 206.01" /><path class="shp3" d="M220.44 218.13C220.44 218.13 251.93 222.91 264.46 222.66" /><path class="shp3" d="M259.56 237.26C259.56 237.26 272.29 236.66 278.41 235.65" /><path class="shp3" d="M271.35 257.7C271.35 257.7 282.17 254.78 288.55 250.69" /><path class="shp3" d="M287.3 278.88C287.3 278.88 295.62 275.66 299.65 266.9" /><path class="shp3" d="M307.62 286.69C307.62 286.69 314.07 280.92 314.49 274.5" /><path class="shp3" d="M331.76 291.73C331.76 291.73 329.34 289.64 330.99 280.59" /><path class="shp3" d="M328.64 267.3C328.64 267.3 327.39 264.71 327.8 260.62" /><path class="shp3" d="M283.14 137.67C283.14 137.67 297.7 143.51 302.56 151.54C307.41 159.57 304.22 167.38 302.56 171.86C301.73 174.11 291.46 193.89 303.53 208.2" /><path class="shp3" d="M283.35 223.75C283.35 223.75 283.42 223.68 288.55 222.07" /><path class="shp3" d="M252.62 202.72C252.62 202.72 261.3 204.47 269.82 204.55" /><path class="shp3" d="M240.62 181.33C240.62 181.33 250.82 182.35 260.39 182.21" /><path class="shp1" d="M278.52 436.08C278.52 436.08 278.21 427.21 289.44 426.56L322.52 472.55C322.52 472.55 321.27 475.51 306.29 475.18C306.29 475.18 304.71 475.17 303.87 476.92C302.6 479.61 278.52 436.08 278.52 436.08Z" /><path class="shp3" d="M225.44 158.99C225.44 158.99 240.14 161.91 248.05 162.06" /><path class="shp3" d="M213.23 134.02C213.23 134.02 231.36 139.19 244.86 141.03" /><path class="shp3" d="M274.82 151.69C274.82 151.69 261.78 163.81 277.45 175.05C277.45 175.05 270.93 185.28 283.97 195.93" /><path class="shp3" d="M280.5 200.97C280.5 200.97 278.56 220.47 302.42 220.47C302.42 220.47 297.84 237.84 320.87 237.26C320.87 237.26 323.5 251.13 340.15 248.36" /><path class="shp3" d="M303.47 400.95C303.47 400.95 299.7 401.79 291.51 400.95" /><path class="shp3" d="M268.48 411.17C268.48 411.17 256.97 409.42 257.53 434.39" /><path class="shp3" d="M275.42 416.87C275.42 416.87 265.02 415.56 265.71 439.8" /><path class="shp3" d="M375.88 358.46C375.88 358.46 370.89 359.48 367.42 363.42C363.95 367.37 357.29 366.64 357.29 366.64C357.29 366.64 360.9 363.72 362.15 356.41C363.4 349.11 367.42 346.92 367.42 346.92" /><path class="shp3" d="M355.51 340.01C355.51 340.01 350.51 341.03 347.04 344.97C343.58 348.92 336.92 348.19 336.92 348.19C336.92 348.19 340.53 345.27 341.77 337.96C343.02 330.66 347.04 328.47 347.04 328.47" /><path class="shp3" d="M352.07 368.35C352.07 368.35 347.71 369.24 344.68 372.69C341.66 376.13 335.84 375.49 335.84 375.49C335.84 375.49 338.99 372.94 340.08 366.57C341.17 360.19 344.68 358.28 344.68 358.28" /><path class="shp9" d="M554.41 168.19C554.41 168.19 503.3 194.91 450 166C396.7 194.91 345.59 168.19 345.59 168.19L345.59 245.73L554.41 245.73L554.41 168.19L554.41 168.19Z" /><path class="shp5" d="M85.56 369.27C90.62 367.2 94.27 365.21 94.25 359.81C94.25 358.53 93.53 355.68 92.1 351.27L58.11 247.46C56.1 241.29 54.58 237.63 53.88 236.28C52.35 233.35 49.35 232.16 45.31 230.48L49.49 230.48L84.31 230.48L88.5 230.48C83.81 232.7 79.53 234.46 79.57 239.43C79.59 241.33 80.12 244 81.22 247.46L107.25 328.92L133.26 247.46C134.36 244 134.93 241.33 134.91 239.43C134.86 234.32 130.41 232.48 126.03 230.48L130.17 230.48L163.72 230.48L167.89 230.48C164.06 232.01 160.94 233.22 159.34 236.28C158.63 237.63 157.11 241.29 155.1 247.46L121.12 351.27C119.68 355.68 119.16 358.58 118.97 359.92C118.97 359.92 117.4 366.48 127.65 369.27L85.56 369.27L85.56 369.27Z" /><path class="shp5" d="M809.71 358.59L809.71 241.05C809.71 239.02 809.37 237.46 808.7 236.38C808.03 235.29 805.11 232.17 800.95 230.48L805.11 230.48L835.7 230.48L839.86 230.48C835.7 231.86 832.78 235.21 832.11 236.33C831.44 237.44 831.1 239.02 831.1 241.05L831.1 358.59C831.1 360.7 831.45 362.3 832.15 363.42C832.84 364.54 835.7 367.27 839.86 369.27L835.7 369.27L805.11 369.27L800.95 369.27C805.11 367.37 808.03 364.46 808.7 363.37C809.37 362.29 809.71 360.7 809.71 358.59Z" /></svg>