<svg version="1.2" baseProfile="tiny-ps" xmlns="http://www.w3.org/2000/svg" viewBox="0 0 900 600" width="900" height="600">
	<defs>
		<clipPath clipPathUnits="userSpaceOnUse" id="cp1">
			<path d="m0 0h450v300h-450v-300z" />
		</clipPath>
	</defs>
	<style>
		tspan { white-space:pre }
		.s0 { fill: #00247d } 
		.s1 { fill: #ffffff } 
		.s2 { fill: #ffffff;stroke: #000000;stroke-linejoin:round;stroke-width: .6 } 
		.s3 { fill: none;stroke: #000000;stroke-linecap:round;stroke-linejoin:round;stroke-width: .6 } 
		.s4 { fill: none;stroke: #000000;stroke-linecap:round;stroke-width: .6 } 
		.s5 { fill: none;stroke: #000000;stroke-linecap:round;stroke-width: .3 } 
		.s6 { fill: none;stroke: #000000;stroke-linejoin:round;stroke-width: .4 } 
		.s7 { fill: none;stroke: #000000;stroke-linecap:round;stroke-linejoin:round;stroke-width: .3 } 
		.s8 { fill: #000000 } 
		.s9 { fill: #ffd700;stroke: #000000;stroke-width: .6 } 
		.s10 { fill: #ffffff;stroke: #000000;stroke-width: .6 } 
		.s11 { fill: #78a5c8;stroke: #000000;stroke-width: .6 } 
		.s12 { fill: #007800 } 
		.s13 { fill: #989f8e } 
		.s14 { fill: #ffd700 } 
		.s15 { fill: #cf142b } 
		.s16 { fill: none;stroke: #000000;stroke-width: .5 } 
		.s17 { fill: none;stroke: #000000;stroke-linejoin:round;stroke-width: .6 } 
		.s18 { fill: none;stroke: #000000;stroke-linecap:round;stroke-width: .4 } 
		.s19 { fill: #ffffff;stroke: #000000;stroke-width: .5 } 
		.s20 { fill: none;stroke: #000000;stroke-width: 3.3 } 
		.s21 { fill: none;stroke: #ffd700;stroke-width: 2 } 
		.s22 { fill: #ffd700;stroke: #000000;stroke-linecap:round;stroke-linejoin:round;stroke-width: .5 } 
		.s23 { fill: #ffd700;stroke: #000000;stroke-linejoin:round;stroke-width: .5 } 
		.s24 { fill: #ffd700;stroke: #000000;stroke-linecap:round;stroke-linejoin:round;stroke-width: .6 } 
		.s25 { fill: #000000;stroke: #000000;stroke-linecap:round;stroke-linejoin:round;stroke-width: .3 } 
		.s26 { fill: #000000;stroke: #000000;stroke-linejoin:round;stroke-width: .3 } 
		.s27 { fill: #e9001a } 
		.s28 { fill: #c40000 } 
		.s29 { fill: #920000 } 
		.s30 { fill: none;stroke: #000000;stroke-width: .3 } 
		.s31 { fill: #ffd700;stroke: #000000;stroke-width: .3 } 
		.s32 { fill: #ececec } 
		.s33 { fill: #cccccc } 
		.s34 { fill: #f6e078 } 
		.s35 { fill: none;stroke: #000000;stroke-linecap:round;stroke-width: 2.2 } 
		.s36 { fill: none;stroke: #ffd700;stroke-linecap:round;stroke-width: 1.5 } 
		.s37 { fill: #2d6afa;stroke: #a0892c;stroke-width: .3 } 
		.s38 { fill: #2b96f6;stroke: #a0892c;stroke-width: .3 } 
		.s39 { fill: #5183fb;stroke: #d7e3f4;stroke-width: .3 } 
		.s40 { fill: #1353b4;stroke: #afc6e9;stroke-width: .3 } 
		.s41 { fill: #134fab;stroke: #afc6e9;stroke-width: .3 } 
		.s42 { fill: #135ecb;stroke: #afc6e9;stroke-width: .3 } 
		.s43 { fill: #ff0a3e } 
		.s44 { fill: #bc0028 } 
		.s45 { fill: none;stroke: #f4d7d7;stroke-width: .3 } 
		.s46 { fill: #306947 } 
		.s47 { fill: #36a464 } 
		.s48 { fill: #abe8c4 } 
		.s49 { fill: #ececec;stroke: #ececec;stroke-linecap:round;stroke-width: .3 } 
		.s50 { fill: #c5c5c5 } 
		.s51 { fill: #000000;stroke: #ffffff;stroke-width: 52 } 
		.s52 { fill: none;stroke: #ffffff;stroke-width: 86.7 } 
		.s53 { fill: none;stroke: #cf142b;stroke-width: 52 } 
	</style>
	<path class="s0" d="m0 0h900v600h-900v-600z" />
	<g >
		<path class="s1" d="m810 300c0 74.56-60.44 135-135 135c-74.56 0-135-60.44-135-135c0-74.56 60.44-135 135-135c74.56 0 135 60.44 135 135z" />
		<g >
			<g >
				<g >
					<g >
						<path class="s2" d="m594.71 382.33c-0.19-0.87 0.82-1.76 1.94-1.78c3.55-0.06 4.7 2.78 6.84 4.4c-1.12 2.04-2.87 3.53-5.1 4.57c-1.61 0.41-3.76 1.47-4.61 0c-1.98-3.42 1.64-4.01 0.93-7.19v0v0z" />
						<path class="s2" d="m615.46 400.42c-1.26 2.22-5.49 0.85-5.11-1.76c0.18-1.22 2.19-2.45 3.37-3.73c0.97-1.05 4.41 0.74 3.23 2.85l-1.49 2.64v0z" />
						<path class="s2" d="m581.81 375.98c-0.84-3.13 2.14-3.64 4.23-3.82c14.02-1.19 40.24 9.12 34.25 19.72l-4.82 8.54c1.22-2.83-4.59-6.59-8.74-7.22c-3.47-0.53-6.32 0.37-9.71-0.85c-2.78-1-5.94-5.4-0.75-5.6c2.06-0.08 4.38-0.48 3.69-2.26c-0.55-1.41-3.05-1.6-8.34-1.6c-3.88 0-8.7-2.8-9.8-6.91v0h-0.01z" />
					</g>
					<path class="s3" d="m614.75 397.74c-0.46 0.4-0.87 0.91-1.28 1.66c-0.31-1.26-2.06-2.31-2.98-1.15" />
				</g>
				<path class="s4" d="m602.44 381.59c-2.32 1.75-1.28 3.74-3.23 4.63" />
			</g>
			<g >
				<path class="s5" d="m617.08 394.95l-1.89 3.27" />
				<path class="s5" d="m616.15 394.13l-1.76 3.04" />
				<path class="s5" d="m615.2 393.34l-1.69 2.93" />
				<path class="s5" d="m614.26 392.52l-1.73 3" />
				<path class="s5" d="m613.37 391.63l-1.08 1.88" />
			</g>
			<g >
				<path class="s5" d="m599.28 387.72l-4.1 3.44" />
				<path class="s5" d="m599.71 388.95l-3.47 2.91" />
				<path class="s5" d="m600.14 390.18l-2.73 2.29" />
				<path class="s5" d="m594.91 377.06l-6.29 5.28" />
				<path class="s5" d="m593.69 376.49l-6.38 5.35" />
				<path class="s5" d="m592.4 375.98l-6.24 5.24" />
				<path class="s5" d="m591.08 375.49l-5.92 4.97" />
				<path class="s5" d="m589.58 375.16l-5.4 4.53" />
				<path class="s5" d="m588.01 374.89l-4.66 3.91" />
				<path class="s5" d="m596.14 377.61l-6.13 5.14" />
				<path class="s5" d="m597.33 378.21l-5.55 4.66" />
				<path class="s5" d="m598.44 378.87l-4.82 4.05" />
				<path class="s5" d="m599.57 379.52l-4.12 3.46" />
				<path class="s5" d="m600.68 380.17l-3.47 2.91" />
				<path class="s5" d="m601.72 380.9l-3.03 2.54" />
				<path class="s5" d="m586.35 374.69l-3.67 3.08" />
				<path class="s5" d="m584.62 374.55l-2.56 2.15" />
				<path class="s5" d="m599.71 385.77l-5.4 4.53" />
				<path class="s5" d="m601.04 383.06l-1.3 1.09" />
				<path class="s5" d="m596.81 386.61l-3.08 2.59" />
			</g>
			<g >
				<g >
					<g >
						<g >
							<path class="s2" d="m755.29 382.33c-0.7 3.18 2.91 3.77 0.93 7.19c-0.85 1.47-3 0.41-4.61 0c-2.23-1.05-3.98-2.53-5.1-4.57c2.13-1.62 3.29-4.46 6.84-4.4c1.12 0.02 2.13 0.91 1.94 1.78v0z" />
							<path class="s2" d="m733.05 397.78c-1.19-2.1 2.25-3.89 3.23-2.85c1.19 1.28 3.2 2.51 3.37 3.73c0.38 2.61-3.85 3.98-5.11 1.76l-1.49-2.64v0z" />
							<path class="s2" d="m768.19 375.98c-1.1 4.1-5.93 6.91-9.8 6.91c-5.29 0-7.8 0.19-8.34 1.6c-0.69 1.78 1.63 2.18 3.69 2.26c5.19 0.21 2.03 4.6-0.75 5.6c-3.39 1.22-6.24 0.32-9.71 0.85c-4.15 0.63-9.97 4.39-8.74 7.22l-4.82-8.54c-5.99-10.6 20.23-20.92 34.25-19.72c2.09 0.18 5.07 0.69 4.23 3.82v0l-0.01 0z" />
						</g>
						<path class="s3" d="m739.52 398.25c-0.92-1.16-2.67-0.11-2.98 1.15c-0.41-0.74-0.82-1.26-1.28-1.66" />
					</g>
					<path class="s4" d="m747.56 381.59c2.32 1.75 1.28 3.74 3.23 4.63" />
				</g>
				<g >
					<g >
						<path class="s5" d="m732.92 394.95l1.89 3.27" />
						<path class="s5" d="m733.85 394.13l1.76 3.04" />
						<path class="s5" d="m734.8 393.34l1.69 2.93" />
						<path class="s5" d="m735.74 392.52l1.73 3" />
						<path class="s5" d="m736.63 391.63l1.08 1.88" />
					</g>
					<g >
						<path class="s5" d="m750.72 387.72l4.1 3.44" />
						<path class="s5" d="m750.29 388.95l3.47 2.91" />
						<path class="s5" d="m749.86 390.18l2.73 2.29" />
						<path class="s5" d="m755.09 377.06l6.29 5.28" />
						<path class="s5" d="m756.31 376.49l6.38 5.35" />
						<path class="s5" d="m757.6 375.98l6.24 5.24" />
						<path class="s5" d="m758.92 375.49l5.92 4.97" />
						<path class="s5" d="m760.42 375.16l5.4 4.53" />
						<path class="s5" d="m761.99 374.89l4.66 3.91" />
						<path class="s5" d="m753.86 377.61l6.13 5.14" />
						<path class="s5" d="m752.67 378.21l5.55 4.66" />
						<path class="s5" d="m751.56 378.87l4.82 4.05" />
						<path class="s5" d="m750.43 379.52l4.12 3.46" />
						<path class="s5" d="m749.32 380.17l3.47 2.91" />
						<path class="s5" d="m748.28 380.9l3.03 2.54" />
						<path class="s5" d="m763.65 374.69l3.67 3.08" />
						<path class="s5" d="m765.38 374.55l2.56 2.15" />
						<path class="s5" d="m750.29 385.77l5.4 4.53" />
						<path class="s5" d="m748.96 383.06l1.3 1.09" />
						<path class="s5" d="m753.19 386.61l3.08 2.59" />
					</g>
				</g>
			</g>
			<g >
				<path class="s2" d="m598.42 360.15c0.62-0.03 1.25 0.06 1.84 0.32c7.81 3.3 14.88 8.24 21.21 14.81c14.17 14.73 31.59 24.29 53.53 24.29c21.94 0 39.37-9.56 53.53-24.29c6.33-6.58 13.4-11.52 21.21-14.81c1.91-0.81 4.1 0.05 5.62 1.02c5.1 3.25 14.15 9.85 12.84 14.5c0.7-2.28-7.35-1.31-10.31-0.11c-12.46 5.04-15.32 10.56-23.14 17.5c-16.74 14.85-36.3 23.54-59.74 23.54c-23.45 0-43-8.68-59.74-23.54c-7.82-6.94-10.68-12.45-23.14-17.5c-2.96-1.2-11.02-2.17-10.31 0.11c-1.32-4.65 7.73-11.25 12.84-14.5c1.04-0.66 2.4-1.28 3.77-1.34v0h-0.01z" />
				<g >
					<path class="s6" d="m767.99 373.26c-5.01-3.46-16.18 2.24-20.9 5.53c-4.63 3.23-7.53 6.75-12.18 11.06c-16.76 15.54-36.46 24.59-59.91 24.59c-23.45 0-43.14-9.05-59.91-24.59c-4.65-4.31-7.55-7.83-12.18-11.06c-4.72-3.29-15.88-8.99-20.9-5.53" />
					<g >
						<g >
							<path class="s7" d="m598.86 361.57c-2.42 0.68-9.86 6.2-12.48 9.26" />
							<path class="s7" d="m600.36 362.51c-1.77 0.49-8.34 5.19-10.94 7.74" />
							<path class="s7" d="m601.95 363.38c-1.5 0.51-7.28 4.53-9.71 6.66" />
							<path class="s7" d="m603.59 364.18c-1.41 0.57-6.67 4.21-8.28 5.55" />
							<path class="s7" d="m605.16 365.12c-1.13 0.47-4.64 2.83-6.85 4.45" />
							<path class="s7" d="m606.67 366.13c-0.91 0.36-3.52 2.08-5.67 3.59" />
						</g>
						<g >
							<path class="s7" d="m751.14 361.57c2.42 0.68 9.86 6.2 12.48 9.26" />
							<path class="s7" d="m749.64 362.51c1.77 0.49 8.34 5.19 10.94 7.74" />
							<path class="s7" d="m748.05 363.38c1.5 0.51 7.28 4.53 9.71 6.66" />
							<path class="s7" d="m746.41 364.18c1.41 0.57 6.67 4.21 8.28 5.55" />
							<path class="s7" d="m744.84 365.12c1.13 0.47 4.64 2.83 6.85 4.45" />
							<path class="s7" d="m743.33 366.13c0.91 0.36 3.52 2.08 5.67 3.59" />
						</g>
					</g>
				</g>
			</g>
		</g>
		<g >
			<path class="s8" d="m604.06 376.27l0.35-0.43c0.44 0.33 0.77 0.49 1 0.46c0.23-0.02 0.53-0.27 0.9-0.74l3.68-4.43c0.4-0.45 0.59-0.79 0.57-1.03c-0.02-0.23-0.23-0.53-0.65-0.89l0.35-0.43l3.24 2.69l-0.35 0.43c-0.43-0.34-0.76-0.49-0.99-0.47c-0.23 0.03-0.53 0.28-0.9 0.75l-3.68 4.43c-0.4 0.45-0.59 0.79-0.57 1.02c0.02 0.23 0.23 0.52 0.64 0.89l-0.35 0.43l-3.24-2.69v0.01z" />
			<path fill-rule="evenodd" class="s8" d="m625.84 383.08c0.44 0.36 0.78 0.72 1.04 1.06c0.26 0.34 0.44 0.69 0.53 1.06c0.1 0.37 0.11 0.76 0.01 1.16c-0.09 0.4-0.3 0.78-0.61 1.16c-0.66 0.73-1.37 1.11-2.14 1.11c-0.77 0.01-1.49-0.21-2.15-0.66c-0.1-0.06-0.19-0.13-0.28-0.2c-0.09-0.07-0.16-0.13-0.23-0.19l-0.62-0.88l-1.38 1.64c-0.4 0.45-0.59 0.79-0.56 1.03c0.03 0.24 0.28 0.57 0.75 1l-0.35 0.41l-3.34-2.81l0.35-0.41c0.44 0.33 0.77 0.49 1 0.46c0.23-0.03 0.53-0.27 0.9-0.73l3.71-4.41c0.41-0.46 0.61-0.81 0.6-1.03c-0.01-0.22-0.2-0.5-0.58-0.84l0.36-0.42l2.96 2.5l0.03-0.01zm-4.04 3.16c0.05 0.1 0.13 0.21 0.23 0.34c0.1 0.13 0.23 0.26 0.38 0.39c0.29 0.27 0.69 0.41 1.23 0.42c0.53 0.01 1.11-0.32 1.73-1.01c0.51-0.63 0.72-1.21 0.63-1.73c-0.08-0.52-0.33-0.94-0.74-1.27c-0.13-0.11-0.24-0.19-0.34-0.24c-0.1-0.06-0.18-0.08-0.25-0.07c-0.07 0-0.15 0.03-0.23 0.08c-0.08 0.05-0.17 0.13-0.27 0.25l-2.38 2.83l0.01 0.01z" />
			<path class="s8" d="m632.01 396.75c-0.23 0.24-0.54 0.54-0.93 0.91c-0.39 0.37-0.69 0.63-0.9 0.8l-6.06-4.22l0.32-0.46c0.52 0.33 0.9 0.47 1.14 0.44c0.24-0.03 0.52-0.3 0.84-0.8l3.29-4.73c0.36-0.49 0.53-0.85 0.49-1.07c-0.03-0.22-0.26-0.49-0.69-0.8l0.32-0.46l5.62 3.91c-0.08 0.14-0.24 0.39-0.46 0.76c-0.22 0.37-0.45 0.75-0.68 1.14l-0.53-0.27c0.11-0.27 0.18-0.51 0.23-0.73c0.04-0.22 0.06-0.41 0.06-0.59c0-0.16-0.07-0.34-0.22-0.53c-0.15-0.19-0.41-0.41-0.78-0.67l-0.75-0.52c-0.2-0.15-0.34-0.22-0.44-0.21c-0.09 0.01-0.2 0.11-0.33 0.31l-1.82 2.61l0.95 0.66c0.48 0.36 0.84 0.54 1.08 0.54c0.23 0 0.52-0.18 0.87-0.54l0.46 0.32l-1.72 2.46l-0.46-0.32c0.24-0.47 0.32-0.82 0.24-1.04c-0.08-0.22-0.38-0.49-0.88-0.82l-0.95-0.66l-1.51 2.17c-0.2 0.28-0.33 0.52-0.39 0.71c-0.06 0.19-0.05 0.35 0.02 0.49c0.07 0.13 0.19 0.28 0.38 0.44c0.19 0.16 0.41 0.33 0.68 0.51c0.35 0.25 0.66 0.42 0.91 0.52c0.26 0.1 0.5 0.12 0.74 0.06c0.4-0.1 0.89-0.34 1.46-0.73l0.41 0.41h-0.01z" />
			<path fill-rule="evenodd" class="s8" d="m640.73 393.37c0.83 0.44 1.5 0.91 2.02 1.42c0.52 0.51 0.89 1.08 1.09 1.71c0.16 0.48 0.21 1.01 0.16 1.59c-0.05 0.58-0.24 1.19-0.56 1.81c-0.43 0.8-0.95 1.42-1.54 1.85c-0.59 0.43-1.24 0.7-1.95 0.81c-0.68 0.13-1.39 0.1-2.13-0.07c-0.75-0.17-1.52-0.47-2.34-0.91l-3.19-1.71l0.26-0.49c0.52 0.26 0.9 0.35 1.12 0.29c0.22-0.07 0.47-0.37 0.74-0.91l2.72-5.08c0.3-0.52 0.42-0.89 0.37-1.11c-0.05-0.22-0.31-0.46-0.76-0.72l0.26-0.49l3.73 2v0.01zm-4.79 6.13c-0.25 0.45-0.34 0.82-0.26 1.1c0.08 0.28 0.35 0.54 0.8 0.77c1 0.51 1.95 0.57 2.86 0.17c0.91-0.4 1.68-1.17 2.31-2.32c0.34-0.64 0.55-1.27 0.62-1.88c0.07-0.61-0.01-1.17-0.24-1.67c-0.14-0.39-0.36-0.73-0.65-1.03c-0.29-0.3-0.65-0.57-1.07-0.79c-0.25-0.13-0.46-0.22-0.62-0.26c-0.16-0.04-0.28-0.06-0.36-0.04c-0.08 0.02-0.17 0.08-0.25 0.18c-0.08 0.1-0.17 0.25-0.28 0.45l-2.85 5.32h-0.01z" />
			<path class="s8" d="m651.44 405.98c-0.16 0.29-0.39 0.66-0.68 1.11c-0.29 0.45-0.51 0.78-0.68 1l-6.91-2.61l0.2-0.52c0.58 0.19 0.99 0.24 1.21 0.15c0.22-0.09 0.43-0.42 0.62-0.98l2.04-5.39c0.23-0.56 0.3-0.95 0.22-1.16c-0.09-0.21-0.37-0.41-0.86-0.61l0.2-0.52l6.4 2.42c-0.05 0.15-0.14 0.43-0.26 0.85c-0.13 0.41-0.25 0.84-0.38 1.27l-0.58-0.13c0.04-0.29 0.05-0.54 0.04-0.76c-0.01-0.22-0.04-0.42-0.09-0.59c-0.04-0.16-0.15-0.31-0.35-0.46c-0.2-0.15-0.5-0.3-0.92-0.46l-0.85-0.32c-0.23-0.1-0.39-0.13-0.47-0.1c-0.09 0.03-0.17 0.16-0.24 0.38l-1.12 2.97l1.08 0.41c0.56 0.23 0.95 0.32 1.18 0.26c0.23-0.06 0.46-0.3 0.71-0.74l0.53 0.2l-1.06 2.81l-0.53-0.2c0.12-0.52 0.11-0.87-0.03-1.07c-0.13-0.19-0.48-0.39-1.05-0.58l-1.08-0.41l-0.94 2.48c-0.12 0.32-0.19 0.58-0.2 0.78c-0.01 0.2 0.03 0.35 0.14 0.47c0.1 0.11 0.26 0.22 0.48 0.33c0.22 0.11 0.48 0.22 0.78 0.33c0.4 0.16 0.74 0.25 1.01 0.28c0.27 0.03 0.52-0.01 0.73-0.12c0.37-0.19 0.78-0.55 1.23-1.07l0.5 0.3h-0.02z" />
		</g>
		<g >
			<path class="s8" d="m702.59 399.21c-0.17-0.25-0.33-0.46-0.47-0.62c-0.14-0.16-0.29-0.28-0.45-0.38c-0.16-0.12-0.36-0.17-0.6-0.16c-0.24 0.02-0.57 0.1-0.98 0.25l-0.86 0.31c-0.23 0.07-0.37 0.15-0.41 0.23c-0.04 0.08-0.02 0.23 0.07 0.45l1.14 3.12l1.25-0.46c0.59-0.2 0.95-0.39 1.08-0.58c0.13-0.19 0.14-0.51 0.03-0.96l0.54-0.2l1.02 2.79l-0.54 0.2c-0.22-0.45-0.45-0.72-0.67-0.79c-0.22-0.07-0.63 0.01-1.21 0.24l-1.25 0.46l0.85 2.33c0.19 0.59 0.4 0.93 0.62 1.03c0.22 0.1 0.64 0.05 1.25-0.14l0.19 0.52l-4.12 1.5l-0.19-0.52c0.5-0.21 0.8-0.42 0.89-0.63c0.09-0.22 0.02-0.61-0.2-1.18l-1.95-5.34c-0.2-0.59-0.4-0.93-0.6-1.04c-0.21-0.1-0.56-0.07-1.07 0.1l-0.19-0.52l6.42-2.34c0.08 0.18 0.2 0.47 0.38 0.87c0.18 0.4 0.36 0.79 0.55 1.18l-0.5 0.28h-0.02z" />
			<path fill-rule="evenodd" class="s8" d="m711.52 403.17l-0.25-0.5c0.36-0.24 0.56-0.43 0.6-0.58c0.04-0.15-0.06-0.33-0.29-0.55c-0.19-0.18-0.4-0.39-0.64-0.62c-0.24-0.24-0.49-0.48-0.75-0.73l-2.64 1.31c0.04 0.51 0.12 1.07 0.23 1.68c0.05 0.41 0.15 0.65 0.31 0.73c0.16 0.08 0.48 0.03 0.97-0.16l0.25 0.5l-2.98 1.47l-0.25-0.5c0.4-0.24 0.65-0.49 0.76-0.74c0.11-0.25 0.13-0.7 0.06-1.35l-0.74-8.24l0.55-0.47c0.97 0.94 1.97 1.91 2.98 2.91c1.02 1 2.02 1.96 3.01 2.89c0.46 0.46 0.82 0.73 1.09 0.81c0.27 0.08 0.62 0.03 1.05-0.15l0.25 0.5l-3.57 1.76v0.03zm-4.49-6.16l-0.04 0.02c0.07 0.62 0.14 1.23 0.22 1.84c0.07 0.61 0.14 1.22 0.21 1.82l2.2-1.09l-2.59-2.59z" />
			<path class="s8" d="m719.35 387.76c-0.34 0.24-0.55 0.47-0.65 0.68c-0.1 0.21-0.08 0.44 0.04 0.7c0.09 0.19 0.22 0.43 0.39 0.73c0.17 0.3 0.41 0.7 0.74 1.21l0.77 1.18c0.46 0.7 0.8 1.36 1.01 1.99c0.21 0.63 0.27 1.24 0.16 1.84c-0.09 0.48-0.29 0.93-0.58 1.33c-0.3 0.4-0.66 0.74-1.09 1.02c-0.39 0.26-0.8 0.45-1.22 0.59c-0.42 0.14-0.85 0.18-1.29 0.14c-0.53-0.05-1.04-0.25-1.53-0.62c-0.48-0.37-0.96-0.92-1.44-1.65l-1.98-3.05c-0.32-0.53-0.6-0.83-0.82-0.89c-0.22-0.06-0.57 0.06-1.04 0.34l-0.3-0.47l3.53-2.29l0.3 0.47c-0.45 0.31-0.69 0.57-0.72 0.8c-0.04 0.23 0.12 0.6 0.48 1.11l1.83 2.82c0.64 0.98 1.3 1.61 1.98 1.88c0.68 0.27 1.37 0.19 2.06-0.26c0.75-0.5 1.12-1.14 1.09-1.93c-0.02-0.79-0.38-1.71-1.07-2.76l-0.76-1.17c-0.33-0.5-0.59-0.89-0.8-1.17c-0.21-0.27-0.39-0.49-0.53-0.66c-0.17-0.2-0.38-0.3-0.63-0.28c-0.25 0.01-0.6 0.15-1.04 0.4l-0.3-0.47l3.12-2.02l0.3 0.47l-0.01-0.01z" />
			<path class="s8" d="m725.19 385.36c-0.41-0.3-0.85-0.52-1.32-0.66c-0.47-0.14-0.95-0.03-1.43 0.32c-0.37 0.31-0.57 0.66-0.6 1.05c-0.03 0.39 0.08 0.75 0.34 1.08c0.28 0.35 0.64 0.55 1.08 0.6c0.44 0.04 0.99-0.01 1.66-0.16c0.76-0.19 1.48-0.25 2.16-0.2c0.68 0.06 1.27 0.38 1.77 0.97c0.52 0.67 0.7 1.42 0.55 2.23c-0.15 0.82-0.63 1.56-1.45 2.24c-0.22 0.18-0.44 0.32-0.66 0.44c-0.22 0.12-0.42 0.22-0.61 0.3c-0.2 0.08-0.36 0.15-0.5 0.19c-0.14 0.04-0.26 0.07-0.35 0.1c-0.19-0.12-0.46-0.34-0.82-0.66c-0.35-0.32-0.7-0.64-1.04-0.97l0.36-0.5c0.41 0.32 0.94 0.57 1.59 0.76c0.65 0.19 1.28 0.07 1.89-0.35c0.38-0.31 0.59-0.67 0.63-1.07c0.04-0.4-0.1-0.8-0.4-1.2c-0.3-0.36-0.68-0.57-1.14-0.62c-0.46-0.05-0.99-0.01-1.61 0.12c-0.72 0.17-1.42 0.23-2.09 0.18c-0.67-0.05-1.25-0.37-1.74-0.95c-0.49-0.63-0.68-1.33-0.56-2.09c0.12-0.76 0.57-1.47 1.37-2.13c0.33-0.26 0.66-0.46 0.99-0.61c0.32-0.15 0.59-0.26 0.8-0.33c0.19 0.18 0.41 0.39 0.66 0.63c0.25 0.24 0.55 0.52 0.89 0.85l-0.38 0.44h-0.04z" />
			<path class="s8" d="m732.98 378.44c-0.32-0.22-0.59-0.39-0.8-0.5c-0.22-0.11-0.41-0.18-0.58-0.19c-0.18-0.03-0.37 0.01-0.56 0.1c-0.19 0.1-0.45 0.3-0.77 0.61l-0.61 0.57l4.85 5.2c0.38 0.44 0.7 0.67 0.95 0.67c0.25 0 0.62-0.21 1.11-0.64l0.38 0.41l-3.36 3.14l-0.38-0.41c0.44-0.45 0.67-0.79 0.68-1.03c0.01-0.24-0.19-0.57-0.61-0.98l-4.85-5.2l-0.52 0.49c-0.39 0.37-0.64 0.65-0.75 0.85c-0.11 0.2-0.15 0.38-0.12 0.54c0.01 0.16 0.07 0.36 0.17 0.59c0.11 0.23 0.24 0.5 0.41 0.81l-0.43 0.4c-0.33-0.4-0.65-0.79-0.96-1.18c-0.31-0.39-0.6-0.73-0.86-1.04l0.28-0.27c0.19 0.05 0.35 0.05 0.47 0c0.12-0.04 0.25-0.13 0.39-0.27l4.22-3.94c0.14-0.13 0.23-0.25 0.27-0.37c0.04-0.12 0.05-0.27 0.03-0.45l0.3-0.28c0.24 0.24 0.55 0.55 0.93 0.91c0.38 0.36 0.74 0.71 1.09 1.04l-0.37 0.42l0 0z" />
			<path fill-rule="evenodd" class="s8" d="m736.2 371.52c1-0.86 2.13-1.25 3.39-1.19c1.26 0.06 2.41 0.65 3.44 1.77c1.06 1.25 1.54 2.52 1.44 3.81c-0.1 1.29-0.66 2.4-1.7 3.33c-1.08 0.92-2.26 1.32-3.53 1.21c-1.28-0.11-2.41-0.7-3.41-1.79c-0.89-1.02-1.35-2.19-1.37-3.51c-0.02-1.31 0.55-2.52 1.72-3.63l0.01-0.01l0.01 0.01zm-0.54 2.77c0.09 0.88 0.56 1.82 1.41 2.82c0.9 1 1.85 1.65 2.86 1.94c1 0.29 1.88 0.13 2.63-0.49c0.56-0.5 0.81-1.17 0.73-2.02c-0.07-0.85-0.56-1.8-1.46-2.84c-1.02-1.13-2.01-1.81-2.98-2.04c-0.97-0.24-1.79-0.06-2.46 0.52l-0.01 0.01c-0.57 0.52-0.81 1.22-0.72 2.1z" />
		</g>
		<g >
			<g >
				<path class="s9" d="m742.33 324.61c0 37.18-30.14 67.33-67.33 67.33c-37.18 0-67.33-30.14-67.33-67.33c0-37.18 30.14-67.33 67.33-67.33c37.18 0 67.33 30.14 67.33 67.33h0z" />
				<path class="s10" d="m739.29 324.61c0 35.51-28.78 64.29-64.29 64.29c-35.51 0-64.29-28.78-64.29-64.29c0-35.51 28.78-64.29 64.29-64.29c35.51 0 64.29 28.78 64.29 64.29v0z" />
				<path class="s9" d="m726.38 324.61c0 28.38-23 51.38-51.38 51.38c-28.38 0-51.38-23-51.38-51.38c0-28.38 23-51.38 51.38-51.38c28.38 0 51.38 23 51.38 51.38z" />
				<path class="s11" d="m723.34 324.61c0 26.7-21.64 48.34-48.34 48.34c-26.7 0-48.34-21.64-48.34-48.34c0-26.7 21.64-48.34 48.34-48.34c26.7 0 48.34 21.64 48.34 48.34z" />
			</g>
			<g >
				<path class="s12" d="m675 368.52c-3.25-5.06-9.02-6.07-15.23-6.07c-12.22 0-18.06-7.3-18.06-17.77v-20.2h33.28v44.04h0.01z" />
				<path class="s13" d="m675 324.48h33.28v20.2c0 10.47-5.84 17.77-18.06 17.77c-6.21 0-11.98 1.02-15.23 6.07v-44.04h0.01z" />
				<path class="s14" d="m675 324.48v-33.16h33.28v33.16h-33.28z" />
				<path class="s15" d="m675 324.48h-33.28v-33.16h33.28v33.16z" />
				<g >
					<path class="s16" d="m708.28 324.48h-66.57" />
					<path class="s16" d="m675 291.32v77.45" />
					<path class="s17" d="m708.28 291.32v53.36c0 10.47-5.84 17.77-18.06 17.77c-6.21 0-11.98 1.02-15.23 6.07c-3.25-5.06-9.02-6.07-15.23-6.07c-12.22 0-18.06-7.3-18.06-17.77v-53.36h66.57h0.01z" />
				</g>
			</g>
			<g >
				<g >
					<path class="s18" d="m650.72 372.08c-4.03-2.07-7.77-4.63-11.13-7.62" />
					<path class="s18" d="m649.17 373.32c-4.03-2.14-7.76-4.77-11.12-7.8" />
					<path class="s18" d="m647.63 374.54c-4.03-2.22-7.77-4.91-11.14-8" />
					<path class="s18" d="m646.1 375.76c-4.05-2.3-7.81-5.06-11.19-8.22" />
					<path class="s18" d="m644.58 376.97c-3.98-2.32-7.68-5.08-11.02-8.22" />
					<path class="s18" d="m643.06 378.17c-3.89-2.33-7.51-5.06-10.79-8.16" />
				</g>
				<g >
					<path class="s18" d="m708.58 366.02c-8.93 7.25-20.26 11.68-32.65 11.89c-6.75 0.12-13.23-1.02-19.22-3.21" />
					<path class="s18" d="m707.79 368.92c-8.91 6.6-19.89 10.59-31.82 10.8c-6.69 0.12-13.13-0.96-19.1-3.04" />
					<path class="s18" d="m707.03 371.68c-8.86 6.04-19.52 9.65-31.04 9.85c-6.63 0.12-13.02-0.91-18.98-2.89" />
					<path class="s18" d="m706.32 374.31c-8.78 5.55-19.15 8.83-30.29 9.03c-6.58 0.11-12.93-0.86-18.87-2.75" />
					<path class="s18" d="m705.62 376.85c-8.69 5.1-18.77 8.1-29.56 8.29c-6.52 0.11-12.82-0.81-18.75-2.62" />
					<path class="s18" d="m704.95 379.31c-8.58 4.71-18.4 7.46-28.86 7.64c-6.47 0.11-12.73-0.76-18.63-2.49" />
				</g>
				<g >
					<path class="s19" d="m658.57 380.48c-0.28 0.86-1.21 1.34-2.07 1.06c-0.86-0.28-1.34-1.21-1.06-2.07c0.28-0.86 1.21-1.34 2.07-1.06c0.86 0.28 1.34 1.21 1.06 2.07z" />
					<path class="s19" d="m645.55 374.85c-0.48 0.77-1.5 1-2.27 0.52c-0.77-0.48-1-1.5-0.52-2.27c0.48-0.77 1.5-1 2.27-0.52c0.77 0.48 1 1.5 0.52 2.27z" />
				</g>
			</g>
			<g >
				<path class="s8" d="m627.37 297.74l-0.65 1.38l-2.99-0.91c-0.66-0.21-1.33-0.43-2-0.64l-0.02 0.04c0.58 0.41 1.15 0.82 1.72 1.24l2.49 1.96l-0.54 1.14l-3.1-0.67c-0.33-0.08-0.67-0.17-1.01-0.26c-0.34-0.09-0.69-0.18-1.04-0.27l-0.02 0.04c0.61 0.38 1.2 0.75 1.77 1.13l2.6 1.73l-0.61 1.29l-5.47-3.88l0.8-1.69l2.99 0.69c0.25 0.06 0.51 0.13 0.76 0.2c0.25 0.07 0.5 0.14 0.74 0.21l0.02-0.04c-0.2-0.14-0.41-0.29-0.63-0.44c-0.22-0.15-0.43-0.3-0.64-0.46l-2.44-1.85l0.79-1.67l6.49 1.71l-0.01 0.02z" />
				<path class="s8" d="m623.76 305.9l-0.49 1.41l-6.23-2.18l0.49-1.41l6.23 2.18z" />
				<path class="s8" d="m622.7 308.92l-0.37 1.48l-3.6 0.88l-1.57 0.29l-0.01 0.04c0.36 0.05 0.75 0.1 1.17 0.16c0.42 0.06 0.83 0.14 1.22 0.23l2.26 0.56l-0.34 1.38l-6.41-1.59l0.37-1.48l3.61-0.88l1.55-0.28l0.01-0.04c-0.37-0.05-0.76-0.11-1.17-0.16c-0.41-0.06-0.81-0.13-1.19-0.22l-2.27-0.56l0.34-1.39l6.41 1.59l-0.01-0.01z" />
				<path fill-rule="evenodd" class="s8" d="m621.19 315.44l0 0l0-0.01v0.01zm-0.23 1.84c-0.12 1.02-0.48 1.79-1.07 2.31c-0.6 0.52-1.46 0.72-2.58 0.59c-1.12-0.15-1.92-0.55-2.39-1.19c-0.47-0.64-0.65-1.45-0.52-2.42l0.24-1.94l6.55 0.81l-0.23 1.84zm-5.04 0.66c0.28 0.37 0.81 0.61 1.58 0.72c0.77 0.09 1.33-0.02 1.68-0.32c0.35-0.3 0.55-0.73 0.6-1.29l0.03-0.28l-4.16-0.51l-0.03 0.28c-0.08 0.56 0.02 1.03 0.3 1.4z" />
				<path class="s8" d="m620.44 321.08l0.01 1.53l-3.08 0.48c-0.69 0.1-1.38 0.19-2.08 0.29v0.04c0.7 0.12 1.4 0.24 2.09 0.37l3.09 0.68l0.01 1.27l-3.08 0.74c-0.33 0.07-0.68 0.14-1.03 0.21c-0.35 0.07-0.7 0.14-1.06 0.21v0.04c0.71 0.08 1.41 0.16 2.09 0.25l3.09 0.43l0.01 1.43l-6.61-1.12l-0.02-1.87l2.99-0.67c0.25-0.05 0.51-0.1 0.77-0.15c0.26-0.05 0.51-0.09 0.76-0.13v-0.04c-0.25-0.04-0.5-0.08-0.76-0.12c-0.26-0.04-0.52-0.08-0.77-0.13l-3-0.6l-0.02-1.84l6.59-1.28l0.01-0.02z" />
				<path fill-rule="evenodd" class="s8" d="m616.11 333.62l0-0.01l0.01 0l-0.01 0.01zm-0.27-2.01l-1.61-0.19l-0.2-1.51l6.82 1.17l0.24 1.77l-6.26 2.94l-0.21-1.57l1.49-0.61l-0.27-2zm1.38 1.55l0.58-0.24c0.32-0.13 0.65-0.27 1.01-0.41c0.35-0.14 0.7-0.27 1.03-0.41l-0.01-0.04c-0.36-0.03-0.73-0.06-1.1-0.1c-0.37-0.04-0.73-0.08-1.07-0.13l-0.62-0.08l0.19 1.4l-0.01 0.01z" />
				<path fill-rule="evenodd" class="s8" d="m616 340.68l2-1.81l-0.2-0.79l-2.31 0.58l-0.36-1.45l6.4-1.6l0.58 2.31c0.19 0.69 0.19 1.31 0.01 1.85c-0.18 0.54-0.64 0.92-1.39 1.12c-0.47 0.11-0.89 0.1-1.24-0.02c-0.36-0.13-0.65-0.35-0.89-0.65l-2.2 2.09l-0.41-1.62l0.01-0.01zm2.95-2.88l0.18 0.74c0.1 0.38 0.25 0.65 0.46 0.81c0.21 0.16 0.47 0.2 0.79 0.12c0.31-0.08 0.5-0.23 0.58-0.47c0.08-0.23 0.07-0.54-0.03-0.91l-0.18-0.74l-1.8 0.45z" />
				<path fill-rule="evenodd" class="s8" d="m623.12 341.62l0.66 1.74c0.37 0.96 0.41 1.8 0.12 2.54c-0.29 0.74-0.95 1.31-2.01 1.72c-1.06 0.39-1.95 0.41-2.67 0.06c-0.72-0.35-1.25-0.98-1.59-1.9l-0.69-1.83l6.17-2.34l0.01 0.01zm-3.5 4.68c0.42 0.2 1 0.17 1.73-0.1c0.72-0.28 1.17-0.64 1.34-1.06c0.17-0.42 0.14-0.9-0.07-1.42l-0.1-0.27l-3.92 1.48l0.1 0.27c0.19 0.53 0.5 0.9 0.92 1.1z" />
			</g>
			<g >
				<path class="s8" d="m725.41 345.45l0.55-1.39l6.13 2.44l-0.55 1.39l-6.13-2.44z" />
				<path class="s8" d="m731.26 343.38c0.27-0.17 0.5-0.37 0.7-0.6c0.2-0.23 0.34-0.48 0.43-0.75c0.09-0.3 0.1-0.53 0.04-0.71c-0.06-0.18-0.19-0.3-0.38-0.35c-0.19-0.05-0.36-0.02-0.51 0.11c-0.15 0.13-0.32 0.32-0.52 0.57l-0.6 0.71c-0.23 0.3-0.53 0.54-0.88 0.7c-0.36 0.16-0.77 0.18-1.23 0.06c-0.53-0.17-0.91-0.52-1.14-1.04c-0.23-0.52-0.25-1.11-0.06-1.78c0.11-0.37 0.29-0.71 0.54-1.02c0.25-0.31 0.55-0.57 0.91-0.76l0.68 0.99c-0.22 0.16-0.41 0.33-0.56 0.51c-0.15 0.19-0.27 0.4-0.34 0.65c-0.07 0.25-0.08 0.46-0.03 0.63c0.06 0.17 0.17 0.29 0.35 0.35c0.19 0.05 0.36 0 0.52-0.15c0.16-0.15 0.33-0.35 0.52-0.6l0.57-0.7c0.27-0.34 0.57-0.58 0.92-0.72c0.34-0.14 0.73-0.14 1.18-0.01c0.54 0.17 0.93 0.52 1.18 1.04c0.25 0.52 0.27 1.17 0.05 1.93c-0.13 0.42-0.33 0.81-0.61 1.17c-0.28 0.36-0.62 0.66-1.02 0.9l-0.73-1.12l0.02-0.01z" />
				<path class="s8" d="m728.16 336.94l0.29-1.47l5.25 1.03l0.5-2.55l1.23 0.24l-0.79 4.02l-6.48-1.27z" />
				<path fill-rule="evenodd" class="s8" d="m734.4 329.08l-0.18 2.02l1.53 0.55l-0.14 1.51l-6.39-2.66l0.16-1.77l6.76-1.47l-0.14 1.57l-1.6 0.26l0-0.01zm-1.19 0.2l-0.62 0.11c-0.34 0.06-0.7 0.12-1.07 0.17c-0.37 0.05-0.74 0.11-1.09 0.17v0.04c0.34 0.11 0.7 0.22 1.05 0.34c0.36 0.12 0.7 0.24 1.02 0.36l0.59 0.22l0.13-1.41h-0.01z" />
				<path class="s8" d="m729.57 325.95l-0.03-1.53l3.24-1.79l1.44-0.69v-0.04c-0.36 0.05-0.75 0.1-1.17 0.15c-0.42 0.05-0.84 0.08-1.23 0.1l-2.33 0.05l-0.03-1.42l6.6-0.15l0.03 1.53l-3.25 1.79l-1.42 0.68v0.04c0.37-0.05 0.76-0.1 1.17-0.15c0.41-0.05 0.82-0.08 1.21-0.1l2.34-0.05l0.03 1.43l-6.6 0.15l0 0z" />
				<path fill-rule="evenodd" class="s8" d="m729.32 319.25l-0.26-1.84c-0.15-1.01-0.01-1.85 0.44-2.51c0.44-0.66 1.22-1.07 2.33-1.24c1.12-0.15 1.99 0.03 2.62 0.53c0.62 0.5 1 1.23 1.14 2.2l0.28 1.93l-6.53 0.93h-0.02zm5.09-2.53c-0.07-0.56-0.29-0.99-0.66-1.27c-0.37-0.29-0.94-0.38-1.71-0.28c-0.77 0.12-1.28 0.37-1.54 0.74c-0.26 0.38-0.34 0.84-0.24 1.4l0.04 0.28l4.15-0.59l-0.04-0.28z" />
				<path class="s8" d="m732.79 311.27c0.14-0.28 0.23-0.57 0.29-0.88c0.05-0.3 0.04-0.59-0.02-0.86c-0.08-0.3-0.19-0.51-0.34-0.63c-0.15-0.12-0.32-0.15-0.51-0.1c-0.19 0.05-0.32 0.18-0.38 0.37c-0.06 0.19-0.11 0.44-0.15 0.75l-0.14 0.91c-0.04 0.38-0.17 0.73-0.39 1.06c-0.22 0.33-0.56 0.56-1.02 0.69c-0.55 0.13-1.05 0.03-1.51-0.29c-0.46-0.32-0.79-0.82-0.98-1.49c-0.1-0.37-0.12-0.76-0.07-1.15c0.05-0.4 0.18-0.77 0.38-1.12l1.1 0.49c-0.11 0.25-0.18 0.49-0.21 0.73c-0.03 0.24-0.02 0.48 0.05 0.73c0.07 0.25 0.17 0.43 0.31 0.55c0.14 0.12 0.3 0.16 0.48 0.11c0.19-0.05 0.31-0.19 0.37-0.39c0.06-0.21 0.1-0.47 0.13-0.78l0.12-0.9c0.05-0.43 0.19-0.79 0.41-1.09c0.22-0.3 0.55-0.5 1-0.62c0.55-0.14 1.06-0.05 1.55 0.27c0.49 0.32 0.84 0.86 1.05 1.62c0.11 0.42 0.14 0.86 0.09 1.31c-0.05 0.45-0.18 0.89-0.4 1.3l-1.21-0.58v-0.01z" />
			</g>
			<path class="s8" d="m727.51 301.1c0.17-0.17 0.38-0.26 0.64-0.27c0.26 0.01 0.48 0.1 0.64 0.27c0.17 0.17 0.25 0.4 0.26 0.67c-0.01 0.27-0.09 0.49-0.26 0.66c-0.17 0.17-0.38 0.26-0.64 0.27c-0.26-0.01-0.48-0.1-0.64-0.27c-0.17-0.17-0.25-0.39-0.26-0.66c0.01-0.27 0.09-0.5 0.26-0.67z" />
			<path class="s8" d="m624.77 294.45c0.14-0.14 0.31-0.22 0.53-0.22c0.22 0 0.39 0.08 0.53 0.22c0.14 0.14 0.21 0.33 0.21 0.55c0 0.22-0.07 0.4-0.21 0.55c-0.14 0.14-0.31 0.22-0.53 0.22c-0.22 0-0.39-0.08-0.53-0.22c-0.14-0.14-0.21-0.33-0.21-0.55c0-0.23 0.08-0.41 0.21-0.55z" />
			<g >
				<path class="s8" d="m626.42 293.21c-1.09-0.84-1.71-1.79-1.86-2.85c-0.15-1.06 0.11-2.06 0.78-2.99c0.35-0.46 0.74-0.8 1.16-1.02c0.42-0.22 0.83-0.36 1.23-0.41l0.32 1.51c-0.27 0.05-0.52 0.13-0.75 0.26c-0.23 0.12-0.44 0.32-0.65 0.6c-0.38 0.52-0.5 1.08-0.36 1.68c0.14 0.6 0.54 1.15 1.21 1.65c0.69 0.51 1.33 0.74 1.94 0.7c0.6-0.04 1.14-0.37 1.6-0.99c0.1-0.14 0.18-0.28 0.23-0.43c0.06-0.15 0.08-0.29 0.08-0.43l-1.14-0.84l-0.81 1.1l-1.22-0.9l1.79-2.44l3.06 2.25c0.04 0.4-0.01 0.86-0.14 1.36c-0.13 0.5-0.36 0.99-0.7 1.47c-0.68 0.92-1.53 1.47-2.55 1.65c-1.02 0.18-2.09-0.13-3.23-0.93v0h0.01z" />
				<path fill-rule="evenodd" class="s8" d="m634.53 287.77c-1.01-0.06-2-0.56-2.97-1.51c-0.94-0.97-1.43-1.96-1.47-2.95c-0.04-1 0.34-1.89 1.13-2.69c0.81-0.79 1.71-1.16 2.71-1.12c1 0.04 1.98 0.54 2.94 1.48c0.95 0.98 1.45 1.97 1.5 2.98c0.05 1.01-0.32 1.92-1.11 2.72c-0.81 0.79-1.71 1.15-2.73 1.09zm1.6-2.23c0.4-0.41 0.54-0.9 0.43-1.46c-0.11-0.57-0.46-1.15-1.04-1.75c-0.59-0.58-1.16-0.92-1.71-1.02c-0.55-0.1-1.03 0.05-1.44 0.45c-0.39 0.4-0.55 0.88-0.45 1.44c0.09 0.56 0.43 1.13 1.01 1.72c0.6 0.59 1.18 0.94 1.75 1.05c0.57 0.11 1.06-0.03 1.46-0.42l-0.01-0.01z" />
				<path class="s8" d="m635.23 277.02l1.59-1.18l3.1 2.49c0.36 0.29 0.71 0.58 1.05 0.86c0.34 0.29 0.69 0.58 1.06 0.87l0.04-0.03c-0.17-0.44-0.35-0.86-0.52-1.26c-0.18-0.41-0.35-0.82-0.53-1.25l-1.51-3.67l1.53-1.14l2.92 8.11l-1.8 1.34l-6.92-5.14h-0.01z" />
				<path class="s8" d="m642.63 271.76l4.52-2.53l0.77 1.37l-2.88 1.61l0.81 1.45l2.45-1.37l0.76 1.36l-2.45 1.37l0.93 1.66l2.99-1.67l0.77 1.37l-4.63 2.59l-4.03-7.2l-0.01-0.01z" />
				<path fill-rule="evenodd" class="s8" d="m656.85 274.07l-2.56-2.19l-0.94 0.37l1.09 2.77l-1.74 0.68l-3.01-7.68l2.77-1.09c0.83-0.34 1.59-0.45 2.29-0.31c0.7 0.14 1.24 0.65 1.61 1.54c0.22 0.57 0.27 1.08 0.17 1.54c-0.1 0.46-0.33 0.86-0.67 1.21l2.94 2.4l-1.94 0.76l-0.01 0zm-4.04-3.2l0.88-0.35c0.46-0.18 0.76-0.41 0.93-0.7c0.16-0.29 0.17-0.62 0.03-1c-0.15-0.37-0.37-0.59-0.67-0.65c-0.3-0.06-0.68 0-1.13 0.18l-0.88 0.35l0.85 2.16l-0.01 0.01z" />
				<path class="s8" d="m658.11 264.94l1.86-0.42l3 3.52l1.2 1.6l0.05-0.01c-0.15-0.42-0.3-0.89-0.47-1.4c-0.17-0.51-0.31-1-0.43-1.49l-0.64-2.84l1.73-0.39l1.82 8.05l-1.86 0.42l-3.01-3.54l-1.19-1.57l-0.05 0.01c0.15 0.44 0.31 0.91 0.47 1.4c0.17 0.49 0.31 0.98 0.42 1.46l0.65 2.85l-1.74 0.39l-1.82-8.05l0.01 0.01z" />
				<path fill-rule="evenodd" class="s8" d="m671.46 271.21c-1.12 0.06-2.05-0.26-2.77-0.97c-0.72-0.71-1.14-1.74-1.25-3.09c-0.07-1.35 0.21-2.42 0.84-3.19c0.63-0.77 1.5-1.2 2.63-1.28c1.13-0.06 2.05 0.25 2.77 0.93c0.72 0.69 1.13 1.71 1.24 3.05c0.07 1.36-0.2 2.43-0.83 3.23c-0.62 0.8-1.5 1.24-2.63 1.32zm1.18-2.42c0.29-0.5 0.41-1.17 0.37-2c-0.06-0.83-0.27-1.46-0.62-1.9c-0.35-0.44-0.81-0.64-1.38-0.61c-0.56 0.04-0.99 0.31-1.29 0.78c-0.3 0.48-0.42 1.13-0.37 1.96c0.06 0.84 0.27 1.48 0.63 1.94c0.36 0.46 0.82 0.67 1.38 0.64c0.57-0.05 1-0.32 1.29-0.82l-0.01 0.01z" />
				<path fill-rule="evenodd" class="s8" d="m681.13 271.26l0.01 0l0 0.01l-0.01-0.01zm-1.31-3.09l-1.01-0.09l-0.25 2.96l-1.87-0.16l0.7-8.22l2.96 0.25c0.9 0.06 1.63 0.31 2.19 0.74c0.57 0.43 0.82 1.13 0.76 2.09c-0.06 0.6-0.24 1.09-0.53 1.46c-0.3 0.37-0.67 0.63-1.13 0.79l1.57 3.45l-2.07-0.18l-1.32-3.09zm-0.89-1.55l0-0.01l0 0v0.01zm0.95 0.07c0.49 0.04 0.87-0.03 1.14-0.21c0.27-0.18 0.43-0.48 0.46-0.88c0.03-0.4-0.07-0.69-0.31-0.88c-0.24-0.19-0.61-0.3-1.09-0.33l-0.95-0.08l-0.2 2.3l0.95 0.08z" />
			</g>
			<g >
				<path class="s8" d="m701.34 273.12c0.72-1.17 1.59-1.9 2.62-2.17c1.02-0.27 2.01-0.14 2.96 0.41c0.44 0.27 0.79 0.6 1.04 0.98c0.26 0.39 0.43 0.78 0.53 1.18l-1.47 0.48c-0.08-0.27-0.19-0.51-0.32-0.71c-0.13-0.2-0.32-0.38-0.57-0.53c-0.51-0.29-1.05-0.33-1.61-0.12c-0.56 0.21-1.06 0.67-1.49 1.39c-0.42 0.74-0.6 1.4-0.52 1.99c0.08 0.58 0.37 1.03 0.9 1.34c0.29 0.17 0.58 0.26 0.87 0.27c0.29 0.01 0.57-0.03 0.86-0.12l0.32 1.49c-0.5 0.17-0.99 0.23-1.48 0.19c-0.49-0.05-0.95-0.2-1.4-0.46c-0.95-0.55-1.56-1.32-1.83-2.31c-0.27-0.98-0.07-2.08 0.6-3.3v0h-0.01z" />
				<path class="s8" d="m711.02 274.14l1.46 1.17l-1.98 2.48l2.23 1.78l1.98-2.48l1.45 1.16l-5.15 6.45l-1.45-1.16l2.15-2.69l-2.23-1.78l-2.15 2.69l-1.46-1.17l5.15-6.45z" />
				<path class="s8" d="m718.16 280.21l1.32 1.33l-5.84 5.83l-1.32-1.33l5.84-5.83z" />
				<path class="s8" d="m721.34 283.47l3.28 4l-1.21 0.99l-2.09-2.56l-1.28 1.05l1.78 2.17l-1.2 0.99l-1.78-2.17l-1.47 1.2l2.17 2.65l-1.21 0.99l-3.36-4.1l6.38-5.23l-0.01 0.02z" />
				<path class="s8" d="m726.18 289.69l2.78 4.41l-1.33 0.84l-1.78-2.83l-1.62 1.02l1.52 2.41l-1.33 0.84l-1.52-2.41l-2.71 1.7l-1-1.59l6.98-4.39h0.01z" />
			</g>
			<g >
				<path class="s8" d="m689.42 265.38l1.38 0.35l-1.55 6.08l-1.38-0.35l1.55-6.08z" />
				<path class="s8" d="m693.55 266.49l1.36 0.5l0.47 3.49l0.11 1.52l0.04 0.01c0.08-0.33 0.17-0.69 0.27-1.09c0.1-0.39 0.21-0.77 0.34-1.13l0.76-2.08l1.27 0.46l-2.15 5.89l-1.36-0.5l-0.47-3.5l-0.11-1.49l-0.04-0.01c-0.09 0.34-0.18 0.71-0.27 1.09c-0.1 0.38-0.21 0.75-0.33 1.11l-0.76 2.09l-1.27-0.46l2.15-5.89l-0.01-0.01z" />
			</g>
			<g >
				<path class="s1" d="m618.23 353.9c1.5-1.11 2.78-1.55 4.44-2.79c1.66-1.23 2.47-2.33 3.96-3.43c1.5-1.11 4.16-0.98 5.65 1.03c1.48 2.01 1.55 2.83 3.51 5.47c1.95 2.65 2.72 2.95 4.2 4.96c1.48 2.01 0.82 4.59-0.68 5.7c-1.5 1.11-2.78 1.55-4.44 2.79c-1.66 1.23-2.47 2.33-3.96 3.43c-1.5 1.11-4.16 0.99-5.64-1.02c-1.48-2.01-1.55-2.83-3.51-5.47c-1.95-2.65-2.72-2.95-4.2-4.96c-1.48-2.01-0.82-4.59 0.67-5.7v0v-0.01z" />
				<g >
					<g >
						<path class="s18" d="m640.32 359.57c0 0-4.61 4.04-7.06 5.86c-1.2 0.89-3.05 2.11-4.63 3.12" />
						<path class="s18" d="m639.32 358.22c0 0-4.61 4.04-7.06 5.86c-0.89 0.66-2.16 1.51-3.4 2.32" />
						<path class="s18" d="m631.26 362.73c2.45-1.82 7.06-5.86 7.06-5.86" />
						<path class="s18" d="m632.2 359.96c2.39-1.94 5.17-4.38 5.17-4.38" />
						<path class="s18" d="m632.42 357.71c2.04-1.7 4-3.41 4-3.41" />
						<path class="s18" d="m631.65 356.2c1.96-1.64 3.78-3.23 3.78-3.23" />
						<path class="s18" d="m634.34 351.49c0 0-4.61 4.04-7.06 5.86c-0.88 0.65-2.11 1.48-3.33 2.28" />
						<path class="s18" d="m633.34 350.14c0 0-4.61 4.04-7.06 5.86c-1.33 0.99-3.47 2.39-5.16 3.46" />
						<path class="s18" d="m632.35 348.8c0 0-4.61 4.04-7.06 5.86c-1.35 1-3.52 2.42-5.21 3.5" />
						<path class="s18" d="m631.35 347.45c0 0-4.61 4.04-7.06 5.86c-1.39 1.02-3.65 2.5-5.36 3.59" />
					</g>
					<path class="s20" d="m618.23 353.9c1.5-1.11 2.78-1.55 4.44-2.79c1.66-1.23 2.47-2.33 3.96-3.43c1.5-1.11 4.16-0.98 5.65 1.03c1.48 2.01 1.55 2.83 3.51 5.47c1.95 2.65 2.72 2.95 4.2 4.96c1.48 2.01 0.82 4.59-0.68 5.7c-1.5 1.11-2.78 1.55-4.44 2.79c-1.66 1.23-2.47 2.33-3.96 3.43c-1.5 1.11-4.16 0.99-5.64-1.02c-1.48-2.01-1.55-2.83-3.51-5.47c-1.95-2.65-2.72-2.95-4.2-4.96c-1.48-2.01-0.82-4.59 0.67-5.7v0v-0.01z" />
					<path class="s21" d="m618.23 353.9c1.5-1.11 2.78-1.55 4.44-2.79c1.66-1.23 2.47-2.33 3.96-3.43c1.5-1.11 4.16-0.98 5.65 1.03c1.48 2.01 1.55 2.83 3.51 5.47c1.95 2.65 2.72 2.95 4.2 4.96c1.48 2.01 0.82 4.59-0.68 5.7c-1.5 1.11-2.78 1.55-4.44 2.79c-1.66 1.23-2.47 2.33-3.96 3.43c-1.5 1.11-4.16 0.99-5.64-1.02c-1.48-2.01-1.55-2.83-3.51-5.47c-1.95-2.65-2.72-2.95-4.2-4.96c-1.48-2.01-0.82-4.59 0.67-5.7v0v-0.01z" />
				</g>
				<g >
					<path class="s22" d="m628.26 354.02c0.66 0.89 0.2 2.34-1.03 3.25c-1.23 0.91-2.75 0.92-3.41 0.03c-0.66-0.89-0.2-2.34 1.03-3.25c1.23-0.91 2.75-0.92 3.41-0.03z" />
					<path class="s23" d="m626.61 353.48c0.44 0.71 0.77 1.66-0.35 2.49c-1.12 0.83-1.94 0.24-2.49-0.39c-0.59-0.68-1.94-3.43-2.33-6.12c2.46 1.17 4.7 3.26 5.17 4.02v0z" />
				</g>
			</g>
			<g >
				<path class="s2" d="m675 372.46c2.94 0 5.81-0.27 8.61-0.77c-1.28 7.5-2.76 20.76-0.7 28.59h-15.82c2.06-7.83 0.58-21.09-0.7-28.59c2.79 0.5 5.67 0.77 8.61 0.77v0z" />
				<path class="s19" d="m676.9 380.04c0 1.05-0.85 1.9-1.9 1.9c-1.05 0-1.9-0.85-1.9-1.9c0-1.05 0.85-1.9 1.9-1.9c1.05 0 1.9 0.85 1.9 1.9z" />
				<g >
					<path class="s9" d="m667.86 372.79c1.73 8.33 2.07 20.13 0.85 27.1c-0.25 1.43-2.43 1.64-2.06-0.71c1.11-7.07 0.73-18.66-1.08-26.79c-0.29-1.31 1.93-1.33 2.29 0.4v0z" />
					<path class="s9" d="m684.43 372.38c-1.81 8.13-2.18 19.73-1.08 26.79c0.37 2.35-1.81 2.13-2.06 0.71c-1.21-6.96-0.88-18.77 0.85-27.1c0.36-1.73 2.58-1.71 2.29-0.4h0z" />
				</g>
				<g >
					<g >
						<g >
							<g >
								<path class="s24" d="m677.5 398.88c0.4-2.12 2.02-3.23 3.18-3.88c0.81 1.24 1.08 2.62 0.89 4.65c1.41-3.98 6.68-4.8 8.87-0.13c-7.56-0.08-8.1 5.28-8.09 11.82c0 4.67-4.22 7.27-7.35 4.99c-3.13 2.28-7.35-0.32-7.35-4.99c0-6.54-0.53-11.9-8.09-11.82c2.19-4.67 7.46-3.85 8.87 0.13c-0.18-2.03 0.08-3.41 0.89-4.65c1.16 0.65 2.78 1.75 3.18 3.88c0.59-1.04-2.53-4.61 2.5-7.7c5.03 3.08 1.91 6.65 2.5 7.7z" />
								<path class="s24" d="m686.24 393.73c2.73 0.02 5.43 1.26 5.88 3.8c0.95 5.35-4.92 5.78-5.56 2.51c-0.43-2.16 2.17-2.65 2.63-0.95c-0.17-2.9-5.75-3.46-7.64 0.59c0.21-1.81-0.04-3.04-0.53-4.05c1.16-1.27 3.19-1.92 5.21-1.9h0.01z" />
								<path class="s24" d="m663.76 393.73c2.02-0.02 4.05 0.63 5.21 1.9c-0.49 1-0.73 2.24-0.53 4.05c-1.88-4.05-7.47-3.49-7.64-0.59c0.46-1.7 3.06-1.22 2.63 0.95c-0.64 3.27-6.51 2.84-5.56-2.51c0.45-2.53 3.15-3.77 5.88-3.8v0h0.01z" />
							</g>
							<path class="s25" d="m675.6 414.51h-1.21c0.8-2.82-0.12-8.23 0.6-12.54c0.72 4.32-0.2 9.72 0.6 12.54h0.01z" />
						</g>
						<path class="s26" d="m670.36 402.29c-0.23-0.43-0.3-0.6 0.07-0.04c1.26 1.91 1.76 5.08 1.57 7.85c-0.09 1.34-0.87 1.11-0.75-0.09c0.23-2.26 0.82-4.49-0.89-7.72v0z" />
					</g>
					<path class="s9" d="m678.29 417.63c0 1.82-1.47 3.29-3.29 3.29c-1.82 0-3.29-1.47-3.29-3.29c0-1.82 1.47-3.29 3.29-3.29c1.82 0 3.29 1.47 3.29 3.29z" />
					<path class="s26" d="m679.64 402.29c-1.71 3.23-1.12 5.47-0.89 7.72c0.12 1.2-0.66 1.43-0.75 0.09c-0.19-2.77 0.31-5.95 1.57-7.85c0.37-0.56 0.3-0.39 0.07 0.04z" />
				</g>
			</g>
		</g>
		<g >
			<g >
				<g >
					<path fill-rule="evenodd" class="s27" d="m646.6 247.7l-1.87-5.59l-1.75-4.28l-2.44-4.34l-1.87-2.15l-0.46-2.17l-0.2-5.67c0 0 2.04-3.66 4.93-5.4c2.32-1.4 5.62-0.95 5.62-0.95c0 0 2.88-3.19 4.98-4.37c2.26-1.27 4.6-1.52 7.14-1.52c2.54 0 7.1 2.27 9.56 2.94c1.28 0.35 4.18 1.52 4.18 1.52c0 0 2.89-1.17 4.18-1.52c2.46-0.67 7.02-2.94 9.56-2.94c2.54 0 4.96 0.29 7.14 1.52c2.18 1.22 3.37 4.37 3.37 4.37c0 0 5.14-0.26 8.93 1.63c2.65 1.32 4.36 5 4.36 5l-0.18 5.19l-1.17 1.47l-2.48 5.63l-1.47 2.16l-1.96 2.32l-2.44 7.14h-55.67l0.01 0.01z" />
					<path fill-rule="evenodd" class="s28" d="m711.82 228.78l-1.05 1.52l-2.68 5.97l-1.65 1.93l-4.1 9.5l-55.7-0.2l-3.93-10.32l-2.59-4.45l-1.44-1.52l-0.38-1.42v-1.01l-0.19-3.24c0 0 1.98-2.62 3.16-3.24c1.1-0.57 4.03-0.61 4.03-0.61c0 0-2.38 1.18-2.97 2.12c-0.81 1.29-0.96 6.88-0.96 6.88c0 0 2.07-4.7 3.26-5.56c1.12-0.81 4.22-1.72 4.22-1.72c0 0-2.12 2.12-2.49 3.34c-0.38 1.24-0.41 3.21 0.19 4.35c1.43 2.69 4.07 0.26 4.07 0.26l7.02-1.18c0 0-2.47-1.71-3.04-6.56c-0.16-1.39 0.57-3.5 1.63-4.35c0.82-0.66 1.73-1.14 2.98-1.22c1.33-0.08 3.02 0.26 4.12 0.41c1.22 0.16 3.83 1.52 3.83 1.52c0 0-3.16-0.11-4.51 0c-1.13 0.09-2.92-0.22-3.74 0.61c-0.62 0.62-0.82 2.07-0.58 2.93c0.38 1.36 3.16 3.34 3.16 3.34c0 0 1.06-2.43 1.92-3.03c1.1-0.77 2.99-0.86 4.31-0.91c1.54-0.05 5.08 0.71 5.08 0.71c0 0-3.99 0.44-5.37 1.42c-0.85 0.61-2.01 2.93-2.01 2.93c0 0 7.98 0.05 13.55 0.13c2.76 0.04 4.93 1.57 5.24 0.17c0.34-1.54 0.7-3.99-0.19-5.26c-1.45-2.07-7.67-2.83-7.67-2.83c0 0 2.82-1.35 4.12-1.42c2.38-0.12 7.77 1.82 7.77 1.82l-1.92-3.95c0 0 3.44 1.37 4.51 2.53c0.85 0.92 1.65 2.73 1.33 3.97l-1.62 6.11l12.54 3.09c0 0 1.32-1.06 1.37-1.74c0.17-2.32-1.99-5.26-3.74-6.68c-0.85-0.69-3.45-1.01-3.45-1.01c0 0 4.04-1.74 5.66-1.11c1.88 0.73 5.66 8.4 5.66 8.4c0 0 0.63-3.39 0.16-4.71c-0.35-0.99-2.27-2.57-2.27-2.57c0 0 2.48-0.05 3.26 0.61c1.27 1.07 2.11 5.26 2.11 5.26v0l-0.02-0.01z" />
					<path fill-rule="evenodd" class="s29" d="m646.97 247.43l-4.6-11.68c0 0-2.64-3.44-3.16-5.31c-0.33-1.18-0.1-2.94 0.29-4.1c0.35-1.05 2.01-3.03 2.01-3.03c0 0-1.26 2.36-1.44 3.49c-0.17 1.08-0.15 2.65 0.29 3.64c0.59 1.34 2.73 3.64 2.73 3.64c0 0-0.34-3.65 0-5.16c0.16-0.69 0.58-1.57 1.01-2.12c0.31-0.4 1.29-1.06 1.29-1.06c0 0-0.71 1.12-0.86 1.67c-0.2 0.75-0.29 1.82-0.14 2.58c0.44 2.34 3.31 7.13 3.31 7.13l21.28 2.88c0 0-10.51-9.32-12.66-14.87c-0.38-0.97-0.47-2.5-0.14-3.49c0.33-0.97 2.16-2.58 2.16-2.58c0 0-1.37 1.68-1.58 2.58c-0.23 0.98-0.19 2.47 0.29 3.34c0.84 1.56 4.6 3.49 4.6 3.49c0 0 1.08-2.62 1.87-3.49c0.46-0.5 1.24-1.02 1.87-1.21c0.42-0.12 1.44 0 1.44 0c0 0-1.06 0.2-1.44 0.46c-0.39 0.26-0.8 0.78-1.01 1.21c-0.44 0.92-0.72 3.34-0.72 3.34l11.79 13.2l4.6 1.06c0 0 6.52-11.25 6.76-16.69c0.06-1.48-0.45-3.65-1.44-4.7c-1.19-1.25-5.32-1.82-5.32-1.82c0 0 4.55 0.36 6.18 1.37c0.79 0.49 1.1 2.56 2.01 2.43c0.8-0.12 1.16-1.72 1.15-2.58c-0.01-0.81-1.15-2.43-1.15-2.43c0 0 1.56 1.08 1.87 1.82c0.22 0.54 0.12 1.4 0 1.97c-0.24 1.13-1.2 2.4-1.58 3.49c-0.57 1.64-1.06 3.91-1.44 5.61c-0.77 3.48-2.16 11.68-2.16 11.68l15.82-0.76l4.89-11.99c0 0-1.63-4.91-3.02-6.52c-0.44-0.51-1.87-1.21-1.87-1.21c0 0 1.61 0.2 2.16 0.61c2.53 1.91 5.75 9.1 5.75 9.1c0 0 1.23-4.59 0.86-6.52c-0.12-0.62-1.01-1.82-1.01-1.82c0 0 1.29 0.8 1.58 1.37c0.39 0.77 0.33 2.01 0.29 2.88c-0.07 1.26-0.86 4.1-0.86 4.1l-1.44 3.95l-1.42 1.83l-4.62 9.4l-55.08-0.15l0.01-0.03z" />
					<path fill-rule="evenodd" class="s28" d="m640.59 220.09l1.86-1.65l2.45-1.13l3.85-0.13l2.79-2.94l3.29-2.1l3.99-0.95l4.38 0.42l11.16 4.1l9.96-3.47l3.49-1.05l4.48 0.32l3.89 1.79l2.39 3.68l7.37 0.95l-0.1 0.11c0 0-4.07 0.07-5.78 0.42c-1.14 0.23-3.69 1.26-3.69 1.26c0 0 0.75-1.1 0.6-1.58c-0.52-1.59-3.09-2.26-4.58-2.84c-1.97-0.76-4.78-1.32-6.88-1.26c-1.99 0.06-4.53 1.12-6.48 1.58c-1.64 0.39-5.31 3.62-6.99 3.47c-2.69-0.23-5.76-4.72-8.37-5.45c-1.72-0.49-2.59-1.26-4.37-1.17c-1.35 0.07-1.53 0.65-2.73 1.33c-1.4 0.8 1.68 6.71-5.54 3.61c-0.69-0.3-0.17 1.86 0 2.63c0.25 1.13 1.59 3.47 1.59 3.47c0 0-2.11-1.05-2.79-1.79c-0.67-0.73-0.95-2.18-1.59-2.94c-0.21-0.25-1.43-0.67-3.09-0.33c-1.11 0.23-2.29 1.29-3.21 1.68c-0.77 0.32-1.37-0.01-1.37-0.01v0l0.02-0.03z" />
					<path fill-rule="evenodd" class="s29" d="m641.67 234.01c0 0 1.07-0.12 2.74-0.32c1-0.12 2.74 0.56 4.06 0.41c2.11-0.25 4.79-2.28 7.02-2.54c2.23-0.26 7.8 2.54 9.3 2.39c6.12-0.64 4.9-3.49 8.1-3.47c1.4 0.01 3.7-2.03 4.94-0.5c4.13 5.12 12.16 4.23 16.62 2.05c2.23-1.1 6.84 4.01 10.17 1.27c1.95-1.6 4.41 0.46 4.41 0.46c-3.29 2.71-5.23 6.15-7.48 9.42l-56.34 0.39l-3.53-9.56h-0.01z" />
				</g>
				<path class="s30" d="m646.6 247.7l-1.87-5.59l-1.75-4.28l-2.44-4.34l-1.87-2.15l-0.46-2.17l-0.2-5.67c0 0 2.04-3.66 4.93-5.4c2.32-1.4 5.62-0.95 5.62-0.95c0 0 2.88-3.19 4.98-4.37c2.26-1.27 4.6-1.52 7.14-1.52c2.54 0 7.1 2.27 9.56 2.94c1.28 0.35 4.18 1.52 4.18 1.52c0 0 2.89-1.17 4.18-1.52c2.46-0.67 7.02-2.94 9.56-2.94c2.54 0 4.96 0.29 7.14 1.52c2.18 1.22 3.37 4.37 3.37 4.37c0 0 5.14-0.26 8.93 1.63c2.65 1.32 4.36 5 4.36 5l-0.18 5.19l-1.17 1.47l-2.48 5.63l-1.57 1.96l-1.86 2.52l-2.44 7.14h-55.67l0.01 0.01z" />
			</g>
			<path class="s31" d="m679.29 237.5c1.37 0.94 3.55 1.58 5.21 1.65c1.88 0.08 3.88 0.05 5.59-0.73c1.82-0.83 4.16-4.53 4.16-4.53c-0.03 0.01 2.27 5.8 5.23 6.45c1.76 0.39 3.77 0.38 5.42-0.36c2.97-1.34 6.92-8.46 6.92-8.46c-1.88 4.26-3.81 10.2-4.8 14.67h-32.02h-32.02c-0.99-4.48-2.92-10.41-4.8-14.67c0 0 3.96 7.12 6.92 8.46c1.65 0.74 3.65 0.75 5.42 0.36c2.96-0.65 5.26-6.45 5.23-6.45c0 0 2.34 3.71 4.16 4.53c1.71 0.77 3.71 0.81 5.59 0.73c1.66-0.08 3.84-0.71 5.21-1.65c2.07-1.43 4.29-6.31 4.29-6.31c0 0 2.21 4.88 4.29 6.31v0z" />
			<g >
				<g >
					<g >
						<path class="s14" d="m674.54 201.06c11.75-0.32 28 4.45 41.38 21.13l-3 2.4c-12.66-15.78-27.66-19.98-38.28-19.69l-0.1-3.84v0z" />
						<path class="s30" d="m674.54 201.06c11.75-0.32 28 4.45 41.38 21.13l-3 2.4c-12.66-15.78-27.66-19.98-38.28-19.69l-0.1-3.84v0z" />
					</g>
					<g >
						<g >
							<g >
								<path fill-rule="evenodd" class="s32" d="m712.51 218.79c0-1.16 0.92-2.1 2.06-2.1c1.14 0 2.06 0.94 2.06 2.1c0 1.16-0.92 2.1-2.06 2.1c-1.14 0-2.06-0.94-2.06-2.1v0z" />
								<path fill-rule="evenodd" class="s33" d="m716.32 219.9l-0.39 0.49l-0.76 0.42l-0.65 0.03l-0.7-0.07l-0.74-0.58l-0.32-0.49l-0.2-0.77v-0.8l0.32-0.45l0.46-0.54l0.58-0.23c0 0-0.3 0.53-0.38 0.78c-0.07 0.24-0.08 0.55-0.03 0.8c0.05 0.24 0.17 0.54 0.32 0.73c0.17 0.21 0.48 0.46 0.73 0.58c0.27 0.13 0.62 0.17 0.92 0.17c0.25 0.01 0.84-0.07 0.84-0.07v0h0z" />
								<path fill-rule="evenodd" class="s1" d="m714.21 217.78c0-0.61 0.32-1.04 0.94-1.04c0.3 0 0.65 0.35 0.86 0.54c0.22 0.2 0.47 0.19 0.47 0.5c0 0.61-0.51 1.1-1.13 1.1c-0.63 0-1.13-0.49-1.13-1.1v0h-0.01z" />
							</g>
							<path class="s30" d="m712.51 218.79c0-1.16 0.92-2.1 2.06-2.1c1.14 0 2.06 0.94 2.06 2.1c0 1.16-0.92 2.1-2.06 2.1c-1.14 0-2.06-0.94-2.06-2.1v0z" />
						</g>
						<g >
							<g >
								<path fill-rule="evenodd" class="s32" d="m708.96 214.92c0-1.16 0.92-2.1 2.06-2.1c1.14 0 2.06 0.94 2.06 2.1c0 1.16-0.92 2.1-2.06 2.1c-1.14 0-2.06-0.94-2.06-2.1v0z" />
								<path fill-rule="evenodd" class="s33" d="m712.76 216.03l-0.39 0.49l-0.76 0.42l-0.65 0.03l-0.7-0.07l-0.74-0.58l-0.32-0.49l-0.2-0.77v-0.8l0.32-0.45l0.46-0.54l0.58-0.23c0 0-0.3 0.53-0.38 0.78c-0.07 0.24-0.08 0.55-0.03 0.8c0.05 0.24 0.17 0.54 0.32 0.73c0.17 0.21 0.48 0.46 0.73 0.58c0.27 0.13 0.62 0.17 0.92 0.17c0.25 0.01 0.84-0.07 0.84-0.07v0v0z" />
								<path fill-rule="evenodd" class="s1" d="m710.66 213.92c0-0.61 0.32-1.04 0.94-1.04c0.3 0 0.65 0.35 0.86 0.54c0.22 0.2 0.47 0.19 0.47 0.5c0 0.61-0.51 1.1-1.13 1.1c-0.63 0-1.13-0.49-1.13-1.1v0h-0.01z" />
							</g>
							<path class="s30" d="m708.96 214.92c0-1.16 0.92-2.1 2.06-2.1c1.14 0 2.06 0.94 2.06 2.1c0 1.16-0.92 2.1-2.06 2.1c-1.14 0-2.06-0.94-2.06-2.1v0z" />
						</g>
						<g >
							<g >
								<path fill-rule="evenodd" class="s32" d="m681.28 200.62c0-1.16 0.92-2.1 2.06-2.1c1.14 0 2.06 0.94 2.06 2.1c0 1.16-0.92 2.1-2.06 2.1c-1.14 0-2.06-0.94-2.06-2.1v0z" />
								<path fill-rule="evenodd" class="s33" d="m685.08 201.74l-0.39 0.49l-0.76 0.42l-0.65 0.03l-0.7-0.07l-0.74-0.58l-0.32-0.49l-0.2-0.77v-0.8l0.32-0.45l0.46-0.54l0.58-0.23c0 0-0.3 0.53-0.38 0.78c-0.07 0.24-0.08 0.55-0.03 0.8c0.05 0.24 0.17 0.54 0.32 0.73c0.17 0.21 0.48 0.46 0.73 0.58c0.27 0.13 0.62 0.17 0.92 0.17c0.25 0.01 0.84-0.07 0.84-0.07v0v0z" />
								<path fill-rule="evenodd" class="s1" d="m682.97 199.62c0-0.61 0.32-1.04 0.94-1.04c0.3 0 0.65 0.35 0.86 0.54c0.22 0.2 0.47 0.19 0.47 0.5c0 0.61-0.51 1.1-1.13 1.1c-0.63 0-1.13-0.49-1.13-1.1v0h-0.01z" />
							</g>
							<path class="s30" d="m681.28 200.62c0-1.16 0.92-2.1 2.06-2.1c1.14 0 2.06 0.94 2.06 2.1c0 1.16-0.92 2.1-2.06 2.1c-1.14 0-2.06-0.94-2.06-2.1v0z" />
						</g>
						<g >
							<g >
								<path fill-rule="evenodd" class="s32" d="m704.76 211.3c0-1.16 0.92-2.1 2.06-2.1c1.14 0 2.06 0.94 2.06 2.1c0 1.16-0.92 2.1-2.06 2.1c-1.14 0-2.06-0.94-2.06-2.1v0z" />
								<path fill-rule="evenodd" class="s33" d="m708.56 212.42l-0.39 0.49l-0.76 0.42l-0.65 0.03l-0.7-0.07l-0.74-0.58l-0.32-0.49l-0.2-0.77v-0.8l0.32-0.45l0.46-0.54l0.58-0.23c0 0-0.3 0.53-0.38 0.78c-0.07 0.24-0.08 0.55-0.03 0.8c0.05 0.24 0.17 0.54 0.32 0.73c0.17 0.21 0.48 0.46 0.73 0.58c0.27 0.13 0.62 0.17 0.92 0.17c0.25 0.01 0.84-0.07 0.84-0.07v0h0z" />
								<path fill-rule="evenodd" class="s1" d="m706.46 210.3c0-0.61 0.32-1.04 0.94-1.04c0.3 0 0.65 0.35 0.86 0.54c0.22 0.2 0.47 0.19 0.47 0.5c0 0.61-0.51 1.1-1.13 1.1c-0.63 0-1.13-0.49-1.13-1.1v0h-0.01z" />
							</g>
							<path class="s30" d="m704.76 211.3c0-1.16 0.92-2.1 2.06-2.1c1.14 0 2.06 0.94 2.06 2.1c0 1.16-0.92 2.1-2.06 2.1c-1.14 0-2.06-0.94-2.06-2.1v0z" />
						</g>
						<g >
							<g >
								<path fill-rule="evenodd" class="s32" d="m700.44 208.12c0-1.16 0.92-2.1 2.06-2.1c1.14 0 2.06 0.94 2.06 2.1c0 1.16-0.92 2.1-2.06 2.1c-1.14 0-2.06-0.94-2.06-2.1v0z" />
								<path fill-rule="evenodd" class="s33" d="m704.25 209.23l-0.39 0.49l-0.76 0.42l-0.65 0.03l-0.7-0.07l-0.74-0.58l-0.32-0.49l-0.2-0.77v-0.8l0.32-0.45l0.46-0.54l0.58-0.23c0 0-0.3 0.53-0.38 0.78c-0.07 0.24-0.08 0.55-0.03 0.8c0.05 0.24 0.17 0.54 0.32 0.73c0.17 0.21 0.48 0.46 0.73 0.58c0.27 0.13 0.62 0.17 0.92 0.17c0.25 0.01 0.84-0.07 0.84-0.07v0v0z" />
								<path fill-rule="evenodd" class="s1" d="m702.14 207.12c0-0.61 0.32-1.04 0.94-1.04c0.3 0 0.65 0.35 0.86 0.54c0.22 0.2 0.47 0.19 0.47 0.5c0 0.61-0.51 1.1-1.13 1.1c-0.63 0-1.13-0.49-1.13-1.1v0h-0.01z" />
							</g>
							<path class="s30" d="m700.44 208.12c0-1.16 0.92-2.1 2.06-2.1c1.14 0 2.06 0.94 2.06 2.1c0 1.16-0.92 2.1-2.06 2.1c-1.14 0-2.06-0.94-2.06-2.1v0z" />
						</g>
						<g >
							<g >
								<path fill-rule="evenodd" class="s32" d="m695.84 205.44c0-1.16 0.92-2.1 2.06-2.1c1.14 0 2.06 0.94 2.06 2.1c0 1.16-0.92 2.1-2.06 2.1c-1.14 0-2.06-0.94-2.06-2.1v0z" />
								<path fill-rule="evenodd" class="s33" d="m699.65 206.55l-0.39 0.49l-0.76 0.42l-0.65 0.03l-0.7-0.07l-0.74-0.58l-0.32-0.49l-0.2-0.77v-0.8l0.32-0.45l0.46-0.54l0.58-0.23c0 0-0.3 0.53-0.38 0.78c-0.07 0.24-0.08 0.55-0.03 0.8c0.05 0.24 0.17 0.54 0.32 0.73c0.17 0.21 0.48 0.46 0.73 0.58c0.27 0.13 0.62 0.17 0.92 0.17c0.25 0.01 0.84-0.07 0.84-0.07v0h0z" />
								<path fill-rule="evenodd" class="s1" d="m697.54 204.43c0-0.61 0.32-1.04 0.94-1.04c0.3 0 0.65 0.35 0.86 0.54c0.22 0.2 0.47 0.19 0.47 0.5c0 0.61-0.51 1.1-1.13 1.1c-0.63 0-1.13-0.49-1.13-1.1v0h-0.01z" />
							</g>
							<path class="s30" d="m695.84 205.44c0-1.16 0.92-2.1 2.06-2.1c1.14 0 2.06 0.94 2.06 2.1c0 1.16-0.92 2.1-2.06 2.1c-1.14 0-2.06-0.94-2.06-2.1v0z" />
						</g>
						<g >
							<g >
								<path fill-rule="evenodd" class="s32" d="m686.49 201.76c0-1.16 0.92-2.1 2.06-2.1c1.14 0 2.06 0.94 2.06 2.1c0 1.16-0.92 2.1-2.06 2.1c-1.14 0-2.06-0.94-2.06-2.1v0z" />
								<path fill-rule="evenodd" class="s33" d="m690.3 202.88l-0.39 0.49l-0.76 0.42l-0.65 0.03l-0.7-0.07l-0.74-0.58l-0.32-0.49l-0.2-0.77v-0.8l0.32-0.45l0.46-0.54l0.58-0.23c0 0-0.3 0.53-0.38 0.78c-0.07 0.24-0.08 0.55-0.03 0.8c0.05 0.24 0.17 0.54 0.32 0.73c0.17 0.21 0.48 0.46 0.73 0.58c0.27 0.13 0.62 0.17 0.92 0.17c0.25 0.01 0.84-0.07 0.84-0.07v0h0z" />
								<path fill-rule="evenodd" class="s1" d="m688.19 200.76c0-0.61 0.32-1.04 0.94-1.04c0.3 0 0.65 0.35 0.86 0.54c0.22 0.2 0.47 0.19 0.47 0.5c0 0.61-0.51 1.1-1.13 1.1c-0.63 0-1.13-0.49-1.13-1.1v0h-0.01z" />
							</g>
							<path class="s30" d="m686.49 201.76c0-1.16 0.92-2.1 2.06-2.1c1.14 0 2.06 0.94 2.06 2.1c0 1.16-0.92 2.1-2.06 2.1c-1.14 0-2.06-0.94-2.06-2.1v0z" />
						</g>
						<g >
							<g >
								<path fill-rule="evenodd" class="s32" d="m691.23 203.42c0-1.16 0.92-2.1 2.06-2.1c1.14 0 2.06 0.94 2.06 2.1c0 1.16-0.92 2.1-2.06 2.1c-1.14 0-2.06-0.94-2.06-2.1v0z" />
								<path fill-rule="evenodd" class="s33" d="m695.03 204.53l-0.39 0.49l-0.76 0.42l-0.65 0.03l-0.7-0.07l-0.74-0.58l-0.32-0.49l-0.2-0.77v-0.8l0.32-0.45l0.46-0.54l0.58-0.23c0 0-0.3 0.53-0.38 0.78c-0.07 0.24-0.08 0.55-0.03 0.8c0.05 0.24 0.17 0.54 0.32 0.73c0.17 0.21 0.48 0.46 0.73 0.58c0.27 0.13 0.62 0.17 0.92 0.17c0.25 0.01 0.84-0.07 0.84-0.07v0v0z" />
								<path fill-rule="evenodd" class="s1" d="m692.93 202.42c0-0.61 0.32-1.04 0.94-1.04c0.3 0 0.65 0.35 0.86 0.54c0.22 0.2 0.47 0.19 0.47 0.5c0 0.61-0.51 1.1-1.13 1.1c-0.63 0-1.13-0.49-1.13-1.1v0h-0.01z" />
							</g>
							<path class="s30" d="m691.23 203.42c0-1.16 0.92-2.1 2.06-2.1c1.14 0 2.06 0.94 2.06 2.1c0 1.16-0.92 2.1-2.06 2.1c-1.14 0-2.06-0.94-2.06-2.1v0z" />
						</g>
					</g>
				</g>
				<g >
					<path class="s14" d="m675.36 204.9c-10.63-0.29-25.62 3.91-38.28 19.69l-3-2.4c13.38-16.68 29.64-21.45 41.38-21.13l-0.1 3.84v0z" />
					<path class="s30" d="m675.36 204.9c-10.63-0.29-25.62 3.91-38.28 19.69l-3-2.4c13.38-16.68 29.64-21.45 41.38-21.13l-0.1 3.84v0z" />
				</g>
				<g >
					<g >
						<g >
							<path fill-rule="evenodd" class="s32" d="m637.49 218.79c0 1.16-0.92 2.1-2.06 2.1c-1.14 0-2.06-0.94-2.06-2.1c0-1.16 0.92-2.1 2.06-2.1c1.14 0 2.06 0.94 2.06 2.1v0z" />
							<path fill-rule="evenodd" class="s33" d="m633.68 219.9c0 0 0.59 0.08 0.84 0.07c0.3-0.01 0.65-0.04 0.92-0.17c0.24-0.12 0.56-0.37 0.73-0.58c0.15-0.19 0.27-0.49 0.32-0.73c0.05-0.25 0.04-0.56-0.03-0.8c-0.08-0.25-0.38-0.78-0.38-0.78l0.58 0.23l0.46 0.54l0.32 0.45v0.8l-0.2 0.77l-0.32 0.49l-0.74 0.58l-0.7 0.07l-0.65-0.03l-0.76-0.42l-0.39-0.49v0v0z" />
							<path fill-rule="evenodd" class="s1" d="m635.79 217.78c0 0.61-0.51 1.1-1.13 1.1c-0.63 0-1.13-0.49-1.13-1.1c0-0.31 0.25-0.3 0.47-0.5c0.2-0.19 0.55-0.54 0.86-0.54c0.63 0 0.94 0.43 0.94 1.04v0h-0.01z" />
						</g>
						<path class="s30" d="m637.49 218.79c0 1.16-0.92 2.1-2.06 2.1c-1.14 0-2.06-0.94-2.06-2.1c0-1.16 0.92-2.1 2.06-2.1c1.14 0 2.06 0.94 2.06 2.1v0z" />
					</g>
					<g >
						<g >
							<path fill-rule="evenodd" class="s32" d="m641.04 214.92c0 1.16-0.92 2.1-2.06 2.1c-1.14 0-2.06-0.94-2.06-2.1c0-1.16 0.92-2.1 2.06-2.1c1.14 0 2.06 0.94 2.06 2.1v0z" />
							<path fill-rule="evenodd" class="s33" d="m637.24 216.03c0 0 0.59 0.08 0.84 0.07c0.3-0.01 0.65-0.04 0.92-0.17c0.24-0.12 0.56-0.37 0.73-0.58c0.15-0.19 0.27-0.49 0.32-0.73c0.05-0.25 0.04-0.56-0.03-0.8c-0.08-0.25-0.38-0.78-0.38-0.78l0.58 0.23l0.46 0.54l0.32 0.45v0.8l-0.2 0.77l-0.32 0.49l-0.74 0.58l-0.7 0.07l-0.65-0.03l-0.76-0.42l-0.39-0.49v0v0z" />
							<path fill-rule="evenodd" class="s1" d="m639.34 213.92c0 0.61-0.51 1.1-1.13 1.1c-0.63 0-1.13-0.49-1.13-1.1c0-0.31 0.25-0.3 0.47-0.5c0.2-0.19 0.55-0.54 0.86-0.54c0.63 0 0.94 0.43 0.94 1.04v0h-0.01z" />
						</g>
						<path class="s30" d="m641.04 214.92c0 1.16-0.92 2.1-2.06 2.1c-1.14 0-2.06-0.94-2.06-2.1c0-1.16 0.92-2.1 2.06-2.1c1.14 0 2.06 0.94 2.06 2.1v0z" />
					</g>
					<g >
						<g >
							<path fill-rule="evenodd" class="s32" d="m668.72 200.62c0 1.16-0.92 2.1-2.06 2.1c-1.14 0-2.06-0.94-2.06-2.1c0-1.16 0.92-2.1 2.06-2.1c1.14 0 2.06 0.94 2.06 2.1v0z" />
							<path fill-rule="evenodd" class="s33" d="m664.92 201.74c0 0 0.59 0.08 0.84 0.07c0.3-0.01 0.65-0.04 0.92-0.17c0.24-0.12 0.56-0.37 0.73-0.58c0.15-0.19 0.27-0.49 0.32-0.73c0.05-0.25 0.04-0.56-0.03-0.8c-0.08-0.25-0.38-0.78-0.38-0.78l0.58 0.23l0.46 0.54l0.32 0.45v0.8l-0.2 0.77l-0.32 0.49l-0.74 0.58l-0.7 0.07l-0.65-0.03l-0.76-0.42l-0.39-0.49v0v0z" />
							<path fill-rule="evenodd" class="s1" d="m667.03 199.62c0 0.61-0.51 1.1-1.13 1.1c-0.63 0-1.13-0.49-1.13-1.1c0-0.31 0.25-0.3 0.47-0.5c0.2-0.19 0.55-0.54 0.86-0.54c0.63 0 0.94 0.43 0.94 1.04v0h-0.01z" />
						</g>
						<path class="s30" d="m668.72 200.62c0 1.16-0.92 2.1-2.06 2.1c-1.14 0-2.06-0.94-2.06-2.1c0-1.16 0.92-2.1 2.06-2.1c1.14 0 2.06 0.94 2.06 2.1v0z" />
					</g>
					<g >
						<g >
							<path fill-rule="evenodd" class="s32" d="m645.24 211.3c0 1.16-0.92 2.1-2.06 2.1c-1.14 0-2.06-0.94-2.06-2.1c0-1.16 0.92-2.1 2.06-2.1c1.14 0 2.06 0.94 2.06 2.1v0z" />
							<path fill-rule="evenodd" class="s33" d="m641.44 212.42c0 0 0.59 0.08 0.84 0.07c0.3-0.01 0.65-0.04 0.92-0.17c0.24-0.12 0.56-0.37 0.73-0.58c0.15-0.19 0.27-0.49 0.32-0.73c0.05-0.25 0.04-0.56-0.03-0.8c-0.08-0.25-0.38-0.78-0.38-0.78l0.58 0.23l0.46 0.54l0.32 0.45v0.8l-0.2 0.77l-0.32 0.49l-0.74 0.58l-0.7 0.07l-0.65-0.03l-0.76-0.42l-0.39-0.49v0v0z" />
							<path fill-rule="evenodd" class="s1" d="m643.54 210.3c0 0.61-0.51 1.1-1.13 1.1c-0.63 0-1.13-0.49-1.13-1.1c0-0.31 0.25-0.3 0.47-0.5c0.2-0.19 0.55-0.54 0.86-0.54c0.63 0 0.94 0.43 0.94 1.04v0h-0.01z" />
						</g>
						<path class="s30" d="m645.24 211.3c0 1.16-0.92 2.1-2.06 2.1c-1.14 0-2.06-0.94-2.06-2.1c0-1.16 0.92-2.1 2.06-2.1c1.14 0 2.06 0.94 2.06 2.1v0z" />
					</g>
					<g >
						<g >
							<path fill-rule="evenodd" class="s32" d="m649.56 208.12c0 1.16-0.92 2.1-2.06 2.1c-1.14 0-2.06-0.94-2.06-2.1c0-1.16 0.92-2.1 2.06-2.1c1.14 0 2.06 0.94 2.06 2.1v0z" />
							<path fill-rule="evenodd" class="s33" d="m645.75 209.23c0 0 0.59 0.08 0.84 0.07c0.3-0.01 0.65-0.04 0.92-0.17c0.24-0.12 0.56-0.37 0.73-0.58c0.15-0.19 0.27-0.49 0.32-0.73c0.05-0.25 0.04-0.56-0.03-0.8c-0.08-0.25-0.38-0.78-0.38-0.78l0.58 0.23l0.46 0.54l0.32 0.45v0.8l-0.2 0.77l-0.32 0.49l-0.74 0.58l-0.7 0.07l-0.65-0.03l-0.76-0.42l-0.39-0.49v0v0z" />
							<path fill-rule="evenodd" class="s1" d="m647.86 207.12c0 0.61-0.51 1.1-1.13 1.1c-0.63 0-1.13-0.49-1.13-1.1c0-0.31 0.25-0.3 0.47-0.5c0.2-0.19 0.55-0.54 0.86-0.54c0.63 0 0.94 0.43 0.94 1.04v0h-0.01z" />
						</g>
						<path class="s30" d="m649.56 208.12c0 1.16-0.92 2.1-2.06 2.1c-1.14 0-2.06-0.94-2.06-2.1c0-1.16 0.92-2.1 2.06-2.1c1.14 0 2.06 0.94 2.06 2.1v0z" />
					</g>
					<g >
						<g >
							<path fill-rule="evenodd" class="s32" d="m654.16 205.44c0 1.16-0.92 2.1-2.06 2.1c-1.14 0-2.06-0.94-2.06-2.1c0-1.16 0.92-2.1 2.06-2.1c1.14 0 2.06 0.94 2.06 2.1v0z" />
							<path fill-rule="evenodd" class="s33" d="m650.35 206.55c0 0 0.59 0.08 0.84 0.07c0.3-0.01 0.65-0.04 0.92-0.17c0.24-0.12 0.56-0.37 0.73-0.58c0.15-0.19 0.27-0.49 0.32-0.73c0.05-0.25 0.04-0.56-0.03-0.8c-0.08-0.25-0.38-0.78-0.38-0.78l0.58 0.23l0.46 0.54l0.32 0.45v0.8l-0.2 0.77l-0.32 0.49l-0.74 0.58l-0.7 0.07l-0.65-0.03l-0.76-0.42l-0.39-0.49v0h0z" />
							<path fill-rule="evenodd" class="s1" d="m652.46 204.43c0 0.61-0.51 1.1-1.13 1.1c-0.63 0-1.13-0.49-1.13-1.1c0-0.31 0.25-0.3 0.47-0.5c0.2-0.19 0.55-0.54 0.86-0.54c0.63 0 0.94 0.43 0.94 1.04v0h-0.01z" />
						</g>
						<path class="s30" d="m654.16 205.44c0 1.16-0.92 2.1-2.06 2.1c-1.14 0-2.06-0.94-2.06-2.1c0-1.16 0.92-2.1 2.06-2.1c1.14 0 2.06 0.94 2.06 2.1v0z" />
					</g>
					<g >
						<g >
							<path fill-rule="evenodd" class="s32" d="m663.51 201.76c0 1.16-0.92 2.1-2.06 2.1c-1.14 0-2.06-0.94-2.06-2.1c0-1.16 0.92-2.1 2.06-2.1c1.14 0 2.06 0.94 2.06 2.1v0z" />
							<path fill-rule="evenodd" class="s33" d="m659.7 202.88c0 0 0.59 0.08 0.84 0.07c0.3-0.01 0.65-0.04 0.92-0.17c0.24-0.12 0.56-0.37 0.73-0.58c0.15-0.19 0.27-0.49 0.32-0.73c0.05-0.25 0.04-0.56-0.03-0.8c-0.08-0.25-0.38-0.78-0.38-0.78l0.58 0.23l0.46 0.54l0.32 0.45v0.8l-0.2 0.77l-0.32 0.49l-0.74 0.58l-0.7 0.07l-0.65-0.03l-0.76-0.42l-0.39-0.49v0v0z" />
							<path fill-rule="evenodd" class="s1" d="m661.81 200.76c0 0.61-0.51 1.1-1.13 1.1c-0.63 0-1.13-0.49-1.13-1.1c0-0.31 0.25-0.3 0.47-0.5c0.2-0.19 0.55-0.54 0.86-0.54c0.63 0 0.94 0.43 0.94 1.04v0h-0.01z" />
						</g>
						<path class="s30" d="m663.51 201.76c0 1.16-0.92 2.1-2.06 2.1c-1.14 0-2.06-0.94-2.06-2.1c0-1.16 0.92-2.1 2.06-2.1c1.14 0 2.06 0.94 2.06 2.1v0z" />
					</g>
					<g >
						<g >
							<path fill-rule="evenodd" class="s32" d="m658.77 203.42c0 1.16-0.92 2.1-2.06 2.1c-1.14 0-2.06-0.94-2.06-2.1c0-1.16 0.92-2.1 2.06-2.1c1.14 0 2.06 0.94 2.06 2.1v0z" />
							<path fill-rule="evenodd" class="s33" d="m654.97 204.53c0 0 0.59 0.08 0.84 0.07c0.3-0.01 0.65-0.04 0.92-0.17c0.24-0.12 0.56-0.37 0.73-0.58c0.15-0.19 0.27-0.49 0.32-0.73c0.05-0.25 0.04-0.56-0.03-0.8c-0.08-0.25-0.38-0.78-0.38-0.78l0.58 0.23l0.46 0.54l0.32 0.45v0.8l-0.2 0.77l-0.32 0.49l-0.74 0.58l-0.7 0.07l-0.65-0.03l-0.76-0.42l-0.39-0.49v0v0z" />
							<path fill-rule="evenodd" class="s1" d="m657.07 202.42c0 0.61-0.51 1.1-1.13 1.1c-0.63 0-1.13-0.49-1.13-1.1c0-0.31 0.25-0.3 0.47-0.5c0.2-0.19 0.55-0.54 0.86-0.54c0.63 0 0.94 0.43 0.94 1.04v0h-0.01z" />
						</g>
						<path class="s30" d="m658.77 203.42c0 1.16-0.92 2.1-2.06 2.1c-1.14 0-2.06-0.94-2.06-2.1c0-1.16 0.92-2.1 2.06-2.1c1.14 0 2.06 0.94 2.06 2.1v0z" />
					</g>
				</g>
			</g>
			<g >
				<path class="s31" d="m670 191.18c0.56-0.71 1.22-1.23 1.76-1.95c0.57-0.75 1-1.71 1.22-2.67c-0.98 0.25-1.94 0.68-2.69 1.24c-0.72 0.54-1.24 1.2-1.95 1.76v-9.03c0.71 0.56 1.23 1.22 1.95 1.76c0.75 0.57 1.71 1 2.69 1.24c-0.22-0.96-0.65-1.91-1.22-2.67c-0.54-0.72-1.2-1.24-1.76-1.95h10.01c-0.56 0.71-1.22 1.23-1.76 1.95c-0.57 0.75-1 1.71-1.22 2.67c0.98-0.25 1.94-0.68 2.69-1.24c0.72-0.54 1.24-1.2 1.95-1.76v9.03c-0.71-0.56-1.23-1.22-1.95-1.76c-0.75-0.57-1.71-1-2.69-1.24c0.22 0.96 0.65 1.91 1.22 2.67c0.54 0.72 1.2 1.24 1.76 1.95h-10.01v0z" />
				<g >
					<g >
						<path fill-rule="evenodd" class="s32" d="m677.48 185.06c0 1.39-1.11 2.52-2.48 2.52c-1.37 0-2.48-1.13-2.48-2.52c0-1.39 1.11-2.52 2.48-2.52c1.37 0 2.48 1.13 2.48 2.52v0z" />
						<path fill-rule="evenodd" class="s33" d="m672.9 186.39c0 0 0.71 0.1 1.01 0.09c0.36-0.01 0.78-0.05 1.1-0.21c0.29-0.14 0.67-0.45 0.87-0.7c0.18-0.23 0.33-0.59 0.38-0.87c0.06-0.3 0.05-0.67-0.03-0.96c-0.09-0.3-0.45-0.94-0.45-0.94l0.7 0.28l0.56 0.65l0.38 0.54v0.96l-0.24 0.93l-0.38 0.59l-0.89 0.7l-0.84 0.09l-0.79-0.03l-0.91-0.51l-0.47-0.59v0v-0.02z" />
						<path fill-rule="evenodd" class="s1" d="m675.44 183.85c0 0.73-0.61 1.32-1.36 1.32c-0.75 0-1.36-0.59-1.36-1.32c0-0.37 0.3-0.36 0.56-0.6c0.24-0.23 0.66-0.65 1.03-0.65c0.75 0 1.14 0.52 1.14 1.25v0h-0.01z" />
					</g>
					<path class="s30" d="m677.48 185.06c0 1.39-1.11 2.52-2.48 2.52c-1.37 0-2.48-1.13-2.48-2.52c0-1.39 1.11-2.52 2.48-2.52c1.37 0 2.48 1.13 2.48 2.52v0z" />
				</g>
				<g >
					<g >
						<path class="s14" d="m680.63 196.84c0 3.11-2.52 5.63-5.63 5.63c-3.11 0-5.63-2.52-5.63-5.63c0-3.11 2.52-5.63 5.63-5.63c3.11 0 5.63 2.52 5.63 5.63v0z" />
						<path class="s30" d="m680.63 196.84c0 3.11-2.52 5.63-5.63 5.63c-3.11 0-5.63-2.52-5.63-5.63c0-3.11 2.52-5.63 5.63-5.63c3.11 0 5.63 2.52 5.63 5.63v0z" />
					</g>
					<g >
						<path class="s14" d="m676.19 190.78v4.73h4.74v2.41h-11.86v-2.41h4.73v-4.73h2.4h-0.01z" />
						<path class="s30" d="m676.19 190.77v4.73h4.74v2.41h-11.86v-2.41h4.73v-4.73h2.4l-0.01 0z" />
					</g>
				</g>
				<g >
					<g >
						<path fill-rule="evenodd" class="s14" d="m673.16 201.31h3.69c1.04 0 1.88 0.84 1.88 1.88v17.32c0 1.04-0.84 1.88-1.88 1.88h-3.69c-1.04 0-1.88-0.84-1.88-1.88v-17.32c0-1.04 0.84-1.88 1.88-1.88v0z" />
						<path class="s30" d="m671.28 201.31h7.44v21.07h-7.44v-21.07z" />
					</g>
					<g >
						<g >
							<path fill-rule="evenodd" class="s14" d="m671 201.28c0.66 0 1.19 0.45 1.19 1.01v19.08c0 0.56-0.53 1.01-1.19 1.01c-0.66 0-1.19-0.45-1.19-1.01v-19.08c0-0.56 0.53-1.01 1.19-1.01v0z" />
							<path class="s30" d="m671 201.28c0.66 0 1.19 0.45 1.19 1.01v19.08c0 0.56-0.53 1.01-1.19 1.01c-0.66 0-1.19-0.45-1.19-1.01v-19.08c0-0.56 0.53-1.01 1.19-1.01z" />
						</g>
						<g >
							<path class="s34" d="m677.81 201.28h2.37v21.11h-2.37v-21.11z" />
							<path class="s31" d="m679 201.28c0.66 0 1.19 0.45 1.19 1.01v19.08c0 0.56-0.53 1.01-1.19 1.01c-0.66 0-1.19-0.45-1.19-1.01v-19.08c0-0.56 0.53-1.01 1.19-1.01v0z" />
						</g>
					</g>
				</g>
				<g >
					<g >
						<g >
							<path fill-rule="evenodd" class="s32" d="m677.05 201.75c0 1.15-0.92 2.08-2.05 2.08c-1.13 0-2.05-0.93-2.05-2.08c0-1.15 0.92-2.08 2.05-2.08c1.13 0 2.05 0.93 2.05 2.08v0z" />
							<path fill-rule="evenodd" class="s33" d="m673.27 202.86c0 0 0.59 0.08 0.84 0.07c0.3-0.01 0.64-0.04 0.91-0.17c0.24-0.12 0.56-0.37 0.72-0.58c0.15-0.19 0.27-0.49 0.32-0.72c0.05-0.24 0.04-0.56-0.03-0.79c-0.08-0.25-0.38-0.78-0.38-0.78l0.58 0.23l0.46 0.53l0.32 0.45v0.79l-0.2 0.77l-0.32 0.49l-0.74 0.58l-0.69 0.07l-0.65-0.03l-0.75-0.42l-0.39-0.49v0v0z" />
							<path fill-rule="evenodd" class="s1" d="m675.36 200.76c0 0.6-0.5 1.09-1.13 1.09c-0.62 0-1.13-0.49-1.13-1.09c0-0.31 0.25-0.3 0.46-0.5c0.2-0.19 0.55-0.53 0.85-0.53c0.62 0 0.94 0.43 0.94 1.03v0h0.01z" />
						</g>
						<path class="s30" d="m677.05 201.75c0 1.15-0.92 2.08-2.05 2.08c-1.13 0-2.05-0.93-2.05-2.08c0-1.15 0.92-2.08 2.05-2.08c1.13 0 2.05 0.93 2.05 2.08v0z" />
					</g>
					<g >
						<g >
							<path fill-rule="evenodd" class="s32" d="m677.05 205.9c0 1.15-0.92 2.08-2.05 2.08c-1.13 0-2.05-0.93-2.05-2.08c0-1.15 0.92-2.08 2.05-2.08c1.13 0 2.05 0.93 2.05 2.08v0z" />
							<path fill-rule="evenodd" class="s33" d="m673.27 207c0 0 0.59 0.08 0.84 0.07c0.3-0.01 0.64-0.04 0.91-0.17c0.24-0.12 0.56-0.37 0.72-0.58c0.15-0.19 0.27-0.49 0.32-0.72c0.05-0.24 0.04-0.56-0.03-0.79c-0.08-0.25-0.38-0.78-0.38-0.78l0.58 0.23l0.46 0.53l0.32 0.45v0.79l-0.2 0.77l-0.32 0.49l-0.74 0.58l-0.69 0.07l-0.65-0.03l-0.75-0.42l-0.39-0.49v0v0z" />
							<path fill-rule="evenodd" class="s1" d="m675.36 204.9c0 0.6-0.5 1.09-1.13 1.09c-0.62 0-1.13-0.49-1.13-1.09c0-0.31 0.25-0.3 0.46-0.5c0.2-0.19 0.55-0.53 0.85-0.53c0.62 0 0.94 0.43 0.94 1.03v0h0.01z" />
						</g>
						<path class="s30" d="m677.05 205.9c0 1.15-0.92 2.08-2.05 2.08c-1.13 0-2.05-0.93-2.05-2.08c0-1.15 0.92-2.08 2.05-2.08c1.13 0 2.05 0.93 2.05 2.08v0z" />
					</g>
					<g >
						<g >
							<path fill-rule="evenodd" class="s32" d="m677.05 210.05c0 1.15-0.92 2.08-2.05 2.08c-1.13 0-2.05-0.93-2.05-2.08c0-1.15 0.92-2.08 2.05-2.08c1.13 0 2.05 0.93 2.05 2.08v0z" />
							<path fill-rule="evenodd" class="s33" d="m673.27 211.15c0 0 0.59 0.08 0.84 0.07c0.3-0.01 0.64-0.04 0.91-0.17c0.24-0.12 0.56-0.37 0.72-0.58c0.15-0.19 0.27-0.49 0.32-0.72c0.05-0.24 0.04-0.56-0.03-0.79c-0.08-0.25-0.38-0.78-0.38-0.78l0.58 0.23l0.46 0.53l0.32 0.45v0.79l-0.2 0.77l-0.32 0.49l-0.74 0.58l-0.69 0.07l-0.65-0.03l-0.75-0.42l-0.39-0.49v0v0z" />
							<path fill-rule="evenodd" class="s1" d="m675.36 209.05c0 0.6-0.5 1.09-1.13 1.09c-0.62 0-1.13-0.49-1.13-1.09c0-0.31 0.25-0.3 0.46-0.5c0.2-0.19 0.55-0.53 0.85-0.53c0.62 0 0.94 0.43 0.94 1.03v0h0.01z" />
						</g>
						<path class="s30" d="m677.05 210.05c0 1.15-0.92 2.08-2.05 2.08c-1.13 0-2.05-0.93-2.05-2.08c0-1.15 0.92-2.08 2.05-2.08c1.13 0 2.05 0.93 2.05 2.08v0z" />
					</g>
					<g >
						<g >
							<path fill-rule="evenodd" class="s32" d="m677.05 214.2c0 1.15-0.92 2.08-2.05 2.08c-1.13 0-2.05-0.93-2.05-2.08c0-1.15 0.92-2.08 2.05-2.08c1.13 0 2.05 0.93 2.05 2.08v0z" />
							<path fill-rule="evenodd" class="s33" d="m673.27 215.3c0 0 0.59 0.08 0.84 0.07c0.3-0.01 0.64-0.04 0.91-0.17c0.24-0.12 0.56-0.37 0.72-0.58c0.15-0.19 0.27-0.49 0.32-0.72c0.05-0.24 0.04-0.56-0.03-0.79c-0.08-0.25-0.38-0.78-0.38-0.78l0.58 0.23l0.46 0.53l0.32 0.45v0.79l-0.2 0.77l-0.32 0.49l-0.74 0.58l-0.69 0.07l-0.65-0.03l-0.75-0.42l-0.39-0.49v0v0z" />
							<path fill-rule="evenodd" class="s1" d="m675.36 213.2c0 0.6-0.5 1.09-1.13 1.09c-0.62 0-1.13-0.49-1.13-1.09c0-0.31 0.25-0.3 0.46-0.5c0.2-0.19 0.55-0.53 0.85-0.53c0.62 0 0.94 0.43 0.94 1.03v0h0.01z" />
						</g>
						<path class="s30" d="m677.05 214.2c0 1.15-0.92 2.08-2.05 2.08c-1.13 0-2.05-0.93-2.05-2.08c0-1.15 0.92-2.08 2.05-2.08c1.13 0 2.05 0.93 2.05 2.08v0z" />
					</g>
					<g >
						<g >
							<path fill-rule="evenodd" class="s32" d="m677.05 218.35c0 1.15-0.92 2.08-2.05 2.08c-1.13 0-2.05-0.93-2.05-2.08c0-1.15 0.92-2.08 2.05-2.08c1.13 0 2.05 0.93 2.05 2.08v0z" />
							<path fill-rule="evenodd" class="s33" d="m673.27 219.45c0 0 0.59 0.08 0.84 0.07c0.3-0.01 0.64-0.04 0.91-0.17c0.24-0.12 0.56-0.37 0.72-0.58c0.15-0.19 0.27-0.49 0.32-0.72c0.05-0.24 0.04-0.56-0.03-0.79c-0.08-0.25-0.38-0.78-0.38-0.78l0.58 0.23l0.46 0.53l0.32 0.45v0.79l-0.2 0.77l-0.32 0.49l-0.74 0.58l-0.69 0.07l-0.65-0.03l-0.75-0.42l-0.39-0.49v0v0z" />
							<path fill-rule="evenodd" class="s1" d="m675.36 217.35c0 0.6-0.5 1.09-1.13 1.09c-0.62 0-1.13-0.49-1.13-1.09c0-0.31 0.25-0.3 0.46-0.5c0.2-0.19 0.55-0.53 0.85-0.53c0.62 0 0.94 0.43 0.94 1.03v0h0.01z" />
						</g>
						<path class="s30" d="m677.05 218.35c0 1.15-0.92 2.08-2.05 2.08c-1.13 0-2.05-0.93-2.05-2.08c0-1.15 0.92-2.08 2.05-2.08c1.13 0 2.05 0.93 2.05 2.08v0z" />
					</g>
				</g>
			</g>
			<path class="s31" d="m682.4 219.94c-1.33 1.54-2.41 3.18-3.51 4.72c-0.79 1.11-0.89 1.79-1.2 2.89c1.08-0.35 1.63-0.7 2.71-1.59c1.28-1.06 2.21-2.32 3.49-3.73l-0.09 13.78c-0.9-1.02-1.85-1.97-2.93-2.8c-0.96-0.73-2.03-1.35-3.26-1.82c0 0-0.21 1.38 0.04 2.18c0.94 2.98 4.21 4.45 7.55 4.6c2.57 0.11 5.99-0.7 6.75-3.09c0.15-0.45 0.45-0.84 0.43-1.34l-0.07-1.6c-0.02-0.38-0.28-1-0.66-1.04c-0.36-0.03-0.62 0.26-0.81 0.52c-0.42 0.59-0.28 1.43-0.52 2.11c-0.27 0.75-0.73 1.33-1.43 1.71c-0.59 0.31-1.95 0.3-1.95 0.3l0.55-1.65c0.39-1.16-0.32-2.1-0.51-3.31c-0.12-0.78-0.16-1.64 0.17-2.36c0.35-0.78 1.01-1.51 1.81-1.81c0.29-0.11 0.63-0.1 0.94-0.06c0.44 0.06 1.72 0.59 1.72 0.59c0 0-0.04-1.52 0.07-2.25c0.14-0.88 0.62-1.96 1.1-2.71c0.79-1.24 2-2.37 2.12-2.49c0.13 0.13 1.24 1.29 1.94 2.59c0.42 0.78 1.17 2.41 1.24 3.3c0.06 0.73-0.18 1.93-0.18 1.93c0 0 0.87-0.28 1.31-0.31c0.31-0.02 0.65 0 0.93 0.13c0.78 0.35 1.38 1.13 1.68 1.93c0.28 0.74 0.18 1.6 0 2.36c-0.28 1.19-1.42 2.11-1.12 3.3l0.44 1.68c0 0-1.36-0.09-1.93-0.44c-0.68-0.43-1.09-1.03-1.31-1.8c-0.2-0.7 0.19-1.48 0-2.18c-0.1-0.35-0.2-0.94-0.56-0.93c-0.38 0.01-0.85 0.54-0.85 0.93c-0.01 0.59-0.01 1.19-0.02 1.78c-0.18 3.42 2.22 5.77 5.64 5.7c2.5-0.05 4.9-1.48 6.27-6.28c-5.16 0.98-4.36 1.36-6.32 1.71l3.24-11.4c0.96 2.82 1.87 5.65 4.65 7.74c0.49-3.06-0.91-6.75-2.25-10.55c3.31 0.16 6.3 0.64 8.87 1.55c-1.68 2.9-3.08 5.72-4.35 8.47c-0.45 0.97-1.12 1.73-1.53 2.69c-1.72 6.46-3.7 7.86-7.73 8.37c-4.03 0.51-7.8-1.85-8.68-6.09c-0.91 2.91-5.08 4.48-8.38 4.47c-4.42-0.01-9.03-1.77-10.87-6.33c-1.83 4.56-6.45 6.32-10.87 6.33c-3.3 0.01-7.47-1.56-8.38-4.47c-0.87 4.24-4.64 6.6-8.68 6.09c-4.03-0.51-6-1.91-7.73-8.37c-0.4-0.95-1.08-1.72-1.53-2.69c-1.27-2.75-2.67-5.57-4.35-8.47c2.56-0.91 5.55-1.39 8.87-1.55c-1.35 3.8-2.75 7.49-2.25 10.55c2.78-2.09 3.69-4.92 4.65-7.74l3.24 11.4c-1.96-0.34-1.16-0.73-6.32-1.71c1.38 4.8 3.77 6.23 6.27 6.28c3.42 0.07 5.82-2.29 5.64-5.7c-0.01-0.59-0.01-1.19-0.02-1.78c0-0.38-0.47-0.92-0.85-0.93c-0.36 0-0.46 0.58-0.56 0.93c-0.19 0.7 0.2 1.48 0 2.18c-0.22 0.77-0.63 1.38-1.31 1.8c-0.57 0.35-1.93 0.44-1.93 0.44l0.44-1.68c0.31-1.19-0.84-2.1-1.12-3.3c-0.18-0.77-0.28-1.63 0-2.36c0.3-0.8 0.9-1.58 1.68-1.93c0.28-0.13 0.62-0.15 0.93-0.13c0.44 0.03 1.31 0.31 1.31 0.31c0 0-0.24-1.2-0.18-1.93c0.08-0.88 0.82-2.52 1.24-3.3c0.7-1.3 1.81-2.46 1.94-2.59c0.12 0.12 1.33 1.25 2.12 2.49c0.47 0.75 0.96 1.83 1.1 2.71c0.11 0.72 0.07 2.25 0.07 2.25c0 0 1.28-0.52 1.72-0.59c0.31-0.04 0.65-0.05 0.94 0.06c0.8 0.3 1.46 1.04 1.81 1.81c0.33 0.72 0.29 1.58 0.17 2.36c-0.19 1.21-0.9 2.15-0.51 3.31l0.55 1.65c0 0-1.37 0.01-1.95-0.3c-0.71-0.38-1.16-0.95-1.43-1.71c-0.24-0.68-0.1-1.52-0.52-2.11c-0.19-0.26-0.45-0.55-0.81-0.52c-0.38 0.03-0.65 0.66-0.66 1.04l-0.07 1.6c-0.02 0.49 0.28 0.88 0.43 1.34c0.77 2.39 4.18 3.2 6.75 3.09c3.34-0.14 6.61-1.61 7.55-4.6c0.25-0.81 0.04-2.18 0.04-2.18c-1.23 0.47-2.3 1.09-3.26 1.82c-1.09 0.83-2.04 1.78-2.93 2.8l-0.09-13.78c1.28 1.41 2.21 2.67 3.49 3.73c1.08 0.89 1.63 1.24 2.71 1.59c-0.31-1.11-0.41-1.79-1.2-2.89c-1.1-1.54-2.18-3.18-3.51-4.72c2.45-0.41 4.91-0.52 7.4-0.52c2.49 0 4.94 0.11 7.4 0.52h-0.08z" />
			<path class="s31" d="m675 240.96c20.76 0 32.27 6.29 32.27 6.29l-2.06 9.94c0 0-14.79-5.88-30.21-5.88c-15.42 0-30.21 5.88-30.21 5.88l-2.06-9.94c0 0 11.51-6.29 32.27-6.29v0z" />
			<g >
				<g >
					<path class="s35" d="m642.06 247.04c0 0 13.41-6 32.94-6c19.53 0 32.94 6 32.94 6" />
					<path class="s36" d="m642.06 247.04c0 0 13.41-6 32.94-6c19.53 0 32.94 6 32.94 6" />
				</g>
				<g >
					<path class="s35" d="m644.86 257.67c0 0 12.82-6.43 30.14-6.43c17.31 0 30.14 6.43 30.14 6.43" />
					<path class="s36" d="m644.86 257.67c0 0 12.82-6.43 30.14-6.43c17.31 0 30.14 6.43 30.14 6.43" />
				</g>
				<g >
					<g >
						<g >
							<g >
								<path fill-rule="evenodd" class="s14" d="m668.36 242.89h13.29v6.72h-13.29v-6.72z" />
								<path fill-rule="evenodd" class="s14" d="m668.36 242.89h13.29l-13.29 6.72v-6.72z" />
								<path fill-rule="evenodd" class="s14" d="m681.64 244.31v5.31h-10.63l10.63-5.31z" />
							</g>
							<path class="s30" d="m668.8 242.89h12.4c0.25 0 0.45 0.15 0.45 0.34v6.04c0 0.19-0.2 0.34-0.45 0.34h-12.4c-0.25 0-0.45-0.15-0.45-0.34v-6.04c0-0.19 0.2-0.34 0.45-0.34z" />
						</g>
						<g >
							<g >
								<g >
									<path fill-rule="evenodd" class="s37" d="m670.55 243.77h8.9c0.43 0 0.77 0.26 0.77 0.59v3.78c0 0.33-0.34 0.59-0.77 0.59h-8.9c-0.43 0-0.77-0.26-0.77-0.59v-3.78c0-0.33 0.34-0.59 0.77-0.59z" />
									<g >
										<path fill-rule="evenodd" class="s38" d="m679.99 248.56c-0.14 0.11-0.33 0.17-0.54 0.17h-8.9c-0.21 0-0.41-0.07-0.54-0.17c-0.14-0.11-0.22-0.25-0.22-0.42v-3.78c0-0.16 0.09-0.31 0.22-0.42c0.14-0.11 10.12 4.51 9.98 4.62v0z" />
										<path fill-rule="evenodd" class="s39" d="m679.99 248.56c-0.14 0.11-0.33 0.17-0.54 0.17h-8.9c-0.21 0-0.41-0.07-0.54-0.17c-0.14-0.11-0.22-0.25-0.22-0.42v-3.78c0-0.16 0.09-0.31 0.22-0.42c0.07-0.05 2.68 1.11 5.21 2.28c2.46 1.14 4.84 2.28 4.77 2.33v0v0.01z" />
										<g >
											<path fill-rule="evenodd" class="s40" d="m679.99 243.94c0.14 0.11 0.22 0.25 0.22 0.42v3.78c0 0.16-0.09 0.31-0.22 0.42c-0.14 0.11-0.33 0.17-0.54 0.17h-8.9c-0.21 0-0.41-0.07-0.54-0.17c-0.14-0.11 9.85-4.72 9.98-4.62v0z" />
											<path fill-rule="evenodd" class="s41" d="m679.99 248.56c-0.14 0.11-0.33 0.17-0.54 0.17h-8.9c-0.21 0-0.41-0.07-0.54-0.17c-0.07-0.05 2.46-1.27 5-2.44c0 0 5.12 2.33 4.99 2.44v0h-0.01z" />
										</g>
									</g>
								</g>
								<path class="s30" d="m670.55 243.77h8.9c0.43 0 0.77 0.26 0.77 0.59v3.78c0 0.33-0.34 0.59-0.77 0.59h-8.9c-0.43 0-0.77-0.26-0.77-0.59v-3.78c0-0.33 0.34-0.59 0.77-0.59z" />
							</g>
							<path fill-rule="evenodd" class="s42" d="m672.08 244.9h5.85v2.53h-5.85v-2.53z" />
						</g>
					</g>
					<g >
						<path class="s31" d="m642.64 252.7l-0.16-3.54l6.38 1.69l-4.79 4.68l-1.43-2.83v0z" />
						<path class="s43" d="m641.91 252.57l0.79-2.53l4.63 1.22l-3.47 3.39l-1.95-2.08z" />
						<path class="s44" d="m641.96 252.56l5.37-1.3l-3.47 3.39l-1.9-2.09z" />
						<g >
							<path class="s45" d="m647.34 251.25l-5.43 1.36" />
							<path class="s30" d="m641.86 252.54l0.84-2.5l4.63 1.22l-3.47 3.39l-2-2.12v0.01z" />
						</g>
					</g>
					<g >
						<g >
							<path fill-rule="evenodd" class="s31" d="m655.61 245.72l3.58-0.74c1.49-0.31 3 0.51 3.38 1.82l0.07 0.25c0.38 1.32-0.52 2.63-2.01 2.93l-3.58 0.74c-1.49 0.31-3-0.51-3.38-1.82l-0.07-0.25c-0.38-1.32 0.52-2.63 2.01-2.93v0z" />
							<path fill-rule="evenodd" class="s46" d="m655.92 246.37l3.36-0.69c1.15-0.24 2.3 0.39 2.59 1.4c0.29 1.01-0.4 2.02-1.54 2.25l-3.36 0.69c-1.15 0.24-2.3-0.39-2.59-1.4c-0.29-1.01 0.4-2.02 1.54-2.25v0z" />
							<path fill-rule="evenodd" class="s47" d="m659.57 247.21c0.08 0.26-0.06 0.75-0.37 1.03c-0.52 0.49-1.46 0.75-2.27 0.91c-1.28 0.26-2.29-0.22-2.49-0.93c-0.12-0.43 0.02-1.03 0.53-1.38c0.34-0.24 0.89-0.42 1.41-0.53c0.86-0.18 2.05-0.24 2.71 0.09c0.32 0.16 0.41 0.57 0.48 0.81z" />
						</g>
						<path class="s30" d="m655.92 246.37l3.36-0.69c1.15-0.24 2.3 0.39 2.59 1.4c0.29 1.01-0.4 2.02-1.54 2.25l-3.36 0.69c-1.15 0.24-2.3-0.39-2.59-1.4c-0.29-1.01 0.4-2.02 1.54-2.25v0z" />
						<path fill-rule="evenodd" class="s48" d="m657.7 247.44c0.1 0.36-0.3 0.76-0.91 0.88c-0.61 0.12-1.18-0.07-1.29-0.43c-0.1-0.36 0.3-0.76 0.91-0.88c0.61-0.12 1.18 0.07 1.29 0.43z" />
					</g>
					<g >
						<g >
							<g >
								<path fill-rule="evenodd" class="s32" d="m651.3 247.99c0 0.63-0.5 1.14-1.12 1.14c-0.62 0-1.12-0.51-1.12-1.14c0-0.63 0.5-1.14 1.12-1.14c0.62 0 1.12 0.51 1.12 1.14v0z" />
								<path fill-rule="evenodd" class="s33" d="m649.23 248.59c0 0 0.32 0.04 0.46 0.04c0.16 0 0.35-0.02 0.5-0.09c0.13-0.06 0.3-0.2 0.4-0.32c0.08-0.1 0.15-0.27 0.17-0.4c0.03-0.13 0.02-0.3-0.02-0.44c-0.04-0.14-0.21-0.43-0.21-0.43l0.32 0.13l0.25 0.29l0.17 0.25v0.44l-0.11 0.42l-0.17 0.27l-0.4 0.32l-0.38 0.04l-0.36-0.02l-0.41-0.23l-0.21-0.27v0v0z" />
								<path fill-rule="evenodd" class="s1" d="m650.37 247.44c0 0.33-0.28 0.6-0.62 0.6c-0.34 0-0.62-0.27-0.62-0.6c0-0.17 0.14-0.16 0.25-0.27c0.11-0.1 0.3-0.29 0.47-0.29c0.34 0 0.51 0.24 0.51 0.57v0l0.01-0.01z" />
							</g>
							<path class="s30" d="m651.3 247.99c0 0.63-0.5 1.14-1.12 1.14c-0.62 0-1.12-0.51-1.12-1.14c0-0.63 0.5-1.14 1.12-1.14c0.62 0 1.12 0.51 1.12 1.14v0z" />
						</g>
						<g >
							<g >
								<path fill-rule="evenodd" class="s32" d="m652.42 251.4c0 0.63-0.5 1.14-1.12 1.14c-0.62 0-1.12-0.51-1.12-1.14c0-0.63 0.5-1.14 1.12-1.14c0.62 0 1.12 0.51 1.12 1.14v0z" />
								<path fill-rule="evenodd" class="s33" d="m650.35 252c0 0 0.32 0.04 0.46 0.04c0.16 0 0.35-0.02 0.5-0.09c0.13-0.06 0.3-0.2 0.4-0.32c0.08-0.1 0.15-0.27 0.17-0.4c0.03-0.13 0.02-0.3-0.02-0.44c-0.04-0.14-0.21-0.43-0.21-0.43l0.32 0.13l0.25 0.29l0.17 0.25v0.44l-0.11 0.42l-0.17 0.27l-0.4 0.32l-0.38 0.04l-0.36-0.02l-0.41-0.23l-0.21-0.27v0v0z" />
								<path fill-rule="evenodd" class="s1" d="m651.49 250.85c0 0.33-0.28 0.6-0.62 0.6c-0.34 0-0.62-0.27-0.62-0.6c0-0.17 0.14-0.16 0.25-0.27c0.11-0.1 0.3-0.29 0.47-0.29c0.34 0 0.51 0.24 0.51 0.57v0l0.01-0.01z" />
							</g>
							<path class="s30" d="m652.42 251.4c0 0.63-0.5 1.14-1.12 1.14c-0.62 0-1.12-0.51-1.12-1.14c0-0.63 0.5-1.14 1.12-1.14c0.62 0 1.12 0.51 1.12 1.14v0z" />
						</g>
					</g>
					<g >
						<g >
							<g >
								<path fill-rule="evenodd" class="s32" d="m666.2 244.89c0 0.63-0.5 1.14-1.12 1.14c-0.62 0-1.12-0.51-1.12-1.14c0-0.63 0.5-1.14 1.12-1.14c0.62 0 1.12 0.51 1.12 1.14v0z" />
								<path fill-rule="evenodd" class="s33" d="m664.13 245.49c0 0 0.32 0.04 0.46 0.04c0.16 0 0.35-0.02 0.5-0.09c0.13-0.06 0.3-0.2 0.4-0.32c0.08-0.1 0.15-0.27 0.17-0.4c0.03-0.13 0.02-0.3-0.02-0.44c-0.04-0.14-0.21-0.43-0.21-0.43l0.32 0.13l0.25 0.29l0.17 0.25v0.44l-0.11 0.42l-0.17 0.27l-0.4 0.32l-0.38 0.04l-0.36-0.02l-0.41-0.23l-0.21-0.27v0v0z" />
								<path fill-rule="evenodd" class="s1" d="m665.28 244.34c0 0.33-0.28 0.6-0.62 0.6c-0.34 0-0.62-0.27-0.62-0.6c0-0.17 0.14-0.16 0.25-0.27c0.11-0.1 0.3-0.29 0.47-0.29c0.34 0 0.51 0.24 0.51 0.57v0l0.01-0.01z" />
							</g>
							<path class="s30" d="m666.2 244.89c0 0.63-0.5 1.14-1.12 1.14c-0.62 0-1.12-0.51-1.12-1.14c0-0.63 0.5-1.14 1.12-1.14c0.62 0 1.12 0.51 1.12 1.14v0z" />
						</g>
						<g >
							<g >
								<path fill-rule="evenodd" class="s32" d="m666.74 248.44c0 0.63-0.5 1.14-1.12 1.14c-0.62 0-1.12-0.51-1.12-1.14c0-0.63 0.5-1.14 1.12-1.14c0.62 0 1.12 0.51 1.12 1.14v0z" />
								<path fill-rule="evenodd" class="s33" d="m664.66 249.04c0 0 0.32 0.04 0.46 0.04c0.16 0 0.35-0.02 0.5-0.09c0.13-0.06 0.3-0.2 0.4-0.32c0.08-0.1 0.15-0.27 0.17-0.4c0.03-0.13 0.02-0.3-0.02-0.44c-0.04-0.14-0.21-0.43-0.21-0.43l0.32 0.13l0.25 0.29l0.17 0.25v0.44l-0.11 0.42l-0.17 0.27l-0.4 0.32l-0.38 0.04l-0.36-0.02l-0.41-0.23l-0.21-0.27v0h0z" />
								<path fill-rule="evenodd" class="s1" d="m665.81 247.89c0 0.33-0.28 0.6-0.62 0.6c-0.34 0-0.62-0.27-0.62-0.6c0-0.17 0.14-0.16 0.25-0.27c0.11-0.1 0.3-0.29 0.47-0.29c0.34 0 0.51 0.24 0.51 0.57v0l0.01-0.01z" />
							</g>
							<path class="s30" d="m666.74 248.44c0 0.63-0.5 1.14-1.12 1.14c-0.62 0-1.12-0.51-1.12-1.14c0-0.63 0.5-1.14 1.12-1.14c0.62 0 1.12 0.51 1.12 1.14v0z" />
						</g>
					</g>
					<g >
						<g >
							<g >
								<path fill-rule="evenodd" class="s31" d="m694.39 245.72c1.49 0.31 2.39 1.62 2.01 2.93l-0.07 0.25c-0.38 1.32-1.89 2.13-3.38 1.82l-3.58-0.74c-1.49-0.31-2.39-1.62-2.01-2.93l0.07-0.25c0.38-1.32 1.89-2.13 3.38-1.82l3.58 0.74v0z" />
								<path fill-rule="evenodd" class="s46" d="m694.08 246.37c1.15 0.24 1.84 1.24 1.54 2.25c-0.29 1.01-1.45 1.64-2.59 1.4l-3.36-0.69c-1.15-0.24-1.84-1.24-1.54-2.25c0.29-1.01 1.45-1.64 2.59-1.4l3.36 0.69v0z" />
								<path fill-rule="evenodd" class="s47" d="m690.91 246.4c0.66-0.33 1.85-0.26 2.71-0.09c0.52 0.11 1.07 0.29 1.41 0.53c0.51 0.35 0.65 0.96 0.53 1.38c-0.2 0.71-1.21 1.19-2.49 0.93c-0.81-0.17-1.75-0.43-2.27-0.91c-0.3-0.28-0.44-0.77-0.36-1.03c0.07-0.23 0.16-0.65 0.48-0.81h-0.01z" />
							</g>
							<path class="s30" d="m694.08 246.37c1.15 0.24 1.84 1.24 1.54 2.25c-0.29 1.01-1.45 1.64-2.59 1.4l-3.36-0.69c-1.15-0.24-1.84-1.24-1.54-2.25c0.29-1.01 1.45-1.64 2.59-1.4l3.36 0.69v0z" />
							<path fill-rule="evenodd" class="s48" d="m693.58 247c0.61 0.12 1.01 0.52 0.91 0.88c-0.1 0.36-0.68 0.56-1.29 0.43c-0.61-0.12-1.01-0.52-0.91-0.88c0.1-0.36 0.68-0.56 1.29-0.43z" />
						</g>
						<g >
							<g >
								<g >
									<path fill-rule="evenodd" class="s32" d="m698.7 247.99c0-0.63 0.5-1.14 1.12-1.14c0.62 0 1.12 0.51 1.12 1.14c0 0.63-0.5 1.14-1.12 1.14c-0.62 0-1.12-0.51-1.12-1.14v0z" />
									<path fill-rule="evenodd" class="s33" d="m700.77 248.59l-0.21 0.27l-0.41 0.23l-0.36 0.02l-0.38-0.04l-0.4-0.32l-0.17-0.27l-0.11-0.42v-0.44l0.17-0.25l0.25-0.29l0.32-0.13c0 0-0.16 0.29-0.21 0.43c-0.04 0.13-0.04 0.3-0.02 0.44c0.03 0.13 0.09 0.29 0.17 0.4c0.09 0.11 0.26 0.25 0.4 0.32c0.15 0.07 0.34 0.09 0.5 0.09c0.14 0 0.46-0.04 0.46-0.04v0v0z" />
									<path fill-rule="evenodd" class="s1" d="m699.63 247.44c0-0.33 0.17-0.57 0.51-0.57c0.17 0 0.36 0.19 0.47 0.29c0.12 0.11 0.25 0.1 0.25 0.27c0 0.33-0.28 0.6-0.62 0.6c-0.34 0-0.62-0.27-0.62-0.6v0l0.01 0.01z" />
								</g>
								<path class="s30" d="m698.7 247.99c0-0.63 0.5-1.14 1.12-1.14c0.62 0 1.12 0.51 1.12 1.14c0 0.63-0.5 1.14-1.12 1.14c-0.62 0-1.12-0.51-1.12-1.14v0z" />
							</g>
							<g >
								<g >
									<path fill-rule="evenodd" class="s32" d="m697.58 251.4c0-0.63 0.5-1.14 1.12-1.14c0.62 0 1.12 0.51 1.12 1.14c0 0.63-0.5 1.14-1.12 1.14c-0.62 0-1.12-0.51-1.12-1.14v0z" />
									<path fill-rule="evenodd" class="s33" d="m699.65 252l-0.21 0.27l-0.41 0.23l-0.36 0.02l-0.38-0.04l-0.4-0.32l-0.17-0.27l-0.11-0.42v-0.44l0.17-0.25l0.25-0.29l0.32-0.13c0 0-0.16 0.29-0.21 0.43c-0.04 0.13-0.04 0.3-0.02 0.44c0.03 0.13 0.09 0.29 0.17 0.4c0.09 0.11 0.26 0.25 0.4 0.32c0.15 0.07 0.34 0.09 0.5 0.09c0.14 0 0.46-0.04 0.46-0.04v0v0z" />
									<path fill-rule="evenodd" class="s1" d="m698.51 250.85c0-0.33 0.17-0.57 0.51-0.57c0.17 0 0.36 0.19 0.47 0.29c0.12 0.11 0.25 0.1 0.25 0.27c0 0.33-0.28 0.6-0.62 0.6c-0.34 0-0.62-0.27-0.62-0.6v0l0.01 0.01z" />
								</g>
								<path class="s30" d="m697.58 251.4c0-0.63 0.5-1.14 1.12-1.14c0.62 0 1.12 0.51 1.12 1.14c0 0.63-0.5 1.14-1.12 1.14c-0.62 0-1.12-0.51-1.12-1.14v0z" />
							</g>
							<g >
								<g >
									<path fill-rule="evenodd" class="s32" d="m683.8 244.89c0-0.63 0.5-1.14 1.12-1.14c0.62 0 1.12 0.51 1.12 1.14c0 0.63-0.5 1.14-1.12 1.14c-0.62 0-1.12-0.51-1.12-1.14v0z" />
									<path fill-rule="evenodd" class="s33" d="m685.87 245.49l-0.21 0.27l-0.41 0.23l-0.36 0.02l-0.38-0.04l-0.4-0.32l-0.17-0.27l-0.11-0.42v-0.44l0.17-0.25l0.25-0.29l0.32-0.13c0 0-0.16 0.29-0.21 0.43c-0.04 0.13-0.04 0.3-0.02 0.44c0.03 0.13 0.09 0.29 0.17 0.4c0.09 0.11 0.26 0.25 0.4 0.32c0.15 0.07 0.34 0.09 0.5 0.09c0.14 0 0.46-0.04 0.46-0.04v0h0z" />
									<path fill-rule="evenodd" class="s1" d="m684.72 244.34c0-0.33 0.17-0.57 0.51-0.57c0.17 0 0.36 0.19 0.47 0.29c0.12 0.11 0.25 0.1 0.25 0.27c0 0.33-0.28 0.6-0.62 0.6c-0.34 0-0.62-0.27-0.62-0.6v0l0.01 0.01z" />
								</g>
								<path class="s30" d="m683.8 244.89c0-0.63 0.5-1.14 1.12-1.14c0.62 0 1.12 0.51 1.12 1.14c0 0.63-0.5 1.14-1.12 1.14c-0.62 0-1.12-0.51-1.12-1.14v0z" />
							</g>
							<g >
								<g >
									<path fill-rule="evenodd" class="s32" d="m683.26 248.44c0-0.63 0.5-1.14 1.12-1.14c0.62 0 1.12 0.51 1.12 1.14c0 0.63-0.5 1.14-1.12 1.14c-0.62 0-1.12-0.51-1.12-1.14v0z" />
									<path fill-rule="evenodd" class="s33" d="m685.34 249.04l-0.21 0.27l-0.41 0.23l-0.36 0.02l-0.38-0.04l-0.4-0.32l-0.17-0.27l-0.11-0.42v-0.44l0.17-0.25l0.25-0.29l0.32-0.13c0 0-0.16 0.29-0.21 0.43c-0.04 0.13-0.04 0.3-0.02 0.44c0.03 0.13 0.09 0.29 0.17 0.4c0.09 0.11 0.26 0.25 0.4 0.32c0.15 0.07 0.34 0.09 0.5 0.09c0.14 0 0.46-0.04 0.46-0.04v0h0z" />
									<path fill-rule="evenodd" class="s1" d="m684.19 247.89c0-0.33 0.17-0.57 0.51-0.57c0.17 0 0.36 0.19 0.47 0.29c0.12 0.11 0.25 0.1 0.25 0.27c0 0.33-0.28 0.6-0.62 0.6c-0.34 0-0.62-0.27-0.62-0.6v0l0.01 0.01z" />
								</g>
								<path class="s30" d="m683.26 248.44c0-0.63 0.5-1.14 1.12-1.14c0.62 0 1.12 0.51 1.12 1.14c0 0.63-0.5 1.14-1.12 1.14c-0.62 0-1.12-0.51-1.12-1.14v0z" />
							</g>
						</g>
					</g>
					<g >
						<path class="s31" d="m705.92 255.53l-4.79-4.68l6.38-1.69l-0.16 3.54l-1.43 2.83z" />
						<path class="s43" d="m706.14 254.66l-3.47-3.39l4.63-1.22l0.79 2.53l-1.95 2.08z" />
						<path class="s44" d="m706.14 254.66l-3.47-3.39l5.37 1.3l-1.9 2.09z" />
						<g >
							<path class="s45" d="m702.66 251.25l5.43 1.36" />
							<path class="s30" d="m706.14 254.66l-3.47-3.39l4.63-1.22l0.84 2.5l-2 2.12v-0.01z" />
						</g>
					</g>
				</g>
				<g >
					<path class="s30" d="m633.99 223.37c2.01-0.97 4.64-1.33 7.03-1.41c-1.05 2.48-2.09 5.69-1.8 9.05" />
					<path class="s30" d="m640.82 231.67c1.68-1.06 2.99-3.14 3.97-5c0.44 2.22 1.03 4.68 2.01 7.08c-2.38-1.14-4.34-1.37-5.98-0.84" />
					<path class="s30" d="m654.5 233.08c0.11-1.74-1.04-3.07-2.37-2.61c-0.93 0.32-1.01 1.24-0.77 2.56c0.3 1.68-0.74 2.3-1.5 2.57c0.26-0.96 0.57-1.51-0.16-2.63c-0.98-1.5-1.32-3.2-0.19-4.32c1-1 2.37-0.53 3.53 0c-0.97-3.82 0.74-5.62 2.22-7.58c2.26 2.51 2.56 4.42 2.42 7.41c1.13-0.71 2.54-1.6 3.71-0.77c0.99 0.69 1.18 2.26 0.78 3.62c-0.47 1.61-0.73 2.37-0.18 3.61c-0.91-0.29-1.56-0.96-1.62-2.03c-0.09-1.47-0.95-3.04-2.35-2.66c-0.97 0.26-1.34 1.91-1.31 2.96" />
					<path class="s30" d="m673.61 230.19c-2.46 0.38-4.59 2.01-6.56 3.76l-0.07-9.46c1.99 2.26 3.01 3.57 6.64 4.29" />
					<path class="s30" d="m675 220.29c2.12 0.03 3.55 0.11 5.53 0.39c-1.59 2.31-3.76 4.89-4.05 7.75h-1.48h-1.48c-0.29-2.87-2.46-5.44-4.05-7.75c1.98-0.28 3.41-0.37 5.53-0.39v0z" />
					<path class="s30" d="m710.78 231.01c0.29-3.36-0.75-6.57-1.8-9.05c2.4 0.07 5.03 0.43 7.03 1.41" />
					<path class="s30" d="m709.18 232.91c-1.64-0.54-3.61-0.3-5.98 0.84c0.98-2.41 1.58-4.86 2.01-7.08c0.98 1.86 2.29 3.94 3.97 5" />
					<path class="s30" d="m693.29 233.2c0.03-1.05-0.34-2.7-1.31-2.96c-1.41-0.38-2.27 1.19-2.35 2.66c-0.06 1.07-0.71 1.75-1.62 2.03c0.55-1.24 0.29-2-0.18-3.61c-0.39-1.35-0.21-2.92 0.78-3.62c1.17-0.82 2.59 0.06 3.71 0.77c-0.14-3 0.16-4.9 2.42-7.41c1.48 1.96 3.19 3.76 2.22 7.58c1.16-0.53 2.53-1 3.53 0c1.12 1.12 0.78 2.82-0.19 4.32c-0.73 1.12-0.42 1.67-0.16 2.63c-0.76-0.27-1.8-0.88-1.5-2.57c0.24-1.32 0.16-2.24-0.77-2.56c-1.33-0.46-2.47 0.87-2.37 2.61" />
					<path class="s30" d="m676.39 228.79c3.62-0.73 4.64-2.04 6.64-4.29l-0.07 9.46c-1.97-1.76-4.1-3.38-6.56-3.76" />
				</g>
				<g >
					<g >
						<g >
							<path fill-rule="evenodd" class="s32" d="m641.57 232.54c0 1.27-1.01 2.29-2.26 2.29c-1.25 0-2.26-1.03-2.26-2.29c0-1.27 1.01-2.29 2.26-2.29c1.25 0 2.26 1.03 2.26 2.29v0z" />
							<path fill-rule="evenodd" class="s33" d="m637.41 233.76c0 0 0.64 0.09 0.92 0.08c0.33-0.01 0.71-0.05 1-0.19c0.26-0.13 0.61-0.41 0.79-0.64c0.17-0.21 0.3-0.53 0.35-0.79c0.05-0.27 0.05-0.61-0.03-0.87c-0.08-0.27-0.41-0.86-0.41-0.86l0.64 0.25l0.51 0.59l0.35 0.49v0.87l-0.22 0.84l-0.35 0.54l-0.81 0.64l-0.76 0.08l-0.71-0.03l-0.83-0.46l-0.43-0.54v0h-0.01z" />
							<path fill-rule="evenodd" class="s1" d="m639.72 231.44c0 0.66-0.56 1.2-1.24 1.2c-0.68 0-1.24-0.54-1.24-1.2c0-0.34 0.27-0.33 0.51-0.55c0.22-0.21 0.6-0.59 0.94-0.59c0.68 0 1.03 0.47 1.03 1.14v0v0z" />
						</g>
						<path class="s30" d="m641.57 232.54c0 1.27-1.01 2.29-2.26 2.29c-1.25 0-2.26-1.03-2.26-2.29c0-1.27 1.01-2.29 2.26-2.29c1.25 0 2.26 1.03 2.26 2.29v0z" />
					</g>
					<g >
						<g >
							<path fill-rule="evenodd" class="s32" d="m708.43 232.54c0-1.27 1.01-2.29 2.26-2.29c1.25 0 2.26 1.03 2.26 2.29c0 1.27-1.01 2.29-2.26 2.29c-1.25 0-2.26-1.03-2.26-2.29v0z" />
							<path fill-rule="evenodd" class="s33" d="m712.59 233.76l-0.43 0.54l-0.83 0.46l-0.71 0.03l-0.76-0.08l-0.81-0.64l-0.35-0.54l-0.22-0.84v-0.87l0.35-0.49l0.51-0.59l0.64-0.25c0 0-0.33 0.58-0.41 0.86c-0.08 0.26-0.08 0.6-0.03 0.87c0.05 0.26 0.18 0.59 0.35 0.79c0.18 0.23 0.53 0.51 0.79 0.64c0.3 0.14 0.67 0.18 1 0.19c0.28 0.01 0.92-0.08 0.92-0.08v0h-0.01z" />
							<path fill-rule="evenodd" class="s1" d="m710.28 231.44c0-0.66 0.35-1.14 1.03-1.14c0.33 0 0.71 0.38 0.94 0.59c0.24 0.22 0.51 0.21 0.51 0.55c0 0.66-0.56 1.2-1.24 1.2c-0.68 0-1.24-0.54-1.24-1.2v0v0z" />
						</g>
						<path class="s30" d="m708.43 232.54c0-1.27 1.01-2.29 2.26-2.29c1.25 0 2.26 1.03 2.26 2.29c0 1.27-1.01 2.29-2.26 2.29c-1.25 0-2.26-1.03-2.26-2.29v0z" />
					</g>
					<g >
						<g >
							<path fill-rule="evenodd" class="s32" d="m677.26 229.39c0 1.27-1.01 2.29-2.26 2.29c-1.25 0-2.26-1.03-2.26-2.29c0-1.27 1.01-2.29 2.26-2.29c1.25 0 2.26 1.03 2.26 2.29v0z" />
							<path fill-rule="evenodd" class="s33" d="m673.1 230.6c0 0 0.64 0.09 0.92 0.08c0.33-0.01 0.71-0.05 1-0.19c0.26-0.13 0.61-0.41 0.79-0.64c0.17-0.21 0.3-0.53 0.35-0.79c0.05-0.27 0.05-0.61-0.03-0.87c-0.08-0.27-0.41-0.86-0.41-0.86l0.64 0.25l0.51 0.59l0.35 0.49v0.87l-0.22 0.84l-0.35 0.54l-0.81 0.64l-0.76 0.08l-0.71-0.03l-0.83-0.46l-0.43-0.54v0l-0.01 0z" />
							<path fill-rule="evenodd" class="s1" d="m675.4 228.29c0 0.66-0.56 1.2-1.24 1.2c-0.68 0-1.24-0.54-1.24-1.2c0-0.34 0.27-0.33 0.51-0.55c0.22-0.21 0.6-0.59 0.94-0.59c0.68 0 1.03 0.47 1.03 1.14v0v0z" />
						</g>
						<path class="s30" d="m677.26 229.39c0 1.27-1.01 2.29-2.26 2.29c-1.25 0-2.26-1.03-2.26-2.29c0-1.27 1.01-2.29 2.26-2.29c1.25 0 2.26 1.03 2.26 2.29v0z" />
					</g>
				</g>
			</g>
			<g >
				<path class="s14" d="m653.28 232.77l4.96-0.27l0.71 1.08l-0.58 1.15l-4.96 0.27l-0.85-1.07l0.73-1.16l-0.01 0z" />
				<path class="s30" d="m653.28 232.77l4.96-0.27l0.71 1.08l-0.58 1.15l-4.96 0.27l-0.85-1.07l0.73-1.16l-0.01 0z" />
			</g>
			<g >
				<path class="s14" d="m697.45 233.93l-0.85 1.07l-4.96-0.27l-0.58-1.15l0.71-1.08l4.96 0.27l0.73 1.16h-0.01z" />
				<path class="s30" d="m697.45 233.93l-0.85 1.07l-4.96-0.27l-0.58-1.15l0.71-1.08l4.96 0.27l0.73 1.16h-0.01z" />
			</g>
			<path class="s1" d="m705.69 258.92c3.22 1.58 1.13 6.05-2.24 4.45c-7.21-3.43-17.66-6.23-28.45-6.23c-10.79 0-21.24 2.8-28.45 6.23c-3.37 1.6-5.45-2.86-2.24-4.45c7.94-3.91 19.4-6.77 30.69-6.77c11.28 0 22.75 2.86 30.69 6.77z" />
			<path class="s49" d="m707.22 261.8c-0.32 1.4-1.83 2.49-3.77 1.57c-1.49-0.71-3.12-1.39-4.86-2.02c-0.3-0.11-0.61-0.22-0.92-0.32c-0.16-0.05-0.31-0.11-0.47-0.17c-0.38-0.13-0.75-0.26-1.14-0.38c-0.17-0.06-0.35-0.1-0.53-0.16c-0.46-0.14-0.93-0.29-1.41-0.43c-0.52-0.15-1.05-0.29-1.58-0.44c-0.06-0.02-0.12-0.03-0.17-0.05h-0.01c-0.1-0.03-0.2-0.05-0.3-0.08c-0.44-0.11-0.89-0.22-1.34-0.32c-0.07-0.02-0.13-0.03-0.2-0.05c-0.02 0-0.04-0.01-0.06-0.02c-0.57-0.13-1.16-0.26-1.74-0.38c-0.31-0.06-0.62-0.12-0.93-0.18c-0.63-0.12-1.26-0.24-1.9-0.34c-0.29-0.05-0.58-0.09-0.87-0.13c-0.07-0.01-0.13-0.02-0.2-0.03c-0.29-0.04-0.57-0.08-0.86-0.12c-0.33-0.04-0.65-0.09-0.98-0.13c-0.33-0.04-0.65-0.08-0.98-0.11c-0.64-0.07-1.28-0.12-1.92-0.17c-0.09-0.01-0.18-0.02-0.28-0.02c-0.22-0.02-0.45-0.03-0.67-0.05c-0.12-0.01-0.24-0.02-0.36-0.02c-0.25-0.01-0.5-0.03-0.74-0.04c-0.33-0.02-0.67-0.03-1-0.04c-0.31-0.01-0.63-0.02-0.94-0.02c-0.02 0-0.04 0-0.06 0c-0.34-0.01-0.68-0.01-1.01-0.01c-0.68 0-1.35 0.01-2.02 0.03c-0.34 0.01-0.67 0.02-1 0.04c-0.25 0.01-0.5 0.03-0.74 0.04c-0.12 0.01-0.24 0.02-0.36 0.02c-0.22 0.01-0.45 0.03-0.67 0.05c-0.09 0.01-0.18 0.02-0.28 0.02c-0.08 0.01-0.17 0.01-0.25 0.02c-0.23 0.02-0.45 0.04-0.68 0.06c-0.12 0.01-0.25 0.02-0.37 0.03c-0.21 0.02-0.41 0.04-0.62 0.06c-0.33 0.03-0.65 0.07-0.98 0.11c-0.33 0.04-0.66 0.08-0.98 0.13c-0.29 0.04-0.58 0.08-0.86 0.12c-0.07 0.01-0.13 0.02-0.2 0.03c-0.16 0.02-0.33 0.05-0.49 0.07c-0.13 0.02-0.25 0.04-0.38 0.06c-0.64 0.1-1.27 0.22-1.9 0.34c-0.31 0.06-0.62 0.12-0.93 0.18c-0.58 0.12-1.17 0.25-1.74 0.38c-0.02 0-0.04 0.01-0.06 0.02c-0.07 0.02-0.13 0.03-0.2 0.05c-0.45 0.11-0.9 0.21-1.34 0.32c-0.16 0.04-0.32 0.08-0.48 0.13c-0.53 0.14-1.06 0.29-1.58 0.44c-0.48 0.14-0.94 0.28-1.41 0.43c-0.1 0.03-0.2 0.06-0.3 0.09c-0.06 0.02-0.11 0.04-0.17 0.06c-0.02 0.01-0.04 0.01-0.06 0.02c-0.39 0.12-0.76 0.25-1.14 0.38c-0.16 0.05-0.31 0.11-0.47 0.17c-0.31 0.11-0.62 0.21-0.92 0.32c-1.74 0.64-3.38 1.32-4.86 2.02c-1.94 0.93-3.45-0.17-3.77-1.57c3.26-1.88 14.74-7.73 32.22-7.92c17.48 0.19 28.96 6.03 32.22 7.92l-0.03-0.01z" />
			<path class="s50" d="m675 255.78c16.21 0 28.04 5.67 31.33 7.44c-0.69 0.53-1.71 0.71-2.88 0.15c-1.49-0.71-3.12-1.39-4.86-2.02c-0.3-0.11-0.61-0.22-0.92-0.32c-0.16-0.05-0.31-0.11-0.47-0.17c-0.38-0.13-0.75-0.26-1.14-0.38c-0.17-0.06-0.35-0.1-0.53-0.16c-0.46-0.14-0.93-0.29-1.41-0.43c-0.52-0.15-1.05-0.29-1.58-0.44c-0.06-0.02-0.12-0.03-0.17-0.05h-0.01c-0.1-0.03-0.2-0.05-0.3-0.08c-0.44-0.11-0.89-0.22-1.34-0.32c-0.07-0.02-0.13-0.03-0.2-0.05c-0.02 0-0.04-0.01-0.06-0.02c-0.57-0.13-1.16-0.26-1.74-0.38c-0.31-0.06-0.62-0.12-0.93-0.18c-0.63-0.12-1.26-0.24-1.9-0.34c-0.29-0.05-0.58-0.09-0.87-0.13c-0.07-0.01-0.13-0.02-0.2-0.03c-0.29-0.04-0.57-0.08-0.86-0.12c-0.33-0.04-0.65-0.09-0.98-0.13c-0.33-0.04-0.65-0.08-0.98-0.11c-0.64-0.07-1.28-0.12-1.92-0.17c-0.27-0.02-0.54-0.05-0.81-0.06c-0.05 0-0.09 0-0.14-0.01c-0.12-0.01-0.24-0.02-0.36-0.02c-0.25-0.01-0.5-0.03-0.74-0.04c-0.33-0.02-0.67-0.03-1-0.04c-0.31-0.01-0.63-0.02-0.94-0.02c-0.02 0-0.04 0-0.06 0c-0.34-0.01-0.68-0.01-1.01-0.01c-0.68 0-1.35 0.01-2.02 0.03c-0.34 0.01-0.67 0.02-1 0.04c-0.25 0.01-0.5 0.03-0.74 0.04c-0.12 0.01-0.24 0.02-0.36 0.02c-0.22 0.01-0.45 0.03-0.67 0.05c-0.09 0.01-0.18 0.02-0.28 0.02c-0.08 0.01-0.17 0.01-0.25 0.02c-0.23 0.02-0.45 0.04-0.68 0.06c-0.12 0.01-0.25 0.02-0.37 0.03c-0.21 0.02-0.41 0.04-0.62 0.06c-0.33 0.03-0.65 0.07-0.98 0.11c-0.33 0.04-0.66 0.08-0.98 0.13c-0.29 0.04-0.58 0.08-0.86 0.12c-0.07 0.01-0.13 0.02-0.2 0.03c-0.16 0.02-0.33 0.05-0.49 0.07c-0.13 0.02-0.25 0.04-0.38 0.06c-0.64 0.1-1.27 0.22-1.9 0.34c-0.31 0.06-0.62 0.12-0.93 0.18c-0.58 0.12-1.17 0.25-1.74 0.38c-0.02 0-0.04 0.01-0.06 0.02c-0.07 0.02-0.13 0.03-0.2 0.05c-0.45 0.11-0.9 0.21-1.34 0.32c-0.16 0.04-0.32 0.08-0.48 0.13c-0.53 0.14-1.06 0.29-1.58 0.44c-0.48 0.14-0.94 0.28-1.41 0.43c-0.1 0.03-0.2 0.06-0.3 0.09c-0.06 0.02-0.11 0.04-0.17 0.06c-0.02 0.01-0.04 0.01-0.06 0.02c-0.39 0.12-0.76 0.25-1.14 0.38c-0.16 0.05-0.31 0.11-0.47 0.17c-0.31 0.11-0.62 0.21-0.92 0.32c-1.74 0.64-3.38 1.32-4.86 2.02c-1.17 0.56-2.19 0.38-2.88-0.15c3.29-1.76 15.12-7.44 31.33-7.44v0l-0.03-0.01z" />
			<path class="s30" d="m705.69 258.92c3.22 1.58 1.13 6.05-2.24 4.45c-7.21-3.43-17.66-6.23-28.45-6.23c-10.79 0-21.24 2.8-28.45 6.23c-3.37 1.6-5.45-2.86-2.24-4.45c7.94-3.91 19.4-6.77 30.69-6.77c11.28 0 22.75 2.86 30.69 6.77z" />
			<g >
				<path class="s8" d="m678.37 254.72c-1.28 0.21-2.47 0.47-3.58 0.77c-0.88 0.24-1.7 0.5-2.49 0.79c0.2-0.42 0.55-0.84 1.44-1.15c-0.74 0.01-1.74-0.26-2.1-0.41c0.35-0.15 1.32-0.43 2.07-0.42c-0.92-0.31-1.3-0.73-1.55-1.15c0.86 0.31 1.76 0.59 2.72 0.84c1.09 0.28 2.25 0.53 3.49 0.73v0v0z" />
				<path class="s8" d="m665.14 255.34c-1.22 0.45-2.33 0.93-3.36 1.44c-0.82 0.4-1.58 0.82-2.29 1.25c0.12-0.45 0.37-0.93 1.19-1.41c-0.73 0.15-1.76 0.07-2.14 0c0.31-0.21 1.21-0.67 1.95-0.8c-0.96-0.13-1.42-0.47-1.74-0.83c0.9 0.14 1.84 0.24 2.83 0.3c1.12 0.07 2.31 0.09 3.57 0.05v0h-0.01z" />
				<path class="s8" d="m651.8 258.58c-1.11 0.68-2.11 1.36-3.03 2.05c-0.72 0.55-1.39 1.11-2.01 1.67c0.03-0.46 0.19-0.99 0.9-1.61c-0.69 0.29-1.71 0.41-2.1 0.41c0.27-0.27 1.06-0.89 1.76-1.16c-0.97 0.06-1.48-0.19-1.86-0.49c0.91-0.04 1.85-0.12 2.84-0.24c1.12-0.14 2.28-0.35 3.51-0.63v0l-0.01 0z" />
				<path class="s8" d="m704.43 261.1c-1.27-0.29-2.47-0.49-3.6-0.62c-0.9-0.11-1.77-0.17-2.6-0.2c0.34-0.31 0.82-0.58 1.76-0.53c-0.69-0.27-1.52-0.9-1.8-1.17c0.38-0.01 1.38 0.1 2.07 0.39c-0.74-0.63-0.94-1.17-1-1.64c0.68 0.6 1.41 1.2 2.21 1.79c0.9 0.67 1.89 1.33 2.96 1.98v0z" />
				<path class="s8" d="m691.47 256.63c-1.3-0.04-2.51-0.01-3.66 0.07c-0.91 0.07-1.77 0.17-2.59 0.3c0.28-0.37 0.7-0.72 1.63-0.86c-0.73-0.13-1.66-0.59-1.99-0.81c0.37-0.08 1.38-0.17 2.11-0.01c-0.84-0.48-1.14-0.97-1.3-1.42c0.78 0.46 1.62 0.91 2.51 1.34c1.02 0.49 2.11 0.95 3.29 1.38v0v0.01z" />
			</g>
		</g>
	</g>
	<g clip-path="url(#cp1)">
		<g >
			<g >
				<g >
					<path class="s0" d="m0 0h450v300h-450v-300z" />
					<path fill-rule="evenodd" class="s51" d="m450 0l-450 300m0-300l450 300" />
					<path class="s52" d="m225 0v300" />
					<path class="s52" d="m0 150h450" />
					<path class="s53" d="m225 0v300" />
					<path class="s53" d="m0 150h450" />
				</g>
			</g>
		</g>
	</g>
</svg>