<svg version="1.2" xmlns="http://www.w3.org/2000/svg" viewBox="0 0 900 600" width="900" height="600">
	<title></title>
	<style>
		.s0 { fill: #00247d } 
		.s1 { fill: none;stroke: #ffffff;stroke-width: 52 } 
		.s2 { fill: none;stroke: #ffffff;stroke-width: 86.7 } 
		.s3 { fill: none;stroke: #cf142b;stroke-width: 52 } 
		.s4 { fill: #000000 } 
		.s5 { fill: #ffffff } 
		.s6 { fill: #006ec7 } 
		.s7 { fill: #b3b3b3 } 
		.s8 { fill: none;stroke: #000000;stroke-width: .5 } 
		.s9 { fill: #c6c6c6 } 
		.s10 { fill: #e6e6e6 } 
		.s11 { fill: #d0d0d0 } 
		.s12 { fill: #ffffff;stroke: #000000;stroke-width: .5 } 
		.s13 { fill: #f3f3f3 } 
		.s14 { fill: #ffdd55 } 
		.s15 { fill: #e9ca57 } 
		.s16 { fill: #ffe88d } 
		.s17 { fill: #d4b748 } 
	</style>
	<g id="Layer">
		<path id="Layer" class="s0" d="m0 0h450v300h-450z"/>
		<g id="Layer">
			<path id="Layer" class="s1" d="m0 0l450 300m0-300l-450 300"/>
			<path id="Layer" class="s2" d="m225 0v300m-225-150h450"/>
			<path id="Layer" class="s3" d="m225 0v300m-225-150h450"/>
		</g>
		<path id="Layer" class="s0" d="m0 300h900v300h-900zm450-300h450v600h-450z"/>
	</g>
	<g id="Layer">
		<path id="Layer" class="s4" d="m790.6 148.8v0.2 191.9c0 21.3-13.8 42.5-35.1 61.6-21.4 19.1-50.2 36.1-80.4 48.7h-0.1-0.1c-30.2-12.6-59-29.6-80.4-48.7-21.3-19.1-35.1-40.3-35.1-61.6v-192.1z"/>
		<g id="Layer">
			<path id="Layer" class="s5" d="m588.2 198.7q0 0.2 0 0.5c0 21 13.6 33.6 13.6 50.4 0 16.8-13.6 33.6-13.6 50.4 0 16.8 13.6 33.6 13.6 50.4 0 15.6-11.8 27.6-13.4 46.2-5.2-5.2-9.9-10.5-13.9-16q0 0 0 0c4-10.5 9.5-19.5 9.5-30.2 0-16.8-13.6-33.6-13.6-50.4 0-16.8 13.6-33.6 13.6-50.4 0-16.8-13.6-29.4-13.6-50.4q0-0.3 0-0.5z"/>
			<path id="Layer" class="s5" d="m623.8 198.7q0 0.2 0 0.5c0 21 13.5 33.6 13.5 50.4 0 16.8-13.5 33.6-13.5 50.4 0 16.8 13.5 33.6 13.5 50.4 0 16.8-13.5 29.4-13.5 50.4 0 8.3 2.1 17.9 4.7 26.5-7.6-4.6-14.7-9.5-21.3-14.5-0.8-4.1-1.2-8.2-1.2-12 0-21 13.5-33.6 13.5-50.4 0-16.8-13.5-33.6-13.5-50.4 0-16.8 13.5-33.6 13.5-50.4 0-16.8-13.5-29.4-13.5-50.4q0-0.3 0-0.5z"/>
			<path id="Layer" class="s5" d="m659.4 198.7q0 0.2 0 0.5c0 21 13.5 33.6 13.5 50.4 0 16.8-13.5 33.6-13.5 50.4 0 16.8 13.5 33.6 13.5 50.4 0 16.8-13.5 29.4-13.5 50.4 0 18.4 10.3 43.2 12.9 49.1-7.4-3.2-14.8-6.6-21.9-10.3-3.9-10.5-8.8-26.2-8.8-38.8 0-21 13.5-33.6 13.5-50.4 0-16.8-13.5-33.6-13.5-50.4 0-16.8 13.5-33.6 13.5-50.4 0-16.8-13.5-29.4-13.5-50.4q0-0.3 0-0.5z"/>
			<path id="Layer" class="s5" d="m694.9 198.7q0 0.2 0 0.5c0 21 13.5 33.6 13.5 50.4 0 16.8-13.5 33.6-13.5 50.4 0 16.8 13.5 33.6 13.5 50.4 0 16.8-13.5 29.4-13.5 50.4 0 11.9 4.4 26.6 8.2 37q-7.4 3.9-15 7.4c-3.9-9.6-11-29.2-11-44.4 0-21 13.6-33.6 13.6-50.4 0-16.8-13.6-33.6-13.6-50.4 0-16.8 13.6-33.6 13.6-50.4 0-16.8-13.6-29.4-13.6-50.4q0-0.3 0-0.5z"/>
			<path id="Layer" class="s5" d="m730.5 198.7q0 0.2 0 0.5c0 21 13.5 33.6 13.5 50.4 0 16.8-13.5 33.6-13.5 50.4 0 16.8 13.5 33.6 13.5 50.4 0 16.8-13.5 29.4-13.5 50.4 0 5.9 1 12.6 2.6 19q-7.3 5-15.1 9.7c-2.8-9.1-5.3-19.7-5.3-28.7 0-21 13.5-33.6 13.5-50.4 0-16.8-13.5-33.6-13.5-50.4 0-16.8 13.5-33.6 13.5-50.4 0-16.8-13.5-29.4-13.5-50.4q0-0.3 0-0.5z"/>
			<path id="Layer" class="s5" d="m766 198.7q0 0.2 0 0.5c0 21 13.6 33.6 13.6 50.4 0 16.8-13.6 33.6-13.6 50.4 0 16.8 13.6 33.6 13.6 50.4 0 14-9.4 25.1-12.5 40.5-5.4 5.9-11.6 11.7-18.4 17.2-0.3-2.5-0.4-4.9-0.4-7.3 0-21 13.5-33.6 13.5-50.4 0-16.8-13.5-33.6-13.5-50.4 0-16.8 13.5-33.6 13.5-50.4 0-16.8-13.5-29.4-13.5-50.4q0-0.3 0-0.5z"/>
		</g>
	</g>
	<path id="Layer" class="s6" d="m559.4 148.8h231.2v99.8h-231.2z"/>
	<g id="Layer">
		<g id="Layer">
			<path id="Layer" fill-rule="evenodd" class="s7" d="m697.8 228.6c-1.1-0.7-2.9-1.1-3.9-1.8-1-0.7-2.2-0.8-3-1.1-0.8-0.3 0.2-1 0.8-1.2 0.6-0.2 2-0.1 3.2-0.2 1.2-0.1 2.4-0.7 3.6-0.7 1.2 0.1 2.7 0.5 4.5 1 1.9 0.6 1 1.1 1 1.1 0 0-0.9 0.4-2.1 1.1-1.2 0.7-1 0.8-1.6 1.4-0.5 0.7 0 1.2 0 1.8 0 0-1.3-0.6-2.5-1.4zm17.7 3.5c0 0 0.5 0.7 1.5 1.8 0 0 0.6 0.7 1.6 1.2 0 0 1.4 0.2 3 0.4 0 0 3.4 0.6 6.1 0.9 0 0 2.5-0.3 3.5-1 0 0 1.3-0.8 2.5-1.7 0 0 2.3-0.4 2.5-0.4 0 0-1.7-0.5-3.1-0.7 0 0-2.9 0-5.6-0.2 0 0-2.4-0.3-3.7-0.5 0 0-0.9-1-1.2-1.6 0 0 0.2-1.3 0.9-2.3 0 0 0.8-2 1.2-3.1 0 0 0.5-1.7 0.6-2.6 0 0-0.7 0.9-1 1.4 0 0-1.4 1.8-3.1 3.2 0 0-2.1 1.5-3.5 2.2 0 0-2.2 2-2.5 2.2 0 0-0.1 0.2 0.3 0.8z"/>
			<path id="Layer" class="s8" d="m697.8 228.6c-1.1-0.7-2.9-1.1-3.9-1.8-1-0.7-2.2-0.8-3-1.1-0.8-0.3 0.2-1 0.8-1.2 0.6-0.2 2-0.1 3.2-0.2 1.2-0.1 2.4-0.7 3.6-0.7 1.2 0.1 2.7 0.5 4.5 1 1.9 0.6 1 1.1 1 1.1 0 0-0.9 0.4-2.1 1.1-1.2 0.7-1 0.8-1.6 1.4-0.5 0.7 0 1.2 0 1.8 0 0-1.3-0.6-2.5-1.4zm17.4 2.7c0.3-0.2 2.5-2.2 2.5-2.2 1.4-0.7 3.5-2.2 3.5-2.2 1.7-1.4 3.1-3.2 3.1-3.2 0.3-0.5 1-1.4 1-1.4-0.1 0.9-0.6 2.6-0.6 2.6-0.4 1.1-1.2 3.1-1.2 3.1-0.7 1-0.9 2.3-0.9 2.3 0.3 0.6 1.2 1.6 1.2 1.6 1.3 0.2 3.7 0.5 3.7 0.5 2.7 0.2 5.6 0.2 5.6 0.2 1.4 0.2 3.1 0.7 3.1 0.7-0.2 0-2.5 0.4-2.5 0.4-1.2 0.9-2.5 1.7-2.5 1.7-1 0.7-3.5 1-3.5 1-2.7-0.3-6.1-0.9-6.1-0.9-1.6-0.2-3-0.4-3-0.4-1-0.5-1.6-1.2-1.6-1.2-1-1.1-1.5-1.8-1.5-1.8-0.4-0.6-0.3-0.8-0.3-0.8z"/>
			<path id="Layer" class="s9" d="m693.5 225.2c0 0 0.8-0.1 1.5-0.1 0.7 0 2.1-0.2 3.4-0.3 1.3-0.1 1.3-0.1 3.5 0.3 2.1 0.4-0.5 0.4-1.4 1.1-1 0.6-2.2 1.9-2.2 1.9 0 0-1-0.9-1.5-1.8-0.5-0.8-2.2-0.8-3.7-0.8zm26 5.9c0 0 0.6 0.7 2.9 1.2 0 0 3.3 1 6.5 1.5l2.6 0.5c0 0-1.1 0.8-2 0.8 0 0-3.6 0-8.7-0.8 0 0-2-0.9-2.6-1.9 0 0-0.3-0.9-0.2-1.7 0 0 1-0.7 2-1.5 0 0 1.6-1.5 2.7-2.5 0 0-2.8 3.2-3.2 4.4z"/>
			<path id="Layer" class="s10" d="m658.3 223.8c0.2 0 13.1-1.5 13.6-1.5 0.5 0.1 2.2 0.3 3.9 0.6 1.6 0.2 3.7 0.5 5.4 0.8 1.7 0.3 3.3 0.3 5.2 0.7 1.9 0.4 3.2 0.6 3.9 0.8 0.6 0.3 3.2 1.5 4.6 2.1 1.4 0.6 2.1 0.8 3.5 1.7 1.5 0.8 1.5 0.6 2.8 1.3 1.2 0.8 1.2 0.9 3.2 1.8 2 0.8 2.8 0.2 4 0.2 1.3-0.1 2.8-0.6 4.4-0.9 1.5-0.3 1.9 0.1 3.8 0.2 2 0.1 2.2-0.2 3.3-0.3 1.1-0.2 0.7 0.5 0.7 0.5 0 0-0.3 1-0.8 1.9-0.5 0.9-1.6 1.2-1.9 1.4-0.3 0.1-1.8 1.5-2.1 1.8-0.4 0.2-2.8 1.1-3.8 1.3-0.9 0.3-6 1-6.8 1-0.8 0-4.1 0.7-4.9 0.9-0.8 0.2-1.8 1.6-2.1 1.9-0.2 0.4-1.9 0.6-1.9 0.6 0 0-7.9-0.7-8.5-1-0.5-0.3-16.8-1.6-16.8-1.6 0 0-12.2 0.6-13.3 0.7-1.1 0-4.6 0.4-7.8 1.3-3.3 0.9-2.1-0.1-3.3-0.4-1.2-0.3-0.5-0.6-0.5-0.6l-1-1.1c0 0-0.6-0.7-1-1.1-0.5-0.5-0.9-0.6-1.3-1-0.5-0.3-0.8-0.5-1.4-0.8-0.6-0.3-1.2-1.1-1.2-1.1l0.4-1.5c0 0 0.6-0.6 1.2-0.9 0.6-0.3 1-0.7 1.8-1.1 0.9-0.5 1.5-0.7 2.3-1.1 0.7-0.3 0.8-0.4 1.5-0.6 0.8-0.3 0.8-0.7 1.3-1.2 0.4-0.5 0.6-0.7 1.1-1.1 0.5-0.5 1-0.9 2.2-1.7 1.3-0.7 1.5-0.8 2.2-1 0.7-0.2 1.8-1.1 2-1.1 0 0 1.8-0.7 2.1-0.8z"/>
			<path id="Layer" class="s11" d="m643.4 233.8c-0.3 0.4-1.6 0.8-0.7 1.9 0.9 1.2 3.5 2.3 3.8 2.7 0.2 0.3 1 1.1 1.3 1.5 0.4 0.4 1.5 0.5 1.5 0.5 0 0 0.5 0.3 1-0.9 0.5-1.1 0.8-0.7 1.2-1.7 0.3-1.1 0.5-1.3 0.7-2 0.2-0.7 0.8-1.1 0.4-2-0.3-0.9-1.8-1.7-1.8-1.7 0 0 1-0.2 1.7 0.1 0.6 0.4 1.1 0 1.2 1 0.1 1 0.7 0.6 0.3 1.8-0.5 1.2-0.9 1.6-1.1 2.2-0.2 0.7-2.2 1.6-0.1 1.2 2.2-0.5 2-0.4 2.6-1 0.6-0.6 1-1.8 1.3-2.3 0.4-0.5 0.8-1.4 0.7-2.2-0.1-0.8 0.4-0.9-0.7-2.3-1-1.3-0.9-1.2-1.7-1.8-0.9-0.7-1.6-1.4 0-0.7 1.5 0.7 2.1 0.9 2.5 1.8 0.5 0.9 0.9 1.4 0.8 2.3 0 0.9-0.2 1.1-0.7 2.5-0.4 1.5-0.8 2.3-0.2 2.5 0.5 0.3 1.3 0.5 1.4-0.4 0.1-0.9-0.2-2.3 0.6-3.2 0.8-0.9 1.9-0.8 1.3-1.9-0.7-1.1-0.6-1.5-1.7-2.3-1.2-0.8-2.4-1.7-2.4-1.7l4.4 2.2c0 0 4.5 0.4 4.9 0.4 0.5 0 4.8-0.5 6.6-0.2 1.9 0.3 5.8 0.3 7.1 0.5 1.2 0.3 6.5 1.1 7 1.4 0.6 0.2 5.9 1.2 6.4 1.4 0.6 0.2 5 0.6 5.2 1 0.3 0.3 4.8 1 5.8 1.3 1 0.3 4.2 0.3 5 0.3 0.8 0 4.6-1.1 4.6-1.1l3.4-1.4c0 0-1.1 1.2-2.6 1.7-1.5 0.4-1.5 0.4-3 0.8-1.4 0.3-0.9 0.5-3.6 0.5-2.8 0-1.7 0.4-5.6 0.2-4-0.2-6.8-0.1-8.4-0.5-1.6-0.5-1.2-0.8-4.1-1.6-2.8-0.8-4.4-1-7.4-1.4-2.9-0.3-3.9-0.5-5.8-0.8-1.8-0.3-5.4-0.5-6.5-0.5-1 0-2.6 0.5-2.6 0.5v1.3c0 0 4 0.1 5.4 0.3 1.4 0.2 8.4 0.6 9.5 0.9 1 0.4 4.8 1.7 5.4 2 0.6 0.2 7.4 1.1 7.8 1 0.3 0 8.4-0.2 8.9-0.2 0.4 0 2.9 0.5 4.6-0.2 1.7-0.7 3.3-1.4 3.3-1.4l4.8-2.4c0 0-0.5 0.8-1.8 1.5-1.4 0.7-0.5 1-2.7 1.6-2.2 0.6-0.2 0.3-3.8 0.9-3.7 0.5-4.2 0.7-7 0.9-2.9 0.1-1.7 0.2-4.9 0.3-3.2 0.1-5.2-0.2-7.4-0.2-2.2 0-0.2 0-5.9-0.9-5.7-1-4.9-1-7.1-1.6-2.1-0.7-3-0.8-3-0.8l0.7 0.7c0 0-1-0.6-1 0.3-0.1 0.9-0.6 0.6 0.2 1.4 0.8 0.8-1.3 0.9 2.7 1.1 4 0.3 9.5 0.6 12.2 1.2 2.8 0.6 7.4 1.1 7.9 1.1 0.4-0.1 2-1.1 3.4-1.2 1.3-0.1 9.9-1.9 10.7-1.8 0.8 0.1-5.6 1.4-6.2 1.4-0.6 0-2.7 0-3.6 0.4-1 0.4-0.8 0.7-1.6 1.2-0.7 0.6 0.3 0.9-1.7 1.3-1.9 0.4-1 0.3-3.9-0.2-2.8-0.4-8.5-0.8-10.3-1.1-1.8-0.4-6.6-0.6-10.4-0.8-3.7-0.3-4.4-0.1-5.3-0.3-2.7 0-3 0.2-4.8-0.1-0.3 0-3.6 0.7-3.6 0.7-1.8-0.1-5 0.4-6.2 0.5-1.1 0-4.4 1-4.9 1-0.4 0-1-1-1.5-1.3-0.5-0.4-1.3-1.7-2.2-2.3-1-0.7-1.2-0.7-2.3-1.5-1-0.9-1.8-0.8-1.7-1.5 0-0.7 0.5-1.3 0.8-1.8 0.4-0.4 1.5-0.8 2.2-0.9 0.7 0 0.7 0.7 0.7 0.7 0 0 0-0.1-0.4 0.2z"/>
			<path id="Layer" class="s8" d="m658.3 223.8c0.2 0 13.1-1.5 13.6-1.5 0.5 0.1 2.2 0.3 3.9 0.6 1.6 0.2 3.7 0.5 5.4 0.8 1.7 0.3 3.3 0.3 5.2 0.7 1.9 0.4 3.2 0.6 3.9 0.8 0.6 0.3 3.2 1.5 4.6 2.1 1.4 0.6 2.1 0.8 3.5 1.7 1.5 0.8 1.5 0.6 2.8 1.3 1.2 0.8 1.2 0.9 3.2 1.8 2 0.8 2.8 0.2 4 0.2 1.3-0.1 2.8-0.6 4.4-0.9 1.5-0.3 1.9 0.1 3.8 0.2 2 0.1 2.2-0.2 3.3-0.3 1.1-0.2 0.7 0.5 0.7 0.5 0 0-0.3 1-0.8 1.9-0.5 0.9-1.6 1.2-1.9 1.4-0.3 0.1-1.8 1.5-2.1 1.8-0.4 0.2-2.8 1.1-3.8 1.3-0.9 0.3-6 1-6.8 1-0.8 0-4.1 0.7-4.9 0.9-0.8 0.2-1.8 1.6-2.1 1.9-0.2 0.4-1.9 0.6-1.9 0.6 0 0-7.9-0.7-8.5-1-0.5-0.3-16.8-1.6-16.8-1.6 0 0-12.2 0.6-13.3 0.7-1.1 0-4.6 0.4-7.8 1.3-3.3 0.9-2.1-0.1-3.3-0.4-1.2-0.3-0.5-0.6-0.5-0.6l-1-1.1c0 0-0.6-0.7-1-1.1-0.5-0.5-0.9-0.6-1.3-1-0.5-0.3-0.8-0.5-1.4-0.8-0.6-0.3-1.2-1.1-1.2-1.1l0.4-1.5c0 0 0.6-0.6 1.2-0.9 0.6-0.3 1-0.7 1.8-1.1 0.9-0.5 1.5-0.7 2.3-1.1 0.7-0.3 0.8-0.4 1.5-0.6 0.8-0.3 0.8-0.7 1.3-1.2 0.4-0.5 0.6-0.7 1.1-1.1 0.5-0.5 1-0.9 2.2-1.7 1.3-0.7 1.5-0.8 2.2-1 0.7-0.2 1.8-1.1 2-1.1 0 0 1.8-0.7 2.1-0.8z"/>
			<path id="Layer" class="s7" d="m641.1 236c0.5 0.3 0.9 0.5 1.7 1 0.9 0.4 0.5 0.4 1.3 1.1 0.9 0.7 1 0.9 1.6 1.4 0.6 0.4 0.1 0.9-0.1 1.4-0.2 0.6-0.5 0.2-1.3-0.2-0.9-0.3-0.9-0.6-1.2-0.8-0.3-0.2-0.6-1-1.1-1.4-0.4-0.4-1-0.1-1.5-0.1-0.6 0-1.3-0.1-2.1-0.1-0.8 0-0.8-0.7-1-1.1-0.2-0.3 0-0.7 0-1.1 0-0.4 0.2-0.7 0.9-0.9 0.7-0.2 1.4 0.1 2 0.3 0 0 0.4 0.2 0.8 0.5z"/>
			<path id="Layer" class="s8" d="m641.1 236c0.5 0.3 0.9 0.5 1.7 1 0.9 0.4 0.5 0.4 1.3 1.1 0.9 0.7 1 0.9 1.6 1.4 0.6 0.4 0.1 0.9-0.1 1.4-0.2 0.6-0.5 0.2-1.3-0.2-0.9-0.3-0.9-0.6-1.2-0.8-0.3-0.2-0.6-1-1.1-1.4-0.4-0.4-1-0.1-1.5-0.1-0.6 0-1.3-0.1-2.1-0.1-0.8 0-0.8-0.7-1-1.1-0.2-0.3 0-0.7 0-1.1 0-0.4 0.2-0.7 0.9-0.9 0.7-0.2 1.4 0.1 2 0.3 0 0 0.4 0.2 0.8 0.5z"/>
			<path id="Layer" class="s7" d="m646.6 240.9c0 0 0 0.5 0 0.9-0.1 0.4-0.2 0.2-0.8 0.2-0.7 0.1-0.8 0-1.6 0-0.8 0-0.6 0-2.1 0.4-1.5 0.3-0.8 0.4-1.3 0.6-0.5 0.2-0.7-0.2-0.5-0.8 0.1-0.6 0.3-0.7 0.8-1.7 0.5-0.9 0.3-0.2 0.7-0.5 0.4-0.3 0.5-0.2 1.2-0.3 0.8-0.2 0.4 0 1.1 0.1 0.7 0.1 1.1 0.3 2.2 0.8z"/>
			<g id="Layer">
				<path id="Layer" class="s8" d="m646.6 240.9c0 0 0 0.5 0 0.9-0.1 0.4-0.2 0.2-0.8 0.2-0.7 0.1-0.8 0-1.6 0-0.8 0-0.6 0-2.1 0.4-1.5 0.3-0.8 0.4-1.3 0.6-0.5 0.2-0.7-0.2-0.5-0.8 0.1-0.6 0.3-0.7 0.8-1.7 0.5-0.9 0.3-0.2 0.7-0.5 0.4-0.3 0.5-0.2 1.2-0.3 0.8-0.2 0.4 0 1.1 0.1 0.7 0.1 1.1 0.3 2.2 0.8z"/>
				<path id="Layer" class="s12" d="m646.2 236.3c-0.5-0.2-0.7-0.4-1.1-0.8-0.4-0.4-0.8-0.8-0.5-1.3 0.3-0.5 0.3-1 1-1.3 0.6-0.3 1-0.6 1.7-0.6 0.7 0.1 0.1-0.3 1.4 0.3 1.2 0.6 1.6 0.5 1.6 1 0.1 0.4 0.3 0.9-0.4 1.3-0.6 0.5-1 0.6-1.5 0.9-0.4 0.3-0.6 0.5-1 0.5-0.5 0.1-1.2 0-1.2 0z"/>
				<path id="Layer" class="s4" d="m646.9 235.4c-0.4-0.1-1.1-0.1-1-0.6 0.2-0.5 0.5-0.5 0.6-0.8 0.1-0.2 0.3-0.1 0.1-0.5-0.3-0.4-1.2-0.1-0.5-0.7 0.7-0.5 1.7-0.4 1.7-0.4l-0.6 1c0 0 0.4 0.2 0.4 0.4 0 0.3 0.3 0.4 0 0.7-0.2 0.3-0.7 0.9-0.7 0.9z"/>
				<path id="Layer" class="s8" d="m651 232.1c0 0 0.8 0.5 1.2 0.9 0.5 0.5 0.3 0.6 0.4 1.6 0.2 1 0 0.6-0.2 1.4-0.2 0.8-0.4 0.9-0.5 1.4-0.1 0.6-0.7 0.6-0.7 0.6m2.5-10c0 0 1.2 0.6 1.9 1.3 0 0 0.6 0.5 1.2 1.2 0 0 0.3 0.6 0.6 1.6 0 0 0.2 1.3 0 2.2 0 0-0.7 1.6-0.9 2.3 0 0-1.3 1.4-1.6 1.6m1.9-10.5c0 0 1.2 0.5 1.7 1 0 0 0.7 0.8 1.5 1.4 0 0 0.8 0.8 0.9 1.4 0 0-0.6 0.9-1.2 1.7 0 0-0.4 0.7-0.7 2.4 0 0-0.4 1.3-0.5 2m62.2-6.3c-0.3 0-2.2 1.1-2.2 1.1-1 0.6-2.2 1-2.2 1-1.7 0.8-3.6 1.5-3.6 1.5-1.5 0.4-3.5 0.7-3.5 0.7-1.6 0.1-4.4 0.2-4.4 0.2-2-0.2-4.7-0.7-4.7-0.7-2.7-0.7-5-1.1-5-1.1-2.3-0.5-4.5-1-4.5-1-2.2-0.5-4.7-1.1-4.7-1.1-3-0.7-6.3-0.9-6.3-0.9-2.6-0.2-4.6-0.5-4.6-0.5-2.2-0.2-3.7-0.2-3.7-0.2-2.5-0.2-3.6-0.2-3.6-0.2-1.7 0-2.9 0.2-2.9 0.2-1.5 0.2-2.1 0.2-2.1 0.2-0.2 0-1.2 0-1.2 0m53.9 3.3c0 0-0.5 0.3-1 0.6 0 0-1.1 1.1-2 1.4 0 0-1 0.6-1.4 0.7 0 0-1.3 0.4-1.9 0.7 0 0-2.7 0.4-3.4 0.4 0 0-2.3 0-3.1 0-0.2 0-3.4 0.2-3.4 0.2h-6.3c-2-0.1-4.7-0.7-4.7-0.7-1.9-0.8-4.4-1.6-4.4-1.6-1.7-0.4-4.3-0.8-4.3-0.8-1.4-0.2-3.3-0.3-3.3-0.3-1.4-0.1-2.5-0.2-2.5-0.2-1.2-0.2-3.1-0.2-3.1-0.2-0.2 0-3-0.1-3-0.1"/>
			</g>
			<path id="Layer" class="s7" d="m667 235.7c0 0 0 0.3 1.3-0.2 1.2-0.6 1.5-0.6 2.3-0.9 0.8-0.4 2.3-0.6 2.3-0.6 0 0-1.1 0.7-1.3 1.1-0.2 0.3-0.4 0.5-0.2 0.8 0.2 0.2 0.9 0.8 0.9 0.8 0 0-1.2 0.3-1.1 0.7 0 0.4 0.2 0.8 0.5 1 0.4 0.3 1.1 1.5 1.1 1.5 0 0-0.5 0.6-1.8 0.4-1.4-0.1-1.7 0.1-2.7-0.2-1.1-0.4-1 0.2-1.5-0.8-0.4-1-0.8-0.4-0.4-1.4 0.3-1 0.6-2 0.6-2z"/>
			<g id="Layer">
				<path id="Layer" class="s8" d="m667 235.7c0 0 0 0.3 1.3-0.2 1.2-0.6 1.5-0.6 2.3-0.9 0.8-0.4 2.3-0.6 2.3-0.6 0 0-1.1 0.7-1.3 1.1-0.2 0.3-0.4 0.5-0.2 0.8 0.2 0.2 0.9 0.8 0.9 0.8 0 0-1.2 0.3-1.1 0.7 0 0.4 0.2 0.8 0.5 1 0.4 0.3 1.1 1.5 1.1 1.5 0 0-0.5 0.6-1.8 0.4-1.4-0.1-1.7 0.1-2.7-0.2-1.1-0.4-1 0.2-1.5-0.8-0.4-1-0.8-0.4-0.4-1.4 0.3-1 0.6-2 0.6-2z"/>
				<path id="Layer" class="s13" d="m674.9 224.1c1.9 0.3 1.6 0.2 4.3 1.1 2.8 0.9 1.6 0.6 4.2 1.4 2.6 0.8 2.1 0.6 3.9 1.4 1.9 0.8 2.2 1.8 2.2 1.8 0 0-1.4 0-4.5-0.2-3-0.1-2.7-0.6-5.4-1.2-2.7-0.6-3.1-0.2-5.3 0-2.1 0.2-4.4-0.4-6.6-0.4h-4.1c-0.8 0-0.5-1-1.1-1.4-0.5-0.3-1.1-1.1-0.8-1.2 0.4-0.1 2.3-0.8 4.3-1.3 2.1-0.4 3.2-0.7 5.1-0.5 0 0 2 0.2 3.8 0.5zm26.3 7.9c0 0 2.1 1.1 3 1.7 0 0-0.3 0.1-2.3 0.1 0 0-2.3-0.3-4.3-1.1 0 0-2.2-0.6-3.7-1.8 0 0 0-1 1.2-1.2 0 0 2.5 0.6 4.1 1.2 0 0 1.2 0.7 2 1.1zm-47.7-2l1.6 2.4c0 0-1.2-1.1-3.3-2 0 0-1.8-0.8-1.8-1.2 0 0 0.8-0.9 2.3-0.9 0 0 0.8 1.1 1.2 1.7z"/>
				<path id="Layer" class="s9" d="m639.9 236.6c0.4 0.2 1 0.4 1.8 0.6 0.8 0.3-0.4 0.6-1.3 0.2-0.9-0.3-1.1 0-2.1-0.2-1.1-0.1 0.3-1 0.3-1 0 0 0.8 0.2 1.3 0.4zm4.6 4.4c0 0-1.1 0.2-2.3 0.7 0 0-1.1-0.2-0.9-0.6 0 0 0.4-0.5 1.4-0.7 0 0 1.5 0.2 1.8 0.6zm25.5-3.1l0.5 1.8c0 0-1.3-0.1-2.7-0.6 0 0-1-1.2-0.6-1.9 0 0 0.9-0.6 2.7-1.5 0 0 0.1 1 0.1 2.2z"/>
			</g>
		</g>
		<g id="Layer">
			<path id="Layer" class="s14" d="m620.5 169.9c5.2 1.3 13.8 4.9 19.6 6.8 5.8 1.9 17.8 6.4 19.9 7.5 2 1 5.2 2.5 9.2 5.4 4.1 3 0.7 3.1 0.6 5.2-0.1 2-0.8 0.8-1.9 0.7-1-0.2-2-0.4-2 0.2 0 0.6-0.6 2-2.5 1.2-1.9-0.8-1.5-2-2.6-2.6-1.1-0.6 0 1.3-0.1 2.1-0.1 0.8-1.8 0.5-2.4 0.1-0.6-0.3-1.2-2.8-1.2-2.8 0 0-1.4 1.5-2.1 1.5-0.7 0-2.3-1.8-2.3-1.8 0 0-1.2 1.4-2.8 1.9-1.7 0.6-0.8-0.7-0.9-1.5-0.1-0.8-1.5-0.5-1.5-0.5 0 0-2 0.7-2.9 0.7-0.8 0-1.2-1.9-1.4-2.5-0.2-0.6-1.1 1-2.3 1.7-1.2 0.7-0.7-0.2-1.3-1.5-0.6-1.3-0.3-0.9-0.6-0.3-0.2 0.6-2 1.4-3.3 1.4-1.3 0-1.1-2.6-1.1-2.6 0 0-1.2 0.4-2.5 0.2-1.3-0.3-1.3-1.4-1.3-1.4 0 0-1.9 1-3.7 0.4-1.7-0.6-0.6-2.4-0.6-2.4 0 0-2.8 1-4 0.4-1.2-0.6-0.1-1 0.5-3.4 0.6-2.3-1.2 0.9-2.9 2-1.6 1-3.1 0.8-2.9 0.2 0.1-0.6 0.8-3 0.8-3 0 0-1.9 1.1-4.3 1.4-2.4 0.4-4.4 0.4-4.4 0.4 0 0 2.3-3.1 2.9-3.9 0.6-0.9-1.3 0.3-4.3 0.8-3 0.5-4.5 1.1-6.7 1.4-2.1 0.4-6.4-0.6-6.4-0.6 0 0 1.8-0.9 4.4-2.1 2.6-1.2-0.6-0.2-2 0.1-1.5 0.4-3.6 0-6.7-0.5-3.1-0.4-4.6 0-7.4-0.1-2.7-0.1-4.4-2.8-4.4-2.8 0 0 2.2-0.4 6-0.7 3.8-0.4 1.7-0.9 3.1-1.6 1.4-0.7-1-0.2-2.5-0.7-1.6-0.5-4.1-0.5-8.1-0.8-4-0.4-2.5-0.5-4.4-1.2-1.9-0.7-5.6-3.4-6.2-4.4-0.6-1.1 4.4 0.7 6.9 0.5 2.5-0.3 3.9 0.3 5.6 0.5 1.7 0.3-0.9-0.3-2.5-1.3-1.5-0.9-3.2-2.5-4.3-4.8-1-2.4 1.9 0.2 5.4 0.8 3.4 0.6 3.5 1.2 5.8 1.4 2.3 0.3 2.1-0.8 2.1-0.8 0 0-1.7-2-3-4.9-1.4-2.8 0.1-0.1 1.1 0.1 1.1 0.3 2.7 1.1 5.4 1.7 2.7 0.6 3.1 1.2 5.5 2.4 2.3 1.2 2.5 0.1 5.2 0 2.7-0.1 3.4-0.3 4.3-0.3 0 0 11.2 5.4 16.4 6.7z"/>
			<path id="Layer" class="s8" d="m620.5 169.9c5.2 1.3 13.8 4.9 19.6 6.8 5.8 1.9 17.8 6.4 19.9 7.5 2 1 5.2 2.5 9.2 5.4 4.1 3 0.7 3.1 0.6 5.2-0.1 2-0.8 0.8-1.9 0.7-1-0.2-2-0.4-2 0.2 0 0.6-0.6 2-2.5 1.2-1.9-0.8-1.5-2-2.6-2.6-1.1-0.6 0 1.3-0.1 2.1-0.1 0.8-1.8 0.5-2.4 0.1-0.6-0.3-1.2-2.8-1.2-2.8 0 0-1.4 1.5-2.1 1.5-0.7 0-2.3-1.8-2.3-1.8 0 0-1.2 1.4-2.8 1.9-1.7 0.6-0.8-0.7-0.9-1.5-0.1-0.8-1.5-0.5-1.5-0.5 0 0-2 0.7-2.9 0.7-0.8 0-1.2-1.9-1.4-2.5-0.2-0.6-1.1 1-2.3 1.7-1.2 0.7-0.7-0.2-1.3-1.5-0.6-1.3-0.3-0.9-0.6-0.3-0.2 0.6-2 1.4-3.3 1.4-1.3 0-1.1-2.6-1.1-2.6 0 0-1.2 0.4-2.5 0.2-1.3-0.3-1.3-1.4-1.3-1.4 0 0-1.9 1-3.7 0.4-1.7-0.6-0.6-2.4-0.6-2.4 0 0-2.8 1-4 0.4-1.2-0.6-0.1-1 0.5-3.4 0.6-2.3-1.2 0.9-2.9 2-1.6 1-3.1 0.8-2.9 0.2 0.1-0.6 0.8-3 0.8-3 0 0-1.9 1.1-4.3 1.4-2.4 0.4-4.4 0.4-4.4 0.4 0 0 2.3-3.1 2.9-3.9 0.6-0.9-1.3 0.3-4.3 0.8-3 0.5-4.5 1.1-6.7 1.4-2.1 0.4-6.4-0.6-6.4-0.6 0 0 1.8-0.9 4.4-2.1 2.6-1.2-0.6-0.2-2 0.1-1.5 0.4-3.6 0-6.7-0.5-3.1-0.4-4.6 0-7.4-0.1-2.7-0.1-4.4-2.8-4.4-2.8 0 0 2.2-0.4 6-0.7 3.8-0.4 1.7-0.9 3.1-1.6 1.4-0.7-1-0.2-2.5-0.7-1.6-0.5-4.1-0.5-8.1-0.8-4-0.4-2.5-0.5-4.4-1.2-1.9-0.7-5.6-3.4-6.2-4.4-0.6-1.1 4.4 0.7 6.9 0.5 2.5-0.3 3.9 0.3 5.6 0.5 1.7 0.3-0.9-0.3-2.5-1.3-1.5-0.9-3.2-2.5-4.3-4.8-1-2.4 1.9 0.2 5.4 0.8 3.4 0.6 3.5 1.2 5.8 1.4 2.3 0.3 2.1-0.8 2.1-0.8 0 0-1.7-2-3-4.9-1.4-2.8 0.1-0.1 1.1 0.1 1.1 0.3 2.7 1.1 5.4 1.7 2.7 0.6 3.1 1.2 5.5 2.4 2.3 1.2 2.5 0.1 5.2 0 2.7-0.1 3.4-0.3 4.3-0.3 0 0 11.2 5.4 16.4 6.7z"/>
			<path id="Layer" class="s14" d="m626.7 167c3.5 1.2 12.7 4.7 16.9 5.3 4.1 0.6 8.4 1.9 14.5 5 6 3.1 2.7 3.3 4.1 5.6 1.4 2.2 0 2.7-0.8 4.7-0.8 2-2 1.6-3.3-0.1-1.4-1.7-0.2 0.2-2.1 0.8-1.9 0.6-0.8-0.2-0.9-2-0.1-1.8-1 0.5-2.2 0.4-1.1-0.2-0.8-1.7-0.8-1.7 0 0-3.2 0.4-3.7 0.1-0.5-0.2-0.3-2.5-0.3-2.5 0 0-3 0.7-4.7 0.6-1.6-0.1-2-1.2-2.5-1.2-0.4 0-1.7 0.7-5.1 0.5-3.3-0.2-0.8-1.5-1.3-1.5h-3c-2.2 0-2.5-1.6-2.6-2.2-0.1-0.6-1.4 0-2.9-0.5-1.6-0.4-0.9-1.3-0.6-2.3 0.2-1.1-1.5 0-3.8 0.1-2.4 0.1-0.6-1.2-0.6-1.2 0 0-2.8-0.4-5.7-0.8-3-0.5-1.2-1.2-1.1-2.1 0.1-0.8-2.4 0-4.9-0.4-2.5-0.5-0.6-1.3-0.6-1.8 0-0.5-1.7-0.5-3.6-1.4-1.9-1 0.3-1.5 1-1.9 0.7-0.5 0.4-0.8-2-1.7-2.4-1-2-1-4.1-2.4-2-1.4-1.5-2.1-1.9-3.7-0.3-1.5 0.1 0 1.5 0.6 1.3 0.6 2.1 1.3 4.2 2.8 2.2 1.4 2.7 1.1 4.4 1.9 1.8 0.7 6 0.9 9.5 1.3 0 0 5.4 0.6 9 1.7z"/>
			<path id="Layer" class="s15" d="m601.8 163.7l-1.7-1c0 0-0.5-1.3-1-1.5-0.5-0.3-1-3.1-1-3.1 0 0 2.4 2 3.5 2.5 1.1 0.5 3.2 2.1 3.8 2.4 0.6 0.4 2.6 2.5 3.1 3.5 0.5 0.9 0.6 0.8 1.8 1.9 1.2 1.1 2.8 0.6 4.4 1 1.6 0.4 0.9 0.9 2.6 2.4 1.8 1.4 1.8 0.9 4.6 2 2.8 1.2 2.6 0.9 4 0.8 1.5-0.1 0.8 0 1.9 1.1 1.1 1.1 1.8 1.3 3.9 2.9 2.1 1.7 1.6 0.7 4 0.5 2.3-0.1 1.9-0.1 1.9-0.1l2.9 1.7c0 0 2.7 0.3 5.4 0.8 2.7 0.5 2-0.4 2.7 0.1 0.7 0.5 1.7 1.9 2.7 2.5 1 0.6 2.8 1.7 3.7 1.9 0.9 0.3 0.1 0.2 0.1 1.1 0 1 0.3 1.2 1.3 1.2 0.9 0 1.2-1.8 1.2-1.8 0 0 0.4 0.6 1.5 1.6 1.1 1 1.1 0.4 1.9 0.4 0.9 0 1.9-1.7 1.9-1.7 0 0 0.5 0.7 1 1.1 0.5 0.4-0.6 1.5-1.3 2.1-0.6 0.6-0.9 0.3-1.6 0.3-0.6 0-1.2-0.2-1.7-0.3-0.5-0.1-1.3 0.2-2.2 0.7-0.9 0.5-1.2-0.1-2-0.8-0.7-0.8-1.1-1-1.1-1h-1.1l-2.5-1c0 0-0.9-1.6-1.4-2-0.5-0.4-3.4-0.1-3.8-0.2-0.5-0.2-0.9-0.9-0.9-0.9 0 0-0.4-0.1-1.1 0-0.8 0.1-2.8 0.7-3.5 1.1-0.6 0.4-2.2-0.8-2.5-1.3-0.4-0.5-3.4 0-3.4 0 0 0-0.5-0.9-1-1-0.4-0.1-2.9 0.2-2.9 0.2 0 0-1.2-1.8-1.9-2.4-0.6-0.7-2.1-0.4-2.1-0.4h-1.8c0 0 0-1.2-0.1-1.7-0.1-0.5-2.4 0.5-2.4 0.5l-0.1-1c0 0-1-0.8-2-1.4-0.9-0.6-1.8 0.5-1.8 0.5 0 0-0.1-0.9-1.7-1.5-1.6-0.6-5.6 0-5.6 0 0 0-0.9-1.6-2.1-2.7-1.1-1.1-2.7-1.2-4.3-1.6-1.6-0.3-4.4 0-4.4 0 0 0 0.6-3.1 0.6-4.4 0-1.4-0.6-1.6-1.2-2.7-0.6-1.1-1.9-0.9-1.9-0.9z"/>
			<path id="Layer" class="s8" d="m626.7 167c3.5 1.2 12.7 4.7 16.9 5.3 4.1 0.6 8.4 1.9 14.5 5 6 3.1 2.7 3.3 4.1 5.6 1.4 2.2 0 2.7-0.8 4.7-0.8 2-2 1.6-3.3-0.1-1.4-1.7-0.2 0.2-2.1 0.8-1.9 0.6-0.8-0.2-0.9-2-0.1-1.8-1 0.5-2.2 0.4-1.1-0.2-0.8-1.7-0.8-1.7 0 0-3.2 0.4-3.7 0.1-0.5-0.2-0.3-2.5-0.3-2.5 0 0-3 0.7-4.7 0.6-1.6-0.1-2-1.2-2.5-1.2-0.4 0-1.7 0.7-5.1 0.5-3.3-0.2-0.8-1.5-1.3-1.5h-3c-2.2 0-2.5-1.6-2.6-2.2-0.1-0.6-1.4 0-2.9-0.5-1.6-0.4-0.9-1.3-0.6-2.3 0.2-1.1-1.5 0-3.8 0.1-2.4 0.1-0.6-1.2-0.6-1.2 0 0-2.8-0.4-5.7-0.8-3-0.5-1.2-1.2-1.1-2.1 0.1-0.8-2.4 0-4.9-0.4-2.5-0.5-0.6-1.3-0.6-1.8 0-0.5-1.7-0.5-3.6-1.4-1.9-1 0.3-1.5 1-1.9 0.7-0.5 0.4-0.8-2-1.7-2.4-1-2-1-4.1-2.4-2-1.4-1.5-2.1-1.9-3.7-0.3-1.5 0.1 0 1.5 0.6 1.3 0.6 2.1 1.3 4.2 2.8 2.2 1.4 2.7 1.1 4.4 1.9 1.8 0.7 6 0.9 9.5 1.3 0 0 5.4 0.6 9 1.7z"/>
			<path id="Layer" class="s14" d="m658.4 176.7c-0.1 1.2-0.3 1.5-0.7 2.6-0.4 1.1-1 0.9-2.3 0.7-1.3-0.2-0.3-0.2-1.3-0.2-0.9 0-1-0.3-0.4-1.6 0.6-1.3-1 0.1-2.7-0.1-1.6-0.2-0.3-0.6 0.5-1.9 0.8-1.3-0.7 0-2.2 0.1-1.6 0.1-1.7-0.1-3.4-0.6-1.6-0.4-1.5-1.3-1.5-1.3 0 0-1.4-0.3-2.3-0.3-0.8 0-1.8 0.4-3.2 0.6-1.4 0.1-2.1-1.2-3-1.2-0.8 0-2.1-0.3-3.9-1-1.8-0.7-0.8-1.2-0.8-1.2 0 0-4.1 0-5.4-0.1-1.3-0.1-2.2-1.5-2.3-2.1-0.2-0.6 1.6-1.2 1.6-1.2 0 0-2.4 0-4-0.3-1.7-0.2-1.9-1.1-3-2.3-1.1-1.2-1.1-1.7-1.3-2.9-0.2-1.2 0.4-0.7 0.4-0.7 0 0 1.1 1.1 2.9 2 1.8 1 1.5 0.7 2.8 1.3 1.3 0.6 2.9 0.9 4.2 1.2 1.3 0.4 2.4 0.6 3.6 0.7 1.2 0.1 4.6 1.3 6.4 1.9 1.8 0.6 1.7 0.4 3.5 0.6 1.8 0.3 3.4 1 5.6 1.1 2.1 0.1 2.7 0.1 6 0.6 3.4 0.5 1.9 0.5 4.2 0.8 2.3 0.4 1.8 1.7 1.8 1.7 0 0 0.3 1.9 0.2 3.1z"/>
			<g id="Layer">
				<path id="Layer" class="s15" d="m662 186.7c-0.6 0.7-0.5 2-1.1 1.1-0.5-0.9-2.5-3-2.5-3 0 0-0.4-0.7-1.7-1.2-1.3-0.4-2.9-1.3-2.9-1.3 0 0-1.8-2.3-2.5-2.6-0.8-0.3-3.4-0.9-5.1-1.1-1.6-0.2-2.6-0.2-2.6-0.2 0 0-2.1-1.8-3.1-1.9-1-0.1-2.7 0.5-2.7 0.5 0 0-2.6-1.4-3.6-1.6-1.1-0.1-1.4-0.3-2.5-0.3-1 0-2.4-0.8-3-1.1-0.7-0.4-1.5-0.5-3-1.2-1.5-0.6-2.2-0.7-3.1-1.2-0.8-0.4-1.6-0.6-3-1.5-1.4-1-2.4-1.9-2.8-2.9-0.4-1 1.3-1.4 1.3-1.4l0.3-0.8c0 0-1.1-0.5-1.2-1.4-0.2-0.8-0.8-1.9-0.4-1.7 0.4 0.2 1.1 1.1 2 2.1 1 1 1.2 1.3 2.4 1.8 1.1 0.4 2.9 1.1 3.7 1.2 0.7 0.1 1.6 0.3 1.6 0.8 0 0.6-0.7 1 0.1 1.4 0.9 0.4 1.2 0.5 3.3 0.8 2.1 0.2 3.8 0.2 3.8 0.2 0 0-0.4 1.2 0.9 1.6 1.3 0.4 3.2 1.2 3.8 1.2 0.7 0 1.5 0 3.1 0.1 1.6 0.1 3.8 0.3 3.8 0.3 0 0-0.1 1.8 2.1 1.7 2.1-0.1 2.3-0.1 3.7-0.3 1.4-0.2 1.7-1.1 1.7-0.2 0 0.9 0.3 2 1 2.1 0.6 0 2.4 0.6 2.4 1 0 0.3 1.4 3.8 2 4.3 0.7 0.4 4.2 5 4.2 5h-0.9z"/>
				<path id="Layer" class="s16" d="m656.6 176.2c0 0-0.6 0.9-1.3 0.3-0.8-0.7 0.3-3.4-2.3-3.2-2.6 0.2-3.3 1.2-3.9 0.8-0.5-0.5-0.5-1.3-2.3-1.2-1.8 0.1-1.5-1-3.9-1.3-2.4-0.2-3.2-0.3-4.7-0.5-1.6-0.2-1-0.1-3.9-1-3-0.8-3.8-0.5-4.8-1-1-0.4-1.3-0.7-2-1.5-0.8-0.7-3.8-1.9-1.7-1.6 2.1 0.2 5.9 1.4 6.4 1.5 0.5 0 6.6 1.8 6.6 1.8 0 0 1.4 0 2.3 0.3 1 0.3 4.4 0.8 4.8 0.9 0.3 0.1 7 0.7 7.7 0.9 0.6 0.1 4 0.7 4 0.7l-0.9 4.6z"/>
				<path id="Layer" class="s8" d="m658.4 176.7c-0.1 1.2-0.3 1.5-0.7 2.6-0.4 1.1-1 0.9-2.3 0.7-1.3-0.2-0.3-0.2-1.3-0.2-0.9 0-1-0.3-0.4-1.6 0.6-1.3-1 0.1-2.7-0.1-1.6-0.2-0.3-0.6 0.5-1.9 0.8-1.3-0.7 0-2.2 0.1-1.6 0.1-1.7-0.1-3.4-0.6-1.6-0.4-1.5-1.3-1.5-1.3 0 0-1.4-0.3-2.3-0.3-0.8 0-1.8 0.4-3.2 0.6-1.4 0.1-2.1-1.2-3-1.2-0.8 0-2.1-0.3-3.9-1-1.8-0.7-0.8-1.2-0.8-1.2 0 0-4.1 0-5.4-0.1-1.3-0.1-2.2-1.5-2.3-2.1-0.2-0.6 1.6-1.2 1.6-1.2 0 0-2.4 0-4-0.3-1.7-0.2-1.9-1.1-3-2.3-1.1-1.2-1.1-1.7-1.3-2.9-0.2-1.2 0.4-0.7 0.4-0.7 0 0 1.1 1.1 2.9 2 1.8 1 1.5 0.7 2.8 1.3 1.3 0.6 2.9 0.9 4.2 1.2 1.3 0.4 2.4 0.6 3.6 0.7 1.2 0.1 4.6 1.3 6.4 1.9 1.8 0.6 1.7 0.4 3.5 0.6 1.8 0.3 3.4 1 5.6 1.1 2.1 0.1 2.7 0.1 6 0.6 3.4 0.5 1.9 0.5 4.2 0.8 2.3 0.4 1.8 1.7 1.8 1.7 0 0 0.3 1.9 0.2 3.1z"/>
			</g>
			<path id="Layer" class="s17" d="m675.6 211.5c0 0 0.2 0.4-0.4 1.1-0.6 0.7-0.4 1.2-1.3 1.8-0.9 0.5-1.3 0.7-2.2 1.8-1 1-1.3 1.4-1.4 1.9-0.2 0.6-1.8 1.5-1.4 1.8 0.3 0.3 1.1 0.5 1.6 0.6 0.9 0 1.8 0.1 1.8 0.8 0 0.6 0.8 0 0.2 1.3-0.6 1.3-1.2 1.5-1.2 1.5 0 0 0.6-1.3 0-1.3-0.7 0-0.1 0.1-1.5 0.1-1.4 0-1-0.1-2.1-0.6-1-0.6-1.8-0.4-1.8-0.4 0 0-1.3 0.9-1.7 0.9-0.5 0-0.4 0.2-0.9 0.5-0.4 0.2-0.4 0.9-0.8 1.2-0.4 0.2-1.4 0.7-1.4 0.7l-1.3 0.7c0 0-0.8-0.2-0.7-0.9 0.1-0.6 1.4-1.6 0.9-1.7-0.6 0-1.1 0.2-1.7 0.6-0.6 0.4-1.6 1.3-1.6 1.3 0 0-0.5 1-0.6-0.2 0-1.2-0.3-1.6 0.2-2.1 0.6-0.6 1-0.8 1.4-1 0.5-0.3 1.2-1.2 1.2-1.2 0 0-0.2-1.2 1.1-2 1.3-0.9 1.1-1.1 2.1-1.1 1.1 0 1.6 0.1 2.3 0.2 0.6 0.1 0.4 0.4 1.6 0.3 1.1-0.1 0.8 0.5 1.7-0.4 1-0.8 2-1.6 2.6-2.6 0.5-0.9 1.5-2.5 1.7-3 0.2-0.4 0.5-1.3 1.7-2 1.2-0.8 2-1.6 2.1-0.6 0.1 1-0.2 2-0.2 2z"/>
			<path id="Layer" fill-rule="evenodd" class="s14" d="m671.6 213.2c0 0 0.3-0.7 0.6-1.3 0.3-0.6 0.2 0.1 0.3 0.4 0.1 0.3 0.7 0.6 1.2 0.7 0.6 0.2-0.1 0.7-0.3 1.2-0.2 0.4-0.9-0.1-0.9-0.1 0 0-0.8-0.5-1.1-0.7zm-0.6 0.6c0.4 0.4 1.2 1.3 1.2 1.3l-1.1 0.9c-0.6 0.5-1.7 1.3-1.7 1.3l-0.2-0.9 1.8-2.4zm-2.9 3.5c0.3 0.6 0.8 1.1 0.8 1.1 0.3 0.2-0.1 0.6-0.1 0.6-0.6 0.3-1.4 1-1.4 1-0.6 0.3-0.9 0.4-0.9 0.4-0.2-0.3-0.4-1.6-0.4-1.6 0-0.3 0.5-0.6 0.5-0.6 0.4-0.1 1.2-0.3 1.2-0.3 0.3-0.4 0.3-0.6 0.3-0.6zm1.7 3.1c0 0 0.5 0 1.6 0.1 0 0 0.6 0.4 0.6 0.7l-0.3 1.1c0 0-0.4-0.6-0.7-0.6 0 0-0.8 0-1.4 0 0 0-0.7 0-1.6-0.3 0 0-0.5-0.5-0.5-0.8 0 0 0.7-0.5 1.6-0.8 0 0 0.3 0.4 0.7 0.6zm-5.3 0c0.6-0.3 1.5-0.4 1.5-0.4-0.4 0.4-1.2 1-1.2 1-0.7 0.3-1.3 0.7-1.3 0.7-0.6 0.4-1 0.9-1 0.9-0.6 0.6-1.5 1.1-1.5 1.1-0.2 0.1-0.6 0-0.6 0-0.1-0.4 0.6-1.4 0.6-1.4 0.6-0.4 3.5-1.9 3.5-1.9zm-1.3-1.2c0.5 0 0.9 0.1 0.9 0.1-0.1 0.2-1.3 0.8-1.3 0.8-0.8 0.4-1.9 0.9-1.9 0.9-0.4 0.5-0.7 1.2-0.7 1.2l-0.7 0.1c-0.6-0.2-1.3 0-1.3 0-0.6 0.4-1.2 0.8-1.2 0.8-0.3 0.2-0.1-0.7-0.1-0.7 0.6-0.2 2.3-1.8 2.3-1.8 0.2 0 2-0.4 2-0.4 0.6-0.3 2-1 2-1zm1.3-1.2c-1 0.4-1.9 0.7-1.9 0.7-0.8 0.3-1.4 0.4-1.4 0.4-0.5 0.1-1 0.3-1 0.3h-0.6c0-0.2 1.9-1.8 1.9-1.8 0.2 0.1 3 0.4 3 0.4z"/>
			<path id="Layer" class="s17" d="m689.9 212c-0.4 0.8-0.3 1-0.9 2.5-0.5 1.5-0.6 1.4-1.1 2.2-0.5 0.9-0.5 1.2-0.6 1.9-0.1 0.6-0.4 1.2 0.1 1.4 0.6 0.2 1.2 0 2.3 0.3 1.1 0.2 1.6 0.5 2.1 0.8 0.6 0.3 1.2 0.9 1.2 0.9 0 0 0.3 0.3 0.6 0.9 0.3 0.5 0.7 1.1 0.6 1.5-0.1 0.3-1 1.2-1.3 1.5-0.4 0.3-0.6-1.3-0.6-1.3 0 0-1.3 1.2-1.5 0.1-0.2-1-0.3-2.1-0.7-2.2-0.5-0.1-2.5-0.6-3-0.6-0.6-0.1-0.9 0.6-0.9 0.6 0 0 0.2 1.2 0.3 1.7 0.1 0.5 0.2 1 0.2 1 0 0 0.1 0.9-0.6 1-0.6 0-0.9 0.6-0.9 1.1 0 0.4 0.3 1-0.2 0.6-0.5-0.3-1-0.9-0.9-1.7 0.1-0.7 0.2-0.5 0.1-1.3-0.1-0.7 0-2.3 0-2.3 0 0-0.9-0.5-1.5-0.1-0.7 0.4-0.9 0.2-1.6 0.8-0.8 0.5-0.4 0.5-1.3 0.9-1 0.4-1 0.8-1.7 0.6-0.7-0.1-1.2-0.4-2.1-0.1-0.8 0.2-1.3 0.3-1.3 0.3 0 0-0.5-0.9 0.3-1.4 0.9-0.4 2.1-0.7 2.1-0.7 0 0 0.8-0.6 0.2-0.6-0.7 0-2.1 0.8-2.7 0.9-0.7 0.1-1.2 0-0.6-1.1 0.6-1 0.2-0.5 1-1.5 0.9-0.9 1.3-1.4 2-1.6 0.6-0.3 1-1 1.7-0.4 0.6 0.5 1.1 1 1.7 1.1 0.7 0.1 2 0.2 2.8 0.1 0.9-0.1 1.1-1 1.1-1 0 0 0.1-0.6 0.6-1.4 0.9-1.4 0.9-2 1-2.8 0-0.9-0.2-1 1-2.9 1.2-2 3.3-4 3.3-4 0 0 0.5 1.4 0.4 2.3-0.1 0.8-0.7 2-0.7 2z"/>
			<path id="Layer" class="s8" d="m675.6 211.5c0 0 0.2 0.4-0.4 1.1-0.6 0.7-0.4 1.2-1.3 1.8-0.9 0.5-1.3 0.7-2.2 1.8-1 1-1.3 1.4-1.4 1.9-0.2 0.6-1.5 1.5-1.2 1.8 0.4 0.2 1.2 0.5 1.7 0.5 0.8 0 1.5 0.2 1.5 0.9 0 0.6 0.8 0 0.2 1.3-0.6 1.3-1.2 1.5-1.2 1.5 0 0 0.6-1.3 0-1.3-0.7 0-0.1 0.1-1.5 0.1-1.4 0-1.2-0.1-2.2-0.6-1-0.6-1.7-0.4-1.7-0.4 0 0-1.3 0.9-1.7 0.9-0.5 0-0.4 0.2-0.9 0.5-0.4 0.2-0.4 0.9-0.8 1.2-0.4 0.2-1.4 0.7-1.4 0.7l-1.3 0.7c0 0-0.8-0.2-0.7-0.9 0.1-0.6 1.4-1.6 0.9-1.7-0.6 0-1.1 0.2-1.7 0.6-0.6 0.4-1.6 1.3-1.6 1.3 0 0-0.5 1-0.6-0.2 0-1.2-0.3-1.6 0.2-2.1 0.6-0.6 1-0.8 1.4-1 0.5-0.3 1.2-1.2 1.2-1.2 0 0-0.2-1.2 1.1-2 1.3-0.9 1.1-1.1 2.1-1.1 1.1 0 1.6 0.1 2.3 0.2 0.6 0.1 0.4 0.4 1.6 0.3 1.1-0.1 0.8 0.5 1.7-0.4 1-0.8 2-1.6 2.6-2.6 0.5-0.9 1.5-2.5 1.7-3 0.2-0.4 0.5-1.3 1.7-2 1.2-0.8 2-1.6 2.1-0.6 0.1 1-0.2 2-0.2 2z"/>
			<path id="Layer" class="s14" d="m683.1 199.8c0 0 0.4 1.1 0.4 2.4 0 1.3 0.1 2.7-0.4 3.5-0.6 0.7-1.4 1-2.5 1.9-1 0.8-1 1.5-2.4 2.7-1.4 1.2-2 1.8-2.9 2.5-0.9 0.6-1.3-1.3-1.3-1.3 0 0-0.9 1.2-0.9-0.1 0-1.3-0.3-1.5 0-3.5 0.4-1.9 0.8-2.1 0.8-4.1 0-1.9 0.2-2.7-0.4-3.9-0.5-1.2-1.3-1-1.2-3.3 0.1-2.2 0.1-3 1.2-3.4 1.1-0.5 2.6-1.2 3.7 0.1 1 1.2 1.8 1.6 2.6 2.7 0.7 1.1 3.3 3.8 3.3 3.8z"/>
			<g id="Layer">
				<path id="Layer" class="s16" d="m680 199.5c0 0 1.1 0.5 0.3 0.4-0.9-0.1-2.9-0.8-2 0.1 0.9 0.9 3.5 2.3 2.5 2.2-1-0.1-1.5-0.5-1.5-0.1 0 0.4-1.5-1.1-1.4-0.3 0.2 0.9 1 2.5 0.3 2.5-0.6 0-0.7 0.2-0.7 0.9 0 0.6-1.4-0.1-1.2 1.1 0.2 1.2 0.3 0.7-0.3 2-0.7 1.3-1 2.5-1 2.5l-1.1 0.6-0.4 0.8c0 0-0.6-1.6-0.6-2.4 0-0.7 0.6-1.9 0.8-3.5 0.1-1.6 0.6-2 0.4-3.1-0.2-1-0.1-1.6-0.3-2.3-0.1-0.6-1.2-1.5-1.3-2.9-0.2-1.4-0.3-2.9 0.1-3.5 0.5-0.6 2.1-0.7 3.2 0.3 1.1 1 2.9 3.6 2.9 3.6 1.3 0.6 1.3 1.1 1.3 1.1z"/>
				<path id="Layer" class="s8" d="m683.1 199.8c0 0 0.4 1.1 0.4 2.4 0 1.3 0.1 2.7-0.4 3.5-0.6 0.7-1.4 1-2.5 1.9-1 0.8-1 1.5-2.4 2.7-1.4 1.2-2 1.8-2.9 2.5-0.9 0.6-1.3-1.3-1.3-1.3 0 0-0.9 1.2-0.9-0.1 0-1.3-0.3-1.5 0-3.5 0.4-1.9 0.8-2.1 0.8-4.1 0-1.9 0.2-2.7-0.4-3.9-0.5-1.2-1.3-1-1.2-3.3 0.1-2.2 0.1-3 1.2-3.4 1.1-0.5 2.6-1.2 3.7 0.1 1 1.2 1.8 1.6 2.6 2.7 0.7 1.1 3.3 3.8 3.3 3.8z"/>
				<path id="Layer" fill-rule="evenodd" class="s14" d="m687.7 210.4c0.3-0.3 0.4-0.1 1.2 0.5 0.8 0.5 0.5 1.1 0.5 1.4-0.1 0.4-0.4 0.8-0.5 1-0.1 0.2-0.6 0-0.8-0.1-0.2 0-1-0.3-1.2-0.3-0.2 0-0.6-0.5-0.6-0.5 0 0 1.2-1.6 1.4-2zm-1.6 2.9c0.3 0.1 1.5 0.5 1.5 0.5 0.4 0.2 0.8 0.6 0.8 0.6 0 0.2-0.3 0.7-0.3 0.7-0.4 0.4-0.7 0.9-0.7 0.9-0.3 0.4-0.8 0.7-0.8 0.7-0.4-0.1-0.9-0.5-0.9-0.5 0-0.2 0.4-1.3 0.4-1.3 0-0.4 0.2-1.4 0.2-1.4zm-0.9 3.7c0.3 0 1 0.2 1 0.2 0.3 0.3 0.4 0.7 0.4 0.7 0 0.3 0.1 0.8 0.1 0.8-0.1 0.3-0.3 1.1-0.3 1.1-0.2 0.3-0.6 0.5-0.6 0.5-0.4 0-0.9-0.1-0.9-0.1-0.4-0.3-0.8-0.7-0.8-0.7 0.1-0.5 1.1-2.5 1.1-2.5zm2.5 3c0 0 0.6 0.3 1 0.3 0 0 1 0.2 1.3 0.2 0 0 2 0.7 2.4 1 0 0 0.8 0.8 1 1.3 0 0 0.2 1.2 0 1.4 0 0-0.3-0.3-0.6-0.7 0 0-0.2-0.1-0.5-0.1l-0.7 0.6c0 0-0.2-0.4-0.3-1 0 0-0.5-1-0.7-1.3 0 0-0.9-0.5-1.4-0.7 0 0-0.7-0.1-1.5-0.1 0 0-1.2-0.2-1.1-0.4 0 0 0.2-0.5 0.6-0.8 0 0 0.2 0.1 0.5 0.3zm-2.2 1.5c0 0-0.1 1-0.1 1.7 0 0 0.1 0.5 0.2 1.4 0 0-0.2 0.9-0.5 1.2 0 0-0.3 0.3-0.3-0.5 0 0 0-0.8 0.1-1.1 0 0 0-0.6 0-1.4 0 0-0.1-0.5-0.4-0.9 0 0-0.3-0.6-0.2-0.9 0 0 0.4-0.2 0.9-0.3 0 0 0.3 0.1 0.3 0.8zm-3.1 0.1c0 0-1.1 0.3-2 0.6 0 0-0.8 0.4-1.2 0.5 0 0-0.3 0.4-1.1 1 0 0-0.9 0.2-1.2 0.2 0 0-0.2-0.3-0.2-0.6 0 0 0.3-0.1 0.6-0.5 0 0 0.9-0.6 1-0.8 0 0 0.3-0.6 0.7-0.8 0 0 0.5-0.1 0.7-0.1 0 0 1.2 0.1 2.4 0l1.4 0.2c0 0-0.4 0.2-1.1 0.3zm-1-1.3c0 0-0.7 0.2-1.1 0.2 0 0-1.1-0.3-1.8-0.4 0 0-0.6 0.3-1 0.6l-1 1.2c0 0 0-0.5-0.1-0.9 0 0-0.5-0.4-0.7-0.4 0 0 0.1-0.4 0.4-0.7 0 0 0.8-0.6 1.1-0.9 0 0 0.8-0.4 1.2-0.4 0 0 0.6 0.3 1.2 0.7 0 0 0.6 0.4 1.7 0.8z"/>
			</g>
			<path id="Layer" class="s14" d="m677.6 160.7c0.2 0.5 0.3 1.7 0.4 2.2 0.1 0.5 0.5 2 0.6 2.4 0 0.3 0.1 1.7-0.1 2.8-0.3 1.1-2.1 1.8-2.1 1.8 0 0-0.6 0.3-1.1 0.8-0.5 0.4-1.1 0.7-1.3 1.4-0.3 0.8 0.3 1.1 0.7 1.5 0.3 0.3 1.3 0.5 2.3 1 1.1 0.5 2.3 1.2 3.1 1.6 0.7 0.4 3.6 1.8 3.9 2 0.2 0.1 7.5 4 8.8 4.8 1.3 0.8 6.3 4.1 7.2 4.7 0.9 0.6 9.1 7.7 10.2 8.8 1 1.1 3.6 4.3 4.5 5.4 1 1.1 2.4 3.4 2.4 3.4 0 0 3.7 5.9 4 6.5 0.3 0.7 0.6 1.2 1.3 2 0.6 0.8 0.8 0.6 1.7 1.5 1 0.8 0.4 0.8 0.5 1.8 0 1-0.8 1.2-1.5 2-0.7 0.7-0.7 0.2-1.8 0.8-1.2 0.6-1.5 0.4-2.3 0.6-0.9 0.1-2.1 0.3-3.5 0.4-1.5 0.1-2.6 0.5-4.3 0.6-1.7 0.2-2 0.3-4.2 0.7-2.2 0.3-2 0-3.1-0.2-1.1-0.2-1-0.5-1.9-1.1-0.8-0.7-0.8-1-1.5-2.1-0.7-1.1-0.8-1.8-1.1-2.6-0.3-0.9-0.8-1.6-1.4-2.8-0.6-1.2-1-1.5-1.5-2.3-0.4-0.8-0.7-1.4-0.7-1.7-0.1-0.2-2.2-2.3-2.7-2.6-0.5-0.4-9.8-5.5-9.8-5.5 0 0-3.3-1.9-4.9-2.6-1.6-0.7-3.7-1.9-5-2.8-1.2-0.9-3.7-2.8-4.1-3.4-0.5-0.6-3.5-2.9-3.8-3.2-0.3-0.2-3.1-2.4-4-3.4-0.8-1.1-3-3.4-3-3.4 0 0-2.2-3.5-2.3-4-0.1-0.6 0.3-2.8 0.3-3.2 0.1-0.3 0.7-2.7 0.8-3.1 0.1-0.3 2.4-3.8 2.6-4 0.1-0.2 2.2-2.7 2.6-3.1 0.4-0.5 1.9-1.7 2.3-1.9 0.3-0.3 1.4-1.1 1.4-1.3 0.1-0.2-0.5-0.3-0.8-0.5-0.3-0.1 0.2-0.3 0.6-0.6 0.4-0.2 1.5-1.2 2.3-1.5 0.8-0.4 2.4-1.4 3.2-1.5 0.8 0 2.6 0 3 0 0.4 0 1.6 0.6 2.2 1.6 0 0 0.7 0.9 0.9 1.3z"/>
			<g id="Layer">
				<path id="Layer" class="s8" d="m689.9 212c-0.4 0.8-0.3 1-0.9 2.5-0.5 1.5-0.6 1.4-1.1 2.2-0.5 0.9-0.5 1.2-0.6 1.9-0.1 0.6-0.4 1.2 0.1 1.4 0.6 0.2 1.2 0 2.3 0.3 1.1 0.2 1.6 0.5 2.1 0.8 0.6 0.3 1.2 0.9 1.2 0.9 0 0 0.3 0.3 0.6 0.9 0.3 0.5 0.7 1.1 0.6 1.5-0.1 0.3-1 1.2-1.3 1.5-0.4 0.3-0.6-1.3-0.6-1.3 0 0-1.3 1.2-1.5 0.1-0.2-1-0.3-2.1-0.7-2.2-0.5-0.1-2.5-0.6-3-0.6-0.6-0.1-0.9 0.6-0.9 0.6 0 0 0.2 1.2 0.3 1.7 0.1 0.5 0.2 1 0.2 1 0 0 0.1 0.9-0.6 1-0.6 0-0.9 0.6-0.9 1.1 0 0.4 0.3 1-0.2 0.6-0.5-0.3-1-0.9-0.9-1.7 0.1-0.7 0.2-0.5 0.1-1.3-0.1-0.7 0-2.3 0-2.3 0 0-0.9-0.5-1.5-0.1-0.7 0.4-0.9 0.2-1.6 0.8-0.8 0.5-0.4 0.5-1.3 0.9-1 0.4-1 0.8-1.7 0.6-0.7-0.1-1.2-0.4-2.1-0.1-0.8 0.2-1.3 0.3-1.3 0.3 0 0-0.5-0.9 0.3-1.4 0.9-0.4 2.1-0.7 2.1-0.7 0 0 0.8-0.6 0.2-0.6-0.7 0-2.1 0.8-2.7 0.9-0.7 0.1-1.2 0-0.6-1.1 0.6-1 0.2-0.5 1-1.5 0.9-0.9 1.3-1.4 2-1.6 0.6-0.3 1-1 1.7-0.4 0.6 0.5 1.1 1 1.7 1.1 0.7 0.1 2 0.2 2.8 0.1 0.9-0.1 1.1-1 1.1-1 0 0 0.1-0.6 0.6-1.4 0.9-1.4 0.9-2 1-2.8 0-0.9-0.2-1 1-2.9 1.2-2 3.3-4 3.3-4 0 0 0.5 1.4 0.4 2.3-0.1 0.8-0.7 2-0.7 2z"/>
				<path id="Layer" fill-rule="evenodd" class="s15" d="m671.9 191.7c1.8 1 1.3 0.7 3.1 2.1 1.7 1.4 1.2 0.1 1.3-0.2 0.1-0.4-0.3-1.1 0.6-0.3 1 0.7 1.4 0.9 3.2 1.5 1.7 0.5 1.4-0.3 2.1-0.7l0.8-0.2c0 0 0.1 1.6 0 2.5-0.2 0.8-0.8 0.6-0.1 1.9 0.6 1.3 1.5 1.4 2.4 2.3 0.8 1 0.8 2.2 0.8 2.2 0 0-2.1-1-3-1.5-0.8-0.6-4.5-2.4-5.3-3-0.9-0.5-5.3-3.2-5.6-3.5-0.4-0.4-3.1-2.7-3.1-2.7l1-1.4zm24.1 7.8c0 0 0.9 0.6 1.3 0.6 0 0 0.9 0.1 1.8 0.3 0 0 1.1 0.8 2.5 2 0 0 1.7 0.3 2.2 0.1 0 0 0.3 0.3 1.2 1.5 0 0 1 1.3 2 1.8 0 0 1.1-1.1 1.7-1.4 0 0 1 1 1.7 1.9 0 0 1.6 1.9 2.6 2.9 0 0 2.6 2.1 3.6 2.8 0 0 2 2.2 2.6 2.8 0 0 2.1 2 2.9 2.7 0 0 1.6 0.4 2 0.4 0 0-0.6 0.8-0.7 1.2 0 0-1.5 0.8-2.3 0.9 0 0-4.3 0.7-4.6 0.7 0 0-6.1 0.8-6.5 0.8 0 0-3.5 1-4.4 1l-3.3-1.2-1.6-2.1-2.4-5.6-1.9-2.8-0.6-1.7c0 0-1.7-1.7-2.1-2v-1.1c0 0 0.4-3.1 0.6-4l0.7-3.4zm9.7 8.8c0 0-1.1 0.1-3.6 0.6 0 0-2.7-0.2-3.5-0.3 0 0 1.3 1.1 3.4 1.7 0 0 1.1 0.2 2.9 0.5 0 0 1.2-0.4 2.2-1.2 0 0 0.5-1.2 0.3-1.7 0 0-0.7 0.2-1.7 0.4zm-2.2 6.3c0.3 1.1 0.8 2.6 0.8 2.6 0.7 1.5 1.5 2.5 1.5 2.5 0.9 1.2 1.3 1.4 1.3 1.4-0.1-1.2-1.4-4.1-1.4-4.1-0.6-1.5-2-5-2-5-0.2 1.1-0.2 2.6-0.2 2.6zm-3.6-0.7c0.1 1.1 0.8 3.4 0.8 3.4 0.7 1.1 1.7 3.2 1.7 3.2 0.8 0.9 1.4 0.5 1.4 0.5-0.5-1.1-1.9-3.1-1.9-3.1-1.1-2-1.5-4.1-1.5-4.1-0.1-0.8-0.5-1.6-0.5-1.6-0.1 0.4 0 1.7 0 1.7zm12.5 1.7c0 0 2.8 2.2 4.7 3.2 0 0-0.5-1.1-0.9-1.8l-2.7-3.3c0 0-2.6-1.3-2.9-1.3 0 0 0.2 1.1 1.8 3.2zm-4.6 0.1c0.3 1 0.4 1 1.6 2.8 1.2 1.9 1.2 1.2 2.7 1.7 0 0-0.8-0.9-1.1-1.9-0.4-0.9-1.4-2.4-2-3.6-0.6-1.2-1.5-1.7-1.5-1.7 0 0 0 1.8 0.3 2.7z"/>
				<path id="Layer" class="s15" d="m674.7 166.7c0 0 0.2 0.3 0.2 1 0 0.7 0.3 0.7 0.7 1.1 0.4 0.5 1.1 0.2 1.7 0.3 0.6 0-0.4 0.5-0.4 0.5l-0.7 0.4c0 0-1 1.1-1.7 1.4-0.7 0.3-0.5 1.2-0.5 1.2 0 0-0.3 0.5 0.3 1 0.7 0.5 1.5 0.5 2.4 0.7 0.8 0.3 1.6 0.9 2.3 1.4 0.7 0.5 1.9 0.9 2.3 1.3 0.4 0.4-0.3 0.1-0.7 0.1-0.4 0-3.6-0.6-4.1-0.6-0.5 0-1-0.6-1.5-0.5-0.5 0.1-0.8 0.5-1.5 1.2-0.6 0.7-0.6-0.2-1.6-1.4-0.9-1.3-1.1 0.4-1.8 1.3-0.7 0.9-1.8 2.3-2.5 4-0.7 1.7-0.2-0.5-0.2-3.2 0-2.6-1.8 1.9-1.6 0.7 0.2-1.3 0-2.4 0.1-2.6 0.1-0.2 0.8-1.7 1.8-3 1-1.3-1.7 0.2-2.1 0.1-0.3 0 0.6-0.9 2.3-2 1.6-1.2 0.6-0.7 2.1-1.3 1.5-0.7-0.7-0.8-0.7-0.8 0 0 0.6-0.5 1.4-0.7 0.7-0.1 1.3-0.7 2.4-1.1 1.2-0.4 0.4-1.7 0.4-1.7z"/>
				<path id="Layer" fill-rule="evenodd" class="s16" d="m674.6 157.7q0 0 0 0-0.2 0-0.3-0.1zm0.5 0.4c0 0.3 0.1 0.6-0.2 0.9-0.3 0.2-0.3 0.7-0.9 0.5-0.7-0.2-1.2-0.5-0.8-0.1 0.5 0.3 0.9 0.7 0.7 0.9-0.3 0.1-1 0.5-1 0.7 0 0.1 0.1 0.6 0.1 0.6l-0.5 0.6c0 0-0.2 0.1-0.7 0.1-0.6 0-0.9-0.1-1.5-0.1-0.5 0-1 0.1-1.2 0.3-0.2 0.2-0.2 0.5-0.6 0.7-0.3 0.2-0.4 0.4-0.9 1-0.6 0.6-0.7 0.7-1.1 1.3-0.3 0.5-0.7 0.8-0.4 0.8 0.2 0.1 1.9 0 1.9 0 0 0 2-0.4 2.2-0.5q0.4 0 1.2-0.3c0.5-0.2 0.9-0.9 0.4-0.1-0.5 0.9-0.6 1-1 1.3-0.3 0.2-0.7 0.7-1.7 1.1-1 0.5-1.4 0.8-2.3 1.1-0.9 0.4-1 0.5-1.8 1-0.8 0.5-0.7 0.2-1.4 0.9-0.8 0.6-0.1-0.2-1.6 1.4-1.6 1.5-1.3 0.6-1.9 2-0.6 1.3-0.4 1.1-1 2.4-0.7 1.3-0.8 1.1-1 2.3-0.1 1.2 0.4 2.7 0.4 2.7l0.4 1.1c0 0-2.7-3.8-2.7-4.3 0.1-0.5 1.1-5.8 1.2-6.1 0-0.2 2.4-4.4 2.4-4.4l2.9-2.9 3.2-2.7c0 0 0.5-0.2 0.3-0.3-0.2-0.2-0.6-0.5-0.6-0.5 0 0 0.6-1.2 1-1.2 0.4-0.1 2.3-1.3 2.9-1.5 0.5-0.2 2.1-1 2.7-0.9 0.4 0.1 2.2-0.1 2.4-0.2 0.2 0.1 0.5 0.2 0.5 0.4zm-14.7 26.3l2.5 1.5c0.8 0.2 1.9 0.5 1.9 0.5 0.7 0.2 2.1 0.5 2.1 0.5 1.4 0.3 3 0.5 3 0.5l-1.8 0.2c-0.4 0-1.7-0.1-1.7-0.1-1-0.1-1.9-0.2-1.9-0.2-0.8-0.5-2.1-1-2.1-1zm35.1 15.8c-0.1-1-0.1-2.2-0.1-2.2q0-1.1 0-1.1c1 1.4 1.7 2.7 1.7 2.7l1-0.7c0.4-0.1 2.2 1.4 2.2 1.4 1 0.8 2.7 2.1 2.7 2.1l1-1.9 0.4 2c1.1 1.3 1.8 2 1.8 2 1.5 0.2 2.1-1 2.1-1l1.3 1c0.2 0.5 1.4 2.2 1.4 2.2 0.9 1.3 1.8 2 1.8 2 1.6 1 3.4 2.4 3.4 2.4 0.8 1 2.4 2.6 2.4 2.6 0.6 0.8 2.2 2.4 2.2 2.4 1 0.7 2.1 1 2.1 1 0.7 0.1 1.7 0 1.7 0l-1.5 1.3c-0.7 0-2.1-0.9-2.1-0.9-0.7-0.6-2-1.6-2-1.6-0.5-0.6-0.9-1.5-0.9-1.5-0.6-0.8-1.7-1.8-1.7-1.8-0.8-0.4-2.8-1.8-2.8-1.8-0.3-0.3-2.3-1.6-2.3-1.6-0.7-0.8-1.7-2.1-1.7-2.1-0.6-0.6-1.3-1.9-1.3-1.9 0 0.4-0.1 1.6-0.1 1.6l-0.7 0.2c-0.8-0.9-2.2-1.9-2.2-1.9-0.4-0.5-1.6-1.8-1.6-1.8l0.3 1.7-2.3-0.8c-1-0.8-2.8-2.2-2.8-2.2-0.4-0.7-0.9-1.2-0.9-1.2-0.2 0.5-0.7 1.1-0.7 1.1-0.4-0.2-0.8-0.6-0.8-0.6-0.3-0.5-1-1.1-1-1.1zm-16.9-16.3c0 0 3.7 1.6 4.6 4.5 0 0-0.5 0-4.6-1.7 0 0-0.7-0.6 0.4 1.7 0 0-1.5 0.1-3.1-1.3 0 0-2-1.9-4.4-3.1 0 0 0.2-2.3 1.5-2.5 0 0 3.8 1.7 5.6 2.4z"/>
				<path id="Layer" class="s8" d="m677.6 160.7c0.2 0.5 0.3 1.7 0.4 2.2 0.1 0.5 0.5 2 0.6 2.4 0 0.3 0.1 1.7-0.1 2.8-0.3 1.1-2.1 1.8-2.1 1.8 0 0-0.6 0.3-1.1 0.8-0.5 0.4-1.1 0.7-1.3 1.4-0.3 0.8 0.3 1.1 0.7 1.5 0.3 0.3 1.3 0.5 2.3 1 1.1 0.5 2.3 1.2 3.1 1.6 0.7 0.4 3.6 1.8 3.9 2 0.2 0.1 7.5 4 8.8 4.8 1.3 0.8 6.3 4.1 7.2 4.7 0.9 0.6 9.1 7.7 10.2 8.8 1 1.1 3.6 4.3 4.5 5.4 1 1.1 2.4 3.4 2.4 3.4 0 0 3.7 5.9 4 6.5 0.3 0.7 0.6 1.2 1.3 2 0.6 0.8 0.8 0.6 1.7 1.5 1 0.8 0.4 0.8 0.5 1.8 0 1-0.8 1.2-1.5 2-0.7 0.7-0.7 0.2-1.8 0.8-1.2 0.6-1.5 0.4-2.3 0.6-0.9 0.1-2.1 0.3-3.5 0.4-1.5 0.1-2.6 0.5-4.3 0.6-1.7 0.2-2 0.3-4.2 0.7-2.2 0.3-2 0-3.1-0.2-1.1-0.2-1-0.5-1.9-1.1-0.8-0.7-0.8-1-1.5-2.1-0.7-1.1-0.8-1.8-1.1-2.6-0.3-0.9-0.8-1.6-1.4-2.8-0.6-1.2-1-1.5-1.5-2.3-0.4-0.8-0.7-1.4-0.7-1.7-0.1-0.2-2.2-2.3-2.7-2.6-0.5-0.4-9.8-5.5-9.8-5.5 0 0-3.3-1.9-4.9-2.6-1.6-0.7-3.7-1.9-5-2.8-1.2-0.9-3.7-2.8-4.1-3.4-0.5-0.6-3.5-2.9-3.8-3.2-0.3-0.2-3.1-2.4-4-3.4-0.8-1.1-3-3.4-3-3.4 0 0-2.2-3.5-2.3-4-0.1-0.6 0.3-2.8 0.3-3.2 0.1-0.3 0.7-2.7 0.8-3.1 0.1-0.3 2.4-3.8 2.6-4 0.1-0.2 2.2-2.7 2.6-3.1 0.4-0.5 1.9-1.7 2.3-1.9 0.3-0.3 1.4-1.1 1.4-1.3 0.1-0.2-0.5-0.3-0.8-0.5-0.3-0.1 0.2-0.3 0.6-0.6 0.4-0.2 1.5-1.2 2.3-1.5 0.8-0.4 2.4-1.4 3.2-1.5 0.8 0 2.6 0 3 0 0.4 0 1.6 0.6 2.2 1.6 0 0 0.7 0.9 0.9 1.3z"/>
			</g>
			<path id="Layer" class="s17" d="m680.8 165.2c-0.1 0.6-0.1 0.4-0.3 1-0.1 0.5-0.4 0.5-0.9 1-0.4 0.5-1 0.3-2.9 0.3-1.9 0-1.3-0.5-1.8-0.8-0.4-0.4-0.2-0.6-0.2-0.9 0-0.3 0.2-0.8 0.5-1.3 0.2-0.5 0.6-0.8 1.2-1.4 0.7-0.6 0.5-0.4 1.1-0.7 0.5-0.4 0.8-0.5 1.2-0.6 0.4-0.1 0.4 0 0.9 0.1 0.5 0 0.6 0.2 1 0.5 0.4 0.3 0.7 1 0.7 1.2 0.1 0.2-1-0.2-1.2-0.2-0.2 0-0.3 0-0.6 0.1-0.2 0.1-0.4 0.2-0.5 0.4-0.1 0.1-0.5 0.4-0.6 0.5-0.1 0.1-0.1 0.3-0.1 0.3h0.7c0 0 0.3-0.1 0.6-0.1 0.3-0.1 0.4-0.1 0.7-0.3 0.4-0.1 0.4-0.3 0.5-0.4 0 0 0.1 0.8 0 1.3z"/>
			<path id="Layer" class="s8" d="m680.8 165.2c-0.1 0.6-0.1 0.4-0.3 1-0.1 0.5-0.4 0.5-0.9 1-0.4 0.5-1 0.3-2.9 0.3-1.9 0-1.3-0.5-1.8-0.8-0.4-0.4-0.2-0.6-0.2-0.9 0-0.3 0.2-0.8 0.5-1.3 0.2-0.5 0.6-0.8 1.2-1.4 0.7-0.6 0.5-0.4 1.1-0.7 0.5-0.4 0.8-0.5 1.2-0.6 0.4-0.1 0.4 0 0.9 0.1 0.5 0 0.6 0.2 1 0.5 0.4 0.3 0.7 1 0.7 1.2 0.1 0.2-1-0.2-1.2-0.2-0.2 0-0.3 0-0.6 0.1-0.2 0.1-0.4 0.2-0.5 0.4-0.1 0.1-0.5 0.4-0.6 0.5-0.1 0.1-0.1 0.3-0.1 0.3h0.7c0 0 0.3-0.1 0.6-0.1 0.3-0.1 0.4-0.1 0.7-0.3 0.4-0.1 0.4-0.3 0.5-0.4 0 0 0.1 0.8 0 1.3z"/>
			<path id="Layer" class="s14" d="m679.6 162.6c-0.3 0-0.6 0.2-1 0.2-0.4 0-0.4 0.1-0.9 0.5-0.6 0.3-0.8 0.5-1.1 0.8-0.3 0.3-0.5 0.6-0.8 0.9-0.3 0.4-0.8 1.2-0.9 1.5 0 0.4-0.2 0-0.7-0.3-0.5-0.3-0.5-0.8-0.9-1.7-0.4-0.9-0.4-0.9-0.4-1.3 0-0.3 0.1-0.7 0.1-0.7 0 0 0.2-0.6 0.4-1 0.3-0.4 0.5-0.2 0.8-0.4 0.4-0.2 0.9-0.5 0.9-0.5 0 0 0.2-0.9 0.3-1.1 0.1-0.3 0.2-0.8 0.2-0.8 0 0 1.1 0 1.7 0 0.5 0.1 1.6 0.2 1.6 0.2 0 0 1.6 0.8 2 1.1 0.5 0.3 0.5 0.3 0.7 0.8 0.2 0.5 0.2 0.6 0.2 1.3 0 0.6-0.3 0.9-0.3 1.4-0.1 0.5-0.4-0.3-0.7-0.5 0 0-0.8-0.3-1.2-0.4z"/>
			<path id="Layer" class="s15" d="m681.6 160.6c0.3 0.3 0.2 1 0.2 1.4 0 0.5-0.2 1.1-0.5 1.4-0.2 0.3-0.3-0.1-0.3-0.2-0.1-0.2-0.8-0.5-1.6-0.6-0.7-0.2-1.7 0.5-2 0.7-0.4 0.3-1.7 1.7-2 2.2-0.3 0.6-0.8 1.2-0.8 1.2 0 0 0-1 0.1-1.5 0.2-0.5 0.4-0.7 0.8-1.3 0.3-0.5 0.4-0.5 0.7-0.8 0.3-0.4 0.4-0.5 0.9-0.7 0.5-0.2 0.8-0.4 1.1-0.4 0.2-0.1 0.4-0.2 0.8-0.3 0.3-0.2 0.3-0.2 0.6-0.4 0.2-0.1 0.4-0.3 0.7-0.4 0.2-0.2 0.2-0.3 0.4-0.6 0.2-0.4 0.1-0.5 0-0.6 0 0 0.7 0.6 0.9 0.9z"/>
			<path id="Layer" class="s8" d="m679.6 162.6c-0.3 0-0.6 0.2-1 0.2-0.4 0-0.4 0.1-0.9 0.5-0.6 0.3-0.8 0.5-1.1 0.8-0.3 0.3-0.5 0.6-0.8 0.9-0.3 0.4-0.8 1.2-0.9 1.5 0 0.4-0.2 0-0.7-0.3-0.5-0.3-0.5-0.8-0.9-1.7-0.4-0.9-0.4-0.9-0.4-1.3 0-0.3 0.1-0.7 0.1-0.7 0 0 0.2-0.6 0.4-1 0.3-0.4 0.5-0.2 0.8-0.4 0.4-0.2 0.9-0.5 0.9-0.5 0 0 0.2-0.9 0.3-1.1 0.1-0.3 0.2-0.8 0.2-0.8 0 0 1.1 0 1.7 0 0.5 0.1 1.6 0.2 1.6 0.2 0 0 1.6 0.8 2 1.1 0.5 0.3 0.5 0.3 0.7 0.8 0.2 0.5 0.2 0.6 0.2 1.3 0 0.6-0.3 0.9-0.3 1.4-0.1 0.5-0.4-0.3-0.7-0.5 0 0-0.8-0.3-1.2-0.4z"/>
			<path id="Layer" class="s14" d="m676.4 176.5l2 0.5c0 0 3.4 0.1 4.3 0.1 0.9 0 1-0.1 2-0.3 1-0.3 1-0.3 2.3-0.9 1.4-0.6 1.4-0.9 2.2-1.6 0.8-0.7 1-1.2 1.9-1.9 0.9-0.8 1.4-0.9 2.1-1.4 0.8-0.4 0.8-0.7 1.4-1.5 0.6-0.7 1.4-1.3 2.4-2.5 0.9-1.1 1.1-1.1 2.1-1.7 1-0.6 1.8-0.9 3.1-1.5 1.2-0.6 1.7-0.3 3.3-0.3 1.6 0.1 3.2 0.2 4.3 0.2 1.1 0 4.6 0 6.1-0.2 1.5-0.1 2.4-0.3 3.6-0.4 1.2 0 2.1 0.1 2.1 0.1l-0.7 0.5c0.4 0.2-0.1 0.5 1.6 0.6 1.8 0.1 2.5 0 3.9 0.1 1.4 0.1 3.9-0.4 3.9-0.4 0 0.6-0.3 0-0.3 0 0.7 0.1 3.2-0.2 4.2-0.5 1.1-0.2 5-1.7 6.9-2.4 1.9-0.6 5.4-1.9 5.4-1.9 0 0 1.8-0.3 2.6-0.9 0.7-0.6 2.1-2.3 1.5-0.9-0.5 1.4-1.1 2.5-2.5 3.4-1.5 0.9-3.3 1.3-1.7 1.2 1.6-0.2 4.4-0.4 5.8-1 1.4-0.6 5.1-1 6.8-2.3 1.8-1.2 4.3-2.2 5.5-3 1.3-0.7 3-1.4 3-1.4 0 0-0.4 2.4-1.8 3.3-1.4 0.8-2.3 2.4-3 3.1-0.8 0.8-1.8 1.8-1.8 1.8 0 0 2.4 0.1 4.8-0.6 2.5-0.8 4.6-1.3 6.5-2.1 1.9-0.8 4.3-1.3 5-1.9 0.7-0.6 1.7-2.3 1.3-1.3-0.4 1.1-2.1 2.7-2.7 3.8-0.7 1.1-0.9 1.8-2.9 3.1-1.9 1.2-4.2 2.5-4.2 2.5 0 0 1.4 0.3 3.7 0.1 2.4-0.1 1.8 0.2 5-0.4 3.3-0.6 6-1.3 6-1.3 0 0-0.1 0.8-1 1.6-0.9 0.9-2.4 1.6-3.5 2.5-1.2 1-1.8 1.7-3.6 2.6-1.9 0.9-5.5 1.4-6.7 1.4-1.1 0.1-2.4 0.2-3.1 0.2-0.8 0-1.1-0.3-1 0 0.2 0.3-1.1 0.5 1.4 0.8 2.5 0.4 3.9 0.3 4.7 0.4 0.8 0.1 2.5-0.9 0.9 0.6-1.6 1.6-2.1 2.1-3.8 2.6-1.7 0.5-3.5 0.9-5.5 1-2 0.1-4.5 0.3-6.1 0.2-1.6-0.1-4.1-1.3-3.6-0.9 0.5 0.5 3.5 1 2.5 1.6-1 0.7 0.8 0.2-1.9 0.9-2.8 0.6-5.6 1-6.6 1-1 0-0.9 0.4-2.8-0.1-1.9-0.5-4.9-1.3-4.9-1.3l2.2 1.6c0 0-0.1 0.3-1.6 0.4-1.5 0.1-3.5-0.2-3.5-0.2 0 0 2 1.6 0.7 1.9-1.4 0.2-0.7 0.5-2.8 0.1-2.1-0.4-1.8-0.4-1.4 0.3 0.4 0.8 0.2 1.3-0.7 1.3-1 0-2.3-0.6-2.3 0 0 0.5 1.8 1.8 0.2 2.4-1.6 0.6-1.2 1.2-3.1 0.6-1.9-0.7-2.3-0.5-2.3-0.5 0 0 1.2 0.5-0.2 1-1.4 0.6-0.9 0.8-2.6 0.5-1.6-0.4-2.5-1-2.2-0.4 0.2 0.7 1.2 1.1 0.1 1.4-1 0.2-2.2 0.3-3 0-0.7-0.4-1.2-1.4-1.2-0.5 0 1 1.2 1-0.3 1.5-1.5 0.5-3.8 0-3.8 0v0.7c0 0.7-0.1 1-0.5 1.2-0.4 0.1-2.5-0.5-2.5-0.5 0 0 0.9 0.1 0.5 1.3-0.4 1.2-0.6 1.7-1.5 1.7-0.9 0-1.1 0.3-1.6-0.4-0.6-0.6-0.9-0.7-1.6-1.4-0.8-0.7-1-0.7-1.4-1.2-0.5-0.5-1-0.9-1-0.9 0 0-0.1-0.5-0.6-0.9-0.5-0.3-2-1-2-1"/>
			<g id="Layer">
				<path id="Layer" class="s15" d="m687.3 184.5c-0.4-0.1-2.6-1.2-2.6-1.2 0 0 1.2-0.9 2.1-1.4 0.9-0.5 0.4-1.2 1.5-1.7 1.1-0.4 1.1 0.1 1.9 0.2 0.9 0.1-0.3-0.4-0.3-0.9 0-0.5 1.3-0.9 1.8-1.5 0.6-0.5 1.3-0.5 2-1 0.8-0.6 1.2-0.8 2.1-1.3 0.8-0.4 1.5-1.7 2-2.2 0.5-0.4 0.9 0 1.5-0.7 0.6-0.7 0.6-0.7 1.5-1.4 0.8-0.7 0.8-1.3 2.1-2.5 1.2-1.2 0.5-0.4 1.2-0.6 0.7-0.3 0.8-1 1.8-1.5 1.1-0.5 1.2-0.5 2.6-0.6 1.4-0.1 2.5 0.1 3.5 0 1-0.1 4.1-1 4.4-2 0.3-0.9 3-0.9 3-0.9l2.4-0.1-1.1 0.9c0 0 1.4 0.2 0.8 0.8-0.6 0.7-1.3 2.7-1.3 2.7 0 0-4.6 1.2-5.5 2.3-0.9 1-0.9-0.1-0.9-0.1 0 0-1.9-0.6-2.9 0.2-1.1 0.8-0.1 2.4-0.1 2.4 0 0-1.1-0.3-1.7-0.3-0.6 0-2.9 1-3.1 1.4-0.1 0.5 0.2 1.4 0.2 1.4 0 0-2.7-0.4-3.7 1.2-0.9 1.6 0.2 1.9 0.2 2.3 0 0.3-2.9-0.4-3.3 0.4-0.5 0.8-0.1 2.6-0.1 2.6l-2-1.2c0 0-1.4 0.2-1.4 1.6-0.1 1.4 0.2 2.2 0.2 2.2 0 0-2-0.5-2.4-0.8-0.5-0.3-1.3 0.3-1.3 0.3 0 0-0.8 2.2-0.7 2.6 0 0-3.9-1.5-4.4-1.6zm12.6 7.1c0 0-1.2-0.7-2.4-1 0 0-1.4-1.2-1.7-1.6 0 0-2.1-1-3.3-1.5 0 0-1.5-1-1.8-1.8 0 0 0.8 0.1 1.7 0.4 0 0 0.5 0.9 1.2 0.9 0 0 2.7-1.6 2.7-2 0 0 0.3-0.4 1.2-0.4l3.4-1.2c0 0 0.3 0 0.7 0 0 0 1.1-1.4 0.9-1.8 0 0 1.3 0.4 1.7 0.4 0 0 1.4-1.1 1.1-2.2 0 0 0.2-0.1 0.6-0.1 0 0 1.3-0.3 1.9-0.4l0.9-0.6v-1c0 0 2.1-0.6 2.8-0.8l-0.5-1.1c0 0 0.9 0.2 2.1 0.2 0 0 2-0.1 2.9-1l-0.9-0.8c0 0 2.8 0.1 4.2-0.7 0 0 0.1-1.1-0.4-1.8 0 0-0.4-0.3 0.3-0.3 0 0 3.1-0.7 4.7-1.1l0.6-1.1c0 0-1.5-0.7-1.2-0.7 0 0 2.7-1.1 3.9-1.7 0 0 1.1-1.2 1-1.9 0 0 0.8-0.7 1.2-0.7 0 0 4.2-0.5 4.6-0.6 0 0 1.6 0.2 2.5 0.6 0 0-1 0.2-1.4 0.3 0 0-1.2 0.3-1.5 1 0 0 0.2 0.5 1.1 1l1.4 0.5c0 0-2.2-0.1-2.5-0.1 0 0-0.3 0.4 0.3 1.5 0 0 1.1 0.3 2.7 0.7 0 0-0.8 0.1-1.7 0.2 0 0-2.2-0.1-2.6 0 0 0-0.1 0.6 0.3 1.1l2 0.7-2.9-0.1c0 0-0.5 0.4-0.3 1.5l1 1.1c0 0-2.8-0.5-3.2-0.5 0 0-1.3-0.8-2.5-0.2 0 0-1.5 1.1-1.5 1.9l-0.6 0.6c0 0-1.4 0.4-2.1 1l-0.2 0.8c0 0-1.8-0.1-2.5 0.4l-0.8 1.2c0 0-1.3 0-1.9 0.3l-1.2 2-2.4 1.7c0 0-1 0.1-1.4 0.3l-0.8 2.6c0 0 0-1.3-1-1.2 0 0-1 0.6-2.8 2.3v0.7c0 0-0.5 0.1-1.1 1.7 0 0 0.1 0.7-0.5 0.4 0 0-2.1 0.4-2.8 0.8 0 0-0.4 1.4-0.4 2 0 0-1.2-0.2-2.8-0.8z"/>
				<g id="Layer">
					<path id="Layer" class="s8" d="m679.9 165.5c-0.3 0.3-0.4 0.2-0.7 0.5-0.4 0.2-0.9 0.4-1.5 0.7-0.7 0.2-1.4 0-1.9-0.1-0.5 0-0.8-0.5-0.8-0.5 0 0 0.3-0.6 0.6-0.9 0.3-0.2 0.3-0.2 0.6-0.2 0.3 0 0.4 0 0.9 0 0.4 0.1 0.4 0.1 0.6 0.2 0.2 0 0.9 0 1.1 0 0.2 0 0.5-0.1 0.7-0.2 0.3-0.1 0.3-0.1 0.6-0.1 0 0 0 0.4-0.2 0.6z"/>
					<path id="Layer" class="s8" d="m672.9 161.2c0 0.2 0.3 0.3 0 0.7-0.4 0.3-0.4 0.5-0.8 0.5-0.4 0-0.4 0.1-1.1 0-0.8 0-0.7-0.2-1.2 0-0.5 0.2-0.4 0.1-0.8 0.4-0.3 0.2-0.6 0.6-0.6 0.6"/>
					<path id="Layer" class="s12" d="m672.3 162.4c0 0.2 0.1 0.2 0 0.6 0 0.4 0.1 0.9-0.2 1.1-0.3 0.2-0.3 0.4-0.9 0.6-0.5 0.2-0.5 0.3-0.9 0.2-0.4-0.2-0.6-0.3-0.8-0.6-0.3-0.2-0.3-0.4-0.4-0.6 0-0.2-0.1-0.5-0.1-0.7 0-0.2 0.5-0.6 0.6-0.6 0.1 0 0.6-0.2 0.8-0.1 0.3 0 1.9 0.1 1.9 0.1z"/>
				</g>
				<path id="Layer" class="s4" d="m670.9 162.5c-0.1 0.1-0.2-0.1-0.1 0.3 0 0.4 0 0.4 0.2 0.6 0.2 0.2 0.5 0.5 0.5 0.5 0 0-0.2 0.3-0.6 0.1-0.4-0.2-0.7 0.1-0.8-0.4-0.1-0.5 0-0.4-0.1-0.7-0.1-0.3-0.3-0.5 0-0.6 0.2 0 0.9 0.2 0.9 0.2z"/>
				<path id="Layer" class="s16" d="m683.2 177.2c0 0 3.5-0.9 4.3-1.2 0.8-0.3 2.8-2.8 2.8-2.8l1.8-1.4 2.4-2c0 0 2.8-3.1 3.1-3.6 0.3-0.5 2.3-1.4 2.3-1.4l3.3-1.3c0 0 9.4 0 11.7 0.1 2.2 0.2-0.7 0.7-0.7 0.7l-2.1 0.5c0 0-2.6 0.6-5 0.4-2.4-0.1-1.7 0.5-2.2 0.7-0.6 0.1-2.1 1.3-2.7 1.3-0.5 0-0.5 1.7-1.7 1.6-1.2-0.2-1.3 0.6-1.5 2.6-0.3 2-1.5-0.1-2.7-0.1-1.2 0-0.6 2.9-0.8 3.4-0.1 0.5-2.2 0.1-2.7 0.8-0.5 0.6-1.2 1.9-1.9 2.2-0.6 0.3-2.5 0.1-3.4 0.7-0.9 0.5-0.9 1.3-1.6 1.1-0.6-0.1-0.9 0.6-1 1.9-0.1 1.3-4.3-1.3-4.3-1.3 0 0-3.2-1.3-4.1-2.3-0.9-0.9-0.2-1.3-0.2-1.3l2.1 0.5z"/>
				<g id="Layer">
					<path id="Layer" class="s8" d="m676.4 176.5l2 0.5c0 0 3.4 0.1 4.3 0.1 0.9 0 1-0.1 2-0.3 1-0.3 1-0.3 2.3-0.9 1.4-0.6 1.4-0.9 2.2-1.6 0.8-0.7 1-1.2 1.9-1.9 0.9-0.8 1.4-0.9 2.1-1.4 0.8-0.4 0.8-0.7 1.4-1.5 0.6-0.7 1.4-1.3 2.4-2.5 0.9-1.1 1.1-1.1 2.1-1.7 1-0.6 1.8-0.9 3.1-1.5 1.2-0.6 1.7-0.3 3.3-0.3 1.6 0.1 3.2 0.2 4.3 0.2 1.1 0 4.6 0 6.1-0.2 1.5-0.1 2.4-0.3 3.6-0.4 1.2 0 2.1 0.1 2.1 0.1 0 0-1.2 1-2.3 1.5-1.2 0.5-1.8 0.8-1.8 0.8 0 0 0 0.5-0.7 1-0.6 0.6-2.5 0.6-3.7 0.8-1.2 0.2-2.7 0.3-4.2 0.4-1.5 0.1-1.3-0.1-1.3-0.1 0 0-1.6 0.3-1.7 0.8-0.2 0.5-1 1.2-1.5 1.9-0.5 0.7-1.1 0.2-1.1 0.2 0 0-1.4 1.8-2.4 3.4-1 1.6-0.3 0.6-1.5 1.4-1.3 0.8-0.8 0.7-1.9 1.6-1.2 0.8-2.1 0.6-2.5 0.8-0.5 0.2-1.3 0.5-1 1.1 0.4 0.6-0.2 1.4-2 1.1-1.7-0.2-0.1 0.1-0.3 1-0.2 0.8-0.7 0.7-1.5 1-0.7 0.2-1.6-0.2-1.6-0.2 0 0 0.1 1.3-0.4 2.2-0.5 1-1.7 0.2-2.5 0"/>
					<path id="Layer" class="s8" d="m720.9 163.7c0.4 0.2-0.1 0.5 1.6 0.6 1.8 0.1 2.5 0 3.9 0.1 1.4 0.1 3.9-0.4 3.9-0.4 0 0.6 0.4 1-0.5 1.7-0.9 0.8-1.6 1.9-2.6 2.3-0.9 0.5-1.1 0.5-0.4 0.6 0.8 0.2 1.4 0.4 0.8 1.2-0.7 0.8-0.9 1.3-1.9 1.7-1 0.3-2.1 0.5-2.9 0.6-0.9 0.1-2.1-0.2-1.7 0.2 0.4 0.4 1.2 2.2 0.6 2.6-0.7 0.3-2 0.5-2.7 0.5-0.7 0-0.9-0.7-0.9 0 0 0.6 0 1.8-1.2 1.8-1.1 0-1.4 0.2-2.9-0.1-1.5-0.3-0.9 0.7-0.9 0.7 0 0-0.3 1.3-1.3 1.1-1.1-0.1-1.9-0.8-1.7-0.3 0.3 0.5 1.3 0.4 0.7 1.3-0.6 0.8-1.1 1-2.2 1-1.1 0.1-1.4-0.2-1.4 0.1 0 0.4 0.8 0.9 0 1.4-0.8 0.4-1.1 0.6-1.8 0.5-0.8 0-1-0.7-0.6 0.3 0.3 1 1.3 1.5-0.2 1.6-1.5 0.1-1.3 0.1-2.2-0.2-1-0.2-1.1-1.2-1-0.2 0.2 1 0.3 1-0.6 1.1-0.9 0.1-0.9 0.2-1.9 0.1-0.9-0.1-1.7-0.7-1.7-0.3 0 0.4 0.4 0.6-0.2 1-0.5 0.3 0 0.2-1.1 0.3-1.2 0.1-2.1 0.2-2.1 0.2"/>
					<path id="Layer" class="s8" d="m730 164c0.7 0.1 3.2-0.2 4.2-0.5 1.1-0.2 5-1.7 6.9-2.4 1.9-0.6 5.4-1.9 5.4-1.9 0 0 1.8-0.3 2.6-0.9 0.7-0.6 2.1-2.3 1.5-0.9-0.5 1.4-1.1 2.5-2.5 3.4-1.5 0.9-3.3 1.3-1.7 1.2 1.6-0.2 4.4-0.4 5.8-1 1.4-0.6 5.1-1 6.8-2.3 1.8-1.2 4.3-2.2 5.5-3 1.3-0.7 3-1.4 3-1.4 0 0-0.5 2.6-2 3.4-1.4 0.9-1.8 2-2.6 2.8-0.7 0.7-1.9 1.6-1.9 1.6 0 0 3 0.5 5.5-0.3 2.4-0.7 3.8-1.2 5.7-2 1.9-0.8 4.3-1.3 5-1.9 0.7-0.6 1.7-2.3 1.3-1.3-0.4 1.1-2.1 2.7-2.7 3.8-0.7 1.1-0.9 1.8-2.9 3.1-1.9 1.2-4.2 2.5-4.2 2.5 0 0 1.4 0.3 3.7 0.1 2.4-0.1 1.8 0.2 5-0.4 3.3-0.6 6-1.3 6-1.3 0 0-0.1 0.8-1 1.6-0.9 0.9-2.4 1.6-3.5 2.5-1.2 1-1.8 1.7-3.6 2.6-1.9 0.9-5.5 1.4-6.7 1.4-1.1 0.1-2.4 0.2-3.1 0.2-0.8 0-1.1-0.3-1 0 0.2 0.3-1.1 0.5 1.4 0.8 2.5 0.4 3.9 0.3 4.7 0.4 0.8 0.1 2.5-0.9 0.9 0.6-1.6 1.6-2.1 2.1-3.8 2.6-1.7 0.5-3.5 0.9-5.5 1-2 0.1-4.5 0.3-6.1 0.2-1.6-0.1-4.1-1.3-3.6-0.9 0.5 0.5 3.5 1 2.5 1.6-1 0.7 0.8 0.2-1.9 0.9-2.8 0.6-5.6 1-6.6 1-1 0-0.9 0.4-2.8-0.1-1.9-0.5-4.9-1.3-4.9-1.3l2.2 1.6c0 0-0.1 0.3-1.6 0.4-1.5 0.1-3.5-0.2-3.5-0.2 0 0 2 1.6 0.7 1.9-1.4 0.2-0.7 0.5-2.8 0.1-2.1-0.4-1.8-0.4-1.4 0.3 0.4 0.8 0.2 1.3-0.7 1.3-1 0-2.3-0.6-2.3 0 0 0.5 1.8 1.8 0.2 2.4-1.6 0.6-1.2 1.2-3.1 0.6-1.9-0.7-2.3-0.5-2.3-0.5 0 0 1.2 0.5-0.2 1-1.4 0.6-0.9 0.8-2.6 0.5-1.6-0.4-2.5-1-2.2-0.4 0.2 0.7 1.2 1.1 0.1 1.4-1 0.2-2.2 0.3-3 0-0.7-0.4-1.2-1.4-1.2-0.5 0 1 1.2 1-0.3 1.5-1.5 0.5-3.8 0-3.8 0v0.7c0 0.7-0.1 1-0.5 1.2-0.4 0.1-2.5-0.5-2.5-0.5 0 0 0.9 0.1 0.5 1.3-0.4 1.2-0.6 1.7-1.5 1.7-0.9 0-1.1 0.3-1.6-0.4-0.6-0.6-0.9-0.7-1.6-1.4-0.8-0.7-1-0.7-1.4-1.2-0.5-0.5-1-0.9-1-0.9 0 0-0.1-0.5-0.6-0.9-0.5-0.3-2-1-2-1"/>
					<path id="Layer" class="s8" d="m695.1 199.8c0 0 1.1 1.4 1.4 1.7 0.4 0.3 0.7 0.4 1.2 0.4 0.4-0.1 0.4-1.4 1-0.8 0.5 0.6 1.3 1.6 1.9 2.1 0.7 0.6 1.5 1 2.8 1.5 1.4 0.6 0.6-0.1 0.6-0.8 0-0.6 0.2 0.1 0.8 0.8 0.7 0.7 0.9 0.7 2 1.8 1.1 1 1.3 0.4 1.6 0.3 0.3 0 0.1-1.8 0.4-1.3 0.4 0.4 1.4 2 2.4 3.1 0.9 1.1 0.8 0.6 1.9 1.5 1.1 0.9 0.8 0.4 2.7 2 2 1.5 1.1 1.1 1.9 1.9 0.9 0.8 1 1.3 1.9 2.2 0.9 0.8 1 0.9 2.3 1.7 1.3 0.8 1.5 0.2 2.2 0.2"/>
					<path id="Layer" class="s8" d="m708.5 206.7c0.2 0.6 0.5 0.9 0.6 1.9 0.1 1 0.3 1.4-0.1 2-0.4 0.6-0.4 1.4-1.6 1.4-1.3 0-1.1 0.1-2.6-0.1-1.5-0.2-1.3 0-2.6-0.4-1.4-0.5-1.4-0.5-1.9-0.7-0.4-0.2-2-1.2-2-1.2m10.7-0.5c0 0 1.1 0.8 1.8 1.3 0 0 0.5 0.4 1.2 0.9 0 0 0.5 0.4 1.2 1 0 0 1.3 1 2.4 1.9 0 0 0.9 0.8 1.7 1.6 0 0 1 1.2 2.2 2.5 0 0 1.3 1.1 1.8 1.5m-4.3 1c-0.9-0.5-2.5-1.3-2.5-1.3-1.4-1.1-2.1-1.9-2.1-1.9-0.7-1-1.5-1.9-1.5-1.9-0.7-1-1.3-1.8-1.3-1.8-0.3-0.6-0.6-1.1-0.6-1.1-0.3-0.5-0.8-1.2-0.8-1.2m2.2 10.4c-0.6-0.5-1.7-1.6-1.7-1.6-1-1.4-1.6-2.3-1.6-2.3-0.7-1.5-1.2-2.4-1.2-2.4-0.4-1.5-0.6-2.4-0.6-2.4 0-0.7 0-1.4 0-1.4m1.5 10c-0.4-0.6-1.8-2.1-1.8-2.1-1.3-1.5-2-2.4-2-2.4-0.4-1.8-0.7-3.2-0.7-3.2-0.2-0.8-0.3-1.5-0.3-1.5-0.1-0.6-0.1-1.3-0.1-1.3"/>
				</g>
				<path id="Layer" class="s16" d="m676.5 161.2c0.2 0.1 0.3 0.5-0.1 1-0.4 0.4-0.7 0.3-1.1 0.9-0.4 0.5-1 1.1-1.3 1.6-0.2 0.4-0.1-0.1-0.1-0.6-0.1-0.6 0-0.7 0.1-1.1 0-0.4 0.3-0.9 0.5-1.3 0.1-0.4 1-0.7 1.5-0.7 0 0 0.2 0.2 0.5 0.2zm3-0.6l-1.3 0.1c0 0-0.9-0.2-0.9-0.6 0 0 0.1-0.4 0.3-0.7 0 0 0.4-0.1 1-0.1z"/>
				<path id="Layer" class="s4" d="m678.1 161.5c0 0-1 0-1.3-0.1-0.2-0.1 0.2-0.4 0.5-0.5 0.3-0.2 0.4-0.1 0.9 0z"/>
			</g>
			<path id="Layer" class="s14" d="m695 198.4c0 0 0.2 1.7 0.2 2.2 0 0.4-0.1 0.4-0.1 1.3 0 0.8-0.4 1.3-0.7 2.6-0.4 1.3-0.4 1.5-0.8 2.4-0.4 0.9-0.8 1.4-1.1 1.9-0.3 0.4-2.8 3.7-2.8 3.7 0 0-0.2-0.3-0.1-1.7 0.1-1.4-0.9-0.2-0.9-0.2l-0.3-0.7c0 0-1.1 1-1.6 1.5-0.5 0.5 0.1-0.7 0.5-1.6 0.3-0.9 0-1.2 0-2 0-0.7 0-1.7-0.2-2.7-0.2-0.9-1-1.9-1.2-2.8-0.3-0.8-1.2-2-2.1-3.1-0.9-1-1-1.5-1.8-2.6-0.7-1 0.1-1.7 0.3-2.5"/>
			<path id="Layer" class="s16" d="m682.1 195.1c0.5-1.4 0.3-1.2 0.3-1.2 0 0-0.4 0.1 0.1-0.1 0.5-0.1 0.2-1.2 2.8-0.1 2.6 1 2.2 1 3.9 1.6 1.7 0.7 0.4 1-0.5 1-0.9 0-1.5-0.4-1 0 0.5 0.3-0.1-0.1 1.8 0.9 1.8 1 2.7 1.9 2.7 1.9 0 0-1.3 0.6-2 0.1-0.7-0.4-1.9-0.6-1.9-0.6 0 0 0.4-0.1 1 1.2 0.5 1.3 1.2 2.8 1.2 2.8 0 0-1.8-0.4-1.6 0 0.2 0.4 0.8 1.7 1 2.1 0.2 0.5 0.2 0.7 0.2 1.3 0 0.7 0.5-0.2 0 1.1-0.5 1.3-0.7 2.5-0.7 2.5l-0.5 1.2c0 0 0.1-1.1-0.5-0.7-0.5 0.4-1.7 1.2-1.7 1.2 0 0 0.9-1.4 0.9-2.1 0-0.8 0.4-2.4 0-3.3-0.4-0.8-0.6-2.4-1.1-3.1-0.6-0.8-0.8-2-1.4-2.4-0.6-0.5-1.3-1.4-1.9-2.1-0.5-0.6-1.3-2.1-1.3-2.1z"/>
			<path id="Layer" class="s8" d="m695 198.4c0 0 0.2 1.7 0.2 2.2 0 0.4-0.1 0.4-0.1 1.3 0 0.8-0.4 1.3-0.7 2.6-0.4 1.3-0.4 1.5-0.8 2.4-0.4 0.9-0.8 1.4-1.1 1.9-0.3 0.4-2.8 3.7-2.8 3.7 0 0-0.2-0.3-0.1-1.7 0.1-1.4-0.9-0.2-0.9-0.2l-0.3-0.7c0 0-1.1 1-1.6 1.5-0.5 0.5 0.1-0.7 0.5-1.6 0.3-0.9 0-1.2 0-2 0-0.7 0-1.7-0.2-2.7-0.2-0.9-1-1.9-1.2-2.8-0.3-0.8-1.2-2-2.1-3.1-0.9-1-1-1.5-1.8-2.6-0.7-1 0.1-1.7 0.3-2.5"/>
			<path id="Layer" class="s14" d="m675.3 166.5c0.3 0 0.9 0.1 1.4 0 0.6 0 1.2 0 1.8-0.3 0.5-0.2 0.9-0.3 1.2-0.6 0.3-0.2 0.3-0.4 0.6-0.7 0.2-0.4 0.5-0.8 0.5-0.8 0 0 0.4 0.5 0.4 0.8 0.1 0.3 0.2 0.6 0.1 0.9-0.1 0.3-0.1 0.7-0.5 1.1-0.3 0.4 0 0.7-0.8 1.1-0.7 0.4-0.3 0.2-1.1 0.5-0.9 0.3-1.2 0.6-1.4 0.6-0.2 0-0.9 0-1.3-0.2-0.4-0.1-0.4 0.3-0.8-0.3-0.4-0.6-0.5-0.8-0.6-1.2 0-0.3 0.1-0.9 0.1-0.9z"/>
			<g id="Layer">
				<path id="Layer" class="s15" d="m681.3 166.2c0 0-0.4 0.8-0.7 1.2-0.2 0.4-0.2 0.3-0.5 0.6-0.3 0.3-0.5 0.3-1 0.5-0.4 0.2-0.8 0.2-1.4 0.4-0.6 0.3-0.4 0.1-0.8 0.1-0.3 0-0.5-0.1-1-0.1-0.4 0-0.3-0.1-0.4-0.2-0.1-0.1-0.4-0.7-0.4-1-0.1-0.2-0.2-0.5-0.2-0.9 0-0.4 0.2-0.2 0.4-0.2 0.2 0 0.6-0.1 1-0.1 0.5-0.1 0.9-0.1 1.5-0.1 0.7 0 0.3 0 0.6 0.2 0.3 0.1 0.2 0 1.1 0.1 0.8 0.1 0.5 0 1.2-0.2 0.7-0.1 0.5-0.4 0.5-0.4z"/>
				<g id="Layer">
					<path id="Layer" class="s8" d="m675.3 166.5c0.3 0 0.9 0.1 1.4 0 0.6 0 1.2 0 1.8-0.3 0.5-0.2 0.9-0.3 1.2-0.6 0.3-0.2 0.3-0.4 0.6-0.7 0.2-0.4 0.5-0.8 0.5-0.8 0 0 0.4 0.5 0.4 0.8 0.1 0.3 0.2 0.6 0.1 0.9-0.1 0.3-0.1 0.7-0.5 1.1-0.3 0.4 0 0.7-0.8 1.1-0.7 0.4-0.3 0.2-1.1 0.5-0.9 0.3-1.2 0.6-1.4 0.6-0.2 0-0.9 0-1.3-0.2-0.4-0.1-0.4 0.3-0.8-0.3-0.4-0.6-0.5-0.8-0.6-1.2 0-0.3 0.1-0.9 0.1-0.9z"/>
					<path id="Layer" class="s8" d="m676.7 222.8c0.4-0.3 1-0.8 1.2-1.1 0.2-0.4 0.4-0.5 0.7-0.6 0.4 0 0.3-0.1 0.7 0 0.4 0.1 1 0.1 1.2 0.1 0.3 0 0.6 0 1.1-0.1 0.5-0.1 1.5-0.3 1.5-0.3"/>
					<path id="Layer" class="s8" d="m660.2 223.4c0.1-0.4 0.7-1.1 1-1.3 0.2-0.2 0.3-0.3 0.8-0.5 0.4-0.2 0.4-0.2 0.9-0.5 0.6-0.4 1.9-0.8 1.9-0.8"/>
					<path id="Layer" class="s8" d="m659 220.9c0.5-0.4 1.2-0.8 1.6-0.8 0.4 0 0.5 0.1 1-0.1 0.6-0.2 1.1-0.5 1.3-0.6 0.2 0 0.6-0.1 0.6-0.1"/>
					<path id="Layer" class="s8" d="m726.4 168.2c0 0-0.8 0-1.4 0.1-0.6 0.1-1.7 0.2-2.2 0.2-0.6 0-1.1-0.1-2.1-0.2-1.1-0.1-1.9-0.3-2.7-0.5-0.8-0.1-2.9-0.8-2.9-0.8m5.9 4.9c-0.7-0.2-3.4-0.9-3.4-0.9-0.3-0.1-2.8-1-2.8-1-0.6-0.3-2.2-0.8-2.2-0.8-1.1-0.5-3.8-1.7-3.8-1.7m9.5 7.5c-0.9-0.2-2.5-0.8-2.5-0.8-1.2-0.5-3.5-1.5-3.5-1.5-0.9-0.4-2.7-1.2-2.7-1.2-1.1-0.4-2.3-1.1-2.3-1.1-0.7-0.3-2.3-1.2-2.3-1.2m8.4 7.7c-0.3-0.1-1.6-0.8-1.6-0.8-1.2-0.5-3.9-1.6-3.9-1.6-1.1-0.5-2.5-1.2-2.5-1.2-0.8-0.4-3.1-1.9-3.1-1.9m8.1 7.1c-0.4-0.2-1.7-0.9-1.7-0.9-1.2-0.7-4.5-2.3-4.5-2.3-0.4-0.3-1.3-0.8-1.3-0.8-0.6-0.3-1.7-1.1-1.7-1.1m6.4 7.3c-0.7 0-2.1-0.7-2.1-0.7-1.3-0.9-2.5-1.9-2.5-1.9-0.7-0.4-1.8-1.3-1.8-1.3-0.6-0.6-1.8-1.5-1.8-1.5m5.2 7.2c-0.5-0.3-1.9-1.4-1.9-1.4-1-0.7-1.9-1.5-1.9-1.5-0.8-0.7-1.6-1.4-1.6-1.4-0.4-0.6-1.1-1.6-1.1-1.6m3.1 7.2c-0.3-0.2-1.8-1.9-1.8-1.9-1.2-1.3-2.2-2.7-2.2-2.7-0.3-0.5-0.7-1.6-0.7-1.6m0.8 7.5l-1.1-1.5c-0.6-0.7-2.7-4-2.7-4m0.8 7c-0.5 0-1.1 0-1.1 0-0.7-0.2-1.6-0.6-1.6-0.6-0.6-0.2-1.9-0.7-1.9-0.7-0.5-0.1-0.7-0.3-0.7-0.3"/>
					<path id="Layer" class="s8" d="m745.9 161.9c-0.5 0.1-1.6 0.8-2.8 1.1-1.2 0.3-2 0.6-3.4 0.9-1.4 0.2-2.6 0.3-3.7 0.5-1.2 0.3-1.4 0.5-2.4 0.6-1.1 0-3.7 0.3-3.7 0.3m31.3-3.2c-0.6 0-4.1 1-4.1 1l-6.6 1.6c-1.1 0.1-7.6 1.1-7.6 1.1-1.8 0.1-7.7 1-7.7 1-1.1 0-6.9 0.3-6.9 0.3m40.7-1.3c-0.4 0-7.4 1.3-7.4 1.3-1.2 0-14.9 1.5-14.9 1.5-1.6-0.2-11.9 0.5-11.9 0.5-1.3 0-6.9-0.1-6.9-0.1m24.9 8.2c-1.2-0.3-9.4-1.8-9.4-1.8-0.5 0-10.1-1.4-10.1-1.4-6.6-1.2-9.4-2-9.4-2m40.7 0.4c-2.3-0.1-7.4-0.1-7.4-0.1-0.8 0-11.2-0.4-11.2-0.4-2.4-0.4-10.4-1-10.4-1-0.6-0.1-7.9-0.5-7.9-0.5l-0.5-0.1m12 9.3c-1-0.2-7.8-1.7-7.8-1.7-1-0.3-7.7-2.6-7.7-2.6-0.7-0.2-1.8-0.9-1.8-0.9m13.5 6.7c-2-0.6-8.3-2.1-8.3-2.1-0.9-0.4-4.5-2.5-4.5-2.5-0.3-0.2-2-1.4-2-1.4m11.8 7.9c-1.8-0.8-5.2-2.4-5.2-2.4-2-0.8-5.8-3.3-5.8-3.3-0.5-0.2-3.6-1.6-3.6-1.6m11.8 8.9c-0.5-0.4-4.4-1.9-4.4-1.9-1-0.5-6.1-3.7-6.1-3.7-0.7-0.5-1.9-2-1.9-2m7.2 10.1c-0.7-0.3-3.7-2.2-3.7-2.2-1.2-0.8-5-4.2-5-4.2-0.3-0.3-2.8-2.8-2.8-2.8m6.6 10.6l-3-2.8c-1.2-1.2-3.6-3.7-3.6-3.7-0.4-0.6-1.8-2.3-1.8-2.3l-0.3-0.4-0.5-0.5m4.6 10.2c-1-0.9-3.5-3.3-3.5-3.3-0.7-0.7-2.8-3-2.8-3-0.5-0.6-1.2-1.5-1.2-1.5m0.9 11.3c-0.3-0.3-2.6-3-2.6-3-0.7-1-3.4-4.9-3.4-4.9m9.2 6.4l-0.5-0.5c-0.7-0.5-3.7-3.4-3.7-3.4-0.8-1.2-2.1-2.9-2.1-2.9"/>
				</g>
			</g>
			<path id="Layer" class="s16" d="m763 157.4q0.2 0 0.3 0.2 0 0.1 0 0.2 0.1 0.2 0 0.3c0 0-1.3 2.2-3.6 2.9-2.1 0.7-2.5 0.8-5 1.3-2.5 0.5-2.3 0.7-4.9 1.1-2.6 0.4-7.5 1.3-7.6 1.3q-0.3 0-0.4-0.1-0.2-0.1-0.3-0.3 0-0.2 0.1-0.4 0.2-0.2 0.4-0.2c0 0 5-1 7.6-1.4 2.6-0.4 2.3-0.5 4.8-1 2.5-0.5 2.9-0.7 5-1.3 1.9-0.6 3-2.4 3-2.4q0-0.1 0.1-0.1 0 0 0-0.1 0.1 0 0.1 0 0.1-0.1 0.1-0.1 0.2 0 0.3 0.1zm-15.9 2.1q0.2 0.1 0.3 0.3 0 0.2-0.1 0.4-0.1 0.2-0.3 0.3l-3.3 1.3q0 0 0 0c-0.9 0.4-2.8 1.3-2.9 1.3q0 0 0 0 0 0 0 0 0 0 0 0 0 0-0.1 0c-0.5 0.1-3.4 0.7-3.5 0.8q-0.2 0.1-0.4 0-0.2-0.2-0.3-0.4-0.1-0.2 0.1-0.4 0.1-0.2 0.4-0.2c0 0 2.9-0.7 3.4-0.8 0 0 0.1 0 0.1 0 0.1-0.1 1.9-0.9 2.8-1.3q0 0 0 0 0 0 0 0 0 0 0 0 0 0 0 0l3.3-1.3q0 0 0 0 0 0 0.1-0.1 0 0 0 0 0 0 0 0 0.2 0 0.4 0.1zm27.1 0.4q0.1 0.1 0.2 0.3 0 0.2-0.1 0.4 0 0.2-0.2 0.2c-0.5 0.3-2.7 1.1-4.9 1.9-2.1 0.8-4.1 1.6-4.1 1.6q0 0 0 0 0 0 0 0 0 0 0 0 0 0-0.1 0c-2.2 0.5-7.2 1.8-7.2 1.8q0 0 0 0 0 0 0 0 0 0 0 0-0.1 0-0.1 0c-4.3 0.3-6.9 0.6-6.9 0.6-0.9 0.2-3.2 0.5-5.4 0.8-2.2 0.3-4.1 0.6-4.2 0.6q-0.2 0-0.4-0.1-0.2-0.1-0.2-0.3 0-0.3 0.1-0.4 0.2-0.2 0.4-0.2c0 0 2-0.3 4.2-0.6 2.2-0.3 4.6-0.7 5.3-0.9q0 0 0 0 0 0 0 0 0.1 0 0.1 0 0 0 0 0c0 0 2.6-0.2 6.9-0.5 0.1 0 0 0 0.1 0 0.1 0 4.8-1.3 7.1-1.8 0 0 0 0 0 0 0.1-0.1 2-0.8 4.1-1.6 2.1-0.8 4.4-1.6 4.8-1.8q0 0 0 0 0 0 0 0 0-0.1 0.1-0.1 0 0 0 0 0.2 0 0.4 0.1zm5.9 6q0.1 0.1 0.2 0.3 0 0.2-0.1 0.4-0.1 0.1-0.3 0.2c-2.1 0.4-9 2.1-9.1 2.1q0 0 0 0 0 0 0 0 0 0 0 0 0 0 0 0c-4.9 0.7-9.6 1.1-9.6 1.1q0 0 0 0 0 0-0.1 0 0 0 0 0 0 0 0 0c-3 0-5 0.3-5 0.3q0 0 0 0 0 0 0 0-0.1 0-0.1 0 0 0 0 0c-3 0.2-11.3 0.3-11.4 0.3q-0.2 0-0.4-0.1-0.2-0.2-0.2-0.4 0-0.2 0.2-0.4 0.1-0.1 0.4-0.1c0 0 8.4-0.2 11.4-0.3 0.1 0 2.1-0.4 5.1-0.4 0 0 0 0 0 0 0.1 0 4.7-0.4 9.6-1.1 0 0 6.8-1.6 9-2q0 0 0 0 0 0 0 0 0 0 0 0 0-0.1 0-0.1 0.2 0 0.4 0.2zm-44.1 6.2q0-0.1 0-0.1 0 0 0 0.1 0.1 0 0.1 0c0 0 2.6 0.3 5.5 0.6 2.8 0.4 5.9 0.8 7.1 1.1 0 0 0.1 0 0.1 0 0 0 2.8 0.4 6.2 0.9 0.1 0 8.5 0.1 11.9 0.2q0.2 0.1 0.4 0.2 0.1 0.2 0.1 0.4 0 0.2-0.1 0.4-0.2 0.1-0.4 0.1c-3.4-0.1-11.9-0.3-12-0.3q0 0 0 0 0 0 0 0 0 0 0 0 0 0 0 0c-3.5-0.5-6.3-0.9-6.3-0.9q0 0 0 0 0 0-0.1 0 0 0 0 0 0 0 0 0c-1-0.2-4.2-0.7-7.1-1-2.8-0.4-5.3-0.7-5.4-0.7q-0.3 0-0.4-0.1-0.2-0.2-0.2-0.4 0-0.2 0.2-0.4 0.1-0.1 0.3-0.1 0 0 0.1 0zm-7.6 2.1q0 0 0 0 0 0 0.1 0 0 0 0 0c0 0 7.3 1.4 10.5 2.6q0 0 0 0c0.1 0 9.4 1.3 10.4 1.4q0.2 0.1 0.3 0.2 0.1 0.2 0.1 0.4 0 0.3-0.2 0.4-0.2 0.1-0.4 0.1c-0.9-0.1-10.3-1.5-10.4-1.5q0 0 0 0 0 0 0 0 0 0-0.1 0 0 0 0 0c-2.9-1.1-10.3-2.6-10.4-2.6q-0.2-0.1-0.3-0.2-0.1-0.2-0.1-0.3 0-0.2 0.1-0.4 0.2-0.1 0.3-0.1 0.1 0 0.1 0zm-6.3 4.6q0 0 0.1 0 0 0 0 0 0.1 0 0.1 0c0 0 2.7 1.3 4.3 2.4q0.1 0 0.1 0c0.1 0 0.7 0.3 1.4 0.6 0.8 0.3 1.8 0.7 2.2 0.8q0.2 0.1 0.3 0.2 0.1 0.2 0 0.4-0.1 0.3-0.2 0.4-0.2 0.1-0.4 0c-0.6-0.1-1.5-0.5-2.3-0.8-0.8-0.4-1.5-0.7-1.5-0.7q0 0 0 0 0 0 0 0 0 0-0.1 0 0 0 0 0c-1.5-1-4.1-2.3-4.2-2.3q-0.2-0.1-0.3-0.3-0.1-0.1-0.1-0.3 0.1-0.2 0.2-0.3 0.1-0.1 0.3-0.1 0 0 0.1 0zm-2.9 1.4q0.1 0 0.1 0 0.1 0 0.2 0.1 0 0 0.1 0c0 0 1.5 1.5 3.2 2.9 0 0 0 0 0 0q0 0 0 0c0.1 0.1 2.5 1.6 4.8 2.6q0.2 0 0.3 0.3 0.1 0.2 0 0.4-0.1 0.2-0.3 0.3-0.3 0-0.5-0.1c-2.4-1-4.9-2.6-4.9-2.6q0 0 0 0 0-0.1 0-0.1 0 0 0 0-0.1 0-0.1 0c-1.7-1.4-3.2-2.8-3.3-2.9q-0.1-0.1-0.1-0.2-0.1-0.2 0-0.3 0-0.2 0.1-0.3 0.2-0.1 0.3-0.1 0.1 0 0.1 0zm-3.9 2q0 0 0.1 0 0.1 0 0.1 0 0.1 0.1 0.1 0.1l1.3 1.2c0 0 0 0 0 0 0.1 0 2.9 1.9 4.7 2.9q0.1 0.2 0.2 0.4 0.1 0.2 0 0.4-0.2 0.2-0.4 0.2-0.2 0.1-0.4 0c-1.8-1.1-4.7-3.1-4.7-3.1q0 0 0 0 0 0-0.1 0 0 0 0 0 0 0 0 0l-1.3-1.2q-0.1-0.1-0.2-0.3 0-0.1 0-0.2 0.1-0.2 0.2-0.3 0.1-0.1 0.3-0.1 0 0 0.1 0zm-2.2 1.7q0.1 0 0.2 0.1 0.1 0 0.2 0.1 0 0.1 0 0.2c0 0 0.1 0.3 0.2 0.6 0 0.2 0.2 0.6 0.4 0.7 0 0.1 2.6 2 3.7 2.7q0.2 0.1 0.2 0.3 0 0.3-0.1 0.4-0.1 0.2-0.3 0.3-0.2 0-0.4-0.1c-1.2-0.8-3.8-2.8-3.8-2.8q0 0-0.1 0 0 0 0 0 0 0 0 0 0 0 0 0c-0.4-0.4-0.5-0.9-0.7-1.3-0.1-0.3-0.1-0.6-0.1-0.6q0-0.1 0-0.2 0-0.1 0.1-0.2 0-0.1 0.1-0.1 0.1-0.1 0.2-0.1 0.1 0 0.2 0zm-4 1.3q0.1 0 0.2 0 0.1 0.1 0.1 0.1 0.1 0.1 0.1 0.1c0 0 0.2 0.3 0.4 0.6 0.2 0.3 0.5 0.6 0.7 0.7q0 0 0 0.1 0 0 0 0 0 0 0 0 0 0 0 0c0 0 1.9 1.7 2.6 2.3q0.2 0.2 0.2 0.4 0 0.2-0.1 0.4-0.1 0.1-0.4 0.2-0.2 0-0.3-0.2c-0.9-0.6-2.6-2.2-2.7-2.3 0 0 0-0.1 0-0.1-0.3-0.2-0.6-0.6-0.9-0.9q-0.3-0.5-0.4-0.6 0-0.1-0.1-0.2 0-0.2 0.1-0.3 0-0.1 0.1-0.2 0.1-0.1 0.3-0.1 0.1 0 0.1 0zm-1.7 2.9q0.1 0 0.2 0 0 0.1 0.1 0.1 0 0 0.1 0.1c0 0 1.2 1.6 1.7 2.6q0.1 0.1 0.1 0.4-0.1 0.2-0.3 0.3-0.2 0.1-0.4 0-0.2 0-0.3-0.2c-0.5-0.9-1.6-2.4-1.7-2.5q0-0.1-0.1-0.2 0-0.2 0.1-0.3 0-0.1 0.1-0.2 0.1-0.1 0.3-0.1 0.1 0 0.1 0zm-2.5 2q0.1 0 0.2 0 0 0 0.1 0.1 0.1 0 0.1 0.1c0 0 1.5 2.2 2 2.9q0.1 0.2 0.1 0.4 0 0.3-0.2 0.4-0.3 0.1-0.5 0.1-0.2-0.1-0.3-0.4c-0.4-0.5-1.9-2.7-2-2.8q0-0.1-0.1-0.3 0-0.1 0.1-0.2 0-0.1 0.1-0.2 0.1-0.1 0.2-0.1 0.1-0.1 0.2 0z"/>
			<path id="Layer" class="s8" d="m619.9 166.9c0 0-3 0.4-3.9 0.4-1 0-2.9-0.4-3.5-0.5-0.6-0.1-3.7-0.6-3.7-0.6 0 0-2.3-0.4-2.8-0.4m17.6 3.4c0 0-5.4 0.6-6 0.6 0 0-4.2 0.1-4.9 0.1l-4-0.3m16.6 0.9c0 0-2.3 0.6-3.3 0.7 0 0-3 0.3-3.8 0.3 0 0-3.3 0.3-4.1 0.3m16.4-0.4c0 0-1.6 0.9-2.1 1.2 0 0-3.7 1-4.3 1.1 0 0-2.8 1-3.3 1m11.6-2.2c0 0-3.2 1.7-4.3 2.2 0 0-2.5 0.8-3 0.8m9.9-2.3l-1.4 1.8-4.8 3.4m10.5-3.6c0 0-2.1 3.2-2.6 3.9 0 0-1.9 1.8-2.4 2.1m11.4-5.3c0 0-2.3 3.7-2.6 4.4 0 0-1.7 1.5-2.1 1.9m10.7-4.4c0 0-0.4 1.8-0.6 2.2l-2.8 3.3m7.8-2.8c0 0-1.4 2.9-2 3.2 0 0-0.6 1.3-1.8 1.7m5.7-3.1c0 0-0.8 1.5-1.1 2 0 0-1.1 1.1-1.8 1.7m3.8-2.2l0.1 1c0 0-1.4 2.1-1.7 2.6m-53.2-19.4c0 0-4.5-0.2-6-0.2 0 0-3.7-0.4-5.9-0.7 0 0-2.4-0.5-3.1-0.6l-3.5-1.9m22.9 6c0 0-5.2 0.2-7.1 0.4 0 0-2.3 0.2-4.5 0.1 0 0-2.5-0.1-4.4-0.1 0 0-5.4-0.3-6.6-0.4l-6.5-1.1m32.4 2.8c0 0-8.1 1.7-9.7 1.7 0 0-4.8 0.5-7.1 0.6 0 0-5.6 0.5-6.8 0.6m28.2-0.7c0 0-8.9 4.1-10.5 4.5 0 0-4.7 1.5-6.4 1.6m21.1-4.5c0 0-3.5 2.7-5.1 3.6l-3.3 1.7m11.4-5.3c0 0-1.4 2.7-2 3.7 0 0-3 3-3.7 3.5m8.2-5c0 0-0.8 1.6-1.5 2.8l-1.9 2.6m8.5-2.6c0 0-1.4 3.3-2.1 4.2l-2.2 2.1m8.5-5c0 0-1.3 2.8-1.7 3.7 0 0-2.5 2.9-2.7 3.4m7.5-6.5c0 0-0.8 3.1-1.4 4.4 0 0-1.5 2.2-2.7 3m7.2-7.3c0 0-0.7 3.4-0.9 4.4 0 0-1 2.3-1.5 3.6m5.7-7.6c0 0 0 3-0.7 4.9 0 0-1 2.4-1 3m7.6-6.2c0 0-0.6 3.6-0.7 5 0 0-1.1 2.2-1.7 3.3m6.7-5.9c0 0-0.8 2-1 3 0 0-0.7 2.2-1.1 2.9m4.9-6.3c0 0 0 3-0.2 4.1l-0.5 2.8m2.7-5.2c0 0 0.3 0.9 0.5 2.2 0 0 0.1 2.4 0.1 3.3m5.6 1.1c-0.5-0.9-2.7-3.1-2.7-3.1-0.8-1.2-2.5-4.6-2.5-4.6"/>
			<path id="Layer" class="s16" d="m585.8 160.8q0 0 0.1 0 0 0 0.1 0 0 0 0.1 0.1c0 0 2.5 1.6 3.9 2.3 1.4 0.7 2 0.8 3.8 1.2 1.8 0.3 2.7 0.3 4.1 0.5q0.2 0 0.4 0.2 0.1 0.2 0.1 0.4 0 0.2-0.2 0.4-0.2 0.1-0.4 0.1c-1.4-0.2-2.3-0.2-4.2-0.6-1.8-0.3-2.6-0.6-4.1-1.3-1.5-0.7-3.9-2.3-4-2.4q-0.1 0-0.2-0.2-0.1-0.1 0-0.3 0-0.2 0.1-0.3 0.1-0.1 0.3-0.1 0 0 0.1 0zm-10.4 2.5q0 0 0.1 0 0 0 0.1 0 0 0 0 0.1c0 0 3.9 2.4 6.9 3.7q0 0 0 0c0.1 0 2.3 0.5 4.8 0.7 0 0 3.6 0.5 5.3 0.9q0 0 0.1 0h5.3q0.3 0 0.4 0.1 0.2 0.2 0.2 0.4 0 0.2-0.2 0.4-0.1 0.1-0.4 0.1h-5.4-0.1c-1.5-0.3-5.3-0.9-5.3-0.9q0 0 0 0c-2.6-0.2-4.9-0.7-4.9-0.7h-0.1c-3.2-1.3-7-3.8-7.1-3.8q-0.2-0.1-0.2-0.3-0.1-0.1-0.1-0.3 0.1-0.2 0.2-0.3 0.1-0.1 0.3-0.1 0 0 0.1 0zm-4.9 5.7q0 0 0 0 0 0 0.1 0.1 0 0 0 0c0 0 5.2 1.2 8.6 1.8q0 0 0 0c0 0 3.6 0.3 6.1 0.5 0 0 3.1 0.2 5.4 0.2h6.8q0.2 0 0.4 0.1 0.1 0.2 0.1 0.4 0 0.2-0.1 0.4-0.2 0.1-0.4 0.1h-6.8c-2.4 0-5.5-0.2-5.5-0.2-2.5-0.1-6.1-0.5-6.1-0.5-3.5-0.6-8.6-1.8-8.7-1.8q-0.2-0.1-0.3-0.2-0.1-0.2-0.1-0.3 0-0.2 0.1-0.4 0.1-0.1 0.3-0.2 0 0 0.1 0zm36.5 5.4q0.2 0.1 0.2 0.3 0.1 0.2-0.1 0.4-0.1 0.2-0.3 0.2c-2.7 0.7-5.9 1.6-5.9 1.6h-0.1c-4.1 0.4-6.9 1.1-6.9 1.1h-0.1c-2.2 0.2-5.4 0.2-5.4 0.2h-0.1c-2.4 0.2-3.8 0.8-3.9 0.9q-0.2 0.1-0.4 0-0.3-0.1-0.4-0.3 0-0.2 0-0.4 0.1-0.2 0.4-0.3c0 0 1.7-0.8 4.3-1 0 0 3.3 0 5.4-0.1 0.1-0.1 2.9-0.7 6.9-1.1q0 0 0 0c0 0 3.3-0.9 6-1.6q0 0 0 0 0 0 0 0 0 0 0 0 0 0 0 0 0.2-0.1 0.4 0.1zm7 2.7q0.2 0.1 0.2 0.2 0.1 0.2 0 0.4-0.1 0.2-0.3 0.3c-1.4 0.7-4.5 2.1-4.5 2.1v0.1h-0.1c-1.9 0.5-4.6 1.2-4.6 1.2h-0.1c-1.1 0.2-4 0.7-4.1 0.8q-0.2 0-0.4-0.1-0.2-0.1-0.3-0.4 0-0.2 0.1-0.4 0.2-0.1 0.4-0.2c0 0 3-0.5 4.1-0.7 0 0 0 0 0 0 0.1 0 2.7-0.7 4.6-1.2 0 0 0.1 0 0.1 0 0.1-0.1 3-1.5 4.4-2.2q0 0 0 0 0 0 0.1 0 0 0 0 0 0 0 0.1 0 0.2-0.1 0.3 0.1zm4.8 0.6q0.1 0.1 0.2 0.2 0.1 0.1 0.1 0.3 0 0.1-0.1 0.3c-0.1 0.3-0.3 0.5-0.6 0.8-0.3 0.3-0.6 0.6-1 0.9-0.6 0.6-1.2 1.1-1.2 1.1v0.1h-0.1c-1.6 0.9-2.3 1.2-2.3 1.2l-1.4 1.2q-0.1 0.2-0.4 0.2-0.2 0-0.3-0.2-0.2-0.2-0.2-0.4 0.1-0.2 0.2-0.4l1.5-1.2v-0.1h0.1c0 0 0.8-0.4 2.2-1.2 0 0 0.6-0.5 1.2-1.1 0.3-0.2 0.7-0.5 0.9-0.8 0.3-0.3 0.5-0.6 0.5-0.6q0-0.1 0.1-0.1 0-0.1 0.1-0.1 0 0 0.1-0.1 0 0 0.1 0 0.1 0 0.3 0zm4.1 2q0.1 0.1 0.2 0.3 0 0.2 0 0.3-0.1 0.2-0.2 0.3c-0.2 0.1-0.5 0.5-0.9 1-0.4 0.4-0.8 1-1.2 1.5-0.8 1.1-1.4 2-1.4 2.1q-0.2 0.2-0.4 0.2-0.2 0-0.4-0.1-0.1-0.1-0.2-0.3 0-0.2 0.1-0.4c0 0 0.7-1 1.5-2.1 0.4-0.5 0.8-1.1 1.2-1.6q0.6-0.7 1-1.1 0 0 0.1-0.1 0 0 0.1 0 0 0 0 0 0.1 0 0.1 0 0.2-0.1 0.4 0zm4.2 2.2q0.1 0 0.2 0.2 0.1 0.1 0.1 0.3 0 0.2-0.1 0.3l-2.4 3q-0.1 0.2-0.3 0.2-0.2 0.1-0.4-0.1-0.2-0.1-0.2-0.3 0-0.2 0.1-0.4l2.3-3.1q0.1 0 0.1 0 0-0.1 0.1-0.1 0 0 0.1 0 0-0.1 0.1-0.1 0.1 0 0.3 0.1zm4.2 2.5q0.1 0.1 0.2 0.2 0 0.2 0 0.3 0 0.2-0.1 0.3l-2.7 3.3q-0.1 0.1-0.4 0.2-0.2 0-0.4-0.2-0.1-0.1-0.1-0.3-0.1-0.3 0.1-0.4l2.7-3.3q0 0 0.1 0 0-0.1 0.1-0.1 0 0 0.1 0 0-0.1 0.1-0.1 0.1 0 0.3 0.1zm5 0.4q0.2 0.1 0.2 0.2 0.1 0.1 0.1 0.3-0.1 0.2-0.2 0.3l-2.7 3.2q-0.1 0.2-0.3 0.2-0.2 0-0.4-0.1-0.2-0.1-0.2-0.4 0-0.2 0.1-0.4l2.7-3.2q0.1 0 0.1-0.1 0.1 0 0.1 0 0.1-0.1 0.1-0.1 0.1 0 0.1 0 0.2 0 0.3 0.1zm6.4 0.9q0.2 0 0.3 0.1 0 0.2 0 0.3 0 0.2 0 0.3c0 0-0.6 1.1-1.2 2.3-0.3 0.6-0.6 1.2-0.8 1.7q-0.1 0.4-0.2 0.7c-0.1 0.2-0.1 0.3-0.1 0.3q0 0.2-0.1 0.3-0.2 0.2-0.4 0.2-0.2 0-0.4-0.2-0.1-0.1-0.1-0.3c0-0.3 0-0.4 0.1-0.6q0.1-0.4 0.3-0.8c0.2-0.5 0.5-1.1 0.8-1.7 0.6-1.3 1.1-2.4 1.2-2.4q0-0.1 0-0.1 0.1-0.1 0.1-0.1 0.1 0 0.1-0.1 0.1 0 0.2 0 0.1 0 0.2 0.1zm3.8 0.1q0.1 0.1 0.2 0.2 0.1 0.1 0.1 0.2 0 0.1 0 0.2c0 0-0.3 1.1-0.6 2.3-0.3 1.2-0.7 2.4-1.1 3.1q0 0.2-0.3 0.3-0.2 0-0.4-0.1-0.2-0.1-0.2-0.3-0.1-0.2 0-0.4c0.2-0.4 0.7-1.8 1-2.9 0.3-1.2 0.6-2.2 0.6-2.2q0-0.1 0-0.2 0.1 0 0.1-0.1 0.1 0 0.2-0.1 0 0 0.1 0 0.1 0 0.3 0zm-7.9 0.2q0.1 0 0.2 0.2 0.1 0.1 0.1 0.2 0 0.2 0 0.3l-2.4 5.1q-0.1 0.2-0.3 0.3-0.2 0-0.4-0.1-0.2-0.1-0.3-0.3 0-0.2 0.1-0.4l2.3-5q0-0.1 0.1-0.1 0-0.1 0.1-0.1 0-0.1 0.1-0.1 0 0 0.1 0 0.1-0.1 0.3 0zm13.5 2.4q0.1 0 0.2 0.1 0.1 0.1 0.1 0.3 0 0.1 0 0.2c0 0-1.1 2.9-1.8 4.7q-0.1 0.2-0.3 0.3-0.2 0.1-0.4 0.1-0.2-0.1-0.3-0.3-0.1-0.3 0-0.5c0.7-1.8 1.8-4.6 1.8-4.6q0-0.1 0.1-0.2 0 0 0.1-0.1 0 0 0.1-0.1 0.1 0 0.2 0 0.1 0 0.2 0.1zm13 1.5q0.1 0 0.1 0.1 0.1 0 0.1 0 0.1 0.1 0.1 0.1c0 0 0.9 1.1 2.2 2.5q0.1 0.2 0.1 0.4 0 0.2-0.2 0.4-0.1 0.1-0.4 0.1-0.2 0-0.3-0.2c-1.3-1.4-2.1-2.4-2.2-2.5q-0.1-0.1-0.1-0.3 0-0.1 0-0.2 0.1-0.2 0.2-0.3 0.1-0.1 0.3-0.1 0 0 0.1 0zm-9.6 0.2q0.1 0.1 0.2 0.1 0 0.1 0.1 0.2 0 0.1 0 0.2v2.6q0 0.2-0.1 0.3-0.2 0.2-0.4 0.2-0.2 0-0.4-0.2-0.1-0.1-0.1-0.3v-2.6q0-0.1 0-0.2 0 0 0.1-0.1 0.1-0.1 0.2-0.1 0.1-0.1 0.2-0.1 0.1 0 0.2 0zm3.2 0q0.1 0.1 0.2 0.1 0.1 0.1 0.1 0.2 0.1 0.1 0.1 0.3c0 0-0.1 0.8-0.1 1.7 0 0.4 0 0.9 0.1 1.3 0 0.4 0.1 0.8 0.1 0.9q0.1 0.2 0 0.4 0 0.3-0.3 0.3-0.2 0.1-0.4 0-0.2-0.1-0.3-0.3c-0.1-0.4-0.1-0.8-0.2-1.2q0-0.7 0-1.4c0-1 0-1.7 0-1.8q0-0.1 0.1-0.2 0 0 0.1-0.1 0-0.1 0.1-0.1 0.1-0.1 0.2-0.1 0.1 0 0.2 0zm2.4 1.5q0.1 0 0.1 0 0.1 0 0.2 0 0 0.1 0.1 0.1c0 0 1.2 1.5 2.2 2.8q0.1 0.2 0.1 0.4-0.1 0.2-0.3 0.3-0.1 0.1-0.4 0.1-0.2 0-0.3-0.2c-0.9-1.2-2.1-2.6-2.1-2.7q-0.1-0.1-0.2-0.2 0-0.2 0.1-0.3 0-0.1 0.1-0.2 0.1-0.1 0.3-0.1 0.1-0.1 0.1 0z"/>
		</g>
	</g>
</svg>