<svg version="1.2" xmlns="http://www.w3.org/2000/svg" viewBox="0 0 900 600" width="900" height="600">
	<title></title>
	<style>
		.s0 { fill: #00247d } 
		.s1 { fill: none;stroke: #ffffff;stroke-width: 52 } 
		.s2 { fill: none;stroke: #ffffff;stroke-width: 86.7 } 
		.s3 { fill: none;stroke: #cf142b;stroke-width: 52 } 
		.s4 { fill: #0f4b32 } 
		.s5 { fill: #ffffff } 
		.s6 { fill: #f5c300;stroke: #000000;stroke-width: .8 } 
		.s7 { fill: #ce0f25 } 
		.s8 { fill: #e91a00 } 
		.s9 { fill: #a60000 } 
		.s10 { fill: none;stroke: #780000;stroke-width: .3 } 
		.s11 { fill: #ce0f25;stroke: #780000;stroke-width: .3 } 
		.s12 { fill: #780000 } 
		.s13 { fill: #a60000;stroke: #000000;stroke-opacity: 0;stroke-width: .3 } 
		.s14 { fill: #e91a00;stroke: #780000;stroke-width: .3 } 
		.s15 { fill: #d35f5f } 
		.s16 { fill: #9b3b6d;stroke: #c2779e;stroke-width: .2 } 
		.s17 { opacity: .7;fill: none;stroke: #c2779e;stroke-width: .2 } 
		.s18 { fill: #0f4b32;stroke: #000000;stroke-width: .3 } 
		.s19 { opacity: .7;fill: none;stroke: #000000;stroke-width: .3 } 
		.s20 { opacity: .7;fill: #337321;stroke: #000000;stroke-width: .3 } 
		.s21 { fill: #0f4b32;stroke: #000000;stroke-width: .2 } 
	</style>
	<g id="Layer">
		<path id="Layer" class="s0" d="m0 0h450v300h-450z"/>
		<g id="Layer">
			<path id="Layer" class="s1" d="m0 0l450 300m0-300l-450 300"/>
			<path id="Layer" class="s2" d="m225 0v300m-225-150h450"/>
			<path id="Layer" class="s3" d="m225 0v300m-225-150h450"/>
		</g>
		<path id="Layer" class="s0" d="m0 300h900v300h-900zm450-300h450v600h-450z"/>
		<g id="layer">
			<path id="path6684" class="s4" d="m797.5 150v120c0 143-122.5 180-122.5 180 0 0-122.5-37-122.5-180v-120z"/>
			<path id="path6686" class="s5" d="m797.5 240h-245v-90h245z"/>
			<path id="rect1972" class="s6" d="m686.3 250.4v32h-1.4v139.3c0 5.5-4.4 9.9-9.9 9.9-5.5 0-9.9-4.4-9.9-9.9v-139.3h-1.4v-32z"/>
			<path id="path1999" class="s6" d="m779.7 295.2c0 0-37.5-20.5-104.7-20.5-66.7 0-104.7 20.5-104.7 20.5 0 0 52.3-42.2 104.7-42.2 52.4 0 104.7 42.2 104.7 42.2z"/>
			<g id="g5858">
				<g id="g5674">
					<g id="g5672">
						<path id="path5560" fill-rule="evenodd" class="s7" d="m719.6 197.6c1.6 1 5.8 2 7.4 3.1 1.4 0.8 1.9 1.9 3.3 2.7 1 0.6 1.5 0.9 2.5 0.6 1.2-0.3 3.9-1.8 3.9-1.8 0 0-0.1 2.7-0.5 3.7-0.6 1.7-1.9 3.3-1.9 3.3 0 0 0.7 0.2 1.2 0.1 0.5-0.1 1.4-0.8 1.4-0.8 0 0-0.3 3.8-0.8 5.2-0.4 1.1-1.5 2.5-1.8 3.8-0.2 1-0.1 3.5-0.1 3.5 0 0 2 1.6 2.6 2.1 0.6 0.4 0.7 0.5 0.9 1.4 0.1 0.6-0.2 1.5-0.6 1.9-0.5 0.5-0.9 0.4-1.5 0.3-0.9-0.3-2.1-1.3-3.1-1.2-0.4 0-1.1 0.5-1.3 1.1-0.5 1.1 0.2 2.8 0.1 4-0.1 0.6-0.4 0.7-0.8 1-0.4 0.4-1 0.5-1.4 0.2-0.5-0.2-0.8-0.5-1-1.1-0.3-1.3 0.3-3.5-0.3-4.6-0.2-0.4-1.1-0.7-1.1-0.7 0 0-2.3 3.6-3.5 4.3-0.4 0.3-1.2 0.3-1.7 0.1-0.4-0.2-0.6-0.9-0.8-1.5-0.2-0.6 0.2-1.4 0.4-2 0.2-0.8 1.7-1.8 2.3-2.6 0.4-0.7 0-1.2 0-1.2 0 0-2.8-0.1-3.5-1.1-0.3-0.4-0.4-1.4-0.3-2 0.1-0.5 0.2-1 0.4-1.3q0.1-0.3 0.3-0.4c0.6-0.4 1-0.3 1.6-0.1 0.9 0.3 2.3 1.1 3.4 0.9 1.1-0.2 1.4-0.5 1.9-1.8 0.4-1.2 0.6-3.5 0-4.6-0.6-1-1-0.9-1.9-1.1-2.2-0.3-6.9 0.5-6.9 0.5 0 0-1.8 2.5-2.8 3-0.8 0.3-2.9-0.1-2.9-0.1 0 0 1.3-1.9 1.6-2.9 0-0.3 0-0.8 0-1.1-0.2-1.2-0.8-2.8-1.4-3.6-0.7-0.7-2-0.6-2.8-1.1-1.5-0.8-3.6-2.2-4.9-3.5-1-1-1.9-3.2-3-3.9-1.3-0.6-4.5 0-4.5 0 0 0-0.4 4.1 0.6 5.3 0.6 0.7 1.5 0 1.5 0 0 0-1.1 6.2-3 11.2-1.6 4.5-4.1 7.9-4.1 7.9-0.6 0.9-1.3 1.4-1.3 1.4 0 0 0-1.1 0-1.7-0.1-0.5-0.4-1.7-0.4-1.7 0 0-0.6 1.7-1.1 2.8-0.3 0.6-1.2 1.7-2.1 2.5-1.1 0.9-2.2 1.5-2.2 1.5 0 0 0.7-2.1 0.3-2.8-0.2-0.3-1.4 0-1.4 0l-4 0.2c0 0 0.3 2.8 0 3.9-0.1 0.5-0.3 1.3-0.6 1.6-0.7 0.5-1.1 0.3-1.7-0.1-0.4-0.1-0.7-0.6-0.8-1-0.4-1.4 0.2-5 0.2-5 0 0-0.9-0.5-1.4-0.3-1.2 0.5-2.2 3-3.2 4-0.4 0.4-0.9 0.6-1.4 0.5-0.8-0.1-1.2-0.9-1.7-1.7-0.3-0.4-0.2-0.4-0.2-1 0.2-1.6 2.5-3.7 3.2-4.9 0.3-0.4-0.3-0.9-0.3-0.9 0 0-3.3 0.3-4.4-0.6-0.5-0.4-0.7-1-0.8-1.8-0.2-1-0.1-1.5 0.2-2.5 0.3-0.7 0.8-1 1.3-1.3 1.1-0.4 3.1 1.1 4 1.5 0.3 0.1 0.5-0.8 0.5-0.8 0 0-1.4-4.5-1.2-6 0-0.6 0.4-1.3 0.8-1.6 0.9-0.7 1.9-0.8 2.9-0.1 0.3 0.3 0.5 0.9 0.6 1.4 0.2 1.6 0.2 5 0.2 5 0 0 1.5-0.2 2.6 0 1.3 0.3 2.2 1.1 3 0.7 1.1-0.4 1.5-1.7 2.2-3 0.9-1.7 1.4-6.8 1.4-6.8 0 0-1.9-0.8-2.6-0.9-1.1-0.2-1.5-0.6-2.4-1.5-0.6-0.7-1.4-2-1.4-2 0 0 1.3 0.4 2.5 0 0.8-0.2 1.5-1 2-1.3 0.7-0.5 1.2-2.1 2-3 0.9-1.1 1.9-1.4 1.9-1.4 0 0-1.2-0.2-1.7-0.1-0.8 0-2.7 0.5-2.7 0.5 0 0-3.6 1.2-7 3.6-2.8 1.8-4.6 4-6.5 4.7-2.5 1-6.7 0.8-9.2 1.6-3.3 1-6.4 2.9-9.3 5.3-0.7 0.7-2 1.6-2.2 2.9-0.2 1.3 1.3 4.2 1.3 4.2 0 0-2.2-0.1-3-0.6-0.7-0.4-1.7-1.3-2.4-1.1-1.5 0.3-2.1 0.6-2.5 2.3-0.2 1 1.4 3.3 1.4 3.3 0 0-2.7 0.4-3.3-0.3-0.7-0.7-1.3-1.6-2.1-2-1.2-0.5-2 0.4-1.3 1 0.8 0.8 1.1 3.3 1.1 3.3 0 0-3.5 0.1-5 0.1-1.4 0.1-2.8 1.4-4.2 1.7-1.3 0.3-4.5-0.3-4.5-0.3 0 0 0.3 1.4 0.2 2.6-0.1 0.5 0 1.4-0.4 2-0.3 0.4-0.8 0.5-1 0.5-0.6 0.1-1.2-0.1-1.6-0.8-0.2-0.3-0.9-2.2-0.9-2.7 0-0.7-1.5 0.1-1.5 0.1 0 0-1.7 2.5-3 3.3-0.6 0.4-1.2 0.9-1.8 0.6-0.6-0.2-1.1-1.2-1.3-1.9-0.1-0.8 0.1-1.6 0.5-2.3 0.5-1 2.1-1.9 2.7-2.6 0.3-0.3-0.4-1.5-0.4-1.5 0 0-1.9 0-3.1-0.7-0.3-0.2-0.7-0.8-0.9-1.4-0.1-0.7-0.1-1.9 0.2-2.6 0.2-0.4 0.7-0.8 1.1-1 1.4-0.4 4.7 0.6 4.7 0.6 0 0-0.5-3.4-0.1-4.6 0.2-0.6 0.7-0.7 1.1-0.9 0.6-0.2 0.8-0.2 1.4 0.1 0.5 0.2 1 0.8 1.2 1.4 0.2 1.1 0 4.1 0 4.1l1.6-0.1c0 0 1.3-1.4 1.9-2.1 1.2-1.5 3-3 4.5-3.9 1.5-0.9 3.4-1.7 4.5-3.4 0.6-1 1.1-1.8 0.8-3.1-0.4-1.5-1.2-2.7-2.3-3.7-0.7-0.6-2.2-3.1-2.2-3.1 0 0-0.4 2.3-0.8 2.9-0.5 0.5-2.1 1-2.1 1 0 0 0.3-1.4 0.2-2.1 0-0.6-0.7-2.1-0.8-2.6-0.2-1 0.2-2.6 0.2-2.6 0 0-0.7-0.4-1.1 0-0.6 0.5-0.4 1.8-0.9 2.5-0.6 0.6-1.9 1.1-1.9 1.1 0 0 0.5-1.4 0.4-2.4-0.1-1.1-0.7-1.7-0.9-2.9-0.2-1.2 0.6-2.5 0.6-2.5 0 0-0.8-1.2-1.6-1.7-0.8-0.6-1.8-0.4-2.3 0.1-0.5 0.6-0.4 1.1-0.7 1.9-0.3 0.7-0.9 1-1.5 1-0.5 0-1.2-0.6-1.5-1-0.4-0.5-0.3-1.4-0.2-2.1 0.1-1.2 0.7-2 0.9-2.9 0.2-1.1-0.4-3.6-0.4-3.6 0 0-2.5 0.1-3.7-0.6-0.4-0.2-1.1-0.8-1.2-1.3-0.2-1.2-0.2-1.9 0.4-2.8 0.4-0.7 1.6-1 2.3-0.8 0.9 0.2 1.9 2 2.8 1.5 0.7-0.3 0.8-0.2 0.8-1.3-0.1-0.8-1.2-2.6-1.4-3.6-0.1-0.8-0.3-2 0-2.6 0.6-1 1.4-1.5 2.3-1.3 0.4 0 0.9 0.5 1.1 1 0.6 1.2 0.2 3.5 1 4.4 0.5 0.7 1.6 1.3 2.2 0.8 0.8-0.6 0-2.8 0.6-3.9 0.3-0.6 1.1-1.1 1.7-1 0.8 0 1.3 0.6 1.7 1.5 0.2 0.5 0.1 1.3 0 1.9-0.4 1.4-1.5 2.4-1.7 3.6-0.2 1.2 0.2 3.9 0.2 3.9 0 0 4.8 2.7 6.3 3.5 3.6 1.8 6.7 5.4 10 8 1.6 1.2 3.3 2.5 5.1 2.6 1.4 0.2 3.8-1.3 4.9-2.3 1.8-1.5 2.8-5.2 4.5-6.3 2-1.2 5.1-0.6 7.2-0.2 2 0.3 4.2 1.6 6.2 1.8 3.6 0.2 10.9-1.8 14.5-2.4 4.3-0.6 7.1-1.1 11.5-1 3.7 0.1 4.6-0.1 8.3 0.8 0.6 0.1 2.8 0.6 4.3 1.1 2.4 0.8 3.8 1.4 5.5 1.5 1 0 1.3-0.2 2.3-0.8 0.5-0.4 0.9-1.7 0.9-2.5-0.1-0.7-0.4-1.7-0.8-2.2-0.8-1.2-2.3-2.2-3.4-2.6-2-0.7-4.7-0.4-6.8-0.2-1.6 0.1-3.2 0.6-4.8 0.8-2 0.4-4.4 1-6.3 1-1.8 0.1-4.2-0.4-5.8-1.6-1.1-0.8-1.8-2.3-2.2-3.9-0.4-1.6-0.3-3.9 0.2-5.5 0.8-2.8 2-4.4 3.9-6.1 1.2-1.1 4-2.6 5.5-3 3.9-1.1 8.6-1.2 12.5-0.2 2.7 0.6 5.6 3.1 8.3 4.3 1.9 0.9 5.7 3.3 7.9 3.8 2.1 0.4 4.3 0.5 6.2-0.7 1.2-0.8 2.3-4.3 2.3-4.3 0 0 0.2 0.7 0.3 1 0.1 0.7 0.2 1.7 0.2 1.7 0 0 0.8-1.8 2.1-3.3 0.8-0.8 2-0.4 2.5-1.3 0.3-0.5 1.3-2.6 1.3-2.6 0 0 0.6 2.9 0.3 4.6-0.3 1.7-0.9 3.8-1.7 5-0.7 1.1-1.8 2-1.8 2 0 0 0.9 0.2 1.5 0.8 0.5 0.5 0.3 2.9 0.3 2.9 0 0-1-1.2-1.7-1.2-0.8-0.1-3.6 1.6-4.4 1.9-2.1 0.8-5 0.9-7.1 0.2-2.6-0.8-5.6-3.4-8-5-2.4-1.6-5.3-4.6-7.9-5.7-1.4-0.6-3.6-1.1-5.1-1.3-1.7-0.2-3.9-0.3-5.5 0-1.5 0.3-3.4 1.1-4.7 2.1-1.1 0.8-2.6 2.1-3.4 3.4-0.5 0.7-1 1.8-1.2 2.8-0.2 0.9-0.2 2.5 0.2 3.4 0.5 1 1.5 1.4 2.3 1.6 2.5 0.6 6-0.5 8.5-0.7 2.9-0.2 7.5-1.1 10.4-0.8 2.3 0.3 4.2 0.8 6.1 2.2 1 0.7 2 2.5 2.5 3.7 0.4 0.9 0.7 2.3 0.7 3.4 0 1.3-0.4 3-0.9 4.1-0.7 1.3-3.2 3-3.2 3 0 0 1.6 4.8 3.4 5.8z"/>
						<path id="path5562" fill-rule="evenodd" class="s8" d="m650 193.7c0.9-0.5 2.8-2.6 2.8-2.6l1.9-3.8 2.3-1.9 2.5-0.3 4.9 0.9 4.3 1.5 2.1-0.1 3.5-0.3 5.3-1 4.8-0.9 4.7-0.8 6.6-0.2 5 0.2 6.1 1.1 5.6 1.8 2.6 0.1-1.4 1.3c0 0-5.2-1.3-7.4-1.7-2.1-0.4-5-0.8-7.1-0.9-2.6-0.1-5.9-0.1-8.4 0.3-2.5 0.3-5.8 1.2-8.2 2-2.5 0.8-5.6 2.4-8.1 2.9-1.7 0.3-4.1 0.3-5.8 0-1.9-0.3-4.3-1.8-6.2-2.2-1.2-0.2-2.9-0.7-4-0.1-1.2 0.6-2.1 3.2-3.3 4.1-1.6 1.3-4 2.4-5.8 2.5-0.9 0-3-1-3-1 0 0 2.6-0.2 3.7-0.9z"/>
						<path id="path5564" fill-rule="evenodd" class="s9" d="m690.9 188.7c0 0 3.9-0.5 5.6 0 1.6 0.5 3.6 1.7 4.9 3 1.2 1.3 2.3 3.8 3.3 5.4 0.9 1.4 1.9 3.5 2.9 4.8 1.1 1.5 4.2 4.3 4.2 4.3l0.1 0.3-2-1.1-4.3-2.7-2.2-3.2-2.6-2.5c0 0-1.2-2.5-1.9-3.4-0.8-1.1-2-2.2-3-2.8-1.4-0.9-5-2.1-5-2.1z"/>
						<path id="path5566" fill-rule="evenodd" class="s9" d="m715.6 212.2c0.3-0.4 0.8-1 1-1.5 0.3-0.7 0.7-1.1 0.8-1.8 0-0.8 0.2-1.8 0.2-2.5-0.1-0.7-0.6-2.5-0.6-2.5 0 0 1.2 0.7 1.5 1.3 0.4 0.6 0.5 1.8 0.5 2.6 0 1.1-0.3 2.6-0.7 3.6-0.3 0.8-1 1.6-1.6 2.2-0.4 0.4-0.9 1-1.4 1.1-0.7 0.1-2.4-0.6-2.4-0.6 0 0 1.9-1.2 2.7-1.9z"/>
						<path id="path5568" fill-rule="evenodd" class="s8" d="m715.8 191.8l2.7 4.9 1.7 1.3 3.8 1.4 2.6 0.8 3.5 3.1 2.2 0.7 2.1-0.5 1.9-1.1c0 0-0.7 1.7-1.2 2.3-0.7 0.8-1.9 1.5-2.8 1.7-0.9 0.2-2 0.2-2.8-0.3-1-0.6-1.8-2.6-2.7-3.4-1-0.7-2.4-1.2-3.5-1.6-1.2-0.4-3-0.2-4.1-1-0.9-0.6-2.1-2-2.6-3.3-0.5-1.3-0.8-5-0.8-5z"/>
						<path id="path5570" fill-rule="evenodd" class="s9" d="m726.8 171l1.6-1 0.9-0.9 2-0.7 0.9-1.1 1.2-3.1 0.8 2 1.8-2.8 2.4-1 1.6-3 0.3 2.3v2.3l-0.6 2.2-0.6 2-1.3 2-0.9 0.7 1.6 1.3 0.1 2.7-1.7-1.5-1.1 0.3-1.7 1-1.9 0.8-2.8-0.5c0 0 2.2-0.4 3.1-0.8 0.9-0.5 3-2.2 3-2.2 0 0-1.6 1-2.3 1.2-0.5 0.1-1.7 0.1-1.7 0.1 0 0 1.3-0.7 1.8-1.1 0.6-0.6 1.9-1.7 3-3.5 1-1.5 1.3-2.7 1.3-2.7 0 0-2.2 2.9-2.8 3.2-0.6 0.3-1.8 1.5-2.6 2.4-0.4 0.4-1 0.3-1 0.3 0 0 0.5-0.4 0.8-1 0.4-0.8 1.1-1.7 1.1-2.2 0-0.3-0.1-0.9-0.1-0.9 0 0-0.5 1.1-0.8 1.4-0.6 0.7-1.6 1.1-2.4 1.4-0.9 0.3-3 0.4-3 0.4z"/>
						<path id="path5572" fill-rule="evenodd" class="s8" d="m623.6 217.4c0 0 1.8-3.8 2.8-4.7 0.8-0.9 3-2.1 3-2.1l3.1-1.8 2.1-2.1 1.2-1.8c0 0 2-3.7 4.3-4.7 1.1-0.5 6.4-1.3 6.4-1.3 0 0-5.2 4.9-7.3 7.3-1.2 1.4-2.5 3.1-3.8 4.2-0.9 0.7-3.9 2.4-6.6 3.8-1.2 0.6-2.8 2-3.6 2.7-1 0.8-1.6 0.5-1.6 0.5z"/>
						<path id="path5574" fill-rule="evenodd" class="s8" d="m640.2 194c-1.8-0.9-3.8-4-5.4-5.2-1.4-1.2-3.6-1.2-5.1-2.2-1.4-1-2.8-2.7-3.7-4.2-0.3-0.5-0.8-1.9-0.8-1.9l5 2.6 5.5 3.5 5.6 5.4 4.5 2.4c0 0-3.9 0.5-5.6-0.4z"/>
						<path id="path5576" fill-rule="evenodd" class="s9" d="m634.2 201.8l-1.9-2.5-1.6-2.4-0.9 3-2.2 1.3 0.4-1.6c0 0 1.1-0.4 1.3-0.8 0.2-0.4 0-1.1 0.1-1.5 0.1-0.9 0.2-1.8 0.7-2.4 0.2-0.2 0.5-0.3 0.7-0.2 1.2 0.6 2.4 2.1 3.1 3.6 0.7 1.5 1.5 5.5 1.5 5.5z"/>
						<path id="path5578" fill-rule="evenodd" class="s9" d="m624 194.3c0 0 0.5-0.3 0.9-0.9 0.3-0.6 0.4-1.5 0.7-1.7 0.4-0.2 1-0.3 1.3 0 0.3 0.3 0.4 1.7 0.4 1.7h-0.5l-0.8 0.4-0.6 2.4-2.1 1z"/>
						<path id="path5580" fill-rule="evenodd" class="s9" d="m658.8 204.9l-2.6 1.2-3.2 2.4-3.1 2.6-0.6 1.3 0.1 1.6 1.4 2.9-2-0.5-1.8-0.6-1.6-0.9c0 0 0 0-1.5 0.4l-0.9 0.9-0.2 1.6 1.5 2.9-3.3-0.2-2.2-2.1h-1.3l-0.3 0.6 0.9 1.5 0.4 2.2-2.7 0.1-3.1 0.2-3.1 1.3-4.5-0.1c0 0 4.4-1.8 5.1-2.4 0.8-0.9 2.3-1.5 3.4-2.4 1.2-1 2.1-2.6 3.5-3 1.1-0.4 2.7 0.7 3.7 0.1 1-0.5 1.6-2.8 2.6-3.4 0.9-0.5 2.4 0.8 3.2 0 0.6-0.4 0.5-2 0.9-2.7 0.8-1.2 2.3-2 3.3-2.7 0.8-0.6 1.9-1.3 2.7-1.8 1.2-0.6 2.9-1.4 4.1-1.7 1-0.2 3.4-0.2 3.4-0.2z"/>
						<path id="path5582" fill-rule="evenodd" class="s9" d="m653.1 206.6c0 0 0.5-0.3 0.9-0.7 1.2-1.1 3.3-2.2 4.6-2.9 1.3-0.6 2.8-1.1 4.1-1.3 1.4-0.3 3.7-0.1 5.1-0.5 0.8-0.2 1.8-0.8 2.5-1.3 0.9-0.6 3-2.6 4.1-3.3 1.1-0.8 1.9-1.5 3.2-1.9 1.3-0.5 3.1-1.5 4.4-1.5 1.6-0.1 5.4 0.7 5.4 0.7h-2.9l-3.4 1.4-3.7 2-4 3.3-4 2.2-2.2 0.5-4.3 0.5-2.8 0.7-5.4 2.7z"/>
						<path id="path5584" fill-rule="evenodd" class="s9" d="m623.9 189.3l-1.8-1.8-1.5-0.2-1 0.6-0.6 1.3-0.5 1.2-1.2 0.1c-0.7 0-1-0.5-1.4-1l-0.1-1.9c0 0 0.7 1.1 1.1 1.3 0.3 0.2 0.8 0.2 1.1 0 0.4-0.4 0.4-1.6 0.8-2.1 0.3-0.5 0.9-1 1.5-1.2 0.5-0.2 1.5-0.2 2 0.1 0.3 0.1 0.7 0.6 0.8 1 0.2 0.3 0.5 0.9 0.7 1.4 0.1 0.6 0.1 1.2 0.1 1.2z"/>
						<path id="path5586" fill-rule="evenodd" class="s9" d="m616.8 184.5l-0.1-1.4-0.5-2-3.2-0.3-1.4-1.1-0.3-1.6c0 0 0.5 0.4 0.8 0.6 0.5 0.3 1.2 0.6 1.7 0.7 0.7 0.2 1.7 0.3 2.4 0.2 0.3-0.1 0.6-0.6 0.9-0.5 0.2 0.1 0.4 0.4 0.5 0.6 0.4 1.2 0.7 3.2 0.3 4.4-0.2 0.5-1.3 1-1.3 1z"/>
						<path id="path5588" fill-rule="evenodd" class="s8" d="m611.8 176.4c0 0 2-1.4 2.4-0.8 0.6 0.7 3.1 2.3 3.3 1.8 0 0-0.1 0.5-0.5 0.6-0.3 0.2-0.9 0-1 0-0.5 0.1-1.1-0.7-1.5-0.9-0.4-0.2-0.9-0.4-1.3-0.4-0.4 0-1.4 0.1-1.4 0.1 0 0 0-0.4 0-0.4z"/>
						<path id="path5590" fill-rule="evenodd" class="s8" d="m616.6 169.2l1.2-1.1 1.4 0.5 0.7 1.2c0 0 0.2 2.2 0.5 3 0.1 0.4 0.3 1 0.5 1.3 0.4 0.4 1 0.6 1.5 0.6 0.2 0 0.6 0 0.8-0.3 0.3-0.6 0-2.7 0-2.7l0.6-1.6 1.7-0.5 1.4 1.3 0.1 2.1c0 0-0.5-1.3-0.8-1.6-0.5-0.3-1.2-0.3-1.6 0-0.3 0.3-0.3 1.1-0.4 1.6-0.2 0.6-0.2 1.7-0.6 2.2-0.2 0.3-0.5 0.5-0.9 0.5-0.4 0.1-1.2 0-1.6-0.2-0.3-0.2-0.7-0.4-1-0.7-0.3-0.4-0.8-1.2-1-1.7-0.3-0.7-0.1-1.8-0.3-2.4-0.2-0.4-0.7-0.9-1.1-1-0.3-0.1-0.7 0.2-0.9 0.5-0.3 0.2-0.7 0.8-0.7 0.8-0.1-0.7 0.1-1.3 0.5-1.8z"/>
						<path id="path5592" fill-rule="evenodd" class="s9" d="m625.4 179.8c0 0-0.7-1-1.1-1.3-0.5-0.4-1.2-0.6-1.9-0.6-0.5 0-1.5 0.5-2 1-0.5 0.4-0.4 0.6-0.6 1.3-0.2 0.5-0.5 2.1-0.5 2.1 0 0-0.2-1.2-0.2-1.7 0-0.9 0.3-1.9 0.7-2.6 0.2-0.5 0.7-1 1.1-1.2 0.8-0.2 1.8-0.4 2.5-0.2 0.5 0.1 1.7 0.8 1.7 0.8z"/>
						<path id="path5594" fill-rule="evenodd" class="s8" d="m624.7 217.1c0 0-1.1 0.6-1.6 0.7-0.6 0.1-1.7 0.3-2.1-0.4-0.4-0.6 0.2-1.8 0.1-2.6 0-0.7 0.1-1.7-0.2-2.2-0.3-0.4-0.9-0.5-1.3-0.5-0.5 0.1-1.5 0.8-1.5 0.8l0.1-1.6 1.2-0.7h1l1.2 1.1 0.3 1.5-0.1 3 1.4 0.1 1-0.5z"/>
						<path id="path5596" fill-rule="evenodd" class="s8" d="m615 216.9c-0.4 0.1-1 0-1.3 0.4-0.3 0.4-0.4 1.2-0.4 1.7 0.1 0.8 1 2.2 1 2.2l-1.2-0.5-0.9-1.7-0.1-1.8 0.4-0.9 1-0.7 2.2-0.1 3 1.3c0 0-2.6-0.1-3.7 0.1z"/>
						<path id="path5598" fill-rule="evenodd" class="s9" d="m624.8 223.9l0.4 3.3-0.7 1.6-1.4 0.5-0.9-0.4-1.1-3.2h-1.4l-2.1 2.5-2.1 1.7-1-0.3-1-2c0 0 1.2 0.5 1.7 0.3 0.6-0.1 1.3-0.8 1.8-1.2 0.7-0.6 1.4-1.8 2.2-2.1 0.5-0.3 1.2-0.4 1.8-0.3 0.3 0.1 0.7 0.5 0.9 0.8 0.4 0.6 0.4 2 0.9 2.4 0.3 0.2 0.8 0.3 1.1 0 0.3-0.3 0.3-1 0.4-1.4 0.1-0.7 0-2.5 0-2.5z"/>
						<path id="path5600" fill-rule="evenodd" class="s9" d="m621.9 216.3h1.1c0 0-1.6 1-2.2 1.6-0.5 0.4-1.1 0.9-1.4 1.5-0.2 0.6-0.3 1.6-0.2 2.2 0 0.5 0.2 1.4 0.2 1.4 0 0-0.7-0.6-0.9-1-0.3-0.8-0.4-2.2-0.2-3 0.2-0.9 0.9-1.8 1.5-2.4 0.5-0.6 2.1-1.3 2.1-1.3z"/>
						<path id="path5602" fill-rule="evenodd" class="s9" d="m699.9 198.2h-2.2l-0.1 1.7 0.5 3.6 1 0.3 1-0.9-2.5 9.8-2.3 5.7-3.7 6-0.7-3.2-0.9 2.5-1.4 1.6-3 2.1 0.6-2.3-0.4-0.4-5.2 0.2v4.4l-1.1 1.3-1.4-0.2-0.9-1.3 0.3-4.8-1.5-0.2-3.2 4.3-1.6 0.1-1.5-2 0.3-1.7 3.1-4.1-0.5-0.6-4.5-0.5-0.6-1.6v-1.9c0 0 0.9 1.5 1.5 1.8 0.9 0.5 2.1-0.1 3 0.1 0.7 0.3 1.8 0.6 2.2 1.4 0.3 0.6 0.2 1.7 0 2.4-0.3 0.9-1.8 1.2-1.8 2.3 0 0.3 0.3 0.7 0.5 0.7 1 0.3 2.2-2.1 3.2-2.3 0.9-0.2 1.8-0.7 2.3 0.3 0.5 1-0.4 2.7 0 3.8 0.1 0.3 0.4 0.3 0.7 0.2 0.8-0.6 0-2.4 0.7-3.2 1.6-1.8 4.7-1.6 6.7-0.9 0.4 0.1 0.7-0.2 1-0.4 1.7-0.7 0.7-3.7 2.3-4.6 0.9-0.4 2.4 1.2 3.2 0.7 0.2-0.2 1.4-1.3 2.1-2.8 1-2.4 1.7-5.7 2.1-8.1 0.6-3.7-1.7-4.9-1.7-5.4-0.1-1.6-2-8.5-2-8.5l5.1 1.8 3.8 3.1c0 0-2.5-0.3-2.5-0.3z"/>
						<path id="path5604" fill-rule="evenodd" class="s9" d="m684.3 203.2l-2.6-0.4-1.9-3c0 0 2 1.9 2.7 2 0.4 0.1 0.9-0.1 1.4 0 0.2 0 0.9 0.1 1.4 0.5 0.5 0.4 0.9 1.1 1 1.4 0.1 0.5-0.1 0.6-0.1 0.6z"/>
						<path id="path5606" fill-rule="evenodd" class="s8" d="m686.4 206.2c0.1 1.1-0.2 3.7-0.4 4.7-0.3 1.2-0.6 2.8-1.1 3.8-0.5 0.8-1.1 1-1.8 1.2-0.6 0.1-1.4-0.4-2-0.6-0.8-0.2-2-0.5-2.8-0.5-0.7-0.1-2.7-0.1-2.7-0.1 0 0 0.2-3.6 0-5.1-0.1-0.5-0.5-1.1-0.7-1.4-0.4-0.4-0.7-0.3-1.1-0.1-0.6 0.2-1.6 1.4-1.6 1.4l0.3-2.2 1.2-0.9 1.4-0.2 1.2 1.5 0.4 5.5h2.8l2.5 0.8 1-0.4 1.7-3.1 1.3-6.4c0 0 0.4 1.5 0.4 2.1z"/>
						<path id="path5608" fill-rule="evenodd" class="s9" d="m678.6 213.5c0 0-1.3 0.9-1.7 1.6-0.3 0.5-0.6 1.3-0.7 2 0 0.5-0.1 1.3 0.2 1.8 0.2 0.5 0.9 0.7 1.3 0.9 0.6 0.3 1.2 1.3 1.2 1.3 0 0-1-0.3-1.7-0.5-0.7-0.2-1.4-0.6-1.7-1.2-0.3-0.6-0.4-1.5-0.3-2.2 0-0.6 0.2-1.4 0.4-2 0.2-0.6 1-1.9 1-1.9z"/>
						<path id="path5610" fill-rule="evenodd" class="s9" d="m736.4 213.1l-0.9 1.9-1.4 2.6 0.3 3.4 2.9 2.5 0.5 1.3-0.5 1.2-1 0.9-2.4-1-1.3-0.4-1.2 0.8-0.4 0.9 0.4 3.6-1.3 1.3h-0.8l-1.2-1.2-0.2-4.7-1.3-0.6-3.5 4.2-1.7-0.1-0.8-2c0 0 1.2 0.3 1.8 0.1 0.8-0.2 1.7-1.3 2.5-1.9 0.5-0.5 0.9-1.8 1.6-1.8 0.7-0.1 1.8 0.4 2.3 1.1 0.5 0.8 0.2 3.9 1 3.7 0.5-0.2-0.1-1.8 0.1-2.4 0.2-0.7 0.4-1.7 0.9-2.1 0.3-0.3 0.9-0.5 1.3-0.6 1-0.1 2.4 0.8 3.3 0.9 0.2 0 0.2-0.4-0.1-0.6-0.6-0.9-2.1-1.1-2.6-2.2-0.5-0.9-0.2-2.6 0-3.7 0.1-1 0.5-2.4 0.8-3.3 0.4-0.7 1.3-1.5 1.7-2.2 0.5-0.9 1.4-3.3 1.4-3.3z"/>
						<path id="path5612" fill-rule="evenodd" class="s9" d="m727.6 213.2c-0.1-0.7-0.6-1.6-1.1-1.9-1.7-1.1-14.7 1-8.5-0.2 0 0-1-0.8 0.2-1.1 2.1-0.4 6.5-0.7 7.7-0.5 0.5 0.1 1.3 0.3 1.7 0.7 0.4 0.4 0.9 1.4 1 2 0.2 0.8 0.2 2.4 0 3.2-0.1 0.2-0.4 0.7-0.5 1-0.4 0.7-0.8 0.9-0.8 0.9 0 0 0.6-2.9 0.3-4.1z"/>
						<path id="path5614" fill-rule="evenodd" class="s8" d="m727 217.7c0 0-0.2 1.4-1 2-0.5 0.4-1.3 0.5-1.6 0.6-0.7 0.2-2.2-1.3-3.1-0.7-0.5 0.3-1.5 1.9-1.5 1.9l-0.2-2.2 0.7-1.5 1.2-0.5 3 1.2z"/>
						<path id="path5616" fill-rule="evenodd" class="s8" d="m724.6 168.9c0 0-2.4 0.4-3.4 0.1-1.9-0.6-4.3-2.3-6.1-3.3-1.6-0.9-3.7-2.3-5.3-3-1.2-0.4-2.9-0.6-4.1-0.8-1.4-0.1-3.3-0.3-4.7-0.1-1.8 0.1-4.1 0.5-5.8 1.3-0.9 0.3-2 1.2-2.8 1.8-0.8 0.7-2 1.6-2.8 2.5-0.7 0.8-1.4 2.2-1.9 3.2-0.3 0.6-1 1.7-1 1.7l1.3-4.4 3.6-4.3 5.8-2.3 6.7-1.1 5.9 1.3 6.9 3.9 8 3.5z"/>
						<path id="path5618" fill-rule="evenodd" class="s8" d="m694.7 177.3c1.5-0.1 3.5-0.5 5-0.7 1.4-0.1 3.1-0.1 4.5-0.1 1.3-0.1 3-0.3 4.3-0.4 1.2 0 2.9-0.1 4.1 0.1 1.3 0.2 3.3 0.3 4.3 1.5 0.5 0.4 2.1 2.1 1.7 2.6-0.5 0.7-2.2-1.4-2.8-1.8-1-0.5-2.5-1-3.6-1.2-1.2-0.3-2.9-0.3-4.1-0.3-1.3 0-3 0.3-4.3 0.4-2.2 0.3-5 0.9-7.2 1.1-0.7 0.1-1.8 0.5-2.5 0.3-0.7-0.2-2-1.5-2-1.5 0 0 1.8 0.1 2.6 0z"/>
						<path id="path5620" fill-rule="evenodd" class="s9" d="m727 216.5c0 0 0.4 1.7 0.8 2.2 0.3 0.4 0.8 0.5 1.2 0.6 0.5 0.2 1.3 0.4 1.8 0.2 0.4 0 1-0.6 1-0.6 0 0-0.6 1.3-1 1.6-0.5 0.4-1.2 0.4-1.8 0.4-0.4-0.1-1-0.4-1.5-0.7-0.6-0.4-1.8-1.7-1.8-1.7l0.8-0.7z"/>
						<path id="path5622" fill-rule="evenodd" class="s8" d="m682.7 199.5l1.9-1.7 0.6-1.5 1.8-1.9 1.2-0.2h-0.1c0 0-1.2 1.6-2.2 3.2-0.7 1.2-1.3 2.1-1.5 2.3-0.5 0.4-1.1 0.7-1.8 0.7-0.7 0.1-2.4-0.4-2.4-0.4z"/>
						<path id="path5624" class="s10" d="m719.6 197.6c1.6 1 5.8 2 7.4 3.1 1.4 0.8 1.9 1.9 3.3 2.7 1 0.6 1.5 0.9 2.5 0.6 1.2-0.3 3.9-1.8 3.9-1.8 0 0-0.1 2.7-0.5 3.7-0.6 1.7-1.9 3.3-1.9 3.3 0 0 0.7 0.2 1.2 0.1 0.5-0.1 1.4-0.8 1.4-0.8 0 0-0.3 3.8-0.8 5.2-0.4 1.1-1.5 2.5-1.8 3.8-0.2 1-0.1 3.5-0.1 3.5 0 0 2 1.6 2.6 2.1 0.6 0.4 0.7 0.5 0.9 1.4 0.1 0.6-0.2 1.5-0.6 1.9-0.5 0.5-0.9 0.4-1.5 0.3-0.9-0.3-2.1-1.3-3.1-1.2-0.4 0-1.1 0.5-1.3 1.1-0.5 1.1 0.2 2.8 0.1 4-0.1 0.6-0.4 0.7-0.8 1-0.4 0.4-1 0.5-1.4 0.2-0.5-0.2-0.8-0.5-1-1.1-0.3-1.3 0.3-3.5-0.3-4.6-0.2-0.4-1.1-0.7-1.1-0.7 0 0-2.3 3.6-3.5 4.3-0.4 0.3-1.2 0.3-1.7 0.1-0.4-0.2-0.6-0.9-0.8-1.5-0.2-0.6 0.2-1.4 0.4-2 0.2-0.8 1.7-1.8 2.3-2.6 0.4-0.7 0-1.2 0-1.2 0 0-2.8-0.1-3.5-1.1-0.3-0.4-0.4-1.4-0.3-2 0.1-0.5 0.2-1 0.4-1.3q0.1-0.3 0.3-0.4c0.6-0.4 1-0.3 1.6-0.1 0.9 0.3 2.3 1.1 3.4 0.9 1.1-0.2 1.4-0.5 1.9-1.8 0.4-1.2 0.6-3.5 0-4.6-0.6-1-1-0.9-1.9-1.1-2.2-0.3-6.9 0.5-6.9 0.5 0 0-1.8 2.5-2.8 3-0.8 0.3-2.9-0.1-2.9-0.1 0 0 1.3-1.9 1.6-2.9 0-0.3 0-0.8 0-1.1-0.2-1.2-0.8-2.8-1.4-3.6-0.7-0.7-2-0.6-2.8-1.1-1.5-0.8-3.6-2.2-4.9-3.5-1-1-1.9-3.2-3-3.9-1.3-0.6-4.5 0-4.5 0 0 0-0.4 4.1 0.6 5.3 0.6 0.7 1.5 0 1.5 0 0 0-1.1 6.2-3 11.2-1.6 4.5-4.1 7.9-4.1 7.9-0.6 0.9-1.3 1.4-1.3 1.4 0 0 0-1.1 0-1.7-0.1-0.5-0.4-1.7-0.4-1.7 0 0-0.6 1.7-1.1 2.8-0.3 0.6-1.2 1.7-2.1 2.5-1.1 0.9-2.2 1.5-2.2 1.5 0 0 0.7-2.1 0.3-2.8-0.2-0.3-1.4 0-1.4 0l-4 0.2c0 0 0.3 2.8 0 3.9-0.1 0.5-0.3 1.3-0.6 1.6-0.7 0.5-1.1 0.3-1.7-0.1-0.4-0.1-0.7-0.6-0.8-1-0.4-1.4 0.2-5 0.2-5 0 0-0.9-0.5-1.4-0.3-1.2 0.5-2.2 3-3.2 4-0.4 0.4-0.9 0.6-1.4 0.5-0.8-0.1-1.2-0.9-1.7-1.7-0.3-0.4-0.2-0.4-0.2-1 0.2-1.6 2.5-3.7 3.2-4.9 0.3-0.4-0.3-0.9-0.3-0.9 0 0-3.3 0.3-4.4-0.6-0.5-0.4-0.7-1-0.8-1.8-0.2-1-0.1-1.5 0.2-2.5 0.3-0.7 0.8-1 1.3-1.3 1.1-0.4 3.1 1.1 4 1.5 0.3 0.1 0.5-0.8 0.5-0.8 0 0-1.4-4.5-1.2-6 0-0.6 0.4-1.3 0.8-1.6 0.9-0.7 1.9-0.8 2.9-0.1 0.3 0.3 0.5 0.9 0.6 1.4 0.2 1.6 0.2 5 0.2 5 0 0 1.5-0.2 2.6 0 1.3 0.3 2.2 1.1 3 0.7 1.1-0.4 1.5-1.7 2.2-3 0.9-1.7 1.4-6.8 1.4-6.8 0 0-0.8-0.7-1.6-0.9-0.7-0.2-1.8-0.1-2.1-0.2-1.1-0.2-2.3-3.1-2.3-3.1 0 0 0.9 0.2 2.1-0.2 0.8-0.2 1.5-1 2-1.3 0.5-0.4 1-1.9 1.7-2.7 1-1.2 2-1.9 2-1.9 0 0-1 0-1.5 0.1-0.8 0-2.7 0.5-2.7 0.5 0 0-3.6 1.2-7 3.6-2.8 1.8-4.6 4-6.5 4.7-2.2 0.9-5.6 0.9-8.1 1.3q-0.6 0.1-1.1 0.3c-3.3 1-6.4 2.9-9.3 5.3-0.7 0.7-2 1.6-2.2 2.9-0.2 1.3 1.3 4.2 1.3 4.2 0 0-2.2-0.1-3-0.6-0.7-0.4-1.7-1.3-2.4-1.1-1.5 0.3-2.1 0.6-2.5 2.3-0.2 1 1.4 3.3 1.4 3.3 0 0-2.7 0.4-3.3-0.3-0.7-0.7-1.3-1.6-2.1-2-1.2-0.5-2 0.4-1.3 1 0.8 0.8 1.1 3.3 1.1 3.3 0 0-3.5 0.1-5 0.1-1.4 0.1-2.8 1.4-4.2 1.7-1.3 0.3-4.5-0.3-4.5-0.3 0 0 0.3 1.4 0.2 2.6-0.1 0.5 0 1.4-0.4 2-0.3 0.4-0.8 0.5-1 0.5-0.6 0.1-1.2-0.1-1.6-0.8-0.2-0.3-0.9-2.2-0.9-2.7 0-0.7-1.5 0.1-1.5 0.1 0 0-1.7 2.5-3 3.3-0.6 0.4-1.2 0.9-1.8 0.6-0.6-0.2-1.1-1.2-1.3-1.9-0.1-0.8 0.1-1.6 0.5-2.3 0.5-1 2.1-1.9 2.7-2.6 0.3-0.3-0.5-1.5-0.5-1.5 0 0-1.9 0-3-0.7-0.4-0.3-0.8-0.9-0.9-1.4-0.2-0.8-0.2-2 0.1-2.6 0.2-0.5 0.7-0.9 1.1-1 1.4-0.5 4.8 0.5 4.8 0.5 0 0-0.5-3.3-0.1-4.6 0.2-0.5 0.6-0.7 1.1-0.9 0.6-0.2 0.8-0.2 1.3 0.1 0.5 0.3 1 0.8 1.2 1.5 0.3 1 0 4 0 4l1.6-0.1c0 0 1.4-1.3 2-2 1.2-1.5 3-3 4.5-3.9 1.5-0.9 3.5-1.6 4.5-3.4 3.4-6 9.4-8 9-9.4-0.2-0.7-7.8 7.8-8.1 6.5-0.4-2-1.8-3.4-2.4-3.9-0.7-0.6-2.2-3.1-2.2-3.1 0 0-0.4 2.3-0.8 2.9-0.5 0.5-2.1 1-2.1 1 0 0 0.3-1.4 0.2-2.1 0-0.6-0.7-2.1-0.8-2.6-0.2-1 0.2-2.6 0.2-2.6 0 0-0.7-0.4-1.1 0-0.6 0.5-0.4 1.8-0.9 2.5-0.6 0.6-1.9 1.1-1.9 1.1 0 0 0.5-1.4 0.4-2.4-0.1-1.1-0.7-1.7-0.9-2.9-0.2-1.2 0.6-2.5 0.6-2.5 0 0-0.8-1.2-1.6-1.7-0.8-0.6-1.8-0.4-2.3 0.1-0.5 0.6-0.4 1.1-0.7 1.9-0.3 0.7-0.9 1-1.5 1-0.5 0-1.2-0.6-1.5-1-0.4-0.5-0.3-1.4-0.2-2.1 0.1-1.2 0.7-2 0.9-2.9 0.2-1.1-0.4-3.6-0.4-3.6 0 0-2.5 0.1-3.7-0.6-0.4-0.2-1.1-0.8-1.2-1.3-0.2-1.2-0.2-1.9 0.4-2.8 0.4-0.7 1.6-1 2.3-0.8 0.9 0.2 1.9 2 2.8 1.5 0.7-0.3 0.8-0.2 0.8-1.3-0.1-0.8-1.2-2.6-1.4-3.6-0.1-0.8-0.3-2 0-2.6 0.6-1 1.4-1.5 2.3-1.3 0.4 0 0.9 0.5 1.1 1 0.6 1.2 0.2 3.5 1 4.4 0.5 0.7 1.6 1.3 2.2 0.8 0.8-0.6 0-2.8 0.6-3.9 0.3-0.6 1.1-1.1 1.7-1 0.8 0 1.3 0.6 1.7 1.5 0.2 0.5 0.1 1.3 0 1.9-0.4 1.4-1.5 2.4-1.7 3.6-0.2 1.2 0.2 3.9 0.2 3.9 0 0 4.8 2.7 6.3 3.5 3.6 1.8 6.7 5.4 10 8 1.6 1.2 3.3 2.5 5.1 2.6 1.4 0.2 3.8-1.3 4.9-2.3 1.8-1.5 2.8-5.2 4.5-6.3 2-1.2 5.1-0.6 7.2-0.2 2 0.3 4.2 1.6 6.2 1.8 3.6 0.2 10.9-1.8 14.5-2.4 4.3-0.6 7.1-1.1 11.5-1 3.7 0.1 4.6-0.1 8.3 0.8 0.6 0.1 2.8 0.6 4.3 1.1 2.4 0.8 3.8 1.4 5.5 1.5 1 0 1.3-0.2 2.3-0.8 0.5-0.4 0.9-1.7 0.9-2.5-0.1-0.7-0.4-1.7-0.8-2.2-0.8-1.2-2.3-2.2-3.4-2.6-2-0.7-4.7-0.4-6.8-0.2-1.6 0.1-3.2 0.6-4.8 0.8-2 0.4-4.4 1-6.3 1-1.8 0.1-4.2-0.4-5.8-1.6-1.1-0.8-1.8-2.3-2.2-3.9-0.4-1.6-0.3-3.9 0.2-5.5 0.8-2.8 2-4.4 3.9-6.1 1.2-1.1 4-2.6 5.5-3 3.9-1.1 8.6-1.2 12.5-0.2 2.7 0.6 5.6 3.1 8.3 4.3 1.9 0.9 5.7 3.3 7.9 3.8 2.1 0.4 4.3 0.5 6.2-0.7 1.2-0.8 2.3-4.3 2.3-4.3 0 0 0.2 0.7 0.3 1 0.1 0.7 0.2 1.7 0.2 1.7 0 0 0.8-1.8 2.1-3.3 0.8-0.8 2-0.4 2.5-1.3 0.3-0.5 1.3-2.6 1.3-2.6 0 0 0.6 2.9 0.3 4.6-0.3 1.7-0.9 3.8-1.7 5-0.7 1.1-1.8 2-1.8 2 0 0 0.9 0.2 1.5 0.8 0.5 0.5 0.3 2.9 0.3 2.9 0 0-1-1.2-1.7-1.2-0.8-0.1-3.6 1.6-4.4 1.9-2.1 0.8-5 0.9-7.1 0.2-2.6-0.8-5.6-3.4-8-5-2.4-1.6-5.3-4.6-7.9-5.7-1.4-0.6-3.6-1.1-5.1-1.3-1.7-0.2-3.9-0.3-5.5 0-1.5 0.3-3.4 1.1-4.7 2.1-1.1 0.8-2.6 2.1-3.4 3.4-0.5 0.7-1 1.8-1.2 2.8-0.2 0.9-0.2 2.5 0.2 3.4 0.5 1 1.5 1.4 2.3 1.6 2.5 0.6 6-0.5 8.5-0.7 2.9-0.2 7.5-1.1 10.4-0.8 2.3 0.3 4.2 0.8 6.1 2.2 1 0.7 2 2.5 2.5 3.7 0.4 0.9 0.7 2.3 0.7 3.4 0 1.3-0.4 3-0.9 4.1-0.7 1.3-3.2 3-3.2 3 0 0 1.6 4.8 3.4 5.8z"/>
						<g id="g5630">
							<path id="path5626" fill-rule="evenodd" class="s11" d="m697 194.9c0 0-0.1 1.8-0.3 2.3-0.1 0.6-0.2 0.7-0.5 1.1-0.4 0.4-0.8 0.5-1.2 0.3-0.3 0-0.8-0.7-1-1-0.2-0.6-0.4-1.2-0.4-1.2 0 0-1.3-0.5-1.8-0.5-0.6 0.1-1.1 0.1-1.6 0.3-0.5 0.1-1.9 0.8-1.9 0.8 0 0 0.4-1.4 1.2-2.1 0.8-0.8 1.2-0.9 1.8-1 1.2-0.2 2.8 0.1 4 0.4 0.5 0.1 1.7 0.6 1.7 0.6z"/>
							<path id="path5628" class="s10" d="m687 193.9c0 0 4.7-0.3 7 0.1 1.5 0.3 3.4 0.9 4.9 1.6 1.2 0.6 3.9 3.2 3.9 3.2"/>
						</g>
						<path id="path5632" fill-rule="evenodd" class="s9" d="m637.2 208.5c0 0-0.1 0.8-0.4 1.5-0.3 0.6-0.7 1-0.9 1.3-0.4 0.5-0.9 1-1.3 1.3-1.8 1.5-4.4 2.2-6.1 3.3-0.4 0.3-1.2 0.9-1.8 1.5-0.3 0.2-0.6 0.5-0.8 0.6-0.2 0.2-1.7 0.4-1.7 0.4l1.2-0.9c0.2-0.2 0.6-0.7 0.9-1 0.7-0.5 1.4-1.2 1.9-1.5 1.8-1.2 4.4-1.9 6-3.2 0.3-0.3 0.8-0.8 1.2-1.3 0.4-0.5 0.6-0.7 0.9-0.9 0.3-0.2 0.9-1.1 0.9-1.1z"/>
						<path id="path5634" fill-rule="evenodd" class="s12" d="m641.3 204.1c0 0-2.4 4-5.6 6.6-0.5 0.4-0.9 1.1-1.3 1.4-1.7 1.4-4.4 2.1-6 3.2-0.5 0.3-1.2 1-1.9 1.5-0.3 0.3-0.6 0.5-0.8 0.7-0.2 0.2-1.1 0.6-1.1 0.6l0.6-1.2c0.2-0.2 0.7-0.7 1-1 0.6-0.5 1.3-1.1 1.8-1.5 1.9-1.2 4.5-1.9 6.1-3.2 0.2-0.2 0.7-0.8 1.1-1.2 0.4-0.5 0.6-0.8 0.9-0.9 0.3-0.2 5.2-5 5.2-5z"/>
						<g id="g5642">
							<path id="path5636" fill-rule="evenodd" class="s9" d="m634.6 196.8l0.4 1 0.7 0.7 0.6-0.2 0.7-0.5 0.4-1.8c0 0 0.6 1 0.6 1.5 0 0.4-0.1 0.9-0.3 1.2-0.4 0.6-1.1 1.3-1.7 1.3-0.5 0-1.1-0.6-1.5-1-0.3-0.4-0.5-1.1-0.6-1.6-0.1-0.5-0.2-1.6-0.2-1.6 0 0-2-1.8-2.8-2.8-0.7-0.9-2.3-3.2-2.3-3.2l0.5 0.4 5.5 4.9c0 0 0 1.7 0 1.7z"/>
							<path id="path5638" fill-rule="evenodd" class="s12" d="m637.5 196.4c0.1 0.3 0.1 0.7 0 1.1-0.1 0.2-0.1 0.3-0.2 0.4q-0.1 0.3-0.4 0.5c-0.3 0.3-0.7 0.6-1.1 0.6-0.5-0.1-0.9-0.5-1.1-0.8-0.2-0.4-0.4-0.8-0.4-1.1-0.1-0.4-0.1-0.8-0.1-1.2 0.1-0.4 0.1-0.4 0.1-0.4 0-0.1-1.2-1.2-1.5-1.6-0.2-0.2-0.7-0.5-1-0.8q-0.3-0.3-0.4-0.4c-0.2-0.1-2.4-2.6-2.4-2.6l2.7 1.9q0.2 0.1 0.4 0.3c0.4 0.3 0.8 0.7 1 0.9 0.4 0.4 1.3 1.1 1.7 1.7q0.1 0.2 0.1 0.4c0 0.2 0 0.3 0 0.6-0.1 0.4 0 0.9 0 1 0 0.1 0.1 0.4 0.3 0.7 0.1 0.3 0.4 0.5 0.6 0.5 0.3 0 0.5-0.1 0.7-0.4q0.2-0.2 0.3-0.3c0.1-0.1 0.1-0.3 0.1-0.2 0-0.1 0-0.5 0-0.8 0-0.2 0.5-0.9 0.5-0.9 0 0 0.1 0.5 0.1 0.9z"/>
							<path id="path5640" fill-rule="evenodd" class="s8" d="m637.1 194.6c-0.3-0.3-0.8-0.8-1.2-0.8-0.3-0.1-1 0.2-1 0.2 0 0 0.9-1.3 1.3-1.3 0.6-0.1 1.2 0.7 1.4 1.3 0.2 0.4 0.2 1.7 0.2 1.7 0 0-0.5-0.8-0.7-1.1z"/>
						</g>
						<path id="path5644" fill-rule="evenodd" class="s9" d="m627.5 184.3c0.1 0.1 0.2 0.4 0.4 0.6 0.3 0.3 0.8 0.8 1.2 1.1 1.6 1.2 4 2.2 5.7 3.5 1.6 1.1 4.7 4.2 4.7 4.2l1.7 0.7c0 0-0.4 0.4-0.8 0.5-0.3 0.1-0.6-0.1-0.7-0.1-0.2 0-0.5-0.2-0.7-0.4-1.5-1-3.1-3-4.5-4.1-1.6-1.2-4-2.1-5.7-3.5-0.5-0.3-0.9-0.7-1.3-1.1q-0.3-0.3-0.5-0.4c0-0.1-0.2-0.5-0.3-0.9-0.2-0.5-0.2-1.2-0.2-1.2 0 0 0.8 1 1 1.1z"/>
						<path id="path5646" fill-rule="evenodd" class="s12" d="m627.5 184c0.1 0.1 0.4 0.2 0.6 0.4 0.4 0.3 0.8 0.8 1.2 1.1 1.6 1.2 4 2.2 5.8 3.5 1.5 1.1 4.6 4.2 4.6 4.2l1 1.1c0 0-0.6 0.1-0.8 0-0.2 0-0.5-0.2-0.7-0.3-1.4-1.1-3.1-3.1-4.5-4.1-1.6-1.3-4-2.2-5.7-3.5-0.4-0.4-0.9-0.8-1.3-1.2q-0.3-0.3-0.5-0.4c-0.1-0.1-0.4-1.2-0.4-1.2 0 0 0.6 0.3 0.7 0.4z"/>
						<path id="path5648" fill-rule="evenodd" class="s13" d="m661.3 197.9c0.2-0.6 0.3-2.1 0.6-2.1 0.6 0-0.1 2.2 0.4 2.2 0.9 0 0.5-2.7 1.3-2.7 0.6 0.1-0.3 2.3 0.3 2.4 0.7 0.1 0.8-3.3 1.6-3.1 0.7 0.3-1 2.7-0.2 3 1.1 0.3 0.9-3.6 2-3.2 0.8 0.3-1.3 2.5-0.5 3 1 0.7 1.7-4.3 2.6-3.3 0.5 0.6-1.3 2.4-0.9 3.1 0.2 0.3 1-0.7 1.7-1.6 0.6-0.8 1.1-1.5 1.3-1.3 0.3 0.4 0 1.6-0.3 2.1-0.8 1.1-2.4 2.2-3.5 2.6-1 0.3-2.4-0.3-3.4-0.1-1.3 0.2-4.1 1.1-4.1 1.1 0 0 0.6-0.9 1.1-2.1z"/>
						<path id="path5650" fill-rule="evenodd" class="s12" d="m671.2 196c0.1-0.3 0.1-0.6 0.2-0.8 0.2-0.3 0.3-0.2 0.3-0.2 0.1 0 0.3 0.1 0.3 0.3 0 0.1-0.2 0.6-0.3 0.8-0.2 0.4-0.5 0.9-0.8 1.2-0.6 0.7-1.6 1.4-2.3 1.7-0.4 0.3-1 0.4-1.4 0.5-0.7 0-1.5-0.3-2.1-0.3-0.4 0-1 0-1.4 0.1-1.1 0.2-3.9 1.2-3.9 1.2 0 0 0.5-0.7 0.7-0.9 0.1-0.1 0.5-0.2 0.6-0.3 1.1-0.5 2.6-0.7 2.6-0.7 0.4-0.1 1-0.1 1.4-0.1 0.7 0 1.5 0.3 2.1 0.3 0.3 0 0.9-0.2 1.2-0.4 0.7-0.3 1.6-1 2.2-1.6 0.1-0.1 0.4-0.4 0.6-0.8z"/>
						<g id="g5658">
							<path id="path5652" fill-rule="evenodd" class="s9" d="m690.2 216l0.8-0.3 0.7-0.8-0.1-0.8-0.2-1.1-1.1-0.9c0 0 0.8-0.5 1.2-0.5 0.2 0.1 0.5 0.3 0.7 0.6 0.4 0.7 0.7 1.9 0.5 2.7-0.1 0.7-0.6 1.4-1 1.7-0.3 0.3-0.9 0.5-1.3 0.5-0.3 0-1.1-0.1-1.1-0.1 0 0-1.8 2.3-2.6 3.2-0.8 0.8-2.8 2.3-2.8 2.3l0.4-0.6 4.7-6.3c0 0 1.2 0.4 1.2 0.4z"/>
							<path id="path5654" fill-rule="evenodd" class="s12" d="m690.6 212c0.2 0 0.5 0.1 0.7 0.3 0.1 0.1 0.2 0.2 0.3 0.3q0.1 0.3 0.2 0.6c0.2 0.5 0.3 1.1 0.2 1.8-0.2 0.6-0.5 1-0.8 1.2-0.4 0.2-0.7 0.3-0.9 0.3-0.3 0-0.6-0.1-0.8-0.2-0.3-0.1-0.3-0.2-0.3-0.2-0.1 0.1-1.1 1.4-1.4 1.7-0.2 0.3-0.6 0.8-0.9 1.2q-0.2 0.3-0.3 0.5c-0.1 0.1-2.4 2.5-2.4 2.5l1.9-3.1q0.2-0.2 0.4-0.6c0.3-0.4 0.6-0.8 0.8-1.1 0.3-0.4 1.1-1.5 1.6-1.9q0.1-0.1 0.3-0.1c0.1 0.1 0.2 0.2 0.4 0.3 0.3 0.1 0.6 0.2 0.7 0.2 0.1 0 0.3-0.1 0.6-0.3 0.2-0.1 0.4-0.4 0.5-0.7 0.1-0.4 0-0.7-0.1-1.1q-0.1-0.2-0.2-0.4c-0.1-0.1-0.1-0.2-0.1-0.2-0.1 0-0.3-0.1-0.5-0.2-0.2 0-0.6-0.8-0.6-0.8 0 0 0.4-0.1 0.7 0z"/>
							<path id="path5656" fill-rule="evenodd" class="s8" d="m689.2 212.2c-0.3 0.3-0.7 0.8-0.8 1.4-0.1 0.3-0.1 1.4-0.1 1.4 0 0-0.7-1.5-0.6-2.1 0-0.8 0.7-1.4 1.2-1.6 0.4-0.2 1.3 0.2 1.3 0.2 0 0-0.7 0.4-1 0.7z"/>
						</g>
						<path id="path5660" fill-rule="evenodd" class="s9" d="m702.7 187.5c0.7 0.2 1.2 0.6 1.5 0.6 0.6 0.2 1.4 0.4 2.2 0.6 1.7 0.4 3.6 0.9 4.5 1.2 1.7 0.6 2.4 1.9 3 3 0.7 1 1 2.3 1.3 3.6 0.3 1.4 0.7 2.6 1.1 3.3 0.3 0.4 0.9 1 1.4 1.4 0.5 0.4 3.9 1 3.9 1 0 0-1.3 0.6-1.9 0.6-0.5 0.1-1.5-0.2-1.5-0.2 0 0-0.4 0-0.9-0.4-0.6-0.5-1.2-1-1.6-1.6-0.6-1-0.9-2.4-1.3-3.7-0.3-1.3-0.6-2.5-1.1-3.3-0.7-1.1-1.1-2.1-2.6-2.6-0.8-0.3-2.7-0.8-4.4-1.2-0.9-0.2-1.7-0.4-2.3-0.5-0.6-0.2-0.8-0.3-0.8-0.3l-1.8-1.6c0 0 0.8 0 1.3 0.1z"/>
						<path id="path5662" fill-rule="evenodd" class="s12" d="m704.8 187.4c0.5 0.2 1.4 0.4 2.2 0.6 1.7 0.4 3.6 0.9 4.5 1.2 1.7 0.6 2.4 1.9 3 3 0.6 1 1 2.3 1.3 3.6 0.3 1.4 0.7 2.6 1.1 3.4 0.2 0.3 0.8 0.9 1.4 1.3 0.5 0.4 2.2 1.5 2.2 1.5l-1.8-0.1c0 0-0.3 0-0.9-0.4-0.5-0.5-1.1-1-1.5-1.6-0.6-1-1-2.3-1.3-3.7-0.3-1.3-0.7-2.5-1.1-3.3-0.7-1.1-1.1-2.1-2.6-2.6-0.8-0.3-2.7-0.8-4.4-1.2-0.9-0.2-1.7-0.4-2.3-0.5-0.6-0.2-0.8-0.3-0.8-0.3l-1.3-0.7c0 0 1.7-0.3 2.3-0.2z"/>
						<g id="g5670">
							<path id="path5664" fill-rule="evenodd" class="s12" d="m732.3 214l0.6-0.6 0.3-1-0.2-0.7-0.5-0.7-1.1-0.2c0 0 0.5-0.8 0.8-1 0.2-0.1 0.6 0 0.8 0.2 0.4 0.3 1 1.1 1.1 1.8 0.1 0.6-0.2 1.5-0.4 2-0.2 0.4-0.6 0.7-0.9 0.9-0.3 0.2-0.9 0.6-0.9 0.6 0 0 0.1-0.5-0.3 0.6-0.2 0.4-0.4 1.4-0.7 2-0.5 0.9-0.9 1.3-0.9 1.3l0.1-0.7 1.2-4.2c0 0 1-0.3 1-0.3z"/>
							<path id="path5666" fill-rule="evenodd" class="s9" d="m731.6 210.6c0.2-0.1 0.4-0.2 0.7-0.2 0.1 0.1 0.2 0.1 0.3 0.2q0.1 0.1 0.3 0.3c0.3 0.3 0.6 0.8 0.6 1.4 0 0.5-0.1 1-0.3 1.4q-0.3 0.5-0.6 0.7c-0.2 0.1-0.5 0.2-0.8 0.2-0.2 0.1-0.2 0-0.2 0-0.1 0.1-0.4 0.8-0.5 1.3-0.1 0.3-0.3 0.8-0.4 1.3q-0.1 0.4-0.2 0.6c0 0.2-0.5 0.9-0.5 0.9v-1.1c0-0.2 0.1-0.4 0.2-0.7 0.1-0.4 0.2-1 0.4-1.3 0.1-0.5 0.2-1 0.5-1.5q0.1-0.2 0.2-0.2c0.2-0.1 0.2 0 0.5 0 0.2-0.1 0.5-0.2 0.6-0.2 0-0.1 0.2-0.2 0.3-0.5 0.2-0.2 0.3-0.6 0.2-0.9 0-0.3-0.1-0.6-0.3-0.8q-0.2-0.1-0.3-0.2c-0.1-0.1-0.1-0.1-0.1-0.1-0.1 0-0.3 0-0.5 0.1-0.1 0.1-0.6-0.4-0.6-0.4 0 0 0.3-0.3 0.5-0.3z"/>
							<path id="path5668" fill-rule="evenodd" class="s8" d="m730.6 211.4c-0.2 0.4-0.4 1-0.3 1.6 0 0.3 0.3 1.1 0.3 1.1 0 0-1-0.8-1.1-1.3-0.1-0.7 0.3-1.5 0.6-2 0.2-0.3 1-0.4 1-0.4 0 0-0.4 0.7-0.5 1z"/>
						</g>
					</g>
				</g>
				<g id="g5712">
					<g id="g5710">
						<g id="g5708">
							<path id="path5676" fill-rule="evenodd" class="s14" d="m624.8 170.4c0.2-0.7 0.3-0.6 0.4-1.3 0-0.2 0-0.6 0-0.6 0 0 0.7 1 0.8 1.6 0.1 0.6 0.3 0.7 0.2 1.1-0.1 0.4-0.6 0.7-0.9 0.7-0.3 0-0.7-0.3-0.8-0.7 0-0.2 0.2-0.6 0.3-0.8z"/>
							<path id="path5678" fill-rule="evenodd" class="s14" d="m617.2 169.9c-0.2-0.7 0-0.7-0.3-1.4 0-0.2-0.2-0.5-0.2-0.5 0 0 1 0.3 1.3 0.6 0.4 0.4 0.6 0.5 0.6 0.8 0.1 0.4-0.1 1.1-0.4 1.3-0.2 0.2-0.7 0.3-0.9 0.1-0.2-0.2-0.1-0.7-0.1-0.9z"/>
							<path id="path5680" fill-rule="evenodd" class="s14" d="m612.2 178.6c-0.5-0.3-0.4-0.4-0.9-0.6-0.2 0-0.5-0.1-0.5-0.1 0 0 0.8-0.8 1.2-1 0.5-0.1 0.6-0.3 0.8-0.2 0.3 0.2 0.5 0.9 0.5 1.3 0 0.4-0.3 1-0.5 1.1-0.2 0-0.5-0.4-0.6-0.5z"/>
							<path id="path5682" fill-rule="evenodd" class="s14" d="m617.3 189.2c-0.5 0.3-0.5 0.1-0.9 0.5-0.2 0.2-0.4 0.5-0.4 0.5 0 0 0.1-1.4 0.2-2 0.2-0.5 0.2-0.8 0.5-0.9 0.2-0.2 0.8 0 1 0.3 0.2 0.2 0.3 0.9 0.2 1.2-0.1 0.3-0.5 0.2-0.6 0.4z"/>
							<path id="path5684" fill-rule="evenodd" class="s14" d="m618.9 211.5c-0.3-0.7-0.1-0.7-0.4-1.3-0.1-0.2-0.3-0.5-0.3-0.5 0 0 1 0.1 1.4 0.4 0.4 0.3 0.6 0.3 0.6 0.6 0.2 0.4 0 1.1-0.2 1.4-0.2 0.3-0.7 0.5-0.9 0.3-0.2-0.2-0.2-0.7-0.2-0.9z"/>
							<path id="path5686" fill-rule="evenodd" class="s14" d="m613 218.9c-0.5-0.3-0.4-0.5-0.9-0.7-0.1 0-0.4-0.1-0.4-0.1 0 0 0.8-0.8 1.2-0.9 0.4-0.2 0.6-0.3 0.8-0.2 0.3 0.3 0.5 0.9 0.5 1.3-0.1 0.4-0.4 1-0.6 1.1-0.2 0-0.4-0.4-0.6-0.5z"/>
							<path id="path5688" fill-rule="evenodd" class="s14" d="m614.8 228.5c-0.5 0.2-0.5-0.1-0.9 0.2-0.2 0.1-0.5 0.3-0.5 0.3 0 0 0.4-1.3 0.6-1.8 0.3-0.5 0.4-0.7 0.6-0.8 0.3 0 0.8 0.3 1 0.7 0.1 0.4 0.1 1-0.1 1.3-0.1 0.2-0.5 0.1-0.7 0.1z"/>
							<path id="path5690" fill-rule="evenodd" class="s14" d="m622.7 228.6c-0.1-0.4 0.1-1 0.3-1.3 0.3-0.2 0.8-0.4 1-0.2 0.3 0.2 0.2 0.4 0.4 1 0.2 0.6 0.2 2 0.2 2 0 0-0.3-0.3-0.4-0.5-0.4-0.5-0.4-0.2-0.9-0.6-0.1-0.2-0.5-0.2-0.6-0.4z"/>
							<path id="path5692" fill-rule="evenodd" class="s14" d="m678.1 228.9c0-0.4 0.3-0.8 0.6-0.9 0.3-0.2 0.8 0 1 0.4 0.1 0.2 0 0.5 0 1.1 0 0.6-0.5 1.8-0.5 1.8 0 0-0.1-0.4-0.1-0.6-0.2-0.6-0.3-0.5-0.6-1.1-0.1-0.2-0.4-0.4-0.4-0.7z"/>
							<path id="path5694" fill-rule="evenodd" class="s14" d="m671.6 227.8c-0.4 0.4-0.5 0.2-0.8 0.7-0.1 0.2-0.3 0.5-0.3 0.5 0 0-0.1-1.4 0-1.9 0.1-0.6 0.1-0.9 0.3-1.1 0.3-0.2 0.8-0.1 1.1 0.1 0.2 0.3 0.4 0.9 0.3 1.2-0.1 0.3-0.4 0.3-0.6 0.5z"/>
							<path id="path5696" fill-rule="evenodd" class="s14" d="m668.3 217.5c-0.5-0.1-0.4-0.3-0.9-0.2-0.2 0-0.5 0-0.5 0 0 0 0.6-1.1 1-1.4 0.4-0.3 0.5-0.5 0.7-0.4 0.3 0.1 0.7 0.6 0.7 1.1 0.1 0.3-0.1 1-0.3 1.2-0.2 0.1-0.5-0.2-0.7-0.3z"/>
							<path id="path5698" fill-rule="evenodd" class="s14" d="m673.7 207.8c-0.1-0.7 0.1-0.7-0.1-1.4 0-0.2-0.1-0.6-0.1-0.6 0 0 0.9 0.5 1.2 0.9 0.3 0.5 0.5 0.5 0.5 0.9 0 0.4-0.2 1-0.5 1.2-0.3 0.2-0.7 0.2-0.9-0.1-0.2-0.2 0-0.7-0.1-0.9z"/>
							<path id="path5700" fill-rule="evenodd" class="s14" d="m720.5 220.2c-0.4-0.5-0.3-0.6-0.8-0.9-0.1-0.1-0.4-0.3-0.4-0.3 0 0 1-0.5 1.4-0.5 0.4 0 0.6-0.1 0.8 0.1 0.2 0.3 0.3 1 0.2 1.4-0.1 0.4-0.4 0.8-0.7 0.8-0.2 0-0.3-0.5-0.5-0.6z"/>
							<path id="path5702" fill-rule="evenodd" class="s14" d="m722 228.8c-0.5 0.2-0.5 0-0.9 0.3-0.2 0.1-0.4 0.3-0.4 0.3 0 0 0.2-1.3 0.5-1.8 0.2-0.5 0.2-0.8 0.5-0.8 0.3-0.1 0.8 0.2 0.9 0.5 0.2 0.3 0.3 1 0.1 1.3-0.1 0.2-0.5 0.1-0.7 0.2z"/>
							<path id="path5704" fill-rule="evenodd" class="s14" d="m730.2 230.7c-0.2 0.6-0.3 0.5-0.4 1.2-0.1 0.2-0.1 0.7-0.1 0.7 0 0-0.6-1.2-0.7-1.7-0.1-0.6-0.3-0.8-0.2-1.1 0.2-0.4 0.6-0.8 1-0.7 0.2 0 0.7 0.4 0.7 0.8 0.1 0.2-0.2 0.5-0.3 0.8z"/>
							<path id="path5706" fill-rule="evenodd" class="s14" d="m735.4 225.5c-0.1-0.3 0.1-1 0.3-1.2 0.3-0.3 0.8-0.4 1.1-0.1 0.2 0.1 0.2 0.4 0.3 1 0.1 0.5 0.1 1.9 0.1 1.9 0 0-0.2-0.3-0.3-0.4-0.4-0.5-0.5-0.3-0.9-0.8-0.1-0.1-0.5-0.1-0.6-0.4z"/>
						</g>
					</g>
				</g>
				<g id="g5856">
					<g id="g5720">
						<path id="path5714" fill-rule="evenodd" class="s7" d="m654.9 183.7l-1.1 2.6c0 0-1.9-3.3-3.1-3.9-1-0.4-2.3-0.8-3.3-0.5-0.9 0.3-2.5 1.5-3.4 1.8-1.2 0.3-2.7 0.4-3.8-0.3-1-0.6-2.1-2.3-2.6-3.8-0.5-1.6-0.4-4-0.1-5.7 0.1-0.8 1.1-2.6 1.1-2.6 0 0 0.3 1.5 0.4 2.2 0.3 1.3 0 3.4 0.3 4.7 0.3 1.1 0.7 1.8 1.5 2.3 0.9 0.6 2 0.4 3 0.1 1.1-0.4 2.4-1.5 3.5-1.9 1.1-0.4 2.6-0.3 3.7 0.2 1.4 0.5 4.4 3 4.4 3 0 0-0.5 1.8-0.5 1.8z"/>
						<path id="path5716" fill-rule="evenodd" class="s8" d="m638.5 171.5l0.6 2.4v2.9l0.5 2.4 1.2 1.4 1.5 0.5 2.4-1 2.2-1.3 2-0.4 1.5 0.1 2.2 1.3 2.8 2.1-0.7 2.2c0 0-3.2-3.3-4.1-3.7-0.6-0.2-1.4-0.4-2.1-0.4-0.5 0.1-1.3 0.2-1.8 0.4-0.5 0.3-1.2 0.9-1.8 1.2-0.6 0.3-1.5 0.5-2.1 0.6-0.5 0-1.2 0.1-1.7-0.1-0.6-0.2-1.2-0.8-1.7-1.3-0.4-0.6-0.8-1.5-0.9-2.2-0.2-0.7-0.2-1.7-0.3-2.4 0-0.6 0.1-1.5 0-2.1-0.1-0.3-0.4-1-0.4-1l0.7-1.9z"/>
						<path id="path5718" class="s10" d="m654.9 183.7l-1.1 2.6c0 0-1.9-3.3-3.1-3.9-1-0.4-2.3-0.8-3.3-0.5-0.9 0.3-2.5 1.5-3.4 1.8-1.2 0.3-2.7 0.4-3.8-0.3-1-0.6-2.1-2.3-2.6-3.8-0.5-1.6-0.4-4-0.1-5.7 0.1-0.8 1.1-2.6 1.1-2.6 0 0 0.3 1.5 0.4 2.2 0.3 1.3 0 3.4 0.3 4.7 0.3 1.1 0.7 1.8 1.5 2.3 0.9 0.6 2 0.4 3 0.1 1.1-0.4 2.4-1.5 3.5-1.9 1.1-0.4 2.6-0.3 3.7 0.2 1.4 0.5 4.4 3 4.4 3 0 0-0.5 1.8-0.5 1.8z"/>
					</g>
					<path id="path5722" fill-rule="evenodd" class="s14" d="m648.1 186.1c0 0 0-1.8 0.1-2.4 0.1-0.4 0.4-1.6 0.4-1.6 0 0 0.3 1 0.5 1.4 0.2 0.5 0.9 1.7 0.9 1.7z"/>
					<g id="g5726">
						<g id="g5724">
						</g>
					</g>
					<path id="path5728" fill-rule="evenodd" class="s14" d="m649.8 175.3c0 0-0.7 1.7-1 2.4-0.1 0.6-0.4 2.2-0.4 2.2 0 0-0.6-1.7-0.7-2.5-0.1-0.7-0.1-2.4-0.1-2.4z"/>
					<g id="g5854">
						<path id="path5730" fill-rule="evenodd" class="s7" d="m654.5 203c-0.2 1-0.3 2.6 0.2 3.2 0.9 0.9 2.5 0.4 2.5 0.4 0 0-1.1 1.8-2.2 2.4-1 0.6-2.5 0.5-3.5-0.1-0.4-0.3-1-0.7-1.4-1.4-1-1.6-1.4-3.4-1.4-3.4 0 0-0.6 3-1.6 4.1-0.9 1-4.3 1.4-4.7 2.8-0.4 1.1-0.5 2.4 0.1 3.4 0.4 0.7 2.3 1.3 2.3 1.3 0 0-2 1.1-2.9 0.9-1-0.2-2.3-1.4-2.8-2.6-0.6-1.4-0.6-3.9-0.2-5.4 0.5-2.1 3-4.9 3-4.9l-3 0.6c-1.9 0.4-2.7 2.7-4.5 3.2-1.5 0.3-2.6 0.7-4 0-1-0.6-1.5-1.9-2.6-2.3-0.7-0.2-2.5 0.6-2.5 0.6 0 0 1.3-2.4 2.1-2.6 1.4-0.3 2.3 0.8 3.7 0.9 1.1 0.1 2-0.3 3-1.1 0.7-0.5 0.9-2.1 1.5-3.1 0.5-0.8 1.3-1 1.9-1.4 1.3-0.8 4.7 0 4.7 0 0 0-1.9-1.9-2.3-3.2-0.2-0.9 0.1-2.2 0-3.2 0-0.9 0-2.3-0.4-3.1-0.3-0.8-1.5-2-1.5-2 0 0 1.8-0.3 2.5 0 0.8 0.3 2 1 2.6 2 0.3 0.6 0.1 2 0.4 2.7 0.4 0.9 1.1 1.8 1.8 2.2 0.8 0.4 2.1 0.3 2.9 0 1-0.4 2.2-1.3 2.9-2.3 0.2-0.3 0.6-0.9 0.6-1.3-0.1-0.5-0.6-0.9-0.9-1.1-0.6-0.2-1.4 0.4-2 0.4-0.5 0-1.7-0.1-1.7-0.1 0 0 0.2-0.8 0.3-1.2 0-0.5-0.1-1.2 0-1.7 0.1-0.5 0.5-1.2 0.8-1.5 0.9-0.6 2.3-0.3 3.3-0.2 0.4 0 0.8 0.2 1.2 0.2 0.4 0 1-0.2 1.2-0.6 0.3-0.5 0.6-1.4 0.5-2.1-0.2-0.8-0.5-1.6-0.5-1.6 0 0 0.2-1.3 0.4-2 0.1-0.5 0.2-1.4 0-2-0.3-0.8-1.4-1.4-1.4-1.4 0 0-1.9 0.7-3.3 0.6-1.2 0-2.1-0.6-2.3-0.9-0.2-0.2-0.4-0.5-0.5-0.8-0.1-0.2-0.2-1-0.3-1.9 0-0.8 0.1-1.7 0.1-2.2 0-0.2-0.3-0.4-0.4-0.7-0.2-0.4-0.2-0.7-0.2-0.9 0-0.7 0.3-0.8 0.6-0.9 1-0.6 3.4-0.7 3.4-0.7 0 0 0.7-1 1.1-1.4 1.4-1.1 3.6-0.9 5.2-0.8 1.7 0 3.6 0.8 5.1 1.9 0.5 0.3 0.6 0.4 0.7 0.9 0.1 0.5 0.2 1.2 0.2 1.2 0 0 0.9-1.2 1.4-1.5 0.8-0.4 2.7-0.1 2.7-0.1 0 0 0.1 3.5-0.6 4.9-0.5 1-2.2 2.1-2.2 2.1 0 0 1.2 0.8 1.6 1.3 0.5 0.9 0.8 2.6 1.3 3.6 0.4 0.8 0.7 1.7 1.2 2 0.4 0.3 1.5 0.1 1.5 0.1 0 0-0.7 1-1.1 1.2-0.5 0.4-1.3 0.8-1.9 0.7-0.9-0.2-2-1.1-2-1.1 0 0 0.4 1.6 0.8 2 0.8 0.9 1.7 0.3 2.4 1.2 0.5 0.6 0.9 1.7 1.5 2 0.6 0.4 1.9-0.1 1.9-0.1 0 0-0.7 2-1.3 2.5-0.5 0.4-1 0.6-1.6 0.5-0.6-0.1-1.4-1.2-2.1-1.3-0.6-0.1-2 0.6-2.6 0.4-0.9-0.3-2-2.5-2-2.5 0 0 0.1 3.7-0.2 5.2-0.3 1.7-1 3.9-1.8 5.3-0.6 1-1.9 1.8-2.6 2.8-0.6 0.9-1.9 1.8-2.1 3z"/>
						<path id="path5732" fill-rule="evenodd" class="s8" d="m661.9 171.5c0-0.2 0-0.9 0-1.1 0-0.5 0.2-0.9 0.3-1.2 0.1-0.4 0.7-1.1 0.7-1.1l1.3-1 2.2-0.1-1.4 1.5-1.1 0.6-1.2 1.8-0.2 1.8c0 0-0.5-0.8-0.6-1.2z"/>
						<path id="path5734" fill-rule="evenodd" class="s8" d="m646.2 169.7l-0.3-1.2 0.6-0.7 2-0.9 1.5 0.1 0.2-0.5 1.9-1.8h4.8l3.9 1.7 1.2 1.2 0.1 2.2c0 0-0.1-0.3-0.3-0.9-0.1-0.2-0.2-0.6-0.4-0.9-0.3-0.4-0.6-0.5-1.1-0.8-1.6-0.9-3.9-1.4-4.4-1.3-0.9 0-2.4 0.1-3.2 0.5-0.4 0.2-1.4 1.6-2.3 2-0.9 0.4-1.7-0.2-1.8-0.1-0.2 0.2-0.1 0.6-0.2 0.8-0.3 0.2-0.9 0.9-0.9 0.9h-0.9z"/>
						<path id="path5736" fill-rule="evenodd" class="s9" d="m663 172.6l-0.4-0.2v-1.1l0.4-0.9 0.4-0.8 0.6-0.5 1.3-0.6c0 0-0.2 1.3-0.3 1.6 0 0.6-0.2 1-0.4 1.5-0.2 0.3-0.5 0.7-0.7 0.9-0.3 0.1-0.9 0.1-0.9 0.1z"/>
						<path id="path5738" fill-rule="evenodd" class="s8" d="m655.8 175.1c0.2 0.3 0.4 0.9 0.5 1.4 0.2 0.9 0 1.9-0.1 2.2-0.1 0.5-0.3 1-0.4 1.4q-0.1 0.3-0.1 0.4c0 0.2 0.1 0.4 0.2 0.8 0.2 0.6 0.4 1.3 0.4 1.9 0 0.8-0.4 2.1-0.8 2.6-0.6 0.6-1.2 0.4-1.2 0.4 0.7-0.5 1.3-1.8 1.3-2.9 0-0.4-0.2-1-0.4-1.6-0.1-0.5-0.4-1.1-0.4-1.1l0.4-0.9c0.1-0.4 0.2-0.9 0.4-1.4 0.1-0.3 0.1-1.1 0-1.8q0-0.4-0.1-0.6c-0.1-0.6-0.8-1.4-1.2-1.6 0 0 1-0.1 1.5 0.8z"/>
						<path id="path5740" fill-rule="evenodd" class="s9" d="m652.9 175.7l-2.6 0.5-2.1-0.2-1.6-1.9-0.1-4.1c0 0 0.5-0.1 0.6 0.2 0.2 0.5 0.1 0.4 0.2 1 0.1 0.1-0.2 2.4 0.6 3.1 1 0.9 3 0.4 3.2 0.2 0.6-0.3 1.1-0.5 1.3-0.5 0.2 0 0.8-0.2 1 0.1 0.2 0.1 0.7 0.4 0.9 0.8 0.3 0.5 0.2 1.5 0.2 1.5z"/>
						<path id="path5742" fill-rule="evenodd" class="s9" d="m650.4 187.2c0 0 2.3 1 3.3 0.9 0.9-0.1 2.3-0.6 3-1.5 0.6-0.7 0.9-2.3 0.9-3.3-0.1-1.3-1.2-3.3-1.2-3.3 0 0 1-1.8 1.1-2.8 0.1-0.5 0.1-1.3 0-1.7-0.2-0.6-0.4-1.9-0.4-1.9l0.9 0.5 0.6 2-0.1 1.5-1.2 2.3 0.9 2.1 0.4 2-0.4 2.8-1.2 1.5-1.9 1.1-1.2 0.3h-1.7l-1.6-0.7-0.8 0.3-1.3 0.5-1.6-0.3 0.5-1.2v-1.4l0.4-1.1c0 0 0.4 1.1 0.4 1.6 0 0.3 0 0.7 0.2 1 0.2 0.3 0.7 0.2 1.1-0.3 0.3-0.3 0.5-0.9 0.7-1 0.2-0.1 0.2 0.1 0.2 0.1z"/>
						<path id="path5744" fill-rule="evenodd" class="s9" d="m668.9 181.6l-1.1 1.3-1.2 0.4-1.1-0.2-1.3-1.1-1-2.1-0.9-1.4-1.2-0.6c0 0 0.5-0.5 0.8-0.5q0.6 0 1.1 0.3c0.4 0.2 0.9 1.1 1.1 1.6 0.3 0.4 0.6 1.1 0.9 1.5 0.3 0.4 0.6 0.8 0.9 1 0.3 0.1 0.6 0.1 0.9 0.1 0.6 0 2.1-0.3 2.1-0.3z"/>
						<path id="path5746" fill-rule="evenodd" class="s9" d="m661.4 186.8c-0.8-2.6-0.8-2.6-0.8-2.6 0 0 1 1.1 1.5 1.6 0.4 0.4 0.8 1.1 1.2 1.4 0.4 0.2 0.8 0.3 1.2 0.3 0.4 0 0.9-0.3 1.2-0.3 0.3 0.1 0.7 0.3 1 0.5 0.4 0.2 0.8 0.8 1.2 1 0.3 0.2 0.7 0.4 1 0.3 0.8-0.2 2.1-2 2.1-2l-1.3 2.6-1.2 0.6-1.6-0.6-1.1-0.9-1.4 0.3-1.5 0.2-1-1.2z"/>
						<path id="path5748" fill-rule="evenodd" class="s8" d="m666.6 179.8c0 0-0.7-0.3-0.9-0.5-0.3-0.4-0.6-1-0.8-1.5-0.1-0.3-0.1-0.8-0.3-1-0.1-0.3-0.4-0.4-0.6-0.5-0.2-0.2-0.4-0.5-0.5-0.7-0.2-0.3-0.4-1.3-0.4-1.3l1.5 0.4 0.8 1.3 0.8 1.7z"/>
						<path id="path5750" fill-rule="evenodd" class="s8" d="m669.8 187.3c0 0-0.6 0.9-0.9 0.9-0.3 0-0.6 0-0.8-0.3-0.3-0.3-0.5-0.9-0.7-1.2-0.2-0.4-0.7-0.7-1-0.8-0.3-0.1-0.9 0.2-1.2 0.1-0.3-0.1-1-0.6-1.2-1-0.3-0.4-0.5-1.5-0.6-2.1 0-0.2-0.2-1.4-0.7-2.4-0.3-0.5-0.8-0.9-1.1-1.2-0.4-0.7-0.5-1.3-0.5-1.3l1.7 1.2 1.8 4.5 0.8 0.7 0.9 0.3 1 0.4 1.4 2.1c0 0 1.1 0.1 1.1 0.1z"/>
						<path id="ellipse5752" class="s15" d="m654.3 170.1c-0.4 0-0.8-0.4-0.8-0.9 0-0.6 0.4-1 0.8-1 0.5 0 0.9 0.4 0.9 1 0 0.5-0.4 0.9-0.9 0.9z"/>
						<path id="path5754" fill-rule="evenodd" class="s8" d="m651.7 170.5c0 0 0.3-1.4 0.7-2 0.2-0.5 0.8-0.9 1.2-1.1 0.5-0.3 1.1-0.4 1.6-0.4 0.5-0.1 1.4 0 1.9 0.3 0.3 0.2 0.8 0.9 0.8 0.9 0 0-3.1 0.2-4.4 0.9-0.6 0.3-1.8 1.4-1.8 1.4z"/>
						<path id="path5756" fill-rule="evenodd" class="s8" d="m648.2 184.9l1.3-0.2h1.9l1.8 0.3c0 0-0.6 0.9-0.9 1.1-0.3 0.1-0.8 0.1-1.1 0-0.4 0-1.5-0.4-1.5-0.4 0 0-0.7 0.4-1 0.4-0.3 0.1-0.9-0.1-0.9-0.1 0 0 0.4-1.1 0.4-1.1z"/>
						<path id="path5758" fill-rule="evenodd" class="s9" d="m649.1 204.3c0 0 1.2 2 1.9 2.7 0.4 0.4 1.1 0.7 1.6 0.9 0.7 0.1 2.5-0.1 2.5-0.1 0 0-1.2-1-1.5-1.6-0.3-0.9-0.4-2.2-0.3-3.2 0.2-0.9 0.7-2 1.1-2.8 0.6-0.8 1.5-1.6 2.2-2.2 0.6-0.6 1.6-1.1 2.2-1.8 0.8-1 2.2-4 2.2-4l-1.5 4.6-1.9 2.5-2.3 2-0.8 1.5v3.1l1.1 0.7h1.6l-1.5 2.2-1.7 0.9-1.8-0.6-2-1.1-0.8-1.6z"/>
						<path id="path5764" fill-rule="evenodd" class="s9" d="m642.4 216.4c0 0-0.6-0.7-0.8-1.2-0.4-0.9-0.7-1.9-0.6-2.6 0-1.1 0.1-2.2 0.7-3.1 0.3-0.6 1.1-1.3 1.7-1.6 0.5-0.2 1.4 0 2-0.3 0.6-0.3 1.3-1 1.7-1.7 0.4-0.6 0.5-1.7 0.7-2.5 0.3-1 0.4-2.6 0.9-3.5 0.3-0.7 1.4-1.6 1.4-1.6l-1.3 4.4v-0.1 2.3l-1.7 3.3-3.9 1.8-0.8 0.7-0.4 2.2 0.4 1.4 2.3 1.4z"/>
						<path id="path5767" fill-rule="evenodd" class="s9" d="m625.9 205.5c0 0 0.7-1.2 1.1-1.4 0.5-0.2 1.2 0 1.7 0.3 0.7 0.4 1.3 1.7 2 2 0.7 0.3 1.8 0.2 2.5 0.1 0.6-0.2 1.5-0.6 2-1 0.7-0.5 1.5-2 2.2-2.4 0.7-0.4 1.7-0.7 2.5-0.8 0.9 0 3.1 0.8 3.1 0.8l-4.5 1.5-1.4 0.5-1.6 1.8-1.4 0.7-2 0.4-1.5-0.2-1.4-1.3-1.3-1.4z"/>
						<path id="path5769" fill-rule="evenodd" class="s9" d="m640.8 197l-0.9-1.8v-3.3l-0.3-2.5-1.1-2.4c0 0 0.7 0.1 1.3 0.6 0.2 0.3 0.4 0.9 0.6 1.1 0.4 0.6 0.5 1.9 0.7 2.7 0.2 1.1 0 2.6 0.3 3.6 0.4 1.4 2 4.2 2 4.2z"/>
						<path id="path5771" fill-rule="evenodd" class="s8" d="m641.6 216.3l-1.7-0.9-1-2-0.4-2.4 0.4-2.8 1.2-2.4 1.8-2.1c0 0 2.3-1.2 2.9-2.3 0.5-0.7 0.8-2.1 1.2-2.7 0.4-0.7 0.8-1.2 1.4-1.5 0.5-0.3 1.8-0.5 1.8-0.5 0 0-0.5 0.6-0.6 0.8-0.5 0.6-1.2 1.2-1.6 1.9-0.4 0.7-0.5 2.4-0.8 3.1-0.5 0.8-0.9 1.3-1.5 1.9-0.7 0.6-1.9 1-2.5 1.7-0.6 0.6-1.5 1.4-1.9 2.3-0.3 0.6-0.6 1.6-0.7 2.4-0.1 0.6-0.1 1.2 0 1.8 0.1 0.6 0.7 1.9 0.7 1.9z"/>
						<path id="path5779" fill-rule="evenodd" class="s9" d="m649.8 192.9l1.3-1.3 0.6-1.4-0.3-1.2 1.4 0.4 1.4 0.1 1.7-0.5 1.9-2c0 0-0.1 1.5-0.3 2-0.2 0.6-0.6 1.3-1 1.6-0.5 0.5-1.4 0.8-2 0.9-0.5 0.1-1.6-0.2-1.6-0.2 0 0-0.8 1.4-1.2 1.8-0.7 0.5-2.4 0.6-2.4 0.6z"/>
						<path id="path5783" fill-rule="evenodd" class="s8" d="m648.7 194c0 0-1.4 1.3-2.1 1.6-0.4 0.1-1 0.1-1.4 0-0.7-0.2-1.6-0.6-2.1-1.2-0.4-0.6-0.8-1.7-0.9-2.5-0.1-0.6 0.2-1.5 0-2-0.1-0.6-0.6-1.2-0.9-1.6-0.3-0.4-1.2-1.3-1.2-1.3l2.8 1.4 0.3 0.8 0.2 1.9 1.3 2.3 1.7 0.9z"/>
						<path id="path5785" fill-rule="evenodd" class="s8" d="m631.9 204l2-0.8 0.9-1.6 0.7-1.6 1.5-1.4 1.7-0.7 2.2 0.2 1.8 0.6-0.2-0.1c0 0-2 0.9-2.8 1-0.6 0.1-1.3-0.1-1.8 0.1-0.5 0.3-1.1 0.9-1.5 1.5-0.4 0.7-0.6 2-1.1 2.7-0.4 0.7-1.3 1.4-1.9 1.6-0.6 0.2-1.3 0-1.9-0.2-0.6-0.2-1.8-1.4-1.8-1.4z"/>
						<path id="path5811" class="s10" d="m654.5 203c-0.2 1-0.3 2.6 0.2 3.2 0.9 0.9 2.5 0.4 2.5 0.4 0 0-1.1 1.8-2.2 2.4-1 0.6-2.5 0.5-3.5-0.1-0.4-0.3-1-0.7-1.4-1.4-1-1.6-1.4-3.4-1.4-3.4 0 0-0.6 3-1.6 4.1-0.9 1-4.3 1.4-4.7 2.8-0.4 1.1-0.5 2.4 0.1 3.4 0.4 0.7 2.3 1.3 2.3 1.3 0 0-2 1.1-2.9 0.9-1-0.2-2.3-1.4-2.8-2.6-0.6-1.4-0.6-3.9-0.2-5.4 0.5-2.1 3-4.9 3-4.9l-3 0.6c-1.9 0.4-2.7 2.7-4.5 3.2-1.5 0.3-2.6 0.7-4 0-1-0.6-1.5-1.9-2.6-2.3-0.7-0.2-2.5 0.6-2.5 0.6 0 0 1.3-2.4 2.1-2.6 1.4-0.3 2.3 0.8 3.7 0.9 1.1 0.1 2-0.3 3-1.1 0.7-0.5 0.9-2.1 1.5-3.1 0.5-0.8 1.3-1 1.9-1.4 1.3-0.8 4.7 0 4.7 0 0 0-1.9-1.9-2.3-3.2-0.2-0.9 0.1-2.2 0-3.2 0-0.9 0-2.3-0.4-3.1-0.3-0.8-1.5-2-1.5-2 0 0 1.8-0.3 2.5 0 0.8 0.3 2 1 2.6 2 0.3 0.6 0.1 2 0.4 2.7 0.4 0.9 1.1 1.8 1.8 2.2 0.8 0.4 2.1 0.3 2.9 0 1-0.4 2.2-1.3 2.9-2.3 0.2-0.3 0.6-0.9 0.6-1.3-0.1-0.5-0.6-0.9-0.9-1.1-0.6-0.2-1.4 0.4-2 0.4-0.5 0-1.7-0.1-1.7-0.1 0 0 0.2-0.8 0.3-1.2 0-0.5-0.1-1.2 0-1.7 0.1-0.5 0.5-1.2 0.8-1.5 0.9-0.6 2.3-0.3 3.3-0.2 0.4 0 0.8 0.2 1.2 0.2 0.4 0 1-0.2 1.2-0.6 0.3-0.5 0.6-1.4 0.5-2.1-0.2-0.8-0.5-1.6-0.5-1.6 0 0 0.2-1.3 0.4-2 0.1-0.5 0.2-1.4 0-2-0.3-0.8-1.4-1.4-1.4-1.4 0 0-1.9 0.7-3.3 0.6-1.2 0-2.1-0.6-2.3-0.9-0.2-0.2-0.4-0.5-0.5-0.8-0.1-0.2-0.2-1-0.3-1.9 0-0.8 0.1-1.7 0.1-2.2 0-0.2-0.3-0.4-0.4-0.7-0.2-0.4-0.2-0.7-0.2-0.9 0-0.7 0.3-0.8 0.6-0.9 1-0.6 3.4-0.7 3.4-0.7 0 0 0.7-1 1.1-1.4 1.4-1.1 3.6-0.9 5.2-0.8 1.7 0 3.4 0.6 4.9 1.7 0.5 0.3 0.8 0.6 0.9 1.1 0.1 0.5 0.2 1.2 0.2 1.2 0 0 0.9-1.2 1.4-1.5 0.8-0.4 2.7-0.1 2.7-0.1 0 0 0.1 3.5-0.6 4.9-0.5 1-2.2 2.1-2.2 2.1 0 0 1.2 0.8 1.6 1.3 0.5 0.9 0.8 2.6 1.3 3.6 0.4 0.8 0.7 1.7 1.2 2 0.4 0.3 1.5 0.1 1.5 0.1 0 0-0.7 1-1.1 1.2-0.5 0.4-1.3 0.8-1.9 0.7-0.9-0.2-2-1.1-2-1.1 0 0 0.4 1.6 0.8 2 0.8 0.9 1.7 0.3 2.4 1.2 0.5 0.6 0.9 1.7 1.5 2 0.6 0.4 1.9-0.1 1.9-0.1 0 0-0.7 2-1.3 2.5-0.5 0.4-1 0.6-1.6 0.5-0.6-0.1-1.4-1.2-2.1-1.3-0.6-0.1-2 0.6-2.6 0.4-0.9-0.3-2-2.5-2-2.5 0 0 0.1 3.7-0.2 5.2-0.3 1.7-1 3.9-1.8 5.3-0.6 1-1.9 1.8-2.6 2.8-0.6 0.9-1.9 1.8-2.1 3z"/>
						<path id="path5836" fill-rule="evenodd" class="s8" d="m659.2 188.1c0 0-0.5 3.6-1.1 5-0.5 1.3-1.4 2.8-2.2 3.8-0.7 0.8-2 1.4-2.6 2.4-0.5 0.8-0.9 2.3-1.1 3.4-0.1 0.8 0 1.9 0.2 2.7 0.1 0.4 0.5 1.1 0.5 1.1 0 0-0.9-0.2-1.1-0.6-0.5-0.8-0.7-2.3-0.7-3.3-0.1-0.9 0.2-2.2 0.5-3.1 0.2-0.6 0.8-1.4 1.2-1.8 0.6-0.8 1.8-1.2 2.4-1.9 0.6-0.7 1.2-1.8 1.7-2.7 0.8-1.4 2.3-5 2.3-5z"/>
						<path id="path5841" fill-rule="evenodd" class="s8" d="m657.5 170.6c0 0 0.9 0 1.2 0.2 0.6 0.5 1.1 1.5 1.3 2.3 0.2 0.6 0.3 1.4 0.3 2 0 0.4 0 1-0.1 1.4-0.1 0.6-0.5 2-0.5 2 0 0 0.9 1.2 1.2 1.8 0.2 0.6 0.3 1.6 0.6 2.1 0.2 0.5 1.1 1.3 1.1 1.3 0 0-1-0.3-1.3-0.6-0.4-0.4-0.5-1.3-0.8-1.8-0.3-0.4-0.6-0.9-0.9-1.2-0.5-0.4-1.9-0.7-1.9-0.7 0 0 0.7-1.2 0.9-1.8 0.3-0.8 0.6-2 0.6-2.9 0.1-0.5 0-1.1-0.2-1.6-0.1-0.5-0.5-1.1-0.8-1.6-0.2-0.3-0.7-0.9-0.7-0.9z"/>
						<path id="path5843" fill-rule="evenodd" class="s12" d="m656.7 167.7q0 0 0 0c0.2 0 1.3 0.6 1.3 0.6l-0.8 0.2c0 0-0.4 0.2-0.5 0.2q0 0 0 0c-0.2 0-0.5 0-0.8 0.2q0 0.1 0 0.2c0 0.2-0.1 0.6-0.2 0.9-0.2 0.3-0.4 0.6-0.6 0.7q-0.3 0.3-0.6 0.3c-0.2 0.1-0.4 0-0.6-0.2q-0.3-0.1-0.5-0.5c-0.2-0.2-0.2-0.4-0.3-0.5q0 0 0 0c0 0-0.2 0.1-0.4 0.2q0 0 0 0c-0.1 0.1-0.1 0.1-0.1 0.1-0.1 0.1-0.3 0.2-0.3 0.2l-0.2 0.1-0.4 0.1 0.5-1 0.6-0.7c0.4-0.6 1-0.9 1.5-1 0.7-0.3 1.4-0.2 1.9-0.2 0.3 0 0.3 0 0.5 0.1zm-3.6 2.1c0 0 0 0 0 0q0 0 0 0zm1.4-1.1c-0.2 0.1-0.5 0.2-0.7 0.5 0 0.1 0 0.3 0.1 0.4 0.1 0.1 0.2 0.3 0.3 0.3 0.1 0.1 0.2 0.1 0.2 0.1 0.1 0 0.2-0.1 0.4-0.2 0.1-0.1 0.2-0.2 0.3-0.3 0-0.1 0-0.1 0-0.4 0-0.1-0.1-0.3-0.2-0.4-0.2 0-0.2 0-0.4 0zm3.1 4.7c0.2 0.1 0.4 0.4 0.6 0.6 0.1 0.2 0.3 0.4 0.4 0.7 0.3 0.8 0.4 1.8 0.2 2.7-0.1 0.6-0.4 1.2-0.7 1.8q-0.2 0.5-0.3 0.8c0.1 0.1 0.2 0.4 0.4 0.9 0.4 0.8 0.7 1.7 0.7 2.6 0 1.3-0.2 3.3-1.1 4.4-1 1.3-2.8 2.1-4.2 2.3-0.5 0-1.2-0.1-1.8-0.2-0.5-0.2-0.9-1.3-0.9-1.3h0.1c0 0 0.4 0.2 0.9 0.3 0.6 0.1 1.3 0.2 1.7 0.1 1.2-0.1 2.9-0.9 3.7-2 0.5-0.6 0.8-2.5 0.9-3.7 0-0.4-0.3-1.3-0.6-2-0.3-0.6-0.6-1.1-0.6-1.1l-0.2-0.3 0.2-0.3q0-0.1 0.2-0.3 0.1-0.3 0.3-0.7c0.3-0.6 0.5-1.3 0.6-1.6 0.1-0.6 0.1-1.3-0.1-2 0 0-0.1-0.2-0.3-0.4-0.1-0.2-0.2-0.4-0.3-0.6-0.4-0.3-0.7-1.1-0.7-1.1zm-9.6-4.2c0.2-0.2 0.4-0.5 0.4-0.5 0 0 0.1 0.2 0.1 0.4 0 0.3-0.1 0.6-0.2 0.7-0.1 0.2-0.3 0.5-0.6 0.6-0.2 0.1-0.4 0.2-0.6 0.2q-0.2 0-0.3 0.1c0 0 0-1 0-1h-0.2q0 0 0.2-0.1 0 0 0.2 0c0.2 0 0.5-0.1 0.5-0.1 0 0 0.3-0.1 0.5-0.3zm13.4 8.6c0.4 0.1 0.7 0.1 1.1 0.5 0.2 0.2 0.5 0.6 0.7 0.8 0.3 0.3 0.5 1 0.8 1.6 0.1 0.3 0.6 1.2 0.7 1.3 0.1 0.2-0.1 0.2-0.1 0.2l-0.5 0.3c0 0-0.3-0.5-0.3-0.7-0.1-0.2-0.2-0.4-0.3-0.7-0.3-0.5-0.6-1.2-0.8-1.4-0.3-0.6-1-1.3-1.5-1.5 0-0.1-0.1-0.1-0.2-0.1-0.1 0-0.2 0-0.2 0 0 0 0.4-0.4 0.6-0.3zm-8.5 17.2c0 0-0.3 0.7-0.5 1-0.2 0.2-0.3 0.4-0.6 0.7-0.6 0.8-1.3 1.8-1.6 2.3-0.4 1-0.8 2.6-1 3.8 0 0.2 0 0.6 0 1 0 0.4 0.3 2.1 0.3 2.1l-1.2-0.5c0 0 0-0.3 0-0.7 0-0.4 0.2-1.7 0.2-2.1 0.2-1.3 0.6-3 1.1-4.1 0.4-0.8 1.1-1.7 1.7-2.5 0.3-0.4 1.6-1 1.6-1zm12.5-26.6c0 0-0.3 0.4-0.6 0.5-0.3 0-0.5 0.2-0.6 0.3 0 0-0.1 0.1-0.2 0.2q-0.2 0.2-0.4 0.4c-0.3 0.4-0.6 0.9-0.7 1.3-0.1 0.1-0.1 0.4-0.1 0.6 0 0.1 0 0.4 0 0.6 0.1 0.1 0.2 0 0.3 0 0.1 0 0.1 0 0.2 0 0.2-0.1 0.5-0.2 0.4-0.2 0 0 0.5 0 0.5 0 0 0-0.1 0.1-0.1 0.2-0.1 0.2-0.2 0.3-0.3 0.4q-0.1 0.1-0.3 0.2c-0.2 0-0.2 0-0.3 0.1-0.2 0-0.4 0-0.6-0.1q-0.1 0-0.2-0.2-0.1-0.2-0.1-0.5c0 0 0-0.3 0-0.6 0-0.2 0-0.5 0.1-0.8 0.3-0.6 0.6-1.1 0.9-1.5q0.2-0.2 0.4-0.4c0.1-0.1 0.2-0.2 0.2-0.3 0.3-0.2 0.6-0.2 1-0.3 0.3-0.1 0.5 0.1 0.5 0.1zm-14.9 18.6c0.2 0.1 0.2 0.8 0.2 1.1 0 0.2 0 0.4-0.1 0.7 0 0.2 0.1 0.3 0.1 0.3l-1.4 0.1c0 0 0.7-0.7 0.8-0.9 0-0.2 0.1-0.5 0.1-0.6 0 0 0-0.3 0-0.5-0.1-0.2-0.2-0.9-0.2-0.9 0 0 0.5 0.7 0.5 0.7z"/>
						<path id="ellipse5846" class="s9" d="m649.8 171.9c-0.2 0-0.4-0.3-0.4-0.5 0-0.3 0.2-0.6 0.4-0.6 0.2 0 0.3 0.3 0.3 0.6 0 0.2-0.1 0.5-0.3 0.5z"/>
						<path id="ellipse5848" class="s9" d="m649 173.5c-0.2 0-0.4-0.2-0.4-0.5 0-0.3 0.2-0.5 0.4-0.5 0.2 0 0.4 0.2 0.4 0.5 0 0.3-0.2 0.5-0.4 0.5z"/>
						<path id="ellipse5850" class="s9" d="m650.7 173.5c-0.2 0-0.4-0.2-0.4-0.5 0-0.3 0.2-0.5 0.4-0.5 0.2 0 0.3 0.2 0.3 0.5 0 0.3-0.1 0.5-0.3 0.5z"/>
						<path id="ellipse5852" class="s9" d="m649.3 189c-0.1 0-0.3-0.2-0.3-0.4 0-0.3 0.2-0.4 0.3-0.4 0.2 0 0.4 0.1 0.4 0.4 0 0.2-0.2 0.4-0.4 0.4z"/>
					</g>
				</g>
			</g>
			<g id="g7563">
				<g id="g24570">
					<path id="path24572" fill-rule="evenodd" class="s16" d="m569.7 167.7c4-4.8 12.5-6 12.5-6 0 0 7.9 0.3 12.5 6l-7.2 16.3-0.6 0.3-4.6 1.1v0.1l-0.2-0.1-4.5-1.1-0.7-0.3z"/>
					<g id="g24574">
						<g id="g24576">
							<g id="g24578">
								<path id="path24580" class="s17" d="m570.2 167.2l8.1 17.2"/>
								<path id="path24582" class="s17" d="m571.2 166.2l8.2 18.6"/>
								<path id="path24584" class="s17" d="m572.3 165.5l8.1 19.8"/>
								<path id="path24586" class="s17" d="m573.6 164.6l7.3 20.7"/>
								<path id="path24588" class="s17" d="m575.1 163.8l6 21.8"/>
								<path id="path24590" class="s17" d="m576.6 163.1l5 23.1"/>
								<path id="path24592" class="s17" d="m578.2 162.7l4.1 24.2"/>
								<path id="path24594" class="s17" d="m580.2 162.1l2.3 24.5"/>
							</g>
							<g id="g24596">
								<path id="path24598" class="s17" d="m594.1 167l-8.2 17.4"/>
								<path id="path24600" class="s17" d="m593 166.1l-8.2 18.7"/>
								<path id="path24602" class="s17" d="m592 165.2l-8.2 20.1"/>
								<path id="path24604" class="s17" d="m590.6 164.3l-7.3 21"/>
								<path id="path24606" class="s17" d="m589.2 163.5l-6.1 22.1"/>
								<path id="path24608" class="s17" d="m587.7 162.9l-5.1 23.3"/>
								<path id="path24610" class="s17" d="m586.1 162.3l-4.2 24.6"/>
								<path id="path24612" class="s17" d="m584 161.9l-2.3 24.7"/>
							</g>
						</g>
						<path id="path24614" class="s17" d="m582 161.7v23.2"/>
					</g>
				</g>
				<g id="g4847">
					<g id="g24540">
						<path id="path24542" fill-rule="evenodd" class="s18" d="m581.8 225.1c-3.1-3.8-3.8 2.9-3.8 2.9 0 0 2.1 7.9 0 0-2-8-3.4-4.4-3.4-4.4l-0.3 3.3-0.4-5.1c0 0 1.3-0.9 0 0-1.2 0.9-1.9 4.4-1.9 4.4v-4.7c0 0 2.9-1.8 0 0-3 1.8-10.4-6-10.4-6 0 0-2.8-1.8 0 0 2.7 1.8 5.6 0.7 5-1.1-0.6-1.8-0.8-0.5-3.8-2.2-2.9-1.6-6.5-9-4.8-7.7 1.7 1.2 5.2 3.4 5.4 1.6 0.2-1.8 0.8-1.4-2.2-4.5-2.9-3.1-5-5.1-5-5.1 0 0-2.4 0 0 0 2.4 0 3-4.1 3-4.1-1.1-6.7-3.9-9.1-3.9-9.1 0 0-2.6-0.7 0 0 2.6 0.7 4.2 5.8 5.6 7.2 1.4 1.5 0.6-2.7 1.6-2.1 1 0.5 2 4.3 2.4 5.8 0.3 1.4-0.5 1.4 0.6 2.5 1 1.1 2.7-1.3 2.5-3.3-0.3-2-2.2-4.3-0.8-3 1.3 1.2 3.1 5.2 3.2 7 0.1 1.8-0.1 3.6 0.7 4.7 0.8 1.1 1-0.3 1.1-1.8 0.1-1.4-1-4.5-1-4.5 0 0-1.3-0.7 0 0 1.2 0.7 2.5 4.3 2.8 6.5 0.4 2.2-0.1 5.2 0.4 6.5 0.4 1.3 2.1 1.6 2-0.2-0.1-1.8 0.9-4.5 0.9-4.5 0 0-0.2 4.7 0 7.2 0.3 2.6 2.2 8.2 3.4 8.4 1.1 0.1 1.3 5.6 1.1 5.4z"/>
						<g id="g24544">
							<path id="path24546" class="s19" d="m581.5 222.7c-5.5-1-5.9-3.8-7.9-7.4-2.1-3.6-12.1-20.1-12.1-20.1"/>
							<path id="path24548" fill-rule="evenodd" class="s20" d="m567.7 205.6l1.1-8.4"/>
							<path id="path24550" fill-rule="evenodd" class="s20" d="m569.7 209.2l-6.9-0.2"/>
							<path id="path24552" fill-rule="evenodd" class="s20" d="m573.9 216.2l-5.1 1.1"/>
						</g>
					</g>
					<g id="g24554">
						<path id="path24556" fill-rule="evenodd" class="s18" d="m583.5 219.7c1.2-0.2 3.1-5.8 3.4-8.4 0.2-2.5 0-7.2 0-7.2 0 0 1 2.7 0.9 4.5-0.1 1.8 1.6 1.5 2 0.2 0.5-1.3 0-4.3 0.4-6.5 0.3-2.2 1.6-5.8 2.8-6.5 1.3-0.7 0 0 0 0 0 0-1.1 3.1-1 4.5 0.1 1.5 0.3 2.9 1.1 1.8 0.8-1.1 0.6-2.9 0.7-4.7 0.1-1.8 1.9-5.8 3.2-7 1.4-1.3-0.5 1-0.8 3-0.2 2 1.5 4.4 2.5 3.3 1.1-1.1 0.3-1.1 0.6-2.5 0.4-1.5 1.4-5.3 2.4-5.8 1-0.6 0.2 3.6 1.6 2.1 1.4-1.4 3-6.5 5.6-7.2 2.6-0.7 0 0 0 0 0 0-2.8 2.4-3.9 9.1 0 0 0.6 4.1 3 4.1 2.4 0 0 0 0 0 0 0-2.1 2-5 5.1-3 3.1-2.4 2.7-2.2 4.5 0.2 1.8 3.7-0.4 5.4-1.6 1.7-1.3-1.9 6.1-4.8 7.7-3 1.7-3.2 0.4-3.8 2.2-0.6 1.8 2.3 2.9 5 1.1 2.8-1.8 0 0 0 0 0 0-7.4 7.8-10.4 6-2.9-1.8 0 0 0 0v4.7c0 0-0.7-3.5-1.9-4.4-1.3-0.9 0 0 0 0l-0.4 5.1-0.3-3.3c0 0-1.4-3.6-3.4 4.4-2.1 7.9 0 0 0 0 0 0-0.7-6.7-3.8-2.9-0.2 0.2 0-5.3 1.1-5.4z"/>
						<g id="g24558">
							<path id="path24560" class="s19" d="m602.7 195.2c0 0-10 16.5-12.1 20.1-2 3.6-2.4 6.4-7.9 7.4"/>
							<path id="path24562" fill-rule="evenodd" class="s20" d="m596.5 205.6l-1.1-8.4"/>
							<path id="path24564" fill-rule="evenodd" class="s20" d="m594.5 209.2l6.9-0.2"/>
							<path id="path24566" fill-rule="evenodd" class="s20" d="m590.3 216.2l5.1 1.1"/>
						</g>
					</g>
				</g>
				<g id="g4863">
					<path id="rect24568" class="s18" d="m581.2 194.2h1.8v35.8h-1.8z"/>
					<ellipse id="path24616" class="s18" cx="582.1" cy="188.7" rx="8.5" ry="10.6"/>
					<g id="g24620">
						<path id="path24622" fill-rule="evenodd" class="s21" d="m577.1 186.3l-5.2-4 5.6 3.2"/>
						<path id="path24624" fill-rule="evenodd" class="s21" d="m578.2 192.7l-5.2 3.8 4.6-5.1"/>
					</g>
					<g id="g24626">
						<path id="path24628" fill-rule="evenodd" class="s21" d="m586.7 185.5l5.6-3.2-5.2 4"/>
						<path id="path24630" fill-rule="evenodd" class="s21" d="m586.6 191.4l4.6 5.1-5.2-3.8"/>
					</g>
				</g>
			</g>
			<g id="g1080">
				<g id="g1030">
					<path id="path986" fill-rule="evenodd" class="s16" d="m773.1 184l-0.7 0.3-4.5 1.1-0.2 0.1v-0.1l-4.6-1.1-0.6-0.3-7.2-16.3c4.6-5.7 12.5-6 12.5-6 0 0 8.5 1.2 12.5 6z"/>
					<g id="g1028">
						<g id="g1024">
							<g id="g1004">
								<path id="path988" class="s17" d="m779.8 167.2l-8.1 17.2"/>
								<path id="path990" class="s17" d="m778.8 166.2l-8.2 18.6"/>
								<path id="path992" class="s17" d="m777.7 165.5l-8.1 19.8"/>
								<path id="path994" class="s17" d="m776.4 164.6l-7.3 20.7"/>
								<path id="path996" class="s17" d="m774.9 163.8l-6 21.8"/>
								<path id="path998" class="s17" d="m773.4 163.1l-5 23.1"/>
								<path id="path1000" class="s17" d="m771.8 162.7l-4.1 24.2"/>
								<path id="path1002" class="s17" d="m769.8 162.1l-2.3 24.5"/>
							</g>
							<g id="g1022">
								<path id="path1006" class="s17" d="m755.9 167l8.2 17.4"/>
								<path id="path1008" class="s17" d="m757 166.1l8.2 18.7"/>
								<path id="path1010" class="s17" d="m758 165.2l8.2 20.1"/>
								<path id="path1012" class="s17" d="m759.4 164.3l7.3 21"/>
								<path id="path1014" class="s17" d="m760.8 163.5l6.1 22.1"/>
								<path id="path1016" class="s17" d="m762.3 162.9l5.1 23.3"/>
								<path id="path1018" class="s17" d="m763.9 162.3l4.2 24.6"/>
								<path id="path1020" class="s17" d="m766 161.9l2.3 24.7"/>
							</g>
						</g>
						<path id="path1026" class="s17" d="m768 161.7v23.2"/>
					</g>
				</g>
				<g id="g1060">
					<g id="g1044">
						<path id="path1032" fill-rule="evenodd" class="s18" d="m769.3 219.7c1.2-0.2 3.1-5.8 3.4-8.4 0.2-2.5 0-7.2 0-7.2 0 0 1 2.7 0.9 4.5-0.1 1.8 1.6 1.5 2 0.2 0.5-1.3 0-4.3 0.4-6.5 0.3-2.2 1.6-5.8 2.8-6.5 1.3-0.7 0 0 0 0 0 0-1.1 3.1-1 4.5 0.1 1.5 0.3 2.9 1.1 1.8 0.8-1.1 0.6-2.9 0.7-4.7 0.1-1.8 1.9-5.8 3.2-7 1.4-1.3-0.5 1-0.8 3-0.2 2 1.5 4.4 2.5 3.3 1.1-1.1 0.3-1.1 0.6-2.5 0.4-1.5 1.4-5.3 2.4-5.8 1-0.6 0.2 3.6 1.6 2.1 1.4-1.4 3-6.5 5.6-7.2 2.6-0.7 0 0 0 0 0 0-2.8 2.4-3.9 9.1 0 0 0.6 4.1 3 4.1 2.4 0 0 0 0 0 0 0-2.1 2-5 5.1-3 3.1-2.4 2.7-2.2 4.5 0.2 1.8 3.7-0.4 5.4-1.6 1.7-1.3-1.9 6.1-4.8 7.7-3 1.7-3.2 0.4-3.8 2.2-0.6 1.8 2.3 2.9 5 1.1 2.8-1.8 0 0 0 0 0 0-7.4 7.8-10.4 6-2.9-1.8 0 0 0 0v4.7c0 0-0.7-3.5-1.9-4.4-1.3-0.9 0 0 0 0l-0.4 5.1-0.3-3.3c0 0-1.4-3.6-3.4 4.4-2.1 7.9 0 0 0 0 0 0-0.7-6.7-3.8-2.9-0.2 0.2 0-5.3 1.1-5.4z"/>
						<g id="g1042">
							<path id="path1034" class="s19" d="m788.5 195.2c0 0-10 16.5-12.1 20.1-2 3.6-2.4 6.4-7.9 7.4"/>
							<path id="path1036" fill-rule="evenodd" class="s20" d="m782.3 205.6l-1.1-8.4"/>
							<path id="path1038" fill-rule="evenodd" class="s20" d="m780.3 209.2l6.9-0.2"/>
							<path id="path1040" fill-rule="evenodd" class="s20" d="m776.1 216.2l5.1 1.1"/>
						</g>
					</g>
					<g id="g1058">
						<path id="path1046" fill-rule="evenodd" class="s18" d="m767.6 225.1c-3.1-3.8-3.8 2.9-3.8 2.9 0 0 2.1 7.9 0 0-2-8-3.4-4.4-3.4-4.4l-0.3 3.3-0.4-5.1c0 0 1.3-0.9 0 0-1.2 0.9-1.9 4.4-1.9 4.4v-4.7c0 0 2.9-1.8 0 0-3 1.8-10.4-6-10.4-6 0 0-2.8-1.8 0 0 2.7 1.8 5.6 0.7 5-1.1-0.6-1.8-0.8-0.5-3.8-2.2-2.9-1.6-6.5-9-4.8-7.7 1.7 1.2 5.2 3.4 5.4 1.6 0.2-1.8 0.8-1.4-2.2-4.5-2.9-3.1-5-5.1-5-5.1 0 0-2.4 0 0 0 2.4 0 3-4.1 3-4.1-1.1-6.7-3.9-9.1-3.9-9.1 0 0-2.6-0.7 0 0 2.6 0.7 4.2 5.8 5.6 7.2 1.4 1.5 0.6-2.7 1.6-2.1 1 0.5 2 4.3 2.4 5.8 0.3 1.4-0.5 1.4 0.6 2.5 1 1.1 2.7-1.3 2.5-3.3-0.3-2-2.2-4.3-0.8-3 1.3 1.2 3.1 5.2 3.2 7 0.1 1.8-0.1 3.6 0.7 4.7 0.8 1.1 1-0.3 1.1-1.8 0.1-1.4-1-4.5-1-4.5 0 0-1.3-0.7 0 0 1.2 0.7 2.5 4.3 2.8 6.5 0.4 2.2-0.1 5.2 0.4 6.5 0.4 1.3 2.1 1.6 2-0.2-0.1-1.8 0.9-4.5 0.9-4.5 0 0-0.2 4.7 0 7.2 0.3 2.6 2.2 8.2 3.4 8.4 1.1 0.1 1.3 5.6 1.1 5.4z"/>
						<g id="g1056">
							<path id="path1048" class="s19" d="m767.3 222.7c-5.5-1-5.9-3.8-7.9-7.4-2.1-3.6-12.1-20.1-12.1-20.1"/>
							<path id="path1050" fill-rule="evenodd" class="s20" d="m753.5 205.6l1.1-8.4"/>
							<path id="path1052" fill-rule="evenodd" class="s20" d="m755.5 209.2l-6.9-0.2"/>
							<path id="path1054" fill-rule="evenodd" class="s20" d="m759.7 216.2l-5.1 1.1"/>
						</g>
					</g>
				</g>
				<g id="g1078">
					<path id="rect1062" class="s18" d="m768.8 230h-1.8v-35.8h1.8z"/>
					<ellipse id="path1064" class="s18" cx="767.9" cy="188.7" rx="8.5" ry="10.6"/>
					<g id="g1070">
						<path id="path1066" fill-rule="evenodd" class="s21" d="m772.5 185.5l5.6-3.2-5.2 4"/>
						<path id="path1068" fill-rule="evenodd" class="s21" d="m772.4 191.4l4.6 5.1-5.2-3.8"/>
					</g>
					<g id="g1076">
						<path id="path1072" fill-rule="evenodd" class="s21" d="m762.9 186.3l-5.2-4 5.6 3.2"/>
						<path id="path1074" fill-rule="evenodd" class="s21" d="m764 192.7l-5.2 3.8 4.6-5.1"/>
					</g>
				</g>
			</g>
		</g>
	</g>
</svg>