<svg version="1.2" xmlns="http://www.w3.org/2000/svg" viewBox="0 0 600 600" width="600" height="600">
	<title></title>
	<style>
		.s0 { fill: #dbb957 } 
		.s1 { fill: #ffffff } 
	</style>
	<g id="g1059">
		<path id="path4096" fill-rule="evenodd" class="s0" d="m88.3 88c56.1-56.1 132.2-87.7 211.6-87.7 79.3 0 155.4 31.6 211.5 87.7 56.2 56.1 87.7 132.2 87.7 211.5 0 79.4-31.5 155.5-87.7 211.6-56.1 56.1-132.2 87.6-211.5 87.6-79.4 0-155.5-31.5-211.6-87.6-56.1-56.1-87.6-132.2-87.6-211.6 0-79.3 31.5-155.4 87.6-211.5z"/>
		<path id="path3653" fill-rule="evenodd" class="s0" d="m299.9 405.3c-58.5 0-105.8-47.3-105.8-105.8 0-58.5 47.3-105.8 105.8-105.8 58.5 0 105.8 47.3 105.8 105.8 0 58.5-47.3 105.8-105.8 105.8zm95.7-105.8c0-52.9-42.8-95.7-95.7-95.7-52.9 0-95.7 42.8-95.7 95.7 0 52.9 42.8 95.7 95.7 95.7 52.9 0 95.7-42.8 95.7-95.7z"/>
		<path id="path3733" fill-rule="evenodd" class="s1" d="m8.2 299.5c0-77.3 30.7-151.5 85.4-206.3 54.7-54.7 128.9-85.4 206.3-85.4 77.4 0 151.6 30.7 206.3 85.4 54.7 54.8 85.4 129 85.4 206.3 0 77.4-30.7 151.6-85.4 206.3-54.7 54.7-128.9 85.4-206.3 85.4-77.4 0-151.6-30.7-206.3-85.4-54.7-54.7-85.4-128.9-85.4-206.3z"/>
		<path id="path4142" fill-rule="evenodd" class="s0" d="m419.6 299.5c0 31.8-12.6 62.2-35.1 84.6-22.4 22.5-52.9 35.1-84.6 35.1-31.7 0-62.2-12.6-84.6-35.1-22.5-22.4-35.1-52.8-35.1-84.6 0-31.7 12.6-62.2 35.1-84.6 22.4-22.5 52.9-35.1 84.6-35.1 31.7 0 62.2 12.6 84.6 35.1 22.5 22.4 35.1 52.9 35.1 84.6z"/>
		<path id="path4147" fill-rule="evenodd" class="s1" d="m412.1 299.5c0 29.8-11.8 58.3-32.9 79.3-21 21.1-49.6 32.9-79.3 32.9-29.8 0-58.3-11.8-79.3-32.9-21.1-21-32.9-49.5-32.9-79.3 0-29.7 11.8-58.3 32.9-79.3 21-21.1 49.5-32.9 79.3-32.9 29.7 0 58.3 11.8 79.3 32.9 21.1 21 32.9 49.6 32.9 79.3z"/>
		<path id="rect3413" fill-rule="evenodd" class="s0" d="m337.3 81.2l-37.5 130-37.4-130 37.4-73.4zm-54.8 0h34.8l-17.4-34.1z"/>
		<path id="polygon2972" class="s0" d="m288.4 252.5l16.5-11.4-2.6 36.8z"/>
		<path id="polygon4257" fill-rule="evenodd" class="s0" d="m304.9 294.4l6.4 99.9 0.3 0.3 25.4 13.9 64.7-7.6 35.5 39.3-53.3 143.4-46.9-96.4-24.1 101.5 22.8-14 2.5 14.6-20.2 4.6-14-2.7v-96.4h-1.7-4.8-1.7v96.4l-5.8 2.3-28.5-4.2 2.6-14.6 22.8 14-24.1-101.5-46.9 96.4-53.3-143.4 35.5-39.3 64.7 7.6 25.4-13.9 0.3-0.3 5-84.7-36.8-5.1 20.3-8.9 2.6-8.9c0 0 25.3 7.7 25.3 7.7z"/>
		<path id="path2537" fill-rule="evenodd" class="s0" d="m445.7 46.8l-4.3 82.3-97.4 93.8 32.6-131.3zm-19.6 34l-32.1 20.9 30.1 17.4z"/>
		<path id="path2543" fill-rule="evenodd" class="s0" d="m552.5 153.6l-44.8 69.1-131.3 32.6 93.9-97.4zm-34 19.6l-38.2 2 17.4 30.1z"/>
		<path id="path2549" fill-rule="evenodd" class="s0" d="m518.2 262l73.4 37.4-73.4 37.5-130-37.5zm0 20.1v34.8l34.1-17.4z"/>
		<path id="path2555" fill-rule="evenodd" class="s0" d="m376.4 343.6l131.3 32.6 44.9 69.1-82.3-4.3zm121.3 50l-17.4 30.1 38.2 2z"/>
		<path id="path2537" fill-rule="evenodd" class="s0" d="m223.1 91.6l32.6 131.3-97.4-93.8-4.3-82.3zm-47.5 27.5l30.2-17.4-32.2-20.9z"/>
		<path id="path2543" fill-rule="evenodd" class="s0" d="m129.4 157.9l93.9 97.4-131.3-32.6-44.8-69.1zm-27.4 47.5l17.4-30.1-38.2-2z"/>
		<path id="path2549" fill-rule="evenodd" class="s0" d="m211.4 299.4l-130 37.5-73.3-37.5 73.3-37.4zm-164 0l34 17.4v-34.8z"/>
		<path id="path2555" fill-rule="evenodd" class="s0" d="m129.4 441l-82.3 4.3 44.9-69.1 131.3-32.6zm-48.2-15.4l38.2-1.9-17.4-30.2z"/>
	</g>
</svg>