<svg version="1.2" baseProfile="tiny-ps" xmlns="http://www.w3.org/2000/svg" viewBox="0 0 600 600" width="600" height="600">
	<title></title>
	<style>
		tspan { white-space:pre }
		.s0 { fill: #000000 } 
		.s1 { fill: #f7e017;stroke: #000000;stroke-linejoin:round;stroke-width: 2.4 } 
		.s2 { fill: #f7e017;stroke: #000000;stroke-width: 2.4 } 
		.s3 { fill: none;stroke: #000000;stroke-width: 2.4 } 
		.s4 { fill: #f7e017;stroke: #000000;stroke-linecap:square;stroke-linejoin:round;stroke-width: 2.4 } 
		.s5 { fill: #f7e017;stroke: #000000;stroke-width: 2.5 } 
		.s6 { fill: none;stroke: #000000;stroke-linecap:round;stroke-width: 2.4 } 
		.s7 { fill: none;stroke: #000000;stroke-linecap:round;stroke-linejoin:round;stroke-width: 2.4 } 
	</style>
	<g >
		<g >
			<g >
				<path class="s0" d="m368.09 543.17c0 10.82-3.92 16.22-11.75 16.22h-4.24v-7.33h4.24c2.1 0 4.08-0.42 5.93-1.27c2.06-0.93 3.09-2.04 3.09-3.33c0-0.65-0.2-1.29-0.61-1.94l-2.6-4.24c-0.57-0.93-0.85-1.8-0.85-2.6c0-0.85 0.24-1.63 0.73-2.36l3.33-5.09c1.82 4 2.72 7.97 2.72 11.93zm-0.48 27l-4.12 6.6l-5.93-4.48l3.88-6.48l6.18 4.36z" />
				<path class="s0" d="m356.28 559.4h-7.93c-1.05 8.31-3.49 14.96-7.33 19.95c-3.83 4.98-8.44 7.48-13.81 7.48c-2.54 0-6.88-0.97-13.02-2.91l1.03-1.09c1.57 0.24 2.81 0.36 3.69 0.36c5.69 0 11.05-2.03 16.08-6.08c5.03-4.06 8.47-9.17 10.32-15.35l-4.66-7.45l3.21-6.42c2.54 2.78 4.62 4.18 6.24 4.18h6.18l0 7.33z" />
				<path fill-rule="evenodd" class="s0" d="m313.96 576.53c-4.8 7.83-10.15 11.74-16.05 11.74c-3.71 0-8.64-1.61-14.77-4.84l1.09-0.97c2.46 0.97 4.9 1.45 7.33 1.45c5.77 0 11.28-2.5 16.53-7.51c2.99-2.87 5.41-6.17 7.27-9.93c1.82-3.67 2.72-7.02 2.72-10.05c0-1.82-0.4-3.43-1.21-4.84c-2.38 2.74-4.66 4.12-6.84 4.12c-1.05 0-2.08-0.18-3.09-0.54c-1.01-0.36-1.91-0.88-2.69-1.54c-0.79-0.67-1.42-1.45-1.91-2.36c-0.48-0.91-0.73-1.91-0.73-3c0-1.13 0.22-2.62 0.67-4.48c0.44-1.86 1.37-4.1 2.79-6.72c0.93-1.74 1.98-3.04 3.15-3.9c1.17-0.87 2.34-1.3 3.51-1.3c1.17 0 2.34 0.45 3.51 1.36c1.17 0.91 2.22 2.29 3.15 4.15c1.82 3.71 2.72 7.99 2.72 12.83c0 9.77-2.38 18.55-7.14 26.33zm-4.54-34.87c-0.93 0-1.61 0.23-2.06 0.7c-0.44 0.46-0.67 0.98-0.67 1.54c0 1.74 0.99 2.6 2.97 2.6c0.97 0 1.76-0.18 2.36-0.54c0.61-0.36 1.09-0.91 1.45-1.63c-1.05-1.78-2.4-2.66-4.06-2.66z" />
				<path class="s0" d="m287.92 560.25c0 5.25-3.09 10.01-9.26 14.29c-9.24 6.46-18.51 9.69-27.79 9.69c-2.79 0-5.34-0.41-7.66-1.24c-2.32-0.83-4.32-2.02-5.99-3.57c-1.68-1.55-2.98-3.41-3.91-5.57c-0.93-2.16-1.39-4.57-1.39-7.23c0-5.33 2.22-12.39 6.66-21.19l1.39 0.36c-3.23 6.78-4.84 12.07-4.84 15.86c0 2.06 0.44 3.97 1.33 5.72c0.89 1.76 2.11 3.27 3.66 4.54c1.55 1.27 3.38 2.27 5.48 3c2.1 0.73 4.36 1.09 6.78 1.09c7.23 0 15.24-2.18 24.04-6.54c5.53-2.74 8.3-4.86 8.3-6.36c0-0.28-0.31-0.62-0.94-1c-0.63-0.38-1.42-0.77-2.39-1.15c-0.97-0.38-2.05-0.75-3.24-1.09c-1.19-0.34-2.37-0.64-3.54-0.88l-10.05-2.06c0.12-0.57 0.29-1.18 0.51-1.85c0.22-0.67 0.45-1.28 0.7-1.85c0.24-0.57 0.47-1.06 0.7-1.48c0.22-0.42 0.39-0.68 0.51-0.76c0.08-0.08 0.54-0.26 1.39-0.54c0.85-0.28 1.74-0.65 2.66-1.09c2.26-1.13 3.93-2.15 5-3.06c1.07-0.91 1.6-1.95 1.6-3.12c0-0.97-0.26-1.97-0.79-3c-0.52-1.03-1.1-2.06-1.73-3.09c-0.63-1.03-1.2-2.01-1.73-2.94c-0.52-0.93-0.79-1.8-0.79-2.6c0-0.4 0.13-0.97 0.39-1.7c0.26-0.73 0.6-1.51 1-2.36c0.4-0.85 0.82-1.7 1.24-2.54c0.42-0.85 0.8-1.55 1.12-2.12c0.57 1.21 1.14 2.52 1.73 3.94c0.59 1.41 1.11 2.9 1.57 4.45c0.46 1.55 0.84 3.17 1.12 4.84c0.28 1.68 0.42 3.4 0.42 5.18c0 1.17-0.17 2.31-0.51 3.42c-0.34 1.11-0.79 2.16-1.33 3.15c-0.55 0.99-1.14 1.92-1.79 2.78c-0.65 0.87-1.27 1.6-1.88 2.21l6.54 1.82c1.78 0.48 3.17 1.28 4.18 2.39c1.01 1.11 1.51 2.19 1.51 3.24l0 0zm-22.52-38.2l-3.94 6.48l-5.99-4.12l3.75-6.3l6.18 3.94zm3.27 68.77l-4 7.08l-6.48-4.18l-3.33 6.05l-6.54-3.75l3.69-7.02l6.36 4.06l3.69-6.3l6.6 4.06z" />
			</g>
			<g >
				<g >
					<g >
						<path class="s1" d="m302.76 14.66c6.81 9.06 14.43 13.69 26.76 21.34c5.69 3.53 15.15 5.98 30.58 7.04c-9.23 6.59-16.7 11.74-24.21 13.74c5.35 7.27 6.82 15.68 12.64 24.53c-8.88-0.12-19.38-4-29.15-9.48c-7.15-4.01-10.4-4.3-16.36-9.49l-0.25-47.66z" />
						<path class="s1" d="m304.14 3.28v407.83h-8.27v-407.83h8.27z" />
						<path class="s2" d="m300 0.23c3.64 0 6.58 1.47 6.58 3.29c0 1.82-2.95 3.29-6.58 3.29c-3.64 0-6.58-1.47-6.58-3.29c0-1.82 2.95-3.29 6.58-3.29z" />
						<g >
							<path class="s1" d="m330.82 132.01l3.89 41.76l-13.86-11.61l-5.71 15.32l-15.14-15.32l-15.14 15.32l-5.71-15.32l-13.86 11.61l3.89-41.76l30.82-23.77l30.82 23.77z" />
							<path class="s3" d="m330.82 132.01c0 0-14.28 3.86-30.82 3.86c-16.54 0-30.82-3.86-30.82-3.86" />
						</g>
					</g>
					<g >
						<path fill-rule="evenodd" class="s4" d="m249.64 473.42l100.71 0v36.51h-100.71l0-36.51z" />
						<path class="s1" d="m325.12 359.79v34.18c0 28.16 4.77 67.73 25.24 79.47h-100.71c20.47-11.74 25.24-51.31 25.24-79.47v-34.18h50.23z" />
					</g>
					<g >
						<path fill-rule="evenodd" class="s5" d="m328.92 341.57c0 10.06-12.95 18.22-28.92 18.22c-15.97 0-28.92-8.16-28.92-18.22c0-10.06 12.95-18.22 28.92-18.22c15.97 0 28.92 8.16 28.92 18.22z" />
						<path fill-rule="evenodd" class="s2" d="m320.2 307.04c0 9.01-9.04 16.31-20.2 16.31c-11.16 0-20.2-7.3-20.2-16.31c0-9.01 9.04-16.31 20.2-16.31c11.16 0 20.2 7.3 20.2 16.31z" />
						<path fill-rule="evenodd" class="s2" d="m316.31 276.37c0 7.93-7.3 14.36-16.31 14.36c-9.01 0-16.31-6.43-16.31-14.36c0-7.93 7.3-14.36 16.31-14.36c9.01 0 16.31 6.43 16.31 14.36z" />
					</g>
				</g>
				<g >
					<g >
						<path class="s1" d="m283.84 217.29c0 23.68-41 37.56-57.16 27.15c-11.74 3.62-23.02 4.66-33.44-4.01c-9.24 4.31-28.19 4.97-34.65-2.07c-12.59 2.21-24.97 4.68-32.95-4.5c-13.21 3.06-28.49 2.84-41.95 2.19c-5.35-0.26-5.16-4.91 0-5.59c62.98-8.28 84.56-43.03 149.19-43.03c23.72 0 50.95 10.08 50.95 29.86v0z" />
						<path class="s6" d="m166.02 219.05c-13.27 6.56-26.77 11.23-40.38 14.82" />
						<path class="s6" d="m158.59 238.36c11.11-3.43 21.35-7.86 30.98-13.01" />
						<path class="s6" d="m193.25 240.43c6.47-2.66 12.77-5.63 18.78-9.09" />
						<path class="s6" d="m226.68 244.44c3.05-1.25 5.93-2.62 8.57-4.19" />
						<path class="s7" d="m223.7 192.46c-4.86 6.71 4.04 13.44 13.07 6.53c-2.75 11.83 6.58 15.29 18.74 9.46c-9.78 12.17 4.71 18.39 14.01 9.8" />
						<path class="s7" d="m263.94 230.02c-10.41 8.67-26.23 6.01-19.26-7.91c-8.29 6.42-29.16 3.82-17.71-12.98c-11.8 7.27-28.9-0.6-15.73-10.66" />
					</g>
					<g >
						<path class="s1" d="m316.16 217.29c0-19.78 27.23-29.86 50.95-29.86c64.63 0 86.2 34.75 149.19 43.03c5.16 0.68 5.35 5.33 0 5.59c-13.46 0.65-28.74 0.87-41.95-2.19c-7.97 9.18-20.36 6.71-32.95 4.5c-6.46 7.04-25.41 6.38-34.65 2.07c-10.42 8.68-21.7 7.63-33.44 4.01c-16.15 10.41-57.16-3.47-57.16-27.15v0z" />
						<path class="s6" d="m433.98 219.05c13.27 6.56 26.77 11.23 40.38 14.82" />
						<path class="s6" d="m441.41 238.36c-11.11-3.43-21.35-7.86-30.98-13.01" />
						<path class="s6" d="m406.75 240.43c-6.47-2.66-12.77-5.63-18.78-9.09" />
						<path class="s6" d="m373.32 244.44c-3.05-1.25-5.93-2.62-8.57-4.19" />
						<path class="s7" d="m330.47 218.24c9.3 8.59 23.8 2.37 14.01-9.8c12.16 5.83 21.49 2.38 18.74-9.46c9.03 6.91 17.92 0.18 13.07-6.53" />
						<path class="s7" d="m388.76 198.47c13.16 10.06-3.93 17.93-15.73 10.66c11.45 16.8-9.42 19.4-17.71 12.98c6.97 13.92-8.85 16.58-19.26 7.91" />
					</g>
				</g>
			</g>
		</g>
	</g>
</svg>