<svg version="1.2" baseProfile="tiny-ps" xmlns="http://www.w3.org/2000/svg" viewBox="0 0 600 600" width="600" height="600"><title></title><style>tspan { white-space:pre }.shp0 { fill: #ffde5c;stroke: #968153;stroke-width: 1.392 } .shp1 { fill: #ffffff;stroke: #969696;stroke-width: 1.392 } .shp2 { fill: #ffcc00;stroke: #9c7739;stroke-width: 1.392 } .shp3 { fill: none;stroke: #9c7739;stroke-width: 1.392 } .shp4 { fill: #a58f5e;stroke: #9c7739;stroke-width: 1.392 } .shp5 { fill: #133481;stroke: #9c7739;stroke-width: 1.392 } .shp6 { fill: #ffcc00 } .shp7 { fill: #f0b124 } .shp8 { fill: #ffde5c } .shp9 { fill: none;stroke: #ffde5c;stroke-width: 1.392 } .shp10 { fill: #9c7739 } .shp11 { fill: #ffde5c;stroke: #ffde5c;stroke-width: 1.392 } .shp12 { fill: #968153 } .shp13 { fill: #bc0000;stroke: #cccccc;stroke-width: 1.392 } .shp14 { fill: #133481;stroke: #cccccc;stroke-width: 1.392 } .shp15 { fill: #4f4d4d } .shp16 { fill: #dddddd } .shp17 { fill: #84847b } .shp18 { fill: #ededed } .shp19 { fill: #ffffff } .shp20 { fill: none;stroke: #84847b;stroke-width: 1.392 } .shp21 { fill: none;stroke: #7a7a7a;stroke-width: 1.392 } .shp22 { fill: #ffcc00;stroke: #968153;stroke-width: 1.392 } </style><g ><path class="shp0" d="M275.17 66.58L233.04 158.44L233.75 166.93L240.81 160.81L277.73 67.66L277.73 63.71L275.17 66.58Z" /><path class="shp0" d="M267.01 61.65L203.58 159.58L202.54 169.48L211.5 163.79L269.77 63.41L270.57 58.87L267.01 61.65Z" /><path class="shp0" d="M261.02 54.38L190.05 130.66L187.6 139.21L196.36 135.59L263.17 56.35L264.58 52.48L261.02 54.38Z" /><path class="shp0" d="M252.17 46.26L159.08 116.59L154.71 125.53L165.07 123.25L254.16 48.86L256.47 44.86L252.17 46.26Z" /><path class="shp0" d="M248.06 38.91L151.17 88.42L145.71 95.93L155.6 95.52L249.47 41.62L252.24 38.32L248.06 38.91Z" /><path class="shp0" d="M243.49 29.49L131.96 63.74L124.8 70.65L135.31 72.05L244.47 32.61L248.01 29.65L243.49 29.49Z" /><path class="shp0" d="M247.46 17.69L147.39 30.1L140.25 34.91L149 37.68L247.83 20.5L251.28 18.5L247.46 17.69Z" /><path class="shp0" d="M353.57 21.6L453.67 34.14L461.77 31.26L453.93 26.27L353.85 18.6L350.01 19.69L353.57 21.6Z" /><path class="shp0" d="M354.9 32.38L466.43 66.77L476.24 65.13L468.31 57.86L355.81 29.01L351.22 29.48L354.9 32.38Z" /><path class="shp0" d="M350.94 42.48L447.81 92.14L457.08 92.21L450.97 84.25L352.33 39.54L348.03 39.23L350.94 42.48Z" /><path class="shp0" d="M345.6 50.86L438.65 121.33L448.43 123.14L443.46 113.59L347.62 48.01L343.14 46.88L345.6 50.86Z" /><path class="shp0" d="M336.62 56.56L407.52 132.96L415.84 136.07L412.95 126.91L338.83 54.37L335.07 52.68L336.62 56.56Z" /><path class="shp0" d="M329.25 63.19L392.58 161.23L401.16 166.28L399.75 155.61L332.12 61.2L328.29 58.61L329.25 63.19Z" /><path class="shp0" d="M320.87 67.04L363.03 158.98L370.06 164.5L370.5 155.31L323.82 65.79L320.74 63.04L320.87 67.04Z" /><path class="shp1" d="M497.17 483.19L487.49 432.29L429.8 277.07L356.39 239.51L345.32 187.24L300.4 187.24L255.07 187.24L244.01 239.51L170.6 277.11L112.91 432.3L103.22 483.2C103.22 483.2 91.07 509.34 150.82 524.58C210.57 539.82 165.79 599.02 300.4 598.94C435.01 599.02 390.03 539.81 449.78 524.58C509.53 509.34 497.17 483.19 497.17 483.19Z" /><g ><path class="shp2" d="M369.47 490.01L396.13 463.77L446.65 515.12L419.99 541.35L369.47 490.01Z" /><path class="shp3" d="M432.33 528.19L381.81 476.85" /><path class="shp3" d="M439.24 521.39L388.72 470.05" /><path class="shp3" d="M425.42 535L374.9 483.66" /><path class="shp2" d="M468.12 554.19L463.43 558.81L458.49 563.67L409.73 538.31C409.73 538.31 409.68 526.73 420.34 528.35C420.34 528.35 419.09 523.62 424.19 518.93C428.96 513.9 433.64 515.45 433.64 515.45C432.19 504.76 443.54 505.02 443.54 505.02L468.12 554.19Z" /><path class="shp2" d="M465.85 571.98C460.47 571.98 456.13 567.63 456.13 562.26C456.13 556.88 460.47 552.53 465.85 552.53C471.23 552.53 475.57 556.88 475.57 562.26C475.57 567.63 471.23 571.98 465.85 571.98Z" /><path class="shp4" d="M420.34 528.35L447.66 551.67" /><path class="shp4" d="M433.64 515.45L455.55 543.89" /></g><path class="shp1" d="M169.14 256.84L190.02 256.84L190.02 276.33L169.14 276.33L169.14 256.84Z" /><g ><path class="shp2" d="M180.7 541.3L154.05 515.07L204.57 463.72L231.23 489.96L180.7 541.3Z" /><path class="shp3" d="M168.36 528.19L218.89 476.85" /><path class="shp3" d="M161.45 521.39L211.97 470.05" /><path class="shp3" d="M175.27 535L225.8 483.66" /><path class="shp2" d="M132.57 554.19L137.26 558.81L142.2 563.67L190.96 538.31C190.96 538.31 191.02 526.73 180.35 528.35C180.35 528.35 181.61 523.62 176.5 518.93C171.73 513.9 167.05 515.45 167.05 515.45C168.51 504.76 157.16 505.02 157.16 505.02L132.57 554.19Z" /><path class="shp2" d="M134.84 571.98C129.47 571.98 125.12 567.63 125.12 562.26C125.12 556.88 129.47 552.53 134.84 552.53C140.22 552.53 144.57 556.88 144.57 562.26C144.57 567.63 140.22 571.98 134.84 571.98Z" /><path class="shp4" d="M180.35 528.35L153.04 551.67" /><path class="shp4" d="M167.05 515.45L145.14 543.89" /></g><path class="shp2" d="M300.69 549.74C214.9 549.74 145.55 480.39 145.55 394.59C145.55 308.79 214.9 239.44 300.69 239.44C386.49 239.44 455.84 308.79 455.84 394.59C455.84 480.39 386.49 549.74 300.69 549.74Z" /><path class="shp5" d="M300.69 538.31C221.22 538.31 156.97 474.07 156.97 394.59C156.97 315.11 221.22 250.87 300.69 250.87C380.17 250.87 444.42 315.11 444.42 394.59C444.42 474.07 380.17 538.31 300.69 538.31Z" /><path class="shp2" d="M428.61 419.79C429.91 413.11 430.71 406.25 430.96 399.25C440.63 403.75 439.34 381.17 439.34 381.17C435.91 380.75 432.82 383.4 430.75 385.83C430.28 378.85 429.28 372.01 427.76 365.37C438.22 367.15 431.14 345.73 431.14 345.73C427.74 346.21 425.44 349.55 424.07 352.42C421.82 345.85 419.07 339.52 415.85 333.46C426.44 332.5 414.05 313.62 414.05 313.62C410.87 314.97 409.52 318.81 408.94 321.95C406.42 318.2 403.7 314.59 400.81 311.13C401.04 310.27 404.65 295.75 380.29 292.73C380.29 292.73 384.35 316.7 396.86 314.59L396.89 314.56C399.41 317.59 401.79 320.73 404.03 323.99C400.31 322.31 394.99 320.87 389.12 322.34C389.12 322.34 396.74 337.67 411.54 336.52C414.34 341.86 416.78 347.41 418.8 353.17C415.64 350.58 410.87 347.8 404.81 347.7C404.81 347.7 408.2 364.49 422.8 367.21C424.1 373.03 424.99 379.01 425.45 385.1C423.06 381.8 419.19 377.91 413.39 376.25C413.39 376.25 412.32 393.35 425.72 399.75C425.47 405.9 424.78 411.92 423.68 417.8C422.24 413.98 419.5 409.18 414.3 406.06C414.3 406.06 408.83 422.33 420.15 431.98C418.33 437.81 416.1 443.45 413.48 448.88C413.08 444.81 411.68 439.45 407.45 435.09C407.45 435.09 397.97 449.37 406.39 461.61C403.14 466.73 399.53 471.59 395.59 476.16C396.25 472.13 396.26 466.63 393.33 461.35C393.33 461.35 380.5 472.68 385.43 486.67C380.99 490.76 376.25 494.53 371.25 497.95C372.92 494.23 374.36 488.93 372.89 483.07C372.89 483.07 357.56 490.69 358.71 505.49C341.36 514.58 321.63 519.73 300.69 519.73C279.74 519.73 259.99 514.57 242.63 505.46C243.76 490.68 228.44 483.07 228.44 483.07C226.99 488.9 228.4 494.18 230.06 497.9C225.08 494.48 220.35 490.72 215.92 486.63C220.82 472.66 208 461.36 208 461.36C205.09 466.6 205.08 472.06 205.73 476.08C201.81 471.52 198.21 466.67 194.98 461.57C203.34 449.33 193.88 435.09 193.88 435.09C189.69 439.42 188.28 444.73 187.87 448.78C185.26 443.37 183.04 437.75 181.23 431.94C192.49 422.29 187.04 406.06 187.04 406.06C181.88 409.16 179.15 413.9 177.7 417.71C176.6 411.85 175.92 405.85 175.67 399.73C189.01 393.31 187.94 376.26 187.94 376.26C182.2 377.9 178.34 381.73 175.95 385.02C176.41 378.95 177.3 373 178.6 367.2C193.15 364.45 196.53 347.7 196.53 347.7C190.52 347.8 185.78 350.54 182.62 353.11C184.63 347.38 187.06 341.84 189.85 336.53C204.62 337.64 212.22 322.34 212.22 322.34C206.39 320.88 201.1 322.29 197.39 323.96C199.61 320.72 201.98 317.6 204.48 314.59C216.99 316.69 221.05 292.73 221.05 292.73C195.94 295.85 200.54 311.17 200.54 311.17L200.54 311.17C197.65 314.64 194.93 318.26 192.41 322.02C191.84 318.86 190.48 314.98 187.28 313.62C187.28 313.62 174.85 332.57 185.54 333.47C182.31 339.54 179.55 345.9 177.3 352.49C175.93 349.6 173.62 346.22 170.19 345.73C170.19 345.73 163.09 367.23 173.63 365.36C172.11 372.02 171.1 378.88 170.64 385.89C168.57 383.45 165.45 380.75 161.99 381.18C161.99 381.18 160.7 403.83 170.43 399.23C170.68 406.25 171.48 413.14 172.79 419.83C170.16 418.01 166.47 416.23 163.25 417.53C163.25 417.53 167.85 439.7 176.04 432.81C178.08 439.48 180.64 445.91 183.68 452.08C180.66 451 176.64 450.24 173.87 452.33C173.87 452.33 184.06 472.57 190.19 463.76C193.88 469.64 198.03 475.21 202.58 480.41C199.38 480.14 195.27 480.44 193.13 483.18C193.13 483.18 208.24 500.12 211.86 489.98C216.92 494.7 222.35 499.01 228.11 502.88C224.96 503.46 221.08 504.81 219.73 508.01C219.73 508.01 238.66 520.43 239.58 509.75C257.81 519.45 278.61 524.95 300.69 524.95C322.76 524.95 343.55 519.46 361.76 509.78C362.71 520.41 381.61 508.01 381.61 508.01C380.26 504.82 376.41 503.47 373.27 502.89C379.02 499.03 384.44 494.72 389.49 490.02C393.14 500.08 408.21 483.19 408.21 483.19C406.08 480.46 402 480.15 398.82 480.41C403.36 475.22 407.49 469.66 411.18 463.8C417.3 472.51 427.47 452.33 427.47 452.33C424.72 450.25 420.73 450.99 417.72 452.06C420.75 445.91 423.3 439.5 425.34 432.85C433.5 439.62 438.09 417.54 438.09 417.54C434.89 416.24 431.23 417.98 428.61 419.79Z" /><g ><g ><path class="shp6" d="M325.75 479.38L325.75 463.57L275.64 463.57L275.64 479.38C292.34 491.85 260.32 496 260.32 496L260.32 509.51L341.07 509.51L341.07 496C341.07 496 310.44 491.85 325.75 479.38Z" /><path class="shp7" d="M325.75 479.38L325.75 463.57L307.66 463.57L307.66 479.38C307.66 479.38 310.92 494.2 324.25 495.59L340.87 495.59C340.86 495.59 310.44 491.85 325.75 479.38Z" /><path class="shp8" d="M260.32 495.59L341.07 495.59L341.07 496.98L260.32 496.98L260.32 495.59Z" /><path class="shp7" d="M324.1 480.28C324.55 480.28 325.05 480.28 325.63 478.89L275.76 478.89C276.39 480.28 276.93 480.28 277.43 480.28L324.1 480.28Z" /><path class="shp3" d="M325.06 479.38L325.06 464.27L274.94 464.27L274.94 479.38C291.65 491.85 259.63 496 259.63 496L259.63 510.21L340.37 510.21L340.37 496C340.37 496 309.74 491.85 325.06 479.38Z" /><path class="shp3" d="M274.25 478.19L324.36 478.19" /><path class="shp3" d="M300.59 464.84L300.74 478.69" /><path class="shp3" d="M293.66 464.84L293.82 478.69" /><path class="shp3" d="M286.74 464.84L286.89 478.69" /><path class="shp3" d="M279.81 464.84L279.96 478.69" /><path class="shp3" d="M321.37 464.84L321.52 478.69" /><path class="shp3" d="M314.44 464.84L314.59 478.69" /><path class="shp3" d="M307.51 464.84L307.67 478.69" /><path class="shp3" d="M258.93 497.68L339.68 497.68" /><path class="shp3" d="M284.19 478.69C284.19 478.69 292.27 490.23 275.76 498.08" /><path class="shp3" d="M295.62 478.69C295.62 478.69 297.82 492.42 290.08 498.08" /><path class="shp3" d="M316.57 478.69C316.57 478.69 308.48 490.23 324.99 498.08" /><path class="shp3" d="M305.14 478.69C305.14 478.69 302.94 492.42 310.68 498.08" /><path class="shp8" d="M277.03 467.75L278.42 467.75L278.42 474.71L277.03 474.71L277.03 467.75Z" /><path class="shp8" d="M282.6 467.75L283.99 467.75L283.99 474.71L282.6 474.71L282.6 467.75Z" /><path class="shp8" d="M289.56 467.75L290.95 467.75L290.95 474.71L289.56 474.71L289.56 467.75Z" /><path class="shp8" d="M296.52 467.75L297.91 467.75L297.91 474.71L296.52 474.71L296.52 467.75Z" /><path class="shp8" d="M281.65 484.32C281.65 484.32 282.95 488.9 276.54 493.15C276.54 493.15 285.54 491.5 281.65 484.32Z" /><path class="shp8" d="M289.61 484.75C289.61 484.75 290.74 490.81 287.45 492.28C287.45 492.28 295.04 490.81 289.61 484.75Z" /><path class="shp8" d="M300.59 484.75C300.59 484.75 296.93 487.43 300.59 491.5C300.59 491.5 303.17 488.73 300.59 484.75Z" /></g><g ><path class="shp6" d="M359.88 427.38L300.69 427.38L241.65 427.38C241.65 427.38 232.3 443.51 245.81 458.4C259.31 473.29 300.69 471.57 300.69 471.57C300.69 471.57 342.15 473.54 355.65 458.65C369.16 443.76 359.88 427.38 359.88 427.38Z" /><path class="shp7" d="M331.77 427.38C333.91 435.73 336.69 457.89 312.31 471.61C325.62 470.99 346.73 468.57 355.65 458.73C369.16 443.84 359.87 427.38 359.87 427.38L331.77 427.38L331.77 427.38Z" /><path class="shp3" d="M359.88 428.07L300.69 428.07L241.65 428.07C241.65 428.07 232.3 443.86 245.81 458.75C259.31 473.64 300.69 471.75 300.69 471.75C300.69 471.75 342.15 473.98 355.65 459.09C369.16 444.2 359.88 428.07 359.88 428.07Z" /><path class="shp3" d="M300 427.44L300.69 471.59" /><path class="shp3" d="M249.79 427.44C249.79 427.44 240.1 453.37 270.05 469.32" /><path class="shp3" d="M265.03 427.44C265.03 427.44 255.85 448.88 277.84 470.54" /><path class="shp3" d="M280.09 427.44C280.09 427.44 279.29 456.46 290.08 471.3" /><path class="shp3" d="M350.92 427.44C350.92 427.44 360.61 453.37 330.65 469.32" /><path class="shp3" d="M335.68 427.44C335.68 427.44 344.85 448.88 322.86 470.54" /><path class="shp3" d="M320.62 427.44C320.62 427.44 321.42 456.46 310.63 471.3" /><path class="shp8" d="M242.52 446.83C242.52 446.83 243.96 455.96 250.83 458.08C250.83 458.08 247.36 452.89 246.67 446.83C246.67 446.83 244.59 444.23 242.52 446.83Z" /><path class="shp8" d="M254.98 446.83C254.98 446.83 256.42 455.96 263.29 458.08C263.29 458.08 259.83 452.89 259.14 446.83C259.14 446.83 257.06 444.23 254.98 446.83Z" /><path class="shp8" d="M270.48 447.18C270.48 447.18 270.74 453.93 275.24 456.18C275.24 456.18 277.14 450.29 275.24 446.66C273.34 443.02 270.48 447.18 270.48 447.18Z" /><path class="shp8" d="M288.92 447.06C288.92 447.06 288.4 453.58 292.21 455.66C292.21 455.66 295.15 452.49 293.77 447.06C292.38 441.63 288.92 447.06 288.92 447.06Z" /></g><path class="shp2" d="M299.31 418.45C203.04 418.45 227.28 442 227.28 442L299.31 442L371.39 442C371.39 442 396.27 418.45 299.31 418.45Z" /><path class="shp9" d="M245.46 428.19C245.46 428.19 291.69 434.42 353.51 428.19" /><path class="shp9" d="M241.36 429.57C241.36 429.57 256.63 435.05 286.16 433.67" /><path class="shp9" d="M245.46 435.52C245.46 435.52 258.91 438.75 274.38 436.9" /><g ><path class="shp2" d="M326.75 316.16C304.16 323.09 257.75 325.02 248.06 324.17L244.14 328.39L248.06 332.65C257.75 331.79 304.16 333.76 326.75 340.68C349.33 347.61 389.35 328.39 389.35 328.39C389.35 328.39 349.33 309.23 326.75 316.16Z" /><path class="shp10" d="M244.77 327.71C244.77 327.71 340.17 326.68 352.81 327.71C352.81 327.71 325.59 329.01 245.7 328.95L244.77 327.71Z" /><path class="shp11" d="M245.7 326.71C245.7 326.71 334.8 326.28 352.81 327.25" /><path class="shp2" d="M226.22 333.24C226.22 335.92 223.52 338.09 219.95 338.09L219.95 338.09C216.38 338.09 213.69 335.92 213.69 333.24L213.69 323.55C213.69 320.87 216.38 318.7 219.95 318.7L219.95 318.7C223.52 318.7 226.22 320.87 226.22 323.55L226.22 333.24Z" /><path class="shp6" d="M247.8 332.56L247.8 328.39L247.8 324.17C247.8 324.17 245.54 321.01 249.36 316.66C253.19 312.31 243.1 303.35 240.99 304.14C238.88 304.93 230.54 312.25 234.76 316.23C238.98 320.21 236.83 322.97 232.75 322.97C228.66 322.97 225.36 322.97 225.36 322.97C225.36 322.97 223.34 323.36 223.26 328.54C223.34 333.81 225.36 334.11 225.36 334.11C225.36 334.11 228.66 334.11 232.75 334.11C236.83 334.11 239.07 336.69 234.85 340.67C230.64 344.65 239.07 351.91 241.18 352.7C243.29 353.49 253.18 344.48 249.36 340.13C245.54 335.77 247.8 332.56 247.8 332.56Z" /><path class="shp7" d="M247.8 324.17C247.8 324.17 245.54 321.01 249.36 316.66C253.19 312.31 243.1 303.35 240.99 304.14C240.99 304.14 252.91 312.12 245.3 318.7C239.78 323.47 243.62 324.3 247.8 324.39L247.8 324.17Z" /><path class="shp10" d="M241.39 319.56C241.39 319.56 238.85 314.37 241.39 308.48C241.39 308.48 243.57 314.2 241.39 319.56Z" /><path class="shp10" d="M241.39 348.65C241.39 348.65 238.85 343.46 241.39 337.57C241.39 337.57 243.57 343.29 241.39 348.65Z" /><path class="shp7" d="M249.5 340.1C245.67 335.75 248.06 332.56 248.06 332.56C248.06 332.56 242.71 336.55 247.2 340.78C250.68 344.06 246.69 349.27 241.5 352.7C244.12 352.68 253.15 344.27 249.5 340.1Z" /><path class="shp3" d="M247.1 332.56L247.1 328.39L247.1 324.17C247.1 324.17 245.19 321.01 249.02 316.66C252.84 312.31 242.92 303.35 240.82 304.14C238.71 304.93 230.45 312.6 234.67 316.58C238.89 320.56 236.83 323.67 232.75 323.67C228.66 323.67 225.36 323.67 225.36 323.67C225.36 323.67 223.34 324.05 223.26 329.24C223.34 334.51 225.36 334.8 225.36 334.8C225.36 334.8 228.66 334.8 232.75 334.8C236.83 334.8 239.07 337.04 234.85 341.02C230.64 345 239.07 352.08 241.18 352.87C243.29 353.66 252.84 344.56 249.02 340.21C245.19 335.86 247.1 332.56 247.1 332.56Z" /></g><g ><path class="shp6" d="M282.05 416.36C282.05 416.36 272.37 381.36 269.37 363.02L251.66 341.53C251.66 341.53 297.14 328.01 348.96 341.71L330.9 363.03C330.9 363.03 326.77 388.48 318.32 416.36L298.07 421.2L282.05 416.36Z" /><path class="shp7" d="M339.07 339.4C338.69 340.04 330.3 358.28 322.19 363.03C322.19 363.03 321.58 375.96 311.83 415.66L311.83 417.92L318.35 416.36C326.8 388.48 330.91 363.03 330.91 363.03L348.97 341.71C345.64 340.83 342.34 340.06 339.07 339.4Z" /><path class="shp3" d="M282.05 416.36C282.05 416.36 272.37 381.36 269.37 363.02L251.66 341.53C251.66 341.53 297.14 328.01 348.96 341.71L330.9 363.03C330.9 363.03 326.77 388.48 318.32 416.36L298.07 421.2L282.05 416.36Z" /><path class="shp6" d="M322.17 428.77L277.84 428.77L281.99 416.24L318.18 416.24L322.17 428.77Z" /><path class="shp7" d="M279.92 423.2L279.68 423.23L277.84 428.77L322.17 428.77L318.18 416.24L312.32 416.24L314.55 423.2L279.92 423.2Z" /><path class="shp3" d="M322.17 429.47L277.84 429.47L281.99 416.94L318.18 416.94L322.17 429.47Z" /><path class="shp3" d="M269.37 363.02L330.9 363.03" /><path class="shp3" d="M256.86 347.84C256.86 347.84 294.02 338.89 343.76 347.84" /><path class="shp3" d="M261.75 353.77C261.75 353.77 295.52 348.68 338.74 353.77" /><path class="shp8" d="M263.76 341.73L265.2 343.87C265.2 343.87 288.75 340.17 305.71 341.73L306.41 339.4C306.41 339.4 292.8 336.88 263.76 341.73Z" /><path class="shp3" d="M300 363.34L300 417.63" /><path class="shp3" d="M277.15 363.02C277.15 363.02 285.76 405.27 288.9 416.36" /><path class="shp3" d="M288.9 363.02L294.14 416.36" /><path class="shp3" d="M323.23 363.02C323.23 363.02 314.62 405.27 311.48 416.36" /><path class="shp3" d="M311.48 363.02L306.24 416.36" /><path class="shp8" d="M274.84 375.49C274.84 375.49 278.88 394.42 281.53 400.19C281.53 400.19 279.8 382.53 277.15 375.49C274.49 368.45 274.84 375.49 274.84 375.49Z" /><path class="shp8" d="M283.73 375.15C283.73 375.15 284.88 390.38 288.11 399.04C288.11 399.04 288.49 384.5 286.17 375.15C283.84 365.8 283.73 375.15 283.73 375.15Z" /><path class="shp8" d="M294.14 374.02C294.14 374.02 294.2 391.86 295.93 397.48C295.93 397.48 298.01 392.81 297.14 374.02C297.14 374.02 295.72 368.82 294.14 374.02Z" /></g><path class="shp11" d="M272.04 348.22C272.04 348.22 287.27 346.58 296.71 346.92" /><g ><path class="shp6" d="M300 296.52C297.23 293.52 291.23 291.22 288.9 299.76C286.56 308.3 296.31 310.15 308.86 310.38C321.4 310.61 327.4 288.17 308.86 286.83C290.31 285.49 281.76 279.91 285.93 271.83C290.1 263.75 307.62 266.52 311.48 264.67C315.33 262.82 315.01 255.43 306.41 257.51C297.81 259.59 289.84 258.21 285.93 252.2C282.02 246.2 290.77 239.74 301.39 238.12C312 236.5 309.47 231.42 302.94 231.19C296.42 230.96 290.53 227.5 290.53 222.88C290.53 218.26 294.92 221.27 300.33 222.88C305.75 224.5 318.47 221.73 318.7 232.35C318.93 242.97 309.93 240.2 300.33 244.12C290.74 248.05 293.77 252.43 301.85 250.82C309.93 249.2 326.09 249.2 325.39 263.05C324.7 276.91 313.39 270.9 301.62 275.06C289.84 279.22 300.23 281.29 311.77 280.6C323.32 279.91 336.71 294.22 330.37 306C324.02 317.77 315.47 322.62 294.14 318.18C272.81 313.74 276.22 293.07 290.07 288.45C303.93 283.83 313.16 292.15 311.48 300.92C309.79 309.69 302.94 304.15 302.94 304.15C302.94 304.15 301.9 303.03 302.51 301.21C303.12 299.39 300 296.52 300 296.52Z" /><path class="shp7" d="M300.34 244.12C308.28 240.87 315.8 242.19 318.03 236.72L318 236.71C318 236.71 312.95 240.31 309.66 240.31C306.37 240.31 289.77 243.06 293.14 250.67C295.94 256.99 305 248.43 318.27 251.62C313.09 249.54 306.27 249.93 301.85 250.82C293.77 252.43 290.74 248.05 300.34 244.12Z" /><path class="shp7" d="M311.78 280.6C300.23 281.29 289.84 279.21 301.62 275.06C311.8 271.46 321.64 275.46 324.56 267.64C324.53 267.68 321.78 271.09 314.2 271.77C306.58 272.47 285.98 276.97 296.71 280.61C303.67 282.96 309.96 280.81 317.27 281.32C315.45 280.75 313.59 280.49 311.78 280.6Z" /><path class="shp7" d="M329.78 307.02L329.24 307.01C329.24 307.01 318.9 320.7 291.83 317.6C292.57 317.81 293.33 318.01 294.14 318.18C314.83 322.48 323.49 318.03 329.78 307.02Z" /><path class="shp12" d="M288.9 299.76C290.15 295.15 292.48 293.72 294.79 293.82C292.46 293.1 290.01 294.04 288.14 297.57C284.92 303.63 290.43 306.43 290.43 306.43L290.45 306.41C288.75 304.85 288.09 302.71 288.9 299.76Z" /><path class="shp12" d="M311.48 300.92C312.33 296.47 310.36 292.14 306.42 289.55C306.64 289.88 315.18 302.15 305.46 305.53L305.46 305.53C307.59 306.29 310.47 306.19 311.48 300.92Z" /><path class="shp8" d="M292.69 222.31C292.69 222.31 290.08 225.54 295.73 227.28C295.73 227.28 293.11 225.2 292.69 222.31Z" /><path class="shp8" d="M290.07 243.55C290.07 243.55 283.26 247.59 288.46 252.32C288.46 252.32 281.13 248.53 290.07 243.55Z" /><path class="shp8" d="M286.5 276.55C286.5 276.55 285.04 270.67 291.83 269.28C291.83 269.28 288 271.36 286.5 276.55Z" /><path class="shp8" d="M283.27 296.54C283.27 296.54 278.99 305.17 285.63 308.87C285.63 308.87 275.28 304.99 283.27 296.54Z" /><path class="shp8" d="M304.73 300.02C304.73 300.02 303.49 302.8 305.48 303.67C305.48 303.67 301.73 303.52 304.73 300.02Z" /><path class="shp3" d="M300 296.52C297.23 293.52 291.23 291.22 288.9 299.76C286.56 308.3 296.31 310.15 308.86 310.38C321.4 310.61 327.4 288.17 308.86 286.83C290.31 285.49 281.76 279.91 285.93 271.83C290.1 263.75 307.62 266.52 311.48 264.67C315.33 262.82 315.01 255.43 306.41 257.51C297.81 259.59 289.84 258.21 285.93 252.2C282.02 246.2 290.77 239.74 301.39 238.12C312 236.5 309.47 231.42 302.94 231.19C296.42 230.96 290.53 227.5 290.53 222.88C290.53 218.26 294.92 221.27 300.33 222.88C305.75 224.5 318.47 221.73 318.7 232.35C318.93 242.97 309.93 240.2 300.33 244.12C290.74 248.05 293.77 252.43 301.85 250.82C309.93 249.2 326.09 249.2 325.39 263.05C324.7 276.91 313.39 270.9 301.62 275.06C289.84 279.22 300.23 281.29 311.77 280.6C323.32 279.91 336.71 294.22 330.37 306C324.02 317.77 315.47 322.62 294.14 318.18C272.81 313.74 276.22 293.07 290.07 288.45C303.93 283.83 313.16 292.15 311.48 300.92C309.79 309.69 302.94 304.15 302.94 304.15C302.94 304.15 301.9 303.03 302.51 301.21C303.12 299.39 300 296.52 300 296.52Z" /></g></g><g ><path class="shp2" d="M319.35 550.92L322.61 549.73L344.56 541.72L322.51 533.7L319.42 532.57L320.97 529.11L331.61 505.41L311.14 517.86L308.21 519.63L307.26 516.09L300.36 490.46L293.46 516.16L292.51 519.68L289.64 517.93L269.16 505.47L279.93 529.31L281.43 532.64L278.48 533.7L256.31 541.71L278.51 549.73L281.47 550.8L280.01 554.02L269.21 577.89L289.79 565.33L292.48 563.69L293.46 567.34L300.36 592.97L307.26 567.27L308.21 563.75L311.08 565.5L331.56 577.96L320.8 554.12L319.35 550.92Z" /><path class="shp7" d="M306.5 541.72L330.57 541.76L304.7 536.68L321.75 516.93L300.37 534.59L300.4 506.63L296.03 536.67L279.03 516.87L294.23 541.71L270.45 541.67L296.06 546.7L279.19 566.26L300.35 548.77L300.33 576.81L304.69 546.76L321.7 566.56L306.5 541.72Z" /><path class="shp13" d="M300.36 562.35C290.32 562.35 282.2 552.92 282.2 541.25C282.2 529.59 290.32 520.16 300.36 520.16C310.4 520.16 318.52 529.59 318.52 541.25C318.52 552.92 310.4 562.35 300.36 562.35Z" /><path class="shp14" d="M300.36 558.2C292.29 558.2 285.78 550.62 285.78 541.25C285.78 531.88 292.29 524.31 300.36 524.31C308.43 524.31 314.95 531.88 314.95 541.25C314.95 550.62 308.43 558.2 300.36 558.2Z" /><path class="shp2" d="M291.65 536.66L309.74 536.66L309.74 539.44L291.65 539.44L291.65 536.66Z" /><path class="shp2" d="M305.02 545.01L296.45 545.01L295.85 542.23L305.54 542.23L305.02 545.01Z" /><path class="shp2" d="M300.51 528.1L302.42 530.99L304.34 533.87L300.51 533.87L296.68 533.87L298.6 530.99L300.51 528.1Z" /><path class="shp2" d="M295.15 547.8L306.24 547.8L304.85 550.58L306.24 553.36L295.15 553.36L296.63 550.58L295.15 547.8Z" /></g><g ><path class="shp2" d="M140.01 417.92C140.01 417.92 145.95 449.95 134.84 455.66C123.74 461.37 103.87 473.85 103.23 483.23C103.23 483.23 100.19 451.15 104.34 428.19C104.34 428.19 119.14 407.82 140.01 417.92Z" /><path class="shp5" d="M104.34 428.19C104.34 428.19 116.78 418.31 140.01 417.92C140.01 417.92 136.76 367.98 145.14 328.1C145.14 328.1 107.46 383.92 104.34 428.19Z" /><path class="shp3" d="M136.21 418.07C136.21 418.07 140.57 440.47 133.8 456.2" /><path class="shp3" d="M109.06 425.27C109.06 425.27 105.73 446.69 106.68 476.02" /><path class="shp3" d="M115.07 422.56C115.07 422.56 111.36 447.92 111.66 470.92" /><path class="shp3" d="M119.94 420.9C119.94 420.9 116.72 452.83 117.03 466.63" /><path class="shp3" d="M124.74 419.67C124.74 419.67 121.06 444.69 121.88 463.25" /><path class="shp3" d="M128.41 418.96C128.41 418.96 126.63 449.59 126.22 460.5" /><path class="shp3" d="M132.57 418.39C132.57 418.39 132.75 439.59 130.32 458.1" /><path class="shp1" d="M188.15 281.73C188.15 281.73 150.63 321.15 143.01 371.71C135.4 422.27 151.45 442.17 137.59 453.33C137.59 453.33 130.08 413.35 97.76 413.35C65.44 413.35 80.1 385.86 88.07 372.36C96.03 358.87 129.56 269.97 175.27 265.72L188.15 281.73Z" /></g><path class="shp15" d="M249.29 572.72C249.29 572.72 248.37 575.54 251.3 576.88C254.22 578.23 250.7 581.71 253.26 582.4C253.26 582.4 254.52 582.85 253.82 581.59C253.12 580.33 253.91 579.77 254.33 578.36C254.76 576.95 252.05 574.95 254.4 572.49C254.4 572.49 255.26 571.34 254.15 571.49C253.04 571.64 251.87 572.7 252.46 575.04C252.46 575.04 251.15 576.52 250.56 575.33C249.98 574.14 250.17 573.55 250.82 572.32C251.46 571.08 249.99 571.33 249.29 572.72Z" /><path class="shp15" d="M343.48 572.72C343.48 572.72 342.57 575.54 345.49 576.88C348.41 578.23 344.89 581.71 347.46 582.4C347.46 582.4 348.72 582.85 348.02 581.59C347.32 580.33 348.1 579.77 348.53 578.36C348.95 576.95 346.24 574.95 348.59 572.49C348.59 572.49 349.45 571.34 348.34 571.49C347.23 571.64 346.06 572.7 346.65 575.04C346.65 575.04 345.34 576.52 344.76 575.33C344.17 574.14 344.36 573.55 345.01 572.32C345.65 571.08 344.18 571.33 343.48 572.72Z" /><path class="shp15" d="M234.05 545.01C234.05 545.01 233.14 547.83 236.06 549.18C238.99 550.53 235.46 554 238.03 554.7C238.03 554.7 239.29 555.14 238.59 553.88C237.89 552.63 238.67 552.07 239.1 550.66C239.52 549.25 236.82 547.25 239.16 544.79C239.16 544.79 240.02 543.64 238.91 543.79C237.8 543.94 236.64 545 237.23 547.34C237.23 547.34 235.92 548.82 235.33 547.63C234.74 546.44 234.93 545.85 235.58 544.62C236.22 543.38 234.75 543.63 234.05 545.01Z" /><path class="shp15" d="M358.72 545.01C358.72 545.01 357.81 547.83 360.73 549.18C363.65 550.53 360.13 554 362.7 554.7C362.7 554.7 363.95 555.14 363.25 553.88C362.55 552.63 363.34 552.07 363.76 550.66C364.19 549.25 361.48 547.25 363.83 544.79C363.83 544.79 364.69 543.64 363.58 543.79C362.47 543.94 361.3 545 361.89 547.34C361.89 547.34 360.58 548.82 359.99 547.63C359.41 546.44 359.6 545.85 360.25 544.62C360.89 543.38 359.42 543.63 358.72 545.01Z" /><path class="shp15" d="M206.35 546.4C206.35 546.4 205.43 549.22 208.36 550.57C211.28 551.92 207.76 555.39 210.32 556.08C210.32 556.08 211.58 556.53 210.88 555.27C210.18 554.01 210.97 553.45 211.39 552.04C211.82 550.63 209.11 548.63 211.46 546.18C211.46 546.18 212.31 545.02 211.2 545.17C210.09 545.32 208.93 546.38 209.52 548.73C209.52 548.73 208.21 550.2 207.62 549.01C207.04 547.82 207.23 547.24 207.87 546C208.52 544.77 207.05 545.01 206.35 546.4Z" /><path class="shp15" d="M386.43 546.4C386.43 546.4 385.51 549.22 388.43 550.57C391.36 551.92 387.83 555.39 390.4 556.08C390.4 556.08 391.66 556.53 390.96 555.27C390.26 554.01 391.04 553.45 391.47 552.04C391.89 550.63 389.19 548.63 391.53 546.18C391.53 546.18 392.39 545.02 391.28 545.17C390.17 545.32 389.01 546.38 389.59 548.73C389.59 548.73 388.28 550.2 387.7 549.01C387.11 547.82 387.3 547.24 387.95 546C388.6 544.77 387.13 545.01 386.43 546.4Z" /><path class="shp15" d="M159.25 486.84C159.25 486.84 158.34 489.65 161.26 491C164.18 492.35 160.66 495.83 163.23 496.52C163.23 496.52 164.49 496.96 163.79 495.7C163.09 494.45 163.87 493.89 164.3 492.48C164.72 491.07 162.02 489.07 164.36 486.61C164.36 486.61 165.22 485.46 164.11 485.61C163 485.76 161.84 486.82 162.42 489.16C162.42 489.16 161.11 490.64 160.53 489.45C159.94 488.26 160.13 487.67 160.78 486.44C161.42 485.2 159.95 485.45 159.25 486.84Z" /><path class="shp15" d="M432.14 486.84C432.14 486.84 431.22 489.65 434.14 491C437.07 492.35 433.54 495.83 436.11 496.52C436.11 496.52 437.37 496.96 436.67 495.7C435.97 494.45 436.76 493.89 437.18 492.48C437.6 491.07 434.9 489.07 437.24 486.61C437.24 486.61 438.1 485.46 436.99 485.61C435.88 485.76 434.72 486.82 435.3 489.16C435.3 489.16 434 490.64 433.41 489.45C432.82 488.26 433.01 487.67 433.66 486.44C434.31 485.2 432.84 485.45 432.14 486.84Z" /><path class="shp15" d="M124.62 475.76C124.62 475.76 123.71 478.57 126.63 479.92C129.56 481.27 126.03 484.74 128.6 485.43C128.6 485.43 129.86 485.88 129.16 484.62C128.46 483.37 129.24 482.81 129.67 481.4C130.09 479.99 127.39 477.99 129.73 475.53C129.73 475.53 130.59 474.38 129.48 474.53C128.37 474.68 127.21 475.74 127.8 478.08C127.8 478.08 126.49 479.56 125.9 478.37C125.31 477.18 125.5 476.59 126.15 475.36C126.79 474.12 125.32 474.37 124.62 475.76Z" /><path class="shp15" d="M472.31 475.76C472.31 475.76 471.39 478.57 474.31 479.92C477.24 481.27 473.71 484.74 476.28 485.43C476.28 485.43 477.54 485.88 476.84 484.62C476.14 483.37 476.92 482.81 477.35 481.4C477.77 479.99 475.07 477.99 477.41 475.53C477.41 475.53 478.27 474.38 477.16 474.53C476.05 474.68 474.89 475.74 475.48 478.08C475.48 478.08 474.17 479.56 473.58 478.37C472.99 477.18 473.18 476.59 473.83 475.36C474.48 474.12 473.01 474.37 472.31 475.76Z" /><path class="shp5" d="M185.9 246.14C185.9 246.14 179.54 243.44 183.85 235.96C188.15 228.49 176.86 208.23 161.9 216.89C146.94 225.54 167.2 263.97 139.15 262.51C111.1 261.04 112.48 231.26 86.51 257.92C60.54 284.59 106.04 296.36 70.3 305.02C34.56 313.68 67.98 337.57 40.45 326.49C40.45 326.49 40.28 320.6 30.58 327.01C20.89 333.42 24 353.85 34.56 356.79C45.13 359.74 42.18 351.77 38.55 348.83C34.91 345.88 36.64 341.87 42.7 340.15C48.76 338.44 62.96 336.53 64.52 347.44C66.08 358.35 75.43 349.96 73.35 359.52C71.27 369.09 78.72 366.66 79.93 361.99C81.14 357.31 79.89 345.02 70.3 341.73C60.71 338.44 61.06 326.32 66.94 320.43C72.83 314.54 89.28 318.01 94.99 300.69C100.71 283.38 83.21 280.05 93.61 270.11C104 260.18 105.67 256.39 112.02 264.52C118.37 272.64 135.51 281.59 150.57 277.72C165.64 273.85 173.6 255.57 165.81 244.89C158.02 234.2 165.46 231.98 168.93 232.06C172.39 232.13 175.35 232.33 174.47 239.87C173.59 247.42 172.22 251.85 179.49 254.8L185.9 246.14Z" /><g ><path class="shp5" d="M233.44 217.23C233.44 217.23 233.28 228.38 223.22 230.92C213.16 233.46 178.32 235.56 175.32 256.86L197.49 258.95L236.45 255.47L251.27 223.36L251.27 214.81L236.52 214.12L233.44 217.23Z" /><path class="shp2" d="M247.6 213.69C247.6 213.69 245.75 241.38 220.35 244.55C194.96 247.73 186.42 241.2 175.34 256.67C175.34 256.67 208.86 287.81 242.89 279.04C276.91 270.27 282.4 233.18 272.04 213.69L247.6 213.69Z" /><path class="shp3" d="M250.35 216.89C250.35 216.89 252.31 243.31 223.26 247.93C194.21 252.56 192.85 244.4 177.86 258.95" /><path class="shp3" d="M249.24 226.27C249.24 226.27 260.6 233.41 276.06 226.27" /><path class="shp3" d="M241.31 239.77C241.31 239.77 248.78 254.34 273.52 252.32" /><path class="shp3" d="M221.75 248.16C221.75 248.16 221.79 271.11 253.84 275.05" /><path class="shp3" d="M196.12 249.68C196.12 249.68 198.36 264.04 226.59 280.72" /><path class="shp3" d="M250.03 222.43C250.03 222.43 264.62 225.96 274.95 221.42" /><path class="shp3" d="M247.06 232.05C247.06 232.05 257.12 244.58 276.74 237.92" /><path class="shp3" d="M233.62 244.89C233.62 244.89 239.56 265.22 266.49 264.6" /><path class="shp3" d="M210.15 249.39C210.15 249.39 216.41 273.66 241.5 279.64" /><path class="shp3" d="M183.85 253.8C183.85 253.8 200.96 271.89 211.35 277.72" /></g><g ><path class="shp16" d="M104.94 212.16C125.6 223.62 159.2 255.68 165.31 263.26L171.08 263.15L171.42 257.38C164.07 250.99 133.28 216.21 122.59 195.14C111.9 174.08 70.3 158.6 70.3 158.6C70.3 158.6 84.27 200.71 104.94 212.16Z" /><path class="shp17" d="M118.55 198.71C123.96 214.98 163.88 255.06 167.76 257.42L171.32 258.96L171.42 257.37C164.07 250.99 133.28 216.21 122.59 195.14C111.9 174.08 70.3 158.6 70.3 158.6C70.3 158.6 113.13 182.45 118.55 198.71Z" /><path class="shp18" d="M104.94 212.16C109.65 214.78 115.04 218.47 120.62 222.69C116.21 218.71 111.29 214.44 105.97 209.95C85.38 192.58 72.3 164.06 72.28 164.03C76.83 175.77 88.86 203.25 104.94 212.16Z" /><path class="shp19" d="M167.89 263.21L93.61 183.15L170.46 262.51L167.89 263.21Z" /><path class="shp20" d="M170.46 262.51L93.61 183.15" /><path class="shp21" d="M104.94 212.16C125.6 223.62 159.2 255.68 165.31 263.26L171.08 263.15L171.42 257.38C164.07 250.99 133.28 216.21 122.59 195.14C111.9 174.08 70.3 158.6 70.3 158.6C70.3 158.6 84.27 200.71 104.94 212.16Z" /><path class="shp2" d="M163.9 262.08L169.88 256.31L190.07 277.25L184.08 283.02L163.9 262.08Z" /><path class="shp2" d="M186.93 272.61C188.85 270.75 192.26 271.16 194.74 273.73L194.74 273.73C197.22 276.3 197.51 279.72 195.58 281.58L188.6 288.31C186.67 290.17 183.26 289.76 180.78 287.19L180.78 287.19C178.3 284.62 178.02 281.19 179.94 279.34L186.93 272.61Z" /><path class="shp2" d="M179 249.79C181.56 252.45 181.49 256.69 178.83 259.25L166.52 271.11C163.86 273.67 159.62 273.6 157.06 270.93L156.74 270.6C154.17 267.94 154.25 263.7 156.91 261.14L169.21 249.28C171.87 246.71 176.11 246.79 178.68 249.45L179 249.79Z" /><path class="shp12" d="M169.82 251.9C169.82 251.9 178.14 252.22 175.24 258.86C175.24 258.86 181.82 247.06 169.82 251.9Z" /></g><path class="shp5" d="M179.2 258.86C179.2 258.86 184.83 269.15 179.74 272.92C174.64 276.68 169.82 274.7 165.88 271.65L163.92 272.66C163.92 272.66 165.17 283.59 173.43 283.02C181.68 282.45 187.06 279.8 190.09 274.14C193.11 268.49 190.06 260.7 180.22 257.32L179.2 258.86Z" /><path class="shp1" d="M409.98 256.84L430.86 256.84L430.86 276.33L409.98 276.33L409.98 256.84Z" /><g ><path class="shp2" d="M460.68 417.92C460.68 417.92 454.75 449.95 465.85 455.66C476.96 461.37 496.82 473.85 497.46 483.23C497.46 483.23 500.5 451.15 496.35 428.19C496.35 428.19 481.56 407.82 460.68 417.92Z" /><path class="shp5" d="M496.35 428.19C496.35 428.19 483.92 418.31 460.68 417.92C460.68 417.92 463.93 367.98 455.55 328.1C455.55 328.1 493.23 383.92 496.35 428.19Z" /><path class="shp3" d="M464.48 418.07C464.48 418.07 460.12 440.47 466.89 456.2" /><path class="shp3" d="M491.63 425.27C491.63 425.27 494.97 446.69 494.01 476.02" /><path class="shp3" d="M485.63 422.56C485.63 422.56 489.34 447.92 489.03 470.92" /><path class="shp3" d="M480.75 420.9C480.75 420.9 483.97 452.83 483.67 466.63" /><path class="shp3" d="M475.95 419.67C475.95 419.67 479.64 444.69 478.82 463.25" /><path class="shp3" d="M472.28 418.96C472.28 418.96 474.06 449.59 474.47 460.5" /><path class="shp3" d="M468.12 418.39C468.12 418.39 467.94 439.59 470.37 458.1" /><path class="shp1" d="M412.55 281.73C412.55 281.73 450.07 321.15 457.68 371.71C465.3 422.27 449.24 442.17 463.1 453.33C463.1 453.33 470.61 413.35 502.93 413.35C535.25 413.35 520.59 385.86 512.63 372.36C504.66 358.87 471.14 269.97 425.42 265.72L412.55 281.73Z" /></g><path class="shp5" d="M414.8 246.14C414.8 246.14 421.15 243.44 416.85 235.96C412.55 228.49 423.84 208.23 438.8 216.89C453.76 225.54 433.5 263.97 461.55 262.51C489.6 261.04 488.21 231.26 514.19 257.92C540.16 284.59 494.66 296.36 530.4 305.02C566.13 313.68 532.71 337.57 560.24 326.49C560.24 326.49 560.42 320.6 570.11 327.01C579.81 333.42 576.69 353.85 566.13 356.79C555.57 359.74 558.51 351.77 562.15 348.83C565.79 345.88 564.05 341.87 557.99 340.15C551.93 338.44 537.74 336.53 536.18 347.44C534.62 358.35 525.27 349.96 527.35 359.52C529.42 369.09 521.98 366.66 520.77 361.99C519.56 357.31 520.8 345.02 530.4 341.73C539.99 338.44 539.64 326.32 533.75 320.43C527.86 314.54 511.42 318.01 505.7 300.69C499.99 283.38 517.48 280.05 507.09 270.11C496.7 260.18 495.03 256.39 488.68 264.52C482.33 272.64 465.19 281.59 450.12 277.72C435.06 273.85 427.09 255.57 434.89 244.89C442.68 234.2 435.23 231.98 431.77 232.06C428.31 232.13 425.35 232.33 426.23 239.87C427.11 247.42 428.48 251.85 421.21 254.8L414.8 246.14Z" /><g ><path class="shp5" d="M367.25 217.23C367.25 217.23 367.41 228.38 377.47 230.92C387.53 233.46 422.38 235.56 425.38 256.86L403.2 258.95L363.9 255.47L348.72 223.36L348.72 214.81L363.83 214.12L367.25 217.23Z" /><path class="shp2" d="M353.1 213.69C353.1 213.69 354.94 241.38 380.34 244.55C405.74 247.73 414.28 241.2 425.36 256.67C425.36 256.67 391.83 287.81 357.81 279.04C323.78 270.27 318.3 233.18 328.66 213.69L353.1 213.69Z" /><path class="shp3" d="M350.34 216.89C350.34 216.89 348.39 243.31 377.44 247.93C406.49 252.56 407.85 244.4 422.84 258.95" /><path class="shp3" d="M351.46 226.27C351.46 226.27 340.09 233.41 324.63 226.27" /><path class="shp3" d="M359.38 239.77C359.38 239.77 351.92 254.34 327.17 252.32" /><path class="shp3" d="M378.94 248.16C378.94 248.16 378.9 271.11 346.85 275.05" /><path class="shp3" d="M404.58 249.68C404.58 249.68 402.33 264.04 374.11 280.72" /><path class="shp3" d="M350.66 222.43C350.66 222.43 336.07 225.96 325.74 221.42" /><path class="shp3" d="M353.64 232.05C353.64 232.05 343.57 244.58 323.95 237.92" /><path class="shp3" d="M367.07 244.89C367.07 244.89 361.13 265.22 334.2 264.6" /><path class="shp3" d="M390.54 249.39C390.54 249.39 384.28 273.66 359.2 279.64" /><path class="shp3" d="M416.85 253.8C416.85 253.8 399.73 271.89 389.34 277.72" /></g><g ><path class="shp16" d="M495.76 212.16C475.09 223.62 441.49 255.68 435.38 263.26L429.62 263.15L429.28 257.38C436.62 250.99 467.41 216.21 478.1 195.14C488.79 174.08 530.39 158.6 530.39 158.6C530.39 158.6 516.42 200.71 495.76 212.16Z" /><path class="shp17" d="M482.15 198.71C476.73 214.98 436.81 255.06 432.94 257.42L429.37 258.96L429.28 257.37C436.62 250.99 467.41 216.21 478.1 195.14C488.79 174.08 530.39 158.6 530.39 158.6C530.39 158.6 487.56 182.45 482.15 198.71Z" /><path class="shp18" d="M495.76 212.16C491.04 214.78 485.65 218.47 480.08 222.69C484.48 218.71 489.4 214.44 494.72 209.95C515.31 192.58 528.39 164.06 528.41 164.03C523.87 175.77 511.84 203.25 495.76 212.16Z" /><path class="shp19" d="M432.8 263.21L507.09 183.15L430.24 262.51L432.8 263.21Z" /><path class="shp20" d="M430.24 262.51L507.09 183.15" /><path class="shp21" d="M495.76 212.16C475.09 223.62 441.49 255.68 435.38 263.26L429.62 263.15L429.28 257.38C436.62 250.99 467.41 216.21 478.1 195.14C488.79 174.08 530.39 158.6 530.39 158.6C530.39 158.6 516.42 200.71 495.76 212.16Z" /><path class="shp2" d="M416.59 283.05L410.61 277.28L430.79 256.34L436.78 262.1L416.59 283.05Z" /><path class="shp2" d="M413.77 272.61C411.84 270.75 408.43 271.16 405.95 273.73L405.95 273.73C403.47 276.3 403.19 279.72 405.12 281.58L412.1 288.31C414.02 290.17 417.44 289.76 419.91 287.19L419.91 287.19C422.39 284.62 422.68 281.19 420.75 279.34L413.77 272.61Z" /><path class="shp2" d="M421.69 249.79C419.13 252.45 419.21 256.69 421.87 259.25L434.17 271.11C436.83 273.67 441.07 273.6 443.64 270.93L443.96 270.6C446.52 267.94 446.44 263.7 443.78 261.14L431.48 249.28C428.82 246.71 424.58 246.79 422.01 249.45L421.69 249.79Z" /><path class="shp12" d="M430.88 251.9C430.88 251.9 422.56 252.22 425.45 258.86C425.45 258.86 418.87 247.06 430.88 251.9Z" /></g><path class="shp5" d="M421.5 258.86C421.5 258.86 415.87 269.15 420.96 272.92C426.05 276.68 430.87 274.7 434.81 271.65L436.78 272.66C436.78 272.66 435.52 283.59 427.27 283.02C419.01 282.45 413.63 279.8 410.6 274.14C407.58 268.49 410.63 260.7 420.47 257.32L421.5 258.86Z" /><path class="shp15" d="M88.61 388.49C88.61 388.49 87.69 391.3 90.62 392.65C93.54 394 90.01 397.48 92.58 398.17C92.58 398.17 93.84 398.61 93.14 397.36C92.44 396.1 93.23 395.54 93.65 394.13C94.08 392.72 91.37 390.72 93.72 388.26C93.72 388.26 94.57 387.11 93.46 387.26C92.35 387.41 91.19 388.47 91.78 390.81C91.78 390.81 90.47 392.29 89.88 391.1C89.3 389.91 89.49 389.32 90.13 388.09C90.78 386.86 89.31 387.1 88.61 388.49Z" /><path class="shp15" d="M509.71 388.49C509.71 388.49 508.79 391.3 511.71 392.65C514.64 394 511.11 397.48 513.68 398.17C513.68 398.17 514.94 398.61 514.24 397.36C513.54 396.1 514.33 395.54 514.75 394.13C515.17 392.72 512.47 390.72 514.82 388.26C514.82 388.26 515.67 387.11 514.56 387.26C513.45 387.41 512.29 388.47 512.88 390.81C512.88 390.81 511.57 392.29 510.98 391.1C510.39 389.91 510.59 389.32 511.23 388.09C511.88 386.86 510.41 387.1 509.71 388.49Z" /><path class="shp15" d="M112.16 341.39C112.16 341.39 111.24 344.21 114.16 345.56C117.09 346.91 113.56 350.38 116.13 351.07C116.13 351.07 117.39 351.52 116.69 350.26C115.99 349 116.78 348.44 117.2 347.04C117.63 345.62 114.92 343.62 117.26 341.17C117.26 341.17 118.12 340.01 117.01 340.17C115.9 340.32 114.74 341.37 115.33 343.72C115.33 343.72 114.02 345.19 113.43 344C112.84 342.81 113.03 342.23 113.68 340.99C114.33 339.76 112.86 340 112.16 341.39Z" /><path class="shp15" d="M483.39 341.39C483.39 341.39 482.47 344.21 485.39 345.56C488.32 346.91 484.79 350.38 487.36 351.07C487.36 351.07 488.62 351.52 487.92 350.26C487.22 349 488.01 348.44 488.43 347.04C488.85 345.62 486.15 343.62 488.5 341.17C488.5 341.17 489.35 340.01 488.24 340.17C487.13 340.32 485.97 341.37 486.56 343.72C486.56 343.72 485.25 345.19 484.66 344C484.07 342.81 484.27 342.23 484.91 340.99C485.56 339.76 484.09 340 483.39 341.39Z" /><path class="shp15" d="M134.32 298.45C134.32 298.45 133.4 301.27 136.33 302.62C139.25 303.97 135.73 307.44 138.29 308.13C138.29 308.13 139.55 308.58 138.85 307.32C138.15 306.06 138.94 305.5 139.36 304.09C139.79 302.68 137.08 300.68 139.43 298.23C139.43 298.23 140.28 297.07 139.17 297.23C138.07 297.38 136.9 298.44 137.49 300.78C137.49 300.78 136.18 302.25 135.59 301.06C135.01 299.87 135.2 299.29 135.84 298.05C136.49 296.82 135.02 297.06 134.32 298.45Z" /><path class="shp15" d="M459.84 298.45C459.84 298.45 458.92 301.27 461.85 302.62C464.77 303.97 461.25 307.44 463.81 308.13C463.81 308.13 465.07 308.58 464.37 307.32C463.67 306.06 464.46 305.5 464.88 304.09C465.31 302.68 462.6 300.68 464.95 298.23C464.95 298.23 465.8 297.07 464.69 297.23C463.58 297.38 462.42 298.44 463.01 300.78C463.01 300.78 461.7 302.25 461.11 301.06C460.53 299.87 460.72 299.29 461.36 298.05C462.01 296.82 460.54 297.06 459.84 298.45Z" /><path class="shp15" d="M317.16 219.49C317.16 219.49 316.25 222.31 319.17 223.66C322.1 225.01 318.57 228.48 321.14 229.17C321.14 229.17 322.4 229.62 321.7 228.36C321 227.1 321.78 226.55 322.21 225.14C322.63 223.73 319.93 221.72 322.27 219.27C322.27 219.27 323.13 218.12 322.02 218.27C320.91 218.42 319.75 219.48 320.33 221.82C320.33 221.82 319.02 223.3 318.44 222.11C317.85 220.92 318.04 220.33 318.69 219.1C319.34 217.86 317.87 218.1 317.16 219.49Z" /><path class="shp15" d="M159.25 292.91C159.25 292.91 158.34 295.73 161.26 297.08C164.18 298.43 160.66 301.9 163.23 302.59C163.23 302.59 164.49 303.04 163.79 301.78C163.09 300.52 163.87 299.96 164.3 298.55C164.72 297.14 162.02 295.14 164.36 292.69C164.36 292.69 165.22 291.53 164.11 291.68C163 291.84 161.84 292.9 162.42 295.24C162.42 295.24 161.11 296.71 160.53 295.52C159.94 294.33 160.13 293.75 160.78 292.51C161.42 291.28 159.95 291.52 159.25 292.91Z" /><path class="shp15" d="M433.52 292.91C433.52 292.91 432.61 295.73 435.53 297.08C438.45 298.43 434.93 301.9 437.49 302.59C437.49 302.59 438.75 303.04 438.05 301.78C437.35 300.52 438.14 299.96 438.56 298.55C438.99 297.14 436.28 295.14 438.63 292.69C438.63 292.69 439.49 291.53 438.38 291.68C437.27 291.84 436.1 292.9 436.69 295.24C436.69 295.24 435.38 296.71 434.79 295.52C434.21 294.33 434.4 293.75 435.05 292.51C435.69 291.28 434.22 291.52 433.52 292.91Z" /><path class="shp15" d="M138.47 324.77C138.47 324.77 137.56 327.59 140.48 328.94C143.41 330.29 139.88 333.76 142.45 334.45C142.45 334.45 143.71 334.9 143.01 333.64C142.31 332.38 143.1 331.82 143.52 330.41C143.94 329 141.24 327 143.59 324.55C143.59 324.55 144.44 323.39 143.33 323.54C142.22 323.69 141.06 324.75 141.65 327.09C141.65 327.09 140.34 328.57 139.75 327.38C139.16 326.19 139.35 325.61 140 324.37C140.65 323.14 139.18 323.38 138.47 324.77Z" /><path class="shp15" d="M452.92 324.77C452.92 324.77 452 327.59 454.92 328.94C457.85 330.29 454.32 333.76 456.89 334.45C456.89 334.45 458.15 334.9 457.45 333.64C456.75 332.38 457.53 331.82 457.96 330.41C458.38 329 455.67 327 458.02 324.55C458.02 324.55 458.88 323.39 457.77 323.54C456.66 323.69 455.5 324.75 456.08 327.09C456.08 327.09 454.77 328.57 454.19 327.38C453.6 326.19 453.79 325.61 454.44 324.37C455.08 323.14 453.62 323.38 452.92 324.77Z" /><path class="shp15" d="M282.54 227.81C282.54 227.81 281.62 230.62 284.54 231.97C287.47 233.32 283.94 236.79 286.51 237.49C286.51 237.49 287.77 237.93 287.07 236.67C286.37 235.42 287.15 234.86 287.58 233.45C288 232.04 285.3 230.04 287.64 227.58C287.64 227.58 288.5 226.43 287.39 226.58C286.28 226.73 285.12 227.79 285.71 230.13C285.71 230.13 284.4 231.61 283.81 230.42C283.22 229.23 283.41 228.64 284.06 227.41C284.7 226.17 283.24 226.42 282.54 227.81Z" /><path class="shp15" d="M128.78 378.79C128.78 378.79 127.86 381.61 130.79 382.96C133.71 384.31 130.18 387.78 132.75 388.47C132.75 388.47 134.01 388.92 133.31 387.66C132.61 386.4 133.4 385.84 133.82 384.44C134.25 383.02 131.54 381.02 133.89 378.57C133.89 378.57 134.74 377.41 133.63 377.57C132.52 377.72 131.36 378.78 131.95 381.12C131.95 381.12 130.64 382.6 130.05 381.4C129.46 380.21 129.66 379.63 130.3 378.39C130.95 377.16 129.48 377.4 128.78 378.79Z" /><path class="shp15" d="M464 378.79C464 378.79 463.08 381.61 466 382.96C468.93 384.31 465.4 387.78 467.97 388.47C467.97 388.47 469.23 388.92 468.53 387.66C467.83 386.4 468.62 385.84 469.04 384.44C469.46 383.02 466.76 381.02 469.1 378.57C469.1 378.57 469.96 377.41 468.85 377.57C467.74 377.72 466.58 378.78 467.16 381.12C467.16 381.12 465.86 382.6 465.27 381.4C464.68 380.21 464.87 379.63 465.52 378.39C466.17 377.16 464.7 377.4 464 378.79Z" /><path class="shp15" d="M132.93 418.96C132.93 418.96 132.02 421.78 134.94 423.13C137.87 424.48 134.34 427.95 136.91 428.64C136.91 428.64 138.17 429.09 137.47 427.83C136.77 426.57 137.55 426.01 137.98 424.61C138.4 423.19 135.7 421.19 138.04 418.74C138.04 418.74 138.9 417.58 137.79 417.74C136.68 417.89 135.52 418.95 136.11 421.29C136.11 421.29 134.8 422.76 134.21 421.57C133.62 420.38 133.81 419.8 134.46 418.56C135.1 417.33 133.64 417.57 132.93 418.96Z" /><path class="shp15" d="M462.61 418.96C462.61 418.96 461.7 421.78 464.62 423.13C467.54 424.48 464.02 427.95 466.58 428.64C466.58 428.64 467.84 429.09 467.14 427.83C466.44 426.57 467.23 426.01 467.65 424.61C468.08 423.2 465.37 421.19 467.72 418.74C467.72 418.74 468.57 417.58 467.47 417.74C466.36 417.89 465.19 418.95 465.78 421.29C465.78 421.29 464.47 422.76 463.88 421.57C463.3 420.38 463.49 419.8 464.14 418.56C464.78 417.33 463.31 417.57 462.61 418.96Z" /><path class="shp6" d="M370.18 190.55C315.9 175.31 305.31 13.92 305.31 13.92L301.16 13.92L300.46 13.92L296.32 13.92C296.32 13.92 285.72 175.31 231.44 190.55L294.9 200.95L300.81 192.05L306.72 200.95L370.18 190.55Z" /><path class="shp7" d="M325.52 197.88L370.18 190.55C315.9 175.31 305.31 13.92 305.31 13.92L301.16 13.92L300.7 13.92C300.7 13.92 304.05 147.26 325.45 197.84L325.52 197.88Z" /><path class="shp3" d="M370.18 190.9C315.9 175.66 305.31 14.62 305.31 14.62L301.16 14.62L300.46 14.62L296.32 14.62C296.32 14.62 285.72 175.66 231.44 190.9L294.9 201.12L300.81 192.13L306.72 201.16L370.18 190.9Z" /><g ><path class="shp6" d="M374.11 189.33L227.28 189.33L233.51 215.78L366.84 215.78L374.11 189.33Z" /><path class="shp7" d="M332.95 215.78L366.84 215.78L374.11 189.33L340.47 189.33L332.95 215.78Z" /><path class="shp3" d="M374.11 190.02L227.28 190.02L233.51 216.47L366.84 216.47L374.11 190.02Z" /><path class="shp3" d="M228.31 196.98L373.09 196.98" /><path class="shp3" d="M231.09 206.73L370.3 206.73" /><path class="shp8" d="M284.07 194.9L238.36 194.9L236.81 192.11L284.94 192.11L284.07 194.9Z" /><path class="shp8" d="M282.54 203.25L240.99 203.25L239.58 200.46L283.33 200.46L282.54 203.25Z" /><path class="shp8" d="M280.22 212.99L244.12 212.99L242.89 210.21L280.91 210.21L280.22 212.99Z" /></g><path class="shp22" d="M300.46 23.09C294.26 23.09 289.25 18.08 289.25 11.88C289.25 5.68 294.26 0.67 300.46 0.67C306.66 0.67 311.67 5.68 311.67 11.88C311.67 18.08 306.66 23.09 300.46 23.09Z" /><path class="shp2" d="M320.88 72.37C320.88 74.92 319.58 77.26 318.11 77.26L283.42 77.26C281.95 77.26 280.51 74.92 280.51 72.37L280.51 71.9C280.51 69.35 281.95 67.52 283.42 67.52L318.11 67.52C319.59 67.52 320.88 69.35 320.88 71.9L320.88 72.37Z" /><path class="shp3" d="M260.32 163.57L341.07 163.57" /><path class="shp3" d="M272.85 135.73L328.54 135.73" /><path class="shp3" d="M300.81 190.57L300.69 166.56" /><path class="shp3" d="M288.23 166.56L288.34 190.57" /><path class="shp3" d="M275.88 190.57L275.76 166.56" /><path class="shp3" d="M263.41 190.57L263.29 166.56" /><path class="shp3" d="M338.21 190.57L338.09 166.56" /><path class="shp3" d="M325.74 190.57L325.63 166.56" /><path class="shp3" d="M313.28 190.57L313.16 166.56" /><path class="shp3" d="M264.19 189.88L269.74 166.56L275.04 190.57" /><path class="shp3" d="M276.65 189.88L282.2 166.56L287.51 190.57" /><path class="shp3" d="M289.12 189.88L294.67 166.56L299.97 190.57" /><path class="shp3" d="M301.59 189.88L307.14 166.56L312.44 190.57" /><path class="shp3" d="M314.05 189.88L319.61 166.56L324.91 190.57" /><path class="shp3" d="M326.52 189.88L332.07 166.56L337.37 190.57" /><path class="shp3" d="M300.81 164.25L300.69 140.24" /><path class="shp3" d="M288.23 140.24L288.34 164.25" /><path class="shp3" d="M275.88 164.25L275.76 140.24" /><path class="shp3" d="M325.74 164.25L325.63 140.24" /><path class="shp3" d="M313.28 164.25L313.16 140.24" /><path class="shp3" d="M276.65 163.56L282.2 140.24L287.51 164.25" /><path class="shp3" d="M289.12 163.56L294.67 140.24L299.97 164.25" /><path class="shp3" d="M301.59 163.56L307.14 140.24L312.44 164.25" /><path class="shp3" d="M314.05 163.56L319.61 140.24L324.91 164.25" /><path class="shp3" d="M300.81 135.16L300.69 111.15" /><path class="shp3" d="M288.23 111.15L288.34 135.16" /><path class="shp3" d="M313.28 135.16L313.16 111.15" /><path class="shp3" d="M276.65 134.47L282.2 111.15L287.51 135.16" /><path class="shp3" d="M289.12 134.47L294.67 111.15L299.97 135.16" /><path class="shp3" d="M301.59 134.47L307.14 111.15L312.44 135.16" /><path class="shp3" d="M300.81 104.69L300.69 80.68" /><path class="shp3" d="M288.23 80.68L288.34 104.69" /><path class="shp3" d="M313.28 104.69L313.16 80.68" /><path class="shp3" d="M289.12 103.99L294.67 80.68L299.97 104.69" /><path class="shp3" d="M301.59 103.99L307.14 80.68L312.44 104.69" /><path class="shp3" d="M314.05 134.47L319.61 111.15L324.91 135.16" /><path class="shp2" d="M333.41 109.77C333.41 112.32 331.31 114.85 328.92 114.85L272.7 114.85C270.31 114.85 267.98 112.32 267.98 109.77L267.98 109.3C267.98 106.75 270.31 105.1 272.7 105.1L328.92 105.1C331.31 105.1 333.41 106.75 333.41 109.3L333.41 109.77Z" /><path class="shp8" d="M294.55 61.25L296.54 40.48L298.16 61.25L294.55 61.25Z" /><path class="shp8" d="M267.45 186.54L269.78 186.54L269.49 176.85L267.45 186.54Z" /><path class="shp8" d="M279.92 160.09L282.25 160.09L281.96 150.4L279.92 160.09Z" /><path class="shp8" d="M292.38 160.09L294.72 160.09L294.43 150.4L292.38 160.09Z" /><path class="shp8" d="M279.92 132.25L282.25 132.25L281.96 122.55L279.92 132.25Z" /><path class="shp8" d="M292.38 101.62L294.72 101.62L294.43 91.93L292.38 101.62Z" /><path class="shp8" d="M292.38 132.25L294.72 132.25L294.43 122.55L292.38 132.25Z" /><path class="shp8" d="M279.92 186.54L282.25 186.54L281.96 176.85L279.92 186.54Z" /><path class="shp8" d="M292.38 186.54L294.72 186.54L294.43 176.85L292.38 186.54Z" /><path class="shp2" d="M201.19 38.43C201.19 38.43 193.8 35.2 196.34 43.28C198.88 51.36 217.81 57.82 206.96 70.75C196.11 83.68 190.11 91.53 206.27 91.53C222.43 91.53 227.28 88.76 227.28 96.37C227.28 103.99 211.81 117.38 209.96 123.15C209.96 123.15 197.26 118.77 202.81 115.31C208.35 111.84 214.33 106.99 213.42 102.61C212.5 98.22 207.19 103.3 207.19 103.3C207.19 103.3 203.04 94.07 198.19 94.53C193.34 94.99 203.5 108.84 194.03 112.3C184.57 115.77 203.5 123.15 201.19 135.16C198.88 147.17 203.27 163.09 220.58 164.25C237.9 165.41 250.6 158.71 253.14 142.09C253.14 142.09 262.85 132.16 262.49 126.85C262.14 121.54 266.29 101.22 259.37 112.07C252.44 122.93 251.29 138.16 244.82 126.85C238.36 115.54 251.06 108.15 248.98 99.61C248.98 99.61 246.21 95.4 245.52 101.08C244.83 106.77 230.63 116.92 239.58 126.85C248.52 136.78 246.21 142.09 241.13 148.55C236.05 155.02 217.58 164.71 214.12 149.25C210.65 133.78 214.81 130.55 221.74 124.77C228.66 119 238.82 102.84 234.43 89.68C230.05 76.52 203.5 92.68 215.04 72.14C226.59 51.59 216.66 50.9 211.35 48.82C206.04 46.74 205.42 38.78 201.19 38.43Z" /><path class="shp2" d="M163.1 52.05C163.1 52.05 161.48 58.28 168.41 58.05C175.34 57.82 176.95 52.74 172.79 48.59C168.64 44.43 157.1 33.81 146.71 46.51C136.32 59.21 142.78 76.98 142.78 76.98C142.78 76.98 129.62 74.68 126.85 88.3C124.08 101.92 121.33 95.68 120.86 91.53C120.39 87.37 116 87.6 116.93 92.68C117.85 97.76 120.39 103.94 129.16 101.08C129.16 101.08 133.09 108.54 143.24 105.92C153.4 103.3 144.17 100.99 141.4 101.22C138.63 101.45 127.31 102.15 137.01 93.6C146.71 85.06 155.94 86.91 162.17 117.38C162.17 117.38 152.71 119 150.86 126.85C150.86 126.85 170.02 131.7 164.71 157.09C159.41 182.49 133.78 199.13 130.78 158.6C130.78 158.6 136.55 152.94 136.55 146.01C136.55 146.01 127.78 150.17 125.7 146.47C123.62 142.78 113.11 124.77 105.32 130.54C97.53 136.32 127.08 149.47 109.08 146.93C91.07 144.4 111.39 158.96 114.16 158.6C114.16 158.6 116.21 187.57 138.39 191.49C160.56 195.42 169.1 185.95 172.8 172.56C176.49 159.17 172.55 132.31 184.11 126.85C195.67 121.39 181.07 119.69 175.32 118.54C175.32 118.54 170.43 87.43 156.17 80.68C141.91 73.92 150.17 41.89 163.1 52.05Z" /><path class="shp2" d="M213.42 182.26C213.42 182.26 208.5 187.57 210.15 194.03C210.15 194.03 204.89 192.73 203.5 197.88C203.5 197.88 220.82 210.39 211.35 218.26C201.88 226.12 196.31 212.97 197.6 202.34C197.6 202.34 199.81 197.96 199.57 194.03C199.57 194.03 195.65 198.42 193.8 194.03C191.96 189.64 188.03 178.56 180.18 180.18C180.18 180.18 185.03 191.96 180.87 192.65C176.72 193.34 173.25 193.94 180.87 200.33C188.49 206.73 181.29 222.65 199.8 227.28C218.32 231.9 226.45 221.27 225.82 212.04C225.2 202.8 225.86 194.03 225.86 194.03C225.86 194.03 223.81 189.68 219.43 193.36C219.43 193.36 217.8 182.72 213.42 182.26Z" /><path class="shp2" d="M400.79 38.43C400.79 38.43 408.18 35.2 405.64 43.28C403.1 51.36 384.17 57.82 395.02 70.75C405.87 83.68 411.87 91.53 395.71 91.53C379.55 91.53 374.71 88.76 374.71 96.37C374.71 103.99 390.17 117.38 392.02 123.15C392.02 123.15 404.72 118.77 399.18 115.31C393.64 111.84 387.65 106.99 388.57 102.61C389.48 98.22 394.79 103.3 394.79 103.3C394.79 103.3 398.95 94.07 403.8 94.53C408.64 94.99 398.49 108.84 407.95 112.3C417.42 115.77 398.48 123.15 400.79 135.16C403.1 147.17 398.72 163.09 381.4 164.25C364.09 165.41 351.39 158.71 348.85 142.09C348.85 142.09 339.14 132.16 339.49 126.85C339.85 121.54 335.69 101.22 342.62 112.07C349.54 122.93 350.7 138.16 357.16 126.85C363.63 115.54 350.92 108.15 353 99.61C353 99.61 355.77 95.4 356.47 101.08C357.16 106.77 371.35 116.92 362.41 126.85C353.47 136.78 355.77 142.09 360.85 148.55C365.93 155.02 384.4 164.71 387.86 149.25C391.33 133.78 387.17 130.55 380.25 124.77C373.32 119 363.16 102.84 367.55 89.68C371.93 76.52 398.48 92.68 386.94 72.14C375.4 51.59 385.33 50.9 390.63 48.82C395.95 46.74 396.57 38.78 400.79 38.43Z" /><path class="shp2" d="M438.89 52.05C438.89 52.05 440.5 58.28 433.58 58.05C426.65 57.82 425.04 52.74 429.19 48.59C433.35 44.43 444.89 33.81 455.28 46.51C465.67 59.21 459.2 76.98 459.2 76.98C459.2 76.98 472.36 74.68 475.13 88.3C477.9 101.92 480.66 95.68 481.13 91.53C481.6 87.37 485.98 87.6 485.06 92.68C484.14 97.76 481.6 103.94 472.83 101.08C472.83 101.08 468.9 108.54 458.74 105.92C448.59 103.3 457.82 100.99 460.59 101.22C463.36 101.45 474.67 102.15 464.97 93.6C455.28 85.06 446.05 86.91 439.81 117.38C439.81 117.38 449.28 119 451.12 126.85C451.12 126.85 431.96 131.7 437.27 157.09C442.58 182.49 468.21 199.13 471.21 158.6C471.21 158.6 465.44 152.94 465.44 146.01C465.44 146.01 474.21 150.17 476.29 146.47C478.37 142.78 488.88 124.77 496.67 130.54C504.45 136.32 474.9 149.47 492.91 146.93C510.92 144.4 490.6 158.96 487.83 158.6C487.83 158.6 485.78 187.57 463.6 191.49C441.43 195.42 432.89 185.95 429.19 172.56C425.5 159.17 429.44 132.31 417.88 126.85C406.32 121.39 420.92 119.69 426.67 118.54C426.67 118.54 431.56 87.43 445.82 80.68C460.07 73.92 451.82 41.89 438.89 52.05Z" /><path class="shp2" d="M388.57 182.26C388.57 182.26 393.49 187.57 391.83 194.03C391.83 194.03 397.1 192.73 398.48 197.88C398.48 197.88 381.17 210.39 390.63 218.26C400.1 226.12 405.67 212.97 404.39 202.34C404.39 202.34 402.18 197.96 402.41 194.03C402.41 194.03 406.34 198.42 408.18 194.03C410.03 189.64 413.96 178.56 421.8 180.18C421.8 180.18 416.96 191.96 421.11 192.65C425.27 193.34 428.73 193.94 421.11 200.33C413.49 206.73 420.69 222.65 402.18 227.28C383.67 231.9 375.54 221.27 376.16 212.04C376.78 202.8 376.13 194.03 376.13 194.03C376.13 194.03 378.17 189.68 382.56 193.36C382.56 193.36 384.19 182.72 388.57 182.26Z" /></g></svg>