<svg version="1.2" baseProfile="tiny-ps" xmlns="http://www.w3.org/2000/svg" viewBox="0 0 18 18" width="600" height="600"><title></title><style>tspan { white-space:pre }.shp0 { fill: #000095 } .shp1 { fill: #ffffff } .shp2 { fill: #ffffff;stroke: #000095;stroke-width: 0.4 } </style><path class="shp0" d="M9 18C4.02 18 0 13.98 0 9C0 4.02 4.02 0 9 0C13.98 0 18 4.02 18 9C18 13.98 13.98 18 9 18Z" /><path class="shp1" d="M9 3L12 14.2L3.8 6L15 9L3.8 12L12 3.8L9 15L6 3.8L14.2 12L3 9L14.2 6L6 14.2L9 3Z" /><path class="shp2" d="M9 12.2C7.23 12.2 5.8 10.77 5.8 9C5.8 7.23 7.23 5.8 9 5.8C10.77 5.8 12.2 7.23 12.2 9C12.2 10.77 10.77 12.2 9 12.2Z" /></svg>