<svg version="1.2" baseProfile="tiny-ps" xmlns="http://www.w3.org/2000/svg" viewBox="0 0 600 600" width="600" height="600">
	<title></title>
	<style>
		tspan { white-space:pre }
		.s0 { fill: #000000 } 
	</style>
	<g >
		<path class="s0" d="m284.97 19.19c1.07-0.12 1.42 5.57 1.42 24.52v24.64l-10.89 2.01c-35.98 6.87-68.05 32.81-82.49 66.81c-9.59 22.63-11.48 50.7-4.85 74.86c2.72 9.83 10.18 25.94 14.67 31.51l2.72 3.44l5.8-4.74c18.82-15.52 44.73-26.77 68.28-29.61l6.75-0.71v17.29v17.29h-2.72c-5.56 0-21.66 4.86-30.89 9.36c-9.11 4.38-23.08 13.98-23.2 15.75c0 0.47 4.5 3.32 10.06 6.4c5.56 3.08 10.06 6.04 10.06 6.4c0 0.36-5.56 9.36-12.31 19.9c-6.86 10.54-12.54 19.9-12.78 20.61c-0.36 0.95-3.55-0.36-8.76-3.32c-4.5-2.49-9.59-5.21-11.36-6.04c-3.2-1.3-3.31-1.3-4.5 3.08c-5.33 20.14-4.62 43.71 2.13 61.36l2.37 6.16l-14.79 8.41c-8.17 4.62-14.91 8.29-15.03 8.06c-0.83-0.95-4.85-11.73-6.86-18.12c-2.96-9.6-5.68-27.72-5.68-38.5c0-9.6 2.72-29.5 4.62-34.71l1.3-3.2h-9.35c-47.93 0-92.78 35.66-105.68 83.87c-5.44 20.61-3.91 48.92 3.79 68.71l3.31 8.53l-8.52 4.98c-4.62 2.61-13.73 7.94-20.36 11.73c-6.51 3.91-12.54 6.99-13.14 6.99c-0.71 0-3.2-4.86-5.56-10.66c-9.82-24.52-13.96-51.41-11.48-74.98c4.14-40.99 19.76-74.39 48.05-102.23c26.27-25.94 58.7-41.1 99.17-46.08c3.08-0.47 5.56-0.95 5.56-1.3c0-0.24-1.54-3.55-3.43-7.34c-12.66-25.11-18.22-61.48-13.85-90.97c2.72-18.95 6.86-32.22 15.5-49.63c8.99-18.24 18.93-31.98 33.61-45.84c23.91-22.74 54.44-37.79 87.1-42.88c5.92-0.95 11.36-1.66 12.19-1.78z" />
		<path class="s0" d="m306.51 18.95l5.68 0.71c42.72 5.69 75.03 21.56 102.13 49.99c12.66 13.39 20.83 25.35 28.88 42.05c20.24 42.41 21.07 93.82 2.25 134.69c-2.25 4.86-4.02 8.88-4.02 9c0 0.24 4.14 0.71 9.23 1.18c38.58 3.44 74.2 20.02 101.42 47.38c39.88 39.8 56.21 97.96 43.08 152.22c-3.08 12.56-10.41 31.98-12.43 32.81c-0.95 0.36-38.11-19.9-41.66-22.86c-0.24-0.12 1.18-4.98 3.08-10.78c5.09-14.69 6.63-26.18 5.8-42.76c-1.3-27.84-11.01-51.05-29.82-71.07c-22.13-23.81-49.82-35.77-82.49-35.77c-13.02 0-13.02 0-12.31 2.61c4.73 16.11 6.51 37.67 4.38 53.66c-2.01 15.52-7.34 33.76-9.7 33.76c-0.59 0-7.22-3.55-14.79-7.94c-12.66-7.34-13.61-8.17-13.02-10.9c0.36-1.66 1.42-6.87 2.37-11.37c1.07-4.62 1.89-13.27 1.89-19.31c0-10.66-2.72-28.19-4.73-30.32c-0.59-0.47-4.85 1.18-9.82 3.91c-4.85 2.61-9.47 4.86-10.18 4.86c-0.95 0-15.5-27.13-22.37-41.7c-0.24-0.47 3.2-3.08 7.46-5.8l7.93-4.98l-3.43-2.72c-12.66-10.54-29.47-18.72-44.85-21.68l-9.94-1.9v-17.06v-16.94l6.86 0.71c23.79 2.84 49.94 14.33 68.64 30.09c5.09 4.26 6.63 4.98 7.46 3.67c14.56-22.03 20.12-40.28 20.12-65.03c0-23.57-5.56-42.53-18.22-62.07c-12.31-18.83-31.24-34.35-52.19-42.88c-8.99-3.55-24.73-7.58-30.3-7.58c-2.25 0-2.37-0.59-2.37-24.99v-24.88z" />
		<path class="s0" d="m383.2 398.13c0.47 0 27.46 15.16 28.4 16.11c0.24 0.12-1.54 3.44-4.02 7.23c-5.92 8.88-21.42 24.99-31.24 32.46c-7.34 5.69-32.07 18.83-35.15 18.83c-2.49 0-1.78 2.13 2.84 9.24c5.68 8.77 20.36 23.34 29.35 29.5c27.81 18.72 61.07 24.52 93.49 16.23c9.59-2.49 27.57-11.13 36.69-17.53c4.02-2.96 11.95-10.19 17.51-16.23l10.3-10.78l19.76 11.49c11.01 6.28 20.36 11.85 20.83 12.32c1.18 1.18-7.69 13.15-17.63 23.81c-16.21 17.06-42.84 34-65.56 41.46c-31.48 10.42-67.34 10.9-98.93 1.07c-34.56-10.66-66.75-34.35-85.92-63.02l-3.08-4.62l-3.91 5.8c-35.5 52.36-99.17 79.72-161.07 69.18c-40.36-6.99-75.62-28.07-101.42-60.41c-3.31-4.26-6.04-8.29-6.04-8.88c0-1.07 30.65-19.55 39.17-23.69c1.66-0.83 3.91 0.95 11.83 9.36c11.83 12.44 20.95 19.07 35.5 25.94c13.02 6.16 21.18 8.41 36.45 10.19c33.37 3.79 69.47-9.6 92.66-34.23c7.22-7.58 16.33-20.14 16.33-22.39c0-0.59-2.25-1.66-4.97-2.49c-7.93-2.37-25.92-11.13-34.08-16.7c-9.23-6.28-24.62-20.85-31.6-29.97c-2.96-3.79-5.21-7.11-4.97-7.23c1.66-1.42 28.17-16.11 28.99-16.11c0.59 0 2.72 2.25 4.62 4.86c8.4 11.37 26.51 24.64 42.01 30.56c5.21 2.01 10.18 3.67 11.12 3.67c2.25 0 2.96-3.2 3.91-17.53l0.71-12.08h23.91h23.91l0.83 10.9c0.36 6.04 1.18 12.44 1.66 14.21l0.83 3.2l8.88-3.79c16.21-7.11 30.3-18.12 40.36-31.75c3.43-4.5 6.39-8.17 6.75-8.17z" />
	</g>
</svg>