<svg version="1.2" baseProfile="tiny-ps" xmlns="http://www.w3.org/2000/svg" viewBox="0 0 600 600" width="600" height="600"><title></title><defs><linearGradient id="grd1" gradientUnits="userSpaceOnUse"  x1="288.121" y1="113.925" x2="317.556" y2="113.925"><stop offset="0" stop-color="#ffcb05"  /><stop offset="0.461" stop-color="#d5a903"  /><stop offset="0.658" stop-color="#000000"  /><stop offset="1" stop-color="#ffcb05"  /></linearGradient><linearGradient id="grd2" gradientUnits="userSpaceOnUse"  x1="312.451" y1="86.056" x2="304.292" y2="78.211"><stop offset="0" stop-color="#000000"  /><stop offset="1" stop-color="#000000" stop-opacity="0.42" /></linearGradient><linearGradient id="grd3" gradientUnits="userSpaceOnUse"  x1="320.489" y1="503.924" x2="275.149" y2="511.468"><stop offset="0" stop-color="#000000"  /><stop offset="1" stop-color="#ef9232"  /></linearGradient><linearGradient id="grd4" gradientUnits="userSpaceOnUse"  x1="320.489" y1="503.924" x2="284.024" y2="515.018"><stop offset="0" stop-color="#000000"  /><stop offset="1" stop-color="#000000" stop-opacity="0.34" /></linearGradient><linearGradient id="grd5" gradientUnits="userSpaceOnUse"  x1="287.872" y1="519.789" x2="318.86" y2="519.789"><stop offset="0" stop-color="#ffcb05"  /><stop offset="0.461" stop-color="#d5a903"  /><stop offset="0.658" stop-color="#a18000"  /><stop offset="1" stop-color="#ffcb05"  /></linearGradient><linearGradient id="grd6" gradientUnits="userSpaceOnUse"  x1="283.213" y1="564.998" x2="321.745" y2="564.998"><stop offset="0" stop-color="#ffcb05"  /><stop offset="0.461" stop-color="#d5a903"  /><stop offset="0.658" stop-color="#a18000"  /><stop offset="1" stop-color="#ffcb05"  /></linearGradient></defs><style>tspan { white-space:pre }.shp0 { fill: url(#grd1);stroke: #000000;stroke-linecap:square;stroke-linejoin:bevel;stroke-width: 3.03 } .shp1 { fill: #ffcd05;stroke: #000000;stroke-width: 3.03 } .shp2 { fill: #000000 } .shp3 { fill: #ffcd05;stroke: #000000;stroke-linejoin:bevel;stroke-width: 3.03 } .shp4 { fill: url(#grd2) } .shp5 { fill: #ffcb05;stroke: #000000;stroke-linejoin:bevel;stroke-width: 1.515 } .shp6 { fill: none;stroke: #000000;stroke-width: 1.818 } .shp7 { fill: #ef9232;stroke: #000000;stroke-width: 2.121 } .shp8 { fill: #ef9232;stroke: #000000;stroke-linejoin:bevel;stroke-width: 1.515 } .shp9 { fill: url(#grd3);stroke: url(#grd4);stroke-linecap:square;stroke-linejoin:bevel;stroke-width: 3.03 } .shp10 { fill: url(#grd5);stroke: #000000;stroke-linecap:square;stroke-linejoin:bevel;stroke-width: 3.03 } .shp11 { fill: url(#grd6);stroke: #000000;stroke-linecap:square;stroke-linejoin:bevel;stroke-width: 3.03 } .shp12 { fill: none;stroke: #000000;stroke-width: 3.03 } .shp13 { fill: #ef9232 } .shp14 { fill: #ffcb05;stroke: #000000;stroke-linecap:square;stroke-linejoin:bevel;stroke-width: 3.03 } .shp15 { fill: #ffcb05;stroke: #000000;stroke-width: 3.03 } .shp16 { fill: #ffdb07;stroke: #000000;stroke-width: 3.03 } .shp17 { fill: #ffd304;stroke: #000000;stroke-width: 3.03 } .shp18 { fill: #ffb805;stroke: #000000;stroke-width: 3.03 } .shp19 { fill: #e8b80b;stroke: #000000;stroke-width: 3.03 } .shp20 { fill: #f3c409;stroke: #000000;stroke-width: 3.03 } .shp21 { fill: #f9cc07;stroke: #000000;stroke-width: 3.03 } .shp22 { fill: #ffe991;stroke: #000000;stroke-linejoin:bevel;stroke-width: 1.515 } </style><path class="shp0" d="M289.64 86.19L316.04 86.19L316.04 141.66L289.64 141.66L289.64 86.19Z" /><path fill-rule="evenodd" class="shp1" d="M363.29 23.77C363.29 23.77 387.84 47.22 387.76 72.41C387.68 97.59 363.29 121.36 363.29 121.36C363.29 121.36 366.74 101.75 351.67 91.23C336.61 80.72 303.04 79.31 303.04 79.31C287.34 78.76 262.24 89.04 262.24 89.04L231.18 72.72L262.24 56.4C262.24 56.4 286.41 67.41 303.04 67.7C303.04 67.7 336.85 64.25 351.67 53.26C366.5 42.28 363.29 23.77 363.29 23.77L363.29 23.77Z" /><path fill-rule="evenodd" class="shp2" d="M251.25 73.76L276.55 73.76L263.45 81.53L251.25 73.76Z" /><path class="shp3" d="M284.84 63.31C284.84 60.53 287.08 58.29 289.86 58.29L313.39 58.29C316.16 58.29 318.41 60.53 318.41 63.31L318.41 84.96C318.41 87.73 316.16 89.98 313.39 89.98L289.86 89.98C287.08 89.98 284.84 87.73 284.84 84.96L284.84 63.31Z" /><path class="shp3" d="M284.09 61.89C286.5 61.89 288.45 63.84 288.45 66.25L288.45 82.02C288.45 84.42 286.5 86.37 284.09 86.37L284.01 86.37C281.61 86.37 279.66 84.42 279.66 82.02L279.66 66.25C279.66 63.84 281.61 61.89 284.01 61.89L284.09 61.89Z" /><path fill-rule="evenodd" class="shp1" d="M296.45 52.32L285.15 32.87L302.1 1.49L317.47 32.87L308.06 52.32L296.45 52.32Z" /><path class="shp3" d="M288.92 53.58C288.92 50.81 291.16 48.56 293.94 48.56L309.31 48.56C312.09 48.56 314.33 50.81 314.33 53.58L314.33 53.58C314.33 56.35 312.09 58.6 309.31 58.6L293.94 58.6C291.16 58.6 288.92 56.35 288.92 53.58L288.92 53.58Z" /><path fill-rule="evenodd" class="shp4" d="M298.17 86.06L312.45 86.06L312.45 70.37C309.31 78.53 303.82 84.02 298.17 86.06Z" /><path class="shp5" d="M301.7 104.79C280.53 104.29 267.33 109.18 252.46 119.41L252.46 508.43L350.85 508.43L350.85 119.41C337.38 108.15 322.88 105.29 301.7 104.79Z" /><path class="shp6" d="M262.27 113.64L262.27 497.03" /><path class="shp6" d="M274.27 108.24L274.27 493.43" /><path class="shp6" d="M286.52 105.65L286.52 490.84" /><path class="shp6" d="M304.15 104.95L304.15 490.14" /><path class="shp6" d="M330.82 108.64L330.82 493.83" /><path class="shp6" d="M341.12 112.94L341.12 498.13" /><path class="shp6" d="M316.88 105.94L316.88 491.13" /><path fill-rule="evenodd" class="shp7" d="M350.13 485.51C345.67 477.23 338.16 469.07 329.8 462.33C321.37 455.54 306.52 444.25 296.39 437.2C286.51 430.32 264.46 417.02 252.94 421.06L252.94 398.65C268.93 396.18 303.08 422.06 308.08 424.87C325.77 437.8 336.22 448.12 350.18 464.98L350.13 485.51L350.13 485.51Z" /><path fill-rule="evenodd" class="shp7" d="M253 485.51C257.46 477.23 264.97 469.07 273.33 462.33C281.76 455.54 296.6 444.25 306.74 437.2C316.62 430.32 338.66 417.02 350.18 421.06L350.18 398.65C334.19 396.18 300.04 422.06 295.04 424.87C277.36 437.8 266.91 448.12 252.94 464.98L253 485.51L253 485.51Z" /><path fill-rule="evenodd" class="shp7" d="M253 485.51C259.66 479.74 268.97 476.19 277.41 474.41C285.84 472.64 295.82 470.86 304.7 471.09C313.57 471.31 318.68 471.97 326.22 474.64C333.76 477.3 341.97 479.74 345.97 482.62C349.96 485.51 350.18 486.17 350.18 486.17L350.18 463.76C350.18 463.76 345.3 461.54 341.31 460.21C337.31 458.88 329.88 455.78 324.33 455C318.84 454.23 311.58 452.67 299.59 453.11C287.61 453.56 272.52 456.44 265.42 459.1C258.32 461.77 252.94 464.98 252.94 464.98L253 485.51L253 485.51Z" /><path fill-rule="evenodd" class="shp2" d="M350.11 480.13L350.25 476.05C350.25 476.05 343.52 470.56 333.79 467.42C324.06 464.29 319.35 464.44 319.35 464.44C319.35 464.44 323.12 465.23 326.89 466.48C330.65 467.74 338.97 472.44 340.54 473.39C342.1 474.33 350.42 480.29 350.11 480.13L350.11 480.13Z" /><path fill-rule="evenodd" class="shp2" d="M264.44 459.11C268.05 454.4 282.17 443.1 282.17 443.1C282.17 443.1 276.21 449.22 274.33 451.73C272.44 454.24 270.4 457.54 270.4 457.54L264.44 459.11Z" /><path fill-rule="evenodd" class="shp2" d="M252.68 404.48C260.07 405.28 269.46 412.39 271.81 416.94C271.81 416.94 264 411.59 260.99 410.7C257.98 409.81 253.24 408.26 253.24 408.26L252.68 404.48Z" /><path fill-rule="evenodd" class="shp2" d="M306.02 440.72C309.34 441.21 311.27 441.02 314.76 443.57C318.18 446.06 319.07 446.42 320.77 450.4C317.92 447.48 314.63 445.28 313.45 444.35C312.3 443.44 306.02 440.72 306.02 440.72L306.02 440.72Z" /><path fill-rule="evenodd" class="shp2" d="M313.94 439.17C317.16 440.09 320.98 440.63 324.11 443.61C327.17 446.52 327.38 448.73 328.54 452.89C326.1 449.62 323.75 445.29 322.71 444.21C321.69 443.16 313.94 439.17 313.94 439.17Z" /><path fill-rule="evenodd" class="shp7" d="M349.95 234.56C345.49 226.28 337.98 218.12 329.63 211.39C321.19 204.59 306.35 193.3 296.21 186.25C286.33 179.37 264.29 166.07 252.77 170.11L252.77 147.7C268.76 145.24 302.91 171.11 307.91 173.92C325.59 186.86 336.04 197.17 350.01 214.04L349.95 234.56L349.95 234.56Z" /><path fill-rule="evenodd" class="shp7" d="M252.82 235.1C257.28 226.82 264.8 218.66 273.15 211.92C281.58 205.13 296.43 193.84 306.56 186.79C316.45 179.91 338.49 166.61 350.01 170.65L350.01 148.24C334.02 145.78 299.87 171.65 294.87 174.46C277.18 187.39 266.74 197.71 252.77 214.57L252.82 235.1L252.82 235.1Z" /><path fill-rule="evenodd" class="shp7" d="M252.82 160.12C259.48 154.35 268.8 149.25 277.23 147.47C285.66 145.7 295.65 143.92 304.52 144.14C313.4 144.36 318.5 145.03 326.04 147.69C333.59 150.36 341.8 152.8 345.79 155.68C349.79 158.57 350.01 159.23 350.01 159.23L350.01 136.82C350.01 136.82 345.13 134.6 341.13 133.27C337.14 131.94 329.71 128.83 324.16 128.06C318.67 127.29 311.4 125.73 299.42 126.17C287.44 126.61 272.35 129.5 265.25 132.16C258.15 134.82 252.77 138.04 252.77 138.04L252.82 160.12L252.82 160.12Z" /><path fill-rule="evenodd" class="shp2" d="M349.93 153.19L350.07 149.11C350.07 149.11 343.34 143.62 333.61 140.48C323.89 137.34 319.18 137.5 319.18 137.5C319.18 137.5 322.94 138.28 326.71 139.54C330.48 140.79 338.79 145.5 340.36 146.44C341.93 147.38 350.24 153.35 349.93 153.19L349.93 153.19Z" /><path fill-rule="evenodd" class="shp2" d="M258.59 156.24C263.36 156.24 274.35 160.34 274.35 160.34C272.68 157.68 267.36 155.01 261.26 153.79L258.59 156.24L258.59 156.24Z" /><path fill-rule="evenodd" class="shp2" d="M252.93 164.11C257.7 164.11 268.69 168.22 268.69 168.22C267.02 165.55 259.37 162.56 253.27 161.34L252.93 164.11L252.93 164.11Z" /><path fill-rule="evenodd" class="shp2" d="M264.04 146.41C264.04 146.41 273.19 142.54 283.82 140.19C294.45 137.83 306.56 137 306.56 137C306.56 137 293.65 135.12 283.02 137.47C272.4 139.82 264.04 146.41 264.04 146.41Z" /><path class="shp8" d="M301.7 490.25C274.55 490.25 252.46 498.07 252.46 507.67C252.46 517.27 274.55 525.09 301.7 525.09C328.86 525.09 350.85 517.27 350.85 507.67C350.85 498.07 328.86 490.25 301.7 490.25Z" /><path class="shp9" d="M333.99 508.14C333.99 510.14 330.74 512.06 324.95 513.47C319.17 514.89 311.32 515.68 303.14 515.68C294.96 515.68 287.12 514.89 281.34 513.47C275.55 512.06 272.3 510.14 272.3 508.14C272.3 506.14 275.55 504.22 281.34 502.81C287.12 501.39 294.96 500.6 303.14 500.6C311.32 500.6 319.17 501.39 324.95 502.81C330.74 504.22 333.99 506.14 333.99 508.14Z" /><path class="shp10" d="M289.39 503.04C289.39 503.04 296.38 500.82 303.37 500.82C310.36 500.82 317.35 503.04 317.35 503.04L317.35 538.76L289.39 538.76L289.39 503.04Z" /><path class="shp11" d="M284.73 535.65C287.39 531.66 293.6 530.66 302.48 530.66C311.35 530.66 316.24 531.88 320.23 535.65L320.23 588.02C320.23 592.59 311.35 599.33 302.48 599.33C293.6 599.33 284.73 592.57 284.73 588.02L284.73 535.65Z" /><path class="shp12" d="M284.51 556.51C294.05 543.86 319.34 540.76 319.34 540.76" /><path class="shp12" d="M301.81 544.97C313.13 546.53 317.34 550.74 320.23 554.29" /><path fill-rule="evenodd" class="shp13" d="M155.63 272.32C155.63 272.32 157.41 278.53 168.94 286.07C180.48 293.62 195.13 301.16 203.11 302.49C211.1 303.82 227.52 304.71 235.07 302.94C242.61 301.16 280.33 262.78 280.33 262.78L318.94 262.78C318.94 262.78 333.14 289.18 346.45 295.39C359.76 301.6 379.73 306.04 393.49 303.82C407.25 301.6 445.86 286.52 445.86 286.52C445.86 286.52 446.3 293.17 439.64 306.49C432.99 319.8 423.22 337.55 405.92 351.75C388.61 365.95 367.75 377.05 347.34 383.26C326.93 389.47 300.74 393.02 285.66 391.25C270.57 389.47 255.04 387.25 235.51 377.05C215.98 366.84 199.56 359.74 184.92 342.88C170.28 326.01 158.29 310.48 156.52 298.05C154.74 285.63 156.07 272.32 155.63 272.32L155.63 272.32Z" /><path class="shp6" d="M180.72 289.36L180.72 338.18" /><path class="shp6" d="M189.85 294.24L189.85 348.38" /><path class="shp6" d="M198.98 296.46L198.98 355.93" /><path class="shp6" d="M208.1 300.01L208.1 361.03" /><path class="shp6" d="M217.23 301.57L217.23 366.36" /><path class="shp6" d="M171.6 285.37L171.6 329.08" /><path class="shp6" d="M162.47 279.38L162.47 316.65" /><path class="shp6" d="M226.36 301.57L226.36 372.13" /><path class="shp6" d="M235.48 301.57L235.48 376.56" /><path class="shp6" d="M244.61 298.02L244.61 381.44" /><path class="shp6" d="M253.74 289.14L253.74 384.99" /><path class="shp6" d="M418.02 294.02L418.02 338.18" /><path class="shp6" d="M408.89 296.91L408.89 348.38" /><path class="shp6" d="M399.77 299.79L399.77 355.93" /><path class="shp6" d="M390.64 301.34L390.64 361.03" /><path class="shp6" d="M381.51 303.34L381.51 366.36" /><path class="shp6" d="M427.15 291.58L427.15 329.08" /><path class="shp6" d="M436.27 288.25L436.27 316.65" /><path class="shp6" d="M372.39 302.68L372.39 372.13" /><path class="shp6" d="M363.26 301.57L363.26 376.56" /><path class="shp6" d="M354.13 298.02L354.13 381.44" /><path class="shp6" d="M345.01 294.24L345.01 384.99" /><path class="shp14" d="M301.7 183.62L278.6 206.72L285.23 213.35L301.7 196.97L318.18 213.35L324.81 206.72L301.7 183.62Z" /><path fill-rule="evenodd" class="shp15" d="M406.12 160.06C409.15 159.44 412.18 158.81 415.22 158.18C419.85 159.99 424.54 161.63 429.28 163.12C431.36 164.25 433 166.04 434.94 167.39C437.11 168.9 438.86 171.01 439.96 173.41C440.17 175.26 442.18 177.76 440.12 179.18C438.35 180.35 437.24 182.88 435.18 183.32C431.32 183.47 427.46 183.91 423.6 183.81C420.15 183.24 416.67 182.9 413.2 182.52C411.44 181.91 408.93 181.81 407.66 180.76C407.15 173.86 406.63 166.96 406.12 160.06L406.12 160.06Z" /><path fill-rule="evenodd" class="shp15" d="M490.53 100.13C492.93 97.62 494.66 94.3 497.54 92.34C499.79 91.5 501.26 89.64 502.84 87.95C505.13 86.13 505.44 82.91 507.4 80.91C508.93 78.52 511.98 79.98 511.84 82.57C512.04 85.14 513.99 86.88 515.4 88.84C516.86 91.03 518.71 92.88 520.96 94.25C523.55 95.85 524.21 99.62 522.99 102.31C522.46 105.58 517.22 104.86 517.03 108.68C516.14 111.69 517.69 114.89 517.2 118.02C515.2 119.32 512.87 120.29 511.55 122.41C509.33 125.42 506.2 127.47 503.2 129.6C500.84 131.31 499.63 133.78 500 136.69C498.81 139.27 496.05 141.72 493.91 143.4C491.58 143.02 488.62 143.82 486.77 142.15C486.79 138.27 486.7 134.32 486.4 130.42C485.57 127.01 483.47 123.78 483.72 120.22C484 114.67 484.28 109.13 484.57 103.58C486.55 102.43 488.54 101.28 490.53 100.13L490.53 100.13Z" /><path fill-rule="evenodd" class="shp2" d="M494.19 116.29C495.7 114.74 497.24 113.2 498.97 111.89C500.01 111.02 500.96 110.05 502.01 109.19C502.87 109.05 504.05 109.6 504.62 108.66C506.13 106.84 507.54 104.94 509 103.07C509.82 103.76 509.7 104.89 509.46 105.81C509.31 106.9 508.17 107.25 507.44 107.87C506.42 108.48 505.48 109.23 505.73 110.56C505.81 112.1 504 111.7 503.07 112.22C501.86 112.88 500.68 113.67 499.83 114.77C498.37 116.45 496.97 118.19 495.6 119.94C494.67 120.34 493.63 120.34 492.64 120.5C491.09 120.64 489.53 120.63 487.97 120.73C487.91 119.83 486.96 118.25 488.53 118.18C490.42 117.55 492.3 116.92 494.19 116.29L494.19 116.29Z" /><path fill-rule="evenodd" class="shp15" d="M182.07 273.66C189.39 268.98 197.04 263.98 205.88 263.07C211 263.12 216.1 263.68 221.23 263.67C225.08 263.56 228.74 264.8 232.22 266.33C243.43 270.65 254.64 274.98 265.85 279.31C261.67 285.79 257.49 292.28 253.3 298.76C231.44 294.89 209.58 291.02 187.72 287.15C185.84 282.65 183.95 278.15 182.07 273.66L182.07 273.66Z" /><path fill-rule="evenodd" class="shp16" d="M480.21 304.67C484.62 303.25 488.05 297.94 493.24 299.91C497.98 300.54 501.06 307.54 506.11 304.98C509.77 302.26 514.96 301.87 518.93 304.09C522.37 307.24 526.07 310.45 531.12 310.03C535.56 309.77 538.69 313.91 539.06 317.99C540.59 321.97 538.46 325.93 535.29 328.31C532.49 332.2 527.71 333.31 523.22 332.33C518.68 331.25 515.08 334.48 512.06 337.36C508.52 340.66 502.79 340.06 499.51 336.68C496.75 333.25 489.92 333.28 489.03 338.26C488.68 342.76 492.6 347.72 489.39 351.84C486.13 354.57 482.65 357.08 479.59 359.94C475.47 361.63 471.06 359.28 468.67 355.87C466.86 351.73 462.28 351.34 459.56 348.01C457.4 343.65 452.7 341.27 450.66 336.95C450.91 333.13 454.06 329.91 455.46 326.32C459.9 317.79 464.22 309.2 468.67 300.68C472.25 303.16 476.35 305.85 480.92 305.07L480.9 304.98L480.21 304.67L480.21 304.67L480.21 304.67Z" /><path fill-rule="evenodd" class="shp2" d="M473.11 315.77C475.14 315.19 477.14 314.52 479.19 314C482.86 314.47 486.54 315.05 490.25 314.91C492.23 314.52 490.83 311.31 492.74 311.01C494.78 312.02 492.56 314.92 493.82 316.5C495.51 317.78 497.76 316.91 499.68 317.44C501.57 317.62 503.47 317.72 505.37 317.72C506.09 317.21 506.99 314.26 507.51 316.47C508.44 318.75 511.31 317.82 513.2 318.15C514.58 318.38 517.07 317.81 517.59 318.99C516.44 320.75 513.91 319.69 512.16 320.09C510.63 319.95 508.77 320.96 509.54 322.65C508.46 324.63 506.44 322.22 506.48 320.88C504.89 319.42 502.57 320.19 500.64 319.83C498.5 319.66 496.36 319.4 494.2 319.43C492.62 320.73 490.05 320.8 488.57 319.29C487.31 318.45 484.52 317.25 484.05 319.5C484.76 320.88 482.66 323.8 481.89 321.5C481.96 319.61 480.54 317.68 478.55 318.48C476.41 318.35 474.82 316.84 473.11 315.77L473.11 315.77Z" /><path fill-rule="evenodd" class="shp2" d="M490.06 337.83C487.43 336.77 484.79 335.74 482.17 334.66C480.3 333.13 478.13 331.88 476.74 329.85C476 328.95 475.26 328.06 474.52 327.16C473.43 326.53 472.33 325.9 471.23 325.28C470.27 325.26 470.61 326.57 471.39 326.54C472.73 327.48 474.22 328.33 475.1 329.76C476.88 332.08 478.79 334.29 480.67 336.52C481.74 337.97 483.64 338.27 485.16 339.05C486.53 339.63 487.9 340.22 489.27 340.81C489.53 339.81 489.8 338.82 490.06 337.83L490.06 337.83Z" /><path fill-rule="evenodd" class="shp15" d="M113.82 197.88C115 203.02 117.42 207.76 120.36 212.1C123.55 217.51 126.71 223.2 132 226.85C133.79 228.37 136.11 229.58 137.79 230.97C135.45 241.48 133.11 252 130.77 262.52C125.59 257.86 120.41 253.21 115.23 248.55C113.57 241.17 111.65 233.81 110.85 226.27C110.88 219.57 110.59 212.84 111.25 206.17C111.85 203.33 112.97 200.64 113.82 197.88L113.82 197.88Z" /><path fill-rule="evenodd" class="shp2" d="M129.2 241.96C129.2 241.96 124.33 240.39 122.61 236.79C120.88 233.18 119.16 224.39 119.16 224.39C119.16 224.39 122.45 231.92 124.49 234.75C126.53 237.57 131.08 238.51 131.08 238.51L129.2 241.96L129.2 241.96Z" /><path fill-rule="evenodd" class="shp17" d="M132.18 444.67C127.43 445.37 125.29 445.95 123.08 446.87C119.31 450.01 118.06 450.32 118.06 455.34C118.06 460.36 118.37 466.95 122.45 467.27C126.53 467.58 133.75 467.27 139.71 464.44C145.67 461.62 164.81 445.61 168.26 445.61C171.72 445.61 174.23 445.61 175.48 448.12C176.74 450.64 176.11 452.52 178.93 455.97C181.76 459.42 187.09 458.48 191.8 459.42C196.5 460.36 198.07 464.44 202.47 465.07C206.86 465.7 207.49 468.21 208.74 469.46C210 470.72 212.51 472.91 217.22 471.66C221.92 470.4 225.69 462.56 225.37 456.6C225.06 450.64 223.49 448.44 221.29 446.24C219.1 444.05 216.9 442.79 218.78 440.28C220.67 437.77 221.92 437.14 225.06 439.02C228.2 440.91 226.94 444.99 230.08 445.93C233.22 446.87 240.12 448.75 243.57 447.18C247.03 445.61 252.99 444.36 255.18 444.36C257.38 444.36 270.87 429.61 270.87 429.61L264.91 419.26C264.91 419.26 264.6 417.37 259.26 415.8C253.93 414.24 247.03 414.24 245.14 414.24C243.26 414.24 242 417.69 240.12 415.18C238.24 412.67 241.38 411.41 237.93 410.78C234.47 410.16 230.39 411.73 227.88 413.29C225.37 414.86 221.29 417.37 215.02 417.37C208.74 417.37 209.37 416.43 209.37 416.43C209.37 416.43 212.19 413.29 214.08 412.04C215.96 410.78 222.24 409.84 226.94 410.16C231.65 410.47 234.47 407.96 234.16 403.57C233.85 399.17 230.39 395.41 228.51 393.21C226.63 391.01 221.29 390.39 218.47 391.01C215.65 391.64 210.94 395.09 209.68 398.23C208.43 401.37 201.84 402.31 198.39 404.19C194.94 406.08 187.09 412.04 187.09 412.04C187.09 412.04 188.66 411.1 191.8 406.7C194.94 402.31 199.02 397.29 201.21 393.21C203.41 389.13 201.53 386.62 200.9 381.6C200.27 376.58 193.68 369.05 192.43 367.79C191.17 366.54 183.33 364.34 182.07 367.17C180.82 369.99 179.87 374.38 178.93 378.15C177.99 381.91 176.42 384.74 174.23 387.56C172.03 390.39 168.26 399.8 168.26 399.8C168.26 399.8 169.83 396.66 170.15 393.21C170.46 389.76 169.83 385.68 168.58 381.29C167.32 376.89 164.18 373.13 159.16 368.74C154.14 364.34 149.12 360.58 145.36 359.32C141.59 358.07 139.39 360.26 138.14 362.77C136.88 365.28 138.14 368.74 138.45 371.87C138.77 375.01 135.94 378.46 135.94 382.23C135.94 385.99 137.51 388.82 137.51 388.82C137.51 388.82 134.69 387.25 131.55 386.62C128.41 385.99 125.9 387.25 122.45 385.99C119 384.74 116.49 380.35 113.66 379.72C110.84 379.09 106.76 382.86 104.88 386.94C103 391.01 103.31 396.35 106.13 399.17C108.96 402 111.15 400.43 115.86 403.25C120.57 406.08 114.92 408.59 120.25 411.1C125.59 413.61 127.47 411.41 129.67 413.92C131.86 416.43 131.24 418.31 134.37 421.45C137.51 424.59 138.45 420.51 142.22 420.83C145.98 421.14 143.16 423.02 143.16 425.53C143.16 428.04 149.12 428.67 152.89 427.73C156.65 426.79 158.54 426.79 161.99 431.49C165.44 436.2 161.99 435.89 159.48 439.02C156.97 442.16 144.42 442.48 132.18 444.67L132.18 444.67Z" /><path fill-rule="evenodd" class="shp2" d="M145.04 406.7C140.81 405.29 135.94 404.66 134.06 403.1C132.18 401.53 129.82 399.17 130.92 398.08C132.02 396.98 134.37 398.86 137.2 400.27C140.02 401.68 145.83 403.25 145.83 403.25C145.83 403.25 146.61 398.39 144.42 396.35C142.22 394.31 140.02 392.58 140.18 391.64C140.34 390.7 144.26 392.43 144.42 393.37C144.57 394.31 146.93 396.82 147.08 398.23C147.24 399.64 148.49 404.51 148.97 405.29C149.44 406.08 153.67 410 153.67 411.1C153.67 412.2 152.73 412.67 151.32 412.2C149.91 411.73 149.59 408.59 148.02 407.8C146.46 407.02 145.36 407.02 145.04 406.7L145.04 406.7Z" /><path fill-rule="evenodd" class="shp2" d="M154.77 378.62C154.77 383.64 154.77 387.88 155.56 390.07C156.34 392.27 158.38 397.29 158.38 398.7C158.38 400.11 160.73 402 160.58 403.1C160.42 404.19 160.11 405.92 158.85 404.35C157.59 402.78 157.12 398.08 155.87 396.19C154.61 394.31 152.42 387.09 150.22 384.11C148.02 381.13 145.2 379.25 144.73 377.68C144.26 376.11 145.51 374.38 146.3 375.17C147.08 375.95 148.34 379.09 149.75 377.36C151.16 375.64 151.48 373.29 152.89 373.6C154.3 373.91 154.61 374.7 154.93 375.64C155.24 376.58 154.77 378.78 154.77 378.62L154.77 378.62Z" /><path fill-rule="evenodd" class="shp2" d="M180.19 396.04C182.7 392.9 185.52 388.98 185.99 387.25C186.46 385.52 186.62 384.11 187.25 384.58C187.88 385.05 188.19 385.52 187.25 388.35C186.31 391.17 184.89 395.41 183.17 398.08C181.44 400.74 178.62 402.78 177.99 401.84C177.36 400.9 177.68 399.8 178.46 398.23C179.25 396.66 180.5 396.19 180.19 396.04L180.19 396.04Z" /><path fill-rule="evenodd" class="shp2" d="M238.28 432.6C233.76 430.4 229.95 428.55 227.63 428.29C225.31 428.04 219.91 427.68 218.64 427.06C217.37 426.44 214.65 427.74 213.73 427.12C212.81 426.49 211.39 425.46 213.35 425.01C215.31 424.57 219.75 426.21 221.99 425.9C224.24 425.59 231.69 426.78 235.33 426.1C238.97 425.43 241.9 423.71 243.51 423.98C245.13 424.24 246.13 426.12 245.09 426.49C244.04 426.85 240.67 426.6 241.6 428.63C242.54 430.65 244.52 431.97 243.62 433.1C242.72 434.23 241.87 434.17 240.89 434.04C239.91 433.91 238.14 432.53 238.28 432.6L238.28 432.6Z" /><path fill-rule="evenodd" class="shp2" d="M178.93 430.4C181.44 433.53 183.17 432.91 184.74 434.95C186.31 436.99 189.29 440.75 193.21 441.85C197.13 442.95 201.05 448.91 202.94 450.16C204.82 451.42 207.02 452.83 207.64 452.67C208.27 452.52 204.04 450.16 202.94 448.6C201.84 447.03 201.53 443.57 198.86 442.01C196.19 440.44 190.86 439.02 189.13 436.67C187.4 434.32 185.68 430.55 184.11 429.3C182.54 428.04 182.54 429.92 181.44 429.92C180.34 429.92 179.72 428.51 178.93 429.14C178.15 429.77 179.09 430.87 178.93 430.4Z" /><path class="shp12" d="M140.49 261.73C140.49 261.73 142.53 262.52 143.63 265.5C144.73 268.48 144.73 285.89 144.57 289.97C144.42 294.05 143.94 298.92 141.43 301.58C138.92 304.25 132.49 308.17 132.49 308.17" /><path fill-rule="evenodd" class="shp18" d="M47.76 221.91C65.42 230.58 82.09 241.76 95.32 256.44C100.86 261.98 105.04 268.84 111.8 273.07C117.29 276.68 124.5 277.57 128.87 282.89C134.12 286.38 129.38 285.42 125.77 284.96C120.58 284.62 115.44 284.06 110.91 281.29C106.81 278.48 102.73 275.65 97.88 274.19C88.81 269.77 78.48 270.79 68.73 271.28C58.53 273.07 48.74 276.55 39.1 280.26C43.06 284.83 48.13 288.57 53.62 291C58.52 293.2 63.76 294.04 69.06 294.69C62.74 296.9 56.29 299.33 51.83 304.59C47.17 308.25 45.36 314.05 42.21 318.87C44.73 322.52 49.96 321.48 53.78 322.87C58.67 323.05 63.87 323.62 68.63 322.53C76.72 320.58 83.42 313.75 92.14 314.66C98.24 314.57 104.81 315.55 110.11 311.77C114.49 310.09 107.52 315 106.84 316.92C101.56 324.13 98.53 332.69 96.35 341.28C96.21 348.03 95.31 355.32 99.23 361.25C98.66 357.7 99.58 354.63 102.17 352.1C107.96 344.92 115.33 339.11 121.87 332.6C125.59 328.36 131.43 325.66 132.89 319.87C133.89 317.59 131.28 325.35 130.82 327.15C127.48 337.58 122.88 347.88 123.02 359.02C121.05 364.08 125.83 362.49 128.17 360.1C133.84 354.62 139.23 348.79 146.27 345.06C148.35 341.3 151.71 337.92 150.84 333.29C151.42 312.99 152 292.7 152.57 272.4C138.56 260.77 125.02 248.42 109.83 238.36C101.28 234.69 93.25 229.5 83.9 228.14C73.83 225.63 63.73 223.26 53.35 222.55C51.49 222.34 49.62 222.12 47.76 221.91Z" /><path fill-rule="evenodd" class="shp2" d="M60.48 283.07C64.45 282.55 68.43 281.98 72.41 281.5C77.83 281.52 83.25 281.42 88.67 281.64C90.97 281.74 93.28 281.69 95.58 281.9C97.63 282.13 99.69 282.37 101.74 282.6C100.92 283.11 100.14 283.73 99.3 284.17C95.26 284.43 91.22 284.79 87.18 284.98C83.48 285.06 79.78 285.21 76.07 285.25C72.31 284.98 68.54 284.76 64.79 284.46C63.35 284 61.91 283.53 60.48 283.07Z" /><path fill-rule="evenodd" class="shp2" d="M74.75 304.41C76.79 303.04 78.89 301.76 81.19 300.88C82.84 299.91 84.81 300.45 86.64 300.35C91.83 300.48 96.42 300.02 101.6 299.52C103.78 298.54 106.26 297.46 108.62 296.83C111.01 295.87 113.62 295.33 115.75 293.82C117.2 292.9 118.65 291.99 120.1 291.07C118.01 292.92 116.05 294.95 113.88 296.68C111.54 297.87 108.91 298.59 106.95 300.4C105.67 301.65 104.09 302.34 102.4 302.82C100.77 303.62 98.96 303.14 97.23 303.16C92.4 303 87.57 302.74 82.75 302.74C80.05 303.16 77.38 303.67 74.75 304.41L74.75 304.41Z" /><path fill-rule="evenodd" class="shp2" d="M115.08 320.88C115.08 320.88 115.39 317.12 117.9 313.51C120.41 309.9 127.78 303.15 127.78 303.15L131.08 304.57C131.08 304.57 124.18 309.74 121.67 312.57C119.16 315.39 115.23 321.35 115.08 320.88L115.08 320.88Z" /><path fill-rule="evenodd" class="shp2" d="M134.06 339.4C134.06 339.4 138.45 336.26 138.92 334.22C139.39 332.18 140.81 323.39 140.81 323.39L145.51 330.77C145.51 330.77 143.94 334.85 141.28 336.89C138.61 338.93 134.06 339.55 134.06 339.4Z" /><path fill-rule="evenodd" class="shp2" d="M131.24 266.44C131.24 266.44 126.37 261.73 121.51 258.75C116.64 255.77 106.92 251.69 106.92 251.69C106.92 251.69 114.29 257.81 118.06 260.48C121.82 263.14 130.61 269.26 130.61 269.26L131.24 266.44L131.24 266.44Z" /><path fill-rule="evenodd" class="shp2" d="M167.13 261.85C169.69 263.69 172.25 265.9 175.51 266.28C178.75 267.01 182.09 267.01 185.39 267.01C186.88 267.52 187.1 269.25 187.69 270.49C188.02 271.27 189.51 272.91 188.1 273.29C183.71 273.06 179.34 272.27 175.15 270.95C172.81 270.34 170.48 269.69 168.19 268.91C166.41 267.23 164.27 265.92 162.8 263.93C161.82 262.98 160.02 262.94 159.56 261.48C159.34 259.95 161.52 258.64 162.65 259.82C163.49 261.02 164.91 261.75 166.37 261.67C166.63 261.72 166.88 261.77 167.13 261.85L167.13 261.85Z" /><path fill-rule="evenodd" class="shp2" d="M174.9 354.6C174.9 354.6 188.65 370.13 205.52 379.89C222.38 389.65 226.37 391.87 255.66 400.3C284.95 408.74 317.79 407.4 336.87 402.97C355.95 398.53 382.58 390.1 395 382.11C407.43 374.12 430.95 355.04 430.95 355.04L398.11 376.78C398.11 376.78 373.7 388.77 363.05 391.87C352.4 394.98 315.13 402.97 315.13 402.97C315.13 402.97 278.29 402.97 265.42 399.86C252.55 396.75 225.93 387.44 213.5 380.78C201.08 374.12 175.78 354.15 174.9 354.6L174.9 354.6Z" /><path fill-rule="evenodd" class="shp17" d="M449.73 460.36C447.6 455.5 446.68 448.44 440.73 446.84C433.59 445.91 432.72 454.92 427.64 458.04C420.04 464.73 411.69 470.69 402.38 474.75C394.06 477.26 384.83 476.23 377.09 480.84C373.76 483 364.15 489.09 369.43 481.16C373.23 472.44 376.32 462.88 383.73 456.48C387.01 450.97 397.49 446.1 399.7 445.11C391.21 446.56 381.45 447.82 374.2 442.1C368.23 438.73 362.3 435.29 356.22 432.12C359.99 427.03 365.14 423.11 371.15 421.12C377.01 417.98 363.14 417.29 361.4 412.98C356.93 409.41 349.53 401.83 359.19 400.61C369.6 395.84 380.01 391.07 390.43 386.31C397.49 392.65 403.48 400.14 409.84 407C415.24 409.15 407.06 398.3 408.03 394.78C407.51 387.48 407.73 380.14 407.69 372.81C413.04 369.7 417.92 368.39 420.75 375.05C426.22 381.81 431.64 388.64 436.24 396.04C435.76 382.57 436 368.9 438.62 355.66C442.54 346.63 446.45 337.6 450.36 328.57C455.25 336.06 456.14 345.33 458.52 353.8C459.62 363.13 461.14 372.62 459.32 381.97C459.65 386.76 455.24 396.68 458.08 397.99C467.27 395.11 473.51 387.05 479.36 379.85C481.17 377.3 486.19 367.87 484.76 376.48C485.02 385.46 484.38 394.91 479.69 402.78C474.34 409.96 469.67 417.77 462.49 423.34C458.35 428.11 448.59 434.19 453 441.33C459.58 449.22 464.09 458.71 469.82 467.27C473.91 473.51 472.64 480.64 465.08 482.68C457.52 485.01 454.25 475.96 452.3 470.35C451.19 467.09 450.6 463.69 449.73 460.36L449.73 460.36Z" /><path class="shp12" d="M398.59 445.46C398.59 445.46 406.43 441.38 413.81 439.34C421.18 437.3 432.32 435.89 432.32 435.89" /><path fill-rule="evenodd" class="shp2" d="M388.07 468.99C389.83 466.31 391.53 463.6 393.31 460.94C395.55 458.98 397.68 456.87 399.99 455.01C403.29 453.11 406.48 451 410 449.5C411.99 448.6 413.92 447.51 416.08 447.09C417.52 446.7 418.96 446.31 420.4 445.93C416.06 448.46 411.68 450.91 407.49 453.68C403.2 456.31 399.09 459.24 395.02 462.2C392.71 464.46 390.39 466.73 388.07 468.99L388.07 468.99Z" /><path fill-rule="evenodd" class="shp2" d="M373.01 431.81C377.24 430.41 381.44 428.78 385.89 428.25C389.14 427.51 392.48 427.46 395.79 427.55C400.49 427.53 405.2 427.64 409.88 428.04C411.05 429.16 409.32 430.74 408.14 429.9C402.61 429.78 397.06 429.31 391.53 429.66C385.35 430.31 379.18 431.06 373.01 431.81L373.01 431.81Z" /><path fill-rule="evenodd" class="shp2" d="M371.91 399.8C377.63 404.76 383.25 409.87 389.53 414.11C391.84 415.98 394.37 417.66 397.27 418.43C401.47 419.96 405.57 421.81 409.9 422.92C410.69 422.94 412.87 424.08 412.8 423.04C410.64 421.04 407.58 420.64 405.03 419.33C399.48 417.05 393.73 414.96 388.95 411.23C385.23 408.61 381.58 405.85 378.4 402.57C376.63 401.42 375.39 398.34 372.97 399.57C372.62 399.64 372.27 399.72 371.91 399.8L371.91 399.8Z" /><path fill-rule="evenodd" class="shp2" d="M418.83 388.35C417.94 392.43 417.53 396.64 417.98 400.8C417.88 402.4 418.77 403.84 419.87 404.91C423.04 408.8 426.6 412.36 429.48 416.47C430.18 416.79 430.65 419.08 431.37 418.15C431.25 416.09 429.71 414.54 429.09 412.65C427.46 409.33 424.95 406.52 423.47 403.12C422.41 401.37 420.77 399.73 420.87 397.53C420.68 395.42 420.47 393.3 420.55 391.17C419.98 390.23 419.4 389.29 418.83 388.35L418.83 388.35Z" /><path fill-rule="evenodd" class="shp2" d="M443.93 393.53C443.09 388.27 442.97 382.89 443.5 377.6C443.9 374.67 445.07 371.93 445.93 369.12C446.45 367.65 447.08 366.21 447.94 364.91C447.59 363.46 450.16 364.11 449.14 365.22C449.68 373.64 449.89 382.19 448.14 390.5C447.83 392.48 447.72 394.69 446.31 396.26C444.69 396.85 445.02 394.47 444.15 393.77C444.08 393.69 444 393.61 443.93 393.53L443.93 393.53Z" /><path fill-rule="evenodd" class="shp2" d="M449.11 422.24C451.36 420.23 453.64 418.25 455.88 416.24C458.38 412.43 460.88 408.63 463.38 404.82C462.2 406.23 461.12 407.74 459.86 409.09C457.85 410.75 455.83 412.42 453.81 414.08C452.14 414.76 450.47 415.44 448.79 416.12C448.9 418.16 449 420.2 449.11 422.24Z" /><path fill-rule="evenodd" class="shp16" d="M503.06 235.89C509.02 235.72 510.11 227.6 515.84 226.92C520.26 225.92 523.99 236.39 527.53 229.64C530.1 225.3 536.85 222.76 540.83 226.68C543.21 228.99 545.78 232.88 549.64 231.51C555.69 229.8 561.27 236.86 558.93 242.47C557.41 246.86 552.55 249.66 548.02 249C543.72 249.89 545.11 255.7 549.19 255.26C553.17 257.91 554.24 264.01 559.4 265.03C562.84 268.51 562.18 275.29 558.85 278.57C553.57 282.74 546.32 283.79 541.72 288.93C538.01 292.95 530.8 292.59 526.4 289.74C523.2 287.1 519.87 281.83 515.06 283.88C511.23 285.66 509.11 291.13 504.25 290.28C500.4 288.29 495.61 285.2 491.52 288.67C485.39 291.66 477.52 289.88 473.09 284.79C470.25 280.79 474.26 276.5 474.47 272.27C477.53 259.91 480.6 247.55 483.66 235.19C487.47 231.98 492.87 234.67 497.3 233.85C499.31 234.28 501.11 235.3 503.06 235.89L503.06 235.89Z" /><path fill-rule="evenodd" class="shp2" d="M491.52 261.85C495.88 260.53 500.34 259.45 504.4 257.33C506 256.72 507.71 256.04 508.64 254.52C510.97 252.09 513 249.38 514.59 246.41C514.95 245.5 516.82 243.48 517.46 244.55C516.6 246.01 515.88 247.52 515.67 249.23C515.23 250.71 515.97 251.44 517.12 250.28C520.21 248.46 523.32 246.67 526.36 244.76C528.58 245.06 530.8 245.36 533.02 245.65C531.26 247.81 528.11 247.37 525.98 248.92C523.62 250.26 521.05 251.38 519.28 253.51C518.11 255.06 516.27 255.63 514.44 255.93C512.31 256.31 510.24 256.98 508.42 258.15C506.01 259.42 503.65 260.8 501.39 262.31C499.4 262.73 497.33 262.49 495.32 262.38C494.05 262.22 492.79 261.99 491.52 261.85L491.52 261.85Z" /><path fill-rule="evenodd" class="shp2" d="M486.64 271.39C495.07 273.49 503.65 276.31 512.46 275.22C524.16 274.23 535.74 272.19 547.44 271.17C549.65 269.83 545.98 268.49 544.98 269.79C536.94 270.91 528.76 271.39 520.89 273.52C518.53 273.54 514.23 273.34 514.07 270.35C515.15 268.19 517.27 266.35 519.6 265.67C526.67 264.35 534.07 264.27 540.83 261.55C544.38 260.11 547.42 256.26 546.57 252.27C544.14 249.83 543.09 254.99 542.08 256.57C540.35 259.55 537.12 261.79 533.58 261.62C528.47 262.15 523.33 262.47 518.22 262.98C512.63 264.79 509.58 270.87 503.7 272.12C500.23 273.09 496.5 272.17 493.51 270.28C491.3 269.41 488.1 269.06 486.64 271.39L486.64 271.39Z" /><path fill-rule="evenodd" class="shp2" d="M187.65 208.71C188.65 211.7 191.43 212.04 191.43 212.04C191.43 212.04 192.54 211.81 193.64 212.26C194.75 212.7 194.75 214.59 195.53 214.92C196.31 215.25 196.64 214.81 196.53 213.81C196.42 212.81 196.53 210.48 195.2 209.82C193.87 209.15 193.42 210.15 191.87 209.26C190.32 208.37 189.98 206.49 188.87 206.82C187.76 207.15 187.65 208.93 187.65 208.71L187.65 208.71Z" /><path fill-rule="evenodd" class="shp18" d="M161.99 178.26C146.42 172.2 127.48 172.72 113.81 183.02C108.95 186.18 108.09 192.96 115.41 191.83C124.09 193.92 130.81 200.92 139.95 201.58C147.45 203.53 155 201.57 161.79 198.27C169.7 196.63 176.1 187.55 184.92 191.11C194.68 197.57 205.11 203.52 216.75 205.82C223.17 206.66 232.08 211.27 237.03 209.32C236.67 201.43 225.16 202.74 220.08 198.99C213.04 196.06 201.21 191.73 202.06 182.72C205.77 176.61 211.59 172.03 215.3 165.84C223.7 154.66 223.95 140.08 223.45 126.71C223.09 120.88 224.88 112.31 219.33 108.84C213.6 115.36 209.8 123.96 206 131.9C203.34 138.42 199.29 126.67 199.41 122.87C198.78 113.2 198.61 103.5 197.89 93.84C196.46 89.31 194.87 99.98 192.77 101.73C190.44 104.58 187.97 113.41 186.25 113.63C186.73 102.59 188.7 91.45 186.98 80.44C182.44 72.26 176.74 64.11 168.71 59.13C165.9 55.86 161.53 56.1 164.27 61.2C166.02 71.29 165.48 81.69 163.24 91.66C155.19 80.63 148.96 68.43 141.77 56.85C138.71 69.22 141.65 82.12 143.18 94.53C145.09 104.39 145.8 114.59 149.04 124.1C151.3 129.99 154.06 135.67 156.34 141.55C141.48 132.78 126.27 123.99 109.39 119.77C118.51 140.32 132.55 159.18 151.87 171.11C155.25 173.48 158.61 175.89 161.99 178.26L161.99 178.26Z" /><path fill-rule="evenodd" class="shp2" d="M156.04 138.48L166.69 153.13L177.56 164.89L182 170.88L171.79 161.34L159.36 147.58L152.49 140.03L156.04 138.48Z" /><path fill-rule="evenodd" class="shp2" d="M137.18 142.92C140.44 146.73 143.6 150.64 146.92 154.4C150.09 156.87 153.13 159.5 156.38 161.85C159.02 163.54 161.58 165.39 164.28 166.96C166.12 167.53 167.95 168.09 169.79 168.66C163.94 163.3 158.28 157.73 152.13 152.71C149.35 150.41 146.54 148.15 143.68 145.95C141.51 144.94 139.34 143.93 137.18 142.92L137.18 142.92Z" /><path fill-rule="evenodd" class="shp2" d="M130.96 186.85C133.99 187.58 136.99 188.41 140.03 189.08C142.72 189.14 145.41 189.24 148.11 189.28C150.47 188.79 152.87 188.43 155.22 187.85C157.04 187.15 158.87 186.44 160.69 185.74C157.2 185.23 153.71 184.69 150.21 184.19C147.13 184.32 144.04 184.31 140.99 184.77C138.88 185.06 136.73 185.11 134.7 185.81C133.45 186.15 132.21 186.5 130.96 186.85L130.96 186.85Z" /><path fill-rule="evenodd" class="shp2" d="M160.69 107.2C161.38 111.44 162.01 115.68 162.73 119.92C164.67 124.22 166.46 128.6 168.84 132.69C170.64 135.88 172.22 139.19 173.67 142.56C174.11 143.48 174.81 145.26 175.09 145.64C174.39 141.85 173.9 138.02 173.06 134.27C172.35 131.66 171.8 128.99 170.97 126.43C167.53 120.03 164.3 113.51 160.69 107.2Z" /><path fill-rule="evenodd" class="shp2" d="M162.69 92.77L170.68 106.09L176.23 114.96L178.89 121.4L179.55 116.96L178.22 93.88L176.67 89.67L177.34 100.54L176.67 108.53L171.57 101.65L166.91 95.66L166.02 91.44L164.02 87L162.69 92.77Z" /><path fill-rule="evenodd" class="shp2" d="M185.52 112.37C185.21 115.51 184.89 118.64 184.58 121.78C183.67 123.16 183.16 125.08 181.36 125.57C179.71 126.67 180.18 128.93 179.54 130.57C179.43 132.64 181.83 133.82 181.74 135.92C182.46 141.44 183.14 146.97 183.26 152.54C183.66 154.03 184.95 151.46 184.63 150.67C184.69 147.47 184.79 144.27 184.55 141.08C184.38 137.9 184.06 134.72 184.01 131.54C184.44 129.2 185.26 126.92 186.28 124.76C187.46 122.74 187.36 120.34 187.76 118.1C187.99 115.51 187.72 112.91 187.71 110.31C187.02 109.86 186.19 112.07 185.52 112.37L185.52 112.37Z" /><path fill-rule="evenodd" class="shp2" d="M196.03 131.82C196.37 136.38 197.13 140.91 196.92 145.49C196.86 147.59 196.92 149.72 196.75 151.81C196.23 153.54 196.47 155.64 195 156.95C194.12 158.31 193.81 159.99 193.6 161.58C193.38 163.68 193.26 165.8 193.05 167.91C191.46 166.98 191.97 164.91 191.8 163.38C191.61 158.79 191.31 154.2 191.21 149.61C191.63 147.54 191.68 145.37 192.37 143.37C193.11 141.97 193.92 140.53 194 138.91C194.34 137.22 194.42 135.45 195.03 133.83C195.37 133.16 195.7 132.49 196.03 131.82L196.03 131.82Z" /><path fill-rule="evenodd" class="shp2" d="M202.31 134.33C202.99 135.95 204.52 137.35 204.5 139.17C204.46 145 204.61 150.85 204.42 156.68C204.23 159.3 204.09 161.92 203.84 164.54C202.29 167.86 200.73 171.18 199.17 174.5C201.26 171.2 203.36 167.91 205.45 164.61C206.15 161.3 206.79 157.96 207.53 154.65C209.68 150.74 211.93 146.88 213.71 142.78C213.98 142.15 214.85 140.41 214.73 140.51C212.83 143.44 211.26 146.61 208.85 149.18C208.31 149.66 207.21 151.68 207.48 149.92C207.39 145.81 207.83 141.65 206.89 137.61C206.26 136.31 205.94 134.35 205.1 133.45C204.17 133.75 203.24 134.04 202.31 134.33L202.31 134.33Z" /><path fill-rule="evenodd" class="shp2" d="M397.11 244.32C402.08 243.7 407.08 243.31 412 242.33C413.04 242.4 414.96 241.69 415.29 243.12C415.05 244.33 413.91 245.15 413.41 246.27C413.02 247.25 412.07 248.49 411.29 247.07C410.47 245.83 409.01 245.69 407.67 245.59C404.15 245.17 400.63 244.74 397.11 244.32Z" /><path fill-rule="evenodd" class="shp2" d="M393.57 305.04C395.5 301.88 397.47 298.74 399.39 295.57C400.31 292.11 401.5 288.71 402.18 285.19C402.18 283.65 400.81 282.49 399.44 282.06C398.15 281.33 399.81 279.54 400.76 280.68C401.55 281.34 402.57 281.69 403.06 282.63C403.78 283.5 404.69 284.44 404.56 285.68C404.65 287.53 404.4 289.38 404.03 291.2C403.63 293.61 402.52 295.84 401.32 297.95C400.17 299.73 398.77 301.33 397.56 303.06C397 303.96 396.44 305.2 395.25 305.31C394.67 305.31 394.14 305.03 393.57 305.04L393.57 305.04Z" /><path fill-rule="evenodd" class="shp2" d="M409.57 300.96C414.93 297.61 420.36 294.36 425.68 290.95C429.94 286.4 434.22 281.86 437.95 276.85C439.64 275.17 440.45 272.98 441.13 270.75C442.42 267.04 443.96 263.37 444.27 259.42C444.91 254.9 445.5 250.34 447.19 246.06C448.82 241.16 449.27 235.93 449.11 230.8C451.37 232.17 450.64 235.12 450.4 237.42C450.16 243.21 448.27 248.73 447.56 254.45C446.91 259.42 445.93 264.34 444.3 269.09C443.05 272.67 441.89 276.42 439.24 279.24C434.98 284.73 431.19 290.56 426.98 296.09C421.18 297.71 415.37 299.34 409.57 300.96L409.57 300.96Z" /><path fill-rule="evenodd" class="shp2" d="M470.08 259.38C467.76 259.29 467.48 261.64 466.52 263.14C465.15 264.95 463.62 266.63 462.17 268.38C457.72 273.3 453.04 278.02 448.42 282.78C444.77 285.84 440.79 288.47 437.03 291.38C439.69 290.65 442.38 290.01 445.03 289.28C447 288.4 448.63 286.91 450.39 285.71C454.33 282.49 457.64 278.62 461.08 274.91C461.86 277.52 461.3 280.32 461.7 283C461.96 285.83 461.39 288.84 462.59 291.51C463.62 292.48 463.8 289.57 463.7 288.83C463.55 283.21 463.4 277.59 463.26 271.97C464.52 270.06 465.49 267.92 467.14 266.29C467.53 270.22 467.67 274.17 467.71 278.13C468.46 279.23 468.45 275.84 468.62 274.91C468.79 271.41 468.94 267.9 469.03 264.39C470.67 263.15 473.45 263.62 474.37 261.47C474.01 259.83 471.59 259.29 470.08 259.38Z" /><path fill-rule="evenodd" class="shp18" d="M229.77 226.27C226.73 223.25 223.5 220.41 220.58 217.26C218.92 212.63 216.43 208.13 216.4 203.08C215.44 196.25 215.18 189.34 215.53 182.46C215.42 178.79 215.7 175.06 217.18 171.66C219.33 165.57 222.86 160.04 227.12 155.21C230.41 155.21 231.01 159.6 233.44 161.22C235.59 164.46 236.28 168.38 237.72 171.95C239.45 176.52 239.11 181.47 239.55 186.25C240.02 192.57 239.17 198.86 238.74 205.15C238.3 209.72 235.95 213.79 234.17 217.93C232.81 220.77 231.31 223.54 229.77 226.27Z" /><path fill-rule="evenodd" class="shp2" d="M225.93 171.99C225.27 175.21 224.79 178.46 224.65 181.75C224.3 185.2 224.03 188.66 224.36 192.12C224.64 197.33 224.7 202.57 225.27 207.76C225.56 209.81 225.86 211.87 226.15 213.92C226.4 207.5 226.48 201.07 226.95 194.66C227.48 191.12 228.23 187.59 228.59 184.02C228.55 181.75 228.7 179.47 228.5 177.19C227.91 175.43 227.99 173.18 226.12 172.15L225.93 171.99L225.93 171.99L225.93 171.99Z" /><path fill-rule="evenodd" class="shp19" d="M239.24 252.53C233.87 249.57 228.68 245.98 222.7 244.41C218.65 243.91 214.54 242.72 210.48 243.75C206.88 243.96 203.33 244.77 200.39 246.93C196.48 249.01 192.67 251.33 189.39 254.33C188.04 255.21 184.69 257.41 188.15 257.53C192.86 258.58 197.57 259.75 201.92 261.89C210.06 265.32 217.32 270.44 224.88 274.94C227.43 276.58 230 278.22 232.97 279C236.21 279.91 239.34 281.64 242.8 281.3C245.89 280.75 249.82 281.81 252.39 280.37C248.06 271.61 244.03 262.63 239.83 253.78C239.63 253.36 239.44 252.95 239.24 252.53L239.24 252.53Z" /><path fill-rule="evenodd" class="shp2" d="M212.62 254.3C214.24 253.71 215.91 252.96 217.68 253.18C220.25 253.05 222.77 253.68 225.24 254.3C227.26 255.02 229.09 256.19 231.04 257.08C232.36 257.85 233.93 258.27 235.01 259.37C236.94 261.23 238.87 263.09 240.79 264.95C241.75 267.13 242.77 269.28 243.69 271.47C243.8 273.03 244.55 274.86 243.38 276.22C242.2 276.57 242.55 274.26 241.93 273.56C241.08 271.3 239.72 269.29 238.42 267.27C237.12 265.63 235.67 264.11 234.3 262.53C232.82 261.16 231.05 260.15 229.35 259.08C227.3 257.92 225.13 256.98 223.01 255.95C221.32 255.25 219.47 255.07 217.68 254.71C216.01 254.42 214.31 254.35 212.62 254.3L212.62 254.3Z" /><path fill-rule="evenodd" class="shp15" d="M235.69 262.74C233.99 254.76 230.9 246.89 231.63 238.58C231.47 226.5 230.7 214.37 232.45 202.36C233.43 193.19 234 183.39 239.06 175.39C243.05 170.24 246.49 164.35 252.29 160.97C253.7 159.51 257.53 156.98 254.7 160.74C250.25 168.62 246.68 177.37 246.65 186.54C246.25 191.93 246.65 197.4 247.93 202.63C249.69 207.46 252.88 211.8 253.38 217.05C255.2 224.48 257.81 231.98 256.86 239.75C256.61 255.55 256.36 271.35 256.1 287.14C249.3 279.01 242.5 270.87 235.69 262.74L235.69 262.74Z" /><path fill-rule="evenodd" class="shp2" d="M255.88 255.64C253.66 253.6 251.36 251.64 249.18 249.55C247.27 245.51 245.02 241.59 243.86 237.23C242.75 234.13 241.92 230.94 241.49 227.67C241.11 225.53 240.73 223.39 240.35 221.24C240.92 226.49 241.14 231.77 241.96 236.98C242.96 241.91 243.69 246.93 245.51 251.65C246.48 254.87 247.52 258.09 249.18 261.03C250.99 264.32 253.76 266.93 256.04 269.88C257.02 271.3 256.27 268.24 256.41 267.48C256.24 263.53 256.06 259.58 255.88 255.64L255.88 255.64Z" /><path fill-rule="evenodd" class="shp15" d="M442.04 171.76C435.89 172.72 430.29 166.97 430.49 160.95C430.48 157.99 429.88 154.74 427.29 152.93C423.23 148.99 421.48 143.48 419.52 138.35C416.13 134.55 417.2 130.06 418.75 125.8C419.83 121.44 420.16 116.89 417.27 113.18C415.38 108.78 419.08 104.45 418.45 99.9C419.95 95.92 414.12 93.97 415.72 90.35C417.5 85.93 422.25 84.78 426.26 83.06C429.66 82.2 433.19 83.4 436.35 84.59C439.54 86.89 438.18 91.2 438.44 94.53C437.73 98.66 440.45 102.65 443.96 104.58C447.87 107.19 446.14 112.18 446.49 115.99C447.84 119.79 451.05 122.94 450.35 127.33C450.24 133.2 454.15 138.69 452.7 144.64C450.89 148.35 450.79 152.49 449.91 156.45C447.76 161.22 444.89 165.66 442.69 170.43C442.47 170.87 442.26 171.32 442.04 171.76L442.04 171.76Z" /><path fill-rule="evenodd" class="shp2" d="M444.48 144.47C446.79 143.07 445.91 147.21 444.75 147.97C443.9 149.68 441.65 150.89 442.09 152.99C442.15 155.03 442.21 157.07 442.27 159.12C441.1 160.29 440.27 159.76 440.22 158.19C439.33 156.63 440.4 154.23 438.95 153.12C437.83 151.79 435.89 151.7 434.72 151.01C434.29 148.83 437.16 150.21 438.36 149.69C440.59 150.07 438.99 147.08 438.67 145.94C436.9 143.78 434.61 142.08 432.18 140.73C431.09 140.24 432.93 137.93 434.06 138.92C436.14 139.72 437.32 136.65 436.79 134.91C436.61 133.03 435.78 131.3 435.25 129.5C434.35 127.61 431.86 127.21 430.5 126.37C429.58 124.5 431.42 124.59 432.72 124.72C433.75 123.04 434.03 121.14 433.85 119.19C433.84 117.45 432.6 115.7 431.09 114.86C429.74 113.95 428.68 112.62 427.1 112.1C426.35 110.26 427.98 108.21 430.01 108.96C431.71 108.39 433.39 107.64 435.17 107.2C436.62 108.7 435.36 109.87 434.28 111.08C434.25 112.96 436.81 113.97 437.9 115.05C439.88 114.92 439.23 117.84 437.52 117.8C435.79 119.09 436.48 121.54 436.11 123.42C436.05 125.55 436.81 127.44 439.13 127.76C440.6 128.42 443.38 126.94 442.81 129.64C442.09 131.21 439.25 130.48 439.44 132.81C439.33 134.81 440.08 136.94 442.48 136.53C444.81 136.1 446.44 139.12 443.65 139.68C442.11 140.38 443.73 143.02 441.58 143.66C440.82 144.25 441.7 147.29 442.88 145.67C443.43 145.3 443.94 144.86 444.48 144.47L444.48 144.47Z" /><path fill-rule="evenodd" class="shp15" d="M449.37 154.01C452.98 148.37 457.82 143.26 459.25 136.51C459.96 132.59 460.58 128.51 459.88 124.53C457.03 121.41 454.13 118.24 454.51 113.68C454.7 109.58 460.55 106.33 456.7 101.89C453.63 97.44 455.56 92.04 459.54 88.89C463.15 86.56 464.06 83.08 464.94 79.15C465.78 74.64 471.49 75.71 473.84 72.42C476.83 70.3 477.58 65.37 482.13 66.6C486.16 65.41 490.32 68.62 490.64 72.7C490.87 76.46 489.32 80.05 488.42 83.57C487.61 87.97 494.11 88.81 493.52 93.48C493.94 97.33 491.42 100.61 489.75 103.87C489.29 108.47 490.56 113.01 490.39 117.51C491.41 123.1 483.08 124.14 484.16 130.03C483.46 134.6 477.68 133.87 475.55 137.4C472.2 140.73 475.27 147.44 470.77 149.57C465.73 152.37 462.34 157.11 458.9 161.58C455.37 164.13 453.16 169.83 448.62 169.99C443.97 171.22 440.95 165.49 442.74 161.54C443.86 158.48 447.31 156.55 449.37 154.01L449.37 154.01Z" /><path fill-rule="evenodd" class="shp2" d="M466.18 132.6C467.59 134.97 469.45 131.34 470.35 130.17C471.16 128.49 472.8 127.79 474.53 127.45C476.6 128.03 476.89 124.97 475.02 124.65C472.86 124.64 471.93 122.73 472.5 120.84C472.92 117.92 475.59 115.97 476.06 113.05C476.39 111.25 476.77 109.27 478.2 107.99C479.68 107.78 481.69 104.96 479.31 104.76C477.45 105.37 475.7 103.6 476.43 101.77C476.55 99.65 478.04 97.99 478.71 96.04C478.9 93.95 480.7 93.85 482.23 93.13C483.38 92.63 485.17 90.78 482.84 90.67C481.16 90.27 478.61 92 479.16 89.2C479.46 87.22 478.98 85.01 477.24 83.9C475.98 82.82 473 83.52 473.55 85.44C475.21 86.07 476.29 87.55 476.87 89.33C476.38 91.57 476.88 94.23 475.76 96.2C474.69 97.23 474.01 98.77 472.66 99.43C471.06 99.77 468.84 101.52 469.48 102.94C471.54 103.47 473.44 105.01 472.97 107.34C472.88 108.93 473.76 110.95 471.87 111.68C470.67 112.74 468.77 113.7 467.31 112.63C466.29 111.33 463.31 112.11 465.12 113.73C467.3 114.11 468.11 116.04 468.83 117.9C469.74 120.08 467.86 121.67 467.04 123.48C465.81 125.06 465.86 126.78 466.03 128.72C466.07 130.01 466.07 131.31 466.18 132.6L466.18 132.6Z" /><path fill-rule="evenodd" class="shp15" d="M426.51 188.63C429.84 189.99 433.45 194.73 438.15 194.94C445.75 194.17 453.37 193.48 461.02 193.88C464.98 194.05 469.04 193.7 472.93 194.24C476.98 195.33 477.26 201.33 482.5 200.49C486.87 201.77 491.5 198.97 492.74 194.72C497.24 192.52 502.71 195.39 507.37 193.23C510.54 191.04 506.27 184.76 511.38 183.78C514.89 182.98 522.18 185.24 521.85 179.53C523.42 175.08 519.08 173.61 515.67 172.43C512.01 171.12 509.08 168.27 505.25 167.33C502.14 166.89 504.96 160.55 506.86 158.97C509.78 155.84 514.92 154.68 514.67 149.53C516.15 144.23 509.67 142.61 505.72 142.92C501.74 143.79 498.67 140.47 494.75 140.68C490.24 140.13 487.44 143.84 484.51 146.53C481.47 149.02 477.22 145.9 473.9 147.91C469.22 148.81 471.75 155.91 466.64 156.15C463.35 156.99 459.17 156.47 456.66 158.99C453.2 161.73 453.8 166.69 449.36 168.71C445.1 171.1 440.83 173.54 436.27 175.31C435.34 180.69 429.65 179.5 426.46 182.16C425.18 184.27 424.65 184.95 426.51 188.63L426.51 188.63Z" /><path fill-rule="evenodd" class="shp2" d="M445.34 182.34C444.46 185.37 448.53 184.49 450.26 184.01C453.76 183.51 457.2 184.51 460.67 184.82C463.83 184.41 467.07 184.25 470.03 182.94C472.9 181.72 476.14 182.78 479.02 181.53C481.32 181.04 483.6 180.41 485.57 179.08C487.83 178.41 490.21 178.13 492.57 177.95C493.86 175.81 495.06 173.1 497.73 172.47C499.89 171.88 500.86 169.06 503.35 169.43C504.76 169.29 506.9 166.76 504.43 166.31C502.3 165.53 500.67 168.46 498.96 169.48C497.19 172.03 493.55 170.97 491.65 173.18C490.33 175.76 487.18 175.72 484.75 176.57C482.4 176.6 480.61 177.71 478.67 178.79C474.86 178.76 471 178.98 467.26 179.73C464.93 180.06 463.28 182 460.88 181.99C458.83 182.25 456.71 181.6 457.44 179.16C457.89 176.6 460.18 175.89 462.27 174.92C464.14 172.79 467.26 173.63 469.16 171.79C470.98 169.6 474.37 170.27 476.37 168.34C478.83 167.07 481.69 167.26 484.34 166.71C485.83 164.5 488.5 163.51 491.1 163.73C493.16 163.39 495.71 163.57 496.92 161.54C497.31 159.71 497.44 154.38 494.51 157.09C492.35 158.25 491.56 161.24 488.97 161.49C486 161.9 483.57 164.31 480.48 163.82C478.03 163.36 476.01 164.38 474.17 165.9C471.25 167.2 468.2 168.22 465.24 169.43C462.51 169.96 460.69 171.99 458.65 173.71C456.23 175.29 454.13 177.34 451.41 178.37C449.44 179.79 447.42 181.09 445.34 182.34L445.34 182.34Z" /><path fill-rule="evenodd" class="shp1" d="M347.12 229.73C349.25 225.2 349.66 219.34 354.28 216.5C356.66 214.22 363.42 214.72 358.94 210.49C354.1 208.24 356.04 201.35 361.12 201.79C365.98 202.27 372.58 202.17 371.01 195.32C370.02 188.87 378.42 186.43 382.84 188.53C386.19 194.95 389.78 201.31 391.57 208.4C393.35 214.85 397.19 221.17 395.88 228.06C391.34 231.07 394.32 237.82 388.35 239.78C386.4 242.26 384.57 245.28 389.15 244.19C395.36 244.25 401.19 241.65 407.34 241.1C409.93 242.22 416.5 241.97 411.94 245.43C409.39 250.24 402.71 250.66 402.41 256.87C401.71 260.13 397.97 262.77 397.02 265.07C404.29 264.56 411.51 263.4 418.67 262.05C421.73 259.04 429.96 255.75 431.59 255.78C419.54 269.06 407.5 282.34 395.45 295.62C376.94 291.86 358.42 288.09 339.91 284.33C342.31 266.13 344.72 247.93 347.12 229.73L347.12 229.73Z" /><path fill-rule="evenodd" class="shp2" d="M358.74 257.65C360.41 257.48 362.24 257.6 363.34 256.07C364.97 254.74 366.63 253.4 367.72 251.57C369.64 248.7 371.87 246.07 374.36 243.67C376.01 242.42 377.8 241.31 379.63 240.42C380.3 238.86 377.64 239.27 376.68 239.24C375.31 239.56 372.5 240.69 373.17 238.29C373.12 234.06 373.29 229.81 373.06 225.58C372.62 223.39 373.2 220.81 371.44 219.13C370.21 217.39 369.05 215.56 367.08 214.57C365.22 213.06 362.82 212.66 360.62 211.84C359.39 212.81 358.58 213.73 360.59 214.07C363.66 215.16 366.3 217.1 369.09 218.74C369.57 221.09 370.61 223.39 370.25 225.83C370.2 230.11 369.67 234.37 369.04 238.6C368.51 239.27 367.87 242.11 367.48 240.08C366.83 238.89 366.62 236.65 365.68 236.12C364.4 236.51 363.24 236.98 364.24 238.39C365.15 240.22 365 242.2 364.83 244.16C364.97 246.09 364.3 247.84 363.5 249.55C362.85 251.1 362.2 252.65 361.56 254.2C360.55 255.18 358.3 255.51 358.73 257.26L358.73 257.65L358.73 257.65L358.74 257.65Z" /><path fill-rule="evenodd" class="shp2" d="M400.31 259.22C398.72 260.16 397.16 261.14 395.56 262.05C393.66 262.35 391.79 262.79 389.88 263C388.35 263.02 386.81 263.17 385.28 263.1C384.27 262.92 383.23 262.87 382.26 262.58C381.01 261.88 379.76 261.18 378.5 260.48C378.02 260.65 376.93 260.73 377.91 261.11C379.54 262.12 381.09 263.29 382.87 264.02C384.63 264.84 386.35 265.75 388.22 266.28C389.32 266.65 390.42 267.01 391.53 267.38C392.84 267.23 394.17 267.23 395.47 266.97C396.66 266.64 397.86 266.3 399.06 265.97C399.08 264.99 398.75 263.97 399.05 263.02C399.47 261.75 399.89 260.49 400.31 259.22L400.31 259.22Z" /><path fill-rule="evenodd" class="shp20" d="M389.24 225.46C387.69 224.19 385.89 223.11 384.51 221.72C383.94 220.02 383.19 218.36 383.51 216.54C383.63 207.97 383.92 199.41 383.91 190.85C382.38 188.71 380.21 186.94 379.57 184.3C378.97 182.2 379.07 180.67 377.92 178.86C377.91 176.14 376.52 174.34 378.31 172.2C379.04 171.24 380.15 168.83 380.5 167.81C379.42 165.46 378.25 163.15 377.95 160.55C377.22 159.08 378.69 157.95 379.22 156.67C382.35 152.13 385.7 147.72 388.79 143.14C391.4 140.15 394.32 137.49 397.66 135.32C399.04 134.94 400.64 135.26 402.1 135.15C403.55 136.99 405.31 138.64 405.9 140.98C406.78 142.93 407.5 144.93 407.6 147.09C407.79 149.47 408.33 151.76 409.3 153.95C410.14 156.4 412.88 157.76 413.38 160.4C413.86 162.2 415.2 163.93 414.44 165.83C414.02 168.09 413.74 170.4 412.5 172.39C411.67 173.95 410.91 175.52 410.96 177.33C410.44 180.41 410.58 183.51 410.79 186.62C410.77 188.54 411.42 190.6 410.22 192.3C407.07 199.73 402.83 206.63 399.32 213.87C398.1 217.58 396.89 221.3 395.67 225.02C393.53 225.16 391.38 225.31 389.24 225.46L389.24 225.46Z" /><path fill-rule="evenodd" class="shp2" d="M393.45 170.88C390.87 172.17 395.72 174.04 395.11 176.12C395.7 178.43 395.17 180.84 394.84 183.15C394.16 184.76 394.12 187.83 391.83 185.83C390.14 185.85 389.09 183.15 388.22 183.15C387.47 185.02 389.96 186.06 390.74 187.52C391.93 188.93 393.13 190.33 394.34 191.73C394.95 193.86 395.46 196.02 395.23 198.25C395.38 204.66 394.93 211.07 394.56 217.47C396.94 215.97 396.23 212.96 396.77 210.59C397.6 203.94 397.71 197.24 398.48 190.58C398.7 188.4 399.3 186.14 400.81 184.48C402.58 181.78 404.83 179.47 406.99 177.09C404.92 175.92 403.84 178.86 402.32 179.77C400.7 181.32 399.11 182.92 397.67 184.63C397.24 181.39 397.01 178.07 397.35 174.81C399.18 171.47 400.63 167.89 401.44 164.16C401.73 162.6 404.83 160.41 403.16 159.2C401.79 159.3 399.49 161.95 400.12 159.16C400.57 157.89 398.88 154.19 398.04 156.77C397.55 158.39 398.05 161.31 395.67 159.56C394.13 158.03 392.31 159.85 394.04 161.1C396.71 161.82 398.05 164.73 397.72 167.31C397.42 168.81 397.37 171.78 395.39 171.74C394.75 171.45 394.1 171.17 393.45 170.88L393.45 170.88Z" /><path fill-rule="evenodd" class="shp21" d="M392.62 221.88C397.12 220.42 401.49 218.47 406.22 217.9C408.98 217.55 411.26 215.84 413.7 214.64C415.43 213.68 416.8 212.21 418.49 211.2C421.09 211.32 424.02 209.9 426.35 211.22C428.5 212.08 430.48 214.22 432.92 213.48C435.2 213.58 436.9 212.24 438.49 210.76C440.68 209.75 441.03 207.66 441.22 205.49C441.55 203.52 441.88 201.56 442.2 199.6C440.43 195.21 438.65 190.82 436.87 186.42C433.52 184.85 430.18 183.28 426.83 181.72C424.06 181.74 421.23 181.47 418.57 182.45C416.59 183.23 417.68 186.61 416.55 188.34C415.36 190.05 414.47 192.17 412.27 192.76C410.27 193.41 410.69 196.08 409.88 197.72C407.95 199.13 404.9 199.45 403.94 201.8C402.7 204.03 402.15 206.81 400.01 208.4C398.55 210.56 395.7 210.58 393.89 212.03C393.16 214.3 389.86 216.51 390.98 218.82C391.53 219.84 392.08 220.86 392.62 221.88L392.62 221.88Z" /><path fill-rule="evenodd" class="shp2" d="M403.21 203.94C405.15 203.72 407.08 203.39 409.03 203.49C410.12 203.76 410.86 202.92 411.68 202.37C412.89 201.5 414.1 200.63 415.47 200.02C416.6 199.41 417.96 199.85 419.2 199.72C420.09 199.78 420.41 198.6 421.19 198.29C422.03 197.97 422.82 197.36 423.77 197.5C425.13 197.5 426.49 197.5 427.84 197.5C427.88 198.31 427.86 199.13 427.46 199.86C427.26 201.2 425.53 200.61 424.56 201.02C423.38 201.35 422.32 202.01 421.18 202.46C420.3 202.97 419.34 203.16 418.33 203.05C417.33 202.8 416.63 203.44 415.93 204.06C415.19 204.62 414.5 205.3 413.69 205.75C411.22 206.35 408.77 207.04 406.32 207.71C404.84 207.56 403.36 207.41 401.88 207.27C402.33 206.16 402.77 205.05 403.21 203.94L403.21 203.94Z" /><path fill-rule="evenodd" class="shp15" d="M166.95 193.75C169.66 193.65 173.59 195.36 174.53 195.83C175.78 196.46 178.3 197.73 180.49 197.73C182.69 197.73 192.78 199.32 199.05 202.46C205.33 205.6 203.11 209.3 206.25 213.07C209.39 216.83 214.35 219.01 216.86 220.27C219.37 221.52 220.39 226.62 220.08 228.5C219.76 230.39 215.06 230.97 215.06 230.97C215.06 230.97 210.65 237.29 207.2 238.54C203.75 239.8 201.23 236.27 201.23 236.27C201.23 236.27 201.17 240.07 200.85 242.9C200.54 245.72 198.4 246.69 195.27 247.63C192.13 248.57 188.68 247.62 186.17 245.74C183.66 243.86 183.98 240.44 181.16 240.44C178.33 240.44 177.36 240.04 175.47 243.18C173.59 246.32 173.59 250.71 175.47 254.17C177.36 257.62 178.28 257.07 182.67 261.46C187.06 265.85 185.86 269.85 191.19 275.19C196.53 280.52 212.66 286.27 220.64 286.27C228.63 286.27 243.15 283.5 257.05 272.89C270.94 262.29 276.21 243.85 276.21 243.85C249.67 240.33 260.2 213.02 266.27 207.89C272.52 202.61 279.11 201.08 286.84 204.08C294.58 207.08 301.79 216.59 301.79 216.59C301.79 216.59 306.21 210.58 314.03 207.27C322.13 203.84 333.62 203.59 341.87 212.75C344.85 216.05 348.71 224.52 345.56 231.92C342.96 238.04 334.28 243.32 327.84 245.25C331.2 258.95 344.29 273.3 352.77 277.72C361.49 282.27 380.16 286.68 384.38 286.46C388.59 286.24 396.31 283.62 396.31 283.62C396.31 283.62 398.54 280.94 400.09 278.5C401.65 276.06 407.18 271.35 411.84 269.13C416.5 266.91 424.3 262.49 425.85 258.05C427.41 253.61 427.84 247.92 427.84 247.92C427.84 247.92 426.99 248.95 425.66 250.28C424.33 251.62 419.62 251.61 415.63 250.95C411.63 250.28 411.4 246.06 409.85 245.83C408.3 245.61 398.74 245.17 396.97 245.17C395.19 245.17 393.05 242.12 393.94 240.34C394.83 238.57 410.06 226.78 412.5 225C414.94 223.22 426.31 219.03 430.97 219.03C435.63 219.03 442.7 220.79 445.36 223.01C448.02 225.23 451.61 235.89 451.61 235.89C451.61 235.89 455.81 221.02 454.26 215.25C452.71 209.48 449.62 208.33 449.62 208.33C449.62 208.33 456.24 210.37 459.56 213.26C462.89 216.14 469.32 224.81 469.32 224.81C469.32 224.81 483.09 211.08 487.97 211.74C492.85 212.41 492.23 214.58 492.23 214.58C492.23 214.58 501.69 211.3 505.02 212.41C508.35 213.51 507.73 216.84 507.95 219.51C508.18 222.17 505.49 224.53 505.49 224.53L500.19 231.25C500.19 231.25 498.21 240.96 496.21 243.84C494.22 246.73 489.49 245.64 489.49 245.64C489.49 245.64 488.67 253.87 487.12 256.53C485.57 259.2 480.21 259.38 480.21 259.38C480.21 259.37 478.64 275.81 477.08 285.13C475.53 294.45 470.92 310.02 465.15 321.78C459.38 333.54 446.89 351.5 435.8 362.59C424.7 373.69 414.08 383.02 399.43 391C384.79 398.99 363.48 406.93 348.39 411.36C333.3 415.8 324.85 414.1 315.53 415.44C306.21 416.77 285.42 417.61 262.78 410.51C240.15 403.41 229.92 399.46 215.72 392.8C201.52 386.15 179.75 371.91 168.66 362.59C157.56 353.28 145.85 334.39 142.52 329.73C139.15 325.02 137.66 322.9 134.94 317.52C132.23 312.14 135.18 308.24 131.63 308.24C128.08 308.24 124.95 307.52 122.06 305.3C119.18 303.08 117.39 298.91 116.95 295.36C116.51 291.81 117.42 287.32 119.41 284C121.41 280.67 126.06 279.13 128.5 279.36C129.72 279.47 130.34 280.18 130.59 280.87C130.42 279.47 129.58 272.53 128.98 266.48C128.31 259.82 128.72 248.12 129.17 244.13C129.61 240.13 131.65 235.66 133.43 231.44C135.2 227.22 136.25 223.27 144.6 213.07C145.63 212.18 149.14 208.35 153.22 206.16C157.3 203.96 164.2 205.59 164.2 205.59C164.2 205.59 163.29 204.03 162.97 201.52C162.66 199 162.89 196.8 164.77 194.6C165.24 194.05 166.05 193.78 166.95 193.75ZM157.1 273.86C157.1 273.86 157.12 273.93 157.17 274.07C157.16 273.93 157.13 273.86 157.1 273.86ZM157.17 274.07C157.38 275.79 156.4 288.01 158.05 299.53C159.82 311.95 171.81 327.55 186.46 344.41C201.1 361.28 217.5 368.39 237.03 378.6C256.55 388.81 272.13 391.03 287.22 392.8C302.3 394.58 328.45 390.97 348.86 384.75C369.28 378.54 390.08 367.42 407.39 353.22C424.69 339.02 434.54 321.27 441.19 307.95C447.85 294.64 447.35 288.07 447.35 288.07C447.35 288.07 408.74 303.08 394.98 305.3C381.22 307.52 361.32 303.09 348.01 296.88C334.7 290.66 319.35 266.71 319.35 266.71C319.35 266.71 311.78 277.71 303.59 277.71C295.42 277.71 285.08 267.8 285.08 267.8C271.75 286.47 248.18 302.05 236.55 304.45C228.96 306.02 212.63 305.31 204.64 303.98C196.65 302.65 181.99 295.14 170.45 287.59C160.15 280.86 157.6 275.2 157.17 274.07Z" /><path fill-rule="evenodd" class="shp2" d="M417.73 229.18C418.55 228.67 419.2 227.79 420.16 227.58C421.01 227.57 422.09 226.71 422.68 227.6C423.4 228.19 422.51 228.95 422.43 229.63C421.99 230.37 420.93 230.23 420.22 230.59C419.31 230.91 418.34 230.53 417.41 230.53C416.62 230.24 417.24 229.43 417.73 229.18L417.73 229.18Z" /><path fill-rule="evenodd" class="shp2" d="M432.5 255.64C432.75 253.45 432.48 251.14 433.58 249.14C434.31 247.01 435.34 244.99 437.5 244.04C439.32 243.18 441.15 241.47 443.18 241.57C444.39 243.06 441.19 243.7 440.34 244.59C439.35 245.82 438.69 247.32 437.87 248.68C436.55 251.11 435.8 253.8 434.41 256.2C433.81 258.18 433.29 260.19 432.72 262.18C431.8 261.07 432.59 259.54 432.41 258.24C432.44 257.37 432.47 256.51 432.5 255.64L432.5 255.64Z" /><path fill-rule="evenodd" class="shp2" d="M455.38 256.87C456.29 253.04 457.43 249.26 457.78 245.32C458.24 242.44 458.48 239.54 458.45 236.62C458.7 235.34 457.87 233.2 459.54 232.83C460.75 234.4 460.56 236.5 461.08 238.33C461.62 240.76 461.28 243.28 461.66 245.73C463.23 245.55 465.9 248.08 463.25 248.59C461.62 249.12 460.13 249.73 460.22 251.72C459.92 253.13 458.81 255.52 461.24 254.92C463.67 254.41 463.48 257.58 461.84 258.19C459.84 259.02 458.96 261.25 457.46 262.7C456.22 263.9 454.87 265.17 453.34 265.95C452.07 266.19 449.88 267.6 450.41 265.28C451.69 263.79 452.99 262.31 453.82 260.5C454.52 259.37 454.95 258.12 455.38 256.87L455.38 256.87Z" /><path fill-rule="evenodd" class="shp2" d="M473.74 221.72C472.96 223.39 471.56 224.89 471.73 226.84C471.84 228.94 472.33 231.01 472.69 233.08C473.62 234.92 476.59 233.59 477.83 232.59C479.46 231.36 480.39 229.52 481.65 227.97C483.73 226.89 485.81 225.81 488.11 225.3C488.92 224.65 490.54 225.1 489.19 225.88C487.59 226.84 485.26 226.96 484.18 228.5C483.17 230.08 482.15 231.68 482.23 233.64C481.94 235.67 481.34 237.75 482.84 239.45C481.2 240.22 479.91 238.2 478.37 237.79C476.49 237.2 474 237.73 473.34 239.86C472.54 241.38 472.51 243.44 473.28 244.97C474.59 246.22 476 247.41 476.09 249.41C476.72 252.17 473.2 251.52 472.65 249.52C471.21 248.26 469.04 247.09 469.61 244.8C470.09 239.84 470.84 234.77 469.74 229.84C469.3 227.7 468.32 225.77 467.14 223.94C466.57 223.02 465.74 221.86 467.29 222.84C468.79 223.82 470.27 224.13 471.7 222.82C472.38 222.46 473.06 222.09 473.74 221.72L473.74 221.72Z" /><path class="shp12" d="M274.01 220.63C273.93 217.17 278.14 214.51 281.78 214.51C285.41 214.51 290.23 216.43 292.84 222.9C295.42 229.31 294.42 240.98 292.63 248.48C290.89 255.76 290.05 260.54 285.22 267.52" /><path class="shp12" d="M330.81 220.63C330.88 217.17 326.68 214.51 323.04 214.51C319.41 214.51 314.59 216.43 311.98 222.9C309.4 229.31 309.03 234.99 309.75 242.71C310.46 250.42 315.75 259.43 319.71 267.08" /><path fill-rule="evenodd" class="shp2" d="M273.13 244.82C276.68 245.19 279.16 245.01 283.04 243.57C286.87 242.16 288.52 238.89 290.5 234.56C288.11 237.8 286.34 239.9 282.86 241.36C279.36 242.82 276.08 242.48 273.25 241.99C273.21 242.62 273.17 244.19 273.13 244.82L273.13 244.82Z" /><path fill-rule="evenodd" class="shp2" d="M330.33 245.76C326.78 246.14 324.3 245.95 320.42 244.52C316.59 243.1 314.38 239.89 312.96 235.5C315.35 238.74 317.12 240.84 320.6 242.3C324.1 243.76 327.38 243.42 330.21 242.93C330.25 243.56 330.29 245.13 330.33 245.76L330.33 245.76Z" /><path fill-rule="evenodd" class="shp2" d="M206.55 238.04C206.55 238.04 199.17 231.77 197.13 230.2C195.09 228.63 193.52 228 193.52 228.63C193.52 229.26 193.84 231.45 195.25 233.02C196.66 234.59 201.05 238.67 201.05 238.67L206.55 238.04L206.55 238.04Z" /><path fill-rule="evenodd" class="shp2" d="M163.71 200.39L166.54 204.31L170.3 206.82L172.81 207.76L172.5 208.7L169.99 209.17L165.91 207.92L162.77 205.72L163.71 200.39L163.71 200.39Z" /><path fill-rule="evenodd" class="shp2" d="M187.76 208.6C188.7 209.57 189.22 211.09 190.5 211.64C191.75 212.27 192.72 211.97 193.53 213.22C194.23 213.91 195.61 216.09 196.66 214.95C197.47 214.18 198.42 211.56 197.63 210.98C196.51 209.68 193.54 210.29 192.17 209.31C191.12 208.68 189.9 208.17 189.24 207.18C188.05 206.14 187.95 207.42 187.84 208.37L187.76 208.6L187.76 208.6L187.76 208.6Z" /><path class="shp12" d="M395.89 283.7L405.54 282.04C405.43 286.48 404.88 287.59 403.88 290.47C402.4 294.75 395.56 305.12 395.56 305.12" /><path fill-rule="evenodd" class="shp2" d="M122.97 280.93C124.36 280.75 125.82 280.6 127.16 281.07C127.89 281.34 128.17 282.13 128.53 282.74C129.14 283.9 129.37 285.37 128.7 286.56C128.17 287.71 127.55 288.88 127.49 290.17C127.4 290.88 127.72 291.39 128.01 291.9C128.35 292.41 129.42 292.44 130.06 292.33C131.92 292.08 133.39 290.6 134.2 288.99C134.75 287.84 135.04 286.59 135.23 285.35C135.43 283.85 134.81 282.38 134.01 281.16C132.81 279.66 130.94 278.94 129.16 278.42C128.78 278.26 128.42 278.24 128.08 278.48C126.38 279.3 124.68 280.11 122.97 280.93L122.97 280.93Z" /><path fill-rule="evenodd" class="shp2" d="M141.38 262.97C141.38 262.97 144.32 276.24 144.32 279.36C144.32 282.36 143.42 287.51 142.42 291.95C141.45 296.28 139.62 300.48 138.07 301.7C136.64 302.83 133.38 305.33 129.17 305.78C126 306.11 123.77 305.34 122.82 304.92C124.36 305.93 133.64 311.03 136.36 309.38C137.11 308.92 137.89 308.12 138.64 307.2C139.53 311.53 140.21 314.26 141.57 316C143.13 318 144.7 319.32 144.7 319.32C144.7 319.32 142.08 315.76 141.19 312.88C140.54 310.77 140.26 307.21 140.15 305.02C141.76 302.49 143.17 299.62 143.66 297.92C144.49 294.98 145.93 289.98 145.93 284.66C145.93 279.33 145.44 277.45 144.7 274.81C143.96 272.17 141.38 262.97 141.38 262.97Z" /><path fill-rule="evenodd" class="shp2" d="M180.19 362.77C195.02 371.75 248.91 402.91 308.96 402.02C369.01 401.13 398.48 377.5 431.85 353.99C407.18 384.78 353.2 408.22 304.16 408.22C254.23 408.22 189.29 373.44 180.19 362.77L180.19 362.77Z" /><path class="shp22" d="M346.14 326.16L346.14 356.72C346.14 356.72 335.91 344.02 329.83 343.91L308.52 343.91L308.52 373.41C308.33 376.01 312.25 377.41 318.05 377.41L318.05 383.85L284.06 383.85L284.06 377.41L292.48 377.41L292.48 291.69L280.26 291.69L280.26 283.32L336 283.32C336 283.32 345.3 308.66 345.56 316.06L342.01 316.06C340.56 309.23 327.05 291.69 322.85 291.69L308.23 291.69L308.23 336.06L329.83 336.06C336.48 336.06 346.14 326.16 346.14 326.16L346.14 326.16Z" /><path fill-rule="evenodd" class="shp22" d="M326.8 301.52C333.3 301.52 344.51 308.87 344.51 321.31C344.51 333.6 332.58 341.1 313.73 341.1L346.12 371.59C347.25 365.65 350.95 364.3 354.83 364.3C358.85 364.3 362.36 366.48 362.22 370.64C362.07 374.95 354.72 381.58 346.88 381.44C339.17 381.3 337.44 380.86 334.19 377.75L294.41 341.1L283.52 341.1L283.52 371.21L295.45 371.21L295.45 377.65L255.87 377.65L255.87 371.21L268.09 371.21L268.09 307.48L255.87 307.48L255.87 301.52L326.8 301.52ZM283.24 334.66L316.86 334.66C324.25 334.4 329.07 327.92 329.07 321.12C329.07 314.32 322.85 307.06 316.86 307.48L283.24 307.48L283.24 334.66Z" /></svg>