<svg version="1.2" baseProfile="tiny-ps" xmlns="http://www.w3.org/2000/svg" viewBox="0 0 600 600" width="600" height="600">
	<title></title>
	<defs>
		<radialGradient id="grd1" gradientUnits="userSpaceOnUse"  cx="300" cy="300" r="300">
			<stop offset="0" stop-color="#ffffff"  />
			<stop offset=".1" stop-color="#e8e8e8"  />
			<stop offset=".4" stop-color="#b2b2b2"  />
			<stop offset=".7" stop-color="#8c8c8c"  />
			<stop offset=".9" stop-color="#747474"  />
			<stop offset="1" stop-color="#6b6b6b"  />
		</radialGradient>
	</defs>
	<style>
		tspan { white-space:pre }
		.s0 { fill: #000000 } 
		.s1 { fill: #e8d587 } 
		.s2 { fill: #a39041;stroke: #000000;stroke-width: 2.4 } 
		.s3 { fill: none;stroke: #000000;stroke-width: 2.4 } 
		.s4 { opacity: .3;fill: url(#grd1) } 
	</style>
	<g >
		<path class="s0" d="m300 600c-165.9 0-300-134.1-300-300c0-165.9 134.1-300 300-300c165.9 0 300 134.1 300 300c0 165.9-134.1 300-300 300z" />
		<path class="s1" d="m300 595.29c-163.3 0-295.29-132-295.29-295.29c0-163.3 132-295.29 295.29-295.29c163.3 0 295.29 132 295.29 295.29c0 163.3-132 295.29-295.29 295.29z" />
		<path class="s2" d="m300 182.24l21.06-15.18l15.29 20.94l24.71-7.88l8.12 24.59l26 0.12l0.12 26l24.59 8.12l-7.88 24.71l20.94 15.29l-15.18 21.06l15.18 21.06l-20.94 15.29l7.88 24.71l-24.59 8.12l-0.12 26l-26 0.12l-8.12 24.59l-24.71-7.88l-15.29 20.94l-21.06-15.18l-21.06 15.18l-15.29-20.94l-24.71 7.88l-8.12-24.59l-26-0.12l-0.12-26l-24.59-8.12l7.88-24.71l-20.94-15.29l15.18-21.06l-15.18-21.06l20.94-15.29l-7.88-24.71l24.59-8.12l0.12-26l26-0.12l8.12-24.59l24.71 7.88l15.29-20.94l21.06 15.18z" />
		<path class="s3" d="m300 285.88v-62.35" />
		<path class="s3" d="m300 224.71c-4.55 0-8.24-3.68-8.24-8.24c0-4.55 3.68-8.24 8.24-8.24c4.55 0 8.24 3.68 8.24 8.24c0 4.55-3.68 8.24-8.24 8.24z" />
		<path class="s3" d="m300 314.12c-7.81 0-14.12-6.31-14.12-14.12c0-7.81 6.31-14.12 14.12-14.12c7.81 0 14.12 6.31 14.12 14.12c0 7.81-6.31 14.12-14.12 14.12z" />
		<path class="s3" d="m278.82 238.82c-3.25 0-5.88-2.63-5.88-5.88c0-3.25 2.63-5.88 5.88-5.88c3.25 0 5.88 2.63 5.88 5.88c0 3.25-2.63 5.88-5.88 5.88z" />
		<path class="s0" d="m288.59 258.12l-1.06 0.47l-8.24-20.82l2.24-0.82l7.06 21.18z" />
		<path class="s3" d="m321.18 238.82c-3.25 0-5.88-2.63-5.88-5.88c0-3.25 2.63-5.88 5.88-5.88c3.25 0 5.88 2.63 5.88 5.88c0 3.25-2.63 5.88-5.88 5.88z" />
		<path class="s0" d="m318.47 236.94l2.24 0.82l-8.24 20.82l-1.06-0.47l7.06-21.18z" />
		<path class="s3" d="m286.59 295.65l-59.29-19.29" />
		<path class="s3" d="m220.59 282.47c-4.55 0-8.24-3.68-8.24-8.24c0-4.55 3.68-8.24 8.24-8.24c4.55 0 8.24 3.68 8.24 8.24c0 4.55-3.68 8.24-8.24 8.24z" />
		<path class="s3" d="m229.65 305.29c-3.25 0-5.88-2.63-5.88-5.88c0-3.25 2.63-5.88 5.88-5.88c3.25 0 5.88 2.63 5.88 5.88c0 3.25-2.63 5.88-5.88 5.88z" />
		<path class="s0" d="m256.71 297.88v1.18l-22.24 1.41l-0.12-2.35l22.35-0.24z" />
		<path class="s3" d="m242.82 265.06c-3.25 0-5.88-2.63-5.88-5.88c0-3.25 2.63-5.88 5.88-5.88c3.25 0 5.88 2.63 5.88 5.88c0 3.25-2.63 5.88-5.88 5.88z" />
		<path class="s0" d="m245.76 262.94l1.41-1.88l17.29 14.24l-0.71 0.94l-18-13.29z" />
		<path class="s3" d="m291.65 311.41l-36.59 50.47" />
		<path class="s3" d="m250.94 375.76c-4.55 0-8.24-3.68-8.24-8.24c0-4.55 3.68-8.24 8.24-8.24c4.55 0 8.24 3.68 8.24 8.24c0 4.55-3.68 8.24-8.24 8.24z" />
		<path class="s3" d="m277.76 372.59c-3.25 0-5.88-2.63-5.88-5.88c0-3.25 2.63-5.88 5.88-5.88c3.25 0 5.88 2.63 5.88 5.88c0 3.25-2.63 5.88-5.88 5.88z" />
		<path class="s0" d="m284.59 340.47l1.18 0.35l-5.65 21.65l-2.24-0.59l6.71-21.41z" />
		<path class="s3" d="m243.41 347.65c-3.25 0-5.88-2.63-5.88-5.88c0-3.25 2.63-5.88 5.88-5.88c3.25 0 5.88 2.63 5.88 5.88c0 3.25-2.63 5.88-5.88 5.88z" />
		<path class="s0" d="m248 340.12l-1.29-1.88l18.82-12l0.71 0.94l-18.24 12.94z" />
		<path class="s3" d="m308.35 311.41l36.59 50.47" />
		<path class="s3" d="m349.06 375.76c-4.55 0-8.24-3.68-8.24-8.24c0-4.55 3.68-8.24 8.24-8.24c4.55 0 8.24 3.68 8.24 8.24c0 4.55-3.68 8.24-8.24 8.24z" />
		<path class="s3" d="m356.59 347.65c-3.25 0-5.88-2.63-5.88-5.88c0-3.25 2.63-5.88 5.88-5.88c3.25 0 5.88 2.63 5.88 5.88c0 3.25-2.63 5.88-5.88 5.88z" />
		<path class="s0" d="m333.76 327.18l0.71-0.94l18.82 12l-1.29 1.88l-18.24-12.94z" />
		<path class="s3" d="m322.24 372.59c-3.25 0-5.88-2.63-5.88-5.88c0-3.25 2.63-5.88 5.88-5.88c3.25 0 5.88 2.63 5.88 5.88c0 3.25-2.63 5.88-5.88 5.88z" />
		<path class="s0" d="m322.12 361.88l-2.24 0.59l-5.65-21.65l1.18-0.35l6.71 21.41z" />
		<path class="s3" d="m313.41 295.65l59.29-19.29" />
		<path class="s3" d="m379.41 282.47c-4.55 0-8.24-3.68-8.24-8.24c0-4.55 3.68-8.24 8.24-8.24c4.55 0 8.24 3.68 8.24 8.24c0 4.55-3.68 8.24-8.24 8.24z" />
		<path class="s3" d="m357.18 265.06c-3.25 0-5.88-2.63-5.88-5.88c0-3.25 2.63-5.88 5.88-5.88c3.25 0 5.88 2.63 5.88 5.88c0 3.25-2.63 5.88-5.88 5.88z" />
		<path class="s0" d="m336.24 276.24l-0.71-0.94l17.29-14.24l1.41 1.88l-18 13.29z" />
		<path class="s3" d="m370.35 305.29c-3.25 0-5.88-2.63-5.88-5.88c0-3.25 2.63-5.88 5.88-5.88c3.25 0 5.88 2.63 5.88 5.88c0 3.25-2.63 5.88-5.88 5.88z" />
		<path class="s0" d="m365.65 298.12l-0.12 2.35l-22.24-1.41v-1.18l22.35 0.24z" />
		<path class="s3" d="m363.65 320.71l13.06 58.82l-16.59 3.29l-8.24 14.71l-51.88-30.71l-51.88 30.71l-8.24-14.71l-16.59-3.29l13.06-58.82l-45.18-40l11.53-12.35l-2-16.71l60-5.76l24-55.29l15.29 7.06l15.29-7.06l24 55.29l60 5.76l-2 16.71l11.53 12.35l-45.18 40z" />
		<path class="s2" d="m282.35 544.71h35.29v23.53h-35.29v-23.53z" />
		<path class="s2" d="m332.94 504.71h10.59l-9.41 23.53h-11.76l10.59-23.53z" />
		<path class="s2" d="m356.47 504.71h10.59l-9.41 23.53h-11.76l10.59-23.53z" />
		<path class="s2" d="m341.18 556.47l14.12 11.76l-11.76 9.41l-10.59-12.94l8.24-8.24z" />
		<path class="s2" d="m277.65 528.24h-11.76l-9.41-23.53h10.59l10.59 23.53z" />
		<path class="s2" d="m254.12 528.24h-11.76l-9.41-23.53h10.59l10.59 23.53z" />
		<path class="s2" d="m267.06 564.71l-10.59 12.94l-11.76-9.41l14.12-11.76l8.24 8.24z" />
		<path class="s3" d="m223.53 249.41l-1.88-27.76l22.35 1.29l5.76-21.65l25.53 10.47" />
		<path class="s3" d="m324.71 211.76l25.53-10.47l5.76 21.65l22.35-1.29l-1.88 27.76" />
		<path class="s3" d="m228.24 357.65l-26.94-7.41l8.12-20.82l-18.82-12.12l17.65-22" />
		<path class="s3" d="m391.76 295.29l17.65 22l-18.82 12.12l8.12 20.82l-26.94 7.41" />
		<path class="s3" d="m332.94 385.88l-15.65 23.53l-17.29-14.12l-17.29 14.12l-15.65-23.53" />
		<path class="s2" d="m94.12 496.47h36.47l8.24 8.24h-36.47l-8.24-8.24z" />
		<path class="s2" d="m172.35 447.65v36.47l-8.24-8.24v-36.47l8.24 8.24z" />
		<path class="s2" d="m160 435.88l-3.18 36.35l-7.53-8.94l3.29-36.35l7.41 8.94z" />
		<path class="s2" d="m148.82 423.18l-6.47 35.88l-6.59-9.53l6.35-35.88l6.71 9.53z" />
		<path class="s2" d="m138.71 409.41l-9.53 35.29l-5.76-10.12l9.53-35.18l5.76 10z" />
		<path class="s2" d="m129.76 394.94l-12.47 34.24l-4.94-10.59l12.59-34.24l4.82 10.59z" />
		<path class="s2" d="m122.24 379.65l-15.53 33.06l-3.88-10.94l15.41-33.06l4 10.94z" />
		<path class="s2" d="m116 363.88l-18.24 31.53l-3.06-11.29l18.35-31.53l2.94 11.29z" />
		<path class="s2" d="m111.18 347.53l-20.94 29.76l-2-11.41l20.94-29.88l2 11.53z" />
		<path class="s2" d="m107.88 330.82l-23.53 27.88l-1.06-11.53l23.53-27.88l1.06 11.53z" />
		<path class="s2" d="m106 313.88l-25.88 25.76v-11.65l25.88-25.76v11.65z" />
		<path class="s2" d="m105.53 296.94l-28 23.29l1.06-11.53l28-23.41l-1.06 11.65z" />
		<path class="s2" d="m106.59 279.88l-29.88 20.94l2-11.53l29.88-20.82l-2 11.41z" />
		<path class="s2" d="m109.18 263.06l-31.65 18.24l3.06-11.29l31.53-18.12l-2.94 11.18z" />
		<path class="s2" d="m113.18 246.59l-33.18 15.29l4-10.94l33.18-15.29l-4 10.94z" />
		<path class="s2" d="m118.59 230.47l-34.35 12.35l4.94-10.59l34.35-12.35l-4.94 10.59z" />
		<path class="s2" d="m125.29 214.82l-35.18 9.29l5.88-10l35.18-9.41l-5.88 10.12z" />
		<path class="s2" d="m133.53 199.88l-36 6.24l6.71-9.53l36-6.24l-6.71 9.53z" />
		<path class="s2" d="m137.29 186.47l-31.06 2.59l6.47-7.53l30.94-2.71l-6.35 7.65z" />
		<path class="s2" d="m140.59 174.59l-24.35-0.12l5.53-5.53l24.35 0.12l-5.53 5.53z" />
		<path class="s2" d="m143.18 164.47l-18.24-1.65l4.47-3.76l18.24 1.65l-4.47 3.76z" />
		<path class="s2" d="m77.88 477.76l36.24 3.18l7.53 8.94l-36.35-3.18l-7.41-8.94z" />
		<path class="s2" d="m63.29 457.65l35.88 6.35l6.71 9.53l-36-6.35l-6.59-9.53z" />
		<path class="s2" d="m50.47 436.35l35.18 9.41l5.88 10.12l-35.29-9.41l-5.76-10.12z" />
		<path class="s2" d="m39.53 414l34.35 12.47l4.94 10.59l-34.35-12.47l-4.94-10.59z" />
		<path class="s2" d="m30.71 390.82l33.06 15.41l4 10.94l-33.06-15.41l-4-10.94z" />
		<path class="s2" d="m23.88 366.94l31.53 18.24l3.06 11.29l-31.65-18.24l-2.94-11.29z" />
		<path class="s2" d="m19.06 342.59l29.88 20.94l2.12 11.53l-29.88-20.94l-2.12-11.53z" />
		<path class="s2" d="m16.47 317.88l28 23.53l0.94 11.53l-27.88-23.41l-1.06-11.65z" />
		<path class="s2" d="m16.12 293.06l25.76 25.88v11.65l-25.76-25.88v-11.65z" />
		<path class="s2" d="m17.76 268.35l23.53 27.88l-1.06 11.65l-23.41-28l0.94-11.53z" />
		<path class="s2" d="m21.65 243.76l20.94 29.88l-2 11.53l-20.94-29.88l2-11.53z" />
		<path class="s2" d="m27.76 219.76l18.24 31.53l-3.06 11.29l-18.24-31.65l3.06-11.18z" />
		<path class="s2" d="m35.76 196.24l15.41 33.06l-4 10.94l-15.41-33.06l4-10.94z" />
		<path class="s2" d="m45.88 173.53l12.47 34.35l-4.94 10.47l-12.47-34.24l4.94-10.59z" />
		<path class="s2" d="m58 151.88l9.41 35.18l-5.88 10.12l-9.41-35.29l5.88-10z" />
		<path class="s2" d="m74.12 135.65l6.12 34.59l-6.35 9.18l-6.12-34.59l6.35-9.18z" />
		<path class="s2" d="m90.47 130.71l2.35 27.06l-5.65 6.59l-2.35-27.06l5.65-6.59z" />
		<path class="s2" d="m102.71 128.24v19.18l-4.24 4.35v-19.18l4.24-4.35z" />
		<path class="s2" d="m228.24 538l-18.82 42.24c-9.41-2-25.88-9.76-25.88-9.76v-25.76l39.76-8.47" />
		<path class="s2" d="m376.82 536.24l39.65 8.47v25.76c0 0-16.47 7.76-25.88 9.76l-18.82-42.24" />
		<path class="s2" d="m498.82 504.71h-36.47l8.24-8.24h36.47l-8.24 8.24z" />
		<path class="s2" d="m437.06 439.41v36.47l-8.24 8.24v-36.47l8.24-8.24z" />
		<path class="s2" d="m448.59 426.94l3.29 36.35l-7.53 8.94l-3.18-36.35l7.41-8.94z" />
		<path class="s2" d="m459.06 413.65l6.35 35.88l-6.59 9.53l-6.47-35.88l6.71-9.53z" />
		<path class="s2" d="m468.24 399.41l9.53 35.18l-5.76 10.12l-9.53-35.29l5.76-10z" />
		<path class="s2" d="m476.24 384.35l12.59 34.24l-4.94 10.59l-12.47-34.24l4.82-10.59z" />
		<path class="s2" d="m482.94 368.71l15.41 33.06l-3.88 10.94l-15.53-33.06l4-10.94z" />
		<path class="s2" d="m488.12 352.59l18.35 31.53l-3.06 11.29l-18.24-31.53l2.94-11.29z" />
		<path class="s2" d="m492 336l20.94 29.88l-2 11.41l-20.94-29.76l2-11.53z" />
		<path class="s2" d="m494.35 319.29l23.53 27.88l-1.06 11.53l-23.53-27.88l1.06-11.53z" />
		<path class="s2" d="m495.18 302.24l25.88 25.76v11.65l-25.88-25.76v-11.65z" />
		<path class="s2" d="m494.59 285.29l28 23.41l1.06 11.53l-28-23.29l-1.06-11.65z" />
		<path class="s2" d="m492.59 268.47l29.88 20.82l2 11.53l-29.88-20.94l-2-11.41z" />
		<path class="s2" d="m489.06 251.88l31.53 18.12l3.06 11.29l-31.65-18.24l-2.94-11.18z" />
		<path class="s2" d="m484 235.65l33.18 15.29l4 10.94l-33.18-15.29l-4-10.94z" />
		<path class="s2" d="m477.65 219.88l34.35 12.35l4.94 10.59l-34.35-12.35l-4.94-10.59z" />
		<path class="s2" d="m470 204.71l35.18 9.41l5.88 10l-35.18-9.29l-5.88-10.12z" />
		<path class="s2" d="m460.94 190.35l36 6.24l6.71 9.53l-36-6.24l-6.71-9.53z" />
		<path class="s2" d="m457.53 178.82l30.94 2.71l6.47 7.53l-31.06-2.59l-6.35-7.65z" />
		<path class="s2" d="m455.06 169.06l24.35-0.12l5.53 5.53l-24.35 0.12l-5.53-5.53z" />
		<path class="s2" d="m453.53 160.71l18.24-1.65l4.47 3.76l-18.24 1.65l-4.47-3.76z" />
		<path class="s2" d="m515.88 486.71l-36.35 3.18l7.53-8.94l36.24-3.18l-7.41 8.94z" />
		<path class="s2" d="m531.29 467.18l-36 6.35l6.71-9.53l35.88-6.35l-6.59 9.53z" />
		<path class="s2" d="m544.94 446.47l-35.29 9.41l5.88-10.12l35.18-9.41l-5.76 10.12z" />
		<path class="s2" d="m556.71 424.59l-34.35 12.47l4.94-10.59l34.35-12.47l-4.94 10.59z" />
		<path class="s2" d="m566.47 401.76l-33.06 15.41l4-10.94l33.06-15.41l-4 10.94z" />
		<path class="s2" d="m574.35 378.24l-31.65 18.24l3.06-11.29l31.53-18.24l-2.94 11.29z" />
		<path class="s2" d="m580 354.12l-29.88 20.94l2.12-11.53l29.88-20.94l-2.12 11.53z" />
		<path class="s2" d="m583.65 329.53l-27.88 23.41l0.94-11.53l28-23.53l-1.06 11.65z" />
		<path class="s2" d="m585.06 304.71l-25.76 25.88v-11.65l25.76-25.88v11.65z" />
		<path class="s2" d="m584.35 279.88l-23.41 28l-1.06-11.65l23.53-27.88l0.94 11.53z" />
		<path class="s2" d="m581.53 255.29l-20.94 29.88l-2-11.53l20.94-29.88l2 11.53z" />
		<path class="s2" d="m576.47 230.94l-18.24 31.65l-3.06-11.29l18.24-31.53l3.06 11.18z" />
		<path class="s2" d="m569.41 207.18l-15.41 33.06l-4-10.94l15.41-33.06l4 10.94z" />
		<path class="s2" d="m560.24 184.12l-12.47 34.24l-4.94-10.47l12.47-34.35l4.94 10.59z" />
		<path class="s2" d="m549.06 161.88l-9.41 35.29l-5.88-10.12l9.41-35.18l5.88 10z" />
		<path class="s2" d="m533.41 144.82l-6.12 34.59l-6.35-9.18l6.12-34.59l6.35 9.18z" />
		<path class="s2" d="m516.35 137.29l-2.35 27.06l-5.65-6.59l2.35-27.06l5.65 6.59z" />
		<path class="s2" d="m502.71 132.59v19.18l-4.24-4.35v-19.18l4.24 4.35z" />
		<path class="s2" d="m232.94 539.41c-15.29-4-162.35-56-177.65-200.47c-15.29-144.47 65.88-201.29 72.94-207.18c7.06-5.88 3.53 0 3.53 0c-71.76 81.18-62.35 182.35-62.35 182.35c11.76 162.35 163.53 207.53 163.53 207.53" />
		<path class="s2" d="m368.24 521.65c0 0 151.76-45.18 163.53-207.53c0 0 9.41-101.18-62.35-182.35c0 0-3.53-5.88 3.53 0c7.06 5.88 88.24 62.71 72.94 207.18c-15.29 144.47-162.35 196.47-177.65 200.47" />
		<path class="s4" d="m300 600c-165.9 0-300-134.1-300-300c0-165.9 134.1-300 300-300c165.9 0 300 134.1 300 300c0 165.9-134.1 300-300 300z" />
	</g>
</svg>