<svg version="1.2" baseProfile="tiny-ps" xmlns="http://www.w3.org/2000/svg" viewBox="0 0 600 600" width="600" height="600"><title></title><style>tspan { white-space:pre }.shp0 { fill: #ffcc00;stroke: #000000;stroke-width: 4.667 } .shp1 { fill: #dd0000;stroke: #000000;stroke-width: 3.734 } .shp2 { fill: #000000 } .shp3 { fill: #ffcc00 } .shp4 { fill: #ffffff } </style><path class="shp0" d="M68.98 0L68.98 399.04C68.98 579.18 251.28 521.13 300 600C348.72 521.13 531.02 579.18 531.02 399.04L531.02 0L68.98 0Z" /><g ><path class="shp1" d="M299.07 66.18C276.01 65.62 256.32 65.81 232.89 52.55C245.21 71.22 274.24 76.26 299.35 75.7" /><path class="shp1" d="M286 24.27C264.25 5.23 230.93 15.12 252.49 53.02C266.49 41.63 278.53 54.79 283.2 66.46C274.42 71.03 261.54 73.37 248.94 72.43C265.28 83.91 284.79 81.3 301.59 72.15" /></g><g ><path class="shp2" d="M90.91 469.04L90.91 100.34L116.58 100.34L116.58 469.04L124.05 469.04L124.05 161.01L149.72 161.01L149.72 469.04L157.19 469.04L157.19 189.02L182.86 189.02L182.86 469.04L190.32 469.04L190.32 198.35L215.99 198.35L215.99 469.04L223.46 469.04L223.46 198.35L249.13 198.35L249.13 469.04" /><path class="shp3" d="M300 291.69L300 470.35L87.09 470.35" /><path class="shp1" d="M235.87 381.11L189.95 438.33L154.67 422.46L143.19 433.01L141.97 453.73L154.48 441.04L155.41 423.12L154.48 441.04L185.19 446.08L140.39 472.4L149.63 499.47L152.89 476.7L141.23 471.56L161.57 480.52L190.14 453.27L188.92 507.69L207.69 516.09L199.66 498.44L189.58 497.79L207.87 498.91L198.16 451.31L232.05 468.76L243.34 456.35L232.05 468.57L232.98 485.1L245.86 469.88L245.12 456.07L200.78 443.65L255.38 393.06" /><path class="shp2" d="M318.67 171.75C118.17 171.75 118.82 95.68 139.73 68.51C158.59 95.96 197.98 83.26 203.86 57.41C166.61 0 116.12 52.08 90.45 35.47C92.78 44.52 99.13 53.86 108.18 57.41C100.06 65.62 90.91 76.26 90.91 100.34C90.91 179.4 172.68 209.09 252.21 217.39C254.73 246.89 260.14 286.56 270.04 324.41L202.27 398.34L239.79 390.91L238.67 440.57L270.13 393.39C270.13 505.91 239.14 515.71 213.47 506.57C216.46 527.57 255.01 536.34 273.4 521.41L300 550.9" /></g><g ><path class="shp2" d="M509.09 469.04L509.09 100.34L483.42 100.34L483.42 469.04L475.95 469.04L475.95 161.01L450.28 161.01L450.28 469.04L442.81 469.04L442.81 189.02L417.14 189.02L417.14 469.04L409.68 469.04L409.68 198.35L384.01 198.35L384.01 469.04L376.54 469.04L376.54 198.35L350.87 198.35L350.87 469.04" /><path class="shp3" d="M300 291.69L300 470.35L512.91 470.35" /><path class="shp1" d="M364.13 381.11L410.05 438.33L445.33 422.46L456.81 433.01L458.03 453.73L445.52 441.04L444.59 423.12L445.52 441.04L414.81 446.08L459.61 472.4L450.37 499.47L447.11 476.7L458.77 471.56L438.43 480.52L409.86 453.27L411.08 507.69L392.31 516.09L400.34 498.44L410.42 497.79L392.13 498.91L401.84 451.31L367.95 468.76L356.66 456.35L367.95 468.57L367.02 485.1L354.14 469.88L354.88 456.07L399.22 443.65L344.62 393.06" /><path class="shp2" d="M281.33 171.75C481.83 171.75 481.18 95.68 460.27 68.51C441.41 95.96 402.02 83.26 396.14 57.41C433.39 0 483.88 52.08 509.55 35.47C507.22 44.52 500.87 53.86 491.82 57.41C499.94 65.62 509.09 76.26 509.09 100.34C509.09 179.4 427.32 209.09 347.79 217.39C345.27 246.89 339.86 286.56 329.96 324.41L397.73 398.34L360.21 390.91L361.33 440.57L329.87 393.39C329.87 505.91 360.86 515.71 386.53 506.57C383.54 527.57 344.99 536.34 326.6 521.41L300 550.9" /></g><path class="shp2" d="M250.53 183.98C250.53 116.58 287.12 119.29 283.57 79.43C283.57 74.58 296.08 76.17 295.33 70.85C293.09 56.29 268.08 23.24 280.77 13.72C293.47 4.2 327.26 42.1 354.42 30.06C348.91 38.27 342.84 42 332.67 44.99C360.3 123.21 356.47 192.47 347.88 213.94" /><path class="shp4" d="M283.83 22.65C283.02 22.22 282.13 22.64 282.32 24.19C282.96 29.4 285.12 33.22 287.33 37.1C288.15 38.52 289.17 39.41 291.08 38.02C293.65 36.13 296.01 33.9 297.86 31.3C292.65 27.3 292.09 27.07 288.19 36.44C287.73 32.64 287.91 28.6 288.73 25.29" /></svg>