<svg version="1.2" baseProfile="tiny-ps" xmlns="http://www.w3.org/2000/svg" viewBox="0 0 600 600" width="600" height="600"><title></title><style>tspan { white-space:pre }.shp0 { fill: #ffc709;stroke: #000000;stroke-width: 2.263 } .shp1 { fill: #ffc709;stroke: #000000;stroke-linejoin:round;stroke-width: 3.619 } .shp2 { fill: #ffc709;stroke: #000000;stroke-linejoin:round;stroke-width: 4.978 } .shp3 { fill: #ffc709;stroke: #000000;stroke-width: 4.978 } .shp4 { fill: #ffc709 } .shp5 { fill: #ffc709;stroke: #000000;stroke-linejoin:round;stroke-width: 5.066 } .shp6 { fill: #ffc709;stroke: #000000;stroke-linejoin:round;stroke-width: 2.147 } .shp7 { fill: #ffc709;stroke: #000000;stroke-linejoin:round;stroke-width: 2.263 } .shp8 { fill: #ffc709;stroke: #000000;stroke-linejoin:round;stroke-width: 2.12 } .shp9 { fill: #ffc709;stroke: #000000;stroke-width: 2.438 } .shp10 { fill: #ffc709;stroke: #000000;stroke-width: 2.413 } .shp11 { fill: #ffc709;stroke: #000000;stroke-linecap:round;stroke-linejoin:round;stroke-width: 1.86 } .shp12 { fill: #ffc709;stroke: #000000;stroke-linecap:round;stroke-linejoin:round;stroke-width: 1.81 } .shp13 { fill: #ffc709;stroke: #000000;stroke-linejoin:round;stroke-width: 2.18 } .shp14 { fill: #ffc709;stroke: #000000;stroke-linejoin:round;stroke-width: 2.071 } .shp15 { fill: #ffc709;stroke: #000000;stroke-linejoin:round;stroke-width: 2.082 } .shp16 { fill: #ffc709;stroke: #000000;stroke-linejoin:round;stroke-width: 1.989 } .shp17 { fill: #ffc709;stroke: #000000;stroke-linejoin:round;stroke-width: 2.044 } .shp18 { fill: #ffc709;stroke: #000000;stroke-linejoin:round;stroke-width: 1.928 } .shp19 { fill: #ffc709;stroke: #000000;stroke-linejoin:round;stroke-width: 1.99 } .shp20 { fill: #ffc709;stroke: #000000;stroke-linejoin:round;stroke-width: 2.004 } .shp21 { fill: #ffc709;stroke: #000000;stroke-linejoin:round;stroke-width: 1.885 } .shp22 { fill: #ffc709;stroke: #000000;stroke-linejoin:round;stroke-width: 1.952 } .shp23 { fill: #ffc709;stroke: #000000;stroke-linejoin:round;stroke-width: 1.959 } .shp24 { fill: #ffc709;stroke: #000000;stroke-linejoin:round;stroke-width: 1.98 } .shp25 { fill: #ffc709;stroke: #000000;stroke-linejoin:round;stroke-width: 2.43 } .shp26 { fill: #ffc709;stroke: #000000;stroke-linejoin:round;stroke-width: 2.348 } .shp27 { fill: #ffc709;stroke: #000000;stroke-linejoin:round;stroke-width: 2.501 } .shp28 { fill: #ffc709;stroke: #000000;stroke-linejoin:round;stroke-width: 2.334 } .shp29 { fill: #ffc709;stroke: #000000;stroke-linejoin:round;stroke-width: 2.345 } .shp30 { fill: #ffc709;stroke: #000000;stroke-linejoin:round;stroke-width: 2.34 } .shp31 { fill: #ffc709;stroke: #000000;stroke-linejoin:round;stroke-width: 2.328 } .shp32 { fill: #ffc709;stroke: #000000;stroke-linejoin:round;stroke-width: 2.337 } .shp33 { fill: #ffc709;stroke: #000000;stroke-linejoin:round;stroke-width: 2.377 } .shp34 { fill: #ffc709;stroke: #000000;stroke-linejoin:round;stroke-width: 2.425 } .shp35 { fill: #ffc709;stroke: #000000;stroke-linejoin:round;stroke-width: 2.428 } .shp36 { fill: #ffc709;stroke: #000000;stroke-linejoin:round;stroke-width: 2.494 } .shp37 { fill: #ffc709;stroke: #000000;stroke-linejoin:round;stroke-width: 2.655 } .shp38 { fill: #ffc709;stroke: #000000;stroke-linejoin:round;stroke-width: 2.486 } .shp39 { fill: #ffc709;stroke: #000000;stroke-linejoin:round;stroke-width: 2.499 } .shp40 { fill: #ffc709;stroke: #000000;stroke-linejoin:round;stroke-width: 2.376 } .shp41 { fill: #ffc709;stroke: #000000;stroke-linejoin:round;stroke-width: 2.394 } .shp42 { fill: #ffc709;stroke: #000000;stroke-linejoin:round;stroke-width: 2.529 } .shp43 { fill: #ffc709;stroke: #000000;stroke-linejoin:round;stroke-width: 2.695 } .shp44 { fill: #ffc709;stroke: #000000;stroke-linejoin:round;stroke-width: 2.277 } .shp45 { fill: #ffc709;stroke: #000000;stroke-linejoin:round;stroke-width: 2.344 } .shp46 { fill: #ffc709;stroke: #000000;stroke-linejoin:round;stroke-width: 2.176 } .shp47 { fill: #ffc709;stroke: #000000;stroke-linejoin:round;stroke-width: 2.065 } .shp48 { fill: #ffc709;stroke: #000000;stroke-linejoin:round;stroke-width: 2.363 } .shp49 { fill: #ffc709;stroke: #000000;stroke-linejoin:round;stroke-width: 2.388 } .shp50 { fill: #ffc709;stroke: #000000;stroke-linejoin:round;stroke-width: 2.409 } .shp51 { fill: #ffc709;stroke: #000000;stroke-linejoin:round;stroke-width: 2.462 } .shp52 { fill: #ffc709;stroke: #000000;stroke-linejoin:round;stroke-width: 2.475 } .shp53 { fill: #ffc709;stroke: #000000;stroke-linejoin:round;stroke-width: 2.42 } .shp54 { fill: #ffc709;stroke: #000000;stroke-linejoin:round;stroke-width: 2.553 } .shp55 { fill: #ffc709;stroke: #000000;stroke-linejoin:round;stroke-width: 2.395 } .shp56 { fill: #ffc709;stroke: #000000;stroke-linejoin:round;stroke-width: 2.196 } .shp57 { fill: #ffc709;stroke: #000000;stroke-linejoin:round;stroke-width: 2 } .shp58 { fill: #ffc709;stroke: #000000;stroke-linejoin:round;stroke-width: 2.069 } .shp59 { fill: #ffc709;stroke: #000000;stroke-linejoin:round;stroke-width: 2.36 } .shp60 { fill: #ffc709;stroke: #000000;stroke-linejoin:round;stroke-width: 2.557 } .shp61 { fill: #ffc709;stroke: #000000;stroke-linejoin:round;stroke-width: 1.963 } .shp62 { fill: #ffc709;stroke: #000000;stroke-linejoin:round;stroke-width: 2.002 } .shp63 { fill: #ffc709;stroke: #000000;stroke-linejoin:round;stroke-width: 2.406 } .shp64 { fill: #ffc709;stroke: #000000;stroke-linejoin:round;stroke-width: 2.517 } .shp65 { fill: #ffc709;stroke: #000000;stroke-linejoin:round;stroke-width: 2.049 } .shp66 { fill: #ffc709;stroke: #000000;stroke-linejoin:round;stroke-width: 2.012 } .shp67 { fill: #ffc709;stroke: #000000;stroke-linejoin:round;stroke-width: 2.383 } .shp68 { fill: #ffc709;stroke: #000000;stroke-linejoin:round;stroke-width: 2.482 } .shp69 { fill: #ffc709;stroke: #000000;stroke-linejoin:round;stroke-width: 2.415 } .shp70 { fill: #ffc709;stroke: #000000;stroke-linejoin:round;stroke-width: 2.038 } .shp71 { fill: #ffc709;stroke: #000000;stroke-linejoin:round;stroke-width: 2.163 } .shp72 { fill: #ffc709;stroke: #000000;stroke-linejoin:round;stroke-width: 2.39 } .shp73 { fill: #ffc709;stroke: #000000;stroke-linejoin:round;stroke-width: 2.387 } .shp74 { fill: #ffc709;stroke: #000000;stroke-linejoin:round;stroke-width: 2.046 } .shp75 { fill: #ffc709;stroke: #000000;stroke-linejoin:round;stroke-width: 2.027 } .shp76 { fill: #ffc709;stroke: #000000;stroke-linejoin:round;stroke-width: 2.013 } .shp77 { fill: #000000;stroke: #000000;stroke-width: 1.131 } .shp78 { fill: #dd0000 } .shp79 { opacity: 0.749;fill: none;stroke: #ffc709;stroke-linecap:round;stroke-width: 1.81 } .shp80 { opacity: 0.749;fill: none;stroke: #ffc709;stroke-width: 1.81 } .shp81 { opacity: 0.749;fill: none;stroke: #ffc709;stroke-width: 1.131 } </style><g ><g ><path fill-rule="evenodd" class="shp0" d="M310.18 549.79L246.65 579.84L239.93 574.8L299.57 546.67L310.18 549.79Z" /><path fill-rule="evenodd" class="shp0" d="M316.9 554.83L253.37 584.88L246.66 579.84L306.29 551.71L316.9 554.83Z" /><path fill-rule="evenodd" class="shp0" d="M323.62 559.85L260.09 589.89L253.37 584.85L313.01 556.72L323.62 559.85Z" /><path fill-rule="evenodd" class="shp0" d="M330.32 564.88L266.79 594.92L260.07 589.89L319.71 561.76L330.32 564.88Z" /><path fill-rule="evenodd" class="shp0" d="M337.03 569.91L273.5 599.95L266.79 594.91L326.42 566.79L337.03 569.91Z" /><path fill-rule="evenodd" class="shp0" d="M289.1 549.76L352.64 579.8L359.35 574.76L299.71 546.63L289.1 549.76Z" /><path fill-rule="evenodd" class="shp0" d="M282.31 554.81L345.84 584.85L352.55 579.81L292.92 551.68L282.31 554.81Z" /><path fill-rule="evenodd" class="shp0" d="M275.51 559.86L339.04 589.91L345.75 584.87L286.12 556.74L275.51 559.86Z" /><path fill-rule="evenodd" class="shp0" d="M268.78 564.87L332.31 594.91L339.03 589.87L279.39 561.74L268.78 564.87Z" /><path fill-rule="evenodd" class="shp0" d="M262.1 569.85L325.63 599.89L332.34 594.85L272.7 566.73L262.1 569.85Z" /></g><g ><path class="shp1" d="M302.76 124.18L212.44 129.04L212.44 153.15L212.44 158.15L212.44 182.26L302.76 187.11L312.55 187.11L387.86 176.05L387.86 158.15L387.86 153.15L387.86 135.25L312.55 124.18L302.76 124.18Z" /><path class="shp2" d="M276.13 222.82C276.13 218.45 279.68 214.91 284.05 214.91L315.19 214.91C319.56 214.91 323.1 218.45 323.1 222.82L323.1 473.05C323.1 477.42 319.56 480.96 315.19 480.96L284.05 480.96C279.68 480.96 276.13 477.42 276.13 473.05L276.13 222.82Z" /><path class="shp3" d="M198.58 300.04C225.27 327.61 262.64 344.78 304.01 344.78C333.59 344.78 361.11 335.99 384.16 320.92L402.95 348.69C374.54 367.4 340.55 378.31 304.01 378.31C253.3 378.31 207.49 357.31 174.71 323.58L198.58 300.04Z" /><path fill-rule="evenodd" class="shp3" d="M282.75 181.07L153.39 420.09L299.83 231.05L446.29 420.09L316.94 181.07L299.84 205.08L282.75 181.07Z" /><path class="shp1" d="M302.65 126.23L239.58 129.25L213.39 139.77L213.39 171.52L239.24 182.04L302.65 185.41L312.32 185.41L386.74 174.49L386.74 158.17L386.74 153.47L386.74 136.63L312.32 126.23L302.65 126.23Z" /><path class="shp4" d="M302.65 126.23L238.85 129.98L215.93 140.86L216.66 170.43L239.24 180.59L302.65 185.41L312.32 185.41L386.74 174.49L386.74 158.17L386.74 153.47L386.74 136.63L312.32 126.23L302.65 126.23Z" /><path class="shp5" d="M278.1 195.47C278.1 183.59 287.73 173.96 299.6 173.96L299.6 173.96C311.48 173.96 321.1 183.59 321.1 195.47L321.1 196.54C321.1 208.41 311.48 218.04 299.6 218.04L299.6 218.04C287.73 218.04 278.1 208.41 278.1 196.54L278.1 195.47Z" /><path class="shp6" d="M308.74 195.64C308.74 198.06 307.78 200.38 306.07 202.09C304.37 203.8 302.05 204.76 299.63 204.76C297.21 204.76 294.9 203.8 293.19 202.09C291.48 200.38 290.52 198.06 290.52 195.64C290.52 193.22 291.48 190.9 293.19 189.19C294.9 187.48 297.21 186.52 299.63 186.52C302.05 186.52 304.37 187.48 306.07 189.19C307.78 190.9 308.74 193.22 308.74 195.64L308.74 195.64Z" /></g><g ><path fill-rule="evenodd" class="shp4" d="M132.4 517.14L51.1 426.2L19.2 312.1L30.56 206.74L82.57 105.75L162.99 43.67L211.07 25.74L224.62 45.42L248.22 52.41L234.67 63.78L232.92 93.07L150.75 146.84L100.93 229.91L96.12 323.47L121.03 404.78L216.31 495.72L132.4 517.14Z" /><g ><path fill-rule="evenodd" class="shp7" d="M31.82 386.14C31.82 386.14 35.35 396.53 43.51 408.94C52.53 421.83 58.85 421.06 58.85 421.06C58.85 421.06 68.54 422.49 69.65 414.93C69.91 407.39 64.72 404.85 64.72 404.68C64.72 404.85 59.03 400.78 51.75 397.8C45.45 393.94 45.85 394.01 42.12 389.2C39.73 383.67 40.54 387.55 34.39 365.83C28.24 344.11 25.58 331.99 25.41 331.99L17.69 333.78L25.78 365.44L28.6 376.22L31.82 386.14Z" /><path fill-rule="evenodd" class="shp7" d="M27.47 312.02L44.28 368.29C44.28 368.29 46.27 374.4 47.49 380.66C47.55 388.16 46.22 391.15 46.22 391.15C46.05 391.15 45.42 395.14 45.06 399.23C44.92 404.84 47.42 408.65 47.41 408.48C47.42 408.65 49.33 411.41 54.83 411.72C61.16 411.33 61.95 406.77 61.95 406.77C61.95 406.77 62.91 406.28 62.42 399.96C61.93 393.64 58.41 383.8 58.41 383.8L34.39 307.86L27.47 312.02Z" /><path fill-rule="evenodd" class="shp7" d="M17.17 298.21L31.94 355.05C31.94 355.05 33.71 361.22 34.7 367.52C34.49 375.02 33.05 377.96 33.05 377.96C32.88 377.96 32.11 381.92 31.6 385.99C31.26 391.59 33.62 395.49 33.62 395.32C33.62 395.49 35.43 398.32 40.92 398.83C47.25 398.66 48.21 394.14 48.21 394.14C48.21 394.14 49.19 393.68 48.93 387.35C48.66 381.01 45.5 371.06 45.5 371.06L24.23 294.3L17.17 298.21Z" /><path fill-rule="evenodd" class="shp7" d="M22.36 381.66C22.36 381.66 25.76 392.09 33.76 404.61C42.61 417.62 48.94 416.92 48.94 416.92C48.94 416.92 58.6 418.48 59.81 410.93C60.17 403.4 55.02 400.79 55.02 400.62C55.02 400.79 49.38 396.65 42.14 393.58C35.9 389.63 36.29 389.71 32.63 384.85C30.31 379.29 31.07 383.18 25.2 361.38C19.34 339.58 16.83 327.43 16.66 327.43L8.91 329.11L16.59 360.87L19.28 371.7L22.36 381.66Z" /><path fill-rule="evenodd" class="shp8" d="M51.88 347.95C51.88 347.95 54.7 358.32 61.56 370.84C69.17 383.86 74.78 383.3 74.78 383.3C74.78 383.3 83.32 385.04 84.52 377.6C84.97 370.17 80.46 367.49 80.46 367.32C80.46 367.49 75.54 363.29 69.18 360.11C63.72 356.1 64.07 356.18 60.91 351.31C58.96 345.77 59.56 349.63 54.75 327.99C49.95 306.34 47.94 294.29 47.79 294.29L40.9 295.8L47.14 327.31L49.32 338.05L51.88 347.95Z" /><path fill-rule="evenodd" class="shp7" d="M59.92 349.3C59.92 349.3 63.11 359.8 70.86 372.47C79.45 385.66 85.79 385.09 85.79 385.09C85.79 385.09 95.42 386.84 96.78 379.32C97.29 371.79 92.19 369.08 92.19 368.91C92.19 369.08 86.64 364.83 79.45 361.61C73.29 357.55 73.69 357.63 70.12 352.7C67.91 347.09 68.59 351 63.16 329.08C57.74 307.17 55.47 294.97 55.3 294.97L47.52 296.5L54.57 328.41L57.04 339.28L59.92 349.3Z" /><path fill-rule="evenodd" class="shp7" d="M51.55 290.53L66.33 347.36C66.33 347.36 68.1 353.54 69.08 359.84C68.88 367.33 67.44 370.28 67.44 370.28C67.27 370.28 66.5 374.24 65.99 378.31C65.65 383.91 68.01 387.81 68.01 387.64C68.01 387.81 69.82 390.64 75.3 391.15C81.64 390.98 82.6 386.45 82.6 386.45C82.6 386.45 83.58 386 83.31 379.67C83.05 373.33 79.88 363.37 79.88 363.37L58.62 286.62L51.55 290.53Z" /><path fill-rule="evenodd" class="shp7" d="M79.29 308L97.5 363.83C97.5 363.83 99.64 369.89 101 376.12C101.25 383.61 100 386.63 100 386.63C99.83 386.64 99.3 390.64 99.04 394.74C99.04 400.35 101.63 404.1 101.62 403.93C101.63 404.1 103.61 406.82 109.12 406.99C115.43 406.43 116.11 401.86 116.11 401.86C116.11 401.86 117.06 401.35 116.41 395.04C115.77 388.73 112 378.99 112 378.99L86.1 303.67L79.29 308Z" /><path fill-rule="evenodd" class="shp7" d="M89 381.7C89 381.7 92.51 392.1 100.63 404.53C109.62 417.45 115.93 416.69 115.93 416.69C115.93 416.69 125.62 418.15 126.75 410.59C127.03 403.05 121.85 400.5 121.85 400.33C121.85 400.5 116.17 396.41 108.89 393.42C102.61 389.54 103.01 389.61 99.3 384.79C96.92 379.26 97.72 383.14 91.63 361.4C85.54 339.66 82.91 327.53 82.74 327.54L75.01 329.3L83.01 360.98L85.81 371.77L89 381.7Z" /><path fill-rule="evenodd" class="shp7" d="M48.28 362.43C48.28 362.43 51.47 372.92 59.21 385.6C67.8 398.78 74.14 398.21 74.14 398.21C74.14 398.21 83.77 399.97 85.13 392.44C85.64 384.92 80.55 382.2 80.55 382.03C80.55 382.2 74.99 377.95 67.81 374.74C61.65 370.67 62.04 370.75 58.47 365.83C56.27 360.22 56.95 364.12 51.52 342.21C46.09 320.29 43.82 308.09 43.65 308.09L35.88 309.62L42.92 341.53L45.39 352.4L48.28 362.43Z" /><path fill-rule="evenodd" class="shp7" d="M39.62 356.38C39.62 356.38 42.81 366.88 50.56 379.55C59.15 392.74 65.49 392.17 65.49 392.17C65.49 392.17 75.12 393.92 76.48 386.4C76.99 378.87 71.89 376.16 71.89 375.99C71.89 376.16 66.33 371.91 59.15 368.69C52.99 364.63 53.39 364.71 49.82 359.78C47.61 354.17 48.29 358.08 42.86 336.16C37.43 314.25 35.17 302.05 35 302.05L27.22 303.58L34.27 335.49L36.73 346.36L39.62 356.38Z" /><path fill-rule="evenodd" class="shp7" d="M60.68 295.9L75.46 352.74C75.46 352.74 77.23 358.91 78.21 365.22C78.01 372.71 76.57 375.65 76.57 375.65C76.4 375.65 75.63 379.61 75.12 383.68C74.78 389.29 77.14 393.19 77.14 393.02C77.14 393.19 78.95 396.02 84.43 396.52C90.77 396.35 91.73 391.83 91.73 391.83C91.73 391.83 92.71 391.38 92.44 385.04C92.18 378.7 89.01 368.75 89.01 368.75L67.75 291.99L60.68 295.9Z" /><path fill-rule="evenodd" class="shp7" d="M98.86 384.51C98.86 384.51 102.82 394.74 111.48 406.8C121.03 419.31 127.3 418.28 127.3 418.28C127.3 418.28 137.04 419.31 137.84 411.71C137.79 404.16 132.51 401.84 132.49 401.67C132.51 401.84 126.65 398.01 119.25 395.34C112.8 391.74 113.2 391.79 109.28 387.14C106.66 381.71 107.63 385.56 100.59 364.11C93.55 342.65 90.39 330.65 90.22 330.67L82.58 332.77L91.97 364.07L95.23 374.73L98.86 384.51Z" /><path fill-rule="evenodd" class="shp7" d="M90.15 319.13L110.45 373.41C110.45 373.41 112.82 379.29 114.42 385.4C114.95 392.86 113.81 395.98 113.81 395.98C113.65 396 113.27 400.04 113.16 404.15C113.38 409.75 116.11 413.29 116.09 413.12C116.11 413.29 118.19 415.84 123.69 415.57C129.98 414.51 130.48 409.88 130.48 409.88C130.48 409.88 131.41 403.86 129.68 397.96C128.28 390.52 114.98 366.14 109.71 349.66L97.97 313.75L90.15 319.13Z" /></g><g ><path fill-rule="evenodd" class="shp0" d="M81.86 110.65C81.86 110.65 74.23 119.28 63.69 136.8C53.49 153.97 53.06 154.67 48.31 167.57C44.91 180.13 44.88 184.37 47.23 191.39C50.27 197.04 53.23 198.23 56 198.35C58.76 198.46 60.18 197.7 62.22 194.57C66.29 185.33 61.16 180.7 59.62 173C58.08 165.31 58.72 171.22 58.71 165.52C59.56 157.96 61.94 155.98 62.95 153.94C64.48 151.05 65.56 148.87 74.1 136.13C82.97 122.54 87.22 115.07 87.22 115.07C87.22 115.07 88.15 112.04 86.1 110.55C84.14 109.12 81.86 110.65 81.86 110.65Z" /><path fill-rule="evenodd" class="shp0" d="M76.18 107.93C76.18 107.93 68.56 116.57 58.02 134.08C47.82 151.26 47.39 151.96 42.63 164.86C39.24 177.41 39.21 181.66 41.56 188.67C44.59 194.33 47.56 195.52 50.33 195.63C53.09 195.74 54.51 194.98 56.55 191.86C60.62 182.62 55.49 177.98 53.95 170.29C52.41 162.59 53.04 168.51 53.04 162.81C53.89 155.24 56.26 153.26 57.28 151.22C58.81 148.33 59.89 146.16 68.42 133.42C77.3 119.83 81.55 112.36 81.55 112.36C81.55 112.36 82.48 109.32 80.43 107.83C78.46 106.4 76.18 107.93 76.18 107.93Z" /><path fill-rule="evenodd" class="shp0" d="M123.4 94.24C123.4 94.24 114.72 101.81 102 117.81C89.66 133.52 89.14 134.16 82.75 146.33C77.75 158.34 77.17 162.54 78.59 169.8C80.87 175.8 83.66 177.37 86.38 177.84C89.11 178.31 90.62 177.74 93.04 174.91C98.28 166.27 93.79 161.01 93.26 153.18C92.73 145.35 92.6 151.3 93.33 145.65C95.15 138.26 97.77 136.6 99.04 134.71C100.93 132.04 102.28 130.03 112.4 118.5C122.97 106.18 128.14 99.33 128.14 99.33C128.14 99.33 129.47 96.43 127.63 94.69C125.86 93.02 123.4 94.24 123.4 94.24Z" /><path fill-rule="evenodd" class="shp0" d="M96.73 94.26C96.73 94.26 83.15 116.47 78.24 124.97C72.25 134.32 66.78 147.53 61.57 154.54C55.28 161.19 49 162.29 44.59 166.54C39.54 171.06 38.61 173.26 38.37 177.07C38.5 182.2 43.53 185.91 48.58 184.25C53.61 183.62 59.18 175.55 59.18 175.55C59.18 175.55 66.37 161.91 71.34 152.52C82.12 130.25 103.72 97.42 103.72 97.42L96.73 94.26Z" /><path fill-rule="evenodd" class="shp0" d="M69.18 108.17C69.18 108.17 61.55 116.8 51.01 134.32C40.81 151.49 40.38 152.19 35.62 165.09C32.23 177.65 32.2 181.89 34.55 188.91C37.58 194.56 40.55 195.75 43.32 195.87C46.08 195.98 47.5 195.22 49.54 192.1C53.61 182.86 48.48 178.22 46.94 170.52C45.4 162.83 46.03 168.74 46.03 163.04C46.88 155.48 49.25 153.5 50.27 151.46C51.8 148.57 52.88 146.4 61.41 133.65C70.29 120.06 74.54 112.59 74.54 112.59C74.54 112.59 75.47 109.56 73.42 108.07C71.45 106.64 69.18 108.17 69.18 108.17Z" /><path fill-rule="evenodd" class="shp0" d="M138.44 97.25C138.44 97.25 121.77 117.23 115.66 124.92C108.37 133.29 101.03 145.57 94.85 151.74C87.65 157.39 81.28 157.56 76.3 161.13C70.64 164.86 69.4 166.9 68.61 170.63C67.99 175.72 72.42 180.13 77.66 179.23C82.73 179.34 89.42 172.17 89.42 172.17C89.42 172.17 98.53 159.73 104.81 151.17C118.73 130.72 144.89 101.39 144.89 101.39L138.44 97.25Z" /><path fill-rule="evenodd" class="shp0" d="M128.88 98.71C128.88 98.71 120.29 106.39 107.78 122.55C95.64 138.42 95.13 139.06 88.9 151.32C84.06 163.39 83.53 167.6 85.05 174.84C87.4 180.81 90.21 182.34 92.94 182.78C95.67 183.22 97.17 182.63 99.56 179.76C104.68 171.06 100.13 165.85 99.5 158.03C98.87 150.21 98.81 156.16 99.47 150.5C101.2 143.08 103.79 141.39 105.04 139.49C106.9 136.8 108.22 134.77 118.19 123.11C128.59 110.65 133.68 103.73 133.68 103.73C133.68 103.73 134.97 100.82 133.1 99.11C131.32 97.46 128.88 98.71 128.88 98.71Z" /><path fill-rule="evenodd" class="shp0" d="M144.8 100.15C144.8 100.15 128.13 120.13 122.02 127.82C114.73 136.2 107.39 148.47 101.21 154.64C94.01 160.3 87.64 160.46 82.66 164.03C77 167.76 75.76 169.8 74.97 173.53C74.35 178.63 78.78 183.04 84.02 182.13C89.09 182.24 95.78 175.07 95.78 175.07C95.78 175.07 104.89 162.63 111.17 154.07C125.09 133.62 151.25 104.29 151.25 104.29L144.8 100.15Z" /><path fill-rule="evenodd" class="shp0" d="M115.1 90.64C115.1 90.64 106.48 98.29 93.9 114.4C81.7 130.21 81.19 130.86 74.91 143.08C70.02 155.14 69.48 159.35 70.97 166.59C73.29 172.58 76.09 174.12 78.82 174.56C81.56 175.01 83.06 174.43 85.45 171.57C90.61 162.89 86.08 157.67 85.48 149.84C84.88 142.02 84.8 147.97 85.49 142.31C87.24 134.9 89.84 133.22 91.1 131.32C92.97 128.64 94.3 126.61 104.31 115C114.77 102.58 119.89 95.68 119.89 95.68C119.89 95.68 121.18 92.78 119.33 91.05C117.55 89.4 115.1 90.64 115.1 90.64Z" /><path fill-rule="evenodd" class="shp0" d="M146.63 109.36C146.63 109.36 129.95 129.34 123.85 137.03C116.56 145.41 109.22 157.68 103.04 163.85C95.84 169.51 89.47 169.67 84.49 173.24C78.83 176.97 77.59 179.01 76.8 182.74C76.18 187.84 80.61 192.25 85.85 191.34C90.92 191.46 97.61 184.28 97.61 184.28C97.61 184.28 106.71 171.84 112.99 163.28C126.92 142.83 153.08 113.5 153.08 113.5L146.63 109.36Z" /><path fill-rule="evenodd" class="shp9" d="M141.54 125.57C141.54 125.57 124.16 147.22 117.82 155.55C110.2 164.64 102.73 177.82 96.22 184.55C88.56 190.79 81.52 191.24 76.21 195.19C70.15 199.35 68.88 201.54 68.2 205.49C67.78 210.85 72.91 215.28 78.66 214.1C84.27 214 91.29 206.19 91.29 206.19C91.29 206.19 100.7 192.76 107.2 183.52C121.52 161.49 148.9 129.62 148.9 129.62L141.54 125.57Z" /><path fill-rule="evenodd" class="shp0" d="M146.8 143.42C146.8 143.42 144.39 146.33 124.04 172.46C105.43 201.07 102.6 206.46 102.6 206.46C102.6 206.46 99.6 211.98 96.57 213.64C93.53 215.3 88.36 215.11 86.81 213.93C85.33 212.8 84.5 212.62 83.99 207.1C84.56 203.84 85.5 202.54 86.86 201.32C89.61 199.24 91.02 198.89 94.4 197.81C97.74 196.08 99.03 194.41 101.3 191.31C105.8 184.22 107.81 180.75 115.37 170.41C125.17 156.75 132.88 148.43 141.83 137.72L146.8 143.42Z" /><path fill-rule="evenodd" class="shp10" d="M147.72 138.51C147.72 138.51 131.81 160.41 126.05 168.81C119.04 178.02 112.53 191.11 106.46 198C99.17 204.52 92.03 205.48 86.93 209.64C81.1 214.05 80 216.22 79.64 220.03C79.66 225.16 85.28 228.98 91.04 227.42C96.76 226.9 103.27 218.95 103.27 218.95C103.27 218.95 111.74 205.48 117.58 196.2C130.32 174.17 155.57 141.81 155.57 141.81L147.72 138.51Z" /><path fill-rule="evenodd" class="shp0" d="M160.21 146.23C160.21 146.23 157.96 149.25 138.98 176.41C121.87 205.94 119.33 211.46 119.33 211.46C119.33 211.46 116.62 217.14 113.68 218.95C110.73 220.76 105.56 220.84 103.94 219.74C102.41 218.69 101.57 218.55 100.78 213.06C101.17 209.78 102.05 208.44 103.34 207.15C105.99 204.92 107.37 204.5 110.69 203.25C113.94 201.35 115.14 199.61 117.25 196.4C121.38 189.09 123.21 185.52 130.22 174.81C139.3 160.66 146.57 151.94 154.96 140.79L160.21 146.23Z" /></g><g ><path class="shp11" d="M269.87 0.21C243.8 2.96 218.72 9.09 195.11 18.19L197.13 22.23C220.71 13.18 245.48 7.27 270.59 4.6C272.78 4.36 272.3 -0.02 269.87 0.21Z" /><path class="shp12" d="M284.95 7.18C261 8.43 241.7 12.08 221.75 17.91C214 20.13 206.35 22.71 198.82 25.6L200.87 29.7C227.89 19.42 256.48 13.33 285.34 11.69C288 11.4 287.63 7.23 284.95 7.18Z" /><path class="shp12" d="M273.86 16.3C249.51 18.78 225.46 24.38 202.56 33.05L204.28 36.49C226.83 28 250.52 22.52 274.49 20.06C276.71 19.9 276.26 16.1 273.86 16.3Z" /><path class="shp12" d="M205.63 39.2L207.67 43.26C239.87 31.54 268.57 27.05 293.24 26.32C295.8 26.16 295.81 21.99 292.9 21.84C264.88 22.81 232.64 29.07 205.63 39.2Z" /><path class="shp12" d="M279.84 30.66C258.38 32.44 234.25 37.48 209.37 46.66L211.45 50.81C232.84 42.89 261.51 36.53 280.62 35.12C283.27 34.73 282.65 30.45 279.84 30.66Z" /><path class="shp12" d="M213.48 54.86L215.51 58.91C237.29 50.92 273.05 43.34 293.82 43.69C296.06 43.52 295.87 39.33 293.62 39.16C267.58 39.14 240.36 45.11 213.48 54.86Z" /><path class="shp12" d="M277.46 48.82C257.05 51.16 236.87 55.91 217.54 62.97L219.57 67.01C237.77 60.44 257.86 55.37 277.98 53.36C280.96 52.94 280.55 48.63 277.46 48.82Z" /><path class="shp12" d="M221.58 71.04L223.62 75.09C241.44 68.7 269.61 62.74 288.77 61.74C291.56 61.42 291.19 57.22 288.39 57.15C265.95 58 241.5 64.05 221.58 71.04Z" /><path class="shp12" d="M290.41 66.92C273.8 67.05 244.68 73.17 225.99 79.83L228.03 83.89C245.89 77.57 275.32 71.75 290.63 71.39C293.71 71.36 293.64 66.96 290.41 66.92Z" /><path class="shp12" d="M276.24 77.43C260.66 79.65 245.26 83.39 230.39 88.62L232.42 92.66C246.61 87.52 262.43 83.72 277.18 81.79C280.02 81.19 279.34 76.82 276.24 77.43Z" /><path class="shp12" d="M289.83 84.88C272.67 85.49 250.26 90.54 234.17 96.17L236.21 100.23C251.2 95.06 272.61 90.03 289.9 89.4C293.04 89.23 292.77 84.69 289.83 84.88Z" /><path fill-rule="evenodd" class="shp13" d="M258.32 72.54C258.32 72.54 222.4 64.95 224.63 85.07C233.91 101.67 258.32 72.54 258.32 72.54Z" /><path fill-rule="evenodd" class="shp14" d="M250.56 95.55C250.56 95.55 221.43 114.42 216.33 95.85C218.72 78.02 250.56 95.55 250.56 95.55Z" /><path fill-rule="evenodd" class="shp15" d="M228.52 71.04C228.52 71.04 194.88 79.3 205.25 95.9C220.1 106.51 228.52 71.04 228.52 71.04Z" /><path fill-rule="evenodd" class="shp16" d="M229.17 105.17C229.17 105.17 200.32 121.65 196.82 103.28C200.33 86.1 229.17 105.17 229.17 105.17Z" /><path fill-rule="evenodd" class="shp17" d="M206.47 78.37C206.47 78.37 174.54 90.4 186.65 105.27C202.45 113.8 206.47 78.37 206.47 78.37Z" /><path fill-rule="evenodd" class="shp18" d="M211 114.27C211 114.27 183.66 131 180.64 112.65C184.19 95.43 211 114.27 211 114.27Z" /><path fill-rule="evenodd" class="shp19" d="M185.51 87.85C185.51 87.85 156.95 105.4 171.8 116.87C188.92 121.69 185.51 87.85 185.51 87.85Z" /><path fill-rule="evenodd" class="shp20" d="M196.58 121.82C196.58 121.82 170.46 143.01 164.13 125.3C164.95 107.61 196.58 121.82 196.58 121.82Z" /><path fill-rule="evenodd" class="shp21" d="M181.25 131.65C181.25 131.65 159.27 154.34 151.21 138.64C149.86 122.13 181.25 131.65 181.25 131.65Z" /><path fill-rule="evenodd" class="shp22" d="M168.17 101.09C168.17 101.09 140.31 118.61 155.09 129.62C172.01 134.11 168.17 101.09 168.17 101.09Z" /><path fill-rule="evenodd" class="shp23" d="M150.9 113.1C150.9 113.1 125.55 133.92 141.55 143.27C158.85 145.82 150.9 113.1 150.9 113.1Z" /><path fill-rule="evenodd" class="shp24" d="M166.52 144.65C166.52 144.65 144.53 169.21 136.35 151.88C134.92 133.76 166.52 144.65 166.52 144.65Z" /><path fill-rule="evenodd" class="shp25" d="M231.18 18.62C231.18 18.62 191.85 11.06 194.89 33.94C205.49 52.59 231.18 18.62 231.18 18.62Z" /><path fill-rule="evenodd" class="shp26" d="M198.58 16.22C198.58 16.22 162.45 31.92 177.4 48.1C196.2 56.82 198.58 16.22 198.58 16.22Z" /><path fill-rule="evenodd" class="shp27" d="M177.93 25.43C177.93 25.43 140.94 44.1 157.21 61C177.17 69.64 177.93 25.43 177.93 25.43Z" /><path fill-rule="evenodd" class="shp25" d="M156.54 35.91C156.54 35.91 122.12 56.82 139.07 72.01C158.99 78.9 156.54 35.91 156.54 35.91Z" /><path fill-rule="evenodd" class="shp28" d="M134.27 49.83C134.27 49.83 103.67 73.93 122.39 85.65C142.81 89.28 134.27 49.83 134.27 49.83Z" /><path fill-rule="evenodd" class="shp29" d="M117.36 62.14C117.36 62.14 87.69 87.67 106.66 98.89C127.07 101.84 117.36 62.14 117.36 62.14Z" /><path fill-rule="evenodd" class="shp30" d="M101.25 73.82C101.25 73.82 71.38 98.96 90.25 110.32C110.64 113.45 101.25 73.82 101.25 73.82Z" /><path fill-rule="evenodd" class="shp31" d="M84.43 88.62C84.43 88.62 58.16 117.26 78.1 126.17C98.53 126.74 84.43 88.62 84.43 88.62Z" /><path fill-rule="evenodd" class="shp32" d="M267.65 43.37C267.65 43.37 244.72 75.02 232.15 56.99C227.64 36.85 267.65 43.37 267.65 43.37Z" /><path fill-rule="evenodd" class="shp33" d="M249.89 27.79C249.89 27.79 211.89 27.63 218.58 49.72C231.62 66.2 249.89 27.79 249.89 27.79Z" /><path fill-rule="evenodd" class="shp34" d="M248.42 65.16C248.42 65.16 212.55 83.87 208.99 61.37C213.93 40.64 248.42 65.16 248.42 65.16Z" /><path fill-rule="evenodd" class="shp35" d="M223.99 30.54C223.99 30.54 184.5 40.64 196.99 59.62C214.67 71.63 223.99 30.54 223.99 30.54Z" /><path fill-rule="evenodd" class="shp36" d="M223.53 72.98C223.53 72.98 187.62 93.13 183.71 69.6C188.4 47.8 223.53 72.98 223.53 72.98Z" /><path fill-rule="evenodd" class="shp32" d="M200.96 84.59C200.96 84.59 167.27 104.04 163.02 82.4C167 62.16 200.96 84.59 200.96 84.59Z" /><path fill-rule="evenodd" class="shp37" d="M198.68 37.31C198.68 37.31 157.55 53.04 173.13 72.55C193.45 83.75 198.68 37.31 198.68 37.31Z" /><path fill-rule="evenodd" class="shp38" d="M170.89 52.02C170.89 52.02 134.79 73 152.69 88.04C173.68 94.8 170.89 52.02 170.89 52.02Z" /><path fill-rule="evenodd" class="shp28" d="M180.71 94.89C180.71 94.89 149.98 118.37 143.54 96.96C145.26 76.03 180.71 94.89 180.71 94.89Z" /><path fill-rule="evenodd" class="shp39" d="M147.3 65.44C147.3 65.44 113.49 90.01 132.81 103.4C154.37 108.17 147.3 65.44 147.3 65.44Z" /><path fill-rule="evenodd" class="shp40" d="M127.26 78.83C127.26 78.83 96.81 104.33 116.02 115.79C136.79 118.93 127.26 78.83 127.26 78.83Z" /><path fill-rule="evenodd" class="shp41" d="M162.53 106.92C162.53 106.92 133.9 134.82 124 114.72C122.69 93.83 162.53 106.92 162.53 106.92Z" /></g><g ><path fill-rule="evenodd" class="shp42" d="M64.28 463.07C64.28 463.07 91.56 494.19 105.55 475.37C110.19 454.74 64.28 463.07 64.28 463.07Z" /><path fill-rule="evenodd" class="shp43" d="M77.59 480.52C77.59 480.52 107.57 514.03 120.27 492.23C123.37 468.89 77.59 480.52 77.59 480.52Z" /><path fill-rule="evenodd" class="shp44" d="M97.26 498.23C97.26 498.23 123.62 525.6 133.51 506.66C135.3 486.75 97.26 498.23 97.26 498.23Z" /><path fill-rule="evenodd" class="shp44" d="M119.94 430.08C119.94 430.08 145.31 458.37 125.71 466.86C105.73 467.19 119.94 430.08 119.94 430.08Z" /><path fill-rule="evenodd" class="shp40" d="M99.04 461.79C99.04 461.79 118.32 496.59 133.22 479.98C140.24 460.24 99.04 461.79 99.04 461.79Z" /><path fill-rule="evenodd" class="shp44" d="M133 455.16C133 455.16 156.26 485.2 168.14 467.44C172.05 447.84 133 455.16 133 455.16Z" /><path fill-rule="evenodd" class="shp45" d="M133.08 446.37C133.08 446.37 161.52 473.23 142.27 483.76C121.91 485.91 133.08 446.37 133.08 446.37Z" /><path fill-rule="evenodd" class="shp33" d="M113.53 484.52C113.53 484.52 139.71 514.29 151.07 495.15C153.98 474.59 113.53 484.52 113.53 484.52Z" /><path fill-rule="evenodd" class="shp46" d="M165.18 432.37C165.18 432.37 192.84 456.61 176.21 467.46C157.95 470.41 165.18 432.37 165.18 432.37Z" /><path fill-rule="evenodd" class="shp46" d="M148.47 467.7C148.47 467.7 172.59 494.85 182.77 477.16C185.25 458.23 148.47 467.7 148.47 467.7Z" /><path fill-rule="evenodd" class="shp47" d="M181.93 445.19C181.93 445.19 207.68 467.97 190.63 477.48C172.47 479.73 181.93 445.19 181.93 445.19Z" /><path fill-rule="evenodd" class="shp44" d="M160.28 481.25C160.28 481.25 189.13 505.99 197.17 486.2C197.06 466.21 160.28 481.25 160.28 481.25Z" /><path fill-rule="evenodd" class="shp48" d="M148.68 462.82C148.68 462.82 180.49 486.17 162.35 498.94C142.09 503.5 148.68 462.82 148.68 462.82Z" /><path fill-rule="evenodd" class="shp44" d="M166.95 478.26C166.95 478.26 197.27 501.17 179.65 513.26C160.1 517.41 166.95 478.26 166.95 478.26Z" /><path fill-rule="evenodd" class="shp44" d="M198.14 461.34C198.14 461.34 224.84 488.37 205.67 497.8C185.73 499.09 198.14 461.34 198.14 461.34Z" /></g><g ><path fill-rule="evenodd" class="shp49" d="M29.27 179.58C29.27 179.58 15.84 216.76 38.47 217.19C58.17 209.63 29.27 179.58 29.27 179.58Z" /><path fill-rule="evenodd" class="shp50" d="M21.47 201.68C21.47 201.68 10.88 240.02 33.69 238.8C52.93 229.76 21.47 201.68 21.47 201.68Z" /><path fill-rule="evenodd" class="shp51" d="M15.15 224.02C15.15 224.02 6.61 262.34 30.63 259.81C50.34 249.8 15.15 224.02 15.15 224.02Z" /><path fill-rule="evenodd" class="shp52" d="M11.26 246.41C11.26 246.41 6.77 288.14 29.11 283.12C46.7 270.53 11.26 246.41 11.26 246.41Z" /><path fill-rule="evenodd" class="shp53" d="M8.91 269.47C8.91 269.47 5.93 309.3 28.19 303.76C45.41 291.19 8.91 269.47 8.91 269.47Z" /><path fill-rule="evenodd" class="shp54" d="M69.26 159.01C69.26 159.01 42.33 191.63 65.73 199.25C88.87 198.01 69.26 159.01 69.26 159.01Z" /><path fill-rule="evenodd" class="shp55" d="M94.38 187.55C94.38 187.55 81.91 225.4 63.79 212.06C52.94 194.09 94.38 187.55 94.38 187.55Z" /><path fill-rule="evenodd" class="shp35" d="M52.18 183.74C52.18 183.74 33.54 219.4 56.36 222.74C77.32 217.66 52.18 183.74 52.18 183.74Z" /><path fill-rule="evenodd" class="shp56" d="M94.42 194.45C94.42 194.45 71.84 223.86 92.41 228.78C112.52 226.21 94.42 194.45 94.42 194.45Z" /><path fill-rule="evenodd" class="shp57" d="M117.76 216.24C117.76 216.24 108.22 249.15 93.48 237.79C84.53 222.35 117.76 216.24 117.76 216.24Z" /><path fill-rule="evenodd" class="shp58" d="M83.02 214.99C83.02 214.99 68.35 247.45 87.33 248.74C104.59 242.82 83.02 214.99 83.02 214.99Z" /><path fill-rule="evenodd" class="shp59" d="M86.83 209C86.83 209 76.28 247.14 58.04 234.67C46.68 217.3 86.83 209 86.83 209Z" /><path fill-rule="evenodd" class="shp60" d="M40.76 208.86C40.76 208.86 28.62 249.45 52.81 248.58C73.4 239.33 40.76 208.86 40.76 208.86Z" /><path fill-rule="evenodd" class="shp61" d="M111.46 234.17C111.46 234.17 105.23 266.04 89.01 257.08C78.26 243.65 111.46 234.17 111.46 234.17Z" /><path fill-rule="evenodd" class="shp62" d="M77.37 236.87C77.37 236.87 65 267.51 84.41 267.58C101.48 261.13 77.37 236.87 77.37 236.87Z" /><path fill-rule="evenodd" class="shp63" d="M79.23 229C79.23 229 75.26 268.85 54.59 259.63C40.04 244.31 79.23 229 79.23 229Z" /><path fill-rule="evenodd" class="shp64" d="M33.15 233.3C33.15 233.3 26.13 276.18 48.66 272.57C66.94 260.79 33.15 233.3 33.15 233.3Z" /><path fill-rule="evenodd" class="shp65" d="M107.84 250.36C107.84 250.36 103.38 285.28 86.65 276.56C75.12 262.66 107.84 250.36 107.84 250.36Z" /><path fill-rule="evenodd" class="shp66" d="M73.24 258.39C73.24 258.39 64.07 290.51 83.25 288.95C99.48 280.97 73.24 258.39 73.24 258.39Z" /><path fill-rule="evenodd" class="shp67" d="M74.52 251.91C74.52 251.91 73.32 291.72 52.37 284C37.02 269.8 74.52 251.91 74.52 251.91Z" /><path fill-rule="evenodd" class="shp68" d="M29.15 259.82C29.15 259.82 28.45 302.12 50.2 294.97C66.55 280.68 29.15 259.82 29.15 259.82Z" /><path fill-rule="evenodd" class="shp69" d="M6.63 290.47C6.63 290.47 7.64 330.97 28.85 323.21C44.43 308.84 6.63 290.47 6.63 290.47Z" /><path fill-rule="evenodd" class="shp70" d="M104.07 269.3C104.07 269.3 105.09 302.95 86.59 297.61C72.6 286.51 104.07 269.3 104.07 269.3Z" /><path fill-rule="evenodd" class="shp71" d="M69.08 281.5C69.08 281.5 64.94 316.64 85.31 311.61C101.36 300.41 69.08 281.5 69.08 281.5Z" /><path fill-rule="evenodd" class="shp72" d="M73.04 272.8C73.04 272.8 74.94 313.15 53.63 307.06C37.35 293.97 73.04 272.8 73.04 272.8Z" /><path fill-rule="evenodd" class="shp73" d="M26.39 284.17C26.39 284.17 29.53 324.54 49.81 315.62C64.24 300.41 26.39 284.17 26.39 284.17Z" /><path fill-rule="evenodd" class="shp74" d="M103.19 288.3C103.19 288.3 107.85 322.06 88.93 318.38C73.84 308.48 103.19 288.3 103.19 288.3Z" /><path fill-rule="evenodd" class="shp75" d="M69.97 302.77C69.97 302.77 68.4 337.92 86.01 331.64C99.45 319.5 69.97 302.77 69.97 302.77Z" /><path fill-rule="evenodd" class="shp76" d="M104.26 307.05C104.26 307.05 109.65 339.6 90.49 335.55C75.07 325.63 104.26 307.05 104.26 307.05Z" /><path fill-rule="evenodd" class="shp44" d="M6.82 314.32C6.82 314.32 12.42 351.91 31.46 342.23C44.46 327.05 6.82 314.32 6.82 314.32Z" /></g><g ><path fill-rule="evenodd" class="shp77" d="M79.2 392.57C79.2 392.57 57.93 392.83 43.75 388.34C25.13 383.24 17.71 366.03 17.71 366.03C17.71 366.03 14.98 369.97 15.15 375.58C15.32 380.68 18.96 392.44 28.1 404.9C37.58 420.24 44.04 438.33 51.68 450.21C57.8 460.9 70.7 470.58 70.7 470.58C70.7 470.58 111.78 465.67 115.75 464.82C121.04 464.01 157.33 455.64 165.48 455.19C173.62 454.74 192.12 455.92 192.12 455.92C192.12 455.92 185.61 443.93 182.46 441.61C176.18 436.41 168.58 434.28 160.72 426.68C156.43 421.96 149.19 413.61 145.12 409.08C140.03 404.22 136.18 399.43 130.64 396.31C126.11 393.36 79.2 392.57 79.2 392.57Z" /><path fill-rule="evenodd" class="shp4" d="M172.03 435.6C172.03 435.6 156.93 435.98 149.67 436.91C141.63 438.18 124.37 440.27 110.51 441.69C98.05 443.07 87.5 443.87 73.45 444.02L47.92 442.85C48.74 444.36 51.01 448.45 53.27 451.69C55.99 455.85 58.12 458.62 63.09 463.25C67.17 467.11 69.68 469.12 70.85 470.01C73.91 469.67 93.22 467.36 101.02 466.28C113.84 465.03 120.35 463.31 135.12 460.18C142.84 458.61 160.74 454.84 165.39 454.58C170.64 454.16 189.31 455.14 191.27 455.31C190.04 453.29 188.57 450.87 186.53 447.42C183.63 442.53 181.39 441.27 177.32 438.55C175.71 437.5 172.16 435.65 172.03 435.6Z" /><path fill-rule="evenodd" class="shp78" d="M32.74 411.8C33.93 414.01 37.07 420.34 39.87 426C43.45 433.75 45.43 437.98 48.04 443.07C53.73 443.49 59.29 443.65 73.45 444.11C87.51 443.96 98.05 443.15 110.5 441.78C124.36 440.37 141.64 438.29 149.67 437.02C156.94 436.1 172.26 435.73 172.26 435.73C172.26 435.73 165.46 431.61 162.29 428.9C158.36 425.25 156.55 422.64 153.35 419.27C149.19 418.93 143.39 418.9 137.06 418.45C125.97 417.82 108.92 418.98 99.42 418.98C89.92 418.98 73.86 418.66 60.31 417.08C41.92 415.76 37.5 412.74 32.74 411.8Z" /><path class="shp79" d="M17.43 369.85C20.24 374.21 23.08 378.65 27.61 382.35C35.3 387.84 37.29 388.93 52.15 392.42C65.54 394.54 68.55 393.95 86.4 394.5C103.8 395.04 108.82 395.44 120.08 396.35C125.52 396.79 127.34 397.25 129.68 397.63" /></g></g><g ><path fill-rule="evenodd" class="shp4" d="M467.6 517.14L548.9 426.2L580.8 312.1L569.44 206.74L517.43 105.75L437.01 43.67L388.93 25.74L375.38 45.42L351.78 52.41L365.33 63.78L367.08 93.07L449.25 146.84L499.07 229.91L503.88 323.47L478.97 404.78L383.69 495.72L467.6 517.14Z" /><g ><path fill-rule="evenodd" class="shp7" d="M568.18 386.14C568.18 386.14 564.65 396.53 556.49 408.94C547.47 421.83 541.15 421.06 541.15 421.06C541.15 421.06 531.46 422.49 530.35 414.93C530.09 407.39 535.27 404.85 535.28 404.68C535.27 404.85 540.97 400.78 548.25 397.8C554.55 393.94 554.15 394.01 557.88 389.2C560.27 383.67 559.46 387.55 565.61 365.83C571.76 344.11 574.42 331.99 574.59 331.99L582.31 333.78L574.22 365.44L571.4 376.22L568.18 386.14Z" /><path fill-rule="evenodd" class="shp7" d="M572.53 312.02L555.72 368.29C555.72 368.29 553.72 374.4 552.51 380.66C552.45 388.16 553.78 391.15 553.78 391.15C553.95 391.15 554.58 395.14 554.94 399.23C555.08 404.84 552.58 408.65 552.59 408.48C552.58 408.65 550.67 411.41 545.17 411.72C538.84 411.33 538.05 406.77 538.05 406.77C538.05 406.77 537.09 406.28 537.58 399.96C538.07 393.64 541.59 383.8 541.59 383.8L565.61 307.86L572.53 312.02Z" /><path fill-rule="evenodd" class="shp7" d="M582.83 298.21L568.06 355.05C568.06 355.05 566.29 361.22 565.3 367.52C565.51 375.02 566.95 377.96 566.95 377.96C567.12 377.96 567.89 381.92 568.4 385.99C568.74 391.59 566.38 395.49 566.38 395.32C566.38 395.49 564.57 398.32 559.08 398.83C552.75 398.66 551.79 394.14 551.79 394.14C551.79 394.14 550.81 393.68 551.07 387.35C551.34 381.01 554.5 371.06 554.5 371.06L575.77 294.3L582.83 298.21Z" /><path fill-rule="evenodd" class="shp7" d="M577.64 381.66C577.64 381.66 574.24 392.09 566.24 404.61C557.39 417.62 551.06 416.92 551.06 416.92C551.06 416.92 541.39 418.48 540.19 410.93C539.83 403.4 544.98 400.79 544.98 400.62C544.98 400.79 550.62 396.65 557.86 393.58C564.1 389.63 563.71 389.71 567.37 384.85C569.69 379.29 568.93 383.18 574.8 361.38C580.66 339.58 583.17 327.43 583.34 327.43L591.09 329.11L583.41 360.87L580.72 371.7L577.64 381.66Z" /><path fill-rule="evenodd" class="shp8" d="M548.12 347.95C548.12 347.95 545.3 358.32 538.44 370.84C530.83 383.86 525.22 383.3 525.22 383.3C525.22 383.3 516.68 385.04 515.48 377.6C515.02 370.17 519.54 367.49 519.54 367.32C519.54 367.49 524.46 363.29 530.82 360.11C536.28 356.1 535.93 356.18 539.09 351.31C541.04 345.77 540.44 349.63 545.25 327.99C550.05 306.34 552.06 294.29 552.21 294.29L559.1 295.8L552.86 327.31L550.68 338.05L548.12 347.95Z" /><path fill-rule="evenodd" class="shp7" d="M540.08 349.3C540.08 349.3 536.89 359.8 529.14 372.47C520.55 385.66 514.21 385.09 514.21 385.09C514.21 385.09 504.58 386.84 503.22 379.32C502.71 371.79 507.81 369.08 507.81 368.91C507.81 369.08 513.36 364.83 520.54 361.61C526.71 357.55 526.31 357.63 529.88 352.7C532.09 347.09 531.41 351 536.83 329.08C542.26 307.17 544.53 294.97 544.7 294.97L552.48 296.5L545.43 328.41L542.96 339.28L540.08 349.3Z" /><path fill-rule="evenodd" class="shp7" d="M548.45 290.53L533.67 347.36C533.67 347.36 531.9 353.54 530.92 359.84C531.12 367.33 532.56 370.28 532.56 370.28C532.73 370.28 533.5 374.24 534.01 378.31C534.35 383.91 531.99 387.81 531.99 387.64C531.99 387.81 530.18 390.64 524.7 391.15C518.36 390.98 517.4 386.45 517.4 386.45C517.4 386.45 516.42 386 516.69 379.67C516.95 373.33 520.12 363.37 520.12 363.37L541.38 286.62L548.45 290.53Z" /><path fill-rule="evenodd" class="shp7" d="M520.71 308L502.5 363.83C502.5 363.83 500.36 369.89 499 376.12C498.75 383.61 500 386.63 500 386.63C500.17 386.64 500.7 390.64 500.96 394.74C500.96 400.35 498.37 404.1 498.38 403.93C498.37 404.1 496.39 406.82 490.88 406.99C484.57 406.43 483.89 401.86 483.89 401.86C483.89 401.86 482.94 401.35 483.58 395.04C484.23 388.73 488 378.99 488 378.99L513.9 303.67L520.71 308Z" /><path fill-rule="evenodd" class="shp7" d="M511 381.7C511 381.7 507.49 392.1 499.37 404.53C490.38 417.45 484.07 416.69 484.07 416.69C484.07 416.69 474.38 418.15 473.25 410.59C472.97 403.05 478.15 400.5 478.15 400.33C478.15 400.5 483.83 396.41 491.11 393.42C497.39 389.54 496.99 389.61 500.7 384.79C503.08 379.26 502.28 383.14 508.37 361.4C514.46 339.66 517.09 327.53 517.26 327.54L524.99 329.3L516.99 360.98L514.19 371.77L511 381.7Z" /><path fill-rule="evenodd" class="shp7" d="M551.72 362.43C551.72 362.43 548.53 372.92 540.79 385.6C532.2 398.78 525.86 398.21 525.86 398.21C525.86 398.21 516.23 399.97 514.87 392.44C514.36 384.92 519.45 382.2 519.45 382.03C519.45 382.2 525.01 377.95 532.19 374.74C538.35 370.67 537.96 370.75 541.52 365.83C543.73 360.22 543.05 364.12 548.48 342.21C553.91 320.29 556.17 308.09 556.34 308.09L564.12 309.62L557.08 341.53L554.61 352.4L551.72 362.43Z" /><path fill-rule="evenodd" class="shp7" d="M560.38 356.38C560.38 356.38 557.19 366.88 549.44 379.55C540.85 392.74 534.51 392.17 534.51 392.17C534.51 392.17 524.88 393.92 523.52 386.4C523.01 378.87 528.11 376.16 528.11 375.99C528.11 376.16 533.66 371.91 540.85 368.69C547.01 364.63 546.61 364.71 550.18 359.78C552.39 354.17 551.71 358.08 557.14 336.16C562.56 314.25 564.83 302.05 565 302.05L572.78 303.58L565.73 335.49L563.27 346.36L560.38 356.38Z" /><path fill-rule="evenodd" class="shp7" d="M539.32 295.9L524.54 352.74C524.54 352.74 522.77 358.91 521.79 365.22C521.99 372.71 523.43 375.65 523.43 375.65C523.6 375.65 524.37 379.61 524.88 383.68C525.22 389.29 522.86 393.19 522.86 393.02C522.86 393.19 521.05 396.02 515.57 396.52C509.23 396.35 508.27 391.83 508.27 391.83C508.27 391.83 507.29 391.38 507.56 385.04C507.82 378.7 510.99 368.75 510.99 368.75L532.25 291.99L539.32 295.9Z" /><path fill-rule="evenodd" class="shp7" d="M501.14 384.51C501.14 384.51 497.18 394.74 488.52 406.8C478.97 419.31 472.7 418.28 472.7 418.28C472.7 418.28 462.96 419.31 462.16 411.71C462.21 404.16 467.49 401.84 467.51 401.67C467.49 401.84 473.35 398.01 480.75 395.34C487.2 391.74 486.8 391.79 490.72 387.14C493.34 381.71 492.37 385.56 499.41 364.11C506.45 342.65 509.61 330.65 509.78 330.67L517.42 332.77L508.03 364.07L504.77 374.73L501.14 384.51Z" /><path fill-rule="evenodd" class="shp7" d="M509.85 319.13L489.55 373.41C489.55 373.41 487.18 379.29 485.58 385.4C485.05 392.86 486.18 395.98 486.18 395.98C486.35 396 486.73 400.04 486.83 404.15C486.62 409.75 483.89 413.29 483.91 413.12C483.89 413.29 481.81 415.84 476.31 415.57C470.02 414.51 469.51 409.88 469.51 409.88C469.51 409.88 468.59 403.86 470.32 397.96C471.72 390.52 485.02 366.14 490.29 349.66L502.02 313.75L509.85 319.13Z" /></g><g ><path fill-rule="evenodd" class="shp0" d="M518.14 110.65C518.14 110.65 525.77 119.28 536.31 136.8C546.51 153.97 546.94 154.67 551.69 167.57C555.09 180.13 555.12 184.37 552.77 191.39C549.73 197.04 546.77 198.23 544 198.35C541.23 198.46 539.81 197.7 537.78 194.57C533.71 185.33 538.84 180.7 540.38 173C541.92 165.31 541.28 171.22 541.29 165.52C540.44 157.96 538.06 155.98 537.04 153.94C535.52 151.05 534.44 148.87 525.9 136.13C517.03 122.54 512.78 115.07 512.78 115.07C512.78 115.07 511.85 112.04 513.9 110.55C515.86 109.12 518.14 110.65 518.14 110.65Z" /><path fill-rule="evenodd" class="shp0" d="M523.81 107.93C523.81 107.93 531.44 116.57 541.98 134.08C552.18 151.26 552.61 151.96 557.36 164.86C560.76 177.41 560.79 181.66 558.44 188.67C555.41 194.33 552.44 195.52 549.67 195.63C546.91 195.74 545.49 194.98 543.45 191.86C539.38 182.62 544.51 177.98 546.05 170.29C547.59 162.59 546.96 168.51 546.96 162.81C546.11 155.24 543.74 153.26 542.72 151.22C541.19 148.33 540.11 146.16 531.57 133.42C522.7 119.83 518.45 112.36 518.45 112.36C518.45 112.36 517.52 109.32 519.57 107.83C521.53 106.4 523.81 107.93 523.81 107.93Z" /><path fill-rule="evenodd" class="shp0" d="M476.6 94.24C476.6 94.24 485.28 101.81 498 117.81C510.34 133.52 510.86 134.16 517.25 146.33C522.24 158.34 522.83 162.54 521.4 169.8C519.13 175.8 516.34 177.37 513.62 177.84C510.89 178.31 509.38 177.74 506.96 174.91C501.72 166.27 506.21 161.01 506.74 153.18C507.27 145.35 507.4 151.3 506.67 145.65C504.84 138.26 502.23 136.6 500.96 134.71C499.07 132.04 497.72 130.03 487.6 118.5C477.03 106.18 471.86 99.33 471.86 99.33C471.86 99.33 470.53 96.43 472.37 94.69C474.14 93.02 476.6 94.24 476.6 94.24Z" /><path fill-rule="evenodd" class="shp0" d="M503.27 94.26C503.27 94.26 516.84 116.47 521.76 124.97C527.74 134.32 533.22 147.53 538.43 154.54C544.72 161.19 551 162.29 555.41 166.54C560.46 171.06 561.39 173.26 561.63 177.07C561.5 182.2 556.47 185.91 551.42 184.25C546.39 183.62 540.81 175.55 540.81 175.55C540.81 175.55 533.63 161.91 528.66 152.52C517.88 130.25 496.28 97.42 496.28 97.42L503.27 94.26Z" /><path fill-rule="evenodd" class="shp0" d="M530.82 108.17C530.82 108.17 538.45 116.8 548.99 134.32C559.19 151.49 559.62 152.19 564.37 165.09C567.77 177.65 567.8 181.89 565.45 188.91C562.42 194.56 559.45 195.75 556.68 195.87C553.92 195.98 552.5 195.22 550.46 192.1C546.39 182.86 551.52 178.22 553.06 170.52C554.6 162.83 553.97 168.74 553.97 163.04C553.12 155.48 550.75 153.5 549.73 151.46C548.2 148.57 547.12 146.4 538.58 133.65C529.71 120.06 525.46 112.59 525.46 112.59C525.46 112.59 524.53 109.56 526.58 108.07C528.54 106.64 530.82 108.17 530.82 108.17Z" /><path fill-rule="evenodd" class="shp0" d="M461.56 97.25C461.56 97.25 478.23 117.23 484.33 124.92C491.62 133.29 498.97 145.57 505.15 151.74C512.35 157.39 518.72 157.56 523.7 161.13C529.36 164.86 530.6 166.9 531.39 170.63C532.01 175.72 527.58 180.13 522.34 179.23C517.27 179.34 510.58 172.17 510.58 172.17C510.58 172.17 501.47 159.73 495.19 151.17C481.27 130.72 455.11 101.39 455.11 101.39L461.56 97.25Z" /><path fill-rule="evenodd" class="shp0" d="M471.12 98.71C471.12 98.71 479.71 106.39 492.22 122.55C504.36 138.42 504.87 139.06 511.1 151.32C515.94 163.39 516.47 167.6 514.95 174.84C512.6 180.81 509.79 182.34 507.06 182.78C504.33 183.22 502.83 182.63 500.44 179.76C495.32 171.06 499.87 165.85 500.5 158.03C501.13 150.21 501.19 156.16 500.53 150.5C498.8 143.08 496.21 141.39 494.96 139.49C493.1 136.8 491.78 134.77 481.81 123.11C471.41 110.65 466.32 103.73 466.32 103.73C466.32 103.73 465.03 100.82 466.89 99.11C468.68 97.46 471.12 98.71 471.12 98.71Z" /><path fill-rule="evenodd" class="shp0" d="M455.2 100.15C455.2 100.15 471.87 120.13 477.97 127.82C485.27 136.2 492.61 148.47 498.79 154.64C505.99 160.3 512.36 160.46 517.34 164.03C523 167.76 524.24 169.8 525.03 173.53C525.65 178.63 521.22 183.04 515.98 182.13C510.91 182.24 504.22 175.07 504.22 175.07C504.22 175.07 495.11 162.63 488.83 154.07C474.91 133.62 448.75 104.29 448.75 104.29L455.2 100.15Z" /><path fill-rule="evenodd" class="shp0" d="M484.9 90.64C484.9 90.64 493.52 98.29 506.1 114.4C518.3 130.21 518.81 130.86 525.09 143.08C529.98 155.14 530.52 159.35 529.03 166.59C526.71 172.58 523.91 174.12 521.17 174.56C518.44 175.01 516.94 174.43 514.54 171.57C509.38 162.89 513.92 157.67 514.52 149.84C515.11 142.02 515.2 147.97 514.51 142.31C512.76 134.9 510.16 133.22 508.9 131.32C507.03 128.64 505.7 126.61 495.69 115C485.23 102.58 480.11 95.68 480.11 95.68C480.11 95.68 478.82 92.78 480.67 91.05C482.45 89.4 484.9 90.64 484.9 90.64Z" /><path fill-rule="evenodd" class="shp0" d="M453.37 109.36C453.37 109.36 470.05 129.34 476.15 137.03C483.44 145.41 490.78 157.68 496.96 163.85C504.16 169.51 510.53 169.67 515.51 173.24C521.17 176.97 522.41 179.01 523.2 182.74C523.82 187.84 519.39 192.25 514.15 191.34C509.08 191.46 502.39 184.28 502.39 184.28C502.39 184.28 493.29 171.84 487.01 163.28C473.08 142.83 446.92 113.5 446.92 113.5L453.37 109.36Z" /><path fill-rule="evenodd" class="shp9" d="M458.46 125.57C458.46 125.57 475.84 147.22 482.18 155.55C489.8 164.64 497.27 177.82 503.78 184.55C511.44 190.79 518.48 191.24 523.79 195.19C529.85 199.35 531.12 201.54 531.8 205.49C532.22 210.85 527.08 215.28 521.34 214.1C515.73 214 508.7 206.19 508.7 206.19C508.7 206.19 499.29 192.76 492.8 183.52C478.48 161.49 451.1 129.62 451.1 129.62L458.46 125.57Z" /><path fill-rule="evenodd" class="shp0" d="M453.2 143.42C453.2 143.42 455.61 146.33 475.96 172.46C494.57 201.07 497.4 206.46 497.4 206.46C497.4 206.46 500.4 211.98 503.43 213.64C506.47 215.3 511.64 215.11 513.19 213.93C514.67 212.8 515.5 212.62 516.01 207.1C515.44 203.84 514.49 202.54 513.14 201.32C510.39 199.24 508.98 198.89 505.6 197.81C502.26 196.08 500.97 194.41 498.7 191.31C494.2 184.22 492.19 180.75 484.63 170.41C474.83 156.75 467.12 148.43 458.17 137.72L453.2 143.42Z" /><path fill-rule="evenodd" class="shp10" d="M452.28 138.51C452.28 138.51 468.19 160.41 473.95 168.81C480.96 178.02 487.47 191.11 493.54 198C500.83 204.52 507.97 205.48 513.07 209.64C518.9 214.05 520 216.22 520.36 220.03C520.33 225.16 514.72 228.98 508.95 227.42C503.24 226.9 496.73 218.95 496.73 218.95C496.73 218.95 488.26 205.48 482.42 196.2C469.68 174.17 444.43 141.81 444.43 141.81L452.28 138.51Z" /><path fill-rule="evenodd" class="shp0" d="M439.79 146.23C439.79 146.23 442.04 149.25 461.02 176.41C478.12 205.94 480.67 211.46 480.67 211.46C480.67 211.46 483.38 217.14 486.32 218.95C489.27 220.76 494.44 220.84 496.05 219.74C497.59 218.69 498.43 218.55 499.22 213.06C498.82 209.78 497.94 208.44 496.66 207.15C494.01 204.92 492.63 204.5 489.3 203.25C486.06 201.35 484.86 199.61 482.75 196.4C478.62 189.09 476.79 185.52 469.78 174.81C460.7 160.66 453.43 151.94 445.04 140.79L439.79 146.23Z" /></g><g ><path class="shp11" d="M330.13 0.21C356.2 2.96 381.28 9.09 404.89 18.19L402.87 22.23C379.29 13.18 354.52 7.27 329.4 4.6C327.22 4.36 327.7 -0.02 330.13 0.21Z" /><path class="shp12" d="M315.05 7.18C339 8.43 358.3 12.08 378.25 17.91C386 20.13 393.65 22.71 401.18 25.6L399.13 29.7C372.11 19.42 343.52 13.33 314.66 11.69C311.99 11.4 312.37 7.23 315.05 7.18Z" /><path class="shp12" d="M326.14 16.3C350.49 18.78 374.54 24.38 397.44 33.05L395.72 36.49C373.17 28 349.48 22.52 325.51 20.06C323.29 19.9 323.74 16.1 326.14 16.3Z" /><path class="shp12" d="M394.37 39.2L392.33 43.26C360.13 31.54 331.43 27.05 306.76 26.32C304.2 26.16 304.19 21.99 307.1 21.84C335.12 22.81 367.36 29.07 394.37 39.2Z" /><path class="shp12" d="M320.16 30.66C341.61 32.44 365.75 37.48 390.63 46.66L388.55 50.81C367.15 42.89 338.49 36.53 319.38 35.12C316.73 34.73 317.35 30.45 320.16 30.66Z" /><path class="shp12" d="M386.52 54.86L384.49 58.91C362.71 50.92 326.95 43.34 306.18 43.69C303.94 43.52 304.13 39.33 306.38 39.16C332.41 39.14 359.64 45.11 386.52 54.86Z" /><path class="shp12" d="M322.54 48.82C342.95 51.16 363.13 55.91 382.45 62.97L380.43 67.01C362.23 60.44 342.14 55.37 322.02 53.36C319.04 52.94 319.45 48.63 322.54 48.82Z" /><path class="shp12" d="M378.42 71.04L376.38 75.09C358.56 68.7 330.39 62.74 311.23 61.74C308.44 61.42 308.81 57.22 311.61 57.15C334.05 58 358.5 64.05 378.42 71.04Z" /><path class="shp12" d="M309.59 66.92C326.2 67.05 355.32 73.17 374.01 79.83L371.97 83.89C354.11 77.57 324.68 71.75 309.37 71.39C306.29 71.36 306.36 66.96 309.59 66.92Z" /><path class="shp12" d="M323.76 77.43C339.34 79.65 354.74 83.39 369.61 88.62L367.58 92.66C353.39 87.52 337.57 83.72 322.82 81.79C319.98 81.19 320.66 76.82 323.76 77.43Z" /><path class="shp12" d="M310.16 84.88C327.33 85.49 349.74 90.54 365.83 96.17L363.79 100.23C348.8 95.06 327.39 90.03 310.1 89.4C306.96 89.23 307.23 84.69 310.16 84.88Z" /><path fill-rule="evenodd" class="shp13" d="M341.68 72.54C341.68 72.54 377.6 64.95 375.37 85.07C366.09 101.67 341.68 72.54 341.68 72.54Z" /><path fill-rule="evenodd" class="shp14" d="M349.44 95.55C349.44 95.55 378.57 114.42 383.67 95.85C381.28 78.02 349.44 95.55 349.44 95.55Z" /><path fill-rule="evenodd" class="shp15" d="M371.48 71.04C371.48 71.04 405.12 79.3 394.75 95.9C379.9 106.51 371.48 71.04 371.48 71.04Z" /><path fill-rule="evenodd" class="shp16" d="M370.83 105.17C370.83 105.17 399.68 121.65 403.18 103.28C399.67 86.1 370.83 105.17 370.83 105.17Z" /><path fill-rule="evenodd" class="shp17" d="M393.53 78.37C393.53 78.37 425.46 90.4 413.34 105.27C397.55 113.8 393.53 78.37 393.53 78.37Z" /><path fill-rule="evenodd" class="shp18" d="M389 114.27C389 114.27 416.34 131 419.36 112.65C415.81 95.43 389 114.27 389 114.27Z" /><path fill-rule="evenodd" class="shp19" d="M414.49 87.85C414.49 87.85 443.05 105.4 428.2 116.87C411.08 121.69 414.49 87.85 414.49 87.85Z" /><path fill-rule="evenodd" class="shp20" d="M403.42 121.82C403.42 121.82 429.54 143.01 435.87 125.3C435.05 107.61 403.42 121.82 403.42 121.82Z" /><path fill-rule="evenodd" class="shp21" d="M418.75 131.65C418.75 131.65 440.73 154.34 448.79 138.64C450.14 122.13 418.75 131.65 418.75 131.65Z" /><path fill-rule="evenodd" class="shp22" d="M431.82 101.09C431.82 101.09 459.69 118.61 444.9 129.62C427.98 134.11 431.82 101.09 431.82 101.09Z" /><path fill-rule="evenodd" class="shp23" d="M449.1 113.1C449.1 113.1 474.45 133.92 458.45 143.27C441.15 145.82 449.1 113.1 449.1 113.1Z" /><path fill-rule="evenodd" class="shp24" d="M433.48 144.65C433.48 144.65 455.47 169.21 463.65 151.88C465.08 133.76 433.48 144.65 433.48 144.65Z" /><path fill-rule="evenodd" class="shp25" d="M368.82 18.62C368.82 18.62 408.15 11.06 405.11 33.94C394.51 52.59 368.82 18.62 368.82 18.62Z" /><path fill-rule="evenodd" class="shp26" d="M401.42 16.22C401.42 16.22 437.55 31.92 422.6 48.1C403.8 56.82 401.42 16.22 401.42 16.22Z" /><path fill-rule="evenodd" class="shp27" d="M422.07 25.43C422.07 25.43 459.06 44.1 442.79 61C422.83 69.64 422.07 25.43 422.07 25.43Z" /><path fill-rule="evenodd" class="shp25" d="M443.46 35.91C443.46 35.91 477.88 56.82 460.93 72.01C441.01 78.9 443.46 35.91 443.46 35.91Z" /><path fill-rule="evenodd" class="shp28" d="M465.73 49.83C465.73 49.83 496.32 73.93 477.61 85.65C457.19 89.28 465.73 49.83 465.73 49.83Z" /><path fill-rule="evenodd" class="shp29" d="M482.64 62.14C482.64 62.14 512.31 87.67 493.34 98.89C472.93 101.84 482.64 62.14 482.64 62.14Z" /><path fill-rule="evenodd" class="shp30" d="M498.75 73.82C498.75 73.82 528.62 98.96 509.75 110.32C489.36 113.45 498.75 73.82 498.75 73.82Z" /><path fill-rule="evenodd" class="shp31" d="M515.56 88.62C515.56 88.62 541.84 117.26 521.9 126.17C501.47 126.74 515.56 88.62 515.56 88.62Z" /><path fill-rule="evenodd" class="shp32" d="M332.35 43.37C332.35 43.37 355.28 75.02 367.85 56.99C372.36 36.85 332.35 43.37 332.35 43.37Z" /><path fill-rule="evenodd" class="shp33" d="M350.11 27.79C350.11 27.79 388.11 27.63 381.42 49.72C368.38 66.2 350.11 27.79 350.11 27.79Z" /><path fill-rule="evenodd" class="shp34" d="M351.58 65.16C351.58 65.16 387.45 83.87 391.01 61.37C386.06 40.64 351.58 65.16 351.58 65.16Z" /><path fill-rule="evenodd" class="shp35" d="M376.01 30.54C376.01 30.54 415.5 40.64 403.01 59.62C385.33 71.63 376.01 30.54 376.01 30.54Z" /><path fill-rule="evenodd" class="shp36" d="M376.47 72.98C376.47 72.98 412.38 93.13 416.29 69.6C411.6 47.8 376.47 72.98 376.47 72.98Z" /><path fill-rule="evenodd" class="shp32" d="M399.04 84.59C399.04 84.59 432.73 104.04 436.98 82.4C433 62.16 399.04 84.59 399.04 84.59Z" /><path fill-rule="evenodd" class="shp37" d="M401.32 37.31C401.32 37.31 442.44 53.04 426.87 72.55C406.55 83.75 401.32 37.31 401.32 37.31Z" /><path fill-rule="evenodd" class="shp38" d="M429.11 52.02C429.11 52.02 465.21 73 447.31 88.04C426.32 94.8 429.11 52.02 429.11 52.02Z" /><path fill-rule="evenodd" class="shp28" d="M419.29 94.89C419.29 94.89 450.02 118.37 456.46 96.96C454.74 76.03 419.29 94.89 419.29 94.89Z" /><path fill-rule="evenodd" class="shp39" d="M452.7 65.44C452.7 65.44 486.51 90.01 467.19 103.4C445.63 108.17 452.7 65.44 452.7 65.44Z" /><path fill-rule="evenodd" class="shp40" d="M472.74 78.83C472.74 78.83 503.19 104.33 483.97 115.79C463.21 118.93 472.74 78.83 472.74 78.83Z" /><path fill-rule="evenodd" class="shp41" d="M437.47 106.92C437.47 106.92 466.1 134.82 476 114.72C477.31 93.83 437.47 106.92 437.47 106.92Z" /></g><g ><path fill-rule="evenodd" class="shp42" d="M535.72 463.07C535.72 463.07 508.44 494.19 494.45 475.37C489.81 454.74 535.72 463.07 535.72 463.07Z" /><path fill-rule="evenodd" class="shp43" d="M522.41 480.52C522.41 480.52 492.43 514.03 479.73 492.23C476.63 468.89 522.41 480.52 522.41 480.52Z" /><path fill-rule="evenodd" class="shp44" d="M502.74 498.23C502.74 498.23 476.38 525.6 466.49 506.66C464.7 486.75 502.74 498.23 502.74 498.23Z" /><path fill-rule="evenodd" class="shp44" d="M480.06 430.08C480.06 430.08 454.69 458.37 474.29 466.86C494.27 467.19 480.06 430.08 480.06 430.08Z" /><path fill-rule="evenodd" class="shp40" d="M500.96 461.79C500.96 461.79 481.68 496.59 466.78 479.98C459.76 460.24 500.96 461.79 500.96 461.79Z" /><path fill-rule="evenodd" class="shp44" d="M467 455.16C467 455.16 443.74 485.2 431.86 467.44C427.95 447.84 467 455.16 467 455.16Z" /><path fill-rule="evenodd" class="shp45" d="M466.92 446.37C466.92 446.37 438.48 473.23 457.73 483.76C478.09 485.91 466.92 446.37 466.92 446.37Z" /><path fill-rule="evenodd" class="shp33" d="M486.47 484.52C486.47 484.52 460.29 514.29 448.93 495.15C446.02 474.59 486.47 484.52 486.47 484.52Z" /><path fill-rule="evenodd" class="shp46" d="M434.82 432.37C434.82 432.37 407.16 456.61 423.79 467.46C442.04 470.41 434.82 432.37 434.82 432.37Z" /><path fill-rule="evenodd" class="shp46" d="M451.53 467.7C451.53 467.7 427.41 494.85 417.23 477.16C414.75 458.23 451.53 467.7 451.53 467.7Z" /><path fill-rule="evenodd" class="shp47" d="M418.07 445.19C418.07 445.19 392.32 467.97 409.37 477.48C427.53 479.73 418.07 445.19 418.07 445.19Z" /><path fill-rule="evenodd" class="shp44" d="M439.72 481.25C439.72 481.25 410.87 505.99 402.83 486.2C402.94 466.21 439.72 481.25 439.72 481.25Z" /><path fill-rule="evenodd" class="shp48" d="M451.32 462.82C451.32 462.82 419.51 486.17 437.65 498.94C457.91 503.5 451.32 462.82 451.32 462.82Z" /><path fill-rule="evenodd" class="shp44" d="M433.05 478.26C433.05 478.26 402.73 501.17 420.35 513.26C439.9 517.41 433.05 478.26 433.05 478.26Z" /><path fill-rule="evenodd" class="shp44" d="M401.86 461.34C401.86 461.34 375.16 488.37 394.33 497.8C414.27 499.09 401.86 461.34 401.86 461.34Z" /></g><g ><path fill-rule="evenodd" class="shp49" d="M570.73 179.58C570.73 179.58 584.16 216.76 561.53 217.19C541.83 209.63 570.73 179.58 570.73 179.58Z" /><path fill-rule="evenodd" class="shp50" d="M578.53 201.68C578.53 201.68 589.12 240.02 566.31 238.8C547.07 229.76 578.53 201.68 578.53 201.68Z" /><path fill-rule="evenodd" class="shp51" d="M584.85 224.02C584.85 224.02 593.39 262.34 569.37 259.81C549.66 249.8 584.85 224.02 584.85 224.02Z" /><path fill-rule="evenodd" class="shp52" d="M588.74 246.41C588.74 246.41 593.23 288.14 570.89 283.12C553.3 270.53 588.74 246.41 588.74 246.41Z" /><path fill-rule="evenodd" class="shp53" d="M591.09 269.47C591.09 269.47 594.07 309.3 571.81 303.76C554.59 291.19 591.09 269.47 591.09 269.47Z" /><path fill-rule="evenodd" class="shp54" d="M530.74 159.01C530.74 159.01 557.67 191.63 534.27 199.25C511.12 198.01 530.74 159.01 530.74 159.01Z" /><path fill-rule="evenodd" class="shp55" d="M505.61 187.55C505.61 187.55 518.09 225.4 536.21 212.06C547.06 194.09 505.61 187.55 505.61 187.55Z" /><path fill-rule="evenodd" class="shp35" d="M547.82 183.74C547.82 183.74 566.46 219.4 543.63 222.74C522.68 217.66 547.82 183.74 547.82 183.74Z" /><path fill-rule="evenodd" class="shp56" d="M505.58 194.45C505.58 194.45 528.16 223.86 507.59 228.78C487.48 226.21 505.58 194.45 505.58 194.45Z" /><path fill-rule="evenodd" class="shp57" d="M482.23 216.24C482.23 216.24 491.78 249.15 506.52 237.79C515.47 222.35 482.23 216.24 482.23 216.24Z" /><path fill-rule="evenodd" class="shp58" d="M516.98 214.99C516.98 214.99 531.65 247.45 512.67 248.74C495.41 242.82 516.98 214.99 516.98 214.99Z" /><path fill-rule="evenodd" class="shp59" d="M513.17 209C513.17 209 523.72 247.14 541.96 234.67C553.32 217.3 513.17 209 513.17 209Z" /><path fill-rule="evenodd" class="shp60" d="M559.24 208.86C559.24 208.86 571.38 249.45 547.19 248.58C526.59 239.33 559.24 208.86 559.24 208.86Z" /><path fill-rule="evenodd" class="shp61" d="M488.53 234.17C488.53 234.17 494.77 266.04 510.99 257.08C521.74 243.65 488.53 234.17 488.53 234.17Z" /><path fill-rule="evenodd" class="shp62" d="M522.63 236.87C522.63 236.87 534.99 267.51 515.59 267.58C498.52 261.13 522.63 236.87 522.63 236.87Z" /><path fill-rule="evenodd" class="shp63" d="M520.77 229C520.77 229 524.74 268.85 545.41 259.63C559.96 244.31 520.77 229 520.77 229Z" /><path fill-rule="evenodd" class="shp64" d="M566.85 233.3C566.85 233.3 573.87 276.18 551.34 272.57C533.06 260.79 566.85 233.3 566.85 233.3Z" /><path fill-rule="evenodd" class="shp65" d="M492.16 250.36C492.16 250.36 496.62 285.28 513.35 276.56C524.88 262.66 492.16 250.36 492.16 250.36Z" /><path fill-rule="evenodd" class="shp66" d="M526.75 258.39C526.75 258.39 535.93 290.51 516.75 288.95C500.52 280.97 526.75 258.39 526.75 258.39Z" /><path fill-rule="evenodd" class="shp67" d="M525.48 251.91C525.48 251.91 526.68 291.72 547.63 284C562.98 269.8 525.48 251.91 525.48 251.91Z" /><path fill-rule="evenodd" class="shp68" d="M570.85 259.82C570.85 259.82 571.55 302.12 549.8 294.97C533.45 280.68 570.85 259.82 570.85 259.82Z" /><path fill-rule="evenodd" class="shp69" d="M593.36 290.47C593.36 290.47 592.36 330.97 571.15 323.21C555.57 308.84 593.36 290.47 593.36 290.47Z" /><path fill-rule="evenodd" class="shp70" d="M495.93 269.3C495.93 269.3 494.91 302.95 513.41 297.61C527.4 286.51 495.93 269.3 495.93 269.3Z" /><path fill-rule="evenodd" class="shp71" d="M530.92 281.5C530.92 281.5 535.06 316.64 514.69 311.61C498.64 300.41 530.92 281.5 530.92 281.5Z" /><path fill-rule="evenodd" class="shp72" d="M526.96 272.8C526.96 272.8 525.06 313.15 546.37 307.06C562.65 293.97 526.96 272.8 526.96 272.8Z" /><path fill-rule="evenodd" class="shp73" d="M573.61 284.17C573.61 284.17 570.47 324.54 550.19 315.62C535.76 300.41 573.61 284.17 573.61 284.17Z" /><path fill-rule="evenodd" class="shp74" d="M496.81 288.3C496.81 288.3 492.15 322.06 511.07 318.38C526.16 308.48 496.81 288.3 496.81 288.3Z" /><path fill-rule="evenodd" class="shp75" d="M530.03 302.77C530.03 302.77 531.6 337.92 513.99 331.64C500.54 319.5 530.03 302.77 530.03 302.77Z" /><path fill-rule="evenodd" class="shp76" d="M495.74 307.05C495.74 307.05 490.35 339.6 509.51 335.55C524.93 325.63 495.74 307.05 495.74 307.05Z" /><path fill-rule="evenodd" class="shp44" d="M593.18 314.32C593.18 314.32 587.58 351.91 568.54 342.23C555.54 327.05 593.18 314.32 593.18 314.32Z" /></g><g ><path fill-rule="evenodd" class="shp77" d="M520.8 392.57C520.8 392.57 542.07 392.83 556.25 388.34C574.87 383.24 582.29 366.03 582.29 366.03C582.29 366.03 585.02 369.97 584.85 375.58C584.68 380.68 581.04 392.44 571.9 404.9C562.42 420.24 555.96 438.33 548.32 450.21C542.2 460.9 529.3 470.58 529.3 470.58C529.3 470.58 488.22 465.67 484.25 464.82C478.96 464.01 442.67 455.64 434.52 455.19C426.38 454.74 407.88 455.92 407.88 455.92C407.88 455.92 414.39 443.93 417.54 441.61C423.82 436.41 431.42 434.28 439.28 426.68C443.57 421.96 450.81 413.61 454.88 409.08C459.97 404.22 463.82 399.43 469.36 396.31C473.88 393.36 520.8 392.57 520.8 392.57Z" /><path fill-rule="evenodd" class="shp4" d="M427.97 435.6C427.97 435.6 443.07 435.98 450.33 436.91C458.37 438.18 475.63 440.27 489.49 441.69C501.95 443.07 512.5 443.87 526.55 444.02L552.08 442.85C551.26 444.36 548.99 448.45 546.73 451.69C544.01 455.85 541.88 458.62 536.91 463.25C532.83 467.11 530.32 469.12 529.15 470.01C526.09 469.67 506.78 467.36 498.98 466.28C486.16 465.03 479.65 463.31 464.88 460.18C457.16 458.61 439.26 454.84 434.61 454.58C429.36 454.16 410.68 455.14 408.73 455.31C409.96 453.29 411.43 450.87 413.47 447.42C416.37 442.53 418.61 441.27 422.68 438.55C424.29 437.5 427.84 435.65 427.97 435.6Z" /><path fill-rule="evenodd" class="shp78" d="M567.26 411.8C566.07 414.01 562.93 420.34 560.13 426C556.55 433.75 554.57 437.98 551.95 443.07C546.26 443.49 540.71 443.65 526.54 444.11C512.49 443.96 501.95 443.15 489.5 441.78C475.64 440.37 458.36 438.29 450.33 437.02C443.06 436.1 427.73 435.73 427.73 435.73C427.73 435.73 434.54 431.61 437.71 428.9C441.64 425.25 443.45 422.64 446.65 419.27C450.81 418.93 456.61 418.9 462.94 418.45C474.03 417.82 491.08 418.98 500.58 418.98C510.08 418.98 526.14 418.66 539.69 417.08C558.08 415.76 562.5 412.74 567.26 411.8Z" /><path class="shp79" d="M582.57 369.85C579.75 374.21 576.92 378.65 572.39 382.35C564.7 387.84 562.71 388.93 547.85 392.42C534.46 394.54 531.45 393.95 513.6 394.5C496.2 395.04 491.18 395.44 479.92 396.35C474.48 396.79 472.66 397.25 470.32 397.63" /></g></g><g ><g ><path fill-rule="evenodd" class="shp77" d="M227.24 472.27C224.76 472.29 222.11 472.63 219.56 473.08C202.51 476.04 189.67 486.03 147.21 496.07C132.58 500.08 117.63 501.39 100.36 500.53C99.08 500.17 98.06 498.74 98.04 497.24L93.88 494.86C92.06 497.68 93.17 500.56 93.82 502.31C94.36 503.75 95.22 505.38 96.49 506.39C127.19 528.26 127.98 532.96 145.64 549.62C155.37 559.22 158.31 562.26 190.73 557.11C197.12 567.49 198.5 572.9 216.94 567.53L220.04 575.31C222.91 580.66 226.84 580.74 236.82 578.62C262.66 573.06 270.13 566.76 299.63 566.11C329.14 566.76 336.61 573.06 362.45 578.62C372.43 580.74 376.36 580.66 379.23 575.31L382.33 567.53C400.77 572.9 402.15 567.49 408.55 557.11C440.96 562.26 443.9 559.22 453.63 549.62C471.29 532.96 472.08 528.26 502.78 506.39C504.05 505.38 504.9 503.75 505.44 502.31C506.09 500.56 507.22 497.68 505.39 494.86L501.23 497.24C501.21 498.74 500.19 500.17 498.91 500.53C481.64 501.39 466.69 500.08 452.06 496.07C409.6 486.03 396.76 476.04 379.71 473.08C372.9 471.88 365.42 471.43 362.24 475.85C358.57 480.33 355.52 488.83 350.26 496.75C340.4 493.62 332.58 490.73 324.52 489.03C313.75 486.77 305.98 486.9 299.63 486.9C293.39 486.9 285.52 486.77 274.76 489.03C266.69 490.73 258.87 493.62 249.01 496.75C243.76 488.83 240.71 480.33 237.03 475.85C235.05 473.09 231.37 472.23 227.24 472.27Z" /><path class="shp80" d="M224.09 493.39C226.75 498.12 227.83 501.87 228.86 505.99" /><path fill-rule="evenodd" class="shp78" d="M121.16 524.79C132.01 523.61 135.18 523.31 144.15 521.82C152.57 520.28 159.52 518.74 167.09 516.69C169.38 520.11 171.52 523.38 173.89 526.77C176.02 530.16 176.97 531.41 180.27 538.4C173.46 539.02 167.82 540.06 160.65 540.98C154.5 541.78 147.45 542.74 140.24 543.62C137.47 540.91 135.36 538.69 132.35 535.57C128.67 531.87 125.87 528.98 121.16 524.79Z" /><path fill-rule="evenodd" class="shp78" d="M197.31 522.47C186.38 524.77 185.03 524.99 176.83 527.65C181 534.91 183.33 541.76 186.23 547.79C194.65 545.89 198.92 545 207.07 543.32L202.94 534.45L197.31 522.47Z" /><path fill-rule="evenodd" class="shp4" d="M140.2 543.6C146.88 542.81 153.43 541.89 160.23 541.01C168.17 539.94 173.52 539.04 180.82 538.31C182.32 541.82 183.1 543.71 184.89 547.65C186.38 550.94 188.36 554.06 189.84 556.72C185.01 557.39 181.31 557.97 176 558.52C170.26 559 168.19 559.19 163.55 558.89C158.98 558.48 155.64 557.59 151.58 554.41C148.95 552.29 144.77 548.03 140.2 543.6Z" /><path fill-rule="evenodd" class="shp4" d="M186.24 547.79C193.5 546.1 200.01 544.73 207.67 543.2C209.5 547.59 210.21 549.6 211.77 554.14C213.39 558.7 214.74 562.83 216.23 567.18C212.59 568.16 211.23 568.47 207.17 568.99C203.88 569.23 200.8 568.88 198.43 566.97C196.52 565.6 193.81 561.43 191.26 556.97C189.34 553.53 188 551.44 186.24 547.79Z" /><path fill-rule="evenodd" class="shp78" d="M295.43 514.53C289.05 514.87 282.67 515.68 280.58 516.18C268.28 519.19 260.94 521.76 252.52 524.58C237.62 529.56 232.93 531.86 224.55 534.42C217.92 536.45 213.21 537.55 207.17 538.93C210.07 545.82 212.24 552.1 214.85 559.6C222.43 558.3 228.51 556.95 236.06 554.67C244.53 551.88 251.98 549.5 261.1 546.74C269 544.34 274.61 543 285.12 541.22C289.31 540.82 292.37 540.58 295.55 540.47L295.55 540.48C297.06 540.43 298.36 540.41 299.63 540.4C300.91 540.41 302.21 540.43 303.73 540.48L303.73 540.47C306.9 540.58 309.96 540.82 314.15 541.22C324.66 543 330.27 544.34 338.17 546.74C347.3 549.5 354.74 551.88 363.21 554.67C370.77 556.95 376.84 558.3 384.42 559.6C387.03 552.1 389.2 545.82 392.1 538.93C386.06 537.55 381.35 536.45 374.73 534.42C366.35 531.86 361.65 529.56 346.75 524.58C338.34 521.76 330.99 519.19 318.69 516.18C316.6 515.68 310.22 514.87 303.84 514.53C299.93 514.36 299.32 514.36 295.43 514.53Z" /><path fill-rule="evenodd" class="shp4" d="M296.07 540.39L296.07 540.41C289.08 540.53 284.16 541.1 273.73 543.34C256.45 547.36 241.35 553.28 231.41 556C225.57 557.48 220.51 558.53 214.86 559.65C216.72 565.49 218.74 570.83 220.86 575.67C223.09 579.31 226.26 579.72 229.73 579.31C235.26 578.46 239.81 577.48 245.4 576.04C256.52 573.05 265.59 569.95 276.22 567.78C284.71 566.24 291.45 565.79 299.63 565.55C307.82 565.79 314.55 566.24 323.04 567.78C333.67 569.95 342.75 573.05 353.87 576.04C359.47 577.48 364.01 578.46 369.55 579.31C373.01 579.72 376.19 579.31 378.41 575.67C380.53 570.83 382.55 565.49 384.41 559.65C378.76 558.53 373.7 557.48 367.85 556C357.91 553.28 342.82 547.36 325.54 543.34C315.11 541.1 310.19 540.53 303.2 540.41L303.2 540.39C301.83 540.38 300.82 540.4 299.63 540.4C298.44 540.4 297.44 540.38 296.07 540.39Z" /><path class="shp80" d="M375.08 493.67C372.99 498.03 371.34 502.05 370.22 505.99" /><path fill-rule="evenodd" class="shp78" d="M478.11 524.79C467.26 523.61 464.09 523.31 455.12 521.82C446.7 520.28 439.75 518.74 432.18 516.69C429.89 520.11 427.75 523.38 425.38 526.77C423.25 530.16 422.3 531.41 419 538.4C425.81 539.02 431.45 540.06 438.62 540.98C444.77 541.78 451.82 542.74 459.03 543.62C461.8 540.91 463.91 538.69 466.92 535.57C470.6 531.87 473.4 528.98 478.11 524.79Z" /><path fill-rule="evenodd" class="shp78" d="M401.96 522.47C412.88 524.77 414.24 524.99 422.44 527.65C418.27 534.91 415.94 541.76 413.04 547.79C404.62 545.89 400.35 545 392.2 543.32L396.33 534.45L401.96 522.47Z" /><path fill-rule="evenodd" class="shp4" d="M459.07 543.6C452.39 542.81 445.84 541.89 439.04 541.01C431.1 539.94 425.75 539.04 418.45 538.31C416.94 541.82 416.17 543.71 414.38 547.65C412.89 550.94 410.91 554.06 409.42 556.72C414.26 557.39 417.96 557.97 423.27 558.52C429 559 431.08 559.19 435.72 558.89C440.29 558.48 443.63 557.59 447.69 554.41C450.32 552.29 454.5 548.03 459.07 543.6Z" /><path fill-rule="evenodd" class="shp4" d="M413.03 547.79C405.77 546.1 399.26 544.73 391.6 543.2C389.77 547.59 389.06 549.6 387.5 554.14C385.88 558.7 384.53 562.83 383.04 567.18C386.68 568.16 388.04 568.47 392.1 568.99C395.39 569.23 398.47 568.88 400.84 566.97C402.75 565.6 405.46 561.43 408.01 556.97C409.93 553.53 411.27 551.44 413.03 547.79Z" /><path class="shp81" d="M192.58 512.39C194.32 517.23 198.1 523.39 200.57 528.59C201.61 530.59 205.01 537.7 207.47 544.19" /><path class="shp81" d="M161.33 507.29C165.38 513.62 169.17 519.43 173.5 525.63C176.62 530.18 178.57 534.61 180.58 539.19" /><path class="shp81" d="M437.85 507.94C433.8 514.27 430.1 519.43 425.77 525.63C422.65 530.18 420.69 534.61 418.69 539.19" /><path class="shp81" d="M406.66 511.93C404.93 516.76 401.14 523.4 398.68 528.59C397.63 530.6 394.24 537.7 391.77 544.2" /><path class="shp80" d="M95.84 495.97C95.18 496.98 95.62 498.53 96.13 499.46C96.57 500.26 98.02 502.15 99.98 502.42C114.78 503.01 124.3 502.82 139.59 499.88C155.75 496.07 170.29 492.46 186.63 486.35C196.24 482.88 207.7 477.97 214.58 476.09C223.22 473.76 231.68 472.3 234.69 475.98C236.85 479.36 229.67 483.33 222.42 485.73C214 488.29 206.07 489.6 197.6 490.72C188.65 492.35 179.16 494.14 171.17 496.57C166.16 498.19 160.43 502.27 161.05 505.83C162.09 510.49 168.72 509.16 174.63 507.2L213.84 492.22C218.32 490.59 223.11 491.14 224.12 493.54C225.01 496 224.3 499.4 218.27 500.61L199.5 503.79C192.84 505 192.09 509.84 192.6 511.59C193.16 513.4 195.86 515.94 203.89 514.03C222.3 509.52 235.15 503.11 247.04 499.45C276.04 489.6 281.43 488.86 299.6 488.79C317.13 488.82 322.69 489.43 352.23 499.45C364.12 503.11 376.97 509.52 395.38 514.03C403.4 515.94 406.02 513.12 406.58 511.3C407.08 509.56 406.15 505.75 399.77 503.79L381 500.61C374.97 499.4 374.26 496 375.15 493.54C376.16 491.14 380.95 490.59 385.43 492.22L424.64 507.2C430.55 509.16 437.46 510.68 438.5 506.02C439.12 502.46 434.52 498.48 428.1 496.57C420.11 494.14 410.61 492.35 401.67 490.72C393.2 489.6 385.27 488.29 376.85 485.73C369.6 483.33 362.42 479.45 364.49 475.98C367.97 472.21 376.61 473.67 384.69 476.09C391.57 477.97 403.03 482.88 412.64 486.35C428.98 492.46 443.52 496.07 459.68 499.88C474.97 502.82 484.49 503.01 499.29 502.42C501.25 502.15 502.7 500.26 503.14 499.46C503.65 498.53 504.09 496.98 503.43 495.97" /></g></g></g></svg>