<svg version="1.2" baseProfile="tiny-ps" xmlns="http://www.w3.org/2000/svg" viewBox="0 0 600 600" width="600" height="600">
	<title></title>
	<style>
		tspan { white-space:pre }
		.s0 { fill: #820002;stroke: #6d5031;stroke-width: 1.1 } 
		.s1 { fill: #ffffff;stroke: #6d5031;stroke-width: 1.1 } 
		.s2 { fill: #e4a80a;stroke: #6d5031;stroke-width: 1.1 } 
		.s3 { fill: none;stroke: #6d5031;stroke-width: 1.1 } 
		.s4 { fill: #af4a04;stroke: #6d5031;stroke-width: 1.1 } 
		.s5 { fill: #123f3a;stroke: #6d5031;stroke-width: 1.1 } 
		.s6 { fill: #f4ecce;stroke: #6d5031;stroke-width: 1.1 } 
		.s7 { fill: #593e26;stroke: #6d5031;stroke-width: 1.1 } 
		.s8 { fill: #ccae33;stroke: #6d5031;stroke-width: 1.1 } 
		.s9 { fill: #590a0e } 
		.s10 { fill: #e4a80a } 
		.s11 { fill: #ffe779 } 
		.s12 { fill: #becfc5;stroke: #3f2b12;stroke-width: 1.1 } 
		.s13 { fill: #02013b;stroke: #3f2b12;stroke-width: 1.1 } 
		.s14 { fill: #f7d677;stroke: #6d5031;stroke-width: 1.1 } 
		.s15 { fill: #a06c19;stroke: #6d5031;stroke-width: 1.1 } 
		.s16 { fill: #e6b824;stroke: #6d5031;stroke-width: 1.1 } 
		.s17 { fill: none;stroke: #896b40;stroke-width: 1.1 } 
		.s18 { fill: #a59f85;stroke: #6d6b6a;stroke-width: 1.1 } 
		.s19 { fill: #e38f0b;stroke: #6d5031;stroke-width: 1.1 } 
		.s20 { fill: #9b651e;stroke: #6d5031;stroke-width: 1.1 } 
		.s21 { fill: #6d5031 } 
		.s22 { fill: #c67d2e;stroke: #6d5031;stroke-width: 1.1 } 
	</style>
	<g >
		<path class="s0" d="m108.61 548.98l-14.52 4.23l0.96-17.47l10.66 1.57l2.9 11.68z" />
		<path class="s0" d="m479.81 538.12l12.37-8.09l0.26 16.17l-8.16-1.7l-4.48-6.39z" />
		<path class="s1" d="m85.99 527.4l-34.73-8.98l-1.84-13.24l18.98-29.42l7.74-57.18l0.88-47.76l-6.91-64.34l14.02-62.17l6.31-61.23l30.63 24.58l78.18 2.75l58.83-46.82l18.18-39.83l43.15 4.21l15.61 26.04l93.17 60.62l52.68-14.06l30.67 6.08l8.61 52.98l10.4 114.45l-2.23 40.65l13.76 74.02l-9.27 27.77l-30.18 9.91l-20.71 4.95l-4.21 21.59l-24.22 5.61l-30.85 5.96l-18.38 6.67l-19.87 14.39l-39.7 3.16l-41.7 3.86l-55.59-2.81l-30.84-1.75l-30.32-5.61l-20.76-14.03l-41.24-4.56l-21.26-7.9l4.46-15.66l-21.43-12.89z" />
		<path class="s2" d="m46.87 511.96l2.81-5.09l8.38-6.18v2.6c-16.85 17.13 28.3 20.82 41.99 24.56c13.69 3.74 18.82 13.89 9.61 22.34c-9.21 8.45 41.33 15.24 54.47 13.92c13.14-1.32 22.66 10 26.59 13.95c3.93 3.95 15.03 11.84 33.74 3.95c18.72-7.89 75.53 15 97.12 2.11c21.59-12.89 56.88 8.98 67.16-8.68c10.29-17.67 40.51-18.42 57.1-20c16.59-1.58 28.67-8.26 28.67-8.26c-7.13-21.68 17.14-23.06 38.99-31.21c21.85-8.15 26.88-14.94 26.88-14.94l8.91 2.81l3.76 7.89c-6.78 16.03-57.46 20.28-63.51 21.62c-6.06 1.33-5.79 4.98-5.79 4.98l8.69 7.89c-4.74 23.15-49.49 23.17-58.18 23.17c-8.69 0-14.77-3.68-35.94 14.21c-21.17 17.89-60.94 10.53-88.56 14.74c-27.62 4.21-69-5.79-85.09-4.21c-16.09 1.58-38.14 1.85-46.91-9.21c-8.77-11.05-36.77-15.78-50.99-14.47c-14.22 1.32-29.49-4.98-32.39-13.14c-2.9-8.16 8.93-13.3 8.93-13.3c0 0-37.15-13.19-47.69-15.29c-10.54-2.09-8.74-16.76-8.74-16.76h0z" />
		<g >
			<path class="s2" d="m74.63 170.19l3.62 1.31c-27.03 46.41-10.53 79.2-10.53 79.2c0 0 15.09 20.95 9.59 48.79c-5.51 27.84-35.03 31.72-35.03 31.72v-3.74c23.17-5.3 43.62-27.82 23.15-70.06c-20.47-42.24 9.21-87.22 9.21-87.22l0 0z" />
			<path class="s2" d="m47.62 326.26l-0.64 4.14c-6.77 8.47-12.97 7.61-12.97 7.61l-1.46-10.07c8.93-9.27 15.08-1.69 15.08-1.69h0z" />
			<path class="s3" d="m32.91 330.47l6.43-3.64" />
			<path class="s3" d="m33.38 333.65l6.11-3.74" />
			<path class="s3" d="m33.62 335.32l6.2-2.27" />
		</g>
		<path class="s4" d="m386.74 330.43l-10.66-19.08l23.96 10.39l-5.13 11.05l-8.16-2.37z" />
		<g >
			<path class="s5" d="m236.55 270.34c-10.77 0-19.48-8.71-19.48-19.47c0-10.77 8.71-19.47 19.48-19.47c10.77 0 19.48 8.71 19.48 19.47c0 10.77-8.71 19.47-19.48 19.47z" />
			<path fill-rule="evenodd" class="s0" d="m258.14 256.17l-10.01 2.8l-1.2 0.34l-0.12 1.24l-1.02 10.35l-8.38-6.16l-0.7-0.51l-0.7 0.51l-8.38 6.16l-1.02-10.35l-0.12-1.24l-1.2-0.34l-10.01-2.8l7.53-7.18l0.9-0.86l-0.47-1.15l-3.96-9.61l10.29 1.51l1.24 0.18l0.62-1.09l5.15-9.03l5.14 9.04l0.64 1.13l1.51-0.22l10.29-1.51l-3.96 9.61l-0.47 1.15l0.9 0.86l7.53 7.18zm-23.16-1.78l1.72 0.77l1.72-0.76l1.72-0.75l0.46-1.79l0.46-1.76l-1.16-1.35l-1.16-1.22h-4.07l-2.32 2.44l0.46 1.83l0.46 1.83l1.72 0.77z" />
			<path class="s6" d="m236.55 261.53c-5.9 0-10.66-4.76-10.66-10.66c0-5.89 4.77-10.66 10.66-10.66c5.9 0 10.66 4.76 10.66 10.66c0 5.89-4.77 10.66-10.66 10.66z" />
			<path class="s7" d="m236.55 257.42c-3.63 0-6.56-2.93-6.56-6.55c0-3.62 2.93-6.55 6.56-6.55c3.63 0 6.56 2.93 6.56 6.55c0 3.62-2.93 6.55-6.56 6.55z" />
		</g>
		<g >
			<path class="s5" d="m354.49 270.34c-10.77 0-19.48-8.71-19.48-19.47c0-10.77 8.71-19.47 19.48-19.47c10.77 0 19.48 8.71 19.48 19.47c0 10.77-8.71 19.47-19.48 19.47z" />
			<path fill-rule="evenodd" class="s0" d="m376.08 256.17l-10.01 2.8l-1.2 0.34l-0.12 1.24l-1.02 10.35l-8.38-6.16l-0.7-0.51l-0.7 0.51l-8.38 6.16l-1.02-10.35l-0.12-1.24l-1.2-0.34l-10.01-2.8l7.53-7.18l0.9-0.86l-0.47-1.15l-3.96-9.61l10.29 1.51l1.24 0.18l0.62-1.09l5.15-9.03l5.14 9.04l0.64 1.13l1.51-0.22l10.29-1.51l-3.96 9.61l-0.47 1.15l0.9 0.86l7.53 7.18zm-23.16-1.78l1.72 0.77l1.72-0.76l1.72-0.75l0.46-1.79l0.46-1.76l-1.16-1.35l-1.16-1.22h-4.07l-2.32 2.44l0.46 1.83l0.46 1.83l1.72 0.77z" />
			<path class="s6" d="m354.49 261.53c-5.9 0-10.66-4.76-10.66-10.66c0-5.89 4.77-10.66 10.66-10.66c5.9 0 10.66 4.76 10.66 10.66c0 5.89-4.77 10.66-10.66 10.66z" />
			<path class="s7" d="m354.49 257.42c-3.63 0-6.56-2.93-6.56-6.55c0-3.62 2.93-6.55 6.56-6.55c3.63 0 6.56 2.93 6.56 6.55c0 3.62-2.93 6.55-6.56 6.55z" />
		</g>
		<g >
			<path class="s8" d="m337.37 527.85c0 0-47.97-19.52-89.05-21.82l-0.13-1.25c0 0 40.38 1.45 90.42 21.65c0 0 0.51 1.12-1.24 1.41l0 0z" />
			<path class="s8" d="m339.34 526.73c0 0-38.35-17.34-71.25-17.82l-0.1-1.24c0 0 32.35-0.33 72.35 17.6c0 0 0.4 1.09-1 1.46h0z" />
			<path class="s8" d="m341.6 518.54c0 0-82.65-15.99-150.73-15.29l-0.45-1.23c0 0 66.79-1.49 152.97 15.03c0 0 1.04 1.08-1.78 1.5h0z" />
			<path class="s8" d="m328.73 511.85c0 0-59.6-5.94-106.7 2.88l-0.49-1.17c0 0 46.09-9.46 108.22-3.41c0 0 0.88 0.94-1.02 1.69v0z" />
			<path class="s8" d="m328.28 516.18c0 0-54.54-11.89-98.88-7.82l-0.35-1.21c0 0 43.46-4.79 100.32 7.45c0 0 0.73 1.03-1.1 1.58z" />
			<path fill-rule="evenodd" class="s5" d="m387.67 475.43c7.02-5.79 11.23 0.53 11.23 0.53c3.16-1.58 8.25 5.09 8.25 5.09c-4.04 4.91-8.07 4.21-14.04 4.21c-5.97 0-9.3 2.98-12.99 6.14c-3.69 3.16 2.27 4.65 5.27 0.17c2.99-4.48 5.79-1.75 5.79-1.75c6.67-4.74 10.71 0.7 10.71 0.7c-1.58 3.68-10.53 3.16-10.53 3.16c-0.7 4.03 7.72 3.51 7.72 3.51c0 0-1.4 6.84-9.83 1.23c-8.42-5.61-15.27 0.53-21.77-0.17c-6.49-0.7-6.14 5.61-5.62 9.47c0.53 3.86 7.37 4.74 10-0.53c2.63-5.26 11.41-4.79 11.41-4.79l-2.63 5.14l6.14 3.33c-14.57 8.42-26.5 2.63-30.19-0.88c-3.69-3.51-14.74 0.88-14.74 0.88c1.05 2.81 8.6 1.23 8.6 1.23c6.14-1.75 9.3 5.09 9.3 9.47c0 4.39-4.04 7.37-4.04 2.81c0-4.56-5.44-3.51-5.44-3.51c1.05 2.46-1.93 5.09-1.93 5.09c-7.55-1.05-3.51-8.42-3.51-8.42c-11.06-10.18-24.92 0.35-24.92 0.35c-0.39 3.45 8.07-0.35 8.07-0.35c5.62-1.58 8.42 1.75 8.42 1.75c-2.63 2.63-5.44 3.16-5.44 3.16c2.28 3.16-0.35 9.3-0.35 9.3c-5.79 1.4-11.06-4.91-11.06-4.91c-1.76 3.51-6.37 3.33-6.37 3.33c-0.93-4.03 0.58-4.21 3.44-8.07c2.86-3.86-4.44-1.58-4.44-1.58c-4.74 1.23-13.51 1.23-14.52 1.75c-1 0.53-2.67 5.07-6.19 1.4c-3.52-3.66-8.25 4.56-8.25 4.56c3.42 1.65 9.48 0.7 9.48 0.7c0 0 3.69-3.33 7.02-2.63c3.34 0.7 2.46 4.74 2.46 4.74c3.16 0 6.1 3.51 6.1 3.51c-1.62 3.16-8.56 5.96-8.56 5.96c-5.09 2.81-11.76 1.58-10.18-3.16c1.58-4.74-1.4-5.26-10.72-6.32c-9.31-1.05-20.88 12.63-22.28 14.39c-1.4 1.75-3.69 0-3.69 0c4.91-7.19 18.6-16.32 18.6-16.32c-0.18-5.44 3.16-5.97 5.79-2.81c2.63 3.16 11.41-7.72 11.41-7.72v-2.81c-3.51 0.88-3.69-1.58-3.57-4.91c0.11-3.33 5.62-5.44 5.62-5.44c2.05-8.42 5.5 0.53 6.95 0c1.45-0.53 6.97 5.44 6.09 8.25c-0.88 2.81-8.05 2.81-8.05 2.81c0 0-2.13 0.7-4.41 2.28c-2.28 1.58 2.88 1.93 2.88 1.93c2-2.81 8.35-1.23 15.57-2.63c7.22-1.4 14.02-5.44 14.02-5.44l-2.63-1.23c-3.16 1.4-6.49-1.05-6.49-1.05l1.98-2.63c-5.91 0.88-5.14-8.25-5.14-8.25c4.04-1.75 5.14-0.88 5.14-0.88c0.05-3.51 2.05-7.89 2.05-7.89c4.56 2.28 5.62 7.37 5.62 7.37l7.02-3.86l-1.61 7.19l3.01 1.58c0.53 1.93-8.42 7.02-8.42 7.02l1.4 1.4c2.98-3.68 12.11-4.84 12.11-4.84c4.39-0.45 8.95-3.76 0.88-6.04c-8.07-2.28-2.28-7.02-2.28-7.02c0.35 2.81 7.37-0.88 7.37-0.88c0.35-3.68 5.97-6.14 5.97-6.14c3.33 1.4 5.44 7.19 5.44 11.05c0 3.86-9.3 5.44-9.3 5.44l-2.11 3.16c2.98 1.75 10.36-2.46 10.36-2.46c0.18-5.79 11.53-9.47 11.53-9.47c-0.58-4.91 0.4-6.67 1.98-8.95c1.58-2.28-0.18-6.49-0.18-6.49c-9.15-0.7-9.65-9.65-9.65-9.65c1.23-3.51 6.32-3 6.32-3c-0.35-4.92 4.56-7.53 4.56-7.53c4.25 1.64 4.21 7.96 4.21 7.96c3.51-2.74 6.84-0.75 6.84-0.75c-0.18 4.76-8.78 11.21-8.78 11.21c0.88 2.63 2.46 9.47 0.35 11.05c-2.11 1.58-1.58 6.14-1.58 6.14c5.62-1.58 11.93-8.76 11.93-8.76c-6.14 1.75-6.67-2.61-6.67-2.61c0.88-5.44 7.02-5.76 7.02-5.76c-0.17-9.12 5.62-11.14 5.62-11.14c1.58 2.21 0 9.5 0 9.5l0 0z" />
			<path fill-rule="evenodd" class="s6" d="m389.16 467.34c6.34-3.66 22.07-2.96 21.33 6.38c-0.74 9.34-5.07 3.29-10.57 6.27c-5.49 2.98-11.63 6.49-18.73 0c-7.11-6.49 7.96-12.65 7.96-12.65h0z" />
			<g >
				<path class="s8" d="m189.52 499.64c0 0-0.68 4.64 7.03 2.76c0 0-1.77-5.39-7.03-2.76z" />
				<path class="s8" d="m185.31 499.64c0 0-0.68 4.64 7.03 2.76c0 0-1.77-5.39-7.03-2.76z" />
				<path class="s8" d="m158.98 509.11c0 0-0.68 4.64 7.03 2.76c0 0-1.77-5.39-7.03-2.76z" />
				<path class="s8" d="m182.15 500.69c0 0-0.68 4.64 7.03 2.76c0 0-1.77-5.39-7.03-2.76z" />
				<path class="s8" d="m144.24 513.32c0 0-0.68 4.64 7.03 2.76c0 0-1.77-5.39-7.03-2.76z" />
				<path class="s8" d="m174.78 504.9c0 0-0.68 4.64 7.03 2.76c0 0-1.77-5.39-7.03-2.76z" />
				<path class="s8" d="m181.09 502.8c0 0-0.68 4.64 7.03 2.76c0 0-1.77-5.39-7.03-2.76z" />
				<path class="s8" d="m156.87 507.01c0 0-0.68 4.64 7.03 2.76c0 0-1.77-5.39-7.03-2.76z" />
				<path class="s8" d="m175.83 501.74c0 0-0.68 4.64 7.03 2.76c0 0-1.77-5.39-7.03-2.76z" />
				<path class="s8" d="m189.26 506.59c0 0 3.82 2.73 5.67-4.99c0 0-5.6-0.9-5.67 4.99z" />
				<path class="s8" d="m185.05 506.59c0 0 3.82 2.73 5.67-4.99c0 0-5.6-0.9-5.67 4.99z" />
				<path class="s8" d="m148.2 518.17c0 0 3.82 2.73 5.67-4.99c0 0-5.6-0.9-5.67 4.99z" />
				<path class="s8" d="m173.47 509.75c0 0 3.82 2.73 5.67-4.99c0 0-5.6-0.9-5.67 4.99z" />
				<path class="s8" d="m168.38 507.13c0 0 2.1 4.19 7.35-1.75c0 0-4.53-3.41-7.35 1.75z" />
				<path class="s8" d="m167.32 509.23c0 0 2.1 4.19 7.35-1.75c0 0-4.53-3.41-7.35 1.75z" />
				<path class="s8" d="m153.63 511.34c0 0 2.1 4.19 7.35-1.75c0 0-4.53-3.41-7.35 1.75z" />
				<path class="s8" d="m151.53 514.5c0 0 2.1 4.19 7.35-1.75c0 0-4.53-3.41-7.35 1.75z" />
				<path class="s8" d="m147.66 516.68c0 0-3.34-3.29-6.38 4.04c0 0 5.39 1.76 6.38-4.04z" />
				<path class="s8" d="m153.98 510.36c0 0-3.34-3.29-6.38 4.04c0 0 5.39 1.76 6.38-4.04z" />
				<path class="s8" d="m177.76 505.61c0 0 0.24 4.68 7.44 1.33c0 0-2.79-4.94-7.44-1.33z" />
				<path class="s8" d="m164.07 509.82c0 0 0.24 4.68 7.44 1.33c0 0-2.79-4.94-7.44-1.33z" />
				<path class="s8" d="m172.5 503.51c0 0 0.24 4.68 7.44 1.33c0 0-2.79-4.94-7.44-1.33z" />
				<path class="s8" d="m156.7 511.93c0 0 0.24 4.68 7.44 1.33c0 0-2.79-4.94-7.44-1.33z" />
				<path class="s8" d="m164.07 505.61c0 0 0.24 4.68 7.44 1.33c0 0-2.79-4.94-7.44-1.33z" />
				<path class="s8" d="m161.96 507.72c0 0 0.24 4.68 7.44 1.33c0 0-2.79-4.94-7.44-1.33z" />
			</g>
			<g >
				<path class="s8" d="m227.22 504.37c0 0-3.45 3.18 3.73 6.57c0 0 2.02-5.3-3.73-6.57z" />
				<path class="s8" d="m223.94 501.72c0 0-3.45 3.18 3.73 6.57c0 0 2.02-5.3-3.73-6.57z" />
				<path class="s8" d="m197.52 492.52c0 0-3.45 3.18 3.73 6.57c0 0 2.02-5.3-3.73-6.57z" />
				<path class="s8" d="m220.83 500.55c0 0-3.45 3.18 3.73 6.57c0 0 2.02-5.3-3.73-6.57z" />
				<path class="s8" d="m183.41 486.52c0 0-3.45 3.18 3.73 6.57c0 0 2.02-5.3-3.73-6.57z" />
				<path class="s8" d="m212.45 499.19c0 0-3.45 3.18 3.73 6.57c0 0 2.02-5.3-3.73-6.57z" />
				<path class="s8" d="m218.68 501.52c0 0-3.45 3.18 3.73 6.57c0 0 2.02-5.3-3.73-6.57z" />
				<path class="s8" d="m197.21 489.56c0 0-3.45 3.18 3.73 6.57c0 0 2.02-5.3-3.73-6.57z" />
				<path class="s8" d="m215.25 497.39c0 0-3.45 3.18 3.73 6.57c0 0 2.02-5.3-3.73-6.57z" />
				<path class="s8" d="m222.64 509.61c0 0 1.25 4.52 7.55-0.31c0 0-3.79-4.22-7.55 0.31z" />
				<path class="s8" d="m219.37 506.96c0 0 1.25 4.52 7.55-0.31c0 0-3.79-4.22-7.55 0.31z" />
				<path class="s8" d="m183.44 492.77c0 0 1.25 4.52 7.55-0.31c0 0-3.79-4.22-7.55 0.31z" />
				<path class="s8" d="m208.38 502.13c0 0 1.25 4.52 7.55-0.31c0 0-3.79-4.22-7.55 0.31z" />
				<path class="s8" d="m206.07 496.89c0 0-1.01 4.58 6.81 3.26c0 0-1.37-5.5-6.81-3.26z" />
				<path class="s8" d="m203.93 497.86c0 0-1.01 4.58 6.81 3.26c0 0-1.37-5.5-6.81-3.26z" />
				<path class="s8" d="m191.96 490.89c0 0-1.01 4.58 6.81 3.26c0 0-1.37-5.5-6.81-3.26z" />
				<path class="s8" d="m188.34 492.01c0 0-1.01 4.58 6.81 3.26c0 0-1.37-5.5-6.81-3.26z" />
				<path class="s8" d="m183.96 491.28c0 0-0.53-4.66-7.5-0.87c0 0 3.08 4.76 7.5 0.87z" />
				<path class="s8" d="m192.85 490.35c0 0-0.53-4.66-7.5-0.87c0 0 3.08 4.76 7.5 0.87z" />
				<path class="s8" d="m214.32 501.61c0 0-2.76 3.79 4.94 5.71c0 0 0.94-5.59-4.94-5.71z" />
				<path class="s8" d="m201.03 496.27c0 0-2.76 3.79 4.94 5.71c0 0 0.94-5.59-4.94-5.71z" />
				<path class="s8" d="m211.55 496.67c0 0-2.76 3.79 4.94 5.71c0 0 0.94-5.59-4.94-5.71z" />
				<path class="s8" d="m193.98 493.27c0 0-2.76 3.79 4.94 5.71c0 0 0.94-5.59-4.94-5.71z" />
				<path class="s8" d="m203.68 493c0 0-2.76 3.79 4.94 5.71c0 0 0.94-5.59-4.94-5.71z" />
				<path class="s8" d="m200.72 493.31c0 0-2.76 3.79 4.94 5.71c0 0 0.94-5.59-4.94-5.71z" />
			</g>
			<g >
				<path class="s8" d="m256.65 498.39c0 0-4.66 0.52-0.89 7.5c0 0 4.77-3.07 0.89-7.5z" />
				<path class="s8" d="m255.58 494.32c0 0-4.66 0.52-0.89 7.5c0 0 4.77-3.07 0.89-7.5z" />
				<path class="s8" d="m239.74 471.27c0 0-4.66 0.52-0.89 7.5c0 0 4.77-3.08 0.89-7.5z" />
				<path class="s8" d="m253.76 491.53c0 0-4.66 0.52-0.89 7.5c0 0 4.77-3.07 0.89-7.5z" />
				<path class="s8" d="m231.93 458.08c0 0-4.66 0.52-0.89 7.5c0 0 4.77-3.08 0.89-7.5z" />
				<path class="s8" d="m247.82 485.47c0 0-4.66 0.52-0.89 7.5c0 0 4.77-3.07 0.89-7.5z" />
				<path class="s8" d="m251.45 491.05c0 0-4.66 0.52-0.89 7.5c0 0 4.77-3.08 0.89-7.5z" />
				<path class="s8" d="m241.24 468.69c0 0-4.66 0.52-0.89 7.5c0 0 4.77-3.07 0.89-7.5z" />
				<path class="s8" d="m251.14 485.69c0 0-4.66 0.52-0.89 7.5c0 0 4.77-3.07 0.89-7.5z" />
				<path class="s8" d="m249.86 499.91c0 0-1.67 4.38 6.26 4.22c0 0-0.55-5.64-6.26-4.22h0z" />
				<path class="s8" d="m248.79 495.84c0 0-1.67 4.38 6.26 4.22c0 0-0.55-5.65-6.26-4.22z" />
				<path class="s8" d="m228.24 463.13c0 0-1.67 4.38 6.26 4.22c0 0-0.55-5.65-6.26-4.22z" />
				<path class="s8" d="m242.8 485.44c0 0-1.67 4.38 6.26 4.22c0 0-0.55-5.64-6.26-4.22z" />
				<path class="s8" d="m244.04 479.85c0 0-3.53 3.09 3.56 6.66c0 0 2.15-5.24-3.56-6.66z" />
				<path class="s8" d="m241.74 479.36c0 0-3.53 3.09 3.56 6.66c0 0 2.15-5.25-3.56-6.66z" />
				<path class="s8" d="m236.23 466.66c0 0-3.53 3.09 3.56 6.66c0 0 2.15-5.25-3.56-6.66z" />
				<path class="s8" d="m232.64 465.42c0 0-3.53 3.09 3.56 6.66c0 0 2.15-5.25-3.56-6.66z" />
				<path class="s8" d="m229.55 462.24c0 0 2.33-4.07-5.53-5.15c0 0-0.33 5.66 5.53 5.15z" />
				<path class="s8" d="m237.26 466.75c0 0 2.33-4.07-5.53-5.15c0 0-0.33 5.66 5.53 5.15z" />
				<path class="s8" d="m247.89 488.54c0 0-4.47 1.42 0.6 7.53c0 0 4.07-3.95-0.6-7.53z" />
				<path class="s8" d="m240.34 476.37c0 0-4.47 1.42 0.6 7.53c0 0 4.07-3.95-0.6-7.53z" />
				<path class="s8" d="m248.59 482.91c0 0-4.47 1.42 0.6 7.53c0 0 4.07-3.95-0.6-7.53z" />
				<path class="s8" d="m236.44 469.77c0 0-4.47 1.42 0.6 7.53c0 0 4.07-3.95-0.6-7.53z" />
				<path class="s8" d="m244.42 475.3c0 0-4.47 1.42 0.6 7.53c0 0 4.07-3.95-0.6-7.53z" />
				<path class="s8" d="m241.85 473.8c0 0-4.47 1.42 0.6 7.53c0 0 4.07-3.95-0.6-7.53z" />
			</g>
			<g >
				<path class="s8" d="m243.1 511.21c0 0 1.31 4.5 7.54-0.41c0 0-3.84-4.17-7.54 0.41z" />
				<path class="s8" d="m239.27 512.96c0 0 1.31 4.5 7.54-0.41c0 0-3.85-4.17-7.54 0.41z" />
				<path class="s8" d="m219.25 532.5c0 0 1.31 4.5 7.54-0.41c0 0-3.85-4.17-7.54 0.41z" />
				<path class="s8" d="m236.83 515.23c0 0 1.31 4.5 7.54-0.41c0 0-3.84-4.17-7.54 0.41z" />
				<path class="s8" d="m207.58 542.44c0 0 1.31 4.5 7.54-0.41c0 0-3.84-4.17-7.54 0.41z" />
				<path class="s8" d="m231.87 522.12c0 0 1.31 4.5 7.54-0.41c0 0-3.85-4.17-7.54 0.41z" />
				<path class="s8" d="m236.75 517.58c0 0 1.31 4.5 7.54-0.41c0 0-3.85-4.17-7.54 0.41z" />
				<path class="s8" d="m216.46 531.45c0 0 1.31 4.5 7.55-0.41c0 0-3.85-4.17-7.55 0.41z" />
				<path class="s8" d="m231.52 518.8c0 0 1.31 4.5 7.54-0.41c0 0-3.85-4.17-7.54 0.41z" />
				<path class="s8" d="m245.75 517.64c0 0 4.6 0.9 3.09-6.89c0 0-5.47 1.51-3.09 6.89z" />
				<path class="s8" d="m241.92 519.39c0 0 4.6 0.9 3.09-6.89c0 0-5.47 1.51-3.09 6.89z" />
				<path class="s8" d="m213.19 545.21c0 0 4.6 0.9 3.09-6.89c0 0-5.47 1.51-3.09 6.89z" />
				<path class="s8" d="m232.69 527.06c0 0 4.6 0.9 3.09-6.89c0 0-5.47 1.51-3.09 6.89z" />
				<path class="s8" d="m226.97 526.79c0 0 3.65 2.95 5.96-4.64c0 0-5.54-1.23-5.96 4.64z" />
				<path class="s8" d="m226.89 529.15c0 0 3.65 2.95 5.96-4.64c0 0-5.54-1.23-5.96 4.64z" />
				<path class="s8" d="m215.31 536.74c0 0 3.65 2.95 5.96-4.64c0 0-5.54-1.23-5.96 4.64z" />
				<path class="s8" d="m214.7 540.49c0 0 3.65 2.95 5.96-4.64c0 0-5.54-1.23-5.96 4.64z" />
				<path class="s8" d="m212.09 544.08c0 0-4.41-1.6-4.13 6.32c0 0 5.64-0.64 4.13-6.32z" />
				<path class="s8" d="m215.22 535.71c0 0-4.41-1.6-4.13 6.33c0 0 5.64-0.64 4.13-6.33z" />
				<path class="s8" d="m234.88 521.52c0 0 2.16 4.16 7.32-1.87c0 0-4.59-3.34-7.32 1.87z" />
				<path class="s8" d="m224.17 531.03c0 0 2.16 4.16 7.32-1.87c0 0-4.59-3.34-7.32 1.87z" />
				<path class="s8" d="m229.22 521.79c0 0 2.16 4.16 7.32-1.87c0 0-4.59-3.34-7.32 1.87z" />
				<path class="s8" d="m218.34 536c0 0 2.16 4.16 7.32-1.87c0 0-4.59-3.34-7.32 1.87z" />
				<path class="s8" d="m222.43 527.2c0 0 2.16 4.16 7.32-1.87c0 0-4.58-3.34-7.32 1.87z" />
				<path class="s8" d="m221.38 529.99c0 0 2.16 4.16 7.32-1.87c0 0-4.59-3.34-7.32 1.87z" />
			</g>
			<g >
				<path class="s8" d="m226.79 509.98c0 0-1.41 4.47 6.5 3.85c0 0-0.88-5.6-6.5-3.85z" />
				<path class="s8" d="m222.64 509.3c0 0-1.41 4.47 6.5 3.85c0 0-0.88-5.6-6.5-3.85z" />
				<path class="s8" d="m195.13 514.42c0 0-1.41 4.47 6.5 3.85c0 0-0.88-5.6-6.5-3.85z" />
				<path class="s8" d="m219.35 509.83c0 0-1.41 4.47 6.5 3.85c0 0-0.88-5.6-6.5-3.85z" />
				<path class="s8" d="m179.9 516.21c0 0-1.41 4.47 6.5 3.85c0 0-0.88-5.6-6.5-3.85z" />
				<path class="s8" d="m211.4 512.81c0 0-1.41 4.47 6.5 3.85c0 0-0.88-5.6-6.5-3.85z" />
				<path class="s8" d="m217.97 511.74c0 0-1.41 4.47 6.5 3.85c0 0-0.88-5.6-6.5-3.85z" />
				<path class="s8" d="m193.39 512.01c0 0-1.41 4.47 6.5 3.85c0 0-0.88-5.6-6.5-3.85z" />
				<path class="s8" d="m212.94 509.86c0 0-1.41 4.47 6.5 3.85c0 0-0.88-5.6-6.5-3.85z" />
				<path class="s8" d="m225.43 516.79c0 0 3.33 3.3 6.4-4.01c0 0-5.39-1.78-6.4 4.01z" />
				<path class="s8" d="m221.27 516.12c0 0 3.33 3.3 6.4-4.01c0 0-5.39-1.78-6.4 4.01z" />
				<path class="s8" d="m183.03 521.63c0 0 3.33 3.3 6.4-4.01c0 0-5.39-1.78-6.4 4.01z" />
				<path class="s8" d="m209.33 517.38c0 0 3.33 3.3 6.4-4.01c0 0-5.39-1.78-6.4 4.01z" />
				<path class="s8" d="m204.72 513.98c0 0 1.4 4.48 7.53-0.55c0 0-3.92-4.1-7.53 0.55z" />
				<path class="s8" d="m203.35 515.88c0 0 1.4 4.48 7.53-0.55c0 0-3.92-4.09-7.53 0.55z" />
				<path class="s8" d="m189.5 515.76c0 0 1.4 4.48 7.53-0.55c0 0-3.92-4.09-7.53 0.55z" />
				<path class="s8" d="m186.91 518.54c0 0 1.4 4.48 7.53-0.55c0 0-3.92-4.09-7.53 0.55z" />
				<path class="s8" d="m182.74 520.08c0 0-2.77-3.78-6.95 2.96c0 0 5.04 2.6 6.95-2.96z" />
				<path class="s8" d="m189.99 514.85c0 0-2.77-3.78-6.95 2.97c0 0 5.04 2.6 6.95-2.97z" />
				<path class="s8" d="m214.23 513.98c0 0-0.51 4.66 7.13 2.51c0 0-1.96-5.32-7.13-2.51z" />
				<path class="s8" d="m200.04 515.94c0 0-0.51 4.66 7.13 2.51c0 0-1.96-5.32-7.13-2.51z" />
				<path class="s8" d="m209.37 511.06c0 0-0.51 4.66 7.13 2.51c0 0-1.96-5.32-7.13-2.51z" />
				<path class="s8" d="m192.43 516.84c0 0-0.51 4.66 7.13 2.51c0 0-1.96-5.32-7.13-2.51z" />
				<path class="s8" d="m200.72 511.79c0 0-0.51 4.66 7.13 2.51c0 0-1.96-5.32-7.13-2.51z" />
				<path class="s8" d="m198.3 513.53c0 0-0.51 4.66 7.13 2.51c0 0-1.96-5.32-7.13-2.51z" />
			</g>
			<g >
				<path class="s8" d="m237.22 493.16c0 0-4.65-0.63-2.69 7.06c0 0 5.37-1.82 2.69-7.06z" />
				<path class="s8" d="m237.18 488.95c0 0-4.65-0.63-2.69 7.06c0 0 5.37-1.82 2.69-7.06z" />
				<path class="s8" d="m227.45 462.73c0 0-4.65-0.63-2.69 7.06c0 0 5.37-1.82 2.69-7.06z" />
				<path class="s8" d="m236.1 485.8c0 0-4.65-0.63-2.69 7.06c0 0 5.37-1.82 2.69-7.06z" />
				<path class="s8" d="m223.09 448.03c0 0-4.65-0.63-2.69 7.06c0 0 5.37-1.82 2.69-7.06z" />
				<path class="s8" d="m231.81 478.47c0 0-4.65-0.63-2.69 7.06c0 0 5.37-1.82 2.69-7.06z" />
				<path class="s8" d="m233.98 484.77c0 0-4.65-0.63-2.69 7.06c0 0 5.37-1.82 2.69-7.06z" />
				<path class="s8" d="m229.53 460.6c0 0-4.65-0.63-2.69 7.06c0 0 5.37-1.82 2.69-7.06z" />
				<path class="s8" d="m234.98 479.5c0 0-4.65-0.63-2.69 7.06c0 0 5.37-1.82 2.69-7.06z" />
				<path class="s8" d="m230.27 492.97c0 0-2.69 3.84 5.05 5.62c0 0 0.84-5.61-5.05-5.62z" />
				<path class="s8" d="m230.23 488.76c0 0-2.69 3.84 5.05 5.62c0 0 0.84-5.61-5.05-5.62z" />
				<path class="s8" d="m218.28 452.03c0 0-2.69 3.84 5.05 5.62c0 0 0.84-5.61-5.05-5.62z" />
				<path class="s8" d="m226.96 477.21c0 0-2.69 3.84 5.05 5.62c0 0 0.84-5.61-5.05-5.62z" />
				<path class="s8" d="m229.52 472.1c0 0-4.18 2.14 1.83 7.33c0 0 3.37-4.56-1.83-7.33z" />
				<path class="s8" d="m227.41 471.07c0 0-4.18 2.14 1.83 7.33c0 0 3.37-4.56-1.83-7.33z" />
				<path class="s8" d="m225.17 457.4c0 0-4.18 2.14 1.83 7.33c0 0 3.37-4.56-1.83-7.33z" />
				<path class="s8" d="m221.99 455.33c0 0-4.18 2.14 1.83 7.33c0 0 3.37-4.56-1.83-7.33z" />
				<path class="s8" d="m219.77 451.49c0 0 3.26-3.38-4.11-6.34c0 0-1.71 5.41 4.11 6.34z" />
				<path class="s8" d="m226.15 457.74c0 0 3.26-3.38-4.11-6.34c0 0-1.7 5.41 4.11 6.34z" />
				<path class="s8" d="m231.14 481.46c0 0-4.68 0.29-1.26 7.45c0 0 4.91-2.83 1.26-7.45z" />
				<path class="s8" d="m226.79 467.82c0 0-4.68 0.29-1.26 7.45c0 0 4.91-2.83 1.26-7.45z" />
				<path class="s8" d="m233.19 476.18c0 0-4.68 0.29-1.26 7.45c0 0 4.91-2.84 1.26-7.45z" />
				<path class="s8" d="m224.61 460.47c0 0-4.68 0.29-1.26 7.44c0 0 4.91-2.83 1.26-7.44z" />
				<path class="s8" d="m231 467.78c0 0-4.68 0.29-1.26 7.44c0 0 4.91-2.83 1.26-7.44z" />
				<path class="s8" d="m228.87 465.7c0 0-4.68 0.29-1.26 7.45c0 0 4.91-2.83 1.26-7.45z" />
			</g>
			<g >
				<path class="s8" d="m238.09 498.53c0 0-4.51 1.28 0.37 7.54c0 0 4.19-3.82-0.37-7.54z" />
				<path class="s8" d="m236.37 494.69c0 0-4.51 1.28 0.37 7.54c0 0 4.19-3.82-0.37-7.54z" />
				<path class="s8" d="m216.93 474.57c0 0-4.51 1.29 0.37 7.54c0 0 4.19-3.82-0.37-7.54z" />
				<path class="s8" d="m234.11 492.24c0 0-4.51 1.28 0.37 7.54c0 0 4.19-3.82-0.37-7.54z" />
				<path class="s8" d="m207.05 462.85c0 0-4.51 1.28 0.37 7.54c0 0 4.19-3.82-0.37-7.54z" />
				<path class="s8" d="m227.25 487.24c0 0-4.51 1.28 0.37 7.54c0 0 4.19-3.82-0.37-7.54z" />
				<path class="s8" d="m231.76 492.14c0 0-4.51 1.29 0.37 7.54c0 0 4.19-3.82-0.37-7.54z" />
				<path class="s8" d="m217.99 471.78c0 0-4.51 1.29 0.37 7.54c0 0 4.19-3.82-0.37-7.54z" />
				<path class="s8" d="m230.56 486.91c0 0-4.51 1.28 0.37 7.54c0 0 4.19-3.82-0.37-7.54z" />
				<path class="s8" d="m231.65 501.14c0 0-0.92 4.6 6.88 3.13c0 0-1.48-5.48-6.88-3.13z" />
				<path class="s8" d="m229.92 497.3c0 0-0.92 4.6 6.88 3.13c0 0-1.48-5.47-6.88-3.13z" />
				<path class="s8" d="m204.25 468.44c0 0-0.92 4.6 6.88 3.13c0 0-1.48-5.48-6.88-3.13z" />
				<path class="s8" d="m222.29 488.04c0 0-0.92 4.6 6.88 3.13c0 0-1.48-5.48-6.88-3.13z" />
				<path class="s8" d="m222.59 482.32c0 0-2.97 3.63 4.61 5.98c0 0 1.26-5.53-4.61-5.98z" />
				<path class="s8" d="m220.24 482.22c0 0-2.97 3.63 4.61 5.98c0 0 1.26-5.53-4.61-5.98z" />
				<path class="s8" d="m212.71 470.6c0 0-2.97 3.63 4.61 5.98c0 0 1.26-5.53-4.61-5.98z" />
				<path class="s8" d="m208.97 469.98c0 0-2.97 3.63 4.61 5.98c0 0 1.26-5.53-4.61-5.98z" />
				<path class="s8" d="m205.39 467.35c0 0 1.63-4.4-6.3-4.16c0 0 0.61 5.64 6.3 4.16z" />
				<path class="s8" d="m213.74 470.52c0 0 1.63-4.4-6.3-4.16c0 0 0.61 5.64 6.3 4.16z" />
				<path class="s8" d="m227.83 490.25c0 0-4.17 2.14 1.83 7.33c0 0 3.36-4.57-1.83-7.33z" />
				<path class="s8" d="m218.37 479.5c0 0-4.17 2.14 1.83 7.32c0 0 3.36-4.57-1.83-7.32z" />
				<path class="s8" d="m227.59 484.59c0 0-4.17 2.14 1.83 7.33c0 0 3.36-4.57-1.83-7.33z" />
				<path class="s8" d="m213.43 473.64c0 0-4.17 2.14 1.83 7.32c0 0 3.36-4.57-1.83-7.32z" />
				<path class="s8" d="m222.21 477.77c0 0-4.17 2.14 1.83 7.32c0 0 3.36-4.57-1.83-7.32z" />
				<path class="s8" d="m219.43 476.71c0 0-4.17 2.14 1.83 7.33c0 0 3.36-4.57-1.83-7.33z" />
			</g>
			<path class="s3" d="m405.3 472.01c0 0-5.41 0.18-5.4 4.08" />
			<path class="s3" d="m401.22 473.36c0 0-5.26-0.7-5.78 3.64" />
			<path class="s3" d="m396.09 475.16c0 0-5 0.13-5 3.55" />
			<path class="s3" d="m391.68 476.94c0 0-2.3-1.91-5.86 1.78" />
			<path class="s3" d="m388 477.01c0 0-1.4-2.48-4.94-0.92" />
			<path class="s3" d="m387.06 476.09c1.63-5.39 6.53-4.08 6.53-4.08c2.63-3.29 9.87 0.3 9.87 0.3" />
		</g>
		<path class="s3" d="m91.71 206.67l5.77-3.41" />
		<g >
			<path class="s2" d="m300.04 125.91c0 0-10.67 33.61-26.7 53.26c-16.03 19.65-61.34 71.63-115.92 71.63c-54.58 0-71.09-45.24-68.99-67.34l11.23-5.54l26.99 40.3l34.87 14.74l39.36-18.24l46.46-32.96l31.86-40.02v-12.63l20.84-3.2z" />
			<path class="s0" d="m251.36 146.74l6.41-22.97l34.56-10.61c-3.96 62.09-103.43 140.43-149.76 128.32c-46.33-12.11-52.13-60.79-52.13-60.79l19.74-9.47c15.01 7.37 48.79 32.63 48.79 32.63c27.2-16.84 70.2-31.84 70.2-31.84c8.69-18.16 22.18-25.26 22.18-25.26v0z" />
			<path class="s9" d="m133.36 218.59c0 0 11.39 30.63 65.9-3.11c0 0-47.29 19.95-65.9 3.11z" />
			<path class="s9" d="m235.24 174.73c10.27 5.61 22.53-7.37 22.53-7.37c-9.67 20.35-29.78 24.43-29.78 24.43c14.6-7.5 7.25-17.06 7.25-17.06v0z" />
			<path class="s9" d="m156.26 208.06c0 0-10.53 10-21.32-4.21c0 0 8.42 5.26 21.32 4.21z" />
			<path class="s3" d="m96.08 216.69l6.62-4.08" />
			<path class="s3" d="m102.7 226.74l6.86-5.16" />
			<path class="s3" d="m111.94 236.06l5.38-7.12" />
			<path class="s3" d="m125.24 244.31l4.11-7.72" />
			<path class="s3" d="m141.93 249.47l2-7.67" />
			<path class="s3" d="m162.31 250.16v-8.42" />
			<path class="s3" d="m182.06 247.38l-1.93-10.22" />
			<path class="s3" d="m199.25 241.08l-2.71-11.24" />
			<path class="s3" d="m295 139.66l-9.8 0.84" />
			<path class="s3" d="m289.66 151.95l-9-2.23" />
			<path class="s3" d="m283.7 163.6l-8.97-3.96" />
			<path class="s3" d="m215.21 232.5l-4.37-10.92" />
			<path class="s3" d="m231.29 221.24l-5.4-10.18" />
			<path class="s3" d="m276.25 175.39l-9.22-4.9" />
			<path class="s3" d="m244.08 210.42l-5.42-9.83" />
			<path class="s3" d="m268.13 185.43l-8.66-5.71" />
			<path class="s3" d="m256.91 197.86l-8.04-6.83" />
		</g>
		<g >
			<path class="s2" d="m82.11 479.27c0 0-3.16 22.08-35.1 32.45c0 0-0.73-7.16 3.76-12.08l3.26-7.92l12.41-9.28l7.24-10.63l2.5-14.28l5.22 3.51l0.7 18.23z" />
			<path class="s0" d="m82.11 463.5c0 0-7.95 26.3-32.43 37.52c0 0 7.86-38.42 15.75-57.27l16.67 19.75v0z" />
			<path class="s9" d="m67.45 451.4l8.03 7.59l-8.22 19.47c-0.8-12.41 0.19-27.06 0.19-27.06h0z" />
			<path class="s2" d="m54.55 417.21l9.48 4.34l12.81 4.67l5.27 14.47c4.56 8.26 0 37.53 0 37.53c-2.46-22.46-17.9-27.02-26.33-32.98c-8.42-5.97-3.69-20.73-3.69-20.73l2.46-7.3z" />
			<path class="s1" d="m80 389.64c0 0 3.33 42.11 2.11 51.05c0 0-4.56-8.39-11.06-8.67c-6.49-0.29-22.29-7.87-18.25-18.61l27.2-23.76z" />
			<path class="s2" d="m57.5 388.06l31.81-28.07l2.46 10.83c2.63 12.59-10.18 24.96-20.71 32.09c-10.53 7.14-18.95 21.59-18.95 21.59c-1.93-10.22 0.7-21.59 0.7-21.59l4.7-14.86z" />
			<path class="s0" d="m89.3 362.96c0 0-25.45 25.34-36.51 39.96c0 0 1.05-32.81 9.13-58.75l27.38 18.79v0z" />
			<path class="s9" d="m82.11 353.85l-14.74 20.24l2.4-24.54l12.34 4.3z" />
			<path class="s2" d="m90.44 353.85c0 0 1.32 8.95 1.32 16.97c0 0-2.9-6.34-14.48-9.82c-11.58-3.47-22.41-15.01-19.22-26.11l-0.57-7.8l13.2-10.02l11.41 25.86l8.34 10.91z" />
			<path class="s1" d="m87.72 302.27c0 0 2.72 41.32 2.72 51.58c0 0-32.64-13.76-29.75-26.75l3.16-18.53l23.87-6.31z" />
			<path class="s2" d="m55.78 323.66l5.18-11.03l23.85-18.59l25.91-3.91l3.92 11.29c-1.87 19.15-27.09 15.06-42.62 22.25c-15.53 7.18-12.9 22.25-12.9 22.25c-6.58-10.05-3.33-22.25-3.33-22.25h0z" />
			<path class="s0" d="m88.44 183.47l3.27-1.62l20.23 107.41c1.76 11.73-13.69 19.5-27.73 19.67c-14.04 0.17-28.43 14.73-28.43 14.73c0-18.08 22.47-74.55 21.06-91.16c-1.4-16.61 11.6-49.03 11.6-49.03v0z" />
			<path class="s9" d="m92.26 184.73l-7.45 31.95l4.5-31.25l2.95-0.7z" />
			<path class="s9" d="m93.34 197.86v78.73l-11.23 12c3.51-27.89 11.23-90.73 11.23-90.73v0z" />
			<path class="s2" d="m102.7 270.34l10.39 14.91c3.08 11.58 1.54 16.16 1.54 16.16c-9.07-11.38-25.33-22.86-25.33-22.86l1.14-13.66l12.25 5.44z" />
			<path class="s1" d="m91.71 184.73c8.11 27.2 21.38 100.52 21.38 100.52l-22.64-20.35c0.79-13.68 1.27-80.17 1.27-80.17v0z" />
			<path class="s3" d="m97.98 271.68l-0.91 12.82" />
			<path class="s3" d="m108.47 281.1l1.09 14.62" />
			<path class="s3" d="m104.89 302.84l1.13 11.35" />
			<path class="s3" d="m84.39 309.11v10.53" />
			<path class="s3" d="m65.43 315.43v12.63" />
			<path class="s3" d="m65.43 338.59v15.79" />
			<path class="s3" d="m79.12 348.06v13.68" />
			<path class="s3" d="m61.63 392.25l-1.12 20.53" />
			<path class="s3" d="m73.86 378.59v22.11" />
			<path class="s3" d="m84.39 367.93l0.42 22.9" />
			<path class="s3" d="m60.51 428.34l-0.83 19.37" />
			<path class="s3" d="m71.75 432.08l-0.7 23.35" />
			<path class="s3" d="m80.33 438.03l-0.82 29.37" />
			<path class="s3" d="m57 496.93l-2.64 11.99" />
			<path class="s3" d="m67.45 487.99l-2.92 15.3" />
			<path class="s3" d="m77.56 473.81l-2.83 20.18" />
		</g>
		<g >
			<path class="s2" d="m84.11 181.61l3.62 1.48c-27.03 52.22-10.53 89.12-10.53 89.12c0 0 15.09 23.58 9.59 54.9c-5.51 31.32-35.03 35.69-35.03 35.69v-4.21c23.17-5.96 43.62-31.31 23.15-78.83c-20.47-47.53 9.21-98.15 9.21-98.15h0z" />
			<path class="s2" d="m53.65 362.4c-3.36 10.31-9.46 11.69-9.46 11.69l-4.91-8.91c5.09-11.82 13.51-6.89 13.51-6.89l0.86 4.11z" />
			<path class="s3" d="m40.51 367.42l4.74-5.67" />
			<path class="s3" d="m42.07 370.23l4.4-5.65" />
			<path class="s3" d="m42.88 371.71l5-4.3" />
		</g>
		<g >
			<path class="s2" d="m84.72 187.98c-0.2 5.27-2.44 12.81-4.48 15.08c-2.04 2.27-6.53 1.21-6.78-8.16c-0.24-9.37 8.39-9.32 8.39-9.32l-1.97-2.49c-12.05-0.53-10.9 22.38-2.11 24c8.79 1.62 9.01-18.36 9.01-18.36l-2.06-0.74z" />
			<path class="s2" d="m118.09 171.74l2.98 2.11c-4.04 13.33-28.43 16.67-33 17.72c-4.57 1.05-5.97-2.11-5.97-2.11l35.98-17.72z" />
			<path class="s2" d="m124.05 164.2c5.09 1.93 11.93 7.37 13.69 10.88c1.76 3.51-0.29 9.31-9.48 6.69c-9.19-2.62-7.2-14.41-7.2-14.41l-2.87 1.91c-3.22 16.3 19.37 21.95 22.92 10.45c3.55-11.5-15.88-18.1-15.88-18.1l-1.19 2.58z" />
			<path class="s2" d="m105.95 179.23l-2.49 1.37c2.94 4.58 5.19 13.03 4.5 16.89c-0.68 3.86-5.78 7.31-11.6-0.28c-5.82-7.58 2.81-15.85 2.81-15.85l-3.45-0.17c-12.31 11.17 2.46 29.16 12.17 22.04c9.71-7.12-1.96-23.99-1.96-23.99h0z" />
			<path class="s0" d="m105.98 145.16c18.17-4.74 17.11 10.26 22.64 13.16c5.53 2.89-1.58 3.95-1.32 10.95c0.26 7-9.46 6.21-9.46 6.21c-5.77 8.47-25.56 13.79-31.35 13.89c-5.79 0.11-3.42 5.53-12.64 5.53c-9.21 0-5-8.16-8.95-14.74c-3.95-6.58 7.37-15.26 7.37-15.26c-8.69-7.11 4.21-7.89 7.11-15.26c2.9-7.37 11.06 0 11.06 0c4.48-10 15.53-4.47 15.53-4.47v0z" />
			<path class="s9" d="m97.4 175.08c-4.01-6.67-9.14-2.43-9.14-2.43c-6.83 8.8-13.18 5.29-13.18 5.29c9.3-4.02 7.02-10.59 7.02-10.59c17.47-6.91 15.29 7.72 15.29 7.72z" />
			<path class="s9" d="m113.09 156.83c0 0-8.17 0.35-5.01 10.52c0 0-17.37-15.08 5.01-10.52z" />
		</g>
		<g >
			<path class="s2" d="m525.43 170.19c0 0 29.91 44.99 9.45 87.22c-20.47 42.24 0.21 64.76 23.38 70.06v3.74c0 0-29.76-3.88-35.27-31.72c-5.51-27.84 9.47-48.79 9.47-48.79c0 0 16.44-32.79-10.59-79.2l3.56-1.31v0z" />
			<path class="s2" d="m552.44 326.26c0 0 6.15-7.58 15.08 1.69l-1.46 10.07c0 0-6.2 0.85-12.97-7.61l-0.64-4.14z" />
			<path class="s3" d="m567.15 330.47l-6.43-3.64" />
			<path class="s3" d="m566.69 333.65l-6.11-3.74" />
			<path class="s3" d="m566.44 335.32l-6.2-2.27" />
		</g>
		<g >
			<path class="s2" d="m321.32 129.11v12.63l31.63 40.02l46.23 32.96l39.36 18.24l34.87-14.74l27-40.3l11.24 5.54c2.11 22.11-14.38 67.34-68.96 67.34c-54.58 0-99.83-51.99-115.86-71.63c-16.03-19.65-26.58-53.26-26.58-53.26l21.07 3.2z" />
			<path class="s0" d="m348.11 146.74c0 0 14.08 7.11 22.77 25.26c0 0 43 15 70.2 31.84c0 0 33.79-25.26 48.79-32.63l19.74 9.47c0 0-5.79 48.68-52.13 60.79c-46.33 12.11-145.8-66.24-149.76-128.32l34.56 10.61l5.82 22.97v0z" />
			<path class="s9" d="m466.71 218.59c0 0-11.39 30.63-65.9-3.11c0 0 47.29 19.95 65.9 3.11z" />
			<path class="s9" d="m364.83 174.73c0 0-7.34 9.55 7.25 17.06c0 0-20.11-4.07-29.78-24.43c0 0 12.26 12.98 22.53 7.37v0z" />
			<path class="s9" d="m443.8 208.06c0 0 10.53 10 21.32-4.21c0 0-8.42 5.26-21.32 4.21z" />
			<path class="s3" d="m503.99 216.69l-6.62-4.08" />
			<path class="s3" d="m497.37 226.74l-6.86-5.16" />
			<path class="s3" d="m488.12 236.06l-5.38-7.12" />
			<path class="s3" d="m474.82 244.31l-4.11-7.72" />
			<path class="s3" d="m458.13 249.47l-2-7.67" />
			<path class="s3" d="m438.21 250.16v-8.42" />
			<path class="s3" d="m418.01 247.38l1.93-10.22" />
			<path class="s3" d="m400.81 241.08l2.71-11.24" />
			<path class="s3" d="m305.07 139.66l9.8 0.84" />
			<path class="s3" d="m310.4 151.95l9-2.23" />
			<path class="s3" d="m316.36 163.6l8.97-3.96" />
			<path class="s3" d="m384.86 232.5l4.37-10.92" />
			<path class="s3" d="m368.78 221.24l5.4-10.18" />
			<path class="s3" d="m323.81 175.39l9.22-4.9" />
			<path class="s3" d="m355.98 210.42l5.42-9.83" />
			<path class="s3" d="m331.94 185.43l8.66-5.71" />
			<path class="s3" d="m343.16 197.86l8.04-6.83" />
		</g>
		<g >
			<path class="s2" d="m517.96 479.27l0.7-18.23l5.22-3.51l2.5 14.28l7.25 10.63l12.41 9.28l3.26 7.92c4.49 4.92 3.76 12.08 3.76 12.08c-31.94-10.37-35.1-32.45-35.1-32.45h0z" />
			<path class="s0" d="m517.96 463.5l16.67-19.75c7.9 18.85 15.75 57.27 15.75 57.27c-24.47-11.22-32.43-37.52-32.43-37.52v0z" />
			<path class="s9" d="m532.61 451.4c0 0 0.99 14.65 0.19 27.06l-8.22-19.47l8.03-7.59z" />
			<path class="s2" d="m547.97 424.51c0 0 4.74 14.76-3.69 20.73c-8.42 5.97-23.87 10.53-26.33 32.98c0 0-4.56-29.28 0-37.53l5.27-14.47l12.81-4.67l9.48-4.34l2.46 7.3z" />
			<path class="s1" d="m547.27 413.4c4.04 10.74-11.76 18.33-18.25 18.61c-6.49 0.29-11.06 8.67-11.06 8.67c-1.23-8.93 2.11-51.05 2.11-51.05l27.2 23.76z" />
			<path class="s2" d="m547.27 402.92c0 0 2.63 11.37 0.7 21.59c0 0-8.42-14.45-18.95-21.59c-10.53-7.14-23.34-19.51-20.71-32.09l2.46-10.83l31.81 28.07l4.7 14.86h0z" />
			<path class="s0" d="m510.76 362.96l27.38-18.79c8.07 25.94 9.13 58.75 9.13 58.75c-11.06-14.61-36.51-39.96-36.51-39.96v0z" />
			<path class="s9" d="m530.3 349.55l2.4 24.54l-14.74-20.24l12.34-4.3z" />
			<path class="s2" d="m509.62 353.85l8.34-10.91l11.41-25.86l13.2 10.02l-0.57 7.8c3.19 11.09-7.63 22.63-19.22 26.11c-11.58 3.47-14.48 9.82-14.48 9.82c0-8.03 1.32-16.97 1.32-16.97h0z" />
			<path class="s1" d="m512.34 302.27l23.87 6.31l3.16 18.53c2.9 12.99-29.75 26.75-29.75 26.75c0-10.26 2.72-51.58 2.72-51.58h0z" />
			<path class="s2" d="m544.28 323.66c0 0 3.25 12.2-3.33 22.25c0 0 2.63-15.06-12.9-22.25c-15.53-7.18-40.75-3.1-42.62-22.25l3.92-11.29l25.91 3.91l23.85 18.59l5.18 11.03z" />
			<path class="s0" d="m511.63 183.47c0 0 13 32.41 11.6 49.03c-1.4 16.61 21.06 73.08 21.06 91.16c0 0-14.39-14.56-28.43-14.73c-14.04-0.17-29.49-7.94-27.73-19.67l20.23-107.41l3.27 1.62l0 0z" />
			<path class="s9" d="m510.76 185.43l4.5 31.25l-7.45-31.95l2.95 0.7z" />
			<path class="s9" d="m507.19 197.86c0 0 7.72 62.84 11.23 90.73l-11.23-12v-78.73v0z" />
			<path class="s2" d="m509.62 264.9l1.14 13.66c0 0-16.26 11.48-25.33 22.86c0 0-1.53-4.58 1.55-16.16l10.39-14.91l12.25-5.44l0 0z" />
			<path class="s1" d="m508.35 184.73c0 0 0.48 66.49 1.27 80.17l-22.64 20.35c0 0 13.26-73.32 21.38-100.52h0z" />
			<path class="s3" d="m502.08 271.68l0.91 12.82" />
			<path class="s3" d="m491.6 281.1l-1.09 14.62" />
			<path class="s3" d="m495.17 302.84l-1.13 11.35" />
			<path class="s3" d="m516.14 309.11v10.53" />
			<path class="s3" d="m535.09 315.43v12.63" />
			<path class="s3" d="m535.09 338.59v15.79" />
			<path class="s3" d="m521.4 348.06v13.68" />
			<path class="s3" d="m538.43 392.25l1.12 20.53" />
			<path class="s3" d="m526.67 378.59v22.11" />
			<path class="s3" d="m515.68 367.93l-0.42 22.9" />
			<path class="s3" d="m539.55 428.34l0.83 19.37" />
			<path class="s3" d="m528.31 432.08l0.7 23.35" />
			<path class="s3" d="m519.73 438.03l0.82 29.37" />
			<path class="s3" d="m543.06 496.93l2.64 11.99" />
			<path class="s3" d="m532.61 487.99l2.92 15.3" />
			<path class="s3" d="m522.5 473.81l2.83 20.18" />
		</g>
		<g >
			<path class="s2" d="m515.95 181.61c0 0 29.91 50.62 9.45 98.15c-20.47 47.53 0.21 72.87 23.38 78.83v4.21c0 0-29.76-4.37-35.27-35.69c-5.51-31.32 9.47-54.9 9.47-54.9c0 0 16.44-36.9-10.59-89.12l3.56-1.48z" />
			<path class="s2" d="m547.27 358.3c0 0 8.42-4.93 13.51 6.89l-4.92 8.91c0 0-6.1-1.38-9.46-11.69l0.86-4.11h0z" />
			<path class="s3" d="m559.55 367.42l-4.74-5.67" />
			<path class="s3" d="m558 370.23l-4.4-5.65" />
			<path class="s3" d="m557.18 371.71l-5-4.3" />
		</g>
		<g >
			<path class="s2" d="m513.28 188.73c0 0 0.22 19.98 9.01 18.36c8.79-1.62 9.94-24.52-2.11-24l-1.97 2.49c0 0 8.64-0.06 8.39 9.32c-0.24 9.37-4.73 10.43-6.78 8.16c-2.04-2.27-4.28-9.81-4.48-15.08l-2.06 0.74z" />
			<path class="s2" d="m517.96 189.46c0 0-1.4 3.16-5.97 2.11c-4.57-1.05-28.96-4.39-33-17.72l2.98-2.11l35.98 17.72z" />
			<path class="s2" d="m474.82 161.62c0 0-19.43 6.6-15.88 18.1c3.55 11.5 26.14 5.85 22.92-10.45l-2.87-1.91c0 0 2 11.78-7.2 14.41c-9.19 2.62-11.23-3.18-9.48-6.69c1.76-3.51 8.6-8.95 13.69-10.88l-1.19-2.58z" />
			<path class="s2" d="m494.12 179.23c0 0-11.66 16.87-1.96 23.99c9.71 7.12 24.48-10.88 12.17-22.04l-3.45 0.17c0 0 8.63 8.27 2.81 15.85c-5.82 7.58-10.91 4.14-11.6 0.28c-0.68-3.86 1.57-12.31 4.5-16.89l-2.49-1.37z" />
			<path class="s0" d="m494.09 145.16c0 0 11.06-5.53 15.53 4.47c0 0 8.16-7.37 11.06 0c2.9 7.37 15.8 8.16 7.11 15.26c0 0 11.32 8.68 7.37 15.26c-3.95 6.58 0.26 14.74-8.95 14.74c-9.21 0-6.85-5.42-12.64-5.53c-5.79-0.11-25.57-5.42-31.35-13.89c0 0-9.72 0.79-9.46-6.21c0.26-7-6.84-8.05-1.32-10.95c5.53-2.89 4.48-17.9 22.64-13.16l0 0z" />
			<path class="s9" d="m517.96 167.36c0 0-2.28 6.57 7.02 10.59c0 0-6.34 3.51-13.18-5.29c0 0-5.12-4.24-9.14 2.43c0 0-2.17-14.64 15.29-7.72v0z" />
			<path class="s9" d="m486.98 156.83c0 0 8.17 0.35 5.01 10.52c0 0 17.37-15.08-5.01-10.52z" />
		</g>
		<g >
			<path class="s2" d="m299.74 53.32l-11.32-18.16l11.32-35.53l11.32 35.53l-11.32 18.16z" />
			<path class="s2" d="m237.69 61.92c0 0 11.61-1.75 12.82 2.99c1.21 4.74-52.77 2.46-15.35 47.02l-2.87 1.58c0 0-22.15-12.28-21.03-28.77c1.12-16.49 26.43-22.81 26.43-22.81z" />
			<path class="s2" d="m286.97 49.77c0 0 11.9-12.3 25.99 0.07c0 0 17.86-6.41 19.31 2.93l-11.8 1.73c0 0-13.97 35.15-13.93 62.52h-13.13c0 0-2.11-32.5-13.95-62.37l-11.85-1.84c0 0-1.45-8.29 19.35-3.03z" />
			<path class="s2" d="m267.78 51.4c0 0 12.79-1.75 14.13 2.99c1.33 4.74-58.16 2.46-16.92 47.02l-3.16 1.58c0 0-24.42-12.28-23.18-28.77c1.24-16.49 29.13-22.81 29.13-22.81v0z" />
			<path class="s2" d="m264.99 110.52c-3.2 0-5.79-2.59-5.79-5.79c0-3.2 2.59-5.79 5.79-5.79c3.2 0 5.79 2.59 5.79 5.79c0 3.2-2.59 5.79-5.79 5.79z" />
			<path class="s2" d="m236.55 118.94c-3.2 0-5.79-2.59-5.79-5.79c0-3.2 2.59-5.79 5.79-5.79c3.2 0 5.79 2.59 5.79 5.79c0 3.2-2.59 5.79-5.79 5.79z" />
			<path class="s2" d="m244.45 126.53c60.13-28.93 110.57 0 110.57 0l-6.91 20.21c-51.69-27.53-96.75 0-96.75 0l-6.91-20.21h0z" />
			<path class="s2" d="m388.32 84.74c1.12 16.49-21.03 28.77-21.03 28.77l-2.87-1.58c37.42-44.56-16.56-42.28-15.35-47.02c1.21-4.74 12.82-2.99 12.82-2.99c0 0 25.3 6.32 26.43 22.81z" />
			<path class="s2" d="m331.81 51.4c0 0 27.89 6.32 29.13 22.81c1.24 16.49-23.18 28.77-23.18 28.77l-3.16-1.58c41.24-44.56-18.25-42.28-16.92-47.02c1.34-4.74 14.13-2.99 14.13-2.99v0z" />
			<path class="s2" d="m334.6 110.52c-3.2 0-5.79-2.59-5.79-5.79c0-3.2 2.59-5.79 5.79-5.79c3.2 0 5.79 2.59 5.79 5.79c0 3.2-2.59 5.79-5.79 5.79z" />
			<path class="s2" d="m363.03 118.94c-3.2 0-5.79-2.59-5.79-5.79c0-3.2 2.59-5.79 5.79-5.79c3.2 0 5.79 2.59 5.79 5.79c0 3.2-2.59 5.79-5.79 5.79z" />
			<path class="s2" d="m299.74 60.67c-3 0-5.42-2.42-5.42-5.42c0-3 2.42-5.42 5.42-5.42c3 0 5.42 2.42 5.42 5.42c0 3-2.42 5.42-5.42 5.42z" />
			<path class="s2" d="m259.72 58.56c-3 0-5.42-2.42-5.42-5.42c0-3 2.42-5.42 5.42-5.42c3 0 5.42 2.42 5.42 5.42c0 3-2.42 5.42-5.42 5.42z" />
			<path class="s2" d="m236.55 66.99c-3 0-5.42-2.42-5.42-5.42c0-3 2.42-5.42 5.42-5.42c3 0 5.42 2.42 5.42 5.42c0 3-2.42 5.42-5.42 5.42z" />
			<path class="s2" d="m228.13 70.14c-3 0-5.42-2.42-5.42-5.42c0-3 2.42-5.42 5.42-5.42c3 0 5.42 2.42 5.42 5.42c0 3-2.42 5.42-5.42 5.42z" />
			<path class="s2" d="m220.76 74.35c-3 0-5.42-2.42-5.42-5.42c0-3 2.42-5.42 5.42-5.42c3 0 5.42 2.42 5.42 5.42c0 3-2.42 5.42-5.42 5.42z" />
			<path class="s2" d="m214.44 79.62c-3 0-5.42-2.42-5.42-5.42c0-3 2.42-5.42 5.42-5.42c3 0 5.42 2.42 5.42 5.42c0 3-2.42 5.42-5.42 5.42z" />
			<path class="s2" d="m211.28 88.04c-3 0-5.42-2.42-5.42-5.42c0-3 2.42-5.42 5.42-5.42c3 0 5.42 2.42 5.42 5.42c0 3-2.42 5.42-5.42 5.42z" />
			<path class="s2" d="m211.28 96.46c-3 0-5.42-2.42-5.42-5.42c0-3 2.42-5.42 5.42-5.42c3 0 5.42 2.42 5.42 5.42c0 3-2.42 5.42-5.42 5.42z" />
			<path class="s2" d="m214.44 104.88c-3 0-5.42-2.42-5.42-5.42c0-3 2.42-5.42 5.42-5.42c3 0 5.42 2.42 5.42 5.42c0 3-2.42 5.42-5.42 5.42z" />
			<path class="s2" d="m219.71 111.2c-3 0-5.42-2.42-5.42-5.42c0-3 2.42-5.42 5.42-5.42c3 0 5.42 2.42 5.42 5.42c0 3-2.42 5.42-5.42 5.42z" />
			<path class="s2" d="m362.92 66.98c-3 0-5.42-2.42-5.42-5.42c0-3 2.42-5.42 5.42-5.42c3 0 5.42 2.42 5.42 5.42c0 3-2.42 5.42-5.42 5.42z" />
			<path class="s2" d="m371.34 70.14c-3 0-5.42-2.42-5.42-5.42c0-3 2.42-5.42 5.42-5.42c3 0 5.42 2.42 5.42 5.42c0 3-2.42 5.42-5.42 5.42z" />
			<path class="s2" d="m378.72 74.35c-3 0-5.42-2.42-5.42-5.42c0-3 2.42-5.42 5.42-5.42c3 0 5.42 2.42 5.42 5.42c0 3-2.42 5.42-5.42 5.42z" />
			<path class="s2" d="m385.03 79.62c-3 0-5.42-2.42-5.42-5.42c0-3 2.42-5.42 5.42-5.42c3 0 5.42 2.42 5.42 5.42c0 3-2.42 5.42-5.42 5.42z" />
			<path class="s2" d="m388.19 88.04c-3 0-5.42-2.42-5.42-5.42c0-3 2.42-5.42 5.42-5.42c3 0 5.42 2.42 5.42 5.42c0 3-2.42 5.42-5.42 5.42z" />
			<path class="s2" d="m388.19 96.46c-3 0-5.42-2.42-5.42-5.42c0-3 2.42-5.42 5.42-5.42c3 0 5.42 2.42 5.42 5.42c0 3-2.42 5.42-5.42 5.42z" />
			<path class="s2" d="m385.03 104.88c-3 0-5.42-2.42-5.42-5.42c0-3 2.42-5.42 5.42-5.42c3 0 5.42 2.42 5.42 5.42c0 3-2.42 5.42-5.42 5.42z" />
			<path class="s2" d="m379.77 111.19c-3 0-5.42-2.42-5.42-5.42c0-3 2.42-5.42 5.42-5.42c3 0 5.42 2.42 5.42 5.42c0 3-2.42 5.42-5.42 5.42z" />
			<path class="s2" d="m250.24 61.72c-3 0-5.42-2.42-5.42-5.42c0-3 2.42-5.42 5.42-5.42c3 0 5.42 2.42 5.42 5.42c0 3-2.42 5.42-5.42 5.42z" />
			<path class="s2" d="m243.93 66.99c-3 0-5.42-2.42-5.42-5.42c0-3 2.42-5.42 5.42-5.42c3 0 5.42 2.42 5.42 5.42c0 3-2.42 5.42-5.42 5.42z" />
			<path class="s2" d="m239.71 74.35c-3 0-5.42-2.42-5.42-5.42c0-3 2.42-5.42 5.42-5.42c3 0 5.42 2.42 5.42 5.42c0 3-2.42 5.42-5.42 5.42z" />
			<path class="s2" d="m238.66 83.83c-3 0-5.42-2.42-5.42-5.42c0-3 2.42-5.42 5.42-5.42c3 0 5.42 2.42 5.42 5.42c0 3-2.42 5.42-5.42 5.42z" />
			<path class="s2" d="m241.82 91.2c-3 0-5.42-2.42-5.42-5.42c0-3 2.42-5.42 5.42-5.42c3 0 5.42 2.42 5.42 5.42c0 3-2.42 5.42-5.42 5.42z" />
			<path class="s2" d="m247.08 98.56c-3 0-5.42-2.42-5.42-5.42c0-3 2.42-5.42 5.42-5.42c3 0 5.42 2.42 5.42 5.42c0 3-2.42 5.42-5.42 5.42z" />
			<path class="s2" d="m252.35 103.83c-3 0-5.42-2.42-5.42-5.42c0-3 2.42-5.42 5.42-5.42c3 0 5.42 2.42 5.42 5.42c0 3-2.42 5.42-5.42 5.42z" />
			<path class="s2" d="m339.75 58.56c-3 0-5.42-2.42-5.42-5.42c0-3 2.42-5.42 5.42-5.42c3 0 5.42 2.42 5.42 5.42c0 3-2.42 5.42-5.42 5.42z" />
			<path class="s2" d="m349.23 61.72c-3 0-5.42-2.42-5.42-5.42c0-3 2.42-5.42 5.42-5.42c3 0 5.42 2.42 5.42 5.42c0 3-2.42 5.42-5.42 5.42z" />
			<path class="s2" d="m355.55 66.98c-3 0-5.42-2.42-5.42-5.42c0-3 2.42-5.42 5.42-5.42c3 0 5.42 2.42 5.42 5.42c0 3-2.42 5.42-5.42 5.42z" />
			<path class="s2" d="m359.76 74.35c-3 0-5.42-2.42-5.42-5.42c0-3 2.42-5.42 5.42-5.42c3 0 5.42 2.42 5.42 5.42c0 3-2.42 5.42-5.42 5.42z" />
			<path class="s2" d="m360.81 83.83c-3 0-5.42-2.42-5.42-5.42c0-3 2.42-5.42 5.42-5.42c3 0 5.42 2.42 5.42 5.42c0 3-2.42 5.42-5.42 5.42z" />
			<path class="s2" d="m357.65 91.19c-3 0-5.42-2.42-5.42-5.42c0-3 2.42-5.42 5.42-5.42c3 0 5.42 2.42 5.42 5.42c0 3-2.42 5.42-5.42 5.42z" />
			<path class="s2" d="m352.39 98.56c-3 0-5.42-2.42-5.42-5.42c0-3 2.42-5.42 5.42-5.42c3 0 5.42 2.42 5.42 5.42c0 3-2.42 5.42-5.42 5.42z" />
			<path class="s2" d="m347.12 103.83c-3 0-5.42-2.42-5.42-5.42c0-3 2.42-5.42 5.42-5.42c3 0 5.42 2.42 5.42 5.42c0 3-2.42 5.42-5.42 5.42z" />
			<path class="s2" d="m299.74 69.09c-3 0-5.42-2.42-5.42-5.42c0-3 2.42-5.42 5.42-5.42c3 0 5.42 2.42 5.42 5.42c0 3-2.42 5.42-5.42 5.42z" />
			<path class="s2" d="m299.74 77.51c-3 0-5.42-2.42-5.42-5.42c0-3 2.42-5.42 5.42-5.42c3 0 5.42 2.42 5.42 5.42c0 3-2.42 5.42-5.42 5.42z" />
			<path class="s2" d="m299.74 85.93c-3 0-5.42-2.42-5.42-5.42c0-3 2.42-5.42 5.42-5.42c3 0 5.42 2.42 5.42 5.42c0 3-2.42 5.42-5.42 5.42z" />
			<path class="s2" d="m299.74 94.35c-3 0-5.42-2.42-5.42-5.42c0-3 2.42-5.42 5.42-5.42c3 0 5.42 2.42 5.42 5.42c0 3-2.42 5.42-5.42 5.42z" />
			<path class="s2" d="m299.74 102.77c-3 0-5.42-2.42-5.42-5.42c0-3 2.42-5.42 5.42-5.42c3 0 5.42 2.42 5.42 5.42c0 3-2.42 5.42-5.42 5.42z" />
			<path class="s2" d="m299.74 111.2c-3 0-5.42-2.42-5.42-5.42c0-3 2.42-5.42 5.42-5.42c3 0 5.42 2.42 5.42 5.42c0 3-2.42 5.42-5.42 5.42z" />
			<path class="s2" d="m267.77 113.41c1.78 6.59-3.21 13.66-11.16 15.81c-7.94 2.15-15.82-1.45-17.6-8.04c-1.2-4.43 0.68-9.08 4.45-12.3c-0.57 1.64-0.67 3.45-0.18 5.25c1.29 4.76 6.2 7.58 10.96 6.29c4.77-1.29 7.58-6.19 6.3-10.95c-0.49-1.8-1.49-3.32-2.8-4.44c4.88 0.89 8.84 3.96 10.04 8.39z" />
			<path class="s2" d="m341.85 105.02c-1.31 1.13-2.32 2.65-2.8 4.44c-1.29 4.76 1.53 9.67 6.3 10.95c4.77 1.29 9.67-1.53 10.96-6.29c0.49-1.8 0.39-3.61-0.18-5.25c3.77 3.22 5.64 7.87 4.45 12.3c-1.78 6.59-9.66 10.19-17.6 8.04c-7.94-2.15-12.94-9.22-11.16-15.81c1.2-4.43 5.16-7.5 10.04-8.39z" />
			<path class="s10" d="m305.16 115.43h-12.53l3.07-4.21h8.25l1.21 4.21z" />
			<path class="s2" d="m289.32 97.88c5.45 1.29 9.53 4.69 10.25 9.22c1.07 6.74-5.66 13.41-15.05 14.91c-9.39 1.5-17.87-2.75-18.94-9.49c-0.72-4.53 2.1-9.03 6.87-11.94c-0.89 1.59-1.26 3.4-0.97 5.24c0.78 4.87 5.97 8.09 11.6 7.2c5.63-0.9 9.57-5.57 8.79-10.45c-0.29-1.84-1.21-3.44-2.55-4.68v0z" />
			<path class="s2" d="m310.85 98.36c-1.45 1.3-2.49 2.95-2.9 4.81c-1.07 4.92 2.74 9.42 8.51 10.05c5.77 0.63 11.32-2.84 12.4-7.76c0.41-1.86 0.11-3.65-0.72-5.2c4.78 2.7 7.45 7.07 6.45 11.65c-1.48 6.8-10.48 11.46-20.11 10.41c-9.63-1.05-16.23-7.42-14.74-14.23c1-4.57 5.4-8.17 11.1-9.72v0z" />
			<path class="s3" d="m250.24 143.47c0 0 46.16-26.88 98.99 0" />
			<path class="s0" d="m299.94 128.51c-1.31 0-2.37-1.06-2.37-2.37c0-1.31 1.06-2.37 2.37-2.37c1.31 0 2.37 1.06 2.37 2.37c0 1.31-1.06 2.37-2.37 2.37z" />
			<path class="s0" d="m285.19 129.56c-1.31 0-2.37-1.06-2.37-2.37c0-1.31 1.06-2.37 2.37-2.37c1.31 0 2.37 1.06 2.37 2.37c0 1.31-1.06 2.37-2.37 2.37z" />
			<path class="s0" d="m269.4 132.72c-1.31 0-2.37-1.06-2.37-2.37c0-1.31 1.06-2.37 2.37-2.37c1.31 0 2.37 1.06 2.37 2.37c0 1.31-1.06 2.37-2.37 2.37z" />
			<path class="s0" d="m255.71 136.93c-1.31 0-2.37-1.06-2.37-2.37c0-1.31 1.06-2.37 2.37-2.37c1.31 0 2.37 1.06 2.37 2.37c0 1.31-1.06 2.37-2.37 2.37z" />
			<path class="s0" d="m313.63 129.56c-1.31 0-2.37-1.06-2.37-2.37c0-1.31 1.06-2.37 2.37-2.37c1.31 0 2.37 1.06 2.37 2.37c0 1.31-1.06 2.37-2.37 2.37z" />
			<path class="s0" d="m329.42 132.72c-1.31 0-2.37-1.06-2.37-2.37c0-1.31 1.06-2.37 2.37-2.37c1.31 0 2.37 1.06 2.37 2.37c0 1.31-1.06 2.37-2.37 2.37z" />
			<path class="s0" d="m343.11 136.93c-1.31 0-2.37-1.06-2.37-2.37c0-1.31 1.06-2.37 2.37-2.37c1.31 0 2.37 1.06 2.37 2.37c0 1.31-1.06 2.37-2.37 2.37z" />
		</g>
		<path class="s3" d="m66.96 520.38l-1.74 10.91" />
		<path class="s3" d="m85.65 524.9l-1.51 12.48" />
		<path class="s3" d="m56.01 514.35l-7.47 8.83" />
		<path class="s3" d="m104.06 529.22l-2.18 14.27" />
		<path class="s3" d="m99.07 546.53l-1.57 15.4" />
		<path class="s3" d="m115.39 557.36l-1.5 12.33" />
		<path class="s3" d="m138.99 562.55l-0.64 7.94" />
		<path class="s3" d="m166.79 564.02l-1.11 12.7" />
		<path class="s3" d="m197.03 582.57l-0.34 11.42" />
		<path class="s3" d="m232.77 580.38l0.1 13.69" />
		<path class="s3" d="m267.62 583.85v13.68" />
		<path class="s3" d="m299.74 588.11l0.17 11.14" />
		<path class="s3" d="m325.97 582.02l1.84 14.87" />
		<path class="s3" d="m355.94 581.11l1.52 14.92" />
		<path class="s3" d="m379.31 582.02l2.15 10.26" />
		<path class="s3" d="m395.44 567.9l4.77 14.11" />
		<path class="s3" d="m540.26 506.22l2.8 14.51" />
		<path class="s3" d="m517.96 514.22l1.43 14.19" />
		<path class="s3" d="m499.29 520.69v11.58" />
		<path class="s3" d="m484.48 525.84l0.71 9.53" />
		<path class="s3" d="m487.71 541.74v13.68" />
		<path class="s3" d="m468.75 550.16v14.74" />
		<path class="s3" d="m445.58 555.43v13.68" />
		<path class="s3" d="m420.58 558.23l1.74 11.25" />
		<g >
			<path class="s11" d="m296.58 428.76c-36.1 0-65.29-29.17-65.29-65.26c0-36.09 29.18-65.26 65.29-65.26c36.1 0 65.29 29.17 65.29 65.26c0 36.09-29.18 65.26-65.29 65.26z" />
			<path class="s12" d="m345.54 299.29l27.38 18.25v24.21l-61.6 12.11h-32.64l-61.6-12.11v-25.79l18.08-7.72l28.78-15.44h58.41l23.2 6.49z" />
			<path class="s13" d="m337.73 424.71l-21.67 8.09h-54.23l-17.99-11.72l-26.77-37.7v-42.15h155.85v47.43l-35.19 36.07z" />
			<path class="s14" d="m372.92 341.22v41.93l-14.48 17.37l-14.83 14.56l-4.04-0.53c0 0 3.51-1.93-1.4-4.03c-4.91-2.11 0.53-6.31 2.28-7.89c1.76-1.58 0.35-2.46 0.35-2.46c-4.39-1.4-4.39-4.38 0.35-9.12c4.74-4.74 3.33-8.42 0.18-12.1c-3.16-3.68-1.93-4.73 0.35-6.13c2.28-1.4 0.88-4.19-2.11-3.32c-2.98 0.88-2.46-2.6-2.46-2.6c-0.53-4.03-3.33-1.69-6.67-3.27c-3.33-1.58 5.79-7.06 5.79-7.06c-11.76-1.58 4.56-15.35 4.56-15.35h32.12h0z" />
			<path class="s14" d="m217.07 341.22h32.09c0 0 16.32 13.77 4.56 15.35c0 0 9.13 5.48 5.79 7.06c-3.33 1.58-6.14-0.77-6.67 3.27c0 0 0.53 3.48-2.46 2.6c-2.98-0.88-4.39 1.91-2.11 3.32c2.28 1.4 3.51 2.45 0.35 6.13c-3.16 3.68-4.56 7.36 0.18 12.1c4.74 4.74 4.74 7.72 0.35 9.12c0 0-1.4 0.88 0.35 2.46c1.76 1.58 7.2 5.79 2.28 7.89c-4.91 2.11-1.4 4.03-1.4 4.03l-4.04 0.53l-14.82-14.56l-14.46-17.37v-41.93h0z" />
			<path class="s14" d="m329.72 341.22c0 0-5.06 4.56-2.43 7.19c2.63 2.63-7.2 2.72-6.14 5.83c1.05 3.12 6.32 1.89 5.09 4.87c-1.23 2.98-7.37-1.58-6.67 4.39c0.7 5.97 4.3-0.53 5.05 4.91c0 0 3.38-0.75 3.38 1.82c0 2.57-12.11 2.39-10.88 7.92c0 0 1.23 1.47-1.05 3.76c-2.28 2.29-12.46 7.73-14.39 12.82c-1.93 5.09-7.26 4.56-11.44 0c-4.18-4.56-17.34-8.97-17.17-12.82c0.18-3.85 2.46-8.5-2.63-7.05c-5.09 1.45-8.42-0.9-2.63-5.07c5.79-4.18 1.23-7.34 4.39-9.97c0 0 2.46 0 0.35-2.46c-2.11-2.46-9.65-13.51-13.86-16.14h71.05z" />
			<path class="s15" d="m292.01 334.9h2.63c2.11 8.42 0.18 7.8 1.58 19.95c1.4 12.15-2.84 19.07-2.84 19.07l-6.11 0.94c4.21-5.09 2.11-14.08 1.05-18.51c-1.05-4.43-2.28-21.45-2.28-21.45h2.98c0 0 1.27 13.77 1.8 17.81c0.53 4.03 2.64 3.77 2.64 3.77c1.37-4.04-1.46-21.58-1.46-21.58v0z" />
			<path class="s15" d="m303.69 334.9c0 0 1.97 27.63-2.76 38.03l-2.3 0.66c0 0 5.33-26.05 2.04-38.68h3.03z" />
			<path class="s5" d="m298.2 379.64c-4.44 3.68-13.73 2.5-15.7-0.79c-1.97-3.29 2.5-4.12 2.5-4.12c11.72-9.52 16.72-0.61 20.53-2.85c3.82-2.24 3.95 1.32 3.95 1.32c-0.79 7.24-6.84 2.76-11.28 6.45z" />
			<path class="s5" d="m296.58 303.85c6.99-5.46 9.74-0.02 9.74-0.02c13.95-3.97 12.9 9.49 15.53 17.91c2.63 8.42-6.06 6.05-6.06 6.05c0.53 16.58-35.54 3.16-36.35 10.26c-0.81 7.11-8.4 10-6.56 6.11c1.84-3.89-5.27-8.48-2.37-9.79c2.9-1.32 2.63-3.68 2.11-8.16c-0.53-4.47-11.06-1.05-10.27-4.47c0.79-3.42 9.74-5.53 9.74-5.53c7.37-10 13.95 4.21 16.59-4.47c2.63-8.68 7.9-7.89 7.9-7.89v0z" />
			<path fill-rule="evenodd" class="s16" d="m296.58 263.5c55.25 0 100.04 44.77 100.04 100c0 55.23-44.79 100-100.04 100c-55.25 0-100.04-44.77-100.04-100c0-55.23 44.79-100 100.04-100zm65.29 100c0-36.04-29.23-65.26-65.29-65.26c-36.06 0-65.29 29.22-65.29 65.26c0 36.04 29.23 65.26 65.29 65.26c36.06 0 65.29-29.22 65.29-65.26z" />
			<path class="s17" d="m296.58 432.57c-38.21 0-69.1-30.87-69.1-69.07c0-38.2 30.89-69.07 69.1-69.07c38.21 0 69.1 30.87 69.1 69.07c0 38.2-30.89 69.07-69.1 69.07z" />
			<path class="s17" d="m296.58 459.99c-53.38 0-96.53-43.13-96.53-96.49c0-53.36 43.15-96.49 96.53-96.49c53.38 0 96.53 43.13 96.53 96.49c0 53.36-43.15 96.49-96.53 96.49z" />
			<path class="s6" d="m351.4 300.65l-12.57 3.99c-20.4-14.87-42.25-13.42-42.25-13.42c0 0-21.98-1.45-42.39 13.42l-12.64-3.99l3.03-14.57c0 0 20.67-15.92 51.99-15.92c30.54 0 51.9 15.92 51.9 15.92l2.93 14.57z" />
			<path class="s6" d="m348.47 441.35c0 0-21.36 15.92-51.9 15.92c-31.33 0-51.99-15.92-51.99-15.92l-3.03-14.57l12.64-3.99c20.4 14.87 42.39 13.42 42.39 13.42c0 0 21.85 1.45 42.25-13.42l12.57 3.99l-2.93 14.57z" />
			<g >
				<path fill-rule="evenodd" class="s18" d="m285.11 446.17c0-1.53-0.02-3.06 0.01-4.59c0.01-0.63-0.04-1.45 0.82-1.47c0.81-0.01 0.94 0.77 0.99 1.42c0.06 0.94-0.19 1.9 1.4 1.86c1.46-0.04 1.49-0.85 1.5-1.88c0-0.71-0.13-1.63 0.89-1.66c0.8-0.02 0.78 0.86 1.03 1.44c0.23 0.52-0.39 1.48 0.62 1.54c0.85 0.05 1.15-0.7 1.46-1.39c0.27-0.6 0.48-1.6 1.41-1.12c0.75 0.39 0.45 1.24 0.23 1.96c-0.59 1.95-1.54 3-3.89 3.1c-4.88 0.2-4.89 0.39-4.59 4.98c0.06 0.89 0.44 2.04-0.87 2c-1.13-0.03-1.02-1.18-0.99-2.1c0.05-1.37 0.01-2.74 0.01-4.11c-0.01 0-0.02 0-0.03 0v0z" />
				<path fill-rule="evenodd" class="s18" d="m297.69 446.09c0-1.53-0.02-3.06 0.01-4.59c0.01-0.62-0.02-1.43 0.9-1.39c0.67 0.03 0.82 0.68 0.9 1.26c0.12 0.95-0.31 2.12 1.49 2.02c1.75-0.09 1.33-1.24 1.4-2.2c0.05-0.58 0.05-1.24 0.75-1.33c0.88-0.11 0.86 0.73 1.15 1.27c0.3 0.56-0.43 1.66 0.74 1.7c0.83 0.03 1.12-0.76 1.4-1.46c0.23-0.57 0.5-1.42 1.26-1.13c0.82 0.32 0.66 1.18 0.41 1.9c-0.61 1.82-1.3 3.57-3.79 3.15c-0.15-0.03-0.32 0.04-0.48 0.06c-4.52 0.5-4.54 0.51-4.25 5.09c0.05 0.81 0.37 1.85-0.74 1.92c-1.21 0.08-1.18-1.01-1.15-1.93c0.03-1.45 0.01-2.9 0.01-4.35c-0.01 0-0.01 0-0.02 0v0z" />
				<path fill-rule="evenodd" class="s18" d="m313.54 447.73c0.49-1.57 0.17-2.39-1.67-2.34c-1.15 0.03-2.09-0.57-2.11-1.85c-0.03-1.66 0.36-3.25 1.85-4.22c1.03-0.67 2.24-0.63 3.13 0.24c1.34 1.3 2.41 2.66 1.62 4.85c-0.79 2.17-0.02 4.67-1.11 6.85c-0.29 0.57-0.12 1.69-1.19 1.41c-0.83-0.21-0.83-1.07-0.75-1.83c0.04-0.4 0.08-0.8 0.12-1.2c-0.02 0-0.03 0-0.05 0c0.04-0.64-0.03-1.32 0.15-1.92zm0.68-5.28c-0.03-0.84-0.76-1.28-1.43-1.3c-0.87-0.02-1.04 0.79-1.06 1.53c-0.02 0.84 0.62 0.73 1.16 0.76c0.6-0.12 1.36-0.14 1.33-1z" />
				<path fill-rule="evenodd" class="s18" d="m280.73 447.03c0.09 1.35 0.19 2.71 0.26 4.06c0.04 0.78-0.42 1.24-1.15 1.25c-0.82 0.01-1.09-0.6-0.98-1.32c0.45-2.87 0.09-5.75 0.22-8.62c0.03-0.71-0.03-1.68 0.93-1.65c0.98 0.03 0.77 1.04 0.79 1.71c0.03 1.52 0.01 3.04 0.01 4.56c-0.03 0-0.05 0-0.08 0.01l0 0z" />
			</g>
			<g >
				<path fill-rule="evenodd" class="s18" d="m266.02 291.66c-2.87-0.72-2.74-4.22-5.2-5.2c-0.45-0.18-0.43-0.97-0.22-1.41c1.04-2.2 1.07-3.41-1.85-2.08c-0.4 0.18-0.88 0.14-1.12-0.29c-0.34-0.62 0.19-0.89 0.59-1.18c1.32-0.95 2.83-1.53 4.27-0.61c1.46 0.94 0.93 2.34 0.23 3.6c-0.12 0.22-0.32 0.61-0.24 0.68c1.27 1.29 2.4 2.87 3.94 3.72c1.48 0.82 3.21-0.07 4.44-1.15c0.82-0.72 0.77-1.73-0.1-2.69c-1.1-1.22-0.13-5.12 1.37-5.77c0.25-0.11 0.62 0.04 0.93 0.07c-0.05 0.31-0.02 0.67-0.17 0.93c-0.98 1.7-1.1 3.14-0.01 5.07c1.02 1.8-0.03 3.85-1.74 5.09c-1.11 0.8-2.16 1.64-3.1 2.62c-0.64 0.67-1.32 1.02-2.23 0.97c-4.58-0.27-8.65 1.29-12.52 3.54c-0.65 0.38-1.35 0.4-1.8-0.29c-0.5-0.78 0.05-1.38 0.68-1.62c2.45-0.92 4.98-1.65 7.41-2.61c2.04-0.8 4.14-1.23 6.42-1.39l0 0z" />
				<path fill-rule="evenodd" class="s18" d="m299.01 285.65c1.76-1.42 1.62-2.71 1.64-3.97c0.02-0.83-0.12-1.72 0.43-2.45c0.26-0.34 0.61-0.61 1.08-0.47c0.38 0.12 0.54 0.49 0.44 0.81c-0.42 1.43 0.16 2.87-0.04 4.29c-0.35 2.48-1.77 3.71-4.29 3.78c-0.93 0.02-1.86 0.03-2.79 0.07c-2.6 0.11-2.62-0.65-3-3.13c-0.4-2.62 1.48-5.99-2.09-7.94c-1.21-0.66-0.76-2.07 0.21-2.79c1.77-1.31 3.84-1.07 5.87-0.72c0.32 0.06 0.6 0.31 0.51 0.74c-0.1 0.47-0.48 0.9-0.84 0.82c-4.97-0.98-3.79 1.01-2.17 3.91c0.83 1.48-0.24 3.63 0.68 5.42c0.38 0.75 0.39 1.63 1.57 1.57c1.39-0.07 0.97-1.14 1.06-1.88c0.12-1.01 0.08-2.03 0.23-3.03c0.08-0.57 0.33-1.26 1.07-1.2c0.86 0.07 0.65 0.84 0.64 1.4c-0.04 1.41-0.12 2.82-0.2 4.76v0z" />
				<path fill-rule="evenodd" class="s18" d="m285 283.66c-0.01 0.15-0.01-0.44 0.06-1.03c0.05-0.45 0.3-0.81 0.81-0.81c0.51 0 0.73 0.4 0.78 0.83c0.13 1.18 0.25 2.36 0.3 3.54c0.04 1.02 0.73 0.98 1.42 0.97c0.89-0.01 0.89-0.67 0.82-1.25c-0.1-0.83-0.38-1.63-0.48-2.46c-0.09-0.74 0.15-1.43 1.03-1.42c1 0.01 0.63 0.74 0.55 1.3c-0.05 0.33-0.09 0.68-0.05 1.01c0.55 4.34 0.56 4.46-3.71 4.5c-1.99 0.02-4.39 1.27-5.9-0.15c-1.5-1.41 0.28-3.65 0.08-5.56c-0.17-1.56-0.46-3.23 0.71-4.63c1.34-1.59 3.7-1.07 5.17-2.48c0.32-0.31 0.63 0.34 0.6 0.78c-0.06 1.04-0.66 1.61-1.56 2.1c-2.7 1.47-3.89 4.39-3.31 7.42c0.17 0.9 0.69 0.83 1.28 0.78c0.63-0.05 1.46 0.11 1.48-0.92c0.02-0.59-0.02-1.19-0.05-2.52z" />
				<path fill-rule="evenodd" class="s18" d="m322.04 284.91c-0.94-0.05-1.67-0.09-1.91-0.9c-0.18-0.61-0.05-1.3 0.56-1.54c1.02-0.41 1.52-1.03 1.27-2.12c-0.04-0.18-0.32-0.45-0.46-0.44c-1.05 0.11-1.96 0.58-2.6 1.41c-0.29 0.38-0.29 0.97-0.55 1.39c-0.42 0.69-1.12 0.77-1.79 0.42c-0.65-0.34-0.58-0.89-0.37-1.53c0.67-2.12 3.89-4.29 6.02-3.94c1.76 0.29 1.88 1.66 2.03 3.07c0.07 0.6-0.73 1.71 0.63 1.74c0.87 0.02 2.1 0.69 2.42-0.97c0.15-0.79 0.94-1.14 1.59-0.74c0.91 0.57 1.87 1.33 1.95 2.48c0.05 0.74-0.76 0.99-1.46 1.17c-2.5 0.66-5.1-0.38-7.33 0.51v0z" />
				<path fill-rule="evenodd" class="s18" d="m345.37 291.83c-1.62-1.95-4.32-1.75-6.64 0.64c-1.3 1.34-2.58 2.75-3.64 4.32c-1.05 1.54-2.29 1.27-3.6 1.06c-0.55-0.09-0.82-0.58-0.79-1.22c0.05-1.02 0.64-0.53 1.07-0.47c2.35 0.31 3.34-1.74 4.29-3.53c1.43-2.69 6.5-4.93 8.94-3.71c1.3 0.65 1.64 1.48 1.18 2.93c-0.27-0.01-0.54-0.01-0.82-0.02h0z" />
				<path fill-rule="evenodd" class="s18" d="m314.78 276.55c-0.15 0.87-0.07 1.61-0.39 2.01c-1.98 2.44-2.07 5.21-1.7 8.14c0.16 1.23-0.75 2.04-1.8 2.5c-0.88 0.38-1.93-0.39-1.47-0.95c1.92-2.35 0.03-5.13 1.14-7.52c0.32-0.68 0.43-1.44 1.03-1.98c0.98-0.87 0.77-1.82-0.01-2.63c-0.4-0.41-1.14-0.61-0.81-1.34c0.39-0.86 1.26-0.72 2-0.68c0.74 0.04 1.6-0.03 1.82 0.98c0.12 0.57 0.15 1.16 0.19 1.46z" />
				<path fill-rule="evenodd" class="s18" d="m252.85 286.52c-0.31 0.94-0.2 2.13-1.13 2.93c-0.81 0.69-0.28 1.42-0.01 2.08c0.34 0.84 0.98 0.25 1.51 0.2c1.71-0.18 3.3-0.75 4.82-1.53c0.43-0.22 0.94-0.63 1.31 0.01c0.31 0.54-0.08 0.98-0.5 1.28c-2.35 1.68-5.13 2.24-7.86 2.53c-1.72 0.19-2.87-4.85-1.55-6.45c0.47-0.57 1.23-0.92 1.3-1.81c0.05-0.74 0.32-1.45 1.22-1.23c0.91 0.23 0.95 1.08 0.9 1.97l0 0z" />
				<path fill-rule="evenodd" class="s18" d="m305.39 284.44c1.22-2.07-1.09-4.36-0.69-6.89c0.1-0.65-0.35-0.85-0.92-0.94c-0.73-0.12-1.41-0.44-1.04-1.32c0.3-0.72 1.09-0.76 1.77-0.68c0.87 0.11 1.86 0.39 1.82 1.42c-0.15 3.57 2.35 6.95 0.73 10.64c-0.35 0.8-0.07 2.27-1.24 2.14c-1.41-0.17-0.38-1.5-0.5-2.3c-0.07-0.49 0.03-1.01 0.07-2.06z" />
				<path fill-rule="evenodd" class="s18" d="m276.41 283.88c-0.13-0.82-0.23-1.83-0.45-2.81c-0.21-0.96-0.2-1.9 0.37-2.69c0.55-0.76 1.03-2.25 2.16-1.65c1.16 0.62-0.01 1.61-0.4 2.36c-0.33 0.63-0.55 1.18-0.3 1.91c0.97 2.76-0.12 5.35-0.71 7.98c-0.13 0.59-0.37 1.3-1.11 1.12c-0.76-0.18-0.55-0.94-0.46-1.51c0.27-1.5 0.57-3 0.9-4.71z" />
				<path fill-rule="evenodd" class="s18" d="m329.81 294.05c-1.95-0.07-3.41-1.74-5.46-1.16c-0.58 0.16-0.6-0.73-0.24-1.13c0.72-0.78 1.69-1.35 2.7-0.83c0.75 0.39 1.13 0.44 1.67-0.24c1.12-1.42 2.45-0.73 3.65-0.15c0.93 0.45 0.97 1.4 0.61 2.21c-0.58 1.34-1.88 1.21-2.94 1.29h0z" />
				<path fill-rule="evenodd" class="s18" d="m320.72 289.26c-0.24 0.26-0.41 0.57-0.68 0.71c-0.36 0.19-0.8 0.25-1.2 0.35c-4.6 1.12-4.61 1.12-3.35-3.47c0.08-0.29 0.24-0.7 0.46-0.79c0.81-0.31 1.56 0.09 2.04 0.64c0.82 0.91 2.37 1.05 2.73 2.56l0 0z" />
				<path fill-rule="evenodd" class="s18" d="m248.18 293.68c-0.32 1.1-0.59 2.08-0.88 3.06c-0.19 0.65-0.61 1.07-1.31 0.86c-0.54-0.16-0.81-0.71-0.66-1.22c0.5-1.73 0.68-3.42 0.08-5.19c-0.22-0.65 0.14-1.41 0.99-1.49c0.72-0.07 0.98 0.5 1.11 1.14c0.21 0.99 0.46 1.96 0.67 2.85v0z" />
				<path fill-rule="evenodd" class="s18" d="m336.68 286.19c-0.9 0.98-0.02 3.51-1.65 3.4c-1.39-0.09-2.05-2.47-2.24-3.87c-0.18-1.35 1.56-0.57 2.43-0.73c0.75-0.14 1.59-0.1 1.46 1.2h0z" />
				<path fill-rule="evenodd" class="s18" d="m338.52 298.99c-0.81-0.1-1.09-0.68-0.61-1.21c1.21-1.37 2.5-2.68 3.87-3.89c0.54-0.48 1.14-0.14 1.17 0.66c0.04 0.99-3.52 4.53-4.42 4.44h0z" />
				<path fill-rule="evenodd" class="s18" d="m269.52 279.5c-0.25 0.77-0.69 1.51-1.66 1.59c-0.89 0.08-1.15-0.59-1.12-1.34c0.03-1.27 1.06-1.09 1.86-1.18c0.58-0.06 1.01 0.13 0.92 0.93z" />
				<path fill-rule="evenodd" class="s18" d="m344.14 300.32c-0.08 0.67-0.46 1.13-1.12 1.09c-0.87-0.05-1.35-0.64-1.27-1.5c0.06-0.69 0.6-0.95 1.25-0.92c0.82 0.05 1.14 0.56 1.14 1.33z" />
				<path fill-rule="evenodd" class="s18" d="m347.76 295.39c-0.09 0.77-0.53 1.29-1.28 1.25c-1-0.05-1.54-0.73-1.46-1.72c0.07-0.79 0.68-1.09 1.43-1.05c0.94 0.06 1.3 0.64 1.31 1.52v0z" />
				<path fill-rule="evenodd" class="s18" d="m326.69 287.07c-0.31 0.73-0.93 0.98-1.64 0.94c-0.63-0.04-1.27-0.38-1.17-1.07c0.11-0.83 0.88-0.91 1.6-0.88c0.65 0.03 1.15 0.27 1.22 1.01h0z" />
			</g>
			<path class="s17" d="m253.13 309.79l-17.89-5.15l4.84-19.38" />
			<path class="s17" d="m230.15 344.42l3.51-34.63l15.21 3.74" />
			<path class="s17" d="m234.21 289.86l-3.44 14.78l-22.56 19.98" />
			<path class="s17" d="m213.12 358.59l-3.29-31.48l19.35-17.31l-3.42 39.19l-12.64 9.61z" />
			<path class="s17" d="m240.08 441.74l-4.84-19.38l17.89-5.15" />
			<path class="s17" d="m248.87 413.47l-15.21 3.74l-3.51-34.63" />
			<path class="s17" d="m208.21 402.38l22.56 19.98l3.44 14.78" />
			<path class="s17" d="m225.76 378.02l3.42 39.19l-19.35-17.31l3.29-31.48l12.64 9.61z" />
			<path class="s17" d="m228.11 372.87l-12.7-9.38l12.81-10.15" />
			<path class="s17" d="m204.58 334.19l3.62 29.31l-3.62 29.31" />
			<path class="s17" d="m353.57 285.61l4.75 19.03l-17.89 5.15" />
			<path class="s17" d="m344.69 313.53l15.21-3.74l3.1 34.63" />
			<path class="s17" d="m384.84 324.38l-22.05-19.74l-3.34-14.36" />
			<path class="s17" d="m367.8 348.98l-3.42-39.19l19.35 17.31l-3.29 31.48l-12.64-9.61z" />
			<path class="s17" d="m340.43 417.21l17.89 5.15l-4.75 19.02" />
			<path class="s17" d="m363 382.59l-3.1 34.63l-15.21-3.74" />
			<path class="s17" d="m359.45 436.71l3.34-14.35l21.73-19.05" />
			<path class="s17" d="m380.43 368.41l3.29 31.48l-19.35 17.31l3.42-39.19l12.64-9.61z" />
			<path class="s17" d="m364.89 353.03l13.27 10.47l-13.18 9.89" />
			<path class="s17" d="m388.76 392.19l-3.41-28.69l3.51-28.39" />
			<path fill-rule="evenodd" class="s18" d="m261.99 436.54c2.29 0.93 7.55 3.5-0.74 4.55c-0.05 0.05-0.1 0.1-0.15 0.15c-0.18 2.46-1 8.24-4.55 0.72c-0.02-0.01-0.04-0.01-0.06-0.02c-0.05-0.02-0.09-0.06-0.13-0.08c-2.4 0.59-8.16 1.6-2.08-4.11c0.01-0.07 0.02-0.14 0.03-0.21c-1.3-2.1-4.05-7.26 3.27-3.26c0.08-0.01 0.15-0.04 0.23-0.05c1.6-1.9 5.63-6.05 4.1 2.1c0.03 0.07 0.06 0.14 0.09 0.2zm-2.18 2.72c3.79-0.48 1.38-1.66 0.34-2.09c-0.01-0.03-0.03-0.06-0.04-0.09c0.71-3.73-1.14-1.83-1.87-0.96c-0.04 0.01-0.07 0.02-0.1 0.02c-3.35-1.83-2.09 0.53-1.49 1.49c-0.01 0.03-0.01 0.06-0.02 0.1c-2.78 2.62-0.15 2.15 0.95 1.88c0.02 0.01 0.04 0.03 0.06 0.04c0.01 0.01 0.02 0.01 0.03 0.01c1.63 3.44 2 0.8 2.08-0.33c0.02-0.02 0.04-0.05 0.07-0.07z" />
			<path fill-rule="evenodd" class="s18" d="m331.9 441.09c-8.29-1.06-3.02-3.62-0.74-4.55c0.03-0.07 0.06-0.14 0.09-0.2c-1.54-8.15 2.49-4 4.1-2.1c0.08 0.01 0.15 0.03 0.23 0.05c7.32-4.01 4.57 1.16 3.26 3.26c0.01 0.07 0.02 0.14 0.03 0.21c6.08 5.72 0.32 4.71-2.08 4.11c-0.05 0.03-0.09 0.06-0.13 0.08c-0.02 0.01-0.04 0.01-0.06 0.02c-3.56 7.52-4.37 1.74-4.55-0.72c-0.05-0.05-0.1-0.1-0.15-0.15zm1.11-3.92c-1.05 0.43-3.46 1.6 0.34 2.09c0.02 0.02 0.04 0.05 0.07 0.07c0.08 1.13 0.45 3.77 2.08 0.33c0.01-0.01 0.02-0.01 0.03-0.01c0.02-0.01 0.04-0.03 0.06-0.04c1.1 0.27 3.74 0.73 0.95-1.88c0-0.03-0.01-0.06-0.02-0.1c0.6-0.96 1.86-3.32-1.49-1.49c-0.04-0.01-0.07-0.02-0.11-0.02c-0.73-0.87-2.58-2.77-1.87 0.96c-0.02 0.03-0.03 0.06-0.04 0.09z" />
			<path class="s16" d="m337.91 379.9c0 0 13.82-16.45 18.95-12.76c5.13 3.68 0.13 8.01-1.45 6.11c-1.58-1.9 0.79-2.82 0.79-2.82c0 0 0-2.24-1.58-1.32c-1.58 0.92-10.02 7.11-14.16 13.95l-2.56-3.16z" />
			<path class="s16" d="m337.37 383.67c-3.31-3.53-5.26-7.07-4.35-7.91c0.9-0.85 4.31 1.32 7.62 4.85c3.31 3.53 5.26 7.07 4.35 7.91c-0.9 0.85-4.31-1.32-7.62-4.85z" />
			<path class="s16" d="m330.14 391.09l2.68-1.18c-13.91 32.5-29.4 20.88-29.4 20.88l1.58-1.41c13.56 7.63 25.14-18.29 25.14-18.29h0z" />
			<path class="s16" d="m340.47 384.43c-42.39 42.11-63.64 34.94-63.64 34.94c27.38-6.32 60.02-39.47 60.02-39.47l3.61 4.53z" />
			<path class="s16" d="m250.18 384.85l56.99 37.87l-1.17 1.75l-56.99-37.87l1.17-1.75z" />
			<path class="s16" d="m241.87 382.9l-5.83-5.98l7.7 3.11l-1.86 2.87z" />
			<path class="s16" d="m249.41 388.25c-1.56 0-2.83-1.26-2.83-2.83c0-1.56 1.26-2.83 2.83-2.83c1.56 0 2.83 1.26 2.83 2.83c0 1.56-1.26 2.83-2.83 2.83z" />
			<path class="s16" d="m244.15 385.09c-1.56 0-2.83-1.26-2.83-2.83c0-1.56 1.26-2.83 2.83-2.83c1.56 0 2.83 1.26 2.83 2.83c0 1.56-1.26 2.83-2.83 2.83z" />
		</g>
		<g >
			<path class="s19" d="m166.18 383.85c0 0 8.42-0.35 9.83 6.14c1.4 6.49 4.74 10 10.35 9.47c0 0 1.93 13.68-10.09 19.82c0 0-2.61 4.91 0.06 7.19c2.66 2.28 5.35 4.91 10.15 3.33c4.8-1.58 7.61 3.68 6.56 6.84c-1.05 3.16-3.33 4.74-4.39 2.81c-1.05-1.93-1.23 5.96-3.51 2.98c0 0-4.87 3.51-5.42 0c-0.55-3.51-4.23-3.68-6.52-1.75c-2.28 1.93-3.16 2.98-2.63-1.4c0.53-4.39-0.88-6.67-4.39-7.72c-3.51-1.05-10.53-7.89-6.32-10.88c4.21-2.98 4.58-10.35-1.31-10.88l7.63-25.96h0z" />
			<path class="s19" d="m196.54 340.68c0 0 1.4 27.98-23.69 41.31c0 0-5.79 10.83-4.56 17.85c1.23 7.02-9.65 15.6-16.32 18.4c-6.67 2.81-16.85 13.85-13.34 24.55c0 0 2.46 3.16 5.27 1.75c2.81-1.4 3.86 0.53 3.69 2.81c-0.18 2.28 2.63 4.73-1.58 5.09c0 0-1.05 4.74-3.51 4.03c0 0-5.09 3.12-6.67 0.07c-1.58-3.05-3.33-3.93-3.86-0.77c-0.53 3.16-3.51 1.23-2.98-2.46c0.53-3.68-1.7-7.89-0.06-11.58c1.64-3.68-0.46-9.3-2.22-10.88c-1.76-1.58-2.81-3.33 0-5.97c2.81-2.63 12.11-7.02 11.93-14.03c-0.18-7.02-1.4-7.02 0.7-11.67c0 0 0.18-2.9-3.86 0c-4.04 2.9-24.92 5.53-22.11-12.19c2.81-17.72 18.25-20.88 15.62-37.02l3.33-0.35c0 0 2.28 11.05-3.51 17.54c-5.79 6.49-16.27 24.25-6.32 28.77c9.95 4.52 15.45-5.44 17.38-9.65c0 0 1.23-7.63 8.6-11.45c0 0-1.05-9.78 3.16-15.57c4.21-5.79 2.46-17.55 10.71-25.44l11.58-5.26h14.22l8.42 12.1v0z" />
			<path class="s20" d="m135.11 348.06c0 0-1.05 7.54-9.3 2.28c-8.25-5.26-9.13-12.1-5.79-16.67c0 0 12.81 2.1 15.09 14.39v0z" />
			<path class="s19" d="m191.62 315.95c0 0 17.13-8.07 27-10.17c0 0 4.1-7.5 6.89-4.36c0 0 2.33-1.25 2.47 2.61c0 0 3.68 1.19 1.44 4.28c0 0 1.95 2.39-1.44 5.2c-3.4 2.81-6.94 1.4-7.68 0c0 0-1.08-1.72-2.96 1.34c-1.88 3.06-10.26 10.59-16.03 9.71l-9.68-8.6l0 0z" />
			<path class="s19" d="m164.95 282.96c0 0 12.99-10.78 18.25-4.29c0 0 10.88-2.67 11.58 2.94c0.7 5.61-8.6 4.37-7.72 9.45c0.88 5.09 7.97-9.41 7.76-0.81c-0.21 8.6-12.85 2.55-14.08 12.02h-16.85l-4.91-8.51l5.97-10.8v0z" />
			<path class="s21" d="m173.02 283.67c0 0 3.25-5.44 7.11-2.02c0 0-1.49 2.28-3.55 2.02c-2.06-0.26-1.1-1.32-3.55 0z" />
			<path class="s3" d="m185.83 285.26c0 0 0 2.97-1.4 2.8" />
			<path class="s3" d="m182.06 291.04c0 0-1.4-0.53-3.16 0.61c-1.75 1.14-3.77 0-3.77 0" />
			<path class="s3" d="m165.47 337.01c0 0-2.63 6.09-1.71 8.9c0.92 2.81-3.95 4.52-2.9 8.34c1.05 3.82-4.61 8.87-4.61 8.87" />
			<path class="s3" d="m163.37 334.9c0 0-2.63 6.09-1.71 8.9c0.92 2.81-3.95 4.52-2.9 8.34c1.05 3.82-4.61 8.87-4.61 8.87" />
			<path class="s3" d="m181.27 355.69c0 0-5.4 10.53-10.27 14.54" />
			<path class="s3" d="m181.27 362.4c0 0-3.63 5.79-7.74 7.83" />
			<path class="s3" d="m178.9 368.41c0 0-6.84 11.09-17.38 11.35" />
			<path class="s3" d="m189.04 358.59c0 0-5.15 12.12-11.56 15" />
			<path class="s3" d="m149.59 376.07c0 0-6.63 8.04-6.63 15.54" />
			<path class="s3" d="m145.73 392.81c0 0-4.21 3.27-1.84 8.93c0 0-2.9 3.42-2.76 8.42" />
			<path class="s3" d="m160.87 407.01c6.45-13.29 0.39-18.42-2.31-20.53c-2.71-2.11 0.21-2.64 0.21-2.64" />
			<path class="s3" d="m154.82 410.16c0 0-3.56 5.35-6.72 4.91" />
			<path class="s3" d="m154.82 412.27c0 0-3.56 5.35-6.72 4.91" />
			<path class="s3" d="m134.41 422.8c0 0-3.42 1.18-2.63 3.42" />
			<path class="s3" d="m129.54 426.22c0 0-1.18 1.54-0.53 2.54" />
			<path class="s3" d="m137.44 429.48c0 0-3.16 1.61-1.97 5.03" />
			<path class="s3" d="m142.48 456.48c0 0-0.18-3.03-2.81-2.24" />
			<path class="s3" d="m145.73 453.36c0 0-0.93-3.32-4.61-3.06" />
			<path class="s3" d="m147.58 447.89c0 0-0.54-2.87-4.62-1.35" />
			<path class="s3" d="m185.13 442.45c0 0 1.96-3.73-1.87-4.78" />
			<path class="s3" d="m188.36 439.16c0 0 0.44-4.26-2.73-4" />
			<path class="s3" d="m168.75 392.81c0 0 1.73 5.5 5.94 7.09" />
			<path class="s3" d="m168.11 397.79c0 0 4 6.98 7.79 7.9" />
			<path class="s3" d="m168.11 402.92c0 0 0.03 6.99 3.9 7.25" />
			<path class="s3" d="m183.26 404.9c0 0-0.15 9.5-3.3 9.02" />
			<path class="s3" d="m134 454.11c0 0-2.36-2.13-1.7-3.83" />
			<path class="s3" d="m176.14 439.47c0 0-3.9-1.02-2.61-2.99" />
			<path class="s20" d="m196.54 316.74c4.61 0.39 9.74 6.97 8.69 11.84c-1.05 4.87-5 11.47-5 11.47c-10.93 10.68-21.59-3.44-29.09-0.81c-7.5 2.63-10.14-1.97-10.14-1.97c-4.61-0.13-3.77-10.7-3.77-10.7c-8.86-1.14-0.44-7.1-4.21-10c-3.77-2.89-1.49-10.17-1.49-10.17c-5.88-5.26 3.6-10.7 3.3-14.5c-0.3-3.8 4.16-4.36 4.16-4.36c-0.53-3.16 0.61-4.74 4.83-6.75c4.21-2.02 4.3 2.89 4.3 2.89c4.56 1.84-1.93 2.72-4.3 7.28c-2.37 4.56 4.04 1.84 6.58-0.53c2.55-2.37 1.93 6.23 7.28 6.49c5.35 0.26 5.09 6.58 5.09 6.58c9.13-0.09 9.17 12.85 13.78 13.25z" />
			<path class="s19" d="m199.96 350.16c0.39 2.11 4.61 6.05 4.61 6.05c4.61 0.13 6.45 6.32 6.84 8.82c0.39 2.5-2.11 1.84-2.11 1.84c-0.26 4.47-2.63 0.13-3.94 2.91c-1.31 2.78-3.03 1.04-3.03 1.04c-5 2.24 0.04-4.47-4.21-3.29c-4.26 1.18-1.58-4.03-1.58-7.63c0-3.6-7.63-2.89-7.63-2.89c-3.29-0.26-3.03-6.84-12-13.42c-8.97-6.58 2.79-8.68 2.79-8.68c12.5-8.68 19.88 13.16 20.27 15.26z" />
			<path class="s3" d="m185.57 349.55c-0.35-2.72-2.37-4.82-5.27-6.61c-2.9-1.79-1.4-4.62-1.4-4.62" />
			<path class="s3" d="m184.25 339.29c0 0 0.88 2.11 3.51 1.93c2.63-0.18 4.39-0.97 5.49 4.69" />
			<path class="s3" d="m199.25 367.42c0 0 1.94-0.87 1.59-4.46" />
			<path class="s3" d="m202.33 370.82l0.26-3.4" />
			<path class="s3" d="m206.39 368.81c0 0-0.01-2.19-1.03-3.62" />
			<path class="s3" d="m209.31 366.87c0 0-0.22-2.06-1.62-3.38" />
			<path class="s3" d="m229.43 308.3c0 0-2-0.42-3.93 0.63" />
			<path class="s3" d="m227.98 304.02c0 0-1.7 0.44-2.49 2.45" />
			<path class="s3" d="m225.52 301.42c0 0-1.43 1.29-1.16 3.22" />
			<path class="s3" d="m183.26 285.95c0 0 0.29 1.35-1.2 1.77" />
			<path class="s3" d="m200.07 318.13c0 0 3.93-0.34 7-4.73" />
			<path class="s3" d="m202.16 319.98c0 0 5.61-1.92 7.14-5.78" />
		</g>
		<g >
			<path class="s6" d="m387.07 384.09l-2.54-1.39l-0.57-5.41l1.56-2.45l4.02 2.79l-2.47 6.45z" />
			<path class="s7" d="m389.54 377.65c3.12 0.6 3.04 4.05 3.04 4.05l-6.72 7.93c-2.12-2.16-1.32-6.92-1.32-6.92l5.01-5.06v0z" />
			<path class="s22" d="m460.85 365.95c0 0 6.14 3.17 11.06 1.76c4.91-1.41 14.22 3.92 15.8 12.57c1.58 8.65-1.05 17.07-3.51 19c-2.46 1.93 0.35 9.65-1.58 11.23c-1.93 1.58-0.7 14.21-1.93 15.79c-1.23 1.58-0.53 13.51-3.16 4.91c-2.63-8.6-1.58-14.74-4.91-15.96c-3.33-1.23-6.85-13.33 0.17-20.18c0 0 3.69-7.36 3.51-12.71c-0.18-5.36-14.74-5.7-14.74-12.37l-0.7-4.04z" />
			<path class="s6" d="m403.46 442.8v-2.89l4.48-3.09l2.9 0.2l-0.53 4.87l-6.84 0.92z" />
			<path class="s7" d="m408.2 446.48l-10.18-2.11c0.88-2.89 5.44-4.47 5.44-4.47l6.84 1.97c0.97 3.03-2.11 4.61-2.11 4.61z" />
			<path class="s6" d="m449.8 457.53v-2.89l4.48-3.09l2.9 0.2l-0.53 4.87l-6.84 0.92z" />
			<path class="s7" d="m454.53 461.22l-10.18-2.11c0.88-2.89 5.44-4.47 5.44-4.47l6.84 1.97c0.97 3.03-2.11 4.61-2.11 4.61z" />
			<path class="s4" d="m423.65 293.67c0 0-10.18 0.7-15.09 3.33c-4.91 2.63-7.72-0.7-9.3-5.09c-1.58-4.39 15.97-13.69 20.36-17.72c4.39-4.03 3.86-10.88 3.86-10.88c4.21 0.88 7.9 4.38 7.9 4.38c0 0-2.28-7.54 1.58-5.96c3.86 1.58 6.14 10.88 6.14 10.88c5.79 9.47 3.69 38.77 0 54.91c-3.69 16.14 17.9 27.71 22.47 35.78c4.56 8.07 2.28 25.62 0.53 29.65c-1.75 4.03-2.28 19.13 2.63 21.94c4.91 2.81 2.63 5.79 0 11.58c-2.63 5.79-1.58 23.86-1.58 23.86c-5.79 5.61-10.71 1.58-10.71 1.58c4.91-4.21 5.62-15.79 6.14-24.04c0.53-8.25-16.67-20.17-19.66-23.33c-2.98-3.16-8.25-1.23-6.49 6.14c1.76 7.37 1.4 8.77-2.28 11.05c-3.69 2.28-13.34 8.6-14.92 13.86c-1.58 5.26-5.44 3.33-7.9 2.63c-2.46-0.7 0.53-3.51 0.53-3.51c16.32-9.83 14.74-24.21 14.74-24.21c-5.62 0.18-7.37-8.42-6.14-13.51c1.23-5.09 7.37-9.83 7.37-9.83c-0.35-2.28 0-4.91 3.69-6.9c3.69-1.98 0.88-2.48 0.88-2.48c-11.93 0.79-14.22-10.09-14.22-10.09c-5.97-1.58-16.32-20.53-16.32-20.53c-4.39 3.51-12.11 4.91-12.11 4.91c-4.91 8.6 0.3 17.29 0.83 20.53c0.53 3.25 0.14 6.32-2.84 7.01c-2.98 0.7-2.55-5.15-2.55-5.15c-1.93-1.45-3.51-14.32-3.51-19.23c0-4.91 14.39-21.23 14.39-21.23c-0.53-13.16 10.88-17.19 14.92-26.49c4.04-9.3 17.9-4.91 19.83-10.53c1.93-5.61-3.16-3.33-3.16-3.33l0 0z" />
			<path class="s22" d="m446.9 282.01c5 1.18 5.4 10.53 5.4 10.53c2.9 6.71-3.29 18.16-3.29 18.16c0.66 6.58-2.24 6.58-2.24 6.58c0 14.34-6.84 14.47-6.84 14.47c-8.69 5.39-3.95-4.47-9.74-5.92c-5.79-1.45-1.45-11.71-3.29-17.63c-1.84-5.92 8.16-13.42 6.19-14.08c-1.97-0.66-0.66-3.29 1.97-3.68c2.63-0.39 3.16-8.42 1.05-13.16c-2.11-4.74 3.16-6.58 3.16-6.58c4.48-1.32 7.63 11.32 7.63 11.32z" />
			<path class="s22" d="m431.63 272.4c0 0-2.11 2.85-3.03 1.1c-0.92-1.76-6.8 5.35-5.97 1.8c0.84-3.55-8.51 1.67-6.27-1.8c2.24-3.47 8.16-7.41 15.27-1.1z" />
			<path class="s3" d="m437.86 403.71c0 0-5.88-9.33 0-16.7" />
			<path class="s3" d="m433.12 281.75c0 0-0.18 5.44-2.98 5.79c0 0 0.77 6.47-3.48 5.96" />
			<path class="s3" d="m402.59 291.93c0 0-0.18-1.75 1.93-2.1" />
			<path class="s3" d="m432.42 263.85c0 0 2.46 0.4 1.93 5.2" />
			<path class="s3" d="m424.7 264.91c0 0 3.51 0.23 4.21 4.15" />
			<path class="s3" d="m397.85 347.18c0 0 4.92 0.59 7.37-7.86" />
			<path class="s3" d="m408.03 338.4c0 0 4.56-0.83 4.21-5.06" />
			<path class="s3" d="m408.9 345.43c0 0 4.21 12.28 10.71 16.32" />
			<path class="s3" d="m412.26 347.19c0 0 2.79 8.59 7.35 10.87" />
			<path class="s3" d="m434.53 383.15c0 0 0.88-5.96 6.49-7.02" />
			<path class="s3" d="m426.66 374.38c0 0 7.16 1.23 11.11-4.56" />
			<path class="s3" d="m457.17 398.06c0 0 1.1 5.09-4.1 6.05" />
			<path class="s3" d="m458.92 400.12c0 0 1.58 4.07-2.98 4.95" />
			<path class="s3" d="m462.08 416.65c0 0 4.39-1.05 1.58 6.14" />
			<path class="s3" d="m431.19 414.72c0 0 1.76 3.34-2.81 4.56" />
			<path class="s3" d="m430.67 400.12c0 0 1.4 5.3-5.09 6.18" />
			<path class="s3" d="m432.22 389.11c0 0-4.36-2.1-7.87 1.23" />
			<path class="s3" d="m428.39 333.34c0 0 8.42 2.26 9.48 8.4" />
			<path class="s3" d="m381.17 351.39c0 0-2.11 2.11-1.05 3.51" />
			<path class="s3" d="m408.03 312.62c0 0-4.39 1.93-3.51 4.21" />
			<path class="s21" d="m420.22 279.9c0 0 3.31-2.54 6.44-0.35c0 0-0.47 1.49-5.83 2.81c0 0-2.11-0.7-0.61-2.46v0z" />
			<path class="s3" d="m402.58 297.04c0 0 1.67-1.51 4.56-2.55" />
		</g>
	</g>
</svg>