<svg version="1.2" baseProfile="tiny-ps" xmlns="http://www.w3.org/2000/svg" viewBox="0 0 600 600" width="600" height="600">
	<style>
		tspan { white-space:pre }
		.shp0 { fill: #e7cd54;stroke: #806600;stroke-width: 3.6 } 
		.shp1 { fill: #ffefa7 } 
		.shp2 { fill: #fee46e } 
		.shp3 { fill: #f3c702 } 
		.shp4 { fill: none;stroke: #806600;stroke-width: 3.6 } 
	</style>
	<g id="surface1">
		<path id="Layer" class="shp0" d="M300 300L544.75 299.74C618.91 326.73 604.87 397.35 526.02 393.9L300 300Z" />
		<path id="Layer" class="shp0" d="M300 300L526.22 393.43C584.41 446.74 544.41 506.61 472.89 473.25L300 300Z" />
		<path id="Layer" class="shp0" d="M300 300L473.25 472.89C506.61 544.41 446.74 584.41 393.43 526.22L300 300Z" />
		<path id="Layer" class="shp0" d="M300 300L393.9 526.02C397.35 604.87 326.73 618.91 299.74 544.75L300 300Z" />
		<path id="Layer" class="shp0" d="M300 300L300.26 544.75C273.27 618.91 202.65 604.87 206.1 526.02L300 300Z" />
		<path id="Layer" class="shp0" d="M300 300L206.57 526.22C153.26 584.41 93.39 544.41 126.75 472.89L300 300Z" />
		<path id="Layer" class="shp0" d="M300 300L127.11 473.25C55.59 506.61 15.59 446.74 73.78 393.43L300 300Z" />
		<path id="Layer" class="shp0" d="M300 300L73.98 393.9C-4.87 397.35 -18.91 326.73 55.25 299.74L300 300Z" />
		<path id="Layer" class="shp0" d="M300 300L55.25 300.26C-18.91 273.27 -4.87 202.65 73.98 206.1L300 300Z" />
		<path id="Layer" class="shp0" d="M300 300L73.78 206.57C15.59 153.26 55.59 93.39 127.11 126.75L300 300Z" />
		<path id="Layer" class="shp0" d="M300 300L126.75 127.11C93.39 55.59 153.26 15.59 206.57 73.78L300 300Z" />
		<path id="Layer" class="shp0" d="M300 300L206.1 73.98C202.65 -4.87 273.27 -18.91 300.26 55.25L300 300Z" />
		<path id="Layer" class="shp0" d="M300 300L299.74 55.25C326.73 -18.91 397.35 -4.87 393.9 73.98L300 300Z" />
		<path id="Layer" class="shp0" d="M300 300L393.43 73.78C446.74 15.59 506.61 55.59 473.25 127.11L300 300Z" />
		<path id="Layer" class="shp0" d="M300 300L472.89 126.75C544.41 93.39 584.41 153.26 526.22 206.57L300 300Z" />
		<path id="Layer" class="shp0" d="M300 300L526.02 206.1C604.87 202.65 618.91 273.27 544.75 300.26L300 300Z" />
		<path id="Layer" class="shp1" d="M350.02 309.95L544.77 315.04C604.8 336.16 595.44 383.24 531.89 379.77L350.02 309.95Z" />
		<path id="Layer" class="shp1" d="M342.41 328.34L520.38 407.57C567.76 450.05 541.1 489.96 483.71 462.44L342.41 328.34Z" />
		<path id="Layer" class="shp1" d="M328.34 342.41L462.44 483.71C489.96 541.1 450.05 567.76 407.57 520.38L328.34 342.41Z" />
		<path id="Layer" class="shp1" d="M309.95 350.02L379.77 531.89C383.24 595.44 336.16 604.8 315.04 544.77L309.95 350.02Z" />
		<path id="Layer" class="shp1" d="M290.05 350.02L284.96 544.77C263.84 604.8 216.76 595.44 220.23 531.89L290.05 350.02Z" />
		<path id="Layer" class="shp1" d="M271.66 342.41L192.43 520.38C149.95 567.76 110.04 541.1 137.56 483.71L271.66 342.41Z" />
		<path id="Layer" class="shp1" d="M257.59 328.34L116.29 462.44C58.9 489.96 32.24 450.05 79.62 407.57L257.59 328.34Z" />
		<path id="Layer" class="shp1" d="M249.98 309.95L68.11 379.77C4.56 383.24 -4.8 336.16 55.23 315.04L249.98 309.95Z" />
		<path id="Layer" class="shp1" d="M249.98 290.05L55.23 284.96C-4.8 263.84 4.56 216.76 68.11 220.23L249.98 290.05Z" />
		<path id="Layer" class="shp1" d="M257.59 271.66L79.62 192.43C32.24 149.95 58.9 110.04 116.29 137.56L257.59 271.66Z" />
		<path id="Layer" class="shp1" d="M271.66 257.59L137.56 116.29C110.04 58.9 149.95 32.24 192.43 79.62L271.66 257.59Z" />
		<path id="Layer" class="shp1" d="M290.05 249.98L220.23 68.11C216.76 4.56 263.84 -4.8 284.96 55.23L290.05 249.98Z" />
		<path id="Layer" class="shp1" d="M309.95 249.98L315.04 55.23C336.16 -4.8 383.24 4.56 379.77 68.11L309.95 249.98Z" />
		<path id="Layer" class="shp1" d="M328.34 257.59L407.57 79.62C450.05 32.24 489.96 58.9 462.44 116.29L328.34 257.59Z" />
		<path id="Layer" class="shp1" d="M342.41 271.66L483.71 137.56C541.1 110.04 567.76 149.95 520.38 192.43L342.41 271.66Z" />
		<path id="Layer" class="shp1" d="M350.02 290.05L531.89 220.23C595.44 216.76 604.8 263.84 544.77 284.96L350.02 290.05Z" />
		<path id="Layer" class="shp0" d="M300 300L540 252C618 264 618 336 540 348L300 300Z" />
		<path id="Layer" class="shp0" d="M300 300L540.1 347.5C607.57 388.43 580.02 454.95 503.36 436.19L300 300Z" />
		<path id="Layer" class="shp0" d="M300 300L503.65 435.77C550.32 499.4 499.4 550.32 435.77 503.65L300 300Z" />
		<path id="Layer" class="shp0" d="M300 300L436.19 503.36C454.95 580.02 388.43 607.57 347.5 540.1L300 300Z" />
		<path id="Layer" class="shp0" d="M300 300L348 540C336 618 264 618 252 540L300 300Z" />
		<path id="Layer" class="shp0" d="M300 300L252.5 540.1C211.57 607.57 145.05 580.02 163.81 503.36L300 300Z" />
		<path id="Layer" class="shp0" d="M300 300L164.23 503.65C100.6 550.32 49.68 499.4 96.35 435.77L300 300Z" />
		<path id="Layer" class="shp0" d="M300 300L96.64 436.19C19.98 454.95 -7.57 388.43 59.9 347.5L300 300Z" />
		<path id="Layer" class="shp0" d="M300 300L60 348C-18 336 -18 264 60 252L300 300Z" />
		<path id="Layer" class="shp0" d="M300 300L59.9 252.5C-7.57 211.57 19.98 145.05 96.64 163.81L300 300Z" />
		<path id="Layer" class="shp0" d="M300 300L96.35 164.23C49.68 100.6 100.6 49.68 164.23 96.35L300 300Z" />
		<path id="Layer" class="shp0" d="M300 300L163.81 96.64C145.05 19.98 211.57 -7.57 252.5 59.9L300 300Z" />
		<path id="Layer" class="shp0" d="M300 300L252 60C264 -18 336 -18 348 60L300 300Z" />
		<path id="Layer" class="shp0" d="M300 300L347.5 59.9C388.43 -7.57 454.95 19.98 436.19 96.64L300 300Z" />
		<path id="Layer" class="shp0" d="M300 300L435.77 96.35C499.4 49.68 550.32 100.6 503.65 164.23L300 300Z" />
		<path id="Layer" class="shp0" d="M300 300L503.36 163.81C580.02 145.05 607.57 211.57 540.1 252.5L300 300Z" />
		<path id="Layer" class="shp1" d="M342 300L534 267C597 276 597 324 534 333L342 300Z" />
		<path id="Layer" class="shp1" d="M338.8 316.07L528.82 359.06C583.58 391.48 565.21 435.83 503.56 420.04L338.8 316.07Z" />
		<path id="Layer" class="shp1" d="M329.7 329.7L488.8 442.13C526.98 493.04 493.04 526.98 442.13 488.8L329.7 329.7Z" />
		<path id="Layer" class="shp1" d="M316.07 338.8L420.04 503.56C435.83 565.21 391.48 583.58 359.06 528.82L316.07 338.8Z" />
		<path id="Layer" class="shp1" d="M300 342L333 534C324 597 276 597 267 534L300 342Z" />
		<path id="Layer" class="shp1" d="M283.93 338.8L240.94 528.82C208.52 583.58 164.17 565.21 179.96 503.56L283.93 338.8Z" />
		<path id="Layer" class="shp1" d="M270.3 329.7L157.87 488.8C106.96 526.98 73.02 493.04 111.2 442.13L270.3 329.7Z" />
		<path id="Layer" class="shp1" d="M261.2 316.07L96.44 420.04C34.79 435.83 16.42 391.48 71.18 359.06L261.2 316.07Z" />
		<path id="Layer" class="shp1" d="M258 300L66 333C3 324 3 276 66 267L258 300Z" />
		<path id="Layer" class="shp1" d="M261.2 283.93L71.18 240.94C16.42 208.52 34.79 164.17 96.44 179.96L261.2 283.93Z" />
		<path id="Layer" class="shp1" d="M270.3 270.3L111.2 157.87C73.02 106.96 106.96 73.02 157.87 111.2L270.3 270.3Z" />
		<path id="Layer" class="shp1" d="M283.93 261.2L179.96 96.44C164.17 34.79 208.52 16.42 240.94 71.18L283.93 261.2Z" />
		<path id="Layer" class="shp1" d="M300 258L267 66C276 3 324 3 333 66L300 258Z" />
		<path id="Layer" class="shp1" d="M316.07 261.2L359.06 71.18C391.48 16.42 435.83 34.79 420.04 96.44L316.07 261.2Z" />
		<path id="Layer" class="shp1" d="M329.7 270.3L442.13 111.2C493.04 73.02 526.98 106.96 488.8 157.87L329.7 270.3Z" />
		<path id="Layer" class="shp1" d="M338.8 283.93L503.56 179.96C565.21 164.17 583.58 208.52 528.82 240.94L338.8 283.93Z" />
		<path id="Layer" class="shp2" d="M336 300C336 319.88 319.88 336 300 336C280.12 336 264 319.88 264 300C264 280.12 280.12 264 300 264C319.88 264 336 280.12 336 300Z" />
		<path id="Layer" class="shp3" d="M275.38 322.89L281.61 331.38L293.59 335.59L303.96 335.69L313.82 333.63L325.18 326.06L331.87 319.39L335.3 304.14L330.06 282.34C332.32 312.23 302.41 338.48 275.39 322.88L275.38 322.89Z" />
		<path id="Layer" class="shp1" d="M311.07 286.75C311.07 297.17 298.34 304.82 287.58 304.82C276.82 304.82 268.89 293.37 268.89 282.95C268.89 277.6 271.59 277.57 275.28 274.13C278.79 270.88 284.79 264.87 290.03 264.87C300.79 264.87 311.07 276.32 311.07 286.74L311.07 286.75Z" />
		<path id="Layer" class="shp4" d="M336 300C336 319.88 319.88 336 300 336C280.12 336 264 319.88 264 300C264 280.12 280.12 264 300 264C319.88 264 336 280.12 336 300Z" />
	</g>
</svg>