<svg version="1.2" xmlns="http://www.w3.org/2000/svg" viewBox="0 0 600 600" width="600" height="600">
	<title></title>
	<defs>
		<clipPath clipPathUnits="userSpaceOnUse" id="cp1">
			<path d="m0.03 0.01h600v600h-600z"/>
		</clipPath>
	</defs>
	<style>
		.s0 { fill: #c5a572;stroke: #1e3255;stroke-linecap: round;stroke-linejoin: round;stroke-width: 6.6 } 
		.s1 { fill: #10275d } 
		.s2 { fill: #1e3255 } 
		.s3 { fill: #e2d28e } 
		.s4 { fill: none;stroke: #e2d28e;stroke-linecap: round;stroke-linejoin: round;stroke-width: 4.4 } 
	</style>
	<g id="Clip-Path: g431" clip-path="url(#cp1)">
		<g id="g431">
			<path id="path7" fill-rule="evenodd" class="s0" d="m586.5 376.8c-4.1 15.5-17 26.3-31.9 28.6 8.9 12.2 10.3 29 2.3 42.9-8 13.9-23.3 21.1-38.3 19.4 5.5 14.1 2.5 30.7-8.8 42-11.4 11.4-28 14.3-42 8.9 1.6 15-5.6 30.2-19.5 38.3-13.9 8-30.7 6.6-42.8-2.4-2.4 15-13.2 27.9-28.7 32-15.5 4.2-31.4-1.6-40.8-13.3-6.1 13.8-19.9 23.4-36 23.4-16 0-29.9-9.6-35.9-23.4-9.5 11.7-25.3 17.5-40.9 13.3-15.5-4.1-26.3-17-28.6-32-12.2 9-29 10.4-42.9 2.4-13.9-8.1-21-23.3-19.4-38.3-14.1 5.4-30.7 2.5-42-8.9-11.4-11.3-14.3-27.9-8.8-42-15.1 1.6-30.3-5.5-38.3-19.4-8.1-13.9-6.6-30.7 2.3-42.9-14.9-2.3-27.8-13.1-32-28.6-4.1-15.5 1.6-31.4 13.4-40.8-13.8-6.1-23.5-19.9-23.5-36 0-16.1 9.7-29.9 23.5-36-11.8-9.4-17.5-25.3-13.4-40.8 4.2-15.5 17.1-26.3 32-28.6-8.9-12.2-10.4-29-2.3-42.9 8-13.9 23.2-21.1 38.3-19.4-5.5-14.1-2.6-30.7 8.8-42 11.3-11.4 27.9-14.3 42-8.9-1.6-15 5.5-30.2 19.4-38.3 13.9-8 30.7-6.6 42.9 2.4 2.3-14.9 13.1-27.8 28.6-32 15.6-4.2 31.4 1.6 40.9 13.3 6.1-13.8 19.9-23.4 35.9-23.4 16.1 0 29.9 9.6 36 23.4 9.5-11.7 25.3-17.5 40.8-13.3 15.5 4.1 26.3 17 28.7 31.9 12.1-8.9 28.9-10.3 42.8-2.3 13.9 8 21.1 23.3 19.4 38.3 14.1-5.4 30.7-2.5 42.1 8.8 11.3 11.4 14.3 28 8.8 42.1 15-1.7 30.3 5.5 38.3 19.4 8 13.9 6.6 30.7-2.3 42.9 14.9 2.3 27.8 13.1 31.9 28.6 4.2 15.5-1.6 31.4-13.3 40.8 13.8 6.1 23.5 19.9 23.5 36 0 16.1-9.7 29.9-23.5 36 11.7 9.4 17.5 25.2 13.3 40.8z"/>
			<path id="path9" fill-rule="evenodd" class="s1" d="m299.1 598.6v-0.1c-15.4-0.3-28.7-9.1-35.5-21.8-7.8 8.2-18.6 13.1-30.2 13.1-3.5 0-7.1-0.5-10.7-1.4-15.3-4.1-26.2-16.2-29.6-30.6-6.5 4.1-14.1 6.3-21.9 6.3-7 0-14.1-1.8-20.6-5.5-13.2-7.7-20.6-21.6-20.6-35.8q0-0.7 0-1.4c-3.9 1.2-8 1.8-12 1.8-10.6 0-21.2-4-29.3-12.1-8-8.1-12.1-18.6-12.1-29.2 0-4 0.6-8.1 1.8-12q-0.6 0-1.3 0c-14.3 0-28.2-7.4-35.8-20.6-3.8-6.5-5.6-13.6-5.6-20.6 0-7.7 2.2-15.3 6.3-21.9-14.4-3.3-26.5-14.3-30.6-29.5q-1.4-5.4-1.4-10.7c0-11.6 4.9-22.5 13.1-30.2-13-6.9-21.9-20.6-21.9-36.4 0-15.8 8.9-29.5 21.9-36.4-8.2-7.7-13.1-18.6-13.1-30.2 0-3.5 0.5-7.1 1.4-10.7 4.1-15.2 16.2-26.1 30.6-29.5-4.1-6.6-6.3-14.2-6.3-21.9 0-7 1.8-14.1 5.6-20.6 7.6-13.2 21.5-20.6 35.8-20.6q0.7 0 1.4 0c-1.2-3.9-1.8-8-1.8-12 0-10.6 4-21.1 12.1-29.2 8-8.1 18.6-12.1 29.2-12.1 4 0 8.1 0.6 12 1.8q0-0.7 0-1.4c0-14.2 7.4-28.1 20.6-35.7 6.5-3.8 13.7-5.6 20.7-5.6 7.7 0 15.3 2.2 21.8 6.3 3.4-14.4 14.4-26.5 29.6-30.6 3.6-0.9 7.2-1.4 10.7-1.4 11.6 0 22.5 4.9 30.2 13.1 6.9-13 20.6-21.8 36.4-21.8 15.8 0 29.5 8.8 36.5 21.8 7.7-8.2 18.6-13.1 30.1-13.1 3.6 0 7.2 0.5 10.8 1.4 15.2 4.1 26.2 16.2 29.5 30.6 6.6-4.1 14.2-6.3 21.9-6.3 7 0 14.1 1.8 20.6 5.6 13.3 7.6 20.7 21.5 20.7 35.7q0 0.7-0.1 1.4c4-1.2 8-1.8 12.1-1.8 10.5 0 21.1 4 29.2 12.1 8 8.1 12.1 18.6 12.1 29.2 0 4-0.6 8.1-1.8 12q0.7 0 1.4 0c14.2 0 28.1 7.4 35.8 20.6 3.7 6.5 5.5 13.6 5.5 20.6 0 7.7-2.1 15.3-6.2 21.9 14.4 3.3 26.5 14.3 30.5 29.5 1 3.6 1.5 7.2 1.5 10.7 0 11.6-4.9 22.4-13.1 30.2 12.9 6.9 21.8 20.6 21.8 36.3q0 0.1 0 0.2v2.3-0.1c-0.9 14.8-9.5 27.5-21.8 34.1 8.2 7.7 13.1 18.6 13.1 30.2 0 3.5-0.5 7.1-1.5 10.7-4 15.2-16.2 26.1-30.5 29.5 4.1 6.6 6.2 14.2 6.2 21.9 0 7-1.8 14.1-5.5 20.6-7.7 13.2-21.6 20.6-35.8 20.6q-0.7 0-1.4 0c1.2 3.9 1.8 7.9 1.8 12 0 10.6-4 21.1-12.1 29.2-8.1 8-18.7 12.1-29.2 12.1-4.1 0-8.1-0.6-12-1.8q0 0.7 0 1.3c0 14.3-7.4 28.2-20.7 35.8-6.5 3.8-13.6 5.6-20.6 5.6-7.7 0-15.3-2.2-21.9-6.3-3.3 14.4-14.3 26.5-29.5 30.6q-5.4 1.4-10.8 1.4c-11.5 0-22.4-4.9-30.1-13.1-7 13-20.7 21.8-36.5 21.8h-0.9zm0.9-4c15.3 0 28.4-9.1 34.2-22.2l1.3-3 2.1 2.5c7 8.7 17.7 14 29 14q4.8 0 9.7-1.3c14.7-3.9 25-16.2 27.2-30.3l0.5-3.3 2.7 2c6.4 4.7 14.2 7.2 22.1 7.2 6.3 0 12.7-1.6 18.6-5 12-6.9 18.6-19.4 18.7-32.3q0-2-0.3-4l-0.3-3.3 3.1 1.2c4.3 1.7 8.9 2.5 13.5 2.5 9.5 0 19.1-3.6 26.4-10.9 7.2-7.3 10.9-16.8 10.9-26.4 0-4.6-0.9-9.1-2.5-13.5l-1.2-3.1 3.2 0.4q2.1 0.2 4.1 0.2c12.9 0 25.4-6.6 32.3-18.6 3.4-5.9 5-12.3 5-18.6 0-7.9-2.5-15.7-7.2-22.1l-2-2.6 3.3-0.6c14.2-2.1 26.4-12.4 30.4-27.2 0.8-3.2 1.2-6.4 1.2-9.6 0-11.4-5.2-22.1-13.9-29.1l-2.6-2 3-1.4c13.1-5.7 22.3-18.8 22.3-34q0-0.1 0-0.2c0-15.2-9.2-28.2-22.3-34l-3-1.3 2.6-2.1c8.7-7 14-17.7 14-29q0-4.9-1.3-9.7c-4-14.7-16.2-25-30.4-27.2l-3.3-0.5 2-2.7c4.7-6.4 7.2-14.2 7.2-22.1 0-6.3-1.6-12.7-5-18.6-6.9-11.9-19.4-18.6-32.3-18.6q-2 0-4.1 0.2l-3.2 0.4 1.1-3.1c1.7-4.3 2.6-8.9 2.6-13.5 0-9.6-3.7-19.1-10.9-26.3-7.3-7.3-16.9-11-26.4-11-4.6 0-9.2 0.9-13.5 2.6l-3.1 1.2 0.4-3.3q0.2-2 0.2-4c0-12.9-6.7-25.4-18.7-32.4-5.9-3.4-12.3-5-18.6-5-7.9 0-15.7 2.6-22.1 7.3l-2.6 1.9-0.6-3.3c-2.2-14.1-12.4-26.4-27.2-30.3-3.2-0.9-6.5-1.3-9.7-1.3-11.3 0-22 5.2-29 14l-2.1 2.5-1.3-3c-5.8-13.1-18.9-22.2-34.2-22.2-15.2 0-28.3 9.1-34.1 22.2l-1.4 3-2-2.5c-7-8.8-17.7-14-29.1-14q-4.8 0-9.7 1.3c-14.7 3.9-25 16.2-27.2 30.3l-0.5 3.3-2.7-2c-6.4-4.7-14.2-7.2-22.1-7.2-6.3 0-12.7 1.6-18.6 5-11.9 6.9-18.6 19.5-18.6 32.4q0 2 0.2 4l0.3 3.3-3-1.2c-4.4-1.7-9-2.6-13.6-2.6-9.5 0-19.1 3.7-26.3 10.9-7.3 7.3-11 16.8-11 26.4 0 4.6 0.9 9.2 2.6 13.5l1.2 3.1-3.3-0.4q-2-0.2-4-0.2c-12.9 0-25.5 6.7-32.4 18.6-3.4 5.9-5 12.3-5 18.6 0 7.9 2.5 15.7 7.2 22.1l2 2.7-3.3 0.5c-14.1 2.2-26.4 12.5-30.3 27.2q-1.3 4.8-1.3 9.6c0 11.4 5.2 22.1 13.9 29.1l2.6 2.1-3 1.3c-13.1 5.8-22.2 18.8-22.2 34.1 0 15.2 9.1 28.3 22.2 34.1l3.1 1.3-2.6 2.1c-8.8 7-14 17.7-14 29.1q0 4.8 1.3 9.6c3.9 14.7 16.2 25 30.3 27.2l3.3 0.5-1.9 2.7c-4.7 6.4-7.3 14.2-7.3 22.1 0 6.3 1.7 12.7 5.1 18.6 6.9 11.9 19.4 18.6 32.3 18.6q2 0 4-0.2l3.3-0.4-1.2 3.1c-1.7 4.3-2.5 8.9-2.5 13.5 0 9.6 3.6 19.1 10.9 26.4 7.3 7.2 16.8 10.9 26.4 10.9 4.6 0 9.2-0.9 13.5-2.6l3.1-1.1-0.4 3.2q-0.2 2-0.2 4c0 12.9 6.7 25.5 18.7 32.4 5.8 3.3 12.2 5 18.6 5 7.9 0 15.6-2.6 22.1-7.3l2.6-1.9 0.5 3.3c2.2 14.1 12.5 26.3 27.3 30.3 3.2 0.9 6.4 1.3 9.6 1.3 11.4 0 22.1-5.3 29.1-14l2.1-2.6 1.3 3.1c5.8 13.1 18.9 22.2 34.1 22.2z"/>
			<path id="path11" fill-rule="evenodd" class="s2" d="m545.4 300.4c0 135.2-109.7 244.8-245 244.8-135.3 0-245-109.6-245-244.8 0-135.2 109.7-244.8 245-244.8 135.3 0 245 109.6 245 244.8z"/>
			<path id="path13" fill-rule="evenodd" class="s3" d="m529.8 345.9l-4.1-0.8-10.3-2.1-4-0.8 0.6-3.9 4.2 0.8 10.2 1.8c1.1-5.6 1.7-11.4 2.5-17.1l-10.4-1-1.3 10.3-4.1-0.6c1.5-10.7 2.2-21.4 2.4-32.3h4.1c-0.1 6.2-0.2 12.4-0.8 18.6l10.4 0.8 4.1 0.4-0.3 4.3c-0.8 7.2-1.8 14.4-3.2 21.6z"/>
			<path id="path15" fill-rule="evenodd" class="s3" d="m529.7 313.3c0.2-4.3 0.3-8.5 0.4-12.8h4.2c-0.1 4.3-0.2 8.7-0.4 13z"/>
			<path id="path17" fill-rule="evenodd" class="s3" d="m516.5 389.9l-3.9-1.6-9.7-4.1-3.9-1.6 1.5-3.6 3.9 1.5 9.7 3.8c2.3-5.3 4-10.8 5.8-16.3l-10-3.1-3.3 10-4-1.4c3.7-10.2 6.5-20.7 8.7-31.2l4.1 0.8c-1.3 6-2.6 12.1-4.4 18l10.1 2.9 4 1.1-1.2 4.2c-2.2 6.9-4.6 13.8-7.4 20.6z"/>
			<path id="path19" fill-rule="evenodd" class="s3" d="m522.7 357.9c1-4.2 2-8.5 2.9-12.7l4.1 0.8c-0.8 4.3-1.9 8.6-2.9 12.9z"/>
			<path id="path21" fill-rule="evenodd" class="s3" d="m494.9 430.2l-3.5-2.3-8.7-5.8-3.5-2.4 2.1-3.3 3.6 2.3 8.8 5.6c3.2-4.8 6-9.8 8.9-14.8l-9.3-5-5.2 9.1-3.6-2.2c5.6-9.2 10.5-18.9 14.7-28.8l3.8 1.6c-2.4 5.7-4.9 11.3-7.8 16.8l9.3 4.8 3.7 1.9-1.9 3.8c-3.6 6.4-7.3 12.6-11.4 18.7z"/>
			<path id="path23" fill-rule="evenodd" class="s3" d="m507.2 400.1c1.8-4 3.7-7.9 5.4-11.9l3.8 1.6c-1.7 4.1-3.6 8.1-5.4 12.1z"/>
			<path id="path25" fill-rule="evenodd" class="s3" d="m465.7 465.7l-3-2.9-7.4-7.4-2.9-3 2.7-2.9 3 3 7.5 7.2c4.1-4.1 7.8-8.5 11.6-12.8l-8.1-6.7-6.8 7.9-3.1-2.8c7.2-8.1 13.9-16.6 19.9-25.5l3.5 2.3c-3.5 5.1-7.1 10.2-10.9 14.9l8.1 6.6 3.3 2.6-2.7 3.3c-4.7 5.6-9.6 11-14.7 16.2z"/>
			<path id="path27" fill-rule="evenodd" class="s3" d="m483.8 438.6q3.9-5.2 7.6-10.6l3.5 2.3q-3.8 5.5-7.7 10.8z"/>
			<path id="path29" fill-rule="evenodd" class="s3" d="m430.2 494.7l-2.3-3.5-5.8-8.6-2.3-3.5c1.1-0.7 2.1-1.5 3.2-2.2l2.4 3.4 6 8.5c4.7-3.2 9.3-6.7 13.8-10.3l-6.6-8.1c-2.8 2.1-5.5 4.3-8.3 6.4l-2.5-3.4c8.7-6.4 16.9-13.4 24.5-21l3 3c-4.4 4.2-8.9 8.5-13.7 12.4l6.8 8 2.7 3.2c-1.1 0.9-2.2 1.9-3.3 2.7-5.7 4.6-11.5 8.9-17.6 13z"/>
			<path id="path31" fill-rule="evenodd" class="s3" d="m453.4 471.6c3.2-2.8 6.2-5.9 9.4-8.8l2.9 2.9c-3.2 3-6.3 6.1-9.6 8.9z"/>
			<path id="path33" fill-rule="evenodd" class="s3" d="m390 516.4l-1.6-3.8-4-9.7-1.6-3.8c1.2-0.5 2.4-1 3.6-1.6l1.7 3.8 4.2 9.6q7.9-3.4 15.5-7.5l-4.9-9.2c-3.1 1.5-6.1 3.3-9.3 4.7l-1.8-3.8c9.7-4.6 19.1-9.9 28.1-15.9l2.3 3.5c-5.2 3.4-10.4 6.6-15.8 9.6l5.1 9.1 2 3.7c-1.2 0.7-2.5 1.3-3.8 2-6.4 3.4-13 6.5-19.7 9.3z"/>
			<path id="path35" fill-rule="evenodd" class="s3" d="m416.9 498.1c3.8-2 7.4-4.5 11.1-6.8l2.4 3.4c-3.8 2.4-7.5 4.9-11.4 7z"/>
			<path id="path37" fill-rule="evenodd" class="s3" d="m346.1 529.7l-0.8-4.1-2-10.2-0.9-4.1c1.3-0.2 2.6-0.6 3.9-0.9l0.9 4.1 2.2 10.2q8.4-1.8 16.7-4.3l-3-10c-3.4 0.9-6.7 2-10.1 2.8l-1-4.1c10.5-2.7 20.7-5.9 30.6-10.1l1.6 3.9q-8.5 3.5-17.3 6.4l3.2 9.9 1.3 4c-1.4 0.5-2.8 0.8-4.1 1.3-7 2.1-14.1 3.8-21.2 5.2z"/>
			<path id="path39" fill-rule="evenodd" class="s3" d="m376 517.1c4.2-1.3 8.2-3 12.2-4.5l1.6 3.8c-4.1 1.5-8.2 3.3-12.4 4.6z"/>
			<path id="path41" fill-rule="evenodd" class="s3" d="m300.4 534.1v-4.2-10.5-4.2l3.9-0.1 0.1 4.2 0.2 10.5c5.8-0.1 11.5-0.5 17.3-1l-1-10.4c-3.5 0.3-7 0.6-10.4 0.8l-0.2-4.2c10.7-0.6 21.5-1.8 32.1-3.9l0.8 4.1c-6.1 1.2-12.2 2.2-18.3 2.8l1.1 10.4 0.5 4.2q-2.1 0.3-4.3 0.4c-7.2 0.7-14.5 1-21.8 1.1z"/>
			<path id="path43" fill-rule="evenodd" class="s3" d="m332.3 527.7c4.4-0.4 8.6-1.4 12.9-2.1l0.9 4.1c-4.4 0.7-8.8 1.7-13.2 2.2z"/>
			<path id="path45" fill-rule="evenodd" class="s3" d="m254.7 529.7l0.8-4.1 2.1-10.3 0.8-4.2 3.9 0.7-0.8 4.2-1.8 10.3c5.7 1.2 11.4 1.8 17.1 2.5l1.1-10.5-10.4-1.3 0.6-4.2c10.7 1.6 21.5 2.3 32.3 2.5v4.2c-6.2-0.2-12.4-0.2-18.5-0.8l-0.9 10.4-0.3 4.2-4.3-0.3c-7.3-0.8-14.5-1.9-21.7-3.3z"/>
			<path id="path47" fill-rule="evenodd" class="s3" d="m287.3 529.5c4.4 0.2 8.7 0.2 13.1 0.4v4.2c-4.4-0.2-8.9-0.2-13.3-0.4z"/>
			<path id="path49" fill-rule="evenodd" class="s3" d="m211 516.3l1.6-3.8 4-9.6 1.6-3.9 3.6 1.5-1.5 3.8-3.8 9.7c5.3 2.2 10.8 3.9 16.2 5.7l3.1-9.9-9.9-3.3 1.4-3.9c10.1 3.6 20.5 6.4 31.1 8.6l-0.9 4.1c-6-1.3-12-2.6-17.9-4.4l-2.8 10-1.2 4-4.1-1.2c-7-2.2-13.8-4.6-20.5-7.4z"/>
			<path id="path51" fill-rule="evenodd" class="s3" d="m243 522.7c4.2 1 8.4 2.1 12.7 2.9l-0.8 4.1c-4.4-0.8-8.7-1.9-13-2.9z"/>
			<path id="path53" fill-rule="evenodd" class="s3" d="m170.4 494.7l2.3-3.5 5.8-8.7 2.4-3.5 3.3 2.1-2.3 3.5-5.6 8.9c4.7 3.2 9.8 6 14.8 8.8l5-9.2-9.1-5.2 2.2-3.6c9.2 5.6 18.9 10.4 28.8 14.6l-1.6 3.9c-5.7-2.4-11.3-4.9-16.7-7.8l-4.9 9.3-1.9 3.7-3.8-2c-6.4-3.5-12.6-7.3-18.7-11.3z"/>
			<path id="path55" fill-rule="evenodd" class="s3" d="m200.5 507.3c4 1.7 7.9 3.6 11.9 5.3l-1.6 3.8c-4.1-1.7-8.1-3.6-12.1-5.4z"/>
			<path id="path57" fill-rule="evenodd" class="s3" d="m135.1 465.7l3-2.9 7.4-7.4 2.9-3 2.9 2.7-2.9 3-7.3 7.6c4.1 4 8.5 7.7 12.9 11.5l6.6-8-7.8-6.9 2.8-3.1c8 7.2 16.5 13.9 25.4 20l-2.3 3.4c-5.1-3.5-10.1-7-14.9-10.9l-6.5 8.1-2.7 3.3-3.3-2.7c-5.6-4.7-11-9.6-16.2-14.7z"/>
			<path id="path59" fill-rule="evenodd" class="s3" d="m162.1 483.6q5.3 3.9 10.7 7.6l-2.3 3.5q-5.6-3.8-11-7.8z"/>
			<path id="path61" fill-rule="evenodd" class="s3" d="m105.9 430.3l3.5-2.3 8.7-5.9 3.5-2.3c0.6 1.1 1.5 2.2 2.2 3.2l-3.4 2.4-8.6 6c3.3 4.7 6.8 9.3 10.4 13.8l8.1-6.6c-2.1-2.8-4.3-5.4-6.4-8.3l3.4-2.4c6.4 8.6 13.5 16.8 21.1 24.5l-3 2.9c-4.3-4.4-8.5-8.9-12.5-13.6l-8 6.7-3.2 2.7c-0.9-1.1-1.9-2.1-2.8-3.3-4.6-5.6-8.9-11.5-13-17.5z"/>
			<path id="path63" fill-rule="evenodd" class="s3" d="m129.1 453.1c2.8 3.4 5.9 6.4 8.9 9.6l-2.9 3c-3.1-3.2-6.2-6.4-9.2-9.7z"/>
			<path id="path65" fill-rule="evenodd" class="s3" d="m84.4 389.8l3.8-1.6 9.7-4 3.8-1.6c0.5 1.2 1 2.4 1.6 3.7l-3.8 1.6-9.6 4.2q3.4 8 7.5 15.6l9.2-4.9c-1.5-3.1-3.3-6.1-4.7-9.4l3.8-1.7c4.7 9.7 9.9 19.2 15.9 28.2l-3.5 2.3c-3.4-5.1-6.6-10.4-9.6-15.8l-9.1 5.1-3.7 2c-0.7-1.2-1.4-2.5-2-3.8-3.4-6.5-6.5-13.1-9.3-19.9z"/>
			<path id="path67" fill-rule="evenodd" class="s3" d="m102.5 416.9c2.1 3.8 4.7 7.3 7 11l-3.5 2.3c-2.4-3.7-5-7.3-7.1-11.2z"/>
			<path id="path69" fill-rule="evenodd" class="s3" d="m71.1 346l4.1-0.9 10.2-2 4.1-0.8c0.2 1.3 0.6 2.6 0.9 3.8l-4.1 0.9-10.2 2.3q1.8 8.4 4.3 16.7l10-3c-0.9-3.3-2-6.7-2.8-10.1l4.1-1c2.7 10.5 5.9 20.8 10.1 30.8l-3.9 1.6q-3.5-8.6-6.4-17.4l-9.9 3.2-4 1.3c-0.5-1.4-0.8-2.8-1.2-4.2-2.1-7-3.8-14.1-5.3-21.2z"/>
			<path id="path71" fill-rule="evenodd" class="s3" d="m83.5 376.1c1.4 4.1 3.2 8.1 4.7 12.2l-3.9 1.6c-1.6-4.2-3.4-8.2-4.8-12.4z"/>
			<path id="path73" fill-rule="evenodd" class="s3" d="m66.5 300.2h4.2 10.4 4.2l0.1 4-4.2 0.1-10.4 0.2c0 5.8 0.4 11.5 0.9 17.3l10.4-0.9c-0.2-3.5-0.6-7-0.7-10.5l4.2-0.2c0.6 10.8 1.7 21.6 3.8 32.2l-4.1 0.8c-1.1-6-2.1-12.2-2.8-18.3l-10.4 1.1-4.1 0.5q-0.3-2.1-0.5-4.3c-0.7-7.3-0.9-14.6-1-22z"/>
			<path id="path75" fill-rule="evenodd" class="s3" d="m73 332.4c0.5 4.3 1.5 8.5 2.2 12.7l-4.1 0.8c-0.7-4.3-1.7-8.6-2.2-13z"/>
			<path id="path77" fill-rule="evenodd" class="s3" d="m71 254.8l4.1 0.9 10.2 2 4.1 0.8-0.7 3.9-4.1-0.7-10.2-1.9c-1.1 5.7-1.7 11.4-2.5 17.1l10.4 1.1 1.3-10.4 4.1 0.6c-1.5 10.7-2.2 21.5-2.4 32.3h-4.1c0.1-6.2 0.2-12.4 0.8-18.5l-10.4-0.9-4.1-0.3 0.3-4.3c0.8-7.3 1.8-14.5 3.2-21.7z"/>
			<path id="path79" fill-rule="evenodd" class="s3" d="m71.1 287.4c-0.2 4.3-0.3 8.6-0.4 12.8h-4.2c0.1-4.3 0.1-8.6 0.4-13z"/>
			<path id="path81" fill-rule="evenodd" class="s3" d="m84.3 210.9l3.9 1.6 9.7 4 3.9 1.6-1.5 3.7-3.9-1.6-9.8-3.8c-2.2 5.3-3.9 10.9-5.7 16.3l10 3.1 3.3-9.9 4 1.4c-3.7 10.1-6.5 20.6-8.7 31.2l-4.1-0.9c1.3-6 2.6-12 4.4-17.9l-10.1-2.9-4-1.2 1.2-4.1c2.2-7 4.6-13.9 7.4-20.6z"/>
			<path id="path83" fill-rule="evenodd" class="s3" d="m78.1 242.8c-1 4.3-2.1 8.5-2.9 12.8l-4.1-0.9c0.8-4.3 1.9-8.6 2.9-12.9z"/>
			<path id="path85" fill-rule="evenodd" class="s3" d="m105.9 170.5l3.5 2.4 8.7 5.8 3.5 2.3-2.2 3.3-3.5-2.2-8.8-5.7c-3.2 4.8-6 9.8-8.9 14.8l9.3 5 5.2-9.1 3.6 2.2c-5.6 9.2-10.5 18.9-14.7 28.8l-3.8-1.6c2.4-5.6 4.9-11.3 7.8-16.7l-9.3-4.8-3.7-1.9 2-3.8c3.5-6.4 7.3-12.7 11.3-18.8z"/>
			<path id="path87" fill-rule="evenodd" class="s3" d="m93.6 200.6c-1.8 4-3.7 7.9-5.4 12l-3.8-1.6c1.7-4.1 3.6-8.2 5.4-12.2z"/>
			<path id="path89" fill-rule="evenodd" class="s3" d="m135.1 135l3 3 7.3 7.4 3 2.9-2.7 2.9-3-2.9-7.5-7.3c-4.1 4.1-7.8 8.5-11.6 12.9l8.1 6.7 6.8-7.9 3.1 2.8c-7.2 8-13.9 16.5-19.9 25.4l-3.5-2.3c3.5-5.1 7-10.1 10.9-14.9l-8.1-6.5-3.3-2.6 2.7-3.4c4.7-5.6 9.6-11 14.7-16.2z"/>
			<path id="path91" fill-rule="evenodd" class="s3" d="m117 162.2q-3.9 5.2-7.6 10.5l-3.5-2.3q3.7-5.4 7.7-10.7z"/>
			<path id="path93" fill-rule="evenodd" class="s3" d="m170.6 106l2.3 3.5 5.8 8.7 2.3 3.4c-1.1 0.7-2.1 1.5-3.2 2.3l-2.4-3.4-6-8.6c-4.7 3.3-9.3 6.8-13.8 10.4l6.6 8c2.8-2.1 5.5-4.3 8.3-6.3l2.5 3.3c-8.7 6.4-16.9 13.5-24.5 21l-3-2.9c4.4-4.3 8.9-8.5 13.6-12.5l-6.7-7.9-2.7-3.2c1.1-1 2.2-1.9 3.3-2.8 5.7-4.6 11.5-8.9 17.6-13z"/>
			<path id="path95" fill-rule="evenodd" class="s3" d="m147.4 129.2c-3.2 2.8-6.2 5.8-9.4 8.7l-2.9-2.9c3.2-2.9 6.3-6 9.6-8.9z"/>
			<path id="path97" fill-rule="evenodd" class="s3" d="m210.8 84.3l1.6 3.9 4 9.7 1.6 3.9c-1.2 0.4-2.4 1-3.6 1.5l-1.7-3.8-4.2-9.6q-7.9 3.4-15.5 7.5l4.9 9.3c3.1-1.6 6.1-3.3 9.3-4.7l1.8 3.8c-9.7 4.6-19.1 9.9-28.1 15.9l-2.3-3.4c5.1-3.5 10.4-6.7 15.8-9.7l-5.1-9.2-2-3.7c1.2-0.7 2.5-1.4 3.8-2 6.4-3.4 13-6.5 19.7-9.4z"/>
			<path id="path99" fill-rule="evenodd" class="s3" d="m183.9 102.6c-3.8 2.1-7.4 4.6-11.2 6.8l-2.3-3.4c3.8-2.3 7.5-4.8 11.4-7z"/>
			<path id="path101" fill-rule="evenodd" class="s3" d="m254.7 71l0.8 4.1 2 10.3 0.9 4.1c-1.3 0.2-2.6 0.5-3.9 0.8l-0.9-4.1-2.2-10.2q-8.4 1.8-16.7 4.3l3 10c3.4-0.9 6.7-2 10.1-2.7l1 4c-10.5 2.7-20.7 5.9-30.7 10.1l-1.6-3.9q8.6-3.5 17.4-6.3l-3.2-10-1.3-4c1.4-0.4 2.8-0.8 4.1-1.2 7-2.1 14.1-3.8 21.2-5.3z"/>
			<path id="path103" fill-rule="evenodd" class="s3" d="m224.8 83.6c-4.2 1.3-8.2 3.1-12.2 4.6l-1.6-3.8c4.1-1.6 8.2-3.4 12.4-4.7z"/>
			<path id="path105" fill-rule="evenodd" class="s3" d="m300.4 66.7v4.2 10.4 4.2l-3.9 0.1-0.1-4.2-0.2-10.4c-5.8 0-11.5 0.4-17.3 0.9l1 10.4c3.5-0.2 7-0.6 10.4-0.7l0.2 4.2c-10.7 0.5-21.5 1.7-32.1 3.8l-0.8-4.1c6.1-1.2 12.2-2.1 18.3-2.8l-1.1-10.4-0.5-4.1q2.1-0.4 4.3-0.5c7.2-0.7 14.5-0.9 21.8-1z"/>
			<path id="path107" fill-rule="evenodd" class="s3" d="m268.5 73c-4.4 0.4-8.6 1.4-13 2.1l-0.8-4.1c4.4-0.7 8.8-1.7 13.2-2.2z"/>
			<path id="path109" fill-rule="evenodd" class="s3" d="m346.1 71l-0.8 4.2-2.1 10.3-0.8 4.1-3.9-0.7 0.7-4.1 1.9-10.4c-5.7-1.1-11.4-1.7-17.1-2.5l-1.1 10.5 10.4 1.3-0.6 4.2c-10.7-1.6-21.5-2.3-32.3-2.4v-4.2c6.2 0.1 12.4 0.2 18.5 0.8l0.9-10.5 0.3-4.2 4.3 0.3c7.3 0.9 14.5 1.9 21.7 3.3z"/>
			<path id="path111" fill-rule="evenodd" class="s3" d="m313.5 71.3c-4.4-0.3-8.8-0.3-13.1-0.4v-4.2c4.4 0.1 8.9 0.1 13.3 0.4z"/>
			<path id="path113" fill-rule="evenodd" class="s3" d="m389.8 84.4l-1.6 3.8-4 9.7-1.6 3.8-3.6-1.4 1.5-3.9 3.8-9.7c-5.3-2.2-10.8-3.9-16.2-5.7l-3.1 9.9 9.9 3.3-1.4 3.9c-10.1-3.6-20.5-6.4-31.1-8.5l0.9-4.1c6 1.2 12 2.6 17.9 4.3l2.8-10 1.2-3.9 4.1 1.1c6.9 2.2 13.8 4.6 20.5 7.4z"/>
			<path id="path115" fill-rule="evenodd" class="s3" d="m357.8 78c-4.2-0.9-8.4-2-12.7-2.9l0.8-4.1c4.4 0.9 8.7 2 13 3z"/>
			<path id="path117" fill-rule="evenodd" class="s3" d="m430.4 106.1l-2.3 3.5-5.8 8.7-2.4 3.4-3.3-2.1 2.3-3.5 5.6-8.8c-4.8-3.2-9.8-6-14.8-8.9l-5 9.2 9.1 5.2-2.2 3.6c-9.2-5.5-18.9-10.4-28.8-14.6l1.6-3.9c5.7 2.5 11.3 5 16.7 7.9l4.8-9.3 2-3.7 3.8 1.9c6.4 3.6 12.6 7.3 18.7 11.4z"/>
			<path id="path119" fill-rule="evenodd" class="s3" d="m400.3 93.5c-4-1.8-7.9-3.7-11.9-5.3l1.6-3.9c4.1 1.7 8.1 3.6 12.1 5.4z"/>
			<path id="path121" fill-rule="evenodd" class="s3" d="m465.7 135l-3 3-7.4 7.4-2.9 2.9-2.9-2.7 2.9-3 7.3-7.5c-4.1-4.1-8.5-7.8-12.9-11.6l-6.7 8.1 7.9 6.8-2.8 3.1c-8-7.2-16.5-13.9-25.4-19.9l2.3-3.5c5.1 3.5 10.1 7.1 14.9 11l6.5-8.2 2.6-3.3 3.4 2.7c5.6 4.7 11 9.6 16.2 14.7z"/>
			<path id="path123" fill-rule="evenodd" class="s3" d="m438.7 117.2q-5.3-3.9-10.7-7.7l2.3-3.5q5.6 3.8 11 7.8z"/>
			<path id="path125" fill-rule="evenodd" class="s3" d="m494.9 170.5l-3.5 2.3-8.7 5.8-3.5 2.3c-0.7-1.1-1.5-2.1-2.2-3.2l3.4-2.4 8.6-6c-3.3-4.7-6.8-9.3-10.4-13.8l-8.1 6.6c2.1 2.8 4.3 5.5 6.4 8.3l-3.4 2.5c-6.4-8.7-13.5-16.9-21.1-24.5l3-3c4.2 4.4 8.5 8.9 12.5 13.7l8-6.8 3.2-2.7c0.9 1.1 1.9 2.2 2.7 3.3 4.7 5.7 9 11.5 13.1 17.6z"/>
			<path id="path127" fill-rule="evenodd" class="s3" d="m471.7 147.6c-2.8-3.3-5.9-6.4-8.9-9.6l2.9-3c3.1 3.3 6.2 6.4 9.2 9.8z"/>
			<path id="path129" fill-rule="evenodd" class="s3" d="m516.4 210.9l-3.8 1.6-9.7 4-3.8 1.6c-0.5-1.2-1-2.4-1.6-3.6l3.8-1.7 9.6-4.2q-3.4-7.9-7.5-15.6l-9.2 4.9c1.5 3.1 3.3 6.2 4.7 9.4l-3.8 1.8c-4.7-9.8-9.9-19.3-15.9-28.3l3.5-2.3c3.4 5.2 6.6 10.4 9.6 15.9l9.1-5.1 3.6-2c0.8 1.2 1.4 2.5 2.1 3.7 3.4 6.5 6.5 13.2 9.3 19.9z"/>
			<path id="path131" fill-rule="evenodd" class="s3" d="m498.3 183.8c-2.1-3.8-4.7-7.3-7-11l3.5-2.3c2.4 3.8 5 7.4 7.1 11.2z"/>
			<path id="path133" fill-rule="evenodd" class="s3" d="m529.7 254.8l-4.1 0.8-10.2 2-4.1 0.9c-0.2-1.3-0.6-2.6-0.8-3.9l4-0.9 10.2-2.2q-1.8-8.5-4.3-16.8l-10 3c0.9 3.4 2 6.7 2.8 10.1l-4.1 1c-2.7-10.5-5.9-20.8-10.1-30.8l3.9-1.6q3.5 8.6 6.3 17.4l10-3.1 4-1.3c0.5 1.3 0.8 2.7 1.2 4.1 2.1 7 3.8 14.1 5.3 21.3z"/>
			<path id="path135" fill-rule="evenodd" class="s3" d="m517.2 224.6c-1.3-4.1-3.1-8.1-4.6-12.1l3.9-1.6c1.6 4.1 3.4 8.1 4.8 12.4z"/>
			<path id="path137" fill-rule="evenodd" class="s3" d="m534.3 300.2h-4.2-10.4-4.2l-0.1-3.9 4.1-0.1 10.5-0.2c0-5.7-0.4-11.5-0.9-17.2l-10.4 1c0.2 3.4 0.6 6.9 0.7 10.4l-4.2 0.2c-0.6-10.8-1.7-21.5-3.8-32.1l4.1-0.8c1.1 6.1 2.1 12.1 2.8 18.3l10.4-1.2 4.1-0.4q0.3 2.1 0.5 4.2c0.7 7.3 0.9 14.6 1 21.8z"/>
			<path id="path139" fill-rule="evenodd" class="s3" d="m527.7 268.4c-0.4-4.3-1.4-8.5-2.1-12.8l4.1-0.8c0.7 4.4 1.7 8.6 2.2 13z"/>
			<path id="path141" fill-rule="evenodd" class="s3" d="m142.8 319.7l-0.4-3.4 3.3-0.3 8.3-0.9q-0.7-7.3-0.7-14.6h3.3c0 8.5 0.8 17 2.3 25.4l-3.3 0.6c-0.5-2.7-0.9-5.5-1.2-8.2l-8.3 1c0.5 4.6 1.3 9.1 2.2 13.6l8.2-1.7 3.3-0.7 0.7 3-3.3 0.8-8.1 1.9-3.2 0.8c-1.4-5.7-2.4-11.5-3.1-17.3z"/>
			<path id="path143" fill-rule="evenodd" class="s3" d="m142 311.1c-0.3-3.5-0.2-7.1-0.4-10.6h3.3c0.1 3.5 0 6.9 0.4 10.4z"/>
			<path id="path145" fill-rule="evenodd" class="s3" d="m151.5 355.5l-1.2-3.3 3.2-1.1 7.8-2.7q-2.4-6.9-4-14.1l3.2-0.7c2 8.3 4.6 16.4 8 24.2l-3 1.3c-1.2-2.5-2.1-5.1-3.1-7.7l-7.8 2.9q2.4 6.5 5.3 12.7l7.5-3.6 3.1-1.4c0.4 0.9 0.9 1.8 1.3 2.8l-2.9 1.5-7.5 3.7-2.9 1.5c-2.7-5.2-4.9-10.6-7-16z"/>
			<path id="path147" fill-rule="evenodd" class="s3" d="m148.6 347.3c-1-3.4-2.1-6.8-2.9-10.3l3.3-0.8c0.8 3.5 1.9 6.8 2.8 10.2z"/>
			<path id="path149" fill-rule="evenodd" class="s3" d="m168.1 388.4l-1.8-2.9 2.8-1.8 7.1-4.5c-2.7-4.1-5.1-8.3-7.3-12.7l3-1.5c3.8 7.6 8.3 14.9 13.4 21.7l-2.6 2c-1.7-2.3-3.3-4.5-4.8-6.8l-7 4.6c2.6 3.9 5.3 7.6 8.2 11.2l6.5-5.3 2.6-2 2 2.4-2.5 2.1-6.5 5.4-2.5 2.1q-5.7-6.7-10.6-14z"/>
			<path id="path151" fill-rule="evenodd" class="s3" d="m163.7 380.9c-1.9-3-3.6-6.2-5.1-9.3l2.9-1.5c1.6 3.1 3.3 6.1 5 9.1z"/>
			<path id="path153" fill-rule="evenodd" class="s3" d="m192.1 416.5l-2.5-2.4 2.4-2.4 5.8-6c-3.5-3.4-6.8-7.1-10-10.8l2.5-2.1c5.5 6.5 11.6 12.6 18.2 18.1l-2.2 2.5c-2-1.8-4.2-3.5-6.2-5.5l-5.7 6.1c3.4 3.2 6.9 6.2 10.6 9l5.1-6.6 2.1-2.6 2.4 1.9-2 2.7-5 6.7-2 2.7c-4.6-3.6-9.2-7.3-13.5-11.3z"/>
			<path id="path155" fill-rule="evenodd" class="s3" d="m185.9 410.4c-2.5-2.6-4.8-5.3-7.1-8l2.6-2.2c2.2 2.7 4.5 5.4 6.9 7.9z"/>
			<path id="path157" fill-rule="evenodd" class="s3" d="m221.6 438.3l-3-1.7 1.8-2.9 4.3-7.2q-6.3-3.8-12.3-8.1l2-2.7c6.9 5.1 14.2 9.6 21.9 13.4l-1.5 3c-2.5-1.3-5-2.5-7.4-4l-4.1 7.3c4 2.3 8.1 4.4 12.3 6.3l3.5-7.6 1.4-3 2.9 1.3-1.4 3-3.3 7.7-1.3 3c-5.4-2.3-10.7-4.9-15.8-7.8z"/>
			<path id="path159" fill-rule="evenodd" class="s3" d="m214.3 433.8c-3.1-1.8-5.9-4-8.9-6l2-2.7c2.9 2 5.7 4.1 8.7 5.9z"/>
			<path id="path161" fill-rule="evenodd" class="s3" d="m255.7 452.8c-1.1-0.4-2.2-0.6-3.3-1l1-3.2 2.6-8c-4.7-1.5-9.3-3.2-13.8-5.2l1.3-3c7.8 3.3 16 6 24.3 8l-0.7 3.2c-2.7-0.6-5.4-1.3-8.1-2.1l-2.3 8.1c4.4 1.3 8.9 2.3 13.4 3.3l1.7-8.2 0.6-3.3 3.1 0.5-0.6 3.3-1.4 8.3-0.6 3.3c-5.8-1-11.5-2.4-17.2-4z"/>
			<path id="path163" fill-rule="evenodd" class="s3" d="m247.6 450c-3.4-1.2-6.7-2.5-10-3.9l1.3-3.1c3.2 1.4 6.5 2.7 9.8 3.8z"/>
			<path id="path165" fill-rule="evenodd" class="s3" d="m292 459l-3.5-0.3 0.3-3.3 0.6-8.5c-4.9-0.3-9.8-0.9-14.6-1.8l0.6-3.3c8.4 1.5 16.9 2.2 25.5 2.2v3.4l-8.3-0.2-0.5 8.4c4.7 0.2 9.3 0.3 13.9 0.1l-0.3-8.4-0.1-3.4c1-0.1 2.1 0 3.1-0.1l0.2 3.3 0.5 8.5 0.2 3.4c-5.9 0.3-11.8 0.2-17.6 0z"/>
			<path id="path167" fill-rule="evenodd" class="s3" d="m283.4 458.2c-3.5-0.4-7.1-0.8-10.6-1.5l0.6-3.3c3.4 0.7 6.9 1 10.3 1.5z"/>
			<path id="path169" fill-rule="evenodd" class="s3" d="m328.9 456.6l-3.4 0.7-0.5-3.4-1.3-8.3q-7.3 1.1-14.7 1.6l-0.1-3.4c8.5-0.5 17-1.8 25.3-3.8l0.8 3.3c-2.7 0.6-5.4 1.3-8.2 1.7l1.5 8.3c4.6-0.8 9.1-1.9 13.5-3.1l-2.2-8.1-0.9-3.3 3-0.9 1 3.3 2.4 8.1 1 3.2c-5.7 1.7-11.4 3.1-17.2 4.1z"/>
			<path id="path171" fill-rule="evenodd" class="s3" d="m320.2 457.9c-3.5 0.6-7.1 0.8-10.7 1l-0.2-3.3c3.5-0.3 7-0.5 10.5-1z"/>
			<path id="path173" fill-rule="evenodd" class="s3" d="m364.2 445.8l-3.2 1.3-1.3-3.1-3.2-7.6q-6.8 2.7-13.8 4.8l-1-3.2c8.2-2.4 16.2-5.6 23.8-9.4l1.5 3c-2.5 1.3-5 2.4-7.5 3.5l3.3 7.6c4.3-1.8 8.4-3.9 12.5-6.1l-4-7.3-1.7-2.9 2.8-1.5 1.6 2.9 4.2 7.1 1.7 2.9c-5.1 3-10.4 5.6-15.7 8z"/>
			<path id="path175" fill-rule="evenodd" class="s3" d="m356.2 449c-3.3 1.2-6.7 2.4-10.1 3.4l-1-3.2c3.4-1 6.6-2.1 9.9-3.3z"/>
			<path id="path177" fill-rule="evenodd" class="s3" d="m395.9 427.2l-2.8 2-2-2.7-4.9-6.8c-4 2.9-8.1 5.6-12.4 8l-1.6-2.9c7.4-4.3 14.4-9.2 21-14.7l2.1 2.5c-2 1.9-4.3 3.5-6.5 5.2l5.1 6.7q5.5-4.2 10.7-8.8l-5.6-6.2-2.3-2.5 2.3-2.2 2.3 2.5 5.8 6.1 2.3 2.4c-4.3 4.1-8.9 7.8-13.5 11.4z"/>
			<path id="path179" fill-rule="evenodd" class="s3" d="m388.8 432.3c-2.9 1.9-5.9 3.9-8.9 5.6l-1.7-2.9c3-1.7 5.9-3.6 8.8-5.5z"/>
			<path id="path181" fill-rule="evenodd" class="s3" d="m422.6 401.7l-2.3 2.6-2.5-2.2-6.3-5.5c-3.2 3.8-6.6 7.3-10.2 10.7l-2.3-2.5c6.2-5.9 11.9-12.3 17-19.2l2.7 2-5.1 6.6 6.4 5.4c2.9-3.6 5.7-7.3 8.4-11.1l-6.9-4.8-2.8-1.9 1.8-2.6 2.8 1.9 7 4.6 2.8 1.8c-3.3 4.9-6.8 9.6-10.5 14.2z"/>
			<path id="path183" fill-rule="evenodd" class="s3" d="m416.9 408.3c-2.5 2.5-5 5-7.6 7.4l-2.3-2.4c2.5-2.3 5-4.8 7.4-7.3z"/>
			<path id="path185" fill-rule="evenodd" class="s3" d="m442.7 370.9l-1.5 3-3-1.5-7.4-3.9c-2.3 4.3-4.8 8.6-7.5 12.7l-2.8-1.9c4.7-7.1 8.8-14.6 12.2-22.5l3 1.3c-1.1 2.5-2.2 5.1-3.5 7.5l7.5 3.8c2.1-4.2 4-8.4 5.6-12.7l-7.8-3-3.1-1.3 1.2-2.9 3.1 1.2 7.9 2.8 3.1 1.2c-2 5.5-4.3 10.9-7 16.2z"/>
			<path id="path187" fill-rule="evenodd" class="s3" d="m438.6 378.5c-1.7 3.1-3.5 6.2-5.5 9.2l-2.7-1.9c1.9-2.9 3.7-5.9 5.4-9z"/>
			<path id="path189" fill-rule="evenodd" class="s3" d="m455.2 336.2l-0.8 3.4-3.3-0.8-8.1-2.1q-1.9 7.1-4.4 14l-3.1-1.1c2.9-8 5.1-16.3 6.5-24.7l3.4 0.6c-0.5 2.7-1 5.4-1.7 8.1l8.2 1.9c1.1-4.5 1.9-9.1 2.5-13.7l-8.3-1.1-3.3-0.4 0.4-3.1 3.3 0.3 8.4 1 3.3 0.4c-0.7 5.8-1.6 11.6-3 17.3z"/>
			<path id="path191" fill-rule="evenodd" class="s3" d="m452.9 344.4c-0.9 3.5-2.1 6.8-3.2 10.2l-3.1-1.1c1.1-3.4 2.3-6.6 3.1-10z"/>
			<path id="path193" fill-rule="evenodd" class="s3" d="m459.1 299.5c0.1 1.1 0 2.3 0 3.4h-3.3l-8.3-0.2q-0.1 7.4-1 14.7l-3.3-0.4c1-8.5 1.2-17.1 0.7-25.6l3.3-0.2c0.3 2.8 0.2 5.5 0.3 8.3h8.3c0-4.6-0.2-9.2-0.7-13.9l-8.2 0.8-3.3 0.3c-0.1-1-0.3-2-0.4-3.1l3.3-0.4 8.3-0.9 3.3-0.4c0.7 5.8 1 11.7 1 17.6z"/>
			<path id="path195" fill-rule="evenodd" class="s3" d="m459.2 308.1c-0.3 3.6-0.5 7.2-1 10.7l-3.4-0.3c0.5-3.5 0.6-7 0.9-10.5z"/>
			<path id="path197" fill-rule="evenodd" class="s3" d="m454.8 262.9l0.7 3.4-3.2 0.7-8.2 1.8q1.5 7.1 2.4 14.4l-3.3 0.4c-1-8.5-2.7-16.8-5.2-25l3.2-0.9c0.7 2.6 1.6 5.3 2.1 8l8.2-2c-1.1-4.5-2.4-8.9-3.9-13.2l-7.9 2.6-3.2 1.1-1-2.9 3.1-1.2 7.9-2.8 3.2-1.2c1.9 5.6 3.7 11.2 5.1 16.8z"/>
			<path id="path199" fill-rule="evenodd" class="s3" d="m456.6 271.3c0.7 3.5 1.2 7.1 1.6 10.7l-3.3 0.4c-0.4-3.6-0.9-7-1.5-10.5z"/>
			<path id="path201" fill-rule="evenodd" class="s3" d="m441.9 228.3l1.5 3.1-3 1.4-7.5 3.7q3.2 6.7 5.7 13.6l-3.1 1.1c-3-8-6.6-15.8-10.9-23.2l2.9-1.7c1.4 2.4 2.7 4.8 4 7.3l7.4-3.8c-2.1-4.1-4.4-8.1-6.8-12l-7.1 4.4-2.8 1.8-1.7-2.6 2.8-1.9 7-4.6 2.8-1.8c3.1 4.9 6.2 9.9 8.8 15.2z"/>
			<path id="path203" fill-rule="evenodd" class="s3" d="m445.6 236.2c1.6 3.2 2.8 6.5 4.1 9.8l-3.2 1.1c-1.3-3.2-2.5-6.4-4-9.5z"/>
			<path id="path205" fill-rule="evenodd" class="s3" d="m421.4 197.8l2.2 2.6-2.6 2.1-6.4 5.3q4.6 5.7 8.6 11.9l-2.7 1.8c-4.8-7.1-10.1-13.8-16-20l2.4-2.3c2 2 3.8 4.1 5.6 6.2l6.4-5.4c-3-3.6-6.2-6.9-9.4-10.2l-5.9 5.9-2.4 2.4-2.2-2.1 2.3-2.5 5.7-6 2.3-2.5c4.3 4 8.3 8.3 12.1 12.8z"/>
			<path id="path207" fill-rule="evenodd" class="s3" d="m426.8 204.4c2.2 2.8 4.3 5.7 6.3 8.7l-2.9 1.9c-1.9-3-4-5.8-6.1-8.6z"/>
			<path id="path209" fill-rule="evenodd" class="s3" d="m394.6 172.6l2.8 2.1-2.1 2.6-5.1 6.6c3.9 3 7.6 6.2 11.2 9.6l-2.3 2.4c-6.3-5.8-13-11.2-20.2-15.8l1.8-2.8c2.4 1.4 4.6 3.1 6.9 4.7l5-6.7c-3.8-2.7-7.6-5.3-11.6-7.7l-4.4 7.1-1.7 2.9-2.7-1.6 1.6-2.8 4.3-7.3 1.6-2.8c5.2 2.8 10.1 6.1 14.9 9.5z"/>
			<path id="path211" fill-rule="evenodd" class="s3" d="m401.4 177.8c2.6 2.4 5.4 4.6 8 7.2l-2.3 2.4c-2.5-2.4-5.3-4.7-7.9-7z"/>
			<path id="path213" fill-rule="evenodd" class="s3" d="m362.5 154.3l3.1 1.4-1.3 3-3.5 7.6c4.5 2 8.8 4.2 13.1 6.7l-1.7 2.9c-7.4-4.3-15.1-7.9-23.1-10.8l1.1-3.1c2.6 0.9 5.2 1.9 7.7 3l3.3-7.7c-4.3-1.7-8.5-3.4-12.9-4.8l-2.6 7.9-1 3.2-3-0.9 1-3.2 2.4-8 0.9-3.2c5.6 1.7 11.1 3.7 16.5 6z"/>
			<path id="path215" fill-rule="evenodd" class="s3" d="m370.3 157.7c3.2 1.7 6.5 3.3 9.6 5.1l-1.7 2.9c-3.1-1.8-6.2-3.4-9.4-5z"/>
			<path id="path217" fill-rule="evenodd" class="s3" d="m327.2 143.8l3.4 0.6-0.6 3.4-1.6 8.2q7.2 1.5 14.3 3.6l-1 3.2c-8.2-2.5-16.6-4.2-25.1-5.1l0.4-3.4c2.8 0.4 5.5 0.6 8.2 1.2l1.4-8.3c-4.5-0.8-9.1-1.5-13.7-1.8l-0.7 8.4-0.2 3.4-3.1-0.2 0.1-3.4 0.5-8.4 0.2-3.4c5.9 0.4 11.7 1 17.5 2z"/>
			<path id="path219" fill-rule="evenodd" class="s3" d="m335.7 145.7c3.5 0.7 6.9 1.6 10.4 2.6l-1 3.2c-3.4-1-6.7-1.9-10.1-2.6z"/>
			<path id="path221" fill-rule="evenodd" class="s3" d="m290.3 142q1.7-0.2 3.4-0.2l0.1 3.4 0.4 8.3q7.3-0.3 14.7 0.1l-0.2 3.4c-8.5-0.5-17.1-0.2-25.6 0.8l-0.4-3.3c2.8-0.4 5.6-0.6 8.3-0.8l-0.5-8.4c-4.6 0.3-9.2 0.9-13.8 1.5l1.3 8.3 0.5 3.3-3.1 0.5-0.5-3.3-1.5-8.2-0.6-3.3c5.8-1.1 11.6-1.7 17.5-2.1z"/>
			<path id="path223" fill-rule="evenodd" class="s3" d="m298.9 141.6c3.6-0.1 7.1 0 10.7 0.2l-0.2 3.4c-3.5-0.2-7-0.3-10.4-0.3z"/>
			<path id="path225" fill-rule="evenodd" class="s3" d="m254.1 148.5l3.3-0.9 0.9 3.2 2.3 8q7.1-2 14.3-3.2l0.6 3.3c-8.4 1.4-16.7 3.6-24.7 6.6l-1.2-3.2c2.7-0.9 5.3-1.8 7.9-2.6l-2.4-8c-4.4 1.4-8.8 2.9-13.1 4.7l3.2 7.7 1.2 3.1c-0.9 0.4-1.9 0.7-2.9 1.2l-1.3-3.1-3.3-7.6-1.3-3.1c5.4-2.3 10.9-4.3 16.5-6.1z"/>
			<path id="path227" fill-rule="evenodd" class="s3" d="m262.5 146.2c3.4-0.8 6.8-1.7 10.3-2.2l0.5 3.3c-3.4 0.6-6.7 1.4-10.1 2.2z"/>
			<path id="path229" fill-rule="evenodd" class="s3" d="m220.3 163.3l3-1.7 1.6 2.9 4 7.3c4.3-2.4 8.7-4.5 13.2-6.5l1.3 3.1c-7.8 3.3-15.4 7.4-22.4 12.1l-1.9-2.7c2.4-1.5 4.6-3.1 7.1-4.4l-4.2-7.2c-4 2.3-7.9 4.8-11.6 7.5l4.8 6.8 2 2.7-2.6 1.8-2-2.6-4.9-6.7-2-2.7c4.7-3.4 9.5-6.7 14.6-9.7z"/>
			<path id="path231" fill-rule="evenodd" class="s3" d="m227.9 159.1c3.1-1.6 6.3-3.1 9.6-4.5l1.3 3c-3.2 1.4-6.3 2.9-9.4 4.5z"/>
			<path id="path233" fill-rule="evenodd" class="s3" d="m190.9 185.5l2.5-2.4 2.3 2.5 5.6 6.1q5.4-4.9 11.3-9.3l2 2.6c-6.8 5.2-13.2 10.9-19 17.1l-2.5-2.3c1.9-2 3.8-4 5.9-5.8l-5.8-6.1c-3.4 3.2-6.5 6.5-9.6 10l6.3 5.5 2.5 2.2-2 2.4-2.6-2.2-6.4-5.3-2.6-2.2c3.9-4.5 7.8-8.8 12.1-12.8z"/>
			<path id="path235" fill-rule="evenodd" class="s3" d="m197.2 179.8c2.7-2.4 5.6-4.6 8.4-6.8l2 2.7c-2.7 2.2-5.6 4.3-8.2 6.7z"/>
			<path id="path237" fill-rule="evenodd" class="s3" d="m167.3 213.9l1.9-2.9 2.7 1.8 6.9 4.8c2.8-4.1 5.7-8 8.9-11.8l2.5 2.2c-5.5 6.6-10.3 13.6-14.6 21.1l-2.9-1.7c1.4-2.4 2.8-4.8 4.3-7.1l-6.9-4.6c-2.6 3.9-4.9 7.9-7 12l7.3 3.9 2.9 1.6-1.4 2.8-2.9-1.5-7.5-3.8-2.9-1.5q3.9-7.9 8.7-15.3z"/>
			<path id="path239" fill-rule="evenodd" class="s3" d="m172.1 206.7c2.1-2.8 4.3-5.6 6.6-8.4l2.6 2.2c-2.3 2.7-4.5 5.4-6.5 8.2z"/>
			<path id="path241" fill-rule="evenodd" class="s3" d="m150.9 246.8c0.4-1.1 0.8-2.1 1.2-3.2l3.1 1.2 7.8 3c1.7-4.6 3.7-9.1 5.9-13.5l2.9 1.5c-3.8 7.6-6.9 15.6-9.3 23.8l-3.2-0.9c0.7-2.7 1.7-5.3 2.6-7.9l-7.9-2.9c-1.5 4.4-2.8 8.8-4 13.3l8 2.1 3.2 0.8-0.7 3.1-3.2-0.8-8.1-1.9-3.2-0.8c1.2-5.7 3-11.3 4.9-16.9z"/>
			<path id="path243" fill-rule="evenodd" class="s3" d="m154 238.8c1.5-3.3 2.8-6.6 4.5-9.8l3 1.5c-1.7 3.1-3 6.4-4.5 9.6z"/>
			<path id="path245" fill-rule="evenodd" class="s3" d="m142.6 282.8l0.4-3.4 3.4 0.5 8.2 1.1q0.9-7.4 2.6-14.6l3.3 0.8c-2 8.3-3.2 16.9-3.7 25.4l-3.3-0.1c0.2-2.8 0.4-5.6 0.7-8.4l-8.3-0.9c-0.4 4.6-0.8 9.3-0.9 13.9l8.4 0.2h3.3l-0.1 3.2h-3.3-8.3-3.4c0.1-5.9 0.4-11.8 1-17.7z"/>
			<path id="path247" fill-rule="evenodd" class="s3" d="m143.8 274.3c0.6-3.5 1.2-7 2.1-10.5l3.2 0.7c-0.8 3.5-1.4 6.9-2 10.4z"/>
			<path id="path249" fill-rule="evenodd" class="s3" d="m205.2 247.5l2.9 11.7-1.2 1c-3.1 3-4.4 6.6-2.9 9 1.4 2.4 5.2 2.9 9.3 1.6l1.4-0.6 9.1 7.9-11.7 2.9-1-1.2c-3-3-6.6-4.3-9-2.8-2.4 1.4-2.9 5.2-1.6 9.3l0.6 1.4-7.9 9-3-11.7 1.3-0.9c3-3.1 4.3-6.6 2.8-9-1.4-2.4-5.2-2.9-9.3-1.6l-1.4 0.6-9.1-8 11.7-2.9 1 1.2c3.1 3.1 6.6 4.4 9 2.9 2.4-1.4 2.9-5.2 1.6-9.3l-0.6-1.4z"/>
			<path id="path251" fill-rule="evenodd" class="s3" d="m403.6 256.6l-0.6 1.4c-1.3 4.1-0.8 7.9 1.6 9.3 2.4 1.5 5.9 0.2 9-2.9l0.9-1.2 11.7 2.9-9 8-1.4-0.6c-4.1-1.3-7.9-0.8-9.3 1.6-1.5 2.4-0.2 5.9 2.8 9l1.2 0.9-2.9 11.7-7.9-9 0.6-1.4c1.3-4.1 0.8-7.9-1.6-9.3-2.4-1.5-6-0.2-9 2.8l-1 1.2-11.7-2.9 9.1-7.9 1.4 0.6c4.1 1.3 7.8 0.8 9.3-1.6 1.5-2.4 0.2-6-2.9-9l-1.2-1 2.9-11.7z"/>
			<circle id="path253" class="s3" cx="160.5" cy="423.5" r="7.4"/>
			<circle id="path255" class="s3" cx="432.3" cy="432.4" r="7.4"/>
			<path id="path257" fill-rule="evenodd" class="s3" d="m219.2 448.9l-3.6 5.2q-0.9-4-2.9-7.1-2-3-5.2-5.2-6.2-4.3-12.2-2.7-5.9 1.6-10.8 8.8-4.9 7.2-4.1 13.2 0.7 6.1 6.9 10.3 3.2 2.2 6.8 3 3.6 0.7 7.6 0.1l-3.5 5.2q-3.8-0.1-7.2-1.1-3.5-1.1-6.7-3.3-8.3-5.6-9.6-13.9-1.3-8.3 4.6-17.1 6-8.7 14.2-10.5 8.2-1.9 16.5 3.8 3.2 2.2 5.5 5 2.3 2.9 3.7 6.3z"/>
			<path id="path259" fill-rule="evenodd" class="s3" d="m225.5 448.3l5.6 2.1-6.4 16.8 20.3 7.6 6.3-16.8 5.6 2.1-15.5 41.1-5.6-2.1 7.4-19.6-20.2-7.6-7.4 19.6-5.6-2z"/>
			<path id="path261" fill-rule="evenodd" class="s3" d="m299.5 488.2q-1.3 10.3-7.5 15.8-6.3 5.5-15.5 4.4-9.2-1.2-13.9-8-4.8-6.8-3.5-17.2 1.3-10.3 7.6-15.8 6.2-5.5 15.5-4.3 9.1 1.1 13.9 7.9 4.7 6.9 3.4 17.2zm-8.3-14.3q-3.2-5.2-9.6-6-6.5-0.8-10.8 3.5-4.4 4.3-5.5 12.6-1 8.2 2.2 13.5 3.2 5.3 9.6 6.1 6.5 0.7 10.8-3.6 4.4-4.3 5.4-12.5 1-8.3-2.1-13.6z"/>
			<path id="path263" fill-rule="evenodd" class="s3" d="m333.4 463.5l0.7 5.7q-3.6-1.2-6.7-1.6-3-0.4-5.8-0.1-4.9 0.6-7.2 2.8-2.4 2.2-2 5.6 0.4 2.9 2.3 4.2 1.9 1.3 6.9 1.6l3.6 0.3q6.8 0.4 10.3 3.2 3.5 2.8 4.2 8.1 0.8 6.4-3.1 10.2-3.8 3.8-12.1 4.8-3.1 0.3-6.7 0.1-3.5-0.3-7.4-1.2l-0.8-6.1q3.9 1.6 7.4 2.2 3.6 0.6 6.9 0.2 5.1-0.6 7.6-3 2.5-2.3 2.1-6-0.4-3.2-2.6-4.8-2.2-1.5-6.8-1.9l-3.7-0.3q-6.8-0.5-10.1-2.9-3.3-2.5-3.9-7.5-0.7-5.8 3-9.6 3.6-3.8 10.8-4.7 3.1-0.3 6.3-0.2c2.2 0.1 4.5 0.4 6.8 0.9z"/>
			<path id="path265" fill-rule="evenodd" class="s3" d="m341.7 460.1l26.3-9.1 1.6 4.7-20.6 7.1 4.2 12.3 19.8-6.8 1.7 4.7-19.8 6.9 5.2 15 21.1-7.3 1.7 4.8-26.8 9.2z"/>
			<path id="path267" fill-rule="evenodd" class="s3" d="m374 448.4l6.8-4.3 36 20.8-19.5-31.2 4.9-3 23.3 37.2-6.8 4.3-36-20.8 19.5 31.2-4.9 3z"/>
			<path id="path269" fill-rule="evenodd" class="s3" d="m145 368.4l-10.4 5.7 4.6 8.5-4.3 2.4-7.4-13.8 16.6-9q3.8 1.9 6.8 4.9 3.1 3.1 5.4 7.2 4.9 9.1 2.4 17-2.5 8-11.9 13.2-9.5 5.1-17.6 2.9-8.1-2.2-13-11.3-2.1-3.8-3-7.7-0.9-3.9-0.7-7.7l5.6-3.1q-0.9 4.3-0.4 8.2 0.6 4 2.5 7.5 3.9 7.1 9.8 8.5 5.9 1.5 13.7-2.8 7.9-4.3 9.9-10 2-5.7-1.9-12.8-1.5-2.7-3.1-4.7-1.7-1.9-3.6-3.1z"/>
			<path id="path271" fill-rule="evenodd" class="s3" d="m138 348q-4.9 6.7-15.1 8.8-10.2 2.2-17.4-2-7.2-4.1-9.1-13.2-2-9 3-15.7 4.9-6.7 15.1-8.9 10.2-2.2 17.4 2 7.2 4.1 9.1 13.2 1.9 9-3 15.8zm-1.7-14.8q-1.4-6.4-6.9-9.1-5.5-2.7-13.6-1-8.2 1.8-12.1 6.5-4 4.7-2.6 11 1.3 6.4 6.8 9.1 5.6 2.7 13.7 1 8.2-1.7 12.1-6.5 3.9-4.7 2.6-11z"/>
			<path id="path273" fill-rule="evenodd" class="s3" d="m136.8 292.7l-44.9 14.2 0.3-6.2 37.8-11.8-36.2-16 0.4-6.2 43 19.2z"/>
			<path id="path275" fill-rule="evenodd" class="s3" d="m98 249.9l8.2-26.6 4.8 1.5-6.4 20.9 12.4 3.8 6.2-20 4.8 1.5-6.2 20 15.2 4.7 6.6-21.4 4.8 1.5-8.3 27.1z"/>
			<path id="path277" fill-rule="evenodd" class="s3" d="m143.1 206.5l-3.4 5.5 15.9 9.7-3.1 5-37.6-22.8 7-11.5q3.9-6.4 8.5-8 4.7-1.5 10.1 1.8 3.5 2.2 4.9 5.2 1.3 3.1 0.3 6.8 1.6-1.3 4.3-1.7 2.8-0.5 6.9-0.1l13.4 1.1-3.3 5.4-12.6-1q-4.9-0.5-7.2 0.5-2.3 1-4.1 4.1zm-2-10q-0.6-2.9-3.9-4.9-3.3-2-6.1-1.2-2.8 0.9-5 4.5l-3.9 6.4 13.3 8.2 3.9-6.4q2.3-3.7 1.7-6.6z"/>
			<path id="path279" fill-rule="evenodd" class="s3" d="m145.3 159.6l5.8-5.5 39.5 13.3-25.3-26.7 4.1-4 30.3 32-5.8 5.5-39.5-13.3 25.3 26.7-4.2 4z"/>
			<path id="path281" fill-rule="evenodd" class="s3" d="m189.7 121.9l8-3.9 23.4 21.8-3.3-31.8 8-4 19.6 39.4-5.2 2.6-17.2-34.6 3.2 32.1-5.3 2.6-23.6-21.9 17.2 34.6-5.2 2.5z"/>
			<path id="path283" fill-rule="evenodd" class="s3" d="m249 97.3l27.3-5.1 1 4.9-21.5 4 2.3 12.8 20.6-3.8 1 4.9-20.6 3.8 2.9 15.7 22-4.1 0.9 4.9-27.9 5.2z"/>
			<path id="path285" fill-rule="evenodd" class="s3" d="m297.5 90.8l8.1 0.5 17.1 38 2.3-36.7 5.8 0.3-2.8 43.9-8-0.5-17.1-37.9-2.3 36.7-5.8-0.4z"/>
			<path id="path287" fill-rule="evenodd" class="s3" d="m347.8 96.1l35.3 11.7-1.6 4.8-14.8-4.9-12.3 37-5.7-1.9 12.3-37-14.8-4.9z"/>
			<path id="path289" fill-rule="evenodd" class="s3" d="m418.2 176.5l7.6-9.1-7.5-6.2 3.1-3.8 12 10.1-12.1 14.5q-4.2-0.4-8.2-2.1-4-1.7-7.6-4.7-7.9-6.6-8.5-15-0.6-8.3 6.3-16.6 6.9-8.2 15.2-9.1 8.3-0.9 16.3 5.7 3.3 2.7 5.6 6 2.2 3.4 3.4 7l-4 4.9q-0.8-4.3-2.7-7.7-1.9-3.5-5.1-6.1-6.2-5.2-12.2-4.4-6 0.9-11.7 7.7-5.7 6.9-5.5 12.9 0.2 6.1 6.4 11.3 2.4 2 4.7 3.2 2.2 1.1 4.5 1.5z"/>
			<path id="path291" fill-rule="evenodd" class="s3" d="m461.6 168.3l16 22.7-4 2.9-12.7-17.9-10.6 7.5 12.1 17.1-4.1 2.9-12.1-17.1-13 9.2 12.9 18.3-4.1 2.9-16.3-23.1z"/>
			<path id="path293" fill-rule="evenodd" class="s3" d="m488 210l2.9 7.4-27.6 31.3 34.4-13 2.1 5.4-41.2 15.5-2.8-7.5 27.5-31.2-34.4 13-2-5.4z"/>
			<path id="path295" fill-rule="evenodd" class="s3" d="m504.7 263.8l2.9 27.7-5 0.5-2.3-21.7-12.9 1.3 2.1 20.8-4.9 0.6-2.2-20.9-15.9 1.7 2.3 22.3-4.9 0.5-3-28.2z"/>
			<path id="path297" fill-rule="evenodd" class="s3" d="m507.2 312.6l-1.8 13.3q-1.1 7.5-4.7 10.7-3.7 3.3-10 2.4-4.1-0.6-6.5-2.9-2.5-2.3-3-6.1-0.9 1.8-3.3 3.3-2.4 1.5-6.3 2.8l-12.7 4.3 0.9-6.3 11.9-4q4.7-1.5 6.4-3.4 1.7-1.8 2.2-5.3l0.9-6.4-18.4-2.6 0.8-5.9zm-5.6 5.2l-15.5-2.2-1 7.4q-0.6 4.3 1 6.8 1.7 2.4 5.5 2.9 3.8 0.6 6.1-1.3 2.2-1.9 2.8-6.2z"/>
			<path id="path299" fill-rule="evenodd" class="s3" d="m493.6 372.3l-2.5 6.3-47-0.8 2.3-5.7 11.9 0.4 7.4-18.4-9-7.9 2.3-5.8zm-6.7 0.9l-17.3-15.6-6 15z"/>
			<path id="path301" fill-rule="evenodd" class="s3" d="m476.1 408.3l-3.5 4.9-31.9-22.4-12.3 17.6-4.1-2.9 15.7-22.4z"/>
			<path id="path303" class="s4" d="m179.8 336.7c12.2 0 23.1-2.8 36.7-10.6l20.8 36.1"/>
			<path id="path305" class="s4" d="m232.6 340.9l-5.5 3.1"/>
			<path id="path307" class="s4" d="m216 356.4c2.9 16.1-2.2 22.5-10.3 30.7"/>
			<path id="path309" class="s4" d="m224.2 354l8.8 15.2c-6.9 2.2-16.5 0.2-26.4-7.4"/>
			<path id="path311" class="s4" d="m201.2 368.6l3.7 6.5"/>
			<path id="path313" class="s4" d="m275.7 378.1h18.7"/>
			<path id="path315" class="s4" d="m285.1 378.5v21.5"/>
			<path id="path317" class="s4" d="m318.9 405.6v12.8c0 1.7-0.1 5.4-5.5 5.4h-26.1c-4.7 0-5.5-4.1-5.5-5.4v-12.8c0-1.8 2.7-5.5 5.5-5.5h26.1c2.6 0 5.5 3.8 5.5 5.5z"/>
			<path id="path319" class="s4" d="m281.7 407.5h36.7"/>
			<path id="path321" class="s4" d="m281.7 415.7h36"/>
			<path id="path323" class="s4" d="m276.4 384.8h17.4"/>
			<path id="path325" class="s4" d="m278.8 390.3l-4.6 6.1"/>
			<path id="path327" class="s4" d="m291.1 390.8l4.1 4.4"/>
			<path id="path329" class="s4" d="m307.2 378h16.2c0.5 1.3-3.5 6.6-5.7 8.9-2.3 2.2-10.4 6.1-11.1 6.6"/>
			<path id="path331" class="s4" d="m307.5 386.7c2.5-0.5 6.7 0.4 9.7 1.7 3.1 1.4 5.1 3.2 8.7 6.3"/>
			<path id="path333" class="s4" d="m373.6 363.8l-6 10.2c-1.3 2.4-8.4-1.7-7.1-4.1l6-10.2c1.3-2.4 8.4 1.7 7.1 4.1z"/>
			<path id="path335" class="s4" d="m359.6 362.6l3.7 2.1"/>
			<path id="path337" class="s4" d="m385.6 370.7l-5.9 10.3c-1.3 2.2-8.2-1.7-6.8-4l5.9-10.2c1.3-2.3 8.1 1.6 6.8 3.9z"/>
			<path id="path339" class="s4" d="m383.2 376.2l16.4 9.4"/>
			<path id="path341" class="s4" d="m393.5 392.3l-9-5.2c-1.1-0.6 7.7-15.9 9.1-15.1l8.7 5"/>
			<path id="path343" class="s4" d="m387.5 329.1l12.7 7.4c1.5 0.8 2.8 3.1 2 4.5l-10.6 18.3c-0.8 1.4-3.4 1.4-4.9 0.6l-12.7-7.4c-1.2-0.7-1.8-2.8-1.1-4l10.6-18.3c0.7-1.2 2.8-1.8 4-1.1z"/>
			<path id="path345" class="s4" d="m372.7 336.2l4.4 2.5"/>
			<path id="path347" class="s4" d="m380.4 337.3l6.3 21.7"/>
			<path id="path349" class="s4" d="m388.2 329.7l6.8 23.9"/>
			<path id="path351" class="s4" d="m373.1 350.2l28.1-9.6"/>
			<path id="path353" class="s4" d="m421.9 350.7c-1.4 2.2-4.4 6.4-5.4 7.6-1.1 1.2-2.2 4-6 4.3-3.9 0.3-14.5-7.2-14.5-7.2"/>
			<path id="path355" class="s4" d="m406 361.4c-1.1 2.6-2.1 5.2-3.9 5.7-1.8 0.6-4.2-0.9-6.7-2.3"/>
			<path id="path357" class="s4" d="m401.1 346.8c0 0 3.9 2.1 5.7 3.3 2.5 1.6 5 3.1 7.1 5 0.8 0.8 2.1 2.5 2.1 2.5"/>
			<path id="path359" class="s4" d="m408.9 341.6c0 0 4.5 1.9 5 4 0.6 2.2-2.3 6.3-2.3 6.3"/>
			<path id="path361" class="s4" d="m184.7 351.7l26.1-15.1c0.9-0.5 2.5 0.1 3.1 1l3 5.2c0.5 0.9 0.2 2.6-0.7 3.1l-26.1 15.1"/>
			<path id="path365" class="s4" d="m204 220.9l7.8-10.1c2.2-2.5 2.4-3.3 4.2-3.8 1.8-0.5 4.3-0.5 5.4 1 1.2 1.6 1.7 3-0.8 5.9l-11.3 13.4"/>
			<path id="path367" class="s4" d="m217 218.4l14.6 17.4c0 0 0.8 1 1.3 1.5 3.4 4.3 5 9.2 3.5 15"/>
			<path id="path369" class="s4" d="m233.2 238.1c3.5 3.7 8.2 5.6 13.7 5.5"/>
			<path id="path371" class="s4" d="m229.3 247.5l-0.2 5.9"/>
			<path id="path373" class="s4" d="m243.2 235.2l6.5 1.2"/>
			<path id="path375" class="s4" d="m229.1 203.4l1.6-7.3 7.4-0.3 1.6-7.2 7.4-0.3"/>
			<path id="path377" class="s4" d="m233.3 208.3l18-15.1"/>
			<path id="path379" class="s4" d="m232.3 219.9l6.6 7.9c0.8 0.9 0.6 2.9-0.4 3.7l-12.4 10.4c-0.9 0.8-2.9 0.7-3.7-0.3l-6.6-7.8c-0.8-1-0.6-3 0.4-3.8l12.3-10.4c1-0.8 3-0.6 3.8 0.3z"/>
			<path id="path381" class="s4" d="m220.1 236.8l14.5-12.1"/>
			<path id="path383" class="s4" d="m256.9 200.1l9.8 11.3c0.6 0.7 0.4 2.2-0.3 2.8l-15.4 12.8c-0.7 0.6-2.1 0.5-2.7-0.2l-9.6-11.4"/>
			<path id="path385" class="s4" d="m243 201.7l22.4 26.5"/>
			<path id="path387" class="s4" d="m367.3 193.6l-4.3 5.1c-1.6 2-5.3-2.1-7.5-4-2.2-1.8-6.9-4.8-5.3-6.7l4.3-5.1"/>
			<path id="path389" class="s4" d="m356 194.1l6.3-7.6"/>
			<path id="path391" class="s4" d="m342.9 196.7c1.3-1.6 3.1-1.4 4.9 0.1l7 5.9c1.8 1.5 2.3 3.1 0.9 4.8l-5.2 6.2c-1.4 1.6-3.1 1.4-4.9-0.1l-7-5.9c-1.8-1.5-2.3-3.1-0.9-4.8z"/>
			<path id="path393" class="s4" d="m340.3 199.9l12.6 10.6"/>
			<path id="path395" class="s4" d="m341.9 210.9l-6.6 7.8c-0.7 0.9 0.6 1.3 1.1 1.8 1.8 1.8 3.5 3.7 3.2 5.9-0.2 1.3-1.5 2.5-2.8 2.8-2.6 0.4-5.2-1.8-7.2-3.6-1.7-1.5-3.6-5.5-3.6-5.5"/>
			<path id="path397" class="s4" d="m331.6 210.2l13.4 11.2"/>
			<path id="path399" class="s4" d="m368.3 200.6c1.5 0.4 12 1.6 14.5 3.9 2.6 2.3 7.7 13.6 7.7 13.6"/>
			<path id="path401" class="s4" d="m361.6 251.9l19.1-22.8c0.9-0.9 0.7-3-0.3-3.8l-15.7-13.2c-0.4-0.4-0.6-2-0.2-2.8l2.2-2.6c0.7-0.3 1.5-1.1 2.8-0.3l14.7 12.3"/>
			<path id="path403" class="s4" d="m346.9 230.3l11.6-13.9 13.3 11.2"/>
			<path id="path405" class="s4" d="m362.2 239.1l-13.3-11.2z"/>
			<path id="path407" class="s4" d="m355.1 223.3l16.2 13.6"/>
			<path id="path409" fill-rule="evenodd" class="s3" d="m254.7 286.2c-2 0-2.3 0-2.7-0.4-1.4-1.1-1.8-1.2-3.5-1.2-1.4 0-1.7 0-3.1 0.8-1.3 0.6-1.7 0.7-2.9 0.8-1.8 0-3.2-0.4-4-1.3-0.8-0.8-1-1.7-0.7-3 0.3-1 0.3-1.1-0.3-2.3-0.8-1.5-0.8-2.2-0.2-3.3 0.7-1.2 1.2-1.5 3-1.6 1.3-0.1 1.7-0.2 2.5-0.7 2.4-1.6 2.8-1.7 4.8-0.7 1.2 0.5 1.3 0.7 1.8 1.7 0.3 0.7 0.5 1.7 0.7 3.1q0.3 4.5 2.1 4.3c1-0.1 1.2-0.8 1.2-4.2 0-2.6 0-3.2-0.4-4-0.5-1.3-2.1-2.9-3.3-3.4-0.9-0.4-1.2-0.5-3.4-0.4-1.4 0.1-2.8 0.3-3.1 0.4-0.3 0.1-1.1 0.2-1.7 0.2-1 0.1-1.3 0-2.1-0.6-0.5-0.4-1.1-1-1.3-1.5-0.3-0.7-0.3-0.8 0-1.6 0.4-0.8 0.4-0.8-0.1-1.9-0.9-1.7-0.7-2.8 0.6-4 0.5-0.5 0.8-0.6 1.9-0.7 0.9 0 1.7-0.2 2.7-0.7 1.9-0.9 2.7-1 3.9-0.4 0.6 0.2 1.2 0.7 1.5 1 0.5 0.6 1 2.2 1.3 4.4 0.2 2.1 0.7 3.3 1.9 4.2 1.5 1.3 1.7 1 1.7-2.1 0-4.4-0.9-6.5-3.5-8.3-1.3-0.8-3.1-2.7-3.4-3.5-0.7-1.8 1-4.7 3.1-5.2 0.3-0.1 1-0.7 1.5-1.3 1.5-1.7 2.2-1.9 3.8-1.5q1.1 0.3 2.5 2c0.3 0.4 1 1 1.7 1.4 1.6 0.8 2.1 1.6 2.1 3.1 0 1.1-0.1 1.3-1 2.7-0.6 1-1.4 1.8-1.9 2.1-1.1 0.7-2.4 2.2-2.8 3.1-0.2 0.7-0.3 6-0.1 7.3 0.2 0.7 0.3 0.9 0.8 0.9 0.4 0.1 0.7-0.1 1.2-0.5 1-0.9 1.3-2 1.3-3.9 0-1.9 0.5-4.1 1.1-5.1 0.5-0.8 1.8-1.7 2.8-1.8 0.6-0.1 1.1 0 2.1 0.5q1.2 0.6 2.1 0.6c1.4 0 3.1 0.8 3.7 1.6 0.6 1 0.6 2.4 0.1 3.6-0.3 0.7-0.4 1.3-0.4 2.5 0 1.8-0.3 2.4-1.7 3.1-0.9 0.5-1.6 0.5-6.6 0.1-2-0.1-3.5 0.4-4.7 1.7-1.1 1.2-1.3 2-1.3 5.5 0 4.4 0.4 5.4 1.7 4.7 1.6-0.8 2.3-2.4 2-4.4-0.4-2.1-0.3-2.7 0.3-3.5 1.1-1.3 3.4-1.8 5-1 1 0.5 1.3 0.5 2.7 0 1.2-0.4 1.2-0.4 2.4-0.1 0.9 0.3 1.4 0.6 2 1.3 1 1.1 1.2 1.7 0.7 2.9-0.4 1.1-0.4 2 0 2.7 0.4 0.7 0.4 2.2-0.1 2.9-0.5 1-1.6 1.7-2.6 1.8-1.2 0.2-4.9-0.4-5.5-0.9-0.1-0.1-1.1-0.2-2.2-0.2-2.3-0.1-2.9 0.2-4.7 1.6-0.9 0.6-0.9 0.6-3 0.6z"/>
			<path id="path411" fill-rule="evenodd" class="s3" d="m321.3 283.8c-0.5 1.7-2.8 3.4-5 3.7-0.6 0-1.1 0.2-1.3 0.3-0.1 0-1.6 0.2-3.4 0.2-2.8 0.2-3.2 0.2-4.2 0.7-1.2 0.6-2.1 1.3-3 2.5-0.1 0.2-0.6 0.9-1 1.3-0.9-0.7-2-1.1-3.2-1.1-1.2 0-2.3 0.4-3.2 1.1-0.4-0.5-1-1.2-1.1-1.3-0.8-1.2-1.7-1.9-2.9-2.5-1-0.5-1.5-0.5-4.3-0.7-1.7 0-3.2-0.2-3.4-0.2-0.1-0.1-0.6-0.2-1.2-0.3-2.3-0.3-4.6-2-5-3.7-0.4-1.2-0.2-1.8 0.7-3.1 0.6-0.9 0.7-0.9 0.5-2.5-0.1-1.5 0-1.8 0.3-2.4 0.6-0.8 1.9-1.5 2.9-1.5 0.4 0 1.5 0.1 2.4 0.2 1.5 0.2 1.8 0.2 2.9-0.1l1.3-0.5 1.4 0.5c1.1 0.3 1.6 0.6 2.2 1.3 1.3 1.5 1.8 3 2.6 9.8 0.3 2 0.6 2.6 1.3 2.6 1.2 0 1.4-1 1.2-6.1-0.2-5.1-0.4-6.1-1.7-7.6-1.1-1.2-3.1-2.4-4.3-2.5-0.5-0.1-2.5-0.3-4.3-0.4-4.6-0.3-6.1-0.9-7-2.7-0.5-1.1-0.5-1.3 0.2-3.1 0.5-1.5 0.5-1.6 0.3-2.7-0.2-1-0.2-1.3 0-1.8 0.4-1 1.2-1.8 2.2-2.1 0.7-0.3 0.9-0.3 1.7-0.1 0.9 0.3 1 0.3 2 0 1.5-0.6 1.7-0.7 2.8-0.3 2.3 0.8 3.4 2.5 3.9 5.7 0.2 1.2 0.4 2.6 0.3 3.1-0.1 1.1 0.4 2.1 1.3 2.8 0.9 0.6 1.4 0.6 2-0.1l0.5-0.5v-4c0-4 0-4.1-0.6-5-1-1.8-4-3.8-6.9-4.7-1.7-0.5-2.5-0.6-3.6-0.2-0.6 0.2-1.6 0.3-2.6 0.3-1.4 0-1.8-0.1-2.4-0.5-0.4-0.2-0.8-0.7-0.9-1-0.4-0.7-0.2-2.1 0.5-2.9 1.1-1.4 1.2-1.7 0.8-2.4-1-2 0.4-4.2 2.7-4.2 0.8 0 1-0.1 1.7-0.8 1.6-1.4 2.5-1.7 3.7-1.1 1.4 0.7 2.1 2.3 3.1 7.1 0.6 3.4 1.1 4.7 2.2 5.7 0.8 0.7 1.2 0.7 1.8 0.4 0.6-0.3 0.7-1.2 0.5-4.6-0.2-4.1-0.5-4.7-3.5-7.7-2.7-2.7-3.3-3.8-3.3-6 0-1.2 0.1-1.5 0.6-2.2 0.4-0.6 1-1.1 1.6-1.4 0.6-0.3 1.5-1 2.4-1.9 0.7-0.8 1.6-1.6 1.9-1.7q0.9-0.3 1.7-0.2 0.9-0.1 1.7 0.2c0.4 0.1 1.3 0.9 2 1.7 0.8 0.9 1.7 1.6 2.3 1.9 0.6 0.3 1.3 0.8 1.6 1.4 0.5 0.7 0.6 1 0.6 2.2 0 2.2-0.6 3.3-3.3 6-3 3.1-3.2 3.6-3.4 7.7-0.2 3.4-0.1 4.3 0.5 4.6 0.6 0.3 0.9 0.3 1.7-0.4 1.1-1 1.6-2.3 2.3-5.7 0.9-4.8 1.6-6.4 3-7.1 1.2-0.7 2.2-0.3 3.8 1.1 0.6 0.7 0.9 0.8 1.7 0.8 2.3 0 3.6 2.1 2.6 4.2-0.3 0.7-0.2 1 0.9 2.4 0.7 0.8 0.9 2.2 0.5 2.9-0.2 0.3-0.6 0.8-1 1-0.5 0.4-0.9 0.5-2.3 0.5-1 0-2.1-0.1-2.6-0.3-1.2-0.4-2-0.3-3.6 0.2-2.9 0.9-5.9 2.9-6.9 4.7-0.6 0.9-0.6 1-0.6 5l-0.1 4 0.5 0.5c0.7 0.7 1.1 0.7 2 0.1 1-0.7 1.5-1.7 1.3-2.8 0-0.5 0.1-1.9 0.3-3.1 0.6-3.2 1.7-4.9 3.9-5.7 1.1-0.4 1.4-0.3 2.9 0.3 1 0.3 1.1 0.3 1.9 0 0.8-0.2 1-0.2 1.8 0.1 1 0.3 1.8 1.1 2.1 2.1 0.3 0.5 0.3 0.8 0.1 1.8-0.3 1.1-0.3 1.2 0.3 2.7 0.6 1.8 0.6 2 0.1 3.1-0.9 1.8-2.4 2.4-6.9 2.7-1.9 0.1-3.8 0.3-4.3 0.4-1.2 0.1-3.2 1.3-4.3 2.5-1.4 1.5-1.6 2.6-1.8 7.6-0.1 5.1 0.1 6.2 1.2 6.1 0.7 0 1.1-0.6 1.3-2.6 0.9-6.8 1.3-8.3 2.7-9.8 0.6-0.7 1-1 2.1-1.3l1.4-0.5 1.3 0.5c1.2 0.3 1.5 0.3 2.9 0.1 0.9-0.1 2-0.2 2.5-0.2 1 0 2.3 0.7 2.8 1.5 0.4 0.6 0.5 0.9 0.3 2.4-0.1 1.6-0.1 1.6 0.6 2.5 0.9 1.3 1.1 2 0.8 3.1z"/>
			<path id="path413" fill-rule="evenodd" class="s3" d="m342.5 285.6c-1.8-1.4-2.5-1.7-4.7-1.6-1.2 0-2.2 0.1-2.3 0.2-0.6 0.5-4.3 1.1-5.6 0.9-0.9-0.1-2-0.8-2.5-1.8-0.5-0.7-0.6-2.2-0.1-2.9 0.4-0.7 0.3-1.6-0.1-2.7-0.4-1.2-0.2-1.8 0.8-2.9 0.6-0.7 1.1-1 2-1.3 1.2-0.3 1.2-0.3 2.4 0.1 1.4 0.5 1.8 0.5 2.8 0 1.6-0.8 3.8-0.3 5 1 0.6 0.8 0.6 1.4 0.3 3.5-0.3 2 0.4 3.6 2 4.4 1.3 0.7 1.7-0.3 1.7-4.7 0-3.5-0.2-4.3-1.3-5.5-1.2-1.3-2.7-1.8-4.8-1.7-5 0.4-5.6 0.4-6.6-0.1-1.4-0.7-1.7-1.3-1.7-3.1 0-1.2-0.1-1.8-0.4-2.5-0.5-1.2-0.5-2.6 0.1-3.6 0.6-0.8 2.3-1.6 3.7-1.6q0.9 0 2.2-0.6c1-0.5 1.4-0.6 2-0.5 1 0.1 2.4 1 2.9 1.8 0.6 1 1 3.2 1 5.1 0 1.9 0.4 3 1.4 3.9 0.5 0.4 0.8 0.6 1.2 0.5 0.5 0 0.6-0.2 0.8-0.9 0.2-1.3 0.1-6.6-0.2-7.3-0.3-0.9-1.6-2.4-2.7-3.1-0.5-0.3-1.3-1.1-1.9-2.1-0.9-1.4-1-1.6-1-2.7 0-1.5 0.5-2.3 2.1-3.1 0.6-0.4 1.4-1 1.7-1.4 0.9-1.1 1.8-1.8 2.5-2 1.6-0.4 2.3-0.2 3.8 1.5 0.5 0.6 1.2 1.2 1.5 1.3 2.1 0.5 3.9 3.4 3.2 5.2-0.3 0.8-2.2 2.7-3.4 3.5-2.7 1.8-3.6 3.9-3.6 8.3 0 3.1 0.2 3.4 1.7 2.1 1.2-0.9 1.7-2.1 2-4.2 0.2-2.2 0.7-3.8 1.3-4.4 0.2-0.3 0.9-0.8 1.4-1 1.2-0.6 2-0.5 3.9 0.4 1.1 0.5 1.8 0.7 2.8 0.7 1.1 0.1 1.4 0.2 1.9 0.7 1.3 1.2 1.5 2.3 0.6 4-0.5 1.1-0.5 1.1-0.2 1.9 0.4 0.8 0.4 0.9 0.1 1.6-0.2 0.5-0.8 1.1-1.3 1.5-0.9 0.6-1.1 0.7-2.1 0.6-0.7 0-1.4-0.1-1.7-0.2-0.3-0.1-1.7-0.3-3.1-0.4-2.3-0.1-2.6 0-3.5 0.4-1.2 0.5-2.8 2.1-3.3 3.4-0.4 0.8-0.4 1.4-0.4 4 0 3.4 0.2 4.1 1.2 4.2q1.8 0.2 2.2-4.3c0.1-1.4 0.3-2.4 0.6-3.1 0.5-1 0.7-1.2 1.9-1.7 1.9-1 2.3-0.9 4.7 0.7 0.9 0.5 1.3 0.6 2.6 0.7 1.8 0.1 2.4 0.4 3.1 1.6 0.6 1.1 0.5 1.8-0.3 3.3-0.6 1.2-0.6 1.3-0.3 2.3 0.3 1.3 0.1 2.2-0.7 3-0.9 0.9-2.3 1.3-4.1 1.3-1.1-0.1-1.6-0.2-2.9-0.8-1.3-0.8-1.6-0.8-3.1-0.8-1.7 0-2 0.1-3.4 1.2-0.5 0.4-0.8 0.4-2.8 0.4-2.1 0-2.2 0-3-0.6z"/>
			<circle id="path415" class="s3" cx="300" cy="296.7" r="4.2"/>
			<path id="path417" fill-rule="evenodd" class="s3" d="m332.5 348.3c-0.3 2.7-2.5 4.5-4.6 6-1.3 0.6-1.4 2.3-2 3.5-2.2 5.7-9.3 8.7-15 7-3 2.6-6.6 5.1-10.7 5-4.2 0.1-7.8-2.4-10.7-5-5.8 1.7-12.9-1.3-15.1-7-0.6-1.2-0.7-2.9-2-3.5-2.1-1.5-4.3-3.3-4.6-6-0.7-19.9 12.2-40.2 31.3-46.8 0.1 1.5 0.3 3.2 0.3 4.7-7 3.7-13.6 8.6-18.3 15.1-4.6 7.1-8.3 15.6-7.2 24.3 0.6-3.1 0.8-6.2 1.5-9.3 3.1-12.5 12.5-22.6 23.8-28.4 0.1 1.6 0.1 3.2 0.1 4.9-6 3.4-11.4 8.2-15.1 14.1-5 8.4-6.4 19.3-2.7 28.6-0.7-5.4-1.1-10.9-0.5-16.3 1.8-10.6 8.8-19.8 18.3-24.7 0 2.2 0 4.3 0.1 6.5-4.9 2.8-9.2 6.9-11.6 12.1-3.6 8.2-3.6 18.3 0.5 26.4-1.2-6.9-3-14.1-0.9-21 1.5-6.8 6.1-12.5 12.1-15.7-0.1 1.8 0.5 4.1-0.9 5.6-7.5 8.9-9 22.6-4.1 33.1-0.3-3.7-1.4-7.3-1.3-11.1-0.6-7.3 1.3-15 6.2-20.5 0.1 9.3-0.1 18.6 0 27.8 0 1.5 0.3 2.9 0.7 4.3q0-0.2 0-0.4 0.1 0.2 0.1 0.4c0.4-1.4 0.6-2.8 0.7-4.3 0.1-9.2-0.2-18.5-0.1-27.8 5 5.5 6.8 13.2 6.3 20.5 0.1 3.8-1 7.4-1.4 11.1 5-10.5 3.5-24.2-4.1-33.1-1.3-1.6-0.7-3.8-0.8-5.6 5.9 3.2 10.6 8.9 12 15.7 2.1 6.9 0.4 14.1-0.8 21 4.1-8.1 4.1-18.2 0.4-26.4-2.3-5.2-6.7-9.3-11.5-12.1 0.1-2.2 0-4.3 0.1-6.5 9.4 4.9 16.4 14.1 18.3 24.7 0.6 5.4 0.2 10.9-0.6 16.3 3.8-9.3 2.4-20.2-2.7-28.6-3.7-5.9-9-10.7-15-14.1 0-1.7 0-3.3 0-4.9 11.3 5.8 20.7 15.9 23.8 28.4 0.7 3.1 0.9 6.2 1.5 9.3 1.2-8.7-2.5-17.2-7.1-24.3-4.7-6.5-11.3-11.4-18.4-15.1 0.1-1.5 0.2-3.2 0.4-4.7 19 6.6 32 26.9 31.3 46.8z"/>
			<path id="path419" fill-rule="evenodd" class="s3" d="m320.5 312.8c-2.3-2.3-4.7-4.3-7-6.4-1.5-1.8-1.9-4.3-2.7-6.4q3.3 1.2 6.6 2.4c1 3.5 1.9 6.9 3.1 10.4z"/>
			<path id="path421" fill-rule="evenodd" class="s3" d="m373.4 322.8c-0.9 4.8-4.7 8.5-9.2 10.2-0.2 5.7-3.9 11.4-9.6 12.8-2.4 0.9-5 0.4-7.5-0.2-1.7-0.7-3.3 0.6-5 1-2.7 1.1-5.5 0.3-8.1-0.4-0.3-3.5-0.8-7-1.3-10.4 1.8 2.3 3.3 4.9 5.6 6.7-1.6-3.3-4-6.1-5.7-9.4-2.3-4.7-4.5-9.6-7.4-14-3.3-4.7-4.7-10.4-6.1-15.9 2 1.1 4.8 1.7 6.1 3.5 3.3 13.3 10.2 25.7 20 35.3-3.4-5.4-7.6-10.2-10.6-15.8-3.3-6-6.1-12.3-7.8-19 2.4 1.7 5.9 2.8 6.7 6 1.9 5.6 4.8 10.8 8.1 15.7 1.6 2.5 3.2 5.1 5.5 6.9-4.2-7.4-9.4-14.2-11.8-22.4 9 7 14.3 17.8 17 28.7-0.3-11.9-7.8-22.1-16.1-30 6.5 0.8 12.4 4.5 16.4 9.7 2.6 3 3.8 6.8 6.2 9.9-2.5-10.5-11.2-19.3-21.9-20.9-3.7-0.1-6.4-2.8-9.2-4.8 6.8-1.1 14 0.1 19.8 3.7 6.4 3.4 11 9 15.7 14.3-4.4-8.6-12.6-14.9-21.5-18.1-5.2-2.1-10.9-1.2-16.3-1-1.8-0.7-3.5-1.8-5.2-2.8 5.9-2.2 12.3-3.4 18.6-2.3 7.3 1.3 14.4 4.2 20.1 9 1.8 1.5 3.3 3.2 5.2 4.5-9-12.2-26.2-18.4-40.7-13.6-1.7 0.5-3.3 1.3-5 1.5-2.4-0.2-4.4-1.4-6.6-2.2 7.2-3.9 15.3-6.5 23.5-5.7 9.5 0.5 18.1 4.8 26.1 9.5-6.5-6.2-15.3-9.4-24.1-10.7-9.7-1.4-19.4 1.8-27.7 6.5-1.2-0.4-3.1-1-4.3-1.5q0-0.2 0-0.3c0-1.2-0.4-2.3-1-3.2 14.2-5.4 30.3-8.1 45.4-5.8 5.9 1.3 12.6 2.8 16.2 8.2 2.8 3.9 3.1 8.9 1.9 13.4 4.1 3 6.7 8.3 5.6 13.4z"/>
			<path id="path423" fill-rule="evenodd" class="s3" d="m305.1 298.3c1.2 0.4 2.9 1 4 1.3 0.6 1.7 1.2 3.4 1.7 5-2.2-1.2-5-2.7-7.3-3.9 0.8-0.6 1.3-1.4 1.6-2.4z"/>
			<path id="path425" fill-rule="evenodd" class="s3" d="m294.7 296.8q0 0.1 0 0.2-0.1 0.1-0.1 0.1c-1.2 0.5-2.9 1.1-4.1 1.5-8.4-4.7-18.1-7.9-27.8-6.5-8.8 1.3-17.6 4.5-24.1 10.7 8.1-4.7 16.6-9 26.1-9.5 8.3-0.8 16.3 1.8 23.5 5.7-2.1 0.8-4.2 2-6.6 2.2-1.7-0.2-3.3-1-4.9-1.5-14.6-4.8-31.8 1.4-40.7 13.6 1.8-1.3 3.4-3 5.1-4.5 5.8-4.8 12.9-7.7 20.2-9.1 6.3-1 12.6 0.2 18.6 2.4-1.7 1-3.4 2.1-5.3 2.8-5.4-0.2-11.1-1.1-16.2 0.9-9 3.3-17.2 9.6-21.6 18.2 4.8-5.3 9.4-10.9 15.7-14.3 5.9-3.6 13.1-4.9 19.8-3.7-2.8 2-5.5 4.7-9.1 4.8-10.8 1.6-19.4 10.4-21.9 20.9 2.4-3.1 3.6-6.9 6.2-9.9 3.9-5.2 9.9-8.9 16.4-9.7-8.3 7.9-15.8 18.1-16.1 30 2.7-10.9 8-21.7 17-28.7-2.4 8.2-7.7 15-11.8 22.4 2.3-1.8 3.9-4.4 5.5-6.9 3.2-4.9 6.2-10.1 8.1-15.7 0.7-3.2 4.3-4.3 6.6-6-1.6 6.7-4.4 13-7.7 19-3 5.6-7.2 10.4-10.6 15.8 9.8-9.6 16.7-22 20-35.3 1.3-1.9 4.1-2.4 6-3.5-1.3 5.5-2.7 11.2-6.1 15.9-2.9 4.4-5 9.3-7.3 14-1.7 3.3-4.1 6.1-5.8 9.4 2.3-1.8 3.8-4.4 5.7-6.7-0.5 3.4-1 6.9-1.3 10.4-2.6 0.7-5.5 1.5-8.1 0.4-1.7-0.4-3.3-1.7-5-1-2.5 0.6-5.1 1.1-7.5 0.2-5.7-1.4-9.5-7.1-9.6-12.8-4.5-1.7-8.3-5.4-9.2-10.2-1.1-5.1 1.5-10.4 5.6-13.4-1.2-4.5-0.9-9.5 1.9-13.4 3.6-5.4 10.3-6.9 16.2-8.2 15.1-2.3 31.1 0.4 45.4 5.8-0.7 0.9-1.1 2-1.1 3.2z"/>
			<path id="path427" fill-rule="evenodd" class="s3" d="m296.5 300.7c-2.2 1.2-5 2.7-7.2 3.9 0.5-1.6 1.1-3.3 1.7-5.1 1.1-0.2 2.7-0.8 4-1.2 0.2 1 0.8 1.8 1.5 2.4z"/>
			<path id="path429" fill-rule="evenodd" class="s3" d="m282.6 302.4q3.4-1.2 6.7-2.4c-0.9 2.1-1.3 4.6-2.7 6.4-2.4 2.1-4.8 4.1-7 6.4 1.2-3.4 2.1-6.9 3-10.4z"/>
		</g>
	</g>
</svg>