<svg version="1.2" baseProfile="tiny-ps" xmlns="http://www.w3.org/2000/svg" viewBox="0 0 600 600" width="600" height="600"><title></title><defs><radialGradient id="grd1" gradientUnits="userSpaceOnUse"  cx="300" cy="299.994" r="303.466"><stop offset="0" stop-color="#fff500"  /><stop offset="1" stop-color="#e77817"  /><stop offset="1" stop-color="#e77817"  /></radialGradient></defs><style>tspan { white-space:pre }.shp0 { fill: url(#grd1);stroke: #e77817;stroke-width: 0.912 } </style><g ><path fill-rule="evenodd" class="shp0" d="M153.57 416.18C148.53 410.98 147.09 403.01 150.59 396.25C153.92 389.77 160.81 386.28 167.72 386.88L180.46 354.74L137.88 368.43L118.32 417.86C126.96 423.95 130.03 435.52 125.06 445.15C120.75 453.54 111.6 457.93 102.65 456.72C102.53 457.1 102.42 457.46 102.22 457.85C100.4 461.37 96.02 462.77 92.45 460.99C88.87 459.17 87.45 454.84 89.27 451.33C89.46 450.94 89.69 450.63 89.92 450.31C83.68 443.87 81.89 433.98 86.22 425.59C90.83 416.64 100.89 412.27 110.36 414.35L127.18 371.85L81.68 386.46C83.52 398.71 76.23 410.84 63.93 414.78C53.08 418.27 41.57 414.33 35.05 405.83C34.62 406.05 34.2 406.25 33.74 406.39C29.16 407.86 24.24 405.39 22.75 400.87C21.28 396.36 23.78 391.5 28.34 390.03C28.82 389.89 29.28 389.8 29.77 389.72C29.99 379.06 36.95 369.18 47.8 365.7C60.09 361.75 73.2 367.33 78.99 378.28L124.51 363.67L85.59 339.03C79.19 346.23 68.44 348.53 59.39 343.98C50.9 339.69 46.47 330.66 47.69 321.84C47.3 321.71 46.93 321.58 46.56 321.39C42.99 319.59 41.57 315.26 43.4 311.73C45.21 308.19 49.58 306.79 53.17 308.6C53.53 308.77 53.85 308.99 54.19 309.23C60.68 303.07 70.69 301.3 79.18 305.57C88.91 310.47 93.32 321.64 89.94 331.58L135.22 360.24L177.8 346.55L148.35 327.94C143.11 332.43 135.46 333.61 128.9 330.31C122.05 326.87 118.48 319.59 119.47 312.47C119.15 312.37 118.86 312.28 118.56 312.12C115.69 310.66 114.54 307.18 116 304.33C117.47 301.49 121 300.36 123.88 301.82C124.17 301.95 124.44 302.14 124.69 302.33C129.94 297.35 138 295.93 144.84 299.38C152.86 303.42 156.36 312.73 153.31 320.87L188.52 343.11L257.45 320.97C256.8 318.03 256.49 314.96 256.49 311.83L256.5 311.49C215.83 299.32 170.54 289.77 110.16 288.73C51.71 284.12 20.94 251.94 0 215.47C38.62 198.13 82.66 189.98 132.68 220.22C182.14 254.46 224.48 273.04 264.63 286.84C266.52 284.25 268.65 281.9 271.06 279.77L228.39 221.71L186.73 219.25C184.37 227.62 176.02 233.11 167.1 231.71C159.53 230.54 153.86 224.7 152.55 217.64C152.25 217.64 151.93 217.63 151.59 217.57C148.41 217.07 146.22 214.1 146.73 210.95C147.23 207.8 150.23 205.65 153.42 206.14C153.77 206.2 154.05 206.28 154.35 206.38C157.8 200.05 165.01 196.23 172.6 197.43C179.87 198.57 185.36 203.95 186.93 210.63L221.77 212.7L195.45 176.9L141.85 173.77C138.65 183.79 128.46 190.23 117.69 188.55C108.26 187.09 101.21 179.84 99.63 171.05C99.22 171.06 98.83 171.06 98.4 170.98C94.46 170.38 91.75 166.69 92.37 162.76C93 158.85 96.74 156.18 100.69 156.81C101.1 156.86 101.48 157 101.85 157.09C106.14 149.25 115.09 144.52 124.49 145.99C134.53 147.55 141.84 155.67 142.75 165.21L188.84 167.89L160.71 129.62C149.52 135.14 135.6 132.04 128 121.69C121.29 112.57 121.53 100.52 127.69 91.77C127.35 91.43 127.02 91.1 126.74 90.7C123.92 86.86 124.77 81.48 128.65 78.68C132.54 75.9 137.99 76.74 140.8 80.58C141.1 80.99 141.32 81.39 141.54 81.82C151.87 78.74 163.53 82.23 170.23 91.35C177.84 101.7 176.5 115.74 167.77 124.59L195.89 162.86L207.56 118.65C198.66 114.83 193.13 105.47 194.71 95.53C196.21 86.25 203.51 79.27 212.39 77.7C212.4 77.29 212.42 76.9 212.47 76.51C213.1 72.59 216.83 69.91 220.78 70.53C224.76 71.14 227.46 74.83 226.84 78.76C226.77 79.16 226.66 79.53 226.53 79.91C234.48 84.13 239.27 92.99 237.77 102.28C236.05 112.96 226.69 120.54 216.06 120.43L202.51 171.86L228.83 207.67L237.63 174.22C231.69 170.67 228.19 163.86 229.33 156.66C230.54 149.17 236.43 143.55 243.59 142.28C243.58 141.96 243.6 141.66 243.65 141.33C244.16 138.17 247.17 136.01 250.35 136.53C253.53 137.02 255.72 139.99 255.21 143.13C255.18 143.47 255.07 143.78 254.96 144.06C261.37 147.46 265.22 154.59 264.03 162.1C262.61 170.88 254.74 177.06 245.96 176.7L235.46 216.67L278.1 274.7C280.85 273.11 283.81 271.79 286.9 270.83C286.02 228.83 281.21 183.29 263.57 126.21C249.94 69.83 271.38 30.95 300 0C328.62 30.95 350.06 69.83 336.43 126.21C318.79 183.29 314 228.82 313.13 270.83C316.23 271.79 319.16 273.11 321.9 274.71L364.57 216.65L354.06 176.72C345.27 177.09 337.41 170.93 336 162.13C334.79 154.63 338.65 147.5 345.05 144.09C344.95 143.8 344.86 143.49 344.82 143.17C344.3 140.02 346.49 137.04 349.68 136.54C352.87 136.05 355.86 138.21 356.37 141.35C356.42 141.7 356.44 142 356.42 142.32C363.58 143.59 369.49 149.19 370.68 156.7C371.82 163.88 368.35 170.7 362.4 174.25L371.19 207.64L397.5 171.83L383.94 120.47C373.32 120.56 363.97 112.98 362.25 102.32C360.75 93 365.55 84.13 373.51 79.93C373.38 79.55 373.26 79.19 373.19 78.76C372.56 74.86 375.27 71.18 379.23 70.54C383.2 69.94 386.92 72.62 387.54 76.53C387.62 76.94 387.61 77.32 387.62 77.71C396.49 79.31 403.82 86.26 405.31 95.57C406.9 105.48 401.36 114.87 392.46 118.68L404.13 162.84L432.24 124.57C423.48 115.74 422.16 101.7 429.77 91.36C436.47 82.24 448.13 78.73 458.46 81.82C458.67 81.4 458.89 80.98 459.19 80.59C462.02 76.75 467.45 75.89 471.35 78.68C475.23 81.46 476.1 86.86 473.27 90.71C472.96 91.1 472.65 91.43 472.32 91.77C478.47 100.53 478.71 112.57 472.01 121.69C464.4 132.03 450.48 135.12 439.27 129.64L411.15 167.91L457.27 165.21C458.19 155.67 465.5 147.57 475.55 145.99C484.95 144.53 493.91 149.26 498.17 157.11C498.56 156.99 498.94 156.88 499.34 156.82C503.31 156.19 507.03 158.88 507.66 162.78C508.31 166.7 505.58 170.4 501.61 171.02C501.22 171.07 500.82 171.08 500.42 171.08C498.81 179.86 491.77 187.11 482.36 188.56C471.55 190.25 461.37 183.79 458.2 173.77L404.52 176.91L378.21 212.73L413.11 210.66C414.69 203.98 420.16 198.58 427.44 197.45C435.02 196.25 442.24 200.06 445.68 206.39C445.98 206.29 446.28 206.21 446.62 206.16C449.8 205.66 452.8 207.81 453.32 210.97C453.81 214.12 451.63 217.09 448.44 217.59C448.11 217.65 447.79 217.65 447.48 217.64C446.18 224.72 440.52 230.54 432.92 231.74C424.03 233.12 415.66 227.63 413.3 219.26L371.59 221.74L328.93 279.79C331.32 281.91 333.49 284.25 335.37 286.83C375.52 273.03 417.86 254.46 467.32 220.22C517.35 189.98 561.37 198.13 600 215.47C579.06 251.93 548.29 284.12 489.84 288.73C429.47 289.77 384.18 299.32 343.5 311.49L343.51 311.83C343.51 314.95 343.15 318.03 342.5 320.96L411.5 343.12L446.68 320.9C443.6 312.74 447.11 303.45 455.14 299.43C461.97 295.96 470.04 297.39 475.3 302.35C475.53 302.17 475.8 301.98 476.1 301.84C478.98 300.39 482.51 301.53 483.98 304.37C485.44 307.21 484.29 310.7 481.42 312.15C481.11 312.3 480.82 312.41 480.52 312.49C481.5 319.62 477.93 326.9 471.08 330.34C464.52 333.64 456.88 332.47 451.65 327.97L422.22 346.56L464.81 360.24L510.03 331.62C506.66 321.66 511.06 310.52 520.79 305.61C529.29 301.32 539.3 303.09 545.81 309.28C546.14 309.04 546.44 308.81 546.84 308.61C550.39 306.83 554.77 308.23 556.6 311.76C558.41 315.3 556.99 319.62 553.42 321.42C553.05 321.62 552.67 321.74 552.31 321.85C553.52 330.71 549.07 339.73 540.58 344.01C531.54 348.56 520.81 346.26 514.38 339.06L475.52 363.68L521.01 378.29C526.79 367.33 539.91 361.75 552.2 365.71C563.05 369.18 570.02 379.06 570.24 389.73C570.71 389.79 571.18 389.88 571.64 390.03C576.22 391.51 578.73 396.36 577.25 400.87C575.76 405.38 570.84 407.87 566.27 406.4C565.8 406.24 565.38 406.04 564.95 405.83C558.42 414.33 546.92 418.27 536.08 414.78C523.77 410.83 516.5 398.7 518.31 386.47L472.8 371.85L489.64 414.39C499.11 412.3 509.16 416.67 513.78 425.62C518.1 434.02 516.32 443.89 510.08 450.34C510.32 450.66 510.55 450.97 510.72 451.34C512.57 454.88 511.12 459.2 507.55 461C503.98 462.82 499.59 461.4 497.76 457.86C497.58 457.51 497.45 457.14 497.33 456.75C488.4 457.97 479.25 453.58 474.93 445.18C469.97 435.56 473.05 423.98 481.7 417.9L462.09 368.41L419.5 354.72L432.27 386.9C439.18 386.32 446.08 389.81 449.42 396.29C452.91 403.05 451.48 411.02 446.44 416.19C446.63 416.46 446.81 416.71 446.96 417.01C448.42 419.86 447.29 423.34 444.4 424.8C441.53 426.24 437.99 425.11 436.53 422.27C436.37 421.98 436.27 421.67 436.18 421.36C428.97 422.34 421.62 418.81 418.13 412.05C414.04 404.12 416.74 394.55 424.06 389.74L408.78 351.29L339.81 329.13C338.51 332.07 336.89 334.81 334.98 337.36C360.66 370.84 391.61 404.91 439.85 440.83C484.39 478.53 490.16 522.43 485.41 564.11C443.86 555.7 403.38 536.7 380.89 483.17C361.23 426.75 338.06 387.12 313.79 352.62C310.79 353.61 307.61 354.32 304.35 354.64L304.35 426.34L336.59 452.54C343.48 447.13 353.51 447.55 359.88 453.86C365.31 459.21 366.44 467.23 363.28 473.71C363.53 473.86 363.78 474.07 364.03 474.31C366.31 476.57 366.3 480.23 364.03 482.49C361.74 484.75 358.03 484.75 355.75 482.49C355.52 482.25 355.32 482.01 355.14 481.75C348.59 484.88 340.47 483.77 335.06 478.39C329.85 473.25 328.62 465.7 331.33 459.39L304.35 437.48L304.35 481.73L345.87 515.4C354.4 509.16 366.48 509.86 374.22 517.5C380.96 524.14 382.34 534.12 378.41 542.14C378.74 542.38 379.05 542.6 379.36 542.91C382.19 545.69 382.19 550.24 379.36 553.06C376.51 555.86 371.9 555.85 369.09 553.06C368.78 552.76 368.55 552.45 368.32 552.14C360.19 556.01 350.11 554.62 343.39 547.96C336.2 540.88 335.1 530.07 340.05 521.8L304.34 492.86L304.35 540.15C316.69 542.2 326.1 552.81 326.1 565.59C326.11 576.86 318.75 586.48 308.56 589.98C308.64 590.44 308.71 590.91 308.7 591.39C308.69 596.15 304.8 600 300 600C295.19 600 291.29 596.15 291.3 591.4C291.3 590.91 291.36 590.44 291.44 589.98C281.24 586.47 273.89 576.87 273.89 565.59C273.9 552.81 283.32 542.22 295.65 540.15L295.65 492.84L259.93 521.81C264.86 530.07 263.76 540.87 256.58 547.98C249.84 554.64 239.77 556.02 231.67 552.14C231.42 552.46 231.18 552.77 230.89 553.06C228.05 555.87 223.45 555.86 220.61 553.06C217.77 550.26 217.78 545.69 220.61 542.89C220.9 542.61 221.22 542.36 221.55 542.14C217.62 534.12 219.01 524.16 225.76 517.5C233.48 509.87 245.57 509.18 254.1 515.43L295.66 481.71L295.65 437.44L268.64 459.38C271.34 465.7 270.12 473.26 264.91 478.41C259.48 483.77 251.38 484.89 244.83 481.76C244.64 482.02 244.46 482.27 244.21 482.51C241.93 484.75 238.23 484.75 235.94 482.5C233.66 480.25 233.66 476.57 235.94 474.32C236.17 474.08 236.43 473.88 236.69 473.72C233.53 467.23 234.66 459.22 240.08 453.86C246.44 447.56 256.49 447.15 263.38 452.53L295.65 426.3L295.65 354.65C292.39 354.33 289.26 353.62 286.24 352.62C261.97 387.1 238.77 426.74 219.11 483.17C196.62 536.7 156.15 555.7 114.59 564.11C109.84 522.44 115.61 478.52 160.15 440.83C208.38 404.91 239.35 370.85 265.03 337.36C263.12 334.82 261.47 332.07 260.15 329.15L191.18 351.3L175.93 389.71C183.27 394.51 185.96 404.07 181.87 412.01C178.39 418.78 171.02 422.31 163.82 421.35C163.73 421.63 163.61 421.93 163.47 422.23C162 425.08 158.47 426.21 155.6 424.77C152.71 423.31 151.58 419.82 153.04 416.99C153.19 416.69 153.37 416.42 153.57 416.18L153.57 416.18Z" /></g></svg>