<svg version="1.2" baseProfile="tiny-ps" xmlns="http://www.w3.org/2000/svg" viewBox="0 0 600 600" width="600" height="600"><title></title><style>tspan { white-space:pre }.shp0 { fill: #7c6e32 } .shp1 { fill: #ffffff } .shp2 { fill: #f9c300 } .shp3 { fill: #133481 } .shp4 { fill: #c2231f } </style><g ><path class="shp0" d="M303.83 143.77C303.83 143.77 294.25 150.48 290.42 159.11C286.58 167.73 260.7 190.73 271.25 206.07C281.79 221.41 271.25 228.12 287.54 236.74C303.83 245.37 326.84 230.03 330.67 197.44C330.67 197.44 311.98 231.47 297.6 230.51C283.23 229.55 290.89 212.3 297.6 208.47C304.31 204.63 334.98 180.67 336.9 173.96C336.9 173.96 328.27 175.88 319.65 183.55C311.02 191.21 295.69 206.55 290.89 201.76C286.1 196.96 311.98 181.63 315.81 175.88C319.65 170.13 328.27 150 340.73 143.29C340.73 143.29 332.11 139.46 323.48 149.04C314.86 158.63 303.35 180.67 291.85 182.59C280.35 184.5 283.23 178.75 288.02 173C292.81 167.25 303.35 155.75 303.83 143.77Z" /><path class="shp0" d="M292.33 323.48C292.33 323.48 283.42 351.85 277.28 356.26C271.05 360.67 268.37 383.77 273.74 391.73C279.11 399.68 261.28 393.55 256.01 409.46C250.64 425.46 255.14 444.06 265.78 451.15C276.42 458.24 280.83 458.24 283.51 463.61C286.2 468.98 288.88 485.75 310.16 483.16C331.44 480.48 321.66 475.21 312.84 475.21C303.93 475.21 295.11 472.52 304.89 463.71C308.43 459.3 310.26 472.62 318.21 468.12C326.17 463.71 325.3 449.52 333.26 447.7C341.21 445.88 351.85 437.92 353.67 432.65C355.5 427.28 343.04 435.34 331.53 436.2C320.03 437.06 321.37 452.59 315.14 452.59C308.91 452.59 309.78 444.63 314.28 437.54C318.79 430.45 323.19 442.91 332.01 426.04C340.93 409.17 350.61 406.49 348.88 403.9C347.06 401.21 327.6 422.49 324.06 421.63C320.51 420.77 335.56 407.44 336.52 400.35C337.48 393.26 344.47 381.76 342.75 379.94C340.93 378.12 331.25 396.81 328.56 399.49C325.88 402.17 317.92 421.63 312.56 426.13C307.19 430.54 296.55 427 292.14 435.05C287.73 443 275.27 448.37 278.82 436.87C282.36 425.37 314.28 412.04 319.65 401.41C325.02 390.77 299.23 416.45 292.14 412.04C285.05 407.64 299.23 401.41 306.33 397.86C313.42 394.31 330.29 380.13 330.29 371.21C330.29 371.21 309.01 388.95 301.05 388.95C293.1 388.95 296.65 376.49 301.05 369.39C305.46 362.3 321.47 364.98 320.61 341.02C320.61 341.02 311.69 357.03 308.15 356.07C304.6 355.11 311.69 325.02 308.15 319.65C308.15 319.65 293.96 346.29 294.82 354.25C295.69 362.2 290.42 384.44 286.87 383.48C283.32 382.62 279.78 375.53 282.46 366.61C284.76 357.7 295.4 339.01 292.33 323.48Z" /><g ><path class="shp0" d="M499.84 295.69C501.76 295.69 468.21 269.81 460.54 266.93C452.88 264.06 432.75 262.14 432.75 258.31C432.75 254.47 441.37 251.6 440.42 247.76C439.46 243.93 432.75 251.6 422.2 251.6C411.66 251.6 400.16 238.18 395.85 240.58C395.85 240.58 388.18 243.45 385.3 246.33C382.43 249.2 366.13 231.95 358.47 238.66C350.8 245.37 342.17 244.41 343.13 246.33C344.09 248.24 348.88 253.99 352.72 253.99C356.55 253.99 350.8 262.62 356.55 262.62C362.3 262.62 366.13 263.58 369.01 266.45C371.88 269.33 374.76 274.12 377.64 273.16C380.51 272.2 379.55 279.87 384.35 278.91C389.14 277.96 381.47 284.66 375.72 284.66C369.97 284.66 358.47 285.62 356.55 279.87C354.63 274.12 348.88 276.04 346.01 277.96C343.13 279.87 337.38 283.71 343.13 285.62C348.88 287.54 357.51 286.58 360.38 295.21C363.26 303.83 353.67 307.67 354.63 326.84C355.59 346.01 367.09 355.59 380.51 360.38C380.51 360.38 381.47 376.68 393.93 377.64C406.39 378.59 417.89 375.72 416.93 388.18C415.97 400.64 395.85 416.93 389.14 415.02C382.43 413.1 396.81 397.76 394.89 393.93C392.97 390.1 382.43 380.51 380.51 383.39C378.59 386.26 387.22 392.97 386.26 396.81C385.3 400.64 383.39 411.18 377.64 401.6C371.88 392.01 369.97 387.22 363.26 388.18C356.55 389.14 367.09 392.01 368.05 399.68C369.01 407.35 372.84 413.1 368.05 411.18C363.26 409.27 356.55 405.43 353.67 413.1C350.8 420.77 351.76 427.48 353.67 427.48C355.59 427.48 357.51 415.02 360.38 416.93C363.26 418.85 368.05 414.06 373.8 421.73C379.55 429.39 380.51 439.94 388.18 433.23C395.85 426.52 442.81 392.01 447.6 387.22C447.99 386.84 448.18 386.36 448.27 385.78C454.6 382.14 477.99 368.43 483.83 357.99C484.7 355.59 457.76 374.28 447.32 381.57C446.84 380.61 446.36 379.55 445.69 378.4C454.41 373.23 477.12 359.14 483.35 348.31C484.41 345.62 454.98 366.33 443.29 374.57C442.52 373.42 441.76 372.17 440.99 370.93C450.58 365.46 472.43 352.04 478.56 341.5C479.62 338.91 451.05 358.37 438.5 367C437.83 365.94 437.25 364.89 436.68 363.93C447.12 357.6 470.22 342.75 476.84 331.25C477.99 328.47 448.37 349.27 434.47 359.23C433.9 357.41 433.71 355.78 434.19 354.54L448.56 344.95C448.56 344.95 410.13 342.65 407.92 317.06C416.65 322.24 426.23 327.03 433.04 327.7C436.2 327.6 398.05 304.79 389.52 299.71C390.58 298.08 392.97 295.88 397.28 296.45C400.35 296.93 403.71 298.66 406.58 300.58C406.77 300.77 430.45 320.89 442.81 322.81C444.92 322.81 424.7 308.82 413.87 301.34C414.25 300.19 414.82 298.75 415.4 297.12C420.67 301.53 442.14 318.98 454.12 320.89C456.9 320.89 425.08 298.95 416.93 293.39C417.51 292.04 418.08 290.7 418.66 289.36C424.03 293.29 449.81 311.79 463.71 313.23C466.87 313.13 429.78 290.99 420.58 285.53C421.44 283.9 422.3 282.27 423.16 280.64C427.57 283.99 454.5 304.12 468.79 305.65C471.95 305.56 434.86 282.75 425.46 277C426.23 275.85 427 274.89 427.86 273.93C434.38 278.63 462.36 298.37 477.51 299.9C480.77 299.81 444.25 278.05 431.6 270.67C432.94 269.9 434.28 269.42 435.62 269.62C435.81 269.62 436.01 269.62 436.2 269.71C443.77 275.18 470.51 293.67 485.18 295.21C487.86 295.11 463.61 280.35 447.89 271.05C456.13 272.3 464.47 274.41 470.13 278.24C478.75 284.19 497.92 295.69 499.84 295.69Z" /><path class="shp1" d="M346.01 247.28C346.01 247.28 349.84 251.12 353.67 252.08C357.51 253.04 354.63 259.74 356.55 260.7C358.47 261.66 365.18 259.74 367.09 262.62C369.01 265.5 374.76 271.25 376.68 271.25C378.59 271.25 381.47 274.12 382.43 276.04C383.39 277.96 385.3 277 385.3 276.04C385.3 275.08 377.64 269.33 376.68 266.45C375.72 263.58 373.8 259.74 369.97 258.79C366.13 257.83 367.09 253.99 364.22 253.04C361.34 252.08 358.47 248.24 356.55 248.24C354.63 248.24 353.67 245.37 352.72 245.37C352.72 245.37 345.05 246.33 346.01 247.28Z" /><path class="shp1" d="M349.84 277.96C349.84 277.96 343.13 280.83 345.05 282.75C346.96 284.66 357.51 285.62 359.42 288.5C361.34 291.37 366.13 298.08 363.26 302.88C360.38 307.67 370.93 308.63 374.76 304.79C378.59 300.96 378.59 293.29 381.47 291.37C384.35 289.46 371.88 291.37 374.76 288.5C377.64 285.62 374.76 286.58 370.93 286.58C367.09 286.58 360.38 286.58 354.63 281.79C352.72 279.87 353.67 277 349.84 277.96Z" /><g ><path class="shp1" d="M371.02 338.34C369.58 336.42 368.53 334.12 367.86 331.53C363.45 331.05 359.52 330 356.55 328.95C356.93 333.16 358.18 337.67 360.77 342.08C363.74 341.31 367.38 340.16 371.02 338.34Z" /><path class="shp1" d="M367.86 321.95C363.74 320.42 360.19 318.4 357.6 316.68C356.93 319.55 356.45 323.1 356.55 326.93C359.33 327.99 363.16 329.04 367.57 329.62C367.28 327.22 367.38 324.73 367.86 321.95Z" /><path class="shp1" d="M379.27 345.81C376.87 344.19 374.38 342.27 372.27 339.87C368.63 341.79 364.98 343.04 362.01 343.8C364.22 347.06 367.38 350.22 371.5 353.1C373.9 351.18 376.77 348.79 379.27 345.81Z" /><path class="shp1" d="M388.66 353.19C388.37 351.28 384.92 349.46 380.89 346.87C378.4 349.84 375.72 352.24 373.23 354.15C375.62 355.69 378.4 357.12 381.47 358.47C384.35 358.47 389.62 358.95 388.66 353.19Z" /><path class="shp1" d="M368.34 320.03C368.82 318.12 369.49 316.1 370.45 313.9C370.45 313.9 361.82 311.02 360.38 308.63C360.38 308.63 359.23 310.93 358.18 314.66C360.58 316.29 364.12 318.4 368.34 320.03Z" /></g><path class="shp1" d="M397.76 248.24C397.76 248.24 393.93 248.24 392.97 250.16C392.01 252.08 386.26 250.16 386.26 252.08C386.26 253.99 392.97 255.91 396.81 255.91C400.64 255.91 400.64 248.24 397.76 248.24Z" /></g><g ><path class="shp0" d="M448.56 394.89L480.19 374.76C480.19 374.76 494.57 391.05 484.03 410.22C473.48 429.39 454.31 442.81 454.31 442.81L420.77 441.85C420.77 441.85 445.69 424.6 448.56 394.89Z" /><path class="shp0" d="M394.89 455.27L406.39 480.19C406.39 480.19 373.8 485.94 364.22 502.24C354.63 518.53 326.84 542.49 315.34 542.49C303.83 542.49 320.13 538.66 317.25 534.82C314.38 530.99 308.63 532.91 308.63 530.03C308.63 527.16 316.29 527.16 316.29 524.28C316.29 521.41 308.63 521.41 308.63 519.49C308.63 517.57 314.38 516.61 315.34 513.74C316.29 510.86 307.67 513.74 308.63 509.9C309.58 506.07 325.88 511.82 331.63 502.24C337.38 492.65 374.76 458.15 394.89 455.27Z" /><path class="shp0" d="M408.31 483.07C408.31 483.07 382.43 490.73 374.76 497.44C367.09 504.15 358.47 523.32 355.59 524.28C355.59 524.28 355.59 530.99 366.13 529.07C376.68 527.16 385.3 519.49 389.14 523.32C392.97 527.16 392.97 538.66 391.05 542.49C389.14 546.33 398.72 543.45 398.72 530.03C398.72 516.61 405.43 515.65 402.56 511.82C399.68 507.99 386.26 516.61 390.1 506.07C393.93 495.53 405.43 495.53 408.31 483.07Z" /><path class="shp0" d="M463.9 445.69C463.9 445.69 465.81 434.19 445.69 438.02C425.56 441.85 380.51 439.94 367.09 461.02C362.3 466.77 380.51 465.81 382.43 468.69C384.35 471.57 384.35 473.48 390.1 473.48C395.85 473.48 392.97 480.19 398.72 480.19C404.47 480.19 400.64 488.82 412.14 488.82C423.64 488.82 466.77 458.15 463.9 445.69Z" /><path class="shp1" d="M461.12 446.36C461.02 445.97 461.02 445.59 461.12 445.21C461.12 445.21 461.31 443.58 460.26 442.24C459.01 440.8 456.61 440.03 453.16 440.03C451.15 440.03 448.95 440.32 446.36 440.8C441.47 441.76 435.05 442.33 428.24 443C407.64 444.92 379.46 447.6 369.78 462.27C371.31 462.84 374.09 463.32 375.81 463.61C377.06 463.8 378.21 463.99 379.27 464.28C381.76 462.65 384.35 461.21 387.03 460.06C389.71 458.91 392.49 458.05 395.46 457.67C397 457.48 398.24 457.38 399.58 457.28C400.93 457.19 402.27 457 403.61 456.81C409.07 456.13 414.54 455.18 419.9 454.12C422.59 453.64 425.37 453.07 428.05 452.49C430.73 451.92 433.51 451.34 436.1 450.48C434.86 451.15 433.61 451.63 432.27 452.11C430.93 452.59 429.68 453.07 428.34 453.45C425.65 454.31 423.07 455.08 420.38 455.85C415.02 457.28 409.65 458.53 404.09 459.68C402.75 459.97 401.31 460.16 399.97 460.35C398.63 460.54 397.09 460.64 395.85 460.93C393.26 461.31 390.77 462.17 388.37 463.23C386.65 463.99 385.02 464.86 383.48 465.81C384.06 466.2 384.54 466.58 384.82 467.16C385.21 467.64 385.5 468.21 385.69 468.59C386.45 469.94 386.74 470.42 388.18 470.61C389.9 469.46 391.73 468.4 393.64 467.54C396.23 466.29 399.01 465.34 401.98 464.86C403.51 464.57 404.76 464.47 406.1 464.28C407.44 464.09 408.79 463.9 410.13 463.61C415.59 462.75 420.96 461.5 426.33 460.35C429.01 459.78 431.69 459.11 434.38 458.43C437.06 457.76 439.74 457.09 442.33 456.13C441.18 456.9 439.84 457.38 438.59 457.96C437.35 458.43 436.01 459.01 434.66 459.49C432.08 460.45 429.39 461.31 426.81 462.17C421.53 463.9 416.17 465.34 410.7 466.58C409.36 466.87 407.92 467.16 406.58 467.44C405.24 467.73 403.71 467.92 402.56 468.12C400.06 468.59 397.57 469.55 395.18 470.7C394.6 470.99 394.12 471.28 393.55 471.57C395.65 472.62 396.52 474.63 397 475.88C397.67 477.51 397.76 477.51 398.63 477.51C399.01 477.51 399.3 477.51 399.68 477.6C401.5 476.55 403.42 475.69 405.53 475.02C406.96 474.54 408.21 474.25 409.55 473.87C410.89 473.48 412.14 473.1 413.48 472.62C418.75 470.99 423.83 468.98 429.01 467.06C431.6 466.1 434.19 465.05 436.68 463.99C439.27 462.94 441.76 461.88 444.25 460.54C443.19 461.41 441.95 462.08 440.8 462.84C439.55 463.51 438.4 464.19 437.16 464.86C434.66 466.2 432.27 467.44 429.68 468.59C424.7 470.99 419.62 473.19 414.35 475.3C413 475.78 411.76 476.26 410.42 476.74C409.07 477.22 407.64 477.6 406.49 477.99C405.43 478.37 404.38 478.85 403.32 479.42C404.19 480.38 404.76 481.44 405.14 482.3C406.29 484.5 407.06 486.13 412.04 486.13C419.14 486.13 445.4 469.84 456.9 455.37C461.31 449.71 461.31 447.22 461.12 446.36Z" /></g><g ><path class="shp2" d="M425.74 78.11L595.8 178.43L528.93 291.78L358.88 191.46L425.74 78.11Z" /><path class="shp3" d="M412.35 100.82L582.41 201.14L542.28 269.16L372.22 168.84L412.35 100.82Z" /><path class="shp1" d="M403.44 115.92L573.5 216.24L551.19 254.05L381.13 153.73L403.44 115.92Z" /><path class="shp4" d="M399.35 122.86L569.4 223.18L555.28 247.12L385.22 146.8L399.35 122.86Z" /><g ><path fill-rule="evenodd" class="shp0" d="M529.46 293.77L528.21 293L356.84 191.98L425.18 76.1L597.7 177.89L529.46 293.77ZM360.86 191.02L528.4 289.84L593.87 178.95L426.23 80.13L360.86 191.02Z" /></g><path class="shp0" d="M440.13 73.71C443.48 68.15 441.76 61.05 436.29 57.7C430.83 54.44 423.74 56.26 420.38 61.82C417.8 66.23 418.27 71.5 421.25 75.24L241.15 374.57L247.76 378.5L427.86 79.27C432.56 80.13 437.54 78.12 440.13 73.71Z" /></g><g ><path class="shp0" d="M100.16 295.69C98.24 295.69 131.79 269.81 139.46 266.93C147.12 264.06 167.25 262.14 167.25 258.31C167.25 254.47 158.63 251.6 159.58 247.76C160.54 243.93 167.25 251.6 177.8 251.6C188.34 251.6 199.84 238.18 204.15 240.58C204.15 240.58 211.82 243.45 214.7 246.33C217.57 249.2 233.87 231.95 241.53 238.66C249.2 245.37 257.83 244.41 256.87 246.33C255.91 248.24 251.12 253.99 247.28 253.99C243.45 253.99 249.2 262.62 243.45 262.62C237.7 262.62 233.87 263.58 230.99 266.45C228.12 269.33 225.24 274.12 222.36 273.16C219.49 272.2 220.45 279.87 215.65 278.91C210.86 277.96 218.53 284.66 224.28 284.66C230.03 284.66 241.53 285.62 243.45 279.87C245.37 274.12 251.12 276.04 253.99 277.96C256.87 279.87 262.62 283.71 256.87 285.62C251.12 287.54 242.49 286.58 239.62 295.21C236.74 303.83 246.33 307.67 245.37 326.84C244.41 346.01 232.91 355.59 219.49 360.38C219.49 360.38 218.53 376.68 206.07 377.64C193.61 378.59 182.11 375.72 183.07 388.18C184.03 400.64 204.15 416.93 210.86 415.02C217.57 413.1 203.19 397.76 205.11 393.93C207.03 390.1 217.57 380.51 219.49 383.39C221.41 386.26 212.78 392.97 213.74 396.81C214.7 400.64 216.61 411.18 222.36 401.6C228.12 392.01 230.03 387.22 236.74 388.18C243.45 389.14 232.91 392.01 231.95 399.68C230.99 407.35 227.16 413.1 231.95 411.18C236.74 409.27 243.45 405.43 246.33 413.1C249.2 420.77 248.24 427.48 246.33 427.48C244.41 427.48 242.49 415.02 239.62 416.93C236.74 418.85 231.95 414.06 226.2 421.73C220.45 429.39 219.49 439.94 211.82 433.23C204.15 426.52 157.19 392.01 152.4 387.22C152.01 386.84 151.82 386.36 151.73 385.78C145.4 382.14 122.01 368.43 116.17 357.99C115.3 355.59 142.24 374.28 152.68 381.57C153.16 380.61 153.64 379.55 154.31 378.4C145.59 373.23 122.88 359.14 116.65 348.31C115.59 345.62 145.02 366.33 156.71 374.57C157.48 373.42 158.24 372.17 159.01 370.93C149.42 365.46 127.57 352.04 121.44 341.5C120.38 338.91 148.95 358.37 161.5 367C162.17 365.94 162.75 364.89 163.32 363.93C152.88 357.6 129.78 342.75 123.16 331.25C122.01 328.47 151.63 349.27 165.53 359.23C166.1 357.41 166.29 355.78 165.81 354.54L151.44 344.95C151.44 344.95 189.87 342.65 192.08 317.06C183.35 322.24 173.77 327.03 166.96 327.7C163.8 327.6 201.95 304.79 210.48 299.71C209.42 298.08 207.03 295.88 202.72 296.45C199.65 296.93 196.29 298.66 193.42 300.58C193.23 300.96 169.55 321.09 157.19 323C155.08 323 175.3 309.01 186.13 301.53C185.75 300.38 185.18 298.95 184.6 297.32C179.33 301.73 157.86 319.17 145.88 321.09C143.1 321.09 174.92 299.14 183.07 293.58C182.49 292.24 181.92 290.89 181.34 289.55C175.97 293.48 150.19 311.98 136.29 313.42C133.13 313.32 170.22 291.18 179.42 285.72C178.56 284.09 177.7 282.46 176.84 280.83C172.43 284.19 145.5 304.31 131.21 305.85C128.05 305.75 165.14 282.94 174.54 277.19C173.77 276.04 173 275.08 172.14 274.12C165.62 278.82 137.64 298.56 122.49 300.1C119.23 300 155.75 278.24 168.4 270.86C167.06 270.1 165.72 269.62 164.38 269.81C164.19 269.81 163.99 269.81 163.8 269.9C156.23 275.37 129.49 293.87 114.82 295.4C112.14 295.3 136.39 280.54 152.11 271.25C143.87 272.49 135.53 274.6 129.87 278.43C121.25 284.19 102.08 295.69 100.16 295.69Z" /><path class="shp1" d="M253.99 247.28C253.99 247.28 250.16 251.12 246.33 252.08C242.49 253.04 245.37 259.74 243.45 260.7C241.53 261.66 234.82 259.74 232.91 262.62C230.99 265.5 225.24 271.25 223.32 271.25C221.41 271.25 218.53 274.12 217.57 276.04C216.61 277.96 214.7 277 214.7 276.04C214.7 275.08 222.36 269.33 223.32 266.45C224.28 263.58 226.2 259.74 230.03 258.79C233.87 257.83 232.91 253.99 235.78 253.04C238.66 252.08 241.53 248.24 243.45 248.24C245.37 248.24 246.33 245.37 247.28 245.37C247.28 245.37 254.95 246.33 253.99 247.28Z" /><path class="shp1" d="M250.16 277.96C250.16 277.96 256.87 280.83 254.95 282.75C253.04 284.66 242.49 285.62 240.58 288.5C238.66 291.37 233.87 298.08 236.74 302.88C239.62 307.67 229.07 308.63 225.24 304.79C221.41 300.96 221.41 293.29 218.53 291.37C215.65 289.46 228.12 291.37 225.24 288.5C222.36 285.62 225.24 286.58 229.07 286.58C232.91 286.58 239.62 286.58 245.37 281.79C247.28 279.87 246.33 277 250.16 277.96Z" /><g ><path class="shp1" d="M228.98 338.34C230.42 336.42 231.47 334.12 232.14 331.53C236.55 331.05 240.48 330 243.45 328.95C243.07 333.16 241.82 337.67 239.23 342.08C236.26 341.31 232.62 340.16 228.98 338.34Z" /><path class="shp1" d="M232.14 321.95C236.26 320.42 239.81 318.4 242.4 316.68C243.07 319.55 243.55 323.1 243.45 326.93C240.67 327.99 236.84 329.04 232.43 329.62C232.72 327.22 232.62 324.73 232.14 321.95Z" /><path class="shp1" d="M220.73 345.81C223.13 344.19 225.62 342.27 227.73 339.87C231.37 341.79 235.02 343.04 237.99 343.8C235.78 347.06 232.62 350.22 228.5 353.1C226.1 351.18 223.23 348.79 220.73 345.81Z" /><path class="shp1" d="M211.34 353.19C211.63 351.28 215.08 349.46 219.11 346.87C221.6 349.84 224.28 352.24 226.77 354.15C224.38 355.69 221.6 357.12 218.53 358.47C215.65 358.47 210.38 358.95 211.34 353.19Z" /><path class="shp1" d="M231.66 320.03C231.18 318.12 230.51 316.1 229.55 313.9C229.55 313.9 238.18 311.02 239.62 308.63C239.62 308.63 240.77 310.93 241.82 314.66C239.42 316.29 235.88 318.4 231.66 320.03Z" /></g><path class="shp1" d="M202.24 248.24C202.24 248.24 206.07 248.24 207.03 250.16C207.99 252.08 213.74 250.16 213.74 252.08C213.74 253.99 207.03 255.91 203.19 255.91C199.36 255.91 199.36 248.24 202.24 248.24Z" /></g><g ><path class="shp0" d="M151.44 394.89L119.81 374.76C119.81 374.76 105.43 391.05 115.97 410.22C126.52 429.39 145.69 442.81 145.69 442.81L179.23 441.85C179.23 441.85 154.31 424.6 151.44 394.89Z" /><path class="shp0" d="M205.11 455.27L193.61 480.19C193.61 480.19 226.2 485.94 235.78 502.24C245.37 518.53 273.16 542.49 284.66 542.49C296.17 542.49 279.87 538.66 282.75 534.82C285.62 530.99 291.37 532.91 291.37 530.03C291.37 527.16 283.71 527.16 283.71 524.28C283.71 521.41 291.37 521.41 291.37 519.49C291.37 517.57 285.62 516.61 284.66 513.74C283.71 510.86 292.33 513.74 291.37 509.9C290.42 506.07 274.12 511.82 268.37 502.24C262.62 492.65 225.24 458.15 205.11 455.27Z" /><path class="shp0" d="M191.69 483.07C191.69 483.07 217.57 490.73 225.24 497.44C232.91 504.15 241.53 523.32 244.41 524.28C244.41 524.28 244.41 530.99 233.87 529.07C223.32 527.16 214.7 519.49 210.86 523.32C207.03 527.16 207.03 538.66 208.95 542.49C210.86 546.33 201.28 543.45 201.28 530.03C201.28 516.61 194.57 515.65 197.44 511.82C200.32 507.99 213.74 516.61 209.9 506.07C206.07 495.53 194.57 495.53 191.69 483.07Z" /><path class="shp0" d="M136.1 445.69C136.1 445.69 134.19 434.19 154.31 438.02C174.44 441.85 219.49 439.94 232.91 461.02C237.7 466.77 219.49 465.81 217.57 468.69C215.65 471.57 215.65 473.48 209.9 473.48C204.15 473.48 207.03 480.19 201.28 480.19C195.53 480.19 199.36 488.82 187.86 488.82C176.36 488.82 133.23 458.15 136.1 445.69Z" /><path class="shp1" d="M138.88 446.36C138.98 445.97 138.98 445.59 138.88 445.21C138.88 445.21 138.69 443.58 139.74 442.24C140.99 440.8 143.39 440.03 146.84 440.03C148.85 440.03 151.05 440.32 153.64 440.8C158.53 441.76 164.95 442.33 171.76 443C192.36 444.92 220.54 447.6 230.22 462.27C228.69 462.84 225.91 463.32 224.19 463.61C222.94 463.8 221.79 463.99 220.73 464.28C218.24 462.65 215.65 461.21 212.97 460.06C210.29 458.91 207.51 458.05 204.54 457.67C203 457.48 201.76 457.38 200.42 457.28C199.07 457.19 197.73 457 196.39 456.81C190.93 456.13 185.46 455.18 180.1 454.12C177.41 453.64 174.63 453.07 171.95 452.49C169.27 451.92 166.49 451.34 163.9 450.48C165.14 451.15 166.39 451.63 167.73 452.11C169.07 452.59 170.32 453.07 171.66 453.45C174.35 454.31 176.93 455.08 179.62 455.85C184.98 457.28 190.35 458.53 195.91 459.68C197.25 459.97 198.69 460.16 200.03 460.35C201.37 460.54 202.91 460.64 204.15 460.93C206.74 461.31 209.23 462.17 211.63 463.23C213.35 463.99 214.98 464.86 216.52 465.81C215.94 466.2 215.46 466.58 215.18 467.16C214.79 467.64 214.5 468.21 214.31 468.59C213.55 469.94 213.26 470.42 211.82 470.61C210.1 469.46 208.27 468.4 206.36 467.54C203.77 466.29 200.99 465.34 198.02 464.86C196.49 464.57 195.24 464.47 193.9 464.28C192.56 464.09 191.21 463.9 189.87 463.61C184.41 462.75 179.04 461.5 173.67 460.35C170.99 459.78 168.31 459.11 165.62 458.43C162.94 457.76 160.26 457.09 157.67 456.13C158.82 456.9 160.16 457.38 161.41 457.96C162.65 458.43 163.99 459.01 165.34 459.49C167.92 460.45 170.61 461.31 173.19 462.17C178.47 463.9 183.83 465.34 189.3 466.58C190.64 466.87 192.08 467.16 193.42 467.44C194.76 467.73 196.29 467.92 197.44 468.12C199.94 468.59 202.43 469.55 204.82 470.7C205.4 470.99 205.88 471.28 206.45 471.57C204.35 472.62 203.48 474.63 203 475.88C202.24 477.32 202.24 477.32 201.28 477.32C200.89 477.32 200.61 477.32 200.22 477.41C198.4 476.36 196.49 475.5 194.38 474.82C192.94 474.35 191.69 474.06 190.35 473.67C189.01 473.29 187.76 472.91 186.42 472.43C181.15 470.8 176.07 468.79 170.89 466.87C168.31 465.91 165.72 464.86 163.23 463.8C160.64 462.75 158.15 461.69 155.65 460.35C156.71 461.21 157.96 461.88 159.11 462.65C160.35 463.32 161.5 463.99 162.75 464.66C165.24 466.01 167.64 467.25 170.22 468.4C175.21 470.8 180.29 473 185.56 475.11C186.9 475.59 188.15 476.07 189.49 476.55C190.83 477.03 192.27 477.41 193.42 477.8C194.47 478.18 195.53 478.66 196.58 479.23C195.72 480.19 195.14 481.25 194.76 482.11C193.61 484.31 192.84 485.94 187.86 485.94C180.77 485.94 154.5 469.65 143 455.18C138.69 449.71 138.69 447.22 138.88 446.36Z" /></g><g ><path class="shp2" d="M241.17 191.54L71.11 291.86L4.25 178.52L174.3 78.19L241.17 191.54Z" /><path class="shp3" d="M227.78 168.84L57.72 269.16L17.59 201.13L187.65 100.81L227.78 168.84Z" /><path class="shp1" d="M218.86 153.73L48.81 254.05L26.5 216.24L196.56 115.92L218.86 153.73Z" /><path class="shp4" d="M214.77 146.8L44.72 247.12L30.59 223.18L200.65 122.85L214.77 146.8Z" /><g ><path fill-rule="evenodd" class="shp0" d="M2.2 177.99L174.73 76.2L243.07 192.08L71.79 293.1L70.54 293.87L2.2 177.99ZM173.77 80.13L6.23 178.95L71.69 289.84L239.23 191.02L173.77 80.13Z" /></g><path class="shp0" d="M159.87 73.71C156.52 68.15 158.24 61.05 163.71 57.7C169.17 54.35 176.26 56.26 179.62 61.82C182.2 66.23 181.73 71.5 178.75 75.24L358.85 374.47L352.24 378.4L172.14 79.27C167.44 80.13 162.46 78.12 159.87 73.71Z" /></g></g></svg>