<svg version="1.2" baseProfile="tiny-ps" xmlns="http://www.w3.org/2000/svg" viewBox="0 0 718 718" width="600" height="600"><style>tspan { white-space:pre }.shp0 { fill: #ffffff;stroke: #000000;stroke-width: 3 } .shp1 { fill: #d71f27 } .shp2 { fill: #fcd116 } .shp3 { fill: #000000;stroke: #000000;stroke-width: 3 } </style><path class="shp0" d="M358.6 51.03L714.42 666.72L2.79 666.72L358.6 51.03Z" /><path class="shp1" d="M584.45 591.72L132.76 591.72L358.6 200.92L584.45 591.72Z" /><path class="shp2" d="M358.6 247.43L368.86 268.3L391.88 271.61L375.19 287.81L379.17 310.72L358.6 299.86L338.04 310.72L342.01 287.81L325.33 271.6L348.35 268.3L358.6 247.43L358.6 247.43Z" /><path class="shp2" d="M206.03 513.43L216.29 534.3L239.31 537.6L222.62 553.81L226.6 576.72L206.03 565.86L185.47 576.72L189.44 553.81L172.76 537.6L195.78 534.3L206.03 513.43L206.03 513.43Z" /><path class="shp2" d="M509.17 513.43L498.92 534.3L475.9 537.6L492.58 553.81L488.61 576.72L509.17 565.86L529.74 576.72L525.76 553.81L542.45 537.6L519.43 534.3L509.17 513.43L509.17 513.43Z" /><g ><path class="shp3" d="M176.29 654.51L168.1 654.51L151.49 631.15L144.2 638.27L144.2 654.51L138 654.51L138 607.66L144.2 607.66L144.2 630.89L167.05 607.66L175.42 607.66L155.8 626.89L176.29 654.51Z" /><path fill-rule="evenodd" class="shp3" d="M213.14 654.51L207.7 640.25L188.08 640.25L182.9 654.51L176.35 654.51L194.34 607.66L201.02 607.66L220.14 654.51L213.14 654.51ZM205.88 635.33L197.63 613.6L189.77 635.33L205.88 635.33Z" /><path class="shp3" d="M258.62 613.22L243.12 613.22L243.12 654.51L236.88 654.51L236.88 613.22L221.51 613.22L221.51 607.66L258.61 607.66L258.61 613.22L258.62 613.22Z" /><path fill-rule="evenodd" class="shp3" d="M303.77 654.51L296.77 654.51L291.34 640.25L271.72 640.25L266.54 654.51L259.99 654.51L277.98 607.66L284.66 607.66L303.77 654.51ZM289.52 635.33L281.27 613.6L273.41 635.33L289.52 635.33Z" /><path fill-rule="evenodd" class="shp3" d="M341.29 654.51L336.88 642.01C336.1 639.8 334.78 637.99 332.95 636.58C331.12 635.17 329.01 634.47 326.63 634.47L315.15 634.47L315.15 654.51L308.95 654.51L308.95 607.66L329.69 607.66C333.31 607.66 336.28 608.01 338.58 608.71C340.88 609.41 342.75 610.9 344.2 613.15C345.65 615.41 346.38 617.96 346.38 620.79C346.38 624.03 345.44 626.74 343.56 628.91C341.69 631.08 339.12 632.5 335.86 633.16L335.86 633.29C339.12 634.33 341.6 637.15 343.31 641.76L348.01 654.51L341.29 654.51ZM328.99 628.91C332.85 628.91 335.64 628.3 337.38 627.09C339.11 625.87 339.98 623.77 339.98 620.79C339.98 615.47 336.64 612.8 329.95 612.8L315.15 612.8L315.15 628.91L328.99 628.91Z" /><path class="shp3" d="M374.6 655.31C369.16 655.31 365.1 654.25 362.4 652.14C359.71 650.03 358.01 647.55 357.29 644.7C356.58 641.84 356.22 638.53 356.22 634.76L356.22 607.66L362.42 607.66L362.42 634.66C362.42 640.82 363.45 644.87 365.52 646.81C367.59 648.75 370.61 649.72 374.6 649.72C378.58 649.72 381.61 648.75 383.67 646.81C385.74 644.87 386.77 640.82 386.77 634.66L386.77 607.66L393.01 607.66L393.01 634.76C393.01 640.43 392.33 644.6 390.98 647.29C389.62 649.97 387.58 651.98 384.86 653.31C382.13 654.64 378.71 655.31 374.6 655.31L374.6 655.31Z" /><path class="shp3" d="M440.27 654.51L433.91 654.51L409.37 617.53L409.37 654.51L403.49 654.51L403.49 607.66L409.82 607.66L434.36 644.63L434.36 607.66L440.27 607.66L440.27 654.51L440.27 654.51Z" /><path class="shp3" d="M471.24 655.31C464.51 655.31 459.05 653.1 454.86 648.69C450.68 644.28 448.58 638.41 448.58 631.08C448.58 623.73 450.65 617.86 454.78 613.46C458.92 609.06 464.34 606.86 471.05 606.86C476.7 606.86 481.39 608.21 485.13 610.93C488.87 613.65 490.96 617.29 491.41 621.85L484.98 621.85C484.73 618.82 483.36 616.45 480.89 614.74C478.42 613.02 475.16 612.16 471.11 612.16C466.28 612.16 462.38 613.81 459.43 617.12C456.48 620.42 455.01 625.07 455.01 631.08C455.01 637.07 456.5 641.72 459.48 645.03C462.46 648.35 466.36 650 471.18 650C477.93 650 482.95 647.78 486.23 643.32L486.23 636.2L473.86 636.2L473.86 630.6L492.24 630.6L492.24 654.51L487.86 654.51L486.23 649.59C483.06 653.4 478.06 655.31 471.24 655.31Z" /><path fill-rule="evenodd" class="shp3" d="M533.15 654.51L527.71 640.25L508.09 640.25L502.91 654.51L496.36 654.51L514.35 607.66L521.03 607.66L540.15 654.51L533.15 654.51ZM525.89 635.33L517.65 613.6L509.79 635.33L525.89 635.33Z" /><path class="shp3" d="M582.11 654.51L575.75 654.51L551.21 617.53L551.21 654.51L545.33 654.51L545.33 607.66L551.65 607.66L576.2 644.63L576.2 607.66L582.11 607.66L582.11 654.51Z" /></g><g ><path class="shp3" d="M430.45 296.18L426.36 289.1L438.27 263.02L428.45 260.28L414.4 268.4L411.29 263.03L451.86 239.59L454.96 244.96L434.84 256.59L466.39 264.75L470.58 272L444.11 264.63L430.45 296.18L430.45 296.18Z" /><path fill-rule="evenodd" class="shp3" d="M452.39 334.14L448.89 328.08L458.51 316.25L448.69 299.26L433.76 301.91L430.48 296.24L480.05 288.37L483.39 294.15L452.39 334.14ZM461.86 312.21L476.55 294.2L453.8 298.26L461.86 312.21Z" /><path class="shp3" d="M469.5 363.75L454.99 338.65L495.56 315.21L498.66 320.57L462.91 341.24L474.31 360.96L469.49 363.75L469.5 363.75Z" /><path fill-rule="evenodd" class="shp3" d="M488.95 397.41L498.57 385.58L488.76 368.59L473.83 371.24L470.55 365.57L520.11 357.7L523.46 363.48L492.46 403.47L488.95 397.41ZM501.93 381.54L516.62 363.53L493.87 367.59L501.93 381.54Z" /><path class="shp3" d="M554.67 417.5L522.08 415.07L504.89 425L501.79 419.63L518.98 409.7L533.14 380.25L536.92 386.78L525.24 409.69L550.89 410.96L554.67 417.5Z" /><path fill-rule="evenodd" class="shp3" d="M532.64 473L542.26 461.17L532.44 444.18L517.51 446.83L514.23 441.15L563.8 433.29L567.14 439.07L536.14 479.06L532.64 473ZM545.61 457.13L560.3 439.12L537.55 443.18L545.61 457.13Z" /><path fill-rule="evenodd" class="shp3" d="M554.49 510.82L564.11 498.98L554.3 481.99L539.37 484.64L536.09 478.97L585.65 471.11L589 476.89L557.99 516.88L554.49 510.82ZM567.46 494.94L582.15 476.93L559.41 481L567.46 494.94Z" /><path class="shp3" d="M578.98 553.2L575.8 547.69L595.53 507.94L563.52 526.44L560.58 521.35L601.14 497.91L604.31 503.39L584.57 543.14L616.59 524.64L619.55 529.75L578.98 553.2L578.98 553.2Z" /></g><g ><path class="shp3" d="M143.07 554.19L138.97 561.27L110.43 563.97L112.95 573.84L127.01 581.96L123.91 587.33L83.34 563.89L86.45 558.52L106.56 570.15L97.88 538.74L102.07 531.49L108.91 558.11L143.07 554.19L143.07 554.19Z" /><path fill-rule="evenodd" class="shp3" d="M165.02 516.21L161.51 522.27L146.45 519.84L136.64 536.83L146.39 548.44L143.11 554.12L111.55 515.1L114.89 509.31L165.02 516.21ZM141.28 518.95L118.34 515.22L133.22 532.9L141.28 518.95Z" /><path fill-rule="evenodd" class="shp3" d="M135.8 473.13C137.72 469.81 139.63 467.21 141.55 465.32C143.46 463.44 145.82 462.44 148.64 462.32C151.45 462.2 154.13 462.87 156.68 464.34C160.77 466.71 163.13 469.8 163.74 473.63C164.36 477.46 163.25 481.83 160.4 486.76L154.5 496.97L170.72 506.34L167.61 511.71L127.05 488.27L135.8 473.13ZM155.62 483.92C157.61 480.48 158.39 477.64 157.94 475.43C157.5 473.22 156.06 471.41 153.63 470C152 469.06 150.33 468.64 148.61 468.72C146.88 468.81 145.5 469.38 144.44 470.43C143.39 471.49 142.19 473.19 140.84 475.53L134.97 485.68L149.69 494.19L155.62 483.92Z" /><path fill-rule="evenodd" class="shp3" d="M205.2 446.67L190.14 444.24L180.32 461.23L190.07 472.85L186.79 478.52L155.23 439.5L158.57 433.72L208.7 440.61L205.2 446.67ZM184.97 443.36L162.03 439.62L176.91 457.3L184.97 443.36Z" /><path class="shp3" d="M189.79 379.7L203.96 409.15L221.15 419.08L218.04 424.45L200.86 414.52L168.27 416.94L172.04 410.41L197.72 409.09L186.02 386.23L189.79 379.7L189.79 379.7Z" /><path fill-rule="evenodd" class="shp3" d="M248.89 371.07L233.83 368.64L224.01 385.63L233.76 397.24L230.49 402.92L198.92 363.9L202.27 358.11L252.39 365.01L248.89 371.07ZM228.66 367.75L205.72 364.02L220.6 381.7L228.66 367.75Z" /><path fill-rule="evenodd" class="shp3" d="M223.17 321.94C225.09 318.62 227.01 316.02 228.92 314.13C230.83 312.25 233.2 311.25 236.01 311.13C238.82 311 241.51 311.68 244.05 313.15C248.15 315.52 250.5 318.61 251.12 322.44C251.74 326.27 250.62 330.64 247.78 335.57L241.88 345.78L258.09 355.15L254.99 360.52L214.42 337.08L223.17 321.94ZM242.99 332.73C244.99 329.28 245.76 326.45 245.32 324.24C244.88 322.03 243.44 320.21 241 318.81C239.38 317.87 237.7 317.44 235.98 317.53C234.26 317.62 232.87 318.19 231.82 319.24C230.77 320.29 229.56 321.99 228.21 324.33L222.34 334.49L237.06 343L242.99 332.73Z" /><path fill-rule="evenodd" class="shp3" d="M292.58 295.47L277.52 293.05L267.7 310.03L277.45 321.65L274.17 327.32L242.61 288.3L245.95 282.52L296.08 289.41L292.58 295.47ZM249.41 288.42L264.29 306.11L272.35 292.16L249.41 288.42Z" /><path fill-rule="evenodd" class="shp3" d="M314.43 257.66L299.37 255.24L289.55 272.23L299.3 283.84L296.02 289.51L264.46 250.49L267.8 244.71L317.93 251.6L314.43 257.66ZM294.2 254.35L271.26 250.62L286.14 268.3L294.2 254.35Z" /><path class="shp3" d="M338.92 215.28L335.74 220.79L291.45 223.53L323.46 242.04L320.52 247.13L279.95 223.69L283.12 218.21L327.42 215.46L295.4 196.96L298.36 191.84L338.92 215.28L338.92 215.28Z" /></g><g ><path class="shp2" d="M355.63 501.8C325.81 501.8 301.71 477.7 301.71 447.88C301.71 418.07 325.81 393.97 355.63 393.97C385.44 393.97 409.54 418.07 409.54 447.88C409.54 477.7 385.44 501.8 355.63 501.8Z" /><g ><g ><g ><path class="shp2" d="M241.81 447.88L248.81 454.88L355.63 447.88L248.81 440.88L241.81 447.88Z" /><path class="shp2" d="M253.79 461.29L259.5 467L355.63 447.88L253.79 461.29Z" /><path class="shp2" d="M253.79 434.48L259.5 428.76L355.63 447.88L253.79 434.48Z" /></g><g ><path class="shp2" d="M275.14 367.4L275.14 377.3L355.63 447.88L285.05 367.4L275.14 367.4Z" /><path class="shp2" d="M274.14 385.35L274.14 393.43L355.63 447.88L274.14 385.35Z" /><path class="shp2" d="M293.1 366.39L301.18 366.39L355.63 447.88L293.1 366.39Z" /></g></g><g ><g ><path class="shp2" d="M355.63 334.06L348.63 341.06L355.63 447.88L362.63 341.06L355.63 334.06Z" /><path class="shp2" d="M342.22 346.04L336.51 351.76L355.63 447.88L342.22 346.04Z" /><path class="shp2" d="M369.03 346.04L374.75 351.76L355.63 447.88L369.03 346.04Z" /></g><g ><path class="shp2" d="M436.11 367.4L426.21 367.4L355.63 447.88L436.11 377.3L436.11 367.4Z" /><path class="shp2" d="M418.16 366.39L410.08 366.39L355.63 447.88L418.16 366.39Z" /><path class="shp2" d="M437.12 385.35L437.12 393.43L355.63 447.88L437.12 385.35Z" /></g></g></g><g ><g ><g ><path class="shp2" d="M469.45 447.88L462.45 440.88L355.63 447.88L462.45 454.88L469.45 447.88Z" /><path class="shp2" d="M457.47 434.48L451.75 428.76L355.63 447.88L457.47 434.48Z" /><path class="shp2" d="M457.47 461.29L451.75 467L355.63 447.88L457.47 461.29Z" /></g><g ><path class="shp2" d="M436.11 528.37L436.11 518.46L355.63 447.88L426.21 528.37L436.11 528.37Z" /><path class="shp2" d="M437.12 510.41L437.12 502.33L355.63 447.88L437.12 510.41Z" /><path class="shp2" d="M418.16 529.37L410.08 529.37L355.63 447.88L418.16 529.37Z" /></g></g><g ><g ><path class="shp2" d="M355.63 561.7L362.63 554.7L355.63 447.88L348.63 554.7L355.63 561.7Z" /><path class="shp2" d="M369.03 549.72L374.75 544.01L355.63 447.88L369.03 549.72Z" /><path class="shp2" d="M342.22 549.72L336.51 544.01L355.63 447.88L342.22 549.72Z" /></g><g ><path class="shp2" d="M275.14 528.37L285.05 528.37L355.63 447.88L275.14 518.46L275.14 528.37Z" /><path class="shp2" d="M293.1 529.37L301.18 529.37L355.63 447.88L293.1 529.37Z" /><path class="shp2" d="M274.14 510.41L274.14 502.33L355.63 447.88L274.14 510.41Z" /></g></g></g></g></svg>