<svg version="1.2" baseProfile="tiny-ps" xmlns="http://www.w3.org/2000/svg" viewBox="0 0 600 600" width="600" height="600"><title></title><style>tspan { white-space:pre }.shp0 { fill: #e34234 } .shp1 { fill: #ffffff } .shp2 { opacity: 0.2;fill: #000000 } .shp3 { fill: #ffcc10 } .shp4 { fill: #cccccc } .shp5 { opacity: 0.4;fill: #000000 } .shp6 { fill: #cc0000 } .shp7 { opacity: 0.125;fill: #000000 } </style><g ><path class="shp0" d="M45 0L45 499.97C45 527.66 67.74 549.96 95.99 549.96L176.55 549.96L248.96 549.96C277.21 549.96 299.95 572.26 299.95 599.96C299.95 572.26 322.69 549.96 350.94 549.96L423.35 549.96L503.91 549.96C532.16 549.96 554.9 527.66 554.9 499.97L554.9 0L45 0Z" /><g ><path class="shp1" d="M301.48 514.96C293.09 506.76 288.79 495.51 285.85 484.48C284.34 478.59 283.23 472.59 282.64 466.54C279.66 472.64 274.72 477.64 269.37 481.83C261.68 487.8 251.77 491.47 241.88 490.34C234.59 489.75 227.15 486.22 223.64 479.69C218.98 471.24 220.67 459.52 228.28 453.25C229.67 452.28 232.9 449.65 231.94 453.04C231.82 457.64 234.78 462.07 239.19 463.7C246.4 466.44 254.93 464.75 261.04 460.28C265.03 457.39 267.63 452.55 267.1 447.63C258.44 452.53 247.67 454.78 238.02 451.44C231.24 449.11 224.9 444.33 222.28 437.61C221.1 433.92 221.68 429.88 222.74 426.22C224.22 421.15 228.77 417.29 234.02 416.29C235.74 415.81 237.66 415.34 237.02 417.76C237.2 422.82 239.46 428.36 244.49 430.48C250.92 433.15 258.31 431.07 264.07 427.77C269.43 424.59 274.55 419.5 274.93 413.04C275.26 411.23 274.5 411.46 273.37 412.54C269.46 415.37 263.8 416.64 259.47 413.95C253.87 410.65 251.16 402.34 255.37 397.01C257.09 393.85 259.07 398.13 261.56 398.09C265.76 398.96 269.18 395.63 271.35 392.54C275.54 386.33 278.04 379.12 279.47 371.84C279.7 370.35 277.41 373.66 276.1 373.72C273.36 374.95 270.13 374.84 267.34 373.84C277.86 363.08 283.16 348.35 284.7 333.73C285.49 326.68 285.51 319.57 285 312.5C276.38 322.96 268.6 334.57 265.19 347.75C264.26 351.67 263.61 355.76 264.28 359.77C262.38 359.34 260.52 355.63 259.41 356.09C257.5 361.93 256.88 368.24 257.92 374.3C252.18 373.65 247.1 370.44 242.71 366.94C241.28 365.69 240.03 363.59 238.52 366.01C230.53 373.62 223.38 382.02 216.24 390.39C209.92 398.05 203.47 405.68 198.28 414.15C197.05 416.28 195.54 419.27 197.49 421.43C199.24 423.22 202.1 423.18 204.25 422.14C207.77 420.9 212.07 421.83 214.26 424.93C216.61 427.5 217.25 431.51 215.22 434.46C213.83 437.2 210.37 438.44 207.97 439.18C207.69 442.89 205.29 446.7 201.37 447.46C197 448.34 192.02 446.98 189.02 443.69C187.69 441.91 191.9 444.73 193.27 443.61C195.49 442.99 198.36 441.59 197.24 439.12C196.79 437.94 193.85 437.23 193.25 435.33C192.04 434.11 192.94 431.41 190.71 432.49C186.39 432.43 182.04 430.62 179.05 427.57C173.87 434.79 168.69 442.02 163.51 449.24C164.41 453.02 165.02 457.82 161.83 460.77C160.72 462.02 158.71 461.43 158.33 462.97C155.36 462.86 156.65 466.4 157.51 468.02C158.05 469.59 160.31 471.15 160.87 471.72C157.38 473.14 152.59 474.02 149.74 470.91C148.52 468.99 147.27 467.01 146.91 464.9C147.72 462.71 143.6 462.07 143.11 459.77C140.91 455.98 141.69 451 144.17 447.52C146.41 444.53 150.28 443.49 153.85 443.02C156.52 439.18 159.86 435.84 163.03 432.41C155.04 432.14 147 434.8 140.67 439.56C141.54 442.39 137.54 443.92 136.4 444.99C135.56 447.48 131.83 447.01 132.24 450.2C131.47 452.3 133.28 455.19 133.52 456.43C128.83 456.9 123.61 454.01 122.39 449.42C122.43 447.6 122.12 445.06 123.3 443.94C120.5 440.66 119.32 435.6 121.95 431.89C124.14 428.57 128.18 426.66 132.18 426.81C137.43 426.37 141.38 421.68 146.75 421.96C150.84 422.67 155.05 422.15 159.03 421.11C156.62 418.85 153.01 418.67 149.87 418.21C146.19 417.84 142.48 417.77 138.78 417.88C136.01 420.13 131.88 419.95 128.66 418.79C127.2 417.51 125.89 418.02 124.33 418.56C122.5 417.2 119.74 416.63 118.48 419.06C117.41 420.36 117 423.39 115.39 420.72C113.22 418.09 114.23 414.01 116.65 411.89C117.38 410.01 119.25 409.57 119.01 407.38C120.04 402.86 124.64 399.93 129.21 399.91C133.08 399.75 137.44 400.24 140.11 403.3C142.09 405.49 144.99 406.64 147.96 406.61C152.57 406.66 157.44 407.1 161.31 409.8C165.21 411.38 169.54 410.07 173.32 408.74C175.41 407.93 177.44 406.93 179.28 405.66C179 405.05 177.16 403.94 178.08 403.71C182.36 402.47 186.07 399.91 189.64 397.36C188.44 396.94 184.24 395.65 187.41 395.37C192.11 393.27 195.58 389.3 198.95 385.59C200.21 384.5 196.9 383.86 196.58 382.43C195.14 380.93 199.28 381.72 200.21 380.84C204.94 379.27 209.03 376.16 212.24 372.45C210.4 372.36 205.92 370.08 209.57 369.17C216.05 364.97 220.15 358.13 223.08 351.24C217.92 352.6 212.18 353.95 207.01 351.91C205.09 351.25 201.43 347.63 205.09 347.01C210.05 344.67 214.54 341.18 217.66 336.71C216.03 336.54 212.95 335.63 212.52 334.7C217.25 331.76 220.59 327.2 223.55 322.64C221.9 322.49 220.25 322.33 218.6 322.18C222.66 319.92 225.59 316.21 228.49 312.73C226.93 313.2 223.72 312.3 223.35 311.4C231.4 306.15 235.87 297.35 239.42 288.84C242.82 280.96 245.3 272.48 250.85 265.71C254.46 261.19 260.36 258.77 266.17 259.16C267.84 259.06 270.85 259.9 271.59 259.71C269.02 257.44 267.63 253.8 268.52 250.46C262.58 255.01 254.43 255.74 247.34 253.81C244.21 253 241.18 251.82 238.38 250.23C241.3 263.27 240.86 277.54 234.3 289.49C231.85 293.98 228.63 298.07 224.72 301.43C223.23 299.66 221.74 297.89 220.25 296.12C219.59 308.17 213.24 319.39 204.64 327.79C204.64 326.34 205.36 323.19 205.4 321.08C206.23 308.83 205.31 296.54 204 284.36C204.14 302.83 197.63 320.71 188.92 336.86C183.48 346.81 177.16 356.33 169.86 365.07C166.69 359.7 165.84 353.41 164.86 347.37C162.81 332.15 162.47 316.76 162.56 301.43C156.8 313.1 150.01 324.74 139.85 333.29C133.57 338.55 125.16 342.29 116.78 340.66C115.06 340.26 111.74 339.5 111.31 338.4C123.36 332.25 131.92 321.19 137.83 309.45C141.04 302.98 143.65 296.2 145.38 289.21C141.94 297.39 135 303.47 127.99 308.74C118.31 315.81 107.66 321.54 96.64 326.33C94.99 305 100.42 283.15 112.32 265.17C116.12 259.43 120.45 253.96 125.6 249.31C109.72 258.51 90.67 262.47 72.37 259.93C66.51 259.11 60.67 257.79 55.2 255.54C67.72 254.98 79.59 250.21 90.57 244.6C98.71 240.34 106.52 235.46 113.83 229.94C101.91 232.74 89.79 235.7 77.43 235.03C70.4 234.72 63.42 233.33 56.85 230.86C62.1 221.24 71.03 214.21 80.21 208.34C87.14 204.01 94.45 200.26 102.05 197.19C91.41 196.32 80.42 194.51 71.24 188.86C67.4 186.37 63.72 183 62.5 178.52C70.03 181.25 78.24 181.21 86.17 181.07C92.43 180.86 98.68 180.31 104.88 179.44C91.15 178.39 77.14 174.11 66.85 164.84C65.98 163.58 61.95 161.37 65.21 160.68C74.32 156.15 84.18 152.32 94.56 152.36C95.88 152.26 98.95 152.38 99.14 151.85C91.04 148.11 82.89 143.57 77.43 136.42C75.52 133.77 73.88 130.65 74.03 127.32C77.92 131.18 83.42 132.81 88.56 134.42C93.91 135.95 99.37 137.09 104.88 137.93C98.78 134.77 94.5 129.19 90.56 123.81C87.77 119.84 85.24 115.69 82.98 111.41C94.82 108.62 107.37 110.18 118.77 114C119.56 114.22 116.54 112.45 115.93 111.81C108.59 106.23 103.2 97.5 103.66 88.19C103.69 86.8 103.78 84.83 104.9 87.06C110.03 92.76 116.78 96.74 123.37 100.61C126.19 102.21 129.04 103.75 131.96 105.18C126.83 100.87 123.75 94.78 120.87 88.91C117.39 81.26 114.31 73.32 112.93 65.02C114.55 64.34 118.12 66.07 120.43 66.68C133.72 71.48 145.7 79.35 156.21 88.58C144.13 77.42 134.29 63.5 129.73 47.75C129.2 46.21 128.62 44.45 131.02 45.48C154.5 48.74 178 55.52 197.67 68.87C211.43 78.15 222.9 90.35 232.72 103.5C240.34 114.1 246.88 126.2 247.61 139.39C248.2 149.02 244.51 159.17 236.6 165.22C233.14 167.81 228.8 170.08 224.32 169.42C223.04 169.99 223.73 173.35 223.51 175.04C223.44 178.96 225.8 182.59 229.26 184.47C235.14 187.81 241.91 189.18 248.47 190.69C249.98 190.72 253.04 192.59 252.31 189.84C252.58 184.13 254.16 178.3 257.69 173.67C253.94 171.98 253.45 167.31 254.53 163.85C256.65 164.41 260.42 164.51 262.73 162.68C269.04 158.82 273.63 152.91 278.14 147.24C279.92 144.93 281.63 142.58 283.35 140.24C282.21 139.76 279.07 139.42 279.27 138.96C284.81 136.73 289.09 132.3 292.62 127.68C297.51 121.11 300.6 112.45 298.03 104.39C296.62 100.05 293.92 95.43 289.09 94.2C282.1 92.36 274.88 94.36 268.06 95.96C263.18 97.06 257.77 98.96 252.94 96.67C248.9 94.73 246.72 90.54 245.44 86.51C249.27 89.67 254.63 91.3 259.5 89.69C265.75 87.84 270.88 83.47 277.23 81.89C275.25 77.16 269.85 75.11 265.01 74.57C259.27 73.89 253.43 74.48 247.8 75.67C247.34 70.66 247.06 65.02 250.24 60.74C253.14 57.05 258.44 57.05 262.68 57.9C265.44 59.43 266 56.26 267.52 54.65C271.46 49.43 277.77 46.12 284.38 45.74C296.98 44.79 308.95 50.32 321.51 50.08C326.25 49.97 331.1 48.39 334.44 45C336.1 48.1 336 51.84 335.56 55.23C335.77 56.6 333.87 58.65 333.86 58.88C336.5 59.09 339.34 59.56 341.86 58.55C343.14 57.2 343.04 61.17 343.24 62.22C343.42 65.76 341.82 69.36 338.92 71.52C343.41 82.37 342.82 94.37 341.73 105.8C341.02 114.59 339.31 123.5 340.87 132.29C340.72 134.32 344.12 137.63 340.45 137.64C338.73 138.62 336.47 135.16 336.97 138.04C336.44 144.81 335.09 152.06 338.02 158.51C339.93 162.85 344.7 165.27 349.36 165.52C352.07 165.31 349.18 169.04 349.03 170.57C347.88 173.35 346.15 176.1 343.39 177.59C345.79 182.04 348.01 186.98 347.63 192.12C355.1 190.64 362.69 189.11 369.63 185.93C373.41 184.18 376.23 180.42 376.2 176.24C376.01 174.38 376.62 170.88 375.37 170.11C370.62 170.79 366.09 168.19 362.55 165.34C354.86 158.98 351.54 148.7 352.4 139.06C353.54 125.61 360.5 113.4 368.46 102.68C379.28 88.55 392 75.49 407.5 66.27C426.6 54.73 448.68 48.83 470.77 45.92C468.38 56.99 462.77 67.18 455.89 76.18C452.24 80.89 448.14 85.27 443.69 89.27C454.9 79.46 467.81 71.19 482.16 66.55C483.86 66.36 488.11 63.82 486.75 67.15C484.86 76.46 481.36 85.41 477.02 93.87C474.59 98.31 471.94 102.83 467.95 106.11C476.59 101.64 485.21 96.83 492.48 90.36C493.75 89.34 495.14 87.4 496 86.69C497.33 96.03 492.55 105.37 485.39 111.35C484.1 112.54 481.67 114.15 480.87 114.79C492.33 110.84 504.99 109.32 516.92 112.1C512.43 120.36 507.34 128.51 500.4 135.02C498.77 136.5 497 137.86 495.02 138.85C503.77 137.32 512.61 135.48 520.66 131.67C522.56 130.7 524.43 129.59 525.87 128.01C525.85 133.3 522.29 137.8 518.61 141.36C513.36 146.29 506.98 149.89 500.44 152.92C505.15 153.38 509.96 152.93 514.61 154.04C522.23 155.6 529.37 158.84 536.23 162.37C530.17 169.52 521.46 174.04 512.57 176.87C506.88 178.64 500.97 179.67 495.02 180.13C506.55 181.64 518.29 182.6 529.88 181.23C532.51 180.87 535.14 180.36 537.64 179.44C535.92 185.11 530.69 188.93 525.54 191.52C516.94 195.68 507.32 197.19 497.85 197.89C510.01 203.01 521.73 209.49 531.66 218.12C536.05 222 540.05 226.41 542.82 231.55C530.05 236.64 515.79 236.95 502.39 234.36C496.89 233.36 491.5 231.93 486.08 230.63C497.51 239.23 510 246.64 523.49 251.71C530.28 254.19 537.42 256.02 544.7 256.23C532.96 260.92 519.95 262.29 507.38 260.99C495.71 259.75 484.38 255.88 474.3 250C483.51 258.5 490.49 269.16 495.49 280.49C501.87 295.09 504.43 311.2 503.26 327.02C490.9 321.61 478.91 315.12 468.39 306.71C462.74 302.05 457.32 296.71 454.52 289.9C457.72 302.35 463.16 314.38 471.18 324.59C475.99 330.64 481.91 335.94 488.9 339.48C481.81 343.53 472.71 342.22 465.91 338.2C456.06 332.47 449.17 323.06 443.44 313.56C441.23 309.84 439.21 306.01 437.34 302.12C437.43 317.8 437.09 333.55 434.9 349.11C433.93 354.8 433.08 360.73 430.04 365.77C419.58 353.13 410.87 339.07 404.41 324.08C399.18 311.73 395.6 298.5 395.66 285.05C394.33 297.7 393.39 310.47 394.53 323.16C394.43 324.68 395.7 328.43 395.06 328.52C386.58 320 380.23 308.85 379.42 296.81C377.92 298.58 376.43 300.35 374.94 302.12C364.75 293.39 359.81 279.92 359.8 266.86C359.74 261.51 360.39 256.16 361.52 250.93C354.07 255.14 344.67 257.3 336.37 254.21C334.61 253.72 332.27 252.01 331.22 251.6C332.17 254.89 330.67 258.45 328.09 260.61C334.17 259.21 341.16 259.59 346.13 263.69C352.21 268.7 355.01 276.23 357.93 283.23C361.7 292.47 365.27 302.32 372.79 309.37C373.88 310.54 375.88 311.67 376.67 312.56C375.32 313.52 372.04 313.51 371.67 313.98C374.55 317.38 377.49 320.99 381.53 323.1C379.81 323.26 378.08 323.41 376.35 323.56C379.37 328.21 382.78 332.87 387.66 335.79C386.22 336.85 383.13 337.22 382.45 337.95C385.97 342.77 391.01 346.47 396.6 348.7C395.7 352.47 391.28 353.86 387.76 353.86C384.05 353.94 380.38 353.16 376.83 352.16C379.75 359.05 383.85 365.89 390.33 370.1C392.29 370.69 392.16 371.59 390.45 372.44C389.57 373.45 386.45 372.94 388.59 374.4C392.67 378.55 397.94 381.98 403.9 382.6C403.35 384.12 400.52 385.33 400.74 386.27C404.1 390.02 407.58 393.96 412.22 396.19C413.47 396.59 414.66 396.65 412.8 397.32C411.7 398.07 409.18 398.14 411.47 399.16C414.82 401.42 418.27 403.77 422.27 404.74C421.92 405.39 420.5 406.17 420.85 406.74C425.27 409.55 430.47 411.53 435.8 411.43C438.82 411.45 440.92 408.96 443.8 408.41C448.11 407.05 452.94 408.36 457.07 406.36C459.85 404.86 461.6 401.73 464.97 401.26C469.69 400.36 475.39 400.49 478.85 404.24C480.91 405.8 480.76 409.05 481.63 410.67C483.22 412.42 484.93 414.34 485.55 416.73C486.34 418.86 485.07 422.43 483.13 422.68C482.18 420.81 480.79 417.81 478.17 418.47C476.53 420.22 474.56 419.04 472.89 418.8C469.78 420.85 465.35 421.19 462.05 419.39C460.23 418.07 457.52 419 455.34 418.74C450.81 418.97 445.96 418.96 441.88 421.15C439.4 422.71 444.43 422.44 445.6 422.87C448.77 423.46 451.96 422.79 455.12 422.96C460.02 423.96 463.96 428.01 469.19 427.8C474.82 428.03 480.39 433.11 479.44 438.89C479.57 441.19 476.84 443.59 477.1 445.15C478.02 447.35 478.08 450.19 476.82 452.3C474.58 455.75 470.23 457.88 466.06 457.31C468.09 454.81 468.36 451.19 467 448.32C465.01 448.42 463.6 446.17 463.14 445.17C460.49 445.05 459.18 441.96 459.04 440.15C452.65 435.65 444.76 433.07 436.87 433.33C440.09 436.79 443.44 440.17 446.28 443.94C450.46 444.39 455.1 446.06 456.86 450.13C458.8 454.26 458.56 459.67 455 462.91C453.92 464.09 451.92 464.46 453.04 466.32C451.84 468.39 451.46 471.23 449.24 472.82C446.12 474.88 442.12 473.67 438.98 472.3C441.58 471.24 443.08 468.38 443.39 465.73C444.08 463.63 440.88 464.37 440.83 462.87C437.26 462.54 435.58 458.68 435.68 455.55C435.17 453.49 437.12 451.09 435.82 449.36C430.83 442.4 425.84 435.45 420.85 428.49C417.78 431.6 413.27 433.49 408.84 433.39C406.89 432.46 407.86 436.02 406.22 436.95C405.32 438.98 401.62 438.5 402.79 440.98C402.25 443.22 405.98 444.5 407.95 444.69C409.43 445.05 412.71 442.68 410.5 445.06C407.03 448.29 401.49 449.65 396.99 447.8C393.73 446.4 392.16 442.86 391.89 439.56C386.61 439.38 381.87 433.68 383.95 428.63C385.5 424.77 389.67 421.8 394.01 422.6C396.37 422.85 398.74 424.42 401.09 423.23C403.52 422.35 403.84 419.31 402.75 417.3C399.83 411.32 395.52 406.14 391.5 400.85C382.66 389.76 373.47 378.91 363.45 368.82C361.85 367.69 359.86 364.01 358.26 366.92C353.94 370.7 348.86 374.03 343.09 375.12C341.29 375.07 343.16 371.31 342.6 369.69C342.55 365.22 341.8 360.77 340.33 356.54C339 357.78 337.12 360.09 335.9 360.49C336.71 353.15 334.35 345.86 331.5 339.16C327.35 329.81 321.45 321.31 314.9 313.42C313.71 330.15 315.43 347.66 323.63 362.65C326.05 367.04 329.05 371.14 332.56 374.76C328.53 376.32 323.34 375.71 320.55 372.22C321.78 379.23 324.22 386.1 327.97 392.2C330.08 395.41 333.06 399.04 337.35 398.93C339.72 399.27 341.67 396.48 343.37 396.55C347.93 400.31 347.22 407.44 343.77 411.68C340.94 415.61 335.42 417.19 330.86 415.43C328.77 415.06 326.18 412.52 324.99 412.52C324.63 418.79 329.28 424.09 334.25 427.44C340.03 431.23 347.47 433.75 354.36 431.69C359.33 430.23 362.3 425.31 362.74 420.46C363.07 418.63 362.19 415.72 365.04 417C370.7 417.77 375.93 421.63 377.58 427.09C379.19 431.87 378.66 437.34 375.76 441.56C370.29 450.2 359.52 455.05 349.25 453.88C343.51 453.34 338.02 451.31 333.03 448.55C332.3 454.33 336.07 459.78 341.07 462.52C347.22 465.99 355.22 467.19 361.76 464.1C365.98 462.14 368.32 457.48 367.95 453.01C367.71 450.89 370.91 453.79 371.92 454.42C380.9 462.16 381.27 477.64 372.31 485.54C366.01 491.08 356.9 492.21 348.81 491C337.21 489.01 327.29 481.5 320.35 472.44C319.23 471.29 317.73 468.05 317.26 467.82C316.99 480.13 314.9 492.63 309.46 503.81C307.4 507.9 304.8 511.76 301.48 514.96L301.48 514.96Z" /><g ><path class="shp2" d="M130.31 184.51C142.63 183.82 154.95 183.13 167.27 182.44C167.47 185.71 164.03 184.29 161.82 184.61C151.32 184.63 140.81 184.57 130.31 184.51L130.31 184.51Z" /><path class="shp2" d="M180.93 218.87C172.45 224.91 164.85 233.23 162.79 243.59C161.8 248.55 162.15 253.79 163.98 258.53C165.23 257.31 166.49 256.08 167.74 254.85C166.7 244.99 170.66 235.22 176.88 227.61C178.77 225.25 180.85 223.03 183.05 220.95C182.45 220.15 181.66 219.54 180.93 218.87L180.93 218.87Z" /><path class="shp2" d="M169.16 252.77C177.55 244.39 185.95 236.01 194.35 227.63C192.63 226.87 191.47 226.45 190.5 228.34C183.34 236.45 176.25 244.62 169.16 252.77Z" /><path class="shp2" d="M162.56 301.43C162.47 317.08 162.81 332.8 165 348.32C165.97 354.04 166.84 359.99 169.86 365.07C170.41 362.46 170.96 359.85 171.51 357.23C169.66 344.01 169.22 330.64 169.13 317.3C169.22 300.98 169.93 284.49 173.82 268.54C174.92 264.24 176.3 259.98 178.34 256C175.76 256.8 173.16 257.54 170.57 258.3C165.95 272.25 162.98 286.74 162.56 301.43Z" /><path class="shp2" d="M145.38 289.21C141.94 297.39 135 303.47 127.99 308.74C118.31 315.81 107.66 321.54 96.64 326.33C97.66 324.41 98.68 322.49 99.7 320.57C120.79 306.14 139.48 287.88 152.3 265.91C156.29 259.12 159.72 252.02 162.56 244.7C162.84 247.84 162.85 251.01 162.56 254.15C159.19 261.81 154.83 268.99 151.32 276.59C149.3 280.77 147.33 284.99 145.38 289.21Z" /><path class="shp2" d="M113.83 229.94C101.91 232.74 89.79 235.7 77.43 235.03C70.4 234.72 63.42 233.33 56.85 230.86C58.49 230.25 60.14 229.63 61.79 229.02C72.24 230.97 83.03 230.96 93.56 229.66C109.55 227.64 125.41 221.4 136.8 209.96C140.26 206.53 143.29 202.69 145.85 198.58C148.66 198.83 151.5 198.77 154.32 198.81C146.69 202.06 140.34 208.14 137.16 215.7C136.64 218.18 134.03 219.09 132.16 220.48C126.38 224.19 120.29 227.51 113.83 229.94L113.83 229.94Z" /><path class="shp2" d="M102.05 197.19C91.41 196.32 80.42 194.51 71.24 188.86C67.4 186.37 63.72 183 62.5 178.52C71.17 184.32 81.63 186.78 91.85 188.49C104.01 190.36 116.36 190.92 128.66 190.51C131.09 191.97 133.53 193.43 135.96 194.89C131.15 195.42 126.32 194.51 121.5 194.9C114.97 195.17 108.48 196.09 102.05 197.19L102.05 197.19Z" /><path class="shp2" d="M175.75 107.95C161.51 96.07 148.49 82.56 138.48 67.02C134.5 60.53 130.55 53.64 129.63 46C129.79 45.48 131.06 46.91 131.68 47.2C133.11 48.23 134.53 49.27 135.96 50.3C140.64 63.27 147.79 75.29 156.1 86.34C161.96 94.04 168.54 101.21 175.75 107.72L175.75 107.86L175.75 107.95Z" /><path class="shp2" d="M148.2 117.87C133.51 105.44 122.41 88.8 117.59 70.32C117.33 68.88 115.89 68.06 115.05 66.93C114.4 66.23 113.76 65.53 113.12 64.83C113.82 71.92 116.48 78.65 119.2 85.2C122.24 91.91 125.53 98.75 130.76 104.13C133.88 107.1 136.64 110.45 139.76 113.46C142.52 116.21 145.23 119.03 148.2 121.56C148.23 120.33 147.95 119.08 148.2 117.87Z" /><path class="shp2" d="M131.01 148.31C117.88 145.89 104.95 140.32 95.81 130.53C90.42 124.94 86.6 118.17 82.98 111.41C84.39 112.03 85.81 112.64 87.22 113.26C94.63 126.71 106.79 137.67 121.33 143.33C125.22 144.87 129.26 146.07 133.37 146.92C132.58 147.38 131.8 147.85 131.01 148.31L131.01 148.31Z" /><path class="shp2" d="M195.06 104.26C176.06 87.04 157.07 69.83 138.08 52.61C151.92 66.48 165.7 80.43 180.12 93.73C181.99 95.46 183.88 97.19 186.24 98.26C189.3 100.07 192.49 101.79 195.06 104.26L195.06 104.26Z" /><path class="shp2" d="M210.13 164.22C216.17 165.21 223.16 164.49 227.54 159.84C232.09 154.96 233.24 148 233.15 141.61C232.68 129.44 227.07 118.14 220.55 108.01C211.77 94.63 200.76 82.82 189.17 71.75C198.96 78.4 207.91 86.29 215.17 95.57C221.39 103.46 226.93 111.87 231.79 120.62C236.75 130.26 239.14 141.77 235.68 152.27C233.5 159.11 227.81 165 220.52 166.52C217.2 167.29 213.72 167.28 210.36 166.76C210.35 165.91 210.24 165.06 210.13 164.22L210.13 164.22Z" /><path class="shp2" d="M180.22 96.42C176.87 101.57 175.15 107.77 175.3 113.87C175.39 119.72 178.56 125.47 183.8 128.41C184.63 128.91 187.12 130.29 185.18 128.85C180.47 124.9 177.5 118.82 178.22 112.68C178.59 108.16 180.49 103.97 182.34 99.88C181.64 98.73 180.93 97.57 180.22 96.42L180.22 96.42Z" /><path class="shp2" d="M183.05 101.73C187.05 107.41 191.05 113.1 195.06 118.79C193.14 120.13 192.27 119.31 191.56 117.31C188.7 112.13 185.88 106.92 183.05 101.73Z" /><path class="shp2" d="M70.5 162.83C77.84 168.17 86.71 170.93 95.38 173.41C107.32 176.6 119.59 178.75 131.96 179.44C129.76 180.34 128.03 182.61 125.46 181.85C116.75 181.3 108.14 179.81 99.49 178.82C86.97 176.97 74.41 172.3 65.37 163.37C64.34 162.39 62.9 160.94 65.08 161.74C66.89 162.1 68.7 162.47 70.5 162.83Z" /><path class="shp2" d="M99.46 152C91.24 148.23 82.96 143.66 77.43 136.42C75.52 133.77 73.88 130.65 74.03 127.32C79.31 136.13 87.94 142.72 97.66 146.23C108.56 150.29 120.38 151.31 131.96 151.07C132.5 152.3 133.05 153.53 133.6 154.76C122.32 152.99 110.89 152.03 99.46 152Z" /><path class="shp2" d="M168.92 147.62C160.98 145.62 154.1 139.98 150.91 132.57C148.72 127.55 147.57 121.92 148.44 116.48C149.54 117.18 150.63 117.87 151.73 118.56C151.89 126.77 154.4 135.6 160.98 141.1C162.9 142.67 165.13 143.86 167.51 144.62C167.99 145.61 168.56 146.57 168.92 147.62Z" /><path class="shp2" d="M152.91 119.48C158.64 123.56 164.37 127.63 170.1 131.7C168.9 133.48 168.12 133.41 166.75 131.71C162.11 127.67 157.51 123.57 152.91 119.48L152.91 119.48Z" /><path class="shp2" d="M183.52 128.71C162.41 109.8 141.29 90.89 120.18 71.98C127.1 77.07 133.54 82.75 140.14 88.23C151.86 98.21 163.67 108.1 174.93 118.58C177.59 121.06 178.65 124.74 181.42 127.15C182.06 127.73 182.71 128.35 183.52 128.71L183.52 128.71Z" /><path class="shp2" d="M164.68 173.44C156.07 174.31 147.24 171.11 141.19 165.07C136.61 160.52 132.94 154.86 131.52 148.59C131.75 148.04 133.25 148.87 134.01 148.89C135.82 148.79 135.97 150.58 136.67 151.84C140.73 159.8 147.72 167.11 156.9 169.03C158.86 169.95 161.98 168.59 163.09 170.46C163.63 171.44 164.33 172.37 164.68 173.44L164.68 173.44Z" /><path class="shp2" d="M137.61 150.15C146.32 152.53 155.03 154.92 163.74 157.3C163.29 159.24 162.29 159.67 160.56 158.61C152.89 155.83 145.25 152.99 137.61 150.15Z" /><path class="shp2" d="M166.8 196.5C156.97 200.28 145.54 199.8 136.16 194.98C131.3 192.48 126.66 189.19 123.48 184.74C125.05 184.59 126.62 184.43 128.19 184.28C134.82 190.31 143.24 194.56 152.17 196.1C156.87 196.86 161.75 196.69 166.33 195.35C166.22 195.84 166.59 196.14 166.8 196.5Z" /><path class="shp2" d="M166.33 195.35C156.07 196.98 146.06 202.06 140.11 210.61C136.14 216.26 133.64 223.04 133.6 229.94C135.17 229.17 136.74 228.4 138.31 227.63C141.22 216.98 147.52 206.62 157.63 201.2C160.64 199.56 163.91 198.38 167.27 197.66C167.04 196.86 166.81 196.04 166.33 195.35L166.33 195.35Z" /><path class="shp2" d="M141.14 226.94C153.22 220.64 165.31 214.34 177.4 208.03C175.06 207.51 173.25 204.8 171.28 207.26C161.19 213.75 151.17 220.36 141.14 226.94L141.14 226.94Z" /><path class="shp2" d="M153.85 137.93C152.96 136.41 152.29 134.74 151.26 133.32C145.52 128.72 139.25 124.79 133.38 120.33C124.5 113.63 115.57 106.67 108.83 97.8C106.29 94.28 103.94 90.25 103.94 85.81C102.44 94.72 106.81 103.73 113.43 109.69C115.9 111.95 118.59 114.02 121.7 115.34C131.11 120.57 140.07 126.58 148.52 133.19C150.38 134.68 152.2 136.22 153.85 137.93Z" /><path class="shp2" d="M162.33 145.08C158.61 142.47 155.17 139.42 150.91 137.66C137.39 131.41 123.33 126.35 109.35 121.18C103.48 119.04 97.59 116.93 91.69 114.87C111.09 123.33 130.51 131.77 149.61 140.85C151.87 141.66 153.78 143.5 156.15 143.81C158.24 144.02 160.46 144.05 162.33 145.08L162.33 145.08Z" /><path class="shp2" d="M73.09 161.91C96.81 164.55 120.68 165.66 144.38 168.44C147.14 168.92 149.34 171.08 152.09 171.81C154.17 172.6 156.34 173.21 158.56 173.44C156.25 172.37 153.61 174.48 151.24 173.59C126.03 168.36 100.56 164.15 74.87 162.05C74.28 162 73.69 161.96 73.09 161.91L73.09 161.91Z" /><path class="shp2" d="M202.12 236.86C196.46 244.9 195.35 255.41 198.12 264.68C199.7 269.88 201.99 275.11 205.89 279.06C206.36 277.6 206.83 276.14 207.3 274.68C201.63 266 198.47 255.02 201.5 244.87C201.89 242.59 203.77 240.15 203.95 238.27C203.32 237.83 202.81 237.22 202.12 236.86L202.12 236.86Z" /><path class="shp2" d="M205.89 279.06C207.71 278.45 210.62 276.47 210.39 279.74C212.16 289.44 211.08 299.38 209.56 309.04C208.39 315.45 207.11 321.94 204.47 327.95C206.3 318.14 205.77 308.1 205.24 298.2C204.97 293.54 204.44 288.86 204.05 284.23C204.66 282.51 205.28 280.78 205.89 279.06Z" /><path class="shp2" d="M207.77 271.91C210.67 261.07 213.58 250.23 216.48 239.39C213.13 239.1 213.73 242.49 213.04 244.77C211.22 253.8 209.5 262.86 207.77 271.91Z" /><path class="shp2" d="M224.72 301.2C222.73 298.8 220.4 296.65 218.75 294C215.7 288.19 213.67 281.71 213.66 275.14C214.44 274.22 215.23 273.29 216.01 272.37C217.06 279.99 218.25 287.95 222.53 294.57C223.24 296.08 225.49 296.82 224.87 298.68C224.82 299.52 224.77 300.36 224.72 301.2L224.72 301.2Z" /><path class="shp2" d="M228.73 243.08C229.67 243.39 230.61 243.7 231.55 244.01C229.37 261.19 227.7 278.44 225.9 295.66C226.84 278.14 227.78 260.61 228.73 243.08Z" /><path class="shp2" d="M72.15 256C78.66 254.36 84.66 251.26 90.66 248.37C102.24 242.48 113.62 236.06 123.86 228.1C126.56 226 129.05 223.59 131.25 221.02C132.98 219.84 134.7 218.66 136.43 217.49C134.55 220.93 133.44 224.87 133.6 228.79C123.82 237.42 112.33 244.12 100.18 249.06C91.23 252.64 81.79 255.11 72.15 256L72.15 256Z" /><path class="shp2" d="M149.85 230.86C137.87 247.26 126.19 263.92 115.98 281.45C112.5 287.72 108.82 294.04 107.08 301.02C107.28 301.42 108.93 298.4 109.66 297.55C123.01 278.39 136.43 259.25 150.99 240.94C154.64 236.56 158.13 231.95 162.62 228.34C163.5 227.72 164.46 227.48 162.94 227.97C158.75 229.19 154.55 230.71 150.16 230.89L149.85 230.86L149.85 230.86Z" /><path class="shp2" d="M121.12 336.71C129.02 330.52 136.16 323.27 141.28 314.68C149.36 301.34 154.61 286.6 159.71 271.98C161.18 267.66 162.59 263.34 163.98 259C166.17 258.77 168.37 258.53 170.57 258.3C166.68 277.26 160.35 296.07 149.3 312.25C142.21 322.53 132.8 331.59 121.12 336.71Z" /><path class="shp2" d="M187.29 251.16C187.22 271.55 186.36 292 183.51 312.22C182.2 320.67 180.69 329.2 177.4 337.17C184.07 318.53 189.01 299.25 191.74 279.67C193.13 269.23 193.83 258.67 193.17 248.16C191.21 249.16 189.25 250.16 187.29 251.16L187.29 251.16Z" /><path class="shp2" d="M91.69 217.95C104.9 212.78 118.12 207.52 130.62 200.84C132.98 199.49 135.4 198.15 137.37 196.27C139.02 196.58 140.67 196.89 142.32 197.19C135.38 203.48 126.41 206.97 117.71 210.21C109.19 213.26 100.47 215.72 91.69 217.95L91.69 217.95Z" /><path class="shp2" d="M305.25 406.12C303.73 410.07 302.16 414.15 299.36 417.42C298.18 415.88 297.01 414.35 295.83 412.81C296.85 417.18 298.78 421.33 299.52 425.78C301.1 433.57 301.29 441.56 301.01 449.47C302.42 435.02 303.84 420.57 305.25 406.12L305.25 406.12Z" /><path class="shp2" d="M274.4 60.45C274.62 57.11 276.43 53.43 280.08 52.72C285.41 51.59 290.87 52.9 296.21 53.44C307.37 54.97 318.75 55.63 329.97 54.22C331.72 53.49 334.66 53.24 335.4 51.9C335.48 54.29 335.25 57 333.5 58.83C321.15 59.12 309.04 56.35 296.86 54.76C290.93 54.09 284.81 53.05 278.92 54.44C276.26 54.99 274 57.34 274.38 60.11L274.4 60.45Z" /><path class="shp2" d="M279.82 61.37C279.95 58.54 281.76 55.47 284.93 55.27C290.09 54.86 295.02 56.98 299.86 58.43C311.8 62.49 324.21 66.58 337.03 65.75C338.68 64.83 341.71 64.71 342.47 63.43C342.53 65.72 342.45 68.33 340.8 70.13C328.93 71 317.35 67.39 306.3 63.58C299.45 61.3 292.8 58.28 285.65 57.01C283.16 56.42 279.56 57.28 279.79 60.41C279.78 60.73 279.79 61.05 279.82 61.37L279.82 61.37Z" /><path class="shp2" d="M285.23 57.45C283.53 61.28 285.99 65.56 289.3 67.69C290.84 68.82 293.41 70.09 294.76 70.5C291.86 68.16 288.65 65.6 287.54 61.94C286.48 60.52 289.2 58.66 288.58 58.27C287.47 58 286.35 57.72 285.23 57.45Z" /><path class="shp2" d="M334.91 73.82C339.36 84.08 338.86 95.54 338.13 106.43C337.7 113.89 336.37 121.37 337.06 128.86C337.01 130.21 338.25 132.54 338.16 132.97C336.23 131.31 336.3 128.46 335.92 126.15C334.78 111.8 336.18 97.3 333.89 83.03C333.2 79.34 332.39 75.45 329.97 72.44C331.62 72.9 333.27 73.36 334.91 73.82L334.91 73.82Z" /><path class="shp2" d="M334.44 136.08C333.25 143.52 331.26 151.36 333.72 158.76C335.27 163.67 339.84 167.17 344.87 168.27C345.26 168.49 342.15 168.13 341.2 167.89C336.28 167.06 331.95 163.56 330.5 158.84C328.1 151.34 329.84 143.4 331.36 135.91C331.64 134.25 331.66 132.18 332.97 134.38C333.46 134.95 333.95 135.52 334.44 136.08L334.44 136.08Z" /><path class="shp2" d="M301.01 100.8C304.17 111.95 301.14 125.06 292.05 132.79C289.87 134.67 287.39 136.23 284.76 137.47C291.36 135.39 298.38 132.49 302.13 126.43C306.38 119.5 306.16 110.99 305.32 103.22C305.3 102.17 303.76 102.21 303.01 101.67C302.34 101.38 301.68 101.09 301.01 100.8L301.01 100.8Z" /><path class="shp2" d="M286.88 140.7C281.01 149.03 275.49 157.9 267.38 164.36C264.63 166.44 261.29 168.33 257.69 167.91C262.12 169.67 266.87 167.32 270.51 164.86C279 158.81 284.99 150.06 290.12 141.22C290.84 140.22 288.65 140.89 287.97 140.7C287.61 140.7 287.24 140.7 286.88 140.7L286.88 140.7Z" /><path class="shp2" d="M264.51 170.68C269.36 170.26 273.68 167.62 277.64 165.04C282.78 161.44 287.43 156.83 289.94 151.07C287.3 160.87 286.51 171.33 288.77 181.28C286.14 176.75 283.53 171.89 283.26 166.58C282.85 165.45 284.8 161.9 283.32 164.46C279.17 170.26 271.3 171.87 264.51 170.68L264.51 170.68Z" /><path class="shp2" d="M288.77 181.28C293.51 179.36 297.14 175.54 300.39 171.76C304.22 167.05 307.34 161.52 308.07 155.46C308.44 165.59 310.71 175.86 315.84 184.74C312 182.59 307.88 180.04 305.95 175.96C304.96 174.86 306.32 170.97 304.98 173.86C301.22 178.72 294.63 180.39 288.77 181.28L288.77 181.28Z" /><path class="shp2" d="M321.02 79.36C326.48 88.96 329.28 100.34 327.06 111.26C324.79 123.3 317.5 133.54 310.69 143.51C306.9 149.31 302.61 155.3 301.98 162.36C301.8 163.08 301.53 159.9 301.69 159.04C302.45 152.11 306.12 145.97 309.26 139.86C315.84 127.7 322.78 115.16 324.17 101.22C324.93 93.82 323.88 86.25 321.02 79.36Z" /><path class="shp2" d="M312.08 117.64C312.89 124.08 308.87 129.67 305.74 134.97C302.16 140.8 299.08 147.07 297.95 153.84C296.51 148.38 298.36 142.69 301.34 138.04C305.4 131.51 310.57 125.35 312.08 117.64Z" /><path class="shp2" d="M315.84 184.74C320.95 180.62 322.78 173.96 323.94 167.85C324.55 164.36 324.87 160.83 325.03 157.3C326.45 163.62 328.75 170.15 333.57 174.78C336.18 177.3 340.02 178.55 343.63 177.82C338.62 178.68 332.54 178.46 328.94 174.45C327.73 173.45 326.51 169.47 326.76 169.69C327.62 175.38 323.42 180.43 318.7 183.19C317.78 183.76 316.82 184.27 315.84 184.74L315.84 184.74Z" /><path class="shp2" d="M299.6 154.99C300.91 153.28 298.44 156.6 298.53 157.37C296.38 163.08 294.27 168.82 292.83 174.74C292.57 175.74 292.13 172.34 292.14 171.54C291.81 165.24 295.05 159.27 299.6 154.99L299.6 154.99Z" /><path class="shp2" d="M317.73 155.46C319.56 159.71 318.77 164.51 318.11 168.94C317.57 171.87 316.9 174.8 315.84 177.59C316.03 170.2 316.39 162.75 317.73 155.46Z" /><path class="shp2" d="M278.17 177.82C278.58 180.66 276.63 183.2 275.05 185.39C271.14 190.34 265.74 193.93 260.18 196.84C258.72 198.5 257.26 200.15 255.8 201.81C263.69 196.94 272.83 193.42 278.82 186.12C281.73 182.59 283.29 177.98 282.88 173.44C281.31 174.9 279.74 176.36 278.17 177.82L278.17 177.82Z" /><path class="shp2" d="M273.7 175.52C269.25 179.06 265.57 183.51 262.59 188.29C261.83 189 261.17 192.67 261.57 189.92C262.18 185.61 263.28 180.7 267.09 177.98C269.24 177.05 271.51 176.36 273.7 175.52L273.7 175.52Z" /><path class="shp2" d="M336.8 208.49C341.78 206.52 344.62 201.54 346.45 196.85C347.15 195.43 347.63 192.2 347.93 191.75C349.19 197.88 346.08 204.13 341.29 208C339.77 209.21 337.17 211.32 335.94 211.45C336.22 210.47 336.51 209.48 336.8 208.49L336.8 208.49Z" /><path class="shp2" d="M339.62 198.35C337.79 196.45 338.28 193.56 337.73 191.17C337.19 186.64 334.76 182.25 330.68 179.9C333.07 181.09 335.71 182.14 338.45 181.97C340.31 186.16 340.89 190.89 339.67 195.34C339.48 196.32 339.35 197.36 339.62 198.35Z" /><path class="shp2" d="M311.61 208.96C315.43 207.23 317.56 203.33 319.49 199.87C322.51 193.78 324.56 186.96 323.85 180.13C326.6 187.31 324.88 195.5 320.65 201.78C317.98 205.86 314.45 209.38 310.43 212.18C310.82 211.11 311.21 210.03 311.61 208.96L311.61 208.96Z" /><path class="shp2" d="M314.9 200.88C312.29 199.31 312.83 196.12 312.79 193.58C312.56 189.06 310.08 185.04 307.37 181.51C309.59 183.49 311.81 185.46 313.96 187.51C315.28 190.71 316.23 194.46 314.62 197.75C314.12 198.77 314.19 199.97 314.9 200.88Z" /><path class="shp2" d="M285.47 199.73C287.72 198.31 287.87 195.34 288.78 193.09C290.18 188.28 293.18 183.52 298.18 181.74C295.38 182.59 292.6 183.52 289.94 184.74C287.49 188.31 285.83 192.51 286.15 196.87C286.13 197.85 285.96 198.86 285.47 199.73Z" /><path class="shp2" d="M302.19 184.74C301.36 190.68 298.82 196.51 294.25 200.6C294.15 200.84 296.69 198.87 297.55 198.16C299.11 197.24 301.71 194.03 301.68 193.73C301.92 197.76 305.51 200.58 308.78 202.5C304.52 197.68 301.26 191.27 302.19 184.74Z" /><path class="shp2" d="M278.64 199.96C279.39 205.91 275.92 211.42 271.87 215.56C268.72 219.13 264.49 222.06 262.66 226.57C262.31 228.73 262.27 226.21 262.1 225.4C261.96 224.38 261.83 223.35 261.69 222.33C266.88 216.84 272.94 211.26 274.31 203.54C275.05 199.56 274.41 195.43 272.99 191.66C274.72 190.12 276.44 188.59 278.17 187.05C276.53 190.53 276.01 194.65 277.74 198.2C278.01 198.8 278.31 199.39 278.64 199.96L278.64 199.96Z" /><path class="shp2" d="M322.67 217.72C317.42 221.97 309.65 222.04 303.6 219.47C301.41 218.89 299.73 215.8 297.8 218.3C291.89 221.59 284.28 221.74 278.14 218.94C276.06 217.93 274.18 216.37 273.23 214.26C275.53 218.67 281.15 219.91 285.81 219.72C290.34 219.52 294.94 218.1 298.42 215.18C304.21 220 313.19 220.74 319.79 217.1C320.96 215.7 321.76 216.4 322.57 217.6L322.66 217.71L322.67 217.72L322.67 217.72Z" /><path class="shp2" d="M333.5 228.56C330.19 230.67 326.01 230.77 322.17 230.83C318.18 230.66 313.7 230.22 310.66 227.4C305.77 231.1 298.98 231.47 293.17 230.03C290.77 229.73 288.45 227.65 286.58 227.2C281.2 231.35 273.51 232.02 267.17 229.8C265.83 229.5 262.86 227.43 262.91 227.12C268.68 230.48 276.22 230.22 282.15 227.37C284.01 226.42 285.39 224.46 287.11 226.67C292.88 229.91 300.31 230.12 306.36 227.47C308.01 226.65 309.15 225.09 310.55 227.06C315.27 229.69 321.03 229.68 326.28 229.03C328.41 229.06 330.84 227.41 332.37 227.26C332.75 227.69 333.12 228.13 333.5 228.56L333.5 228.56Z" /><path class="shp2" d="M334.44 231.09C334.57 229.88 334.58 228.65 334.97 227.5C334.79 224.65 331.96 223.01 330.16 221.09C325.62 217.1 321.9 211.77 321.43 205.67C321.12 204.18 321.56 201.27 321.33 200.66C320.29 202.19 319.24 203.73 318.2 205.27C317.46 210.78 320.54 216 324.5 219.69C327.74 223.11 332.16 225.69 334.15 230.07C334.28 230.4 334.38 230.74 334.44 231.09L334.44 231.09Z" /><path class="shp2" d="M336.8 227.86C337.94 233.41 337.91 239.32 335.61 244.59C334.59 247.09 333.21 249.43 331.62 251.62C331.85 249.93 332.09 248.23 332.32 246.54C335.31 241.93 335.84 236.12 334.68 230.86C335.39 229.86 336.09 228.86 336.8 227.86L336.8 227.86Z" /><path class="shp2" d="M260.28 225.33C258.9 233.55 261.56 242.02 266.55 248.66C267.34 249.62 268.95 252.35 268.44 249.75C268.39 248.76 268.34 247.77 268.28 246.77C263.16 241.83 261.24 234.23 262.63 227.4C261.85 226.71 261.06 226.02 260.28 225.33L260.28 225.33Z" /><path class="shp2" d="M340.09 208.72C341.06 213.67 340.92 218.9 338.87 223.58C337.75 226.33 336.2 228.91 334.44 231.32C336.33 223.79 338.21 216.26 340.09 208.72L340.09 208.72Z" /><path class="shp2" d="M279.35 185.43C281.23 182.74 283.97 180.74 286.88 179.21C284.37 181.28 281.86 183.36 279.35 185.43Z" /><path class="shp2" d="M331.62 251.39C330.64 247.24 326.55 244.98 323.47 242.42C319.61 239.52 315.81 235.54 315.84 230.46C315.83 229.41 316.88 231.57 317.36 232C322.11 238.46 326.86 244.92 331.62 251.39L331.62 251.39Z" /><path class="shp2" d="M268.52 250.93C269.55 245.82 274.64 243.15 277.61 239.23C279.74 236.63 280.89 233.28 280.76 229.94C276.68 236.94 272.6 243.93 268.52 250.93Z" /><path class="shp2" d="M276.29 240.32C281.94 243.61 289.25 243.07 295.03 240.39C296.98 239.57 298.48 237.25 300.26 239.53C305.6 242.51 312.41 243.03 318.12 240.77C319.42 239.84 320.46 239.39 321.5 240.82C321.11 242 318.34 242.68 316.84 243.16C311.01 244.55 304.25 243.81 299.6 239.86C294.37 244.33 286.56 245.44 280.06 243.31C279 242.69 275.59 241.87 276.29 240.32L276.29 240.32Z" /><path class="shp2" d="M331.62 252.77C326.57 254.79 319.88 255.09 315.74 251.09C313.84 251.17 311.07 253.61 308.5 253.77C301.47 255.38 293.78 255.49 287.06 252.66C284.94 252.08 283.38 248.88 281.6 251.64C277.97 254.55 272.9 255.1 268.52 253.69C267.51 251.3 271.43 253.51 272.71 252.86C276.14 252.82 279.25 251.08 281.7 248.85C285.74 251.92 291.09 252.45 296.03 252.76C301.53 252.88 307.32 252.61 312.31 250.12C314.03 248.33 315.52 251.77 317.63 251.82C322.09 253.21 327.26 253.17 331.43 250.96C332.75 249.52 331.55 252.22 331.62 252.77L331.62 252.77Z" /><path class="shp2" d="M299.36 365.53C299.23 359.3 301.01 353.04 304.73 347.94C307.95 343.47 311.11 338.62 311.62 333.03C312.11 327.19 311.71 321.31 311.82 315.45C311.9 303.28 311.47 291.07 312.55 278.93C313.13 273.5 314.26 267.34 319.17 263.98C320.28 262.93 323.75 261.65 323.63 261.34C318.37 261.68 314.55 266.04 312.76 270.56C309.27 279.19 308.87 288.62 308.58 297.78C308.29 308.67 309.07 319.56 308.96 330.44C308.09 335.81 304.15 339.99 300.86 344.14C299.73 345.2 299.1 346.48 299.36 348C299.36 353.84 299.36 359.69 299.36 365.53L299.36 365.53Z" /><path class="shp2" d="M277.7 261.3C284.17 264.95 292.8 263.58 298.42 259C303.4 263.03 310.27 264.45 316.6 263.69C318.41 263.41 320.26 262.89 321.73 261.76C317.03 264.87 310.81 265.19 305.45 263.73C303.19 263.4 301.04 261.28 299.31 260.87C293.47 265.83 283.64 266.39 277.7 261.3Z" /><path class="shp2" d="M298.66 407.5C304.16 394.49 306.98 380.47 307.71 366.43C307.92 365.24 307.56 362.08 308.06 362.22C311.09 366.22 315.5 368.93 319.64 371.72C320.46 372.12 317.75 370.31 316.96 370.11C315.12 369.12 310.89 368.25 311.13 371.49C310.64 380.1 308.36 388.51 305.97 396.78C304.12 402.81 302.05 408.8 299.13 414.42C298.97 412.12 298.81 409.81 298.66 407.5L298.66 407.5Z" /><path class="shp2" d="M299.13 414.42C296.16 410.21 294.68 405.19 293.08 400.37C289.39 388.05 287.24 375.17 287.82 362.31C286.3 364.29 285.82 367.01 283.72 368.63C283.1 370.19 279.13 370.18 280.22 371.97C286.52 386.12 292.82 400.27 299.13 414.42L299.13 414.42Z" /><path class="shp2" d="M256.51 398.05C260.03 400.4 264.97 401.11 268.65 398.69C273.91 395.27 276.61 389.32 278.76 383.73C280.36 379.25 281.61 374.63 282.17 369.92C284.54 367.79 286.74 365.31 287.82 362.31C287.91 366.84 288.01 371.38 288.06 375.91C284.15 383.81 279.63 391.63 273.13 397.78C270.09 400.57 265.76 403.24 261.45 401.76C259.45 401.07 257.82 399.64 256.51 398.05Z" /><path class="shp2" d="M306.43 394.13C309.09 401.92 310.38 410.1 311.42 418.23C313.06 432.94 313.1 448.16 308.54 462.41C307.07 466.86 305.09 471.17 302.42 475.07C302.58 477.99 302.74 480.91 302.89 483.83C307.52 478.3 309.6 471.25 311.39 464.45C314.87 449.75 315.89 434.48 314.41 419.47C313.35 410.7 311.66 401.53 306.43 394.13L306.43 394.13Z" /><path class="shp2" d="M303.6 357.23C304.18 353.99 306.5 351.38 308.22 348.65C309.72 346.4 311.45 344.26 312.55 341.78C313.63 345.94 313.42 350.35 314.85 354.46C316.5 359.94 319.63 364.89 323.38 369.22C316.36 365.7 310.8 359 309.72 351.24C305.1 356.58 303.05 363.55 301.7 370.31C301.27 372.03 300.94 376.19 300.73 376.35C300.34 369.9 300.95 363.22 303.6 357.23L303.6 357.23Z" /><path class="shp2" d="M313.02 371.07C314.35 371.68 315.69 372.3 317.02 372.91C319.7 380.92 322.5 389 326.93 396.26C327.37 397.16 329.79 399.82 327.85 397.82C321.22 390.97 315.32 382.85 313.36 373.44C313.21 372.65 313.1 371.86 313.02 371.07L313.02 371.07Z" /><path class="shp2" d="M290.41 400.36C287.09 410.83 281.44 420.88 272.94 428.17C270.52 430.2 267.85 431.96 264.99 433.33C273.05 429.06 281.02 424.41 287.82 418.34C287.69 412.27 288.45 406.13 290.41 400.36L290.41 400.36Z" /><path class="shp2" d="M305.95 265.91C307.72 266.59 311.46 266.18 312.05 266.74C308 273.55 306.41 281.45 305.23 289.15C304.96 290.87 304.65 294.14 304.56 294.92C305.02 285.25 305.49 275.58 305.95 265.91L305.95 265.91Z" /><path class="shp2" d="M293.95 265.91C292.14 266.36 288.77 266.56 287.84 266.48C291.57 268.6 292.52 273.23 292.78 277.12C292.93 278.24 292.66 282.52 292.88 279.5C293.23 274.97 293.59 270.44 293.95 265.91L293.95 265.91Z" /><path class="shp2" d="M334.44 445.78C342.72 449.28 352.4 451.37 361.11 448.09C369.32 445.09 375.43 436.34 373.98 427.67C373.56 425.47 372.43 423.28 370.47 422.03C371.49 428.31 370.91 435.56 366.3 440.45C361.73 445.17 354.53 445.71 348.29 444.95C343.94 444.35 339.54 443.49 335.47 441.83C329.46 438.88 323.3 435.64 318.9 430.54C317.87 429.5 316.98 426.54 317.31 429.35C317.37 431.29 317.43 433.23 317.49 435.18C321.43 438.03 324.93 441.53 329.38 443.67C331.01 444.51 332.7 445.22 334.44 445.78L334.44 445.78Z" /><path class="shp2" d="M268.99 443.71C260.38 447.95 250.56 451.21 240.83 449.44C233.93 448.27 227.51 443.26 226.01 436.37C224.97 432.01 225.97 427.23 228.73 423.65C227.66 429.53 227.87 436.33 231.9 441.17C235.82 445.75 242.48 446.42 248.17 445.72C253.5 445.09 258.73 443.65 263.53 441.29C270.89 437.89 278.38 434.42 284.62 429.23C286.08 428.42 287.91 425.06 288.05 424.99C287.97 427.54 287.9 430.09 287.82 432.64C281.82 436.76 275.58 440.57 268.99 443.71L268.99 443.71Z" /><path class="shp2" d="M317.26 467.46C317.06 479.55 315.05 491.79 309.92 502.86C307.8 507.3 305.06 511.51 301.48 514.96C301.95 511.67 302.44 508.36 302.89 505.05C306.32 500.38 307.62 494.61 309.09 489.14C311.52 478.97 313.05 468.61 314.2 458.24C313.72 458.88 314.41 462.43 315.03 463.88C315.52 465.2 316.76 466.21 317.26 467.46Z" /><path class="shp2" d="M297.95 478.99C299.28 481.6 300.62 484.22 301.95 486.83C303.05 486.14 304.15 485.45 305.25 484.76C302.78 488.79 300.56 493.16 300.07 497.9C299.36 491.6 298.66 485.29 297.95 478.99L297.95 478.99Z" /><path class="shp2" d="M288.3 444.17C288.21 446.96 288.31 449.81 289.24 452.47C281.35 462.55 274.17 473.73 263.01 480.68C256.49 484.69 248.69 487 240.97 486.49C232.16 485.56 224.19 477.61 224.92 468.69C224.99 467.35 225.66 464.54 226.16 464.29C226.51 469.66 228.38 475.67 233.51 478.41C238.15 480.87 243.68 481.14 248.84 480.67C255.41 479.28 260.91 475.11 265.96 470.98C274.87 463.37 282.4 454.2 288.3 444.17L288.3 444.17Z" /><path class="shp2" d="M315.37 458.24C322.55 467.51 330.09 477.22 340.95 482.56C346.64 485.29 353.05 486.93 359.41 486.49C368.21 485.56 376.18 477.61 375.45 468.69C375.38 467.35 374.71 464.54 374.21 464.29C373.87 469.67 371.98 475.69 366.82 478.41C362.17 480.85 356.66 481.12 351.51 480.69C344.93 479.3 339.45 475.13 334.39 471C327.52 465.16 321.51 458.39 316.31 451.09C316 453.47 315.69 455.85 315.37 458.24L315.37 458.24Z" /><path class="shp2" d="M294.89 357.23C294.3 353.99 291.99 351.38 290.27 348.65C288.77 346.4 287.04 344.26 285.94 341.78C284.85 345.94 285.06 350.35 283.64 354.46C281.99 359.94 278.86 364.89 275.11 369.22C282.16 365.68 287.77 359.01 289 351.24C293.51 356.63 295.47 363.58 296.8 370.31C297.23 372.03 297.53 376.2 297.77 376.35C298.28 369.9 297.68 363.17 294.89 357.23L294.89 357.23Z" /><path class="shp2" d="M313.96 404.28C318.56 411.75 321.62 420.18 327.5 426.85C328.84 428.44 331.36 430.13 332.88 430.51C325.01 427.58 317.71 421.46 315.73 413.18C315.14 410.21 314.55 407.24 313.96 404.28L313.96 404.28Z" /><path class="shp2" d="M373.76 316.65C366.43 315.62 359.51 311.73 355.16 305.81C350.12 305.17 345.5 302.73 341.2 300.2C338.52 298.5 335.84 296.56 334.21 293.82C337.77 297.94 343.01 300.26 348.13 301.99C350.18 303.12 353.27 302.16 354.59 304.14C358.64 309.4 364.87 313.13 371.65 313.65C372.35 314.65 373.06 315.65 373.76 316.65Z" /><path class="shp2" d="M376.83 352.16C381.98 353.52 387.73 354.87 392.89 352.83C394.57 352.2 396.53 350.19 396.46 348.78C389.64 351.63 381.86 350.85 374.86 349.06C369.89 347.74 365.13 345.75 360.58 343.4C361.3 350.72 361.36 358.83 356.83 365.1C353.25 369.97 347.62 372.73 342.21 375.22C348.65 374.55 354.21 370.66 358.77 366.4C362.16 363.61 363.55 359.23 363.54 355.01C363.62 351.89 363.23 348.78 362.7 345.7C366.69 349.04 371.88 350.7 376.83 352.16L376.83 352.16Z" /><path class="shp2" d="M378.47 326.1C371.04 325.2 363.92 321.36 359.64 315.26C354.59 314.63 349.98 312.18 345.67 309.65C342.99 307.96 340.32 306.02 338.68 303.27C342.19 307.33 347.35 309.59 352.36 311.33C354.48 312.53 357.68 311.58 359.06 313.59C363.13 318.89 369.37 322.54 376.12 323.33C376.9 324.26 377.69 325.18 378.47 326.1L378.47 326.1Z" /><path class="shp2" d="M384.12 340.4C376.81 339.16 369.79 335.4 365.52 329.33C360.73 328.92 356.37 326.56 352.26 324.26C349.36 322.47 346.34 320.53 344.57 317.57C348.07 321.61 353.26 323.78 358.25 325.53C360.37 326.7 363.56 325.87 364.95 327.89C369 333.18 375.3 336.66 382.01 337.4C382.71 338.4 383.42 339.4 384.12 340.4Z" /><path class="shp2" d="M340.33 356.54C344.25 351.78 346.51 345.97 348.87 340.36C349.27 339.46 350.03 336.96 349.62 339.31C348.7 345.82 347.54 352.56 344 358.26C343.26 359.29 341.24 362.22 341.14 359.56C340.87 358.55 340.6 357.55 340.33 356.54L340.33 356.54Z" /><path class="shp2" d="M387.66 373.37C389.17 373.5 391.88 371.76 391.78 371.1C386.05 372.74 380.16 370.43 375.35 367.46C374.43 366.89 373.1 365.97 374.68 367.31C378.29 370.39 382.69 373.28 387.66 373.37L387.66 373.37Z" /><path class="shp2" d="M400.37 385.83C401.67 385.67 403.98 382.74 403.5 382.84C397.73 385.93 390.55 384.28 385.39 380.74C384.5 380.2 382.18 378.28 384.13 380.09C388.43 384.07 394.4 386.54 400.37 385.83L400.37 385.83Z" /><path class="shp2" d="M410.26 398.28C411.35 398.15 413.71 396.95 413.66 396.72C407.2 397.34 400.8 394.96 395.43 391.59C399.74 394.87 404.75 397.68 410.26 398.28Z" /><path class="shp2" d="M422.27 404.97C421.42 406.1 420.63 407.4 419.09 407.71C413.13 409.68 406.61 407.38 401.78 403.81C407.69 408.01 415.82 407.82 422.27 404.97Z" /><path class="shp2" d="M476.42 415.34C479.47 412.91 479.89 408.53 479.25 404.97C480.75 406.88 481.84 410.01 480.47 412.25C479.49 413.63 478.12 414.9 476.42 415.34Z" /><path class="shp2" d="M476.66 444.86C474.53 446.8 471.15 447.54 468.42 446.48C472.91 446.3 476.3 442.37 476.99 438.23C477.63 436.49 477.2 433.07 477.56 432.19C480.34 435.51 479.89 440.43 477.43 443.79C477.18 444.16 476.93 444.52 476.66 444.86L476.66 444.86Z" /><path class="shp2" d="M452.88 464.46C451.08 465.54 446.87 465.1 446.49 464.43C451.61 464.18 456.21 460.42 457.33 455.53C457.68 454.48 457.83 451.74 458.02 454.24C458.47 458.26 456.67 462.57 452.88 464.46Z" /><path class="shp2" d="M384.83 435.18C386.61 438.16 390.29 440.62 393.9 439.3C395.18 438.99 397.88 437.19 397.63 436.93C393.48 438.31 387.99 438.76 384.83 435.18L384.83 435.18Z" /><path class="shp2" d="M225.9 315.72C233.32 314.75 240.35 310.88 244.74 304.89C249.79 304.25 254.4 301.81 258.7 299.27C261.39 297.58 264.06 295.64 265.69 292.89C261.89 297.08 256.5 299.54 251.15 301.26C248.76 302.15 245.84 301.5 244.7 304.23C240.57 309.08 234.46 312.25 228.02 312.73C227.31 313.73 226.61 314.73 225.9 315.72Z" /><path class="shp2" d="M223.08 351.24C217.88 352.62 212.11 353.94 206.91 351.91C205.21 351.28 203.18 349.28 203.21 347.85C210.1 350.7 217.94 349.94 225.01 348.14C229.99 346.82 234.77 344.84 239.32 342.47C238.6 349.8 238.54 357.91 243.07 364.18C246.65 369.05 252.28 371.81 257.69 374.3C250.91 373.64 245.13 369.43 240.47 364.83C236.21 360.98 235.84 354.86 236.48 349.58C236.52 348.21 237.2 345.9 237.04 345.16C232.97 348.22 227.93 349.82 223.08 351.24Z" /><path class="shp2" d="M221.43 325.18C228.87 324.27 235.98 320.44 240.26 314.34C245.43 313.7 250.19 311.25 254.57 308.61C257.17 306.97 259.64 304.99 261.22 302.35C257.53 306.61 252.1 308.98 246.81 310.75C244.56 311.79 241.46 310.98 240.28 313.54C236.13 318.47 230.02 321.68 223.55 322.41C222.84 323.33 222.13 324.26 221.43 325.18Z" /><path class="shp2" d="M215.54 339.48C222.94 338.29 230.07 334.55 234.38 328.41C239.42 327.77 244.02 325.35 248.34 322.86C250.99 321.2 253.72 319.37 255.33 316.65C251.57 320.78 246.18 323.07 240.93 324.82C238.67 325.86 235.54 325.02 234.44 327.65C230.41 332.74 224.14 335.78 217.66 336.48C216.95 337.48 216.25 338.48 215.54 339.48Z" /><path class="shp2" d="M259.57 355.62C255.53 350.7 253.25 344.69 250.7 338.96C250.28 337.93 249.66 336.37 250.08 338.38C251.18 345.03 252.47 351.92 256.2 357.69C257.02 358.91 258.73 361.04 258.8 358.5C259.05 357.54 259.31 356.58 259.57 355.62Z" /><path class="shp2" d="M212.01 372.45C210.54 372.54 207.71 370.73 207.93 370.18C212.69 371.51 217.73 370.24 221.94 367.92C222.95 367.53 225.72 365.54 225.6 365.83C221.92 369.25 217.26 372.36 212.01 372.45L212.01 372.45Z" /><path class="shp2" d="M199.53 384.91C198.13 384.86 195.69 381.85 196.17 381.92C202.13 385.04 209.51 383.34 214.78 379.63C215.69 379.04 217.6 377.47 215.77 379.17C211.47 383.15 205.5 385.62 199.53 384.91Z" /><path class="shp2" d="M189.64 397.36C188.55 397.23 186.15 396 186.23 395.8C192.67 396.43 199.03 394.11 204.47 390.9C200.14 394.08 195.14 396.89 189.64 397.36Z" /><path class="shp2" d="M177.63 404.05C178.53 405.28 179.45 406.63 181.11 406.92C186.94 408.64 193.23 406.42 197.88 402.89C192.07 407.13 184.01 406.87 177.63 404.05Z" /><path class="shp2" d="M123.48 414.42C120.4 411.97 120.09 407.64 120.42 404.05C118.95 406.03 118.1 409.12 119.44 411.37C120.38 412.76 121.73 414.13 123.48 414.42Z" /><path class="shp2" d="M123.24 444.17C125.56 445.79 128.75 446.66 131.48 445.55C127.17 445.49 123.79 441.82 123.01 437.85C122.28 435.94 122.69 432.34 122.34 431.27C119.2 435.14 120.23 440.55 123.24 444.17Z" /><path class="shp2" d="M215.07 434.48C213.07 437.48 209.15 439.78 205.5 438.28C204.33 437.94 201.71 436.2 202.03 436.01C206.23 437.39 211.72 437.9 215.07 434.48L215.07 434.48Z" /><path class="shp2" d="M147.26 463.54C149.02 464.85 153.27 464.15 153.64 463.51C148.53 463.25 143.93 459.5 142.8 454.61C142.45 453.55 142.32 450.82 142.04 453.32C141.49 457.36 143.5 461.65 147.26 463.54L147.26 463.54Z" /><path class="shp2" d="M435.22 174.13C443.96 175.02 452.91 171.7 458.99 165.52C463.39 161.07 466.96 155.59 468.38 149.5C468.13 148.96 466.63 149.69 465.87 149.67C464 149.44 463.95 151.37 463.23 152.61C459.22 160.64 452.23 168.02 443 169.95C441 170.84 438.06 169.6 436.71 171.28C436.15 172.2 435.59 173.13 435.22 174.13L435.22 174.13Z" /><path class="shp2" d="M462.53 150.84C453.74 153.23 444.95 155.61 436.16 157.99C436.73 159.79 436.91 160.85 438.88 159.56C446.76 156.65 454.65 153.75 462.53 150.84Z" /><path class="shp2" d="M437.34 302.12C437.43 317.8 437.09 333.55 434.9 349.11C433.93 354.8 433.08 360.73 430.04 365.77C429.41 363.15 428.78 360.54 428.15 357.92C430.08 344.43 430.6 330.77 430.72 317.15C430.66 301.11 429.98 284.91 426.14 269.25C425.03 264.93 423.63 260.66 421.56 256.69C424.06 257.48 426.58 258.23 429.1 259C433.95 272.89 436.71 287.45 437.34 302.12L437.34 302.12Z" /><path class="shp2" d="M454.52 289.9C457.96 298.08 464.9 304.16 471.91 309.44C481.59 316.5 492.24 322.23 503.26 327.02C502.16 325.1 501.07 323.18 499.97 321.26C479.63 307.2 461.52 289.64 448.81 268.56C444.32 261.17 440.48 253.41 437.34 245.39C437.06 248.53 437.05 251.7 437.34 254.85C440.71 262.5 445.07 269.69 448.58 277.28C450.6 281.47 452.58 285.68 454.52 289.9Z" /><path class="shp2" d="M486.08 230.63C498.09 233.65 510.37 236.66 522.88 235.85C529.7 235.46 536.47 234.03 542.82 231.55C541.17 230.94 539.52 230.32 537.87 229.71C527.46 231.66 516.71 231.66 506.21 230.35C490.26 228.33 474.44 222.07 463.09 210.65C459.64 207.22 456.61 203.38 454.05 199.27C451.18 199.76 448.25 199.67 445.34 199.73C452.88 202.7 459.24 208.49 462.49 215.82C463.01 218.21 464.97 219.57 467 220.76C473 224.65 479.35 228.09 486.08 230.63L486.08 230.63Z" /><path class="shp2" d="M497.85 197.89C508.5 197.08 519.52 195.33 528.76 189.73C532.63 187.27 536.35 183.92 537.64 179.44C528.76 185.21 518.14 187.62 507.77 189.29C495.69 191.08 483.44 191.62 471.24 191.2C468.81 192.74 466.38 194.27 463.94 195.81C468.65 196.35 473.39 195.42 478.12 195.75C484.74 195.96 491.32 196.83 497.85 197.89L497.85 197.89Z" /><path class="shp2" d="M424.15 108.87C438.3 96.84 451.29 83.27 461.35 67.73C465.3 61.32 469.2 54.54 470.24 47.02C470.5 45.71 468.98 47.59 468.37 47.85C466.89 48.98 465.42 50.1 463.94 51.22C459.11 64.26 451.85 76.34 443.46 87.47C437.68 95.06 431.21 102.16 424.15 108.64L424.15 108.78L424.15 108.87L424.15 108.87Z" /><path class="shp2" d="M451.7 118.56C466.57 105.95 477.91 89.02 482.31 70.13C483.8 68.6 485.29 67.06 486.78 65.52C486.08 72.62 483.41 79.36 480.7 85.92C477.65 92.68 474.34 99.56 469.15 105.02C465.67 108.46 462.44 112.15 458.89 115.52C456.54 117.81 454.22 120.14 451.7 122.25C451.68 121.02 451.95 119.77 451.7 118.56Z" /><path class="shp2" d="M468.65 149.23C481.7 146.84 494.54 141.35 503.65 131.66C509.22 125.95 513.11 118.98 516.92 112.1C515.51 112.72 514.09 113.33 512.68 113.95C506.33 125.25 496.85 134.94 485.2 141.04C479.27 144.19 472.87 146.44 466.3 147.85C467.08 148.31 467.87 148.77 468.65 149.23Z" /><path class="shp2" d="M404.61 104.95C423.6 87.74 442.59 70.52 461.59 53.3C448.07 67 434.61 80.79 420.45 93.87C418.35 95.77 416.28 97.76 413.65 98.95C410.53 100.77 407.3 102.53 404.61 104.95L404.61 104.95Z" /><path class="shp2" d="M389.54 165.14C383.55 166.06 376.64 165.27 372.33 160.65C367.96 155.93 366.79 149.25 366.74 143.07C366.97 131.1 372.37 119.92 378.68 109.91C387.57 96.07 398.91 83.92 410.73 72.44C400.98 78.95 392.06 86.72 384.89 95.93C378.35 104.23 372.68 113.18 367.62 122.4C362.77 132.02 360.6 143.59 364.46 153.9C366.92 160.68 372.99 166.23 380.33 167.42C383.37 167.98 386.5 167.92 389.54 167.45C389.54 166.68 389.54 165.91 389.54 165.14L389.54 165.14Z" /><path class="shp2" d="M419.68 97.11C423.12 102.59 424.98 109.14 424.54 115.59C424.2 121.39 420.64 126.83 415.37 129.53C414.38 130.08 413.22 130.66 414.72 129.54C419.41 125.61 422.41 119.58 421.68 113.46C421.31 108.91 419.36 104.71 417.56 100.57C418.26 99.42 418.97 98.27 419.68 97.11L419.68 97.11Z" /><path class="shp2" d="M416.85 102.42C412.85 108.11 408.85 113.79 404.84 119.48C406.69 121.01 407.68 119.9 408.34 118C411.2 112.82 414.03 107.62 416.85 102.42Z" /><path class="shp2" d="M529.4 163.76C522.01 169 513.16 171.74 504.5 174.22C492.49 177.41 480.15 179.58 467.71 180.13C469.71 181.07 471.42 183.19 473.83 182.57C481.51 182.12 489.12 180.92 496.75 179.97C510.13 178.57 523.71 174.2 533.7 165.07C534.41 164.27 537.59 161.73 534.96 162.63C533.1 163.01 531.25 163.38 529.4 163.76L529.4 163.76Z" /><path class="shp2" d="M500.44 152.92C508.79 148.99 517.21 144.21 522.71 136.69C524.46 134.13 525.96 131.17 525.87 128.01C520.9 136.21 513.17 142.68 504.19 146.32C492.72 151.09 480.05 152.24 467.71 152C467.16 153.15 466.61 154.3 466.06 155.46C477.42 153.7 488.94 152.81 500.44 152.92L500.44 152.92Z" /><path class="shp2" d="M430.98 148.31C438.9 146.38 445.71 140.72 448.87 133.35C451.05 128.3 452.26 122.62 451.23 117.18C450.21 117.87 449.19 118.56 448.17 119.25C448.02 127.48 445.45 136.34 438.79 141.79C436.84 143.37 434.57 144.55 432.16 145.31C431.92 146.35 431.05 147.25 430.98 148.31Z" /><path class="shp2" d="M446.99 120.17C441.26 124.25 435.53 128.32 429.8 132.4C430.76 133.62 431.54 134.53 432.67 132.82C437.48 128.65 442.23 124.4 446.99 120.17L446.99 120.17Z" /><path class="shp2" d="M416.15 129.4C437.34 110.56 458.53 91.73 479.72 72.9C472.7 78.05 466.15 83.79 459.44 89.32C447.71 99.25 435.89 109.1 424.57 119.48C422.27 121.58 421.5 124.78 419.31 126.99C418.39 127.91 417.47 129.07 416.15 129.4L416.15 129.4Z" /><path class="shp2" d="M433.1 197.43C442.97 201.11 454.38 200.53 463.74 195.7C468.6 193.18 473.23 189.89 476.42 185.43C474.85 185.36 473.28 185.28 471.71 185.2C464.51 191.5 455.44 196.03 445.79 197.14C441.62 197.58 437.35 197.25 433.33 196.04C433.35 196.51 433.23 196.98 433.1 197.43Z" /><path class="shp2" d="M469.36 185.2C457.11 184.59 444.87 183.97 432.63 183.36C432.48 186.58 435.72 185.12 437.95 185.4C448.42 185.33 458.89 185.27 469.36 185.2Z" /><path class="shp2" d="M433.33 196.04C443.64 197.75 453.69 202.87 459.67 211.47C463.62 217.08 466.08 223.8 466.3 230.63C464.65 229.94 463 229.25 461.35 228.56C458.49 217.17 451.33 206.24 440.31 201.02C438.05 199.62 434.45 199.23 432.73 198C432.91 197.34 433.25 196.73 433.33 196.04L433.33 196.04Z" /><path class="shp2" d="M458.76 227.63C446.75 221.33 434.75 215.03 422.74 208.72C425.03 207.79 426.97 206.05 428.95 208.43C438.9 214.81 448.83 221.22 458.76 227.63Z" /><path class="shp2" d="M445.81 138.85C446.77 137.33 447.57 135.68 448.64 134.23C453.91 129.84 459.76 126.18 465.22 122.04C474.34 115.21 483.5 108.15 490.55 99.19C493.33 95.49 495.95 91.24 495.96 86.51C497.38 95.74 492.75 105.04 485.73 111.05C483.47 113.06 481 114.83 478.2 116.03C468.74 121.3 459.73 127.35 451.25 134.01C449.36 135.54 447.5 137.11 445.81 138.85L445.81 138.85Z" /><path class="shp2" d="M437.57 145.77C441.29 143.17 444.72 140.11 448.99 138.36C462.41 132.2 476.36 127.23 490.23 122.15C496.21 119.99 502.2 117.87 508.21 115.79C489.09 124.09 469.93 132.33 451.12 141.29C448.87 142.27 446.72 143.66 444.54 144.62C442.2 144.67 439.68 144.64 437.57 145.77Z" /><path class="shp2" d="M526.57 162.6C503.21 165.23 479.7 166.31 456.37 169.23C453.52 169.28 451.45 171.53 448.8 172.32C446.34 173.32 443.76 174.09 441.1 174.36C443.37 173.33 445.97 175.24 448.29 174.59C473.11 169.32 498.19 165.04 523.49 162.85C524.52 162.76 525.55 162.68 526.57 162.6Z" /><path class="shp2" d="M418.74 219.79C427.14 225.58 434.77 233.55 437.03 243.65C438.19 248.8 437.84 254.29 435.92 259.23C434.59 258 433.26 256.77 431.92 255.54C432.91 246.71 430.02 237.78 424.72 230.66C422.42 227.47 419.74 224.56 416.85 221.87C417.3 221.04 418.04 220.42 418.74 219.79L418.74 219.79Z" /><path class="shp2" d="M430.74 253.46C422.35 245.16 413.95 236.86 405.55 228.56C407.36 227.92 408.55 226.88 409.54 229.04C416.6 237.19 423.67 245.32 430.74 253.46Z" /><path class="shp2" d="M397.78 237.55C403.4 245.63 404.58 256.16 401.75 265.45C400.14 270.66 397.79 275.88 393.78 279.75C393.31 278.29 392.84 276.83 392.37 275.37C398.74 266.38 401.71 254.4 397.82 243.85C397.47 241.61 394.19 239.11 397.35 237.74L397.78 237.55L397.78 237.55Z" /><path class="shp2" d="M393.78 279.75C392 279.06 389.28 277.25 389.51 280.43C387.7 290.29 388.77 300.4 390.32 310.22C391.48 316.55 392.75 322.96 395.43 328.87C393.47 319.01 393.95 308.89 394.45 298.92C394.7 294.25 395.22 289.56 395.61 284.92C395 283.2 394.39 281.47 393.78 279.75L393.78 279.75Z" /><path class="shp2" d="M392.13 272.83C389.23 261.92 386.32 251 383.42 240.09C386.71 240.11 386.2 243.35 386.87 245.69C388.68 254.73 390.4 263.78 392.13 272.83Z" /><path class="shp2" d="M374.94 302.12C376.93 299.64 379.21 297.37 380.92 294.69C383.99 288.87 386.04 282.41 386.24 275.83C385.46 274.98 384.67 274.14 383.89 273.29C382.81 280.75 381.5 288.48 377.39 294.98C376.77 296.62 374.23 297.32 374.78 299.23C374.83 300.2 374.89 301.16 374.94 302.12Z" /><path class="shp2" d="M371.17 244.01C370.23 244.24 369.29 244.47 368.35 244.7C370.5 261.96 372.05 279.28 373.76 296.58C372.9 279.06 372.04 261.53 371.17 244.01Z" /><path class="shp2" d="M527.51 256.69C520.96 254.99 514.9 251.85 508.85 248.93C497.38 243.07 486.09 236.71 475.96 228.79C473.27 226.69 470.82 224.29 468.65 221.71C466.92 220.53 465.2 219.36 463.47 218.18C465.34 221.62 466.24 225.59 466.06 229.48C477.33 239.19 490.53 246.77 504.66 251.73C512.04 254.28 519.72 256.02 527.51 256.69L527.51 256.69Z" /><path class="shp2" d="M450.05 231.55C461.97 247.96 473.57 264.62 483.73 282.14C487.19 288.41 490.85 294.73 492.59 301.71C492.38 302.11 490.75 299.09 490.01 298.25C476.74 279.11 463.4 259.99 448.87 241.73C445.24 237.38 441.77 232.78 437.28 229.23C435.57 228.29 436.22 228.7 437.67 229.09C441.71 230.16 445.82 231.62 450.05 231.55L450.05 231.55Z" /><path class="shp2" d="M478.78 337.63C470.91 331.34 463.76 324.06 458.62 315.43C450.46 301.95 445.15 287.06 440 272.3C438.6 268.18 437.25 264.06 435.92 259.92C433.65 259.61 431.37 259.3 429.1 259C433.35 278.53 439.87 298.01 451.6 314.54C458.54 324.25 467.64 332.75 478.78 337.63Z" /><path class="shp2" d="M412.61 251.85C412.61 272.27 413.4 292.75 416.2 313C417.49 321.5 418.99 330.08 422.27 338.09C415.66 319.54 410.78 300.36 408.09 280.88C406.68 270.27 406 259.54 406.73 248.85C408.69 249.85 410.65 250.85 412.61 251.85L412.61 251.85Z" /><path class="shp2" d="M508.21 218.64C495.13 213.59 482.03 208.43 469.67 201.83C467.16 200.41 464.59 198.99 462.53 196.96C460.88 197.27 459.23 197.58 457.59 197.89C463.73 203.67 471.79 206.92 479.59 209.97C488.93 213.45 498.54 216.18 508.21 218.64Z" /><path class="shp2" d="M189.64 165.37C185.9 167.84 181.23 167.73 176.93 167.45C176.62 175.06 177.12 182.92 180.46 189.93C185.41 200.79 195.47 208.43 206.12 213.57C197.22 206.71 189.85 197.28 187.36 186.29C185.79 179.3 186.72 171.91 189.64 165.37L189.64 165.37Z" /><path class="shp2" d="M194.82 149.69C196.54 141.28 199.94 133.31 203.16 125.37C203.89 124.03 204.35 122.86 202.53 123.94C195.87 126.63 189.84 132.35 189.1 139.66C189 142.6 190.05 145.62 191.88 147.92C192.86 148.51 193.84 149.1 194.82 149.69L194.82 149.69Z" /><path class="shp2" d="M180.46 148.31C177.84 146.82 175.01 144.87 174.57 141.68C174.36 140.26 173.32 137.07 175.48 138.93C181.93 142.51 188.37 146.1 194.82 149.69C186.5 154.61 178.18 159.53 169.86 164.45C169.62 159.6 173 155.52 176.17 152.15C177.52 150.78 178.94 149.49 180.46 148.31L180.46 148.31Z" /><path class="shp2" d="M208.01 176.21C202.55 173.62 196.95 170.6 193.28 165.73C192.26 164.23 191.35 162.33 192.1 160.54C193.01 156.93 193.91 153.31 194.82 149.69C199.22 158.53 203.61 167.37 208.01 176.21L208.01 176.21Z" /><path class="shp2" d="M222.37 150.61C218.88 146.66 214.05 142.9 208.42 143.1C205.94 143.46 204.62 146.27 202.3 147.24C200.22 148.62 196.9 149.38 194.96 149.7C204.1 150 213.23 150.31 222.37 150.61Z" /><path class="shp2" d="M263.1 242.85C258.62 243.32 253.62 243.94 249.76 241.11C248.08 240.15 246.88 237.64 245.04 239.82C237.75 243.57 228.81 242.05 221.77 238.48C219.58 237.51 217.98 235.04 215.45 236.59C210.72 237.75 204.97 238.22 201.11 234.72C198.43 232.27 197.09 228.82 195.76 225.56C189.38 224.72 182.51 222.17 179.27 216.34C177.78 213.74 177.15 210.76 176.93 207.8C171.32 205.54 167.29 200.26 166.36 194.42C165.47 188.87 166.22 182.72 169.63 178.05C164.27 174.82 161.35 168.42 162.21 162.34C162.84 157.15 165.54 151.84 170.33 149.23C167.01 145.62 165.03 140.18 167.29 135.53C170.17 129.24 179 125.66 185.22 129.46C186.88 131 185.85 127 186.85 126.01C189.29 119.77 196.98 117.03 203.33 118.32C205.05 118.61 206.63 119.32 208.24 119.94C203.67 117.49 197.72 118.04 193.73 121.33C190.3 124.08 187.57 128.17 187.52 132.63C182.57 128.59 174.5 129.38 170.41 134.25C167.04 137.87 167.16 143.53 169.81 147.5C170.44 149.12 173.59 150.7 170.68 151.57C163.36 157.2 161.34 168.96 167.45 176.13C168.11 177.84 171.97 178.65 170.66 180.32C167.12 186.59 166.81 194.7 170.19 201.1C172.05 204.52 175.19 207.19 178.81 208.72C179.12 214.53 181.31 220.63 186.38 224.04C189.67 226.37 193.66 227.54 197.65 228.1C199.31 232.4 201.25 237.44 205.98 239.26C210.44 240.91 215.33 239.88 219.78 238.7C225.47 242.94 232.83 245.14 239.97 244.6C243.2 244.6 246.47 242.61 248.99 241.71C251.52 244.31 254.87 246.38 258.66 246.29C260.55 246.18 263.66 246.49 264.84 245.84C264.26 244.84 263.68 243.85 263.1 242.85L263.1 242.85Z" /><path class="shp2" d="M255.57 224.64C253.45 221.56 251.33 218.49 249.21 215.41C246.19 216.12 243.01 215.44 239.96 215.12C228.8 213.45 217.83 210.07 208.01 204.57C212.54 208.72 217.07 213.01 222.63 215.85C232.73 221.22 244.25 223.42 255.57 224.64L255.57 224.64Z" /><path class="shp2" d="M410.26 166.29C414.08 168.57 418.68 168.4 422.97 168.14C423.28 175.75 422.76 183.62 419.4 190.62C414.39 201.51 404.25 209.13 393.54 214.26C402.34 207.54 409.69 198.37 412.37 187.6C414.14 180.51 413.26 172.94 410.26 166.29L410.26 166.29Z" /><path class="shp2" d="M405.08 150.61C403.36 142.2 399.96 134.24 396.74 126.3C396.01 124.96 395.54 123.78 397.37 124.83C403.76 127.27 409.32 132.57 410.51 139.38C411.07 142.63 410.04 146.19 407.9 148.7C406.96 149.34 406.02 149.97 405.08 150.61L405.08 150.61Z" /><path class="shp2" d="M419.44 149.23C422.04 147.63 424.76 145.56 425.24 142.37C425.46 140.96 426.61 137.75 424.43 139.63C417.98 143.29 411.53 146.95 405.08 150.61C413.4 155.46 421.72 160.3 430.04 165.14C430.28 160.21 426.76 156.09 423.47 152.74C422.2 151.49 420.87 150.31 419.44 149.23L419.44 149.23Z" /><path class="shp2" d="M391.89 176.9C397.39 174.3 403 171.27 406.75 166.42C407.78 164.93 408.83 163.03 408 161.24C407.03 157.7 406.05 154.16 405.08 150.61C400.68 159.38 396.29 168.14 391.89 176.9Z" /><path class="shp2" d="M377.53 151.3C381.03 147.45 385.74 143.76 391.28 143.83C393.75 144.16 395.08 146.99 397.4 147.96C399.73 149.38 402.39 150.16 405.08 150.61C395.9 150.84 386.71 151.07 377.53 151.3Z" /><path class="shp2" d="M335.15 246.08C339.45 247.16 344.53 247.3 348.04 244.18C349.76 242.79 351.23 241.16 352.81 239.63C359.76 244.23 368.99 243.23 376.32 240.05C378.72 239.58 380.52 236.66 382.86 237.15C387.85 238.39 393.84 239.25 398.18 235.89C401.21 233.46 402.59 229.73 403.9 226.25C410.32 225.42 417.25 222.9 420.52 217.04C422.02 214.42 422.64 211.44 422.97 208.49C428.6 206.32 432.58 201.03 433.46 195.23C434.31 189.72 433.59 183.63 430.27 178.98C435.6 175.67 438.55 169.26 437.66 163.15C437 157.88 434.16 152.58 429.33 149.92C432.69 146.33 434.77 140.91 432.55 136.23C429.66 129.76 420.39 126.18 414.23 130.45C413.32 130.82 413.86 127.73 413.03 126.78C410.25 120.06 401.57 117.31 394.84 119.43C393.82 119.74 392.87 120.23 391.89 120.63C396.39 118.16 402.28 118.75 406.2 122.02C409.62 124.78 412.33 128.87 412.38 133.32C417.17 129.41 424.9 130 429.05 134.55C432.6 138.06 432.78 143.79 430.22 147.88C429.69 149.61 426.23 151.34 429.22 152.26C436.68 158.03 438.45 170.16 431.99 177.27C431.04 178.96 427.34 179.69 429.63 181.68C433.16 188.69 433.08 197.88 428.08 204.21C426.26 206.5 423.8 208.25 421.09 209.42C420.76 215.43 418.34 221.74 412.99 225.13C409.81 227.24 406.03 228.31 402.25 228.79C400.54 233.26 398.43 238.47 393.46 240.24C389.12 241.74 384.42 240.79 380.12 239.63C374.43 243.85 367.04 245.93 359.93 245.34C356.7 245.31 353.43 243.3 350.91 242.41C347.84 245.47 344.6 249.16 339.89 249.4C337.85 249.49 334.67 249.49 333.43 248.62C334 247.77 334.58 246.93 335.15 246.08L335.15 246.08Z" /><path class="shp2" d="M342.45 225.33C343.39 222.25 344.33 219.18 345.27 216.1C348.27 216.8 351.43 216.25 354.48 216.07C367.12 214.7 379.83 211.8 391.05 205.75C392.92 204.61 389.45 207.27 388.89 207.89C381.17 215 371.37 219.58 361.16 222.1C355.03 223.68 348.75 224.67 342.45 225.33L342.45 225.33Z" /></g><path class="shp3" d="M277.23 81.89C275.25 77.16 269.85 75.11 265.01 74.57C259.27 73.89 253.43 74.48 247.8 75.67C247.34 70.66 247.06 65.02 250.24 60.74C253.14 57.05 258.44 57.05 262.68 57.9C266.67 58.45 270.49 59.97 273.63 62.46C278.93 66.5 283.38 71.46 287.82 76.36C294.1 78.02 299.62 81.85 304.13 86.35C306.68 89 308.73 92.68 308.15 96.41C307.46 99 304.24 98 302.52 97.09C298.55 95.57 293.73 94.28 289.79 96.52C288.17 97.78 289.29 93.31 289.67 92.18C290.47 89.79 293.38 89.56 295.52 90.04C299.22 90.45 297.99 86.06 295.6 85.11C291.06 81.99 285.33 80.59 279.83 81.48C278.96 81.59 278.09 81.73 277.23 81.89L277.23 81.89Z" /><path class="shp3" d="M477.6 418.8C479.96 417.22 481.9 420.16 482.8 421.98C483.71 424.22 485.95 420.06 485.75 418.63C485.81 416.68 484.75 413.34 483.01 413.09C481.3 415.07 479.68 417.18 477.6 418.8L477.6 418.8Z" /><path class="shp3" d="M467 448.32C468.36 451.19 468.09 454.81 466.06 457.31C470.89 457.95 476.25 454.99 477.66 450.34C478.51 447.09 474.43 449.47 472.68 449.43C470.73 449.71 468.72 449.27 467 448.32L467 448.32Z" /><path class="shp3" d="M443.22 464.23C443.88 467.14 442.15 470.22 439.81 471.95C437.96 472.65 442.09 473.29 442.99 473.65C446.03 474.48 449.84 473.57 451.19 470.52C451.93 469.2 452.39 467.51 450.16 468.09C447.62 467.84 444.15 467.35 443.28 464.57L443.22 464.23L443.22 464.23Z" /><path class="shp3" d="M391.89 439.56C392.12 443.4 394.43 447.49 398.53 448.34C402.89 449.26 407.89 447.9 410.88 444.61C412.32 442.77 408.75 445.41 407.56 444.66C404.99 445.02 403.54 441.48 401.42 442.24C398.6 443.07 394.76 443.71 392.66 441.15C392.3 440.68 392.05 440.13 391.89 439.56L391.89 439.56Z" /><path class="shp3" d="M122.54 417.65C120.43 416.32 118.49 418.66 117.66 420.35C116.79 424.07 113.61 418.9 114.13 416.94C114.14 415.32 115.78 410.63 117.45 412.85C118.95 414.61 120.42 416.57 122.54 417.65L122.54 417.65Z" /><path class="shp3" d="M132.9 447.4C131.56 450.25 131.69 453.82 133.6 456.39C128.87 457.03 123.6 454.02 122.38 449.42C121.75 445.96 125.98 448.89 127.9 448.67C129.65 448.81 131.41 448.29 132.9 447.4L132.9 447.4Z" /><path class="shp3" d="M156.68 463.31C155.99 466.25 157.67 469.39 160.02 471.18C162.06 471.97 157.84 472.52 156.91 472.88C153.84 473.66 150.05 472.66 148.71 469.61C147.97 468.28 147.5 466.58 149.74 467.19C152.3 467.02 155.83 466.52 156.62 463.67L156.68 463.31Z" /><path class="shp3" d="M208.01 438.87C207.79 442.68 205.42 446.67 201.37 447.46C197 448.34 192.02 446.98 189.02 443.69C187.58 441.85 191.19 444.49 192.39 443.74C194.82 443.99 196.46 441.08 198.36 441.22C201.18 442.14 205.03 442.87 207.24 440.38C207.6 439.94 207.85 439.41 208.01 438.87Z" /><path class="shp4" d="M410.26 166.29C414.08 168.57 418.68 168.4 422.97 168.14C423.28 175.75 422.76 183.62 419.4 190.62C414.39 201.51 404.25 209.13 393.54 214.26C402.34 207.54 409.69 198.37 412.37 187.6C414.14 180.51 413.26 172.94 410.26 166.29L410.26 166.29Z" /><path class="shp4" d="M405.08 150.61C403.36 142.2 399.96 134.24 396.74 126.3C396.01 124.96 395.54 123.78 397.37 124.83C403.76 127.27 409.32 132.57 410.51 139.38C411.07 142.63 410.04 146.19 407.9 148.7C406.96 149.34 406.02 149.97 405.08 150.61L405.08 150.61Z" /><path class="shp4" d="M419.44 149.23C422.04 147.63 424.76 145.56 425.24 142.37C425.46 140.96 426.61 137.75 424.43 139.63C417.98 143.29 411.53 146.95 405.08 150.61C413.4 155.46 421.72 160.3 430.04 165.14C430.28 160.21 426.76 156.09 423.47 152.74C422.2 151.49 420.87 150.31 419.44 149.23L419.44 149.23Z" /><path class="shp4" d="M391.89 176.9C397.39 174.3 403 171.27 406.75 166.42C407.78 164.93 408.83 163.03 408 161.24C407.03 157.7 406.05 154.16 405.08 150.61C400.68 159.38 396.29 168.14 391.89 176.9Z" /><path class="shp4" d="M377.53 151.3C381.03 147.45 385.74 143.76 391.28 143.83C393.75 144.16 395.08 146.99 397.4 147.96C399.73 149.38 402.39 150.16 405.08 150.61C395.9 150.84 386.71 151.07 377.53 151.3Z" /><path class="shp4" d="M335.15 246.08C339.45 247.16 344.53 247.3 348.04 244.18C349.76 242.79 351.23 241.16 352.81 239.63C359.76 244.23 368.99 243.23 376.32 240.05C378.72 239.58 380.52 236.66 382.86 237.15C387.85 238.39 393.84 239.25 398.18 235.89C401.21 233.46 402.59 229.73 403.9 226.25C410.32 225.42 417.25 222.9 420.52 217.04C422.02 214.42 422.64 211.44 422.97 208.49C428.6 206.32 432.58 201.03 433.46 195.23C434.31 189.72 433.59 183.63 430.27 178.98C435.6 175.67 438.55 169.26 437.66 163.15C437 157.88 434.16 152.58 429.33 149.92C432.69 146.33 434.77 140.91 432.55 136.23C429.66 129.76 420.39 126.18 414.23 130.45C413.32 130.82 413.86 127.73 413.03 126.78C410.25 120.06 401.57 117.31 394.84 119.43C393.82 119.74 392.87 120.23 391.89 120.63C396.39 118.16 402.28 118.75 406.2 122.02C409.62 124.78 412.33 128.87 412.38 133.32C417.17 129.41 424.9 130 429.05 134.55C432.6 138.06 432.78 143.79 430.22 147.88C429.69 149.61 426.23 151.34 429.22 152.26C436.68 158.03 438.45 170.16 431.99 177.27C431.04 178.96 427.34 179.69 429.63 181.68C433.16 188.69 433.08 197.88 428.08 204.21C426.26 206.5 423.8 208.25 421.09 209.42C420.76 215.43 418.34 221.74 412.99 225.13C409.81 227.24 406.03 228.31 402.25 228.79C400.54 233.26 398.43 238.47 393.46 240.24C389.12 241.74 384.42 240.79 380.12 239.63C374.43 243.85 367.04 245.93 359.93 245.34C356.7 245.31 353.43 243.3 350.91 242.41C347.84 245.47 344.6 249.16 339.89 249.4C337.85 249.49 334.67 249.49 333.43 248.62C334 247.77 334.58 246.93 335.15 246.08L335.15 246.08Z" /><path class="shp4" d="M342.45 225.33C343.39 222.25 344.33 219.18 345.27 216.1C348.27 216.8 351.43 216.25 354.48 216.07C367.12 214.7 379.83 211.8 391.05 205.75C392.92 204.61 389.45 207.27 388.89 207.89C381.17 215 371.37 219.58 361.16 222.1C355.03 223.68 348.75 224.67 342.45 225.33L342.45 225.33Z" /><path class="shp5" d="M302.42 62.29C303.33 64.45 299.98 67.53 299.85 67.49C302.24 66.89 304.83 66.09 306.43 64.14C305.09 63.52 303.76 62.91 302.42 62.29L302.42 62.29Z" /><path class="shp6" d="M253.21 92.27C258.77 93.65 264.3 91.33 269.52 89.7C276.69 87.31 284.44 84.57 292.05 86.63C293.49 87.36 297.01 87.69 296.78 89.48C296.76 90.7 295.45 89.92 294.68 89.97C290.88 87.41 285.99 88.29 281.74 89C274 90.38 266.52 93.38 258.59 93.65C256.73 93.65 254.75 93.39 253.21 92.27L253.21 92.27Z" /><path class="shp5" d="M292.77 59.06C292.25 61.56 291.88 64.95 294.32 66.61C295.65 67.41 297.21 67.34 296.01 65.58C295.3 63.95 295.1 60.87 296.27 60.35C295.1 59.92 293.93 59.49 292.77 59.06Z" /><path class="shp7" d="M287.35 208.26C281.74 204.59 278.76 197.86 278.46 191.4C278.39 189.39 278.6 187.38 279.11 185.43C276.35 189.58 275.94 195.07 278.26 199.5C280.52 204.13 284.24 207.83 287.82 211.49C287.67 210.42 287.51 209.34 287.35 208.26L287.35 208.26Z" /></g></g></svg>