<svg version="1.2" xmlns="http://www.w3.org/2000/svg" viewBox="0 0 600 600" width="600" height="600">
	<title></title>
	<style>
		.s0 { fill: #ffffff;stroke: #000000;stroke-width: 1.6 } 
		.s1 { fill: #ffffff } 
		.s2 { fill: #5c3021 } 
		.s3 { fill: #cf142b;stroke: #5c3021;stroke-width: .8 } 
		.s4 { fill: #3d6221;stroke: #1a472b;stroke-width: 1.1 } 
		.s5 { opacity: .7;fill: none;stroke: #1a472b;stroke-width: 1.1 } 
		.s6 { fill: #2e87cf;stroke: #000000;stroke-width: .5 } 
		.s7 { fill: #0033ab } 
		.s8 { fill: #0033ab;stroke: #000000;stroke-width: .5 } 
		.s9 { fill: #2e87cf;stroke: #000000;stroke-width: .7 } 
		.s10 { fill: none;stroke: #0033ab;stroke-width: 1.2 } 
		.s11 { fill: #000000 } 
	</style>
	<ellipse id="path16179" class="s0" cx="301.8" cy="299.2" rx="272.2" ry="271.9"/>
	<g id="g39697">
		<path id="rect33864" class="s1" d="m272.2 542h56v27.7h-56z"/>
		<g id="g32878">
			<g id="g17735">
				<path id="rect17799" class="s2" d="m290.7 573c0-0.2 0.1-0.3 0.3-0.3l35.8-5.4c0.1 0 0.3 0.1 0.3 0.2l0.3 1.9c0 0.2-0.1 0.3-0.2 0.3l-35.9 5.4c-0.1 0-0.3-0.1-0.3-0.2z"/>
				<g id="g16183">
					<g id="g16185">
						<path id="rect16187" class="s2" d="m388.6 546.1l0.8 2.3-31.8 10.7-0.7-2.3z"/>
						<g id="g16189">
							<path id="rect16191" class="s2" d="m375.8 538.1l1.5 15.3-2.4 0.2-1.5-15.2z"/>
							<path id="path16193" fill-rule="evenodd" class="s3" d="m379.5 539c0.2 1.7-0.6 3.4-2 4.4-1.4 1-3.2 1.2-4.8 0.5-1.6-0.7-2.7-2.3-2.8-4-0.2-1.7 0.6-3.4 2-4.4 1.4-1 3.2-1.2 4.8-0.5 1.6 0.7 2.7 2.2 2.8 4z"/>
						</g>
						<g id="use16195">
							<path id="rect38041" class="s2" d="m382 563.7l-8.1-13 2.1-1.2 8 13z"/>
							<path id="path38043" fill-rule="evenodd" class="s3" d="m386.6 564.4c-0.8 1.5-2.4 2.5-4.1 2.5-1.7 0.1-3.4-0.8-4.3-2.3-0.9-1.4-0.9-3.3-0.1-4.8 0.8-1.6 2.4-2.5 4.1-2.6 1.8 0 3.4 0.8 4.3 2.3 0.9 1.5 1 3.4 0.1 4.9z"/>
						</g>
					</g>
					<g id="g16197">
						<g id="g16199">
							<path id="path16201" fill-rule="evenodd" class="s4" d="m346.5 562.2c-8.3 6-22.2 5.8-22.2 5.8 0 0 7.9-29.6 40.2-29.3-0.6 1.8-3 12.7-18 23.5z"/>
							<path id="path16203" class="s5" d="m354.9 544.8c-11 3.3-30.4 23.4-30.4 23.4"/>
						</g>
						<g id="use16205">
							<path id="path38029" fill-rule="evenodd" class="s4" d="m374.7 568.8c-25.5 19.9-49.8 1.1-49.8 1.1 0 0 11-8.6 21.2-8.9 18.5-0.4 27 6.7 28.6 7.8z"/>
							<path id="path38031" class="s5" d="m363.4 569.8c-10.8 4-38.4-0.2-38.4-0.2"/>
						</g>
						<g id="g16207">
							<path id="path16209" fill-rule="evenodd" class="s4" d="m373.5 552.5c-5.8 9.7-14.5 14-22.1 16.5-7.6 2.6-27.5 0.6-27.1 0.1-0.6-0.2 14-13.9 21.6-16.4 7.6-2.6 17-4.4 27.6-0.2z"/>
							<path id="path16211" class="s5" d="m323.4 569.4l37.4-12.6"/>
						</g>
					</g>
					<g id="g16197">
						<g id="g16199">
							<path id="path16201" fill-rule="evenodd" class="s4" d="m346.5 562.2c-8.3 6-22.2 5.8-22.2 5.8 0 0 7.9-29.6 40.2-29.3-0.6 1.8-3 12.7-18 23.5z"/>
							<path id="path16203" class="s5" d="m354.9 544.8c-11 3.3-30.4 23.4-30.4 23.4"/>
						</g>
						<g id="use16205">
							<path id="path38029" fill-rule="evenodd" class="s4" d="m374.7 568.8c-25.5 19.9-49.8 1.1-49.8 1.1 0 0 11-8.6 21.2-8.9 18.5-0.4 27 6.7 28.6 7.8z"/>
							<path id="path38031" class="s5" d="m363.4 569.8c-10.8 4-38.4-0.2-38.4-0.2"/>
						</g>
						<g id="g16207">
							<path id="path16209" fill-rule="evenodd" class="s4" d="m373.5 552.5c-5.8 9.7-14.5 14-22.1 16.5-7.6 2.6-27.5 0.6-27.1 0.1-0.6-0.2 14-13.9 21.6-16.4 7.6-2.6 17-4.4 27.6-0.2z"/>
							<path id="path16211" class="s5" d="m323.4 569.4l37.4-12.6"/>
						</g>
					</g>
				</g>
				<g id="g16183">
					<g id="g16185">
						<path id="rect16187" class="s2" d="m446.6 518.2l1.1 2.2-30.2 14.7-1-2.2z"/>
						<g id="g16189">
							<path id="rect16191" class="s2" d="m432.8 512l3.5 14.9-2.3 0.5-3.5-14.9z"/>
							<path id="path16193" fill-rule="evenodd" class="s3" d="m436.7 512.3c0.4 1.7-0.2 3.5-1.4 4.7-1.3 1.1-3.1 1.6-4.8 1-1.6-0.5-2.9-1.8-3.3-3.5-0.4-1.7 0.2-3.5 1.4-4.7 1.3-1.1 3.1-1.6 4.8-1 1.6 0.5 2.9 1.8 3.3 3.5z"/>
						</g>
						<g id="use16195">
							<path id="rect38041" class="s2" d="m442.3 536.6l-9.7-11.9 1.9-1.5 9.6 11.9z"/>
							<path id="path38043" fill-rule="evenodd" class="s3" d="m447 536.6c-0.6 1.6-2.1 2.8-3.8 3.1-1.7 0.3-3.4-0.4-4.5-1.8-1.1-1.3-1.4-3.1-0.8-4.8 0.6-1.6 2.1-2.7 3.8-3 1.7-0.3 3.4 0.4 4.5 1.7 1.1 1.4 1.4 3.2 0.8 4.8z"/>
						</g>
					</g>
					<g id="g16197">
						<g id="g16199">
							<path id="path16201" fill-rule="evenodd" class="s4" d="m406.9 539.6c-7.4 7-21.3 8.6-21.3 8.6 0 0 4-30.4 36.1-34.2-0.3 1.9-1.3 13-14.8 25.6z"/>
							<path id="path16203" class="s5" d="m413 521.2c-10.5 4.7-27.1 27.1-27.1 27.1"/>
						</g>
						<g id="use16205">
							<path id="path38029" fill-rule="evenodd" class="s4" d="m435.7 542.6c-22.8 22.9-49.3 7.4-49.3 7.4 0 0 9.9-10 20-11.5 18.2-2.9 27.6 3.1 29.3 4.1z"/>
							<path id="path38031" class="s5" d="m424.6 544.9c-10.2 5.4-38.1 4.7-38.1 4.7"/>
						</g>
						<g id="g16207">
							<path id="path16209" fill-rule="evenodd" class="s4" d="m432.4 526.5c-4.5 10.3-12.6 15.7-19.8 19.2-7.2 3.5-27.2 4.1-26.9 3.5-0.6-0.1 12.2-15.5 19.3-19 7.3-3.5 16.4-6.6 27.4-3.7z"/>
							<path id="path16211" class="s5" d="m384.9 549.6l35.5-17.3"/>
						</g>
					</g>
					<g id="g16197">
						<g id="g16199">
							<path id="path16201" fill-rule="evenodd" class="s4" d="m406.9 539.6c-7.4 7-21.3 8.6-21.3 8.6 0 0 4-30.4 36.1-34.2-0.3 1.9-1.3 13-14.8 25.6z"/>
							<path id="path16203" class="s5" d="m413 521.2c-10.5 4.7-27.1 27.1-27.1 27.1"/>
						</g>
						<g id="use16205">
							<path id="path38029" fill-rule="evenodd" class="s4" d="m435.7 542.6c-22.8 22.9-49.3 7.4-49.3 7.4 0 0 9.9-10 20-11.5 18.2-2.9 27.6 3.1 29.3 4.1z"/>
							<path id="path38031" class="s5" d="m424.6 544.9c-10.2 5.4-38.1 4.7-38.1 4.7"/>
						</g>
						<g id="g16207">
							<path id="path16209" fill-rule="evenodd" class="s4" d="m432.4 526.5c-4.5 10.3-12.6 15.7-19.8 19.2-7.2 3.5-27.2 4.1-26.9 3.5-0.6-0.1 12.2-15.5 19.3-19 7.3-3.5 16.4-6.6 27.4-3.7z"/>
							<path id="path16211" class="s5" d="m384.9 549.6l35.5-17.3"/>
						</g>
					</g>
				</g>
				<g id="g16183">
					<g id="g16185">
						<path id="rect16187" class="s2" d="m496.6 476.8l1.6 1.9-25.8 21.4-1.6-1.9z"/>
						<g id="g16189">
							<path id="rect16191" class="s2" d="m481.8 474l6.9 13.7-2.2 1.1-6.9-13.7z"/>
							<path id="path16193" fill-rule="evenodd" class="s3" d="m485.6 473.5c0.8 1.5 0.7 3.4-0.3 4.8-0.9 1.5-2.6 2.3-4.3 2.2-1.8-0.1-3.3-1.1-4.1-2.7-0.8-1.5-0.7-3.4 0.3-4.8 0.9-1.5 2.6-2.3 4.3-2.2 1.8 0.1 3.3 1.1 4.1 2.7z"/>
						</g>
						<g id="use16195">
							<path id="rect38041" class="s2" d="m496.8 495.7l-12.2-9.3 1.4-1.9 12.2 9.3z"/>
							<path id="path38043" fill-rule="evenodd" class="s3" d="m501.4 494.6c-0.3 1.8-1.4 3.2-3 3.9-1.6 0.7-3.4 0.4-4.8-0.6-1.4-1.1-2.1-2.8-1.9-4.5 0.2-1.7 1.3-3.2 3-3.9 1.6-0.6 3.4-0.4 4.8 0.6 1.4 1.1 2.1 2.8 1.9 4.5z"/>
						</g>
					</g>
					<g id="g16197">
						<g id="g16199">
							<path id="path16201" fill-rule="evenodd" class="s4" d="m463.2 507c-5.6 8.6-18.7 13.4-18.7 13.4 0 0-3.3-30.5 27-41.7 0.1 1.8 1.7 12.9-8.3 28.3z"/>
							<path id="path16203" class="s5" d="m464.7 487.7c-9.1 7.1-19.9 32.8-19.9 32.8"/>
						</g>
						<g id="use16205">
							<path id="path38029" fill-rule="evenodd" class="s4" d="m491.8 503.1c-16.6 27.7-46.1 18.9-46.1 18.9 0 0 7.2-12 16.7-15.9 17-7.1 27.6-3.5 29.4-3z"/>
							<path id="path38031" class="s5" d="m481.6 508c-8.6 7.7-35.9 13.6-35.9 13.6"/>
						</g>
						<g id="g16207">
							<path id="path16209" fill-rule="evenodd" class="s4" d="m484.8 488.2c-1.9 11.1-8.5 18.3-14.6 23.4-6.2 5.1-25.5 10.4-25.3 9.8-0.7 0 8.1-18 14.2-23.1 6.2-5.1 14.3-10.2 25.7-10.1z"/>
							<path id="path16211" class="s5" d="m444.2 522l30.3-25.2"/>
						</g>
					</g>
					<g id="g16197">
						<g id="g16199">
							<path id="path16201" fill-rule="evenodd" class="s4" d="m463.2 507c-5.6 8.6-18.7 13.4-18.7 13.4 0 0-3.3-30.5 27-41.7 0.1 1.8 1.7 12.9-8.3 28.3z"/>
							<path id="path16203" class="s5" d="m464.7 487.7c-9.1 7.1-19.9 32.8-19.9 32.8"/>
						</g>
						<g id="use16205">
							<path id="path38029" fill-rule="evenodd" class="s4" d="m491.8 503.1c-16.6 27.7-46.1 18.9-46.1 18.9 0 0 7.2-12 16.7-15.9 17-7.1 27.6-3.5 29.4-3z"/>
							<path id="path38031" class="s5" d="m481.6 508c-8.6 7.7-35.9 13.6-35.9 13.6"/>
						</g>
						<g id="g16207">
							<path id="path16209" fill-rule="evenodd" class="s4" d="m484.8 488.2c-1.9 11.1-8.5 18.3-14.6 23.4-6.2 5.1-25.5 10.4-25.3 9.8-0.7 0 8.1-18 14.2-23.1 6.2-5.1 14.3-10.2 25.7-10.1z"/>
							<path id="path16211" class="s5" d="m444.2 522l30.3-25.2"/>
						</g>
					</g>
				</g>
				<g id="g16183">
					<g id="g16185">
						<path id="rect16187" class="s2" d="m535.6 426.1l1.9 1.5-20.4 26.5-2-1.5z"/>
						<g id="g16189">
							<path id="rect16191" class="s2" d="m520.5 426.6l9.7 11.9-1.8 1.5-9.7-11.9z"/>
							<path id="path16193" fill-rule="evenodd" class="s3" d="m524.1 425.2c1.1 1.4 1.4 3.2 0.8 4.8-0.6 1.7-2 2.8-3.8 3.1-1.7 0.3-3.4-0.4-4.5-1.7-1.1-1.4-1.4-3.2-0.8-4.8 0.6-1.6 2.1-2.8 3.8-3.1 1.7-0.3 3.4 0.4 4.5 1.7z"/>
						</g>
						<g id="use16195">
							<path id="rect38041" class="s2" d="m539.9 444.5l-13.9-6.4 1-2.1 13.9 6.3z"/>
							<path id="path38043" fill-rule="evenodd" class="s3" d="m544.1 442.5c0.2 1.7-0.6 3.4-2 4.4-1.4 1-3.3 1.2-4.8 0.4-1.6-0.7-2.7-2.2-2.9-3.9-0.1-1.8 0.7-3.4 2.1-4.4 1.4-1 3.2-1.2 4.8-0.5 1.6 0.7 2.7 2.2 2.8 4z"/>
						</g>
					</g>
					<g id="g16197">
						<g id="g16199">
							<path id="path16201" fill-rule="evenodd" class="s4" d="m509.5 462.8c-3.6 9.6-15.3 17.2-15.3 17.2 0 0-9.8-29 17.3-46.6 0.5 1.8 4.5 12.2-2 29.4z"/>
							<path id="path16203" class="s5" d="m506.9 443.7c-7.4 8.9-12.4 36.3-12.4 36.3"/>
						</g>
						<g id="use16205">
							<path id="path38029" fill-rule="evenodd" class="s4" d="m536.6 452.8c-10.2 30.6-40.8 28.4-40.8 28.4 0 0 4.4-13.2 12.8-19.1 15-10.6 26.1-9.4 28-9.3z"/>
							<path id="path38031" class="s5" d="m527.8 459.8c-6.8 9.4-32.1 21.1-32.1 21.1"/>
						</g>
						<g id="g16207">
							<path id="path16209" fill-rule="evenodd" class="s4" d="m526.6 439.8c0.5 11.3-4.3 19.7-9.2 26-4.9 6.4-22.6 15.7-22.6 15.1-0.6 0.1 4-19.3 8.9-25.6 4.9-6.4 11.8-13.1 22.9-15.5z"/>
							<path id="path16211" class="s5" d="m494.2 481.6l24.2-31.2"/>
						</g>
					</g>
					<g id="g16197">
						<g id="g16199">
							<path id="path16201" fill-rule="evenodd" class="s4" d="m509.5 462.8c-3.6 9.6-15.3 17.2-15.3 17.2 0 0-9.8-29 17.3-46.6 0.5 1.8 4.5 12.2-2 29.4z"/>
							<path id="path16203" class="s5" d="m506.9 443.7c-7.4 8.9-12.4 36.3-12.4 36.3"/>
						</g>
						<g id="use16205">
							<path id="path38029" fill-rule="evenodd" class="s4" d="m536.6 452.8c-10.2 30.6-40.8 28.4-40.8 28.4 0 0 4.4-13.2 12.8-19.1 15-10.6 26.1-9.4 28-9.3z"/>
							<path id="path38031" class="s5" d="m527.8 459.8c-6.8 9.4-32.1 21.1-32.1 21.1"/>
						</g>
						<g id="g16207">
							<path id="path16209" fill-rule="evenodd" class="s4" d="m526.6 439.8c0.5 11.3-4.3 19.7-9.2 26-4.9 6.4-22.6 15.7-22.6 15.1-0.6 0.1 4-19.3 8.9-25.6 4.9-6.4 11.8-13.1 22.9-15.5z"/>
							<path id="path16211" class="s5" d="m494.2 481.6l24.2-31.2"/>
						</g>
					</g>
				</g>
				<g id="g16183">
					<g id="g16185">
						<path id="rect16187" class="s2" d="m561.2 367.2l2.2 1-13.3 30.7-2.2-1z"/>
						<g id="g16189">
							<path id="rect16191" class="s2" d="m546.7 371.4l12.3 9.1-1.4 1.9-12.4-9z"/>
							<path id="path16193" fill-rule="evenodd" class="s3" d="m549.8 369.2c1.4 1 2.1 2.7 2 4.4-0.2 1.8-1.3 3.3-2.9 4-1.6 0.6-3.5 0.4-4.9-0.6-1.4-1-2.1-2.7-1.9-4.4 0.2-1.8 1.3-3.3 2.9-4 1.6-0.7 3.4-0.4 4.8 0.6z"/>
						</g>
						<g id="use16195">
							<path id="rect38041" class="s2" d="m569.9 383.9l-15.1-2.7 0.4-2.3 15.1 2.7z"/>
							<path id="path38043" fill-rule="evenodd" class="s3" d="m573.5 380.9c0.6 1.6 0.2 3.5-0.9 4.8-1.1 1.3-2.9 1.9-4.6 1.6-1.7-0.3-3.1-1.5-3.7-3.1-0.6-1.6-0.2-3.5 0.9-4.8 1.1-1.3 2.8-1.9 4.6-1.6 1.7 0.3 3.1 1.5 3.7 3.1z"/>
						</g>
					</g>
					<g id="g16197">
						<g id="g16199">
							<path id="path16201" fill-rule="evenodd" class="s4" d="m545 409.2c-1.1 10.2-10.5 20.5-10.5 20.5 0 0-16.8-25.7 5.1-49.5 0.9 1.6 7.4 10.8 5.4 29z"/>
							<path id="path16203" class="s5" d="m537.7 391.4c-4.9 10.4-2.9 38.2-2.9 38.2"/>
						</g>
						<g id="use16205">
							<path id="path38029" fill-rule="evenodd" class="s4" d="m568.8 392.8c-2.3 32.2-32.5 37.7-32.5 37.7 0 0 0.9-14 7.6-21.7 11.9-14 23-15.6 24.9-16z"/>
							<path id="path38031" class="s5" d="m561.9 401.8c-4.2 10.7-25.8 28.4-25.8 28.4"/>
						</g>
						<g id="g16207">
							<path id="path16209" fill-rule="evenodd" class="s4" d="m555.8 382.7c3.3 10.8 0.7 20.1-2.4 27.5-3.2 7.3-18 20.8-18.2 20.1-0.5 0.4-0.9-19.6 2.3-26.9 3.2-7.4 8.1-15.7 18.3-20.7z"/>
							<path id="path16211" class="s5" d="m534.9 431.2l15.6-36.2"/>
						</g>
					</g>
					<g id="g16197">
						<g id="g16199">
							<path id="path16201" fill-rule="evenodd" class="s4" d="m545 409.2c-1.1 10.2-10.5 20.5-10.5 20.5 0 0-16.8-25.7 5.1-49.5 0.9 1.6 7.4 10.8 5.4 29z"/>
							<path id="path16203" class="s5" d="m537.7 391.4c-4.9 10.4-2.9 38.2-2.9 38.2"/>
						</g>
						<g id="use16205">
							<path id="path38029" fill-rule="evenodd" class="s4" d="m568.8 392.8c-2.3 32.2-32.5 37.7-32.5 37.7 0 0 0.9-14 7.6-21.7 11.9-14 23-15.6 24.9-16z"/>
							<path id="path38031" class="s5" d="m561.9 401.8c-4.2 10.7-25.8 28.4-25.8 28.4"/>
						</g>
						<g id="g16207">
							<path id="path16209" fill-rule="evenodd" class="s4" d="m555.8 382.7c3.3 10.8 0.7 20.1-2.4 27.5-3.2 7.3-18 20.8-18.2 20.1-0.5 0.4-0.9-19.6 2.3-26.9 3.2-7.4 8.1-15.7 18.3-20.7z"/>
							<path id="path16211" class="s5" d="m534.9 431.2l15.6-36.2"/>
						</g>
					</g>
				</g>
				<g id="g16183">
					<g id="g16185">
						<path id="rect16187" class="s2" d="m572.6 305.7l2.4 0.4-6.5 32.9-2.4-0.5z"/>
						<g id="g16189">
							<path id="rect16191" class="s2" d="m559.3 312.8l14 6.3-1 2.2-13.9-6.3z"/>
							<path id="path16193" fill-rule="evenodd" class="s3" d="m561.9 309.9c1.6 0.8 2.7 2.3 2.9 4 0.2 1.7-0.6 3.4-2 4.4-1.4 1-3.3 1.2-4.9 0.5-1.5-0.7-2.6-2.2-2.8-4-0.2-1.7 0.6-3.4 2-4.4 1.4-1 3.3-1.2 4.8-0.5z"/>
						</g>
						<g id="use16195">
							<path id="rect38041" class="s2" d="m584.6 320.2l-15.3 0.5-0.1-2.4 15.4-0.5z"/>
							<path id="path38043" fill-rule="evenodd" class="s3" d="m587.5 316.5c1 1.5 1 3.3 0.2 4.9-0.8 1.5-2.4 2.5-4.2 2.5-1.7 0.1-3.3-0.8-4.2-2.3-1-1.5-1-3.3-0.2-4.8 0.8-1.6 2.4-2.5 4.2-2.6 1.7 0 3.3 0.8 4.2 2.3z"/>
						</g>
					</g>
					<g id="g16197">
						<g id="g16199">
							<path id="path16201" fill-rule="evenodd" class="s4" d="m565.6 350.1c1 10.2-6.1 22.2-6.1 22.2 0 0-21.7-21.7-5.3-49.4 1.3 1.3 9.5 8.9 11.4 27.2z"/>
							<path id="path16203" class="s5" d="m554.7 334.1c-2.6 11.2 5.1 38.1 5.1 38.1"/>
						</g>
						<g id="use16205">
							<path id="path38029" fill-rule="evenodd" class="s4" d="m585.4 329.1c4.5 32-24 43.6-24 43.6 0 0-1.9-13.8 3-22.8 8.8-16.2 19.3-20 21-20.8z"/>
							<path id="path38031" class="s5" d="m580.6 339.3c-1.9 11.4-19.4 33.1-19.4 33.1"/>
						</g>
						<g id="g16207">
							<path id="path16209" fill-rule="evenodd" class="s4" d="m570.6 321.9c5.5 9.9 4.9 19.6 3.4 27.4-1.6 7.9-13.3 24.1-13.6 23.5-0.5 0.4-5-19-3.4-26.9 1.6-7.9 4.7-17 13.6-24z"/>
							<path id="path16211" class="s5" d="m560.2 373.7l7.8-38.6"/>
						</g>
					</g>
					<g id="g16197">
						<g id="g16199">
							<path id="path16201" fill-rule="evenodd" class="s4" d="m565.6 350.1c1 10.2-6.1 22.2-6.1 22.2 0 0-21.7-21.7-5.3-49.4 1.3 1.3 9.5 8.9 11.4 27.2z"/>
							<path id="path16203" class="s5" d="m554.7 334.1c-2.6 11.2 5.1 38.1 5.1 38.1"/>
						</g>
						<g id="use16205">
							<path id="path38029" fill-rule="evenodd" class="s4" d="m585.4 329.1c4.5 32-24 43.6-24 43.6 0 0-1.9-13.8 3-22.8 8.8-16.2 19.3-20 21-20.8z"/>
							<path id="path38031" class="s5" d="m580.6 339.3c-1.9 11.4-19.4 33.1-19.4 33.1"/>
						</g>
						<g id="g16207">
							<path id="path16209" fill-rule="evenodd" class="s4" d="m570.6 321.9c5.5 9.9 4.9 19.6 3.4 27.4-1.6 7.9-13.3 24.1-13.6 23.5-0.5 0.4-5-19-3.4-26.9 1.6-7.9 4.7-17 13.6-24z"/>
							<path id="path16211" class="s5" d="m560.2 373.7l7.8-38.6"/>
						</g>
					</g>
				</g>
				<g id="g16183">
					<g id="g16185">
						<path id="rect16187" class="s2" d="m568.8 240.5l2.4-0.2 1.8 33.4-2.4 0.2z"/>
						<g id="g16189">
							<path id="rect16191" class="s2" d="m557.7 250.7l15.1 2.6-0.5 2.4-15-2.7z"/>
							<path id="path16193" fill-rule="evenodd" class="s3" d="m559.5 247.3c1.7 0.3 3.1 1.5 3.7 3.1 0.6 1.6 0.3 3.4-0.8 4.8-1.1 1.3-2.9 1.9-4.6 1.6-1.7-0.3-3.1-1.4-3.7-3.1-0.6-1.6-0.3-3.4 0.8-4.8 1.1-1.3 2.9-1.9 4.6-1.6z"/>
						</g>
						<g id="use16195">
							<path id="rect38041" class="s2" d="m584 251.6l-14.7 4.2-0.7-2.3 14.7-4.2z"/>
							<path id="path38043" fill-rule="evenodd" class="s3" d="m585.9 247.2c1.3 1.2 1.8 3 1.4 4.7-0.5 1.7-1.8 3-3.4 3.5-1.7 0.5-3.5 0.1-4.7-1.1-1.3-1.2-1.8-3-1.4-4.7 0.4-1.7 1.7-3 3.4-3.5 1.6-0.5 3.4-0.1 4.7 1.1z"/>
						</g>
					</g>
					<g id="g16197">
						<g id="g16199">
							<path id="path16201" fill-rule="evenodd" class="s4" d="m573.1 285.3c3.5 9.6-0.4 23-0.4 23 0 0-26.5-15.6-17.5-46.6 1.6 1 11.5 6.3 17.9 23.6z"/>
							<path id="path16203" class="s5" d="m558.5 272.5c0.3 11.5 14.5 35.5 14.5 35.5"/>
						</g>
						<g id="use16205">
							<path id="path38029" fill-rule="evenodd" class="s4" d="m587 260c12.3 29.8-12.3 48.2-12.3 48.2 0 0-5.4-12.9-2.9-22.9 4.5-17.8 13.7-24.2 15.2-25.3z"/>
							<path id="path38031" class="s5" d="m584.9 271.1c1 11.4-10.5 36.9-10.5 36.9"/>
						</g>
						<g id="g16207">
							<path id="path16209" fill-rule="evenodd" class="s4" d="m570.9 256.7c7.8 8.2 9.6 17.7 10 25.7 0.5 8-6.8 26.6-7.2 26.1-0.3 0.6-9.6-17.2-10-25.2-0.5-8 0.3-17.6 7.2-26.6z"/>
							<path id="path16211" class="s5" d="m573.8 309.4l-2.2-39.3"/>
						</g>
					</g>
					<g id="g16197">
						<g id="g16199">
							<path id="path16201" fill-rule="evenodd" class="s4" d="m573.1 285.3c3.5 9.6-0.4 23-0.4 23 0 0-26.5-15.6-17.5-46.6 1.6 1 11.5 6.3 17.9 23.6z"/>
							<path id="path16203" class="s5" d="m558.5 272.5c0.3 11.5 14.5 35.5 14.5 35.5"/>
						</g>
						<g id="use16205">
							<path id="path38029" fill-rule="evenodd" class="s4" d="m587 260c12.3 29.8-12.3 48.2-12.3 48.2 0 0-5.4-12.9-2.9-22.9 4.5-17.8 13.7-24.2 15.2-25.3z"/>
							<path id="path38031" class="s5" d="m584.9 271.1c1 11.4-10.5 36.9-10.5 36.9"/>
						</g>
						<g id="g16207">
							<path id="path16209" fill-rule="evenodd" class="s4" d="m570.9 256.7c7.8 8.2 9.6 17.7 10 25.7 0.5 8-6.8 26.6-7.2 26.1-0.3 0.6-9.6-17.2-10-25.2-0.5-8 0.3-17.6 7.2-26.6z"/>
							<path id="path16211" class="s5" d="m573.8 309.4l-2.2-39.3"/>
						</g>
					</g>
				</g>
				<g id="g16183">
					<g id="g16185">
						<path id="rect16187" class="s2" d="m550.2 180.2l2.4-0.7 9.4 32.1-2.3 0.7z"/>
						<g id="g16189">
							<path id="rect16191" class="s2" d="m541.8 192.7l15.3-0.9 0.1 2.3-15.3 0.9z"/>
							<path id="path16193" fill-rule="evenodd" class="s3" d="m542.8 188.9c1.7-0.1 3.4 0.8 4.3 2.2 1 1.5 1.1 3.3 0.3 4.9-0.8 1.5-2.3 2.5-4.1 2.6-1.7 0.1-3.4-0.7-4.3-2.1-1-1.5-1.1-3.3-0.3-4.9 0.8-1.5 2.3-2.6 4.1-2.7z"/>
						</g>
						<g id="use16195">
							<path id="rect38041" class="s2" d="m567.6 187.5l-13.3 7.5-1.2-2.1 13.3-7.5z"/>
							<path id="path38043" fill-rule="evenodd" class="s3" d="m568.5 182.8c1.5 0.9 2.4 2.5 2.4 4.3-0.1 1.7-1 3.3-2.5 4.2-1.5 0.8-3.4 0.8-4.9-0.1-1.5-0.9-2.4-2.5-2.4-4.2 0-1.8 1-3.4 2.5-4.2 1.5-0.9 3.4-0.8 4.9 0z"/>
						</g>
					</g>
					<g id="g16197">
						<g id="g16199">
							<path id="path16201" fill-rule="evenodd" class="s4" d="m564.7 222.8c5.7 8.5 5 22.4 5 22.4 0 0-29.4-9-27.7-41.2 1.7 0.6 12.5 3.5 22.7 18.8z"/>
							<path id="path16203" class="s5" d="m547.6 213.7c2.9 11.1 22.3 31.3 22.3 31.3"/>
						</g>
						<g id="use16205">
							<path id="path38029" fill-rule="evenodd" class="s4" d="m572.4 195c18.9 26.2-0.8 49.7-0.8 49.7 0 0-8.2-11.3-8.1-21.6 0.3-18.4 7.8-26.7 8.9-28.1z"/>
							<path id="path38031" class="s5" d="m573 206.3c3.6 10.9-1.7 38.3-1.7 38.3"/>
						</g>
						<g id="g16207">
							<path id="path16209" fill-rule="evenodd" class="s4" d="m556 195.5c9.5 6.2 13.5 15 15.7 22.7 2.3 7.7-0.5 27.5-1 27.1-0.2 0.6-13.3-14.6-15.5-22.2-2.3-7.7-3.8-17.2 0.8-27.6z"/>
							<path id="path16211" class="s5" d="m571 246.1l-11.2-37.8"/>
						</g>
					</g>
					<g id="g16197">
						<g id="g16199">
							<path id="path16201" fill-rule="evenodd" class="s4" d="m564.7 222.8c5.7 8.5 5 22.4 5 22.4 0 0-29.4-9-27.7-41.2 1.7 0.6 12.5 3.5 22.7 18.8z"/>
							<path id="path16203" class="s5" d="m547.6 213.7c2.9 11.1 22.3 31.3 22.3 31.3"/>
						</g>
						<g id="use16205">
							<path id="path38029" fill-rule="evenodd" class="s4" d="m572.4 195c18.9 26.2-0.8 49.7-0.8 49.7 0 0-8.2-11.3-8.1-21.6 0.3-18.4 7.8-26.7 8.9-28.1z"/>
							<path id="path38031" class="s5" d="m573 206.3c3.6 10.9-1.7 38.3-1.7 38.3"/>
						</g>
						<g id="g16207">
							<path id="path16209" fill-rule="evenodd" class="s4" d="m556 195.5c9.5 6.2 13.5 15 15.7 22.7 2.3 7.7-0.5 27.5-1 27.1-0.2 0.6-13.3-14.6-15.5-22.2-2.3-7.7-3.8-17.2 0.8-27.6z"/>
							<path id="path16211" class="s5" d="m571 246.1l-11.2-37.8"/>
						</g>
					</g>
				</g>
				<g id="g16183">
					<g id="g16185">
						<path id="rect16187" class="s2" d="m518.4 125.7l2.1-1.2 16.7 29.1-2.1 1.2z"/>
						<g id="g16189">
							<path id="rect16191" class="s2" d="m513.1 139.9l14.6-4.5 0.7 2.3-14.6 4.5z"/>
							<path id="path16193" fill-rule="evenodd" class="s3" d="m513.1 136c1.7-0.5 3.5-0.1 4.8 1.1 1.3 1.2 1.8 3 1.4 4.7-0.4 1.7-1.7 3-3.3 3.5-1.7 0.5-3.5 0.1-4.8-1.1-1.2-1.2-1.8-3-1.4-4.6 0.4-1.7 1.7-3.1 3.3-3.6z"/>
						</g>
						<g id="use16195">
							<path id="rect38041" class="s2" d="m537 128.8l-11.2 10.4-1.7-1.7 11.3-10.4z"/>
							<path id="path38043" fill-rule="evenodd" class="s3" d="m536.7 124.1c1.7 0.5 3 1.9 3.4 3.6 0.3 1.7-0.2 3.4-1.5 4.6-1.3 1.2-3.1 1.6-4.7 1.1-1.7-0.5-3-1.9-3.3-3.6-0.4-1.6 0.1-3.4 1.4-4.6 1.3-1.2 3.1-1.6 4.7-1.1z"/>
						</g>
					</g>
					<g id="g16197">
						<g id="g16199">
							<path id="path16201" fill-rule="evenodd" class="s4" d="m542.4 163.8c7.5 7 10 20.7 10 20.7 0 0-30.6-1.9-36.5-33.7 1.8 0.2 13 0.5 26.5 13z"/>
							<path id="path16203" class="s5" d="m523.7 159c5.4 10.1 28.8 25.2 28.8 25.2"/>
						</g>
						<g id="use16205">
							<path id="path38029" fill-rule="evenodd" class="s4" d="m543.4 135c24.5 21.1 10.7 48.6 10.7 48.6 0 0-10.5-9.2-12.8-19.1-4-18 1.3-27.8 2.1-29.5z"/>
							<path id="path38031" class="s5" d="m546.6 145.9c6 9.7 7.2 37.6 7.2 37.6"/>
						</g>
						<g id="g16207">
							<path id="path16209" fill-rule="evenodd" class="s4" d="m527.6 139.3c10.6 3.8 16.6 11.5 20.5 18.4 4 7 5.9 26.9 5.3 26.6 0 0.7-16.3-11-20.3-17.9-4-7-7.6-15.9-5.5-27.1z"/>
							<path id="path16211" class="s5" d="m553.9 185.1l-19.6-34.2"/>
						</g>
					</g>
					<g id="g16197">
						<g id="g16199">
							<path id="path16201" fill-rule="evenodd" class="s4" d="m542.4 163.8c7.5 7 10 20.7 10 20.7 0 0-30.6-1.9-36.5-33.7 1.8 0.2 13 0.5 26.5 13z"/>
							<path id="path16203" class="s5" d="m523.7 159c5.4 10.1 28.8 25.2 28.8 25.2"/>
						</g>
						<g id="use16205">
							<path id="path38029" fill-rule="evenodd" class="s4" d="m543.4 135c24.5 21.1 10.7 48.6 10.7 48.6 0 0-10.5-9.2-12.8-19.1-4-18 1.3-27.8 2.1-29.5z"/>
							<path id="path38031" class="s5" d="m546.6 145.9c6 9.7 7.2 37.6 7.2 37.6"/>
						</g>
						<g id="g16207">
							<path id="path16209" fill-rule="evenodd" class="s4" d="m527.6 139.3c10.6 3.8 16.6 11.5 20.5 18.4 4 7 5.9 26.9 5.3 26.6 0 0.7-16.3-11-20.3-17.9-4-7-7.6-15.9-5.5-27.1z"/>
							<path id="path16211" class="s5" d="m553.9 185.1l-19.6-34.2"/>
						</g>
					</g>
				</g>
				<g id="g16183">
					<g id="g16185">
						<path id="rect16187" class="s2" d="m472.4 79.5l1.7-1.7 23.5 23.8-1.7 1.8z"/>
						<g id="g16189">
							<path id="rect16191" class="s2" d="m470.8 94.5l13.1-8 1.3 2-13.1 8z"/>
							<path id="path16193" fill-rule="evenodd" class="s3" d="m469.9 90.8c1.5-1 3.4-1 4.9-0.2 1.5 0.8 2.5 2.4 2.6 4.2 0 1.7-0.9 3.3-2.4 4.2-1.5 0.9-3.3 1-4.8 0.2-1.6-0.9-2.5-2.4-2.6-4.2 0-1.7 0.9-3.3 2.3-4.2z"/>
						</g>
						<g id="use16195">
							<path id="rect38041" class="s2" d="m491.2 77.8l-8.2 12.9-2-1.3 8.2-12.9z"/>
							<path id="path38043" fill-rule="evenodd" class="s3" d="m489.7 73.3c1.8 0 3.3 1 4.1 2.6 0.9 1.5 0.8 3.4-0.2 4.8-0.9 1.5-2.5 2.4-4.3 2.3-1.7-0.1-3.3-1.1-4.1-2.6-0.8-1.6-0.7-3.4 0.2-4.9 1-1.4 2.6-2.3 4.3-2.2z"/>
						</g>
					</g>
					<g id="g16197">
						<g id="g16199">
							<path id="path16201" fill-rule="evenodd" class="s4" d="m505.3 110.3c9 4.8 15 17.4 15 17.4 0 0-30.2 5.9-44-23.3 1.9-0.3 12.8-2.8 29 5.9z"/>
							<path id="path16203" class="s5" d="m485.9 110.3c7.8 8.5 34.4 17.1 34.4 17.1"/>
						</g>
						<g id="use16205">
							<path id="path38029" fill-rule="evenodd" class="s4" d="m499 82.1c29 14.2 22.7 44.3 22.7 44.3 0 0-12.6-6.2-17.3-15.3-8.5-16.3-5.8-27.2-5.4-29z"/>
							<path id="path38031" class="s5" d="m504.8 91.8c8.3 7.9 16.5 34.6 16.5 34.6"/>
						</g>
						<g id="g16207">
							<path id="path16209" fill-rule="evenodd" class="s4" d="m484.7 90.3c11.3 1 19 6.9 24.6 12.6 5.6 5.7 12.5 24.5 11.9 24.4 0.1 0.6-18.6-6.6-24.2-12.3-5.7-5.7-11.4-13.4-12.3-24.7z"/>
							<path id="path16211" class="s5" d="m521.8 127.9l-27.7-28.1"/>
						</g>
					</g>
					<g id="g16197">
						<g id="g16199">
							<path id="path16201" fill-rule="evenodd" class="s4" d="m505.3 110.3c9 4.8 15 17.4 15 17.4 0 0-30.2 5.9-44-23.3 1.9-0.3 12.8-2.8 29 5.9z"/>
							<path id="path16203" class="s5" d="m485.9 110.3c7.8 8.5 34.4 17.1 34.4 17.1"/>
						</g>
						<g id="use16205">
							<path id="path38029" fill-rule="evenodd" class="s4" d="m499 82.1c29 14.2 22.7 44.3 22.7 44.3 0 0-12.6-6.2-17.3-15.3-8.5-16.3-5.8-27.2-5.4-29z"/>
							<path id="path38031" class="s5" d="m504.8 91.8c8.3 7.9 16.5 34.6 16.5 34.6"/>
						</g>
						<g id="g16207">
							<path id="path16209" fill-rule="evenodd" class="s4" d="m484.7 90.3c11.3 1 19 6.9 24.6 12.6 5.6 5.7 12.5 24.5 11.9 24.4 0.1 0.6-18.6-6.6-24.2-12.3-5.7-5.7-11.4-13.4-12.3-24.7z"/>
							<path id="path16211" class="s5" d="m521.8 127.9l-27.7-28.1"/>
						</g>
					</g>
				</g>
				<g id="g16183">
					<g id="g16185">
						<path id="rect16187" class="s2" d="m417.7 44.3l1.3-2.1 28.3 17.9-1.3 2z"/>
						<g id="g16189">
							<path id="rect16191" class="s2" d="m419.6 59.2l10.9-10.7 1.7 1.7-10.9 10.7z"/>
							<path id="path16193" fill-rule="evenodd" class="s3" d="m417.9 55.8c1.2-1.3 3-1.7 4.7-1.3 1.7 0.5 3 1.8 3.4 3.5 0.5 1.7 0 3.5-1.3 4.7-1.2 1.2-3 1.7-4.7 1.2-1.7-0.4-3-1.8-3.4-3.4-0.4-1.7 0.1-3.5 1.3-4.7z"/>
						</g>
						<g id="use16195">
							<path id="rect38041" class="s2" d="m435.6 38.3l-5 14.4-2.3-0.8 5.1-14.4z"/>
							<path id="path38043" fill-rule="evenodd" class="s3" d="m433.2 34.2c1.7-0.3 3.5 0.3 4.6 1.7 1.1 1.3 1.5 3.1 0.9 4.7-0.6 1.7-2 2.9-3.7 3.2-1.7 0.3-3.5-0.3-4.6-1.6-1.1-1.3-1.5-3.1-0.9-4.8 0.6-1.6 2-2.8 3.7-3.2z"/>
						</g>
					</g>
					<g id="g16197">
						<g id="g16199">
							<path id="path16201" fill-rule="evenodd" class="s4" d="m456.8 66.7c9.8 2.7 18.5 13.7 18.5 13.7 0 0-28 12.5-48.1-12.8 1.7-0.7 11.8-5.7 29.6-0.9z"/>
							<path id="path16203" class="s5" d="m437.9 71.2c9.5 6.4 37.4 8.8 37.4 8.8"/>
						</g>
						<g id="use16205">
							<path id="path38029" fill-rule="evenodd" class="s4" d="m444.2 40.8c31.5 7.2 32.2 37.9 32.2 37.9 0 0-13.6-3.1-20.3-10.9-12-14-11.8-25.2-11.9-27z"/>
							<path id="path38031" class="s5" d="m452 48.9c10 5.8 24.1 29.9 24.1 29.9"/>
						</g>
						<g id="g16207">
							<path id="path16209" fill-rule="evenodd" class="s4" d="m432.2 52c11.2-1.6 20 2.4 26.8 6.7 6.8 4.2 17.7 21 17.1 21 0.2 0.6-19.6-2.2-26.3-6.4-6.8-4.3-14.2-10.5-17.6-21.3z"/>
							<path id="path16211" class="s5" d="m476.9 80.2l-33.4-21.1"/>
						</g>
					</g>
					<g id="g16197">
						<g id="g16199">
							<path id="path16201" fill-rule="evenodd" class="s4" d="m456.8 66.7c9.8 2.7 18.5 13.7 18.5 13.7 0 0-28 12.5-48.1-12.8 1.7-0.7 11.8-5.7 29.6-0.9z"/>
							<path id="path16203" class="s5" d="m437.9 71.2c9.5 6.4 37.4 8.8 37.4 8.8"/>
						</g>
						<g id="use16205">
							<path id="path38029" fill-rule="evenodd" class="s4" d="m444.2 40.8c31.5 7.2 32.2 37.9 32.2 37.9 0 0-13.6-3.1-20.3-10.9-12-14-11.8-25.2-11.9-27z"/>
							<path id="path38031" class="s5" d="m452 48.9c10 5.8 24.1 29.9 24.1 29.9"/>
						</g>
						<g id="g16207">
							<path id="path16209" fill-rule="evenodd" class="s4" d="m432.2 52c11.2-1.6 20 2.4 26.8 6.7 6.8 4.2 17.7 21 17.1 21 0.2 0.6-19.6-2.2-26.3-6.4-6.8-4.3-14.2-10.5-17.6-21.3z"/>
							<path id="path16211" class="s5" d="m476.9 80.2l-33.4-21.1"/>
						</g>
					</g>
				</g>
				<g id="g16183">
					<g id="g16185">
						<path id="rect16187" class="s2" d="m355.9 23.4l0.8-2.3 31.7 10.7-0.8 2.3z"/>
						<g id="g16189">
							<path id="rect16191" class="s2" d="m361.3 37.5l8-13.1 2 1.3-8 13z"/>
							<path id="path16193" fill-rule="evenodd" class="s3" d="m358.8 34.5c0.9-1.4 2.5-2.3 4.3-2.3 1.7 0.1 3.3 1 4.1 2.6 0.8 1.5 0.8 3.4-0.1 4.8-0.9 1.5-2.6 2.4-4.3 2.4-1.7-0.1-3.3-1.1-4.2-2.6-0.8-1.5-0.7-3.4 0.2-4.9z"/>
						</g>
						<g id="use16195">
							<path id="rect38041" class="s2" d="m371.9 13.4l-1.5 15.2-2.4-0.2 1.5-15.3z"/>
							<path id="path38043" fill-rule="evenodd" class="s3" d="m368.5 10c1.6-0.7 3.5-0.5 4.9 0.5 1.4 1 2.2 2.7 2 4.4-0.2 1.7-1.3 3.2-2.8 4-1.6 0.7-3.5 0.5-4.9-0.5-1.4-1-2.2-2.7-2-4.4 0.2-1.8 1.2-3.3 2.8-4z"/>
						</g>
					</g>
					<g id="g16197">
						<g id="g16199">
							<path id="path16201" fill-rule="evenodd" class="s4" d="m399.1 36c10.3 0.2 21.3 8.8 21.3 8.8 0 0-24.2 18.8-49.8-1 1.6-1.1 10.1-8.3 28.5-7.8z"/>
							<path id="path16203" class="s5" d="m381.9 44.8c10.8 4 38.4-0.3 38.4-0.3"/>
						</g>
						<g id="use16205">
							<path id="path38029" fill-rule="evenodd" class="s4" d="m380.8 13.7c32.3-0.4 40.2 29.2 40.2 29.2 0 0-13.9 0.2-22.2-5.7-15-10.8-17.5-21.7-18-23.5z"/>
							<path id="path38031" class="s5" d="m390.3 19.8c11 3.3 30.5 23.3 30.5 23.3"/>
						</g>
						<g id="g16207">
							<path id="path16209" fill-rule="evenodd" class="s4" d="m371.8 27.5c10.5-4.3 20-2.4 27.6 0.1 7.6 2.6 22.2 16.2 21.6 16.4 0.4 0.5-19.5 2.5-27.1 0-7.6-2.6-16.3-6.8-22.1-16.5z"/>
							<path id="path16211" class="s5" d="m421.9 44.3l-37.4-12.6"/>
						</g>
					</g>
					<g id="g16197">
						<g id="g16199">
							<path id="path16201" fill-rule="evenodd" class="s4" d="m399.1 36c10.3 0.2 21.3 8.8 21.3 8.8 0 0-24.2 18.8-49.8-1 1.6-1.1 10.1-8.3 28.5-7.8z"/>
							<path id="path16203" class="s5" d="m381.9 44.8c10.8 4 38.4-0.3 38.4-0.3"/>
						</g>
						<g id="use16205">
							<path id="path38029" fill-rule="evenodd" class="s4" d="m380.8 13.7c32.3-0.4 40.2 29.2 40.2 29.2 0 0-13.9 0.2-22.2-5.7-15-10.8-17.5-21.7-18-23.5z"/>
							<path id="path38031" class="s5" d="m390.3 19.8c11 3.3 30.5 23.3 30.5 23.3"/>
						</g>
						<g id="g16207">
							<path id="path16209" fill-rule="evenodd" class="s4" d="m371.8 27.5c10.5-4.3 20-2.4 27.6 0.1 7.6 2.6 22.2 16.2 21.6 16.4 0.4 0.5-19.5 2.5-27.1 0-7.6-2.6-16.3-6.8-22.1-16.5z"/>
							<path id="path16211" class="s5" d="m421.9 44.3l-37.4-12.6"/>
						</g>
					</g>
				</g>
				<g id="g16197">
					<g id="g16199">
						<path id="path16201" fill-rule="evenodd" class="s4" d="m336.4 20c10.1-1.9 22.7 4.1 22.7 4.1 0 0-19.7 23.5-48.9 9.5 1.3-1.4 8.2-10.2 26.2-13.6z"/>
						<path id="path16203" class="s5" d="m321.4 32.2c11.4 1.6 37.5-8.3 37.5-8.3"/>
					</g>
					<g id="use16205">
						<path id="path38029" fill-rule="evenodd" class="s4" d="m313.8 2.1c31.5-7.2 45.5 20.1 45.5 20.1 0 0-13.6 3.1-23-1-16.9-7.4-21.6-17.5-22.5-19.1z"/>
						<path id="path38031" class="s5" d="m324.4 6c11.5 0.9 34.7 16.4 34.7 16.4"/>
					</g>
					<g id="g16207">
						<path id="path16209" fill-rule="evenodd" class="s4" d="m307.9 17.4c9.4-6.3 19.1-6.6 27-5.7 8 0.9 25.2 11.2 24.6 11.5 0.5 0.4-18.6 6.6-26.5 5.7-8-0.9-17.3-3.2-25.1-11.5z"/>
						<path id="path16211" class="s5" d="m360.4 23.3l-39.2-4.4"/>
					</g>
				</g>
			</g>
			<g id="g17735">
				<path id="rect17799" class="s2" d="m309.4 574.9c0 0.1-0.2 0.2-0.3 0.2l-35.8-5.4c-0.2 0-0.3-0.1-0.3-0.3l0.3-1.9c0-0.1 0.2-0.2 0.3-0.2l35.9 5.4c0.1 0 0.2 0.1 0.2 0.3z"/>
				<g id="g16183">
					<g id="g16185">
						<path id="rect16187" class="s2" d="m243.6 556.8l-0.8 2.3-31.8-10.7 0.8-2.3z"/>
						<g id="g16189">
							<path id="rect16191" class="s2" d="m227 538.4l-1.5 15.2-2.4-0.2 1.6-15.3z"/>
							<path id="path16193" fill-rule="evenodd" class="s3" d="m223.7 535c1.6-0.7 3.4-0.5 4.9 0.5 1.4 1 2.1 2.7 2 4.4-0.2 1.7-1.3 3.3-2.9 4-1.6 0.7-3.4 0.5-4.8-0.5-1.4-1-2.2-2.7-2-4.4 0.2-1.8 1.2-3.3 2.8-4z"/>
						</g>
						<g id="use16195">
							<path id="rect38041" class="s2" d="m216.4 562.5l8.1-13 2 1.2-8.1 13z"/>
							<path id="path38043" fill-rule="evenodd" class="s3" d="m213.9 559.5c0.9-1.5 2.6-2.3 4.3-2.3 1.7 0.1 3.3 1 4.1 2.6 0.9 1.5 0.8 3.4-0.1 4.8-0.9 1.5-2.5 2.4-4.3 2.3-1.7 0-3.3-1-4.1-2.5-0.8-1.5-0.8-3.4 0.1-4.9z"/>
						</g>
					</g>
					<g id="g16197">
						<g id="g16199">
							<path id="path16201" fill-rule="evenodd" class="s4" d="m235.9 538.7c32.4-0.3 40.3 29.3 40.3 29.3 0 0-14 0.2-22.3-5.8-14.9-10.8-17.4-21.7-18-23.5z"/>
							<path id="path16203" class="s5" d="m245.5 544.8c11 3.3 30.4 23.4 30.4 23.4"/>
						</g>
						<g id="use16205">
							<path id="path38029" fill-rule="evenodd" class="s4" d="m254.3 561c10.2 0.3 21.2 8.9 21.2 8.9 0 0-24.3 18.8-49.7-1.1 1.5-1.1 10.1-8.2 28.5-7.8z"/>
							<path id="path38031" class="s5" d="m237 569.8c10.8 4 38.4-0.2 38.4-0.2"/>
						</g>
						<g id="g16207">
							<path id="path16209" fill-rule="evenodd" class="s4" d="m254.6 552.7c7.5 2.5 22.1 16.2 21.5 16.4 0.4 0.5-19.5 2.5-27.1-0.1-7.6-2.5-16.3-6.8-22.1-16.5 10.6-4.2 20-2.4 27.7 0.2z"/>
							<path id="path16211" class="s5" d="m277 569.4l-37.4-12.6"/>
						</g>
					</g>
					<g id="g16197">
						<g id="g16199">
							<path id="path16201" fill-rule="evenodd" class="s4" d="m235.9 538.7c32.4-0.3 40.3 29.3 40.3 29.3 0 0-14 0.2-22.3-5.8-14.9-10.8-17.4-21.7-18-23.5z"/>
							<path id="path16203" class="s5" d="m245.5 544.8c11 3.3 30.4 23.4 30.4 23.4"/>
						</g>
						<g id="use16205">
							<path id="path38029" fill-rule="evenodd" class="s4" d="m254.3 561c10.2 0.3 21.2 8.9 21.2 8.9 0 0-24.3 18.8-49.7-1.1 1.5-1.1 10.1-8.2 28.5-7.8z"/>
							<path id="path38031" class="s5" d="m237 569.8c10.8 4 38.4-0.2 38.4-0.2"/>
						</g>
						<g id="g16207">
							<path id="path16209" fill-rule="evenodd" class="s4" d="m254.6 552.7c7.5 2.5 22.1 16.2 21.5 16.4 0.4 0.5-19.5 2.5-27.1-0.1-7.6-2.5-16.3-6.8-22.1-16.5 10.6-4.2 20-2.4 27.7 0.2z"/>
							<path id="path16211" class="s5" d="m277 569.4l-37.4-12.6"/>
						</g>
					</g>
				</g>
				<g id="g16183">
					<g id="g16185">
						<path id="rect16187" class="s2" d="m183.9 532.9l-1 2.2-30.1-14.7 1-2.2z"/>
						<g id="g16189">
							<path id="rect16191" class="s2" d="m169.9 512.5l-3.4 14.9-2.4-0.5 3.5-14.9z"/>
							<path id="path16193" fill-rule="evenodd" class="s3" d="m167 508.8c1.7-0.6 3.5-0.1 4.8 1 1.3 1.2 1.8 3 1.4 4.7-0.4 1.7-1.6 3-3.3 3.5-1.7 0.6-3.5 0.1-4.7-1-1.3-1.2-1.9-3-1.5-4.7 0.4-1.7 1.7-3 3.3-3.5z"/>
						</g>
						<g id="use16195">
							<path id="rect38041" class="s2" d="m156.3 535.1l9.6-11.9 1.9 1.5-9.6 11.9z"/>
							<path id="path38043" fill-rule="evenodd" class="s3" d="m154.2 531.8c1.1-1.3 2.8-2 4.6-1.7 1.7 0.3 3.1 1.4 3.7 3 0.7 1.7 0.4 3.5-0.7 4.8-1.1 1.4-2.9 2.1-4.6 1.8-1.7-0.3-3.1-1.5-3.8-3.1-0.6-1.6-0.3-3.4 0.8-4.8z"/>
						</g>
					</g>
					<g id="g16197">
						<g id="g16199">
							<path id="path16201" fill-rule="evenodd" class="s4" d="m178.7 514c32.1 3.8 36.1 34.2 36.1 34.2 0 0-13.8-1.6-21.3-8.6-13.4-12.6-14.5-23.7-14.8-25.6z"/>
							<path id="path16203" class="s5" d="m187.4 521.2c10.5 4.7 27.2 27.1 27.2 27.1"/>
						</g>
						<g id="use16205">
							<path id="path38029" fill-rule="evenodd" class="s4" d="m194 538.5c10.2 1.5 20 11.5 20 11.5 0 0-26.5 15.5-49.2-7.4 1.6-1 11-7 29.2-4.1z"/>
							<path id="path38031" class="s5" d="m175.8 544.9c10.2 5.4 38.1 4.7 38.1 4.7"/>
						</g>
						<g id="g16207">
							<path id="path16209" fill-rule="evenodd" class="s4" d="m195.4 530.2c7.2 3.5 19.9 18.9 19.3 19 0.3 0.6-19.7 0-26.9-3.5-7.2-3.5-15.3-8.9-19.8-19.2 11-2.9 20.2 0.2 27.4 3.7z"/>
							<path id="path16211" class="s5" d="m215.5 549.6l-35.4-17.3"/>
						</g>
					</g>
					<g id="g16197">
						<g id="g16199">
							<path id="path16201" fill-rule="evenodd" class="s4" d="m178.7 514c32.1 3.8 36.1 34.2 36.1 34.2 0 0-13.8-1.6-21.3-8.6-13.4-12.6-14.5-23.7-14.8-25.6z"/>
							<path id="path16203" class="s5" d="m187.4 521.2c10.5 4.7 27.2 27.1 27.2 27.1"/>
						</g>
						<g id="use16205">
							<path id="path38029" fill-rule="evenodd" class="s4" d="m194 538.5c10.2 1.5 20 11.5 20 11.5 0 0-26.5 15.5-49.2-7.4 1.6-1 11-7 29.2-4.1z"/>
							<path id="path38031" class="s5" d="m175.8 544.9c10.2 5.4 38.1 4.7 38.1 4.7"/>
						</g>
						<g id="g16207">
							<path id="path16209" fill-rule="evenodd" class="s4" d="m195.4 530.2c7.2 3.5 19.9 18.9 19.3 19 0.3 0.6-19.7 0-26.9-3.5-7.2-3.5-15.3-8.9-19.8-19.2 11-2.9 20.2 0.2 27.4 3.7z"/>
							<path id="path16211" class="s5" d="m215.5 549.6l-35.4-17.3"/>
						</g>
					</g>
				</g>
				<g id="g16183">
					<g id="g16185">
						<path id="rect16187" class="s2" d="m129.6 498.2l-1.6 1.9-25.7-21.4 1.5-1.9z"/>
						<g id="g16189">
							<path id="rect16191" class="s2" d="m120.8 475.1l-6.9 13.7-2.1-1.1 6.8-13.7z"/>
							<path id="path16193" fill-rule="evenodd" class="s3" d="m118.9 470.8c1.7-0.1 3.4 0.7 4.3 2.2 1 1.4 1.1 3.3 0.3 4.8-0.8 1.6-2.3 2.6-4 2.7-1.8 0.1-3.4-0.7-4.4-2.2-0.9-1.4-1-3.3-0.3-4.8 0.8-1.6 2.4-2.6 4.1-2.7z"/>
						</g>
						<g id="use16195">
							<path id="rect38041" class="s2" d="m102.2 493.8l12.2-9.3 1.5 1.9-12.2 9.3z"/>
							<path id="path38043" fill-rule="evenodd" class="s3" d="m100.9 490.1c1.4-1 3.3-1.2 4.9-0.6 1.6 0.7 2.7 2.2 2.9 3.9 0.2 1.7-0.5 3.4-1.9 4.5-1.4 1-3.2 1.3-4.8 0.6-1.6-0.7-2.7-2.1-2.9-3.9-0.3-1.7 0.5-3.4 1.8-4.5z"/>
						</g>
					</g>
					<g id="g16197">
						<g id="g16199">
							<path id="path16201" fill-rule="evenodd" class="s4" d="m129 478.7c30.3 11.2 27 41.7 27 41.7 0 0-13.1-4.8-18.7-13.4-10.1-15.4-8.5-26.5-8.3-28.3z"/>
							<path id="path16203" class="s5" d="m135.7 487.7c9.1 7.1 19.9 32.8 19.9 32.8"/>
						</g>
						<g id="use16205">
							<path id="path38029" fill-rule="evenodd" class="s4" d="m138.1 506.1c9.4 3.9 16.6 15.9 16.6 15.9 0 0-29.4 8.8-46.1-18.9 1.9-0.5 12.4-4.1 29.5 3z"/>
							<path id="path38031" class="s5" d="m118.8 508c8.6 7.7 35.9 13.6 35.9 13.6"/>
						</g>
						<g id="g16207">
							<path id="path16209" fill-rule="evenodd" class="s4" d="m141.3 498.3c6.2 5.1 14.9 23.1 14.3 23.1 0.1 0.6-19.2-4.7-25.3-9.8-6.2-5.1-12.8-12.3-14.7-23.4 11.4-0.1 19.5 5 25.7 10.1z"/>
							<path id="path16211" class="s5" d="m156.3 522l-30.4-25.2"/>
						</g>
					</g>
					<g id="g16197">
						<g id="g16199">
							<path id="path16201" fill-rule="evenodd" class="s4" d="m129 478.7c30.3 11.2 27 41.7 27 41.7 0 0-13.1-4.8-18.7-13.4-10.1-15.4-8.5-26.5-8.3-28.3z"/>
							<path id="path16203" class="s5" d="m135.7 487.7c9.1 7.1 19.9 32.8 19.9 32.8"/>
						</g>
						<g id="use16205">
							<path id="path38029" fill-rule="evenodd" class="s4" d="m138.1 506.1c9.4 3.9 16.6 15.9 16.6 15.9 0 0-29.4 8.8-46.1-18.9 1.9-0.5 12.4-4.1 29.5 3z"/>
							<path id="path38031" class="s5" d="m118.8 508c8.6 7.7 35.9 13.6 35.9 13.6"/>
						</g>
						<g id="g16207">
							<path id="path16209" fill-rule="evenodd" class="s4" d="m141.3 498.3c6.2 5.1 14.9 23.1 14.3 23.1 0.1 0.6-19.2-4.7-25.3-9.8-6.2-5.1-12.8-12.3-14.7-23.4 11.4-0.1 19.5 5 25.7 10.1z"/>
							<path id="path16211" class="s5" d="m156.3 522l-30.4-25.2"/>
						</g>
					</g>
				</g>
				<g id="g16183">
					<g id="g16185">
						<path id="rect16187" class="s2" d="m85.3 452.6l-1.9 1.5-20.5-26.5 1.9-1.5z"/>
						<g id="g16189">
							<path id="rect16191" class="s2" d="m81.7 428.1l-9.6 11.9-1.9-1.5 9.7-11.9z"/>
							<path id="path16193" fill-rule="evenodd" class="s3" d="m80.8 423.5c1.8 0.3 3.2 1.5 3.8 3.1 0.6 1.6 0.3 3.4-0.8 4.8-1.1 1.3-2.8 2-4.5 1.7-1.7-0.3-3.2-1.4-3.8-3.1-0.6-1.6-0.3-3.4 0.8-4.8 1.1-1.3 2.8-2 4.5-1.7z"/>
						</g>
						<g id="use16195">
							<path id="rect38041" class="s2" d="m59.5 442.3l14-6.3 1 2.1-14 6.4z"/>
							<path id="path38043" fill-rule="evenodd" class="s3" d="m59.1 438.5c1.6-0.7 3.4-0.5 4.8 0.5 1.5 1 2.2 2.6 2.1 4.4-0.2 1.7-1.3 3.2-2.8 3.9-1.6 0.8-3.5 0.6-4.9-0.4-1.4-1-2.2-2.7-2-4.4 0.1-1.8 1.2-3.3 2.8-4z"/>
						</g>
					</g>
					<g id="g16197">
						<g id="g16199">
							<path id="path16201" fill-rule="evenodd" class="s4" d="m89 433.4c27.1 17.6 17.2 46.6 17.2 46.6 0 0-11.7-7.6-15.3-17.2-6.5-17.2-2.5-27.6-1.9-29.4z"/>
							<path id="path16203" class="s5" d="m93.5 443.7c7.4 8.9 12.4 36.3 12.4 36.3"/>
						</g>
						<g id="use16205">
							<path id="path38029" fill-rule="evenodd" class="s4" d="m91.9 462.1c8.4 5.9 12.7 19.1 12.7 19.1 0 0-30.6 2.2-40.8-28.4 1.9-0.1 13-1.3 28.1 9.3z"/>
							<path id="path38031" class="s5" d="m72.7 459.8c6.7 9.4 32 21.1 32 21.1"/>
						</g>
						<g id="g16207">
							<path id="path16209" fill-rule="evenodd" class="s4" d="m96.7 455.3c4.9 6.3 9.5 25.7 8.9 25.6 0.1 0.6-17.6-8.7-22.5-15.1-4.9-6.3-9.8-14.7-9.2-26 11.1 2.4 17.9 9.1 22.8 15.5z"/>
							<path id="path16211" class="s5" d="m106.2 481.6l-24.2-31.2"/>
						</g>
					</g>
					<g id="g16197">
						<g id="g16199">
							<path id="path16201" fill-rule="evenodd" class="s4" d="m89 433.4c27.1 17.6 17.2 46.6 17.2 46.6 0 0-11.7-7.6-15.3-17.2-6.5-17.2-2.5-27.6-1.9-29.4z"/>
							<path id="path16203" class="s5" d="m93.5 443.7c7.4 8.9 12.4 36.3 12.4 36.3"/>
						</g>
						<g id="use16205">
							<path id="path38029" fill-rule="evenodd" class="s4" d="m91.9 462.1c8.4 5.9 12.7 19.1 12.7 19.1 0 0-30.6 2.2-40.8-28.4 1.9-0.1 13-1.3 28.1 9.3z"/>
							<path id="path38031" class="s5" d="m72.7 459.8c6.7 9.4 32 21.1 32 21.1"/>
						</g>
						<g id="g16207">
							<path id="path16209" fill-rule="evenodd" class="s4" d="m96.7 455.3c4.9 6.3 9.5 25.7 8.9 25.6 0.1 0.6-17.6-8.7-22.5-15.1-4.9-6.3-9.8-14.7-9.2-26 11.1 2.4 17.9 9.1 22.8 15.5z"/>
							<path id="path16211" class="s5" d="m106.2 481.6l-24.2-31.2"/>
						</g>
					</g>
				</g>
				<g id="g16183">
					<g id="g16185">
						<path id="rect16187" class="s2" d="m52.5 397.9l-2.2 1-13.3-30.7 2.3-1z"/>
						<g id="g16189">
							<path id="rect16191" class="s2" d="m55.2 373.4l-12.4 9-1.4-1.9 12.4-9.1z"/>
							<path id="path16193" fill-rule="evenodd" class="s3" d="m55.5 368.6c1.6 0.7 2.7 2.2 2.8 4 0.2 1.7-0.5 3.4-1.9 4.4-1.4 1-3.3 1.2-4.8 0.6-1.6-0.7-2.7-2.2-2.9-4-0.2-1.7 0.5-3.4 1.9-4.4 1.4-1 3.3-1.3 4.9-0.6z"/>
						</g>
						<g id="use16195">
							<path id="rect38041" class="s2" d="m30.1 381.6l15.1-2.7 0.4 2.3-15 2.7z"/>
							<path id="path38043" fill-rule="evenodd" class="s3" d="m30.7 377.8c1.7-0.3 3.4 0.3 4.5 1.6 1.2 1.3 1.5 3.2 0.9 4.8-0.6 1.6-2 2.8-3.7 3.1-1.7 0.3-3.5-0.3-4.6-1.6-1.1-1.3-1.4-3.2-0.8-4.8 0.5-1.6 2-2.8 3.7-3.1z"/>
						</g>
					</g>
					<g id="g16197">
						<g id="g16199">
							<path id="path16201" fill-rule="evenodd" class="s4" d="m60.9 380.2c21.8 23.8 5.1 49.5 5.1 49.5 0 0-9.5-10.3-10.6-20.5-2-18.2 4.5-27.4 5.5-29z"/>
							<path id="path16203" class="s5" d="m62.7 391.4c4.9 10.4 2.9 38.2 2.9 38.2"/>
						</g>
						<g id="use16205">
							<path id="path38029" fill-rule="evenodd" class="s4" d="m56.5 408.8c6.7 7.7 7.6 21.7 7.6 21.7 0 0-30.2-5.5-32.4-37.7 1.8 0.4 12.9 2 24.8 16z"/>
							<path id="path38031" class="s5" d="m38.5 401.8c4.2 10.7 25.8 28.4 25.8 28.4"/>
						</g>
						<g id="g16207">
							<path id="path16209" fill-rule="evenodd" class="s4" d="m62.9 403.4c3.2 7.3 2.8 27.3 2.3 26.9-0.2 0.7-15-12.8-18.1-20.1-3.2-7.4-5.8-16.7-2.5-27.5 10.2 5 15.2 13.3 18.3 20.7z"/>
							<path id="path16211" class="s5" d="m65.5 431.2l-15.6-36.2"/>
						</g>
					</g>
					<g id="g16197">
						<g id="g16199">
							<path id="path16201" fill-rule="evenodd" class="s4" d="m60.9 380.2c21.8 23.8 5.1 49.5 5.1 49.5 0 0-9.5-10.3-10.6-20.5-2-18.2 4.5-27.4 5.5-29z"/>
							<path id="path16203" class="s5" d="m62.7 391.4c4.9 10.4 2.9 38.2 2.9 38.2"/>
						</g>
						<g id="use16205">
							<path id="path38029" fill-rule="evenodd" class="s4" d="m56.5 408.8c6.7 7.7 7.6 21.7 7.6 21.7 0 0-30.2-5.5-32.4-37.7 1.8 0.4 12.9 2 24.8 16z"/>
							<path id="path38031" class="s5" d="m38.5 401.8c4.2 10.7 25.8 28.4 25.8 28.4"/>
						</g>
						<g id="g16207">
							<path id="path16209" fill-rule="evenodd" class="s4" d="m62.9 403.4c3.2 7.3 2.8 27.3 2.3 26.9-0.2 0.7-15-12.8-18.1-20.1-3.2-7.4-5.8-16.7-2.5-27.5 10.2 5 15.2 13.3 18.3 20.7z"/>
							<path id="path16211" class="s5" d="m65.5 431.2l-15.6-36.2"/>
						</g>
					</g>
				</g>
				<g id="g16183">
					<g id="g16185">
						<path id="rect16187" class="s2" d="m34.4 338.5l-2.4 0.5-6.6-32.9 2.4-0.4z"/>
						<g id="g16189">
							<path id="rect16191" class="s2" d="m42.1 315l-14 6.3-1-2.2 14-6.3z"/>
							<path id="path16193" fill-rule="evenodd" class="s3" d="m43.3 310.4c1.4 1 2.2 2.7 2 4.4-0.1 1.8-1.2 3.3-2.8 4-1.6 0.7-3.4 0.5-4.9-0.5-1.4-1-2.1-2.7-2-4.4 0.2-1.7 1.3-3.2 2.9-4 1.6-0.7 3.4-0.5 4.8 0.5z"/>
						</g>
						<g id="use16195">
							<path id="rect38041" class="s2" d="m15.9 317.8l15.3 0.5-0.1 2.4-15.3-0.5z"/>
							<path id="path38043" fill-rule="evenodd" class="s3" d="m17.2 314.2c1.7 0.1 3.3 1 4.1 2.6 0.8 1.5 0.8 3.3-0.1 4.8-0.9 1.5-2.6 2.4-4.3 2.3-1.8 0-3.3-1-4.2-2.5-0.8-1.6-0.7-3.4 0.2-4.9 0.9-1.5 2.5-2.3 4.3-2.3z"/>
						</g>
					</g>
					<g id="g16197">
						<g id="g16199">
							<path id="path16201" fill-rule="evenodd" class="s4" d="m46.2 322.9c16.5 27.7-5.3 49.4-5.3 49.4 0 0-7.1-12-6.1-22.2 1.9-18.3 10.1-25.9 11.4-27.2z"/>
							<path id="path16203" class="s5" d="m45.7 334.1c2.6 11.2-5.1 38.1-5.1 38.1"/>
						</g>
						<g id="use16205">
							<path id="path38029" fill-rule="evenodd" class="s4" d="m36 349.9c4.9 9 3 22.8 3 22.8 0 0-28.5-11.6-24-43.6 1.7 0.8 12.2 4.6 21 20.8z"/>
							<path id="path38031" class="s5" d="m19.8 339.3c1.9 11.4 19.4 33.1 19.4 33.1"/>
						</g>
						<g id="g16207">
							<path id="path16209" fill-rule="evenodd" class="s4" d="m43.4 345.9c1.6 7.9-2.9 27.3-3.4 26.9-0.2 0.6-12-15.6-13.5-23.5-1.6-7.8-2.2-17.5 3.3-27.4 8.9 7 12.1 16.1 13.6 24z"/>
							<path id="path16211" class="s5" d="m40.2 373.7l-7.8-38.6"/>
						</g>
					</g>
					<g id="g16197">
						<g id="g16199">
							<path id="path16201" fill-rule="evenodd" class="s4" d="m46.2 322.9c16.5 27.7-5.3 49.4-5.3 49.4 0 0-7.1-12-6.1-22.2 1.9-18.3 10.1-25.9 11.4-27.2z"/>
							<path id="path16203" class="s5" d="m45.7 334.1c2.6 11.2-5.1 38.1-5.1 38.1"/>
						</g>
						<g id="use16205">
							<path id="path38029" fill-rule="evenodd" class="s4" d="m36 349.9c4.9 9 3 22.8 3 22.8 0 0-28.5-11.6-24-43.6 1.7 0.8 12.2 4.6 21 20.8z"/>
							<path id="path38031" class="s5" d="m19.8 339.3c1.9 11.4 19.4 33.1 19.4 33.1"/>
						</g>
						<g id="g16207">
							<path id="path16209" fill-rule="evenodd" class="s4" d="m43.4 345.9c1.6 7.9-2.9 27.3-3.4 26.9-0.2 0.6-12-15.6-13.5-23.5-1.6-7.8-2.2-17.5 3.3-27.4 8.9 7 12.1 16.1 13.6 24z"/>
							<path id="path16211" class="s5" d="m40.2 373.7l-7.8-38.6"/>
						</g>
					</g>
				</g>
				<g id="g16183">
					<g id="g16185">
						<path id="rect16187" class="s2" d="m29.8 273.9l-2.4-0.2 1.8-33.4 2.5 0.2z"/>
						<g id="g16189">
							<path id="rect16191" class="s2" d="m43.2 253l-15.1 2.7-0.4-2.4 15.1-2.6z"/>
							<path id="path16193" fill-rule="evenodd" class="s3" d="m45.5 248.9c1.1 1.4 1.5 3.2 0.9 4.8-0.6 1.7-2.1 2.8-3.8 3.1-1.7 0.3-3.4-0.3-4.5-1.6-1.2-1.4-1.5-3.2-0.9-4.8 0.6-1.6 2-2.8 3.7-3.1 1.8-0.3 3.5 0.3 4.6 1.6z"/>
						</g>
						<g id="use16195">
							<path id="rect38041" class="s2" d="m17.1 249.3l14.7 4.2-0.7 2.3-14.7-4.2z"/>
							<path id="path38043" fill-rule="evenodd" class="s3" d="m19.3 246.1c1.6 0.5 2.9 1.8 3.3 3.5 0.4 1.7-0.1 3.5-1.3 4.7-1.3 1.2-3.1 1.6-4.8 1.1-1.6-0.5-2.9-1.8-3.3-3.5-0.4-1.7 0.1-3.5 1.3-4.7 1.3-1.2 3.1-1.6 4.8-1.1z"/>
						</g>
					</g>
					<g id="g16197">
						<g id="g16199">
							<path id="path16201" fill-rule="evenodd" class="s4" d="m45.2 261.7c9 31-17.5 46.6-17.5 46.6 0 0-3.9-13.4-0.3-23 6.4-17.3 16.2-22.6 17.8-23.6z"/>
							<path id="path16203" class="s5" d="m41.9 272.5c-0.2 11.5-14.4 35.5-14.4 35.5"/>
						</g>
						<g id="use16205">
							<path id="path38029" fill-rule="evenodd" class="s4" d="m28.6 285.3c2.5 10-2.9 22.9-2.9 22.9 0 0-24.6-18.4-12.2-48.2 1.4 1.1 10.6 7.5 15.1 25.3z"/>
							<path id="path38031" class="s5" d="m15.5 271.1c-1 11.4 10.5 36.9 10.5 36.9"/>
						</g>
						<g id="g16207">
							<path id="path16209" fill-rule="evenodd" class="s4" d="m36.8 283.3c-0.5 8-9.7 25.8-10.1 25.2-0.4 0.5-7.7-18.1-7.2-26.1 0.4-8 2.3-17.5 10.1-25.7 6.8 9 7.6 18.6 7.2 26.6z"/>
							<path id="path16211" class="s5" d="m26.7 309.4l2.1-39.3"/>
						</g>
					</g>
					<g id="g16197">
						<g id="g16199">
							<path id="path16201" fill-rule="evenodd" class="s4" d="m45.2 261.7c9 31-17.5 46.6-17.5 46.6 0 0-3.9-13.4-0.3-23 6.4-17.3 16.2-22.6 17.8-23.6z"/>
							<path id="path16203" class="s5" d="m41.9 272.5c-0.2 11.5-14.4 35.5-14.4 35.5"/>
						</g>
						<g id="use16205">
							<path id="path38029" fill-rule="evenodd" class="s4" d="m28.6 285.3c2.5 10-2.9 22.9-2.9 22.9 0 0-24.6-18.4-12.2-48.2 1.4 1.1 10.6 7.5 15.1 25.3z"/>
							<path id="path38031" class="s5" d="m15.5 271.1c-1 11.4 10.5 36.9 10.5 36.9"/>
						</g>
						<g id="g16207">
							<path id="path16209" fill-rule="evenodd" class="s4" d="m36.8 283.3c-0.5 8-9.7 25.8-10.1 25.2-0.4 0.5-7.7-18.1-7.2-26.1 0.4-8 2.3-17.5 10.1-25.7 6.8 9 7.6 18.6 7.2 26.6z"/>
							<path id="path16211" class="s5" d="m26.7 309.4l2.1-39.3"/>
						</g>
					</g>
				</g>
				<g id="g16183">
					<g id="g16185">
						<path id="rect16187" class="s2" d="m40.7 212.3l-2.3-0.7 9.5-32.1 2.3 0.7z"/>
						<g id="g16189">
							<path id="rect16191" class="s2" d="m58.5 195l-15.3-0.9 0.1-2.3 15.3 0.9z"/>
							<path id="path16193" fill-rule="evenodd" class="s3" d="m61.7 191.6c0.8 1.6 0.7 3.4-0.3 4.9-0.9 1.4-2.6 2.2-4.3 2.1-1.8-0.1-3.3-1.1-4.1-2.6-0.8-1.6-0.6-3.4 0.3-4.9 1-1.4 2.6-2.3 4.4-2.2 1.7 0.1 3.2 1.2 4 2.7z"/>
						</g>
						<g id="use16195">
							<path id="rect38041" class="s2" d="m34 185.4l13.3 7.5-1.2 2.1-13.3-7.5z"/>
							<path id="path38043" fill-rule="evenodd" class="s3" d="m36.8 182.8c1.5 0.8 2.5 2.4 2.5 4.2 0 1.7-0.9 3.3-2.4 4.2-1.5 0.9-3.4 0.9-4.9 0.1-1.5-0.9-2.4-2.5-2.4-4.2-0.1-1.8 0.9-3.4 2.4-4.3 1.5-0.8 3.3-0.9 4.8 0z"/>
						</g>
					</g>
					<g id="g16197">
						<g id="g16199">
							<path id="path16201" fill-rule="evenodd" class="s4" d="m58.5 204c1.6 32.2-27.8 41.2-27.8 41.2 0 0-0.7-13.9 5-22.4 10.2-15.3 21-18.2 22.8-18.8z"/>
							<path id="path16203" class="s5" d="m52.8 213.7c-2.9 11.1-22.3 31.3-22.3 31.3"/>
						</g>
						<g id="use16205">
							<path id="path38029" fill-rule="evenodd" class="s4" d="m36.9 223.1c0.1 10.3-8.1 21.6-8.1 21.6 0 0-19.7-23.5-0.8-49.7 1.1 1.4 8.6 9.7 8.9 28.1z"/>
							<path id="path38031" class="s5" d="m27.5 206.3c-3.7 10.9 1.6 38.3 1.6 38.3"/>
						</g>
						<g id="g16207">
							<path id="path16209" fill-rule="evenodd" class="s4" d="m45.3 223.1c-2.3 7.6-15.4 22.8-15.6 22.2-0.5 0.4-3.3-19.4-1-27.1 2.2-7.7 6.2-16.5 15.7-22.7 4.6 10.4 3.1 19.9 0.9 27.6z"/>
							<path id="path16211" class="s5" d="m29.4 246.1l11.2-37.8"/>
						</g>
					</g>
					<g id="g16197">
						<g id="g16199">
							<path id="path16201" fill-rule="evenodd" class="s4" d="m58.5 204c1.6 32.2-27.8 41.2-27.8 41.2 0 0-0.7-13.9 5-22.4 10.2-15.3 21-18.2 22.8-18.8z"/>
							<path id="path16203" class="s5" d="m52.8 213.7c-2.9 11.1-22.3 31.3-22.3 31.3"/>
						</g>
						<g id="use16205">
							<path id="path38029" fill-rule="evenodd" class="s4" d="m36.9 223.1c0.1 10.3-8.1 21.6-8.1 21.6 0 0-19.7-23.5-0.8-49.7 1.1 1.4 8.6 9.7 8.9 28.1z"/>
							<path id="path38031" class="s5" d="m27.5 206.3c-3.7 10.9 1.6 38.3 1.6 38.3"/>
						</g>
						<g id="g16207">
							<path id="path16209" fill-rule="evenodd" class="s4" d="m45.3 223.1c-2.3 7.6-15.4 22.8-15.6 22.2-0.5 0.4-3.3-19.4-1-27.1 2.2-7.7 6.2-16.5 15.7-22.7 4.6 10.4 3.1 19.9 0.9 27.6z"/>
							<path id="path16211" class="s5" d="m29.4 246.1l11.2-37.8"/>
						</g>
					</g>
				</g>
				<g id="g16183">
					<g id="g16185">
						<path id="rect16187" class="s2" d="m65.4 154.8l-2.1-1.2 16.6-29.1 2.1 1.2z"/>
						<g id="g16189">
							<path id="rect16191" class="s2" d="m86.7 142.2l-14.7-4.5 0.7-2.3 14.7 4.5z"/>
							<path id="path16193" fill-rule="evenodd" class="s3" d="m90.6 139.6c0.4 1.6-0.1 3.4-1.4 4.6-1.3 1.2-3.1 1.6-4.7 1.1-1.7-0.5-3-1.8-3.4-3.5-0.4-1.7 0.2-3.5 1.4-4.7 1.3-1.2 3.1-1.6 4.8-1.1 1.6 0.5 2.9 1.9 3.3 3.6z"/>
						</g>
						<g id="use16195">
							<path id="rect38041" class="s2" d="m65.1 127.1l11.2 10.4-1.7 1.7-11.2-10.4z"/>
							<path id="path38043" fill-rule="evenodd" class="s3" d="m68.4 125.2c1.3 1.2 1.8 3 1.5 4.6-0.4 1.7-1.7 3.1-3.3 3.6-1.7 0.5-3.5 0.1-4.8-1.1-1.3-1.2-1.8-2.9-1.4-4.6 0.4-1.7 1.6-3.1 3.3-3.6 1.6-0.5 3.5-0.1 4.7 1.1z"/>
						</g>
					</g>
					<g id="g16197">
						<g id="g16199">
							<path id="path16201" fill-rule="evenodd" class="s4" d="m84.6 150.8c-6 31.8-36.6 33.7-36.6 33.7 0 0 2.5-13.7 10-20.7 13.5-12.5 24.7-12.8 26.6-13z"/>
							<path id="path16203" class="s5" d="m76.8 159c-5.4 10.1-28.9 25.2-28.9 25.2"/>
						</g>
						<g id="use16205">
							<path id="path38029" fill-rule="evenodd" class="s4" d="m59.1 164.5c-2.2 9.9-12.8 19.1-12.8 19.1 0 0-13.8-27.5 10.7-48.6 0.8 1.7 6.2 11.5 2.1 29.5z"/>
							<path id="path38031" class="s5" d="m53.9 145.9c-6.1 9.7-7.3 37.6-7.3 37.6"/>
						</g>
						<g id="g16207">
							<path id="path16209" fill-rule="evenodd" class="s4" d="m67.3 166.4c-4 6.9-20.2 18.6-20.3 17.9-0.6 0.3 1.3-19.6 5.3-26.6 4-6.9 9.9-14.6 20.5-18.4 2.1 11.2-1.5 20.1-5.5 27.1z"/>
							<path id="path16211" class="s5" d="m46.5 185.1l19.7-34.2"/>
						</g>
					</g>
					<g id="g16197">
						<g id="g16199">
							<path id="path16201" fill-rule="evenodd" class="s4" d="m84.6 150.8c-6 31.8-36.6 33.7-36.6 33.7 0 0 2.5-13.7 10-20.7 13.5-12.5 24.7-12.8 26.6-13z"/>
							<path id="path16203" class="s5" d="m76.8 159c-5.4 10.1-28.9 25.2-28.9 25.2"/>
						</g>
						<g id="use16205">
							<path id="path38029" fill-rule="evenodd" class="s4" d="m59.1 164.5c-2.2 9.9-12.8 19.1-12.8 19.1 0 0-13.8-27.5 10.7-48.6 0.8 1.7 6.2 11.5 2.1 29.5z"/>
							<path id="path38031" class="s5" d="m53.9 145.9c-6.1 9.7-7.3 37.6-7.3 37.6"/>
						</g>
						<g id="g16207">
							<path id="path16209" fill-rule="evenodd" class="s4" d="m67.3 166.4c-4 6.9-20.2 18.6-20.3 17.9-0.6 0.3 1.3-19.6 5.3-26.6 4-6.9 9.9-14.6 20.5-18.4 2.1 11.2-1.5 20.1-5.5 27.1z"/>
							<path id="path16211" class="s5" d="m46.5 185.1l19.7-34.2"/>
						</g>
					</g>
				</g>
				<g id="g16183">
					<g id="g16185">
						<path id="rect16187" class="s2" d="m104.5 103.4l-1.7-1.8 23.5-23.8 1.7 1.7z"/>
						<g id="g16189">
							<path id="rect16191" class="s2" d="m128.3 96.5l-13-8 1.2-2 13.1 8z"/>
							<path id="path16193" fill-rule="evenodd" class="s3" d="m132.8 95c0 1.8-1 3.3-2.5 4.2-1.6 0.8-3.4 0.7-4.9-0.2-1.5-0.9-2.4-2.5-2.3-4.2 0-1.8 1-3.4 2.5-4.2 1.5-0.8 3.4-0.8 4.9 0.2 1.5 0.9 2.3 2.5 2.3 4.2z"/>
						</g>
						<g id="use16195">
							<path id="rect38041" class="s2" d="m111.3 76.5l8.2 12.9-2.1 1.3-8.2-12.9z"/>
							<path id="path38043" fill-rule="evenodd" class="s3" d="m115 75.5c0.9 1.5 1 3.3 0.2 4.9-0.8 1.5-2.4 2.5-4.1 2.6-1.7 0.1-3.4-0.8-4.3-2.3-1-1.4-1-3.3-0.2-4.8 0.8-1.6 2.3-2.6 4.1-2.6 1.7-0.1 3.4 0.8 4.3 2.2z"/>
						</g>
					</g>
					<g id="g16197">
						<g id="g16199">
							<path id="path16201" fill-rule="evenodd" class="s4" d="m124.1 104.4c-13.8 29.2-43.9 23.3-43.9 23.3 0 0 5.9-12.6 14.9-17.4 16.2-8.7 27.1-6.2 29-5.9z"/>
							<path id="path16203" class="s5" d="m114.5 110.3c-7.8 8.5-34.4 17.1-34.4 17.1"/>
						</g>
						<g id="use16205">
							<path id="path38029" fill-rule="evenodd" class="s4" d="m96 111.1c-4.7 9.1-17.2 15.3-17.2 15.3 0 0-6.4-30.1 22.6-44.3 0.4 1.8 3.1 12.7-5.4 29z"/>
							<path id="path38031" class="s5" d="m95.7 91.8c-8.4 7.9-16.6 34.6-16.6 34.6"/>
						</g>
						<g id="g16207">
							<path id="path16209" fill-rule="evenodd" class="s4" d="m103.4 115c-5.6 5.7-24.2 12.9-24.1 12.3-0.7 0.1 6.2-18.7 11.8-24.4 5.6-5.7 13.3-11.6 24.6-12.6-0.8 11.3-6.6 19-12.3 24.7z"/>
							<path id="path16211" class="s5" d="m78.6 127.9l27.7-28.1"/>
						</g>
					</g>
					<g id="g16197">
						<g id="g16199">
							<path id="path16201" fill-rule="evenodd" class="s4" d="m124.1 104.4c-13.8 29.2-43.9 23.3-43.9 23.3 0 0 5.9-12.6 14.9-17.4 16.2-8.7 27.1-6.2 29-5.9z"/>
							<path id="path16203" class="s5" d="m114.5 110.3c-7.8 8.5-34.4 17.1-34.4 17.1"/>
						</g>
						<g id="use16205">
							<path id="path38029" fill-rule="evenodd" class="s4" d="m96 111.1c-4.7 9.1-17.2 15.3-17.2 15.3 0 0-6.4-30.1 22.6-44.3 0.4 1.8 3.1 12.7-5.4 29z"/>
							<path id="path38031" class="s5" d="m95.7 91.8c-8.4 7.9-16.6 34.6-16.6 34.6"/>
						</g>
						<g id="g16207">
							<path id="path16209" fill-rule="evenodd" class="s4" d="m103.4 115c-5.6 5.7-24.2 12.9-24.1 12.3-0.7 0.1 6.2-18.7 11.8-24.4 5.6-5.7 13.3-11.6 24.6-12.6-0.8 11.3-6.6 19-12.3 24.7z"/>
							<path id="path16211" class="s5" d="m78.6 127.9l27.7-28.1"/>
						</g>
					</g>
				</g>
				<g id="g16183">
					<g id="g16185">
						<path id="rect16187" class="s2" d="m154.4 62.1l-1.3-2 28.3-17.9 1.3 2.1z"/>
						<g id="g16189">
							<path id="rect16191" class="s2" d="m179.1 60.9l-10.9-10.7 1.7-1.7 10.9 10.7z"/>
							<path id="path16193" fill-rule="evenodd" class="s3" d="m183.8 60.5c-0.4 1.6-1.7 3-3.4 3.4-1.7 0.5-3.5 0-4.7-1.2-1.2-1.2-1.7-3-1.3-4.7 0.4-1.7 1.7-3 3.4-3.5 1.7-0.4 3.5 0 4.7 1.3 1.3 1.2 1.8 3 1.3 4.7z"/>
						</g>
						<g id="use16195">
							<path id="rect38041" class="s2" d="m167.1 37.5l5 14.4-2.2 0.8-5.1-14.4z"/>
							<path id="path38043" fill-rule="evenodd" class="s3" d="m170.9 37.4c0.6 1.7 0.2 3.5-0.9 4.8-1.1 1.3-2.9 1.9-4.6 1.6-1.7-0.3-3.1-1.5-3.7-3.2-0.5-1.6-0.2-3.4 0.9-4.7 1.2-1.4 2.9-2 4.6-1.7 1.7 0.4 3.1 1.6 3.7 3.2z"/>
						</g>
					</g>
					<g id="g16197">
						<g id="g16199">
							<path id="path16201" fill-rule="evenodd" class="s4" d="m173.2 67.6c-20.1 25.3-48.1 12.8-48.1 12.8 0 0 8.7-11 18.6-13.7 17.7-4.8 27.8 0.2 29.5 0.9z"/>
							<path id="path16203" class="s5" d="m162.5 71.2c-9.5 6.4-37.4 8.8-37.4 8.8"/>
						</g>
						<g id="use16205">
							<path id="path38029" fill-rule="evenodd" class="s4" d="m144.3 67.8c-6.6 7.8-20.2 10.9-20.2 10.9 0 0 0.6-30.7 32.1-37.9-0.1 1.8 0.1 13-11.9 27z"/>
							<path id="path38031" class="s5" d="m148.4 48.9c-9.9 5.8-24 29.9-24 29.9"/>
						</g>
						<g id="g16207">
							<path id="path16209" fill-rule="evenodd" class="s4" d="m150.7 73.3c-6.8 4.2-26.6 7-26.4 6.4-0.6 0 10.4-16.8 17.1-21 6.8-4.3 15.6-8.3 26.8-6.7-3.3 10.8-10.7 17-17.5 21.3z"/>
							<path id="path16211" class="s5" d="m123.5 80.2l33.4-21.1"/>
						</g>
					</g>
					<g id="g16197">
						<g id="g16199">
							<path id="path16201" fill-rule="evenodd" class="s4" d="m173.2 67.6c-20.1 25.3-48.1 12.8-48.1 12.8 0 0 8.7-11 18.6-13.7 17.7-4.8 27.8 0.2 29.5 0.9z"/>
							<path id="path16203" class="s5" d="m162.5 71.2c-9.5 6.4-37.4 8.8-37.4 8.8"/>
						</g>
						<g id="use16205">
							<path id="path38029" fill-rule="evenodd" class="s4" d="m144.3 67.8c-6.6 7.8-20.2 10.9-20.2 10.9 0 0 0.6-30.7 32.1-37.9-0.1 1.8 0.1 13-11.9 27z"/>
							<path id="path38031" class="s5" d="m148.4 48.9c-9.9 5.8-24 29.9-24 29.9"/>
						</g>
						<g id="g16207">
							<path id="path16209" fill-rule="evenodd" class="s4" d="m150.7 73.3c-6.8 4.2-26.6 7-26.4 6.4-0.6 0 10.4-16.8 17.1-21 6.8-4.3 15.6-8.3 26.8-6.7-3.3 10.8-10.7 17-17.5 21.3z"/>
							<path id="path16211" class="s5" d="m123.5 80.2l33.4-21.1"/>
						</g>
					</g>
				</g>
				<g id="g16183">
					<g id="g16185">
						<path id="rect16187" class="s2" d="m212.8 34.1l-0.8-2.3 31.8-10.7 0.7 2.3z"/>
						<g id="g16189">
							<path id="rect16191" class="s2" d="m237.1 38.7l-8-13 2-1.3 8 13.1z"/>
							<path id="path16193" fill-rule="evenodd" class="s3" d="m241.8 39.4c-0.9 1.5-2.4 2.5-4.2 2.6-1.7 0-3.3-0.9-4.2-2.4-1-1.4-1-3.3-0.2-4.8 0.8-1.6 2.4-2.5 4.2-2.6 1.7 0 3.3 0.9 4.2 2.3 0.9 1.5 1 3.4 0.2 4.9z"/>
						</g>
						<g id="use16195">
							<path id="rect38041" class="s2" d="m231 13.1l1.4 15.3-2.4 0.2-1.4-15.2z"/>
							<path id="path38043" fill-rule="evenodd" class="s3" d="m234.7 14c0.2 1.7-0.6 3.4-2 4.4-1.4 1-3.3 1.2-4.8 0.5-1.6-0.8-2.7-2.3-2.9-4-0.1-1.7 0.6-3.4 2-4.4 1.5-1 3.3-1.2 4.9-0.5 1.6 0.7 2.7 2.2 2.8 4z"/>
						</g>
					</g>
					<g id="g16197">
						<g id="g16199">
							<path id="path16201" fill-rule="evenodd" class="s4" d="m229.8 43.8c-25.5 19.8-49.8 1-49.8 1 0 0 11-8.6 21.3-8.8 18.4-0.5 27 6.7 28.5 7.8z"/>
							<path id="path16203" class="s5" d="m218.5 44.8c-10.8 4-38.4-0.3-38.4-0.3"/>
						</g>
						<g id="use16205">
							<path id="path38029" fill-rule="evenodd" class="s4" d="m201.7 37.2c-8.3 5.9-22.3 5.7-22.3 5.7 0 0 7.9-29.6 40.3-29.2-0.6 1.8-3.1 12.7-18 23.5z"/>
							<path id="path38031" class="s5" d="m210.1 19.8c-11 3.3-30.4 23.3-30.4 23.3"/>
						</g>
						<g id="g16207">
							<path id="path16209" fill-rule="evenodd" class="s4" d="m206.5 44c-7.6 2.5-27.5 0.5-27.1 0-0.6-0.2 14-13.8 21.6-16.4 7.6-2.5 17.2-4.4 27.6-0.1-5.8 9.7-14.4 13.9-22.1 16.5z"/>
							<path id="path16211" class="s5" d="m178.5 44.3l37.4-12.6"/>
						</g>
					</g>
					<g id="g16197">
						<g id="g16199">
							<path id="path16201" fill-rule="evenodd" class="s4" d="m229.8 43.8c-25.5 19.8-49.8 1-49.8 1 0 0 11-8.6 21.3-8.8 18.4-0.5 27 6.7 28.5 7.8z"/>
							<path id="path16203" class="s5" d="m218.5 44.8c-10.8 4-38.4-0.3-38.4-0.3"/>
						</g>
						<g id="use16205">
							<path id="path38029" fill-rule="evenodd" class="s4" d="m201.7 37.2c-8.3 5.9-22.3 5.7-22.3 5.7 0 0 7.9-29.6 40.3-29.2-0.6 1.8-3.1 12.7-18 23.5z"/>
							<path id="path38031" class="s5" d="m210.1 19.8c-11 3.3-30.4 23.3-30.4 23.3"/>
						</g>
						<g id="g16207">
							<path id="path16209" fill-rule="evenodd" class="s4" d="m206.5 44c-7.6 2.5-27.5 0.5-27.1 0-0.6-0.2 14-13.8 21.6-16.4 7.6-2.5 17.2-4.4 27.6-0.1-5.8 9.7-14.4 13.9-22.1 16.5z"/>
							<path id="path16211" class="s5" d="m178.5 44.3l37.4-12.6"/>
						</g>
					</g>
				</g>
				<g id="g16197">
					<g id="g16199">
						<path id="path16201" fill-rule="evenodd" class="s4" d="m290.2 33.6c-29.1 14-48.9-9.5-48.9-9.5 0 0 12.6-6 22.7-4.1 18.1 3.4 24.9 12.2 26.2 13.6z"/>
						<path id="path16203" class="s5" d="m279 32.2c-11.4 1.6-37.5-8.3-37.5-8.3"/>
					</g>
					<g id="use16205">
						<path id="path38029" fill-rule="evenodd" class="s4" d="m264.1 21.2c-9.4 4.1-23 1-23 1 0 0 14-27.3 45.5-20.1-0.9 1.6-5.6 11.7-22.5 19.1z"/>
						<path id="path38031" class="s5" d="m276 6c-11.5 0.9-34.7 16.4-34.7 16.4"/>
					</g>
					<g id="g16207">
						<path id="path16209" fill-rule="evenodd" class="s4" d="m267.4 28.9c-7.9 0.9-27-5.3-26.5-5.7-0.5-0.3 16.6-10.6 24.6-11.5 7.9-0.9 17.7-0.6 27 5.7-7.7 8.3-17.1 10.6-25.1 11.5z"/>
						<path id="path16211" class="s5" d="m240 23.3l39.2-4.4"/>
					</g>
				</g>
			</g>
			<g id="g32863">
				<g id="g27432">
					<path id="path25682" fill-rule="evenodd" class="s6" d="m304.7 562.6c0 0-21.8 32.7-35.8 37.3l-0.4-8c0 0-9.1-2.5-7.7-3 1.3-0.5 15.2-7.8 30.9-22.2z"/>
					<path id="path26557" fill-rule="evenodd" class="s7" d="m272.2 592.5c-5.2 1.8 0 0 0 0l1.7-4.1-5.3-0.4c0 0 7.5-3.9 24.9-17 0.4 0.8-16 19.8-21.3 21.5z"/>
				</g>
				<g id="g25677">
					<path id="path22181" fill-rule="evenodd" class="s8" d="m285.6 538.9c-4.5 13.4 1.8 31.5 1.8 31.5l-8.1-7.1-5.9-19.3 0.9-9z"/>
					<path id="path24802" fill-rule="evenodd" class="s8" d="m324.1 551l8.4-9.7c0 0-1.7 8.9-2.6 10.5-0.8 1.5-4.8 13.9-5.5 15.8-0.6 1.9-1.3 6.1-11 7.2z"/>
					<path id="path18679" fill-rule="evenodd" class="s9" d="m286.2 528.2c3 0.3 12.8 4.8 16.6 4.8 3.9 0 11.4-2.7 17.6-4.5 6.2-1.7 14.1 10.8 12.2 13.4-6.2 8.6-12.6 29.3-17.3 32.3-4.5 2.7-22.9-0.2-22.9-0.2 0 0-9.5 0-12.8-5.3-3.2-5.4-12.4-25.3-5-38.7 0 0 0-0.1 0.1-0.1 0.9-1.3 3.9-1.8 6.8-1.9 1.8 0 3.6 0.1 4.7 0.2zm16.3 19.8c-14-0.3-21.2-5.4-27.9-9.1 1 8.1 3.4 32.7 25.9 32.7 22.2 0 15.8-18.1 29.6-32.4-7.6 4.2-13.7 9-27.6 8.8z"/>
				</g>
				<g id="g27432">
					<path id="path25682" fill-rule="evenodd" class="s6" d="m308.7 566.7c15.7 14.4 29.6 21.7 31 22.2 1.3 0.5-7.8 3-7.8 3l-0.4 8c-14-4.6-35.7-37.3-35.7-37.3z"/>
					<path id="path26557" fill-rule="evenodd" class="s7" d="m307 571c17.4 13.1 24.8 17 24.8 17l-5.3 0.4 1.7 4.1c0 0 5.3 1.8 0 0-5.3-1.7-21.7-20.7-21.2-21.5z"/>
				</g>
				<g id="g33856">
					<g id="g31827">
						<path id="path30077" fill-rule="evenodd" class="s6" d="m297.8 571.3c0 0 3 0.3 4-0.1 1-0.4 0.6-4.3 0-5.4-0.6-1-4 5.7-4 5.7 0 0-4.5-0.5-8.6-2.7-4.2-2.2 0 0 0 0 0 0 5.2-8.9 8.3-11 3.1-2.1 11.3-0.6 14 2.6 2.7 3.1 1.2 8.3-0.2 11.4-1.3 3.1-12.5 8-26.2 0.6"/>
						<path id="path30952" class="s10" d="m292.6 570c0 0 7.6-10.5 9.7-10.2 2 0.3 4.6 3.5 5.2 6.2 0.6 2.7-0.6 5.3-2.1 6.7-1.5 1.3-5.8 2.7-17.7-1.8"/>
					</g>
					<g id="g33852">
						<path id="path31837" fill-rule="evenodd" class="s6" d="m291.6 570c-3.3-1.9-1.9-5.7-1.3-6.7 1.5-2.4 2-3.1 2.8-4 0.7-0.9 4.2-1.2 4.2-1.2 0 0-2.2 1.4-2.2 2.8 0 1.5 5.5 4.2 5.5 4.2 0 0 3.9 0.1 3.6 3.7-0.2 2.1-3.2 2.8-4.9 3.1-0.9 0.2-4.8-0.3-7.7-1.9z"/>
						<path id="path32712" class="s10" d="m302.7 570.6c-12.2-2.2-10.7-9.3-10.7-9.3"/>
					</g>
				</g>
			</g>
		</g>
	</g>
	<g id="text1935">
		<path id="path5268" class="s11" d="m178.2 194.6q-10.6 8.8-23.2 8.8-12.9 0-20.8-7.9-7.9-7.8-7.9-20.9 0-7.9 3.2-14.8 3.3-6.9 9.5-10.6 6.4-3.8 15.5-3.8 9.4 0 15.1 4.2 5.8 4.1 7.8 12.4l-6.7 1.9q-1.6-6.1-5.6-9.1-4.1-3-10.6-3-10.2 0-15.3 6.2-5.2 6.1-5.2 16.2 0 7.5 2.5 12.4 2.5 5 7.4 7.6 4.9 2.5 10.7 2.5 8.8 0 16.4-5.8v-10.4h-16.5v-6.7h23.7z"/>
		<path id="path5270" fill-rule="evenodd" class="s11" d="m203.6 164.4q7.8 0 12.8 5.3 5 5.4 5 14.1 0 8.7-5 14-5 5.3-12.8 5.3-8.1 0-13.1-5.5-4.9-5.5-4.9-13.4 0-9.2 5-14.5 5-5.3 13-5.3zm-0.1 34.4q5.7 0 9.2-3.9 3.6-4 3.6-11.1 0-7.3-3.6-11.2-3.6-4-9.1-4-5.6 0-9.2 3.9-3.6 3.8-3.6 11.8 0 6.5 3.5 10.5 3.5 4 9.2 4z"/>
		<path id="path5272" class="s11" d="m258.4 165.1l-14.6 37.3h-5.1l-14.5-37.3h5.3l9.8 27.1q1.1 2.6 1.9 6.1h0.1q0.8-3 1.9-6.1l10.2-27.1z"/>
		<path id="path5274" class="s11" d="m290.9 202.4h-28v-37.3h27.1v4.4h-22.1v11.4h20.7v4.4h-20.7v12.7h23z"/>
		<path id="path5276" fill-rule="evenodd" class="s11" d="m330.8 202.4h-6.3q-5.6-8.8-6.9-10.8-1.4-2-2.9-3.5-1.4-1.4-2.8-1.8-1.3-0.4-3.4-0.4h-5.8v16.5h-4.9v-37.3h16.6q3.4 0 5.6 0.4 2.3 0.4 4.1 1.8 1.7 1.4 2.6 3.5 1 2.1 1 4.5 0 4.2-2.7 6.8-2.7 2.6-7.8 3.2v0.1q3.7 1.7 7 6.9zm-28-21h10.6q3.2 0 5.1-0.5 1.9-0.6 3-2.2 1.1-1.5 1.1-3.5 0-2.5-1.8-4.3-1.9-1.8-6.2-1.8h-11.8z"/>
		<path id="path5278" class="s11" d="m364.9 202.4h-5l-19.6-29.3h-0.1v29.3h-4.7v-37.3h5.1l19.5 29.3h0.1v-29.3h4.7z"/>
		<path id="path5280" fill-rule="evenodd" class="s11" d="m389.4 164.4q7.9 0 12.9 5.3 5 5.4 5 14.1 0 8.7-5 14-5.1 5.3-12.9 5.3-8.1 0-13-5.5-4.9-5.5-4.9-13.4 0-9.2 5-14.5 5-5.3 12.9-5.3zm0 34.4q5.7 0 9.2-3.9 3.5-4 3.6-11.1 0-7.3-3.7-11.2-3.6-4-9-4-5.6 0-9.3 3.9-3.6 3.8-3.6 11.8 0 6.5 3.6 10.5 3.5 4 9.2 4z"/>
		<path id="path5282" fill-rule="evenodd" class="s11" d="m446.9 202.4h-6.2q-5.6-8.8-7-10.8-1.3-2-2.8-3.5-1.5-1.4-2.8-1.8-1.3-0.4-3.5-0.4h-5.7v16.5h-5v-37.3h16.6q3.4 0 5.7 0.4 2.3 0.4 4 1.8 1.8 1.4 2.7 3.5 0.9 2.1 0.9 4.5 0 4.2-2.7 6.8-2.6 2.6-7.8 3.2v0.1q3.8 1.7 7.1 6.9zm-28-21h10.6q3.2 0 5.1-0.5 1.8-0.6 3-2.2 1.1-1.5 1.1-3.5 0-2.5-1.9-4.3-1.8-1.8-6.1-1.8h-11.8z"/>
	</g>
	<g id="text1951">
		<path id="path5253" class="s11" d="m206.3 273.3q-10.6 8.8-23.2 8.8-12.9 0-20.8-7.8-7.9-7.9-7.9-20.9 0-8 3.2-14.8 3.3-6.9 9.6-10.7 6.3-3.8 15.4-3.8 9.5 0 15.2 4.2 5.7 4.1 7.7 12.4l-6.7 1.9q-1.5-6-5.6-9.1-4.1-3-10.6-3-10.1 0-15.3 6.2-5.2 6.2-5.2 16.2 0 7.5 2.5 12.5 2.5 4.9 7.4 7.5 5 2.5 10.8 2.5 8.8 0 16.3-5.8v-10.4h-16.5v-6.6h23.7z"/>
		<path id="path5255" class="s11" d="m243.4 281.2h-28v-37.4h27.1v4.4h-22.1v11.4h20.7v4.5h-20.7v12.6h23z"/>
		<path id="path5257" class="s11" d="m279.7 281.2h-5.1l-19.6-29.4h-0.1v29.4h-4.7v-37.4h5.1l19.5 29.3h0.1v-29.3h4.8z"/>
		<path id="path5259" class="s11" d="m315.9 281.2h-28v-37.4h27.1v4.4h-22.1v11.4h20.7v4.5h-20.7v12.6h23z"/>
		<path id="path5261" fill-rule="evenodd" class="s11" d="m355.7 281.2h-6.2q-5.6-8.9-6.9-10.9-1.4-2-2.9-3.4-1.5-1.5-2.8-1.9-1.3-0.3-3.5-0.3h-5.7v16.5h-4.9v-37.4h16.5q3.4 0 5.7 0.4 2.3 0.4 4.1 1.8 1.7 1.4 2.6 3.5 0.9 2.2 0.9 4.5 0 4.2-2.6 6.8-2.7 2.6-7.8 3.3v0.1q3.7 1.6 7 6.8zm-28-20.9h10.6q3.2 0 5.1-0.6 1.9-0.5 3-2.1 1.1-1.6 1.1-3.6 0-2.5-1.9-4.3-1.8-1.8-6.1-1.8h-11.8z"/>
		<path id="path5263" fill-rule="evenodd" class="s11" d="m391.3 281.2h-5.6l-4.4-11.4h-15.6l-4.2 11.4h-5.2l14.4-37.4h5.3zm-11.5-15.3q-4.6-12.1-5.2-13.8-0.6-1.6-1.3-4.4h-0.1q-0.7 3.8-1.9 7l-4.2 11.2c0 0 12.7 0 12.7 0z"/>
		<path id="path5265" class="s11" d="m418.6 281.2h-23.4v-37.4h4.9v32.9h18.5z"/>
	</g>
	<g id="text1969">
		<path id="path5242" fill-rule="evenodd" class="s11" d="m220.9 313.1q6.8 0 11.2 4.6 4.4 4.7 4.4 12.3 0 7.6-4.4 12.3-4.4 4.6-11.2 4.6-7.1 0-11.4-4.8-4.3-4.8-4.3-11.7 0-8.1 4.3-12.7 4.4-4.6 11.4-4.6zm-0.1 30.1q5 0 8.1-3.5 3.1-3.5 3.1-9.7 0-6.3-3.2-9.8-3.1-3.4-7.9-3.4-4.9 0-8.1 3.4-3.1 3.3-3.1 10.3 0 5.7 3.1 9.2 3.1 3.5 8 3.5z"/>
		<path id="path5244" class="s11" d="m264.4 317.5h-17.7v10.2h15.3v3.8h-15.3v14.8h-4.4v-32.7h22.1z"/>
		<path id="path5246" class="s11" d="m306.2 317.5h-10.8v28.8h-4.4v-28.8h-10.7v-3.9h25.9z"/>
		<path id="path5248" class="s11" d="m336.5 346.3h-4.3v-15.3h-17v15.3h-4.4v-32.7h4.4v13.5h17v-13.5h4.3z"/>
		<path id="path5250" class="s11" d="m368.3 346.3h-24.5v-32.7h23.7v3.9h-19.3v10h18.1v3.9h-18.1v11.1h20.1z"/>
	</g>
	<g id="text1975">
		<path id="path5231" class="s11" d="m196.7 385.8q-0.5-5.4-3.9-8.1-3.4-2.7-9.7-2.7-5.8 0-9.4 2.2-3.6 2.1-3.6 6.2 0 3.6 2.8 5.4 2.8 1.8 10.6 3.5 7 1.6 11.4 3.2 4.4 1.6 7.5 5 3.2 3.4 3.2 9.1 0 7.2-5.8 12-5.7 4.7-15 4.7-11.8 0-17.7-5.2-5.9-5.3-6.2-13.7l7-0.6q0.5 6.7 5.2 9.8 4.7 3 11.4 3 6.2 0 10-2.5 3.9-2.6 3.9-7 0-4.6-4-6.7-4-2.1-13.5-4.1-9.5-2.1-13.6-5.8-4.2-3.7-4.2-9.6 0-6.7 5.3-11.1 5.2-4.4 14.4-4.4 9.3 0 15 4.4 5.7 4.3 6 12.4z"/>
		<path id="path5233" class="s11" d="m260 401.8q0 4.3-0.5 7.9-0.4 3.7-2.5 7.6-2 3.9-6.6 6.5-4.6 2.5-12.3 2.5-7.5 0-12.1-2.3-4.6-2.2-6.8-5.9-2.1-3.6-2.7-7.6-0.6-3.9-0.6-8.7v-32.5h7.4v32.3q0 5.1 0.8 8.8 0.7 3.6 3.8 6.4 3.1 2.8 9.6 2.8 6.5 0 9.8-2.2 3.3-2.3 4.3-6 1-3.8 1-9.8v-32.3h7.4z"/>
		<path id="path5235" fill-rule="evenodd" class="s11" d="m272.5 369.3h19.3q5.1 0 8.8 0.6 3.7 0.5 7 2.5 3.4 2 5.9 5.5 2.5 3.5 3.9 8.1 1.5 4.5 1.5 11 0 12.4-5.9 20.4-5.9 8-20.3 8h-20.2zm7.4 49.4h12q3.7 0 6.6-0.5 2.9-0.4 5.8-2.5 3-2 5-6.6 1.9-4.6 1.9-12.2 0-4.3-0.8-7.9-0.7-3.7-2.7-6.6-2-3.1-4.6-4.4-2.6-1.5-5.1-1.8-2.4-0.3-6.3-0.3h-11.8z"/>
		<path id="path5237" fill-rule="evenodd" class="s11" d="m375.2 425.4h-8.4l-6.6-17.1h-23.4l-6.2 17.1h-7.8l21.5-56.1h8zm-17.2-22.9q-6.9-18.2-7.8-20.7-0.9-2.4-1.9-6.6h-0.2q-1.1 5.7-2.9 10.5l-6.3 16.8z"/>
		<path id="path5239" class="s11" d="m425.5 425.4h-7.6l-29.3-44h-0.1v44h-7.1v-56.1h7.6l29.3 44h0.2v-44h7z"/>
	</g>
</svg>