<svg version="1.2" baseProfile="tiny-ps" xmlns="http://www.w3.org/2000/svg" viewBox="0 0 600 600" width="600" height="600">
	<title></title>
	<defs>
		<radialGradient id="grd1" gradientUnits="userSpaceOnUse"  cx="300" cy="300" r="300">
			<stop offset="0" stop-color="#ffffff"  />
			<stop offset=".1" stop-color="#e8e8e8"  />
			<stop offset=".4" stop-color="#b2b2b2"  />
			<stop offset=".7" stop-color="#8c8c8c"  />
			<stop offset=".9" stop-color="#747474"  />
			<stop offset="1" stop-color="#6b6b6b"  />
		</radialGradient>
	</defs>
	<style>
		tspan { white-space:pre }
		.s0 { fill: #260903 } 
		.s1 { fill: #f7ed02 } 
		.s2 { fill: #dcdddd } 
		.s3 { opacity: .3;fill: url(#grd1) } 
	</style>
	<g >
		<path class="s0" d="m300 600c-165.9 0-300-134.1-300-300c0-165.9 134.1-300 300-300c165.9 0 300 134.1 300 300c0 165.9-134.1 300-300 300z" />
		<path class="s1" d="m300 418.53c-6.44 0-11.64-5.2-11.64-11.64c0-6.44 5.2-11.64 11.64-11.64c6.44 0 11.64 5.2 11.64 11.64c0 6.44-5.2 11.64-11.64 11.64z" />
		<path class="s1" d="m302.35 391.47l0.08-0.06c4.08-22.43-3.15-22.29-3.15-22.29c0 0-7.45-0.14-3.37 22.29l0.03 0.06c-26.1-4.21-37.12-22.96-33.47-37.78c3.8-15.44 21.85-13.54 21.85-13.54c2.61-16.86 14.96-16.63 14.96-16.63c0 0 12.13-0.24 14.74 16.63c0 0 17.94-1.9 21.74 13.54c3.65 14.82-7.32 33.57-33.42 37.78z" />
		<path class="s1" d="m314.78 411.88l0.04 0.09c21.38 7.91 22.5 0.77 22.5 0.77c0 0 1.43-7.31-21.36-7.19l-0.06 0.02c8.68-24.97 29.06-32.57 43.02-26.41c14.54 6.42 9.54 23.87 9.54 23.87c16.15 5.5 13.78 17.62 13.78 17.62c0 0-1.87 11.99-18.93 11.63c0 0-1.24 18-17.11 19.06c-15.23 1.02-31.79-13.04-31.4-39.47z" />
		<path class="s1" d="m284.4 407.25l-0.07-0.07c-22.8-0.12-21.4 6.97-21.4 6.97c0 0 1.16 7.36 22.53-0.56l0.05-0.03c0.38 26.43-16.17 40.55-31.4 39.53c-15.87-1.06-17.13-19.17-17.13-19.17c-17.06 0.35-18.97-11.85-18.97-11.85c0 0-2.34-11.91 13.81-17.41c0 0-4.99-17.34 9.56-23.76c13.96-6.17 34.33 1.38 43.01 26.35z" />
		<path class="s1" d="m295.01 444.66v44.18c0 0-53.75 10.15-77.11 62.53c0 0-5.37-8.73-5.19-21.02l-13.36-3.56c0 0 21.73-67.52 95.67-82.13z" />
		<path class="s1" d="m295.01 497.39v38.48c0 0-27.24 6.94-41.69 32.42c0 0-4.81-4.1-6.15-9.26l-25.03-0.71c0 0 22.8-50.42 72.86-60.93z" />
		<path class="s1" d="m295.01 544.42v44.18c0 0-13.9-10.69-19.77-17.46l-16.66 0.36c0 0 17.9-23.87 36.43-27.08z" />
		<path class="s1" d="m241.75 456.41c0 0-37.95 29.39-47.74 66.45l-11.58-8.73c0 0-26.37 1.6-42.04 14.25c0 0 13.9-52.02 83.55-87.83c0 0 2.49-1.25 6.68 2.23c4.19 3.47 1.67 7.93 11.13 13.63z" />
		<path class="s1" d="m219.83 435.75c0 0-70.01 38.48-81.24 89.61c0 0-7.13-35.99 5.34-58.79l-7.37-2.67c0 0 16.1-39.14 75.6-47.9c0 0-1.78 10.49 7.66 19.75z" />
		<path class="s1" d="m224.7 399.29c0 0-6.65 1.43-11.16 11.4c0 0-20.9-9.97-65.8 27.32c0 0-7.6-26.6 25.18-48.69l5.28-19.24c0 0 29.64 3.32 46.5 29.22z" />
		<path class="s1" d="m227.79 386.93c0 0-1.54 1.34-1.54 4.41c0 0-22.51-24.66-46.26-29.65c0 0-22.3-43.2-55.55-54.13c0 0 19.51-4.25 36.61 4.07v-9.5c0 0 48.45 18.53 66.74 84.8z" />
		<path class="s1" d="m173.16 285.51l-0.47-17.34c48.22 2.61 65.32 42.51 65.32 42.51l9.17-10.69c18.44 30.64 1.28 74.82 1.28 74.82c-10.93-4.04-18.53 6.65-18.53 6.65c-12.35-61.52-69.6-86.7-69.6-86.7l12.83-9.26z" />
		<path class="s1" d="m140.38 444.66c-9.5 13.3-14.01 24.71-14.01 24.71l7.36 3.8c-6.89 9.74-20.43 15.2-20.43 15.2l-1.43-7.6l-17.81 6.41c-1.66-14.49 11.16-29.45 11.16-29.45l-5.7-2.85c19.24-17.1 38.72-24.94 38.72-24.94l2.14 14.72z" />
		<path class="s1" d="m168.88 368.17c-21.85 76.01-85.75 75.06-85.75 75.06l2.38-13.3l-14.73-7.37c48.22-29.22 51.31-54.39 51.31-54.39c22.09-4.28 46.79 0 46.79 0z" />
		<path class="s1" d="m167.7 358.67c0 0-21.62-4.28-46.32 0c0 0-14.25-28.74-55.34-26.6c0 0 10.39-8.31 27.88-12.83l-7.93-10.69c0 0 55.11-12.35 81.71 50.12z" />
		<path class="s1" d="m63.66 418.52l-0.24-13.77c-11.16-3.32-25.89-14.97-25.89-14.97c28.5-17.34 75.53-20.9 75.53-20.9c-9.5 33.25-49.41 49.64-49.41 49.64z" />
		<path class="s1" d="m52.26 349.64l-4.28-5.7c42.99-19.48 63.42 16.39 63.42 16.39c-49.41 5.94-75.3 24.7-75.3 24.7c6.65-21.38 16.15-35.39 16.15-35.39z" />
		<path class="s2" d="m160.33 83.02c4.28-2.85 7.48-2.85 7.3 0c-0.18 2.85-3.27 4.39-3.27 4.39c-105.46 62.23-66.39 214.73-66.39 214.73c-8.91-4.28-14.61 0-14.61 0c-21.62-175.77 72.68-216.27 76.96-219.12z" />
		<path class="s2" d="m214.73 43.24c0 0 31.83-6.65 10.69 20.9c0 0 8.55 12.83-10.69 20.19c-19.24 7.36-48.22 3.8-48.22 3.8c0 0 12.35-7.36 19.24-12.35c6.89-4.99 1.43-10.21-5.94-6.89c-7.36 3.33-16.86 11.99-16.86 11.99c0 0-1.19-16.98 7.84-27.9c9.03-10.93 35.39-28.5 43.94-9.74z" />
		<path class="s2" d="m129.93 235.15c0 0 8.08-9.5 21.38-5.23c13.3 4.28 4.28 23.28 4.28 23.28c0 0 17.1 9.26 4.75 25.18c-12.35 15.91-47.27 15.91-47.27 15.91c0 0 7.18-13.06 10.84-15.44c3.65-2.38 3.41-9.97-2.05-10.68c-5.46-0.72-11.4 14.48-12.11 23.27c0 0-10.69-12.35-7.13-31.12c3.56-18.77 12.11-31.11 27.32-25.18z" />
		<path class="s2" d="m125.65 177.68c0 0 24.23-16.63 16.86 11.4c0 0 8.08 8.31 4.99 14.96c-3.09 6.65-6.65 16.63-49.41 20.67c0 0 4.99-9.03 12.11-13.78c7.13-4.75 4.04-10.45-3.09-4.75c-7.13 5.7-9.03 12.35-9.03 12.35c0 0-1.19-57.72 27.55-40.86z" />
		<path class="s2" d="m157.48 125.19c0 0 6.18-4.28 13.78-1.9c7.6 2.38 6.82 11.88-6.44 15.91c0 0 8.58 13.3-11.84 18.53c-20.43 5.23-38.24-1.9-38.24-1.9c0 0 5.94-3.8 12.59-5.94c6.65-2.14 10.93-7.13 4.99-7.13c-5.94 0-10.69 3.8-17.58 9.74c0 0 4.75-14.96 15.2-24.94c10.45-9.98 25.42-12.83 27.55-2.37z" />
		<path class="s2" d="m106.65 128.74c0 0-11.4 12.59-23.28 53.92c0 0-8.55-9.98-10.93-20.9c-2.38-10.93-8.79-33.73 13.3-31.83c0 0 1.41-11.64 12.34-13.06c10.93-1.43 8.56 11.88 8.56 11.88z" />
		<path class="s2" d="m78.38 201.42c0 0-3.56 11.4-4.63 20.9c0 0-8.19-19.24-12.23-12.59c-4.04 6.65 10.69 20.19 10.69 20.19c0 0-1.19 14.73-0.24 28.98c0 0-20.67-14.73-27.08-21.85c-6.41-7.13-21.14-25.18-2.61-35.63c0 0-3.56-13.77 6.65-19.95c10.21-6.18 15.68 8.08 15.68 8.08c0 0 16.63-7.13 13.78 11.87z" />
		<path class="s2" d="m73.75 277.67c6.35 22.08-2.97 39.67-2.97 39.67c0 0 1.19-9.27-6.41-17.34c-7.6-8.07-14.25 0-8.38 5.22c5.87 5.23 12.42 14.73 12.42 14.73c-42.76 15.91-47.98-5.94-48.93-17.81c-0.95-11.87 7.6-17.58 7.6-17.58c0 0-9.03-11.16 0-20.19c9.03-9.03 20.43 2.85 20.43 2.85c0 0 19.9-11.63 26.25 10.45z" />
		<path class="s1" d="m400.65 526.78l-13.36 3.56c0.18 12.29-5.19 21.02-5.19 21.02c-23.36-52.38-77.11-62.53-77.11-62.53v-44.18c73.93 14.61 95.67 82.13 95.67 82.13z" />
		<path class="s1" d="m377.85 558.31l-25.03 0.71c-1.34 5.17-6.15 9.26-6.15 9.26c-14.45-25.48-41.69-32.42-41.69-32.42v-38.48c50.06 10.51 72.86 60.93 72.86 60.93z" />
		<path class="s1" d="m341.42 571.5l-16.66-0.36c-5.88 6.77-19.77 17.46-19.77 17.46v-44.18c18.53 3.21 36.43 27.08 36.43 27.08z" />
		<path class="s1" d="m369.39 442.79c4.19-3.47 6.68-2.23 6.68-2.23c69.66 35.81 83.55 87.83 83.55 87.83c-15.68-12.65-42.04-14.25-42.04-14.25l-11.58 8.73c-9.8-37.05-47.74-66.45-47.74-66.45c9.46-5.7 6.95-10.15 11.13-13.63z" />
		<path class="s1" d="m387.83 416c59.5 8.75 75.6 47.9 75.6 47.9l-7.37 2.67c12.47 22.8 5.34 58.79 5.34 58.79c-11.22-51.13-81.24-89.61-81.24-89.61c9.44-9.26 7.66-19.75 7.66-19.75z" />
		<path class="s1" d="m421.8 370.07l5.28 19.24c32.78 22.09 25.18 48.69 25.18 48.69c-44.89-37.29-65.8-27.32-65.8-27.32c-4.51-9.98-11.16-11.4-11.16-11.4c16.86-25.89 46.5-29.22 46.5-29.22z" />
		<path class="s1" d="m438.95 302.14v9.5c17.1-8.31 36.61-4.07 36.61-4.07c-33.25 10.93-55.55 54.13-55.55 54.13c-23.75 4.99-46.26 29.65-46.26 29.65c0-3.07-1.54-4.41-1.54-4.41c18.29-66.27 66.75-84.8 66.74-84.8z" />
		<path class="s1" d="m439.67 294.77c0 0-57.25 25.18-69.6 86.7c0 0-7.6-10.69-18.53-6.65c0 0-17.16-44.18 1.28-74.82l9.18 10.69c0 0 17.1-39.9 65.32-42.51l-0.47 17.34l12.83 9.26z" />
		<path class="s1" d="m461.76 429.93c0 0 19.48 7.84 38.72 24.94l-5.7 2.85c0 0 12.83 14.96 11.16 29.45l-17.81-6.41l-1.43 7.6c0 0-13.54-5.46-20.43-15.2l7.37-3.8c0 0-4.51-11.41-14.02-24.71l2.14-14.72z" />
		<path class="s1" d="m477.91 368.17c0 0 3.09 25.18 51.31 54.39l-14.73 7.37l2.38 13.3c0 0-63.9 0.95-85.75-75.06c0 0 24.7-4.28 46.79 0z" />
		<path class="s1" d="m514.01 308.55l-7.93 10.69c17.49 4.51 27.88 12.83 27.88 12.83c-41.09-2.14-55.34 26.6-55.34 26.6c-24.7-4.28-46.32 0-46.32 0c26.6-62.47 81.71-50.12 81.71-50.12z" />
		<path class="s1" d="m486.94 368.88c0 0 47.03 3.56 75.53 20.9c0 0-14.73 11.65-25.89 14.97l-0.24 13.77c0 0-39.9-16.39-49.41-49.64z" />
		<path class="s1" d="m563.9 385.03c0 0-25.89-18.76-75.3-24.7c0 0 20.43-35.87 63.42-16.39l-4.28 5.7c0 0 9.5 14.01 16.15 35.39z" />
		<path class="s2" d="m516.63 302.14c0 0-5.7-4.28-14.61 0c0 0 39.07-152.49-66.39-214.73c0 0-3.09-1.54-3.27-4.39c-0.18-2.85 3.03-2.85 7.3 0c4.28 2.85 98.58 43.35 76.96 219.12z" />
		<path class="s2" d="m429.22 52.98c9.03 10.93 7.84 27.9 7.84 27.9c0 0-9.5-8.66-16.86-11.99c-7.36-3.33-12.83 1.9-5.94 6.89c6.89 4.99 19.24 12.35 19.24 12.35c0 0-28.98 3.56-48.22-3.8c-19.24-7.36-10.69-20.19-10.69-20.19c-21.14-27.55 10.69-20.9 10.69-20.9c8.55-18.77 34.92-1.19 43.94 9.74z" />
		<path class="s2" d="m497.39 260.33c3.56 18.77-7.13 31.12-7.13 31.12c-0.71-8.79-6.65-23.99-12.11-23.27c-5.46 0.72-5.7 8.31-2.05 10.68c3.65 2.38 10.84 15.44 10.84 15.44c0 0-34.92 0-47.27-15.91c-12.35-15.91 4.75-25.18 4.75-25.18c0 0-9.03-19 4.28-23.28c13.3-4.28 21.38 5.23 21.38 5.23c15.2-5.94 23.75 6.41 27.32 25.18z" />
		<path class="s2" d="m501.9 218.53c0 0-1.9-6.65-9.02-12.35c-7.13-5.7-10.22 0-3.09 4.75c7.13 4.75 12.11 13.78 12.11 13.78c-42.76-4.04-46.32-14.01-49.41-20.67c-3.09-6.65 4.99-14.96 4.99-14.96c-7.36-28.03 16.87-11.4 16.87-11.4c28.74-16.86 27.55 40.86 27.55 40.86z" />
		<path class="s2" d="m470.07 127.57c10.45 9.98 15.2 24.94 15.2 24.94c-6.89-5.94-11.64-9.74-17.58-9.74c-5.94 0-1.66 4.99 4.99 7.13c6.65 2.14 12.59 5.94 12.59 5.94c0 0-17.81 7.13-38.24 1.9c-20.43-5.23-11.84-18.53-11.84-18.53c-13.27-4.04-14.05-13.54-6.44-15.91c7.6-2.38 13.78 1.9 13.78 1.9c2.14-10.45 17.1-7.6 27.55 2.38z" />
		<path class="s2" d="m501.91 116.86c10.93 1.43 12.34 13.06 12.34 13.06c22.09-1.9 15.68 20.9 13.3 31.83c-2.37 10.93-10.93 20.9-10.93 20.9c-11.88-41.33-23.28-53.92-23.28-53.92c0 0-2.37-13.3 8.56-11.88z" />
		<path class="s2" d="m535.39 189.55c0 0 5.46-14.25 15.68-8.08c10.21 6.18 6.65 19.95 6.65 19.95c18.53 10.45 3.8 28.5-2.61 35.63c-6.41 7.13-27.08 21.85-27.08 21.85c0.95-14.25-0.24-28.98-0.24-28.98c0 0 14.72-13.54 10.69-20.19c-4.04-6.65-12.23 12.59-12.23 12.59c-1.07-9.5-4.63-20.9-4.63-20.9c-2.85-19 13.78-11.87 13.78-11.87z" />
		<path class="s2" d="m552.49 267.22c0 0 11.4-11.88 20.43-2.85c9.03 9.03 0 20.19 0 20.19c0 0 8.55 5.7 7.6 17.58c-0.95 11.87-6.18 33.73-48.93 17.81c0 0 6.55-9.5 12.42-14.73c5.87-5.23-0.78-13.29-8.38-5.22c-7.6 8.07-6.41 17.34-6.41 17.34c0 0-9.32-17.58-2.97-39.67c6.35-22.08 26.25-10.45 26.25-10.45z" />
		<path fill-rule="evenodd" class="s1" d="m421.59 179.57l-61.23 64.06l-61.23 63.92l-61.23-63.99l-61.23-63.99h244.93zm-73.48 28.5h-97.97l24.49 25.57l24.49 25.56l24.49-25.55l24.49-25.58z" />
		<path fill-rule="evenodd" class="s1" d="m176.66 162.47l61.23-63.83l61.23-63.83l61.23 63.82l61.23 63.85h-244.93zm146.96-53.93l-24.49-25.39l-24.49 25.46l-24.49 25.35h97.97l-24.49-25.42z" />
		<path class="s3" d="m300 600c-165.9 0-300-134.1-300-300c0-165.9 134.1-300 300-300c165.9 0 300 134.1 300 300c0 165.9-134.1 300-300 300z" />
	</g>
</svg>