<svg version="1.2" baseProfile="tiny-ps" xmlns="http://www.w3.org/2000/svg" viewBox="0 0 600 600" width="600" height="600">
	<title></title>
	<style>
		tspan { white-space:pre }
		.s0 { fill: #bf8634;stroke: #965a1d;stroke-linecap:round;stroke-linejoin:round;stroke-width: 4.2 } 
		.s1 { fill: #bf8634 } 
		.s2 { fill: #965a1d } 
		.s3 { fill: #cc2624 } 
		.s4 { fill: #dd2223 } 
		.s5 { fill: #ffffff } 
		.s6 { fill: #a5181d } 
		.s7 { fill: #bf8634;stroke: #965a1d;stroke-linecap:round;stroke-linejoin:round;stroke-width: 4.3 } 
		.s8 { fill: none;stroke: #000000;stroke-width: 1.1 } 
		.s9 { fill: #a17d2e } 
		.s10 { fill: #000000 } 
		.s11 { fill: none;stroke: #ffffff;stroke-width: 1.1 } 
		.s12 { fill: #3752d2 } 
		.s13 { fill: #c6c9d0 } 
		.t14 { font-size: 12px;fill: #000000;font-family: "Constantia" } 
		.s15 { fill: #845035 } 
		.s16 { fill: #337e35 } 
		.s17 { fill: #c9d0d9 } 
		.s18 { fill: none;stroke: #000000;stroke-linecap:round;stroke-linejoin:round;stroke-width: 3.8 } 
		.s19 { fill: #b79235 } 
		.s20 { fill: #b79235;stroke: #eee1ac;stroke-width: 1.1 } 
		.s21 { fill: #0014f2;stroke: #000000;stroke-linecap:round;stroke-linejoin:round;stroke-width: .3 } 
		.s22 { fill: none;stroke: #ffffff;stroke-width: 1.3 } 
		.s23 { fill: #d94604;stroke: #000000;stroke-linecap:round;stroke-linejoin:round;stroke-width: .3 } 
		.s24 { fill: #d94604;stroke: #ffffff;stroke-width: 1.5 } 
		.s25 { fill: #96a0a5 } 
		.s26 { fill: #a9b6bc } 
		.s27 { fill: #bcc9cf } 
		.s28 { fill: #deecf4 } 
		.s29 { fill: #d94604;stroke: #000000;stroke-linecap:round;stroke-linejoin:round;stroke-width: .2 } 
		.s30 { fill: #b79235;stroke: #000000;stroke-width: .8 } 
		.s31 { fill: none;stroke: #ffffff;stroke-width: .4 } 
		.s32 { fill: none;stroke: #000000;stroke-width: .8 } 
	</style>
	<g >
		<g >
			<g >
				<g >
					<path class="s0" d="m441.46 84.32c2-3.93 6.79-5.47 10.7-3.44v0c3.91 2.03 5.46 6.86 3.46 10.79l-246.27 484.01c-2 3.93-6.79 5.47-10.7 3.44v0c-3.91-2.03-5.46-6.86-3.46-10.79l246.27-484.01z" />
					<path class="s1" d="m456.8 81.69c-5.9 0-10.67-4.77-10.67-10.68c0-5.9 4.77-10.68 10.67-10.68c5.9 0 10.67 4.77 10.67 10.68c0 5.9-4.77 10.68-10.67 10.68z" />
					<path class="s1" d="m476.36 20.64c2.78 0.75 5.38 2.03 7.66 3.78c2.28 1.75 4.2 3.94 5.63 6.43c1.44 2.49 2.37 5.24 2.75 8.1c0.38 2.85 0.19 5.75-0.56 8.53c-0.74 2.78-2.03 5.39-3.78 7.67c-1.75 2.28-3.93 4.2-6.42 5.64c-2.49 1.44-5.24 2.37-8.09 2.75c-2.85 0.38-5.75 0.19-8.53-0.56c-2.78-0.74-5.38-2.03-7.66-3.78c-2.28-1.75-4.2-3.94-5.63-6.43c-1.44-2.49-2.37-5.24-2.75-8.1c-0.38-2.85-0.19-5.75 0.56-8.53c0.22-0.83 0.5-1.66 0.82-2.46c0.32-0.8 0.69-1.59 1.1-2.34c0.41-0.76 0.87-1.49 1.37-2.2c0.5-0.7 1.04-1.38 1.62-2.02c-0.11 0.22-0.21 0.44-0.31 0.67c-0.1 0.22-0.19 0.45-0.28 0.68c-0.09 0.23-0.17 0.46-0.24 0.69c-0.08 0.23-0.15 0.47-0.21 0.7c-0.52 1.93-0.65 3.93-0.39 5.91c0.26 1.98 0.91 3.88 1.9 5.61c1 1.73 2.32 3.24 3.9 4.45c1.58 1.21 3.38 2.1 5.31 2.62c1.92 0.52 3.93 0.65 5.91 0.39c1.97-0.26 3.88-0.91 5.6-1.9c1.73-1 3.24-2.32 4.45-3.91c1.21-1.58 2.1-3.39 2.62-5.31c0.44-1.65 0.6-3.36 0.47-5.07c-0.13-1.7-0.55-3.37-1.23-4.94c-0.69-1.56-1.63-3-2.79-4.25c-1.16-1.25-2.53-2.29-4.04-3.09c0.11 0.02 0.21 0.04 0.31 0.06c0.1 0.02 0.21 0.04 0.31 0.07c0.1 0.02 0.21 0.05 0.31 0.07c0.1 0.02 0.21 0.05 0.31 0.07l0 0z" />
					<path class="s2" d="m448.42 80.98c5.78 0.24 5.82 2.23 7.27 5.45c0.21 2.38-2.38 10.8-4.52 2.31c-9.2-15.95-2.9-5.37-4.39-8.41l1.64 0.64z" />
				</g>
				<g >
					<path class="s3" d="m272.93 504.75c13.7-23.75 13.64-34.72 11.87-48.22l8.89 8.53c4.32 33.4 6.76 66.63 5.24 99.5c-1.34 3.96-0.3 10.99-7.77 7.07c-2.5 0.36-4.99-10.67-7.49-23.33c-9.4 0.41-8.84-3.04-10.45-5.66c-4.14-8.03-1.51-31.59-0.28-37.89l0 0z" />
					<path class="s4" d="m138.65 81.62c-13.38 32.55 43.55 129.54 66.68 143.11c10.74 69.85 35.29 133.87 28.75 210.87c-0.79 13.42 10.22 60.65 50.72 20.93c6.5 23.52-6.75 45.05-26.98 65.89c-9.99 13.97-86.57 74.08-164.32-11.17c-101.77-155.06 13.55-351.73 45.15-429.63l0 0z" />
					<path class="s5" d="m111.84 341.87l-8.55 12.5l0.57 15.14l-14.52-4.27l-14.21 5.22l-0.43-15.14l-9.35-11.91l14.26-5.09l8.43-12.58l9.24 12l14.56 4.14z" />
					<path class="s5" d="m197.19 229.55l-2.62 14.92l6.77 13.55l-14.99 2.12l-10.78 10.63l-6.64-13.61l-13.44-6.98l10.88-10.53l2.48-14.95l13.37 7.11l14.97-2.26z" />
					<path class="s5" d="m153.3 162.57l-10.28 11.12l-1.64 15.06l-13.75-6.34l-14.82 3.09l1.78-15.05l-7.52-13.15l14.85-2.95l10.17-11.22l7.4 13.22l13.8 6.22z" />
					<path class="s5" d="m129.81 465.56l-0.44 15.14l8.65 12.43l-14.53 4.26l-9.14 12.08l-8.54-12.51l-14.3-4.97l9.25-11.99l0.3-15.15l14.25 5.1l14.49-4.4z" />
					<path class="s5" d="m237.81 485.63l-6.9 13.49l2.48 14.95l-14.95-2.4l-13.44 6.98l-2.34-14.97l-10.78-10.63l13.5-6.85l6.77-13.55l10.68 10.73l14.97 2.26z" />
					<path class="s5" d="m112.3 259.85c-3.63-10.68-9.9-22.79-10.45-31.81c3.8-23.64 32.46-3 16.35 8.12c0.97 6.81 5.55 13.73 7.36 18.53l8.72-4.13c0.67-23.75 19.82-8.91 16.03-1.74c-2.43 7.71-7.45 14.18-19.92 17.11c119.01 208.28 6.61 265.34 19.5 254.8c-5.53 10.2 49.43-90.41-29.67-243.42c-2.14-5.99-7.17-3.86-9.97-0.65c-3.87 20.95-20.32 8.09-16.52-2.32c5.78-8.79 12.26-10.84 18.58-14.49l0 0z" />
					<path class="s6" d="m284.8 456.53l8.89 8.53c6.46 42.97 8.26 94.66 4.54 103.04c-0.55 3.27-1.89 6.99-8.06 3.39c-6.89-11.86-5.02-16.41-6.5-23.19c-7.52 1.12-9.68-2.88-10.45-5.66c18.11 2.15 13.32-8.79 17.18-14.79c3.2-10.55-5.62-9.06-10.09-10.4c-3.53-2.05 1.15-19.18 1.8-28.9l2.7-32.02z" />
				</g>
				<g >
					<path class="s7" d="m413.65 587.26c2.09 4.05 0.54 9.09-3.46 11.27v0c-4 2.18-8.94 0.66-11.03-3.39l-260.19-503.45c-2.09-4.05-0.54-9.09 3.46-11.27v0c4-2.18 8.94-0.66 11.03 3.39l260.19 503.45z" />
					<path class="s1" d="m138.65 81.69c-5.9 0-10.67-4.77-10.67-10.68c0-5.9 4.77-10.68 10.67-10.68c5.9 0 10.67 4.77 10.67 10.68c0 5.9-4.77 10.68-10.67 10.68z" />
					<path class="s1" d="m132.05 17.82c0.11 0 0.21 0.01 0.32 0.01c0.11 0 0.21 0.01 0.32 0.01c0.11 0.01 0.21 0.01 0.32 0.02c0.11 0.01 0.21 0.01 0.32 0.02c-1.67 0.38-3.26 1.03-4.7 1.94c-1.45 0.91-2.73 2.05-3.8 3.38c-1.07 1.33-1.9 2.84-2.47 4.45c-0.57 1.61-0.86 3.31-0.86 5.02c0 1.99 0.39 3.97 1.15 5.81c0.76 1.84 1.88 3.52 3.29 4.93c1.41 1.41 3.08 2.53 4.92 3.29c1.84 0.76 3.81 1.16 5.8 1.16c1.99 0 3.96-0.39 5.8-1.16c1.84-0.76 3.51-1.88 4.92-3.29c1.41-1.41 2.53-3.08 3.29-4.93c0.76-1.84 1.15-3.82 1.15-5.81c0-0.24-0.01-0.49-0.02-0.73c-0.01-0.24-0.03-0.49-0.06-0.73c-0.02-0.24-0.06-0.49-0.09-0.73c-0.04-0.24-0.08-0.48-0.13-0.72c0.39 0.77 0.74 1.56 1.04 2.37c0.3 0.81 0.55 1.64 0.75 2.48c0.2 0.84 0.36 1.69 0.46 2.55c0.1 0.86 0.15 1.72 0.15 2.59c0 2.88-0.57 5.73-1.67 8.39c-1.1 2.66-2.71 5.07-4.75 7.11c-2.03 2.04-4.45 3.65-7.1 4.75c-2.66 1.1-5.5 1.67-8.38 1.67c-2.88 0-5.72-0.57-8.38-1.67c-2.66-1.1-5.07-2.72-7.1-4.75c-2.03-2.03-3.65-4.45-4.75-7.11c-1.1-2.66-1.67-5.51-1.67-8.39c0-2.88 0.57-5.73 1.67-8.39c1.1-2.66 2.71-5.08 4.75-7.11c2.03-2.04 4.45-3.65 7.1-4.75c2.66-1.1 5.5-1.67 8.38-1.67l0 0z" />
					<path class="s2" d="m148.41 80.34c-1.5 3.03 4.8-7.55-4.39 8.41c-2.13 8.49-4.72 0.06-4.52-2.31c1.45-3.22 1.49-5.21 7.27-5.45l1.64-0.64z" />
				</g>
				<g >
					<path class="s3" d="m327.48 504.98c1.23 6.31 3.86 29.87-0.28 37.89c-1.61 2.61-1.05 6.06-10.45 5.66c-2.5 12.66-4.99 23.69-7.49 23.33c-7.47 3.92-6.43-3.11-7.77-7.07c-1.53-32.87 0.92-66.1 5.24-99.5l8.89-8.53c-1.78 13.5-1.83 24.46 11.87 48.22l0 0z" />
					<path class="s6" d="m323.71 523.32c-7.86-37.91-8.36-36.27-6.65-37.97c8.82 2.67 14.31 6.67 11.91 50.91c-6.59-2.04-25.26-0.57-22.77-7.45c1.3-7.03 16.03-3.27 17.52-5.49v0z" />
					<path class="s4" d="m459.77 81.24c32.56 73.63 148.94 275.11 47.16 430.25c-77.75 85.25-154.34 25.14-164.32 11.17c-20.24-20.84-33.48-42.38-26.98-65.89c40.5 39.72 51.51-7.51 50.72-20.93c-6.54-77.01 14.11-143.31 24.84-213.17c21.59-26.91 62.93-92.59 68.59-141.43v0z" />
					<path class="s5" d="m503.13 337.97l9.24-12l8.43 12.58l14.26 5.09l-9.35 11.91l-0.43 15.14l-14.21-5.22l-14.52 4.27l0.57-15.14l-8.55-12.5l14.56-4.14z" />
					<path class="s5" d="m418.19 232.03l13.37-7.11l2.48 14.95l10.88 10.53l-13.44 6.98l-6.64 13.61l-10.78-10.63l-14.99-2.12l6.77-13.55l-2.62-14.92l14.97 2.26z" />
					<path class="s5" d="m460.92 156.58l7.4-13.22l10.17 11.22l14.85 2.95l-7.52 13.15l1.78 15.05l-14.82-3.09l-13.75 6.34l-1.64-15.06l-10.28-11.12l13.8-6.22z" />
					<path class="s5" d="m485.09 470.18l14.25-5.1l0.3 15.15l9.25 11.99l-14.3 4.97l-8.54 12.51l-9.14-12.08l-14.53-4.26l8.65-12.43l-0.44-15.14l14.49 4.4z" />
					<path class="s5" d="m377.57 483.6l10.68-10.73l6.77 13.55l13.5 6.85l-10.78 10.63l-2.34 14.97l-13.44-6.98l-14.95 2.4l2.48-14.95l-6.9-13.49l14.97-2.26z" />
					<path class="s5" d="m488.12 260.08c6.31 3.65 12.79 5.7 18.58 14.49c3.79 10.41-12.65 23.27-16.52 2.32c-2.8-3.21-7.83-5.35-9.97 0.65c-79.1 153.01-24.14 253.62-29.67 243.42c12.89 10.54-99.51-46.52 19.5-254.8c-12.47-2.93-17.49-9.4-19.92-17.11c-3.79-7.17 15.36-22.01 16.03 1.74l8.72 4.13c1.81-4.8 6.38-11.72 7.36-18.53c-16.11-11.12 12.56-31.76 16.35-8.12c-0.56 9.03-6.82 21.13-10.45 31.81l0 0z" />
					<path class="s6" d="m313.98 561.22c-1.93-2.31-6.52-5.76-6.03-6.88c0.87-2.21 6.19-3.51 8.26-3.51c-0.34 3.16-1.64 8.26-2.23 10.39v0z" />
				</g>
				<g >
					<path class="s8" d="m195.09 202.05l216.72-2c-29.98 49.09 14.96 162.47-30.21 201.85c-27.06 20-54.13 41.75-81.19 68.7c-26.82-25.88-55.19-49.41-84.13-72.07c-30.8-28.93 0.23-140.64-21.19-196.48h0z" />
					<g >
						<g >
							<g >
								<path class="s9" d="m202.71 282.61l198.66 1.48c1.22 28.7 3.62 57.29-2.57 86.76h-194.96c-3.23-26.04-1.03-65.97-1.13-88.23z" />
								<path class="s8" d="m202.7 362.94h197.86" />
								<path class="s8" d="m202.37 349.5h199.8" />
								<path class="s8" d="m202.1 336.2h200.65" />
								<path class="s8" d="m202.1 322.62h200.65" />
								<path class="s8" d="m202.1 308.77h200.65" />
								<g >
									<path class="s10" d="m231.1 308.88h27.29v13.66h-27.29v-13.66z" />
									<path class="s11" d="m232.91 320.66v-10.36h24.09" />
								</g>
								<g >
									<path class="s10" d="m286.88 308.88h27.29v13.66h-27.29v-13.66z" />
									<path class="s11" d="m288.69 320.66v-10.36h24.09" />
								</g>
								<g >
									<path class="s10" d="m343.05 308.88h27.29v13.66h-27.29v-13.66z" />
									<path class="s11" d="m344.86 320.66v-10.36h24.09" />
								</g>
								<g >
									<path class="s10" d="m358.68 322.69h27.29v13.66h-27.29v-13.66z" />
									<path class="s11" d="m360.48 334.47v-10.36h24.09" />
								</g>
								<g >
									<path class="s10" d="m300.53 322.69h27.29v13.66h-27.29v-13.66z" />
									<path class="s11" d="m302.33 334.47v-10.36h24.09" />
								</g>
								<g >
									<path class="s10" d="m245.35 322.69h27.29v13.66h-27.29v-13.66z" />
									<path class="s11" d="m247.15 334.47v-10.36h24.09" />
								</g>
								<g >
									<path class="s10" d="m230.75 336.15h27.29v13.66h-27.29v-13.66z" />
									<path class="s11" d="m232.56 347.93v-10.36h24.09" />
								</g>
								<g >
									<path class="s10" d="m285.44 336.15h27.29v13.66h-27.29v-13.66z" />
									<path class="s11" d="m287.24 347.93v-10.36h24.09" />
								</g>
								<g >
									<path class="s10" d="m342.64 336.15h27.29v13.66h-27.29v-13.66z" />
									<path class="s11" d="m344.45 347.93v-10.36h24.09" />
								</g>
								<g >
									<path class="s10" d="m358.37 349.45h27.29v13.66h-27.29v-13.66z" />
									<path class="s11" d="m360.18 361.23v-10.36h24.09" />
								</g>
								<g >
									<path class="s10" d="m300.19 349.45h27.29v13.66h-27.29v-13.66z" />
									<path class="s11" d="m302 361.23v-10.36h24.09" />
								</g>
								<g >
									<path class="s10" d="m245.09 349.45h27.29v13.66h-27.29v-13.66z" />
									<path class="s11" d="m246.9 361.23v-10.36h24.09" />
								</g>
								<g >
									<path class="s10" d="m202.01 322.79h16.16v13.71h-16.16v-13.71z" />
									<path class="s11" d="m203.33 324.27h13.22" />
								</g>
								<g >
									<path class="s10" d="m202.45 349.16h16.16v13.71h-16.16v-13.71z" />
									<path class="s11" d="m203.77 350.65h13.22" />
								</g>
							</g>
							<g >
								<path class="s12" d="m203.23 364.08c15.45-2.43 18.81 1.92 26.22 4c12.04-1.07 23.2-8.28 30.37-3.6c11.94 4.19 12.33 6.15 22.78 4.8c26.26-5.29 17.62-4.1 34.07-5.4c10.56-0.12 16.99 2.66 25.17 4.2c16.91-1.55 15.76-4.64 21.58-4.2c6.39 1.83 12.85 4.85 21.78 4.8c3.88 0.54 9.73-2.32 14.78-3.8c-3.51 39.42-33.23 40.52-99.5 105.8c-62.4-64.24-97.32-65.01-97.25-106.6z" />
								<g >
									<path class="s5" d="m216.3 376.66c0.14-0.75 5.17 0.31 11.31 1.04c1.71 0.2 3.22 0.33 4.68 0.37v0c3.55 0.16 6.42-0.42 6.47-0.03c-0.01-0.07-2.38 1.6-6.46 1.8v0c-1.52 0.07-3.16 0-4.92-0.21c-6.36-0.74-11.13-2.68-11.08-2.98l0 0z" />
									<path class="s5" d="m223.77 392.9c0.06 0.03-0.15-3.55 3.77-7.03c1.7-1.47 4.18-2.43 6.92-2.16c0.42 0.04 0.83 0.11 1.24 0.21h0c2.93 0.72 5.46 1.59 7.55 2.07c3.31 0.5 4.8-0.21 5.05-0.03c0.57 0.4-1.35 2.35-5.32 1.54c-2.65-0.33-4.51-0.94-7.73-1.69v0c-0.32-0.08-0.65-0.13-0.98-0.17c-2.17-0.22-4.21 0.47-5.64 1.56c-3.4 2.54-4.51 5.83-4.86 5.69l0 0z" />
									<path class="s5" d="m344.45 389.98c0.09-0.13 0.82 0.11 2.08-0.55c1.09-0.65 1.71-1.22 3.19-2.41c2.45-1.99 6.41-5.09 10.85-7.21c0.99-0.46 2.02-0.83 3.1-1.11c3.95-1.02 8.03-0.73 11.2-0.23c7.12 1.02 11.37 3.54 10.91 4.21c-0.21 0.3-4.29-1.77-11.12-2.51c-3.08-0.3-6.98-0.49-10.5 0.41c-0.97 0.25-1.89 0.57-2.76 0.98c-4.11 1.89-8.34 4.86-10.86 6.56c-1.48 1-2.45 1.64-3.62 2.1c-1.93 0.88-2.44-0.27-2.46-0.24v0z" />
									<path class="s5" d="m220.59 397.94c0.07 0.02-0.21-0.82 1.35-0.94v0c0.91-0.16 1.85-0.15 3.29-0.05c3.09 0.21 5.47 0.62 10.09 1.31c3.24 0.48 7.48 1.13 11.53 1.39c2.89 0.17 6.16 0.39 8.91-0.64c1.34-0.46 2.64-0.43 3.8-0.45c1.39-0.04 2.79-0.04 4.21-0.02c0.72 0.01 1.43 0.03 2.13 0.05c5.89 0.16 12.07 0.53 17.03 0.82c8.13 0.48 10.61 0.67 16.39 0.91c2.59 0.11 3.88 0.15 5.52 0.12c0.78-0.02 1.18-0.03 1.67-0.09c0.6-0.11 0.79-0.22 0.84-0.18c0.08 0.06-0.11 0.38-0.75 0.56c-0.45 0.16-0.96 0.27-1.71 0.37c-1.51 0.21-3.14 0.31-5.59 0.36c-4.7 0.1-9.43-0.03-16.47-0.29c-4.61-0.17-11.51-0.49-17-0.63c-0.7-0.02-1.41-0.03-2.12-0.05c-1.4-0.03-2.77-0.03-4.12 0.01c-1.25 0.06-2.34-0.02-3.21 0.32c-3.29 1.13-6.78 0.89-9.69 0.62c-4.19-0.35-8.38-1.12-11.64-1.74c-5.37-1.02-6.15-1.28-9.94-1.87c-1.46-0.22-2.22-0.33-3.14-0.31v0c-1.03 0.12-1.31 0.44-1.4 0.41l0 0z" />
									<path class="s5" d="m209.12 370.82c0.09 0.02-0.16-0.76 1.33-0.77c0.9-0.08 1.78 0 3.19 0.21c3.46 0.5 4.82 0.91 9.9 1.9c0 0 0 0 0 0c3.17 0.62 7.37 1.4 11.51 1.61c2.96 0.14 6.48 0.17 9.3-1.28h0c6.97-3.46 16.26-3.28 24.74 0.96c3.1 1.56 6.79 1.99 10.52 1.65c3.9-0.36 7.71-1.43 11.73-2.6c2.13-0.63 4.36-1.31 6.6-1.92c6.35-1.73 12.56-2.8 18.74-1.5c8.23 1.78 14.8 3.56 22.16 4.09c9.83 0.71 18.51-1.38 25.21-4.42c1.76-0.77 3.66-0.54 5.17 0.07c1.88 0.75 3.67 1.97 5.05 2.83c7.19 4.42 12.45 3.2 12.5 3.38c0.06 0.23-4.95 2.18-13.02-2.5c-1.43-0.82-3.23-1.97-4.95-2.59c-1.32-0.46-2.91-0.65-4.19 0c-6.81 3.28-15.72 5.6-25.88 4.97c-7.55-0.47-14.28-2.22-22.44-3.95c-5.69-1.25-11.58-0.16-17.82 1.54c-2.21 0.6-4.41 1.26-6.57 1.88c-4.04 1.18-7.98 2.26-12.11 2.63c-4.01 0.36-8.03-0.16-11.52-1.91c-8.01-4.02-16.73-4.37-23.23-1.21h0c-3.32 1.57-7.05 1.49-10.07 1.25c-4.27-0.32-8.47-1.21-11.65-1.94v0c-4.1-0.94-7.37-1.82-9.79-2.33c-1.43-0.3-2.17-0.44-3.08-0.46c-1 0.05-1.28 0.43-1.34 0.41l0 0z" />
									<path class="s5" d="m232.1 407.83c0.07 0.02-0.18-0.73 1.19-0.83h0c0.81-0.14 1.64-0.13 2.9-0.05c2.73 0.19 4.83 0.55 8.91 1.16c2.86 0.43 6.61 1 10.18 1.23c2.55 0.15 5.44 0.34 7.87-0.57c1.19-0.4 2.34-0.38 3.36-0.4c1.23-0.04 2.47-0.04 3.72-0.02c0.63 0.01 1.26 0.03 1.88 0.04c5.2 0.14 10.66 0.47 15.04 0.73c7.18 0.42 9.37 0.59 14.48 0.8c2.29 0.09 3.42 0.13 4.88 0.1c0.69-0.01 1.05-0.03 1.47-0.08c0.53-0.1 0.7-0.19 0.74-0.16c0.07 0.05-0.1 0.33-0.66 0.5c-0.4 0.14-0.85 0.23-1.51 0.33c-1.34 0.19-2.77 0.27-4.94 0.32c-4.15 0.09-8.33-0.03-14.54-0.26c-4.07-0.15-10.17-0.43-15.01-0.55c-0.62-0.02-1.24-0.03-1.87-0.04c-1.24-0.02-2.44-0.03-3.64 0.01c-1.11 0.05-2.07-0.02-2.84 0.28c-2.9 1-5.99 0.78-8.55 0.55c-3.7-0.31-7.4-0.99-10.28-1.53c-4.74-0.9-5.43-1.13-8.78-1.65c-1.29-0.2-1.96-0.29-2.77-0.27h0c-0.91 0.11-1.16 0.39-1.24 0.37l0 0z" />
									<path class="s5" d="m318.6 410.59c-0.22-0.04 0.02-1.27 2.15-1.79c1.37-0.43 2.85-0.64 4.97-0.79c3.52-0.25 6.98-0.19 11.75-0.01c1.94 0.07 3.92 0.19 6 0.34c4.83 0.35 9.32 0.79 13.15 1.09c3.74 0.29 5.7 0.44 8.19 0.47c1.18 0.01 1.83 0 2.57-0.09v0c0.87-0.19 1.13-0.41 1.21-0.38c0.12 0.05-0.07 0.62-1.11 0.84v0c-0.71 0.22-1.5 0.33-2.65 0.42c-2.34 0.18-4.74 0.15-8.3-0.01c-4.31-0.19-7.92-0.5-13.18-0.88c-2.07-0.15-4.02-0.28-5.95-0.37c-4.95-0.25-7.98-0.42-11.64-0.36c-2.15 0.04-3.46 0.11-4.85 0.38c-1.72 0.46-2.2 1.16-2.32 1.14l0 0z" />
									<path class="s5" d="m245.15 419.9c-0.04-0.01-0.1-0.67 1.11-0.95v0c0.77-0.25 1.59-0.36 2.86-0.45c2.66-0.19 5.01-0.13 9.15-0.03c4.85 0.12 14.06 0.79 21.17-0.42c5.93-1 12.19-1.54 18.96-1.66c9.98-0.18 20.08 0.57 27.92 1.23c6.26 0.53 14.95 1.48 18.21 1.83c2.3 0.25 4.12 0.44 5.4 0.53c0.72 0.05 1.04 0.07 1.47 0.05v0c0.45-0.09 0.54-0.12 0.59-0.12c0.04 0.01-0.15 0.36-0.55 0.38v0c-0.4 0.1-0.83 0.14-1.52 0.17c-1.49 0.06-2.97 0.01-5.47-0.13c-4.5-0.24-10.78-0.76-18.25-1.24c-7.77-0.5-17.97-1.15-27.78-0.98c-6.71 0.12-12.88 0.61-18.73 1.53c-7.54 1.17-16.58 0.28-21.48-0.03c-4.4-0.28-6.18-0.43-9.07-0.44c-1.29 0-1.99 0.02-2.78 0.16v0c-0.91 0.23-1.13 0.58-1.2 0.57v0z" />
									<path class="s5" d="m254.94 428.75c-0.02 0-0.17-0.63 0.86-1.17v0c0.61-0.35 1.32-0.6 2.36-0.85c2.06-0.49 4.3-0.73 7.58-0.86c4.71-0.19 11.07-0.15 17.83 0.96c4.82 0.8 9.85 0.95 15.38 0.65c6.77-0.37 15.93-1.62 21.35-2.18v0c6.57-0.68 12.52 0.49 16.31 1.51c1.84 0.5 4.06 1.24 4.93 1.53c0.58 0.19 1.02 0.34 1.34 0.42v0c0.39-0.01 0.46 0 0.51 0.01c0.04 0.01-0.18 0.36-0.54 0.25v0c-0.4-0.01-0.78-0.07-1.43-0.21c-1.58-0.33-3.43-0.8-5.01-1.13c-3.77-0.79-9.67-1.73-15.94-0.94v0c-5.69 0.71-14.22 2.01-21.43 2.39c-5.62 0.3-10.79 0.1-15.73-0.77c-6.58-1.18-12.88-1.38-17.54-1.39c-3.31 0-5.38 0.1-7.47 0.42c-1.05 0.16-1.68 0.3-2.3 0.56v0c-0.81 0.37-0.97 0.81-1.04 0.8v0z" />
									<path class="s5" d="m268.58 437.34c0.01 0-0.15-0.44 0.64-0.74v0c0.46-0.2 0.97-0.31 1.73-0.41c1.57-0.2 3.08-0.22 5.52-0.2c2.68 0.03 8.79 0.36 12.9-0.02c3.67-0.33 7.37-0.23 11.48 0.02c6.08 0.38 10.36 0.83 15.38 0.63v0c4.69-0.19 9.19 0.13 11.96 0.39c1.57 0.14 2.8 0.28 3.68 0.36c0.51 0.04 0.7 0.06 1.01 0.06v0c0.31-0.07 0.37-0.08 0.4-0.07c0.03 0-0.1 0.27-0.38 0.28v0c-0.28 0.07-0.58 0.09-1.05 0.11c-1.07 0.04-1.97 0-3.71-0.05c-2.7-0.08-7.34-0.24-11.87 0.04v0c-5.04 0.31-9.54-0.1-15.52-0.48c-4.1-0.26-7.71-0.39-11.3-0.11c-4.45 0.34-10.2-0.17-13.03-0.32c-2.54-0.13-3.81-0.2-5.46-0.13c-0.77 0.03-1.2 0.07-1.67 0.2v0c-0.57 0.19-0.69 0.46-0.74 0.45l0 0z" />
									<path class="s5" d="m277.97 445.31c0.92 0.05-1.36-1.27 1.69-1.9c1.22-0.28 2.38-0.24 4.11-0.11c2.19 0.14 6.32 0.89 9.03-0.09c2.58-0.84 5.26-0.88 8.18-0.52c4.22 0.52 8.12 1.6 11.42 1.66v0c3.16 0.05 6.65 0.59 8.48 0.87c1.35 0.2 1.83 0.3 2.7 0.35c0.83-0.1 1.03-0.23 1.12-0.22c0.09 0.01-0.26 0.75-1.1 0.72c-0.8 0.1-1.56 0.08-2.81 0c-1.61-0.09-5.59-0.43-8.39-0.37v0c-4.1 0.08-7-0.87-11.61-1.49c-2.8-0.37-5.24-0.39-7.54 0.38c-3.37 1.02-7.46 0.07-9.58-0.23c-1.77-0.23-2.71-0.38-3.89-0.25c-1.42 0.19-1.68 1.24-1.8 1.23v0z" />
									<path class="s5" d="m281.68 449.44c0.1-0.27 3.87 0.88 9.65 1.59c2.51 0.28 5.96 0.88 8.67 0.05c0.15-0.04 0.29-0.09 0.43-0.15c3.52-0.84 7.83-0.03 10.27 0.17c2 0.15 3.29 0.22 4.67 0.02c2.02-0.34 2.73-1.45 2.88-1.38c0.01 0-0.04 1.63-2.71 2.24c-1.43 0.37-2.92 0.43-4.91 0.38c-2.5-0.05-6.86-0.73-9.77 0.03c-0.17 0.06-0.34 0.11-0.51 0.16c-3.23 0.93-6.76 0.24-9.22-0.19c-5.88-0.97-9.6-2.55-9.46-2.91l0 0z" />
									<path class="s5" d="m288.81 457.7c0.14-0.19 2.2 1.1 5.61 1.95c1.45 0.31 3.51 0.88 4.72 0.1c0.05-0.03 0.1-0.07 0.15-0.11c1.97-1.43 4.61-0.66 6.03-0.37c1.17 0.18 1.9 0.3 2.71 0.18v0c1.3-0.16 1.74-1.18 1.88-1.13c-0.22-0.08 0.41 1.3-1.72 1.89v0c-0.91 0.25-1.84 0.22-3 0.1c-1.59-0.09-4.07-0.74-5.16 0.32c-0.08 0.05-0.16 0.1-0.24 0.14c-1.94 1.06-4.23 0.41-5.66-0.07c-3.59-1.09-5.48-2.79-5.32-3.01l0 0z" />
									<path class="s5" d="m246.93 377.61c0.32-0.69 4.94 1.57 10.71 3.77c1.61 0.62 3.04 1.1 4.45 1.5h0c3.4 1.02 6.33 1.16 6.28 1.54c0.01-0.07-2.7 0.97-6.7 0.17v0c-1.49-0.31-3.06-0.77-4.72-1.4c-5.98-2.27-10.15-5.31-10.02-5.59v0z" />
									<path class="s5" d="m252.35 389.96c-0.02-0.62 6.42-1.13 14.33-1.43c1.63-0.06 3.46-0.13 4.89-0.18v0c5.43-0.19 9.18-1.17 9.32-0.77c0.16 0.47-3.53 2.13-9.22 2.6v0c-1.55 0.13-3.19 0.23-4.93 0.29c-7.94 0.31-14.39-0.06-14.41-0.52v0z" />
									<path class="s5" d="m282.37 391.48c-0.01-0.29 2.96-0.52 6.55-0.92c3.58-0.4 6.51-0.87 6.57-0.63c0.07 0.28-2.8 1.19-6.46 1.59c-3.66 0.41-6.65 0.21-6.66-0.04v0z" />
									<path class="s5" d="m309.85 375.56c0.04-0.26 2.81 0.02 6.18 0.25c3.36 0.24 6.14 0.3 6.15 0.53c0.01 0.26-2.78 0.6-6.21 0.36c-3.43-0.24-6.16-0.91-6.12-1.14v0z" />
									<path class="s5" d="m302.48 382.34c0.07-0.76 8.26-0.05 18.28 0.61c2.7 0.18 5.04 0.3 7.37 0.4v0c6.29 0.26 10.79-0.25 10.82 0.52c0 0.12-4.35 1.39-10.85 1.48v0c-2.32 0.03-4.8-0.04-7.48-0.21c-10.13-0.66-18.18-2.35-18.13-2.79v0z" />
									<path class="s5" d="m361.52 385.69c0.09-0.36 2.16 0.19 4.67 0.61c0.68 0.11 1.27 0.19 1.86 0.24v0c1.46 0.14 2.72-0.06 2.74 0.14c0 0-1.02 0.72-2.77 0.76v0c-0.62 0-1.28-0.05-1.99-0.16c-2.64-0.44-4.55-1.42-4.51-1.58v0z" />
									<path class="s5" d="m308.16 395.24c0.09 0.67 8.9-4.95 22.73-1.38c3.54 0.96 6.66 2.98 9.83 3.65c0.18 0.04 0.35 0.08 0.53 0.12c6.6 1.4 13.97 0.24 19.16-0.62v0c3.64-0.62 6.18-1.21 8.52-1.84c1.31-0.36 1.97-0.55 2.81-0.84c0.88-0.36 1.63-0.52 1.62-0.53c0.22 0.13-0.04 0.82-1.07 1.54c-0.68 0.52-1.54 1.02-2.71 1.58c-2.19 1.04-4.96 2.05-8.57 2.96v0c-5.26 1.36-12.88 2.86-20.51 1.32c-0.2-0.04-0.4-0.08-0.6-0.13c-4.07-0.97-7.1-3.04-9.96-3.9c-11.72-3.67-21.69-1.15-21.79-1.93l0 0z" />
								</g>
							</g>
							<g >
								<path class="s13" d="m202.38 297.29c3.23-35.77 1.56-67.71-7.44-95.13l216.42-1.85c-11.99 16.14-11.42 69.99-9.79 96.87h-12.02v-8.7h-15.96v9.26h-13.47v-9.65h-16.98v9.8h-17.18v-9h-15.78v9h-17.28v-9.6h-15.88v9.4h-16.38v-9.5h-17.48v8.7h-15.38v-8.5h-16.88v8.9h-8.49h0z" />
								<text style="transform: matrix(3.782,0,0,4.732,213.136,270.133)" >
									<tspan x="0" y="0" class="t14">ض
</tspan>
								</text>
								<g >
									<path class="s15" d="m297.38 297.79c0.19-0.54 0.29-1.02 1.35-2.2l0.76-34.26h2.83v34.22c0.78 0.79 1.4 1.29 1.48 2.17l-6.41 0.06z" />
									<path class="s16" d="m299.56 263.38c-4.42-1.25-6.63-12.32-12.5-2.97c-2.78 0.93-5.77 3.99-13.14-0.78c-2.95-4.03-9.62-11.34-2.01-19.84c-0.28-5.15-2.2-10.91 6.79-16c3.14-2.5 1.14-9.08 10.79-6.4c2.64-1.85 5.06-5.85 8.59 0.5c3.34-0.6 5.14-3.75 10.49-1c2.97-0.63 5-4.68 9.49 0.3c1.38 0.82 3.02 1.38 3.7 2.9c0.54 1.05 1.14 2.06 3.9 2c5.48 2.13 3.28 4.05 2.5 6c-4.09-1.41-11.51-9.43-15.46-3.45c-1.2 1.85-4.01 3.38-3.82 8.05c19.26 2.51 13.48-1.67 19.88-2.6c4.08-0.07 7.53 9.87 6.59 22.8c-2.52 1.26-4.91 0.46-7.59 4.4c-0.9 2.49-2.67 3.9-4.3 5.5c-4.45-0.08-8.96-0.49-13.79-2.8c-3.58 0.71-4.97 2.51-7.19 3.9l-2.92-0.51z" />
									<path class="s17" d="m282.35 254.07c-2.28 1.47-7.08-3.63-6.05-4.34c-0.5 0.89-1.13 1.63-2.1 1.96c-1.79-0.79-1.99-2.38-2.34-3.88c0.99-0.11 1.8 0.73 3.04-0.63c-2.56-6.62-0.1-5.83 0.98-7.07c1.27 1.48 2.16 3.17 2.41 5.21c0.72 0.39 1.58 0.35 1.22 3.88c1.02 1.26 2.5 2.34 4.55 3.22c-0.22 0.78-0.4 1.59-1.71 1.64h0z" />
									<path class="s17" d="m290.11 246.16c-2.28 1.47-7.08-3.63-6.05-4.34c-0.5 0.89-1.13 1.63-2.1 1.96c-1.79-0.79-1.99-2.38-2.34-3.88c0.99-0.11 1.8 0.73 3.04-0.63c-2.56-6.62-0.1-5.83 0.98-7.07c1.27 1.48 2.16 3.17 2.41 5.21c0.72 0.39 1.58 0.35 1.22 3.88c1.02 1.26 2.5 2.34 4.55 3.22c-0.22 0.78-0.4 1.59-1.71 1.64z" />
									<path class="s17" d="m298.26 255.96c-1.31-0.05-1.49-0.86-1.71-1.64c2.04-0.88 3.53-1.96 4.55-3.22c-0.36-3.53 0.51-3.5 1.22-3.88c0.25-2.04 1.14-3.73 2.41-5.21c1.08 1.24 3.54 0.45 0.98 7.07c1.24 1.36 2.05 0.52 3.04 0.63c-0.35 1.51-0.55 3.1-2.34 3.88c-0.97-0.33-1.59-1.07-2.1-1.96c1.03 0.71-3.77 5.81-6.05 4.34h0z" />
									<path class="s17" d="m320 253.6c-1.54-0.06-1.75-1.02-2.02-1.94c2.4-1.04 4.16-2.31 5.35-3.79c-0.42-4.16 0.59-4.11 1.44-4.57c0.29-2.4 1.34-4.39 2.84-6.14c1.27 1.46 4.17 0.53 1.15 8.32c1.46 1.6 2.41 0.61 3.58 0.74c-0.42 1.78-0.65 3.64-2.76 4.57c-1.14-0.39-1.88-1.26-2.47-2.31c1.22 0.84-4.43 6.84-7.12 5.11v0z" />
									<path class="s17" d="m306.28 256.95c-0.68-0.6-0.43-1.11-0.21-1.62c1.48 0.41 2.74 0.47 3.83 0.24c1.33-2.05 1.78-1.66 2.34-1.55c1.02-0.99 2.23-1.51 3.55-1.75c0.05 1.13 1.71 1.77-2.53 4.22c0.08 1.27 0.88 1.16 1.36 1.66c-0.84 0.66-1.63 1.42-2.94 1.07c-0.38-0.6-0.39-1.27-0.28-1.96c0.25 0.83-4.53 1.49-5.12-0.29l0 0z" />
									<path class="s17" d="m300.61 236.16c-2.87-0.86-2.03-8.55-0.69-8.19c-1.11 0.21-2.18 0.22-3.15-0.36c-0.62-2.07 0.57-3.37 1.58-4.75c0.81 0.75 0.68 2.03 2.71 2.11c3.72-6.9 4.82-4.27 6.63-4.24c-0.33 2.13-1.11 4.09-2.65 5.76c0.19 0.88 0.84 1.58-2.38 3.81c-0.33 1.75-0.17 3.78 0.56 6.13c-0.81 0.37-1.62 0.8-2.61-0.26l0 0z" />
									<path class="s17" d="m294.69 237.04c-2.82 1.02-6.73-5.65-5.44-6.16c-0.76 0.83-1.62 1.47-2.74 1.59c-1.74-1.29-1.55-3.05-1.56-4.76c1.1 0.12 1.76 1.22 3.43 0.07c-1.13-7.76 1.32-6.3 2.79-7.37c1.01 1.91 1.55 3.95 1.31 6.21c0.68 0.6 1.61 0.77 0.36 4.48c0.78 1.6 2.12 3.13 4.1 4.59c-0.43 0.78-0.82 1.61-2.25 1.35l0 0z" />
									<path class="s17" d="m308.96 248.68c-1.31-0.05-1.49-0.86-1.71-1.64c2.04-0.88 3.53-1.96 4.55-3.22c-0.36-3.53 0.51-3.5 1.22-3.88c0.25-2.04 1.14-3.73 2.41-5.21c1.08 1.24 3.54 0.45 0.98 7.07c1.24 1.36 2.05 0.52 3.04 0.63c-0.35 1.51-0.55 3.1-2.34 3.88c-0.97-0.33-1.59-1.07-2.1-1.96c1.03 0.71-3.77 5.81-6.05 4.34v0z" />
								</g>
							</g>
						</g>
						<g >
							<path class="s18" d="m366.01 259.95h12.35v12.36h-12.35v-12.36z" />
							<path class="s18" d="m366.01 247.6h12.35v12.36h-12.35v-12.36z" />
						</g>
					</g>
				</g>
				<path class="s3" d="m283.77 549.2c7.12-2.97 10.06-1.6 11.62 1.19c3.53 8.33-2.07 10.28-8.85 13.61c-1.76-3.88-2.49-9.06-2.77-14.8z" />
				<g >
					<g >
						<path class="s19" d="m209.45 164.72c-1.85-2.22-6.02-7.48-6.47-8.51c91.7-36.63 153.37-14.83 197.33 0.3c-0.91 1.58-6.49 8.61-6.49 8.61c-75.75-26.47-136.82-18.68-184.37-0.4v0z" />
						<path class="s19" d="m229.57 199.11c-3.52 1.03-6.89 2.54-9.15 1.09c-5.47-3.78 0.42-7.17 10.05-11.23c48.3-15.87 91.89-13.99 122.36-5.04c31.22 5.52 37.08 18.94 12.44 14.37c-51.47-10.73-74.42-14.85-135.69 0.82h0z" />
						<path class="s19" d="m219.48 188.04c-4.41-5.03-4.18-8.25-4.4-10.5c79.8-30.49 125.53-15.79 170.27-2.31c0.48 3-1.97 8.37-5.63 12.55c-59.63-12.28-114.8-18.11-160.24 0.26l0 0z" />
						<path class="s20" d="m221.14 192.71c-6.73-3.53 0.59-6.32 10.22-10.39c48.43-15.64 91.87-9.37 121.83-4.48c30.81 5.69 34.77 18.2 16 10.91c-31.36-13.69-104.83-16.3-148.06 3.97z" />
						<g >
							<path class="s21" d="m238.83 171.3l17.95-4.62l1.72 6.67l-17.95 4.62l-1.72-6.67z" />
							<path class="s22" d="m241.12 177.2l-1.37-5.33l15.54-4" />
						</g>
						<g >
							<path class="s21" d="m338.52 165.79l18.22 3.4l-1.26 6.77l-18.22-3.4l1.26-6.77z" />
							<path class="s22" d="m338.11 172.1l1.01-5.41l15.77 2.95" />
						</g>
						<g >
							<path class="s23" d="m290.3 162.66l21.06-0.2l0.08 7.83l-21.06 0.2l-0.08-7.83z" />
							<path class="s24" d="m291.22 169.79l-0.06-6.26l18.23-0.18" />
						</g>
						<g >
							<path class="s25" d="m365.46 178.87c-1.64 0-2.97-1.33-2.97-2.97c0-1.64 1.33-2.97 2.97-2.97c1.64 0 2.97 1.33 2.97 2.97c0 1.64-1.33 2.97-2.97 2.97z" />
							<path class="s26" d="m365.08 177.69c-1.16 0-2.1-0.94-2.1-2.11c0-1.17 0.94-2.11 2.1-2.11c1.16 0 2.1 0.94 2.1 2.11c0 1.17-0.94 2.11-2.1 2.11z" />
							<path class="s27" d="m365.08 177.56c-1.09 0-1.97-0.88-1.97-1.97c0-1.09 0.88-1.97 1.97-1.97c1.09 0 1.97 0.88 1.97 1.97c0 1.09-0.88 1.97-1.97 1.97z" />
							<path class="s28" d="m365.31 175.72c-0.36 0-0.66-0.29-0.66-0.66c0-0.36 0.29-0.66 0.66-0.66c0.36 0 0.66 0.29 0.66 0.66c0 0.36-0.29 0.66-0.66 0.66z" />
							<path class="s28" d="m364.29 176.87c-0.25 0-0.45-0.2-0.45-0.45c0-0.25 0.2-0.45 0.45-0.45c0.25 0 0.45 0.2 0.45 0.45c0 0.25-0.2 0.45-0.45 0.45z" />
						</g>
						<g >
							<path class="s25" d="m324.31 171.55c-1.64 0-2.97-1.33-2.97-2.97c0-1.64 1.33-2.97 2.97-2.97c1.64 0 2.97 1.33 2.97 2.97c0 1.64-1.33 2.97-2.97 2.97z" />
							<path class="s26" d="m323.93 170.38c-1.16 0-2.1-0.94-2.1-2.11c0-1.17 0.94-2.11 2.1-2.11c1.16 0 2.1 0.94 2.1 2.11c0 1.17-0.94 2.11-2.1 2.11z" />
							<path class="s27" d="m323.93 170.25c-1.09 0-1.97-0.88-1.97-1.97c0-1.09 0.88-1.97 1.97-1.97c1.09 0 1.97 0.88 1.97 1.97c0 1.09-0.88 1.97-1.97 1.97z" />
							<path class="s28" d="m324.16 168.4c-0.36 0-0.66-0.29-0.66-0.66c0-0.36 0.29-0.66 0.66-0.66c0.36 0 0.66 0.29 0.66 0.66c0 0.36-0.29 0.66-0.66 0.66z" />
							<path class="s28" d="m323.14 169.55c-0.25 0-0.45-0.2-0.45-0.45c0-0.25 0.2-0.45 0.45-0.45c0.25 0 0.45 0.2 0.45 0.45c0 0.25-0.2 0.45-0.45 0.45z" />
						</g>
						<g >
							<path class="s25" d="m272.98 171.48c-1.64 0-2.97-1.33-2.97-2.97c0-1.64 1.33-2.97 2.97-2.97c1.64 0 2.97 1.33 2.97 2.97c0 1.64-1.33 2.97-2.97 2.97z" />
							<path class="s26" d="m272.6 170.31c-1.16 0-2.1-0.94-2.1-2.11c0-1.17 0.94-2.11 2.1-2.11c1.16 0 2.1 0.94 2.1 2.11c0 1.17-0.94 2.11-2.1 2.11z" />
							<path class="s27" d="m272.6 170.18c-1.09 0-1.97-0.88-1.97-1.97c0-1.09 0.88-1.97 1.97-1.97c1.09 0 1.97 0.88 1.97 1.97c0 1.09-0.88 1.97-1.97 1.97z" />
							<path class="s28" d="m272.83 168.33c-0.36 0-0.66-0.29-0.66-0.66c0-0.36 0.29-0.66 0.66-0.66c0.36 0 0.66 0.29 0.66 0.66c0 0.36-0.29 0.66-0.66 0.66z" />
							<path class="s28" d="m271.81 169.48c-0.25 0-0.45-0.2-0.45-0.45c0-0.25 0.2-0.45 0.45-0.45c0.25 0 0.45 0.2 0.45 0.45c0 0.25-0.2 0.45-0.45 0.45z" />
						</g>
						<g >
							<path class="s25" d="m228.14 181.5c-1.64 0-2.97-1.33-2.97-2.97c0-1.64 1.33-2.97 2.97-2.97c1.64 0 2.97 1.33 2.97 2.97c0 1.64-1.33 2.97-2.97 2.97z" />
							<path class="s26" d="m227.76 180.32c-1.16 0-2.1-0.94-2.1-2.11c0-1.17 0.94-2.11 2.1-2.11c1.16 0 2.1 0.94 2.1 2.11c0 1.17-0.94 2.11-2.1 2.11z" />
							<path class="s27" d="m227.76 180.19c-1.09 0-1.97-0.88-1.97-1.97c0-1.09 0.88-1.97 1.97-1.97c1.09 0 1.97 0.88 1.97 1.97c0 1.09-0.88 1.97-1.97 1.97z" />
							<path class="s28" d="m227.99 178.35c-0.36 0-0.66-0.29-0.66-0.66c0-0.36 0.29-0.66 0.66-0.66c0.36 0 0.66 0.29 0.66 0.66c0 0.36-0.29 0.66-0.66 0.66z" />
							<path class="s28" d="m226.97 179.5c-0.25 0-0.45-0.2-0.45-0.45c0-0.25 0.2-0.45 0.45-0.45c0.25 0 0.45 0.2 0.45 0.45c0 0.25-0.2 0.45-0.45 0.45z" />
						</g>
						<g >
							<path class="s29" d="m383.79 175.91l6.02 5.65l-5.65 6.02l-6.02-5.65l5.65-6.02z" />
							<path class="s11" d="m379.76 181.19l4.08-4.35l3.57 3.35" />
						</g>
						<g >
							<path class="s19" d="m210.14 172.33c-5.94-1.39-2.7-5.85-1.82-7.09c68.55-39.72 168.08-10.51 185.1-0.49c1.16 1.75-2.95 6.81-4.84 7.73c-75.92-26.21-133.04-15.19-178.43-0.16v0z" />
							<path class="s11" d="m208.57 165.71c67.34-38.3 168.78-12.08 184.69-0.15" />
						</g>
						<path class="s30" d="m214.58 177.48c-4.51-2.3-4.22-3.95-4.45-4.98c92.2-30.55 134.75-12.33 178.5 0.24c-0.91 1.58-1.27 1.83-2.54 2.87c-75.75-26.47-123.97-16.41-171.52 1.87z" />
						<g >
							<path class="s29" d="m212.85 176.96l7.96 2.17l-2.17 7.97l-7.96-2.17l2.17-7.97z" />
							<path class="s11" d="m211.76 183.51l1.57-5.75l4.72 1.29" />
						</g>
						<path class="s19" d="m202.98 156.23c-3.72-2.93-2.34-5.47-3.43-8.16c7.27 2.65 18.33 9.2 23.15-11.13c13.64 12.37 19.42 2.73 25.03-7.35c12.49 11.04 20.83 8.71 24.56-8.43c6.07 9.15 16.83 22.61 28.78 0.4c7.42 13.47 15.78 19.48 27.1 1.98c0.92 6.42 11.94 22.6 26.14 5.91c4.13 12.64 9.22 24.12 25.87 7c-0.68 11.36 2.93 19.22 22.24 14.28c-0.72 1.99 0.55 2.65-2.24 6.02c-86.37-29.21-139.49-19.48-197.2-0.52v0z" />
						<path class="s19" d="m261.68 102.77l-4.36 13.51l4.53 13.45l-14.19 0.02l-11.39 8.47l-4.4-13.5l-11.57-8.22l11.46-8.36l4.24-13.55l11.49 8.33l14.18-0.15z" />
						<path class="s19" d="m323.01 100.59l-8.31 11.5l0.16 14.2l-13.5-4.36l-13.44 4.54l-0.03-14.2l-8.47-11.39l13.48-4.42l8.2-11.58l8.36 11.47l13.54 4.23z" />
						<path class="s19" d="m380.77 115.01l-10.95 9.03l-3.43 13.78l-11.96-7.63l-14.15 0.99l3.56-13.74l-5.32-13.16l14.16-0.86l10.86-9.13l5.19 13.21l12.03 7.52z" />
						<path class="s19" d="m416.03 120.37l0.03 0.18l-13.73 30.39l-13.33-1.32l6.94-12.48l-3.52-12.48l12.21 1.21l11.41-5.51z" />
						<path class="s19" d="m197.64 123.99l12.21-1.21l-3.52 12.48l6.94 12.48l-13.33 1.32l-13.73-30.39l0.03-0.18l11.41 5.51z" />
						<g >
							<path class="s25" d="m382.5 137.01c-3.89 0-7.03-3.14-7.03-7.03c0-3.89 3.14-7.03 7.03-7.03c3.89 0 7.03 3.14 7.03 7.03c0 3.89-3.14 7.03-7.03 7.03z" />
							<path class="s26" d="m381.61 134.24c-2.75 0-4.98-2.23-4.98-4.98c0-2.75 2.22-4.98 4.98-4.98c2.75 0 4.98 2.23 4.98 4.98c0 2.75-2.22 4.98-4.98 4.98z" />
							<path class="s27" d="m381.61 133.93c-2.58 0-4.66-2.09-4.66-4.67c0-2.58 2.09-4.67 4.66-4.67c2.58 0 4.66 2.09 4.66 4.67c0 2.58-2.09 4.67-4.66 4.67z" />
							<path class="s28" d="m382.15 129.56c-0.86 0-1.56-0.7-1.56-1.56c0-0.86 0.7-1.56 1.56-1.56c0.86 0 1.56 0.7 1.56 1.56c0 0.86-0.7 1.56-1.56 1.56z" />
							<path class="s28" d="m379.74 132.28c-0.59 0-1.06-0.48-1.06-1.06c0-0.59 0.48-1.06 1.06-1.06c0.59 0 1.06 0.48 1.06 1.06c0 0.59-0.48 1.06-1.06 1.06z" />
						</g>
						<g >
							<path class="s25" d="m328.25 123.82c-3.89 0-7.03-3.14-7.03-7.03c0-3.89 3.14-7.03 7.03-7.03c3.89 0 7.03 3.14 7.03 7.03c0 3.89-3.14 7.03-7.03 7.03z" />
							<path class="s26" d="m327.36 121.05c-2.75 0-4.98-2.23-4.98-4.98c0-2.75 2.22-4.98 4.98-4.98c2.75 0 4.98 2.23 4.98 4.98c0 2.75-2.22 4.98-4.98 4.98z" />
							<path class="s27" d="m327.36 120.74c-2.58 0-4.66-2.09-4.66-4.67c0-2.58 2.09-4.67 4.66-4.67c2.58 0 4.66 2.09 4.66 4.67c0 2.58-2.09 4.67-4.66 4.67z" />
							<path class="s28" d="m327.91 116.37c-0.86 0-1.56-0.7-1.56-1.56c0-0.86 0.7-1.56 1.56-1.56c0.86 0 1.56 0.7 1.56 1.56c0 0.86-0.7 1.56-1.56 1.56z" />
							<path class="s28" d="m325.49 119.09c-0.59 0-1.06-0.48-1.06-1.06c0-0.59 0.48-1.06 1.06-1.06c0.59 0 1.06 0.48 1.06 1.06c0 0.59-0.48 1.06-1.06 1.06z" />
						</g>
						<g >
							<g >
								<path class="s25" d="m271.12 121.7c-3.89 0-7.03-3.14-7.03-7.03c0-3.89 3.14-7.03 7.03-7.03c3.89 0 7.03 3.14 7.03 7.03c0 3.89-3.14 7.03-7.03 7.03z" />
								<path class="s26" d="m270.23 118.92c-2.75 0-4.98-2.23-4.98-4.98c0-2.75 2.22-4.98 4.98-4.98c2.75 0 4.98 2.23 4.98 4.98c0 2.75-2.22 4.98-4.98 4.98z" />
								<path class="s28" d="m270.23 118.61c-2.58 0-4.66-2.09-4.66-4.67c0-2.58 2.09-4.67 4.66-4.67c2.58 0 4.66 2.09 4.66 4.67c0 2.58-2.09 4.67-4.66 4.67z" />
							</g>
							<g >
								<path class="s25" d="m224.8 136.2c-3.37 1.94-7.66 0.79-9.6-2.57c-1.94-3.37-0.79-7.66 2.57-9.61c3.37-1.94 7.66-0.79 9.6 2.57c1.94 3.37 0.79 7.66-2.57 9.61z" />
								<path class="s26" d="m222.64 134.24c-2.38 1.38-5.42 0.56-6.8-1.82c-1.38-2.39-0.56-5.43 1.82-6.8c2.38-1.38 5.42-0.56 6.8 1.82c1.38 2.39 0.56 5.43-1.82 6.8z" />
								<path class="s28" d="m222.49 133.97c-2.23 1.29-5.08 0.53-6.37-1.71c-1.29-2.24-0.53-5.09 1.71-6.38c2.23-1.29 5.08-0.53 6.37 1.71c1.29 2.24 0.53 5.09-1.71 6.38z" />
							</g>
						</g>
						<path class="s19" d="m197.91 123.97c-8.24 1.89-7.14-3.22-10.42-4.85c-1.97-30.57 6.51-45.67 28.49-50.35c16.01-4.06 65.41 6.35 84.42 1.76l0.16 6.02c-16.3 4.19-19.61 6.23-37.67 5.61c-18.76-0.75-75.41-26.83-64.99 41.81h0z" />
						<path class="s19" d="m401.13 125.92c10.42-68.64-44.65-44.5-63.41-43.75c-17.78 0.09-20.19-2.71-37.17-5.6l-0.14-6.04c19.01 4.59 65.5-5.96 81.51-1.91c21.98 4.68 33.55 22.68 31.58 53.24c-3.28 1.63-7.22 5.12-12.36 4.05h0z" />
						<path class="s19" d="m355.89 101.12c11.36-22.96 4.75-36.06-0.67-41.22c-19.82-14.49-52.53 2.93-55.13 4.84l-0.16-11.13c24.31-10.62 51.38-11.34 60.63-2.08c8.87 8.88 14.95 31.13 3.72 51.4l-8.39-1.81z" />
						<path class="s19" d="m233.47 102.93c-11.23-20.27-5.16-42.52 3.72-51.4c9.25-9.26 38.58-8.63 62.89 1.99l0.03 11.23c-2.6-1.92-37.77-19.34-57.58-4.85c-5.42 5.16-12.2 15.96-0.84 38.92l-8.22 4.11z" />
						<path class="s31" d="m233.43 102.83l2.57-8.22l5.56 4.04" />
						<path class="s31" d="m197.93 123.74l-4.52-0.19l-5.94-4.72" />
						<path class="s31" d="m355.78 101.09l7.66-6.49l3.27 8.22" />
						<path class="s31" d="m413.58 121.36l-8.71 4.43l-3.68-0.42" />
						<g >
							<path class="s25" d="m182.05 109.97c-2.93 0-5.29-2.37-5.29-5.3c0-2.93 2.37-5.3 5.29-5.3c2.93 0 5.29 2.37 5.29 5.3c0 2.93-2.37 5.3-5.29 5.3z" />
							<path class="s28" d="m181.37 108.12c-2.17 0-3.93-1.76-3.93-3.94c0-2.18 1.76-3.94 3.93-3.94c2.17 0 3.93 1.76 3.93 3.94c0 2.18-1.76 3.94-3.93 3.94z" />
						</g>
						<g >
							<path class="s25" d="m183.83 98.11c-2.93 0-5.29-2.37-5.29-5.3c0-2.93 2.37-5.3 5.29-5.3c2.93 0 5.29 2.37 5.29 5.3c0 2.93-2.37 5.3-5.29 5.3z" />
							<path class="s28" d="m183.15 96.25c-2.17 0-3.93-1.76-3.93-3.94c0-2.18 1.76-3.94 3.93-3.94c2.17 0 3.93 1.76 3.93 3.94c0 2.18-1.76 3.94-3.93 3.94z" />
						</g>
						<g >
							<path class="s25" d="m188.68 86.04c-2.93 0-5.29-2.37-5.29-5.3c0-2.93 2.37-5.3 5.29-5.3c2.93 0 5.29 2.37 5.29 5.3c0 2.93-2.37 5.3-5.29 5.3z" />
							<path class="s28" d="m188 84.18c-2.17 0-3.93-1.76-3.93-3.94c0-2.18 1.76-3.94 3.93-3.94c2.17 0 3.93 1.76 3.93 3.94c0 2.18-1.76 3.94-3.93 3.94z" />
						</g>
						<g >
							<path class="s25" d="m197.58 76.25c-2.93 0-5.29-2.37-5.29-5.3c0-2.93 2.37-5.3 5.29-5.3c2.93 0 5.29 2.37 5.29 5.3c0 2.93-2.37 5.3-5.29 5.3z" />
							<path class="s28" d="m196.9 74.39c-2.17 0-3.93-1.76-3.93-3.94c0-2.18 1.76-3.94 3.93-3.94c2.17 0 3.93 1.76 3.93 3.94c0 2.18-1.76 3.94-3.93 3.94z" />
						</g>
						<g >
							<path class="s25" d="m210.09 70.31c-2.93 0-5.29-2.37-5.29-5.3c0-2.93 2.37-5.3 5.29-5.3c2.93 0 5.29 2.37 5.29 5.3c0 2.93-2.37 5.3-5.29 5.3z" />
							<path class="s28" d="m209.41 68.45c-2.17 0-3.93-1.76-3.93-3.94c0-2.18 1.76-3.94 3.93-3.94c2.17 0 3.93 1.76 3.93 3.94c0 2.18-1.76 3.94-3.93 3.94z" />
						</g>
						<g >
							<path class="s25" d="m227.38 110.46c-2.93 0-5.29-2.37-5.29-5.3c0-2.93 2.37-5.3 5.29-5.3c2.93 0 5.29 2.37 5.29 5.3c0 2.93-2.37 5.3-5.29 5.3z" />
							<path class="s28" d="m226.7 108.61c-2.17 0-3.93-1.76-3.93-3.94c0-2.18 1.76-3.94 3.93-3.94c2.17 0 3.93 1.76 3.93 3.94c0 2.18-1.76 3.94-3.93 3.94z" />
						</g>
						<g >
							<path class="s25" d="m224.17 97.73c-2.93 0-5.29-2.37-5.29-5.3c0-2.93 2.37-5.3 5.29-5.3c2.93 0 5.29 2.37 5.29 5.3c0 2.93-2.37 5.3-5.29 5.3z" />
							<path class="s28" d="m223.49 95.87c-2.17 0-3.93-1.76-3.93-3.94c0-2.18 1.76-3.94 3.93-3.94c2.17 0 3.93 1.76 3.93 3.94c0 2.18-1.76 3.94-3.93 3.94z" />
						</g>
						<g >
							<path class="s25" d="m222.11 83.98c-2.93 0-5.29-2.37-5.29-5.3c0-2.93 2.37-5.3 5.29-5.3c2.93 0 5.29 2.37 5.29 5.3c0 2.93-2.37 5.3-5.29 5.3z" />
							<path class="s28" d="m221.43 82.13c-2.17 0-3.93-1.76-3.93-3.94c0-2.18 1.76-3.94 3.93-3.94c2.17 0 3.93 1.76 3.93 3.94c0 2.18-1.76 3.94-3.93 3.94z" />
						</g>
						<g >
							<path class="s25" d="m224.02 70.11c-2.93 0-5.29-2.37-5.29-5.3c0-2.93 2.37-5.3 5.29-5.3c2.93 0 5.29 2.37 5.29 5.3c0 2.93-2.37 5.3-5.29 5.3z" />
							<path class="s28" d="m223.34 68.25c-2.17 0-3.93-1.76-3.93-3.94c0-2.18 1.76-3.94 3.93-3.94c2.17 0 3.93 1.76 3.93 3.94c0 2.18-1.76 3.94-3.93 3.94z" />
						</g>
						<g >
							<path class="s25" d="m229.89 57.58c-2.93 0-5.29-2.37-5.29-5.3c0-2.93 2.37-5.3 5.29-5.3c2.93 0 5.29 2.37 5.29 5.3c0 2.93-2.37 5.3-5.29 5.3z" />
							<path class="s28" d="m229.21 55.72c-2.17 0-3.93-1.76-3.93-3.94c0-2.18 1.76-3.94 3.93-3.94c2.17 0 3.93 1.76 3.93 3.94c0 2.18-1.76 3.94-3.93 3.94z" />
						</g>
						<g >
							<path class="s25" d="m240.17 48.9c-2.93 0-5.29-2.37-5.29-5.3c0-2.93 2.37-5.3 5.29-5.3c2.93 0 5.29 2.37 5.29 5.3c0 2.93-2.37 5.3-5.29 5.3z" />
							<path class="s28" d="m239.49 47.05c-2.17 0-3.93-1.76-3.93-3.94c0-2.18 1.76-3.94 3.93-3.94c2.17 0 3.93 1.76 3.93 3.94c0 2.18-1.76 3.94-3.93 3.94z" />
						</g>
						<g >
							<path class="s25" d="m251.92 45.75c-2.93 0-5.29-2.37-5.29-5.3c0-2.93 2.37-5.3 5.29-5.3c2.93 0 5.29 2.37 5.29 5.3c0 2.93-2.37 5.3-5.29 5.3z" />
							<path class="s28" d="m251.24 43.9c-2.17 0-3.93-1.76-3.93-3.94c0-2.18 1.76-3.94 3.93-3.94c2.17 0 3.93 1.76 3.93 3.94c0 2.18-1.76 3.94-3.93 3.94z" />
						</g>
						<g >
							<path class="s25" d="m263.11 45.33c-2.93 0-5.29-2.37-5.29-5.3c0-2.93 2.37-5.3 5.29-5.3c2.93 0 5.29 2.37 5.29 5.3c0 2.93-2.37 5.3-5.29 5.3z" />
							<path class="s28" d="m262.43 43.48c-2.17 0-3.93-1.76-3.93-3.94c0-2.18 1.76-3.94 3.93-3.94c2.17 0 3.93 1.76 3.93 3.94c0 2.18-1.76 3.94-3.93 3.94z" />
						</g>
						<g >
							<path class="s25" d="m276.28 47.42c-2.93 0-5.29-2.37-5.29-5.3c0-2.93 2.37-5.3 5.29-5.3c2.93 0 5.29 2.37 5.29 5.3c0 2.93-2.37 5.3-5.29 5.3z" />
							<path class="s28" d="m275.6 45.56c-2.17 0-3.93-1.76-3.93-3.94c0-2.18 1.76-3.94 3.93-3.94c2.17 0 3.93 1.76 3.93 3.94c0 2.18-1.76 3.94-3.93 3.94z" />
						</g>
						<g >
							<path class="s25" d="m246.71 70.88c-2.93 0-5.29-2.37-5.29-5.3c0-2.93 2.37-5.3 5.29-5.3c2.93 0 5.29 2.37 5.29 5.3c0 2.93-2.37 5.3-5.29 5.3z" />
							<path class="s28" d="m246.03 69.02c-2.17 0-3.93-1.76-3.93-3.94c0-2.18 1.76-3.94 3.93-3.94c2.17 0 3.93 1.76 3.93 3.94c0 2.18-1.76 3.94-3.93 3.94z" />
						</g>
						<g >
							<path class="s25" d="m258.77 72.96c-2.93 0-5.29-2.37-5.29-5.3c0-2.93 2.37-5.3 5.29-5.3c2.93 0 5.29 2.37 5.29 5.3c0 2.93-2.37 5.3-5.29 5.3z" />
							<path class="s28" d="m258.09 71.1c-2.17 0-3.93-1.76-3.93-3.94c0-2.18 1.76-3.94 3.93-3.94c2.17 0 3.93 1.76 3.93 3.94c0 2.18-1.76 3.94-3.93 3.94z" />
						</g>
						<g >
							<path class="s25" d="m272.02 74.24c-2.93 0-5.29-2.37-5.29-5.3c0-2.93 2.37-5.3 5.29-5.3c2.93 0 5.29 2.37 5.29 5.3c0 2.93-2.37 5.3-5.29 5.3z" />
							<path class="s28" d="m271.34 72.39c-2.17 0-3.93-1.76-3.93-3.94c0-2.18 1.76-3.94 3.93-3.94c2.17 0 3.93 1.76 3.93 3.94c0 2.18-1.76 3.94-3.93 3.94z" />
						</g>
						<g >
							<path class="s25" d="m272.02 74.24c-2.93 0-5.29-2.37-5.29-5.3c0-2.93 2.37-5.3 5.29-5.3c2.93 0 5.29 2.37 5.29 5.3c0 2.93-2.37 5.3-5.29 5.3z" />
							<path class="s28" d="m271.34 72.39c-2.17 0-3.93-1.76-3.93-3.94c0-2.18 1.76-3.94 3.93-3.94c2.17 0 3.93 1.76 3.93 3.94c0 2.18-1.76 3.94-3.93 3.94z" />
						</g>
						<g >
							<path class="s25" d="m324.78 74.34c-2.93 0-5.29-2.37-5.29-5.3c0-2.93 2.37-5.3 5.29-5.3c2.93 0 5.29 2.37 5.29 5.3c0 2.93-2.37 5.3-5.29 5.3z" />
							<path class="s28" d="m324.1 72.49c-2.17 0-3.93-1.76-3.93-3.94c0-2.18 1.76-3.94 3.93-3.94c2.17 0 3.93 1.76 3.93 3.94c0 2.18-1.76 3.94-3.93 3.94z" />
						</g>
						<g >
							<path class="s25" d="m337.89 73.4c-2.93 0-5.29-2.37-5.29-5.3c0-2.93 2.37-5.3 5.29-5.3c2.93 0 5.29 2.37 5.29 5.3c0 2.93-2.37 5.3-5.29 5.3z" />
							<path class="s28" d="m337.21 71.55c-2.17 0-3.93-1.76-3.93-3.94c0-2.18 1.76-3.94 3.93-3.94c2.17 0 3.93 1.76 3.93 3.94c0 2.18-1.76 3.94-3.93 3.94z" />
						</g>
						<g >
							<path class="s25" d="m351.19 71.08c-2.93 0-5.29-2.37-5.29-5.3c0-2.93 2.37-5.3 5.29-5.3c2.93 0 5.29 2.37 5.29 5.3c0 2.93-2.37 5.3-5.29 5.3z" />
							<path class="s28" d="m350.51 69.22c-2.17 0-3.93-1.76-3.93-3.94c0-2.18 1.76-3.94 3.93-3.94c2.17 0 3.93 1.76 3.93 3.94c0 2.18-1.76 3.94-3.93 3.94z" />
						</g>
						<g >
							<path class="s25" d="m372.6 109.47c-2.93 0-5.29-2.37-5.29-5.3c0-2.93 2.37-5.3 5.29-5.3c2.93 0 5.29 2.37 5.29 5.3c0 2.93-2.37 5.3-5.29 5.3z" />
							<path class="s28" d="m371.92 107.61c-2.17 0-3.93-1.76-3.93-3.94c0-2.18 1.76-3.94 3.93-3.94c2.17 0 3.93 1.76 3.93 3.94c0 2.18-1.76 3.94-3.93 3.94z" />
						</g>
						<g >
							<path class="s25" d="m373.65 97.99c-2.93 0-5.29-2.37-5.29-5.3c0-2.93 2.37-5.3 5.29-5.3c2.93 0 5.29 2.37 5.29 5.3c0 2.93-2.37 5.3-5.29 5.3z" />
							<path class="s28" d="m372.97 96.13c-2.17 0-3.93-1.76-3.93-3.94c0-2.18 1.76-3.94 3.93-3.94c2.17 0 3.93 1.76 3.93 3.94c0 2.18-1.76 3.94-3.93 3.94z" />
						</g>
						<g >
							<path class="s25" d="m375.19 86.37c-2.93 0-5.29-2.37-5.29-5.3c0-2.93 2.37-5.3 5.29-5.3c2.93 0 5.29 2.37 5.29 5.3c0 2.93-2.37 5.3-5.29 5.3z" />
							<path class="s28" d="m374.51 84.51c-2.17 0-3.93-1.76-3.93-3.94c0-2.18 1.76-3.94 3.93-3.94c2.17 0 3.93 1.76 3.93 3.94c0 2.18-1.76 3.94-3.93 3.94z" />
						</g>
						<g >
							<path class="s25" d="m374 73.42c-2.93 0-5.29-2.37-5.29-5.3c0-2.93 2.37-5.3 5.29-5.3c2.93 0 5.29 2.37 5.29 5.3c0 2.93-2.37 5.3-5.29 5.3z" />
							<path class="s28" d="m373.32 71.56c-2.17 0-3.93-1.76-3.93-3.94c0-2.18 1.76-3.94 3.93-3.94c2.17 0 3.93 1.76 3.93 3.94c0 2.18-1.76 3.94-3.93 3.94z" />
						</g>
						<g >
							<path class="s25" d="m374 73.42c-2.93 0-5.29-2.37-5.29-5.3c0-2.93 2.37-5.3 5.29-5.3c2.93 0 5.29 2.37 5.29 5.3c0 2.93-2.37 5.3-5.29 5.3z" />
							<path class="s28" d="m373.32 71.56c-2.17 0-3.93-1.76-3.93-3.94c0-2.18 1.76-3.94 3.93-3.94c2.17 0 3.93 1.76 3.93 3.94c0 2.18-1.76 3.94-3.93 3.94z" />
						</g>
						<g >
							<path class="s25" d="m370.15 61.94c-2.93 0-5.29-2.37-5.29-5.3c0-2.93 2.37-5.3 5.29-5.3c2.93 0 5.29 2.37 5.29 5.3c0 2.93-2.37 5.3-5.29 5.3z" />
							<path class="s28" d="m369.47 60.08c-2.17 0-3.93-1.76-3.93-3.94c0-2.18 1.76-3.94 3.93-3.94c2.17 0 3.93 1.76 3.93 3.94c0 2.18-1.76 3.94-3.93 3.94z" />
						</g>
						<g >
							<path class="s25" d="m363.92 52.93c-2.93 0-5.29-2.37-5.29-5.3c0-2.93 2.37-5.3 5.29-5.3c2.93 0 5.29 2.37 5.29 5.3c0 2.93-2.37 5.3-5.29 5.3z" />
							<path class="s28" d="m363.23 51.08c-2.17 0-3.93-1.76-3.93-3.94c0-2.18 1.76-3.94 3.93-3.94c2.17 0 3.93 1.76 3.93 3.94c0 2.18-1.76 3.94-3.93 3.94z" />
						</g>
						<g >
							<path class="s25" d="m353.14 47.09c-2.93 0-5.29-2.37-5.29-5.3c0-2.93 2.37-5.3 5.29-5.3c2.93 0 5.29 2.37 5.29 5.3c0 2.93-2.37 5.3-5.29 5.3z" />
							<path class="s28" d="m352.46 45.24c-2.17 0-3.93-1.76-3.93-3.94c0-2.18 1.76-3.94 3.93-3.94c2.17 0 3.93 1.76 3.93 3.94c0 2.18-1.76 3.94-3.93 3.94z" />
						</g>
						<g >
							<path class="s25" d="m340.58 45.41c-2.93 0-5.29-2.37-5.29-5.3c0-2.93 2.37-5.3 5.29-5.3c2.93 0 5.29 2.37 5.29 5.3c0 2.93-2.37 5.3-5.29 5.3z" />
							<path class="s28" d="m339.9 43.55c-2.17 0-3.93-1.76-3.93-3.94c0-2.18 1.76-3.94 3.93-3.94c2.17 0 3.93 1.76 3.93 3.94c0 2.18-1.76 3.94-3.93 3.94z" />
						</g>
						<g >
							<path class="s25" d="m328.02 46.4c-2.93 0-5.29-2.37-5.29-5.3c0-2.93 2.37-5.3 5.29-5.3c2.93 0 5.29 2.37 5.29 5.3c0 2.93-2.37 5.3-5.29 5.3z" />
							<path class="s28" d="m327.34 44.54c-2.17 0-3.93-1.76-3.93-3.94c0-2.18 1.76-3.94 3.93-3.94c2.17 0 3.93 1.76 3.93 3.94c0 2.18-1.76 3.94-3.93 3.94z" />
						</g>
						<g >
							<path class="s25" d="m418.54 120.34c-2.93 0-5.29-2.37-5.29-5.3c0-2.93 2.37-5.3 5.29-5.3c2.93 0 5.29 2.37 5.29 5.3c0 2.93-2.37 5.3-5.29 5.3z" />
							<path class="s28" d="m417.86 118.49c-2.17 0-3.93-1.76-3.93-3.94c0-2.18 1.76-3.94 3.93-3.94c2.17 0 3.93 1.76 3.93 3.94c0 2.18-1.76 3.94-3.93 3.94z" />
						</g>
						<g >
							<path class="s25" d="m417.84 108.52c-2.93 0-5.29-2.37-5.29-5.3c0-2.93 2.37-5.3 5.29-5.3c2.93 0 5.29 2.37 5.29 5.3c0 2.93-2.37 5.3-5.29 5.3z" />
							<path class="s28" d="m417.16 106.66c-2.17 0-3.93-1.76-3.93-3.94c0-2.18 1.76-3.94 3.93-3.94c2.17 0 3.93 1.76 3.93 3.94c0 2.18-1.76 3.94-3.93 3.94z" />
						</g>
						<g >
							<path class="s25" d="m415.68 96.64c-2.93 0-5.29-2.37-5.29-5.3c0-2.93 2.37-5.3 5.29-5.3c2.93 0 5.29 2.37 5.29 5.3c0 2.93-2.37 5.3-5.29 5.3z" />
							<path class="s28" d="m415 94.78c-2.17 0-3.93-1.76-3.93-3.94c0-2.18 1.76-3.94 3.93-3.94c2.17 0 3.93 1.76 3.93 3.94c0 2.18-1.76 3.94-3.93 3.94z" />
						</g>
						<g >
							<path class="s25" d="m410.12 85.27c-2.93 0-5.29-2.37-5.29-5.3c0-2.93 2.37-5.3 5.29-5.3c2.93 0 5.29 2.37 5.29 5.3c0 2.93-2.37 5.3-5.29 5.3z" />
							<path class="s28" d="m409.44 83.41c-2.17 0-3.93-1.76-3.93-3.94c0-2.18 1.76-3.94 3.93-3.94c2.17 0 3.93 1.76 3.93 3.94c0 2.18-1.76 3.94-3.93 3.94z" />
						</g>
						<g >
							<path class="s25" d="m410.12 85.27c-2.93 0-5.29-2.37-5.29-5.3c0-2.93 2.37-5.3 5.29-5.3c2.93 0 5.29 2.37 5.29 5.3c0 2.93-2.37 5.3-5.29 5.3z" />
							<path class="s28" d="m409.44 83.41c-2.17 0-3.93-1.76-3.93-3.94c0-2.18 1.76-3.94 3.93-3.94c2.17 0 3.93 1.76 3.93 3.94c0 2.18-1.76 3.94-3.93 3.94z" />
						</g>
						<g >
							<path class="s25" d="m401.59 76.55c-2.93 0-5.29-2.37-5.29-5.3c0-2.93 2.37-5.3 5.29-5.3c2.93 0 5.29 2.37 5.29 5.3c0 2.93-2.37 5.3-5.29 5.3z" />
							<path class="s28" d="m400.91 74.69c-2.17 0-3.93-1.76-3.93-3.94c0-2.18 1.76-3.94 3.93-3.94c2.17 0 3.93 1.76 3.93 3.94c0 2.18-1.76 3.94-3.93 3.94z" />
						</g>
						<g >
							<path class="s25" d="m390.54 70.32c-2.93 0-5.29-2.37-5.29-5.3c0-2.93 2.37-5.3 5.29-5.3c2.93 0 5.29 2.37 5.29 5.3c0 2.93-2.37 5.3-5.29 5.3z" />
							<path class="s28" d="m389.86 68.46c-2.17 0-3.93-1.76-3.93-3.94c0-2.18 1.76-3.94 3.93-3.94c2.17 0 3.93 1.76 3.93 3.94c0 2.18-1.76 3.94-3.93 3.94z" />
						</g>
						<g >
							<path class="s25" d="m283.15 72.51c-2.93 0-5.29-2.37-5.29-5.3c0-2.93 2.37-5.3 5.29-5.3c2.93 0 5.29 2.37 5.29 5.3c0 2.93-2.37 5.3-5.29 5.3z" />
							<path class="s28" d="m282.47 70.66c-2.17 0-3.93-1.76-3.93-3.94c0-2.18 1.76-3.94 3.93-3.94c2.17 0 3.93 1.76 3.93 3.94c0 2.18-1.76 3.94-3.93 3.94z" />
						</g>
						<path class="s19" d="m296.35 91.94l-19.82-44.83c2.84 0.11 7.8-0.1 9.98 2.49c4.89 9.95 10.56 17.09 14.26 31.29c4.44-15.65 10.99-23.93 16.89-34.47c2.33-2.63 5.92-0.05 8.26 0.15l-20.91 44.51l-8.66 0.88z" />
						<path class="s11" d="m296.72 92.01l4.38-8.02l4.33 7.75" />
						<path class="s8" d="m299.67 76.77l-2.76-6.68" />
						<path class="s11" d="m301.93 77.01l2.76-6.62" />
						<g >
							<path class="s25" d="m300.65 73.65c-2.93 0-5.29-2.37-5.29-5.3c0-2.93 2.37-5.3 5.29-5.3c2.93 0 5.29 2.37 5.29 5.3c0 2.93-2.37 5.3-5.29 5.3z" />
							<path class="s28" d="m299.97 71.79c-2.17 0-3.93-1.76-3.93-3.94c0-2.18 1.76-3.94 3.93-3.94c2.17 0 3.93 1.76 3.93 3.94c0 2.18-1.76 3.94-3.93 3.94z" />
						</g>
						<g >
							<path class="s25" d="m300.56 63.46c-2.93 0-5.29-2.37-5.29-5.3c0-2.93 2.37-5.3 5.29-5.3c2.93 0 5.29 2.37 5.29 5.3c0 2.93-2.37 5.3-5.29 5.3z" />
							<path class="s28" d="m299.87 61.6c-2.17 0-3.93-1.76-3.93-3.94c0-2.18 1.76-3.94 3.93-3.94c2.17 0 3.93 1.76 3.93 3.94c0 2.18-1.76 3.94-3.93 3.94z" />
						</g>
						<path class="s32" d="m321.89 55.86l4.4-9.21" />
						<path class="s32" d="m311.19 78.86l3.32-7.07" />
						<path class="s8" d="m292.82 61.11l-7.71-13.16" />
						<path class="s11" d="m280.64 56.95l-4.58-9.94" />
						<g >
							<path class="s25" d="m276.28 47.42c-2.93 0-5.29-2.37-5.29-5.3c0-2.93 2.37-5.3 5.29-5.3c2.93 0 5.29 2.37 5.29 5.3c0 2.93-2.37 5.3-5.29 5.3z" />
							<path class="s28" d="m275.6 45.56c-2.17 0-3.93-1.76-3.93-3.94c0-2.18 1.76-3.94 3.93-3.94c2.17 0 3.93 1.76 3.93 3.94c0 2.18-1.76 3.94-3.93 3.94z" />
						</g>
						<path class="s11" d="m290.46 79.36l-7.93-17.69" />
						<path class="s11" d="m309.16 60.19l7.39-12.67" />
						<path class="s19" d="m319.86 0.86c1.47 1.29 2.8 2.73 3.96 4.29c1.16 1.57 2.16 3.26 2.97 5.03c0.81 1.78 1.42 3.64 1.84 5.55c0.41 1.91 0.62 3.86 0.63 5.81c0 3.61-0.71 7.19-2.09 10.53c-1.38 3.34-3.41 6.37-5.96 8.93c-2.55 2.55-5.58 4.58-8.92 5.96c-3.34 1.38-6.91 2.09-10.52 2.09c-3.61 0-7.18-0.71-10.52-2.09c-3.34-1.38-6.37-3.41-8.92-5.96c-2.55-2.55-4.58-5.59-5.96-8.93c-1.38-3.34-2.09-6.92-2.09-10.53c0-1.95 0.21-3.9 0.63-5.8c0.41-1.91 1.03-3.76 1.84-5.54c0.81-1.78 1.8-3.46 2.96-5.03c1.16-1.57 2.49-3 3.96-4.29c-0.58 0.88-1.09 1.79-1.53 2.74c-0.44 0.95-0.82 1.93-1.12 2.94c-0.3 1-0.53 2.03-0.68 3.07c-0.15 1.04-0.23 2.08-0.23 3.13c0 2.85 0.56 5.67 1.65 8.3c1.09 2.63 2.68 5.02 4.7 7.03c2.01 2.01 4.4 3.61 7.03 4.7c2.63 1.09 5.44 1.65 8.29 1.65c2.84 0 5.66-0.56 8.29-1.65c2.63-1.09 5.02-2.69 7.03-4.7c2.01-2.01 3.61-4.4 4.7-7.03c1.09-2.63 1.65-5.45 1.65-8.3c0-1.05-0.08-2.1-0.23-3.14c-0.15-1.04-0.38-2.07-0.68-3.07c-0.3-1.01-0.68-1.99-1.12-2.94c-0.44-0.95-0.96-1.87-1.53-2.75l0 0z" />
						<g >
							<path class="s25" d="m182.22 120.36c-2.93 0-5.29-2.37-5.29-5.3c0-2.93 2.37-5.3 5.29-5.3c2.93 0 5.29 2.37 5.29 5.3c0 2.93-2.37 5.3-5.29 5.3z" />
							<path class="s28" d="m181.54 118.5c-2.17 0-3.93-1.76-3.93-3.94c0-2.18 1.76-3.94 3.93-3.94c2.17 0 3.93 1.76 3.93 3.94c0 2.18-1.76 3.94-3.93 3.94z" />
						</g>
					</g>
					<path class="s8" d="m204.59 158.71c3.29 1.19 5.93 3.11 11.5 1.75c6.97-4.56 7.57-7.88 9.82-10.78c4.6 2.05 8.64 3.28 12.4 2.51c5.56-2.94 8.98-8.1 11.24-11.05c4.63 2.91 8.09 5.21 12.6 5.85c4.25-2.74 7.5-6.28 11.29-9.69c4.05 2.92 6.19 6.68 11.76 7.51c6.84-1.99 11.55-6.62 15.18-10.1c3.21 3.58 5.72 9.85 11.87 10.49c4.76-0.39 10.18-4.61 14.16-8.11c2.73 3.9 3.56 9.18 9.7 10.43c6.06 0.66 11.99-4.03 15.01-6.79c1.38 3.57 4.14 8.91 8.68 11.46c5.7 0.7 12.81-3.85 16.47-5.39c1.39 3.04 1.45 9.14 6.85 12.53c4.48 1.7 9 3.59 12.94 2.94" />
				</g>
			</g>
		</g>
	</g>
</svg>