<svg version="1.2" baseProfile="tiny-ps" xmlns="http://www.w3.org/2000/svg" viewBox="0 0 600 600" width="600" height="600"><title></title><style>tspan { white-space:pre }.shp0 { fill: #ffffff;stroke: #000000;stroke-width: 1.49 } .shp1 { fill: #ffffff;stroke: #000000;stroke-width: 2 } .shp2 { fill: #ffffff } .shp3 { fill: #ffffff;stroke: #bd6b00;stroke-width: 1.49 } .shp4 { fill: #000000;stroke: #000000;stroke-width: 1.49 } .shp5 { fill: #009800;stroke: #000000;stroke-width: 1.49 } .shp6 { fill: #bf0000;stroke: #000000;stroke-linejoin:round;stroke-width: 1.49 } .shp7 { fill: #000000 } .shp8 { fill: none;stroke: #000000;stroke-width: 1.49 } .shp9 { fill: #ffffff;stroke: #000000;stroke-linejoin:round;stroke-width: 1.49 } .shp10 { fill: #ffffff;stroke: #000000;stroke-width: 1.491 } .shp11 { fill: #ffffff;stroke: #000000;stroke-width: 1.594 } .shp12 { opacity: 0.184;fill: #000000 } .shp13 { fill: #ffffff;stroke: #000000;stroke-width: 1.492 } .shp14 { fill: #ffffff;stroke: #000000;stroke-width: 1.517 } .shp15 { fill: #ffffff;stroke: #000000;stroke-width: 1.598 } .shp16 { opacity: 0.533;fill: #ffffff;stroke: #bd6b00;stroke-width: 1.49 } </style><g ></g><g ><path fill-rule="evenodd" class="shp0" d="M165.91 508.92C162.56 520.76 113.11 497.75 107.59 485.83C135.88 500.83 166.58 497.69 165.91 508.92Z" /><path fill-rule="evenodd" class="shp0" d="M9.57 267C12.05 269.95 16.21 267.97 12.42 263.99C9.31 260.78 10.33 259.76 8.44 255.84C6.56 251.46 6.66 249.05 4.4 245.92C2.4 242.95 -0.6 245.98 1.41 248.48C3.94 251.43 3.24 253.61 4.79 256.47C7.65 261.36 6.95 263.93 9.57 267L9.57 267Z" /><path fill-rule="evenodd" class="shp0" d="M76.1 347.27C84.06 351.18 90.09 360.95 90.49 368.91C91.16 378.07 92.49 385.8 96.6 392.31C90.05 390.49 86.91 380.05 85.98 370.06C85.04 359.71 79.47 355.22 76.1 347.27L76.1 347.27Z" /><path fill-rule="evenodd" class="shp0" d="M92.67 366.43C98.18 376.59 105.87 380.46 106.27 388C106.93 396.68 107.59 397.12 109.94 405.66C103.46 403.93 101.83 403.36 100.08 390.38C99 381.26 91.7 374.82 92.67 366.43L92.67 366.43Z" /><path fill-rule="evenodd" class="shp1" d="M221.26 421.05C229.68 427.95 235.15 435.82 237.7 446C240.35 455.48 244.09 463.04 249.57 471.57C240.64 465.48 235.03 457.2 232.22 447.22C229.75 437.41 226.84 430.08 221.26 421.05L221.26 421.05Z" /><path fill-rule="evenodd" class="shp2" d="M378.91 421.05C370.31 427.99 364.72 435.91 362.11 446.15C359.4 455.69 355.58 463.29 349.98 471.87C359.1 465.74 364.84 457.41 367.71 447.37C370.23 437.5 373.21 430.13 378.91 421.05L378.91 421.05Z" /><path fill-rule="evenodd" class="shp2" d="M368.34 421.05C359.11 428.29 350.41 436.52 347.8 446.76C345.09 456.3 343.45 463.6 337.22 473.09C346.97 466.97 350.84 457.71 353.71 447.68C356.23 437.81 362.01 430.44 368.34 421.05Z" /><path fill-rule="evenodd" class="shp1" d="M264.03 460.46C267.12 466.29 270.67 475.17 277.11 473.54C277.21 469.08 270.16 465.99 264.03 460.46Z" /><path fill-rule="evenodd" class="shp2" d="M273.61 462.43C286.12 467.56 296.92 466.29 298.26 474.15C286.53 475.42 282.24 470.6 273.61 462.43Z" /><path fill-rule="evenodd" class="shp2" d="M334.94 461.22C331.8 466.72 328.2 475.09 321.68 473.55C321.57 469.35 328.72 466.43 334.94 461.22Z" /><path fill-rule="evenodd" class="shp2" d="M326.17 462.89C313.48 467.75 302.52 466.55 301.16 474.01C313.06 475.21 317.41 470.64 326.17 462.89Z" /><path fill-rule="evenodd" class="shp3" d="M155.24 203.37L158.25 201.43L216.14 298.93L213.13 300.86L155.24 203.37L155.24 203.37Z" /><path fill-rule="evenodd" class="shp0" d="M155.24 203.37L158.25 201.43L216.14 298.93L213.13 300.86L155.24 203.37L155.24 203.37Z" /><path fill-rule="evenodd" class="shp3" d="M161.48 199.5C161.48 201.88 160.21 204.09 158.14 205.28C156.08 206.47 153.53 206.47 151.47 205.28C149.4 204.09 148.13 201.88 148.13 199.5C148.13 197.11 149.4 194.91 151.47 193.71C153.53 192.52 156.08 192.52 158.14 193.71C160.21 194.91 161.48 197.11 161.48 199.5Z" /><path fill-rule="evenodd" class="shp0" d="M161.48 199.5C161.48 201.88 160.21 204.09 158.14 205.28C156.08 206.47 153.53 206.47 151.47 205.28C149.4 204.09 148.13 201.88 148.13 199.5C148.13 197.11 149.4 194.91 151.47 193.71C153.53 192.52 156.08 192.52 158.14 193.71C160.21 194.91 161.48 197.11 161.48 199.5Z" /><path fill-rule="evenodd" class="shp3" d="M445.55 205.1L442.54 203.1L384.68 304.01L387.69 306.01L445.55 205.1L445.55 205.1Z" /><g ><path fill-rule="evenodd" class="shp4" d="M442.62 211.92C442.07 212.1 441.76 213.22 441.26 214.06L420.99 247.82C422.19 249.18 434.46 256.75 440.44 263.07C441.1 263.8 441.35 264.67 441.9 265.43C443.15 262.44 445.02 259.41 447.37 256.86C449.72 254.3 452.55 252.24 455.52 251.15C458.4 250.05 461.45 248.61 463.57 246.06C464.63 244.78 465.45 243.22 465.92 241.27C466.35 239.45 466.3 237.22 466 234.66C456.89 229.88 447.38 214.04 442.62 211.92L442.62 211.92Z" /><path fill-rule="evenodd" class="shp5" d="M479.78 272.45C479.18 274.34 478.51 275.97 477.64 277.03C476.6 278.28 475.37 279.04 474.07 279.58C471.46 280.66 468.48 280.83 465.61 281.92C462.64 283.02 459.57 285.33 456.95 288.14C454.4 290.88 452.41 294.08 451.14 297.01C453.85 307.12 456.87 325.08 460.41 321.87C464.79 317.48 474.23 304.75 481.51 299.15C484.26 296.88 480.22 287.96 479.78 283.96C479.36 280.2 479.62 276.31 479.78 272.45L479.78 272.45Z" /><path fill-rule="evenodd" class="shp6" d="M466.02 234.64C466.32 237.21 466.35 239.45 465.92 241.27C465.45 243.22 464.63 244.78 463.57 246.06C461.45 248.61 458.4 250.05 455.52 251.15C452.55 252.24 449.72 254.3 447.37 256.86C445.02 259.41 443.12 262.43 441.87 265.42C448.31 274.42 447.73 285.31 450.53 294.66C450.71 295.27 450.96 296.32 451.14 297.01C452.41 294.08 454.4 290.88 456.95 288.14C459.57 285.33 462.64 283.02 465.61 281.92C468.48 280.83 471.46 280.66 474.07 279.58C475.37 279.04 476.6 278.28 477.64 277.03C478.51 275.97 479.18 274.34 479.78 272.45C479.88 269.82 479.88 267.25 479.78 264.6C479.72 255.09 474.43 240.68 466.73 235.25C466.45 235.05 466.29 234.84 466.02 234.64L466.02 234.64Z" /></g><path fill-rule="evenodd" class="shp0" d="M445.55 205.1L442.54 203.1L384.68 304.01L387.69 306.01L445.55 205.1L445.55 205.1Z" /><path fill-rule="evenodd" class="shp3" d="M439.31 201.1C439.31 203.56 440.58 205.85 442.64 207.08C444.71 208.32 447.25 208.32 449.32 207.08C451.38 205.85 452.65 203.56 452.65 201.1C452.65 198.63 451.38 196.34 449.32 195.11C447.25 193.87 444.71 193.87 442.64 195.11C440.58 196.34 439.31 198.63 439.31 201.1Z" /><path fill-rule="evenodd" class="shp0" d="M439.31 201.1C439.31 203.56 440.58 205.85 442.64 207.08C444.71 208.32 447.25 208.32 449.32 207.08C451.38 205.85 452.65 203.56 452.65 201.1C452.65 198.63 451.38 196.34 449.32 195.11C447.25 193.87 444.71 193.87 442.64 195.11C440.58 196.34 439.31 198.63 439.31 201.1Z" /><g ><path class="shp0" d="M210.97 121.17L234.42 121.17L234.42 126.55L210.97 126.55L210.97 121.17Z" /><path class="shp0" d="M210.97 131.36L234.42 131.36L234.42 176.31L210.97 176.31L210.97 131.36Z" /><path fill-rule="evenodd" class="shp0" d="M209.55 115.02L235.57 115.17C236.59 106.34 227.78 96.81 222.64 96.91C217.56 97.16 209.35 106.55 209.55 115.02Z" /><path class="shp0" d="M365.06 121.32L388.52 121.32L388.52 126.7L365.06 126.7L365.06 121.32Z" /><path class="shp0" d="M365.06 131.51L388.52 131.51L388.52 176.46L365.06 176.46L365.06 131.51Z" /><path fill-rule="evenodd" class="shp0" d="M363.64 115.17L389.66 115.32C390.68 106.5 381.87 96.96 376.73 97.06C371.65 97.31 363.44 106.7 363.64 115.17Z" /><path class="shp0" d="M210.97 121.17L234.42 121.17L234.42 126.55L210.97 126.55L210.97 121.17Z" /><path class="shp0" d="M210.97 131.36L234.42 131.36L234.42 176.31L210.97 176.31L210.97 131.36Z" /><path fill-rule="evenodd" class="shp0" d="M209.55 115.02L235.57 115.17C236.59 106.34 227.78 96.81 222.64 96.91C217.56 97.16 209.35 106.55 209.55 115.02Z" /><path class="shp0" d="M365.06 121.32L388.52 121.32L388.52 126.7L365.06 126.7L365.06 121.32Z" /><path class="shp0" d="M365.06 131.51L388.52 131.51L388.52 176.46L365.06 176.46L365.06 131.51Z" /><path fill-rule="evenodd" class="shp0" d="M363.64 115.17L389.66 115.32C390.68 106.5 381.87 96.96 376.73 97.06C371.65 97.31 363.44 106.7 363.64 115.17Z" /></g><path fill-rule="evenodd" class="shp0" d="M191.45 183.95L206.36 200.39L392.02 200.69L407.24 184.25L359.76 183.65L336.63 167.51L262.06 167.21L240.45 183.95L191.45 183.95L191.45 183.95Z" /><path class="shp0" d="M267.44 165.1L331.55 165.03C340.23 160.44 342.94 145.79 342.89 137.59C342.77 113.36 325.83 101.75 308.83 101.13C306.28 101 303.32 99.02 302.65 96.7C300.97 91.44 301.41 88.08 299.57 88.27C297.94 88.25 298.42 91.33 296.97 96.27C296.17 98.72 293.41 101.14 290.66 101.28C269.49 102.34 255.84 117.79 256.38 137.59C256.74 150.68 258.26 158.5 267.44 165.1L267.44 165.1Z" /><path fill-rule="evenodd" class="shp7" d="M275.95 109.71C277.68 108.99 279.55 109.33 280.74 110.32C281.33 110.81 281.77 111.52 281.66 112.35C281.54 113.19 280.99 113.99 280.03 114.7C274.71 118.65 271.8 123.51 270.35 128.96C268.89 134.42 268.86 140.47 269.33 146.59C269.41 147.69 269.18 148.63 268.72 149.35C268.25 150.06 267.44 150.52 266.58 150.36C265.71 150.2 264.98 149.58 264.33 148.53C263.68 147.48 263.12 146 262.7 143.94L262.7 143.84C261.61 137.89 262.5 130.49 264.84 123.97C267.19 117.46 270.99 111.79 275.95 109.71L275.95 109.71ZM276.46 111.13C272.15 112.94 268.53 118.2 266.27 124.48C264.01 130.77 263.1 138.05 264.13 143.64C264.52 145.57 265.04 146.87 265.56 147.71C266.07 148.55 266.62 148.89 266.88 148.94C267.14 148.99 267.27 148.88 267.49 148.53C267.72 148.18 267.96 147.54 267.9 146.7C267.42 140.49 267.39 134.28 268.92 128.56C270.45 122.84 273.52 117.62 279.11 113.48C279.88 112.91 280.09 112.43 280.13 112.15C280.17 111.87 280.13 111.69 279.82 111.44C279.21 110.93 277.67 110.63 276.46 111.13Z" /><path fill-rule="evenodd" class="shp7" d="M284.31 116.12C286.04 115.41 287.91 115.65 289.1 116.63C289.69 117.13 290.13 117.94 290.01 118.77C289.9 119.61 289.35 120.42 288.38 121.12C284.21 124.1 282.01 129.04 281.15 134.57C280.28 140.1 280.75 146.19 281.96 151.08C282.3 152.52 282.09 153.68 281.45 154.54C280.81 155.4 279.78 155.83 278.7 155.66C276.55 155.33 274.35 153.12 273.5 148.94C272.42 143.04 272.69 135.96 274.42 129.78C276.15 123.6 279.35 118.21 284.31 116.12ZM284.92 117.55C280.6 119.37 277.51 124.15 275.85 130.09C274.19 136.02 273.9 142.99 274.93 148.63C275.7 152.43 277.65 154.04 278.91 154.24C279.53 154.33 279.92 154.14 280.23 153.73C280.54 153.31 280.81 152.53 280.54 151.38C279.28 146.32 278.71 140.15 279.62 134.37C280.52 128.58 282.86 123.18 287.47 119.9C288.23 119.34 288.55 118.85 288.59 118.57C288.63 118.29 288.49 118.11 288.18 117.86C287.56 117.34 286.13 117.05 284.92 117.55Z" /><path fill-rule="evenodd" class="shp7" d="M323.54 110.01C328.5 112.1 332.3 117.76 334.65 124.28C336.99 130.79 337.88 138.19 336.79 144.15L336.79 144.25C336.37 146.31 335.81 147.78 335.16 148.84C334.51 149.89 333.78 150.51 332.91 150.67C332.05 150.83 331.14 150.37 330.67 149.65C330.21 148.93 329.98 147.99 330.06 146.9C330.53 140.77 330.6 134.73 329.14 129.27C327.68 123.81 324.79 118.95 319.46 115C318.5 114.3 317.95 113.49 317.83 112.66C317.71 111.83 318.05 111.11 318.65 110.62C319.83 109.64 321.8 109.29 323.54 110.01L323.54 110.01ZM322.93 111.44C321.72 110.94 320.28 111.23 319.67 111.74C319.36 112 319.22 112.18 319.26 112.46C319.3 112.74 319.51 113.22 320.28 113.78L320.38 113.78C325.97 117.93 329.04 123.14 330.57 128.86C332.1 134.58 332.07 140.8 331.59 147C331.53 147.84 331.67 148.48 331.89 148.84C332.12 149.19 332.34 149.29 332.61 149.24C332.87 149.19 333.31 148.86 333.83 148.02C334.35 147.18 334.86 145.88 335.26 143.94C336.28 138.35 335.48 131.07 333.22 124.79C330.96 118.5 327.24 113.25 322.93 111.44L322.93 111.44Z" /><path fill-rule="evenodd" class="shp7" d="M315.18 116.43C320.14 118.51 323.34 123.8 325.07 129.98C326.8 136.16 327.07 143.34 325.98 149.24C325.14 153.43 322.94 155.64 320.79 155.97C319.71 156.13 318.57 155.71 317.93 154.85C317.29 153.99 317.19 152.83 317.53 151.38C318.74 146.5 319.21 140.41 318.34 134.87C317.47 129.34 315.28 124.4 311.11 121.42C310.14 120.72 309.49 119.91 309.37 119.08C309.26 118.25 309.7 117.43 310.29 116.94C311.48 115.95 313.45 115.71 315.18 116.43ZM314.57 117.86C313.36 117.36 311.83 117.65 311.21 118.16C310.9 118.42 310.86 118.6 310.9 118.88C310.94 119.15 311.15 119.64 311.92 120.2C316.53 123.49 318.86 128.89 319.77 134.67C320.67 140.45 320.21 146.62 318.95 151.69C318.68 152.84 318.85 153.62 319.16 154.03C319.47 154.45 319.96 154.64 320.58 154.54C321.84 154.35 323.69 152.73 324.46 148.94C325.49 143.29 325.3 136.32 323.64 130.39C321.98 124.46 318.89 119.67 314.57 117.86Z" /><g ><path fill-rule="evenodd" class="shp0" d="M161.93 393.65L437.37 393.65L412.71 373.56L186.58 373.56L161.93 393.65Z" /><path fill-rule="evenodd" class="shp0" d="M161.93 393.65L437.37 393.65L412.71 373.56L186.58 373.56L161.93 393.65Z" /></g><g ><g ><g ><path class="shp0" d="M209.71 212.86L235.88 212.86L235.88 249.08L209.71 249.08L209.71 212.86Z" /><path class="shp0" d="M211.23 269.78L236.49 269.78L236.49 277.39L211.23 277.39L211.23 269.78Z" /><path class="shp0" d="M210.62 283.17L236.49 283.17L236.49 311.47L210.62 311.47L210.62 283.17Z" /><path class="shp0" d="M208.8 317.26L237.1 317.26L237.1 333.08L208.8 333.08L208.8 317.26Z" /><path fill-rule="evenodd" class="shp0" d="M212.27 262.99L235.07 262.99L239.6 255.46L208.18 255.46L212.27 262.99L212.27 262.99Z" /><path fill-rule="evenodd" class="shp0" d="M243.04 235.22L243.25 215.43L258.96 215.43C252.79 220.52 247.05 226.69 243.04 235.22Z" /><path class="shp0" d="M388.95 212.86L363.22 212.86L363.22 249.08L388.95 249.08L388.95 212.86Z" /><path class="shp0" d="M388.52 269.78L363.69 269.78L363.69 277.39L388.52 277.39L388.52 269.78Z" /><path class="shp0" d="M388.98 283.17L363.69 283.17L363.69 311.47L388.98 311.47L388.98 283.17Z" /><path class="shp0" d="M390.61 317.26L362.78 317.26L362.78 333.08L390.61 333.08L390.61 317.26Z" /><path fill-rule="evenodd" class="shp0" d="M386.44 262.99L364.02 262.99L359.57 255.46L390.46 255.46L386.44 262.99L386.44 262.99Z" /><path fill-rule="evenodd" class="shp0" d="M356.18 235.22L355.97 215.43L340.53 215.43C346.6 220.52 352.24 226.69 356.18 235.22Z" /></g><g ><path class="shp0" d="M209.71 212.86L235.88 212.86L235.88 249.08L209.71 249.08L209.71 212.86Z" /><path class="shp0" d="M211.23 269.78L236.49 269.78L236.49 277.39L211.23 277.39L211.23 269.78Z" /><path class="shp0" d="M210.62 283.17L236.49 283.17L236.49 311.47L210.62 311.47L210.62 283.17Z" /><path class="shp0" d="M208.8 317.26L237.1 317.26L237.1 333.08L208.8 333.08L208.8 317.26Z" /><path fill-rule="evenodd" class="shp0" d="M212.27 262.99L235.07 262.99L239.6 255.46L208.18 255.46L212.27 262.99L212.27 262.99Z" /><path fill-rule="evenodd" class="shp0" d="M243.04 235.22L243.25 215.43L258.96 215.43C252.79 220.52 247.05 226.69 243.04 235.22Z" /><path class="shp0" d="M388.95 212.86L363.22 212.86L363.22 249.08L388.95 249.08L388.95 212.86Z" /><path class="shp0" d="M388.52 269.78L363.69 269.78L363.69 277.39L388.52 277.39L388.52 269.78Z" /><path class="shp0" d="M388.98 283.17L363.69 283.17L363.69 311.47L388.98 311.47L388.98 283.17Z" /><path class="shp0" d="M390.61 317.26L362.78 317.26L362.78 333.08L390.61 333.08L390.61 317.26Z" /><path fill-rule="evenodd" class="shp0" d="M386.44 262.99L364.02 262.99L359.57 255.46L390.46 255.46L386.44 262.99L386.44 262.99Z" /><path fill-rule="evenodd" class="shp0" d="M356.18 235.22L355.97 215.43L340.53 215.43C346.6 220.52 352.24 226.69 356.18 235.22Z" /></g></g><path class="shp8" d="M213.77 243.35C213.92 247.59 218.72 245.7 218.72 243.57C218.72 237.04 218.8 229.97 218.54 225.35C218.51 221.94 226.67 222.79 226.62 224.89C226.65 230.41 226.71 237.97 226.74 244.43C226.68 247.57 232.01 247.3 231.94 244.43C231.9 237.22 231.9 226.74 231.94 221.43C231.98 214.6 214 214.75 213.86 221.28C213.86 226.65 213.76 236.25 213.77 243.35L213.77 243.35Z" /><path class="shp8" d="M367.77 244.11C367.93 248.35 372.72 246.46 372.72 244.33C372.72 237.8 372.81 230.73 372.55 226.11C372.51 222.7 380.67 223.55 380.62 225.65C380.65 231.17 380.71 238.73 380.75 245.19C380.69 248.33 385.86 248.06 385.79 245.19C385.76 237.83 385.9 227.5 385.94 222.19C385.99 215.36 368 215.51 367.86 222.04C367.87 227.41 367.76 237.01 367.77 244.11L367.77 244.11Z" /><g ><path class="shp8" d="M213.82 286.52L232.38 286.52L232.38 309.65L213.82 309.65L213.82 286.52Z" /><path class="shp4" d="M225.69 296.1L232.23 296.1L232.23 299.91L225.69 299.91L225.69 296.1Z" /><path class="shp4" d="M214.28 296.1L220.67 296.1L220.67 299.91L214.28 299.91L214.28 296.1Z" /><path class="shp4" d="M220.67 286.82L225.69 286.82L225.69 296.26L220.67 296.26L220.67 286.82Z" /><path class="shp4" d="M220.67 299.76L225.69 299.76L225.69 309.8L220.67 309.8L220.67 299.76Z" /></g><g ><path class="shp8" d="M367.21 286.36L385.78 286.36L385.78 309.5L367.21 309.5L367.21 286.36Z" /><path class="shp4" d="M379.08 295.95L385.63 295.95L385.63 299.76L379.08 299.76L379.08 295.95Z" /><path class="shp4" d="M367.67 295.95L374.06 295.95L374.06 299.76L367.67 299.76L367.67 295.95Z" /><path class="shp4" d="M374.06 286.67L379.08 286.67L379.08 296.1L374.06 296.1L374.06 286.67Z" /><path class="shp4" d="M374.06 299.6L379.08 299.6L379.08 309.65L374.06 309.65L374.06 299.6Z" /></g></g><path class="shp3" d="M350.33 287.73L353.52 287.73L353.52 310.71L350.33 310.71L350.33 287.73Z" /><path fill-rule="evenodd" class="shp0" d="M192.21 367.17C202.31 357.78 208.75 349.77 208.8 338.26L233.45 338.26C233.5 344.7 235.84 348.55 239.39 348.3L264.35 348.15L264.2 333.39L246.09 333.39L246.08 252.88C245.43 224.64 280.15 208.09 294.76 207.99L209.41 207.84L209.41 205.25L389.59 205.25L389.74 207.84L302.85 207.99C328.62 208.04 353.47 232.44 353.68 253.04L353.68 275.86L350.33 275.86L350.17 253.34C350.17 230.82 321.81 209.77 299.04 210.42C279.36 210.99 248.82 229.75 249.13 253.19L249.13 260.19L295.85 260.49L295.39 268.56L302.73 273.24L317.36 277.9L317.14 290L327.62 293.09L327.71 305.17L340.28 310.57L340.28 323.07L348.26 327.99L347.89 340.69L358.7 348.3L333.13 348.3L349.11 366.1L325.52 366.1L313.8 348.3L298.28 348.3L305.28 365.95L288.7 365.8L284.74 348.3L264.5 348.3L264.65 367.16L192.22 367.17L192.21 367.17ZM294.76 207.99L295.09 207.99C294.98 207.99 294.87 207.99 294.76 207.99ZM281.85 333.23L281.85 333.23L281.85 333.23L281.85 333.23ZM284.74 348.15L298.13 348.3L293.26 333.23L304.67 333.23L295.54 318.17L288.24 318.17L293.26 333.23L281.85 333.23L284.74 348.15ZM293.26 333.23L293.26 333.23L293.26 333.23L293.26 333.23L293.26 333.23ZM304.52 333.39L313.81 348.15L332.83 348.15L317.92 333.23L304.52 333.39ZM288.24 318.17L288.24 318.17L288.24 318.17L288.24 318.17ZM264.5 318.32L264.5 333.23L281.85 333.23L278.35 318.32L264.5 318.32Z" /><path class="shp8" d="M265.42 291.99L276.22 291.99L276.22 316.8L265.42 316.8L265.42 291.99Z" /><path class="shp8" d="M250.15 318.54L260.7 318.54L260.63 300.29C260.5 292.36 267.62 284.36 271.03 284.1C274.8 283.95 280.37 291.59 280.56 299.67L280.71 318.6L291.9 318.58L291.9 271.59L250.15 271.81L250.15 318.54L250.15 318.54Z" /><path class="shp8" d="M333.6 329.42L346.68 329.42L346.68 339.62L333.6 339.62L333.6 329.42Z" /><path class="shp8" d="M325.84 311.92L338.92 311.92L338.92 322.12L325.84 322.12L325.84 311.92Z" /><path class="shp8" d="M313.2 294.42L326.29 294.42L326.29 304.62L313.2 304.62L313.2 294.42Z" /><path class="shp8" d="M302.4 279.66L315.49 279.66L315.49 289.86L302.4 289.86L302.4 279.66Z" /><path class="shp8" d="M293.73 318.62L307.12 319.07L331.01 340.23L331.01 327.75L322.94 321.97L322.94 312.07L311.23 305.38L311.23 294.73L299.81 290.92L299.81 276.46L294.03 271.75L293.73 318.62L293.73 318.62Z" /><path class="shp0" d="M350.33 287.73L353.52 287.73L353.52 310.71L350.33 310.71L350.33 287.73Z" /><g ><path fill-rule="evenodd" class="shp9" d="M117.35 54.98C118.51 73.13 112.88 83.1 103.27 81.58C100.62 71.51 106.64 64.75 117.35 54.98Z" /><path fill-rule="evenodd" class="shp9" d="M96.25 95.2C87.7 90.85 93.87 57.66 97.15 43.75C99.57 61.67 103.63 87.15 96.25 95.2Z" /><path fill-rule="evenodd" class="shp9" d="M99.3 96.76C113.67 101.76 125.04 86.28 128.89 68.36C117.03 84.73 97.73 84.75 99.3 96.76Z" /><path fill-rule="evenodd" class="shp9" d="M88.4 113.51C77.16 110.55 83.93 75.33 85.97 61.24C88.44 75.79 96.18 108.7 88.4 113.51Z" /><path fill-rule="evenodd" class="shp9" d="M92.23 112.43C92.86 100.28 104.96 103.79 113.32 97.31C111.96 103.38 106.82 114.13 92.23 112.43Z" /><path fill-rule="evenodd" class="shp9" d="M78.47 128.69C67.34 125.69 74.03 87.79 73.4 72.18C76.66 85.66 87 125.04 78.47 128.69Z" /><path fill-rule="evenodd" class="shp9" d="M83.68 127.06C92.8 130.02 104.88 124.1 105.83 113.24C97.98 118.56 85.44 114.49 83.68 127.06Z" /><path fill-rule="evenodd" class="shp9" d="M70.16 145.42C59.51 146.27 64.28 113.99 64.29 83.93C68.2 112.03 78.85 137.75 70.16 145.42Z" /><path fill-rule="evenodd" class="shp9" d="M73.85 143.96C81.04 147.57 93.93 141.8 97.6 129.66C84.61 135.3 75.93 129.78 73.85 143.96Z" /></g><g ><path fill-rule="evenodd" class="shp0" d="M157.44 71.78C155.55 87.52 149.11 96.68 139.5 95.17C136.85 85.1 144.65 78.66 157.44 71.78Z" /><path fill-rule="evenodd" class="shp0" d="M132.01 112.2C147.98 114.47 153.73 102.21 164.49 86.54C149.42 97.44 131.4 99.71 132.01 112.2Z" /><path fill-rule="evenodd" class="shp0" d="M127.46 110.38C118.76 99.94 127.17 86.82 133.82 75.63C132.39 92.27 138.06 101.53 127.46 110.38L127.46 110.38Z" /><path fill-rule="evenodd" class="shp0" d="M123.6 127.65C122.62 117.43 140.03 115.16 147.9 109.48C145.25 115.38 141.24 131.28 123.6 127.65Z" /><path fill-rule="evenodd" class="shp0" d="M119.97 127.88C107.93 126.51 112.93 106.07 121.56 94.71C117.92 110.39 127.91 121.29 119.97 127.88Z" /><path fill-rule="evenodd" class="shp0" d="M110.88 144.91C97.18 138.85 105.96 121.67 111.11 111.52C108.92 124.84 119.89 134.99 110.88 144.91L110.88 144.91Z" /><path fill-rule="evenodd" class="shp0" d="M113.61 143.32C120.8 152.71 134.81 140.52 137.68 126.28C125.49 136.43 116.49 134.76 113.61 143.32Z" /></g><g ><path fill-rule="evenodd" class="shp0" d="M443.38 73.36C445.2 81.54 445.66 97.67 460.19 94.49C462.31 79.5 450.12 78.81 443.38 73.36Z" /><path fill-rule="evenodd" class="shp0" d="M468.14 111.98C467.61 96.53 450.95 99.94 436.57 87.22C440.51 100.62 454.44 116.97 468.14 111.98Z" /><path fill-rule="evenodd" class="shp0" d="M471.55 110.16C481.31 103.42 473.82 88.73 464.73 75.86C468.14 89.87 460.65 102.74 471.55 110.16Z" /><path fill-rule="evenodd" class="shp0" d="M475.86 127.65C460.12 128.86 457.32 120.98 451.11 110.84C461.86 117.81 476.24 113.41 475.86 127.65Z" /><path fill-rule="evenodd" class="shp0" d="M479.73 128.1C472.23 121.97 481.54 108.79 478.36 95.62C484.27 103.95 493.35 123.86 479.73 128.1Z" /><path fill-rule="evenodd" class="shp0" d="M486.31 144.45C470.56 148.16 465.49 139.83 461.55 125.83C474.35 137.56 481.46 132.04 486.31 144.45Z" /><path fill-rule="evenodd" class="shp0" d="M488.58 144.22C499.56 144.07 494.64 122.35 489.03 112.43C490.55 124.39 480.93 138.17 488.58 144.22Z" /></g><g ><path fill-rule="evenodd" class="shp0" d="M517.24 208.46C518.67 194.48 507.96 169.06 515.56 155.51C516.6 153.64 513.29 148.7 511.15 151.7C507.81 156.49 504.37 170.13 502.93 165.09C501.41 159.62 501.17 149.93 496.24 148.05C493.08 146.94 488.63 146.22 489.84 151.09C491.05 155.77 493.75 162.24 490.76 162.66C489.02 162.91 484.02 156.29 479.8 153.22C476.4 150.49 471.34 154.77 476.3 158.85C492.44 172.02 508.09 177.94 517.24 208.46L517.24 208.46Z" /><path fill-rule="evenodd" class="shp0" d="M517.24 208.46C518.67 194.48 507.96 169.06 515.56 155.51C516.6 153.64 513.29 148.7 511.15 151.7C507.81 156.49 504.37 170.13 502.93 165.09C501.41 159.62 501.17 149.93 496.24 148.05C493.08 146.94 488.63 146.22 489.84 151.09C491.05 155.77 493.75 162.24 490.76 162.66C489.02 162.91 484.02 156.29 479.8 153.22C476.4 150.49 471.34 154.77 476.3 158.85C492.44 172.02 508.09 177.94 517.24 208.46L517.24 208.46Z" /></g><g ><path fill-rule="evenodd" class="shp0" d="M481.88 55.1C483.85 64.2 480.05 82.15 494.58 82.01C500.66 71.74 487.7 62.08 481.88 55.1Z" /><path fill-rule="evenodd" class="shp0" d="M503.69 95.64C512.85 89.36 504.6 68.74 501.75 45.52C499.53 66.23 494.62 88.83 503.69 95.64Z" /><path fill-rule="evenodd" class="shp0" d="M498.77 97.24C499.92 85.91 482.04 83.38 469.79 68.38C472.97 80.41 482.02 97.98 498.77 97.24Z" /><path fill-rule="evenodd" class="shp0" d="M511.01 114.89C501.38 106.17 512.82 81.13 513.29 61.72C514.78 79.63 522.65 111.72 511.01 114.89Z" /><path fill-rule="evenodd" class="shp0" d="M505.53 112.38C491.46 113.28 487.74 102.97 486.1 97.09C493.66 102.54 505.6 99.97 505.53 112.38Z" /><path fill-rule="evenodd" class="shp0" d="M519.65 127.92C530.47 127.47 526.46 86.42 524.96 73.46C523.89 87.25 512.61 122.93 519.65 127.92Z" /><path fill-rule="evenodd" class="shp0" d="M514.91 127.18C505.56 128.61 496.08 123.18 493.51 113.89C501.58 117.4 514.94 114.62 514.91 127.18Z" /><path fill-rule="evenodd" class="shp0" d="M528.35 144.96C539.94 149.68 535.78 96.15 534.28 83.8C533.21 99.57 519.49 138.3 528.35 144.96Z" /><path fill-rule="evenodd" class="shp0" d="M525.64 144.97C514 146.7 505.43 139.59 502.1 129.85C513.98 134.28 523.23 132.71 525.64 144.97Z" /></g><path fill-rule="evenodd" class="shp0" d="M557.78 199.13C561.72 194.99 560.58 193.41 554.75 193.34C550.13 193.05 540.96 196.19 537.49 193.65C534.3 191.32 535.57 181.46 534.15 176.91C533.53 174.37 531.77 170.39 527.79 176.6C516.04 195.53 501.36 218.25 495.08 240.52C491.65 252.99 493.36 273.08 506.59 283.73L515.98 256.34C520.44 243.32 544.46 212.07 557.78 199.13L557.78 199.13Z" /><g ><path fill-rule="evenodd" class="shp0" d="M570.95 165.09C565.66 182.12 562.47 196.09 570.12 197.73C578.29 196.31 574.74 179.85 570.95 165.09Z" /><path fill-rule="evenodd" class="shp0" d="M570.4 212.89C579.12 217.52 588.51 195.3 586.56 177.81C582.17 192.8 567.39 202.06 570.4 212.89Z" /><path fill-rule="evenodd" class="shp0" d="M567.19 212.45C568.54 200.34 563.57 200.66 557.05 189.09C557.74 202.16 561 213.12 567.19 212.45Z" /><path fill-rule="evenodd" class="shp0" d="M570.05 230.18C580.23 233.07 591.88 208.86 591.44 190.96C587.21 210.77 565.13 218.68 570.05 230.18Z" /><path fill-rule="evenodd" class="shp0" d="M566.72 229.77C570.8 220.38 562.48 221.53 556.96 204.71C555.13 222.11 557.78 230.06 566.72 229.77Z" /><path fill-rule="evenodd" class="shp0" d="M569.67 248.02C582.87 250.29 589.68 221.15 596.23 207.2C583.25 225.49 567.7 235.68 569.67 248.02L569.67 248.02Z" /><path fill-rule="evenodd" class="shp0" d="M566.61 247.01C570.46 236.27 559.56 236.87 553.82 220.81C554.73 241.18 557.37 248.52 566.61 247.01Z" /><path fill-rule="evenodd" class="shp0" d="M570.4 265.51C578.74 266.12 593.75 242.81 594.07 228.42C586.94 244.27 564.57 254.77 570.4 265.51Z" /><path fill-rule="evenodd" class="shp0" d="M564.23 262.81C567.7 251.61 558.01 251.53 553.71 238.98C553.4 257.91 556.35 264.33 564.23 262.81Z" /><path fill-rule="evenodd" class="shp0" d="M564.53 283.03C579.25 285.61 583.01 266.21 591.7 246.47C583.13 262.18 563.78 270.99 564.53 283.03Z" /><path fill-rule="evenodd" class="shp0" d="M563.47 280.34C568.24 270.21 557.18 270.2 551.28 255.05C550.98 276.48 554.69 282.76 563.47 280.34Z" /></g><g ><path fill-rule="evenodd" class="shp0" d="M510.02 299C497.09 299.06 494.57 280.74 494.57 275.87C500.93 277.09 512.44 288.66 510.02 299Z" /><path fill-rule="evenodd" class="shp0" d="M510.02 299C497.09 299.06 494.57 280.74 494.57 275.87C500.93 277.09 512.44 288.66 510.02 299Z" /></g><g ><path fill-rule="evenodd" class="shp0" d="M535.83 215.77C530.53 232.8 528.41 240.98 535.6 246.43C544.99 241.2 539.61 230.53 535.83 215.77Z" /><path fill-rule="evenodd" class="shp0" d="M532.87 260.28C536.81 247.71 527.12 244.69 521.97 230.53C521.44 249.23 524.09 262.93 532.87 260.28Z" /><path fill-rule="evenodd" class="shp0" d="M536.73 263C543.63 265.65 552.1 249.68 547.41 233.71C542.57 248.09 530.68 251.57 536.73 263Z" /><path fill-rule="evenodd" class="shp0" d="M529.47 277.31C536.13 267.02 525.53 266.49 520.16 252.1C519.86 271.03 521.59 278.82 529.47 277.31Z" /><path fill-rule="evenodd" class="shp0" d="M529.46 295.03C534.54 283.37 523.48 284.88 516.98 270.5C516.68 291.93 520.23 296.54 529.46 295.03Z" /><path fill-rule="evenodd" class="shp0" d="M534.46 278C540.22 278.14 551.42 268.08 548.09 255.51C543.25 266.04 529.54 264.97 534.46 278Z" /><path fill-rule="evenodd" class="shp0" d="M532.87 293.21C542.26 295.18 549.38 280.8 548.32 270.95C540.98 280.12 530.9 280.87 532.87 293.21Z" /></g><g ><path fill-rule="evenodd" class="shp0" d="M591.7 269.13C592.85 267.63 596.16 269.17 595.33 272.78C594.57 277.67 587.39 302.79 575.05 311.43C566.24 317.8 519.99 328.07 499.02 332.43C487.48 334.76 477.81 340.55 470.24 349.78C473.37 337.71 475.89 328.76 479.93 317.82C483.86 308.21 494.28 297.69 505.07 297.13C525.11 296.4 551.05 294.69 569.89 286.47C579.62 282.39 585.44 276.87 591.7 269.13L591.7 269.13Z" /><path fill-rule="evenodd" class="shp0" d="M591.7 269.13C592.85 267.63 596.16 269.17 595.33 272.78C594.57 277.67 587.39 302.79 575.05 311.43C566.24 317.8 519.99 328.07 499.02 332.43C487.48 334.76 477.81 340.55 470.24 349.78C473.37 337.71 475.89 328.76 479.93 317.82C483.86 308.21 494.28 297.69 505.07 297.13C525.11 296.4 551.05 294.69 569.89 286.47C579.62 282.39 585.44 276.87 591.7 269.13L591.7 269.13Z" /></g><g ><path fill-rule="evenodd" class="shp0" d="M482.72 354.7C489.39 355.66 498.11 343.42 492.29 331.01C489.39 343.39 469.98 352.4 482.72 354.7Z" /><path fill-rule="evenodd" class="shp0" d="M497.01 347.35C502.16 350.24 515.19 336.38 513.53 327.3C506.25 338.9 491.64 342.24 497.01 347.35Z" /><path fill-rule="evenodd" class="shp0" d="M481.8 367.75C486.8 372.61 511.39 347.63 518.71 336.28C497.43 354.42 475.66 358.99 481.8 367.75Z" /><path fill-rule="evenodd" class="shp0" d="M475.94 382.68C479.85 388.61 496.24 370.73 506.61 355.87C493.47 368.83 471.22 374.76 475.94 382.68Z" /><path fill-rule="evenodd" class="shp0" d="M477.58 368.44C481.59 357.85 474.95 356.17 471.95 343C466.02 350.28 466.68 370.41 477.58 368.44Z" /><path fill-rule="evenodd" class="shp0" d="M471.04 383.05C479.01 380.83 466.13 367.28 463.43 357.61C462.21 375.39 462.42 384.26 471.04 383.05Z" /><path fill-rule="evenodd" class="shp0" d="M463.28 395.83C470.64 393.16 459.13 386.45 457.95 371.61C454.3 377.06 452.38 397.8 463.28 395.83Z" /><path fill-rule="evenodd" class="shp0" d="M452.29 398.98C456.98 396.44 455.05 384.35 447.85 382.75C446.18 392.24 446.4 399.12 452.29 398.98Z" /></g><g ><path fill-rule="evenodd" class="shp0" d="M563.39 328.41C565.5 319.95 562.81 317.22 565.12 303.98C552.42 321.01 557.19 329.08 563.39 328.41Z" /><path fill-rule="evenodd" class="shp0" d="M564.77 330.51C573.18 332.86 595.05 313.69 595.69 299.39C589.78 309.67 560.24 320.76 564.77 330.51Z" /><path fill-rule="evenodd" class="shp0" d="M551.05 343.13C556.8 339.99 555.18 326.68 549.96 322.19C548.89 335.18 541.05 342.82 551.05 343.13Z" /><path fill-rule="evenodd" class="shp0" d="M556.97 346.74C567.14 349.94 578.64 331.51 587.03 323.5C577.47 331.74 548.55 335.7 556.97 346.74Z" /><path fill-rule="evenodd" class="shp0" d="M542.98 355.92C550.1 351.25 543.46 342.04 542.96 323.86C535.81 337 534.35 354.99 542.98 355.92Z" /><g ><path fill-rule="evenodd" class="shp0" d="M544.34 360.59C547.97 365.46 574.84 348.7 581.55 336.28C558.6 353.35 538.35 351.07 544.34 360.59Z" /><path fill-rule="evenodd" class="shp0" d="M541.65 375.75C548.24 370.94 535.97 358.3 533.43 341.33C533.58 362 530.74 377.71 541.65 375.75Z" /><path fill-rule="evenodd" class="shp0" d="M548.83 370.06C552.13 375.37 572.63 361.3 581.47 345.98C567.88 357.88 545.03 361.06 548.83 370.06L548.83 370.06Z" /><path fill-rule="evenodd" class="shp0" d="M527.86 393.22C535.29 391.91 534.27 373.12 528.6 357.82C522.21 376.29 519.38 395.04 527.86 393.22Z" /><path fill-rule="evenodd" class="shp0" d="M546.51 382.99C549.07 386.03 579.29 364.85 578.86 356.24C569.29 369.96 537.33 372.7 546.51 382.99Z" /><path fill-rule="evenodd" class="shp0" d="M511.43 410.75C521.67 406.55 516.86 389.95 518.87 372.07C510.81 389.54 501.28 407.09 511.43 410.75Z" /><path fill-rule="evenodd" class="shp0" d="M530.59 396.4C532.22 402.02 556.84 391.59 568.72 374.45C554.37 385.59 526.49 387.1 530.59 396.4Z" /><path fill-rule="evenodd" class="shp0" d="M514.71 413.42C520.01 422.24 550.53 406.09 554.97 390.94C545.1 404.05 511.01 402.07 514.71 413.42Z" /><path fill-rule="evenodd" class="shp0" d="M528.71 420.27C534.31 420.87 547.34 410.2 551.01 404.63C540.53 409.83 526.37 416.99 528.71 420.27Z" /></g></g><path fill-rule="evenodd" class="shp2" d="M545.1 420.64C546.95 420.28 549.49 419.65 547.18 422.54C528.75 445.36 523.42 451.64 496.55 448.43C469.4 444.84 462.93 437.47 443.93 426.75C433.77 420.76 418.93 419.44 407.68 423.14C402.44 424.87 399.27 424.97 403.03 421.19C406.78 417.42 411.22 412.29 415.84 408.75C425.96 400.94 443.12 397.56 457.13 400.07C476.94 403.19 493.31 415.87 512.87 420.66C523.15 423.01 534.42 422.66 545.1 420.64L545.1 420.64Z" /><path fill-rule="evenodd" class="shp0" d="M545.1 420.64C546.95 420.28 549.49 419.65 547.18 422.54C528.75 445.36 523.42 451.64 496.55 448.43C469.4 444.84 462.93 437.47 443.93 426.75C433.77 420.76 418.93 419.44 407.68 423.14C402.44 424.87 399.27 424.97 403.03 421.19C406.78 417.42 411.22 412.29 415.84 408.75C425.96 400.94 443.12 397.56 457.13 400.07C476.94 403.19 493.31 415.87 512.87 420.66C523.15 423.01 534.42 422.66 545.1 420.64L545.1 420.64Z" /><g ><path fill-rule="evenodd" class="shp0" d="M389.88 460.77C386.48 461.2 384.32 467.87 382.65 463.35C379.81 456.04 381.8 450.23 384.99 450.87C388.76 451.89 395.13 460.44 389.88 460.77Z" /><path fill-rule="evenodd" class="shp0" d="M389.88 460.77C386.48 461.2 384.32 467.87 382.65 463.35C379.81 456.04 381.8 450.23 384.99 450.87C388.76 451.89 395.13 460.44 389.88 460.77Z" /></g><g ><path fill-rule="evenodd" class="shp2" d="M427.15 431.03C436.78 433.53 439.28 422.43 440.23 414.36C431.54 416.23 422.44 421.26 427.15 431.03Z" /><path fill-rule="evenodd" class="shp2" d="M423.3 440.88C425 448.56 443.84 440.64 447.5 429.88C434.11 437.7 420.89 429.18 423.3 440.88Z" /><path fill-rule="evenodd" class="shp2" d="M416.55 440.5C425.16 441.92 420.37 428.43 419.87 415.12C415.05 425.97 408.17 439.34 416.55 440.5Z" /><path fill-rule="evenodd" class="shp2" d="M405.68 453.26C415.05 454.43 409.11 436.35 406.56 424.21C403.48 435.46 396.7 452.27 405.68 453.26Z" /><path fill-rule="evenodd" class="shp2" d="M411.23 453.67C412.37 463.9 431.75 452.45 443.03 446.16C428.13 448.47 409.56 443.64 411.23 453.67Z" /><path fill-rule="evenodd" class="shp2" d="M400.58 467.98C401.72 478.2 421.1 466.75 432.37 460.47C417.48 462.78 398.9 457.94 400.58 467.98Z" /><path fill-rule="evenodd" class="shp2" d="M395.64 467.57C404.55 467.82 398 448.38 395.45 436.23C392.37 447.49 386.51 467.19 395.64 467.57Z" /><path fill-rule="evenodd" class="shp2" d="M387.95 480C389.09 490.22 406.79 480.14 417.77 473.1C402.72 476.32 386.27 469.96 387.95 480Z" /></g><g ><path fill-rule="evenodd" class="shp0" d="M427.15 431.03C436.78 433.53 439.28 422.43 440.23 414.36C431.54 416.23 422.44 421.26 427.15 431.03Z" /><path fill-rule="evenodd" class="shp0" d="M423.3 440.88C425 448.56 443.84 440.64 447.5 429.88C434.11 437.7 420.89 429.18 423.3 440.88Z" /><path fill-rule="evenodd" class="shp0" d="M416.55 440.5C425.16 441.92 420.37 428.43 419.87 415.12C415.05 425.97 408.17 439.34 416.55 440.5Z" /><path fill-rule="evenodd" class="shp0" d="M405.68 453.26C415.05 454.43 409.11 436.35 406.56 424.21C403.48 435.46 396.7 452.27 405.68 453.26Z" /><path fill-rule="evenodd" class="shp0" d="M411.23 453.67C412.37 463.9 431.75 452.45 443.03 446.16C428.13 448.47 409.56 443.64 411.23 453.67Z" /><path fill-rule="evenodd" class="shp0" d="M400.58 467.98C401.72 478.2 421.1 466.75 432.37 460.47C417.48 462.78 398.9 457.94 400.58 467.98Z" /><path fill-rule="evenodd" class="shp0" d="M395.64 467.57C404.55 467.82 398 448.38 395.45 436.23C392.37 447.49 386.51 467.19 395.64 467.57Z" /><path fill-rule="evenodd" class="shp0" d="M387.95 480C389.09 490.22 406.79 480.14 417.77 473.1C402.72 476.32 386.27 469.96 387.95 480Z" /></g><g ><path fill-rule="evenodd" class="shp0" d="M487.59 462.85C492.89 471.66 512.46 456.43 523.13 448.58C507.79 453.32 483.89 451.5 487.59 462.85Z" /><path fill-rule="evenodd" class="shp0" d="M467.62 472.01C469.53 482.12 502.54 473.78 507.25 466.28C492.07 472.72 465.81 463.28 467.62 472.01Z" /><path fill-rule="evenodd" class="shp0" d="M452.07 479.73C453.07 485.28 478.32 483.17 491.09 478.87C477.28 480.59 449.5 470.85 452.07 479.73Z" /><path fill-rule="evenodd" class="shp0" d="M438.88 486.34C438.97 491.43 468.33 494.35 478.21 486.09C458.47 489.02 436.92 474.11 438.88 486.34Z" /><path fill-rule="evenodd" class="shp0" d="M415.67 491.1C414.54 498.17 446.49 496.67 456.52 493.13C439.36 491.81 417.21 480.69 415.67 491.1Z" /><path fill-rule="evenodd" class="shp0" d="M415.18 484.67C422.39 491.27 440.9 461.76 446.93 448.76C432.68 463.62 406.97 478.89 415.18 484.67Z" /><path fill-rule="evenodd" class="shp0" d="M436.2 479.68C444.77 485.37 452.64 464.54 456.99 449.25C448.83 462.44 427.99 471.01 436.2 479.68Z" /><path fill-rule="evenodd" class="shp0" d="M452.78 473.96C461.35 479.65 466.18 460.8 468.25 449.01C462.37 459.15 444.57 465.29 452.78 473.96Z" /><path fill-rule="evenodd" class="shp0" d="M468.82 463.93C477.39 469.62 488.16 453.81 485.66 438.22C482.37 454.3 460.61 455.26 468.82 463.93Z" /><path fill-rule="evenodd" class="shp0" d="M436.28 508.3C440.51 519.05 484.91 498.9 492.36 485.46C478.09 497.51 432.15 495.87 436.28 508.3Z" /></g><g ><path fill-rule="evenodd" class="shp0" d="M82.3 209.37C80.89 195.39 91.4 169.97 83.94 156.42C82.92 154.56 86.18 149.61 88.28 152.61C91.56 157.4 94.93 171.04 96.34 166.01C97.84 160.53 98.07 150.84 102.92 148.96C106.01 147.86 110.39 147.14 109.19 152.01C108.01 156.69 105.35 163.15 108.3 163.57C110 163.82 114.92 157.2 119.05 154.14C122.39 151.41 127.37 155.68 122.49 159.77C106.64 172.93 91.28 178.85 82.3 209.37L82.3 209.37Z" /><path fill-rule="evenodd" class="shp0" d="M82.3 209.37C80.89 195.39 91.4 169.97 83.94 156.42C82.92 154.56 86.18 149.61 88.28 152.61C91.56 157.4 94.93 171.04 96.34 166.01C97.84 160.53 98.07 150.84 102.92 148.96C106.01 147.86 110.39 147.14 109.19 152.01C108.01 156.69 105.35 163.15 108.3 163.57C110 163.82 114.92 157.2 119.05 154.14C122.39 151.41 127.37 155.68 122.49 159.77C106.64 172.93 91.28 178.85 82.3 209.37L82.3 209.37Z" /></g><g ><path fill-rule="evenodd" class="shp0" d="M53.82 419.78C51.96 419.42 49.41 418.79 51.73 421.69C70.25 444.5 75.61 450.78 102.61 447.58C129.89 443.98 136.38 436.61 155.48 425.89C165.68 419.91 180.6 418.58 191.9 422.28C197.17 424.01 200.35 424.11 196.58 420.33C192.8 416.56 188.35 411.43 183.7 407.89C173.54 400.09 156.29 396.7 142.21 399.21C122.31 402.34 105.86 415.01 86.21 419.8C75.88 422.15 64.55 421.8 53.82 419.78L53.82 419.78Z" /><path fill-rule="evenodd" class="shp0" d="M53.82 419.78C51.96 419.42 49.41 418.79 51.73 421.69C70.25 444.5 75.61 450.78 102.61 447.58C129.89 443.98 136.38 436.61 155.48 425.89C165.68 419.91 180.6 418.58 191.9 422.28C197.17 424.01 200.35 424.11 196.58 420.33C192.8 416.56 188.35 411.43 183.7 407.89C173.54 400.09 156.29 396.7 142.21 399.21C122.31 402.34 105.86 415.01 86.21 419.8C75.88 422.15 64.55 421.8 53.82 419.78L53.82 419.78Z" /></g><g ><path fill-rule="evenodd" class="shp0" d="M209.67 460.56C213.11 460.98 215.29 467.65 216.99 463.14C219.86 455.83 217.85 450.01 214.62 450.65C210.81 451.67 204.36 460.22 209.67 460.56Z" /><path fill-rule="evenodd" class="shp0" d="M209.67 460.56C213.11 460.98 215.29 467.65 216.99 463.14C219.86 455.83 217.85 450.01 214.62 450.65C210.81 451.67 204.36 460.22 209.67 460.56Z" /></g><g ><path fill-rule="evenodd" class="shp2" d="M201.99 466.77C211.23 468.87 211.1 446.63 201.67 437.2C205.82 451.49 194.73 464.55 201.99 466.77Z" /><path fill-rule="evenodd" class="shp2" d="M198.41 466.57C199.02 477.15 172.46 465.19 165.63 456.97C181.33 463.63 197.64 458.11 198.41 466.57Z" /><path fill-rule="evenodd" class="shp2" d="M186.77 451.48C187.72 461.72 163.74 452.72 156.65 444.72C172.4 449.8 185.72 443.05 186.77 451.48Z" /><path fill-rule="evenodd" class="shp2" d="M191.19 452.92C200.43 455.03 198.93 432.02 189.95 424.11C194.26 439.46 183.92 450.7 191.19 452.92Z" /><path fill-rule="evenodd" class="shp2" d="M181.45 438.92C190.69 441.03 185.39 421.21 178.54 413.3C179.65 427.75 175.1 437.77 181.45 438.92Z" /><path fill-rule="evenodd" class="shp2" d="M176.57 438.85C177.52 449.4 158.87 441.3 151.62 431.32C167.22 436.41 175.53 430.42 176.57 438.85Z" /><path fill-rule="evenodd" class="shp2" d="M171.49 430.85C177.54 426.5 171.12 414.99 159.6 415.7C160.73 422.65 164.71 434.88 171.49 430.85Z" /><path fill-rule="evenodd" class="shp2" d="M216.98 478.54C217.59 489.11 191.03 483.86 182.68 472.59C199.44 475.75 216.21 470.08 216.98 478.54Z" /></g><g ><g ><path fill-rule="evenodd" class="shp0" d="M41.08 198.27C37.12 194.13 38.27 192.55 44.13 192.48C48.77 192.19 57.98 195.33 61.48 192.79C64.68 190.46 63.4 180.6 64.83 176.05C65.45 173.51 67.22 169.53 71.21 175.74C83.03 194.67 97.78 217.39 104.09 239.66C107.53 252.13 104.29 271.61 92.82 284.7C93.23 273.54 89.07 266.03 84 256.7C77.73 244.43 54.46 211.21 41.08 198.27L41.08 198.27Z" /><path fill-rule="evenodd" class="shp0" d="M89.78 297.79C102.76 297.85 105 280.44 105 275.57C98.6 276.79 87.34 287.44 89.78 297.79Z" /></g><g ><path fill-rule="evenodd" class="shp0" d="M41.08 198.27C37.12 194.13 38.27 192.55 44.13 192.48C48.77 192.19 57.98 195.33 61.48 192.79C64.68 190.46 63.4 180.6 64.83 176.05C65.45 173.51 67.22 169.53 71.21 175.74C83.03 194.67 97.78 217.39 104.09 239.66C107.53 252.13 104.29 271.61 92.82 284.7C93.23 273.54 89.07 266.03 84 256.7C77.73 244.43 54.46 211.21 41.08 198.27L41.08 198.27Z" /><path fill-rule="evenodd" class="shp0" d="M89.78 297.79C102.76 297.85 105 280.44 105 275.57C98.6 276.79 87.34 287.44 89.78 297.79Z" /></g></g><g ><path fill-rule="evenodd" class="shp0" d="M201.99 466.77C211.23 468.87 211.1 446.63 201.67 437.2C205.82 451.49 194.73 464.55 201.99 466.77Z" /><path fill-rule="evenodd" class="shp0" d="M198.41 466.57C199.02 477.15 172.46 465.19 165.63 456.97C181.33 463.63 197.64 458.11 198.41 466.57Z" /><path fill-rule="evenodd" class="shp0" d="M186.77 451.48C187.72 461.72 163.74 452.72 156.65 444.72C172.4 449.8 185.72 443.05 186.77 451.48Z" /><path fill-rule="evenodd" class="shp0" d="M191.19 452.92C200.43 455.03 198.93 432.02 189.95 424.11C194.26 439.46 183.92 450.7 191.19 452.92Z" /><path fill-rule="evenodd" class="shp0" d="M181.45 438.92C190.69 441.03 185.39 421.21 178.54 413.3C179.65 427.75 175.1 437.77 181.45 438.92Z" /><path fill-rule="evenodd" class="shp0" d="M176.57 438.85C177.52 449.4 158.87 441.3 151.62 431.32C167.22 436.41 175.53 430.42 176.57 438.85Z" /><path fill-rule="evenodd" class="shp0" d="M171.49 430.85C177.54 426.5 171.12 414.99 159.6 415.7C160.73 422.65 164.71 434.88 171.49 430.85Z" /><path fill-rule="evenodd" class="shp0" d="M216.98 478.54C217.59 489.11 191.03 483.86 182.68 472.59C199.44 475.75 216.21 470.08 216.98 478.54Z" /></g><g ><path fill-rule="evenodd" class="shp9" d="M111.46 459.64C112.41 470.18 83.41 458.58 76.17 448.61C91.76 453.7 110.41 451.21 111.46 459.64Z" /><path fill-rule="evenodd" class="shp9" d="M129.24 464.14C135.29 459.79 122.93 448.59 113.09 445.95C114.22 452.9 122.46 468.17 129.24 464.14Z" /><path fill-rule="evenodd" class="shp9" d="M131.09 471.44C131.74 480.92 99.99 475.72 91.68 466.96C119 471.89 130.19 463.31 131.09 471.44Z" /><path fill-rule="evenodd" class="shp9" d="M145.95 477.77C149.47 486.57 119 484.42 108.3 479.3C125.59 479.15 143.52 471.63 145.95 477.77Z" /><path fill-rule="evenodd" class="shp9" d="M160.2 484.2C163.57 492.09 135.38 491.92 121.64 487.56C139.84 487.41 156.87 476.38 160.2 484.2Z" /><path fill-rule="evenodd" class="shp9" d="M180.7 488.44C185.69 497.78 155.95 498.69 146.31 494.09C163.5 491.72 176.44 481.08 180.7 488.44Z" /><path fill-rule="evenodd" class="shp9" d="M145.88 472.45C136.42 478.42 136.92 460.83 129.4 448.65C141.22 459.41 152.29 466.76 145.88 472.45Z" /><path fill-rule="evenodd" class="shp9" d="M162.65 478.77C154.72 485.8 148.37 461.66 141.15 448.12C152.83 461.02 169.97 472.93 162.65 478.77Z" /><path fill-rule="evenodd" class="shp9" d="M184.81 485.49C178.09 493.28 158.66 462.61 151.59 446.63C162.35 459.07 190.15 478.89 184.81 485.49Z" /></g><path fill-rule="evenodd" class="shp0" d="M165.91 508.92C162.56 520.76 113.11 497.75 107.59 485.83C135.88 500.83 166.58 497.69 165.91 508.92Z" /><g ><path fill-rule="evenodd" class="shp0" d="M7 268.27C5.84 266.77 2.52 268.3 3.35 271.92C4.12 276.81 11.33 301.93 23.73 310.57C32.57 316.94 79.05 327.21 100.12 331.57C111.72 333.9 121.43 339.69 129.04 348.92C125.89 336.85 123.36 327.9 119.3 316.96C115.35 307.35 104.88 296.83 94.04 296.27C73.91 295.54 47.85 293.83 28.91 285.61C19.14 281.53 13.28 276.01 7 268.27L7 268.27Z" /><path fill-rule="evenodd" class="shp0" d="M7 268.27C5.84 266.77 2.52 268.3 3.35 271.92C4.12 276.81 11.33 301.93 23.73 310.57C32.57 316.94 79.05 327.21 100.12 331.57C111.72 333.9 121.43 339.69 129.04 348.92C125.89 336.85 123.36 327.9 119.3 316.96C115.35 307.35 104.88 296.83 94.04 296.27C73.91 295.54 47.85 293.83 28.91 285.61C19.14 281.53 13.28 276.01 7 268.27L7 268.27Z" /></g><g ><path fill-rule="evenodd" class="shp9" d="M122.41 367.67C128.76 372.35 135.76 355.6 127.7 339.67C127.45 355 115.26 360.15 122.41 367.67Z" /><path fill-rule="evenodd" class="shp9" d="M128.5 383.04C137.28 385.74 140.03 370.2 134.24 357.78C135.21 371.13 120.44 379.17 128.5 383.04Z" /><path fill-rule="evenodd" class="shp9" d="M135.19 395.36C143.67 399.59 146.88 383.89 140.78 372.24C141.45 387.11 128.65 391.49 135.19 395.36Z" /><path fill-rule="evenodd" class="shp9" d="M131.7 396.32C128.34 406.37 108.85 387.66 105.57 377.49C117.66 389.51 134.12 388.18 131.7 396.32Z" /><path fill-rule="evenodd" class="shp9" d="M122.87 380.95C119.06 391 94.55 365.14 89.13 352.69C101.23 364.71 125.6 373.88 122.87 380.95Z" /><path fill-rule="evenodd" class="shp9" d="M118 365.89C114.19 377.3 87.55 346.88 80 336.1C92.71 347.96 120.88 357.59 118 365.89Z" /><path fill-rule="evenodd" class="shp9" d="M117.16 354.62C126.54 352.79 116.63 344.98 105.13 332.28C104.59 345.65 106.78 355 117.16 354.62Z" /><path fill-rule="evenodd" class="shp9" d="M101.33 347.01C105.38 342.59 97.45 340.72 87.63 329.69C86.18 337.13 96.74 350.74 101.33 347.01Z" /><path fill-rule="evenodd" class="shp9" d="M146.75 396.58C151.88 399.58 155.4 389.07 149 379.54C147.54 389.85 142.04 392.71 146.75 396.58Z" /></g><g ><path fill-rule="evenodd" class="shp9" d="M35.24 330.21C24.34 336.74 7.02 310.67 2.41 299.94C11.97 312.25 37.29 323.5 35.24 330.21Z" /><path fill-rule="evenodd" class="shp9" d="M44.52 345.42C38.49 352.11 19.5 333.95 12.91 324.74C23.08 333.56 47.18 334.6 44.52 345.42Z" /><path fill-rule="evenodd" class="shp9" d="M54.85 359.04C52.86 368.17 25.16 347.64 18.68 337.92C30.63 349.18 56.67 348.16 54.85 359.04Z" /><path fill-rule="evenodd" class="shp9" d="M50.59 368.93C46.32 377.15 23.79 356.78 18.38 346.15C32.14 358.16 54.08 360.79 50.59 368.93Z" /><path fill-rule="evenodd" class="shp9" d="M39.02 328.86C46.13 321.37 43.1 317.86 37.91 306.04C35.08 318.17 30.81 323.02 39.02 328.86Z" /><path fill-rule="evenodd" class="shp9" d="M48.45 343.02C61.34 343.59 48.57 327.9 45.52 314.72C46.65 329.74 42.22 341.58 48.45 343.02Z" /><path fill-rule="evenodd" class="shp9" d="M56.67 355.5C65.61 353.48 63.03 340.83 56.18 325.52C57.6 342.07 48.61 351.63 56.67 355.5Z" /><g ><path fill-rule="evenodd" class="shp9" d="M53.64 380.5C50.28 390.54 24.85 367.27 20.81 358.47C33.67 369.27 55.91 372.97 53.64 380.5Z" /><path fill-rule="evenodd" class="shp9" d="M68.85 396.17C65.04 406.22 38.4 385.84 30.25 374.75C46.3 387.38 70.82 386.21 68.85 396.17Z" /><path fill-rule="evenodd" class="shp9" d="M84.37 412C80.1 426 52.24 403.64 43.94 392.71C61.67 406.24 86.64 402.03 84.37 412Z" /><path fill-rule="evenodd" class="shp9" d="M58.19 376.04C65.76 379.96 68.81 358.49 64.55 343.33C64.6 359.87 49.37 372.17 58.19 376.04Z" /><path fill-rule="evenodd" class="shp9" d="M71.12 393.08C80.21 395.78 77.33 372.64 69.57 357.63C68.56 372.5 61.85 386.62 71.12 393.08Z" /><path fill-rule="evenodd" class="shp9" d="M87.25 409.06C97.41 409.63 90.42 389.22 82.05 377.71C83.47 392.74 78.74 407.32 87.25 409.06Z" /><path fill-rule="evenodd" class="shp9" d="M69.46 417.78C66.41 422.95 58.94 413.38 46.68 406.4C57.71 409.29 70.82 412.98 69.46 417.78Z" /></g></g><g ><path fill-rule="evenodd" class="shp9" d="M63.63 245.78C73.11 238.77 65.88 225.65 63.63 213.18C60.58 225.01 52.55 240.53 63.63 245.78Z" /><path fill-rule="evenodd" class="shp9" d="M63.31 263.28C49.07 261.57 51.22 243.16 50.79 231.49C55.07 247.33 66.74 250.01 63.31 263.28Z" /><path fill-rule="evenodd" class="shp9" d="M65.56 260.88C77.6 260.18 76.96 246.47 77.61 232.61C71.5 245.35 64.27 247.33 65.56 260.88Z" /><path fill-rule="evenodd" class="shp9" d="M65.08 277.9C55.71 278.65 50.84 269.44 48.7 255.09C57.58 268.32 65.67 264.19 65.08 277.9Z" /><path fill-rule="evenodd" class="shp9" d="M68.45 276.78C80.49 278.33 78.57 264.3 78.09 253.97C74.39 263.82 64.6 266.93 68.45 276.78Z" /><path fill-rule="evenodd" class="shp9" d="M49.66 270.83C50.62 279.99 56.41 295.73 65.72 292.19C69.57 280.95 57.53 278.7 49.66 270.83Z" /><path fill-rule="evenodd" class="shp9" d="M68.61 293.16C64.44 285.13 78.09 281.11 80.98 270.67C82.64 285.61 81.25 295.41 68.61 293.16Z" /></g><g ><path fill-rule="evenodd" class="shp9" d="M29.76 198.01C37.26 189.93 30.64 177.12 28.39 164.65C25.34 176.48 20.06 192.15 29.76 198.01Z" /><path fill-rule="evenodd" class="shp9" d="M29.53 213.04C16.36 214.38 13.17 187.59 11.83 176.07C16.11 191.92 31.28 199.16 29.53 213.04Z" /><path fill-rule="evenodd" class="shp9" d="M32.24 212.8C41.54 207.99 39.38 197.64 42.31 189.86C36.05 199.41 30.34 200.78 32.24 212.8Z" /><path fill-rule="evenodd" class="shp9" d="M29.65 230.32C15.87 231.5 7.66 201.82 7.24 190.15C11.52 206 31.26 214.61 29.65 230.32Z" /><path fill-rule="evenodd" class="shp9" d="M32.27 229.89C45.22 226.91 43.67 218.53 41.73 204.97C37.6 218.63 30.37 215.73 32.27 229.89Z" /><path fill-rule="evenodd" class="shp9" d="M29.47 247.46C14.32 250.03 15.38 226.06 3.35 208.68C13.76 221.59 32.49 237.86 29.47 247.46Z" /><path fill-rule="evenodd" class="shp9" d="M32.89 246.64C44.33 246.97 45.45 229.75 44.81 222.77C42.18 229.72 28.74 236.33 32.89 246.64L32.89 246.64Z" /><path fill-rule="evenodd" class="shp9" d="M5.8 228.98C11.48 247.42 19.55 265.9 29.47 264.5C34.23 254.01 20.06 252.68 5.8 228.98Z" /><path fill-rule="evenodd" class="shp9" d="M33.06 261.81C28.88 253.78 42.53 249.76 45.42 239.33C47.08 254.26 45.69 264.06 33.06 261.81Z" /><path fill-rule="evenodd" class="shp9" d="M9.71 250.05C17.82 266.66 21.48 285.75 32.62 282.98C36.77 270.06 20.32 267.36 9.71 250.05Z" /><path fill-rule="evenodd" class="shp9" d="M34.93 279.84C30.14 271.05 43.79 267.94 47.14 255.83C48.95 271.68 47.25 283 34.93 279.84Z" /></g><path fill-rule="evenodd" class="shp0" d="M58.28 167.4C66.27 169.57 74.66 160.59 71.75 147.16C62.61 149.43 58.42 157.73 58.28 167.4Z" /><path fill-rule="evenodd" class="shp0" d="M32.7 160.68C33.4 164.46 38 164.8 36.66 159.47C35.55 155.14 35.36 151.88 36.66 148.36C38.45 143.94 37.85 136.43 36.51 133.29C35.15 129.98 30.66 131.92 32.55 134.51C34.63 137.52 34.74 143.76 33.31 146.68C31.43 150.99 31.94 156.71 32.7 160.68L32.7 160.68Z" /><path fill-rule="evenodd" class="shp0" d="M58.28 167.4C66.27 169.57 74.66 160.59 71.75 147.16C62.61 149.43 58.42 157.73 58.28 167.4Z" /><path fill-rule="evenodd" class="shp0" d="M32.7 160.68C33.4 164.46 38 164.8 36.66 159.47C35.55 155.14 35.36 151.88 36.66 148.36C38.45 143.94 37.85 136.43 36.51 133.29C35.15 129.98 30.66 131.92 32.55 134.51C34.63 137.52 34.74 143.76 33.31 146.68C31.43 150.99 31.94 156.71 32.7 160.68L32.7 160.68Z" /><path fill-rule="evenodd" class="shp0" d="M60.33 146.32C59.58 152.22 54.58 152.75 56.03 144.42C57.24 137.65 57.45 132.57 56.03 127.07C54.09 120.17 54.74 108.44 56.2 103.54C57.67 98.37 62.55 101.4 60.5 105.44C58.24 110.13 58.12 119.89 59.67 124.45C61.72 131.18 61.16 140.11 60.33 146.32L60.33 146.32Z" /><path fill-rule="evenodd" class="shp0" d="M97.56 205.29C94.47 209.83 89.55 207.2 92.34 199.9C94.69 194.85 94.94 188.6 97.57 184.9C101.24 179.31 107.45 174.64 110.98 171.26C114.62 167.65 117.65 171.12 114.31 174.21C110.25 178.27 105.85 183.33 103.4 187.16C98.84 194.59 100.84 200.53 97.56 205.29L97.56 205.29Z" /><g ><path fill-rule="evenodd" class="shp10" d="M107.29 212.59C104.2 217.14 97.89 214.36 102.7 208.12C106.63 203.07 112.25 198.94 112.66 193.73C112.99 187.11 116.87 177.07 120.4 173.69C124.04 170.08 128.25 175.16 124.36 177.56C119.98 180.4 117.13 192.09 117.23 196.59C117.08 203.12 110.57 207.83 107.29 212.59L107.29 212.59Z" /><path fill-rule="evenodd" class="shp10" d="M107.29 212.59C104.2 217.14 97.89 214.36 102.7 208.12C106.63 203.07 112.25 198.94 112.66 193.73C112.99 187.11 116.87 177.07 120.4 173.69C124.04 170.08 128.25 175.16 124.36 177.56C119.98 180.4 117.13 192.09 117.23 196.59C117.08 203.12 110.57 207.83 107.29 212.59L107.29 212.59Z" /></g><path fill-rule="evenodd" class="shp0" d="M97.56 205.29C94.47 209.83 89.55 207.2 92.34 199.9C94.69 194.85 94.94 188.6 97.57 184.9C101.24 179.31 107.45 174.64 110.98 171.26C114.62 167.65 117.65 171.12 114.31 174.21C110.25 178.27 105.85 183.33 103.4 187.16C98.84 194.59 100.84 200.53 97.56 205.29L97.56 205.29Z" /><g ><path fill-rule="evenodd" class="shp11" d="M46.25 181.78C45.88 188.19 51.04 189.74 50.81 180.44C50.58 170.73 43.71 161.85 47.92 147.07C50.14 139.84 50.18 126.59 48.83 119.54C47.65 112.56 42.68 117.12 44.57 122.56C46.65 128.87 44.18 140.97 42.59 147.05C37.82 164.77 46.53 173.4 46.25 181.78Z" /><path fill-rule="evenodd" class="shp11" d="M46.25 181.78C45.88 188.19 51.04 189.74 50.81 180.44C50.58 170.73 43.71 161.85 47.92 147.07C50.14 139.84 50.18 126.59 48.83 119.54C47.65 112.56 42.68 117.12 44.57 122.56C46.65 128.87 44.18 140.97 42.59 147.05C37.82 164.77 46.53 173.4 46.25 181.78Z" /></g><path fill-rule="evenodd" class="shp0" d="M60.33 146.32C59.58 152.22 54.58 152.75 56.03 144.42C57.24 137.65 57.45 132.57 56.03 127.07C54.09 120.17 54.74 108.44 56.2 103.54C57.67 98.37 62.55 101.4 60.5 105.44C58.24 110.13 58.12 119.89 59.67 124.45C61.72 131.18 61.16 140.11 60.33 146.32L60.33 146.32Z" /><path fill-rule="evenodd" class="shp0" d="M9.57 267C12.05 269.95 16.21 267.97 12.42 263.99C9.31 260.78 10.33 259.76 8.44 255.84C6.56 251.46 6.66 249.05 4.4 245.92C2.4 242.95 -0.6 245.98 1.41 248.48C3.94 251.43 3.24 253.61 4.79 256.47C7.65 261.36 6.95 263.93 9.57 267L9.57 267Z" /><path fill-rule="evenodd" class="shp0" d="M76.1 347.27C84.06 351.18 90.09 360.95 90.49 368.91C91.16 378.07 92.49 385.8 96.6 392.31C90.05 390.49 86.91 380.05 85.98 370.06C85.04 359.71 79.47 355.22 76.1 347.27L76.1 347.27Z" /><path fill-rule="evenodd" class="shp0" d="M92.67 366.43C98.18 376.59 105.87 380.46 106.27 388C106.93 396.68 107.59 397.12 109.94 405.66C103.46 403.93 101.83 403.36 100.08 390.38C99 381.26 91.7 374.82 92.67 366.43L92.67 366.43Z" /><path fill-rule="evenodd" class="shp12" d="M217.76 465.77C233.3 472.35 270.72 484.94 297.94 484.71C327.19 484.13 357.08 476.32 380.63 465.59C388.33 462.39 390.78 463.96 394.48 467.87C408.13 482.62 423.97 495.17 438.2 507.65C449.22 517.68 437.72 529.97 401.67 534.62C398.48 535.07 396.06 536.58 399.1 542.77C400.31 545.56 400.26 547.19 402.69 550.71C404.59 553.28 401.96 555.34 398.63 552.8C390.52 547.01 370.65 547.01 357.6 553.07C351 555.99 341.37 555.28 338.87 552.63C335.25 548.62 334.84 538.45 328.06 539.33C316.43 540.74 278.68 540.32 271.04 539C268.1 539.17 263.28 543.87 263.21 550.51C263.28 556.61 255.19 556.96 250.76 555.73C232.05 549.65 212.63 543 200.66 553.39C197.85 556.04 193.9 552.14 197.47 549.13C200.89 546.06 199.67 544.84 201.36 541.65C202.11 540.05 202.12 534.06 198.1 534.18C188.28 533.81 172.78 528.06 172 527.77C150.74 520 155.83 512.23 160.82 507.9C174.18 497.42 190.73 483.95 204.84 470.13C209.04 465.71 213.73 464.03 217.76 465.77ZM205.56 536.34C205.56 536.34 205.56 536.34 205.56 536.34C205.56 536.34 205.56 536.34 205.56 536.34L205.56 536.34ZM203.99 546.47C218.44 540.49 233.95 545.46 248.55 551.34C258.58 555.49 259.39 548.31 257.62 545.82C254.57 541.41 248.68 536.57 241.22 536.47C236.26 536.4 217.15 536.23 205.56 536.34C205.75 539.97 205.33 543.3 203.99 546.47ZM345.14 541.41C338.43 546.97 345.35 552.82 351.08 550.09C363.91 544.11 382.68 541.26 395.97 546.59C393.69 543.49 393.23 540.4 393.08 536.55C376.79 538.06 354.69 533.67 345.14 541.41Z" /><path fill-rule="evenodd" class="shp0" d="M217.76 465.77C233.3 472.35 270.72 484.94 297.94 484.71C327.19 484.13 357.08 476.32 380.63 465.59C388.33 462.39 390.78 463.96 394.48 467.87C408.13 482.62 423.97 495.17 438.2 507.65C449.22 517.68 437.72 529.97 401.67 534.62C398.48 535.07 396.06 536.58 399.1 542.77C400.31 545.56 400.26 547.19 402.69 550.71C404.59 553.28 401.96 555.34 398.63 552.8C390.52 547.01 370.65 547.01 357.6 553.07C351 555.99 341.37 555.28 338.87 552.63C335.25 548.62 334.84 538.45 328.06 539.33C316.43 540.74 278.68 540.32 271.04 539C268.1 539.17 263.28 543.87 263.21 550.51C263.28 556.61 255.19 556.96 250.76 555.73C232.05 549.65 212.63 543 200.66 553.39C197.85 556.04 193.9 552.14 197.47 549.13C200.89 546.06 199.67 544.84 201.36 541.65C202.11 540.05 202.12 534.06 198.1 534.18C188.28 533.81 172.78 528.06 172 527.77C150.74 520 155.83 512.23 160.82 507.9C174.18 497.42 190.73 483.95 204.84 470.13C209.04 465.71 213.73 464.03 217.76 465.77ZM205.56 536.34C205.56 536.34 205.56 536.34 205.56 536.34C205.56 536.34 205.56 536.34 205.56 536.34L205.56 536.34ZM203.99 546.47C218.44 540.49 233.95 545.46 248.55 551.34C258.58 555.49 259.39 548.31 257.62 545.82C254.57 541.41 248.68 536.57 241.22 536.47C236.26 536.4 217.15 536.23 205.56 536.34C205.75 539.97 205.33 543.3 203.99 546.47ZM345.14 541.41C338.43 546.97 345.35 552.82 351.08 550.09C363.91 544.11 382.68 541.26 395.97 546.59C393.69 543.49 393.23 540.4 393.08 536.55C376.79 538.06 354.69 533.67 345.14 541.41Z" /><g ><path fill-rule="evenodd" class="shp0" d="M467.29 397.16C468.92 402.78 491.4 392.51 502.83 370.03C487.87 386.35 463.65 386.19 467.29 397.16Z" /><path fill-rule="evenodd" class="shp0" d="M467.29 397.16C468.92 402.78 491.4 392.51 502.83 370.03C487.87 386.35 463.65 386.19 467.29 397.16Z" /></g><g ><path fill-rule="evenodd" class="shp13" d="M504.75 362.99C497.9 372.51 488.76 379.39 488.35 386.94C487.65 395.61 486.96 396.06 484.5 404.59C491.29 402.86 493 402.3 494.83 389.31C495.96 380.19 505.76 371.39 504.75 362.99L504.75 362.99Z" /><path fill-rule="evenodd" class="shp13" d="M504.75 362.99C497.9 372.51 488.76 379.39 488.35 386.94C487.65 395.61 486.96 396.06 484.5 404.59C491.29 402.86 493 402.3 494.83 389.31C495.96 380.19 505.76 371.39 504.75 362.99L504.75 362.99Z" /></g><g ><path fill-rule="evenodd" class="shp10" d="M515.87 349.86C507.53 353.77 505.64 360.25 505.31 368.27C505.15 377.56 502.79 384.74 498.48 391.25C507.06 392.43 508.63 378.99 509.6 368.99C510.59 358.64 512.34 357.81 515.87 349.86Z" /><path fill-rule="evenodd" class="shp10" d="M515.87 349.86C507.53 353.77 505.64 360.25 505.31 368.27C505.15 377.56 502.79 384.74 498.48 391.25C507.06 392.43 508.63 378.99 509.6 368.99C510.59 358.64 512.34 357.81 515.87 349.86Z" /></g><g ><path fill-rule="evenodd" class="shp14" d="M539.14 145.89C539.89 151.79 544.81 152.33 543.38 143.99C542.19 137.23 541.98 132.14 543.38 126.64C545.29 119.75 544.65 108.01 543.21 103.11C541.76 97.94 536.96 100.97 538.98 105.02C541.21 109.71 541.32 119.47 539.79 124.02C537.78 130.75 538.33 139.68 539.14 145.89L539.14 145.89Z" /><path fill-rule="evenodd" class="shp14" d="M539.14 145.89C539.89 151.79 544.81 152.33 543.38 143.99C542.19 137.23 541.98 132.14 543.38 126.64C545.29 119.75 544.65 108.01 543.21 103.11C541.76 97.94 536.96 100.97 538.98 105.02C541.21 109.71 541.32 119.47 539.79 124.02C537.78 130.75 538.33 139.68 539.14 145.89L539.14 145.89Z" /></g><g ><path fill-rule="evenodd" class="shp15" d="M553.01 181.35C553.37 187.76 548.29 189.32 548.51 180.02C548.74 170.31 555.51 161.42 551.36 146.64C549.18 139.41 549.14 126.16 550.46 119.12C551.62 112.13 556.52 116.69 554.66 122.13C552.61 128.44 555.04 140.54 556.6 146.62C561.3 164.34 552.73 172.97 553.01 181.35Z" /><path fill-rule="evenodd" class="shp15" d="M553.01 181.35C553.37 187.76 548.29 189.32 548.51 180.02C548.74 170.31 555.51 161.42 551.36 146.64C549.18 139.41 549.14 126.16 550.46 119.12C551.62 112.13 556.52 116.69 554.66 122.13C552.61 128.44 555.04 140.54 556.6 146.62C561.3 164.34 552.73 172.97 553.01 181.35Z" /></g><g ><path fill-rule="evenodd" class="shp0" d="M566.34 160.25C565.65 164.03 561.13 164.37 562.44 159.04C563.54 154.71 563.73 151.45 562.44 147.93C560.68 143.51 561.27 136 562.59 132.86C563.93 129.55 568.35 131.49 566.49 134.08C564.44 137.09 564.33 143.33 565.74 146.25C567.59 150.56 567.09 156.28 566.34 160.25L566.34 160.25Z" /><path fill-rule="evenodd" class="shp0" d="M566.34 160.25C565.65 164.03 561.13 164.37 562.44 159.04C563.54 154.71 563.73 151.45 562.44 147.93C560.68 143.51 561.27 136 562.59 132.86C563.93 129.55 568.35 131.49 566.49 134.08C564.44 137.09 564.33 143.33 565.74 146.25C567.59 150.56 567.09 156.28 566.34 160.25L566.34 160.25Z" /></g><g ><path fill-rule="evenodd" class="shp0" d="M538.63 167.64C531.98 170.46 523.38 151.56 529.74 148.01C534.66 146.77 545.94 164.04 538.63 167.64Z" /><path fill-rule="evenodd" class="shp0" d="M538.63 167.64C531.98 170.46 523.38 151.56 529.74 148.01C534.66 146.77 545.94 164.04 538.63 167.64Z" /></g><g ><path fill-rule="evenodd" class="shp10" d="M501.32 205.05C504.3 209.59 509.05 206.96 506.36 199.66C504.09 194.61 503.85 188.36 501.32 184.66C497.78 179.07 491.78 174.4 488.38 171.02C484.86 167.41 481.94 170.89 485.16 173.98C489.08 178.04 493.33 183.09 495.69 186.92C500.09 194.36 498.15 200.29 501.32 205.05L501.32 205.05Z" /><path fill-rule="evenodd" class="shp10" d="M501.32 205.05C504.3 209.59 509.05 206.96 506.36 199.66C504.09 194.61 503.85 188.36 501.32 184.66C497.78 179.07 491.78 174.4 488.38 171.02C484.86 167.41 481.94 170.89 485.16 173.98C489.08 178.04 493.33 183.09 495.69 186.92C500.09 194.36 498.15 200.29 501.32 205.05L501.32 205.05Z" /></g><g ><path fill-rule="evenodd" class="shp10" d="M493.11 209.92C496.09 214.46 502.17 211.69 497.54 205.45C493.74 200.4 488.32 196.27 487.92 191.05C487.61 184.44 483.86 174.4 480.46 171.02C476.94 167.41 472.88 172.48 476.64 174.89C480.86 177.73 483.61 189.42 483.52 193.92C483.66 200.44 489.94 205.16 493.11 209.92L493.11 209.92Z" /><path fill-rule="evenodd" class="shp10" d="M493.11 209.92C496.09 214.46 502.17 211.69 497.54 205.45C493.74 200.4 488.32 196.27 487.92 191.05C487.61 184.44 483.86 174.4 480.46 171.02C476.94 167.41 472.88 172.48 476.64 174.89C480.86 177.73 483.61 189.42 483.52 193.92C483.66 200.44 489.94 205.16 493.11 209.92L493.11 209.92Z" /></g><path fill-rule="evenodd" class="shp1" d="M231.61 421.05C240.64 428.25 249.15 436.43 251.7 446.61C254.35 456.09 255.96 463.35 262.05 472.79C252.51 466.7 248.72 457.5 245.92 447.52C243.45 437.71 237.8 430.38 231.61 421.05L231.61 421.05Z" /><path fill-rule="evenodd" class="shp0" d="M231.61 421.05C240.64 428.25 249.15 436.43 251.7 446.61C254.35 456.09 255.96 463.35 262.05 472.79C252.51 466.7 248.72 457.5 245.92 447.52C243.45 437.71 237.8 430.38 231.61 421.05L231.61 421.05Z" /><path fill-rule="evenodd" class="shp0" d="M221.26 421.05C229.68 427.95 235.15 435.82 237.7 446C240.35 455.48 244.09 463.04 249.57 471.57C240.64 465.48 235.03 457.2 232.22 447.22C229.75 437.41 226.84 430.08 221.26 421.05L221.26 421.05Z" /><path fill-rule="evenodd" class="shp0" d="M378.91 421.05C370.31 427.99 364.72 435.91 362.11 446.15C359.4 455.69 355.58 463.29 349.98 471.87C359.1 465.74 364.84 457.41 367.71 447.37C370.23 437.5 373.21 430.13 378.91 421.05L378.91 421.05Z" /><path fill-rule="evenodd" class="shp0" d="M368.34 421.05C359.11 428.29 350.41 436.52 347.8 446.76C345.09 456.3 343.45 463.6 337.22 473.09C346.97 466.97 350.84 457.71 353.71 447.68C356.23 437.81 362.01 430.44 368.34 421.05Z" /><path fill-rule="evenodd" class="shp0" d="M337.77 445.09C338.01 443.31 336.8 441.75 335.34 441.28C332.5 440.22 329.68 439.35 326.86 438.55C323.66 437.79 321.87 440.08 321.86 441.59C321.84 444.1 321.73 446.23 321.86 448.13C322.04 450.5 322.49 450.67 323.98 451.02C326.38 451.43 329.45 451.84 331.86 453.46C333.76 454.63 335.6 453.7 336.55 451.64C337.17 450.05 337.51 446.96 337.77 445.09L337.77 445.09Z" /><path fill-rule="evenodd" class="shp3" d="M303.29 445.09C303.07 443.31 304.01 441.6 305.31 441.13C307.84 440.07 310.37 439.81 313.03 439.91C315.99 439.87 316.74 440.54 316.75 442.05C316.76 444.55 316.86 446.99 316.75 448.89C316.59 451.26 316.64 451.43 315.31 451.78C313.16 452.19 309.51 452.3 307.36 453.92C305.66 455.09 303.72 454.16 303.62 451.94C303.66 450.27 303.52 446.96 303.29 445.09Z" /><path fill-rule="evenodd" class="shp0" d="M261.44 444.63C261.19 442.85 262.41 441.3 263.87 440.83C266.72 439.76 269.56 438.89 272.39 438.09C275.61 437.33 277.41 439.62 277.42 441.13C277.43 443.64 277.55 445.77 277.42 447.67C277.24 450.04 276.79 450.22 275.29 450.57C272.88 450.97 269.79 451.39 267.38 453C265.46 454.18 263.62 453.25 262.66 451.18C262.04 449.6 261.7 446.5 261.44 444.63Z" /><path fill-rule="evenodd" class="shp0" d="M296.07 444.63C296.3 442.85 295.36 441.15 294.05 440.68C291.5 439.61 288.96 439.35 286.29 439.46C283.32 439.41 282.57 440.08 282.56 441.59C282.54 444.1 282.44 446.53 282.56 448.43C282.71 450.8 282.66 450.98 284 451.33C286.16 451.73 289.82 451.84 291.98 453.46C293.7 454.64 295.65 453.7 295.74 451.48C295.7 449.81 295.84 446.51 296.07 444.63L296.07 444.63Z" /><path fill-rule="evenodd" class="shp0" d="M337.77 445.09C338.01 443.31 336.8 441.75 335.34 441.28C332.5 440.22 329.68 439.35 326.86 438.55C323.66 437.79 321.87 440.08 321.86 441.59C321.84 444.1 321.73 446.23 321.86 448.13C322.04 450.5 322.49 450.67 323.98 451.02C326.38 451.43 329.45 451.84 331.86 453.46C333.76 454.63 335.6 453.7 336.55 451.64C337.17 450.05 337.51 446.96 337.77 445.09L337.77 445.09Z" /><path fill-rule="evenodd" class="shp0" d="M303.29 445.09C303.07 443.31 304.01 441.6 305.31 441.13C307.84 440.07 310.37 439.81 313.03 439.91C315.99 439.87 316.74 440.54 316.75 442.05C316.76 444.55 316.86 446.99 316.75 448.89C316.59 451.26 316.64 451.43 315.31 451.78C313.16 452.19 309.51 452.3 307.36 453.92C305.66 455.09 303.72 454.16 303.62 451.94C303.66 450.27 303.52 446.96 303.29 445.09Z" /><path fill-rule="evenodd" class="shp0" d="M261.44 444.63C261.19 442.85 262.41 441.3 263.87 440.83C266.72 439.76 269.56 438.89 272.39 438.09C275.61 437.33 277.41 439.62 277.42 441.13C277.43 443.64 277.55 445.77 277.42 447.67C277.24 450.04 276.79 450.22 275.29 450.57C272.88 450.97 269.79 451.39 267.38 453C265.46 454.18 263.62 453.25 262.66 451.18C262.04 449.6 261.7 446.5 261.44 444.63Z" /><path fill-rule="evenodd" class="shp0" d="M296.07 444.63C296.3 442.85 295.36 441.15 294.05 440.68C291.5 439.61 288.96 439.35 286.29 439.46C283.32 439.41 282.57 440.08 282.56 441.59C282.54 444.1 282.44 446.53 282.56 448.43C282.71 450.8 282.66 450.98 284 451.33C286.16 451.73 289.82 451.84 291.98 453.46C293.7 454.64 295.65 453.7 295.74 451.48C295.7 449.81 295.84 446.51 296.07 444.63L296.07 444.63Z" /><path fill-rule="evenodd" class="shp0" d="M264.03 460.46C267.12 466.29 270.67 475.17 277.11 473.54C277.21 469.08 270.16 465.99 264.03 460.46Z" /><path fill-rule="evenodd" class="shp0" d="M273.61 462.43C286.12 467.56 296.92 466.29 298.26 474.15C286.53 475.42 282.24 470.6 273.61 462.43Z" /><path fill-rule="evenodd" class="shp0" d="M334.94 461.22C331.8 466.72 328.2 475.09 321.68 473.55C321.57 469.35 328.72 466.43 334.94 461.22Z" /><path fill-rule="evenodd" class="shp0" d="M326.17 462.89C313.48 467.75 302.52 466.55 301.16 474.01C313.06 475.21 317.41 470.64 326.17 462.89Z" /><path fill-rule="evenodd" class="shp16" d="M363.6 338.24L390.84 338.24C390.94 348.54 396.98 359.6 405.45 365.94L353.25 365.94C361.42 358.53 363.65 349.76 363.6 338.24L363.6 338.24Z" /><path fill-rule="evenodd" class="shp0" d="M363.6 338.24L390.84 338.24C390.94 348.54 396.98 359.6 405.45 365.94L353.25 365.94C361.42 358.53 363.65 349.76 363.6 338.24L363.6 338.24Z" /><path fill-rule="evenodd" class="shp7" d="M386.82 467.69C388.71 467.5 390.62 467.76 391.71 469.32C401.4 483.01 416.15 491.99 429.92 503.25L430.03 503.25C431.14 504.19 431.75 505.07 432.06 506C432.37 506.94 432.27 507.89 431.86 508.65C431.05 510.18 429.29 511.16 427.58 511.81C403.31 519.91 376.21 537.58 299.8 538.31C224.1 539.02 197.66 520.91 170.58 511.2L170.48 511.2C167.11 509.81 166.77 505.76 168.85 504.17C182.64 493.75 195.5 482.26 207.37 470.44C208.45 469.39 210.09 468.62 211.75 468.2C213.41 467.77 215.09 467.68 216.54 468.3C242.11 478.81 270.58 486.29 297.76 486.34C325.6 486.39 352.33 479.23 381.42 469.01C382.92 468.46 384.93 467.88 386.82 467.69L386.82 467.69ZM386.92 469.11C385.27 469.28 383.38 469.91 381.93 470.44C352.77 480.68 325.76 487.91 297.66 487.86C270.2 487.81 241.72 480.18 216.03 469.62C215.03 469.2 213.5 469.26 212.06 469.62C210.62 469.99 209.31 470.66 208.49 471.46C196.6 483.31 183.6 494.83 169.77 505.29C168.85 505.99 168.63 508.76 171.09 509.77C198.4 519.59 224.42 537.59 299.8 536.88C375.98 536.16 402.5 518.59 427.07 510.38C428.61 509.8 430.05 508.86 430.54 507.94C430.78 507.48 430.83 507.09 430.64 506.51C430.45 505.94 429.99 505.2 429.01 504.37C415.34 493.2 400.41 484.16 390.49 470.13C389.84 469.2 388.58 468.95 386.92 469.11L386.92 469.11Z" /><path fill-rule="evenodd" class="shp0" d="M586.91 263.4C586.7 264.56 589.82 266.27 590.57 265.38C593.93 261.35 598.34 253.43 599.24 248.64C599.51 247.25 595.02 245.67 594.07 246.82C590.91 250.59 587.86 258.37 586.91 263.4L586.91 263.4Z" /><path class="shp7" d="M273.34 422.32C273.34 424.26 273.05 427.05 272.47 430.7L271.12 430.7C271.12 428.21 271 426.3 270.77 424.96C270.55 423.62 270.11 422.03 269.46 420.19C268.92 418.63 268.33 417.31 267.69 416.22C267.05 415.11 266.03 413.64 264.62 411.81L267.32 405.14C268.57 406.74 269.46 407.97 269.98 408.82C270.58 409.81 271.14 411.06 271.66 412.55C272.2 414.05 272.61 415.62 272.91 417.26C273.2 418.91 273.34 420.59 273.34 422.32" /><path class="shp7" d="M294.53 409.43C294.53 411.47 294.15 413 293.38 414.01C292.61 415.03 291.29 415.76 289.43 416.19C289.97 418.08 290.33 419.56 290.5 420.62C290.69 421.68 290.78 422.87 290.78 424.18C290.78 425.02 290.73 425.92 290.63 426.88C290.54 427.84 290.38 429.13 290.13 430.76L288.91 430.76C288.91 429.31 288.83 428.06 288.67 427.01C288.52 425.95 288.3 424.95 287.99 424.02C287.92 423.79 287.53 422.77 286.84 420.95C286.15 419.12 285.47 417.6 284.79 416.39C284.12 415.17 283.02 413.49 281.49 411.35L283.59 405.07C284.69 406.66 285.66 407.76 286.49 408.37C287.32 408.96 288.3 409.26 289.43 409.26C291.9 409.26 293.14 407.92 293.14 405.25L294.4 405.25C294.4 406.12 294.43 406.85 294.47 407.43C294.51 408 294.53 408.66 294.53 409.43" /><path class="shp7" d="M334.59 422.54L333.8 430.48C332.24 429.39 330.81 427.42 329.48 424.57C328.1 421.59 326.71 417.37 325.3 411.9C324.09 417.16 323.09 421.02 322.31 423.48C321.54 425.92 320.77 427.65 320.02 428.67C319.51 429.35 318.7 430.04 317.58 430.74L317.75 423.15C319.19 421.19 320.2 419.69 320.78 418.66C321.64 417.13 322.34 415.35 322.9 413.32C323.46 411.27 323.97 408.53 324.42 405.1L325.86 405.1C326.75 408.54 327.61 411.28 328.44 413.32C329.21 415.24 330.11 416.93 331.14 418.4C331.87 419.43 333.02 420.81 334.59 422.54" /><path fill-rule="evenodd" class="shp7" d="M394.5 497.4C395.56 498.64 396.31 499.86 396.74 501.06C397.15 502.24 397.45 503.93 397.64 506.12L395.28 506.31C394.27 504.34 393.29 502.8 392.33 501.68C391.61 500.83 390.44 499.62 388.82 498.05C387.2 496.48 385.54 494.95 383.85 493.46C382.14 491.96 379.97 490.22 377.34 488.25C376.41 487.56 375.82 487.07 375.57 486.78C375.2 486.34 374.91 485.49 374.7 484.22C374.47 482.93 374.33 481.33 374.27 479.42L382.53 486.14C385.65 488.7 388.23 490.97 390.27 492.93C391.84 494.45 393.25 495.94 394.5 497.4M365.21 479.75L364.72 485.83L354.99 485.56L355.73 479.37L365.21 479.75ZM363.36 508.1L383.39 502C382.48 500.74 381.78 499.87 381.28 499.37C380.51 498.6 379.62 497.99 378.63 497.56C378.56 498.67 378.1 499.65 377.25 500.49C376.39 501.33 375.28 501.96 373.92 502.37C372.14 502.92 370.36 502.99 368.59 502.6C366.81 502.21 365.5 501.43 364.66 500.28C363.43 498.57 362.77 496.31 362.68 493.48C362.58 490.37 363.43 488.55 365.23 488C367.57 487.28 370.73 487.94 374.71 489.95C378.69 491.96 381.75 494.44 383.88 497.38L390.79 506.94L370.87 513.01L371.02 513.29L371.02 513.29L365.87 514.47C364.04 514.89 362.3 515.02 360.65 514.86C358.99 514.7 357.45 514.18 356.01 513.31C355.16 514.86 353.66 516.16 351.52 517.21C350.1 517.9 348.45 518.47 346.57 518.9L346.39 518.94L346.42 519.01L345.33 519.18L342.92 519.74L342.84 519.58L341.4 519.8C338.61 520.24 336.31 519.81 334.51 518.52C332.51 517.09 330.79 514.43 329.34 510.54L326.87 503.91C326.31 502.41 325.55 501.29 324.59 500.55C324.27 500.3 323.7 499.99 322.9 499.62L321.73 501.68L312.56 499.56L315.83 493.81L322.77 495.45L323.5 492.72C325.34 493.74 326.77 494.82 327.77 495.94C328.94 497.25 329.93 499 330.75 501.18L332.45 505.77C333.66 509.01 334.83 511.2 335.97 512.36C336.87 513.28 337.9 513.65 339.04 513.47L342.47 512.94L343.23 512.76C345.15 512.32 346.47 511.95 347.17 511.66C347.88 511.34 348.77 510.8 349.85 510.05C348.67 509.32 347.72 508.82 347 508.55C346.12 508.22 345.34 508.14 344.67 508.29C344.41 508.35 344.2 508.47 344.04 508.64C343.89 508.8 343.76 509.06 343.65 509.44L342.05 509.66C340.56 506.94 340.22 504.83 341.03 503.34C341.85 501.83 343.83 500.72 346.96 500C350.18 499.26 352.93 499.1 355.21 499.5C357.51 499.89 359.05 500.8 359.83 502.23C360.25 503 360.4 503.79 360.3 504.61C360.19 505.41 359.79 506.57 359.1 508.08C359.58 508.29 360.15 508.42 360.79 508.45C361.44 508.49 362.02 508.45 362.53 508.33L363.39 508.14L363.36 508.1ZM373 494.57C371.91 494.07 371.03 493.76 370.38 493.65C369.73 493.51 369.15 493.52 368.61 493.68C367.94 493.89 367.48 494.26 367.23 494.82C366.98 495.37 367.04 495.91 367.42 496.42C367.66 496.76 368.06 496.98 368.63 497.09C369.21 497.17 369.82 497.12 370.47 496.92C370.98 496.77 371.42 496.52 371.8 496.17C372.19 495.81 372.59 495.27 373 494.57L373 494.57ZM346.76 495.83L337.12 494.95L338.59 488.88L348.18 489.82L346.76 495.83ZM306.05 517.43L308.15 517.24C308.03 516.85 307.82 516.41 307.51 515.91C306.97 515.03 306.7 514.44 306.73 514.14C306.76 513.72 306.87 513.41 307.06 513.19C307.12 513.11 307.41 512.87 307.93 512.47L311.28 509.83C311.86 510.86 312.26 511.79 312.46 512.62C312.69 513.45 312.76 514.47 312.66 515.7L312.57 516.84L325.27 515.69C324.77 514.64 324.09 513.78 323.22 513.1C322.77 512.72 321.76 512.08 320.2 511.2L321.91 505.29C324.03 506.47 325.57 507.76 326.55 509.17C327.54 510.58 328.35 512.73 328.98 515.62L330.31 521.81L312.05 523.46L311.95 524.73C309.2 524.64 306.92 524.44 305.13 524.12C303.33 523.81 301.57 523.34 299.85 522.72C298.37 523.33 297.06 523.72 295.91 523.89C294.79 524.06 293.11 524.11 290.88 524.03L284.88 523.83C283.23 523.78 281.95 523.46 281.04 522.87C280.12 522.28 279.34 521.32 278.68 520.01C277.22 521.3 275.64 522.21 273.92 522.73C272.46 523.17 270.73 523.36 268.74 523.3L263.48 523.12L263.55 522.17L249.4 519.85L249.31 520L247.15 519.48L245.77 519.25L245.81 519.15L244.47 518.83C241.77 518.18 240.23 517 239.85 515.27C239.42 513.37 240.28 510.53 242.43 506.78L246.08 500.39C246.91 498.93 247.24 497.73 247.08 496.77C247.01 496.31 246.63 495.58 245.97 494.59L252.91 489.88C253.56 491.4 253.82 492.8 253.69 494.1C253.53 495.61 252.85 497.42 251.64 499.53L249.12 503.95C247.33 507.08 246.42 509.32 246.37 510.69C246.32 511.78 246.85 512.46 247.96 512.73L250.13 513.25L267.03 516.02C267.18 514.93 267.05 513.96 266.64 513.12C266.44 512.66 265.88 511.83 264.95 510.62L269.96 505.57C271.24 507.18 271.92 508.75 272 510.3C272.11 511.83 271.62 514 270.54 516.8C272.57 516.73 274.32 516.33 275.81 515.6C278.14 514.45 279.41 512.62 279.61 510.12L282.02 510.44C281.93 510.95 281.83 511.53 281.73 512.18C281.63 512.83 281.55 513.55 281.49 514.35C281.42 515.16 281.8 515.85 282.62 516.42C283.43 517 284.39 517.3 285.5 517.34L290.03 517.49C293.03 517.59 295.18 517.39 296.5 516.89C298.1 516.28 298.97 515.09 299.11 513.31C299.14 512.92 299.35 512.59 299.75 512.3C299.98 512.13 300.46 511.88 301.17 511.55L302.63 510.88C302.65 511.19 302.66 511.6 302.64 512.13C302.62 512.64 302.61 512.98 302.6 513.14C302.53 514.01 302.24 515.17 301.73 516.61C302.62 516.92 303.62 517.2 304.73 517.45C305.18 517.55 305.64 517.64 306.12 517.72L306.05 517.43ZM311.95 524.73L311.95 524.73C311.95 524.73 311.95 524.73 311.95 524.73L311.95 524.73ZM271.46 502.11L267.1 499.42L262.82 502.62L257.09 499.16L262.56 495.27L267.18 497.86L271.65 494.59L277.23 498.02L271.46 502.11ZM237.84 495.77L229.99 499.09L224.59 493.83L232.51 490.48L237.84 495.77ZM229.69 520.41C228.12 521.37 226.37 521.96 224.43 522.2C222.51 522.44 220.08 522.33 217.14 521.86C214.21 521.42 211.38 520.71 208.67 519.75C203.43 517.88 199.91 515.82 198.12 513.56C196.34 511.32 196.42 509.06 198.35 506.78C199.99 504.84 201.95 503.23 204.22 501.94C206.71 500.52 210.6 498.9 215.89 497.09L217.09 498.66C212.95 500.27 210.1 501.48 208.53 502.31C206.99 503.14 205.74 504.12 204.78 505.25C203.53 506.72 203.72 508.35 205.34 510.15C207 511.94 209.8 513.54 213.74 514.95C217.62 516.33 221.29 517.01 224.76 516.99C228.23 516.97 230.55 516.26 231.74 514.86C232.47 514 232.96 513.05 233.21 512.03C233.48 511.02 233.64 509.3 233.7 506.88L241.34 502.23C241.34 504.54 241.23 506.1 241.01 506.89C240.63 508.34 239.64 510 238.05 511.87L234.5 516.07C232.87 518 231.26 519.45 229.69 520.41Z" /><path class="shp7" d="M302.95 428.62C300.41 426.72 300.42 426.6 303.47 421.18L306.58 415.66L303.81 412.71C300.63 409.33 300.37 407.79 302.63 405.54C303.86 404.3 305.05 404.74 307.95 407.52C312.39 411.78 312.47 412.49 309.02 416.89C305.64 421.18 305.64 423.5 309.02 424.57C310.48 425.03 311.68 426.57 311.68 427.98C311.68 431.13 306.78 431.49 302.95 428.62L302.95 428.62Z" /><g ><path fill-rule="evenodd" class="shp4" d="M157.33 209.17C157.88 209.35 158.19 210.47 158.7 211.31L178.96 245.07C177.76 246.43 165.49 254 159.51 260.32C158.85 261.05 158.6 261.92 158.05 262.68C156.8 259.69 154.93 256.66 152.58 254.11C150.23 251.55 147.4 249.49 144.43 248.4C141.56 247.3 138.5 245.86 136.38 243.31C135.32 242.03 134.5 240.47 134.04 238.52C133.6 236.7 133.65 234.47 133.95 231.91C143.06 227.13 152.57 211.29 157.33 209.17L157.33 209.17Z" /><path fill-rule="evenodd" class="shp5" d="M120.18 269.7C120.77 271.59 121.44 273.22 122.32 274.28C123.35 275.53 124.58 276.29 125.88 276.83C128.49 277.91 131.47 278.08 134.34 279.17C137.32 280.27 140.38 282.58 143 285.39C145.56 288.13 147.54 291.33 148.81 294.26C146.1 304.37 143.08 322.33 139.54 319.12C135.17 314.73 125.73 302 118.44 296.4C115.69 294.13 119.73 285.21 120.18 281.21C120.6 277.45 120.33 273.56 120.18 269.7L120.18 269.7Z" /><path fill-rule="evenodd" class="shp6" d="M133.93 231.89C133.63 234.46 133.6 236.7 134.04 238.52C134.5 240.47 135.32 242.03 136.38 243.31C138.5 245.86 141.56 247.3 144.43 248.4C147.4 249.49 150.23 251.55 152.58 254.11C154.93 256.66 156.83 259.68 158.08 262.67C151.64 271.67 152.23 282.56 149.42 291.91C149.24 292.52 149 293.57 148.81 294.26C147.54 291.33 145.56 288.13 143 285.39C140.38 282.58 137.32 280.27 134.34 279.17C131.47 278.08 128.49 277.91 125.88 276.83C124.58 276.29 123.35 275.53 122.32 274.28C121.44 273.22 120.77 271.59 120.18 269.7C120.07 267.07 120.07 264.5 120.18 261.85C120.23 252.34 125.52 237.93 133.22 232.5C133.5 232.3 133.66 232.09 133.93 231.89L133.93 231.89Z" /></g></g></svg>