<svg version="1.2" baseProfile="tiny-ps" xmlns="http://www.w3.org/2000/svg" viewBox="0 0 600 600" width="600" height="600">
	<title></title>
	<style>
		tspan { white-space:pre }
		.s0 { fill: #c8102e;stroke: #000000;stroke-width: 1.2 } 
		.s1 { fill: #ffffff;stroke: #000000;stroke-width: 1.2 } 
		.s2 { fill: #ffc72c;stroke: #000000;stroke-linecap:round;stroke-width: 1.2 } 
		.s3 { fill: none;stroke: #000000;stroke-linecap:square;stroke-width: 1.2 } 
		.s4 { fill: #ffc72c;stroke: #000000;stroke-width: 1.2 } 
		.s5 { fill: #000000 } 
		.s6 { fill: none;stroke: #000000;stroke-width: 1.2 } 
	</style>
	<g >
		<g >
			<path fill-rule="evenodd" class="s0" d="m539.65 0.6v360.45c0 92.87-76.12 238.41-239.52 238.41c-163.41 0-239.52-145.54-239.52-238.41v-360.45h479.05z" />
			<g >
				<g >
					<path fill-rule="evenodd" class="s1" d="m217.62 24.87c5.49 3.77 13.58 5.71 13.58 5.71c0 0 8.09-1.94 13.58-5.71c-1.89 6.38-1.23 14.67-1.23 14.67c0 0 4.34 7.09 9.63 11.14c-6.66 0.18-14.34 3.36-14.34 3.36c0 0-5.4 6.32-7.63 12.6c-2.22-6.27-7.63-12.6-7.63-12.6c0 0-7.68-3.18-14.34-3.36c5.28-4.05 9.63-11.14 9.63-11.14c0 0 0.66-8.29-1.23-14.67h0z" />
					<path fill-rule="evenodd" class="s1" d="m231.13 25.39c0.01 0 0.01 0 0.02 0c0.01 0 0.01 0 0.02 0c0.01 0 0.01 0 0.02 0c0.01 0 0.01 0 0.02 0c0.9 0 1.8 0.18 2.63 0.52c0.83 0.35 1.59 0.85 2.23 1.49c0.64 0.64 1.14 1.4 1.49 2.23c0.35 0.83 0.52 1.73 0.52 2.63c0 0.21-0.01 0.42-0.03 0.63c-0.02 0.21-0.05 0.42-0.09 0.63c-0.04 0.21-0.09 0.41-0.15 0.62c-0.06 0.2-0.13 0.4-0.2 0.6c0.16-0.13 0.33-0.26 0.51-0.38c0.18-0.12 0.36-0.23 0.54-0.33c0.19-0.1 0.38-0.19 0.57-0.28c0.19-0.08 0.39-0.16 0.59-0.22c0.86-0.28 1.76-0.39 2.66-0.32c0.9 0.07 1.78 0.32 2.58 0.73c0.8 0.41 1.52 0.97 2.11 1.66c0.59 0.69 1.03 1.48 1.31 2.34c0.28 0.86 0.39 1.76 0.31 2.66c-0.07 0.9-0.32 1.78-0.73 2.58c-0.41 0.8-0.97 1.52-1.66 2.1c-0.69 0.59-1.48 1.03-2.34 1.31c-0.2 0.07-0.41 0.12-0.61 0.17c-0.21 0.05-0.42 0.08-0.63 0.11c-0.21 0.03-0.42 0.04-0.63 0.05c-0.21 0.01-0.42 0.01-0.64-0.01c0.18 0.11 0.35 0.24 0.52 0.37c0.17 0.13 0.33 0.27 0.48 0.41c0.15 0.15 0.3 0.3 0.44 0.46c0.14 0.16 0.27 0.32 0.4 0.5c0.53 0.73 0.91 1.56 1.12 2.43c0.21 0.88 0.25 1.79 0.11 2.68c-0.14 0.89-0.46 1.75-0.93 2.51c-0.47 0.77-1.09 1.44-1.82 1.97c-0.73 0.53-1.56 0.91-2.43 1.12c-0.88 0.21-1.79 0.25-2.68 0.11c-0.89-0.14-1.75-0.46-2.51-0.93c-0.77-0.47-1.44-1.09-1.97-1.82c-0.12-0.17-0.24-0.35-0.35-0.53c-0.11-0.18-0.21-0.37-0.3-0.56c-0.09-0.19-0.17-0.39-0.25-0.59c-0.07-0.2-0.14-0.4-0.19-0.61c-0.05 0.21-0.12 0.41-0.19 0.61c-0.07 0.2-0.15 0.39-0.25 0.59c-0.09 0.19-0.19 0.38-0.3 0.56c-0.11 0.18-0.22 0.36-0.35 0.53c-0.53 0.73-1.2 1.35-1.97 1.82c-0.77 0.47-1.62 0.79-2.52 0.93c-0.89 0.14-1.8 0.11-2.68-0.11c-0.88-0.21-1.7-0.59-2.43-1.12c-0.73-0.53-1.35-1.2-1.82-1.97c-0.47-0.77-0.79-1.62-0.93-2.51c-0.14-0.89-0.11-1.8 0.11-2.68c0.21-0.88 0.59-1.7 1.12-2.43c0.12-0.17 0.26-0.34 0.4-0.5c0.14-0.16 0.29-0.31 0.44-0.46c0.15-0.15 0.31-0.28 0.48-0.41c0.17-0.13 0.34-0.25 0.52-0.37c-0.21 0.01-0.42 0.01-0.64 0.01c-0.21-0.01-0.42-0.03-0.63-0.05c-0.21-0.03-0.42-0.06-0.63-0.11c-0.21-0.05-0.41-0.1-0.61-0.17c-0.86-0.28-1.65-0.72-2.34-1.31c-0.69-0.59-1.25-1.3-1.66-2.1c-0.41-0.8-0.66-1.68-0.73-2.58c-0.07-0.9 0.04-1.8 0.31-2.66c0.28-0.86 0.72-1.65 1.31-2.34c0.59-0.69 1.3-1.25 2.11-1.66c0.8-0.41 1.68-0.66 2.58-0.73c0.9-0.07 1.8 0.04 2.66 0.31c0.2 0.07 0.4 0.14 0.59 0.22c0.19 0.08 0.39 0.18 0.57 0.28c0.19 0.1 0.37 0.21 0.54 0.33c0.18 0.12 0.35 0.24 0.51 0.38c-0.08-0.2-0.14-0.4-0.2-0.6c-0.06-0.2-0.11-0.41-0.15-0.62c-0.04-0.21-0.07-0.42-0.09-0.63c-0.02-0.21-0.03-0.42-0.03-0.63c0-0.9 0.18-1.78 0.52-2.61c0.34-0.83 0.84-1.58 1.47-2.22c0.63-0.64 1.38-1.14 2.21-1.49c0.83-0.35 1.71-0.53 2.61-0.54zm0.03 11.64c-0.85 0-1.7 0.18-2.49 0.51c-0.79 0.33-1.5 0.81-2.11 1.42c-0.6 0.61-1.08 1.32-1.41 2.11c-0.33 0.79-0.49 1.64-0.49 2.49c0 0.86 0.17 1.71 0.5 2.5c0.33 0.79 0.81 1.51 1.42 2.12c0.61 0.61 1.33 1.09 2.12 1.41c0.79 0.33 1.64 0.5 2.5 0.5c0.86 0 1.71-0.17 2.5-0.5c0.79-0.33 1.51-0.81 2.12-1.41c0.61-0.61 1.09-1.33 1.42-2.12c0.33-0.79 0.5-1.64 0.5-2.5c0-0.86-0.17-1.71-0.5-2.5c-0.33-0.79-0.81-1.51-1.42-2.12c-0.61-0.61-1.33-1.09-2.12-1.41c-0.79-0.33-1.64-0.5-2.5-0.5c0 0-0.01 0-0.01 0c0 0-0.01 0-0.01 0c0 0-0.01 0-0.01 0c0 0-0.01 0-0.01 0z" />
				</g>
				<g >
					<path fill-rule="evenodd" class="s1" d="m99.22 24.87c5.49 3.77 13.58 5.71 13.58 5.71c0 0 8.09-1.94 13.58-5.71c-1.89 6.38-1.23 14.67-1.23 14.67c0 0 4.34 7.09 9.63 11.14c-6.66 0.18-14.34 3.36-14.34 3.36c0 0-5.4 6.32-7.63 12.6c-2.22-6.27-7.63-12.6-7.63-12.6c0 0-7.68-3.18-14.34-3.36c5.28-4.05 9.63-11.14 9.63-11.14c0 0 0.66-8.29-1.23-14.67h0z" />
					<path fill-rule="evenodd" class="s1" d="m112.74 25.39c0.01 0 0.01 0 0.02 0c0.01 0 0.01 0 0.02 0c0.01 0 0.01 0 0.02 0c0.01 0 0.01 0 0.02 0c0.9 0 1.8 0.18 2.63 0.52c0.83 0.35 1.59 0.85 2.23 1.49c0.64 0.64 1.14 1.4 1.49 2.23c0.35 0.83 0.52 1.73 0.52 2.63c0 0.21-0.01 0.42-0.03 0.63c-0.02 0.21-0.05 0.42-0.09 0.63c-0.04 0.21-0.09 0.41-0.15 0.62c-0.06 0.2-0.13 0.4-0.2 0.6c0.16-0.13 0.33-0.26 0.51-0.38c0.18-0.12 0.36-0.23 0.54-0.33c0.19-0.1 0.38-0.19 0.57-0.28c0.19-0.08 0.39-0.16 0.59-0.22c0.86-0.28 1.76-0.39 2.66-0.32c0.9 0.07 1.78 0.32 2.58 0.73c0.8 0.41 1.52 0.97 2.11 1.66c0.59 0.69 1.03 1.48 1.31 2.34c0.28 0.86 0.39 1.76 0.31 2.66c-0.07 0.9-0.32 1.78-0.73 2.58c-0.41 0.8-0.97 1.52-1.66 2.1c-0.69 0.59-1.48 1.03-2.34 1.31c-0.2 0.07-0.41 0.12-0.61 0.17c-0.21 0.05-0.42 0.08-0.63 0.11c-0.21 0.03-0.42 0.04-0.63 0.05c-0.21 0.01-0.42 0.01-0.64-0.01c0.18 0.11 0.35 0.24 0.52 0.37c0.17 0.13 0.33 0.27 0.48 0.41c0.15 0.15 0.3 0.3 0.44 0.46c0.14 0.16 0.27 0.32 0.4 0.5c0.53 0.73 0.91 1.56 1.12 2.43c0.21 0.88 0.25 1.79 0.11 2.68c-0.14 0.89-0.46 1.75-0.93 2.51c-0.47 0.77-1.09 1.44-1.82 1.97c-0.73 0.53-1.56 0.91-2.43 1.12c-0.88 0.21-1.79 0.25-2.68 0.11c-0.89-0.14-1.75-0.46-2.51-0.93c-0.77-0.47-1.44-1.09-1.97-1.82c-0.12-0.17-0.24-0.35-0.35-0.53c-0.11-0.18-0.21-0.37-0.3-0.56c-0.09-0.19-0.17-0.39-0.25-0.59c-0.07-0.2-0.14-0.4-0.19-0.61c-0.05 0.21-0.12 0.41-0.19 0.61c-0.07 0.2-0.15 0.39-0.25 0.59c-0.09 0.19-0.19 0.38-0.3 0.56c-0.11 0.18-0.22 0.36-0.35 0.53c-0.53 0.73-1.2 1.35-1.97 1.82c-0.77 0.47-1.62 0.79-2.52 0.93c-0.89 0.14-1.8 0.11-2.68-0.11c-0.88-0.21-1.7-0.59-2.43-1.12c-0.73-0.53-1.35-1.2-1.82-1.97c-0.47-0.77-0.79-1.62-0.93-2.51c-0.14-0.89-0.11-1.8 0.11-2.68c0.21-0.88 0.59-1.7 1.12-2.43c0.12-0.17 0.26-0.34 0.4-0.5c0.14-0.16 0.29-0.31 0.44-0.46c0.15-0.15 0.31-0.28 0.48-0.41c0.17-0.13 0.34-0.25 0.52-0.37c-0.21 0.01-0.42 0.01-0.64 0.01c-0.21-0.01-0.42-0.03-0.63-0.05c-0.21-0.03-0.42-0.06-0.63-0.11c-0.21-0.05-0.41-0.1-0.61-0.17c-0.86-0.28-1.65-0.72-2.34-1.31c-0.69-0.59-1.25-1.3-1.66-2.1c-0.41-0.8-0.66-1.68-0.73-2.58c-0.07-0.9 0.04-1.8 0.31-2.66c0.28-0.86 0.72-1.65 1.31-2.34c0.59-0.69 1.3-1.25 2.11-1.66c0.8-0.41 1.68-0.66 2.58-0.73c0.9-0.07 1.8 0.04 2.66 0.31c0.2 0.07 0.4 0.14 0.59 0.22c0.19 0.08 0.39 0.18 0.57 0.28c0.19 0.1 0.37 0.21 0.54 0.33c0.18 0.12 0.35 0.24 0.51 0.38c-0.08-0.2-0.14-0.4-0.2-0.6c-0.06-0.2-0.11-0.41-0.15-0.62c-0.04-0.21-0.07-0.42-0.09-0.63c-0.02-0.21-0.03-0.42-0.03-0.63c0-0.9 0.18-1.78 0.52-2.61c0.34-0.83 0.84-1.58 1.47-2.22c0.63-0.64 1.38-1.14 2.21-1.49c0.83-0.35 1.71-0.53 2.61-0.54zm0.03 11.64c-0.85 0-1.7 0.18-2.49 0.51c-0.79 0.33-1.5 0.81-2.11 1.42c-0.6 0.61-1.08 1.32-1.41 2.11c-0.33 0.79-0.49 1.64-0.49 2.49c0 0.86 0.17 1.71 0.5 2.5c0.33 0.79 0.81 1.51 1.42 2.12c0.61 0.61 1.33 1.09 2.12 1.41c0.79 0.33 1.64 0.5 2.5 0.5c0.86 0 1.71-0.17 2.5-0.5c0.79-0.33 1.51-0.81 2.12-1.41c0.61-0.61 1.09-1.33 1.42-2.12c0.33-0.79 0.5-1.64 0.5-2.5c0-0.86-0.17-1.71-0.5-2.5c-0.33-0.79-0.81-1.51-1.42-2.12c-0.61-0.61-1.33-1.09-2.12-1.41c-0.79-0.33-1.64-0.5-2.5-0.5c0 0-0.01 0-0.01 0c0 0-0.01 0-0.01 0c0 0-0.01 0-0.01 0c0 0-0.01 0-0.01 0z" />
				</g>
				<g >
					<path fill-rule="evenodd" class="s1" d="m473.86 24.87c5.49 3.77 13.58 5.71 13.58 5.71c0 0 8.09-1.94 13.58-5.71c-1.89 6.38-1.23 14.67-1.23 14.67c0 0 4.34 7.09 9.63 11.14c-6.66 0.18-14.34 3.36-14.34 3.36c0 0-5.4 6.32-7.63 12.6c-2.22-6.27-7.63-12.6-7.63-12.6c0 0-7.68-3.18-14.34-3.36c5.28-4.05 9.63-11.14 9.63-11.14c0 0 0.66-8.29-1.23-14.67h0z" />
					<path fill-rule="evenodd" class="s1" d="m487.38 25.39c0.01 0 0.01 0 0.02 0c0.01 0 0.01 0 0.02 0c0.01 0 0.01 0 0.02 0c0.01 0 0.01 0 0.02 0c0.9 0 1.8 0.18 2.63 0.52c0.83 0.35 1.59 0.85 2.23 1.49c0.64 0.64 1.14 1.4 1.49 2.23c0.35 0.83 0.52 1.73 0.52 2.63c0 0.21-0.01 0.42-0.03 0.63c-0.02 0.21-0.05 0.42-0.09 0.63c-0.04 0.21-0.09 0.41-0.15 0.62c-0.06 0.2-0.13 0.4-0.2 0.6c0.16-0.13 0.33-0.26 0.51-0.38c0.18-0.12 0.36-0.23 0.54-0.33c0.19-0.1 0.38-0.19 0.57-0.28c0.19-0.08 0.39-0.16 0.59-0.22c0.86-0.28 1.76-0.39 2.66-0.32c0.9 0.07 1.78 0.32 2.58 0.73c0.8 0.41 1.52 0.97 2.11 1.66c0.59 0.69 1.03 1.48 1.31 2.34c0.28 0.86 0.39 1.76 0.31 2.66c-0.07 0.9-0.32 1.78-0.73 2.58c-0.41 0.8-0.97 1.52-1.66 2.1c-0.69 0.59-1.48 1.03-2.34 1.31c-0.2 0.07-0.41 0.12-0.61 0.17c-0.21 0.05-0.42 0.08-0.63 0.11c-0.21 0.03-0.42 0.04-0.63 0.05c-0.21 0.01-0.42 0.01-0.64-0.01c0.18 0.11 0.35 0.24 0.52 0.37c0.17 0.13 0.33 0.27 0.48 0.41c0.15 0.15 0.3 0.3 0.44 0.46c0.14 0.16 0.27 0.32 0.4 0.5c0.53 0.73 0.91 1.56 1.12 2.43c0.21 0.88 0.25 1.79 0.11 2.68c-0.14 0.89-0.46 1.75-0.93 2.51c-0.47 0.77-1.09 1.44-1.82 1.97c-0.73 0.53-1.56 0.91-2.43 1.12c-0.88 0.21-1.79 0.25-2.68 0.11c-0.89-0.14-1.75-0.46-2.51-0.93c-0.77-0.47-1.44-1.09-1.97-1.82c-0.12-0.17-0.24-0.35-0.35-0.53c-0.11-0.18-0.21-0.37-0.3-0.56c-0.09-0.19-0.17-0.39-0.25-0.59c-0.07-0.2-0.14-0.4-0.19-0.61c-0.05 0.21-0.12 0.41-0.19 0.61c-0.07 0.2-0.15 0.39-0.25 0.59c-0.09 0.19-0.19 0.38-0.3 0.56c-0.11 0.18-0.22 0.36-0.35 0.53c-0.53 0.73-1.2 1.35-1.97 1.82c-0.77 0.47-1.62 0.79-2.52 0.93c-0.89 0.14-1.8 0.11-2.68-0.11c-0.88-0.21-1.7-0.59-2.43-1.12c-0.73-0.53-1.35-1.2-1.82-1.97c-0.47-0.77-0.79-1.62-0.93-2.51c-0.14-0.89-0.11-1.8 0.11-2.68c0.21-0.88 0.59-1.7 1.12-2.43c0.12-0.17 0.26-0.34 0.4-0.5c0.14-0.16 0.29-0.31 0.44-0.46c0.15-0.15 0.31-0.28 0.48-0.41c0.17-0.13 0.34-0.25 0.52-0.37c-0.21 0.01-0.42 0.01-0.64 0.01c-0.21-0.01-0.42-0.03-0.63-0.05c-0.21-0.03-0.42-0.06-0.63-0.11c-0.21-0.05-0.41-0.1-0.61-0.17c-0.86-0.28-1.65-0.72-2.34-1.31c-0.69-0.59-1.25-1.3-1.66-2.1c-0.41-0.8-0.66-1.68-0.73-2.58c-0.07-0.9 0.04-1.8 0.31-2.66c0.28-0.86 0.72-1.65 1.31-2.34c0.59-0.69 1.3-1.25 2.11-1.66c0.8-0.41 1.68-0.66 2.58-0.73c0.9-0.07 1.8 0.04 2.66 0.31c0.2 0.07 0.4 0.14 0.59 0.22c0.19 0.08 0.39 0.18 0.57 0.28c0.19 0.1 0.37 0.21 0.54 0.33c0.18 0.12 0.35 0.24 0.51 0.38c-0.08-0.2-0.14-0.4-0.2-0.6c-0.06-0.2-0.11-0.41-0.15-0.62c-0.04-0.21-0.07-0.42-0.09-0.63c-0.02-0.21-0.03-0.42-0.03-0.63c0-0.9 0.18-1.78 0.52-2.61c0.34-0.83 0.84-1.58 1.47-2.22c0.63-0.64 1.38-1.14 2.21-1.49c0.83-0.35 1.71-0.53 2.61-0.54zm0.03 11.64c-0.85 0-1.7 0.18-2.49 0.51c-0.79 0.33-1.5 0.81-2.11 1.42c-0.6 0.61-1.08 1.32-1.41 2.11c-0.33 0.79-0.49 1.64-0.49 2.49c0 0.86 0.17 1.71 0.5 2.5c0.33 0.79 0.81 1.51 1.42 2.12c0.61 0.61 1.33 1.09 2.12 1.41c0.79 0.33 1.64 0.5 2.5 0.5c0.86 0 1.71-0.17 2.5-0.5c0.79-0.33 1.51-0.81 2.12-1.41c0.61-0.61 1.09-1.33 1.42-2.12c0.33-0.79 0.5-1.64 0.5-2.5c0-0.86-0.17-1.71-0.5-2.5c-0.33-0.79-0.81-1.51-1.42-2.12c-0.61-0.61-1.33-1.09-2.12-1.41c-0.79-0.33-1.64-0.5-2.5-0.5c0 0-0.01 0-0.01 0c0 0-0.01 0-0.01 0c0 0-0.01 0-0.01 0c0 0-0.01 0-0.01 0z" />
				</g>
				<g >
					<path fill-rule="evenodd" class="s1" d="m425.98 139.87c5.49 3.77 13.58 5.71 13.58 5.71c0 0 8.09-1.94 13.58-5.71c-1.89 6.38-1.23 14.67-1.23 14.67c0 0 4.34 7.09 9.63 11.14c-6.66 0.18-14.34 3.36-14.34 3.36c0 0-5.4 6.32-7.63 12.6c-2.22-6.27-7.63-12.6-7.63-12.6c0 0-7.68-3.18-14.34-3.36c5.28-4.05 9.63-11.14 9.63-11.14c0 0 0.66-8.29-1.23-14.67h0z" />
					<path fill-rule="evenodd" class="s1" d="m439.5 140.39c0.01 0 0.01 0 0.02 0c0.01 0 0.01 0 0.02 0c0.01 0 0.01 0 0.02 0c0.01 0 0.01 0 0.02 0c0.9 0 1.8 0.18 2.63 0.52c0.83 0.35 1.59 0.85 2.23 1.49c0.64 0.64 1.14 1.4 1.49 2.23c0.35 0.83 0.52 1.73 0.52 2.63c0 0.21-0.01 0.42-0.03 0.63c-0.02 0.21-0.05 0.42-0.09 0.63c-0.04 0.21-0.09 0.41-0.15 0.62c-0.06 0.2-0.13 0.4-0.2 0.6c0.16-0.13 0.33-0.26 0.51-0.38c0.18-0.12 0.36-0.23 0.54-0.33c0.19-0.1 0.38-0.19 0.57-0.28c0.19-0.08 0.39-0.16 0.59-0.22c0.86-0.28 1.76-0.39 2.66-0.32c0.9 0.07 1.78 0.32 2.58 0.73c0.8 0.41 1.52 0.97 2.11 1.66c0.59 0.69 1.03 1.48 1.31 2.34c0.28 0.86 0.39 1.76 0.31 2.66c-0.07 0.9-0.32 1.78-0.73 2.58c-0.41 0.8-0.97 1.52-1.66 2.1c-0.69 0.59-1.48 1.03-2.34 1.31c-0.2 0.07-0.41 0.12-0.61 0.17c-0.21 0.05-0.42 0.08-0.63 0.11c-0.21 0.03-0.42 0.04-0.63 0.05c-0.21 0.01-0.42 0.01-0.64-0.01c0.18 0.11 0.35 0.24 0.52 0.37c0.17 0.13 0.33 0.27 0.48 0.41c0.15 0.15 0.3 0.3 0.44 0.46c0.14 0.16 0.27 0.32 0.4 0.5c0.53 0.73 0.91 1.56 1.12 2.43c0.21 0.88 0.25 1.79 0.11 2.68c-0.14 0.89-0.46 1.75-0.93 2.51c-0.47 0.77-1.09 1.44-1.82 1.97c-0.73 0.53-1.56 0.91-2.43 1.12c-0.88 0.21-1.79 0.25-2.68 0.11c-0.89-0.14-1.75-0.46-2.51-0.93c-0.77-0.47-1.44-1.09-1.97-1.82c-0.12-0.17-0.24-0.35-0.35-0.53c-0.11-0.18-0.21-0.37-0.3-0.56c-0.09-0.19-0.17-0.39-0.25-0.59c-0.07-0.2-0.14-0.4-0.19-0.61c-0.05 0.21-0.12 0.41-0.19 0.61c-0.07 0.2-0.15 0.39-0.25 0.59c-0.09 0.19-0.19 0.38-0.3 0.56c-0.11 0.18-0.22 0.36-0.35 0.53c-0.53 0.73-1.2 1.35-1.97 1.82c-0.77 0.47-1.62 0.79-2.52 0.93c-0.89 0.14-1.8 0.11-2.68-0.11c-0.88-0.21-1.7-0.59-2.43-1.12c-0.73-0.53-1.35-1.2-1.82-1.97c-0.47-0.77-0.79-1.62-0.93-2.51c-0.14-0.89-0.11-1.8 0.11-2.68c0.21-0.88 0.59-1.7 1.12-2.43c0.12-0.17 0.26-0.34 0.4-0.5c0.14-0.16 0.29-0.31 0.44-0.46c0.15-0.15 0.31-0.28 0.48-0.41c0.17-0.13 0.34-0.25 0.52-0.37c-0.21 0.01-0.42 0.01-0.64 0.01c-0.21-0.01-0.42-0.03-0.63-0.05c-0.21-0.03-0.42-0.06-0.63-0.11c-0.21-0.05-0.41-0.1-0.61-0.17c-0.86-0.28-1.65-0.72-2.34-1.31c-0.69-0.59-1.25-1.3-1.66-2.1c-0.41-0.8-0.66-1.68-0.73-2.58c-0.07-0.9 0.04-1.8 0.31-2.66c0.28-0.86 0.72-1.65 1.31-2.34c0.59-0.69 1.3-1.25 2.11-1.66c0.8-0.41 1.68-0.66 2.58-0.73c0.9-0.07 1.8 0.04 2.66 0.31c0.2 0.07 0.4 0.14 0.59 0.22c0.19 0.08 0.39 0.18 0.57 0.28c0.19 0.1 0.37 0.21 0.54 0.33c0.18 0.12 0.35 0.24 0.51 0.38c-0.08-0.2-0.14-0.4-0.2-0.6c-0.06-0.2-0.11-0.41-0.15-0.62c-0.04-0.21-0.07-0.42-0.09-0.63c-0.02-0.21-0.03-0.42-0.03-0.63c0-0.9 0.18-1.78 0.52-2.61c0.34-0.83 0.84-1.58 1.47-2.22c0.63-0.64 1.38-1.14 2.21-1.49c0.83-0.35 1.71-0.53 2.61-0.54zm0.03 11.64c-0.85 0-1.7 0.18-2.49 0.51c-0.79 0.33-1.5 0.81-2.11 1.42c-0.6 0.61-1.08 1.32-1.41 2.11c-0.33 0.79-0.49 1.64-0.49 2.49c0 0.86 0.17 1.71 0.5 2.5c0.33 0.79 0.81 1.51 1.42 2.12c0.61 0.61 1.33 1.09 2.12 1.41c0.79 0.33 1.64 0.5 2.5 0.5c0.86 0 1.71-0.17 2.5-0.5c0.79-0.33 1.51-0.81 2.12-1.41c0.61-0.61 1.09-1.33 1.42-2.12c0.33-0.79 0.5-1.64 0.5-2.5c0-0.86-0.17-1.71-0.5-2.5c-0.33-0.79-0.81-1.51-1.42-2.12c-0.61-0.61-1.33-1.09-2.12-1.41c-0.79-0.33-1.64-0.5-2.5-0.5c0 0-0.01 0-0.01 0c0 0-0.01 0-0.01 0c0 0-0.01 0-0.01 0c0 0-0.01 0-0.01 0z" />
				</g>
				<g >
					<path fill-rule="evenodd" class="s1" d="m99.22 174.87c5.49 3.77 13.58 5.71 13.58 5.71c0 0 8.09-1.94 13.58-5.71c-1.89 6.38-1.23 14.67-1.23 14.67c0 0 4.34 7.09 9.63 11.14c-6.66 0.18-14.34 3.36-14.34 3.36c0 0-5.4 6.32-7.63 12.6c-2.22-6.27-7.63-12.6-7.63-12.6c0 0-7.68-3.18-14.34-3.36c5.28-4.05 9.63-11.14 9.63-11.14c0 0 0.66-8.29-1.23-14.67h0z" />
					<path fill-rule="evenodd" class="s1" d="m112.74 175.39c0.01 0 0.01 0 0.02 0c0.01 0 0.01 0 0.02 0c0.01 0 0.01 0 0.02 0c0.01 0 0.01 0 0.02 0c0.9 0 1.8 0.18 2.63 0.52c0.83 0.35 1.59 0.85 2.23 1.49c0.64 0.64 1.14 1.4 1.49 2.23c0.35 0.83 0.52 1.73 0.52 2.63c0 0.21-0.01 0.42-0.03 0.63c-0.02 0.21-0.05 0.42-0.09 0.63c-0.04 0.21-0.09 0.41-0.15 0.62c-0.06 0.2-0.13 0.4-0.2 0.6c0.16-0.13 0.33-0.26 0.51-0.38c0.18-0.12 0.36-0.23 0.54-0.33c0.19-0.1 0.38-0.19 0.57-0.28c0.19-0.08 0.39-0.16 0.59-0.22c0.86-0.28 1.76-0.39 2.66-0.32c0.9 0.07 1.78 0.32 2.58 0.73c0.8 0.41 1.52 0.97 2.11 1.66c0.59 0.69 1.03 1.48 1.31 2.34c0.28 0.86 0.39 1.76 0.31 2.66c-0.07 0.9-0.32 1.78-0.73 2.58c-0.41 0.8-0.97 1.52-1.66 2.1c-0.69 0.59-1.48 1.03-2.34 1.31c-0.2 0.07-0.41 0.12-0.61 0.17c-0.21 0.05-0.42 0.08-0.63 0.11c-0.21 0.03-0.42 0.04-0.63 0.05c-0.21 0.01-0.42 0.01-0.64-0.01c0.18 0.11 0.35 0.24 0.52 0.37c0.17 0.13 0.33 0.27 0.48 0.41c0.15 0.15 0.3 0.3 0.44 0.46c0.14 0.16 0.27 0.32 0.4 0.5c0.53 0.73 0.91 1.56 1.12 2.43c0.21 0.88 0.25 1.79 0.11 2.68c-0.14 0.89-0.46 1.75-0.93 2.51c-0.47 0.77-1.09 1.44-1.82 1.97c-0.73 0.53-1.56 0.91-2.43 1.12c-0.88 0.21-1.79 0.25-2.68 0.11c-0.89-0.14-1.75-0.46-2.51-0.93c-0.77-0.47-1.44-1.09-1.97-1.82c-0.12-0.17-0.24-0.35-0.35-0.53c-0.11-0.18-0.21-0.37-0.3-0.56c-0.09-0.19-0.17-0.39-0.25-0.59c-0.07-0.2-0.14-0.4-0.19-0.61c-0.05 0.21-0.12 0.41-0.19 0.61c-0.07 0.2-0.15 0.39-0.25 0.59c-0.09 0.19-0.19 0.38-0.3 0.56c-0.11 0.18-0.22 0.36-0.35 0.53c-0.53 0.73-1.2 1.35-1.97 1.82c-0.77 0.47-1.62 0.79-2.52 0.93c-0.89 0.14-1.8 0.11-2.68-0.11c-0.88-0.21-1.7-0.59-2.43-1.12c-0.73-0.53-1.35-1.2-1.82-1.97c-0.47-0.77-0.79-1.62-0.93-2.51c-0.14-0.89-0.11-1.8 0.11-2.68c0.21-0.88 0.59-1.7 1.12-2.43c0.12-0.17 0.26-0.34 0.4-0.5c0.14-0.16 0.29-0.31 0.44-0.46c0.15-0.15 0.31-0.28 0.48-0.41c0.17-0.13 0.34-0.25 0.52-0.37c-0.21 0.01-0.42 0.01-0.64 0.01c-0.21-0.01-0.42-0.03-0.63-0.05c-0.21-0.03-0.42-0.06-0.63-0.11c-0.21-0.05-0.41-0.1-0.61-0.17c-0.86-0.28-1.65-0.72-2.34-1.31c-0.69-0.59-1.25-1.3-1.66-2.1c-0.41-0.8-0.66-1.68-0.73-2.58c-0.07-0.9 0.04-1.8 0.31-2.66c0.28-0.86 0.72-1.65 1.31-2.34c0.59-0.69 1.3-1.25 2.11-1.66c0.8-0.41 1.68-0.66 2.58-0.73c0.9-0.07 1.8 0.04 2.66 0.31c0.2 0.07 0.4 0.14 0.59 0.22c0.19 0.08 0.39 0.18 0.57 0.28c0.19 0.1 0.37 0.21 0.54 0.33c0.18 0.12 0.35 0.24 0.51 0.38c-0.08-0.2-0.14-0.4-0.2-0.6c-0.06-0.2-0.11-0.41-0.15-0.62c-0.04-0.21-0.07-0.42-0.09-0.63c-0.02-0.21-0.03-0.42-0.03-0.63c0-0.9 0.18-1.78 0.52-2.61c0.34-0.83 0.84-1.58 1.47-2.22c0.63-0.64 1.38-1.14 2.21-1.49c0.83-0.35 1.71-0.53 2.61-0.54zm0.03 11.64c-0.85 0-1.7 0.18-2.49 0.51c-0.79 0.33-1.5 0.81-2.11 1.42c-0.6 0.61-1.08 1.32-1.41 2.11c-0.33 0.79-0.49 1.64-0.49 2.49c0 0.86 0.17 1.71 0.5 2.5c0.33 0.79 0.81 1.51 1.42 2.12c0.61 0.61 1.33 1.09 2.12 1.41c0.79 0.33 1.64 0.5 2.5 0.5c0.86 0 1.71-0.17 2.5-0.5c0.79-0.33 1.51-0.81 2.12-1.41c0.61-0.61 1.09-1.33 1.42-2.12c0.33-0.79 0.5-1.64 0.5-2.5c0-0.86-0.17-1.71-0.5-2.5c-0.33-0.79-0.81-1.51-1.42-2.12c-0.61-0.61-1.33-1.09-2.12-1.41c-0.79-0.33-1.64-0.5-2.5-0.5c0 0-0.01 0-0.01 0c0 0-0.01 0-0.01 0c0 0-0.01 0-0.01 0c0 0-0.01 0-0.01 0z" />
				</g>
				<g >
					<path fill-rule="evenodd" class="s1" d="m99.22 327.94c5.49 3.77 13.58 5.71 13.58 5.71c0 0 8.09-1.94 13.58-5.71c-1.89 6.38-1.23 14.67-1.23 14.67c0 0 4.34 7.09 9.63 11.14c-6.66 0.18-14.34 3.36-14.34 3.36c0 0-5.4 6.32-7.63 12.6c-2.22-6.27-7.63-12.6-7.63-12.6c0 0-7.68-3.18-14.34-3.36c5.28-4.05 9.63-11.14 9.63-11.14c0 0 0.66-8.29-1.23-14.67h0z" />
					<path fill-rule="evenodd" class="s1" d="m112.74 328.46c0.01 0 0.01 0 0.02 0c0.01 0 0.01 0 0.02 0c0.01 0 0.01 0 0.02 0c0.01 0 0.01 0 0.02 0c0.9 0 1.8 0.18 2.63 0.52c0.83 0.35 1.59 0.85 2.23 1.49c0.64 0.64 1.14 1.4 1.49 2.23c0.35 0.83 0.52 1.73 0.52 2.63c0 0.21-0.01 0.42-0.03 0.63c-0.02 0.21-0.05 0.42-0.09 0.63c-0.04 0.21-0.09 0.41-0.15 0.62c-0.06 0.2-0.13 0.4-0.2 0.6c0.16-0.13 0.33-0.26 0.51-0.38c0.18-0.12 0.36-0.23 0.54-0.33c0.19-0.1 0.38-0.19 0.57-0.28c0.19-0.08 0.39-0.16 0.59-0.22c0.86-0.28 1.76-0.39 2.66-0.32c0.9 0.07 1.78 0.32 2.58 0.73c0.8 0.41 1.52 0.97 2.11 1.66c0.59 0.69 1.03 1.48 1.31 2.34c0.28 0.86 0.39 1.76 0.31 2.66c-0.07 0.9-0.32 1.78-0.73 2.58c-0.41 0.8-0.97 1.52-1.66 2.1c-0.69 0.59-1.48 1.03-2.34 1.31c-0.2 0.07-0.41 0.12-0.61 0.17c-0.21 0.05-0.42 0.08-0.63 0.11c-0.21 0.03-0.42 0.04-0.63 0.05c-0.21 0.01-0.42 0.01-0.64-0.01c0.18 0.11 0.35 0.24 0.52 0.37c0.17 0.13 0.33 0.27 0.48 0.41c0.15 0.15 0.3 0.3 0.44 0.46c0.14 0.16 0.27 0.32 0.4 0.5c0.53 0.73 0.91 1.56 1.12 2.43c0.21 0.88 0.25 1.79 0.11 2.68c-0.14 0.89-0.46 1.75-0.93 2.51c-0.47 0.77-1.09 1.44-1.82 1.97c-0.73 0.53-1.56 0.91-2.43 1.12c-0.88 0.21-1.79 0.25-2.68 0.11c-0.89-0.14-1.75-0.46-2.51-0.93c-0.77-0.47-1.44-1.09-1.97-1.82c-0.12-0.17-0.24-0.35-0.35-0.53c-0.11-0.18-0.21-0.37-0.3-0.56c-0.09-0.19-0.17-0.39-0.25-0.59c-0.07-0.2-0.14-0.4-0.19-0.61c-0.05 0.21-0.12 0.41-0.19 0.61c-0.07 0.2-0.15 0.39-0.25 0.59c-0.09 0.19-0.19 0.38-0.3 0.56c-0.11 0.18-0.22 0.36-0.35 0.53c-0.53 0.73-1.2 1.35-1.97 1.82c-0.77 0.47-1.62 0.79-2.52 0.93c-0.89 0.14-1.8 0.11-2.68-0.11c-0.88-0.21-1.7-0.59-2.43-1.12c-0.73-0.53-1.35-1.2-1.82-1.97c-0.47-0.77-0.79-1.62-0.93-2.51c-0.14-0.89-0.11-1.8 0.11-2.68c0.21-0.88 0.59-1.7 1.12-2.43c0.12-0.17 0.26-0.34 0.4-0.5c0.14-0.16 0.29-0.31 0.44-0.46c0.15-0.15 0.31-0.28 0.48-0.41c0.17-0.13 0.34-0.25 0.52-0.37c-0.21 0.01-0.42 0.01-0.64 0.01c-0.21-0.01-0.42-0.03-0.63-0.05c-0.21-0.03-0.42-0.06-0.63-0.11c-0.21-0.05-0.41-0.1-0.61-0.17c-0.86-0.28-1.65-0.72-2.34-1.31c-0.69-0.59-1.25-1.3-1.66-2.1c-0.41-0.8-0.66-1.68-0.73-2.58c-0.07-0.9 0.04-1.8 0.31-2.66c0.28-0.86 0.72-1.65 1.31-2.34c0.59-0.69 1.3-1.25 2.11-1.66c0.8-0.41 1.68-0.66 2.58-0.73c0.9-0.07 1.8 0.04 2.66 0.31c0.2 0.07 0.4 0.14 0.59 0.22c0.19 0.08 0.39 0.18 0.57 0.28c0.19 0.1 0.37 0.21 0.54 0.33c0.18 0.12 0.35 0.24 0.51 0.38c-0.08-0.2-0.14-0.4-0.2-0.6c-0.06-0.2-0.11-0.41-0.15-0.62c-0.04-0.21-0.07-0.42-0.09-0.63c-0.02-0.21-0.03-0.42-0.03-0.63c0-0.9 0.18-1.78 0.52-2.61c0.34-0.83 0.84-1.58 1.47-2.22c0.63-0.64 1.38-1.14 2.21-1.49c0.83-0.35 1.71-0.53 2.61-0.54zm0.03 11.64c-0.85 0-1.7 0.18-2.49 0.51c-0.79 0.33-1.5 0.81-2.11 1.42c-0.6 0.61-1.08 1.32-1.41 2.11c-0.33 0.79-0.49 1.64-0.49 2.49c0 0.86 0.17 1.71 0.5 2.5c0.33 0.79 0.81 1.51 1.42 2.12c0.61 0.61 1.33 1.09 2.12 1.41c0.79 0.33 1.64 0.5 2.5 0.5c0.86 0 1.71-0.17 2.5-0.5c0.79-0.33 1.51-0.81 2.12-1.41c0.61-0.61 1.09-1.33 1.42-2.12c0.33-0.79 0.5-1.64 0.5-2.5c0-0.86-0.17-1.71-0.5-2.5c-0.33-0.79-0.81-1.51-1.42-2.12c-0.61-0.61-1.33-1.09-2.12-1.41c-0.79-0.33-1.64-0.5-2.5-0.5c0 0-0.01 0-0.01 0c0 0-0.01 0-0.01 0c0 0-0.01 0-0.01 0c0 0-0.01 0-0.01 0z" />
				</g>
				<g >
					<path fill-rule="evenodd" class="s1" d="m217.62 327.94c5.49 3.77 13.58 5.71 13.58 5.71c0 0 8.09-1.94 13.58-5.71c-1.89 6.38-1.23 14.67-1.23 14.67c0 0 4.34 7.09 9.63 11.14c-6.66 0.18-14.34 3.36-14.34 3.36c0 0-5.4 6.32-7.63 12.6c-2.22-6.27-7.63-12.6-7.63-12.6c0 0-7.68-3.18-14.34-3.36c5.28-4.05 9.63-11.14 9.63-11.14c0 0 0.66-8.29-1.23-14.67h0z" />
					<path fill-rule="evenodd" class="s1" d="m231.13 328.46c0.01 0 0.01 0 0.02 0c0.01 0 0.01 0 0.02 0c0.01 0 0.01 0 0.02 0c0.01 0 0.01 0 0.02 0c0.9 0 1.8 0.18 2.63 0.52c0.83 0.35 1.59 0.85 2.23 1.49c0.64 0.64 1.14 1.4 1.49 2.23c0.35 0.83 0.52 1.73 0.52 2.63c0 0.21-0.01 0.42-0.03 0.63c-0.02 0.21-0.05 0.42-0.09 0.63c-0.04 0.21-0.09 0.41-0.15 0.62c-0.06 0.2-0.13 0.4-0.2 0.6c0.16-0.13 0.33-0.26 0.51-0.38c0.18-0.12 0.36-0.23 0.54-0.33c0.19-0.1 0.38-0.19 0.57-0.28c0.19-0.08 0.39-0.16 0.59-0.22c0.86-0.28 1.76-0.39 2.66-0.32c0.9 0.07 1.78 0.32 2.58 0.73c0.8 0.41 1.52 0.97 2.11 1.66c0.59 0.69 1.03 1.48 1.31 2.34c0.28 0.86 0.39 1.76 0.31 2.66c-0.07 0.9-0.32 1.78-0.73 2.58c-0.41 0.8-0.97 1.52-1.66 2.1c-0.69 0.59-1.48 1.03-2.34 1.31c-0.2 0.07-0.41 0.12-0.61 0.17c-0.21 0.05-0.42 0.08-0.63 0.11c-0.21 0.03-0.42 0.04-0.63 0.05c-0.21 0.01-0.42 0.01-0.64-0.01c0.18 0.11 0.35 0.24 0.52 0.37c0.17 0.13 0.33 0.27 0.48 0.41c0.15 0.15 0.3 0.3 0.44 0.46c0.14 0.16 0.27 0.32 0.4 0.5c0.53 0.73 0.91 1.56 1.12 2.43c0.21 0.88 0.25 1.79 0.11 2.68c-0.14 0.89-0.46 1.75-0.93 2.51c-0.47 0.77-1.09 1.44-1.82 1.97c-0.73 0.53-1.56 0.91-2.43 1.12c-0.88 0.21-1.79 0.25-2.68 0.11c-0.89-0.14-1.75-0.46-2.51-0.93c-0.77-0.47-1.44-1.09-1.97-1.82c-0.12-0.17-0.24-0.35-0.35-0.53c-0.11-0.18-0.21-0.37-0.3-0.56c-0.09-0.19-0.17-0.39-0.25-0.59c-0.07-0.2-0.14-0.4-0.19-0.61c-0.05 0.21-0.12 0.41-0.19 0.61c-0.07 0.2-0.15 0.39-0.25 0.59c-0.09 0.19-0.19 0.38-0.3 0.56c-0.11 0.18-0.22 0.36-0.35 0.53c-0.53 0.73-1.2 1.35-1.97 1.82c-0.77 0.47-1.62 0.79-2.52 0.93c-0.89 0.14-1.8 0.11-2.68-0.11c-0.88-0.21-1.7-0.59-2.43-1.12c-0.73-0.53-1.35-1.2-1.82-1.97c-0.47-0.77-0.79-1.62-0.93-2.51c-0.14-0.89-0.11-1.8 0.11-2.68c0.21-0.88 0.59-1.7 1.12-2.43c0.12-0.17 0.26-0.34 0.4-0.5c0.14-0.16 0.29-0.31 0.44-0.46c0.15-0.15 0.31-0.28 0.48-0.41c0.17-0.13 0.34-0.25 0.52-0.37c-0.21 0.01-0.42 0.01-0.64 0.01c-0.21-0.01-0.42-0.03-0.63-0.05c-0.21-0.03-0.42-0.06-0.63-0.11c-0.21-0.05-0.41-0.1-0.61-0.17c-0.86-0.28-1.65-0.72-2.34-1.31c-0.69-0.59-1.25-1.3-1.66-2.1c-0.41-0.8-0.66-1.68-0.73-2.58c-0.07-0.9 0.04-1.8 0.31-2.66c0.28-0.86 0.72-1.65 1.31-2.34c0.59-0.69 1.3-1.25 2.11-1.66c0.8-0.41 1.68-0.66 2.58-0.73c0.9-0.07 1.8 0.04 2.66 0.31c0.2 0.07 0.4 0.14 0.59 0.22c0.19 0.08 0.39 0.18 0.57 0.28c0.19 0.1 0.37 0.21 0.54 0.33c0.18 0.12 0.35 0.24 0.51 0.38c-0.08-0.2-0.14-0.4-0.2-0.6c-0.06-0.2-0.11-0.41-0.15-0.62c-0.04-0.21-0.07-0.42-0.09-0.63c-0.02-0.21-0.03-0.42-0.03-0.63c0-0.9 0.18-1.78 0.52-2.61c0.34-0.83 0.84-1.58 1.47-2.22c0.63-0.64 1.38-1.14 2.21-1.49c0.83-0.35 1.71-0.53 2.61-0.54zm0.03 11.64c-0.85 0-1.7 0.18-2.49 0.51c-0.79 0.33-1.5 0.81-2.11 1.42c-0.6 0.61-1.08 1.32-1.41 2.11c-0.33 0.79-0.49 1.64-0.49 2.49c0 0.86 0.17 1.71 0.5 2.5c0.33 0.79 0.81 1.51 1.42 2.12c0.61 0.61 1.33 1.09 2.12 1.41c0.79 0.33 1.64 0.5 2.5 0.5c0.86 0 1.71-0.17 2.5-0.5c0.79-0.33 1.51-0.81 2.12-1.41c0.61-0.61 1.09-1.33 1.42-2.12c0.33-0.79 0.5-1.64 0.5-2.5c0-0.86-0.17-1.71-0.5-2.5c-0.33-0.79-0.81-1.51-1.42-2.12c-0.61-0.61-1.33-1.09-2.12-1.41c-0.79-0.33-1.64-0.5-2.5-0.5c0 0-0.01 0-0.01 0c0 0-0.01 0-0.01 0c0 0-0.01 0-0.01 0c0 0-0.01 0-0.01 0z" />
				</g>
				<g >
					<path fill-rule="evenodd" class="s1" d="m473.86 327.94c5.49 3.77 13.58 5.71 13.58 5.71c0 0 8.09-1.94 13.58-5.71c-1.89 6.38-1.23 14.67-1.23 14.67c0 0 4.34 7.09 9.63 11.14c-6.66 0.18-14.34 3.36-14.34 3.36c0 0-5.4 6.32-7.63 12.6c-2.22-6.27-7.63-12.6-7.63-12.6c0 0-7.68-3.18-14.34-3.36c5.28-4.05 9.63-11.14 9.63-11.14c0 0 0.66-8.29-1.23-14.67h0z" />
					<path fill-rule="evenodd" class="s1" d="m487.38 328.46c0.01 0 0.01 0 0.02 0c0.01 0 0.01 0 0.02 0c0.01 0 0.01 0 0.02 0c0.01 0 0.01 0 0.02 0c0.9 0 1.8 0.18 2.63 0.52c0.83 0.35 1.59 0.85 2.23 1.49c0.64 0.64 1.14 1.4 1.49 2.23c0.35 0.83 0.52 1.73 0.52 2.63c0 0.21-0.01 0.42-0.03 0.63c-0.02 0.21-0.05 0.42-0.09 0.63c-0.04 0.21-0.09 0.41-0.15 0.62c-0.06 0.2-0.13 0.4-0.2 0.6c0.16-0.13 0.33-0.26 0.51-0.38c0.18-0.12 0.36-0.23 0.54-0.33c0.19-0.1 0.38-0.19 0.57-0.28c0.19-0.08 0.39-0.16 0.59-0.22c0.86-0.28 1.76-0.39 2.66-0.32c0.9 0.07 1.78 0.32 2.58 0.73c0.8 0.41 1.52 0.97 2.11 1.66c0.59 0.69 1.03 1.48 1.31 2.34c0.28 0.86 0.39 1.76 0.31 2.66c-0.07 0.9-0.32 1.78-0.73 2.58c-0.41 0.8-0.97 1.52-1.66 2.1c-0.69 0.59-1.48 1.03-2.34 1.31c-0.2 0.07-0.41 0.12-0.61 0.17c-0.21 0.05-0.42 0.08-0.63 0.11c-0.21 0.03-0.42 0.04-0.63 0.05c-0.21 0.01-0.42 0.01-0.64-0.01c0.18 0.11 0.35 0.24 0.52 0.37c0.17 0.13 0.33 0.27 0.48 0.41c0.15 0.15 0.3 0.3 0.44 0.46c0.14 0.16 0.27 0.32 0.4 0.5c0.53 0.73 0.91 1.56 1.12 2.43c0.21 0.88 0.25 1.79 0.11 2.68c-0.14 0.89-0.46 1.75-0.93 2.51c-0.47 0.77-1.09 1.44-1.82 1.97c-0.73 0.53-1.56 0.91-2.43 1.12c-0.88 0.21-1.79 0.25-2.68 0.11c-0.89-0.14-1.75-0.46-2.51-0.93c-0.77-0.47-1.44-1.09-1.97-1.82c-0.12-0.17-0.24-0.35-0.35-0.53c-0.11-0.18-0.21-0.37-0.3-0.56c-0.09-0.19-0.17-0.39-0.25-0.59c-0.07-0.2-0.14-0.4-0.19-0.61c-0.05 0.21-0.12 0.41-0.19 0.61c-0.07 0.2-0.15 0.39-0.25 0.59c-0.09 0.19-0.19 0.38-0.3 0.56c-0.11 0.18-0.22 0.36-0.35 0.53c-0.53 0.73-1.2 1.35-1.97 1.82c-0.77 0.47-1.62 0.79-2.52 0.93c-0.89 0.14-1.8 0.11-2.68-0.11c-0.88-0.21-1.7-0.59-2.43-1.12c-0.73-0.53-1.35-1.2-1.82-1.97c-0.47-0.77-0.79-1.62-0.93-2.51c-0.14-0.89-0.11-1.8 0.11-2.68c0.21-0.88 0.59-1.7 1.12-2.43c0.12-0.17 0.26-0.34 0.4-0.5c0.14-0.16 0.29-0.31 0.44-0.46c0.15-0.15 0.31-0.28 0.48-0.41c0.17-0.13 0.34-0.25 0.52-0.37c-0.21 0.01-0.42 0.01-0.64 0.01c-0.21-0.01-0.42-0.03-0.63-0.05c-0.21-0.03-0.42-0.06-0.63-0.11c-0.21-0.05-0.41-0.1-0.61-0.17c-0.86-0.28-1.65-0.72-2.34-1.31c-0.69-0.59-1.25-1.3-1.66-2.1c-0.41-0.8-0.66-1.68-0.73-2.58c-0.07-0.9 0.04-1.8 0.31-2.66c0.28-0.86 0.72-1.65 1.31-2.34c0.59-0.69 1.3-1.25 2.11-1.66c0.8-0.41 1.68-0.66 2.58-0.73c0.9-0.07 1.8 0.04 2.66 0.31c0.2 0.07 0.4 0.14 0.59 0.22c0.19 0.08 0.39 0.18 0.57 0.28c0.19 0.1 0.37 0.21 0.54 0.33c0.18 0.12 0.35 0.24 0.51 0.38c-0.08-0.2-0.14-0.4-0.2-0.6c-0.06-0.2-0.11-0.41-0.15-0.62c-0.04-0.21-0.07-0.42-0.09-0.63c-0.02-0.21-0.03-0.42-0.03-0.63c0-0.9 0.18-1.78 0.52-2.61c0.34-0.83 0.84-1.58 1.47-2.22c0.63-0.64 1.38-1.14 2.21-1.49c0.83-0.35 1.71-0.53 2.61-0.54zm0.03 11.64c-0.85 0-1.7 0.18-2.49 0.51c-0.79 0.33-1.5 0.81-2.11 1.42c-0.6 0.61-1.08 1.32-1.41 2.11c-0.33 0.79-0.49 1.64-0.49 2.49c0 0.86 0.17 1.71 0.5 2.5c0.33 0.79 0.81 1.51 1.42 2.12c0.61 0.61 1.33 1.09 2.12 1.41c0.79 0.33 1.64 0.5 2.5 0.5c0.86 0 1.71-0.17 2.5-0.5c0.79-0.33 1.51-0.81 2.12-1.41c0.61-0.61 1.09-1.33 1.42-2.12c0.33-0.79 0.5-1.64 0.5-2.5c0-0.86-0.17-1.71-0.5-2.5c-0.33-0.79-0.81-1.51-1.42-2.12c-0.61-0.61-1.33-1.09-2.12-1.41c-0.79-0.33-1.64-0.5-2.5-0.5c0 0-0.01 0-0.01 0c0 0-0.01 0-0.01 0c0 0-0.01 0-0.01 0c0 0-0.01 0-0.01 0z" />
				</g>
				<g >
					<path fill-rule="evenodd" class="s1" d="m286.54 446.65c5.49 3.77 13.58 5.71 13.58 5.71c0 0 8.09-1.94 13.58-5.71c-1.89 6.38-1.23 14.67-1.23 14.67c0 0 4.34 7.09 9.63 11.14c-6.66 0.18-14.34 3.36-14.34 3.36c0 0-5.4 6.32-7.63 12.6c-2.22-6.27-7.63-12.6-7.63-12.6c0 0-7.68-3.18-14.34-3.36c5.28-4.05 9.63-11.14 9.63-11.14c0 0 0.66-8.29-1.23-14.67v0z" />
					<path fill-rule="evenodd" class="s1" d="m300.06 447.17c0.01 0 0.01 0 0.02 0c0.01 0 0.01 0 0.02 0c0.01 0 0.01 0 0.02 0c0.01 0 0.01 0 0.02 0c0.9 0 1.8 0.18 2.63 0.52c0.83 0.35 1.59 0.85 2.23 1.49c0.64 0.64 1.14 1.4 1.49 2.23c0.35 0.83 0.52 1.73 0.52 2.63c0 0.21-0.01 0.42-0.03 0.63c-0.02 0.21-0.05 0.42-0.09 0.63c-0.04 0.21-0.09 0.41-0.15 0.62c-0.06 0.2-0.13 0.4-0.2 0.6c0.16-0.13 0.33-0.26 0.51-0.38c0.18-0.12 0.36-0.23 0.54-0.33c0.19-0.1 0.38-0.19 0.57-0.28c0.19-0.08 0.39-0.16 0.59-0.22c0.86-0.28 1.76-0.39 2.66-0.32c0.9 0.07 1.78 0.32 2.58 0.73c0.8 0.41 1.52 0.97 2.11 1.66c0.59 0.69 1.03 1.48 1.31 2.34c0.28 0.86 0.39 1.76 0.31 2.66c-0.07 0.9-0.32 1.78-0.73 2.58c-0.41 0.8-0.97 1.52-1.66 2.1c-0.69 0.59-1.48 1.03-2.34 1.31c-0.2 0.07-0.41 0.12-0.61 0.17c-0.21 0.05-0.42 0.08-0.63 0.11c-0.21 0.03-0.42 0.04-0.63 0.05c-0.21 0.01-0.42 0.01-0.64-0.01c0.18 0.11 0.35 0.24 0.52 0.37c0.17 0.13 0.33 0.27 0.48 0.41c0.15 0.15 0.3 0.3 0.44 0.46c0.14 0.16 0.27 0.32 0.4 0.5c0.53 0.73 0.91 1.56 1.12 2.43c0.21 0.88 0.25 1.79 0.11 2.68c-0.14 0.89-0.46 1.75-0.93 2.51c-0.47 0.77-1.09 1.44-1.82 1.97c-0.73 0.53-1.56 0.91-2.43 1.12c-0.88 0.21-1.79 0.25-2.68 0.11c-0.89-0.14-1.75-0.46-2.51-0.93c-0.77-0.47-1.44-1.09-1.97-1.82c-0.12-0.17-0.24-0.35-0.35-0.53c-0.11-0.18-0.21-0.37-0.3-0.56c-0.09-0.19-0.17-0.39-0.25-0.59c-0.07-0.2-0.14-0.4-0.19-0.61c-0.05 0.21-0.12 0.41-0.19 0.61c-0.07 0.2-0.15 0.39-0.25 0.59c-0.09 0.19-0.19 0.38-0.3 0.56c-0.11 0.18-0.22 0.36-0.35 0.53c-0.53 0.73-1.2 1.35-1.97 1.82c-0.77 0.47-1.62 0.79-2.52 0.93c-0.89 0.14-1.8 0.11-2.68-0.11c-0.88-0.21-1.7-0.59-2.43-1.12c-0.73-0.53-1.35-1.2-1.82-1.97c-0.47-0.77-0.79-1.62-0.93-2.51c-0.14-0.89-0.11-1.8 0.11-2.68c0.21-0.88 0.59-1.7 1.12-2.43c0.12-0.17 0.26-0.34 0.4-0.5c0.14-0.16 0.29-0.31 0.44-0.46c0.15-0.15 0.31-0.28 0.48-0.41c0.17-0.13 0.34-0.25 0.52-0.37c-0.21 0.01-0.42 0.01-0.64 0.01c-0.21-0.01-0.42-0.03-0.63-0.05c-0.21-0.03-0.42-0.06-0.63-0.11c-0.21-0.05-0.41-0.1-0.61-0.17c-0.86-0.28-1.65-0.72-2.34-1.31c-0.69-0.59-1.25-1.3-1.66-2.1c-0.41-0.8-0.66-1.68-0.73-2.58c-0.07-0.9 0.04-1.8 0.31-2.66c0.28-0.86 0.72-1.65 1.31-2.34c0.59-0.69 1.3-1.25 2.11-1.66c0.8-0.41 1.68-0.66 2.58-0.73c0.9-0.07 1.8 0.04 2.66 0.31c0.2 0.07 0.4 0.14 0.59 0.22c0.19 0.08 0.39 0.18 0.57 0.28c0.19 0.1 0.37 0.21 0.54 0.33c0.18 0.12 0.35 0.24 0.51 0.38c-0.08-0.2-0.14-0.4-0.2-0.6c-0.06-0.2-0.11-0.41-0.15-0.62c-0.04-0.21-0.07-0.42-0.09-0.63c-0.02-0.21-0.03-0.42-0.03-0.63c0-0.9 0.18-1.78 0.52-2.61c0.34-0.83 0.84-1.58 1.47-2.22c0.63-0.64 1.38-1.14 2.21-1.49c0.83-0.35 1.71-0.53 2.61-0.54zm0.03 11.64c-0.85 0-1.7 0.18-2.49 0.51c-0.79 0.33-1.5 0.81-2.11 1.42c-0.6 0.61-1.08 1.32-1.41 2.11c-0.33 0.79-0.49 1.64-0.49 2.49c0 0.86 0.17 1.71 0.5 2.5c0.33 0.79 0.81 1.51 1.42 2.12c0.61 0.61 1.33 1.09 2.12 1.41c0.79 0.33 1.64 0.5 2.5 0.5c0.86 0 1.71-0.17 2.5-0.5c0.79-0.33 1.51-0.81 2.12-1.41c0.61-0.61 1.09-1.33 1.42-2.12c0.33-0.79 0.5-1.64 0.5-2.5c0-0.86-0.17-1.71-0.5-2.5c-0.33-0.79-0.81-1.51-1.42-2.12c-0.61-0.61-1.33-1.09-2.12-1.41c-0.79-0.33-1.64-0.5-2.5-0.5c0 0-0.01 0-0.01 0c0 0-0.01 0-0.01 0c0 0-0.01 0-0.01 0c0 0-0.01 0-0.01 0z" />
				</g>
			</g>
			<g >
				<g >
					<path fill-rule="evenodd" class="s2" d="m121.17 82.91l4.83-4.83c2.9-2.9 7.56-2.9 10.46 0l4.83 4.83c2.9 2.9 2.9 7.56 0 10.45l-4.83 4.83c-2.9 2.9-7.56 2.9-10.46 0l-4.83-4.83c-2.9-2.9-2.9-7.56 0-10.45z" />
					<path fill-rule="evenodd" class="s1" d="m248.18 227.56l-34.64 15.53l-63.78-49.39l-1.6-69.33l3.06-3.39c-7.99-5.05-9.53-12.76-9.83-15.82c-1.68 1.23-3.02 1.89-3.02 1.89v-30.61c0-2.21 4.78-5.15 4.78-5.15c0 0 4.78 2.94 4.78 5.15v-1.81c0-2.21 4.78-5.15 4.78-5.15c0 0 4.78 2.94 4.78 5.15v-1.81c0-2.21 4.78-5.15 4.78-5.15c0 0 4.78 2.94 4.78 5.15v-1.81c0-2.21 4.78-5.15 4.78-5.15c-0.01 0.08-0.02 0.15-0.03 0.23l0.05-0.21c0.21-1.11 0.57-2.26 1.16-3.47c0 0 7.27 6.52 15.07 11.73l0.35 26.38c0 0-3.88 13.08-17.39 20.21l2.37 3.39l11.08 56.78l56.24 27.71l7.44 18.94z" />
					<path class="s3" d="m171.81 65.86c-1.36 7.26 4.38 12.35 4.38 12.35c-2.13 10.12-0.77 18.43-0.77 18.43c0 0-3.43 1.07-8.39 5.52l0-29.34m0 21.81c0 7.73-9.55 12.42-9.55 12.42l0-32.42m0 20c0 7.73-9.55 12.42-9.55 12.42l0-30.61m-6.53 28.72c2.77-2.08 6.53-5.82 6.53-10.54" />
					<path fill-rule="evenodd" class="s1" d="m194.89 71.62c0 0 17.92 4.14 27.45 4.27l222.93 2.96c3.85 0.05 14.5 3.97 22.96 8.7c-8.46 4.73-19.12 9.85-22.96 9.9l-222.93 2.96c-9.53 0.13-27.45 4.27-27.45 4.27l0-33.04z" />
					<path fill-rule="evenodd" class="s4" d="m185.31 48.24c0 0 2.49-1.05 8.74-1.05c6.26 0 8.74 1.05 8.74 1.05c-5.33 25.08-0.02 39.31-0.02 39.31c0 0-5.31 13.03 0.02 38.11c0 0-2.49 1.05-8.74 1.05c-6.26 0-8.74-1.05-8.74-1.05c5.33-25.08 0.02-38.11 0.02-38.11c0 0 5.31-14.22-0.02-39.31z" />
					<path fill-rule="evenodd" class="s2" d="m148.39 119.69h26.96c2.17 0 3.92 1.75 3.92 3.92v3.2c0 2.17-1.75 3.92-3.92 3.92h-26.96c-2.17 0-3.92-1.75-3.92-3.92v-3.2c0-2.17 1.75-3.92 3.92-3.92z" />
					<path fill-rule="evenodd" class="s4" d="m182.71 192.04c-4.88 6.69-8.97 14.79-12.61 22.36l-21.84-10.29l-3.02-23.6h29.3c0 0 2.49-13.49 12.61-16.51c0.88 9.16 6.67 16.95 15.8 18.46c0 0-2.66 11.54-20.24 9.58v0z" />
					<path fill-rule="evenodd" class="s5" d="m167.42 102.63c-4.49 4.13-7.73 9.83-7.73 9.83c0 0 0.77-5 6.97-10.78l0.77 0.95v0z" />
				</g>
				<g >
					<path fill-rule="evenodd" class="s4" d="m186.59 502.12c0 0-34.65-21.84-43.44-26.1c-8.79-4.27-12.55-4.77-18.33-1.25c-5.78 3.51-1.51 8.28-1.51 8.28c-4.27 0.5-8.79-1.76-10.55-6.78c-1.76-5.02 5.02-9.79 5.02-9.79c-3.77-4.52-1.76-11.55 8.79-14.06c10.55-2.51 16.32-7.03 16.32-7.03c0 0 1.76 7.03-3.52 10.79c0 0 10.8 2.26 24.11 9.79c13.31 7.53 35.66 17.07 35.66 17.07l-12.55 19.08z" />
					<path fill-rule="evenodd" class="s1" d="m201.48 482.96c0 0 51.82 29.12 102.99 29.12c51.16 0 80.82-11.55 93.37-17.07c0 0 15.07 15.06 35.66 16.06c-3.42 4.12-45.07 34.9-113.89 34.85c-76.22-0.06-131.18-41.87-131.18-41.87l13.06-21.08z" />
					<path fill-rule="evenodd" class="s4" d="m194.35 503.07c-2.85 5.26-8.97 17.45-8.97 17.45c0 0 6.14 2.07 5.37 7.68c-0.77 5.61-5.99 7.57-10.8 5.38c-4.81-2.19-6.83-6.84-3.97-12.9c2.86-6.06 8.08-15.57 10.63-21.36c2.55-5.79-0.32-10.26-0.32-10.26c0 0 6.67-4.18 9.01-7.94c2.32-3.73 9.33-18.69 9.33-18.69c-2.38-0.09-6.5-2.25-5.73-7.86c0.77-5.61 6.35-6.86 11.16-4.67c4.81 2.19 5.94 7.37 3.61 12.72c-2.33 5.35-8.08 16.99-10.63 22.78c-2.55 5.79-0.21 12.03-0.21 12.03c0 0-5.63 0.37-8.48 5.63h0z" />
					<path fill-rule="evenodd" class="s5" d="m204.54 462.78l-1.62-1.32c2.55 0.82 4.67-0.88 4.67-0.88c0 0-1.05 1.85-3.04 2.2zm-19.04 57.76c-2.01 0.22-3.18 1.99-3.18 1.99c0 0 2.23-1.56 4.71-0.57l-1.53-1.42z" />
				</g>
				<g >
					<path fill-rule="evenodd" class="s4" d="m265.56 386.28c16.05-13.87 12.06-25.23 9.24-29.74c-3.77 4.27-8.04 4.77-8.04 4.77c-1.26-1.51-5.27-4.27-5.27-4.27c7.17-8.66 2.99-15.59 13.06-18.82c-10.55-4.02-6.28-13.8-6.28-13.8l7.03-3.01c0 0 0.72 6.97 4.77 9.29c4.05 2.31 10 3.41 29.88-10.29c21.12-14.57 40.18-19.83 40.18-19.83l30.38 16.31l-1.26 21.33c0 0-14.31 8.78-28.12 12.55c-13.81 3.76-23.35 9.54-29.38 17.32c-6.03 7.78 2.51 14.56 2.51 14.56l-2.76 15.06c-17.58 5.52-14.06 21.33-14.06 21.33l-6.78 2.76c-5.78-3.26-4.52-11.8-4.52-11.8c-7.78 8.53-3.01 14.56-3.01 14.56l-7.78 2.76c-5.78-4.27-2.76-11.55-2.76-11.55c-6.78 6.27-2.51 12.8-2.51 12.8l-7.03 3.01c-5.52-3.26-4.48-7.76-4.27-9.79c-5.23 5.08-2.52 11.28-2.52 11.28l-6.57 3.68c0 0-2.97-1.14-4.41-4.61c-17.6 5.69-14.71 13.92-15.77 17.94c-1.05 4.03-5.84 5.17-5.84 5.17c-3.1 7.65-13.29 11.71-17.44 8.35c4.43-2.85 6.62-6.18 6.64-10.86c0 0-4.36-2.15-4.59-4.64c-0.24-2.49 1.8-4.94-0.84-5.43c-2.65-0.5-9.09 0.01-18.99 7.42c-9.9 7.41-13.58 13.09-16.14 12.27c-2.21-0.71-3.01-1.63-5.56-2.54c-6.75 4.07-7.04 12.86-6.75 18.55c-13.41-10.3-6.62-27.57 0.54-33.36c-0.58-1.84-1.63-3.67-0.63-5.05c1.58-2.17 7.74-2.3 12.49-4.38c-10.72-4.5-17.98-0.73-21.65-4.84c-3.67-4.1-1.73-7.61-1.73-7.61c-7.59-2.12-12.73 1.1-17.99 7.07c-2.97-14.29 12.11-23.77 21.75-20.77c2.43-3.81 5.74-3.98 9.08-0.8c3.39 3.22 17.2 6.55 17.2 6.55c-8.19-6.94-14.5-9.62-14.47-12.06c0.03-2.44 2.57-5.64 2.57-5.64c-5.62-5.52-12.19-3.92-16.06-3.14c3.7-11.55 21.61-11.35 27.24-5.49c3.71-2.47 6.59-2.51 8.43 1.95c1.84 4.46 4.16 12.44 14.84 16.39c10.68 3.96 37.9-7.04 53.95-20.91l0 0z" />
					<path fill-rule="evenodd" class="s5" d="m285.77 344.32c-5.38 1.74-6.06 6.85-10.48 12.59l-0.97-0.75c4.37-4.98 4.11-10.78 11.45-11.84zm9.85 65.37c0 0 3.69-6.69 1.08-11.78c4.14 5.2-0.01 12.39-0.01 12.39l-1.07-0.6l0 0zm-11.35-6.28c3.22 5.83-1.16 12.68-1.16 12.68l-1.04-0.65c0 0 3.95-6.5 2.19-12.03zm-16.02 18.08c1.89-3.75 2.92-7.25 2-11.69c2.4 3.26 0.88 8.54-0.93 12.29l-1.07-0.6zm-79-6.9l0 0c0 0 0 0 0 0zm0 0c0.01 0 4.67 1.47 9.32 2.42c-4.94 0.25-9.69-1.26-9.69-1.26l0.37-1.16zm68.21 2.31c3.65 7.24-2.51 8.29-1.57 15.1l-1.18 0.29c-0.43-8.23 4.27-7.18 2.75-15.39zm-75.21 18.09c0 0 8.72-2.24 14.37-3.77c-5.35 2.72-14.07 4.96-14.07 4.96l-0.3-1.18h0z" />
					<path class="s6" d="m374.87 331.53c-6.93-14.58-22.81-18.41-22.81-18.41c2.76-4.27 7.28-6.02 7.28-6.02" />
				</g>
				<g >
					<path fill-rule="evenodd" class="s4" d="m440.11 100.43c14.01 0 24.81 4.32 32.11 9.61c13.26 9.61 19.79 26.88 16.47 44.47c-3.21 17.03-11.54 27.65-19.61 34.71c-7.46 6.54-12.35 9.55-14.54 11.34c7.29 5.49 12.65 10.87 17.56 17.53c3.01 4.07 5.35 8.48 7.03 13.11c9.56-8.47 16.8 0.52 16.8 0.52c0 0 1 3.76 0.5 9.29c0 0-7.38-5.26-14.41 3.52c0.13 1.72 0.2 3.45 0.16 5.19c9.07-5.49 14.06 3.02 14.06 3.02c0 0 0.44 4.84-1.27 10.05c0 0-7.96-7.7-16.32 4.96c11.69-1.8 12.48 8.76 12.48 8.76c0 0-1.74 4.54-5.57 8.46c0 0-3.29-9.15-14.47-3.99c-8.72 10.98-21.08 16.48-31.8 18.06c-13.48 1.99-22.03-0.69-22.03-0.69c0 0 7.27 11.1 16.31 5.83c0 0 0.75 5.02-0.75 8.03c0 0-4.27 4.52-10.8 2.26c4.16 2.08 5.96 7.12 12.81 3.51c0 0 1.47 5 0.1 9.29c0 0-5.43 3.88-12.29-0.27c4.32 2.79 6.34 7.47 14.69 3.53c0.69 2.57 0.57 5.86-0.75 8.78c0 0-2.26 3.51-7.03 2.76c0 0 7.95 16.15 24.78 8.87l14.31 8.28c0 0-0.5 10.04 4.52 14.81c5.02 4.77 10.04 6.27 14.56 5.52v10.29c0 0-6.03 2.76-13.31-1.5c4.5 3 5.75 8.14 13.56 8.53l-0.5 10.04c0 0-5.78 1.76-13.81-4.52c4.3 4.32 5.23 10.52 14.31 10.79l-1.25 10.04c0 0-4.97 2.24-12.69-2.68c5.55 3.59 5.93 7.87 13.44 7.2l-0.5 9.29c0 0-3.26 2.76-8.97 0.6c-4.92 12.05 0.93 21.68 3.51 26.45c2.59 4.77-3.2 7.33-3.2 7.33c2.97 7.7-2.9 16.35-8.23 16.73c1.28-5.1 0.47-10.28-1.84-13.15c0 0-4.65 1.41-6.52-0.25c-1.87-1.66-1.53-4.64-3.8-3.19c-2.27 1.45-3.86 5.78-6.26 11.55c-2.4 5.77-0.72 14.37-3.63 16.42c-2.91 2.05-4.4 1.54-6.89 2.62c-2.14 7.58 2.9 15.24 5.44 18.26c-13.93-0.04-20.04-12.82-18.77-21.94c-1.68-0.95-3.7-1.56-3.91-3.25c-0.33-2.67 4.08-6.97 6.12-11.73c-10.5 2.64-17.25 11.02-20.68 10.32c-3.43-0.7-4.16-4.13-4.16-4.13c-6.99 3.64-10.75 11.91-9.96 19.35c-11.94-8.4-5.75-27.52 3.34-31.91c0.83-6.34 1.91-8.78 8.21-8.74c6.38 0.05 14.5-3.26 14.5-3.26c-10.22 1.43-14.96 0.82-16.61-0.98c-1.65-1.8-1.43-6.38-1.43-6.38c-7.88-0.19-12.13 5.98-14.42 9.19c-4.33-10.4 5.67-22.46 15.75-21.92c1.73-6.26 5.16-4.14 9.55-2.14c4.39 2 11.54 3.58 18.81 2.79c11.55-1.25 12.3-15.81 8.04-36.39c-4.27-20.58-17.24-26.36-25.59-27.25c-8.35-0.89-17.27-2.91-17.27-2.91c4.62 7.03-4.26 14.61 1.13 23.22c-3.61 0.87-7.08 1.01-10.04-1.38c-2.64-3.14-1.63-8.91-1.63-8.91c-6.03 3.51-10.8 0.25-11.05 0.13c-2.13-2.76-2.39-7.6-2.39-7.6c0 0 5 2.11 10.83-3.2c5.83-5.31 1.68-14.7-4.08-29.82c-5.66-14.87-4.39-25.41-17.78-38.62c-13.39-13.21-30.75-19.58-55.27-26.32c-24.52-6.73-33.66-16.06-33.66-16.06c-1.35 2.74-0.18 7.1-0.18 7.1c-2.66 2.66-9.41 3.02-9.41 3.02c-6.04-5.15-2.48-13.49-2.48-13.49c-2.87 4.84-5.65 5.43-3.55 15.09l-8.52 1.95c-7.28-4.44-4.97-12.42-3.55-15.79c-6.55 7.86-7.68 8.36-4.44 17.22l-8.88 2.48c-8.7-4.79-4.44-14.38-4.44-14.38c-3.83 7.17-6.78 7.43-5.15 15.62l-9.94 2.66c-6.04-5.5-1.42-13.67-1.42-13.67c-3.81 5.84-6.57 5.13-6.04 14.38c-4.08 2.13-10.12 2.31-10.12 2.31c-2.66-2.13-2.96-5.5-2.96-5.5c-22.37 0-23.62 10.65-24.5 14.38c-0.89 3.73-5.51 2.66-5.51 2.66c-2.78 7.33-12.07 6.67-15.27 4.61c4.44-2.05 6.39-4.67 6.57-8.16c0 0-3.37-1.06-3.37-3.02c0-1.95 1.24-4.62-1.42-4.97c-2.66-0.35-7.02 0.25-12.5 3.26c-5.48 3.01-9.54 10.77-13.09 10.56c-3.55-0.21-4.4-1.54-7.02-2.25c-6.41 4.59-6.58 11.68-6.48 15.62c-11.02-6.92-10.39-21.5-2.02-27.13c-0.72-1.79-1.53-3.22-0.64-4.67c1.41-2.29 5.74-3.2 12.4-5.33c-10.24-4.18-18.25-1.32-20.84-3.68c-2.59-2.36-1.46-5.68-1.46-5.68c-7.87-0.45-12.32 5.07-14.73 8.2c-4.23-12.3 5.42-23.26 15.47-22.38c1.46-4.76 3.45-6.85 12.23-2.22c9.09 4.79 18.95 6.26 18.95 6.26c-11.05-5.52-17.37-10.39-17.65-12.81c-0.28-2.42 2.59-6.01 2.59-6.01c-6.27-4.77-13.33-2.26-17.07-1c2.59-10.96 17.76-14.87 25.61-8.53c4.08-3.9 6.46-4.67 11.8 5.27c5.52 10.29 15.02 18.9 31.95 16.28c16.93-2.63 36.5-13.94 53.19-22.88c16.69-8.95 20.93-21.03 20.93-21.03l13.71-6.34l75.33 1.01c0 0 12.05 24.6 28.62 38.65c16.57 14.06 36.41 29.51 48.18 33.9c11.77 4.39 19.75 5.81 30.41 4.23c10.27-1.51 22.55-7.63 28.49-21.57c6.14-14.39 4.2-27.7-4.16-39.04c-4.58-6.21-9.73-10.29-17.76-15.94c-3.1 2.83-12.34 9.22-9.33 23.78c3.01 14.56-5.78 23.59-5.78 23.59h-27.62c2.48-4.54 3.51-11.29 1.25-16.31c-2.26-5.02-5.52-12.3 0-22.84c5.52-10.54 18.54-16 23.8-19.04c-3.72-2.16-5-3.86-16.62-11.02c-11.61-7.16-23.17-24.23-21.71-43.2c1.41-18.36 15.54-38.43 37.04-42.74c5.37-1.08 10.4-1.56 15.07-1.55l0 0zm33.82 320.02c0.04 0.03 0.08 0.05 0.12 0.08c-0.04-0.03-0.08-0.05-0.12-0.08zm-51.64-93.7c0.12 0.08 0.25 0.16 0.37 0.23c-0.12-0.08-0.25-0.16-0.37-0.23zm20.01-210.27c5.15 5.86-0.18 13.49-0.18 13.49c-4.26 1.6-9.41 0.18-9.41 0.18c3.73-11.18-6.72-12-6.72-12c4.91 5.76 1.31 12.32 1.31 12.32c0 0-4.44 0.9-9.39 0.75c1.06-5.08-4.48-9.86-9.61-3.66c-5.13 6.19-6.49 11.36-6.99 17.91c-0.97 12.7 6.78 25.68 18.4 33.23c11.62 7.54 15.65 8.18 21.34 12.3c5.26-2.66 10.95-5.53 15.65-9.1c9.58-7.29 16.79-16.11 19.37-29.77c2.47-13.09-2.44-25.21-11.39-31.69c-2-1.45-4.24-2.7-6.67-3.73c3.55 6.49 0.26 12.39 0.26 12.39c-3.73 1.77-9.23 0.71-9.23 0.71c3.55-11.71-6.75-13.31-6.75-13.31z" />
					<path fill-rule="evenodd" class="s5" d="m413.53 220.61c-2.97 3.84-5.52 10.08-0.38 19.33c5.14 9.25-0.74 17.12-0.74 17.12h-2.56c0 0 6.46-7.9 1.36-17.07c-5.1-9.17-1.82-16.11 2.31-19.37zm12.61 0c-2.97 3.83-6.22 8.07-2.01 18.6c4.21 10.53-1.68 17.84-1.68 17.84h-2.08c0 0 5.88-6.88 2.18-17.34c-3.69-10.45-1.31-15.09 3.58-19.11zm-146.13 23.42c-0.86 4.5 0.13 8.57 2.16 11.06c-4.8 10.05-7.46 15.68-7.46 15.68l-1.13-0.47c0 0 2.47-5.83 7.19-15.31c-2.13-2.61-2.82-6.72-0.76-10.96zm-15.27 9.58c1.62 6.27-2.11 13.82-2.11 13.82l-1.1-0.53c0 0 3.53-7.45 3.21-13.28zm-17.76 15.1l-1.06-0.61c1.78-3.08 3.85-7 3.9-10.75c1.24 4.13-1.05 8.26-2.85 11.36zm-17.73 5.26l-1.12-0.49c0 0 3.38-5.76 4.11-10.64c1.19 3.7-2.99 11.13-2.99 11.13zm-90.88-6.99c-5.25 0.07-8.69-0.8-8.69-0.8l0.3-1.18c0 0 3.34 0.85 8.39 1.98zm77.18 1.18c1.13 3.43-0.8 7.08-2.83 10.46l-1.08-0.57c1.52-2.89 3.89-5.89 3.91-9.89zm-21.87 21.32l-1.23 0.07c0.22-6.86 4.39-7.18 4.46-14.47c1.9 5.1-2.94 9.13-3.23 14.4zm-60.1-7.78c-3.94 1.66-13.22 3.98-13.22 3.98l-0.3-1.19c0 0 9.29-2.31 13.52-2.78zm281.37 29.82c0 0 3.92 0.46 7.39 2.38l-0.6 1.07c-3.31-1.83-6.79-3.45-6.79-3.45zm1.54 12.05c2.08 0.14 4.17 1.21 6.1 2.63l-0.61 1.06c-2.24-1.29-4.37-3.23-7.57-3.5c0.69-0.18 1.38-0.24 2.07-0.19zm3.34 14.9c3.12 0.05 6.19 2.55 9.79 2.96l-0.11 1.22c-3.28-0.33-6.53-3-10.31-4.16c0.21-0.02 0.42-0.03 0.62-0.02l0 0zm42.81 43.57c6.52-0.25 9.48 4.24 12.09 5.73l-0.61 1.07c-3.27-1.87-4.93-5.57-12.84-6.68c0.47-0.06 0.92-0.1 1.35-0.11l0 0zm-0.89 14.06c5.74-0.1 9.84 3.68 12.32 5.8l-0.8 0.93c-2.68-2.29-6.86-6.12-12.7-6.66c0.4-0.04 0.79-0.07 1.17-0.07v0zm12.49 23.81l-0.63 1.05c-3.38-2.07-5.22-6.33-9.83-8.28c4.72 0.24 6.71 4.92 10.47 7.23zm-10.29 9.27c5.8-0.28 9.41 4.43 14.32 7.87l-0.5 1.11c-4.16-1.97-7.89-7.7-13.81-8.98zm-42.51 36.47l-0.34-1.18c0 0 4.85-1.44 9.12-2.46c-3.89 2.18-8.78 3.63-8.78 3.63zm15.87 8.08c-3.04 4.25-6.77 10.03-6.77 10.03l-1.03-0.66c0 0 3.74-5.82 7.8-9.37z" />
					<path class="s6" d="m444 209.77c3.68-3.59 6.52-6.04 10.53-9.22m-28.21-1.61c6.17-3.23 9.07-5.07 14.72-7.96" />
				</g>
				<g >
					<path fill-rule="evenodd" class="s4" d="m217.25 134.28c4.85-7.86 18.94-7.17 21.05-2.15c0 0-6.68 2.52-7.15 7.78c-0.47 5.26 0.37 12.21 27.24 9.45c26.87-2.76 41.25 14.55 41.25 14.55l-0.15 6.82c0 0-2.51-5.77-17.07-10.79c-14.56-5.02-26.62-1-47.71-0.5c-21.09 0.5-22.31-17.28-17.46-25.14v0z" />
					<path fill-rule="evenodd" class="s4" d="m325.29 81.16l8.48 21.46c-2.33 8.33-2.57 14.22-2.57 14.22c5.5 1.95 12.61-0.89 12.61-0.89l-0.18 8.7c-4.97 6.03-14.74 3.73-14.74 3.73c6.75 7.28 17.58 6.03 17.58 6.03l-1.24 8.4c-6.21 5.32-14.56 0.35-14.56 0.35c6.83 6.66 9.25 7.04 17.76 6.57l-2.66 9.58c-6.39 4.79-16.16-2.31-16.16-2.31c6.52 7.54 9.27 8.33 18.64 7.99c0 0-0.36 6.74-1.78 11c-7.37 3.24-12.52-2-19.26-4.7c10.51 8.85 6.58 13.31 20.33 13.58l-1.95 9.94c-8.88 6.03-19.18-4.26-19.18-4.26c8.28 9.85 6.12 17.13 21.48 18.99c-0.47 3.44-1.99 8.01-4.44 11.54c-10.74 0.45-16.03-4.59-21.66-11.71c3.39 8.71-1.2 13.96 6.04 23.25c-4.21 1.33-6.7 1.56-10.48 1.77c-6.55-5.27-6.93-12.68-9.94-19.88c-1.53 11.73-7.26 13.21-1.95 21.83c-2.44 0.74-7.44 0.47-10.3-0.53c-6.21-5.32-4.97-17.57-4.97-17.57c-9.94 7.99-6.75 17.93-6.75 17.93c-3.79-0.35-7.28-1.19-10.12-2.48c-3.2-5.86-1.42-14.2-1.42-14.2c-9.06 3.9-8.7 12.78-8.7 12.78l-8.52-2.66c-3.2-8.16 2.13-16.33 2.13-16.33c-12.47 6.16-21.56 1.98-31.66 7.81c0.18-3.73-2.49-9.05-2.49-9.05c6.09-8.01 16.21-6.2 26.46-11.54c-6.57 2.48-12.78-1.77-12.78-1.77c-1.95-3.9-1.24-9.05-1.24-9.05c10.65 3.19 17.58-8.7 16.87-13.13c-0.71-4.44 0.18-6.57 0.18-6.57c3.91 0 7.63-1.42 7.63-1.42c1.95-9.76 7.4-9.41 7.4-9.41c-0.71 3.19-0.74 9.51 3.34 16.08c4.09 6.57 18.3 9.48 23.9-2.72c5.59-12.2 4.57-23.24-0.29-33.16c-4.86-9.92-11.93-11.18-19.67-7.48c-7.74 3.7-8.7 15.22-8.7 15.22c-4.97-3.9-4.79-10.47-4.79-10.47c-4.26-0.71-8.35-1.95-8.35-1.95c-2.66-5.32-2.66-12.42-2.66-12.42c-7.46-3.02-9.59-8.34-9.59-8.34c0 0 9.59-16.86 12.07-21.12c2.49-4.26 1.95-5.15 1.07-7.28c0 0 1.54-7.01 10.59-17.48l61.2 13.16z" />
					<path fill-rule="evenodd" class="s5" d="m267.76 90.26c2.75 3.06 7.87 7.4 14.26 7.16c-3.12 1.53-7.45-0.17-7.45-0.17c-6.15 5.58-11.36 4.97-11.36 4.97c1.31-0.45 2.31-0.92 3.35-1.64c-3.51-3.64-1.44-7.48-0.23-9.73c-1.49-2.4-3.75-3.09-4.83-3.09c0.56-0.3 1.11-0.49 1.65-0.54c1.62-0.16 2.54 0.74 4.61 3.04zm38.57-1.27c-3.68 1.93-8.86 1.64-8.86 1.64c0 0 4.8-0.67 8.2-2.68l0.66 1.04zm-40.07 7.22c0 2.36 1.46 3.92 1.46 3.92c3.91-1.85 5.64-3.9 5.64-3.9c-2.45-0.75-5.86-4.16-5.86-4.16c0 0-1.24 1.79-1.24 4.15zm45.58-3.72c1.01-0.03 2.03 0.27 2.89 1.22c2.73 3.05-1.99 6.15-1.99 6.15c0 0 1.29-3.18-0.04-4.77c-1.33-1.59-5.2-0.82-5.2-0.82c0 0 2.13-1.71 4.34-1.78zm11.44 4.8c-1.15 2.29-2.82 5.5-7 6.82c3.16-2.34 4.76-5.07 5.92-7.39l1.08 0.57zm-8.78 11.08c6.18 0.33 10.88 5.28 16.88 7.88l-0.38 1.16c-5.37-1.83-9.95-7.54-16.5-9.04zm-56.65 7.12c0.88 0.25 1.92 2.29-0.38 4.27c-2.29 1.98-5.78 2.01-5.78 2.01c0 0 3.71-1.57 5.03-3.04c1.32-1.47 1.1-2.33 1.12-3.23zm58.41 7.03c4.34-0.04 8.5 3.14 12.84 5.28l-0.43 1.15c-4.2-1.62-7.91-5.81-13.28-6.37c0.29-0.03 0.58-0.05 0.87-0.05v0zm1.79 15.14c8.27 0.12 13.05 5.08 13.05 5.08l-0.88 0.85c0 0-4.46-4.63-12.17-5.93zm11.96 18.9l-0.82 0.9c0 0-4.41-4.07-11.13-3.82c0.89-0.19 1.75-0.29 2.56-0.31c5.7-0.17 9.39 3.24 9.39 3.24zm-8.54 12.44c3.66 0.08 6.08 1.79 6.08 1.79l-0.7 1c0 0-2.87-2.03-7.02-2.72c0.57-0.06 1.12-0.09 1.64-0.07v0zm5.43 21.19l-1 0.71c0 0-2.47-3.51-7.84-4.79c6 0.13 8.85 4.08 8.85 4.08zm-77.6 10.88l-0.4-1.16c0 0 3.94-1.37 6.48-4.74c-1.73 4.44-6.08 5.91-6.08 5.91zm7.91 12.65l-0.83-0.9c0 0 4.42-4.07 5.03-11.08c0.61 7.54-4.2 11.99-4.2 11.99zm65.13-4.61l-1.11 0.52c0 0-1.84-4.03-6.73-6.64c5.77 1.65 7.84 6.13 7.84 6.13zm-47.25-3.65c2.61 9.01-2.77 14.45-2.77 14.45l-0.86-0.87c0 0 4.92-4.84 3.63-13.58zm15.63 13.08l-1.07-0.61c0 0 3.05-5.34 0-11.94c4.41 6.53 1.07 12.55 1.07 12.55zm17.29-4.1l-1.22 0.13c0 0-0.32-2.9-2.76-5.21c3.59 1.6 3.98 5.08 3.98 5.08z" />
					<path fill-rule="evenodd" class="s4" d="m264.08 68.01c8.54-19.54 11.49-50.92 11.49-50.92c5.19 0.39 12.01 5.56 10.67 14.02c5.9 2.59 9.54 7.95 6.47 16.43c-2.96-1.25-5.89-2.56-8.2 0.19c-2.31 2.75-1.67 5.53 1.24 6.46c2.91 0.93 6.2-3.51 6.2-3.51l6.04 2.5c0 0-2.28 5.42 1.81 7.14c4.1 1.73 7.45-2.5 5.49-7.31c-1.96-4.81-7.9-3.65-7.9-3.65c1.59-9.82 8.28-10.57 12.33-8.35c5.12-6.87 11.26-6.58 12.78-6.66c1.01 1.14 5.28 5.87 3.94 14.33c4.02 1.8 6.76 8.42 2.25 14.07c0 0-2.86-4.66-7.67-2.7c-4.81 1.96-5.35 6.95-1.25 8.68c4.1 1.73 6.92-3.47 6.92-3.47l6.26 3.16c0 0-2.61 5.5 0.1 7.37c2.71 1.87 5.28 0.76 6.46-2.63c1.18-3.39-1.58-5.91-5.71-7.63c5.42-7.74 11.54-8.55 17.79-2.71c6.58-4.48 15.51-1.66 18.5 2.6c0 0-22.31 17.6-36.32 37.2l-11.02-5.61c1.39-4.58 1.22-8.42-0.12-10.64c-9.47-3.34-12.53 0.69-16.63 2.1l-41.91-20.47z" />
				</g>
				<g >
				</g>
			</g>
		</g>
	</g>
</svg>