<svg version="1.2" baseProfile="tiny-ps" xmlns="http://www.w3.org/2000/svg" viewBox="0 0 600 600" width="600" height="600">
	<title></title>
	<defs>
		<clipPath clipPathUnits="userSpaceOnUse" id="cp1">
			<path d="m300 587.77c-162.44 0-293.73-131.3-293.73-293.73c0-162.44 131.3-293.73 293.73-293.73c162.44 0 293.73 131.3 293.73 293.73c0 162.44-131.3 293.73-293.73 293.73z" />
		</clipPath>
	</defs>
	<style>
		tspan { white-space:pre }
		.s0 { fill: #00b0ca;stroke: #000000;stroke-width: 1.1 } 
		.s1 { fill: #fed100;stroke: #000000;stroke-linecap:round;stroke-linejoin:round;stroke-width: 1.1 } 
		.s2 { fill: #fed100;stroke: #000000;stroke-linecap:round;stroke-linejoin:round;stroke-width: 6.9 } 
		.s3 { fill: #00b0ca;stroke: #000000;stroke-linecap:round;stroke-linejoin:round;stroke-width: 1.1 } 
		.s4 { fill: none;stroke: #000000;stroke-linecap:round;stroke-linejoin:round;stroke-width: 1.1 } 
		.s5 { fill: #fed100 } 
	</style>
	<path class="s0" d="m300 588.77c-162.44 0-293.73-131.3-293.73-293.73c0-162.44 131.3-293.73 293.73-293.73c162.44 0 293.73 131.3 293.73 293.73c0 162.44-131.3 293.73-293.73 293.73z" />
	<g >
		<g clip-path="url(#cp1)">
			<g >
				<g >
					<path class="s1" d="m210.35 452.97l18.6-27.91c16.51 9.59 32.41 18.61 59.15 20.67l11.52 13.84l-16 13.65l-11.22-13.47l7.39-6.42l3.53 3.94l-3.1 2.62l4.32 5.25l6.7-5.72l-6.25-7.39c-23.36-3.19-39.29-10.44-56.21-19.8l-14.39 22.9l-4.04-2.12l-0.01-0.02z" />
					<path class="s1" d="m273.98 317.81l-266.53 2.47c-0.22-2.41-0.36-4.84-0.52-7.28l266.41 2.47l-267.06-20.83v-0.59c0-2.27 0.02-4.5 0.06-6.77l267.39 25.91l-266.34-44.45c0.2-2.45 0.45-4.88 0.72-7.3l266.27 49.55l-263.59-68.11c0.42-2.41 0.88-4.83 1.36-7.22l262.77 73.11l-258.47-91.41c0.66-2.39 1.31-4.78 2.02-7.16l257.23 96.42l-251.31-114.33c0.88-2.34 1.81-4.66 2.73-6.97l250 119.41l-242.38-136.92c1.08-2.25 2.19-4.42 3.31-6.64l239.33 141.08l-230.02-157.94c1.3-2.16 2.58-4.32 3.91-6.45l227.67 162.56l-216.92-178.47c1.47-2.03 2.97-4.06 4.48-6.05l214.13 183.02l-201.81-197.98c1.67-1.92 3.34-3.85 5.08-5.73l198.44 202.16l-184.77-216.02c1.83-1.75 3.66-3.44 5.53-5.14l180.53 219.06l-165.56-231.77c1.98-1.56 3.97-3.11 6-4.62l161.91 235.75l-145.7-247.08c2.13-1.38 4.28-2.7 6.45-4.03l141.08 249.67l-123.97-259.44c2.25-1.17 4.5-2.32 6.78-3.45l119.27 261.84l-101.17-269.97c2.39-0.98 4.8-1.95 7.23-2.87l95.89 271.44l-77.34-277.47l7.42-1.97l72.27 279.16l-52.73-283.53l7.55-1.29l47.53 284.64l-27.86-287.25l7.55-0.64l22.66 288.47l-2.73-289.39l7.69 0l-2.73 289" />
					<path class="s1" d="m301.08 342.81l2.73 289l-7.69 0l2.73-289.39l-22.66 288.47l-7.55-0.64l27.86-287.25l-47.53 284.64l-7.55-1.29l52.73-283.53l-72.27 279.16l-7.42-1.97l77.34-277.47l-95.89 271.44c-2.44-0.92-4.84-1.88-7.23-2.87l101.17-269.97l-119.27 261.84c-2.28-1.12-4.53-2.27-6.78-3.45l123.97-259.44l-141.08 249.67c-2.17-1.33-4.33-2.65-6.45-4.03l145.7-247.08l-161.91 235.75c-2.03-1.51-4.02-3.06-6-4.62l165.56-231.77l-180.53 219.06c-1.87-1.7-3.7-3.4-5.53-5.14l184.77-216.02l-198.44 202.16c-1.73-1.88-3.41-3.81-5.08-5.73l201.81-197.98l-214.13 183.02c-1.52-1.99-3.02-4.02-4.48-6.05l216.92-178.47l-227.67 162.56c-1.33-2.13-2.61-4.28-3.91-6.45l230.02-157.94l-239.33 141.08c-1.12-2.22-2.23-4.39-3.31-6.64l242.38-136.92l-250 119.41c-0.92-2.31-1.86-4.63-2.73-6.97l251.31-114.33l-257.23 96.42c-0.7-2.38-1.36-4.77-2.02-7.16l258.47-91.41l-262.77 73.11c-0.48-2.39-0.94-4.81-1.36-7.22l263.59-68.11l-266.27 49.55c-0.27-2.42-0.52-4.84-0.72-7.3l266.34-44.45l-267.39 25.91c-0.05-2.27-0.06-4.5-0.06-6.77v-0.59l267.06-20.83l-266.41 2.47c0.16-2.44 0.3-4.88 0.52-7.28l266.53 2.47" />
				</g>
				<g >
					<path class="s1" d="m389.67 452.99l-4.04 2.12l-14.39-22.9c-16.92 9.36-32.85 16.6-56.21 19.8l-6.25 7.39l6.7 5.72l4.32-5.25l-3.1-2.62l3.53-3.94l7.39 6.42l-11.22 13.47l-16-13.65l11.52-13.84c26.75-2.06 42.64-11.08 59.15-20.67l18.6 27.91l-0.01 0.02z" />
					<path class="s1" d="m298.95 290.49l-2.73-289l7.69 0l-2.73 289.39l22.66-288.47l7.55 0.64l-27.86 287.25l47.53-284.64l7.55 1.29l-52.73 283.53l72.27-279.16l7.42 1.97l-77.34 277.47l95.89-271.44c2.44 0.92 4.84 1.88 7.23 2.87l-101.17 269.97l119.27-261.84c2.28 1.12 4.53 2.27 6.78 3.45l-123.97 259.44l141.08-249.67c2.17 1.33 4.33 2.65 6.45 4.03l-145.7 247.08l161.91-235.75c2.03 1.51 4.02 3.06 6 4.62l-165.56 231.77l180.53-219.06c1.87 1.7 3.7 3.4 5.53 5.14l-184.77 216.02l198.44-202.16c1.73 1.88 3.41 3.81 5.08 5.73l-201.81 197.98l214.13-183.02c1.52 1.99 3.02 4.02 4.48 6.05l-216.92 178.47l227.67-162.56c1.33 2.13 2.61 4.28 3.91 6.45l-230.02 157.94l239.33-141.08c1.13 2.22 2.23 4.39 3.31 6.64l-242.38 136.92l250-119.41c0.92 2.31 1.86 4.63 2.73 6.97l-251.31 114.33l257.23-96.42c0.7 2.38 1.36 4.77 2.02 7.16l-258.47 91.41l262.77-73.11c0.48 2.39 0.94 4.81 1.36 7.22l-263.59 68.11l266.27-49.55c0.27 2.42 0.52 4.84 0.72 7.3l-266.34 44.45l267.39-25.91c0.05 2.27 0.06 4.5 0.06 6.77v0.59l-267.06 20.83l266.41-2.47c-0.16 2.44-0.3 4.88-0.52 7.28l-266.53-2.47" />
					<path class="s1" d="m326.05 315.49l266.53-2.47c0.22 2.41 0.36 4.84 0.52 7.28l-266.41-2.47l267.06 20.83v0.59c0 2.27-0.02 4.5-0.06 6.77l-267.39-25.91l266.34 44.45c-0.2 2.45-0.45 4.88-0.72 7.3l-266.27-49.55l263.59 68.11c-0.42 2.41-0.88 4.83-1.36 7.22l-262.77-73.11l258.47 91.41c-0.66 2.39-1.31 4.78-2.02 7.16l-257.23-96.42l251.31 114.33c-0.88 2.34-1.81 4.66-2.73 6.97l-250-119.41l242.38 136.92c-1.08 2.25-2.19 4.42-3.31 6.64l-239.33-141.08l230.02 157.94c-1.3 2.16-2.58 4.32-3.91 6.45l-227.67-162.56l216.92 178.47c-1.47 2.03-2.97 4.06-4.48 6.05l-214.13-183.02l201.81 197.98c-1.67 1.93-3.34 3.85-5.08 5.73l-198.44-202.16l184.77 216.02c-1.83 1.75-3.66 3.44-5.53 5.14l-180.53-219.06l165.56 231.77c-1.98 1.56-3.97 3.11-6 4.62l-161.91-235.75l145.7 247.08c-2.13 1.38-4.28 2.7-6.45 4.03l-141.08-249.67l123.97 259.44c-2.25 1.18-4.5 2.32-6.78 3.45l-119.27-261.84l101.17 269.97c-2.39 0.98-4.8 1.95-7.23 2.87l-95.89-271.44l77.34 277.47l-7.42 1.97l-72.27-279.16l52.73 283.53l-7.55 1.29l-47.53-284.64l27.86 287.25l-7.55 0.64l-22.66-288.47l2.73 289.39l-7.69 0l2.73-289" />
				</g>
			</g>
		</g>
		<g >
			<path class="s1" d="m299.3 31.77c0.29-0.69 1.18-0.6 1.4-0.01l4.01 12.39l13.01-0.04c0.75 0.06 0.93 0.89 0.49 1.3l-10.59 7.67l4.04 12.29c0.26 0.75-0.53 1.26-1.09 0.92l-10.55-7.68l-10.46 7.66c-0.62 0.44-1.34-0.12-1.19-0.78l4.05-12.39l-10.61-7.65c-0.44-0.42-0.22-1.25 0.49-1.3l13.02 0.01l3.98-12.4h-0.01z" />
			<path class="s1" d="m300 402.16c-47.12 0-85.2-38.09-85.2-85.2c0-47.12 38.09-85.2 85.2-85.2c47.12 0 85.2 38.09 85.2 85.2c0 47.12-38.09 85.2-85.2 85.2z" />
			<path class="s1" d="m300 395.42c-43.39 0-78.47-35.08-78.47-78.47c0-43.39 35.08-78.47 78.47-78.47c43.39 0 78.47 35.08 78.47 78.47c0 43.39-35.08 78.47-78.47 78.47z" />
			<path class="s1" d="m300 386.4c-38.4 0-69.45-31.04-69.45-69.45c0-38.4 31.04-69.45 69.45-69.45c38.4 0 69.45 31.04 69.45 69.45c0 38.4-31.04 69.45-69.45 69.45z" />
			<path class="s2" d="m300 379.51c-34.59 0-62.55-27.96-62.55-62.55c0-34.59 27.96-62.55 62.55-62.55c34.59 0 62.55 27.96 62.55 62.55c0 34.59-27.96 62.55-62.55 62.55z" />
			<path class="s3" d="m300 374.29c-31.71 0-57.34-25.63-57.34-57.34c0-31.71 25.63-57.34 57.34-57.34c31.71 0 57.34 25.63 57.34 57.34c0 31.71-25.63 57.34-57.34 57.34z" />
		</g>
		<path class="s4" d="m300 587.77c-162.44 0-293.73-131.3-293.73-293.73c0-162.44 131.3-293.73 293.73-293.73c162.44 0 293.73 131.3 293.73 293.73c0 162.44-131.3 293.73-293.73 293.73z" />
		<g >
			<g >
				<g >
					<path class="s1" d="m590.99 255.19l-58.61-39.38l2.06-4.1l55.36 35.28l1.19 8.2z" />
					<path class="s1" d="m593.24 279.63l-69.21-51.88l2.85-3.63l65.89 47.8l0.48 7.7z" />
					<path class="s1" d="m593.25 306.46l-77.89-66.41l3.01-3.94l75.16 61.7l-0.29 8.65z" />
					<path class="s1" d="m591.03 332.28l-83.3-79.19l3.09-4.02l81.24 73.71l-1.02 9.5z" />
					<path class="s1" d="m586.71 357.24l-88.77-94.84l3.1-4.04l87.41 90.04l-1.74 8.84z" />
					<path class="s1" d="m580 382.36l-91.36-109.24l3.1-4.01l90.63 104.63l-2.36 8.63z" />
					<path class="s1" d="m571.66 405.51l-93.76-119.28l3.1-4.02l93.95 114.99l-3.29 8.31z" />
					<path class="s1" d="m561.31 427.83l-89.85-128.21l3.1-4.02l90.61 124.44l-3.86 7.8z" />
					<path class="s1" d="m549.35 449.09l-85.51-130.4l3.09-4.04l86.61 127.38l-4.19 7.06z" />
					<path class="s1" d="m586.24 228.5l-49.57-28.66l2.06-4.1l45.39 24.35l2.12 8.41z" />
					<path class="s1" d="m579.33 203.43l-49.73-22.8l2.06-4.1l44.61 18.25l3.05 8.65z" />
					<path class="s1" d="m570.53 179.91l-50.65-23.03l2.06-4.1l44.61 18.26l3.98 8.86z" />
					<path class="s1" d="m559.41 156.43l-51.91-23.5l2.05-4.09l44.63 18.25l5.24 9.34z" />
					<path fill-rule="evenodd" class="s1" d="m300 474.53c0.28 0.01 0.57 0 0.85 0c32.81 0.48 75.47-9.92 99.94-31.71l-43.69-54.62l11.13-11.52c19.02 0.82 34.51-1.6 45.25-8.27c-5.9-12-10.18-25.04-9.51-39.45c0.61-13.15 5.21-26.99 16.54-42.71l0.39-2.86c-3.37 1.98-10.04-0.86-8.4-7.62c1.41-6.3 9.79-6.19 12.11-1.43c1.56-3.01 1.84-6.33 1.76-10.22c-6.74 5.14-16.77 3.25-17.06-6.84c-0.19-7.76 8.21-12.83 16.6-7.49c-0.56-5.46-2.04-9.87-3.97-12.5c-3.81 4.79-9.42 6.23-14.32 4.69c-11.4-4.46-12.48-18.09-3.58-25.59c3.46-2.32 8.31-2.93 14.84-1.56c0.95-10.27 8.25-11.99 18.23-10.09c-4.19 14.89 11.86 24.59 10.87 43.03c0.39-4.78 0.95-13.81 1.04-16.08c1.63-40.15-23.78-54.99-52.54-37.17c0.33-12.13 1.49-22.67 13.15-32.49l-10.35-2.08l-0.85-10.68c-8.11 3.95-13.86 9.63-20.12 15.43c-10.08-20.47-6.52-37.06 7.29-51.63l-10.42-1.5l-1.24-11.33c-5.09 3.57-9.88 8.15-14.58 13.09c-21.95-51.39 9.39-80.99 50.13-80.79c13.58 0.07 28.2 3.44 42.25 10.42c28.32 17.37 50.51 37.4 69.27 60.03c1.38 0.78 2.46 2.11 3.26 4.04c5.11 5.01 9.46 10.68 12.83 17.12c2.14 0.36 2.96 2.6 2.93 4.1c6.75 6.07 7.89 11.5 9.63 16.73c3.23-0.19 4.16 3.72 2.93 5.21c6.34 6.89 6.54 11.1 8.07 17.12c2.8 0.03 5.08 3.63 2.8 6.25c5.39 4.04 5.78 9.87 6.05 17.32c3.1 0.07 4.95 3.32 3.19 6.12c5.32 7.08 5.09 12.47 4.62 17.84c3.92 0.89 3.54 5.36 1.17 6.45c4.49 5.56 5.15 13.97 2.47 18.88c4.37 1.54 4.07 6.54 0.59 8.33c1.63 11.12 1.84 22.21-1.24 33.33c7.38-0.31 8.95 11.34 1.56 12.69l5.27 3c-1.55 3.11-4.03 6.94-10.74 6.77l2.41 16.67l-6.51 8.79l-0.72 22.39c3.81 6.4 8.43 14.28-1.17 21.03l-14.78-0.85l-1.82-2.99l-3.58 0.78c-6.35-4.36-10.15-9.82-5.53-18.88c4.78-7.92-0.41-14.94-3.91-17.12c-11.98 22.37-7.53 38.01 0.59 59.89c10.99 34.45 9.29 57.1-15.37 87.5l8.46 6.51c3.04 2.14 5.11 8.15-3.78 13.54l-18.55 10.48c-14.99 13.28-30.51 26.78-48.44 37.96l-15.75 9.11c-45.51 26.68-98.02 38.25-147.14 38.61c-0.28 0-0.56 0-0.84 0m243.15-413c0 0.01 0 0.02 0 0.03c0-0.01 0-0.03 0.01-0.04l-0.01 0.01zm0 0.03c-12.51 76.43-80.07 91.47-75.78 146.2c31.92-29.79 34.84-78.89 81.51-67.64c-1.57-3.71-1.45-8.68 0.26-13.02c-3.09-1.02-3.72-7.77-0.39-10.22c-2.27-4-2.33-7.98 0.07-11.98c-3.55-2.41-3.35-8.21-0.65-10.16c-1.9-2.72-2.77-8.61-1.17-12.37c-2.37-1.51-3.25-5.85-1.37-8.79c-2.17-3.46-2.37-7.73-2.47-12.02z" />
					<path class="s1" d="m563.94 315.52c0.94-0.67 2.24-0.46 2.92 0.48c0.67 0.94 0.46 2.24-0.48 2.92c-0.94 0.67-2.24 0.46-2.92-0.48c-0.67-0.94-0.46-2.24 0.48-2.92z" />
				</g>
				<path class="s4" d="m371.28 388.27l-2.99 5.43c-3.13 4.9-0.68 11.07 7.29 8.15l10.27-2.95c3.35-0.71 8.71 1.24 5.1 8.69l-3.3 7.4c-2.8 5.98 0.82 14.46 11.02 13.83l16.63-2.1c13.15 0.03 14.2 15.46 5.93 22.08c-8.74 6.7-15.58 3.19-12.4-5.8" />
				<path class="s4" d="m524.24 412.99l6.95-9.76c-24.27-77.43-7.47-96.03 7.4-114.76c11.35 14.05 27.7 26.64 39.63 28.18" />
				<path class="s4" d="m573.27 315.55c-10.33 10.96-15.71 16.35-14.69 37.31c-0.22-10.16-2.29-24.26-8.95-29.7c-20.12 17.73-27.74-22.42-4.14-15.06c0.55-6.92-3.42-14.11-6.73-19.37" />
				<path class="s4" d="m549.67 323.1c-0.69 4.6-3.42 9.12-8.84 11.55c-16.48-7.43-17.08-24.86-2.76-33.47c3.23 1.42 5.64 3.78 7.21 6.32" />
				<path class="s4" d="m562.7 310.4c-3.39 4.02-5.55 11.08 0.87 15.73" />
				<path class="s4" d="m538.55 288.91v12.3" />
				<path class="s4" d="m571.7 352.43c-9.68 0.83-19.34 1.62-26.32-1.41" />
				<path class="s4" d="m570.15 359.58c-4.57 2.23-5.17 5.99-2.22 9.86c4.76-2.83 4.15-6.04 2.21-9.85l0-0.01z" />
				<path class="s4" d="m571.26 361.95c-3.23 1.68-3.2 3.8-1.37 6.08" />
				<path class="s4" d="m551.94 369.29l4.89-9.29l-1.34 12.52" />
				<path class="s4" d="m418.79 374.9c-9.46 4.23-24.73 8.37-48.41 4.16" />
				<path class="s4" d="m525.81 417.74l21.79 12.95" />
				<path class="s4" d="m393.61 381.06c3.67 7.54 5.44 16.12 5.54 24.52" />
				<path class="s4" d="m368.33 376.63l143.81 135.4" />
				<path class="s4" d="m399.6 380.61c4.79 11.3 7.97 20.6 11.02 35.38" />
				<path class="s4" d="m403.6 379.95c7.01 12.85 14.33 29.03 18.71 47.13" />
				<path class="s4" d="m408.04 378.84c13.49 20.71 23.53 41.85 26.62 58.79" />
				<path class="s4" d="m463.93 438.74l-8.93 8.44l-10.69-9.5c-5.19-21.63-16.51-41.46-31.66-60.16" />
				<path class="s4" d="m416.46 376.4c23.93 23.01 33.04 45.61 38.6 70.1" />
				<path class="s4" d="m442.86 373.51c6.46 15.27 19.65 24.54 33.24 29.51l0 25.42l3.3-1.35l1.51 15.05l2.6-0.34l0.14 12.92" />
				<path class="s4" d="m426.89 338.48c-5.5 24.06 18.48 42.44 41.26 43.03" />
				<path class="s4" d="m432.44 304.53c-18.59 20.73-1.04 53.97 24.4 58.56" />
				<path class="s4" d="m476.35 403.24l15.09 0.11" />
				<path class="s4" d="m479.24 427.03l21.52-10.7" />
				<path class="s4" d="m483.68 441.84l19.97-17.97" />
				<path class="s4" d="m467.49 330.93c6.74 47.73 49.94 51.4 59.34 90.95l-21.56 7.99l-21.59 25.06" />
				<path class="s4" d="m505.1 429.88c-6.09-35.15-37.09-33.31-51.74-76.41c-4-12.43-6.61-25.36-4.99-38.46c4.26-36.97 36.81-53.37 56.82-95.51c4.76-10.02 8.97-21.61 10-35.28" />
				<path class="s4" d="m445.83 281.34c-20.53 16.43-17.05 49.04 4.29 62.4" />
				<path class="s4" d="m483.39 454.34c-23.41-11.6-18.91-35.21-33.05-52.93c-14.16-21.98-38.78-26.8-40.63-68.23c-0.57-39.71 42.22-56.72 25.34-103.8c-7.45-13.62-6.46-21.25 1.35-24.06" />
				<path class="s4" d="m483.99 453.74c-16.95-20.04-12.45-38.33-24.33-53.24c-19.37-24.3-38.14-30.82-41.35-69.44c2.87-34.69 21.93-42.01 28.17-72.19c0.53-2.55 1.29-6.06 1.41-10.36" />
				<path class="s4" d="m418.95 214.8c9.67 6.03 14.17 21.13 14.42 34.31c0.28 14.31-3.82 26.25-12.99 37.32" />
				<path class="s4" d="m424.83 249.26c5.4 4.03 7.36 13.53 5.09 21.16" />
				<path class="s4" d="m424.75 224c0.53 3.76 0.13 9.12-2.7 13.26" />
				<path class="s4" d="m422.52 222.96c0 2.9-1.15 6.87-3.6 7.59c-0.9 0.26-2.51 0.55-3.89-0.13c-1.96-0.98-2.98-3.31-1.68-5.96c0.94-1.52 2.82-2.51 4.48-2.73c4.21-0.56 9.83 2.72 12 8.17" />
				<path class="s4" d="m425.84 260.35c-1.61 2.41-5.12 2.19-6.01-0.64c-0.38-1.36 0.5-2.87 2.41-3.04c4.15-0.02 4.12 5.32 4.09 7.92" />
				<path class="s4" d="m424.4 273.84c1.38 2.63 1.12 5.09 0.26 6.97" />
				<path class="s4" d="m421.66 284.36c1.27-1.88 1.6-5.85-1.92-6.23c-3.23-0.28-4.12 6.12 1.76 4.88" />
				<path class="s4" d="m413.19 367.86c8.17 12.04 21.92 21.56 31.64 33.97c12.97 16.56 13.24 43.41 39.11 52.45" />
				<path class="s4" d="m463.66 438.63c-3.03-3.4-5.48-5.79-10.33-7.93c0.7-6.84-1.19-16.26-3.79-21.69" />
				<path class="s4" d="m469.41 339.66c25.6-26.96 28.92-52.55 48.41-63.04c27.4-14.76 35.18 11.82 62.69 5.09" />
				<path class="s4" d="m576.63 304.39c-23.33-2.31-28.32-28.85-41.24-32.27" />
				<path class="s4" d="m587.08 297.65c-9.88 7.32-28.05-0.59-32.34-5.76" />
				<path class="s4" d="m503.6 376.64l27.19 25.99" />
				<path class="s4" d="m582.48 294.4c-20.51 4.64-29.62-12.2-42.19-20.08" />
				<path class="s4" d="m538.36 272.78c7.02 1.51 13.72 9.84 24.92 12.03c4.77 0.94 8.74 0.98 11.95 0.42c5.47-0.96 8.37-0.88 8.89 2.75c0.71 5.82-11.22 7.06-24.98 1.72" />
				<path class="s4" d="m550.41 279.27c7.34 5.61 15.66 8.44 20.12 8.66c6.37 0.31 9.12-2.16 11.05 0.1c0.65 0.76 0.7 3.36-3.15 4.82" />
				<path class="s4" d="m518.23 276.69c-0.68 4.82 0.76 15.9 2.24 22.19l-2.83 8.55l-5.93-1.1" />
				<path class="s4" d="m506.94 285.91c0.14 7.03 4.75 23.06 8.31 34.01l-2.6 8.88l-8.09-0.52" />
				<path class="s4" d="m496.13 301.81c3.33 15.62 9.17 29.86 15.87 40.26l-1.35 10.39l-8.32-0.17" />
				<path class="s4" d="m486.69 317.5c5.39 20.68 15.75 36.95 28.76 50.86l-0.96 9.12l-11.1-2.35" />
				<path class="s4" d="m478.15 329.65c4.18 17.51 13.96 32.05 25.3 45.77l-0.83 4.67l-5.54 0.19" />
				<path class="s4" d="m473.54 335.05c5.49 18.4 14.17 32.02 28.46 44.75" />
				<path class="s4" d="m482.45 323.93c5.85 20.6 18.29 40.04 31.64 53.34" />
				<path class="s4" d="m491.51 309.76c3.59 16.17 10.66 29.55 18.45 42.37" />
				<path class="s4" d="m501.69 293.23c2.55 12.73 5.59 25.06 10.66 35.69" />
				<path class="s4" d="m512.81 280.35c0.46 9.11 1.62 18.1 4.61 26.78" />
				<path class="s4" d="m487.19 451.93l38.57 29.44" />
				<path class="s4" d="m480.8 482.57l-25.36 22.71l-44.29-52.99" />
				<path class="s4" d="m441.03 488.43l-12.64 9.77" />
				<path class="s4" d="m442.18 429.95l-7.79 8.5" />
				<path class="s4" d="m299.96 484.38c31.86 0 61.9-7.84 88.3-21.7" />
				<path class="s4" d="m373.26 83.87c40.36-46.76 122.23-20.02 154.69 76.59" />
				<path class="s4" d="m373.48 84.13c38.83-15.3 74.93-7.72 101.31 14.06c10.7 8.83 20.03 20.45 27.4 32.83" />
				<path class="s4" d="m373.81 100.39c12.81-10.65 36.93-17.88 62.56-13.97c27.6 4.7 50.13 19.61 64.4 42.28c11.51 17.56 16.08 38.02 14.08 58.56" />
				<path class="s4" d="m373.73 84.13c5.56-27.32 25.38-36.89 47.95-36.59c47.08 0.14 78.54 29.07 101.68 66.09c11.43 19.83 19.99 44.44 19.91 72.08" />
				<path class="s4" d="m386.04 112.86c26.35-16.87 52.85-14.24 74.13-3.79c13.52 6.64 30.13 20.2 37.28 34.79" />
				<path class="s4" d="m537.7 147.4l-22.32 30.34" />
				<path class="s4" d="m539.39 152.48l-23.98 32.82" />
				<path class="s4" d="m376.25 111.05c42.22-34.45 103.53-15.84 126.14 29.92c15.14 31.9 9.22 59.44-4.2 85.26c-10.34 19.9-28.5 39.54-38.21 57.89" />
				<path class="s4" d="m389.18 144.01c10.37-38.53 59.81-41.29 91.1-19.26c16.58 11.84 24.68 30.68 26.62 50.44c3.62 43.59-30.47 74.12-48.45 109.61" />
				<path class="s4" d="m389.18 144.26c26.42-14.97 65.46-10.32 83.88 13.62c8.47 11.01 14.23 28.96 7.01 52.83" />
				<path class="s4" d="m398.52 149.28c14.81-7.15 31.37-6.55 43.03-3.48c26.11 6.88 39.1 29.45 40.23 46.46c2.21 33.28-27.88 61.51-23.78 93.67" />
				<path class="s4" d="m400.05 158.75c37.8-20.95 70.63 5.34 74.73 26.51c7.72 39.84-29.24 65.14-21.85 110.33" />
				<path class="s4" d="m409.7 161.89c27.17-12.82 52.33 3.22 59.51 26.22c10.53 33.71-34.09 63.84-20.15 120.05" />
				<path class="s4" d="m389.66 144.01c47.01-41.1 88.49-13.47 99.56 9.03c10.05 20.43 7.62 41.01-3.13 68.07c-6.62 16.66-22.84 43.72-26.84 61.79" />
				<path class="s4" d="m414.29 179.51c19.14-25.87 76.44-0.79 34.21 67.21" />
				<path class="s4" d="m544.77 262.44c7.23 2.77 16.17 8.25 24.95 20.04" />
				<path class="s4" d="m299.96 496.16c31.36 0 61.06-7.15 87.56-19.92" />
				<path class="s4" d="m299.96 555.61c46.26 0 89.72-12.03 127.44-33.12" />
				<path class="s4" d="m299.96 572.21c39.46 0 77-8.23 111.01-23.06" />
				<path class="s4" d="m381.95 466l29.1 53.66" />
				<path class="s4" d="m400.83 442.74c5.67-5.13 8.9-2.21 7.86 0.62" />
				<path class="s4" d="m556.71 268.26c8.82 1.06 14.13 6.43 16.86 14.06" />
				<path class="s4" d="m573.4 280.99c1.84-4.33 5.23-7.51 8.75-10.59" />
				<path class="s4" d="m581.51 248.7c-5.32 5.5-8.93 14.04-3.82 25.83" />
				<path class="s4" d="m581.67 248.55c-8.25 2.51-20.33 3.69-32.28 1.97" />
				<path class="s4" d="m581.04 240.11c-5.85 3.39-23.62 4.46-32.12-0.25" />
				<path class="s4" d="m581.51 248.7c-9.91 0.96-27.37-0.72-34.35-4.23" />
				<path class="s4" d="m549.71 250.93c3.21 3.77 4.42 8.54 2.54 14.86" />
				<path class="s4" d="m548.91 227.71c3.69 1.54 6.01 10.13 0.96 12.31" />
				<path class="s4" d="m578.34 221.68c-4.21 5.35-3.21 14.83 1.59 18.67" />
				<path class="s4" d="m578.49 221.35c-6.17 2.6-22.51 3.66-31.8 0.86" />
				<path class="s4" d="m577.54 221.99c-6.82 3.62-20.97 5.6-28.78 5.79" />
				<path class="s4" d="m577.22 214.84c-3.94 2.76-18.37 7.32-28.94 3.09" />
				<path class="s4" d="m571.98 197.66c-2.36 5.39-0.92 13.02 4.61 17.24" />
				<path class="s4" d="m572.78 197.03c-6.3 3.61-13.91 7.23-25.76 8.18" />
				<path class="s4" d="m569.59 191.3c-6.3 3.6-12.95 5.8-23.69 5.47" />
				<path class="s4" d="m572.14 197.5c-8.05 2.97-19.79 4.36-26.88 3.56" />
				<path class="s4" d="m547.33 205.45c3.69 1.54 6.01 10.13 0.95 12.31" />
				<path class="s4" d="m563.23 173.49c-2.36 5.38 0.19 14.3 5.41 17.4" />
				<path class="s4" d="m563.23 173.8c-5.19 3.6-9.45 6.54-19.56 6.74" />
				<path class="s4" d="m560.53 167.29c-2.96 3.92-8.66 8.02-17.02 7.86" />
				<path class="s4" d="m552.58 150.9c-0.77 5.54 1.78 13.5 7 16.61" />
				<path class="s4" d="m552.46 150.33c-2.86 3.18-7.17 5.05-12.35 4.89" />
				<path class="s4" d="m549.71 145.34c-2.86 3.18-5.8 4.74-10.65 5" />
				<path class="s4" d="m540.17 128.28c-1.9 1.49-4.1 3.25-7.69 3.3" />
				<path class="s4" d="m536.99 124.14c-1.37 1.38-2.61 2.83-6.1 3.51" />
				<path class="s4" d="m524.16 107.39c-0.74 1.06-1.66 1.77-3.34 1.82" />
				<path class="s4" d="m520.88 103.15c-0.73 1.06-1.13 1.77-2.81 1.82" />
				<path class="s4" d="m540.33 128.8c-0.13 6.34 3.69 13.18 8.9 16.29" />
				<path class="s4" d="m404.84 63.18c-3.71 0.34-7.2-1.01-10.37-4.79c4.47-0.45 8 1.03 10.37 4.79z" />
				<path class="s4" d="m405.05 64.04c0.39 3.71-0.53 6.87-4.28 9.21c-0.35-4.68 0.54-6.8 4.28-9.21z" />
				<path class="s4" d="m394.75 67.88c-2.46 2.73-2.06 4.09-0.68 7.38c1.96-2.66 2.42-4.31 0.66-7.38h0.01z" />
				<path class="s4" d="m394.34 66.99c-3.09 1.41-5.09 0.95-7.6-1.19c3.06-1.31 4.75-1.58 7.6 1.19z" />
				<path class="s4" d="m417.14 60.75c-3.65-0.76-6.6-3.07-8.53-7.61c4.41 0.88 7.35 3.32 8.53 7.61v0z" />
				<path class="s4" d="m417.09 61.64c-0.71 3.66-2.51 6.42-6.77 7.56c1.02-4.58 2.5-6.34 6.77-7.56v0z" />
				<path class="s4" d="m429.89 61.53c-3.94-1.16-7.15-4.19-7.93-9.42c4.39 1.26 7.5 4.71 7.94 9.42h-0.01z" />
				<path class="s4" d="m429.7 62.41c-1.27 3.51-4.65 7.58-9.4 7.98c1.35-5.33 5-7.43 9.39-7.98h0.01z" />
				<path class="s4" d="m441.79 63.45c0.05-4.73-2.7-8.48-6.94-10.17c0.24 5.28 3.14 8.62 6.94 10.17v0z" />
				<path class="s4" d="m441.51 64.29c-1.62 3.36-5.39 7.07-10.16 6.99c1.88-5.16 5.72-6.89 10.15-6.99l0.01 0z" />
				<path class="s4" d="m450.97 66.98c-3.54-2.07-5.94-5.79-5.43-11.05c3.96 2.28 6.15 6.37 5.44 11.05l-0.01 0z" />
				<path class="s4" d="m450.59 67.79c-2.08 3.1-6.34 6.24-11.05 5.48c2.59-4.84 6.64-6.01 11.04-5.48l0.01 0z" />
				<path class="s4" d="m459.71 71.11c-3.3-2.44-5.29-6.38-4.24-11.56c3.71 2.68 5.46 6.99 4.25 11.57l-0.01 0z" />
				<path class="s4" d="m459.24 71.87c-2.39 2.86-6.96 5.53-11.56 4.28c3.09-4.54 7.24-5.27 11.55-4.29l0.01 0z" />
				<path class="s4" d="m468.18 75.78c1.39-4.53-0.18-8.9-3.78-11.73c-1.26 5.13 0.57 9.16 3.78 11.72v0z" />
				<path class="s4" d="m467.66 76.52c-2.5 2.76-7.18 5.25-11.73 3.82c3.28-4.41 7.45-4.98 11.73-3.82v0z" />
				<path class="s4" d="m476.05 80.88c1.96-4.31 0.99-8.84-2.21-12.12c-1.93 4.92-0.63 9.15 2.21 12.11v0z" />
				<path class="s4" d="m475.45 81.54c-2.85 2.41-7.8 4.27-12.13 2.25c3.81-3.95 8.02-3.96 12.11-2.26l0.01 0z" />
				<path class="s4" d="m483.16 86.89c2.43-4.07 1.94-8.69-0.89-12.29c-2.44 4.69-1.61 9.03 0.89 12.28v0.01z" />
				<path class="s4" d="m482.49 87.48c-3.08 2.09-8.21 3.4-12.29 0.93c4.22-3.51 8.41-3.07 12.29-0.93v0z" />
				<path class="s4" d="m488.94 93.09c2.7-3.89 2.55-8.53-0.01-12.32c-2.78 4.5-2.25 8.89 0.01 12.31v0z" />
				<path class="s4" d="m488.23 93.63c-3.22 1.87-8.44 2.81-12.34 0.06c4.48-3.2 8.61-2.47 12.34-0.06v0.01z" />
				<path class="s4" d="m494.9 99.28c-2.16-3.48-2.56-7.88 0.32-12.31c2.45 3.86 2.49 8.5-0.31 12.31l-0.01 0z" />
				<path class="s4" d="m494.19 99.81c-3.28 1.78-8.51 2.58-12.34-0.28c4.55-3.08 8.68-2.24 12.32 0.27l0.01 0.01z" />
				<path class="s4" d="m500.53 105.91c-1.94-3.61-2.05-8.03 1.13-12.26c2.2 4.01 1.92 8.64-1.13 12.27v-0.01z" />
				<path class="s4" d="m499.76 106.39c-3.38 1.56-8.65 2.02-12.29-1.08c4.75-2.78 8.81-1.66 12.29 1.08v0.01z" />
				<path class="s4" d="m505.51 113.34c-1.62-3.76-1.36-8.18 2.15-12.12c1.85 4.18 1.2 8.77-2.14 12.12h-0.01z" />
				<path class="s4" d="m504.73 113.75c-3.5 1.28-8.8 1.29-12.15-2.1c4.95-2.38 8.91-0.93 12.15 2.1z" />
				<path class="s4" d="m510.4 120.75c-1.44-3.84-0.95-8.24 2.75-12c1.65 4.26 0.78 8.84-2.75 12z" />
				<path class="s4" d="m509.59 121.13c-3.56 1.1-8.85 0.85-12.02-2.71c5.06-2.13 8.94-0.48 12.02 2.7v0.01z" />
				<path class="s4" d="m514.49 128.26c-1.26-3.9-0.57-8.26 3.3-11.85c1.45 4.34 0.35 8.84-3.3 11.86v-0.01z" />
				<path class="s4" d="m513.65 128.6c-3.6 0.94-8.88 0.44-11.89-3.26c5.16-1.89 8.95-0.06 11.89 3.26z" />
				<path class="s4" d="m518.59 135.9c-1.09-3.95-0.22-8.29 3.81-11.71c1.25 4.4-0.04 8.86-3.8 11.73l-0.01-0.01z" />
				<path class="s4" d="m517.74 136.2c-2.79-3.44-6.5-5.43-11.74-3.76c2.86 3.83 8.1 4.54 11.75 3.76h-0.01z" />
				<path class="s4" d="m522.25 143.76c-0.91-4 0.14-8.29 4.31-11.54c1.08 4.45-0.41 8.85-4.3 11.54h-0.01z" />
				<path class="s4" d="m521.4 144.03c-3.67 0.61-8.89-0.33-11.56-4.28c5.3-1.44 8.92 0.71 11.56 4.26v0.01z" />
				<path class="s4" d="m525.68 151.95c-0.93-4 0.14-8.3 4.31-11.54c1.06 4.45-0.41 8.85-4.31 11.54z" />
				<path class="s4" d="m524.83 152.21c-3.69 0.61-8.89-0.32-11.58-4.28c5.3-1.44 8.92 0.71 11.56 4.26l0.01 0.01z" />
				<path class="s4" d="m425.95 124.7c-3.36 1.47-3.56 2.89-3.64 6.45c2.87-1.63 3.97-2.94 3.63-6.46l0.01 0.01z" />
				<path class="s4" d="m425.94 123.73c-3.4 0.01-5.03-1.23-6.44-4.21c3.32 0.06 4.99 0.53 6.44 4.21z" />
				<path class="s4" d="m416.91 127.85c0.98 2.88 0.33 4.19-1.76 6.1c-0.65-2.99-0.75-4.2 1.76-6.1z" />
				<path class="s4" d="m416.7 127.04c-2.84 0.67-4.44-0.04-6.21-2.25c2.81-0.6 4.28-0.55 6.21 2.25z" />
				<path class="s4" d="m436.16 123.63c-0.41 3.51-1.76 4.56-4.93 5.53c0.84-3.46 1.33-4.8 4.93-5.53z" />
				<path class="s4" d="m436.38 122.68c-3.33-0.71-4.65-2.27-5.4-5.49c3.24 0.76 4.78 1.58 5.4 5.49z" />
				<path class="s4" d="m445.26 124.2c-1.23 3.31-3 4.46-6.3 4.66c1.61-3.2 2.62-4.81 6.3-4.68v0.01z" />
				<path class="s4" d="m445.59 122.98c-3.06-1.48-4.31-3.86-4.28-7.16c2.8 1.19 4.59 3.21 4.29 7.16h-0.01z" />
				<path class="s4" d="m453.68 125.66c-1.45 3.24-3.3 4.26-6.6 4.24c1.81-3.08 2.94-4.63 6.6-4.24z" />
				<path class="s4" d="m454.07 124.48c-2.96-1.69-4.04-4.15-3.79-7.45c2.71 1.39 4.36 3.53 3.8 7.45h-0.01z" />
				<path class="s4" d="m461.11 128.33c-1.81 3.03-3.77 3.83-7.06 3.4c2.18-2.84 3.47-4.23 7.06-3.41v0.01z" />
				<path class="s4" d="m461.66 127.19c1.04-3.83-0.35-6.15-2.88-7.85c-0.65 3.25 0.14 5.83 2.88 7.84v0.01z" />
				<path class="s4" d="m467.51 131.55c-2.18 2.79-4.23 3.34-7.43 2.53c2.5-2.55 3.96-3.78 7.41-2.54l0.01 0.01z" />
				<path class="s4" d="m468.19 130.49c-2.48-2.34-2.93-5-1.9-8.14c2.31 1.99 3.4 4.47 1.9 8.14z" />
				<path class="s4" d="m473.33 135.43c-2.55 2.45-4.65 2.7-7.71 1.45c2.85-2.17 4.46-3.19 7.71-1.46v0.01z" />
				<path class="s4" d="m474.15 134.48c2-3.43 1.26-6.04-0.74-8.32c-1.46 2.96-1.39 5.65 0.74 8.31v0.01z" />
				<path class="s4" d="m478.6 140.01c-2.89 2.04-5 1.97-7.84 0.27c3.14-1.72 4.89-2.47 7.84-0.27z" />
				<path class="s4" d="m479.56 139.19c-1.7-2.95-1.36-5.63 0.54-8.33c1.63 2.56 1.95 5.25-0.54 8.34v-0.01z" />
				<path class="s4" d="m483.3 145.26c-3.11 1.68-5.2 1.35-7.8-0.69c3.31-1.33 5.15-1.85 7.81 0.69h-0.01z" />
				<path class="s4" d="m484.36 144.56c-1.32-3.14-0.66-5.75 1.55-8.2c1.3 2.75 1.3 5.45-1.55 8.21v-0.01z" />
				<path class="s4" d="m487.21 150.71c-3.24 1.45-5.3 0.96-7.75-1.25c3.41-1.08 5.29-1.47 7.75 1.25z" />
				<path class="s4" d="m488.31 150.1c-1.09-3.22-0.25-5.79 2.14-8.07c1.1 2.84 0.9 5.54-2.14 8.07z" />
				<path class="s4" d="m490.69 157.34c-3.39 1.01-5.38 0.29-7.53-2.23c3.53-0.64 5.43-0.8 7.53 2.21v0.01z" />
				<path class="s4" d="m491.85 156.86c3.34-2.12 3.89-4.79 3.15-7.74c-2.65 1.96-3.81 4.4-3.14 7.74h-0.01z" />
				<path class="s4" d="m492.8 164.14c-3.5 0.47-5.35-0.58-7.06-3.39c3.58-0.07 5.48 0.08 7.06 3.39z" />
				<path class="s4" d="m494.03 163.86c3.64-1.57 4.6-4.1 4.34-7.14c-2.92 1.51-4.46 3.72-4.32 7.14h-0.01z" />
				<path class="s4" d="m494.18 170.61c-3.54 0.01-5.24-1.26-6.57-4.27c3.56 0.39 5.43 0.79 6.57 4.27z" />
				<path class="s4" d="m495.43 170.5c3.81-1.1 5.09-3.49 5.24-6.52c-3.11 1.13-4.92 3.13-5.22 6.51l-0.01 0.01z" />
				<path class="s4" d="m494.7 177.76c-3.49-0.6-4.94-2.14-5.72-5.35c3.43 1.01 5.2 1.71 5.72 5.35z" />
				<path class="s4" d="m495.96 177.86c0.89-3.28 3.01-4.94 6.28-5.5c-0.66 2.96-2.34 5.1-6.28 5.51v-0.01z" />
				<path class="s4" d="m494.56 185.16c-3.41-0.94-4.7-2.61-5.19-5.89c3.32 1.34 5.01 2.21 5.19 5.89z" />
				<path class="s4" d="m495.8 185.39c1.21-3.19 3.49-4.63 6.79-4.88c-0.95 2.89-2.82 4.85-6.79 4.88z" />
				<path class="s4" d="m493.76 193.28c-3.35-1.11-4.55-2.86-4.85-6.15c3.24 1.51 4.89 2.48 4.86 6.15h-0.01z" />
				<path class="s4" d="m495 193.56c1.38-3.11 3.73-4.42 7.04-4.49c-1.11 2.84-3.09 4.69-7.05 4.5l0.01-0.01z" />
				<path class="s4" d="m491.96 201.01c-3.11-1.68-4-3.6-3.74-6.89c2.94 2.04 4.39 3.26 3.75 6.89h-0.01z" />
				<path class="s4" d="m493.14 201.5c1.88-2.82 4.43-3.72 7.69-3.24c-1.56 2.6-3.82 4.1-7.7 3.25l0.01-0.01z" />
				<path class="s4" d="m489.25 209.8c-3.01-1.86-3.79-3.84-3.32-7.11c2.81 2.22 4.19 3.54 3.32 7.11z" />
				<path class="s4" d="m490.38 210.36c2.06-2.71 4.65-3.46 7.88-2.78c-1.72 2.51-4.08 3.86-7.88 2.78z" />
				<path class="s4" d="m486.49 217.75c-2.94-1.98-3.63-3.99-3.04-7.24c2.73 2.32 4.04 3.7 3.04 7.24z" />
				<path class="s4" d="m487.59 218.35c2.16-2.62 4.77-3.26 7.99-2.45c-1.82 2.44-4.22 3.7-7.99 2.46v-0.01z" />
				<path class="s4" d="m483.18 226.14c-2.94-1.97-3.63-3.99-3.02-7.24c2.71 2.33 4.04 3.7 3.04 7.24h-0.01z" />
				<path class="s4" d="m484.29 226.74c2.16-2.63 4.77-3.26 7.97-2.45c-1.82 2.44-4.22 3.7-7.99 2.46l0.01-0.01z" />
				<path class="s4" d="m479.94 234.01c1.51-3.35 0.41-4.9-1.92-7.59c-1.06 3.14-0.68 5.21 1.94 7.6l-0.01-0.01z" />
				<path class="s4" d="m481.01 234.6c1.8-2.89 4.31-3.86 7.59-3.46c-1.46 2.64-3.69 4.2-7.59 3.46z" />
				<path class="s4" d="m476.2 242.08c-2.31-2.66-2.46-4.79-1.05-7.76c2.03 2.95 2.95 4.62 1.05 7.76z" />
				<path class="s4" d="m477.21 242.64c1.53-3.04 3.93-4.25 7.24-4.18c-1.21 2.79-3.29 4.55-7.23 4.18h-0.01z" />
				<path class="s4" d="m472.39 249.13c-2.04-2.9-1.95-5.01-0.24-7.84c1.7 3.14 2.45 4.9 0.24 7.84z" />
				<path class="s4" d="m473.31 249.71c1.53-3.05 3.93-4.26 7.24-4.18c-1.21 2.78-3.29 4.54-7.24 4.18z" />
				<path class="s4" d="m468.46 257.66c1.88-3.16 0.94-4.83-1.11-7.75c-1.39 3-1.22 5.11 1.13 7.76l-0.01-0.01z" />
				<path class="s4" d="m469.28 257.86c1.51-3.05 2.82-4.11 6.13-4.03c-1.23 2.76-2.19 4.38-6.13 4.03z" />
				<path class="s4" d="m427.76 175.88c-1.99 0.16-2.71-0.47-3.6-2.11c2.02 0.07 2.81 0.2 3.61 2.11h-0.01z" />
				<path class="s4" d="m427.85 177.04c-0.92 1.76-1.85 2.04-3.71 1.91c1.15-1.66 1.67-2.26 3.71-1.91z" />
				<path class="s4" d="m436.6 176.48c-0.41-2.02-1.16-2.31-3.11-2.76c0.55 1.77 1.14 2.54 3.13 2.76h-0.01z" />
				<path class="s4" d="m436.47 177.63c-1.94-0.73-2.56-0.25-4.01 1.18c1.8 0.47 2.76 0.37 4-1.18h0.01z" />
				<path class="s4" d="m444.69 179.93c0.16-2.06-0.49-2.54-2.25-3.5c0.05 1.85 0.41 2.75 2.26 3.5h-0.01z" />
				<path class="s4" d="m444.26 181c-1.68-1.22-2.4-0.94-4.18 0.04c1.6 0.95 2.55 1.11 4.16-0.04h0.01z" />
				<path class="s4" d="m451.61 186.54c1.02-1.8 0.64-2.5-0.54-4.13c-0.75 1.7-0.8 2.66 0.55 4.14l-0.01-0.01z" />
				<path class="s4" d="m450.76 187.33c-1.96 0.35-2.75-0.2-3.79-1.74c2.01-0.13 2.81-0.09 3.79 1.74z" />
				<path class="s4" d="m456.02 195.05c1.4-1.53 1.19-2.3 0.43-4.15c-1.13 1.49-1.4 2.41-0.41 4.15h-0.01z" />
				<path class="s4" d="m455.03 195.63c-0.55-2-1.31-2.22-3.3-2.56c0.66 1.74 1.3 2.45 3.29 2.55l0.01 0.01z" />
				<path class="s4" d="m457.99 204.88c1.71-1.16 1.68-1.97 1.34-3.94c-1.43 1.19-1.9 2.04-1.34 3.95v-0.01z" />
				<path class="s4" d="m456.88 205.2c-1.91-0.55-2.39-1.39-2.64-3.24c1.86 0.79 2.56 1.17 2.64 3.24z" />
				<path class="s4" d="m457.74 214.71c1.91-0.79 2.04-1.59 2.11-3.59c-1.64 0.88-2.27 1.61-2.11 3.6v-0.01z" />
				<path class="s4" d="m456.58 214.81c0.35-2.05-0.25-2.56-1.91-3.71c-0.13 1.85 0.15 2.78 1.91 3.7v0.01z" />
				<path class="s4" d="m414.29 180.49c21.69-0.44 45.33 9.2 33.78 64.37" />
				<path class="s4" d="m415.99 179.51c30.61-13.25 54.98 17.77 32.32 65.4" />
				<path class="s4" d="m514.38 195.53l13.56-1.33l10.63 7.65l-13.99 1.27l-10.19-7.6h-0.01z" />
				<path class="s4" d="m509.39 211.31l12.46-0.32l9.53 9.07l-13.99-0.59l-7.99-8.18l-0.01 0.01z" />
				<path class="s4" d="m502.55 226.11l11.81 0.55l7.2 10.4l-12-1.81l-7.02-9.13l0.01-0.01z" />
				<path class="s4" d="m493.58 240.46l11.44 1.8l5.59 9.89l-10.95-2.34l-6.09-9.36l0.01 0.01z" />
				<path class="s4" d="m483.39 254.49l11.09 1.85l3.91 9.5l-9.76-2.25l-5.24-9.11v0.01z" />
				<path class="s4" d="m472.49 268.06l10.7 1.66l4.21 9.25l-10.65-1.86l-4.25-9.06l-0.01 0.01z" />
				<path class="s4" d="m461.1 283.49l10.6 0.22l5.34 8.71l-10.85-0.43l-5.09-8.51z" />
				<path class="s4" d="m451.98 301.24l10.67-1.98l7.46 6.65l-10.7 2.72l-7.44-7.39v-0.01z" />
				<path class="s4" d="m448.51 320.28l9.74-2.95l8.55 4.49l-9.07 3.13l-9.19-4.68l-0.03 0.01z" />
				<path class="s4" d="m450.61 340.74l7.54-5.76l9.98 2.19l-8.74 5.19l-8.79-1.63l0.01 0.01z" />
				<path class="s4" d="m456.24 359.44l6.69-6.54l10.08-1.15l-6.84 7.86l-9.94-0.19l0.01 0.01z" />
				<path class="s4" d="m465.83 376.4l5.21-8.6l10.08-2.78l-5.15 9.28l-10.15 2.1h0.01z" />
				<path class="s4" d="m478.66 390.18l4.02-8.6l10.45-3.89l-4.49 9.27l-10 3.21h0.01z" />
				<path class="s4" d="m491.43 402.18l3.89-8.96l10.89-3.22l-5.07 8.9l-9.69 3.27l-0.01 0.01z" />
				<path class="s4" d="m500.89 414.9l6.16-9.11l11.7-0.94l-6.48 9.13l-11.37 0.94l-0.01-0.01z" />
				<path class="s4" d="m524.68 202.99c-1.02 2.73-2.05 5.35-3.09 7.85m-3.69 8.4c-1.22 2.61-2.46 5.09-3.7 7.44m-4.64 8.47c-1.5 2.56-3 4.96-4.49 7.21m-5.14 7.31c-1 1.32-1.99 2.59-2.97 3.81c-0.88 1.09-1.75 2.16-2.63 3.22m-5.6 6.69c-1.95 2.29-3.85 4.51-5.7 6.7m-5.88 7.06c-1.89 2.33-3.67 4.61-5.35 6.89m-5.23 7.72c-1.51 2.48-2.84 4.96-3.97 7.49m-4.45 18.39c0.15-1.63 0.34-3.27 0.56-4.96c0.19-1.49 0.45-2.95 0.79-4.38m-1.81 16.7c-0.09 3.44 0.04 6.77 0.4 10.07m1.18 7.04c0.82 3.6 1.99 7.2 3.57 10.88m8.35 14.84c-0.69-0.99-1.36-1.99-2.02-3.04c-1.14-1.77-2.17-3.51-3.11-5.24m9.89 14.53c2.21 2.69 4.47 5.14 6.75 7.45m5.72 5.54c2.32 2.16 4.61 4.23 6.81 6.29m5.64 5.46c2.23 2.29 4.31 4.65 6.19 7.2m4.94 8.14c1.57 3.29 2.84 6.9 3.71 11m23.17-271.23c-3.55 15.53-7.27 28.85-11.15 40.35" />
				<path class="s4" d="m516.96 405.8l-14.24 8.04" />
				<path class="s4" d="m504.51 391.15l-11.95 9.96" />
				<path class="s4" d="m491.34 379.5l-11.88 9.81" />
				<path class="s4" d="m479.64 366.19l-12.17 9.15" />
				<path class="s4" d="m470.88 352.81l-12.66 5.86" />
				<path class="s4" d="m465.75 337.53l-13.05 2.66" />
				<path class="s4" d="m464.75 321.59l-13.84-1.11" />
				<path class="s4" d="m468.3 305.43l-14.47-3.67" />
				<path class="s4" d="m475.4 291.53l-12.7-7.15" />
				<path class="s4" d="m485.85 277.74l-11.97-8.58" />
				<path class="s4" d="m496.95 264.65l-11.93-9.16" />
				<path class="s4" d="m508.89 250.88l-13.54-9.26" />
				<path class="s4" d="m519.65 235.88l-15.36-8.91" />
				<path class="s4" d="m529.03 219.09l-17.68-6.91" />
				<path class="s4" d="m536.29 201.28l-19.78-5.19" />
				<path class="s4" d="m504.46 504.88c-52.89 51.3-125 82.9-204.45 82.9" />
				<g >
					<path class="s1" d="m440.99 516.05l11.89 7.41l16.39 41.69l-9.06 5.58l-32.05-32.19l-1.09-11.88l-44.23-71.21l8.3-5.21l49.85 65.81z" />
					<path class="s1" d="m464.85 564.01l-3.93 2.42l-24.53-32.22l8.43-5.63l20.02 35.42z" />
					<path class="s1" d="m443.25 535.84l-11.89-1.77l-10.04 13.85l2.45 4.4l12.32 2.14l-2.21-4.09l3.74-2.35l10.79 10.84l-9.59 5.13l-20.99-3.68l-6.64-13.78l16.09-20.09l10.47 0.43l3.01-11.1l28.58-4.17l9 12.27l-6.64 20.91l-8.34 5.4l-5.56-14.22l4.38-2.61l2.61 4.02l3.83-11.93l-2.59-4.23l-20.21 3.33l-2.58 11.31v-0.01z" />
					<path class="s1" d="m470.13 545.55l-5.49-8.41" />
					<path class="s1" d="m440.89 563.11l-4.94-8.94" />
					<path class="s1" d="m387.22 453.15l55.86 82.45" />
					<path class="s1" d="m364.21 376.18c4.51 0 8.19 3.68 8.19 8.19c0 4.52-3.67 8.19-8.19 8.19c-4.55 0-8.21-3.66-8.21-8.19c0-4.51 3.66-8.19 8.21-8.19z" />
					<path class="s1" d="m364.2 381.94c1.34 0 2.42 1.09 2.42 2.43c0 1.35-1.09 2.44-2.42 2.44c-1.35 0-2.44-1.09-2.44-2.44c0-1.34 1.09-2.43 2.44-2.43z" />
				</g>
				<path class="s4" d="m299.96 545.98c39.94 0 77.71-9.31 111.29-25.88" />
				<g >
					<path class="s1" d="m321.83 316.97l-5.13 5.08l-5.08-5.08l5.08-5.13l5.13 5.13z" />
					<path class="s1" d="m294.94 316.95l5.11-5.11l5.11 5.11l-5.11 5.11l-5.11-5.11z" />
					<path class="s5" d="m301.55 253.31l-0.06 5.09h-2.83l-0.08-5.09h2.97zm5.48 0.39l-0.45 5.09c-0.97-0.11-1.92-0.2-2.91-0.27l0.45-5.09c0.97 0.06 1.94 0.16 2.91 0.27zm5.48 0.83l-0.91 5.03c-0.94-0.19-1.89-0.3-2.83-0.45l0.83-5.02c0.97 0.14 1.95 0.25 2.91 0.44zm5.41 1.36l-1.34 4.89c-0.92-0.27-1.89-0.47-2.84-0.69l1.3-4.98c0.97 0.23 1.94 0.5 2.89 0.78zm5.11 1.75l-1.75 4.77c-0.89-0.36-1.8-0.66-2.7-0.97l1.67-4.78c0.92 0.31 1.86 0.63 2.78 0.98zm5.09 2.25l-2.2 4.64c-0.84-0.42-1.7-0.91-2.58-1.28l2.13-4.59c0.89 0.39 1.78 0.81 2.66 1.23zm4.91 2.64l-2.59 4.39h-0.06c-0.8-0.5-1.61-0.97-2.45-1.42l2.52-4.45c0.86 0.48 1.75 0.98 2.59 1.48zm4.56 3.09l-2.95 4.2c-0.77-0.56-1.55-1.16-2.33-1.67l2.84-4.2c0.83 0.56 1.63 1.08 2.44 1.67zm4.27 3.48l-3.28 3.88c-0.73-0.64-1.45-1.27-2.2-1.88l3.22-3.94c0.78 0.63 1.52 1.3 2.27 1.94zm4.06 3.81l-3.67 3.55c-0.66-0.69-1.33-1.36-2-2l3.55-3.63c0.72 0.69 1.44 1.36 2.13 2.08zm3.61 4.13l-3.94 3.3c-0.59-0.75-1.17-1.5-1.81-2.2l3.81-3.3c0.64 0.73 1.33 1.44 1.94 2.2zm3.36 4.45l-4.19 2.91c-0.55-0.81-1.17-1.63-1.75-2.39l4.13-2.97c0.63 0.83 1.23 1.59 1.81 2.45zm2.83 4.7l-4.44 2.52c-0.47-0.83-0.94-1.64-1.44-2.44l4.39-2.59c0.52 0.83 1.02 1.66 1.48 2.52zm2.45 5.03l-4.58 2.06c-0.38-0.88-0.86-1.72-1.3-2.58l4.59-2.19c0.45 0.89 0.89 1.8 1.28 2.7zm2 5.09l-4.77 1.75c-0.31-0.92-0.63-1.81-0.97-2.72l4.78-1.73c0.34 0.89 0.64 1.8 0.95 2.7zm1.61 5.36l-4.95 1.22c-0.23-0.94-0.44-1.86-0.72-2.77l4.84-1.36c0.28 0.95 0.59 1.92 0.83 2.91zm1.05 5.34l-4.98 0.84c-0.13-0.92-0.31-1.86-0.5-2.78l5.02-0.89c0.19 0.92 0.31 1.89 0.47 2.83zm0.7 5.56l-5.09 0.44c-0.08-0.98-0.22-1.94-0.33-2.89l5.09-0.47c0.11 0.98 0.27 1.92 0.33 2.92zm0.13 5.61l-5.09-0.08l-0.06-2.64l5.09-0.06l0.06 2.78z" />
					<path class="s1" d="m328.61 266.5l5.08 5.06l-5.11 5.11l-1.19-1.19l-15.16 15.14l1.2 1.2l-5.11 5.11l-5.06-5.08l5.11-5.11l1.19 1.2l15.16-15.14l-1.2-1.2l5.11-5.11h-0.02zm8.39 8.38l5.13 5.11l-5.11 5.11l-1.25-1.25l-15.14 15.16l1.23 1.23l-5.11 5.11l-5.11-5.11l5.11-5.11l1.25 1.25l15.14-15.14l-1.23-1.25l5.11-5.11h-0.02zm8.34 8.33l5.11 5.13l-5.11 5.11l-1.23-1.25l-15.16 15.14l1.25 1.25l-5.11 5.11l-5.11-5.11l5.11-5.11l1.25 1.25l15.14-15.16l-1.25-1.23l5.11-5.11v-0.02z" />
					<path class="s4" d="m300 295.13l3.28-3.27l21.81 21.81l-3.27 3.28" />
					<path class="s1" d="m305.06 300.19l-5.11 5.11l-5.06-5.06l5.11-5.11l5.06 5.06z" />
					<path class="s1" d="m303.28 308.61l5.11-5.11l5.11 5.11l-5.11 5.11l-5.11-5.11z" />
				</g>
				<g >
					<path class="s1" d="m316.7 322.07l-5.08-5.13l5.08-5.08l5.13 5.08l-5.13 5.13z" />
					<path class="s1" d="m300.05 311.85l5.11 5.11l-5.11 5.11l-5.11-5.11l5.11-5.11z" />
					<path class="s5" d="m298.58 380.6l0.08-5.09h2.83l0.06 5.09h-2.97zm5.55-0.13l-0.45-5.09c0.98-0.06 1.94-0.16 2.91-0.27l0.45 5.09c-0.97 0.11-1.94 0.2-2.91 0.27zm5.48-0.66l-0.83-5.02c0.94-0.16 1.89-0.27 2.83-0.45l0.91 5.03c-0.95 0.19-1.94 0.3-2.91 0.44zm5.42-1.02l-1.3-4.98c0.95-0.22 1.92-0.42 2.84-0.69l1.34 4.89c-0.95 0.28-1.92 0.55-2.89 0.78zm5.22-1.55l-1.67-4.78c0.91-0.31 1.81-0.61 2.7-0.97l1.75 4.77c-0.92 0.36-1.86 0.67-2.78 0.98zm5.22-2l-2.13-4.59c0.88-0.38 1.73-0.86 2.58-1.28l2.2 4.64c-0.88 0.42-1.77 0.84-2.66 1.23zm4.97-2.39l-2.52-4.45c0.84-0.45 1.66-0.92 2.45-1.42h0.06l2.59 4.39c-0.84 0.5-1.73 1-2.59 1.48zm4.72-2.91l-2.84-4.2c0.78-0.52 1.56-1.11 2.33-1.67l2.95 4.2c-0.81 0.59-1.61 1.11-2.44 1.67zm4.44-3.22l-3.22-3.94c0.75-0.61 1.47-1.23 2.2-1.87l3.28 3.87c-0.75 0.64-1.48 1.31-2.27 1.94zm4.2-3.67l-3.55-3.63c0.67-0.64 1.34-1.31 2-2l3.67 3.55c-0.69 0.72-1.41 1.39-2.13 2.08zm3.8-4l-3.81-3.3c0.64-0.7 1.22-1.45 1.81-2.2l3.94 3.3c-0.61 0.77-1.3 1.47-1.94 2.2zm3.48-4.2l-4.13-2.97c0.58-0.77 1.2-1.58 1.75-2.39l4.19 2.91c-0.58 0.86-1.19 1.63-1.81 2.45zm3.16-4.64l-4.39-2.59c0.5-0.8 0.97-1.61 1.44-2.44l4.44 2.52c-0.47 0.86-0.97 1.69-1.48 2.52zm2.66-4.84l-4.59-2.19c0.44-0.86 0.92-1.7 1.3-2.58l4.58 2.06c-0.39 0.91-0.83 1.81-1.28 2.7zm2.33-5.09l-4.78-1.73c0.34-0.91 0.66-1.8 0.97-2.72l4.77 1.75c-0.31 0.91-0.61 1.81-0.95 2.7zm1.73-5.16l-4.84-1.36c0.28-0.91 0.48-1.83 0.72-2.77l4.95 1.22c-0.23 0.98-0.55 1.95-0.83 2.91zm1.41-5.42l-5.02-0.89c0.19-0.92 0.38-1.86 0.5-2.78l4.98 0.84c-0.16 0.94-0.28 1.91-0.47 2.83zm0.84-5.47l-5.09-0.47c0.11-0.95 0.25-1.91 0.33-2.89l5.09 0.44c-0.06 1-0.22 1.94-0.33 2.92zm0.39-5.75l-5.09-0.06l0.06-2.64l5.09-0.08l-0.06 2.78z" />
					<path class="s1" d="m328.63 367.41l-5.11-5.11l1.2-1.2l-15.16-15.14l-1.19 1.2l-5.11-5.11l5.06-5.08l5.11 5.11l-1.2 1.2l15.16 15.14l1.19-1.19l5.11 5.11l-5.08 5.06h0.02zm8.39-8.38l-5.11-5.11l1.23-1.25l-15.14-15.14l-1.25 1.25l-5.11-5.11l5.11-5.11l5.11 5.11l-1.23 1.23l15.14 15.16l1.25-1.25l5.11 5.11l-5.13 5.11h0.02zm8.33-8.34l-5.11-5.11l1.25-1.23l-15.14-15.16l-1.25 1.25l-5.11-5.11l5.11-5.11l5.11 5.11l-1.25 1.25l15.16 15.14l1.23-1.25l5.11 5.11l-5.11 5.13v-0.02z" />
					<path class="s4" d="m321.83 316.96l3.27 3.28l-21.81 21.81l-3.28-3.27" />
					<path class="s1" d="m300 338.79l-5.11-5.11l5.06-5.06l5.11 5.11l-5.06 5.06z" />
					<path class="s1" d="m308.39 320.2l5.11 5.11l-5.11 5.11l-5.11-5.11l5.11-5.11z" />
				</g>
			</g>
			<g >
				<g >
					<path class="s1" d="m10.23 246.99l55.36-35.28l2.06 4.1l-58.61 39.38l1.19-8.2z" />
					<path class="s1" d="m7.26 271.93l65.89-47.8l2.85 3.63l-69.21 51.88l0.48-7.7z" />
					<path class="s1" d="m6.49 297.81l75.16-61.7l3.01 3.94l-77.89 66.41l-0.29-8.65z" />
					<path class="s1" d="m7.97 322.78l81.24-73.71l3.09 4.02l-83.3 79.19l-1.03-9.5z" />
					<path class="s1" d="m11.58 348.4l87.41-90.04l3.1 4.04l-88.77 94.84l-1.74-8.84z" />
					<path class="s1" d="m17.66 373.74l90.63-104.63l3.1 4.01l-91.36 109.24l-2.36-8.63z" />
					<path class="s1" d="m25.08 397.2l93.95-114.99l3.1 4.02l-93.76 119.28l-3.29-8.31z" />
					<path class="s1" d="m34.85 420.03l90.61-124.44l3.1 4.02l-89.85 128.21l-3.86-7.8z" />
					<path class="s1" d="m46.49 442.03l86.61-127.38l3.09 4.04l-85.51 130.4l-4.19-7.06z" />
					<path class="s1" d="m15.91 220.09l45.39-24.35l2.06 4.1l-49.58 28.66l2.12-8.41z" />
					<path class="s1" d="m23.75 194.78l44.61-18.25l2.06 4.1l-49.73 22.8l3.05-8.65z" />
					<path class="s1" d="m33.47 171.05l44.61-18.26l2.06 4.1l-50.65 23.03l3.97-8.86z" />
					<path class="s1" d="m45.85 147.09l44.63-18.25l2.05 4.09l-51.91 23.5l5.24-9.34z" />
					<path fill-rule="evenodd" class="s1" d="m300.03 597.7c-0.28 0-0.56 0-0.84 0c-49.12-0.36-101.63-11.92-147.14-38.61l-15.75-9.11c-17.93-11.18-33.45-24.68-48.44-37.96l-18.56-10.48c-8.88-5.39-6.82-11.41-3.78-13.54l8.46-6.51c-24.66-30.4-26.36-53.05-15.36-87.5c8.12-21.88 12.56-37.53 0.59-59.89c-3.49 2.18-8.69 9.21-3.91 17.12c4.61 9.06 0.82 14.52-5.53 18.88l-3.58-0.78l-1.82 2.99l-14.78 0.85c-9.61-6.75-4.98-14.63-1.17-21.03l-0.72-22.39l-6.51-8.79l2.41-16.67c-6.71 0.17-9.19-3.66-10.74-6.77l5.27-3c-7.39-1.35-5.81-13 1.56-12.69c-3.08-11.12-2.86-22.21-1.24-33.33c-3.48-1.79-3.78-6.79 0.59-8.33c-2.68-4.91-2.02-13.32 2.47-18.88c-2.36-1.09-2.75-5.56 1.17-6.45c-0.47-5.37-0.7-10.76 4.62-17.84c-1.76-2.8 0.09-6.05 3.19-6.12c0.28-7.45 0.67-13.27 6.06-17.32c-2.28-2.63 0-6.22 2.8-6.25c1.54-6.02 1.73-10.24 8.07-17.12c-1.23-1.49-0.3-5.4 2.93-5.21c1.74-5.24 2.89-10.66 9.64-16.73c-0.03-1.5 0.79-3.74 2.93-4.1c3.36-6.45 7.71-12.11 12.83-17.12c0.8-1.93 1.87-3.26 3.26-4.04c18.76-22.63 40.94-42.65 69.27-60.03c14.06-6.97 28.67-10.35 42.25-10.42c40.74-0.2 72.08 29.41 50.13 80.79c-4.7-4.94-9.49-9.52-14.58-13.09l-1.24 11.33l-10.42 1.5c13.81 14.57 17.37 31.16 7.29 51.63c-6.26-5.8-12-11.48-20.12-15.43l-0.85 10.68l-10.35 2.08c11.66 9.81 12.82 20.36 13.15 32.49c-28.76-17.82-54.16-2.98-52.54 37.17c0.09 2.27 0.65 11.31 1.04 16.08c-0.99-18.44 15.06-28.14 10.87-43.03c9.98-1.9 17.28-0.18 18.23 10.09c6.53-1.36 11.38-0.75 14.84 1.56c8.9 7.5 7.82 21.13-3.58 25.59c-4.9 1.55-10.51 0.1-14.32-4.69c-1.94 2.63-3.41 7.04-3.97 12.5c8.39-5.35 16.79-0.27 16.6 7.49c-0.29 10.09-10.31 11.97-17.06 6.84c-0.08 3.89 0.19 7.21 1.76 10.22c2.32-4.76 10.7-4.87 12.11 1.43c1.64 6.75-5.03 9.6-8.4 7.62l0.39 2.86c11.33 15.72 15.92 29.56 16.54 42.71c0.67 14.41-3.6 27.45-9.51 39.45c10.74 6.67 26.23 9.09 45.25 8.27l11.13 11.52l-43.69 54.62c24.47 21.79 67.13 32.18 99.94 31.71c0.28 0 0.57 0.01 0.85 0m-243.16-289.84c0 0.01 0 0.03 0.01 0.04c0-0.01 0-0.02 0-0.03l-0.01-0.01zm-2.47 12.06c1.88 2.94 1 7.28-1.37 8.79c1.6 3.76 0.73 9.65-1.17 12.37c2.7 1.94 2.9 7.75-0.65 10.16c2.4 4 2.33 7.98 0.07 11.98c3.33 2.45 2.7 9.2-0.39 10.22c1.72 4.34 1.83 9.31 0.26 13.02c46.67-11.25 49.59 37.85 81.51 67.64c4.29-54.73-63.28-69.77-75.78-146.2c-0.1 4.29-0.3 8.56-2.47 12.02z" />
					<path class="s1" d="m36.57 318.44c-0.67 0.94-1.98 1.15-2.92 0.48c-0.94-0.67-1.15-1.98-0.48-2.92c0.67-0.94 1.98-1.15 2.92-0.48c0.94 0.67 1.15 1.98 0.48 2.92z" />
				</g>
				<path class="s4" d="m191.21 443c3.17 9-3.66 12.51-12.4 5.8c-8.28-6.62-7.22-22.06 5.93-22.08l16.62 2.1c10.2 0.64 13.83-7.84 11.02-13.83l-3.3-7.4c-3.62-7.45 1.75-9.4 5.1-8.69l10.27 2.95c7.97 2.92 10.42-3.25 7.29-8.15l-2.99-5.43" />
				<path class="s4" d="m21.81 316.66c11.94-1.54 28.29-14.13 39.63-28.18c14.87 18.73 31.67 37.32 7.39 114.76l6.95 9.76" />
				<path class="s4" d="m61.25 288.72c-3.31 5.26-7.28 12.46-6.73 19.37c23.6-7.36 15.99 32.79-4.14 15.06c-6.66 5.44-8.73 19.53-8.95 29.7c1.03-20.96-4.35-26.34-14.69-37.31" />
				<path class="s4" d="m54.74 307.5c1.57-2.54 3.98-4.9 7.21-6.32c14.33 8.61 13.72 26.04-2.76 33.47c-5.41-2.44-8.15-6.95-8.84-11.55" />
				<path class="s4" d="m37.32 310.4c3.39 4.02 5.55 11.08-0.87 15.73" />
				<path class="s4" d="m61.47 288.91v12.3" />
				<path class="s4" d="m28.32 352.43c9.68 0.83 19.34 1.62 26.32-1.41" />
				<path class="s4" d="m29.88 359.58c-1.94 3.81-2.55 7.03 2.21 9.85c2.95-3.86 2.35-7.62-2.22-9.86l0 0.01z" />
				<path class="s4" d="m28.76 361.95c3.23 1.68 3.2 3.8 1.37 6.08" />
				<path class="s4" d="m44.54 372.52l-1.34-12.52l4.89 9.29" />
				<path class="s4" d="m181.24 374.9c9.46 4.23 24.72 8.37 48.41 4.16" />
				<path class="s4" d="m74.21 417.74l-21.79 12.95" />
				<path class="s4" d="m206.41 381.06c-3.67 7.54-5.44 16.12-5.54 24.52" />
				<path class="s4" d="m231.7 376.63l-143.81 135.4" />
				<path class="s4" d="m200.42 380.61c-4.79 11.3-7.97 20.6-11.02 35.38" />
				<path class="s4" d="m196.42 379.95c-7.01 12.85-14.33 29.03-18.71 47.13" />
				<path class="s4" d="m191.99 378.84c-13.49 20.71-23.53 41.85-26.62 58.79" />
				<path class="s4" d="m187.38 377.51c-15.16 18.7-26.48 38.53-31.66 60.16l-10.69 9.5l-8.93-8.44" />
				<path class="s4" d="m183.56 376.4c-23.93 23.01-33.04 45.61-38.6 70.1" />
				<path class="s4" d="m116.37 454.73l0.14-12.92l2.6 0.34l1.51-15.05l3.3 1.35l0-25.42c13.6-4.97 26.79-14.24 33.24-29.51" />
				<path class="s4" d="m173.14 338.48c5.5 24.06-18.48 42.44-41.26 43.03" />
				<path class="s4" d="m167.59 304.53c18.59 20.73 1.04 53.97-24.4 58.56" />
				<path class="s4" d="m123.67 403.24l-15.09 0.11" />
				<path class="s4" d="m120.79 427.03l-21.52-10.7" />
				<path class="s4" d="m116.35 441.84l-19.97-17.97" />
				<path class="s4" d="m116.34 454.93l-21.59-25.06l-21.56-7.99c9.4-39.55 52.6-43.23 59.34-90.95" />
				<path class="s4" d="m84.84 184.23c1.03 13.67 5.24 25.25 10 35.28c20.01 42.14 52.56 58.54 56.82 95.51c1.62 13.1-0.99 26.04-4.99 38.46c-14.65 43.1-45.66 41.26-51.74 76.41" />
				<path class="s4" d="m154.2 281.34c20.53 16.43 17.05 49.04-4.29 62.4" />
				<path class="s4" d="m163.63 205.33c7.81 2.81 8.8 10.44 1.35 24.06c-16.88 47.08 25.91 64.09 25.34 103.8c-1.85 41.42-26.46 46.24-40.63 68.23c-14.15 17.72-9.64 41.33-33.05 52.93" />
				<path class="s4" d="m152.14 248.53c0.12 4.29 0.88 7.8 1.41 10.36c6.24 30.18 25.29 37.5 28.17 72.19c-3.21 38.61-21.98 45.14-41.35 69.44c-11.88 14.9-7.38 33.2-24.33 53.24" />
				<path class="s4" d="m179.64 286.43c-9.17-11.06-13.27-23-12.99-37.32c0.25-13.18 4.75-28.28 14.42-34.31" />
				<path class="s4" d="m175.2 249.26c-5.4 4.03-7.36 13.53-5.09 21.16" />
				<path class="s4" d="m175.27 224c-0.53 3.76-0.13 9.12 2.7 13.26" />
				<path class="s4" d="m170.19 229.89c2.17-5.45 7.8-8.73 12-8.17c1.65 0.22 3.54 1.21 4.48 2.73c1.31 2.65 0.28 4.98-1.67 5.96c-1.38 0.68-2.99 0.4-3.89 0.13c-2.45-0.71-3.61-4.68-3.6-7.59" />
				<path class="s4" d="m173.7 264.6c-0.04-2.61-0.06-7.95 4.09-7.92c1.91 0.17 2.79 1.67 2.41 3.04c-0.89 2.83-4.4 3.05-6.01 0.64" />
				<path class="s4" d="m175.63 273.84c-1.38 2.63-1.12 5.09-0.26 6.97" />
				<path class="s4" d="m178.53 283.01c5.88 1.25 4.99-5.15 1.76-4.88c-3.52 0.38-3.2 4.35-1.92 6.23" />
				<path class="s4" d="m116.09 454.28c25.87-9.04 26.15-35.89 39.11-52.45c9.72-12.41 23.47-21.92 31.64-33.97" />
				<path class="s4" d="m150.49 409c-2.6 5.44-4.49 14.86-3.79 21.69c-4.85 2.14-7.3 4.53-10.33 7.93" />
				<path class="s4" d="m19.51 281.71c27.51 6.73 35.29-19.85 62.69-5.09c19.49 10.5 22.81 36.08 48.41 63.04" />
				<path class="s4" d="m23.4 304.39c23.33-2.31 28.32-28.85 41.24-32.27" />
				<path class="s4" d="m12.95 297.65c9.88 7.32 28.05-0.59 32.34-5.76" />
				<path class="s4" d="m96.42 376.64l-27.19 25.99" />
				<path class="s4" d="m17.55 294.4c20.51 4.64 29.62-12.2 42.19-20.08" />
				<path class="s4" d="m40.88 289.7c-13.76 5.34-25.69 4.09-24.98-1.72c0.52-3.63 3.43-3.71 8.89-2.75c3.21 0.56 7.18 0.52 11.95-0.42c11.19-2.19 17.9-10.52 24.92-12.03" />
				<path class="s4" d="m21.59 292.84c-3.84-1.47-3.8-4.06-3.15-4.82c1.93-2.26 4.68 0.21 11.05-0.1c4.46-0.22 12.77-3.05 20.12-8.66" />
				<path class="s4" d="m88.32 306.33l-5.93 1.1l-2.83-8.55c1.47-6.29 2.92-17.37 2.24-22.19" />
				<path class="s4" d="m95.47 328.28l-8.09 0.52l-2.6-8.88c3.56-10.95 8.16-26.98 8.31-34.01" />
				<path class="s4" d="m97.7 352.29l-8.32 0.17l-1.35-10.39c6.7-10.4 12.54-24.63 15.87-40.26" />
				<path class="s4" d="m96.64 375.13l-11.1 2.35l-0.96-9.12c13.01-13.91 23.37-30.18 28.76-50.86" />
				<path class="s4" d="m102.95 380.29l-5.54-0.19l-0.83-4.67c11.34-13.72 21.11-28.26 25.3-45.77" />
				<path class="s4" d="m126.49 335.05c-5.49 18.4-14.17 32.02-28.46 44.75" />
				<path class="s4" d="m117.57 323.93c-5.85 20.6-18.29 40.04-31.64 53.34" />
				<path class="s4" d="m108.51 309.76c-3.59 16.17-10.66 29.55-18.45 42.37" />
				<path class="s4" d="m98.34 293.23c-2.55 12.73-5.59 25.06-10.66 35.69" />
				<path class="s4" d="m87.21 280.35c-0.46 9.11-1.62 18.1-4.61 26.78" />
				<path class="s4" d="m112.84 451.93l-38.57 29.44" />
				<path class="s4" d="m188.88 452.29l-44.29 52.99l-25.36-22.71" />
				<path class="s4" d="m159 488.43l12.64 9.77" />
				<path class="s4" d="m157.85 429.95l7.79 8.5" />
				<path class="s4" d="m300.06 484.38c-31.86 0-61.9-7.84-88.3-21.7" />
				<path class="s4" d="m226.76 83.87c-40.36-46.76-122.23-20.02-154.69 76.59" />
				<path class="s4" d="m97.84 131.02c7.37-12.38 16.7-24 27.4-32.83c26.38-21.79 62.48-29.36 101.31-14.06" />
				<path class="s4" d="m85.17 187.27c-1.99-20.55 2.58-41 14.08-58.56c14.27-22.68 36.8-37.58 64.4-42.28c25.63-3.91 49.76 3.33 62.56 13.97" />
				<path class="s4" d="m56.76 185.71c-0.08-27.65 8.48-52.25 19.91-72.08c23.14-37.02 54.6-65.95 101.68-66.09c22.57-0.3 42.38 9.27 47.95 36.59" />
				<path class="s4" d="m102.58 143.87c7.15-14.59 23.75-28.15 37.28-34.79c21.28-10.45 47.78-13.09 74.13 3.79" />
				<path class="s4" d="m62.32 147.4l22.32 30.34" />
				<path class="s4" d="m60.64 152.48l23.98 32.82" />
				<path class="s4" d="m140.05 284.13c-9.71-18.35-27.87-37.99-38.21-57.89c-13.42-25.83-19.34-53.36-4.2-85.26c22.61-45.76 83.92-64.37 126.14-29.92" />
				<path class="s4" d="m141.58 284.81c-17.98-35.49-52.07-66.02-48.45-109.61c1.94-19.76 10.04-38.6 26.62-50.44c31.29-22.04 80.73-19.27 91.1 19.26" />
				<path class="s4" d="m119.97 210.72c-7.23-23.87-1.46-41.83 7.01-52.83c18.42-23.94 57.46-28.6 83.88-13.62" />
				<path class="s4" d="m142.02 285.93c4.1-32.16-25.99-60.4-23.78-93.67c1.13-17.01 14.12-39.58 40.23-46.46c11.66-3.07 28.23-3.67 43.03 3.48" />
				<path class="s4" d="m147.09 295.6c7.39-45.19-29.56-70.49-21.85-110.33c4.1-21.17 36.94-47.47 74.73-26.51" />
				<path class="s4" d="m150.96 308.15c13.94-56.2-30.67-86.34-20.15-120.05c7.18-23 32.34-39.04 59.51-26.22" />
				<path class="s4" d="m140.77 282.9c-3.99-18.07-20.22-45.13-26.84-61.79c-10.75-27.06-13.18-47.64-3.13-68.07c11.07-22.5 52.55-50.13 99.56-9.03" />
				<path class="s4" d="m185.74 179.51c-19.14-25.87-76.44-0.79-34.21 67.21" />
				<path class="s4" d="m55.25 262.44c-7.23 2.77-16.17 8.25-24.95 20.04" />
				<path class="s4" d="m300.06 496.16c-31.36 0-61.06-7.15-87.56-19.92" />
				<path class="s4" d="m300.06 555.61c-46.26 0-89.72-12.03-127.44-33.12" />
				<path class="s4" d="m300.06 572.21c-39.46 0-77-8.23-111.01-23.06" />
				<path class="s4" d="m218.08 466l-29.1 53.66" />
				<path class="s4" d="m199.2 442.74c-5.67-5.13-8.9-2.21-7.86 0.62" />
				<path class="s4" d="m43.31 268.26c-8.82 1.06-14.13 6.43-16.86 14.06" />
				<path class="s4" d="m26.62 280.99c-1.84-4.33-5.23-7.51-8.74-10.59" />
				<path class="s4" d="m18.51 248.7c5.32 5.5 8.93 14.04 3.82 25.83" />
				<path class="s4" d="m18.35 248.55c8.25 2.51 20.33 3.69 32.28 1.97" />
				<path class="s4" d="m18.99 240.11c5.85 3.39 23.62 4.46 32.12-0.25" />
				<path class="s4" d="m18.51 248.7c9.91 0.96 27.37-0.72 34.35-4.23" />
				<path class="s4" d="m50.31 250.93c-3.21 3.77-4.42 8.54-2.54 14.86" />
				<path class="s4" d="m51.11 227.71c-3.69 1.54-6.01 10.13-0.95 12.31" />
				<path class="s4" d="m21.69 221.68c4.21 5.35 3.21 14.83-1.59 18.67" />
				<path class="s4" d="m21.54 221.35c6.17 2.6 22.51 3.66 31.8 0.86" />
				<path class="s4" d="m22.49 221.99c6.82 3.62 20.97 5.6 28.78 5.79" />
				<path class="s4" d="m22.8 214.84c3.94 2.76 18.37 7.32 28.94 3.09" />
				<path class="s4" d="m28.05 197.66c2.36 5.39 0.92 13.02-4.61 17.24" />
				<path class="s4" d="m27.25 197.03c6.3 3.61 13.91 7.23 25.76 8.18" />
				<path class="s4" d="m30.44 191.3c6.3 3.6 12.95 5.8 23.69 5.47" />
				<path class="s4" d="m27.89 197.5c8.05 2.97 19.79 4.36 26.87 3.56" />
				<path class="s4" d="m52.7 205.45c-3.69 1.54-6.01 10.13-0.95 12.31" />
				<path class="s4" d="m36.8 173.49c2.36 5.38-0.19 14.3-5.41 17.4" />
				<path class="s4" d="m36.8 173.8c5.19 3.6 9.45 6.54 19.56 6.74" />
				<path class="s4" d="m39.5 167.29c2.96 3.92 8.66 8.02 17.02 7.86" />
				<path class="s4" d="m47.45 150.9c0.77 5.54-1.78 13.5-7 16.61" />
				<path class="s4" d="m47.56 150.33c2.86 3.18 7.17 5.05 12.35 4.89" />
				<path class="s4" d="m50.31 145.34c2.86 3.18 5.79 4.74 10.65 5" />
				<path class="s4" d="m59.85 128.28c1.9 1.49 4.1 3.25 7.69 3.3" />
				<path class="s4" d="m63.04 124.14c1.37 1.38 2.61 2.83 6.1 3.51" />
				<path class="s4" d="m75.86 107.39c0.73 1.06 1.66 1.77 3.34 1.82" />
				<path class="s4" d="m79.15 103.15c0.73 1.06 1.13 1.77 2.81 1.82" />
				<path class="s4" d="m59.7 128.8c0.13 6.34-3.69 13.18-8.91 16.29" />
				<path class="s4" d="m195.19 63.18c3.71 0.34 7.2-1.01 10.37-4.79c-4.47-0.45-8 1.03-10.37 4.79z" />
				<path class="s4" d="m194.97 64.04c-0.39 3.71 0.53 6.87 4.27 9.21c0.35-4.68-0.54-6.8-4.27-9.21z" />
				<path class="s4" d="m205.29 67.88c-1.76 3.07-1.3 4.72 0.66 7.38c1.39-3.28 1.79-4.65-0.68-7.38h0.01z" />
				<path class="s4" d="m205.69 66.99c3.09 1.41 5.09 0.95 7.6-1.19c-3.06-1.31-4.75-1.58-7.6 1.19z" />
				<path class="s4" d="m182.89 60.74c1.18-4.29 4.11-6.73 8.53-7.61c-1.93 4.55-4.88 6.85-8.53 7.61v0z" />
				<path class="s4" d="m182.94 61.63c4.28 1.22 5.75 2.98 6.78 7.56c-4.26-1.14-6.06-3.9-6.78-7.56v0z" />
				<path class="s4" d="m170.13 61.53c0.44-4.71 3.55-8.16 7.94-9.42c-0.78 5.23-3.99 8.26-7.93 9.42h-0.01z" />
				<path class="s4" d="m170.34 62.41c4.39 0.55 8.04 2.66 9.39 7.98c-4.75-0.4-8.12-4.48-9.4-7.98h0.01z" />
				<path class="s4" d="m158.24 63.44c3.8-1.55 6.7-4.89 6.94-10.17c-4.24 1.69-6.99 5.44-6.94 10.17v0z" />
				<path class="s4" d="m158.53 64.29c4.42 0.1 8.27 1.83 10.15 6.99c-4.77 0.08-8.54-3.63-10.16-6.99l0.01 0z" />
				<path class="s4" d="m149.04 66.99c-0.71-4.68 1.47-8.77 5.44-11.05c0.51 5.26-1.89 8.98-5.42 11.05l-0.01 0z" />
				<path class="s4" d="m149.45 67.78c4.4-0.53 8.45 0.64 11.04 5.48c-4.71 0.76-8.97-2.38-11.05-5.48l0.01 0z" />
				<path class="s4" d="m140.3 71.11c-1.21-4.57 0.54-8.88 4.25-11.57c1.05 5.18-0.94 9.13-4.24 11.56l-0.01 0z" />
				<path class="s4" d="m140.8 71.86c4.31-0.99 8.46-0.25 11.55 4.29c-4.6 1.25-9.18-1.42-11.56-4.28l0.01 0z" />
				<path class="s4" d="m131.85 75.78c3.2-2.57 5.04-6.59 3.78-11.72c-3.6 2.83-5.16 7.2-3.78 11.73v0z" />
				<path class="s4" d="m132.36 76.51c4.28-1.16 8.45-0.59 11.73 3.82c-4.55 1.43-9.22-1.06-11.73-3.82v0z" />
				<path class="s4" d="m123.97 80.87c2.84-2.96 4.14-7.19 2.21-12.11c-3.2 3.28-4.18 7.81-2.21 12.12v0z" />
				<path class="s4" d="m124.59 81.53c4.09-1.71 8.3-1.69 12.11 2.26c-4.33 2.01-9.27 0.16-12.12-2.25l0.01 0z" />
				<path class="s4" d="m116.86 86.88c2.5-3.25 3.32-7.59 0.89-12.28c-2.82 3.6-3.31 8.21-0.89 12.29v-0.01z" />
				<path class="s4" d="m117.54 87.47c3.88-2.14 8.06-2.58 12.29 0.93c-4.07 2.47-9.21 1.16-12.29-0.93v0z" />
				<path class="s4" d="m111.09 93.08c2.26-3.42 2.79-7.81 0.01-12.31c-2.56 3.79-2.71 8.43-0.01 12.32v0z" />
				<path class="s4" d="m111.8 93.63c3.72-2.41 7.86-3.14 12.34 0.06c-3.9 2.75-9.11 1.81-12.34-0.06v-0.01z" />
				<path class="s4" d="m105.11 99.28c-2.8-3.81-2.76-8.46-0.31-12.31c2.89 4.42 2.49 8.83 0.32 12.31l-0.01 0z" />
				<path class="s4" d="m105.85 99.8c3.65-2.51 7.77-3.35 12.32-0.27c-3.83 2.86-9.06 2.06-12.34 0.28l0.01-0.01z" />
				<path class="s4" d="m99.5 105.92c-3.05-3.62-3.32-8.25-1.13-12.27c3.18 4.23 3.06 8.64 1.13 12.26v0.01z" />
				<path class="s4" d="m100.26 106.39c3.47-2.74 7.54-3.86 12.29-1.08c-3.64 3.1-8.91 2.64-12.29 1.08v-0.01z" />
				<path class="s4" d="m94.5 113.34c-3.34-3.35-3.99-7.95-2.14-12.12c3.51 3.95 3.77 8.36 2.15 12.12h-0.01z" />
				<path class="s4" d="m95.3 113.75c3.5 1.28 8.8 1.29 12.15-2.1c-4.95-2.38-8.91-0.93-12.15 2.1z" />
				<path class="s4" d="m89.63 120.75c1.44-3.84 0.95-8.24-2.75-12c-1.65 4.26-0.78 8.84 2.75 12z" />
				<path class="s4" d="m90.44 121.11c3.09-3.17 6.96-4.82 12.02-2.7c-3.17 3.56-8.46 3.81-12.02 2.71v-0.01z" />
				<path class="s4" d="m85.54 128.28c-3.65-3.02-4.75-7.52-3.3-11.86c3.88 3.59 4.56 7.95 3.3 11.85v0.01z" />
				<path class="s4" d="m86.37 128.6c3.6 0.94 8.88 0.44 11.89-3.26c-5.16-1.89-8.95-0.06-11.89 3.26z" />
				<path class="s4" d="m81.43 135.91c-3.76-2.86-5.05-7.33-3.8-11.73c4.04 3.43 4.9 7.76 3.81 11.71l-0.01 0.01z" />
				<path class="s4" d="m82.28 136.2c3.65 0.77 8.89 0.06 11.75-3.76c-5.24-1.66-8.95 0.32-11.74 3.76h-0.01z" />
				<path class="s4" d="m77.76 143.76c-3.89-2.69-5.38-7.09-4.3-11.54c4.17 3.25 5.22 7.54 4.31 11.54h-0.01z" />
				<path class="s4" d="m78.62 144.01c2.64-3.55 6.26-5.7 11.56-4.26c-2.67 3.95-7.89 4.89-11.56 4.28v-0.01z" />
				<path class="s4" d="m74.35 151.95c0.92-4-0.14-8.3-4.31-11.54c-1.06 4.45 0.41 8.85 4.31 11.54z" />
				<path class="s4" d="m75.21 152.2c2.64-3.55 6.26-5.7 11.56-4.26c-2.69 3.95-7.89 4.89-11.58 4.28l0.01-0.01z" />
				<path class="s4" d="m174.09 124.69c-0.35 3.53 0.75 4.84 3.62 6.46c-0.07-3.56-0.27-4.98-3.64-6.45l0.01-0.01z" />
				<path class="s4" d="m174.09 123.73c3.4 0.01 5.03-1.23 6.44-4.21c-3.32 0.06-4.99 0.53-6.44 4.21z" />
				<path class="s4" d="m183.11 127.85c-0.98 2.88-0.33 4.19 1.76 6.1c0.65-2.99 0.75-4.2-1.76-6.1z" />
				<path class="s4" d="m183.32 127.04c2.84 0.67 4.44-0.04 6.21-2.25c-2.81-0.6-4.28-0.55-6.21 2.25z" />
				<path class="s4" d="m163.86 123.63c0.41 3.51 1.76 4.56 4.92 5.53c-0.84-3.46-1.33-4.8-4.92-5.53z" />
				<path class="s4" d="m163.65 122.68c3.33-0.71 4.65-2.27 5.4-5.49c-3.24 0.76-4.78 1.58-5.4 5.49z" />
				<path class="s4" d="m154.76 124.19c3.68-0.14 4.69 1.48 6.3 4.68c-3.3-0.2-5.07-1.35-6.3-4.66v-0.01z" />
				<path class="s4" d="m154.42 122.98c-0.3-3.95 1.49-5.97 4.29-7.16c0.04 3.3-1.21 5.69-4.28 7.16h-0.01z" />
				<path class="s4" d="m146.35 125.66c1.45 3.24 3.3 4.26 6.6 4.24c-1.81-3.08-2.94-4.63-6.6-4.24z" />
				<path class="s4" d="m145.94 124.48c-0.56-3.92 1.09-6.06 3.8-7.45c0.25 3.3-0.82 5.76-3.79 7.45h-0.01z" />
				<path class="s4" d="m138.91 128.31c3.59-0.81 4.89 0.57 7.06 3.41c-3.29 0.42-5.25-0.38-7.06-3.4v-0.01z" />
				<path class="s4" d="m138.36 127.18c2.74-2.01 3.52-4.59 2.88-7.84c-2.53 1.7-3.91 4.02-2.88 7.85v-0.01z" />
				<path class="s4" d="m132.52 131.54c3.45-1.24 4.91-0.01 7.41 2.54c-3.2 0.81-5.25 0.26-7.43-2.53l0.01-0.01z" />
				<path class="s4" d="m131.84 130.49c2.48-2.34 2.93-5 1.9-8.14c-2.31 1.99-3.4 4.47-1.9 8.14z" />
				<path class="s4" d="m126.7 135.41c3.25-1.72 4.86-0.71 7.71 1.46c-3.06 1.25-5.16 1-7.71-1.45v-0.01z" />
				<path class="s4" d="m125.88 134.46c2.13-2.66 2.2-5.35 0.74-8.31c-2 2.29-2.74 4.9-0.74 8.32v-0.01z" />
				<path class="s4" d="m121.42 140.01c2.89 2.04 5 1.97 7.84 0.27c-3.14-1.72-4.89-2.47-7.84-0.27z" />
				<path class="s4" d="m120.46 139.2c-2.49-3.09-2.16-5.78-0.54-8.34c1.9 2.7 2.24 5.38 0.54 8.33v0.01z" />
				<path class="s4" d="m116.71 145.26c2.66-2.54 4.5-2.01 7.81-0.69c-2.6 2.04-4.69 2.36-7.8 0.69h-0.01z" />
				<path class="s4" d="m115.66 144.58c-2.85-2.76-2.85-5.46-1.55-8.21c2.21 2.45 2.88 5.06 1.55 8.2v0.01z" />
				<path class="s4" d="m112.81 150.71c3.24 1.45 5.3 0.96 7.75-1.25c-3.41-1.08-5.29-1.47-7.75 1.25z" />
				<path class="s4" d="m111.71 150.1c1.09-3.22 0.25-5.79-2.14-8.07c-1.1 2.84-0.9 5.54 2.14 8.07z" />
				<path class="s4" d="m109.34 157.33c2.1-3.01 4-2.85 7.53-2.21c-2.15 2.51-4.14 3.24-7.53 2.23v-0.01z" />
				<path class="s4" d="m108.16 156.86c0.68-3.34-0.49-5.77-3.14-7.74c-0.74 2.95-0.19 5.61 3.15 7.74h-0.01z" />
				<path class="s4" d="m107.22 164.14c3.5 0.47 5.35-0.58 7.06-3.39c-3.58-0.07-5.48 0.08-7.06 3.39z" />
				<path class="s4" d="m105.99 163.86c0.14-3.41-1.4-5.63-4.32-7.14c-0.26 3.04 0.7 5.56 4.34 7.14h-0.01z" />
				<path class="s4" d="m105.85 170.61c3.54 0.01 5.24-1.26 6.57-4.27c-3.56 0.39-5.43 0.79-6.57 4.27z" />
				<path class="s4" d="m104.59 170.49c-0.3-3.39-2.11-5.39-5.22-6.51c0.15 3.04 1.42 5.43 5.24 6.52l-0.01-0.01z" />
				<path class="s4" d="m105.33 177.76c3.49-0.6 4.94-2.14 5.72-5.35c-3.43 1.01-5.2 1.71-5.72 5.35z" />
				<path class="s4" d="m104.06 177.88c-3.94-0.41-5.61-2.55-6.28-5.51c3.26 0.56 5.39 2.23 6.28 5.5v0.01z" />
				<path class="s4" d="m105.46 185.16c3.41-0.94 4.7-2.61 5.19-5.89c-3.32 1.34-5.01 2.21-5.19 5.89z" />
				<path class="s4" d="m104.23 185.39c-1.21-3.19-3.49-4.63-6.79-4.88c0.95 2.89 2.82 4.85 6.79 4.88z" />
				<path class="s4" d="m106.25 193.28c-0.03-3.67 1.62-4.64 4.86-6.15c-0.3 3.29-1.5 5.04-4.85 6.15h-0.01z" />
				<path class="s4" d="m105.04 193.58c-3.96 0.19-5.94-1.66-7.05-4.5c3.31 0.06 5.66 1.38 7.04 4.49l0.01 0.01z" />
				<path class="s4" d="m108.05 201.01c-0.64-3.63 0.81-4.85 3.75-6.89c0.26 3.29-0.63 5.21-3.74 6.89h-0.01z" />
				<path class="s4" d="m106.9 201.51c-3.88 0.85-6.14-0.65-7.7-3.25c3.26-0.49 5.81 0.41 7.69 3.24l0.01 0.01z" />
				<path class="s4" d="m110.78 209.8c3.01-1.86 3.79-3.84 3.32-7.11c-2.81 2.22-4.19 3.54-3.32 7.11z" />
				<path class="s4" d="m109.65 210.36c-2.06-2.71-4.65-3.46-7.88-2.78c1.72 2.51 4.08 3.86 7.88 2.78z" />
				<path class="s4" d="m113.54 217.75c2.94-1.98 3.62-3.99 3.04-7.24c-2.73 2.32-4.04 3.7-3.04 7.24z" />
				<path class="s4" d="m112.44 218.36c-3.76 1.24-6.16-0.03-7.99-2.46c3.21-0.81 5.82-0.18 7.99 2.45v0.01z" />
				<path class="s4" d="m116.84 226.14c-1-3.54 0.32-4.91 3.04-7.24c0.6 3.25-0.09 5.26-3.02 7.24h-0.01z" />
				<path class="s4" d="m115.75 226.75c-3.76 1.24-6.16-0.02-7.99-2.46c3.2-0.81 5.81-0.18 7.97 2.45l0.01 0.01z" />
				<path class="s4" d="m120.08 234.03c2.61-2.39 3-4.46 1.94-7.6c-2.34 2.69-3.44 4.24-1.92 7.59l-0.01 0.01z" />
				<path class="s4" d="m119.01 234.6c-1.8-2.89-4.31-3.86-7.59-3.46c1.46 2.64 3.69 4.2 7.59 3.46z" />
				<path class="s4" d="m123.82 242.08c2.31-2.66 2.46-4.79 1.05-7.76c-2.03 2.95-2.95 4.62-1.05 7.76z" />
				<path class="s4" d="m122.8 242.64c-3.94 0.38-6.01-1.39-7.23-4.18c3.31-0.07 5.71 1.14 7.24 4.18h-0.01z" />
				<path class="s4" d="m127.64 249.13c2.04-2.9 1.95-5.01 0.24-7.84c-1.7 3.14-2.45 4.9-0.24 7.84z" />
				<path class="s4" d="m126.71 249.71c-1.53-3.05-3.92-4.26-7.24-4.18c1.21 2.78 3.29 4.54 7.24 4.18z" />
				<path class="s4" d="m131.55 257.68c2.35-2.65 2.51-4.76 1.13-7.76c-2.05 2.93-2.99 4.59-1.11 7.75l-0.01 0.01z" />
				<path class="s4" d="m130.75 257.86c-1.51-3.05-2.82-4.11-6.13-4.03c1.23 2.76 2.19 4.38 6.13 4.03z" />
				<path class="s4" d="m172.25 175.88c0.8-1.91 1.59-2.04 3.61-2.11c-0.89 1.64-1.61 2.27-3.6 2.11h-0.01z" />
				<path class="s4" d="m172.18 177.04c0.92 1.76 1.85 2.04 3.71 1.91c-1.15-1.66-1.67-2.26-3.71-1.91z" />
				<path class="s4" d="m163.41 176.48c1.99-0.22 2.57-0.99 3.13-2.76c-1.95 0.45-2.7 0.74-3.11 2.76h-0.01z" />
				<path class="s4" d="m163.56 177.63c1.24 1.55 2.2 1.65 4 1.18c-1.45-1.43-2.07-1.9-4.01-1.18h0.01z" />
				<path class="s4" d="m155.33 179.93c1.85-0.75 2.21-1.65 2.26-3.5c-1.76 0.96-2.41 1.44-2.25 3.5h-0.01z" />
				<path class="s4" d="m155.78 181c1.61 1.15 2.56 0.99 4.16 0.04c-1.78-0.97-2.5-1.26-4.18-0.04h0.01z" />
				<path class="s4" d="m148.4 186.55c1.35-1.47 1.3-2.44 0.55-4.14c-1.17 1.63-1.56 2.33-0.54 4.13l-0.01 0.01z" />
				<path class="s4" d="m149.26 187.33c1.96 0.35 2.75-0.2 3.79-1.74c-2.01-0.13-2.81-0.09-3.79 1.74z" />
				<path class="s4" d="m143.99 195.05c0.99-1.74 0.71-2.66-0.41-4.15c-0.76 1.85-0.97 2.63 0.43 4.15h-0.01z" />
				<path class="s4" d="m145.01 195.61c1.99-0.1 2.63-0.81 3.29-2.55c-1.99 0.34-2.75 0.56-3.3 2.56l0.01-0.01z" />
				<path class="s4" d="m142.04 204.89c0.56-1.91 0.09-2.76-1.34-3.95c-0.34 1.96-0.38 2.78 1.34 3.94v0.01z" />
				<path class="s4" d="m143.15 205.2c1.91-0.55 2.39-1.39 2.64-3.24c-1.86 0.79-2.56 1.17-2.64 3.24z" />
				<path class="s4" d="m142.29 214.73c0.16-1.99-0.48-2.72-2.11-3.6c0.08 2 0.2 2.8 2.11 3.59v0.01z" />
				<path class="s4" d="m143.45 214.8c1.76-0.92 2.04-1.85 1.91-3.7c-1.66 1.15-2.26 1.66-1.91 3.71v-0.01z" />
				<path class="s4" d="m185.74 180.49c-21.69-0.44-45.33 9.2-33.78 64.37" />
				<path class="s4" d="m184.04 179.51c-30.61-13.25-54.98 17.77-32.32 65.4" />
				<path class="s4" d="m85.64 195.53l-10.19 7.6l-13.99-1.27l10.63-7.65l13.56 1.33h-0.01z" />
				<path class="s4" d="m90.63 211.3l-7.99 8.18l-13.99 0.59l9.53-9.07l12.46 0.32l-0.01-0.01z" />
				<path class="s4" d="m97.49 226.13l-7.02 9.13l-12 1.81l7.2-10.4l11.81-0.55l0.01 0.01z" />
				<path class="s4" d="m106.46 240.45l-6.09 9.36l-10.95 2.34l5.59-9.89l11.44-1.8l0.01-0.01z" />
				<path class="s4" d="m116.64 254.48l-5.24 9.11l-9.76 2.25l3.91-9.5l11.09-1.85v-0.01z" />
				<path class="s4" d="m127.52 268.05l-4.25 9.06l-10.65 1.86l4.21-9.25l10.7-1.66l-0.01-0.01z" />
				<path class="s4" d="m133.84 292l-10.85 0.43l5.34-8.71l10.6-0.22l-5.09 8.51z" />
				<path class="s4" d="m148.05 301.25l-7.44 7.39l-10.7-2.72l7.46-6.65l10.67 1.98v0.01z" />
				<path class="s4" d="m151.49 320.26l-9.19 4.68l-9.07-3.13l8.55-4.49l9.74 2.95l-0.03-0.01z" />
				<path class="s4" d="m149.43 340.73l-8.79 1.63l-8.74-5.19l9.98-2.19l7.54 5.76l0.01-0.01z" />
				<path class="s4" d="m143.8 359.43l-9.94 0.19l-6.84-7.86l10.08 1.15l6.69 6.54l0.01-0.01z" />
				<path class="s4" d="m134.21 376.4l-10.15-2.1l-5.15-9.28l10.08 2.78l5.21 8.6h0.01z" />
				<path class="s4" d="m121.38 390.18l-10-3.21l-4.49-9.27l10.45 3.89l4.02 8.6h0.01z" />
				<path class="s4" d="m108.59 402.16l-9.69-3.27l-5.07-8.9l10.89 3.22l3.89 8.96l-0.01-0.01z" />
				<path class="s4" d="m99.13 414.91l-11.37-0.94l-6.48-9.13l11.7 0.94l6.16 9.11l-0.01 0.01z" />
				<path class="s4" d="m75.35 202.99c1.03 2.73 2.05 5.35 3.09 7.85m3.69 8.4c1.22 2.61 2.46 5.09 3.7 7.44m4.64 8.47c1.5 2.56 3 4.96 4.49 7.21m10.74 14.35c-0.88-1.06-1.75-2.14-2.63-3.22c-0.99-1.22-1.97-2.49-2.97-3.81m11.2 13.72c1.95 2.29 3.85 4.51 5.7 6.7m5.87 7.06c1.89 2.33 3.67 4.61 5.35 6.89m5.23 7.72c1.51 2.48 2.84 4.96 3.97 7.49m3.1 9.05c0.34 1.42 0.6 2.89 0.79 4.38c0.23 1.69 0.41 3.34 0.56 4.96m0.46 7.36c0.09 3.44-0.04 6.77-0.4 10.07m-1.18 7.04c-0.82 3.6-1.99 7.2-3.57 10.88m-3.21 6.56c-0.94 1.73-1.98 3.46-3.11 5.24c-0.66 1.05-1.34 2.05-2.03 3.04m-4.75 6.25c-2.21 2.69-4.47 5.14-6.75 7.45m-5.72 5.54c-2.33 2.16-4.61 4.23-6.81 6.29m-5.64 5.46c-2.23 2.29-4.31 4.65-6.19 7.2m-4.94 8.14c-1.57 3.29-2.84 6.9-3.71 11m-23.17-271.23c3.55 15.53 7.28 28.85 11.15 40.35" />
				<path class="s4" d="m83.06 405.8l14.24 8.04" />
				<path class="s4" d="m95.51 391.15l11.95 9.96" />
				<path class="s4" d="m108.69 379.5l11.88 9.81" />
				<path class="s4" d="m120.39 366.19l12.17 9.15" />
				<path class="s4" d="m129.15 352.81l12.66 5.86" />
				<path class="s4" d="m134.27 337.53l13.05 2.66" />
				<path class="s4" d="m135.28 321.59l13.84-1.11" />
				<path class="s4" d="m131.73 305.43l14.47-3.67" />
				<path class="s4" d="m124.62 291.53l12.7-7.15" />
				<path class="s4" d="m114.18 277.74l11.97-8.58" />
				<path class="s4" d="m103.08 264.65l11.92-9.16" />
				<path class="s4" d="m91.14 250.88l13.54-9.26" />
				<path class="s4" d="m80.38 235.88l15.36-8.91" />
				<path class="s4" d="m71 219.09l17.68-6.91" />
				<path class="s4" d="m63.74 201.28l19.78-5.19" />
				<path class="s4" d="m95.56 504.88c52.89 51.3 125 82.9 204.45 82.9" />
				<g >
					<path class="s1" d="m208.89 450.24l8.3 5.21l-44.23 71.21l-1.09 11.88l-32.05 32.19l-9.06-5.58l16.39-41.69l11.89-7.41l49.85-65.81z" />
					<path class="s1" d="m155.2 528.59l8.43 5.63l-24.53 32.22l-3.92-2.42l20.02-35.42z" />
					<path class="s1" d="m156.78 535.85l-2.58-11.31l-20.21-3.33l-2.59 4.23l3.83 11.93l2.61-4.02l4.38 2.61l-5.56 14.22l-8.34-5.4l-6.64-20.91l9-12.27l28.58 4.17l3.01 11.1l10.48-0.43l16.09 20.09l-6.64 13.78l-20.99 3.68l-9.59-5.13l10.79-10.84l3.74 2.35l-2.21 4.09l12.32-2.14l2.45-4.4l-10.04-13.85l-11.89 1.77v0.01z" />
					<path class="s1" d="m129.9 545.55l5.49-8.41" />
					<path class="s1" d="m159.14 563.11l4.94-8.94" />
					<path class="s1" d="m212.8 453.15l-55.86 82.45" />
					<path class="s1" d="m244.02 384.36c0 4.52-3.66 8.19-8.21 8.19c-4.51 0-8.19-3.66-8.19-8.19c0-4.51 3.67-8.19 8.19-8.19c4.55 0 8.21 3.68 8.21 8.19z" />
					<path class="s1" d="m238.26 384.36c0 1.35-1.09 2.44-2.44 2.44c-1.34 0-2.42-1.09-2.42-2.44c0-1.34 1.09-2.43 2.42-2.43c1.35 0 2.44 1.09 2.44 2.43z" />
				</g>
				<path class="s4" d="m300.06 545.98c-39.94 0-77.71-9.31-111.29-25.88" />
				<g >
					<path class="s1" d="m283.32 311.85l5.08 5.13l-5.08 5.08l-5.13-5.08l5.13-5.13z" />
					<path class="s1" d="m299.98 322.06l-5.11-5.11l5.11-5.11l5.11 5.11l-5.11 5.11z" />
					<path class="s5" d="m301.45 253.31l-0.08 5.09h-2.83l-0.06-5.09h2.97zm-5.55 0.13l0.45 5.09c-0.98 0.06-1.94 0.16-2.91 0.27l-0.45-5.09c0.97-0.11 1.94-0.2 2.91-0.27zm-5.48 0.66l0.83 5.02c-0.94 0.16-1.89 0.27-2.83 0.45l-0.91-5.03c0.95-0.19 1.94-0.3 2.91-0.44zm-5.42 1.02l1.3 4.98c-0.95 0.22-1.92 0.42-2.84 0.69l-1.34-4.89c0.95-0.28 1.92-0.55 2.89-0.78zm-5.22 1.55l1.67 4.78c-0.91 0.31-1.81 0.61-2.7 0.97l-1.75-4.77c0.92-0.36 1.86-0.67 2.78-0.98zm-5.22 2l2.13 4.59c-0.88 0.38-1.73 0.86-2.58 1.28l-2.2-4.64c0.88-0.42 1.77-0.84 2.66-1.23zm-4.97 2.39l2.52 4.45c-0.84 0.45-1.66 0.92-2.45 1.42h-0.06l-2.59-4.39c0.84-0.5 1.73-1 2.59-1.48zm-4.72 2.91l2.84 4.2c-0.78 0.52-1.56 1.11-2.33 1.67l-2.95-4.2c0.81-0.59 1.61-1.11 2.44-1.67zm-4.44 3.22l3.22 3.94c-0.75 0.61-1.47 1.23-2.2 1.88l-3.28-3.88c0.75-0.64 1.48-1.31 2.27-1.94zm-4.2 3.67l3.55 3.63c-0.67 0.64-1.34 1.31-2 2l-3.67-3.55c0.69-0.72 1.41-1.39 2.12-2.08zm-3.8 4l3.81 3.3c-0.64 0.7-1.22 1.45-1.81 2.2l-3.94-3.3c0.61-0.77 1.3-1.47 1.94-2.2zm-3.48 4.2l4.12 2.97c-0.58 0.77-1.2 1.58-1.75 2.39l-4.19-2.91c0.58-0.86 1.19-1.63 1.81-2.45zm-3.16 4.64l4.39 2.59c-0.5 0.8-0.97 1.61-1.44 2.44l-4.44-2.52c0.47-0.86 0.97-1.69 1.48-2.52zm-2.66 4.84l4.59 2.19c-0.44 0.86-0.92 1.7-1.3 2.58l-4.58-2.06c0.39-0.91 0.83-1.81 1.28-2.7zm-2.33 5.09l4.78 1.73c-0.34 0.91-0.66 1.8-0.97 2.72l-4.77-1.75c0.31-0.91 0.61-1.81 0.95-2.7zm-1.73 5.16l4.84 1.36c-0.28 0.91-0.48 1.83-0.72 2.77l-4.95-1.22c0.23-0.98 0.55-1.95 0.83-2.91zm-1.41 5.42l5.02 0.89c-0.19 0.92-0.38 1.86-0.5 2.78l-4.98-0.84c0.16-0.94 0.28-1.91 0.47-2.83zm-0.84 5.47l5.09 0.47c-0.11 0.95-0.25 1.91-0.33 2.89l-5.09-0.44c0.06-1 0.22-1.94 0.33-2.92zm-0.39 5.75l5.09 0.06l-0.06 2.64l-5.09 0.08l0.06-2.78z" />
					<path class="s1" d="m271.4 266.5l5.11 5.11l-1.2 1.2l15.16 15.14l1.19-1.2l5.11 5.11l-5.06 5.08l-5.11-5.11l1.2-1.2l-15.16-15.14l-1.19 1.19l-5.11-5.11l5.08-5.06h-0.02zm-8.39 8.38l5.11 5.11l-1.23 1.25l15.14 15.14l1.25-1.25l5.11 5.11l-5.11 5.11l-5.11-5.11l1.23-1.23l-15.14-15.16l-1.25 1.25l-5.11-5.11l5.13-5.11h-0.02zm-8.33 8.34l5.11 5.11l-1.25 1.23l15.14 15.16l1.25-1.25l5.11 5.11l-5.11 5.11l-5.11-5.11l1.25-1.25l-15.16-15.14l-1.23 1.25l-5.11-5.11l5.11-5.13v0.02z" />
					<path class="s4" d="m278.2 316.95l-3.27-3.28l21.81-21.81l3.28 3.27" />
					<path class="s1" d="m300.03 295.13l5.11 5.11l-5.06 5.06l-5.11-5.11l5.06-5.06z" />
					<path class="s1" d="m291.63 313.72l-5.11-5.11l5.11-5.11l5.11 5.11l-5.11 5.11z" />
				</g>
				<g >
					<path class="s1" d="m278.2 316.95l5.13-5.08l5.08 5.08l-5.08 5.13l-5.13-5.13z" />
					<path class="s1" d="m305.09 316.96l-5.11 5.11l-5.11-5.11l5.11-5.11l5.11 5.11z" />
					<path class="s5" d="m298.48 380.6l0.06-5.09h2.83l0.08 5.09h-2.97zm-5.48-0.39l0.45-5.09c0.97 0.11 1.92 0.2 2.91 0.27l-0.45 5.09c-0.97-0.06-1.94-0.16-2.91-0.27zm-5.48-0.83l0.91-5.03c0.94 0.19 1.89 0.3 2.83 0.45l-0.83 5.02c-0.97-0.14-1.95-0.25-2.91-0.44zm-5.41-1.36l1.34-4.89c0.92 0.27 1.89 0.47 2.84 0.69l-1.3 4.98c-0.97-0.23-1.94-0.5-2.89-0.78zm-5.11-1.75l1.75-4.77c0.89 0.36 1.8 0.66 2.7 0.97l-1.67 4.78c-0.92-0.31-1.86-0.63-2.78-0.98zm-5.09-2.25l2.2-4.64c0.84 0.42 1.7 0.91 2.58 1.28l-2.13 4.59c-0.89-0.39-1.78-0.81-2.66-1.23zm-4.91-2.64l2.59-4.39h0.06c0.8 0.5 1.61 0.97 2.45 1.42l-2.52 4.45c-0.86-0.48-1.75-0.98-2.59-1.48zm-4.56-3.09l2.95-4.2c0.77 0.56 1.55 1.16 2.33 1.67l-2.84 4.2c-0.83-0.56-1.63-1.08-2.44-1.67zm-4.27-3.48l3.28-3.87c0.73 0.64 1.45 1.27 2.2 1.87l-3.22 3.94c-0.78-0.63-1.52-1.3-2.27-1.94zm-4.06-3.81l3.67-3.55c0.66 0.69 1.33 1.36 2 2l-3.55 3.63c-0.72-0.69-1.44-1.36-2.12-2.08zm-3.61-4.12l3.94-3.3c0.59 0.75 1.17 1.5 1.81 2.2l-3.81 3.3c-0.64-0.73-1.33-1.44-1.94-2.2zm-3.36-4.45l4.19-2.91c0.55 0.81 1.17 1.62 1.75 2.39l-4.12 2.97c-0.63-0.83-1.23-1.59-1.81-2.45zm-2.83-4.7l4.44-2.52c0.47 0.83 0.94 1.64 1.44 2.44l-4.39 2.59c-0.52-0.83-1.02-1.66-1.48-2.52zm-2.45-5.03l4.58-2.06c0.38 0.88 0.86 1.72 1.3 2.58l-4.59 2.19c-0.45-0.89-0.89-1.8-1.28-2.7zm-2-5.09l4.77-1.75c0.31 0.92 0.63 1.81 0.97 2.72l-4.78 1.73c-0.34-0.89-0.64-1.8-0.95-2.7zm-1.61-5.36l4.95-1.22c0.23 0.94 0.44 1.86 0.72 2.77l-4.84 1.36c-0.28-0.95-0.59-1.92-0.83-2.91zm-1.05-5.34l4.98-0.84c0.13 0.92 0.31 1.86 0.5 2.78l-5.02 0.89c-0.19-0.92-0.31-1.89-0.47-2.83zm-0.7-5.56l5.09-0.44c0.08 0.98 0.22 1.94 0.33 2.89l-5.09 0.47c-0.11-0.98-0.27-1.92-0.33-2.92zm-0.13-5.61l5.09 0.08l0.06 2.64l-5.09 0.06l-0.06-2.78z" />
					<path class="s1" d="m271.42 367.41l-5.08-5.06l5.11-5.11l1.19 1.19l15.16-15.14l-1.2-1.2l5.11-5.11l5.06 5.08l-5.11 5.11l-1.19-1.2l-15.16 15.14l1.2 1.2l-5.11 5.11h0.02zm-8.39-8.38l-5.13-5.11l5.11-5.11l1.25 1.25l15.14-15.16l-1.23-1.23l5.11-5.11l5.11 5.11l-5.11 5.11l-1.25-1.25l-15.14 15.14l1.23 1.25l-5.11 5.11h0.02zm-8.34-8.33l-5.11-5.13l5.11-5.11l1.23 1.25l15.16-15.14l-1.25-1.25l5.11-5.11l5.11 5.11l-5.11 5.11l-1.25-1.25l-15.14 15.16l1.25 1.23l-5.11 5.11v0.02z" />
					<path class="s4" d="m300.03 338.79l-3.28 3.27l-21.81-21.81l3.27-3.28" />
					<path class="s1" d="m294.96 333.73l5.11-5.11l5.06 5.06l-5.11 5.11l-5.06-5.06z" />
					<path class="s1" d="m296.74 325.3l-5.11 5.11l-5.11-5.11l5.11-5.11l5.11 5.11z" />
				</g>
			</g>
		</g>
		<path class="s4" d="m222.58 489.4c0.68 0.26 1.32 0.61 1.87 0.93l-0.02-0.01c3.81 2.25 4.25 5.9 2.24 10.16l-4.24 11.69c-0.36 1.01-1.01 3.02-2.42 4.58l0.61 2.47l-0.23 3.94l-2.37-0.73l-1.01-3.83c-1.42 0.37-3.19 0.31-5.45-0.53c-3.78-1.33-6.39-5.47-4.97-9.71l5.71-14.01c0.77-2.21 3.07-5.46 7.17-5.49c0.95-0.01 1.99 0.16 3.12 0.54zm-3.47 3.65c0.64-0.07 1.37 0.02 2.21 0.32c3.83 1.66 2.54 3.93 1.85 6.03l-4.49 11.34c-0.03 0.09-0.07 0.18-0.1 0.27l-1.28-5.2l-3.21 1.77l1.82 6.9c-0.84 0.39-1.82 0.44-2.94-0.02c-1.94-0.77-3.43-2.71-2.26-6.1l4.93-12.28c0.5-1.25 1.55-2.83 3.47-3.03z" />
		<path class="s4" d="m349.69 497.56l0.84 4.38l-5.21 0.98l5 26.09l-4.1 0.78l-4.95-26.11l-5.21 1.04l-0.85-4.36l14.45-2.8h0.02z" />
		<path class="s4" d="m362.44 494.24l15.09 27.94l-3.84 1.17l-3.19-6.12l-8.33 2.08l0.14 6.97l-3.71 0.78l-1.56-31.12l5.4-1.69l0-0.01zm-1.56 4.1l8.01 15.75l-6.97 1.76l-1.03-17.5l-0.01-0.01z" />
		<path class="s4" d="m237.85 494.69l5.58 1.25l-0.59 31.71l-3.91-0.85l0.26-6.84l-8.33-2.28l-3.26 6.12l-3.65-1.11l13.87-28l0.02-0.01zm2.12 4.04l-0.65 17.64l-6.97-1.89l7.62-15.75l-0.01 0z" />
		<path class="s4" d="m277.66 502.01l5.67 0.31l4.75 31.38l-4.04-0.2l-0.91-6.84l-8.59-0.85l-2.15 6.58l-3.78-0.52l9.05-29.88l-0.01 0.01z" />
		<path class="s4" d="m280.47 505.64l2.21 17.51l-7.17-0.72l4.95-16.8l0.01 0z" />
		<path class="s4" d="m377.97 488.65l13.87 16.74l-8.52-19.33l3.13-1.29l12.32 28.57l-3.39 1.32l-18.11-19.95l2.61 6.53l1.89 4.43l3.88 9.81l2.31-0.88l1.18 3.04l-7.31 2.93l-1.27-2.93l2.05-0.84l-8.71-21.05l-3.47 1.49l0.55-5.86l7-2.74z" />
		<path class="s4" d="m298.74 503.58c0.87-0.37 1.9-0.61 3.1-0.69c0.73-0.02 1.46 0.06 2.08 0.15l-0.03 0c4.38 0.62 6.19 3.83 5.95 8.53l0.55 12.43c0.05 1.07 0.22 3.18-0.49 5.15l1.51 2.05l1.29 3.73l-2.47 0.23l-2.4-3.15c-1.17 0.89-2.83 1.51-5.24 1.59c-4 0.21-8-2.61-8.3-7.08l-0.08-15.12c-0.14-2.33 0.75-6.22 4.52-7.82l0 0zm1.28 4.01c0.56-0.31 1.27-0.5 2.17-0.55c4.17 0.07 3.85 2.66 4.02 4.87l0.18 12.19c0.01 0.1 0 0.19 0.01 0.28l-3.17-4.31l-2.29 2.86l4.32 5.68c-0.63 0.68-1.52 1.1-2.73 1.1c-2.08 0.03-4.2-1.2-4.42-4.77l-0.14-13.23c-0.02-1.35 0.35-3.21 2.04-4.13l0 0z" />
		<path class="s4" d="m321.74 502.44c0.69-0.25 1.46-0.45 2.32-0.58c0.71-0.11 1.41-0.1 2.06-0.09l0.02 0.01c4.51 0.17 7.01 3.16 7.23 7.87l-3.6 0.69c-0.38-2.18-0.81-4.77-4.97-4.42c-3.45 0.33-4.13 2.33-4.47 4.51c0.42 3.57 2.47 4.6 5.49 4.44c3.01-0.15 4.29 0.15 5.52 1.14c3.94 1.93 4.07 4.6 4.6 7.83c-0.07 5.9-4.04 7.74-7.99 8.39c-9.74 0.87-9.34-6.17-9.72-8.41l4.01-0.19c0.02 3.11 2.27 5.41 5.29 4.74c2.04-0.42 4.85-2.28 4.28-5.82c-0.43-2.24-2.74-3.94-5.81-3.95c-3.08-0.02-4.26-0.36-5.33-0.87c-3.13-1.12-3.68-3.8-4.06-6.75c-0.4-2.49 0.34-6.79 5.14-8.54l0 0z" />
		<path class="s4" d="m252.74 525.52l9.83 2.03l-0.93 4.35l-14.4-3.08l-0.01-0.01l0.94-4.36l14.97-19.53l-10.1-2.09l0.93-4.35l14.4 3.08l0.01 0.01l-0.94 4.36l-14.7 19.6z" />
	</g>
</svg>