<svg version="1.2" baseProfile="tiny-ps" xmlns="http://www.w3.org/2000/svg" viewBox="0 0 600 600" width="600" height="600">
	<title></title>
	<style>
		tspan { white-space:pre }
		.s0 { fill: #007cc3 } 
		.s1 { fill: #3f5fa5 } 
		.s2 { fill: none;stroke: #000000;stroke-width: .4 } 
		.s3 { fill: #05603d } 
		.s4 { fill: #966a4b;stroke: #000000;stroke-width: .4 } 
		.s5 { fill: none;stroke: #000000;stroke-width: .3 } 
		.s6 { fill: #ffffff;stroke: #000000;stroke-width: .3 } 
		.s7 { fill: #ffffff } 
		.s8 { fill: none;stroke: #000000;stroke-width: .2 } 
		.s9 { fill: #000000;stroke: #000000;stroke-width: .2 } 
		.s10 { fill: #59412d;stroke: #000000;stroke-width: .4 } 
		.s11 { fill: #ffffff;stroke: #000000;stroke-width: .4 } 
		.s12 { fill: #fff500;stroke: #fff500;stroke-width: .2 } 
		.s13 { fill: none;stroke: #fff500;stroke-width: 1.1 } 
		.s14 { fill: #84746d;stroke: #000000;stroke-width: .4 } 
		.s15 { fill: #000000;stroke: #000000;stroke-width: .4 } 
		.s16 { fill: #d1945f;stroke: #000000;stroke-width: .4 } 
		.s17 { fill: #05603d;stroke: #000000;stroke-width: .4 } 
		.s18 { fill: #498677;stroke: #000000;stroke-width: .4 } 
		.s19 { fill: #055f3c;stroke: #000000;stroke-width: .4 } 
		.s20 { fill: #fff500;stroke: #000000;stroke-width: .7 } 
		.s21 { fill: #ffec00;stroke: #000000;stroke-width: .7 } 
		.s22 { fill: #ffffff;stroke: #000000;stroke-width: .7 } 
		.s23 { fill: #000000 } 
	</style>
	<path fill-rule="evenodd" class="s0" d="m514.68 338.81l-429.5 0.25c2.94-31.38 17.16-63.99 28.44-88.26c13.24-28.44 21.57-46.58 23.78-58.35c4.66-23.04-8.83-32.6-8.83-32.6c71.58-5.39 78.69-66.19 78.69-66.19c61.04 23.78 82.13-11.52 86.54-16.92c4.41-5.39 6.13-15.93 6.13-15.93c0 0 1.96 10.54 6.13 15.93c4.41 5.39 25.74 40.69 86.54 16.92c0 0 7.11 60.8 78.69 66.19c0 0-14.95 12.26-8.83 32.6c3.43 11.52 10.54 29.91 23.78 58.35c11.28 24.27 25.5 56.88 28.44 88.01v0z" />
	<path fill-rule="evenodd" class="s1" d="m116.55 418.73c-4.41-0.24-9.81 1.23-19.37 1.47c-10.3-24.76-12.26-49.27-12.75-66.19c0-4.9 0.24-10.05 0.74-14.95h429.26l0.25-0.25c0.49 5.15 0.74 10.3 0.74 15.2c0 2.7-0.25 5.39-0.49 8.33c-0.25 6.86-13.97-2.94-20.35 0.98c-0.98 0.74 0 2.7 0.49 4.17c0 0.49 0.73 1.23 0.98 1.71c0.49 1.23 0.49 2.7 0.74 3.43c1.47 2.2 3.19 4.41 5.64 5.39c-0.49 0.24-0.74 0.73-0.98 0.73c-2.94 0.98-6.13-0.73-9.07 0.49c-4.9 2.45-11.03 0.73-16.42 0.98c0 0 0.24 0 0.49 0c-6.13 0.25-12.26-1.23-18.14 0.49c-4.17 1.23-7.35 3.92-11.03 5.15c0.74 2.21 2.21 3.92 1.72 6.37c1.22 0.25 1.47 1.96 2.7 1.96c3.43 0.49 7.11-0.24 10.54 0.74c0.98 0.24 1.23 1.96 1.72 2.2c2.2 0.98 4.17 2.21 6.37 2.7c1.72 0.49 4.17 0.24 5.88 1.47c0.98 0.49 1.96 0.98 2.7 1.96c-2.21-0.49-2.94 1.47-4.9 1.96c-4.66 0.98-9.07-1.96-13.48-1.72c-8.83 0.25-17.41-1.47-26.23-1.22c0.25 0 0.25-0.25 0.49-0.49c-7.84 0.98-15.93-0.49-23.53 1.47c-2.21 0.49-3.92 2.21-5.64 0.98c-4.41-3.19-9.32-1.96-13.97-2.45c-3.19 4.17-7.85 5.39-12.99 4.9c-0.98 0-2.7 0.24-4.17 0.49c-2.69 0.98-0.49 2.94 0.74 4.17c0.25 0 0 0.98 0 0.98c-4.66 1.71-9.81 3.43-14.46 2.2c-3.43-0.73-8.09 3.19-10.05 0.25c-0.98-1.23 0-4.66-2.94-4.9c-2.7 0-4.9-0.74-7.84-1.47c-2.94-0.98-5.89 1.22-8.34 0c-1.47-0.98-3.19-1.23-4.9-1.72c-1.71-0.24-3.92-0.49-5.15 0.74c-0.49 0.73 1.22 3.19 0.73 3.19c-7.35 1.96-14.71 1.47-22.07 1.47c0.25 0 0.49 0 0.73 0c-2.45-1.47-5.39-1.23-8.33-2.45c-3.19-1.22-6.87-1.71-10.54-0.98c-1.23 0.25-1.72 1.23-2.45 2.21c-2.21 2.94-6.13 2.45-9.32 3.19c-1.23 0.49-2.94 1.23-4.17 1.23c-5.39 0.73-10.79 0-16.18 0c-0.24 0-0.24 1.47-0.49 1.47c-2.94 0.25-4.66 1.96-7.6 0.49c-5.39-2.45-12.99-0.74-18.14 2.94c-2.45 1.96-5.88 1.96-8.82 1.71c-9.07-0.24-17.9 0-26.72-2.94c-0.24 0-0.24-1.22 0.25-1.22c1.72 0.49 2.7-0.49 3.43-1.47c0.24 0 0.24-0.98 0-0.98c-4.66-1.47-9.81-2.21-14.71-1.72c-1.23 0.25-1.47 2.21-2.7 2.94c0.25 0 0.49 0 0.73 0c-4.17 0.25-8.58 1.47-12.75 1.47c-8.33 0-16.42 0.49-24.76-0.49c-0.98 0 0-1.23 0-1.96c1.72 0.24 3.43-0.25 4.9-0.74c1.47-0.49 1.96-3.43 0-3.92c-2.7-0.49-5.64 0.73-8.34 0.98c-3.43 0.49-6.86-0.25-10.3-0.49c-0.73 0 0 1.71-0.49 1.71c-2.21 1.23-2.21 4.17-4.66 5.15c-0.74 0.25-1.72-0.49-2.21 0.49v0z" />
	<path class="s2" d="m116.55 418.73c-4.41-0.24-9.81 1.23-19.37 1.47c-10.3-24.76-12.26-49.27-12.75-66.19c0-4.9 0.24-10.05 0.74-14.95h429.26l0.25-0.25c0.49 5.15 0.74 10.3 0.74 15.2c0 2.7-0.25 5.39-0.49 8.33c-0.25 6.86-13.97-2.94-20.35 0.98c-0.98 0.74 0 2.7 0.49 4.17c0 0.49 0.73 1.23 0.98 1.71c0.49 1.23 0.49 2.7 0.74 3.43c1.47 2.2 3.19 4.41 5.64 5.39c-0.49 0.24-0.74 0.73-0.98 0.73c-2.94 0.98-6.13-0.73-9.07 0.49c-4.9 2.45-11.03 0.73-16.42 0.98h0.49c-6.13 0.25-12.26-1.23-18.14 0.49c-4.17 1.23-7.35 3.92-11.03 5.15c0.74 2.21 2.21 3.92 1.72 6.37c1.22 0.25 1.47 1.96 2.7 1.96c3.43 0.49 7.11-0.24 10.54 0.74c0.98 0.24 1.23 1.96 1.72 2.2c2.2 0.98 4.17 2.21 6.37 2.7c1.72 0.49 4.17 0.24 5.88 1.47c0.98 0.49 1.96 0.98 2.7 1.96c-2.21-0.49-2.94 1.47-4.9 1.96c-4.66 0.98-9.07-1.96-13.48-1.72c-8.83 0.25-17.41-1.47-26.23-1.22c0.25 0 0.25-0.25 0.49-0.49c-7.84 0.98-15.93-0.49-23.53 1.47c-2.21 0.49-3.92 2.21-5.64 0.98c-4.41-3.19-9.32-1.96-13.97-2.45c-3.19 4.17-7.85 5.39-12.99 4.9c-0.98 0-2.7 0.24-4.17 0.49c-2.69 0.98-0.49 2.94 0.74 4.17c0.25 0 0 0.98 0 0.98c-4.66 1.71-9.81 3.43-14.46 2.2c-3.43-0.73-8.09 3.19-10.05 0.25c-0.98-1.23 0-4.66-2.94-4.9c-2.7 0-4.9-0.74-7.84-1.47c-2.94-0.98-5.89 1.22-8.34 0c-1.47-0.98-3.19-1.23-4.9-1.72c-1.71-0.24-3.92-0.49-5.15 0.74c-0.49 0.73 1.22 3.19 0.73 3.19c-7.35 1.96-14.71 1.47-22.07 1.47c0.25 0 0.49 0 0.73 0c-2.45-1.47-5.39-1.23-8.33-2.45c-3.19-1.22-6.87-1.71-10.54-0.98c-1.23 0.25-1.72 1.23-2.45 2.21c-2.21 2.94-6.13 2.45-9.32 3.19c-1.23 0.49-2.94 1.23-4.17 1.23c-5.39 0.73-10.79 0-16.18 0c-0.24 0-0.24 1.47-0.49 1.47c-2.94 0.25-4.66 1.96-7.6 0.49c-5.39-2.45-12.99-0.74-18.14 2.94c-2.45 1.96-5.88 1.96-8.82 1.71c-9.07-0.24-17.9 0-26.72-2.94c-0.24 0-0.24-1.22 0.25-1.22c1.72 0.49 2.7-0.49 3.43-1.47c0.24 0 0-0.98 0-0.98c-4.66-1.47-9.81-2.21-14.71-1.72c-1.23 0.25-1.47 2.21-2.7 2.94c0.25 0 0.49 0 0.73 0c-4.17 0.25-8.58 1.47-12.75 1.47c-8.33 0-16.42 0.49-24.76-0.49c-0.98 0 0-1.23 0-1.96c1.72 0.24 3.43-0.25 4.9-0.74c1.47-0.49 1.96-3.43 0-3.92c-2.7-0.49-5.64 0.73-8.34 0.98c-3.43 0.49-6.86-0.25-10.3-0.49c-0.73 0 0 1.71-0.49 1.71c-2.21 1.23-2.21 4.17-4.66 5.15c-0.74 0.25-1.72-0.49-2.21 0.49v0z" />
	<path fill-rule="evenodd" class="s3" d="m502.66 420.2c-11.03 26.97-31.87 54.42-71.09 72.32c0 0-19.12 15.2-42.9 11.52c0 0-27.7 14.22-36.77 16.91c-8.58 2.45-33.83 11.28-51.48 33.1h-0.98c-17.65-21.82-42.9-30.64-51.48-33.1c-9.07-2.69-36.77-16.91-36.77-16.91c-23.78 3.68-42.9-11.52-42.9-11.52c-39.22-17.9-60.06-45.35-71.09-72.32c9.56-0.24 14.95-1.71 19.37-1.47c1.23 0 1.47-0.24 2.21-0.49c2.45-0.98 2.45-3.92 4.66-5.15c0.49 0-0.24-1.71 0.49-1.71c3.43 0.24 6.87 0.98 10.3 0.49c2.7-0.25 5.64-1.47 8.34-0.98c1.96 0.49 1.47 3.43 0 3.92c-1.47 0.49-3.19 0.98-4.9 0.74c0 0.73-0.98 1.96 0 1.96c8.34 0.98 16.43 0.49 24.76 0.49c4.17 0 8.58-1.23 12.75-1.47c-0.24 0-0.49 0-0.73 0c1.23-0.73 1.47-2.7 2.7-2.94c4.9-0.49 10.05 0.25 14.71 1.72c0.24 0 0.24 0.98 0 0.98c-0.74 0.98-1.72 1.96-3.43 1.47c-0.49 0-0.49 1.22-0.25 1.22c8.83 2.94 17.65 2.7 26.72 2.94c2.94 0.25 6.37 0.25 8.82-1.71c5.15-3.68 12.75-5.39 18.14-2.94c2.94 1.47 4.66-0.24 7.6-0.49c0.24 0 0.24-1.47 0.49-1.47c5.39 0 10.79 0.73 16.18 0c1.23 0 2.94-0.74 4.17-1.23c3.19-0.73 7.11-0.24 9.32-3.19c0.74-0.98 1.23-1.96 2.45-2.21c3.68-0.73 7.35-0.24 10.54 0.98c2.94 1.23 5.88 0.98 8.33 2.45c-0.25 0-0.49 0-0.73 0c7.36 0 14.71 0.49 22.07-1.47c0.49 0-1.23-2.45-0.73-3.19c1.22-1.23 3.43-0.98 5.15-0.74c1.72 0.49 3.43 0.74 4.9 1.72c2.45 1.22 5.39-0.98 8.34 0c2.94 0.73 5.15 1.47 7.84 1.47c2.94 0.24 1.96 3.68 2.94 4.9c1.96 2.94 6.62-0.98 10.05-0.25c4.66 1.23 9.81-0.49 14.46-2.2c0 0 0.25-0.98 0-0.98c-1.23-1.23-3.43-3.19-0.74-4.17c1.47-0.25 3.19-0.49 4.17-0.49c5.15 0.49 9.81-0.74 12.99-4.9c4.66 0.49 9.56-0.73 13.97 2.45c1.71 1.23 3.43-0.49 5.64-0.98c7.6-1.96 15.69-0.49 23.53-1.47c-0.24 0.24-0.24 0.49-0.49 0.49c8.83-0.25 17.41 1.47 26.23 1.22c4.41-0.24 8.83 2.7 13.48 1.72c1.96-0.49 2.7-2.45 4.9-1.96c-0.74-0.98-1.72-1.47-2.7-1.96c-1.71-1.23-4.17-0.98-5.88-1.47c-2.2-0.49-4.17-1.72-6.37-2.7c-0.49-0.24-0.74-1.96-1.72-2.2c-3.43-0.98-7.11-0.25-10.54-0.74c-1.23 0-1.47-1.71-2.7-1.96c0.49-2.45-0.98-4.17-1.72-6.37c3.68-1.23 6.87-3.92 11.03-5.15c5.89-1.72 12.01-0.24 18.14-0.49c-0.25 0-0.49 0-0.49 0c5.39-0.25 11.52 1.47 16.42-0.98c2.94-1.22 6.13 0.49 9.07-0.49c0.25 0 0.49-0.49 0.98-0.73c-2.45-0.98-4.17-3.19-5.64-5.39c-0.24-0.74-0.24-2.21-0.74-3.43c-0.24-0.49-0.98-1.22-0.98-1.71c-0.49-1.47-1.47-3.43-0.49-4.17c6.38-3.92 20.1 5.88 20.35-0.98c0 0-1.23 19.61-4.41 32.85c-2.94 13.24-7.84 25.01-7.84 25.01v0z" />
	<path class="s2" d="m502.66 420.2c-11.03 26.97-31.87 54.42-71.09 72.32c0 0-19.12 15.2-42.9 11.52c0 0-27.7 14.22-36.77 16.91c-8.58 2.45-33.83 11.28-51.48 33.1h-0.98c-17.65-21.82-42.9-30.64-51.48-33.1c-9.07-2.69-36.77-16.91-36.77-16.91c-23.78 3.68-42.9-11.52-42.9-11.52c-39.22-17.9-60.06-45.35-71.09-72.32c9.56-0.24 14.95-1.71 19.37-1.47c1.23 0 1.47-0.24 2.21-0.49c2.45-0.98 2.45-3.92 4.66-5.15c0.49 0-0.24-1.71 0.49-1.71c3.43 0.24 6.87 0.98 10.3 0.49c2.7-0.25 5.64-1.47 8.34-0.98c1.96 0.49 1.47 3.43 0 3.92c-1.47 0.49-3.19 0.98-4.9 0.74c0 0.73-0.98 1.96 0 1.96c8.34 0.98 16.43 0.49 24.76 0.49c4.17 0 8.58-1.23 12.75-1.47c-0.24 0-0.49 0-0.73 0c1.23-0.73 1.47-2.7 2.7-2.94c4.9-0.49 10.05 0.25 14.71 1.72c0 0 0.24 0.98 0 0.98c-0.74 0.98-1.72 1.96-3.43 1.47c-0.49 0-0.49 1.22-0.25 1.22c8.83 2.94 17.65 2.7 26.72 2.94c2.94 0.25 6.37 0.25 8.82-1.71c5.15-3.68 12.75-5.39 18.14-2.94c2.94 1.47 4.66-0.24 7.6-0.49c0.24 0 0.24-1.47 0.49-1.47c5.39 0 10.79 0.73 16.18 0c1.23 0 2.94-0.74 4.17-1.23c3.19-0.73 7.11-0.24 9.32-3.19c0.74-0.98 1.23-1.96 2.45-2.21c3.68-0.73 7.35-0.24 10.54 0.98c2.94 1.23 5.88 0.98 8.33 2.45c-0.25 0-0.49 0-0.73 0c7.36 0 14.71 0.49 22.07-1.47c0.49 0-1.23-2.45-0.73-3.19c1.22-1.23 3.43-0.98 5.15-0.74c1.72 0.49 3.43 0.74 4.9 1.72c2.45 1.22 5.39-0.98 8.34 0c2.94 0.73 5.15 1.47 7.84 1.47c2.94 0.24 1.96 3.68 2.94 4.9c1.96 2.94 6.62-0.98 10.05-0.25c4.66 1.23 9.81-0.49 14.46-2.2c0 0 0.25-0.98 0-0.98c-1.23-1.23-3.43-3.19-0.74-4.17c1.47-0.25 3.19-0.49 4.17-0.49c5.15 0.49 9.81-0.74 12.99-4.9c4.66 0.49 9.56-0.73 13.97 2.45c1.71 1.23 3.43-0.49 5.64-0.98c7.6-1.96 15.69-0.49 23.53-1.47c-0.24 0.24-0.24 0.49-0.49 0.49c8.83-0.25 17.41 1.47 26.23 1.22c4.41-0.24 8.83 2.7 13.48 1.72c1.96-0.49 2.7-2.45 4.9-1.96c-0.74-0.98-1.72-1.47-2.7-1.96c-1.71-1.23-4.17-0.98-5.88-1.47c-2.2-0.49-4.17-1.72-6.37-2.7c-0.49-0.24-0.74-1.96-1.72-2.2c-3.43-0.98-7.11-0.25-10.54-0.74c-1.23 0-1.47-1.71-2.7-1.96c0.49-2.45-0.98-4.17-1.72-6.37c3.68-1.23 6.87-3.92 11.03-5.15c5.89-1.72 12.01-0.24 18.14-0.49h-0.49c5.39-0.25 11.52 1.47 16.42-0.98c2.94-1.22 6.13 0.49 9.07-0.49c0.25 0 0.49-0.49 0.98-0.73c-2.45-0.98-4.17-3.19-5.64-5.39c-0.24-0.74-0.24-2.21-0.74-3.43c-0.24-0.49-0.98-1.22-0.98-1.71c-0.49-1.47-1.47-3.43-0.49-4.17c6.38-3.92 20.1 5.88 20.35-0.98c0 0-1.23 19.61-4.41 32.85c-2.94 13.24-7.84 25.01-7.84 25.01v0z" />
	<path fill-rule="evenodd" class="s4" d="m387.44 196.13l15.69 15.69c-10.79 41.67 15.93 144.89 31.87 189.99c15.93 44.86 25.74 57.37 25.74 57.37c0 0-3.68 6.13-6.37 7.11c-2.45 0.74-5.15 0-8.82 2.45c-3.43 2.7-2.45 8.82-9.56 7.11c-7.11-1.71-7.11 5.39-7.11 5.39c-16.67-38-42.41-158.86-46.09-213.77c-1.47-27.21 4.66-71.34 4.66-71.34v0z" />
	<path class="s5" d="m422.74 465.3c-1.96-8.83 5.64-12.75 9.32-12.75c8.33 0 1.23 11.77 1.23 11.77c0 0 2.94-8.34 6.13-9.81c5.39-1.96 7.11 3.19 7.11 3.19c0 0-2.21-2.21-2.7-3.92c-0.49-1.96 0-4.41 2.21-5.88c2.21-1.23 9.32 3.19 9.32 3.19m-36.28 3.19c-1.72-8.83 5.88-12.99 9.31-12.99c8.33 0 1.23 12.01 1.23 12.01c0 0 2.94-8.34 6.37-9.81c5.15-2.21 7.84 5.39 7.84 5.39c0 0-3.19-4.41-3.43-6.13c-0.49-1.72 0-4.41 2.21-5.88c2.21-1.23 7.35 2.7 7.35 2.7m-33.83 3.68c-1.72-8.09 5.15-11.77 8.58-11.77c7.6 0 1.23 11.03 1.23 11.03c0 0 2.7-7.84 5.64-9.07c4.9-1.96 8.58 5.88 8.58 5.88c0 0-4.17-5.15-4.66-6.62c-0.25-1.72 0-4.17 1.96-5.39c2.21-1.23 8.82 2.94 8.82 2.94m-33.1 0.98c-0.74-7.85 6.13-10.54 9.07-10.3c7.35 0.73 0.24 10.3 0.24 10.3c0 0 3.19-6.86 6.13-7.6c4.66-1.47 6.62 5.39 6.62 5.39c0 0-2.45-4.17-2.7-5.88c-0.25-1.47 0.24-3.68 2.45-4.66c1.96-0.98 7.6 3.43 7.6 3.43m-32.12 0c-0.74-7.84 6.13-10.54 9.07-10.05c7.35 0.49 0.24 10.3 0.24 10.3c0 0 3.19-6.86 6.13-7.84c4.66-1.47 6.62 5.39 6.62 5.39c0 0-2.45-4.17-2.7-5.88c-0.24-1.47 0.25-3.68 2.45-4.66c1.96-0.98 5.39 2.94 5.39 2.94m-28.68 0.49c-0.74-7.11 5.39-9.56 8.09-9.32c6.62 0.49 0.24 9.56 0.24 9.56c0 0 2.94-6.37 5.64-7.11c4.41-1.47 6.13 4.9 6.13 4.9c0 0-2.45-3.92-2.7-5.39c0-1.47 0.49-3.43 2.45-4.17c1.72-0.98 6.86 2.94 6.86 2.94m-28.93 0.24c-0.73-7.11 5.4-9.56 8.34-9.32c6.62 0.73 0.98 8.09 0.98 8.09c0 0 2.45-5.15 4.66-5.88c4.41-1.22 6.13 5.15 6.13 5.15c0 0-2.21-3.92-2.7-5.39c-0.24-1.47 0.49-3.43 2.21-4.41c1.72-0.74 5.39 2.2 5.39 2.2m-27.7 1.23c-0.74-7.11 5.39-9.81 8.33-9.56c6.62 0.98 0 9.56 0 9.56c0 0 2.94-6.37 5.64-7.11c4.41-1.23 6.13 4.9 6.13 4.9c0 0-2.2-3.92-2.45-5.15c-0.24-1.47 0.25-3.43 1.96-4.41c1.96-0.98 5.39 2.7 5.39 2.7m-26.72-0.73c-0.74-6.62 5.15-8.83 7.6-8.58c6.37 0.49 0.25 8.83 0.25 8.83c0 0 2.7-5.88 5.15-6.86c4.17-1.23 5.88 4.9 5.88 4.9c0 0-2.21-3.68-2.45-5.15c-0.24-1.22 0.25-3.43 1.96-4.17c1.72-0.74 6.62 2.94 6.62 2.94m-26.97 0.24c-0.73-6.62 5.15-9.07 7.84-8.83c6.37 0.73 0.25 8.83 0.25 8.83c0 0 2.7-5.88 5.15-6.62c4.17-1.23 5.88 4.66 5.88 4.66c0 0-2.45-3.68-2.45-4.9c-0.25-1.47 0.24-3.43 1.96-4.17c1.72-0.98 6.62 2.94 6.62 2.94m-27.46-0.98c-0.49-6.37 5.15-8.82 7.6-8.58c6.13 0.73 0 8.58 0 8.58c0 0 2.7-5.64 5.4-6.37c3.92-1.23 5.39 4.66 5.39 4.66c0 0-1.96-3.68-2.21-5.15c-0.24-1.23 0.24-3.19 1.96-3.92c1.72-0.74 6.37 2.94 6.37 2.94m-25.98-0.73c-0.49-6.13 5.15-8.58 7.6-8.34c5.64 0.49 0 8.58 0 8.58c0 0 2.45-5.64 4.9-6.37c3.92-1.23 5.64 4.41 5.64 4.41c0 0-2.21-3.68-2.45-4.9c-0.24-1.22 0.25-2.94 1.96-3.68c1.72-0.98 6.13 2.7 6.13 2.7m-25-1.47c-0.74-6.13 4.66-8.09 7.11-7.85c5.64 0.49 0 8.09 0 8.09c0 0 2.7-5.39 4.9-6.37c3.68-0.98 5.15 4.41 5.15 4.41c0 0-1.96-3.19-2.21-4.66c-0.24-1.23 0.49-2.94 1.96-3.68c1.47-0.74 6.13 2.7 6.13 2.7m-25.5-0.74c-0.49-5.88 4.66-8.09 7.11-7.84c5.39 0.73 0 8.09 0 8.09c0 0 2.45-5.39 4.66-6.13c3.68-0.98 5.15 4.17 5.15 4.17c0 0-1.96-3.19-2.2-4.41c0-1.22 0.49-2.94 1.96-3.68c1.47-0.74 5.89 2.7 5.89 2.7m-23.29-0.98c-0.74-5.64 4.41-7.84 6.62-7.6c5.39 0.49 0 7.6 0 7.6c0 0 2.45-4.9 4.66-5.64c3.43-1.23 4.9 3.92 4.9 3.92c0 0-1.96-3.19-2.2-4.17c0-1.22 0.24-2.94 1.96-3.68c1.47-0.74 5.64 2.7 5.64 2.7m-22.55-1.23c-0.73-5.64 4.17-7.6 6.38-7.35c5.15 0.49 0.24 7.35 0.24 7.35c0 0 2.21-4.9 4.17-5.64c3.43-0.98 4.9 4.17 4.9 4.17c0 0-1.96-3.19-1.96-4.41c-0.25-0.98 0.24-2.7 1.71-3.43c1.47-0.49 5.4 2.45 5.4 2.45m-22.31-0.73c-0.73-5.39 4.17-7.35 6.13-7.11c5.15 0.49 0.25 7.11 0.25 7.11c0 0 2.2-4.9 4.17-5.39c3.19-0.98 4.66 3.68 4.66 3.68c0 0-1.72-2.94-1.96-3.92c-0.25-1.23 0.24-2.7 1.71-3.43c1.47-0.49 5.4 2.45 5.4 2.45m-22.06-0.98c-0.74-5.39 4.17-7.36 6.13-7.11c5.15 0.49 0.24 7.36 0.24 7.36c0 0 1.96-4.91 4.17-5.64c3.19-0.98 4.66 3.92 4.66 3.92c0 0-1.71-3.19-1.96-4.17c-0.24-0.98 0.25-2.7 1.72-3.19c1.47-0.73 5.39 2.45 5.39 2.45m-21.08-0.98c-0.49-5.15 4.17-7.11 6.13-6.86c4.9 0.74 0 7.11 0 7.11c0 0 2.2-4.66 4.41-5.39c3.19-0.74 4.41 3.68 4.41 3.68c0 0-1.96-2.94-1.96-3.92c-0.24-0.98 0.25-2.45 1.72-3.19c1.23-0.49 5.15 2.45 5.15 2.45m-19.86-0.98c-0.74-5.15 3.92-6.87 5.88-6.62c4.66 0.49 0 6.62 0 6.62c0 0 2.21-4.41 4.17-4.9c2.94-0.98 4.41 3.43 4.41 3.43c0 0-1.96-2.7-1.96-3.68c-0.24-0.98 0.25-2.7 1.47-3.19c1.47-0.74 5.15 2.2 5.15 2.2m-21.33-0.49c-0.49-5.15 3.92-6.87 5.88-6.62c4.66 0.49 0 6.62 0 6.62c0 0 2.21-4.41 4.17-4.9c2.94-0.98 4.17 3.43 4.17 3.43c0 0-1.47-2.7-1.71-3.68c-0.25-0.98 0.24-2.7 1.47-3.19c1.22-0.73 5.15 2.21 5.15 2.21m-19.61-0.98c-0.49-4.9 3.92-6.86 5.88-6.62c4.66 0.49 0.24 6.62 0.24 6.62c0 0 1.96-4.41 3.92-4.9c3.19-0.98 4.41 3.43 4.41 3.43c0 0-1.72-2.7-1.96-3.68c-0.24-1.23 0.25-2.45 1.47-3.19c1.47-0.49 5.15 2.21 5.15 2.21m-20.1-0.98c-0.49-4.9 3.92-6.86 5.89-6.62c4.9 0.49 0.24 6.86 0.24 6.86c0 0 1.96-4.66 3.92-5.15c3.19-0.98 4.41 3.68 4.41 3.68c0 0-1.72-2.94-1.96-3.92c0-0.98 0.24-2.45 1.71-3.19c1.23-0.49 4.9 2.21 4.9 2.21m-19.61-2.45c0-5.15 4.66-6.62 6.62-6.13c4.66 0.74-0.49 6.62-0.49 6.62c0 0 2.45-4.17 4.41-4.66c3.19-0.73 4.17 3.92 4.17 3.92c0 0-1.71-2.94-1.71-3.92c0-1.23 0.49-2.45 1.96-2.94c1.23-0.73 4.66 2.45 4.66 2.45m-20.35-2.45c-0.24-5.15 4.41-6.37 6.37-6.13c4.66 0.73-0.49 6.86-0.49 6.86c0 0 2.45-4.41 4.41-4.9c3.19-0.73 4.17 3.92 4.17 3.92c0 0-1.47-2.94-1.47-3.92c-0.24-0.98 0.49-2.45 1.71-2.94c1.47-0.49 4.9 2.7 4.9 2.7m-19.37-2.21c0-5.15 4.41-6.37 6.38-6.13c4.41 0.74-0.49 6.62-0.49 6.62c0 0 2.45-4.17 4.17-4.66c3.19-0.73 3.92 3.92 3.92 3.92c0 0-1.23-2.94-1.47-3.92c0-0.98 0.49-2.45 1.71-2.94c1.47-0.49 4.9 2.7 4.9 2.7m-19.37-2.45c0-4.9 4.41-6.13 6.13-5.88c4.41 0.98-0.25 6.37-0.25 6.37c0 0 2.21-3.92 3.92-4.41c3.19-0.73 3.92 3.68 3.92 3.68c0 0-1.23-2.7-1.47-3.68c0-0.98 0.49-2.21 1.72-2.7c1.47-0.49 4.66 2.45 4.66 2.45m-17.41-3.19c0-4.41 3.93-5.64 5.64-5.39c4.17 0.73-0.49 6.13-0.49 6.13c0 0 2.45-3.92 3.92-4.41c2.94-0.49 3.68 3.68 3.68 3.68c0 0-1.22-2.7-1.22-3.68c0-0.98 0.24-2.21 1.47-2.45c1.23-0.49 4.41 2.21 4.41 2.21m-16.91-2.7c-0.25-4.41 3.68-5.64 5.39-5.39c3.92 0.73-0.49 5.88-0.49 5.88c0 0 2.21-3.68 3.92-4.17c2.7-0.49 3.43 3.43 3.43 3.43c0 0-1.22-2.45-1.22-3.43c0-0.98 0.24-1.96 1.47-2.45c1.23-0.49 4.17 2.21 4.17 2.21m-16.67-2.7c0-4.41 3.92-5.64 5.39-5.39c3.92 0.74-0.25 5.88-0.25 5.88c0 0 1.96-3.68 3.68-4.17c2.7-0.49 3.19 3.43 3.19 3.43c0 0-0.98-2.45-1.23-3.43c0-0.98 0.49-1.96 1.47-2.45c1.23-0.49 4.17 2.21 4.17 2.21m-15.93-2.45c0-4.17 3.68-5.39 5.39-5.15c3.92 0.74-0.49 5.64-0.49 5.64c0 0 2.2-3.43 3.68-3.92c2.7-0.49 3.43 3.43 3.43 3.43c0 0-1.23-2.7-1.23-3.43c0-0.73 0.49-1.96 1.47-2.45c1.23-0.49 4.17 2.21 4.17 2.21m-15.93-2.94c0-4.17 3.68-5.39 5.39-5.15c3.92 0.74-0.49 5.64-0.49 5.64c0 0 2.21-3.43 3.92-3.92c2.45-0.49 3.19 3.43 3.19 3.43c0 0-1.23-2.7-1.23-3.43c0-0.74 0.25-2.21 1.47-2.45c1.22-0.49 4.17 2.21 4.17 2.21" />
	<path fill-rule="evenodd" class="s6" d="m164.85 181.67l25.74 14.71l-14.22 25.5c0 0-5.88 12.01-11.52 8.09l-25.25-10.05c0 0 3.92-0.98 7.11-5.39c3.19-4.41 18.14-32.85 18.14-32.85v0z" />
	<path fill-rule="evenodd" class="s6" d="m139.6 219.91c-2.7-1.47-1.47-5.64-0.24-8.09c0.73-1.72 3.92-3.92 6.62-2.21l25.98 11.03c-5.15-1.23-6.86 0.49-7.84 2.7c-1.96 5.15 1.72 7.11 1.72 7.11l-26.23-10.54v0z" />
	<path fill-rule="evenodd" class="s7" d="m202.84 178.23c0 0-9.31-5.15-13.73-7.84c-4.41-2.7-5.64-5.39-4.41-9.81c1.47-4.41 10.54-9.81 12.5-12.75c1.47-2.94 8.33-11.03 7.84-12.75c0 0 3.92 3.43 3.43 7.35c-0.49 4.17-3.43 10.79-5.15 13.48c-1.96 2.45-3.19 7.35-0.98 10.05c2.21 2.7 8.09 11.03 8.09 11.03l-7.6 1.23v0z" />
	<path class="s5" d="m202.84 178.23c0 0-9.31-5.15-13.73-7.84c-4.41-2.7-5.64-5.39-4.41-9.81c1.47-4.41 10.54-9.81 12.5-12.75c1.47-2.94 8.33-11.03 7.84-12.75c0 0 3.92 3.43 3.43 7.35c-0.49 4.17-3.43 10.79-5.15 13.48c-1.96 2.45-3.19 7.35-0.98 10.05c2.21 2.7 8.09 11.03 8.09 11.03" />
	<path class="s8" d="m201.37 147.35c0 0 6.37-7.84 5.15-10.05m-7.84 15.93c0 0 5.39-1.71 9.32-7.6m-11.28 11.77c0 0 5.15 0 6.62-1.47m-7.11 6.62c0 0 4.41 0 5.15-1.96m-3.92 5.88c0 0 4.41-0.49 4.41-2.21m-1.71 5.64c0 0 3.19-1.23 2.7-2.7m0 4.9l1.72-3.43" />
	<path fill-rule="evenodd" class="s7" d="m208.48 177.74c0 0-4.41-15.69 3.68-22.8c7.84-7.11 20.1-12.01 25.5-13.24c5.39-1.47 15.93-7.11 15.93-7.11c0 0-12.26 17.16-20.35 22.8c-7.84 5.88-6.13 10.3-10.54 13.73c-2.7 2.45-6.13 4.66-4.41 7.6l-9.81-0.98v0z" />
	<path class="s5" d="m208.48 177.74c0 0-4.41-15.69 3.68-22.8c7.84-7.11 20.1-12.01 25.5-13.24c5.39-1.47 15.93-7.11 15.93-7.11c0 0-12.26 17.16-20.35 22.8c-7.84 5.88-6.13 10.3-10.54 13.73c-2.7 2.45-6.13 4.66-4.41 7.6" />
	<path class="s8" d="m232.26 147.35c0 0 14.71-4.41 15.93-5.64m-19.37 11.03c0 0 12.01-1.96 13.73-3.68m-18.14 7.6c0 0 5.39 0.49 11.52-1.23m-14.46 4.66c0 0 6.13 0.49 8.33 0m-12.5 3.68c0 0 7.6 0.74 9.32 0.74m-10.54 3.19c0 0 6.13 1.47 7.85 1.47m-8.83 2.7c0 0 3.92 1.23 5.88 0.25" />
	<path fill-rule="evenodd" class="s6" d="m179.06 187.06l-2.7 0.98c0 0 1.23-3.92 3.19-4.9c1.71-0.73 1.47-2.94 4.17-4.41c4.17-2.21 6.86-0.98 9.31 0c2.7 0.98 4.41-0.49 7.6-2.21c3.92-2.21 9.31-0.74 14.46-0.49c4.41 0.49 11.03 4.17 16.43 5.64c5.15 1.96 24.27 10.79 24.27 10.79c-6.13 0.98-13.24 10.54-13.24 10.54c0 0-7.11-6.86-9.81-10.54c-2.45-3.43-6.13-2.7-8.82-1.72c-2.45 0.74-6.13 2.7-13.24 3.43c-6.86 0.98-19.37-6.13-22.8-7.11c-3.68-0.73-8.83 0-8.83 0v0z" />
	<path fill-rule="evenodd" class="s9" d="m187.65 182.16c-0.49 0-0.98-0.49-0.98-0.98c0-0.49 0.49-0.98 0.98-0.98c0.49 0 0.73 0.49 0.73 0.98c0 0.49-0.24 0.98-0.73 0.98v0z" />
	<path class="s8" d="m239.86 187.55c0 0 10.79 5.39 12.01 6.13m-13.73-3.43l10.54 6.13m-11.03-2.94l7.6 6.13" />
	<path fill-rule="evenodd" class="s10" d="m321.99 382.2l-20.1-0.73c-1.96-0.98-10.79 0.73-10.79 0.73c-2.94-0.73-14.22 0-14.22 0c-6.13-2.21-16.67 0-16.67 0c-2.21-1.23-14.46 0-14.46 0c-4.17-1.71-11.03 0-11.03 0c-1.96-0.49-10.79 0.49-10.79 0.49c-4.9-2.2-17.16-0.49-17.16-0.49c-5.64-0.49-16.67 0.49-16.67 0.49c0 0-9.31-12.26-12.99-14.22c0 0 112.77 0.49 133.85-2.7c21.08-2.94 44.13-13.24 47.31-14.95l-2.21 6.37c0 0-1.71 2.94-5.88 1.96c0 0-23.78 15.94-28.19 23.04v0z" />
	<path fill-rule="evenodd" class="s11" d="m358.51 350.82c-2.94 1.72-25.74 12.01-47.07 14.95c-21.33 3.19-133.85 2.7-133.85 2.7l-1.23-2.7c0 0 60.31 0.49 70.11 0c9.81-0.24 56.14-1.22 68.89-3.43c12.75-2.21 41.92-12.75 45.11-14.46l-1.96 2.94v0z" />
	<path class="s2" d="m218.29 259.13v106.64m44.62-114.49v114.24m38.98-109.58v106.89" />
	<path fill-rule="evenodd" class="s11" d="m301.88 255.46c-3.19 0-5.15-1.72-7.35-2.7c-2.7-0.98-5.88 0-8.34 0.49c-2.21 0.49-6.13-1.23-6.13-1.23c0 0 2.21-0.73 5.39-3.19c2.94-2.21 5.64-3.43 10.54-4.41c4.9-0.73 5.88-4.17 5.88-4.17v15.2v0z" />
	<path fill-rule="evenodd" class="s11" d="m290.61 260.36l23.78-0.49c0 0 5.39 14.22 0 21.82c0 0-6.86-7.6-24.52 0.74c0 0 6.87-18.88 0.73-22.06v0z" />
	<path fill-rule="evenodd" class="s11" d="m287.18 283.89l30.4-0.98c0 0 9.81 5.88 3.43 26.48c0 0-12.26-11.03-38.25 1.23c0 0 10.54-15.2 4.41-26.72v0z" />
	<path fill-rule="evenodd" class="s11" d="m278.84 311.11l47.07-0.74c0 0 10.3 12.26 9.81 25.5c-0.25 9.07-5.64 17.65-9.32 22.55l-7.11 2.21c0 0-9.56-2.21-13.48-1.72c-3.92 0.24-15.94 1.23-30.64 6.13c0 0 11.03-10.79 12.99-27.46c0.73-8.34 0-17.65-9.32-26.48v0z" />
	<path fill-rule="evenodd" class="s11" d="m233.73 311.11l47.07-0.74c0 0 10.3 12.26 9.81 25.5c-0.24 9.07-8.82 24.27-12.26 29.17l-4.17-4.41c0 0-9.56-2.21-13.48-1.72c-4.17 0.24-15.94 1.23-30.4 6.13c0 0 11.03-10.79 12.75-27.46c0.98-8.34 0-17.65-9.32-26.48v0z" />
	<path fill-rule="evenodd" class="s11" d="m249.18 260.36l23.78-0.49c0 0 5.39 14.22 0 21.82c0 0-7.11-7.6-24.76 0.74c0 0 7.11-18.88 0.98-22.06v0z" />
	<path fill-rule="evenodd" class="s11" d="m245.75 283.89l30.4-0.98c0 0 9.81 5.88 3.43 26.48c0 0-12.26-11.03-38.24 1.23c0 0 10.54-15.2 4.41-26.72v0z" />
	<path fill-rule="evenodd" class="s11" d="m262.91 256.93c-3.19 0-4.9-1.72-7.11-2.7c-2.94-1.23-6.13 0-8.33 0.49c-2.21 0.49-6.13-1.47-6.13-1.47c0 0 1.96-0.74 5.15-2.94c3.19-2.21 5.88-3.68 10.54-4.41c4.9-0.98 5.88-4.41 5.88-4.41v15.44v0z" />
	<path fill-rule="evenodd" class="s11" d="m182.01 310.37c0 0 24.52 16.18 17.41 33.1c-7.36 16.67-15.69 23.29-14.22 22.8c1.23-0.49-23.04-1.23-35.79-6.37c0 0 36.04-26.23 32.6-49.52v0z" />
	<path fill-rule="evenodd" class="s11" d="m203.33 283.89c0 0 5.64 21.57-4.9 26.48c-10.54 4.66-16.92 0.25-18.63 0l23.53-26.48v0z" />
	<path fill-rule="evenodd" class="s11" d="m188.63 312.58l47.31-0.98c0 0 10.05 12.26 9.81 25.74c-0.49 8.83-8.33 23.78-12.01 28.44l-4.41-3.92c0 0-9.81-1.96-13.73-1.72c-3.92 0.49-15.93 1.47-30.4 6.13c0 0 11.03-10.79 12.75-27.21c0.74-8.33 0-17.65-9.32-26.48v0z" />
	<path fill-rule="evenodd" class="s11" d="m204.07 261.83h26.23c0 0 5.64 13.97-0.98 21.57c0 0-8.34-7.84-25.99 0.49c0 0 7.11-19.12 0.73-22.06v0z" />
	<path fill-rule="evenodd" class="s11" d="m202.35 285.12l28.68-0.98c0 0 11.03 7.6 0.49 26.48c0 0-7.6-11.28-33.59 0.98c0 0 10.54-14.95 4.41-26.48v0z" />
	<path fill-rule="evenodd" class="s11" d="m217.8 258.15c-3.19 0-4.66-1.72-7.11-2.7c-2.94-0.98-5.88 0-8.34 0.49c-2.21 0.49-6.13-1.23-6.13-1.23c0 0 2.21-0.98 5.15-3.19c3.19-2.21 5.88-3.43 10.79-4.41c4.9-0.98 5.64-4.41 5.64-4.41v15.44v0z" />
	<path class="s2" d="m373.23 344.2c-18.63-11.28-71.09-88.25-71.09-88.25c66.68 90.95 85.8 83.6 85.8 83.6c-5.39 1.72-66.43 22.06-79.67 23.29c-13.24 1.23-33.34 2.21-38.73 2.7c-13.73 1.23-84.09 0.24-93.16 0.24c-9.32 0-26.97-5.88-26.97-5.88m165.97 2.45c0.98-25.99-13.24-56.88-13.24-56.88l27.46 51.97m25.98-8.82l-48.54-68.89" />
	<path fill-rule="evenodd" class="s12" d="m486.97 338.07h-52.71c0-16.18 12.01-27.46 26.48-27.46c14.22 0 26.23 11.28 26.23 27.46v0z" />
	<path class="s13" d="m486.97 334.64h23.04m-23.78-4.41l24.27-5.39m-25.98 1.72l23.29-13.97m-25.99 9.81l20.59-21.82m-24.52 16.67l19.86-27.21m-24.27 24.27l19.37-40.7m-10.54-8.83l-12.75 47.31m-5.39-0.98l8.82-48.54m-12.26 48.05v-48.54m-4.9 49.03l-5.88-45.35m1.96 46.33l-11.28-44.13m7.6 45.84l-16.67-43.39m12.26 46.58l-21.57-34.81m18.14 38.24l-26.97-25.5m24.27 30.4l-26.47-17.4m24.27 22.8l-21.08-10.79m19.61 12.26l-17.9-5.15m18.39 8.83h-15.69" />
	<path fill-rule="evenodd" class="s14" d="m194.75 386.12c2.7-0.24 62.27 9.81 84.82 24.76c22.55 15.2 49.52 33.59 90.95 37.51c0 0 0 4.9 0.49 6.13c0 0-41.67-3.92-72.32-22.8c-24.51-14.95-43.15-32.11-100.27-38.98c-7.6-0.74-8.34-6.13-3.68-6.62v0z" />
	<path class="s14" d="m400.19 475.85h-2.21v-47.31h2.21v47.31v0z" />
	<path class="s14" d="m416.62 468l-1.72 1.96l-33.59-33.58l1.72-1.96l33.59 33.58v0z" />
	<path class="s14" d="m422.74 451.09v2.45h-47.56v-2.45h47.56v0z" />
	<path class="s14" d="m414.9 434.42l1.72 1.96l-33.59 33.58l-1.72-1.96l33.59-33.58v0z" />
	<path fill-rule="evenodd" class="s14" d="m371.02 456.48c-0.24-1.47-0.49-2.94-0.49-4.17c0-15.69 12.75-28.68 28.44-28.68c15.93 0 28.44 12.99 28.44 28.68c0 15.69-12.5 28.44-28.44 28.44c-14.22 0-25.99-10.05-27.7-23.78l5.15-0.24c1.71 10.79 11.28 18.14 22.55 18.14c12.75 0 22.8-10.05 22.8-22.55c0-12.75-10.05-22.8-22.8-22.8c-12.5 0-22.8 10.05-22.8 22.8c0 1.22 0.25 2.2 0.25 3.43l-5.4 0.73v0z" />
	<path fill-rule="evenodd" class="s14" d="m392.84 457.22c0 0-13.48 1.47-37.02 0.74c-12.26-0.25-34.81-0.25-60.31-12.5c-39.96-19.37-55.65-30.4-99.29-35.79c-7.6-0.98-8.33-6.37-3.43-6.62c2.45-0.24 45.11 4.41 68.64 17.65c62.27 34.81 100.02 33.59 126.5 31.13c4.66-0.24 4.17-0.98 5.15-2.45c0.98-1.72 1.71-2.7 4.66-3.19c3.43-0.73 6.86 0.98 7.35 3.19c0.49 2.45 0.98 5.15-2.21 7.35c-1.96 1.47-5.64 0.98-10.05 0.49v0z" />
	<path fill-rule="evenodd" class="s15" d="m398.97 449.13c1.96 0 3.19 1.47 3.19 3.19c0 1.71-1.23 2.94-3.19 2.94c-1.47 0-2.94-1.23-2.94-2.94c0-1.72 1.47-3.19 2.94-3.19v0z" />
	<path fill-rule="evenodd" class="s11" d="m308.75 479.28c-0.98-1.23-13.73-20.59-18.14-27.46c-4.41-6.37-0.73-21.82 7.6-17.4c8.34 4.41 15.93 8.33 18.63 9.56c2.45 1.47 24.52 7.84 44.13 8.83c0 0-4.41 7.6-3.68 13.73c0.73 4.41 0.98 10.54 3.19 12.26l-51.73 0.49v0z" />
	<path fill-rule="evenodd" class="s11" d="m282.27 492.52c1.71 0.49 12.01-2.2 9.32 8.58c-2.21 8.58-6.13 14.46-6.13 14.46c0 0-24.76 0-24.76-4.41c0 0 5.15-25 14.46-23.04c6.62 1.47 7.11 4.41 7.11 4.41v0z" />
	<path fill-rule="evenodd" class="s16" d="m315.37 422.9c1.71 0.73 0.98 3.92-0.49 7.11c-2.21 5.39-32.6 68.4-32.6 68.4l-4.9 3.92l0.49-5.15l32.11-70.85c0 0 1.72-5.39 5.39-3.43v0z" />
	<path fill-rule="evenodd" class="s17" d="m371.75 93.9c0 0-4.17 12.75 3.19 14.22c0 0 6.13-4.66-3.19-14.22v0z" />
	<path fill-rule="evenodd" class="s17" d="m391.85 166.47c0 0-12.01-11.28-12.26-18.14l13.24 12.26l-0.98 5.88v0z" />
	<path fill-rule="evenodd" class="s17" d="m391.85 161.32c0 0-14.46-12.99-14.71-19.86l15.93 13.97l-1.23 5.88v0z" />
	<path fill-rule="evenodd" class="s17" d="m392.59 150.04c0 0-16.67-14.22-16.91-23.04l16.91 16.67v6.37v0z" />
	<path fill-rule="evenodd" class="s17" d="m391.61 142.69c0 0-17.16-12.5-16.92-23.04l15.44 14.96l1.47 8.09v0z" />
	<path fill-rule="evenodd" class="s17" d="m390.63 133.62c0 0-18.63-8.82-17.65-19.37l15.2 11.77l2.45 7.6v0z" />
	<path fill-rule="evenodd" class="s17" d="m378.62 109.84c0 0-8.34 2.94-10.54-9.56l9.07 7.35l1.47 2.21v0z" />
	<path fill-rule="evenodd" class="s17" d="m386.71 123.08c0 0-14.46-2.7-17.4-13.73l12.5 7.11l4.9 6.62v0z" />
	<path fill-rule="evenodd" class="s17" d="m381.56 115.48c0 0-12.26-1.23-14.96-11.52l11.77 6.62l3.19 4.9v0z" />
	<path fill-rule="evenodd" class="s17" d="m392.1 165.98l-0.74-6.37l14.22-7.6c-0.74 6.62-13.48 13.97-13.48 13.97v0z" />
	<path fill-rule="evenodd" class="s17" d="m392.35 160.83l-0.49-6.37l17.9-10.54c-0.98 6.62-17.4 16.92-17.4 16.92v0z" />
	<path fill-rule="evenodd" class="s17" d="m393.33 154.46l-0.73-6.37l17.41-14.46c2.7 7.35-16.67 20.84-16.67 20.84v0z" />
	<path fill-rule="evenodd" class="s17" d="m393.08 147.35l-1.47-5.88l15.44-17.65c2.94 9.81-13.97 23.53-13.97 23.53v0z" />
	<path fill-rule="evenodd" class="s17" d="m389.89 131.17l-3.92-7.6l10.54-11.03c6.62 8.58-6.62 18.63-6.62 18.63v0z" />
	<path fill-rule="evenodd" class="s17" d="m386.71 123.08l-3.43-6.13l6.13-11.28c6.62 8.33-2.7 17.4-2.7 17.4v0z" />
	<path fill-rule="evenodd" class="s17" d="m384.5 118.17l-4.9-6.37l4.41-10.3c5.88 8.83 0.49 16.67 0.49 16.67v0z" />
	<path fill-rule="evenodd" class="s17" d="m378.86 111.06l-3.92-4.17l0.98-13.24c9.32 5.64 2.94 17.4 2.94 17.4v0z" />
	<path class="s2" d="m389.65 171.62c0 0 14.22-34.32-15.93-66.93" />
	<path fill-rule="evenodd" class="s17" d="m391.37 139.26l-1.23-6.62l13.73-15.2c2.7 10.3-12.5 21.82-12.5 21.82v0z" />
	<path fill-rule="evenodd" class="s17" d="m393.08 155.44c0 0-16.67-14.22-16.92-20.35l16.67 13.73l0.25 6.62v0z" />
	<path fill-rule="evenodd" class="s17" d="m473.25 223.59c0 0-16.18 1.47-14.22-6.37c0 0 8.09-5.39 14.22 6.37v0z" />
	<path fill-rule="evenodd" class="s17" d="m402.15 185.83l7.11 0.25l7.11 16.67c-7.11-1.72-14.22-16.92-14.22-16.92v0z" />
	<path fill-rule="evenodd" class="s17" d="m407.79 186.82l7.35 0.24l7.6 20.1c-7.11-1.96-14.95-20.35-14.95-20.35v0z" />
	<path fill-rule="evenodd" class="s17" d="m420.78 188.78l6.86 1.47l10.79 21.57c-9.56-2.21-17.65-23.04-17.65-23.04v0z" />
	<path fill-rule="evenodd" class="s17" d="m428.38 191.72l8.33 3.19l9.07 19.86c-11.77-2.45-17.41-23.04-17.41-23.04v0z" />
	<path fill-rule="evenodd" class="s17" d="m437.7 194.9l7.6 3.92l5.88 18.88c-12.01-1.72-13.48-22.8-13.48-22.8v0z" />
	<path fill-rule="evenodd" class="s17" d="m458.78 212.8l1.72 2.21l3.68 11.03c-12.5-5.15-5.4-13.24-5.4-13.24v0z" />
	<path fill-rule="evenodd" class="s17" d="m447.75 201.28l5.15 6.62l1.71 14.71c-10.54-5.64-6.86-21.33-6.86-21.33v0z" />
	<path fill-rule="evenodd" class="s17" d="m453.63 208.39l4.17 4.41l1.72 14.22c-10.05-5.64-5.88-18.63-5.88-18.63v0z" />
	<path fill-rule="evenodd" class="s17" d="m402.89 185.83c0 0 14.22-11.77 22.06-11.28l-15.44 13.24l-6.62-1.96v0z" />
	<path fill-rule="evenodd" class="s17" d="m408.77 186.57c0 0 19.12-14.71 26.72-13.97l-20.1 15.93l-6.62-1.96v0z" />
	<path fill-rule="evenodd" class="s17" d="m416.37 187.06c0 0 23.78-16.92 30.89-12.5l-24.27 14.71l-6.62-2.21v0z" />
	<path fill-rule="evenodd" class="s17" d="m423.73 189.02c0 0 23.53-14.46 32.85-9.07l-26.47 11.77l-6.37-2.7v0z" />
	<path fill-rule="evenodd" class="s17" d="m440.4 196.13c0 0 17.65-11.52 23.78-2.7l-17.16 8.33l-6.62-5.64v0z" />
	<path fill-rule="evenodd" class="s17" d="m447.75 201.03c0 0 14.46-7.36 20.59 1.72l-15.44 3.68l-5.15-5.39v0z" />
	<path fill-rule="evenodd" class="s17" d="m452.16 204.71c0 0 11.52-3.68 18.39 4.41l-13.48 2.21l-4.9-6.62v0z" />
	<path fill-rule="evenodd" class="s17" d="m457.56 212.31c0 0 15.93-4.17 17.9 6.86l-15.2-1.72l-2.7-5.15v0z" />
	<path class="s2" d="m395.53 186.82c0 0 44.62-6.62 66.68 32.36" />
	<path fill-rule="evenodd" class="s17" d="m432.06 192.7c0 0 20.1-13.24 30.4-7.85l-23.29 10.3l-7.11-2.45v0z" />
	<path fill-rule="evenodd" class="s17" d="m415.15 187.06l7.11 1.96l7.35 20.59c-6.62-1.72-14.46-22.55-14.46-22.55v0z" />
	<path fill-rule="evenodd" class="s17" d="m455.35 267.47c0 0-15.93-8.83-13.24-17.65c0 0 9.8-5.39 13.24 17.65v0z" />
	<path fill-rule="evenodd" class="s17" d="m443.09 248.84l1.72 2.7l3.43 16.92c-13.24-7.11-5.15-19.61-5.15-19.61v0z" />
	<path fill-rule="evenodd" class="s17" d="m443.09 248.84c0 0 13.97-3.68 16.67 11.03l-14.71-8.33l-1.96-2.7v0z" />
	<path fill-rule="evenodd" class="s17" d="m392.1 186.08c0 0 19.61 1.47 24.51 7.84l-21.33-0.73l-3.19-7.11v0z" />
	<path fill-rule="evenodd" class="s17" d="m395.53 191.23c0 0 25.74 2.94 30.64 9.31l-27.7-2.2l-2.94-7.11v0z" />
	<path fill-rule="evenodd" class="s17" d="m400.43 197.85c0 0 25.74 2.7 30.64 9.07l-27.7-2.21l-2.94-6.86v0z" />
	<path fill-rule="evenodd" class="s17" d="m406.07 205.2c0 0 28.68-2.94 33.34 9.07l-30.15-1.96l-3.19-7.11v0z" />
	<path fill-rule="evenodd" class="s17" d="m410.98 212.56c0 0 28.44-2.94 33.1 9.07l-27.7-0.49l-5.39-8.58v0z" />
	<path fill-rule="evenodd" class="s17" d="m417.35 220.4c0 0 28.68-2.94 33.34 8.82l-27.95-0.49l-5.39-8.33v0z" />
	<path fill-rule="evenodd" class="s17" d="m423.73 228c0 0 25.25-2.7 29.91 9.07l-23.05-2.21l-6.86-6.86v0z" />
	<path fill-rule="evenodd" class="s17" d="m430.34 235.6c0 0 20.35-2.7 25.25 9.07l-18.63-2.21l-6.62-6.87v0z" />
	<path fill-rule="evenodd" class="s17" d="m437.7 243.69c0 0 16.92-3.68 21.82 8.09l-17.41-2.7l-4.41-5.39v0z" />
	<path fill-rule="evenodd" class="s17" d="m390.87 187.06l6.13 4.41l-3.43 21.08c-5.39-5.88-2.7-25.5-2.7-25.5v0z" />
	<path fill-rule="evenodd" class="s17" d="m395.29 191.47l6.13 4.66l-3.43 27.21c-5.39-6.13-2.7-31.87-2.7-31.87v0z" />
	<path fill-rule="evenodd" class="s17" d="m400.43 197.6l6.37 4.41l-3.68 27.46c-5.15-6.13-2.7-31.87-2.7-31.87v0z" />
	<path fill-rule="evenodd" class="s17" d="m406.81 204.71l6.13 4.41l-4.41 30.15c-10.54-7.11-1.72-34.57-1.72-34.57v0z" />
	<path fill-rule="evenodd" class="s17" d="m412.94 211.08l7.11 6.86l-5.4 27.46c-10.54-7.11-1.71-34.32-1.71-34.32v0z" />
	<path fill-rule="evenodd" class="s17" d="m419.07 218.93l7.11 7.11l-5.39 27.21c-10.54-7.11-1.72-34.32-1.72-34.32v0z" />
	<path fill-rule="evenodd" class="s17" d="m425.44 227.02l5.15 7.84l-2.45 23.04c-10.79-7.11-2.7-30.89-2.7-30.89v0z" />
	<path fill-rule="evenodd" class="s17" d="m431.57 234.86l5.15 7.84l-1.71 18.63c-10.54-7.11-3.43-26.48-3.43-26.48v0z" />
	<path fill-rule="evenodd" class="s17" d="m437.7 243.69l4.41 5.15l-0.98 17.65c-10.54-6.86-3.43-22.8-3.43-22.8v0z" />
	<path class="s2" d="m387.44 182.65c0 0 31.62 29.91 51.97 64.47" />
	<path fill-rule="evenodd" class="s17" d="m390.87 177.99l-5.15-5.64l8.33-19.86c3.68 7.11-3.19 25.5-3.19 25.5v0z" />
	<path fill-rule="evenodd" class="s17" d="m389.4 177.01c0 0-19.61 0.25-25-5.64l21.33-0.98l3.68 6.62v0z" />
	<path fill-rule="evenodd" class="s17" d="m343.32 129.2c0 0-20.35 2.7-25.01-9.32l18.39 2.45l6.62 6.86v0z" />
	<path fill-rule="evenodd" class="s17" d="m336.21 121.36c0 0-17.16 3.19-19.86-6.86l17.41 2.94l2.45 3.92v0z" />
	<path fill-rule="evenodd" class="s17" d="m361.21 142.44c0 0-28.19 5.39-33.83-5.88l27.7-1.96l6.13 7.84v0z" />
	<path fill-rule="evenodd" class="s17" d="m354.1 135.33c0 0-24.51 4.9-30.15-6.37l23.04 0.25l7.11 6.13v0z" />
	<path fill-rule="evenodd" class="s17" d="m387.69 172.6l-5.15-5.64l9.56-25.74c3.19 5.88-4.41 31.38-4.41 31.38v0z" />
	<path fill-rule="evenodd" class="s17" d="m383.76 165.49l-5.15-5.64l9.56-25.99c3.92 7.35-4.41 31.62-4.41 31.62v0z" />
	<path fill-rule="evenodd" class="s17" d="m378.37 157.89l-6.37-3.92l6.86-27.21c11.03 6.13-0.49 31.13-0.49 31.13v0z" />
	<path fill-rule="evenodd" class="s17" d="m372 152.49l-7.11-6.13l7.6-25c11.28 6.13-0.49 31.13-0.49 31.13v0z" />
	<path fill-rule="evenodd" class="s17" d="m365.87 145.38l-7.36-6.13l4.9-25.01c11.28 5.88 2.45 31.13 2.45 31.13v0z" />
	<path fill-rule="evenodd" class="s17" d="m319.54 109.84c0 0 8.82 15.93 17.65 12.99c0 0 5.15-9.56-17.65-12.99v0z" />
	<path fill-rule="evenodd" class="s17" d="m337.92 122.1l-3.19-1.47l-8.58-14.95c15.44 2.2 11.77 16.42 11.77 16.42v0z" />
	<path fill-rule="evenodd" class="s17" d="m359 141.22l-6.86-6.62l-0.49-24.03c14.46 3.68 7.35 30.64 7.35 30.64v0z" />
	<path fill-rule="evenodd" class="s17" d="m351.16 134.6l-6.62-6.62l-2.45-18.63c12.01 4.9 9.07 25.25 9.07 25.25v0z" />
	<path fill-rule="evenodd" class="s17" d="m343.32 127.49l-5.4-4.41l-2.94-17.4c12.01 4.66 8.33 21.82 8.33 21.82v0z" />
	<path fill-rule="evenodd" class="s17" d="m385.48 172.11c0 0-25.74-0.49-31.13-6.37l27.46-0.25l3.68 6.62v0z" />
	<path fill-rule="evenodd" class="s17" d="m380.09 166.22c0 0-30.15-1.47-35.79-7.36l32.12 0.74l3.68 6.62v0z" />
	<path fill-rule="evenodd" class="s17" d="m375.43 158.38c0 0-30.89 2.21-36.53-8.83l33.09 2.21l3.43 6.62v0z" />
	<path fill-rule="evenodd" class="s17" d="m370.28 151.51c0 0-30.89 2.45-36.77-8.83l30.64 0.74l6.13 8.09v0z" />
	<path class="s2" d="m388.91 177.5c0 0-12.99-33.59-65.45-60.31" />
	<path fill-rule="evenodd" class="s17" d="m474.47 162.06c0 0-11.03 13.24-16.42 5.88c0 0 1.22-10.54 16.42-5.88v0z" />
	<path fill-rule="evenodd" class="s17" d="m388.18 186.32l5.39-5.15l20.1 7.35c-7.11 4.17-25.5-2.21-25.5-2.21v0z" />
	<path fill-rule="evenodd" class="s17" d="m393.33 182.89l5.39-5.39l23.78 9.56c-7.11 4.17-29.17-4.17-29.17-4.17v0z" />
	<path fill-rule="evenodd" class="s17" d="m404.6 174.56l6.62-4.17l26.72 8.82c-9.07 5.15-33.34-4.66-33.34-4.66v0z" />
	<path fill-rule="evenodd" class="s17" d="m412.69 171.13l9.32-3.68l24.03 8.33c-10.54 7.11-33.34-4.66-33.34-4.66v0z" />
	<path fill-rule="evenodd" class="s17" d="m422.5 166.47l9.32-2.45l20.84 10.05c-10.05 7.6-30.15-7.6-30.15-7.6v0z" />
	<path fill-rule="evenodd" class="s17" d="m453.88 164.51l3.19 0.73l12.75 5.39c-13.97 5.39-15.93-6.13-15.93-6.13v0z" />
	<path fill-rule="evenodd" class="s17" d="m435.74 164.02l9.56 1.23l14.46 10.05c-12.99 3.68-24.03-11.28-24.03-11.28v0z" />
	<path fill-rule="evenodd" class="s17" d="m446.52 165.24l6.86 0.24l13.73 9.32c-12.5 3.43-20.59-9.56-20.59-9.56v0z" />
	<path fill-rule="evenodd" class="s17" d="m388.67 185.83c0 0 0.24-19.61 6.37-25.01l0.25 21.57l-6.62 3.43v0z" />
	<path fill-rule="evenodd" class="s17" d="m393.57 182.16c0 0 1.22-25.74 7.6-31.13l-0.98 27.7l-6.62 3.43v0z" />
	<path fill-rule="evenodd" class="s17" d="m399.7 176.76c0 0 2.7-31.13 12.01-32.85l-5.15 29.42l-6.86 3.43v0z" />
	<path fill-rule="evenodd" class="s17" d="m406.81 172.6c0 0 4.9-28.68 16.43-31.62l-9.07 29.17l-7.36 2.45v0z" />
	<path fill-rule="evenodd" class="s17" d="m425.69 165.49c0 0 2.7-22.06 15.2-19.86l-5.15 19.61l-10.05 0.24v0z" />
	<path fill-rule="evenodd" class="s17" d="m435.49 163.77c0 0 4.17-16.43 16.67-14.22l-8.09 14.46l-8.58-0.24v0z" />
	<path fill-rule="evenodd" class="s17" d="m442.11 163.28c0 0 4.9-11.28 17.41-10.05l-8.09 11.52l-9.32-1.47v0z" />
	<path fill-rule="evenodd" class="s17" d="m452.65 165.24c0 0 8.34-15.2 19.61-8.33l-12.99 10.05l-6.62-1.72v0z" />
	<path class="s2" d="m384.26 191.96c0 0 27.21-38.49 78.2-24.76" />
	<path fill-rule="evenodd" class="s17" d="m416.37 169.17c0 0 3.19-25.25 15.44-28.68l-7.84 25.5l-7.6 3.19v0z" />
	<path fill-rule="evenodd" class="s17" d="m398.72 177.5l7.11-3.92l23.54 10.54c-6.37 3.43-30.65-6.62-30.65-6.62v0z" />
	<path fill-rule="evenodd" class="s17" d="m368.32 174.56l-10.05-1.23l-21.82-27.46c12.26-1.22 31.87 28.68 31.87 28.68v0z" />
	<path fill-rule="evenodd" class="s17" d="m264.87 185.83c0 0 8.09 10.3 26.97-1.23c0 0-13.48-9.81-26.97 1.23v0z" />
	<path fill-rule="evenodd" class="s18" d="m387.44 179.95c0 0-20.1 12.01-30.64 10.3l21.33-13.48l9.32 3.19v0z" />
	<path fill-rule="evenodd" class="s17" d="m379.11 178.23c0 0-23.04 14.95-33.83 13.48l24.76-16.67l9.07 3.19v0z" />
	<path fill-rule="evenodd" class="s17" d="m361.21 174.07c0 0-25.25 17.16-38.98 14.96l28.93-16.67l10.05 1.72v0z" />
	<path fill-rule="evenodd" class="s17" d="m349.69 173.33c0 0-22.8 18.39-39.22 14.95l25.74-15.44l13.48 0.49v0z" />
	<path fill-rule="evenodd" class="s17" d="m334.98 172.11c0 0-17.16 20.84-33.59 16.92l21.09-16.18l12.5-0.74v0z" />
	<path fill-rule="evenodd" class="s17" d="m295.27 180.2c0 0-1.23 15.2-21.08 14.47l17.41-12.99l3.68-1.47v0z" />
	<path fill-rule="evenodd" class="s17" d="m317.57 173.82c0 0-6.37 17.65-24.52 18.39l13.49-14.22l11.03-4.17v0z" />
	<path fill-rule="evenodd" class="s17" d="m304.83 178.48c0 0-3.92 14.95-20.84 15.69l12.5-13.48l8.34-2.2v0z" />
	<path fill-rule="evenodd" class="s17" d="m386.46 179.46l-10.05-0.98l-9.81-20.59c10.05 2.94 19.86 21.57 19.86 21.57v0z" />
	<path fill-rule="evenodd" class="s17" d="m378.37 177.5l-10.05-0.98l-13.97-25.99c10.3 2.94 24.02 26.97 24.02 26.97v0z" />
	<path fill-rule="evenodd" class="s17" d="m314.88 144.65c27.95-1.72 42.41 28.19 42.41 28.19h-10.05c0 0.25-10.54-15.69-15.2-19.37c-4.66-3.68-17.16-8.83-17.16-8.83v0z" />
	<path fill-rule="evenodd" class="s3" d="m298.7 152.74c14.47-6.13 32.12 19.37 32.12 19.37l-12.5 2.7c-0.25 0.25-6.62-13.73-10.05-16.42c-3.43-2.45-9.56-5.64-9.56-5.64v0z" />
	<path class="s2" d="m298.7 152.74c14.47-6.13 32.12 19.37 32.12 19.37l-12.5 2.7c0 0-6.62-13.73-10.05-16.42c-3.43-2.45-9.56-5.64-9.56-5.64v0z" />
	<path fill-rule="evenodd" class="s17" d="m286.2 160.58c17.16-11.77 31.63 13.24 31.63 13.24l-8.58 2.7c0.25 0-5.39-8.34-8.34-10.05c-3.19-1.96-14.71-5.88-14.71-5.88v0z" />
	<path fill-rule="evenodd" class="s17" d="m309.49 175.29l-10.79 4.41l-19.86-13.73c14.71-5.15 30.65 9.32 30.65 9.32v0z" />
	<path fill-rule="evenodd" class="s17" d="m297.23 180.44l-7.35 3.68l-19.12-8.83c15.2-8.58 26.48 5.15 26.48 5.15v0z" />
	<path class="s2" d="m395.04 184.12c0 0-52.22-28.19-108.85 1.23" />
	<path fill-rule="evenodd" class="s17" d="m305.32 148.08c21.08-7.11 38.73 24.76 38.73 24.76l-10.79-0.73c0 0-6.37-8.83-9.81-12.75c-5.15-5.64-18.14-11.28-18.14-11.28v0z" />
	<path fill-rule="evenodd" class="s17" d="m370.04 175.05c0 0-25.25 17.41-35.06 15.93l24.27-17.41l10.79 1.47v0z" />
	<path fill-rule="evenodd" class="s17" d="m340.87 285.37c0 0 11.03-15.69 9.07-19.86c0 0-15.2 8.09-9.07 19.86v0z" />
	<path fill-rule="evenodd" class="s17" d="m389.65 186.08c0 0 1.47 19.12-4.9 28.44l-2.45-20.1l7.35-8.34v0z" />
	<path fill-rule="evenodd" class="s17" d="m384.5 193.19c0 0 2.7 21.33-3.68 30.64l-3.68-22.31l7.35-8.33v0z" />
	<path fill-rule="evenodd" class="s17" d="m372 209.12c0 0 6.13 23.54-2.45 35.55l-3.68-26.97l6.13-8.58v0z" />
	<path fill-rule="evenodd" class="s17" d="m351.9 245.65c0 0 13.48 5.15 6.13 19.61l-7.35-11.03l1.23-8.58v0z" />
	<path fill-rule="evenodd" class="s17" d="m388.91 186.82l-5.64 8.58l-23.78 11.77c7.6-9.07 29.42-20.35 29.42-20.35v0z" />
	<path fill-rule="evenodd" class="s17" d="m383.28 193.92l-5.39 8.58l-30.89 16.18c7.6-9.07 36.28-24.76 36.28-24.76v0z" />
	<path fill-rule="evenodd" class="s17" d="m375.92 202.99l-5.64 8.58l-22.06 11.28c4.41-10.05 27.7-19.86 27.7-19.86v0z" />
	<path fill-rule="evenodd" class="s17" d="m369.06 212.31l-4.66 8.58l-22.8 11.52c6.62-13.24 27.46-20.1 27.46-20.1v0z" />
	<path fill-rule="evenodd" class="s17" d="m356.06 234.86l-2.94 10.05l-19.12 9.56c2.94-10.3 22.06-19.61 22.06-19.61v0z" />
	<path fill-rule="evenodd" class="s17" d="m351.65 245.41l-1.96 8.34l-17.41 9.07c0.98-11.03 19.37-17.41 19.37-17.41v0z" />
	<path fill-rule="evenodd" class="s17" d="m349.2 252.27l-0.73 8.33l-15.45 9.56c1.96-11.52 16.18-17.9 16.18-17.9v0z" />
	<path fill-rule="evenodd" class="s17" d="m348.47 261.59l-0.25 5.15l-15.93 13.48c-1.47-10.05 16.18-18.63 16.18-18.63v0z" />
	<path class="s2" d="m397 178.97c0 0-50.26 48.54-49.03 90.95" />
	<path fill-rule="evenodd" class="s17" d="m362.93 223.59l-5.64 9.32l-21.57 12.75c9.31-17.65 27.21-22.06 27.21-22.06v0z" />
	<path fill-rule="evenodd" class="s17" d="m377.15 201.52c0 0 3.43 26.72-0.49 32.36l-5.88-23.04l6.37-9.32v0z" />
	<path fill-rule="evenodd" class="s17" d="m366.11 218.93c0 0 6.37 22.31-2.21 34.57l-3.92-23.29l6.13-11.28v0z" />
	<path fill-rule="evenodd" class="s17" d="m358.27 231.19c0 0 9.32 12.5 2.2 28.93l-7.35-18.39l5.15-10.54v0z" />
	<path fill-rule="evenodd" class="s17" d="m350.18 255.46c0 0 7.11 7.11 5.15 14.71l-6.86-7.84l1.71-6.87v0z" />
	<path fill-rule="evenodd" class="s17" d="m347.48 263.06c0 0 10.3 4.9 1.47 20.35l-1.71-17.41l0.24-2.94v0z" />
	<path fill-rule="evenodd" class="s17" d="m372.49 187.3l-7.84 4.41l-30.4-9.07c8.58-7.35 38.24 4.66 38.24 4.66v0z" />
	<path fill-rule="evenodd" class="s17" d="m302.38 249.08c0 0 11.28 3.43 19.12-14.71c0 0-14.95-0.25-19.12 14.71v0z" />
	<path fill-rule="evenodd" class="s17" d="m389.4 181.42c0 0-8.33 19.12-17.16 23.53l8.82-21.08l8.33-2.45v0z" />
	<path fill-rule="evenodd" class="s19" d="m382.54 184.36c0 0-9.31 23.04-17.9 27.46l9.56-25l8.33-2.45v0z" />
	<path fill-rule="evenodd" class="s17" d="m367.1 190.49c0 0-9.56 25.74-20.84 31.38l12.5-27.46l8.33-3.92v0z" />
	<path fill-rule="evenodd" class="s17" d="m358.27 196.13c0 0-7.11 25.25-21.08 31.38l11.03-24.76l10.05-6.62v0z" />
	<path fill-rule="evenodd" class="s17" d="m346.99 202.75c0 0-1.96 24.27-16.18 29.66l7.11-22.8l9.07-6.86v0z" />
	<path fill-rule="evenodd" class="s17" d="m321.99 229.23c0 0 6.86 11.77-8.09 21.82l6.13-18.88l1.96-2.94v0z" />
	<path fill-rule="evenodd" class="s17" d="m334.98 213.05c0 0 3.68 16.92-8.34 26.23l2.45-17.41l5.88-8.83v0z" />
	<path fill-rule="evenodd" class="s17" d="m327.87 222.85c0 0 5.15 13.24-6.86 22.55l1.96-16.43l4.9-6.13v0z" />
	<path fill-rule="evenodd" class="s17" d="m388.67 181.42l-8.09 4.66l-17.9-10.05c9.07-2.94 25.99 5.39 25.99 5.39v0z" />
	<path fill-rule="evenodd" class="s17" d="m381.81 184.36l-8.09 4.17l-23.78-11.77c9.07-2.94 31.87 7.6 31.87 7.6v0z" />
	<path fill-rule="evenodd" class="s17" d="m317.82 192.94c19.61-15.69 45.84-1.23 45.84-1.23l-7.6 5.15c0.49 0.25-15.69-5.88-20.84-6.37c-5.39-0.25-17.4 2.45-17.4 2.45v0z" />
	<path fill-rule="evenodd" class="s17" d="m310.22 207.41c7.35-12.01 33.59-2.7 33.59-2.7l-7.6 8.83c-0.25 0.24-12.01-6.87-15.93-6.87c-4.17-0.24-10.05 0.73-10.05 0.73v0z" />
	<path fill-rule="evenodd" class="s17" d="m305.07 219.42c6.37-17.65 29.91-6.37 29.91-6.37l-4.9 6.37c0.25-0.24-8.09-3.43-11.28-3.19c-3.19 0.25-13.73 3.19-13.73 3.19v0z" />
	<path fill-rule="evenodd" class="s17" d="m329.83 218.19l-5.88 9.07h-21.57c8.09-11.52 27.46-9.07 27.46-9.07v0z" />
	<path fill-rule="evenodd" class="s17" d="m323.46 228.49l-3.43 6.62l-18.88 3.43c6.87-14.22 22.31-10.05 22.31-10.05v0z" />
	<path class="s2" d="m397.49 180.44c0 0-53.2 6.37-79.67 57.37" />
	<path fill-rule="evenodd" class="s17" d="m312.67 200.54c11.77-16.42 41.19-1.96 41.19-1.96l-8.58 5.15c0 0-8.82-3.19-13.73-4.41c-6.37-1.47-18.88 1.22-18.88 1.22v0z" />
	<path fill-rule="evenodd" class="s17" d="m374.2 186.82c0 0-9.56 25.74-17.41 29.91l8.58-25.5l8.82-4.41v0z" />
	<path fill-rule="evenodd" class="s20" d="m299.92 60.81c0 0-1.72 10.54-6.13 15.93c-4.41 5.39-25.5 40.69-86.54 16.92c0 0-7.11 60.8-78.69 66.19c0 0 13.48 9.56 8.83 32.6c-2.21 11.77-10.54 29.91-23.78 58.35c-13.24 28.19-29.91 67.91-29.17 103.21c0.98 35.3 8.82 104.19 83.84 138.51l-1.72 9.81c0 0-43.64-18.88-53.93-28.19c-10.54-9.81-13.97-4.41-13.97-0.98c0 0-5.39-0.98-6.13-5.39c-0.98-4.17 0-11.28 9.56-9.56c0 0-13.97-17.65-16.67-24.76c-2.7-7.11-9.81-12.5-12.26-8.83c0 0 1.71-5.39 5.15-6.13c3.43-0.98 2.45-6.87 0.98-11.53c-1.72-5.15-6.13-9.81-8.83-9.81c-5.39 0-8.09 0.98-8.09 5.4c0 0-3.19-2.7-3.43-6.13c-0.98-8.09 0-12.26 6.86-14.22c3.19-0.73 10.79 1.96 10.79 4.41c0 2.7-1.72-13.24-1.72-13.24c0 0-0.98-9.56-4.41-20.1c-3.68-10.79-11.52-10.79-17.65-4.66c0 0-1.96-9.56 0.73-13.24c2.7-3.43 12.26-13.97 22.06 3.68c0 0 0.98-24.76-1.72-28.44c-2.7-3.43-9.81-8.58-15.93-3.43c0 0-2.7-13.24 11.52-12.26c9.56 0.49 9.81 8.83 9.81 8.83c0 0 7.84-35.3 20.1-52.95c12.5-17.9 40.69-66.44 25.74-86.54c0 0-3.43 3.43-7.11 2.45c-3.43-0.74-2.7-6.86 0-6.86c0 0-7.85 1.71-3.43-7.11c2.21-4.9 6.13-3.68 7.11 0c0 0-1.96-8.83 6.13-6.13c6.86 2.21 3.43 5.15 0.73 6.87c0 0 60.06-10.54 68.15-57.37c0 0-3.43 6.62-7.11 0c-4.41-7.84 5.15-7.84 5.15-7.84c0 0-6.86-1.72 0-7.11c4.17-2.94 10.79-1.72 9.81 2.7c0 0 2.7-5.39 6.13-1.72c0 0 7.11 6.13 0 7.84c0 0 52.22 15.94 78.69-20.35c0 0-7.11-2.45-4.41-6.86c3.43-6.37 7.11-3.68 9.56 0c0 0-5.15-10.54 5.39-10.54c10.54 0 5.39 10.54 5.39 10.54c2.45-3.68 6.13-6.37 9.56 0c2.7 4.41-4.41 6.86-4.41 6.86c26.47 36.28 78.69 20.35 78.69 20.35c-7.11-1.71 0-7.84 0-7.84c3.43-3.68 6.13 1.72 6.13 1.72c-0.74-4.41 5.88-5.64 9.81-2.7c7.11 5.39 0 7.11 0 7.11c0 0 9.56 0 5.15 7.84c-3.68 6.62-7.11 0-7.11 0c8.09 46.82 68.15 57.37 68.15 57.37c-2.7-1.72-5.88-4.66 0.74-6.87c8.09-2.7 6.13 6.13 6.13 6.13c0.98-3.68 4.9-4.9 7.11 0c4.66 8.82-3.43 7.11-3.43 7.11c2.7 0 3.43 6.13 0 6.86c-3.68 0.98-7.11-2.45-7.11-2.45c-14.95 20.1 13.24 68.64 25.74 86.54c12.26 17.65 20.35 52.95 20.35 52.95c0 0 0-8.34 9.56-8.83c14.22-0.98 11.52 12.26 11.52 12.26c-6.13-5.15-13.24 0-15.93 3.43c-2.69 3.68-1.71 28.44-1.71 28.44c9.81-17.65 19.37-7.11 22.06-3.68c2.7 3.68 0.73 13.24 0.73 13.24c-6.13-6.13-13.97-6.13-17.65 4.66c-3.43 10.54-4.41 20.1-4.41 20.1c0 0-1.72 15.93-1.72 13.24c0-2.45 7.6-5.15 10.79-4.41c6.87 1.96 7.84 6.13 6.87 14.22c-0.25 3.43-3.43 6.13-3.43 6.13c0-4.41-2.7-5.4-8.09-5.4c-2.7 0-6.87 4.66-8.58 9.81c-1.72 4.66-2.7 10.54 0.73 11.53c3.43 0.73 5.15 6.13 5.15 6.13c-2.45-3.68-9.56 1.72-12.26 8.83c-2.7 7.11-16.67 24.76-16.67 24.76c9.81-1.72 10.54 5.39 9.81 9.56c-0.98 4.41-6.37 5.39-6.37 5.39c0-3.43-3.43-8.82-13.97 0.98c-10.3 9.31-53.93 28.19-53.93 28.19l-1.71-9.81c75.01-34.32 82.86-103.21 83.84-138.51c0.73-35.3-15.93-75.02-29.17-103.21c-13.24-28.44-20.35-46.82-23.78-58.35c-6.13-20.35 8.83-32.6 8.83-32.6c-71.58-5.39-78.69-66.19-78.69-66.19c-60.8 23.78-82.12-11.52-86.54-16.92c-4.17-5.39-6.13-15.93-6.13-15.93v0z" />
	<path fill-rule="evenodd" class="s21" d="m204.56 492.52c0 0-8.82 0-5.15-5.15c3.43-5.39 11.28-3.68 12.26 1.72c0.73 5.39-0.98 15.93-10.54 19.37c-9.81 3.68-32.85 0-35.3 10.54c0 0-6.37-8.58 0.73-11.28c0 0-22.06-5.88-12.01-14.22c2.7-2.21 8.58 0.98 4.9 6.13c0 0 8.82 2.21 8.09-11.77c0 0 12.01 11.77 25.99 12.75c8.83 0.49 13.24-4.41 11.03-8.09v0z" />
	<path fill-rule="evenodd" class="s21" d="m395.29 492.52c-2.21 3.68 2.21 8.58 11.03 8.09c14.22-0.98 25.98-12.75 25.98-12.75c-0.73 13.97 8.09 11.77 8.09 11.77c-3.68-5.15 2.21-8.33 4.9-6.13c10.05 8.33-12.01 14.22-12.01 14.22c7.11 2.7 0.74 11.28 0.74 11.28c-2.45-10.54-25.5-6.86-35.3-10.54c-9.56-3.43-11.28-13.97-10.54-19.37c0.98-5.39 8.82-7.11 12.26-1.72c3.68 5.15-5.15 5.15-5.15 5.15v0z" />
	<path fill-rule="evenodd" class="s20" d="m299.19 555.28c0 0 17.65-28.68 31.63-31.87c12.5-2.45 42.41-11.28 30.15-24.76c0 0 12.26-5.15 13.24 8.09c0 0 8.58-1.71 8.58-5.39c0 0-5.88-4.17-3.43-6.86c2.7-2.7 12.5-4.41 12.5 4.17c0 9.07-0.98 13.49-10.54 17.65c0 0 6.13 4.66 4.17 9.81c0 0-17.65-8.83-33.58 1.96c0 0 9.81 3.43 2.69 12.26c0 0-22.8-18.63-55.4 14.95v0z" />
	<path fill-rule="evenodd" class="s20" d="m300.41 555.28c-32.61-33.59-55.16-14.95-55.16-14.95c-7.11-8.82 2.7-12.26 2.7-12.26c-15.93-10.79-33.59-1.96-33.59-1.96c-1.96-5.15 4.41-9.81 4.41-9.81c-9.81-4.17-10.79-8.58-10.79-17.65c0-8.58 9.8-6.86 12.5-4.17c2.45 2.7-3.43 6.86-3.43 6.86c0 3.68 8.58 5.39 8.58 5.39c0.98-13.24 13.24-8.09 13.24-8.09c-12.26 13.49 17.65 22.31 30.15 24.76c14.22 3.19 31.38 31.87 31.38 31.87v0z" />
	<path fill-rule="evenodd" class="s22" d="m299.92 37.76c-49.28 0-78.2 8.09-78.2 8.09v13.24c0 5.39-3.92 7.11-8.58 5.64c-43.64-11.77-53.93-11.03-57.86-11.03c-4.17 0-20.35 2.45-51.24 20.35c-30.89 18.14-44.13 16.92-44.13 16.92v11.28c-1.47 5.39-5.88 3.19-13.24 10.3c-18.88 17.41-26.72 41.92-26.72 41.92c0 0-17.9-62.76 26.97-84.82l0.98-14.46c0 0 23.29-4.41 36.53-12.26c13.24-8.09 38.98-26.23 71.58-26.23c33.1 0 53.44 7.6 53.44 7.6l-0.49-13.73c0 0 25.74-9.56 90.95-9.56c65.46 0 90.95 9.56 90.95 9.56l-2.21 15.44c0 0 26.48-9.32 55.16-9.32c32.85 0 58.35 18.14 71.59 26.23c13.24 7.85 36.53 12.26 36.53 12.26l0.98 14.46c44.86 22.06 26.97 84.82 26.97 84.82c0 0-7.84-24.51-26.47-41.92c-7.6-7.11-12.01-4.9-13.24-10.3v-11.28c0 0-13.48 1.23-44.37-16.92c-30.89-17.9-47.07-20.35-50.99-20.35c-4.17 0-14.22-0.74-57.86 11.03c-4.9 1.47-8.82-0.25-8.82-5.64v-13.24c0 0-28.68-8.09-78.2-8.09v0z" />
	<path class="s2" d="m219.02 64c2.7-4.9-0.74-8.34-4.41-10.3c-3.92-1.96-4.17-5.64-4.17-5.64l-0.98-23.78m12.26 21.57c0 0-5.64 0-11.28 2.21m-150.52 54.18c0.74-3.43-3.19-6.62-5.88-6.86c-3.68-0.73-6.13-2.21-6.13-2.21l-0.98-23.78m12.26 21.57c0 0-7.84-0.49-11.28 2.21m340.76-67.17l-1.23 21.57c0 0-0.49 3.68-4.17 6.62c-2.7 2.7-5.15 4.9-2.45 9.81m-2.7-18.14c0 0 3.43-0.24 9.32 1.72m165.48 21.82l-0.98 23.78c0 0-2.45 1.47-6.13 2.21c-2.7 0.25-6.62 3.43-5.64 6.86m0.49-11.28c0 0 7.84-0.49 11.28 2.21" />
	<path fill-rule="evenodd" class="s23" d="m224.66 38.99l-0.25-1.47c0.74 0 1.23-0.25 1.96-0.49c0.73-0.24 0.73-0.98 0.49-1.47l-2.45-13.24c-0.25-2.45-0.25-2.45-2.45-1.96h-0.73l-0.25-1.47l10.79-1.96l0.24 1.47l-1.72 0.25c-1.23 0.25-1.23 0.73-0.98 1.72l2.45 13.73c0.24 1.23 0.24 1.72 1.47 1.72c0.73 0 1.23-0.25 1.96-0.25c3.92-0.98 5.39-3.43 5.64-7.36l1.23-0.24l0.98 7.6l-18.39 3.43v0z" />
	<path fill-rule="evenodd" class="s23" d="m247.22 35.31l-0.49-1.72l1.96-0.24c1.23-0.24 0.98-0.73 0.74-1.96l-1.47-13.73c0-0.24 0-0.49-0.24-0.73c0-0.49 0-0.74-0.49-0.74c-0.49 0-0.98 0-1.47 0l-0.98 0.25v-1.47l10.79-1.47l0.24 1.72h-0.98c-0.49 0-1.47 0-1.72 0.49c-0.25 0.24-0.25 0.49-0.25 0.49c0 0.49 0 0.74 0 0.98l1.72 13.97c0.24 0.74 0.24 1.23 0.73 1.47c0.24 0 0.24 0 0.49 0c0.25 0 0.74-0.25 1.23-0.25h0.74l0.24 1.47l-10.79 1.47v0z" />
	<path fill-rule="evenodd" class="s23" d="m261.43 33.35l-0.25-1.47c0.73 0 2.7 0 2.7-0.74c0.25-0.49 0.25-0.49 0.25-0.98l-0.98-14.47c0-0.24 0-0.49-0.25-0.73c0 0 0-0.25-0.24-0.25h-0.24c-0.74-0.25-1.47-0.25-2.45 0v-1.72l12.01-0.74c1.72 0 4.17 0 5.88 1.23c0.98 0.49 1.72 1.96 1.72 3.19c0.24 3.43-2.7 4.41-5.64 5.15v0c2.94 0.24 7.11 1.23 7.35 4.9c0.24 1.47-0.49 2.94-1.72 3.92c-1.23 1.23-2.45 1.47-3.92 1.72c-0.49 0-0.73 0-1.47 0.25c-0.98 0-1.96 0-2.94 0.25l-9.8 0.49v0z" />
	<path fill-rule="evenodd" class="s23" d="m285.46 31.88v-1.47c0.74 0 2.7 0.24 2.94-0.73c0-0.25 0-0.73 0-0.98l-0.25-14.46c0-0.25 0.25-0.49 0-0.74c0-0.25-0.25-0.25-0.73-0.49c-0.74 0-1.47 0-2.21 0v-1.47l18.88-0.24l0.25 7.35h-1.23c-1.23-4.17-2.7-5.88-7.36-5.88c-0.49 0-1.22 0-1.96 0.49c-0.24 0-0.24 0.25-0.49 0.49c0 0.49 0 0.98 0 1.47v5.39c2.94 0 4.17-1.47 4.41-4.17h1.47l0.25 9.81h-1.72c0-2.7-1.47-4.41-4.41-4.17v6.13c0 1.23 0 1.96 1.47 1.96c0.49 0 0.98 0 1.47 0c4.41 0 6.13-1.96 7.11-6.13h1.47l-0.25 7.6l-19.12 0.24v0z" />
	<path fill-rule="evenodd" class="s23" d="m321.25 12.02h2.21c1.71 0.24 3.19 0.49 4.66 1.47c1.23 0.74 1.96 2.45 1.72 3.92c0 3.43-3.19 4.9-6.37 4.9v0c2.45 0.49 3.68 1.96 4.17 4.41l0.25 1.96c0 0.49 0.24 1.22 0.49 1.72c0 0 0 0.24 0.24 0.24c1.47 0.73 1.72-1.47 1.72-2.45l1.47 0.25c0 0.49 0 0.98-0.25 1.47c-0.49 2.45-2.7 3.19-4.9 3.19c-1.22 0-2.45-0.49-3.19-1.47c-0.74-0.98-0.74-1.96-0.74-2.94l-0.24-1.72c0-2.45 0-4.17-2.7-4.41c-0.49 0-0.74-0.25-1.23-0.25h-0.98l-0.24 6.62c0 0.24 0 0.49 0 0.73c0 0.73 0.24 0.73 0.73 0.98c0.49 0 0.98 0 1.47 0h0.73v1.72l-11.03-0.73v-1.47c0.49 0 0.98 0 1.47 0c1.47 0 1.47-0.25 1.47-1.47l0.74-12.99c0-0.49 0.24-1.96 0-2.45c-0.49-0.49-1.23-0.24-1.96-0.49h-0.74v-1.47l11.03 0.73v0z" />
	<path fill-rule="evenodd" class="s23" d="m335.72 20.6l1.47-7.6l18.39 2.7l-0.49 7.6l-1.47-0.24c0-2.7-0.74-6.37-3.92-6.87c-0.49 0-0.98 0-0.98 0.49c-0.24 0.25-0.24 0.73-0.24 0.98l-1.96 14.22c0 0.98 0 1.23 0.98 1.71c0.49 0 1.23 0 2.21 0.25l-0.49 1.47l-11.28-1.47l0.25-1.47c0.74 0 1.72 0 2.45 0c0.25 0 0.74 0 0.74-0.25c0.24-0.49 0.24-0.98 0.24-1.22l1.96-13.97c0-0.25 0-0.74 0-0.98c0-0.49-0.49-0.73-0.73-0.73c-3.19-0.49-5.15 3.19-5.64 5.64l-1.47-0.24v0z" />
	<path fill-rule="evenodd" class="s23" d="m359.25 16.19l10.05 1.96l-0.25 1.47c-0.73 0-1.22-0.25-1.96 0c0 0-0.24 0-0.24 0.24c0 0.25 0.24 0.74 0.24 0.74l2.45 7.11l3.68-4.41c0.49-0.24 0.73-0.49 0.73-1.23c0.25-0.24 0-0.49 0-0.74c-0.49-0.98-1.47-0.98-2.2-1.22l0.24-1.47l8.09 1.47l-0.25 1.72c-2.2-0.25-3.43 0.73-4.66 2.21c-0.98 1.23-2.21 2.45-3.19 3.68c-0.73 0.73-1.23 1.47-1.96 2.21l-1.23 5.88c0 0.49 0 0.73 0 1.23c0 0 0.25 0 0.25 0.24c0.98 0.25 1.96 0.49 2.7 0.49l-0.25 1.72l-11.03-2.21l0.25-1.47c0.49 0 1.96 0.49 2.45 0.24c0.73 0 0.73-0.73 0.73-1.47l1.23-5.15l-3.68-9.56c-0.49-1.22-0.73-1.71-2.45-2.21l0.25-1.47v0z" />
	<path fill-rule="evenodd" class="s23" d="m395.04 54.43l-0.25-1.23c0.25 0 1.23-0.24 1.23-0.73c0-0.25 0-0.25 0-0.73l-2.94-10.54c0-0.24 0-0.24 0-0.49c-0.25 0-0.25-0.24-0.25-0.24h-0.24c-0.49 0-0.74 0-0.98 0.24l-0.49-1.23l6.13-1.47c0.98-0.24 2.21-0.24 3.19 0.49c0.74 0.25 1.23 1.23 1.47 1.96c0.49 2.7-0.73 3.68-2.2 4.41v0c1.71-0.25 3.68 0.24 4.66 2.94c0.25 1.23 0.25 2.21-0.24 3.19c-0.49 0.74-1.23 1.23-1.96 1.47c0 0-0.25 0-0.49 0.25c-0.49 0-1.23 0.24-1.72 0.24l-4.9 1.47v0z" />
	<path fill-rule="evenodd" class="s23" d="m408.04 35.31l1.23-0.24c0.73-0.24 1.71-0.24 2.45 0.24c0.73 0.49 1.47 1.47 1.71 2.45c0.49 2.7-0.73 4.17-2.21 4.66v0c1.22 0 2.21 0.98 2.94 2.45l0.49 1.47c0.25 0.25 0.49 0.74 0.74 1.23v0c0.98 0.25 0.49-1.23 0.49-1.96l0.74-0.25c0 0.49 0 0.98 0.24 1.23c0 1.72-0.73 2.94-1.96 3.19c-0.49 0-1.22 0-1.71-0.49c-0.49-0.49-0.98-1.47-1.23-2.21l-0.24-1.23c-0.49-1.72-0.74-2.94-2.21-2.7c-0.24 0-0.49 0-0.74 0l-0.49 0.25l1.23 4.66c0 0.24 0 0.49 0.24 0.74c0 0.49 0.25 0.49 0.49 0.49c0.24 0 0.49 0 0.73 0l0.49-0.24l0.25 1.23l-5.64 1.23l-0.25-1.23c0.25 0 0.49 0 0.74 0c0.73-0.24 0.49-0.49 0.49-1.47l-2.21-9.56c-0.24-0.24-0.49-1.47-0.49-1.72c-0.49-0.25-0.98 0-1.22 0l-0.49 0.25l-0.24-1.23l5.64-1.23v0z" />
	<path fill-rule="evenodd" class="s23" d="m418.82 46.34c-0.98-1.23-2.21-3.19-2.45-5.15c-0.49-1.96-0.49-4.17 0.25-5.88c0.73-1.72 2.21-2.7 3.43-2.94c1.47-0.25 2.94 0 4.41 1.47c1.23 1.23 2.21 2.94 2.7 5.15c0.24 1.96 0 4.41-0.74 5.88c-0.74 1.96-1.72 2.7-3.43 2.94c-1.23 0.24-2.94-0.25-4.17-1.47v0z" />
	<path fill-rule="evenodd" class="s23" d="m427.16 31.15l5.39-0.74l0.24 1.23c-0.49 0-0.98 0-1.22 0.49c-0.25 0.25 0 0.74 0 0.98l0.73 6.86c0.25 0.74 0.25 1.96 0.74 2.7c0.24 0.74 0.49 0.98 0.98 1.23c0.49 0.24 0.98 0.24 1.47 0.24c0.73 0 1.47-0.49 1.96-1.47c0.24-1.23 0.24-2.45 0-3.43l-0.74-5.64c0-0.98-0.24-1.96-0.98-2.45c-0.24 0-0.73 0-0.73 0l-0.49-0.98l4.41-0.49v0.98c-1.47 0.25-1.47 1.47-1.23 3.19l0.98 5.88c0 0.73 0 1.23 0 2.21c0 1.22-0.74 2.2-1.47 2.94c-0.49 0.73-1.47 0.98-2.21 0.98c-0.98 0.25-2.45 0-3.19-0.49c-1.23-0.98-1.71-2.21-1.96-3.92l-0.98-8.58c0-0.25-0.24-0.49-0.24-0.49c-0.49-0.25-1.23 0-1.47 0v-1.23h0z" />
	<path fill-rule="evenodd" class="s23" d="m450.69 29.67h0.49v5.88l-0.73 0.25c-0.49-2.45-0.74-4.41-2.7-5.15c0-0.24-0.24-0.24-0.49-0.24c-1.96 0-2.7 1.96-2.94 4.17c-0.24 0.98-0.24 1.96-0.24 2.94c-0.25 1.47 0 3.19 0.24 4.66c0.24 1.23 1.23 1.96 2.21 1.96c0.24 0 0.73 0 1.23-0.24c0.49-0.49 0.49-0.74 0.74-1.47c0.24-0.49 0.24-1.72 0.24-2.21c0-0.24 0-0.49 0-0.98c-0.24 0-0.49 0-0.73 0l-0.74-0.24v-0.98h5.15v1.23c-0.24 0-0.49 0-0.98 0c0 0 0 0 0 0.25c-0.25 0-0.25 0.49-0.25 0.73l-0.24 5.15h-0.74l-0.73-1.96c-0.74 1.23-1.96 1.96-3.43 1.96c-1.47 0-2.7-0.73-3.68-2.45c-0.98-1.71-1.47-3.43-1.22-5.64c0-2.45 0.73-4.66 2.21-6.37c0.74-0.74 1.47-1.23 2.45-1.47c0.49 0 0.74 0 1.23 0c0.24 0 0.49 0 0.98 0.25c0.73 0 0.98 0.24 1.47 0.73c0.24 0.24 0.24 0.24 0.49 0l0.73-0.73v0z" />
	<path fill-rule="evenodd" class="s23" d="m455.59 30.17l5.4 0.98l-0.25 1.23c-0.24 0-0.98-0.25-1.47 0c-0.24 0.25-0.24 0.74-0.24 0.98l-0.98 4.17l3.68 0.98l0.98-4.17c0.25-0.24 0.25-0.49 0.25-0.74c0-0.24 0-0.24 0-0.49c-0.25-0.24-1.23-0.49-1.47-0.49l0.24-0.98l5.64 0.98l-0.24 1.23l-1.23-0.25c-0.25 0-0.49 0.74-0.73 1.23l-1.96 9.56c0 0.25 0 0.98-0.24 1.23c0 0.24 0.24 0.49 0.24 0.49c0.49 0.24 0.74 0.24 1.23 0.49l-0.24 0.98l-5.4-0.98l0.25-1.23c0 0 0.73 0.25 0.98 0.25c0.49 0 0.49-1.23 0.73-1.71l0.74-4.17l-3.68-0.74l-0.98 4.41c-0.25 0.73-0.25 1.23 0.25 1.47c0 0 0.73 0.24 0.98 0.24l-0.25 1.23l-5.39-1.23v-1.23l0.98 0.24c0.25 0 0.49 0 0.49-0.24c0.25-0.49 0.25-0.74 0.49-0.98l1.96-10.05c0.24-0.49 0.24-0.98 0-1.23c-0.24-0.25-0.74-0.25-0.98-0.49l0.24-0.98v0z" />
	<path fill-rule="evenodd" class="s23" d="m467.36 38.74l1.96-5.39l9.07 2.94l-1.47 5.64l-0.74-0.25c0.49-1.96 0.74-4.9-0.98-5.39c-0.25 0-0.49 0-0.49 0.25c-0.24 0.25-0.24 0.73-0.49 0.98l-3.19 10.05c-0.25 0.73-0.49 0.98 0 1.23c0.49 0.24 0.73 0.24 0.98 0.49l-0.25 0.98l-5.64-1.96l0.49-0.98c0.49 0.25 0.74 0.25 1.23 0.25c0 0 0.25 0 0.25-0.25c0.24-0.24 0.24-0.49 0.49-0.73l3.19-10.05c0.25-0.25 0.25-0.49 0.25-0.73c0.24-0.25 0-0.49-0.25-0.49c-1.47-0.74-3.19 1.96-3.92 3.68l-0.49-0.25v0z" />
	<path fill-rule="evenodd" class="s23" d="m484.03 38.74l5.15 2.21l-0.49 0.98c-0.49 0-0.98-0.74-1.47-0.25c0 0.25-0.24 0.74-0.49 0.74l-2.7 6.62c-0.49 0.74-0.98 1.72-0.98 2.45c-0.25 0.73 0 1.23 0.24 1.72c0.25 0.49 0.49 0.74 0.98 0.98c0.74 0.25 1.72 0.25 2.7-0.49c0.73-0.74 1.22-1.71 1.71-2.94l2.21-4.9c0.49-0.98 0.98-1.96 0.24-2.7c0-0.24-0.24-0.24-0.49-0.24l0.49-0.98l3.68 1.47l-0.49 0.98c-1.23-0.49-1.96 0.49-2.7 1.96l-2.2 5.64c-0.49 0.73-0.74 1.22-1.23 1.71c-0.74 0.98-1.71 1.96-2.69 1.96c-0.98 0.24-1.72 0-2.45-0.49c-0.98-0.49-2.21-1.23-2.45-2.21c-0.49-1.47-0.25-2.7 0.49-4.17l3.68-7.84c0-0.25 0-0.49 0-0.74c-0.24-0.24-0.98-0.49-1.22-0.49l0.49-0.98v0z" />
	<path fill-rule="evenodd" class="s23" d="m491.88 52.72l0.49 0.24c-0.49 2.45-0.49 5.39 1.23 6.37c0.98 0.49 2.2 0.25 2.94-1.23c0.73-1.23 0.49-1.96-0.25-2.7l-0.98-0.73c-0.74-0.74-1.47-1.47-1.71-2.94c-0.25-0.98 0-2.21 0.49-3.68c1.47-2.7 3.92-3.43 5.88-2.21c0.73 0.25 1.23 0.98 1.47 2.21l1.23-0.74l0.74 0.25l-2.45 5.15l-0.74-0.25c0.49-2.45 0.49-4.9-1.22-5.88c-0.74-0.25-1.96-0.25-2.7 0.98c-0.74 1.47 0 2.21 0.73 2.94l0.49 0.49c1.47 1.72 2.94 3.43 1.23 6.62c-0.73 1.47-1.72 2.21-2.94 2.7c-0.98 0.49-1.96 0.24-2.7-0.24c-0.98-0.24-1.71-1.23-1.96-2.45l-1.47 0.49l-0.74-0.24l2.94-5.15v0z" />
	<path fill-rule="evenodd" class="s23" d="m508.3 51l4.9 2.7l-0.49 0.98c-0.24-0.25-0.98-0.74-1.47-0.49c-0.24 0.25-0.24 0.49-0.49 0.74l-2.21 3.92l3.43 1.96l2.21-3.68c0-0.25 0.24-0.49 0.24-0.74c0-0.25 0.25-0.25 0.25-0.49c-0.25-0.24-0.98-0.74-1.22-0.98l0.49-0.74l4.9 2.7l-0.49 0.74l-0.98-0.24c-0.49-0.24-0.73 0.49-0.98 0.98l-4.66 8.58c-0.25 0.24-0.49 0.74-0.73 0.98c0 0.24 0 0.49 0 0.49c0.49 0.25 0.73 0.49 0.98 0.73l-0.49 0.98l-4.9-2.7l0.49-0.98c0.25 0.25 0.74 0.49 0.98 0.49c0.49 0.24 0.98-0.74 1.23-1.23l2.2-3.92l-3.43-1.72l-2.45 3.92c-0.24 0.49-0.49 1.23-0.24 1.47c0.24 0 0.73 0.49 0.98 0.73l-0.49 0.74l-4.9-2.7l0.49-0.98l0.74 0.49c0.25 0.24 0.49 0.24 0.74 0c0.24-0.49 0.49-0.74 0.73-0.98l4.66-9.07c0.24-0.25 0.73-0.74 0.49-0.98c-0.25-0.49-0.74-0.49-0.98-0.98l0.49-0.74v0z" />
	<path fill-rule="evenodd" class="s23" d="m512.47 70.61l0.49-0.98c0.49 0.24 1.22 0.74 1.71 0.24c0-0.24 0.25-0.49 0.25-0.74l4.41-9.81c0.24 0 0.24-0.25 0.24-0.49c0-0.24 0-0.24 0-0.49c-0.24-0.24-0.73-0.49-0.98-0.49l0.25-0.98l9.07 4.17l-2.21 4.9l-0.73-0.25c0.73-2.94 0.49-4.66-1.47-5.64c-0.49 0-0.74-0.24-0.98-0.24c-0.24 0.24-0.49 0.24-0.49 0.49c-0.24 0.24-0.24 0.49-0.49 0.74l-1.71 3.68c1.23 0.73 2.45 0 3.19-1.72l0.98 0.25l-3.19 6.86l-0.74-0.49c0.74-1.71 0.74-3.19-0.73-3.68l-1.96 4.17c-0.24 0.74-0.49 0.98 0 1.47c0.25 0.25 0.49 0.25 0.74 0.49c2.21 0.98 3.43-0.24 5.15-2.45l0.73 0.24l-2.45 4.9l-9.07-4.17v0z" />
	<path fill-rule="evenodd" class="s23" d="m534.04 63.26l0.98 0.49c0.74 0.24 1.47 0.73 2.21 1.47c0.24 0.98 0.24 2.21 0 3.19c-0.98 2.45-2.7 2.94-4.41 2.45v0.24c0.98 0.74 1.47 1.96 0.98 3.68v1.47c-0.25 0.24-0.49 0.74-0.49 1.23c0 0 0 0.25 0.24 0.25c0.49 0.73 1.23-0.98 1.47-1.47l0.74 0.24c-0.25 0.25-0.49 0.74-0.49 0.98c-0.98 1.72-2.21 2.21-3.19 1.72c-0.73-0.24-0.98-0.73-1.22-1.47c-0.25-0.74 0-1.47 0.24-2.45l0.25-1.23c0.49-1.72 0.73-2.94-0.49-3.43c0 0-0.25 0-0.49-0.24h-0.49l-1.72 4.41c0 0.24 0 0.49 0 0.73c-0.24 0.49-0.24 0.73 0 0.73c0.24 0.24 0.49 0.24 0.74 0.24l0.49 0.25l-0.49 0.98l-5.39-1.96l0.49-0.98c0.25 0 0.49 0.24 0.74 0.24c0.49 0.25 0.73-0.24 0.98-0.98l3.19-9.31c0.24-0.25 0.73-1.23 0.49-1.47c0-0.49-0.49-0.49-0.74-0.49l-0.49-0.25l0.49-1.23l5.39 1.96v0z" />
	<path fill-rule="evenodd" class="s23" d="m536.74 80.42l0.25-1.23c0.49 0 1.47 0.49 1.47-0.24c0.25-0.24 0.25-0.49 0.25-0.74l1.23-10.79c0 0 0-0.25 0-0.49c0-0.24 0-0.24-0.25-0.24c-0.24-0.25-0.74-0.25-1.23-0.25l0.25-1.23l9.81 1.23l-0.49 5.39h-0.98c-0.24-3.19-0.73-4.66-2.94-4.9c-0.49 0-0.98 0-1.23 0.24c0 0-0.24 0-0.24 0.25c-0.24 0.25-0.24 0.74-0.24 0.98l-0.49 4.17c1.47 0.24 2.45-0.98 2.7-2.7h0.74l-0.74 7.35h-0.73c0.24-2.21-0.49-3.43-1.96-3.68l-0.49 4.66c-0.24 0.98-0.24 1.47 0.49 1.72c0.25 0 0.49 0 0.74 0c2.21 0.24 3.19-1.23 4.17-4.17l0.73 0.25l-0.73 5.64l-10.05-1.23v0z" />
	<path fill-rule="evenodd" class="s23" d="m55.75 72.33l-0.73-5.39l12.99-2.7l1.47 5.64l-0.98 0.24c-0.73-1.96-1.96-4.66-4.41-3.92c0 0-0.49 0-0.49 0.49c0 0.24 0.25 0.49 0.25 0.73l1.96 10.54c0 0.74 0.25 0.98 0.98 0.98c0.49-0.24 0.98-0.24 1.47-0.24l0.24 0.98l-7.84 1.72l-0.25-1.23c0.49 0 0.98-0.24 1.47-0.49c0.25 0 0.49-0.25 0.49-0.49c0-0.24 0-0.49-0.24-0.73l-1.96-10.3c0-0.24 0-0.74 0-0.98c-0.24-0.24-0.49-0.24-0.98-0.24c-2.21 0.49-2.45 3.43-2.45 5.39h-0.98v0z" />
	<path fill-rule="evenodd" class="s23" d="m68.26 64l6.86-2.94l0.49 0.98c-0.25 0-1.23 0.74-1.47 0.98c0 0.49 0 0.74 0.24 0.98l1.47 3.92l5.15-1.96l-1.72-3.92c-0.25-0.24-0.25-0.49-0.25-0.73c-0.24 0-0.24-0.24-0.49-0.24c-0.24-0.24-1.47 0.24-1.72 0.49l-0.25-0.98l6.86-3.19l0.49 1.23l-1.47 0.73c-0.49 0.25 0 0.98 0 1.23l3.92 9.07c0.25 0.49 0.49 0.74 0.74 1.23c0 0.24 0.24 0.24 0.49 0.24c0.49-0.24 0.98-0.24 1.47-0.49l0.49 0.98l-7.11 2.94l-0.49-0.98c0.24 0 0.98-0.49 1.47-0.74c0.49-0.49 0-1.23-0.25-1.72l-1.71-3.92l-4.9 2.21l1.72 4.17c0.24 0.49 0.49 1.23 1.23 0.98c0.25 0 1.23-0.49 1.23-0.49l0.49 0.98l-7.11 3.19l-0.24-0.98l0.98-0.74c0.24 0 0.73-0.24 0.49-0.74c0-0.24-0.24-0.49-0.24-0.98l-4.17-9.32c0-0.49-0.25-0.98-0.74-0.98c-0.49 0-1.23 0.49-1.72 0.49l-0.25-0.98v0z" />
	<path fill-rule="evenodd" class="s23" d="m91.3 70.61l-0.49-0.98c0.24-0.24 1.71-0.74 1.47-1.47c0-0.24-0.24-0.49-0.49-0.74l-5.15-9.56l-0.25-0.25c-0.24-0.24-0.24-0.24-0.49-0.24c-0.49 0.24-0.98 0.49-1.47 0.74l-0.49-0.98l11.77-6.62l2.7 4.9l-0.74 0.49c-2.45-2.21-3.92-2.94-6.62-1.47c-0.49 0.25-0.98 0.49-1.23 0.98c-0.25 0.25-0.25 0.25-0.25 0.49c0.25 0.49 0.25 0.74 0.73 0.98l1.72 3.43c1.96-0.73 2.2-2.21 1.22-4.17l0.98-0.24l3.68 6.13l-0.74 0.74c-1.23-1.96-2.7-2.45-4.66-1.47l2.45 4.17c0.49 0.73 0.49 1.23 1.47 0.73c0.25 0 0.74-0.24 0.98-0.24c2.7-1.72 3.19-3.43 2.21-6.62l0.98-0.49l2.45 5.15l-11.76 6.62v0z" />
	<path fill-rule="evenodd" class="s23" d="m109.44 60.07l-0.49-0.98c0.49 0 0.98-0.49 1.47-0.73c0.49-0.24 0.25-0.73-0.25-1.22l-4.41-9.07c-0.74-1.47-0.74-1.47-2.21-0.74l-0.49 0.25l-0.49-0.98l7.11-3.68l0.49 0.98l-1.22 0.49c-0.74 0.49-0.74 0.98-0.25 1.72l4.66 9.07c0.49 0.74 0.74 1.23 1.47 0.98c0.49-0.24 0.73-0.24 1.23-0.49c2.7-1.47 2.94-3.43 2.21-6.37l0.98-0.49l2.21 5.15l-12.01 6.13v0z" />
	<path fill-rule="evenodd" class="s23" d="m123.66 50.76c-1.72-0.74-3.19-2.45-3.92-4.41c-0.98-1.96-0.98-4.17-0.25-6.13c0.73-1.72 2.45-3.43 4.17-4.17c1.96-0.73 3.68-0.73 5.88 0.25c1.96 0.74 3.43 2.45 4.17 4.17c0.73 1.96 0.98 4.41 0 6.37c-0.74 2.21-2.21 3.19-4.17 4.17c-1.72 0.74-3.92 0.74-5.88-0.24v0z" />
	<path fill-rule="evenodd" class="s23" d="m132.73 32.86l7.11-1.96l0.24 1.22c-0.49 0.25-1.47 0.25-1.47 0.74c0 0.24 0 0.49 0.25 0.73l5.39 7.6l0.98-8.33c0-0.25 0-0.49-0.24-0.74c-0.24-0.98-1.47-0.98-2.21-0.73l-0.25-1.22l5.64-1.23l0.49 0.98c-1.72 0.49-1.96 2.21-2.21 3.43l-1.47 12.5l-1.72 0.25l-7.84-11.03c-0.49-0.74-0.73-1.47-1.71-1.47c-0.25 0.25-0.49 0.25-0.74 0.25l-0.25-0.98v0z" />
	<path fill-rule="evenodd" class="s23" d="m150.87 43.89v-1.23c0.49 0 1.96 0.49 2.21-0.24c0-0.25 0-0.49 0-0.98l0.49-10.79c0 0 0-0.24 0-0.49c0-0.25-0.25-0.25-0.49-0.25c-0.49-0.24-0.98-0.24-1.71-0.24v-0.98l13.73 0.49l-0.24 5.39h-0.98c-0.49-3.19-1.47-4.41-4.66-4.66c-0.49 0-1.23 0-1.72 0.25l-0.24 0.24c-0.25 0.49 0 0.74-0.25 1.23v3.92c1.96 0.25 2.94-0.98 3.19-2.7h0.98v7.35h-1.23c0-2.21-0.98-3.43-2.94-3.43l-0.24 4.66c0 0.98 0 1.47 0.73 1.47c0.49 0 0.98 0.24 1.23 0.24c3.19 0 4.41-1.47 5.39-4.41h0.98l-0.49 5.64l-13.73-0.49v0z" />
	<path fill-rule="evenodd" class="s23" d="m174.16 43.89c-0.73-1.72-1.23-3.92-0.73-5.88c0.25-1.96 1.47-3.92 3.43-5.15c1.47-0.98 3.68-1.47 5.64-0.98c1.96 0.24 3.68 1.23 4.66 3.19c1.23 1.72 1.47 3.92 0.98 5.88c-0.24 2.2-1.72 4.17-3.43 5.39c-1.72 1.23-3.68 1.23-5.64 0.98c-1.96-0.49-3.68-1.47-4.9-3.43v0z" />
	<path fill-rule="evenodd" class="s23" d="m187.65 48.8l0.49-0.98l1.23 0.24c0 0 0.25 0 0.49 0h0.24v-0.24c0.25-0.25 0.25-0.49 0.49-0.98l2.45-10.05c0.25-0.49 0.25-0.74 0-0.98c-0.24-0.25-0.98-0.49-1.22-0.49l-0.49-0.24l0.25-0.98l12.99 3.19l-1.23 5.64l-1.23-0.24c0.25-2.94-0.49-4.9-3.43-5.64c-0.49 0-1.23-0.24-1.72 0c-0.25 0-0.25 0.49-0.49 0.74l-0.98 4.41c1.96 0.49 2.7-0.24 3.92-2.21l0.73 0.24l-1.72 7.11l-0.98-0.24c0-0.49 0-0.98 0-1.47c-0.24-1.47-0.74-1.96-2.21-2.45h-0.25l-0.98 4.66c-0.24 0.98-0.49 1.23 0.74 1.72l1.23 0.25l-0.49 0.98l-7.84-1.96v0z" />
	<path fill-rule="evenodd" class="s22" d="m299.92 592.54c-5.88-0.74-14.47-1.96-14.47-1.96l-0.49 6.13c0 0-7.6 5.39-16.67 0.49c-14.95-7.6-58.83-29.66-76.24-31.62c-16.67-2.21-52.22 0.73-76.98-8.09c-17.65-6.13-31.87-19.37-37.26-25.99c-8.33-10.54-2.94-14.22-2.94-14.22c-14.95-14.22-15.93-33.83-15.93-33.83c0.24-4.17 2.94-4.17 2.94-4.17c-12.26-12.75-10.54-35.3-10.54-35.3c0.24-3.92 3.68-3.43 3.68-3.43c-26.72-28.68-23.53-59.08-23.53-59.08c0 0 31.38 31.62 43.39 37.75c14.95 8.09 9.31 13.48 7.35 14.22l-7.35 7.84c0 0 3.92 12.99 10.54 20.84c6.13 7.6 2.94 10.79 2.94 10.79l-3.43 2.94c0 0 4.41 10.79 8.82 15.45c8.09 8.33 8.58 11.03 6.62 13.24c-1.47 1.72-4.41 3.19-4.41 3.19c0 0 20.35 23.78 50.01 22.31c19.86-0.74 50.25 2.2 70.11 8.82c20.59 7.11 42.9 26.72 59.08 27.46v-5.39c0 0 17.65 3.19 24.76 3.19c7.11 0 24.76-3.19 24.76-3.19v5.39c16.43-0.73 38.49-20.35 59.08-27.46c19.86-6.62 50.26-9.56 70.11-8.82c29.66 1.47 50.01-22.31 50.01-22.31c0 0-2.94-1.47-4.41-3.19c-1.96-2.2-1.23-4.9 6.62-13.24c4.66-4.66 8.83-15.45 8.83-15.45l-3.43-2.94c0 0-3.19-3.19 2.94-10.79c6.62-7.84 10.54-20.84 10.54-20.84l-7.36-7.84c-1.72-0.74-7.6-6.13 7.36-14.22c12.01-6.13 43.39-37.75 43.39-37.75c0 0 3.19 30.4-23.29 59.08c0 0 3.19-0.49 3.43 3.43c0 0 1.72 22.55-10.54 35.3c0 0 2.7 0 2.94 4.17c0 0-0.74 19.61-15.93 33.83c0 0 5.39 3.68-2.94 14.22c-5.39 6.62-19.61 19.86-37.26 25.99c-24.76 8.82-60.31 5.88-76.98 8.09c-17.41 1.96-61.29 24.02-76 31.62c-9.32 4.9-16.92-0.49-16.92-0.49l-0.49-6.13c0 0-8.58 2.21-14.46 1.96v0z" />
	<path class="s2" d="m84.19 431.23c-0.98 1.47-1.96 0.49-4.17 0c-2.21-0.49-4.9-2.7-6.86-0.98m16.18 40.2c-0.24 0.74-0.98 2.45-3.68 0c-0.73-0.73-1.47-2.94-2.7-2.45m-21.08 11.28l21.08-11.28c0 0-0.98 2.45 1.96 7.84m16.42 26.97c0 0.25-0.98 1.72-3.92 1.47c-2.45 0-3.68-1.23-4.9-0.24m-17.65 13.24l17.65-13.24c0 0-0.24-1.23 3.43 3.68m179.45 80.65c1.23 1.23 2.21 2.45 5.39 3.92c2.94 1.23 4.9 1.72 4.17 4.41m0.49-6.13c-4.66-0.24-10.05-2.2-10.05-2.2l-0.25-22.06m-220.14-125.76l18.14-10.3c0 0-1.47 5.39 1.71 11.03m451.81-11.03c-1.96-1.72-4.66 0.49-6.86 0.98c-2.21 0.49-3.19 1.47-3.92 0m0.98 36.77c-0.98-0.49-1.96 1.72-2.7 2.45c-2.7 2.45-3.43 0.74-3.68 0m4.41 5.39c2.94-5.39 1.96-7.84 1.96-7.84l21.08 11.28m-30.64 24.76c-0.98-0.98-2.45 0.24-4.66 0.24c-3.19 0.25-3.92-1.23-4.17-1.47m5.39 4.91c3.68-4.9 3.43-3.68 3.43-3.68l17.65 13.24m-210.09 79.43c-0.74-2.7 1.23-3.19 4.17-4.41c3.19-1.47 4.41-2.7 5.39-3.92m0.25-22.06l-0.25 22.06c0 0-5.39 1.96-10.05 2.2m210.58-149.3c3.19-5.64 1.71-11.03 1.71-11.03l18.39 10.3" />
	<path fill-rule="evenodd" class="s23" d="m116.06 529.29l1.96 0.98c1.23 0.98 2.21 1.96 3.19 3.43c0.49 1.47 0.25 3.19-0.49 4.41c-1.71 2.69-4.9 2.2-7.6 0.98v0c1.72 1.47 1.96 3.43 1.23 5.64l-0.73 1.72c-0.25 0.49-0.25 0.98-0.49 1.72c0 0.24 0 0.24 0 0.49c0.98 1.23 2.45-0.49 2.94-1.47l0.98 0.98c-0.24 0.49-0.49 0.73-0.98 1.22c-1.47 1.72-3.68 1.47-5.39 0.25c-1.23-0.74-1.96-1.47-2.21-2.7c0-1.23 0.25-2.21 0.73-3.19l0.74-1.23c1.23-2.21 1.96-3.68-0.24-5.15c-0.25-0.24-0.49-0.49-0.98-0.73l-0.49-0.49l-3.43 5.39c-0.25 0.24-0.49 0.49-0.49 0.73c-0.24 0.49-0.24 0.74 0.25 1.23c0.25 0.24 0.74 0.49 1.23 0.74l0.49 0.49l-0.73 1.23l-9.07-5.88l0.74-1.23c0.49 0.24 0.98 0.49 1.23 0.74c1.23 0.73 1.47 0.24 2.21-0.49l6.86-10.79c0.24-0.24 0.98-1.47 0.98-1.96c-0.24-0.73-0.73-0.98-1.47-1.23l-0.74-0.49l0.74-1.22l9.07 5.88v0z" />
	<path fill-rule="evenodd" class="s23" d="m119.74 553.31l0.49-1.47c0.74 0 2.45 0.98 2.7 0c0.24-0.25 0.24-0.73 0.49-0.98l2.94-13.73c0-0.25 0-0.49 0-0.49c0-0.25 0-0.49-0.25-0.74c-0.73-0.24-1.47-0.24-2.45-0.49l0.49-1.47l17.9 4.17l-1.23 6.86l-1.47-0.25c-0.25-4.17-1.23-6.13-5.39-7.11c-0.74-0.24-1.47-0.24-1.96-0.24c-0.24 0-0.49 0.24-0.49 0.49c-0.25 0.49-0.49 0.98-0.73 1.47l-0.98 4.9c2.7 0.98 4.17-0.49 5.15-2.7l1.22 0.24l-1.96 9.32l-1.47-0.49c0.49-2.45-0.49-4.41-3.19-4.9l-1.23 5.88c-0.24 1.23-0.49 1.72 0.73 1.96c0.49 0.24 0.98 0.49 1.23 0.49c4.41 0.98 6.37-0.49 8.33-4.17l1.23 0.49l-1.72 6.86l-18.39-3.92v0z" />
	<path fill-rule="evenodd" class="s23" d="m142.54 557.48l0.25-1.47c0.49 0 0.98 0.24 1.47 0.24c1.23 0 1.47-0.73 1.47-1.71l0.73-14.46l-0.25-0.25c0-0.24-0.24-0.24-0.24-0.24c-0.74-0.25-1.72-0.25-2.45-0.25v-1.47l11.28 0.49c0.49 0 0.98 0 1.22 0.25c1.96 0 3.43 0.24 4.9 1.47c1.47 1.22 1.96 2.69 1.96 4.41c-0.24 4.9-5.64 5.39-9.32 5.15l-2.94-0.25l-0.25 5.64c0 0.24 0 0.73 0.25 0.98c0 0.24 0.24 0.24 0.24 0.24c0.25 0.25 0.25 0.25 0.49 0.25c0.49 0 0.73 0 1.23 0h0.73v1.47l-10.79-0.49v0z" />
	<path fill-rule="evenodd" class="s23" d="m164.36 538.85l10.3 0.74v1.22c-0.74 0-1.96-0.25-2.45 0.49c-0.49 0.25-0.49 0.74-0.49 1.23l-0.49 9.07c-0.24 0.98-0.24 2.45 0 3.68c0.49 0.98 0.98 1.23 1.96 1.72c0.74 0.49 1.47 0.49 2.45 0.73c1.47 0 2.94-0.49 4.17-1.47c0.98-1.23 0.98-2.94 0.98-4.41l0.49-6.86c0-1.47 0.25-2.94-1.23-3.43c-0.49-0.25-0.98-0.25-1.47-0.25v-1.71l7.84 0.49v1.71c-2.7-0.24-3.19 1.23-3.43 3.43l-0.24 7.85c-0.24 0.73-0.24 1.47-0.74 2.45c-0.49 1.71-1.71 2.94-3.43 3.68c-1.23 0.49-2.94 0.49-4.66 0.49c-1.72-0.24-4.17-0.49-5.64-1.96c-1.72-1.23-2.21-3.19-1.96-5.15l0.49-11.03c0.24-0.49 0-0.74-0.24-0.98c-0.49-0.24-1.96-0.24-2.45-0.24l0.25-1.47v0z" />
	<path fill-rule="evenodd" class="s23" d="m185.44 559.2l0.25-1.47c0.49 0 2.45 0.74 2.7-0.24c0.25-0.25 0.25-0.25 0.25-0.74l2.45-13.73c0-0.25 0.25-0.49 0-0.74v-0.24c-0.24-0.25-0.24-0.25-0.49-0.25c-0.49-0.24-1.23-0.49-1.96-0.49l0.24-1.47l11.52 1.96c1.72 0.25 3.92 0.98 5.15 2.45c0.73 0.98 1.23 2.2 0.98 3.43c-0.74 3.19-3.68 3.43-6.37 3.43v0c2.7 0.98 6.13 2.94 5.64 6.37c-0.49 1.47-1.23 2.7-2.7 3.43c-1.23 0.73-2.45 0.73-3.92 0.73c-0.49-0.24-0.98-0.24-1.23-0.49c-0.98 0-1.96-0.25-2.94-0.25l-9.56-1.72v0z" />
	<path fill-rule="evenodd" class="s23" d="m205.3 563.37l0.49-1.23c0.74 0.25 1.47 0.49 2.21 0.74c0.49 0.25 0.73-0.49 0.98-0.98l5.15-12.01c0.74-2.21 0.98-2.21-0.98-3.19l-0.98-0.25l0.73-1.23l9.81 4.17l-0.49 1.22l-1.47-0.73c-1.23-0.24-1.47 0-1.96 0.98l-5.15 12.5c-0.24 0.98-0.49 1.47 0.49 2.21c0.49 0.24 0.98 0.49 1.47 0.73c3.92 1.47 6.37 0 8.58-2.94l1.23 0.49l-3.19 6.62l-16.92-7.11v0z" />
	<path fill-rule="evenodd" class="s23" d="m223.68 571.21l0.49-1.23l1.47 0.73c1.23 0.25 1.47-0.25 1.96-1.22l5.39-12.26c0.25-0.24 0.25-0.49 0.49-0.73c0-0.25 0.24-0.49-0.25-0.74c-0.49-0.24-0.73-0.49-1.23-0.73l-0.73-0.49l0.49-1.23l9.81 4.41l-0.74 1.47l-0.73-0.49c-0.49-0.24-1.23-0.73-1.72-0.24c-0.25 0-0.25 0.24-0.49 0.24c-0.24 0.25-0.24 0.49-0.49 0.74l-5.64 12.5c-0.24 0.49-0.49 0.98 0 1.22c0 0.25 0.24 0.25 0.24 0.25c0.25 0.24 0.74 0.49 1.23 0.73l0.49 0.25l-0.74 1.23l-9.32-4.41v0z" />
	<path fill-rule="evenodd" class="s23" d="m258.74 565.57l0.98 0.49l-3.19 7.11l-1.23-0.24c0.49-3.19 0.49-7.35-2.7-8.82c-1.47-0.74-2.7-0.74-4.17 0c-1.23 0.73-1.96 1.71-2.94 2.94c-0.49 0.73-0.98 1.96-1.47 2.94c-0.74 1.23-1.23 2.69-1.47 3.92c-0.25 1.47-0.25 2.45 0.24 3.68c0.49 1.23 1.23 1.96 2.45 2.45c3.19 1.47 6.13 0 8.09-2.7l1.23 0.98c-2.94 4.17-6.37 4.9-11.03 2.7c-2.7-1.23-4.41-2.94-5.15-5.64c-0.98-2.45-0.49-5.15 0.49-7.6c1.47-2.45 3.43-4.66 6.13-5.64c2.45-0.98 5.15-0.73 7.6 0.49c1.71 0.74 2.7 1.47 3.92 3.19c0 0.24 0 0.24 0 0.49l2.21-0.73v0z" />
	<path fill-rule="evenodd" class="s23" d="m353.12 581.02l-0.73-1.23c0.73-0.25 1.47-0.73 1.96-0.98c0.73-0.49 0.24-1.23 0-1.47l-5.15-12.01c-0.73-2.21-0.73-2.21-2.7-1.47l-0.74 0.25l-0.49-1.23l9.81-4.17l0.49 1.23l-1.47 0.73c-0.98 0.49-0.98 0.98-0.49 1.96l5.15 12.26c0.49 0.98 0.49 1.72 1.96 1.23c0.49-0.24 0.98-0.24 1.47-0.49c3.68-1.71 4.41-4.41 3.68-8.09l1.47-0.73l2.45 7.11l-16.67 7.11v0z" />
	<path fill-rule="evenodd" class="s23" d="m371.51 572.93l-0.73-1.23l1.71-0.73c0.98-0.74 0.49-1.23 0.25-2.21l-5.39-12.01c0-0.49-0.25-0.73-0.25-0.98c-0.24-0.24-0.49-0.24-0.98-0.24c-0.49 0-0.73 0.24-1.23 0.49l-0.73 0.24l-0.74-1.23l9.81-4.41l0.73 1.47l-0.98 0.24c-0.49 0.24-1.22 0.49-1.47 0.98c0 0.25 0 0.49 0 0.49c0 0.25 0.25 0.74 0.25 0.98l5.64 12.5c0.25 0.49 0.49 0.98 0.98 0.98l0.25-0.24c0.49 0 0.98-0.25 1.23-0.49l0.74-0.24l0.49 1.47l-9.56 4.17v0z" />
	<path fill-rule="evenodd" class="s23" d="m382.05 568.02l-0.49-1.23c0.49-0.24 2.45-0.74 2.45-1.47c0-0.49 0-0.49-0.25-0.98l-4.9-13.24c0-0.25-0.24-0.49-0.24-0.49c-0.25-0.24-0.25-0.24-0.25-0.24c-0.24 0-0.49 0-0.49 0c-0.74 0-1.47 0.24-2.21 0.49l-0.49-1.22l11.03-4.17c1.71-0.49 3.92-0.98 5.64-0.49c1.23 0.49 2.21 1.47 2.7 2.45c1.23 3.19-1.47 5.15-3.68 6.37v0c2.7-0.49 6.62-0.73 7.84 2.7c0.49 1.23 0.49 2.94-0.49 4.17c-0.74 1.23-1.96 1.96-3.19 2.45c-0.25 0.24-0.73 0.49-1.23 0.49c-0.98 0.49-1.71 0.74-2.7 1.23l-9.07 3.19v0z" />
	<path fill-rule="evenodd" class="s23" d="m401.17 560.91l-0.25-1.23c0.74-0.24 2.45-0.24 2.7-1.23c0-0.49 0-0.74-0.25-0.98l-1.96-13.97c0 0 0-0.25 0-0.49c-0.24-0.25-0.24-0.25-0.73-0.25c-0.74-0.24-1.47 0-2.21 0l-0.24-1.22l18.14-2.7l1.47 6.86l-1.47 0.25c-1.72-3.68-3.43-5.4-7.6-4.66c-0.73 0.25-1.47 0.25-1.96 0.74c-0.24 0-0.49 0.24-0.49 0.49c0 0.49 0 0.98 0 1.47l0.73 5.15c2.94-0.24 3.92-1.96 3.92-4.41l1.23-0.49l1.47 9.56l-1.23 0.25c-0.49-2.7-2.45-4.17-4.9-3.68l0.73 6.13c0.25 0.98 0.25 1.71 1.47 1.47c0.49 0 1.23 0 1.72 0c4.17-0.74 5.39-2.7 5.88-6.86h1.47l0.74 7.11l-18.39 2.7v0z" />
	<path fill-rule="evenodd" class="s23" d="m431.32 538.12h1.96c1.72-0.25 3.19 0 4.66 0.73c1.23 0.74 1.96 2.45 1.96 3.68c0.25 3.43-2.7 4.9-5.64 5.15v0c2.45 0.49 3.68 1.72 4.41 4.17l0.49 1.47c0 0.74 0.24 1.23 0.49 1.96l0.24 0.25c1.47 0.49 1.47-1.72 1.47-2.7h1.47c0 0.49 0 0.98 0 1.47c-0.49 2.45-2.45 3.43-4.41 3.43c-1.47 0.25-2.45-0.24-3.19-0.98c-0.98-0.73-1.23-1.71-1.23-2.94l-0.25-1.47c-0.24-2.45-0.49-3.92-3.19-3.92c-0.25 0-0.74 0-0.98 0h-0.98l0.24 6.13c0 0.49 0 0.73 0 0.98c0.25 0.49 0.49 0.73 0.98 0.73c0.49 0 0.98 0 1.47 0h0.74v1.47l-10.79 0.25v-1.23c0.49 0 0.98 0 1.47-0.24c1.23 0 1.23-0.49 1.23-1.47l-0.49-12.75c0-0.49 0-1.96-0.25-2.2c-0.49-0.49-1.23-0.25-1.71-0.25h-0.98v-1.47l10.79-0.24v0z" />
	<path fill-rule="evenodd" class="s23" d="m443.58 557.48v-1.47h1.96c0.98 0 0.98-0.74 0.98-1.96l-0.25-13.24c0-0.25 0-0.49 0-0.73c-0.24-0.49-0.24-0.74-0.49-0.74c-0.49-0.25-1.23 0-1.71 0h-0.74v-1.47l10.54-0.25v1.47h-0.74c-0.49 0-1.23 0-1.96 0.25c0 0.25 0 0.49 0 0.49c-0.24 0.49-0.24 0.73-0.24 0.98l0.49 13.73c0 0.49 0 1.23 0.49 1.23c0.25 0 0.25 0 0.49 0c0.24 0.25 0.73 0.25 1.23 0.25h0.73v1.22l-10.79 0.24v0z" />
	<path fill-rule="evenodd" class="s23" d="m462.95 535.67l1.96-0.49l10.05 14.95c0.98 1.47 1.47 1.72 3.19 1.47l0.25 1.47l-9.31 1.96l-0.49-1.47c0.74-0.25 1.72-0.25 1.96-0.74c0.24-0.49 0-0.73-0.25-1.23l-1.96-2.7l-6.86 1.23c0 0.98-0.25 1.96-0.25 2.94c0.49 1.47 1.96 1.47 3.19 1.23l0.24 1.47l-7.6 1.47l-0.25-1.22c1.96-0.74 2.45-3.19 2.94-5.15l3.19-15.2v0z" />
	<path fill-rule="evenodd" class="s23" d="m288.16 583.22c-1.47-1.71-2.21-3.68-2.21-5.64c0.25-2.21 0.98-4.17 2.7-5.64c1.47-1.47 3.68-2.21 5.64-2.21c2.21 0.25 4.17 0.98 5.64 2.7c1.47 1.47 2.21 3.68 2.21 5.64c-0.25 2.21-1.23 4.41-2.7 5.64c-1.96 1.47-3.68 2.21-5.88 1.96c-2.21 0-4.17-0.98-5.39-2.45v0z" />
	<path fill-rule="evenodd" class="s23" d="m303.85 585.67v-1.23l1.23-0.25c0.24 0 0.49 0 0.73 0v-0.24c0.24 0 0.24 0 0.24-0.25c0-0.25 0-0.49 0-0.98l-0.73-10.3c0-0.49 0-0.98-0.49-1.23c-0.49 0-0.74 0-1.22 0h-0.49v-0.98l13.73-0.73l0.49 5.39h-0.98c-0.74-2.7-2.21-4.17-5.39-3.92c-0.49 0-1.23 0-1.72 0.25c-0.24 0.24 0 0.73 0 1.23l0.25 4.17c2.21 0 2.7-0.98 3.19-2.94l0.98-0.24l0.49 7.35h-1.23c0-0.49 0-0.98-0.25-1.47c-0.98-1.23-1.71-1.72-2.94-1.47h-0.24l0.24 4.66c0 1.23 0 1.47 1.23 1.47h1.47v0.98l-8.58 0.74v0z" />
	<path fill-rule="evenodd" class="s7" d="m123.66 44.87c-0.98-2.21-2.21-5.88 0.74-7.11c2.45-1.23 4.41 2.45 5.15 4.66c0.49 0.49 0.73 1.23 0.73 1.96c0.49 1.72 0.98 3.92-0.98 4.9c-1.23 0.49-2.45 0.25-3.43-0.73c-0.74-0.98-1.72-2.45-2.21-3.68v0z" />
	<path fill-rule="evenodd" class="s7" d="m177.59 38.99c0.25-2.21 1.47-6.13 4.41-5.64c2.94 0.73 2.45 4.66 1.96 6.86c-0.24 0.74-0.24 1.47-0.49 2.21c-0.74 1.47-1.72 3.92-3.68 3.43c-1.47-0.24-2.21-1.23-2.45-2.45c-0.25-1.23 0-3.19 0.25-4.41v0z" />
	<path fill-rule="evenodd" class="s7" d="m268.79 21.34l-0.25-4.9c0-0.49-0.24-0.98 0-1.47c0.25-0.74 1.47-0.74 1.96-0.74c0.98-0.25 1.72 0 2.45 0.49c0.74 0.49 1.23 1.47 1.23 2.45c0 1.47-0.25 2.7-1.47 3.43c-0.98 0.73-2.7 0.49-3.92 0.73v0z" />
	<path fill-rule="evenodd" class="s7" d="m269.03 23.55l1.96-0.25c0.98 0 2.21 0 2.94 0.49c0.98 0.98 1.47 1.96 1.71 3.19c0 0.98-0.24 2.21-1.22 2.94c-0.98 0.74-2.21 0.74-3.43 0.98c-0.25 0-1.23 0-1.47-0.25c-0.24-0.24-0.24-0.74-0.24-1.23l-0.25-5.88v0z" />
	<path fill-rule="evenodd" class="s7" d="m317.82 20.36l0.49-5.15c0-0.49 0-1.23 0.73-1.47c0.49-0.24 0.98-0.24 1.72-0.24c2.45 0.24 3.43 1.23 3.43 3.43c-0.24 2.94-1.71 3.68-4.17 3.43c-0.73 0-1.23 0-2.2 0v0z" />
	<path fill-rule="evenodd" class="s7" d="m397 44.87l-0.73-3.68c-0.25-0.24-0.25-0.74-0.25-1.23c0-0.24 0.49-0.49 0.74-0.49c0.74 0 1.23-0.24 1.47 0.25c0.49 0.24 0.98 0.98 0.98 1.47c0.24 1.23 0.24 2.21-0.25 2.7c-0.49 0.73-1.22 0.73-1.96 0.98v0z" />
	<path fill-rule="evenodd" class="s7" d="m397.25 46.59l1.23-0.25c0.24-0.24 0.98-0.24 1.47 0c0.49 0.49 0.98 1.23 1.23 1.96c0.24 0.98 0.24 1.72 0 2.45c-0.25 0.49-1.23 0.73-1.72 0.98c-0.24 0-0.49 0-0.74-0.25c-0.24 0-0.24-0.49-0.24-0.73l-1.23-4.17v0z" />
	<path fill-rule="evenodd" class="s7" d="m408.28 41.93l-0.73-3.92c-0.25-0.24-0.49-0.74 0-0.98c0.25-0.24 0.49-0.49 0.73-0.49c1.23-0.25 1.96 0.25 2.45 1.96c0.49 1.96-0.24 2.7-1.47 3.19c-0.25 0.25-0.49 0.25-0.98 0.25v0z" />
	<path fill-rule="evenodd" class="s7" d="m419.31 40.71c-0.49-2.21-0.98-6.37 1.22-6.86c1.96-0.25 2.94 3.43 3.43 5.88c0.24 0.49 0.24 1.23 0.24 2.21c0.25 1.72 0.49 3.92-1.22 4.41c-0.73 0-1.72-0.49-2.45-1.72c-0.49-0.98-0.98-2.7-1.22-3.92v0z" />
	<path fill-rule="evenodd" class="s7" d="m530.61 68.9l1.23-3.68c0.24-0.24 0.49-0.74 0.73-0.98c0.25 0 0.49 0.25 0.98 0.25c1.23 0.49 1.47 1.23 0.98 2.94c-0.73 1.96-1.71 2.45-2.94 1.96c-0.24 0-0.73 0-0.98-0.49v0z" />
	<path fill-rule="evenodd" class="s7" d="m109.2 534.93l2.94-4.41c0.25-0.25 0.49-0.74 0.98-0.74c0.73 0 1.23 0.49 1.72 0.74c1.96 1.23 2.7 2.45 1.23 4.66c-1.47 2.21-2.94 1.96-5.15 0.74c-0.49-0.24-1.23-0.49-1.72-0.98v0z" />
	<path fill-rule="evenodd" class="s7" d="m151.12 547.68l0.25-6.13c0-0.25 0-0.98 0.49-1.23c0.49-0.24 1.23-0.24 1.72-0.24c2.94 0.24 3.68 1.22 3.68 3.92c-0.25 3.18-1.72 3.92-4.66 3.68c-0.49 0-0.74 0-1.23 0h-0.24v0z" />
	<path fill-rule="evenodd" class="s7" d="m195.24 549.64l0.73-4.66c0.25-0.49 0.25-1.23 0.49-1.47c0.24-0.49 1.47-0.25 1.96-0.25c0.98 0.25 1.72 0.49 2.21 0.98c0.73 0.73 0.73 1.96 0.73 2.69c-0.25 1.47-0.98 2.45-2.45 2.94c-0.98 0.24-2.45 0-3.68-0.24v0z" />
	<path fill-rule="evenodd" class="s7" d="m194.75 551.84l2.21 0.25c0.74 0.24 1.96 0.49 2.7 1.22c0.73 0.74 0.73 1.96 0.73 2.94c-0.24 0.98-0.73 2.21-1.96 2.7c-0.98 0.49-2.21 0.24-3.43 0.24c-0.24-0.24-0.98-0.24-1.23-0.73c0-0.49 0-0.74 0-1.23l0.98-5.39v0z" />
	<path fill-rule="evenodd" class="s7" d="m290.61 577.83c0-2.45 0.49-6.62 3.68-6.37c3.19 0 3.19 4.17 3.19 6.37c0 0.73 0 1.47-0.25 2.21c-0.49 1.71-0.74 4.17-3.19 3.92c-1.47 0-2.45-0.74-2.94-1.96c-0.49-1.23-0.73-2.94-0.49-4.17v0z" />
	<path fill-rule="evenodd" class="s7" d="m385.73 555.03l-1.72-4.41c0-0.49-0.25-1.22-0.25-1.71c0-0.49 1.23-0.98 1.72-1.23c0.74-0.24 1.72-0.49 2.45-0.24c0.74 0.24 1.47 1.47 1.72 2.21c0.49 1.22 0.49 2.45-0.49 3.43c-0.74 0.98-2.45 1.23-3.43 1.96v0z" />
	<path fill-rule="evenodd" class="s7" d="m386.46 556.75l1.96-0.49c0.74-0.49 1.96-0.73 2.94-0.49c0.98 0.49 1.72 1.47 1.96 2.45c0.49 0.98 0.49 2.21 0 2.94c-0.73 1.23-1.96 1.71-3.19 1.96c-0.25 0-0.74 0.24-1.23 0.24c-0.24-0.24-0.49-0.74-0.49-0.98l-1.96-5.64v0z" />
	<path fill-rule="evenodd" class="s7" d="m428.87 546.45l-0.24-4.9c0-0.74 0-1.23 0.49-1.47c0.49-0.25 1.22-0.25 1.71-0.25c2.21-0.24 3.43 0.49 3.68 2.94c0 2.7-1.23 3.43-3.68 3.68c-0.73 0-1.47 0-1.96 0v0z" />
	<path class="s7" d="m467.36 547.19l-4.9 0.98l1.23-6.62l3.68 5.64v0z" />
</svg>