<svg version="1.2" xmlns="http://www.w3.org/2000/svg" viewBox="0 0 600 600" width="600" height="600">
	<style>
		.s0 { fill: #fde805;stroke: #1f1a17;stroke-width: .9 } 
		.s1 { fill: none;stroke: #1f1a17;stroke-width: .6 } 
		.s2 { fill: none;stroke: #1f1a17;stroke-width: .3 } 
		.s3 { fill: #fde805;stroke: #1f1a17;stroke-width: .6 } 
		.s4 { fill: #006233;stroke: #1f1a17;stroke-width: .7 } 
		.s5 { fill: none;stroke: #1f1a17;stroke-width: .7 } 
		.s6 { fill: #d7110e;stroke: #1f1a17;stroke-width: .7 } 
		.s7 { fill: #ffe805 } 
		.s8 { fill: #ffe805;stroke: #1f1a17;stroke-linecap: round;stroke-linejoin: round;stroke-width: .7 } 
		.s9 { fill: #ffffff;stroke: #1f1a17;stroke-width: .9 } 
		.s10 { fill: #002c77 } 
		.s11 { fill: #ffe805;stroke: #1f1a17;stroke-width: .6 } 
		.s12 { fill: #ffe805;stroke: #1f1a17;stroke-width: .7 } 
		.s13 { fill: #1f1a17 } 
	</style>
	<g id="Layer">
		<g id="Layer">
			<path id="Layer" fill-rule="evenodd" class="s0" d="m496.9 242.4c9.6 3.2 18.9 5.9 28.3 9.6c4 1.5 7.7 4 10.2 7c3.5 4.3 7.5 7.4 10.9 11.4c-10 1-20.3 2-29.6-1.5c-9.7-3.7-16.4-11.7-22.6-20.6c-1.7-2.5-0.3-4.2 1.2-6.2c0.1-0.2 1 0.2 1.6 0.3z" />
			<path id="Layer" fill-rule="evenodd" class="s0" d="m536.4 239.8c3.5-0.7 6.9 0.3 10.4 1.1c5.7 1.5 9.7 5.4 14.2 8.9c9.5 7.4 17.6 16.9 19.6 28.8c-1.2-1.7-2.4-3.7-4.2-3.9c-13.1-1.3-23.6-9.2-32.3-18.4c-4.5-4.8-9.4-9.2-15.9-11.5c2.7-2 4.7-4.5 8.2-5z" />
			<path id="Layer" fill-rule="evenodd" class="s0" d="m470.7 249c4.2-3.1 10.5-3.6 15 0.6c3.7 3.7 8.7 6.5 10.1 12.1c0.3 0.6 1.1 1 1.7 1.8c2.5 4.7 0.1 9.5 0.5 14.4c-3.9-0.7-6.9-3.5-10.2-5.5c-6.4-4.2-10.8-9.9-16.1-15.1c-2.2-2.2-2.8-6.8-1-8.3z" />
			<path id="Layer" fill-rule="evenodd" class="s0" d="m422.4 185.9c1-0.3 0.1-1.7 1.1-1.7c-0.1-2.6 0-5.7 2-7.7c3.5-3.6 6.9-7.5 12.1-9c4.5-1.3 8.8-1.7 13.5-2.2c1-0.1 2-0.3 2.9-0.8c-0.4 0.5-0.4 1.3-0.5 1.8c-0.5 1.2-0.7 2.7-1 4c-1.5 6.2-2 7.7-4.7 13.4c-0.4 0.9-2.7 3.5-3.2 4.4c-0.5 0.6-2 1-2.5 1.7c-2.2 3-6.9 3.5-9.7 2.1c-4.5-2.3-6.7-1-10.2-5c-0.3-0.3 0-1 0.2-1z" />
			<path id="Layer" fill-rule="evenodd" class="s0" d="m555 247.8c-5.2 0-10.2 0.2-15.2-1.9c-5.7-2.1-11.4-3.5-17.3-5.3c-4.1-1.3-8.2-1.8-12.2-1.3c-5 0.5-9.5 3.1-13.7 5.6c-11.2 6.4-15.9 18.4-23.2 29.3c-4.7 6.7-9.4 12.7-15.4 17.7c10.5-0.3 18.5-7 27.4-11.3c4.2-2.2 9-2.9 13.7-2.4c3.7 0.5 8.1 1.2 10.1-0.8c3.6-3.7 8-6.2 12.7-8.5c8.7-4.2 18.2-4.6 27.2-7.2c-0.8 9.3-6.8 17.7-15 22c11.7-3.3 21.2 5.4 32.4 8.1c1.4 0.3 2.7 0.1 4.2 0.1c-3 2.6-6.2 4.6-9.5 6.7c-5 3.2-10.9 4.2-16.6 3.4c-10.9-1.4-21.1-3.4-31.4-6.7c-7.1-2.4-10.4-10.2-17.6-11.6c-5.8-1.1-12 1-16.9 3.9c-7.7 4.3-14.5 8.5-21.6 13.5c-7.1 18.9-11.8 35.7-22 53.4c-2.5 4.5-11.9 16.6-16.9 20.4c4.8 2.2 10.5 4 15.5 5.9c4.5 1.6 7.1 5 9.9 9c6.2 8.3 14 14.5 16.4 24.7c2 8.7 0.7 17.3-2 25.5c-3.4-0.4-6.5-0.4-9.1-2.5c-5.1-4.4-9.7-16.1-11.3-22.5c0.5 3.1 1.1 12.4-0.5 13.9c-2 1.9-2.7 4.9-3.5 7.5c-16.8-5.8-21.3-32.7-20.9-54.5c-2.7 1.9-4.9 4.5-9.2 8.7c-0.2 2.5 0.5 5.4 1.3 6.7c5.3 8 5.7 4.4 7.2 14.2c0.5 3.7 0.8 6.7-0.7 10.1c-1.7 3.3-1 8-2.7 11c-0.8 1.3-2.6-2-3.6-3.3c-5.2-6.6-6.1-4.1-9.6-11.6c-0.8-2-2-4.5-1.1-6.7c1.8-4.3 1.5-9 2.1-13.4c-1.3 1.4-3.1 2.6-3.5 4.6c-0.3-0.4-2.5-0.5-1.7-1.2c-11.2 7.2-20.9 14.9-32.2 20.2c-6.9 3.4-13.4 7.4-21.3 8.9c-5.3 1-10.2 2.8-15.7 2.8l-1.2 1.2c-3.1 1.2-8.2 1.5-11.5 2.2c-7.4 1.5-14.1-0.4-24.9 2.5c-9.9 2.5-18.6 5.3-27.3 11.2c-0.5 0.3-0.3 1.7-0.8 2c-11.2 9-24.6 12.9-33.3 25.3c-5.9 8.3-7.9 17.9-15.4 24.7c-3.8 3.5-8.2 6-12.9 7.9c-6 2.5-12.5 2.3-19 2.1c-7.2 3.4-15.8 2.7-23.8 0.4c-2.2-0.7-4.8-1.7-6-3.5c-1-1.4-1-4 0.3-5.6c0.4-0.1 0.9-1.6 0.2-1.5c22.1-3.5 53.5-25.5 56.9-26.7c31.4-27.9 52.6-50.9 144-61.6c71.5-29.2 125.4-113.7 93.5-183.1c-23.1-58.2-80.7-63.1-80.7-63.1c-9.3 0-16.2-7-16.2-7c27.8-1.2 54.5 11.7 54.5 11.7c0.9-5.7-3.6-16.7-9-18.4c-8.4-2.5-15.5 5.2-23.7 2.2c-2.9-1-5.6-2.7-8.1-4.7c-4.2-3.3-8.7-5.7-11.7-10.2c4.5-0.3 8.9-1.3 13.4-2.3c-1.8-4-9.4-5.7-11.5-10.2c-1.4-3.2 10.5-5.2 14.3-6.1c-1.5-2.1-1.6-5.6-3.1-8.6c-2.7-5.4-7.7-9.8-13.7-11.1c4.5-1.7 9.3-1.8 13.8-0.8c5.6 1.3 10.7 3.7 15.3 7.2c-1.1-4-6.1-4.9-6.9-8.7c-0.8-5.4-4.2-10.1-1.3-15.3c10 9.4 28.1 15.3 31.4 30c5-8.7 17.4-17.6 13.4-28.1c1 1 2.2 2.2 3.2 3.3c1 1.2 3.3-6.3 4.1-5c3.2 4.4 4.1 18.1 5.6 23.3c2.1 7.7 1.5 15.5-1.2 22.9c-0.7 2-2.2 4.2-3.9 5.8c-4.1 3.9-10.3 2.9-15.3 4.9c2.5 2.3 5.1 4.2 7.8 6.5c0.5 0.5 0.5 2.2 0 2.5c-2.5 1.5-5.5 2.5-7.5 4.2c-1 0.7-2 3.5-1.3 5.2c1.6 4.2 2.8 8.5 3.3 12.9c0.7 5.5 5.2 7.8 10.4 8.2c1.8 5.3 7.5 6 9.7 10c1.1 2.2 3.1 3.5 4.7 5.2c6 6.8 13 12.4 17.8 20.2c4.7 7.7 5.2 16.2 7.2 24.3c0.7-1.2 0.9-2.7 1.4-3.9c1-2.3 3-4.2 3.5-6.5c2.2-9 2.3-17.7 2.2-26.8c0-6.7-0.7-13.2-2.7-19.5c-0.7-2-1-4.2-1.7-6.1c-1-2.5-0.8-5.6-0.2-8.5c1.2-4.3 4.4-7.5 5.4-11.7c0.8-3.8-1.5-8 0-11.4c5.7-12.7 21.4-13.8 34-15.9c0 1.2-1.1 1.9-1.4 2.9c-0.8 1.7-3.2 2.5-4.3 4.2c-1.9 3-3.4 6-5.1 9c-1 2-3.3 3-4.8 4.9c-0.8 1.1-1.2 2.6-1.8 4c11-5.4 23.5-1.2 34.7-5.2c-2.8 2-3.8 5.3-6 7.8c-4.8 5.2-11.7 6.9-17.9 10.4c-5.3 3-11.7 0.7-17.2 3.2c4.7 3 10.2 3.7 15.2 6.2c1.2 0.6 2.9 0.1 4.5 0.1c-1.8 2.2-2.1 5.7-4.3 6.7c-4.9 2.2-10 4.7-16.1 3.7c-2.1-0.3-4-2-6.3-2.2c1 8.4-2 16.6-1.5 25.1c0.5 10.1 0 20.1-2.9 30.1c-0.6 2.4-3.7 3.4-5.5 5.2c1.3 3.4 2 5.9 1.7 8.7c4.2-2.2 5.7-6.5 8.3-10c3.4-4.4 4.7-9.7 5.4-14.9c0.8-8.9-1.7-17.2-3.2-26.1c-1-6.4 0.5-14.2 8-14c-1.6 5.3-5.3 10.3-3 15.5c0.7 1.3 2.2-1.5 2.7-2c9.5-10.2 21.6-14.7 33.5-21.1c1.8-1 2.8-3 4.1-4.7c-1.5 0.5-1.5 2.4-1.5 3.1c0.4 12.2-1.5 24.5-11.3 32.9c-2.5 2.2-5.7 3-8.7 4c-4.7 1.5-9.9 0.4-14.4 2.2c-0.3 0.2-1.5 0.8-1.7 1.5c-4.8 14.2-3 32.3-16.4 41.8c3 6-0.6 11.4-1.8 16.9c3.5-1.5 6.3-3.8 8.5-6.7c1.3 0 2-0.7 2.5-1.5c2.7-5.8 5.4-11.4 7.9-17.2c2.3-5.7 6.8-9.9 11.5-13.9c8.2-6.7 17.2-10.9 27.8-13c1.5-0.4 2.5-1.9 4-2.2c8.7-1.9 16.2-3.4 24.9-5c5.9-1.2 10.7-4.4 16.4-6.1c4.5-1.3 9.4-2.6 13.7-1c7.6 2.9 13.4 8.4 18.8 14.3c-3.1 2.8-6.9 3.8-10.6 4.8c-5.8 1.7-11.4-2.2-17.4-2c1.7-0.3 2.5 1.2 3.4 2c4.8 4.9 10.5 8.2 16.4 11.4c-2.9 0.6-5.4 3.2-8.1 3.2c-7.3-0.4-14.7-2.1-22-2.4c-1.2 0-2.4 1-3.6 1.5" />
			<path id="Layer" fill-rule="evenodd" class="s0" d="m447.8 294.1c-0.2 2.9-1.4 7.2-2.4 10.4c-0.8 2.7 3.9 4 6.2 5.2c8.4 3.7 16.7 8 25.9 6.2c8.2-1.7 15.3-3.7 23.3-2.2c9.9 1.8 16.6 9 25.1 13c-7.7 1.5-14.9 4.2-22.8 6.1c-6.7 1.6-13.3 1.3-20.2 1.5c4.3 2.5 8.5 5.3 13.4 5.5c4.2 0 8-2.2 12.2-3.4c0.3-0.1 0.3-1.8 0.7-2c2.6-0.6 5.5-0.1 8 1.2c0.5 0.3 0.7 1.8 1.2 2c15.2 3.2 24.5 15.1 37.1 22.2c-5.2 1.2-10.5 1.2-16.2 2.4c3.1 6.3 6.8 12.5 9.8 19.1c-8-1.9-16.7-2.1-24.2-5.7c-4.9-2.4-9.9-4.4-14.7-7.6c-0.7-0.3-1.9-0.1-2.9-0.1c11.4 11 14.9 29.4 6.4 43c-3.7-9.7-12.1-15.9-18.4-24.5c-1.7-2.3-3.2-4.8-3.4-7.5c-0.3-5.5 2.2-11.4 0.5-16.5c-2-6.1-7-10.6-11.2-15.4c0 0.8-9-5.9-8.7-5.2c3.7 7.2 15.1 19.9 15.3 27.9c0.1 2.4 0.3 6.7 0.1 9c-0.3 4.4-6 15.4-5.5 17.1c-3.2-1.8-4.3-11.4-9-14.4c-2.2-1.5-4-4.2-4.7-7.2c-1.7-6.2 2.3-11.7 1.8-17.9c0-2-0.8-4-1.6-5.7c-1.4-2.8-3.7-4.6-5.4-7.5c-2.8-4.5-8.2-6-11.7-10.9c-26.9-24.7-9-37.9-3.4-44.1c0.5 1.7-0.5 4.3-0.5 5.8z" />
			<path id="Layer" fill-rule="evenodd" class="s0" d="m422.9 200.3c3.5 3.8 5.3 6.7 8 11c9.2-2 8.8-3.8 10.7-5c2.2-1.2-3.4-9.5-4.2-11.2c-2.7-4.5-1.5-6.2-2.5-11.2c-1-5.5 1.8-10.4 4.3-14.9c3.9-6.8 7.6-14 14.1-18.9c2.3 12.9 1 26.3 6.5 38.6c1.5 3.2 1.4 7.9-0.5 11.3c-2.3 4-5.8 7.3-9.3 9.8c-6.9 4.7-15.3 8.2-24 5.4c-7.8-2.5-6.8-12.4-7.3-19.3c2 1 3 3.2 4.2 4.4z" />
			<path id="Layer" fill-rule="evenodd" class="s0" d="m419.5 193.9c0.2-0.5 1-0.6 1-1c0.5-4.2-2.2-7.7-3.7-11.3c-0.6-2.1-1.5-4.6-1.3-6.9c0.3-2.7 0.5-5.4 0.8-8c0.4-2.2 1-4 2-5.9c0.4-0.5 0.9-0.8 1-1.2c2.1-4.8 4.9-9.2 6.7-14c0.7-1.7 1.2-3.5 2.2-5.2c-0.2 1.2 0.3 2.2 0.3 3.2c0.2 0.2 1 0.2 1 0.3c0.2 2.2 0.2 4.2 0.9 6.4c2.3 9.5 4.7 18.4 2.7 28.1c-1.5 7.2-4.7 14-11.6 16.9c-1 0.3-2.7 0-2-1.4z" />
			<path id="Layer" fill-rule="evenodd" class="s0" d="m452.6 333.1c3.4 3.3 6.5 5.8 8.9 7.5c1.8 1.2-1.5 4.2-1.5 6.4c0.3 8.5 5 16.9 2.3 25.6c-0.1 0.5-1.1 1.8-1.3 2.3c-2.5 7.2-8.2 14.4-15.4 17.2c-3-4-5.5-7.2-9.7-10.2c-0.7-0.5-2.3-1.8-3.5-1.6c0-0.6 0.5-1.4 0.7-1.9c2.1-5 9.7-10.5 12.7-14.9c-4.9 8.2-29.5 7.4-40.7 8.9c-2 0.2-3.8 0-5.8 0.2c1.3-0.9 2.5-1.9 3.1-3.1c1.4-2.1 1.6-5.1 2.6-7.1c1.8-3.7 3.6-7.7 7.2-10.6c7.1-5.5 16.2-3.8 24.4-1.7c6.3 1.7 15.7 3.9 18.7-2.3c2.5-5.2-2.5-14-3.2-14.9z" />
			<path id="Layer" fill-rule="evenodd" class="s0" d="m495.8 284.9c4.5 4.5 9.5 10.2 6 16.7c-1.5 2.6-3.8 5.2-6.2 6.1c-8.4 2.6-17.6-3.9-20.1-12.4c-0.5-1.5 0-4.2 1-4c4.7 0.6 9.2 2.6 13.9 1c2.4-0.9 6.9-2.9 4.9-6.4c-0.2-0.1 0.1-0.6 0.5-1z" />
		</g>
		<g id="Layer">
			<path id="Layer" class="s1" d="m399.4 139.2c-1.3-0.3-1.6-1.8-2.6-2.1c-8.4-3.2-16.8-5.4-25-8.9c-3-1.3-5.8-3-8.7-4.7" />
			<path id="Layer" class="s1" d="m399.4 136.1c-1.5-3.6-1.1-3.7-0.6-7.6c0.1-2.5 1.3-3.8 2.8-6c2.2-3.2 3.2-5.7 5.4-8.8c1.1-1.7 4.5-6.9 5.5-8.7c0.5-1.1 2.3-11.8 2.3-12.8" />
			<path id="Layer" class="s1" d="m397.4 126.2c-0.6-2.3 0-4.7 0.4-7c0.5-2 1.3-1.2 0.1-3.2" />
			<path id="Layer" class="s1" d="m394.6 128c-1.3-1.3-3-1.6-4.4-2.8c-5.6-4.9-11-9.5-15.3-15.6" />
			<path id="Layer" class="s1" d="m360.3 139.2c1.7 0.7 3.2 1.5 4.9 1.7c9.3 1.2 18.4 1.5 27.2 4.4c1.2 0.3 2.2 1.3 3.5 1.5c-1.3 0.6-2.6 0.3-4 0c-3.3-1.4-6.5-3.2-10.2-3.2" />
			<path id="Layer" class="s1" d="m466.5 165.7c-0.5-0.9-0.5-1.9 0.2-2.5c3.3-2.9 8-1.7 11.7-4.4c0.7-0.5 0.5-1.2 0.7-1.8" />
			<path id="Layer" class="s1" d="m473.5 172.4c-3-0.5-6-1.7-7-4.9" />
			<path id="Layer" class="s1" d="m465.7 186.6c-1.7-1.4-3-3.2-3.4-5.2c-0.6-4-1.6-7.9-1.3-11.9c0.2-0.7 0.7-1 1.2-1.5" />
			<path id="Layer" class="s1" d="m474.9 208.1c-1.9 3.9-0.7 8.1 1 11.9" />
			<path id="Layer" class="s1" d="m565.5 231.4c-4.8 0.7-9.3-0.7-14.2-1.3c-4.5-0.5-9-1.7-13.4-3.2c-1.1-0.5-2.7-0.2-4-0.2" />
			<path id="Layer" class="s1" d="m514.7 234.2c6.2-4 13.9-6 20.9-3.6c3.2 1 6.2 2.5 9.3 4c3.7 1.8 6.2 5 9.2 7.8c0.5 0.7 1.7 1.4 1.2 2.5" />
			<path id="Layer" class="s1" d="m533.1 284.4c-8.4 0-16.4 0.5-24.8-1.5c-1.3-0.5-2.3-1.7-3.5-2.5" />
			<path id="Layer" class="s1" d="m481.6 334.4c-2-0.5-4.4 0-6.2-1c-4.5-2.2-8.9-3.5-13.1-6.2c-2-1.1-4.3-2.8-4.5-5.3" />
			<path id="Layer" class="s1" d="m538.8 362c-2.7-1.2-5.6-1.2-8.6-2c-3.3-0.8-7.2-0.3-10.5-1.5c-4.4-1.5-8.9-2.3-12.7-5.3c-2.7-2.1-5.9-3.4-7.7-6.2" />
			<path id="Layer" class="s1" d="m506.8 367.5c-4.5-0.6-8-3.6-11.9-6.3c-1-0.7-2-1.4-2.6-2.7c-0.2-0.3-1.2-0.2-1.5-0.7q-1.3-1.7-1-4" />
			<path id="Layer" class="s1" d="m436.9 413.7c-0.5-1.7-2.2-2.2-2.8-3.5c-1.5-3.2-2.2-6.7-4.4-9.4c-1.8-2.3-3.8-4.7-4.3-7.2c-0.4-2.5 0.1-5.2 0.1-7.8" />
			<path id="Layer" class="s1" d="m425.4 384.4c-2.2-1.5-4.4-2.8-6.7-3.3" />
			<path id="Layer" class="s1" d="m447.4 362.5c1.4-1.3 1.7-3.5 3.1-4.7c1.8-1.6 2.8-3.8 5-4.8" />
		</g>
		<g id="Layer">
			<path id="Layer" class="s2" d="m391.6 130.5c-1.4-0.1-2.5-0.8-3.7-1.3c-6.5-3.7-11.5-8.7-17.6-13.2c-4-3-8-6-12.7-7.5" />
			<path id="Layer" class="s2" d="m352.4 143.4c8.1 0.9 15.8 1.9 23.8 3c1.7 0.4 3.3-0.1 4.8 0.4c2.2 0.5 4.4 1 6.4 2.5c2.3 1.8 5.4 2.7 8.4 2.5" />
			<path id="Layer" class="s2" d="m418 91.4c0 6.2-1 12.4-1.7 18.6c-0.1 3-0.8 6-1.6 9c-1.5 5.2-5.6 8.5-8.2 13c-1 2.1-1.5 4.1-2.4 6.1h0.4" />
			<path id="Layer" class="s2" d="m423.5 190.8c1-2.7 1.5-5.2 1-7.9c-0.8-5-1.8-9.7-1.1-14.6c0.5-3.8 1.5-7.7 2.8-11.3c0.7-2 1.8-4.2 0.8-6.4" />
			<path id="Layer" class="s2" d="m467.7 157.8c3.2-6 6.2-12.2 11.7-16.6c3.8-3 8.4-4.5 12.7-6.3" />
			<path id="Layer" class="s2" d="m509.5 155c-2 0.8-3.5 2.5-5.5 3c-4 1.3-8.1 2-11.9 3.8c-0.7 0.4-1.7 0-2.3 0.2c-0.5 0.2-1 0.8-1.5 1c-5.6 2.5-11.4 1-17.1 1.5" />
			<path id="Layer" class="s2" d="m510.7 186.1c-1 2.3-3.4 3.3-5.2 5c-4.2 3.8-7 8.5-11.6 12.2c-4.1 3.2-8.2 6-12.2 9.5c-0.6 0.7-1.1 1.5-1.3 2.5" />
			<path id="Layer" class="s2" d="m547.5 225.5c1.8-0.8 3.6-1 5.8-1.3c0.9-0.2 1.5-1.7 2.4-2c0.6-0.3 1.6 0 2.3-0.2c3.7-1.1 7.4-1.1 11-1.1c3-2.9 7.1 0.8 10.1 2.6c2.3 1.5 4.8 2.7 7.7 2.9" />
			<path id="Layer" class="s2" d="m540.9 230.7c3.2-0.6 6.1 0.9 9.2 1.4c2.5 0.5 4.6 1.6 6.9 2.8c0.8 0.5 2 1 3.3 1.2c1.5 0.3 2.4 1.8 3.9 2.3c4.2 1.5 7.8 4 12.4 4.2" />
			<path id="Layer" class="s2" d="m517.9 236.9c3.5-0.5 6.8 0.5 10.5-0.5c3.7-0.8 7 0.3 10 2c3.5 2 6.7 4.2 10.2 5.7" />
			<path id="Layer" class="s2" d="m546.5 250.5c0.8-0.2 2 0 2.8 0.3c3.8 1.8 7.9 3.5 10.5 7c0.4 0.4 0.4 1.4 0.5 1.5c3.7 3.9 7.1 7.9 11.9 9.7" />
			<path id="Layer" class="s2" d="m498.1 248c4.9 1 8.4 4.3 13.1 5.6c6.2 1.7 10.5 6.2 15.2 10.2" />
			<path id="Layer" class="s2" d="m546.1 265.9c-2 7-10 9-16.5 10c-0.2 0-0.2 0.8-0.4 0.8c-3.8 0.5-7.7 1.7-10.3 4.5h0.1" />
			<path id="Layer" class="s2" d="m560 293.8c-7.4 0.7-14.7 0.5-22.1 0c-4.7-0.2-8.8-2.4-13.7-3.2c-6-1.2-12-1.5-16.7-5.5" />
			<path id="Layer" class="s2" d="m498.8 294.1c-0.5 0.5-0.3 1.5-1 1.9c-1 0.8-1.2 2-2 3c-3.7 4.1-9.2 3.5-14.2 2.8h0.3" />
			<path id="Layer" class="s2" d="m466 322.5c3.7 1.7 7.9 1.9 11.9 1.1c4-1.1 7.7-2.1 11.9-1.6c5 0.5 9.8 1.2 14.7 1.7c3 0.5 5.8 1.9 8.8 2.4" />
			<path id="Layer" class="s2" d="m549.6 359c-2.8 0-5.2-1-7.8-1.3c-1.9-0.4-3.7-0.5-5.2-1.5c-1.7-1.2-3-2.2-4.7-2.9c-1.5-0.5-3.2-0.6-4.7-1.3c-8.2-3.9-16.5-8-25.6-8.4" />
			<path id="Layer" class="s2" d="m544.3 377.9c-2.2-0.7-4.2-0.7-6.2-3.2c-1.7-2-4.5-2-6.9-3.5c-4.3-2.8-8.2-5.7-12.8-7.8c-8.9-4.2-18.1-7.1-27-11.1c-1.8-0.8-3.8-2.2-5.7-3.5c-4-3.2-7.3-6.5-11.2-9.9c-1.6-1.5-3.6-2.5-5.6-3.6" />
			<path id="Layer" class="s2" d="m513 399.8c-0.5-3.2-3-5.2-4.5-7.7c-0.3-0.6-0.7-2-1-2.3c-2.5-2.7-5.5-5-6.7-8.4c-1.7-5.5-0.2-11.9-3.5-16.9" />
			<path id="Layer" class="s2" d="m467.2 340.8c4.2 6.2 9.7 11.7 11 19.2c1.5 7.9-0.1 15.9 2.5 23.4" />
			<path id="Layer" class="s2" d="m408.5 365.5c2-3.8 6.5-4.8 10.3-5.5c7.6-1.2 14.8-1.3 22.1-1.8c2.5-0.2 4.7-1.2 7-2" />
			<path id="Layer" class="s2" d="m457.3 358.8c-2 5.6-3.2 11.4-7.2 16.3c-2.7 3.1-6.8 4.5-10 7.2" />
			<path id="Layer" class="s2" d="m423.9 380.9c1.8 0.9 3.5 1.9 5.1 3.2c1 0.8 1.5 2 2.4 2.8c2.3 1.9 4.8 3.1 6.8 5.1c4.4 4 6.6 9.2 10.7 13.3c1 0.9 1.2 2.4 2.1 3.4c3 3.8 5.5 7.7 6.8 12c0.8 2.7 1 5.7 0.2 8.6c-0.4 1.3-0.7 2.3-0.7 3.5" />
			<path id="Layer" class="s2" d="m430.5 430.6v0.2c-1.3-1.4-3.6-1.2-4-3.6c-0.3-1.6 0-3.5-0.6-4.6c-2-3.7-3.4-7.1-4.7-10.7c-0.5-1.9-1-3.9-1.2-5.7c-0.8-5.5 0.3-10.9-0.2-16.2c0-1.1 0-2.2-0.6-3.1" />
			<path id="Layer" class="s2" d="m407 428.3c-0.9-1.6-1.2-3.2-1.7-4.7c-0.8-2.7-3.2-4.4-4.2-7.1c-0.8-2.8-1.3-5.6-1.7-8.7c-0.5-3.6 0.9-8 1.7-12.7" />
			<path id="Layer" class="s2" d="m447.1 205.5c2.2-3.4 3.7-7.2 3-11.4c-0.8-5.7-3.3-10.7-4-16.2c-0.5-5 1.2-9.7 2.2-14.7c0.5-1.9 1.5-3.2 2.8-4.4" />
			<path id="Layer" class="s2" d="m485.7 181.7c-4 1.5-8.3 1.7-12.5 1c-1.5-0.3-3-0.8-4.3-2c-2.1-1.8-3.2-4.3-3.6-7.2" />
			<path id="Layer" class="s2" d="m472.9 252c1.6 0 3.3 0.6 4.6 1.5" />
			<path id="Layer" class="s2" d="m484.7 259.5c1.4 0.2 2.2 1.2 2.9 1.8c3.2 3 5.8 6.7 7.2 10.9" />
		</g>
		<g id="Layer">
			<path id="Layer" fill-rule="evenodd" class="s3" d="m155.4 506.4c10.2-4.1 20.4-7.7 30.5-12.6c6-3 20-4.3 17 5.7c-0.3 1.2-3.2 2.8-5.2 3.7c-5.3 2.2-11 2.3-16.9 3.3c-8.7 1.5-17.2 0.7-26.1 0.2c0.7 0.2 0.7-0.3 0.7-0.3z" />
			<path id="Layer" class="s1" d="m182.2 493.3c7.7-3.7 16.2-5.3 24.9-4.5" />
			<path id="Layer" class="s1" d="m196.1 487c4.5-0.5 8.8-2.2 12.2-5.2" />
			<path id="Layer" class="s1" d="m212 488.5c11-23.3 34.9-39 47.1-42.5c19.8-10.4 36.5-12.7 41.2-11.6" />
		</g>
	</g>
	<g id="Layer">
		<g id="Layer">
			<path id="Layer" fill-rule="evenodd" class="s0" d="m103.9 242.1c1.5 2 3 3.7 1.3 6.2c-6.3 8.9-12.8 16.9-22.7 20.6c-9.4 3.5-19.6 2.5-29.4 1.5c3.1-4 7.3-7.1 10.8-11.4c2.5-3 6.2-5.5 10.1-7c9.3-3.7 18.7-6.4 28.4-9.6c0.5-0.1 1.5-0.5 1.5-0.3z" />
			<path id="Layer" fill-rule="evenodd" class="s0" d="m71 244.8c-6.4 2.3-11.2 6.7-15.8 11.5c-8.7 9.2-19.4 17.1-32.4 18.4c-1.7 0.2-2.9 2.2-4 3.9c1.8-11.9 10-21.4 19.4-28.8c4.5-3.5 8.7-7.4 14.4-8.9c3.3-0.8 6.6-1.8 10.3-1.1c3.4 0.5 5.5 3 8.1 5z" />
			<path id="Layer" fill-rule="evenodd" class="s0" d="m127.7 257.3c-5.4 5.2-9.9 10.9-16.3 15.1c-3.3 2-6.2 4.8-10.2 5.5c0.5-4.9-2-9.7 0.7-14.4c0.3-0.8 1.3-1.2 1.5-1.8c1.3-5.6 6.4-8.4 10.2-12.1c4.5-4.2 10.9-3.7 15.1-0.6c1.8 1.5 1 6.1-1 8.3z" />
			<path id="Layer" fill-rule="evenodd" class="s0" d="m177.2 186.9c-3.6 4-5.7 2.7-10.4 5c-2.9 1.4-7.4 0.9-9.5-2.1c-0.5-0.7-2.2-1.1-2.6-1.7c-0.5-0.9-2.8-3.5-3.3-4.4c-2.5-5.7-3.2-7.2-4.5-13.4c-0.3-1.3-0.7-2.8-1-4c-0.2-0.5-0.2-1.3-0.7-1.8c1 0.5 2 0.7 3 0.8c4.5 0.5 9.1 0.9 13.6 2.2c5.2 1.5 8.5 5.4 12 9c1.9 2 2.2 5.1 1.9 7.7c1 0 0.3 1.4 1.1 1.7c0.2 0 0.5 0.7 0.4 1z" />
			<path id="Layer" fill-rule="evenodd" class="s0" d="m46.7 247.1c-1.2-0.5-2.3-1.5-3.5-1.5c-7.4 0.3-14.7 2-22.1 2.4c-2.7 0-5.2-2.6-8.2-3.2c5.9-3.2 11.6-6.5 16.6-11.4c0.6-0.8 1.5-2.3 3.2-2c-5.9-0.2-11.6 3.7-17.3 2c-3.7-1-7.7-2-10.5-4.8c5.2-5.9 11.2-11.4 18.6-14.3c4.5-1.6 9.3-0.3 13.8 1c5.7 1.7 10.4 4.9 16.4 6.1c8.7 1.6 16.1 3.1 24.8 5c1.7 0.3 2.5 1.8 4.2 2.2c10.5 2.1 19.5 6.3 27.6 13c4.8 4 9.2 8.2 11.5 13.9c2.5 5.8 5.2 11.4 8 17.2c0.4 0.8 1.2 1.5 2.5 1.5c2.2 2.9 4.9 5.2 8.4 6.7c-1-5.5-4.7-10.9-1.7-16.9c-13.5-9.5-11.7-27.6-16.5-41.8c-0.2-0.7-1.2-1.3-1.7-1.5c-4.4-1.8-9.5-0.7-14.2-2.2c-3.2-1-6.2-1.8-8.7-4c-9.9-8.4-11.9-20.7-11.6-32.9c0-0.7 0-2.6-1.3-3.1c1.3 1.7 2.2 3.7 4 4.7c12.1 6.4 24.1 10.9 33.6 21.1c0.5 0.5 2 3.3 2.5 2c2.4-5.2-1.1-10.2-3-15.5c7.7-0.2 9.2 7.6 8.1 14c-1.5 8.9-4.1 17.2-3 26.1c0.5 5.2 2 10.5 5.1 14.9c2.7 3.5 4.2 7.8 8.4 10c-0.3-2.8 0.3-5.3 1.8-8.7c-1.8-1.8-4.8-2.8-5.6-5.2c-2.9-10-3.4-20-2.7-30.1c0.3-8.5-2.7-16.7-1.5-25.1c-2.5 0.2-4.2 1.9-6.6 2.2c-5.8 1-11-1.5-16-3.7c-2.2-1-2.5-4.5-4.2-6.7c1.5 0 3.2 0.5 4.5-0.1c5-2.5 10.6-3.2 15.2-6.2c-5.5-2.5-12-0.2-17.2-3.2c-6.2-3.5-13.2-5.2-17.9-10.4c-2.1-2.5-3.2-5.8-6.2-7.8c11.4 4 23.8-0.2 35 5.2c-0.7-1.4-1-2.9-2-4c-1.4-1.9-3.7-2.9-4.9-4.9q-2.2-4.5-5-9c-1-1.7-3.5-2.5-4.2-4.2c-0.5-1-1.5-1.7-1.5-2.9c12.6 2.1 28.3 3.2 34 15.9c1.5 3.4-0.9 7.6 0 11.4c1 4.2 4.3 7.4 5.3 11.7c0.7 2.9 1 6 0 8.5c-0.8 1.9-1.1 4.1-1.6 6.1c-2 6.3-2.7 12.8-2.9 19.5c-0.1 9.1 0 17.8 2.2 26.8c0.5 2.3 2.5 4.2 3.5 6.5c0.7 1.2 0.7 2.7 1.3 3.9c2.2-8.1 2.6-16.6 7.2-24.3c5.1-7.8 12.1-13.4 17.9-20.2c1.5-1.7 3.5-3 4.9-5.2c2.2-4 7.8-4.7 9.7-10c5-0.4 9.5-2.7 10.4-8.2c0.5-4.4 1.5-8.7 3.1-12.9c0.9-1.7-0.3-4.5-1.1-5.2c-2.2-1.7-5.2-2.7-7.7-4.2c-0.4-0.3-0.5-2 0-2.5c2.6-2.3 5.5-4.2 8-6.5c-5.2-2-11.2-1-15.6-4.9c-1.6-1.6-3.1-3.8-3.8-5.8c-2.7-7.4-3.2-15.2-1-22.9c1.3-5.2 2.3-18.9 5.3-23.3c0.9-1.3 3.4 6.2 4.2 5c1.2-1.1 2.2-2.3 3.4-3.3c-4.2 10.5 8.2 19.4 13.3 28.1c3.2-14.7 21.3-20.6 31.3-30c2.9 5.2-0.3 9.9-1.3 15.3c-0.7 3.8-5.7 4.7-6.7 8.7c4.5-3.5 9.7-5.9 15-7.2c4.6-1 9.4-0.9 13.9 0.8c-6 1.3-10.8 5.7-13.5 11.1c-1.5 3-1.7 6.5-3.2 8.6c3.9 0.9 15.7 2.9 14.2 6.1c-2.2 4.5-9.7 6.2-11.4 10.2c4.4 1 8.9 2 13.4 2.3c-3 4.5-7.5 6.9-11.8 10.2c-2.6 2-5.1 3.7-8.1 4.7c-8.2 3-15.4-4.7-23.6-2.2c-5.3 1.7-10 12.7-9.2 18.4c0 0 26.8-12.9 54.7-11.7c0 0-7 7-16.2 7c0 0-57.5 4.9-80.8 63.1c-31.9 69.4 22.1 153.9 93.5 183.1c89.8 12.6 112.8 33.7 144 61.6c3.5 1.2 34.8 23.2 56.9 26.7c-0.7-0.1 0 1.4 0.2 1.5c1.3 1.6 1.3 4.2 0.5 5.6c-1.4 1.8-3.9 2.8-6.2 3.5c-7.9 2.3-16.4 3-23.8-0.4c-6.5 0.2-13 0.4-19-2.1c-4.7-1.9-9.1-4.4-12.9-7.9c-7.4-6.8-9.4-16.4-15.2-24.7c-8.7-12.4-22.1-16.3-33.5-25.3c-0.5-0.3-0.3-1.7-0.8-2c-8.6-5.9-17.3-8.7-27.1-11.2c-10.9-2.9-17.8-1-24.9-2.5c-3.6-0.7-8.6-1-11.7-2.2l-1.2-1.2c-5.4 0-10.2-1.8-15.7-2.8c-7.9-1.5-14.3-5.5-21.1-8.9c-11.6-5.3-21.1-13-32.3-20.2c0.8 0.7-1.5 0.8-1.8 1.2c-0.4-2-2-3.2-3.4-4.6c0.5 4.4 0.4 9.1 2 13.4c1 2.2-0.1 4.7-1.1 6.7c-3.6 7.5-4.2 5-9.4 11.6c-1 1.3-2.9 4.6-3.7 3.3c-1.8-3-1.2-7.7-2.7-11c-1.5-3.4-1.3-6.4-0.6-10.1c1.3-9.8 1.8-6.2 7-14.2c1-1.3 1.5-4.2 1.3-6.7c-4.3-4.2-6.5-6.8-9.2-8.7c0.4 21.8-4 48.7-20.9 54.5c-0.8-2.6-1.5-5.6-3.5-7.5c-1.7-1.5-0.8-10.8-0.5-13.9c-1.5 6.4-6.2 18.1-11.2 22.5c-2.5 2.1-5.7 2.1-9 2.5c-2.7-8.2-4-16.8-2-25.5c2.1-10.2 10.2-16.4 16.2-24.7c2.8-4 5.5-7.4 9.9-9c5-1.9 10.7-3.7 15.5-5.9c-4.8-3.8-14.2-15.9-16.9-20.4c-10-17.7-14.9-34.5-21.9-53.4c-7-5-14-9.2-21.6-13.5c-5-2.9-11.2-5-17-3.9c-7.2 1.4-10.6 9.2-17.4 11.6c-10.4 3.3-20.8 5.3-31.5 6.7c-5.8 0.8-11.5-0.2-16.5-3.4c-3.4-2.1-6.7-4.1-9.6-6.7c1.4 0 2.7 0.2 4.1-0.1c11.3-2.7 20.7-11.4 32.6-8.1c-8.2-4.3-14.2-12.7-15.3-22c9.1 2.6 18.8 3 27.3 7.2c4.9 2.3 9 4.8 12.9 8.5c1.8 2 6.2 1.3 9.9 0.8c4.6-0.5 9.5 0.2 13.8 2.4c8.7 4.3 16.8 11 27.5 11.3c-6.2-5-10.9-11-15.4-17.7c-7.4-10.9-12.2-22.9-23.4-29.3c-4.2-2.5-8.6-5.1-13.6-5.6c-4.2-0.5-8.2 0-12.2 1.3c-5.8 1.8-11.7 3.2-17.4 5.3c-4.8 2.1-10 1.9-15 1.9" />
			<path id="Layer" fill-rule="evenodd" class="s0" d="m151.2 293.9c0-1.5-0.8-4.1-0.3-5.8c5.7 6.2 23.6 19.4-3.5 44.1c-3.4 4.9-8.7 6.4-11.5 10.9c-1.7 2.9-4.2 4.7-5.4 7.5c-0.8 1.7-1.7 3.7-1.8 5.7c-0.4 6.2 3.6 11.7 2 17.9c-0.9 3-2.7 5.7-4.9 7.2c-4.7 3-5.7 12.6-8.8 14.4c0.3-1.7-5.2-12.7-5.6-17.1c-0.3-2.3 0-6.6 0-9c0.4-8 11.7-20.7 15.3-27.9c0.3-0.7-8.6 6-8.6 5.2c-4.2 4.8-9.2 9.3-11.2 15.4c-1.8 5.1 0.9 11 0.4 16.5c-0.2 2.7-1.6 5.2-3.2 7.5c-6.4 8.6-14.9 14.8-18.6 24.5c-8.5-13.6-5-32 6.4-43c-0.9 0-2-0.2-2.7 0.1c-5 3.2-9.9 5.2-14.9 7.6c-7.5 3.6-16.1 3.8-24.3 5.7c3.1-6.6 6.9-12.8 9.9-19.1c-5.5-1.2-11-1.2-16.2-2.4c12.5-7.1 21.9-19 37.1-22.2c0.5-0.2 0.7-1.7 1.4-2c2.5-1.3 5.3-1.8 8-1.2c0.3 0.2 0.2 1.9 0.7 2c4 1.2 8 3.4 12 3.4c4.9-0.2 9-3 13.4-5.5c-6.7-0.2-13.6 0.1-20.3-1.5c-7.6-1.9-14.8-4.6-22.7-6.1c8.7-4 15.4-11.2 25.1-13c8-1.5 15.2 0.5 23.2 2.2c9.4 1.8 17.8-2.5 26-6.2c2.5-1.2 7.1-2.5 6.3-5.2c-1-3.2-2.2-7.5-2.5-10.4z" />
			<path id="Layer" fill-rule="evenodd" class="s0" d="m180.7 195.9c-0.5 6.9 0.3 16.8-7.6 19.3c-8.5 2.8-17-0.7-23.7-5.4c-3.7-2.5-7.2-5.8-9.5-9.8c-1.9-3.4-1.9-8.1-0.4-11.3c5.5-12.3 4.2-25.7 6.4-38.6c6.7 4.9 10.2 12.1 14 18.9c2.7 4.5 5.4 9.4 4.4 14.9c-0.9 5 0.2 6.7-2.4 11.2c-1 1.7-6.3 10-4.3 11.2c2 1.2 1.7 3 10.7 5c2.7-4.3 4.7-7.2 8-11c1.2-1.2 2.4-3.4 4.4-4.4z" />
			<path id="Layer" fill-rule="evenodd" class="s0" d="m177.8 195.3c-7-2.9-10-9.7-11.5-16.9c-2-9.7 0.3-18.6 2.7-28.1c0.5-2.2 0.6-4.2 0.8-6.4c0-0.1 0.8-0.1 0.8-0.3c0.2-1 0.7-2 0.5-3.2c0.9 1.7 1.4 3.5 2 5.2c2.1 4.8 4.9 9.2 6.7 14c0.2 0.4 0.9 0.7 1 1.2c1 1.9 1.9 3.7 2 5.9c0.4 2.6 0.7 5.3 0.9 8c0.3 2.3-0.5 4.8-1.4 6.9c-1.3 3.6-4.1 7.1-3.6 11.3c0.1 0.4 0.8 0.5 1 1c0.6 1.4-0.9 1.7-1.9 1.4z" />
			<path id="Layer" fill-rule="evenodd" class="s0" d="m147.1 332.9c-0.5 0.9-5.7 9.7-3.1 14.9c3.1 6.2 12.4 4 18.8 2.3c8.2-2.1 17.2-3.8 24.2 1.7c3.5 2.9 5.4 6.9 7.2 10.6c1.2 2 1.2 5 2.5 7.1c0.7 1.2 2 2.2 3.2 3.1c-1.8-0.2-3.8 0-5.8-0.2c-11.3-1.5-35.8-0.7-40.5-8.9c3 4.4 10.3 9.9 12.5 14.9c0.4 0.5 0.7 1.3 0.7 1.9c-1.2-0.2-2.9 1.1-3.5 1.6c-4.2 3-6.7 6.2-9.7 10.2c-7.2-2.8-12.9-10-15.2-17.2c-0.2-0.5-1.4-1.8-1.5-2.3c-2.7-8.7 2-17.1 2.3-25.6c0.2-2.2-3.2-5.2-1.3-6.4c2.3-1.7 5.3-4.2 8.8-7.5z" />
			<path id="Layer" fill-rule="evenodd" class="s0" d="m104.1 285.9c-2 3.5 2.5 5.5 4.7 6.4c4.8 1.6 9.2-0.4 14-1c1-0.2 1.5 2.5 1 4c-2.5 8.5-11.9 15-20.1 12.4c-2.5-0.9-4.8-3.5-6.2-6.1c-3.6-6.5 1.6-12.2 6.1-16.7c0.1 0.4 0.5 0.9 0.5 1z" />
		</g>
		<g id="Layer">
			<path id="Layer" class="s1" d="m236 123.5c-2.8 1.7-5.7 3.4-8.7 4.7c-8.2 3.5-16.5 5.7-24.9 8.9c-1 0.3-1.3 1.8-2.7 2.1" />
			<path id="Layer" class="s1" d="m184.4 92.2c0 1 1.8 11.7 2.5 12.8c0.8 1.8 4.1 7 5.3 8.7c2.4 3.1 3.4 5.6 5.4 8.8c1.6 2.2 2.6 3.5 3 6c0.3 3.9 0.8 4-0.9 7.6" />
			<path id="Layer" class="s1" d="m201.9 126.2c0.7-2.3 0-4.7-0.5-7c-0.5-2-1.3-1.2-0.2-3.2" />
			<path id="Layer" class="s1" d="m224.5 109.6c-4.4 6.1-9.9 10.7-15.6 15.6c-1.1 1.2-3 1.5-4.1 2.8" />
			<path id="Layer" class="s1" d="m217.5 143.6c-3.7 0-6.9 1.8-10.2 3.2c-1.2 0.3-2.7 0.6-4 0c1.3-0.2 2.3-1.2 3.5-1.5c9-2.9 18-3.2 27.2-4.4c1.7-0.2 3.4-1 5-1.7" />
			<path id="Layer" class="s1" d="m120.3 157c0.2 0.6 0 1.3 0.5 1.8c3.8 2.7 8.5 1.5 11.9 4.4c0.6 0.6 0.5 1.6 0 2.5" />
			<path id="Layer" class="s1" d="m125.8 172.4c3-0.5 5.9-1.7 6.9-4.9" />
			<path id="Layer" class="s1" d="m137 168c0.5 0.5 1.2 0.8 1.2 1.5c0.3 4-0.7 7.9-1.3 11.9c-0.4 2-1.7 3.8-3.2 5.2" />
			<path id="Layer" class="s1" d="m124.3 208.1c2 3.9 0.7 8.1-0.8 11.9" />
			<path id="Layer" class="s1" d="m65.4 226.7c-1.5 0-2.8-0.3-4 0.2c-4.5 1.5-8.8 2.7-13.5 3.2c-4.7 0.6-9.4 2-14.2 1.3" />
			<path id="Layer" class="s1" d="m43.9 244.9c-0.4-1.1 0.6-1.8 1.3-2.5c3-2.8 5.5-6 9.2-7.8c3-1.5 6-3 9.2-4c7.2-2.4 14.9-0.4 20.9 3.6" />
			<path id="Layer" class="s1" d="m94.4 280.4c-1.2 0.8-2.2 2-3.5 2.5c-8.2 2-16.4 1.5-24.6 1.5" />
			<path id="Layer" class="s1" d="m141.4 321.9c-0.2 2.5-2.5 4.2-4.4 5.3c-4.3 2.7-8.7 4-13 6.2c-2 1-4.2 0.5-6.4 1" />
			<path id="Layer" class="s1" d="m99.9 347c-1.8 2.8-4.9 4.1-7.5 6.2c-3.9 3-8.4 3.8-12.9 5.3c-3.4 1.2-7.2 0.7-10.6 1.5c-3 0.8-5.6 0.8-8.5 2" />
			<path id="Layer" class="s1" d="m109.4 353.8c0.2 1.5-0.1 2.9-0.8 4c-0.3 0.5-1.3 0.4-1.5 0.7c-0.7 1.3-1.9 2-2.7 2.7c-3.8 2.7-7.4 5.7-12 6.3" />
			<path id="Layer" class="s1" d="m173.6 385.8c0 2.6 0.7 5.3 0.2 7.8c-0.5 2.5-2.5 4.9-4.3 7.2c-2.2 2.7-2.9 6.2-4.4 9.4c-0.5 1.3-2.3 1.8-2.8 3.5" />
			<path id="Layer" class="s1" d="m174 384.4c2-1.5 4.2-2.8 6.7-3.3" />
			<path id="Layer" class="s1" d="m143.7 353c2.4 1 3.4 3.2 5.2 4.8c1.3 1.2 1.7 3.4 3 4.7" />
		</g>
		<g id="Layer">
			<path id="Layer" class="s2" d="m241.6 108.5c-4.7 1.5-8.6 4.5-12.6 7.5c-6.2 4.5-11.2 9.5-17.7 13.2c-1 0.5-2.4 1.2-3.7 1.3" />
			<path id="Layer" class="s2" d="m203.6 151.8c3 0.2 6-0.7 8.4-2.5c1.8-1.5 4-2 6.1-2.5c1.5-0.5 3.2 0 4.9-0.4c8.2-1.1 15.9-2.1 23.9-3" />
			<path id="Layer" class="s2" d="m194.9 138.1h0.3c-1-2-1.3-4-2.5-6.1c-2.7-4.5-6.7-7.8-8-13c-0.8-3-1.5-6-1.9-9c-0.5-6.2-1.6-12.4-1.6-18.6" />
			<path id="Layer" class="s2" d="m172.1 150.6c-1 2.2 0.2 4.4 0.9 6.4c1.5 3.6 2.5 7.5 3 11.3c0.7 4.9-0.3 9.6-1.3 14.6c-0.5 2.7 0.1 5.2 1 7.9" />
			<path id="Layer" class="s2" d="m107.3 134.9c4.3 1.8 8.6 3.3 12.5 6.3c5.7 4.4 8.7 10.6 11.7 16.6" />
			<path id="Layer" class="s2" d="m128.2 164.5c-5.9-0.5-11.8 1-17.3-1.5c-0.5-0.2-0.8-0.8-1.5-1c-0.6-0.2-1.5 0.2-2.1-0.2c-3.9-1.8-7.9-2.5-11.9-3.8c-2.2-0.5-3.7-2.2-5.7-3" />
			<path id="Layer" class="s2" d="m118.8 215.3c-0.2-1-0.5-1.8-1.2-2.5c-4.2-3.5-8.2-6.3-12.2-9.5c-4.5-3.7-7.3-8.4-11.5-12.2c-1.9-1.7-4.4-2.7-5.4-5" />
			<path id="Layer" class="s2" d="m12.6 226.4c2.7-0.2 5.3-1.4 7.7-2.9c2.8-1.8 6.8-5.5 10-2.6c3.7 0 7.4 0 11.1 1.1c0.6 0.2 1.5-0.1 2.1 0.2c1 0.3 1.5 1.8 2.4 2c2.1 0.3 4 0.5 5.8 1.3" />
			<path id="Layer" class="s2" d="m22.6 242.6c4.5-0.2 8.2-2.7 12.6-4.2c1.3-0.5 2.3-2 3.8-2.3c1.2-0.2 2.4-0.7 3.4-1.2c2.1-1.2 4.3-2.3 6.8-2.8c3-0.5 6-2 9.2-1.4" />
			<path id="Layer" class="s2" d="m50.6 244.1c3.6-1.5 6.8-3.7 10.2-5.7c3.1-1.7 6.5-2.8 10-2c3.7 1 7 0 10.5 0.5" />
			<path id="Layer" class="s2" d="m27 269c4.8-1.8 8.3-5.8 11.8-9.7c0.4-0.1 0.4-1.1 0.5-1.5c2.9-3.5 6.7-5.2 10.7-7c0.9-0.3 1.9-0.5 2.9-0.3" />
			<path id="Layer" class="s2" d="m73 263.8c4.6-4 9-8.5 15-10.2c4.9-1.3 8.4-4.6 13.1-5.6" />
			<path id="Layer" class="s2" d="m80.2 281.2h0.3c-2.7-2.8-6.7-4-10.5-4.5l-0.2-0.8c-6.7-1-14.6-3-16.6-10" />
			<path id="Layer" class="s2" d="m91.9 285.1c-4.9 4-10.9 4.3-16.9 5.5c-4.7 0.8-8.9 3-13.7 3.2c-7.4 0.5-14.8 0.7-22.1 0" />
			<path id="Layer" class="s2" d="m117.3 301.8h0.3c-4.8 0.7-10.3 1.3-14.2-2.8c-0.8-1-0.8-2.2-2-3c-0.7-0.4-0.3-1.4-0.8-1.9" />
			<path id="Layer" class="s2" d="m86 326.1c3-0.5 5.7-1.9 8.7-2.4c5-0.5 9.9-1.2 14.9-1.7c4-0.5 7.9 0.5 11.9 1.6c4 0.8 8 0.6 11.8-1.1" />
			<path id="Layer" class="s2" d="m97.5 343.6c-9 0.4-17.3 4.5-25.5 8.4c-1.4 0.7-3.1 0.8-4.6 1.3c-1.8 0.7-3.1 1.7-4.6 2.9c-1.7 1-3.6 1.1-5.4 1.5c-2.5 0.3-5 1.3-7.7 1.3" />
			<path id="Layer" class="s2" d="m130.3 335.3c-1.8 1.1-3.8 2.1-5.5 3.6c-4 3.4-7.3 6.7-11.4 9.9c-1.8 1.3-3.6 2.7-5.5 3.5c-8.8 4-18.2 6.9-27.1 11.1c-4.5 2.1-8.3 5-12.9 7.8c-2.1 1.5-5.1 1.5-6.6 3.5c-2.2 2.5-4.2 2.5-6.4 3.2" />
			<path id="Layer" class="s2" d="m101.9 364.5c-3.3 5-1.8 11.4-3.5 16.9c-1 3.4-4.2 5.7-6.7 8.4c-0.3 0.3-0.5 1.7-0.8 2.3c-1.7 2.5-4.1 4.5-4.6 7.7" />
			<path id="Layer" class="s2" d="m118.5 383.4c2.8-7.5 1-15.5 2.5-23.4c1.3-7.5 7-13 11.2-19.2" />
			<path id="Layer" class="s2" d="m151.2 356.2c2.4 0.8 4.7 1.8 7.1 2c7.3 0.5 14.5 0.6 22 1.8c4.1 0.7 8.4 1.7 10.6 5.5" />
			<path id="Layer" class="s2" d="m159.1 382.3c-3.2-2.7-7.2-4.1-10-7.2c-4.1-4.9-5.1-10.7-7.1-16.3" />
			<path id="Layer" class="s2" d="m142 432.8c-0.1-1.2-0.5-2.2-0.8-3.5c-0.8-2.9-0.7-5.9 0.2-8.6c1.5-4.3 4-8.2 7-12c0.8-1 1-2.5 1.8-3.4c4.2-4.1 6.4-9.3 10.7-13.3c2.2-2 4.7-3.2 6.9-5.1c1-0.8 1.5-2 2.5-2.8c1.5-1.3 3.2-2.3 5.2-3.2" />
			<path id="Layer" class="s2" d="m180 386.9c-0.7 0.9-0.5 2-0.7 3.1c-0.5 5.3 0.7 10.7 0 16.2c-0.3 1.8-0.6 3.8-1.3 5.7c-1.2 3.6-2.7 7-4.7 10.7c-0.7 1.1-0.2 3-0.5 4.6c-0.3 2.4-2.8 2.2-4 3.6v-0.2" />
			<path id="Layer" class="s2" d="m198.1 395.1c0.8 4.7 2.3 9.1 1.6 12.7c-0.3 3.1-0.6 5.9-1.6 8.7c-0.9 2.7-3.2 4.4-4 7.1c-0.5 1.5-1 3.1-1.9 4.7" />
			<path id="Layer" class="s2" d="m148.1 158.8c1.3 1.2 2.5 2.5 2.8 4.4c1 5 2.8 9.7 2.2 14.7c-0.7 5.5-3.2 10.5-4 16.2c-0.7 4.2 0.8 8 3.1 11.4" />
			<path id="Layer" class="s2" d="m133.8 173.5c-0.3 2.9-1.3 5.4-3.5 7.2c-1.1 1.2-2.6 1.7-4.3 2c-4.2 0.7-8.5 0.5-12.4-1" />
			<path id="Layer" class="s2" d="m126.3 252c-1.7 0-3.2 0.6-4.7 1.5" />
			<path id="Layer" class="s2" d="m104.6 272.2c1.1-4.2 4-7.9 7-10.9c0.8-0.6 1.7-1.6 2.8-1.8" />
		</g>
		<g id="Layer">
			<path id="Layer" fill-rule="evenodd" class="s3" d="m444.4 506.7c-8.7 0.5-17.2 1.3-26.1-0.2c-5.8-1-11.3-1.1-16.9-3.3c-2-0.9-4.8-2.5-5.1-3.7c-3-10 11-8.7 17.2-5.7c9.9 4.9 20.1 8.5 30.3 12.6c0.1 0 0.1 0.5 0.6 0.3z" />
			<path id="Layer" class="s1" d="m417.2 493.3c-7.9-3.7-16.4-5.3-25-4.5" />
			<path id="Layer" class="s1" d="m403.3 487c-4.5-0.5-8.9-2.2-12.2-5.2" />
			<path id="Layer" class="s1" d="m298.9 434.4c4.7-1.1 21.6 1.2 41.3 11.6c12.2 3.5 36 19.2 47 42.5" />
		</g>
	</g>
	<g id="Layer">
		<path id="Layer" fill-rule="evenodd" class="s4" d="m206.1 384.3c6.4-0.5 13 1.6 19.1 3.6c2.1 0.9 5.6 2.1 5.6 4.6c0 6 5.7 9.7 7.7 15c1.2 3.4 1 7.2 2.6 10.2c1.1 2.4 1.6 4.9 3.8 6.5c2 1.5 4.5 0.2 6.4 1.9c-5.6 2.7-10.7 10.8-19.1 7.8c-4.4-1.6-4.7-7.5-4.7-12c-11.2-1.3-14.4-10.9-17.2-21.4c-1.5-5.5-4.9-10.9-4.2-16.2z" />
		<path id="Layer" class="s5" d="m228.8 422.4c4.6 1.7 9.4 2 14.3 2.3" />
		<g id="Layer">
			<path id="Layer" fill-rule="evenodd" class="s4" d="m227.7 472.4c-0.4-0.8-0.5 5.9 3 11.7c1.8 3.2 4.5 5.7 7.7 6.7c1.5 0.5 3.7-0.5 5.5 0.5c2.8 1.8 2.5 3.9 1.5 6.9c-0.5 2-4.7 2.8-6.7 2c-2.8-0.9-1.7-3.7-3.3-5.5c-3.5-4.1-15.1-2.6-16.3-9.2c-0.3-2.1 1.2-4.9 2.9-6.7c1.8-2.4 3.2-4.6 5.3-6.4z" />
			<path id="Layer" fill-rule="evenodd" class="s4" d="m291.6 437.3c0 0-3.5-1.5 0.3-0.7c3.7 0.7 4.7 0.5 8.7 0.2c-0.8 0.7 2.7 0 3.3 4.2c1.4 8.3 2.9 13-1.1 20.4c-3.9 6.8-4.4 10.5-9.7 16c-5.2 5.2-4.9 2.7-15.4 10.6c-4.5 3.3-13.6 2.5-18.1 0.3c-10.2-5-18.7-7.2-27.9-13.4c-1-0.7-2.4-5.7-3.4-6.3c-3.6-2.5-7.3-4.9-11.2-7.1c-4.5-2.6-9.3-5.1-14.7-6c-9.2-1.5-17.7 2-26.7 2.7c-3.6 0.2-7.2-0.5-10.9 0.5c-1.2 0.2-0.9 1.7-0.5 2c2.2 1.7 4.7 2.8 7.3 3.5c3.4 0.7 6.9 0.3 9.7-0.8c6.4-2.5 12.1-7 19.3-5.2c5.2 1.2 9.5 4.5 14.4 6.5c-6.2 4.5-8.6 10.6-19.3 13.9c-3.2 1-5.5-1.7-8.8-0.3c-11.1 4.6-22.4 10.2-34.3 6.1c-6.2-2.1-12.2-5.1-15.4-11c-2-4-1.2-8.9 1-13c1.7-3.2 2.3-6.9 4.7-9.1c4.7-3.6 11.3-4 15.9-8c2.1-2.2 4.6-4 7.2-5.3c4.8-2.7 10.2-5.1 15.5-5.2c18.7-0.7 37 2.6 55.7 4.5c4.4 0.3 8.7 1.8 11.5 5.2c1.6 2 2.4 4.5 4.1 6.5c4.6 6.3 9.7 11.7 17 14.7c4.5 1.9 10.7 2.9 13.7-1.8c2.5-3.7 2.4-8.1 3.9-12.1c1.5-3.8 1.5-9.5 2.7-13.5z" />
		</g>
		<g id="Layer">
			<path id="Layer" class="s5" d="m139 460.4c1.9-2.7 5.2-3.5 8.4-2.7c5.3 1.2 10.2 2.5 15.4 2.2" />
			<path id="Layer" class="s5" d="m180.5 464.5c-7.4 4.6-3.8 1.9-7.5 7.6c-0.9 1.3-1 2.8-1.9 4.3c-1 1.7-2.6 2.5-3.8 4.2c-1.2 1.8-3.2 2.7-4.9 3.5c-1.6 0.7-3.6 0.5-5.5 0.7" />
			<path id="Layer" class="s5" d="m229.8 467.7c0.2-3 0.5-5.8 0.7-8.7c0.2-1.5 0.7-3 1.2-4.3c1.5-3.4 3.2-6.4 5.3-9.6c0.9-1.5 2.4-2.3 3.6-3.6c0.5-0.5 0.1-1.4 0.6-2" />
			<path id="Layer" class="s5" d="m305.4 454.7c-0.3 0.5-2.1 0.6-8.8 5c-6.9 4.5-7.7 0.3-15.4 4.2" />
		</g>
	</g>
	<g id="Layer">
		<path id="Layer" fill-rule="evenodd" class="s6" d="m389.2 400.5c-2.8 10.5-6 20.1-17.2 21.4c0.2 4.5-0.3 10.4-4.7 12c-7.3 2.7-13-4.8-19-7.8c1.8-1.7 4.3-0.4 6.3-1.9c2.2-1.6 2.7-4.1 3.9-6.5c1.5-3 1.3-6.8 2.5-10.2c2-5.3 7.7-9 7.7-15c0-2.5 3.5-3.7 5.7-4.6c6-2 12.8-4.1 19-3.6c0.7 5.3-2.7 10.7-4.2 16.2z" />
		<path id="Layer" class="s5" d="m370.7 422.4c-4.5 1.7-9.4 2-14.2 2.3" />
		<path id="Layer" fill-rule="evenodd" class="s6" d="m372.8 473.2c2.4 1.7 3.6 3.9 5.6 6.2c1.5 1.9 3 4.7 2.6 6.7c-1 6.7-12.5 5.2-16.2 9.4c-1.5 1.7-0.3 4.5-3.2 5.5c-2.1 0.7-6.1 0-6.8-2.2c-0.9-2.8-1.4-5 1.7-6.8c1.6-1 4 0 5.5-0.5c3-1 5.7-3.5 7.5-6.5c3.7-5.9 3.5-12.8 3.2-11.9z" />
		<path id="Layer" fill-rule="evenodd" class="s6" d="m312.6 438.8c1 4-0.5 7.2 1 11c1.5 4 1.4 8.4 3.9 12.1c3 4.7 9.2 3.7 13.7 1.8c7.2-3 12.4-8.4 17.1-14.7c1.5-2 2.3-4.5 4-6.5c2.8-3.4 7.2-4.9 11.5-5.2c18.7-1.9 37-5.2 55.7-4.5c5.4 0.1 10.7 2.5 15.6 5.2c2.5 1.3 5 3.1 7.2 5.3c4.5 4 11.2 4.4 15.7 8c2.5 2.2 3.2 5.9 4.8 9.1c2.2 4.1 3 9 1 13c-3.1 5.9-9.2 8.9-15.4 11c-11.8 4.1-23.2-1.5-34.2-6.1c-3.4-1.4-7.4 2.6-10.4 1.3c-9.2-4.3-12.7-9.7-18.7-14.2c4.8-1.9 10.2-6 15.2-7.2c7.3-1.8 12.9 2.7 19.4 5.2c2.8 1.1 6.3 1.5 9.7 0.8c2.7-0.7 5.2-1.8 7.3-3.5c0.4-0.3 0.7-1.8-0.5-2c-3.6-1-7.3-0.3-10.8-0.5c-9.1-0.7-17.6-4.2-26.8-2.7c-5.3 0.9-10.2 3.4-14.7 6c-3.9 2.2-7.7 4.6-11.2 7.1c-1 0.6-2.4 5.6-3.4 6.3c-9.2 6.2-17.7 8.4-27.9 13.4c-4.5 2.2-12.7 1.7-18.1-0.3c-6.1-2.4-9.7-1.9-14.7-7.1c-5.3-5.6-3-6.3-6.8-13.2c-4.2-7.3-3.2-10.7-3.5-19.2c-0.4-7.7-2.7-10.5-3.7-11.2c4 0.5 6.3-0.4 10.3 0.5c4.1 0.8 2.4-1.2 5.7 0.8z" />
		<g id="Layer">
			<path id="Layer" class="s5" d="m438.2 459.9c5.2 0.3 10.1-1 15.4-2.2c3.2-0.8 6.4 0 8.4 2.7" />
			<path id="Layer" class="s5" d="m443.9 484.8c-1.8-0.2-3.6 0-5.3-0.7c-1.9-0.8-3.7-1.7-4.9-3.5c-1.1-1.7-2.8-2.5-3.8-4.2c-0.9-1.5-1-3-1.9-4.3c-3.6-5.7-0.1-3-7.5-7.6" />
			<path id="Layer" class="s5" d="m359.8 439.5c0.5 0.6 0.2 1.5 0.7 2c1.1 1.3 2.5 2.1 3.5 3.6c2 3.2 3.8 6.2 5.2 9.6c0.6 1.3 1.1 2.8 1.3 4.3c0.2 2.9 0.5 5.7 0.7 8.7" />
			<path id="Layer" class="s5" d="m323.8 465.9c-10.7-0.2-14.5 0-22.4-2.7c-0.5-0.2-0.8-1-1.1-1.7" />
		</g>
	</g>
	<g id="Layer">
		<path id="Layer" fill-rule="evenodd" class="s6" d="m294.6 436.8c0 0-6.5 2.3-9.4-5.9c-2.8-8-8.2-13.4-8.2-13.4c0 0 5.4-1.6 8.7-0.5c0 0 10.5 1.7 11.7 4.7c1.2 2.9 5.2 9.9 2.4 14.4c-3.1 4.7-5.2 0.7-5.2 0.7z" />
		<path id="Layer" class="s5" d="m289.9 426.9c0 0 4 3.5 4 9.2" />
		<path id="Layer" fill-rule="evenodd" class="s4" d="m302.1 436.6c-4.2-3.7-2.3-11.5-4.7-14.9c-1.8-2.6 7.4-3.1 7.4-3.1c3-2.2 9.7-0.7 9.7-0.7c0 0 4 1.8 3.3 10.4c-0.6 10.8-10.7 8.6-10.7 8.6c0 0-1 3.4-5-0.3z" />
		<path id="Layer" class="s5" d="m309 424.6c0 0 3.5 6.3-1 11.7" />
	</g>
	<g id="Layer">
		<path id="Layer" fill-rule="evenodd" class="s7" d="m401.6 357.2c-39.3-1.1-219.5-113.2-220.7-131l9.9-16.5c17.9 25.8 202.1 134.8 220.2 130.9z" />
		<path id="Layer" fill-rule="evenodd" class="s8" d="m188.7 207.4l0.2-0.4l1.6-2.7l0.1 0.1c0 1.2 0.3 2.8 0.8 3.6c7.2 12.6 53.4 42.1 106.4 74.2c53.1 32 95.9 51.6 112.4 56.4c2.7 0.7 4.5 0.4 5.2-0.7c0.2 0-1.5 2.9-1.7 3.3c-3.9 3.2-56.3-19.5-117.1-56.4c-60.9-36.8-111.4-67.9-107.9-77.4zm213.8 150.4c-0.7 1.2-1.9 1.2-4.3 0.9c-14.7-1.6-59.3-23.2-112-54.6c-61.4-36.7-112.1-70-106.6-78.7l1.5-2.7l0.3 0.1c-5 14.8 100 74.6 106.2 78.4c60.8 37.5 112 59.4 116.5 53.7l-1.6 2.9z" />
		<path id="Layer" fill-rule="evenodd" class="s7" d="m184.9 219.2l5.7-10.3c18.7 12.5 56.1 17.4 109.1 17.9c44.8-0.9 93.6-6.9 110.1-16l6 9.8c-27.9 11-76.4 16.1-115.8 16.4c-45.4-0.2-80.7-3.2-115.1-17.8z" />
		<path id="Layer" fill-rule="evenodd" class="s8" d="m417.4 220.8c-0.9 1.5-19.1 7.8-46 12.4c-18.2 2.7-41.9 5.1-71.5 5.1c-28.1 0.1-51.1-1.9-68.5-4.3c-28.2-4.4-42.7-10.5-48.1-12.7c0.5-1 0.8-1.7 1.3-2.6c15.5 6.1 30.1 9.8 47.2 12.4c17.3 2.3 40 4.4 68 4.3c29.5 0 53-2.5 71-5.2c27.6-4.4 42.6-10.1 44.7-12.8l1.9 3.4zm-5.2-9.9c-3 2.4-17.9 7.6-44 11.8c-17.5 2.5-39.7 4.7-68 4.7c-26.9 0.1-48.9-1.7-65.7-4.2c-26.5-3.4-40.6-9.6-45.7-11.5q0.7-1.3 1.5-2.6c4 2 17.6 7.5 44.5 11.3c16.6 2.4 38.6 4.1 65.4 4.1c28.2-0.1 50.1-2.3 67.5-4.8c26.3-3.6 40.4-10.3 42.5-12l2 3.2z" />
		<path id="Layer" fill-rule="evenodd" class="s7" d="m170.9 284.2l-0.1-11.7c17.7 11.5 71 20.3 128.3 20.7c57.4 0.4 122-10.1 129.1-21.1l0.6 13c-22.6 11.9-82.9 19.1-129.2 19c-50.8-0.4-104.5-7-128.7-19.9" />
		<path id="Layer" fill-rule="evenodd" class="s8" d="m430 282.3v3.1c-3.4 4.1-24.6 10.2-51.3 14.5c-20.2 3-46.7 5.4-79.6 5.4c-31.3 0-56.3-2.2-75.7-5.2c-30.6-4.4-50.1-12.2-54.1-14.5v-3.6c11.8 7.8 43.8 13.5 54.6 15.2c19.2 3 44 5.2 75.2 5.2c32.8 0 59.1-2.3 79.2-5.4c19.1-2.8 46.4-9.9 51.7-14.7zm0-11v3.1c-3.3 4.1-24.6 10.2-51.3 14.4c-20.2 3.1-46.7 5.5-79.6 5.5c-31.3 0-56.3-2.2-75.7-5.2c-30.6-4.4-50.1-12.2-54.1-14.5l0.1-3.6c11.8 7.8 43.7 13.5 54.5 15.2c19.2 3 44 5.2 75.2 5.2c32.8 0 59.1-2.3 79.2-5.4c19.1-2.8 46.4-9.9 51.7-14.7z" />
		<path id="Layer" fill-rule="evenodd" class="s7" d="m412.8 337.3l-7.5 11.8c-26 12.6-63 15.9-105.2 17.1c-42.3 1.3-88.8-9.8-106.6-17.3l-7.3-11.4c10 2.4 57.7 17.2 113.3 17.5c35.2-0.1 95.6-9.4 113.3-17.7z" />
		<path id="Layer" fill-rule="evenodd" class="s8" d="m408.2 346.5h-0.1q0 0 0 0zm0 0l-0.8 0.5c-3.6 1.9-15 6.1-43.3 11.8c-18.5 3.3-41.3 6-64.1 5.9c-35.9-0.9-73.8-5.7-107.6-17.7l-2.6-1l-0.2 0.4l1.5 2.6c19 8.2 59.3 17.8 108.6 18.5c22.9 0 48.7-2.5 65.4-5.9c8.1-1.3 27.5-5.9 39.8-10.2q1.7-2.4 3.3-4.9zm6.6-10.8q0 0 0 0zm0 0l-3.3 1.3q0.1 0.1 0.2 0.2c-4.6 1.4-19.8 6.4-50.1 11.1c-17 2.3-30.2 4.6-61.3 5.2c-41.6-0.6-79.4-7.4-116.3-17l1.4 2.8c9.9 3.1 51.1 15.5 114.9 17.1c34-0.6 44.6-2.9 61.7-5.2c26-3.6 43.8-8.8 50.3-11.1q1.3-2.2 2.6-4.3q-0.1 0-0.1-0.1z" />
		<path id="Layer" fill-rule="evenodd" class="s7" d="m299.6 403.4c-70.3 0-127.1-56.5-127.1-126.6c0-70 56.8-126.6 127.1-126.6c70.3 0 127.1 56.6 127.1 126.6c0 70.1-56.8 126.6-127.1 126.6zm0-241.8c-63.9 0-115.6 51.6-115.6 115.2c0 63.7 51.7 115.2 115.6 115.2c63.9 0 115.5-51.3 115.5-115c0-63.6-51.6-115.4-115.5-115.4z" />
		<path id="Layer" fill-rule="evenodd" class="s8" d="m299.7 405.3c-71.2 0-128.8-57.4-128.8-128.3c0-71 57.6-128.3 128.8-128.3c71.2 0 128.8 57.3 128.8 128.3c0 70.9-57.6 128.3-128.8 128.3zm-126-128.3c0 69 56.9 125.5 126 125.5c69 0 125.9-56.5 125.9-125.5c0-69-56.9-125.5-125.9-125.5c-69.1 0-126 56.5-126 125.5z" />
		<path id="Layer" fill-rule="evenodd" class="s8" d="m299.8 159.4c64.7 0 118 52.9 118 117.5c0 64.6-53.3 117.5-118 117.5c-64.7 0-118-52.9-118-117.5c0-64.6 53.3-117.5 118-117.5zm-115.1 117.5c0 63 52 114.7 115.1 114.7c63.1 0 115.1-51.7 115.1-114.7c0-63.1-52-114.7-115.1-114.7c-63.1 0-115.1 51.6-115.1 114.7z" />
		<path id="Layer" fill-rule="evenodd" class="s8" d="m294.5 148.1h11.2v258.1h-11.2z" />
		<path id="Layer" fill-rule="evenodd" class="s8" d="m306.7 146.7v260.7h-2.8v-260.7zm-13.8 0v260.7h2.9l-0.1-260.7z" />
		<path id="Layer" fill-rule="evenodd" class="s8" d="m170.5 271.5c16.1-14.8 75.7-24.4 128.5-24.1c52.9 0.2 115.5 11 129.1 23.8l0.2 11.1c-11.4-10.7-60.1-23.5-129.1-23.6c-69.1-0.2-119.3 12.9-128.7 23.8v-11" />
		<path id="Layer" fill-rule="evenodd" class="s8" d="m299.7 257.1c30.5 0 60 2.9 83.4 7.4c24.1 4.8 41.1 10.9 46.9 17.6v3.4c-7-8.4-29.9-14.6-47.5-18.1c-23.2-4.5-52.5-7.4-82.8-7.4c-31.9 0.1-61.6 3.1-84.5 7.5c-18.3 3.7-42.8 10.9-45.9 18v-3.5c1.7-4.9 19.9-12.3 45.5-17.4c23.1-4.5 52.8-7.4 84.9-7.5zm0.1-11c-32.1 0.1-61.9 3-85 7.5c-25.2 4.9-43.8 12.5-45.5 17.4v3.5c2.9-7.1 28.4-14.6 46.1-18c22.9-4.4 52.4-7.4 84.4-7.5c30.2 0 59.5 2.9 82.7 7.4c17.7 3.5 40.5 9.7 47.5 18.1v-3.4c-5.8-6.7-22.8-12.8-46.9-17.6c-23.4-4.5-52.9-7.4-83.3-7.4z" />
		<path id="Layer" fill-rule="evenodd" class="s8" d="m299.1 190c48-0.2 89.8 6.7 108.9 16.4l7 12.1c-16.7-9-61.8-18.2-115.8-16.8c-44 0.2-91.1 4.8-114.7 17.3l8.3-13.8c19.4-10.1 65.1-15.1 106.3-15.2" />
		<path id="Layer" fill-rule="evenodd" class="s8" d="m299.8 199.9c27.3 0 53.7 1.5 74.7 5.3c19.6 3.6 38.2 9 40.9 12l2.1 3.6c-6.5-4.2-22.7-8.9-43.4-12.8c-20.8-3.9-47.2-5.2-74.4-5.1c-30.8-0.1-54.8 1.5-75.4 5.1c-21.7 4-36.8 9.8-40.6 12.6l2.1-3.9c7.2-3.7 18.7-8.1 38-11.6c21.3-3.8 45.5-5 76-5.2zm0-11c26.1 0 51.9 1.4 72.1 5c15.9 3.1 31.6 7.9 37.3 12.2l3 4.8c-5.1-5.7-24.5-11.1-41.6-14.1c-19.9-3.5-44.7-4.8-70.8-5c-27.5 0-52.9 1.7-72.6 5.3c-18.7 3.5-30.9 7.8-36 11.1l2.7-4c7-3.8 18.5-7.2 32.9-9.9c19.8-3.6 45.3-5.3 73-5.4z" />
		<path id="Layer" fill-rule="evenodd" class="s8" d="m363.7 330.3c-23.7-4.4-47.4-5-64-4.8c-79.8 0.9-105.6 16.3-108.8 21l-6-9.7c20.4-14.7 63.9-22.9 115.3-22.1c26.6 0.4 49.7 2.2 69 5.9l-5.5 9.7" />
		<path id="Layer" fill-rule="evenodd" class="s8" d="m299.3 324.1c22.2 0.3 44 1.2 65 5.2l-1.5 2.6c-19.5-3.6-40.4-4.9-63.5-4.8c-29.4-0.3-59.2 2.5-85.2 9.9c-8.2 2.3-21.7 7.5-23.1 11.9l-1.5-2.5c0.4-2.6 8.6-7.9 23.9-12.2c29.7-8.5 57.5-9.9 85.9-10.1zm-89-0.6c-12.4 3.6-26.1 9-26.5 13.1l1.5 2.7c0.6-4.6 16.4-10.3 25.7-13c28.5-8.3 59.8-10.4 89.4-10.4c27.4 0.4 47.3 1.8 68.2 5.9l1.6-2.8c-23.1-4.6-46.9-5.6-69.9-6c-29.8 0-61.3 2.2-90 10.5z" />
		<path id="Layer" fill-rule="evenodd" class="s8" d="m191.7 205c39.6-0.5 222.3 111.2 222.8 131.8l-11.3 17.3c-5.1-23.9-190.5-132.7-221.1-130.6z" />
		<path id="Layer" fill-rule="evenodd" class="s8" d="m181 222.8c7.3-4.9 61.3 19 117.8 52.9c56.3 34 110.1 72.5 105.2 79.7l-1.6 2.5l-0.7 0.5c0.2-0.1 1-1.1-0.1-3.7c-2.4-7.9-40.5-38.2-103.9-76.3c-61.7-36.7-113.2-58.8-118.3-52.5l1.6-3.1zm220.7 135.6q0 0 0 0zm14-20.4c4.6-9.1-45.4-46.7-107.5-83.2c-63.5-35.9-109.2-57-117.6-50.7l-1.8 3.4c0 0.2 0-0.3 0.4-0.6c1.5-1.3 4.1-1.2 5.2-1.2c14.4 0.2 55.5 19 113.2 52c25.2 14.6 106.7 66.7 106.4 81.3c0 1 0.1 1.4-0.2 1.8l1.9-2.8zm-1.9 2.8l-0.2 0.4q0.2-0.2 0.2-0.4z" />
	</g>
	<g id="Layer">
		<g id="Layer">
			<path id="Layer" fill-rule="evenodd" class="s9" d="m222.6 187.2l154.1 0.1v102.8c0 21.2-8.6 40.4-22.6 54.3c-14 14-33.3 22.6-54.5 22.6c-21.2 0-40.3-8.8-54.3-22.8c-14-14-22.6-33.1-22.6-54.2c0 0-0.1-102.8-0.1-102.8z" />
			<path id="Layer" fill-rule="evenodd" class="s6" d="m225.6 190.6h147.8v99.7c0 20.3-8.3 38.6-21.7 52c-13.4 13.3-31.9 21.5-52.2 21.5c-20.3 0-38.8-8.3-52.2-21.7c-13.4-13.3-21.8-31.7-21.8-51.9c0 0 0.1-99.6 0.1-99.6zm118.1 29.8l-88.2-0.1v70.1c0 11.6 4.8 22.8 13 31c8.1 8 18.8 13.1 30.9 13.1c12.2 0 23.3-4.9 31.2-12.9c6.9-6.8 11.5-15.5 12.7-25.5c0.2-1.7 0.3-3.8 0.3-5.5l0.1-6.7v-63.5q0 0 0 0z" />
		</g>
		<path id="a" fill-rule="evenodd" class="s10" d="m309.7 264.9v14c0 2.9-1.1 5.5-2.9 7.4c-1.8 1.9-4.2 3-6.9 3c-2.6 0-5.1-1.1-6.9-3.1c-1.7-1.8-2.8-4.5-2.8-7.3v-14zm-12.9 5.3c0-1.1-0.8-1.9-1.9-1.9c-1.1 0-1.9 0.8-1.9 1.9c0 1.1 0.8 1.9 1.9 1.9c1.1 0 1.9-0.8 1.9-1.9zm10.6 0c0-1.1-0.9-1.9-1.9-1.9c-1.1 0-2 0.8-2 1.9c0 1.1 0.9 1.9 2 1.9c1 0 1.9-0.8 1.9-1.9zm-5.4 5.2c0-1.1-0.9-1.9-1.9-1.9c-1.1 0-2 0.8-2 1.9c0 1 0.9 1.9 2 1.9c1 0 1.9-0.9 1.9-1.9zm5.4 5.4c0-1.1-0.9-1.9-1.9-1.9c-1.1 0-2 0.8-2 1.9c0 1.1 0.9 1.9 2 1.9c1 0 1.9-0.8 1.9-1.9zm-14.4 0q0 0.4 0.2 0.7q0.1 0.4 0.4 0.7q0.2 0.2 0.6 0.4q0.4 0.1 0.7 0.1c1.1 0 2-0.8 2-1.9c0-1.1-0.9-1.9-2-1.9c-1 0-1.9 0.8-1.9 1.9z" />
		<path id="a" fill-rule="evenodd" class="s10" d="m309.6 298.4v13.9c0 2.9-1.1 5.5-2.9 7.4c-1.7 1.9-4.2 3.1-6.9 3.1c-2.6 0-5.1-1.2-6.8-3.1c-1.8-1.9-2.9-4.5-2.9-7.4v-14zm-12.8 5.3c0-1-0.9-1.9-2-1.9c-1 0-1.9 0.9-1.9 1.9c0 1.1 0.9 2 1.9 2c1.1 0 2-0.9 2-2zm10.5 0c0-1-0.8-1.9-1.9-1.9c-1.1 0-1.9 0.9-1.9 1.9c0 1.1 0.8 2 1.9 2c1.1 0 1.9-0.9 1.9-2zm-5.4 5.2c0-1-0.9-1.9-1.9-1.9c-1.1 0-1.9 0.9-1.9 1.9c0 1.1 0.8 2 1.9 2c1 0 1.9-0.9 1.9-2zm5.4 5.4c0-1-0.9-1.9-1.9-1.9c-1.1 0-2 0.9-2 1.9c0 1.1 0.9 2 2 2c1 0 1.9-0.9 1.9-2zm-14.4 0.1q0 0.3 0.2 0.7q0.1 0.4 0.4 0.6q0.3 0.3 0.6 0.4q0.4 0.2 0.7 0.2c1.1 0 2-0.9 2-1.9c0-1.1-0.9-2-2-2c-1 0-1.9 0.9-1.9 2z" />
		<path id="a" fill-rule="evenodd" class="s10" d="m282.7 264.9v14c0 2.9-1.1 5.5-2.9 7.4c-1.7 1.9-4.2 3-6.9 3c-2.6 0-5.1-1.1-6.8-3.1c-1.8-1.8-2.9-4.5-2.9-7.3v-14zm-12.8 5.3c0-1.1-0.9-1.9-2-1.9c-1 0-1.9 0.8-1.9 1.9c0 1.1 0.9 1.9 1.9 1.9c1.1 0 2-0.8 2-1.9zm10.5 0c0-1.1-0.8-1.9-1.9-1.9c-1.1 0-1.9 0.8-1.9 1.9c0 1.1 0.8 1.9 1.9 1.9c1.1 0 1.9-0.8 1.9-1.9zm-5.4 5.2c0-1.1-0.9-1.9-1.9-1.9c-1.1 0-2 0.8-2 1.9c0 1 0.9 1.9 2 1.9c1 0 1.9-0.9 1.9-1.9zm5.4 5.4c0-1.1-0.9-1.9-1.9-1.9c-1.1 0-2 0.8-2 1.9c0 1.1 0.9 1.9 2 1.9c1 0 1.9-0.8 1.9-1.9zm-14.4 0q0 0.4 0.2 0.7q0.1 0.4 0.4 0.7q0.3 0.2 0.6 0.4q0.4 0.1 0.7 0.1c1.1 0 2-0.8 2-1.9c0-1.1-0.9-1.9-2-1.9c-1 0-1.9 0.8-1.9 1.9z" />
		<path id="a" fill-rule="evenodd" class="s10" d="m336.7 264.9v14c0 2.9-1.1 5.5-2.9 7.4c-1.7 1.9-4.2 3-6.9 3c-2.6 0-5.1-1.1-6.8-3.1c-1.8-1.8-2.9-4.5-2.9-7.3v-14zm-12.8 5.3c0-1.1-0.9-1.9-2-1.9c-1 0-1.9 0.8-1.9 1.9c0 1.1 0.9 1.9 1.9 1.9c1.1 0 2-0.8 2-1.9zm10.5 0c0-1.1-0.8-1.9-1.9-1.9c-1.1 0-1.9 0.8-1.9 1.9c0 1.1 0.8 1.9 1.9 1.9c1.1 0 1.9-0.8 1.9-1.9zm-5.4 5.2c0-1.1-0.9-1.9-1.9-1.9c-1.1 0-1.9 0.8-1.9 1.9c0 1 0.8 1.9 1.9 1.9c1 0 1.9-0.9 1.9-1.9zm5.4 5.4c0-1.1-0.9-1.9-1.9-1.9c-1.1 0-1.9 0.8-1.9 1.9c0 1.1 0.8 1.9 1.9 1.9c1 0 1.9-0.8 1.9-1.9zm-14.4 0q0 0.4 0.2 0.7q0.1 0.4 0.4 0.7q0.3 0.2 0.6 0.4q0.4 0.1 0.7 0.1c1.1 0 2-0.8 2-1.9c0-1.1-0.9-1.9-2-1.9c-1 0-1.9 0.8-1.9 1.9z" />
		<path id="a" fill-rule="evenodd" class="s10" d="m309.7 231.1v14c0 2.9-1.1 5.5-2.9 7.4c-1.8 1.9-4.2 3.1-6.9 3.1c-2.6 0-5.1-1.2-6.9-3.1c-1.7-1.9-2.8-4.5-2.8-7.4v-14zm-12.9 5.3c0-1-0.8-1.9-1.9-1.9c-1.1 0-1.9 0.9-1.9 1.9c0 1.1 0.8 2 1.9 2c1.1 0 1.9-0.9 1.9-2zm10.6 0c0-1-0.9-1.9-1.9-1.9c-1.1 0-2 0.9-2 1.9c0 1.1 0.9 2 2 2c1 0 1.9-0.9 1.9-2zm-5.4 5.2c0-1-0.9-1.9-1.9-1.9c-1.1 0-2 0.9-2 1.9c0 1.1 0.9 1.9 2 1.9c1 0 1.9-0.8 1.9-1.9zm5.4 5.4c0-1-0.9-1.9-1.9-1.9c-1.1 0-2 0.9-2 1.9c0 1.1 0.9 2 2 2c1 0 1.9-0.9 1.9-2zm-14.4 0q0 0.4 0.2 0.8q0.1 0.3 0.4 0.6q0.2 0.3 0.6 0.4q0.4 0.2 0.7 0.2c1.1 0 2-0.9 2-2c0-1-0.9-1.9-2-1.9c-1 0-1.9 0.9-1.9 1.9z" />
		<g id="e">
			<path id="Layer" fill-rule="evenodd" class="s7" d="m235.1 216.6c0.2-7.1 5.3-8.8 5.3-8.9c0 0 5.5 1.9 5.5 9z" />
			<path id="Layer" fill-rule="evenodd" class="s11" d="m230.7 207.9l19.5-0.1l1 8.3h-5.4c-0.1-6.4-5.2-7.9-5.3-7.9c-0.1 0-5.2 1.1-5.3 7.9h-5.4l0.9-8.2q0 0 0 0z" />
			<path id="Layer" fill-rule="evenodd" class="s11" d="m229.5 216.1h22c0.4 0 0.8 0.5 0.8 1c0 0.6-0.4 1.1-0.8 1.1h-22c-0.5 0-0.9-0.5-0.9-1.1c0-0.5 0.4-1 0.9-1z" />
			<path id="Layer" class="s1" d="m237.5 216.1c0-4.3 2.9-5.5 2.9-5.5c0 0 3.1 1.2 3.1 5.5z" />
			<path id="Layer" fill-rule="evenodd" class="s11" d="m229.9 204.4h21.1c0.5 0 0.8 0.5 0.8 1c0 0.5-0.3 0.9-0.8 0.9h-21.1c-0.4 0-0.8-0.4-0.8-0.9c0-0.5 0.4-1 0.8-1z" />
			<path id="Layer" fill-rule="evenodd" class="s11" d="m230.4 206.3h20.1c0.5 0 0.8 0.4 0.8 0.9c0 0.5-0.3 0.9-0.8 0.9h-20.1c-0.4 0-0.8-0.4-0.8-0.9c0-0.5 0.4-0.9 0.8-0.9z" />
			<path id="Layer" fill-rule="evenodd" class="s11" d="m236.9 192.5h1.6v1.2h1.2v-1.2h1.6v1.2h1.1v-1.2h1.7v2.6c0 0.4-0.4 0.7-0.7 0.7h-5.8c-0.3 0-0.7-0.3-0.7-0.7v-2.6q0 0 0 0z" />
			<path id="Layer" fill-rule="evenodd" class="s11" d="m242.9 196l0.4 8.4h-5.6l0.3-8.4c0 0 4.9 0 4.9 0z" />
			<path id="b" fill-rule="evenodd" class="s12" d="m249.8 199.9l0.2 4.5h-5.3l0.1-4.5c0 0 5 0 5 0z" />
			<path id="c" fill-rule="evenodd" class="s11" d="m243.8 196.6h1.6v1.2h1.1v-1.2h1.6v1.2h1.2v-1.2h1.6v2.6c0 0.4-0.4 0.7-0.7 0.7h-5.6c-0.4 0-0.8-0.3-0.8-0.7c0 0 0-2.6 0-2.6z" />
			<path id="c" fill-rule="evenodd" class="s11" d="m230.1 196.6h1.5v1.2h1.2v-1.2h1.6v1.2h1.1v-1.2h1.6v2.6c0 0.4-0.3 0.7-0.7 0.7h-5.6c-0.4 0-0.7-0.3-0.7-0.7c0 0 0-2.6 0-2.6z" />
			<path id="b" fill-rule="evenodd" class="s12" d="m236.1 199.9l0.2 4.5h-5.4l0.1-4.5c0 0 5.1 0 5.1 0z" />
			<path id="Layer" fill-rule="evenodd" class="s13" d="m239.9 198.7c0-0.8 1.2-0.8 1.1 0v2h-1.1z" />
			<path id="d" fill-rule="evenodd" class="s13" d="m246.8 201.6c0-0.8 1.1-0.8 1.1 0v1.5h-1.1z" />
			<path id="d" fill-rule="evenodd" class="s13" d="m233 201.6c0-0.8 1.1-0.8 1.1 0v1.5h-1.1z" />
		</g>
		<g id="e">
			<path id="Layer" fill-rule="evenodd" class="s7" d="m294.1 216.6c0.2-7.1 5.3-8.8 5.3-8.9c0 0 5.5 1.9 5.5 9z" />
			<path id="Layer" fill-rule="evenodd" class="s11" d="m289.7 207.9l19.5-0.1l1 8.3h-5.4c-0.1-6.4-5.2-7.9-5.3-7.9c-0.1 0-5.3 1.1-5.3 7.9h-5.4l0.9-8.2q0 0 0 0z" />
			<path id="Layer" fill-rule="evenodd" class="s11" d="m288.5 216.1h22c0.4 0 0.8 0.5 0.8 1c0 0.6-0.4 1.1-0.8 1.1h-22c-0.5 0-0.9-0.5-0.9-1.1c0-0.5 0.4-1 0.9-1z" />
			<path id="Layer" class="s1" d="m296.5 216.1c0-4.3 2.9-5.5 2.9-5.5c0 0 3.1 1.2 3.1 5.5z" />
			<path id="Layer" fill-rule="evenodd" class="s11" d="m288.9 204.4h21.1c0.5 0 0.8 0.5 0.8 1c0 0.5-0.3 0.9-0.8 0.9h-21.1c-0.4 0-0.8-0.4-0.8-0.9c0-0.5 0.4-1 0.8-1z" />
			<path id="Layer" fill-rule="evenodd" class="s11" d="m289.4 206.3h20.1c0.5 0 0.8 0.4 0.8 0.9c0 0.5-0.3 0.9-0.8 0.9h-20.1c-0.5 0-0.8-0.4-0.8-0.9c0-0.5 0.3-0.9 0.8-0.9z" />
			<path id="Layer" fill-rule="evenodd" class="s11" d="m295.9 192.5h1.6v1.2h1.1v-1.2h1.7v1.2h1.1v-1.2h1.7v2.6c0 0.4-0.4 0.7-0.7 0.7h-5.8c-0.4 0-0.7-0.3-0.7-0.7v-2.6q0 0 0 0z" />
			<path id="Layer" fill-rule="evenodd" class="s11" d="m301.9 196l0.3 8.4h-5.5l0.3-8.4c0 0 4.9 0 4.9 0z" />
			<path id="b" fill-rule="evenodd" class="s12" d="m308.8 199.9l0.2 4.5h-5.3l0.1-4.5c0 0 5 0 5 0z" />
			<path id="c" fill-rule="evenodd" class="s11" d="m302.8 196.6h1.6v1.2h1.1v-1.2h1.6v1.2h1.1v-1.2h1.6v2.6c0 0.4-0.3 0.7-0.7 0.7h-5.6c-0.3 0-0.7-0.3-0.7-0.7c0 0 0-2.6 0-2.6z" />
			<path id="c" fill-rule="evenodd" class="s11" d="m289.1 196.6h1.5v1.2h1.1v-1.2h1.6v1.2h1.2v-1.2h1.6v2.6c0 0.4-0.3 0.7-0.7 0.7h-5.6c-0.4 0-0.7-0.3-0.7-0.7c0 0-0.1-2.6 0-2.6z" />
			<path id="b" fill-rule="evenodd" class="s12" d="m295.1 199.9l0.1 4.5h-5.3l0.1-4.5c0 0 5.1 0 5.1 0z" />
			<path id="Layer" fill-rule="evenodd" class="s13" d="m298.9 198.7c0-0.8 1.1-0.8 1.1 0v2h-1.1z" />
			<path id="d" fill-rule="evenodd" class="s13" d="m305.8 201.6c0-0.8 1.1-0.8 1.1 0v1.5h-1.1z" />
			<path id="d" fill-rule="evenodd" class="s13" d="m292 201.6c0-0.8 1.1-0.8 1.1 0v1.5h-1.1z" />
		</g>
		<g id="e">
			<path id="Layer" fill-rule="evenodd" class="s7" d="m353.1 216.6c0.2-7.1 5.2-8.8 5.3-8.9c0 0 5.5 1.9 5.5 9z" />
			<path id="Layer" fill-rule="evenodd" class="s11" d="m348.7 207.9l19.5-0.1l1 8.3h-5.4c-0.2-6.4-5.2-7.9-5.3-7.9c-0.2 0-5.3 1.1-5.3 7.9h-5.4l0.9-8.2q0 0 0 0z" />
			<path id="Layer" fill-rule="evenodd" class="s11" d="m347.5 216.1h21.9c0.5 0 0.9 0.5 0.9 1c0 0.6-0.4 1.1-0.9 1.1h-21.9c-0.5 0-0.9-0.5-0.9-1.1c0-0.5 0.4-1 0.9-1z" />
			<path id="Layer" class="s1" d="m355.5 216.1c0-4.3 2.9-5.5 2.9-5.5c0 0 3 1.2 3.1 5.5z" />
			<path id="Layer" fill-rule="evenodd" class="s11" d="m347.9 204.4h21.1c0.4 0 0.8 0.5 0.8 1c0 0.5-0.4 0.9-0.8 0.9h-21.1c-0.4 0-0.8-0.4-0.8-0.9c0-0.5 0.4-1 0.8-1z" />
			<path id="Layer" fill-rule="evenodd" class="s11" d="m348.4 206.3h20.1c0.5 0 0.8 0.4 0.8 0.9c0 0.5-0.3 0.9-0.8 0.9h-20.1c-0.5 0-0.8-0.4-0.8-0.9c0-0.5 0.3-0.9 0.8-0.9z" />
			<path id="Layer" fill-rule="evenodd" class="s11" d="m354.9 192.5h1.6v1.2h1.1v-1.2h1.7v1.2h1.1v-1.2h1.7v2.6c0 0.4-0.4 0.7-0.8 0.7h-5.7c-0.4 0-0.7-0.3-0.7-0.7v-2.6q0 0 0 0z" />
			<path id="Layer" fill-rule="evenodd" class="s11" d="m360.9 196l0.3 8.4h-5.5l0.3-8.4c0 0 4.9 0 4.9 0z" />
			<path id="b" fill-rule="evenodd" class="s12" d="m367.8 199.9l0.2 4.5h-5.4l0.2-4.5c0 0 5 0 5 0z" />
			<path id="c" fill-rule="evenodd" class="s11" d="m361.8 196.6h1.6v1.2h1.1v-1.2h1.6v1.2h1.1v-1.2h1.6v2.6c0 0.4-0.3 0.7-0.7 0.7h-5.6c-0.3 0-0.7-0.3-0.7-0.7c0 0 0-2.6 0-2.6z" />
			<path id="c" fill-rule="evenodd" class="s11" d="m348 196.6h1.6v1.2h1.1v-1.2h1.6v1.2h1.2v-1.2h1.6v2.6c0 0.4-0.4 0.7-0.7 0.7h-5.6c-0.4 0-0.8-0.3-0.8-0.7c0 0 0-2.6 0-2.6z" />
			<path id="b" fill-rule="evenodd" class="s12" d="m354.1 199.9l0.1 4.5h-5.3l0.1-4.5c0 0 5.1 0 5.1 0z" />
			<path id="Layer" fill-rule="evenodd" class="s13" d="m357.9 198.7c0-0.8 1.1-0.8 1.1 0v2h-1.1z" />
			<path id="d" fill-rule="evenodd" class="s13" d="m364.8 201.6c0-0.8 1.1-0.8 1.1 0v1.5h-1.1z" />
			<path id="d" fill-rule="evenodd" class="s13" d="m351 201.6c0-0.8 1.1-0.8 1.1 0v1.5h-1.1z" />
		</g>
		<g id="e">
			<path id="Layer" fill-rule="evenodd" class="s7" d="m235.1 276.7c0.2-7.1 5.3-8.8 5.3-8.9c0 0 5.5 1.9 5.5 9z" />
			<path id="Layer" fill-rule="evenodd" class="s11" d="m230.7 268l19.5-0.1l1 8.3h-5.4c-0.1-6.4-5.2-7.9-5.3-7.9c-0.1 0-5.2 1.1-5.3 7.9h-5.4l0.9-8.2q0 0 0 0z" />
			<path id="Layer" fill-rule="evenodd" class="s11" d="m229.5 276.2h22c0.4 0 0.8 0.5 0.8 1.1c0 0.5-0.4 1-0.8 1h-22c-0.5 0-0.9-0.5-0.9-1c0-0.6 0.4-1.1 0.9-1.1z" />
			<path id="Layer" class="s1" d="m237.5 276.2c0-4.3 2.9-5.5 2.9-5.5c0 0 3.1 1.2 3.1 5.5z" />
			<path id="Layer" fill-rule="evenodd" class="s11" d="m229.9 264.5h21.1c0.5 0 0.8 0.5 0.8 1c0 0.5-0.3 0.9-0.8 0.9h-21.1c-0.4 0-0.8-0.4-0.8-0.9c0-0.5 0.4-1 0.8-1z" />
			<path id="Layer" fill-rule="evenodd" class="s11" d="m230.4 266.4h20.1c0.5 0 0.8 0.4 0.8 0.9c0 0.5-0.3 0.9-0.8 0.9h-20.1c-0.4 0-0.8-0.4-0.8-0.9c0-0.5 0.4-0.9 0.8-0.9z" />
			<path id="Layer" fill-rule="evenodd" class="s11" d="m236.9 252.6l1.6 0.1v1.1h1.2v-1.2h1.6v1.2h1.1v-1.2h1.7v2.6c0 0.4-0.4 0.7-0.7 0.7h-5.8c-0.3 0-0.7-0.3-0.7-0.7v-2.6q0 0 0 0z" />
			<path id="Layer" fill-rule="evenodd" class="s11" d="m242.9 256.1l0.4 8.4h-5.6l0.3-8.4c0 0 4.9 0 4.9 0z" />
			<path id="b" fill-rule="evenodd" class="s12" d="m249.8 260l0.2 4.5h-5.3l0.1-4.5c0 0 5 0 5 0z" />
			<path id="c" fill-rule="evenodd" class="s11" d="m243.8 256.7h1.6v1.2h1.1v-1.2h1.6v1.2h1.2v-1.2h1.6v2.6c0 0.4-0.4 0.7-0.7 0.7h-5.6c-0.4 0-0.8-0.3-0.8-0.7c0 0 0-2.6 0-2.6z" />
			<path id="c" fill-rule="evenodd" class="s11" d="m230.1 256.8h1.5v1.1h1.2v-1.2h1.6v1.2h1.1v-1.2h1.6v2.6c0 0.5-0.3 0.7-0.7 0.7h-5.6c-0.4 0-0.7-0.3-0.7-0.7c0 0 0-2.5 0-2.5z" />
			<path id="b" fill-rule="evenodd" class="s12" d="m236.1 260l0.2 4.5h-5.4l0.1-4.5c0 0 5.1 0 5.1 0z" />
			<path id="Layer" fill-rule="evenodd" class="s13" d="m239.9 258.8c0-0.8 1.2-0.8 1.1 0v2h-1.1z" />
			<path id="d" fill-rule="evenodd" class="s13" d="m246.8 261.7c0-0.8 1.1-0.8 1.1 0v1.5h-1.1z" />
			<path id="d" fill-rule="evenodd" class="s13" d="m233 261.7c0-0.8 1.1-0.8 1.1 0v1.5h-1.1z" />
		</g>
		<g id="e">
			<path id="Layer" fill-rule="evenodd" class="s7" d="m353 276.7c0.2-7.1 5.3-8.8 5.3-8.9c0 0 5.5 1.9 5.5 9z" />
			<path id="Layer" fill-rule="evenodd" class="s11" d="m348.6 268l19.5-0.1l1 8.3h-5.4c-0.1-6.4-5.2-7.9-5.3-7.9c-0.1 0-5.3 1.1-5.3 7.9h-5.4l0.9-8.2q0 0 0 0z" />
			<path id="Layer" fill-rule="evenodd" class="s11" d="m347.4 276.2h22c0.4 0 0.8 0.5 0.8 1.1c0 0.5-0.4 1-0.8 1h-22c-0.5 0-0.9-0.5-0.9-1c0-0.6 0.4-1.1 0.9-1.1z" />
			<path id="Layer" class="s1" d="m355.4 276.2c0-4.3 2.9-5.5 2.9-5.5c0 0 3.1 1.2 3.1 5.5z" />
			<path id="Layer" fill-rule="evenodd" class="s11" d="m347.8 264.5h21.1c0.5 0 0.8 0.5 0.8 1c0 0.5-0.3 0.9-0.8 0.9h-21.1c-0.4 0-0.8-0.4-0.8-0.9c0-0.5 0.4-1 0.8-1z" />
			<path id="Layer" fill-rule="evenodd" class="s11" d="m348.3 266.4h20.1c0.5 0 0.8 0.4 0.8 0.9c0 0.5-0.3 0.9-0.8 0.9h-20.1c-0.4 0-0.8-0.4-0.8-0.9c0-0.5 0.4-0.9 0.8-0.9z" />
			<path id="Layer" fill-rule="evenodd" class="s11" d="m354.8 252.6l1.6 0.1v1.1h1.1v-1.2h1.7v1.2h1.1v-1.2h1.7v2.6c0 0.4-0.4 0.7-0.7 0.7h-5.8c-0.4 0-0.7-0.3-0.7-0.7v-2.6q0 0 0 0z" />
			<path id="Layer" fill-rule="evenodd" class="s11" d="m360.8 256.1l0.3 8.4h-5.5l0.3-8.4c0 0 4.9 0 4.9 0z" />
			<path id="b" fill-rule="evenodd" class="s12" d="m367.7 260l0.2 4.5h-5.3l0.1-4.5c0 0 5 0 5 0z" />
			<path id="c" fill-rule="evenodd" class="s11" d="m361.7 256.7h1.6v1.2h1.1v-1.2h1.6v1.2h1.1v-1.2h1.6v2.6c0 0.4-0.3 0.7-0.7 0.7h-5.6c-0.3 0-0.7-0.3-0.7-0.7c0 0 0-2.6 0-2.6z" />
			<path id="c" fill-rule="evenodd" class="s11" d="m348 256.8h1.5v1.1h1.1v-1.2h1.6v1.2h1.2v-1.2h1.6v2.6c0 0.5-0.3 0.7-0.7 0.7h-5.6c-0.4 0-0.7-0.3-0.7-0.7c0 0 0-2.5 0-2.5z" />
			<path id="b" fill-rule="evenodd" class="s12" d="m354 260l0.1 4.5h-5.3l0.1-4.5c0 0 5.1 0 5.1 0z" />
			<path id="Layer" fill-rule="evenodd" class="s13" d="m357.8 258.8c0-0.8 1.1-0.8 1.1 0v2h-1.1z" />
			<path id="d" fill-rule="evenodd" class="s13" d="m364.7 261.7c0-0.8 1.1-0.8 1.1 0v1.5h-1.1z" />
			<path id="d" fill-rule="evenodd" class="s13" d="m350.9 261.7c0-0.8 1.1-0.8 1.1 0v1.5h-1.1z" />
		</g>
		<g id="e">
			<path id="Layer" fill-rule="evenodd" class="s7" d="m258.5 339.3c-4.9-5.2-2.5-10-2.5-10c0-0.1 5.1-2.6 10.2 2.4z" />
			<path id="Layer" fill-rule="evenodd" class="s11" d="m249.2 336.2l13.8-13.8l6.5 5.2l-3.8 3.8c-4.6-4.5-9.3-2-9.4-1.9c-0.1 0.1-2.9 4.5 1.9 9.4l-3.8 3.8l-5.2-6.5q0 0 0 0z" />
			<path id="Layer" fill-rule="evenodd" class="s11" d="m254.2 342.9l15.5-15.5c0.4-0.3 0.9-0.3 1.3 0.1c0.4 0.4 0.5 1 0.2 1.3l-15.6 15.6c-0.3 0.3-0.9 0.2-1.3-0.1c-0.4-0.4-0.5-1-0.1-1.4z" />
			<path id="Layer" class="s1" d="m259.8 337.3c-3-3.1-1.8-6-1.8-6c0 0 3-1.3 6.1 1.7z" />
			<path id="Layer" fill-rule="evenodd" class="s11" d="m246.2 334.3l14.9-14.9c0.4-0.3 0.9-0.2 1.3 0.1c0.3 0.4 0.4 0.9 0 1.2l-14.9 14.9c-0.3 0.4-0.8 0.3-1.2 0c-0.3-0.4-0.4-0.9-0.1-1.3z" />
			<path id="Layer" fill-rule="evenodd" class="s11" d="m247.9 335.3l14.2-14.2c0.3-0.3 0.8-0.3 1.2 0.1c0.4 0.3 0.4 0.9 0.1 1.2l-14.3 14.2c-0.3 0.3-0.8 0.3-1.1-0.1c-0.4-0.3-0.4-0.9-0.1-1.2z" />
			<path id="Layer" fill-rule="evenodd" class="s11" d="m242.7 321l1.2-1.1l0.8 0.8l0.8-0.8l-0.8-0.9l1.1-1.1l0.8 0.8l0.9-0.8l-0.8-0.8l1.1-1.2l1.9 1.9c0.2 0.3 0.2 0.7-0.1 0.9l-4 4.1c-0.3 0.3-0.8 0.3-1 0l-1.9-1.8q0 0 0 0z" />
			<path id="Layer" fill-rule="evenodd" class="s11" d="m249.5 319.2l6.1 5.7l-3.9 3.9l-5.7-6.1c0 0 3.5-3.5 3.5-3.5z" />
			<path id="b" fill-rule="evenodd" class="s12" d="m257.1 317.1l3.3 3l-3.8 3.8l-3-3.3c0 0 3.5-3.5 3.5-3.5z" />
			<path id="c" fill-rule="evenodd" class="s11" d="m250.5 319l1.1-1.1l0.8 0.8l0.8-0.8l-0.8-0.8l1.2-1.1l0.8 0.8l0.8-0.8l-0.8-0.9l1.1-1.1l1.8 1.9c0.3 0.3 0.3 0.7 0 0.9l-3.9 4c-0.3 0.3-0.8 0.3-1 0c0 0-1.9-1.8-1.9-1.8z" />
			<path id="c" fill-rule="evenodd" class="s11" d="m240.8 328.7l1.1-1.1l0.8 0.8l0.8-0.8l-0.8-0.8l1.1-1.1l0.9 0.8l0.8-0.8l-0.9-0.8l1.2-1.1l1.8 1.8c0.3 0.3 0.3 0.7 0 1l-4 3.9c-0.2 0.3-0.7 0.3-1 0.1c0 0-1.8-1.9-1.8-1.9z" />
			<path id="b" fill-rule="evenodd" class="s12" d="m247.4 326.8l3.3 3.1l-3.8 3.8l-3.1-3.3c0 0 3.6-3.6 3.6-3.6z" />
			<path id="Layer" fill-rule="evenodd" class="s13" d="m249.2 323.2c-0.6-0.5 0.2-1.4 0.8-0.8l1.4 1.4l-0.8 0.8z" />
			<path id="d" fill-rule="evenodd" class="s13" d="m256.1 320.4c-0.5-0.6 0.2-1.3 0.8-0.8l1.1 1.1l-0.8 0.8z" />
			<path id="d" fill-rule="evenodd" class="s13" d="m246.4 330.2c-0.6-0.6 0.2-1.4 0.7-0.8l1.1 1.1l-0.7 0.7z" />
		</g>
		<g id="e">
			<path id="Layer" fill-rule="evenodd" class="s7" d="m333.1 331.8c5.2-5 10-2.6 10.1-2.5c0 0 2.5 5.1-2.5 10.2z" />
			<path id="Layer" fill-rule="evenodd" class="s11" d="m336.2 322.5l13.8 13.7l-5.1 6.6l-3.9-3.8c4.5-4.6 2-9.3 1.9-9.4c-0.1-0.1-4.5-2.9-9.3 1.9l-3.8-3.8l6.4-5.2q0 0 0 0z" />
			<path id="Layer" fill-rule="evenodd" class="s11" d="m329.5 327.5l15.5 15.5c0.4 0.3 0.3 0.9-0.1 1.3c-0.4 0.4-1 0.5-1.3 0.1l-15.5-15.5c-0.4-0.3-0.3-0.9 0.1-1.3c0.4-0.4 1-0.5 1.3-0.1z" />
			<path id="Layer" class="s1" d="m335.2 333.1c3-3 5.9-1.8 6-1.8c0 0 1.2 3-1.8 6z" />
			<path id="Layer" fill-rule="evenodd" class="s11" d="m338.1 319.5l14.9 14.9c0.3 0.3 0.3 0.9-0.1 1.3c-0.3 0.3-0.9 0.3-1.2 0l-14.9-14.9c-0.3-0.3-0.3-0.8 0.1-1.2c0.3-0.3 0.9-0.4 1.2-0.1z" />
			<path id="Layer" fill-rule="evenodd" class="s11" d="m337.1 321.1l14.3 14.3c0.3 0.3 0.2 0.8-0.1 1.2c-0.4 0.3-0.9 0.4-1.2 0.1l-14.3-14.3c-0.3-0.3-0.2-0.8 0.1-1.2c0.4-0.3 0.9-0.4 1.2-0.1z" />
			<path id="Layer" fill-rule="evenodd" class="s11" d="m351.4 316l1.1 1.2l-0.8 0.8l0.9 0.8l0.8-0.8l1.1 1.1l-0.8 0.8l0.8 0.9l0.9-0.9l1.1 1.2l-1.8 1.8c-0.3 0.3-0.7 0.3-1 0l-4.1-4c-0.2-0.3-0.3-0.8 0-1l1.8-1.9q0 0 0 0z" />
			<path id="Layer" fill-rule="evenodd" class="s11" d="m353.2 322.7l-5.7 6.2l-3.9-3.9l6.2-5.7c0 0 3.4 3.4 3.4 3.4z" />
			<path id="b" fill-rule="evenodd" class="s12" d="m355.4 330.4l-3.1 3.3l-3.8-3.8l3.3-3.1c0 0 3.6 3.6 3.6 3.6z" />
			<path id="c" fill-rule="evenodd" class="s11" d="m353.4 323.8l1.1 1.1l-0.8 0.8l0.8 0.8l0.8-0.8l1.2 1.1l-0.8 0.9l0.8 0.8l0.8-0.8l1.1 1.1l-1.8 1.8c-0.3 0.3-0.7 0.3-1 0l-4-4c-0.2-0.2-0.3-0.7 0-0.9c0 0 1.8-1.9 1.8-1.9z" />
			<path id="c" fill-rule="evenodd" class="s11" d="m343.7 314.1l1.1 1.1l-0.8 0.8l0.8 0.8l0.8-0.8l1.1 1.1l-0.8 0.8l0.8 0.8l0.8-0.8l1.2 1.2l-1.9 1.8c-0.3 0.3-0.7 0.2-1 0l-3.9-4c-0.3-0.2-0.3-0.7 0-1c0 0 1.8-1.8 1.8-1.8z" />
			<path id="b" fill-rule="evenodd" class="s12" d="m345.6 320.7l-3 3.3l-3.8-3.8l3.3-3.1c0 0 3.5 3.6 3.5 3.6z" />
			<path id="Layer" fill-rule="evenodd" class="s13" d="m349.2 322.5c0.6-0.6 1.4 0.2 0.8 0.8l-1.4 1.4l-0.8-0.8z" />
			<path id="d" fill-rule="evenodd" class="s13" d="m352 329.4c0.6-0.5 1.4 0.2 0.8 0.8l-1.1 1.1l-0.8-0.8z" />
			<path id="d" fill-rule="evenodd" class="s13" d="m342.3 319.7c0.5-0.6 1.3 0.2 0.7 0.7l-1.1 1.1l-0.7-0.7z" />
		</g>
	</g>
</svg>