<svg version="1.2" baseProfile="tiny-ps" xmlns="http://www.w3.org/2000/svg" viewBox="0 0 900 600" width="900" height="600">
	<defs>
		<clipPath clipPathUnits="userSpaceOnUse" id="cp1">
			<path d="m0 0h450v300h-450v-300z" />
		</clipPath>
	</defs>
	<style>
		tspan { white-space:pre }
		.s0 { fill: #00247d } 
		.s1 { fill: #f7f0d0;stroke: #000000;stroke-width: 1.1 } 
		.s2 { fill: #3ebbff;stroke: #000000;stroke-linejoin:bevel;stroke-width: 1.1 } 
		.s3 { fill: #cfc0a8;stroke: #000000;stroke-width: 1.1 } 
		.s4 { fill: #decc59;stroke: #000000;stroke-linejoin:round;stroke-width: .9 } 
		.s5 { fill: #cfc0a8;stroke: #000000;stroke-linejoin:bevel;stroke-width: .9 } 
		.s6 { fill: #fcf3d6;stroke: #000000;stroke-width: 1.1 } 
		.s7 { fill: #decc59;stroke: #000000;stroke-linejoin:bevel;stroke-width: .9 } 
		.s8 { fill: #decc59;stroke: #000000;stroke-width: 1.1 } 
		.s9 { fill: none;stroke: #000000;stroke-width: .9 } 
		.s10 { fill: none;stroke: #000000;stroke-width: .8 } 
		.s11 { fill: #fcf3d6;stroke: #000000;stroke-width: .9 } 
		.s12 { fill: #cfc0a8;stroke: #000000;stroke-linejoin:bevel;stroke-width: 1.1 } 
		.s13 { fill: #fcf3d6 } 
		.s14 { fill: #cd400f } 
		.s15 { fill: none;stroke: #000000;stroke-width: 1.1 } 
		.s16 { fill: #32311b;stroke: #000000;stroke-width: .6 } 
		.s17 { fill: none;stroke: #000000;stroke-linejoin:bevel;stroke-width: 1.4 } 
		.s18 { fill: #608238 } 
		.s19 { fill: #decc59;stroke: #000000;stroke-width: .9 } 
		.s20 { fill: #3aa6ee;stroke: #000000;stroke-linejoin:bevel;stroke-width: 1.1 } 
		.s21 { fill: #cfc0a8;stroke: #000000;stroke-width: .9 } 
		.s22 { fill: #608238;stroke: #000000;stroke-width: .9 } 
		.s23 { fill: #000000;stroke: #ffffff;stroke-width: 52 } 
		.s24 { fill: none;stroke: #ffffff;stroke-width: 86.7 } 
		.s25 { fill: none;stroke: #cf142b;stroke-width: 52 } 
	</style>
	<path class="s0" d="m0 0h900v600h-900v-600z" />
	<g >
		<path class="s1" d="m566.8 356.52c3.33 0 6.65 0.63 9.98 1.87c0.83 0.31 1.66 0.58 2.49 0.81h0.01c0.21 0.06 0.41 0.12 0.61 0.17h0.01c1.04 0.27 2.08 0.47 3.12 0.61h0.01c0.21 0.03 0.41 0.06 0.61 0.09h0.01c1.66 0.19 3.33 0.22 5 0.11c0.62-0.04 1.24-0.11 1.86-0.2c2.08-0.29 4.17-0.82 6.25-1.59c0.62-0.23 1.24-0.45 1.86-0.64c0.62-0.19 1.26-0.35 1.89-0.5c0.62-0.15 1.25-0.27 1.87-0.37c0.62-0.1 1.25-0.17 1.88-0.23c0.62-0.06 1.23-0.1 1.85-0.12c3.54-0.08 7.09 0.54 10.62 1.86c0.42 0.15 0.84 0.29 1.26 0.43c0.21 0.07 0.41 0.14 0.61 0.2c0.21 0.06 0.42 0.12 0.63 0.18h0.01c0.21 0.06 0.4 0.12 0.61 0.17h0.01c0.21 0.05 0.43 0.1 0.63 0.15c0.83 0.19 1.64 0.35 2.48 0.46c0.62 0.09 1.25 0.15 1.88 0.2c0.31 0.02 0.63 0.04 0.94 0.05c0.31 0.01 0.62 0.03 0.94 0.03c0.21 0 0.42 0 0.63-0.01c0.03 0 0.06 0 0.08 0c0.18-0.01 0.35-0.02 0.53-0.03h0.01c0.62-0.03 1.26-0.08 1.88-0.15c0.2-0.02 0.39-0.04 0.59-0.07c0.02 0 0.04-0.01 0.06-0.01c0.19-0.03 0.38-0.06 0.57-0.09c0.42-0.07 0.82-0.14 1.24-0.23c0.17-0.04 0.35-0.08 0.53-0.12c0.03-0.01 0.07-0.01 0.11-0.02c0.06-0.01 0.12-0.03 0.19-0.04c0.32-0.08 0.64-0.16 0.96-0.25c0.03-0.01 0.07-0.02 0.1-0.03c0.17-0.05 0.33-0.1 0.5-0.15c0.25-0.07 0.49-0.15 0.74-0.23c0.01 0 0.02-0.01 0.04-0.01c0.41-0.13 0.81-0.28 1.22-0.43c0.32-0.12 0.65-0.23 0.97-0.34c0.26-0.09 0.52-0.17 0.78-0.25c0.05-0.02 0.1-0.04 0.15-0.05c0.05-0.02 0.11-0.03 0.17-0.04c0.22-0.07 0.44-0.14 0.67-0.2c0.13-0.03 0.25-0.07 0.37-0.1c0.39-0.1 0.78-0.19 1.18-0.28c0.03-0.01 0.06-0.01 0.08-0.02c0.01 0 0.02-0.01 0.04-0.01c0.08-0.02 0.16-0.03 0.24-0.04c0.23-0.05 0.46-0.09 0.69-0.13c0.3-0.05 0.6-0.1 0.9-0.14c0.22-0.03 0.43-0.05 0.65-0.08c0.82-0.1 1.65-0.16 2.48-0.18c0.21 0 0.42-0.01 0.62-0.01c0.21 0 0.42 0 0.62 0.01c0.04 0 0.08 0 0.12 0c0.17 0.01 0.34 0.01 0.51 0.02c0.05 0 0.1 0.01 0.15 0.01c0.22 0.01 0.44 0.03 0.66 0.04c0.13 0.01 0.25 0.02 0.38 0.03c0.02 0 0.04 0.01 0.05 0.01c0.42 0.04 0.84 0.09 1.26 0.15c0.21 0.03 0.41 0.05 0.61 0.09c1.88 0.31 3.77 0.81 5.66 1.51c0.42 0.15 0.83 0.29 1.25 0.43c0.42 0.14 0.84 0.27 1.26 0.38c0.2 0.06 0.39 0.12 0.6 0.17c0 0 0.01 0 0.02 0h0.01c0.41 0.11 0.83 0.21 1.25 0.29c0.31 0.07 0.62 0.13 0.94 0.18c0.3 0.05 0.6 0.1 0.91 0.14c0.01 0 0.02 0 0.03 0c0.62 0.09 1.25 0.15 1.88 0.2c0.31 0.02 0.62 0.04 0.94 0.05c0.09 0 0.18 0.01 0.28 0.01c0.22 0.01 0.44 0.01 0.66 0.01c0.21 0 0.42 0 0.62-0.01c0.41-0.01 0.81-0.03 1.22-0.06c0.01 0 0.02 0 0.03 0c0.3-0.02 0.61-0.05 0.91-0.08c0.31-0.03 0.62-0.07 0.94-0.12c1.3-0.18 2.61-0.46 3.91-0.83c0.26-0.07 0.51-0.15 0.77-0.23c0.26-0.08 0.52-0.17 0.78-0.26c0.26-0.09 0.52-0.18 0.78-0.28c0.62-0.23 1.23-0.45 1.85-0.64c0.43-0.13 0.86-0.24 1.29-0.35c0.2-0.05 0.39-0.11 0.59-0.15c0.22-0.05 0.45-0.1 0.67-0.14c0.31-0.07 0.62-0.12 0.94-0.18c0.09-0.02 0.18-0.04 0.28-0.05c0.22-0.04 0.44-0.06 0.66-0.09c0.2-0.03 0.39-0.06 0.59-0.08c0.01 0 0.02 0 0.03 0c0.04 0 0.08 0 0.12-0.01c0.16-0.02 0.33-0.04 0.49-0.05c0.1-0.01 0.2-0.02 0.3-0.03c0.11-0.01 0.23-0.02 0.35-0.03h0.01c0.04 0 0.09-0.01 0.13-0.01c0.13-0.01 0.26-0.01 0.38-0.02c0.04 0 0.06-0.01 0.1-0.01c0.19-0.01 0.39-0.02 0.59-0.03c0.44-0.01 0.88-0.01 1.32 0c0.01 0 0.03 0 0.04 0c0.43 0.01 0.86 0.04 1.29 0.07c0.01 0 0.03 0 0.04 0c0.21 0.02 0.41 0.03 0.61 0.05c0.11 0.01 0.21 0.02 0.32 0.04c0.11 0.01 0.22 0.03 0.34 0.04c0.22 0.03 0.45 0.06 0.68 0.09c2 0.3 4 0.82 6 1.56h0.01c0.4 0.15 0.81 0.29 1.21 0.43c0.01 0 0.02 0.01 0.04 0.01c1 0.33 2.01 0.59 3.01 0.81c0.03 0.01 0.06 0.01 0.08 0.02c0.01 0 0.02 0.01 0.04 0.01c0.2 0.04 0.38 0.08 0.58 0.12c0.01 0 0.02 0.01 0.04 0.01c0.4 0.07 0.81 0.14 1.21 0.2c0.01 0 0.03 0.01 0.04 0.01c0.3 0.04 0.59 0.08 0.89 0.11c0.31 0.03 0.63 0.06 0.94 0.08c0.3 0.02 0.6 0.04 0.9 0.05c0.05 0 0.1 0 0.14 0c0.08 0 0.16 0.01 0.24 0.01c0.21 0 0.42 0.01 0.62 0.01c0.2 0 0.4 0 0.6-0.01c0.01 0 0.02 0 0.04 0c0.2 0 0.38-0.02 0.58-0.03h0.01c0.93-0.04 1.86-0.13 2.8-0.27c0.31-0.05 0.63-0.1 0.94-0.16h0.01c0.01 0 0.01 0 0.02 0c0.2-0.04 0.39-0.08 0.59-0.12h0.01c0.26-0.05 0.52-0.12 0.78-0.18c0.78-0.19 1.55-0.41 2.33-0.67h0.01c0.21-0.07 0.42-0.13 0.62-0.2c0.21-0.07 0.42-0.14 0.62-0.22c0.62-0.23 1.25-0.45 1.87-0.64c0.62-0.19 1.25-0.35 1.87-0.5h0.01c0.21-0.05 0.42-0.1 0.62-0.14c0.62-0.13 1.25-0.23 1.87-0.32c0.01 0 0.02 0 0.04 0c0.21-0.03 0.41-0.06 0.62-0.08c0.19-0.02 0.39-0.04 0.59-0.06h0.01c0.21-0.02 0.42-0.04 0.62-0.05c0.01 0 0.02 0 0.03 0c0.21-0.01 0.42-0.03 0.62-0.04c0.2-0.01 0.39-0.02 0.59-0.03c0.64-0.02 1.28 0 1.91 0.03c0.21 0.01 0.41 0.02 0.61 0.04c0.04 0 0.09 0.01 0.13 0.01c0.17 0.01 0.33 0.03 0.5 0.04c0.17 0.02 0.32 0.03 0.49 0.05c0.33 0.04 0.66 0.07 0.99 0.12c0.13 0.02 0.26 0.04 0.39 0.06c0.09 0.02 0.19 0.03 0.28 0.04c0.07 0.01 0.14 0.02 0.2 0.04c0.15 0.03 0.3 0.06 0.45 0.09c0.02 0 0.04 0.01 0.05 0.01c0.2 0.04 0.4 0.09 0.61 0.13c0.44 0.1 0.88 0.21 1.33 0.33c0.66 0.18 1.33 0.39 1.99 0.62c0.23 0.08 0.46 0.15 0.69 0.24v0.01c0.4 0.15 0.81 0.29 1.21 0.42c0.42 0.14 0.84 0.27 1.26 0.38c0.21 0.06 0.41 0.12 0.61 0.17h0.01c0.41 0.11 0.83 0.21 1.25 0.29c0.62 0.13 1.25 0.23 1.87 0.32c0.62 0.09 1.25 0.15 1.88 0.2c0.62 0.04 1.25 0.07 1.87 0.07c0.42 0 0.83-0.02 1.25-0.04h0.01c0.21-0.01 0.4-0.02 0.61-0.04h0.01c1.04-0.07 2.08-0.2 3.12-0.39h0.01c0.21-0.04 0.42-0.08 0.62-0.12h0.01c1.45-0.3 2.9-0.73 4.35-1.27h0.01c0.41-0.15 0.83-0.3 1.25-0.44c0.42-0.14 0.82-0.27 1.24-0.38c0.42-0.12 0.84-0.22 1.26-0.32h0.01c0.21-0.05 0.41-0.1 0.61-0.14c0.62-0.13 1.25-0.23 1.87-0.32c0.42-0.06 0.83-0.1 1.25-0.14h0.01c0.21-0.02 0.42-0.04 0.62-0.05h0.01c0.21-0.01 0.41-0.03 0.61-0.04c0.21-0.01 0.42-0.02 0.62-0.03c3.54-0.08 7.07 0.54 10.61 1.86h0.01c6.66 2.48 13.32 2.48 19.98 0c0.68-0.25 1.35-0.47 2.03-0.68c-2.42 5.19-5.16 10.2-8.19 15c-4.6 0.66-9.21 0.12-13.81-1.59h-0.01c-3.54-1.32-7.07-1.94-10.61-1.86c-0.21 0-0.42 0.02-0.62 0.03c-0.21 0.01-0.41 0.02-0.61 0.04h-0.01c-0.21 0.01-0.42 0.03-0.62 0.05h-0.01c-0.42 0.04-0.83 0.08-1.25 0.13c-0.62 0.09-1.25 0.2-1.87 0.33c-0.21 0.04-0.41 0.09-0.61 0.14h-0.01c-0.42 0.1-0.84 0.2-1.26 0.32c-0.42 0.12-0.82 0.25-1.24 0.38c-0.41 0.13-0.83 0.28-1.25 0.44h-0.01c-1.45 0.54-2.9 0.97-4.35 1.27h-0.01c-0.21 0.04-0.42 0.08-0.62 0.12h-0.01c-1.04 0.19-2.08 0.33-3.12 0.4h-0.01c-0.21 0.01-0.4 0.03-0.61 0.04h-0.01c-0.42 0.02-0.83 0.04-1.25 0.04c-0.62 0-1.25-0.03-1.87-0.07c-0.41-0.03-0.83-0.06-1.25-0.11h-0.01c-0.21-0.02-0.42-0.06-0.62-0.09c-0.62-0.09-1.25-0.19-1.87-0.32c-0.41-0.09-0.83-0.19-1.25-0.29c-0.21-0.05-0.42-0.11-0.62-0.17c-0.42-0.12-0.84-0.25-1.26-0.38c-0.4-0.13-0.81-0.28-1.21-0.43c-0.01 0-0.02 0-0.04-0.01c-0.07-0.02-0.13-0.05-0.2-0.07c-0.31-0.11-0.62-0.22-0.93-0.32c-0.05-0.02-0.1-0.04-0.15-0.05c-0.02-0.01-0.04-0.01-0.05-0.02c-0.26-0.08-0.52-0.16-0.77-0.24c-0.18-0.05-0.36-0.1-0.54-0.15c-0.12-0.03-0.25-0.07-0.37-0.1c-0.1-0.02-0.2-0.05-0.3-0.08c-0.04-0.01-0.07-0.02-0.11-0.03c-0.18-0.04-0.37-0.08-0.55-0.12c-0.2-0.05-0.4-0.09-0.61-0.13c-0.02 0-0.04-0.01-0.05-0.01c-0.15-0.03-0.3-0.06-0.45-0.09c-0.07-0.01-0.14-0.02-0.2-0.04c-0.09-0.02-0.19-0.03-0.29-0.04c-0.13-0.02-0.26-0.04-0.39-0.06c-0.33-0.05-0.65-0.09-0.98-0.12c-0.17-0.02-0.33-0.04-0.5-0.05c-0.17-0.02-0.33-0.03-0.5-0.04c-0.04 0-0.09-0.01-0.13-0.01c-0.18-0.01-0.36-0.03-0.54-0.04c-0.03 0-0.05 0-0.07 0c-0.83-0.04-1.67-0.04-2.5 0c-0.01 0-0.02 0-0.04 0c-0.2 0.01-0.39 0.02-0.59 0.04c-0.01 0-0.02 0-0.03 0c-2.7 0.19-5.39 0.79-8.09 1.79c-1.21 0.45-2.42 0.81-3.62 1.09c-1.91 0.45-3.83 0.71-5.74 0.75c-0.01 0-0.02 0-0.03 0c-0.2 0-0.4 0.01-0.6 0.01c-0.34 0-0.67-0.01-1.01-0.02c-0.44-0.02-0.88-0.04-1.32-0.08c-0.06 0-0.11-0.01-0.17-0.02c-0.01 0-0.02 0-0.04 0c-0.2-0.02-0.4-0.04-0.6-0.06c-0.01 0-0.02 0-0.04 0c-0.12-0.01-0.24-0.04-0.36-0.05c-0.09-0.01-0.18-0.02-0.27-0.04c-0.4-0.06-0.81-0.12-1.21-0.2c-0.22-0.04-0.43-0.09-0.65-0.13c-0.03-0.01-0.06-0.01-0.08-0.02c-0.18-0.04-0.37-0.07-0.55-0.12c-0.21-0.05-0.42-0.1-0.62-0.15h-0.01c-0.21-0.05-0.41-0.11-0.61-0.17h-0.01c-0.21-0.06-0.42-0.12-0.62-0.18c-0.2-0.06-0.39-0.13-0.59-0.2c-0.01 0-0.02-0.01-0.03-0.01c-0.41-0.13-0.81-0.28-1.22-0.43c-0.01 0-0.02 0-0.04-0.01c-0.39-0.15-0.78-0.28-1.17-0.41c-0.04-0.01-0.09-0.03-0.13-0.04c-0.25-0.08-0.49-0.16-0.74-0.23c-0.19-0.06-0.38-0.11-0.58-0.16c-0.05-0.01-0.1-0.02-0.14-0.04c-0.25-0.07-0.5-0.14-0.75-0.2c-0.39-0.09-0.79-0.18-1.18-0.26c-0.39-0.08-0.78-0.14-1.17-0.2c-0.31-0.05-0.62-0.09-0.93-0.12c-0.16-0.02-0.32-0.04-0.48-0.05c-0.05-0.01-0.1-0.01-0.15-0.02c-0.26-0.02-0.52-0.05-0.78-0.06c-0.39-0.03-0.78-0.04-1.17-0.05c-0.39-0.01-0.78-0.01-1.17 0c-0.01 0-0.03 0-0.04 0c-0.21 0-0.42 0.02-0.63 0.03c-0.1 0-0.19 0.01-0.29 0.02c-0.11 0.01-0.22 0.01-0.33 0.02c-0.15 0.01-0.31 0.02-0.46 0.04c-0.05 0-0.11 0.01-0.16 0.02c-0.01 0-0.01 0-0.02 0c-0.2 0.02-0.41 0.04-0.61 0.06c-0.3 0.03-0.59 0.07-0.89 0.12c-0.22 0.03-0.44 0.07-0.66 0.11c-0.11 0.02-0.21 0.04-0.32 0.06c-0.13 0.02-0.27 0.04-0.4 0.07c-0.28 0.06-0.56 0.12-0.84 0.19c-0.05 0.01-0.09 0.02-0.14 0.04c-0.04 0.01-0.08 0.02-0.12 0.03c-0.34 0.08-0.67 0.16-1.01 0.26c-0.04 0.01-0.06 0.02-0.1 0.03c-0.17 0.05-0.34 0.11-0.52 0.16c-0.21 0.06-0.42 0.13-0.62 0.2c-0.41 0.13-0.83 0.28-1.25 0.44h-0.01c-0.84 0.31-1.68 0.57-2.52 0.81c-0.62 0.17-1.23 0.33-1.84 0.46h-0.01c-0.21 0.04-0.41 0.08-0.61 0.12h-0.01c-0.22 0.04-0.44 0.08-0.66 0.12c-0.21 0.03-0.41 0.06-0.61 0.09c-0.21 0.03-0.42 0.06-0.63 0.08c-0.18 0.02-0.36 0.05-0.54 0.06c-0.03 0-0.06 0.01-0.08 0.01c-0.59 0.06-1.18 0.09-1.77 0.11c-0.02 0-0.04 0-0.06 0c-0.01 0-0.02 0-0.04 0c-0.2 0.01-0.39 0.01-0.59 0.01c-0.27 0-0.54-0.01-0.81-0.02c-0.04 0-0.08 0-0.12 0c-0.07 0-0.13-0.01-0.2-0.01c-0.05 0-0.11-0.01-0.16-0.01c-0.05 0-0.1-0.01-0.15-0.01c-0.14-0.01-0.28-0.02-0.43-0.03c-0.22-0.02-0.44-0.04-0.66-0.05c-0.11-0.01-0.22-0.02-0.33-0.03c-0.09-0.01-0.18-0.02-0.27-0.03c-0.01 0-0.02 0-0.04 0h-0.01c-0.2-0.02-0.38-0.06-0.58-0.09c-0.01 0-0.02 0-0.03 0h-0.01c-0.21-0.03-0.42-0.06-0.62-0.1c-0.27-0.04-0.55-0.1-0.82-0.15c-0.06-0.01-0.12-0.02-0.18-0.03c-0.07-0.01-0.14-0.03-0.21-0.04c-0.06-0.01-0.13-0.03-0.2-0.04c-0.16-0.03-0.31-0.06-0.47-0.1c-0.2-0.05-0.39-0.1-0.59-0.15c0 0-0.01 0-0.02 0c0 0-0.01 0-0.02 0c-0.21-0.05-0.4-0.11-0.61-0.17c0 0-0.01 0-0.02 0c-0.21-0.06-0.41-0.12-0.61-0.18c-0.62-0.19-1.25-0.41-1.87-0.64c-0.83-0.31-1.66-0.59-2.49-0.82h-0.01c-0.04-0.01-0.08-0.02-0.12-0.04c-0.36-0.1-0.74-0.19-1.1-0.28c-0.01 0-0.01-0.01-0.02-0.01c-0.07-0.02-0.14-0.03-0.2-0.04c-0.14-0.03-0.28-0.06-0.42-0.09c-0.21-0.04-0.42-0.09-0.62-0.12c-0.32-0.06-0.63-0.11-0.94-0.16c-0.37-0.06-0.75-0.1-1.12-0.14c-0.07-0.01-0.14-0.02-0.21-0.03c-0.07-0.01-0.15-0.01-0.22-0.02c-0.02 0-0.04-0.01-0.05-0.01c-0.13-0.01-0.25-0.02-0.38-0.03c-0.22-0.02-0.44-0.03-0.66-0.04c-0.05 0-0.1-0.01-0.15-0.01c-0.17-0.01-0.34-0.01-0.51-0.02c-0.04 0-0.08 0-0.12 0c-0.42-0.01-0.83-0.01-1.25 0c-0.41 0.01-0.81 0.03-1.22 0.06c-0.21 0.01-0.42 0.03-0.62 0.04c-0.43 0.04-0.85 0.08-1.28 0.14c-0.62 0.09-1.22 0.2-1.83 0.33c-0.21 0.04-0.43 0.09-0.63 0.14h-0.01c-0.62 0.15-1.24 0.31-1.86 0.5c-0.62 0.19-1.25 0.4-1.87 0.63c-0.41 0.15-0.83 0.3-1.25 0.44h-0.01c-0.42 0.14-0.85 0.26-1.27 0.38c-0.61 0.17-1.23 0.33-1.84 0.46h-0.01c-0.21 0.04-0.4 0.08-0.61 0.12h-0.01c-0.22 0.04-0.44 0.07-0.66 0.11c-0.21 0.03-0.41 0.07-0.62 0.1c-0.42 0.06-0.84 0.1-1.26 0.14c-0.09 0.01-0.18 0.02-0.28 0.03c-0.05 0-0.09 0.01-0.14 0.01c-0.2 0.01-0.39 0.03-0.59 0.04c-0.07 0-0.15 0.01-0.21 0.01c-0.01 0-0.01 0-0.02 0c-0.2 0.01-0.39 0.02-0.59 0.03h-0.01c-0.21 0-0.42 0.01-0.62 0.01c-0.41 0-0.81-0.02-1.22-0.04c-0.02 0-0.04 0-0.06 0c-0.2-0.01-0.4-0.02-0.6-0.04c-0.01 0-0.02 0-0.03 0c-0.06 0-0.12-0.01-0.18-0.02c-0.35-0.02-0.69-0.05-1.03-0.09h-0.01c-0.13-0.02-0.27-0.03-0.4-0.05c-0.08-0.01-0.15-0.02-0.23-0.04c-0.01 0-0.02 0-0.03 0c-1.03-0.14-2.05-0.35-3.08-0.61h-0.01c-0.02-0.01-0.04-0.01-0.06-0.02c-0.34-0.09-0.67-0.18-1.01-0.28c-0.06-0.02-0.12-0.04-0.18-0.05c-0.06-0.02-0.11-0.04-0.17-0.05c-0.58-0.18-1.16-0.37-1.74-0.59v-0.01c-6.23-2.31-12.46-2.45-18.69-0.42c-0.42 0.14-0.83 0.27-1.25 0.43c-3.33 1.24-6.66 1.87-9.99 1.87c-0.83 0-1.66-0.05-2.49-0.12c-0.21-0.02-0.42-0.03-0.62-0.05h-0.01c-0.21-0.02-0.41-0.06-0.61-0.09h-0.01c-0.21-0.03-0.42-0.06-0.62-0.1c-0.62-0.1-1.25-0.22-1.87-0.36c-0.21-0.05-0.42-0.1-0.62-0.15h-0.01c-0.21-0.05-0.41-0.11-0.61-0.17h-0.01c-0.21-0.06-0.41-0.12-0.61-0.18c-0.62-0.19-1.25-0.41-1.88-0.64c-6.15-2.29-12.3-2.46-18.44-0.52c-2.15-3.54-4.14-7.18-5.96-10.92c1.47-0.31 2.95-0.73 4.43-1.28c3.33-1.24 6.66-1.87 9.99-1.87v-0.01v0l-0.05 0zm0 25.58c3.33 0 6.65 0.63 9.98 1.87c0.83 0.31 1.66 0.58 2.49 0.81h0.01c0.21 0.06 0.41 0.12 0.61 0.17h0.01c1.04 0.27 2.08 0.47 3.12 0.61h0.01c0.21 0.03 0.41 0.06 0.61 0.09h0.01c1.66 0.19 3.33 0.22 5 0.11c0.62-0.04 1.24-0.11 1.86-0.2c2.08-0.29 4.17-0.82 6.25-1.59c0.62-0.23 1.24-0.45 1.86-0.64c0.62-0.19 1.26-0.35 1.89-0.5c0.62-0.15 1.25-0.27 1.87-0.37c0.62-0.1 1.25-0.17 1.88-0.23c0.62-0.06 1.23-0.1 1.85-0.12c3.54-0.08 7.09 0.54 10.62 1.86c0.42 0.15 0.84 0.29 1.26 0.43c0.21 0.07 0.41 0.14 0.61 0.2c0.21 0.06 0.42 0.12 0.63 0.18h0.01c0.21 0.06 0.4 0.12 0.61 0.17h0.01c0.21 0.05 0.43 0.1 0.63 0.15c0.83 0.19 1.64 0.35 2.48 0.46c0.62 0.09 1.25 0.15 1.88 0.2c0.31 0.02 0.63 0.04 0.94 0.05c0.31 0.01 0.62 0.02 0.94 0.02c0.21 0 0.42 0 0.63-0.01c0.03 0 0.06 0 0.08 0c0.18-0.01 0.35-0.01 0.53-0.02h0.01c0.62-0.03 1.26-0.08 1.88-0.15c0.2-0.02 0.39-0.04 0.59-0.07c0.02 0 0.04-0.01 0.06-0.01c0.19-0.03 0.38-0.06 0.57-0.09c0.42-0.07 0.82-0.14 1.24-0.23c0.17-0.04 0.35-0.08 0.53-0.12c0.03-0.01 0.07-0.01 0.11-0.02c0.06-0.01 0.12-0.03 0.19-0.04c0.32-0.08 0.64-0.16 0.96-0.25c0.03-0.01 0.07-0.02 0.1-0.03c0.17-0.05 0.33-0.1 0.5-0.15c0.25-0.07 0.49-0.15 0.74-0.23c0.01 0 0.02-0.01 0.04-0.01c0.41-0.13 0.81-0.28 1.22-0.43c0.32-0.12 0.65-0.23 0.97-0.34c0.26-0.09 0.52-0.17 0.78-0.25c0.05-0.02 0.1-0.04 0.15-0.05c0.05-0.02 0.11-0.03 0.17-0.04c0.22-0.07 0.44-0.14 0.67-0.2c0.13-0.03 0.25-0.07 0.37-0.1c0.39-0.1 0.78-0.19 1.18-0.28c0.03-0.01 0.06-0.01 0.08-0.02c0.01 0 0.02-0.01 0.04-0.01c0.08-0.02 0.16-0.03 0.24-0.04c0.23-0.05 0.46-0.09 0.69-0.13c0.3-0.05 0.6-0.1 0.9-0.14c0.22-0.03 0.43-0.05 0.65-0.08c0.82-0.1 1.65-0.16 2.48-0.18c0.21 0 0.42-0.01 0.62-0.01c0.21 0 0.42 0 0.62 0.01c0.04 0 0.08 0 0.12 0c0.17 0.01 0.34 0.01 0.51 0.02c0.05 0 0.1 0.01 0.15 0.01c0.22 0.01 0.44 0.03 0.66 0.04c0.13 0.01 0.25 0.02 0.38 0.03c0.02 0 0.04 0.01 0.05 0.01c0.42 0.04 0.84 0.09 1.26 0.15c0.21 0.03 0.41 0.05 0.61 0.09c1.88 0.31 3.77 0.81 5.66 1.51c0.42 0.15 0.83 0.29 1.25 0.43c0.42 0.14 0.84 0.27 1.26 0.38c0.2 0.06 0.39 0.12 0.6 0.17c0 0 0.01 0 0.02 0h0.01c0.41 0.11 0.83 0.21 1.25 0.29c0.31 0.07 0.62 0.13 0.94 0.18c0.3 0.05 0.6 0.1 0.91 0.14c0.01 0 0.02 0 0.03 0c0.62 0.09 1.25 0.15 1.88 0.2c0.31 0.02 0.62 0.04 0.94 0.05c0.09 0 0.18 0.01 0.28 0.01c0.22 0.01 0.44 0.01 0.66 0.01c0.21 0 0.42 0 0.62-0.01c0.41-0.01 0.81-0.03 1.22-0.06c0.01 0 0.02 0 0.03 0c0.3-0.02 0.61-0.05 0.91-0.08c0.31-0.03 0.62-0.07 0.94-0.12c1.3-0.18 2.61-0.46 3.91-0.83c0.26-0.07 0.51-0.15 0.77-0.23c0.26-0.08 0.52-0.17 0.78-0.26c0.26-0.09 0.52-0.18 0.78-0.28c0.62-0.23 1.23-0.45 1.85-0.64c0.43-0.13 0.86-0.24 1.29-0.35c0.2-0.05 0.39-0.11 0.59-0.15c0.22-0.05 0.45-0.1 0.67-0.14c0.31-0.07 0.62-0.12 0.94-0.18c0.09-0.02 0.18-0.04 0.28-0.05c0.22-0.04 0.44-0.06 0.66-0.09c0.2-0.03 0.39-0.06 0.59-0.08c0.01 0 0.02 0 0.03 0c0.04 0 0.08 0 0.12-0.01c0.16-0.02 0.33-0.04 0.49-0.05c0.1-0.01 0.2-0.02 0.3-0.03c0.11-0.01 0.23-0.02 0.35-0.03h0.01c0.04 0 0.09-0.01 0.13-0.01c0.13-0.01 0.26-0.01 0.38-0.02c0.04 0 0.06-0.01 0.1-0.01c0.19-0.01 0.39-0.02 0.59-0.03c0.44-0.01 0.88-0.01 1.32 0c0.01 0 0.03 0 0.04 0c0.43 0.01 0.86 0.04 1.29 0.07c0.01 0 0.03 0 0.04 0c0.21 0.02 0.41 0.03 0.61 0.05c0.11 0.01 0.21 0.02 0.32 0.04c0.11 0.01 0.22 0.03 0.34 0.04c0.22 0.03 0.45 0.06 0.68 0.09c2 0.3 4 0.82 6 1.56h0.01c0.4 0.15 0.81 0.29 1.21 0.43c0.01 0 0.02 0.01 0.04 0.01c1 0.33 2.01 0.59 3.01 0.81c0.03 0.01 0.06 0.01 0.08 0.02c0.01 0 0.02 0.01 0.04 0.01c0.2 0.04 0.38 0.08 0.58 0.12c0.01 0 0.02 0.01 0.04 0.01c0.4 0.07 0.81 0.14 1.21 0.2c0.01 0 0.03 0.01 0.04 0.01c0.3 0.04 0.59 0.08 0.89 0.11c0.31 0.03 0.63 0.06 0.94 0.08c0.3 0.02 0.6 0.04 0.9 0.05c0.05 0 0.1 0 0.14 0c0.08 0 0.16 0.01 0.24 0.01c0.21 0 0.42 0.01 0.62 0.01c0.2 0 0.4 0 0.6-0.01c0.01 0 0.02 0 0.04 0c0.2 0 0.38-0.02 0.58-0.03h0.01c0.93-0.04 1.86-0.13 2.8-0.27c0.31-0.05 0.63-0.1 0.94-0.16h0.01c0.01 0 0.01 0 0.02 0c0.2-0.04 0.39-0.08 0.59-0.12h0.01c0.26-0.05 0.52-0.12 0.78-0.18c0.78-0.19 1.55-0.41 2.33-0.67h0.01c0.21-0.07 0.42-0.13 0.62-0.2c0.21-0.07 0.42-0.14 0.62-0.22c0.62-0.23 1.25-0.45 1.87-0.64c0.62-0.19 1.25-0.35 1.87-0.5h0.01c0.21-0.05 0.42-0.1 0.62-0.14c0.62-0.13 1.25-0.23 1.87-0.32c0.01 0 0.02 0 0.04 0c0.21-0.03 0.41-0.06 0.62-0.08c0.19-0.02 0.39-0.04 0.59-0.06h0.01c0.21-0.02 0.42-0.04 0.62-0.05c0.01 0 0.02 0 0.03 0c0.21-0.01 0.42-0.03 0.62-0.04c0.2-0.01 0.39-0.02 0.59-0.03c0.64-0.02 1.28 0 1.91 0.03c0.21 0.01 0.41 0.02 0.61 0.04c0.04 0 0.09 0.01 0.13 0.01c0.17 0.01 0.33 0.03 0.5 0.04c0.17 0.02 0.32 0.03 0.49 0.05c0.33 0.04 0.66 0.07 0.99 0.12c0.13 0.02 0.26 0.04 0.39 0.06c0.09 0.02 0.19 0.03 0.28 0.04c0.07 0.01 0.14 0.02 0.2 0.04c0.15 0.03 0.3 0.06 0.45 0.09c0.02 0 0.04 0.01 0.05 0.01c0.2 0.04 0.4 0.09 0.61 0.13c0.44 0.1 0.88 0.21 1.33 0.33c0.66 0.18 1.33 0.39 1.99 0.62c0.23 0.08 0.46 0.15 0.69 0.24v0.01c0.4 0.15 0.81 0.29 1.21 0.42c0.42 0.14 0.84 0.27 1.26 0.38c0.21 0.06 0.41 0.12 0.61 0.17h0.01c0.41 0.11 0.83 0.21 1.25 0.29c0.62 0.13 1.25 0.23 1.87 0.32c0.62 0.09 1.25 0.15 1.88 0.2c0.62 0.04 1.25 0.07 1.87 0.07c0.42 0 0.83-0.02 1.25-0.04h0.01c0.21-0.01 0.4-0.02 0.61-0.04h0.01c1.04-0.07 2.08-0.2 3.12-0.39h0.01c0.21-0.04 0.42-0.08 0.62-0.12h0.01c1.45-0.3 2.9-0.73 4.35-1.27h0.01c0.41-0.15 0.83-0.3 1.25-0.44c0.42-0.14 0.82-0.27 1.24-0.38c0.42-0.12 0.84-0.22 1.26-0.32h0.01c0.21-0.05 0.41-0.1 0.61-0.14c0.62-0.13 1.25-0.23 1.87-0.32c0.42-0.06 0.83-0.1 1.25-0.14h0.01c0.21-0.02 0.42-0.04 0.62-0.05h0.01c0.21-0.01 0.41-0.03 0.61-0.04c0.21-0.01 0.42-0.02 0.62-0.03c3.54-0.08 7.07 0.54 10.61 1.86h0.01c1.6 0.59 3.2 1.04 4.8 1.35c-2.84 3.53-5.84 6.92-9.01 10.15c-2.13-0.46-4.27-0.67-6.4-0.62c-0.21 0-0.42 0.02-0.62 0.03c-0.21 0.01-0.41 0.02-0.61 0.04h-0.01c-0.21 0.01-0.42 0.03-0.62 0.05h-0.01c-0.42 0.04-0.83 0.08-1.25 0.13c-0.62 0.09-1.25 0.2-1.87 0.33c-0.21 0.04-0.41 0.09-0.61 0.14h-0.01c-0.42 0.1-0.84 0.2-1.26 0.32c-0.42 0.12-0.82 0.25-1.24 0.38c-0.41 0.13-0.83 0.28-1.25 0.44h-0.01c-1.45 0.54-2.9 0.97-4.35 1.27h-0.01c-0.21 0.04-0.42 0.08-0.62 0.12h-0.01c-1.04 0.19-2.08 0.33-3.12 0.4h-0.01c-0.21 0.01-0.4 0.03-0.61 0.04h-0.01c-0.42 0.02-0.83 0.04-1.25 0.04c-0.62 0-1.25-0.03-1.87-0.07c-0.41-0.03-0.83-0.06-1.25-0.11h-0.01c-0.21-0.02-0.42-0.06-0.62-0.09c-0.62-0.09-1.25-0.19-1.87-0.32c-0.41-0.09-0.83-0.19-1.25-0.29c-0.21-0.05-0.42-0.11-0.62-0.17c-0.42-0.12-0.84-0.25-1.26-0.38c-0.4-0.13-0.81-0.28-1.21-0.43c-0.01 0-0.02 0-0.04-0.01c-0.07-0.02-0.13-0.05-0.2-0.07c-0.31-0.11-0.62-0.22-0.93-0.32c-0.05-0.02-0.1-0.04-0.15-0.05c-0.02-0.01-0.04-0.01-0.05-0.02c-0.26-0.08-0.52-0.16-0.77-0.24c-0.18-0.05-0.36-0.1-0.54-0.15c-0.12-0.03-0.25-0.07-0.37-0.1c-0.1-0.02-0.2-0.05-0.3-0.08c-0.04-0.01-0.07-0.02-0.11-0.03c-0.18-0.04-0.37-0.08-0.55-0.12c-0.2-0.05-0.4-0.09-0.61-0.13c-0.02 0-0.04-0.01-0.05-0.01c-0.15-0.03-0.3-0.06-0.45-0.09c-0.07-0.01-0.14-0.02-0.2-0.04c-0.09-0.02-0.19-0.03-0.29-0.04c-0.13-0.02-0.26-0.04-0.39-0.06c-0.33-0.05-0.65-0.09-0.98-0.12c-0.17-0.02-0.33-0.04-0.5-0.05c-0.17-0.02-0.33-0.03-0.5-0.04c-0.04 0-0.09-0.01-0.13-0.01c-0.18-0.01-0.36-0.03-0.54-0.04c-0.03 0-0.05 0-0.07 0c-0.83-0.04-1.67-0.04-2.5 0c-0.01 0-0.02 0-0.04 0c-0.2 0.01-0.39 0.02-0.59 0.04c-0.01 0-0.02 0-0.03 0c-2.7 0.19-5.39 0.79-8.09 1.79c-1.21 0.45-2.42 0.81-3.62 1.09c-1.91 0.45-3.83 0.71-5.74 0.75c-0.01 0-0.02 0-0.03 0c-0.2 0-0.4 0.01-0.6 0.01c-0.34 0-0.67-0.01-1.01-0.02c-0.44-0.02-0.88-0.04-1.32-0.08c-0.06 0-0.11-0.01-0.17-0.02c-0.01 0-0.02 0-0.04 0c-0.2-0.02-0.4-0.04-0.6-0.06c-0.01 0-0.02 0-0.04 0c-0.12-0.01-0.24-0.04-0.36-0.05c-0.09-0.01-0.18-0.02-0.27-0.04c-0.4-0.06-0.81-0.12-1.21-0.2c-0.22-0.04-0.43-0.09-0.65-0.13c-0.03-0.01-0.06-0.01-0.08-0.02c-0.18-0.04-0.37-0.07-0.55-0.12c-0.21-0.05-0.42-0.1-0.62-0.15h-0.01c-0.21-0.05-0.41-0.11-0.61-0.17h-0.01c-0.21-0.06-0.42-0.12-0.62-0.18c-0.2-0.06-0.39-0.13-0.59-0.2c-0.01 0-0.02-0.01-0.03-0.01c-0.41-0.13-0.81-0.28-1.22-0.43c-0.01 0-0.02 0-0.04-0.01c-0.39-0.15-0.78-0.28-1.17-0.41c-0.04-0.01-0.09-0.03-0.13-0.04c-0.25-0.08-0.49-0.16-0.74-0.23c-0.19-0.06-0.38-0.11-0.58-0.16c-0.05-0.01-0.1-0.02-0.14-0.04c-0.25-0.07-0.5-0.14-0.75-0.2c-0.39-0.09-0.79-0.18-1.18-0.26c-0.39-0.08-0.78-0.14-1.17-0.2c-0.31-0.05-0.62-0.09-0.93-0.12c-0.16-0.02-0.32-0.04-0.48-0.05c-0.05-0.01-0.1-0.01-0.15-0.02c-0.26-0.03-0.52-0.05-0.78-0.06c-0.39-0.03-0.78-0.04-1.17-0.05c-0.39-0.01-0.78-0.01-1.17 0c-0.01 0-0.03 0-0.04 0c-0.21 0-0.42 0.02-0.63 0.03c-0.1 0-0.19 0.01-0.29 0.02c-0.11 0.01-0.22 0.01-0.33 0.02c-0.15 0.01-0.31 0.02-0.46 0.04c-0.05 0-0.11 0.01-0.16 0.02c-0.01 0-0.01 0-0.02 0c-0.2 0.02-0.41 0.04-0.61 0.06c-0.3 0.03-0.59 0.07-0.89 0.12c-0.22 0.03-0.44 0.07-0.66 0.11c-0.11 0.02-0.21 0.04-0.32 0.06c-0.13 0.02-0.27 0.04-0.4 0.07c-0.28 0.06-0.56 0.12-0.84 0.19c-0.05 0.01-0.09 0.02-0.14 0.04c-0.04 0.01-0.08 0.02-0.12 0.03c-0.34 0.08-0.67 0.16-1.01 0.26c-0.04 0.01-0.06 0.02-0.1 0.03c-0.17 0.05-0.34 0.11-0.52 0.16c-0.21 0.06-0.42 0.13-0.62 0.2c-0.41 0.13-0.83 0.28-1.25 0.44h-0.01c-0.84 0.31-1.68 0.57-2.52 0.81c-0.62 0.17-1.23 0.33-1.84 0.46h-0.01c-0.21 0.04-0.41 0.08-0.61 0.12h-0.01c-0.22 0.04-0.44 0.08-0.66 0.12c-0.21 0.03-0.41 0.06-0.61 0.09c-0.21 0.03-0.42 0.06-0.63 0.08c-0.18 0.02-0.36 0.04-0.54 0.06c-0.03 0-0.06 0.01-0.08 0.01c-0.59 0.06-1.18 0.09-1.77 0.11c-0.02 0-0.04 0-0.06 0c-0.01 0-0.02 0-0.04 0c-0.2 0.01-0.39 0.01-0.59 0.01c-0.27 0-0.54-0.01-0.81-0.02c-0.04 0-0.08 0-0.12 0c-0.07 0-0.13-0.01-0.2-0.01c-0.05 0-0.11-0.01-0.16-0.01c-0.05 0-0.1-0.01-0.15-0.01c-0.14-0.01-0.28-0.02-0.43-0.03c-0.22-0.02-0.44-0.03-0.66-0.05c-0.11-0.01-0.22-0.02-0.33-0.03c-0.09-0.01-0.18-0.02-0.27-0.03c-0.01 0-0.02 0-0.04 0h-0.01c-0.2-0.02-0.38-0.06-0.58-0.09c-0.01 0-0.02 0-0.03 0h-0.01c-0.21-0.03-0.42-0.06-0.62-0.1c-0.27-0.04-0.55-0.1-0.82-0.15c-0.06-0.01-0.12-0.02-0.18-0.03c-0.07-0.01-0.14-0.03-0.21-0.04c-0.06-0.01-0.13-0.03-0.2-0.04c-0.16-0.03-0.31-0.06-0.47-0.1c-0.2-0.05-0.39-0.1-0.59-0.15c0 0-0.01 0-0.02 0c0 0-0.01 0-0.02 0c-0.21-0.05-0.4-0.11-0.61-0.17c0 0-0.01 0-0.02 0c-0.21-0.06-0.41-0.12-0.61-0.18c-0.62-0.19-1.25-0.41-1.87-0.64c-0.83-0.31-1.66-0.59-2.49-0.82h-0.01c-0.04-0.01-0.08-0.02-0.12-0.04c-0.36-0.1-0.74-0.19-1.1-0.28c-0.01 0-0.01-0.01-0.02-0.01c-0.07-0.02-0.14-0.03-0.2-0.04c-0.14-0.03-0.28-0.06-0.42-0.09c-0.21-0.04-0.42-0.09-0.62-0.12c-0.32-0.06-0.63-0.11-0.94-0.16c-0.37-0.06-0.75-0.1-1.12-0.14c-0.07-0.01-0.14-0.02-0.21-0.03c-0.07-0.01-0.15-0.01-0.22-0.02c-0.02 0-0.04-0.01-0.05-0.01c-0.13-0.01-0.25-0.02-0.38-0.03c-0.22-0.02-0.44-0.03-0.66-0.04c-0.05 0-0.1-0.01-0.15-0.01c-0.17-0.01-0.34-0.01-0.51-0.02c-0.04 0-0.08 0-0.12 0c-0.42-0.01-0.83-0.01-1.25 0c-0.41 0.01-0.81 0.03-1.22 0.06c-0.21 0.01-0.42 0.03-0.62 0.04c-0.43 0.04-0.85 0.08-1.28 0.14c-0.62 0.09-1.22 0.2-1.83 0.33c-0.21 0.04-0.43 0.09-0.63 0.14h-0.01c-0.62 0.15-1.24 0.31-1.86 0.5c-0.62 0.19-1.25 0.4-1.87 0.63c-0.41 0.15-0.83 0.3-1.25 0.44h-0.01c-0.42 0.14-0.85 0.26-1.27 0.38c-0.61 0.17-1.23 0.33-1.84 0.46h-0.01c-0.21 0.04-0.4 0.08-0.61 0.12h-0.01c-0.22 0.04-0.44 0.07-0.66 0.11c-0.21 0.03-0.41 0.07-0.62 0.1c-0.42 0.06-0.84 0.1-1.26 0.14c-0.09 0.01-0.18 0.02-0.28 0.03c-0.05 0-0.09 0.01-0.14 0.01c-0.2 0.02-0.39 0.03-0.59 0.04c-0.07 0-0.15 0.01-0.21 0.01c-0.01 0-0.01 0-0.02 0c-0.2 0.01-0.39 0.02-0.59 0.03h-0.01c-0.21 0-0.42 0.01-0.62 0.01c-0.41 0-0.81-0.02-1.22-0.04c-0.02 0-0.04 0-0.06 0c-0.2-0.01-0.4-0.02-0.6-0.04c-0.01 0-0.02 0-0.03 0c-0.06 0-0.12-0.01-0.18-0.02c-0.35-0.02-0.69-0.05-1.03-0.09h-0.01c-0.13-0.02-0.27-0.03-0.4-0.05c-0.08-0.01-0.15-0.02-0.23-0.04c-0.01 0-0.02 0-0.03 0c-1.03-0.14-2.05-0.35-3.08-0.61h-0.01c-0.02-0.01-0.04-0.01-0.06-0.02c-0.34-0.09-0.67-0.18-1.01-0.28c-0.06-0.02-0.12-0.04-0.18-0.05c-0.06-0.02-0.11-0.04-0.17-0.05c-0.58-0.18-1.16-0.37-1.74-0.59v-0.01c-6.23-2.31-12.46-2.45-18.69-0.42c-0.42 0.14-0.83 0.27-1.25 0.43c-3.33 1.24-6.66 1.87-9.99 1.87c-0.83 0-1.66-0.05-2.49-0.12c-0.21-0.02-0.42-0.03-0.62-0.05h-0.01c-0.21-0.02-0.41-0.06-0.61-0.09h-0.01c-0.21-0.03-0.42-0.06-0.62-0.1c-0.62-0.1-1.25-0.22-1.87-0.36c-0.21-0.05-0.42-0.1-0.62-0.15h-0.01c-4.97-4.83-9.56-10.04-13.74-15.57c0.21-0.01 0.43-0.01 0.64-0.01v-0.01v0l-0.04-0.01zm39.99 25.59c3.32 0.01 6.64 0.63 9.96 1.87c0.42 0.15 0.84 0.29 1.26 0.43c0.21 0.07 0.41 0.14 0.61 0.2c0.21 0.06 0.42 0.12 0.63 0.18h0.01c0.21 0.06 0.4 0.12 0.61 0.17h0.01c0.21 0.05 0.43 0.1 0.63 0.15c0.83 0.19 1.64 0.35 2.48 0.46c0.62 0.09 1.25 0.15 1.88 0.2c0.31 0.02 0.63 0.04 0.94 0.05c0.31 0.01 0.62 0.02 0.94 0.02c0.21 0 0.42 0 0.63-0.01c0.03 0 0.06 0 0.08 0c0.18-0.01 0.35-0.02 0.53-0.03h0.01c0.62-0.03 1.26-0.08 1.88-0.15c0.2-0.02 0.39-0.04 0.59-0.07c0.02 0 0.04-0.01 0.06-0.01c0.19-0.03 0.38-0.06 0.57-0.09c0.42-0.07 0.82-0.14 1.24-0.23c0.17-0.04 0.35-0.08 0.53-0.12c0.03-0.01 0.07-0.01 0.11-0.02c0.06-0.01 0.12-0.03 0.19-0.04c0.32-0.08 0.64-0.16 0.96-0.25c0.03-0.01 0.07-0.02 0.1-0.03c0.17-0.05 0.33-0.1 0.5-0.15c0.25-0.07 0.49-0.15 0.74-0.23c0.01 0 0.02-0.01 0.04-0.01c0.41-0.13 0.81-0.28 1.22-0.43c0.32-0.12 0.65-0.23 0.97-0.34c0.26-0.09 0.52-0.17 0.78-0.25c0.05-0.02 0.1-0.04 0.15-0.05c0.05-0.02 0.11-0.03 0.17-0.04c0.22-0.07 0.44-0.13 0.67-0.2c0.13-0.03 0.25-0.07 0.37-0.1c0.39-0.1 0.78-0.19 1.18-0.28c0.03-0.01 0.06-0.01 0.08-0.02c0.01 0 0.02-0.01 0.04-0.01c0.08-0.02 0.16-0.03 0.24-0.04c0.23-0.05 0.46-0.09 0.69-0.13c0.3-0.05 0.6-0.1 0.9-0.14c0.22-0.03 0.43-0.05 0.65-0.08c0.82-0.1 1.65-0.16 2.48-0.18c0.21 0 0.42-0.01 0.62-0.01c0.21 0 0.42 0 0.62 0.01c0.04 0 0.08 0 0.12 0c0.17 0 0.34 0.01 0.51 0.02c0.05 0 0.1 0.01 0.15 0.01c0.22 0.01 0.44 0.03 0.66 0.04c0.13 0.01 0.25 0.01 0.38 0.03c0.02 0 0.04 0.01 0.05 0.01c0.42 0.04 0.84 0.09 1.26 0.15c0.21 0.03 0.41 0.06 0.61 0.09c1.88 0.31 3.77 0.81 5.66 1.51c0.42 0.15 0.83 0.29 1.25 0.43c0.42 0.14 0.84 0.27 1.26 0.38c0.2 0.06 0.39 0.12 0.6 0.17c0 0 0.01 0 0.02 0h0.01c0.41 0.11 0.83 0.21 1.25 0.29c0.31 0.07 0.62 0.12 0.94 0.18c0.3 0.05 0.6 0.1 0.91 0.14c0.01 0 0.02 0 0.03 0c0.62 0.09 1.25 0.15 1.88 0.2c0.31 0.02 0.62 0.04 0.94 0.05c0.09 0 0.18 0.01 0.28 0.01c0.22 0.01 0.44 0.01 0.66 0.01c0.21 0 0.42 0 0.62-0.01c0.41-0.01 0.81-0.03 1.22-0.06c0.01 0 0.02 0 0.03 0c0.3-0.02 0.61-0.05 0.91-0.08c0.31-0.03 0.62-0.07 0.94-0.12c1.3-0.18 2.61-0.46 3.91-0.83c0.26-0.07 0.51-0.15 0.77-0.23c0.26-0.08 0.52-0.17 0.78-0.26c0.26-0.09 0.52-0.18 0.78-0.28c0.62-0.23 1.23-0.45 1.85-0.64c0.43-0.13 0.86-0.24 1.29-0.35c0.2-0.05 0.39-0.1 0.59-0.15c0.22-0.05 0.45-0.1 0.67-0.14c0.31-0.07 0.62-0.12 0.94-0.18c0.09-0.02 0.18-0.04 0.28-0.05c0.22-0.04 0.44-0.06 0.66-0.09c0.2-0.03 0.39-0.06 0.59-0.08c0.01 0 0.02 0 0.03 0c0.04 0 0.08 0 0.12-0.01c0.16-0.02 0.33-0.04 0.49-0.05c0.1-0.01 0.2-0.02 0.3-0.03c0.11-0.01 0.23-0.02 0.35-0.03h0.01c0.05 0 0.09-0.01 0.13-0.01c0.13-0.01 0.26-0.01 0.38-0.02c0.04 0 0.06-0.01 0.1-0.01c0.19-0.01 0.39-0.02 0.59-0.03c0.44-0.01 0.88-0.01 1.32 0c0.01 0 0.03 0 0.04 0c0.43 0.01 0.86 0.04 1.29 0.07c0.01 0 0.03 0 0.04 0c0.21 0.02 0.41 0.03 0.61 0.05c0.11 0.01 0.21 0.02 0.32 0.04c0.11 0.01 0.22 0.03 0.34 0.04c0.22 0.03 0.45 0.06 0.68 0.09c2 0.3 4 0.82 6 1.56h0.01c0.4 0.15 0.81 0.29 1.21 0.43c0.01 0 0.02 0.01 0.04 0.01c1 0.33 2.01 0.59 3.01 0.81c0.03 0.01 0.06 0.01 0.08 0.02c0.01 0 0.02 0.01 0.04 0.01c0.2 0.04 0.38 0.08 0.58 0.12c0.01 0 0.02 0.01 0.04 0.01c0.4 0.07 0.81 0.14 1.21 0.2c0.01 0 0.03 0.01 0.04 0.01c0.3 0.04 0.59 0.08 0.89 0.11c0.31 0.03 0.63 0.06 0.94 0.08c0.3 0.02 0.6 0.04 0.9 0.05c0.05 0 0.1 0 0.14 0c0.08 0 0.16 0.01 0.24 0.01c0.21 0 0.42 0.01 0.62 0.01c0.2 0 0.4 0 0.6-0.01c0.01 0 0.02 0 0.04 0c0.2-0.01 0.38-0.02 0.58-0.03h0.01c0.93-0.04 1.86-0.13 2.8-0.27c0.31-0.05 0.63-0.1 0.94-0.16h0.01c0.01 0 0.01 0 0.02 0c0.2-0.04 0.39-0.08 0.59-0.12h0.01c0.26-0.05 0.52-0.11 0.78-0.18c0.78-0.19 1.55-0.41 2.33-0.67h0.01c0.21-0.07 0.42-0.13 0.62-0.2c0.21-0.07 0.42-0.15 0.62-0.22c0.62-0.23 1.25-0.45 1.87-0.64c0.62-0.19 1.25-0.35 1.87-0.5h0.01c0.21-0.05 0.42-0.1 0.62-0.14c0.62-0.13 1.25-0.23 1.87-0.32c0.01 0 0.02 0 0.04 0c0.21-0.03 0.41-0.06 0.62-0.08c0.19-0.02 0.39-0.04 0.59-0.06h0.01c0.21-0.02 0.42-0.04 0.62-0.05c0.01 0 0.02 0 0.03 0c0.21-0.01 0.42-0.03 0.62-0.04c0.2-0.01 0.39-0.02 0.59-0.03c0.64-0.01 1.28 0 1.91 0.03c0.21 0.01 0.41 0.02 0.61 0.04c0.04 0 0.09 0.01 0.13 0.01c0.17 0.01 0.33 0.03 0.5 0.04c0.17 0.02 0.32 0.03 0.49 0.05c0.33 0.04 0.66 0.07 0.99 0.12c0.13 0.02 0.26 0.04 0.39 0.06c0.09 0.02 0.19 0.03 0.28 0.04c0.07 0.01 0.14 0.02 0.2 0.04c0.15 0.03 0.3 0.06 0.45 0.09c0.02 0 0.04 0.01 0.05 0.01c0.2 0.04 0.4 0.09 0.61 0.13c0.44 0.1 0.88 0.21 1.33 0.33c0.66 0.18 1.33 0.39 1.99 0.62c0.23 0.08 0.46 0.15 0.69 0.24v0.01c0.4 0.15 0.81 0.29 1.21 0.42c0.42 0.14 0.84 0.27 1.26 0.38c0.21 0.06 0.41 0.12 0.61 0.17h0.01c0.41 0.11 0.83 0.21 1.25 0.29c0.62 0.13 1.25 0.23 1.87 0.32c0.62 0.09 1.25 0.15 1.88 0.2c0.62 0.04 1.25 0.07 1.87 0.07c0.42 0 0.83-0.02 1.25-0.04h0.01c0.21-0.01 0.4-0.02 0.61-0.04h0.01c1.04-0.07 2.08-0.2 3.12-0.39h0.01c0.21-0.04 0.42-0.08 0.62-0.12h0.01c1.18-0.25 2.36-0.58 3.54-0.99c-6.26 4.6-12.92 8.68-19.93 12.18c-0.12-0.04-0.24-0.09-0.36-0.12c-0.05-0.02-0.1-0.04-0.15-0.05c-0.02-0.01-0.04-0.01-0.05-0.02c-0.26-0.08-0.52-0.16-0.77-0.24c-0.18-0.05-0.36-0.1-0.54-0.15c-0.12-0.03-0.25-0.07-0.37-0.1c-0.1-0.03-0.2-0.06-0.3-0.08c-0.04-0.01-0.07-0.02-0.11-0.03c-0.18-0.04-0.37-0.08-0.55-0.12c-0.2-0.05-0.4-0.09-0.61-0.13c-0.02 0-0.04-0.01-0.05-0.01c-0.15-0.03-0.3-0.06-0.45-0.09c-0.07-0.01-0.14-0.02-0.2-0.04c-0.09-0.02-0.19-0.03-0.29-0.04c-0.13-0.02-0.26-0.04-0.39-0.06c-0.33-0.05-0.65-0.09-0.98-0.12c-0.17-0.02-0.33-0.04-0.5-0.05c-0.17-0.02-0.33-0.03-0.5-0.04c-0.04 0-0.09-0.01-0.13-0.01c-0.18-0.01-0.36-0.03-0.54-0.04c-0.03 0-0.05 0-0.07 0c-0.83-0.04-1.67-0.04-2.5 0c-0.01 0-0.02 0-0.04 0c-0.2 0.01-0.39 0.02-0.59 0.04c-0.01 0-0.02 0-0.03 0c-2.7 0.19-5.39 0.79-8.09 1.79c-1.21 0.45-2.42 0.81-3.62 1.09c-1.91 0.45-3.83 0.71-5.74 0.75c-0.01 0-0.02 0-0.03 0c-0.2 0-0.4 0.01-0.6 0.01c-0.34 0-0.67-0.01-1.01-0.02c-0.44-0.02-0.88-0.04-1.32-0.08c-0.06 0-0.11-0.01-0.17-0.02c-0.01 0-0.02 0-0.04 0c-0.2-0.02-0.4-0.04-0.6-0.06c-0.01 0-0.02 0-0.04 0c-0.12-0.01-0.24-0.04-0.36-0.05c-0.09-0.01-0.18-0.02-0.27-0.04c-0.4-0.06-0.81-0.12-1.21-0.2c-0.22-0.04-0.43-0.09-0.65-0.13c-0.03-0.01-0.06-0.01-0.08-0.02c-0.18-0.04-0.37-0.07-0.55-0.12c-0.21-0.05-0.42-0.1-0.62-0.15h-0.01c-0.21-0.05-0.41-0.11-0.61-0.17h-0.01c-0.21-0.06-0.42-0.11-0.62-0.18c-0.2-0.06-0.39-0.13-0.59-0.2c-0.01 0-0.02-0.01-0.03-0.01c-0.41-0.13-0.81-0.28-1.22-0.43c-0.01 0-0.02 0-0.04-0.01c-0.39-0.15-0.78-0.28-1.17-0.41c-0.04-0.01-0.09-0.03-0.13-0.04c-0.25-0.08-0.49-0.16-0.74-0.23c-0.19-0.06-0.38-0.11-0.58-0.16c-0.05-0.01-0.1-0.02-0.14-0.04c-0.25-0.07-0.5-0.14-0.75-0.2c-0.39-0.09-0.79-0.18-1.18-0.26c-0.39-0.08-0.78-0.14-1.17-0.2c-0.31-0.05-0.62-0.09-0.93-0.12c-0.16-0.02-0.32-0.04-0.48-0.05c-0.05-0.01-0.1-0.01-0.15-0.02c-0.26-0.02-0.52-0.04-0.78-0.06c-0.39-0.03-0.78-0.04-1.17-0.05c-0.39-0.01-0.78-0.01-1.17 0c-0.01 0-0.03 0-0.04 0c-0.21 0-0.42 0.02-0.63 0.03c-0.1 0-0.19 0.01-0.29 0.02c-0.11 0.01-0.22 0.01-0.33 0.02c-0.15 0.01-0.31 0.02-0.46 0.04c-0.05 0-0.11 0.01-0.16 0.02c-0.01 0-0.01 0-0.02 0c-0.2 0.02-0.41 0.04-0.61 0.06c-0.3 0.03-0.59 0.07-0.89 0.12c-0.22 0.03-0.44 0.07-0.66 0.11c-0.11 0.02-0.21 0.04-0.32 0.06c-0.13 0.02-0.27 0.04-0.4 0.07c-0.28 0.06-0.56 0.12-0.84 0.19c-0.05 0.01-0.09 0.02-0.14 0.04c-0.04 0.01-0.08 0.02-0.12 0.03c-0.34 0.08-0.67 0.16-1.01 0.26c-0.04 0.01-0.06 0.02-0.1 0.03c-0.17 0.05-0.34 0.11-0.52 0.16c-0.21 0.06-0.42 0.13-0.62 0.2c-0.41 0.13-0.83 0.28-1.25 0.44h-0.01c-0.84 0.31-1.68 0.57-2.52 0.81c-0.62 0.17-1.23 0.33-1.84 0.46h-0.01c-0.21 0.04-0.41 0.08-0.61 0.12h-0.01c-0.22 0.04-0.44 0.08-0.66 0.12c-0.21 0.03-0.41 0.06-0.61 0.09c-0.21 0.03-0.42 0.06-0.63 0.08c-0.18 0.02-0.36 0.04-0.54 0.06c-0.03 0-0.06 0.01-0.08 0.01c-0.59 0.06-1.18 0.09-1.77 0.11c-0.02 0-0.04 0-0.06 0c-0.01 0-0.02 0-0.04 0c-0.2 0.01-0.39 0.01-0.59 0.01c-0.27 0-0.54-0.01-0.81-0.02c-0.04 0-0.08 0-0.12 0c-0.07 0-0.13-0.01-0.2-0.01c-0.05 0-0.11-0.01-0.16-0.01c-0.05 0-0.1-0.01-0.15-0.01c-0.14-0.01-0.28-0.02-0.43-0.03c-0.22-0.02-0.44-0.03-0.66-0.05c-0.11-0.01-0.22-0.02-0.33-0.03c-0.09-0.01-0.18-0.02-0.27-0.03c-0.01 0-0.02 0-0.04 0h-0.01c-0.2-0.02-0.38-0.06-0.58-0.09c-0.01 0-0.02 0-0.03 0h-0.01c-0.21-0.03-0.42-0.06-0.62-0.1c-0.27-0.04-0.55-0.1-0.82-0.15c-0.06-0.01-0.12-0.02-0.18-0.03c-0.07-0.01-0.14-0.03-0.21-0.04c-0.06-0.01-0.13-0.03-0.2-0.04c-0.16-0.03-0.31-0.06-0.47-0.1c-0.2-0.05-0.39-0.1-0.59-0.15c0 0-0.01 0-0.02 0c0 0-0.01 0-0.02 0c-0.21-0.05-0.4-0.11-0.61-0.17c0 0-0.01 0-0.02 0c-0.21-0.06-0.41-0.11-0.61-0.18c-0.62-0.19-1.25-0.41-1.87-0.64c-0.83-0.31-1.66-0.59-2.49-0.82h-0.01c-0.04-0.01-0.08-0.02-0.12-0.04c-0.36-0.1-0.74-0.19-1.1-0.28c-0.01 0-0.01-0.01-0.02-0.01c-0.07-0.02-0.14-0.03-0.2-0.04c-0.14-0.03-0.28-0.06-0.42-0.09c-0.21-0.04-0.42-0.09-0.62-0.12c-0.32-0.06-0.63-0.11-0.94-0.16c-0.37-0.06-0.75-0.1-1.12-0.14c-0.07-0.01-0.14-0.02-0.21-0.03c-0.07-0.01-0.15-0.01-0.22-0.02c-0.02 0-0.04-0.01-0.05-0.01c-0.13-0.01-0.25-0.02-0.38-0.03c-0.22-0.02-0.44-0.03-0.66-0.04c-0.05 0-0.1-0.01-0.15-0.01c-0.17-0.01-0.34-0.01-0.51-0.02c-0.04 0-0.08 0-0.12 0c-0.42-0.01-0.83-0.01-1.25 0c-0.41 0.01-0.81 0.03-1.22 0.06c-0.21 0.01-0.42 0.03-0.62 0.04c-0.43 0.04-0.85 0.08-1.28 0.14c-0.62 0.09-1.22 0.2-1.83 0.33c-0.21 0.04-0.43 0.09-0.63 0.14h-0.01c-0.62 0.15-1.24 0.31-1.86 0.5c-0.62 0.19-1.25 0.4-1.87 0.63c-0.41 0.15-0.83 0.3-1.25 0.44h-0.01c-0.42 0.14-0.85 0.26-1.27 0.38c-0.61 0.17-1.23 0.33-1.84 0.46h-0.01c-0.21 0.04-0.4 0.08-0.61 0.12h-0.01c-0.22 0.04-0.44 0.07-0.66 0.11c-0.21 0.03-0.41 0.07-0.62 0.1c-0.42 0.06-0.84 0.1-1.26 0.14c-0.09 0.01-0.18 0.02-0.28 0.03c-0.05 0-0.09 0.01-0.14 0.01c-0.2 0.02-0.39 0.03-0.59 0.04c-0.07 0-0.15 0.01-0.21 0.01c-0.01 0-0.01 0-0.02 0c-0.2 0.01-0.39 0.02-0.59 0.03h-0.01c-0.21 0-0.42 0.01-0.62 0.01c-0.41 0-0.81-0.02-1.22-0.04c-0.02 0-0.04 0-0.06 0c-0.2-0.01-0.4-0.02-0.6-0.04c-0.01 0-0.02 0-0.03 0c-0.06 0-0.12-0.01-0.18-0.02c-0.35-0.02-0.69-0.05-1.03-0.09h-0.01c-0.13-0.02-0.27-0.03-0.4-0.05c-0.08-0.01-0.15-0.02-0.23-0.04c-0.01 0-0.02 0-0.03 0c-1.03-0.14-2.05-0.35-3.08-0.61h-0.01c-0.02-0.01-0.04-0.01-0.06-0.02c-0.34-0.09-0.67-0.18-1.01-0.28c-0.06-0.02-0.12-0.04-0.18-0.05c-0.06-0.02-0.11-0.03-0.17-0.05c-0.58-0.18-1.16-0.37-1.74-0.59v-0.01c-1.52-0.56-3.05-0.99-4.57-1.3c-6.07-3.16-11.88-6.76-17.38-10.76c0.67-0.2 1.34-0.42 2-0.67c0.62-0.23 1.24-0.45 1.86-0.64c0.62-0.19 1.26-0.35 1.89-0.5c0.62-0.15 1.25-0.27 1.87-0.37c0.62-0.1 1.25-0.17 1.88-0.23c0.62-0.06 1.23-0.1 1.85-0.12c0.22-0.01 0.45-0.01 0.67-0.01v0l-0.04 0.03z" />
		<path class="s2" d="m675 164.53c75.24 0 136.23 60.83 136.23 135.87c0 20.48-4.55 39.9-12.68 57.32c-0.68 0.2-1.35 0.42-2.03 0.68c-6.66 2.48-13.32 2.48-19.98 0h-0.01c-3.54-1.32-7.07-1.94-10.61-1.86c-0.21 0-0.42 0.02-0.62 0.03c-0.21 0.01-0.41 0.02-0.61 0.04h-0.01c-0.2 0.01-0.42 0.03-0.62 0.05h-0.01c-0.42 0.04-0.83 0.08-1.25 0.14c-0.62 0.09-1.25 0.19-1.87 0.32c-0.21 0.04-0.41 0.09-0.61 0.14h-0.01c-0.42 0.1-0.84 0.2-1.26 0.32c-0.42 0.12-0.82 0.25-1.24 0.38c-0.41 0.13-0.83 0.28-1.25 0.44h-0.01c-1.45 0.54-2.9 0.97-4.35 1.27h-0.01c-0.21 0.04-0.42 0.09-0.62 0.12h-0.01c-1.04 0.19-2.08 0.32-3.12 0.39h-0.01c-0.21 0.01-0.4 0.03-0.61 0.04h-0.01c-0.42 0.02-0.83 0.04-1.25 0.04c-0.62 0-1.25-0.03-1.87-0.07c-0.62-0.04-1.25-0.11-1.88-0.2c-0.62-0.09-1.25-0.19-1.87-0.32c-0.41-0.09-0.83-0.19-1.25-0.29h-0.01c-0.21-0.05-0.41-0.11-0.61-0.17c-0.42-0.12-0.84-0.25-1.26-0.38c-0.41-0.13-0.81-0.27-1.21-0.42v-0.01c-0.23-0.09-0.46-0.16-0.69-0.24c-0.66-0.23-1.33-0.44-1.99-0.62c-0.44-0.12-0.88-0.23-1.33-0.33c-0.2-0.05-0.4-0.09-0.61-0.13c-0.02 0-0.04-0.01-0.05-0.01c-0.15-0.03-0.3-0.06-0.45-0.09c-0.07-0.01-0.14-0.02-0.2-0.04c-0.09-0.02-0.19-0.03-0.28-0.04c-0.13-0.02-0.26-0.04-0.39-0.06c-0.33-0.05-0.66-0.09-0.99-0.12c-0.17-0.02-0.32-0.04-0.49-0.05c-0.17-0.02-0.33-0.03-0.5-0.04c-0.04 0-0.09-0.01-0.13-0.01c-0.21-0.01-0.41-0.03-0.61-0.04c-0.64-0.03-1.28-0.04-1.91-0.03c-0.2 0-0.39 0.02-0.59 0.03c-0.21 0.01-0.42 0.02-0.62 0.04c-0.01 0-0.02 0-0.03 0c-0.21 0.01-0.42 0.03-0.62 0.05h-0.01c-0.19 0.02-0.39 0.04-0.59 0.06c-0.21 0.02-0.41 0.05-0.62 0.08c-0.01 0-0.02 0-0.04 0c-0.62 0.09-1.25 0.19-1.87 0.32c-0.21 0.04-0.42 0.09-0.62 0.14h-0.01c-0.62 0.15-1.25 0.31-1.87 0.5c-0.62 0.19-1.25 0.41-1.87 0.64c-0.21 0.08-0.42 0.15-0.62 0.22c-0.21 0.07-0.42 0.14-0.62 0.2h-0.01c-0.78 0.25-1.55 0.48-2.33 0.67c-0.26 0.06-0.52 0.12-0.78 0.18h-0.01c-0.2 0.04-0.39 0.09-0.59 0.12c-0.01 0-0.01 0-0.02 0h-0.01c-0.31 0.06-0.63 0.11-0.94 0.16c-0.94 0.14-1.86 0.22-2.8 0.27h-0.01c-0.2 0.01-0.38 0.02-0.58 0.03c-0.01 0-0.02 0-0.04 0c-0.2 0-0.4 0.01-0.6 0.01c-0.21 0-0.42 0-0.62-0.01c-0.08 0-0.16-0.01-0.24-0.01c-0.05 0-0.1 0-0.14 0c-0.3-0.01-0.6-0.03-0.9-0.05c-0.31-0.02-0.63-0.05-0.94-0.08c-0.3-0.03-0.59-0.07-0.89-0.11c-0.01 0-0.03-0.01-0.04-0.01c-0.4-0.06-0.81-0.12-1.21-0.2c-0.01 0-0.02-0.01-0.04-0.01c-0.2-0.04-0.38-0.07-0.58-0.12c-0.01 0-0.02-0.01-0.04-0.01c-0.03-0.01-0.05-0.01-0.08-0.02c-1-0.21-2.01-0.48-3.01-0.81c-0.01 0-0.02-0.01-0.04-0.01c-0.4-0.13-0.81-0.28-1.21-0.43h-0.01c-2-0.74-4-1.26-6-1.56c-0.22-0.03-0.45-0.06-0.68-0.09c-0.12-0.01-0.22-0.03-0.34-0.04c-0.11-0.01-0.21-0.03-0.32-0.04c-0.21-0.02-0.41-0.04-0.61-0.05c-0.01 0-0.03 0-0.04 0c-0.43-0.03-0.86-0.06-1.29-0.07c-0.01 0-0.03 0-0.04 0c-0.44-0.01-0.88-0.01-1.32 0c-0.19 0-0.39 0.02-0.59 0.03c-0.03 0-0.06 0.01-0.1 0.01c-0.13 0.01-0.26 0.01-0.38 0.02c-0.05 0-0.09 0.01-0.13 0.01h-0.01c-0.11 0.01-0.23 0.02-0.35 0.03c-0.1 0.01-0.2 0.02-0.3 0.03c-0.16 0.01-0.33 0.04-0.49 0.05c-0.04 0-0.08 0-0.12 0.01c-0.01 0-0.02 0-0.03 0c-0.2 0.02-0.39 0.05-0.59 0.08c-0.22 0.03-0.44 0.05-0.66 0.09c-0.09 0.01-0.18 0.04-0.28 0.05c-0.31 0.05-0.62 0.11-0.94 0.18c-0.22 0.05-0.45 0.09-0.67 0.14c-0.2 0.05-0.39 0.1-0.59 0.15c-0.43 0.11-0.86 0.22-1.29 0.35c-0.62 0.19-1.23 0.41-1.85 0.64c-0.26 0.1-0.52 0.19-0.78 0.28c-0.26 0.09-0.52 0.18-0.78 0.26c-0.26 0.08-0.51 0.16-0.77 0.23c-1.3 0.37-2.61 0.64-3.91 0.83c-0.31 0.04-0.62 0.08-0.94 0.12c-0.3 0.03-0.61 0.06-0.91 0.08c-0.01 0-0.02 0-0.03 0c-0.41 0.03-0.81 0.05-1.22 0.06c-0.21 0.01-0.42 0.01-0.62 0.01c-0.22 0-0.44 0-0.66-0.01c-0.09 0-0.18-0.01-0.28-0.01c-0.31-0.01-0.62-0.03-0.94-0.05c-0.62-0.04-1.25-0.11-1.88-0.2c-0.01 0-0.02 0-0.03 0c-0.3-0.04-0.61-0.09-0.91-0.14c-0.31-0.05-0.62-0.11-0.94-0.18c-0.41-0.09-0.83-0.19-1.25-0.29h-0.01c-0.01 0-0.01 0-0.02 0c-0.2-0.05-0.39-0.11-0.6-0.17c-0.42-0.12-0.84-0.25-1.26-0.38c-0.42-0.14-0.83-0.27-1.25-0.43c-1.88-0.7-3.77-1.2-5.66-1.51c-0.21-0.03-0.41-0.06-0.61-0.09c-0.42-0.06-0.84-0.11-1.26-0.15c-0.02 0-0.04-0.01-0.05-0.01c-0.13-0.01-0.25-0.02-0.38-0.03c-0.22-0.02-0.44-0.03-0.66-0.04c-0.05 0-0.1-0.01-0.15-0.01c-0.17-0.01-0.34-0.01-0.51-0.02c-0.04 0-0.08 0-0.12 0c-0.21 0-0.42-0.01-0.62-0.01c-0.21 0-0.42 0-0.62 0.01c-0.82 0.02-1.65 0.08-2.48 0.18c-0.22 0.02-0.43 0.05-0.65 0.08c-0.3 0.04-0.6 0.09-0.9 0.14c-0.23 0.04-0.46 0.09-0.69 0.13c-0.08 0.02-0.16 0.03-0.24 0.04c-0.01 0-0.02 0.01-0.04 0.01c-0.03 0.01-0.06 0.01-0.08 0.02c-0.39 0.08-0.78 0.17-1.18 0.28c-0.13 0.03-0.25 0.06-0.37 0.1c-0.22 0.06-0.44 0.13-0.67 0.2c-0.05 0.02-0.11 0.03-0.17 0.04c-0.05 0.02-0.1 0.04-0.15 0.05c-0.26 0.08-0.52 0.16-0.78 0.25c-0.32 0.11-0.65 0.22-0.97 0.34c-0.41 0.15-0.81 0.29-1.22 0.43c-0.01 0-0.02 0.01-0.04 0.01c-0.25 0.08-0.49 0.16-0.74 0.23c-0.17 0.05-0.33 0.1-0.5 0.15c-0.03 0.01-0.07 0.02-0.1 0.03c-0.32 0.09-0.64 0.17-0.96 0.25c-0.06 0.01-0.12 0.03-0.19 0.04c-0.03 0.01-0.07 0.01-0.11 0.02c-0.17 0.04-0.35 0.08-0.53 0.12c-0.42 0.09-0.82 0.16-1.24 0.23c-0.19 0.03-0.38 0.06-0.57 0.09c-0.02 0-0.04 0.01-0.06 0.01c-0.2 0.03-0.39 0.05-0.59 0.07c-0.62 0.07-1.26 0.12-1.88 0.15h-0.01c-0.18 0.01-0.35 0.02-0.53 0.03c-0.03 0-0.06 0-0.08 0c-0.21 0.01-0.42 0.01-0.63 0.01c-0.31 0-0.62-0.01-0.94-0.03c-0.31-0.01-0.63-0.03-0.94-0.05c-0.62-0.04-1.25-0.11-1.88-0.2c-0.83-0.12-1.64-0.27-2.48-0.46c-0.21-0.05-0.43-0.1-0.63-0.15h-0.01c-0.21-0.05-0.4-0.11-0.61-0.17h-0.01c-0.21-0.06-0.42-0.12-0.63-0.18c-0.21-0.06-0.41-0.14-0.61-0.2c-0.42-0.14-0.84-0.27-1.26-0.43c-3.54-1.32-7.09-1.94-10.62-1.86c-0.62 0.01-1.23 0.06-1.85 0.12c-0.62 0.06-1.25 0.13-1.88 0.23c-0.62 0.1-1.25 0.23-1.87 0.37c-0.62 0.15-1.26 0.31-1.89 0.5c-0.62 0.19-1.24 0.41-1.86 0.64c-2.08 0.77-4.17 1.3-6.25 1.59c-0.62 0.09-1.24 0.15-1.86 0.2c-1.66 0.12-3.33 0.09-5-0.11h-0.01c-0.21-0.02-0.41-0.06-0.61-0.09h-0.01c-1.04-0.14-2.08-0.35-3.12-0.61h-0.01c-0.21-0.05-0.41-0.11-0.61-0.17h-0.01c-0.83-0.23-1.66-0.5-2.49-0.81c-3.33-1.24-6.65-1.87-9.98-1.87v0.01c-3.33 0-6.66 0.63-9.99 1.87c-1.47 0.55-2.95 0.97-4.43 1.28c-8.72-17.91-13.61-38.02-13.61-59.27c0-75.04 60.99-135.87 136.23-135.87v0l0.05-0.04z" />
		<path class="s3" d="m697.51 352.07l2.34 2.85c-11.74 1.23-23.52 2.08-35.37 2.23c-20.68 0.3-45.32 1.3-64.5-2.64c-5.15-1.06-10.74-1.82-15.52-3.93c-3.03-1.33-5.93-2.77-8.57-4.29c21.05 9.49 69.15 9.39 121.63 5.77l-0.01 0.01z" />
		<path class="s4" d="m764.39 335.85l8.38-22.07h1.01l-8.3 21.9" />
		<path class="s5" d="m772.48 335.45c1.46 0.84 0.65 0.89 0 1c-11.86 4.78-35.18 9.17-62.83 13.43l1.41-12.95c21.1-0.55 43.07-0.75 61.43-1.48v0l-0.01 0z" />
		<path class="s6" d="m749.19 204.64c-0.38 0.48-0.77 0.98-1.15 1.47l1.2-1.68c-0.02 0.07-0.04 0.14-0.05 0.21h0zm6.7 134.94c-16.44-2.25-33.66-3.97-61.4 1.35c-5.01-9.56-8.84-20.05-11.7-31c19.04-35.11 45.84-74.62 66.37-105.15c-7.19 27.07-20.45 82.29 6.73 134.79v0.01z" />
		<path class="s7" d="m704.58 266.69c-2.52-10.22-3.36-13.37-5.07-21.29l3.04 1.97c0.75 5.23 1.42 9.56 3.79 16.31l-1.75 3.01h-0.01z" />
		<g >
			<path class="s8" d="m749.59 204.12c-20.58 30.61-47.63 70.45-66.8 105.8c-0.5-1.91-0.97-3.83-1.41-5.76c18.62-33.8 47.22-73.33 68.21-100.04v0v0z" />
			<g >
			</g>
			<g >
				<path class="s9" d="m689.45 290.01c1.39-0.17 2.88 0.35 3.67 1.92" />
			</g>
			<g >
				<path class="s9" d="m697.61 276.56c1.36-0.1 2.77 0.49 3.46 2.05" />
				<path class="s9" d="m699.1 274.25c1.36-0.1 2.77 0.49 3.46 2.05" />
				<path class="s9" d="m700.78 271.77c1.36-0.1 2.77 0.49 3.46 2.05" />
			</g>
			<g >
				<path class="s9" d="m713.36 253.48c1.1 0.01 2.2 0.57 2.66 1.87" />
				<path class="s9" d="m715.68 249.52c1.1-0.07 2.24 0.42 2.78 1.68" />
				<path class="s9" d="m718.5 245.43c1.07-0.02 2.15 0.49 2.63 1.73" />
			</g>
			<path class="s10" d="m708.39 260.22c1.22 0.04 2.43 0.7 2.9 2.15" />
			<path class="s9" d="m727.06 233.77c0.74 0.02 1.47 0.42 1.75 1.3" />
		</g>
		<path class="s7" d="m635.42 246.26c-4.11-12.33-4.95-20.41-7.05-30.15l2.08 1.71c2.25 8.27 3.28 16.77 7.12 24.74l-2.15 3.7z" />
		<path class="s11" d="m628.35 216.03c2.13 0.16 4.26 0.13 6.39 0.65c0.86 3.25 2.02 6.44 3.27 9.61c-2.57-0.46-5.15-0.92-7.8-0.84l-1.86-9.42v0z" />
		<path class="s11" d="m699.2 245.29c2.27 0.1 4.78 0.24 7.17 0.43l0.89 5.8l-0.25-0.08c-2.06-0.26-4.12-0.5-6.24-0.43l-1.57-5.72v0h0z" />
		<path class="s9" d="m688.64 291.42c-6.44-14.57-9.25-27.43-12.86-40.67" />
		<path class="s9" d="m685.48 297.44c-5.41-8.83-6.01-11.41-8-15.8" />
		<path class="s12" d="m700.62 355.12h-0.75l-2.6-3.23l3.42-0.65c32.03-4.76 59.54-9.66 72.42-15.05c-10.26 12.6-20.01 25.71-31.06 37.51" />
		<path class="s13" d="m772.61 316.63c4.14-0.75 6.92-0.06 9.05 1.3c2.61 1.37 5.22 1.37 7.84 0.96c2.51-0.69 4.71-2.71 8.05 0.13c-0.39 3.43-0.11 5.03 0.13 6.72c0.26 1.47 0.56 3.33 0.54 4.94c-1.65-0.01-2.96-0.1-4.34-0.61c-2.58-1.13-5.11-0.71-7.63-0.08c-3.62 1.19-5.94 0.65-7.9-0.1c-4.61-1.91-7.03-1.7-10.02-1.55" />
		<path class="s14" d="m781.66 317.92c2.61 1.37 5.22 1.37 7.84 0.97c2.51-0.69 4.71-2.71 8.05 0.12c-0.39 3.43-0.11 5.03 0.13 6.72c0.26 1.47 0.56 3.32 0.53 4.94c-1.65-0.01-2.97-0.1-4.34-0.61c-2.58-1.13-5.1-0.72-7.62-0.09c-3.62 1.19-5.93 0.65-7.9-0.1c-2.09-0.87-3.74-1.29-5.18-1.48c0.58-4.02 2.05-8.04 3.35-12.05c2.11 0.11 3.76 0.7 5.14 1.58v0z" />
		<path class="s9" d="m772.61 316.63c4.14-0.75 6.92-0.06 9.05 1.3c2.61 1.37 5.22 1.37 7.84 0.96c2.51-0.69 4.71-2.71 8.05 0.13c-0.39 3.43-0.11 5.03 0.13 6.72c0.26 1.47 0.56 3.33 0.54 4.94c-1.65-0.01-2.96-0.1-4.34-0.61c-2.58-1.13-5.11-0.71-7.63-0.08c-3.62 1.19-5.94 0.65-7.9-0.1c-4.61-1.91-7.03-1.7-10.02-1.55" />
		<path class="s3" d="m736.35 376.77l-148.17 1.89l-0.31-5.28c-7.56-10.97-16.54-20.95-21.21-33.94c3.94 4.15 10.5 7.93 17.78 11.14c4.78 2.11 10.37 2.87 15.52 3.92c19.19 3.94 43.83 2.94 64.51 2.64c32.77-0.4 64.98-6.18 97.4-10.6" />
		<path class="s15" d="m750.98 358.84c-29.85 5.43-78.28 9.34-118.52 7.72c-18.11-0.73-35.26-2.45-50.79-6.96" />
		<path class="s15" d="m758.69 350.23c-17 2.87-33.27 5.02-48.92 6.48c-48.24 4.49-96.96 5.13-135.48-3.47" />
		<path class="s16" d="m711.28 361.52l-0.06-3.19l3.73-0.59" />
		<path class="s16" d="m717.64 361.04l-0.06-3.28l4.02-0.61" />
		<path class="s16" d="m723.99 360.68l-0.07-3.41l4.35-0.63" />
		<path class="s16" d="m730.75 360.38l-0.13-3.83l4.35-0.63" />
		<path class="s16" d="m736.38 359.56l-0.13-3.83l4.35-0.63" />
		<path class="s16" d="m742.25 358.85l-0.13-3.83l13.12-2.23" />
		<path class="s9" d="m698.3 340.01c2.28 3.41 3.85 6.4 7.11 10.52" />
		<path class="s9" d="m702.48 339.36c1.69 3.79 3.95 7.34 6.34 10.82" />
		<path class="s9" d="m706.25 338.88c1.63 3.53 3.14 7.08 5.99 10.46" />
		<path class="s17" d="m633.72 357.51l0.04-3.3l5.03-9.45l2.89 9.61l0.04 3.18" />
		<path class="s17" d="m653 345.84l2.98 8.36l0.29 3.34" />
		<path class="s8" d="m664.55 347.01l2.95 10.16l-5.7 0.09l-2.73-10.89c1.83 0.2 3.65 0.41 5.48 0.64z" />
		<path class="s17" d="m668.75 347.47l2.1 5.94l0.25 3.59" />
		<g >
			<path class="s6" d="m583.62 350.29c27.69-62.55 66.91-121.75 104.94-181.28c-12.38 22.84-26.42 127.37 13.18 183.88c-38.99-7-78.04-13.09-118.12-2.6v0v0z" />
			<g >
				<path class="s8" d="m583.82 349.85l-0.26 0.44c-2.47 0.88-3.7 0.43-3.79-1.84c26.66-60.92 66.78-122.8 108.8-179.44c-37.95 59.4-77.07 118.45-104.75 180.84v0z" />
				<path class="s9" d="m586.15 334.47c1.46-0.18 3.01 0.37 3.83 2.01" />
				<path class="s9" d="m595.35 315.82c1.46-0.18 3.01 0.37 3.83 2.01" />
				<g >
					<path class="s9" d="m612.27 283.81c1.46-0.18 3.01 0.37 3.83 2.01" />
					<path class="s9" d="m613.64 281.36c1.46-0.18 3.01 0.37 3.83 2.01" />
				</g>
				<g >
					<path class="s9" d="m620.1 270.99c1.46-0.18 3.01 0.37 3.83 2.01" />
					<path class="s9" d="m621.47 268.53c1.46-0.18 3.01 0.37 3.83 2.01" />
				</g>
				<g >
					<path class="s9" d="m627.75 258.09c1.39-0.17 2.88 0.35 3.67 1.92" />
					<path class="s9" d="m629.06 255.74c1.39-0.17 2.88 0.35 3.67 1.92" />
					<path class="s9" d="m630.75 252.98c1.39-0.17 2.88 0.35 3.67 1.92" />
				</g>
				<g >
					<path class="s9" d="m641.07 236.86c1.36-0.13 2.78 0.41 3.51 1.95" />
					<path class="s9" d="m642.5 234.51c1.36-0.13 2.78 0.41 3.51 1.95" />
					<path class="s9" d="m644.11 231.98c1.36-0.13 2.78 0.41 3.51 1.95" />
				</g>
				<g >
					<path class="s9" d="m656.03 214.13c1.1-0.05 2.23 0.45 2.75 1.73" />
					<path class="s9" d="m657.28 212.3c1.1-0.05 2.23 0.45 2.75 1.73" />
					<path class="s9" d="m658.7 210.32c1.1-0.05 2.23 0.45 2.75 1.73" />
				</g>
				<path class="s10" d="m649.91 223.28c1.22 0.04 2.43 0.7 2.9 2.15" />
				<path class="s9" d="m668.29 196.86c0.74 0.03 1.47 0.42 1.75 1.3" />
			</g>
		</g>
		<path class="s9" d="m736.1 367.58l13.91-3.13" />
		<path class="s9" d="m738.03 368.96c0.17-0.04 10.48-2.47 10.48-2.47" />
		<path class="s9" d="m741.01 370.21l5.41-1.42" />
		<path class="s18" d="m711.17 346.03l40.91-5.73l1.01 1.21c-13.29 2.77-26.72 5.02-40.2 7.03" />
		<path class="s9" d="m714.35 341.87c7.52-0.67 14.69-1.38 23.8-1.84c0.16-0.33 1.42 0.71 1.93 2.01c0.12 0.29-0.94 2.53-1.34 2.51l-0.25 0.17" />
		<path class="s9" d="m726.84 340.87c0.87 1.09 1.9 1.03 2.35 5.02" />
		<path class="s9" d="m732.71 340.7c-0.07 2.32-0.97 3.82-1.68 5.52" />
		<path class="s19" d="m721.52 341.29c0.29 0.05 0.59 0.05 0.89 0.07c0.93-0.06 1.87 0.42 2.34 1.23c0.5 1.07 0.38 2.44-0.36 3.37c-1.07 0.9-2.67 1.07-3.93 0.48c-1.19-0.62-1.67-2.19-1.22-3.42c0.5-0.85 1.38-1.38 2.28-1.74v0v0.01z" />
		<path class="s18" d="m587.16 370.59l-9.09-11.79c12.39 5.5 31.8 7.02 37.89 7.36" />
		<path class="s20" d="m566.8 369.27c3.33 0 6.65 0.62 9.98 1.86c0.62 0.23 1.25 0.45 1.88 0.64c0.21 0.06 0.41 0.12 0.61 0.18h0.01c0.21 0.06 0.41 0.12 0.61 0.17h0.01c0.21 0.05 0.42 0.1 0.62 0.15c0.62 0.15 1.25 0.26 1.87 0.36c0.21 0.03 0.42 0.07 0.62 0.1h0.01c0.21 0.03 0.41 0.06 0.61 0.09h0.01c0.21 0.02 0.42 0.03 0.62 0.05c0.83 0.08 1.66 0.12 2.49 0.12c3.33 0 6.66-0.63 9.99-1.87c0.42-0.15 0.83-0.29 1.25-0.43c6.23-2.03 12.46-1.89 18.69 0.42v0.01c0.58 0.21 1.16 0.41 1.74 0.59c0.06 0.02 0.11 0.04 0.17 0.05c0.06 0.02 0.12 0.04 0.18 0.05c0.34 0.1 0.67 0.19 1.01 0.28c0.02 0.01 0.04 0.01 0.06 0.02h0.01c1.03 0.26 2.05 0.47 3.08 0.61c0.01 0 0.02 0 0.03 0c0.08 0.01 0.15 0.03 0.23 0.04c0.13 0.02 0.27 0.04 0.4 0.05h0.01c0.34 0.04 0.69 0.06 1.03 0.09c0.06 0 0.12 0.01 0.18 0.02c0.01 0 0.02 0 0.03 0c0.2 0.01 0.4 0.03 0.6 0.04c0.02 0 0.04 0 0.06 0c0.41 0.02 0.81 0.04 1.22 0.04c0.21 0 0.42 0 0.62-0.01h0.01c0.2 0 0.39-0.02 0.59-0.03c0.01 0 0.01 0 0.02 0c0.07 0 0.15-0.01 0.21-0.01c0.2-0.01 0.39-0.03 0.59-0.04c0.05 0 0.09 0 0.14-0.01c0.09-0.01 0.18-0.02 0.28-0.03c0.42-0.04 0.84-0.08 1.26-0.14c0.21-0.03 0.41-0.06 0.62-0.1c0.22-0.04 0.44-0.07 0.66-0.11h0.01c0.21-0.04 0.4-0.07 0.61-0.12h0.01c0.61-0.13 1.23-0.29 1.84-0.46c0.42-0.12 0.85-0.24 1.27-0.38h0.01c0.41-0.13 0.83-0.28 1.25-0.44c0.62-0.23 1.25-0.44 1.87-0.63c0.62-0.19 1.24-0.35 1.86-0.5h0.01c0.21-0.05 0.43-0.1 0.63-0.14c0.62-0.13 1.22-0.24 1.83-0.33c0.43-0.06 0.85-0.1 1.28-0.14c0.21-0.02 0.42-0.03 0.62-0.04c0.41-0.03 0.81-0.05 1.22-0.06c0.42-0.01 0.83-0.01 1.25 0c0.04 0 0.08 0 0.12 0c0.17 0 0.34 0.01 0.51 0.02c0.05 0 0.1 0.01 0.15 0.01c0.22 0.01 0.44 0.03 0.66 0.04c0.13 0.01 0.25 0.02 0.38 0.03c0.02 0 0.04 0.01 0.05 0.01c0.08 0.01 0.15 0.01 0.22 0.02c0.07 0.01 0.14 0.02 0.21 0.03c0.37 0.04 0.75 0.09 1.12 0.14c0.32 0.05 0.63 0.1 0.94 0.16c0.21 0.04 0.42 0.08 0.62 0.12c0.14 0.03 0.28 0.06 0.42 0.09c0.07 0.01 0.14 0.03 0.2 0.04c0.01 0 0.01 0.01 0.02 0.01c0.36 0.09 0.74 0.18 1.1 0.28c0.04 0.01 0.08 0.02 0.12 0.04h0.01c0.83 0.23 1.66 0.51 2.49 0.82c0.62 0.23 1.25 0.45 1.87 0.64c0.21 0.06 0.41 0.12 0.61 0.18c0 0 0.01 0 0.02 0c0.21 0.06 0.4 0.12 0.61 0.17c0 0 0.01 0 0.02 0c0.01 0 0.01 0 0.02 0c0.2 0.05 0.39 0.1 0.59 0.15c0.16 0.04 0.31 0.06 0.47 0.1c0.06 0.01 0.13 0.03 0.2 0.04c0.07 0.01 0.14 0.03 0.21 0.04c0.06 0.01 0.12 0.02 0.18 0.03c0.27 0.05 0.55 0.11 0.82 0.15c0.21 0.03 0.42 0.07 0.62 0.1h0.01c0.01 0 0.02 0 0.03 0c0.2 0.03 0.38 0.07 0.58 0.09h0.01c0.01 0 0.02 0 0.04 0c0.09 0.01 0.18 0.02 0.27 0.03c0.11 0.01 0.22 0.02 0.33 0.03c0.22 0.02 0.44 0.04 0.66 0.05c0.14 0.01 0.28 0.02 0.43 0.03c0.05 0 0.1 0.01 0.15 0.01c0.05 0 0.11 0.01 0.16 0.01c0.07 0 0.13 0.01 0.2 0.01c0.04 0 0.08 0 0.12 0c0.27 0.01 0.54 0.02 0.81 0.02c0.2 0 0.39 0 0.59-0.01c0.01 0 0.02 0 0.04 0c0.02 0 0.04 0 0.06 0c0.59-0.02 1.18-0.05 1.77-0.11c0.03 0 0.05-0.01 0.08-0.01c0.18-0.02 0.36-0.04 0.54-0.06c0.21-0.02 0.42-0.05 0.63-0.08c0.21-0.03 0.41-0.06 0.61-0.09c0.22-0.03 0.44-0.07 0.66-0.12h0.01c0.21-0.04 0.41-0.07 0.61-0.12h0.01c0.62-0.13 1.23-0.29 1.84-0.46c0.84-0.23 1.68-0.5 2.52-0.81h0.01c0.41-0.15 0.83-0.3 1.25-0.44c0.21-0.07 0.42-0.13 0.62-0.2c0.17-0.05 0.34-0.11 0.52-0.16c0.03-0.01 0.06-0.02 0.1-0.03c0.34-0.09 0.67-0.18 1.01-0.26c0.04-0.01 0.08-0.02 0.12-0.03c0.05-0.01 0.09-0.02 0.14-0.04c0.28-0.06 0.56-0.13 0.84-0.19c0.13-0.03 0.27-0.05 0.4-0.07c0.11-0.02 0.21-0.04 0.32-0.06c0.22-0.04 0.44-0.07 0.66-0.11c0.3-0.04 0.59-0.08 0.89-0.12c0.2-0.02 0.41-0.04 0.61-0.06c0.01 0 0.01 0 0.02 0c0.05-0.01 0.11-0.01 0.16-0.02c0.15-0.01 0.31-0.03 0.46-0.04c0.11-0.01 0.22-0.01 0.33-0.02c0.1-0.01 0.19-0.01 0.29-0.02c0.21-0.01 0.42-0.02 0.63-0.03c0.01 0 0.03 0 0.04 0c0.39-0.01 0.78-0.01 1.17 0c0.39 0.01 0.78 0.03 1.17 0.05c0.26 0.02 0.52 0.04 0.78 0.06c0.05 0.01 0.1 0.01 0.15 0.02c0.16 0.02 0.32 0.03 0.48 0.05c0.31 0.04 0.62 0.08 0.93 0.12c0.39 0.06 0.78 0.13 1.17 0.2c0.39 0.08 0.79 0.16 1.18 0.26c0.25 0.06 0.5 0.13 0.75 0.2c0.05 0.01 0.1 0.02 0.14 0.04c0.19 0.05 0.38 0.1 0.58 0.16c0.25 0.07 0.49 0.15 0.74 0.23c0.04 0.01 0.09 0.03 0.13 0.04c0.39 0.13 0.78 0.26 1.17 0.41c0.01 0 0.02 0 0.04 0.01c0.41 0.15 0.81 0.29 1.22 0.43c0.01 0 0.02 0.01 0.03 0.01c0.2 0.06 0.39 0.14 0.59 0.2c0.21 0.06 0.42 0.12 0.62 0.18h0.01c0.21 0.06 0.41 0.12 0.61 0.17h0.01c0.21 0.05 0.42 0.1 0.62 0.15c0.18 0.04 0.37 0.08 0.55 0.12c0.03 0.01 0.05 0.01 0.08 0.02c0.22 0.05 0.43 0.09 0.65 0.13c0.4 0.08 0.81 0.14 1.21 0.2c0.09 0.01 0.18 0.02 0.27 0.04c0.12 0.02 0.24 0.04 0.36 0.05c0.01 0 0.02 0 0.04 0c0.2 0.02 0.4 0.05 0.6 0.06c0.01 0 0.02 0 0.04 0c0.06 0 0.11 0.01 0.17 0.02c0.44 0.04 0.88 0.06 1.32 0.08c0.34 0.01 0.67 0.02 1.01 0.02c0.2 0 0.4 0 0.6-0.01c0.01 0 0.02 0 0.03 0c1.91-0.04 3.83-0.3 5.74-0.75c1.21-0.29 2.42-0.64 3.62-1.09c2.7-1 5.39-1.6 8.09-1.79c0.01 0 0.02 0 0.03 0c0.2-0.01 0.39-0.03 0.59-0.04c0.01 0 0.02 0 0.04 0c0.83-0.04 1.67-0.04 2.5 0c0.03 0 0.05 0 0.07 0c0.18 0.01 0.36 0.02 0.54 0.04c0.04 0 0.09 0.01 0.13 0.01c0.17 0.01 0.33 0.03 0.5 0.04c0.17 0.02 0.33 0.04 0.5 0.05c0.33 0.04 0.65 0.08 0.98 0.12c0.13 0.02 0.26 0.04 0.39 0.06c0.09 0.01 0.19 0.03 0.29 0.04c0.07 0.01 0.14 0.02 0.2 0.04c0.15 0.03 0.3 0.06 0.45 0.09c0.02 0 0.04 0.01 0.05 0.01c0.2 0.04 0.4 0.09 0.61 0.13c0.18 0.04 0.37 0.08 0.55 0.12c0.04 0.01 0.07 0.02 0.11 0.03c0.1 0.03 0.2 0.05 0.3 0.08c0.12 0.03 0.25 0.06 0.37 0.1c0.18 0.05 0.36 0.1 0.54 0.15c0.26 0.08 0.52 0.16 0.77 0.24c0.02 0.01 0.04 0.01 0.05 0.02c0.05 0.02 0.1 0.04 0.15 0.05c0.31 0.1 0.62 0.21 0.93 0.32c0.07 0.02 0.13 0.05 0.2 0.07c0.01 0 0.02 0 0.04 0.01c0.4 0.15 0.81 0.29 1.21 0.43c0.42 0.14 0.84 0.27 1.26 0.38c0.21 0.06 0.42 0.12 0.62 0.17c0.41 0.11 0.83 0.21 1.25 0.29c0.62 0.13 1.25 0.23 1.87 0.32c0.21 0.03 0.42 0.06 0.62 0.09h0.01c0.41 0.05 0.83 0.08 1.25 0.11c0.62 0.04 1.25 0.07 1.87 0.07c0.42 0 0.83-0.02 1.25-0.04h0.01c0.21-0.01 0.4-0.02 0.61-0.04h0.01c1.04-0.07 2.08-0.21 3.12-0.4h0.01c0.21-0.04 0.42-0.07 0.62-0.12h0.01c1.45-0.3 2.9-0.73 4.35-1.27h0.01c0.41-0.15 0.83-0.3 1.25-0.44c0.42-0.14 0.82-0.27 1.24-0.38c0.42-0.12 0.84-0.22 1.26-0.32h0.01c0.21-0.05 0.41-0.1 0.61-0.14c0.62-0.13 1.25-0.24 1.87-0.33c0.42-0.06 0.83-0.09 1.25-0.13h0.01c0.2-0.02 0.42-0.04 0.62-0.05h0.01c0.21-0.01 0.41-0.03 0.61-0.04c0.21-0.01 0.42-0.02 0.62-0.03c3.54-0.08 7.07 0.54 10.61 1.86h0.01c4.6 1.71 9.21 2.25 13.81 1.59c-2.76 4.38-5.78 8.58-9.01 12.6c-1.6-0.31-3.2-0.76-4.8-1.35h-0.01c-3.54-1.32-7.07-1.94-10.61-1.86c-0.21 0-0.42 0.02-0.62 0.03c-0.21 0.01-0.41 0.02-0.61 0.04h-0.01c-0.2 0.01-0.42 0.03-0.62 0.05h-0.01c-0.42 0.04-0.83 0.08-1.25 0.14c-0.62 0.09-1.25 0.19-1.87 0.32c-0.21 0.04-0.41 0.09-0.61 0.14h-0.01c-0.42 0.1-0.84 0.2-1.26 0.32c-0.42 0.12-0.82 0.25-1.24 0.38c-0.41 0.13-0.83 0.28-1.25 0.44h-0.01c-1.45 0.54-2.9 0.97-4.35 1.27h-0.01c-0.21 0.04-0.42 0.09-0.62 0.12h-0.01c-1.04 0.19-2.08 0.32-3.12 0.39h-0.01c-0.21 0.01-0.4 0.03-0.61 0.04h-0.01c-0.42 0.02-0.83 0.04-1.25 0.04c-0.62 0-1.25-0.03-1.87-0.07c-0.62-0.04-1.25-0.11-1.88-0.2c-0.62-0.09-1.25-0.19-1.87-0.32c-0.41-0.09-0.83-0.19-1.25-0.29h-0.01c-0.21-0.05-0.41-0.11-0.61-0.17c-0.42-0.12-0.84-0.25-1.26-0.38c-0.41-0.13-0.81-0.27-1.21-0.42v-0.01c-0.23-0.09-0.46-0.16-0.69-0.24c-0.66-0.23-1.33-0.44-1.99-0.62c-0.44-0.12-0.88-0.23-1.33-0.33c-0.2-0.05-0.4-0.09-0.61-0.13c-0.02 0-0.04-0.01-0.05-0.01c-0.15-0.03-0.3-0.06-0.45-0.09c-0.07-0.01-0.14-0.02-0.2-0.04c-0.09-0.02-0.19-0.03-0.28-0.04c-0.13-0.02-0.26-0.04-0.39-0.06c-0.33-0.05-0.66-0.09-0.99-0.12c-0.17-0.02-0.32-0.04-0.49-0.05c-0.17-0.02-0.33-0.03-0.5-0.04c-0.04 0-0.09-0.01-0.13-0.01c-0.21-0.01-0.41-0.03-0.61-0.04c-0.64-0.03-1.28-0.04-1.91-0.03c-0.2 0-0.39 0.02-0.59 0.03c-0.21 0.01-0.42 0.02-0.62 0.04c-0.01 0-0.02 0-0.03 0c-0.21 0.01-0.42 0.03-0.62 0.05h-0.01c-0.19 0.02-0.39 0.04-0.59 0.06c-0.21 0.02-0.41 0.05-0.62 0.08c-0.01 0-0.02 0-0.04 0c-0.62 0.09-1.25 0.19-1.87 0.32c-0.21 0.04-0.42 0.09-0.62 0.14h-0.01c-0.62 0.15-1.25 0.31-1.87 0.5c-0.62 0.19-1.25 0.41-1.87 0.64c-0.21 0.08-0.42 0.15-0.62 0.22c-0.21 0.07-0.42 0.14-0.62 0.2h-0.01c-0.78 0.25-1.55 0.48-2.33 0.67c-0.26 0.06-0.52 0.12-0.78 0.18h-0.01c-0.2 0.04-0.39 0.09-0.59 0.12c-0.01 0-0.01 0-0.02 0h-0.01c-0.31 0.06-0.63 0.11-0.94 0.16c-0.94 0.14-1.86 0.22-2.8 0.27h-0.01c-0.2 0.01-0.38 0.02-0.58 0.03c-0.01 0-0.02 0-0.04 0c-0.2 0-0.4 0.01-0.6 0.01c-0.21 0-0.42 0-0.62-0.01c-0.08 0-0.16-0.01-0.24-0.01c-0.05 0-0.1 0-0.14 0c-0.3-0.01-0.6-0.03-0.9-0.05c-0.31-0.02-0.63-0.05-0.94-0.08c-0.3-0.03-0.59-0.07-0.89-0.11c-0.01 0-0.03-0.01-0.04-0.01c-0.4-0.06-0.81-0.12-1.21-0.2c-0.01 0-0.02-0.01-0.04-0.01c-0.2-0.04-0.38-0.07-0.58-0.12c-0.01 0-0.02-0.01-0.04-0.01c-0.03-0.01-0.05-0.01-0.08-0.02c-1-0.21-2.01-0.48-3.01-0.81c-0.01 0-0.02-0.01-0.04-0.01c-0.4-0.13-0.81-0.28-1.21-0.43h-0.01c-2-0.74-4-1.26-6-1.56c-0.22-0.03-0.45-0.06-0.68-0.09c-0.12-0.01-0.22-0.03-0.34-0.04c-0.11-0.01-0.21-0.03-0.32-0.04c-0.21-0.02-0.41-0.04-0.61-0.05c-0.01 0-0.03 0-0.04 0c-0.43-0.03-0.86-0.06-1.29-0.07c-0.01 0-0.03 0-0.04 0c-0.44-0.01-0.88-0.01-1.32 0c-0.19 0-0.39 0.02-0.59 0.03c-0.03 0-0.06 0.01-0.1 0.01c-0.13 0.01-0.26 0.01-0.38 0.02c-0.05 0-0.09 0.01-0.13 0.01h-0.01c-0.11 0.01-0.23 0.02-0.35 0.03c-0.1 0.01-0.2 0.02-0.3 0.03c-0.16 0.01-0.33 0.04-0.49 0.05c-0.04 0-0.08 0-0.12 0.01c-0.01 0-0.02 0-0.03 0c-0.2 0.02-0.39 0.05-0.59 0.08c-0.22 0.03-0.44 0.05-0.66 0.09c-0.09 0.01-0.18 0.04-0.28 0.05c-0.31 0.05-0.62 0.11-0.94 0.18c-0.22 0.05-0.45 0.09-0.67 0.14c-0.2 0.05-0.39 0.1-0.59 0.15c-0.43 0.11-0.86 0.22-1.29 0.35c-0.62 0.19-1.23 0.41-1.85 0.64c-0.26 0.1-0.52 0.19-0.78 0.28c-0.26 0.09-0.52 0.18-0.78 0.26c-0.26 0.08-0.51 0.16-0.77 0.23c-1.3 0.37-2.61 0.64-3.91 0.83c-0.31 0.04-0.62 0.08-0.94 0.12c-0.3 0.03-0.61 0.06-0.91 0.08c-0.01 0-0.02 0-0.03 0c-0.41 0.03-0.81 0.05-1.22 0.06c-0.21 0.01-0.42 0.01-0.62 0.01c-0.22 0-0.44 0-0.66-0.01c-0.09 0-0.18-0.01-0.28-0.01c-0.31-0.01-0.62-0.03-0.94-0.05c-0.62-0.04-1.25-0.11-1.88-0.2c-0.01 0-0.02 0-0.03 0c-0.3-0.04-0.61-0.09-0.91-0.14c-0.31-0.05-0.62-0.11-0.94-0.18c-0.41-0.09-0.83-0.19-1.25-0.29h-0.01c-0.01 0-0.01 0-0.02 0c-0.2-0.05-0.39-0.11-0.6-0.17c-0.42-0.12-0.84-0.25-1.26-0.38c-0.42-0.14-0.83-0.27-1.25-0.43c-1.88-0.7-3.77-1.2-5.66-1.51c-0.21-0.03-0.41-0.06-0.61-0.09c-0.42-0.06-0.84-0.11-1.26-0.15c-0.02 0-0.04-0.01-0.05-0.01c-0.13-0.01-0.25-0.02-0.38-0.03c-0.22-0.02-0.44-0.03-0.66-0.04c-0.05 0-0.1-0.01-0.15-0.01c-0.17-0.01-0.34-0.01-0.51-0.02c-0.04 0-0.08 0-0.12 0c-0.21 0-0.42-0.01-0.62-0.01c-0.21 0-0.42 0-0.62 0.01c-0.82 0.02-1.65 0.08-2.48 0.18c-0.22 0.02-0.43 0.05-0.65 0.08c-0.3 0.04-0.6 0.09-0.9 0.14c-0.23 0.04-0.46 0.09-0.69 0.13c-0.08 0.02-0.16 0.03-0.24 0.04c-0.01 0-0.02 0.01-0.04 0.01c-0.03 0.01-0.06 0.01-0.08 0.02c-0.39 0.08-0.78 0.17-1.18 0.28c-0.13 0.03-0.25 0.06-0.37 0.1c-0.22 0.06-0.44 0.13-0.67 0.2c-0.05 0.02-0.11 0.03-0.17 0.04c-0.05 0.02-0.1 0.04-0.15 0.05c-0.26 0.08-0.52 0.16-0.78 0.25c-0.32 0.11-0.65 0.22-0.97 0.34c-0.41 0.15-0.81 0.29-1.22 0.43c-0.01 0-0.02 0.01-0.04 0.01c-0.25 0.08-0.49 0.16-0.74 0.23c-0.17 0.05-0.33 0.1-0.5 0.15c-0.03 0.01-0.07 0.02-0.1 0.03c-0.32 0.09-0.64 0.17-0.96 0.25c-0.06 0.01-0.12 0.03-0.19 0.04c-0.03 0.01-0.07 0.01-0.11 0.02c-0.17 0.04-0.35 0.08-0.53 0.12c-0.42 0.09-0.82 0.16-1.24 0.23c-0.19 0.03-0.38 0.06-0.57 0.09c-0.02 0-0.04 0.01-0.06 0.01c-0.2 0.03-0.39 0.05-0.59 0.07c-0.62 0.07-1.26 0.12-1.88 0.15h-0.01c-0.18 0.01-0.35 0.01-0.53 0.02c-0.03 0-0.06 0-0.08 0c-0.21 0.01-0.42 0.01-0.63 0.01c-0.31 0-0.62-0.01-0.94-0.02c-0.31-0.01-0.63-0.03-0.94-0.05c-0.62-0.04-1.25-0.11-1.88-0.2c-0.83-0.12-1.64-0.27-2.48-0.46c-0.21-0.05-0.43-0.1-0.63-0.15h-0.01c-0.21-0.05-0.4-0.11-0.61-0.17h-0.01c-0.21-0.06-0.42-0.12-0.63-0.18c-0.21-0.06-0.41-0.14-0.61-0.2c-0.42-0.14-0.84-0.27-1.26-0.43c-3.54-1.32-7.09-1.94-10.62-1.86c-0.62 0.01-1.23 0.06-1.85 0.12c-0.62 0.06-1.25 0.13-1.88 0.23c-0.62 0.1-1.25 0.23-1.87 0.37c-0.62 0.15-1.26 0.31-1.89 0.5c-0.62 0.19-1.24 0.41-1.86 0.64c-2.08 0.77-4.17 1.3-6.25 1.59c-0.62 0.09-1.24 0.15-1.86 0.2c-1.66 0.12-3.33 0.09-5-0.11h-0.01c-0.21-0.02-0.41-0.06-0.61-0.09h-0.01c-1.04-0.14-2.08-0.35-3.12-0.61h-0.01c-0.21-0.05-0.41-0.11-0.61-0.17h-0.01c-0.83-0.23-1.66-0.5-2.49-0.81c-3.33-1.24-6.65-1.87-9.98-1.87v0.01c-0.21 0-0.43 0-0.64 0.01c-2.79-3.7-5.41-7.54-7.82-11.52c2.82-0.89 5.64-1.33 8.46-1.33v0l0.04 0zm79.88 25.58c0.21 0 0.42 0 0.62 0.01c0.04 0 0.08 0 0.12 0c0.17 0 0.34 0.01 0.51 0.02c0.05 0 0.1 0.01 0.15 0.01c0.22 0.01 0.44 0.03 0.66 0.04c0.13 0.01 0.25 0.02 0.38 0.03c0.02 0 0.04 0.01 0.05 0.01c0.08 0.01 0.15 0.01 0.22 0.02c0.07 0.01 0.14 0.02 0.21 0.03c0.37 0.04 0.75 0.09 1.12 0.14c0.32 0.05 0.63 0.1 0.94 0.16c0.21 0.04 0.42 0.08 0.62 0.12c0.14 0.03 0.28 0.06 0.42 0.09c0.07 0.01 0.14 0.03 0.2 0.04c0.01 0 0.01 0.01 0.02 0.01c0.36 0.09 0.74 0.18 1.1 0.28c0.04 0.01 0.08 0.02 0.12 0.04h0.01c0.83 0.23 1.66 0.51 2.49 0.82c0.62 0.23 1.25 0.45 1.87 0.64c0.21 0.06 0.41 0.12 0.61 0.18c0 0 0.01 0 0.02 0c0.21 0.06 0.4 0.12 0.61 0.17c0 0 0.01 0 0.02 0c0.01 0 0.01 0 0.02 0c0.2 0.05 0.39 0.1 0.59 0.15c0.16 0.04 0.31 0.06 0.47 0.1c0.06 0.01 0.13 0.03 0.2 0.04c0.07 0.02 0.14 0.03 0.21 0.04c0.06 0.01 0.12 0.02 0.18 0.03c0.27 0.05 0.55 0.11 0.82 0.15c0.21 0.03 0.42 0.07 0.62 0.1h0.01c0.01 0 0.02 0 0.03 0c0.2 0.03 0.38 0.07 0.58 0.09h0.01c0.01 0 0.02 0 0.04 0c0.09 0.01 0.18 0.02 0.27 0.03c0.11 0.01 0.22 0.02 0.33 0.03c0.22 0.02 0.44 0.04 0.66 0.05c0.14 0.01 0.28 0.02 0.43 0.03c0.05 0 0.1 0.01 0.15 0.01c0.05 0 0.11 0.01 0.16 0.01c0.07 0 0.13 0.01 0.2 0.01c0.04 0 0.08 0 0.12 0c0.27 0.01 0.54 0.02 0.81 0.02c0.2 0 0.39 0 0.59-0.01c0.01 0 0.02 0 0.04 0c0.02 0 0.04 0 0.06 0c0.59-0.02 1.18-0.05 1.77-0.11c0.03 0 0.05-0.01 0.08-0.01c0.18-0.02 0.36-0.04 0.54-0.06c0.21-0.02 0.42-0.05 0.63-0.08c0.21-0.03 0.41-0.06 0.61-0.09c0.22-0.04 0.44-0.07 0.66-0.12h0.01c0.21-0.04 0.41-0.07 0.61-0.12h0.01c0.62-0.13 1.23-0.29 1.84-0.46c0.84-0.23 1.68-0.5 2.52-0.81h0.01c0.41-0.15 0.83-0.3 1.25-0.44c0.21-0.07 0.42-0.13 0.62-0.2c0.17-0.05 0.34-0.11 0.52-0.16c0.03-0.01 0.06-0.02 0.1-0.03c0.34-0.09 0.67-0.18 1.01-0.26c0.04-0.01 0.08-0.02 0.12-0.03c0.05-0.01 0.09-0.02 0.14-0.04c0.28-0.06 0.56-0.13 0.84-0.19c0.13-0.03 0.27-0.05 0.4-0.07c0.11-0.02 0.21-0.04 0.32-0.06c0.22-0.04 0.44-0.07 0.66-0.11c0.3-0.04 0.59-0.08 0.89-0.12c0.2-0.02 0.41-0.04 0.61-0.06c0.01 0 0.01 0 0.02 0c0.05-0.01 0.11-0.01 0.16-0.02c0.15-0.01 0.31-0.03 0.46-0.04c0.11-0.01 0.22-0.01 0.33-0.02c0.1-0.01 0.19-0.01 0.29-0.02c0.21-0.01 0.42-0.02 0.63-0.03c0.01 0 0.03 0 0.04 0c0.39-0.01 0.78-0.01 1.17 0c0.39 0.01 0.78 0.03 1.17 0.05c0.26 0.02 0.52 0.04 0.78 0.06c0.05 0 0.1 0.01 0.15 0.02c0.16 0.02 0.32 0.03 0.48 0.05c0.31 0.04 0.62 0.08 0.93 0.12c0.39 0.06 0.78 0.13 1.17 0.2c0.39 0.08 0.79 0.16 1.18 0.26c0.25 0.06 0.5 0.13 0.75 0.2c0.05 0.01 0.1 0.02 0.14 0.04c0.19 0.05 0.38 0.1 0.58 0.16c0.25 0.07 0.49 0.15 0.74 0.23c0.04 0.01 0.09 0.03 0.13 0.04c0.39 0.13 0.78 0.26 1.17 0.41c0.01 0 0.02 0 0.04 0.01c0.41 0.15 0.81 0.29 1.22 0.43c0.01 0 0.02 0.01 0.03 0.01c0.2 0.06 0.39 0.14 0.59 0.2c0.21 0.06 0.42 0.12 0.62 0.18h0.01c0.21 0.06 0.41 0.12 0.61 0.17h0.01c0.21 0.05 0.42 0.1 0.62 0.15c0.18 0.04 0.37 0.08 0.55 0.12c0.03 0.01 0.05 0.01 0.08 0.02c0.22 0.05 0.43 0.09 0.65 0.13c0.4 0.07 0.81 0.14 1.21 0.2c0.09 0.01 0.18 0.02 0.27 0.04c0.12 0.02 0.24 0.04 0.36 0.05c0.01 0 0.02 0 0.04 0c0.2 0.02 0.4 0.05 0.6 0.06c0.01 0 0.02 0 0.04 0c0.06 0 0.11 0.01 0.17 0.02c0.44 0.04 0.88 0.06 1.32 0.08c0.34 0.01 0.67 0.02 1.01 0.02c0.2 0 0.4 0 0.6-0.01c0.01 0 0.02 0 0.03 0c1.91-0.04 3.83-0.3 5.74-0.75c1.21-0.29 2.42-0.64 3.62-1.09c2.7-1 5.39-1.6 8.09-1.79c0.01 0 0.02 0 0.03 0c0.2-0.01 0.39-0.03 0.59-0.04c0.01 0 0.02 0 0.04 0c0.83-0.04 1.67-0.04 2.5 0c0.03 0 0.05 0 0.07 0c0.18 0.01 0.36 0.02 0.54 0.04c0.04 0 0.09 0.01 0.13 0.01c0.17 0.01 0.33 0.03 0.5 0.04c0.17 0.02 0.33 0.04 0.5 0.05c0.33 0.04 0.65 0.07 0.98 0.12c0.13 0.02 0.26 0.04 0.39 0.06c0.09 0.01 0.19 0.03 0.28 0.04c0.07 0.01 0.14 0.02 0.2 0.04c0.15 0.03 0.3 0.06 0.45 0.09c0.02 0 0.04 0.01 0.05 0.01c0.2 0.04 0.4 0.09 0.61 0.13c0.18 0.04 0.37 0.08 0.55 0.12c0.04 0.01 0.07 0.02 0.11 0.03c0.1 0.03 0.2 0.05 0.3 0.08c0.12 0.03 0.25 0.06 0.37 0.1c0.18 0.05 0.36 0.1 0.54 0.15c0.26 0.08 0.52 0.16 0.77 0.24c0.02 0.01 0.04 0.01 0.05 0.02c0.05 0.02 0.1 0.04 0.15 0.05c0.31 0.1 0.62 0.21 0.93 0.32c0.07 0.02 0.13 0.05 0.2 0.07c0.01 0 0.02 0 0.04 0.01c0.4 0.15 0.81 0.29 1.21 0.43c0.42 0.14 0.84 0.27 1.26 0.38c0.21 0.06 0.42 0.12 0.62 0.17c0.41 0.11 0.83 0.21 1.25 0.29c0.62 0.13 1.25 0.23 1.87 0.32c0.21 0.03 0.42 0.06 0.62 0.09h0.01c0.41 0.05 0.83 0.08 1.25 0.11c0.62 0.04 1.25 0.07 1.87 0.07c0.42 0 0.83-0.02 1.25-0.04h0.01c0.21-0.01 0.4-0.02 0.61-0.04h0.01c1.04-0.07 2.08-0.21 3.12-0.4h0.01c0.21-0.04 0.42-0.07 0.62-0.12h0.01c1.45-0.3 2.9-0.73 4.35-1.27h0.01c0.41-0.15 0.83-0.3 1.25-0.44c0.42-0.14 0.82-0.27 1.24-0.38c0.42-0.12 0.84-0.22 1.26-0.32h0.01c0.21-0.05 0.41-0.1 0.61-0.14c0.62-0.13 1.25-0.24 1.87-0.33c0.42-0.06 0.83-0.09 1.25-0.13h0.01c0.2-0.02 0.42-0.04 0.62-0.05h0.01c0.21-0.01 0.41-0.03 0.61-0.04c0.21-0.01 0.42-0.02 0.62-0.03c2.14-0.05 4.27 0.16 6.4 0.62c-5.12 5.22-10.67 10.02-16.58 14.36c-1.18 0.4-2.36 0.74-3.54 0.99h-0.01c-0.21 0.04-0.42 0.09-0.62 0.12h-0.01c-1.04 0.19-2.08 0.32-3.12 0.39h-0.01c-0.21 0.01-0.4 0.03-0.61 0.04h-0.01c-0.42 0.02-0.83 0.04-1.25 0.04c-0.62 0-1.25-0.03-1.87-0.07c-0.62-0.04-1.25-0.11-1.88-0.2c-0.62-0.09-1.25-0.19-1.87-0.32c-0.41-0.09-0.83-0.19-1.25-0.29h-0.01c-0.21-0.05-0.41-0.11-0.61-0.17c-0.42-0.12-0.84-0.25-1.26-0.38c-0.41-0.13-0.81-0.27-1.21-0.42v-0.01c-0.23-0.09-0.46-0.16-0.69-0.24c-0.66-0.23-1.33-0.44-1.99-0.62c-0.44-0.12-0.88-0.23-1.33-0.33c-0.2-0.05-0.4-0.09-0.61-0.13c-0.02 0-0.04-0.01-0.05-0.01c-0.15-0.03-0.3-0.06-0.45-0.09c-0.07-0.01-0.14-0.02-0.2-0.04c-0.09-0.02-0.19-0.03-0.29-0.04c-0.13-0.02-0.26-0.04-0.39-0.06c-0.33-0.05-0.66-0.09-0.99-0.12c-0.17-0.02-0.32-0.04-0.49-0.05c-0.17-0.02-0.33-0.03-0.5-0.04c-0.04 0-0.09-0.01-0.13-0.01c-0.21-0.01-0.41-0.03-0.61-0.04c-0.64-0.03-1.28-0.04-1.91-0.03c-0.2 0-0.39 0.02-0.59 0.03c-0.21 0.01-0.42 0.02-0.62 0.04c-0.01 0-0.02 0-0.03 0c-0.21 0.01-0.42 0.03-0.62 0.05h-0.01c-0.19 0.02-0.39 0.04-0.59 0.06c-0.21 0.02-0.41 0.05-0.62 0.08c-0.01 0-0.02 0-0.04 0c-0.62 0.09-1.25 0.19-1.87 0.32c-0.21 0.04-0.42 0.09-0.62 0.14h-0.01c-0.62 0.15-1.25 0.31-1.87 0.5c-0.62 0.19-1.25 0.41-1.87 0.64c-0.21 0.08-0.42 0.15-0.62 0.22c-0.21 0.07-0.42 0.14-0.62 0.2h-0.01c-0.78 0.25-1.55 0.48-2.33 0.67c-0.26 0.06-0.52 0.12-0.78 0.18h-0.01c-0.2 0.04-0.39 0.09-0.59 0.12c-0.01 0-0.01 0-0.02 0h-0.01c-0.31 0.06-0.63 0.11-0.94 0.16c-0.94 0.14-1.86 0.22-2.8 0.27h-0.01c-0.2 0.01-0.38 0.02-0.58 0.03c-0.01 0-0.02 0-0.04 0c-0.2 0-0.4 0.01-0.6 0.01c-0.21 0-0.42 0-0.62-0.01c-0.08 0-0.16-0.01-0.24-0.01c-0.05 0-0.1 0-0.14 0c-0.3-0.01-0.6-0.03-0.9-0.05c-0.31-0.02-0.63-0.05-0.94-0.08c-0.3-0.03-0.59-0.07-0.89-0.11c-0.01 0-0.03-0.01-0.04-0.01c-0.4-0.06-0.81-0.12-1.21-0.2c-0.01 0-0.02-0.01-0.04-0.01c-0.2-0.04-0.38-0.07-0.58-0.12c-0.01 0-0.02-0.01-0.04-0.01c-0.03-0.01-0.05-0.01-0.08-0.02c-1-0.21-2.01-0.48-3.01-0.81c-0.01 0-0.02-0.01-0.04-0.01c-0.4-0.13-0.81-0.28-1.21-0.43h-0.01c-2-0.74-4-1.26-6-1.56c-0.22-0.03-0.45-0.06-0.68-0.09c-0.12-0.01-0.22-0.03-0.34-0.04c-0.11-0.01-0.21-0.02-0.32-0.04c-0.21-0.02-0.41-0.04-0.61-0.05c-0.01 0-0.03 0-0.04 0c-0.43-0.03-0.86-0.06-1.29-0.07c-0.01 0-0.03 0-0.04 0c-0.44-0.01-0.88-0.01-1.32 0c-0.19 0-0.39 0.02-0.59 0.03c-0.03 0-0.06 0.01-0.1 0.01c-0.13 0.01-0.26 0.01-0.38 0.02c-0.05 0-0.09 0.01-0.13 0.01h-0.01c-0.11 0.01-0.23 0.02-0.35 0.03c-0.1 0.01-0.2 0.02-0.3 0.03c-0.16 0.02-0.33 0.04-0.49 0.05c-0.04 0-0.08 0-0.12 0.01c-0.01 0-0.02 0-0.03 0c-0.2 0.02-0.39 0.05-0.59 0.08c-0.22 0.03-0.44 0.05-0.66 0.09c-0.09 0.01-0.18 0.04-0.28 0.05c-0.31 0.05-0.62 0.11-0.94 0.18c-0.22 0.05-0.45 0.09-0.67 0.14c-0.2 0.05-0.39 0.1-0.59 0.15c-0.43 0.11-0.86 0.22-1.29 0.35c-0.62 0.19-1.23 0.41-1.85 0.64c-0.26 0.1-0.52 0.19-0.78 0.28c-0.26 0.09-0.52 0.18-0.78 0.26c-0.26 0.08-0.51 0.16-0.77 0.23c-1.3 0.37-2.61 0.64-3.91 0.83c-0.31 0.04-0.62 0.08-0.94 0.12c-0.3 0.03-0.61 0.06-0.91 0.08c-0.01 0-0.02 0-0.03 0c-0.41 0.03-0.81 0.05-1.22 0.06c-0.21 0.01-0.42 0.01-0.62 0.01c-0.22 0-0.44 0-0.66-0.01c-0.09 0-0.18-0.01-0.28-0.01c-0.31-0.01-0.62-0.03-0.94-0.05c-0.62-0.04-1.25-0.11-1.88-0.2c-0.01 0-0.02 0-0.03 0c-0.3-0.04-0.61-0.09-0.91-0.14c-0.31-0.05-0.62-0.11-0.94-0.18c-0.41-0.09-0.83-0.19-1.25-0.29h-0.01c-0.01 0-0.01 0-0.02 0c-0.2-0.05-0.39-0.11-0.6-0.17c-0.42-0.12-0.84-0.25-1.26-0.38c-0.42-0.14-0.83-0.27-1.25-0.43c-1.88-0.7-3.77-1.2-5.66-1.51c-0.21-0.03-0.41-0.06-0.61-0.09c-0.42-0.06-0.84-0.11-1.26-0.15c-0.02 0-0.04-0.01-0.05-0.01c-0.13-0.01-0.25-0.02-0.38-0.03c-0.22-0.02-0.44-0.03-0.66-0.04c-0.05 0-0.1-0.01-0.15-0.01c-0.17-0.01-0.34-0.01-0.51-0.02c-0.04 0-0.08 0-0.12 0c-0.21 0-0.42-0.01-0.62-0.01c-0.21 0-0.42 0-0.62 0.01c-0.82 0.02-1.65 0.08-2.48 0.18c-0.22 0.03-0.43 0.05-0.65 0.08c-0.3 0.04-0.6 0.09-0.9 0.14c-0.23 0.04-0.46 0.09-0.69 0.13c-0.08 0.02-0.16 0.03-0.24 0.04c-0.01 0-0.02 0.01-0.04 0.01c-0.03 0.01-0.06 0.01-0.08 0.02c-0.39 0.08-0.78 0.17-1.18 0.28c-0.13 0.03-0.25 0.06-0.37 0.1c-0.22 0.06-0.44 0.13-0.67 0.2c-0.05 0.02-0.11 0.03-0.17 0.04c-0.05 0.02-0.1 0.04-0.15 0.05c-0.26 0.08-0.52 0.16-0.78 0.25c-0.32 0.11-0.65 0.22-0.97 0.34c-0.41 0.15-0.81 0.29-1.22 0.43c-0.01 0-0.02 0.01-0.04 0.01c-0.25 0.08-0.49 0.16-0.74 0.23c-0.17 0.05-0.33 0.1-0.5 0.15c-0.03 0.01-0.07 0.02-0.1 0.03c-0.32 0.09-0.64 0.17-0.96 0.25c-0.06 0.02-0.12 0.03-0.19 0.04c-0.03 0.01-0.07 0.01-0.11 0.02c-0.17 0.04-0.35 0.08-0.53 0.12c-0.42 0.09-0.82 0.16-1.24 0.23c-0.19 0.03-0.38 0.06-0.57 0.09c-0.02 0-0.04 0.01-0.06 0.01c-0.2 0.03-0.39 0.05-0.59 0.07c-0.62 0.07-1.26 0.12-1.88 0.15h-0.01c-0.18 0.01-0.35 0.02-0.53 0.03c-0.03 0-0.06 0-0.08 0c-0.21 0.01-0.42 0.01-0.63 0.01c-0.31 0-0.62-0.01-0.94-0.02c-0.31-0.01-0.63-0.03-0.94-0.05c-0.62-0.04-1.25-0.11-1.88-0.2c-0.83-0.12-1.64-0.27-2.48-0.46c-0.21-0.05-0.43-0.1-0.63-0.15h-0.01c-0.21-0.05-0.4-0.11-0.61-0.17h-0.01c-0.21-0.06-0.42-0.11-0.63-0.18c-0.21-0.06-0.41-0.14-0.61-0.2c-0.42-0.14-0.84-0.27-1.26-0.43c-3.54-1.32-7.09-1.94-10.62-1.86c-0.62 0.01-1.23 0.06-1.85 0.12c-0.62 0.06-1.25 0.13-1.88 0.23c-0.62 0.1-1.25 0.23-1.87 0.37c-0.62 0.15-1.26 0.31-1.89 0.5c-0.62 0.19-1.24 0.41-1.86 0.64c-0.67 0.25-1.33 0.47-2 0.67c-5.25-3.82-10.21-8.01-14.85-12.53c0.21 0.05 0.42 0.1 0.62 0.15c0.62 0.15 1.25 0.26 1.87 0.36c0.21 0.03 0.42 0.07 0.62 0.1h0.01c0.21 0.03 0.41 0.06 0.61 0.09h0.01c0.21 0.02 0.42 0.03 0.62 0.05c0.83 0.08 1.66 0.12 2.49 0.12c3.33 0 6.66-0.63 9.99-1.87c0.42-0.15 0.83-0.29 1.25-0.43c6.23-2.03 12.46-1.89 18.69 0.42v0.01c0.58 0.21 1.16 0.41 1.74 0.59c0.06 0.02 0.11 0.04 0.17 0.05c0.06 0.02 0.12 0.04 0.18 0.05c0.34 0.1 0.67 0.19 1.01 0.28c0.02 0.01 0.04 0.01 0.06 0.02h0.01c1.03 0.26 2.05 0.47 3.08 0.61c0.01 0 0.02 0 0.03 0c0.08 0.01 0.15 0.03 0.23 0.04c0.13 0.02 0.27 0.04 0.4 0.05h0.01c0.34 0.04 0.69 0.06 1.03 0.09c0.06 0 0.12 0.01 0.18 0.02c0.01 0 0.02 0 0.03 0c0.2 0.01 0.4 0.03 0.6 0.04c0.02 0 0.04 0 0.06 0c0.41 0.02 0.81 0.04 1.22 0.04c0.21 0 0.42 0 0.62-0.01h0.01c0.2 0 0.39-0.02 0.59-0.03c0.01 0 0.01 0 0.02 0c0.07 0 0.15-0.01 0.21-0.01c0.2-0.01 0.39-0.03 0.59-0.04c0.05 0 0.09 0 0.14-0.01c0.09-0.01 0.18-0.02 0.28-0.03c0.42-0.04 0.84-0.08 1.26-0.14c0.21-0.03 0.41-0.06 0.62-0.1c0.22-0.04 0.44-0.07 0.66-0.11h0.01c0.21-0.04 0.4-0.07 0.61-0.12h0.01c0.61-0.13 1.23-0.29 1.84-0.46c0.42-0.12 0.85-0.24 1.27-0.38h0.01c0.41-0.13 0.83-0.28 1.25-0.44c0.62-0.23 1.25-0.44 1.87-0.63c0.62-0.19 1.24-0.35 1.86-0.5h0.01c0.21-0.05 0.43-0.1 0.63-0.14c0.62-0.13 1.22-0.24 1.83-0.33c0.43-0.06 0.85-0.1 1.28-0.14c0.21-0.02 0.42-0.03 0.62-0.04c0.41-0.03 0.81-0.05 1.22-0.06c0.21 0 0.42-0.01 0.62-0.01v0h0.06zm0 25.58c0.21 0 0.42 0 0.62 0.01c0.04 0 0.08 0 0.12 0c0.17 0 0.34 0.01 0.51 0.02c0.05 0 0.1 0.01 0.15 0.01c0.22 0.01 0.44 0.03 0.66 0.04c0.13 0.01 0.25 0.02 0.38 0.03c0.02 0 0.04 0.01 0.05 0.01c0.08 0.01 0.15 0.01 0.22 0.02c0.07 0.01 0.14 0.02 0.21 0.03c0.37 0.04 0.75 0.09 1.12 0.14c0.32 0.05 0.63 0.1 0.94 0.16c0.21 0.04 0.42 0.08 0.62 0.12c0.14 0.03 0.28 0.06 0.42 0.09c0.07 0.02 0.14 0.03 0.2 0.04c0.01 0 0.01 0.01 0.02 0.01c0.36 0.09 0.74 0.18 1.1 0.28c0.04 0.01 0.08 0.02 0.12 0.04h0.01c0.83 0.23 1.66 0.51 2.49 0.82c0.62 0.23 1.25 0.45 1.87 0.64c0.21 0.06 0.41 0.12 0.61 0.18c0 0 0.01 0 0.02 0c0.21 0.06 0.4 0.12 0.61 0.17c0 0 0.01 0 0.02 0c0.01 0 0.01 0 0.02 0c0.2 0.05 0.39 0.1 0.59 0.15c0.16 0.04 0.31 0.06 0.47 0.1c0.06 0.01 0.13 0.03 0.2 0.04c0.07 0.02 0.14 0.03 0.21 0.04c0.06 0.01 0.12 0.02 0.18 0.03c0.27 0.05 0.55 0.11 0.82 0.15c0.21 0.03 0.42 0.07 0.62 0.1h0.01c0.01 0 0.02 0 0.03 0c0.2 0.03 0.38 0.07 0.58 0.09h0.01c0.01 0 0.02 0 0.04 0c0.09 0.01 0.18 0.02 0.27 0.03c0.11 0.01 0.22 0.02 0.33 0.03c0.22 0.02 0.44 0.04 0.66 0.05c0.14 0.01 0.28 0.02 0.43 0.03c0.05 0 0.1 0.01 0.15 0.01c0.05 0 0.11 0.01 0.16 0.01c0.07 0 0.13 0.01 0.2 0.01c0.04 0 0.08 0 0.12 0c0.27 0.01 0.54 0.02 0.81 0.02c0.2 0 0.39 0 0.59-0.01c0.01 0 0.02 0 0.04 0c0.02 0 0.04 0 0.06 0c0.59-0.02 1.18-0.05 1.77-0.11c0.03 0 0.05-0.01 0.08-0.01c0.18-0.02 0.36-0.04 0.54-0.06c0.21-0.02 0.42-0.05 0.63-0.08c0.21-0.03 0.41-0.06 0.61-0.09c0.22-0.04 0.44-0.07 0.66-0.12h0.01c0.21-0.04 0.41-0.07 0.61-0.12h0.01c0.62-0.13 1.23-0.29 1.84-0.46c0.84-0.23 1.68-0.5 2.52-0.81h0.01c0.41-0.15 0.83-0.3 1.25-0.44c0.21-0.07 0.42-0.13 0.62-0.2c0.17-0.05 0.34-0.11 0.52-0.16c0.03-0.01 0.06-0.02 0.1-0.03c0.34-0.09 0.67-0.18 1.01-0.26c0.04-0.01 0.08-0.02 0.12-0.03c0.05-0.01 0.09-0.02 0.14-0.04c0.28-0.06 0.56-0.13 0.84-0.19c0.13-0.03 0.27-0.05 0.4-0.07c0.11-0.02 0.21-0.04 0.32-0.06c0.22-0.04 0.44-0.07 0.66-0.11c0.3-0.04 0.59-0.08 0.89-0.12c0.2-0.02 0.41-0.04 0.61-0.06c0.01 0 0.01 0 0.02 0c0.05-0.01 0.11-0.01 0.16-0.02c0.15-0.01 0.31-0.02 0.46-0.04c0.11-0.01 0.22-0.01 0.33-0.02c0.1-0.01 0.19-0.01 0.29-0.02c0.21-0.01 0.42-0.02 0.63-0.03c0.01 0 0.03 0 0.04 0c0.39-0.01 0.78-0.01 1.17 0c0.39 0.01 0.78 0.03 1.17 0.05c0.26 0.02 0.52 0.04 0.78 0.06c0.05 0 0.1 0.01 0.15 0.02c0.16 0.02 0.32 0.03 0.48 0.05c0.31 0.04 0.62 0.08 0.93 0.12c0.39 0.06 0.78 0.13 1.17 0.2c0.39 0.08 0.79 0.16 1.18 0.26c0.25 0.06 0.5 0.13 0.75 0.2c0.05 0.01 0.1 0.02 0.14 0.04c0.19 0.05 0.38 0.1 0.58 0.16c0.25 0.07 0.49 0.15 0.74 0.23c0.04 0.01 0.09 0.03 0.13 0.04c0.39 0.13 0.78 0.26 1.17 0.41c0.01 0 0.02 0 0.04 0.01c0.41 0.15 0.81 0.29 1.22 0.43c0.01 0 0.02 0.01 0.03 0.01c0.2 0.06 0.39 0.14 0.59 0.2c0.21 0.06 0.42 0.12 0.62 0.18h0.01c0.21 0.06 0.41 0.12 0.61 0.17h0.01c0.21 0.05 0.42 0.1 0.62 0.15c0.18 0.04 0.37 0.08 0.55 0.12c0.03 0.01 0.05 0.01 0.08 0.02c0.22 0.05 0.43 0.09 0.65 0.13c0.4 0.07 0.81 0.14 1.21 0.2c0.09 0.01 0.18 0.02 0.27 0.04c0.12 0.02 0.24 0.04 0.36 0.05c0.01 0 0.02 0 0.04 0c0.2 0.02 0.4 0.05 0.6 0.06c0.01 0 0.02 0 0.04 0c0.06 0 0.11 0.01 0.17 0.02c0.44 0.04 0.88 0.06 1.32 0.08c0.34 0.01 0.67 0.02 1.01 0.02c0.2 0 0.4 0 0.6-0.01c0.01 0 0.02 0 0.03 0c1.91-0.04 3.83-0.3 5.74-0.75c1.21-0.29 2.42-0.64 3.62-1.09c2.7-1 5.39-1.6 8.09-1.79c0.01 0 0.02 0 0.03 0c0.2-0.01 0.39-0.03 0.59-0.04c0.01 0 0.02 0 0.04 0c0.83-0.04 1.67-0.04 2.5 0c0.03 0 0.05 0 0.07 0c0.18 0.01 0.36 0.02 0.54 0.04c0.04 0 0.09 0.01 0.13 0.01c0.17 0.01 0.33 0.03 0.5 0.04c0.17 0.02 0.33 0.03 0.5 0.05c0.33 0.04 0.65 0.08 0.98 0.12c0.13 0.02 0.26 0.04 0.39 0.06c0.09 0.02 0.19 0.03 0.28 0.04c0.07 0.01 0.14 0.02 0.2 0.04c0.15 0.03 0.3 0.06 0.45 0.09c0.02 0 0.04 0.01 0.05 0.01c0.2 0.04 0.4 0.09 0.61 0.13c0.18 0.04 0.37 0.08 0.55 0.12c0.04 0.01 0.07 0.02 0.11 0.03c0.1 0.02 0.2 0.05 0.3 0.08c0.12 0.03 0.25 0.06 0.37 0.1c0.18 0.05 0.36 0.1 0.54 0.15c0.26 0.08 0.52 0.16 0.77 0.24c0.02 0.01 0.04 0.01 0.05 0.02c0.05 0.02 0.1 0.04 0.15 0.05c0.12 0.04 0.24 0.08 0.36 0.12c-18.31 9.12-38.96 14.26-60.82 14.26c-22.67 0-44.06-5.52-62.87-15.29c1.52 0.31 3.05 0.73 4.57 1.3v0.01c0.58 0.21 1.16 0.41 1.74 0.59c0.06 0.02 0.11 0.04 0.17 0.05c0.06 0.02 0.12 0.04 0.18 0.05c0.34 0.1 0.67 0.19 1.01 0.28c0.02 0.01 0.04 0.01 0.06 0.02h0.01c1.03 0.26 2.05 0.47 3.08 0.61c0.01 0 0.02 0 0.03 0c0.08 0.01 0.15 0.03 0.23 0.04c0.13 0.02 0.27 0.04 0.4 0.05h0.01c0.34 0.04 0.69 0.06 1.03 0.09c0.06 0 0.12 0.01 0.18 0.02c0.01 0 0.02 0 0.03 0c0.2 0.01 0.4 0.03 0.6 0.04c0.02 0 0.04 0 0.06 0c0.41 0.02 0.81 0.04 1.22 0.04c0.21 0 0.42 0 0.62-0.01h0.01c0.2 0 0.39-0.02 0.59-0.03c0.01 0 0.01 0 0.02 0c0.07 0 0.15-0.01 0.21-0.01c0.2-0.01 0.39-0.03 0.59-0.04c0.05 0 0.09 0 0.14-0.01c0.09-0.01 0.18-0.02 0.28-0.03c0.42-0.04 0.84-0.08 1.26-0.14c0.21-0.03 0.41-0.06 0.62-0.1c0.22-0.04 0.44-0.07 0.66-0.11h0.01c0.21-0.04 0.4-0.07 0.61-0.12h0.01c0.61-0.13 1.23-0.29 1.84-0.46c0.42-0.12 0.85-0.24 1.27-0.38h0.01c0.41-0.13 0.83-0.28 1.25-0.44c0.62-0.23 1.25-0.44 1.87-0.63c0.62-0.19 1.24-0.35 1.86-0.5h0.01c0.21-0.05 0.43-0.1 0.63-0.14c0.62-0.13 1.22-0.24 1.83-0.33c0.43-0.06 0.85-0.1 1.28-0.14c0.21-0.02 0.42-0.03 0.62-0.04c0.41-0.03 0.81-0.05 1.22-0.06c0.21 0 0.42-0.01 0.62-0.01v0h0.02z" />
		<path class="s21" d="m771.49 343.43c0.82 0.88 0.48 0.92-0.25 1.93l-3.66 5.09c-1.32 2.05-3.11 3.86-4.12 6.07c-0.41 0.91-0.56 1.6 0.03 2.55c0.15 0.34 0.3 0.69 0.46 1.03c0.57 1.63 0.45 2.03-0.28 3.12c-1.17 1.78-2.35 3.55-3.52 5.33c-0.32 0.48-0.41 0.5-0.94 0.12c-2.78-1.65-5.55-3.3-8.33-4.95c6.27-7.41 12.25-15.1 18.33-22.7c0.75 0.8 1.52 1.6 2.27 2.41l0.01 0z" />
		<path class="s22" d="m766.26 344.74l3.76 2.31l-2.44 3.39c-0.01 0.01-0.02 0.02-0.03 0.04l-3.88-2.48c0.86-1.09 1.73-2.17 2.59-3.26v0zm-4.15 5.21l4.03 2.49c-0.99 1.31-2.01 2.6-2.68 4.08v0.01l-4.39-2.77c1.02-1.26 2.03-2.53 3.04-3.8v0v-0.01zm1.73 9.88c0.04 0.09 0.08 0.18 0.12 0.27c0.57 1.63 0.45 2.03-0.28 3.12c-0.7 1.05-1.39 2.11-2.08 3.16l-8.92-4.78c1.25-1.5 2.49-3.01 3.72-4.53l7.45 2.76h-0.01z" />
		<path class="s18" d="m707.18 351.39c21.2-3.44 42.42-7.15 63.12-12.93c-0.54 0.65-1.07 1.29-1.61 1.94c-1.76 2.67-5.16 3.26-7.82 4.69c-10.52 1.66-21.05 3.22-31.58 4.79c-7.27 1.51-14.73 1.27-22.12 1.51v0h0.01z" />
		<path class="s18" d="m706.54 357.5l-0.71 3.2c-48.13 5.59-106.84 2.28-127.46-3.06l-2.99-3.34c43.72 8.12 87.44 7.35 131.16 3.2v0z" />
	</g>
	<g clip-path="url(#cp1)">
		<g >
			<g >
				<g >
					<path class="s0" d="m0 0h450v300h-450v-300z" />
					<path fill-rule="evenodd" class="s23" d="m450 0l-450 300m0-300l450 300" />
					<path class="s24" d="m225 0v300" />
					<path class="s24" d="m0 150h450" />
					<path class="s25" d="m225 0v300" />
					<path class="s25" d="m0 150h450" />
				</g>
			</g>
		</g>
	</g>
</svg>