<svg version="1.2" xmlns="http://www.w3.org/2000/svg" viewBox="0 0 900 600" width="900" height="600">
	<title></title>
	<style>
		.s0 { fill: #ffcc00 } 
		.s1 { fill: #000000 } 
	</style>
	<path id="rect2177" class="s0" d="m0 0h900v600h-900z"/>
	<path id="path3192" fill-rule="evenodd" class="s1" d="m450.1 59h3l-1 7.7 8.4-0.8v6l-8.5-0.9 1 9.3c1.9 1 3.3 3.1 3.3 5.3 0 1-0.3 1.9-0.7 2.7 0 0 0.2-0.1 0.2-0.1l0.8-0.3c0.2-0.3 0.4-0.6 0.7-1 1.1-1.2 2.7-2.4 4.5-3.3 1.8-0.9 3.9-1.6 6.1-1.7 2-0.1 4.1 0.3 6.1 1.2 0.7-0.5 1.3-1 2.1-1.6l1.3 0.9c0.9 2.5 2.3 4.5 4.1 5.9 1.9 1.3 4.4 2.1 7.9 2.1h0.7 0.1c1-0.2 1.8-0.3 2.7-0.1l0.5 0.2c1.2 0.4 2.2 1.3 2.9 2.3 1.3 2.2 1.7 5 1.5 8.5-0.3 6.9-2.8 15.7-5.7 22.2-3.6 8-8.2 14.5-12.3 18.9-2.1 2.2-4 3.8-5.7 5q-1.2 0.8-2.3 1.3c-0.7 0.3-1.4 0.6-2.2 0.4l0.2-1-1.6 0.1q-0.1-3.7 0-7.3c-1-0.4-2.2-0.8-3.4-1.1-2.1-0.7-4.3-1.1-6.1-1.3-0.1 0.2-0.2 0.4-0.3 0.5-1.7 2.9-4.8 4.7-8.4 4.7-3.6 0-6.6-1.8-8.4-4.7-0.1-0.1-0.2-0.3-0.3-0.5-1.8 0.2-4 0.6-6.1 1.3-1.2 0.3-2.4 0.7-3.4 1.1q0.1 3.6 0 7.3l-1.6-0.1 0.2 1c-0.8 0.2-1.5-0.1-2.2-0.4q-1.1-0.5-2.3-1.3c-1.7-1.2-3.6-2.8-5.7-5-4.1-4.4-8.7-10.9-12.3-18.9-2.9-6.5-5.4-15.3-5.7-22.2-0.2-3.5 0.2-6.3 1.5-8.5 0.7-1 1.7-1.9 2.9-2.3l0.5-0.2c0.9-0.2 1.7-0.1 2.7 0.1h0.1 0.7c3.5 0 6-0.8 7.9-2.1 1.8-1.4 3.2-3.5 4.1-6l1.3-0.8q1.1 0.8 2.1 1.6c2-0.9 4.1-1.3 6.1-1.2 2.2 0.1 4.3 0.8 6.1 1.7 1.8 0.9 3.4 2.1 4.5 3.3 0.4 0.5 0.7 0.9 1 1.3 0 0 0.5 0 0.7 0.1-0.4-0.8-0.7-1.7-0.7-2.7 0-2.3 1.4-4.3 3.4-5.3l1-9.3-8.6 0.9v-6l8.5 0.8-1-7.7zm-25.8 26.2c11.4 9.4 16.4 24.6 17.2 43.7q-0.7 1.1-1.1 2.3 0-0.2 0-0.4c0-2.1-1.7-3.7-3.9-3.7-2.1 0-4 1.6-4 3.7 0 2.1 1.9 3.8 4 3.8 1.7 0 3.1-0.9 3.7-2.3-0.1 0.5-0.1 1.1-0.1 1.6 0 0.7 0.1 1.3 0.2 2-1.9 0.2-3.9 0.7-5.9 1.3-0.9 0.3-1.8 0.6-2.7 1-0.8-19.6-6.3-35.4-18.4-45.5 2.7-0.3 5-1.1 6.7-2.4 1.9-1.3 3.3-3.1 4.3-5.1zm51.4 0c1 2 2.4 3.8 4.2 5.1 1.8 1.3 4.1 2.1 6.8 2.4-12.1 10.1-17.6 25.9-18.4 45.5-0.9-0.4-1.7-0.7-2.6-1-2-0.6-4.1-1.1-6-1.3 0.1-0.7 0.2-1.3 0.2-2q0-1.2-0.2-2.3c0.3 1.7 2 3 3.9 3 2.1 0 3.9-1.7 3.9-3.8 0-2.1-1.8-3.7-3.9-3.7-2.2 0-4 1.6-4 3.7q0 0.2 0 0.4-0.4-1.2-1.1-2.3c0.8-19.1 5.8-34.3 17.2-43.7zm-50.2 5.6c0.9 1.2 0 3.1-1.8 4.2-1.9 1.1-4 1.1-4.8-0.2-0.8-1.2 0-3.1 1.9-4.2 0.9-0.6 1.8-0.9 2.7-0.8 0.9 0 1.6 0.3 2 1zm53.7-0.2c1.9 1.1 2.7 3 1.9 4.2-0.8 1.3-2.9 1.3-4.8 0.2-1.8-1.1-2.7-3-1.8-4.2 0.4-0.7 1.1-1 2-1 0.9-0.1 1.8 0.2 2.7 0.8zm-34.6 0.3c1.2 0.4 2.4 0.9 5 0.9 2.6 0 3.9-0.5 5.1-0.9l-2.6 33.3c-0.6-0.1-1.4-0.1-2.1-0.1-1 0-1.9 0.2-2.7 0.4zm-14 6.7c0.8 1.7 0 3.8-2 4.7-2 0.8-4.3 0.2-5.1-1.6-0.9-1.7 0-3.8 2-4.6 0.5-0.3 1-0.5 1.5-0.5 1.5-0.1 2.9 0.7 3.6 2zm42.3-2c0.5 0 1 0.2 1.5 0.5 2 0.8 2.9 2.9 2.1 4.6-0.9 1.8-3.1 2.4-5.1 1.6-2-0.9-2.9-3-2-4.7 0.4-1 1.4-1.8 2.4-2 0.4-0.1 0.7 0 1.1 0zm-41 9.1c2.1 0 3.9 1.8 3.9 3.8 0 2.1-1.8 3.8-3.9 3.8-2.2 0-3.9-1.7-3.9-3.8 0-1.8 1.3-3.4 3.1-3.8 0.2 0 0.5 0 0.8 0zm36.1 0c2.2 0 4 1.8 4 3.8 0 2.1-1.8 3.8-4 3.8-2.1 0-3.9-1.7-3.9-3.8 0-1.8 1.4-3.4 3.1-3.8 0.3 0 0.6 0 0.8 0zm-33.1 10.6c2.2 0 3.9 1.7 3.9 3.8 0 2.1-1.7 3.8-3.9 3.8-2.2 0-3.9-1.7-3.9-3.8 0-1.8 1.3-3.5 3.1-3.8 0.3-0.1 0.5 0 0.8 0zm30.1 0c2.2 0 4 1.7 4 3.8 0 2.1-1.8 3.8-4 3.8-2.1 0-3.9-1.7-3.9-3.8 0-1.8 1.3-3.5 3.1-3.8 0.3-0.1 0.5 0 0.8 0zm-15 11.4c0.5 0 1 0.1 1.5 0.2 0 0 0.1 0 0.1 0 0.5 0.1 0.8 0.2 1.2 0.3q0.2 0.1 0.4 0.2c0.2 0.1 0.3 0.2 0.4 0.3 0.3 0.2 0.5 0.4 0.8 0.6 0.1 0.1 0.3 0.2 0.4 0.3 0.3 0.2 0.5 0.5 0.7 0.7 0 0.1 0.1 0.1 0.2 0.2 0.9 1.2 1.5 2.7 1.5 4.4 0 1.7-0.6 3.2-1.6 4.4q-0.5 0.7-1.1 1.2c-0.4 0.3-0.8 0.5-1.3 0.8 0 0 0 0-0.1 0.1-0.2 0.1-0.4 0.1-0.7 0.2-0.7 0.3-1.6 0.6-2.4 0.6q-0.9 0-1.6-0.2c-0.3-0.1-0.5-0.2-0.7-0.3q-0.4-0.1-0.8-0.3c-0.1 0-0.2-0.2-0.3-0.2-0.4-0.2-0.8-0.4-1.2-0.7q-0.6-0.5-1.1-1.2c-1-1.2-1.6-2.7-1.6-4.4 0-1.7 0.5-3.2 1.5-4.4 0.1 0 0.2-0.1 0.3-0.2 0.1-0.2 0.3-0.5 0.5-0.6 0.3-0.3 0.6-0.5 0.9-0.7 0.1 0 0.1-0.1 0.2-0.1 0.3-0.2 0.7-0.5 1-0.7 0 0 0.1 0.1 0.1 0 0.4-0.1 0.9-0.2 1.3-0.3 0.5-0.1 1-0.2 1.5-0.2zm-70 15.8c-1.1 2.5-2.9 5.2-5.4 7.5 6.7 2.5 17.5 2.9 28.2 2.8v2.3c-1.8 0.7-3.8 1.5-5.9 2.2 2.7 2 5.9 3.1 11 3.1l0.7 1.8c-1.1 1.1-2.3 1.9-3.6 2.6 1.9 2 3.6 3.8 5 5.6 3.9 0.3 7.6 2.6 10.7 5.3 3.2 2.8 5.7 6.1 6.8 9l0.4 1.3-1 0.4c1.6 3.1 3 6.3 3.9 9.8 2.9 0.4 6.1 1.7 9.1 3.5 2.4 1.5 4.7 3.3 6.5 5.3q0.1 0 0.2 0.1c1.5 1.4 2.6 3.2 3.4 5.3 0.7-2.1 1.8-3.9 3.3-5.3q0.1-0.1 0.2-0.1c1.8-2 4.1-3.8 6.5-5.3 3-1.8 6.2-3.1 9.1-3.5 0.9-3.5 2.3-6.7 3.9-9.8l-1-0.4 0.5-1.3c1-2.9 3.5-6.2 6.7-9 3.1-2.7 6.9-5 10.7-5.3 1.4-1.8 3.1-3.6 5-5.6-1.3-0.7-2.5-1.5-3.6-2.6l0.7-1.8c5.1 0 8.3-1.1 11-3.1-2.1-0.7-4.1-1.5-5.9-2.2v-2.3c10.7 0.1 21.5-0.3 28.3-2.8-2.5-2.3-4.4-5-5.5-7.5l-1.4-3.1 3.1 1.1c0 0 4.8 1.8 16.4 3.9 11.8 2.2 20.4 2.4 30.2 7.6 5 2.6 7.3 6.4 8.3 9.4 0.8 2.4 0.6 3.6 0.5 4.3 1 0.6 8.1 4.9 9.3 12.2 0.9 5.6-0.1 9.7-2.2 12.5-2.1 2.8-5.1 4.3-8 5l-1.6 0.4v-1.7c-0.1-1.8-0.1-3.4-0.2-4.7-0.2-1.2-0.5-2.2-1.3-3.1-1.5-1.6-5.6-3.1-15.4-3.1-8.5 0-17.6 1.2-22.5 4.7l-1.6 1.3-0.6-1.8c-3 1.2-6 2.6-8.6 4.8-2.9 2.5-5.1 5.8-5.9 11.1l-2.8 0.1c0-0.1 0-0.4-0.1-0.6q-0.4-1.6-0.7-3.3c-2.9 0.4-4.7 2.2-5.9 5.1-1.4 3.1-1.9 7.4-2.1 11.5l-0.2 2.9-2.2-1.9q-0.9-0.8-1.6-1.7c-1.3 1.2-2.1 2.3-2.6 4-0.7 2-0.9 4.9-1.2 9l-0.1 2.7-2.2-1.6q-0.2-0.2-0.4-0.4c-0.4 0.9-0.7 2.2-0.4 3.7l0.2 1.7-1.7-0.1q-0.5-0.1-1-0.1c-1.9 5-1.3 12.3 3 17.8l1.4 1.8c0.7-0.1 1.3-0.3 2-0.4v-0.1c0.1 0 0.2 0.1 0.3 0.1 4.6-1 9.2-3.5 13.9-6.8l-0.1-0.1q0.3-0.1 0.5-0.2 0.9-0.7 1.9-1.4c7-5.3 14.3-12.4 22.1-19.6 2.9-2.7 6-5.4 9.1-8v-0.1q0.1-0.1 0.3-0.1c12.4-10.3 26.3-19.2 43.1-20.4l0.1-0.3q0.4 0.1 0.8 0.2 1.6-0.1 3.1-0.1c9.5 0 16.3 2.4 21.3 6.5 5 4.1 8.4 9.7 11.8 16.1 6.8 12.8 13.7 28.8 33.3 43.3l3.4 2.4-4.2 0.1c-2 0.1-3.9-0.2-5.9-0.5 6.2 24.2 21.6 47.3 35.7 68.5l2.4 3.7-4.1-1.6c-2.4-0.9-4.7-1.9-6.9-3.1-0.3-0.1-0.5-0.3-0.7-0.4q-0.2-0.1-0.3-0.2c6.2 17 14.5 37.7 24.1 53.8 11.4 19.2 20.7 35.3 28.2 54.1l1.6 4-3.7-2.2c-19.9-12.5-35.4-30.6-47.2-50.3 3.3 10.4 5.1 19.9 6.6 28l0.5 3-2.7-1.5c-10.1-6-19.6-18.3-28.1-33.2 2.6 7 4.5 13.4 5.6 19.8l0.6 3.2-2.7-1.8c-11.2-7.5-24.6-25.6-35.7-46.1-1.3-2.3-2.5-4.6-3.6-7 2.8 8 5.4 16 6.8 24l0.5 3.1-2.6-1.6c-12.8-7.4-24.6-21.2-33.3-37.4 2.1 7.1 2.8 13.4 3.5 22.3l0.2 2.5-2.3-1.2c-9-4.7-16.2-12.6-21.8-22.7 1.4 5.5 2.4 11.3 2.4 17.9l0.1 2.3-2-0.9c-10.8-5-18.4-14-23.8-25.7q-0.4-0.7-0.7-1.4c1 5.7 1.4 11.9 1.5 20.1v2.3l-2.1-1.1c-9.2-4.5-15.3-13.5-20-25.1-0.5 6.6-1.8 12.9-4.3 18.8l-1.3 3-1.3-3c-1.7-3.7-3.1-8.3-4.5-13.4-0.5 1.1-1 2.1-1.5 3.1-0.8 1.9-1.8 3.7-2.5 5.4-0.8 3.7-0.6 8.2 0.5 12.3 1.2 4.2 3.4 8.1 6.1 10.3l2.7 2.2-3.4 0.3c-2.2 0.3-4.5 0-6.7-0.5-0.2 4.3 3.6 10.6 11 12.6l2.8 0.8-2.3 1.7q-1 0.8-2 1.4c1.8 1.2 4.9 2.3 8.4 2.5 4.3 0.4 9.2-0.1 12.5-1.5l2.6-1.1-0.8 2.8c-2 7.1-5.3 12.1-9.5 15.1 7.3 2.3 13.5 0 19.5-4.9l3.5-2.9-1.3 4.3c-1.7 5.7-5.5 10.2-10.7 13.3 0.4 0.2 0.9 0.5 1.3 0.7 0.7-0.2 1.4-0.4 2-0.2 0.8 0.1 1.5 0.4 2.1 0.8 1 0.5 1.6 1.2 1.7 1.3 0 0 0.1 0 0.1 0 0.9-0.4 1.7-0.5 2.5-0.4 0.8 0.2 1.5 0.5 2 0.8 0.5 0.3 0.9 0.6 1.2 0.8 1.1-0.2 2.2-0.1 3.1 0.2 1 0.3 1.7 0.7 1.8 0.8 1.4-0.5 2.7-0.3 3.7 0 1.2 0.4 1.9 1.1 1.9 1.1 1.8-1 3.6-0.8 4.9-0.3 1 0.3 1.5 0.7 1.9 0.9q0.1-0.1 0.3-0.2c1.7-0.9 3.5-0.7 4.9-0.3 0.3 0.1 0.5 0.3 0.8 0.4 0.4-0.4 0.7-0.8 1.1-1.2 0.4-0.3 0.6-0.4 0.9-0.7q0.1 0 0.1-0.1c4.8-11.4 16-19.5 29.2-19.5q2 0 4 0.2l1.5-6.2-4.3-0.1 1.2-5.5 4.2 1.5-0.1-5 4.9 1-1.7 4.5 4.6 0.3-1.4 5.2-3.6-1.3-0.4 6.7c12 3.5 21.1 14 22.6 26.8l0.6 0.8c0.2 0.2 0.2 0.5 0.3 0.7 1.9 3 2.8 6.6 2.6 10-0.3 3.4-1.4 6.5-3.5 8.4-0.2 1-1.6 2-2.1 2.8v0.1l-0.1 0.1c-2.2 3-3.9 4.1-7.9 6.1 0 0 0 0.1-0.1 0.1-5.3 3.1-10.8 6.6-16.9 7.2v0.1c-3.7 1.7-7.6 2.7-12.2 3h-0.2-0.2c-5.4-0.7-8-3.7-11.6-5.9l-0.1-0.1c-3.9-2.7-8.1-6.8-10.5-10.9-2.4-4.6-3.3-6.1-5-10.4 0 0 0-0.1 0-0.1q-0.4-1-1-1.8c-1-0.4-2-1-2.8-2.1q0 0-0.1-0.1c-1.4 0.2-4.9 0.3-7-2.6q0-0.1-0.1-0.2c-1.2 0.1-3.7 0-5.5-1.9-1.2 0.1-3.6 0.1-5.3-1.5-0.4 0.1-0.9 0.2-1.5 0.2-1.2 0-2.9-0.3-4.1-1.7-0.1-0.1-0.1-0.3-0.2-0.4-0.1 0-0.2 0.1-0.5 0.1-0.4 0.1-1 0.2-1.6 0.2-1 0-2.2-0.2-3.3-1-0.3 0.2-0.7 0.4-1 0.5q1.4 2.5 2.4 5.4c2.5 7.3 2.8 15.9 0.5 24.1l-1.2 4.6-1.4-4.5c-2.6-8.2-8.2-16.2-16.8-19.9 1.2 6.2 1 12.8-0.7 18.9l-1.3 4.6-1.5-4.5c-1.4-4.6-4-10.8-7.7-15.8-2.2-3-4.7-5.5-7.7-7.2 0.2 1.3 0.2 2.6 0.1 4-0.2 3.4-1.1 7.3-3.3 10.7l-1.6 2.5-0.9-2.9c-1-3-2.7-8-5.3-12.2-2.5-4.2-5.6-7.4-9.1-7.7-0.4-0.1-0.6-0.2-0.8-0.3 1.4 7.4 4.9 16.5 8.6 22l1 1.5-1.6 0.6q-1.3 0.5-2.6 0.7c7.7 24.5 20.2 42.1 33.1 54l3 2.8-4.2-0.3c-12-1.1-22.4-8.4-30.5-17.8q-1.9-2.2-3.7-4.7c6.6 13.4 14.3 24.1 21.2 32.1l2.1 2.5-3.3-0.2c-8.6-0.4-15.7-3.8-21.5-8.7 4.2 6.2 8.2 11.7 11.5 16.5l1.7 2.3-2.8-0.1c-5.4-0.2-10.3-2.1-14.9-5.1 1.4 3.9 2.1 8.2 1.3 12.8l-0.2 1.8-1.7-0.7c-7.3-2.9-11.9-6.9-15.6-11.7 0.2 3.4 0.4 6.7 0.6 10.4l0.1 2.4-2.1-1.1c-4.8-2.2-8.4-6.6-11.3-12-1.1 4.9-3.9 9.6-7.3 12.5l-0.9 0.8-0.9-0.8c-3-2.8-6.1-7.5-7.2-12.5-2.9 5.4-6.5 9.8-11.2 12l-2.2 1.1 0.1-2.4c0.2-3.7 0.4-7 0.6-10.4-3.7 4.8-8.3 8.8-15.6 11.7l-1.6 0.7-0.3-1.8c-0.8-4.6-0.1-8.9 1.3-12.8-4.5 3-9.5 4.9-14.9 5.1l-2.8 0.1 1.7-2.3c3.3-4.8 7.4-10.3 11.5-16.5-5.8 4.9-12.8 8.3-21.5 8.7l-3.3 0.2 2.1-2.5c7-8 14.6-18.7 21.2-32.1q-1.8 2.5-3.7 4.7c-8.1 9.4-18.5 16.7-30.5 17.8l-4.2 0.3 3-2.8c12.9-11.9 25.4-29.5 33.1-54q-1.3-0.2-2.6-0.7l-1.6-0.6 1-1.5c3.7-5.5 7.3-14.6 8.7-22-0.3 0.2-0.5 0.3-0.8 0.3-3.5 0.3-6.7 3.5-9.2 7.7-2.6 4.2-4.3 9.2-5.3 12.2l-0.8 2.9-1.7-2.5c-2.2-3.4-3.1-7.3-3.3-10.7-0.1-1.4-0.1-2.7 0.1-4-3 1.7-5.5 4.2-7.7 7.2-3.7 5-6.3 11.2-7.7 15.8l-1.5 4.5-1.3-4.6c-1.7-6.1-1.8-12.7-0.7-18.9-8.5 3.7-14.2 11.7-16.7 19.9l-1.5 4.5-1.2-4.6c-2.3-8.2-1.9-16.8 0.5-24.1 0.7-1.9 1.5-3.6 2.3-5.2-0.6-0.2-1.2-0.3-1.8-0.7-1.1 0.8-2.3 1-3.3 1-0.6 0-1.2-0.1-1.6-0.2-0.3 0-0.4-0.1-0.4-0.1-0.1 0.1-0.2 0.3-0.3 0.4-1.2 1.4-2.8 1.7-4.1 1.7-0.6 0-1.1-0.1-1.5-0.2-1.7 1.6-4.1 1.6-5.3 1.5-1.8 1.9-4.2 2-5.5 1.9q0 0.1-0.1 0.2c-2.1 2.9-5.6 2.8-7 2.6q0 0.1-0.1 0.1c-1.8 2.5-4.8 2.7-6.5 2.7 0 0-0.1 0-0.1 0-0.2 0.7-0.4 1.3-0.8 1.9-0.4 0.6-0.8 0.8-1.3 1.2-0.6 0.3-1.2 0.6-1.9 1-1.4 0.8-3.2 1.8-5 2.6-0.1 0.1-0.1 0-0.2 0.1 3.1 1.3 5.4 4.4 5.4 8 0 4.7-3.9 8.5-8.6 8.5-4.7 0-8.5-3.8-8.5-8.5 0-1 0.2-1.8 0.5-2.7q-1.4 1.1-2.9 1.6c-1.9 0.6-3.9 0.5-6.3 0-2.3-0.5-4.2-1.8-5.1-3.6-0.4-0.9-0.5-1.9-0.3-2.9q-0.6 0.1-1.2 0c-2.1-0.1-4.3-1-5.3-3.1-1-2-0.7-4-0.1-5.5q0.6-1.2 1.2-2.1c-1.6-0.4-3-1.4-3.7-2.7-0.9-1.4-1-3.2-0.5-4.9q0.3-1 0.7-1.8c-3.5 1.1-7.3 1.3-10.4-0.3-3.9-1.9-4.9-6.9 0.1-9.2 4.2-1.8 8.4 0.7 12.7 0.5q1.4-0.1 2.8-0.4l-15-37.9c-8.6 13.3-17.8 24.1-25.9 29.5l-2.7 1.8 0.6-3.2c1.1-6.4 3-12.8 5.7-19.8-8.6 14.9-18.1 27.2-28.2 33.2l-2.7 1.5 0.6-3c1.4-8.1 3.2-17.6 6.5-28-11.8 19.7-27.3 37.8-47.2 50.3l-3.7 2.2 1.6-4c7.5-18.8 16.8-34.9 28.2-54.1 9.6-16.1 17.9-36.8 24.1-53.8q-0.1 0.1-0.2 0.2c-0.3 0.1-0.5 0.3-0.8 0.4-2.2 1.2-4.5 2.2-6.9 3.1l-4.1 1.6 2.5-3.7c7.1-10.8 14.5-22.1 21-33.8l-21.2-53.4 24.7 46.8c4.7-9.2 8.6-18.5 11.1-28.1-1.9 0.3-3.9 0.6-5.9 0.5l-4.2-0.1 3.4-2.4c19.7-14.5 26.5-30.5 33.3-43.3 3.4-6.4 6.8-12 11.8-16.1 5.1-4.1 11.8-6.5 21.3-6.5q1.6 0 3.1 0.1 0.4-0.1 0.8-0.2l0.1 0.3c16.8 1.2 30.8 10.1 43.1 20.4q0.2 0 0.3 0.1v0.1c3.1 2.6 6.2 5.3 9.1 8 7.8 7.2 15.1 14.3 22.1 19.6q1 0.7 1.9 1.4 0.3 0.1 0.5 0.2l-0.1 0.1c4.7 3.3 9.3 5.8 13.9 6.8 0.1 0 0.2-0.1 0.4-0.1v0.1c0.6 0.1 1.2 0.3 1.9 0.4l1.4-1.8c4.3-5.5 4.9-12.8 3-17.8q-0.5 0-1 0.1l-1.7 0.1 0.3-1.7c0.2-1.5-0.1-2.8-0.5-3.7q-0.2 0.2-0.4 0.4l-2.2 1.6-0.1-2.7c-0.3-4.1-0.5-7-1.2-9-0.5-1.7-1.3-2.8-2.6-4q-0.7 0.9-1.5 1.7l-2.3 1.9-0.1-2.9c-0.3-4.1-0.8-8.4-2.2-11.5-1.2-2.9-3-4.7-5.9-5.1q-0.3 1.7-0.7 3.3c-0.1 0.2 0 0.5-0.1 0.6l-2.7-0.1c-0.9-5.3-3.1-8.6-6-11.1-2.5-2.2-5.6-3.6-8.6-4.8l-0.6 1.8-1.6-1.3c-4.9-3.5-13.9-4.7-22.5-4.7-9.8 0-13.9 1.5-15.4 3.1-0.8 0.9-1.1 1.9-1.3 3.1-0.1 1.3-0.1 2.9-0.1 4.7v1.7l-1.7-0.4c-2.9-0.7-5.9-2.2-8-5-2.1-2.8-3.1-6.9-2.2-12.5 1.2-7.3 8.3-11.6 9.3-12.2-0.1-0.7-0.3-1.9 0.5-4.3 1-3 3.3-6.8 8.4-9.4 9.7-5.2 18.3-5.4 30.1-7.6 11.6-2.1 16.4-3.9 16.4-3.9l3.2-1.1zm-4.1 1.5c-1.2 2.1-2.7 4.1-5 5.6l-2.2 1.4 2.3 1.1c5.6 2.7 13.3 3.2 22 3.3-2.9 0.5-5.5 1.1-9.8 1.3 1.7 3 3.6 6.2 3.9 8.9-4.4 0.4-8.3 0.6-13.3-0.8-4.9-1.3-6.6-7.1-6.6-7.1 0 0-1.3 3.8 2.7 8.3 4.2 3.6 6.4 7 9.2 11.8-6 0.9-10.8 0.5-15-0.4 1 2.3 0.6 4.3 0.1 6.7-4.4-2.4-10-2.7-15.8-3.5-5.9-0.9-11.4-3.1-15.5-5.5-3.9-2.3-6.4-5-7.3-8.2v-0.6c0 0 0-0.3 0-0.4 1-0.3 2.3-0.6 3.5-1 2 2.2 5.1 2.6 8.1 1.9 2.5-0.7 4.1-3.5 4.4-6.8 2.4-1.2 3.2-3 2.7-5-5 3.7-12.7 6.3-18.4 7.9 0.1-0.2 0-0.4 0.1-0.7 0.8-2.4 2.6-5.3 7-7.7 9.2-4.8 17.3-5.1 29.2-7.3 9.5-1.8 12-2.7 13.7-3.2zm148 0c1.6 0.5 4.1 1.4 13.6 3.2 11.9 2.2 20 2.5 29.2 7.3 4.5 2.4 6.3 5.3 7 7.7 0.1 0.3 0.1 0.5 0.1 0.7-5.6-1.6-13.4-4.2-18.4-7.9-0.5 2 0.4 3.8 2.8 5 0.3 3.3 1.9 6.1 4.4 6.8 3 0.7 6.1 0.3 8-1.9 1.3 0.4 2.5 0.7 3.6 1 0 0.1 0 0.4 0 0.4l-0.1 0.6c-0.8 3.2-3.4 5.9-7.3 8.2-4.1 2.4-9.5 4.6-15.5 5.5-5.8 0.8-11.4 1.1-15.7 3.5-0.5-2.4-0.9-4.4 0-6.7-4.2 0.9-8.9 1.3-14.9 0.4 2.7-4.8 4.9-8.2 9.2-11.8 3.9-4.5 2.6-8.3 2.6-8.3 0 0-1.7 5.8-6.6 7.1-4.9 1.4-8.8 1.2-13.2 0.8 0.3-2.7 2.2-5.9 3.8-8.9-4.3-0.2-6.9-0.8-9.7-1.3 8.6-0.1 16.3-0.6 21.9-3.3l2.3-1.1-2.2-1.4c-2.3-1.5-3.7-3.5-4.9-5.6zm-74 1c9.8 0 17.7 1.8 17.7 3.9 0 2.2-7.9 3.9-17.7 3.9-9.8 0-17.7-1.7-17.7-3.9 0-1.8 6.1-3.6 14.1-3.9 1.2-0.1 2.4 0 3.6 0zm-56.4 13.3c2.5 2.2 4.9 3.7 8.5 4.2-3.3 1.6-7.4 1.7-11.6 0.8l-2.4-4.1c1.9-0.1 3.7-0.5 5.5-0.9zm112.7 0c1.8 0.4 3.7 0.8 5.5 0.9l-2.4 4.1c-4.1 0.9-8.3 0.8-11.6-0.8 3.7-0.5 6-2 8.5-4.2zm-104.1 7.7c3.8 4.1 5.9 6.6 7.5 10.3-4 0.8-6.9 0.8-11.2-0.1-1.3-2.6-2.8-5.2-5.2-7.9l0.1-0.1-0.9-1.7c3.8 0.5 7 0.3 9.7-0.5zm95.5 0c2.8 0.8 6 1 9.8 0.5l-1 1.7 0.2 0.1c-2.4 2.7-3.9 5.3-5.2 7.9-4.3 0.9-7.3 0.9-11.3 0.1 1.7-3.7 3.7-6.2 7.5-10.3zm-120.6 2.3c4.2 0.5 8.8 1 12.8 0.5 3.6 3.6 4.6 6.7 6.4 10.2-4.8 0.2-8.6-0.1-12.5-1.2-0.9-1.9-2.3-3.8-3.7-5.7-1.1-1.4-2-2.6-3-3.8zm145.7 0c-1 1.2-1.9 2.4-2.9 3.8-1.5 1.9-2.9 3.8-3.7 5.7-3.9 1.1-7.7 1.4-12.5 1.2 1.7-3.5 2.8-6.6 6.4-10.2 3.9 0.5 8.6 0 12.7-0.5zm-199.4 0.6c1.3 3.6 4.3 6.4 8.2 8.7 2 1.1 4.3 2.1 6.7 3-7.2 0.3-11.3 1.5-13.4 3.8-2 2.1-2.2 4.8-2.3 7.4-1.8-0.6-3.4-1.5-4.6-3.1-1.5-2.1-2.4-5.3-1.6-10.3 0.7-4.3 4.7-7.8 7-9.5zm253.2 0c2.3 1.7 6.2 5.2 6.9 9.5 0.8 5 0 8.2-1.6 10.3-1.2 1.6-2.7 2.5-4.5 3.1-0.1-2.6-0.3-5.3-2.3-7.4-2.2-2.3-6.3-3.5-13.5-3.8 2.4-0.9 4.8-1.9 6.8-3 3.8-2.3 6.8-5.1 8.2-8.7zm-164.3 4.9c2.2 0.8 4.6 2.3 6.6 4 2.4 2.1 3.4 4.2 4.4 6.1-4 1.1-7.5 1.3-11.2-0.2-0.5-1.4-1.2-2.8-2-4.1q1.3-0.2 2.7-0.5l1.5-0.4-0.5-1.4q-0.6-1.9-1.5-3.5zm75.3 0q-0.8 1.6-1.5 3.5l-0.4 1.4 1.5 0.4q1.4 0.3 2.6 0.5c-0.7 1.3-1.4 2.7-2 4.1-3.6 1.5-7.2 1.3-11.2 0.2 1.1-1.9 2.1-4 4.5-6.1 2-1.7 4.3-3.2 6.5-4zm-87.4 5.6c2.3 0.5 4.5 0.6 6.7 0.5 2.6 3.4 3.7 8.2 3.8 12.4-3.5-0.2-6.1-0.4-9.4-2.1q-0.5-4.2-1.8-8.2l1.9-0.2-1-1.8q-0.1-0.3-0.2-0.6zm99.6 0q-0.2 0.3-0.3 0.6l-1 1.8 2 0.2q-1.3 4-1.9 8.2c-3.2 1.7-5.8 1.9-9.4 2.1 0.2-4.2 1.3-9 3.8-12.4 2.3 0.1 4.5 0 6.8-0.5zm-132.3 1.4c4.3 0.8 8.6 0.7 12.8 0.4 2.4 5.4 2.4 9.6 1.9 14.5-1.3-2.7-2.7-4-4.7-5.7-3.1-2.7-6.8-4.3-10-5.5q0.1-1.8 0-3.7zm165 0q-0.2 1.9 0 3.7c-3.3 1.2-6.9 2.8-10 5.5-2 1.7-3.5 3-4.7 5.7-0.6-4.9-0.6-9.1 1.8-14.5 4.2 0.3 8.5 0.4 12.9-0.4zm-147.8 0.1c3.6 0.9 7.5 1.5 11.8 1.3 1.3 3.8 1.5 7.6 1.6 11.9-4.6 0-9.1-1.3-12.5-3.2-0.3-3.2-1-6.5-2.3-9.9zm130.6 0l1.4 0.1c-1.4 3.4-2.1 6.7-2.3 9.9-3.5 1.9-8 3.1-12.6 3.2 0.1-4.3 0.3-8.1 1.6-11.9 4.3 0.1 8.2-0.4 11.9-1.3zm-102.1 6.1c3.5 1.1 7.3 1.1 11 0.2 2.1 3.8 2.9 7.5 3.8 12-4.8 0.2-9.3 0.2-13-1-0.3-1.1-0.6-2.3-1-3.4v-0.3c0.1-2.3-0.2-4.9-0.8-7.5zm73.5 0c-0.6 2.6-0.9 5.2-0.8 7.5v0.3c-0.3 1.1-0.6 2.3-0.9 3.4-3.8 1.2-8.3 1.2-13.1 1 0.9-4.5 1.8-8.2 3.8-12 3.7 0.9 7.5 0.9 11-0.2zm-85.1 6.4c3.1 1.5 6.1 2.2 9.7 2.3 1.4 4 1.6 8 1.7 12.5-4.6-0.6-8.9-1.4-12.3-3.1 0.1-2.4-0.2-4.9-0.9-7.3q0.2 0 0.4 0l1.5 0.1v-1.5q0-1.5-0.1-3zm96.7 0q-0.1 1.5-0.1 3v1.5l1.6-0.1q0.1 0 0.3 0c-0.7 2.4-1 4.9-0.9 7.3-3.4 1.7-7.7 2.5-12.3 3.1 0.1-4.5 0.3-8.5 1.7-12.5 3.6-0.1 6.6-0.8 9.7-2.3zm-112.7 0.7c3.3 1.5 7.1 2.7 11 3.3 2.1 5.2 1.9 10-0.8 14.1-0.1-7.3-3.1-13.3-10.3-14.6q0.1-1.4 0.1-2.8zm128.7 0q0 1.4 0.2 2.8c-7.2 1.3-10.3 7.3-10.4 14.6-2.7-4.1-2.9-8.9-0.8-14.1 3.9-0.6 7.8-1.8 11-3.3zm-82.9 5c5.3 1.2 9.2 4.3 12.5 8.7-3.4 3.7-7.4 5.1-12.2 5.6-0.8-3.8-2-7.4-3.6-10.8 0.8 0 1.6 0 2.5-0.1h1.5l-0.3-1.5c-0.1-0.7-0.2-1.3-0.4-1.9zm37.1 0c-0.1 0.6-0.3 1.2-0.4 1.9l-0.2 1.5h1.5c0.8 0.1 1.6 0.1 2.4 0.1-1.6 3.4-2.8 7-3.6 10.8-4.7-0.5-8.8-1.9-12.2-5.6 3.3-4.4 7.2-7.5 12.5-8.7zm-166.9 0.4c-1.3 1-2.3 2.1-3 3.3-1.6 2.7-1.8 5.5-2.4 7 0 0 0.9 0.5 3-2.7 3.1-4.8 4.6-7.6 9-7.5 6.1 0.4 11.9 1.8 17.4 4-1.6 0.3-2.9 0.8-4 1.5-2.7 1.6-4.3 3.9-5.4 5 0 0 0.8 1.1 4.5-0.8 5.5-2.9 6.7-4.2 12.1-2.2 4.7 2.5 9.1 5.6 13.3 8.9q-0.1 0-0.3 0c-1.7 0.1-3.2 0.7-4.4 1.3-2.4 1.2-5.1 2.2-8.9 1.7 0 0 0.8 1.7 2 2 2.2 0.4 6-0.1 8.2-1.2 2-1 3.8-1.6 7.9-0.2 3.1 2.6 6.1 5.3 9 7.9 1.8 1.7 3.5 3.3 5.3 4.9-1.5-0.1-2.8 0.2-3.9 0.5-2.6 0.8-4.5 1.7-8.2 0.6 0 0-0.3 1.1 1.8 2 1.7 0.8 4.8 0.8 7.1 0.2 2.3-0.7 4.3-1 8.6 1.7 3.3 3 6.4 5.8 9.7 8.4-1.1 0.1-2.1 0.3-3.1 0.5-2.5 0.7-4.6 1.6-7 1.4 0 0-0.1 1.1 1.7 1.7 1.5 0.6 3.7 0.2 6.1-0.4 2.1-0.6 4.1-0.8 6.6 0.1 3.4 2.3 6.7 4.3 10.2 5.6-0.8 0.4-1.6 0.8-2.2 1.3-1.9 1.2-3.3 2.5-5.7 3.5 0 0 0 1.5 1.9 1.3 1.8-0.1 3.7-1.3 5.4-2.4 1.5-1 3-1.8 5.8-2.1 0.9 0.2 1.8 0.4 2.8 0.5-0.2 3-1.3 5.9-2.6 8.8-2.8 1.4-5.1 2.1-7.1 2.2v-0.1q-0.5 0-1.1 0.1c-2-0.2-3.7-0.9-5.4-1.7-3.6-2-7.7-5.5-11.5-6.9-5-2-9.6-2.3-15.4-3.8-2.8-0.8-5.3-2.1-7.3-3.8-1.2-1-2.1-2.2-2.8-3.6 1 0.8 2.4 0.9 3.1 0-3.9-2.9-7.8-5.6-11.7-7.7-3.1-1.7-5.9-3.6-8-6.5 5.7 2 8.4 1.5 10.6 0.6-11.2-2.9-20.3-4.2-28.1-6.7q-0.1 0-0.1-0.1h-0.1c-2-0.6-4-1.3-5.8-2.2 4.4-0.9 9.4-1.7 10.8-3.7-8.9 1.1-17.9 2.9-26.5 3.4 1.8-2.5 4.7-5.2 2.3-6.9-9.7 12.4-19.8 23.3-28.7 31.3-1.6 1.4-3.1 2.7-4.6 3.8l-0.2-0.1q-0.1 0.2-0.1 0.4c-5.6 4.2-10.8 6.6-17.2 7.4 17.3-14 23.2-28.7 29.4-40.5 3.4-6.3 6.7-11.6 11.2-15.2 3.9-3.2 8.8-5.3 16-5.8zm296.7 0c7.2 0.5 12.1 2.6 16 5.8 4.5 3.6 7.8 8.9 11.2 15.2 6.3 11.8 12.1 26.5 29.4 40.5-6.3-0.8-11.6-3.2-17.2-7.4q0-0.2-0.1-0.4l-0.1 0.1c-1.6-1.1-3.1-2.4-4.7-3.8-8.9-8-19-18.9-28.7-31.3-2.4 1.7 0.5 4.4 2.3 6.9-8.6-0.5-17.6-2.3-26.5-3.4 1.4 2 6.4 2.8 10.9 3.7-1.9 0.9-3.9 1.6-5.9 2.2h-0.1q0 0.1-0.1 0.1c-7.8 2.5-16.9 3.8-28.1 6.7 2.2 0.9 4.9 1.4 10.6-0.6-2.1 2.9-4.9 4.8-8 6.5-3.9 2.1-7.8 4.8-11.7 7.7 0.7 0.9 2.1 0.8 3.1 0-0.7 1.4-1.6 2.6-2.8 3.6-1.9 1.7-4.5 3-7.3 3.8-5.8 1.5-10.4 1.8-15.4 3.8-3.8 1.4-7.8 4.9-11.5 6.9-1.7 0.8-3.4 1.5-5.4 1.7q-0.6-0.1-1.1-0.1v0.1c-2-0.1-4.3-0.8-7.1-2.2-1.3-2.9-2.4-5.8-2.5-8.8 0.9-0.1 1.8-0.3 2.7-0.5 2.8 0.3 4.3 1.1 5.8 2.1 1.7 1.1 3.6 2.3 5.5 2.4 1.8 0.2 1.8-1.3 1.8-1.3-2.3-1-3.8-2.3-5.7-3.5-0.6-0.5-1.4-0.9-2.2-1.3 3.5-1.3 6.8-3.3 10.2-5.6 2.5-0.9 4.5-0.7 6.7-0.1 2.3 0.6 4.5 1 6 0.4 1.8-0.6 1.8-1.7 1.8-1.7-2.5 0.2-4.6-0.7-7.1-1.4-1-0.2-2-0.4-3-0.5 3.2-2.6 6.3-5.4 9.6-8.4 4.3-2.7 6.3-2.4 8.6-1.7 2.4 0.6 5.4 0.6 7.1-0.2 2.1-0.9 1.8-2 1.8-2-3.7 1.1-5.5 0.2-8.2-0.6-1.1-0.3-2.4-0.6-3.9-0.5 1.8-1.6 3.5-3.2 5.3-4.9 2.9-2.6 5.9-5.3 9-7.9 4.1-1.4 5.9-0.8 8 0.2 2.1 1.1 5.9 1.6 8.1 1.2 1.2-0.3 2.1-2 2.1-2-3.9 0.5-6.5-0.5-9-1.7-1.2-0.6-2.6-1.2-4.4-1.3q-0.2 0-0.3 0c4.3-3.3 8.7-6.4 13.3-8.9 5.4-2 6.6-0.7 12.1 2.2 3.7 1.9 4.6 0.8 4.6 0.8-1.2-1.1-2.8-3.4-5.5-5-1.1-0.7-2.4-1.2-3.9-1.5 5.4-2.2 11.2-3.6 17.3-4 4.4-0.1 5.9 2.7 9 7.5 2.1 3.2 3 2.7 3 2.7-0.5-1.5-0.8-4.3-2.4-7-0.7-1.2-1.7-2.3-3-3.3zm-182.6 1.8c2.8 0.8 5.9 1.2 9.2 1.3 1.9 3.8 2.6 7.5 3.4 12-4.4 0.1-8.4 0-11.9-1.1-0.1-0.5-0.3-1-0.5-1.5h0.7v-1.5c0-3.2-0.4-6.2-0.9-9.2zm68.5 0c-0.5 3-0.9 6-0.8 9.2v1.5h0.6c-0.2 0.5-0.3 1-0.5 1.5-3.4 1.1-7.5 1.2-11.9 1.1 0.8-4.5 1.5-8.2 3.4-12 3.3-0.1 6.4-0.5 9.2-1.3zm-83.9 6.8c1.9 0.9 3.9 1.7 6.2 2.3 2.6 5.3 0.5 11-3.2 14.9-0.3-2.4-0.4-5.1-0.9-6.8-0.7-2.2-1.9-4-3.7-5.5 0.8-1.5 1.3-3.2 1.6-4.9zm99.3 0c0.3 1.7 0.8 3.4 1.6 4.9-1.8 1.5-3 3.3-3.7 5.5-0.5 1.7-0.6 4.4-0.8 6.8-3.8-3.9-5.8-9.6-3.2-14.9 2.2-0.6 4.2-1.4 6.1-2.3zm-52.9 2c2.4 5.2 1.3 12.4-5.3 16.5-0.1-1.9-0.8-3.3-1.6-5.3-0.9-2.1-2-4.1-3.2-5.6q1.5-0.5 3.1-1.3c2.5-1.2 4.9-2.7 7-4.3zm6.5 0c2.1 1.6 4.5 3.1 7 4.3q1.6 0.8 3.1 1.3c-1.2 1.5-2.3 3.5-3.2 5.6-0.8 2-1.5 3.4-1.5 5.3-6.7-4.1-7.7-11.3-5.4-16.5zm-43.4 1.1c1 0.2 2.1 0.3 3.1 0.5 1.8 4.9 1.7 10 0.4 13.7-1.2 3.3-3.5 5.2-6.8 5.8-0.1-1.6-0.5-2.9-0.9-3.8 3.9-4.2 6.1-10.3 4.2-16.2zm80.3 0c-1.8 5.9 0.3 12 4.2 16.2-0.3 0.9-0.8 2.2-0.9 3.8-3.3-0.6-5.5-2.5-6.8-5.8-1.3-3.7-1.4-8.8 0.4-13.7 1-0.2 2.1-0.3 3.1-0.5zm-56.7 5.2c1.1 1.1 2.7 3.4 3.8 6 1.1 2.8 1.6 5.7 1.1 7.3l-1.1 2.9 2.9-1.2q1-0.4 2-0.9c2.1 4 1.9 7.9-0.4 11.2-2.1 3-5.6 5-10.8 6.1 0.5-1.7 0.1-3.1 0-4.8-0.1-2.5-0.8-4.8-1.8-6.6 1.4-2.1 2.2-4.5 2.6-6.9 0.6-3.9 0.2-8-1.1-11.4q0.2 0 0.3 0l1.5-0.2-0.2-1.4c0.4 0 0.8-0.1 1.2-0.1zm33.1 0c0.4 0 0.8 0.1 1.2 0.1l-0.2 1.4 1.5 0.2q0.1 0 0.3 0c-1.3 3.4-1.7 7.5-1.1 11.4 0.4 2.4 1.2 4.8 2.6 6.9-1 1.8-1.6 4.1-1.8 6.6-0.1 1.7-0.5 3.1 0 4.8-5.2-1.1-8.7-3.1-10.8-6.1-2.3-3.3-2.5-7.2-0.4-11.2q1 0.5 2 0.9l2.9 1.2-1-2.9c-0.6-1.6-0.1-4.5 1-7.3 1.1-2.6 2.7-4.9 3.8-6zm-49.5 0.3c3.2 0.9 6.9 1.4 10.5 1.4 1.3 3.2 1.9 7.2 1.4 10.9-0.6 3.8-2.3 6.3-5.4 8.3-0.4-5.2-2.4-10.2-6.9-13.3 0.5-2.3 0.7-4.7 0.4-7.3zm65.9 0c-0.3 2.6-0.1 5 0.4 7.3-4.5 3.1-6.5 8.1-6.8 13.3-3.2-2-4.9-4.5-5.5-8.3-0.5-3.7 0.1-7.7 1.4-10.9 3.6 0 7.3-0.5 10.5-1.4zm-32.9 4.5c0.9 2.9 2.7 5.7 5.5 7.8-2.4 4.1-2.5 8.6-0.7 12.4 0 1-0.5 2.5-1.5 4-0.8 1.3-2 2.4-3.3 3.4-1.4-0.9-2.8-2-3.6-3.4-0.9-1.6-1.3-3.2-1.2-4 1.7-3.8 1.6-8.3-0.7-12.4 2.7-2.1 4.5-4.9 5.5-7.8zm-34.2 5.7c3.6 3 5.1 8.6 4.9 13.4l-0.1 2.1 2.1-0.8q1.1-0.4 2-1c0.1 3.8-1.4 6.8-4.2 8.9-3.1 2.2-7.1 2.4-12.6 1.6 3.5-5.8 3.2-12.1 1.4-17.5 3-1.1 5.2-3.6 6.5-6.7zm68.4 0c1.2 3.1 3.5 5.6 6.4 6.7-1.8 5.4-2.1 11.7 1.4 17.5-5.5 0.8-9.5 0.6-12.5-1.6-2.9-2.1-4.4-5.1-4.3-8.9q1 0.6 2 1l2.1 0.8-0.1-2.1c-0.2-4.8 1.4-10.4 5-13.4zm-174.2 2.1q1.8 0.7 3.8 1.3c0.9 0.9 2 1.7 3.2 2.5-2.2 6.3-4.7 13-7.5 19.9-2.6 2.6-5.5 4.4-9 5.2 1.9 1.2 4.3 0.9 6.8 0.1-3.1 7.4-6.4 14.8-9.7 21.8q-1.5 3.1-3.1 6c-2.5 1.9-5.2 3.2-8.3 3.7 1.6 1.1 3.7 1.3 5.9 0.9-4.7 8.8-9.5 16.1-13.5 20.6 2.2-12.6 5.7-29.3 10.3-45.3 4-14 8.1-26.3 12.7-35.1 3.1-0.1 6.1-0.5 8.4-1.6zm280 0c2.3 1.1 5.2 1.5 8.3 1.6 4.6 8.8 8.8 21.1 12.7 35.1 4.6 16 8.2 32.7 10.3 45.3-4-4.5-8.7-11.8-13.5-20.6 2.2 0.4 4.3 0.2 5.9-0.9-3.1-0.5-5.8-1.8-8.3-3.7q-1.5-2.9-3-6c-3.4-7-6.7-14.4-9.8-21.8 2.5 0.8 4.9 1.1 6.8-0.1-3.5-0.8-6.4-2.6-9-5.2-2.8-6.9-5.3-13.6-7.5-19.9 1.2-0.8 2.3-1.6 3.2-2.5q2-0.6 3.9-1.3zm-300.2 0.4c1.2 0.3 2.4 0.6 3.8 0.8-2.5 6.3-5 13.8-7.7 21.6-2.8 3-5.9 5.2-9.8 6.1 2.2 1.3 5.1 0.7 7.9-0.3-3.7 10.7-7.8 21.7-12.8 31.7-3 2.2-6.1 3.6-9.7 3.9 1.8 1.5 4.4 1.5 7.1 1.1-5.5 9.4-12.9 16.6-22 21.9l-2.7-5.1c1.7-3.2 3.4-6.4 5.4-9.9 0.3-0.5 0.5-1.1 0.8-1.6 0.2-0.3 0.4-0.6 0.6-0.9 3.5-6.1 6.6-12.5 9.2-19.2 4.1-9.6 7.4-19.2 9.6-28.3 6.5-5.9 13.3-13.6 20.3-21.8zm320.3 0c7 8.2 13.8 15.9 20.4 21.8 2.1 9.1 5.4 18.7 9.5 28.3 2.7 6.7 5.7 13.1 9.2 19.2 0.2 0.3 0.4 0.6 0.6 0.9 0.3 0.5 0.5 1.1 0.9 1.6 3.8 7 6.8 13.1 10.6 19.2-12.8-5.6-23-14.1-30-26.1 2.7 0.4 5.3 0.4 7.1-1.1-3.6-0.3-6.7-1.7-9.7-3.9-5-10-9.1-21-12.8-31.7 2.9 1 5.7 1.6 7.9 0.3-3.9-0.9-6.9-3.1-9.8-6.1-2.7-7.8-5.2-15.3-7.7-21.6 1.4-0.2 2.7-0.5 3.8-0.8zm-286.8 6.8c3.1 1.4 6.3 2.5 9 3 1 2.1 2.8 4.2 5 6.2-3.2 6.4-6.1 12.6-8.9 18.6-2.8 2-5.7 3.3-9.2 4.2 1.8 1.1 4.1 1.5 6.5 1.3-2.4 5.1-4.8 10-7.1 14.4q-1.3 2.3-2.6 4.5c-2 1.1-4.1 1.8-6.3 2.2 1.3 0.8 2.8 1.1 4.2 1.2-3.8 6.1-7.9 11-12.3 14.3 1.7-9.9 3.7-19.8 6.1-27.4 4.4-14 10.9-33.4 15.6-42.5zm253.3 0c4.7 9.1 11.2 28.5 15.7 42.5 2.4 7.6 4.4 17.5 6 27.4-4.4-3.3-8.5-8.2-12.3-14.3 1.4-0.1 2.9-0.4 4.2-1.2-2.2-0.4-4.3-1.1-6.3-2.2q-1.3-2.2-2.5-4.5c-2.4-4.4-4.8-9.3-7.2-14.4 2.4 0.2 4.7-0.2 6.5-1.3-3.5-0.9-6.4-2.2-9.2-4.2-2.8-6-5.7-12.2-8.9-18.6 2.2-2 4-4.1 5-6.2 2.7-0.5 5.9-1.6 9-3zm-149 4.2c0.2 0.9 0.4 1.8 0.5 2.7 0.1 2.5-0.3 4.9-1.4 6.4l-1.6 2.6 3.1-0.4q0.2 0 0.5-0.1c0 2.5 0 5.1 0.2 7.7-1.7 1-3.4 1.5-4.9 1.5-0.1-2.7-0.8-5.7-2.3-8.7 0.1-0.1 0.3-0.2 0.4-0.3 3.6-2.6 5.7-6.7 5.5-11.4zm44.7 0c-0.2 4.7 1.9 8.8 5.5 11.4 0.1 0.1 0.3 0.2 0.4 0.3-1.5 3-2.2 6-2.3 8.7-1.5-0.1-3.2-0.6-4.9-1.7 0.2-2.5 0.2-5.1 0.2-7.5q0.3 0.1 0.6 0.1l3 0.4-1.6-2.6c-1-1.5-1.5-3.9-1.4-6.4 0.1-0.9 0.3-1.8 0.5-2.7zm-15.3 4.2c2.5 3 6.4 5.3 11.3 6.5-0.1 4.5-0.7 8.7-1.4 12.4-7.9-1.8-12.1-7.2-12.2-15.1 0.4-0.5 0.7-1 1-1.5q0.8-1.1 1.3-2.3zm-14.1 0.1c0.2 0.7 0.6 1.4 1 2.1q0.6 1 1.3 1.8c-0.2 7.9-4.3 13.2-12.2 14.9-0.7-3.7-1.3-7.9-1.4-12.4 4.9-1.2 8.7-3.4 11.3-6.4zm-99.9 5.4c2.9 2.1 5.9 3.8 8.2 4.4 1.3 1 2.8 1.7 4.3 2.4-2.4 4.7-4.5 8.7-6.4 12.4-3.5 2.7-6.7 3.9-11.3 4.3 1.9 1.6 4.8 2.5 7.7 2.4-2.1 3.7-4 6.9-5.9 9.7-4.2 5.7-8.4 9.7-14.5 13.7 1.6-8.7 3.3-15.4 5.9-23.3 4.4-13.9 7.3-17.5 12-26zm213.9 0c4.7 8.5 7.6 12.1 12.1 26 2.5 7.9 4.3 14.6 5.8 23.3-6.1-4-10.3-8-14.4-13.7-2-2.8-3.9-6-6-9.7 2.9 0.1 5.8-0.8 7.7-2.4-4.6-0.4-7.8-1.6-11.3-4.3-1.9-3.7-4-7.7-6.4-12.4 1.6-0.7 3-1.4 4.4-2.4 2.2-0.6 5.2-2.3 8.1-4.4zm-104.8 0.8c0.6 4.4 2.4 8.4 5.4 11.4 0.3 2.4-0.3 5.9-1.7 9-1.3 2.8-3.3 4.6-5.8 5.9-2.1-1.3-4.2-3.2-5.6-6.1-1.6-3.1-2.3-6.7-2-8.8 3-3 4.8-6.9 5.4-11.3 0.5 0.4 1 0.7 1.5 1l0.7 0.3 0.7-0.4q0.7-0.4 1.4-1zm-32.8 2.5c2.3 4.7 2.5 8.9 1.2 12.3q0 0.2 0 0.3c-0.8 1.9-1.9 3.5-3.3 4.9-2.8 2.5-7.8 4.2-11.3 3.8-2.2-0.3-4.1-0.7-6.3-1.4 3.2-6 6.2-11.8 5.7-18.7 5.4 1 10.2 0.5 14-1.2zm61.3 0c3.8 1.7 8.7 2.2 14 1.2-0.5 6.9 2.5 12.7 5.7 18.7-2.2 0.7-4.1 1.1-6.3 1.4-3.5 0.4-8.5-1.3-11.3-3.8-1.4-1.4-2.5-3-3.2-4.9q0-0.1 0-0.3h-0.1c-1.2-3.4-1.1-7.6 1.2-12.3zm-219.9 4.6c-5.4 16.1-12.3 31.9-21.1 44.9l-3.7-7.1c5.3-10.2 9.9-20.8 12.6-32 4.2-1.2 8.2-3.2 12.2-5.8zm378.5 0c4 2.6 8 4.6 12.3 5.8 5.3 22.2 17.4 42.2 30 61.4-20.1-13.5-33.1-40.1-42.3-67.2zm-277 1.3c1.1 0.2 2.2 0.4 3.3 0.7 0.8 1.2 2 2.3 3.6 3.4 0.2 0.2 0.6 0.4 0.8 0.6-2 4.5-3.8 8.6-5.4 12.4-2.2 1.9-4.4 3.1-6.7 3.5 1.3 0.8 2.8 1.1 4.3 1.2-0.3 0.6-0.6 1.3-0.9 1.9-2.8 4.9-6.2 9.1-11.9 13 0.9-7 1.6-11.9 2.6-15.7 1.4-5.7 5.6-12.5 10.3-21zm175.5 0c4.7 8.5 8.9 15.3 10.3 21 1 3.8 1.7 8.7 2.6 15.7-5.7-3.9-9.1-8.1-11.9-13-0.3-0.6-0.6-1.3-0.9-1.9 1.5-0.1 3-0.4 4.3-1.2-2.3-0.4-4.5-1.6-6.6-3.5-1.7-3.8-3.5-7.9-5.5-12.4 0.3-0.2 0.6-0.4 0.9-0.6 1.5-1.1 2.7-2.2 3.5-3.4 1.1-0.3 2.2-0.5 3.3-0.7zm-66.9 2.9c1.8 0.9 3.6 1.5 5.3 1.6 0.1 0.8 0.3 1.7 0.5 2.5-0.1 4.6-1.1 9.3-2 13.4-7.5-1.6-11.9-6.8-12.5-14.2 1.9 1 4 1.7 6.4 2l1.2 0.2 0.4-1.3c0.3-1.3 0.5-2.7 0.7-4.2zm-41.7 0.2c0.2 1.4 0.4 2.8 0.7 4l0.4 1.3 1.2-0.2c2.4-0.3 4.5-1 6.4-2-0.6 7.4-5 12.6-12.5 14.2-0.9-4.1-1.8-8.8-2-13.4 0.2-0.8 0.4-1.7 0.5-2.5 1.7-0.1 3.6-0.5 5.3-1.4zm-53.2 4.7q0.2 0.1 0.4 0.2c2.7 1.1 5.7 2 8.5 2.6-3.1 6.7-5.4 12.2-7.9 16.5-2.5 4.1-5.2 7.4-9.7 10.5-0.4-4.8 0-8.2 1-12 1.5-5.8 3.3-9.7 7.7-17.8zm148.1 0c4.4 8.1 6.2 12 7.7 17.8 1 3.8 1.5 7.2 1 12-4.4-3.1-7.2-6.4-9.6-10.5-2.6-4.3-4.9-9.8-8-16.5 2.8-0.6 5.8-1.5 8.5-2.6q0.2-0.1 0.4-0.2zm-83.8 1.2q0.6 2.1 1.6 4.1c1 2 2.2 3.9 3.7 5.5 0.5 4.7-1 8.2-3.8 10.8-2.6 2.4-6.3 3.7-10.4 4-0.3-2-0.4-3.9-0.3-5.9 0.1-1.8 0.4-3.8 0.7-5.9 4.5-2.8 7.4-7.3 8.5-12.6zm19.5 0.3c1.1 5.1 4.1 9.5 8.5 12.3 0.7 4.5 1.1 8.1 0.4 11.8-4-0.3-7.8-1.6-10.4-4-2.7-2.5-4.2-5.9-3.9-10.4 1.8-1.6 3.1-3.7 4.1-5.8 0.6-1.3 1-2.6 1.3-3.9zm-61.7 0.8c-0.7 1.4-1.4 2.7-2.1 4.1l-0.7 1.3 1.4 0.7c1.2 0.5 2.3 0.8 3.5 1.1-1.5 3.7-3.3 7.4-5.3 11.2-1.4-2-1.4-4.2-0.7-7.4-4.5 6.1-7.2 16.3-8.2 24.8 0 0.1-0.1 0.2-0.1 0.2q-1 2.4-1.9 4.8c-5 15.1-7.4 24.6-9.8 32.6-1.4-5.4-2.2-11.1-2.3-17.1 3.5-10.3 6.5-22.2 9.8-35q1.2-1.8 2-3.5c2.6-5.6 3.3-8.9 8.3-16.6q0.7 0 1.3-0.1v-0.1q2.2-0.1 4.8-1zm103.9 0q2.6 0.9 4.9 1v0.1q0.6 0.1 1.2 0.1c5 7.7 5.7 11 8.3 16.6q0.8 1.7 2 3.5c3.4 12.8 6.3 24.7 9.8 35-0.1 6-0.9 11.7-2.3 17.1-2.4-8-4.8-17.5-9.8-32.6q-0.8-2.4-1.9-4.8c0 0-0.1-0.1-0.1-0.2-1-8.5-3.7-18.7-8.2-24.8 0.7 3.2 0.7 5.4-0.6 7.4-2-3.8-3.9-7.5-5.4-11.2 1.2-0.3 2.3-0.6 3.5-1.1l1.4-0.7-0.7-1.3c-0.7-1.4-1.4-2.7-2.1-4.1zm-81.2 1.8c0.3 4 0.9 8.1 1.8 11.4l0.3 1.2 1.3-0.2c0.6-0.1 1.2-0.2 1.8-0.3 0.7 4.5-1 8.1-4.2 10.4-3 2.2-7 2.6-12.5 1.8 3.1-6.1 3.2-11.7 1.1-18.3 3.4-0.6 6.5-2 8.8-4.2 0.6-0.6 1.1-1.2 1.6-1.8zm58.5 0c0.5 0.6 1 1.2 1.6 1.8 2.4 2.2 5.4 3.6 8.9 4.2-2.1 6.6-2 12.2 1 18.3-5.4 0.8-9.5 0.4-12.5-1.8-3.2-2.3-4.8-5.9-4.1-10.4 0.5 0.1 1.1 0.2 1.7 0.3l1.3 0.2 0.3-1.2c0.9-3.3 1.5-7.4 1.8-11.4zm-74.3 6.2c0.8 0.1 1.6 0.1 2.3 0.1 2.5 4.3 2.1 11.2-0.9 16.6h-0.3q0 0.2-0.1 0.5-0.5 0.9-1.1 1.7l-1.5 1.8 1.9 0.3c-0.7 3.4-1.8 6.2-3 8.3-1.5 2.7-3.5 4-5.9 5-1.5-2.8-2.6-6.8-3-10.7 4-7.7 8.7-15.7 11.6-23.6zm90.1 0c2.9 7.9 7.7 15.9 11.6 23.6-0.4 3.9-1.5 7.9-2.9 10.7-2.5-1-4.5-2.3-6-5-1.2-2.1-2.2-4.9-3-8.3l1.9-0.3-1.5-1.8q-0.6-0.8-1.1-1.7-0.1-0.3-0.1-0.5h-0.3c-3-5.4-3.4-12.3-0.9-16.6 0.7 0 1.5 0 2.3-0.1zm-46.5 2.9c0.2 0.1 0.5 0.3 0.8 0.4l0.7 0.3 0.5-0.2q0.5-0.2 1-0.5c0.2 4.3 2 7.9 4.7 10.5q0.4 0.3 0.8 0.6c0.1 2-0.5 3.8-1.8 5.5-1.2 1.6-2.9 3-4.6 4.2h-0.3q0 0 0 0.1c-0.1 0-0.2 0.2-0.3 0.2-1.7-1.1-3.7-2.6-5.1-4.5-1.4-1.8-2.1-3.7-1.9-5.5q0.3-0.3 0.7-0.6c2.7-2.6 4.5-6.2 4.8-10.5zm-166.5 0c-4 15.7-7.3 31.4-8.5 40.8l-0.3 3.1 2.6-1.7c2.2-1.5 4.5-3.4 6.6-5.6-3.3 10.7-7.2 20.8-11.7 30.3-1.5 1.9-3.2 3.6-5 5.1l-4.4-8.3c5.3-14.6 9.7-30.6 11.5-43.7 1.3-1.5 2.9-5.4 4.1-7.8 1.8-4 3.5-8 5.1-12.2zm336 0c1.5 4.2 3.2 8.2 5 12.2 1.2 2.4 2.8 6.3 4.1 7.8 2.6 19.2 10.8 44.5 19.2 62.6 5.8 12.4 10 22.3 12.9 31.5-9.6-11.8-18-24.2-25.2-37.7 2.9 0.6 5.4 1.2 8.1-0.2-2.9-0.3-9.1-4.5-12.9-9.3-4.5-9.5-8.4-19.6-11.7-30.3 2.2 2.2 4.4 4.1 6.7 5.6l2.5 1.7-0.3-3.1c-1.2-9.4-4.5-25.1-8.4-40.8zm-314.3 2.1c-2.9 9.8-5.7 22.5-7.1 33.4l-0.5 3 2.6-1.7c3.6-2.3 7.2-5.5 10.6-9-3.2 11.4-6.3 20.3-9.9 27.8-3.8 4.9-10.2 9.2-13.1 9.5 2.6 1.3 4.9 0.9 7.6 0.3-4.9 7.8-11 15-19.3 23.6l-0.1-0.3c2.6-9.3 6.2-18.6 9.8-28 4.8-12.8 7.8-26.6 10-39.9 3.1-5.4 6-11.1 8.5-16.7 0.3-0.7 0.6-1.3 0.9-2zm292.5 0c0.4 0.7 0.6 1.3 0.9 2 2.5 5.6 5.4 11.3 8.5 16.7 2.2 13.3 5.2 27.1 10.1 39.9 3.6 9.5 7.3 19.1 9.9 28.6-8.4-8.8-14.6-16-19.6-23.9 2.7 0.6 5 1 7.6-0.3-2.9-0.3-9.3-4.6-13.1-9.5-3.6-7.5-6.7-16.4-9.9-27.8 3.4 3.5 7 6.7 10.6 9l2.6 1.7-0.5-3c-1.3-10.9-4.2-23.6-7.1-33.4zm-248.1 1.4c-0.9 4.4-2 9.9-3.1 19.1l-0.3 2.3 2.2-0.8c2-0.7 3.8-1.6 5.4-2.5-1.6 6.7-3.6 13.4-6.1 20-3.8 5.1-10.3 9.6-13.3 9.9 3 1.6 5.7 0.8 9 0.1-4.3 9-9.7 17.1-16.1 23.2 1-9.4 3.6-17.3 6.4-25.6 3.4-10.1 6.5-16.8 9.1-35.7 2.3-2.6 4.4-5.6 6.4-9.2 0.2-0.3 0.3-0.5 0.4-0.8zm203.7 0c0.1 0.3 0.3 0.5 0.4 0.8 2.1 3.6 4.1 6.6 6.4 9.2 2.6 18.9 5.7 25.6 9.1 35.7 2.8 8.3 5.4 16.2 6.4 25.6-6.3-6.1-11.7-14.2-16.1-23.2 3.4 0.7 6 1.5 9-0.1-3-0.3-9.5-4.8-13.3-9.9-2.5-6.6-4.5-13.3-6.1-20 1.6 0.9 3.4 1.8 5.4 2.5l2.2 0.8-0.2-2.3c-1.2-9.2-2.2-14.7-3.2-19.1zm-226.9 1.9c-1.9 6.3-3.6 12.8-4.6 20.9l-0.3 2.7 2.4-1.3c3.4-1.8 6.4-3.6 9.1-5.4-2.2 8.8-4.6 16.8-7.5 24-3.8 4.9-10.2 9.3-13.1 9.6 2.9 1.5 5.5 0.7 8.8 0.1-4.1 7.8-9 14.6-15.1 20.2 1-7.7 2.6-14.2 6.2-23.4 5.1-12.9 7.3-21.1 9.9-39.8 1.5-2.5 3-5.1 4.2-7.6zm250.1 0c1.2 2.5 2.7 5.1 4.2 7.6 2.6 18.7 4.8 26.9 9.9 39.8 3.6 9.2 5.2 15.7 6.2 23.4-6.1-5.6-11-12.4-15.1-20.2 3.3 0.6 5.9 1.4 8.8-0.1-2.9-0.3-9.3-4.7-13.1-9.6-2.9-7.2-5.3-15.2-7.5-24 2.7 1.8 5.7 3.6 9.2 5.4l2.3 1.3-0.3-2.7c-1-8.1-2.7-14.6-4.6-20.9zm-210.7 3.6c-0.8 4-1.1 8.6 0.2 14.7l0.5 1.9 1.7-1c1.7-1 3.2-2.1 4.7-3.2-1.6 6.6-3.3 12.8-5.4 18.5-3.5 4.7-8.2 8.6-10.9 8.9 2.7 1.4 4.5 0.9 7.2 0.3-3.3 7.4-7.3 13.7-11.8 18.9 0.3-8.2 1.3-14.6 3.4-21.3 2.7-8.5 4.8-14.9 7.4-33.1 1.1-1.6 2.2-3.1 3-4.6zm171.3 0c0.8 1.5 1.9 3 3.1 4.6 2.5 18.2 4.6 24.6 7.3 33.1 2.1 6.7 3.1 13.1 3.5 21.3-4.6-5.2-8.5-11.5-11.9-18.9 2.7 0.6 4.5 1.1 7.3-0.3-2.8-0.3-7.5-4.2-11-8.9-2.1-5.7-3.8-11.9-5.3-18.5 1.4 1.1 2.9 2.2 4.6 3.2l1.7 1 0.5-1.9c1.3-6.1 1-10.7 0.2-14.7zm-63.8 0.3c0.9 2.6 2.5 4.8 4.7 6.4-0.7 3.7-0.4 7.1 0.7 10.2-4.5-1.5-7.9-5.4-8.8-10.6 0.5 0 1 0.1 1.5 0.1h1.1l0.2-1c0.5-1.7 0.6-3.4 0.6-5.1zm-43.8 0.3c0 1.6 0.2 3.2 0.6 4.8l0.4 1h1c0.5 0 1-0.1 1.5-0.1-0.9 5.2-4.3 9.1-8.7 10.6 1-3.1 1.4-6.5 0.7-10.2 2.1-1.5 3.6-3.7 4.5-6.1zm31.7 3.3c1.6 0.9 3.3 1.5 5.1 1.9 0.6 2.2 0.3 5.3-0.5 8.3-0.7 2.5-1.8 4.7-2.8 6.6-3.3-1.6-6.5-4.6-7.8-7.6 1.3-1.1 2.6-2.4 3.7-3.8 1.2-1.6 2-3.4 2.3-5.4zm-19.5 0.1c0.3 1.9 1.3 3.8 2.5 5.4 1 1.4 2.3 2.6 3.5 3.6-1.3 3.1-4.5 6.1-7.8 7.7-1-1.9-2.1-4.1-2.8-6.6-0.8-3-1.1-6.1-0.5-8.3 1.8-0.4 3.5-1 5.1-1.8zm-19.4 4.1c0.5 3.6-0.1 6.7-1.3 9.3-0.8-2-1.4-5.1-0.7-8.5 0.7-0.2 1.4-0.5 2-0.8zm58.3 0c0.6 0.3 1.4 0.6 2 0.8 0.7 3.4 0.1 6.5-0.7 8.5-1.2-2.6-1.8-5.7-1.3-9.3zm-71.1 1.6c2.8 0.4 5.4 0.3 7.8 0-0.6 4.1 0.3 7.8 1.4 10.1l0.3 0.6c-2.3 2.6-5.6 4.3-9.3 4.6-0.8-4.3-0.9-10.6-0.2-15.3zm76.2 0c2.4 0.3 4.9 0.4 7.8 0 0.7 4.7 0.5 11-0.3 15.3-3.7-0.3-7-2-9.3-4.6l0.3-0.6c1.1-2.3 2-6 1.5-10.1zm-250.6 1.3l53.1 113c-2.2 1.2-4.4 2.1-6.7 2.8zm198.8 1.4c0.1 0.8 0.3 1.7 0.6 2.5 0.7 2.6 1.7 5.1 2.8 7.2-2.4 5.4-7 8-12.1 8.8-1.2-2.7-2.1-7-1.6-10.6 4.4-1 8-3.9 10.3-7.9zm35.2 0c2.2 4 5.9 6.9 10.3 7.9 0.5 3.6-0.4 7.9-1.6 10.6-5.1-0.8-9.7-3.4-12.1-8.8 1-2.1 2.1-4.6 2.8-7.2 0.2-0.8 0.5-1.7 0.6-2.5zm-235.4 1.2l2.6 6.6c-4.8 6.2-10.2 11.6-16.3 15.7 4.7-7.3 9.4-14.7 13.7-22.3zm216.2 1.7c0.4 3.3-0.2 8-1.9 11.8-0.8 2.1-1.9 3.9-3.2 5.2-0.9 0.9-1.8 1.2-2.7 1.5-1.2-3.5-1.7-6.6-1.3-10.1 3.8-1.6 7.3-4.7 9.1-8.4zm3.2 0c1.8 3.7 5.3 6.8 9.1 8.4 0.4 3.5-0.1 6.6-1.3 10.1-0.9-0.3-1.9-0.6-2.8-1.5-1.2-1.3-2.3-3.1-3.2-5.2-1.6-3.8-2.2-8.5-1.8-11.8zm-60.5 1.2c0.7 3.4 1.9 6.6 3.2 8.9l0.6 1 1-0.3c3.7-1.2 6.6-3.5 8.6-6.9 0.1 2.8 0.3 5.5 0.8 7.7q0 0.1 0 0.1c-0.3 3.2-2 6.2-4.4 8.4-2.5 2.4-5.7 3.9-8.4 4.2-2.7-3.7-5.3-9.8-4.6-14.2h-0.3c0.3-1 0.6-1.9 1-3 0.6-1.9 1.5-3.9 2.5-5.9zm117.8 0c0.9 2 1.8 4 2.5 5.9 0.3 1.1 0.6 2 1 3h-0.3c0.7 4.4-1.9 10.5-4.6 14.2-2.8-0.3-5.9-1.8-8.4-4.2-2.4-2.2-4.1-5.2-4.5-8.4q0 0 0-0.1c0.6-2.2 0.8-4.9 0.8-7.7 2.1 3.4 4.9 5.7 8.6 6.9l1.1 0.3 0.5-1c1.4-2.3 2.6-5.5 3.3-8.9zm-247 6.5c-1.7 7.2-3.6 14.4-5.9 21.6l-6.6-12.5c4.3-2.6 8.6-5.6 12.5-9.1zm376.2 0c5.7 5.1 12 9.1 18.3 12.2q0 0 0 0.1c6.3 17.4 7.7 29.1 16.7 47.3 6.7 13.5 10 26 12.2 36.9-11.2-11.2-20.7-25.8-28.4-41.9 3.1 0.6 5.7 1.3 8.5-0.2-2.7-0.2-8.7-4.1-12.6-8.7-6.3-14.9-11.1-30.5-14.7-45.7zm-219 0.2c0 3.6 0.9 7.1 2.2 9.7-2.5 5.5-7.6 9.5-12.5 10.5-0.6-2-1.3-4.4-1.5-7-0.2-2.9 0-5.8 0.9-7.9 4.2-0.3 8.1-2.2 10.9-5.3zm61.8 0c2.8 3.1 6.6 5 10.9 5.3 0.9 2.1 1.1 5 0.9 7.9-0.2 2.6-0.9 5-1.5 7-4.9-1-10.1-5-12.5-10.5 1.3-2.6 2.1-6.1 2.2-9.7zm-30.9 2.4c0.3 0.9 0.5 1.8 0.9 2.6 0.9 2.3 2.2 4.4 3.7 6 0.4 0.4 0.8 0.8 1.1 1.1 0.5 2.4 0 4.4-1.2 6.3-1 1.7-2.6 3.1-4.4 4.4-1.6-1.1-3.3-2.6-4.5-4.4-1.3-2-2-4.2-1.4-6.3 0.4-0.3 0.8-0.7 1.2-1.1 1.5-1.6 2.7-3.7 3.7-6 0.4-0.8 0.6-1.7 0.9-2.6zm-13.7 1.2c0.1 3.1 0.9 6.1 2.1 9.4l0.2 0.4c-2.8 4.1-7.7 6.6-12.2 7.4-1.2-3.6-1.9-6.7-1.4-10.2 4.3-0.9 8.5-3.2 11.3-7zm27.3 0c2.9 3.8 7 6.1 11.4 7 0.4 3.5-0.2 6.6-1.4 10.2-4.5-0.8-9.4-3.3-12.2-7.4l0.2-0.4c1.2-3.3 1.9-6.3 2-9.4zm-227.9 2.7q-2.8 4.4-5.7 8.4l-2.5 3.5 4.1-1.3c1-0.4 2.2-0.8 3.2-1.2-2.8 11.8-7.3 24.4-13.2 36.8-3.8 4.3-9.3 7.7-11.9 7.9 2.6 1.4 5 1 7.8 0.4-11.1 21.2-25.9 41.2-42.7 55.6 6.3-13.9 13.8-27.1 22.7-42.2 10.4-17.4 19.3-40.1 25.7-57.7 4.5-2.9 8.7-6.3 12.5-10.2zm428.5 0c3.9 3.9 8.1 7.3 12.6 10.2 6.4 17.6 15.3 40.3 25.6 57.7 9 15.1 16.4 28.3 22.8 42.2-16.8-14.4-31.6-34.4-42.7-55.6 2.8 0.6 5.2 1 7.8-0.4-2.6-0.2-8.1-3.6-12-7.9-5.8-12.4-10.3-25-13.2-36.8 1.1 0.4 2.2 0.8 3.3 1.2l4.1 1.3-2.5-3.5q-2.9-4-5.8-8.4zm-425.3 1.2l0.1 0.2q-0.2 0.1-0.3 0.2 0.1-0.2 0.2-0.4zm146.7 1.3c1 3.9 3 7.5 5 10.1l0.5 0.5h0.7c2.6-0.1 5.3-1.1 7.9-2.7 0.4 3.5-0.6 7.7-2.6 11.3-2.1 3.7-5.3 6.4-9 7.5-0.1-0.4-0.3-0.8-0.5-1.3-0.1-0.4-0.1-0.9-0.2-1.3l-0.2 0.1q-1.1-2.8-2.4-5.5c-1.5-3.1-2.5-6-2.2-8.1 0.9-3.3 1.8-6.8 3-10.6zm128.8 0c1.1 3.8 2.1 7.3 3 10.6 0.2 2.1-0.7 5-2.2 8.1q-1.3 2.7-2.4 5.5l-0.3-0.1c-0.1 0.4-0.1 0.9-0.1 1.3-0.2 0.5-0.4 0.9-0.6 1.3-3.6-1.1-6.8-3.8-8.9-7.5-2-3.6-3-7.8-2.6-11.3 2.5 1.6 5.2 2.6 7.9 2.7h0.7l0.5-0.5c1.9-2.6 4-6.2 5-10.1zm-110 3.8c0.1 0.3 0 0.5 0 0.8 0.3 3.4 1.1 6.8 2 9.3l0.4 1.1 1.1-0.2c1.1-0.1 2.2-0.5 3.3-0.8-0.7 3-0.9 6.2 0.4 9l0.3 0.6 0.6 0.1c1.5 0.4 3.1 0.6 4.8 0.5-1.1 2.6-3.2 4.7-5.7 6.3-2.9 1.8-6.4 2.6-9.1 2.4-1.9-4.3-3.3-10.7-1.7-14.8 1.7-4 2.3-8.3 1.4-12.2 0.2-0.1 0.5-0.2 0.6-0.4 0.6-0.5 1.2-1.1 1.6-1.7zm91.1 0c0.5 0.6 1.1 1.2 1.6 1.7 0.2 0.2 0.5 0.3 0.6 0.4-0.9 3.9-0.2 8.2 1.5 12.2 1.5 4.1 0.1 10.5-1.7 14.8-2.8 0.2-6.2-0.6-9.1-2.4-2.5-1.6-4.6-3.7-5.7-6.3 1.7 0.1 3.3-0.1 4.8-0.5l0.6-0.1 0.3-0.6c1.3-2.8 1.1-6 0.4-9 1.1 0.3 2.2 0.7 3.3 0.8l1 0.2 0.5-1.1c0.9-2.5 1.7-5.9 1.9-9.3 0.1-0.3 0-0.5 0-0.8zm-73.5 1.7c0.2 3 1 5.9 2.1 8.9l0.4 1.1 1-0.2c1.2-0.1 2.4-0.4 3.7-0.8-1.4 2.2-3.5 3.9-5.9 5.1-3.1 1.5-6.5 2-9.2 1.5-0.9-2.5-0.5-5.5 0.5-8.6 2.9-1.7 5.4-4.1 7.4-7zm56 0c1.9 2.9 4.5 5.3 7.3 7 1 3.1 1.4 6.1 0.6 8.6-2.7 0.5-6.2 0-9.2-1.5-2.4-1.2-4.5-2.9-5.9-5.1 1.2 0.4 2.4 0.7 3.6 0.8l1.1 0.2 0.4-1.1c1.1-3 1.9-5.9 2.1-8.9zm-36.7 0.2c0.2 1.9 0.9 3.8 2 5.5 0.6 0.9 1.3 1.9 2.1 2.7-0.8 3.7-4.1 7.1-8.9 7.4-1.6-2.7-2.5-5.5-1.9-9.2 2.6-1.6 5-3.7 6.7-6.4zm17.4 0c1.6 2.7 4 4.8 6.7 6.4 0.5 3.7-0.3 6.5-1.9 9.2-4.7-0.3-8.1-3.6-8.9-7.2 0.9-0.9 1.7-1.9 2.4-2.9 1-1.7 1.6-3.5 1.7-5.5zm-216.4 1.4l8.3 21q-1.6 4.3-3.4 8.6c-3.9 4.6-9.9 8.5-12.6 8.7 2.8 1.5 5.4 0.8 8.5 0.2-7.7 16.1-17.2 30.7-28.5 41.9 2.3-10.9 5.6-23.4 12.3-36.9 8.3-16.8 10.2-28.1 15.4-43.5zm127.1 4.2c0.5 6.6 1.7 12.9 4.2 18.8l1.3 3 1.4-3c1.7-3.7 3-8.3 4.5-13.4 0.4 1.1 0.9 2.1 1.4 3.1 0.9 1.9 1.8 3.7 2.6 5.4 0.8 3.7 0.6 8.2-0.6 12.3-1.1 4.2-3.3 8.1-6.1 10.3l-2.6 2.2 3.3 0.3c2.3 0.3 4.5 0 6.8-0.5 0.2 4.3-3.6 10.6-11 12.6l-2.9 0.8 2.4 1.7q0.9 0.8 2 1.4c-1.8 1.2-4.9 2.2-8.4 2.5-4.4 0.4-9.2-0.1-12.5-1.5l-2.7-1.1 0.8 2.8c2.1 7.1 5.3 12.1 9.6 15.1-7.3 2.3-13.6 0-19.5-4.9l-3.6-2.9 1.4 4.3c1.6 5.5 5.2 9.9 10.2 13q-0.9 0.5-1.7 1c-0.7-0.2-1.4-0.4-2.1-0.2-0.7 0.1-1.4 0.4-2 0.8-1 0.5-1.6 1.2-1.8 1.3 0 0 0 0-0.1 0-0.8-0.4-1.7-0.5-2.4-0.4-0.8 0.2-1.5 0.5-2.1 0.8-0.4 0.3-0.8 0.6-1.1 0.8-1.2-0.2-2.2-0.1-3.1 0.2-1.1 0.3-1.8 0.7-1.9 0.8-1.3-0.5-2.6-0.3-3.6 0-1.2 0.4-2 1.1-2 1.1-1.7-1-3.5-0.8-4.8-0.3-1 0.3-1.6 0.7-1.9 0.9q-0.2-0.1-0.4-0.2c-1.7-0.9-3.5-0.7-4.8-0.3-0.4 0.1-0.6 0.3-0.8 0.4-0.4-0.4-0.8-0.8-1.2-1.2-1.1-0.9-2.2-1.9-2.7-2.3-1.5-1.2-3.3-2.5-5.1-3.2-0.9-0.4-1.8-0.7-2.6-0.8-0.6-0.1-1.2 0-1.7 0.2-0.9-0.3-1.8-0.6-2.8-0.8 0.2 0 0.3-0.2 0.5-0.2 4.7-2.4 9.8-6 10.8-11.1 0.6-3.2-1.1-6.2-4.1-6.4-1-0.1-2.1 0.2-3.3 0.8-4 2.2-4.5 7.2-7.4 10.4q-0.2 0.2-0.5 0.4l-16.6-31.6c10-7.8 19.1-19.3 26.2-32.5-2 7.1-2.8 13.4-3.4 22.3l-0.2 2.5 2.3-1.2c9-4.7 16.1-12.6 21.7-22.7-1.4 5.5-2.3 11.3-2.4 17.9l-0.1 2.3 2.1-0.9c10.8-5 18.3-14 23.8-25.7q0.3-0.7 0.6-1.4c-1 5.7-1.3 11.9-1.4 20.1v2.3l2-1.1c9.3-4.5 15.4-13.5 20.1-25.1zm62.2 4.6c0.3 2.9 1.3 5.5 2.9 7.8l0.4 0.7h0.7c1.6 0 3-0.3 4.4-0.8-1.3 2-3 4-5.1 5.6-3.1 2.5-6.9 4.1-10.3 4.5-1.3-3.8-1.9-7.1-1.3-11 0.5-0.2 0.9-0.3 1.3-0.6 2.8-1.3 5.3-3.5 7-6.2zm36.7 0c1.7 2.7 4.3 4.9 7 6.2 0.5 0.3 0.9 0.4 1.4 0.6 0.6 3.9 0 7.2-1.4 11-3.4-0.4-7.1-2-10.2-4.5-2.2-1.6-3.9-3.6-5.1-5.6 1.3 0.5 2.8 0.8 4.3 0.8h0.8l0.4-0.7c1.6-2.3 2.6-4.9 2.8-7.8zm-20.5 0.1q0.7 0.6 1.5 1.1l0.7 0.4 0.8-0.4q0.7-0.5 1.4-1c0.7 2 2 3.7 3.6 5.2q0 0 0 0c0.2 2.1-0.3 3.9-1.3 5.6-1 1.7-2.6 3.1-4.4 4.4-1.6-1.2-3.3-2.6-4.5-4.4-1.1-1.8-1.7-3.7-1.5-5.6q0 0 0 0c1.7-1.5 3-3.3 3.7-5.3zm-50.5 8c0.1 2.8 0.8 5.7 1.7 8.2 0.7 3.4-1.5 7.4-5.5 10.6-3.1 2.5-7.2 3.9-11.1 4.3 2-2.5 3.7-5.5 4.6-8.8 0.7-2.7 1.1-5.6 1.1-8.4 3.6-0.8 6.8-3 9.2-5.9zm105.4 0c2.4 2.9 5.6 5.1 9.2 5.9 0 2.8 0.3 5.7 1.1 8.4 0.9 3.3 2.6 6.3 4.6 8.8-3.9-0.4-8-1.8-11.2-4.3-4-3.2-6.3-7.3-5.5-10.8 0.9-2.5 1.6-5.2 1.8-8zm-82.5 0.4c-0.2 4 0.7 7.6 2.1 11.6l0.4 0.9h1.1c3.1-0.2 6.4-1.4 9.4-3.2-2.1 8.1-7.9 11.2-16.4 11-1.4-4.2-2.1-10.5-0.3-14.5 1.6-1.6 2.9-3.5 3.7-5.8zm59.6 0c0.8 2.3 2.1 4.2 3.7 5.8 1.7 4 1 10.3-0.4 14.5-8.6 0.5-14-3.1-16.3-11 3 1.8 6.3 3 9.4 3.2h1.1l0.3-0.9c1.5-4 2.4-7.6 2.2-11.6zm-37.9 1.5q0.6 1.4 1.4 2.6c1.4 2.3 3.3 4.1 5.3 5.4h-0.2c0 3.5-2.4 8-5.9 11.6-3.1 3.3-7.1 5.3-11.1 5.8-0.7-2.3-0.9-5.4-0.2-8.2 2.9-2.6 4.9-6.4 5-11.3 0.1-0.1 0.3-0.2 0.5-0.4 2.1-1.6 3.8-3.5 5.2-5.5zm16.2 0.1c1.4 1.9 3.2 3.8 5.2 5.4 0.1 0.2 0.3 0.3 0.5 0.4 0 4.9 2.1 8.7 5 11.3 0.6 2.8 0.5 6.1-0.1 8.5-4-0.6-8.1-2.8-11.3-6.1-3.5-3.6-5.8-8.1-5.8-11.6 2.1-1.4 4.1-3.3 5.4-5.5 0.5-0.7 0.8-1.6 1.1-2.4zm-45.3 7.1c-0.7 4.7 0.2 9.8 1.6 13.5l0.2 0.6 0.7 0.2q0.2 0 0.4 0.1c-3.3 5.5-8.1 8.1-15.3 7.8-1.6-4.4-2.9-10.5-1-14.5h-0.1c1.2-1.5 2.1-3.2 2.5-5 3.5 0.4 7.5-0.6 11-2.7zm74.4 0c3.5 2.1 7.5 3.1 11 2.7 0.4 1.8 1.3 3.5 2.5 5h-0.1c1.8 4 0.7 10.2-0.8 14.6-6.8 0.4-11.6-1.9-15.5-7.9q0.2-0.1 0.3-0.1l0.7-0.2 0.3-0.6c1.4-3.7 2.3-8.8 1.6-13.5zm-211.4 0.8c-1.2 3.3-2.4 6.6-3.4 9.9l-0.9-1.7q0.3-0.6 0.7-1.2c1.2-2.3 2.4-4.6 3.6-7zm-20.9 4.9l3.6 9.3c-5.4 8.7-11.3 17-17.8 25 2.9-9.1 7.2-19.1 12.9-31.5 0.5-0.9 0.9-1.8 1.3-2.8zm195.1 0.7c1.2 2.8 3.1 5.6 5.4 8q0.2 0.2 0.3 0.3c0.5 2.4 0 4.4-1.2 6.3-1 1.7-2.6 3.1-4.4 4.4-1.6-1.2-3.3-2.6-4.5-4.4-1.3-2.1-2-4.2-1.4-6.4 0.1-0.1 0.3-0.1 0.4-0.2 2.3-2.4 4.2-5.2 5.4-8zm-54.5 5.2c-0.4 4.5 0.7 9.4 2.1 12.9l0.3 0.7 0.7 0.2q0.2 0 0.4 0.1c-1.3 2.4-4 4.6-7.4 6-4 1.5-8.8 1.2-13.1-0.9 6.8-3.2 10.5-9.4 9.8-14.8 2.5-1 4.9-2.3 6.9-3.9 0.1-0.1 0.2-0.2 0.3-0.3zm109 0c0.1 0.1 0.1 0.2 0.2 0.3 2.1 1.6 4.5 2.9 7 3.9-0.8 5.4 3 11.6 9.8 14.8-4.4 2.1-9.1 2.4-13.1 0.9-3.5-1.4-6.2-3.6-7.5-6q0.3-0.1 0.5-0.1l0.7-0.2 0.3-0.7c1.3-3.5 2.5-8.4 2.1-12.9zm-76.7 0.8c-0.1 1.5 0 2.9 0.1 4.3-0.4 3.4-3.3 7.6-7.2 10.7-3.5 2.9-7.7 4.4-11.6 4.4-0.4-2.4-0.3-5.5 0.7-8.1 0.3-0.1 0.6-0.2 0.8-0.4 3.5-1.8 6.6-4.7 8-8.6 3 0.1 6.2-0.6 9.2-2.3zm44.3 0c3 1.7 6.3 2.4 9.3 2.3 1.4 3.9 4.5 6.8 7.9 8.6 0.3 0.2 0.6 0.3 0.8 0.4 1 2.6 1 5.8 0.6 8.2-3.9 0-7.9-1.6-11.5-4.5-3.9-3.1-6.7-7.4-7.1-10.8 0.1-1.3 0.2-2.8 0-4.2zm-30.8 4.9c0.2 1.5 0.6 3 1.3 4.3-0.5 3.3-3.2 7.4-7 10.4-3.5 2.9-7.6 4.3-11.6 4.4-0.4-2.7-0.3-6.3 0.9-9 1.8-1.8 3.3-3.7 4.4-5.8h0.9c4-0.1 7.8-1.8 11.1-4.3zm17.4 0c3.3 2.5 7.1 4.2 11 4.3h1c1.1 2.1 2.6 4 4.4 5.8 1.2 2.7 1.3 6.3 0.9 9-4-0.1-8.1-1.5-11.7-4.4-3.7-3-6.3-6.9-7-10.3 0.8-1.3 1.2-2.8 1.4-4.4zm-13.9 7.3c1.1 1.3 2.3 2.4 3.6 3.3 0 0.3 0.1 0.7 0.2 1-0.7 3.6-3.5 8.4-7.3 12.2-3.9 4-8.7 6.6-12.4 6.8-0.5-2.8-0.3-6.4 0.5-9.2 2.9-1 5.6-2.5 8-4.5 3.4-2.7 6.1-6.1 7.4-9.6zm10.4 0.2c1.3 3.5 4.1 6.8 7.4 9.4 2.4 2 5.1 3.5 7.9 4.5 0.9 2.8 1 6.4 0.6 9.2-3.7-0.2-8.5-2.8-12.4-6.8-3.8-3.8-6.6-8.6-7.3-12.2q0.1-0.5 0.1-1c1.3-0.9 2.6-1.9 3.7-3.1zm-48.9 0.2c-0.8 3.1-1 6.4-0.2 9.1l0.4 0.8 0.9 0.1c4.6 0.4 9.4-1.3 13.4-4.1-0.2 1.2-0.3 2.4-0.3 3.6-4.1 1-7.2 3.5-9.1 6.6-1.9 2.8-2.7 6-2.2 8.8-1.4 0.6-3.6 0.7-5.9 0.3-3-0.6-6-2.1-7.5-4.3-0.1-3.2 0.9-7.4 2.6-11.2 1.8-3.9 4.2-7.4 6.5-9.3q0.7-0.2 1.4-0.4zm87.4 0q0.7 0.2 1.4 0.4c2.3 1.9 4.7 5.4 6.5 9.3 1.7 3.8 2.6 8 2.6 11.2-1.5 2.2-4.5 3.7-7.5 4.3-2.3 0.4-4.5 0.3-6-0.3 0.6-2.8-0.2-6-2.1-8.8-1.9-3.1-5-5.6-9.1-6.6 0-1.2-0.1-2.4-0.4-3.6 4.1 2.8 8.8 4.5 13.5 4.1l0.9-0.1 0.3-0.8c0.9-2.7 0.7-6-0.1-9.1zm-97.2 7.1c-0.3 0.5-0.4 0.9-0.7 1.4-1.9 4.3-3.1 8.9-3 12.9v0.3l0.2 0.3c1.7 2.8 4.8 4.5 8 5.5-2.8 1.6-6.1 2.1-9.1 1.8-3.5-0.4-6.6-1.9-8.5-3.7-0.5-1.9-0.4-5.3 0.6-8.4 1-3.2 2.8-6 4.6-6.9v-0.1c1.4-0.2 2.7-0.6 4-1.1 1.4-0.5 2.7-1.2 3.9-2zm107 0c1.2 0.8 2.5 1.5 3.9 2 1.3 0.5 2.6 0.9 4 1.1v0.1c1.8 0.9 3.6 3.7 4.6 6.9 0.9 3.1 1 6.5 0.5 8.4-1.8 1.8-4.9 3.3-8.4 3.7-3.1 0.3-6.3-0.2-9.1-1.8 3.2-1 6.2-2.7 8-5.5l0.1-0.3v-0.3c0.2-4-1.1-8.6-3-12.9-0.2-0.5-0.4-0.9-0.6-1.4zm-53.5 1.6c1.3 2.9 3.3 5.8 5.7 8.4 0.4 2.3-0.1 4.3-1.2 6.1-1 1.7-2.6 2.8-4.4 4-1.6-1.1-3.3-2.2-4.5-4-1.2-2-1.8-4.1-1.4-6.1 2.5-2.6 4.5-5.5 5.8-8.4zm-71 0.8c1.7 0.6 3.4 0.9 5.2 1-1.3 1.6-2.2 3.8-2.9 5.9-0.9 3.1-1.2 6.2-0.8 8.8-5.5 1.7-10.4 1.6-14.3-0.5-3.9-1.9-6.9-6.2-9.1-12.2 3.4 0.9 7.2 1.4 10.8 1.1 4.5-0.4 8.7-1.6 11.1-4.1zm142 0c2.4 2.5 6.5 3.7 11 4.1 3.7 0.3 7.5-0.2 10.8-1.1-2.2 6-5.2 10.3-9 12.2-4 2.1-8.8 2.2-14.3 0.5 0.4-2.6 0.1-5.7-0.8-8.8-0.7-2.1-1.6-4.3-2.9-5.9 1.7-0.1 3.5-0.4 5.2-1zm-100.3 2.8c0 0.5 0.2 0.9 0.3 1.4l0.3 0.8 1 0.1q2 0.2 4-0.1c-0.5 2.5-0.9 5.1-0.6 7.7-1.1 1.1-3.4 2.2-6 2.8-2.7 0.6-5.6 0.4-7.5-0.6-0.4-1.8 0-4.5 1.5-6.8 1.6-2.4 3.9-4.4 7-5.3zm58.6 0c3 0.9 5.4 2.9 6.9 5.3 1.6 2.3 2 5 1.6 6.8-1.9 1-4.8 1.2-7.5 0.6-2.6-0.6-4.9-1.7-6-2.8 0.2-2.6-0.1-5.2-0.7-7.7q2.1 0.3 4.1 0.1l1-0.1 0.3-0.8c0.1-0.5 0.2-0.9 0.3-1.4zm-37.9 7.7c0.3 1.6 0.9 3.3 1.9 4.7 0.8 1.3 1.8 2.6 2.9 3.6-0.6 1.6-2.1 3.4-4 4.8-1.8 1.2-4 1.7-6.2 1.7l-0.2-0.1c-0.2-1.4-0.4-3.1-0.3-5.1 0.3-2.4 0.9-4.9 1.6-6.3l-0.1-0.1c1.5-0.9 3-2 4.4-3.2zm17.3 0c1.4 1.2 2.8 2.3 4.3 3.2l-0.2 0.1c0.8 1.4 1.4 3.9 1.6 6.3 0.2 2 0 3.7-0.2 5.1l-0.2 0.1c-2.3 0-4.4-0.5-6.2-1.7-1.9-1.3-3.4-3.2-4-4.7 1.2-1.1 2.3-2.3 3.2-3.7 0.9-1.4 1.5-3 1.7-4.7zm154.9 3.5c0.6-0.1 1.3 0 2 0q0.2 0 0.4 0c-0.7 4.9-1.5 9.6-2.5 14.9-3.3-0.5-6.7-0.7-10.1-0.7-4.6 0-9 0.3-13.3 1.1 4.5-8.5 13.3-14.6 23.5-15.3zm-180.1 1.5q-0.5 2.1-0.7 4.3c-0.2 2.7-0.2 5.4 0.4 7.3l0.1 0.7c-0.9 0.8-2.1 1.4-3.3 2-2.6 1.1-5.4 1.4-7.6 0.8-0.7-1.8-0.9-4.5 0-7.2 1-2.9 3.1-5.6 6.4-6.9q2.3-0.1 4.7-1zm33 0q2.3 0.9 4.7 1c3.3 1.3 5.3 4 6.3 6.9 1 2.7 0.8 5.4 0 7.2-2.1 0.6-4.9 0.3-7.5-0.8-1.2-0.6-2.4-1.2-3.4-2l0.2-0.7c0.6-1.9 0.6-4.6 0.4-7.3q-0.2-2.2-0.7-4.3zm160.6 0.9c9.6 4.2 16.5 13.5 17.3 24.4-1.8-1.2-3.8-2.3-5.8-3.4l-0.9-1v0.5c-4.2-2.3-8.6-4.1-13.2-5.5 1-5.4 1.9-10.1 2.6-15zm-280.3 0.9c5.8 3.1 12.3 4 19.4 1 4.5 1.9 9.8 1.8 15.4 0 1.8 1.8 4.3 3.1 7.2 3.8-1.6 1.4-3 3.1-4.1 4.9q-0.1 0.2-0.2 0.3c-0.9 0.3-1.7 0.8-2.6 1.3-9.3 1.1-17.9 0-24.6-2.7-4.7-2-8-5-10.5-8.6zm206.3 0c-2.4 3.6-5.7 6.6-10.4 8.6-6.7 2.7-15.3 3.8-24.7 2.7-0.8-0.5-1.6-1-2.5-1.3q-0.1-0.1-0.2-0.3c-1.2-1.8-2.5-3.5-4.1-4.9 2.9-0.7 5.3-2 7.2-3.8 5.6 1.8 10.9 1.9 15.4 0 7 3 13.6 2.1 19.3-1zm-141.9 0.4c2.7 1.3 6.1 1.3 9.1 0.6 0.7-0.1 1.4-0.4 2-0.6-1.1 1.4-2 3.1-2.5 4.7-1.3 3.6-1.2 7.3 0.2 10-4 3.3-8.3 4-12.2 3.4-3.9-0.7-7.2-2.8-9.1-5 1.5-4.3 4-10 7.7-12 1.8-0.1 3.4-0.3 4.8-1.1zm66.4 0c0.7 0.2 1.4 0.5 2.1 0.6 3 0.7 6.3 0.7 9.1-0.6 1.3 0.8 3 1 4.8 1.1 3.7 2 6.2 7.7 7.7 12-1.9 2.2-5.2 4.3-9.1 5-3.9 0.6-8.2-0.1-12.3-3.4 1.5-2.7 1.5-6.4 0.3-10-0.6-1.6-1.4-3.3-2.6-4.7zm-29.1 2.9c0.3 0.2 0.5 0.4 0.8 0.6l0.7 0.5 0.8-0.5q0.4-0.3 0.8-0.6c0.9 2 2.5 3.9 4.6 5.3 1.9 1.2 4.1 2.1 6.5 2.3 0.1 0 0.1 0.1 0.1 0.1q0.4 0.3 0.7 0.7c1.1 3.5 0 6.5-2.5 9.4-2.5 2.7-6.4 4.3-10.9 6.3-3.9-1.7-8-3.4-10.7-6.3-2.9-3.1-4.2-6.3-3-9.3 0.3-0.3 0.6-0.6 0.8-0.9 2.5-0.2 4.7-1.1 6.6-2.3 2.1-1.5 3.7-3.4 4.7-5.3zm-48.9 1.2c-1.9 2.9-3.2 6.3-4 8.9l-0.2 0.8 0.4 0.5c1.7 2.4 4.8 4.5 8.4 5.7-2.5 1.7-5.6 2.4-8.7 2.3-0.1 0-0.2 0-0.4 0-0.8 0-1.6 0-2.4-0.1-3.8-0.6-7.1-2.3-8.9-4.4 0.7-2.1 1.8-4.6 3.3-7 1.6-2.6 3.7-4.8 5.7-5.8v-0.1c2.3 0.1 4.6-0.1 6.8-0.8zm100.8 0c2.2 0.7 4.5 0.9 6.7 0.8v0.1c2.1 1 4.1 3.2 5.8 5.8 1.5 2.4 2.5 4.9 3.3 7-1.8 2.1-5.1 3.8-9 4.4-0.8 0.1-1.6 0.1-2.4 0.1-0.1 0-0.2 0-0.3 0-3.1 0.1-6.2-0.6-8.7-2.3 3.6-1.2 6.6-3.3 8.4-5.7l0.4-0.5-0.2-0.8c-0.8-2.6-2.1-6-4-8.9zm-204.9 5.4c1.2 0 2.4 0.4 3.6 0.7-0.3 0.5-0.6 1.2-0.9 1.6-0.6 0.7-1.1 1.1-1.7 1.2-1.3-0.8-3-1.4-5-1.9 0.9-0.5 1.9-1.3 2.9-1.5q0.6-0.1 1.1-0.1zm58.8 0.4c0.6 0.4 1.3 0.7 1.9 0.9 1.7 0.7 3.4 1.2 5.2 1.7-2.4 1.7-4.4 3.9-6.1 6.4-0.7-0.1-1.3-0.2-1.8-0.4 0.5-1.3 0.4-2.9 0.1-4.3-0.3-1.1-0.8-2.2-1.5-3.1 0.7-0.4 1.7-1 2.2-1.2zm190.9 0.2c0.6 0.3 1.2 0.7 1.8 1-0.7 0.9-1.2 2-1.5 3.1-0.3 1.4-0.4 3 0.1 4.3-0.3 0.1-0.6 0.2-0.9 0.3-1.7-2.5-3.7-4.6-6.1-6.3 1.8-0.5 3.5-1 5.1-1.7 0.6-0.2 1-0.4 1.5-0.7zm-242.7 0.2c0.1 0 0.2 0 0.4 0 0.4 0 1.1 0.2 1.8 0.5 1.4 0.7 3.1 1.8 4.4 3 0.5 0.4 1.7 1.3 2.7 2.2 0.5 0.4 1 0.9 1.3 1.2 0.1 0.1 0.1 0.1 0.2 0.2 0 0.6 0.3 3.3 0.4 6.7 0.1 1.9 0.1 3.8-0.1 5.4-0.1 1.6-0.5 2.9-0.7 3.1 0.1-0.1-0.1 0.2-0.5 0.5-0.4 0.2-1 0.6-1.7 0.9-1.4 0.8-3.1 1.7-4.8 2.5-1.4 0.7-1.6 0.7-2.7 1.3 0.2-0.3 0.4-0.5 0.6-0.8v-0.1l0.1-0.2c0-0.1 0-0.2 0.1-0.4l0.1 0.2c2.5-1 4.4-3.2 5.3-7.1l0.2-1.2-1.1-0.4c-1.9-0.7-4.1-0.8-6.1-0.7-0.8 0.1-1.4 0.2-2.1 0.4 0.8-1.2 1.5-2.6 1.9-4.4l0.1-0.4c0.2 0.2 0.4 0.3 0.6 0.4 1.3 0.7 2.9 1 4.4 0.8l-0.4-2.8c-0.8 0.1-1.9-0.1-2.8-0.5-0.8-0.5-1.4-1.1-1.5-1.4l-0.2-1.1h-1.1c-0.9 0-1.7-0.5-2.3-1.3-0.3-0.4-0.6-0.9-0.8-1.4 0.9-0.4 1.6-1.1 2.2-1.8 0.8-1 1.4-2.1 2-3.2 0 0 0-0.1 0.1-0.1zm45.8 1.6c0.3-0.1 0.7 0 0.9 0.1 0.8 0.3 1.7 1.5 2 2.9 0.3 1.4 0.1 2.8-0.5 3.5-0.4 0.5-1.3 0.6-2.1 0.6q-0.5 0-1-0.1c-0.1 0-0.2 0-0.2 0 0.1-1 0-2-0.2-2.9-0.3-1.1-0.7-2.1-1.3-3q0.2-0.1 1.1-0.7c0.4-0.2 1-0.3 1.3-0.4zm202.5 0c0.3 0.1 0.9 0.2 1.3 0.4q0.9 0.6 1.1 0.7c-0.6 0.9-1.1 1.9-1.3 3-0.2 0.9-0.3 1.9-0.2 2.9 0 0-0.1 0-0.2 0q-0.5 0.1-1 0.1c-0.8 0-1.7-0.1-2.2-0.6-0.5-0.7-0.7-2.1-0.4-3.5 0.3-1.4 1.2-2.6 1.9-2.9 0.3-0.1 0.7-0.2 1-0.1zm-262.2 1.4c2.8 0.3 4.9 1.2 6.5 2.1 0.2 0.5 0.4 1.1 0.8 1.7-3.6 2.8-7.1 5.6-11.3 7l-0.2 0.1-0.2 0.2c-2.1 1.9-4.6 2.4-7.4 1.8-1.3-0.2-2-0.7-2.4-1.4-0.4-0.6-0.6-1.6-0.2-2.7 0.5-1.6 0.9-2.3 1.6-2.8 0.7-0.5 1.8-0.8 3.4-1.3l0.4-0.1 0.2-0.2c1.8-1.6 5.1-3.6 8.8-4.4zm76.8 0.1c4 0.7 8.3 0.9 12.8 0.6-2.7 2.9-4.9 6.7-6.4 11-0.3 0.9-0.5 1.8-0.8 2.8-8.7 3-14.6 9.8-18.1 17.3-0.9-6-0.7-12.2 1.1-17.5 2.2-6.6 6.3-11.7 11.4-14.2zm169.2 0c5.1 2.5 9.1 7.6 11.3 14.2 1.8 5.3 2.1 11.5 1.2 17.5-3.5-7.5-9.5-14.3-18.2-17.3-0.2-1-0.5-1.9-0.8-2.8-1.5-4.3-3.6-8.1-6.3-11 4.5 0.3 8.8 0.1 12.8-0.6zm-192 0.2c0.1 0 0.2 0.1 0.3 0.2 0.8 0.3 1.6 1.5 1.9 2.9 0.3 1.4 0.1 2.8-0.4 3.4-0.5 0.6-1.4 0.7-2.2 0.7 0.4-1.1 0.5-2.3 0.3-3.4-0.2-1.3-0.8-2.5-1.7-3.4 0.3-0.1 1-0.3 1.3-0.3 0.1-0.1 0.3-0.1 0.5-0.1zm90.6 0c0 3.1 1.6 6.2 3.9 8.7q-0.1 0.4-0.1 0.8c0 0.1 0 0.3 0 0.4-1.7 7.8-5.7 11.4-10.2 12.8-0.7-1.8-1.2-4.6-1-8.3 0.2-4 0.8-8.3 1.4-12.1 1.4-0.3 2.7-0.7 3.9-1.3 0.8-0.3 1.4-0.6 2.1-1zm33.6 0.1c0.7 0.3 1.3 0.6 2.1 0.9 1.2 0.6 2.5 1 3.9 1.3 0.6 3.8 1.2 8.1 1.4 12.1 0.1 3.7-0.4 6.5-1 8.3-4.6-1.5-8.6-5.1-10.2-13.2 0 0-0.1-0.4-0.1-0.4 0 0 0.1-0.1 0.2-0.2 2.3-2.5 3.7-5.6 3.7-8.8zm89.8 0c0.1-0.1 0.3-0.1 0.4 0 0.3 0 1 0.2 1.3 0.3-0.9 0.9-1.5 2.1-1.7 3.4-0.2 1.1-0.1 2.3 0.2 3.4-0.7 0-1.6-0.1-2.1-0.7-0.5-0.6-0.8-2-0.4-3.4 0.3-1.4 1.1-2.6 1.8-2.9 0.2-0.1 0.3-0.1 0.5-0.1zm-174.3 0.4c-0.6 1.3-1.2 2.6-1.5 3.7l-0.3 0.7 0.5 0.6c1.7 2.3 4.5 3.9 7.7 4.9-3.8 1.9-7 5.1-9.6 8.5-2.6 3.6-4.5 7.4-6 11.1-0.7-6-0.5-12.2 1.4-17.6 1.8-5.1 4.6-9.3 7.8-11.9zm135.4 0c3.2 2.6 6 6.8 7.8 11.9 1.9 5.4 2.1 11.6 1.4 17.6-1.5-3.7-3.4-7.5-6-11.1-2.6-3.4-5.8-6.6-9.6-8.5 3.2-1 6-2.6 7.7-4.9l0.5-0.6-0.3-0.7c-0.4-1.1-0.9-2.4-1.5-3.7zm-180.1 1c0.4 0 0.9 0.2 1.2 0.3 0.8 0.4 1.4 1.4 1.6 2.5 0.2 1.2 0 2.4-0.6 3.2-0.5 0.6-2.1 0.8-2.9 0.9 0.3-1.1 0.3-2.3 0.1-3.4-0.2-1.1-0.6-2.1-1.2-3.1 0.4-0.1 1.4-0.4 1.8-0.4zm223.9 0c0.4 0 1.4 0.3 1.8 0.4-0.6 1-1 2-1.2 3.1-0.2 1.1-0.2 2.3 0.1 3.4-0.9-0.1-2.4-0.3-2.9-0.9-0.6-0.8-0.8-2-0.6-3.2 0.2-1.1 0.8-2.1 1.6-2.5 0.3-0.1 0.8-0.3 1.2-0.3zm27.9 0.2c0 0 0.1-0.1 0.2 0 0.2 0.2 0.5 0.6 0.6 0.8 0.3 0.5 0.5 0.9 0.7 1.6 0 1.8 0.4 3.3 0.9 4.8 2.9 3.9 4 9.3 7.8 13.8 0 0-0.1 0 0 0 2.2 3 4.8 6.4 8.6 8.5 0 0 0-0.1 0 0 2.2 1.4 4.4 1 6.2 0.3 1.9-0.7 3.5-1.6 4.7-1.8l0.2-0.1 0.3-0.1c1.9-1.1 3.1-2.7 4.1-4.2 1.1-1.4 2.2-2.7 3.4-3.6l0.1-0.1 0.2-0.2c0.8-1 2.3-1.3 3.5-1 1.2 0.4 2 1.1 1.9 2.6-0.1 3.2-3 5.6-5.9 7.6q0 0.1-0.1 0.1c-3 1.8-5.9 3.6-8.9 5.3 0 0-0.1-0.1-0.1 0-3.1 1.1-6 2.4-8.9 2.7l0.3 2.8c3.6-0.3 6.7-1.8 9.8-3h0.1c3.2-1.7 6.2-3.6 9.3-5.4v-0.1c2.5-1.7 5.4-4 6.6-7.2h0.1c1.8-0.8 3.4-2.1 4.8-3.1 1.3-0.8 2.3-1.1 3.4-0.7 0.9 0.7 1.3 1.7 1.4 3.1 0 1.4-1.5 3-2.2 4.2-2.2 3.2-3.7 3.7-6.8 5.2l-0.1 0.1h-0.1c-5.4 3.2-10.9 6.7-16.1 7h-0.3l-0.2 0.2c-4 1.8-7.6 2.5-11.3 2.7-3.9-0.6-6.2-2.9-10.3-5.4-3.5-2.4-7.5-6.5-9.6-10 0 0 0 0 0-0.1-2.1-4-3.1-5.3-4.9-10.1v-0.1c0 0 0 0 0 0q0.1 0 0.2 0c0 0 0.1 0 0.1 0 0.2 0.7 0.3 1.3 0.8 1.9 0 0 2.4-0.8 1.6-4.8-0.4-6.3 1.1-7.1 0.3-12.1 0.1-0.1 0.1-0.1 0.2-0.2 0.3-0.3 0.8-0.8 1.3-1.2 0.2-0.2 0.3-0.3 0.5-0.4 0.1-0.1 0.8-0.3 1.6-0.3zm-166.3 0.7c0.3 0 0.6 0 0.9 0-0.2 4.3-1.5 10-3.9 15.2q0 0.1 0 0.2c-0.6 1.3-1.2 2.5-1.9 3.6-1.9 3.1-4.2 5.6-6.7 7-2 1.2-4.3 1.4-6.8 0.8 3.7-6.1 7-14.5 8.2-21.8 3.5-0.5 6.9-2 10.2-5zm52.8 0c0.4 0 0.7 0 1 0 3.2 3 6.7 4.5 10.1 5 1.3 7.3 4.5 15.7 8.3 21.8-2.5 0.6-4.8 0.4-6.9-0.8-2.5-1.4-4.7-3.9-6.6-7-3.6-5.8-5.6-13.7-5.9-19zm-144.1 0.1c0.4-0.1 0.8 0 1 0.1 0.8 0.4 1.5 1.5 1.7 2.9 0.3 1.3 0 2.8-0.7 3.7-0.6 0.8-1.9 1-2.8 1.1 0.2-1.3 0.3-2.5 0.1-3.8-0.2-1.3-0.7-2.5-1.4-3.6 0.4-0.2 1.3-0.4 2.1-0.4zm235 0c0.2-0.1 0.3-0.1 0.5 0 0.8 0 1.7 0.2 2.1 0.4-0.7 1.1-1.2 2.3-1.4 3.6-0.2 1.3-0.1 2.5 0.1 3.8-0.9-0.1-2.2-0.3-2.8-1.1-0.7-0.9-1-2.4-0.7-3.7 0.2-1.4 0.9-2.5 1.6-2.9 0.2 0 0.4-0.1 0.6-0.1zm-241.5 0.6q0.7-0.1 1.3 0.2c0.9 0.6 1.7 2 2 3.7 0.3 1.7 0 3.6-0.8 4.8-0.9 1.2-2.7 1.4-3.9 1.4 0.3-1.6 0.3-3.3 0.1-5-0.2-1.5-0.6-3.1-1.3-4.4 0.6-0.3 1.7-0.7 2.6-0.7zm247.9 0c0.2-0.1 0.3 0 0.6 0 0.9 0 2 0.4 2.5 0.7-0.6 1.3-1 2.9-1.2 4.4-0.2 1.7-0.2 3.4 0.1 5-1.2 0-3-0.2-3.9-1.4-0.8-1.2-1.1-3.1-0.8-4.8 0.3-1.7 1.1-3.1 2-3.7 0.2-0.1 0.4-0.2 0.7-0.2zm-255.5 0.4c0.5 0 1.3 0 1.7 0.2 0.7 0.4 1.8 2.4 2.1 4.8 0.3 2.3-0.1 4.8-0.8 5.8-0.9 1.3-3 1.6-4.2 1.6 0.1-1.7 0.1-3.6 0-5.5 0-3.2-0.3-5.7-0.4-6.5 0.5-0.2 1-0.3 1.6-0.4zm262.8 0c0.3 0 0.7 0 0.9 0 0.6 0.1 1.1 0.2 1.6 0.4-0.9 4.2-0.6 7-0.4 12-1.2 0-3.3-0.3-4.2-1.6-0.8-1-1.1-3.5-0.8-5.8 0.3-2.4 1.4-4.4 2.1-4.8 0.2-0.1 0.5-0.2 0.8-0.2zm-282.9 2.2c0.8 0.6 1.8 1 2.9 1.3q0.2 0.3 0.4 0.7c-1.6-0.5-3.4-0.7-5.2-0.5q1-0.8 1.9-1.5zm303.2 3.6c10.9 0 21.1 2.5 30.3 6.9-0.5 0.4-1 0.9-1.5 1.3-1.5 0.1-3 0.7-4.2 1.9 0 0.1-0.2 0.1-0.2 0.2h0.1c-1.6 1.3-2.8 2.7-3.8 4-1 1.5-2.1 2.7-3.3 3.4v0.1c-1.8 0.4-3.5 1.2-4.8 1.8-1.5 0.5-2.4 0.7-3.7-0.1l-0.1-0.1c-3.1-1.6-5.5-4.7-7.8-7.7v-0.1c-2.6-3.1-3.7-7.4-6-11.4 1.7-0.1 3.3-0.2 5-0.2zm-305.3 0.7c1.1-0.1 2.2 0.1 3.3 0.3-0.5 1.3-1 2.3-1.7 3-0.6-1-1.3-2-2.2-2.8-0.1-0.1-0.3-0.2-0.4-0.3 0.3-0.1 0.6-0.2 1-0.2zm345.5 0.8c1.2 0.7 2.3 1.4 3.4 2.2-0.1 1.8-0.5 3.6-0.9 5.3-0.1 0.2-0.1 0.4-0.3 0.6-0.5 0-1 0-1.6 0.1q-0.8-0.5-1.6-1c0.3-1 0.7-1.9 0.8-2.9 0.3-1.5 0.4-3 0.2-4.3zm-350.9 0.2c0.1 0 0.5 0 1 0.3 0.6 0.3 1.2 0.7 1.8 1.3 1.1 1 1.8 2.3 2 3.1-0.4 1.1-0.9 1.9-3.6 3.1l-0.3 0.2-0.2 0.2c-1.2 1.5-2.8 2.7-5.6 2.9h-0.3l-0.3 0.2c-0.4 0.2-1 0.5-1.6 0.6l-0.2-0.2c-0.1 0.1-0.1 0.2-0.2 0.3-0.9 0.2-1.7 0.2-2.6 0.2-1.5-0.1-2.4-0.6-2.9-1.5-0.6-1.2-0.5-2.1-0.1-3.1 0.5-1 1.3-2 1.9-2.9 2.4-0.1 4.7-0.9 6.7-2.5 0.2-0.1 0.3-0.2 0.5-0.3 1.4-0.5 2.8-1.2 4-1.9zm109.5 0.2c-0.7 0.9-1.3 1.9-1.9 2.9-2 3.2-2.9 6.2-4 9.2-0.7-2-1.7-4-1.8-6-0.2-2.1 0.2-4 0.6-5.2 0.9-0.2 1.8-0.5 2.8-0.6 1.5 0 2.8 0 4.3-0.3zm40.1 0c2.7 2.3 5.7 4.1 8.8 5.5-0.9 7.2-4.2 10.6-7.9 12.2-0.6-1.6-1.2-3.9-1.3-7.1-0.1-3.4 0.1-7.2 0.4-10.6zm60.7 0c1.4 0.3 2.8 0.3 4.3 0.3 0.9 0.1 1.9 0.4 2.8 0.6 0.4 1.2 0.7 3.1 0.6 5.2-0.1 2-1.1 4-1.8 6-1.1-3-2.1-6-4-9.2-0.6-1-1.2-2-1.9-2.9zm137.8 0.2c0.1 1 0 2.1-0.2 3.2-0.4 2.2-1.5 4.4-3.1 5.7-0.5-0.9-1.2-1.6-2-2.1 2.2-2.1 3.9-4.2 5.3-6.8zm-177.9 0.1c0.2 3.3 0.5 6.9 0.4 10.3-0.1 3.2-0.7 5.5-1.3 7.1-3.7-1.6-7-5-7.9-12.2 3.3-1.4 6.3-3.2 8.8-5.2zm187.2 4.5c0.2 1.1 0.3 2.2 0.3 3.3-0.1 1.2-0.4 2.3-0.7 3.4-0.3-0.9-0.8-1.7-1.4-2.4 0.8-1.3 1.4-2.7 1.8-4.3zm-344.9 0.4c1.2-0.1 2.3 0 3.4 0.2-0.5 1.4-1.1 2.4-1.9 3 0-0.1 0-0.3 0-0.4-0.4-1.1-1.2-2-2-2.7q0 0-0.1 0c0.2-0.1 0.4-0.1 0.6-0.1zm-5.3 1.2c0.9 0.1 2.1 0.5 3 1.2 0.5 0.4 0.9 0.8 1.1 1.3q0.2 0.7-0.2 1.9c-1.2 1.9-3.2 3.1-5.4 4.8l-0.1 0.1-0.1 0.1c-1.3 1.5-2.5 2.3-3.8 2.7-1.2 0.5-2.7 0.5-4.8 0-1.5-0.3-2.7-1.2-3.1-2.1-0.3-0.8-0.3-1.5 0.6-2.5 0.3-0.1 0.6-0.1 0.9-0.2v0.1c0.2-0.1 0.3-0.2 0.5-0.2 3-0.4 5.2-1.8 6.6-3.4 0.1 0 0.1 0 0.1-0.1 2.5-1.1 3.9-2.3 4.7-3.7zm125.7 0.6c0 2.8 0.4 5.2 1.5 7l0.5 0.9 1-0.2q2.3-0.5 4.4-1.6c-1.1 4.3-2.8 8.7-5.3 11.7-1.6 1.8-3.4 3.1-5.2 3.7-1.5 0.4-3.2-0.1-4.9-0.6 3.6-5.9 6.6-13.2 7.8-20.4q0.1-0.2 0.2-0.5zm54 0q0.1 0.3 0.2 0.5c1.1 7.2 4.1 14.5 7.8 20.4-1.7 0.5-3.5 1-4.9 0.6-1.9-0.6-3.7-1.9-5.2-3.7-2.5-3-4.3-7.4-5.3-11.7q2.1 1.1 4.4 1.6l1 0.2 0.5-0.9c1.1-1.8 1.5-4.2 1.5-7zm-40.5 0.4c0 1.1-0.1 2.2-0.1 3.3 0.1 4.1 0.5 7.6 2.1 10l0.6 0.9 1-0.3c0.3-0.1 0.6-0.3 0.8-0.4-0.3 1.9-0.6 3.7-1 5.4-0.7 2.8-1.8 5.5-3.2 7.8-2 3.8-4.9 5.7-8.6 6.6-0.4 0.1-0.8 0.2-1.2 0.2 1.1-6.8 3.6-17.2 5.5-24.6 0.7-1.9 1.2-3.9 1.5-5.8q1.4-1.3 2.6-3.1zm27 0q1.1 1.8 2.5 3.1c0.4 2 0.9 4.1 1.6 6.2 1.9 7.3 4.3 17.2 5.3 23.9-3.9-0.3-7.1-2.3-9.6-6.5-1.5-2.4-2.6-5.2-3.3-8.1-0.4-1.5-0.6-3.3-1-5.1 0.3 0.1 0.6 0.3 0.9 0.4l1 0.3 0.6-0.9c1.6-2.4 1.9-5.9 2-10 0.1-1.1 0-2.2 0-3.3zm-13.5 4.1c1.4 3.7 3.6 6.3 6.1 8 0.1 2.3 0.5 4.6 1.1 6.9-0.1 2.6-1 6.4-2.4 9.9-1.4 3.4-3.3 5.3-4.8 7.1-1.5-1.8-3.2-3.4-4.6-6.6-1.5-3.4-2.6-7.2-2.6-10.4 0.6-2.3 0.9-4.6 1.1-6.9 2.5-1.7 4.7-4.3 6.1-8zm-32.1 3.9c-1.6 4.7-3.8 9.3-6.3 12.9l-0.9 1.3 1.5 0.7c1.3 0.6 2.5 1 3.8 1.2-2.9 8.6-8.1 18.4-15 26.5-6.7 7.7-14.3 13.4-23.5 15.6 12.2-12.3 22.9-29.1 30-52.3 1.9-0.1 3.7-0.7 5.4-1.6 1.8-1 3.5-2.5 5-4.3zm64.2 0c1.4 1.8 3.1 3.3 5 4.3 1.6 0.9 3.4 1.5 5.3 1.6 7.2 23.2 17.6 39.9 29.7 52.1-9.2-2.2-16.4-7.7-23.1-15.4-6.9-8.1-12.1-17.9-15-26.5 1.2-0.2 2.5-0.6 3.7-1.2l1.5-0.7-0.8-1.3c-2.5-3.6-4.7-8.2-6.3-12.9zm-178.4 12.7c-3.2 0-5.8-2.6-5.8-5.7 0-3.2 2.6-5.8 5.8-5.8 3.1 0 5.7 2.6 5.7 5.8 0 3.1-2.6 5.7-5.7 5.7zm123.1-1c-1.4 5.7-2.7 11.4-3.2 15.5l-0.2 1.5 1.3 0.1c0.5 0.1 0.9 0.1 1.4 0.1-2.7 9-6.7 19-12.6 27-5.7 7.7-12.6 12.9-22.5 14.4 10.4-12.6 21.1-30.1 28.3-54l-0.2-0.1c0.6-0.1 1.1-0.2 1.6-0.4 2.4-0.7 4.4-2.2 6.1-4.1zm46.4 0c1.7 1.9 3.7 3.4 6 4.1 0.6 0.2 1.1 0.3 1.7 0.4l-0.3 0.1c7.2 23.9 18.2 41.6 28.6 54.2-9.9-1.5-17-6.9-22.7-14.6-6-8-9.9-18-12.6-27 0.5 0 0.9 0 1.3-0.1l1.4-0.1-0.2-1.5c-0.5-4.1-1.8-9.8-3.2-15.5zm-14.1 5q0.8 1.8 1.8 3.5c2.2 3.7 5.4 6.9 9.2 8.1 7.4 23.1 19.2 39.6 27.9 51.9-10.2-1.9-18.5-10-25.6-20.8-2-3-3.8-6.1-5.5-9.2l-0.3-0.5c-4.8-9.2-8.3-18.7-10.2-25.6q0.5-1 0.9-2.2c0.7-1.7 1.3-3.5 1.8-5.2zm-18.3 0.2c0.5 1.9 1.1 3.8 1.9 5.7 0.3 0.6 0.6 1.1 0.9 1.7-1.9 6.9-5.5 16.2-10.3 25.4h-0.1c-0.1 0.2-0.1 0.3-0.1 0.5-1.7 3.1-3.6 6.2-5.5 9.2-7.2 10.8-15.3 18.7-25.5 20.7 8.8-12.4 20.4-28.7 27.8-51.8 3.8-1.2 6.9-4.4 9.2-8.1q0.9-1.6 1.7-3.3zm13.7 10.7c2.1 6.8 5.4 15.2 9.8 23.6 3.3 16.7 3.5 25.8 4.1 37.5-5.9-4.1-10.3-12.8-13.1-23.3-2.2-8.3-3.4-17.5-3.9-25.6 0.2-2.9 0.3-5.7 0.3-8.3 1-1 1.9-2.4 2.8-3.9zm-9 0.1c0.9 1.5 1.9 2.8 2.8 3.8 0 2.6 0.1 5.4 0.3 8.3-0.5 8.1-1.7 17.3-3.9 25.6-2.8 10.5-7.2 19.2-13.1 23.3 0.6-11.7 0.8-20.8 4.1-37.5 4.4-8.3 7.7-16.7 9.8-23.5zm4.5 26.1c0.6 4.2 1.5 8.3 2.6 12.3 0.8 3.4 1.9 6.5 3.1 9.5 0.4 4.8-2.4 9.9-5.7 13.4-3.1-3.5-6.3-8.5-5.7-13.3h-0.1c1.2-3 2.3-6.2 3.2-9.6 1.1-4 1.9-8.1 2.6-12.3zm-18.4 4.6c-1.2 6.8-1.7 12.4-2.1 17.6-3.7 5.5-8 9.8-15 13.1-0.2-5 1-9.5 3.3-13.8 4.5-4 8.6-8.9 12.2-14.3 0.5-0.8 1-1.7 1.6-2.6zm36.8 0c0.5 0.9 1.1 1.8 1.6 2.6 3.6 5.4 7.6 10.3 12.2 14.3 2.3 4.3 3.5 8.8 3.2 13.8-6.9-3.3-11.2-7.6-14.9-13.1-0.4-5.2-1-10.8-2.1-17.6z"/>
	<g id="g3234">
	</g>
</svg>