<svg version="1.2" baseProfile="tiny-ps" xmlns="http://www.w3.org/2000/svg" viewBox="0 0 900 600" width="900" height="600"><title></title><defs><clipPath clipPathUnits="userSpaceOnUse" id="cp1"><path d="M0 0L450 0L450 300L0 300L0 0Z" /></clipPath></defs><style>tspan { white-space:pre }.shp0 { fill: #00247d } .shp1 { fill: #ffffff } .shp2 { fill: #000000 } .shp3 { fill: #cccccc } .shp4 { fill: none;stroke: #000000;stroke-width: 0.317 } .shp5 { fill: #cf142b } .shp6 { fill: none;stroke: #000000;stroke-width: 0.318 } .shp7 { fill: #fed100 } .shp8 { fill: #ffffff;stroke: #000000;stroke-width: 0.318 } .shp9 { fill: #f6e078 } .shp10 { fill: #fed100;stroke: #000000;stroke-width: 0.318 } .shp11 { fill: #fed100;stroke: #000000;stroke-width: 0.319 } .shp12 { fill: none;stroke: #000000;stroke-width: 0.319 } .shp13 { fill: #00247d;stroke: #a0892c;stroke-width: 0.319 } .shp14 { fill: #2b96f6;stroke: #a0892c;stroke-width: 0.319 } .shp15 { fill: #00247d;stroke: #000000;stroke-width: 0.319 } .shp16 { fill: #fed100;stroke: #000000;stroke-width: 0.317 } .shp17 { fill: #306947 } .shp18 { fill: #f7c600;stroke: #000000;stroke-width: 0.499 } .shp19 { fill: #ffffff;stroke: #000000;stroke-width: 0.499 } .shp20 { fill: #fff79c;stroke: #000000;stroke-width: 0.499 } .shp21 { fill: #9ccee7 } .shp22 { fill: #75b4a1 } .shp23 { fill: none;stroke: #000000;stroke-width: 0.499 } .shp24 { fill: #4892a2;stroke: #000000;stroke-width: 0.499 } .shp25 { fill: #f7dec6;stroke: #000000;stroke-width: 0.499 } .shp26 { fill: #5a6b6b;stroke: #000000;stroke-width: 0.499 } .shp27 { fill: none;stroke: #000000;stroke-width: 0.997 } .shp28 { fill: none;stroke: #000000;stroke-width: 1.496 } .shp29 { opacity: 0.451;fill: none;stroke: #000000;stroke-linejoin:round;stroke-width: 0.499 } .shp30 { opacity: 0.451;fill: none;stroke: #000000;stroke-linejoin:round;stroke-width: 0.511 } .shp31 { fill: #000000;stroke: #ffffff;stroke-width: 51.992 } .shp32 { fill: none;stroke: #ffffff;stroke-width: 86.653 } .shp33 { fill: none;stroke: #cf142b;stroke-width: 51.992 } </style><path class="shp0" d="M0 0L900 0L900 600L0 600L0 0Z" /><g ><g ><path class="shp1" d="M670.97 236.55C666.51 236.61 662.04 236.7 657.61 237C654.34 237.27 650.61 237.57 647.43 238.07L646.62 238.22C644.61 238.63 644.33 241.21 645.39 242.61C647.53 245.51 660.25 247.76 675.27 247.76C690.27 247.76 702.98 245.51 705.13 242.61C706.18 241.21 705.9 238.63 703.9 238.22L703.09 238.07C699.92 237.57 696.18 237.27 692.9 237C688.47 236.7 684.01 236.61 679.54 236.55L675.27 236.55L670.97 236.55Z" /><path class="shp2" d="M678.24 239.32C677.13 239.13 676.11 238.88 675.14 238.61C674.3 238.37 673.51 238.1 672.73 237.82C672.96 238.22 673.3 238.61 674.1 238.92C673.45 238.9 672.59 239.16 672.28 239.32C672.59 239.45 673.49 239.71 674.14 239.69C673.35 240 673.05 240.4 672.87 240.79C673.56 240.53 674.3 240.28 675.07 240.05C676.06 239.77 677.09 239.52 678.24 239.32L678.24 239.32Z" /><path class="shp2" d="M666.56 239.37C665.45 239.22 664.43 239.01 663.47 238.77C662.6 238.56 661.79 238.31 661.04 238.05C661.25 238.44 661.6 238.82 662.43 239.11C661.76 239.11 660.92 239.41 660.62 239.56C660.93 239.69 661.83 239.92 662.48 239.88C661.71 240.21 661.41 240.62 661.23 241.02C661.92 240.74 662.64 240.45 663.41 240.21C664.4 239.88 665.43 239.62 666.56 239.37Z" /><path class="shp2" d="M654.97 239.98C653.86 239.9 652.81 239.77 651.82 239.6C650.96 239.45 650.13 239.28 649.36 239.07C649.61 239.45 649.98 239.81 650.82 240.02C650.17 240.07 649.34 240.43 649.04 240.6C649.38 240.7 650.28 240.87 650.93 240.79C650.17 241.17 649.91 241.61 649.77 242.02C650.43 241.68 651.14 241.34 651.89 241.04C652.84 240.64 653.86 240.28 654.97 239.98L654.97 239.98Z" /><path class="shp2" d="M689.91 239.56C688.81 239.73 687.77 239.92 686.8 240.17C685.94 240.38 685.13 240.62 684.37 240.91C684.6 240.51 684.94 240.11 685.76 239.85C685.11 239.83 684.25 239.54 683.95 239.39C684.27 239.26 685.17 239.03 685.82 239.05C685.04 238.73 684.74 238.33 684.59 237.91C685.27 238.22 685.99 238.48 686.77 238.75C687.73 239.05 688.77 239.33 689.91 239.56L689.91 239.56Z" /><path class="shp2" d="M701.47 240.6C700.36 240.68 699.32 240.79 698.34 240.96C697.48 241.11 696.65 241.3 695.86 241.51C696.12 241.13 696.49 240.77 697.34 240.57C696.67 240.51 695.84 240.15 695.54 239.98C695.88 239.86 696.77 239.69 697.44 239.79C696.69 239.41 696.4 238.97 696.26 238.56C696.93 238.9 697.63 239.22 698.39 239.54C699.34 239.92 700.36 240.28 701.47 240.6L701.47 240.6Z" /><path class="shp3" d="M675.27 242.04C657.36 242.04 646.51 243.16 647.41 244.01C653.69 246.83 666.05 247.74 675.27 247.76C684.46 247.74 696.83 246.83 703.1 244.01C704 243.16 693.15 242.04 675.27 242.04Z" /><g ><path class="shp4" d="M703.07 244.07C703.23 243.61 702.52 243.48 701.78 243.39C698.92 242.99 695.74 242.72 692.9 242.5C688.47 242.19 684.01 242.1 679.54 242.04L675.27 242.04L670.97 242.04C666.51 242.1 662.04 242.19 657.61 242.5C654.78 242.72 651.59 242.99 648.73 243.39C647.99 243.48 647.29 243.61 647.44 244.07" /><path class="shp4" d="M670.97 236.55C666.51 236.61 662.04 236.7 657.61 237C654.34 237.27 650.61 237.57 647.43 238.07L646.62 238.22C644.61 238.63 644.33 241.21 645.39 242.61C647.53 245.51 660.25 247.76 675.27 247.76C690.27 247.76 702.98 245.51 705.13 242.61C706.18 241.21 705.9 238.63 703.9 238.22L703.09 238.07C699.92 237.57 696.18 237.27 692.9 237C688.47 236.7 684.01 236.61 679.54 236.55L675.27 236.55L670.97 236.55Z" /></g></g><g ><path fill-rule="evenodd" class="shp5" d="M699.39 232.31L701.56 225.5L702.43 222.69L704.59 221.24L706.79 215.87L707.82 214.47L707.98 209.52C707.98 209.52 706.46 206.01 704.12 204.75C700.77 202.95 696.21 203.2 696.21 203.2C696.21 203.2 695.16 200.2 693.23 199.04C691.31 197.87 689.16 197.59 686.92 197.59C684.67 197.59 680.63 199.76 678.45 200.39C677.32 200.72 674.76 201.84 674.76 201.84C674.76 201.84 672.2 200.72 671.06 200.39C668.88 199.76 664.85 197.59 662.6 197.59C660.35 197.59 658.28 197.83 656.28 199.04C654.42 200.16 651.87 203.2 651.87 203.2C651.87 203.2 648.95 202.77 646.9 204.1C644.34 205.76 642.53 209.25 642.53 209.25L642.71 214.65L643.11 216.72L644.77 218.77L646.92 222.9L648.47 226.98L650.12 232.31L699.39 232.31Z" /><path class="shp6" d="M699.39 232.31L701.56 225.5L702.43 222.69L704.59 221.24L706.79 215.87L707.82 214.47L707.98 209.52C707.98 209.52 706.46 206.01 704.12 204.75C700.77 202.95 696.21 203.2 696.21 203.2C696.21 203.2 695.16 200.2 693.23 199.04C691.31 197.87 689.16 197.59 686.92 197.59C684.67 197.59 680.63 199.76 678.45 200.39C677.32 200.72 674.76 201.84 674.76 201.84C674.76 201.84 672.2 200.72 671.06 200.39C668.88 199.76 664.85 197.59 662.6 197.59C660.35 197.59 658.28 197.83 656.28 199.04C654.42 200.16 651.87 203.2 651.87 203.2C651.87 203.2 648.95 202.77 646.9 204.1C644.34 205.76 642.53 209.25 642.53 209.25L642.71 214.65L643.11 216.72L644.77 218.77L646.92 222.9L648.47 226.98L650.12 232.31L699.39 232.31Z" /></g><g ><g ><g ><path class="shp7" d="M674.84 187.85C685.23 187.55 699.62 192.09 711.46 207.99L708.8 210.28C697.6 195.24 684.33 191.24 674.93 191.51L674.84 187.85Z" /><g ><path class="shp6" d="M674.84 187.85C685.23 187.55 699.62 192.09 711.46 207.99L708.8 210.28C697.6 195.24 684.33 191.24 674.93 191.51L674.84 187.85Z" /><g ><path class="shp8" d="M710.27 206.74C711.28 206.74 712.09 205.85 712.09 204.75C712.09 203.64 711.28 202.75 710.27 202.75C709.26 202.75 708.44 203.64 708.44 204.75C708.44 205.85 709.26 206.74 710.27 206.74Z" /><path class="shp8" d="M707.12 203.06C708.13 203.06 708.95 202.17 708.95 201.06C708.95 199.96 708.13 199.06 707.12 199.06C706.12 199.06 705.3 199.96 705.3 201.06C705.3 202.17 706.12 203.06 707.12 203.06Z" /><path class="shp8" d="M682.63 189.43C683.64 189.43 684.45 188.54 684.45 187.43C684.45 186.33 683.64 185.44 682.63 185.44C681.62 185.44 680.8 186.33 680.8 187.43C680.8 188.54 681.62 189.43 682.63 189.43Z" /><path class="shp8" d="M703.41 199.61C704.42 199.61 705.23 198.72 705.23 197.61C705.23 196.51 704.42 195.61 703.41 195.61C702.4 195.61 701.58 196.51 701.58 197.61C701.58 198.72 702.4 199.61 703.41 199.61Z" /><path class="shp8" d="M699.59 196.58C700.6 196.58 701.42 195.68 701.42 194.58C701.42 193.47 700.6 192.58 699.59 192.58C698.58 192.58 697.77 193.47 697.77 194.58C697.77 195.68 698.58 196.58 699.59 196.58Z" /><path class="shp8" d="M695.52 194.02C696.53 194.02 697.34 193.12 697.34 192.02C697.34 190.91 696.53 190.02 695.52 190.02C694.51 190.02 693.69 190.91 693.69 192.02C693.69 193.12 694.51 194.02 695.52 194.02Z" /><path class="shp8" d="M687.25 190.52C688.26 190.52 689.07 189.62 689.07 188.52C689.07 187.42 688.26 186.52 687.25 186.52C686.24 186.52 685.42 187.42 685.42 188.52C685.42 189.62 686.24 190.52 687.25 190.52Z" /><path class="shp8" d="M691.43 192.1C692.44 192.1 693.26 191.2 693.26 190.1C693.26 188.99 692.44 188.1 691.43 188.1C690.43 188.1 689.61 188.99 689.61 190.1C689.61 191.2 690.43 192.1 691.43 192.1Z" /></g></g></g><path class="shp9" d="M675.66 187.85C665.27 187.55 650.88 192.09 639.04 207.99L641.7 210.28C652.9 195.24 666.17 191.24 675.57 191.51L675.66 187.85Z" /><g ><path class="shp10" d="M675.66 187.85C665.27 187.55 650.88 192.09 639.04 207.99L641.7 210.28C652.9 195.24 666.17 191.24 675.57 191.51L675.66 187.85Z" /><g ><path class="shp8" d="M640.23 206.74C639.22 206.74 638.41 205.85 638.41 204.75C638.41 203.64 639.22 202.75 640.23 202.75C641.24 202.75 642.06 203.64 642.06 204.75C642.06 205.85 641.24 206.74 640.23 206.74Z" /><path class="shp8" d="M643.38 203.06C642.37 203.06 641.55 202.17 641.55 201.06C641.55 199.96 642.37 199.06 643.38 199.06C644.38 199.06 645.2 199.96 645.2 201.06C645.2 202.17 644.38 203.06 643.38 203.06Z" /><path class="shp8" d="M667.87 189.43C666.86 189.43 666.05 188.54 666.05 187.43C666.05 186.33 666.86 185.44 667.87 185.44C668.88 185.44 669.7 186.33 669.7 187.43C669.7 188.54 668.88 189.43 667.87 189.43Z" /><path class="shp8" d="M647.09 199.61C646.08 199.61 645.27 198.72 645.27 197.61C645.27 196.51 646.08 195.61 647.09 195.61C648.1 195.61 648.92 196.51 648.92 197.61C648.92 198.72 648.1 199.61 647.09 199.61Z" /><path class="shp8" d="M650.91 196.58C649.9 196.58 649.08 195.68 649.08 194.58C649.08 193.47 649.9 192.58 650.91 192.58C651.92 192.58 652.73 193.47 652.73 194.58C652.73 195.68 651.92 196.58 650.91 196.58Z" /><path class="shp8" d="M654.98 194.02C653.97 194.02 653.16 193.12 653.16 192.02C653.16 190.91 653.97 190.02 654.98 190.02C655.99 190.02 656.81 190.91 656.81 192.02C656.81 193.12 655.99 194.02 654.98 194.02Z" /><path class="shp8" d="M663.25 190.52C662.24 190.52 661.43 189.62 661.43 188.52C661.43 187.42 662.24 186.52 663.25 186.52C664.26 186.52 665.08 187.42 665.08 188.52C665.08 189.62 664.26 190.52 663.25 190.52Z" /><path class="shp8" d="M659.07 192.1C658.06 192.1 657.24 191.2 657.24 190.1C657.24 188.99 658.06 188.1 659.07 188.1C660.07 188.1 660.89 188.99 660.89 190.1C660.89 191.2 660.07 192.1 659.07 192.1Z" /></g></g></g><g ><path class="shp10" d="M670.82 178.43C671.32 177.76 671.9 177.26 672.38 176.58C672.88 175.86 673.27 174.95 673.46 174.03C672.59 174.27 671.75 174.68 671.08 175.22C670.45 175.73 669.98 176.37 669.36 176.9L669.36 168.29C669.98 168.82 670.45 169.46 671.08 169.97C671.75 170.51 672.59 170.92 673.46 171.16C673.27 170.24 672.88 169.33 672.38 168.62C671.9 167.93 671.32 167.43 670.82 166.76L679.68 166.76C679.18 167.43 678.6 167.93 678.12 168.62C677.62 169.33 677.23 170.24 677.04 171.16C677.91 170.92 678.75 170.51 679.42 169.97C680.05 169.46 680.52 168.82 681.14 168.29L681.14 176.9C680.52 176.37 680.05 175.73 679.42 175.22C678.75 174.68 677.91 174.27 677.04 174.03C677.23 174.95 677.62 175.86 678.12 176.58C678.6 177.26 679.18 177.76 679.68 178.43L670.82 178.43Z" /><path class="shp8" d="M675.25 175C674.04 175 673.05 173.92 673.05 172.6C673.05 171.27 674.04 170.19 675.25 170.19C676.46 170.19 677.45 171.27 677.45 172.6C677.45 173.92 676.46 175 675.25 175Z" /><g ><g ><path class="shp7" d="M675.25 189.19C672.49 189.19 670.27 186.79 670.27 183.83C670.27 180.86 672.49 178.46 675.25 178.46C678.01 178.46 680.23 180.86 680.23 183.83C680.23 186.79 678.01 189.19 675.25 189.19Z" /><path class="shp4" d="M675.25 189.19C672.49 189.19 670.27 186.79 670.27 183.83C670.27 180.86 672.49 178.46 675.25 178.46C678.01 178.46 680.23 180.86 680.23 183.83C680.23 186.79 678.01 189.19 675.25 189.19Z" /></g><g ><path class="shp7" d="M674.19 178.05L674.19 182.55L670 182.55L670 184.84L680.5 184.84L680.5 182.55L676.31 182.55L676.31 178.05L674.19 178.05Z" /><path class="shp6" d="M674.19 178.05L674.19 182.55L670 182.55L670 184.84L680.5 184.84L680.5 182.55L676.31 182.55L676.31 178.05L674.19 178.05Z" /></g></g><g ><path class="shp7" d="M671.96 188.08L678.54 188.08L678.54 208.16L671.96 208.16L671.96 188.08Z" /><path class="shp6" d="M671.96 188.08L678.54 188.08L678.54 208.16L671.96 208.16L671.96 188.08Z" /><g ><g ><path class="shp7" d="M670.66 188.06L672.76 188.06L672.76 208.18L670.66 208.18L670.66 188.06Z" /><path class="shp6" d="M671.71 188.06C672.29 188.06 672.76 188.49 672.76 189.03L672.76 207.22C672.76 207.75 672.29 208.18 671.71 208.18C671.13 208.18 670.66 207.75 670.66 207.22L670.66 189.03C670.66 188.49 671.13 188.06 671.71 188.06Z" /></g><g ><path class="shp7" d="M677.74 188.06L679.84 188.06L679.84 208.18L677.74 208.18L677.74 188.06Z" /><path class="shp6" d="M677.74 188.06L679.84 188.06L679.84 208.18L677.74 208.18L677.74 188.06Z" /></g></g></g><g ><path class="shp8" d="M675.25 190.5C674.25 190.5 673.44 189.61 673.44 188.51C673.44 187.41 674.25 186.52 675.25 186.52C676.25 186.52 677.06 187.41 677.06 188.51C677.06 189.61 676.25 190.5 675.25 190.5Z" /><path class="shp8" d="M675.25 194.45C674.25 194.45 673.44 193.56 673.44 192.46C673.44 191.36 674.25 190.47 675.25 190.47C676.25 190.47 677.06 191.36 677.06 192.46C677.06 193.56 676.25 194.45 675.25 194.45Z" /><path class="shp8" d="M675.25 198.4C674.25 198.4 673.44 197.51 673.44 196.42C673.44 195.32 674.25 194.43 675.25 194.43C676.25 194.43 677.06 195.32 677.06 196.42C677.06 197.51 676.25 198.4 675.25 198.4Z" /><path class="shp8" d="M675.25 202.36C674.25 202.36 673.44 201.47 673.44 200.37C673.44 199.27 674.25 198.38 675.25 198.38C676.25 198.38 677.06 199.27 677.06 200.37C677.06 201.47 676.25 202.36 675.25 202.36Z" /><path class="shp8" d="M675.25 206.31C674.25 206.31 673.44 205.42 673.44 204.33C673.44 203.23 674.25 202.34 675.25 202.34C676.25 202.34 677.06 203.23 677.06 204.33C677.06 205.42 676.25 206.31 675.25 206.31Z" /></g><g ><g ><path class="shp7" d="M707.83 216.88C706.09 221.09 704.69 225.19 703.32 229.42L675.16 229.42L647.01 229.42C645.69 225.33 644.33 220.94 642.67 216.88C642.67 216.88 646.17 222.16 648.8 223.44C650.25 224.15 652.08 224.36 653.58 223.78C655.57 223.02 658.21 219.14 658.21 219.14C658.21 219.14 660.59 222.14 662.2 222.92C663.72 223.66 665.49 223.69 667.15 223.61C668.62 223.54 670.25 223.48 671.46 222.58C673.29 221.22 675.13 216.56 675.13 216.56C675.13 216.56 676.91 220.22 678.32 221.55C679.49 222.64 680.96 223.46 682.47 223.78C683.99 224.11 685.65 224 687.1 223.44C689.07 222.67 692.21 219.49 692.21 219.49C692.21 219.49 694.37 222.37 695.88 223.1C697.34 223.8 699.11 224.01 700.67 223.61C702.32 223.19 703.71 221.9 704.98 220.69C706.11 219.61 707.83 216.88 707.83 216.88L707.83 216.88Z" /><path class="shp6" d="M707.83 216.88C706.09 221.09 704.69 225.19 703.32 229.42L695.96 229.42L675.16 229.42L653.69 229.42L647.01 229.42C645.69 225.33 644.33 220.94 642.67 216.88C642.67 216.88 646.17 222.16 648.8 223.44C650.25 224.15 652.08 224.36 653.58 223.78C655.57 223.02 658.21 219.14 658.21 219.14C658.21 219.14 660.59 222.14 662.2 222.92C663.72 223.66 665.49 223.69 667.15 223.61C668.62 223.54 670.25 223.48 671.46 222.58C673.29 221.22 675.13 216.56 675.13 216.56C675.13 216.56 676.91 220.22 678.32 221.55C679.49 222.64 680.96 223.46 682.47 223.78C683.99 224.11 685.65 224 687.1 223.44C689.07 222.67 692.21 219.49 692.21 219.49C692.21 219.49 694.37 222.37 695.88 223.1C697.34 223.8 699.11 224.01 700.67 223.61C702.32 223.19 703.71 221.9 704.98 220.69C706.11 219.61 707.83 216.88 707.83 216.88L707.83 216.88Z" /></g><g ><g ><path class="shp7" d="M675.25 219.26C675.25 219.26 673.97 221.39 673.18 222.12C672.08 223.13 671.36 223.74 669.95 224.22C668.55 224.69 666.58 224.96 665.11 224.88C663.69 224.79 662.22 224.35 660.94 223.68C659.83 223.1 658.05 221.4 658.05 221.4C657.19 222.61 656.09 223.46 655.04 224.08C653.7 224.88 652.38 224.96 650.99 224.88C648.16 224.71 645.53 222.81 643.41 218.96C642.04 215.47 640.47 211.93 638.5 208.22C640.77 207.36 643.41 206.9 646.34 206.75C645.15 210.37 643.91 213.89 644.35 216.81C646.82 214.82 647.61 212.11 648.46 209.43L651.33 220.3C649.59 219.97 650.51 219.58 645.95 218.65C646.86 220.51 648.96 222.8 651.27 223.03C652.82 223.18 653.94 222.66 654.93 221.74C655.64 221.08 656.29 220.2 656.28 219.22C656.27 218.65 656.27 218.09 656.26 217.52C656.26 217.16 655.85 216.64 655.51 216.64C655.19 216.63 655.1 217.19 655.01 217.53C654.84 218.2 655.19 218.94 655.01 219.6C654.82 220.34 654.46 220.92 653.86 221.33C653.36 221.66 652.15 221.74 652.15 221.74L652.53 220.14C652.81 219.01 651.79 218.13 651.54 216.99C651.38 216.26 651.3 215.44 651.54 214.74C651.81 213.98 652.34 213.24 653.03 212.9C653.28 212.78 653.58 212.76 653.86 212.78C654.24 212.81 655.01 213.08 655.01 213.08C655.01 213.08 654.79 211.93 654.85 211.24C654.91 210.4 655.58 208.84 655.95 208.09C656.57 206.86 657.55 205.75 657.66 205.63C657.77 205.74 658.84 206.81 659.54 208C659.96 208.71 660.39 209.74 660.51 210.58C660.61 211.27 660.57 212.72 660.57 212.72C660.57 212.72 661.71 212.22 662.09 212.16C662.37 212.12 662.67 212.11 662.92 212.22C663.63 212.5 664.21 213.2 664.53 213.94C664.82 214.63 664.78 215.45 664.67 216.19C664.5 217.34 663.87 218.24 664.22 219.34L664.71 220.91C664.71 220.91 663.5 220.93 662.98 220.63C662.35 220.27 661.95 219.72 661.71 219C661.49 218.34 661.62 217.55 661.25 216.98C661.08 216.74 660.85 216.46 660.53 216.49C660.19 216.52 659.96 217.11 659.94 217.47L659.88 219C659.86 219.47 660.06 219.96 660.3 220.34C660.87 221.26 661.72 221.83 662.68 222.25C663.71 222.7 664.65 222.88 665.77 222.89C666.71 222.9 668.33 222.74 669.22 222.41C670.31 222.02 670.95 221.51 671.8 220.67C672.27 220.19 672.59 219.5 672.8 218.84C673.04 218.08 672.95 216.76 672.95 216.76C671.87 217.2 670.92 217.8 670.07 218.5C669.11 219.28 668.27 220.2 667.47 221.17L667.4 208.03C668.53 209.38 669.35 210.58 670.48 211.59C671.43 212.44 671.92 212.77 672.88 213.1C672.6 212.05 672.51 211.4 671.81 210.35C670.84 208.88 669.89 207.31 668.71 205.84C670.88 205.45 673.05 205.35 675.25 205.35C677.45 205.35 679.62 205.45 681.79 205.84C680.61 207.31 679.66 208.88 678.69 210.35C677.99 211.4 677.9 212.05 677.62 213.1C678.58 212.77 679.07 212.44 680.02 211.59C681.15 210.58 681.97 209.38 683.1 208.03L683.03 221.17C682.23 220.2 681.39 219.28 680.43 218.5C679.58 217.8 678.63 217.2 677.55 216.76C677.55 216.76 677.46 218.08 677.7 218.84C677.91 219.5 678.23 220.19 678.7 220.67C679.55 221.51 680.19 222.02 681.28 222.41C682.17 222.74 683.79 222.9 684.73 222.89C685.85 222.88 686.79 222.7 687.82 222.25C688.78 221.83 689.63 221.26 690.2 220.34C690.44 219.96 690.64 219.47 690.62 219L690.56 217.47C690.54 217.11 690.31 216.52 689.97 216.49C689.65 216.46 689.42 216.74 689.25 216.98C688.88 217.55 689.01 218.34 688.79 219C688.55 219.72 688.15 220.27 687.52 220.63C687 220.93 685.79 220.91 685.79 220.91L686.28 219.34C686.63 218.24 686 217.34 685.83 216.19C685.72 215.45 685.68 214.63 685.97 213.94C686.29 213.2 686.87 212.5 687.58 212.22C687.83 212.11 688.13 212.12 688.41 212.16C688.79 212.22 689.93 212.72 689.93 212.72C689.93 212.72 689.89 211.27 689.99 210.58C690.11 209.74 690.54 208.71 690.96 208C691.66 206.81 692.73 205.74 692.84 205.63C692.95 205.75 693.93 206.86 694.55 208.09C694.92 208.84 695.59 210.4 695.65 211.24C695.71 211.93 695.49 213.08 695.49 213.08C695.49 213.08 696.26 212.81 696.64 212.78C696.92 212.76 697.22 212.78 697.47 212.9C698.16 213.24 698.69 213.98 698.96 214.74C699.2 215.44 699.12 216.26 698.96 216.99C698.71 218.13 697.7 219.01 697.97 220.14L698.35 221.74C698.35 221.74 697.15 221.66 696.64 221.33C696.04 220.92 695.68 220.34 695.49 219.6C695.32 218.94 695.66 218.2 695.49 217.53C695.4 217.19 695.31 216.63 694.99 216.64C694.66 216.64 694.24 217.16 694.24 217.52C694.23 218.09 694.23 218.65 694.22 219.22C694.21 220.2 694.86 221.08 695.57 221.74C696.56 222.66 697.68 223.18 699.23 223.03C701.54 222.8 703.64 220.51 704.55 218.65C699.99 219.58 700.91 219.97 699.17 220.3L702.04 209.43C702.89 212.11 703.68 214.82 706.15 216.81C706.59 213.89 705.35 210.37 704.16 206.75C707.09 206.9 709.73 207.36 712 208.22C710.03 211.93 708.46 215.47 707.09 218.96C704.97 222.81 702.34 224.71 699.51 224.88C698.12 224.96 696.8 224.88 695.46 224.08C694.41 223.46 693.31 222.61 692.45 221.4C692.45 221.4 690.67 223.1 689.56 223.68C688.28 224.35 686.81 224.79 685.39 224.88C683.92 224.96 681.95 224.69 680.55 224.22C679.14 223.74 678.42 223.13 677.32 222.12C676.53 221.39 675.25 219.26 675.25 219.26L675.25 219.26Z" /><path class="shp7" d="M650.99 224.88C648.16 224.71 645.53 222.81 643.41 218.96C642.04 215.47 640.47 211.93 638.5 208.22C640.77 207.36 643.41 206.9 646.34 206.75C645.15 210.37 643.91 213.89 644.35 216.81C646.82 214.82 647.61 212.11 648.46 209.43L651.33 220.3C649.59 219.97 650.51 219.58 645.95 218.65C646.86 220.51 648.96 222.8 651.27 223.03L650.99 224.88ZM699.23 223.03C701.54 222.8 703.64 220.51 704.55 218.65C699.99 219.58 700.91 219.97 699.17 220.3L702.04 209.43C702.89 212.11 703.68 214.82 706.15 216.81C706.59 213.89 705.35 210.37 704.16 206.75C707.09 206.9 709.73 207.36 712 208.22C710.03 211.93 708.46 215.47 707.09 218.96C704.97 222.81 702.34 224.71 699.51 224.88L699.46 224.98L699.23 223.03Z" /><path class="shp7" d="M665.11 224.88C663.69 224.79 662.22 224.35 660.94 223.68C659.83 223.1 658.05 221.4 658.05 221.4C657.19 222.61 656.09 223.46 655.04 224.08C653.7 224.88 652.38 224.96 650.99 224.88L650.94 225.4L651.27 223.03C652.82 223.18 653.94 222.66 654.93 221.74C655.64 221.08 656.29 220.2 656.28 219.22C656.27 218.65 656.27 218.09 656.26 217.52C656.26 217.16 655.85 216.64 655.51 216.64C655.19 216.63 655.1 217.19 655.01 217.53C654.84 218.2 655.19 218.94 655.01 219.6C654.82 220.34 654.46 220.92 653.86 221.33C653.36 221.66 652.15 221.74 652.15 221.74L652.53 220.14C652.81 219.01 651.79 218.13 651.54 216.99C651.38 216.26 651.3 215.44 651.54 214.74C651.81 213.98 652.34 213.24 653.03 212.9C653.28 212.78 653.58 212.76 653.86 212.78C654.24 212.81 655.01 213.08 655.01 213.08C655.01 213.08 654.79 211.93 654.85 211.24C654.91 210.4 655.58 208.84 655.95 208.09C656.57 206.86 657.55 205.75 657.66 205.63C657.77 205.74 658.84 206.81 659.54 208C659.96 208.71 660.39 209.74 660.51 210.58C660.61 211.27 660.57 212.72 660.57 212.72C660.57 212.72 661.71 212.22 662.09 212.16C662.37 212.12 662.67 212.11 662.92 212.22C663.63 212.5 664.21 213.2 664.53 213.94C664.82 214.63 664.78 215.45 664.67 216.19C664.5 217.34 663.87 218.24 664.22 219.34L664.71 220.91C664.71 220.91 663.5 220.93 662.98 220.63C662.35 220.27 661.95 219.72 661.71 219C661.49 218.34 661.62 217.55 661.25 216.98C661.08 216.74 660.85 216.46 660.53 216.49C660.19 216.52 659.96 217.11 659.94 217.47L659.88 219C659.86 219.47 660.06 219.96 660.3 220.34C660.87 221.26 661.72 221.83 662.68 222.25C663.71 222.7 664.65 222.88 665.77 222.89L665.11 224.88Z" /><path class="shp7" d="M675.25 214.75L677.01 217L677.86 220.69L680.36 222.58L684.01 223.44L687.66 222.96L690.46 221.02L690.86 218.92L693.71 219.02L694.26 221.29L697.16 223.39L699.76 223.55L702.96 221.72L704.71 219.24L706.61 219.89L704.71 222.26L702.61 224.03L701.01 224.63L699.81 224.84L698.26 224.84L697.01 224.68L695.81 224.36L694.36 223.39L692.46 221.5L690.71 222.85L689.01 223.93L686.81 224.73L684.61 224.9L682.01 224.63L679.76 223.93L677.61 222.42L675.91 220.32L675.25 219.24L674.58 220.32L672.88 222.42L670.73 223.93L668.48 224.63L665.88 224.9L663.68 224.73L661.48 223.93L659.78 222.85L658.03 221.5L656.13 223.39L654.68 224.36L653.48 224.68L652.23 224.84L650.68 224.84L649.48 224.63L647.88 224.03L645.78 222.26L643.88 219.89L645.78 219.24L647.53 221.72L650.73 223.55L653.33 223.39L656.23 221.29L656.78 219.02L659.63 218.92L660.03 221.02L662.83 222.96L666.48 223.44L670.13 222.58L672.63 220.69L673.48 216.77L675.25 214.75Z" /></g><path fill-rule="evenodd" class="shp2" d="M693.1 219.12C693.06 218.4 693.29 217.17 693.29 217.17C693.41 216.55 693.9 215.9 694.5 215.66C694.83 215.53 695.23 215.48 695.58 215.67C695.79 215.78 695.96 215.87 696.1 216.03C696.25 216.19 696.33 216.4 696.43 216.69C696.57 217.13 696.51 217.58 696.44 217.97C696.32 218.61 696.33 219.17 696.5 219.61C696.62 219.91 696.86 220.14 697.17 220.34C697.11 220.12 697.07 220.02 697.04 219.77C696.99 219.41 697.05 219.04 697.18 218.71C697.4 218.15 697.71 217.7 697.92 217.2C698.11 216.73 698.22 216.19 698.18 215.68C698.16 215.26 698.04 214.83 697.82 214.52C697.58 214.2 697.21 213.93 696.84 213.85C696.52 213.78 695.98 213.9 695.55 214.05C695.12 214.2 694.8 214.37 694.8 214.37L694.42 214.56L694.48 214.11C694.7 212.61 694.9 211.85 694.48 210.45C694.31 209.87 694.02 209.23 693.53 208.5C693.29 208.14 693.03 207.71 692.73 207.31C691.94 208.28 691.39 209.26 691.08 210.25C690.73 211.33 690.72 212.76 690.8 213.92L690.83 214.38L690.47 214.15C690.47 214.15 690.05 213.87 689.55 213.61C689.05 213.35 688.44 213.13 688.18 213.15C687.69 213.2 687.36 213.45 687.05 213.88C686.78 214.26 686.72 214.58 686.67 215.09C686.63 215.42 686.71 216.03 686.76 216.42C686.81 216.89 687.07 217.37 687.14 217.96C687.16 218.16 687.22 218.31 687.26 218.5C687.3 218.68 687.32 218.9 687.28 219.16C687.24 219.34 687.19 219.47 687.13 219.69C687.25 219.62 687.34 219.59 687.41 219.54C687.65 219.35 687.74 219.02 687.9 218.62C687.99 218.4 688 218.21 688.01 217.98C688.03 217.75 688.04 217.48 688.14 217.18C688.33 216.67 688.55 216.07 689.03 215.7C689.42 215.39 689.95 215.31 690.41 215.46C690.68 215.55 690.88 215.73 691.02 215.94C691.16 216.15 691.25 216.38 691.35 216.61C691.48 216.9 691.55 217.33 691.61 217.72C691.67 218.1 691.7 218.43 691.7 218.43L691.71 218.46L691.7 218.5L691.37 219.71L690.94 219.6L691.26 218.45C691.26 218.43 691.23 218.15 691.17 217.8C691.12 217.43 691.03 216.99 690.95 216.81C690.85 216.58 690.76 216.37 690.66 216.22C690.56 216.07 690.46 215.97 690.28 215.92C689.96 215.81 689.55 215.87 689.28 216.08C688.94 216.35 688.73 216.85 688.55 217.36C688.47 217.58 688.46 217.78 688.45 218.01C688.44 218.24 688.43 218.51 688.32 218.8C688.17 219.17 688.05 219.62 687.67 219.92C687.38 220.14 686.86 220.36 686.86 220.36L686.41 220.56L686.57 220.06C686.57 220.06 686.8 219.33 686.84 219.07C686.88 218.9 686.86 218.77 686.83 218.61C686.79 218.45 686.73 218.27 686.7 218.02C686.64 217.56 686.39 217.07 686.32 216.48C686.27 216.1 686.18 215.5 686.23 215.04C686.28 214.51 686.37 214.05 686.7 213.59C687.06 213.09 687.52 212.74 688.14 212.68C688.62 212.63 689.22 212.92 689.74 213.19C690.08 213.36 690.18 213.44 690.35 213.54C690.3 212.44 690.32 211.16 690.65 210.09C691.01 208.96 691.63 207.84 692.56 206.76L692.73 206.57L692.89 206.76C693.32 207.26 693.62 207.81 693.89 208.22C694.4 208.99 694.71 209.67 694.9 210.3C695.3 211.64 695.16 212.55 694.97 213.79C695.12 213.72 695.17 213.69 695.42 213.6C695.88 213.44 696.44 213.29 696.92 213.39C697.42 213.49 697.86 213.81 698.17 214.23C698.47 214.64 698.6 215.16 698.63 215.64C698.67 216.25 698.55 216.86 698.32 217.4C698.09 217.96 697.78 218.41 697.58 218.91C697.48 219.16 697.44 219.45 697.47 219.71C697.52 220.1 697.71 220.74 697.71 220.74L697.85 221.18L697.43 221.03C696.75 220.79 696.31 220.34 696.1 219.78C695.88 219.22 695.88 218.57 696.01 217.88C696.07 217.51 696.11 217.14 696.02 216.85C695.93 216.58 695.87 216.45 695.79 216.36C695.71 216.27 695.59 216.21 695.38 216.1C695.19 216 694.89 216.01 694.65 216.11C694.25 216.26 693.77 216.84 693.72 217.25C693.65 217.98 693.46 218.72 693.13 219.18L693.1 219.12ZM705.32 218.42L705.27 218.39C703.54 217.9 701.92 218.41 700.33 219.19L699.84 219.43L700.04 218.89C700.82 216.68 701.4 214.47 701.77 212.26L701.88 211.58L702.18 212.19C703.89 215.69 705.22 216.74 706.54 217.43C706.9 215.2 706.9 212.3 705.12 207.85L704.97 207.5L705.33 207.52C707.41 207.61 709.51 207.86 711.62 208.87L711.44 209.31C709.52 208.39 707.59 208.14 705.65 208.03C707.38 212.54 707.35 215.57 706.94 217.85L706.88 218.15L706.63 218.02C705.26 217.35 703.8 216.26 702.07 212.92C701.73 214.8 701.24 216.68 700.6 218.56C702.18 217.84 703.86 217.37 705.67 217.99L705.92 218.08L705.8 218.32L705.32 218.42ZM645.23 218.39L644.65 218.35L644.7 218.32L644.58 218.08L644.83 217.99C646.64 217.37 648.32 217.84 649.9 218.56C649.26 216.68 648.77 214.81 648.43 212.93C646.71 216.26 645.24 217.35 643.87 218.02L643.61 218.15L643.56 217.85C643.15 215.57 643.12 212.54 644.85 208.03C642.91 208.14 640.98 208.39 639.06 209.31L638.88 208.87C640.99 207.86 643.09 207.61 645.17 207.52L645.52 207.5L645.38 207.85C643.6 212.3 643.59 215.2 643.95 217.43C645.27 216.74 646.61 215.69 648.32 212.19L648.62 211.58L648.73 212.26C649.1 214.47 649.68 216.68 650.46 218.89L650.65 219.43L650.16 219.19C648.57 218.41 646.96 217.9 645.23 218.39L645.23 218.39ZM659.49 219.45L659.19 219.57L659.06 219.55L658.8 218.51L658.79 218.46L658.79 218.43C658.79 218.43 658.83 218.1 658.89 217.72C658.95 217.33 659.02 216.9 659.15 216.61C659.25 216.38 659.33 216.15 659.47 215.94C659.61 215.73 659.82 215.55 660.09 215.46C660.55 215.31 661.08 215.39 661.47 215.7C661.95 216.07 662.17 216.67 662.36 217.18C662.46 217.48 662.47 217.75 662.49 217.98C662.5 218.21 662.51 218.4 662.59 218.62C662.75 219.02 662.85 219.35 663.09 219.54C663.15 219.59 663.24 219.62 663.36 219.69C663.3 219.47 663.25 219.34 663.22 219.16C663.17 218.9 663.2 218.68 663.24 218.5C663.28 218.31 663.34 218.16 663.36 217.96C663.43 217.38 663.68 216.89 663.74 216.42C663.78 216.03 663.87 215.42 663.83 215.09C663.78 214.58 663.72 214.26 663.45 213.89C663.14 213.45 662.81 213.2 662.32 213.15C662.06 213.13 661.44 213.36 660.94 213.61C660.44 213.87 660.03 214.15 660.03 214.15L659.67 214.38L659.69 213.92C659.77 212.77 659.77 211.33 659.42 210.25C659.11 209.26 658.56 208.28 657.77 207.32C657.47 207.71 657.2 208.14 656.96 208.5C656.47 209.23 656.19 209.87 656.02 210.45C655.6 211.85 655.79 212.61 656.01 214.11L656.09 214.56L655.7 214.37C655.7 214.37 655.37 214.2 654.94 214.05C654.51 213.9 653.98 213.78 653.66 213.85C653.29 213.93 652.91 214.2 652.67 214.52C652.45 214.83 652.34 215.26 652.31 215.68C652.27 216.19 652.39 216.73 652.58 217.2C652.79 217.7 653.1 218.15 653.32 218.72C653.45 219.04 653.51 219.41 653.46 219.77C653.43 220.02 653.39 220.12 653.33 220.34C653.64 220.14 653.87 219.91 653.99 219.61C654.16 219.17 654.17 218.61 654.05 217.97C653.98 217.58 653.92 217.13 654.06 216.69C654.16 216.4 654.25 216.19 654.4 216.03C654.54 215.87 654.7 215.78 654.92 215.67C655.27 215.49 655.67 215.53 656 215.66C656.6 215.9 657.08 216.55 657.21 217.17C657.21 217.17 657.43 218.4 657.48 219.19L656.95 219.09C656.99 218.53 656.78 217.27 656.78 217.26C656.78 217.26 656.78 217.25 656.78 217.25C656.69 216.85 656.25 216.26 655.85 216.11C655.61 216.01 655.3 216 655.11 216.1C654.9 216.21 654.79 216.27 654.71 216.36C654.63 216.45 654.57 216.58 654.48 216.85C654.39 217.14 654.43 217.51 654.49 217.88C654.62 218.57 654.62 219.22 654.4 219.78C654.19 220.34 653.75 220.79 653.07 221.03L652.65 221.18L652.79 220.74C652.79 220.74 652.97 220.1 653.02 219.71C653.06 219.45 653.02 219.16 652.92 218.91C652.72 218.41 652.41 217.96 652.18 217.4C651.95 216.86 651.83 216.25 651.87 215.64C651.9 215.16 652.03 214.64 652.33 214.23C652.64 213.81 653.08 213.49 653.58 213.39C654.06 213.29 654.62 213.44 655.08 213.6C655.34 213.69 655.38 213.72 655.53 213.79C655.34 212.55 655.2 211.64 655.6 210.3C655.79 209.67 656.09 208.99 656.6 208.22C656.87 207.81 657.18 207.26 657.61 206.76L657.77 206.57L657.94 206.76C658.87 207.84 659.49 208.96 659.85 210.09C660.18 211.16 660.2 212.44 660.15 213.54C660.32 213.44 660.42 213.36 660.76 213.19C661.28 212.92 661.88 212.63 662.36 212.68C662.98 212.74 663.44 213.09 663.8 213.59C664.13 214.05 664.22 214.51 664.27 215.04C664.32 215.5 664.22 216.1 664.18 216.48C664.1 217.07 663.85 217.56 663.79 218.02C663.76 218.27 663.71 218.45 663.67 218.61C663.64 218.77 663.62 218.9 663.66 219.07C663.7 219.33 663.93 220.06 663.93 220.06L664.09 220.56L663.64 220.36C663.64 220.36 663.12 220.14 662.83 219.92C662.45 219.62 662.33 219.17 662.19 218.8C662.07 218.51 662.06 218.24 662.05 218.01C662.04 217.78 662.03 217.58 661.95 217.36C661.77 216.85 661.55 216.34 661.21 216.08C660.94 215.87 660.54 215.81 660.22 215.92C660.04 215.97 659.94 216.07 659.84 216.22C659.74 216.37 659.65 216.57 659.55 216.81C659.47 216.99 659.37 217.43 659.32 217.8C659.27 218.14 659.24 218.38 659.24 218.43L659.49 219.45L659.49 219.45ZM676.3 215.57L676.31 215.28L676.58 215.35C677.81 215.68 678.76 216.13 679.54 216.63C680.54 217.27 681.27 217.98 682.04 218.67L682.17 210.77C681.52 211.55 680.9 212.39 679.99 213.06C679.25 213.61 677.86 214.33 676.55 214.49L676.25 214.52L676.31 214.2C676.49 213.31 676.49 212.69 676.9 211.64C677.3 210.64 678.13 209.19 679.78 206.76C678.35 206.59 677.11 206.4 675.25 206.4C673.39 206.4 672.15 206.59 670.72 206.76C672.37 209.19 673.2 210.64 673.6 211.64C674.01 212.69 674.01 213.31 674.19 214.2L674.26 214.52L673.95 214.49C672.64 214.33 671.25 213.61 670.51 213.06C669.61 212.4 668.98 211.56 668.33 210.78L668.46 218.66C669.23 217.98 669.97 217.27 670.96 216.63C671.74 216.13 672.68 215.68 673.91 215.35L674.19 215.28L674.19 215.57L673.74 215.91C672.7 216.23 671.87 216.61 671.18 217.04C670.09 217.74 669.3 218.56 668.37 219.35L668.03 219.65L668.02 219.17L667.88 210.16L667.86 209.56L668.25 209.98C669.11 210.91 669.75 211.93 670.75 212.67C671.37 213.13 672.58 213.74 673.69 213.95C673.57 213.23 673.52 212.67 673.18 211.82C672.79 210.83 671.99 209.37 670.15 206.7L669.93 206.37L670.31 206.33C671.89 206.15 673.19 205.92 675.25 205.92L675.25 205.92C677.3 205.92 678.6 206.15 680.18 206.33L680.57 206.37L680.35 206.7C678.51 209.37 677.7 210.83 677.31 211.82C676.97 212.67 676.93 213.23 676.81 213.96C677.92 213.74 679.12 213.13 679.74 212.67C680.74 211.93 681.39 210.91 682.25 209.98L682.63 209.56L682.62 210.16L682.48 219.17L682.48 219.65L682.12 219.35C681.19 218.56 680.41 217.74 679.32 217.04C678.63 216.61 677.8 216.23 676.76 215.92L676.3 215.57Z" /><path class="shp6" d="M675.25 219.26C675.25 219.26 673.97 221.39 673.18 222.12C672.08 223.13 671.36 223.74 669.95 224.22C668.55 224.69 666.58 224.96 665.11 224.88C663.69 224.79 662.22 224.35 660.94 223.68C659.83 223.1 658.05 221.4 658.05 221.4C657.19 222.61 656.09 223.46 655.04 224.08C653.7 224.88 652.38 224.96 650.99 224.88C648.16 224.71 645.53 222.81 643.41 218.96C642.04 215.47 640.47 211.93 638.5 208.22C640.77 207.36 643.41 206.9 646.34 206.75C645.15 210.37 643.91 213.89 644.35 216.81C646.82 214.82 647.61 212.11 648.46 209.43L651.33 220.3C649.59 219.97 650.51 219.58 645.95 218.65C646.86 220.51 648.96 222.8 651.27 223.03C652.82 223.18 653.94 222.66 654.93 221.74C655.64 221.08 656.29 220.2 656.28 219.22C656.27 218.65 656.27 218.09 656.26 217.52C656.26 217.16 655.85 216.64 655.51 216.64C655.19 216.63 655.1 217.19 655.01 217.53C654.84 218.2 655.19 218.94 655.01 219.6C654.82 220.34 654.46 220.92 653.86 221.33C653.36 221.66 652.15 221.74 652.15 221.74L652.53 220.14C652.81 219.01 651.79 218.13 651.54 216.99C651.38 216.26 651.3 215.44 651.54 214.74C651.81 213.98 652.34 213.24 653.03 212.9C653.28 212.78 653.58 212.76 653.86 212.78C654.24 212.81 655.01 213.08 655.01 213.08C655.01 213.08 654.79 211.93 654.85 211.24C654.91 210.4 655.58 208.84 655.95 208.09C656.57 206.86 657.55 205.75 657.66 205.63C657.77 205.74 658.84 206.81 659.54 208C659.96 208.71 660.39 209.74 660.51 210.58C660.61 211.27 660.57 212.72 660.57 212.72C660.57 212.72 661.71 212.22 662.09 212.16C662.37 212.12 662.67 212.11 662.92 212.22C663.63 212.5 664.21 213.2 664.53 213.94C664.82 214.63 664.78 215.45 664.67 216.19C664.5 217.34 663.87 218.24 664.22 219.34L664.71 220.91C664.71 220.91 663.5 220.93 662.98 220.63C662.35 220.27 661.95 219.72 661.71 219C661.49 218.34 661.62 217.55 661.25 216.98C661.08 216.74 660.85 216.46 660.53 216.49C660.19 216.52 659.96 217.11 659.94 217.47L659.88 219C659.86 219.47 660.06 219.96 660.3 220.34C660.87 221.26 661.72 221.83 662.68 222.25C663.71 222.7 664.65 222.88 665.77 222.89C666.71 222.9 668.33 222.74 669.22 222.41C670.31 222.02 670.95 221.51 671.8 220.67C672.27 220.19 672.59 219.5 672.8 218.84C673.04 218.08 672.95 216.76 672.95 216.76C671.87 217.2 670.92 217.8 670.07 218.5C669.11 219.28 668.27 220.2 667.47 221.17L667.4 208.03C668.53 209.38 669.35 210.58 670.48 211.59C671.43 212.44 671.92 212.77 672.88 213.1C672.6 212.05 672.51 211.4 671.81 210.35C670.84 208.88 669.89 207.31 668.71 205.84C670.88 205.45 673.05 205.35 675.25 205.35C677.45 205.35 679.62 205.45 681.79 205.84C680.61 207.31 679.66 208.88 678.69 210.35C677.99 211.4 677.9 212.05 677.62 213.1C678.58 212.77 679.07 212.44 680.02 211.59C681.15 210.58 681.97 209.38 683.1 208.03L683.03 221.17C682.23 220.2 681.39 219.28 680.43 218.5C679.58 217.8 678.63 217.2 677.55 216.76C677.55 216.76 677.46 218.08 677.7 218.84C677.91 219.5 678.23 220.19 678.7 220.67C679.55 221.51 680.19 222.02 681.28 222.41C682.17 222.74 683.79 222.9 684.73 222.89C685.85 222.88 686.79 222.7 687.82 222.25C688.78 221.83 689.63 221.26 690.2 220.34C690.44 219.96 690.64 219.47 690.62 219L690.56 217.47C690.54 217.11 690.31 216.52 689.97 216.49C689.65 216.46 689.42 216.74 689.25 216.98C688.88 217.55 689.01 218.34 688.79 219C688.55 219.72 688.15 220.27 687.52 220.63C687 220.93 685.79 220.91 685.79 220.91L686.28 219.34C686.63 218.24 686 217.34 685.83 216.19C685.72 215.45 685.68 214.63 685.97 213.94C686.29 213.2 686.87 212.5 687.58 212.22C687.83 212.11 688.13 212.12 688.41 212.16C688.79 212.22 689.93 212.72 689.93 212.72C689.93 212.72 689.89 211.27 689.99 210.58C690.11 209.74 690.54 208.71 690.96 208C691.66 206.81 692.73 205.74 692.84 205.63C692.95 205.75 693.93 206.86 694.55 208.09C694.92 208.84 695.59 210.4 695.65 211.24C695.71 211.93 695.49 213.08 695.49 213.08C695.49 213.08 696.26 212.81 696.64 212.78C696.92 212.76 697.22 212.78 697.47 212.9C698.16 213.24 698.69 213.98 698.96 214.74C699.2 215.44 699.12 216.26 698.96 216.99C698.71 218.13 697.7 219.01 697.97 220.14L698.35 221.74C698.35 221.74 697.15 221.66 696.64 221.33C696.04 220.92 695.68 220.34 695.49 219.6C695.32 218.94 695.66 218.2 695.49 217.53C695.4 217.19 695.31 216.63 694.99 216.64C694.66 216.64 694.24 217.16 694.24 217.52C694.23 218.09 694.23 218.65 694.22 219.22C694.21 220.2 694.86 221.08 695.57 221.74C696.56 222.66 697.68 223.18 699.23 223.03C701.54 222.8 703.64 220.51 704.55 218.65C699.99 219.58 700.91 219.97 699.17 220.3L702.04 209.43C702.89 212.11 703.68 214.82 706.15 216.81C706.59 213.89 705.35 210.37 704.16 206.75C707.09 206.9 709.73 207.36 712 208.22C710.03 211.93 708.46 215.47 707.09 218.96C704.97 222.81 702.34 224.71 699.51 224.88C698.12 224.96 696.8 224.88 695.46 224.08C694.41 223.46 693.31 222.61 692.45 221.4C692.45 221.4 690.67 223.1 689.56 223.68C688.28 224.35 686.81 224.79 685.39 224.88C683.92 224.96 681.95 224.69 680.55 224.22C679.14 223.74 678.42 223.13 677.32 222.12C676.53 221.39 675.25 219.26 675.25 219.26L675.25 219.26Z" /></g></g><g ><path class="shp8" d="M675.25 217.03C674.15 217.03 673.25 216.06 673.25 214.85C673.25 213.64 674.15 212.66 675.25 212.66C676.35 212.66 677.25 213.64 677.25 214.85C677.25 216.06 676.35 217.03 675.25 217.03Z" /><path class="shp8" d="M643.67 220.04C642.57 220.04 641.68 219.06 641.68 217.85C641.68 216.65 642.57 215.67 643.67 215.67C644.78 215.67 645.67 216.65 645.67 217.85C645.67 219.06 644.78 220.04 643.67 220.04Z" /><path class="shp8" d="M706.83 220.04C707.93 220.04 708.82 219.06 708.82 217.85C708.82 216.65 707.93 215.67 706.83 215.67C705.72 215.67 704.83 216.65 704.83 217.85C704.83 219.06 705.72 220.04 706.83 220.04Z" /></g><g ><g ><path class="shp7" d="M656.03 218.08L660.42 217.82L661.04 218.85L660.52 219.95L656.14 220.21L655.38 219.18L656.03 218.08Z" /><path class="shp6" d="M656.03 218.08L660.42 217.82L661.04 218.85L660.52 219.95L656.14 220.21L655.38 219.18L656.03 218.08Z" /></g><g ><path class="shp7" d="M694.47 218.08L690.08 217.82L689.46 218.85L689.98 219.95L694.36 220.21L695.12 219.18L694.47 218.08Z" /><path class="shp6" d="M694.47 218.08L690.08 217.82L689.46 218.85L689.98 219.95L694.36 220.21L695.12 219.18L694.47 218.08Z" /></g></g><g ><path fill-rule="evenodd" class="shp7" d="M647.55 236.42C647.55 236.42 650.68 236.18 656.2 235.84C661.72 235.51 667.64 235.33 670.66 235.33L679.85 235.33C682.78 235.33 688.83 235.51 694.31 235.84C699.79 236.18 702.9 236.46 702.9 236.46L704.82 227.22C704.82 227.22 685.14 225.31 675.26 225.31C665.37 225.31 645.69 227.22 645.69 227.22L647.55 236.42Z" /><path class="shp6" d="M675.13 225.41C685.01 225.4 694.89 225.98 704.72 227.15L702.92 236.48C693.14 235.53 685.13 235.28 675.24 235.2M675.37 225.41C665.49 225.4 655.61 225.98 645.78 227.15L647.58 236.48C657.36 235.53 665.37 235.28 675.26 235.2" /></g><g ><path class="shp9" d="M656.11 225.63L656.1 225.64L656.09 225.64C652.58 225.91 648.52 226.21 644.97 226.73C644.47 227.37 644.42 227.96 645.34 228.43C648.74 227.93 652.76 227.63 656.28 227.36C661.04 227.06 665.85 226.87 670.65 226.82L679.84 226.82C682.71 226.82 688.77 227.01 694.22 227.36C699.64 227.72 705.17 228.43 705.17 228.43C706.12 227.91 706.01 227.33 705.5 226.73C705.5 226.73 699.91 225.99 694.38 225.63C688.87 225.27 682.82 225.09 679.84 225.09L670.65 225.09C665.79 225.1 660.95 225.35 656.11 225.63Z" /><path class="shp11" d="M656.11 225.63L656.1 225.64L656.09 225.64C652.58 225.91 648.52 226.21 644.97 226.73C644.47 227.37 644.42 227.96 645.34 228.43C648.74 227.93 652.76 227.63 656.28 227.36C661.04 227.06 665.85 226.87 670.65 226.82L679.84 226.82C682.71 226.82 688.77 227.01 694.22 227.36C699.64 227.72 705.17 228.43 705.17 228.43C706.12 227.91 706.01 227.33 705.5 226.73C705.5 226.73 699.91 225.99 694.38 225.63C688.87 225.27 682.82 225.09 679.84 225.09L670.65 225.09C665.79 225.1 660.95 225.35 656.11 225.63Z" /></g><g ><path class="shp9" d="M657.45 235.26L657.45 235.27L657.44 235.27C654.17 235.54 650.39 235.83 647.09 236.36C646.63 237 646.59 237.59 647.44 238.06C650.6 237.56 654.34 237.26 657.61 236.99C662.04 236.69 666.51 236.5 670.97 236.45L679.52 236.45C682.19 236.45 687.82 236.64 692.89 236.99C697.93 237.34 703.07 238.06 703.07 238.06C703.95 237.54 703.85 236.96 703.38 236.36C703.38 236.36 698.18 235.62 693.04 235.26C687.92 234.9 682.29 234.72 679.52 234.72L670.97 234.72C666.46 234.73 661.95 234.98 657.45 235.26Z" /><path class="shp10" d="M657.45 235.26L657.45 235.27L657.44 235.27C654.17 235.54 650.39 235.83 647.09 236.36C646.63 237 646.59 237.59 647.44 238.06C650.6 237.56 654.34 237.26 657.61 236.99C662.04 236.69 666.51 236.6 670.97 236.55L679.52 236.55C682.19 236.55 687.82 236.64 692.89 236.99C697.93 237.34 703.07 238.06 703.07 238.06C703.95 237.54 703.85 236.96 703.38 236.36C703.38 236.36 698.18 235.62 693.04 235.26C687.92 234.9 682.29 234.82 679.52 234.82L670.97 234.82C666.46 234.83 661.95 234.98 657.45 235.26Z" /></g><g ><g ><path fill-rule="evenodd" class="shp7" d="M669.37 227.51L681.13 227.51L681.13 233.92L669.37 233.92L669.37 227.51Z" /><path class="shp12" d="M669.37 227.51L681.13 227.51L681.13 233.92L669.37 233.92L669.37 227.51Z" /></g><g ><g ><path class="shp13" d="M670.63 228.35L679.87 228.35L679.87 233.07L670.63 233.07L670.63 228.35Z" /><path fill-rule="evenodd" class="shp14" d="M679.67 232.91C679.54 233.01 679.37 233.07 679.19 233.07L671.31 233.07C671.13 233.07 670.96 233.01 670.83 232.91C670.71 232.81 670.63 232.67 670.63 232.51L670.63 228.91C670.63 228.75 670.71 228.61 670.83 228.51C670.96 228.41 679.79 232.81 679.67 232.91L679.67 232.91Z" /><g ><path fill-rule="evenodd" class="shp15" d="M679.67 232.91C679.54 233.01 679.37 233.07 679.19 233.07L671.31 233.07C671.13 233.07 670.96 233.01 670.83 232.91C670.71 232.81 670.63 232.67 670.63 232.51L670.63 228.91C670.63 228.75 670.71 228.61 670.83 228.51C670.9 228.46 673.2 229.57 675.44 230.69C677.62 231.77 679.73 232.86 679.67 232.91L679.67 232.91Z" /><path fill-rule="evenodd" class="shp15" d="M679.67 228.51C679.79 228.61 679.87 228.75 679.87 228.91L679.87 232.51C679.87 232.67 679.79 232.81 679.67 232.91C679.54 233.01 679.37 233.07 679.19 233.07L671.31 233.07C671.13 233.07 670.96 233.01 670.83 232.91C670.71 232.81 679.54 228.41 679.67 228.51L679.67 228.51Z" /><path fill-rule="evenodd" class="shp15" d="M679.67 232.91C679.54 233.01 679.37 233.07 679.19 233.07L671.31 233.07C671.13 233.07 670.96 233.01 670.83 232.91C670.77 232.86 673.01 231.7 675.26 230.59C675.26 230.59 679.79 232.81 679.67 232.91L679.67 232.91Z" /></g></g><g ><path class="shp12" d="M670.63 228.35L679.87 228.35L679.87 233.07L670.63 233.07L670.63 228.35Z" /><path fill-rule="evenodd" class="shp15" d="M672.66 229.43L677.84 229.43L677.84 231.84L672.66 231.84L672.66 229.43Z" /></g></g></g><g ><g ><path class="shp16" d="M655.53 229.03L663.59 228.18L664.39 233.07L656.33 233.92L655.53 229.03Z" /><path class="shp17" d="M656.3 229.63L663.04 228.91L663.62 232.48L656.88 233.19L656.3 229.63Z" /><path class="shp4" d="M656.3 229.63L663.04 228.91L663.62 232.48L656.88 233.19L656.3 229.63Z" /></g><g ><path class="shp10" d="M646.84 235.35L651.37 231.23L645.84 229.18L645.76 232.56L646.84 235.35Z" /><path class="shp5" d="M646.7 234.5L649.99 231.52L645.98 230.03L645.12 232.39L646.7 234.5Z" /><path class="shp5" d="M646.7 234.5L649.99 231.52L645.16 232.38L646.7 234.5Z" /><g ><path class="shp6" d="M649.99 231.5L645.11 232.41" /><path class="shp6" d="M646.7 234.5L649.99 231.52L645.98 230.03L645.08 232.35L646.7 234.5Z" /></g></g><g ><path class="shp8" d="M666.53 230.14C665.98 230.14 665.54 229.65 665.54 229.05C665.54 228.45 665.98 227.96 666.53 227.96C667.08 227.96 667.53 228.45 667.53 229.05C667.53 229.65 667.08 230.14 666.53 230.14Z" /><path class="shp8" d="M666.74 233.55C666.19 233.55 665.74 233.07 665.74 232.47C665.74 231.86 666.19 231.38 666.74 231.38C667.29 231.38 667.73 231.86 667.73 232.47C667.73 233.07 667.29 233.55 666.74 233.55Z" /><path class="shp8" d="M653.16 230.93C652.61 230.93 652.17 230.44 652.17 229.84C652.17 229.24 652.61 228.75 653.16 228.75C653.71 228.75 654.16 229.24 654.16 229.84C654.16 230.44 653.71 230.93 653.16 230.93Z" /><path class="shp8" d="M653.37 234.34C652.82 234.34 652.37 233.85 652.37 233.25C652.37 232.65 652.82 232.16 653.37 232.16C653.92 232.16 654.36 232.65 654.36 233.25C654.36 233.85 653.92 234.34 653.37 234.34Z" /></g><g ><g ><path class="shp16" d="M694.97 229.03L686.91 228.18L686.11 233.07L694.17 233.92L694.97 229.03Z" /><path class="shp17" d="M694.2 229.63L687.46 228.91L686.88 232.48L693.62 233.19L694.2 229.63Z" /><path class="shp4" d="M694.2 229.63L687.46 228.91L686.88 232.48L693.62 233.19L694.2 229.63Z" /></g><g ><path class="shp10" d="M703.66 235.35L699.13 231.23L704.66 229.18L704.74 232.56L703.66 235.35Z" /><path class="shp5" d="M703.8 234.5L700.51 231.52L704.52 230.03L705.38 232.39L703.8 234.5Z" /><path class="shp5" d="M703.8 234.5L700.51 231.52L705.34 232.38L703.8 234.5Z" /><g ><path class="shp6" d="M700.51 231.5L705.39 232.41" /><path class="shp6" d="M703.8 234.5L700.51 231.52L704.52 230.03L705.42 232.35L703.8 234.5Z" /></g></g><g ><path class="shp8" d="M683.97 230.14C684.52 230.14 684.96 229.65 684.96 229.05C684.96 228.45 684.52 227.96 683.97 227.96C683.42 227.96 682.97 228.45 682.97 229.05C682.97 229.65 683.42 230.14 683.97 230.14Z" /><path class="shp8" d="M683.76 233.55C684.31 233.55 684.76 233.07 684.76 232.47C684.76 231.86 684.31 231.38 683.76 231.38C683.21 231.38 682.77 231.86 682.77 232.47C682.77 233.07 683.21 233.55 683.76 233.55Z" /><path class="shp8" d="M697.34 230.93C697.89 230.93 698.33 230.44 698.33 229.84C698.33 229.24 697.89 228.75 697.34 228.75C696.79 228.75 696.34 229.24 696.34 229.84C696.34 230.44 696.79 230.93 697.34 230.93Z" /><path class="shp8" d="M697.13 234.34C697.68 234.34 698.13 233.85 698.13 233.25C698.13 232.65 697.68 232.16 697.13 232.16C696.58 232.16 696.14 232.65 696.14 233.25C696.14 233.85 696.58 234.34 697.13 234.34Z" /></g></g></g></g></g><g ><path class="shp18" d="M763.41 311.82C763.42 330.88 754.13 349.16 737.6 362.63C721.06 376.11 698.64 383.68 675.25 383.68C651.86 383.68 629.44 376.11 612.9 362.63C596.37 349.16 587.08 330.88 587.09 311.82C587.08 292.77 596.37 274.49 612.9 261.01C629.44 247.54 651.86 239.97 675.25 239.97C698.64 239.97 721.06 247.54 737.6 261.01C754.13 274.49 763.42 292.77 763.41 311.82L763.41 311.82Z" /><path class="shp19" d="M760.61 311.82C760.62 329.92 751.63 347.28 735.62 360.08C719.61 372.87 697.89 380.06 675.25 380.06C652.61 380.06 630.89 372.87 614.88 360.08C598.87 347.28 589.88 329.92 589.89 311.82C589.88 293.73 598.87 276.37 614.88 263.57C630.89 250.77 652.61 243.58 675.25 243.58C697.89 243.58 719.61 250.77 735.62 263.57C751.63 276.37 760.62 293.73 760.61 311.82L760.61 311.82Z" /><path class="shp18" d="M745.58 311.82C745.58 326.22 738.18 340.02 724.99 350.2C711.8 360.38 693.91 366.1 675.25 366.1C656.59 366.1 638.7 360.38 625.51 350.2C612.33 340.02 604.92 326.22 604.92 311.82C604.92 297.43 612.33 283.63 625.51 273.45C638.7 263.27 656.59 257.55 675.25 257.55C693.91 257.55 711.8 263.27 724.99 273.45C738.18 283.63 745.58 297.43 745.58 311.82L745.58 311.82Z" /><path class="shp20" d="M741.63 311.82C741.64 325.25 734.65 338.12 722.2 347.61C709.75 357.1 692.86 362.44 675.25 362.44C657.64 362.44 640.75 357.1 628.3 347.61C615.85 338.12 608.86 325.25 608.87 311.82C608.86 298.4 615.85 285.53 628.3 276.03C640.75 266.54 657.64 261.21 675.25 261.21C692.86 261.21 709.75 266.54 722.2 276.03C734.65 285.53 741.64 298.4 741.63 311.82L741.63 311.82Z" /></g><path class="shp21" d="M741.63 311.82C741.64 325.25 734.65 338.12 722.2 347.61C709.75 357.1 692.86 362.44 675.25 362.44C657.64 362.44 640.75 357.1 628.3 347.61C615.85 338.12 608.86 325.25 608.87 311.82L675.25 311.82L741.63 311.82Z" /><path fill-rule="evenodd" class="shp22" d="M663.01 357.51L661.1 357.37C661.1 356.65 661.1 355.92 661.1 355.2L676.94 355.2C678.37 354.21 679.8 353.23 681.24 352.24C692.84 351.41 704.55 351.45 716.06 349.7C710.37 352.39 704.56 355.15 698.28 355.2C698.01 356.01 697.74 356.83 697.47 357.65C690.01 359.17 682.64 359.46 675.12 359.55C675.63 360.37 676.14 361.54 676.65 362.36C670.73 362.32 662.85 362.27 651.86 359.32C650.84 359.32 665.05 357.72 663.01 357.51ZM635.53 351.3C641.64 349.46 647.23 349.77 653.49 349.76L653.49 352.22C650.58 351.83 647.68 351.44 644.78 351.05C642.07 354.26 639.83 352.26 635.53 351.3ZM675.38 347.58C674.93 348.31 674.48 349.03 674.03 349.76C671.54 349.76 669.04 349.76 666.54 349.76C666.54 349.03 666.54 348.31 666.54 347.58L675.38 347.58ZM682.5 346.37L688.94 346.7L695.38 347.04L695.38 349.21L690.39 349.54L685.4 349.86L682.5 346.37ZM626.02 343.23C628.44 343.04 630.6 343.7 632.8 344.54C630.61 347.95 627.8 345.38 626.02 343.23ZM635.71 340.51C639.46 340.4 643.21 340.3 646.96 340.2L646.96 342.14C645.19 342.14 643.42 342.14 641.65 342.14C639.66 345.23 637.77 343.8 634.87 343.05C635.15 342.2 635.43 341.35 635.71 340.51ZM664.37 342.14L678.64 342.14L677.97 343.23L677.3 344.32C672.99 344.32 668.68 344.32 664.37 344.32L664.37 342.14ZM691.73 339.89C694.22 340.36 696.7 340.83 699.19 341.29L699.19 343.23C694.29 343.17 689.4 343.11 684.5 343.05C686.91 342 689.32 340.95 691.73 339.89ZM663.82 334.77C667.27 335.15 670.72 335.53 674.16 335.92L674.16 337.79C668.42 337.79 662.67 337.79 656.93 337.79C655.68 338.27 654.44 338.74 653.19 339.22C653.53 338.2 653.87 337.18 654.21 336.16C657.41 335.69 660.62 335.23 663.82 334.77ZM629 329.26C629.69 329.93 630.38 330.59 631.07 331.26L626.23 331.17C622.62 330.37 618.66 331.62 618.66 327.75C622.11 328.25 625.56 328.76 629 329.26ZM720.21 348.58L714.57 348.88C710.24 347.37 710.29 346.88 714.97 344.93L718.78 343.34L718.78 341.05C716.78 340.96 714.79 340.88 712.79 340.79C715.88 340.05 718.96 339.31 722.04 338.57L722.04 336.84C719.5 337.25 716.96 337.66 714.42 338.07L714.42 335.56C716.61 335.12 718.8 334.68 720.99 334.25C720.11 333.19 719.24 332.14 718.36 331.08L727.3 331.44C736.74 332.09 739.85 333.21 727.78 335.45C727.29 336.71 726.81 337.98 726.32 339.25C727.08 339.71 727.83 340.18 728.59 340.65C725 342.5 721.42 344.35 717.83 346.19L720.21 348.58Z" /><path class="shp23" d="M741.63 311.82C741.64 325.25 734.65 338.12 722.2 347.61C709.75 357.1 692.86 362.44 675.25 362.44C657.64 362.44 640.75 357.1 628.3 347.61C615.85 338.12 608.86 325.25 608.87 311.82C608.86 298.4 615.85 285.53 628.3 276.03C640.75 266.54 657.64 261.21 675.25 261.21C692.86 261.21 709.75 266.54 722.2 276.03C734.65 285.53 741.64 298.4 741.63 311.82L741.63 311.82Z" /><path class="shp2" d="M638.33 370.05L639.33 367.25L639.56 367.34C639.48 368.13 639.6 368.81 639.94 369.37C640.28 369.93 640.75 370.32 641.35 370.53C641.85 370.71 642.37 370.74 642.89 370.6C643.42 370.46 643.86 370.19 644.23 369.79C644.69 369.28 645.06 368.66 645.32 367.92C645.58 367.2 645.73 366.51 645.76 365.85C645.79 365.19 645.66 364.64 645.38 364.19C645.1 363.75 644.65 363.42 644.03 363.2C643.52 363.01 643.02 362.96 642.51 363.03C642.01 363.1 641.43 363.32 640.76 363.7L641.01 363C641.64 362.69 642.23 362.52 642.8 362.48C643.37 362.44 643.98 362.54 644.63 362.78C645.49 363.09 646.2 363.54 646.74 364.12C647.29 364.71 647.63 365.39 647.76 366.17C647.89 366.95 647.82 367.7 647.56 368.43C647.28 369.2 646.82 369.86 646.17 370.41C645.52 370.95 644.78 371.29 643.96 371.43C643.14 371.56 642.34 371.49 641.57 371.22C641 371.01 640.44 370.67 639.9 370.2C639.59 369.93 639.38 369.77 639.28 369.74C639.15 369.69 639.03 369.7 638.9 369.76C638.77 369.82 638.66 369.94 638.56 370.14L638.33 370.05Z" /><path fill-rule="evenodd" class="shp2" d="M628.3 363.7C627.94 362.55 628.06 361.41 628.65 360.28C629.16 359.32 629.89 358.62 630.84 358.19C632.1 357.61 633.41 357.69 634.77 358.41C636.14 359.13 636.95 360.15 637.21 361.47C637.41 362.51 637.25 363.53 636.72 364.54C636.12 365.66 635.24 366.4 634.08 366.75C632.91 367.09 631.78 366.95 630.69 366.31C629.45 365.72 628.66 364.85 628.3 363.7ZM632.95 365.69C633.56 365.27 634.15 364.51 634.72 363.42C635.41 362.12 635.69 361.05 635.56 360.19C635.47 359.59 635.14 359.14 634.57 358.83C634.18 358.63 633.81 358.55 633.46 358.6C633 358.67 632.55 358.92 632.09 359.34C631.63 359.77 631.17 360.41 630.73 361.25C630.2 362.25 629.89 363.05 629.82 363.65C629.74 364.25 629.79 364.73 629.97 365.08C630.15 365.44 630.43 365.72 630.81 365.92C631.5 366.29 632.22 366.21 632.95 365.69Z" /><path class="shp2" d="M622.15 353.95L616.82 356.96L614.07 354.8L614.21 354.62L614.43 354.79C614.63 354.95 614.82 355.04 614.99 355.06C615.11 355.08 615.24 355.05 615.38 354.98C615.48 354.93 615.66 354.74 615.92 354.4L619.41 349.95C619.69 349.61 619.84 349.38 619.87 349.26C619.9 349.15 619.88 349.01 619.82 348.86C619.76 348.7 619.63 348.55 619.44 348.41L619.22 348.23L619.37 348.05L622.9 350.82L622.75 351L622.53 350.83C622.33 350.67 622.15 350.58 621.97 350.56C621.85 350.54 621.72 350.57 621.59 350.64C621.49 350.69 621.3 350.89 621.04 351.22L617.11 356.23L624.54 352.1L624.65 352.2L622.49 360.37L626.22 355.62C626.48 355.29 626.63 355.08 626.67 354.99C626.76 354.79 626.77 354.58 626.71 354.36C626.65 354.14 626.46 353.91 626.15 353.67L626.3 353.48L628.61 355.3L628.47 355.48L628.4 355.43C628.25 355.31 628.09 355.22 627.92 355.17C627.75 355.12 627.6 355.11 627.46 355.15C627.33 355.18 627.18 355.26 627.03 355.39C626.99 355.42 626.85 355.59 626.62 355.89L623.26 360.16C622.99 360.51 622.85 360.73 622.82 360.85C622.79 360.96 622.8 361.09 622.86 361.25C622.93 361.4 623.05 361.55 623.24 361.7L623.46 361.87L623.31 362.05L620.55 359.89L622.15 353.95Z" /><path class="shp2" d="M611.72 343.73L605.85 345.47L603.66 342.75L603.84 342.6L604.02 342.82C604.17 343.02 604.34 343.15 604.5 343.21C604.61 343.25 604.74 343.26 604.89 343.22C605 343.19 605.22 343.04 605.55 342.78L609.96 339.22C610.3 338.95 610.5 338.76 610.55 338.65C610.61 338.55 610.63 338.41 610.6 338.25C610.57 338.09 610.48 337.91 610.33 337.72L610.16 337.51L610.34 337.36L613.16 340.85L612.97 341L612.8 340.78C612.64 340.58 612.48 340.45 612.31 340.39C612.2 340.34 612.07 340.34 611.92 340.38C611.81 340.41 611.59 340.56 611.25 340.83L606.3 344.82L614.46 342.47L614.56 342.59L610.6 350.07L615.31 346.27C615.64 346.01 615.84 345.84 615.9 345.76C616.03 345.59 616.09 345.39 616.08 345.16C616.06 344.93 615.93 344.67 615.69 344.36L615.87 344.21L617.71 346.5L617.53 346.65L617.48 346.58C617.36 346.43 617.23 346.31 617.07 346.22C616.92 346.14 616.77 346.09 616.63 346.1C616.49 346.1 616.33 346.15 616.15 346.23C616.11 346.26 615.94 346.39 615.64 346.63L611.41 350.04C611.07 350.31 610.87 350.5 610.82 350.6C610.77 350.71 610.75 350.84 610.78 351C610.8 351.17 610.89 351.34 611.04 351.53L611.21 351.74L611.03 351.89L608.83 349.16L611.72 343.73Z" /><path class="shp2" d="M600.55 335.9L603.71 334.39L603.63 334.24C603.4 333.75 603.07 333.46 602.66 333.39C602.24 333.32 601.72 333.4 601.09 333.62L600.99 333.41L605.04 331.46L605.14 331.68C604.72 331.94 604.41 332.21 604.2 332.49C603.99 332.77 603.88 333.03 603.87 333.27C603.87 333.51 603.96 333.82 604.13 334.19L606.31 333.14C606.74 332.94 606.99 332.79 607.07 332.71C607.15 332.63 607.19 332.52 607.21 332.4C607.22 332.27 607.17 332.09 607.07 331.87L606.85 331.41C606.5 330.69 606.05 330.19 605.51 329.91C604.97 329.64 604.31 329.57 603.53 329.71L603.43 329.5L606.06 328.66L609.27 335.35L609.06 335.46L608.93 335.2C608.82 334.97 608.7 334.81 608.55 334.71C608.45 334.64 608.32 334.61 608.17 334.62C608.06 334.62 607.81 334.71 607.42 334.9L602.33 337.34C601.98 337.51 601.77 337.62 601.7 337.68C601.58 337.78 601.51 337.9 601.49 338.04C601.45 338.24 601.49 338.46 601.61 338.71L601.74 338.97L601.53 339.07L598.42 332.59L600.71 331.49L600.81 331.71C600.3 332.09 599.98 332.43 599.83 332.75C599.68 333.07 599.64 333.44 599.7 333.86C599.73 334.1 599.89 334.52 600.17 335.1L600.55 335.9Z" /><path fill-rule="evenodd" class="shp2" d="M600.43 323.61L602.78 323.09C603.23 322.99 603.51 322.9 603.61 322.81C603.72 322.73 603.79 322.61 603.83 322.46C603.87 322.3 603.84 322.03 603.76 321.65L603.99 321.6L604.94 325.89L604.71 325.94C604.63 325.55 604.53 325.3 604.43 325.18C604.33 325.05 604.21 324.98 604.08 324.95C603.95 324.92 603.66 324.95 603.21 325.05L597.77 326.26C597.32 326.36 597.04 326.45 596.93 326.53C596.83 326.61 596.76 326.73 596.72 326.89C596.68 327.04 596.7 327.31 596.79 327.7L596.56 327.75L595.69 323.85C595.47 322.84 595.37 322.08 595.41 321.58C595.45 321.08 595.62 320.64 595.93 320.26C596.24 319.88 596.65 319.63 597.16 319.52C597.78 319.38 598.34 319.49 598.84 319.85C599.16 320.08 599.44 320.43 599.68 320.91L602.07 318.27C602.38 317.93 602.57 317.69 602.63 317.56C602.72 317.36 602.75 317.15 602.71 316.92L602.94 316.87L603.53 319.51L600.3 323.06L600.43 323.61ZM596.32 324.52L599.99 323.71L599.91 323.35C599.78 322.78 599.63 322.36 599.47 322.1C599.3 321.84 599.06 321.66 598.75 321.56C598.44 321.46 598.06 321.45 597.62 321.55C596.98 321.69 596.54 321.95 596.31 322.31C596.07 322.68 596.02 323.2 596.17 323.86L596.32 324.52Z" /><path class="shp2" d="M594.27 306.25L597.25 306.34L597.24 306.58C596.46 306.75 595.85 307.07 595.42 307.57C594.99 308.06 594.77 308.63 594.75 309.27C594.73 309.81 594.87 310.3 595.17 310.76C595.46 311.21 595.86 311.55 596.35 311.77C596.98 312.06 597.68 312.21 598.46 312.24C599.23 312.26 599.93 312.18 600.57 312.01C601.21 311.83 601.69 311.54 602.03 311.14C602.36 310.74 602.54 310.21 602.56 309.55C602.58 309.01 602.47 308.51 602.25 308.05C602.03 307.6 601.63 307.11 601.07 306.6L601.81 306.62C602.3 307.11 602.65 307.63 602.86 308.15C603.07 308.68 603.16 309.29 603.14 309.99C603.11 310.91 602.91 311.71 602.52 312.41C602.13 313.11 601.59 313.65 600.89 314.01C600.19 314.38 599.45 314.55 598.67 314.52C597.85 314.5 597.08 314.26 596.36 313.81C595.64 313.36 595.09 312.77 594.71 312.03C594.32 311.29 594.14 310.51 594.17 309.69C594.19 309.09 594.34 308.45 594.62 307.79C594.78 307.41 594.86 307.16 594.87 307.06C594.87 306.92 594.83 306.8 594.73 306.7C594.63 306.6 594.48 306.53 594.26 306.49L594.27 306.25Z" /><path class="shp2" d="M604.34 299.47L604.57 299.52L603.56 303.9L603.33 303.84L603.39 303.57C603.45 303.32 603.45 303.12 603.4 302.95C603.37 302.83 603.29 302.73 603.16 302.64C603.07 302.57 602.82 302.49 602.4 302.39L596.9 301.11C596.47 301.02 596.2 300.98 596.08 301C595.96 301.02 595.85 301.09 595.74 301.21C595.62 301.33 595.54 301.5 595.49 301.74L595.42 302.01L595.19 301.96L596.21 297.59L596.43 297.64L596.37 297.92C596.31 298.16 596.31 298.37 596.36 298.53C596.4 298.65 596.48 298.76 596.6 298.86C596.69 298.92 596.94 299.01 597.36 299.1L602.87 300.38C603.29 300.48 603.57 300.51 603.68 300.49C603.8 300.47 603.92 300.4 604.03 300.28C604.14 300.16 604.22 299.98 604.28 299.75L604.34 299.47Z" /><path fill-rule="evenodd" class="shp2" d="M604.93 291.68L603.7 294.45L604.32 295.12C604.53 295.34 604.72 295.49 604.88 295.56C605.1 295.66 605.3 295.64 605.49 295.51C605.59 295.43 605.75 295.2 605.97 294.8L606.18 294.9L605.02 297.51L604.81 297.41C604.89 297.11 604.88 296.83 604.77 296.56C604.66 296.3 604.36 295.9 603.88 295.37L598.86 289.79L598.91 289.68L606.6 289.7C607.33 289.7 607.81 289.64 608.05 289.54C608.22 289.46 608.37 289.31 608.5 289.08L608.71 289.17L607.03 292.97L606.82 292.87L606.89 292.72C607.02 292.41 607.08 292.18 607.05 292.02C607.02 291.91 606.95 291.82 606.84 291.77C606.77 291.74 606.69 291.72 606.61 291.71C606.57 291.71 606.4 291.7 606.09 291.69L604.93 291.68ZM604.42 291.69L601.19 291.66L603.37 294.06L604.42 291.69Z" /><path class="shp2" d="M612.73 271.11L615.16 273.62L615.28 273.5C615.67 273.13 615.84 272.73 615.78 272.31C615.72 271.9 615.48 271.43 615.06 270.9L615.23 270.73L618.36 273.96L618.19 274.13C617.81 273.81 617.46 273.6 617.12 273.49C616.79 273.38 616.51 273.36 616.28 273.43C616.05 273.5 615.78 273.68 615.49 273.96L617.17 275.7C617.5 276.04 617.72 276.24 617.82 276.28C617.92 276.33 618.03 276.34 618.16 276.31C618.29 276.29 618.44 276.19 618.61 276.02L618.98 275.66C619.56 275.1 619.89 274.52 619.98 273.92C620.07 273.32 619.93 272.67 619.55 271.98L619.72 271.81L621.34 274.04L616 279.2L615.84 279.03L616.05 278.84C616.23 278.66 616.34 278.49 616.39 278.32C616.42 278.2 616.41 278.07 616.36 277.93C616.32 277.82 616.15 277.61 615.85 277.31L611.92 273.25C611.65 272.97 611.48 272.8 611.4 272.76C611.27 272.68 611.14 272.65 611 272.67C610.8 272.7 610.6 272.81 610.4 273L610.2 273.2L610.03 273.03L615.2 268.04L616.96 269.86L616.79 270.03C616.27 269.67 615.84 269.47 615.49 269.43C615.14 269.39 614.78 269.46 614.4 269.65C614.18 269.76 613.83 270.04 613.37 270.5L612.73 271.11Z" /><path class="shp2" d="M624.89 265.08L628.85 266.61C629.5 266.86 629.93 266.99 630.14 267C630.35 267.01 630.55 266.96 630.75 266.85L630.89 267.04L627.45 269.43L627.32 269.24C627.58 269.03 627.73 268.86 627.76 268.75C627.8 268.63 627.79 268.52 627.72 268.43C627.68 268.37 627.63 268.32 627.57 268.29C627.45 268.22 627.19 268.11 626.8 267.96L624.71 267.16L624.55 269.22C624.51 269.84 624.53 270.23 624.63 270.37C624.7 270.47 624.81 270.53 624.95 270.56C625.1 270.59 625.26 270.57 625.45 270.49C625.54 270.46 625.7 270.37 625.92 270.21L626.06 270.4L623.35 272.29L623.21 272.1C623.49 271.84 623.68 271.58 623.77 271.34C623.89 271.02 623.98 270.46 624.05 269.67L624.26 266.99L620.63 265.6C620.03 265.37 619.7 265.25 619.62 265.23C619.45 265.18 619.3 265.16 619.18 265.18C619.05 265.19 618.9 265.24 618.73 265.33L618.59 265.14L622.09 262.7L622.22 262.9L622.05 263.02C621.85 263.16 621.73 263.29 621.69 263.41C621.66 263.53 621.67 263.64 621.74 263.73C621.8 263.81 621.85 263.87 621.92 263.91L622.65 264.2L624.45 264.92L624.56 263.49C624.62 262.76 624.58 262.3 624.45 262.11C624.38 262.02 624.3 261.95 624.19 261.91C624.08 261.87 623.96 261.86 623.83 261.88C623.69 261.91 623.52 261.99 623.31 262.14L623.18 261.95L625.77 260.14L625.9 260.34C625.7 260.48 625.55 260.62 625.46 260.75C625.37 260.89 625.3 261.07 625.24 261.3C625.21 261.44 625.17 261.86 625.11 262.54L624.89 265.08Z" /><path fill-rule="evenodd" class="shp2" d="M634.77 263.32C634.98 263.74 635.13 263.98 635.24 264.07C635.35 264.15 635.48 264.19 635.64 264.18C635.8 264.18 636.06 264.09 636.4 263.92L636.51 264.13L632.62 266.1L632.51 265.89C632.87 265.71 633.09 265.56 633.18 265.43C633.28 265.3 633.32 265.17 633.32 265.04C633.32 264.91 633.21 264.63 633 264.22L630.48 259.25C630.27 258.84 630.11 258.59 630.01 258.51C629.9 258.43 629.77 258.39 629.61 258.39C629.45 258.39 629.19 258.48 628.84 258.65L628.74 258.44L632.07 256.75C633.17 256.19 634.06 255.99 634.74 256.14C635.41 256.29 635.9 256.66 636.2 257.24C636.45 257.74 636.51 258.24 636.38 258.75C636.25 259.26 635.95 259.72 635.47 260.12C635.15 260.4 634.56 260.76 633.69 261.2L634.77 263.32ZM631.79 257.45L633.47 260.76C633.59 260.7 633.69 260.66 633.75 260.63C634.21 260.39 634.5 260.08 634.61 259.68C634.72 259.28 634.63 258.79 634.34 258.22C634.05 257.65 633.71 257.3 633.33 257.16C632.95 257.03 632.51 257.08 632.02 257.33L631.79 257.45Z" /><path class="shp2" d="M638.18 253.85L642.35 252.36L642.43 252.58L642.22 252.65C641.91 252.76 641.7 252.87 641.61 252.98C641.51 253.09 641.46 253.21 641.45 253.34C641.45 253.48 641.52 253.77 641.69 254.23L643.1 258.19C643.36 258.92 643.59 259.38 643.78 259.57C643.97 259.77 644.22 259.9 644.53 259.96C644.83 260.03 645.18 259.99 645.56 259.86C646 259.7 646.33 259.47 646.57 259.16C646.81 258.86 646.94 258.5 646.97 258.1C647 257.7 646.86 257.07 646.56 256.21L645.38 252.92C645.25 252.55 645.12 252.31 644.99 252.18C644.86 252.05 644.73 251.98 644.59 251.96C644.38 251.93 644.11 251.98 643.78 252.09L643.7 251.87L646.5 250.88L646.58 251.1L646.41 251.16C646.19 251.24 646.01 251.35 645.9 251.5C645.78 251.64 645.72 251.82 645.71 252.02C645.71 252.17 645.76 252.41 645.88 252.74L646.98 255.81C647.32 256.76 647.5 257.47 647.52 257.93C647.55 258.4 647.38 258.9 647.02 259.42C646.66 259.95 646.07 260.36 645.23 260.66C644.53 260.91 643.95 261.01 643.5 260.96C642.89 260.89 642.41 260.7 642.05 260.38C641.7 260.05 641.4 259.56 641.16 258.89L639.74 254.93C639.58 254.46 639.45 254.18 639.36 254.09C639.27 253.99 639.14 253.93 638.99 253.91C638.84 253.89 638.6 253.94 638.25 254.07L638.18 253.85Z" /><path class="shp2" d="M658.39 253.77L658.73 256.78L651.29 258.44L651.24 258.22L651.52 258.15C651.76 258.1 651.95 258.01 652.08 257.89C652.17 257.81 652.23 257.69 652.26 257.54C652.28 257.43 652.25 257.17 652.15 256.75L650.92 251.24C650.82 250.81 650.74 250.54 650.67 250.45C650.6 250.35 650.49 250.28 650.34 250.23C650.18 250.18 649.98 250.18 649.75 250.23L649.47 250.29L649.42 250.07L653.89 249.07L653.94 249.3L653.57 249.38C653.33 249.43 653.15 249.52 653.02 249.64C652.92 249.72 652.86 249.84 652.83 249.99C652.81 250.1 652.84 250.37 652.93 250.79L654.13 256.12C654.22 256.55 654.31 256.82 654.38 256.93C654.46 257.03 654.58 257.1 654.73 257.12C654.85 257.14 655.1 257.1 655.49 257.01L656.19 256.86C656.64 256.76 656.99 256.6 657.25 256.37C657.51 256.15 657.72 255.85 657.86 255.46C658 255.07 658.09 254.53 658.14 253.83L658.39 253.77Z" /><path class="shp2" d="M666 246.98L666.4 249.82L666.14 249.85C665.94 249.15 665.57 248.61 665.05 248.23C664.52 247.85 663.98 247.7 663.43 247.76C663 247.81 662.67 247.96 662.45 248.22C662.23 248.48 662.13 248.75 662.17 249.05C662.19 249.24 662.25 249.4 662.36 249.54C662.5 249.72 662.72 249.9 663.01 250.06C663.22 250.17 663.71 250.37 664.46 250.64C665.51 251.01 666.24 251.4 666.64 251.79C667.03 252.19 667.26 252.67 667.33 253.23C667.41 253.94 667.2 254.59 666.71 255.16C666.21 255.74 665.54 256.08 664.68 256.18C664.41 256.21 664.16 256.21 663.91 256.19C663.66 256.16 663.35 256.09 662.97 255.98C662.76 255.92 662.59 255.9 662.46 255.91C662.35 255.93 662.24 255.98 662.13 256.08C662.02 256.18 661.94 256.32 661.88 256.5L661.65 256.52L661.28 253.3L661.51 253.28C661.8 254.16 662.23 254.81 662.81 255.23C663.4 255.64 663.99 255.81 664.6 255.74C665.07 255.69 665.43 255.52 665.68 255.23C665.93 254.94 666.03 254.63 665.99 254.29C665.97 254.09 665.89 253.9 665.76 253.72C665.63 253.55 665.45 253.38 665.21 253.24C664.98 253.1 664.56 252.92 663.98 252.71C663.16 252.42 662.56 252.16 662.19 251.93C661.82 251.7 661.53 251.43 661.31 251.12C661.09 250.81 660.95 250.46 660.91 250.06C660.83 249.38 661.01 248.77 661.45 248.24C661.9 247.7 662.5 247.39 663.26 247.3C663.54 247.27 663.81 247.27 664.07 247.31C664.28 247.34 664.53 247.4 664.83 247.51C665.13 247.61 665.33 247.65 665.45 247.64C665.55 247.63 665.64 247.58 665.69 247.51C665.75 247.44 665.79 247.27 665.81 247.01L666 246.98Z" /><path class="shp2" d="M674.27 255.12L674.28 255.36L669.79 255.51L669.78 255.28L670.07 255.27C670.32 255.26 670.52 255.21 670.67 255.11C670.77 255.05 670.86 254.95 670.91 254.8C670.95 254.7 670.97 254.43 670.95 254L670.76 248.36C670.75 247.92 670.71 247.64 670.66 247.54C670.61 247.43 670.52 247.34 670.37 247.26C670.23 247.18 670.03 247.15 669.79 247.15L669.51 247.16L669.5 246.93L673.99 246.78L674 247.01L673.71 247.02C673.46 247.03 673.26 247.08 673.11 247.17C673.01 247.24 672.92 247.34 672.87 247.49C672.82 247.59 672.81 247.86 672.82 248.29L673.01 253.93C673.03 254.37 673.06 254.64 673.12 254.75C673.17 254.86 673.27 254.95 673.41 255.03C673.55 255.11 673.75 255.14 673.99 255.13L674.27 255.12Z" /><path class="shp2" d="M682.46 246.82L682.4 249.68L682.14 249.67C682.05 248.95 681.78 248.36 681.32 247.9C680.86 247.44 680.35 247.2 679.8 247.17C679.37 247.15 679.02 247.25 678.76 247.47C678.5 247.69 678.36 247.95 678.35 248.25C678.34 248.44 678.37 248.61 678.46 248.76C678.57 248.96 678.76 249.17 679.02 249.37C679.21 249.52 679.65 249.79 680.36 250.18C681.34 250.72 681.99 251.21 682.32 251.67C682.65 252.12 682.8 252.63 682.77 253.2C682.74 253.91 682.43 254.52 681.85 255.01C681.26 255.5 680.54 255.73 679.68 255.69C679.41 255.67 679.16 255.63 678.92 255.57C678.68 255.5 678.39 255.38 678.03 255.22C677.83 255.12 677.67 255.07 677.54 255.07C677.43 255.06 677.31 255.1 677.18 255.18C677.06 255.26 676.95 255.38 676.87 255.55L676.63 255.54L676.78 252.3L677.02 252.31C677.16 253.23 677.49 253.94 677.99 254.44C678.5 254.95 679.06 255.21 679.67 255.24C680.14 255.26 680.53 255.15 680.82 254.91C681.11 254.66 681.26 254.37 681.28 254.03C681.29 253.83 681.25 253.63 681.15 253.43C681.05 253.24 680.89 253.05 680.68 252.87C680.47 252.69 680.09 252.45 679.55 252.15C678.79 251.73 678.24 251.38 677.91 251.09C677.58 250.81 677.33 250.49 677.16 250.15C677 249.81 676.92 249.44 676.94 249.04C676.97 248.35 677.25 247.78 677.77 247.33C678.3 246.87 678.94 246.66 679.7 246.69C679.98 246.71 680.25 246.75 680.51 246.83C680.71 246.89 680.94 247 681.22 247.15C681.5 247.3 681.69 247.37 681.81 247.38C681.92 247.38 682.01 247.36 682.07 247.29C682.14 247.23 682.21 247.07 682.27 246.81L682.46 246.82Z" /><path fill-rule="evenodd" class="shp2" d="M695.31 253.59L694.8 255.92C694.7 256.37 694.67 256.66 694.7 256.79C694.73 256.92 694.81 257.04 694.93 257.14C695.06 257.24 695.31 257.33 695.69 257.42L695.64 257.65L691.38 256.71L691.43 256.48C691.82 256.56 692.09 256.59 692.24 256.54C692.4 256.5 692.51 256.43 692.6 256.33C692.68 256.22 692.77 255.95 692.87 255.49L694.06 250.05C694.16 249.6 694.2 249.31 694.17 249.18C694.14 249.05 694.06 248.93 693.94 248.83C693.81 248.73 693.56 248.64 693.17 248.55L693.22 248.32L696.88 249.13C698.08 249.39 698.9 249.8 699.33 250.34C699.76 250.88 699.9 251.48 699.76 252.12C699.64 252.66 699.37 253.09 698.95 253.41C698.52 253.72 698 253.88 697.37 253.89C696.95 253.9 696.27 253.8 695.31 253.59L695.31 253.59ZM696.22 249.49L695.42 253.11C695.55 253.15 695.66 253.18 695.73 253.19C696.23 253.3 696.65 253.24 696.99 253C697.32 252.76 697.56 252.33 697.7 251.7C697.84 251.08 697.8 250.59 697.59 250.24C697.38 249.9 697.01 249.66 696.47 249.54L696.22 249.49Z" /><path class="shp2" d="M704.76 259.99L704.69 260.21L700.41 258.85L700.48 258.63L700.76 258.71C700.99 258.79 701.2 258.81 701.37 258.77C701.49 258.75 701.6 258.67 701.7 258.56C701.78 258.47 701.88 258.23 702.01 257.82L703.72 252.43C703.86 252.02 703.92 251.75 703.91 251.63C703.89 251.51 703.83 251.39 703.72 251.27C703.61 251.15 703.44 251.05 703.22 250.98L702.94 250.89L703.01 250.67L707.29 252.03L707.22 252.25L706.95 252.17C706.71 252.09 706.51 252.07 706.34 252.11C706.21 252.13 706.1 252.2 706 252.32C705.92 252.4 705.82 252.65 705.69 253.06L703.98 258.44C703.84 258.86 703.78 259.13 703.8 259.25C703.81 259.37 703.87 259.49 703.98 259.61C704.09 259.73 704.26 259.83 704.49 259.9L704.76 259.99Z" /><path fill-rule="evenodd" class="shp2" d="M711.11 258.5L710.14 260.71C709.95 261.13 709.86 261.41 709.87 261.54C709.87 261.68 709.92 261.8 710.03 261.93C710.13 262.05 710.36 262.19 710.72 262.35L710.62 262.56L706.6 260.8L706.69 260.58C707.06 260.74 707.32 260.82 707.48 260.81C707.64 260.8 707.77 260.75 707.87 260.66C707.97 260.58 708.11 260.32 708.3 259.9L710.54 254.8C710.72 254.37 710.81 254.09 710.81 253.96C710.81 253.83 710.75 253.7 710.65 253.57C710.55 253.45 710.32 253.31 709.96 253.15L710.05 252.94L713.7 254.54C714.65 254.96 715.32 255.33 715.7 255.65C716.09 255.98 716.34 256.38 716.46 256.85C716.59 257.33 716.54 257.81 716.34 258.28C716.08 258.86 715.66 259.25 715.08 259.44C714.71 259.57 714.25 259.58 713.72 259.49L714.44 262.98C714.54 263.43 714.62 263.73 714.69 263.86C714.8 264.05 714.95 264.19 715.15 264.3L715.06 264.51L712.58 263.42L711.62 258.73L711.11 258.5ZM712.8 254.65L711.29 258.09L711.62 258.24C712.16 258.47 712.58 258.6 712.89 258.62C713.2 258.64 713.49 258.55 713.75 258.36C714.02 258.17 714.24 257.87 714.42 257.46C714.69 256.86 714.74 256.35 714.58 255.94C714.43 255.53 714.04 255.19 713.42 254.92L712.8 254.65Z" /><path fill-rule="evenodd" class="shp2" d="M722.22 265.95L719.64 264.35L718.9 264.87C718.65 265.04 718.48 265.21 718.38 265.36C718.25 265.57 718.24 265.77 718.35 265.97C718.41 266.08 718.62 266.28 718.98 266.54L718.86 266.74L716.43 265.23L716.56 265.03C716.84 265.16 717.13 265.18 717.4 265.11C717.68 265.04 718.12 264.8 718.71 264.4L724.94 260.21L725.04 260.27L723.95 267.88C723.85 268.6 723.83 269.09 723.9 269.34C723.95 269.52 724.09 269.69 724.3 269.85L724.17 270.05L720.65 267.85L720.77 267.66L720.92 267.75C721.2 267.92 721.42 268.01 721.59 268C721.7 267.99 721.79 267.93 721.86 267.83C721.9 267.76 721.93 267.69 721.95 267.61C721.96 267.57 721.99 267.4 722.04 267.1L722.22 265.95ZM722.28 265.44L722.76 262.26L720.08 264.07L722.28 265.44Z" /><path class="shp2" d="M737.38 269.91L735.86 271.67L735.69 271.52C735.94 271.02 736.07 270.63 736.1 270.35C736.13 270.06 736.08 269.77 735.95 269.48C735.88 269.32 735.69 269.11 735.39 268.85L734.91 268.43L730.58 273.45C730.3 273.78 730.14 274 730.1 274.12C730.07 274.23 730.08 274.37 730.13 274.52C730.18 274.68 730.3 274.83 730.49 274.99L730.7 275.18L730.55 275.36L727.14 272.42L727.3 272.25L727.51 272.43C727.7 272.59 727.88 272.69 728.06 272.72C728.18 272.75 728.31 272.73 728.45 272.66C728.55 272.62 728.74 272.43 729.02 272.1L733.35 267.09L732.88 266.68C732.44 266.3 732.04 266.12 731.68 266.14C731.18 266.16 730.69 266.37 730.2 266.79L730.02 266.63L731.53 264.87L737.38 269.91Z" /><path class="shp2" d="M736.48 281.28L736.3 281.44L733.33 278.07L733.5 277.92L733.69 278.13C733.86 278.32 734.02 278.44 734.19 278.5C734.31 278.54 734.44 278.53 734.58 278.48C734.69 278.45 734.91 278.29 735.23 278.01L739.46 274.27C739.79 273.98 739.98 273.78 740.03 273.67C740.08 273.56 740.09 273.43 740.06 273.27C740.03 273.11 739.93 272.94 739.77 272.76L739.58 272.54L739.76 272.39L742.73 275.75L742.56 275.91L742.37 275.69C742.2 275.51 742.04 275.38 741.87 275.33C741.75 275.29 741.62 275.29 741.47 275.34C741.36 275.37 741.15 275.53 740.83 275.81L736.59 279.55C736.27 279.84 736.08 280.04 736.03 280.15C735.98 280.26 735.97 280.4 736 280.56C736.03 280.72 736.13 280.89 736.29 281.07L736.48 281.28Z" /><path class="shp2" d="M748.18 283.04L745.84 284.68L745.7 284.46C746.23 283.96 746.54 283.39 746.64 282.75C746.74 282.11 746.63 281.56 746.32 281.1C746.09 280.74 745.8 280.52 745.47 280.44C745.14 280.35 744.85 280.4 744.6 280.56C744.44 280.67 744.33 280.8 744.25 280.95C744.15 281.16 744.1 281.44 744.09 281.77C744.08 282.01 744.13 282.53 744.23 283.32C744.38 284.43 744.36 285.25 744.19 285.79C744.02 286.32 743.69 286.74 743.22 287.06C742.62 287.45 741.95 287.56 741.21 287.38C740.47 287.2 739.87 286.75 739.39 286.04C739.24 285.81 739.12 285.58 739.03 285.35C738.95 285.12 738.87 284.81 738.79 284.43C738.75 284.21 738.69 284.05 738.62 283.94C738.56 283.85 738.46 283.77 738.32 283.72C738.18 283.66 738.02 283.65 737.84 283.69L737.71 283.49L740.41 281.7L740.54 281.89C739.88 282.55 739.5 283.23 739.39 283.94C739.29 284.65 739.4 285.25 739.74 285.76C740 286.16 740.32 286.4 740.69 286.49C741.06 286.58 741.39 286.53 741.67 286.34C741.84 286.23 741.97 286.08 742.07 285.88C742.17 285.69 742.23 285.45 742.25 285.18C742.27 284.9 742.24 284.45 742.16 283.84C742.05 282.97 742.01 282.33 742.05 281.89C742.08 281.46 742.19 281.07 742.37 280.73C742.54 280.4 742.8 280.12 743.13 279.89C743.7 279.52 744.33 279.4 745 279.56C745.68 279.71 746.23 280.1 746.66 280.74C746.81 280.97 746.93 281.21 747.02 281.47C747.09 281.66 747.14 281.92 747.19 282.23C747.23 282.54 747.28 282.75 747.35 282.84C747.41 282.93 747.48 282.99 747.58 283C747.67 283.02 747.83 282.98 748.08 282.88L748.18 283.04Z" /><path fill-rule="evenodd" class="shp2" d="M750.26 300.8L747.9 301.28C747.45 301.38 747.16 301.46 747.06 301.54C746.95 301.62 746.88 301.74 746.84 301.89C746.79 302.05 746.81 302.32 746.89 302.7L746.66 302.75L745.78 298.45L746.01 298.4C746.09 298.79 746.18 299.04 746.28 299.17C746.38 299.29 746.5 299.37 746.62 299.4C746.75 299.43 747.04 299.4 747.5 299.31L752.95 298.19C753.41 298.1 753.69 298.01 753.8 297.93C753.9 297.85 753.98 297.73 754.02 297.58C754.06 297.42 754.04 297.15 753.96 296.77L754.19 296.72L754.99 300.63C755.2 301.65 755.28 302.41 755.24 302.91C755.2 303.41 755.01 303.84 754.7 304.22C754.38 304.59 753.97 304.83 753.46 304.94C752.84 305.06 752.28 304.95 751.78 304.58C751.47 304.35 751.19 303.99 750.96 303.5L748.53 306.11C748.21 306.45 748.02 306.69 747.96 306.82C747.86 307.01 747.83 307.22 747.87 307.45L747.64 307.5L747.09 304.85L750.37 301.35L750.26 300.8ZM754.38 299.95L750.7 300.71L750.77 301.06C750.89 301.64 751.03 302.06 751.19 302.32C751.36 302.58 751.59 302.77 751.9 302.88C752.21 302.98 752.59 302.99 753.03 302.9C753.67 302.77 754.11 302.52 754.36 302.16C754.6 301.8 754.65 301.28 754.52 300.62L754.38 299.95Z" /><path class="shp2" d="M755.68 313.02L752.18 312.89L752.18 313.06C752.16 313.61 752.31 314.01 752.64 314.27C752.98 314.52 753.47 314.7 754.14 314.79L754.13 315.03L749.64 314.86L749.65 314.62C750.14 314.59 750.54 314.5 750.86 314.35C751.18 314.2 751.4 314.02 751.51 313.8C751.63 313.59 751.69 313.28 751.71 312.87L749.29 312.78C748.82 312.77 748.53 312.77 748.42 312.81C748.32 312.85 748.23 312.92 748.15 313.03C748.08 313.13 748.04 313.31 748.03 313.55L748.01 314.07C747.98 314.87 748.14 315.52 748.5 316.01C748.85 316.51 749.4 316.88 750.15 317.12L750.15 317.35L747.43 316.86L747.71 309.45L747.95 309.46L747.94 309.74C747.93 309.99 747.96 310.19 748.05 310.35C748.1 310.46 748.2 310.55 748.34 310.61C748.44 310.66 748.7 310.7 749.14 310.71L754.78 310.93C755.17 310.94 755.41 310.94 755.5 310.92C755.64 310.88 755.76 310.81 755.85 310.7C755.97 310.54 756.04 310.33 756.05 310.05L756.06 309.76L756.29 309.77L756.02 316.95L753.48 316.86L753.49 316.62C754.12 316.52 754.57 316.36 754.85 316.15C755.13 315.94 755.34 315.63 755.48 315.23C755.56 315 755.62 314.56 755.64 313.91L755.68 313.02Z" /><path class="shp2" d="M754.05 327.63L751.26 326.99L751.33 326.73C752.05 326.79 752.69 326.65 753.23 326.29C753.77 325.94 754.11 325.49 754.25 324.95C754.36 324.53 754.33 324.17 754.17 323.87C754.01 323.57 753.79 323.39 753.5 323.31C753.31 323.26 753.14 323.26 752.97 323.31C752.75 323.38 752.51 323.52 752.26 323.74C752.07 323.89 751.72 324.28 751.2 324.88C750.47 325.73 749.85 326.27 749.33 326.5C748.82 326.73 748.29 326.77 747.74 326.63C747.05 326.45 746.52 326.03 746.16 325.35C745.8 324.68 745.73 323.93 745.94 323.1C746.01 322.84 746.1 322.6 746.21 322.38C746.32 322.16 746.5 321.89 746.74 321.58C746.87 321.4 746.95 321.25 746.98 321.12C747.01 321.02 747 320.9 746.95 320.76C746.9 320.62 746.8 320.49 746.65 320.37L746.71 320.14L749.85 320.95L749.79 321.18C748.86 321.13 748.1 321.31 747.5 321.7C746.9 322.09 746.53 322.59 746.38 323.18C746.26 323.64 746.29 324.03 746.47 324.37C746.65 324.7 746.9 324.92 747.24 325C747.43 325.05 747.64 325.05 747.85 324.99C748.06 324.93 748.27 324.82 748.49 324.65C748.71 324.48 749.03 324.16 749.43 323.69C750 323.03 750.45 322.57 750.8 322.3C751.15 322.04 751.51 321.86 751.87 321.77C752.24 321.67 752.62 321.67 753.01 321.77C753.67 321.94 754.17 322.33 754.51 322.94C754.85 323.54 754.93 324.22 754.74 324.96C754.67 325.23 754.57 325.48 754.44 325.72C754.34 325.9 754.19 326.11 753.99 326.35C753.78 326.59 753.67 326.77 753.64 326.88C753.61 326.98 753.62 327.08 753.67 327.15C753.72 327.23 753.86 327.33 754.1 327.45L754.05 327.63Z" /><path class="shp2" d="M748.84 339.27L746.75 338.25L746.85 338.05C747.39 338.16 747.81 338.2 748.09 338.15C748.37 338.11 748.64 337.99 748.89 337.79C749.03 337.68 749.19 337.44 749.36 337.08L749.64 336.51L743.7 333.6C743.3 333.4 743.04 333.3 742.92 333.3C742.8 333.29 742.68 333.34 742.54 333.43C742.4 333.52 742.28 333.67 742.17 333.89L742.05 334.15L741.84 334.05L743.82 330.01L744.03 330.11L743.9 330.37C743.79 330.59 743.74 330.79 743.76 330.97C743.76 331.09 743.81 331.21 743.92 331.33C743.99 331.42 744.21 331.56 744.6 331.75L750.55 334.66L750.82 334.1C751.08 333.58 751.15 333.15 751.05 332.81C750.9 332.33 750.56 331.91 750.04 331.54L750.14 331.33L752.23 332.35L748.84 339.27Z" /><path class="shp2" d="M737.39 341.22L737.2 341.09L739.8 337.43L740 337.57L739.83 337.8C739.69 338 739.61 338.19 739.59 338.37C739.57 338.49 739.61 338.62 739.69 338.75C739.75 338.85 739.95 339.02 740.3 339.27L744.9 342.55C745.25 342.8 745.49 342.94 745.61 342.97C745.72 343 745.86 342.98 746.01 342.91C746.16 342.84 746.3 342.71 746.44 342.51L746.6 342.28L746.8 342.42L744.19 346.07L744 345.94L744.16 345.7C744.31 345.5 744.39 345.31 744.4 345.14C744.42 345.01 744.39 344.88 744.31 344.75C744.25 344.65 744.05 344.48 743.7 344.23L739.1 340.95C738.74 340.7 738.51 340.56 738.39 340.53C738.27 340.51 738.14 340.53 737.99 340.6C737.84 340.66 737.69 340.8 737.55 340.99L737.39 341.22Z" /><path class="shp2" d="M736.64 354.45L734.97 352.84L735.12 352.67C735.6 352.95 735.99 353.11 736.27 353.15C736.55 353.19 736.84 353.16 737.14 353.05C737.31 352.99 737.53 352.81 737.81 352.52L738.25 352.06L733.48 347.47C733.16 347.17 732.95 346.99 732.83 346.95C732.72 346.91 732.59 346.91 732.43 346.96C732.27 347 732.11 347.11 731.94 347.29L731.74 347.5L731.57 347.33L734.69 344.09L734.86 344.26L734.66 344.46C734.49 344.64 734.38 344.82 734.34 344.99C734.3 345.11 734.32 345.24 734.38 345.38C734.42 345.49 734.59 345.69 734.9 345.99L739.68 350.58L740.11 350.13C740.51 349.71 740.71 349.33 740.72 348.97C740.72 348.47 740.53 347.96 740.15 347.45L740.31 347.28L741.99 348.89L736.64 354.45Z" /><path class="shp2" d="M733.79 356.98L730.24 359.63L730.1 359.44L730.28 359.3C730.54 359.11 730.71 358.94 730.77 358.81C730.82 358.68 730.84 358.55 730.81 358.42C730.78 358.29 730.61 358.03 730.32 357.64L727.81 354.27C727.35 353.65 727 353.28 726.76 353.15C726.52 353.01 726.24 352.96 725.93 352.99C725.62 353.02 725.3 353.15 724.98 353.39C724.6 353.67 724.35 353.99 724.21 354.35C724.07 354.72 724.05 355.09 724.14 355.48C724.23 355.88 724.54 356.44 725.09 357.17L727.18 359.98C727.41 360.29 727.6 360.48 727.77 360.57C727.93 360.65 728.08 360.68 728.21 360.66C728.42 360.62 728.67 360.5 728.95 360.3L729.09 360.48L726.7 362.26L726.56 362.07L726.71 361.96C726.9 361.82 727.03 361.66 727.1 361.49C727.17 361.31 727.18 361.13 727.12 360.93C727.08 360.79 726.96 360.58 726.75 360.29L724.8 357.68C724.2 356.87 723.82 356.25 723.66 355.81C723.5 355.37 723.51 354.85 723.7 354.24C723.89 353.63 724.34 353.06 725.06 352.53C725.65 352.08 726.17 351.82 726.62 351.74C727.22 351.62 727.74 351.67 728.18 351.87C728.61 352.07 729.04 352.46 729.47 353.03L731.98 356.41C732.27 356.8 732.48 357.03 732.59 357.1C732.71 357.16 732.84 357.18 733 357.16C733.15 357.13 733.37 357.01 733.66 356.79L733.79 356.98Z" /><path class="shp2" d="M716.91 367.74L715.81 365.69L716.01 365.59C716.38 365.99 716.7 366.26 716.95 366.39C717.21 366.52 717.49 366.58 717.81 366.56C717.99 366.56 718.26 366.46 718.61 366.27L719.17 365.96L716.04 360.13C715.83 359.74 715.68 359.51 715.58 359.44C715.49 359.37 715.36 359.33 715.2 359.32C715.03 359.31 714.84 359.37 714.63 359.49L714.38 359.62L714.27 359.41L718.23 357.29L718.34 357.49L718.09 357.63C717.87 357.75 717.71 357.88 717.62 358.03C717.55 358.13 717.52 358.26 717.53 358.42C717.54 358.53 717.65 358.78 717.85 359.16L720.98 364.99L721.53 364.7C722.04 364.42 722.35 364.12 722.47 363.78C722.63 363.3 722.6 362.76 722.39 362.16L722.6 362.04L723.7 364.09L716.91 367.74Z" /><path fill-rule="evenodd" class="shp2" d="M706.84 365.24L709.68 364.17L709.72 363.26C709.74 362.96 709.71 362.72 709.65 362.55C709.56 362.33 709.41 362.19 709.19 362.16C709.06 362.13 708.77 362.18 708.34 362.31L708.26 362.09L710.93 361.08L711.02 361.3C710.74 361.46 710.55 361.66 710.44 361.93C710.33 362.2 710.25 362.69 710.21 363.4L709.75 370.89L709.63 370.94L704.26 365.44C703.75 364.92 703.37 364.61 703.13 364.51C702.95 364.44 702.74 364.44 702.48 364.51L702.4 364.3L706.29 362.83L706.37 363.05L706.21 363.11C705.9 363.23 705.7 363.36 705.6 363.49C705.54 363.59 705.53 363.69 705.57 363.81C705.6 363.88 705.64 363.95 705.69 364.02C705.71 364.05 705.83 364.18 706.04 364.4L706.84 365.24ZM707.21 365.6L709.45 367.92L709.64 364.68L707.21 365.6Z" /><g ><g ><path class="shp24" d="M685.36 267.69L685.36 264.55C673.73 262.9 663.07 263.26 655.15 265.94C665.75 265.29 675.68 266.18 685.36 267.69Z" /><g ><path class="shp25" d="M635.53 298.04C639.75 299.39 641.56 301.63 641.44 305.46C643.84 303.02 647.68 306.35 648.87 307.55C651.6 289.1 657.22 284.22 662.51 277.22L635.53 298.04Z" /><path class="shp25" d="M675.33 277.55C673.02 281.66 674.34 285.85 674.84 289.95L659.56 290.04C658 284.88 659.91 281.11 661.53 277.22L675.33 277.55Z" /><path class="shp25" d="M658.24 290.04C653.53 295.63 654.58 301.94 655.29 307.78L674.01 306.79C671.37 301.92 671.19 295.43 673.85 290.53L658.24 290.04Z" /><path class="shp25" d="M694.71 270.49C692.37 275.48 692.09 280.55 695.86 285.77L678.45 285.93C676.59 279.39 677.84 274.98 679.44 270.82L694.71 270.49Z" /><path class="shp25" d="M675.74 285.93C672.97 292.44 669.56 298.35 673.69 311.14L696.69 311.06C692.55 302.51 692.6 293.44 696.26 286.01L675.74 285.93Z" /><path class="shp25" d="M693.32 294.72C691.31 298.6 689.28 302.48 692.83 306.79L704.98 306.79C702.56 302.52 702.25 298.58 704 294.96L693.32 294.72Z" /></g><path class="shp26" d="M654.79 321.08L657.59 327.32C674.53 327.5 693.25 326.8 707.86 328.14L711.96 321.08L654.79 321.08Z" /></g><g ><path class="shp23" d="M642.14 312.87L654.87 321C646.01 313.46 640.33 304.01 633.44 295.29" /><path class="shp27" d="M670.4 321.08L670.4 266.88" /><path class="shp27" d="M698.82 320.92L698.82 271.8" /><path class="shp28" d="M685.19 320.92L685.19 263.26" /><path class="shp27" d="M674.3 285.93L696.9 285.93" /><path class="shp27" d="M657.09 290.04L673.97 290.04" /><path class="shp27" d="M692.58 294.96L704.53 294.96" /><path class="shp27" d="M661.04 277.55L677.11 277.55" /><g ><path class="shp23" d="M635.57 297.92L670.4 270.65L676.64 277.55" /><path class="shp23" d="M685.68 265.56L689.88 270.59" /><path class="shp23" d="M651.34 317.8L670.4 295.13" /><path class="shp23" d="M645.92 311.55L664.65 289.87" /><path class="shp23" d="M655.36 307.69L665.96 290.2" /><path class="shp23" d="M641.34 305.5L655.73 282.15" /><path class="shp23" d="M671.88 289.99L684.78 277.09" /><path class="shp23" d="M660.61 321L670.25 298.23" /><path class="shp23" d="M670.49 308.57L663.28 320.77" /><path class="shp23" d="M675.83 321.23L670.14 310.08" /><path class="shp23" d="M671.76 321L676.64 309.62" /><path class="shp23" d="M685.12 320.77L669.91 300.9" /><path class="shp23" d="M672.35 304.04L685.24 289.75L692.56 308.22" /><path class="shp23" d="M699.06 290.45L695.81 295.04" /><path class="shp23" d="M704.29 294.57L698.77 289.81" /><path class="shp23" d="M695.81 285.98L698.43 280.46" /><path class="shp23" d="M701.97 287.32L695.52 287.32" /><path class="shp23" d="M698.66 280.17L701.62 287.2" /><path class="shp23" d="M698.77 298.29L686 320.94" /><path class="shp23" d="M706.21 321.17L694.71 306.71" /><path class="shp23" d="M698.72 301.83L705.74 320.77" /><path class="shp23" d="M692.62 321L698.72 304.85" /><path class="shp23" d="M690.29 321.11L685.3 305.26" /><path class="shp23" d="M677.4 321.06L690.99 303.52" /></g></g><g ><path class="shp26" d="M629.16 322.03C629.16 322.03 630.05 324.79 634.17 324.7C637.72 324.61 639.23 321.98 639.23 321.98C636.42 322.82 633.39 322.83 629.16 322.03L629.16 322.03Z" /><g ><path class="shp25" d="M629.53 322.11C630.88 320.08 631.48 317.14 632.33 314.51C632.19 317.11 631.36 319.5 632.2 322.4L629.53 322.11Z" /><path class="shp25" d="M634.09 322.6C633.75 317.71 635.04 316.11 635.74 313.69C635.54 316.89 635.64 321.87 634.09 322.6Z" /><path class="shp25" d="M637.75 322.21C639.29 321.21 639.2 318.45 639.02 315.7C638.07 317.29 637.16 319.53 637.75 322.21L637.75 322.21Z" /></g><g ><path class="shp26" d="M612.57 319.23C612.57 319.23 613.46 322 617.58 321.9C621.13 321.82 622.63 319.19 622.63 319.19C619.83 320.02 616.8 320.04 612.57 319.23L612.57 319.23Z" /><g ><path class="shp25" d="M612.94 319.32C614.29 317.28 614.88 314.35 615.73 311.72C615.6 314.32 614.77 316.71 615.61 319.6L612.94 319.32Z" /><path class="shp25" d="M617.5 319.81C617.15 314.92 618.45 313.32 619.14 310.9C618.94 314.09 619.04 319.07 617.5 319.81Z" /><path class="shp25" d="M621.16 319.42C622.7 318.41 622.61 315.66 622.43 312.91C621.48 314.5 620.57 316.74 621.16 319.42Z" /></g></g></g><g ><path class="shp18" d="M674.96 360.91L701.68 380.86L701.34 381.28L711.03 387.74L700.51 400.51L692.18 393.17L691.57 394.02L670.03 378.35L674.96 360.91Z" /><path class="shp23" d="M691.59 393.77L701.61 380.87M699.77 383.25L709.36 389.76M697.94 385.55L707.51 392.23M696.6 387.16L705.48 394.42M695.04 389.25L703.75 396.4M693.4 391.14L701.96 398.67" /><path class="shp19" d="M672.99 364.11L696.4 381.42L691.06 389.67L672.41 376.22L672.99 364.11Z" /><g ><path class="shp18" d="M655.41 359.08L675.01 360.84L672.91 382.14L653.3 380.38L655.41 359.08Z" /><g ><path class="shp18" d="M657.85 362.17L670.6 363.36L669.15 379.04L656.4 377.86L657.85 362.17Z" /><path class="shp18" d="M661.92 369.35L664.93 369.63L664.59 373.34L661.57 373.06L661.92 369.35Z" /></g></g><g ><path class="shp29" d="M680.15 374.71C680.15 375.24 680.03 375.74 679.8 376.11C679.58 376.48 679.28 376.68 678.97 376.68C678.65 376.68 678.35 376.48 678.13 376.11C677.91 375.74 677.78 375.24 677.78 374.71C677.78 374.19 677.91 373.69 678.13 373.32C678.35 372.95 678.65 372.74 678.97 372.74C679.28 372.74 679.58 372.95 679.8 373.32C680.03 373.69 680.15 374.19 680.15 374.71L680.15 374.71Z" /><path class="shp29" d="M691.13 383.48C691.13 384 691 384.51 690.78 384.88C690.56 385.25 690.26 385.45 689.95 385.45C689.63 385.45 689.33 385.25 689.11 384.88C688.89 384.51 688.76 384 688.76 383.48C688.76 382.96 688.89 382.46 689.11 382.09C689.33 381.72 689.63 381.51 689.95 381.51C690.26 381.51 690.56 381.72 690.78 382.09C691 382.46 691.13 382.96 691.13 383.48L691.13 383.48Z" /><path class="shp30" d="M686.77 379.07C686.77 379.59 686.6 380.09 686.29 380.46C685.98 380.83 685.56 381.04 685.12 381.04C684.69 381.04 684.27 380.83 683.96 380.46C683.65 380.09 683.48 379.59 683.48 379.07C683.48 378.55 683.65 378.04 683.96 377.67C684.27 377.3 684.69 377.1 685.12 377.1C685.56 377.1 685.98 377.3 686.29 377.67C686.6 378.04 686.77 378.55 686.77 379.07L686.77 379.07Z" /></g><g ><path class="shp18" d="M596.45 369.34L596.45 388.29C620.39 394.27 635.34 433.17 675.25 433.17C715.16 433.17 730.11 394.27 754.05 388.29L754.05 369.34C715.15 369.34 710.16 409.23 675.25 409.23C640.34 409.23 635.35 369.34 596.45 369.34Z" /><path fill-rule="evenodd" class="shp18" d="M594.45 369.34L575.5 361.36L575.5 380.31L594.45 387.29L594.45 369.34ZM594.11 382.63L575.58 375.77M594.11 380.37L575.58 373.52M594.11 378.12L575.58 371.26M594.11 375.86L575.58 369.01M594.11 373.61L575.58 366.75M594.11 371.35L575.58 364.5M594.11 384.88L575.58 378.03" /><path class="shp18" d="M593.46 368.34L596.45 368.34L596.45 388.29L593.46 388.29L593.46 368.34Z" /><path fill-rule="evenodd" class="shp18" d="M756.05 369.34L775 361.36L775 380.31L756.05 387.29L756.05 369.34ZM756.39 382.63L774.92 375.77M756.39 380.37L774.92 373.52M756.39 378.12L774.92 371.26M756.39 375.86L774.92 369.01M756.39 373.61L774.92 366.75M756.39 371.35L774.92 364.5M756.39 384.88L774.92 378.03" /><path class="shp18" d="M757.04 368.34L754.05 368.34L754.05 388.29L757.04 388.29L757.04 368.34Z" /></g></g><path class="shp19" d="M596.45 384.3C628.14 389.29 630.27 428.18 675.25 428.18C720.23 428.18 722.36 389.29 754.05 384.3L754.02 374.33C716.53 374.34 714.72 412.23 675.25 412.23C635.78 412.23 633.97 374.34 596.48 374.33L596.45 384.3Z" /></g><g ><path fill-rule="evenodd" class="shp2" d="M612.04 379.01L611.71 377.92L610.53 377.19L610.94 376.53L618.43 381.14C618.66 381.29 618.99 381.5 619.41 381.78C619.76 382.04 620.04 382.33 620.27 382.64C620.61 383.03 620.81 383.45 620.88 383.89C620.93 384.3 620.81 384.76 620.52 385.27C620.31 385.61 620.02 385.84 619.65 385.97C619.26 386.13 618.86 386.18 618.44 386.14C617.95 386.07 617.46 385.95 616.97 385.77C616.69 385.68 616.52 385.63 616.44 385.6C616.49 385.68 616.59 385.8 616.74 385.96C617.43 386.61 617.96 387.26 618.33 387.91C618.5 388.24 618.59 388.61 618.58 389.02C618.58 389.33 618.49 389.63 618.3 389.94C617.88 390.58 617.43 390.95 616.94 391.07C616.7 391.13 616.44 391.15 616.17 391.12C615.92 391.12 615.64 391.08 615.33 391C614.83 390.87 614.36 390.68 613.91 390.45C613.45 390.21 613.06 389.99 612.75 389.8L605.51 385.34L605.92 384.68L607.2 385.47L608.22 385.22L612.04 379.01ZM616.43 385.58C616.42 385.57 616.41 385.57 616.4 385.59C616.4 385.59 616.41 385.59 616.44 385.6C616.44 385.6 616.44 385.59 616.43 385.58ZM610.91 386.87L611.17 387.91L612.68 388.84C613.03 389.05 613.32 389.17 613.56 389.19C613.91 389.21 614.2 389.18 614.42 389.08C614.88 388.84 615.22 388.54 615.43 388.18C615.56 387.98 615.67 387.74 615.77 387.48C615.85 387.25 615.88 387 615.85 386.73C615.84 386.46 615.74 386.19 615.57 385.92C615.38 385.64 615.07 385.37 614.65 385.11L612.73 383.92L610.91 386.87ZM613.17 383.21L614.82 384.22C614.98 384.33 615.19 384.43 615.44 384.54C615.67 384.64 615.94 384.7 616.23 384.72C616.5 384.74 616.78 384.69 617.09 384.55C617.35 384.43 617.6 384.19 617.83 383.8C618.19 383.19 618.29 382.71 618.11 382.34C617.88 381.87 617.53 381.5 617.06 381.21L615.7 380.37L614.74 380.65L613.17 383.21Z" /><path fill-rule="evenodd" class="shp2" d="M631.38 405.55L632.16 403.72L629.06 400.53L628.09 400.76L627.56 402.27L628.17 402.89L627.62 403.43L624.34 400.06L624.86 399.56C625.26 399.8 625.65 399.95 626.04 400.02C626.37 400.09 626.73 400.07 627.13 399.97L636.66 397.52L637.61 398.49L633.84 407.47C633.76 407.69 633.74 407.9 633.78 408.11C633.8 408.31 633.85 408.49 633.93 408.65C634.16 409.02 634.41 409.34 634.68 409.59L634.12 410.13L629.09 404.95L629.65 404.41L630.79 405.58L631.38 405.55ZM632.59 402.87L634 399.23L629.95 400.16L632.59 402.87ZM634.09 399.21C634.1 399.21 634.08 399.19 634.05 399.16C634.04 399.14 634.04 399.12 634.05 399.1L634 399.23L634.09 399.21Z" /><path class="shp2" d="M643.72 416.6L642.71 416.89L641.29 416.09L640.91 416.77L647.28 420.35L647.66 419.68L646.77 419.18L646.47 418.15L648.2 415.07L652.03 417.23L650.3 420.31L649.36 420.63L648.36 420.07L647.98 420.74L654.36 424.34L654.74 423.67L653.32 422.86L653.05 421.86L656.63 415.5L657.74 415.26L659.06 416L659.44 415.33L653.05 411.73L652.67 412.41L653.57 412.91L653.88 413.95L652.48 416.43L648.65 414.27L650.05 411.78L651.01 411.47L651.97 412.01L652.36 411.34L645.99 407.75L645.61 408.43L646.92 409.17L647.29 410.25L643.72 416.6Z" /><path fill-rule="evenodd" class="shp2" d="M672.41 426.01L671.77 424.14L667.33 423.83L666.77 424.64L667.38 426.12L668.25 426.18L668.2 426.95L663.5 426.62L663.55 425.9C664.01 425.82 664.41 425.67 664.74 425.46C665.03 425.29 665.29 425.04 665.52 424.7L670.99 416.51L672.34 416.61L675.52 425.81C675.61 426.02 675.74 426.2 675.91 426.32C676.06 426.46 676.22 426.56 676.38 426.63C676.8 426.75 677.19 426.82 677.57 426.83L677.51 427.61L670.3 427.1L670.36 426.33L671.99 426.44L672.41 426.01ZM671.52 423.22L670.14 419.56L667.75 422.95L671.52 423.22ZM670.2 419.49C670.2 419.48 670.18 419.48 670.14 419.47C670.12 419.47 670.1 419.45 670.09 419.43L670.14 419.56L670.2 419.49Z" /><path class="shp2" d="M687.18 426.98L692.91 424.9L692.64 424.17L691.37 424.64L689.65 423.7L687.34 417.33C687.32 417.29 687.31 417.28 687.3 417.28C687.32 417.28 687.33 417.29 687.36 417.32L694.35 424.38L694.86 424.19L695.16 414.72C695.16 414.59 695.19 414.48 695.23 414.38C695.24 414.34 695.25 414.33 695.24 414.33C695.23 414.33 695.27 414.44 695.34 414.66L697.83 421.49L697.34 422.47L695.69 423.06L695.96 423.79L703.5 421.05L703.24 420.32L701.74 420.87L700.8 420.42L698.31 413.56L698.85 412.56L700.23 412.06L699.97 411.33L694.38 413.36L694.1 420.03L694.26 419.97L689.49 415.13L683.65 417.26L683.91 417.99L685.87 417.28C686.09 417.21 686.22 417.2 686.27 417.25C686.35 417.36 686.41 417.49 686.47 417.65L688.79 424.02L688.14 425.81L686.92 426.25L687.18 426.98Z" /><path fill-rule="evenodd" class="shp2" d="M716.73 408.04L714.91 407.25L711.69 410.32L711.92 411.29L713.42 411.83L714.05 411.22L714.58 411.79L711.18 415.03L710.68 414.51C710.93 414.11 711.08 413.72 711.15 413.34C711.23 413.01 711.22 412.64 711.11 412.24L708.75 402.69L709.73 401.76L718.67 405.6C718.89 405.68 719.1 405.7 719.31 405.66C719.52 405.64 719.7 405.59 719.86 405.52C720.23 405.29 720.55 405.05 720.81 404.78L721.34 405.34L716.11 410.33L715.58 409.77L716.76 408.64L716.73 408.04ZM714.06 406.81L710.43 405.37L711.33 409.42L714.06 406.81ZM710.41 405.28C710.41 405.27 710.4 405.28 710.36 405.31C710.34 405.33 710.32 405.33 710.3 405.32L710.43 405.37L710.41 405.28Z" /><path class="shp2" d="M728.84 397.34L729.32 396.94L729.57 395.39C729.64 395.42 729.79 395.41 730.02 395.37C730.25 395.32 730.52 395.24 730.84 395.13C731.44 394.95 732.2 394.48 733.12 393.73C734.15 392.85 734.91 391.87 735.38 390.78C735.85 389.73 735.65 388.67 734.77 387.59C734.34 387.08 733.83 386.74 733.22 386.55C732.74 386.41 732.24 386.41 731.73 386.54C731.17 386.67 730.62 386.9 730.08 387.22C729.63 387.5 729.18 387.8 728.74 388.14C727.66 388.9 726.76 389.43 726.05 389.74C725.41 390.02 724.93 389.97 724.61 389.59C724.42 389.37 724.33 389.13 724.34 388.88C724.34 388.62 724.42 388.36 724.56 388.11C724.63 387.97 724.71 387.83 724.8 387.7C724.88 387.58 724.97 387.46 725.08 387.36C725.31 387.13 725.54 386.91 725.77 386.72C726.96 385.75 728.02 385.23 728.95 385.18C729.43 385.13 729.87 385.14 730.3 385.21C730.65 385.29 731.04 385.42 731.47 385.59L732 385.14L729.68 382.4L729.2 382.81L729.02 384.24C728.75 384.25 728.27 384.4 727.56 384.69C726.85 384.98 726.01 385.52 725.04 386.32C724.51 386.77 724.07 387.26 723.73 387.79C723.41 388.34 723.2 388.88 723.11 389.42C723.04 389.87 723.08 390.31 723.22 390.75C723.32 391.14 723.51 391.5 723.78 391.81C724.61 392.78 725.56 393.13 726.64 392.88C727.75 392.64 728.89 392.1 730.08 391.24C730.42 390.99 730.78 390.74 731.16 390.47C731.57 390.19 731.97 389.96 732.37 389.78C732.75 389.58 733.1 389.48 733.43 389.46C733.72 389.44 733.94 389.54 734.12 389.75C734.45 390.15 734.47 390.66 734.19 391.27C733.94 391.84 733.46 392.42 732.76 393.01C732.12 393.55 731.53 393.91 730.98 394.09C730.42 394.31 729.89 394.42 729.39 394.41C728.94 394.4 728.49 394.33 728.05 394.2C727.61 394.09 727.16 393.95 726.7 393.76L726.19 394.19L728.84 397.34Z" /></g></g><g clip-path="url(#cp1)"><g ><g ><path class="shp0" d="M0 0L450 0L450 300L0 300L0 0Z" /><path fill-rule="evenodd" class="shp31" d="M0 0L450 300M450 0L0 300" /><path class="shp32" d="M225 0L225 300" /><path class="shp32" d="M0 150L450 150" /><path class="shp33" d="M225 0L225 300" /><path class="shp33" d="M0 150L450 150" /></g></g></g></svg>