<svg version="1.2" baseProfile="tiny-ps" xmlns="http://www.w3.org/2000/svg" viewBox="0 0 900 600" width="900" height="600"><title></title><style>tspan { white-space:pre }.shp0 { fill: #efb22d } .shp1 { fill: #b50a1e } .shp2 { fill: #ffb835;stroke: #000000;stroke-width: 1.042 } .shp3 { fill: #ffffff;stroke: #000000;stroke-width: 0.521 } .shp4 { fill: #f0fff9;stroke: #00930f;stroke-width: 0.861 } .shp5 { fill: #f0fff9;stroke: #00930f;stroke-width: 0.701 } .shp6 { fill: #f0fff9;stroke: #00930f;stroke-linecap:round;stroke-linejoin:round;stroke-width: 0.701 } .shp7 { fill: #f0fff9;stroke: #00930f;stroke-linecap:round;stroke-width: 0.701 } .shp8 { fill: none;stroke: #00930f;stroke-width: 0.701 } .shp9 { fill: #f0fff9;stroke: #00930f;stroke-width: 0.985 } .shp10 { fill: #f0fff9;stroke: #00930f;stroke-width: 0.794 } .shp11 { fill: #f0fff9;stroke: #00930f;stroke-width: 0.836 } .shp12 { fill: #f0fff9;stroke: #00930f;stroke-width: 0.513 } .shp13 { fill: #f0fff9;stroke: #00930f;stroke-width: 0.625 } .shp14 { fill: #f0fff9;stroke: #00930f;stroke-linecap:round;stroke-linejoin:round;stroke-width: 0.836 } .shp15 { fill: #f0fff9;stroke: #00930f;stroke-width: 0.676 } .shp16 { fill: #f0fff9;stroke: #00930f;stroke-linecap:round;stroke-width: 0.613 } .shp17 { fill: #f0fff9;stroke: #00930f;stroke-width: 0.613 } .shp18 { fill: #f0fff9;stroke: #00930f;stroke-width: 0.759 } .shp19 { fill: #f0fff9;stroke: #00930f;stroke-linecap:round;stroke-width: 0.759 } .shp20 { fill: none;stroke: #00930f;stroke-width: 0.759 } .shp21 { fill: #00930f;stroke: #00930f;stroke-width: 0.759 } .shp22 { fill: none;stroke: #00930f;stroke-width: 0.868 } .shp23 { fill: none;stroke: #00930f;stroke-width: 0.875 } .shp24 { fill: none;stroke: #00930f;stroke-width: 0.876 } .shp25 { fill: #f0fff9;stroke: #00930f;stroke-linecap:round;stroke-width: 0.676 } .shp26 { fill: none;stroke: #00930f;stroke-width: 0.861 } .shp27 { fill: none;stroke: #00930f;stroke-width: 0.535 } .shp28 { fill: none;stroke: #00930f;stroke-width: 0.675 } .shp29 { fill: none;stroke: #00930f;stroke-width: 0.544 } .shp30 { fill: #f0fff9;stroke: #00930f;stroke-linecap:round;stroke-width: 0.561 } .shp31 { fill: #f0fff9;stroke: #00930f;stroke-width: 0.561 } .shp32 { fill: none;stroke: #00930f;stroke-width: 0.891 } .shp33 { fill: none;stroke: #00930f;stroke-width: 0.81 } </style><g ><path class="shp0" d="M900 600L900 0L0 0L0 600L900 600Z" /><path class="shp1" d="M0 600L900 600L900 0L0 600Z" /></g><path class="shp2" d="" /><path class="shp3" d="" /><path class="shp3" d="" /><path class="shp3" d="" /><path class="shp3" d="" /><g ><g ><path class="shp4" d="M448.35 269.54C451.05 270.95 455.17 269.99 455.55 266.48C455.94 262.97 453.5 260.44 449.69 261.27L448.35 269.54Z" /><path class="shp4" d="M449.58 261.8C452.45 262.86 456.36 261.38 456.19 257.83C456.02 254.28 453.23 252.06 449.62 253.37L449.58 261.8Z" /></g><g ><path class="shp4" d="M462.16 272.99C459.67 271.25 455.46 271.66 454.62 275.09C453.78 278.52 455.87 281.35 459.75 281.02L462.16 272.99Z" /><path class="shp4" d="M459.93 280.51C457.22 279.09 453.16 280.04 452.86 283.58C452.56 287.13 455.04 289.69 458.79 288.86L459.93 280.51Z" /></g><g ><path class="shp4" d="M458.91 286.49C456.42 284.75 452.21 285.16 451.37 288.59C450.53 292.02 452.62 294.85 456.5 294.52L458.91 286.49Z" /><path class="shp4" d="M456.68 294.01C453.97 292.59 449.91 293.54 449.61 297.08C449.31 300.63 451.79 303.19 455.54 302.36L456.68 294.01Z" /></g><g ><path class="shp4" d="M455.63 303.26C453.14 301.51 448.93 301.92 448.09 305.35C447.25 308.79 449.34 311.61 453.22 311.29L455.63 303.26Z" /><path class="shp4" d="M453.39 310.78C450.69 309.35 446.63 310.31 446.33 313.85C446.03 317.39 448.51 319.95 452.26 319.13L453.39 310.78Z" /></g><g ><path class="shp4" d="M452.82 322.31C450.61 320.21 446.39 320 445.05 323.27C443.71 326.55 445.37 329.65 449.25 329.9L452.82 322.31Z" /><path class="shp4" d="M449.5 329.42C447.03 327.61 442.88 327.96 442.06 331.42C441.25 334.88 443.32 337.78 447.16 337.51L449.5 329.42Z" /></g><g ><path class="shp4" d="M445.62 339.53C444.6 336.65 440.94 334.54 438.26 336.85C435.58 339.15 435.64 342.67 438.99 344.66L445.62 339.53Z" /><path class="shp4" d="M439.43 344.35C438.05 341.61 434.19 340.03 431.89 342.74C429.59 345.45 430.12 348.98 433.66 350.48L439.43 344.35Z" /></g><g ><path class="shp4" d="M438.03 282.48C439.36 285.22 443.25 286.9 445.65 284.3C448.05 281.71 447.59 278.22 444.03 276.63L438.03 282.48Z" /><path class="shp4" d="M443.63 276.99C445.31 279.55 449.33 280.68 451.3 277.72C453.28 274.77 452.35 271.33 448.67 270.23L443.63 276.99Z" /></g><g ><path class="shp4" d="M464 267.57C463.45 265.63 459.38 263.91 456.84 267.34C454.3 270.77 455.51 274.22 457.55 274.77L464 267.57Z" /><path class="shp4" d="M464.43 267.35C461.31 266.62 460.34 262.66 461.75 260.57C464.32 256.75 460.42 252.34 462.19 250.19C463.95 248.03 465.22 245.14 464.41 243.33C466.79 245.19 467.24 247.8 466.47 250.18C465.71 252.56 471.73 257.48 470.58 260.18L464.43 267.35Z" /><path class="shp4" d="M490.2 245.38C486.7 242.62 487.18 235.56 490.43 232.87C493.15 230.63 496.76 228.77 496.21 224.78C498.44 227.33 497.44 230.21 496.02 233.06C494.61 235.9 499.5 238.8 497.09 243.15L490.2 245.38Z" /><path class="shp4" d="M490.61 245.32C490.05 242.33 486.75 239.68 483.75 241.55C480.75 243.42 480.27 246.9 483.28 249.38L490.61 245.32Z" /><path class="shp4" d="M483.76 249.14C482.82 246.23 479.24 244.07 476.56 246.4C473.87 248.73 473.86 252.29 477.12 254.32L483.76 249.14Z" /><path class="shp4" d="M477.48 253.97C476.41 251.1 472.76 249.13 470.19 251.61C467.63 254.09 467.78 257.67 471.12 259.53L477.48 253.97Z" /></g><g ><path class="shp4" d="M510.65 246.94C512.2 244.32 511.46 240.15 507.97 239.59C504.48 239.02 501.83 241.33 502.46 245.17L510.65 246.94Z" /><path class="shp4" d="M502.98 245.3C504.19 242.49 502.92 238.52 499.36 238.5C495.8 238.48 493.45 241.16 494.57 244.83L502.98 245.3Z" /></g><path class="shp4" d="M421.84 296.3C425.25 293.43 432.07 295.32 434.04 299.05C435.69 302.16 436.78 306.07 440.8 306.34C437.85 308.02 435.23 306.45 432.73 304.49C430.24 302.53 426.4 306.73 422.63 303.5L421.84 296.3Z" /><path class="shp4" d="M401.15 310.35C404.56 307.49 411.38 309.38 413.36 313.11C415 316.22 416.09 320.13 420.11 320.4C417.16 322.07 414.54 320.5 412.05 318.55C409.55 316.59 405.72 320.79 401.94 317.56L401.15 310.35Z" /><path class="shp4" d="M395.03 341.38C394.88 336.92 400.59 332.74 404.74 333.49C408.2 334.12 411.95 335.68 414.65 332.69C414.13 336.05 411.28 337.13 408.2 337.88C405.12 338.64 406.05 344.24 401.17 345.21L395.03 341.38Z" /><path class="shp4" d="M430.17 231.57C422.13 233.91 421.1 245.29 411.82 248.43C402.55 251.57 401 260.5 393.83 257.83C400.83 256.19 401 247.29 408.3 245.56C416.86 243.53 421.09 229.44 427.9 227.68" /><g ><path class="shp4" d="M533.76 353.25C534.98 356.04 538.79 357.88 541.3 355.39C543.8 352.89 543.49 349.39 540 347.65L533.76 353.25Z" /><path class="shp4" d="M539.59 347.99C541.16 350.62 545.12 351.92 547.22 349.05C549.32 346.18 548.53 342.7 544.9 341.45L539.59 347.99Z" /></g><g ><path class="shp4" d="M429.48 295.78C430.47 298.66 434.12 300.8 436.82 298.51C439.52 296.23 439.48 292.71 436.15 290.7L429.48 295.78Z" /><path class="shp4" d="M435.71 291.01C437.06 293.75 440.91 295.36 443.23 292.67C445.55 289.97 445.04 286.45 441.52 284.91L435.71 291.01Z" /></g><g ><path class="shp4" d="M408.92 309.21C409.91 312.09 413.56 314.23 416.26 311.94C418.95 309.66 418.92 306.14 415.59 304.13L408.92 309.21Z" /><path class="shp4" d="M415.15 304.44C416.5 307.18 420.35 308.79 422.67 306.1C424.99 303.4 424.48 299.88 420.96 298.34L415.15 304.44Z" /></g><g ><path class="shp4" d="M395.88 333C398.47 334.61 402.65 333.96 403.3 330.49C403.94 327.01 401.7 324.31 397.84 324.85L395.88 333Z" /><path class="shp4" d="M397.69 325.37C400.48 326.64 404.48 325.46 404.58 321.91C404.68 318.35 402.05 315.94 398.36 316.97L397.69 325.37Z" /></g><g ><path class="shp4" d="M418.37 350.36C416.81 346.18 420.88 340.39 425.05 339.78C428.54 339.27 432.59 339.55 434.19 335.86C434.78 339.2 432.42 341.14 429.74 342.84C427.06 344.53 429.73 349.55 425.42 352.02L418.37 350.36Z" /><path class="shp4" d="M418.75 350.52C419.82 347.67 418.37 343.7 414.84 343.74C411.31 343.78 409.09 346.51 410.38 350.19L418.75 350.52Z" /><path class="shp4" d="M410.91 350.23C411.62 347.26 409.68 343.56 406.17 344.16C402.67 344.76 400.81 347.8 402.55 351.22L410.91 350.23Z" /></g><path class="shp4" d="M526.78 414.1C528.64 408.68 536.04 409.56 538.72 405.95C540.25 408.62 541.36 413.31 538.35 417.12C536.62 416.86 528.29 414.75 526.78 414.1Z" /><path class="shp5" d="M336.98 311.74C334.07 310.73 328.98 311.06 327.81 315.1C326.2 313 327.49 309.76 330.72 307.89C324.31 310.75 318.33 309.2 316.98 305.09C321.63 306.93 323.58 302.39 326.59 303.72C325.22 301.13 321.1 298.96 318.6 299.13C322.74 295.55 328.73 301.33 332.7 300.07L336.98 311.74Z" /><path class="shp5" d="M343.04 245.23C342.77 239.13 348.1 233.99 354.94 233.75C361.79 233.51 367.55 238.26 367.82 244.37C368.09 250.47 362.76 255.61 355.92 255.85C349.08 256.09 343.31 251.34 343.04 245.23Z" /><path class="shp5" d="M330.63 303.49C334.06 300.01 335.62 294.84 332.78 291.43C329.94 288.02 326.21 276.49 330.43 270.59C334.64 264.69 336.85 261.9 336.2 259.37C332.89 257.57 331.27 255.31 330.88 252.45C329.77 251.61 328.73 248.53 328.92 246.77C328.1 244.24 328.85 241.1 331.78 238.52C330.99 234.71 334.05 231.02 338.81 229.49C339.17 225.41 344.26 224.99 347.77 227.42C348.41 229.79 357.36 227.64 355.96 236.4C353.29 232.82 348.41 235.78 345.95 232.83C346.04 234.91 345.17 237.61 341.72 238.37C344.09 237.49 345.74 238.35 346.31 238.89C348.36 238.74 353.59 242.63 351.93 246.52C351.13 243.79 346.24 245.52 344.27 243.59C344.25 245.03 343.51 246.58 342.12 247.5C344.22 248.47 346.53 252.06 346.81 254.29C347.52 254.26 348.96 254.33 349.69 254.58C351.88 255.51 354.46 256.25 357.71 255.74C355.47 257.74 352.32 259.44 350.04 260.48C352.5 263.43 349.43 271.04 348.69 274.58C347.95 278.12 350.62 289.85 353.96 292.45C357.3 295.05 355.5 300.49 357.33 305.38C358.41 308.27 367.06 288.83 370.5 290.25C375.05 292.12 394.79 300.76 378.23 318.91C370.51 319.3 347.69 319.75 336.16 314.86C332.21 313.19 331.58 304.27 330.63 303.49Z" /><path class="shp6" d="M359.42 247.86C356.35 247.24 354.93 243.54 355.51 240.57" /><path class="shp7" d="M346.31 238.89C343.8 238.98 342.58 241.82 344.27 243.59" /><path class="shp7" d="M345.95 232.83C344.82 231.64 345.66 227.34 348.47 228.24" /><path class="shp7" d="M331.78 238.52C332 239.39 333.14 240.87 334.06 241.48" /><path class="shp7" d="M338.81 229.49C338.52 230.94 338.92 231.88 339.31 232.59" /><path class="shp7" d="M330.88 252.45C330.84 251.65 331.11 249.73 331.82 248.38" /><path class="shp7" d="M346.81 254.29C346.99 255.32 346.8 256.08 346.38 256.7" /><path class="shp7" d="M341.72 238.37C340.61 238.69 338.9 239.47 338.18 240.37" /><path class="shp6" d="M338.61 257.29C339.51 255.26 331.8 253.05 334.27 248.18" /><path class="shp6" d="M342.12 247.5C341.16 248.17 339.66 248.63 338.32 248.75" /><path class="shp5" d="M356.56 304.65C354.73 303.68 351.22 303.48 349.49 306.66" /><path class="shp8" d="M353.57 303.96C352.58 301.68 351.13 296.59 356.25 296.97" /><path class="shp8" d="M353.34 298.7C350.77 297.19 347.51 290.28 352.74 291.21" /><path class="shp8" d="M346.39 305.41C345.55 302.72 347.44 298.82 352.87 300.23" /><path class="shp8" d="M349.85 292.67C347.78 292.34 345.24 283.49 349.94 284.52" /><path class="shp8" d="M347.33 286.29C342.96 284.77 342.93 275.9 348.78 278.49" /><path class="shp8" d="M344.37 280.09C341.88 278.42 342.96 270.55 348.91 273.46" /><path class="shp8" d="M344.18 273.7C339.85 268.98 345.5 263.12 350.06 269.11" /><path class="shp8" d="M345.2 266.48C341.16 262.31 347.9 256.8 350.04 260.48" /><path class="shp8" d="M348.32 300.47C347.81 299.13 347.86 296.25 350.6 295.52" /><path class="shp8" d="M340.14 306.82C337.01 304.22 339.88 298.59 344.41 300.57" /><path class="shp8" d="M345.04 291.32C342.31 290.3 341 285 344.81 283.98" /><path class="shp8" d="M343.06 284.92C340.34 284.14 340.4 279.51 343.12 278.13" /><path class="shp8" d="M341.4 279.87C337.85 278.56 337.59 272.66 342.63 271.12" /><path class="shp8" d="M340.44 272.24C338.73 269.98 339.13 265.02 344.16 265.24" /><path class="shp8" d="M340.62 266.32C337.34 263 340.17 258.03 345.55 260.24" /><path class="shp8" d="M336.26 260.8C336.54 258.96 340.61 257.86 341.77 259.73" /><path class="shp8" d="M341.22 299.92C339.5 297.58 341 292.98 344.9 292.05" /><path class="shp8" d="M340.63 296.67C338.6 295.38 336.17 295.23 334.02 297.06" /><path class="shp8" d="M338.07 295.64C340.84 291.31 335.15 286.24 332.01 290.26" /><path class="shp8" d="M338.13 290.77C338.35 289.8 340.24 288.06 342.47 287.82" /><path class="shp8" d="M335.98 288.92C337.96 287.1 333.23 275.28 329.28 283.01" /><path class="shp8" d="M341.37 283.15C340.28 280.87 336.57 279.8 335.47 283.35" /><path class="shp8" d="M332.3 280.43C335.13 277.77 332.9 269.87 329.27 272.87" /><path class="shp8" d="M333.2 274.65C338.59 273.02 334.82 264.61 332.71 267.48" /><path class="shp8" d="M338.73 276.21C337.65 276.01 334.97 276.02 333.61 277.67" /><path class="shp8" d="M339.49 269C338.58 268.71 336.89 268.85 335.85 269.6" /><path class="shp8" d="M339.16 263.58C338.16 263.13 336.24 262.4 334.8 264.21" /><path class="shp9" d="M573.63 415.91C578.32 416.31 581.51 410.1 597.41 407.94C613.31 405.78 610.51 396.6 620.19 398.37C608.87 404.02 611.5 413.01 601.64 415.15C586.67 418.4 585.87 425.62 576.67 425.54C563.53 425.42 556.38 444.76 537.98 438.71C539.07 431.67 566.33 418.81 573.63 415.91Z" /><path class="shp4" d="M517.51 406.45C521.42 399.7 527.2 407.39 530.78 403C531.98 405.48 531.98 409.42 528.65 412.27L517.51 406.45Z" /><path class="shp10" d="M533.87 427.69C533.15 430.5 532.76 434.32 537.08 437.32C541.39 440.33 554.38 439.11 559.13 431.97C563.88 424.82 573.71 429.31 575.09 420.84C570.59 425.99 564.31 420.55 559.66 423.61C560.5 419.2 568.63 423.56 571.15 419.13C573.68 414.71 581.32 418.16 583.95 412.37C586.59 406.58 595.19 413.18 601.46 402.45C606.25 394.25 620.91 391.66 619.21 384.68C613.58 391.79 607.67 391.51 600.48 392.43C588.91 393.9 587.17 405.36 579.14 402.81C583.31 401.16 586.7 397.98 588.91 393.9C591.69 388.79 602.27 389.69 602.21 381.19C599.96 384.14 597.48 385.17 592.22 385.76C586.85 386.36 586.07 393.41 580.3 394.51C571.27 396.23 572.62 405.6 562.39 405.91C562.63 403.55 565.25 400.31 568.86 398.3C572.47 396.29 572.23 389.47 576.42 387.23C571.73 383.9 569.01 395.25 562.69 398.34C555.56 401.83 553.51 408.06 551 413.54C555.03 406.38 550.45 398.25 557.86 389.99C561.09 386.38 556.87 377.63 562.44 376.09C560.06 374.21 555.64 377.05 555.26 383.58C554.89 390.1 549.63 388.31 549.67 401.98C549.68 407.62 542.48 411.04 542.46 417.14C541.34 415.38 541.78 412.27 543.53 409.69C539.34 408.63 533.41 420.07 533.87 427.69Z" /><path class="shp11" d="M470.25 430.08C470.05 439.07 461.71 446.1 451.64 445.78C441.56 445.46 433.55 437.92 433.75 428.92C433.95 419.93 442.29 412.9 452.37 413.22C462.44 413.53 470.45 421.08 470.25 430.08Z" /><path class="shp12" d="M507.87 274.52C508.24 275.73 512.1 289.87 513.36 291.8C514.2 293.1 515.16 294.74 514.59 299.22C513.12 298.42 510.85 300.1 510.34 301.62C509.29 300.85 507.76 301.05 507.18 301.86C505.4 300.62 503.85 301.1 502.1 303.25C500.71 302.88 499.18 303.06 497.67 304.94C497.02 302.92 495.57 302.14 494.46 302.49C494.71 299.97 492.86 298.01 491.08 298.89C491.8 295.55 489.55 292.85 487.22 293.69C485.38 291.6 481.51 291.23 479.4 294.07C482.93 293.02 482.56 297.79 485.5 297.55C484.82 299.61 485.68 301.1 486.95 302.15C486.25 301.76 485.65 301.61 485.35 302.2C484.34 300.9 482.17 301.23 481.59 301.83C480.2 301.15 478.79 301.52 478.02 303.73C475.99 305.16 474.48 309.01 475.73 312.05C476.33 308.98 477.94 309.23 478.66 308.01C480.13 308.8 481.65 308.9 482.15 307.66C482.95 308.84 485.81 310 487.2 308.39C487.55 310.96 489.1 313.17 491.05 313.29C490.4 315.23 491.73 318.69 492.83 320.45C490.92 321.6 491.31 324.45 491.65 326.16C488.81 326.55 491.02 329.95 486.04 331.76C488.37 332.89 493.07 332.18 493.93 328.42C496.31 328.43 498.08 325.45 498.15 322.21C500.11 320.07 500.56 316.85 498.15 314.44C500.26 315.42 501.71 310.98 504.74 313C506.25 314.01 510.43 312.73 510.47 310.83C511.05 312.27 515.02 311.96 515.69 309.6C516.94 310.59 520.07 309.24 520.14 306.91C521.76 308 524.11 306.38 524.13 304.13C525.71 303.94 525.97 302.12 525.95 300.56C527.4 299.81 527.11 298.03 526.69 295.88C527.74 294.54 527.41 292.54 526.76 290.66C527.57 289.72 529.74 286.58 527.7 287.3L507.87 274.52Z" /><path class="shp13" d="M536.16 351.67C544.47 355.71 543.66 339.58 552.28 344.65C552.02 347.42 553.97 349.6 556.58 350.36C556.14 351.9 557.35 353.53 560.54 354.04C559.84 355.23 559.7 357.01 560.54 358.51C558.27 358.77 556.77 361.73 558.48 364.14C557 367.53 559.55 370.37 563.51 371.6C566.63 374.8 571.47 375.73 575.09 374.73C573.44 374.38 571.26 373.4 569.93 372.87C567.48 371.87 567.98 368.58 565.84 368.21C566.53 366.65 566.11 364.74 564.93 363.73C566.16 363.1 566.92 361.86 566.85 360.56C567.14 362.69 570.26 365.39 572.85 365.69C574.34 367.26 577.72 368.19 579.54 367.55C582.65 368.03 584.4 366.38 584.01 363.31C582.45 364.42 580.38 364.32 578.82 363.7C578.24 362.44 576.68 361.37 575.65 360.94C576.99 358.47 575.73 353.94 574.98 352.93C576.94 347.14 583.78 344.28 590.25 346.54C587.93 345.43 586.47 341.86 584.32 341.49C579.3 337.93 573.33 338.42 570.05 344.65C568.21 343.11 565.05 345.17 563.01 343.25C560.4 340.8 557.26 336.89 553.87 331.49C548.73 332.25 543.08 329.52 539.92 326.91C538.49 325.72 537.73 324.78 537.65 323.91L533.76 322.86L536.16 351.67Z" /><path class="shp14" d="M448.08 435.46C446.6 430.09 453.62 426.02 459.7 431.07C453.73 430.79 449.7 434.47 450.66 439.16" /><path class="shp13" d="M422.97 379.6C424.43 379.5 431.8 387.39 434.35 386.39C436.06 385.71 438.18 385 442.86 387.08C441.47 388.71 442.5 392.09 443.97 393.21C442.76 394.29 442.43 396.29 443.11 397.28C441.13 399.15 441.1 401.26 442.83 404.12C441.93 405.77 441.58 407.76 443.09 410.25C440.67 410.45 439.3 412.06 439.29 413.56C436.63 412.48 433.85 414.23 434.17 416.75C430.78 414.82 427.04 416.85 427.14 420.04C424.21 421.73 422.44 426.53 424.78 430.06C424.89 425.27 429.96 427.2 430.74 423.4C432.74 424.89 434.66 424.25 436.26 422.97C435.58 423.73 435.21 424.45 435.74 425C433.97 425.89 433.56 428.74 434.01 429.65C432.77 431.21 432.68 433.1 434.81 434.75C435.65 437.75 439.31 440.84 443.06 440.2C439.93 438.5 440.78 436.53 439.69 435.25C441.09 433.63 441.72 431.73 440.55 430.72C442.12 430.07 444.4 426.81 443.14 424.56C446.06 424.9 449.02 423.6 449.84 421.18C451.72 422.59 455.96 421.96 458.27 421.11C458.85 423.87 462.08 424.25 464.07 424.34C463.48 428.06 467.97 426.29 468.18 433.14C470.24 430.55 471.13 424.37 467.34 422.15C468.19 419.13 465.58 415.98 462.07 414.91C460.43 411.78 457.09 410.22 453.61 412.55C455.42 410.16 451.1 406.98 454.38 403.76C456.01 402.15 456.1 396.48 454.04 395.84C455.82 395.55 456.88 390.43 454.55 388.86C456.08 387.58 455.71 383.21 453.2 382.41C454.97 380.69 454.04 377.22 451.58 376.51C451.94 374.45 450.05 373.57 448.35 373.12C448.04 371.06 446 370.87 443.52 370.76C442.42 369.02 440.13 368.82 437.85 369.08C437.11 367.76 435.94 367.2 434.53 366.86L422.97 379.6Z" /><path class="shp15" d="M451.37 380.28C449.07 375.49 454.01 375.51 453.08 373.22C452.21 371.08 452.74 368.82 454.45 368.48C453.54 371.59 456.69 371.01 455.33 377.18C457.79 371.4 464.83 375.08 465.81 370.98C468.86 376.77 459.65 376 459.87 379.91C460.54 379 462.34 382.56 466.54 381.99C465.46 384.92 460.49 384.53 458.01 384.07L451.37 380.28Z" /><g ><path class="shp4" d="M529.96 255C532.28 251.51 537.12 252.49 538.99 255.14C540.85 257.79 540.29 261.5 538.21 263.02L529.96 255Z" /><path class="shp4" d="M518.62 248.87C519.76 244.1 524.98 243.89 527.73 245.27C530.48 246.66 532.08 251.61 529.96 255L518.62 248.87Z" /><path class="shp4" d="M510.84 247.7C509.29 243.53 513.35 237.74 517.52 237.13C521.01 236.62 525.06 236.9 526.66 233.21C527.25 236.55 524.89 238.49 522.21 240.18C519.53 241.88 522.21 246.9 517.89 249.37L510.84 247.7Z" /></g><g ><path class="shp4" d="M552.35 323.32C563.3 323.27 560.11 333.62 566.36 334.04C563.59 336.91 555.05 335.38 551.62 332.46L552.35 323.32Z" /></g><g ><path class="shp4" d="M550.81 298.93C557.36 299.36 558.83 301.21 559.22 308.84C559.69 318.33 548.17 318.69 550.81 298.93Z" /><path class="shp4" d="M548.61 288.88C559 285.26 563.15 303.48 573.36 300.94C569.32 307.07 561.14 300.16 557.86 300.6C552.3 301.34 540.64 298.28 548.61 288.88Z" /><path class="shp4" d="M553.35 313.74C558.52 311.54 563.27 320.44 562.02 324.1C560.42 328.75 549.34 324.16 553.35 313.74Z" /><path class="shp4" d="M546.18 276.51C549.13 272.52 554.46 276.27 554.97 281.26C555.49 286.25 552.82 293.01 549.22 291.24L546.18 276.51Z" /><path class="shp4" d="M535.88 264.43C540.17 262.35 545.47 261.87 545.82 266.95C547.71 267.47 549.39 273.75 544.94 276.08L535.88 264.43Z" /></g><path class="shp4" d="M520.56 353.57C523.34 350.09 530.4 350.61 533.07 353.87C535.29 356.6 537.13 360.22 541.12 359.7C538.56 361.92 535.68 360.89 532.85 359.46C530.02 358.04 527.08 362.91 522.75 360.48L520.56 353.57Z" /><path class="shp4" d="M506.42 372.89C509.2 369.41 516.26 369.92 518.92 373.19C521.15 375.92 522.98 379.54 526.98 379.02C524.41 381.24 521.54 380.21 518.71 378.78C515.87 377.35 512.94 382.22 508.61 379.79L506.42 372.89Z" /><g ><path class="shp4" d="M509.68 368.9C511.21 371.53 515.21 372.91 517.41 370.14C519.6 367.37 518.88 363.93 515.22 362.61L509.68 368.9Z" /><path class="shp4" d="M514.84 363C516.71 365.43 520.8 366.25 522.55 363.15C524.29 360.05 523.1 356.7 519.35 355.88L514.84 363Z" /></g><path class="shp4" d="M508.19 403.04C507.18 398.7 511.95 393.47 516.17 393.4C519.69 393.34 523.67 394.13 525.73 390.67C525.88 394.06 523.3 395.68 520.43 397.03C517.55 398.37 519.56 403.69 514.97 405.59L508.19 403.04Z" /><g ><path class="shp4" d="M509.68 395.92C512.69 396.34 516.25 394.05 515.43 390.61C514.61 387.18 511.46 385.62 508.16 387.68L509.68 395.92Z" /><path class="shp4" d="M508.24 388.21C511.3 388.25 514.47 385.54 513.12 382.25C511.77 378.96 508.39 377.82 505.43 380.27L508.24 388.21Z" /></g><path class="shp16" d="M566.28 344.48C565.96 345.89 565.9 347.43 566.15 348.45" /><path class="shp16" d="M560.9 358.58C561.69 358.06 562.51 358.03 563.05 358.04" /><path class="shp16" d="M560.2 365.31C560.3 364.18 561.05 363.33 561.76 362.96" /><path class="shp16" d="M567.03 368.06C564.98 367.88 563.51 370.78 565.72 372.4" /><path class="shp17" d="M559.63 340.53C560.44 341.4 558.72 344.13 557.31 343.08C555.9 342.04 556.97 339.02 558.48 339.61" /><path class="shp17" d="M556.77 342.26C553.79 342.18 553.67 337.93 556.3 337.3" /><path class="shp17" d="M554.7 338.58C553.14 339.39 551.43 335.52 553.69 334.43" /><path class="shp17" d="M552.71 335.57C550.49 336.18 549.89 332.01 551.86 332.01" /><path class="shp17" d="M549.12 330.66C548 330.97 548.3 335.58 550.67 334.01" /><path class="shp17" d="M553.06 337.91C551.57 339.46 549.07 336.03 550.23 334.35" /><path class="shp17" d="M556.15 350.47C556.4 349.09 557.29 347.77 559.68 349.22C561.34 350.22 561.17 353.33 560.1 353.6" /><path class="shp17" d="M557.56 348.62C556.94 347.14 558.42 344.37 560.72 346.13C562.45 347.45 561.49 349.92 560.52 350.17" /><path class="shp17" d="M561.65 341.51C562.6 342.36 561.88 345.71 560.72 346.13" /><path class="shp17" d="M558.14 343.3C557.68 343.96 558.07 345.37 558.55 345.73" /><path class="shp17" d="M548.36 341.29C549.54 340.18 552.42 341.92 551.57 345.16" /><path class="shp17" d="M549.88 341.05C549.67 340.29 550.03 338.43 551.1 337.79" /><path class="shp17" d="M548.08 338.97C548.56 338.51 549.67 338.62 550.1 339.13" /><path class="shp17" d="M546.84 337.13C546.98 335.85 547.9 334.29 549.04 334.03" /><path class="shp17" d="M551.47 342.66C553.62 341.75 555.66 346.11 552.94 348.6" /><path class="shp17" d="M554.28 346.05C555.43 345.63 556.91 346.6 557.39 347.78" /><path class="shp17" d="M556.91 342.65C555.88 342.77 554.79 344.34 555.13 345.99" /><path class="shp17" d="M554.43 340.13C553.51 340.22 552.48 341.52 552.63 342.64" /><path class="shp17" d="M562.96 341.32C563.88 340.97 564.47 342.71 564.14 344.2C563.82 345.64 562.7 346.88 561.38 345.54" /><path class="shp17" d="M563.11 345.91C563.93 347.51 562.64 349.9 561.24 349.67" /><path class="shp13" d="M404.82 213.01C405.29 213.61 418.45 209.55 423.36 218.24C426.62 224.03 422.33 243.67 422.44 244.13C422.83 265.96 416.2 270.8 404.39 276.77C393.56 282.24 377.91 289.13 369.47 300.79C359.43 326.12 372.05 370.26 378.27 373.07C398.64 382.28 426.65 387.51 450.67 381.49C457.46 378.45 458.39 370.78 465.98 363.12C473.84 355.2 467.13 340.61 468.22 323.95C469.38 306.25 475.28 288.89 479.85 285.94C486.62 282.02 500.23 278.64 508.57 280.7C521.13 283.79 528.09 295.37 532.33 305.63C528.47 323 513.47 334.45 493.73 345.1C462.81 377.9 492.7 439.68 541.69 433.48C548.23 430.81 558.42 423.95 567.87 419.39C581.33 412.9 593.31 408.52 591.17 405.75C577.83 406.11 550.81 423.3 539.34 416.18C520.04 412.99 502.45 389.08 510.3 371.21C516.06 362.88 522.59 354.36 535.49 353.65C545.43 353.1 549.39 339.05 552.95 332.83C554.89 329.44 553.62 326.59 555.98 314.6C558.34 302.6 544.49 271.2 534.64 259.08C525.18 247.43 491.87 228.98 465.28 259.5C450.9 276 453.99 305.63 445 330C437.33 347.69 421.99 351.6 414.02 349.9C405.55 348.08 392.86 340.39 400 318.58C404.43 308.65 428.2 300.9 436.91 290.61C444 282.23 450.87 274.69 451.52 271.57C452.02 269.19 457.5 251.9 456.3 245.92C454.26 235.85 456.17 236.65 456.09 231.69C455.81 214.6 459.18 218.63 455.35 211.51C447.26 166.03 400.81 208.51 404.82 213.01Z" /><path class="shp14" d="M454.84 437.15C454.87 435.84 456.03 435.14 457.15 435.18C458.32 435.22 459.42 436.16 459.39 437.63C459.37 438.58 458.13 439.31 457.17 439.28" /><path class="shp18" d="M461.53 208.06C464.86 207.96 465.97 213.28 465.03 217.42C463.85 222.64 469.66 226.45 463.49 232.84C464.45 227.75 462.51 224.13 460.28 223.17C458.06 222.21 454.81 220.5 454.43 216.89L461.53 208.06Z" /><path class="shp18" d="M432.93 219C425.55 219.16 422.07 228.61 413.47 229.17C404.85 229.73 401.5 236.97 396.01 233.07C402.34 233.27 404.51 225.73 411.12 225.92C418.87 226.15 425.68 215.12 431.89 215.17" /><path class="shp19" d="M423.57 236.37C423.41 235.8 422.48 234.26 423.49 233.07" /><path class="shp18" d="M443.64 223.95C441.74 229.13 438.89 232.05 433.74 226.63" /><path class="shp18" d="M439.5 229.5C440.99 235.22 435.72 239.05 431.33 231.95" /><path class="shp18" d="M448.28 235.03C442.24 238.71 435.94 232.38 443.56 226.28" /><path class="shp18" d="M434.64 235.32C433.71 240.62 429.67 240.38 427.44 237.07" /><path class="shp18" d="M451.75 237.12C449.22 241.92 443.2 244.34 439.78 239.71" /><path class="shp18" d="M443.77 242.19C441.25 249.41 432.04 247.21 432.61 239.02" /><path class="shp18" d="M444.18 236.3C441.91 239.11 438.38 241.9 433.99 237.45" /><path class="shp20" d="M455.7 240.03C453.79 240.56 453.67 242.32 450.16 239.37" /><path class="shp18" d="M455.75 242.64C456.86 247.82 451.35 250.07 447.29 241.54" /><path class="shp18" d="M435.25 222.03C437.58 225.07 446.39 227.34 444.91 217.95" /><path class="shp18" d="M436.32 216.36C441.36 221.04 450.51 218.41 444.77 210.23" /><path class="shp18" d="M447.45 209.1C452.44 210.79 452.67 220.88 444.87 221.72" /><path class="shp18" d="M463.23 236.21C461.23 240.64 450.61 235.41 457.43 227.4" /><path class="shp18" d="M457.02 224.4C455.64 225.46 452.36 227.01 448.34 225.14" /><path class="shp18" d="M457.32 217.24C456.38 218.76 453.44 219.2 450.68 216.88" /><path class="shp18" d="M443.53 184.16C451.35 182.72 467.29 180.56 469.22 187.34C466.27 184.51 455.36 182.76 443.79 188.65L443.53 184.16Z" /><path class="shp18" d="M439.7 182.43C450.7 175.15 454.39 178.86 461.01 177.31C467.23 175.85 475.6 177.96 475.41 183.56C469.36 176.97 460.33 180.9 455.85 180.23C449.7 179.31 444.7 183.2 442.2 184.92L439.7 182.43Z" /><path class="shp18" d="M411.63 171.52C419.07 162.8 426.55 168.27 431.75 165.26C439.31 160.87 454.98 159.74 459.12 165.94C446.95 161 438.06 169.51 430.16 170.85C424.52 171.8 417.54 175.57 411.63 171.52Z" /><path class="shp18" d="M426.73 175.41C436.69 168.36 449.87 163.63 453.53 168.34C447.19 166.6 443.54 170.78 438.03 172.39C432.53 174 432.93 179.15 426.73 175.41Z" /><path class="shp18" d="M452.89 202.66C460.95 202.12 475.2 205.31 478.46 216.43C467.12 214.84 451.47 208.31 452.89 202.66Z" /><g ><path class="shp18" d="M456.27 227.7C459.16 227.55 460.29 229.57 458.93 233.19C457.57 236.82 455.12 238.34 453.06 236.11L456.27 227.7Z" /><path class="shp18" d="M456.44 220.1C459.2 218.95 460.89 220.42 460.64 224.24C460.4 228.06 458.47 230.32 455.81 228.98L456.44 220.1Z" /><path class="shp18" d="M455.24 212.28C457.83 210.68 459.73 211.81 460.06 215.58C460.37 219.35 458.78 221.89 455.92 221.05L455.24 212.28Z" /></g><path class="shp18" d="M452.99 206.58C461.3 205.31 465.01 212.27 471.88 213.79C484.95 216.69 493.66 220.56 492.45 227.71C487.77 218.05 473.59 219.89 469.19 216.77C464.79 213.64 446.19 208.77 439.51 209.58C443.86 206.55 448.82 207.01 452.99 206.58Z" /><path class="shp18" d="M438.21 178.17C441.95 172.7 444.1 166.27 435.85 163.99C438.88 161.85 446.91 162.93 444.44 173.95C455.91 169.66 466.09 171.67 465.69 178.59C462.64 172.65 454.41 173.44 442.14 181.34C441.56 180.64 439.92 179.06 438.21 178.17Z" /><path class="shp18" d="M447.58 190.65C453.92 188.71 462.87 185.09 451.67 178.65C457.91 177.28 464.96 181.2 460.44 191.53C476.35 189.96 485.49 195.4 485.42 202.23C485.35 209.77 475.54 210.64 475.56 205.84C476.86 207.1 482.88 206.89 481.44 202.11C480 197.33 464.74 195.39 448.42 198.7C443.9 199.62 431.1 194.88 447.58 190.65Z" /><path class="shp18" d="M447.67 201.92C454.7 194.32 464.56 206.72 470.13 198.94C469.21 212.79 450.11 198.48 447.67 201.92Z" /><path class="shp18" d="M363.56 184.27C360.38 184.85 358.89 181.74 363.59 181.3C360.42 181.88 358.88 178.82 363.59 178.38C360.41 178.95 358.88 175.9 363.59 175.46C364.25 177.04 364.24 182.05 363.56 184.27Z" /><path class="shp18" d="M368.16 166.62C364.7 157.68 371.9 157.46 367.2 147.9C363.34 140.07 369.46 137.8 365.46 131.37C364.17 129.3 361.27 125.04 361.96 122.01C357.29 127.78 366.71 131.99 362.36 142.37C359.58 148.98 363.87 149.78 361.47 161.69C360.96 164.18 360.59 169.98 368.16 166.62Z" /><path class="shp18" d="M364.46 168.84C363.93 159.87 360.12 158.75 359.39 155.06C358 148.05 348.32 152.44 344.01 145.15C342.49 152.92 351.67 153.06 353.61 159.03C355.55 165.01 357.73 168.2 364.46 168.84Z" /><path class="shp18" d="M362.75 171.12C358.81 164.06 353.4 166.05 350.37 162.03C342.76 151.88 335.91 158.66 328.11 152.44C328.25 159.64 343.33 158.62 347.4 165.31C351.47 172 369.99 183.38 362.75 171.12Z" /><path class="shp18" d="M366.71 213.23C367.81 210.34 371.57 207.42 375.17 208.13C378.76 208.83 381.64 205.31 384.32 206.02C387 206.72 390.76 201.45 394.33 202.76C397.89 204.07 397.55 209.78 387.47 211.68C377.38 213.58 366.14 215.9 366.71 213.23Z" /><path class="shp18" d="M376.48 219.3C380.02 220.7 378.47 226.72 381.84 228.07C376.11 229.29 374.11 224.02 372.93 219.53L376.48 219.3Z" /><path class="shp18" d="M373.28 219.04C375.37 223.01 374.13 229.44 369.03 229.65C373.18 226.41 366.39 222.02 370.02 218.95L373.28 219.04Z" /><path class="shp18" d="M370.11 218.17C370.71 224.3 364.19 222.81 364.43 227.38C361.15 225.25 363.22 217.47 367.19 216.57L370.11 218.17Z" /><path class="shp18" d="M398.11 214.98C392.35 212.62 385.72 214.35 380.1 218.89C376.53 221.77 368.34 220.63 366.74 216.82C365.14 213.01 368.78 207.29 374.62 211.52C377.35 208.97 381.71 211.67 384.89 209.89C388.07 208.1 399.46 203.78 398.11 214.98Z" /><path class="shp19" d="M374.62 211.52C376.05 212.41 375.49 215.59 373.97 216.82" /><path class="shp19" d="M370.63 212.21C369.82 212.96 369.7 214.35 369.73 215.07" /><path class="shp19" d="M388.69 212.09C385.6 211.25 384.17 213.53 380.58 213.33" /><path class="shp18" d="M393.59 204.45C382.12 203.84 372.93 203.59 366.64 205.14C360.35 206.69 352.07 204.91 345.87 200.35C339.67 195.8 326.93 189.24 324.22 199.15C322.25 193.07 328.72 189.44 338.33 191.67C339.82 186.86 345.87 184.11 348.15 188.05C345.29 186.57 340.47 191.99 345.55 196.57C346.05 191.42 351.78 188.56 355.44 192.15C352.3 192.11 347.6 196.43 353.21 200.59C356.74 203.22 363.12 203.54 368.45 202.07C373.79 200.61 401.71 198.21 393.59 204.45Z" /><path class="shp18" d="M368.88 190.77C371.57 193.52 368.11 196.64 372.41 200.55C376.72 204.46 378.48 210.68 375.84 214.59C375.34 205.02 369.16 203.33 368.18 199.32C367.2 195.31 365.78 189.42 368.88 190.77Z" /><path class="shp18" d="M367.79 191.02C365.62 197.74 371.17 196.9 366.06 205.66C364.47 208.39 361.75 212.78 361.89 218.14C358.11 212.06 364.65 204.19 363.47 199.98C362.9 197.95 362.32 194.89 362.51 192.5C362.4 196.75 359.83 203.86 355.84 204.55C361.03 198.33 353.09 189.1 362.83 183.21C363.11 185.55 364.98 190.17 367.79 191.02Z" /><path class="shp18" d="M386.8 189.99C385.5 191.09 383.48 194.28 383.54 196.45C382.29 194.8 380.9 191.17 380.84 189C377.29 188.41 374.36 192.63 376.85 195.72C374.88 195.05 371.53 193.92 370.51 190.81C373.79 188.76 382.43 186.78 386.8 189.99Z" /><path class="shp18" d="M442.25 194.11C442.97 193.75 444.04 193.54 445.78 193.71C451.12 194.26 450.31 188.4 446.08 187.02C440.91 173.01 432.91 179.75 423.16 172.57C419.74 170.05 416.99 169.52 414.54 169.82C410.91 164.51 404.8 163.58 399.13 166.46C398.95 165.48 398.55 164.64 397.77 164.07C394.34 161.58 389.96 164.19 387.24 168.58C384.46 166.95 380.46 167.44 377.41 168.97C374.92 166.12 372.8 165.32 371.37 166.89C369.09 164.48 365.81 162.35 362.29 166.67C358.77 171 365.33 171.59 362.68 182.34C361.04 188.97 366.58 193.67 373 191.55C383.25 188.16 391.52 189.85 392.19 200.5C392.86 211.16 394.05 217.61 404.63 217.8C408.45 217.86 412.35 220.82 413.67 225.97C414.98 231.11 420.61 228.62 425.52 230.8C419.52 227.54 422.59 226.57 417.18 224.29C412.23 222.21 415.39 217.35 412.38 215.51C423.86 223.49 425.22 218.02 434.41 225.22C432.13 217.09 423.66 218.31 421.4 213.25C430.95 216.28 437.61 210.8 440.86 215.14C445.97 221.98 438.49 234 456.38 238.79C465.08 241.13 470.03 244.23 473.13 251.62C471.44 228.15 455.49 235.33 451.95 226.87C449.85 221.87 448.25 218.06 447.73 213.79C447.55 212.29 446.95 211.27 445.97 210.62C462.32 210.43 456.3 199.48 442.25 194.11Z" /><path class="shp19" d="M371.37 166.89C370.97 167.33 370.62 167.96 370.33 168.78C368.93 172.8 374.26 174.81 372.52 180.87C371.6 184.03 371.32 185.88 373.33 186.15C375.34 186.42 378.12 183.68 377.66 179.23" /><path class="shp18" d="M441.65 187.21C443.37 186.6 444.88 186.63 446.1 187.03" /><path class="shp18" d="M414.58 169.8C409.52 170.43 405.65 174.74 399.28 172.86C393.14 171.05 385.95 179.59 378.04 169.76C377.83 169.49 377.61 169.24 377.41 169" /><path class="shp18" d="M399.13 166.46C399.47 168.37 398.89 170.68 397.96 172.57" /><path class="shp18" d="M411.71 193.83C419.4 196.43 419.83 201.48 418.37 205.69C416.9 209.89 411.39 214.16 405.01 212C398.63 209.84 396.72 204.29 398.38 199.53C400.04 194.78 405.5 191.73 411.71 193.83Z" /><path class="shp18" d="M404.01 211.45C405 209.13 408.72 210.8 409.19 208.92C409.67 207.03 407.96 205.64 408.85 203.08C409.74 200.52 406.37 199.18 404.52 200.8C402.68 202.42 397.87 205.19 397.83 202.93" /><path class="shp18" d="M404.52 200.8C405.62 203.42 405 207.81 401.52 210.2" /><path class="shp18" d="M400.99 203.07C401.08 204.64 400.51 206.8 399.41 207.85" /><path class="shp18" d="M372.78 186.01C366.58 184.53 368.14 176.78 372.8 177.84" /><path class="shp18" d="M387.15 168.55C390.27 166.29 395.41 166.9 393.29 173.24" /><path class="shp18" d="M391.36 180.6C395.38 175.63 400.9 176.58 402.7 180.35C404.19 183.5 402.1 189.66 396.66 189.25C395.75 186.38 393.44 182.23 391.36 180.6Z" /><path class="shp18" d="M394.85 177.8C398.82 175.87 401.22 182.87 395.53 186.61" /><path class="shp21" d="M387.15 168.55C389.7 167.01 393.03 170.03 390.42 174C390.26 171.7 389.01 169.38 387.15 168.55Z" /><path class="shp21" d="M394.18 184.02C393.3 182.6 392.31 181.34 391.36 180.6C392.51 179.18 393.79 178.24 395.07 177.71C396.26 177.31 397.54 182.26 394.18 184.02Z" /><path class="shp19" d="M401.6 178.25C405.31 177.05 407.95 178.15 408.21 180.28C410.37 180.91 411.52 183.24 410.39 186.74" /><path class="shp19" d="M405.34 186.67C409.8 185.16 414.27 187.8 411.84 193.72" /><path class="shp19" d="M412.77 197.87C411.6 195.73 409.53 193.81 406.69 195.91" /><path class="shp19" d="M388.59 183.04C388.89 184.26 388.84 185.98 386.95 188C388.93 186.52 392.2 187.63 393.93 193.94" /><path class="shp19" d="M380.91 180.13C384.98 182.12 383.81 185.2 379.9 185.41" /><path class="shp19" d="M415.23 178.77C419.12 179.17 420.9 182.43 415.21 182.75" /><path class="shp19" d="M409.31 173.7C414.86 174.05 416.4 176.21 413.66 176.71" /><path class="shp19" d="M416.01 201.42C415.48 203.48 413.57 205.8 411.68 201.79" /><path class="shp19" d="M412.93 207.12C412.74 207.67 412.6 208.33 412.76 208.9" /><path class="shp19" d="M434.05 184.33C437.51 184.38 439.2 181.37 435.5 180.43" /><path class="shp19" d="M432.53 192.09C436.41 191.97 437.72 188.23 434.73 187.62" /><path class="shp19" d="M426.82 188.01C431.21 188.27 432.46 185.22 429.27 184.65" /><path class="shp19" d="M429.65 178.34C431.84 178.88 434.18 182.64 428.16 182.33" /><path class="shp19" d="M421.83 181.62C427.1 182.49 426.22 184.74 422.77 185.21" /><path class="shp19" d="M419.91 175.04C424.04 175.52 424.46 178.53 421.46 178.74" /><path class="shp19" d="M426.5 194.95C427.75 194.41 429.97 190.51 425.04 190.22" /><path class="shp19" d="M417.62 190.52C420.97 190.63 422.68 194.89 419.23 195.87" /><path class="shp19" d="M414.99 185.23C418.4 185.67 420.75 187.59 418.58 188.29" /><path class="shp18" d="M446.04 210.61C444.25 209.42 440.99 209.53 435.76 210.35C432.47 210.87 423.04 211.16 418.89 206.28C423.53 210.3 430.8 202.54 434.51 205.02C438.22 207.51 445.11 211.73 449.42 209.46C441.55 207.41 439.79 199.2 428.94 202.12C425.91 202.93 422.42 202.97 419.71 201.85C430.28 194.6 437.6 204.03 441.33 196.5C435.17 200.24 426.81 190.26 418 198.21" /><path class="shp18" d="M387.32 168.61C388.99 169.59 390.19 171.32 390.42 174" /><path class="shp18" d="M439.26 197.43C440.77 196.37 440.8 194.81 442.27 194.07" /><path class="shp22" d="M398.84 350.2C399.96 358.94 393.26 364.56 388.97 359.16" /><path class="shp22" d="M384.41 370.59C391.45 371.95 393.21 366.72 393.42 361.37" /><path class="shp22" d="M391.35 368.22C395.1 370.71 395.74 375.26 394.32 378.93" /><path class="shp22" d="M404.98 349.06C407.13 352.38 405.62 359.55 403.46 361.83C401.3 364.11 397.93 362.39 396.67 359.32" /><path class="shp22" d="M414.31 349.6C415.31 355.12 409.08 362.54 405.25 357.96" /><path class="shp22" d="M422.19 349.97C422.78 356.06 416.74 364.06 411.45 358.2" /><path class="shp22" d="M401.47 381.31C404.27 376.12 402.78 368.4 394.85 372.62" /><path class="shp22" d="M401.69 362.84C402.48 365.62 402.03 369.05 400.84 371.36" /><path class="shp22" d="M408.62 359.67C410.34 367.12 405.62 371.78 401.66 373.13" /><path class="shp22" d="M408.64 367.21C414.27 370.67 409.28 381.05 403.52 381.21" /><path class="shp22" d="M416.5 360.63C417.95 364.23 416.3 370.77 411.35 370.86" /><path class="shp22" d="M411.34 374.42C414.35 374.27 415.43 379.46 413.68 383.21" /><path class="shp22" d="M425.49 354.05C428.72 362.25 422.71 369.16 417.23 364.97" /><path class="shp22" d="M418.38 376.33C422.53 375.59 423.71 371.27 422.61 366.03" /><path class="shp22" d="M422.27 373.18C426.52 374.68 428.03 379.66 427.55 383.57" /><path class="shp22" d="M430.82 352.73C433.71 355.42 434 361.28 432.46 364.02C430.92 366.76 427.24 365.92 425.26 363.25" /><path class="shp22" d="M439.96 349.29C442.28 354.4 438.08 363.35 433.25 359.83" /><path class="shp22" d="M441.8 347.86C452.33 350.97 445.88 362.95 439.32 358.55" /><path class="shp22" d="M436.09 383.32C437.54 377.61 433.4 370.57 426.74 376.59" /><path class="shp22" d="M430.99 365.43C432.43 367.95 432.83 371.38 432.24 373.91" /><path class="shp22" d="M436.93 360.67C440.43 367.48 437.42 372.98 433.91 375.26" /><path class="shp22" d="M438.8 367.98C445.1 369.96 441.95 379.61 436.4 381.17" /><path class="shp22" d="M444.81 359.68C447.1 362.81 447.09 369.57 442.31 370.86" /><path class="shp22" d="M441.41 374.31C444.28 373.44 449.01 377.81 448.22 381.88" /><path class="shp22" d="M413.92 376.02C419.75 372.22 420.92 379.5 420.43 383.41" /><path class="shp23" d="M429.57 347.06C432.15 351.7 427.45 357.11 422.06 353.92" /><path class="shp23" d="M437.13 342.4C439.72 347.04 435.14 355.08 429.75 351.89" /><path class="shp22" d="M439.52 339.09C444.04 342.41 442.97 350.91 437.05 350.21" /><path class="shp22" d="M441.56 340.95C445.88 338.6 451.83 347.89 446.28 350.64" /><path class="shp24" d="M443.47 369.98C448.74 366.57 458.61 374.87 454.37 378.69" /><path class="shp22" d="M403.2 305.24C394.47 304.06 390.78 296.14 397.11 293.39" /><path class="shp22" d="M389.01 287.4C385.26 292.39 388.7 295.53 393.82 297.12" /><path class="shp22" d="M387.74 293.34C384.36 296.32 379.81 295.76 376.63 293.43" /><path class="shp22" d="M401.44 310.76C397.68 311.97 392.42 309.37 390.78 306.7C389.14 304.02 391.66 301.21 394.96 300.78" /><path class="shp22" d="M398.52 319.74C392.93 319.28 388.63 311.93 394.05 309.43" /><path class="shp22" d="M395.88 327.27C389.85 326.26 385.19 318.94 392.22 315.35" /><path class="shp22" d="M372.48 296.9C376.06 302.89 384.61 304.33 382.59 295.59" /><path class="shp22" d="M390.26 304.73C387.37 304.76 384.17 303.44 382.25 301.7" /><path class="shp22" d="M391.53 312.23C383.88 311.97 380.61 306.21 380.33 302.03" /><path class="shp22" d="M384.24 310.3C379.44 314.85 370.53 310.7 371.87 305.09" /><path class="shp22" d="M388.56 319.6C384.71 320.07 378.82 316.78 380.01 311.97" /><path class="shp22" d="M376.58 311.05C375.94 313.99 369.59 312.63 366.42 309.97" /><path class="shp22" d="M392.58 329.99C383.83 330.98 378.71 323.39 384.18 319.18" /><path class="shp22" d="M372.91 317.35C372.55 321.55 376.42 323.81 381.76 324.1" /><path class="shp22" d="M374.94 321.93C372.4 325.64 369.66 326.17 366.01 324.69" /><path class="shp22" d="M392.49 335.47C389.13 337.57 383.4 336.33 381.15 334.14C378.91 331.94 380.67 328.6 383.76 327.38" /><path class="shp22" d="M391.84 344.9C386.31 345.81 380.35 339.74 384.99 335.99" /><path class="shp22" d="M394 348.15C388.27 357.52 378.72 347.38 384.66 342.18" /><path class="shp22" d="M365.81 332.3C368.83 333.76 374.59 333.35 370.5 325.36" /><path class="shp22" d="M380.17 332.35C377.37 333.09 373.95 332.59 371.66 331.37" /><path class="shp22" d="M383.23 339.32C375.75 340.94 371.21 336.61 369.92 332.63" /><path class="shp22" d="M375.69 339.23C372.14 344.81 366.29 339.8 366.22 334.04" /><path class="shp22" d="M382.15 347.19C378.53 348.59 372.01 346.83 372 341.88" /><path class="shp22" d="M400.16 317.46C398.44 316.61 395.44 316.7 399.52 310.79" /><path class="shp22" d="M374.36 313.12C376.53 319.74 369.19 318.98 365.54 317.5" /><path class="shp23" d="M398.47 336.68C393.32 337.97 389.12 331.08 393.6 326.7" /><path class="shp23" d="M399.44 344.13C394.28 345.43 389.1 339.04 393.58 334.66" /><path class="shp22" d="M403.41 347.41C399.04 350.91 390.87 348.53 393.08 342.99" /><path class="shp22" d="M408.21 348.25C405.75 351.35 403.89 347.85 401.04 346.53C398.18 345.21 397.49 342.18 400 340" /><path class="shp22" d="M391.59 350.88C395.63 353.68 386.43 362.08 382.87 353.81" /><path class="shp22" d="M384.67 351C379.27 361.13 372.42 354.83 374.22 346.84" /><path class="shp24" d="M397.5 328.87C394.4 327.53 395.66 322.41 399.3 318.01" /><path class="shp22" d="M387.84 357.29C391.88 360.1 382.68 368.5 379.12 360.23" /><path class="shp22" d="M386.07 363.75C390.11 366.55 380.12 374.68 376.56 366.42" /><path class="shp22" d="M379.62 355.79C383.66 358.59 374.46 366.99 370.9 358.73" /><path class="shp22" d="M373.43 349.43C374.56 353.2 369.78 355.59 368.69 350.86" /><path class="shp22" d="M377.18 361.76C379.67 364.81 376.18 368.86 373.36 364.91" /><path class="shp22" d="M383.47 369.46C384.94 370.03 388.6 374.97 385 375.51" /><path class="shp22" d="M368.61 302.81C372.19 308.8 378.27 305.64 376.25 300.61" /><path class="shp25" d="M426.85 420.53C427.95 419.85 431.62 420.44 430.72 424.16" /><path class="shp25" d="M434.43 416.98C434.83 417.12 435.24 417.79 435.39 418.17" /><path class="shp25" d="M435.12 436.46C434.62 435.23 438.75 433.93 440.4 437" /><path class="shp25" d="M455.46 412.42C454.28 413.23 453.01 414.01 452.13 415.25" /><path class="shp25" d="M464.62 414.96C462.66 414.28 460.74 414.59 459.98 415.22" /><path class="shp25" d="M439.97 413.53C442.38 414.21 444.36 415.88 445.36 416.97" /><path class="shp25" d="M434.25 430.94C434.98 430.01 435.75 429.22 436.86 429.16" /><path class="shp25" d="M441.33 432.1C440.67 432.44 439.9 432.83 439.41 432.94" /><path class="shp15" d="M442.81 385.32C446.18 384.78 448.68 391.77 443.46 392.39" /><path class="shp15" d="M440.56 383.15C442.78 382.78 445.09 385.79 442.6 387.36" /><path class="shp15" d="M446.3 390.71C448.96 391.72 448.3 399.32 443.27 396.42" /><path class="shp15" d="M446.43 396.79C449.03 399.57 447.24 405.95 442.74 403.65" /><path class="shp15" d="M446.46 403.4C448.14 405.45 447.37 412.03 443.04 410.28" /><path class="shp15" d="M455.43 387.49C454.24 389.11 449.61 385.86 451.64 380.95" /><path class="shp15" d="M454.88 395.04C452.34 395.54 450.14 390.2 453.15 387.51" /><path class="shp15" d="M456.65 399.49C456.62 402 449.42 401.2 452.9 394.43" /><path class="shp15" d="M455.24 403.64C454.01 405.41 449.55 405.4 452.8 400.1" /><path class="shp15" d="M454.09 408.13C454.47 410.22 448.5 409.03 451.85 404.25" /><path class="shp15" d="M447.67 380.03C448.66 380.87 450.89 381.81 452.35 381.26" /><path class="shp15" d="M448.79 382.14C449.22 384.08 447.28 385.52 445.14 385.67" /><path class="shp15" d="M445.7 385.22C446.12 386.67 449.6 389.03 451.81 387.6" /><path class="shp15" d="M450.71 387.71C450.32 389.13 449.63 391.17 447.23 391.8" /><path class="shp15" d="M448.61 391.22C448.6 392.6 450.39 394.85 452.6 395.06" /><path class="shp15" d="M451.84 394.87C451.21 396.2 449.33 398.24 447.24 398.24" /><path class="shp15" d="M448.68 398.01C449.02 399.43 450.29 400.77 452.14 401.25" /><path class="shp15" d="M450.83 400.8C450.28 402.15 449.05 403.11 447.22 402.88" /><path class="shp15" d="M448.48 402.91C448.54 404.07 449.42 405.77 450.95 406.38" /><path class="shp15" d="M450.02 405.89C449.51 406.86 448.53 407.33 447.17 407.59" /><path class="shp15" d="M446.07 410.3C447.09 412.13 452.57 412.08 452.59 409.07" /><path class="shp26" d="M522.03 415.55C523.74 416.4 519.56 421.12 516.11 419.57" /><path class="shp26" d="M518.72 419.83C520.08 421.57 521.28 425.25 516.27 426.7" /><path class="shp26" d="M517.45 429.99C515.79 428.85 517.24 424.22 521.46 425.53C525.67 426.83 525.05 431.84 522.86 431.7" /><path class="shp26" d="M524.37 416.65C527.14 418.24 525.21 425.75 519.9 423.46" /><path class="shp26" d="M530.2 418.74C533.2 419.59 533.41 424.64 530.12 425.23C526.83 425.81 525.11 422.6 525.22 421.41" /><path class="shp26" d="M535.29 420.33C537.66 420.26 539.51 424.18 537.95 425.88C536.4 427.58 532.96 426.62 531.36 424.54" /><path class="shp26" d="M527.89 425.11C529.5 427.08 527.67 430.38 524.59 429.58" /><path class="shp26" d="M522.01 425.75C521.47 425.45 521.17 424.53 521.34 423.89" /><path class="shp26" d="M540.2 420C542.73 419.75 543.42 426.01 538.49 424.97" /><path class="shp26" d="M527.89 428.46C529.63 428.9 529.86 432.89 527.66 433.08" /><path class="shp26" d="M535.87 426.95C538.32 429.7 534.64 433.37 529.5 432.09" /><path class="shp26" d="M536.07 430.22C537.59 430.76 538.46 433.31 537.16 434.25" /><path class="shp26" d="M542.62 419.71C546.87 419.05 546.46 425.77 541.76 424" /><path class="shp26" d="M545.93 419.18C550.18 418.52 549.78 425.23 545.07 423.46" /><path class="shp26" d="M549.3 418.5C553.55 417.84 553.15 424.55 548.44 422.79" /><path class="shp26" d="M552.65 417.6C556.24 416.52 557.16 422.53 551.89 422.11" /><path class="shp26" d="M556.13 416.49C559.71 415.4 560.63 421.41 555.36 420.99" /><path class="shp26" d="M540.92 424.76C543 426.63 540.64 430.92 536.43 429.35" /><path class="shp26" d="M540.79 428.72C543.31 429.06 543.39 432.81 541.71 433.26" /><path class="shp26" d="M544.77 423.79C546.6 425.29 544.83 429.27 541.59 428.99" /><path class="shp26" d="M545.06 427.14C547.36 427.47 547.5 431.15 545.81 431.85" /><path class="shp26" d="M548.19 423.22C549.46 424.6 549.44 427.8 546.84 428.86" /><path class="shp26" d="M549.02 426.07C550.4 426.02 551.76 427.95 551.36 429.45" /><path class="shp26" d="M552.33 422.19C553.84 423.06 554.31 427.04 551.07 427.64" /><path class="shp26" d="M553.42 423.94C555.48 423.71 556.88 425.28 555.72 426.95" /><path class="shp26" d="M555.8 421C556.78 421.64 557.25 423.89 555.97 424.97" /><path class="shp26" d="M561.37 414.74C563.11 414.21 563.9 420.44 558.96 419.25" /><path class="shp26" d="M565.43 413.22C567.51 412.49 568.1 419.66 562.71 417.59" /><path class="shp26" d="M556.71 422.45C558.01 421.59 560.49 422.55 560.35 424.16" /><path class="shp26" d="M560.69 419.39C561.55 419.92 561.5 422.41 560.03 423.13" /><path class="shp26" d="M561.87 418.75C563.63 418.37 565.23 420.93 563.75 421.9" /><path class="shp26" d="M566.81 416.19C568.58 415.96 569.64 418.22 567.95 419.25" /><path class="shp26" d="M565.01 417.92C565.42 418.37 565.28 419.91 564.3 420.41" /><path class="shp26" d="M569.17 411.89C570.93 411.18 574.41 414.55 568.58 417.02" /><path class="shp26" d="M573.19 410.34C575.78 409.46 577.9 412.51 571.83 414.03" /><path class="shp26" d="M571.74 414.54C572.57 414.44 574.8 415.58 572.5 416.72" /><path class="shp26" d="M575.55 412.07C576.94 412.02 578 413.87 575.98 414.94" /><path class="shp26" d="M579.2 408.57C581.23 408.05 579.75 411.95 575.75 411.78" /><path class="shp26" d="M579.45 410.41C580.62 410.43 582.51 412.18 580.44 413.07" /><path class="shp26" d="M583.58 407.42C585.1 407.23 584.71 409.61 580.91 411.09" /><path class="shp26" d="M583.64 409.48C585.49 409.33 586.56 410.52 584.84 411.67" /><path class="shp26" d="M586.91 406.97C589.06 406.89 588.33 409.23 585.62 410.32" /><path class="shp22" d="M424.89 291.11C416.15 289.93 412.46 282.01 418.79 279.26" /><path class="shp22" d="M408.56 274.27C407.19 278.26 410.38 281.4 415.5 282.98" /><path class="shp22" d="M409.42 279.21C406.04 282.19 401.49 281.63 398.31 279.3" /><path class="shp22" d="M423.13 296.63C419.36 297.84 414.1 295.24 412.46 292.56C410.82 289.88 413.34 287.08 416.64 286.65" /><path class="shp22" d="M416.45 305.11C412.43 302.95 411.75 297.56 415.73 295.3" /><path class="shp22" d="M393.78 282.02C396.61 289.51 406.29 290.2 404.27 281.46" /><path class="shp22" d="M411.94 290.6C409.05 290.63 405.97 288.31 404.05 286.57" /><path class="shp22" d="M413.21 298.1C405.56 297.84 402.29 292.08 402.01 287.9" /><path class="shp22" d="M410.24 305.47C406.39 305.94 400.5 302.65 401.69 297.84" /><path class="shp22" d="M420.34 302.7C418.62 300.36 418.25 298.44 421.45 296.78" /><path class="shp22" d="M445.62 270.48C436.96 272.14 430.82 266.3 435.95 261.69" /><path class="shp22" d="M424.8 261.08C424.76 265.29 428.66 266.38 434.01 266.26" /><path class="shp22" d="M427.05 264.61C424.79 268.51 420.3 269.43 416.54 268.23" /><path class="shp22" d="M445.58 276.78C442.39 279.13 436.58 278.33 434.17 276.31C431.76 274.29 433.27 270.83 436.26 269.38" /><path class="shp22" d="M442.52 285.22C438.3 285.33 434.13 281.63 438.14 277.86" /><path class="shp22" d="M413.71 272.83C419 277.38 427.57 276.03 422.88 268.38" /><path class="shp22" d="M433.06 274.61C430.32 275.56 426.87 275.32 424.49 274.28" /><path class="shp22" d="M436.64 281.32C429.31 283.5 424.37 279.07 422.78 275.2" /><path class="shp22" d="M436.16 289.25C432.67 290.92 426.03 289.67 425.64 284.74" /><path class="shp22" d="M451.9 269.97C449.73 272.04 439.06 270.35 444.17 263.33" /><path class="shp22" d="M404.14 313.17C399.78 311.37 398.33 306.57 404.67 303.83" /><path class="shp22" d="M411.51 308.42C409.59 305.78 408.98 302.87 413.04 299.95" /><path class="shp22" d="M406.94 296.18C398.27 301.03 393.09 291.88 397.69 286.74" /><path class="shp22" d="M395.89 290.8C387.15 289.62 387.71 286.57 389.42 284.58" /><path class="shp22" d="M431.85 282.24C428.91 285.84 422.78 284.95 420.32 282.65C418.02 280.5 419.41 277.16 422.4 275.71" /><path class="shp22" d="M432.18 295.96C428.68 297.63 420.42 297.75 425.9 286.7" /><path class="shp22" d="M424.97 299.9C422 297.82 423.26 294.6 424.75 292.1" /><path class="shp22" d="M437.47 290.78C433 288.69 431.33 284.98 436.75 282.47" /><path class="shp27" d="M348.08 297.64C342.85 294.58 344.4 290.23 347.78 289.6" /><path class="shp8" d="M331.12 303.91C332.6 301.52 336.79 300.4 339.28 305.43" /><path class="shp8" d="M334.71 312.34C332.36 309.01 336.6 304.32 340.45 307.4" /><path class="shp8" d="M340.48 315.76C337.99 314.09 339.07 306.22 345.02 309.13" /><path class="shp8" d="M347.89 317.23C344.9 316.93 342.15 309.48 348.77 309.24" /><path class="shp8" d="M353.05 318.07C350.05 317.97 346.81 310.72 353.4 310.04" /><path class="shp8" d="M360.49 318.15C357.8 319.48 351.52 314.61 357.01 310.91" /><path class="shp8" d="M345.23 310.7C342.72 307.49 346.72 302.6 350.72 305.48" /><path class="shp8" d="M349.27 312.67C346.76 309.46 350.76 304.57 354.76 307.46" /><path class="shp8" d="M355.16 312.98C351.81 310.67 354.17 304.81 358.85 306.37" /><path class="shp8" d="M340.48 309.24C339.64 306.55 341.53 302.65 346.96 304.06" /><path class="shp8" d="M346.15 302.18C345.16 301.14 344.09 298.47 346.33 296.73" /><path class="shp8" d="M364.51 310.64C357.6 315.88 355.75 309.76 359.34 305.44" /><path class="shp28" d="M367.71 307.92C363.18 307.7 358.62 308.16 360.7 303.45" /><path class="shp27" d="M365.95 316.19C360.65 319.15 357.69 315.62 358.86 312.39" /><path class="shp8" d="M361.83 307.65C362.05 308.62 364.45 310.61 366.67 310.85" /><path class="shp28" d="M369.76 303.74C365.23 303.52 360.68 303.97 362.76 299.26" /><path class="shp29" d="M371.33 298.68C366.72 298.54 363.08 298.7 365.2 295.7" /><path class="shp22" d="M422.11 254.54C429.81 256.73 434.63 249.25 426.4 245.66" /><path class="shp22" d="M449.24 255.17C447.33 258.54 441.17 261.31 438.03 257.49" /><path class="shp22" d="M454.13 262.34C447.98 267.65 443.04 265.39 444.6 258.67" /><path class="shp22" d="M456.15 255.43C451.53 256.97 444.91 256.35 446.48 249.63" /><path class="shp22" d="M439.82 252.28C438.55 262.13 428.11 260.84 426.72 254.08" /><path class="shp22" d="M428.91 257.95C422.89 262.27 422.64 260.88 420.93 260.19" /><path class="shp22" d="M447.96 276.94C446.05 278.73 441.87 275.56 441.73 271.06" /><path class="shp22" d="M446.34 252.07C444.16 254.14 436.24 253.33 438.23 246.43" /><path class="shp22" d="M452.59 247.36C448.74 251.56 442.98 249.19 441.65 245.45" /><path class="shp22" d="M443.01 264.68C440.14 264.3 435.66 261.66 434.01 259.66" /><path class="shp22" d="M437.86 248.04C435.95 251.41 433.41 253.18 430.27 249.36" /><path class="shp22" d="M422.61 243.42C427.91 247.97 434.72 246.12 432.41 239.34" /><path class="shp30" d="M486.98 293.41C487.67 294.19 487.87 297.54 484.96 297.73" /><path class="shp30" d="M476.62 304.76C477.45 304.01 479.12 307.27 477.13 309.5" /><path class="shp30" d="M480.56 302.57C481.37 302.96 482.09 303.43 482.32 304.38" /><path class="shp30" d="M480.91 309.04C480.55 308.55 480.13 307.98 479.96 307.58" /><path class="shp31" d="M512.39 302.58C512.1 305.16 506.37 306.57 507.65 301.43" /><path class="shp31" d="M507.92 304.27C506.31 307.27 501.28 307.37 502.21 302.85" /><path class="shp31" d="M503.03 306.03C501.8 308.02 496.8 309.06 497.36 304.84" /><path class="shp31" d="M510.67 311.18C509.86 309.1 512.98 306.94 515.5 308.86" /><path class="shp31" d="M503.79 312.2C501.93 312.81 504.97 307.87 510.16 310.62" /><path class="shp31" d="M516.35 300.62C515.35 301.37 514.21 305.01 515.64 306.57" /><path class="shp31" d="M515.07 299.2C516.05 301.99 512.37 305.82 511.01 301.43" /><path class="shp31" d="M515.37 305.64C514.26 305.67 512.63 305.6 511.75 303.68" /><path class="shp31" d="M512.41 304.73C511.39 305.08 510.03 307.22 510.26 309.19" /><path class="shp31" d="M510.27 308.49C509.17 308.28 507.35 307.18 506.98 305.36" /><path class="shp31" d="M507.4 306.56C506.41 307.22 505.63 308.68 505.6 310.41" /><path class="shp31" d="M505.71 309.16C504.61 309.03 503.69 308.2 503.55 306.55" /><path class="shp31" d="M503.74 307.66C502.89 308.01 501.79 309.22 501.6 310.71" /><path class="shp31" d="M501.8 309.77C501 309.58 500.48 308.85 500.06 307.73" /><path class="shp16" d="M576.89 362.82C575.56 361.24 572.48 362.25 572.88 364.96" /><path class="shp22" d="M445.1 329.58C450.66 330.31 453.32 338.89 446.41 341.75" /><path class="shp22" d="M447.62 322.18C452.84 323.37 457.61 331.06 450.41 334.3" /><path class="shp22" d="M447.09 342.76C449.98 342.87 453.11 344.35 454.94 346.18" /><path class="shp22" d="M450.94 337.45C458.57 338.09 461.55 344.01 461.63 348.2" /><path class="shp22" d="M458.13 339.74C463.15 335.44 471.5 343.37 469.89 348.9" /><path class="shp22" d="M454.27 330.24C458.14 329.96 463.86 333.54 462.43 338.28" /><path class="shp22" d="M459.32 308.49C460.35 303.34 467.74 304.27 470.78 307.09" /><path class="shp22" d="M452.64 319.67C460.05 319.48 464.29 326.94 458.62 330.88" /><path class="shp22" d="M468.04 329.51C466.61 326.08 462.86 326.38 461.28 326.08" /><path class="shp22" d="M454.73 307.34C453.33 298.75 460.67 297.21 463.24 302.37" /><path class="shp22" d="M452.38 314.07C455.83 312.14 460.25 313.78 462.38 316.09C464.52 318.39 462.59 321.64 459.45 322.7" /><path class="shp22" d="M465.87 294.04C460.87 290.91 452.9 292.69 456.6 300.87" /><path class="shp22" d="M463.28 317.92C464.49 316.94 466.63 316.98 468.86 318.32" /><path class="shp22" d="M459.57 314.3C460.99 306.06 468.18 310.35 469.28 314.39" /><path class="shp22" d="M451.13 311.78C452.67 305.94 458.46 306.44 461.03 310.85" /><path class="shp24" d="M455.43 282.93C453.79 276.87 464.71 272.01 467.06 277.22" /><path class="shp22" d="M446.94 355.11C455.47 348.18 461.69 360.28 454.36 363.2" /><path class="shp24" d="M447.16 363.05C452.43 359.63 462.3 367.93 458.06 371.76" /><path class="shp22" d="M450.34 350.57C454.61 340.44 465.79 348.19 460.69 354.22" /><path class="shp24" d="M454.14 356.84C457.18 351.35 469.8 354.03 467.86 359.4" /><path class="shp22" d="M449.59 310.42C454.11 313.74 454.42 323.37 448.49 322.66" /><path class="shp22" d="M462.77 285.84C463.8 280.69 471.19 278.87 474.23 281.68" /><path class="shp22" d="M464.23 293.76C465.19 287.78 474.83 284.08 475.81 290.91" /><path class="shp22" d="M461.52 300.65C462.94 292.4 472.14 292.94 473.23 298.74" /><path class="shp22" d="M463.05 304.91C464.59 299.06 469.38 298.56 471.95 302.97" /><path class="shp22" d="M454.8 283.86C458.25 281.93 461.16 283.82 463.3 286.13C465.44 288.43 463.51 291.68 460.36 292.74" /><path class="shp22" d="M472.04 286.68C475 273.31 486.04 281.12 480.98 285.82" /><path class="shp22" d="M452.61 290.86C457.13 294.18 457.44 303.81 451.51 303.1" /><path class="shp22" d="M465.76 281.61C463.86 276.74 473.7 273.52 475.89 279.7" /><path class="shp22" d="M480.92 283.04C484.25 280.01 488.82 280.49 492.03 282.77" /><path class="shp22" d="M469.46 255.07C473.95 257.08 479.74 264.46 474.36 267.05" /><path class="shp22" d="M496.51 279.99C493.57 272.54 483.88 272 486.04 280.71" /><path class="shp22" d="M478.22 271.69C481.12 271.61 484.22 273.89 486.17 275.6" /><path class="shp22" d="M476.84 264.21C484.49 264.35 487.85 270.06 488.2 274.24" /><path class="shp22" d="M479.69 256.8C483.53 256.26 489.48 259.47 488.36 264.29" /><path class="shp22" d="M466.36 258.67C469.06 257.35 471.75 261.32 468.62 265.66" /><path class="shp22" d="M480.77 247.45C489.52 248.49 491.58 255.51 485.29 258.35" /><path class="shp22" d="M475.45 250.15C479.48 252.89 483.26 259.51 476.98 262.36" /><path class="shp22" d="M483.13 266.03C491.73 261.05 497.05 270.12 492.53 275.33" /><path class="shp22" d="M466.38 269.43C471.32 269.95 476.22 275.04 469.41 276.16" /><path class="shp22" d="M469.44 264.51C473.38 264.25 477.85 268.05 478.79 271.05C479.73 274.05 476.6 276.15 473.3 275.76" /><path class="shp22" d="M458.74 269.74C462.54 268.97 464.92 270.55 464.1 275.43" /><path class="shp22" d="M460.49 262.95C464.29 262.18 472.33 264.08 464.32 273.46" /><path class="shp22" d="M498.34 255.1C502.16 258.21 505.39 265.56 499.52 266.67" /><path class="shp22" d="M496.35 277.17C500.48 275.37 504.65 277.28 506.97 280.47" /><path class="shp22" d="M488.6 256.41C492.56 256.4 496.77 260.48 497.52 263.53C498.27 266.58 495.01 268.48 491.74 267.89" /><path class="shp22" d="M495.84 249.83C499.45 253.18 501.16 259.19 495.24 259.93" /><path class="shp22" d="M510.69 281.74C513.1 270.91 502.68 267.66 501.94 276.6" /><path class="shp22" d="M497.42 265.56C500.19 266.41 502.41 269.56 503.7 271.8" /><path class="shp22" d="M502.74 261.56C509.94 264.14 507.06 267.09 506.06 271.16" /><path class="shp22" d="M503.57 251.91C507.38 252.64 511.99 257.57 509.39 261.78" /><path class="shp22" d="M487.78 244.51C490.76 244.12 494.6 253.67 490.25 256.77" /><path class="shp22" d="M507.58 243.4C515.54 247.18 515.25 254.49 508.38 255.18" /><path class="shp22" d="M501.59 243.17C504.53 247.05 506.09 255.63 499.22 256.31" /><path class="shp22" d="M503.88 261.76C513.61 259.79 515.76 270.08 509.81 273.58" /><path class="shp22" d="M512.77 270.26C520.73 274.04 516.09 281.37 513.86 282.75" /><path class="shp22" d="M496.48 243.61C500.1 246.95 496.99 251.74 491.07 252.48" /><path class="shp22" d="M520.92 248.27C524.27 250.39 525.63 256.09 524.63 259.07C523.62 262.05 519.85 261.9 517.41 259.64" /><path class="shp22" d="M527.75 253.8C530.97 258.38 528.08 266.38 522.69 263.82" /><path class="shp22" d="M526.61 272.17C529.7 277.45 529.31 286.29 522.05 283.19" /><path class="shp22" d="M513.91 250.53C518.6 256.57 516.26 262.78 513.23 265.67" /><path class="shp22" d="M538.98 264.57C539.49 271.16 534.55 272.82 531.04 268.25" /><path class="shp22" d="M528.54 260.65C531.36 263.3 531.72 271 522.49 272.98" /><path class="shp22" d="M534.54 300.88C536.24 298.4 530.89 294.72 526.78 294.24" /><path class="shp22" d="M530.41 267.17C536.77 273.27 534.21 282.06 527.48 280.55" /><path class="shp22" d="M531.33 280.31C535.42 285.87 529.83 296.25 523.7 289.22" /><path class="shp22" d="M542.08 280.21C547.48 282.54 539.5 293.59 532.27 287.13" /><path class="shp22" d="M521.29 267.31C524.01 268.59 524.73 275.96 517.59 276.61" /><path class="shp22" d="M534.53 297.85C540.83 294.87 535.23 290.06 531.65 288.43" /><path class="shp23" d="M517.47 276.52C522.83 275.05 526.57 283.1 520.34 282.46" /><path class="shp24" d="M522.15 260.14C524.7 265.31 518.73 269.84 513.01 269.85" /><path class="shp22" d="M523.27 290.1C525.59 283.51 519.27 279.61 516.7 284.39" /><path class="shp22" d="M542.66 272.23C546.17 281.52 536.36 285.29 531.95 279.98" /><path class="shp22" d="M530.31 311.41C541.39 310.85 538.91 299.41 530.09 301.09" /><path class="shp22" d="M424.12 229.04C429.42 233.59 436.23 231.74 433.91 224.96" /><path class="shp22" d="M432.11 233.41C430.2 236.79 427.04 240.81 423.89 236.99" /><path class="shp32" d="M543.84 336.37C541.34 343.6 530.52 340.53 536.63 334.5" /><path class="shp32" d="M512 350.84C508.09 354.14 503.41 349.31 502.15 345.36" /><path class="shp32" d="M524.67 346.3C517.58 342.05 517.84 333.86 525.43 334.23" /><path class="shp32" d="M515.78 330.69C515.17 334.15 518.88 335.14 520.19 336.31" /><path class="shp32" d="M515.66 354.44C512.08 361.79 504.29 358.61 504.81 353.17" /><path class="shp32" d="M519.97 350.21C515.61 349.64 514.14 346.27 513.45 343.25C512.75 340.23 516.42 338.9 519.99 339.96" /><path class="shp32" d="M513.65 341.33C511.95 341.35 508.71 339.8 508.62 336.47" /><path class="shp32" d="M515.08 346.28C509.04 351.7 503.71 342.92 504.98 339.2" /><path class="shp32" d="M519.59 353.19C514.81 356.72 511.64 352.91 511.73 348.03" /><path class="shp32" d="M525.52 356.14C523.15 350.94 524.6 340.43 529.79 344.48" /><path class="shp32" d="M506.44 351.35C501.65 354.89 496.86 352.43 496.95 347.55" /><path class="shp22" d="M552.8 295.63C553.44 300.51 545.96 304.75 543.37 299.29" /><path class="shp22" d="M542.52 321.58C541.54 326.74 534.14 325.9 531.07 323.12" /><path class="shp22" d="M541.44 295.7C547.4 303.86 537.69 308.41 536.94 303.32" /><path class="shp22" d="M547.11 322.68C548.61 331.25 541.3 332.88 538.66 327.75" /><path class="shp22" d="M549.39 315.93C545.96 317.9 541.52 316.3 539.36 314.03C537.19 311.74 539.08 308.48 542.22 307.38" /><path class="shp22" d="M534.63 330.62C536.82 336.06 548.18 338.09 545.33 329.17" /><path class="shp22" d="M538.44 312.21C537.25 313.2 533.6 312.43 531.36 311.12" /><path class="shp22" d="M542.2 315.78C540.87 324.03 533.63 319.83 532.48 315.8" /><path class="shp22" d="M550.66 318.19C549.19 324.06 543.4 323.63 540.77 319.25" /><path class="shp22" d="M555.22 318.85C546.84 317.63 544.63 307.75 550.54 306.88" /><path class="shp22" d="M538.83 325.21C537.36 331.07 532.58 331.63 529.95 327.25" /><path class="shp22" d="M549.43 339.13C544.87 335.87 544.45 326.25 550.38 326.88" /><path class="shp22" d="M554.2 326.56C550.98 328.93 550.18 327.25 547.55 322.87" /><path class="shp22" d="M541.17 287.77C543.67 294.81 539.93 299.68 536.33 296.2" /><path class="shp22" d="M550.09 286.96C551.55 295.65 543.63 294.55 541.22 293.51" /><path class="shp22" d="M547.97 281.5C547.06 285.44 546.01 284.72 543.6 283.68" /><path class="shp22" d="M555.31 304.26C549.32 310.23 540.46 307.08 543.3 301.83" /><path class="shp22" d="M542.16 302.62C546.32 306.72 537.26 311.09 537.29 307.73" /><path class="shp22" d="M527.17 320C533.54 323.01 532.76 317.1 532.95 311.92" /><path class="shp22" d="M520.36 327.63C526.74 330.65 530.71 328.48 530.89 321.8" /><path class="shp32" d="M525.33 328.69C520.69 336.99 532.62 336.21 536.49 334.31" /><path class="shp32" d="M537.28 340.83C534.78 348.07 522.71 341.75 528.82 335.71" /><path class="shp32" d="M536.05 352.42C530.9 353.99 527.31 344.92 534.32 344.51" /><path class="shp32" d="M545.07 349.61C539.97 351.27 535.06 348.02 537.84 340.95" /><path class="shp32" d="M547.27 342.62C542.83 344.79 539.28 342.65 540.79 339.46" /><path class="shp32" d="M521.68 357.39C515.74 358.17 520.12 344.71 524.07 348.98" /><path class="shp32" d="M504.71 343.62C503.73 348.65 497.05 347.81 493.6 345.53" /><path class="shp31" d="M515.56 308.97C514.76 306.89 517.44 304.55 519.95 306.47" /><path class="shp31" d="M520.07 306.4C519.26 304.32 521.33 301.99 523.84 303.91" /><path class="shp31" d="M523.72 303.65C522.91 301.57 522.94 298.53 525.46 300.44" /><path class="shp31" d="M525.84 300.64C525.03 298.56 524 293.22 526.52 295.14" /><path class="shp31" d="M497.24 313.75C495.38 314.35 498.42 309.41 503.61 312.17" /><path class="shp31" d="M523.54 293.48C522.83 294.5 522.92 298.32 524.77 299.34" /><path class="shp31" d="M524.22 298.55C523.17 298.93 521.61 299.39 520.16 297.84" /><path class="shp31" d="M521.13 298.63C520.27 299.28 519.66 301.75 520.52 303.55" /><path class="shp31" d="M520.29 302.88C519.19 303.03 517.11 302.57 516.18 300.96" /><path class="shp31" d="M521.72 293.65C522.7 296.45 516.1 302.13 514.74 297.75" /><path class="shp31" d="M522.33 289.91C523.3 292.71 516.18 298.03 514.82 293.65" /><path class="shp31" d="M519.41 286.43C520.39 289.23 513.62 293.85 512.26 289.47" /><path class="shp32" d="M506.16 359.41C502.24 362.71 497.56 357.87 496.31 353.93" /><path class="shp32" d="M509.81 363.01C506.23 370.36 498.44 367.18 498.96 361.74" /><path class="shp32" d="M513.75 361.76C508.96 365.29 505.79 361.48 505.88 356.6" /><path class="shp32" d="M500.59 359.92C495.81 363.46 491.01 361 491.1 356.12" /><path class="shp32" d="M498.86 352.19C497.88 357.22 491.2 356.38 487.75 354.09" /><path class="shp32" d="M501.74 369.88C498.53 373.87 493.01 370.02 491.03 366.39" /><path class="shp32" d="M506.02 372.71C503.91 380.62 495.66 378.99 495.12 373.54" /><path class="shp32" d="M509.64 370.74C505.62 375.12 501.78 371.98 500.93 367.18" /><path class="shp32" d="M496.38 371.45C492.36 375.83 487.18 374.34 486.33 369.53" /><path class="shp32" d="M493.2 364.19C493.2 369.31 486.49 369.77 482.66 368.18" /><path class="shp32" d="M500.89 381.18C498.48 385.7 492.34 382.94 489.72 379.74" /><path class="shp32" d="M505.62 383.17C505.02 391.32 496.61 391.26 495.07 386.01" /><path class="shp32" d="M508.82 380.55C505.68 385.61 501.32 383.24 499.6 378.67" /><path class="shp32" d="M495.92 383.72C492.78 388.77 487.41 388.27 485.69 383.7" /><path class="shp32" d="M491.44 377.18C492.4 382.21 485.88 383.91 481.83 383.06" /><path class="shp32" d="M502.48 392.5C501.74 397.57 495.03 397.06 491.48 394.94" /><path class="shp32" d="M507.6 392.76C509.8 400.64 501.87 403.44 498.64 399.02" /><path class="shp32" d="M509.71 389.22C508.48 395.04 503.58 394.29 500.41 390.58" /><path class="shp32" d="M498.66 396.58C497.42 402.4 492.2 403.74 489.03 400.03" /><path class="shp32" d="M492.23 391.94C494.84 396.35 489.28 400.16 485.19 400.74" /><path class="shp32" d="M507.39 401.81C508.44 406.82 501.95 408.64 497.89 407.87" /><path class="shp32" d="M512.29 400.3C517.06 406.95 510.56 412.29 506.02 409.24" /><path class="shp32" d="M513.07 396.25C513.9 402.14 509.04 403.12 504.79 400.71" /><path class="shp32" d="M505.2 406.95C506.03 412.84 501.58 415.89 497.34 413.49" /><path class="shp32" d="M497.57 404.79C501.53 408.04 497.62 413.52 493.96 415.47" /><path class="shp26" d="M529.98 413.38C532.75 414.97 531.33 421.11 526.01 418.82" /><path class="shp26" d="M535.61 415.25C538.38 416.85 537.08 422.48 531.76 420.19" /><path class="shp26" d="M542.11 417.5C544.88 419.1 542.08 422.61 536.76 420.32" /><path class="shp32" d="M518.14 409.4C522.91 416.05 516.41 421.39 511.87 418.34" /><path class="shp32" d="M518.92 405.34C519.75 411.23 514.89 412.21 510.64 409.81" /><path class="shp32" d="M511.05 416.04C511.88 421.93 507.43 424.98 503.19 422.58" /><path class="shp32" d="M528.09 410.78C528.92 416.67 524.06 417.65 519.81 415.25" /><path class="shp32" d="M512.09 410.53C512.92 416.42 508.06 417.4 503.81 415" /><path class="shp32" d="M515.72 421.03C516.55 426.92 511.69 427.9 507.44 425.5" /><path class="shp32" d="M503.84 413.28C504.67 419.17 501.56 420.4 497.31 418" /><path class="shp32" d="M496.59 401.03C497.42 406.92 494.06 410.02 489.81 407.62" /><path class="shp32" d="M491.97 387.66C492.8 393.55 487.94 394.52 483.69 392.12" /><path class="shp32" d="M491.72 374.16C492.55 380.05 484.69 378.9 480.44 376.5" /><path class="shp32" d="M494.52 361.78C490.5 366.17 485.32 364.67 484.48 359.86" /><path class="shp32" d="M512.76 370.86C506.82 371.64 511.2 358.17 515.15 362.45" /><path class="shp33" d="M518.47 361.27C514.25 364.57 511.45 361.01 511.53 356.44" /></g></svg>