<svg version="1.2" xmlns="http://www.w3.org/2000/svg" viewBox="0 0 900 600" width="900" height="600">
	<title></title>
	<style>
		.s0 { fill: #009933 } 
		.s1 { fill: #cc0000 } 
		.s2 { fill: #ffffff } 
		.s3 { fill: #ffd700 } 
		.s4 { fill: #000000;stroke: #cc0000;stroke-width: 10.7 } 
	</style>
	<path id="rect4" class="s0" d="m0 0h900.1v600h-900.1z"/>
	<path id="rect6" class="s1" d="m0 0h900.1v400h-900.1z"/>
	<path id="rect8" class="s2" d="m0 0h133.3v600h-133.3z"/>
	<path id="path11728" fill-rule="evenodd" class="s3" d="m279.5 63.4h27.2l-22.1 16 8.4 25.9-22-16-22 16 8.4-25.9-22.1-16h27.3l8.4-25.9zm-13.9 4.2h-17.4l14.1 10.2-5.4 16.6 14.1-10.2 14.1 10.2-5.4-16.6 14.1-10.2h-17.4l-5.4-16.6z"/>
	<g id="g2900">
		<path id="rect4165-6" class="s3" d="m250.1 138l33.3 4.6-24 23.8c28.9 27.3 57.8 54.7 86.6 81.9 4 4.1 4 10.7-0.1 14.7-4.1 4-10.7 4-14.7-0.1-26.9-29.1-55.2-57.1-82.3-86.1l-17.8 17.7-18.9-19z"/>
		<path id="path4179-3" class="s3" d="m273.1 114.1c17.8 4.7 33.5 15.4 44.2 28.2 14 16.8 20.1 37.3 19.6 53.2-1.1 31.5-23.4 53.5-53.2 52.8-16.2-0.3-30.8-7.7-40.5-19.1-0.5 2.3-2.1 4.2-4.2 5.2-0.1 0.1-0.2 0.1-0.4 0.2-6.3 3.1-11.3 8.5-13.6 15.1-1.1 3.3-3.2 6.6-6 9.5-5 5.1-11.4 7.7-16.1 6.6-0.5 0.2-1.1 0.3-1.6 0.3-2.1 0-3.9-1.7-3.9-3.9 0-0.5 0.1-0.9 0.2-1.3-1.4-4.7 1.1-11.4 6.3-16.6 2.6-2.6 5.7-4.7 8.8-5.8 0.1 0 0.1-0.1 0.2-0.1 6.7-2.3 12.2-7.2 15.3-13.5 0.9-2.9 3.4-4.9 6.4-5.3 1.1-1.4 2.9-2.2 4.7-2.2 0.7 0 1.5 0.1 2.2 0.4l4.2-3.5c7.6 8.4 18.5 13.6 30.6 13.6 22.8 0 41.3-18.5 41.2-41.2-0.1-11.1-3.2-25-10.2-38.3-6.9-13.1-18.7-25.7-34.2-34.4z"/>
	</g>
	<path id="path10" class="s4" d="m10.7 0v600m112-600v600"/>
	<path id="rect12" class="s1" d="m21.3 0h90.7v600h-90.7z"/>
	<g id="g14">
		<g id="h">
			<g id="q">
				<path id="path18" fill-rule="evenodd" class="s2" d="m28 11.1h4.6v16.6h-4.6zm0 80.1h4.6v16.6h-4.6zm0 71.9h4.6v16.6h-4.6zm0 69.1h4.6v11.1h-4.6zm0 67.7v-8.3h4.6v8.3l-2.3 1.4z"/>
				<path id="path20" fill-rule="evenodd" class="s2" d="m50.7 0v13.8h4.6v13.9h4.5v13.8h4.6v13.8h6.8v13.8h-6.8v13.9h-4.6v13.8h-4.5v13.8h-4.6v13.8h-4.5v-13.8h-4.5v-13.8h-4.6v-13.8h-4.5v-13.9h-4.6v-13.8h4.6v-13.8h4.5v-13.8h4.6v-13.9h4.5v-13.8zm-4.5 27.7v13.8h-4.6v13.8h-4.5v13.8h4.5v13.9h4.6v13.8h4.5v-13.8h4.5v-13.9h4.6v-13.8h-4.6v-13.8h-4.5v-13.8zm0 27.6h4.5v13.8h-4.5z"/>
				<path id="path22" fill-rule="evenodd" class="s2" d="m28 130h2.3v-8.3h2.3v-8.3h6.8v8.3h2.3v8.3h2.2v11h-2.2v8.3h-2.3v8.3h-6.8v-8.3h-2.3v-8.3h-2.3zm6.8-2.7v5.5h-2.2v5.5h2.2v5.5h2.3v-5.5h2.3v-5.5h-2.3v-5.5z"/>
				<path id="path24" fill-rule="evenodd" class="s2" d="m53 130h2.3v-8.3h2.3v-8.3h6.8v8.3h4.5v27.6h-4.5v8.3h-6.8v-8.3h-2.3v-8.3h-2.3zm6.8-2.7v5.5h-2.2v5.5h2.2v5.5h2.3v-5.5h2.3v-5.5h-2.3v-5.5z"/>
				<path id="path26" class="s2" d="m28 248.9h4.6v8.2h4.5v8.3h4.6v13.9h4.5v-13.9h4.5v-8.3h4.6v-11h6.8v-13.8h-2.3v-22.2h-4.5v-11h-4.6v16.6h4.6v13.8h-4.6v13.8h-4.5v13.8h-4.5v-13.8h-4.6v-13.8h-4.5v-13.8h-4.6v-13.9h4.6v-13.8h4.5v-13.8h4.6v-13.8h4.5v-13.9h4.5v13.9h4.6v13.8h4.5v13.8h4.6v13.8h4.5v52.6h-4.5v6.2h-2.3v13.1h-6.8v11.1h-4.6v9.7h-4.5v11h-4.5v-11h-4.6v-9.7h-4.5v-11.1h-4.6z"/>
				<path id="path28" fill-rule="evenodd" class="s2" d="m57.6 282h4.5v5.6h2.3v4.1h4.5v13.8h-6.8v-11h-2.3v-4.2h-2.2zm-4.6 18v-8.3h4.6v8.3l-2.3 1.4z"/>
			</g>
			<g id="q">
				<path id="path18" fill-rule="evenodd" class="s2" d="m100.8 11.1h4.5v16.6h-4.5zm0 80.1h4.5v16.6h-4.5zm0 71.9h4.5v16.6h-4.5zm0 69.1h4.5v11.1h-4.5zm2.3 69.1l-2.3-1.4v-8.3h4.5v8.3z"/>
				<path id="path20" fill-rule="evenodd" class="s2" d="m87.1 0v13.8h4.6v13.9h4.5v13.8h4.6v13.8h4.5v13.8h-4.5v13.9h-4.6v13.8h-4.5v13.8h-4.6v13.8h-4.5v-13.8h-4.6v-13.8h-4.5v-13.8h-4.6v-13.9h-6.8v-13.8h6.8v-13.8h4.6v-13.8h4.5v-13.9h4.6v-13.8zm-4.6 27.7v13.8h-4.5v13.8h-4.6v13.8h4.6v13.9h4.5v13.8h4.6v-13.8h4.5v-13.9h4.6v-13.8h-4.6v-13.8h-4.5v-13.8zm0 27.6h4.5v13.8h-4.5z"/>
				<path id="path22" fill-rule="evenodd" class="s2" d="m105.3 141h-2.2v8.3h-2.3v8.3h-6.8v-8.3h-2.3v-8.3h-2.3v-11h2.3v-8.3h2.3v-8.3h6.8v8.3h2.3v8.3h2.2zm-9.1-13.9v5.6h-2.2v5.5h2.2v5.5h2.3v-5.5h2.3v-5.5h-2.3v-5.6z"/>
				<path id="path24" fill-rule="evenodd" class="s2" d="m80.3 141h-2.3v8.3h-2.2v8.3h-6.9v-8.3h-4.5v-27.6h4.5v-8.3h6.9v8.3h2.2v8.3h2.3zm-9.1-13.9v5.6h-2.3v5.5h2.3v5.5h2.3v-5.5h2.3v-5.5h-2.3v-5.6z"/>
				<path id="path26" class="s2" d="m105.3 273.7h-4.5v11.1h-4.6v9.7h-4.5v11h-4.6v-11h-4.5v-9.7h-4.6v-11.1h-6.8v-13.1h-2.3v-6.2h-4.5v-52.6h4.5v-13.8h4.6v-13.8h4.5v-13.8h4.6v-13.9h4.5v13.9h4.6v13.8h4.5v13.8h4.6v13.8h4.5v13.9h-4.5v13.8h-4.6v13.8h-4.5v13.8h-4.6v-13.8h-4.5v-13.8h-4.6v-13.8h4.6v-16.6h-4.6v11h-4.5v22.2h-2.3v13.8h6.8v11h4.6v8.3h4.5v13.9h4.6v-13.9h4.5v-8.3h4.6v-8.2h4.5z"/>
				<path id="path28" fill-rule="evenodd" class="s2" d="m75.8 290.3h-2.3v4.2h-2.3v11h-6.8v-13.8h4.5v-4.1h2.3v-5.6h4.6zm2.2 11.1l-2.2-1.4v-8.3h4.5v8.3z"/>
			</g>
			<path id="path32" class="s2" d="m64.4 11.1h4.5v16.6h-4.5zm0 80.1h4.5v16.6h-4.5zm0 71.9h4.5v16.6h-4.5zm0 107.8h4.5v13.9h-4.5z"/>
		</g>
		<g id="h">
			<g id="q">
				<path id="path18" fill-rule="evenodd" class="s2" d="m28 572.4h4.6v16.5h-4.6zm0-80.1h4.6v16.6h-4.6zm0-71.9h4.6v16.6h-4.6zm0-63.6h4.6v11h-4.6zm2.3-58l2.3 1.3v8.3h-4.6v-8.3z"/>
				<path id="path20" fill-rule="evenodd" class="s2" d="m46.2 600v-13.8h-4.5v-13.8h-4.6v-13.9h-4.5v-13.8h-4.6v-13.8h4.6v-13.8h4.5v-13.9h4.6v-13.8h4.5v-13.8h4.5v13.8h4.6v13.8h4.5v13.9h4.6v13.8h6.8v13.8h-6.8v13.8h-4.6v13.9h-4.5v13.8h-4.6v13.8zm4.6-27.6v-13.9h4.5v-13.8h4.6v-13.8h-4.6v-13.8h-4.5v-13.9h-4.6v13.9h-4.5v13.8h-4.5v13.8h4.5v13.8h4.5v13.9zm-4.5-41.5h4.5v13.8h-4.5z"/>
				<path id="path22" fill-rule="evenodd" class="s2" d="m28 459h2.3v-8.3h2.3v-8.3h6.8v8.3h2.3v8.3h2.2v11.1h-2.2v8.2h-2.3v8.3h-6.8v-8.3h-2.3v-8.2h-2.3zm9.1 13.8v-5.6h2.3v-5.5h-2.3v-5.5h-2.3v5.5h-2.2v5.5h2.2v5.6z"/>
				<path id="path24" fill-rule="evenodd" class="s2" d="m53 459h2.3v-8.3h2.3v-8.3h6.8v8.3h4.5v27.6h-4.5v8.3h-6.8v-8.3h-2.3v-8.2h-2.3zm9.1 13.8v-5.6h2.3v-5.5h-2.3v-5.5h-2.3v5.5h-2.2v5.5h2.2v5.6z"/>
				<path id="path26" class="s2" d="m28 326.3h4.6v-11.1h4.5v-9.7h4.6v-11h4.5v11h4.5v9.7h4.6v11.1h6.8v13.1h2.3v6.2h4.5v52.6h-4.5v13.8h-4.6v13.8h-4.5v13.8h-4.6v13.9h-4.5v-13.9h-4.5v-13.8h-4.6v-13.8h-4.5v-13.8h-4.6v-13.9h4.6v-13.8h4.5v-13.8h4.6v-13.8h4.5v13.8h4.5v13.8h4.6v13.8h-4.6v16.6h4.6v-11h4.5v-22.2h2.3v-13.8h-6.8v-11h-4.6v-8.3h-4.5v-13.9h-4.5v13.9h-4.6v8.3h-4.5v8.3h-4.6z"/>
				<path id="path28" fill-rule="evenodd" class="s2" d="m57.6 309.7h2.2v-4.2h2.3v-11h6.8v13.8h-4.5v4.1h-2.3v5.6h-4.5zm-2.3-11.1l2.3 1.4v8.3h-4.6v-8.3z"/>
			</g>
			<g id="q">
				<path id="path18" fill-rule="evenodd" class="s2" d="m100.8 572.4h4.5v16.5h-4.5zm0-80.1h4.5v16.6h-4.5zm0-71.9h4.5v16.6h-4.5zm0-63.6h4.5v11h-4.5zm4.5-56.7v8.3h-4.5v-8.3l2.3-1.3z"/>
				<path id="path20" fill-rule="evenodd" class="s2" d="m82.6 600v-13.8h-4.6v-13.8h-4.5v-13.9h-4.6v-13.8h-6.8v-13.8h6.8v-13.8h4.6v-13.9h4.5v-13.8h4.6v-13.8h4.5v13.8h4.6v13.8h4.5v13.9h4.6v13.8h4.5v13.8h-4.5v13.8h-4.6v13.9h-4.5v13.8h-4.6v13.8zm4.6-27.6v-13.9h4.5v-13.8h4.6v-13.8h-4.6v-13.8h-4.5v-13.9h-4.6v13.9h-4.5v13.8h-4.6v13.8h4.6v13.8h4.5v13.9zm-4.5-41.5h4.5v13.8h-4.5z"/>
				<path id="path22" fill-rule="evenodd" class="s2" d="m105.3 470.1h-2.2v8.2h-2.3v8.3h-6.8v-8.3h-2.3v-8.2h-2.3v-11.1h2.3v-8.3h2.3v-8.3h6.8v8.3h2.3v8.3h2.2zm-6.8 2.8v-5.6h2.3v-5.5h-2.3v-5.5h-2.3v5.5h-2.2v5.5h2.2v5.6z"/>
				<path id="path24" fill-rule="evenodd" class="s2" d="m80.3 470.1h-2.3v8.2h-2.2v8.3h-6.9v-8.3h-4.5v-27.6h4.5v-8.3h6.9v8.3h2.2v8.3h2.3zm-6.8 2.8v-5.6h2.3v-5.5h-2.3v-5.5h-2.3v5.5h-2.3v5.5h2.3v5.6z"/>
				<path id="path26" class="s2" d="m105.3 351.2h-4.5v-8.3h-4.6v-8.3h-4.5v-13.9h-4.6v13.9h-4.5v8.3h-4.6v11h-6.8v13.8h2.3v22.2h4.5v11h4.6v-16.6h-4.6v-13.8h4.6v-13.8h4.5v-13.8h4.6v13.8h4.5v13.8h4.6v13.8h4.5v13.9h-4.5v13.8h-4.6v13.8h-4.5v13.8h-4.6v13.9h-4.5v-13.9h-4.6v-13.8h-4.5v-13.8h-4.6v-13.8h-4.5v-52.6h4.5v-6.2h2.3v-13.1h6.8v-11.1h4.6v-9.7h4.5v-11h4.6v11h4.5v9.7h4.6v11.1h4.5z"/>
				<path id="path28" fill-rule="evenodd" class="s2" d="m75.8 318h-4.6v-5.6h-2.3v-4.1h-4.5v-13.8h6.8v11h2.3v4.2h2.3zm4.5-18v8.3h-4.5v-8.3l2.2-1.4z"/>
			</g>
			<path id="path32" class="s2" d="m64.4 572.4h4.5v16.5h-4.5zm0-80.1h4.5v16.6h-4.5zm0-71.9h4.5v16.6h-4.5zm0-105.1h4.5v13.8h-4.5z"/>
		</g>
	</g>
</svg>