<svg version="1.2" baseProfile="tiny-ps" xmlns="http://www.w3.org/2000/svg" viewBox="0 0 900 600" width="900" height="600">
	<defs>
		<clipPath clipPathUnits="userSpaceOnUse" id="cp1">
			<path d="m667.58 225.13v44.62h-75.16v-44.62h75.16v0z" />
		</clipPath>
		<clipPath clipPathUnits="userSpaceOnUse" id="cp2">
			<path d="m630 247.44h37.58v22.31l-37.58-22.31zm0 0v22.31h-37.58l37.58-22.31zm0 0h-37.58v-22.31l37.58 22.31zm0 0v-22.31h37.58l-37.58 22.31z" />
		</clipPath>
		<clipPath clipPathUnits="userSpaceOnUse" id="cp3">
			<path d="m0 0h450v300h-450v-300z" />
		</clipPath>
	</defs>
	<style>
		tspan { white-space:pre }
		.s0 { fill: #00247d } 
		.s1 { fill: #ffffff;stroke: #000000;stroke-width: 1.3 } 
		.s2 { fill: #8abebe } 
		.s3 { fill: #10bae0;stroke: #000000;stroke-width: .5 } 
		.s4 { fill: #2ed3d7 } 
		.s5 { fill: #f9d9d9 } 
		.s6 { fill: #012169;stroke: #000000;stroke-width: .4 } 
		.s7 { fill: #000000;stroke: #ffffff;stroke-linejoin:round;stroke-width: 8.3 } 
		.s8 { fill: #000000;stroke: #ffffff;stroke-linejoin:round;stroke-width: 13.7 } 
		.s9 { fill: #000000;stroke: #c8102e;stroke-linejoin:round;stroke-width: 8.3 } 
		.s10 { fill: #000000;stroke: #000000;stroke-width: 1.3 } 
		.s11 { fill: #000000 } 
		.s12 { fill: none;stroke: #000000;stroke-width: .7 } 
		.s13 { fill: none;stroke: #000000;stroke-width: 1.3 } 
		.s14 { fill: #f9eaae } 
		.s15 { fill: #c8102e } 
		.s16 { fill: #ffcc00;stroke: #000000;stroke-width: 1.3 } 
		.s17 { fill: #ffcc00;stroke: #000000;stroke-linecap:square;stroke-width: 1.3 } 
		.s18 { fill: #ffcc00;stroke: #000000;stroke-width: 1.4 } 
		.s19 { fill: #8c692f;stroke: #000000;stroke-width: .4 } 
		.s20 { fill: #99cccc;stroke: #000000;stroke-width: .4 } 
		.s21 { fill: none;stroke: #000000;stroke-width: .4 } 
		.s22 { fill: #000000;stroke: #ffffff;stroke-width: 52 } 
		.s23 { fill: none;stroke: #ffffff;stroke-width: 86.7 } 
		.s24 { fill: none;stroke: #cf142b;stroke-width: 52 } 
	</style>
	<path class="s0" d="m0 0h900v600h-900v-600z" />
	<g >
		<g >
			<path fill-rule="evenodd" class="s1" d="m543.05 285.73l12.95-16.21l-1.99-10.73l27.4-25.7l6.72-34.18l57.86-28.01l13.26 3.02l31.79-0.06l11.93-3.65l59.79 27.44l-0.99 16.46l12.7 25.94l20.93 18.22l-1.25 9.23l9.97 14.47l4.23 22.2l-5.24 30.19l-11.96 14.22l-232.2-0.5c0 0-7.23-4.49-7.97-5.74c-0.74-1.25-5.48-19.46-5.48-19.46l-4.98-20.46l2.49-16.72v0.01z" />
			<g >
				<path fill-rule="evenodd" class="s2" d="m782.25 362.66l-10.75 16.06l-4.76 13.76l-13.04 12.53l-25.37 5.47l-20.43 11.47l-12.51 5.29l-21.14 1.94l-26.42-4.94l-15.15-6.53l-9.86-6.88l-18.85-2.82l-17.97-9.88l-7.39-17.64l-8.81-15.88l212.47-1.94l-0.02-0.02z" />
				<path fill-rule="evenodd" class="s3" d="m674.84 279.74l114.97 61.5l-14.57 28.07h-202.56l-13.21-27.56l115.36-62v0z" />
				<path fill-rule="evenodd" class="s4" d="m571.01 363.19l19.9-11.47c5.22-2.98 11.37-5.65 20.79-7.24c5.66-1.74 11.3-3.49 18.32-0.18c8.77-6.92 20-10.66 33.47-11.47c9.77-3.96 18.41-10.28 34-2.11c21.27-3.54 37.17-2.59 41.58 7.94c6.48 0.53 15.81 2.92 20.43 4.96c7.63 3.36 13.65 7.57 20.97 13.57c-1.31 4.52-1.25 6.41-3 10.94l-204.19 0.71l-2.29-5.64l0.01-0.01z" />
				<path fill-rule="evenodd" class="s5" d="m581.58 369.06c7.42-2.78 15.1-5.52 34-6c9.61-3.07 16.6-1.94 23.95-1.42c7.86-1.75 15.93-4.1 22.9-3.18c25.61-8.96 48.64-2.47 57.96 1.42l8.99 1.06c7.6-9.3 17.57-1.16 26.42-1.24c9.47-2.84 15.57 1.06 22.9 2.47l0.54 6.88h-197.67v0l0.01 0.01z" />
			</g>
			<g >
				<path class="s6" d="m592.43 225.13h75.16v44.62h-75.16v-44.62v0z" />
				<g clip-path="url(#cp1)">
					<g >
						<g >
							<path fill-rule="evenodd" class="s7" d="m592.43 225.13l75.16 44.62m0-44.62l-75.16 44.62" />
							<g clip-path="url(#cp2)">
								<g >
								</g>
							</g>
							<path class="s8" d="m630 225.13v44.62m-37.58-22.31h75.16" />
							<path class="s9" d="m630 225.13v44.62m-37.58-22.31h75.16" />
						</g>
					</g>
				</g>
			</g>
			<g >
				<g >
					<path fill-rule="evenodd" class="s10" d="m677.34 367.7c15.04-0.01 23.56-0.17 36.62-1.13l-1.75 4.86c-24.56-0.36-42.69 0.42-64.28 0.25c-2.12-2.68-4.33-5.33-8.72-7.36c11.35 2.2 23.49 3.35 38.12 3.37l0.01 0z" />
					<path fill-rule="evenodd" class="s11" d="m634.74 362.83l-2.61 3.37l-17.43-10.22l20.06 6.86l-0.01-0.01z" />
					<path class="s12" d="m616.18 356.47c12.03-12.54 24.55-24.84 37.24-37.06" />
					<path class="s13" d="m653.3 306.19l-0.12 60.76" />
					<path class="s13" d="m674.35 301.45l-0.12 67.12" />
					<path class="s13" d="m694.9 317.42l-0.37 51.02" />
					<path class="s12" d="m634.49 363.34l19.06-28.57" />
					<path class="s12" d="m653.3 314.18l21.31 33.18" />
					<path class="s12" d="m674.22 301.84c-7.24 9.65-14.14 17.96-21.05 26.33" />
					<path class="s12" d="m694.9 324.41c-7.29-6.23-14.06-13.99-20.68-22.2" />
					<path class="s12" d="m690.05 368.33c-5.37-14.9-10.41-33.02-15.57-50.03" />
					<path class="s12" d="m652.93 360.59c4.92-7.96 9.69-16.19 12.33-28.07" />
					<path class="s12" d="m693.41 323.29c-1.93 13.93-5.1 27.4-11.34 39.67" />
					<path class="s12" d="m639.34 364.7c-10.53-18.17 8.65-32.11 13.71-36.43" />
					<path class="s12" d="m664.26 367.2l-8.35-22.96" />
				</g>
				<path fill-rule="evenodd" class="s14" d="m622.02 357.47c6.79-8.9 15.45-16.74 24.54-24.32c-5.08 7.55-13.25 15.7-9.59 21.58c-7.01-0.71-11.22 0.83-14.95 2.75v0v0z" />
				<path fill-rule="evenodd" class="s14" d="m647.32 312.8c2.91-0.55 5.81-1.79 8.72-3c0.47 2.81 0.65 5.71 0.12 8.86c-3.21-0.36-6.54-0.01-10.09 1.62c-0.35-2.5 0.28-4.99 1.25-7.49v0v0.01z" />
				<path fill-rule="evenodd" class="s14" d="m668.12 308.2c4.67-3.04 8.53-4.45 12.58-6.24c-0.4 3.98-0.65 7.69-0.37 10.36c-5.3 0.8-10.33 1.73-11.71 4.49c-0.46-1.87-0.71-4.42-0.5-8.6v0z" />
				<path fill-rule="evenodd" class="s14" d="m694.65 323.92c1.68-1.62 3.75-4.13 6.48-6.36c0.16 5.16 0.61 10.13 2.74 13.97c-3.08 1.33-5.98 3-8.72 4.99c-0.17-3.88-0.34-8.05-0.5-12.6v0v0z" />
				<path fill-rule="evenodd" class="s14" d="m646.82 322.42c3.64-1.1 6.95-1.38 10.34-1.87c-1.14 3.88-0.71 6.96 0.12 9.85c-3.25-1.04-6.63-0.73-10.21 1.87c-0.56-2.93-0.99-5.95-0.25-9.85v0z" />
				<path fill-rule="evenodd" class="s14" d="m667.37 319.3c2.98-1.58 6.95-3.16 11.59-4.74c0.23 3.18 0.38 6.29 1.25 10.1c-4.03 0.89-8.02 1.72-13.32 4.86c-0.18-2.59-1.16-3.34 0.5-10.22v0h-0.01z" />
				<path fill-rule="evenodd" class="s14" d="m680.2 327.53c-0.47 4.13 0.18 8.69 1.37 13.48c-4.78 0.74-9.24-0.23-14.95 5.48c-2.11-4.14-3.03-8.59-1.5-13.73c5.48-2.88 10.23-3.96 15.07-5.24l0.01 0.01z" />
				<path fill-rule="evenodd" class="s14" d="m644.32 348.61c4.54-1.25 8.44-2.5 12.33-3.74c-0.23 5.46 0.01 10.7 2.74 14.84c-2.18-0.16-7.51-2.05-12.46 3.61c-1.29-3.91-2.31-8.5-2.61-14.72v0l0 0.01z" />
				<path fill-rule="evenodd" class="s14" d="m680.82 343.62c-0.95 8.98 1.46 14.58 4.11 19.96c-6.09-0.7-12.09-1.74-18.81 0.12c-2.47-4.75-2.18-9.3 0-13.73c5.15-2.89 9.84-4.37 14.7-6.36v0.01z" />
				<path fill-rule="evenodd" class="s15" d="m718.65 345.83c-1.29 0.2-2.7 0.54-4.23-0.89c-1.35-0.77-4.05-0.76-5.81-0.71l1.68-9.61c3.68 1.78 7.03 3.64 9.78 5.64c-1.05 2.44-1.52 4.3-1.41 5.56v0.01z" />
				<path fill-rule="evenodd" class="s14" d="m708.61 330.65c0.7 12.58 4.22 22.76 9.21 31.69c-3.76 1.08-8.03 1.96-13.46 2.38c-5.34-7.88-8.36-16.93-9.72-26.82c4.22-3.07 9.09-5.14 13.95-7.24v0l0.01-0.01z" />
				<path fill-rule="evenodd" class="s14" d="m646.45 345.24c-0.74-3.35-1.27-6.84-0.99-10.85c3.85-1.32 6.85-1.5 9.72-1.5c0.34 3.22 0.95 6.68 1.62 10.22c-3.7-0.97-7.3-1.19-10.34 2.12v0z" />
			</g>
			<path class="s13" d="m675.13 279.92v-103" />
			<g >
				<g >
					<path fill-rule="evenodd" class="s16" d="m631.26 172.13c5.33-4.6 11.3-7.44 18.5-6.88c3.75 0.61 3.85 0.31 7.05 2.82c2.66 2.88 2.5 7.68 2.11 9.88c-1.43 1.94-2.36 4.2-7.39 3.88c-4.51-0.22-4.91-3.62-5.28-7.06c-1.38 0-2.62-0.16-5.81 2.11c-17.81 14.71-33.62 20.76-48.63 23.29c1.35 19.67-8.95 50-35.67 62.23c-1.53 0.66-3.5 1.08-6.43 1.28c-6.3-0.18-9.6-5.83-7.39-10.94c2.58-3.31 8.14-3.82 11.62 0.71c36-26.29 25.45-42.16 28.36-61.04c23.83-2.38 36.08-11.52 48.97-20.29v0.01z" />
					<path fill-rule="evenodd" class="s16" d="m555.88 273.64c-10.48 12.7-9.61 27.47-9.72 34.68c1.05 18.22 6.14 24.34 12.46 35.18c1.83-3.82 4.67-3.54 7.11-2.38c3.42 2.36 2.31 6.16 0.87 8.23c-1.98 2.44-5.93 3.94-10.21 2.5c-7.88-4.21-10.75-11.02-14.08-18.96c-4.45-12.62-5.56-20.03-5.24-31.81c0.87-15.14 4.91-27.25 14.08-34.43c4.6-3.89 9.86-4.19 12.46-1.87c2.86 2.92 1.85 6.82 0.5 8.74c-1.2 1.49-4.07 2.68-8.22 0.12v0l-0.02 0z" />
					<path class="s17" d="m566.41 359.68c-3.46 1.82-7.01 1.79-7.96-0.08c-0.93-1.87 1.1-4.86 4.55-6.68c3.46-1.82 7.01-1.79 7.96 0.08c0.93 1.87-1.1 4.86-4.55 6.68z" />
					<path class="s17" d="m570.51 366.95c-3.46 1.82-7.01 1.79-7.96-0.08c-0.93-1.87 1.1-4.86 4.55-6.68c3.46-1.82 7.01-1.79 7.96 0.08c0.93 1.87-1.1 4.86-4.55 6.68z" />
					<path class="s17" d="m574.48 373.63c-3.46 1.82-7.01 1.79-7.96-0.08c-0.93-1.87 1.1-4.86 4.55-6.68c3.46-1.82 7.01-1.79 7.96 0.08c0.93 1.87-1.1 4.86-4.55 6.68z" />
					<path fill-rule="evenodd" class="s16" d="m583 384.72c7.88 20.94 25.03 19.25 41.05 20.29c6.29 11.14 19.72 15.68 29.78 15c4.67 0.67 6.61 4.52 5.99 8.47c-0.41 2.78-1.65 4.09-5.63 5.64c-1.56-0.02-4.23 0.26-5.1-3c-0.43-1.96 1.09-2.6 1.94-3.71c-14.56-1.16-25.26-5.77-31.36-14.47c-18.42 0.05-33.35-5.08-41.93-19.58c-4.37-7.88-4.79-15.91-2.82-18.35c2.73-2.32 1.65-1.75 5.81-2.47c4.55 0.37 5.36 2.62 5.63 5.11c0.06 3.53-1.56 5.38-3.34 7.06l-0.02 0.01z" />
				</g>
				<g >
					<path fill-rule="evenodd" class="s16" d="m767.71 192.42c2.91 18.89-7.63 34.75 28.36 61.04c3.49-4.51 9.05-4.01 11.62-0.71c2.2 5.11-1.1 10.76-7.39 10.94c-2.94-0.19-4.9-0.61-6.43-1.28c-26.72-12.23-37.04-42.56-35.67-62.23c-15-2.53-30.82-8.58-48.63-23.29c-3.2-2.28-4.45-2.11-5.81-2.11c-0.37 3.43-0.78 6.84-5.28 7.06c-5.04 0.31-5.97-1.93-7.39-3.88c-0.38-2.2-0.55-7.01 2.11-9.88c3.2-2.52 3.3-2.21 7.05-2.82c7.2-0.56 13.17 2.28 18.5 6.88c12.89 8.76 25.14 17.92 48.97 20.29v-0.01z" />
					<path fill-rule="evenodd" class="s16" d="m794.12 273.64c-4.15 2.54-7.02 1.37-8.22-0.12c-1.34-1.91-2.37-5.82 0.5-8.74c2.6-2.32 7.86-2.03 12.46 1.87c9.17 7.18 13.21 19.28 14.08 34.43c0.32 11.78-0.79 19.19-5.24 31.81c-3.33 7.94-6.2 14.75-14.08 18.96c-4.28 1.44-8.23-0.06-10.21-2.5c-1.44-2.08-2.55-5.87 0.87-8.23c2.43-1.18 5.27-1.44 7.11 2.38c6.33-10.85 11.41-16.96 12.46-35.18c-0.1-7.21 0.77-21.98-9.72-34.68v0h-0.02z" />
					<path class="s17" d="m779.07 352.7c0.93-1.87 4.49-1.91 7.96-0.08c3.46 1.82 5.5 4.81 4.55 6.68c-0.93 1.87-4.49 1.91-7.96 0.08c-3.46-1.82-5.5-4.81-4.55-6.68z" />
					<path class="s17" d="m775.02 359.71c0.93-1.87 4.49-1.91 7.96-0.08c3.46 1.82 5.5 4.81 4.55 6.68c-0.93 1.87-4.49 1.91-7.96 0.08c-3.46-1.82-5.5-4.81-4.55-6.68z" />
					<path class="s17" d="m770.61 366.78c0.93-1.87 4.49-1.91 7.96-0.08c3.46 1.82 5.5 4.81 4.55 6.68c-0.93 1.87-4.49 1.91-7.96 0.08c-3.46-1.82-5.5-4.81-4.55-6.68z" />
					<path fill-rule="evenodd" class="s16" d="m763.66 377.66c0.29-2.51 1.09-4.75 5.63-5.11c4.16 0.72 3.08 0.16 5.81 2.47c1.98 2.44 1.56 10.46-2.82 18.35c-8.58 14.51-23.51 19.63-41.93 19.58c-6.1 8.7-16.8 13.3-31.36 14.47c0.85 1.09 2.37 1.75 1.94 3.71c-0.89 3.26-3.55 2.98-5.1 3c-3.98-1.55-5.24-2.87-5.63-5.64c-0.62-3.95 1.32-7.8 5.99-8.47c10.05 0.68 23.47-3.86 29.78-15c16.02-1.04 33.16 0.66 41.05-20.29c-1.79-1.68-3.42-3.53-3.34-7.06l-0.02-0.01z" />
				</g>
				<path fill-rule="evenodd" class="s18" d="m674.9 440.53c-3.31-0.64-5.74-2.59-5.09-7.74c-1.83 1.26-2.68 1.27-4.46 1.09c-2.3-0.72-3.88-1.78-4.36-3.37c-0.81-3.68 0.97-6.7 4.1-6.65l4.55 0.1c-0.83-4.37 1.05-7.21 5.73-7.2c5.66 0.25 4.98 4.68 4.91 6.92l4.18 0.18c5.84 0.26 5.15 5 4 7.2c-1.83 3.36-6.17 2.95-8 1.73c0.47 5.02-1.57 7.26-5.55 7.74v0h-0.01z" />
				<path fill-rule="evenodd" class="s16" d="m668 183.16c-3.8 4.06-7.75-4.18-7.93-9.18c-0.17-5 3.39-13.6 7.93-9.61c3.43-8.15 12.82-4.97 14.19-0.18c7.56-2.64 7.8 6.71 7.84 9.71c0.05 2.99-0.26 12.25-8.46 10.06c-3.68 4.48-9.93 5.83-13.56-0.79v0z" />
			</g>
			<g >
				<g >
					<path fill-rule="evenodd" class="s19" d="m691.67 210.77c23.05 14.1 45.56 28.02 69.51 42.42c1.44 1.61-0.25 4.02-2.12 3.24c-23.13-14.11-46.25-28.61-69.39-43.04c-0.98-1.07 0.05-3.24 1.99-2.62l0.01 0z" />
					<path fill-rule="evenodd" class="s20" d="m691.16 227.6c4.17-2.28 7.6-5.68 10.83-9.36l8.72 5.48c-3.64 4.64-3.43 8.64-4.48 12.85c-6.51-6.25-10.88-7.81-15.07-8.99v0l0 0.01z" />
				</g>
				<path fill-rule="evenodd" class="s20" d="m701.51 248.56c0.16-1.58-1.03-4.52-2.86-8.11c12.13 8.84 17.67 12.62 23.8 16.34c5.36 2.9 9.26 4.37 13.95 5.62c13.11 1.03 15.3 9.2 21.31 14.1l7.85 4.37l-2.61 3.86l-8.84-5.62h-10.83c-4.91-4.19-8.3-7.24-11.96-10.48c-2.43-0.38-4.01 0.65-7.35-1.25c-2.46-2.87-3.81-5.28-13.21-7.36c-6.65-2.87-11.07-7.51-16.19-11.6l6.97 0.12h-0.02z" />
				<g >
					<path fill-rule="evenodd" class="s20" d="m767.78 307.94l-2.86 3.49l-0.62-3l-1.87 2.12l-0.5-3.49l-1.99 1.87l0.12-3.49l-2.49 1.87l-0.12-3.12l-2.12 1.75l-0.74-3l-1.62 1.99l-0.99-3.12l-2.24 1.5l-0.37-3.37l-2.37 2.24l-1.13-3.12l-1.87 1.99l-0.25-3.49l-1.99 1.75l-0.62-2.5l-1.62 1l-0.62-2.75l-1.99 1.5l0.12-2.87l-2.37 1.37l-0.37-3.12l-1.99 2.38l-0.62-3.49l-2.37 2.12l-0.37-3.24l-1.87 1.75l-0.87-3.24l-1.62 1.62l-0.37-3l-2.61 1.99l-0.37-3.37l-2.24 1.99l-0.62-3.24l-2.12 2.12l-0.37-3.74l-1.5 1.87l-0.37-2.99l-1.87 1.87l0.12-3.49l-2.37 1.99l-0.37-2.99l-2.74 1.87l-0.37-3.37l-2.37 1.87l-0.12-3.49l-2.24 2.24v-3.61l-2.24 1.99l-0.62-3.24l-2.49 2.24v-2.5l-1.75 0.62l1.5-9.36l70 37.06l1.75 6.73h0.01z" />
					<path fill-rule="evenodd" class="s19" d="m694.4 273.52c-1.62-3.88-3.08-7.98-2.74-14.47c0.92-4.06 4.12-2.6 5.36-1.25c-0.07 2.42-0.2 4.79 0.37 7.86l-2.98 7.86v0z" />
					<path fill-rule="evenodd" class="s19" d="m767.28 309.82l-1.13-9.36c0.69-2.05 1.35-3.9 2.37-7.24c0.89-0.83 1.77-1.6 3 0.5c1.57 6.24-1.2 11.5-4.23 16.09h-0.01z" />
				</g>
				<g >
					<path fill-rule="evenodd" class="s19" d="m698.27 196.3c-0.68-1.39 0.54-4.74 3.86-4.24c13.41 6.5 22.7 17.33 34.01 26.82l-3.24 2.75c-11.14-10.31-25.52-18.23-34.63-25.32v0v-0.01z" />
					<path fill-rule="evenodd" class="s20" d="m733.15 221.62c3.75-3.66 6.09-7.86 7.97-12.23c2.38 2.9 5.43 5.69 9.21 8.36c-1.79 4.3-8.6 9.01-10.59 10.36l-6.6-6.49h0.01z" />
					<path class="s21" d="m750.44 217.82c-6.57 1.18-9.03 5.33-10.48 10.24" />
				</g>
			</g>
		</g>
	</g>
	<g clip-path="url(#cp3)">
		<g >
			<g >
				<g >
					<path class="s0" d="m0 0h450v300h-450v-300z" />
					<path fill-rule="evenodd" class="s22" d="m450 0l-450 300m0-300l450 300" />
					<path class="s23" d="m225 0v300" />
					<path class="s23" d="m0 150h450" />
					<path class="s24" d="m225 0v300" />
					<path class="s24" d="m0 150h450" />
				</g>
			</g>
		</g>
	</g>
</svg>