<svg version="1.2" baseProfile="tiny-ps" xmlns="http://www.w3.org/2000/svg" viewBox="0 0 4410 2940" width="900" height="600"><title></title><defs><clipPath clipPathUnits="userSpaceOnUse" id="cp1"><path d="M2205 2205C1798.55 2205 1470 1876.45 1470 1470C1470 1063.55 1798.55 735 2205 735C2611.45 735 2940 1063.55 2940 1470C2940 1876.45 2611.45 2205 2205 2205Z" /></clipPath><clipPath clipPathUnits="userSpaceOnUse" id="cp2"><path d="M2432.99 1370.73L2460.9 1306.54L2518.68 1331.66L2509.51 1352.75L2480.62 1340.19L2475.83 1351.19L2504.72 1363.75L2490.76 1395.85L2432.99 1370.73Z" /></clipPath></defs><style>tspan { white-space:pre }.shp0 { fill: #009b3a } .shp1 { fill: #fedf00 } .shp2 { fill: #002776 } .shp3 { fill: #ffffff } </style><path class="shp0" d="M0 0L4410 0L4410 2940L0 2940L0 0Z" /><path class="shp1" d="M462 1470L2205 2583L3948 1470L2205 357L462 1470Z" /><path class="shp2" d="M2205 2205C1798.55 2205 1470 1876.45 1470 1470C1470 1063.55 1798.55 735 2205 735C2611.45 735 2940 1063.55 2940 1470C2940 1876.45 2611.45 2205 2205 2205Z" /><g clip-path="url(#cp1)"><path class="shp3" d="M0 2940C0 2466.59 188.06 2012.57 522.81 1677.81C857.57 1343.06 1311.59 1155 1785 1155C2258.41 1155 2712.43 1343.06 3047.19 1677.81C3381.94 2012.57 3570 2466.59 3570 2940L3465 2940C3465 2494.44 3288 2067.12 2972.94 1752.06C2657.88 1437 2230.56 1260 1785 1260C1339.44 1260 912.12 1437 597.06 1752.06C282 2067.12 105 2494.44 105 2940L0 2940Z" /></g><g ><g ><path fill-rule="evenodd" class="shp0" d="M1578.13 1255.15C1569.83 1256.17 1561.43 1253.49 1554.77 1247.69C1548.11 1241.9 1543.73 1233.47 1542.6 1224.25C1541.46 1215.04 1543.67 1205.8 1548.74 1198.56C1553.8 1191.33 1561.3 1186.69 1569.6 1185.67C1577.89 1184.66 1586.29 1187.34 1592.95 1193.14C1599.62 1198.93 1604 1207.36 1605.13 1216.57C1606.26 1225.79 1604.05 1235.03 1598.99 1242.26C1593.92 1249.5 1586.42 1254.13 1578.13 1255.15ZM1588.74 1234.26C1591.68 1229.74 1592.93 1223.95 1592.22 1218.16C1591.51 1212.37 1588.9 1207.05 1584.95 1203.38C1581 1199.71 1576.05 1197.98 1571.18 1198.58C1566.31 1199.18 1561.92 1202.05 1558.98 1206.57C1556.04 1211.09 1554.79 1216.88 1555.5 1222.67C1556.21 1228.46 1558.83 1233.78 1562.77 1237.45C1566.72 1241.12 1571.67 1242.85 1576.54 1242.25C1581.41 1241.65 1585.8 1238.78 1588.74 1234.26Z" /><g ><path fill-rule="evenodd" class="shp0" d="M1631.28 1178.93L1671.18 1176.14C1677 1175.74 1682.75 1177.66 1687.15 1181.49C1691.55 1185.31 1694.26 1190.73 1694.66 1196.55C1695.07 1202.38 1693.15 1208.12 1689.32 1212.52C1685.49 1216.93 1680.07 1219.63 1674.25 1220.04L1646.32 1221.99L1648.13 1247.93L1635.17 1248.83L1631.28 1178.93ZM1645.41 1209.02L1672.35 1207.14C1674.73 1206.97 1676.95 1205.86 1678.51 1204.06C1680.08 1202.26 1680.86 1199.91 1680.7 1197.53C1680.53 1195.15 1679.43 1192.93 1677.62 1191.37C1675.82 1189.8 1673.47 1189.01 1671.09 1189.18L1644.16 1191.06L1645.41 1209.02Z" /><path class="shp0" d="M1694.52 1244.68C1693.82 1234.71 1692.29 1212.76 1677.32 1213.81L1658.37 1215.13C1680.32 1213.6 1681.85 1235.54 1682.55 1245.52" /></g><path fill-rule="evenodd" class="shp0" d="M1722.66 1173.32L1755.65 1172.74C1759.59 1172.67 1763.51 1173.38 1767.17 1174.83C1770.84 1176.27 1774.18 1178.42 1777.02 1181.16C1779.85 1183.89 1782.12 1187.16 1783.69 1190.78C1785.26 1194.39 1786.1 1198.28 1786.17 1202.21L1786.35 1212.21C1786.41 1216.15 1785.71 1220.07 1784.26 1223.73C1782.82 1227.4 1780.67 1230.74 1777.93 1233.58C1775.19 1236.41 1771.93 1238.68 1768.31 1240.25C1764.7 1241.82 1760.81 1242.66 1756.87 1242.73L1723.88 1243.31L1722.66 1173.32ZM1736.65 1230.08L1755.65 1229.75C1758.14 1229.71 1760.6 1229.17 1762.89 1228.18C1765.18 1227.18 1767.25 1225.75 1768.98 1223.95C1770.72 1222.16 1772.08 1220.04 1772.99 1217.72C1773.91 1215.4 1774.36 1212.92 1774.31 1210.42L1774.21 1204.42C1774.16 1201.93 1773.63 1199.47 1772.64 1197.18C1771.64 1194.89 1770.2 1192.82 1768.41 1191.09C1766.61 1189.35 1764.5 1187.99 1762.17 1187.08C1759.85 1186.16 1757.37 1185.71 1754.88 1185.76L1735.88 1186.09L1736.65 1230.08Z" /><path class="shp0" d="M1812.76 1242.43L1875.72 1244.63L1876.18 1231.64L1825.21 1229.86L1825.84 1211.87L1865.81 1213.27L1866.23 1201.28L1826.25 1199.88L1826.74 1185.89L1874.71 1187.56L1875.17 1174.57L1815.2 1172.48L1812.76 1242.43Z" /><path class="shp0" d="M1901.57 1246.21L1913.52 1247.26L1917.7 1199.44L1927.47 1248.48L1938.43 1249.44L1956.56 1202.84L1952.37 1250.66L1964.33 1251.7L1970.43 1181.97L1952.99 1180.45L1934.86 1227.04L1925.1 1178.01L1907.67 1176.48L1901.57 1246.21Z" /></g><path class="shp0" d="M2046.6 1262.57L2098.34 1271.46L2100.37 1259.64L2060.46 1252.78L2063.17 1237.01L2095.69 1242.6L2097.72 1230.77L2065.2 1225.18L2067.06 1214.34L2105.75 1220.99L2107.78 1209.16L2057.27 1200.48L2046.6 1262.57Z" /><g ><path fill-rule="evenodd" class="shp0" d="M2198.02 1221.16L2236.74 1231.18C2242.39 1232.64 2247.23 1236.28 2250.19 1241.31C2253.15 1246.34 2254 1252.34 2252.53 1257.99C2251.07 1263.63 2247.43 1268.47 2242.4 1271.43C2237.37 1274.39 2231.38 1275.24 2225.73 1273.78L2198.62 1266.77L2192.11 1291.94L2179.52 1288.68L2198.02 1221.16ZM2201.87 1254.18L2228.01 1260.94C2230.33 1261.54 2232.78 1261.19 2234.84 1259.98C2236.89 1258.77 2238.38 1256.79 2238.98 1254.48C2239.58 1252.17 2239.23 1249.72 2238.02 1247.66C2236.81 1245.6 2234.83 1244.11 2232.52 1243.51L2206.38 1236.75L2201.87 1254.18Z" /><g ><path fill-rule="evenodd" class="shp0" d="M2287.41 1245.13L2325.56 1257.16C2331.12 1258.92 2335.76 1262.81 2338.46 1267.99C2341.15 1273.16 2341.68 1279.19 2339.92 1284.76C2338.17 1290.32 2334.28 1294.96 2329.1 1297.66C2323.93 1300.35 2317.89 1300.88 2312.33 1299.13L2285.62 1290.71L2277.8 1315.5L2265.41 1311.59L2287.41 1245.13ZM2289.53 1278.31L2315.28 1286.43C2317.56 1287.14 2320.03 1286.93 2322.14 1285.83C2324.26 1284.72 2325.85 1282.83 2326.57 1280.55C2327.29 1278.27 2327.07 1275.8 2325.97 1273.69C2324.87 1271.57 2322.97 1269.98 2320.69 1269.26L2294.94 1261.14L2289.53 1278.31Z" /><path class="shp0" d="M2322.15 1329.49C2325.16 1319.95 2331.77 1298.97 2317.47 1294.46L2299.35 1288.74C2320.33 1295.36 2313.71 1316.34 2310.71 1325.88" /></g><path fill-rule="evenodd" class="shp0" d="M2379.48 1350C2371.65 1347.07 2365.44 1340.81 2362.2 1332.6C2358.97 1324.38 2358.98 1314.88 2362.23 1306.18C2365.48 1297.49 2371.71 1290.31 2379.54 1286.23C2387.37 1282.15 2396.17 1281.51 2403.99 1284.43C2411.82 1287.36 2418.03 1293.62 2421.26 1301.83C2424.5 1310.05 2424.49 1319.55 2421.24 1328.25C2417.99 1336.94 2411.76 1344.12 2403.93 1348.2C2396.1 1352.28 2387.3 1352.92 2379.48 1350ZM2398.54 1336.37C2403.23 1333.72 2407.02 1329.16 2409.06 1323.69C2411.11 1318.23 2411.24 1312.3 2409.44 1307.23C2407.63 1302.15 2404.03 1298.33 2399.44 1296.61C2394.84 1294.89 2389.62 1295.41 2384.93 1298.06C2380.23 1300.71 2376.45 1305.27 2374.41 1310.74C2372.36 1316.2 2372.23 1322.13 2374.03 1327.21C2375.84 1332.28 2379.43 1336.1 2384.03 1337.82C2388.63 1339.54 2393.84 1339.02 2398.54 1336.37Z" /><g ><g clip-path="url(#cp2)"><path fill-rule="evenodd" class="shp0" d="M2461.88 1383.29C2454.22 1379.96 2448.34 1373.38 2445.54 1365.01C2442.74 1356.63 2443.24 1347.15 2446.95 1338.63C2450.65 1330.12 2457.24 1323.28 2465.27 1319.62C2473.31 1315.95 2482.13 1315.77 2489.79 1319.1C2497.45 1322.43 2503.33 1329 2506.13 1337.38C2508.93 1345.75 2508.42 1355.24 2504.72 1363.75C2501.02 1372.27 2494.43 1379.11 2486.39 1382.77C2478.36 1386.44 2469.54 1386.62 2461.88 1383.29ZM2481.63 1370.68C2486.45 1368.28 2490.47 1363.92 2492.8 1358.57C2495.12 1353.22 2495.57 1347.31 2494.03 1342.14C2492.5 1336.98 2489.1 1332.97 2484.61 1331.02C2480.11 1329.06 2474.87 1329.31 2470.04 1331.71C2465.21 1334.11 2461.19 1338.47 2458.87 1343.82C2456.54 1349.17 2456.1 1355.08 2457.63 1360.24C2459.17 1365.41 2462.56 1369.41 2467.06 1371.37C2471.56 1373.33 2476.8 1373.08 2481.63 1370.68Z" /></g><path class="shp0" d="M2480.42 1353.19L2504.72 1363.75L2500.73 1372.92L2476.43 1362.36L2480.42 1353.19Z" /><path class="shp0" d="M2495.55 1359.77L2504.72 1363.75L2490.76 1395.85L2481.59 1391.86L2495.55 1359.77Z" /></g><g ><path fill-rule="evenodd" class="shp0" d="M2546.36 1344.59L2582.16 1362.44C2587.38 1365.05 2591.35 1369.62 2593.2 1375.15C2595.05 1380.68 2594.63 1386.73 2592.03 1391.95C2589.43 1397.17 2584.85 1401.14 2579.32 1402.99C2573.79 1404.85 2567.75 1404.42 2562.52 1401.82L2537.47 1389.33L2525.86 1412.59L2514.23 1406.79L2546.36 1344.59ZM2543.27 1377.69L2567.43 1389.74C2569.57 1390.8 2572.04 1390.98 2574.3 1390.22C2576.56 1389.46 2578.43 1387.84 2579.5 1385.7C2580.56 1383.56 2580.74 1381.09 2579.98 1378.83C2579.22 1376.57 2577.6 1374.7 2575.46 1373.63L2551.3 1361.58L2543.27 1377.69Z" /><path class="shp0" d="M2567.48 1433.34C2571.94 1424.39 2581.76 1404.7 2568.33 1398.01L2551.33 1389.53C2571.02 1399.35 2561.2 1419.04 2556.74 1427.99" /></g><path class="shp0" d="M2593.47 1447.06L2648.31 1478.08L2654.71 1466.77L2610.32 1441.65L2619.18 1425.99L2654 1445.68L2659.91 1435.24L2625.09 1415.54L2631.99 1403.36L2673.76 1427L2680.16 1415.68L2627.94 1386.14L2593.47 1447.06Z" /><path class="shp0" d="M2695.6 1481.33C2691.84 1487.23 2695.65 1493.81 2704.09 1499.18C2712.52 1504.55 2718.27 1504.36 2720.69 1500.57C2728.35 1488.55 2684.08 1471.02 2697.73 1450.07C2709.49 1432.07 2729.62 1446.08 2737.21 1450.92C2744.8 1455.75 2756.99 1468.26 2747.51 1482.67L2734.65 1474.48C2738.68 1468.16 2734.25 1462.08 2727.5 1457.78C2720.97 1453.61 2715.66 1451.71 2711.76 1457.83C2705.24 1467.6 2748.62 1486.05 2735.32 1506.92C2725.51 1522.32 2708.45 1515.6 2697.07 1508.34C2687.37 1502.16 2672.87 1487.6 2682.32 1472.86L2695.6 1481.33Z" /><path class="shp0" d="M2770.7 1530.98C2766.63 1536.68 2770.09 1543.45 2778.24 1549.26C2786.38 1555.06 2792.12 1555.17 2794.74 1551.51C2803.02 1539.91 2759.73 1520.09 2774.45 1499.88C2787.14 1482.53 2806.51 1497.57 2813.83 1502.79C2821.16 1508.02 2832.68 1521.15 2822.46 1535.05L2810.04 1526.19C2814.4 1520.08 2810.3 1513.78 2803.78 1509.14C2797.47 1504.63 2792.27 1502.46 2788.06 1508.36C2781.03 1517.78 2823.39 1538.47 2809.02 1558.62C2798.42 1573.48 2781.73 1565.88 2770.74 1558.04C2761.38 1551.36 2747.67 1536.05 2757.87 1521.84L2770.7 1530.98Z" /><path fill-rule="evenodd" class="shp0" d="M2841.72 1611.52C2835.18 1606.32 2831.21 1598.45 2830.67 1589.63C2830.13 1580.82 2833.08 1571.79 2838.85 1564.52C2844.63 1557.26 2852.77 1552.36 2861.48 1550.9C2870.19 1549.44 2878.76 1551.54 2885.29 1556.74C2891.83 1561.94 2895.81 1569.81 2896.34 1578.63C2896.88 1587.44 2893.94 1596.48 2888.16 1603.74C2882.38 1611.01 2874.24 1615.91 2865.53 1617.37C2856.82 1618.83 2848.26 1616.72 2841.72 1611.52ZM2864.06 1604.45C2869.34 1603.38 2874.35 1600.21 2877.98 1595.65C2881.62 1591.08 2883.58 1585.49 2883.43 1580.1C2883.28 1574.71 2881.04 1569.97 2877.2 1566.91C2873.36 1563.86 2868.24 1562.74 2862.95 1563.81C2857.67 1564.88 2852.66 1568.05 2849.03 1572.61C2845.4 1577.18 2843.44 1582.77 2843.58 1588.16C2843.73 1593.55 2845.97 1598.29 2849.81 1601.35C2853.65 1604.4 2858.78 1605.52 2864.06 1604.45Z" /></g></g><g ><g ><g ><path class="shp3" d="M1605 1306.5L1595.27 1336.46L1610.25 1341.32L1605 1306.5Z" /><path class="shp3" d="M1605 1306.5L1614.73 1336.46L1599.75 1341.32L1605 1306.5Z" /></g><g ><path class="shp3" d="M1634.96 1328.27L1603.46 1328.27L1603.46 1344.02L1634.96 1328.27Z" /><path class="shp3" d="M1634.96 1328.27L1609.48 1346.78L1600.22 1334.04L1634.96 1328.27Z" /></g><g ><path class="shp3" d="M1575.04 1328.27L1600.52 1346.78L1609.78 1334.04L1575.04 1328.27Z" /><path class="shp3" d="M1575.04 1328.27L1606.54 1328.27L1606.54 1344.02L1575.04 1328.27Z" /></g><g ><path class="shp3" d="M1623.52 1363.49L1613.78 1333.53L1598.8 1338.39L1623.52 1363.49Z" /><path class="shp3" d="M1623.52 1363.48L1598.03 1344.97L1607.29 1332.23L1623.52 1363.48Z" /></g><g ><path class="shp3" d="M1586.48 1363.48L1611.97 1344.97L1602.71 1332.23L1586.48 1363.48Z" /><path class="shp3" d="M1586.48 1363.49L1596.22 1333.53L1611.2 1338.39L1586.48 1363.49Z" /></g></g><g ><g ><path class="shp3" d="M1670 1615.5L1660.27 1645.46L1675.25 1650.32L1670 1615.5Z" /><path class="shp3" d="M1670 1615.5L1679.73 1645.46L1664.75 1650.32L1670 1615.5Z" /></g><g ><path class="shp3" d="M1699.96 1637.27L1668.46 1637.27L1668.46 1653.02L1699.96 1637.27Z" /><path class="shp3" d="M1699.96 1637.27L1674.48 1655.78L1665.22 1643.04L1699.96 1637.27Z" /></g><g ><path class="shp3" d="M1640.04 1637.27L1665.52 1655.78L1674.78 1643.04L1640.04 1637.27Z" /><path class="shp3" d="M1640.04 1637.27L1671.54 1637.27L1671.54 1653.02L1640.04 1637.27Z" /></g><g ><path class="shp3" d="M1688.52 1672.49L1678.78 1642.53L1663.8 1647.39L1688.52 1672.49Z" /><path class="shp3" d="M1688.52 1672.48L1663.03 1653.97L1672.29 1641.23L1688.52 1672.48Z" /></g><g ><path class="shp3" d="M1651.48 1672.48L1676.97 1653.97L1667.71 1641.23L1651.48 1672.48Z" /><path class="shp3" d="M1651.48 1672.49L1661.22 1642.53L1676.2 1647.39L1651.48 1672.49Z" /></g></g><g ><g ><path class="shp3" d="M2433 1210.5L2423.27 1240.46L2438.25 1245.32L2433 1210.5Z" /><path class="shp3" d="M2433 1210.5L2442.73 1240.46L2427.75 1245.32L2433 1210.5Z" /></g><g ><path class="shp3" d="M2462.96 1232.27L2431.46 1232.27L2431.46 1248.02L2462.96 1232.27Z" /><path class="shp3" d="M2462.96 1232.27L2437.48 1250.78L2428.22 1238.04L2462.96 1232.27Z" /></g><g ><path class="shp3" d="M2403.04 1232.27L2428.52 1250.78L2437.78 1238.04L2403.04 1232.27Z" /><path class="shp3" d="M2403.04 1232.27L2434.54 1232.27L2434.54 1248.02L2403.04 1232.27Z" /></g><g ><path class="shp3" d="M2451.52 1267.49L2441.78 1237.53L2426.8 1242.39L2451.52 1267.49Z" /><path class="shp3" d="M2451.52 1267.48L2426.03 1248.97L2435.29 1236.23L2451.52 1267.48Z" /></g><g ><path class="shp3" d="M2414.48 1267.48L2439.97 1248.97L2430.71 1236.23L2414.48 1267.48Z" /><path class="shp3" d="M2414.48 1267.49L2424.22 1237.53L2439.2 1242.39L2414.48 1267.49Z" /></g></g><g ><g ><g ><path class="shp3" d="M2720 1696.5L2710.27 1726.46L2725.25 1731.32L2720 1696.5Z" /><path class="shp3" d="M2720 1696.5L2729.73 1726.46L2714.75 1731.32L2720 1696.5Z" /></g><g ><path class="shp3" d="M2749.96 1718.27L2718.46 1718.27L2718.46 1734.02L2749.96 1718.27Z" /><path class="shp3" d="M2749.96 1718.27L2724.48 1736.78L2715.22 1724.04L2749.96 1718.27Z" /></g><g ><path class="shp3" d="M2690.04 1718.27L2715.52 1736.78L2724.78 1724.04L2690.04 1718.27Z" /><path class="shp3" d="M2690.04 1718.27L2721.54 1718.27L2721.54 1734.02L2690.04 1718.27Z" /></g><g ><path class="shp3" d="M2738.52 1753.49L2728.78 1723.53L2713.8 1728.39L2738.52 1753.49Z" /><path class="shp3" d="M2738.52 1753.48L2713.03 1734.97L2722.29 1722.23L2738.52 1753.48Z" /></g><g ><path class="shp3" d="M2701.48 1753.48L2726.97 1734.97L2717.71 1722.23L2701.48 1753.48Z" /><path class="shp3" d="M2701.48 1753.49L2711.22 1723.53L2726.2 1728.39L2701.48 1753.49Z" /></g></g><g ><g ><path class="shp3" d="M2822 1714L2815.51 1733.97L2825.5 1737.22L2822 1714Z" /><path class="shp3" d="M2822 1714L2828.49 1733.97L2818.5 1737.22L2822 1714Z" /></g><g ><path class="shp3" d="M2841.97 1728.51L2820.97 1728.51L2820.97 1739.01L2841.97 1728.51Z" /><path class="shp3" d="M2841.97 1728.51L2824.98 1740.85L2818.81 1732.36L2841.97 1728.51Z" /></g><g ><path class="shp3" d="M2802.03 1728.51L2819.02 1740.85L2825.19 1732.36L2802.03 1728.51Z" /><path class="shp3" d="M2802.03 1728.51L2823.03 1728.51L2823.03 1739.01L2802.03 1728.51Z" /></g><g ><path class="shp3" d="M2834.34 1751.99L2827.85 1732.02L2817.87 1735.26L2834.34 1751.99Z" /><path class="shp3" d="M2834.34 1751.99L2817.35 1739.65L2823.53 1731.15L2834.34 1751.99Z" /></g><g ><path class="shp3" d="M2809.66 1751.99L2826.65 1739.65L2820.47 1731.15L2809.66 1751.99Z" /><path class="shp3" d="M2809.66 1751.99L2816.15 1732.02L2826.13 1735.26L2809.66 1751.99Z" /></g></g><g ><g ><path class="shp3" d="M2750 1766.75L2741.89 1791.71L2754.37 1795.77L2750 1766.75Z" /><path class="shp3" d="M2750 1766.75L2758.11 1791.71L2745.63 1795.77L2750 1766.75Z" /></g><g ><path class="shp3" d="M2774.97 1784.89L2748.72 1784.89L2748.72 1798.01L2774.97 1784.89Z" /><path class="shp3" d="M2774.97 1784.89L2753.73 1800.32L2746.01 1789.7L2774.97 1784.89Z" /></g><g ><path class="shp3" d="M2725.03 1784.89L2746.27 1800.32L2753.99 1789.7L2725.03 1784.89Z" /><path class="shp3" d="M2725.03 1784.89L2751.28 1784.89L2751.28 1798.01L2725.03 1784.89Z" /></g><g ><path class="shp3" d="M2765.43 1814.24L2757.32 1789.27L2744.84 1793.33L2765.43 1814.24Z" /><path class="shp3" d="M2765.43 1814.24L2744.19 1798.81L2751.91 1788.19L2765.43 1814.24Z" /></g><g ><path class="shp3" d="M2734.57 1814.24L2755.81 1798.81L2748.09 1788.19L2734.57 1814.24Z" /><path class="shp3" d="M2734.57 1814.24L2742.68 1789.27L2755.16 1793.33L2734.57 1814.24Z" /></g></g><g ><g ><path class="shp3" d="M2573 1920.75L2564.89 1945.71L2577.37 1949.77L2573 1920.75Z" /><path class="shp3" d="M2573 1920.75L2581.11 1945.71L2568.63 1949.77L2573 1920.75Z" /></g><g ><path class="shp3" d="M2597.97 1938.89L2571.72 1938.89L2571.72 1952.01L2597.97 1938.89Z" /><path class="shp3" d="M2597.97 1938.89L2576.73 1954.32L2569.01 1943.7L2597.97 1938.89Z" /></g><g ><path class="shp3" d="M2548.03 1938.89L2569.27 1954.32L2576.99 1943.7L2548.03 1938.89Z" /><path class="shp3" d="M2548.03 1938.89L2574.28 1938.89L2574.28 1952.01L2548.03 1938.89Z" /></g><g ><path class="shp3" d="M2588.43 1968.24L2580.32 1943.27L2567.84 1947.33L2588.43 1968.24Z" /><path class="shp3" d="M2588.43 1968.24L2567.19 1952.81L2574.91 1942.19L2588.43 1968.24Z" /></g><g ><path class="shp3" d="M2557.57 1968.24L2578.81 1952.81L2571.09 1942.19L2557.57 1968.24Z" /><path class="shp3" d="M2557.57 1968.24L2565.68 1943.27L2578.16 1947.33L2557.57 1968.24Z" /></g></g><g ><g ><path class="shp3" d="M2572 2000L2565.51 2019.97L2575.5 2023.22L2572 2000Z" /><path class="shp3" d="M2572 2000L2578.49 2019.97L2568.5 2023.22L2572 2000Z" /></g><g ><path class="shp3" d="M2591.97 2014.51L2570.97 2014.51L2570.97 2025.01L2591.97 2014.51Z" /><path class="shp3" d="M2591.97 2014.51L2574.98 2026.85L2568.81 2018.36L2591.97 2014.51Z" /></g><g ><path class="shp3" d="M2552.03 2014.51L2569.02 2026.85L2575.19 2018.36L2552.03 2014.51Z" /><path class="shp3" d="M2552.03 2014.51L2573.03 2014.51L2573.03 2025.01L2552.03 2014.51Z" /></g><g ><path class="shp3" d="M2584.34 2037.99L2577.85 2018.02L2567.87 2021.26L2584.34 2037.99Z" /><path class="shp3" d="M2584.34 2037.99L2567.35 2025.65L2573.53 2017.15L2584.34 2037.99Z" /></g><g ><path class="shp3" d="M2559.66 2037.99L2576.65 2025.65L2570.47 2017.15L2559.66 2037.99Z" /><path class="shp3" d="M2559.66 2037.99L2566.15 2018.02L2576.13 2021.26L2559.66 2037.99Z" /></g></g><g ><g ><path class="shp3" d="M2646 1868L2639.51 1887.97L2649.5 1891.22L2646 1868Z" /><path class="shp3" d="M2646 1868L2652.49 1887.97L2642.5 1891.22L2646 1868Z" /></g><g ><path class="shp3" d="M2665.97 1882.51L2644.97 1882.51L2644.97 1893.01L2665.97 1882.51Z" /><path class="shp3" d="M2665.97 1882.51L2648.98 1894.85L2642.81 1886.36L2665.97 1882.51Z" /></g><g ><path class="shp3" d="M2626.03 1882.51L2643.02 1894.85L2649.19 1886.36L2626.03 1882.51Z" /><path class="shp3" d="M2626.03 1882.51L2647.03 1882.51L2647.03 1893.01L2626.03 1882.51Z" /></g><g ><path class="shp3" d="M2658.34 1905.99L2651.85 1886.02L2641.87 1889.26L2658.34 1905.99Z" /><path class="shp3" d="M2658.34 1905.99L2641.35 1893.65L2647.53 1885.15L2658.34 1905.99Z" /></g><g ><path class="shp3" d="M2633.66 1905.99L2650.65 1893.65L2644.47 1885.15L2633.66 1905.99Z" /><path class="shp3" d="M2633.66 1905.99L2640.15 1886.02L2650.13 1889.26L2633.66 1905.99Z" /></g></g><g ><g ><path class="shp3" d="M2705 1825.75L2696.89 1850.71L2709.37 1854.77L2705 1825.75Z" /><path class="shp3" d="M2705 1825.75L2713.11 1850.71L2700.63 1854.77L2705 1825.75Z" /></g><g ><path class="shp3" d="M2729.97 1843.89L2703.72 1843.89L2703.72 1857.01L2729.97 1843.89Z" /><path class="shp3" d="M2729.97 1843.89L2708.73 1859.32L2701.01 1848.7L2729.97 1843.89Z" /></g><g ><path class="shp3" d="M2680.03 1843.89L2701.27 1859.32L2708.99 1848.7L2680.03 1843.89Z" /><path class="shp3" d="M2680.03 1843.89L2706.28 1843.89L2706.28 1857.01L2680.03 1843.89Z" /></g><g ><path class="shp3" d="M2720.43 1873.24L2712.32 1848.27L2699.84 1852.33L2720.43 1873.24Z" /><path class="shp3" d="M2720.43 1873.24L2699.19 1857.81L2706.91 1847.19L2720.43 1873.24Z" /></g><g ><path class="shp3" d="M2689.57 1873.24L2710.81 1857.81L2703.09 1847.19L2689.57 1873.24Z" /><path class="shp3" d="M2689.57 1873.24L2697.68 1848.27L2710.16 1852.33L2689.57 1873.24Z" /></g></g><g ><g ><path class="shp3" d="M2570 1854L2563.51 1873.97L2573.5 1877.22L2570 1854Z" /><path class="shp3" d="M2570 1854L2576.49 1873.97L2566.5 1877.22L2570 1854Z" /></g><g ><path class="shp3" d="M2589.97 1868.51L2568.97 1868.51L2568.97 1879.01L2589.97 1868.51Z" /><path class="shp3" d="M2589.97 1868.51L2572.98 1880.85L2566.81 1872.36L2589.97 1868.51Z" /></g><g ><path class="shp3" d="M2550.03 1868.51L2567.02 1880.85L2573.19 1872.36L2550.03 1868.51Z" /><path class="shp3" d="M2550.03 1868.51L2571.03 1868.51L2571.03 1879.01L2550.03 1868.51Z" /></g><g ><path class="shp3" d="M2582.34 1891.99L2575.85 1872.02L2565.87 1875.26L2582.34 1891.99Z" /><path class="shp3" d="M2582.34 1891.99L2565.35 1879.65L2571.53 1871.15L2582.34 1891.99Z" /></g><g ><path class="shp3" d="M2557.66 1891.99L2574.65 1879.65L2568.47 1871.15L2557.66 1891.99Z" /><path class="shp3" d="M2557.66 1891.99L2564.15 1872.02L2574.13 1875.26L2557.66 1891.99Z" /></g></g></g><g ><g ><g ><path class="shp3" d="M2205 1768.5L2195.27 1798.46L2210.25 1803.32L2205 1768.5Z" /><path class="shp3" d="M2205 1768.5L2214.73 1798.46L2199.75 1803.32L2205 1768.5Z" /></g><g ><path class="shp3" d="M2234.96 1790.27L2203.46 1790.27L2203.46 1806.02L2234.96 1790.27Z" /><path class="shp3" d="M2234.96 1790.27L2209.48 1808.78L2200.22 1796.04L2234.96 1790.27Z" /></g><g ><path class="shp3" d="M2175.04 1790.27L2200.52 1808.78L2209.78 1796.04L2175.04 1790.27Z" /><path class="shp3" d="M2175.04 1790.27L2206.54 1790.27L2206.54 1806.02L2175.04 1790.27Z" /></g><g ><path class="shp3" d="M2223.52 1825.49L2213.78 1795.53L2198.8 1800.39L2223.52 1825.49Z" /><path class="shp3" d="M2223.52 1825.48L2198.03 1806.97L2207.29 1794.23L2223.52 1825.48Z" /></g><g ><path class="shp3" d="M2186.48 1825.48L2211.97 1806.97L2202.71 1794.23L2186.48 1825.48Z" /><path class="shp3" d="M2186.48 1825.49L2196.22 1795.53L2211.2 1800.39L2186.48 1825.49Z" /></g></g><g ><g ><path class="shp3" d="M2290 1627.75L2281.89 1652.71L2294.37 1656.77L2290 1627.75Z" /><path class="shp3" d="M2290 1627.75L2298.11 1652.71L2285.63 1656.77L2290 1627.75Z" /></g><g ><path class="shp3" d="M2314.97 1645.89L2288.72 1645.89L2288.72 1659.01L2314.97 1645.89Z" /><path class="shp3" d="M2314.97 1645.89L2293.73 1661.32L2286.01 1650.7L2314.97 1645.89Z" /></g><g ><path class="shp3" d="M2265.03 1645.89L2286.27 1661.32L2293.99 1650.7L2265.03 1645.89Z" /><path class="shp3" d="M2265.03 1645.89L2291.28 1645.89L2291.28 1659.01L2265.03 1645.89Z" /></g><g ><path class="shp3" d="M2305.43 1675.24L2297.32 1650.27L2284.84 1654.33L2305.43 1675.24Z" /><path class="shp3" d="M2305.43 1675.24L2284.19 1659.81L2291.91 1649.19L2305.43 1675.24Z" /></g><g ><path class="shp3" d="M2274.57 1675.24L2295.81 1659.81L2288.09 1649.19L2274.57 1675.24Z" /><path class="shp3" d="M2274.57 1675.24L2282.68 1650.27L2295.16 1654.33L2274.57 1675.24Z" /></g></g><g ><g ><path class="shp3" d="M2205 1561.75L2196.89 1586.71L2209.37 1590.77L2205 1561.75Z" /><path class="shp3" d="M2205 1561.75L2213.11 1586.71L2200.63 1590.77L2205 1561.75Z" /></g><g ><path class="shp3" d="M2229.97 1579.89L2203.72 1579.89L2203.72 1593.01L2229.97 1579.89Z" /><path class="shp3" d="M2229.97 1579.89L2208.73 1595.32L2201.01 1584.7L2229.97 1579.89Z" /></g><g ><path class="shp3" d="M2180.03 1579.89L2201.27 1595.32L2208.99 1584.7L2180.03 1579.89Z" /><path class="shp3" d="M2180.03 1579.89L2206.28 1579.89L2206.28 1593.01L2180.03 1579.89Z" /></g><g ><path class="shp3" d="M2220.43 1609.24L2212.32 1584.27L2199.84 1588.33L2220.43 1609.24Z" /><path class="shp3" d="M2220.43 1609.24L2199.19 1593.81L2206.91 1583.19L2220.43 1609.24Z" /></g><g ><path class="shp3" d="M2189.57 1609.24L2210.81 1593.81L2203.09 1583.19L2189.57 1609.24Z" /><path class="shp3" d="M2189.57 1609.24L2197.68 1584.27L2210.16 1588.33L2189.57 1609.24Z" /></g></g><g ><g ><path class="shp3" d="M2131 1633L2124.51 1652.97L2134.5 1656.22L2131 1633Z" /><path class="shp3" d="M2131 1633L2137.49 1652.97L2127.5 1656.22L2131 1633Z" /></g><g ><path class="shp3" d="M2150.97 1647.51L2129.97 1647.51L2129.97 1658.01L2150.97 1647.51Z" /><path class="shp3" d="M2150.97 1647.51L2133.98 1659.85L2127.81 1651.36L2150.97 1647.51Z" /></g><g ><path class="shp3" d="M2111.03 1647.51L2128.02 1659.85L2134.19 1651.36L2111.03 1647.51Z" /><path class="shp3" d="M2111.03 1647.51L2132.03 1647.51L2132.03 1658.01L2111.03 1647.51Z" /></g><g ><path class="shp3" d="M2143.34 1670.99L2136.85 1651.02L2126.87 1654.26L2143.34 1670.99Z" /><path class="shp3" d="M2143.34 1670.99L2126.35 1658.65L2132.53 1650.15L2143.34 1670.99Z" /></g><g ><path class="shp3" d="M2118.66 1670.99L2135.65 1658.65L2129.47 1650.15L2118.66 1670.99Z" /><path class="shp3" d="M2118.66 1670.99L2125.15 1651.02L2135.13 1654.26L2118.66 1670.99Z" /></g></g><g ><g ><path class="shp3" d="M2168 1690L2163.36 1704.27L2170.5 1706.58L2168 1690Z" /><path class="shp3" d="M2168 1690L2172.64 1704.27L2165.5 1706.58L2168 1690Z" /></g><g ><path class="shp3" d="M2182.27 1700.36L2167.27 1700.36L2167.27 1707.86L2182.27 1700.36Z" /><path class="shp3" d="M2182.27 1700.36L2170.13 1709.18L2165.72 1703.11L2182.27 1700.36Z" /></g><g ><path class="shp3" d="M2153.73 1700.36L2165.87 1709.18L2170.28 1703.11L2153.73 1700.36Z" /><path class="shp3" d="M2153.73 1700.36L2168.73 1700.36L2168.73 1707.86L2153.73 1700.36Z" /></g><g ><path class="shp3" d="M2176.82 1717.14L2172.18 1702.87L2165.05 1705.19L2176.82 1717.14Z" /><path class="shp3" d="M2176.82 1717.14L2164.68 1708.32L2169.09 1702.25L2176.82 1717.14Z" /></g><g ><path class="shp3" d="M2159.18 1717.14L2171.32 1708.32L2166.91 1702.25L2159.18 1717.14Z" /><path class="shp3" d="M2159.18 1717.14L2163.82 1702.87L2170.95 1705.19L2159.18 1717.14Z" /></g></g></g><g ><g ><g ><path class="shp3" d="M2425 1938.75L2416.89 1963.71L2429.37 1967.77L2425 1938.75Z" /><path class="shp3" d="M2425 1938.75L2433.11 1963.71L2420.63 1967.77L2425 1938.75Z" /></g><g ><path class="shp3" d="M2449.97 1956.89L2423.72 1956.89L2423.72 1970.01L2449.97 1956.89Z" /><path class="shp3" d="M2449.97 1956.89L2428.73 1972.32L2421.01 1961.7L2449.97 1956.89Z" /></g><g ><path class="shp3" d="M2400.03 1956.89L2421.27 1972.32L2428.99 1961.7L2400.03 1956.89Z" /><path class="shp3" d="M2400.03 1956.89L2426.28 1956.89L2426.28 1970.01L2400.03 1956.89Z" /></g><g ><path class="shp3" d="M2440.43 1986.24L2432.32 1961.27L2419.84 1965.33L2440.43 1986.24Z" /><path class="shp3" d="M2440.43 1986.24L2419.19 1970.81L2426.91 1960.19L2440.43 1986.24Z" /></g><g ><path class="shp3" d="M2409.57 1986.24L2430.81 1970.81L2423.09 1960.19L2409.57 1986.24Z" /><path class="shp3" d="M2409.57 1986.24L2417.68 1961.27L2430.16 1965.33L2409.57 1986.24Z" /></g></g><g ><g ><path class="shp3" d="M2488 1879L2481.51 1898.97L2491.5 1902.22L2488 1879Z" /><path class="shp3" d="M2488 1879L2494.49 1898.97L2484.5 1902.22L2488 1879Z" /></g><g ><path class="shp3" d="M2507.97 1893.51L2486.97 1893.51L2486.97 1904.01L2507.97 1893.51Z" /><path class="shp3" d="M2507.97 1893.51L2490.98 1905.85L2484.81 1897.36L2507.97 1893.51Z" /></g><g ><path class="shp3" d="M2468.03 1893.51L2485.02 1905.85L2491.19 1897.36L2468.03 1893.51Z" /><path class="shp3" d="M2468.03 1893.51L2489.03 1893.51L2489.03 1904.01L2468.03 1893.51Z" /></g><g ><path class="shp3" d="M2500.34 1916.99L2493.85 1897.02L2483.87 1900.26L2500.34 1916.99Z" /><path class="shp3" d="M2500.34 1916.99L2483.35 1904.65L2489.53 1896.15L2500.34 1916.99Z" /></g><g ><path class="shp3" d="M2475.66 1916.99L2492.65 1904.65L2486.47 1896.15L2475.66 1916.99Z" /><path class="shp3" d="M2475.66 1916.99L2482.15 1897.02L2492.13 1900.26L2475.66 1916.99Z" /></g></g><g ><g ><path class="shp3" d="M2367 1861L2360.51 1880.97L2370.5 1884.22L2367 1861Z" /><path class="shp3" d="M2367 1861L2373.49 1880.97L2363.5 1884.22L2367 1861Z" /></g><g ><path class="shp3" d="M2386.97 1875.51L2365.97 1875.51L2365.97 1886.01L2386.97 1875.51Z" /><path class="shp3" d="M2386.97 1875.51L2369.98 1887.85L2363.81 1879.36L2386.97 1875.51Z" /></g><g ><path class="shp3" d="M2347.03 1875.51L2364.02 1887.85L2370.19 1879.36L2347.03 1875.51Z" /><path class="shp3" d="M2347.03 1875.51L2368.03 1875.51L2368.03 1886.01L2347.03 1875.51Z" /></g><g ><path class="shp3" d="M2379.34 1898.99L2372.85 1879.02L2362.87 1882.26L2379.34 1898.99Z" /><path class="shp3" d="M2379.34 1898.99L2362.35 1886.65L2368.53 1878.15L2379.34 1898.99Z" /></g><g ><path class="shp3" d="M2354.66 1898.99L2371.65 1886.65L2365.47 1878.15L2354.66 1898.99Z" /><path class="shp3" d="M2354.66 1898.99L2361.15 1879.02L2371.13 1882.26L2354.66 1898.99Z" /></g></g></g><g ><g ><path class="shp3" d="M1910 1828.5L1900.27 1858.46L1915.25 1863.32L1910 1828.5Z" /><path class="shp3" d="M1910 1828.5L1919.73 1858.46L1904.75 1863.32L1910 1828.5Z" /></g><g ><path class="shp3" d="M1939.96 1850.27L1908.46 1850.27L1908.46 1866.02L1939.96 1850.27Z" /><path class="shp3" d="M1939.96 1850.27L1914.48 1868.78L1905.22 1856.04L1939.96 1850.27Z" /></g><g ><path class="shp3" d="M1880.04 1850.27L1905.52 1868.78L1914.78 1856.04L1880.04 1850.27Z" /><path class="shp3" d="M1880.04 1850.27L1911.54 1850.27L1911.54 1866.02L1880.04 1850.27Z" /></g><g ><path class="shp3" d="M1928.52 1885.49L1918.78 1855.53L1903.8 1860.39L1928.52 1885.49Z" /><path class="shp3" d="M1928.52 1885.48L1903.03 1866.97L1912.29 1854.23L1928.52 1885.48Z" /></g><g ><path class="shp3" d="M1891.48 1885.48L1916.97 1866.97L1907.71 1854.23L1891.48 1885.48Z" /><path class="shp3" d="M1891.48 1885.49L1901.22 1855.53L1916.2 1860.39L1891.48 1885.49Z" /></g></g><g ><g ><path class="shp3" d="M2205 2034.5L2201.76 2044.49L2206.75 2046.11L2205 2034.5Z" /><path class="shp3" d="M2205 2034.5L2208.24 2044.49L2203.25 2046.11L2205 2034.5Z" /></g><g ><path class="shp3" d="M2214.99 2041.76L2204.49 2041.76L2204.49 2047.01L2214.99 2041.76Z" /><path class="shp3" d="M2214.99 2041.76L2206.49 2047.93L2203.41 2043.68L2214.99 2041.76Z" /></g><g ><path class="shp3" d="M2195.01 2041.76L2203.51 2047.93L2206.59 2043.68L2195.01 2041.76Z" /><path class="shp3" d="M2195.01 2041.76L2205.51 2041.76L2205.51 2047.01L2195.01 2041.76Z" /></g><g ><path class="shp3" d="M2211.17 2053.5L2207.93 2043.51L2202.93 2045.13L2211.17 2053.5Z" /><path class="shp3" d="M2211.17 2053.49L2202.68 2047.32L2205.76 2043.08L2211.17 2053.49Z" /></g><g ><path class="shp3" d="M2198.83 2053.49L2207.32 2047.32L2204.24 2043.08L2198.83 2053.49Z" /><path class="shp3" d="M2198.83 2053.5L2202.07 2043.51L2207.07 2045.13L2198.83 2053.5Z" /></g></g></g></svg>