<svg version="1.2" xmlns="http://www.w3.org/2000/svg" viewBox="0 0 900 600" width="900" height="600">
	<style>
		.s0 { fill: #e2382a } 
		.s1 { fill: #ffffff } 
		.s2 { fill: #000000 } 
	</style>
	<path id="Layer" class="s0" d="m0 0h900v600h-900z"/>
	<path id="Layer" class="s1" d="m0 120h900v360h-900z"/>
	<path id="Layer" class="s0" d="m404.7 177.1c-9.1-5.5-41.3 5.5-41.4-15.9 0-3.7 3.1-3.5 3.2-0.1 0 3.2 1.9 7.5 17.2 10 7.7 1.2 16-0.1 20.6 2.2m-125.2 1.2c-0.4-3.3-1.2-7.5-3.1-9.2 3.6 0.4 5.9 3.6 6.3 4.9-0.2-3.2-1.4-7.4-2.8-8.6 3.3 0.3 6.3 3.6 6.9 6.5-0.4-3.4-1-7.1-2.9-9.1 4.1 0.4 6.6 4.4 7.1 7-0.2-3.4-1.1-7-2.7-8.7 3 0.1 6.5 3.3 7.2 8-0.3-3.3-0.7-6.8-2.8-9.2 3.5 0.4 7.4 4.1 7.3 9.8m-27.7 106.4c-1.1-3.7-2.2-8.6-4.8-11.1 3.9-0.3 6.4 2.8 8 5.1-0.9-3.7-2-8.8-4.5-11.1 4.1-0.4 7.1 3.2 8.5 6.2-0.7-3.5-1.7-8.1-4.4-10.8 4-0.5 6.7 2.7 9 6.8-0.9-3.6-2.2-8.4-4.4-10.4 4.1-0.5 7.6 3.5 9 7.3-0.6-3.4-2.2-8.6-4.2-10 4.4-0.6 8.4 4.2 9.4 8.7m7.4 187.5c-3.2-1.7-7.4-3.1-10.2-2.6 1.5-1.8 4.2-3.5 8.5-3.4-2.3-1.1-6.1-3.1-9.4-2.3 2.2-2.7 6-4.1 9.8-3.2-2.7-1.6-6.9-3-9.4-2.4 3-3.7 7.9-4 11-2.9-2.4-1.4-6.9-3.3-9.7-2.5 2.4-3.3 8.5-4.5 11.5-2.6-1.8-1.5-6.4-3.2-9.5-2.6 2.8-3.7 8.8-4.6 13.1-1.9m119 54.6c-4.2-0.3-8.6-0.2-11.1 1.3 1.5-2.9 3-4.8 7.4-6.5-4.2-0.2-7.7-0.4-10.3 1.4 1-2.9 4.1-6.1 8.4-6.7-2.9-0.8-8.2-0.3-10.1 1 1.2-3.4 5-6.4 9.1-6.6-2.2-0.9-7.9-0.5-9.7 1 0.9-3.3 5.3-6.9 9.8-6.7-3.3-1-8.2-0.2-9.8 1 1.4-4 6.1-7.5 11.8-6.7"/>
	<path id="Layer" fill-rule="evenodd" class="s2" d="m391.6 138.9c8.2-5.4 15.7-8.9 28.8-8.9 15.3 0 16.3 2 24.1 4.1 9.7-8.1 26.6 4.8 14.3 17.8 1.8 7.1 2.6 12.3 2.7 19.3 0.2 25.3-6.8 22.7-6.9 34.9-0.1 4.2 3.9 13.4 4 20.5 0.2 16.8-11.2 35.6-11.2 45.7 0 7.4 2.5 14.6 4.7 21.6 5.7 17.2 3.5 43.9 17.2 60.9l-0.6 9.6-4.6-0.1c0.1 5.2 1.6 43.1 4.8 56.3 1.2 4.6 5.4 10.4 1.5 15.4-3.1 4.1-7.1 8.2-10.4 12.3-7.8 10-21.3 20.1-34.3 20.5-7.4 0.3-11.2-27.6-6.2-27.8 4.7-0.3 9.6-0.3 13.7-2.4 3.1-1.2 3.3-5.3 1.2-7.4-21.2-21-33.2-30.5-35.8-75.6l-3.7 0.2c-0.2 11.9 2 23.2 5 34.6-7.5 3.5-15.1 8.1-20.9 13.9-12.2 11.5-17.4 28.5-21.1 44.4-0.4 4.5-4.6 7.3-8.8 7.8-7.4 1.1-13.7-3.2-20.2-5.8-9.8-5.1-19.6-6-28.4-10.4-4.8-2.3 0.2-26 4.9-26.8 2.9-0.5 6.3 0.8 9 2 5.8 2.2 9.2 8.3 15.3 9.7 2.2 0.8 5.2-0.5 4.6-3.2-3-16.4-4.3-34.1 2.7-49.7 6.3-12.9 16.2-25.4 42.6-37.9 2.1 2 5.9 6.2 8.1 7.5l2.5-1.9c-12.4-11-17.7-18.1-22.3-36.2 3.5-1.2 6.5-2.2 9.8-3.7l-1-3.4c-5.1 1.5-28 11.2-54.4 11-25.6-0.1-40.9-20.5-50.2-34.8-4.2-6.2 18.2-24.8 21.6-20.9 6.6 7.5 11.1 14.9 16.8 24.7 1.6 2.8 9.5 0.8 12.6-0.6 12.4-5.7 31.3-15.8 41.7-20.7l-0.6-3.1-5.8 2.5c-0.6-10 0.7-20.4 5.7-29.1 6-11 17.1-17.6 27.6-23.6 4.1-2.6 9.5-5.6 9-11.1-19.4 0.4-21.8-1-21.9-6.5 0.8-0.1 1.7-0.1 2.6-0.2-0.3-4.7 0.9-5.7 3-7 0.7 1.5 1.6 3.1 2.8 4.6v-0.9c0-2.9 5.1-3.2 6.8-1.4 1.4-2.4 7.9-1.9 8 0.9v2l2.7-0.3c0-4.8-0.5-9.9-3.3-13.9-0.9-1.1-1.9-2-2.9-2.9-0.6 1.2-1.4 2.4-3.2 2.4-1.6 0-3.7-0.1-4.6-2.5-1.1 1.7-5.1 1.6-6-0.7-0.3-0.9-0.3-2.5 0-3.9-0.1-0.1-0.3-0.1-0.5-0.2-2 1.4-3.3 2.9-3.7 6.2-4.2-3.4-4.7-5.5-4-9.5-5.2-3.8-6.6-8.5-6.7-15.7 0-1.2 0.8-1.7 1.8-1.7l20-0.8m-23.7 75.5c-8.6 10.6-13.5 16-13.1 41.7-81.6-46.6-57.7-53.2-75.6-81.1-2.8-4.3 15.4-14.4 21.2-10.2 11.6 8.6 7.3 24.7 16.9 32.1 9.6 7.2 26.6 10.4 50.6 17.5zm52.4-59.8c-9.7-15.4-17.5-17-20.4-5.9-1.2 4.5 2.8 4.5 3.7 1.1 1.1-3.8 2.9-7.8 10 3.2 0.7 0.9 2.9 1.6 4.1 1.6zm24.1-8.1c2.3-2.3 5-4.3 8.2-5.7 3.9-1.3 1.9-5.3-3-3.6-3.3 1.1-6.3 3.6-8.3 6.2zm-64.5 18.2c0.4-1.8 1.7-3.4 3.1-4.6-2.5-0.7-4.3-1.6-5.5-2.4-0.7 2.6 0.2 5.5 2.4 7zm5.8-3.8c-0.4 1.2-0.4 2.5-0.1 3.3 0.6 1.8 3.7 1.8 4.5 0.5 0.3-0.5 0.6-1.5 0.6-2.6-1.7-0.5-3.4-0.8-5-1.2zm6 4.4c0.8 1.6 2.3 1.7 3.6 1.7 1.5 0 2.2-1 2.6-2-1.9-1.3-4-2-6.2-2.7-0.3 1-0.4 2.2 0 3zm-4.5 18.4v-0.5c-1.1-1.4-2.1-3-3-4.6-1.8 1.3-2.1 3.2-1.8 5.6zm6.6-0.6v-2.1c0-2.5-5.8-2.7-5.8 0v2.6zm7.4-0.6v-1.9c0-2.4-6.7-2.6-6.7 0.1v2.3z"/>
</svg>