<svg version="1.2" xmlns="http://www.w3.org/2000/svg" viewBox="0 0 900 600" width="900" height="600">
	<defs>
		<radialGradient id="g1" cx="450.4" cy="291.4" r="102.2" gradientUnits="userSpaceOnUse">
			<stop offset="0" stop-color="#1d7f6f"/>
			<stop offset="1" stop-color="#54d8c3"/>
		</radialGradient>
	</defs>
	<style>
		.s0 { fill: #da251d } 
		.s1 { fill: #f8c400 } 
		.s2 { fill: #006e3b } 
		.s3 { fill: #ffffff } 
		.s4 { fill: #000063 } 
		.s5 { fill: #3ca39c } 
		.s6 { fill: url(#g1) } 
		.s7 { fill: #6b2900 } 
		.s8 { fill: none;stroke: #00086b;stroke-width: 6.6 } 
		.s9 { fill: #54d8c3;stroke: #000000;stroke-width: 1.3 } 
		.s10 { fill: none;stroke: #754c24;stroke-linecap: round;stroke-width: 5.3 } 
		.s11 { fill: #754c24 } 
		.s12 { fill: #f7931e } 
		.s13 { fill: #42210b } 
		.s14 { fill: #3ca39c;stroke: #000000;stroke-width: .3 } 
		.s15 { fill: #afe7e6 } 
		.s16 { fill: #000063;stroke: #000000;stroke-width: 1.3 } 
		.s17 { fill: #ff9c9c;stroke: #000000;stroke-width: 1.3 } 
		.s18 { fill: none;stroke: #745c40;stroke-width: 1.3 } 
		.s19 { fill: none;stroke: #000000;stroke-width: 1.3 } 
		.s20 { fill: #000000 } 
	</style>
	<path id="rect2964" class="s0" d="m-0.1 323.7h900.6v276.1h-900.6z"/>
	<path id="rect2968" class="s1" d="m-0.1 0.3h900.6v253.2h-900.6z"/>
	<path id="rect2966" class="s2" d="m-0.1 200.2h900.6v199.7h-900.6z"/>
	<path id="path4096" class="s3" d="m652.5 299.8c0 53.7-21.3 105.2-59.3 143.2-38 37.9-89.5 59.2-143.2 59.2-53.7 0-105.2-21.3-143.2-59.2-38-38-59.3-89.5-59.3-143.2 0-53.6 21.3-105.1 59.3-143.1 38-37.9 89.5-59.3 143.2-59.3 53.7 0 105.2 21.4 143.2 59.3 38 38 59.3 89.5 59.3 143.1z"/>
	<g id="g4011">
		<path id="path4" class="s4" d="m553.9 406.4c5.1 28.1-40.5 37-52.9 14.5-3.5-3.7-6.2-8.4-7.5-14.1-2.3-10 13-14.2 15.4-4.2q0.7 2.9 2 5c1.2 0.7 2.2 1.8 3 3.5q0 0.2 0.1 0.3c2.6 2.2 5.9 3.6 9.9 4.2 7.9 1.3 11.8-5.2 15.5-11.1 3.3-5.3 13.2-5.2 14.5 2z"/>
		<path id="path6" class="s5" d="m387.2 404.5c-3.2 11.4-10.7 25.9-23.8 27.4-14.9 1.7-24.7-10.1-29.3-22.8-3.5-9.6 11.9-13.8 15.4-4.2 1.6 4.4 7.5 15 13.7 10.6 4.6-3.4 7.1-9.9 8.6-15.2 2.8-9.9 18.2-5.7 15.4 4.2z"/>
		<path id="path8" class="s6" d="m323.4 298.9c0-74.8 56.8-135.5 127-135.5 70.1 0 127 60.7 127 135.5 0 52.5-28 98-68.9 120.5l-63.7-110.3-60.8 105.3c-36.4-23.8-60.6-66.7-60.6-115.5z"/>
		<path id="path12" class="s7" d="m463.7 364.2c-3.9 0-2.1-0.5-9.8-2.3-9.5-2.3-21-0.4-41.5-3.5-3.6-0.5-4.4-2.5-6.6-5.9-13.6-21-4.8-57.5-3.3-66 4-22.4 25.2-30 47.9-28.1 12.2 1 25.6 4.8 35.9 18.1 13.8 17.7 16.3 39.5 13 59.6l-6.3-1.1c2.9-17.1 2.9-36-9-51.3-8.5-10.9-20.3-19-34.1-19.2-20.7-0.4-35.7 8.9-38.7 25.5-4.1 23-4.7 48.6 0.8 56.4 0.9 1.3 1.7 1.5 2 1.5 21 3.2 35.6 6.6 45.4 8.9 6.1 1.4 6.2-7.4 8.5-7.5 0.4-1.9 6 3.6 5.7-1-0.3-5.2-3.3-20.1-3.3-20.1 0-8 5.6-21.3-0.5-31-3.6-5.8-6.1-14.3-19.4-17.8-9.3-2.4-15.4-2.9-26.7 8.3l-4.9 7.4 1.1-7.4c3.6-8.6 12.1-15.2 25.1-14.8 14.2 1.6 22.6 8.5 29.9 19 7.6 10.9 4.4 31 4.4 38.7 0 7.8 4.7 12.1 4.9 17.1 0.6 10.7-6 6.9-10.3 10.5-1.9 1.6-1.8 2.3-4.7 2.3l-5.5 3.7z"/>
		<path id="path14" class="s8" d="m333.9 408.4c-12.9 18.9-46-20.5-23.6-29.2"/>
		<path id="path16" class="s9" d="m307.1 377.3c20.1-13.1 37.5-23.3 37.5-23.3l16.5 8.3 4.4 17.6-30.7 32.2c-16.3 5.1-37.4-15-27.7-34.8z"/>
		<path id="path18" class="s10" d="m341.4 378.1c2.9-2.3 6-4.4 8.9-6.8"/>
		<path id="rect20" class="s11" d="m334.6 395.9l-13.3-1.4 1.5-13.3 13.2 1.4z"/>
		<path id="path22" class="s11" d="m330.4 371.4c3.2-2.6 7.9 0.7 12.2 6 4.2 5.3 6.4 10.6 3.2 13.2-3.2 2.5-7.7-9.6-7.7-9.6 0 0-10.9-7-7.7-9.6z"/>
		<path id="path24" class="s12" d="m321.7 375.4c6.3-5.1 12.8-1.9 17.9 4.4 5.1 6.3 6.8 13.3 0.5 18.4-6.3 5.1-9.2-11.4-9.2-11.4 0 0-15.5-6.3-9.2-11.4z"/>
		<path id="path26" class="s8" d="m308.1 371.9c-17.7 14.6-38.6-32.4-14.6-34.7"/>
		<path id="path28" class="s9" d="m290.9 334.6c22.9-7.1 42.5-12 42.5-12l13.5 12.5-0.6 18.2-38.3 22.4c-17.1 0.4-31.9-24.8-17.1-41.1z"/>
		<path id="path30" class="s10" d="m323.7 344.9c3.3-1.5 7-2.7 10.4-4.1"/>
		<path id="rect32" class="s11" d="m312.2 360.1l-12.3-5.1 5-12.3 12.3 5z"/>
		<path id="path34" class="s11" d="m314.9 335.3c3.8-1.6 7.4 2.9 10.1 9.2 2.6 6.2 3.3 11.9-0.5 13.5-3.8 1.6-4.8-11.3-4.8-11.3 0 0-8.6-9.8-4.8-11.4z"/>
		<path id="path36" class="s12" d="m305.5 336.8c7.5-3.2 12.9 1.7 16 9.1 3.1 7.5 2.8 14.7-4.7 17.9-7.4 3.1-5.6-13.5-5.6-13.5 0 0-13.2-10.4-5.7-13.5z"/>
		<path id="path38" class="s8" d="m293.4 329.6c-21 9.2-28.1-41.8-4.4-37.3"/>
		<path id="path40" class="s9" d="m287.2 289.1c24-0.5 44.2 0.2 44.2 0.2l9.5 15.7-5.7 17.3-43 10.9c-16.5-4.3-23.7-32.6-5-44.1z"/>
		<path id="path42" class="s10" d="m315.9 308c3.6-0.5 7.4-0.6 11.1-1"/>
		<path id="rect44" class="s11" d="m300.6 319.4l-10.5-8.2 8.3-10.5 10.5 8.3z"/>
		<path id="path46" class="s11" d="m310.1 296.4c4.1-0.5 6.3 4.8 7.1 11.6 0.8 6.7-0.1 12.4-4.2 12.9-4.1 0.4-1.5-12.3-1.5-12.3 0 0-5.5-11.7-1.4-12.2z"/>
		<path id="path48" class="s12" d="m300.6 295.2c8-1 11.9 5.2 12.8 13.2 1 8-1.3 14.9-9.4 15.9-8 0.9-1.7-14.6-1.7-14.6 0 0-9.7-13.6-1.7-14.5z"/>
		<path id="path50" class="s8" d="m290.9 285c-22.7 2.9-15.4-48 6.2-37.1"/>
		<path id="path52" class="s9" d="m296.2 244.3c23.3 6.1 42.4 12.4 42.4 12.4l4.8 17.8-10.2 15-44.4-1.4c-14.7-8.7-13.7-37.9 7.4-43.8z"/>
		<path id="path54" class="s10" d="m318.5 270.4c3.6 0.6 7.3 1.5 11 2.1"/>
		<path id="rect56" class="s11" d="m300.7 277.2l-7.7-10.9 10.8-7.7 7.8 10.8z"/>
		<path id="path58" class="s11" d="m316.2 257.7c4.1 0.6 4.7 6.3 3.6 13-1.1 6.7-3.5 11.9-7.6 11.3-4.1-0.7 2-12.2 2-12.2 0 0-2.1-12.8 2-12.1z"/>
		<path id="path60" class="s12" d="m307.4 253.9c8 1.3 10 8.2 8.7 16.2-1.3 8-5.4 14-13.4 12.7-8-1.4 2.4-14.5 2.4-14.5 0 0-5.6-15.8 2.3-14.4z"/>
		<path id="path62" class="s8" d="m301 241.4c-22.7-3.5-1.5-50.4 16.1-34"/>
		<path id="path64" class="s9" d="m317.3 203.7c20.6 12.4 37.3 23.7 37.3 23.7l-0.3 18.4-14 11.7-42.2-13.7c-11.7-12.5-2.7-40.2 19.2-40.1z"/>
		<path id="path66" class="s10" d="m331.5 235c3.3 1.5 6.6 3.4 10 5"/>
		<path id="rect68" class="s11" d="m312.5 236.6l-4.4-12.6 12.6-4.5 4.4 12.6z"/>
		<path id="path70" class="s11" d="m332.8 222.1c3.7 1.8 2.8 7.5-0.1 13.6-2.9 6.1-6.7 10.4-10.5 8.7-3.7-1.8 5.3-11.1 5.3-11.1 0 0 1.6-12.9 5.3-11.2z"/>
		<path id="path72" class="s12" d="m325.5 216.1c7.3 3.4 7.3 10.7 3.8 18-3.5 7.3-9.1 11.9-16.4 8.4-7.3-3.5 6.3-13.2 6.3-13.2 0 0-1.1-16.7 6.3-13.2z"/>
		<path id="path74" class="s8" d="m322.7 202.2c-20.8-9.5 12.5-48.7 24.9-28.1"/>
		<path id="path76" class="s9" d="m348.9 170.6c16.3 17.6 29.2 33.1 29.2 33.1l-5.4 17.6-16.6 7.3-36.8-24.8c-7.9-15.2 8.5-39.4 29.6-33.2z"/>
		<path id="path78" class="s10" d="m353.8 204.6c2.8 2.4 5.4 5.1 8.2 7.6"/>
		<path id="rect80" class="s11" d="m335.2 200.8l-0.9-13.3 13.4-0.8 0.8 13.3z"/>
		<path id="path82" class="s11" d="m358.6 192.6c3.1 2.7 0.6 7.9-3.9 13-4.5 5.1-9.3 8.2-12.4 5.4-3.1-2.7 8.2-9.2 8.2-9.2 0 0 5-11.9 8.1-9.2z"/>
		<path id="path84" class="s12" d="m353.2 184.7c6.1 5.4 4.1 12.3-1.3 18.4-5.3 6-12 8.9-18.1 3.5-6-5.3 9.7-10.9 9.7-10.9 0 0 3.7-16.4 9.7-11z"/>
		<path id="path86" class="s8" d="m354.4 170.7c-17.3-15 25.6-43.4 31.8-20.1"/>
		<path id="path88" class="s9" d="m388.3 147.5c10.9 21.4 19 39.9 19 39.9l-10.1 15.4-18 2.4-28.5-34c-3.3-16.8 19.1-35.5 37.6-23.7z"/>
		<path id="path90" class="s10" d="m383.7 181.6c2 3 3.7 6.4 5.7 9.5"/>
		<path id="rect92" class="s11" d="m366.8 172.8l2.9-13 13 2.9-2.9 13z"/>
		<path id="path94" class="s11" d="m391.6 171.3c2.2 3.5-1.6 7.8-7.3 11.5-5.8 3.6-11.3 5.2-13.5 1.7-2.2-3.4 10.4-6.6 10.4-6.6 0 0 8.2-10 10.4-6.6z"/>
		<path id="path96" class="s12" d="m388.6 162.3c4.4 6.8 0.5 12.9-6.3 17.3-6.9 4.3-14.1 5.2-18.4-1.6-4.3-6.9 12.4-7.9 12.4-7.9 0 0 8-14.7 12.3-7.8z"/>
		<path id="path98" class="s8" d="m393.7 149.1c-12.6-19.1 36.5-34.6 36-10.5"/>
		<path id="path100" class="s9" d="m432.6 136.3c4.5 23.6 7.2 43.5 7.2 43.5l-14 12-18-2.6-17.9-40.6c1.5-17 28.2-28.8 42.7-12.3z"/>
		<path id="path102" class="s10" d="m418.7 167.7c1.1 3.5 1.9 7.2 2.9 10.8"/>
		<path id="rect104" class="s11" d="m404.9 154.6l6.4-11.7 11.7 6.4-6.4 11.7z"/>
		<path id="path106" class="s11" d="m429.2 160.1c1.2 3.9-3.7 7-10.2 8.9-6.5 1.9-12.3 1.9-13.4-2-1.2-4 11.8-3.5 11.8-3.5 0 0 10.6-7.4 11.8-3.4z"/>
		<path id="path108" class="s12" d="m428.8 150.5c2.3 7.8-3.1 12.6-10.9 14.9-7.7 2.3-14.9 1.1-17.2-6.6-2.3-7.8 14.1-4.2 14.1-4.2 0 0 11.8-11.8 14-4.1z"/>
		<path id="path110" class="s8" d="m437.3 139.3c-6.7-21.9 44.7-23.2 37.6-0.2"/>
		<path id="path112" class="s9" d="m478.3 137.7c-2.2 23.9-5.2 43.8-5.2 43.8l-16.7 7.7-16.6-7.5-5.9-44c6.1-15.9 35-19.9 44.4 0z"/>
		<path id="path114" class="s10" d="m456.3 164.1c0 3.6-0.3 7.4-0.2 11.1"/>
		<path id="rect116" class="s11" d="m446.6 147.6l9.4-9.4 9.5 9.3-9.4 9.5z"/>
		<path id="path118" class="s11" d="m468.4 159.6c0.1 4.1-5.5 5.7-12.2 5.8-6.8 0-12.4-1.6-12.4-5.7 0-4.1 12.3 0 12.3 0 0 0 12.3-4.2 12.3-0.1z"/>
		<path id="path120" class="s12" d="m470.7 150.3c0.1 8.1-6.5 11.3-14.6 11.3-8.1 0-14.6-3-14.7-11.1 0-8.1 14.7-0.1 14.7-0.1 0 0 14.6-8.1 14.6-0.1z"/>
		<path id="path122" class="s8" d="m482 141.9c-0.4-22.9 49.4-9.9 36.1 10.2"/>
		<path id="path124" class="s9" d="m521.8 151.7c-8.7 22.4-17.1 40.7-17.1 40.7l-18.2 2.8-13.8-11.9 6.4-43.9c10.3-13.6 39.2-9.4 42.7 12.3z"/>
		<path id="path126" class="s10" d="m493.4 171c-1 3.5-2.3 7-3.3 10.6"/>
		<path id="rect128" class="s11" d="m488.6 152.5l11.7-6.5 6.5 11.6-11.7 6.5z"/>
		<path id="path130" class="s11" d="m506.3 170.1c-1.2 3.9-6.9 3.9-13.4 2.1-6.6-1.9-11.4-4.9-10.3-8.9 1.1-3.9 11.8 3.4 11.8 3.4 0 0 13-0.6 11.9 3.4z"/>
		<path id="path132" class="s12" d="m511 161.8c-2.2 7.8-9.3 9-17.1 6.8-7.8-2.2-13.3-7-11.1-14.8 2.3-7.8 14.1 4 14.1 4 0 0 16.3-3.8 14.1 4z"/>
		<path id="path134" class="s8" d="m524.2 156.8c5.9-22.1 50.2 4.1 31.9 19.8"/>
		<path id="path136" class="s9" d="m559.8 177.3c-14.6 19-27.8 34.3-27.8 34.3l-18.2-2.4-10-15.2 18.3-40.4c13.7-10.2 40.3 1.8 37.7 23.7z"/>
		<path id="path138" class="s10" d="m527.1 187.8c-1.9 3.1-4.2 6.2-6.2 9.4"/>
		<path id="rect140" class="s11" d="m527.7 168.8l13-3 3 13-13 3z"/>
		<path id="path142" class="s11" d="m539.7 190.6c-2.2 3.5-7.7 1.9-13.5-1.7-5.7-3.6-9.6-7.9-7.4-11.3 2.2-3.5 10.5 6.5 10.5 6.5 0 0 12.6 3 10.4 6.5z"/>
		<path id="path144" class="s12" d="m546.6 183.9c-4.3 6.9-11.5 6.1-18.4 1.8-6.8-4.3-10.8-10.4-6.5-17.2 4.3-6.9 12.5 7.7 12.5 7.7 0 0 16.7 0.9 12.4 7.7z"/>
		<path id="path146" class="s8" d="m560.6 182.8c11.9-19.6 47.1 17.9 25.2 27.9"/>
		<path id="path148" class="s9" d="m589.1 212.3c-19.3 14.3-36.1 25.3-36.1 25.3l-16.9-7.3-5.4-17.4 28.8-33.7c16-6.1 38.2 12.9 29.6 33.1z"/>
		<path id="path150" class="s10" d="m554.8 213.4c-2.7 2.5-5.7 4.8-8.5 7.3"/>
		<path id="rect152" class="s11" d="m560.6 195.3l13.4 0.7-0.7 13.3-13.3-0.7z"/>
		<path id="path154" class="s11" d="m566.2 219.5c-3.1 2.8-7.9-0.3-12.5-5.3-4.5-5.1-7.1-10.2-4-13 3.1-2.7 8.2 9.2 8.2 9.2 0 0 11.4 6.4 8.3 9.1z"/>
		<path id="path156" class="s12" d="m574.6 215.1c-6 5.4-12.7 2.6-18.1-3.4-5.4-6-7.5-13-1.5-18.4 6-5.4 9.8 10.9 9.8 10.9 0 0 15.9 5.4 9.8 10.9z"/>
		<path id="path158" class="s8" d="m588.4 217.8c16.8-15.5 40.3 30.3 16.5 33.8"/>
		<path id="path160" class="s9" d="m607.6 254.1c-22.5 8.3-41.7 14.3-41.7 14.3l-14.2-11.7-0.4-18.2 37.1-24.5c17-1.4 33.1 23 19.2 40.1z"/>
		<path id="path162" class="s10" d="m574.3 245.6c-3.2 1.7-6.8 3-10.1 4.7"/>
		<path id="rect164" class="s11" d="m585 229.8l12.6 4.4-4.4 12.6-12.6-4.4z"/>
		<path id="path166" class="s11" d="m583.6 254.7c-3.7 1.8-7.5-2.5-10.5-8.6-3-6.1-4-11.8-0.3-13.6 3.7-1.8 5.4 11.1 5.4 11.1 0 0 9.1 9.3 5.4 11.1z"/>
		<path id="path168" class="s12" d="m593 252.7c-7.3 3.6-13-1-16.5-8.2-3.6-7.3-3.6-14.6 3.6-18.1 7.3-3.6 6.4 13.2 6.4 13.2 0 0 13.7 9.6 6.5 13.1z"/>
		<path id="path170" class="s8" d="m605.5 259.2c20.4-10.3 30.3 40.2 6.4 37"/>
		<path id="path172" class="s9" d="m613.9 299.3c-24 1.9-44.1 2.3-44.1 2.3l-10.4-15.3 4.6-17.5 42.4-13.3c16.8 3.4 25.5 31.3 7.5 43.8z"/>
		<path id="path174" class="s10" d="m584.2 282c-3.6 0.7-7.4 1-11.1 1.7"/>
		<path id="rect176" class="s11" d="m598.8 269.8l10.9 7.6-7.7 10.9-10.9-7.6z"/>
		<path id="path178" class="s11" d="m590.6 293.3c-4.1 0.7-6.6-4.5-7.7-11.2-1.2-6.7-0.6-12.4 3.5-13.1 4-0.7 2.1 12.1 2.1 12.1 0 0 6.2 11.5 2.1 12.2z"/>
		<path id="path180" class="s12" d="m600.1 294c-8 1.4-12.1-4.6-13.5-12.5-1.4-8 0.5-15 8.5-16.4 8-1.4 2.5 14.5 2.5 14.5 0 0 10.5 13 2.5 14.4z"/>
		<path id="path182" class="s8" d="m610.3 303.7c22.5-4.3 18 47-4 37.3"/>
		<path id="path184" class="s9" d="m607.3 344.6c-23.5-4.9-43-10.1-43-10.1l-5.8-17.5 9.4-15.6 44.4-1c15.2 7.9 15.8 37.1-5 44.2z"/>
		<path id="path186" class="s10" d="m583.6 319.7c-3.6-0.4-7.4-1.1-11.1-1.5"/>
		<path id="rect188" class="s11" d="m601 312l8.3 10.4-10.3 8.3-8.4-10.4z"/>
		<path id="path190" class="s11" d="m586.6 332.3c-4.1-0.5-5.1-6.1-4.3-12.9 0.7-6.7 2.9-12 7-11.6 4.1 0.5-1.4 12.3-1.4 12.3 0 0 2.8 12.6-1.3 12.2z"/>
		<path id="path192" class="s12" d="m595.6 335.6c-8.1-0.9-10.5-7.7-9.6-15.8 0.9-8 4.7-14.2 12.7-13.3 8.1 0.9-1.5 14.6-1.5 14.6 0 0 6.4 15.4-1.6 14.5z"/>
		<path id="path194" class="s8" d="m602.7 347.7c22.8 2.2 4.3 50.2-14.2 34.8"/>
		<path id="path196" class="s9" d="m588.4 386.2c-21.2-11.2-38.5-21.6-38.5-21.6l-0.7-18.4 13.3-12.4 43 11.4c12.4 11.7 4.9 40-17 41z"/>
		<path id="path198" class="s10" d="m572.5 355.8c-3.3-1.4-6.7-3.1-10.2-4.5"/>
		<path id="rect200" class="s11" d="m591.4 353.2l5.2 12.2-12.3 5.2-5.2-12.3z"/>
		<path id="path202" class="s11" d="m572 368.7c-3.8-1.6-3.2-7.3-0.6-13.6 2.6-6.3 6.1-10.8 9.9-9.2 3.8 1.6-4.6 11.4-4.6 11.4 0 0-0.9 12.9-4.7 11.4z"/>
		<path id="path204" class="s12" d="m579.7 374.3c-7.5-3-7.9-10.3-4.8-17.7 3-7.5 8.4-12.4 15.9-9.4 7.5 3.1-5.6 13.6-5.6 13.6 0 0 1.9 16.6-5.5 13.5z"/>
		<path id="path206" class="s8" d="m583.2 388c21.3 8.4-9.8 49.4-23.4 29.4"/>
		<path id="path208" class="s9" d="m558.8 421c-17.3-16.7-31-31.4-31-31.4l4.4-17.9 16.2-8.2 38.1 22.8c8.7 14.7-6.3 39.8-27.7 34.7z"/>
		<path id="path210" class="s10" d="m551.9 387.3c-2.8-2.2-5.6-4.8-8.5-7.1"/>
		<path id="rect212" class="s11" d="m570.8 390.1l1.5 13.2-13.2 1.5-1.5-13.2z"/>
		<path id="path214" class="s11" d="m547.8 399.6c-3.2-2.6-1-7.9 3.2-13.2 4.2-5.3 8.9-8.7 12.1-6.1 3.2 2.6-7.6 9.6-7.6 9.6 0 0-4.4 12.3-7.7 9.7z"/>
		<path id="path216" class="s12" d="m553.7 407.2c-6.4-5-4.8-12.1 0.3-18.5 5-6.3 11.5-9.5 17.8-4.5 6.4 5-9.1 11.5-9.1 11.5 0 0-2.7 16.5-9 11.5z"/>
		<path id="path218" class="s10" d="m373.7 330.8c2.7-1.4 13.3-6.2 16.1-7.6"/>
		<path id="polygon220" class="s11" d="m354.4 340.2l4.1-9.6 10 2.8-4.1 9.5z"/>
		<path id="path222" class="s11" d="m366.6 324.4c3.1-1.5 6 1.5 8.2 6 2.1 4.4 2.6 8.6-0.4 10-3.1 1.5-3.9-8-3.9-8 0 0-7-6.5-3.9-8z"/>
		<path id="path224" class="s12" d="m359 326.2c6-2.9 10.4 0.3 12.9 5.5 2.6 5.3 2.3 10.7-3.7 13.6-6.1 2.9-4.6-9.5-4.6-9.5 0 0-10.7-6.7-4.6-9.6z"/>
		<path id="path226" class="s10" d="m367.9 309.1c3-0.5 14.5-2.4 17.6-2.9"/>
		<path id="polygon228" class="s11" d="m346.8 313.1l6.5-8.1 8.9 5.3-6.5 8.1z"/>
		<path id="path230" class="s11" d="m362.8 301.1c3.4-0.6 5.4 3.1 6.2 7.9 0.9 4.9 0.3 9-3 9.7-3.4 0.6-1.6-8.8-1.6-8.8 0 0-5-8.2-1.6-8.8z"/>
		<path id="path232" class="s12" d="m354.9 300.8c6.6-1.2 10 3 11.1 8.8 1 5.8-0.7 10.9-7.3 12.1-6.6 1.2-1.9-10.5-1.9-10.5 0 0-8.5-9.2-1.9-10.4z"/>
		<path id="path234" class="s10" d="m368.1 286.8c3.1 0.2 14.6 1.5 17.7 1.8"/>
		<path id="polygon236" class="s11" d="m346.7 284.9l8.4-6.1 7.2 7.5-8.4 6.1z"/>
		<path id="path238" class="s11" d="m365.3 277.7c3.4 0.3 4.4 4.4 3.9 9.3-0.4 4.9-2.1 8.7-5.5 8.4-3.4-0.3 0.8-8.9 0.8-8.9 0 0-2.6-9.2 0.8-8.8z"/>
		<path id="path240" class="s12" d="m357.8 275.3c6.7 0.6 8.8 5.5 8.3 11.4-0.5 5.8-3.5 10.3-10.2 9.7-6.7-0.6 1-10.6 1-10.6 0 0-5.8-11.1 0.9-10.5z"/>
		<path id="path242" class="s10" d="m374.3 265.3c2.8 1 13.7 5.3 16.6 6.4"/>
		<path id="polygon244" class="s11" d="m354.2 257.7l9.7-3.6 4.9 9.2-9.7 3.6z"/>
		<path id="path246" class="s11" d="m374 255.7c3.2 1.2 3 5.4 1.3 10-1.7 4.6-4.4 7.9-7.6 6.7-3.2-1.2 3.2-8.3 3.2-8.3 0 0-0.1-9.6 3.1-8.4z"/>
		<path id="path248" class="s12" d="m367.4 251.4c6.3 2.4 7.1 7.8 5 13.2-2.1 5.5-6.2 9-12.5 6.7-6.2-2.4 3.8-10 3.8-10 0 0-2.6-12.2 3.7-9.9z"/>
		<path id="path250" class="s10" d="m386 246.2c2.5 1.7 11.7 8.8 14.2 10.6"/>
		<path id="polygon252" class="s11" d="m368.6 233.5l10.3-0.8 2.3 10.1-10.3 0.9z"/>
		<path id="path254" class="s11" d="m388.3 236.9c2.7 2 1.4 6-1.5 10-2.9 4-6.3 6.4-9 4.4-2.8-2 5.2-7.2 5.2-7.2 0 0 2.5-9.2 5.3-7.2z"/>
		<path id="path256" class="s12" d="m383.1 231c5.4 4 4.7 9.3 1.2 14.1-3.4 4.7-8.3 7-13.7 3-5.5-3.9 6.2-8.5 6.2-8.5 0 0 0.8-12.6 6.3-8.6z"/>
		<path id="path258" class="s10" d="m402.4 230.9c1.9 2.4 8.9 11.7 10.8 14.1"/>
		<path id="polygon260" class="s11" d="m389 214.1l10.2 1.9-0.5 10.4-10.2-1.9z"/>
		<path id="path262" class="s11" d="m407 222.6c2.1 2.7-0.2 6.2-4 9.2-3.9 3.1-7.8 4.5-9.9 1.8-2.2-2.6 6.9-5.5 6.9-5.5 0 0 4.9-8.2 7-5.5z"/>
		<path id="path264" class="s12" d="m403.6 215.5c4.1 5.3 2 10.2-2.6 13.9-4.6 3.6-9.9 4.5-14-0.7-4.2-5.3 8.3-6.6 8.3-6.6 0 0 4.1-11.9 8.3-6.6z"/>
		<path id="path266" class="s10" d="m422.2 220.6c1.2 2.7 5.5 13.6 6.7 16.4"/>
		<path id="polygon268" class="s11" d="m413.8 200.8l9.3 4.5-3.2 9.9-9.4-4.6z"/>
		<path id="path270" class="s11" d="m428.9 213.8c1.4 3.1-1.8 5.9-6.3 7.8-4.6 1.9-8.8 2.3-10.1-0.9-1.3-3.2 8.2-3.5 8.2-3.5 0 0 6.9-6.6 8.2-3.4z"/>
		<path id="path272" class="s12" d="m427.5 206c2.6 6.2-0.8 10.4-6.2 12.7-5.4 2.3-10.7 1.8-13.3-4.4-2.6-6.2 9.7-4.1 9.7-4.1 0 0 7.2-10.4 9.8-4.2z"/>
		<path id="path274" class="s10" d="m444.1 215.9c0.4 3 1.7 14.6 2.1 17.6"/>
		<path id="polygon276" class="s11" d="m441.3 194.6l7.7 6.8-5.7 8.7-7.8-6.9z"/>
		<path id="path278" class="s11" d="m452.4 211.1c0.4 3.4-3.4 5.2-8.2 5.9-4.9 0.6-9-0.2-9.5-3.6-0.4-3.4 8.9-1.1 8.9-1.1 0 0 8.4-4.6 8.8-1.2z"/>
		<path id="path280" class="s12" d="m453.1 203.3c0.8 6.7-3.5 9.8-9.3 10.6-5.9 0.7-10.9-1.2-11.7-7.9-0.9-6.6 10.5-1.3 10.5-1.3 0 0 9.6-8.1 10.5-1.4z"/>
		<path id="path282" class="s10" d="m466.5 217.2c-0.4 3-2.3 14.5-2.8 17.6"/>
		<path id="polygon284" class="s11" d="m469.4 195.9l5.7 8.7-7.9 6.8-5.7-8.7z"/>
		<path id="path286" class="s11" d="m475.7 214.8c-0.5 3.4-4.6 4.2-9.5 3.5-4.9-0.7-8.6-2.6-8.1-6 0.4-3.3 8.8 1.3 8.8 1.3 0 0 9.3-2.1 8.8 1.2z"/>
		<path id="path288" class="s12" d="m478.5 207.5c-1 6.6-6 8.5-11.8 7.7-5.8-0.8-10.2-4.1-9.2-10.7 0.9-6.7 10.5 1.5 10.5 1.5 0 0 11.4-5.2 10.5 1.5z"/>
		<path id="path290" class="s10" d="m487.6 224.5c-1.1 2.7-6 13.3-7.3 16.1"/>
		<path id="polygon292" class="s11" d="m496.2 204.7l3.1 9.9-9.4 4.5-3.1-9.9z"/>
		<path id="path294" class="s11" d="m497.2 224.6c-1.4 3.2-5.6 2.8-10.1 0.8-4.5-1.9-7.6-4.7-6.3-7.9 1.4-3.1 8.2 3.6 8.2 3.6 0 0 9.6 0.4 8.2 3.5z"/>
		<path id="path296" class="s12" d="m501.8 218.3c-2.7 6.1-8.1 6.6-13.4 4.3-5.4-2.4-8.7-6.6-6-12.8 2.7-6.1 9.7 4.2 9.7 4.2 0 0 12.4-1.9 9.7 4.3z"/>
		<path id="path298" class="s10" d="m506.1 237.1c-1.9 2.3-9.4 11.2-11.4 13.6"/>
		<path id="polygon300" class="s11" d="m519.6 220.3l0.4 10.4-10.3 1.8-0.3-10.4z"/>
		<path id="path302" class="s11" d="m515.3 239.8c-2.2 2.7-6.1 1.2-9.9-1.9-3.9-3.1-6.1-6.7-4-9.3 2.2-2.7 6.9 5.6 6.9 5.6 0 0 9.1 3 7 5.6z"/>
		<path id="path304" class="s12" d="m521.4 234.9c-4.2 5.2-9.5 4.2-14.1 0.6-4.5-3.7-6.6-8.7-2.3-13.9 4.2-5.2 8.2 6.6 8.2 6.6 0 0 12.5 1.5 8.2 6.7z"/>
		<path id="path306" class="s10" d="m520.5 254.2c-2.4 1.8-12 8.3-14.6 10.1"/>
		<path id="polygon308" class="s11" d="m538 241.7l-2.4 10.1-10.3-1.1 2.4-10.1z"/>
		<path id="path310" class="s11" d="m528.6 259.3c-2.8 1.9-6.1-0.5-9-4.5-2.9-4.1-4.1-8.1-1.3-10 2.8-2 5.2 7.2 5.2 7.2 0 0 7.9 5.3 5.1 7.3z"/>
		<path id="path312" class="s12" d="m535.9 256.2c-5.5 3.9-10.4 1.5-13.8-3.3-3.3-4.7-4-10.1 1.5-14 5.5-3.9 6.1 8.7 6.1 8.7 0 0 11.6 4.7 6.2 8.6z"/>
		<path id="path314" class="s10" d="m529.9 274.5c-2.8 1.1-13.9 4.8-16.8 5.9"/>
		<path id="polygon316" class="s11" d="m550.1 267.1l-5 9.1-9.7-3.8 5-9z"/>
		<path id="path318" class="s11" d="m536.3 281.6c-3.2 1.1-5.8-2.2-7.5-6.8-1.7-4.6-1.8-8.8 1.4-10 3.2-1.1 3.1 8.4 3.1 8.4 0 0 6.2 7.2 3 8.4z"/>
		<path id="path320" class="s12" d="m544.1 280.5c-6.3 2.3-10.3-1.2-12.3-6.7-2-5.5-1.2-10.9 5.1-13.2 6.3-2.3 3.6 10 3.6 10 0 0 9.9 7.7 3.6 9.9z"/>
		<path id="path322" class="s10" d="m533.5 296.6c-3.1 0.3-14.7 0.9-17.8 1.2"/>
		<path id="polygon324" class="s11" d="m554.9 294.9l-7.3 7.4-8.3-6.2 7.3-7.4z"/>
		<path id="path326" class="s11" d="m537.8 305.1c-3.4 0.3-5.1-3.6-5.4-8.5-0.4-4.9 0.6-9 4-9.2 3.4-0.3 0.7 8.8 0.7 8.8 0 0 4.1 8.6 0.7 8.9z"/>
		<path id="path328" class="s12" d="m545.6 306.2c-6.7 0.5-9.7-4-10.1-9.8-0.5-5.9 1.7-10.8 8.4-11.3 6.7-0.5 0.8 10.5 0.8 10.5 0 0 7.6 10.1 0.9 10.6z"/>
		<path id="path330" class="s10" d="m531 318.9c-3-0.6-14.4-3.1-17.4-3.7"/>
		<path id="polygon332" class="s11" d="m552.1 322.9l-9 5.2-6.3-8.2 8.9-5.2z"/>
		<path id="path334" class="s11" d="m532.9 328.2c-3.4-0.6-3.9-4.8-3-9.6 1-4.9 3-8.5 6.4-7.9 3.3 0.7-1.7 8.8-1.7 8.8 0 0 1.6 9.4-1.7 8.7z"/>
		<path id="path336" class="s12" d="m540.1 331.3c-6.6-1.2-8.2-6.4-7.1-12.1 1.1-5.8 4.6-9.9 11.2-8.7 6.6 1.3-2.1 10.4-2.1 10.4 0 0 4.6 11.7-2 10.4z"/>
		<path id="path338" class="s10" d="m522.7 339.6c-2.7-1.3-13.1-6.7-15.8-8.1"/>
		<path id="polygon340" class="s11" d="m542 349.2l-10.1 2.6-3.9-9.6 10-2.6z"/>
		<path id="path342" class="s11" d="m522 349.1c-3-1.5-2.4-5.6-0.3-10 2.2-4.4 5.2-7.4 8.3-5.9 3 1.5-4 8-4 8 0 0-0.9 9.5-4 7.9z"/>
		<path id="path344" class="s12" d="m528.1 354.1c-6-3-6.2-8.4-3.6-13.6 2.7-5.3 7.1-8.4 13.1-5.4 6 3-4.7 9.5-4.7 9.5 0 0 1.2 12.5-4.8 9.5z"/>
		<path id="path346" fill-rule="evenodd" class="s4" d="m516.9 330.5c4.7 2.9 5.7 11.3 6 18.4 0.1 4.8-2.4 15.5-8.9 11.9-2.7-1.5-4.4-4.4-5.9-7.4-0.4-0.9-0.6-3-2.5-4-0.2 0-2.3 0.1-2.5 0.1-1 0.2-1.6 0.4-2.6 0.6-0.1 0.2-0.5 4.9-0.5 4.9 0.2 1.2-0.4 2.5-1.5 3.1-1.3 0.9-3.3 1.6-4.9 2.6-2.3 1.4-4.4 2.3-6.6 3.9-2.2 1.7-5.5 4.3-7.8 6.4 2.9 5.6 5.2 9.5 7.9 15q0.6 1.2 0.5 2.1c-0.1 0.3 0.3 1.1 0.3 1.4-0.6 1.9-2.7 1.9-4.5 1.6-2.5-0.3-3.8-0.7-6.4-1.1-0.7-0.2-2.2-0.3-3.1-0.4-2.1-0.1-3.5-1.8-5.5-1.8-0.1 0.5-1.1 3.7-1.2 4.3q-0.1 1.3-0.2 2.7c-0.5 5.6 0.3 11 0.7 16.6 0 1.4-1.1 2.9-2.5 3.2q-0.4 0.1-0.9 0.2c-1.6 0.4-2.8-0.3-3.5-1.3-0.7-0.1-1.3-0.4-1.9-1.1-3.5-4-7-8.3-9.1-13.3-0.6-1.4-3.2-11.9-6-8.5 0 0-1.2 1.5-2.1 3-0.5 2.1-1 4.2-1.4 5.3-0.7 2.4-1 4.2-1.5 6.3-0.8 4.3-0.3 1.3-1.2 6.3-0.1-1.9-2.8-3.9-3.5-5.5-0.6-0.3-1.1-0.8-1.4-1.3-0.8-1.5-0.2-3.1-0.7-4.6-0.4-1-0.4-1.5-0.6-2.9-0.7-5-2.5-10-3.9-14.8-0.2-0.9-0.8-1.4-0.5-2-1.1-1 0.4-1.9-0.9-2.4-0.5 0.3-3.9 0.2-4.7 0.2-2 0-3.1-0.9-3.2-2.5q-0.2-0.1-0.4-0.3c-9.5-8.2-16.7-19.3-25.6-28.3-0.9-0.9-1.1-2-0.8-3q-0.2-0.7 0-1.5c1.3-6 3.5-12.5 7.5-17.1 2.1-2.4 4.6-4.3 7.4-5.9 3.2-1.8 6.4-1.8 9.8-2.8 0.7-0.2 3.1 0.1 3.6 0.3 0.1-0.7 1-2 1.1-2.6 0.3-2.2 0.4-0.3 1.4-1.7q0.1-0.7 0.1-1.4c0-1.8 1.5-3.3 3.3-3.3 1.8 0 3.3 1.5 3.3 3.3 0 2.1-0.3 4.1-0.8 6.2-0.3 1.4-0.9 2.3-2.2 2.4 0.6 3.2-0.7 6.5 0 9.7q0.2 0.9 0 1.6c2.1 7 6.1 13.6 11.2 18.1 11.1 9.5 24.1 11.5 38.3 11.5 1.3 0 2.2 0.7 2.7 1.5 2.7-2.2 5.4-4.6 8.5-6 1.3-0.5 4.8-1.4 6.2-2.8-0.2-2.4-0.3-4.7 0.4-6.9-2.4-0.4-4.6-1.5-7.1-1.6q-2.6-0.1-5.2-0.1c-3.5 5.2-7.6 6.6-11.8 5.9q-0.6 0.3-1.4 0.3c-8.1-0.1-13.6-1.8-19.6-7.2-4.7-4.4-8.3-9.1-6.7-15.8 0.5-1.9 3.2-3.3 4.9-2 5.9 4.6 20.3 23.8 28.2 16.2q-0.5 0-1.1-0.2c-4.7-1.7-10.2-3.5-13.9-7-3.6-3.5-5.8-8.1-9-12-1.4-1.6-0.9-3.7 0.4-4.9-4-4.1-6.6-9.7-7.2-14.9-0.1-1 0.2-1.7 0.7-2.2 0.1-2 4-4.8 5.6-4.8 1.6 0.1 0.9 2.9 1 5 0.4 6.2 6.3 12.7 11.1 15.9 0.6 0.4 8.3 3.4 9.3 3.7 0.4-0.2 7.5 1.9 8.8 2.7 1.3 0.7 1.8 1.2 2.9 2.4 0.2 0.3 1.3 0.6 1.5 0.9 0.6-0.3 1.4 0.4 2.3 0.8 6 2.4 12.1 2.2 18.2 2.2 3.7 0 8.5-0.4 11.8 0.5zm-67.6 47.9q-0.2-0.7-0.3-1.3c-11.5-1.3-22.2-8.4-23.4-20.6 0-0.8 0.2-1.4 0.6-2q-1.4-1.6-2.7-3.4 0.6 2.4 1.1 4.7c1.4 6.3 3.1 12.5 7.4 17.6 0.5 0.6 0.8 1.4 0.8 2.1 1.9 0.4 3.6 1.1 5.6 1.7 3.5 1.2 7.2 1.2 10.9 1.2z"/>
		<path id="path348" class="s12" d="m479.7 464.5c-0.3 0.3-0.4 0.7-0.3 1.3q0.3 2.6 0.1 5.2-0.4 0.3-0.5 0.9-0.2 0.8-0.4 1.6c-0.3 0.1-0.7 0.2-1.1 0.2q-0.1 0-0.2 0c0.1-0.6 0.2-1.3 0.2-1.9q0-0.8-0.4-1.3c-0.1-0.1-0.1-0.2-0.2-0.3-0.6-0.9-1.7-1.3-2.7-0.8q0-0.1 0-0.2-0.1 0-0.1-0.1-0.1 0.3-0.3 0.6-0.4 0.4-0.6 0.9 0 0 0 0.1 0 0 0 0-0.1 0-0.1 0.1c-0.7 0.3-1.2 0.9-1.3 1.8 0 0.6-0.2 1-0.5 1.5-0.6 0.4-1 1.1-1.1 1.8q0 0.1 0 0.1-0.5 0.9-0.8 1.8-0.1 0-0.1 0.1-0.3 0-0.7-0.1 0 0-0.1-0.1 0-0.4 0-0.9 0.4-3 0.3-6c0-0.9-0.5-1.5-1.1-1.8q-0.1-0.5-0.3-1-0.9 0-1.7-0.5-0.2 0.3-0.4 0.5c-0.8-0.1-1.6 0.1-2.2 0.9-0.5 0.7-0.8 1.5-1.1 2.2-0.3 0.7-0.8 1.3-1.3 1.9-0.5 0.2-0.9 0.5-1.3 1-1.1 1.5-2.9 2.2-4.6 2.6 0-1.4 0.3-2.7 0.9-4q0.3-0.6 0.2-1.2c0.4-0.8 0.8-1.7 1.2-2.4 1.2-1.9 3.2-3.8 3.7-6.1 2.1-2.2 4.2-4.6 5.8-7.2 1.3-2 3.5-1.9 5-0.8q0.4-0.1 0.8-0.1 0.2 0.4 0.6 0.6c0.4 0.4 1 0.6 1.6 0.8q0.4 0.1 0.8 0.1 0.2 0.1 0.4 0.1 0 0.1 0.1 0.1 0 0 0 0c0.4 0.2 0.8 0.3 1.2 0.2 0.5 0.5 0.9 1 1.2 1.5 1 1.9 1.1 4.1 1.4 6.2z"/>
		<path id="path350" class="s12" d="m431.8 477.9q0 0.1 0 0.2-0.2-0.1-0.4-0.1h-0.3q-0.4-0.6-1.1-0.9c0.3-1.1 0.1-2.4-0.6-3.3q0.1-0.3 0.1-0.6 0-1.3-0.1-2.6c-0.1-1-0.4-1.8-0.6-2.8-0.1-0.4-0.4-0.8-0.7-1.1-0.1-1-0.4-2-0.7-2.9q0-0.2 0.1-0.3c0-1.2-0.8-1.9-1.7-2q-0.1-0.2-0.2-0.5-0.4 0.3-0.8 0.5 0 0.1 0 0.1c-0.8 0.2-1.4 0.9-1.5 1.9-0.2 1.9 0.2 3.9 0.1 5.9-0.1 0.8-0.1 2-0.3 3.2q0 0 0 0c-0.2 1.2-0.5 2.3-1.2 2.9q-0.2 0.1-0.4 0.3c-0.4-0.2-1.1-0.4-1.3-0.7-0.7-1-0.7-2.8-0.7-3.8q-0.1-3.2 0-6.3c0.1-1.2-0.6-1.8-1.5-2q-0.4-0.3-0.8-0.7-0.2 0.3-0.5 0.6c-0.6-0.3-1.2-0.4-1.9 0.1-2.2 1.4-2.5 3.5-3.2 5.8-0.6 1.9-0.1 5.7-1.2 7.9q-0.2 0.5-0.5 0.9c-0.3 0.3-0.7 0.6-1.2 0.8-2.4-2.6-0.3-5.2 0-8.1 0.5-3.4 1.6-6.1 2.8-9.2q0.2-0.7 0-1.3c0.5-0.8 0.8-1.5 1.1-1.9 0.3-0.5 0.3-0.9 0.3-1.3 1.5-2.3 3.5-4.3 6-5.4q0.8-0.1 1.6-0.3 0.5-0.2 0.9-0.4 0.3-0.1 0.5-0.2c0 0 0.7-0.1 0.4-0.1 0.7-0.1 1.3-0.4 1.7-1 0.7 0.2 1.3 0.7 1.8 1.4q0.2 0.1 0.3 0.1c0 0 0 0 0.3 0 1.7 0.1 2.9 0.8 3.8 2.1 0.8 1.1 1.1 2.3 1.2 3.6 0.1 0.6 0.1 1.7 0.2 2q0.1 0.1 0.2 0.3 0.3 0.2 0.7 0.4-0.1 0.4 0 0.8c0.5 3-0.2 6-0.1 9 0 1.7 0.1 3.3 0.1 5q0 0.2 0 0.5 0 0.7 0 1.3-0.1 0.2-0.1 0.4c-0.4 0.5-0.7 1.1-0.6 1.8z"/>
		<path id="path352" class="s13" d="m460.1 473.4q-0.4 0.2-0.7 0.6c-1.1 1.5-2.9 2.2-4.7 2.6 0.1-1.4 0.4-2.7 1-4q0.1-0.2 0.1-0.3c0.5-0.3 1-0.4 1.6-0.4 1.3 0 2.2 0.6 2.7 1.5z"/>
		<path id="path354" class="s13" d="m468.5 473.4q0 0 0 0c1.1 0 1.9 0.4 2.4 1-0.4 0.4-0.6 1-0.7 1.5 0 0.7-0.5 1.6-1 2.4q-0.3-0.2-0.7-0.2 0 0 0 0 0-0.1 0-0.1 0-2.1 0.1-4.2-0.1-0.2-0.1-0.4z"/>
		<path id="path356" class="s13" d="m479.5 471q-0.4 0.3-0.5 0.9c-0.5 1.8-0.8 3.6-1.1 5.4q-0.6-0.1-1-0.2 0.1-0.4 0.1-0.8c0-1.6 0.5-3 0.5-4.5q0-0.7-0.3-1.1 0.4-0.1 0.8-0.1c0.6 0 1.1 0.2 1.5 0.4z"/>
		<path id="path358" class="s13" d="m431.8 477.9q0 0.2 0 0.4 0 0.1-0.1 0.2-0.3-0.2-0.7-0.3c-2-0.7-1.8-3.2-1.8-4.9q0.5-0.2 1.2-0.2c0.9 0 1.6 0.3 2.1 0.8q0 0.2 0 0.5 0 0.9-0.1 1.7c-0.4 0.4-0.7 1.1-0.6 1.8z"/>
		<path id="path360" class="s13" d="m421.7 476.4q0-0.1-0.1-0.1c-0.5-0.4-0.9-0.6-1.3-1.1-0.3-0.3-0.6-0.4-1-0.5-0.1-0.8 0-1.8 0-2.5q0-0.8-0.3-1.3c0.4-0.3 1-0.5 1.7-0.5 1.3 0 2.2 0.7 2.7 1.6-0.3 0.4-0.4 0.9-0.2 1.5q-0.1 0.1-0.2 0.2-0.3 0.5-0.5 1c-0.3 0.6-0.5 1.1-0.8 1.7z"/>
		<path id="path362" class="s13" d="m407.3 474.2q0-0.4 0-0.8 0.4-0.1 1-0.1c1.5 0 2.5 0.8 2.9 1.9q0 0.1-0.1 0.1c-0.4 0.9-1.5 3.5-2.8 3.3-1.6-0.4-1.2-3.3-1-4.4z"/>
		<path id="path364" class="s14" d="m492 343.9c10.7-6.4 14-2.4-1.1 14-6.6 7-17.6 4.8-26.4 3.8-10.2-1.3-19.1-2.9-27.5-9.2-9.7-7.3-11.7-17-11.7-28.5 0-4.4 0-8.1-1.9-12.1-0.8-1.6-1.7-3.1-1.8-4.9-0.1-3.8 1.8-6.2 4.2-8.6 0.9-0.9 2.1-0.8 2.9-0.4q0.1 0 0.2-0.1c2.9-1.6 6-3.4 7.5-6.6 1-2.3 1.3-5 2.5-7.2 1.9-3.6 4.6-4.7 8.5-5.2 0.8-0.1 1.2-1.6 1.8-1 0.1-0.2 0.6 0.5 0.7 0.5 0.8 0 1.4-2.6 1.9-2.2 0 0.2-0.1 4.5-0.1 4.7 0 1.6-0.1 3.3-0.1 4.9-0.2 0.2-0.2 0.6-0.5 0.7 0.1 15.8-3.4 35.8 10.9 46 0.6 0.4 1 0.9 1.2 1.5 3.1 1.8 6.3 5.1 9.7 4.3 16.4-4 1.7 8.4-2.4 7.1-5.5-1.9-10.2-5-14.9-8.4-3.6-2.6-6-6.4-9.5-9.1-2.6-2.1-3.6-3.1-3.6 1.1 0.1 3.5 0.6 7.1 2.4 10.1 2.4 3.8 5.7 6.7 9.7 8.6 3.2 0.4 6.3 0.3 9.6 0.6 3.1 0.4 7.1 1.7 10 0.2 1-0.5 2-0.4 2.8-0.1 0.5-0.4 1.4-0.8 1.4-1.5 0-6.6 10.3-1 13.6-3z"/>
		<path id="path366" class="s14" d="m409.8 324.5c3.6-2.1 7.3 4.9 1.6 2.8-6.8 4.7-9.7 12-6.7 20.2 4.3 9.5-2.4 1.9-3.3-0.5-3.6-9.6 0.6-17.9 8.4-22.5z"/>
		<path id="path368" class="s14" d="m414.7 355.6c-5.5-13.6-9.6-22-0.6-25.7 4-1.7 4.6 2.4 2.9 2.8-7.7 1.5-0.9 16.4 1 22.5 0.7 2.4-0.5 2.4-3.3 0.4z"/>
		<path id="path370" class="s14" d="m446.6 373.7c11.6-0.8 4.2 7.1 0 6.7-6.7-0.6-13.4-2.6-18.2-7.6-5.2-5.5-3.9-12.9-8.2-18.8-1-1.4 2-6.2 3.5-6.7 1.6-0.6 2.4 2.8 2.9 5 1.4 5 1.8 10.8 5.5 14.8 4 4.2 8.8 7.1 14.5 6.6z"/>
		<path id="path372" class="s15" d="m453.2 266.4c0.3 0.6 0.4 1.3 0.2 2.1-0.8 3.7-0.8 7.3-2.5 10.7-1.9 3.9-10.2 2.5-11.1 5.9-1 3.6-1.3 8.7-4.5 11.3-2.9 2.4-5.6 2.4-9.3 2.3q-0.5 0-1-0.2 0.1 0 0.2-0.1c2-2.3 3.7-4.6 5-7.3 0.6-0.4 1-1 1.3-1.6q0.8-0.5 1.4-1.2c2.2-3 2.9-6.7 4-10.1 0.4-0.3 2.6-16 2.8-16.4-0.2-0.2-0.2-0.8-0.4-1q0.1-0.5 0.1-1v-1.6c0-0.8-0.2-1.5-0.7-2.1q0.1-0.1 0.2-0.2c1.4-1.4-2.3-7 4.7 0 2.5 2.4 9.7-3.6 12.3-1 1.8 1.8-1.4 10.1-2.7 11.5z"/>
		<path id="path4006" fill-rule="evenodd" class="s16" d="m463.4 215.1l-6.9 4.5-6.9 14-6.7-1-1.6-10.3-5.9-6.5 6.6-9.7 6.1 4.6 5.6-4.2zm-16.4 10.8c2.1-2.3 2.8-7.6 0.9-9.9-1.9 3.2-3.2 6.1-0.9 9.9z"/>
		<path id="path374" class="s3" d="m455.4 259.5c-1 1.7-3.4 2.1-5.5 1.4-5.1-1.7-8-4.4-10.8-8.1-1.2-1.6-0.7-1.8-1.4-3.6 0.3 0.8-0.6-0.9-1.3-0.7-0.3-0.1-0.6-0.1-0.9-0.1q-0.6-0.1-1.3-0.1-0.2 0-0.4 0.1c-0.4-0.2-0.9-0.3-1.3-0.1-0.4 0.1-0.7 0.2-1 0.5q-0.2 0.1-0.4 0.3-0.1-0.1-0.2-0.2c-1.5 0.5-3 0.9-4.7 0.7-0.3 0-0.5-0.1-0.7-0.3q0 0.1-0.1 0.1c-1.5 1-2.8-1.3-1.4-2.3 1.6-1 2.7-1.8 4.6-2.1 0-0.2 0.6-0.1 0.7-0.3q0.9-0.4 1.8-0.7 0.8-0.2 1.1-0.7c0.5-0.1 1-0.3 1.4-0.6 0.5-0.4 1-0.8 1.3-1.4q-0.3-0.6-0.3-1.3c0.1-0.4 0.1-0.9 0.2-1.3q0.1-0.1 0.1-0.2 0 0 0 0c-0.1-0.9-0.2-1.7 0.3-2.5 0.5-0.8 1.2-1.3 2-1.6 0.2 0 0.5-0.7 0.7-0.7 3.5-3.6 10.7-4.2 15 0 1.7 1.7 3.4 3.3 4.3 5.6q-0.1 0.4-0.1 0.8v0.3c0 1 0.4 1.9 1 2.5 0.3 6-0.3 12.5-2.7 16.6z"/>
		<path id="path376" class="s3" d="m436.1 408.6c0.9 0.4 1.5 1.4 1.3 2.7-0.6 7-2.2 13.8-3.4 20.6-0.5 2.8-0.2 5.8-1.1 8.5-0.9 2.7-1.7 5.3-1.6 8.3 0 4.3-6.6 4.2-6.7 0q0-0.3 0-0.6 0.3-0.4 0.5-0.9c3.6-11 3.9-22.2 5.8-33.6q0.1-0.2 0.1-0.4 0.2-0.4 0.3-0.9c0.3-2.2 0.5-4.5 0.5-6.8q0-0.3 0-0.6c0.9 0 1.9 0.4 2.7 1.4 0.6 0.8 1.1 1.5 1.6 2.3z"/>
		<path id="path378" class="s3" d="m471.4 453.1q0.1 0.7 0.4 1.1c-1.2 1.4-3.5 1.5-4.9 0.3q0.2-0.5 0.3-1c0.3-2.5 0.1-5-0.8-7.3 0-2.1-0.1-4.1-0.4-6.2-0.9-4.8-1.2-9.8-2.7-14.5q-0.2-0.7-0.7-1.2-0.2-1.2-0.4-2.4 0-0.3 0-0.6 0 0-0.1 0 0-0.1 0-0.2-0.2-1.2-0.5-2.4c-0.3-1-0.3-1.3-0.3-2.4 0-0.9-0.4-1.7-1-2.3 0.7-0.1 1.3 0.1 2 0.5 0.4 0.3 1.6 0.2 2.2-0.1 1.3-0.7 2.3-1.9 3.4-3q0.1-0.1 0.2-0.2c0.1 3-0.3 5.9 0.3 8.9q0.1 0.5 0.4 0.9 0.1 0.6 0.2 1.2c-0.3 0.5-0.5 1.1-0.5 1.9 0.2 9.7 2 19.3 3 29z"/>
		<path id="path380" class="s3" d="m445.2 237.2c-0.1 0.1-0.2 0.1 0 0z"/>
		<path id="path382" class="s12" d="m437.9 248.5c0.4 0.8 0.3 1.7-0.2 2.3 0.1-1-0.5-2-1.5-2.3-0.7-0.2-1.3-0.2-2-0.2q-0.7 0-1.2 0.4-0.2-0.3-0.4-0.7c-2.4 1-4.8 2-7.4 2-2.6-0.1-2.6-4.1 0-4 1.5 0 3-0.4 4.4-1 0.3-0.6 0.8-1.1 1.7-1.1q0.1-0.1 0.2-0.1 0.4-0.4 0.9-0.5 0.3-0.1 0.6-0.1c0.4 0 0.8 0.1 1.1 0.4q0.3 0.1 0.6 0.3c1.4 1.1 2.6 2.6 3 4.3q0.1 0.2 0.2 0.3z"/>
		<path id="path384" class="s17" d="m420.3 378.6c-4.8 7.5-36.8 41.9-43 44.7-8.4 5.1-40.3 2.4-30.3-34.5 15.7-25.6 41.1-39.4 44.2-42.5 5.6 5.7 29.1 32.3 29.1 32.3z"/>
		<path id="path386" class="s18" d="m368.4 413.3c-3.1 0-7.2-1-9.3-3.8-2.4-3-2.7-8.7-1-15.9 9.3-14.5 30.9-33.4 38.9-38.8 4.8 5.1 11 11.9 16.4 17.7-9.6 10.4-36.8 37.2-41.4 40.1l-0.3 0.2-0.3 0.2c-0.4 0.1-1.4 0.3-3 0.3z"/>
		<path id="path388" class="s18" d="m368.4 410.7c-2.3 0-5.6-0.7-7.2-2.8-1.8-2.3-2-7.1-0.6-13.3 8.4-12.9 26.9-29.6 36.1-36.3 4.2 4.6 9.1 9.9 13.1 14.2-11.3 12-34.8 34.9-39.1 37.8l-0.3 0.1-0.1 0.1c-0.3 0.1-0.9 0.2-1.9 0.2z"/>
		<path id="path390" class="s18" d="m368.4 408c-1.9 0-4.2-0.6-5.1-1.7-0.9-1.2-1.5-4.7-0.2-10.6 7.5-11.3 23.3-26.1 33.2-33.8 3.3 3.5 6.8 7.2 9.8 10.6-12.2 12.8-32.6 32.5-36.7 35.5q-0.3 0-1 0z"/>
		<path id="path392" class="s18" d="m368.4 405.4c-1.5 0-2.7-0.5-3-0.7-0.3-0.4-0.8-2.9 0.2-8 7.1-10.4 21.3-23.8 30.5-31.2 2.1 2.3 4.3 4.7 6.4 6.9-11.7 12.1-29.3 29.2-34.1 33q0 0 0 0z"/>
		<path id="path394" class="s18" d="m367.7 402.6c-0.1-1 0-2.5 0.4-4.8 6.1-8.8 18.1-20.7 27.7-28.7q1.5 1.7 3 3.3c-10.7 11.1-25.7 25.6-31.1 30.2z"/>
		<path id="path396" class="s19" d="m423 248.3c0-1.5 7.8-4.6 11.2-5.4 2.1-2.1-1-5.3 2.4-8.2 8.8-7.6 15.1-3.2 18.6 1.3 3.9 4.9 4.2 19.2-0.7 28-4.1 6-3.5 35.8-2.8 38.9 4 18.9 24.4 17.3 28.6 20.7 4.2 3.3 2.5 6.5 35 6.5 6.9 0 8.9 18.5 6.6 25.3-1.5 4.4-2.2 6.1-7.2 6.1-4.8-4.7-3.3-1.9-4.6-4.2-5.1-8.9-2.1-8.7-9.3-7.2-1.8 1.8 1 7.2-3.4 8.5-4.4 1.2-15.1 9.2-18.4 12.4 1.1 3.2 8.9 13.1 8.9 19-2.4 2.4-4.5 1-10.1 0-7-1.2-2.3 0.5-9.4-2.2-3.5 11.7 3 62.2 3 66.6 2.8 2.7 2.8 0 5.9 3.1 3.2 3.2 2.8 14.8 0 20.5 0-9.5 1.7-8.2-2.9-8.8-3.5 3.4-4.5 9.9-5.9 8.8 0-6.1 2.5-10.3-4.5-10.3-2.7 2.7-2.5 6.3-8.8 9.1 0-5.7 4.2-11.2 12.3-22.1 0-12.9-4.9-35.1-6.8-41.3-10-6.1-10.9-19.3-15.2-23.6-4.3 0-4.9 9.5-6.1 12.9-1.2 3.4-7.5 43.7-9.6 49.2 3.1 3 2.8 14.1 2.8 21.1 0 6.9-2.5 5.6-2.8 3.1 0-7.6-2.3-15.4-4.5-14.5-3.6 0-1.2 5-2.5 11.9-0.7 1.5-1 3.8-2.8 1.2-1.1-2.8-0.3-4.1-0.6-11.5-9.9-2-7.4 10.1-9.2 13-1.7 2.9-2.4 2.4-3.1 0 5.8-30.5 14.3-22.3 18.3-28.1 2.7-12.7 6.7-35.1 6.7-44.4 0-9.2-4.5-22.2-6.3-25.6-2.3 0-2.4-0.8-5.5 0.5-0.8-0.8-0.2-0.2-29.1-32.3 3.6-30.1 23.4-29.2 28.6-29.2 0-2.2 2.2-2.2 2.2-6.6 0-4.5-3.6-3.6 8.6-18.8 12.1-15.2 8.9-40.5 6.8-42.6-2.7-2.7-14.4 2.9-14.4-0.8z"/>
		<path id="path398" class="s20" d="m445 242.3c-1 0.5-2 0.8-3 0.7-1.2-0.2-2.2-0.7-2.1-2.1 0.1-1.6 1.3-2.2 2.8-2.5 0.7-0.2 1.4 0.2 1.6 0.9q0.1 0.3 0 0.6c0.5 0 0.9 0.2 1.2 0.6 0.3 0.6 0.1 1.5-0.5 1.8z"/>
		<path id="path400" class="s17" d="m498.4 350.1c7.1 4.6 39.1 35 41.8 40.9 4.7 7.9 2.2 38.2-32.2 28.8-24-15-36.8-39.1-39.7-42 5.3-5.4 30.1-27.7 30.1-27.7z"/>
		<path id="path402" class="s18" d="m536.1 402.1c0.1 3.1-0.8 7.2-3.6 9.4-3 2.4-8.6 2.9-15.9 1.4-14.8-9-34.2-30.1-39.8-37.9 5-4.9 11.6-11.3 17.3-16.8 10.7 9.3 38.2 35.8 41.2 40.3l0.1 0.3 0.3 0.4c0.1 0.3 0.4 1.4 0.4 2.9z"/>
		<path id="path404" class="s18" d="m533.4 402.2c0.1 2.3-0.5 5.6-2.5 7.2-2.3 1.9-7.2 2.2-13.3 1-13.2-8.1-30.3-26.2-37.3-35.2 4.5-4.3 9.7-9.4 13.9-13.4 12.3 11 35.8 33.9 38.8 38.1l0.1 0.2 0.1 0.2c0.1 0.3 0.2 0.9 0.2 1.8z"/>
		<path id="path406" class="s18" d="m530.8 402.2c0 1.9-0.5 4.3-1.6 5.2-1.2 0.9-4.7 1.6-10.6 0.5-11.5-7.2-26.7-22.7-34.7-32.4 3.4-3.4 7.1-6.9 10.4-10.1 13.1 11.9 33.4 31.8 36.4 35.8q0 0.3 0.1 1z"/>
		<path id="path408" class="s18" d="m528.1 402.3c0.1 1.5-0.4 2.8-0.6 3-0.4 0.3-2.9 0.9-8 0-10.6-6.8-24.4-20.7-32-29.6 2.3-2.2 4.6-4.5 6.8-6.6 12.4 11.3 29.9 28.5 33.8 33.2q0 0 0 0z"/>
		<path id="path410" class="s18" d="m525.3 403.1c-0.9 0.1-2.5 0.1-4.8-0.3-8.9-5.9-21.1-17.6-29.3-27q1.6-1.5 3.2-3.1c11.3 10.5 26.2 25.1 30.9 30.4z"/>
	</g>
</svg>