<svg version="1.2" baseProfile="tiny-ps" xmlns="http://www.w3.org/2000/svg" viewBox="0 0 900 600" width="900" height="600">
	<title>FLAG_CHI_minguo-svg</title>
	<style>
		tspan { white-space:pre }
		.s0 { fill: #fe0000 } 
		.s1 { fill: #000095 } 
		.s2 { fill: #ffffff } 
		.s3 { fill: #ffffff;stroke: #000095;stroke-width: 7.5 } 
		.s4 { fill: #000000 } 
	</style>
	<g id="Layer">
		<path id="Layer" fill-rule="evenodd" class="s0" d="m0 0h900v600h-900v-600z" />
		<path id="Layer" fill-rule="evenodd" class="s1" d="m0 0h450v300h-450v-300z" />
	</g>
	<path id="Layer" class="s2" d="m281.25 247.43l-153.68-153.68l209.93 56.25l-209.93 56.25l153.68-153.68l-56.25 209.93l-56.25-209.93l153.68 153.68l-209.93-56.25l209.93-56.25l-153.68 153.68l56.25-209.93l56.25 209.93z" />
	<path id="Layer" class="s3" d="m225 210c-33.18 0-60-26.82-60-60c0-33.18 26.82-60 60-60c33.18 0 60 26.82 60 60c0 33.18-26.82 60-60 60z" />
	<g id="Layer">
		<path id="Layer" fill-rule="evenodd" class="s4" d="m762.7 84.3c1.2 2.4 1.2 3.1 0.1 4.4c-1.2 1.5-1 1.5 1.7 0.9c1.7-0.4 3.7-1.4 4.6-2.2c2.1-1.9 10.5-1 13.2 1.4c5.3 4.8 4.2 8-3.7 10.5c-3 1-5.8 2.2-6.1 2.6c-0.9 1.6 2.7 3.5 7.4 4.1c3.7 0.4 4.6 0.9 4.6 2.4c0 1.4-1.4 2.5-5 3.9c-7.4 2.8-7.8 3.1-9.3 6.7c-1.2 3-1.2 3.2 0.4 2.6c0.9-0.3 5.8-1.2 11-1.8c10.3-1.3 14.4-0.4 14.4 3.1c0 2.3-0.7 2.6-13 4.5c-7.7 1.3-19 4.2-19 5c0 0.1 3.3 0 7.3-0.2c6.9-0.4 7.3-0.2 10 2.6l2.8 2.9l-2 7.4c-3.8 14.6-7.8 20.5-12.8 19.2c-1.4-0.3-4.1 0.2-6.1 1c-2 0.9-7.6 2.8-12.3 4.2c-7.3 2.1-8.8 2.9-9.3 4.9c-0.7 3-13.2 14.6-15.7 14.6c-3.1 0-4.9-1.2-6.4-4.1c-2-3.7-1.9-7.8 0.2-10.1c2.1-2.3 9.3-2.6 9.3-0.3c0 0.8 0.3 1.5 0.8 1.5c1.3-0.1 8.7-5 7.5-5c-0.7 0-1.3-0.5-1.3-1.1c0-0.6-1.1-2.4-2.4-4c-2.8-3.2-5.1-12.7-4-16.1c0.3-1.3 1.5-3.6 2.6-5.1l2-2.8l-5.4 2.1c-2.9 1.1-5.5 2.5-5.7 3.2c-1.2 3.6-16.1 32.6-17.7 34.5c-3.3 3.8-6.1 3.9-9.4 0.3c-2.7-2.9-3-3.9-3-9.5c0-6 0.2-6.5 2.9-8.1c2.3-1.4 5.1-6.2 12.9-22.3c12.1-24.9 12.1-25.1 8.9-25.1c-3.8 0-6.1-3.3-5.4-7.7c0.9-6.6 2.4-9.3 5.1-9.3c1.4 0 3.2 0.8 4.1 1.7c1.6 1.5 2.5 1.3 14.3-2.7c15.6-5.3 16.9-5.9 12-6c-3.6 0-4.3-0.6-3.9-3.7c0.1-0.6-0.7-1.4-1.7-1.7c-6.1-2-6.7-9.8-0.9-11.5c9.3-2.7 17.3 0.4 21.4 8.2zm1.2 20.8c-0.3-0.6-3.7 0.1-8.1 1.6c-7.4 2.4-7.8 2.7-7.8 5.6c0 2.8 0.2 2.9 3.2 2.3c8.7-1.7 10.6-2.6 11.8-5.6c0.7-1.6 1-3.3 0.9-3.9zm-25.3 9.2c-0.3-0.4-0.6 0.2-0.5 1.3c0 1.1 0.3 1.4 0.6 0.6c0.3-0.7 0.2-1.6-0.1-1.9zm22 1.7c-0.6 0-8.1 6.2-8.8 7.3c-1.2 1.9-0.9 3.7 0.6 3.7c1.8 0 8.6-7.5 8.6-9.5c0-0.8-0.2-1.5-0.4-1.5zm-20.6 13.1c-1.4 0.6-3.9 0.8-5.6 0.5c-2.7-0.6-3.2-0.3-4.7 3c-1.2 2.5-1.4 3.4-0.5 3.1c0.7-0.3 4.3-1.6 8.1-2.8c3.7-1.3 6.7-2.9 6.7-3.6c0-1.5-0.6-1.5-4-0.2zm8.8 7c-3.5 0.9-8.8 2.8-10.3 3.7c-2 1.1-2 1.1 0 1.1c2.1 0.1 10.5-3.4 10.5-4.4c0-0.3-0.1-0.5-0.2-0.4zm17.2 3.1l-3.5 1l2.8 2c3.4 2.5 3.4 3.6-0.3 8.3c-3.1 3.9-4 7-1.7 6.3c0.6-0.3 1.4-1.3 1.5-2.4c0.6-2.9 1.8-3.7 4-2.5c1.9 1 2.2 0.7 3.1-2.6c0.6-2.1 1.1-5.5 1.1-7.6c0-4.1-0.7-4.3-7-2.5zm-16.4 6.7c-0.4 0.5 0.3 0.7 1.4 0.4c1.1-0.3 2-0.7 2-0.9c0-0.8-2.9-0.4-3.4 0.5zm-4.9 5.6c-0.3-1.2-0.5-0.4-0.6 1.7c-0.1 3.8 1.1 5.4 3 4.3c0.7-0.5 0.5-1.2-0.4-2.3c-0.8-1-1.7-2.6-2-3.7z" />
		<path id="Layer" class="s4" d="m780.8 167.1c8.6-0.2 13.2 3.2 17.8 13.2c3.1 6.9 2.4 10.7-2.1 10.7c-3 0-11.6-6-19.7-13.9c-6.2-5.9-7.2-8.7-3.5-9.4c1.2-0.2 4.6-0.5 7.5-0.6z" />
		<path id="Layer" class="s4" d="m793.8 246.1c5 3.7 5 3.8 2 19.7c-2 10.3-2.3 14.6-2.2 35.2c0.1 17 0.7 26.3 1.9 33.8c1.9 11.4 1.5 16.4-1.8 18.7c-3.5 2.4-6 1.7-9.8-2.8c-4.3-5-6.6-12.8-5-17.1c1.4-3.5 1.4-41.5 0.1-43.6c-0.8-1.3-1-1.3-1-0.1c0 0.8-1 2.5-2.2 3.8c-4.1 4.4-10.8 2-12.4-4.4c-0.7-2.5-0.8-2.5-1.5-0.8c-0.9 2.4-0.9 22.4 0 31.5c0.8 7.9-0.3 11.8-3.5 12.6c-3.3 0.8-7.5-2.4-10.8-8.7c-2.9-5.1-2.9-5.3-1.7-12.8c1.7-11.5 1.6-13.1-1.3-13.1c-4.1 0-7.5-1.8-9.5-5.1c-2.2-3.6-1.7-4.7-6.1 12.6c-2.4 9.7-3.8 13.1-7.2 18c-7.5 10.7-11.9 15.5-14.5 15.5c-6.5 0-8.5-15.1-2.6-19.7c6.3-4.9 7.2-6.3 10.1-15.4c1.6-5.2 3.2-10.8 3.6-12.4c0.5-2.7 0.4-2.8-0.7-1.1c-3.8 6-7.5 7.1-12 3.6c-3-2.4-5-7.6-4.9-13.2c0.1-4.8 1.9-10.5 3.5-11.1c2.1-0.8 5.4 1.1 8.2 4.7c1.4 1.9 3.2 3.3 3.9 3c0.8-0.3 2.1 0.2 2.9 1.1c1.9 1.8 1.8 1.9 3.6-8.5c0.7-4.1 0.6-5.9-0.3-7c-2.4-2.8-2.5-4.8-0.5-7.4c6.6-8.4 16.9-0.4 16.9 13.3c0 5.5 0.2 5.9 2 5.4c1.2-0.3 2.9 0.2 4.1 1.3c1.7 1.5 2.2 1.6 2.9 0.4c0.9-1.4 2.5-10 3.6-18.7c0.7-6.6 3.5-10.3 7.6-10.3c3.3 0 9.3 3.2 10.1 5.3c0.9 2.3-0.1 10.1-1.7 13.9c-1.9 4.5-2 5.8-0.3 5.8c0.7 0 2.9 1.1 4.9 2.5c2.9 1.9 3.8 2.2 4.7 1.1c2.4-2.9 3.9-8.7 4.6-18c0.6-8.5 1-10.2 3.1-12.3c3-3 4.2-2.9 9.2 0.8z" />
		<path id="Layer" fill-rule="evenodd" class="s4" d="m622.8 251.5c3.2 3.7 2.2 11.2-2.3 17.5c-3.4 4.7-6.9 11-6.1 11c0.2 0 2.6-0.9 5.3-2.1c7.9-3.5 10.5-4 17-3.3c11.6 1.2 12.2 4.7 1.7 9.7c-6.6 3.2-14.4 9.2-14.4 11c0 0.7 0.9 2.3 2 3.7c2.6 3.3 2.5 5.7-0.6 14.8l-2.7 7.6l3.6 3.1c6.1 5.2 23.2 12.5 29.6 12.5c1.4 0 4.5 0.9 6.9 2c3.5 1.6 4.3 2.4 4 4.2c-0.5 3.3-7.2 5-20.3 5.1l-11 0.2l-6.3-4.3c-3.4-2.4-7.9-5.7-9.8-7.4l-3.5-3.1l-5.2 5.1c-6.4 6.3-10.8 8.2-19 8.2c-8.1 0-12.5-2.6-14.6-8.7l-1.5-4.1l-4.5 3.2c-2.4 1.7-6.4 5-8.7 7.3c-2.3 2.4-5 4.3-6.1 4.3c-2.8 0-6.5-4.3-6.6-7.7c-0.3-8.3 0.3-11.4 2.8-13.7c3-2.8 3.1-5.7 0.9-16.8c-2.2-11.1-0.6-15.8 5.7-15.8c2.2 0 3 0.5 3.3 2.2c1.7 9.1 2.6 16.4 2.6 21.9c0 5.8 0.1 6.2 1.6 4.7c1.2-1.2 1.4-2 0.5-3.6c-1.6-2.9-1.4-6.7 0.4-8.2c0.8-0.7 1.5-2.5 1.5-3.9c0-2.3 2.4-16.6 4.5-26.7c0.7-3 0.5-3.3-3.1-4.4c-5.3-1.7-9.4-4.8-9.4-6.9c0-2 2.3-3.3 12.4-6.7c11.9-4.1 24.6-2.5 24.6 3c0 3.3-4.3 8.2-8.4 9.6c-4.9 1.6-7.8 5.2-8.3 10.4c-0.6 5.1-0.5 5.2 6 3.4l4.3-1.1l4.9-12.6c6.8-17.7 10-23.8 13.8-26.2c4.2-2.6 9.4-1.9 12.5 1.6zm-40.8 46.2c-2.5-0.6-2.8 2.8-0.4 3.7c1.3 0.5 1.6 1.6 1.2 5.6c-0.3 2.8-0.4 5-0.3 5c0.2 0 2.3-1.1 4.6-2.5c2.5-1.4 3.6-2.5 2.7-2.5c-2.6 0-5.8-3.6-5.8-6.4c0-1.5-0.7-2.6-2-2.9zm24.2 2l-3.2 2.8l2.6 3.2c1.4 1.8 3.2 3.3 3.9 3.3c1.6 0 3.8-6 3.3-9.2c-0.4-3.3-2.8-3.3-6.6-0.1zm-9.8 14.3c-0.8 0-4.4 2.8-8 6.3c-5.2 5.1-6.4 6.9-6.4 9.5c0 7.1 8.4 7.4 16 0.6c2.1-1.9 4.3-4.8 4.8-6.3c0.9-2.5 0.6-3.4-2-6.5c-1.6-2-3.6-3.6-4.4-3.6z" />
		<path id="Layer" fill-rule="evenodd" class="s4" d="m617 408.1c7.4 2.3 9.7 4 11.7 8.7c1.1 2.6 1.8 3.2 3.1 2.6c2.3-1.2 10.6-0.8 13.1 0.6c3.1 1.6 3.9 6 1.4 8c-1.1 0.9-9 4.2-17.6 7.4c-14.3 5.3-15.9 6.2-20.1 10.7c-2.5 2.7-4.6 5.9-4.6 7.2c-0.1 1.2-0.7 4-1.5 6.2c-0.8 2.1-1.2 4.1-1 4.3c0.2 0.3 2.3-2.5 4.6-6.2c2.3-3.6 4.7-6.6 5.5-6.6c2 0 5.2 3.5 6 6.5c0.5 1.9-0.3 3.8-3.3 8.2c-6 8.9-5.9 8.4-1.6 8.1c4.6-0.2 18.4 2.5 24.2 4.9c1.1 0.5 1.3-0.6 0.7-5.8c-0.4-3.5-0.8-6.5-1-6.6c-0.1-0.1-2 0.4-4.1 1.2c-2.2 0.8-6.4 1.4-9.2 1.5c-4.6 0-5.3-0.3-5.3-2c0-2.1 3.6-4.8 13-9.7c5.4-2.8 5.5-2.9 5.5-7.3c0-2.5-0.4-6.1-0.8-8.2c-0.7-3.6 0.9-6.8 3.4-6.8c1.7 0 6.8 6.3 7.9 9.6c1 3 1.4 3.2 4.5 2.7c1.9-0.3 5-0.2 7 0.1c3.2 0.6 3.6 1 3.3 3.4c-0.2 2.1-1.5 3.3-6.1 5.8c-9.8 5.2-9.3 3.6-7.9 24.9c0.7 10.2 1.9 21.5 2.8 25.2c1.9 8.3 1.1 13.6-2.3 16.3c-1.4 1.1-3.1 2-3.8 2c-1.6 0-17.3-7.9-21.2-10.8c-3.1-2.2-12.2-16.2-12.4-19.2c-0.3-3-1.7 4.6-1.8 9.6c-0.1 5.5-1.6 7.7-6.1 8.7c-3 0.7-3.9 0.2-6.8-4c-2.1-2.9-2.2-3.9-1.6-11.2c0.4-4.5 0.4-8.1-0.1-8.1c-0.4 0-2 1.1-3.7 2.5c-1.6 1.4-3.7 2.5-4.6 2.6c-0.9 0-4.1 3.4-7.1 7.5c-9 12.6-17.4 17.8-22.6 14c-2.9-2.1-2.3-11.1 0.8-14.6c5.1-5.5 20.3-32.2 25.2-44.3l2.4-5.8l-4.7 0.6c-6.5 0.8-9.5-0.9-10.6-6.2c-2.2-10.5 2.5-13.3 20.4-12.2c1.4 0.1 6.4-1.2 11.2-2.9c14.1-5 15-6 8.1-8.8c-5.7-2.4-8.8-9.7-6.3-14.5c1.4-2.5 5.6-2.5 14 0.2zm-4 76.6c0 0.5 1.7 3.7 3.8 7.2c3.1 5.4 4.7 7 9.7 9.8c8.7 4.8 10.1 4.5 10.9-2c0.3-2.8 0.6-7.1 0.6-9.4c0-4.1-0.1-4.2-2.6-3.3c-3.3 1.3-17.1 1.3-17.9 0c-0.9-1.4-4.5-3.2-4.5-2.3z" />
	</g>
</svg>