<svg version="1.2" baseProfile="tiny-ps" xmlns="http://www.w3.org/2000/svg" viewBox="0 0 900 600" width="900" height="600">
	<style>
		tspan { white-space:pre }
		.s0 { fill: #cc0000 } 
		.s1 { fill: #ffd700 } 
		.s2 { fill: #f7c500 } 
		.s3 { fill: #004e9b } 
	</style>
	<path fill-rule="evenodd" class="s0" d="m0 0h900v600h-900v-600z" />
	<path fill-rule="evenodd" class="s1" d="m145.5 63.4h27.2l-22.1 16l8.4 25.9l-22-16l-22 16l8.4-25.9l-22.1-16h27.3l8.4-25.9l8.5 25.9zm-13.9 4.2h-17.4l14.1 10.2l-5.4 16.6l14.1-10.2l14.1 10.2l-5.4-16.6l14.1-10.2h-17.4l-5.4-16.6l-5.4 16.6z" />
	<g >
		<path class="s1" d="m116.1 138l33.3 4.6l-24 23.8c28.9 27.3 57.8 54.7 86.6 81.9c4 4.1 4 10.7-0.1 14.7c-4.1 4-10.7 4-14.7-0.1c-26.9-29.1-55.2-57.1-82.3-86.1l-17.8 17.7l-18.9-19l37.9-37.5z" />
		<path class="s1" d="m139.1 114.1c17.8 4.7 33.5 15.4 44.2 28.2c14 16.8 20.1 37.3 19.6 53.2c-1.1 31.5-23.4 53.5-53.2 52.8c-16.2-0.3-30.8-7.7-40.5-19.1c-0.5 2.3-2.1 4.2-4.2 5.2c-0.1 0.1-0.2 0.1-0.4 0.2c-6.3 3.1-11.3 8.5-13.6 15.1c-1.1 3.3-3.2 6.6-6 9.5c-5 5.1-11.4 7.7-16.1 6.6c-0.5 0.2-1.1 0.3-1.6 0.3c-2.1 0-3.9-1.7-3.9-3.9c0-0.5 0.1-0.9 0.2-1.3c-1.4-4.7 1.1-11.4 6.3-16.6c2.6-2.6 5.7-4.7 8.8-5.8c0.1 0 0.1-0.1 0.2-0.1c6.7-2.3 12.2-7.2 15.3-13.5c0.9-2.9 3.4-4.9 6.4-5.3c1.1-1.4 2.9-2.2 4.7-2.2c0.7 0 1.5 0.1 2.2 0.4l4.2-3.5c7.6 8.4 18.5 13.6 30.6 13.6c22.8 0 41.3-18.5 41.2-41.2c-0.1-11.1-3.2-25-10.2-38.3c-6.9-13.1-18.7-25.7-34.2-34.4v0.1z" />
	</g>
	<path class="s2" d="m0 300h900v200h-900v-200z" />
	<path class="s3" d="m0 300h900v100h-900v-100z" />
</svg>