<svg version="1.2" baseProfile="tiny-ps" xmlns="http://www.w3.org/2000/svg" viewBox="0 0 1008 672" width="900" height="600"><title></title><style>tspan { white-space:pre }.shp0 { fill: #00672b } .shp1 { fill: #ffffff } </style><path class="shp0" d="M0 0L1008 0L1008 672L0 672L0 0Z" /><path class="shp1" d="M448 504C355.1 504 280 428.9 280 336C280 243.1 355.1 168 448 168C540.9 168 616 243.1 616 336C616 428.9 540.9 504 448 504Z" /><path class="shp0" d="M485 478C406.47 478 343 414.53 343 336C343 257.47 406.47 194 485 194C563.53 194 627 257.47 627 336C627 414.53 563.53 478 485 478Z" /><g ><g ><path class="shp1" d="M448 222L435.02 261.94L454.99 268.43" /><path class="shp1" d="M448 222L460.98 261.94L441.01 268.43" /></g><g ><path class="shp1" d="M487.94 251.02L445.94 251.02L445.94 272.02" /><path class="shp1" d="M487.94 251.02L453.97 275.71L441.62 258.72" /></g><g ><path class="shp1" d="M472.69 297.98L459.71 258.03L439.74 264.52" /><path class="shp1" d="M472.69 297.98L438.71 273.29L451.05 256.3" /></g><g ><path class="shp1" d="M423.31 297.98L457.29 273.29L444.95 256.3" /><path class="shp1" d="M423.31 297.98L436.29 258.03L456.26 264.52" /></g><g ><path class="shp1" d="M408.06 251.02L442.03 275.71L454.38 258.72" /><path class="shp1" d="M408.06 251.02L450.06 251.02L450.06 272.02" /></g></g><g ><g ><path class="shp1" d="M448 450L460.98 410.06L441.01 403.57" /><path class="shp1" d="M448 450L435.02 410.06L454.99 403.57" /></g><g ><path class="shp1" d="M408.06 420.98L450.06 420.98L450.06 399.98" /><path class="shp1" d="M408.06 420.98L442.03 396.29L454.38 413.28" /></g><g ><path class="shp1" d="M423.31 374.02L436.29 413.97L456.26 407.48" /><path class="shp1" d="M423.31 374.02L457.29 398.71L444.95 415.7" /></g><g ><path class="shp1" d="M472.69 374.02L438.71 398.71L451.05 415.7" /><path class="shp1" d="M472.69 374.02L459.71 413.97L439.74 407.48" /></g><g ><path class="shp1" d="M487.94 420.98L453.97 396.29L441.62 413.28" /><path class="shp1" d="M487.94 420.98L445.94 420.98L445.94 399.98" /></g></g><g ><g ><path class="shp1" d="M614.71 336L574.76 323.02L568.27 342.99" /><path class="shp1" d="M614.71 336L574.76 348.98L568.27 329.01" /></g><g ><path class="shp1" d="M585.69 375.94L585.69 333.94L564.69 333.94" /><path class="shp1" d="M585.69 375.94L561 341.97L577.99 329.62" /></g><g ><path class="shp1" d="M538.73 360.69L578.67 347.71L572.18 327.74" /><path class="shp1" d="M538.73 360.69L563.42 326.71L580.41 339.05" /></g><g ><path class="shp1" d="M538.73 311.31L563.42 345.29L580.41 332.95" /><path class="shp1" d="M538.73 311.31L578.67 324.29L572.18 344.26" /></g><g ><path class="shp1" d="M585.69 296.06L561 330.03L577.99 342.38" /><path class="shp1" d="M585.69 296.06L585.69 338.06L564.69 338.06" /></g></g></svg>