<svg version="1.2" xmlns="http://www.w3.org/2000/svg" viewBox="0 0 900 600" width="900" height="600">
	<title></title>
	<style>
		.s0 { fill: #00247d } 
		.s1 { fill: none;stroke: #ffffff;stroke-width: 52 } 
		.s2 { fill: none;stroke: #ffffff;stroke-width: 86.7 } 
		.s3 { fill: none;stroke: #cf142b;stroke-width: 52 } 
		.s4 { fill: #fcc917 } 
		.s5 { fill: #f7e017 } 
		.s6 { fill: #f56600 } 
		.s7 { fill: #000000 } 
		.s8 { fill: #cf142b } 
		.s9 { fill: #144d29;stroke: #000000;stroke-width: 1.1 } 
		.s10 { fill: #144d29 } 
		.s11 { fill: #337321 } 
		.s12 { fill: #337321;stroke: #000000;stroke-width: .3 } 
		.s13 { fill: #144d29;stroke: #000000;stroke-width: .3 } 
		.s14 { fill: none;stroke: #000000;stroke-width: 1.1 } 
		.s15 { fill: #5c3021;stroke: #000000;stroke-width: .9 } 
		.s16 { fill: #1a472b;stroke: #000000;stroke-width: .5 } 
		.s17 { fill: none;stroke: #337321;stroke-width: .5 } 
		.s18 { fill: none;stroke: #337321;stroke-width: .2 } 
		.s19 { fill: #5c3021;stroke: #000000;stroke-width: .2 } 
		.s20 { fill: #96877d;stroke: #000000;stroke-width: .8 } 
		.s21 { fill: #96877d;stroke: #000000;stroke-width: .9 } 
		.s22 { fill: #96877d;stroke: #000000;stroke-width: .6 } 
		.s23 { fill: #ffffff;stroke: #000000;stroke-width: .6 } 
		.s24 { fill: #ffffff } 
		.s25 { fill: none;stroke: #000000;stroke-width: .6 } 
		.s26 { fill: none;stroke: #000000;stroke-linecap: round;stroke-width: .6 } 
		.s27 { fill: none;stroke: #00247d;stroke-width: 2.3 } 
	</style>
	<g id="Layer">
		<path id="Layer" class="s0" d="m0 0h450v300h-450z"/>
		<g id="Layer">
			<path id="Layer" class="s1" d="m0 0l450 300m0-300l-450 300"/>
			<path id="Layer" class="s2" d="m225 0v300m-225-150h450"/>
			<path id="Layer" class="s3" d="m225 0v300m-225-150h450"/>
		</g>
		<path id="Layer" class="s0" d="m0 300h900v300h-900zm450-300h450v600h-450z"/>
	</g>
	<g id="Layer">
		<path id="Layer" class="s4" d="m810 300c0 7.2-0.6 14.7-1.7 21.6h-266.6q-1.7-10.5-1.7-21.6c0-74.6 60.4-135 135-135 74.6 0 135 60.4 135 135z"/>
		<path id="Layer" class="s5" d="m808.3 321.6c-10.2 64.5-66 113.4-133.3 113.4-67.2 0-122.9-49.1-133.3-113.4z"/>
		<g id="Layer">
			<path id="Layer" fill-rule="evenodd" class="s6" d="m773.3 212c-0.2 7.8-8.4 5-9.2 10.2-0.9 5.2 22.6 1.1 22.5 4.8-0.1 3.5 7.2 5.6 7.4 12.1 0.3 6.7-113.8 70-113.8 70 0 0-140.6-31.5-132.7-39.4 8-8.1 4.7-15.9 4.2-20-0.8-8.1 17.9-4.4 18.3-9.1 0.4-5-7.5-2.1-7.7-10.3-0.1-8.6 18.5-5 18.8-8.9 0.5-6.1-5.8-2-5.5-10.7 0.4-8.9 197.9-6.9 197.7 1.3z"/>
			<path id="Layer" fill-rule="evenodd" class="s7" d="m632.5 367.4h103.1c0 0 13.1 2.3 15.7 5.4 2.6 3.1 1.4 4.3-5.2 6.9-6.7 2.5-14.2 3.9-21.4 3.2-7.3-0.7-2.1-3.5-7.7-6.1-5.6-2.5-6.3-3.1-14.7-4-8.4-0.9-14.9-0.8-19 0.4-4 1.3 4.2 3.3 2.7 4.7-1.5 1.3-2.6 1.6-8.7 0.6-6.1-1.1-3.5-2-15.7-4.7-12.3-2.7-33.3-6-33.3-6 0 0 4.2-0.4 4.2-0.4z"/>
			<g id="Layer">
				<path id="Layer" fill-rule="evenodd" class="s8" d="m651.3 269.6c-4.5-1.3 23.5-7.1 34.3-6.9 10.8 0.2 33.3 6.6 27 7.7-6.4 1.1-56.9 0.5-61.3-0.8z"/>
				<path id="Layer" fill-rule="evenodd" class="s8" d="m715 244.6c-4.4-2 14.6-7.1 25.4-6.9 10.8 0.2 24.1 6 17.8 7.7-6.4 1.7-38.8 1.1-43.2-0.8z"/>
				<path id="Layer" fill-rule="evenodd" class="s8" d="m586.1 250.8c-4.4-1.3 13.9-4.2 24.7-4 10.7 0.2 30.5 3.3 24.1 4.4-6.3 1.1-44.3 0.9-48.8-0.4z"/>
			</g>
			<g id="Layer">
				<path id="Layer" fill-rule="evenodd" class="s9" d="m771.2 321.1l-115.6 1.1c11.5-17.1 62.4-69.8 79.5-71.9 16.8-2.1 36.4 23.2 36.4 23.2 0 0-0.3 47.6-0.3 47.6z"/>
				<path id="Layer" fill-rule="evenodd" class="s10" d="m578.7 264c26.2 1.7 100 49 131.5 58.1l-168.4 0.1c-1.2-7.2-1.8-14.6-1.8-22.2 0-10 1.1-19.8 3.2-29.2 2.3-1.7 10.5-6.6 27.2-6.9 2.6-0.1 5.4-0.1 8.3 0.1z"/>
				<path id="Layer" fill-rule="evenodd" class="s10" d="m796.3 240.8q0.1 0 0.1 0c8.7 17.9 13.6 38 13.6 59.2q0 10.8-1.7 21.2c-25.3 0-68.7 0.8-108.2 0.8 9-14.3 50.7-87.2 68.4-88.9q2.5-0.2 4.8-0.2c14.8 0.2 23 7.9 23 7.9z"/>
			</g>
			<path id="Layer" fill-rule="evenodd" class="s11" d="m577.6 278.8c20.9 1.8 116.9 34.5 112.2 41.2-5.1 7.1-95.1-49.1-149.7-23q0.1-6.4 0.8-12.6c0.7-0.3 12.3-5.7 29-5.9q3.7-0.1 7.7 0.3z"/>
			<path id="Layer" fill-rule="evenodd" class="s11" d="m779.7 251.5c16 0.5 22.6 5.3 22.6 5.3q0.4 0.3 0.8 0.5c4.5 13.4 6.9 27.8 6.9 42.7q0 11-1.7 21.6h-124.1c25.8-16.5 78.4-68.9 94.8-70.1q0.4 0 0.7 0z"/>
			<path id="Layer" fill-rule="evenodd" class="s10" d="m804.8 263.1q0 0 0.1 0c3.3 11.8 5.1 24.1 5.1 36.9q0 10.9-1.7 21.4l-134.2-0.3c25.7-11.3 97.5-62.5 107.9-63.7q0.9-0.1 1.9-0.1c9.9-0.2 20.9 5.8 20.9 5.8z"/>
			<path id="Layer" fill-rule="evenodd" class="s11" d="m809.4 293.6q0.2 0.1 0.5 0.2 0.1 3.1 0.1 6.2 0 10.4-1.5 20.4l-115.2 0.9c0 0 88.9-36 99.7-37q0.5-0.1 1-0.1c10.3-0.3 15.4 9.4 15.4 9.4z"/>
			<g id="Layer">
				<g id="Layer">
					<path id="Layer" fill-rule="evenodd" class="s12" d="m761.5 357.6c-8.1-4.3-8.4-18.4-8.4-18.4 0 0 8.6 14.7 12.5 15.3-5.5-7.8-3.2-12.5-3.2-12.5 0 0 2 6.9 6.3 12.8 0.3-4.9-2.3-15.6-2.3-15.6 0 0 5.2 8.9 6.4 15.3-0.2-8.1 0.6-14.4 0.6-14.4 0 0 2 9.1 2.6 14.5 1.8-6.5 5.4-12 5.4-12 0 0 1.4 5.1-2.6 11.7 5.5-3.1 10.2-9.6 10.2-9.6 0 0-1.5 9-9.3 12.9 0 0-11-0.8-18.2 0z"/>
					<path id="Layer" fill-rule="evenodd" class="s13" d="m759.9 360.1c-8.1-4.3-8.5-15.7-8.5-15.7 0 0 8.7 12 12.7 12.7-5.6-7.9-5.9-13.1-5.9-13.1 0 0 4.7 5.9 8.9 11.9-2-6.5-1.3-15.1-1.3-15.1 0 0 1.8 9.1 5.1 15.1-1.4-10.8-0.9-20.6-0.9-20.6 0 0 1.8 14 3.8 19.2 1.8-6.5 1.5-18.3 1.5-18.3 0 0 4.6 11 2.3 17.8 4-4 6.4-10.7 6.4-10.7 0 0 1.6 8.3-4 12.3 2.2 0.3 9.5-4.4 9.5-4.4 0 0-3 6.2-11.7 8.7-2.2-1-10.3-0.8-17.9 0.2z"/>
				</g>
				<g id="Layer">
					<path id="Layer" fill-rule="evenodd" class="s12" d="m584.7 371.3c-8.2-4.3-7.9-16.4-7.9-16.4 0 0 6.7 13.8 11.8 16-3.5-6.8-4.7-15.1-4.7-15.1 0 0 2.8 7.3 7.1 13.3-2-6.5-0.4-17.3-0.4-17.3 0 0 1.4 11.7 4.7 17.7-0.1-10.1-0.6-23.2-0.6-23.2 0 0 4 17.6 3.6 23.2 2.5-2.8 4.3-5.7 8.9-15.9 0 0 0.7 10.1-6.4 18.6-2.2-1-8.5-1.9-16.1-0.9z"/>
					<path id="Layer" fill-rule="evenodd" class="s13" d="m581.5 373.2c-8.2-4.4-8.4-18.6-8.4-18.6 0 0 8.6 14.8 12.6 15.5-5.6-8-3.3-12.6-3.3-12.6 0 0 2 6.9 6.3 12.9 0.3-5-2.2-15.8-2.2-15.8 0 0 5.2 9 6.4 15.4-0.3-8.2 0.6-14.4 0.6-14.4 0 0 2 9.1 2.5 14.6 1.9-6.6 5.5-12.2 5.5-12.2 0 0 1.4 5.2-2.6 11.8 5.6-3 10.2-9.6 10.2-9.6 0 0-1.4 9-9.3 13 0 0-11.1-0.8-18.3 0z"/>
				</g>
			</g>
		</g>
		<g id="Layer">
			<path id="Layer" class="s14" d="m808.3 321.2c-25.3 0-68.7 0.8-108.2 0.8 9-14.3 50.7-87.2 68.4-88.9q2.5-0.2 4.8-0.2c13.5 0.1 21.5 6.6 22.8 7.7l0.2-0.2"/>
			<path id="Layer" class="s14" d="m808.3 321.4l-134.2-0.3c25.7-11.3 97.5-62.5 107.9-63.7q0.9-0.1 1.9-0.1c9.9-0.2 20.9 5.8 20.9 5.8q0 0 0.1 0"/>
			<path id="Layer" class="s14" d="m543 270.8h0.2c2.3-1.7 10.5-6.6 27.2-6.9 2.6-0.1 5.4-0.1 8.3 0.1 26.2 1.7 100 49 131.5 58.1l-168.4 0.1"/>
		</g>
		<g id="Layer">
			<path id="Layer" class="s15" d="m670.3 214.7h9.2v116.6h-9.2z"/>
			<g id="b">
				<path id="Layer" fill-rule="evenodd" class="s16" d="m674.5 220.7c-10.3-2.7-16.5 39-24.8 37.3-8.7-1.7 4.4-40.5 9.6-44.3 5.3-3.9 14.9-5.9 15.2 7z"/>
				<path id="Layer" class="s17" d="m674.4 220.4c-13.5-15.7-18.7 17.2-24.7 37.7"/>
				<path id="Layer" class="s18" d="m646.7 251.1h5l2 4.9"/>
				<path id="Layer" class="s18" d="m647.3 244.5l6.1-0.2 3.1 6.8"/>
				<path id="Layer" class="s18" d="m648.7 238.8l6.4-0.5 4.1 6.2"/>
				<path id="Layer" class="s18" d="m650.7 232.1l6.5-0.6 5.1 4.7"/>
				<path id="Layer" class="s18" d="m652.7 225.9l6.4 0.2 6.3 3.5"/>
				<path id="Layer" class="s18" d="m655.8 219.2l7.4-0.3 4.7 6"/>
			</g>
			<g id="c">
				<path id="Layer" fill-rule="evenodd" class="s16" d="m689.4 206c-14-2.8-19.1 51.7-27.5 50.8-8.9-1 2.4-43.4 7.9-49.1 5.3-5.6 12-10.7 19.6-1.7z"/>
				<path id="Layer" class="s17" d="m688.6 205.7c-20.3-5.1-22.5 30.2-26.7 51.1"/>
				<path id="Layer" class="s18" d="m658.6 249.4l4.8-0.5 2.3 4.3"/>
				<path id="Layer" class="s18" d="m658.8 243.3l5.7-1.1 3.9 5.4"/>
				<path id="Layer" class="s18" d="m659.6 237l6.3-1 4.7 5.8"/>
				<path id="Layer" class="s18" d="m661.4 229.8l6.1-1.3 5.4 4.7"/>
				<path id="Layer" class="s18" d="m663.1 223.3h5.4l6.5 3.5"/>
				<path id="Layer" class="s18" d="m664.9 217.6l6.6-1.1 5.3 5"/>
				<path id="Layer" class="s18" d="m667.8 210.6l6.6 0.1 4.8 4.2"/>
				<path id="Layer" class="s18" d="m673.9 203.7l6.3 2.6 2.3 3.4"/>
			</g>
			<g id="b">
				<path id="Layer" fill-rule="evenodd" class="s16" d="m688.3 213.6c4.5 4.5 11 45 2.2 45.3-8.5 0.2-7.8-41.9-18.4-41 2.5-12.6 11.5-9 16.2-4.3z"/>
				<path id="Layer" class="s17" d="m672.3 217.7c15.9-13.3 15.6 20 18.1 41.2"/>
				<path id="Layer" class="s18" d="m686.8 256.2l2.9-4.5 4.8 0.8"/>
				<path id="Layer" class="s18" d="m684.8 250.9l4.3-6.2 6 1.2"/>
				<path id="Layer" class="s18" d="m683.3 243.9l5.1-5.4 6.2 1.5"/>
				<path id="Layer" class="s18" d="m681.6 235.2l5.8-3.8 6.4 1.7"/>
				<path id="Layer" class="s18" d="m679.7 228.2l6.7-2.4 6.3 0.8"/>
				<path id="Layer" class="s18" d="m678 223.2l5.5-5.2 7.3 1.5"/>
			</g>
			<g id="b">
				<path id="Layer" fill-rule="evenodd" class="s16" d="m686.1 208.2c6.9 1.5 36.9 33.3 28.8 38.5-7.7 4.9-32-32.4-41.3-25.7-5.2-12.5 5.4-14.3 12.5-12.8z"/>
				<path id="Layer" class="s17" d="m673.6 220.7c7-20.4 26.4 8.8 41.3 26"/>
				<path id="Layer" class="s18" d="m709.9 246.3v-5.5l5.1-2"/>
				<path id="Layer" class="s18" d="m704.9 242.8l0.3-7.7 6.3-2.3"/>
				<path id="Layer" class="s18" d="m699.4 237.6l1.6-7.6 6.6-2.1"/>
				<path id="Layer" class="s18" d="m692.7 230.9l3.2-6.5 6.8-2.1"/>
				<path id="Layer" class="s18" d="m686.7 225.9l4.9-5.9 6.4-2.8"/>
				<path id="Layer" class="s18" d="m682.2 222.4l2.1-7.7 7.7-2.7"/>
			</g>
			<g id="b">
				<path id="Layer" fill-rule="evenodd" class="s16" d="m671.3 224.4c-9-5.6-27.4 32.3-34.8 28.2-7.8-4.2 16.3-37.4 22.3-39.4 6.3-2.1 16-1.2 12.5 11.2z"/>
				<path id="Layer" class="s17" d="m671.3 224.1c-8.2-19-23 10.8-34.8 28.6"/>
				<path id="Layer" class="s18" d="m635.7 245.1l4.7 1.5 0.6 5.3"/>
				<path id="Layer" class="s18" d="m638.2 239l5.9 1.7 1 7.4"/>
				<path id="Layer" class="s18" d="m641.3 234l6.2 1.4 2.1 7.1"/>
				<path id="Layer" class="s18" d="m645.2 228.2l6.4 1.4 3.5 6"/>
				<path id="Layer" class="s18" d="m649 222.9l6 2.1 5 5.2"/>
				<path id="Layer" class="s18" d="m653.9 217.4l7.2 1.9 2.6 7.1"/>
			</g>
			<g id="c">
				<path id="Layer" fill-rule="evenodd" class="s16" d="m673.3 220.8c-10.1-10-44.4 32.7-50.9 27.3-6.8-5.7 25.9-34.9 33.6-36.7 7.5-1.7 15.9-2.3 17.3 9.4z"/>
				<path id="Layer" class="s17" d="m672.9 220.1c-14.2-15.4-35.4 12.9-50.5 28"/>
				<path id="Layer" class="s18" d="m623.7 240.1l4.3 2.2-0.5 4.9"/>
				<path id="Layer" class="s18" d="m627.3 235.1l5.3 2.2 0.3 6.6"/>
				<path id="Layer" class="s18" d="m631.4 230.4l5.8 2.6 0.7 7.4"/>
				<path id="Layer" class="s18" d="m636.8 225.3l5.8 2.3 1.9 6.9"/>
				<path id="Layer" class="s18" d="m641.8 220.8l4.6 2.9 3.4 6.6"/>
				<path id="Layer" class="s18" d="m646.4 217.1l6.2 2.6 1.7 7.1"/>
				<path id="Layer" class="s18" d="m652.7 212.8l5.5 3.7 1.7 6.2"/>
				<path id="Layer" class="s18" d="m661.7 210.3l3.8 5.7 0.1 4.1"/>
			</g>
			<g id="c">
				<path id="Layer" fill-rule="evenodd" class="s16" d="m686 206.4c7.9-0.7 47.9 17.2 43.2 24.7-4.6 7.1-50.2-23.1-56.8-10.5-2.2-11.6 6-13.6 13.6-14.2z"/>
				<path id="Layer" class="s17" d="m672.6 219.8c8.8-19 37.6 1.5 56.6 11.3"/>
				<path id="Layer" class="s18" d="m724 231.8l-1.9-4.5 3.4-3.4"/>
				<path id="Layer" class="s18" d="m717.9 230.3l-1.7-6.3 4.4-3.8"/>
				<path id="Layer" class="s18" d="m712.1 228.5l-1.6-7.3 4.7-4.3"/>
				<path id="Layer" class="s18" d="m704 224.9l-0.3-7.2 4.8-4"/>
				<path id="Layer" class="s18" d="m697.7 222.5l1.3-7.3 3.4-4.2"/>
				<path id="Layer" class="s18" d="m692.3 220.6l-0.5-7.3 5-4.4"/>
				<path id="Layer" class="s18" d="m685.8 218.3l-0.3-6.4 4-5.2"/>
				<path id="Layer" class="s18" d="m679.6 217.6l-1.2-4 1.9-6.5"/>
			</g>
			<path id="Layer" fill-rule="evenodd" class="s19" d="m679.4 326.7c0 0 11.5 7.4 11.5 9.2 0 1-9.7-3.7-10.5-3.6-0.8 0.1 1.3 5.9 0.7 6.9-0.6 1.1-9.5 2.9-9.5 2.9 0 0 5.8-3.9 6-5.1 0.1-1.2-1.8-3.5-1.8-3.5 0 0-5 1.4-5.7 2.8-0.7 1.4 0.6 3.8 0.6 3.8 0 0-5.5-1-5.8-2.4-0.2-1.4 3.3-4.8 3.3-4.8 0 0-3.6-0.4-4.8 0.1-1.2 0.5-4.1 3.8-4.1 3.8 0 0 1-5.3 2-5.5 1.1-0.3 4.6-0.4 5.5-0.7 0.9-0.4 3-3.8 3-3.8l2.9 2.5 3.6-1.4 2.6 1z"/>
			<g id="Layer">
				<path id="Layer" fill-rule="evenodd" class="s16" d="m675 214.2c-10.8-14.5-50 20.1-55.8 13.9-6.1-6.4 29.8-31.6 37.6-32.5 7.6-0.8 18.2 6.8 18.2 18.6z"/>
				<g id="Layer">
					<path id="Layer" class="s17" d="m675.8 214.2c-14.5-27.6-39.9 0.6-56.6 14"/>
					<path id="Layer" class="s18" d="m621.4 220.4l4 2.7-1 4.7"/>
					<path id="Layer" class="s18" d="m625.5 215.8l5.1 2.8-0.5 6.6"/>
					<g id="Layer">
						<path id="Layer" class="s18" d="m630.2 211.5l5.5 3.3-0.2 7.5"/>
						<path id="Layer" class="s18" d="m636.2 207.1l5.4 3 1.1 7.1"/>
						<path id="Layer" class="s18" d="m641.6 203.3l4.2 3.4 2.7 6.9"/>
						<path id="Layer" class="s18" d="m646.7 200.1l5.7 3.4 0.9 7.2"/>
						<g id="Layer">
							<path id="Layer" class="s18" d="m653.4 196.6l5 4.3 0.9 6.3"/>
							<path id="Layer" class="s18" d="m662.6 195.2l3.1 6-0.4 4.1"/>
						</g>
					</g>
				</g>
			</g>
			<g id="d">
				<path id="Layer" fill-rule="evenodd" class="s16" d="m650.5 200.1c-6.6 1.4-14.6 12.7-17.9 9.7-3.3-3.2 8-19.2 19.5-18.6 11.2 0.6 22.7 14 20.8 16.8-1.9 2.7-15.9-9.3-22.4-7.9z"/>
				<path id="Layer" class="s17" d="m672.5 207.6c-12.5-11.8-24.1-20.1-39.6 2.4"/>
				<path id="Layer" class="s18" d="m668.8 200.2l2.8 6.4-8-2.1"/>
				<path id="Layer" class="s18" d="m663.5 195.5l4.8 8.2-12-2.7"/>
				<path id="Layer" class="s18" d="m657.9 192.4l6 7.9-10.2-0.2"/>
				<path id="Layer" class="s18" d="m651.7 191l6.3 5.9-8.8 3.5"/>
				<path id="Layer" class="s18" d="m640.9 195.1l9.4 0.9-5.3 6.7"/>
				<path id="Layer" class="s18" d="m634.3 202l10.3-4-8.5 11.6"/>
				<path id="Layer" class="s18" d="m632.2 206.2l4.2-0.9"/>
			</g>
			<g id="d">
				<path id="Layer" fill-rule="evenodd" class="s16" d="m673.1 219.8c-3.3-0.6-4.5-18.2 3.1-26.5 7.8-8.5 27-5.1 26.9-0.5-0.2 4.5-13.9 2-19.6 5.6-5.6 3.6-7.2 22.1-10.4 21.4z"/>
				<path id="Layer" class="s17" d="m673.1 219.3c0.6-17.2 3.1-31.3 30-26.1"/>
				<path id="Layer" class="s18" d="m677.3 210.8l-4.2 7.1-2.5-6.5"/>
				<path id="Layer" class="s18" d="m680 203.1l-6.7 10.5-2.3-9.3"/>
				<path id="Layer" class="s18" d="m681.3 200.7l-7.1 7.3-1.4-9.8"/>
				<path id="Layer" class="s18" d="m684.7 197.8l-8.8 3.7 0.4-8.7"/>
				<path id="Layer" class="s18" d="m689.3 196.4l-8.5-0.9 6.1-7.3"/>
				<path id="Layer" class="s18" d="m700.4 195.1l-14.2-2.2 10.2-4.4"/>
				<path id="Layer" class="s18" d="m700.8 190l-3.6 2.3"/>
			</g>
			<g id="e">
				<path id="Layer" fill-rule="evenodd" class="s16" d="m691.1 198c13.7-0.1 37 15.6 32.1 19-5.2 3.6-19.2-9.4-31.1-9.9-12-0.5-16.6 15.4-19.6 12.4-3.1-3.2 4.8-21.4 18.6-21.5z"/>
				<path id="Layer" class="s17" d="m673 219.5c6.6-15 12.7-27.5 50.3-2.9"/>
				<path id="Layer" class="s18" d="m678.2 215.5l-3.2-0.2-2.2-3.1"/>
				<path id="Layer" class="s18" d="m680.1 212.9l-3.3-1.1-2-3.5"/>
				<path id="Layer" class="s18" d="m683.4 210l-4.6-1.2-1.5-3.9"/>
				<path id="Layer" class="s18" d="m686 208.4l-5.2-2.1-0.1-4.6"/>
				<path id="Layer" class="s18" d="m689 207.2l-5.3-2.8 0.8-5.1"/>
				<path id="Layer" class="s18" d="m692.7 206.9l-5.2-3.9 2.1-5"/>
				<path id="Layer" class="s18" d="m698.9 208.4l-6.7-5.5 4.9-4.4"/>
				<path id="Layer" class="s18" d="m703.7 210.3l-6.3-6.6 6-3.2"/>
				<path id="Layer" class="s18" d="m708.8 213l-6.7-8 7-2"/>
				<path id="Layer" class="s18" d="m714.1 215.3l-7.5-8.4 7-1.2"/>
				<path id="Layer" class="s18" d="m719 217.3l-8-8.3 8.1 0.6"/>
				<path id="Layer" class="s18" d="m723.1 213.6l-6.5-1.1"/>
			</g>
			<g id="e">
				<path id="Layer" fill-rule="evenodd" class="s16" d="m673.8 219.9c-1.6 4.2-13-9.6-24.6-4.1-11.7 5.6-20.1 24.4-26.8 23-6.4-1.3 10.2-26.8 23.8-32.5 13.8-5.7 29.4 9.1 27.6 13.6z"/>
				<path id="Layer" class="s17" d="m673.4 220.1c-13-12.1-24.2-22-51.3 18.3"/>
				<path id="Layer" class="s18" d="m670.5 212.8l-0.9 3.9-3.1 1.6"/>
				<path id="Layer" class="s18" d="m666.8 209.7l-0.5 4.4-2.8 2.4"/>
				<path id="Layer" class="s18" d="m662.9 207.4l0.2 4.5-4.1 3.1"/>
				<path id="Layer" class="s18" d="m658.2 205.7l1.9 4.5-4.4 4.3"/>
				<path id="Layer" class="s18" d="m653.4 204.9l3 4.7-4.1 5"/>
				<path id="Layer" class="s18" d="m647.8 205.7l4.2 4.1-3.5 6.1"/>
				<path id="Layer" class="s18" d="m640.6 209.4l6.7 2.3-4.3 8.3"/>
				<path id="Layer" class="s18" d="m635.1 214l7.3 0.7-3.4 9.2"/>
				<path id="Layer" class="s18" d="m630.4 218.9l7.9-1-3.3 10.8"/>
				<path id="Layer" class="s18" d="m627.2 223.5l7.5-1.7-4 11.5"/>
				<path id="Layer" class="s18" d="m623.3 229.7l7.8-4-4.4 11.6"/>
				<path id="Layer" class="s18" d="m621.1 235.4l5.9-3.8"/>
			</g>
			<path id="Layer" class="s15" d="m678.1 224.4c0 3-2.5 5.4-5.4 5.4-3 0-5.4-2.4-5.4-5.4 0-2.9 2.4-5.3 5.4-5.3 2.9 0 5.4 2.4 5.4 5.3z"/>
		</g>
		<g id="Layer">
			<g id="Layer">
				<path id="Layer" fill-rule="evenodd" class="s20" d="m667 322.8c0.7 6.6 13.7 29.6 10.3 45.1h-18.3c-1.2-0.8 1.7-3.2 1.7-3.2-1.1-16.4-9.8-33-9.8-33z"/>
				<path id="Layer" fill-rule="evenodd" class="s21" d="m699.4 367.8l0.8-2.7c7.1-9.6 2.8-45.6 2.8-45.6l14.4 8.5c0 0 1.2 25.8-3.6 37l-1.3 2.6c0 0-13.1 0.2-13.1 0.2z"/>
				<path id="Layer" fill-rule="evenodd" class="s22" d="m642.2 297.7l17.6-22.8c0 0 29.9 1.1 56.5 10.8 27 9.7 16.8 52.3 17.9 54.3 1 1.9 5.2 3.2 5.5 5.7 0.4 2.9-3.7 22.2-3.7 22.2h-13.3l0.9-1.7c1.7-7.8 1.3-14.4-0.9-18-2.2-3.7-22.4-16.6-23.5-21.8-2.1 2.9-21.7 5.3-27.4 4-2 3.5-14.5 4.1-18.7 9.7-4.4 5.8-6.6 27.8-6.6 27.8h-17.6l3-6.8c2.4-18.8 15.6-46 10.3-63.4z"/>
			</g>
			<g id="Layer">
				<path id="Layer" fill-rule="evenodd" class="s23" d="m621.9 285.3c-15-0.5-34.4-17.6-34.4-17.6 0 0 24.1 11.8 33.5 11.5"/>
				<path id="Layer" class="s24" d="m624.4 282.8c-0.2 1-1 1.8-1.9 2.1-1 0.2-2 0-2.7-0.7-0.8-0.7-1-1.7-0.8-2.7 0.2-0.9 1-1.7 1.9-2 1-0.3 2 0 2.7 0.7 0.7 0.7 1 1.7 0.8 2.6z"/>
			</g>
			<g id="Layer">
				<g id="Layer">
					<path id="Layer" fill-rule="evenodd" class="s22" d="m647.1 321.4c-2.3-13.1-16.1-19.6-22-22-6.1-2.5-24.9-12-24.7-13.7 0.2-1.8 19.7 9.1 22.1 4.5 2.4-4.8-4.7-6.3-4.7-6.3l-3.2-7.2 4-8.6c0 0 9.6-6.4 22.1-4.5 12.5 1.9 18.1 11.8 27.8 12"/>
					<path id="Layer" fill-rule="evenodd" class="s22" d="m667 289.7c-3.5-3.4-15.5-10.3-16.1-13.9-0.6-3.7-7.4-9.2-2.2-9.8 13.1 6.4 20.9 4.5 28.3 16.5 7.3 11.9 3.3 23.1 0.9 25.6-2.5 2.5-19.9 9.4-24.1 8.8-4.4-0.7-12.4-16.7-8.4-33.7"/>
					<path id="Layer" fill-rule="evenodd" class="s22" d="m618 284c-11.3-4.9-19.9-19.7-31.7-21.9-12.1-2.3-15.9 3.2-15.9 3.2 0 0-3.3 0-4.5-1.3-1.2-1.3-0.2-3.8-0.2-3.8 0 0 4.9-10 19.5-8.2 14.6 1.9 21.8 13.5 38.8 15.7"/>
				</g>
				<g id="Layer">
					<path id="Layer" class="s25" d="m565.8 260.2c3.1-0.8 5.7 2.5 4.6 5.2"/>
					<g id="Layer">
						<path id="Layer" class="s26" d="m608.8 262.7c0.9 1.9 0.9 5.4 0 6.8"/>
						<path id="Layer" class="s26" d="m605.3 261c0.9 1.7 1.2 4.4 0.1 6.1"/>
						<path id="Layer" class="s26" d="m601.9 258.8c0.9 1.5 1.5 4.2 0.6 5.7"/>
						<path id="Layer" class="s26" d="m612.3 264.2c2.4 2.8 1.7 6.6 1 8.9"/>
						<path id="Layer" class="s26" d="m625.6 269.2c2.2-0.3 6.4 2.3 5.5 3.8"/>
						<path id="Layer" class="s26" d="m624.6 270.6c0.4 2.1 3.8 4.3 5 3.7"/>
					</g>
				</g>
			</g>
			<path id="Layer" class="s7" d="m629.1 271.8c0 0.7-0.7 1.4-1.4 1.4-0.8 0-1.4-0.7-1.4-1.4 0-0.8 0.6-1.4 1.4-1.4 0.7 0 1.4 0.6 1.4 1.4z"/>
			<g id="Layer">
				<path id="Layer" fill-rule="evenodd" class="s23" d="m624 287.9c-15.1 0.6-35.7-14.9-35.7-14.9 0 0 25 9.9 34.3 8.8"/>
				<path id="Layer" class="s24" d="m626.3 285.3c-0.2 0.9-0.9 1.8-1.8 2.1-0.9 0.4-2 0.2-2.7-0.4-0.8-0.7-1.2-1.7-1-2.6 0.1-1 0.8-1.9 1.7-2.2 1-0.4 2-0.2 2.8 0.4 0.8 0.7 1.1 1.7 1 2.7z"/>
			</g>
			<g id="Layer">
				<g id="Layer">
					<path id="Layer" fill-rule="evenodd" class="s22" d="m609.4 278.2c6 6.3 17.4 8.6 20.6 4.7"/>
					<g id="Layer">
						<path id="Layer" class="s25" d="m699.1 326.3c-5.7-7.3-9.6-12.9-5.9-20.3"/>
						<g id="Layer">
							<path id="Layer" class="s26" d="m646.1 357.4c-1.8 3-1.3 8-2.5 10.1"/>
							<path id="Layer" class="s26" d="m712.9 358.8c1.1 3.5-1 6.7-2.5 8.5"/>
							<path id="Layer" class="s26" d="m712 295c2.2 2.9 1.4 6.6 0.6 8.9"/>
							<path id="Layer" class="s26" d="m733.2 342.3c5.2 3 4.4 8.5 3.9 10.9"/>
							<path id="Layer" class="s26" d="m707.3 292.9c3 2.1 3.3 5.9 3.2 8.3"/>
							<path id="Layer" class="s26" d="m674.7 355.7c2.9 2.3 1.7 9.1 0.4 11.7"/>
							<path id="Layer" class="s26" d="m635.8 348.3c1-3.6 1.6-8.5 3-10.4"/>
							<path id="Layer" class="s26" d="m736.7 356.7c0.2 3.1-1.6 8.4-2.1 10.9"/>
						</g>
					</g>
				</g>
				<path id="Layer" fill-rule="evenodd" class="s22" d="m725.9 299.5c28 25.2 3.5 41.9 7.2 41.9 3.7 0 22.4-29-8.9-50.2"/>
			</g>
		</g>
		<circle id="Layer" class="s27" cx="675" cy="300" r="135"/>
	</g>
	<g id="Layer">
		<path id="Layer" class="s8" d="m670.5 408.5v-4.8h12.5v11.4q-1.8 1.8-5.3 3.1-3.4 1.4-6.9 1.4-4.5 0-7.9-1.9-3.3-1.9-5-5.4-1.7-3.5-1.7-7.6 0-4.5 1.9-8 1.9-3.5 5.5-5.3 2.7-1.5 6.8-1.5 5.4 0 8.4 2.3 3 2.2 3.8 6.2l-5.7 1q-0.6-2.1-2.3-3.3-1.7-1.2-4.2-1.2-3.7 0-6 2.4-2.2 2.4-2.2 7.1 0 5.1 2.3 7.7 2.2 2.5 5.9 2.5 1.8 0 3.6-0.7 1.9-0.7 3.2-1.7v-3.7z"/>
		<path id="Layer" class="s8" d="m688.3 419.1v-5.5h5.5v5.5z"/>
	</g>
</svg>