<svg version="1.2" baseProfile="tiny-ps" xmlns="http://www.w3.org/2000/svg" viewBox="0 0 900 600" width="900" height="600"><title></title><style>tspan { white-space:pre }.shp0 { fill: #000000 } .shp1 { fill: #dd0000 } .shp2 { fill: #ffce00 } .shp3 { fill: #ffc709;stroke: #000000;stroke-width: 1.279 } .shp4 { fill: #000000;stroke: #000000;stroke-linejoin:round;stroke-width: 2.557 } .shp5 { fill: #ffc709;stroke: #000000;stroke-linejoin:round;stroke-width: 2.813 } .shp6 { fill: #ffc709;stroke: #000000;stroke-width: 2.813 } .shp7 { fill: #ffc709 } .shp8 { fill: #ffc709;stroke: #000000;stroke-linejoin:round;stroke-width: 3.625 } .shp9 { fill: #ffc709;stroke: #000000;stroke-linejoin:round;stroke-width: 1.213 } .shp10 { fill: #ffc709;stroke: #000000;stroke-linejoin:round;stroke-width: 1.279 } .shp11 { fill: #ffc709;stroke: #000000;stroke-linejoin:round;stroke-width: 1.198 } .shp12 { fill: #ffc709;stroke: #000000;stroke-width: 1.378 } .shp13 { fill: #ffc709;stroke: #000000;stroke-width: 1.364 } .shp14 { fill: #ffc709;stroke: #000000;stroke-linecap:round;stroke-linejoin:round;stroke-width: 1.051 } .shp15 { fill: #ffc709;stroke: #000000;stroke-linecap:round;stroke-linejoin:round;stroke-width: 1.023 } .shp16 { fill: #ffc709;stroke: #000000;stroke-linejoin:round;stroke-width: 1.232 } .shp17 { fill: #ffc709;stroke: #000000;stroke-linejoin:round;stroke-width: 1.17 } .shp18 { fill: #ffc709;stroke: #000000;stroke-linejoin:round;stroke-width: 1.177 } .shp19 { fill: #ffc709;stroke: #000000;stroke-linejoin:round;stroke-width: 1.124 } .shp20 { fill: #ffc709;stroke: #000000;stroke-linejoin:round;stroke-width: 1.155 } .shp21 { fill: #ffc709;stroke: #000000;stroke-linejoin:round;stroke-width: 1.09 } .shp22 { fill: #ffc709;stroke: #000000;stroke-linejoin:round;stroke-width: 1.125 } .shp23 { fill: #ffc709;stroke: #000000;stroke-linejoin:round;stroke-width: 1.133 } .shp24 { fill: #ffc709;stroke: #000000;stroke-linejoin:round;stroke-width: 1.066 } .shp25 { fill: #ffc709;stroke: #000000;stroke-linejoin:round;stroke-width: 1.103 } .shp26 { fill: #ffc709;stroke: #000000;stroke-linejoin:round;stroke-width: 1.107 } .shp27 { fill: #ffc709;stroke: #000000;stroke-linejoin:round;stroke-width: 1.119 } .shp28 { fill: #ffc709;stroke: #000000;stroke-linejoin:round;stroke-width: 1.373 } .shp29 { fill: #ffc709;stroke: #000000;stroke-linejoin:round;stroke-width: 1.327 } .shp30 { fill: #ffc709;stroke: #000000;stroke-linejoin:round;stroke-width: 1.413 } .shp31 { fill: #ffc709;stroke: #000000;stroke-linejoin:round;stroke-width: 1.374 } .shp32 { fill: #ffc709;stroke: #000000;stroke-linejoin:round;stroke-width: 1.319 } .shp33 { fill: #ffc709;stroke: #000000;stroke-linejoin:round;stroke-width: 1.325 } .shp34 { fill: #ffc709;stroke: #000000;stroke-linejoin:round;stroke-width: 1.323 } .shp35 { fill: #ffc709;stroke: #000000;stroke-linejoin:round;stroke-width: 1.316 } .shp36 { fill: #ffc709;stroke: #000000;stroke-linejoin:round;stroke-width: 1.321 } .shp37 { fill: #ffc709;stroke: #000000;stroke-linejoin:round;stroke-width: 1.343 } .shp38 { fill: #ffc709;stroke: #000000;stroke-linejoin:round;stroke-width: 1.371 } .shp39 { fill: #ffc709;stroke: #000000;stroke-linejoin:round;stroke-width: 1.41 } .shp40 { fill: #ffc709;stroke: #000000;stroke-linejoin:round;stroke-width: 1.501 } .shp41 { fill: #ffc709;stroke: #000000;stroke-linejoin:round;stroke-width: 1.405 } .shp42 { fill: #ffc709;stroke: #000000;stroke-linejoin:round;stroke-width: 1.412 } .shp43 { fill: #ffc709;stroke: #000000;stroke-linejoin:round;stroke-width: 1.353 } .shp44 { fill: #ffc709;stroke: #000000;stroke-linejoin:round;stroke-width: 1.43 } .shp45 { fill: #ffc709;stroke: #000000;stroke-linejoin:round;stroke-width: 1.523 } .shp46 { fill: #ffc709;stroke: #000000;stroke-linejoin:round;stroke-width: 1.287 } .shp47 { fill: #ffc709;stroke: #000000;stroke-linejoin:round;stroke-width: 1.23 } .shp48 { fill: #ffc709;stroke: #000000;stroke-linejoin:round;stroke-width: 1.167 } .shp49 { fill: #ffc709;stroke: #000000;stroke-linejoin:round;stroke-width: 1.336 } .shp50 { fill: #ffc709;stroke: #000000;stroke-linejoin:round;stroke-width: 1.35 } .shp51 { fill: #ffc709;stroke: #000000;stroke-linejoin:round;stroke-width: 1.361 } .shp52 { fill: #ffc709;stroke: #000000;stroke-linejoin:round;stroke-width: 1.391 } .shp53 { fill: #ffc709;stroke: #000000;stroke-linejoin:round;stroke-width: 1.399 } .shp54 { fill: #ffc709;stroke: #000000;stroke-linejoin:round;stroke-width: 1.368 } .shp55 { fill: #ffc709;stroke: #000000;stroke-linejoin:round;stroke-width: 1.443 } .shp56 { fill: #ffc709;stroke: #000000;stroke-linejoin:round;stroke-width: 1.354 } .shp57 { fill: #ffc709;stroke: #000000;stroke-linejoin:round;stroke-width: 1.241 } .shp58 { fill: #ffc709;stroke: #000000;stroke-linejoin:round;stroke-width: 1.13 } .shp59 { fill: #ffc709;stroke: #000000;stroke-linejoin:round;stroke-width: 1.169 } .shp60 { fill: #ffc709;stroke: #000000;stroke-linejoin:round;stroke-width: 1.334 } .shp61 { fill: #ffc709;stroke: #000000;stroke-linejoin:round;stroke-width: 1.445 } .shp62 { fill: #ffc709;stroke: #000000;stroke-linejoin:round;stroke-width: 1.11 } .shp63 { fill: #ffc709;stroke: #000000;stroke-linejoin:round;stroke-width: 1.131 } .shp64 { fill: #ffc709;stroke: #000000;stroke-linejoin:round;stroke-width: 1.36 } .shp65 { fill: #ffc709;stroke: #000000;stroke-linejoin:round;stroke-width: 1.423 } .shp66 { fill: #ffc709;stroke: #000000;stroke-linejoin:round;stroke-width: 1.158 } .shp67 { fill: #ffc709;stroke: #000000;stroke-linejoin:round;stroke-width: 1.137 } .shp68 { fill: #ffc709;stroke: #000000;stroke-linejoin:round;stroke-width: 1.347 } .shp69 { fill: #ffc709;stroke: #000000;stroke-linejoin:round;stroke-width: 1.403 } .shp70 { fill: #ffc709;stroke: #000000;stroke-linejoin:round;stroke-width: 1.365 } .shp71 { fill: #ffc709;stroke: #000000;stroke-linejoin:round;stroke-width: 1.152 } .shp72 { fill: #ffc709;stroke: #000000;stroke-linejoin:round;stroke-width: 1.222 } .shp73 { fill: #ffc709;stroke: #000000;stroke-linejoin:round;stroke-width: 1.351 } .shp74 { fill: #ffc709;stroke: #000000;stroke-linejoin:round;stroke-width: 1.349 } .shp75 { fill: #ffc709;stroke: #000000;stroke-linejoin:round;stroke-width: 1.156 } .shp76 { fill: #ffc709;stroke: #000000;stroke-linejoin:round;stroke-width: 1.146 } .shp77 { fill: #ffc709;stroke: #000000;stroke-linejoin:round;stroke-width: 1.138 } .shp78 { fill: #000000;stroke: #000000;stroke-width: 0.638 } .shp79 { fill: none;stroke: #ffc709;stroke-linecap:round;stroke-width: 1.023 } .shp80 { fill: #000000;stroke: #000000;stroke-width: 0.64 } .shp81 { fill: none;stroke: #ffc709;stroke-width: 1.023 } .shp82 { fill: none;stroke: #ffc709;stroke-width: 0.64 } </style><path class="shp0" d="M-50 0L950 0L950 600L-50 600L-50 0Z" /><path class="shp1" d="M-50 200L950 200L950 600L-50 600L-50 200Z" /><path class="shp2" d="M-50 400L950 400L950 600L-50 600L-50 400Z" /><g ><path class="shp1" d="M566.01 298.2C566.01 329.31 553.78 359.14 532.01 381.14C510.24 403.14 480.72 415.5 449.94 415.5C419.15 415.5 389.63 403.14 367.87 381.14C346.1 359.14 333.87 329.31 333.87 298.2C333.87 267.09 346.1 237.25 367.87 215.25C389.63 193.25 419.15 180.89 449.94 180.89C480.72 180.89 510.24 193.25 532.01 215.25C553.78 237.25 566.01 267.09 566.01 298.2L566.01 298.2Z" /><g ><path class="shp3" d="M455.75 441.02L419.84 458L416.05 455.15L449.76 439.26L455.75 441.02Z" /><path class="shp3" d="M459.55 443.87L423.64 460.84L419.85 458L453.56 442.1L459.55 443.87Z" /><path class="shp3" d="M463.35 446.7L427.44 463.68L423.65 460.83L457.35 444.94L463.35 446.7Z" /><path class="shp3" d="M467.14 449.55L431.23 466.52L427.43 463.67L461.14 447.78L467.14 449.55Z" /><path class="shp3" d="M470.93 452.39L435.02 469.36L431.23 466.51L464.94 450.62L470.93 452.39Z" /><path class="shp3" d="M443.84 441L479.75 457.97L483.55 455.13L449.84 439.23L443.84 441Z" /><path class="shp3" d="M440 443.86L475.91 460.83L479.7 457.98L446 442.09L440 443.86Z" /><path class="shp3" d="M436.16 446.71L472.07 463.68L475.86 460.84L442.15 444.95L436.16 446.71Z" /><path class="shp3" d="M432.36 449.54L468.26 466.51L472.06 463.66L438.35 447.77L432.36 449.54Z" /><path class="shp3" d="M428.58 452.35L464.48 469.33L468.28 466.48L434.57 450.59L428.58 452.35Z" /></g><g ><path class="shp4" d="M451.56 200.57L400.51 203.31L400.51 216.93L400.51 219.76L400.51 233.38L451.56 236.12L457.09 236.12L499.66 229.87L499.66 219.76L499.66 216.93L499.66 206.82L457.09 200.57L451.56 200.57Z" /><path class="shp5" d="M436.51 256.3C436.51 253.83 438.51 251.82 440.99 251.82L458.58 251.82C461.06 251.82 463.06 253.83 463.06 256.3L463.06 397.66C463.06 400.13 461.06 402.14 458.58 402.14L440.99 402.14C438.51 402.14 436.51 400.13 436.51 397.66L436.51 256.3Z" /><path class="shp6" d="M509.84 299.92C494.75 315.5 473.63 325.2 450.24 325.2C433.53 325.2 417.97 320.23 404.94 311.71L394.32 327.41C410.38 337.97 429.59 344.14 450.24 344.14C478.91 344.14 504.8 332.28 523.33 313.22L509.84 299.92Z" /><path class="shp6" d="M440.25 232.71L367.13 367.74L449.91 260.94L532.69 367.74L459.57 232.71L449.91 246.27L440.25 232.71Z" /><path class="shp7" d="M451.47 202L416.41 203.68L401.84 209.52L401.84 227.17L416.22 233.01L451.47 234.88L456.85 234.88L498.23 228.82L498.23 219.75L498.23 217.13L498.23 207.78L456.85 202L451.47 202Z" /><path class="shp8" d="M437.62 240.84C437.62 234.13 443.06 228.69 449.78 228.69L449.78 228.69C456.49 228.69 461.93 234.13 461.93 240.84L461.93 241.44C461.93 248.15 456.49 253.59 449.78 253.59L449.78 253.59C443.06 253.59 437.62 248.15 437.62 241.44L437.62 240.84Z" /><path class="shp9" d="M454.94 240.94C454.94 242.3 454.4 243.61 453.43 244.58C452.47 245.54 451.16 246.09 449.79 246.09C448.43 246.09 447.12 245.54 446.15 244.58C445.19 243.61 444.64 242.3 444.64 240.94C444.64 239.57 445.19 238.27 446.15 237.3C447.12 236.34 448.43 235.79 449.79 235.79C451.16 235.79 452.47 236.34 453.43 237.3C454.4 238.27 454.94 239.57 454.94 240.94L454.94 240.94Z" /></g><g ><path class="shp7" d="M355.27 422.57L309.32 371.2L291.28 306.73L297.7 247.21L327.1 190.15L372.56 155.08L399.73 144.95L407.39 156.07L420.73 160.02L413.07 166.44L412.09 182.99L365.64 213.37L337.48 260.3L334.76 313.15L348.84 359.1L402.7 410.47L355.27 422.57Z" /><g ><path class="shp10" d="M298.42 348.57C298.42 348.57 300.42 354.43 305.03 361.44C310.13 368.73 313.7 368.29 313.7 368.29C313.7 368.29 319.17 369.1 319.8 364.83C319.94 360.57 317.02 359.13 317.01 359.04C317.02 359.13 313.8 356.84 309.68 355.15C306.12 352.97 306.35 353.01 304.24 350.29C302.89 347.17 303.35 349.36 299.87 337.09C296.4 324.82 294.89 317.97 294.79 317.97L290.43 318.98L295 336.87L296.6 342.96L298.42 348.57Z" /><path class="shp10" d="M295.96 306.69L305.46 338.48C305.46 338.48 306.59 341.93 307.27 345.47C307.31 349.7 306.56 351.39 306.56 351.39C306.46 351.39 306.11 353.65 305.9 355.96C305.82 359.13 307.24 361.28 307.23 361.19C307.24 361.28 308.31 362.84 311.42 363.02C315 362.79 315.45 360.22 315.45 360.22C315.45 360.22 315.99 359.94 315.72 356.37C315.44 352.8 313.45 347.24 313.45 347.24L299.87 304.34L295.96 306.69Z" /><path class="shp10" d="M290.13 298.89L298.49 331C298.49 331 299.49 334.49 300.04 338.05C299.93 342.28 299.11 343.94 299.11 343.94C299.02 343.94 298.58 346.18 298.29 348.48C298.1 351.65 299.44 353.85 299.44 353.75C299.44 353.85 300.46 355.45 303.56 355.73C307.14 355.64 307.68 353.08 307.68 353.08C307.68 353.08 308.24 352.83 308.09 349.25C307.94 345.67 306.15 340.04 306.15 340.04L294.13 296.68L290.13 298.89Z" /><path class="shp10" d="M293.07 346.03C293.07 346.03 295 351.93 299.51 359C304.52 366.35 308.09 365.95 308.09 365.95C308.09 365.95 313.56 366.84 314.24 362.57C314.44 358.31 311.53 356.84 311.53 356.74C311.53 356.84 308.34 354.5 304.25 352.76C300.72 350.54 300.95 350.58 298.87 347.84C297.56 344.7 297.99 346.89 294.68 334.57C291.36 322.26 289.95 315.39 289.85 315.39L285.47 316.34L289.81 334.29L291.33 340.4L293.07 346.03Z" /><path class="shp11" d="M309.75 326.99C309.75 326.99 311.35 332.85 315.23 339.92C319.53 347.28 322.7 346.96 322.7 346.96C322.7 346.96 327.52 347.94 328.21 343.74C328.46 339.54 325.91 338.03 325.91 337.93C325.91 338.03 323.13 335.66 319.53 333.86C316.45 331.59 316.65 331.64 314.86 328.89C313.76 325.76 314.1 327.94 311.38 315.71C308.66 303.48 307.53 296.67 307.45 296.67L303.55 297.52L307.08 315.33L308.31 321.4L309.75 326.99Z" /><path class="shp10" d="M314.3 327.75C314.3 327.75 316.11 333.68 320.48 340.84C325.34 348.29 328.92 347.97 328.92 347.97C328.92 347.97 334.37 348.96 335.14 344.71C335.42 340.46 332.54 338.92 332.54 338.83C332.54 338.92 329.4 336.52 325.34 334.71C321.86 332.41 322.08 332.46 320.07 329.67C318.82 326.5 319.2 328.71 316.13 316.33C313.07 303.95 311.79 297.06 311.69 297.06L307.29 297.92L311.28 315.95L312.67 322.09L314.3 327.75Z" /><path class="shp10" d="M309.57 294.55L317.92 326.66C317.92 326.66 318.92 330.15 319.48 333.71C319.36 337.94 318.55 339.6 318.55 339.6C318.45 339.6 318.02 341.84 317.73 344.14C317.54 347.31 318.87 349.51 318.87 349.41C318.87 349.51 319.89 351.11 323 351.39C326.58 351.3 327.12 348.74 327.12 348.74C327.12 348.74 327.67 348.49 327.52 344.91C327.37 341.33 325.58 335.7 325.58 335.7L313.56 292.34L309.57 294.55Z" /><path class="shp10" d="M325.25 304.42L335.54 335.96C335.54 335.96 336.75 339.38 337.52 342.9C337.66 347.13 336.95 348.84 336.95 348.84C336.86 348.85 336.56 351.11 336.41 353.42C336.41 356.59 337.88 358.71 337.87 358.62C337.88 358.71 338.99 360.24 342.11 360.34C345.68 360.03 346.06 357.44 346.06 357.44C346.06 357.44 346.6 357.16 346.23 353.59C345.87 350.03 343.74 344.52 343.74 344.52L329.1 301.97L325.25 304.42Z" /><path class="shp10" d="M330.74 346.06C330.74 346.06 332.72 351.93 337.31 358.95C342.39 366.25 345.96 365.82 345.96 365.82C345.96 365.82 351.43 366.65 352.07 362.38C352.23 358.12 349.31 356.67 349.3 356.58C349.31 356.67 346.09 354.37 341.98 352.67C338.43 350.48 338.66 350.52 336.56 347.8C335.21 344.67 335.66 346.87 332.22 334.58C328.78 322.3 327.29 315.45 327.2 315.45L322.83 316.45L327.35 334.35L328.93 340.45L330.74 346.06Z" /><path class="shp10" d="M307.72 335.17C307.72 335.17 309.52 341.1 313.9 348.26C318.76 355.71 322.34 355.38 322.34 355.38C322.34 355.38 327.78 356.38 328.55 352.12C328.84 347.87 325.96 346.34 325.96 346.24C325.96 346.34 322.82 343.94 318.76 342.12C315.28 339.82 315.5 339.87 313.48 337.09C312.24 333.92 312.62 336.12 309.55 323.74C306.48 311.36 305.2 304.47 305.11 304.47L300.71 305.33L304.69 323.36L306.09 329.5L307.72 335.17Z" /><path class="shp10" d="M302.83 331.75C302.83 331.75 304.63 337.68 309.01 344.84C313.86 352.29 317.45 351.97 317.45 351.97C317.45 351.97 322.89 352.96 323.66 348.71C323.95 344.46 321.07 342.92 321.07 342.83C321.07 342.92 317.93 340.52 313.87 338.7C310.38 336.41 310.61 336.45 308.59 333.67C307.34 330.5 307.73 332.71 304.66 320.33C301.59 307.95 300.31 301.06 300.22 301.06L295.82 301.92L299.8 319.95L301.19 326.09L302.83 331.75Z" /><path class="shp10" d="M314.73 297.58L323.08 329.69C323.08 329.69 324.08 333.18 324.64 336.74C324.52 340.98 323.71 342.64 323.71 342.64C323.62 342.64 323.18 344.88 322.89 347.18C322.7 350.34 324.03 352.54 324.03 352.45C324.03 352.54 325.05 354.14 328.16 354.43C331.74 354.33 332.28 351.78 332.28 351.78C332.28 351.78 332.83 351.52 332.68 347.94C332.54 344.36 330.75 338.74 330.75 338.74L318.73 295.37L314.73 297.58Z" /><path class="shp10" d="M336.31 347.64C336.31 347.64 338.55 353.42 343.44 360.24C348.84 367.31 352.39 366.72 352.39 366.72C352.39 366.72 357.89 367.31 358.34 363.01C358.31 358.75 355.33 357.43 355.32 357.34C355.33 357.43 352.02 355.27 347.83 353.76C344.19 351.72 344.42 351.76 342.2 349.13C340.72 346.06 341.27 348.23 337.29 336.11C333.31 323.99 331.52 317.22 331.43 317.22L327.11 318.41L332.41 336.09L334.26 342.12L336.31 347.64Z" /><path class="shp10" d="M331.38 310.71L342.86 341.37C342.86 341.37 344.2 344.69 345.1 348.14C345.41 352.36 344.76 354.12 344.76 354.12C344.67 354.13 344.45 356.41 344.4 358.74C344.52 361.9 346.06 363.9 346.05 363.81C346.06 363.9 347.24 365.34 350.35 365.19C353.9 364.59 354.19 361.98 354.19 361.98C354.19 361.98 354.71 358.58 353.73 355.24C352.94 351.04 345.42 337.27 342.44 327.96L335.81 307.67L331.38 310.71Z" /></g><g ><path class="shp3" d="M326.7 192.92C326.7 192.92 322.39 197.8 316.43 207.69C310.67 217.4 310.42 217.79 307.74 225.08C305.82 232.18 305.8 234.57 307.13 238.53C308.84 241.73 310.52 242.4 312.08 242.47C313.65 242.53 314.45 242.1 315.6 240.34C317.9 235.11 315 232.49 314.13 228.15C313.26 223.8 313.62 227.14 313.62 223.92C314.1 219.65 315.44 218.53 316.02 217.38C316.88 215.75 317.49 214.52 322.31 207.32C327.33 199.64 329.73 195.42 329.73 195.42C329.73 195.42 330.26 193.7 329.1 192.86C327.99 192.06 326.7 192.92 326.7 192.92L326.7 192.92Z" /><path class="shp3" d="M323.49 191.39C323.49 191.39 319.18 196.26 313.23 206.16C307.46 215.86 307.22 216.26 304.53 223.55C302.61 230.64 302.59 233.04 303.92 237C305.64 240.2 307.31 240.87 308.88 240.93C310.44 241 311.25 240.57 312.39 238.8C314.69 233.58 311.79 230.96 310.92 226.61C310.05 222.27 310.41 225.61 310.41 222.39C310.89 218.11 312.23 217 312.81 215.84C313.67 214.21 314.28 212.98 319.11 205.78C324.12 198.11 326.52 193.89 326.52 193.89C326.52 193.89 327.05 192.17 325.89 191.33C324.78 190.52 323.49 191.39 323.49 191.39L323.49 191.39Z" /><path class="shp3" d="M350.18 183.65C350.18 183.65 345.27 187.93 338.08 196.97C331.11 205.84 330.81 206.2 327.2 213.08C324.38 219.86 324.05 222.24 324.85 226.34C326.14 229.73 327.72 230.62 329.26 230.88C330.8 231.15 331.65 230.83 333.02 229.23C335.98 224.35 333.44 221.37 333.15 216.95C332.85 212.53 332.77 215.89 333.19 212.69C334.22 208.52 335.69 207.58 336.41 206.51C337.48 205.01 338.25 203.87 343.96 197.36C349.94 190.4 352.86 186.52 352.86 186.52C352.86 186.52 353.61 184.89 352.57 183.91C351.57 182.96 350.18 183.65 350.18 183.65L350.18 183.65Z" /><path class="shp3" d="M335.11 183.67C335.11 183.67 327.43 196.21 324.66 201.01C321.27 206.29 318.18 213.76 315.23 217.72C311.68 221.47 308.13 222.1 305.64 224.5C302.78 227.05 302.26 228.29 302.12 230.44C302.19 233.34 305.04 235.44 307.89 234.5C310.73 234.15 313.88 229.59 313.88 229.59C313.88 229.59 317.95 221.88 320.75 216.58C326.85 204 339.06 185.45 339.06 185.45L335.11 183.67Z" /><path class="shp3" d="M319.53 191.52C319.53 191.52 315.22 196.4 309.26 206.29C303.5 216 303.25 216.39 300.57 223.68C298.65 230.77 298.63 233.17 299.96 237.13C301.68 240.33 303.35 241 304.92 241.07C306.48 241.13 307.28 240.7 308.43 238.94C310.73 233.71 307.83 231.09 306.96 226.75C306.09 222.4 306.45 225.74 306.45 222.52C306.93 218.25 308.27 217.13 308.85 215.98C309.71 214.35 310.32 213.12 315.15 205.92C320.16 198.24 322.56 194.02 322.56 194.02C322.56 194.02 323.09 192.3 321.93 191.46C320.82 190.66 319.53 191.52 319.53 191.52L319.53 191.52Z" /><path class="shp3" d="M358.68 185.35C358.68 185.35 349.26 196.64 345.81 200.98C341.69 205.72 337.54 212.65 334.05 216.13C329.98 219.33 326.37 219.43 323.56 221.44C320.36 223.55 319.66 224.7 319.21 226.81C318.86 229.69 321.37 232.18 324.33 231.67C327.19 231.73 330.98 227.68 330.98 227.68C330.98 227.68 336.12 220.65 339.67 215.81C347.54 204.26 362.33 187.69 362.33 187.69L358.68 185.35Z" /><path class="shp3" d="M353.28 186.18C353.28 186.18 348.42 190.52 341.35 199.65C334.49 208.61 334.2 208.97 330.68 215.9C327.94 222.72 327.65 225.1 328.5 229.19C329.83 232.56 331.42 233.43 332.96 233.67C334.51 233.92 335.36 233.59 336.7 231.97C339.6 227.05 337.03 224.11 336.67 219.69C336.32 215.27 336.28 218.63 336.66 215.44C337.63 211.25 339.1 210.29 339.8 209.21C340.85 207.7 341.6 206.55 347.24 199.96C353.12 192.92 355.99 189.01 355.99 189.01C355.99 189.01 356.72 187.37 355.67 186.4C354.66 185.47 353.28 186.18 353.28 186.18L353.28 186.18Z" /><path class="shp3" d="M362.27 186.99C362.27 186.99 352.85 198.28 349.4 202.62C345.28 207.35 341.13 214.29 337.64 217.77C333.57 220.97 329.97 221.06 327.15 223.08C323.96 225.19 323.26 226.34 322.81 228.45C322.46 231.33 324.96 233.82 327.92 233.31C330.79 233.37 334.57 229.32 334.57 229.32C334.57 229.32 339.72 222.29 343.27 217.45C351.14 205.9 365.92 189.33 365.92 189.33L362.27 186.99Z" /><path class="shp3" d="M345.49 181.62C345.49 181.62 340.62 185.94 333.51 195.04C326.61 203.97 326.32 204.34 322.77 211.25C320.01 218.06 319.7 220.43 320.54 224.53C321.86 227.91 323.44 228.78 324.99 229.03C326.53 229.28 327.38 228.95 328.73 227.34C331.65 222.44 329.09 219.48 328.75 215.06C328.41 210.64 328.37 214.01 328.75 210.81C329.75 206.62 331.21 205.68 331.93 204.6C332.98 203.09 333.73 201.94 339.39 195.38C345.3 188.36 348.2 184.46 348.2 184.46C348.2 184.46 348.93 182.82 347.88 181.85C346.87 180.91 345.49 181.62 345.49 181.62L345.49 181.62Z" /><path class="shp3" d="M363.31 192.19C363.31 192.19 353.89 203.48 350.44 207.83C346.32 212.56 342.17 219.49 338.67 222.98C334.6 226.17 331 226.27 328.19 228.28C324.99 230.39 324.29 231.54 323.84 233.65C323.49 236.53 325.99 239.02 328.96 238.51C331.82 238.57 335.6 234.52 335.6 234.52C335.6 234.52 340.75 227.49 344.3 222.66C352.17 211.1 366.96 194.53 366.96 194.53L363.31 192.19Z" /><path class="shp12" d="M360.44 201.35C360.44 201.35 350.61 213.58 347.03 218.29C342.72 223.42 338.5 230.87 334.82 234.67C330.49 238.2 326.51 238.45 323.51 240.69C320.08 243.04 319.37 244.27 318.98 246.5C318.74 249.53 321.65 252.03 324.89 251.37C328.06 251.31 332.03 246.9 332.03 246.9C332.03 246.9 337.35 239.31 341.02 234.09C349.12 221.64 364.59 203.64 364.59 203.64L360.44 201.35Z" /><path class="shp3" d="M363.41 211.44C363.41 211.44 362.05 213.08 350.54 227.84C340.02 244.01 338.42 247.05 338.42 247.05C338.42 247.05 336.73 250.17 335.01 251.11C333.3 252.04 330.38 251.94 329.5 251.27C328.66 250.63 328.19 250.53 327.91 247.41C328.23 245.57 328.76 244.84 329.53 244.15C331.08 242.97 331.88 242.77 333.79 242.16C335.68 241.19 336.41 240.24 337.69 238.49C340.24 234.49 341.37 232.53 345.64 226.69C351.18 218.97 355.54 214.27 360.6 208.22L363.41 211.44Z" /><path class="shp13" d="M363.93 208.66C363.93 208.66 354.94 221.03 351.68 225.78C347.72 230.98 344.04 238.38 340.61 242.27C336.49 245.95 332.45 246.5 329.57 248.85C326.27 251.34 325.65 252.57 325.45 254.71C325.46 257.61 328.64 259.77 331.89 258.89C335.13 258.6 338.8 254.11 338.8 254.11C338.8 254.11 343.59 246.49 346.89 241.25C354.1 228.81 368.37 210.53 368.37 210.53L363.93 208.66Z" /><path class="shp3" d="M370.99 213.02C370.99 213.02 369.71 214.73 358.99 230.07C349.32 246.76 347.88 249.88 347.88 249.88C347.88 249.88 346.35 253.08 344.68 254.11C343.02 255.13 340.1 255.18 339.18 254.55C338.32 253.96 337.84 253.88 337.39 250.78C337.62 248.93 338.12 248.17 338.85 247.44C340.34 246.18 341.12 245.94 343 245.24C344.84 244.16 345.51 243.18 346.71 241.37C349.04 237.24 350.07 235.22 354.04 229.17C359.17 221.17 363.28 216.25 368.02 209.95L370.99 213.02Z" /></g><g ><path class="shp14" d="M432.97 130.53C418.23 132.08 404.06 135.54 390.72 140.69L391.85 142.97C405.18 137.86 419.19 134.52 433.38 133.01C434.62 132.87 434.34 130.4 432.97 130.53L432.97 130.53Z" /><path class="shp15" d="M441.49 134.47C427.96 135.17 417.05 137.23 405.77 140.53C401.39 141.78 397.07 143.24 392.81 144.87L393.97 147.19C409.24 141.38 425.4 137.94 441.72 137.01C443.22 136.85 443.01 134.49 441.49 134.47L441.49 134.47Z" /><path class="shp15" d="M435.23 139.62C421.46 141.02 407.87 144.18 394.92 149.08L395.9 151.02C408.64 146.23 422.03 143.13 435.58 141.74C436.83 141.65 436.58 139.5 435.23 139.62Z" /><path class="shp15" d="M396.66 152.56L397.81 154.85C416.01 148.23 432.23 145.69 446.18 145.28C447.63 145.19 447.63 142.83 445.99 142.75C430.15 143.29 411.93 146.83 396.66 152.56Z" /><path class="shp15" d="M438.6 147.73C426.48 148.73 412.84 151.58 398.77 156.77L399.95 159.12C412.04 154.64 428.25 151.05 439.04 150.25C440.55 150.03 440.19 147.61 438.6 147.73L438.6 147.73Z" /><path class="shp15" d="M401.1 161.4L402.24 163.69C414.55 159.17 434.77 154.9 446.5 155.09C447.77 155 447.67 152.63 446.4 152.53C431.68 152.52 416.29 155.89 401.1 161.4L401.1 161.4Z" /><path class="shp15" d="M437.26 157.99C425.72 159.31 414.32 161.99 403.39 165.99L404.54 168.27C414.82 164.55 426.18 161.69 437.55 160.55C439.24 160.32 439 157.88 437.26 157.99L437.26 157.99Z" /><path class="shp15" d="M405.68 170.54L406.83 172.83C416.9 169.22 432.82 165.85 443.66 165.29C445.23 165.11 445.02 162.74 443.44 162.7C430.76 163.18 416.94 166.6 405.68 170.54L405.68 170.54Z" /><path class="shp15" d="M444.58 168.22C435.19 168.29 418.73 171.75 408.17 175.51L409.32 177.81C419.42 174.23 436.05 170.95 444.7 170.74C446.45 170.72 446.41 168.24 444.58 168.22L444.58 168.22Z" /><path class="shp15" d="M436.57 174.16C427.76 175.41 419.06 177.52 410.66 180.48L411.8 182.76C419.82 179.85 428.76 177.71 437.1 176.62C438.71 176.28 438.33 173.81 436.57 174.16L436.57 174.16Z" /><path class="shp15" d="M444.25 178.36C434.55 178.71 421.88 181.56 412.79 184.74L413.94 187.04C422.42 184.11 434.52 181.27 444.29 180.92C446.07 180.82 445.92 178.25 444.25 178.36Z" /><path class="shp16" d="M426.44 171.39C426.44 171.39 406.14 167.1 407.4 178.47C412.64 187.85 426.44 171.39 426.44 171.39L426.44 171.39Z" /><path class="shp17" d="M422.06 184.39C422.06 184.39 405.59 195.05 402.71 184.56C404.05 174.49 422.06 184.39 422.06 184.39L422.06 184.39Z" /><path class="shp18" d="M409.6 170.55C409.6 170.55 390.59 175.21 396.44 184.59C404.84 190.58 409.6 170.55 409.6 170.55L409.6 170.55Z" /><path class="shp19" d="M409.96 189.83C409.96 189.83 393.66 199.14 391.68 188.76C393.66 179.05 409.96 189.83 409.96 189.83L409.96 189.83Z" /><path class="shp20" d="M397.14 174.68C397.14 174.68 379.09 181.48 385.93 189.89C394.86 194.7 397.14 174.68 397.14 174.68L397.14 174.68Z" /><path class="shp21" d="M399.69 194.97C399.69 194.97 384.24 204.42 382.54 194.05C384.54 184.32 399.69 194.97 399.69 194.97L399.69 194.97Z" /><path class="shp22" d="M385.29 180.04C385.29 180.04 369.15 189.95 377.54 196.44C387.21 199.16 385.29 180.04 385.29 180.04L385.29 180.04Z" /><path class="shp23" d="M391.54 199.23C391.54 199.23 376.78 211.2 373.2 201.2C373.67 191.2 391.54 199.23 391.54 199.23L391.54 199.23Z" /><path class="shp24" d="M382.88 204.79C382.88 204.79 370.46 217.6 365.9 208.73C365.13 199.41 382.88 204.79 382.88 204.79L382.88 204.79Z" /><path class="shp25" d="M375.49 187.52C375.49 187.52 359.74 197.42 368.1 203.64C377.66 206.18 375.49 187.52 375.49 187.52L375.49 187.52Z" /><path class="shp26" d="M365.72 194.31C365.72 194.31 351.4 206.07 360.44 211.35C370.22 212.79 365.72 194.31 365.72 194.31L365.72 194.31Z" /><path class="shp27" d="M374.56 212.13C374.56 212.13 362.12 226.01 357.5 216.21C356.69 205.98 374.56 212.13 374.56 212.13L374.56 212.13Z" /><path class="shp28" d="M411.1 140.93C411.1 140.93 388.87 136.66 390.59 149.59C396.58 160.12 411.1 140.93 411.1 140.93L411.1 140.93Z" /><path class="shp29" d="M392.67 139.57C392.67 139.57 372.26 148.44 380.71 157.58C391.33 162.51 392.67 139.57 392.67 139.57L392.67 139.57Z" /><path class="shp30" d="M381 144.78C381 144.78 360.1 155.33 369.29 164.88C380.57 169.75 381 144.78 381 144.78L381 144.78Z" /><path class="shp31" d="M368.91 150.7C368.91 150.7 349.46 162.51 359.04 171.09C370.3 174.98 368.91 150.7 368.91 150.7L368.91 150.7Z" /><path class="shp32" d="M356.33 158.56C356.33 158.56 339.03 172.18 349.61 178.8C361.15 180.85 356.33 158.56 356.33 158.56L356.33 158.56Z" /><path class="shp33" d="M346.77 165.52C346.77 165.52 330 179.94 340.72 186.28C352.26 187.95 346.77 165.52 346.77 165.52L346.77 165.52Z" /><path class="shp34" d="M337.66 172.12C337.66 172.12 320.78 186.32 331.44 192.73C342.97 194.5 337.66 172.12 337.66 172.12L337.66 172.12Z" /><path class="shp35" d="M328.16 180.47C328.16 180.47 313.31 196.65 324.58 201.69C336.12 202.01 328.16 180.47 328.16 180.47L328.16 180.47Z" /><path class="shp36" d="M431.72 154.91C431.72 154.91 418.75 172.79 411.65 162.6C409.1 151.23 431.72 154.91 431.72 154.91L431.72 154.91Z" /><path class="shp37" d="M421.68 146.11C421.68 146.11 400.2 146.02 403.98 158.5C411.35 167.81 421.68 146.11 421.68 146.11L421.68 146.11Z" /><path class="shp38" d="M420.85 167.22C420.85 167.22 400.57 177.79 398.56 165.08C401.35 153.37 420.85 167.22 420.85 167.22L420.85 167.22Z" /><path class="shp28" d="M407.04 147.66C407.04 147.66 384.72 153.37 391.78 164.09C401.77 170.88 407.04 147.66 407.04 147.66L407.04 147.66Z" /><path class="shp39" d="M406.78 171.64C406.78 171.64 386.48 183.02 384.27 169.73C386.92 157.41 406.78 171.64 406.78 171.64L406.78 171.64Z" /><path class="shp36" d="M394.02 178.2C394.02 178.2 374.98 189.19 372.58 176.96C374.82 165.53 394.02 178.2 394.02 178.2L394.02 178.2Z" /><path class="shp40" d="M392.73 151.49C392.73 151.49 369.49 160.38 378.29 171.4C389.77 177.73 392.73 151.49 392.73 151.49L392.73 151.49Z" /><path class="shp41" d="M377.02 159.8C377.02 159.8 356.63 171.65 366.74 180.15C378.6 183.97 377.02 159.8 377.02 159.8L377.02 159.8Z" /><path class="shp32" d="M382.57 184.02C382.57 184.02 365.2 197.28 361.56 185.19C362.54 173.36 382.57 184.02 382.57 184.02L382.57 184.02Z" /><path class="shp42" d="M363.69 167.38C363.69 167.38 344.58 181.26 355.5 188.83C367.68 191.52 363.69 167.38 363.69 167.38L363.69 167.38Z" /><path class="shp37" d="M352.36 174.95C352.36 174.95 335.15 189.35 346.01 195.83C357.75 197.6 352.36 174.95 352.36 174.95L352.36 174.95Z" /><path class="shp43" d="M372.3 190.82C372.3 190.82 356.12 206.58 350.52 195.22C349.78 183.42 372.3 190.82 372.3 190.82L372.3 190.82Z" /></g><g ><path class="shp44" d="M316.76 392.02C316.76 392.02 332.18 409.61 340.09 398.97C342.71 387.32 316.76 392.02 316.76 392.02L316.76 392.02Z" /><path class="shp45" d="M324.29 401.88C324.29 401.88 341.23 420.82 348.41 408.5C350.17 395.31 324.29 401.88 324.29 401.88L324.29 401.88Z" /><path class="shp46" d="M335.41 411.89C335.41 411.89 350.3 427.35 355.9 416.65C356.91 405.41 335.41 411.89 335.41 411.89L335.41 411.89Z" /><path class="shp46" d="M348.22 373.39C348.22 373.39 362.56 389.37 351.48 394.17C340.19 394.35 348.22 373.39 348.22 373.39L348.22 373.39Z" /><path class="shp37" d="M336.41 391.3C336.41 391.3 347.31 410.96 355.73 401.58C359.7 390.43 336.41 391.3 336.41 391.3L336.41 391.3Z" /><path class="shp46" d="M355.61 387.56C355.61 387.56 368.76 404.53 375.47 394.5C377.68 383.42 355.61 387.56 355.61 387.56L355.61 387.56Z" /><path class="shp33" d="M355.65 382.59C355.65 382.59 371.73 397.76 360.85 403.71C349.34 404.93 355.65 382.59 355.65 382.59L355.65 382.59Z" /><path class="shp37" d="M344.6 404.14C344.6 404.14 359.4 420.96 365.82 410.15C367.47 398.53 344.6 404.14 344.6 404.14L344.6 404.14Z" /><path class="shp47" d="M373.8 374.68C373.8 374.68 389.43 388.37 380.03 394.51C369.71 396.18 373.8 374.68 373.8 374.68L373.8 374.68Z" /><path class="shp47" d="M364.35 394.64C364.35 394.64 377.98 409.98 383.74 399.99C385.14 389.29 364.35 394.64 364.35 394.64L364.35 394.64Z" /><path class="shp48" d="M383.26 381.93C383.26 381.93 397.82 394.79 388.18 400.17C377.92 401.44 383.26 381.93 383.26 381.93L383.26 381.93Z" /><path class="shp46" d="M371.03 402.3C371.03 402.3 387.33 416.28 391.88 405.09C391.81 393.8 371.03 402.3 371.03 402.3L371.03 402.3Z" /><path class="shp49" d="M364.47 391.88C364.47 391.88 382.45 405.08 372.2 412.29C360.75 414.87 364.47 391.88 364.47 391.88L364.47 391.88Z" /><path class="shp46" d="M374.79 400.61C374.79 400.61 391.93 413.55 381.98 420.38C370.93 422.72 374.79 400.61 374.79 400.61L374.79 400.61Z" /><path class="shp46" d="M392.43 391.05C392.43 391.05 407.52 406.32 396.68 411.65C385.41 412.37 392.43 391.05 392.43 391.05L392.43 391.05Z" /></g><g ><path class="shp50" d="M296.98 231.87C296.98 231.87 289.39 252.87 302.17 253.11C313.31 248.84 296.98 231.87 296.98 231.87L296.98 231.87Z" /><path class="shp51" d="M292.57 244.35C292.57 244.35 286.58 266.01 299.48 265.32C310.35 260.22 292.57 244.35 292.57 244.35L292.57 244.35Z" /><path class="shp52" d="M289 256.97C289 256.97 284.17 278.62 297.75 277.19C308.88 271.54 289 256.97 289 256.97L289 256.97Z" /><path class="shp53" d="M286.79 269.62C286.79 269.62 284.26 293.2 296.89 290.36C306.83 283.25 286.79 269.62 286.79 269.62L286.79 269.62Z" /><path class="shp54" d="M285.47 282.65C285.47 282.65 283.78 305.15 296.37 302.02C306.1 294.92 285.47 282.65 285.47 282.65L285.47 282.65Z" /><path class="shp55" d="M319.58 220.25C319.58 220.25 304.36 238.67 317.59 242.98C330.67 242.28 319.58 220.25 319.58 220.25L319.58 220.25Z" /><path class="shp56" d="M333.78 236.37C333.78 236.37 326.73 257.75 316.49 250.21C310.35 240.07 333.78 236.37 333.78 236.37L333.78 236.37Z" /><path class="shp28" d="M309.92 234.22C309.92 234.22 299.39 254.36 312.29 256.25C324.14 253.38 309.92 234.22 309.92 234.22L309.92 234.22Z" /><path class="shp57" d="M333.8 240.26C333.8 240.26 321.04 256.88 332.67 259.66C344.03 258.21 333.8 240.26 333.8 240.26L333.8 240.26Z" /><path class="shp58" d="M346.99 252.58C346.99 252.58 341.6 271.17 333.27 264.75C328.21 256.03 346.99 252.58 346.99 252.58L346.99 252.58Z" /><path class="shp59" d="M327.36 251.87C327.36 251.87 319.07 270.21 329.8 270.94C339.55 267.59 327.36 251.87 327.36 251.87L327.36 251.87Z" /><path class="shp60" d="M329.51 248.49C329.51 248.49 323.55 270.03 313.23 262.99C306.82 253.18 329.51 248.49 329.51 248.49L329.51 248.49Z" /><path class="shp61" d="M303.47 248.41C303.47 248.41 296.61 271.33 310.28 270.85C321.92 265.62 303.47 248.41 303.47 248.41L303.47 248.41Z" /><path class="shp62" d="M343.43 262.7C343.43 262.7 339.91 280.71 330.74 275.65C324.66 268.06 343.43 262.7 343.43 262.7L343.43 262.7Z" /><path class="shp63" d="M324.16 264.23C324.16 264.23 317.18 281.54 328.14 281.58C337.79 277.94 324.16 264.23 324.16 264.23L324.16 264.23Z" /><path class="shp64" d="M325.22 259.78C325.22 259.78 322.97 282.3 311.29 277.09C303.06 268.44 325.22 259.78 325.22 259.78L325.22 259.78Z" /><path class="shp65" d="M299.17 262.22C299.17 262.22 295.2 286.44 307.94 284.4C318.27 277.75 299.17 262.22 299.17 262.22L299.17 262.22Z" /><path class="shp66" d="M341.38 271.85C341.38 271.85 338.87 291.58 329.41 286.65C322.89 278.8 341.38 271.85 341.38 271.85L341.38 271.85Z" /><path class="shp67" d="M321.83 276.39C321.83 276.39 316.65 294.54 327.49 293.65C336.66 289.15 321.83 276.39 321.83 276.39L321.83 276.39Z" /><path class="shp68" d="M322.55 272.73C322.55 272.73 321.87 295.22 310.03 290.86C301.35 282.84 322.55 272.73 322.55 272.73L322.55 272.73Z" /><path class="shp69" d="M296.91 277.2C296.91 277.2 296.51 301.09 308.81 297.06C318.05 288.99 296.91 277.2 296.91 277.2L296.91 277.2Z" /><path class="shp70" d="M284.18 294.52C284.18 294.52 284.75 317.39 296.74 313.01C305.54 304.9 284.18 294.52 284.18 294.52L284.18 294.52Z" /><path class="shp71" d="M339.26 282.55C339.26 282.55 339.83 301.56 329.38 298.55C321.47 292.28 339.26 282.55 339.26 282.55L339.26 282.55Z" /><path class="shp72" d="M319.48 289.45C319.48 289.45 317.14 309.3 328.65 306.46C337.72 300.13 319.48 289.45 319.48 289.45L319.48 289.45Z" /><path class="shp73" d="M321.72 284.53C321.72 284.53 322.79 307.32 310.74 303.89C301.54 296.49 321.72 284.53 321.72 284.53L321.72 284.53Z" /><path class="shp74" d="M295.35 290.95C295.35 290.95 297.13 313.76 308.59 308.72C316.75 300.13 295.35 290.95 295.35 290.95L295.35 290.95Z" /><path class="shp75" d="M338.76 293.29C338.76 293.29 341.39 312.36 330.7 310.28C322.17 304.69 338.76 293.29 338.76 293.29L338.76 293.29Z" /><path class="shp76" d="M319.98 301.46C319.98 301.46 319.09 321.32 329.05 317.77C336.65 310.92 319.98 301.46 319.98 301.46L319.98 301.46Z" /><path class="shp77" d="M339.36 303.88C339.36 303.88 342.41 322.27 331.58 319.98C322.86 314.38 339.36 303.88 339.36 303.88L339.36 303.88Z" /><path class="shp46" d="M284.29 307.99C284.29 307.99 287.45 329.23 298.22 323.76C305.56 315.18 284.29 307.99 284.29 307.99L284.29 307.99Z" /></g><g ><path class="shp78" d="M325.2 352.2C325.2 352.2 313.18 352.35 305.16 349.8C294.64 346.93 290.44 337.2 290.44 337.2C290.44 337.2 288.9 339.43 289 342.6C289.09 345.48 291.15 352.12 296.32 359.16C301.68 367.83 305.32 378.05 309.64 384.76C313.1 390.8 320.4 396.27 320.4 396.27C320.4 396.27 343.61 393.49 345.86 393.01C348.85 392.56 369.36 387.83 373.97 387.57C378.57 387.32 389.02 387.99 389.02 387.99C389.02 387.99 385.34 381.21 383.56 379.9C380.01 376.96 375.72 375.76 371.28 371.47C368.85 368.8 364.76 364.08 362.46 361.53C359.58 358.78 357.41 356.07 354.27 354.31C351.72 352.64 325.2 352.2 325.2 352.2L325.2 352.2Z" /><path class="shp7" d="M377.67 376.51C377.67 376.51 369.13 376.72 365.03 377.25C360.49 377.97 350.73 379.15 342.89 379.95C335.85 380.72 329.89 381.18 321.95 381.26L307.52 380.6C307.98 381.46 309.27 383.76 310.54 385.6C312.08 387.95 313.28 389.51 316.09 392.13C318.4 394.31 319.82 395.44 320.48 395.95C322.21 395.76 333.12 394.45 337.53 393.84C344.78 393.13 348.46 392.16 356.81 390.39C361.17 389.5 371.29 387.38 373.92 387.23C376.88 386.99 387.44 387.55 388.54 387.64C387.85 386.5 387.02 385.13 385.86 383.19C384.23 380.42 382.96 379.71 380.66 378.17C379.75 377.58 377.74 376.54 377.67 376.51L377.67 376.51Z" /><path class="shp1" d="M298.94 363.06C299.61 364.31 301.38 367.89 302.97 371.08C304.99 375.46 306.11 377.85 307.59 380.72C310.8 380.96 313.94 381.06 321.95 381.31C329.89 381.23 335.85 380.77 342.89 380C350.73 379.2 360.49 378.03 365.03 377.31C369.14 376.79 377.8 376.58 377.8 376.58C377.8 376.58 373.95 374.25 372.16 372.72C369.94 370.66 368.92 369.19 367.11 367.28C364.76 367.09 361.48 367.07 357.9 366.82C351.63 366.46 342 367.12 336.63 367.12C331.26 367.12 322.18 366.94 314.52 366.04C304.13 365.3 301.63 363.59 298.94 363.06L298.94 363.06Z" /><path class="shp79" d="M290.28 339.36C291.88 341.82 293.48 344.33 296.04 346.42C300.39 349.52 301.51 350.14 309.91 352.11C317.47 353.31 319.18 352.98 329.27 353.29C339.1 353.59 341.94 353.82 348.3 354.33C351.38 354.58 352.41 354.84 353.73 355.05" /></g></g><g ><path class="shp7" d="M544.73 422.57L590.68 371.2L608.72 306.73L602.3 247.21L572.9 190.15L527.44 155.08L500.27 144.95L492.61 156.07L479.27 160.02L486.92 166.44L487.91 182.99L534.36 213.37L562.52 260.3L565.24 313.15L551.16 359.1L497.3 410.47L544.73 422.57Z" /><g ><path class="shp10" d="M601.58 348.57C601.58 348.57 599.58 354.43 594.97 361.44C589.87 368.73 586.3 368.29 586.3 368.29C586.3 368.29 580.83 369.1 580.2 364.83C580.06 360.57 582.98 359.13 582.99 359.04C582.98 359.13 586.2 356.84 590.32 355.15C593.88 352.97 593.65 353.01 595.76 350.29C597.11 347.17 596.65 349.36 600.13 337.09C603.6 324.82 605.11 317.97 605.2 317.97L609.57 318.98L605 336.87L603.4 342.96L601.58 348.57Z" /><path class="shp10" d="M604.04 306.69L594.54 338.48C594.54 338.48 593.41 341.93 592.73 345.47C592.69 349.7 593.44 351.39 593.44 351.39C593.54 351.39 593.89 353.65 594.1 355.96C594.18 359.13 592.76 361.28 592.77 361.19C592.76 361.28 591.69 362.84 588.57 363.02C585 362.79 584.55 360.22 584.55 360.22C584.55 360.22 584.01 359.94 584.28 356.37C584.56 352.8 586.55 347.24 586.55 347.24L600.13 304.34L604.04 306.69Z" /><path class="shp10" d="M609.86 298.89L601.51 331C601.51 331 600.51 334.49 599.96 338.05C600.07 342.28 600.89 343.94 600.89 343.94C600.98 343.94 601.42 346.18 601.71 348.48C601.9 351.65 600.56 353.85 600.56 353.75C600.56 353.85 599.54 355.45 596.44 355.73C592.86 355.64 592.32 353.08 592.32 353.08C592.32 353.08 591.76 352.83 591.91 349.25C592.06 345.67 593.85 340.04 593.85 340.04L605.87 296.68L609.86 298.89Z" /><path class="shp10" d="M606.93 346.03C606.93 346.03 605 351.93 600.49 359C595.48 366.35 591.91 365.95 591.91 365.95C591.91 365.95 586.44 366.84 585.76 362.57C585.56 358.31 588.47 356.84 588.47 356.74C588.47 356.84 591.66 354.5 595.75 352.76C599.28 350.54 599.05 350.58 601.12 347.84C602.44 344.7 602.01 346.89 605.32 334.57C608.64 322.26 610.05 315.39 610.15 315.39L614.53 316.34L610.19 334.29L608.67 340.4L606.93 346.03Z" /><path class="shp11" d="M590.25 326.99C590.25 326.99 588.65 332.85 584.77 339.92C580.47 347.28 577.3 346.96 577.3 346.96C577.3 346.96 572.48 347.94 571.79 343.74C571.54 339.54 574.09 338.03 574.09 337.93C574.09 338.03 576.87 335.66 580.47 333.86C583.55 331.59 583.35 331.64 585.14 328.89C586.24 325.76 585.9 327.94 588.62 315.71C591.34 303.48 592.47 296.67 592.55 296.67L596.45 297.52L592.92 315.33L591.69 321.4L590.25 326.99Z" /><path class="shp10" d="M585.7 327.75C585.7 327.75 583.89 333.68 579.52 340.84C574.66 348.29 571.08 347.97 571.08 347.97C571.08 347.97 565.63 348.96 564.86 344.71C564.58 340.46 567.46 338.92 567.46 338.83C567.46 338.92 570.6 336.52 574.66 334.71C578.14 332.41 577.92 332.46 579.93 329.67C581.18 326.5 580.8 328.71 583.87 316.33C586.93 303.95 588.21 297.06 588.31 297.06L592.71 297.92L588.72 315.95L587.33 322.09L585.7 327.75Z" /><path class="shp10" d="M590.43 294.55L582.08 326.66C582.08 326.66 581.08 330.15 580.52 333.71C580.64 337.94 581.45 339.6 581.45 339.6C581.55 339.6 581.98 341.84 582.27 344.14C582.46 347.31 581.13 349.51 581.13 349.41C581.13 349.51 580.11 351.11 577 351.39C573.42 351.3 572.88 348.74 572.88 348.74C572.88 348.74 572.33 348.49 572.48 344.91C572.63 341.33 574.42 335.7 574.42 335.7L586.44 292.34L590.43 294.55Z" /><path class="shp10" d="M574.75 304.42L564.46 335.96C564.46 335.96 563.25 339.38 562.48 342.9C562.34 347.13 563.05 348.84 563.05 348.84C563.14 348.85 563.44 351.11 563.59 353.42C563.59 356.59 562.12 358.71 562.13 358.62C562.12 358.71 561.01 360.24 557.89 360.34C554.32 360.03 553.94 357.44 553.94 357.44C553.94 357.44 553.4 357.16 553.77 353.59C554.13 350.03 556.26 344.52 556.26 344.52L570.9 301.97L574.75 304.42Z" /><path class="shp10" d="M569.26 346.06C569.26 346.06 567.28 351.93 562.69 358.95C557.61 366.25 554.04 365.82 554.04 365.82C554.04 365.82 548.57 366.65 547.93 362.38C547.77 358.12 550.69 356.67 550.7 356.58C550.69 356.67 553.91 354.37 558.02 352.67C561.57 350.48 561.34 350.52 563.44 347.8C564.79 344.67 564.34 346.87 567.78 334.58C571.22 322.3 572.71 315.45 572.8 315.45L577.17 316.45L572.65 334.35L571.07 340.45L569.26 346.06Z" /><path class="shp10" d="M592.28 335.17C592.28 335.17 590.48 341.1 586.1 348.26C581.24 355.71 577.66 355.38 577.66 355.38C577.66 355.38 572.22 356.38 571.45 352.12C571.16 347.87 574.04 346.34 574.04 346.24C574.04 346.34 577.18 343.94 581.24 342.12C584.72 339.82 584.5 339.87 586.52 337.09C587.76 333.92 587.38 336.12 590.45 323.74C593.52 311.36 594.8 304.47 594.89 304.47L599.29 305.33L595.31 323.36L593.91 329.5L592.28 335.17Z" /><path class="shp10" d="M597.17 331.75C597.17 331.75 595.37 337.68 590.99 344.84C586.14 352.29 582.55 351.97 582.55 351.97C582.55 351.97 577.11 352.96 576.34 348.71C576.05 344.46 578.93 342.92 578.93 342.83C578.93 342.92 582.07 340.52 586.13 338.7C589.62 336.41 589.39 336.45 591.41 333.67C592.66 330.5 592.27 332.71 595.34 320.33C598.41 307.95 599.69 301.06 599.78 301.06L604.18 301.92L600.2 319.95L598.81 326.09L597.17 331.75Z" /><path class="shp10" d="M585.27 297.58L576.92 329.69C576.92 329.69 575.92 333.18 575.36 336.74C575.48 340.98 576.29 342.64 576.29 342.64C576.38 342.64 576.82 344.88 577.11 347.18C577.3 350.34 575.97 352.54 575.97 352.45C575.97 352.54 574.95 354.14 571.84 354.43C568.26 354.33 567.72 351.78 567.72 351.78C567.72 351.78 567.17 351.52 567.31 347.94C567.46 344.36 569.25 338.74 569.25 338.74L581.27 295.37L585.27 297.58Z" /><path class="shp10" d="M563.69 347.64C563.69 347.64 561.45 353.42 556.56 360.24C551.16 367.31 547.61 366.72 547.61 366.72C547.61 366.72 542.11 367.31 541.66 363.01C541.69 358.75 544.67 357.43 544.68 357.34C544.67 357.43 547.98 355.27 552.17 353.76C555.81 351.72 555.58 351.76 557.8 349.13C559.28 346.06 558.73 348.23 562.71 336.11C566.69 323.99 568.48 317.22 568.57 317.22L572.89 318.41L567.58 336.09L565.74 342.12L563.69 347.64Z" /><path class="shp10" d="M568.62 310.71L557.14 341.37C557.14 341.37 555.8 344.69 554.9 348.14C554.59 352.36 555.24 354.12 555.24 354.12C555.33 354.13 555.54 356.41 555.6 358.74C555.48 361.9 553.94 363.9 553.95 363.81C553.94 363.9 552.76 365.34 549.65 365.19C546.1 364.59 545.81 361.98 545.81 361.98C545.81 361.98 545.29 358.58 546.27 355.24C547.06 351.04 554.58 337.27 557.56 327.96L564.19 307.67L568.62 310.71Z" /></g><g ><path class="shp3" d="M573.3 192.92C573.3 192.92 577.61 197.8 583.57 207.69C589.33 217.4 589.58 217.79 592.26 225.08C594.18 232.18 594.2 234.57 592.87 238.53C591.16 241.73 589.48 242.4 587.92 242.47C586.35 242.53 585.55 242.1 584.4 240.34C582.1 235.11 585 232.49 585.87 228.15C586.74 223.8 586.38 227.14 586.38 223.92C585.9 219.65 584.56 218.53 583.98 217.38C583.12 215.75 582.51 214.52 577.69 207.32C572.67 199.64 570.27 195.42 570.27 195.42C570.27 195.42 569.74 193.7 570.9 192.86C572.01 192.06 573.3 192.92 573.3 192.92L573.3 192.92Z" /><path class="shp3" d="M576.51 191.39C576.51 191.39 580.82 196.26 586.77 206.16C592.54 215.86 592.78 216.26 595.47 223.55C597.39 230.64 597.41 233.04 596.08 237C594.36 240.2 592.68 240.87 591.12 240.93C589.56 241 588.75 240.57 587.61 238.8C585.31 233.58 588.21 230.96 589.08 226.61C589.95 222.27 589.59 225.61 589.59 222.39C589.11 218.11 587.77 217 587.19 215.84C586.33 214.21 585.72 212.98 580.89 205.78C575.88 198.11 573.48 193.89 573.48 193.89C573.48 193.89 572.95 192.17 574.11 191.33C575.22 190.52 576.51 191.39 576.51 191.39L576.51 191.39Z" /><path class="shp3" d="M549.82 183.65C549.82 183.65 554.73 187.93 561.92 196.97C568.89 205.84 569.19 206.2 572.8 213.08C575.62 219.86 575.95 222.24 575.14 226.34C573.86 229.73 572.28 230.62 570.74 230.88C569.2 231.15 568.35 230.83 566.98 229.23C564.02 224.35 566.56 221.37 566.85 216.95C567.15 212.53 567.23 215.89 566.81 212.69C565.78 208.52 564.31 207.58 563.59 206.51C562.52 205.01 561.75 203.87 556.04 197.36C550.06 190.4 547.14 186.52 547.14 186.52C547.14 186.52 546.39 184.89 547.43 183.91C548.43 182.96 549.82 183.65 549.82 183.65L549.82 183.65Z" /><path class="shp3" d="M564.89 183.67C564.89 183.67 572.57 196.21 575.34 201.01C578.73 206.29 581.82 213.76 584.77 217.72C588.32 221.47 591.87 222.1 594.36 224.5C597.22 227.05 597.74 228.29 597.88 230.44C597.81 233.34 594.96 235.44 592.11 234.5C589.27 234.15 586.11 229.59 586.11 229.59C586.11 229.59 582.05 221.88 579.25 216.58C573.15 204 560.94 185.45 560.94 185.45L564.89 183.67Z" /><path class="shp3" d="M580.47 191.52C580.47 191.52 584.78 196.4 590.74 206.29C596.5 216 596.75 216.39 599.43 223.68C601.35 230.77 601.37 233.17 600.04 237.13C598.32 240.33 596.65 241 595.08 241.07C593.52 241.13 592.72 240.7 591.57 238.94C589.27 233.71 592.17 231.09 593.04 226.75C593.91 222.4 593.55 225.74 593.55 222.52C593.07 218.25 591.73 217.13 591.15 215.98C590.29 214.35 589.68 213.12 584.85 205.92C579.84 198.24 577.44 194.02 577.44 194.02C577.44 194.02 576.91 192.3 578.07 191.46C579.18 190.66 580.47 191.52 580.47 191.52L580.47 191.52Z" /><path class="shp3" d="M541.32 185.35C541.32 185.35 550.74 196.64 554.19 200.98C558.31 205.72 562.46 212.65 565.95 216.13C570.02 219.33 573.63 219.43 576.44 221.44C579.64 223.55 580.34 224.7 580.79 226.81C581.14 229.69 578.63 232.18 575.67 231.67C572.81 231.73 569.02 227.68 569.02 227.68C569.02 227.68 563.88 220.65 560.33 215.81C552.46 204.26 537.67 187.69 537.67 187.69L541.32 185.35Z" /><path class="shp3" d="M546.72 186.18C546.72 186.18 551.58 190.52 558.65 199.65C565.51 208.61 565.8 208.97 569.32 215.9C572.06 222.72 572.35 225.1 571.5 229.19C570.17 232.56 568.58 233.43 567.04 233.67C565.49 233.92 564.64 233.59 563.3 231.97C560.4 227.05 562.97 224.11 563.33 219.69C563.68 215.27 563.72 218.63 563.34 215.44C562.37 211.25 560.9 210.29 560.2 209.21C559.15 207.7 558.4 206.55 552.76 199.96C546.88 192.92 544.01 189.01 544.01 189.01C544.01 189.01 543.28 187.37 544.33 186.4C545.34 185.47 546.72 186.18 546.72 186.18L546.72 186.18Z" /><path class="shp3" d="M537.73 186.99C537.73 186.99 547.15 198.28 550.6 202.62C554.72 207.35 558.87 214.29 562.36 217.77C566.43 220.97 570.03 221.06 572.85 223.08C576.04 225.19 576.74 226.34 577.19 228.45C577.54 231.33 575.04 233.82 572.08 233.31C569.21 233.37 565.43 229.32 565.43 229.32C565.43 229.32 560.28 222.29 556.73 217.45C548.86 205.9 534.08 189.33 534.08 189.33L537.73 186.99Z" /><path class="shp3" d="M554.51 181.62C554.51 181.62 559.38 185.94 566.49 195.04C573.39 203.97 573.68 204.34 577.23 211.25C579.99 218.06 580.3 220.43 579.46 224.53C578.14 227.91 576.56 228.78 575.01 229.03C573.47 229.28 572.62 228.95 571.27 227.34C568.35 222.44 570.91 219.48 571.25 215.06C571.59 210.64 571.63 214.01 571.25 210.81C570.25 206.62 568.79 205.68 568.07 204.6C567.02 203.09 566.27 201.94 560.61 195.38C554.7 188.36 551.8 184.46 551.8 184.46C551.8 184.46 551.07 182.82 552.12 181.85C553.13 180.91 554.51 181.62 554.51 181.62L554.51 181.62Z" /><path class="shp3" d="M536.69 192.19C536.69 192.19 546.11 203.48 549.56 207.83C553.68 212.56 557.83 219.49 561.33 222.98C565.4 226.17 569 226.27 571.81 228.28C575.01 230.39 575.71 231.54 576.16 233.65C576.51 236.53 574 239.02 571.04 238.51C568.18 238.57 564.4 234.52 564.4 234.52C564.4 234.52 559.25 227.49 555.7 222.66C547.83 211.1 533.04 194.53 533.04 194.53L536.69 192.19Z" /><path class="shp12" d="M539.56 201.35C539.56 201.35 549.39 213.58 552.97 218.29C557.28 223.42 561.5 230.87 565.18 234.67C569.51 238.2 573.49 238.45 576.49 240.69C579.92 243.04 580.63 244.27 581.02 246.5C581.26 249.53 578.35 252.03 575.11 251.37C571.94 251.31 567.97 246.9 567.97 246.9C567.97 246.9 562.65 239.31 558.98 234.09C550.88 221.64 535.4 203.64 535.4 203.64L539.56 201.35Z" /><path class="shp3" d="M536.59 211.44C536.59 211.44 537.95 213.08 549.46 227.84C559.98 244.01 561.58 247.05 561.58 247.05C561.58 247.05 563.27 250.17 564.99 251.11C566.7 252.04 569.62 251.94 570.5 251.27C571.34 250.63 571.81 250.53 572.09 247.41C571.77 245.57 571.24 244.84 570.47 244.15C568.92 242.97 568.12 242.77 566.21 242.16C564.32 241.19 563.59 240.24 562.31 238.49C559.76 234.49 558.63 232.53 554.36 226.69C548.82 218.97 544.46 214.27 539.4 208.22L536.59 211.44Z" /><path class="shp13" d="M536.07 208.66C536.07 208.66 545.06 221.03 548.32 225.78C552.28 230.98 555.96 238.38 559.39 242.27C563.51 245.95 567.55 246.5 570.43 248.85C573.73 251.34 574.35 252.57 574.55 254.71C574.54 257.61 571.36 259.77 568.11 258.89C564.87 258.6 561.2 254.11 561.2 254.11C561.2 254.11 556.41 246.49 553.11 241.25C545.9 228.81 531.63 210.53 531.63 210.53L536.07 208.66Z" /><path class="shp3" d="M529.01 213.02C529.01 213.02 530.29 214.73 541.01 230.07C550.68 246.76 552.12 249.88 552.12 249.88C552.12 249.88 553.65 253.08 555.32 254.11C556.98 255.13 559.9 255.18 560.81 254.55C561.68 253.96 562.16 253.88 562.61 250.78C562.38 248.93 561.88 248.17 561.15 247.44C559.66 246.18 558.88 245.94 557 245.24C555.16 244.16 554.49 243.18 553.29 241.37C550.96 237.24 549.93 235.22 545.96 229.17C540.83 221.17 536.72 216.25 531.98 209.95L529.01 213.02Z" /></g><g ><path class="shp14" d="M467.03 130.53C481.77 132.08 495.94 135.54 509.28 140.69L508.15 142.97C494.82 137.86 480.81 134.52 466.62 133.01C465.38 132.87 465.66 130.4 467.03 130.53L467.03 130.53Z" /><path class="shp15" d="M458.51 134.47C472.04 135.17 482.95 137.23 494.23 140.53C498.61 141.78 502.93 143.24 507.19 144.87L506.03 147.19C490.76 141.38 474.6 137.94 458.28 137.01C456.78 136.85 456.99 134.49 458.51 134.47L458.51 134.47Z" /><path class="shp15" d="M464.77 139.62C478.54 141.02 492.13 144.18 505.08 149.08L504.1 151.02C491.36 146.23 477.97 143.13 464.42 141.74C463.17 141.65 463.42 139.5 464.77 139.62Z" /><path class="shp15" d="M503.34 152.56L502.19 154.85C483.99 148.23 467.76 145.69 453.82 145.28C452.37 145.19 452.37 142.83 454.01 142.75C469.85 143.29 488.07 146.83 503.34 152.56Z" /><path class="shp15" d="M461.4 147.73C473.52 148.73 487.16 151.58 501.23 156.77L500.05 159.12C487.96 154.64 471.75 151.05 460.96 150.25C459.45 150.03 459.81 147.61 461.4 147.73L461.4 147.73Z" /><path class="shp15" d="M498.9 161.4L497.76 163.69C485.45 159.17 465.23 154.9 453.49 155.09C452.23 155 452.33 152.63 453.6 152.53C468.32 152.52 483.71 155.89 498.9 161.4L498.9 161.4Z" /><path class="shp15" d="M462.74 157.99C474.28 159.31 485.68 161.99 496.61 165.99L495.46 168.27C485.18 164.55 473.82 161.69 462.45 160.55C460.76 160.32 461 157.88 462.74 157.99L462.74 157.99Z" /><path class="shp15" d="M494.32 170.54L493.17 172.83C483.1 169.22 467.18 165.85 456.34 165.29C454.77 165.11 454.98 162.74 456.56 162.7C469.24 163.18 483.06 166.6 494.32 170.54L494.32 170.54Z" /><path class="shp15" d="M455.42 168.22C464.81 168.29 481.27 171.75 491.83 175.51L490.68 177.81C480.58 174.23 463.95 170.95 455.3 170.74C453.55 170.72 453.59 168.24 455.42 168.22L455.42 168.22Z" /><path class="shp15" d="M463.43 174.16C472.24 175.41 480.94 177.52 489.34 180.48L488.2 182.76C480.18 179.85 471.23 177.71 462.9 176.62C461.29 176.28 461.67 173.81 463.43 174.16L463.43 174.16Z" /><path class="shp15" d="M455.75 178.36C465.45 178.71 478.12 181.56 487.21 184.74L486.06 187.04C477.58 184.11 465.48 181.27 455.71 180.92C453.93 180.82 454.08 178.25 455.75 178.36Z" /><path class="shp16" d="M473.56 171.39C473.56 171.39 493.86 167.1 492.6 178.47C487.36 187.85 473.56 171.39 473.56 171.39L473.56 171.39Z" /><path class="shp17" d="M477.94 184.39C477.94 184.39 494.41 195.05 497.29 184.56C495.94 174.49 477.94 184.39 477.94 184.39L477.94 184.39Z" /><path class="shp18" d="M490.4 170.55C490.4 170.55 509.41 175.21 503.56 184.59C495.16 190.58 490.4 170.55 490.4 170.55L490.4 170.55Z" /><path class="shp19" d="M490.04 189.83C490.04 189.83 506.34 199.14 508.32 188.76C506.34 179.05 490.04 189.83 490.04 189.83L490.04 189.83Z" /><path class="shp20" d="M502.86 174.68C502.86 174.68 520.91 181.48 514.07 189.89C505.14 194.7 502.86 174.68 502.86 174.68L502.86 174.68Z" /><path class="shp21" d="M500.31 194.97C500.31 194.97 515.76 204.42 517.46 194.05C515.46 184.32 500.31 194.97 500.31 194.97L500.31 194.97Z" /><path class="shp22" d="M514.71 180.04C514.71 180.04 530.85 189.95 522.46 196.44C512.79 199.16 514.71 180.04 514.71 180.04L514.71 180.04Z" /><path class="shp23" d="M508.46 199.23C508.46 199.23 523.22 211.2 526.8 201.2C526.33 191.2 508.46 199.23 508.46 199.23L508.46 199.23Z" /><path class="shp24" d="M517.12 204.79C517.12 204.79 529.54 217.6 534.1 208.73C534.87 199.41 517.12 204.79 517.12 204.79L517.12 204.79Z" /><path class="shp25" d="M524.51 187.52C524.51 187.52 540.26 197.42 531.9 203.64C522.34 206.18 524.51 187.52 524.51 187.52L524.51 187.52Z" /><path class="shp26" d="M534.28 194.31C534.28 194.31 548.6 206.07 539.56 211.35C529.78 212.79 534.28 194.31 534.28 194.31L534.28 194.31Z" /><path class="shp27" d="M525.44 212.13C525.44 212.13 537.88 226.01 542.5 216.21C543.31 205.98 525.44 212.13 525.44 212.13L525.44 212.13Z" /><path class="shp28" d="M488.9 140.93C488.9 140.93 511.13 136.66 509.41 149.59C503.42 160.12 488.9 140.93 488.9 140.93L488.9 140.93Z" /><path class="shp29" d="M507.33 139.57C507.33 139.57 527.74 148.44 519.29 157.58C508.67 162.51 507.33 139.57 507.33 139.57L507.33 139.57Z" /><path class="shp30" d="M519 144.78C519 144.78 539.9 155.33 530.71 164.88C519.43 169.75 519 144.78 519 144.78L519 144.78Z" /><path class="shp31" d="M531.09 150.7C531.09 150.7 550.54 162.51 540.96 171.09C529.7 174.98 531.09 150.7 531.09 150.7L531.09 150.7Z" /><path class="shp32" d="M543.67 158.56C543.67 158.56 560.97 172.18 550.39 178.8C538.85 180.85 543.67 158.56 543.67 158.56L543.67 158.56Z" /><path class="shp33" d="M553.23 165.52C553.23 165.52 570 179.94 559.28 186.28C547.74 187.95 553.23 165.52 553.23 165.52L553.23 165.52Z" /><path class="shp34" d="M562.34 172.12C562.34 172.12 579.22 186.32 568.56 192.73C557.03 194.5 562.34 172.12 562.34 172.12L562.34 172.12Z" /><path class="shp35" d="M571.84 180.47C571.84 180.47 586.69 196.65 575.42 201.69C563.88 202.01 571.84 180.47 571.84 180.47L571.84 180.47Z" /><path class="shp36" d="M468.28 154.91C468.28 154.91 481.25 172.79 488.35 162.6C490.9 151.23 468.28 154.91 468.28 154.91L468.28 154.91Z" /><path class="shp37" d="M478.32 146.11C478.32 146.11 499.8 146.02 496.02 158.5C488.65 167.81 478.32 146.11 478.32 146.11L478.32 146.11Z" /><path class="shp38" d="M479.15 167.22C479.15 167.22 499.43 177.79 501.44 165.08C498.65 153.37 479.15 167.22 479.15 167.22L479.15 167.22Z" /><path class="shp28" d="M492.96 147.66C492.96 147.66 515.28 153.37 508.22 164.09C498.23 170.88 492.96 147.66 492.96 147.66L492.96 147.66Z" /><path class="shp39" d="M493.22 171.64C493.22 171.64 513.52 183.02 515.73 169.73C513.08 157.41 493.22 171.64 493.22 171.64L493.22 171.64Z" /><path class="shp36" d="M505.98 178.2C505.98 178.2 525.02 189.19 527.42 176.96C525.18 165.53 505.98 178.2 505.98 178.2L505.98 178.2Z" /><path class="shp40" d="M507.27 151.49C507.27 151.49 530.51 160.38 521.71 171.4C510.23 177.73 507.27 151.49 507.27 151.49L507.27 151.49Z" /><path class="shp41" d="M522.98 159.8C522.98 159.8 543.37 171.65 533.26 180.15C521.4 183.97 522.98 159.8 522.98 159.8L522.98 159.8Z" /><path class="shp32" d="M517.43 184.02C517.43 184.02 534.8 197.28 538.43 185.19C537.46 173.36 517.43 184.02 517.43 184.02L517.43 184.02Z" /><path class="shp42" d="M536.31 167.38C536.31 167.38 555.42 181.26 544.5 188.83C532.31 191.52 536.31 167.38 536.31 167.38L536.31 167.38Z" /><path class="shp37" d="M547.64 174.95C547.64 174.95 564.85 189.35 553.99 195.83C542.25 197.6 547.64 174.95 547.64 174.95L547.64 174.95Z" /><path class="shp43" d="M527.7 190.82C527.7 190.82 543.88 206.58 549.48 195.22C550.22 183.42 527.7 190.82 527.7 190.82L527.7 190.82Z" /></g><g ><path class="shp44" d="M583.24 392.02C583.24 392.02 567.82 409.61 559.91 398.97C557.29 387.32 583.24 392.02 583.24 392.02L583.24 392.02Z" /><path class="shp45" d="M575.71 401.88C575.71 401.88 558.77 420.82 551.59 408.5C549.83 395.31 575.71 401.88 575.71 401.88L575.71 401.88Z" /><path class="shp46" d="M564.59 411.89C564.59 411.89 549.7 427.35 544.1 416.65C543.09 405.41 564.59 411.89 564.59 411.89L564.59 411.89Z" /><path class="shp46" d="M551.78 373.39C551.78 373.39 537.44 389.37 548.52 394.17C559.81 394.35 551.78 373.39 551.78 373.39L551.78 373.39Z" /><path class="shp37" d="M563.59 391.3C563.59 391.3 552.69 410.96 544.27 401.58C540.3 390.43 563.59 391.3 563.59 391.3L563.59 391.3Z" /><path class="shp46" d="M544.39 387.56C544.39 387.56 531.24 404.53 524.53 394.5C522.32 383.42 544.39 387.56 544.39 387.56L544.39 387.56Z" /><path class="shp33" d="M544.35 382.59C544.35 382.59 528.27 397.76 539.15 403.71C550.66 404.93 544.35 382.59 544.35 382.59L544.35 382.59Z" /><path class="shp37" d="M555.4 404.14C555.4 404.14 540.6 420.96 534.18 410.15C532.53 398.53 555.4 404.14 555.4 404.14L555.4 404.14Z" /><path class="shp47" d="M526.2 374.68C526.2 374.68 510.57 388.37 519.97 394.51C530.29 396.18 526.2 374.68 526.2 374.68L526.2 374.68Z" /><path class="shp47" d="M535.65 394.64C535.65 394.64 522.02 409.98 516.26 399.99C514.86 389.29 535.65 394.64 535.65 394.64L535.65 394.64Z" /><path class="shp48" d="M516.74 381.93C516.74 381.93 502.18 394.79 511.82 400.17C522.08 401.44 516.74 381.93 516.74 381.93L516.74 381.93Z" /><path class="shp46" d="M528.97 402.3C528.97 402.3 512.67 416.28 508.12 405.09C508.19 393.8 528.97 402.3 528.97 402.3L528.97 402.3Z" /><path class="shp49" d="M535.53 391.88C535.53 391.88 517.55 405.08 527.8 412.29C539.25 414.87 535.53 391.88 535.53 391.88L535.53 391.88Z" /><path class="shp46" d="M525.2 400.61C525.2 400.61 508.07 413.55 518.02 420.38C529.07 422.72 525.2 400.61 525.2 400.61L525.2 400.61Z" /><path class="shp46" d="M507.57 391.05C507.57 391.05 492.48 406.32 503.32 411.65C514.59 412.37 507.57 391.05 507.57 391.05L507.57 391.05Z" /></g><g ><path class="shp50" d="M603.02 231.87C603.02 231.87 610.61 252.87 597.82 253.11C586.69 248.84 603.02 231.87 603.02 231.87L603.02 231.87Z" /><path class="shp51" d="M607.43 244.35C607.43 244.35 613.42 266.01 600.52 265.32C589.65 260.22 607.43 244.35 607.43 244.35L607.43 244.35Z" /><path class="shp52" d="M611 256.97C611 256.97 615.83 278.62 602.25 277.19C591.12 271.54 611 256.97 611 256.97L611 256.97Z" /><path class="shp53" d="M613.21 269.62C613.21 269.62 615.74 293.2 603.11 290.36C593.17 283.25 613.21 269.62 613.21 269.62L613.21 269.62Z" /><path class="shp54" d="M614.53 282.65C614.53 282.65 616.22 305.15 603.63 302.02C593.9 294.92 614.53 282.65 614.53 282.65L614.53 282.65Z" /><path class="shp55" d="M580.42 220.25C580.42 220.25 595.64 238.67 582.41 242.98C569.33 242.28 580.42 220.25 580.42 220.25L580.42 220.25Z" /><path class="shp56" d="M566.22 236.37C566.22 236.37 573.27 257.75 583.51 250.21C589.65 240.07 566.22 236.37 566.22 236.37L566.22 236.37Z" /><path class="shp28" d="M590.08 234.22C590.08 234.22 600.61 254.36 587.71 256.25C575.86 253.38 590.08 234.22 590.08 234.22L590.08 234.22Z" /><path class="shp57" d="M566.2 240.26C566.2 240.26 578.96 256.88 567.33 259.66C555.97 258.21 566.2 240.26 566.2 240.26L566.2 240.26Z" /><path class="shp58" d="M553 252.58C553 252.58 558.4 271.17 566.73 264.75C571.79 256.03 553 252.58 553 252.58L553 252.58Z" /><path class="shp59" d="M572.64 251.87C572.64 251.87 580.93 270.21 570.2 270.94C560.45 267.59 572.64 251.87 572.64 251.87L572.64 251.87Z" /><path class="shp60" d="M570.49 248.49C570.49 248.49 576.45 270.03 586.77 262.99C593.18 253.18 570.49 248.49 570.49 248.49L570.49 248.49Z" /><path class="shp61" d="M596.53 248.41C596.53 248.41 603.39 271.33 589.72 270.85C578.08 265.62 596.53 248.41 596.53 248.41L596.53 248.41Z" /><path class="shp62" d="M556.57 262.7C556.57 262.7 560.09 280.71 569.26 275.65C575.34 268.06 556.57 262.7 556.57 262.7L556.57 262.7Z" /><path class="shp63" d="M575.84 264.23C575.84 264.23 582.82 281.54 571.86 281.58C562.21 277.94 575.84 264.23 575.84 264.23L575.84 264.23Z" /><path class="shp64" d="M574.78 259.78C574.78 259.78 577.03 282.3 588.71 277.09C596.93 268.44 574.78 259.78 574.78 259.78L574.78 259.78Z" /><path class="shp65" d="M600.83 262.22C600.83 262.22 604.8 286.44 592.06 284.4C581.73 277.75 600.83 262.22 600.83 262.22L600.83 262.22Z" /><path class="shp66" d="M558.62 271.85C558.62 271.85 561.13 291.58 570.59 286.65C577.11 278.8 558.62 271.85 558.62 271.85L558.62 271.85Z" /><path class="shp67" d="M578.17 276.39C578.17 276.39 583.35 294.54 572.51 293.65C563.34 289.15 578.17 276.39 578.17 276.39L578.17 276.39Z" /><path class="shp68" d="M577.45 272.73C577.45 272.73 578.13 295.22 589.97 290.86C598.65 282.84 577.45 272.73 577.45 272.73L577.45 272.73Z" /><path class="shp69" d="M603.09 277.2C603.09 277.2 603.48 301.09 591.19 297.06C581.95 288.99 603.09 277.2 603.09 277.2L603.09 277.2Z" /><path class="shp70" d="M615.82 294.52C615.82 294.52 615.25 317.39 603.26 313.01C594.45 304.9 615.82 294.52 615.82 294.52L615.82 294.52Z" /><path class="shp71" d="M560.74 282.55C560.74 282.55 560.17 301.56 570.62 298.55C578.53 292.28 560.74 282.55 560.74 282.55L560.74 282.55Z" /><path class="shp72" d="M580.52 289.45C580.52 289.45 582.86 309.3 571.35 306.46C562.28 300.13 580.52 289.45 580.52 289.45L580.52 289.45Z" /><path class="shp73" d="M578.28 284.53C578.28 284.53 577.21 307.32 589.25 303.89C598.46 296.49 578.28 284.53 578.28 284.53L578.28 284.53Z" /><path class="shp74" d="M604.65 290.95C604.65 290.95 602.87 313.76 591.41 308.72C583.25 300.13 604.65 290.95 604.65 290.95L604.65 290.95Z" /><path class="shp75" d="M561.24 293.29C561.24 293.29 558.61 312.36 569.3 310.28C577.83 304.69 561.24 293.29 561.24 293.29L561.24 293.29Z" /><path class="shp76" d="M580.02 301.46C580.02 301.46 580.91 321.32 570.95 317.77C563.35 310.92 580.02 301.46 580.02 301.46L580.02 301.46Z" /><path class="shp77" d="M560.64 303.88C560.64 303.88 557.59 322.27 568.42 319.98C577.14 314.38 560.64 303.88 560.64 303.88L560.64 303.88Z" /><path class="shp46" d="M615.71 307.99C615.71 307.99 612.55 329.23 601.78 323.76C594.44 315.18 615.71 307.99 615.71 307.99L615.71 307.99Z" /></g><g ><path class="shp78" d="M574.8 352.2C574.8 352.2 586.82 352.35 594.84 349.8C605.36 346.93 609.56 337.2 609.56 337.2C609.56 337.2 611.1 339.43 611 342.6C610.91 345.48 608.85 352.12 603.68 359.16C598.32 367.83 594.68 378.05 590.36 384.76C586.9 390.8 579.6 396.27 579.6 396.27C579.6 396.27 556.39 393.49 554.14 393.01C551.15 392.56 530.64 387.83 526.03 387.57C521.43 387.32 510.98 387.99 510.98 387.99C510.98 387.99 514.66 381.21 516.44 379.9C519.99 376.96 524.28 375.76 528.72 371.47C531.15 368.8 535.24 364.08 537.54 361.53C540.42 358.78 542.59 356.07 545.73 354.31C548.28 352.64 574.8 352.2 574.8 352.2L574.8 352.2Z" /><path class="shp7" d="M522.33 376.51C522.33 376.51 530.86 376.72 534.97 377.25C539.51 377.97 549.27 379.15 557.11 379.95C564.15 380.72 570.11 381.18 578.05 381.26L592.48 380.6C592.02 381.46 590.73 383.76 589.46 385.6C587.92 387.95 586.72 389.51 583.91 392.13C581.6 394.31 580.18 395.44 579.52 395.95C577.79 395.76 566.88 394.45 562.47 393.84C555.22 393.13 551.54 392.16 543.19 390.39C538.83 389.5 528.71 387.38 526.08 387.23C523.11 386.99 512.56 387.55 511.46 387.64C512.15 386.5 512.98 385.13 514.14 383.19C515.77 380.42 517.04 379.71 519.34 378.17C520.25 377.58 522.26 376.54 522.33 376.51L522.33 376.51Z" /><path class="shp1" d="M601.06 363.06C600.39 364.31 598.62 367.89 597.03 371.08C595.01 375.46 593.89 377.85 592.41 380.72C589.2 380.96 586.06 381.06 578.05 381.31C570.11 381.23 564.15 380.77 557.11 380C549.27 379.2 539.51 378.03 534.97 377.31C530.86 376.79 522.2 376.58 522.2 376.58C522.2 376.58 526.05 374.25 527.84 372.72C530.06 370.66 531.08 369.19 532.89 367.28C535.24 367.09 538.52 367.07 542.1 366.82C548.37 366.46 558 367.12 563.37 367.12C568.74 367.12 577.82 366.94 585.48 366.04C595.87 365.3 598.37 363.59 601.06 363.06L601.06 363.06Z" /><path class="shp79" d="M609.72 339.36C608.12 341.82 606.52 344.33 603.96 346.42C599.61 349.52 598.49 350.14 590.09 352.11C582.53 353.31 580.82 352.98 570.73 353.29C560.9 353.59 558.06 353.82 551.7 354.33C548.62 354.58 547.59 354.84 546.27 355.05" /></g></g><g ><path class="shp80" d="M408.87 397.22C407.47 397.23 405.98 397.43 404.53 397.68C394.9 399.35 387.64 405 363.64 410.67C355.37 412.94 346.92 413.68 337.16 413.19C336.44 412.99 335.86 412.18 335.85 411.33L333.5 409.99C332.47 411.58 333.09 413.2 333.46 414.19C333.77 415.01 334.25 415.93 334.97 416.5C352.32 428.85 352.77 431.51 362.75 440.93C368.26 446.35 369.91 448.06 388.24 445.16C391.85 451.02 392.63 454.07 403.06 451.04L404.81 455.44C406.43 458.46 408.65 458.51 414.29 457.31C428.89 454.17 433.12 450.61 449.79 450.24C466.47 450.61 470.7 454.17 485.3 457.31C490.94 458.51 493.16 458.46 494.78 455.44L496.53 451.04C506.96 454.07 507.74 451.02 511.35 445.16C529.68 448.06 531.34 446.35 536.84 440.93C546.82 431.51 547.27 428.85 564.62 416.5C565.34 415.93 565.82 415.01 566.12 414.19C566.49 413.2 567.13 411.58 566.09 409.99L563.74 411.33C563.73 412.18 563.15 412.99 562.43 413.19C552.67 413.68 544.22 412.94 535.95 410.67C511.95 405 504.69 399.35 495.06 397.68C491.2 397 486.98 396.75 485.18 399.25C483.1 401.78 481.38 406.58 478.41 411.06C472.84 409.29 468.41 407.66 463.86 406.69C457.77 405.41 453.38 405.49 449.79 405.49C446.26 405.49 441.82 405.41 435.73 406.69C431.17 407.66 426.75 409.29 421.18 411.06C418.21 406.58 416.49 401.78 414.41 399.25C413.29 397.69 411.21 397.2 408.87 397.22L408.87 397.22Z" /><path class="shp81" d="M407.1 409.16C408.6 411.83 409.21 413.95 409.79 416.27" /><path class="shp1" d="M348.92 426.89C355.05 426.23 356.84 426.06 361.91 425.22C366.67 424.35 370.6 423.48 374.88 422.32C376.17 424.25 377.38 426.1 378.72 428.01C379.92 429.93 380.46 430.63 382.32 434.59C378.47 434.94 375.29 435.52 371.24 436.04C367.76 436.49 363.77 437.04 359.7 437.54C358.13 436 356.94 434.75 355.24 432.99C353.16 430.89 351.58 429.26 348.92 426.89L348.92 426.89Z" /><path class="shp1" d="M391.96 425.58C385.78 426.89 385.02 427.01 380.38 428.51C382.74 432.61 384.06 436.48 385.7 439.89C390.45 438.81 392.87 438.31 397.47 437.36L395.14 432.35L391.96 425.58Z" /><path class="shp7" d="M359.68 437.52C363.45 437.08 367.16 436.56 371 436.06C375.49 435.45 378.51 434.95 382.64 434.54C383.49 436.52 383.92 437.58 384.94 439.81C385.78 441.67 386.9 443.43 387.74 444.93C385.01 445.32 382.92 445.64 379.91 445.95C376.67 446.23 375.5 446.33 372.87 446.16C370.29 445.93 368.41 445.42 366.11 443.63C364.63 442.43 362.26 440.03 359.68 437.52L359.68 437.52Z" /><path class="shp7" d="M385.7 439.89C389.8 438.94 393.48 438.16 397.81 437.29C398.85 439.78 399.25 440.91 400.13 443.47C401.04 446.05 401.81 448.39 402.65 450.84C400.59 451.4 399.83 451.57 397.53 451.87C395.67 452 393.93 451.81 392.59 450.73C391.51 449.95 389.98 447.6 388.54 445.08C387.45 443.13 386.7 441.95 385.7 439.89L385.7 439.89Z" /><path class="shp1" d="M447.42 421.1C443.81 421.29 440.21 421.75 439.03 422.03C432.07 423.73 427.92 425.18 423.16 426.78C414.74 429.59 412.09 430.89 407.35 432.33C403.6 433.48 400.94 434.1 397.53 434.89C399.17 438.78 400.4 442.32 401.87 446.56C406.16 445.83 409.59 445.06 413.86 443.78C418.65 442.2 422.86 440.86 428.02 439.3C432.48 437.94 435.65 437.18 441.59 436.18C443.96 435.95 445.69 435.81 447.48 435.75L447.48 435.76C448.34 435.73 449.07 435.72 449.79 435.72C450.51 435.72 451.25 435.73 452.11 435.76L452.11 435.75C453.9 435.82 455.63 435.95 458 436.18C463.94 437.18 467.11 437.94 471.57 439.3C476.73 440.86 480.94 442.2 485.73 443.78C490 445.06 493.43 445.83 497.72 446.56C499.19 442.32 500.42 438.78 502.06 434.89C498.65 434.1 495.99 433.48 492.24 432.33C487.5 430.89 484.85 429.59 476.43 426.78C471.67 425.18 467.52 423.73 460.56 422.03C459.38 421.75 455.78 421.29 452.17 421.1C449.96 421 449.62 421 447.42 421.1L447.42 421.1Z" /><path class="shp7" d="M447.78 435.71L447.78 435.72C443.83 435.79 441.05 436.11 435.15 437.38C425.38 439.65 416.85 442.99 411.23 444.53C407.93 445.37 405.07 445.96 401.88 446.59C402.93 449.89 404.07 452.91 405.27 455.64C406.53 457.7 408.32 457.93 410.28 457.7C413.41 457.22 415.98 456.67 419.14 455.85C425.43 454.16 430.55 452.41 436.56 451.18C441.36 450.31 445.16 450.06 449.79 449.93C454.42 450.06 458.22 450.31 463.03 451.18C469.03 452.41 474.16 454.16 480.45 455.85C483.61 456.67 486.18 457.22 489.31 457.7C491.27 457.93 493.06 457.7 494.32 455.64C495.52 452.91 496.66 449.89 497.71 446.59C494.52 445.96 491.66 445.37 488.35 444.53C482.73 442.99 474.21 439.65 464.44 437.38C458.54 436.11 455.76 435.79 451.81 435.72L451.81 435.71C451.04 435.71 450.47 435.72 449.79 435.72C449.12 435.72 448.55 435.71 447.78 435.71Z" /><path class="shp81" d="M492.44 409.31C491.26 411.78 490.33 414.05 489.69 416.27" /><path class="shp1" d="M550.67 426.89C544.54 426.23 542.75 426.06 537.68 425.22C532.92 424.35 528.99 423.48 524.71 422.32C523.42 424.25 522.21 426.1 520.87 428.01C519.66 429.93 519.13 430.63 517.26 434.59C521.12 434.94 524.3 435.52 528.35 436.04C531.83 436.49 535.81 437.04 539.89 437.54C541.46 436 542.65 434.75 544.35 432.99C546.43 430.89 548.01 429.26 550.67 426.89L550.67 426.89Z" /><path class="shp1" d="M507.63 425.58C513.81 426.89 514.57 427.01 519.21 428.51C516.85 432.61 515.53 436.48 513.89 439.89C509.14 438.81 506.72 438.31 502.11 437.36L504.45 432.35L507.63 425.58Z" /><path class="shp7" d="M539.91 437.52C536.14 437.08 532.43 436.56 528.59 436.06C524.1 435.45 521.08 434.95 516.95 434.54C516.1 436.52 515.66 437.58 514.65 439.81C513.81 441.67 512.69 443.43 511.85 444.93C514.58 445.32 516.67 445.64 519.67 445.95C522.92 446.23 524.09 446.33 526.71 446.16C529.29 445.93 531.18 445.42 533.48 443.63C534.96 442.43 537.32 440.03 539.91 437.52L539.91 437.52Z" /><path class="shp7" d="M513.89 439.89C509.79 438.94 506.1 438.16 501.77 437.29C500.74 439.78 500.34 440.91 499.46 443.47C498.54 446.05 497.78 448.39 496.94 450.84C498.99 451.4 499.76 451.57 502.06 451.87C503.92 452 505.66 451.81 507 450.73C508.08 449.95 509.61 447.6 511.05 445.08C512.14 443.13 512.89 441.95 513.89 439.89L513.89 439.89Z" /><path class="shp82" d="M389.28 419.89C390.27 422.62 392.4 426.1 393.8 429.04C394.39 430.17 396.31 434.19 397.7 437.86" /><path class="shp82" d="M371.62 417.01C373.91 420.58 376.05 423.86 378.5 427.37C380.26 429.94 381.37 432.44 382.5 435.03" /><path class="shp82" d="M527.92 417.38C525.63 420.95 523.54 423.86 521.09 427.37C519.33 429.94 518.22 432.44 517.09 435.03" /><path class="shp82" d="M510.29 419.63C509.31 422.36 507.17 426.11 505.78 429.05C505.18 430.18 503.26 434.19 501.87 437.86" /><path class="shp81" d="M334.61 410.61C334.23 411.18 334.48 412.06 334.77 412.59C335.02 413.04 335.84 414.11 336.94 414.26C345.31 414.59 350.69 414.48 359.33 412.82C368.46 410.67 376.69 408.63 385.92 405.18C391.36 403.22 397.83 400.44 401.72 399.38C406.6 398.07 411.38 397.24 413.08 399.32C414.3 401.23 410.25 403.47 406.15 404.83C401.39 406.28 396.91 407.02 392.12 407.65C387.07 408.57 381.7 409.58 377.18 410.96C374.35 411.87 371.12 414.17 371.46 416.19C372.05 418.82 375.8 418.07 379.14 416.96L401.3 408.5C403.83 407.57 406.54 407.88 407.11 409.24C407.61 410.63 407.22 412.55 403.81 413.24L393.19 415.03C389.43 415.71 389.01 418.45 389.29 419.44C389.61 420.46 391.14 421.9 395.67 420.82C406.08 418.27 413.34 414.65 420.07 412.58C436.46 407.02 439.5 406.6 449.78 406.56C459.69 406.58 462.83 406.92 479.52 412.58C486.24 414.65 493.5 418.27 503.91 420.82C508.45 421.9 509.93 420.3 510.24 419.28C510.53 418.29 510 416.14 506.39 415.03L495.78 413.24C492.37 412.55 491.98 410.63 492.47 409.24C493.05 407.88 495.76 407.57 498.28 408.5L520.45 416.96C523.79 418.07 527.7 418.92 528.29 416.29C528.63 414.28 526.03 412.03 522.41 410.96C517.89 409.58 512.52 408.57 507.47 407.65C502.68 407.02 498.2 406.28 493.44 404.83C489.34 403.47 485.28 401.28 486.45 399.32C488.42 397.19 493.3 398.02 497.87 399.38C501.76 400.44 508.23 403.22 513.67 405.18C522.9 408.63 531.12 410.67 540.26 412.82C548.9 414.48 554.28 414.59 562.65 414.26C563.75 414.11 564.57 413.04 564.82 412.59C565.11 412.06 565.36 411.18 564.98 410.61" /></g></g></svg>