<svg version="1.2" baseProfile="tiny-ps" xmlns="http://www.w3.org/2000/svg" viewBox="0 0 900 600" width="900" height="600"><title></title><defs><clipPath clipPathUnits="userSpaceOnUse" id="cp1"><path d="M0 0L450 0L450 300L0 300L0 0Z" /></clipPath></defs><style>tspan { white-space:pre }.shp0 { fill: #00247d } .shp1 { fill: #ffc500;stroke: #000000;stroke-width: 1.012 } .shp2 { fill: #d61517 } .shp3 { fill: #fd9f0a;stroke: #000000;stroke-width: 1.012 } .shp4 { fill: #000000 } .shp5 { fill: #ffc500;stroke: #000000;stroke-linecap:round;stroke-width: 0.337 } .shp6 { fill: #ffc500;stroke: #000000;stroke-linecap:round;stroke-width: 0.506 } .shp7 { fill: #c39100;stroke: #000000;stroke-width: 1.012 } .shp8 { opacity: 0.749;fill: none;stroke: #000000;stroke-width: 1.012 } .shp9 { opacity: 0.749;fill: none;stroke: #000000;stroke-linecap:round;stroke-width: 1.012 } .shp10 { fill: none } .shp11 { opacity: 0.749;fill: none;stroke: #000000;stroke-linecap:square;stroke-width: 0.506 } .shp12 { opacity: 0.749;fill: none;stroke: #000000;stroke-width: 0.506 } .shp13 { opacity: 0.749;fill: none;stroke: #000000;stroke-linecap:square;stroke-width: 0.759 } .shp14 { fill: #000000;stroke: #000000;stroke-width: 1.012 } .shp15 { fill: #000000;stroke: #000000;stroke-linecap:round;stroke-width: 1.012 } .shp16 { fill: #c39100;stroke: #000000;stroke-linecap:round;stroke-width: 1.012 } .shp17 { opacity: 0.749;fill: none;stroke: #000000;stroke-width: 0.759 } .shp18 { fill: #ffc500;stroke: #000000;stroke-linecap:round;stroke-width: 0.253 } .shp19 { fill: #000000;stroke: #ffffff;stroke-width: 51.992 } .shp20 { fill: none;stroke: #ffffff;stroke-width: 86.653 } .shp21 { fill: none;stroke: #cf142b;stroke-width: 51.992 } </style><path class="shp0" d="M0 0L900 0L900 600L0 600L0 0Z" /><g ><g ><path fill-rule="evenodd" class="shp1" d="M592.99 350.75C589.22 352.64 585.44 354.53 581.67 356.41C581.06 356.72 579.84 357.64 580.31 359.07C584.75 372.61 592.76 379.95 600.92 386.47C609.21 393.1 618.66 396.87 625.17 399.37C625.61 398.07 626.31 396.76 627 395.51C627 395.51 626.99 395.49 627 395.48C627.06 395.37 627.13 395.28 627.19 395.17C627.24 395.08 627.27 395 627.32 394.91C627.32 394.9 627.34 394.89 627.35 394.88C627.36 394.86 627.37 394.84 627.38 394.82C627.4 394.78 627.42 394.73 627.44 394.69C627.47 394.63 627.5 394.56 627.54 394.5C627.64 394.31 627.75 394.15 627.85 393.97C628.02 393.66 628.18 393.34 628.33 393.05C629.67 390.67 632.92 390.52 635.38 390.49C638.4 390.09 641.22 392.36 644.2 391.12C647.06 391.03 648.45 387.81 645.43 386.5C641.42 384.65 636.85 384.62 632.69 383.22C619.36 379.68 606.72 372.23 598.74 360.77C596.5 357.63 594.58 354.26 592.99 350.75Z" /><path fill-rule="evenodd" class="shp2" d="M675 382.13C665.22 375.81 634.72 373.69 629.69 352.06C605.15 358.41 603.43 340.98 579.58 332.03C606.77 296.55 604.18 259.64 588.19 234.45L602.58 217.22C628.93 218.4 628.25 190.57 654.24 201.53C654.24 191.69 659.49 183.57 675 183.57C690.51 183.57 695.76 191.69 695.76 201.53C721.75 190.57 721.07 218.4 747.42 217.22L761.81 234.45C745.82 259.64 743.23 296.55 770.42 332.03C746.57 340.98 744.85 358.41 720.31 352.06C715.28 373.69 684.78 375.81 675 382.13Z" /><path fill-rule="evenodd" class="shp1" d="M693 187.07C696 190.08 697.49 193.93 698.03 198.04C703.37 196.29 707.91 196.09 711.75 197.09C716.35 198.3 719.84 201.02 723.1 203.8C729.61 209.35 735.02 215.25 747.31 214.7L748.57 214.64L749.36 215.59L763.75 232.81L764.95 234.24L763.94 235.82C748.48 260.17 745.82 295.74 772.44 330.49L774.49 333.21L771.3 334.41C759.87 338.7 753.87 344.96 747.12 349.84C740.82 354.39 733.4 357.2 722.05 354.89C718.62 365.33 709.55 371.28 700.43 375.16C690.65 379.31 680.37 381.68 676.38 384.26L674.98 385.15L673.62 384.26C669.63 381.68 659.35 379.31 649.57 375.16C640.45 371.28 631.38 365.33 627.95 354.89C616.6 357.2 609.18 354.39 602.88 349.84C596.13 344.96 590.13 338.7 578.7 334.41L575.51 333.21L577.56 330.49C604.18 295.74 601.52 260.17 586.06 235.82L585.05 234.24L586.25 232.81L600.64 215.59L601.43 214.64L602.69 214.7C614.98 215.25 620.39 209.35 626.9 203.8C630.16 201.02 633.65 198.3 638.25 197.09C642.09 196.09 646.63 196.29 651.97 198.04C652.51 193.93 654 190.08 657 187.07C660.83 183.23 666.79 181.04 674.98 181.04C683.18 181.04 689.17 183.23 693 187.07ZM660.6 190.65C657.93 193.32 656.78 197.05 656.78 201.52L656.78 205.34L653.27 203.86C647.12 201.27 642.95 201.07 639.55 201.96C636.15 202.85 633.31 204.96 630.19 207.62C624.17 212.76 616.97 219.8 603.8 219.7L591.22 234.77C606.47 260.14 608.6 296.31 583.41 331.03C593.85 335.61 600.2 341.64 605.85 345.73C612.06 350.21 617.34 352.65 629.05 349.62L631.55 348.95L632.15 351.48C634.42 361.22 642.38 366.61 651.56 370.51C660.11 374.14 669.13 376.03 675.02 379.3C680.91 376.04 689.9 374.14 698.44 370.51C707.62 366.61 715.58 361.22 717.85 351.48L718.45 348.95L720.95 349.62C732.66 352.65 737.94 350.21 744.15 345.73C749.8 341.64 756.15 335.61 766.59 331.03C741.4 296.31 743.53 260.14 758.78 234.77L746.2 219.7C733.03 219.8 725.83 212.76 719.81 207.62C716.69 204.96 713.85 202.85 710.45 201.96C707.05 201.07 702.88 201.27 696.73 203.86L693.22 205.34L693.22 201.52C693.22 197.05 692.07 193.32 689.4 190.65C686.73 187.97 682.3 186.09 674.98 186.09C667.67 186.09 663.27 187.97 660.6 190.65Z" /><path fill-rule="evenodd" class="shp3" d="M647.2 389.7C645.69 390.77 644.02 390.83 642.25 390.83C640.92 390.83 638.8 390.59 637.54 390.59C636.28 390.59 634.06 390.24 631.53 390.9C630.38 391.26 629.06 391.67 628.43 392.79C628.03 393.48 628.92 393.83 629.29 394.29C632.24 396.74 635.92 398.07 639.55 399.13C641.39 399.65 643.24 400.08 645.11 400.45C646.73 398.61 646.98 396.04 647.13 393.7C647.19 392.36 647.2 391.03 647.2 389.7Z" /><path fill-rule="evenodd" class="shp3" d="M595.77 349.81C594.93 349.85 594.02 350.16 592.99 350.75C593.02 350.84 593.07 350.92 593.11 351.01C593.12 351.03 593.13 351.05 593.14 351.07C593.18 351.14 593.2 351.21 593.24 351.29C593.26 351.33 593.28 351.38 593.3 351.42C593.32 351.45 593.32 351.51 593.33 351.54C594.29 353.43 596.12 356.55 598.01 359.7C598.05 359.76 598.07 359.83 598.11 359.89C598.17 359.99 598.24 360.08 598.3 360.17C598.33 360.22 598.39 360.28 598.42 360.33C598.44 360.35 598.44 360.37 598.46 360.39C598.48 360.43 598.5 360.46 598.52 360.49C598.59 360.59 598.67 360.68 598.74 360.77C600.58 363.42 602.65 365.86 604.94 368.08L609.68 363.3C602.43 355.72 599.94 349.6 595.77 349.81Z" /><path fill-rule="evenodd" class="shp1" d="M757.01 350.75C760.78 352.64 764.56 354.53 768.33 356.41C768.94 356.72 770.16 357.64 769.69 359.07C765.25 372.61 757.24 379.95 749.08 386.47C740.79 393.1 731.34 396.87 724.83 399.37C724.39 398.07 723.69 396.76 723 395.51C723 395.51 723.01 395.49 723 395.48C722.94 395.37 722.87 395.28 722.81 395.17C722.76 395.08 722.73 395 722.68 394.91C722.68 394.9 722.66 394.89 722.65 394.88C722.64 394.86 722.63 394.84 722.62 394.82C722.6 394.78 722.58 394.73 722.56 394.69C722.53 394.63 722.5 394.56 722.46 394.5C722.36 394.31 722.25 394.15 722.15 393.97C721.98 393.66 721.82 393.34 721.67 393.05C720.33 390.67 717.08 390.52 714.62 390.49C711.6 390.09 708.78 392.36 705.8 391.12C702.94 391.03 701.55 387.81 704.57 386.5C708.58 384.65 713.15 384.62 717.31 383.22C730.64 379.68 743.28 372.23 751.26 360.77C753.5 357.63 755.42 354.26 757.01 350.75Z" /><path fill-rule="evenodd" class="shp3" d="M702.8 389.7C704.31 390.77 705.98 390.83 707.75 390.83C709.08 390.83 711.2 390.59 712.46 390.59C713.72 390.59 715.94 390.24 718.47 390.9C719.62 391.26 720.94 391.67 721.57 392.79C721.97 393.48 721.08 393.83 720.71 394.29C717.76 396.74 714.08 398.07 710.45 399.13C708.61 399.65 706.76 400.08 704.89 400.45C703.27 398.61 703.02 396.04 702.87 393.7C702.81 392.36 702.8 391.03 702.8 389.7Z" /><path fill-rule="evenodd" class="shp1" d="M675 418.49C665.88 418.49 623.31 416.26 623.31 406.25C623.31 402.84 626.88 395.26 628.3 393.32C637.59 403.29 669.29 402.76 675 402.76C681.13 402.76 712.41 403.29 721.7 393.32C723.12 395.26 726.69 402.84 726.69 406.25C726.69 416.26 684.01 418.49 675 418.49Z" /><path fill-rule="evenodd" class="shp3" d="M754.23 349.81C755.07 349.85 755.98 350.16 757.01 350.75C756.98 350.84 756.93 350.92 756.89 351.01C756.88 351.03 756.87 351.05 756.86 351.07C756.82 351.14 756.8 351.21 756.76 351.29C756.74 351.33 756.72 351.38 756.7 351.42C756.68 351.45 756.68 351.51 756.67 351.54C755.71 353.43 753.88 356.55 751.99 359.7C751.95 359.76 751.93 359.83 751.89 359.89C751.83 359.99 751.76 360.08 751.7 360.17C751.67 360.22 751.61 360.28 751.58 360.33C751.56 360.35 751.56 360.37 751.54 360.39C751.52 360.43 751.5 360.46 751.48 360.49C751.41 360.59 751.33 360.68 751.26 360.77C749.42 363.42 747.35 365.86 745.06 368.08L740.32 363.3C747.57 355.72 750.06 349.6 754.23 349.81Z" /><path fill-rule="evenodd" class="shp4" d="M591.9 354.33L593.14 356.66L586.66 363.06L595.62 361.32L596.85 363.65L587.21 368.77L586.4 367.24L594.37 363.02L585.14 364.85L584.3 363.28L591.02 356.7L583.05 360.93L582.26 359.44L591.9 354.33ZM600.2 367.01C601.25 368.25 601.69 369.55 601.51 370.93C601.34 372.3 600.58 373.57 599.22 374.72C597.86 375.88 596.49 376.44 595.11 376.4C593.72 376.35 592.5 375.71 591.45 374.48C590.4 373.24 589.95 371.94 590.13 370.57C590.3 369.19 591.06 367.93 592.42 366.76C593.78 365.6 595.15 365.05 596.54 365.09C597.92 365.14 599.14 365.78 600.2 367.01ZM599 368.04C598.31 367.23 597.49 366.84 596.54 366.86C595.6 366.88 594.62 367.32 593.62 368.17C592.63 369.02 592.05 369.91 591.87 370.85C591.7 371.78 591.96 372.65 592.65 373.46C593.34 374.26 594.15 374.65 595.1 374.63C596.05 374.6 597.02 374.17 598.02 373.32C599.02 372.46 599.6 371.57 599.77 370.64C599.94 369.71 599.68 368.85 599 368.04ZM603.37 371L604.86 372.21L603.66 381.75L608.81 375.41L610.08 376.45L610.1 376.42L617.36 380.88L616.53 382.25L613.67 380.49L608.8 388.43L607.26 387.48L612.13 379.55L609.26 377.78L609.6 377.22L603.3 384.99L601.81 383.79L602.99 374.23L597.84 380.57L596.49 379.47L603.37 371ZM617.94 381.06L619.56 381.9L614.53 391.58L612.91 390.74L617.94 381.06ZM626.87 388.73L625.28 388.05C625.5 387.47 625.47 386.93 625.22 386.44C624.97 385.95 624.52 385.56 623.87 385.27C623.32 385.03 622.82 384.96 622.37 385.07C621.91 385.17 621.6 385.41 621.44 385.78C621.27 386.16 621.29 386.54 621.48 386.92C621.68 387.29 622.21 387.81 623.07 388.49C624.38 389.5 625.16 390.32 625.42 390.96C625.68 391.59 625.64 392.29 625.3 393.07C624.89 394.01 624.2 394.62 623.25 394.88C622.3 395.14 621.23 395.02 620.06 394.5C618.82 393.96 617.98 393.24 617.55 392.34C617.12 391.44 617.13 390.42 617.57 389.27L619.19 389.98C618.95 390.65 618.97 391.26 619.25 391.81C619.54 392.36 620.06 392.8 620.82 393.13C621.39 393.38 621.92 393.45 622.4 393.33C622.89 393.21 623.22 392.95 623.39 392.55C623.46 392.39 623.49 392.19 623.47 391.95C623.46 391.7 623.41 391.47 623.31 391.25C623.16 390.9 622.67 390.41 621.87 389.8C621.69 389.66 621.56 389.56 621.47 389.49C620.48 388.71 619.86 387.99 619.59 387.34C619.33 386.68 619.37 385.96 619.72 385.17C620.08 384.34 620.71 383.81 621.62 383.59C622.52 383.36 623.54 383.49 624.66 383.98C625.75 384.46 626.5 385.13 626.89 385.99C627.29 386.84 627.29 387.76 626.87 388.73Z" /><path fill-rule="evenodd" class="shp4" d="M633.38 399.25L635.06 399.98L630.7 409.98L629.02 409.25L633.38 399.25ZM639.28 401.45L641.16 401.86L644.37 410.93L646.12 402.96L647.84 403.33L645.5 413.99L643.63 413.58L640.39 404.51L638.64 412.48L636.94 412.11L639.28 401.45ZM660.48 407.95L658.76 407.79C658.78 407.17 658.59 406.67 658.2 406.27C657.81 405.88 657.26 405.65 656.55 405.58C655.96 405.53 655.46 405.62 655.06 405.86C654.66 406.1 654.44 406.42 654.4 406.83C654.36 407.24 654.49 407.59 654.79 407.89C655.1 408.19 655.76 408.52 656.79 408.89C658.35 409.45 659.35 409.99 659.79 410.51C660.23 411.03 660.41 411.71 660.33 412.56C660.23 413.58 659.77 414.37 658.94 414.92C658.12 415.46 657.07 415.67 655.79 415.55C654.44 415.41 653.42 414.99 652.73 414.26C652.05 413.54 651.74 412.57 651.81 411.34L653.56 411.52C653.54 412.22 653.75 412.8 654.19 413.23C654.63 413.67 655.27 413.92 656.09 414C656.71 414.06 657.23 413.96 657.65 413.7C658.08 413.44 658.31 413.09 658.36 412.65C658.37 412.48 658.34 412.28 658.24 412.06C658.16 411.82 658.04 411.62 657.88 411.45C657.62 411.16 657.01 410.85 656.05 410.51C655.84 410.43 655.69 410.38 655.58 410.34C654.4 409.91 653.58 409.42 653.13 408.88C652.67 408.33 652.49 407.63 652.57 406.78C652.66 405.88 653.1 405.18 653.89 404.68C654.68 404.19 655.69 404 656.9 404.12C658.09 404.23 659 404.64 659.64 405.33C660.29 406.02 660.57 406.89 660.48 407.95ZM666.49 405.04L668.31 405.11L667.93 416.01L666.11 415.95L666.49 405.04ZM683.77 408.42L681.97 408.46C681.82 407.81 681.5 407.31 681 406.96C680.51 406.61 679.9 406.43 679.17 406.45C678.08 406.47 677.24 406.85 676.65 407.58C676.06 408.32 675.78 409.34 675.8 410.65C675.83 411.94 676.15 412.95 676.77 413.68C677.39 414.41 678.23 414.76 679.28 414.74C680.17 414.73 680.89 414.44 681.44 413.87C681.98 413.31 682.27 412.57 682.28 411.64L679.3 411.69L679.27 410.19L683.93 410.1L684.04 415.99L682.84 416.01L682.51 414.64C682.11 415.2 681.63 415.62 681.06 415.91C680.49 416.2 679.84 416.36 679.11 416.37C677.6 416.4 676.37 415.9 675.41 414.86C674.46 413.82 673.97 412.44 673.94 410.73C673.91 408.98 674.35 407.58 675.27 406.52C676.2 405.46 677.45 404.92 679.02 404.89C680.34 404.86 681.41 405.16 682.25 405.78C683.09 406.4 683.59 407.28 683.77 408.42ZM689.28 404.78L691.2 404.59L697.08 412.19L696.25 404.07L698 403.89L699.11 414.75L697.2 414.94L691.29 407.34L692.12 415.46L690.39 415.64L689.28 404.78ZM703.51 402.96L705.3 402.62L707.38 413.33L705.59 413.68L703.51 402.96ZM712.76 400.73L714.69 400.03L722.16 408.93L720.34 409.59L718.46 407.27L714.47 408.72L714.53 411.69L712.74 412.34L712.76 400.73ZM714.34 402.11L714.42 407.12L717.48 406.01L714.34 402.11Z" /><path fill-rule="evenodd" class="shp4" d="M735.36 383.44L733.76 384.26C733.37 383.71 732.88 383.39 732.29 383.29C731.69 383.18 731.05 383.3 730.35 383.66C729.43 384.13 728.87 384.81 728.67 385.7C728.49 386.59 728.69 387.61 729.27 388.75C729.86 389.91 730.58 390.69 731.43 391.1C732.29 391.5 733.16 391.47 734.06 391.02C734.77 390.65 735.26 390.15 735.51 389.49C735.76 388.83 735.73 388.14 735.44 387.42L737.02 386.62C737.54 387.74 737.59 388.85 737.16 389.95C736.74 391.05 735.93 391.9 734.74 392.51C733.35 393.21 732.02 393.31 730.76 392.81C729.5 392.3 728.46 391.25 727.65 389.66C726.83 388.05 726.6 386.59 726.95 385.27C727.3 383.96 728.2 382.93 729.65 382.2C730.82 381.6 731.91 381.42 732.92 381.64C733.93 381.86 734.75 382.46 735.36 383.44ZM736.58 378.55L738.28 377.41L747.68 384.25L746.06 385.33L743.68 383.53L740.15 385.89L740.93 388.77L739.35 389.82L736.58 378.55ZM738.44 379.51L739.73 384.35L742.43 382.54L738.44 379.51ZM741.37 375.24L742.74 374.05L748.81 381.05L752.87 377.51L753.96 378.76L748.52 383.48L741.37 375.24ZM746.56 370.75L749.28 367.6C749.72 367.1 750.07 366.74 750.33 366.54C750.59 366.33 750.85 366.18 751.13 366.08C751.66 365.88 752.2 365.84 752.75 365.98C753.29 366.11 753.83 366.4 754.36 366.86C754.8 367.24 755.12 367.66 755.33 368.12C755.53 368.58 755.62 369.06 755.58 369.56C755.55 369.91 755.45 370.25 755.28 370.58C755.1 370.92 754.8 371.34 754.37 371.83L752.75 373.7L756 376.51L754.82 377.89L746.56 370.75ZM748.94 370.41L751.55 372.66L753.09 370.88C753.57 370.32 753.81 369.84 753.82 369.43C753.82 369.02 753.59 368.61 753.13 368.21C752.68 367.82 752.25 367.65 751.84 367.71C751.42 367.76 750.99 368.04 750.55 368.55L748.94 370.41ZM751.77 364.67L755.84 357.99L757.2 358.82L754.07 363.98L756.51 365.46L759.4 360.7L760.7 361.49L757.81 366.25L760.63 367.97L763.87 362.63L765.27 363.48L761.1 370.34L751.77 364.67Z" /><g ><path fill-rule="evenodd" class="shp5" d="M674.74 292.5C674.74 292.5 674.77 292.5 674.77 292.5C674.77 292.5 674.8 292.5 674.8 292.5C674.81 292.5 674.82 292.5 674.83 292.5C674.84 292.5 674.86 292.5 674.86 292.5C674.87 292.5 674.89 292.5 674.89 292.5C674.91 292.5 674.92 292.5 674.93 292.5C674.94 292.5 674.95 292.5 674.96 292.5C674.97 292.5 674.98 292.5 674.99 292.5C675.08 292.5 675.16 292.49 675.24 292.5C675.25 292.5 675.26 292.53 675.27 292.53C675.29 292.53 675.32 292.53 675.34 292.53C675.34 292.53 675.36 292.53 675.37 292.53C675.39 292.53 675.38 292.56 675.4 292.56C675.41 292.56 675.45 292.56 675.46 292.56C675.75 292.62 676 292.71 676.25 292.84C676.26 292.88 676.28 292.93 676.29 292.97C676.29 293 676.28 293.04 676.29 293.07C676.32 293.5 676.25 293.85 676.16 294.08C676.14 294.12 676.12 294.17 676.1 294.2C676.08 294.23 676.05 294.28 676.03 294.3C676.03 294.3 676.01 294.32 676 294.33C676 294.34 675.98 294.36 675.97 294.36C675.96 294.37 675.94 294.39 675.94 294.39C675.92 294.4 675.89 294.42 675.87 294.42C675.87 294.43 675.85 294.42 675.84 294.42C675.81 294.43 675.76 294.45 675.72 294.46C675.64 294.46 675.53 294.47 675.43 294.46C675.42 294.46 675.41 294.46 675.4 294.46C675.4 294.46 675.37 294.45 675.37 294.46C675.37 294.46 675.34 294.46 675.34 294.46C675.33 294.46 675.31 294.46 675.31 294.46C675.3 294.46 675.28 294.45 675.27 294.46C675.25 294.46 675.2 294.48 675.18 294.49C675.16 294.49 675.16 294.52 675.15 294.52C675.14 294.52 675.12 294.52 675.12 294.52C675.11 294.52 675.09 294.52 675.08 294.52C675.08 294.52 675.06 294.52 675.05 294.52C675.05 294.52 675.03 294.52 675.02 294.52C675.01 294.52 675 294.52 674.99 294.52C674.98 294.52 674.94 294.52 674.93 294.52C674.92 294.52 674.87 294.52 674.86 294.52C674.84 294.52 674.82 294.52 674.8 294.52C674.55 294.59 674.27 294.86 673.98 295.34C673.61 295.95 673.35 296.91 673.35 297.96C673.35 299.02 673.61 299.95 673.98 300.56C674.31 301.12 674.66 301.35 674.93 301.38C674.93 301.38 674.95 301.38 674.96 301.38C674.97 301.38 674.98 301.38 674.99 301.38C675 301.38 675.01 301.38 675.02 301.38C675.02 301.38 675.05 301.38 675.05 301.38C675.06 301.38 675.08 301.38 675.08 301.38C675.1 301.38 675.13 301.38 675.15 301.38C675.16 301.37 675.17 301.35 675.18 301.35C675.2 301.34 675.25 301.33 675.27 301.32C675.36 301.28 675.47 301.2 675.56 301.13C675.56 301.12 675.58 301.1 675.59 301.09C675.61 301.08 675.64 301.04 675.65 301.03C675.67 301.02 675.7 300.98 675.72 300.97C675.72 300.97 675.74 300.99 675.75 301C675.83 301.11 675.91 301.26 676 301.41C676.23 301.79 676.43 302.3 676.54 302.9C676.17 303.14 675.75 303.31 675.31 303.37C675.3 303.37 675.28 303.37 675.27 303.37C675.23 303.38 675.19 303.4 675.15 303.4C675.14 303.4 675.12 303.4 675.12 303.4C675.11 303.4 675.09 303.4 675.08 303.4C675.08 303.4 675.06 303.4 675.05 303.4C675.03 303.4 675.01 303.4 674.99 303.4C674.98 303.4 674.97 303.4 674.96 303.4C674.95 303.4 674.94 303.4 674.93 303.4C674.92 303.4 674.9 303.4 674.89 303.4C674.89 303.4 674.87 303.4 674.86 303.4C674.81 303.4 674.79 303.39 674.74 303.37C673.67 303.26 672.79 302.52 672.24 301.6C671.64 300.6 671.32 299.35 671.32 297.96C671.32 296.58 671.64 295.29 672.24 294.3C672.76 293.43 673.59 292.7 674.58 292.53C674.61 292.52 674.64 292.5 674.67 292.5C674.69 292.49 674.72 292.5 674.74 292.5ZM678.66 297.96C678.66 299.08 678.48 300.09 678.09 300.97C677.99 300.75 677.86 300.56 677.74 300.37C677.43 299.85 677.05 299.37 676.57 299.04C676.63 298.7 676.63 298.35 676.63 297.96C676.63 297.39 676.57 296.86 676.44 296.38C676.64 296.32 676.83 296.22 677.01 296.1C677.49 295.8 677.82 295.36 678.02 294.87C678.43 295.77 678.66 296.82 678.66 297.96Z" /><path fill-rule="evenodd" class="shp5" d="M674.58 298.57C674.58 298.57 674.61 298.57 674.61 298.57C674.62 298.57 674.66 298.57 674.67 298.57C674.68 298.57 674.7 298.57 674.7 298.57C674.72 298.56 674.72 298.57 674.74 298.57C674.75 298.57 674.76 298.57 674.77 298.57C674.8 298.56 674.83 298.57 674.86 298.57C674.88 298.57 674.91 298.57 674.93 298.57C674.94 298.57 674.95 298.57 674.96 298.57C674.97 298.57 674.98 298.57 674.99 298.57C675.05 298.57 675.12 298.56 675.18 298.57C675.18 298.57 675.2 298.56 675.21 298.57C676.3 298.66 677.18 299.43 677.74 300.37C678.34 301.36 678.66 302.65 678.66 304.03C678.66 305.42 678.34 306.67 677.74 307.67C677.19 308.59 676.34 309.33 675.27 309.44C675.26 309.44 675.23 309.44 675.21 309.44C675.2 309.44 675.16 309.47 675.15 309.47C675.1 309.47 675.04 309.47 674.99 309.47C674.98 309.47 674.97 309.47 674.96 309.47C674.94 309.47 674.92 309.47 674.89 309.47C674.38 309.45 673.89 309.27 673.47 309C673.47 308.99 673.47 308.97 673.47 308.97C673.58 308.37 673.75 307.86 673.98 307.48C674.08 307.31 674.19 307.15 674.29 307.04C674.49 307.25 674.67 307.4 674.83 307.45C674.84 307.45 674.86 307.45 674.86 307.45C674.91 307.44 674.94 307.45 674.99 307.45C675.01 307.45 675.06 307.45 675.08 307.45C675.35 307.42 675.66 307.19 676 306.63C676.37 306.02 676.63 305.09 676.63 304.03C676.63 302.98 676.37 302.02 676 301.41C675.73 300.95 675.45 300.71 675.21 300.62C675.2 300.62 675.19 300.59 675.18 300.59C675.17 300.59 675.15 300.59 675.15 300.59C675.1 300.58 675.03 300.59 674.99 300.59C674.95 300.59 674.9 300.59 674.86 300.59C674.84 300.59 674.82 300.62 674.8 300.62C674.79 300.63 674.75 300.65 674.74 300.65C674.72 300.66 674.68 300.68 674.67 300.68C674.67 300.68 674.65 300.68 674.64 300.68C674.63 300.69 674.59 300.71 674.58 300.72C674.53 300.74 674.47 300.8 674.42 300.84C674.38 300.88 674.33 300.92 674.29 300.97C674.19 300.86 674.08 300.73 673.98 300.56C673.75 300.17 673.58 299.63 673.47 299.04C673.79 298.83 674.14 298.64 674.52 298.57C674.54 298.56 674.55 298.57 674.58 298.57ZM671.95 301C672.05 301.2 672.13 301.41 672.24 301.6C672.55 302.12 672.98 302.57 673.47 302.9C673.41 303.25 673.35 303.64 673.35 304.03C673.35 304.41 673.38 304.78 673.44 305.11C672.96 305.44 672.55 305.92 672.24 306.44C672.12 306.63 672.02 306.82 671.92 307.04C671.54 306.16 671.32 305.14 671.32 304.03C671.32 302.93 671.54 301.88 671.92 301C671.93 301 671.95 301 671.95 301Z" /><path fill-rule="evenodd" class="shp5" d="M671.89 285.73C671.46 285.76 671.02 285.89 670.63 286.14C669.58 286.81 669.28 288.08 669.36 289.3C669.45 290.53 669.91 291.86 670.72 293.13C671.11 293.74 671.55 294.28 672.02 294.74C672.09 294.58 672.15 294.44 672.24 294.3C672.51 293.85 672.85 293.41 673.25 293.1C672.96 292.79 672.68 292.42 672.43 292.02C671.78 291.01 671.44 289.97 671.39 289.18C671.33 288.38 671.53 287.98 671.73 287.85C671.95 287.73 672.38 287.7 673.06 288.07C673.76 288.45 674.59 289.21 675.24 290.22C675.89 291.23 676.23 292.27 676.29 293.07C676.33 293.78 676.15 294.2 675.97 294.36C675.96 294.37 675.94 294.39 675.94 294.39C675.92 294.4 675.89 294.42 675.87 294.42C675.77 294.47 675.6 294.49 675.4 294.46C675.37 294.47 675.33 294.45 675.31 294.46C675.21 294.48 675.09 294.52 674.99 294.52C674.71 294.53 674.33 294.75 673.98 295.34C673.86 295.53 673.78 295.75 673.69 296.01C674.75 296.56 675.99 296.75 677.01 296.1C678.06 295.43 678.39 294.17 678.31 292.94C678.22 291.71 677.76 290.38 676.95 289.11C676.14 287.85 675.12 286.89 674.04 286.3C673.37 285.93 672.62 285.69 671.89 285.73Z" /><path fill-rule="evenodd" class="shp5" d="M674.6 310.7C674.61 310.7 674.63 310.7 674.64 310.7C674.64 310.7 674.67 310.7 674.67 310.7C674.67 310.7 674.7 310.7 674.7 310.7C674.71 310.7 674.72 310.7 674.73 310.7C674.74 310.7 674.75 310.7 674.76 310.7C674.8 310.7 674.82 310.71 674.86 310.7C674.87 310.7 674.9 310.7 674.92 310.7C674.93 310.7 674.94 310.7 674.95 310.7C674.96 310.7 674.97 310.7 674.98 310.7C674.99 310.7 675.01 310.7 675.02 310.7C675.07 310.7 675.12 310.7 675.17 310.7C675.18 310.7 675.2 310.7 675.21 310.7C676.29 310.79 677.21 311.57 677.77 312.5C678.36 313.5 678.68 314.78 678.68 316.17C678.68 317.56 678.36 318.81 677.77 319.81C677.22 320.71 676.37 321.44 675.33 321.58C675.33 321.58 675.3 321.58 675.3 321.58C675.27 321.58 675.23 321.57 675.21 321.58C675.19 321.58 675.16 321.61 675.14 321.61C675.1 321.61 675.06 321.61 675.02 321.61C675.01 321.61 674.99 321.61 674.98 321.61C674.97 321.61 674.96 321.61 674.95 321.61C674.94 321.61 674.93 321.61 674.92 321.61C674.91 321.61 674.9 321.61 674.89 321.61C674.88 321.61 674.86 321.61 674.86 321.61C673.72 321.56 672.81 320.77 672.23 319.81C672.23 319.8 672.21 319.78 672.2 319.77C672.72 319.48 673.39 319.25 674.13 319.14C674.13 319.14 674.16 319.14 674.16 319.14C674.17 319.14 674.21 319.14 674.23 319.14C674.23 319.14 674.25 319.14 674.26 319.14C674.32 319.21 674.39 319.28 674.45 319.33C674.48 319.36 674.54 319.4 674.57 319.43C674.64 319.47 674.73 319.53 674.79 319.55C674.81 319.56 674.84 319.58 674.86 319.59C674.9 319.58 674.97 319.58 675.02 319.59C675.04 319.58 675.09 319.59 675.11 319.59C675.37 319.54 675.7 319.3 676.03 318.76C676.39 318.16 676.66 317.23 676.66 316.17C676.66 315.11 676.39 314.16 676.03 313.55C675.79 313.15 675.52 312.9 675.3 312.79C675.26 312.77 675.21 312.74 675.17 312.73C675.17 312.73 675.15 312.72 675.14 312.73C675.1 312.72 675.05 312.73 675.02 312.73C674.98 312.73 674.92 312.73 674.89 312.73C674.88 312.73 674.84 312.75 674.83 312.76C674.82 312.76 674.8 312.76 674.79 312.76C674.75 312.77 674.7 312.81 674.67 312.82C674.66 312.83 674.62 312.84 674.6 312.85C674.53 312.9 674.43 312.97 674.35 313.04C674.34 313.05 674.31 313.09 674.29 313.11C674.19 312.99 674.08 312.87 673.97 312.69C673.74 312.31 673.58 311.77 673.47 311.18C673.78 310.96 674.16 310.78 674.54 310.7C674.57 310.7 674.58 310.71 674.6 310.7ZM671.95 313.14C672.04 313.34 672.12 313.55 672.23 313.74C672.55 314.26 672.98 314.7 673.47 315.03C673.4 315.39 673.34 315.77 673.34 316.17C673.34 316.38 673.35 316.57 673.37 316.77C672.67 316.9 672.01 317.09 671.41 317.37C671.36 316.99 671.32 316.58 671.32 316.17C671.32 315.07 671.53 314.02 671.92 313.14C671.93 313.14 671.95 313.14 671.95 313.14Z" /><path fill-rule="evenodd" class="shp5" d="M674.74 304.63C674.75 304.63 674.75 304.64 674.77 304.63C674.79 304.63 674.84 304.64 674.86 304.63C674.87 304.63 674.89 304.64 674.89 304.63C674.91 304.63 674.91 304.64 674.93 304.63C674.94 304.63 674.95 304.64 674.96 304.63C674.97 304.63 674.98 304.63 674.99 304.63C675.01 304.63 675.03 304.64 675.05 304.63C675.06 304.64 675.08 304.63 675.08 304.63C675.14 304.63 675.19 304.63 675.24 304.63C675.25 304.64 675.27 304.63 675.27 304.63C675.28 304.63 675.3 304.63 675.31 304.63C675.32 304.64 675.36 304.64 675.37 304.63C675.37 304.63 675.4 304.63 675.4 304.63C675.81 304.7 676.17 304.88 676.51 305.11C676.4 305.7 676.23 306.24 676 306.63C675.9 306.8 675.79 306.92 675.68 307.04C675.65 306.99 675.6 306.95 675.56 306.91C675.51 306.87 675.45 306.81 675.4 306.78C675.38 306.78 675.33 306.76 675.31 306.75C675.3 306.75 675.29 306.73 675.27 306.72C675.27 306.72 675.25 306.72 675.24 306.72C675.24 306.72 675.22 306.69 675.21 306.69C675.21 306.69 675.18 306.69 675.18 306.69C675.16 306.68 675.14 306.66 675.12 306.66C675.1 306.65 675.09 306.66 675.08 306.66C675.08 306.66 675.06 306.66 675.05 306.66C675.05 306.66 675.03 306.66 675.02 306.66C675.02 306.66 674.99 306.66 674.99 306.66C674.98 306.66 674.96 306.66 674.96 306.66C674.94 306.66 674.91 306.66 674.89 306.66C674.88 306.66 674.85 306.66 674.83 306.66C674.58 306.73 674.27 306.99 673.98 307.48C673.61 308.09 673.35 309.04 673.35 310.1C673.35 311.16 673.61 312.09 673.98 312.7C674.31 313.26 674.66 313.49 674.93 313.52C674.93 313.52 674.95 313.52 674.96 313.52C674.97 313.52 674.98 313.52 674.99 313.52C675 313.52 675.04 313.52 675.05 313.52C675.06 313.52 675.08 313.52 675.08 313.52C675.09 313.52 675.11 313.52 675.12 313.52C675.12 313.52 675.14 313.52 675.15 313.52C675.31 313.46 675.49 313.32 675.68 313.11C675.79 313.22 675.9 313.38 676 313.55C676.23 313.93 676.4 314.44 676.51 315.03C676.51 315.04 676.51 315.06 676.51 315.07C676.15 315.3 675.75 315.46 675.31 315.51C675.3 315.51 675.28 315.51 675.27 315.51C675.23 315.51 675.19 315.54 675.15 315.54C675.14 315.54 675.12 315.54 675.12 315.54C675.11 315.54 675.09 315.54 675.08 315.54C675.08 315.54 675.06 315.54 675.05 315.54C675.04 315.54 675.01 315.54 674.99 315.54C674.98 315.54 674.96 315.54 674.96 315.54C674.95 315.54 674.94 315.54 674.93 315.54C674.92 315.54 674.9 315.54 674.89 315.54C674.89 315.54 674.87 315.54 674.86 315.54C674.86 315.54 674.84 315.54 674.83 315.54C674.81 315.54 674.79 315.51 674.77 315.51C674.75 315.51 674.75 315.51 674.74 315.51C673.67 315.4 672.79 314.66 672.24 313.74C671.64 312.74 671.32 311.49 671.32 310.1C671.32 308.72 671.64 307.43 672.24 306.44C672.77 305.55 673.6 304.82 674.61 304.67C674.62 304.66 674.66 304.67 674.67 304.67C674.68 304.67 674.67 304.64 674.67 304.63C674.69 304.63 674.72 304.64 674.74 304.63ZM678.06 307.07C678.44 307.95 678.66 309 678.66 310.1C678.66 311.21 678.44 312.23 678.06 313.11C677.96 312.89 677.86 312.7 677.74 312.51C677.43 311.99 677.02 311.51 676.54 311.18C676.6 310.84 676.63 310.48 676.63 310.1C676.63 309.71 676.57 309.32 676.51 308.97C677 308.64 677.43 308.19 677.74 307.67C677.85 307.48 677.93 307.27 678.02 307.07C678.03 307.07 678.05 307.07 678.06 307.07Z" /><path fill-rule="evenodd" class="shp6" d="M674.54 316.61C674.52 316.61 674.5 316.64 674.48 316.65C672.95 316.73 671.56 317.16 670.46 317.91C669.24 318.75 668.35 320.03 668.35 321.51C668.35 323 669.24 324.31 670.46 325.15C671.65 325.96 673.17 326.44 674.83 326.48C674.86 326.48 674.88 326.48 674.92 326.48C674.93 326.48 674.95 326.48 674.95 326.48C674.97 326.48 675 326.48 675.02 326.48C675.03 326.48 675.04 326.48 675.05 326.48C675.07 326.48 675.09 326.48 675.11 326.48C675.13 326.48 675.16 326.48 675.17 326.48C676.84 326.45 678.35 325.96 679.54 325.15C680.76 324.31 681.65 323 681.65 321.51C681.65 320.03 680.76 318.75 679.54 317.91C679.24 317.71 678.92 317.53 678.59 317.37C678.46 318.26 678.17 319.06 677.77 319.74C677.87 319.8 677.96 319.87 678.05 319.93C678.77 320.43 679.09 320.96 679.09 321.51C679.09 322.06 678.77 322.63 678.05 323.13C677.37 323.59 676.38 323.94 675.24 323.98C675.23 323.98 675.21 323.98 675.21 323.98C675.18 323.98 675.16 323.98 675.14 323.98C675.13 323.98 675.12 323.98 675.11 323.98C675.1 323.98 675.09 323.98 675.08 323.98C675.07 323.98 675.06 323.98 675.05 323.98C675.04 323.98 675.03 323.98 675.02 323.98C674.94 323.98 674.87 323.98 674.79 323.98C673.65 323.94 672.63 323.59 671.95 323.13C671.23 322.63 670.94 322.06 670.94 321.51C670.94 320.96 671.23 320.43 671.95 319.93C672.6 319.48 673.57 319.14 674.67 319.08C674.78 319.07 674.9 319.08 675.02 319.08C675.11 319.09 675.18 319.09 675.27 319.08C675.29 319.08 675.34 319.08 675.36 319.08C675.5 319.09 675.61 319.13 675.74 319.14C675.81 319.06 675.89 318.96 675.96 318.86C675.98 318.84 675.98 318.81 676 318.79C676.03 318.76 676.06 318.71 676.09 318.67C676.1 318.65 676.11 318.62 676.12 318.61C676.15 318.57 676.19 318.55 676.22 318.51C676.34 318.32 676.4 318.09 676.41 317.88C676.41 317.86 676.41 317.86 676.41 317.85C676.51 317.51 676.59 317.14 676.63 316.74C676.21 316.67 675.78 316.63 675.33 316.61C675.31 316.61 675.29 316.61 675.27 316.61C675.25 316.61 675.25 316.62 675.24 316.61C675.21 316.61 675.17 316.61 675.14 316.61C675.13 316.61 675.13 316.61 675.11 316.61C675.09 316.61 675.07 316.61 675.05 316.61C675.03 316.61 675.03 316.61 675.02 316.61C674.87 316.61 674.72 316.61 674.57 316.61C674.56 316.61 674.55 316.61 674.54 316.61Z" /><path fill-rule="evenodd" class="shp7" d="M675 289.73C670.27 289.73 667.81 292.47 667.81 298.88C667.81 304.48 667.81 322.54 667.81 325.6L652.18 325.6C652.18 315.07 652.97 314.51 654.7 311.5C656.69 308.07 657.5 248.31 657.5 248.31L652.28 239.83L652.28 224.03C653.82 222.97 656.22 222.33 658.59 221.67L658.59 229.78L664.71 228.8L664.71 220.83C667.01 220.08 668.8 219.77 671.39 219.66L671.39 228.25C671.39 228.25 673.2 228.12 675 228.12C676.8 228.12 678.61 228.25 678.61 228.25L678.61 219.66C681.2 219.77 682.99 220.08 685.29 220.83L685.29 228.8L691.41 229.78L691.41 221.67C693.78 222.33 696.18 222.97 697.72 224.03L697.72 239.83L692.5 248.31C692.5 248.31 693.31 308.07 695.3 311.5C697.03 314.51 697.82 315.07 697.82 325.6L682.19 325.6C682.19 322.54 682.19 304.48 682.19 298.88C682.19 292.47 679.73 289.73 675 289.73ZM697.72 239.83C695.41 238.2 685.16 234.73 675 234.73C665.29 234.73 654.59 238.2 652.28 239.83L697.72 239.83Z" /><path class="shp8" d="M661.14 325.6L661.14 297.33C661.14 289.58 666.72 282.42 675 282.42C683.28 282.42 688.86 289.58 688.86 297.33L688.86 325.6" /><path fill-rule="evenodd" class="shp7" d="M648.08 271.28L648.08 275.33L644.13 275.33L647.29 309.03L650.14 315.19L650.14 325.59L652.19 325.59C652.19 315.07 652.95 314.5 654.69 311.49C655.75 309.65 656.49 291.65 656.93 275.33L654.28 275.33L654.28 271.28L648.08 271.28Z" /><path fill-rule="evenodd" class="shp7" d="M620.96 251.05L620.96 257.22L626.97 257.22L626.97 251.05L633.99 251.05L633.99 257.22L639.14 257.22L639.14 251.05L646.12 251.05L646.12 261.26L643.28 266.29L647.29 309.03L650.14 315.19L650.14 325.59L608.73 325.59C609.2 317.93 610.88 313.17 612.77 309.03L617.17 266.29L613.72 261.26L613.72 251.05L620.96 251.05ZM645.31 343.78C654.1 343.78 667.93 335.58 667.93 325.59L608.73 325.59C608.73 340.18 642.58 343.78 645.31 343.78ZM647.29 309.03L612.78 309.03M650.13 315.18L610.53 315.18M613.73 261.27L646.11 261.27M617.18 266.29L643.27 266.29" /><path fill-rule="evenodd" class="shp4" d="M649.98 286.96L649.98 300.21L652.51 300.21L652.51 286.96L649.98 286.96Z" /><path fill-rule="evenodd" class="shp4" d="M627.38 276.78L627.38 280.86L624.5 280.86L624.5 283.9L627.38 283.9L627.38 294.14L630.41 294.14L630.41 283.9L633.29 283.9L633.29 280.86L630.41 280.86L630.41 276.78L627.38 276.78Z" /><path class="shp8" d="M675 289.56L675 282.62" /><path class="shp9" d="M661.45 321.94L667.77 321.94M661.45 317.9L667.77 317.9M661.45 313.85L667.77 313.85M661.45 309.8L667.77 309.8M661.45 305.76L667.77 305.76M661.45 301.71L667.77 301.71M661.45 297.66L667.77 297.66M663.11 290.05L668.15 293.98M667.23 285.11L670.8 290.69" /><path class="shp9" d="M688.55 321.94L682.23 321.94M688.55 317.9L682.23 317.9M688.55 313.85L682.23 313.85M688.55 309.8L682.23 309.8M688.55 305.76L682.23 305.76M688.55 301.71L682.23 301.71M688.55 297.66L682.23 297.66M686.89 290.05L681.85 293.98M682.77 285.11L679.2 290.69" /><path fill-rule="evenodd" class="shp7" d="M736.28 251.05L736.28 261.26L732.83 266.29L737.23 309.03C739.12 313.17 740.8 317.93 741.27 325.59L699.86 325.59L699.86 315.19L702.71 309.03L706.72 266.29L703.88 261.26L703.88 251.05L710.86 251.05L710.86 257.22L716.01 257.22L716.01 251.05L723.03 251.05L723.03 257.22L729.04 257.22L729.04 251.05L736.28 251.05ZM682.07 325.59C682.07 335.58 695.9 343.78 704.69 343.78C707.42 343.78 741.27 340.18 741.27 325.59L682.07 325.59ZM702.71 309.03L737.22 309.03M699.87 315.18L739.47 315.18M736.27 261.27L703.89 261.27M732.82 266.29L706.73 266.29" /><path class="shp8" d="M644.64 280.44L656.74 280.44" /><path fill-rule="evenodd" class="shp7" d="M701.92 271.28L701.92 275.33L705.87 275.33L702.71 309.03L699.86 315.19L699.86 325.59L697.81 325.59C697.81 315.07 697.05 314.5 695.31 311.49C694.25 309.65 693.51 291.65 693.07 275.33L695.72 275.33L695.72 271.28L701.92 271.28Z" /><path class="shp8" d="M705.36 280.44L693.26 280.44" /><path class="shp8" d="M660.71 308.81L655.2 308.81" /><path class="shp8" d="M653.27 314.32L660.71 314.32" /><path class="shp8" d="M696.73 314.32L689.29 314.32" /><path class="shp10" d="M717.92 276.78L717.92 280.86L715.04 280.86L715.04 283.9L717.92 283.9L717.92 294.14L720.95 294.14L720.95 283.9L723.83 283.9L723.83 280.86L720.95 280.86L720.95 276.78L717.92 276.78Z" /><path fill-rule="evenodd" class="shp4" d="M700.02 286.96L700.02 300.21L697.49 300.21L697.49 286.96L700.02 286.96Z" /><path fill-rule="evenodd" class="shp4" d="M722.62 276.78L722.62 280.86L725.5 280.86L725.5 283.9L722.62 283.9L722.62 294.14L719.59 294.14L719.59 283.9L716.71 283.9L716.71 280.86L719.59 280.86L719.59 276.78L722.62 276.78Z" /><path class="shp8" d="M689.29 308.81L694.8 308.81" /><path class="shp11" d="M649.94 283.18L655.82 283.18M649.94 286.21L655.82 286.21M650.69 289.24L655.85 289.24M650.69 292.28L655.85 292.28M650.69 295.31L655.85 295.31M650.88 298.35L655.86 298.35M649.7 301.38L655.58 301.38M649.46 304.42L655.33 304.42M648.93 307.45L654.81 307.45M648.93 310.49L654.81 310.49M648.27 310.49L654.74 310.49M653.11 283.26L653.11 285.94M655.14 286.3L655.14 288.97M653.11 289.33L653.11 292.01M655.14 292.37L655.14 295.04M653.11 295.4L653.11 298.07M655.14 298.43L655.14 301.11M651.09 298.43L651.09 301.11M653.11 301.47L653.11 304.14M651.09 304.5L651.09 307.18M653.11 307.54L653.11 310.21" /><path class="shp11" d="M717.53 270.3L732.71 270.3" /><path class="shp11" d="M719.31 274.34L733.52 274.34" /><path class="shp11" d="M722.99 278.39L734.17 278.39" /><path class="shp11" d="M725.01 282.44L734.17 282.44" /><path class="shp11" d="M721.46 286.48L734.81 286.48" /><path class="shp11" d="M721.95 290.53L735.46 290.53" /><path class="shp11" d="M719.51 294.57L735.95 294.57" /><path class="shp11" d="M720.73 298.62L736.16 298.62" /><path class="shp11" d="M721.09 302.67L736.34 302.67" /><path class="shp11" d="M725.01 306.71L736.8 306.71" /><path class="shp11" d="M731.03 270.44L731.03 274.16" /><path class="shp11" d="M726.98 274.48L726.98 278.21" /><path class="shp11" d="M731.03 278.53L731.03 282.25" /><path class="shp11" d="M726.98 282.58L726.98 286.3" /><path class="shp11" d="M731.03 286.62L731.03 290.35" /><path class="shp11" d="M726.98 290.67L726.98 294.39" /><path class="shp11" d="M731.03 294.71L731.03 298.44" /><path class="shp11" d="M722.93 294.71L722.93 298.44" /><path class="shp11" d="M726.98 298.76L726.98 302.48" /><path class="shp11" d="M731.03 302.81L731.03 306.53" /><path class="shp11" d="M735.07 298.76L735.07 302.48" /><path class="shp11" d="M726.98 266.39L726.98 270.12" /><path class="shp11" d="M718.89 266.39L718.89 270.12" /><path class="shp11" d="M722.93 270.44L722.93 274.16" /><path class="shp10" d="M627.38 276.78L627.38 280.86L624.5 280.86L624.5 283.9L627.38 283.9L627.38 294.14L630.41 294.14L630.41 283.9L633.29 283.9L633.29 280.86L630.41 280.86L630.41 276.78L627.38 276.78Z" /><path class="shp11" d="M632.05 270.3L642.17 270.3" /><path class="shp11" d="M633.83 274.34L642.98 274.34" /><path class="shp11" d="M634.48 278.39L643.63 278.39" /><path class="shp11" d="M634.48 282.44L643.63 282.44" /><path class="shp11" d="M632.69 286.48L644.28 286.48" /><path class="shp11" d="M633.18 290.53L644.93 290.53" /><path class="shp11" d="M628.97 294.57L645.41 294.57" /><path class="shp11" d="M623.63 298.62L645.9 298.62" /><path class="shp11" d="M627.51 302.67L646.5 302.67" /><path class="shp11" d="M634.48 306.71L646.96 306.71" /><path class="shp11" d="M640.49 270.44L640.49 274.16" /><path class="shp11" d="M636.44 274.48L636.44 278.21" /><path class="shp11" d="M640.49 278.53L640.49 282.25" /><path class="shp11" d="M636.44 282.58L636.44 286.3" /><path class="shp11" d="M640.49 286.62L640.49 290.35" /><path class="shp11" d="M636.44 290.67L636.44 294.39" /><path class="shp11" d="M640.49 294.71L640.49 298.44" /><path class="shp11" d="M632.4 294.71L632.4 298.44" /><path class="shp11" d="M636.44 298.76L636.44 302.48" /><path class="shp11" d="M640.49 302.81L640.49 306.53" /><path class="shp11" d="M644.53 298.76L644.53 302.48" /><path class="shp11" d="M628.35 298.76L628.35 302.48" /><path class="shp11" d="M636.44 266.39L636.44 270.12" /><path class="shp12" d="M628.92 316.91L649.09 316.91M629.93 319.94L650.1 319.94M625.87 322.98L650.1 322.98M629.93 322.98L648.08 322.98M633.09 317.01L633.09 319.83M633.09 317.01L633.09 319.83M639.15 317.01L639.15 319.83M645.22 317.01L645.22 319.83M642.19 320.05L642.19 322.87M636.12 320.05L636.12 322.87M630.05 314.99L630.05 316.8M636.12 314.99L636.12 316.8M642.19 314.99L642.19 316.8M648.26 314.99L648.26 316.8M648.26 320.05L648.26 322.87" /><path class="shp11" d="M697.49 283.18L704.92 283.18M697.49 286.21L704.68 286.21M698.23 289.24L704.16 289.24M698.23 292.28L704.05 292.28M698.23 295.31L703.83 295.31M698.43 298.35L703.4 298.35M697.24 301.38L703.12 301.38M697 304.42L702.87 304.42M696.48 307.45L702.35 307.45M696.48 310.49L702.35 310.49M695.81 310.49L702.29 310.49M700.66 283.26L700.66 285.94M702.68 286.3L702.68 288.97M700.66 289.33L700.66 292.01M702.68 292.37L702.68 295.04M700.66 295.4L700.66 298.07M702.68 298.43L702.68 301.11M698.63 298.43L698.63 301.11M700.66 301.47L700.66 304.14M698.63 304.5L698.63 307.18M700.66 307.54L700.66 310.21" /><path class="shp13" d="M686.16 257.06L692.44 257.03" /><path class="shp13" d="M686.16 262.12L692.44 262.09" /><path class="shp13" d="M686.16 267.18L692.44 267.15" /><path class="shp13" d="M686.16 272.24L692.44 272.2" /><path class="shp13" d="M686.16 277.3L692.44 277.26" /><path class="shp13" d="M683.17 282.35L693.34 282.32" /><path class="shp13" d="M686.16 287.41L693.18 287.38" /><path class="shp13" d="M688.1 292.47L693.48 292.43" /><path class="shp13" d="M688.84 297.53L693.48 297.49" /><path class="shp13" d="M688.84 302.58L694.08 302.55" /><path class="shp13" d="M688.84 307.64L694.52 307.61" /><path class="shp13" d="M687.8 257.39L687.8 261.76" /><path class="shp13" d="M687.8 267.5L687.8 271.88" /><path class="shp13" d="M687.8 277.62L687.8 281.99" /><path class="shp13" d="M687.8 287.74L687.8 291.51" /><path class="shp13" d="M690.83 262.45L690.83 266.82" /><path class="shp13" d="M690.83 272.56L690.83 276.94" /><path class="shp13" d="M690.83 282.68L690.83 287.05" /><path class="shp13" d="M684.76 282.68L684.76 286.35" /><path class="shp13" d="M690.83 292.79L690.83 297.17" /><path class="shp13" d="M690.83 302.91L690.83 307.28" /><path class="shp13" d="M690.83 250.72L690.83 256.71" /><path class="shp12" d="M718.94 316.91L739.92 316.91M719.96 319.94L740.13 319.94M715.9 322.98L740.98 322.98M723.11 317.01L723.11 319.83M723.11 317.01L723.11 319.83M729.18 317.01L729.18 319.83M735.25 317.01L735.25 319.83M732.22 320.05L732.22 322.87M726.15 320.05L726.15 322.87M720.08 314.99L720.08 316.8M726.15 314.99L726.15 316.8M732.22 314.99L732.22 316.8M738.29 314.99L738.29 316.8M738.29 320.05L738.29 322.87M729.18 322.97L729.18 325.57M735.25 322.9L735.25 325.51" /><g ><path fill-rule="evenodd" class="shp14" d="M616.31 262.02L618.31 265.5L621.06 265.5L619.8 262.02L616.31 262.02ZM623.59 262.02L625.39 265.5L628.14 265.5L627.22 262.02L623.59 262.02Z" /><path fill-rule="evenodd" class="shp14" d="M640.4 262.02L639.15 265.5L641.9 265.5L643.9 262.02L640.4 262.02ZM632.98 262.02L632.06 265.5L634.81 265.5L636.62 262.02L632.98 262.02Z" /></g><path class="shp4" d="M671.16 236.52C671.16 236.52 673.08 236.06 675 236.06C676.92 236.06 678.84 236.52 678.84 236.52L676.81 245.36L673.19 245.36L671.16 236.52Z" /><path fill-rule="evenodd" class="shp4" d="M669.86 245.36L665.47 246.12L662.26 238.56C664.13 237.55 666.39 236.91 668.97 236.85L669.86 245.36ZM662.4 247.01L658.8 248.11L654.53 240.97L659.56 239.33L662.4 247.01Z" /><path fill-rule="evenodd" class="shp4" d="M681.03 236.85C683.61 236.91 685.87 237.55 687.74 238.56L684.53 246.12L680.14 245.36L681.03 236.85ZM690.44 239.33L695.47 240.97L691.2 248.11L687.6 247.01L690.44 239.33Z" /><path class="shp15" d="M671.55 258.64C671.55 256.67 673.15 255.07 675.12 255.07C677.1 255.07 678.7 256.67 678.7 258.64L678.7 273.41L671.55 273.41L671.55 258.64Z" /><path fill-rule="evenodd" class="shp16" d="M685.73 257.5L685.73 279.57L664.52 279.57L664.52 257.5C664.52 251.74 668.94 246.88 675 246.88C681.15 246.88 685.73 251.65 685.73 257.5ZM669.58 258.64L669.58 275.36L680.67 275.36L680.67 258.64C680.67 255.58 678.68 253.11 675 253.11C671.5 253.11 669.58 255.73 669.58 258.64Z" /><path class="shp8" d="M670.71 247.82L672.63 253.21M666.21 251.8L670.17 255.52M669.3 258.18L664.56 258.18M669.3 262.22L664.56 262.22M669.3 266.27L664.56 266.27M669.3 270.31L664.56 270.31M669.3 274.36L664.56 274.36M669.57 275.36L664.49 279.53M670.41 275.48L670.41 279.32M673.45 275.48L673.45 279.32" /><path class="shp8" d="M679.29 247.82L677.37 253.21M683.79 251.8L679.83 255.52M680.7 258.18L685.44 258.18M680.7 262.22L685.44 262.22M680.7 266.27L685.44 266.27M680.7 270.31L685.44 270.31M680.7 274.36L685.44 274.36M680.43 275.36L685.51 279.53M679.59 275.48L679.59 279.32M676.55 275.48L676.55 279.32" /><path class="shp17" d="M663.06 274.98L657.93 274.98" /><path class="shp17" d="M664.07 259.8L658.94 259.8" /><path class="shp17" d="M663.4 286.38L658.27 286.38" /><path class="shp17" d="M661.07 300.68L656.26 300.68" /><path class="shp13" d="M662.27 280.42L662.27 284.86" /><path class="shp13" d="M662.27 262.14L662.27 266.58" /><path class="shp13" d="M662.27 254.26L662.27 257.48" /><path class="shp8" d="M618.57 329.09C618.57 329.17 618.57 329.25 618.57 329.34C618.57 331.79 619.89 333.81 621.81 333.33" /><path class="shp8" d="M635.04 331.08C635.04 332.89 633.5 334.95 632.04 335.82" /><path class="shp8" d="M626.8 333.58C626.8 339 631.48 337.68 634.04 338.32" /><path class="shp8" d="M655.75 333.58C655.75 334.66 654.03 332.17 653 331.83C649.87 330.79 645.85 331.96 644.02 333.33C643.89 333.43 643.69 333.33 643.52 333.33" /><path class="shp8" d="M641.02 337.57C638.56 339.42 647.18 338.07 650.26 338.32" /><path class="shp8" d="M646.76 327.81C646.09 328.32 642.03 327.81 640.78 327.81" /><path class="shp8" d="M660.49 328.59C660.36 328.68 661.01 329.64 661.24 330.08" /><path class="shp8" d="M717.38 336.32C714.49 338.49 711.4 331.96 707.89 331.08C706.86 330.83 705.45 331.08 704.4 331.08" /><path class="shp8" d="M697.66 331.83C697.22 331.72 696.43 337.05 695.67 338.07" /><path class="shp8" d="M690.93 328.59C689.19 328.15 690.57 331.97 690.43 333.33" /><path class="shp8" d="M705.9 339.07C704.93 338.82 706.02 341.07 706.15 342.06" /><path class="shp8" d="M728.1 327.84C730.48 326.65 731.92 329.83 732.6 330.83" /><path class="shp8" d="M723.61 331.58C725.04 330.87 723.06 334.74 722.86 336.32" /><path class="shp8" d="M719.87 328.34C721.01 327.77 717.38 328.84 716.13 329.09" /><path class="shp8" d="M630.55 329.34C629.03 328.46 628.12 328.76 625.8 329.34" /><path fill-rule="evenodd" class="shp18" d="M665.22 350.03L665.22 353.95L669.93 353.95L669.93 356.73L665.22 356.73L665.22 360.68L674.89 360.68L674.89 350.03L665.22 350.03Z" /><path fill-rule="evenodd" class="shp18" d="M674.51 316.61C674.5 316.62 674.48 316.64 674.48 316.65C672.95 316.73 671.56 317.16 670.46 317.91C669.24 318.75 668.35 320.03 668.35 321.51C668.35 323 669.24 324.31 670.46 325.15C671.37 325.77 672.48 326.2 673.69 326.38L673.69 362.48L676.31 362.48L676.31 326.38C677.52 326.2 678.63 325.77 679.54 325.15C680.76 324.31 681.65 323 681.65 321.51C681.65 320.03 680.76 318.75 679.54 317.91C679.24 317.71 678.92 317.53 678.59 317.37C678.46 318.26 678.17 319.06 677.77 319.74C677.87 319.8 677.96 319.87 678.05 319.93C678.77 320.43 679.09 320.96 679.09 321.51C679.09 322.06 678.77 322.63 678.05 323.13C677.37 323.59 676.38 323.94 675.24 323.98C675.23 323.98 675.21 323.98 675.21 323.98C675.2 323.98 675.18 323.98 675.17 323.98C675.17 323.98 675.14 323.98 675.14 323.98C675.13 323.98 675.12 323.98 675.11 323.98C675.11 323.98 675.08 323.98 675.08 323.98C675.07 323.98 675.06 323.98 675.05 323.98C675.04 323.98 675.03 323.98 675.02 323.98C674.94 323.98 674.87 323.98 674.79 323.98C673.65 323.94 672.63 323.59 671.95 323.13C671.23 322.63 670.94 322.06 670.94 321.51C670.94 320.96 671.23 320.43 671.95 319.93C672.6 319.48 673.57 319.14 674.67 319.08C674.78 319.07 674.9 319.08 675.02 319.08C675.11 319.09 675.18 319.09 675.27 319.08C675.28 319.08 675.32 319.08 675.33 319.08C675.34 319.08 675.36 319.08 675.36 319.08C675.5 319.09 675.61 319.13 675.74 319.14C675.81 319.06 675.89 318.96 675.96 318.86C675.97 318.85 675.99 318.81 676 318.79C676 318.79 676.02 318.77 676.03 318.76C676.04 318.74 676.07 318.69 676.09 318.67C676.1 318.65 676.12 318.62 676.12 318.61C676.14 318.59 676.17 318.56 676.19 318.54C676.19 318.54 676.21 318.52 676.22 318.51C676.34 318.32 676.4 318.09 676.41 317.88C676.41 317.87 676.41 317.85 676.41 317.85C676.51 317.51 676.59 317.14 676.63 316.74C676.21 316.67 675.78 316.63 675.33 316.61C675.31 316.61 675.29 316.61 675.27 316.61C675.27 316.61 675.24 316.61 675.24 316.61C675.21 316.61 675.17 316.61 675.14 316.61C675.14 316.61 675.12 316.61 675.11 316.61C675.09 316.61 675.07 316.61 675.05 316.61C675.05 316.61 675.02 316.61 675.02 316.61C674.87 316.61 674.72 316.61 674.57 316.61C674.57 316.61 674.55 316.61 674.54 316.61C674.54 316.62 674.51 316.61 674.51 316.61Z" /><path class="shp12" d="M688.93 316.91L697.37 316.91M688.98 319.94L697.58 319.94M688.94 322.98L697.78 322.98M694.79 317.01L694.79 319.83M691.75 320.05L691.75 322.87M691.75 314.43L691.75 316.8M694.79 322.9L694.79 325.51" /><g ><path fill-rule="evenodd" class="shp14" d="M706.08 262.02L708.08 265.5L710.83 265.5L709.58 262.02L706.08 262.02ZM713.36 262.02L715.16 265.5L717.91 265.5L717 262.02L713.36 262.02Z" /><path fill-rule="evenodd" class="shp14" d="M730.18 262.02L728.92 265.5L731.67 265.5L733.67 262.02L730.18 262.02ZM722.76 262.02L721.84 265.5L724.59 265.5L726.39 262.02L722.76 262.02Z" /></g></g></g></g><g clip-path="url(#cp1)"><g ><g ><path class="shp0" d="M0 0L450 0L450 300L0 300L0 0Z" /><path fill-rule="evenodd" class="shp19" d="M0 0L450 300M450 0L0 300" /><path class="shp20" d="M225 0L225 300" /><path class="shp20" d="M0 150L450 150" /><path class="shp21" d="M225 0L225 300" /><path class="shp21" d="M0 150L450 150" /></g></g></g></svg>