<svg version="1.2" baseProfile="tiny-ps" xmlns="http://www.w3.org/2000/svg" viewBox="0 0 900 600" width="900" height="600"><title></title><style>tspan { white-space:pre }.shp0 { fill: #d21034 } .shp1 { fill: #00209f } .shp2 { fill: #ffffff } .shp3 { fill: #016a16;stroke: #016a16;stroke-width: 0.167 } .shp4 { fill: #f1b517;stroke: #000000;stroke-width: 0.364 } .shp5 { fill: #ffffff;stroke: #000000;stroke-width: 0.364 } .shp6 { fill: #0a328c;stroke: #000000;stroke-width: 0.364 } .shp7 { fill: #d20014;stroke: #000000;stroke-width: 0.364 } .shp8 { fill: #0a328c;stroke: #0a328c;stroke-width: 0.364 } .shp9 { fill: #d20014;stroke: #d20014;stroke-width: 0.364 } .shp10 { fill: #016a16;stroke: #016a16;stroke-width: 0.364 } .shp11 { fill: #016a16;stroke: #000000;stroke-width: 0.364 } .shp12 { fill: #f1b517;stroke: #000000;stroke-width: 0.377 } .shp13 { fill: #f1b517;stroke: #000000;stroke-width: 0.359 } .shp14 { fill: #f1b517;stroke: #000000;stroke-width: 0.368 } .shp15 { fill: #f1b517;stroke: #000000;stroke-width: 0.373 } .shp16 { fill: #016a16;stroke: #ffffff;stroke-linecap:round;stroke-width: 0.473 } .shp17 { fill: #016a16;stroke: #ffffff;stroke-linecap:round;stroke-width: 0.364 } .shp18 { fill: #016a16;stroke: #f1b517;stroke-width: 0.364 } .shp19 { fill: #503200;stroke: #000000;stroke-width: 0.364 } .shp20 { fill: #f1b517;stroke: #000000;stroke-linecap:round;stroke-width: 0.364 } .shp21 { fill: #0a328c;stroke: #0a328c;stroke-width: 0.46 } .shp22 { fill: #0a328c;stroke: #0a328c;stroke-width: 0.373 } .shp23 { fill: none;stroke: #000000;stroke-width: 0.373 } .shp24 { fill: #ffffff;stroke: #ffffff;stroke-width: 0.381 } .shp25 { fill: #f1b517;stroke: #000000;stroke-width: 0.46 } .shp26 { fill: #d20014;stroke: #f1b517;stroke-width: 0.364 } .shp27 { fill: #000000 } </style><path class="shp0" d="M-50 0L950 0L950 600L-50 600L-50 0Z" /><path class="shp1" d="M-50 0L950 0L950 300L-50 300L-50 0Z" /><g ><path class="shp2" d="M242.63 134.85L657.37 134.85L657.37 465.07L242.63 465.07L242.63 134.85Z" /><path class="shp3" d="M533.47 373.64L448.83 376.1L364.57 377.06C364.57 377.06 321.28 393.07 303.59 396.67C285.94 400.25 288.24 406.05 274.58 409.1C263.65 411.54 262.39 412.31 255.97 412.74C252.09 412.99 247.3 415.98 242.63 419.27L242.63 465.07L657.37 465.07L657.37 421.51C652.88 419.06 648.59 417.37 644.21 415.88C638.12 413.81 634.01 411.54 623.07 409.1C609.42 406.05 611.71 400.25 594.07 396.67C576.38 393.07 533.47 373.64 533.47 373.64L533.47 373.64Z" /><g ><g ><path class="shp4" d="M426.02 271.72L432.14 271.58L443.34 318.69L440.95 333.53L426.02 271.72Z" /><path class="shp5" d="M419.6 240.31L423.78 276.62L428.26 276.33L419.6 240.31Z" /><path class="shp4" d="M431.25 320.27L412.44 269.7L419.45 269.27L441.4 331.08L431.25 320.27Z" /><path class="shp5" d="M403.63 240.89L411.39 276.04L417.66 276.04L403.63 240.89Z" /><path class="shp4" d="M414.53 302.55L403.48 278.78L408.26 277.77L428.42 317.25L414.53 302.55Z" /><path class="shp5" d="M389 250.97L401.24 284.4L407.51 284.4L389 250.97Z" /><path class="shp6" d="M416.03 306.14L365.92 251.42C350.27 263.81 353.17 286.58 353.17 286.58L409.95 331.13L416.03 306.14Z" /><path class="shp7" d="M445.01 336.25L407.83 298.58C392.11 299.13 404.58 322.6 405.38 325.55L445.01 359.45L445.01 336.25Z" /><path class="shp4" d="M441.84 329.77L364.98 247.46L361.98 249.58L443.32 339.97L441.84 329.77ZM360.54 242.18L358.85 240.22L359.02 236.32L343.16 226.22L350.24 242.18L355.64 243.16L357.33 245.11L360.54 242.18Z" /><path class="shp4" d="M352.44 248.04C355.14 244.79 358.35 241.53 364.08 238.44L368.47 244.79L359.02 252.77L352.44 248.04Z" /><path class="shp8" d="M344 261.93L346.57 266.43C348.17 265.83 364.24 251.27 364.24 251.27L375.77 250.92L379.08 247.25C370.62 238.13 362.64 248.55 362.64 248.55L344 261.93Z" /><path class="shp9" d="M353.2 269.51C353.81 265.48 361.42 255.42 362.52 255.07C368.23 256.78 373.55 260.07 379.33 247.01C374.3 253.41 364.12 246.9 364.12 246.9L359.7 250.57L359.82 252.34L346.45 264.77L353.2 269.51Z" /><path class="shp6" d="M394.13 320.64L331.17 270.62C320.39 281.59 329.35 315.46 329.35 315.46L390.89 348.81L394.13 320.64Z" /><path class="shp7" d="M446.34 361.16L394.55 319.66C376.87 322.14 390.77 348.18 391.82 351.05L446.52 380.72L446.34 361.16Z" /><path class="shp4" d="M444.29 352.78L332.3 268.7L329.73 271.29L447.34 363.14L444.29 352.78ZM326.98 264.25L324.96 262.61L324.43 258.73L306.99 251.45L316.84 265.97L322.34 266.03L324.35 267.67L326.98 264.25Z" /><path class="shp4" d="M320.06 271.37C322.13 267.72 324.71 263.97 329.8 259.97L335.26 265.48L327.39 274.92L320.06 271.37Z" /><path class="shp8" d="M313.82 285.44L314.52 290.08C316 289.26 330.12 273.75 330.12 273.75L341.45 271.66L343.76 268.01C335.89 258.74 327.49 271.07 327.49 271.07L313.82 285.44Z" /><path class="shp9" d="M322.79 293.78C322.25 289.48 328.13 276.85 329.16 276.34C335.94 278.35 341.84 281.39 344.33 267.26C340.4 274.34 329.17 268.85 329.17 268.85L325.4 273.15L325.93 275.47L314.49 290.24L322.79 293.78Z" /><g ><path class="shp6" d="M389.63 351.23C388.8 351.02 308.48 305.46 308.48 305.46C302.64 315.33 307.92 329.65 310.48 331.88C310.63 338.46 307.85 341.99 313.58 355.72C315.27 364.65 319.4 372.87 325.42 377.76C332.74 405.88 361.45 407.77 372.51 384.87L389.63 351.23Z" /><path class="shp7" d="M442.78 381.3L387.79 349.06C370.1 351.55 388.16 384.37 389.22 387.24L442.31 406.1L442.78 381.3Z" /><path class="shp4" d="M433.53 369.61L309.3 303.48L307.18 306.42L438.23 379.39L433.53 369.61ZM303.32 299.88L301.06 298.57L299.9 294.82L281.5 290.26L293.58 303.12L299.02 302.34L301.27 303.66L303.32 299.88Z" /><path class="shp4" d="M297.64 307.97C299.09 304.04 301.02 299.96 305.4 295.23L311.69 299.86L305.45 310.37L297.64 307.97Z" /><path class="shp8" d="M292.68 322.87L295.27 327.98C296.62 326.97 308.44 307.92 308.44 307.92L319.36 304.32L321.41 299.88C312.64 291.77 306.09 305.76 306.09 305.76L292.68 322.87Z" /><path class="shp9" d="M304.38 330.12C303.51 325.74 306.51 311.73 307.45 311.08C314.29 313.11 320 313.69 321.58 299.58C317.6 306.29 306.99 303.76 306.99 303.76L303.88 308.52L304.54 310.18L295.52 327.5L304.38 330.12Z" /></g></g><g ><path class="shp4" d="M473.35 271.72L467.23 271.58L456.04 318.69L458.42 333.53L473.35 271.72Z" /><path class="shp5" d="M479.77 240.31L475.59 276.62L471.12 276.33L479.77 240.31Z" /><path class="shp4" d="M468.13 320.27L486.94 269.7L479.92 269.27L457.97 331.08L468.13 320.27Z" /><path class="shp5" d="M495.75 240.89L487.98 276.04L481.72 276.04L495.75 240.89Z" /><path class="shp4" d="M484.85 302.55L495.9 278.78L491.12 277.77L470.96 317.25L484.85 302.55Z" /><path class="shp5" d="M510.38 250.97L498.14 284.4L491.87 284.4L510.38 250.97Z" /><path class="shp6" d="M483.35 306.14L533.46 251.42C549.11 263.81 546.2 286.58 546.2 286.58L489.42 331.13L483.35 306.14Z" /><path class="shp7" d="M454.37 336.25L491.55 298.58C507.26 299.13 494.79 322.6 494 325.55L454.37 359.45L454.37 336.25Z" /><path class="shp4" d="M457.53 329.77L534.4 247.46L537.4 249.58L456.06 339.97L457.53 329.77ZM538.84 242.18L540.53 240.22L540.36 236.32L556.22 226.22L549.13 242.18L543.73 243.16L542.05 245.11L538.84 242.18Z" /><path class="shp4" d="M546.94 248.04C544.24 244.79 541.03 241.53 535.29 238.44L530.91 244.79L540.35 252.77L546.94 248.04Z" /><path class="shp8" d="M555.38 261.93L552.8 266.43C551.21 265.83 535.14 251.27 535.14 251.27L523.61 250.92L520.29 247.25C528.76 238.13 536.73 248.55 536.73 248.55L555.38 261.93Z" /><path class="shp9" d="M546.18 269.51C545.57 265.48 537.96 255.42 536.85 255.07C531.14 256.78 525.83 260.07 520.05 247.01C525.08 253.41 535.26 246.9 535.26 246.9L539.68 250.57L539.55 252.34L552.93 264.77L546.18 269.51Z" /><path class="shp6" d="M505.24 320.64L568.2 270.62C578.98 281.59 570.02 315.46 570.02 315.46L508.48 348.81L505.24 320.64Z" /><path class="shp7" d="M453.03 361.16L504.82 319.66C522.51 322.14 508.61 348.18 507.55 351.05L452.86 380.72L453.03 361.16Z" /><path class="shp4" d="M455.09 352.78L567.07 268.7L569.65 271.29L452.04 363.14L455.09 352.78ZM572.4 264.25L574.41 262.61L574.95 258.73L592.38 251.45L582.53 265.97L577.04 266.03L575.03 267.67L572.4 264.25Z" /><path class="shp4" d="M579.32 271.37C577.24 267.72 574.67 263.97 569.58 259.97L564.12 265.48L571.99 274.92L579.32 271.37Z" /><path class="shp8" d="M585.56 285.44L584.86 290.08C583.38 289.26 569.26 273.75 569.26 273.75L557.92 271.66L555.61 268.01C563.49 258.74 571.88 271.07 571.88 271.07L585.56 285.44Z" /><path class="shp9" d="M576.59 293.78C577.13 289.48 571.25 276.85 570.22 276.34C563.44 278.35 557.53 281.39 555.04 267.26C558.97 274.34 570.21 268.85 570.21 268.85L573.98 273.15L573.44 275.47L584.88 290.24L576.59 293.78Z" /><g ><path class="shp6" d="M509.75 351.23C510.58 351.02 590.89 305.46 590.89 305.46C596.74 315.33 591.46 329.65 588.89 331.88C588.74 338.46 591.53 341.99 585.79 355.72C584.1 364.65 579.97 372.87 573.96 377.76C566.64 405.88 537.93 407.77 526.87 384.87L509.75 351.23Z" /><path class="shp7" d="M456.6 381.3L511.59 349.06C529.28 351.55 511.22 384.37 510.16 387.24L457.07 406.1L456.6 381.3Z" /><path class="shp4" d="M465.84 369.61L590.08 303.48L592.2 306.42L461.15 379.39L465.84 369.61ZM596.06 299.88L598.31 298.57L599.48 294.82L617.88 290.26L605.79 303.12L600.36 302.34L598.1 303.66L596.06 299.88Z" /><path class="shp4" d="M601.74 307.97C600.29 304.04 598.35 299.96 593.98 295.23L587.68 299.86L593.93 310.37L601.74 307.97Z" /><path class="shp8" d="M606.7 322.87L604.1 327.98C602.76 326.97 590.94 307.92 590.94 307.92L580.02 304.32L577.96 299.88C586.74 291.77 593.29 305.76 593.29 305.76L606.7 322.87Z" /><path class="shp9" d="M594.99 330.12C595.87 325.74 592.87 311.73 591.92 311.08C585.09 313.11 579.38 313.69 577.8 299.58C581.78 306.29 592.38 303.76 592.38 303.76L595.5 308.52L594.84 310.18L603.86 327.5L594.99 330.12Z" /></g></g></g><g ><path class="shp10" d="M444.55 193.22L442.51 232.98L455.22 232.98L453.36 193.57L466.61 191.71L465.14 176.01L432.23 177.28L432.41 191.54L444.55 193.22L444.55 193.22Z" /><g ><path class="shp11" d="M449.2 176.99C415.17 142.92 388.38 159.54 382 164.27C386.22 165.09 390 162.46 391.96 162.16C390.73 163.71 388.17 167.55 388.17 167.55C388.17 167.55 398.69 162.58 399.86 163.03C398.34 164.24 396.67 167.14 396.67 167.14C397.45 167.44 403.37 162.5 404.54 162.42C402.74 164.46 402.18 169.11 402.18 169.11L407.31 166.72C408.64 167.67 406.93 169.49 408.09 169.39C416.61 168.69 428.59 177.18 430.24 179.79" /><path class="shp11" d="M440.77 183.22C437.22 175.1 372.46 161.29 359.44 184.29C364.54 185.58 369.41 180.01 369.41 180.01L368.97 185.15L377.61 178.52L374.51 185.36L381.38 179.8L381.16 185.36L389.58 176.17L388.47 181.51L396.01 178.3L395.12 182.79" /><path class="shp11" d="M437.89 184.51C421.27 173.39 395.56 180.87 395.56 180.87C379.17 190.07 370.42 188.41 368.3 205.46C369.86 204.82 374.29 199.47 374.29 199.47L377.62 206.11L378.72 196.7L381.38 203.97L385.37 191.99L386.26 200.12L392.46 191.99L395.34 194.34L398 188.14L400.44 192.2C400.44 192.2 404.65 189.64 407.09 191.13L411.75 185.79L412.85 189.64L416.84 184.94L418.39 188.36L422.38 184.72L422.16 187.29L435.9 187.5" /><path class="shp11" d="M434.13 186.43C422.55 186.21 389.32 198.76 380.72 211.88C381.17 211.62 381.62 211.37 382.08 211.13C382.53 210.88 382.99 210.65 383.45 210.41C383.92 210.18 384.38 209.96 384.85 209.74C385.31 209.52 385.78 209.3 386.26 209.1L387.95 214.37L390.03 209.1L390.46 213.16C391.74 209.99 393.17 209.63 395.57 212.94L396.45 208.03L397.78 212.73L400 207.6C400 207.6 401.39 213.16 402.21 212.95C402.21 212.95 405.89 203.33 407.53 202.89L407.97 208.88L410.19 202.89L412.19 207.39L412.63 200.97L414.84 205.89C414.84 205.89 416.01 201.05 417.73 200.11L421.05 203.11L435.85 192.47" /><path class="shp11" d="M436.36 189.17C420.93 195.09 407.13 216.25 408.18 225.23C415.04 216.72 413.57 217.89 416.63 227.68C416.63 227.68 417.79 219.11 418.95 218.09L420.97 224.43L421.71 216.14L423.77 216.24L423.24 211.03L426.31 213.38C425.59 210.41 424.83 209.4 428 206.85C428 206.85 423.98 207.36 427.15 200.12L430.11 202.98C430.11 202.98 429.59 199.82 430.64 198.59L441.53 194.82" /><path fill-rule="evenodd" class="shp11" d="M448.47 194.08L448.62 198.69L445.93 199.55L446.37 203.74L442.64 204.46L448.17 210.81L445.33 210.23C444.73 212.24 446.82 219.17 446.82 219.17L441.29 213.11C440.84 217.73 446.67 225.09 446.67 225.09L438.6 222.63L447.27 235.61L439.65 229.41L447.42 241.24C443.68 242.1 437.56 232.87 437.56 232.87L443.08 247.44L433.22 237.2C431.88 238.64 433.07 250.18 433.07 250.18C428.59 242.68 428.29 241.81 429.19 232.01L425.45 236.19C424.7 228.11 429.63 222.78 429.63 222.78L424.55 227.25C425.6 222.63 433.07 214.99 433.07 214.99L424.25 218.88C425.3 210.37 433.97 207.2 433.97 207.2L428.29 207.78L435.01 202.73L432.03 201.86L437.85 190.76M443.68 194.08C435.79 204.78 436.42 220.21 434.72 231.03L443.68 194.08ZM434.72 231.03L433.22 237.2C433.89 235.41 434.36 233.32 434.72 231.03Z" /></g><g ><path class="shp11" d="M450.18 176.99C484.21 142.92 511 159.54 517.38 164.27C513.16 165.09 509.38 162.46 507.42 162.16C508.64 163.71 511.21 167.55 511.21 167.55C511.21 167.55 500.69 162.58 499.52 163.03C501.03 164.24 502.7 167.14 502.7 167.14C501.92 167.44 496.01 162.5 494.84 162.42C496.64 164.46 497.2 169.11 497.2 169.11L492.07 166.72C490.74 167.67 492.44 169.49 491.28 169.39C482.76 168.69 470.79 177.18 469.14 179.79" /><path class="shp11" d="M458.6 183.22C462.15 175.1 526.91 161.29 539.94 184.29C534.84 185.58 529.96 180.01 529.96 180.01L530.41 185.15L521.77 178.52L524.87 185.36L518 179.8L518.22 185.36L509.8 176.17L510.91 181.51L503.37 178.3L504.26 182.79" /><path class="shp11" d="M461.48 184.51C478.11 173.39 503.82 180.87 503.82 180.87C520.21 190.07 528.95 188.41 531.07 205.46C529.52 204.82 525.09 199.47 525.09 199.47L521.76 206.11L520.66 196.7L518 203.97L514.01 191.99L513.12 200.12L506.91 191.99L504.03 194.34L501.37 188.14L498.94 192.2C498.94 192.2 494.73 189.64 492.29 191.13L487.63 185.79L486.53 189.64L482.54 184.94L480.98 188.36L477 184.72L477.22 187.29L463.48 187.5" /><path class="shp11" d="M465.24 186.43C476.83 186.21 510.06 198.76 518.65 211.88C518.21 211.62 517.75 211.37 517.3 211.13C516.84 210.88 516.38 210.65 515.92 210.41C515.46 210.18 515 209.96 514.53 209.74C514.06 209.52 513.59 209.3 513.12 209.1L511.42 214.37L509.35 209.1L508.91 213.16C507.64 209.99 506.2 209.63 503.81 212.94L502.93 208.03L501.59 212.73L499.38 207.6C499.38 207.6 497.99 213.16 497.16 212.95C497.16 212.95 493.49 203.33 491.84 202.89L491.41 208.88L489.19 202.89L487.19 207.39L486.75 200.97L484.53 205.89C484.53 205.89 483.37 201.05 481.65 200.11L478.33 203.11L463.53 192.47" /><path class="shp11" d="M463.02 189.17C478.45 195.09 492.25 216.25 491.19 225.23C484.34 216.72 485.81 217.89 482.75 227.68C482.75 227.68 481.59 219.11 480.42 218.09L478.41 224.43L477.67 216.14L475.61 216.24L476.13 211.03L473.07 213.38C473.78 210.41 474.55 209.4 471.38 206.85C471.38 206.85 475.4 207.36 472.22 200.12L469.27 202.98C469.27 202.98 469.79 199.82 468.74 198.59L457.85 194.82" /><path fill-rule="evenodd" class="shp11" d="M461.52 190.76L467.35 201.86L464.36 202.73L471.09 207.78L465.41 207.2C465.41 207.2 474.08 210.37 475.13 218.88L466.3 214.99C466.3 214.99 473.78 222.63 474.83 227.25L469.74 222.78C469.74 222.78 474.67 228.11 473.93 236.19L470.19 232.01C471.09 241.81 470.79 242.68 466.3 250.18C466.3 250.18 467.5 238.64 466.15 237.2L456.29 247.44L461.82 232.87C461.82 232.87 455.69 242.1 451.96 241.24L459.73 229.41L452.11 235.61L460.77 222.63L452.71 225.09C452.71 225.09 458.53 217.73 458.09 213.11L452.56 219.17C452.56 219.17 454.65 212.24 454.05 210.23L451.21 210.81L456.74 204.46L453 203.74L453.45 199.55L450.76 198.69L450.91 194.08M464.66 231.03C462.96 220.21 463.59 204.78 455.69 194.08L464.66 231.03ZM466.15 237.2L464.66 231.03C465.02 233.32 465.48 235.41 466.15 237.2Z" /></g><path class="shp4" d="M454.54 372.63C454.54 372.63 459.75 329.04 459.73 310.28C459.73 295.51 456.17 262.79 456.17 262.79L441.19 262.79C441.19 262.79 438.91 295.35 439.26 310.08C439.69 328.85 444.45 372.63 444.45 372.63L454.54 372.63L454.54 372.63Z" /><path class="shp4" d="M440.2 264.89L457.56 264.89L455.52 253.2L442.94 253.2L440.2 264.89Z" /><path class="shp4" d="M441.31 255.52L456.82 255.52L453.9 243.84L444.34 243.84L441.31 255.52Z" /><path class="shp4" d="M442.31 246.05L455.24 246.05L453.05 234.36L444.83 234.36L442.31 246.05Z" /><path class="shp4" d="M453.5 232.98L444.47 232.98L443.55 237.2L454.24 237.2L453.5 232.98Z" /><path class="shp12" d="M455.74 363.13L443.49 363.13M456.36 354.6L442.66 354.6" /><path class="shp13" d="M457.37 346.06L441.68 346.06" /><path class="shp4" d="M458.09 336.44L441 336.44" /><path class="shp14" d="M458.84 327.07L440.36 327.07M459.35 318.44L439.66 318.44" /><path class="shp4" d="M459.71 310.59L439.27 310.59M459.27 301.12L439.21 301.12M459 291.76L439.59 291.76" /><path class="shp14" d="M458.07 282.25L439.87 282.25" /><path class="shp15" d="M457.24 273.66L440.48 273.66" /><path class="shp8" d="M449.6 164.48C446.58 163.06 439.76 158.72 441.79 156.14L444.91 150.81C449.34 140.83 444.83 144.7 444.36 141.58C443.91 138.59 461.29 140.93 461.55 147.71C461.62 149.57 460.26 148.48 460.45 159.15L457.14 165.54C454.66 165.77 451.73 165.48 449.6 164.48L449.6 164.48Z" /><path class="shp4" d="M451.72 190.29L447.39 186.65L448.59 155.51L452.82 156.75L451.72 190.29Z" /><path class="shp9" d="M457.32 165.36C460.04 163.77 461.81 159.04 460.17 156.22C455.72 150.58 452.84 152.91 445.37 150.37C443.88 151.95 440.75 155.01 441.42 157.29C451.24 161.92 447.43 157.97 450.68 158.55C452.43 158.86 453.56 160.94 457.32 165.36L457.32 165.36Z" /></g><g ><path class="shp16" d="M399.76 345.09C398.6 342.93 395.11 341.36 391 341.36C386.89 341.36 383.43 342.93 382.27 345.09C382.2 344.97 382.14 344.85 382.08 344.72C382.03 344.6 381.99 344.47 381.95 344.33C381.91 344.2 381.89 344.07 381.87 343.93C381.85 343.79 381.83 343.66 381.83 343.52C381.83 340.59 385.94 338.22 391 338.22C396.06 338.22 400.17 340.59 400.17 343.52C400.17 343.66 400.16 343.79 400.14 343.93C400.12 344.07 400.1 344.2 400.06 344.33C400.03 344.47 399.99 344.6 399.93 344.72C399.88 344.85 399.83 344.97 399.76 345.09L399.76 345.09Z" /><path class="shp17" d="M398.98 351.66C398.98 357.35 395.41 361.97 391.01 361.97C386.61 361.97 383.04 357.35 383.04 351.66L383.04 346.07L398.98 346.07L398.98 351.66Z" /><path class="shp2" d="M391.01 348.2C386.63 348.2 383.09 346.44 383.09 344.27C383.09 342.09 386.63 340.33 391.01 340.33C395.38 340.33 398.92 342.09 398.92 344.27C398.92 346.44 395.38 348.2 391.01 348.2Z" /><path class="shp18" d="M389.2 348.7L387.84 334.25L393.9 334.25L392.91 348.7L389.2 348.7Z" /><path class="shp16" d="M399.77 344.51C398.61 346.67 395.12 348.24 391.01 348.24C386.9 348.24 383.44 346.67 382.27 344.51C382.21 344.63 382.15 344.75 382.09 344.88C382.04 345 382 345.13 381.96 345.27C381.92 345.4 381.89 345.53 381.87 345.67C381.85 345.81 381.84 345.94 381.84 346.08C381.84 349.01 385.95 351.38 391.01 351.38C396.07 351.38 400.18 349.01 400.18 346.08C400.18 345.94 400.17 345.81 400.15 345.67C400.13 345.53 400.11 345.4 400.07 345.27C400.04 345.13 399.99 345 399.94 344.88C399.89 344.75 399.83 344.63 399.77 344.51L399.77 344.51Z" /><g ><path class="shp4" d="M432.62 400.03L401.68 390.43L388.2 367.4L340.47 365.06L342.12 382.33L382.79 390.12L386.66 397.05L433.4 410.06L432.62 400.03Z" /><path class="shp19" d="M400.31 406.47L351.45 334.59L349.06 336.39L397.52 408.57L400.31 406.47Z" /><path class="shp5" d="M356 337.41L350.79 328.68C349.81 327.07 348.33 326.54 346.15 327.68C344.03 328.8 344.23 331.02 345.1 332.61L349.92 340.72L356 337.41Z" /><path class="shp4" d="M406.11 362.08L307.53 352.06L305.13 366.39L403.24 376.26L406.11 362.08Z" /><path class="shp4" d="M305.77 348.36L303.22 368.25L307.37 368.25L310.25 350.06L305.77 348.36ZM322.23 351.59L321.11 369.48L323.67 369.78L325.74 353.91L322.23 351.59ZM389.02 359.3L386.62 376.11L391.42 375.95L393.33 359.3L389.02 359.3ZM403.7 359.76L400.29 379.2L405.72 379.99L407.27 369.77C407.7 371.82 409.59 373.38 411.85 373.38C414.43 373.38 416.54 371.34 416.54 368.85C416.54 366.36 414.43 364.36 411.85 364.36C410.06 364.36 408.43 365.41 407.73 367.37L408.74 360.08L403.7 359.76ZM368.12 362.92L354.57 378.18L356.15 380.04L373.55 368.15L368.12 362.92ZM336.6 400.97L350.16 385.71L348.58 383.85L331.18 395.74L336.6 400.97ZM372.08 397.15L355.59 384.4L353.89 385.59L366.88 402.06L372.08 397.15ZM331.41 367.71L348.13 380.03L350.16 378.51L337.06 362.05L331.41 367.71ZM349.6 357.55L351.2 377.59L353.45 377.5L358.74 357.98L349.6 357.55ZM355.08 406.18L353.48 386.14L351.01 385.9L347.98 406.18L355.08 406.18ZM377.26 379.17L356.24 381.4L355.92 383.41L377.18 386.19L377.26 379.17ZM327.26 386.11L347.77 382.86L348.21 381.27L326.99 378.9L327.26 386.11Z" /><path class="shp4" d="M352.24 386.82C349.17 386.82 346.68 384.42 346.68 381.46C346.68 378.49 349.17 376.09 352.24 376.09C355.32 376.09 357.81 378.49 357.81 381.46C357.81 384.42 355.32 386.82 352.24 386.82Z" /><path fill-rule="evenodd" class="shp20" d="M381.8 381.46C381.8 397.2 368.56 409.98 352.24 409.98C335.93 409.98 322.68 397.2 322.68 381.46C322.68 365.71 335.93 352.94 352.24 352.94C368.56 352.94 381.8 365.71 381.8 381.46ZM352.24 358.63C339.19 358.63 328.59 368.86 328.59 381.46C328.59 394.05 339.18 404.28 352.24 404.28C365.3 404.28 375.9 394.05 375.9 381.46C375.9 368.86 365.3 358.63 352.24 358.63Z" /><path class="shp4" d="M333.78 367.06L329.15 363.57M366.88 363.68L370.84 359.65M375.35 399.66L370.5 395.85M333.78 404.02L337.96 399.55M433.33 353.29L438.39 379.09L434.26 381.27L429.82 353.66L433.33 353.29Z" /><path class="shp5" d="M430.68 349.97C428.34 348.99 425.28 350.65 420.28 344.3C412.05 351.86 419.81 352.98 421.06 360.46C423.38 361.42 424.82 354.66 431.15 353.97C431.93 353.89 441.22 353.08 441.22 353.08L438.89 349.9C438.89 349.9 432.43 350.07 430.68 349.97Z" /><path class="shp5" d="M434.04 355.03L433.1 347.33C432.09 344.61 428.72 346.95 428.72 348.53L429.59 355.63L434.04 355.03Z" /><path fill-rule="evenodd" class="shp4" d="M413.41 376.29L413.32 381.94C414.61 381.87 419.21 382.56 419.37 388.7L419.34 399.53C419.27 401.86 417.11 404.72 415.97 404.72L411.75 404.57L411.6 409.55C412.47 410.57 414.76 411.34 416.5 411.99C419.76 413.21 418.41 415.37 411.9 416.79L407.63 416.64C402.1 415.25 401.95 413.14 403.16 412.05C404.37 410.96 406.95 410.9 407.78 409.51L407.7 388.6C407.62 386.04 407.26 384.28 409.61 383.48L409.53 376.3L413.41 376.29ZM416.67 388.27C416.75 386.51 414.24 384.95 413.23 384.91C412.22 384.86 410.01 386.95 409.94 388.71L409.94 393.09C410.08 394.7 411.37 400.15 413.94 400.54C415.17 400.73 416.75 398.79 416.75 397.18L416.68 388.27L416.67 388.27Z" /><path fill-rule="evenodd" class="shp5" d="M381.09 398.02C378.3 396.9 378.33 403.16 378.33 403.16L382.72 403.2C384.65 404.08 386.19 406.9 384.96 408.28C383.95 409.43 375.42 406.35 374.85 408.12C376.35 416.63 387.63 419.9 391.71 416.18C395.7 412.54 396.71 402.82 383.75 400.28L381.09 398.02ZM383.69 400.34L382.41 403.14" /><path class="shp4" d="M296.37 401.21L292.15 383.46M301.49 400.19L295.01 386.37M312.65 396.56L298.03 388.7M318.98 394.96L291.85 383.17" /><path class="shp9" d="M275.65 370.34C275.65 370.34 265.77 370.19 264.01 370.88C263.3 371.16 266.5 374.5 265.83 375.77C263.37 380.51 246.58 379.86 245.25 378.83C242.98 377.05 260.89 375.53 261.01 374.32C261.14 372.93 258.35 369.29 258.79 367.06C259.35 364.16 266.62 363.09 266.62 363.09L275.65 370.34Z" /><path class="shp19" d="M288.88 379.27L266.52 360.77C266.52 360.77 265.53 359.72 264.71 360.62C263.9 361.5 265.01 362.51 265.01 362.51L288.07 381.57L288.88 379.27Z" /><path class="shp4" d="M310.41 397.54C310.01 397.16 292.2 381.72 292.2 381.72L291.01 377.22C291.01 377.22 288.26 379.08 287.25 380.04C286.24 381.01 284.68 383.63 284.68 383.63L289.66 383.86L305.42 398.3L310.41 397.54Z" /><path class="shp4" d="M373.46 421.88C371.66 421.88 370.21 420.48 370.21 418.75C370.21 417.01 371.66 415.61 373.46 415.61C375.25 415.61 376.7 417.01 376.7 418.75C376.7 420.48 375.25 421.88 373.46 421.88Z" /><path class="shp4" d="M365.16 416.01C363.37 416.01 361.92 414.61 361.92 412.87C361.92 411.14 363.37 409.74 365.16 409.74C366.96 409.74 368.4 411.14 368.4 412.87C368.4 414.61 366.96 416.01 365.16 416.01Z" /><path class="shp4" d="M353.99 419.85C352.19 419.85 350.74 418.45 350.74 416.72C350.74 414.98 352.19 413.58 353.99 413.58C355.78 413.58 357.23 414.98 357.23 416.72C357.23 418.45 355.78 419.85 353.99 419.85Z" /><path class="shp4" d="M336.73 423.59C334.94 423.59 333.49 422.18 333.49 420.45C333.49 418.72 334.94 417.32 336.73 417.32C338.52 417.32 339.97 418.72 339.97 420.45C339.97 422.18 338.52 423.59 336.73 423.59Z" /><path class="shp4" d="M329.43 424.44C327.64 424.44 326.19 423.04 326.19 421.31C326.19 419.57 327.64 418.17 329.43 418.17C331.22 418.17 332.67 419.57 332.67 421.31C332.67 423.04 331.22 424.44 329.43 424.44Z" /><path class="shp4" d="M322.24 424.44C320.44 424.44 319 423.04 319 421.31C319 419.57 320.44 418.17 322.24 418.17C324.03 418.17 325.48 419.57 325.48 421.31C325.48 423.04 324.03 424.44 322.24 424.44Z" /><path class="shp4" d="M314.94 424.23C313.14 424.23 311.69 422.82 311.69 421.09C311.69 419.36 313.14 417.96 314.94 417.96C316.73 417.96 318.18 419.36 318.18 421.09C318.18 422.82 316.73 424.23 314.94 424.23Z" /><path class="shp4" d="M318.48 418.68C316.68 418.68 315.24 417.28 315.24 415.54C315.24 413.81 316.68 412.41 318.48 412.41C320.27 412.41 321.72 413.81 321.72 415.54C321.72 417.28 320.27 418.68 318.48 418.68Z" /><path class="shp4" d="M325.56 419C323.77 419 322.32 417.6 322.32 415.86C322.32 414.13 323.77 412.73 325.56 412.73C327.35 412.73 328.8 414.13 328.8 415.86C328.8 417.6 327.35 419 325.56 419Z" /><path class="shp4" d="M332.31 418.14C330.52 418.14 329.07 416.74 329.07 415.01C329.07 413.28 330.52 411.87 332.31 411.87C334.1 411.87 335.55 413.28 335.55 415.01C335.55 416.74 334.1 418.14 332.31 418.14Z" /><path class="shp4" d="M328.88 412.7C327.08 412.7 325.63 411.3 325.63 409.56C325.63 407.83 327.08 406.43 328.88 406.43C330.67 406.43 332.12 407.83 332.12 409.56C332.12 411.3 330.67 412.7 328.88 412.7Z" /><path class="shp4" d="M322.24 412.59C320.44 412.59 319 411.19 319 409.46C319 407.73 320.44 406.33 322.24 406.33C324.03 406.33 325.48 407.73 325.48 409.46C325.48 411.19 324.03 412.59 322.24 412.59Z" /><path fill-rule="evenodd" class="shp4" d="M390.71 422.85C390.71 421.46 387.34 422.06 387.34 420.43C387.34 418.63 392.48 419.95 393.19 421.54C396.08 418.93 397.32 420.84 399.09 421.63C401.61 417.88 404.73 418.02 407.77 420.76C409.53 418.82 413.95 419.46 415.47 421.63C418.38 418.73 420.97 419.45 422.99 421.54C423.8 420.02 425 420.36 425.86 421.45C427.41 418.7 431.3 419.52 432.94 421.35C434.39 419.74 435.89 421 437.82 422.18C439.12 420.95 441.23 421.18 441.23 422.4C441.23 423.67 438.48 423.22 438.48 424.48C438.48 425.6 440.48 425.03 440.48 426.45C440.48 427.57 437.5 427.98 437.04 426.2C436.04 428.13 432.39 427.39 432.03 425.6C430.82 427.07 428.1 427.51 426.57 425.34C425.32 426.36 423.81 426.51 423.12 425.47C420.86 427.91 417.04 427.41 415.72 424.73L414.44 424.78C412.21 427.81 408.73 426.4 407.77 424.74C404.04 427.43 401.81 426.58 399.72 424.83C397.32 427.75 393.67 427.54 392.83 424.83C391.21 426 387.84 426.27 387.84 424.9C387.84 423.58 390.71 424.06 390.71 422.85ZM396.05 422.36C395 422.36 394.14 422.88 394.14 423.5C394.14 424.13 395 424.64 396.05 424.64C397.1 424.64 397.96 424.13 397.96 423.5C397.96 422.88 397.1 422.36 396.05 422.36ZM403.64 421.18C402.37 421.18 401.34 421.79 401.34 422.55C401.34 423.3 402.37 423.91 403.64 423.91C404.9 423.91 405.93 423.3 405.93 422.55C405.93 421.79 404.91 421.18 403.64 421.18ZM419.52 422.03C418.38 422.03 417.45 422.65 417.45 423.41C417.45 424.18 418.38 424.8 419.52 424.8C420.67 424.8 421.6 424.18 421.6 423.41C421.6 422.65 420.67 422.03 419.52 422.03ZM411.23 421.29C410.11 421.29 409.19 422.08 409.19 423.05C409.19 424.01 410.11 424.8 411.23 424.8C412.35 424.8 413.26 424.01 413.26 423.05C413.26 422.08 412.35 421.29 411.23 421.29ZM429.23 421.53C428.23 421.53 427.42 422.23 427.42 423.09C427.42 423.96 428.23 424.66 429.23 424.66C430.23 424.66 431.05 423.96 431.05 423.09C431.05 422.23 430.23 421.53 429.23 421.53ZM424.43 422.45C423.78 422.45 423.25 422.9 423.25 423.46C423.25 424.02 423.78 424.47 424.43 424.47C425.07 424.47 425.6 424.02 425.6 423.45C425.6 422.9 425.07 422.45 424.43 422.45ZM434.89 422.41C434.16 422.41 433.57 423.06 433.57 423.87C433.57 424.67 434.16 425.32 434.89 425.32C435.62 425.32 436.21 424.67 436.21 423.87C436.21 423.06 435.62 422.41 434.89 422.41Z" /></g><g ><path class="shp4" d="M466.76 400.03L497.69 390.43L511.17 367.4L558.91 365.06L557.25 382.33L516.59 390.12L512.72 397.05L465.98 410.06L466.76 400.03Z" /><path class="shp19" d="M499.07 406.47L547.92 334.59L550.32 336.39L501.85 408.57L499.07 406.47Z" /><path class="shp5" d="M543.37 337.41L548.59 328.68C549.57 327.07 551.05 326.54 553.23 327.68C555.35 328.8 555.14 331.02 554.28 332.61L549.46 340.72L543.37 337.41Z" /><path class="shp4" d="M493.26 362.08L591.85 352.06L594.24 366.39L496.14 376.26L493.26 362.08Z" /><path class="shp4" d="M593.6 348.36L596.16 368.25L592 368.25L589.13 350.06L593.6 348.36ZM577.15 351.59L578.27 369.48L575.71 369.78L573.63 353.91L577.15 351.59ZM510.36 359.3L512.76 376.11L507.96 375.95L506.05 359.3L510.36 359.3ZM495.67 359.76L499.09 379.2L493.66 379.99L492.11 369.77C491.67 371.82 489.78 373.38 487.53 373.38C484.95 373.38 482.84 371.34 482.84 368.85C482.84 366.36 484.95 364.36 487.53 364.36C489.32 364.36 490.95 365.41 491.65 367.37L490.63 360.08L495.67 359.76ZM531.25 362.92L544.81 378.18L543.23 380.04L525.83 368.15L531.25 362.92ZM562.77 400.97L549.22 385.71L550.8 383.85L568.2 395.74L562.77 400.97ZM527.3 397.15L543.79 384.4L545.49 385.59L532.49 402.06L527.3 397.15ZM567.97 367.71L551.25 380.03L549.22 378.51L562.32 362.05L567.97 367.71ZM549.78 357.55L548.18 377.59L545.93 377.5L540.64 357.98L549.78 357.55ZM544.29 406.18L545.89 386.14L548.37 385.9L551.4 406.18L544.29 406.18ZM522.12 379.17L543.13 381.4L543.45 383.41L522.2 386.19L522.12 379.17ZM572.11 386.11L551.6 382.86L551.17 381.27L572.38 378.9L572.11 386.11Z" /><path class="shp4" d="M547.13 386.82C550.21 386.82 552.7 384.42 552.7 381.46C552.7 378.49 550.21 376.09 547.13 376.09C544.06 376.09 541.57 378.49 541.57 381.46C541.57 384.42 544.06 386.82 547.13 386.82Z" /><path fill-rule="evenodd" class="shp20" d="M547.13 352.94C563.45 352.94 576.69 365.71 576.69 381.46C576.69 397.2 563.45 409.98 547.13 409.98C530.82 409.98 517.58 397.2 517.58 381.46C517.58 365.71 530.82 352.94 547.13 352.94ZM523.48 381.46C523.48 394.05 534.08 404.28 547.13 404.28C560.19 404.28 570.79 394.05 570.79 381.46C570.79 368.86 560.19 358.63 547.13 358.63C534.07 358.63 523.48 368.86 523.48 381.46Z" /><path class="shp4" d="M565.6 367.06L570.23 363.57M532.49 363.68L528.54 359.65M524.02 399.66L528.88 395.85M565.6 404.02L561.42 399.55M466.05 353.29L460.99 379.09L465.12 381.27L469.56 353.66L466.05 353.29Z" /><path class="shp5" d="M468.7 349.97C471.04 348.99 474.1 350.65 479.1 344.3C487.33 351.86 479.57 352.98 478.32 360.46C475.99 361.42 474.56 354.66 468.23 353.97C467.44 353.89 458.16 353.08 458.16 353.08L460.49 349.9C460.49 349.9 466.95 350.07 468.7 349.97Z" /><path class="shp5" d="M465.34 355.03L466.27 347.33C467.29 344.61 470.66 346.95 470.66 348.53L469.79 355.63L465.34 355.03Z" /><path fill-rule="evenodd" class="shp4" d="M489.85 376.3L489.77 383.48C492.12 384.28 491.76 386.04 491.68 388.6L491.6 409.51C492.43 410.9 495.01 410.96 496.22 412.05C497.43 413.14 497.28 415.25 491.75 416.64L487.47 416.79C480.96 415.37 479.62 413.21 482.88 411.99C484.62 411.34 486.91 410.57 487.78 409.55L487.63 404.57L483.41 404.72C482.27 404.72 480.11 401.86 480.03 399.53L480.01 388.7C480.16 382.56 484.77 381.87 486.06 381.94L485.97 376.29L489.85 376.3ZM482.7 388.27L482.63 397.18C482.63 398.79 484.21 400.73 485.43 400.54C488.01 400.15 489.29 394.7 489.44 393.09L489.44 388.71C489.37 386.95 487.16 384.86 486.15 384.91C485.14 384.95 482.63 386.51 482.71 388.27L482.7 388.27Z" /><path fill-rule="evenodd" class="shp5" d="M518.29 398.02C521.08 396.9 521.05 403.16 521.05 403.16L516.66 403.2C514.73 404.08 513.19 406.9 514.42 408.28C515.43 409.43 523.96 406.35 524.53 408.12C523.02 416.63 511.75 419.9 507.67 416.18C503.68 412.54 502.67 402.82 515.63 400.28L518.29 398.02ZM515.68 400.34L516.96 403.14" /><path class="shp4" d="M603.01 401.21L607.23 383.46M597.88 400.19L604.37 386.37M586.73 396.56L601.35 388.7M580.4 394.96L607.53 383.17" /><path class="shp9" d="M623.73 370.34C623.73 370.34 633.6 370.19 635.37 370.88C636.08 371.16 632.88 374.5 633.54 375.77C636.01 380.51 652.8 379.86 654.13 378.83C656.4 377.05 638.49 375.53 638.37 374.32C638.24 372.93 641.02 369.29 640.59 367.06C640.03 364.16 632.75 363.09 632.75 363.09L623.73 370.34Z" /><path class="shp19" d="M610.5 379.27L632.86 360.77C632.86 360.77 633.85 359.72 634.67 360.62C635.48 361.5 634.37 362.51 634.37 362.51L611.3 381.57L610.5 379.27Z" /><path class="shp4" d="M588.97 397.54C589.37 397.16 607.18 381.72 607.18 381.72L608.37 377.22C608.37 377.22 611.12 379.08 612.13 380.04C613.13 381.01 614.7 383.63 614.7 383.63L609.71 383.86L593.96 398.3L588.97 397.54Z" /><path class="shp4" d="M525.92 421.88C527.71 421.88 529.16 420.48 529.16 418.75C529.16 417.01 527.71 415.61 525.92 415.61C524.13 415.61 522.68 417.01 522.68 418.75C522.68 420.48 524.13 421.88 525.92 421.88Z" /><path class="shp4" d="M534.22 416.01C536.01 416.01 537.46 414.61 537.46 412.87C537.46 411.14 536.01 409.74 534.22 409.74C532.42 409.74 530.97 411.14 530.97 412.87C530.97 414.61 532.42 416.01 534.22 416.01Z" /><path class="shp4" d="M545.39 419.85C547.18 419.85 548.63 418.45 548.63 416.72C548.63 414.98 547.18 413.58 545.39 413.58C543.6 413.58 542.15 414.98 542.15 416.72C542.15 418.45 543.6 419.85 545.39 419.85Z" /><path class="shp4" d="M562.65 423.59C564.44 423.59 565.89 422.18 565.89 420.45C565.89 418.72 564.44 417.32 562.65 417.32C560.85 417.32 559.4 418.72 559.4 420.45C559.4 422.18 560.85 423.59 562.65 423.59Z" /><path class="shp4" d="M569.95 424.44C571.74 424.44 573.19 423.04 573.19 421.31C573.19 419.57 571.74 418.17 569.95 418.17C568.15 418.17 566.71 419.57 566.71 421.31C566.71 423.04 568.15 424.44 569.95 424.44Z" /><path class="shp4" d="M577.14 424.44C578.93 424.44 580.38 423.04 580.38 421.31C580.38 419.57 578.93 418.17 577.14 418.17C575.35 418.17 573.9 419.57 573.9 421.31C573.9 423.04 575.35 424.44 577.14 424.44Z" /><path class="shp4" d="M584.44 424.23C586.23 424.23 587.68 422.82 587.68 421.09C587.68 419.36 586.23 417.96 584.44 417.96C582.65 417.96 581.2 419.36 581.2 421.09C581.2 422.82 582.65 424.23 584.44 424.23Z" /><path class="shp4" d="M580.9 418.68C582.69 418.68 584.14 417.28 584.14 415.54C584.14 413.81 582.69 412.41 580.9 412.41C579.11 412.41 577.66 413.81 577.66 415.54C577.66 417.28 579.11 418.68 580.9 418.68Z" /><path class="shp4" d="M573.82 419C575.61 419 577.06 417.6 577.06 415.86C577.06 414.13 575.61 412.73 573.82 412.73C572.02 412.73 570.57 414.13 570.57 415.86C570.57 417.6 572.02 419 573.82 419Z" /><path class="shp4" d="M567.07 418.14C568.86 418.14 570.31 416.74 570.31 415.01C570.31 413.28 568.86 411.87 567.07 411.87C565.28 411.87 563.83 413.28 563.83 415.01C563.83 416.74 565.28 418.14 567.07 418.14Z" /><path class="shp4" d="M570.5 412.7C572.29 412.7 573.74 411.3 573.74 409.56C573.74 407.83 572.29 406.43 570.5 406.43C568.71 406.43 567.26 407.83 567.26 409.56C567.26 411.3 568.71 412.7 570.5 412.7Z" /><path class="shp4" d="M577.14 412.59C578.93 412.59 580.38 411.19 580.38 409.46C580.38 407.73 578.93 406.33 577.14 406.33C575.35 406.33 573.9 407.73 573.9 409.46C573.9 411.19 575.35 412.59 577.14 412.59Z" /><path fill-rule="evenodd" class="shp4" d="M511.53 424.9C511.53 426.27 508.16 426 506.55 424.83C505.71 427.54 502.06 427.75 499.66 424.83C497.57 426.58 495.34 427.43 491.6 424.74C490.65 426.4 487.17 427.81 484.94 424.78L483.65 424.73C482.34 427.41 478.52 427.91 476.26 425.47C475.57 426.51 474.06 426.36 472.81 425.34C471.28 427.51 468.56 427.07 467.35 425.6C466.99 427.39 463.34 428.13 462.33 426.2C461.87 427.98 458.89 427.57 458.89 426.45C458.89 425.03 460.9 425.6 460.9 424.48C460.9 423.22 458.15 423.67 458.15 422.4C458.15 421.18 460.26 420.95 461.56 422.18C463.49 421 464.98 419.74 466.44 421.35C468.08 419.52 471.97 418.7 473.52 421.45C474.38 420.36 475.57 420.02 476.39 421.54C478.4 419.45 480.99 418.73 483.9 421.63C485.42 419.46 489.85 418.82 491.6 420.76C494.64 418.02 497.76 417.88 500.28 421.63C502.05 420.84 503.3 418.93 506.19 421.54C506.9 419.95 512.04 418.63 512.04 420.43C512.04 422.06 508.67 421.46 508.67 422.85C508.67 424.06 511.53 423.58 511.53 424.9ZM501.42 423.5C501.42 424.13 502.27 424.64 503.33 424.64C504.38 424.64 505.24 424.13 505.24 423.5C505.24 422.88 504.38 422.36 503.33 422.36C502.28 422.36 501.42 422.88 501.42 423.5ZM493.44 422.55C493.44 423.3 494.47 423.91 495.74 423.91C497.01 423.91 498.04 423.3 498.04 422.55C498.04 421.79 497.01 421.18 495.74 421.18C494.47 421.18 493.44 421.79 493.44 422.55ZM477.78 423.41C477.78 424.18 478.71 424.8 479.85 424.8C481 424.8 481.93 424.18 481.93 423.41C481.93 422.65 481 422.03 479.85 422.03C478.71 422.03 477.78 422.65 477.78 423.41ZM486.12 423.05C486.12 424.01 487.03 424.8 488.15 424.8C489.27 424.8 490.18 424.01 490.18 423.05C490.18 422.08 489.27 421.29 488.15 421.29C487.03 421.29 486.12 422.08 486.12 423.05ZM468.33 423.09C468.33 423.96 469.14 424.66 470.14 424.66C471.15 424.66 471.96 423.96 471.96 423.09C471.96 422.23 471.15 421.53 470.14 421.53C469.14 421.53 468.33 422.23 468.33 423.09ZM473.78 423.45C473.78 424.02 474.31 424.47 474.95 424.47C475.6 424.47 476.12 424.02 476.12 423.46C476.12 422.9 475.6 422.45 474.95 422.45C474.31 422.45 473.78 422.9 473.78 423.45ZM463.17 423.87C463.17 424.67 463.76 425.32 464.49 425.32C465.22 425.32 465.81 424.67 465.81 423.87C465.81 423.06 465.22 422.41 464.49 422.41C463.76 422.41 463.17 423.06 463.17 423.87Z" /></g><g ><path class="shp21" d="M449.28 369.05C438.28 369.05 429.34 373.19 429.34 378.26C429.34 379.14 429.59 379.97 430.08 380.77C432.46 383.53 440.19 385.54 449.36 385.54C457.93 385.54 465.24 383.77 468.1 381.28C468.82 380.34 469.22 379.33 469.22 378.26C469.22 373.19 460.29 369.05 449.28 369.05L449.28 369.05Z" /><path class="shp15" d="M469.4 378.97L469.4 409.91C469.4 413.54 460.42 416.48 449.36 416.48C438.3 416.48 429.32 413.54 429.32 409.91L429.32 378.97C429.32 382.6 438.3 385.55 449.36 385.55C460.42 385.55 469.4 382.6 469.4 378.97Z" /><path class="shp9" d="M429.32 378.97L429.32 383.72L439.05 413.72L446.82 390.65L455.34 414.6L461.59 391.99L469.4 407.19L469.4 398.78L462.15 384.04C461.93 384.09 461.72 384.15 461.5 384.2C461.28 384.26 461.07 384.31 460.85 384.35C460.63 384.4 460.42 384.45 460.2 384.5C459.98 384.54 459.76 384.58 459.55 384.62L455.04 401.33L448.7 385.54C448.44 385.53 448.18 385.53 447.92 385.53C447.66 385.52 447.39 385.51 447.13 385.51C446.87 385.5 446.61 385.49 446.35 385.48C446.09 385.46 445.83 385.45 445.57 385.44L439.2 401.33L431.92 382.19C430.27 381.24 429.32 380.15 429.32 378.97Z" /><path class="shp22" d="M469.4 404.13L469.4 409.91C469.4 413.53 460.42 416.48 449.36 416.48C438.3 416.48 429.32 413.53 429.32 409.9L429.32 404.13C429.32 407.76 438.3 410.7 449.36 410.7C460.42 410.7 469.4 407.76 469.4 404.13Z" /><path class="shp15" d="M457.61 410.11C455.98 410.35 454.24 410.53 452.42 410.63L452.46 416.4C452.9 416.38 453.33 416.35 453.77 416.32C454.2 416.28 454.64 416.25 455.07 416.2C455.5 416.16 455.94 416.11 456.37 416.06C456.8 416 457.23 415.94 457.66 415.88L457.61 410.11ZM436.27 409.1L436.22 414.85C437.77 415.29 439.51 415.66 441.42 415.93L441.42 410.16C440.98 410.1 440.55 410.03 440.12 409.96C439.69 409.88 439.26 409.8 438.83 409.71C438.4 409.63 437.97 409.53 437.54 409.43C437.12 409.33 436.69 409.22 436.27 409.1L436.27 409.1ZM429.32 404.14L429.32 409.91C429.32 410.99 430.13 411.99 431.54 412.89L431.64 407.19C430.17 406.27 429.32 405.24 429.32 404.14ZM469.4 404.75L469.3 404.78C468.95 405.95 467.64 407.04 465.66 407.95L465.69 413.7C468.01 412.62 469.4 411.33 469.4 409.91L469.4 404.75Z" /><path class="shp23" d="M469.4 379.17L469.4 409.91C469.4 413.54 460.42 416.48 449.36 416.48C438.3 416.48 429.32 413.54 429.32 409.91L429.32 379.17" /><path class="shp24" d="M464.86 376.95C464.86 379.15 457.92 380.93 449.36 380.93C440.8 380.93 433.86 379.15 433.86 376.95C433.86 374.75 440.8 372.97 449.36 372.97C457.92 372.97 464.86 374.75 464.86 376.95Z" /><path class="shp25" d="M444.29 379.89L444.98 385.37C446.33 385.46 447.72 385.53 449.16 385.54L450.17 379.89L444.29 379.89ZM462.27 378.56L458.28 379.64L458.53 384.8C458.85 384.75 459.17 384.69 459.49 384.63C459.8 384.57 460.12 384.5 460.44 384.43C460.75 384.36 461.07 384.29 461.38 384.21C461.7 384.13 462.01 384.05 462.32 383.97L462.27 378.56ZM438.59 370.2C437.46 370.53 436.4 370.92 435.44 371.35L435.99 375.49L438.54 374.68L438.59 370.2ZM449.28 368.56C448.75 368.56 448.23 368.59 447.71 368.61L448.57 373.79L451.22 373.74L452.26 368.68C452.02 368.66 451.77 368.65 451.52 368.63C451.27 368.62 451.02 368.61 450.77 368.6C450.53 368.59 450.28 368.58 450.03 368.57C449.78 368.57 449.53 368.56 449.28 368.56L449.28 368.56ZM461 370.39L460.46 374.92L463.49 375.99L463.82 371.55C463.59 371.43 463.36 371.33 463.13 371.22C462.9 371.12 462.66 371.02 462.43 370.92C462.19 370.83 461.96 370.73 461.72 370.65C461.48 370.56 461.24 370.47 461 370.39L461 370.39Z" /><path class="shp4" d="M432.44 382.56L433.24 376.91L429.15 374.7L429.27 381.12L432.44 382.56ZM469.26 381.34L469.45 375.7L465.61 376.84L469.26 381.34Z" /></g><path class="shp4" d="M509.97 344.12C513.61 343.61 519.01 348.6 519.33 354.78C519.6 359.68 511.93 359.43 511.93 359.43C511.53 361.43 507.3 363.29 503.86 363.44C500.52 363.59 504.77 357.16 504.77 357.16C502.69 351.64 505.42 345.12 505.42 345.12L509.97 344.12Z" /><path class="shp4" d="M504.77 356.91L508.28 356.78C508.28 356.78 508.55 358.6 509.19 358.67C509.88 358.74 510.62 356.91 510.62 356.91L515.95 356.78" /><path class="shp26" d="M511.92 347.75C514.9 345.6 512.29 341.27 510.23 341.23L505.42 341.35C503.15 341.4 499.32 343.87 499.83 346C500.27 347.86 501.52 348.71 503.47 348.38C504.35 348.24 506.21 345.91 507.11 345.87C508.32 345.82 510.96 348.45 511.92 347.75Z" /><path fill-rule="evenodd" class="shp4" d="M293.3 409.1C295.33 408.84 296.42 412.79 296.84 414.78C296.95 414.45 297.12 414.15 297.32 413.87C297.53 413.6 297.78 413.36 298.06 413.16C298.34 412.97 298.65 412.81 298.98 412.71C299.31 412.61 299.65 412.56 299.99 412.56C301.84 412.56 303.35 414.02 303.35 415.81C303.35 417.59 301.84 419.03 299.99 419.03C299.79 419.03 299.59 419.01 299.39 418.98C299.2 418.94 299 418.89 298.81 418.82C298.63 418.75 298.44 418.67 298.27 418.57C298.1 418.46 297.93 418.35 297.78 418.22C298.39 420.51 298.91 423.76 297.27 424.31C294.76 425.15 292.67 421.6 292.28 419.72C281.75 422.72 260.02 428.35 259.99 428.49C260.95 430.01 270.15 432.66 270.15 432.66C270.88 431.24 269.67 428.26 269.67 428.26C275.57 433.04 283.14 433.67 283.14 433.67C280.24 436.45 270.53 441 264.09 439.59C264.09 439.59 268.6 436.37 268.85 435.51C268.85 435.51 252.67 433.05 251.21 429.77C251.63 426.75 261.01 416.62 261.01 416.62C260.27 416.09 255.51 416.62 255.51 416.62C256.98 414.67 269.29 409.89 273.34 410.43C273.34 410.43 266.52 415.03 266.15 421.95C266.15 421.95 265.05 418.58 263.58 417.87C263.58 417.87 258.02 423.88 258.44 425.96C268.82 423.04 279.34 418.72 291.11 415.41C290.09 412.55 290.59 409.44 293.3 409.1ZM300.01 414.28C299.14 414.28 298.44 414.96 298.44 415.8C298.44 416 298.49 416.2 298.57 416.38C298.65 416.57 298.76 416.74 298.91 416.88C299.06 417.02 299.23 417.13 299.42 417.2C299.6 417.28 299.8 417.31 300.01 417.31C300.87 417.31 301.58 416.63 301.58 415.8C301.58 414.96 300.87 414.28 300.01 414.28Z" /><path class="shp4" d="M638.73 422.38C639.53 420.77 638.02 412.68 638.02 412.68C636.39 412.86 634.16 415.67 634.16 415.67C636.26 409.04 630.37 397.97 630.37 397.97C634.35 398.8 647.65 411.68 648.35 414C648.35 414 642.52 411.92 641.64 412.18C642.59 418.78 647.15 421.85 648.87 425.28C648.87 425.28 641.31 426.94 642.07 433.26L637.13 433.36C635.42 431.25 637.79 427.76 637.79 427.76L603.88 413.56C601.69 412.64 596.78 410.41 597.52 407.78C598.26 405.13 606.35 408.88 608.34 409.52L638.73 422.38Z" /><path class="shp4" d="M606.16 416.49L610.15 409.16C611.57 407.23 608.63 405.12 606.54 407.6L602.07 414.29C600.08 417.96 604.26 418.97 606.16 416.49L606.16 416.49Z" /></g><g ><path class="shp5" d="M368.34 433.25L368.07 425.26L358.4 425.79L357.84 434.5L368.34 433.25Z" /><path class="shp5" d="M297.66 444.47L284.73 437.21C338.05 442.1 348.94 423.49 361.83 422.5C369.75 421.89 370.99 431.28 355.64 426.81L359.61 436.63C359.61 436.63 321.75 457.93 284.54 449.13L297.66 444.47ZM529.97 433.25L530.24 425.26L542.08 425.53L542.62 434.24L529.97 433.25Z" /><path class="shp5" d="M603.11 442.51L615.28 435.87C554.19 437.69 568.1 425.83 537.54 422.51C529.64 421.65 523.71 431.8 543.73 426.81L539.76 436.63L549.37 436.64C570.18 450.35 598.26 451.57 616.86 447.17L603.11 442.51Z" /><path class="shp5" d="M355.42 426.86L355.42 440.69C355.42 440.69 389.29 453.26 449.72 453.26C510.42 453.26 544.02 440.69 544.02 440.69L544.02 426.86C544.02 426.86 518.39 438.68 449.72 438.68C381.31 438.68 355.42 426.86 355.42 426.86Z" /></g><path fill-rule="evenodd" class="shp27" d="M360.48 440.77L363.47 430.65L364.86 431.03L362.22 439.95L367.39 441.37L367.04 442.57L360.48 440.77L360.48 440.77ZM370.28 436.32L370.45 434.33L370.9 432.62L372.37 432.98L371.93 434.69L371.08 436.51L370.28 436.31L370.28 436.32ZM384.85 435.63L386.27 435.91L385.01 441.87C384.79 442.91 384.5 443.7 384.13 444.27C383.75 444.83 383.21 445.24 382.5 445.5C381.78 445.75 380.91 445.78 379.88 445.58C378.88 445.38 378.09 445.05 377.53 444.6C376.96 444.14 376.61 443.57 376.47 442.88C376.33 442.2 376.38 441.31 376.61 440.22L377.86 434.26L379.28 434.54L378.02 440.49C377.83 441.38 377.78 442.06 377.86 442.52C377.95 442.98 378.17 443.36 378.55 443.68C378.92 443.99 379.41 444.2 380.01 444.32C381.05 444.53 381.84 444.45 382.38 444.08C382.92 443.71 383.32 442.88 383.6 441.58L384.85 435.63ZM386.45 446.63L388.21 436.25L389.67 436.48L393.94 445.53L395.32 437.37L396.69 437.59L394.93 447.97L393.47 447.74L389.2 438.69L387.81 446.85L386.45 446.63ZM397.58 448.32L399.08 437.89L400.51 438.08L399.01 448.51L397.58 448.32ZM401.69 443.72C401.9 441.98 402.54 440.68 403.62 439.8C404.7 438.93 406.01 438.57 407.54 438.74C408.54 438.85 409.41 439.18 410.16 439.73C410.34 439.86 410.52 440.01 410.68 440.17C410.84 440.33 410.99 440.5 411.12 440.68C411.26 440.86 411.38 441.05 411.49 441.25C411.6 441.44 411.69 441.65 411.77 441.86C412.09 442.73 412.19 443.69 412.07 444.74C411.94 445.8 411.61 446.72 411.07 447.51C410.94 447.7 410.8 447.88 410.64 448.05C410.49 448.22 410.32 448.38 410.14 448.52C409.96 448.66 409.77 448.79 409.57 448.91C409.38 449.02 409.17 449.12 408.96 449.21C408.74 449.29 408.52 449.36 408.3 449.42C408.08 449.48 407.85 449.52 407.62 449.55C407.4 449.58 407.17 449.6 406.94 449.6C406.71 449.6 406.48 449.59 406.25 449.56C405.23 449.45 404.34 449.11 403.6 448.55C403.42 448.41 403.24 448.26 403.08 448.1C402.92 447.94 402.78 447.77 402.64 447.59C402.51 447.41 402.38 447.22 402.28 447.02C402.17 446.82 402.08 446.61 402 446.4C401.92 446.18 401.86 445.97 401.81 445.75C401.75 445.52 401.71 445.3 401.69 445.08C401.66 444.85 401.65 444.62 401.65 444.4C401.65 444.17 401.66 443.94 401.69 443.72L401.69 443.72ZM403.17 443.9C403.02 445.16 403.25 446.19 403.87 447C404.48 447.8 405.32 448.26 406.38 448.38C407.46 448.5 408.39 448.23 409.18 447.57C409.96 446.92 410.43 445.92 410.59 444.57C410.69 443.72 410.63 442.96 410.41 442.29C410.36 442.13 410.29 441.98 410.22 441.83C410.14 441.68 410.06 441.53 409.96 441.39C409.87 441.26 409.76 441.13 409.65 441.01C409.53 440.88 409.41 440.77 409.27 440.67C409.14 440.57 409 440.47 408.85 440.39C408.7 440.31 408.55 440.23 408.39 440.17C408.23 440.11 408.07 440.06 407.9 440.02C407.74 439.98 407.57 439.95 407.4 439.93C406.39 439.82 405.47 440.06 404.66 440.65C403.85 441.25 403.35 442.33 403.17 443.9L403.17 443.9ZM413.28 450.11L413.28 450.11L413.28 450.11L413.28 450.11ZM414.17 439.62L415.65 439.74L420.66 448.42L421.36 440.19L422.74 440.3L421.85 450.79L420.37 450.67L415.36 441.98L414.66 450.22L413.28 450.11L414.17 439.62ZM428.57 451.17L429.05 440.66L436.4 440.97L436.34 442.21L430.43 441.96L430.29 445.22L435.4 445.43L435.35 446.67L430.23 446.46L430.02 451.23L428.57 451.17L428.57 451.17ZM436.61 451.52L441.01 441.07L442.56 441.1L446.81 451.71L445.17 451.68L443.96 448.47L439.4 448.38L438.14 451.55L436.61 451.52ZM439.84 447.25L443.54 447.32L442.46 444.39C442.39 444.21 442.32 444.03 442.26 443.84C442.19 443.66 442.13 443.48 442.07 443.3C442.01 443.11 441.95 442.93 441.89 442.75C441.84 442.56 441.78 442.38 441.73 442.19C441.69 442.36 441.65 442.53 441.6 442.7C441.56 442.87 441.51 443.04 441.45 443.2C441.4 443.37 441.35 443.53 441.29 443.7C441.23 443.86 441.17 444.03 441.1 444.19L439.84 447.25L439.84 447.25ZM448.23 451.68L448.25 441.16L449.69 441.16L449.67 451.69L448.23 451.68ZM454.99 451.65L454.85 442.37L451.25 442.42L451.24 441.18L459.88 441.06L459.9 442.3L456.29 442.35L456.43 451.63L454.98 451.66L454.99 451.65ZM465.69 451.4L465.18 440.89L466.62 440.82L467.07 450.1L472.43 449.85L472.49 451.09L465.69 451.4L465.69 451.4ZM473.03 451.08L476.43 440.3L477.98 440.19L483.21 450.38L481.57 450.49L480.06 447.4L475.51 447.71L474.55 450.97L473.03 451.08L473.03 451.08ZM475.85 446.55L479.54 446.3L478.19 443.47C478.1 443.3 478.02 443.12 477.94 442.95C477.85 442.77 477.77 442.6 477.7 442.42C477.62 442.24 477.54 442.06 477.47 441.88C477.4 441.71 477.32 441.53 477.25 441.35C477.23 441.52 477.2 441.69 477.17 441.86C477.14 442.04 477.11 442.21 477.07 442.38C477.04 442.55 477 442.72 476.95 442.89C476.91 443.06 476.86 443.22 476.81 443.39L475.85 446.55L475.85 446.55ZM488.65 449.88L487.45 439.42L494.77 438.64L494.91 439.87L489.03 440.5L489.4 443.74L494.49 443.2L494.63 444.43L489.54 444.97L490.09 449.72L488.65 449.88L488.65 449.88ZM496.65 443.87C496.39 442.14 496.68 440.72 497.49 439.61C498.31 438.5 499.48 437.84 501 437.63C502 437.49 502.93 437.6 503.8 437.95C504.67 438.3 505.37 438.85 505.91 439.62C506.46 440.38 506.8 441.29 506.96 442.33C507.11 443.38 507.03 444.36 506.71 445.26C506.64 445.47 506.55 445.68 506.44 445.88C506.34 446.08 506.22 446.27 506.08 446.46C505.95 446.64 505.8 446.81 505.63 446.97C505.47 447.13 505.3 447.27 505.12 447.41C504.93 447.54 504.74 447.66 504.54 447.77C504.33 447.88 504.13 447.98 503.91 448.07C503.7 448.15 503.48 448.22 503.26 448.28C503.04 448.34 502.82 448.38 502.59 448.41C501.57 448.55 500.63 448.44 499.76 448.08C499.55 447.99 499.34 447.89 499.15 447.77C498.95 447.66 498.76 447.53 498.58 447.38C498.4 447.24 498.24 447.09 498.08 446.92C497.93 446.75 497.78 446.57 497.65 446.39C497.52 446.2 497.4 446.01 497.29 445.81C497.18 445.61 497.09 445.4 497 445.19C496.92 444.98 496.85 444.76 496.79 444.54C496.73 444.32 496.68 444.1 496.65 443.87L496.65 443.87ZM498.13 443.69C498.31 444.95 498.81 445.89 499.61 446.51C500.42 447.14 501.35 447.38 502.41 447.23C503.48 447.09 504.31 446.6 504.9 445.77C505.49 444.95 505.68 443.86 505.48 442.52C505.36 441.68 505.1 440.96 504.71 440.36C504.62 440.22 504.52 440.09 504.4 439.96C504.29 439.83 504.17 439.71 504.04 439.6C503.92 439.49 503.78 439.4 503.64 439.31C503.49 439.22 503.34 439.14 503.19 439.07C503.03 439 502.87 438.95 502.7 438.9C502.54 438.86 502.37 438.83 502.2 438.8C502.03 438.78 501.86 438.77 501.69 438.77C501.52 438.78 501.35 438.79 501.18 438.82C500.17 438.96 499.35 439.41 498.72 440.18C498.09 440.95 497.89 442.12 498.13 443.69ZM509.58 447.22L507.63 436.87L512.39 436.03C513.35 435.87 514.09 435.83 514.62 435.93C515.16 436.03 515.62 436.29 516 436.71C516.39 437.13 516.64 437.62 516.74 438.19C516.88 438.92 516.75 439.59 516.35 440.18C515.95 440.77 515.25 441.22 514.25 441.54C514.66 441.65 514.98 441.77 515.2 441.9C515.33 441.99 515.46 442.07 515.59 442.16C515.71 442.25 515.84 442.35 515.96 442.44C516.08 442.54 516.19 442.64 516.31 442.75C516.42 442.85 516.53 442.96 516.64 443.07L519.04 445.57L517.25 445.88L515.43 443.97C515.32 443.86 515.22 443.76 515.11 443.65C515.01 443.54 514.9 443.44 514.79 443.33C514.68 443.23 514.58 443.13 514.47 443.03C514.36 442.92 514.24 442.82 514.13 442.73C513.8 442.44 513.52 442.25 513.28 442.16C513.23 442.14 513.17 442.12 513.11 442.1C513.05 442.08 513 442.06 512.94 442.05C512.88 442.04 512.82 442.02 512.76 442.02C512.7 442.01 512.64 442 512.58 442C512.41 441.99 512.15 442.02 511.78 442.09L510.13 442.37L511 446.97L509.58 447.22ZM509.91 441.19L512.96 440.65C513.61 440.54 514.11 440.39 514.45 440.19C514.79 440 515.03 439.74 515.17 439.42C515.3 439.11 515.34 438.78 515.28 438.45C515.26 438.33 515.23 438.22 515.18 438.11C515.14 438 515.08 437.9 515.01 437.8C514.95 437.71 514.87 437.62 514.78 437.54C514.69 437.46 514.6 437.39 514.5 437.34C514.07 437.08 513.46 437.03 512.66 437.17L509.27 437.76L509.91 441.19ZM527.14 440.04L528.63 440.08C528.59 441.26 528.26 442.23 527.63 442.98C527 443.73 526.13 444.23 525.02 444.47C523.87 444.72 522.89 444.7 522.07 444.4C521.24 444.11 520.54 443.57 519.97 442.8C519.82 442.61 519.69 442.4 519.57 442.19C519.44 441.98 519.33 441.77 519.23 441.55C519.13 441.33 519.04 441.1 518.96 440.87C518.88 440.64 518.82 440.41 518.76 440.17C518.51 439.1 518.51 438.12 518.75 437.23C518.8 437.02 518.87 436.81 518.96 436.61C519.05 436.41 519.15 436.21 519.27 436.02C519.38 435.84 519.51 435.66 519.66 435.49C519.8 435.32 519.96 435.17 520.13 435.03C520.81 434.44 521.63 434.05 522.57 433.85C523.63 433.62 524.59 433.68 525.43 434.05C526.28 434.41 526.96 435.04 527.47 435.93L526.15 436.54C525.73 435.85 525.25 435.38 524.7 435.14C524.15 434.9 523.52 434.86 522.81 435.02C521.99 435.19 521.35 435.53 520.89 436.03C520.78 436.15 520.67 436.28 520.58 436.42C520.49 436.55 520.41 436.7 520.34 436.85C520.27 437 520.22 437.16 520.17 437.32C520.13 437.48 520.1 437.64 520.09 437.8C520.07 437.97 520.06 438.14 520.05 438.32C520.05 438.49 520.05 438.66 520.06 438.83C520.07 439 520.09 439.17 520.12 439.34C520.14 439.51 520.17 439.68 520.21 439.85C520.42 440.72 520.73 441.45 521.14 442.05C521.56 442.64 522.08 443.04 522.71 443.24C522.87 443.29 523.02 443.33 523.18 443.36C523.34 443.39 523.51 443.41 523.67 443.41C523.83 443.42 523.99 443.42 524.15 443.4C524.31 443.39 524.47 443.37 524.63 443.33C525.42 443.16 526.04 442.8 526.48 442.24C526.93 441.68 527.15 440.95 527.14 440.04L527.14 440.04ZM531.15 442.9L528.21 432.77L535.81 430.72L536.16 431.92L529.95 433.59L530.85 436.69L536.66 435.13L537 436.32L531.19 437.88L532.19 441.33L538.64 439.59L538.99 440.79L531.15 442.9Z" /></g></svg>