<svg version="1.2" baseProfile="tiny-ps" xmlns="http://www.w3.org/2000/svg" viewBox="0 0 900 600" width="900" height="600"><title></title><style>tspan { white-space:pre }.shp0 { fill: #cf142b } .shp1 { fill: #000000;stroke: #ffffff;stroke-width: 75 } .shp2 { fill: #000000;stroke: #00247d;stroke-width: 75 } .shp3 { fill: #ffffff } .shp4 { fill: #b0313f } .shp5 { fill: #dd0018;stroke: #000000;stroke-width: 0.797 } .shp6 { fill: #feca00 } .shp7 { fill: none;stroke: #000000;stroke-width: 0.797 } .shp8 { fill: #000000 } .shp9 { fill: #da9412 } .shp10 { opacity: 0.98;fill: #da9412 } .shp11 { opacity: 0.98;fill: #feca00 } .shp12 { opacity: 0.98;fill: #ffffff } .shp13 { opacity: 0.98;fill: none } .shp14 { opacity: 0.98;fill: #cc0000 } .shp15 { opacity: 0.98;fill: #0000cc } .shp16 { opacity: 0.98;fill: #dd0018;stroke: #000000;stroke-width: 0.797 } .shp17 { opacity: 0.98;fill: none;stroke: #000000;stroke-width: 0.797 } .shp18 { opacity: 0.98;fill: #000000 } .shp19 { opacity: 0.98;fill: #2f8437 } .shp20 { opacity: 0.98;fill: #cc0000;stroke: #000000;stroke-linecap:round;stroke-linejoin:round;stroke-width: 0.6 } .shp21 { opacity: 0.98;fill: #0000cc;stroke: #000000;stroke-linecap:round;stroke-linejoin:round;stroke-width: 0.6 } .shp22 { opacity: 0.98;fill: #feca00;stroke: #000000;stroke-width: 0.8 } .shp23 { opacity: 0.98;fill: #feca00;stroke: #000000;stroke-width: 0 } .shp24 { opacity: 0.98;fill: none;stroke: #000000;stroke-width: 0.8 } </style><path class="shp0" d="M-150 0L1050 0L1050 600L-150 600L-150 0Z" /><path class="shp1" d="M-150 37.5L1050 37.5" /><g ><path class="shp2" d="M-150 187.52L1050 187.52" /><path class="shp1" d="M-150 262.5L1050 262.5" /></g><g ><path class="shp2" d="M-150 412.52L1050 412.52" /><path class="shp1" d="M-150 487.5L1050 487.5" /></g><path class="shp3" d="M450 525C325.57 525 225 424.43 225 300C225 175.57 325.57 75 450 75C574.42 75 675 175.57 675 300C675 424.43 574.42 525 450 525Z" /><path class="shp4" d="M450 480C350.46 480 270 399.54 270 300C270 200.46 350.46 120 450 120C549.54 120 630 200.46 630 300C630 399.54 549.54 480 450 480Z" /><g ><g style="opacity: 0.98"><path class="shp5" d="M450.27 226.54C453.69 223.83 457.44 221.44 461.98 221.28C467.47 221.04 471.46 225.43 474.72 229.33C477.59 231.64 482.45 232.36 485.56 229.97C489.3 225.98 495.76 225.11 500.22 228.29C507.95 233.23 509.62 243.91 507.15 252.2C505.08 259.05 501.49 265.82 495.84 270.36C481.1 265.42 465.8 262.47 450.27 262.31" /><path fill-rule="evenodd" class="shp6" d="M450.03 197.78C470.5 198.26 476.8 201.76 487.31 206.86C498.94 213.24 507.79 221.2 512.41 224.55C517.59 228.29 528.02 236.18 536.47 240.16C527.86 241.04 516.23 247.49 511.45 253.63C502.37 265.26 498.47 273.31 495.6 280.8C493.61 276.73 480.38 270.84 450.03 269.64M494.64 265.34C496.87 266.54 498.86 265.02 499.58 262.87C496.95 261.36 498.86 261.36 492.97 262.31C493.29 261.44 493.77 260.4 494.4 259.37C493.93 260.08 493.53 260.8 492.81 261.44C491.77 262.31 493.77 265.34 494.64 265.34ZM487.79 260.16C488.43 258.73 489.38 257.45 489.38 255.22C489.38 253.95 493.53 250.76 494.64 250.76C495.44 250.84 496.63 254.98 494.8 258.65C495.84 256.82 497.11 254.82 497.99 253.31C499.1 257.13 499.58 258.09 501.89 259.37C504.28 253.23 501.18 247.57 499.42 244.87C500.06 241.92 503.09 234.99 495.52 226.46C492.17 222.64 486.99 218.18 472.18 210.85C474.96 212.84 480.14 221.04 486.12 228.29C492.09 235.46 496.63 239.45 495.52 242.71C494.88 242.87 485.56 244.71 482.69 252.67C486.83 253.39 487.95 250.68 489.3 249.88C489.54 250.52 488.35 259.29 487.79 259.92C486.12 258.33 485.72 256.58 482.21 256.58C482.29 257.13 481.9 262.87 487.79 260.16ZM461.02 258.41C463.49 258.57 463.09 254.9 461.26 252.27C461.66 249.57 465.24 245.9 466.92 245.02C468.35 245.9 470.26 251.56 470.1 253.07C468.75 254.59 468.43 255.3 468.67 257.77C470.34 260.16 479.27 262.15 478.95 255.38C477.19 255.38 475.12 255.14 472.49 257.13C472.65 253.63 472.97 253.47 473.29 249.17C475.52 251.88 479.03 252.51 478.95 252.43C478.07 242.16 470.1 239.85 468.83 238.49C470.9 235.31 470.58 228.53 470.34 226.46C469.79 221.36 464.05 211.8 456.24 208.46C456.24 208.46 456 208.62 455.68 208.62C455.21 220.88 457.52 228.85 463.33 238.01C455.05 242.63 451.78 249.41 451.78 250.12C455.29 250.28 457.52 248.21 458.39 246.78C458.31 250.03 458.31 253.29 458.31 256.54C458.16 256.18 455.47 252.88 451.78 253.71C452.26 258.33 458.23 258.25 461.02 258.41ZM458.31 256.54C458.32 256.57 458.32 256.58 458.31 256.58C458.31 256.57 458.31 256.56 458.31 256.54Z" /><path class="shp7" d="M450.03 197.86C475.92 197.86 490.02 206.7 512.81 224.31C525.63 234.27 526.35 234.83 536.71 240.01C522.53 242.48 515.44 249.33 512.01 253.31C506.35 260.16 498.47 271.4 495.44 281.43" /><path class="shp7" d="M455.84 208.22C460.38 210.93 467.16 215.71 469.71 223.91C472.02 231.32 469.31 238.01 468.75 238.49C469.63 239.37 478.63 242.63 478.95 252.35C477.99 252.2 475.6 252.35 473.21 248.93C472.89 250.6 472.49 256.82 472.49 257.29C473.13 256.66 475.12 254.66 478.95 255.46C478.95 257.45 478.71 258.33 476.88 259.52C475.44 260.48 471.54 259.52 470.66 259.29C469.79 259.13 466.44 257.53 470.1 253.15C469.71 249.88 468.51 246.22 467 244.71C465.56 245.74 462.69 248.21 461.26 252.35C461.9 253.63 464.37 258.41 461.34 258.41C459.67 258.41 458.55 258.25 458.23 258.25C457.12 258.25 452.74 258.65 451.7 253.63C453.69 253.63 454.73 252.59 458.31 256.58C458.23 253.63 458.31 247.97 458.31 246.94C457.12 248.69 454.73 250.44 451.86 250.12C451.7 247.65 458.31 240.48 463.49 237.93C461.98 235.38 457.44 229.49 456.64 222.4C455.84 215.39 455.84 209.97 455.84 208.22C455.84 205.51 455.29 200.73 449.87 200.73" /><g ><path fill-rule="evenodd" class="shp8" d="M496.18 226.53C502.27 234.17 501.64 240.26 499.77 244.62C501.33 246.96 505.39 253.36 501.95 259.91C500.55 259.13 498.99 258.66 497.9 254.3C496.96 256.32 493.84 261.47 493.53 261.78C494.47 261.63 495.56 261.32 496.49 261.32C497.74 261.32 498.83 261.63 500.39 262.56C499.93 264.28 498.05 266 496.18 266C494.93 266 493.69 265.37 492.75 263.5C491.66 261.32 493.69 259.76 494.78 258.66C495.71 257.73 495.56 251.96 494.78 251.18C494.62 251.02 494.62 251.02 494.47 251.02C493.22 251.02 489.94 253.52 489.32 256.17C489.32 257.26 489.94 260.22 487.13 261C486.51 261.32 486.04 261.32 485.42 261.32C483.23 261.32 481.36 259.76 481.99 255.86C482.61 256.48 485.11 255.23 487.91 259.29C488.23 256.95 488.85 251.33 488.85 250.71C487.91 251.8 487.45 253.05 484.01 253.05L482.3 253.05C483.55 250.08 486.2 243.53 495.25 242.44C495.71 241.97 495.71 240.1 493.69 237.76C491.5 235.42 484.95 227.62 472.94 211.09C475.43 212.02 490.1 218.89 496.18 226.53ZM483.39 259.6C484.01 260.38 484.79 260.54 485.42 260.54C485.89 260.54 486.35 260.54 486.82 260.38C486.98 260.22 487.29 260.22 487.45 260.07L487.13 259.76C485.42 257.1 483.86 256.95 482.77 256.95L482.77 256.79C482.61 258.04 482.77 258.98 483.39 259.6ZM494.31 262.41C494.15 262.41 493.84 262.56 493.69 262.56L493.22 262.56C493.22 262.72 493.37 262.88 493.37 263.03C494.15 264.44 495.09 265.22 496.18 265.22C497.59 265.22 498.83 264.12 499.46 262.88C498.37 262.41 497.59 262.1 496.49 262.1C495.87 262.1 495.09 262.25 494.31 262.41ZM494.31 237.29C496.49 239.79 496.65 241.97 495.87 242.91L495.56 243.06L495.4 243.22C487.76 244.16 484.95 249.15 483.39 252.27L484.01 252.27C486.51 252.27 487.13 251.64 487.76 250.71C487.91 250.55 488.07 250.4 488.38 250.24L489.63 248.84L489.63 250.71C489.63 251.02 489.47 252.42 489.32 254.14C490.57 251.96 493.06 250.24 494.47 250.24C494.78 250.24 495.09 250.4 495.25 250.55C496.03 251.33 496.18 253.83 496.18 254.92L496.18 255.86C496.65 255.08 496.96 254.45 497.27 253.98L498.21 252.11L498.68 254.14C499.61 257.42 500.55 258.2 501.64 258.82C504.14 252.89 500.55 247.28 499.15 245.09L498.83 244.78L498.99 244.31C501.49 238.7 500.39 233.08 495.56 227C490.72 220.91 480.43 215.45 475.28 213.11C487.45 229.49 493.22 236.05 494.31 237.29Z" /></g><g ><path class="shp7" d="M475.28 213.16C469.63 208.46 461.26 200.65 449.87 200.65" /><path class="shp7" d="M501.26 248.29C501.26 246.46 517.59 228.37 471.86 210.29" /><path class="shp7" d="M469.71 236.42C472.1 232.36 481.34 221.6 455.68 205.91" /></g><g ><path fill-rule="evenodd" class="shp9" d="M450.16 203.6C451.88 203.6 452.66 205.16 452.66 206.72C452.66 208.28 452.66 228.09 459.05 236.98C455.78 239.95 452.66 242.28 450.16 245.87M450.16 244.16C451.88 241.82 453.91 240.1 455.93 238.23C456.56 237.76 457.03 237.29 457.65 236.83C452.04 227.93 451.72 210.31 451.72 206.72C451.72 206.41 451.72 204.69 450.16 204.69L450.16 244.16Z" /></g><g ><path fill-rule="evenodd" class="shp9" d="M462.64 206.87C470.13 210.62 473.25 213.89 483.86 230.27C486.35 233.24 489.47 236.36 491.5 239.79C490.41 240.88 483.7 242.6 481.52 247.74C480.27 246.5 478.55 241.19 472.94 237.45C477.46 230.74 477.31 218.57 462.64 206.87ZM474.34 237.14C478.09 239.79 479.96 243.06 481.21 245.25C481.21 245.4 481.36 245.56 481.52 245.72C483.55 242.6 486.98 241.04 489.16 239.95C489.47 239.79 489.79 239.63 489.94 239.48C488.54 237.29 486.67 235.11 484.95 233.08C484.33 232.3 483.7 231.68 483.08 230.9C478.24 223.57 475.12 218.89 472.31 215.61C477.62 223.72 477.62 231.52 474.34 237.14Z" /></g><g ><path fill-rule="evenodd" class="shp9" d="M463.43 201.41C465.14 202.04 483.08 204.22 504.45 221.54C525.98 238.85 525.67 236.98 527.7 238.85C523.02 240.57 510.07 247.59 506.48 255.08C506.17 251.96 505.39 248.06 504.45 246.34C504.92 244.16 515.53 223.57 469.51 205.47C467.79 204.53 463.43 201.41 463.43 201.41ZM469.98 204.85C498.37 215.92 510.69 230.12 505.39 245.87C505.39 246.03 505.39 246.18 505.23 246.34C506.01 247.74 506.48 250.24 506.95 252.74C511.32 246.18 521.3 240.73 526.14 238.7C525.82 238.54 525.67 238.39 525.36 238.23C523.48 237.14 518.96 234.33 503.98 222.16C488.07 209.37 474.19 204.85 467.48 203.13C468.42 203.75 469.35 204.38 469.98 204.85Z" /></g><path class="shp6" d="M450.03 290.68C462.14 290.68 473.85 289.48 482.21 287.41C491.69 285.02 493.77 282.39 493.77 281.59C493.77 280.72 494.32 276.02 482.53 273.55C474.09 271.32 464.05 269.96 450.03 269.96" /></g><path class="shp10" d="M461 271C461 289.7 457.7 291.2 492.2 279C486.9 273.6 467.2 271.5 461 271Z" /><path class="shp11" d="M450 271.6C545 286.6 513.8 343.5 508.1 355L393 355C387.3 366.4 361.9 431 450 437.9" /><path class="shp12" d="M487.2 308.3C487.2 311.7 484.7 314.6 481.5 315.8L481.5 355L476.9 355L476.9 315.8C473.7 314.6 471.8 311.7 471.8 308.3C471.8 303.8 475.1 300.2 479.5 300.2C483.9 300.2 487.2 303.8 487.2 308.3Z" /><path class="shp13" d="M448.8 274.3L448.8 355C448.8 355 399.5 354.9 391.4 354.9C388.2 348.6 369.7 280.2 448.9 274.1" /><path class="shp14" d="M450 355.2L393 355.2L390.2 345.9C391.5 346 450 345.6 450 345.6L450 356.2L450 355.2Z" /><path class="shp15" d="M386.76 337.96L385.98 328.91L449.94 328.91L449.94 338.27L386.76 337.96Z" /><path class="shp12" d="M389.2 338.3L450.05 338.3L450.05 346.1L389.2 346.1L389.2 338.3Z" /><path class="shp14" d="M449.94 328.91L385.98 328.91L386.29 319.55L449.94 319.55L449.94 328.91Z" /><path class="shp12" d="M386 310.2L449.97 310.2L449.97 319.56L386 319.56L386 310.2Z" /><path class="shp15" d="M389.2 300.9L450.05 300.9L450.05 310.26L389.2 310.26L389.2 300.9Z" /><g style="opacity: 0.98"><path class="shp16" d="M449.73 226.54C446.31 223.83 442.56 221.44 438.02 221.28C432.53 221.04 428.54 225.43 425.28 229.33C422.41 231.64 417.55 232.36 414.44 229.97C410.7 225.98 404.24 225.11 399.78 228.29C392.05 233.23 390.38 243.91 392.85 252.2C394.92 259.05 398.51 265.82 404.16 270.36C418.9 265.42 434.2 262.47 449.73 262.31" /><path fill-rule="evenodd" class="shp11" d="M449.97 269.64C419.62 270.84 406.39 276.73 404.4 280.8C401.53 273.31 397.63 265.26 388.55 253.63C383.77 247.49 372.14 241.04 363.53 240.16C371.98 236.18 382.41 228.29 387.59 224.55C392.21 221.2 401.06 213.24 412.69 206.86C423.2 201.76 429.5 198.26 449.97 197.78M407.19 261.44C406.47 260.8 406.07 260.08 405.6 259.37C406.23 260.4 406.71 261.44 407.03 262.31C401.14 261.36 403.05 261.36 400.42 262.87C401.14 265.02 403.13 266.54 405.36 265.34C406.23 265.34 408.23 262.31 407.19 261.44ZM417.79 256.58C414.28 256.58 413.88 258.33 412.21 259.92C411.65 259.29 410.46 250.52 410.7 249.88C412.05 250.68 413.17 253.39 417.31 252.67C414.44 244.71 405.12 242.87 404.48 242.71C403.37 239.45 407.91 235.46 413.88 228.29C419.86 221.04 425.04 212.84 427.82 210.85C413.01 218.18 407.83 222.64 404.48 226.46C396.91 234.99 399.94 241.92 400.58 244.87C398.82 247.57 395.72 253.23 398.11 259.37C400.42 258.09 400.9 257.13 402.01 253.31C402.89 254.82 404.16 256.82 405.2 258.65C403.37 254.98 404.56 250.84 405.36 250.76C406.47 250.76 410.62 253.95 410.62 255.22C410.62 257.45 411.57 258.73 412.21 260.16C418.1 262.87 417.71 257.13 417.79 256.58ZM448.22 253.71C444.53 252.88 441.84 256.18 441.69 256.54C441.69 253.29 441.69 250.03 441.61 246.78C442.48 248.21 444.71 250.28 448.22 250.12C448.22 249.41 444.95 242.63 436.67 238.01C442.48 228.85 444.79 220.88 444.32 208.62C444 208.62 443.76 208.46 443.76 208.46C435.95 211.8 430.21 221.36 429.66 226.46C429.42 228.53 429.1 235.31 431.17 238.49C429.9 239.85 421.93 242.16 421.05 252.43C420.97 252.51 424.48 251.88 426.71 249.17C427.03 253.47 427.35 253.63 427.51 257.13C424.88 255.14 422.81 255.38 421.05 255.38C420.73 262.15 429.66 260.16 431.33 257.77C431.57 255.3 431.25 254.59 429.9 253.07C429.74 251.56 431.65 245.9 433.08 245.02C434.76 245.9 438.34 249.57 438.74 252.27C436.91 254.9 436.51 258.57 438.98 258.41C441.77 258.25 447.74 258.33 448.22 253.71ZM441.69 256.58C441.68 256.58 441.68 256.57 441.69 256.54C441.69 256.56 441.69 256.57 441.69 256.58Z" /><path class="shp17" d="M449.97 197.86C424.08 197.86 409.98 206.7 387.19 224.31C374.37 234.27 373.65 234.83 363.29 240.01C377.47 242.48 384.56 249.33 387.99 253.31C393.65 260.16 401.53 271.4 404.56 281.43" /><path class="shp17" d="M444.16 208.22C439.62 210.93 432.84 215.71 430.29 223.91C427.98 231.32 430.69 238.01 431.25 238.49C430.37 239.37 421.37 242.63 421.05 252.35C422.01 252.2 424.4 252.35 426.79 248.93C427.11 250.6 427.51 256.82 427.51 257.29C426.87 256.66 424.88 254.66 421.05 255.46C421.05 257.45 421.29 258.33 423.12 259.52C424.56 260.48 428.46 259.52 429.34 259.29C430.21 259.13 433.56 257.53 429.9 253.15C430.29 249.88 431.49 246.22 433 244.71C434.44 245.74 437.31 248.21 438.74 252.35C438.1 253.63 435.63 258.41 438.66 258.41C440.33 258.41 441.45 258.25 441.77 258.25C442.88 258.25 447.26 258.65 448.3 253.63C446.31 253.63 445.27 252.59 441.69 256.58C441.77 253.63 441.69 247.97 441.69 246.94C442.88 248.69 445.27 250.44 448.14 250.12C448.3 247.65 441.69 240.48 436.51 237.93C438.02 235.38 442.56 229.49 443.36 222.4C444.16 215.39 444.16 209.97 444.16 208.22C444.16 205.51 444.71 200.73 450.13 200.73" /><g style="opacity: 0.98"><path fill-rule="evenodd" class="shp18" d="M427.06 211.09C415.05 227.62 408.5 235.42 406.31 237.76C404.29 240.1 404.29 241.97 404.75 242.44C413.8 243.53 416.45 250.08 417.7 253.05L415.99 253.05C412.55 253.05 412.09 251.8 411.15 250.71C411.15 251.33 411.77 256.95 412.09 259.29C414.89 255.23 417.39 256.48 418.01 255.86C418.64 259.76 416.77 261.32 414.58 261.32C413.96 261.32 413.49 261.32 412.87 261C410.06 260.22 410.68 257.26 410.68 256.17C410.06 253.52 406.78 251.02 405.53 251.02C405.38 251.02 405.38 251.02 405.22 251.18C404.44 251.96 404.29 257.73 405.22 258.66C406.31 259.76 408.34 261.32 407.25 263.5C406.31 265.37 405.07 266 403.82 266C401.95 266 400.07 264.28 399.61 262.56C401.17 261.63 402.26 261.32 403.51 261.32C404.44 261.32 405.53 261.63 406.47 261.78C406.16 261.47 403.04 256.32 402.1 254.3C401.01 258.66 399.45 259.13 398.05 259.91C394.61 253.36 398.67 246.96 400.23 244.62C398.36 240.26 397.73 234.17 403.82 226.53C409.9 218.89 424.57 212.02 427.06 211.09ZM417.23 256.79L417.23 256.95C416.14 256.95 414.58 257.1 412.87 259.76L412.55 260.07C412.71 260.22 413.02 260.22 413.18 260.38C413.65 260.54 414.11 260.54 414.58 260.54C415.21 260.54 415.99 260.38 416.61 259.6C417.23 258.98 417.39 258.04 417.23 256.79ZM403.51 262.1C402.41 262.1 401.63 262.41 400.54 262.88C401.17 264.12 402.41 265.22 403.82 265.22C404.91 265.22 405.85 264.44 406.63 263.03C406.63 262.88 406.78 262.72 406.78 262.56L406.31 262.56C406.16 262.56 405.85 262.41 405.69 262.41C404.91 262.25 404.13 262.1 403.51 262.1ZM424.72 213.11C419.57 215.45 409.28 220.91 404.44 227C399.61 233.08 398.51 238.7 401.01 244.31L401.17 244.78L400.85 245.09C399.45 247.28 395.86 252.89 398.36 258.82C399.45 258.2 400.39 257.42 401.32 254.14L401.79 252.11L402.73 253.98C403.04 254.45 403.35 255.08 403.82 255.86L403.82 254.92C403.82 253.83 403.97 251.33 404.75 250.55C404.91 250.4 405.22 250.24 405.53 250.24C406.94 250.24 409.43 251.96 410.68 254.14C410.53 252.42 410.37 251.02 410.37 250.71L410.37 248.84L411.62 250.24C411.93 250.4 412.09 250.55 412.24 250.71C412.87 251.64 413.49 252.27 415.99 252.27L416.61 252.27C415.05 249.15 412.24 244.16 404.6 243.22L404.44 243.06L404.13 242.91C403.35 241.97 403.51 239.79 405.69 237.29C406.78 236.05 412.55 229.49 424.72 213.11Z" /></g><g style="opacity: 0.98"><path class="shp17" d="M424.72 213.16C430.37 208.46 438.74 200.65 450.13 200.65" /><path class="shp17" d="M398.74 248.29C398.74 246.46 382.41 228.37 428.14 210.29" /><path class="shp17" d="M430.29 236.42C427.9 232.36 418.66 221.6 444.32 205.91" /></g><g style="opacity: 0.98"><path fill-rule="evenodd" class="shp10" d="M449.84 245.87C447.34 242.28 444.22 239.95 440.95 236.98C447.34 228.09 447.34 208.28 447.34 206.72C447.34 205.16 448.12 203.6 449.84 203.6M449.84 204.69C448.28 204.69 448.28 206.41 448.28 206.72C448.28 210.31 447.96 227.93 442.35 236.83C442.97 237.29 443.44 237.76 444.07 238.23C446.09 240.1 448.12 241.82 449.84 244.16L449.84 204.69Z" /></g><g style="opacity: 0.98"><path fill-rule="evenodd" class="shp10" d="M427.06 237.45C421.45 241.19 419.73 246.5 418.48 247.74C416.3 242.6 409.59 240.88 408.5 239.79C410.53 236.36 413.65 233.24 416.14 230.27C426.75 213.89 429.87 210.62 437.36 206.87C422.69 218.57 422.54 230.74 427.06 237.45ZM427.69 215.61C424.88 218.89 421.76 223.57 416.92 230.9C416.3 231.68 415.67 232.3 415.05 233.08C413.33 235.11 411.46 237.29 410.06 239.48C410.21 239.63 410.53 239.79 410.84 239.95C413.02 241.04 416.45 242.6 418.48 245.72C418.64 245.56 418.79 245.4 418.79 245.25C420.04 243.06 421.91 239.79 425.66 237.14C422.38 231.52 422.38 223.72 427.69 215.61Z" /></g><g style="opacity: 0.98"><path fill-rule="evenodd" class="shp10" d="M430.49 205.47C384.47 223.57 395.08 244.16 395.55 246.34C394.61 248.06 393.83 251.96 393.52 255.08C389.93 247.59 376.98 240.57 372.3 238.85C374.33 236.98 374.02 238.85 395.55 221.54C416.92 204.22 434.86 202.04 436.57 201.41C436.57 201.41 432.21 204.53 430.49 205.47ZM432.52 203.13C425.81 204.85 411.93 209.37 396.02 222.16C381.04 234.33 376.52 237.14 374.64 238.23C374.33 238.39 374.18 238.54 373.86 238.7C378.7 240.73 388.68 246.18 393.05 252.74C393.52 250.24 393.99 247.74 394.77 246.34C394.61 246.18 394.61 246.03 394.61 245.87C389.31 230.12 401.63 215.92 430.02 204.85C430.65 204.38 431.58 203.75 432.52 203.13Z" /></g><path class="shp11" d="M449.97 290.68C437.86 290.68 426.15 289.48 417.79 287.41C408.31 285.02 406.23 282.39 406.23 281.59C406.23 280.72 405.68 276.02 417.47 273.55C425.91 271.32 435.95 269.96 449.97 269.96" /></g><path class="shp18" d="M439 270C433.8 270.3 413.6 271.9 407.5 277.8C445 294.9 439.5 279 439 270Z" /><path class="shp14" d="M450 291L395.4 291L392 300.8L450 300.8L450 291Z" /><path class="shp12" d="M450 291.3L395.4 291.3C411.1 278.8 450 271.6 450 271.6L450 291.3Z" /><path class="shp12" d="M449.94 373.38L512.18 373.38L513.9 382.74L449.94 382.74L449.94 373.38Z" /><path class="shp15" d="M450 373.6L515.53 373.6L515.53 382.96L450 382.96L450 373.6Z" /><path class="shp14" d="M449.94 392.1L516.08 392.1L515.93 401.46L449.94 401.46L449.94 392.1Z" /><path class="shp12" d="M450 401.5L515.53 401.5L515.53 410.86L450 410.86L450 401.5Z" /><path class="shp15" d="M513.4 401.4L450 401.4L450 410.9L507.7 410.9" /><path class="shp14" d="M450 420C450 420 500.8 419.7 504.7 419.8C501.2 423.3 483.8 429.7 481.6 430.5C479.5 431.3 450 437.9 450 437.9L450 420Z" /><path class="shp14" d="M513.9 373.5L449.94 373.5L449.94 364.14L512.18 364.14L513.9 373.5Z" /><path class="shp12" d="M427.66 381.52C427.66 384.92 425.16 387.82 421.96 389.02L421.96 428.22L417.36 428.22L417.36 389.02C414.16 387.82 412.26 384.92 412.26 381.52C412.26 377.02 415.56 373.42 419.96 373.42C424.36 373.42 427.66 377.02 427.66 381.52Z" /><path class="shp19" d="M428.2 357.6L428.2 327.4L471.8 327.4L471.8 357.6L450 380.5L428.2 357.6Z" /><path class="shp19" d="M450.61 380.55L450.61 380.39L450.61 380.39L450.61 380.55Z" /><g style="opacity: 0.98"><g style="opacity: 0.98"><path class="shp20" d="M450 438.4C448.4 435.7 440.7 434.1 436.6 433C406.3 424.9 395.6 418.8 390 404C383.5 387 391.8 359.9 393.1 355L391.3 355C366 401.5 389.6 431.6 436.4 437.9C440 438.4 447.5 439.7 450 442" /></g><path class="shp21" d="M450 438.4C451.6 435.7 459.3 434.1 463.4 433C493.7 424.9 504.4 418.8 510 404C516.5 387 508.2 359.9 506.9 355L508.7 355C534 401.5 510.4 431.6 463.6 437.9C460 438.4 452.5 439.7 450 442" /></g><path class="shp19" d="M450.46 380.55L450.46 380.39L450.61 380.39L450.46 380.55Z" /><g style="opacity: 0.98"><path class="shp22" d="M444.8 157.77C448.79 162.17 447.89 164.17 448.09 168.67C443.7 168.47 441.8 169.47 437.3 165.57L437.3 175.37C441.8 171.57 443.6 172.47 448.09 172.27C447.89 175.47 448.19 177.87 446.7 180.37C441.4 181.57 437.5 185.77 437.5 190.77C437.5 196.67 443 201.36 449.79 201.36C456.59 201.36 462.09 196.67 462.09 190.77C462.09 185.87 458.39 181.87 453.39 180.47C451.79 177.97 451.89 175.47 451.69 172.17C456.19 172.37 458.09 171.37 462.49 175.27L462.49 165.47C458.09 169.27 456.29 168.37 451.79 168.57C451.99 164.17 450.99 162.17 454.89 157.77L444.8 157.77Z" /></g><path class="shp10" d="M451.6 198.6C446.7 198.6 442.7 195 442.7 190.6C442.7 186.2 446.7 182.6 451.6 182.6C452.1 182.6 452.6 182.6 453.1 182.7C452 182.1 450.6 181.8 449.3 181.8C444.3 181.8 440.4 185.7 440.4 190.5C440.4 195.3 444.3 199.1 449.3 199.1C450.4 199.1 451.4 198.9 452.4 198.6L451.6 198.6L451.6 198.6Z" /><g style="opacity: 0.98"><g style="opacity: 0.98"><path class="shp20" d="M450 271.6C451.6 274.3 459.3 275.9 463.4 277C493.7 285.1 504.4 291.2 510 306C516.5 323 508.2 350.1 506.9 355L508.7 355C534 308.5 510.4 278.4 463.6 272.1C460 271.6 452.5 270.3 450 268" /></g><path class="shp21" d="M450 271.6C448.4 274.3 440.7 275.9 436.6 277C406.3 285.1 395.6 291.2 390 306C383.5 323 391.8 350.1 393.1 355L391.3 355C366 308.5 389.6 278.4 436.4 272.1C440 271.6 447.5 270.3 450 268" /></g><path class="shp11" d="M450.7 351.4L458.5 335.2L441.5 335.2L449.2 351.4L449.2 369.7C449.2 371.2 450.7 371.2 450.7 369.7L450.7 351.4Z" /><g style="opacity: 0.98"><path class="shp23" d="M432.7 339.8C432.7 339.8 434.6 352.1 446.3 354.5L457.2 364.6C458.1 365.5 459.1 364.4 458.3 363.6L447.2 353.2C444.1 341.7 433 339.7 432.7 339.8L432.7 339.8Z" /><path class="shp22" d="M450 270.1C419 270.1 405.3 276.8 406.6 280.8L404.6 281.8C403.3 276.9 402 275 400.5 271.7C404 268.2 411.7 260.9 450 260.2" /><path class="shp24" d="M450 268.1C419 268.1 403.9 274.7 404.3 280.5" /></g><g style="opacity: 0.98"><path class="shp23" d="M467.3 339.8C467.3 339.8 465.4 352.1 453.7 354.5L442.8 364.6C441.9 365.5 440.9 364.4 441.7 363.6L452.8 353.2C455.9 341.7 467 339.7 467.3 339.8L467.3 339.8Z" /><path class="shp22" d="M450 270.1C481 270.1 494.7 276.8 493.4 280.8L495.4 281.8C496.7 276.9 498 275 499.5 271.7C496 268.2 488.3 260.9 450 260.2" /><path class="shp24" d="M450 268.1C481 268.1 496.1 274.7 495.7 280.5" /></g></g></svg>