<svg version="1.2" baseProfile="tiny-ps" xmlns="http://www.w3.org/2000/svg" viewBox="0 0 900 600" width="900" height="600"><title></title><style>tspan { white-space:pre }.shp0 { fill: #00247d } .shp1 { fill: none;stroke: #ffffff;stroke-width: 51.992 } .shp2 { fill: none;stroke: #ffffff;stroke-width: 86.653 } .shp3 { fill: none;stroke: #cf142b;stroke-width: 51.992 } .shp4 { fill: #ce1126 } .shp5 { fill: #fdd502;stroke: #806600;stroke-width: 1.538 } .shp6 { fill: none;stroke: #806600;stroke-width: 1.538 } .shp7 { fill: #135ecb;stroke: #afc6e9;stroke-linejoin:round;stroke-width: 1.538 } .shp8 { fill: #135ecb;stroke: #afc6e9;stroke-width: 1.538 } .shp9 { fill: #fdd502;stroke: #806600;stroke-linejoin:round;stroke-width: 1.538 } .shp10 { fill: #ececec;stroke: #808080;stroke-linejoin:round;stroke-width: 1.538 } .shp11 { fill: #ececec;stroke: #808080;stroke-width: 0.769 } .shp12 { fill: #ececec;stroke: #808080;stroke-width: 1.538 } .shp13 { fill: #ececec;stroke: #808080;stroke-width: 1.54 } .shp14 { fill: none;stroke: #808080;stroke-width: 1.538 } .shp15 { fill: #ececec;stroke: #808080;stroke-linejoin:round;stroke-width: 1.542 } .shp16 { fill: #ececec;stroke: #808080;stroke-linejoin:round;stroke-width: 1.541 } .shp17 { fill: #ececec;stroke: #808080;stroke-linejoin:round;stroke-width: 1.539 } .shp18 { fill: #ececec;stroke: #808080;stroke-linejoin:round;stroke-width: 1.54 } .shp19 { fill: #ececec;stroke: #808080;stroke-linejoin:round;stroke-opacity:0.941;stroke-width: 1.541 } </style><g ><path class="shp0" d="M0 0L450 0L450 300L0 300L0 0Z" /><g ><path class="shp1" d="M450 0L0 300M0 0L450 300" /><path class="shp2" d="M225 0L225 300M0 150L450 150" /><path class="shp3" d="M225 0L225 300M0 150L450 150" /></g><path class="shp4" d="M0 300L900 300L900 600L0 600L0 300ZM450 0L900 0L900 600L450 600L450 0Z" /></g><g ><g ><g ><g ><path fill-rule="evenodd" class="shp5" d="M675.33 297.6L667.99 222.91C667.99 222.91 670.22 242.44 667.99 222.91C667.96 198.57 664.61 190.65 664.61 190.65C664.61 190.65 667.16 199.02 664.61 190.65C660.45 173.68 663.1 165.16 664.64 162.66C675.36 147.94 686.62 151.04 686.62 151.04C686.62 151.04 683.77 150.64 686.62 151.04C675.89 167.45 681.11 177.16 683.56 182.8C685.82 198.64 682.67 224.04 682.67 224.04C682.67 224.04 678.15 252.33 682.67 224.04C687.18 195.74 683.35 191.23 684.69 182C689.03 169.16 700.57 164.54 707.6 162.42C703.45 174.3 706.91 186.04 706.51 194.45C705.71 208.05 696.78 226.3 696.78 226.3L675.33 297.6L675.33 297.6Z" /><g ><path class="shp6" d="M686.08 151.19C674.5 153.79 672.11 170.19 672.11 170.19C672.11 170.19 672.51 182.8 675.9 195.2C676.7 205.2 675.1 233.21 675.1 233.21L675.9 292.83" /><path class="shp6" d="M706.63 162.99C706.63 162.99 696.65 174.59 695.66 178.39C693.26 189 693.66 194.4 694.66 204.4C692.46 218.01 687.67 234.61 687.67 234.61L676.3 286.23" /></g></g><g ><path fill-rule="evenodd" class="shp5" d="M674.24 297.14L638.95 230.95C638.95 230.95 648.47 248.14 638.95 230.95C629.63 208.48 623.51 202.45 623.51 202.45C623.51 202.45 629.07 209.21 623.51 202.45C613.2 188.36 612.39 179.48 612.86 176.57C617.15 158.86 628.73 157.41 628.73 157.41C628.73 157.41 625.95 158.13 628.73 157.41C625.09 176.68 633.61 183.65 638.03 187.92C646.16 201.69 652.94 226.36 652.94 226.36C652.94 226.36 659.57 254.24 652.94 226.36C646.32 198.49 641.05 195.8 638.77 186.75C637.88 173.22 646.77 164.53 652.46 159.87C653.16 172.44 660.84 181.96 663.68 189.88C668.13 202.75 666.84 223.04 666.84 223.04L674.24 297.14L674.24 297.14Z" /><g ><path class="shp6" d="M628.29 157.75C618.59 164.59 622.63 180.67 622.63 180.67C622.63 180.67 627.81 192.16 635.68 202.32C640.24 211.25 649.46 237.74 649.46 237.74L672.95 292.52" /><path class="shp6" d="M651.78 160.77C651.78 160.77 646.99 175.32 647.52 179.21C649.36 189.93 651.79 194.77 656.53 203.62C659.69 217.03 661.61 234.21 661.61 234.21L670.8 286.26" /></g></g><g ><path fill-rule="evenodd" class="shp5" d="M673.9 297.57L616.03 249.95C616.03 249.95 631.38 262.18 616.03 249.95C598.84 232.77 590.88 229.55 590.88 229.55C590.88 229.55 598.59 233.66 590.88 229.55C575.97 220.49 571.84 212.6 571.16 209.73C568.37 191.72 578.51 185.93 578.51 185.93C578.51 185.93 576.21 187.66 578.51 185.93C582.5 205.14 593.03 208.31 598.75 210.55C611.52 220.16 627.2 240.35 627.2 240.35C627.2 240.35 643.96 263.56 627.2 240.35C610.44 217.14 604.55 216.67 598.98 209.19C593 197.04 597.89 185.59 601.37 179.1C606.82 190.44 617.55 196.3 623.19 202.52C632.22 212.71 638.78 231.95 638.78 231.95L673.9 297.57L673.9 297.57Z" /><g ><path class="shp6" d="M578.23 186.42C571.88 196.46 581.76 209.76 581.76 209.76C581.76 209.76 590.93 218.39 602.08 224.76C609.7 231.26 628.32 252.2 628.32 252.2L670.94 293.79" /><path class="shp6" d="M601.09 180.2C601.09 180.2 602.22 195.47 604.19 198.87C609.98 208.06 614.07 211.6 621.83 217.97C629.87 229.14 638.2 244.28 638.2 244.28L666.56 288.84" /></g></g><g ><path fill-rule="evenodd" class="shp5" d="M673.16 298.94L601.51 277.16C601.51 277.16 620.37 282.56 601.51 277.16C579.08 267.88 570.49 267.95 570.49 267.95C570.49 267.95 579.19 268.79 570.49 267.95C553.26 265.3 546.43 259.59 544.71 257.2C535.25 241.64 542.42 232.4 542.42 232.4C542.42 232.4 540.95 234.88 542.42 232.4C553.43 248.61 564.37 247.5 570.51 247.39C585.98 251.36 608.17 264 608.17 264C608.17 264 632.52 279.01 608.17 264C583.83 248.99 578.2 250.81 570.21 246.03C560.04 237.1 560.19 224.65 560.93 217.32C570.29 225.71 582.44 227 590.03 230.59C602.26 236.53 615.66 251.79 615.66 251.79L673.16 298.94L673.16 298.94Z" /><g ><path class="shp6" d="M542.34 232.96C540.31 244.67 554.51 253.17 554.51 253.17C554.51 253.17 566.28 257.62 579.01 259.23C588.53 262.32 613.73 274.51 613.73 274.51L668.98 296.59" /><path class="shp6" d="M561.09 218.44C561.09 218.44 567.96 232.12 571.08 234.5C579.94 240.78 585.07 242.47 594.67 245.38C606.36 252.62 619.83 263.41 619.83 263.41L663.05 293.69" /></g></g></g><g ><g ><path fill-rule="evenodd" class="shp5" d="M672.23 299.89L597.72 307.25C597.72 307.25 617.2 305.02 597.72 307.25C573.45 307.29 565.55 310.65 565.55 310.65C565.55 310.65 573.9 308.09 565.55 310.65C548.62 314.81 540.13 312.16 537.63 310.61C522.95 299.86 526.04 288.58 526.04 288.58C526.04 288.58 525.64 291.43 526.04 288.58C542.41 299.33 552.09 294.1 557.72 291.64C573.52 289.38 598.85 292.54 598.85 292.54C598.85 292.54 627.07 297.07 598.85 292.54C570.63 288.01 566.13 291.86 556.92 290.51C544.11 286.16 539.5 274.59 537.39 267.54C549.24 271.7 560.95 268.23 569.34 268.63C582.91 269.44 601.11 278.39 601.11 278.39L672.23 299.89L672.23 299.89Z" /><g ><path class="shp6" d="M526.18 289.12C528.78 300.72 545.14 303.12 545.14 303.12C545.14 303.12 557.71 302.72 570.09 299.32C580.06 298.52 608 300.12 608 300.12L667.47 299.32" /><path class="shp6" d="M537.96 268.51C537.96 268.51 549.53 278.52 553.32 279.52C563.9 281.92 569.29 281.52 579.27 280.52C592.84 282.72 609.4 287.52 609.4 287.52L660.88 298.92" /></g></g><g ><path fill-rule="evenodd" class="shp5" d="M671.77 300.98L605.75 336.36C605.75 336.36 622.89 326.82 605.75 336.36C583.34 345.71 577.32 351.84 577.32 351.84C577.32 351.84 584.06 346.27 577.32 351.84C563.26 362.18 554.41 362.99 551.51 362.52C533.84 358.22 532.39 346.61 532.39 346.61C532.39 346.61 533.11 349.4 532.39 346.61C551.62 350.26 558.57 341.72 562.83 337.29C576.56 329.13 601.17 322.34 601.17 322.34C601.17 322.34 628.97 315.69 601.17 322.34C573.37 328.98 570.68 334.26 561.66 336.55C548.17 337.44 539.49 328.53 534.85 322.83C547.38 322.12 556.88 314.42 564.78 311.58C577.62 307.11 597.86 308.4 597.86 308.4L671.77 300.98L671.77 300.98Z" /><g ><path class="shp6" d="M532.73 347.06C539.56 356.78 555.59 352.72 555.59 352.72C555.59 352.72 567.06 347.53 577.19 339.64C586.1 335.07 612.52 325.83 612.52 325.83L667.16 302.28" /><path class="shp6" d="M535.74 323.5C535.74 323.5 550.26 328.3 554.14 327.77C564.83 325.93 569.65 323.5 578.49 318.75C591.87 315.57 609 313.65 609 313.65L660.92 304.44" /></g></g><g ><path fill-rule="evenodd" class="shp5" d="M672.2 301.33L624.7 359.35C624.7 359.35 636.9 343.96 624.7 359.35C607.56 376.58 604.35 384.56 604.35 384.56C604.35 384.56 608.45 376.82 604.35 384.56C595.31 399.5 587.44 403.65 584.58 404.33C566.62 407.13 560.84 396.96 560.84 396.96C560.84 396.96 562.57 399.26 560.84 396.96C580 392.96 583.16 382.4 585.4 376.67C594.98 363.87 615.12 348.14 615.12 348.14C615.12 348.14 638.27 331.34 615.12 348.14C591.97 364.95 591.51 370.86 584.04 376.44C571.92 382.44 560.5 377.53 554.03 374.04C565.34 368.58 571.18 357.82 577.39 352.17C587.55 343.11 606.74 336.54 606.74 336.54L672.2 301.33L672.2 301.33Z" /><g ><path class="shp6" d="M561.33 397.24C571.35 403.61 584.61 393.7 584.61 393.7C584.61 393.7 593.22 384.51 599.57 373.33C606.06 365.69 626.94 347.02 626.94 347.02L668.43 304.3" /><path class="shp6" d="M555.12 374.32C555.12 374.32 570.36 373.19 573.75 371.21C582.92 365.41 586.45 361.31 592.8 353.53C603.94 345.46 619.04 337.12 619.04 337.12L663.49 308.68" /></g></g><g ><path fill-rule="evenodd" class="shp5" d="M673.57 302.07L651.84 373.9C651.84 373.9 657.23 355 651.84 373.9C642.58 396.39 642.65 405 642.65 405C642.65 405 643.49 396.28 642.65 405C640.01 422.27 634.32 429.12 631.93 430.85C616.41 440.32 607.2 433.14 607.2 433.14C607.2 433.14 609.67 434.61 607.2 433.14C623.37 422.1 622.26 411.13 622.14 404.98C626.1 389.47 638.71 367.22 638.71 367.22C638.71 367.22 653.68 342.81 638.71 367.22C623.74 391.63 625.56 397.27 620.79 405.28C611.88 415.48 599.46 415.32 592.15 414.59C600.52 405.2 601.81 393.02 605.39 385.41C611.32 373.15 626.54 359.72 626.54 359.72L673.57 302.07L673.57 302.07Z" /><g ><path class="shp6" d="M607.75 433.22C619.44 435.26 627.91 421.02 627.91 421.02C627.91 421.02 632.35 409.22 633.95 396.46C637.04 386.91 649.2 361.65 649.2 361.65L671.22 306.26" /><path class="shp6" d="M593.27 414.43C593.27 414.43 606.91 407.54 609.29 404.41C615.55 395.53 617.24 390.39 620.14 380.76C627.36 369.04 638.12 355.53 638.12 355.53L668.33 312.21" /></g></g></g></g><g ><g ><g ><path fill-rule="evenodd" class="shp5" d="M674.67 302.4L682.01 377.09C682.01 377.09 679.78 357.56 682.01 377.09C682.04 401.43 685.39 409.35 685.39 409.35C685.39 409.35 682.84 400.98 685.39 409.35C689.55 426.32 686.9 434.84 685.36 437.34C674.64 452.06 663.38 448.96 663.38 448.96C663.38 448.96 666.23 449.36 663.38 448.96C674.11 432.55 668.89 422.84 666.44 417.2C664.18 401.36 667.33 375.96 667.33 375.96C667.33 375.96 671.85 347.67 667.33 375.96C662.82 404.26 666.65 408.77 665.31 418C660.97 430.84 649.43 435.46 642.4 437.58C646.55 425.7 643.09 413.96 643.49 405.55C644.29 391.95 653.22 373.7 653.22 373.7L674.67 302.4L674.67 302.4Z" /><g ><path class="shp6" d="M663.92 448.81C675.5 446.21 677.89 429.81 677.89 429.81C677.89 429.81 677.49 417.2 674.1 404.8C673.3 394.8 674.9 366.79 674.9 366.79L674.1 307.17" /><path class="shp6" d="M643.37 437.01C643.37 437.01 653.35 425.41 654.34 421.61C656.74 411 656.34 405.6 655.34 395.6C657.54 381.99 662.33 365.39 662.33 365.39L673.7 313.77" /></g></g><g ><path fill-rule="evenodd" class="shp5" d="M675.76 302.86L711.05 369.05C711.05 369.05 701.53 351.86 711.05 369.05C720.37 391.52 726.49 397.55 726.49 397.55C726.49 397.55 720.93 390.79 726.49 397.55C736.8 411.64 737.61 420.52 737.14 423.43C732.85 441.14 721.27 442.59 721.27 442.59C721.27 442.59 724.05 441.87 721.27 442.59C724.91 423.32 716.39 416.35 711.97 412.08C703.84 398.31 697.06 373.64 697.06 373.64C697.06 373.64 690.43 345.76 697.06 373.64C703.68 401.51 708.95 404.2 711.23 413.25C712.12 426.78 703.23 435.47 697.54 440.13C696.84 427.56 689.16 418.04 686.32 410.12C681.87 397.25 683.16 376.96 683.16 376.96L675.76 302.86L675.76 302.86Z" /><g ><path class="shp6" d="M721.71 442.25C731.41 435.41 727.37 419.33 727.37 419.33C727.37 419.33 722.19 407.84 714.32 397.68C709.76 388.75 700.54 362.26 700.54 362.26L677.05 307.48" /><path class="shp6" d="M698.22 439.23C698.22 439.23 703.01 424.68 702.48 420.79C700.64 410.07 698.21 405.23 693.47 396.38C690.31 382.97 688.39 365.79 688.39 365.79L679.2 313.74" /></g></g><g ><path fill-rule="evenodd" class="shp5" d="M676.1 302.43L733.97 350.05C733.97 350.05 718.62 337.82 733.97 350.05C751.16 367.23 759.12 370.45 759.12 370.45C759.12 370.45 751.41 366.34 759.12 370.45C774.03 379.51 778.16 387.4 778.84 390.27C781.63 408.28 771.49 414.07 771.49 414.07C771.49 414.07 773.79 412.34 771.49 414.07C767.5 394.86 756.97 391.69 751.25 389.45C738.48 379.84 722.8 359.65 722.8 359.65C722.8 359.65 706.04 336.44 722.8 359.65C739.56 382.86 745.45 383.33 751.02 390.81C757 402.96 752.11 414.41 748.63 420.9C743.18 409.56 732.45 403.7 726.81 397.48C717.78 387.29 711.22 368.05 711.22 368.05L676.1 302.43L676.1 302.43Z" /><g ><path class="shp6" d="M771.77 413.58C778.12 403.54 768.24 390.24 768.24 390.24C768.24 390.24 759.07 381.61 747.92 375.24C740.3 368.74 721.68 347.8 721.68 347.8L679.06 306.21" /><path class="shp6" d="M748.91 419.8C748.91 419.8 747.78 404.53 745.81 401.13C740.02 391.94 735.93 388.4 728.17 382.03C720.13 370.86 711.8 355.72 711.8 355.72L683.44 311.16" /></g></g><g ><path fill-rule="evenodd" class="shp5" d="M676.84 301.06L748.49 322.84C748.49 322.84 729.63 317.44 748.49 322.84C770.92 332.12 779.51 332.05 779.51 332.05C779.51 332.05 770.81 331.21 779.51 332.05C796.74 334.7 803.57 340.41 805.29 342.8C814.75 358.36 807.58 367.6 807.58 367.6C807.58 367.6 809.05 365.12 807.58 367.6C796.57 351.39 785.63 352.5 779.49 352.61C764.02 348.64 741.83 336 741.83 336C741.83 336 717.48 320.99 741.83 336C766.17 351.01 771.8 349.19 779.79 353.97C789.96 362.9 789.81 375.35 789.07 382.68C779.71 374.29 767.56 373 759.97 369.41C747.74 363.47 734.34 348.21 734.34 348.21L676.84 301.06L676.84 301.06Z" /><g ><path class="shp6" d="M807.66 367.04C809.69 355.33 795.49 346.83 795.49 346.83C795.49 346.83 783.72 342.38 770.99 340.77C761.47 337.68 736.27 325.49 736.27 325.49L681.02 303.41" /><path class="shp6" d="M788.91 381.56C788.91 381.56 782.04 367.88 778.92 365.5C770.06 359.22 764.93 357.53 755.33 354.62C743.64 347.38 730.17 336.59 730.17 336.59L686.95 306.31" /></g></g></g><g ><g ><path fill-rule="evenodd" class="shp5" d="M677.77 300.11L752.28 292.75C752.28 292.75 732.8 294.98 752.28 292.75C776.55 292.71 784.45 289.35 784.45 289.35C784.45 289.35 776.1 291.91 784.45 289.35C801.38 285.19 809.87 287.84 812.37 289.39C827.05 300.14 823.96 311.42 823.96 311.42C823.96 311.42 824.36 308.57 823.96 311.42C807.59 300.67 797.91 305.9 792.28 308.36C776.48 310.62 751.15 307.46 751.15 307.46C751.15 307.46 722.93 302.93 751.15 307.46C779.37 311.99 783.87 308.14 793.08 309.49C805.89 313.84 810.5 325.41 812.61 332.46C800.76 328.3 789.05 331.77 780.66 331.37C767.09 330.56 748.89 321.61 748.89 321.61L677.77 300.11L677.77 300.11Z" /><g ><path class="shp6" d="M823.82 310.88C821.22 299.28 804.86 296.88 804.86 296.88C804.86 296.88 792.29 297.28 779.91 300.68C769.94 301.48 742 299.88 742 299.88L682.53 300.68" /><path class="shp6" d="M812.04 331.49C812.04 331.49 800.47 321.48 796.68 320.48C786.1 318.08 780.71 318.48 770.73 319.48C757.16 317.28 740.6 312.48 740.6 312.48L689.12 301.08" /></g></g><g ><path fill-rule="evenodd" class="shp5" d="M678.23 299.02L744.25 263.64C744.25 263.64 727.11 273.18 744.25 263.64C766.66 254.29 772.68 248.16 772.68 248.16C772.68 248.16 765.94 253.73 772.68 248.16C786.74 237.82 795.59 237.01 798.49 237.48C816.16 241.78 817.61 253.39 817.61 253.39C817.61 253.39 816.89 250.6 817.61 253.39C798.38 249.74 791.43 258.28 787.17 262.71C773.44 270.87 748.83 277.66 748.83 277.66C748.83 277.66 721.03 284.31 748.83 277.66C776.63 271.02 779.32 265.74 788.34 263.45C801.83 262.56 810.51 271.47 815.15 277.17C802.62 277.88 793.12 285.58 785.22 288.42C772.38 292.89 752.14 291.6 752.14 291.6L678.23 299.02L678.23 299.02Z" /><g ><path class="shp6" d="M817.27 252.94C810.44 243.22 794.41 247.28 794.41 247.28C794.41 247.28 782.94 252.47 772.81 260.36C763.9 264.93 737.48 274.17 737.48 274.17L682.84 297.72" /><path class="shp6" d="M814.26 276.5C814.26 276.5 799.74 271.7 795.86 272.23C785.17 274.07 780.35 276.5 771.51 281.25C758.13 284.43 741 286.35 741 286.35L689.08 295.56" /></g></g><g ><path fill-rule="evenodd" class="shp5" d="M677.8 298.67L725.3 240.65C725.3 240.65 713.1 256.04 725.3 240.65C742.44 223.42 745.65 215.44 745.65 215.44C745.65 215.44 741.55 223.18 745.65 215.44C754.69 200.5 762.56 196.35 765.42 195.67C783.38 192.87 789.16 203.04 789.16 203.04C789.16 203.04 787.43 200.74 789.16 203.04C770 207.04 766.84 217.6 764.6 223.33C755.02 236.13 734.88 251.86 734.88 251.86C734.88 251.86 711.73 268.66 734.88 251.86C758.03 235.05 758.49 229.14 765.96 223.56C778.08 217.56 789.5 222.47 795.97 225.96C784.66 231.42 778.82 242.18 772.61 247.83C762.45 256.89 743.26 263.46 743.26 263.46L677.8 298.67L677.8 298.67Z" /><g ><path class="shp6" d="M788.67 202.76C778.65 196.39 765.39 206.3 765.39 206.3C765.39 206.3 756.78 215.49 750.43 226.67C743.94 234.31 723.06 252.98 723.06 252.98L681.57 295.7" /><path class="shp6" d="M794.88 225.68C794.88 225.68 779.64 226.81 776.25 228.79C767.08 234.59 763.55 238.69 757.2 246.47C746.06 254.54 730.96 262.88 730.96 262.88L686.51 291.32" /></g></g><g ><path fill-rule="evenodd" class="shp5" d="M676.43 297.93L698.16 226.1C698.16 226.1 692.77 245 698.16 226.1C707.42 203.61 707.35 195 707.35 195C707.35 195 706.51 203.72 707.35 195C709.99 177.73 715.68 170.88 718.07 169.15C733.59 159.68 742.8 166.86 742.8 166.86C742.8 166.86 740.33 165.39 742.8 166.86C726.63 177.9 727.74 188.87 727.86 195.02C723.9 210.53 711.29 232.78 711.29 232.78C711.29 232.78 696.32 257.19 711.29 232.78C726.26 208.37 724.44 202.73 729.21 194.72C738.12 184.52 750.54 184.68 757.85 185.41C749.48 194.8 748.19 206.98 744.61 214.59C738.68 226.85 723.46 240.28 723.46 240.28L676.43 297.93L676.43 297.93Z" /><g ><path class="shp6" d="M742.25 166.78C730.56 164.74 722.09 178.98 722.09 178.98C722.09 178.98 717.65 190.78 716.05 203.54C712.96 213.09 700.8 238.35 700.8 238.35L678.78 293.74" /><path class="shp6" d="M756.73 185.57C756.73 185.57 743.09 192.46 740.71 195.59C734.45 204.47 732.76 209.61 729.86 219.24C722.64 230.96 711.88 244.47 711.88 244.47L681.67 287.79" /></g></g></g></g><path class="shp7" d="M749.52 300C749.52 319.76 741.67 338.72 727.69 352.69C713.72 366.67 694.76 374.52 675 374.52C655.24 374.52 636.28 366.67 622.31 352.69C608.33 338.72 600.48 319.76 600.48 300C600.48 280.24 608.33 261.28 622.31 247.3C636.28 233.33 655.24 225.48 675 225.48C694.76 225.48 713.72 233.33 727.69 247.3C741.67 261.28 749.52 280.24 749.52 300L749.52 300Z" /><path fill-rule="evenodd" class="shp8" d="M656.31 369.2L647.14 380.89L657.97 387.86L666.86 389.25L667.42 377.27L665.48 375.05L665.2 371.42L656.31 369.2L656.31 369.2Z" /><path class="shp5" d="M644.67 342.37C633.43 334.33 625.85 322.15 623.58 308.52C621.32 294.88 624.57 280.9 632.62 269.66C640.66 258.42 652.84 250.84 666.48 248.59C680.11 246.33 694.09 249.58 705.33 257.63C716.57 265.67 724.15 277.85 726.42 291.48C728.68 305.12 725.43 319.1 717.38 330.34C709.34 341.58 697.16 349.16 683.52 351.41C669.89 353.67 655.91 350.42 644.67 342.37L644.67 342.37Z" /><path class="shp9" d="M644.53 257.69L673.48 297.9L648.83 254.9L673.69 297.76L653.37 252.55L673.92 297.64L658.13 250.66L674.15 297.54L663.05 249.25L674.4 297.47L668.08 248.32L674.65 297.43L673.18 247.89L674.9 297.4L678.29 247.96L675.16 297.41L683.38 248.54L675.41 297.43L688.38 249.61L675.66 297.49L693.26 251.16L675.9 297.56L697.96 253.18L676.14 297.66L702.43 255.66L676.36 297.79L706.65 258.56L676.57 297.93L710.56 261.86L676.77 298.09L714.12 265.53L676.95 298.28L717.31 269.53L677.1 298.48L720.1 273.83L677.24 298.69L722.45 278.37L677.36 298.92L724.34 283.13L677.46 299.15L725.75 288.05L677.53 299.4L726.68 293.08L677.57 299.65L727.11 298.18L677.6 299.9L727.04 303.29L677.59 300.16L726.46 308.38L677.57 300.41L725.39 313.38L677.51 300.66L723.84 318.26L677.44 300.9L721.82 322.96L677.34 301.14L719.34 327.43L677.21 301.36L716.44 331.65L677.07 301.57L713.14 335.56L676.91 301.77L709.47 339.12L676.72 301.94L705.47 342.31L676.52 302.1L701.17 345.1L676.31 302.24L696.63 347.45L676.08 302.36L691.87 349.34L675.85 302.46L686.95 350.75L675.6 302.53L681.92 351.68L675.35 302.57L676.82 352.11L675.1 302.6L671.71 352.04L674.84 302.59L666.62 351.46L674.59 302.57L661.62 350.39L674.34 302.51L656.74 348.84L674.1 302.44L652.04 346.82L673.86 302.34L647.57 344.34L673.64 302.21L643.35 341.44L673.43 302.07L639.44 338.14L673.23 301.91L635.88 334.47L673.06 301.72L632.69 330.47L672.9 301.52L629.9 326.17L672.76 301.31L627.55 321.63L672.64 301.08L625.66 316.87L672.54 300.85L624.25 311.95L672.47 300.6L623.32 306.92L672.43 300.35L622.89 301.82L672.4 300.1L622.96 296.71L672.41 299.84L623.54 291.62L672.43 299.59L624.61 286.62L672.49 299.34L626.16 281.74L672.56 299.1L628.18 277.04L672.66 298.86L630.66 272.57L672.79 298.64L633.56 268.35L672.93 298.43L636.86 264.44L673.09 298.23L640.53 260.88L673.28 298.06L644.53 257.69Z" /><path class="shp10" d="M650.22 358.02C650.22 359 649.83 359.94 649.14 360.64C648.45 361.33 647.51 361.72 646.53 361.72C645.55 361.72 644.61 361.33 643.92 360.64C643.22 359.94 642.84 359 642.84 358.02C642.84 357.03 643.22 356.09 643.92 355.39C644.61 354.7 645.55 354.31 646.53 354.31C647.51 354.31 648.45 354.7 649.14 355.39C649.83 356.09 650.22 357.03 650.22 358.02L650.22 358.02Z" /><path class="shp10" d="M707.22 358.02C707.23 359 706.84 359.94 706.14 360.64C705.45 361.33 704.51 361.72 703.53 361.72C702.55 361.72 701.61 361.33 700.92 360.64C700.23 359.94 699.84 359 699.84 358.02C699.84 357.03 700.23 356.09 700.92 355.39C701.61 354.7 702.55 354.31 703.53 354.31C704.51 354.31 705.45 354.7 706.14 355.39C706.84 356.09 707.23 357.03 707.22 358.02L707.22 358.02Z" /><path fill-rule="evenodd" class="shp8" d="M663.57 352.61L661.22 361.28L665.93 375.85L675.75 376.64L673 371.52L675.36 376.25L684.01 375.85L685.97 364.82L688.72 361.67L687.15 354.18L671.43 352.22L663.57 352.61Z" /><path fill-rule="evenodd" class="shp8" d="M688.72 362.68L698.29 375.01L703.84 379.83L698.35 374.74L710.55 376.08L708.01 388.64L700.15 393.86L691.6 391.27L684.59 373.96L685.82 366.92L688.72 362.68L688.72 362.68Z" /><g ><path fill-rule="evenodd" class="shp11" d="M673.96 228.58L678.49 228.9L678.46 229.43C678.14 229.49 677.91 229.56 677.77 229.63C677.62 229.7 677.49 229.79 677.39 229.91C677.3 230.02 677.23 230.2 677.17 230.43C677.11 230.67 677.08 231.04 677.05 231.54L676.75 235.37L682.74 235.82L683.02 231.96C683.06 231.33 683.09 230.92 683.04 230.68C683 230.45 682.9 230.27 682.77 230.13C682.63 230 682.36 229.85 681.95 229.71L681.97 229.18L686.5 229.51L686.45 230.03C686.04 230.1 685.75 230.19 685.58 230.31C685.41 230.42 685.31 230.61 685.23 230.86C685.16 231.11 685.08 231.52 685.03 232.11L684.34 241.51C684.31 241.93 684.31 242.25 684.31 242.47C684.32 242.68 684.35 242.84 684.39 242.97C684.43 243.1 684.47 243.21 684.54 243.29C684.6 243.38 684.71 243.47 684.83 243.54C684.96 243.62 685.16 243.7 685.43 243.79L685.41 244.32L680.88 243.97L680.93 243.44C681.33 243.37 681.61 243.28 681.77 243.17C681.94 243.06 682.07 242.89 682.15 242.64C682.23 242.39 682.3 241.96 682.35 241.36L682.67 236.83L676.67 236.37L676.35 240.91C676.31 241.4 676.31 241.76 676.32 241.99C676.34 242.22 676.38 242.38 676.45 242.52C676.51 242.65 676.61 242.77 676.75 242.87C676.89 242.96 677.12 243.08 677.44 243.19L677.39 243.72L672.86 243.37L672.91 242.84C673.37 242.76 673.67 242.64 673.84 242.52C674 242.39 674.12 242.2 674.18 241.94C674.25 241.68 674.29 241.3 674.33 240.76L675.03 231.39C675.07 230.89 675.07 230.51 675.05 230.28C675.04 230.05 674.98 229.86 674.91 229.73C674.83 229.6 674.74 229.49 674.61 229.41C674.48 229.32 674.26 229.22 673.93 229.11L673.96 228.58L673.96 228.58ZM664.8 229.48C665.42 229.44 666.14 229.43 666.92 229.48L667.46 232.44L666.39 232.64C666.08 232.03 665.78 231.57 665.45 231.26C665.12 230.95 664.75 230.74 664.35 230.66C663.96 230.57 663.49 230.58 662.93 230.68C662.16 230.83 661.53 231.2 661.04 231.81C660.55 232.42 660.24 233.24 660.1 234.27C659.95 235.3 660.02 236.53 660.27 237.9C660.53 239.3 660.89 240.45 661.34 241.39C661.8 242.33 662.33 243.02 662.96 243.42C663.59 243.82 664.29 243.94 665.08 243.79C665.91 243.64 666.51 243.33 666.84 242.89C667.18 242.45 667.28 241.85 667.14 241.09L667.02 240.43C666.9 239.79 666.79 239.35 666.67 239.08C666.55 238.81 666.39 238.6 666.2 238.48C666 238.35 665.68 238.28 665.27 238.25L665.17 237.73L669.48 236.93L669.55 237.45C669.32 237.59 669.16 237.72 669.06 237.85C668.95 237.99 668.87 238.13 668.83 238.3C668.8 238.48 668.79 238.71 668.81 238.96C668.83 239.2 668.88 239.54 668.96 239.98L669.63 243.69L668.86 244.07L667.91 243.37C667.5 243.74 667.07 244.04 666.59 244.27C666.12 244.5 665.55 244.67 664.9 244.8C663.11 245.13 661.66 244.76 660.52 243.69C659.39 242.63 658.58 240.89 658.13 238.45C657.85 236.94 657.85 235.53 658.13 234.29C658.42 233.05 658.99 232.05 659.8 231.26C660.61 230.47 661.63 229.97 662.89 229.73C663.54 229.61 664.18 229.52 664.8 229.48L664.8 229.48ZM692.25 230.73L703.3 234.57L702.08 238.15L701.09 237.8C701.14 237.16 701.14 236.64 701.11 236.25C701.08 235.86 701.01 235.53 700.91 235.3C700.81 235.06 700.67 234.89 700.51 234.74C700.35 234.6 700.09 234.47 699.72 234.34L698.42 233.89L694.81 244.42C694.68 244.82 694.6 245.17 694.57 245.42C694.53 245.68 694.52 245.88 694.57 246.05C694.61 246.22 694.71 246.39 694.84 246.53C694.97 246.66 695.18 246.81 695.49 247L695.31 247.5L690.66 245.9L690.81 245.4C691.03 245.42 691.23 245.42 691.4 245.42C691.58 245.42 691.73 245.39 691.85 245.35C691.98 245.3 692.09 245.25 692.2 245.15C692.31 245.05 692.41 244.9 692.52 244.7C692.63 244.5 692.78 244.18 692.92 243.77L696.51 233.24L695.21 232.79C694.89 232.68 694.62 232.62 694.39 232.61C694.16 232.6 693.94 232.66 693.69 232.79C693.45 232.92 693.19 233.16 692.92 233.47C692.65 233.78 692.34 234.17 692.03 234.67L691.03 234.32L692.25 230.73L692.25 230.73ZM651.71 232.79L651.91 233.29C651.64 233.48 651.44 233.64 651.34 233.77C651.24 233.89 651.17 234.03 651.14 234.17C651.1 234.31 651.11 234.51 651.16 234.74C651.21 234.98 651.33 235.33 651.51 235.8L654.87 244.57C655.05 245.02 655.18 245.35 655.29 245.55C655.41 245.75 655.53 245.88 655.64 245.97C655.76 246.07 655.9 246.15 656.07 246.17C656.24 246.2 656.5 246.19 656.84 246.15L657.04 246.65L652.78 248.31L652.58 247.8C652.96 247.53 653.19 247.31 653.28 247.13C653.37 246.94 653.4 246.71 653.35 246.45C653.3 246.19 653.17 245.8 652.98 245.3L649.62 236.52C649.44 236.06 649.29 235.72 649.17 235.52C649.06 235.32 648.95 235.18 648.82 235.1C648.7 235.01 648.56 234.94 648.4 234.92C648.25 234.9 648 234.91 647.65 234.95L647.46 234.44L651.71 232.79L651.71 232.79ZM638.97 239.46C638.74 239.7 638.58 239.88 638.5 240.01C638.42 240.14 638.39 240.27 638.37 240.41C638.36 240.55 638.39 240.73 638.47 240.96C638.56 241.19 638.73 241.54 638.99 241.99L644.69 251.51L647.11 250.06C647.37 249.9 647.59 249.75 647.75 249.61C647.91 249.47 648.04 249.32 648.13 249.18C648.22 249.04 648.27 248.88 648.3 248.71C648.33 248.53 648.35 248.32 648.33 248.08C648.31 247.84 648.26 247.54 648.18 247.2C648.09 246.87 647.94 246.39 647.73 245.75L648.65 245.2L650.72 249.06L642.38 254.1L642.11 253.62C642.43 253.29 642.62 253.04 642.68 252.84C642.73 252.64 642.72 252.41 642.63 252.17C642.53 251.92 642.35 251.55 642.08 251.09L637.28 243.04C637.02 242.61 636.8 242.29 636.65 242.11C636.51 241.94 636.37 241.83 636.23 241.76C636.1 241.7 635.97 241.66 635.81 241.66C635.65 241.67 635.39 241.72 635.06 241.81L634.79 241.36L638.7 239.01L638.97 239.46ZM715.54 242.64C716.63 242.73 717.64 243.15 718.58 243.89C719.59 244.69 720.26 245.58 720.6 246.58C720.93 247.57 720.95 248.64 720.62 249.78C720.29 250.93 719.63 252.12 718.66 253.37C717.61 254.7 716.53 255.67 715.42 256.28C714.31 256.88 713.21 257.14 712.14 257.03C711.06 256.91 710.04 256.46 709.07 255.7C708.39 255.16 707.86 254.56 707.48 253.89C707.1 253.23 706.91 252.51 706.88 251.71C706.86 250.92 707.02 250.07 707.38 249.16C707.74 248.24 708.32 247.26 709.12 246.22C710.12 244.95 711.16 244.03 712.26 243.42C713.36 242.81 714.46 242.55 715.54 242.64L715.54 242.64ZM714.65 244.22C714.06 244.47 713.46 244.88 712.86 245.42C712.26 245.96 711.67 246.61 711.07 247.38C709.7 249.13 708.91 250.65 708.7 251.96C708.5 253.28 708.87 254.33 709.85 255.1C710.46 255.59 711.15 255.81 711.89 255.75C712.63 255.69 713.41 255.37 714.23 254.77C715.04 254.18 715.84 253.36 716.64 252.34C717.61 251.1 718.27 249.97 718.66 248.96C719.04 247.94 719.18 247.07 719.03 246.35C718.88 245.63 718.51 245.05 717.93 244.6C717.42 244.19 716.89 243.97 716.34 243.92C715.79 243.87 715.23 243.97 714.65 244.22ZM625.88 249.23L628.04 251.19L627.32 251.99C626.74 251.69 626.24 251.51 625.8 251.46C625.37 251.41 624.99 251.46 624.66 251.61C624.33 251.77 624 252.06 623.64 252.47C623.33 252.82 623.09 253.18 622.97 253.57C622.85 253.96 622.85 254.37 622.97 254.77C623.08 255.17 623.31 255.52 623.66 255.85C624.04 256.2 624.45 256.43 624.83 256.53C625.22 256.63 625.64 256.64 626.13 256.55C626.61 256.47 627.25 256.27 628.04 255.95C629 255.57 629.8 255.31 630.43 255.2C631.07 255.09 631.66 255.09 632.23 255.22C632.79 255.35 633.34 255.64 633.84 256.1C634.4 256.61 634.78 257.15 635.01 257.68C635.24 258.21 635.35 258.75 635.31 259.28C635.27 259.82 635.1 260.35 634.81 260.89C634.53 261.43 634.16 261.95 633.69 262.47C632.94 263.31 631.91 264.15 630.63 265L628.44 263.02L629.16 262.22C629.73 262.54 630.25 262.73 630.68 262.79C631.12 262.86 631.53 262.79 631.93 262.62C632.32 262.45 632.71 262.15 633.12 261.69C633.69 261.06 633.97 260.42 633.94 259.79C633.92 259.15 633.57 258.55 632.95 257.98C632.55 257.62 632.15 257.39 631.75 257.28C631.35 257.17 630.91 257.15 630.38 257.25C629.86 257.35 629.15 257.6 628.24 257.96C627.37 258.3 626.6 258.51 625.98 258.61C625.35 258.7 624.8 258.69 624.29 258.56C623.78 258.42 623.3 258.15 622.89 257.78C622.29 257.24 621.91 256.63 621.72 255.95C621.54 255.27 621.57 254.53 621.82 253.77C622.07 253 622.51 252.27 623.14 251.56C623.51 251.15 623.89 250.79 624.29 250.44C624.68 250.08 625.2 249.68 625.88 249.23L625.88 249.23ZM727.44 252.09L730.18 255.75L729.75 256.08C729.43 255.81 729.15 255.65 728.96 255.6C728.76 255.55 728.55 255.57 728.31 255.67C728.08 255.78 727.74 256.02 727.27 256.38L721.14 260.99C720.59 261.41 720.17 261.84 719.87 262.24C719.58 262.65 719.4 263.05 719.35 263.42C719.3 263.79 719.35 264.16 719.48 264.52C719.6 264.89 719.82 265.31 720.15 265.75C720.45 266.16 720.8 266.45 721.17 266.65C721.54 266.85 721.95 266.94 722.39 266.93C722.83 266.92 723.28 266.8 723.76 266.55C724.23 266.31 724.82 265.91 725.52 265.37L730.92 261.29C731.42 260.91 731.75 260.63 731.89 260.44C732.04 260.25 732.13 260.07 732.14 259.89C732.16 259.7 732.07 259.38 731.89 258.96L732.32 258.63L734.93 262.12L734.51 262.42C734.17 262.15 733.88 261.99 733.69 261.94C733.49 261.89 733.29 261.94 733.06 262.04C732.83 262.14 732.47 262.36 731.99 262.72L726.44 266.93C725.82 267.4 725.24 267.75 724.7 267.98C724.19 268.2 723.68 268.32 723.18 268.36C722.73 268.38 722.28 268.32 721.84 268.18C721.41 268.04 720.99 267.79 720.55 267.46C720.11 267.12 719.66 266.66 719.23 266.08C718.7 265.38 718.33 264.72 718.11 264.1C717.89 263.48 717.85 262.89 717.96 262.29C718.07 261.7 718.31 261.15 718.68 260.64C719.05 260.13 719.61 259.6 720.35 259.03L726.02 254.72C726.47 254.38 726.76 254.14 726.89 254C727.03 253.85 727.14 253.69 727.19 253.57C727.24 253.44 727.25 253.3 727.24 253.14C727.23 252.99 727.15 252.76 727.02 252.42L727.44 252.09L727.44 252.09ZM620.53 262.34L619.88 263.29L615.4 260.71L616.7 258.81L620.53 262.34ZM612.94 265.75L612.94 265.75L612.94 265.75L612.94 265.75ZM612.94 265.75L613.44 265.95C613.39 266.29 613.37 266.53 613.39 266.68C613.4 266.83 613.44 266.98 613.51 267.1C613.58 267.23 613.71 267.35 613.91 267.48C614.1 267.61 614.45 267.77 614.93 267.98L626.03 272.82L625.51 274.07L613.86 275.6C613.14 275.7 612.59 275.77 612.27 275.8C611.94 275.83 611.63 275.86 611.32 275.88L611.25 276.03C611.77 276.2 612.72 276.57 614.06 277.13C615.4 277.69 616.72 278.26 618.04 278.83L620.06 279.71C620.5 279.91 620.83 280.03 621.05 280.09C621.27 280.15 621.45 280.18 621.6 280.16C621.75 280.15 621.91 280.09 622.05 279.99C622.18 279.89 622.36 279.68 622.57 279.41L623.04 279.64L621.47 283.27L621 283.07C621.07 282.61 621.07 282.29 621 282.09C620.93 281.9 620.77 281.71 620.55 281.57C620.33 281.42 620 281.25 619.51 281.04L610.92 277.31C610.47 277.11 610.12 276.96 609.9 276.9C609.68 276.85 609.5 276.83 609.35 276.85C609.21 276.88 609.08 276.96 608.96 277.06C608.83 277.15 608.65 277.34 608.43 277.61L607.94 277.38L609.28 274.25L619.58 272.89C620.08 272.83 620.51 272.78 620.88 272.74C621.24 272.71 621.65 272.68 622.1 272.67L622.15 272.54C621.73 272.4 620.92 272.06 619.71 271.57C618.5 271.07 617.41 270.63 616.45 270.21L614.36 269.28C613.9 269.09 613.56 268.97 613.34 268.91C613.11 268.84 612.93 268.81 612.79 268.83C612.65 268.85 612.51 268.92 612.39 269.01C612.27 269.1 612.11 269.27 611.89 269.54L611.4 269.34L612.94 265.75ZM739.86 272.39C740.5 273.96 740.7 275.27 740.46 276.28C740.21 277.29 739.48 278.04 738.29 278.53C737.38 278.91 736.5 278.98 735.65 278.73C734.81 278.49 734.01 277.94 733.24 277.08L733.14 277.13C733.14 277.61 733.06 278.04 732.87 278.46C732.68 278.88 732.33 279.41 731.82 280.04L730.55 281.62C730.18 282.08 729.91 282.45 729.73 282.75C729.55 283.04 729.43 283.32 729.38 283.57C729.33 283.82 729.35 284.11 729.43 284.45L728.93 284.65L727.79 281.87C728.04 281.47 728.32 281.09 728.63 280.69C728.95 280.29 729.28 279.88 729.61 279.49L730.9 277.91C731.3 277.43 731.58 277.05 731.75 276.78C731.92 276.51 732.03 276.29 732.07 276.1C732.11 275.92 732.1 275.73 732.07 275.55C732.04 275.37 731.95 275.13 731.82 274.8L731.37 273.7L727.99 275.1C727.51 275.3 727.17 275.47 726.97 275.6C726.77 275.73 726.62 275.83 726.54 275.95C726.46 276.07 726.41 276.22 726.4 276.38C726.38 276.53 726.38 276.79 726.42 277.13L725.92 277.33L724.21 273.09L724.68 272.89C724.95 273.27 725.19 273.48 725.37 273.57C725.56 273.66 725.79 273.68 726.05 273.62C726.3 273.57 726.67 273.42 727.17 273.22L735.8 269.64C736.26 269.45 736.6 269.28 736.8 269.16C736.99 269.04 737.14 268.93 737.22 268.81C737.31 268.68 737.35 268.54 737.37 268.38C737.39 268.23 737.38 267.98 737.35 267.63L737.82 267.43L739.86 272.39ZM732.24 273.35L732.69 274.47C732.93 275.06 733.18 275.52 733.41 275.85C733.64 276.18 733.92 276.44 734.28 276.65C734.64 276.87 735.06 276.97 735.55 276.98C736.04 276.99 736.61 276.88 737.22 276.63C737.85 276.37 738.33 276.04 738.66 275.65C738.99 275.26 739.17 274.78 739.21 274.25C739.25 273.71 739.12 273.07 738.81 272.32C738.57 271.71 738.35 271.23 738.17 270.86L732.24 273.35ZM606.32 283.57L609.55 284.1L609.38 285.15C609.01 285.2 608.69 285.25 608.41 285.33C608.13 285.4 607.88 285.48 607.69 285.58C607.49 285.67 607.34 285.8 607.21 285.93C607.08 286.06 606.99 286.21 606.92 286.4C606.85 286.6 606.79 286.83 606.74 287.11L606.19 290.52L611.79 291.39L612.17 289.09C612.22 288.77 612.2 288.53 612.14 288.33C612.08 288.14 611.94 287.96 611.74 287.81C611.55 287.66 611.24 287.51 610.8 287.33L610.97 286.3L615.05 286.96L614.9 287.96C614.46 287.99 614.12 288.07 613.88 288.16C613.65 288.25 613.48 288.36 613.36 288.51C613.24 288.66 613.14 288.9 613.09 289.24L612.74 291.54L618.89 292.52L619.41 289.19C619.46 288.84 619.48 288.54 619.46 288.31C619.43 288.08 619.36 287.89 619.23 287.71C619.11 287.53 618.95 287.34 618.74 287.18C618.52 287.02 618.28 286.88 618.04 286.76C617.8 286.63 617.46 286.47 616.99 286.25L617.17 285.2L620.88 285.98L619.31 295.93L618.79 295.85C618.74 295.39 618.68 295.07 618.56 294.9C618.45 294.73 618.26 294.61 618.02 294.53C617.77 294.44 617.37 294.33 616.85 294.25L607.61 292.8C607.12 292.72 606.77 292.67 606.54 292.67C606.31 292.67 606.13 292.71 605.99 292.77C605.86 292.83 605.74 292.92 605.65 293.05C605.55 293.17 605.42 293.41 605.27 293.72L604.75 293.62L606.32 283.57L606.32 283.57ZM737.37 290.42C738.9 290.32 740.24 290.5 741.43 290.94C742.61 291.38 743.56 292.06 744.24 292.97C744.92 293.88 745.28 294.97 745.36 296.26C745.4 296.93 745.4 297.58 745.36 298.21C745.32 298.84 745.23 299.52 745.08 300.29L742.12 300.47L742.07 299.41C742.71 299.18 743.19 298.9 743.54 298.61C743.89 298.32 744.13 297.99 744.26 297.61C744.4 297.23 744.45 296.75 744.41 296.18C744.37 295.39 744.08 294.71 743.54 294.15C743 293.59 742.23 293.17 741.23 292.9C740.23 292.63 739.03 292.54 737.64 292.62C736.23 292.71 735.04 292.91 734.06 293.25C733.08 293.59 732.34 294.05 731.87 294.63C731.4 295.21 731.18 295.9 731.22 296.71C731.27 297.56 731.5 298.17 731.89 298.56C732.29 298.95 732.87 299.13 733.64 299.09L734.28 299.04C734.93 299 735.39 298.95 735.68 298.86C735.96 298.78 736.18 298.64 736.32 298.46C736.47 298.28 736.6 297.99 736.67 297.58L737.2 297.56L737.44 301.95L736.92 301.97C736.82 301.71 736.72 301.52 736.6 301.39C736.48 301.27 736.32 301.18 736.15 301.12C735.98 301.06 735.8 301.03 735.55 301.02C735.31 301.01 734.95 301.02 734.51 301.04L730.78 301.27L730.5 300.44L731.3 299.59C730.98 299.14 730.74 298.67 730.58 298.16C730.41 297.65 730.29 297.05 730.25 296.38C730.14 294.55 730.7 293.15 731.89 292.14C733.09 291.14 734.91 290.56 737.37 290.42L737.37 290.42ZM604.9 298.41C604.99 298.7 605.12 298.94 605.27 299.11C605.42 299.28 605.65 299.44 605.97 299.59C606.29 299.74 606.78 299.91 607.46 300.12L619.76 303.67L619.86 305.1L608.14 309.69C607.5 309.94 607.06 310.15 606.79 310.32C606.53 310.48 606.32 310.66 606.19 310.84C606.07 311.03 605.99 311.29 605.95 311.6L605.42 311.62L605.02 306.73L605.55 306.68C605.63 307.01 605.72 307.27 605.82 307.43C605.92 307.6 606.05 307.71 606.22 307.79C606.38 307.86 606.6 307.88 606.87 307.86C607.11 307.84 607.38 307.79 607.66 307.71C607.94 307.63 608.24 307.52 608.58 307.38L617.17 304.15L608.09 301.74C607.95 301.71 607.79 301.68 607.64 301.64C607.48 301.61 607.34 301.59 607.19 301.57C607.04 301.55 606.92 301.55 606.82 301.54C606.71 301.54 606.61 301.54 606.52 301.54C606.09 301.58 605.78 301.71 605.6 301.92C605.41 302.13 605.31 302.49 605.27 302.97L604.75 303L604.38 298.46L604.9 298.41L604.9 298.41ZM735.3 306.36L742.27 307.74C742.82 307.84 743.22 307.88 743.42 307.89C743.62 307.89 743.76 307.88 743.89 307.84C744.02 307.79 744.13 307.7 744.24 307.59C744.34 307.47 744.48 307.26 744.64 306.93L745.16 307.03L744.31 311.52L743.79 311.42C743.77 311 743.71 310.7 743.62 310.52C743.52 310.34 743.36 310.2 743.12 310.09C742.88 309.99 742.48 309.88 741.9 309.77L734.38 308.29C733.7 308.15 733.11 308.11 732.62 308.16C732.12 308.22 731.71 308.35 731.4 308.56C731.09 308.78 730.86 309.05 730.68 309.39C730.49 309.73 730.33 310.18 730.23 310.72C730.13 311.22 730.13 311.69 730.23 312.1C730.33 312.51 730.54 312.85 730.85 313.17C731.15 313.5 731.55 313.76 732.04 313.95C732.54 314.15 733.24 314.33 734.11 314.5L740.73 315.81C741.34 315.93 741.76 315.97 742 315.96C742.24 315.94 742.42 315.87 742.57 315.76C742.72 315.64 742.9 315.37 743.09 314.95L743.62 315.08L742.8 319.34L742.27 319.22C742.25 318.78 742.2 318.49 742.1 318.31C742 318.14 741.83 317.99 741.6 317.89C741.37 317.78 740.96 317.67 740.38 317.56L733.56 316.23C732.79 316.08 732.15 315.88 731.62 315.63C731.12 315.39 730.68 315.08 730.33 314.73C730.01 314.41 729.74 314.05 729.56 313.63C729.37 313.21 729.25 312.73 729.21 312.17C729.16 311.62 729.22 310.98 729.36 310.27C729.52 309.41 729.74 308.69 730.05 308.11C730.36 307.53 730.79 307.08 731.3 306.76C731.81 306.44 732.37 306.24 732.99 306.18C733.61 306.12 734.39 306.18 735.3 306.36ZM620.18 310.97L621.75 315.73L621.25 315.91C621.07 315.59 620.92 315.35 620.78 315.2C620.64 315.06 620.48 314.99 620.3 314.95C620.13 314.92 619.93 314.95 619.68 315.03C619.45 315.11 619.21 315.21 618.96 315.36C618.71 315.5 618.42 315.67 618.11 315.88L616.92 316.71L618.51 321.52L619.63 321.55C620.2 321.56 620.62 321.55 620.9 321.52C621.18 321.49 621.41 321.42 621.62 321.35C622.03 321.21 622.3 321.02 622.42 320.74C622.54 320.47 622.58 320.1 622.49 319.64L622.99 319.47L624.46 323.88L623.94 324.05C623.75 323.69 623.42 323.43 622.94 323.28C622.47 323.12 621.83 323.03 621.03 323L608.26 322.5L607.74 320.87L617.99 313.53C618.47 313.18 618.82 312.89 619.06 312.67C619.3 312.45 619.48 312.23 619.58 312C619.68 311.76 619.71 311.48 619.68 311.14L620.18 310.97L620.18 310.97ZM610.15 321.42L617.54 321.55L616.1 317.24L610.15 321.42ZM727.32 318.56L727.79 318.76C727.73 319.22 727.74 319.55 727.81 319.74C727.89 319.94 728.04 320.13 728.26 320.27C728.48 320.41 728.84 320.57 729.33 320.77L737.99 324.33C738.45 324.52 738.79 324.63 739.01 324.68C739.24 324.73 739.41 324.76 739.56 324.73C739.71 324.7 739.86 324.63 739.98 324.53C740.1 324.43 740.27 324.25 740.48 323.98L740.95 324.18L739.24 328.41L738.76 328.21C738.81 327.89 738.81 327.65 738.79 327.49C738.77 327.33 738.72 327.18 738.64 327.06C738.56 326.94 738.42 326.81 738.22 326.68C738.01 326.56 737.68 326.4 737.22 326.21L728.56 322.67C728.11 322.49 727.78 322.38 727.56 322.32C727.35 322.27 727.17 322.25 727.02 322.27C726.87 322.29 726.73 322.34 726.59 322.45C726.46 322.55 726.28 322.75 726.07 323.03L725.6 322.82L727.32 318.56L727.32 318.56ZM625.31 325.21L630.63 333.73L630.18 334.03C629.85 333.71 629.59 333.51 629.39 333.45C629.19 333.4 628.96 333.43 628.72 333.53C628.47 333.63 628.12 333.82 627.67 334.1L619.76 339.12C619.34 339.38 619.03 339.59 618.86 339.74C618.69 339.9 618.58 340.03 618.51 340.17C618.45 340.31 618.43 340.46 618.44 340.62C618.45 340.78 618.49 341.02 618.59 341.35L618.14 341.62L612.79 333.03L615.55 331.27L616.1 332.17C615.86 332.46 615.67 332.71 615.5 332.95C615.34 333.19 615.22 333.43 615.13 333.63C615.04 333.83 614.99 334.02 614.98 334.2C614.97 334.39 614.98 334.56 615.05 334.76C615.13 334.95 615.25 335.17 615.4 335.41L617.22 338.32L622 335.28L620.78 333.33C620.61 333.06 620.43 332.86 620.25 332.75C620.08 332.65 619.88 332.61 619.63 332.63C619.39 332.64 619.04 332.72 618.59 332.88L618.06 332L621.57 329.79L622.1 330.65C621.78 330.96 621.57 331.25 621.45 331.47C621.33 331.69 621.29 331.88 621.3 332.07C621.31 332.27 621.39 332.51 621.57 332.8L622.82 334.78L628.09 331.45L626.3 328.59C626.11 328.29 625.92 328.04 625.75 327.89C625.59 327.73 625.42 327.64 625.21 327.59C625 327.53 624.75 327.51 624.49 327.54C624.22 327.56 623.95 327.6 623.69 327.66C623.43 327.73 623.06 327.82 622.57 327.96L622 327.06L625.31 325.21L625.31 325.21ZM725.13 325.63C725.02 325.96 724.96 326.19 724.95 326.36C724.94 326.52 724.94 326.68 725 326.81C725.06 326.94 725.18 327.1 725.35 327.26C725.52 327.42 725.83 327.61 726.25 327.89L734.04 333.08C734.46 333.36 734.77 333.53 734.98 333.63C735.19 333.72 735.38 333.78 735.53 333.78C735.68 333.78 735.81 333.75 735.95 333.68C736.09 333.61 736.28 333.43 736.55 333.2L737 333.5L734.41 337.49C733.66 338.63 732.92 339.48 732.19 340.04C731.47 340.61 730.7 340.99 729.88 341.17C729.06 341.35 728.2 341.31 727.32 341.07C726.43 340.84 725.48 340.41 724.48 339.74C723.46 339.07 722.64 338.36 722.02 337.61C721.39 336.87 720.98 336.08 720.75 335.28C720.54 334.59 720.47 333.89 720.55 333.13C720.61 332.5 720.8 331.83 721.09 331.15C721.39 330.47 721.88 329.63 722.54 328.61L724.68 325.33L725.13 325.63ZM722.99 329.72C722.65 330.23 722.39 330.69 722.21 331.15C722.04 331.6 721.92 332.05 721.89 332.5C721.86 332.95 721.91 333.4 722.06 333.88C722.22 334.35 722.45 334.82 722.76 335.26C723.07 335.7 723.47 336.12 723.93 336.54C724.39 336.95 724.92 337.36 725.52 337.76C726.74 338.57 727.87 339.08 728.88 339.24C729.9 339.41 730.79 339.27 731.57 338.87C732.35 338.46 733.05 337.83 733.64 336.94C733.91 336.52 734.14 336.12 734.36 335.73L723.71 328.67C723.52 328.89 723.29 329.25 722.99 329.72ZM632.23 335.93L635.54 339.07L635.16 339.44C634.8 339.24 634.51 339.14 634.32 339.12C634.12 339.1 633.91 339.15 633.69 339.29C633.48 339.44 633.16 339.73 632.75 340.17L629.64 343.48L634.02 347.64L637.13 344.33C637.46 343.98 637.69 343.71 637.82 343.53C637.95 343.34 638.01 343.17 638.05 343.03C638.08 342.88 638.1 342.72 638.05 342.55C638 342.39 637.88 342.17 637.7 341.87L638.05 341.47L641.36 344.63L641.01 345.01C640.61 344.78 640.3 344.68 640.09 344.68C639.88 344.68 639.68 344.75 639.47 344.91C639.26 345.06 638.96 345.34 638.6 345.73L632.18 352.55C631.83 352.92 631.58 353.21 631.45 353.4C631.32 353.6 631.26 353.76 631.23 353.91C631.2 354.06 631.21 354.21 631.25 354.36C631.3 354.51 631.43 354.74 631.6 355.03L631.23 355.41L627.92 352.28L628.29 351.88C628.58 352.04 628.81 352.14 628.97 352.18C629.12 352.22 629.27 352.23 629.41 352.2C629.55 352.17 629.72 352.07 629.91 351.93C630.1 351.78 630.37 351.54 630.71 351.17L633.32 348.37L628.97 344.21L626.35 347.01C625.92 347.47 625.64 347.8 625.53 348.02C625.42 348.23 625.36 348.43 625.38 348.62C625.4 348.81 625.53 349.09 625.75 349.47L625.41 349.85L622.1 346.71L622.47 346.34C622.83 346.54 623.11 346.64 623.32 346.66C623.52 346.68 623.72 346.63 623.94 346.49C624.15 346.34 624.48 346.04 624.88 345.61L631.28 338.77C631.57 338.46 631.77 338.23 631.9 338.06C632.03 337.9 632.13 337.74 632.18 337.61C632.23 337.49 632.25 337.37 632.25 337.26C632.25 337.15 632.23 337.03 632.18 336.89C632.12 336.75 632.03 336.56 631.88 336.31L632.23 335.93L632.23 335.93ZM716.61 337.81C716.36 338.2 716.23 338.51 716.22 338.72C716.2 338.92 716.25 339.14 716.39 339.37C716.53 339.59 716.78 339.9 717.14 340.3L723.46 347.24C723.79 347.61 724.05 347.85 724.23 347.99C724.41 348.13 724.58 348.23 724.73 348.27C724.87 348.3 725.02 348.3 725.18 348.27C725.33 348.23 725.57 348.12 725.87 347.97L726.22 348.37L718.78 355.26L716.59 352.83L717.36 352.1C717.68 352.29 717.97 352.46 718.23 352.58C718.5 352.7 718.74 352.78 718.95 352.83C719.17 352.88 719.37 352.9 719.55 352.88C719.73 352.86 719.9 352.79 720.07 352.68C720.25 352.57 720.44 352.42 720.65 352.23L723.16 349.9L719.33 345.71L717.64 347.29C717.4 347.5 717.23 347.7 717.16 347.89C717.09 348.08 717.1 348.3 717.16 348.54C717.22 348.78 717.35 349.1 717.59 349.52L716.84 350.2L714.03 347.14L714.77 346.44C715.14 346.69 715.46 346.86 715.69 346.94C715.93 347.02 716.15 347.03 716.34 346.99C716.53 346.94 716.74 346.79 716.99 346.56L718.68 345.01L714.47 340.37L712.01 342.65C711.75 342.89 711.56 343.13 711.44 343.33C711.32 343.52 711.23 343.71 711.21 343.93C711.2 344.15 711.24 344.4 711.31 344.66C711.38 344.92 711.48 345.16 711.59 345.41C711.7 345.65 711.86 346 712.09 346.46L711.29 347.19L708.88 344.26L716.24 337.44L716.61 337.81Z" /><path class="shp12" d="M675 247.89L656.86 276.35L626.63 284.88L647.79 310.49L644.77 344.64L675 333.26L705.23 344.64L702.21 310.49L723.37 284.88L693.14 276.35L675 247.89Z" /><path class="shp13" d="M684.08 314.75L665.84 314.71L660.25 295.55L675.02 283.76L689.75 295.62L684.08 314.75Z" /><path class="shp14" d="M675.05 248.19L675.04 300" /><path class="shp14" d="M723.31 284.9L674.91 300.21" /><path class="shp14" d="M626.65 284.9L675.05 300.21" /><path class="shp14" d="M705.02 344.42L675.05 300.16" /><path class="shp14" d="M645.01 344.42L674.99 300.16" /><g ><path class="shp15" d="M671.71 297.86C671.71 299.31 671.21 300.69 670.32 301.72C669.42 302.74 668.2 303.31 666.94 303.31C665.67 303.31 664.45 302.74 663.55 301.72C662.66 300.69 662.16 299.31 662.16 297.86C662.16 296.42 662.66 295.03 663.55 294.01C664.45 292.99 665.67 292.41 666.94 292.41C668.2 292.41 669.42 292.99 670.32 294.01C671.21 295.03 671.71 296.42 671.71 297.86L671.71 297.86Z" /><g ><path class="shp15" d="M637.93 285.05C637.93 285.73 637.7 286.37 637.28 286.85C636.86 287.33 636.29 287.59 635.7 287.59C635.11 287.59 634.55 287.33 634.13 286.85C633.71 286.37 633.48 285.73 633.48 285.05C633.48 284.38 633.71 283.74 634.13 283.26C634.55 282.78 635.11 282.52 635.7 282.52C636.29 282.52 636.86 282.78 637.28 283.26C637.7 283.74 637.93 284.38 637.93 285.05L637.93 285.05Z" /><path class="shp15" d="M647.15 285.06C647.15 286.32 646.71 287.53 645.92 288.42C645.14 289.32 644.08 289.82 642.97 289.82C641.86 289.82 640.8 289.32 640.02 288.42C639.23 287.53 638.79 286.32 638.79 285.06C638.79 283.8 639.23 282.59 640.02 281.7C640.8 280.8 641.86 280.3 642.97 280.3C644.08 280.3 645.14 280.8 645.92 281.7C646.71 282.59 647.15 283.8 647.15 285.06L647.15 285.06Z" /><path class="shp15" d="M659.5 285.44C659.5 287.18 658.9 288.85 657.82 290.08C656.74 291.31 655.27 292 653.75 292C652.22 292 650.76 291.31 649.68 290.08C648.6 288.85 647.99 287.18 647.99 285.44C647.99 283.7 648.6 282.04 649.68 280.81C650.76 279.58 652.22 278.89 653.75 278.89C655.27 278.89 656.74 279.58 657.82 280.81C658.9 282.04 659.5 283.7 659.5 285.44L659.5 285.44Z" /></g><g ><path class="shp16" d="M678.2 257.24C677.63 257.41 677.02 257.31 676.51 256.96C676.01 256.61 675.64 256.05 675.5 255.4C675.35 254.75 675.45 254.06 675.75 253.48C676.05 252.9 676.55 252.49 677.12 252.33C677.69 252.16 678.3 252.26 678.81 252.61C679.31 252.96 679.68 253.52 679.82 254.17C679.97 254.82 679.87 255.51 679.57 256.09C679.27 256.67 678.77 257.08 678.2 257.24L678.2 257.24Z" /><path class="shp16" d="M680.57 266.89C679.5 267.2 678.36 267.01 677.41 266.36C676.46 265.71 675.78 264.65 675.51 263.43C675.24 262.21 675.41 260.91 675.98 259.83C676.55 258.75 677.48 257.97 678.55 257.66C679.63 257.36 680.76 257.55 681.71 258.2C682.66 258.85 683.35 259.9 683.61 261.13C683.88 262.35 683.71 263.65 683.14 264.73C682.57 265.81 681.65 266.59 680.57 266.89L680.57 266.89Z" /><path class="shp16" d="M683.94 279.91C682.46 280.33 680.89 280.07 679.58 279.17C678.27 278.28 677.33 276.83 676.96 275.14C676.59 273.45 676.83 271.66 677.61 270.17C678.4 268.68 679.67 267.61 681.15 267.19C682.63 266.77 684.2 267.03 685.51 267.93C686.82 268.82 687.76 270.27 688.13 271.96C688.5 273.65 688.27 275.43 687.48 276.93C686.7 278.42 685.42 279.49 683.94 279.91L683.94 279.91Z" /></g><g ><path class="shp15" d="M672.19 257.31C671.6 257.24 671.06 256.92 670.68 256.4C670.31 255.88 670.13 255.21 670.19 254.54C670.24 253.87 670.53 253.25 670.99 252.83C671.45 252.4 672.03 252.2 672.62 252.26C673.21 252.33 673.75 252.66 674.13 253.18C674.5 253.7 674.68 254.36 674.62 255.03C674.56 255.7 674.28 256.32 673.82 256.75C673.36 257.17 672.78 257.38 672.19 257.31L672.19 257.31Z" /><path class="shp15" d="M670.23 267.01C669.13 266.89 668.12 266.27 667.41 265.3C666.71 264.32 666.38 263.07 666.48 261.81C666.59 260.56 667.13 259.4 667.99 258.6C668.84 257.8 669.95 257.42 671.05 257.54C672.15 257.67 673.16 258.28 673.87 259.26C674.57 260.23 674.9 261.49 674.8 262.74C674.69 264 674.15 265.15 673.29 265.95C672.44 266.76 671.34 267.14 670.23 267.01L670.23 267.01Z" /><path class="shp15" d="M666.97 280.08C665.45 279.91 664.05 279.06 663.09 277.71C662.12 276.37 661.66 274.64 661.8 272.91C661.95 271.18 662.7 269.59 663.88 268.48C665.06 267.38 666.57 266.85 668.09 267.02C669.61 267.19 671.01 268.04 671.98 269.39C672.95 270.73 673.41 272.46 673.26 274.19C673.11 275.92 672.37 277.51 671.19 278.62C670.01 279.72 668.49 280.25 666.97 280.08L666.97 280.08Z" /></g><g ><path class="shp17" d="M636.26 291.38C636 291.98 635.53 292.44 634.97 292.65C634.41 292.86 633.8 292.81 633.27 292.51C632.74 292.2 632.34 291.67 632.16 291.04C631.98 290.4 632.02 289.7 632.29 289.1C632.55 288.5 633.02 288.04 633.58 287.83C634.14 287.62 634.75 287.67 635.28 287.97C635.81 288.28 636.21 288.81 636.39 289.44C636.57 290.08 636.53 290.78 636.26 291.38L636.26 291.38Z" /><path class="shp17" d="M644.04 296.65C643.54 297.78 642.67 298.64 641.61 299.03C640.56 299.43 639.41 299.33 638.43 298.76C637.44 298.19 636.69 297.2 636.34 296C635.99 294.8 636.08 293.49 636.58 292.37C637.08 291.24 637.95 290.39 639 289.99C640.05 289.6 641.2 289.69 642.19 290.26C643.18 290.83 643.93 291.82 644.27 293.02C644.62 294.22 644.53 295.53 644.04 296.65L644.04 296.65Z" /><path class="shp17" d="M654.87 303.01C654.18 304.56 652.98 305.74 651.53 306.28C650.08 306.83 648.5 306.69 647.14 305.91C645.78 305.13 644.74 303.76 644.26 302.11C643.79 300.45 643.9 298.65 644.59 297.1C645.28 295.55 646.48 294.37 647.93 293.83C649.38 293.28 650.96 293.42 652.32 294.2C653.69 294.98 654.72 296.35 655.2 298C655.68 299.65 655.56 301.45 654.87 303.01L654.87 303.01Z" /></g><g ><path class="shp17" d="M654.83 335.96C655.27 336.4 655.54 337.02 655.58 337.7C655.62 338.37 655.43 339.03 655.04 339.54C654.65 340.04 654.1 340.35 653.51 340.4C652.92 340.44 652.34 340.22 651.9 339.77C651.45 339.33 651.18 338.7 651.14 338.03C651.1 337.36 651.29 336.7 651.68 336.19C652.07 335.69 652.62 335.38 653.21 335.33C653.8 335.29 654.38 335.51 654.83 335.96L654.83 335.96Z" /><path class="shp17" d="M661.87 329.57C662.71 330.4 663.22 331.57 663.29 332.83C663.37 334.09 663 335.33 662.27 336.28C661.54 337.23 660.51 337.81 659.4 337.9C658.3 337.98 657.21 337.56 656.38 336.73C655.54 335.9 655.03 334.72 654.96 333.46C654.88 332.21 655.25 330.96 655.98 330.01C656.71 329.06 657.74 328.48 658.85 328.4C659.95 328.32 661.04 328.73 661.87 329.57L661.87 329.57Z" /><path class="shp17" d="M671.04 320.42C672.19 321.57 672.89 323.18 672.99 324.92C673.09 326.66 672.59 328.37 671.58 329.68C670.58 330.98 669.15 331.79 667.63 331.9C666.11 332.02 664.61 331.44 663.46 330.29C662.31 329.15 661.61 327.53 661.5 325.8C661.4 324.06 661.91 322.35 662.92 321.04C663.92 319.73 665.34 318.93 666.86 318.81C668.39 318.7 669.89 319.28 671.04 320.42L671.04 320.42Z" /></g><g ><path class="shp18" d="M649.11 332.81C649.65 333.07 650.08 333.57 650.31 334.19C650.53 334.82 650.52 335.52 650.29 336.14C650.06 336.76 649.63 337.25 649.08 337.5C648.53 337.75 647.92 337.75 647.38 337.48C646.83 337.22 646.4 336.72 646.18 336.1C645.95 335.48 645.96 334.78 646.19 334.16C646.42 333.54 646.86 333.05 647.4 332.8C647.95 332.54 648.56 332.55 649.11 332.81L649.11 332.81Z" /><path class="shp18" d="M652.41 323.22C653.43 323.71 654.24 324.65 654.66 325.81C655.07 326.98 655.07 328.29 654.64 329.46C654.2 330.62 653.39 331.54 652.36 332.01C651.33 332.49 650.18 332.48 649.16 331.99C648.14 331.5 647.34 330.57 646.92 329.4C646.5 328.23 646.51 326.92 646.94 325.75C647.37 324.59 648.19 323.67 649.22 323.2C650.24 322.72 651.39 322.73 652.41 323.22L652.41 323.22Z" /><path class="shp18" d="M656.96 310.41C658.37 311.09 659.48 312.37 660.05 313.98C660.63 315.59 660.62 317.4 660.02 319C659.43 320.6 658.3 321.87 656.89 322.53C655.47 323.18 653.89 323.17 652.48 322.49C651.08 321.82 649.96 320.53 649.39 318.92C648.81 317.31 648.83 315.5 649.42 313.9C650.01 312.3 651.14 311.03 652.56 310.37C653.97 309.72 655.55 309.73 656.96 310.41L656.96 310.41Z" /></g><g ><path class="shp17" d="M694.95 336.29C695.31 335.76 695.85 335.42 696.44 335.34C697.02 335.26 697.61 335.45 698.08 335.87C698.54 336.29 698.84 336.9 698.91 337.57C698.97 338.24 698.81 338.91 698.44 339.44C698.07 339.96 697.54 340.31 696.95 340.38C696.36 340.46 695.77 340.27 695.31 339.86C694.85 339.44 694.55 338.83 694.48 338.16C694.41 337.49 694.58 336.82 694.95 336.29L694.95 336.29Z" /><path class="shp17" d="M687.47 330.19C688.16 329.21 689.16 328.57 690.26 328.42C691.37 328.27 692.47 328.63 693.34 329.42C694.21 330.2 694.77 331.34 694.9 332.6C695.03 333.85 694.71 335.11 694.02 336.1C693.34 337.09 692.33 337.73 691.23 337.87C690.13 338.02 689.03 337.66 688.16 336.88C687.29 336.1 686.73 334.95 686.6 333.7C686.47 332.45 686.79 331.18 687.47 330.19L687.47 330.19Z" /><path class="shp17" d="M678.18 321.29C679.12 319.92 680.51 319.05 682.02 318.84C683.54 318.64 685.06 319.13 686.26 320.21C687.46 321.29 688.23 322.87 688.41 324.6C688.58 326.33 688.15 328.06 687.2 329.43C686.26 330.79 684.87 331.67 683.36 331.87C681.84 332.07 680.32 331.58 679.12 330.5C677.92 329.42 677.15 327.85 676.97 326.12C676.8 324.39 677.23 322.65 678.18 321.29L678.18 321.29Z" /></g><g ><path class="shp18" d="M700.65 332.93C701.16 332.6 701.77 332.52 702.34 332.71C702.91 332.89 703.39 333.32 703.68 333.91C703.97 334.5 704.04 335.19 703.88 335.84C703.71 336.49 703.33 337.03 702.82 337.36C702.3 337.69 701.69 337.77 701.12 337.59C700.55 337.41 700.07 336.97 699.79 336.38C699.5 335.8 699.43 335.1 699.59 334.46C699.75 333.81 700.13 333.26 700.65 332.93L700.65 332.93Z" /><path class="shp18" d="M697.02 323.45C697.99 322.84 699.13 322.68 700.19 323.03C701.26 323.37 702.16 324.19 702.7 325.29C703.24 326.39 703.37 327.69 703.07 328.91C702.77 330.12 702.05 331.15 701.09 331.76C700.12 332.38 698.98 332.53 697.91 332.18C696.85 331.84 695.94 331.03 695.41 329.92C694.87 328.82 694.73 327.52 695.04 326.31C695.34 325.09 696.05 324.06 697.02 323.45L697.02 323.45Z" /><path class="shp18" d="M692.69 310.72C694.03 309.88 695.6 309.67 697.07 310.14C698.54 310.62 699.78 311.74 700.52 313.26C701.27 314.78 701.45 316.57 701.03 318.24C700.62 319.92 699.63 321.33 698.3 322.18C696.97 323.03 695.39 323.23 693.93 322.76C692.46 322.28 691.21 321.16 690.47 319.65C689.73 318.13 689.54 316.33 689.96 314.66C690.38 312.99 691.36 311.57 692.69 310.72L692.69 310.72Z" /></g><g ><path class="shp17" d="M714.17 291.75C713.82 291.2 713.67 290.53 713.75 289.86C713.84 289.2 714.16 288.6 714.63 288.2C715.11 287.8 715.7 287.63 716.29 287.73C716.87 287.83 717.4 288.19 717.75 288.74C718.1 289.28 718.25 289.95 718.16 290.62C718.07 291.29 717.76 291.88 717.28 292.28C716.8 292.68 716.21 292.85 715.63 292.75C715.04 292.65 714.52 292.29 714.17 291.75L714.17 291.75Z" /><path class="shp17" d="M706.56 297.34C705.9 296.32 705.63 295.05 705.79 293.8C705.96 292.55 706.55 291.43 707.44 290.68C708.33 289.93 709.45 289.62 710.54 289.81C711.64 289.99 712.62 290.67 713.28 291.69C713.94 292.7 714.22 293.97 714.05 295.22C713.89 296.47 713.29 297.59 712.4 298.34C711.51 299.09 710.39 299.4 709.3 299.22C708.2 299.03 707.22 298.35 706.56 297.34L706.56 297.34Z" /><path class="shp17" d="M695.91 303.95C695.01 302.55 694.62 300.8 694.85 299.08C695.08 297.36 695.9 295.81 697.13 294.78C698.35 293.75 699.89 293.31 701.4 293.57C702.91 293.83 704.27 294.76 705.18 296.16C706.08 297.56 706.46 299.31 706.24 301.03C706.01 302.75 705.19 304.3 703.96 305.33C702.73 306.37 701.19 306.8 699.69 306.54C698.18 306.28 696.82 305.35 695.91 303.95L695.91 303.95Z" /></g><g ><path class="shp16" d="M712.21 285.57C712.09 284.91 712.2 284.23 712.52 283.66C712.85 283.1 713.35 282.71 713.93 282.57C714.51 282.43 715.11 282.56 715.6 282.93C716.1 283.3 716.44 283.88 716.56 284.54C716.68 285.19 716.57 285.88 716.25 286.44C715.93 287.01 715.42 287.4 714.84 287.54C714.26 287.68 713.66 287.55 713.17 287.18C712.67 286.81 712.33 286.23 712.21 285.57L712.21 285.57Z" /><path class="shp16" d="M702.93 286.03C702.71 284.8 702.92 283.51 703.53 282.45C704.13 281.4 705.08 280.66 706.17 280.4C707.25 280.14 708.38 280.39 709.31 281.08C710.24 281.77 710.88 282.85 711.11 284.09C711.34 285.32 711.12 286.61 710.52 287.66C709.91 288.72 708.96 289.46 707.88 289.72C706.79 289.98 705.66 289.73 704.74 289.04C703.81 288.35 703.16 287.27 702.93 286.03L702.93 286.03Z" /><path class="shp19" d="M690.66 286.78C690.35 285.08 690.64 283.31 691.48 281.85C692.31 280.4 693.62 279.38 695.12 279.02C696.61 278.67 698.17 279 699.45 279.95C700.72 280.91 701.62 282.4 701.93 284.1C702.24 285.8 701.95 287.58 701.11 289.03C700.28 290.49 698.97 291.51 697.47 291.86C695.98 292.22 694.42 291.88 693.14 290.93C691.87 289.98 690.97 288.49 690.66 286.78L690.66 286.78Z" /></g><path class="shp15" d="M669.13 285.39C669.13 286.71 668.67 287.98 667.85 288.92C667.02 289.86 665.91 290.39 664.75 290.39C663.58 290.39 662.47 289.86 661.65 288.92C660.82 287.98 660.36 286.71 660.37 285.39C660.36 284.06 660.82 282.79 661.65 281.85C662.47 280.91 663.58 280.38 664.75 280.38C665.91 280.38 667.02 280.91 667.85 281.85C668.67 282.79 669.13 284.06 669.13 285.39L669.13 285.39Z" /><path class="shp15" d="M689.65 285.39C689.66 286.71 689.2 287.98 688.38 288.92C687.55 289.86 686.44 290.39 685.27 290.39C684.11 290.39 683 289.86 682.17 288.92C681.35 287.98 680.89 286.71 680.9 285.39C680.89 284.06 681.35 282.79 682.17 281.85C683 280.91 684.11 280.38 685.27 280.38C686.44 280.38 687.55 280.91 688.38 281.85C689.2 282.79 689.66 284.06 689.65 285.39L689.65 285.39Z" /><path class="shp15" d="M694.88 305.64C694.88 306.96 694.42 308.24 693.6 309.18C692.78 310.11 691.66 310.64 690.5 310.64C689.34 310.64 688.22 310.11 687.4 309.18C686.58 308.24 686.12 306.96 686.12 305.64C686.12 304.31 686.58 303.04 687.4 302.1C688.22 301.17 689.34 300.64 690.5 300.64C691.66 300.64 692.78 301.17 693.6 302.1C694.42 303.04 694.88 304.31 694.88 305.64L694.88 305.64Z" /><path class="shp15" d="M679.43 319.18C679.43 320.51 678.97 321.78 678.15 322.72C677.33 323.65 676.21 324.18 675.05 324.18C673.88 324.18 672.77 323.65 671.95 322.72C671.13 321.78 670.67 320.51 670.67 319.18C670.67 317.85 671.13 316.58 671.95 315.64C672.77 314.71 673.88 314.18 675.05 314.18C676.21 314.18 677.33 314.71 678.15 315.64C678.97 316.58 679.43 317.85 679.43 319.18L679.43 319.18Z" /><path class="shp15" d="M663.83 305.64C663.83 306.96 663.37 308.24 662.55 309.18C661.73 310.11 660.61 310.64 659.45 310.64C658.28 310.64 657.17 310.11 656.35 309.18C655.52 308.24 655.06 306.96 655.07 305.64C655.06 304.31 655.52 303.04 656.35 302.1C657.17 301.17 658.28 300.64 659.45 300.64C660.61 300.64 661.73 301.17 662.55 302.1C663.37 303.04 663.83 304.31 663.83 305.64L663.83 305.64Z" /><path class="shp15" d="M679.8 290.98C679.8 292.43 679.3 293.82 678.4 294.84C677.51 295.86 676.29 296.43 675.02 296.43C673.76 296.43 672.54 295.86 671.64 294.84C670.75 293.82 670.24 292.43 670.25 290.98C670.24 289.54 670.75 288.15 671.64 287.13C672.54 286.11 673.76 285.53 675.02 285.53C676.29 285.53 677.51 286.11 678.4 287.13C679.3 288.15 679.8 289.54 679.8 290.98L679.8 290.98Z" /><path class="shp15" d="M674.57 308.75C674.58 310.2 674.07 311.58 673.18 312.61C672.28 313.63 671.07 314.2 669.8 314.2C668.53 314.2 667.31 313.63 666.42 312.61C665.52 311.58 665.02 310.2 665.02 308.75C665.02 307.31 665.52 305.92 666.42 304.9C667.31 303.88 668.53 303.3 669.8 303.3C671.07 303.3 672.28 303.88 673.18 304.9C674.07 305.92 674.58 307.31 674.57 308.75L674.57 308.75Z" /><path class="shp15" d="M685 308.75C685 310.2 684.5 311.58 683.6 312.61C682.71 313.63 681.49 314.2 680.22 314.2C678.96 314.2 677.74 313.63 676.84 312.61C675.95 311.58 675.44 310.2 675.45 308.75C675.44 307.31 675.95 305.92 676.84 304.9C677.74 303.88 678.96 303.3 680.22 303.3C681.49 303.3 682.71 303.88 683.6 304.9C684.5 305.92 685 307.31 685 308.75L685 308.75Z" /><path class="shp15" d="M687.86 297.86C687.87 299.31 687.36 300.69 686.47 301.72C685.57 302.74 684.35 303.31 683.09 303.31C681.82 303.31 680.6 302.74 679.71 301.72C678.81 300.69 678.31 299.31 678.31 297.86C678.31 296.42 678.81 295.03 679.71 294.01C680.6 292.99 681.82 292.41 683.09 292.41C684.35 292.41 685.57 292.99 686.47 294.01C687.36 295.03 687.87 296.42 687.86 297.86L687.86 297.86Z" /><path class="shp15" d="M679.45 300.57C679.45 301.9 678.99 303.17 678.17 304.11C677.35 305.04 676.23 305.57 675.07 305.57C673.9 305.57 672.79 305.04 671.97 304.11C671.14 303.17 670.68 301.9 670.69 300.57C670.68 299.24 671.14 297.97 671.97 297.03C672.79 296.1 673.9 295.57 675.07 295.57C676.23 295.57 677.35 296.1 678.17 297.03C678.99 297.97 679.45 299.24 679.45 300.57L679.45 300.57Z" /></g></g></g></svg>