<svg version="1.2" xmlns="http://www.w3.org/2000/svg" viewBox="0 0 900 600" width="900" height="600">
	<title></title>
	<style>
		.s0 { fill: #dd0000 } 
		.s1 { fill: #ffffff } 
		.s2 { fill: #003893 } 
		.s3 { fill: #000000 } 
		.s4 { fill: #efbd2e } 
		.s5 { fill: #b82424 } 
	</style>
	<path id="Layer" class="s0" d="m0 0h900v600h-900z"/>
	<path id="Layer" class="s1" d="m0 0h900v400h-900z"/>
	<path id="Layer" class="s2" d="m0 0h900v200h-900z"/>
	<g id="g6">
		<path id="rect4" class="s2" d="m0 0h300v600h-300z"/>
		<g id="layer">
			<path id="path22" class="s3" d="m37.1 216.6c1.2-2.1 5.8 0.1 5.4 2.7-2.3-0.5-3-2.4-5.4-2.7z"/>
			<path id="path24" class="s3" d="m94.3 221.1c-5.3-0.8-4.9 4-8 5.3-0.5-4 6.7-8.9 8-5.3z"/>
			<path id="path26" fill-rule="evenodd" class="s3" d="m54.1 236.2c10.8 4.2 13.2-7.5 21.4-8.9-9.2 1.2-21.2-0.4-23.2 8.1 3.8-0.1 3.3-4.5 7.1-4.5-2.6 1.4 1.5 4.6-0.9 5.3-0.5-0.5-4.2-2-4.4 0zm6.2-5.3c2.9-0.8 1.9 2.3 3.6 2.7 0.9-1.2 2.4-1.8 2.7-3.6-1.4-1.4-4.8-0.3-6.3 0.9z"/>
			<path id="path28" class="s3" d="m82.7 233.6c-1.7 2.8-2.3 6.6-6.3 7.1 2.4-2 2.9-6 6.3-7.1z"/>
			<path id="path30" class="s3" d="m71.1 236.2c0.3 3.1-4.7 3.3-6.3 1.8 1.1-1.6 4.7-0.7 6.3-1.8z"/>
			<path id="path32" class="s3" d="m63 242.5c1.3 0.2 2.1 7.4-0.9 6.3 0-2.4-0.3-5.1 0.9-6.3z"/>
			<path id="path34" class="s3" d="m82.7 254.1c7.1 2.5-1.3 16.8-1.8 23.2-3.1-7.6 7.6-15.4 1.8-23.2z"/>
			<path id="path36" class="s3" d="m88.9 258.6c3.4-0.1 5.7 9.3 1.8 10.7 1.8-3.7-1-7-1.8-10.7z"/>
			<path id="path38" class="s3" d="m85.4 270.2c5.1 0-0.4 7.3 0 12.5-3.9-3.9 3.6-8.8 0-12.5z"/>
			<path id="path40" class="s3" d="m105 272c4.3 4.9-5.1 10.2-0.9 17.9-1.8-1.9-1.7 0.3-2.6 1.7 1.3 10.4 11.7 15.7 6.2 27.7 2.4-11.3-6-17.9-8-27.7 2.6-5.7 3.1-11.8 5.3-19.6z"/>
			<path id="path42" class="s3" d="m94.3 306.8c-3.5-5.2-10.1-13.9-4.5-20.5 3.1 0.8 2 5.8 4.5 7.1 2-4.5-4-7.2-4.5-11.6-0.3-3.2 3.7-6.2 1.8-8-4.9 9.6-8.8 28.1 2.7 33z"/>
			<path id="path44" class="s3" d="m113.1 275.6c3.1 2.8 3.9 8 6.2 11.6-3.1-2.8-6-5.9-6.2-11.6z"/>
			<path id="path46" class="s3" d="m93.4 278.2c2.5-0.1 2.6 2.2 2.7 4.5-1.6-0.8-3.1-1.7-2.7-4.5z"/>
			<path id="path48" class="s3" d="m77.3 280.9c7.8 5.6-3.6 13-0.9 22.3-5.4-7.3 5.9-15.3 0.9-22.3z"/>
			<path id="path50" class="s3" d="m108.6 281.8c5.1 2.1 6.9 7.4 8.1 13.4-3-4.2-5.1-9.2-8.1-13.4z"/>
			<path id="path52" class="s3" d="m155.1 281.8c3.1 1.1 3.8 4.6 4.5 8-2.7-1.5-3.1-5.2-4.5-8z"/>
			<path id="path54" class="s3" d="m227.5 282.7c3.9 0.9 5.1 4.4 5.4 8.9-2.7-2.1-3.4-6.1-5.4-8.9z"/>
			<path id="path56" class="s3" d="m125.6 285.4c7.5 2.6 6.3 13.9 10.7 19.6-5.8-0.7-5-15.8-10.7-19.6z"/>
			<path id="path58" class="s3" d="m164.9 287.2c2 1.1 1 6.8-1.7 6.2 1.4-1.2 0.3-5 1.7-6.2z"/>
			<path id="path60" class="s3" d="m107.7 288.1c2.1 1.8 0 7.7 1.8 9.8-3.8 0.1-3.1-7.7-1.8-9.8z"/>
			<path id="path62" class="s3" d="m86.3 320.2c2.8-8.8-6.3-15.9-6.3-24.1 0-2 4.2-6 0.9-7.2-5.9 12.4 4.6 20.1 5.4 31.3z"/>
			<path id="path64" class="s3" d="m212.3 291.6c5-1.6 9.7 4.6 11.7 9-0.7 2.8-2.4 1.1-4.5 0.9 3.1 7.2 2.7 20.1-3.6 23.2-2-3.7-0.1-11.2-3.6-13.4 3.7-2.4 3.9 6.2 3.6 10.7 7.3-4 3.1-14.9 1.8-22.3 2.5-0.8 2.3 1.2 4.5 0.9-1.1-5.2-5.8-6.8-9.9-9z"/>
			<path id="path66" class="s3" d="m142.6 291.6c2.7 1.2 3.4 4.4 6.3 5.4-2.4 2-6.2-2.1-6.3-5.4z"/>
			<path id="path68" class="s3" d="m227.5 293.4c6-0.9 0.6 8.8 2.7 13.4-4.8-2.5 1.8-10.8-2.7-13.4z"/>
			<path id="path70" class="s3" d="m122.9 304.1c2.1-1.8-1.4-5.6-1.8-8 3.9 2 4.4 7.5 4.5 13.4-2.5-3.5-5.4-6.6-8-9.8 2.7 0.5 5.1 1.4 5.3 4.4z"/>
			<path id="path72" class="s3" d="m156 296.1c5.4 1.8 7.2 7.1 9.8 11.6-2.4 0.7-4.9-6.4-7.1-8.9-2.5 7.1 0.1 14.7-3.6 21.4-2.7-5.9-3.9-13.3-9.8-16.1 4.7-1.4 7.8 6.5 9.8 10.8 1.7-5.1 0.9-14.7 0.9-18.8z"/>
			<path id="path74" class="s3" d="m171.2 296.1c2 4.2 7.2 5.3 7.2 11.6-1.9-4.4-7-5.5-7.2-11.6z"/>
			<path id="path76" class="s3" d="m97.9 299.7c3.1 1.1 3.1 5.2 3.6 8.9-3.4-0.8-2.1-6.3-3.6-8.9z"/>
			<path id="path78" class="s3" d="m203.4 302.4c3.5 6.3-3.8 16.2 2.7 23.2-11.8-0.5-10.7-13.8-15.2-21.5 7.4 2.7 2.9 17.4 11.6 18.8-1.5-4.8 0.1-13.2 0.9-20.5z"/>
			<path id="path80" class="s3" d="m140.8 305.9c2.9 0.7 3.5 3.7 3.6 7.2-1.8-1.9-2.5-4.7-3.6-7.2z"/>
			<path id="path82" class="s3" d="m76.4 306.8c2.1 1.6 2.7 7.5-0.9 8.1 1.5-1.5 0.8-5.3 0.9-8.1z"/>
			<path id="path84" class="s3" d="m112.2 306.8c3.6 1 8.2 10 3.6 13.4 2-6.2-1.6-8.9-3.6-13.4z"/>
			<path id="path86" class="s3" d="m131.9 308.6c6.4 3.7 11 9.3 10.7 19.7-2.5-7.7-5.2-15.1-10.7-19.7z"/>
			<path id="path88" class="s3" d="m181.9 318.4c-3.2 7.2-9.5 11.3-14.3 17-0.1-11.2 8.7-17.1 2.7-26.8 7.9 4.5 1 15.9-0.9 21.4 4.2-0.2 8-8.7 12.5-11.6z"/>
			<path id="path90" class="s3" d="m91.6 311.3c5.8 10.4-8.7 24.8 1.8 36.6-12-10.1 0-23.3-1.8-36.6z"/>
			<path id="path92" class="s3" d="m122 315.7c4.1 7.9-3.5 20.8 5.4 26 3.3-4.8 6.1-10 7.1-17 2.6 7.9-5.5 12.9-5.3 21.4-8.8-7.1-9-18.3-7.2-30.4z"/>
			<path id="path94" class="s3" d="m186.4 315.7c3.7 1.4 0 6.8 0 9.9 4.3-1.1 3.9-6.8 8.1-8.1-1.3 3.8-4.7 5.2-2.7 9.9-2.9-3.8-4.5 1.2-8.1 1.8 0.5-5 3.7-7.1 2.7-13.5z"/>
			<path id="path96" class="s3" d="m231.1 317.5c6.2 4.9-1.7 10.7 1.8 17.9-3.3-0.6-4.5-11-8.1-14.3 2.9 1.3 4.6 3.8 5.4 7.2 2.2-2.7 1.8-7.1 0.9-10.8z"/>
			<path id="path98" class="s3" d="m79.1 319.3c4.7 1.5-0.4 14.6-5.3 15.2 3-4.3 7.6-10.6 5.3-15.2z"/>
			<path id="path100" class="s3" d="m98.8 320.2c4.1 0.7 0.6 7.3 0 9-2.2-1.7 1.2-5.3 0-9z"/>
			<path id="path102" class="s3" d="m144.4 320.2c3.4 3.4 2.6 12.6-0.9 16.1 1-5.5 2.5-10.3 0.9-16.1z"/>
			<path id="path104" class="s3" d="m152.4 322c5.7 6.4-3.8 12.8-3.5 19.7-3.1-7.2 6-10.1 3.5-19.7z"/>
			<path id="path106" class="s3" d="m109.5 322.9c1.6 4.1 4.4 6.9 5.4 11.6-2.8-2.8-5.7-5.7-5.4-11.6z"/>
			<path id="path108" class="s3" d="m104.1 323.8c4 7.7-0.4 23.7 6.3 28.6-9.2-4.1-4.5-18.5-6.3-28.6z"/>
			<path id="path110" class="s3" d="m157.8 326.5c2.6 7.4-4.1 16.4-0.9 22.3-6.2-6.7 1.6-13.3 0.9-22.3z"/>
			<path id="path112" class="s3" d="m209.7 330c1-0.1 1.5 0.2 1.7 0.9 0.4 3.1-0.3 5-0.9 7.2-0.5 10.4-1.2-4.2-0.8-8.1z"/>
			<path id="path114" class="s3" d="m193.6 330.9c3.9 4.4 9.2 7.5 8 17-4.3-3.4-7.4-8.1-13.4-9.8 4.1-2 8.2 3.7 11.6 5.3 0.6-6.8-5.9-6.6-6.2-12.5z"/>
			<path id="path116" class="s3" d="m108.6 332.7c2.5 4.4 1.5 14.3 9 16.1 2.7-1.1-1-3.1 0-5.4 2.6 1.5 2.6 6.5 1.7 9-5.4-4.7-12.6-7.7-10.7-19.7z"/>
			<path id="path118" class="s3" d="m135.4 336.3c5.2-0.6 2.4 14.9-2.6 15.2 2-4.7 6.1-9.9 2.6-15.2z"/>
			<path id="path120" class="s3" d="m162.3 339c2.7 0.2 2.7 6 1.7 7.1-1.4-1.5-1.1-4.7-1.7-7.1z"/>
			<path id="path122" class="s3" d="m82.7 339.9c2.3 0.7 3.5 5.1 2.7 6.2-1.5-1.5-2.7-3.2-2.7-6.2z"/>
			<path id="path124" class="s3" d="m237.4 339.9c5 3 0.7 15.3 6.2 17.8-6.4 0.4-4.3-12.4-6.2-17.8z"/>
			<path id="path126" class="s3" d="m221.3 341.7c3 1.2 3.4 4.9 4.4 8 2.8 0.7 1.8-2.4 4.5-1.8-0.8 2.2-3.6 2.4-2.7 6.3-4-2.2-3.9-8.6-6.2-12.5z"/>
			<path id="path128" class="s3" d="m230.2 343.4c4 0.3 2.2 6.2 4.5 8.1-2.6 1.9-3.1-5.8-4.5-8.1z"/>
			<path id="path130" class="s3" d="m83.6 351.5c3.9 0.2-0.4 8.7 3.6 8.9-4.6 1.9-2.4-5.3-3.6-8.9z"/>
			<path id="path132" class="s3" d="m215 351.5c1.3 0.2 2.1 7.3-0.9 6.2 1.7-2.2-0.7-3.5 0.9-6.2z"/>
			<path id="path134" class="s3" d="m92.5 352.4c1.1 3.1 2.2 6.2 3.6 8.9-3-0.9-5.8-5.6-3.6-8.9z"/>
			<path id="path136" class="s3" d="m105.9 356c2.2 5.8 6.7 9.4 9 15.1 3.5-0.3-0.4-8.1 3.5-8-0.1 4.9-0.2 9.8-4.4 10.7-0.5-8.1-8.5-8.8-8.1-17.8z"/>
			<path id="path138" class="s3" d="m239.2 366.7c2.2 1.4 0.3 6.2 0 8-2-2.4 0-6.4 0-8z"/>
			<path id="path140" class="s3" d="m174.8 368.5c3.4-0.2 0.9 5.6 2.7 7.1-3-0.3-2.5-4-2.7-7.1z"/>
			<path id="path142" class="s3" d="m115.8 381.9c1.2 0.4 2.1 8-0.9 7.1 0.1-2.6-0.5-5.8 0.9-7.1z"/>
			<path id="path144" class="s3" d="m224 381.9c2.4 2.7-0.6 7.7-3.6 8 1.1-2.7 3.4-4.4 3.6-8z"/>
			<path id="path146" class="s3" d="m115.8 393.5c2.7-1.4 2.7 5.8 0 4.4z"/>
			<path id="path148" class="s3" d="m222.2 395.3c1.8 3-2 8.1-5.4 8.9 1.4-3.3 4.8-4.7 5.4-8.9z"/>
			<path id="path150" class="s3" d="m115.8 408.7c2.8 1.7-1.4 3.8-0.9 6.2-2.3-1.2 0.6-4.6 0.9-6.2z"/>
			<path id="path154" class="s3" d="m77.3 411.4c2.2-1.9 3.9 1.4 7.2 0-0.9 3.5-5.2 0.6-7.2 0z"/>
			<g id="g3838">
				<g id="g3844">
					<g id="g3855">
						<path id="path2995" class="s3" d="m289.1 132.8v257c0 18.4-15.3 33.7-33.7 33.7h-77.7c-4.9 0-9.8 2.6-13.9 6.3-4.1 3.6-7.4 8.4-9.2 12.8-0.5 1.4-1 2.9-1 4.4 0 2.9-3.6 2.8-3.6 0 0-1.5-0.5-3-1.1-4.4-1.7-4.4-5-9.2-9.1-12.8-4.2-3.7-9.1-6.3-13.9-6.3h-77.7c-18.4 0-33.7-15.3-33.7-33.7v-257z"/>
						<path id="path2997" fill-rule="evenodd" class="s2" d="m299.5 413.5c0 9.2-3.8 17.6-9.9 23.7-6.1 6.1-14.5 9.9-23.8 9.9h-86.8q-0.3 0-0.5 0c-2.1 0.1-4.3 0.5-6.4 1.3-2 0.7-4.1 1.8-6 3-6.9 4.5-13 11.8-16 18.3q-0.8-1.7-1.8-3.4c-5.5-9.4-16.6-19.2-27.1-19.2h-86.8c-9.3 0-17.7-3.8-23.8-9.9-6.1-6.1-9.9-14.5-9.9-23.7v-283.2h298.8c0 0 0 283.2 0 283.2zm-254.9-228.1l-0.1 2c0 0-0.4 2.9-0.7 3.5-0.4 0.5-2 4.6-2.5 6.7-0.6 2.1-0.2 2.8 0.5 4 0.7 1.3 4 1.9 4.7 2.3 0.6 0.3 2.8 1.2 2.8 1.2 0 0 0.7 0.6 1.1 1.5 0.5 0.8 3.4 2.9 3.8 3.5 0.3 0.6-0.1 2.5-0.9 4.1-0.7 1.6-3 3.6-4.1 5.8-1.1 2.2-1.3 5.6-1.2 8 0.1 2.4 1.8 4 1.8 4l0.4-0.4c0 0 0-0.3 0.1-1.7 0.2-1.3 1.2-2.3 2.7-4.3 1.4-2.1 3.7-3 5.7-4 2-0.9 7-2.3 8.7-3.4 1.7-1.2 3-3 3.8-4.5 0.8-1.6 1.6-3.3 1.6-3.3 0 0 2.7 0.2 3.7 0.2 1.1 0 3.5 0.7 3.5 0.7 0 0-0.5 1.1-1.1 1.6-0.5 0.5-4.6 4-6.6 5.8-1.9 1.8-6.1 5.9-7.7 8.5-1.6 2.5-1.3 6.2-1.3 6.7 0 0.6-0.3 1.7-0.8 2.3-0.6 0.7-3.7 3.9-5.9 6.4-2.2 2.5-4.3 7.4-4.6 9-0.4 1.6 1 4.2 1 4.2 0 0-0.5 0.5-1 1.5-0.6 0.9-1.8 3.3-2.5 5.5-1.1 4-0.7 6.5-0.4 10.5 0.4 4.6 2.1 9.8 2.5 11.5 0.4 1.7-1.2 3.3-2.1 5.4-1.3 2.6-2.6 4.6-2.4 7.8 0.2 2.8 1 4.5 2.6 6.7 2 2.7 6 4.2 6.9 5 0.8 0.8 1.1 3.5 2.1 6 1 2.5 5.5 4.4 5.5 4.4 0 0 0.2 0.1 0.4 0.4 0.2 0.2 1 4.9 1 5.4 0 0.5-1.7 11.7-1.7 11.7 0 0-1.6 1.6-3.3 3.4-1.6 1.9-3 5.7-3 5.7 0 0-0.1 0.2-0.5 0.8-0.5 0.5-4.6 4.6-4.6 4.6 0 0 0 0.3 0.1 0.7 0.1 0.3 3.8 9.1 3.8 9.1 0 0 0.1 0.7 0 1.6 0 0.8 1.5 4.1 1.6 5.2 0.1 1.1-0.6 4.3-1.1 7.3-0.5 3-2.6 13.3-3.1 15.2-0.5 1.8-2.3 5-4.5 7.8-2.2 2.9-7.5 6.7-10.7 8.5-3.2 1.8-6.2 3.6-6.7 4.4-0.6 0.8 0 1 0.7 1.5 0.6 0.5 5.4 1.8 5.4 1.8 0 0 0.3 0.1 0.2 0.5 0 0.3-0.5 0.5-0.5 0.8-0.1 0.4 0.4 0.6 1.5 0.7 1.1 0.1 2.9 0.3 5.3 0.2 2.4-0.1 6.6-0.7 9.5-1.1 2.9-0.4 5-1.8 6.1-2.5 1-0.8 2.5-3 3.2-4.1 0.6-1 1.1-2.5 1.2-2.9 0.2-0.5 0.3-0.3 1.5-0.8 1.3-0.6 2.4-0.7 3.7-1.5 1.2-0.9 2-2.3 2.4-3 0.3-0.8 0.9-4 1-5.1 0.1-1.1-1.2-2.8-1.9-3.5-0.7-0.7-0.9-1.2-1.2-2.3-0.2-1.1-0.2-3.1 0-4.8 0.3-1.8 1.1-8.5 1.5-10.2 0.4-1.7 2.3-6.5 3.3-8.2 0.9-1.7 4-5.2 4-5.2 0 0 0.2-1.1 0.3-2.6 0-1.4-0.1-5.8-0.1-6.1 0-0.4 0.7-2.1 1.5-3.6 0.7-1.6 3.7-8.6 4.3-9.8 0.6-1.3 3.1-2.5 3.1-2.5 0 0 0.4 0.9 1.2 2 0.7 1.1 4.9 8 6.3 10.5 1.4 2.5 2.5 5.3 2.4 6.3-0.1 1.1-1.1 13.8-1.1 13.8 0 0 0.6 0.3 0.9 0.3 0.3 0 7.5 2.6 8.3 3 0.9 0.3 1.8 1.6 2.6 2.3 0.8 0.7 3.1 5.3 4.1 7.1 1 1.8 7.4 15.7 7.4 15.7 0 0-0.2 0.6-0.5 1.4-0.3 0.9-0.8 2.5-0.8 3.2 0.1 0.7 0.5 1.7 0.3 2.2-0.3 0.6-3 3-3.8 3.6-0.8 0.7-7.8 5.4-8.3 5.7-0.6 0.3-2 1.4-2 1.8 0 0.4 1.2 1.1 2.1 1.3 0.8 0.2 2.6 0.6 3.1 0.6 0.5 0 0.4 0.2 0.8 0.4 0.3 0.3 0.3 1 0.9 1.2 0.6 0.3 2.3 0.5 3.3 0.5 0.9 0.1 2.3-0.2 4.3-0.5 2-0.3 10-2.2 11.2-2.8 1.1-0.6 2.7-1.9 3.5-2.6 0.8-0.7 1.4-3 1.5-4.6 0.2-1.6-0.7-4.9-1.2-5.9-0.4-1.1-0.5-2.4-0.5-2.4 0 0 0.6-0.2 1.2-0.5 0.6-0.3 1.3-1.4 2-2 0.7-0.6 1-1 1.2-1.7 0.2-0.6-0.2-2.2-0.2-2.2 0 0 0.6-0.7 0.9-1.6 0.3-0.9-0.3-1.2-0.6-1.5-0.2-0.3-0.8-0.6-0.8-0.8 0-0.2-0.4-0.9-0.8-1.4-0.3-0.5-1.2-0.8-2-1.7-0.9-0.8-2.3-1.7-2.9-2-0.5-0.3-1.4-1-1.7-1.3-0.2-0.3-0.4-0.8-0.8-1.7-0.4-0.9-1.7-4-2.3-5.5-0.7-1.5-2.8-6-3-6.6-0.2-0.6-0.2-0.8 0-1.2 0.1-0.4 0.1-0.4 0.2-0.9 0.1-0.4-0.2-2.7-0.3-4.3-0.2-1.7-0.6-4.3-0.7-4.7-0.1-0.3-1.2-1.6-2.4-3.2-1.2-1.5-2.3-3.5-2.8-4.2-0.6-0.7-0.4-1.5-0.5-1.9 0-0.3-0.2-2.3-0.2-2.9-0.1-0.7-0.4-3.1-0.5-3.5 0-0.4-0.6-2.4-0.7-2.8-0.1-0.5 0.1-0.9 0.1-0.9 0 0 0.6 0.4 1.7 0.7 1.2 0.2 1.5 0.2 2.6 0.2 1.2-0.1 0.8-0.2 1.6-0.2 0.7 0 1.8 0.4 3.1 0.9 1.3 0.4 1.7 0.2 2.9 0.2 1.1-0.1 1.2-0.3 2.1-0.4 1-0.1 1.5 0.3 3.1 0.7 1.5 0.3 3.3 0.4 4.8 0.2 1.5-0.2 1.4-0.2 2.3-0.2 0.9-0.1 4.9 0.6 6.4 0.7 1.4 0.2 1.3-0.2 2.4-0.4 1-0.2 1.6-0.5 2.8-0.7 1.2-0.2 3.2 0.5 5 0.7 1.7 0.1 2.7-0.5 3.8-1 1.1-0.5 2.7-0.8 3.4-0.7 0.6 0.1 1.4 0.4 2.3 0.4 0.8 0 2.5-0.9 3.4-1.3 0.9-0.4 1.1-0.2 1.6-0.1 0.5 0.2 1 1.1 1.3 1.6 0.3 0.5 1.8 4.4 2.2 5.5 0.3 1.1 3.9 11 3.9 11 0 0 0.1 0.1 0.3 0.1 0.2 0.1 3 0.4 5.7 0.7 2.6 0.3 4.6 0.1 5.7 0.3 1.1 0.3 4.8 2.8 6.3 3.8 1.4 1 2.8 3.2 2.8 3.4 0.1 0.3 0 1-0.2 1.8-0.2 0.7-2.3 4.2-3.2 5.8-0.9 1.5-4.7 7.8-6.3 10.3-1.6 2.5-5.9 7.8-6.6 8.2-0.7 0.5-0.5 0.2-1.2 0.5-0.7 0.2-1.3 0.9-2.6 1.9-1.2 1.1-3.1 2.7-3.8 3.6-0.7 0.9-0.9 2.1-1.2 2.5-0.3 0.4-3 2.9-4.4 3.8-1.4 1-9.7 7.2-10.2 7.7-0.5 0.5-0.2 1-0.1 1.2 0.1 0.3 0.8 0.6 1.6 1 0.9 0.3 4.2 0.7 4.2 0.7 0 0 0.8 0.8 1.5 1.2 0.7 0.3 2.1 0.6 4.5 0.7 2.4 0.1 7.9-0.3 9.6-0.8 1.7-0.5 3.7-1.9 4-2.1 0.3-0.2 1.7-0.9 2.4-1.6 0.7-0.7 0.9-1.8 1.5-3.7 0.5-1.8 1-4.8 1-4.8 0 0 0.3 0.2 0.8 0.3 0.6 0.1 1.5 0.3 2.6 0.5 1.1 0.2 2 0.2 3.2-0.3 1.2-0.4 3.2-2.5 4.3-3.9 1-1.4 1-2.4 1.1-3.5 0.1-1.2-1-4-1-4.3 0-0.4 0.1-0.7 0.7-1.8 0.6-1.1 2.9-3.9 3.9-5.1 0.9-1.2 5.1-6.7 6.1-8 1.1-1.4 6.2-6.7 7.4-7.8 1.2-1.1 3.8-4.4 4.1-5.3 0.4-1-0.1-3-0.8-4.4-0.7-1.4-4.2-4-5.5-5.4-1.2-1.4-2.8-2.3-3.6-3.6-0.7-1.3-0.8-2.1-0.7-2.9 0-0.7 0.2-0.9 0.2-0.9 0 0 0.2 0.1 1 0.5 0.7 0.5 1.3 0.7 3.4 1.1 2.1 0.4 3.5 0.4 6 0.5 2.5 0.1 3.5 0.8 5 1.3 1.4 0.5 1.2 1.1 2.1 2.5 0.9 1.4 3.3 4.4 4.4 5.9 1.2 1.6 2.4 3.1 2.7 3.2 0.2 0 2.8-0.5 4.8-1 2-0.4 4.1-0.7 5.2-0.9 1.1-0.1 2.6 0.6 4.5 1.6 1.9 0.9 3.1 3.3 3.6 4.7 0.5 1.4 1.1 5.1 1.3 6.7 0.2 1.6 0.9 10.2 1 12.1 0.1 1.9-0.2 7-0.4 8.1-0.2 1-2.7 5.4-3.5 6.4-0.7 1-5.2 4.8-6.9 6.3-1.8 1.4-6.5 4.7-7.3 5.1-0.7 0.5-1.7 1.9-1.6 2.5 0.1 0.5 1.3 0.8 2 0.8 0.6 0 1.6-0.3 2.2-0.4 0.6 0 1.4 0.5 1.4 0.5 0 0 0 0.4 0 0.6-0.1 0.3 0.2 1 0.5 1.6 0.3 0.5 1.3 0.7 2.9 1 1.6 0.2 3.9-0.5 7-1 3.2-0.5 6.7-1 7.8-1.5 1.1-0.5 1.3-0.8 1.7-1.2 0.3-0.4 1.7-1.3 2.7-1.7 0.9-0.5 1.6-1.8 1.7-2.3 0.2-0.5-0.2-1.5-0.2-1.9 0-0.4 0.2-0.2 0.3-1.6 0.2-1.4 0.2-3.4 0.5-4.3 0.2-1 0.9-1.7 1.5-2.2 0.6-0.4 0.7-0.2 1.4-0.1 0.7 0.1 0.9 0.2 2.6 0 1.6-0.2 2-0.5 3-1.2 1-0.7 1.2-1.2 1.8-2.1 0.6-0.9 0.7-2 0.8-3.4 0-1.3-0.4-3.4-0.8-4.3-0.5-0.9-2.7-3.5-3.4-4.3-0.7-0.7-2-1.5-3.1-2.5-1.1-1-1.2-1.1-1.6-2.5-0.4-1.4-0.7-4.5-0.9-6.3-0.1-1.8-0.2-6.9-0.3-9.1 0-2.2 0.3-7.1 0.4-8.4 0.2-1.4 0.4-3 0.3-3.7 0-0.7-0.3-1.6-0.5-2.1-0.2-0.6-1.5-2.3-1.9-2.8-0.5-0.5-2.5-1.7-3.6-2.3-1.1-0.7-4.2-2.1-5.4-2.9-1.2-0.8-4.1-3.7-5.6-5.7-1.5-2-3.3-4.4-3.8-4.9-0.5-0.6-0.8-1.4-0.9-1.7 0-0.4-0.2-3-0.3-4 0-1-1-6.1-1.2-7.6-0.2-1.5-1.3-7.4-1.6-8.7-0.3-1.2 0-3.1 0.2-3.7 0.2-0.6 0.5-8 0.6-11 0.1-3 0-6.1 0-6.1 0 0 0.8 0.1 1.4 0.2 0.6 0.1 2 0.4 3.2 0.5 2 0.1 3.1-0.2 5.1-0.7 1.5-0.4 2.3-0.7 3.7-1.3 1.2-0.6 1.8-1 2.8-1.7 1.6-1 2.6-1.5 4-2.8 1.9-1.6 2.7-2.9 4.1-5 1.4-2.1 2.2-3.5 3-5.9 1-3 1.4-4.9 1.3-8.1-0.1-2.7-0.4-4.2-1.3-6.7-0.7-1.8-1.3-2.7-2.3-4.3-1-1.6-1.6-2.5-2.9-3.9-1.5-1.7-2.5-2.6-4.4-3.8-2.1-1.4-3.4-2.1-5.9-2.7-1.7-0.4-3-0.5-4.6-0.3-1.5 0.2-2.2 0.4-3.5 0.9-1.2 0.4-2.3 1-3 1.3-0.7 0.4-2.4 1.4-2.9 2.9-0.4 0.8-0.6 1.6-0.4 2.2 0.3 0.6 1.6 1.2 2.1 1.2 0.6-0.1 0.5-0.3 0.8-0.4 0.4-0.2 0.6-0.5 1-0.7 0.3-0.2 0.7-0.3 1.3-0.4 0.7-0.2 2.3-0.2 3.7 0.2 1.1 0.3 1.6 0.6 2.6 1.2 1.7 1.1 2.6 2 3.7 3.7 1.2 1.9 1.7 4.6 1.8 5.5 0.1 0.9 0.1 3.2-0.5 5.2-0.7 2.8-1.3 4.7-3.5 6.5-1.3 1.1-2.3 1.4-3.9 1.9-2.2 0.8-3.5 0.9-5.8 0.8-1.9 0-2.9-0.2-4.7-0.6-1.8-0.4-2.7-0.9-4.3-1.6-1.8-0.7-3.1-1.3-4.5-2-1.5-0.6-6.6-2.8-11-4.2-5.1-1.6-8.1-2.2-13.4-3-4.2-0.7-6.6-1.2-10.8-1.2-1.7 0.1-2.6 0.1-4.3 0.3-2 0.2-3.1 0.6-5 0.9-1.7 0.4-2.6 0.7-4.3 0.8-1.9 0.3-2.9 0.2-4.8 0.2-2.2 0-3.4-0.2-5.6-0.3-4.6-0.2-9.9-0.3-11.8-0.3-1.9 0.1-7.4 0.4-9.3 0.4-1.9 0.1-5.9 0.9-9.6 0.7-2.9-0.1-4.5-0.2-7.2-0.9-0.7-0.2-1.1-0.3-1.7-0.6-1.2-0.5-1.7-1.1-2.6-2-1.9-1.6-2.6-2.8-4.1-4.7-1.5-2.1-2.6-3.2-3.6-5.5-0.4-0.9-0.6-1.4-0.8-2.3-0.4-1.2-0.7-1.9-0.7-3.2 0-0.7 0.1-1.1 0.1-1.7 0.2-2.6 0.5-4.1 0.6-6.6 0.2-2.5 0.3-5.4 0.2-6.3 0-0.9 0.3-4.1 0.5-5.7 0.3-2.1 0.5-3.9 0.7-5.7 0.3-1.8 0.2-5.1 0.2-6.2 0.1-1-0.3-3.8-0.3-3.8 0 0 1.3-0.3 2.3-0.6 0.9-0.3 4.3-1.1 5.8-1.5 1.5-0.4 5.1-2 6.3-2.4 1.3-0.5 3.2-0.8 3.8-0.9 0.6-0.2 2.7 0 3.5-0.2 0.9-0.2 1.2-0.7 1.3-1 0-0.4-0.2-1.3-0.4-1.7-0.2-0.3-1.5-1.5-2-2-0.5-0.5-3.9-2.5-5.2-3.2-1.4-0.7-5.6-2-7.1-2.3-1.5-0.3-4.6-0.7-5.6-1-1-0.2-1.2-1-1.3-1.5-0.1-0.4 0.3-1.2 0.5-1.5 0.2-0.4 1.9-1.4 3-1.9 1-0.4 5.1-1.6 6.6-1.9 1.4-0.2 7.1-0.5 9.3-0.3 2.2 0.1 11.3 1.5 14.2 2.1 2.9 0.5 6.8 1.9 9.9 3.2 3.2 1.3 4.9 1.9 6 2.4 1.1 0.5 9 4.9 11.3 6.2 2.2 1.3 7.9 4.6 9.2 5.4 1.4 0.8 7.9 4.5 9.8 5.5 1.9 0.9 9.2 4 12.1 5.1 2.8 1 9.5 3 12.1 3.6 2.6 0.5 7.2 0.8 9.9 0.8 2.6 0.1 5-0.4 8.4-1.2 3.4-0.8 6.3-2.6 8.1-3.8 1.9-1.2 3.5-3.7 4-4.6 0.6-0.9 1.1-2.9 1.1-3.5 0-0.5-0.3-1.5-0.5-1.8-0.2-0.3-0.9-0.4-1.6-0.6-0.7-0.2-1.4-0.1-1.7 0-0.3 0-0.8 0.4-1.7 1.1-0.8 0.7-1.7 2.1-2.4 2.7-0.7 0.5-3.1 2.2-5 2.9-2 0.6-5.6 0.6-7.5 0.6-1.9 0-7.5-1.3-10.2-2.1-2.8-0.8-4.9-1.7-7.8-2.8-2.8-1.1-7.7-4-10.3-5.6-2.5-1.7-10.6-6.7-12.7-7.9-2.1-1.3-8.8-5.4-10-6.1-1.2-0.6-8.4-4.6-10.7-5.9-2.3-1.2-8.9-4-10.9-4.7-2-0.8-8.3-2.7-10.8-3.2-2.5-0.5-10.8-1.8-12.5-1.9-1.7-0.1-7.4-0.5-9.5-0.5-2 0-5.2 0-6.7 0.1-1.4 0.1-4.8 0.5-5.7 0.6-1 0.1-2.5 0.2-3 0.1-0.5-0.1-0.2-0.4-0.1-0.5 0.1-0.2 0.7-0.6 2.2-1.5 1.5-0.9 5.4-3.2 7.1-3.9 1.6-0.7 6.2-2.3 10.2-3.2 4.1-1 7-1.3 9.8-1.7 2.8-0.4 9.5-0.8 11.8-0.8 2.2 0 7.4 0.3 10.3 0.5 2.8 0.1 12.3 2 14 2.3 1.6 0.3 11.4 2.3 14.1 3.2 2.8 0.8 9.5 2.5 11.9 3.1 2.4 0.7 7.8 2 9.9 2.3 2.1 0.4 7.4 1.1 10.2 1.1 2.9 0 8-0.7 9.7-1 1.7-0.4 7.5-2.3 8.5-2.9 1.1-0.7 1.4-1.2 2.1-2 0.8-0.9 1.7-2.9 2.1-3.7 0.4-0.8 0.5-2.4 0.5-2.9 0-0.6-0.5-1.9-0.7-2.3-0.2-0.5-1.4-1.2-2-1.3-0.5-0.2-1.3 0-2.1 0.1-0.7 0.1-0.5 0.2-0.9 0.5-0.3 0.2-0.6 1.2-1.1 2.1-0.5 0.8-1.7 2.9-2.1 3.3-0.5 0.5-1.8 1-2.8 1.4-0.9 0.4-2.7 1-3.3 1.3-0.5 0.2-0.6 0.1-2.5 0.2-1.9 0-4.5-0.3-6.2-0.5-1.7-0.3-6.6-1.2-9.5-1.7-2.9-0.5-8.8-2.1-10.1-2.6-1.3-0.4-10.6-3.4-12.9-4.1-2.3-0.7-9.9-2.8-13.1-3.6-3.1-0.8-10.2-1.9-13.1-2.1-2.9-0.2-11.6-0.9-14.6-1.1-3.1-0.1-11.6 0.6-14.1 0.8-2.6 0.2-9.2 1.2-11.7 1.7-2.6 0.5-9.5 2.4-11.3 2.9-1.7 0.6-11 4-12.7 4.7-1.7 0.7-7.8 3.8-8.5 4.1-0.7 0.3-5 2.1-5.7 2.3-0.8 0.3-4.6 1.2-5.1 1.3-0.5 0.1-0.7-0.1-1.3-0.2-0.6-0.2-1-0.1-1.6-0.1-0.6 0-1.4 0.3-2 0.4-0.6 0.1-1.6-0.3-1.8-0.4-0.3-0.1-0.5-0.5-0.6-0.7-0.1-0.3-0.4-0.3-0.6-0.3-0.2 0-0.6 0.2-0.9 0.4-0.3 0.1-0.4 0.6-0.4 0.9 0 0.3 0.5 1.6 0.5 2 0 0.4-0.3 0.7-0.6 1.2-0.2 0.5-2.3 2.2-3.3 2.9-1.1 0.7-4.1 2.5-5.1 3.2-1.1 0.6-1.6 1.4-1.9 1.6-0.4 0.3-0.7 0.2-1.2 0.2-0.5 0-0.6-0.1-1.1-0.1-0.5 0-2.3 0.2-3.5 0.3-1.3 0.1-3.3 0.7-4 0.8-0.6 0.1-3.2 1-3.9 1.2-0.6 0.1-2.7 0.7-3 0.8q-0.5 0.2-1.2 0.1c-0.4-0.1-1.2-0.1-1.8-0.1-0.7 0.1-1.7 0.5-2.6 0.9-1 0.4-1.6 1.1-1.6 1.1 0 0-1 0.9-1 0.9z"/>
						<path id="path2999" fill-rule="evenodd" class="s4" d="m143.5 202.1c-0.2 0.1-1 0.3-3.4 0.9-2.3 0.6-10.1 2.7-11.8 3.2-1.6 0.6-4.3 1-5.8 0.9-1.5 0-5.5-1.1-6.8-2.1-1.2-1-2.9-2.3-3.5-3.6-0.6-1.2-0.3-1.7-0.3-2.3 0.1-0.5 0.3-1 0.3-1 0 0-1-0.8-2.3-1.2-1.3-0.4-2.1-0.5-3.3-0.5-1.2-0.1-1.9 0.2-2.7 0.2-0.8 0.1-1.6 0.3-2.2-0.4-0.7-0.6-0.9-1.3-1.5-1.3-0.7-0.1-0.5-0.1-1.6 0.5-1.1 0.6-1.6 0.8-2 1.2-0.5 0.4-0.9 1.2-0.9 1.2 0 0-1.2-0.6-1.2-1.2 0.1-0.6 0.7-2.2 1.8-3 1.2-0.7 4.3-2.2 5.3-2.6 0.9-0.4 1.4-0.7 2.5-0.8 1.2 0 2.1-0.2 2.1-0.2l-0.1-0.7c0 0-1.6-0.4-2.5-0.4-1 0-2.4 0-3.8 0.2-1.4 0.2-1.3 0.4-1.9 0.4-0.6 0.1-1.7 0.3-2.2-0.3-0.6-0.5-1-0.7-0.7-1.6 0.2-1 0.9-2.5 1.5-3.5 0.7-1 1.7-2 2.6-2.2 0.9-0.2 1.4-0.4 2.1-0.3 0.7 0.1 1.1 0.2 1.5 0.2 0.3 0 0.6 0.1 0.7-0.1 0-0.2-0.2-0.5-0.7-0.8-0.5-0.2-1.5-0.6-2.4-0.8-0.8-0.1-1.7-0.2-2.7 0.2-1 0.3-1 0.4-1.6 0.6-0.7 0.3-1.9 0.3-2.5-0.2-0.6-0.4-1-1.1-1.8-1.5-0.8-0.5-1.4-0.6-1.8-0.7-0.5 0-1 0-1 0 0 0-0.5-0.6-0.3-0.6 0.2 0 2.1-0.1 2.5-0.3 0.4-0.1 2.2-1.3 2.6-1.8 0.4-0.5 1.2-1.4 2.2-1.5 0.9-0.1 1.7-0.1 2.3 0 0.6 0 0.9 0.2 1.1 0.1 0.2 0 0.5-0.3 0.1-0.4-0.4-0.2-0.6-0.6-1.5-0.6-0.9 0-2.2-0.2-3.4 0.2q-1.8 0.6-1.8 0.6c0 0-3 0.2-4-0.1-1-0.3-3.1-0.9-3.4-1.2-0.3-0.2-1.1-0.3-1.2-0.6-0.1-0.2-0.3-0.4 0.1-0.6 0.4-0.2 1-0.4 1.8-0.2 0.8 0.2 1.1 0.1 2 0.1 0.8-0.1 3.8-0.8 5.1-1.3 1.3-0.5 4.6-1.5 4.6-1.5 0 0 1.6 0.3 2.1 0.3 0.5-0.1 1.3-0.3 1.5-0.3 0.3 0 2.2 0.2 2.7 0.3 0.4 0.2 1.3 0.5 1.7 1.3 0.3 0.9 0.3 1.5 0.7 1.9 0.5 0.4 0.4 0.4 1.6 0.6 1.3 0.2 1.2-0.1 1.8 0.3 0.6 0.5 1.4 1 1.6 1.4 0.1 0.3 0.2 0.6 0.2 0.6 0 0-0.2 0.2-0.7 0.4-0.4 0.2-1 0.2-1.7 0.3-0.8 0.2-1 0.4-1.7 0.3-0.7-0.1-1.1-0.5-1.3-0.5-0.2 0-0.4 0.1-0.4 0.4 0 0.3 0 0.8 0.8 1.4 0.9 0.5 1.7 0.9 2.4 1.4 0.7 0.5 1.8 1 1.9 1.6 0.1 0.5 0.3 1.3 0.3 1.9 0 0.6 0.1 2.2 0.1 2.2 0 0 0.9 0.3 1.4 0.5 0.4 0.2 0.6 0.4 1 0.3 0.4-0.2 0.3-0.4 0.9-0.2 0.6 0.2 0.7 0.1 1.3 0.8 0.5 0.6 0.5 1 0.8 1.7 0.4 0.6 0.2 1 0 1.4-0.3 0.3-0.9 0.5-0.9 0.7-0.1 0.2-0.3 0.6 0.1 0.9 0.3 0.3 0.4 0.5 1.1 0.5 0.8 0.1 1.7-0.4 2.7 0 1 0.4 2.5 1.4 3.7 2.5 1.3 1.2 2.7 2.3 2.7 2.3 0 0 1.8 0.4 4 0.6 2.2 0.3 5.2 1 6.6 1.5 1.4 0.6 3.7 1.5 4.4 1.8 0.7 0.4 1.1 0.5 1.6 1 0.4 0.4 0.8 1.2 0.8 1.2zm-75.8 30q0 0 0 0zm1.3-4.4c0.6-1.2 1.8-2.8 3.7-4.3 1.9-1.6 6.8-5.4 7.6-6.3 0.8-0.9 3.7-4.5 3.7-4.5 0 0 0.1-0.5 0.7-0.5 0.6-0.1 2.9 0.7 4.9 0.7 2.1-0.1 6.3-0.9 6.6-1.3 0.4-0.3 0.4-0.8 1.5-1.2 1.2-0.4 2.9-0.6 3.6-0.8 0.6-0.1 0.9 0 1-0.5 0.1-0.5-0.1-0.8-0.6-0.9-0.5-0.1-1.5-0.3-1.9-0.6-0.3-0.4-0.5-0.7-0.3-1.3 0.2-0.6 0.5-1 0.9-1.4 0.5-0.4 1-0.7 0.9-1-0.1-0.4-0.2-0.5-0.7-0.5-0.5 0-0.8 0.2-1 0-0.2-0.2 0-1.2 0.6-2 0.6-0.8 1.1-1.8 1.9-2 0.9-0.1 2.5-0.2 3.4-0.2 0.8 0.1 1.3-0.1 2 0.2 0.7 0.3 1.1 0.7 1.8 2.1 0.6 1.4 0.8 2.3 1.8 3.4 1 1.2 1.4 1.9 2.6 2.9 1.2 1.1 2.3 1.7 3.6 2.2 1.2 0.5 2.9 0.9 2.9 0.9 0 0 0.8 4.5 0.8 7.4 0.1 3.5-0.5 5.5-0.7 9-0.3 3.5-0.5 5.5-0.7 9.1-0.3 2.9-0.5 4.6-0.7 7.5-0.1 2-0.1 3.1-0.3 5.2-0.2 1.2-0.5 1.3 0.5 2.6 0.9 1.3 2.3 3.4 3.1 4.4 0.8 1 5 6.4 5.6 7.1 0.5 0.7 1.6 3 1.9 3.3 0.3 0.4-0.2 0.6 3.5 1.5 3.7 1 6.5 1.9 12.3 1.6 5.7-0.4 14.3-0.7 16.7-0.8 2.5 0 7.6-0.2 15.6 0.4 7.9 0.7 6 0.7 7.7 0.8 1.8 0.1 6.7-0.7 9-1.5 2.4-0.7 3.4-1.2 8.6-0.9 5.3 0.2 7.9 0.4 15.8 2.9 7.8 2.4 8.5 2.9 10.5 3.7 2 0.8 6.9 3.1 9.9 4.2 3.1 1.1 6 1.6 9.8 1.2 4-0.4 6.6-0.9 9.9-3.3 2.3-1.8 3.5-3.1 4.8-5.7 0.7-1.4 1-2.3 1.3-3.8 0.5-2.6 0.6-4.2 0-6.9-0.4-1.5-0.7-2.4-1.5-3.8-1.3-2.4-2.4-3.5-4.5-5.2-1-0.9-1.7-1.3-2.8-1.9-1.1-0.7-1.7-1.2-2.9-1.4-1-0.3-2.7 0-2.7 0 0 0 1.4-1 2.4-1.3 1.8-0.5 3-0.2 4.7 0.2 2.1 0.5 3.2 1.2 4.9 2.5 1.5 1.1 2.1 1.6 3.5 3.4 0.5 0.7 0.9 1.1 1.3 1.9 0.2 0.6 0.3 0.9 0.4 1.5 0 0.8-0.9 1.9-0.4 1.9 0.4 0 0.6-0.4 1-0.4 1.2-0.2 1.8 0.6 2.4 1.9 0.6 1.3 0.9 2.4 0.9 3.6 0 0.7 0 0.9-0.5 1.8-0.5 0.8-1 1.2-1.6 2-0.4 0.4-0.5 0.5-1 1.1-0.2 0.2-0.3 0.7 0.3 0.5 0.6-0.2 1.1-0.4 1.8-0.6 0.5-0.2 1.4-0.4 1.4-0.4 0 0-0.4 2.6-0.9 4.1-0.5 1.4-0.8 2.2-1.7 3.4-0.6 0.8-0.9 1.4-1.9 1.9-0.7 0.4-1.3 0.5-2.2 0.6-0.5 0.1-0.8 0.1-1.3 0-0.1 0.3 0 0.6 0.1 0.8 0.2 0.4 0.6 0.5 1 0.6 0.5 0.1 1.3 0.3 1.3 0.3 0 0-1.4 2.3-2.8 3.4-1.2 1-2.1 1.4-3.6 1.9-1.3 0.4-2.1 0.8-3.4 0.6-0.5-0.1-0.8-0.1-1.3-0.3-0.5-0.2-1.1-0.7-1.3-0.6-0.2 0.2-0.4 0.3-0.1 0.8 0.2 0.4 0.8 1.5 0.8 1.7 0 0.2 0.2 0.5-0.3 0.7-0.5 0.2-1.7 1-5.1-0.2-3.4-1.3-8.4-4.5-10.9-5.9-2.4-1.4-5.4-3.3-6.3-3.6-0.9-0.4-2.7-1.1-3.2-1.2-0.5 0-0.7-0.3-1-0.1-0.2 0.2 0 0.6 0 0.6 0 0 5.1 2.9 5.9 4.5 0.7 1.5 2.7 5.5 2.9 6.8 0.2 1.2 0.5 3.5 0 5.9-0.6 2.3-1.1 4.8-2.2 6.6-1 1.8-4.1 5.6-4.6 6.8-0.5 1.1-2.6 6-3.7 9.1-1.1 3.1-3.4 9.1-5.2 12-1.8 2.9-3.6 4.9-5.1 6.5-1.5 1.6-1.8 2.3-3 3.2-1.3 0.8-2.9 1.5-2.9 1.5 0 0-0.1 0.1-0.7-1.4-0.6-1.4-1-2.6-1-2.6 0 0 4.7-6.3 5.4-7.8 0.8-1.4 3.4-6.8 3.7-8 0.3-1.2 0.9-2.6 0.9-3.1 0-0.6 0.3-1.3 0-1.8-0.3-0.5-0.4-0.7-0.6-0.6-0.1 0.1-1.1 3.8-1.6 5-0.5 1.2-2.3 5.2-2.8 5.9-0.5 0.7-2.9 4-4.1 5.4-1.1 1.3-1.9 1.8-2.7 2.3-0.7 0.6-1.4 0.9-1.9 1.1-0.5 0.2-1 0.2-1 0.4 0 0.2 1.9 1.9 2.2 2.8 0.3 0.9 1.8 8.7 2.2 10.5 0.5 1.8 1 3.9 4.1 7.6 3.1 3.7 4.9 5.7 5.4 6.2 0.4 0.5 0.9 0.7 1 1.4 0.1 0.6 0.4 0.3 0 1.6-0.4 1.4-0.4 2.1-1.7 3.4-1.2 1.3-7.3 8.8-8.8 10.6-1.6 1.7-6.7 8-7.2 8.7-0.5 0.7-2.2 3.6-2.5 4.1-0.4 0.6-0.8 1.1-0.9 1.8 0 0.7-0.1 1.1 0.1 1.6 0.3 0.6 0.8 1.1 0.8 2.1 0 1 0.1 1.6-0.2 2.3-0.3 0.8-0.5 1.5-1.2 1.8-0.6 0.3-1.8 0.6-2.6 0.5-0.8-0.2-1.2-0.2-1.3-1-0.2-0.8-0.4-1.1-0.1-1.6 0.3-0.6 0.2-0.8 0.7-0.8 0.6 0 0.9 0 0.9 0.3 0 0.4-0.2 0.4-0.3 0.7-0.1 0.3-0.1 0.5 0.2 0.4 0.4 0 0.9-0.4 1.1-0.9 0.1-0.4 0.4-1-0.3-1.7-0.7-0.8-1.3-1.2-1.9-1.1-0.6 0-2.2 0.2-2.5 0.7-0.4 0.5-1.5 2-1.7 2.5-0.1 0.5-0.2 1.7-0.4 2.2-0.3 0.4-1 1.9-1.7 2.2-0.7 0.4-3.3 1.3-4.6 0.9-1.2-0.5-2.4-0.7-2.6-2-0.3-1.2-0.4-1.5-0.1-2.2 0.3-0.6 0.6-1.5 1.2-1.8 0.6-0.4 1.2-0.7 1.9-1 0.6-0.2 2.4-0.6 2.8-0.7q0.6-0.1 1-0.5 0.3-0.2 0.4-0.3c-0.1 0.1-0.3 0.2-0.4-0.2-0.2-0.5 0.3-0.9 0.5-1.1 0.1-0.3 7.2-10.4 7.8-11.4 0.6-1.1 5.7-9.3 6.8-11.7 1.1-2.4 1.9-4.3 2.3-5.6 0.4-1 0.9-2.3 0.6-2.6-0.3-0.4-3.7-1.7-4.4-2.2-0.6-0.6-4.1-2.4-4.8-2.9-0.7-0.4-2-0.8-2.1-1.3-0.2-0.5-0.2-0.8 0.2-1.3 0.4-0.5 2.6-2.2 3.2-2.5 0.6-0.4 0.7-0.7 1.2-0.8 0.5-0.1 1.5-0.2 1.5-0.2 0 0-0.9-0.5-1.4-0.4-0.5 0-1.3 0.1-2.6 0.6-1.3 0.4-3.4 1.3-4.1 1.7-0.7 0.5-1.5 1.1-2.3 1.5-0.7 0.3-0.8 0.5-1.8 0.6-1 0.2-2 0.1-2 0.1 0 0 0.7-1.9 0.8-3.3 0-1.4 0.4-6.9 0.5-8.1 0.2-1.2 0.5-2.5 0.8-3 0.4-0.5 0.9-0.9 0.9-0.9l-0.4-0.2c0 0-1.4 1-1.8 1.9-0.4 0.9-0.8 3.6-0.9 4.5-0.2 1-0.4 4-0.5 4.6-0.2 0.7-0.7 2.1-1.1 2.4-0.5 0.3-1.3 1-1.7 1.2-0.4 0.2-0.8 0.4-0.8 0.4 0 0-0.2-2.3-0.8-3-0.6-0.7-1.5-3.4-1.6-6.3-0.1-2.9-0.4-6.7-0.4-7.5 0.1-0.8 0.4-1.4 0.7-1.6 0.4-0.2 0.7-0.3 0.5-0.6-0.3-0.2-0.6-0.5-1.1-0.1-0.5 0.4-1 1.2-1.2 1.7-0.2 0.5-0.2 1.4-0.4 1.7-0.1 0.3-0.2 0.7-0.6 0.4-0.4-0.2-1-1-1.1-2.6-0.2-1.5 0.5-5.4 1-7.2 0.5-1.8 0.7-5.6 1.2-7.5 0.5-1.9 3.6-7.1 4.9-9.1 1.3-1.9 3.5-4.9 3.5-6.2 0-1.4 0.3-2.8-0.2-3.8-0.5-1.1-0.6-2.3-1.3-2.8-0.6-0.5-0.5-0.5-1.2-0.7-0.7-0.1-0.8-0.1-0.8-0.1 0 0 0.8 1.2 0.9 2.1 0.1 1 0.5 4.6-0.1 5.7-0.6 1.2-1.6 3.2-3.7 5.6-2.1 2.4-4.7 6.8-5.2 8.3-0.6 1.5-1.7 7.7-2.2 8.7-0.5 1-0.8 3.1-1 3.6-0.3 0.5-0.4 1.3-0.8 1.6-0.3 0.3-0.1 0.4-1.4 0.9-1.3 0.5-1.9 0.8-2.6 0.5-0.7-0.3-1.5-0.5-2.3-2.1-0.8-1.5-0.7-1.6-1.1-2.4-0.4-0.8-0.8-2.7-0.8-2.7 0 0-0.3 0.7-0.1 2 0.3 1.4 0.7 2.9 0.7 3.7 0 0.9 0.4 1.9 0.1 2.3-0.3 0.4-0.5 0.4-1.4 1-0.9 0.6-1.2 0.6-2.1 0.9-1 0.3-0.7 0.5-2 0.3-1.3-0.1-2.6-0.1-3.3-1-0.6-1-0.6-2.7-0.9-3.3-0.3-0.7-0.7-1.7-1.4-2.1-0.6-0.3-1.4-0.7-2-0.6-0.6 0.1-0.5 0-1.2 0.4-0.6 0.4-0.9 0.8-0.9 0.8 0 0 0.4-0.1 1-0.2 0.5 0 1.3-0.2 1.9 0.3 0.9 0.8 0.7 2.3 0.1 3-0.6 0.7-1.3 1.3-2.2 1.5-1 0.2-1.8 0.3-3.1-0.7-1.2-1-1.9-1.8-2.8-3.2-1-1.4-2.2-4.1-2.2-4.1 0 0 0.1 2 0.1 3 0 1.1 0 2 0.3 2.8 0.2 0.7 0.3 1.1 0.6 1.6 0.2 0.5 1.2 1.6 1.2 1.6 0 0-2.6 0-3.4 0.1-0.7 0-2.3 0.3-3.3 0-0.9-0.3-2.6-0.7-3.5-1.8-1-1.1-1.7-2.1-2.2-2.7-0.4-0.5-1.2-1.3-1.2-1.3 0 0 0.6 1.8 0.5 2.6-0.2 0.7-0.1 1.2-0.8 1.8-0.6 0.5-0.8 1.2-2 1.1-1.2-0.2-2.2-1.2-2.8-2-0.7-0.8-1.8-2.4-2.3-3.9-0.4-1.4-0.8-3.9-0.6-5.6 0.2-1.7 0.8-3.9 0.8-3.9 0 0-1.4 2.1-1.6 2.7-0.2 0.6-0.6 3-0.4 3.8 0.1 0.9 0.4 2.5 0.6 3.5 0.1 0.9 0.4 1.5 0.5 2 0.1 0.5 0.2 0.8 0.2 1.2 0 0.3 0 0.6-0.2 0.7-0.2 0.1-0.9 0.5-1.9 0-0.9-0.5-2-1.1-3.1-3.3-1.2-2.3-1.7-5.5-1.2-7.1 0.5-1.7 1.3-2.8 1.9-3.3 0.5-0.6 0.9-0.9 1.3-1.5 0.4-0.6 0.7-1.2 0.7-1.2 0 0 0.4-0.3-0.4 0-0.7 0.3-0.8 0.3-1.1 0.5-0.3 0.3-1.2 1-1.2 1 0 0 0.1-1.2 0.4-1.9 0.3-1 0.8-1.4 1.4-2.2 1.5-2 4.1-3.4 4.7-4.2 0.6-0.7 0.8-1.5 1.1-2.5 0.2-0.8 0.3-1.3 0.3-2.2-0.4 0.7-0.8 1.1-1.1 1.7-0.2 0.6-0.3 1-0.8 1.6-0.4 0.6-1.2 1.2-2 1.9-0.9 0.7-1.5 0.9-2.3 1.6-0.9 0.6-1.6 0.8-2.2 1.6-0.7 0.9-0.9 1.5-1.1 2.5-0.3 1.2-0.1 2.3-0.1 3.1 0.1 0.8 0.5 1.1 0 2.1-0.6 0.9-0.9 1.6-1.2 2.6-0.3 1.1-0.4 3-0.5 3.6-0.1 0.5 0 0.9-0.6 1.3-0.5 0.4-0.5 0.4-1.2 0.2-0.7-0.3-0.8-0.5-1.8-0.4-0.9 0.1-1.2 0-1.5 0.2-0.4 0.3-0.8 0.5-0.8 0.5 0 0-0.1 0.1 0.5 0.7 0.6 0.6 1 0.8 1.7 1.2 0.7 0.4 1.4 0.6 1.4 0.6 0 0 2.8 5 2.8 6.2 0 1.1 0.8 8.7 1.5 11 0.7 2.2 1.7 3.1 1.7 3.1 0 0 0.9 0.1 1 0.6 0.2 0.4 2.4 3.3 2.7 4.1 0.2 0.7 0.6 2 0.6 3 0 1-0.3 2.1-0.4 2.5 0 0.4-0.1 0.6-0.5 0.9-0.3 0.3-0.7 0.4-0.7 0.8 0 0.4-0.1 0.5 0.3 0.8 0.4 0.3 1 0.6 1 0.6 0 0 1.6 4.2 2.9 7.2 1.4 3.1 4.1 9.4 4.3 9.8 0.3 0.3 0.5 0.6 0.7 0.7 0.3 0.1 2.3 0.4 3.2 0.9 0.9 0.6 1.9 1.1 2.2 1.8 0.3 0.6 0.9 1.7 1.1 2.4 0.2 0.8 0.4 1.9 0.3 2.3-0.2 0.3 0 0.6-0.6 1.1-0.5 0.4-0.4 0.7-1 0.4-0.6-0.2-1.1-0.1-1.1-0.6 0-0.4-0.3-0.5 0.3-1 0.5-0.5 0.7-0.2 0.7-0.6 0-0.5-0.2-0.8-0.7-0.9-0.5 0-1.9-0.1-2.3 0.4-0.4 0.6-0.8 1.1-0.7 2 0.1 0.9 0.7 1.7 1 2.3 0.4 0.6 0.7 2.3 1 3.4 0.3 1.1 0.1 2 0 2.8-0.1 0.7-0.3 1.2-1 1.6-0.5 0.3-2.4 0.9-3.3 0.8-1 0-2.4-0.7-3-2.1-0.7-1.4-1.1-3.2-1-3.8 0.1-0.6 0.3-1 1-1.4 0.7-0.4 1.3-0.7 2-0.3 0.7 0.4 1.2 0.5 1.6 0.7 0.5 0.2 1 0.3 1 0.3 0 0-0.1-0.6-0.6-1.3-0.5-0.6-0.4-1.1-1.6-1.4-1.2-0.4-1.2-0.3-1.8-0.3h-1c0 0-0.6-2-3.3-7.2-2.7-5.3-6-13.3-7-14.5-0.9-1.3-1.5-2.3-2-2.8-0.5-0.4-1.5-1.2-2.6-1.8-1.1-0.5-2-1.2-2-1.2 0 0 0-2.6 0.3-3.5 0.4-0.9 0.9-1.6 1.3-2 0.4-0.4 0.8-1 0.9-1.1 0.2-0.1 0.4-0.4 0.1-0.4-0.3 0-0.8 0.1-1.3 0.5-0.6 0.3-1.1 0.9-1.6 1.4-0.5 0.4-1.2 1.2-1.5 1.4-0.3 0.2-0.2 0.5-1 0.5-0.7 0-0.8 0-0.9-0.7 0-0.7 0.2-1.1 0.1-1.4-0.1-0.3-0.1-0.6-0.5-0.5-0.3 0.1-0.4 0.5-0.8 0.9-0.4 0.5-0.8 1.2-0.8 1.2 0 0-0.7-2.1-0.4-3.2 0.3-1.2 0.4-4.8 0.7-5.8 0.2-1.1 0.1-1.6 0.8-2 0.7-0.4 1.3-0.9 2.2-0.9 0.8 0 0.7-0.2 1.4 0.2 0.8 0.4 2.4 1.3 2.4 1.3 0 0-2.7-2.5-3.2-2.7-0.6-0.1-2.2-0.6-2.9-0.5-0.7 0.1-1.7 0.2-1.7 0.2 0 0-6.1-13.6-7.7-15.9-1.5-2.2-4-6.7-4.4-7.5-0.4-0.8-0.9-2.2-1.4-2.7-0.5-0.4-0.8-1.1-1.3-1.1-0.5 0-0.6-0.1-0.8 0.2-0.1 0.4 0 0.8 0.3 1.1 0.3 0.3 0.8 0.7 0.9 0.9 0 0.2 0.1 0.7 0.1 0.7 0 0-3.1-0.3-4.9-2.3-1.8-2-3-3.8-3.6-4.7-0.5-0.8-1.8-2.3-3.1-3.7 0.2 1.1 0.7 2.3 0.9 2.8 0.2 0.6 0.5 1.1 0.7 1.4 0.2 0.4 0.4 1.1 0.4 1.1 0 0-2.4-0.5-3.2-0.9-2.3-1.1-2.4-1.5-3.5-2.6-1-0.9-0.8-2.8-1.5-4.5-0.5-1.2-1.1-2.2-1.5-2.9-0.5-0.8-1.4-1.3-2.5-1.8 1.1 1.7 1.8 4.3 1.9 4.8 0.1 0.4 0.1 1.9 0.1 1.9 0 0-0.9-0.1-1.8-0.8-0.8-0.6-2.3-1.4-3-3-0.7-1.6-1.7-3.8-1.6-6.4 0-1 0.1-1.7 0.4-2.7 0-1.2-0.1-1.9-0.6-3-0.5-1.1-1-1.7-1.9-2.5q-0.8-0.4-1.5 0.2c-0.4 0.3-0.6 0.6-0.6 1 0.1 0.3 0.2 0.5 0.4 0.7 0.3 0.2 0.8 0.1 0.8 0.1 0 0-0.3 1.2-0.6 2-0.3 0.5-0.5 0.8-0.9 1.3-1.1-0.2-1.7-0.5-2.6-1.1-1.6-1.2-2.1-2.6-2.5-4.7-0.5-2.9 0.7-5.1 2.1-7.4 1.3-2.1 2.4-3.1 3.3-5.3 1-2.2 0.6-3.6 1.8-5.9 1.1-2.3 2.3-4.9 4.8-7.2 1.5-1.3 2.9-2 4.2-2.8 1.4-0.8 3.9-2.1 4.2-2.3 0.3-0.3 0.9-0.5 0.9-0.5 0 0 0 0.7 0.2 1.4 0.2 0.8 0.7 1.3 0.7 1.3 0 0-0.2 1-0.2 1.6 0 0.5 0.1 0.7 0.4 1.1 0.3 0.3 0.5 0.6 0.8 0.6 0.4 0 0.5 0 0.5-0.4-0.1-0.3-0.2-0.7-0.2-1.1 0-0.3 0-0.9 0-0.9 0 0 1-0.7 1.2-1.6 0.1-0.9 0.4-4.3 1.5-6 1.2-1.8 4-4.4 6.6-7.1 1.6-1.6 2.8-2.2 4.1-4.1 1.6-2.3 1.9-3.8 3.2-6.3 1.2-2.3 1.9-3.6 3.9-5 0.8-0.7 1.4-0.9 2.4-1.5 0.8-0.4 1.8-1 2.2-1.1 0.3-0.2 1.1-0.6 1.8-1-1.5-0.1-2.3-0.1-3.8 0-0.7 0.1-1.1 0.2-1.8 0.3-0.8 0.2-1.2 0.2-2 0.4-0.6 0.2-0.9 0.2-1.5 0.4-0.9 0.3-1.2 0.4-2.1 0.8-0.6 0.3-2.3 1.1-2.3 1.1 0 0 0.6-1.1 3.1-2.8 2.5-1.8 3.9-2.6 6-3.8 2.1-1.3 3.7-2 5.7-3.8 0.8-0.7 1.2-1.2 2-1.9 0.6-0.4 0.9-0.7 1.5-1.1 0.5-0.3 0.8-0.5 1.3-0.8-0.8-0.2-1.2-0.2-2 0-0.9 0.2-1.3 0.6-2.1 1.1-1 0.6-1.5 1-2.4 1.8-0.7 0.7-1.1 1-1.9 1.5-0.7 0.4-1.5 0.8-1.9 1-0.4 0.2-0.9 0.2-1.3-0.1-0.6-0.4-0.1-1.1 0.1-1.8 0.5-1.4 0.6-2.1 1.3-3.4 0.8-1.4 1.9-2.8 2.5-3.4 0.5-0.6 1.5-1.2 2.7-1.7-0.6-0.1-1.1-0.1-1.4-0.1-0.2 0-0.6 0.1-1.1 0.3-0.4 0.1-1 0.5-1 0.5 0 0-0.9-2-0.7-3.2 0.2-1.4 1-2 2.1-3 0.8-0.7 1.4-1.1 2.4-1.6 0.4-0.2 1-0.1 1.1-0.5 0.1-0.3-0.3-0.6-0.7-0.6-0.4 0-2.1 0.7-3.3 1.4-1.1 0.7-1.8 1-2.6 2-0.6 0.8-0.8 1.3-1.1 2.1-0.2 0.7-0.4 1.7-0.4 1.7 0 0-2.7 1.6-4.3 2.8-1.3 0.9-1.9 1.5-3.1 2.4-1.1 0.9-1.6 1.6-2.7 2.4-0.7 0.5-1.8 1.1-1.8 1.1 0 0 3.3-0.6 5.2-1.3 1.2-0.5 1.8-0.8 2.9-1.3 1.2-0.4 3-1 3-1 0 0-0.6 2.3-1.2 3.7-1 2.1-1.9 3.1-3.4 4.9-1.3 1.6-2.2 2.4-3.7 3.8-2.6 2.3-4.3 3.4-7.2 5.4-2.6 1.8-4 2.8-6.8 4.4-1 0.6-1.5 0.9-2.6 1.4-0.5 0.3-0.9 0.4-1.5 0.7 0 0 2 0.2 3.1-0.1 2-0.6 3.2-1 5.2-1.7 3.7-1.5 7-3.4 9.2-4.5 2.1-1.1 4.8-2 4.8-2 0 0-1.6 2.6-2.5 4.2-1 1.9-1.3 2.9-2.3 5-1 1.9-1.9 2.7-3.5 4.1-0.8 0.7-1.3 1-2.2 1.7-1.7 1.3-2.9 1.8-4.4 3.3-1.4 1.4-2.5 3.5-2.9 4.1-0.4 0.6-0.9 1.5-0.9 1.5 0 0-3.2 1.9-5.2 3.2-2.1 1.3-3.4 1.9-5.2 3.6-1.4 1.3-2.1 2.2-3.2 3.8-0.8 1-1.6 2.1-2 2.7-0.4 0.6-1 1.6-1 1.6 0 0-1.4-2.7-1.9-4.6-1.1-4.1-0.7-6.7 0.3-10.8 0.7-2.8 1.5-5.1 2.8-6.8 1.3-1.7 3.3-3.5 5.6-5.6 0.4-0.3 0.7-0.5 1-0.8l1.8-1.1c-1.6 0.3-2.5 0.7-3.8 1.5-1 0.6-1.4 1.2-2.3 1.9-0.5 0.2-1.2 0.7-1.2 0.7 0 0-1.2-1.7-0.5-3.4 0.6-1.7 3-5.1 5.2-8.2 1.8-2.4 3-3.6 4.8-6 1-1.2 1.6-1.9 2.5-3.2 0.5-0.6 1-1.2 1.2-1.6 0.2-0.3 0.7-1 0.7-1 0 0-0.3 0.1-1.5 0.8-1.1 0.6-1.8 0.6-1.8 0.6 0 0 0.8-3.3 1.3-4.4zm118.2 167.9q0.1-0.1 0.1-0.1 0 0-0.1 0.1zm-47.4-65.3c0 0-1.2-2.1-1.8-3.2-0.6-1.1-1.1-1.7-1.3-3.1-0.2-1.4-0.1-3.3-0.1-3.3 0 0-1 3.7-0.7 5 0.4 1.4 0.4 1.7 1 2.6 0.5 0.7 0.9 1.1 1.6 1.5 0.6 0.4 1.3 0.5 1.3 0.5zm-6-0.4c0 0-2 0-2.8-2.5-0.8-2.5-0.7-2.8-1-4.3-0.3-1.6-0.1-3.3-0.1-3.8 0-0.5 0.6-3 0.6-3 0 0-0.9 2-1.1 3-0.2 0.9-0.7 2-0.8 3.3-0.2 1.6-0.1 2.8 0.2 4.1 0.3 1.3 1 2.5 1.5 2.9 0.5 0.4 0.9 0.8 1.5 0.9 0.6 0 1.7 0 1.7 0l0.6-0.5zm-30.6-14.4c0.4-1.4 1-2.6 1.5-3.4 0.3-0.6 0.9-1.9 2.2-2.8 0.6-0.4 1.7-0.5 1.7-0.5 0 0 0 0.8 0 1.3 0 0.4-0.1 2.2 0 3.7 0.1 1.3 0.6 3.5 0.6 3.5 0 0-0.1 0.6-0.2 0.9-0.4 2.1-1.3 4-2 5-0.7 1-1.2 0.8-1.2 0.8 0 0 0 0.8 0.2 1.2 0.2 0.4 0.8-0.3 1.2-0.6 0.8-0.5 1.1-1 1.6-1.9 0.4-0.8 0.6-1.6 0.8-2.2 0.3-0.6 0.8-1.2 1.5-1.8 0.1-0.4 0 0 0.3-1 0.2-0.7 0.5-1.7 0.5-1.7 0 0-0.2-1.2-0.3-2-0.2-1.8-0.5-2.7-0.7-4.7-0.1-2.2-0.3-3.7 0.8-5.6 0.5-1 1-1.4 1.7-2.2 0.6-0.6 1.1-1 1.8-1.5-0.7-0.1-1.1-0.1-1.8 0.1-0.6 0.2-0.9 0.4-1.4 0.7-0.8 0.5-1.2 0.9-1.9 1.7-1.1 1.5-1.8 4.5-1.8 4.5 0 0-0.7 0.2-1.1 0.4-0.7 0.3-0.7 0.3-1.6 1.1-2 1.7-2.7 4.2-2.4 7zm-2-0.4c1.3-1 1.5-3.1 1.6-3.9 0.1-0.9 0.1-1.2 0.1-2 0-1.6-0.4-2.9-0.3-4.2 0.1-1.2 0.6-3.5 1-4.5 0.4-1 1.5-3.7 1.9-4.3 0.3-0.6 0.7-1.5 1.2-2.4 0.8-1.4 2.2-2.9 2.5-3.3 0.2-0.4 0.5-0.7 0.8-1.1-1.2 0.4-2.1 0.7-2.9 1.6-0.9 0.8-2 1.9-3 3.3-1.1 1.5-1.7 2.3-2.4 3.9-0.8 1.9-1.2 3.1-1.3 5.3-0.2 2.6 1 4 1 6.7-0.1 1.3-0.3 2.4-0.4 3.4-0.2 1-0.9 2.3-0.9 2.3 0 0 0.7-0.4 1.1-0.8zm-46.7-16.2c0.3-0.6 1.4-1 1.4-1 0 0-0.9-0.1-1.5 0.1-0.6 0.1-1 0.2-1.4 0.7-0.3 0.4-0.3 0.7-0.3 1.2 0 0.6 0.1 0.8 0.3 1.3 0.2 0.4 0.4 0.6 0.7 0.8 0.2 0.2 0.3 0.3 0.5 0.4 0.2 0 0.4 0 0.6 0 0.2-0.1 0.3-0.2 0.4-0.4 0.1-0.1 0.1-0.2 0.1-0.4 0-0.4-0.7-0.3-0.9-0.7-0.4-0.7-0.3-1.4 0.1-2zm8.2 1.8c0-2.9 0.3-4.6 1.3-7.4 0.6-1.3 1-2 1.7-3.3 0.6-1 1-1.5 1.5-2.6 0.4-0.7 0.6-1.1 0.9-1.8 0.3-1 0.3-1.6 0.7-2.5 0.4-1.1 0.7-1.6 1.4-2.5-2.5 2.4-3.7 4-5.5 7-0.5 1-1 1.5-1.4 2.6-0.3 0.8-0.4 1.4-0.6 2.3-0.3 1.7-0.4 2.8-0.4 4.6 0 1.1 0 1.7 0.2 2.7 0 0.3 0.1 0.6 0.2 0.9zm23.3-9.6c0 0 0.8-2.6 2.1-3.8 1-0.9 1.7-1.2 3-1.6 1.3-0.4 2-0.4 3.3-0.4 0.4-0.9 0.7-1.4 1.1-2.3 1.2-2.2 1.8-3.5 3.5-5.3 1.1-1.2 1.8-1.7 3-2.6 1-0.7 2.5-1.7 2.5-1.7l0.5-0.4c-1 0.2-1.6 0.3-2.6 0.6-2.2 0.7-3.3 1.5-5.1 2.9-1.5 1.2-2.4 1.9-3.5 3.6-0.7 1-1 1.7-1.5 2.9-0.1 0.4-0.3 1.1-0.3 1.1 0 0-2.2 0.6-3.4 1.4-0.8 0.5-1.3 0.8-1.9 1.6-0.4 0.6-0.7 0.9-0.8 1.5-0.1 0.4-0.2 0.6-0.2 1 0 0.6 0.3 1.5 0.3 1.5zm-7.8 5.6c0 0-0.7-2-0.8-3.4-0.1-2.4 0.1-4.3 1.8-5.9 0.6-0.6 1.1-0.9 1.8-1.2 1-2.5 2.1-4.8 3-6.3 1-1.4 3.6-5.6 5.1-7.1 1.5-1.5 3.5-3.1 4.6-3.9 1.1-0.8 2-1.6 2.4-2.2 0.5-0.6 0.9-1.6 0.9-1.6 0 0-0.8 0.6-1.4 1-1.1 0.8-1.8 1.1-2.9 1.9-0.9 0.7-1.3 1.1-2.3 1.9-0.6 0.5-1.3 0.9-2 0.5-0.6-0.4-0.8-1-0.7-1.7 0.1-2 0.4-2.8 0.9-4.6 0.9-2.9 2.2-5.7 3.2-7.1 1.1-1.5 2.6-3.4 3.6-4.8 1-1.4 1.4-2.4 2.3-3.8 0.7-0.9 1-1.5 1.7-2.2 0.7-0.7 1.1-1 1.8-1.5-0.8 0.1-1.2 0.2-1.9 0.5-1.2 0.6-1.7 1.3-2.6 2.2-1.3 1.2-1.7 2.2-3 3.5-0.8 0.9-1.3 1.5-2.3 2.3-1.1 0.9-1.8 1.3-3.1 2-1 0.7-1.7 0.8-2.8 1.6-0.9 0.5-1.3 0.9-2.1 1.6-0.5 0.5-0.8 0.8-1.1 1.4-0.3 0.5-0.5 0.8-0.7 1.3 0.9-0.9 1.4-1.3 2.3-2.1 0.8-0.6 1.2-0.8 2.2-1.3 0.6-0.4 1.2-0.7 1.8-0.4 0.4 0.2 0.6 0.4 0.8 0.7 0.4 1-0.4 1.8-0.9 2.6-1.4 1.9-2.5 3-3.3 5.3-0.4 1.5-0.5 2.3-0.6 3.8 0 0.8 0.2 1.2 0.1 2-0.1 1.5-0.9 2.1-1.4 3.5-0.4 1.3-1 2.7-1 3.3 0 0.6 0.1 1.4 0.1 1.4l-1.9 5.5c0 0-0.5 0.3-0.8 0.4-0.7 0.4-1 0.7-1.5 1.3-0.6 0.7-0.9 1.1-1.2 2-0.5 1.3-0.5 1.8-0.5 3 0 1.7 0.5 3.4 1.5 4.3 0.2 0.2 0.9 0.3 0.9 0.3zm-32.4-103.3c0.3-0.4 0.6-0.8 1-1 0.4-0.2 1.4-0.5 2.3-0.8 0.8-0.2 1.4-0.4 1.4-0.4 0 0 0.5 0.7 1 1 0.6 0.4 1 0.5 1.6 0.6 0.9 0.1 1.5 0.1 2.2-0.4 0.4-0.4 0.6-0.7 0.7-1.3 0.1-0.7-0.1-1.2-0.5-1.8-0.9-1.1-2.1-1.1-3.4-0.9-1.3 0.2-2 0.5-3.3 1-0.5 0.2-1 0.5-1.2 0.6-0.3 0.1-0.4 0.1-0.6-0.2-0.2-0.3-0.4-0.8-0.2-1.2 0.2-0.5 0.7-1 1.3-1.2 0.5-0.2 1.3-0.3 2-0.4 0.8 0 1.5-0.2 1.9-0.4 0.4-0.1 3.1-1.1 4.3-1.4 1.2-0.3 4.9-0.8 6.5-1.1 1.6-0.2 2.7-0.5 4.5-0.6 0.6-0.1 1.1-0.1 1.6-0.1q0.8 0.2 0.8 0.2c0 0 1.1-0.5 1.8-1 0.6-0.6 0.9-1.2 1.5-1.6 0.5-0.4 4.9-2.8 5.4-3.2 0.5-0.5 1.7-1.8 2.2-2.2 0.6-0.4 1.3-1 1.4-1 0.1 0 1.9 0.4 2.5 0.7 0.7 0.3 1.7 0.7 1.8 0.9 0.2 0.3 0.2 0.4 0.1 0.6-0.2 0.3-0.5 0.3-0.8 0.7-0.4 0.4-0.5 0.7-0.7 1-0.2 0.3-0.5 0.7-0.8 1-0.3 0.3-1 0.4-1.2 0.6-0.3 0.3-0.4 0.3-0.4 0.7 0.1 0.5 0.1 0.6 0.5 0.7 0.4 0.1 0.7-0.2 1.2-0.4 0.6-0.2 1.1-0.4 1.6-0.4 0.6 0 0.4 0 1.1 0.1 0.8 0.1 1.6 0.3 1.9 0.3 0.3 0.1 0.9 0.6 1.1 0.8 0.3 0.3 1.1 0.8 1.4 1 0.3 0.2 1.8 1.1 2.1 1.3 0.3 0.1 0.5 0.2 0.7 0.4 0.2 0.4 0.3 0.7 0.2 1.1 0 0.4-0.3 1.1-0.6 1.6-0.3 0.5-0.6 0.7-0.4 1.2 0.3 0.5 0.7 1.2 1 1.4 0.2 0.2 1 0.8 1 0.8 0 0-1.6 1.3-1.9 1.8-0.2 0.6-0.9 1.8-0.9 2.4 0 0.6-0.1 1.9 0.1 2.6 0.2 0.6 0.8 1.5 1.6 2.4 0.8 0.8 1.4 1.5 1.5 1.8 0.1 0.4 0.2 1.1 0.2 1.6-0.1 0.5-0.1 1.1 0.1 1.4 0.2 0.4 0.5 0.8 0.5 1.2-0.1 0.4-0.7 1.1-0.9 1.2-0.2 0.2-0.7 0.3-0.8 0.5-0.2 0.1-0.5 0.5-0.6 0.5 0 0.1-1.2 0.3-2 0.5-0.8 0.2-1.7 0.2-2.8 0.3-1.1 0-2.8-0.1-3.6-0.4-0.8-0.3-1.8-0.9-2.6-1.2-0.8-0.4-0.6-0.6-1.7-0.5-1.1 0.1-0.4 0.2-1.7 0.3-1.3 0-3.5 0-5.7-0.8-2.3-0.7-3-1.1-4.2-1.6-1.2-0.5-1.6-0.8-1.8-1.1-0.2-0.4-0.2-0.7-0.2-0.7 0 0-1 0.1-1.1 0.4-0.1 0.3-0.3 0.7-0.1 1.1 0.3 0.4 1 1.1 1.5 1.5 0.5 0.3 1.1 0.7 1.1 1.4 0 0.7-0.3 3.8-0.7 4.7-0.4 0.9-1.4 2.8-2.1 3.4-0.7 0.6-0.9 0.6-1.3 0.9-0.5 0.2-1.3 0.4-1.3 0.4 0 0 0.4-1.4 0.5-2.3 0.1-0.8-0.1-4-0.1-4.7 0-0.7 0.2-1.7 0.3-1.9 0.1-0.1-0.2-0.3-0.4-0.3-0.2 0-0.6 0.3-0.9 1.1-0.3 0.8-0.3 2.2-0.5 3.4-0.3 1.3-1 3.1-1.7 4.1-0.8 0.9-2.7 2-3.6 2.4-0.9 0.4-2.5 1.2-2.9 1.6-0.5 0.4-1.3 1.1-1.9 1.5-0.5 0.5-1.2 1.4-1.2 1.4 0 0 0.4-2.7 1-3.7 0.6-1 1.6-2.2 2.5-2.7 0.8-0.5 1.7-1.8 1.9-2.5 0.3-0.7 0.7-3.3 0.5-4.4-0.3-1.1-0.7-2.4-1.4-2.9-0.7-0.5-0.9-0.2-2.1-1.3-1.1-1-1.8-1.7-2.1-2-0.3-0.3-0.7-0.6-1-0.7-0.3-0.1-1.3-0.2-1.6-0.4-0.2-0.2-0.5-0.5-0.4-0.7 0-0.2 0-0.4 0.5-0.6 0.5-0.1 1.6-0.4 2.2-0.4 0.7 0.1 1.3 0 2 0.2 0.7 0.1 0.9 0.1 1.8 0.6 0.5 0.2 0.8 0.5 1 0.7 0.2 0.2 1.1 0.1 1.5-0.2 0.3-0.2 1.1-0.7 1.3-1.4 0.2-0.7 0.2-1.2-0.1-1.8-0.5-0.7-1.3-0.7-2.1-1-1.2-0.3-2.1-0.2-3.2-0.2-1 0.1-1.6 0.2-2.6 0.4-1.4 0.3-2.5 0.8-3.4 1.2-0.9 0.3-1.7 0.9-2.1 1-0.4 0.1-1.1 0-1.2-0.3-0.2-0.4 0-2 0.3-3.2 0.2-1.3 0.3-2.2 1.1-3.3zm31.2-12.1c0 0-0.7 0.1-1.1 0.3-0.4 0.3-0.5 0.6-0.8 1-0.2 0.4-0.3 1.1-0.3 1.8 0.1 0.6 0.2 1 0.6 1.6 0.4 0.6 0.6 0.9 1.2 1.2 0.6 0.2 1.1 0 1.5 0.1 0.4 0 0.6 0 0.8 0.2 0.3 0.4-0.2 0.8-0.1 1.3 0 1.2 0.4 2.1 1.4 2.9 0.5 0.5 0.9 0.7 1.6 0.9 0.9 0.3 1.4 0.4 2.3 0.2 1-0.3 1.5-0.8 2.2-1.5 0.7-0.8 0.8-2.3 1.2-2.4 0.4-0.1 1.3-0.1 1.7-0.6 0.3-0.4 0.3-1 0.3-1.3 0-0.3 0-0.5 0-0.5 0 0-0.6-0.3-1-0.4-0.4 0-0.6 0-0.9 0-0.3 0-0.6 0.1-0.6 0.1 0 0-0.9-0.7-1.6-1.1-0.4-0.2-0.7-0.4-1.2-0.5-0.8-0.2-1.2-0.2-2-0.3-1.2 0-2.6 0.3-3.1 0.3-0.5 0-0.5-0.1-0.9-0.1-0.3-0.2-0.5-0.4-0.8-0.7-0.2-0.3-0.3-0.8-0.4-1.1-0.1-0.3-0.1-0.6 0-0.8 0.1-0.2 0.3-0.3 0.3-0.4 0-0.2-0.3-0.2-0.3-0.2zm39.7 18.3c0.3 0.2 1.1 0.1 1.7 0.2 0.7 0.2 1.3 0.8 2 1.4 0.7 0.6 2.6 2.5 2.6 2.5 0 0 0.5-0.3 0.7-0.5 0.3-0.3 0.7-0.5 1.3-0.8 0.5-0.3 1.1-0.3 2-0.5 0.9-0.3 4.4-0.5 6.7-0.5 2.2-0.1 4.2 0 4.2 0l0.1-0.4c0 0-1-0.1-2.1-0.3-1.1-0.1-4.2-0.3-5.5-0.4-1.2-0.1-3.4-0.4-4.9-0.9-1.4-0.4-2.6-0.8-3.2-1.3-0.7-0.4-1.2-1.4-1.2-1.4 0 0-0.5-0.3-0.9-0.3-0.4 0-1.5 0.5-2 0.7-0.4 0.2-1.9 2.4-1.5 2.5zm-59.5-6.5c0 0-0.5 0.3-0.5 0.6-0.1 0.4 1.5 0.5 2.5 0.6 1 0.2 1.7 0.3 2.6-0.1 1.1-0.4 1.6-0.9 2.2-1.9 0.3-0.5 0.6-1.3 0.6-1.3 0 0 2.5 0.8 4.1 0.7 1.6-0.1 3.5-1 4.4-1.4 0.9-0.4 1-0.4 1.3-0.8 0.2-0.2 0.2-0.4 0.1-0.7-0.2-0.4-0.6-0.4-1.2-0.1-0.7 0.2-0.9 0.3-1.4 0.5-1.2 0.3-1.9 0.4-3.1 0.4-1.3 0-2-0.1-3.2-0.3-0.7-0.2-1.2-0.1-1.7-0.4-0.5-0.3-0.7-0.5-1.2-0.5-0.5 0-1-0.1-1.2 0.3-0.2 0.3-0.3 0.8-0.5 1.3-0.4 0.8-0.5 1.3-1.2 1.9-0.5 0.5-0.9 0.6-1.5 0.9-0.4 0.1-1.1 0.3-1.1 0.3zm-2.8 205c0.2 0 1.4-0.4 1.7-0.7 0.4-0.3 0.7-0.2 0.5-0.7-0.3-0.4-0.5-0.6-0.5-1 0.1-0.4 2.3-9.5 2.7-13.2 0.5-3.6 2.5-11.4 2.6-13 0-1.7 0.2-2.9 0.1-3.4 0-0.5 0.1-0.8-0.2-1.1-0.3-0.2-1.3-0.7-1.6-1.1-0.2-0.4-0.4-0.4-0.3-0.8q0.2-0.5 0.2-0.5c0 0-0.6-0.2-0.7-0.9 0-0.6 0.2-1.5-0.1-1.9-0.2-0.4-0.8-1.5-0.7-1.9 0.1-0.5 1-1.6 1.5-1.6 0.6-0.1 0.8 0.3 1.6-0.1 0.8-0.3 1.8-1.1 2.2-1.3 0.4-0.3 0.9-0.9 0.8-1.3-0.2-0.3-0.1-0.6-0.3-0.6-0.3 0.1-1.2 0.8-1.9 1.2-0.7 0.4-1.5 0.6-2.8 0.7-1.3 0-2.7-0.3-3-0.7-0.3-0.3-0.3-0.8-0.3-1.1 0-0.3 0.1-0.3 0.1-0.3 0 0 1.5-0.6 1.9-0.8 0.3-0.3 1.4-1.1 1.8-1.2 0.4-0.1 1.2-0.4 1.2-0.4 0 0 0.4-0.5 0.2-0.8-0.1-0.4-0.2-1.1-0.2-1.8 0.1-1.3 0.8-2.6 1.1-3 0.2-0.4 1.5-2 1.8-2.2 0.3-0.2 0.6-0.3 0.6-0.3 0 0 0 0.5 0.2 0.8 0.1 0.4 0.2 0.7 0.2 0.9v0.3c0 0 2.4 1.2 2.6 1.7 0.2 0.4 1.1 2.1 1.2 2.4 0.1 0.2 0.2 0.4 0.2 0.4 0 0 0.2-0.3 0.5-0.3 0.4 0.1 1 0.6 1 0.6 0 0 0.4-2.1-0.6-3.5-1-1.3-2.7-3.1-2.5-5.2 0.1-2 1.4-9.4 1.8-10.9 0.4-1.6 0.4-3.3 0.6-3.7 0.2-0.4-0.1-0.5 0.4-0.4 0.5 0.1 3.5 1.4 4 1.6 0.4 0.3 1.6 0.8 1.7 1.2 0.2 0.4 0.7 1.6 0.3 2.8-0.3 1.1-0.9 6.6-0.9 7.5 0 0.8-0.1 1.8-0.1 2.5-0.1 0.7-0.1 2.1-0.1 2.1 0 0 2.3-5.4 3-6.7 0.7-1.2 2-4.8 2-5.2 0-0.4 0.1-0.7 0.1-0.7 0 0 3.3 2.1 3.4 2.3 0.1 0.2 0.3 1.4 0 1.8-0.3 0.3-2.3 3.6-2.4 4.2-0.2 0.5-2 5.5-2.3 6.3-0.3 0.9-0.8 1.9-1.1 2.4-0.3 0.6-0.5 1-0.5 1 0 0-0.8-0.6-1.2-1.1-0.4-0.5-0.9-1.3-1-1.4 0-0.1-0.5-0.5-0.5-0.5 0 0-0.4 0.6-0.4 1 0.1 0.4 0.2 0.9 1 2.9 0.9 1.9 1.5 3.1 1.5 3.6 0 0.6 0.2 0.8-0.1 1-0.4 0.2-0.5 0.5-0.5 1.1 0 0.6 0 2.6-0.9 3.8-0.8 1.2-3.7 4.3-4.1 4.7-0.3 0.4-0.7 1-0.8 1.4 0 0.4 0.3 0.2 0.5 0.5 0.2 0.3 0.3 0.4 0.3 0.4 0 0-2 4.7-2.4 6.2-0.5 1.4-2 7.1-2.1 8.4-0.1 1.3-0.4 5.2-0.5 5.9 0 0.7-1.1 5.4-1 6 0 0.6 0 1.4 0.4 1.9 0.3 0.5 0.2 0.4 0.9 0.8 0.7 0.4 2 0.7 2.2 0.9 0.3 0.3 1 1.1 1.1 1.5 0 0.4 0.2 2.7 0 3.2-0.2 0.5-0.6 1.5-1 1.9-0.5 0.4-0.9 0.9-1.8 1-0.8 0-0.9 0.1-1.2-0.4-0.4-0.6-0.6-0.8-0.6-1.4-0.1-0.6-0.1-0.9 0-1 0.1-0.2 0.1-0.4 0.5-0.1 0.4 0.3 0.6 0.5 1 0.3 0.3-0.2 0.8-0.5 0.6-0.9-0.2-0.4-0.1-0.4-0.4-0.5-0.3-0.1-0.5 0.3-0.6-0.2-0.1-0.6 0.1-0.8-0.1-1.1-0.2-0.4-0.5-0.8-0.9-0.8-0.3 0-1.9 0.5-2.4 1-0.4 0.6-0.9 1-1 1.7-0.1 0.7 0 1.8-0.4 2.4-0.4 0.5-3.9 2.3-4.8 2.2-0.8-0.1-2.1-0.6-3-1.6-0.9-1.1-1.5-1.9-1.5-2.4 0-0.4 0.6-1.3 1-1.8 0.5-0.5 1.5-0.9 1.5-0.9zm161.5-56.1c0 0 5.5-5.9 7.1-8.6 1.5-2.6 8.1-19 9.1-22.1 1-3.1 1.6-4 2.8-5.4 1.2-1.4 5.5-9.8 5.7-12.4 0.1-2.5-0.2-5.7-0.4-6.4-0.2-0.7-0.2-1.1-0.2-1.1 0 0 1.3 1.3 1.6 2.6 0.2 1.4 1.1 11.3 1 13.8-0.2 2.6-1 5.8-0.8 7.4 0.2 1.6 1.1 6 1.3 7.7 0.2 1.8 0.4 8.3 0.4 9.6 0 1.4 0.1 2.3 0.1 2.3 0 0-0.3 0.5-1.4 0-1.1-0.4-1.8-1.5-1.8-1.5 0 0-0.1 1.2 0.3 2.2 0.5 0.9 0.9 1.8 2.5 2.4 1.6 0.7 1.6 0.5 2.2 0.8 0.6 0.4 2.6 3.7 5 6.6 2.4 2.8 2.4 3.5 4 4.3 1.5 0.9 1.8 0.9 2.7 1.6 0.9 0.6 5.2 4 6.3 4.7 1.1 0.7 2.2 1.3 2.5 2.5 0.2 1.3 0.4 9.3 0.5 12 0.1 2.8 1 13.4 1 15.4 0 2-0.4 2.8 0.4 4.1 0.7 1.3 2 2.6 2.9 3.2 0.9 0.5 1.9 0.3 2.8 1.1 0.9 0.7 3.1 4.3 3.1 5.2 0 0.9 0.5 1.3-0.4 2.4-0.8 1.1-0.8 1.6-1.7 1.3-0.9-0.2-1.7-0.9-1.3-1.4q0.5-0.8 0.5-1.4c0-0.3-0.1-1.2-0.9-1.3-0.8 0-1.8 0-2.8 1.5-1 1.5-1.8 4.4-2.3 5-0.6 0.6-3.8 2.5-5.1 3-1.3 0.6-2.6 1.1-3.4 0.7-0.7-0.3-1.2-1-1-2 0.2-1.1 1.1-2.2 2-3 1-0.7 2.1-1.5 2.1-2.4 0-0.9-1.2-15.7-1.4-17.3-0.2-1.6-1.5-12.7-2.4-14.3-0.9-1.5-2.3-4.6-3.7-5.3-1.5-0.7-2.9-0.9-3.5-1.3-0.6-0.3-0.8-1.2-0.3-2 0.6-0.7 1.4-1.1 1.4-1.7 0-0.6-0.3-1-0.7-0.9-0.5 0.1-2 1.4-2.6 2.3-0.6 0.9-1.1 1.7-2.2 2.3-1.1 0.7-1.5 1-2.5 1.1-1 0.1-1.7 0-1.7 0 0 0 0.1-3.4 0.7-4.6 0.5-1.2 1.2-2.2 1.7-3 0.6-0.8 1.4-1.7 1.4-1.7 0 0 0.1-0.5-0.7-0.2-0.7 0.2-2.9 1.5-3.4 2.5-0.6 1-1.1 2.7-1.6 3.5-0.4 0.8-1.8 3.7-1.8 3.7 0 0-7-8.5-7.6-10-0.7-1.4-1.9-4.1-1.9-4.9-0.2-0.8 0-1.4 0-1.4 0 0 4.1 0.7 5 0.9 0.9 0.3 2.6 0.9 2.6 0.9 0 0-1.7-2-2.3-2.9-0.5-0.8-1.4-2-1.9-2.7-0.5-0.7-1.3-1.9-1.3-1.9 0 0 0.1 1.4 0.1 2.2 0 0.8 0.1 1.4 0.1 1.4 0 0-0.7 0.2-1.4-0.3-0.6-0.6-2.9-2.7-3.3-2.8-0.5-0.2-1.5-1.3-2.5-1.3h-2.3c-0.5 0-0.7 0.2-0.7 0.2 0 0 1.6 1.1 2.6 2.1 1 1 3.2 2 3.2 2.7 0 0.7 0.2 2.4 0.1 3.5-0.1 1.1-0.2 2.6-0.2 2.6 0 0-3.6-1.2-4.7-1.2-1.1 0-5.4-1.1-6.5-1.3-1.2-0.2-2.5-0.4-2.5-1.1 0-0.6 1.2-1.6 1.2-1.6z"/>
						<path id="path3001" fill-rule="evenodd" class="s5" d="m125.9 187.5c-0.3 0.3-0.8 0.8-1.5 1.1-0.7 0.2-1.3 0.5-2.4 0.3-1.1-0.2-1.2-0.4-1.4-0.6-0.3-0.3-0.3-0.6-0.5-1.3-0.2-0.7-0.5-0.8-0.9-1.4-0.5-0.5-1.3-1.1-2.4-1.8-1.2-0.8-2.9-1.1-3.1-1.3-0.2-0.2 0.1-0.4 0.1-0.9 0.1-0.4-0.1-1.1-0.1-1.5 0-0.4 0.1-0.4 0.3-0.6 0.3-0.1 1.3-0.3 1.7-0.3 0.4 0 1.4 0.4 1.9 0.6 0.5 0.2 1.2 0.7 1.9 1.1 0.8 0.4 5.3 2.4 6.4 3.3 1.1 0.9 0.6 2.2 0.6 2.2 0 0-0.3 0.8-0.6 1.1zm-11-10.8c0 0 2.9-1.2 5.4-1.4 2.5-0.1 5.8 0.1 7.1 0.6 1.2 0.4 4.1 1.7 4.9 2.6 0.9 0.9 2.1 2.2 2.6 2.7 0.4 0.4 1.3 1.5 1.4 1.9 0.1 0.4 0.4 0.6 0 0.8-0.4 0.1-1.3 0.3-2 0.3-0.7 0-1.4 0.3-2.1 0.5-0.7 0.2-1.4 0.3-1.4 0.3 0 0-4.8-3.1-6.7-4.1-1.9-0.9-3.3-2.1-4.5-2.6-1.1-0.5-1.8-0.7-2.5-0.9-0.6-0.3-2.2-0.7-2.2-0.7zm-1.1-4.6c-1.8-0.7-2.9-1.1-4.5-2.1-1.8-1-4.1-2.8-4.3-3.1-0.2-0.2 0.7-0.8 0.7-0.8l4.1-2c1.7-0.8 3.3 0.3 4.7 0.9 1.7 0.8 2.4 1.2 3.9 2 0.8 0.5 1.9 1.1 2 1.2 0 0-1.8 1.2-3 2-0.8 0.5-1.2 0.9-2.1 1.4-0.4 0.2-0.8 0.5-1 0.5-0.2 0-0.3 0-0.5 0zm2.1-10.8c1.5-0.6 2.3-1.1 3.8-1.6 0.6-0.2 1-0.5 1.6-0.5 0.9-0.1 1.3 0.3 2.2 0.7 1.8 0.6 2.6 1 4.2 1.7 1.3 0.5 3.3 1.4 3.3 1.4 0 0-2.5 1-4 1.7-1.4 0.7-3.5 1.9-3.5 1.9 0 0-1.2-0.8-2-1.3-0.9-0.5-1.4-0.7-2.4-1-1.4-0.6-2.2-0.9-3.6-1.3-1-0.2-2.4-0.5-2.4-0.5 0 0 1.7-0.7 2.8-1.2zm10.6-3.7c0.9-0.2 1.4-0.3 2.3-0.5 1.6-0.4 4.1-1 4.1-1 0 0 0.8 0.2 1.4 0.4 1.8 0.7 2.8 1.3 4.5 2.3 0.9 0.5 2.1 1.3 2.1 1.3 0 0-1.7 0.4-2.7 0.7-1.4 0.3-3.5 1-3.5 1 0 0-0.5-0.3-0.8-0.5-1.6-0.8-2.6-1.1-4.3-1.7-1.9-0.7-4.9-1.5-4.9-1.5 0 0 1.1-0.3 1.8-0.5zm10.9-2.2c0 0 6.2-0.8 6.8-0.8 0.5 0 1.9-0.3 1.9-0.3 0 0 0.5 0.5 0.9 0.7q1.2 0.9 2.1 1.6c0.5 0.4 2.3 1.8 2.3 1.8 0 0-2.5 0.4-3.5 0.6-1 0.2-3.6 0.5-3.6 0.5 0 0-1.5-1.3-2.5-1.9-1.6-1.1-4.4-2.2-4.4-2.2zm14.5 0.5l-2.3-1.8c0 0 2.9-0.1 3.7-0.2 0.8 0 2.7-0.2 2.7-0.2 0 0 0.8 0.6 1.5 1.2 0.7 0.6 3.8 3 3.8 3h-2.3c-1.1 0-1.7 0.1-2.5 0.1-0.8 0-1.7 0.2-1.7 0.2 0 0-1.2-1-1.5-1.3-0.4-0.3-1.4-1-1.4-1zm10.9-2.6c1.1 0 2.2 0 3.7 0.1 1 0.9 1.9 1.6 2.4 2.3 0.8 0.9 2.5 3 2.5 3 0 0-0.1 0.1-0.5 0-0.4-0.1-1.4-0.1-2.5-0.1-1.2-0.1-4-0.1-4-0.1l-0.4-0.5c0 0-1-1.3-1.7-2.1-1.3-1.2-3.8-2.6-3.8-2.6 0 0 3.3 0 4.3 0zm10.7 0.8c1 0.1 1.5 0.1 2.5 0.2 0.7 0.1 1.8 0.3 1.8 0.3 0 0 0.5 0.4 1 1 0.6 0.5 0.9 1.2 1.3 1.8 0.4 0.7 0.9 2.5 0.9 2.5 0 0-1.6-0.2-2.5-0.4-0.9-0.1-4.1-0.9-4.1-0.9 0 0-0.7-0.9-1-1.3-0.2-0.4-0.6-1.1-1.1-1.6-0.5-0.6-1.9-1.9-1.9-1.9 0 0 1.9 0.2 3.1 0.3zm8.4 1.1c0 0 2.2 0.5 2.8 0.6 0.6 0.1 1.6 0.3 3.3 0.7 1.7 0.5 3 0.8 3 0.8 0 0 0.4 0.9 0.6 1.4 0.5 1.4 1 3.7 1 3.7l-0.5-0.2c0 0-1.6-0.5-2.3-0.5-0.8-0.1-5.3-1.1-5.3-1.1 0 0-0.5-1.6-0.8-2.1-0.3-0.5-1-1.9-1-1.9zm16.5 4.2c0.9 0.3 2.4 0.8 2.4 0.8 0 0 0.4 1.2 0.5 2.1 0 0.6 0.1 2.2 0.1 2.2 0 0-0.5-0.3-1-0.4-0.4-0.2-4.8-1.5-4.8-1.5 0 0 0-1.2-0.2-1.9-0.2-1.1-0.8-2.6-0.8-2.6 0 0 2.9 0.9 3.8 1.3zm4.8 1.5c0 0 1.2 0.5 1.2 0.5l3.8 1.3c0 0 0.1 0.3 0.1 0.7 0.1 0.6 0.1 1.1 0 1.8-0.1 0.7-0.3 1.2-0.3 1.2l-0.6-0.3c0 0-1.7-0.6-2.2-0.7-0.4 0-1.7-0.5-1.7-0.5 0 0 0.2-0.7 0.2-1.2 0.2-1.1-0.5-2.8-0.5-2.8zm7.7 2.7q0 0 0 0zm0 0c0 0 1.5 0.5 1.5 0.5 0 0 0.7 0.1 1.7 0.5 0.9 0.4 1.3 0.3 1.3 0.3 0 0 0.3 1.3 0.3 2.2 0 0.4-0.1 1.1-0.1 1.1 0 0-0.6-0.2-1.3-0.3-0.7-0.2-3.5-1-3.5-1 0 0 0.2-0.7 0.2-1.2 0-0.3 0-0.5 0-0.8 0-0.5-0.1-1.3-0.1-1.3zm9.7 2.4c0.8 0.1 2.6 0.6 2.6 0.6 0 0 0 1.2 0.1 1.7 0.1 0.5 0 1.8 0 1.8 0 0-1.5-0.3-2-0.5-0.4-0.1-2.9-0.7-2.9-0.7 0 0 0.2-1 0.2-1.6 0-0.7-0.3-1.7-0.3-1.7 0 0 1.5 0.3 2.3 0.4zm4.9 1.1c0 0 2 0.5 2.6 0.5 0.7 0 2.5 0.3 2.5 0.3 0 0 0 0.7 0 1.2 0 0.5 0.2 1 0.2 1.4 0 0.3-0.1 0.6-0.3 0.6-0.2 0-1.1-0.1-1.7-0.2-0.7 0-3.3-0.6-3.3-0.6 0 0 0-0.2 0-0.3 0-0.2 0.1-0.7 0-1.2 0-0.4 0-1.3 0-1.3 0 0 0-0.4 0-0.4zm9.7 1.1c0.5 0 2.1-0.1 2.2 0.1 0.2 0.2 0.4 2.3 0.4 2.3 0 0-0.4 0.1-0.7 0.1-0.3 0.1-0.9 0.2-1.9 0.2-1 0-2.4 0.1-2.4 0.1l0.1-0.3v-1.1c0-0.2-0.2-1.5-0.2-1.5 0 0 1.9 0.2 2.5 0.1zm6.1-0.1c0.6-0.1 1.7-0.6 1.9-0.5 0.3 0.1 0.6 0.4 0.8 0.8 0.1 0.4 0.1 1.1 0.1 1.1l-4 0.9c0 0-0.2-0.7-0.3-1.1-0.1-0.4-0.3-1-0.3-1 0 0 1.2-0.1 1.8-0.2zm6.4-2.9c0.3-0.3 0.3-0.2 0.7-0.1 0.4 0.2 0.7 0.6 1.2 1.1 0.5 0.4-1.3 1.5-1.3 1.5l-1.8 0.8c0 0-0.1-0.6-0.3-0.9-0.3-0.5-1.1-1-1.1-1 0 0 2.2-1.1 2.6-1.4zm2.8-3.3c0.4-0.4 0.3-1.2 0.6-1.4 0.3-0.3 0.9-0.1 1.3 0 0.3 0.1 0.2 1.1 0.2 1.6 0 0.4-0.3 0.8-0.6 1.3-0.3 0.4-0.9 0.9-0.9 0.9l-0.6-0.5-1-0.4c0 0 0.7-1.1 1-1.5zm-119.3 13c0 0 3.1-0.2 3.8-0.2 0.7 0 3.4 0 3.9 0.1 0.4 0.1 1.7 0.2 2.1 0.3 0.3 0.1 1 0.2 1 0.2 0 0 0.3 0.4 0.8 1.1 0.5 0.7 1.2 1.6 1.6 2.3 0.5 0.8 1.1 1.5 1.2 1.9 0.1 0.3 0.3 1 0.5 1.4 0.1 0.3 0.6 1.6 0.6 1.6 0 0-5.1-0.1-5.7-0.1-0.6-0.1-1.6 0-1.6 0 0 0-1.1-1.5-1.3-2-0.2-0.4-2.4-3-3.2-3.6-0.8-0.6-2.3-1.9-2.3-1.9 0 0-1.4-1.1-1.4-1.1zm13.5 0.1c0 0 0.7 0 1.1 0 0.4 0.1 2.3 0.2 2.7 0.2 0.4 0.1 4.3 0.6 4.3 0.6 0 0 0.3 0.5 0.4 0.6 0.1 0.2 1.3 1.7 1.4 1.9 0.1 0.2 0.9 1.5 1.1 2.2 0.2 0.8 1.5 4.4 1.5 4.4l-1.3-0.2c0 0-1.1 0-1.8-0.1-0.6-0.1-4.1-0.8-4.1-0.8l-0.4-0.3c0 0-0.1-0.6-0.2-0.7-0.1-0.2-0.5-1.1-0.7-1.6-0.3-0.5-1.2-1.8-1.5-2.1-0.2-0.4-2.2-3.8-2.2-3.8zm10.8 1.1q0 0 0.9 0.1c0.6 0.1 3.7 0.8 4.1 0.9 0.3 0.1 3.5 1 3.5 1 0 0 0.1 0.2 0.2 0.4 0.1 0.2 0.4 0.9 0.6 1 0.2 0.2 0.8 1.6 1.2 2.1 0.3 0.5 1.4 3.2 1.6 3.6 0.2 0.5 0.6 2.5 0.6 2.5l-0.7-0.2c0 0-1.1-0.4-1.3-0.4-0.1-0.1-2.1-0.7-2.8-0.7-0.6 0-3.7-1-3.7-1l-0.1-0.4c0 0-0.1-0.8-0.3-1.2-0.2-0.4-0.5-1-0.7-1.5-0.2-0.4-0.8-1.5-1-2.1-0.1-0.6-1.9-3.6-1.9-3.6 0 0-0.2-0.5-0.2-0.5zm12.3 3.3q-0.1 0-0.1 0 0.1-0.1 0.1 0zm3.5 1.3c0.4 0.1 2.1 0.9 2.4 1.1 0.3 0.1 1.7 1.1 1.7 1.1l1 0.9c0 0 0.5 0.7 0.7 1.2 0.2 0.4 0.6 1.7 0.7 2.1 0.1 0.3 0.2 1.4 0.2 2v1.7l-0.2 0.7c0 0-2.7-1.3-3.6-1.5-0.8-0.3-1.7-0.6-1.9-0.7-0.2-0.2-1.8-1-1.8-1 0 0-0.2-2.2-0.5-3-0.3-0.7-0.4-1.6-0.6-2.1-0.2-0.5-0.4-1.2-0.7-1.7-0.3-0.4-1-1.6-1-1.6 0 0 0.1-0.3 0.1-0.5 0.5 0.3 3.1 1.2 3.5 1.3zm7.8 3.6l0.7 0.4c0 0 1.1 0.7 1.2 0.8 0.2 0.2 1.6 0.9 2.1 1.3 0.4 0.4 3.8 2.4 3.8 2.4 0 0 0 0.7 0 0.9 0.1 0.1 0.2 1 0.2 1.4 0 0.5 0.1 2 0.1 2.6 0 0.6-0.1 2.6-0.1 2.6l-0.5-0.2-0.8-0.5c0 0-1.3-0.7-1.6-0.9-0.4-0.2-3.7-2.4-3.7-2.4l0.1-0.3c0 0 0.2-0.9 0.2-1 0-0.2-0.1-0.6-0.1-1.2 0-0.6-0.4-1.6-0.5-2.5-0.1-0.8-0.9-2.8-0.9-2.8zm10.5 6.4c0 0 3.4 1.5 3.7 1.9 0.2 0.3 1.6 1.2 1.8 1.5 0.2 0.3 0.6 1 0.7 1.2 0.1 0.1 0.3 0.8 0.2 1.3 0 0.5-0.1 1.3-0.2 1.6 0 0.3-0.3 1.5-0.3 1.5l-0.2 1.1c0 0-3.6-1.7-4.3-2.2-0.6-0.5-1.2-0.9-1.2-0.9 0 0 0.4-3.3 0.2-4.2-0.2-1-0.2-1.7-0.2-1.7zm8.6 5l0.5 0.2c0 0 1.2 0.8 1.4 0.8 0.2 0.1 1 0.9 2 1.5 0.9 0.6 1.9 1.5 1.9 1.8 0 0.2-0.1 0.8-0.1 1.2 0 0.3-0.2 1.3-0.3 2.2-0.1 0.9-0.3 2.1-0.3 2.1l-1-0.6c0 0-1.2-0.6-1.5-0.9-0.4-0.3-2.9-2-2.9-2l0.2-1c0 0 0.3-1 0.3-1.6 0.1-0.7 0.1-1.1 0.1-1.5 0-0.5-0.2-1.8-0.2-1.8 0 0-0.1-0.4-0.1-0.4zm8.1 5.3l0.7 0.3c0 0 0.6 0.4 0.8 0.6 0.2 0.1 1.2 0.7 1.7 1.2 0.5 0.4 1.2 1.2 1.2 1.2 0 0 0.1 0.5 0.1 0.7 0 0.2 0 0.9-0.1 1.8-0.1 0.9-0.8 2.5-0.8 2.5l-0.9-0.6c0 0-1-0.4-1.4-0.7-0.3-0.3-2.3-1.3-2.3-1.3l0.3-0.8c0 0 0.3-0.5 0.4-0.9 0.1-0.5 0.1-0.9 0.2-1.3 0.1-0.5 0.1-2.3 0.1-2.3 0 0 0-0.4 0-0.4zm6.6 4l0.6 0.4 1 0.6c0 0 1.2 0.6 1.7 0.9 0.5 0.2 1.3 0.8 1.3 0.8 0 0 0.2 0.4 0.4 0.6 0.2 0.2 0.4 1.1 0.4 1.3 0 0.2 0 0.9 0 1.4 0 0.5-0.3 1.8-0.3 1.8l-0.3-0.2c0 0-0.9-0.3-1.1-0.3-0.2-0.1-4.1-2-4.1-2l0.2-0.3c0 0 0.2-0.5 0.2-0.8 0.1-0.3 0.1-1.2 0.2-1.9 0-0.6-0.1-1.9-0.1-1.9 0 0-0.1-0.4-0.1-0.4zm7.5 3.8l1.5 0.6c0 0 1.5 0.5 2 0.8 0.5 0.2 1.4 0.7 1.4 0.7 0 0 0.1 0.4 0.1 0.6 0 0.1 0 0.6 0 0.9q0 0.4-0.1 1.5c0 0.8-0.3 1.2-0.3 1.2 0 0-0.6-0.2-0.8-0.2-0.2 0-4.1-1.5-4.1-1.5 0 0 0.3-0.6 0.4-0.8 0-0.2 0-0.4 0-1 0.1-0.6 0.1-0.9 0.1-1.4 0-0.5-0.1-1.1-0.1-1.1 0 0-0.1-0.3-0.1-0.3zm7 2.9l0.9 0.2c0 0 2.2 0.8 3.1 1.1 0.9 0.3 0.9 0.6 0.9 0.6v0.5c0 0 0 0.8 0 1.3-0.1 0.5-0.4 1.6-0.4 1.6 0 0-0.4-0.1-0.8-0.1-0.3 0-3.8-1.4-3.8-1.4l0.1-0.3c0 0 0.1-0.9 0.1-1.1 0-0.2 0.1-0.5 0.1-0.9 0.1-0.5 0.1-1.1 0.1-1.1 0 0-0.3-0.4-0.3-0.4zm7.8 2.1c0 0 0.7 0.1 1.2 0.3 0.5 0.1 2.1 0.7 2.1 0.7v0.3c0 0 0.1 1.1 0.1 1.7-0.1 0.6-0.3 1-0.3 1 0 0-0.8-0.2-1-0.2-0.2-0.1-3.2-0.5-3.2-0.5l0.2-0.5c0 0 0-0.8-0.1-1.4 0-0.7 0.1-1.3 0.1-1.3 0 0 0.9-0.1 0.9-0.1zm5.7 1.1l1 0.1 1.9-0.1 0.5 0.3c0 0 0.2 0.8 0.3 1.5 0 0.7-0.2 1-0.2 1 0 0-1.1 0.1-1.8 0.3-0.6 0.1-1.7 0-1.7 0l0.2-0.7v-1.2c0-0.5-0.2-0.8-0.2-0.8 0 0 0-0.4 0-0.4zm5.8-0.1c0 0 1.3-0.6 1.7-0.6 0.4-0.1 1-0.2 1-0.2 0 0 0.5 0.3 0.6 0.6 0.1 0.3 0.3 0.8 0.3 1.2 0 0.3-0.1 0.7-0.1 0.7 0 0-0.5 0.4-1.1 0.6-0.7 0.2-2.1 0.3-2.1 0.3 0 0 0-0.4-0.1-1 0-0.5-0.2-1.6-0.2-1.6zm5.7-1.9c0 0 0.9-0.3 1.1-0.5 0.3-0.1 0.6-0.2 1.2-0.2 0.6-0.1 0.7 0.1 1 0.1 0.2 0 0.4 0.5 0.5 1.1 0 0.7-0.6 0.7-0.6 0.7 0 0-0.7 0.5-0.9 0.7-0.2 0.1-0.7 0.3-1.2 0.5-0.4 0.1-1.1 0.3-1.1 0.3 0 0-0.3-0.8-0.3-0.9 0-0.2-0.3-1.4-0.3-1.4zm4.6-3.5l1.1-1.3c0 0 0.8-0.3 1-0.1 0.2 0.2 0.5 0.5 0.5 0.8 0 0.3 0.3 0 0 0.7-0.4 0.7-0.7 1.1-0.7 1.1l-0.7 0.6c0 0-0.2-0.2-0.6-0.5-0.3-0.3-0.9-0.8-0.9-0.8zm-219.6 202.5c0 0 2-1.8 3.4-2.6 1.4-0.7 3.8-2.1 4.7-2.5 0.8-0.4 2-1.1 2.2-1.3 0.2-0.2 0.4-0.5 0.4-0.5l1.8 1.6c0 0-0.4 0.9-1.1 1.3-0.7 0.5-2.2 1.4-3.2 2.1-0.9 0.6-2.6 1.5-3 1.8-0.5 0.4-0.8 0.6-0.8 0.6 0 0-0.1-0.1-1.1-0.1-1 0-1.2 0.1-2.2 0-1-0.2-1.1-0.4-1.1-0.4zm15.5-4.9c0.3 0 1.2 0 2.1 0 1-0.1 3.2-0.1 4.6-0.2 1.3-0.1 0.9 0.3 0.9 0.3 0 0 0 0.2-0.3 0.6-0.3 0.4-1.2 1.1-1.5 1.4-0.3 0.4-1 1.5-1.6 2.2-0.6 0.6-3.9 2.4-5 2.8-1 0.4-5.5 0.6-6.1 0.6-0.6 0-0.7-0.1-0.7-0.1 0 0 0.8-0.9 1-1.4 0.2-0.4 2.8-2.9 3.3-3.4 0.6-0.5 2.8-2.6 2.8-2.6 0 0 0.2-0.2 0.5-0.2zm67.3 1.3c0 0 0.6 0.5 0.7 0.7 0.2 0.1 0.7 0.5 0.7 0.5 0 0-0.7 0.5-1 0.7-0.3 0.2-3.3 3.6-3.9 4.1-0.7 0.5-3.2 1.6-4 1.8-0.8 0.2-2.6 0.1-2.6 0.1 0 0 0.7-0.6 0.9-0.7 0.3-0.2 1.5-1.1 2.5-1.7 1-0.6 2.1-1.6 2.8-2.2 0.8-0.6 3.6-3.2 3.6-3.2 0 0 0.3-0.1 0.3-0.1zm5 1.6c0.4-0.1 0.5-0.1 1.3-0.1 0.8-0.1 1.5-0.4 2.2-0.4 0.7-0.1 1.9-0.9 1.9-0.9 0 0 0.5 1.1 0.6 1.6 0.1 0.6-0.5 3.2-0.5 3.2 0 0-0.4 0.3-1.1 0.7-0.7 0.4-2.6 1.1-3.5 1.5-0.9 0.4-4.4 1-5.8 1.2-1.5 0.2-2.7 0.2-2.7 0.2 0 0 0.1-0.3 0.3-0.5 0.2-0.2 1.7-1.7 2.3-2.2 0.6-0.5 2.4-2.4 2.8-3 0.4-0.6 1.6-1.1 1.6-1.1 0 0 0.3-0.1 0.6-0.2zm51.2-4.3c-0.1 0.5-0.5 1-1 1.7-0.5 0.7-6.4 4.9-7 5.3-0.7 0.4-3.9 0.3-3.9 0.3l0.4-0.4c0.2-0.1 1.4-0.8 2.3-1.5 0.9-0.7 4.2-2.8 5.1-3.4 0.8-0.7 4.1-3.1 4.1-3.1 0 0 0.2 0.5 0 1.1zm2.7 1.4c0.2-0.2 0.6-0.2 1-0.2 0.4-0.1 1.7 0.3 2.7 0.5 1 0.1 2.2-0.1 2.8-0.3 0.7-0.3 0.9-0.2 0.9-0.2 0 0-0.1 0.9-0.2 1.4-0.1 0.5-1.4 2.9-2 3.7-0.6 0.7-3.7 2.3-4.8 2.8-1.1 0.4-4.9 0.1-5.5 0-0.5 0-1.3-0.5-1.5-0.7-0.2-0.2 0-0.3 0-0.3 0 0 0.4-0.6 0.5-0.7 0.1-0.1 1.2-1.3 2-2.4 0.9-1.2 3.5-3.1 3.5-3.1 0 0 0.4-0.4 0.6-0.5zm75.3-0.7c0 0-0.6 0.7-0.7 1-0.1 0.4-3.2 3.3-3.9 4.1-0.7 0.8-1.9 1.7-2.5 2-0.7 0.3-1.2 0.1-2.1-0.3-0.9-0.3-0.7-0.6-0.7-0.6 0 0 0.4-0.4 0.9-0.7 0.4-0.4 8.2-6.6 8.2-6.6zm-4.5 9.2c0 0 8.6-8.4 9.3-8.6 0.6-0.2 1.2-0.6 1.9-0.6 0.6-0.1 1.3-0.1 1.9-0.4 0.5-0.3 1.4-0.4 1.4-0.4 0 0 0.4 0.5 0.5 1.3 0.1 0.8-0.1 2.5-0.3 3.2-0.1 0.7-1.3 2.6-3.1 3.3-1.7 0.6-4.7 2.1-6.1 2.1-1.5 0.1-2.7 0.3-3.3 0.3-0.7 0-2.2-0.2-2.2-0.2z"/>
					</g>
				</g>
			</g>
		</g>
	</g>
</svg>