<svg version="1.2" baseProfile="tiny-ps" xmlns="http://www.w3.org/2000/svg" viewBox="0 0 630 420" width="900" height="600"><title></title><style>tspan { white-space:pre }.shp0 { fill: #007a3d } .shp1 { fill: #ffffff } .shp2 { fill: #000000 } .shp3 { fill: #ce1126 } </style><path class="shp0" d="M0 0L840 0L840 420L0 420L0 0Z" /><path class="shp1" d="M0 0L840 0L840 280L0 280L0 0Z" /><path class="shp2" d="M0 0L840 0L840 140L0 140L0 0Z" /><path class="shp3" d="M0 0L0 420L280 210L0 0Z" /><path class="shp1" d="M93.89 180L100.4 196.49L117.34 191.3L108.51 206.66L123.14 216.68L105.61 219.35L106.9 237.03L93.89 225L80.87 237.03L82.16 219.35L64.64 216.68L79.26 206.66L70.43 191.29L87.38 196.48L93.89 180L93.89 180Z" /></svg>