<svg version="1.2" xmlns="http://www.w3.org/2000/svg" viewBox="0 0 900 600" width="900" height="600">
	<title></title>
	<style>
		.s0 { fill: #00247d } 
		.s1 { fill: none;stroke: #ffffff;stroke-width: 52 } 
		.s2 { fill: none;stroke: #ffffff;stroke-width: 86.7 } 
		.s3 { fill: none;stroke: #cf142b;stroke-width: 52 } 
		.s4 { fill: #c8102e;stroke: #000000;stroke-width: 0 } 
		.s5 { fill: #fedd00;stroke: #000000;stroke-width: 1 } 
		.s6 { fill: #00205b;stroke: #000000;stroke-width: 0 } 
		.s7 { fill: none;stroke: #000000;stroke-width: 1 } 
		.s8 { fill: none;stroke: #000000;stroke-linecap: round;stroke-width: 1 } 
		.s9 { fill: none;stroke: #000000;stroke-width: 1.7 } 
		.s10 { fill: none;stroke: #000000;stroke-linecap: round;stroke-width: .7 } 
		.s11 { fill: #000000;stroke: #000000;stroke-width: 1.7 } 
		.s12 { fill: #ffffff;stroke: #000000;stroke-width: 1 } 
		.s13 { fill: none;stroke: #000000;stroke-linecap: round;stroke-linejoin: round;stroke-width: .8 } 
	</style>
	<g id="Layer">
		<path id="Layer" class="s0" d="m0 0h450v300h-450z"/>
		<g id="Layer">
			<path id="Layer" class="s1" d="m0 0l450 300m0-300l-450 300"/>
			<path id="Layer" class="s2" d="m225 0v300m-225-150h450"/>
			<path id="Layer" class="s3" d="m225 0v300m-225-150h450"/>
		</g>
		<path id="Layer" class="s0" d="m0 300h900v300h-900zm450-300h450v600h-450z"/>
		<g id="g2443">
			<path id="path4241" fill-rule="evenodd" class="s4" d="m776.4 345.2c-184.6 0-50.6-0.9-204.4-0.9l-2.2-10-0.7-168.2h210.6l-0.2 169.8z"/>
			<path id="path5591" fill-rule="evenodd" class="s5" d="m605.9 328.6l-20-10.1 29.9-8.6-20.8-20.2 33.5 1.6-12.2-25.5 25.1 11-0.3-28 21.9 17.8 7.2-24.4 14.8 25 16-21.2 5.5 29.7 21.3-15.2-3.5 30.2 24.9-6.5-15.3 27 28.3 2.8-18.7 14z"/>
			<path id="path5587" fill-rule="evenodd" class="s5" d="m624.8 337.8l-40.5-8 40.5-3.6 1-5.3-34.1-20.5 38.8 9.7 2.8-4.2-27.4-32.9 36.2 22.7 2.8-2-15.1-39.9 26.1 33.8 2.9-1.1-1.6-44.4 14 42.3 3.3-0.2 14-42.9v44l29.2-34.3-15.2 41.2 2.9 2.1 37.8-23.5-29 31.9 3 4.3 42.5-7.6-36.7 19 1.1 4.3 42.3 6.4-39.9 6z"/>
			<ellipse id="path5585" class="s5" cx="674.9" cy="335.1" rx="50.9" ry="50.9"/>
			<path id="path4239" fill-rule="evenodd" class="s6" d="m776.3 349.2c-9.8 23.1-10.4 26.5-24.9 44.9-16.8 22-42.2 39.1-70.5 39.9-27.7 1.4-54.1-11.1-74.9-28.6-21.4-19.5-25.7-33.2-34.2-60.9z"/>
			<path id="path4218" class="s7" d="m779.9 329.7c-1.8 23.7-13.6 45.3-28.1 63.7-16.8 22-42.2 39.1-70.6 39.9-27.6 1.4-54-11.2-74.8-28.6-21.4-19.5-35.1-48.1-36.9-75.9v-162.4h210.5z"/>
			<path id="path5597" fill-rule="evenodd" class="s5" d="m760.3 184.7c-13.8 13.1-46.5 11-46.5 11-8.2 15.5-19 14.6-19 14.6 6.5 0.2 15.2-7.5 15.2-7.5l22.9 1.9h26.3c3.2 4.8-11.1 6.8-11.1 6.8h-11.7c-0.3 5.5-7.3 7.2-7.3 7.2h-17.8c-19.2 16.9-40.9 14.1-40.9 14.1-20.4-0.5-35.8-19-35.8-19-5.1-6-6.9-3.2-17.7-5.4-15.1-3.1-1.2-7.1-1.2-7.1 9.7-1.5 12.3 0.6 15.9-1.3 4.6-5.5 12.8-5.2 18.9-2.6 7.8 4.3 17.8 6.3 25.9 1.6 10.5-8.3 25.4-22.7 32.1-24.4 8.9-2.3 36-1.7 67.4 0 0 0-0.4 10.9-15.6 10.1z"/>
			<path id="path5606" class="s8" d="m681.9 201.2c0 0 21-16.2 31.6-19.8 13.4-4.6 35.4-2.9 50.3-2.5"/>
			<path id="path5608" class="s7" d="m712.4 218.5c0 0-1.8-8.4 23.5-5.5"/>
			<path id="path5610" class="s9" d="m623.9 180.2c0 0 41 1.8 44 21.1"/>
			<path id="path5612" fill-rule="evenodd" class="s5" d="m613.5 187.7c-11-1.4-22.6-3.1-32.3-9.1-1.7-1.1-4.5-3.5-1.5-3.7 27.4 0.8 43.3 0.6 64.9 2 11.4 0.9 23.5 4.7 30.5 14.2 1.5 2.6 5 6.2 0.2 8.3-2.5 1.2-7.2 3.6-8.5-0.5-2.6-6.1-7-9.4-12.8-8.6-6.4 0.7-12.6 0.5-19.4 0-8.1-0.6-7-0.7-21.1-2.6z"/>
			<path id="path5827" class="s10" d="m609.6 204.8c0 0 20.2 0 21-0.3"/>
			<path id="path5829" class="s11" d="m642.7 203c-0.5 0.4-1.5 0.6-2.5 0.5-0.9-0.1-1.7-0.4-1.7-0.9 0-0.4 0.6-0.8 1.6-0.9 1-0.1 2 0.1 2.5 0.4l-1.9 0.5z"/>
			<path id="path5846" fill-rule="evenodd" class="s12" d="m774.2 354.7c-12.1-6.1-25.8-1.2-38 2.2-10.9 2.1-20.7-4.5-31.1-5.7-11.7 0-22.4 9.3-34.3 5.2-9.9-1-19.5-7.7-29.7-3.8-11 3-23.4 6.5-34.3 0.9-10.3-3.3-21.3-1.5-31.5 1.2-2-3.6-2.7-10-4-13.4-0.6-1.4 3.9-1.5 6.8-1.2 12.1-2.1 25.3-3.1 36.7 2.5 9.2 2.4 18.4-1 27-3.7 7.8-1.9 16.2-1.1 23.3 2.8 7.9 1.8 16.7 3 24.3-0.9 10.3-3.1 22.3-4.5 32.1 0.8 9.5 3.1 19.3 0.4 28.8-1.1 8.8-1.1 18.9-1.1 27.6 1.1 0 0-1.4 7.7-3.7 13.1z"/>
			<path id="path5873" fill-rule="evenodd" class="s12" d="m759.2 382.9c-8.4 0.1-17 2.9-25 5.1-10.8 2.1-20.6-4.4-31-5.6-11.7 0-22.5 9.2-34.3 5.1-9.9-1-19.6-7.6-29.7-3.7-11.1 2.9-23.5 6.4-34.3 0.9-5.4-1.8-11.1-2.1-16.7-1.6-6.9-12.1 0.2 0-7.1-12.6 10.7-1.5 21.9-1.6 31.8 3.3 9.2 2.4 18.3-1.1 27-3.7 7.8-1.9 16.2-1.1 23.2 2.7 8 1.9 16.8 3.1 24.3-0.8 10.4-3.2 22.3-4.6 32.2 0.8 9.5 3 19.3 0.3 28.7-1.2 6.1-0.7 12.3-1 18.4-0.4-7.4 11.8-0.1 0.1-7.5 11.7z"/>
			<path id="path5875" fill-rule="evenodd" class="s12" d="m725.1 418.2c-7.4-1.2-14.5-4.8-21.9-5.6-11.7 0-22.5 9.3-34.3 5.2-9.9-1.1-19.6-7.7-29.7-3.8-4.8 1.2-10.4 2.9-15.4 3.6-0.7-0.2-15.5-9.3-21.5-17 3.7 0.6 7.2 1.7 10.6 3.4 9.2 2.4 18.3-1.1 27-3.7 7.8-1.9 16.2-1.1 23.2 2.7 8 1.9 16.8 3.1 24.3-0.8 10.4-3.2 22.3-4.6 32.2 0.8 8.2 2.6 15.3 1.1 23.5-0.4-3.1 3.5-5.7 8.2-18 15.6z"/>
			<path id="path2186" class="s13" d="m662.4 192.7c-5.2-4.8-12.9-11.4-38.2-13.7"/>
		</g>
	</g>
</svg>