<svg version="1.2" xmlns="http://www.w3.org/2000/svg" viewBox="0 0 900 600" width="900" height="600">
	<title></title>
	<style>
		.s0 { fill: #dd0000 } 
		.s1 { fill: #ffffff } 
		.s2 { fill: #003893 } 
		.s3 { fill: #d0a650 } 
	</style>
	<path id="Layer" class="s0" d="m0 0h900v600h-900z"/>
	<path id="Layer" class="s1" d="m0 0h900v400h-900z"/>
	<path id="Layer" class="s2" d="m0 0h900v200h-900z"/>
	<g id="g6">
		<path id="rect4" class="s2" d="m0 0h300v600h-300z"/>
		<path id="Layer" fill-rule="evenodd" class="s3" d="m150 440.3c0 0-21-21.8-17-25.3 3.9-3.4 8.7-10.3 8.6-17-0.3-5-3.7-7.9-5.9-1.8-3.2 6.7-9.9 17.8-19.1 11.3-4.1-3-4-7.3 1.5-6.8 6.9-0.5 11.1-4.3 14.1-13.9 0.6-5.4-1.6-5.2-4.7-1.8-4 4.6-11.9 11.4-20.6 7.8-4.9-2.1-6.2-6.3 1.1-7.3 6.9 0.1 12.6-4.4 18.2-11.3 3.1-3.7-1.4-7.6-4.2-4.3-2.4 2.1-5.8 5.9-8.8 6.4-3.4 0.7-7.6 0.4-12.2-2.1-5-4.2-3.4-7.2 2.7-7.9 4.7 0.2 7.3 2 13.4-2 10.9-7.4 19.6-17.3 21-29.2 0.9-7.8-3.3-10.2-6.8-9.3-9.5 2.5-15.8 20.2-22.3 30-2.2 2.8-4.2 2.8-5.6 2-2.6-2.3-4.7-4.1-7.3-6.7 0 0-19.4 3.5-29.9 6.9l11.7 4.2c4.5-2.4 9.8 0.2 9.8 4.5 4.2 2.9 3.9 6.3 2.1 9.5-0.6-2.2-1.1-5.2-4.4-5.6-4.7 2-10.2-0.8-10.2-4.5l-13.9-5.5-13.9 7.9c0 5.4-5.1 7.1-10.4 5.6-2.5 1.6-4.1 4.2-4.9 7.1-1.6-4.1-1.2-7 1.2-9.1-1.4-5.3 6.1-10.4 11.9-7l10-5.8-17.2-0.5c-2 3.6-9.2 3.8-11.3 0-1.8-0.5-3.3-0.8-6.8 1.8 1.1-4.2 3.2-6 6.4-6 2.5-4.3 11.4-4.3 12.7 0.6l17.9 0.5-10.7-7.6c-3.9 2.4-9.5-0.3-10.6-4.5-1.6-1.9-3.5-2.8-7.4-1.5 2-3.5 4.8-4.6 9.8-2.2 4.6-3.5 10.7 0.8 9.8 4.3l14.1 9.6c10.3-3.1 28.9-7.8 28.9-7.8-2.2-2.4-4.5-4.5-6.7-6.9-0.8-1.4 0.4-3 2.1-3.3 16.6-3.4 26.1-10.1 31.9-27.1 2.4-7.2-2.8-9.3-4.6-4.9-2.5 6-5.2 12.6-12.7 17.8-2.5 1.8-10.2 0.3-5.7-4 4.7-3.9 6.7-5.5 9-14.9 0-4.8-4.8-6.9-7.5-2.3-2.9 9.3-3.2 13.3-8.4 19.4-4 4.5-9.2 7.6-11.7 7.5-4.7 0-9.3-5-3.1-8.7 9-3.6 12.4-8.5 13.7-13.3 1.5-8.2-0.1-12.2-5.1-8.2-7.1 8.1-20.5 23-27.6 30-7.9 6-17 6.2-24.2 0.1-4.1-4.8-2.7-9.9 3.8-8.8 14.6 1.2 25.7-6 37.8-25.7 2.4-4.4 3-10.7-2.2-6-6.1 8.2-14.9 15.1-23.1 18.1-8.2 3-15 1.4-17.6-1.2-3.2-3.2-2.4-11.2 3.1-9.3 4.5 1.6 10.9 2 17.5-0.6 6.7-2.5 13.6-8.1 20.9-17.6 2.5-5.4 1.7-9.9-3.4-7.1-12 10.1-27.5 18.4-35.4 13.4-5.8-3.6-5.9-12.9 1.5-12.3 14.9 2 20.5-1.3 34.8-13.9 3.2-2.4 3-8.6-2.2-4.6-12 7.7-28.4 10.7-34.8 6.7-5.8-3.6-5-14.7 4.8-10.8 7.8 4.8 16.4 4.6 33.7-7.7 4.4-3.7 1.1-8.4-2.5-6.3-13.9 7.9-34.1 11.3-39.4-4.8-2-6.2 1.7-9.8 7.1-5.5 12 11 25.5 5.6 33.1 0 2.1-1.2 6.1-7.7-0.9-6.5-18.1 4.1-36 0.5-39.2-12.3-1.9-4.2 1.8-11.5 8.4-5.4 8.7 8.6 17.9 8.9 29.5 8.9 5.9-1.3 5.9-7.8 1-8.7-9.1 0.2-18.2-3.8-25.4-7.9-7-4-12.9-9.7-14.8-17.6-1.1-7.1 5.7-14.6 9.8-7.1 6.1 11 19.5 21.3 34.4 23.2 0.7-1.3 2.7-4.7 5.1-3.7 4.4 1.7 9.6 3.9 15 6.5 11.5 5.5 16.4 8.1 15 17.6-1.5 9.9 6.2 16.2 12.5 14.5 5.5-1.5 8.5-6.5 7.5-15.1-0.8-6.9-7.7-15.2-15.4-19.5-5.1-2.9-12.7-4.4-21.8-6.4-5.6-1.1-8.4-3.3-8.7-5.6 0 0 3.8 2.8 9.9 2.4 2.9-0.2 4.8-1.5 5.5-2.8-2.1-0.4-6 0.1-9.4 0.1-4.6 0-15.2-1.1-18.1-7.5-0.8-4.3 2-5 4.6-2.3 2.8 2.9 3.9 5.6 9.5 6.6 3.4 0.6 6.9 1.3 11.3 0.2-2.5-2.9-6.5-5.9-9.8-5.4-1.1 0.2-2.6 1.2-3.7 3.1-0.8-4.7 0.5-10 13-7.8-0.2-3.5 7.2-5 11.6-5 2.6 0.1 7.8 1.6 11.5 3.4 5.9 1.8 11.8 3.2 18.7 3.7-4 3.4-4.8 3.6-8.8 6.5 6.1 2.2 10.8 6.9 12.9 10 0 0-7.1-0.2-8.9 0.6 7.4 2.1 10.7 3.4 14.6 7.4-1.3 0.3-3.4 0.7-4.3 1-0.9 0.3-0.6 0.9 0.1 1.5 1.6 1.2 8.2 8.8 10.1 10.7 1.9-1.9 8.5-9.5 10.1-10.7 0.7-0.6 1-1.2 0.1-1.5-0.9-0.3-3-0.7-4.3-1 3.9-4 7.2-5.3 14.6-7.4-1.8-0.8-8.9-0.6-8.9-0.6 2.1-3.1 6.8-7.8 12.9-10-4-2.9-4.8-3.1-8.8-6.5 6.9-0.5 12.8-1.9 18.7-3.7 3.7-1.8 8.9-3.3 11.5-3.4 4.4 0 11.8 1.5 11.6 5 12.5-2.2 13.8 3.1 13.1 7.8-1.2-1.9-2.7-2.9-3.8-3.1-3.3-0.5-7.3 2.5-9.8 5.4 4.4 1.1 7.9 0.4 11.3-0.2 5.6-1 6.7-3.7 9.5-6.6 2.6-2.7 5.4-2 4.6 2.3-2.9 6.4-13.5 7.5-18.1 7.5-3.4 0-7.3-0.5-9.4-0.1 0.7 1.3 2.7 2.6 5.5 2.8 6.1 0.4 9.9-2.4 9.9-2.4-0.3 2.3-3.1 4.5-8.7 5.6-9.1 2-16.7 3.5-21.8 6.4-7.7 4.3-14.6 12.6-15.4 19.5-1 8.6 2 13.6 7.5 15.1 6.3 1.7 14-4.6 12.5-14.5-1.4-9.5 3.5-12.1 15-17.6 5.4-2.6 10.6-4.8 15-6.5 2.4-1 4.4 2.4 5.1 3.7 14.9-1.9 28.3-12.2 34.4-23.2 4.1-7.5 10.9 0 9.8 7.1-1.9 7.9-7.8 13.6-14.8 17.6-7.2 4.1-16.3 8.1-25.4 7.9-4.9 0.9-4.9 7.4 1 8.7 11.6 0 20.8-0.3 29.5-8.9 6.6-6.1 10.3 1.2 8.4 5.4-3.2 12.8-21.1 16.4-39.2 12.3-7-1.2-3 5.3-0.9 6.5 7.6 5.6 21.1 11 33.1 0 5.4-4.3 9.1-0.7 7.1 5.5-5.3 16.1-25.5 12.7-39.4 4.8-3.6-2.1-6.9 2.6-2.5 6.3 17.3 12.3 25.9 12.5 33.7 7.7 9.8-3.9 10.6 7.2 4.8 10.8-6.4 4-22.8 1-34.8-6.7-5.2-4-5.4 2.2-2.2 4.6 14.3 12.6 19.9 15.9 34.8 13.9 7.4-0.6 7.3 8.7 1.5 12.3-7.9 5-23.4-3.3-35.4-13.4-5.1-2.8-5.9 1.7-3.4 7.1 7.3 9.5 14.2 15.1 20.9 17.6 6.6 2.6 13 2.2 17.5 0.6 5.5-1.9 6.3 6.1 3.1 9.3-2.6 2.6-9.4 4.2-17.6 1.2-8.2-3-17-9.9-23.1-18.1-5.2-4.7-4.6 1.6-2.2 6 12.1 19.7 23.2 26.9 37.8 25.7 6.5-1.1 7.9 4 3.8 8.8-7.2 6.1-16.3 5.9-24.2-0.1-7.1-7-20.5-21.9-27.6-30-5-4-6.6 0-5.1 8.2 1.3 4.8 4.7 9.7 13.7 13.3 6.2 3.7 1.6 8.7-3.1 8.7-2.5 0.1-7.7-3-11.7-7.5-5.2-6.1-5.5-10.1-8.4-19.4-2.7-4.6-7.5-2.5-7.5 2.3 2.3 9.4 4.3 11 9 14.9 4.5 4.3-3.2 5.8-5.7 4-7.5-5.2-10.2-11.8-12.7-17.8-1.8-4.4-7-2.3-4.6 4.9 5.8 17 15.3 23.7 31.9 27.1 1.7 0.3 2.9 1.9 2.1 3.3-2.2 2.4-4.5 4.5-6.7 6.9 0 0 18.6 4.7 28.9 7.8l14.1-9.6c-0.9-3.5 5.2-7.8 9.8-4.3 5-2.4 7.8-1.3 9.8 2.2-3.9-1.3-5.8-0.4-7.4 1.5-1.1 4.2-6.7 6.9-10.6 4.5l-10.7 7.6 17.9-0.5c1.3-4.9 10.2-4.9 12.7-0.6 3.2 0 5.3 1.8 6.4 6-3.5-2.6-5-2.3-6.8-1.8-2.1 3.8-9.3 3.6-11.3 0l-17.2 0.5 10 5.8c5.8-3.4 13.3 1.7 11.9 7 2.4 2.1 2.8 5 1.2 9.1-0.8-2.9-2.4-5.5-4.9-7.1-5.3 1.5-10.4-0.2-10.4-5.6l-13.9-7.9-13.9 5.5c0 3.7-5.5 6.5-10.2 4.5-3.3 0.4-3.8 3.4-4.4 5.6-1.8-3.2-2.1-6.6 2.1-9.5 0-4.3 5.3-6.9 9.8-4.5l11.7-4.2c-10.5-3.4-29.9-6.9-29.9-6.9-2.6 2.6-4.7 4.4-7.3 6.7-1.4 0.8-3.4 0.8-5.6-2-6.5-9.8-12.8-27.5-22.3-30-3.4-0.9-7.7 1.5-6.8 9.3 1.4 11.9 10.1 21.8 21 29.2 6.1 4 8.7 2.2 13.4 2 6.1 0.7 7.7 3.7 2.7 7.9-4.6 2.5-8.8 2.8-12.2 2.1-3-0.5-6.4-4.3-8.8-6.4-2.7-3.3-7.3 0.6-4.2 4.3 5.6 6.9 11.3 11.4 18.2 11.3 7.3 1 6 5.2 1.1 7.3-8.7 3.6-16.6-3.2-20.6-7.8-3.1-3.4-5.3-3.6-4.7 1.8 3 9.6 7.2 13.4 14.1 13.9 5.5-0.5 5.6 3.8 1.5 6.8-9.2 6.5-15.9-4.6-19.1-11.3-2.2-6.1-5.6-3.2-5.9 1.8-0.1 6.7 4.7 13.6 8.6 17 4 3.5-17 25.3-17 25.3zm45.2-272.1c-3.3 0-5.3 1.2-5.3 2.5 0 1.5 2 2.6 5.3 2.6 3.2 0 5.3-1.2 5.3-2.7 0-1.3-2.1-2.4-5.3-2.4zm-95.7 2.4c0 1.5 2.1 2.7 5.3 2.7 3.3 0 5.3-1.1 5.3-2.6 0-1.3-2-2.5-5.3-2.5-3.2 0-5.3 1.1-5.3 2.4z"/>
	</g>
</svg>