<svg version="1.2" baseProfile="tiny-ps" xmlns="http://www.w3.org/2000/svg" viewBox="0 0 900 600" width="900" height="600"><title></title><style>tspan { white-space:pre }.shp0 { fill: #ce1126 } .shp1 { fill: #ffffff } </style><path class="shp0" d="M-300 300L-300 0L300 0L900 0L900 300L900 600L300 600L-300 600L-300 300Z" /><g ><path fill-rule="evenodd" class="shp1" d="M864.1 565.99C862.73 565.99 861.35 565.85 859.96 565.58C859.38 565.46 858.31 565.19 856.77 564.76L857.59 562.65C855.29 562.65 852.99 562.37 850.71 561.83C848.42 561.28 846.17 560.4 843.94 559.19C842.01 560.26 840.87 560.89 840.54 561.06C839.64 561.53 838.83 561.77 838.11 561.77L837.2 561.77C836.71 561.77 834.72 561.61 831.22 561.3C830.17 559.07 829.49 557.08 829.17 555.32C828.86 553.58 828.7 550.99 828.7 547.53L837.38 547.53C838.39 549.5 839.24 550.91 839.93 551.75C840.63 552.61 841.83 553.72 843.53 555.09C846.34 552.86 848.32 551.24 849.48 550.22C850.41 549.4 851.5 548.35 852.73 547.06C852.08 546.75 851.65 546.51 851.44 546.36C851.24 546.22 851.15 546.08 851.15 545.95C851.15 545.48 851.55 544.6 852.35 543.31C853.07 542.16 853.71 541.27 854.28 540.64C854.85 540.02 855.9 539.54 857.44 539.21C859.01 538.9 860.99 538.74 863.39 538.74C864.45 538.74 865.18 538.8 865.59 538.92C866 539.05 866.2 539.33 866.2 539.74C866.2 540.5 865.11 542.04 862.92 544.37C861.05 546.36 859.17 548.13 857.3 549.7C855.95 550.93 854.6 552.04 853.26 553.04C852.06 553.94 850.01 555.34 847.1 557.26C848.76 558.13 850.88 558.74 853.46 559.07C855.02 559.27 856.89 559.37 859.06 559.37C859.39 558.66 859.71 558.18 860.02 557.93C860.35 557.68 860.79 557.55 861.34 557.55C862.51 557.55 863.7 557.68 864.92 557.93C866.13 558.18 867.4 558.6 868.72 559.19L868.31 560.42C867.06 560.42 866.23 560.71 865.82 561.3C865.49 561.77 864.92 563.33 864.1 565.99ZM838.61 558.31L840.77 556.9C839.82 556.04 839.13 555.38 838.72 554.91C838.33 554.46 837.73 553.66 836.91 552.51C837.06 553.99 837.23 555.05 837.41 555.67C837.6 556.32 838 557.2 838.61 558.31Z" /><path class="shp1" d="M822.9 520.52C822.28 520.34 821.82 520.11 821.53 519.81C821.31 519.6 821.14 519.27 821 518.82L819.07 512.49C819.77 512.88 820.26 513.22 820.53 513.52C820.78 513.81 821.05 514.32 821.32 515.04C821.67 514.49 822.01 514.09 822.32 513.84C822.61 513.6 822.9 513.49 823.2 513.49C823.45 513.49 823.74 513.56 824.08 513.72C824.39 513.88 824.7 514.08 825.01 514.34C826.71 515.61 827.56 516.87 827.56 518.12C827.56 518.49 827.43 518.78 827.18 518.99C826.95 519.23 826.63 519.35 826.24 519.35C825.93 519.35 825.66 519.3 825.42 519.2C825.21 519.12 824.88 518.95 824.43 518.67C824.92 517.7 825.16 517.03 825.16 516.68C825.16 516.33 825.07 515.98 824.9 515.62C824.78 515.39 824.62 515.18 824.43 514.98C824.17 514.98 823.78 515.45 823.26 516.39C822.73 517.32 822.46 518 822.46 518.41C822.46 518.66 822.61 519.37 822.9 520.52L822.9 520.52ZM841.48 520.58C839.74 520.58 838.15 520.37 836.7 519.96C835.28 519.55 833.35 518.76 830.93 517.59L831.63 515.83C834.13 516.3 836.17 516.53 837.73 516.53C838.92 516.53 840.67 516.44 842.97 516.24C845.28 516.04 847.55 515.8 849.8 515.51C852.06 515.21 854.76 514.74 857.88 514.07C858.98 513.84 859.73 513.72 860.14 513.72C860.75 513.72 861.77 514.02 863.22 514.63C864.68 515.23 866.45 516.08 868.52 517.18L858.15 518.94C854.2 519.58 850.78 520.03 847.89 520.28C845.67 520.48 843.53 520.58 841.48 520.58L841.48 520.58Z" /><path class="shp1" d="M832.95 509.74L832.95 493.62L840.92 493.62L840.92 506.22L860.81 502.68L862.04 500.8C863.2 500.8 864.36 500.98 865.53 501.33C867.01 501.78 868.78 502.54 870.83 503.61L870.13 504.96C870.01 504.96 869.7 504.92 869.19 504.84C868.55 504.84 867.92 505.25 867.32 506.07C866.77 506.8 866.17 507.95 865.5 509.53C864.25 509.36 863.03 509.09 861.84 508.74C860.65 508.41 859.58 508.03 858.65 507.6L859.06 506.54L840.92 509.74L832.95 509.74Z" /><path fill-rule="evenodd" class="shp1" d="M832.95 495.67L832.95 491.84C832.95 491.13 833.1 490.49 833.39 489.9C833.96 488.77 834.99 487.81 836.5 487.03C838.57 485.98 841.4 485.29 844.99 484.98C843.35 483.65 842.19 482.62 841.51 481.87C840.51 480.8 840.01 479.9 840.01 479.18C840.01 478.81 840.07 478.34 840.19 477.77L840.89 474.2C841.2 472.68 841.43 471.74 841.57 471.39C841.7 471.04 841.95 470.86 842.3 470.86C842.83 470.86 844.49 471.53 847.28 472.88C850.09 474.25 851.83 475.23 852.49 475.84C853.02 476.33 853.7 477.2 854.54 478.45C855.05 479.19 855.71 480.24 856.51 481.61L857.42 483.16C857.69 483.11 857.96 483.06 858.24 483.02C858.53 483 858.8 482.99 859.06 482.99C859.8 482.99 860.73 483.15 861.84 483.49C862.97 483.84 864.37 484.45 866.03 485.33L847.75 488.14C844.88 488.59 842.93 489.18 841.92 489.9C841.25 490.37 840.92 491.02 840.92 491.84L840.92 495.67L832.95 495.67ZM849.51 484.28L853.02 483.69C852.73 483.07 852.49 482.58 852.32 482.23C851.75 481.15 851.22 480.29 850.74 479.65C850.35 479.18 849.98 478.79 849.65 478.48C849.22 478.09 848.9 477.89 848.68 477.89C848.41 477.89 848.2 478.23 848.04 478.92C847.88 479.6 847.81 480.27 847.81 480.94C847.81 481.37 847.92 481.82 848.16 482.29C848.41 482.75 848.86 483.42 849.51 484.28Z" /><path class="shp1" d="M822.9 453.54C822.28 453.37 821.82 453.13 821.53 452.84C821.31 452.63 821.14 452.29 821 451.85L819.07 445.52C819.77 445.91 820.26 446.25 820.53 446.54C820.78 446.84 821.05 447.34 821.32 448.07C821.67 447.52 822.01 447.12 822.32 446.87C822.61 446.63 822.9 446.51 823.2 446.51C823.45 446.51 823.74 446.59 824.08 446.75C824.39 446.9 824.7 447.11 825.01 447.36C826.71 448.63 827.56 449.89 827.56 451.14C827.56 451.51 827.43 451.81 827.18 452.02C826.95 452.26 826.63 452.37 826.24 452.37C825.93 452.37 825.66 452.32 825.42 452.23C825.21 452.15 824.88 451.97 824.43 451.7C824.92 450.72 825.16 450.06 825.16 449.71C825.16 449.36 825.07 449 824.9 448.65C824.78 448.42 824.62 448.2 824.43 448.01C824.17 448.01 823.78 448.48 823.26 449.41C822.73 450.35 822.46 451.03 822.46 451.44C822.46 451.69 822.61 452.39 822.9 453.54L822.9 453.54ZM841.48 453.6C839.74 453.6 838.15 453.4 836.7 452.99C835.28 452.58 833.35 451.79 830.93 450.62L831.63 448.86C834.13 449.33 836.17 449.56 837.73 449.56C838.92 449.56 840.67 449.46 842.97 449.27C845.28 449.07 847.55 448.83 849.8 448.54C852.06 448.24 854.76 447.76 857.88 447.1C858.98 446.87 859.73 446.75 860.14 446.75C860.75 446.75 861.77 447.05 863.22 447.66C864.68 448.26 866.45 449.11 868.52 450.21L858.15 451.96C854.2 452.61 850.78 453.06 847.89 453.31C845.67 453.51 843.53 453.6 841.48 453.6L841.48 453.6Z" /><path fill-rule="evenodd" class="shp1" d="M864.1 441.83C862.73 441.83 861.35 441.69 859.96 441.42C859.38 441.3 858.31 441.03 856.77 440.6L857.59 438.49C855.29 438.49 852.99 438.21 850.71 437.67C848.42 437.12 846.17 436.24 843.94 435.03C842.01 436.1 840.87 436.73 840.54 436.9C839.64 437.37 838.83 437.61 838.11 437.61L837.2 437.61C836.71 437.61 834.72 437.45 831.22 437.14C830.17 434.91 829.49 432.92 829.17 431.16C828.86 429.42 828.7 426.83 828.7 423.37L837.38 423.37C838.39 425.34 839.24 426.75 839.93 427.59C840.63 428.45 841.83 429.56 843.53 430.93C846.34 428.7 848.32 427.08 849.48 426.06C850.41 425.24 851.5 424.19 852.73 422.9C852.08 422.59 851.65 422.35 851.44 422.2C851.24 422.06 851.15 421.92 851.15 421.79C851.15 421.32 851.55 420.44 852.35 419.15C853.07 418 853.71 417.11 854.28 416.48C854.85 415.86 855.9 415.38 857.44 415.05C859.01 414.74 860.99 414.58 863.39 414.58C864.45 414.58 865.18 414.64 865.59 414.76C866 414.89 866.2 415.17 866.2 415.58C866.2 416.34 865.11 417.88 862.92 420.21C861.05 422.2 859.17 423.97 857.3 425.54C855.95 426.77 854.6 427.88 853.26 428.88C852.06 429.78 850.01 431.18 847.1 433.1C848.76 433.97 850.88 434.58 853.46 434.91C855.02 435.11 856.89 435.21 859.06 435.21C859.39 434.5 859.71 434.02 860.02 433.77C860.35 433.52 860.79 433.39 861.34 433.39C862.51 433.39 863.7 433.52 864.92 433.77C866.13 434.02 867.4 434.44 868.72 435.03L868.31 436.26C867.06 436.26 866.23 436.55 865.82 437.14C865.49 437.61 864.92 439.17 864.1 441.83ZM838.61 434.15L840.77 432.74C839.82 431.88 839.13 431.22 838.72 430.75C838.33 430.3 837.73 429.5 836.91 428.35C837.06 429.83 837.23 430.89 837.41 431.51C837.6 432.16 838 433.04 838.61 434.15Z" /><path fill-rule="evenodd" class="shp1" d="M839.34 387.39C839.03 387.37 838.69 387.34 838.34 387.3C838.01 387.27 837.68 387.23 837.35 387.19C837.03 387.15 836.78 387.11 836.59 387.07C836.19 386.99 835.68 386.87 835.03 386.69C834.41 386.51 833.78 386.31 833.16 386.07C832.53 385.84 832 385.59 831.55 385.31C831.1 385.04 830.87 384.77 830.87 384.49C830.91 383.63 831.01 382.74 831.17 381.83C831.34 380.93 831.62 380.06 832.01 379.22C832.41 378.4 832.92 377.65 833.57 376.96C834.21 376.3 835.03 375.76 836.03 375.35C835.13 374.92 834.27 374.45 833.45 373.95C832.65 373.46 831.94 372.9 831.31 372.28C830.71 371.65 830.22 370.94 829.85 370.14C829.5 369.34 829.32 368.43 829.32 367.41C829.32 366.4 829.51 365.54 829.88 364.83C830.27 364.15 830.79 363.57 831.46 363.11C832.12 362.66 832.89 362.29 833.77 362.02C834.65 361.77 835.58 361.55 836.56 361.38L836.56 361.32C836.03 361.1 835.51 360.83 835 360.5C834.51 360.19 834.08 359.84 833.68 359.47C833.31 359.12 833.01 358.77 832.78 358.42C832.56 358.09 832.45 357.79 832.45 357.54C832.45 356.93 832.49 356.19 832.57 355.31C832.65 354.43 832.77 353.53 832.92 352.59C833 352.08 833.11 351.6 833.25 351.15C833.38 350.7 833.54 350.3 833.71 349.95C833.91 349.62 834.11 349.35 834.33 349.13C834.54 348.94 834.79 348.84 835.06 348.84C835.43 348.84 835.89 348.94 836.44 349.13C836.99 349.33 837.58 349.58 838.23 349.89C838.87 350.21 839.52 350.55 840.19 350.92C840.87 351.31 841.53 351.68 842.15 352.03C842.56 352.27 843.05 352.71 843.62 353.35C844.2 354.01 844.79 354.77 845.37 355.61C845.98 356.45 846.56 357.32 847.1 358.24C847.67 359.18 848.14 360.04 848.51 360.82C849 360.82 849.5 360.85 850 360.91C850.53 360.97 850.96 361.07 851.29 361.23C851.82 361.48 852.41 361.86 853.05 362.34C853.69 362.83 854.27 363.42 854.78 364.1L854.78 364.16L848.54 364.16C847.99 364.16 847.4 364.17 846.75 364.19C846.11 364.21 845.47 364.24 844.85 364.28C844.22 364.32 843.62 364.37 843.03 364.45C842.46 364.53 841.97 364.63 841.54 364.75C840.36 365.04 839.52 365.55 839.02 366.27C838.51 367.01 838.26 367.86 838.26 368.82C838.26 369.72 838.49 370.53 838.96 371.25C839.45 371.97 840.17 372.73 841.13 373.54L848.74 372.39C849.04 372.35 849.37 372.3 849.74 372.25C850.13 372.21 850.52 372.17 850.91 372.13C851.3 372.11 851.67 372.09 852.02 372.07C852.4 372.05 852.72 372.04 852.99 372.04C853.44 372.04 853.93 372.1 854.46 372.22C854.98 372.35 855.52 372.59 856.07 372.92C856.58 373.21 857.04 373.57 857.47 374C857.9 374.43 858.28 374.8 858.62 375.12L858.62 375.18C857.95 375.25 857.28 375.34 856.6 375.44C855.93 375.56 855.3 375.66 854.69 375.76L846.84 376.96C845.75 377.12 844.82 377.36 844.06 377.7C843.31 378.05 842.7 378.44 842.21 378.87C841.9 379.14 841.6 379.46 841.3 379.83C841.03 380.22 840.76 380.62 840.51 381.04C840.28 381.46 840.06 381.88 839.87 382.29C839.69 382.72 839.56 383.12 839.49 383.47C839.62 383.78 840 383.94 840.63 383.94C842.7 383.49 844.77 383.04 846.84 382.59C848.91 382.14 851 381.75 853.11 381.42C853.68 381.34 854.15 381.29 854.54 381.27C854.95 381.25 855.27 381.24 855.48 381.24C856.4 381.24 857.42 381.56 858.53 382.21C859.02 382.48 859.44 382.77 859.79 383.09C860.16 383.42 860.52 383.72 860.87 383.99L860.87 384.05C860.56 384.09 860.24 384.14 859.91 384.2C859.57 384.26 859.19 384.33 858.76 384.4C858.35 384.48 857.87 384.57 857.33 384.67C856.78 384.77 856.14 384.88 855.39 385.02C854.55 385.18 853.69 385.33 852.82 385.49C851.94 385.66 851.08 385.82 850.24 385.96C849.42 386.11 848.65 386.25 847.92 386.37C847.2 386.5 846.59 386.61 846.08 386.69C844.79 386.9 843.63 387.08 842.59 387.22C841.58 387.35 840.77 387.42 840.19 387.42C839.95 387.42 839.67 387.41 839.34 387.39ZM841.45 356.02C840.9 355.2 840.46 354.5 840.13 353.94L840.04 353.91C839.94 354.1 839.85 354.37 839.75 354.73C839.65 355.1 839.55 355.51 839.46 355.96C839.36 356.41 839.28 356.87 839.22 357.36C839.16 357.87 839.13 358.35 839.13 358.8C839.13 359.25 839.26 359.65 839.51 360C839.79 360.37 840.13 360.66 840.54 360.88L844.93 360.88L844.93 360.79C844.6 360.6 844.25 360.33 843.88 360C843.53 359.67 843.27 359.34 843.12 359C842.55 357.85 842 356.86 841.45 356.02ZM841.48 396.42C839.74 396.42 838.15 396.21 836.7 395.8C835.28 395.39 833.35 394.6 830.93 393.43L831.63 391.67C834.13 392.14 836.17 392.37 837.73 392.37C838.92 392.37 840.67 392.28 842.97 392.08C845.28 391.88 847.55 391.64 849.8 391.35C852.06 391.05 854.76 390.58 857.88 389.91C858.98 389.68 859.73 389.56 860.14 389.56C860.75 389.56 861.77 389.86 863.22 390.47C864.68 391.07 866.45 391.92 868.52 393.02L858.15 394.78C854.2 395.42 850.78 395.87 847.89 396.12C845.67 396.32 843.53 396.42 841.48 396.42ZM870.19 372.36C869.21 372.36 868.07 372.03 866.76 371.37L866.76 370.72C867.09 370.76 867.4 370.79 867.67 370.81C867.96 370.83 868.18 370.84 868.31 370.84C869.56 370.84 870.76 370.51 871.92 369.84C872.25 370.04 872.6 370.24 872.97 370.46C873.36 370.69 873.77 370.95 874.2 371.22C873.42 371.61 872.67 371.89 871.95 372.07C871.22 372.27 870.64 372.36 870.19 372.36ZM863.07 376.41C862.54 376.31 862.07 376.13 861.66 375.88C861.27 375.64 860.96 375.32 860.73 374.91C860.49 374.52 860.37 374.03 860.37 373.45C860.37 373.1 860.42 372.77 860.52 372.48C860.64 372.19 860.81 371.86 861.05 371.48C860.4 371.07 859.93 370.69 859.64 370.34C859.08 369.76 858.79 369.1 858.79 368.38C858.79 367.56 858.99 366.94 859.38 366.53C859.77 366.12 860.4 365.92 861.28 365.92C861.73 365.92 862.17 365.99 862.6 366.12C863.05 366.26 863.56 366.46 864.12 366.71L864.36 367.32C864.2 367.32 863.97 367.3 863.66 367.27C863.34 367.23 863.08 367.21 862.86 367.21C862.49 367.21 862.15 367.29 861.84 367.47C861.53 367.65 861.37 367.91 861.37 368.26C861.37 369.1 861.87 369.78 862.86 370.28C863.08 370.4 863.43 370.53 863.92 370.66C864.43 370.82 865.01 370.99 865.68 371.16L865.68 371.78C865.23 371.86 864.88 371.92 864.62 371.98C864.37 372.06 864.19 372.12 864.1 372.16C863.51 372.41 863.22 372.82 863.22 373.39C863.22 374.09 863.64 374.66 864.48 375.09C865.2 375.44 865.96 375.62 866.76 375.62L866.94 376.23C866.6 376.31 866.22 376.38 865.79 376.44C865.38 376.51 865.03 376.55 864.74 376.55C864.15 376.55 863.6 376.5 863.07 376.41Z" /><path fill-rule="evenodd" class="shp1" d="M832.98 332.49C832.98 330.44 833.38 328.03 834.18 325.25C834.89 322.81 835.72 320.66 836.67 318.81C834.97 317.68 833.86 316.28 833.33 314.62C833.08 313.82 832.95 312.72 832.95 311.34L832.95 305.54L840.92 305.54L840.92 311.34C840.92 313.1 841.14 314.49 841.57 315.53C842.11 316.86 843.06 317.77 844.41 318.28C846.89 319.39 848.93 320.82 850.53 322.56C851.96 324.1 852.67 325.41 852.67 326.48C852.67 327.48 851.17 328.71 848.16 330.18C844.97 331.72 842.04 332.49 839.37 332.49L832.98 332.49ZM841.83 327.01C842.26 327.01 843 326.59 844.06 325.75C845.23 324.81 845.81 324 845.81 323.32C845.81 322.56 844.93 321.91 843.18 321.39C842.79 322.4 842.49 323.17 842.3 323.7C841.71 325.28 841.42 326.17 841.42 326.37C841.42 326.8 841.56 327.01 841.83 327.01Z" /><path class="shp1" d="M832.95 307.59L832.95 274.13L840.92 274.13L840.92 294.96C843.36 292.6 845.12 290.41 846.19 288.4C847.15 286.62 847.63 284.88 847.63 283.18C847.63 282.68 847.6 282.21 847.54 281.78C847.5 281.37 847.4 280.76 847.22 279.96C849.68 281.04 851.5 282.23 852.67 283.54C853.84 284.86 854.43 286.37 854.43 288.05C854.43 289.34 854.11 290.58 853.49 291.77C852.86 292.96 851.86 294.3 850.47 295.78C849.38 296.95 847.67 298.61 845.35 300.76C843.7 302.23 842.64 303.34 842.15 304.1C841.66 304.88 841.25 306.04 840.92 307.59L832.95 307.59Z" /><path fill-rule="evenodd" class="shp1" d="M832.98 276.18C832.98 274.13 833.38 271.72 834.18 268.95C834.89 266.5 835.72 264.36 836.67 262.5C834.97 261.37 833.86 259.97 833.33 258.31C833.08 257.51 832.95 256.42 832.95 255.03L832.95 249.23L840.92 249.23L840.92 255.03C840.92 256.79 841.14 258.18 841.57 259.22C842.11 260.55 843.06 261.46 844.41 261.97C846.89 263.09 848.93 264.51 850.53 266.25C851.96 267.79 852.67 269.1 852.67 270.18C852.67 271.17 851.17 272.4 848.16 273.87C844.97 275.41 842.04 276.18 839.37 276.18L832.98 276.18ZM841.83 270.7C842.26 270.7 843 270.28 844.06 269.44C845.23 268.51 845.81 267.7 845.81 267.01C845.81 266.25 844.93 265.61 843.18 265.08C842.79 266.09 842.49 266.87 842.3 267.39C841.71 268.97 841.42 269.86 841.42 270.06C841.42 270.49 841.56 270.7 841.83 270.7Z" /><path class="shp1" d="M832.95 251.28L832.95 238.01C832.95 236.72 833.23 235.73 833.77 235.05C834.44 234.21 835.52 233.79 837.02 233.79C837.88 233.79 838.81 233.83 839.81 233.91C840.8 234 841.81 234.14 842.83 234.32L842.88 235.43C842.2 235.59 841.7 235.93 841.39 236.46C841.08 237 840.92 237.66 840.92 238.42L840.92 248.5C843.79 248.05 846.09 247.27 847.81 246.15C849.23 245.23 850.46 243.96 851.5 242.31L860.64 244.42C858.74 246.96 856.3 248.76 853.31 249.81C850.56 250.79 846.91 251.28 842.36 251.28L832.95 251.28Z" /><path class="shp1" d="M832.28 215.71C831.09 215.71 829.51 215.03 827.53 213.66C825.58 212.29 823.88 210.69 822.43 208.86C820.83 206.83 820.03 205.09 820.03 203.64C820.03 201.92 820.52 200.08 821.5 198.11C822.34 196.39 824.02 193.7 826.54 190.05L828.35 191.28C827.18 193.04 826.39 194.45 825.98 195.53C825.57 196.6 825.36 197.76 825.36 199.01C825.36 200.36 825.75 201.71 826.51 203.06C827.27 204.4 828.68 206.24 830.76 208.56C833.65 211.81 835.87 213.43 837.43 213.43C838.22 213.43 839.24 213.12 840.51 212.49C841.96 211.79 843.16 210.93 844.11 209.91L852.02 211.55C850.66 212.88 849.09 213.91 847.31 214.63C845.53 215.35 843.51 215.71 841.24 215.71L832.28 215.71Z" /><path class="shp1" d="M832.95 189.76C832.95 187.57 833.11 185.75 833.42 184.31C833.73 182.86 834.23 181.44 834.92 180.03C834.11 178.9 833.59 177.88 833.33 176.98C833.08 176.1 832.95 174.78 832.95 173L832.95 168.22C832.95 166.91 833.29 165.88 833.98 165.12C834.66 164.36 835.79 163.67 837.38 163.07C835.74 161.99 834.56 160.79 833.86 159.46C833.26 158.33 832.95 156.97 832.95 155.39L832.95 151.2L840.92 151.2L840.92 155.39C840.92 157.44 841.5 159.15 842.65 160.52C844.15 162.29 846.44 163.18 849.51 163.18L849.21 165.12C848.59 165.08 847.87 165.04 847.07 165C846.27 164.96 845.38 164.94 844.41 164.94C843.41 164.94 842.58 165.28 841.92 165.97C841.25 166.65 840.92 167.43 840.92 168.31L840.92 171.91C840.92 174.3 841.25 176 841.92 177.01C842.72 178.24 844.21 178.86 846.4 178.86C846.87 178.86 847.29 179 847.66 179.3C847.87 179.47 848.2 179.83 848.63 180.38L849.51 181.49C849.13 181.53 848.63 181.56 847.98 181.58C847.36 181.6 846.95 181.61 846.75 181.61C845.68 181.61 844.25 181.46 842.47 181.14C842.12 181.87 841.82 182.68 841.57 183.57C841.31 184.47 841.12 185.42 840.98 186.42C841.64 186.42 842.5 186.17 843.56 185.68C844.61 185.2 845.33 184.95 845.7 184.95C846.2 184.95 846.6 185.02 846.87 185.16C846.97 185.2 847.27 185.41 847.78 185.8L851.15 188.29C849.92 188.82 848.79 189.19 847.78 189.4C846.78 189.64 845.53 189.76 844.03 189.76L832.95 189.76Z" /><path fill-rule="evenodd" class="shp1" d="M834.97 153.25C831.61 153.25 828.29 151.83 825.01 148.97C821.73 146.12 820.09 143.31 820.09 140.54C820.09 138.92 820.61 137.14 821.64 135.21C822.68 133.29 824.72 130.34 827.77 126.36L829.47 127.59C828.06 129.7 827.12 131.43 826.65 132.77C826.26 133.89 826.07 135.15 826.07 136.55C826.07 138.45 826.6 140.32 827.65 142.18C828.9 144.37 830.91 146.63 833.68 148.97C833.57 148.15 833.51 147.47 833.51 146.92C833.51 144.99 834.13 143.45 835.38 142.29C836.65 141.16 838.37 140.6 840.54 140.6C843.47 140.6 846.29 141.27 849.01 142.62C851.96 144.08 853.43 145.75 853.43 147.63C853.43 149.19 852.37 150.52 850.24 151.61C848.11 152.71 845.54 153.25 842.53 153.25L834.97 153.25ZM840.92 149.74C844.07 149.19 845.64 148.08 845.64 146.4C845.64 145.79 845.39 145.3 844.91 144.93C844.44 144.58 843.92 144.4 843.35 144.4C842.65 144.4 842.06 144.79 841.6 145.55C841.15 146.33 840.92 147.35 840.92 148.62L840.92 149.74Z" /><path class="shp1" d="M833.68 126.18C830.68 126.18 828.01 124.62 825.69 121.49C823.36 118.37 822.2 114.8 822.2 110.8C822.2 107.46 823.04 104.84 824.72 102.95C826.42 101.07 828.78 100.14 831.81 100.14C834.64 100.14 837.11 100.49 839.22 101.19C841.6 101.99 844.52 103.55 847.98 105.88L846.75 107.7C844.47 106.17 842.48 105.09 840.8 104.44C839.12 103.8 837.45 103.48 835.79 103.48C834.02 103.48 832.64 104.13 831.66 105.44C830.71 106.77 830.23 108.63 830.23 111.04C830.23 114.47 830.89 117.27 832.22 119.41C833.55 121.56 835.29 122.64 837.43 122.64C837.81 122.64 838.1 122.64 838.31 122.64C838.53 122.64 838.69 122.64 838.81 122.64C839.57 122.64 840.41 122.57 841.33 122.43C842.25 122.31 844.14 121.99 847.01 121.46C851.64 120.62 856.28 119.79 860.93 118.95L861.99 117.48C863.9 117.48 866.83 118.38 870.77 120.18L870.13 121.52C869.86 121.45 869.54 121.41 869.19 121.41C868.41 121.41 867.78 121.81 867.29 122.61C866.62 123.8 865.99 124.92 865.38 125.98C863.7 125.76 862.5 125.55 861.78 125.33C861.06 125.12 859.97 124.67 858.53 123.98L858.88 123.11C858.59 123.11 856.92 123.38 853.87 123.93C850.84 124.49 848.23 124.97 846.02 125.36C842.85 125.91 840.93 126.18 840.25 126.18L833.68 126.18Z" /><path fill-rule="evenodd" class="shp1" d="M839.34 72.92C839.03 72.9 838.69 72.87 838.34 72.83C838.01 72.79 837.68 72.75 837.35 72.71C837.03 72.68 836.78 72.64 836.59 72.6C836.19 72.52 835.68 72.39 835.03 72.22C834.41 72.04 833.78 71.84 833.16 71.6C832.53 71.37 832 71.11 831.55 70.84C831.1 70.57 830.87 70.29 830.87 70.02C830.91 69.16 831.01 68.27 831.17 67.35C831.34 66.46 831.62 65.59 832.01 64.75C832.41 63.93 832.92 63.17 833.57 62.49C834.21 61.83 835.03 61.29 836.03 60.88C835.13 60.45 834.27 59.98 833.45 59.47C832.65 58.98 831.94 58.43 831.31 57.8C830.71 57.18 830.22 56.46 829.85 55.66C829.5 54.86 829.32 53.96 829.32 52.94C829.32 51.92 829.51 51.06 829.88 50.36C830.27 49.68 830.79 49.1 831.46 48.63C832.12 48.18 832.89 47.82 833.77 47.55C834.65 47.29 835.58 47.08 836.56 46.9L836.56 46.85C836.03 46.63 835.51 46.36 835 46.03C834.51 45.71 834.08 45.37 833.68 45C833.31 44.65 833.01 44.3 832.78 43.95C832.56 43.61 832.45 43.32 832.45 43.07C832.45 42.46 832.49 41.72 832.57 40.84C832.65 39.96 832.77 39.05 832.92 38.12C833 37.61 833.11 37.13 833.25 36.68C833.38 36.23 833.54 35.83 833.71 35.48C833.91 35.15 834.11 34.87 834.33 34.66C834.54 34.46 834.79 34.37 835.06 34.37C835.43 34.37 835.89 34.46 836.44 34.66C836.99 34.85 837.58 35.11 838.23 35.42C838.87 35.73 839.52 36.07 840.19 36.45C840.87 36.84 841.53 37.21 842.15 37.56C842.56 37.79 843.05 38.23 843.62 38.88C844.2 39.54 844.79 40.29 845.37 41.13C845.98 41.97 846.56 42.85 847.1 43.77C847.67 44.71 848.14 45.57 848.51 46.35C849 46.35 849.5 46.38 850 46.44C850.53 46.49 850.96 46.6 851.29 46.76C851.82 47.01 852.41 47.38 853.05 47.87C853.69 48.36 854.27 48.95 854.78 49.63L854.78 49.69L848.54 49.69C847.99 49.69 847.4 49.7 846.75 49.72C846.11 49.74 845.47 49.77 844.85 49.8C844.22 49.84 843.62 49.9 843.03 49.98C842.46 50.06 841.97 50.16 841.54 50.27C840.36 50.57 839.52 51.07 839.02 51.8C838.51 52.54 838.26 53.39 838.26 54.35C838.26 55.24 838.49 56.05 838.96 56.78C839.45 57.5 840.17 58.26 841.13 59.06L848.74 57.92C849.04 57.88 849.37 57.83 849.74 57.77C850.13 57.73 850.52 57.7 850.91 57.66C851.3 57.64 851.67 57.62 852.02 57.6C852.4 57.58 852.72 57.57 852.99 57.57C853.44 57.57 853.93 57.63 854.46 57.74C854.98 57.88 855.52 58.12 856.07 58.45C856.58 58.74 857.04 59.1 857.47 59.53C857.9 59.96 858.28 60.33 858.62 60.64L858.62 60.7C857.95 60.78 857.28 60.87 856.6 60.97C855.93 61.08 855.3 61.19 854.69 61.29L846.84 62.49C845.75 62.65 844.82 62.89 844.06 63.22C843.31 63.57 842.7 63.96 842.21 64.39C841.9 64.67 841.6 64.99 841.3 65.36C841.03 65.75 840.76 66.15 840.51 66.56C840.28 66.99 840.06 67.41 839.87 67.82C839.69 68.25 839.56 68.64 839.49 68.99C839.62 69.31 840 69.46 840.63 69.46C842.7 69.01 844.77 68.56 846.84 68.12C848.91 67.67 851 67.28 853.11 66.94C853.68 66.87 854.15 66.82 854.54 66.8C854.95 66.78 855.27 66.77 855.48 66.77C856.4 66.77 857.42 67.09 858.53 67.73C859.02 68.01 859.44 68.3 859.79 68.61C860.16 68.95 860.52 69.25 860.87 69.52L860.87 69.58C860.56 69.62 860.24 69.67 859.91 69.73C859.57 69.79 859.19 69.85 858.76 69.93C858.35 70.01 857.87 70.1 857.33 70.2C856.78 70.29 856.14 70.41 855.39 70.55C854.55 70.7 853.69 70.86 852.82 71.02C851.94 71.19 851.08 71.35 850.24 71.48C849.42 71.64 848.65 71.78 847.92 71.89C847.2 72.03 846.59 72.14 846.08 72.22C844.79 72.43 843.63 72.61 842.59 72.74C841.58 72.88 840.77 72.95 840.19 72.95C839.95 72.95 839.67 72.94 839.34 72.92ZM841.45 41.54C840.9 40.72 840.46 40.03 840.13 39.46L840.04 39.43C839.94 39.63 839.85 39.9 839.75 40.25C839.65 40.62 839.55 41.04 839.46 41.48C839.36 41.93 839.28 42.4 839.22 42.89C839.16 43.4 839.13 43.88 839.13 44.33C839.13 44.78 839.26 45.18 839.51 45.53C839.79 45.9 840.13 46.19 840.54 46.41L844.93 46.41L844.93 46.32C844.6 46.12 844.25 45.86 843.88 45.53C843.53 45.2 843.27 44.86 843.12 44.53C842.55 43.38 842 42.38 841.45 41.54ZM836.7 81.33C835.28 80.92 833.35 80.13 830.93 78.96L831.63 77.2C834.13 77.67 836.17 77.9 837.73 77.9C838.92 77.9 840.67 77.8 842.97 77.61C845.28 77.41 847.55 77.17 849.8 76.87C852.06 76.58 854.76 76.1 857.88 75.44C858.98 75.21 859.73 75.09 860.14 75.09C860.75 75.09 861.77 75.39 863.22 76C864.68 76.6 866.45 77.45 868.52 78.54L858.15 80.3C854.2 80.95 850.78 81.4 847.89 81.65C845.67 81.85 843.53 81.94 841.48 81.94C839.74 81.94 838.15 81.74 836.7 81.33ZM870.19 57.89C869.21 57.89 868.07 57.56 866.76 56.89L866.76 56.25C867.09 56.29 867.4 56.32 867.67 56.34C867.96 56.36 868.18 56.37 868.31 56.37C869.56 56.37 870.76 56.04 871.92 55.37C872.25 55.57 872.6 55.77 872.97 55.99C873.36 56.22 873.77 56.47 874.2 56.75C873.42 57.14 872.67 57.42 871.95 57.6C871.22 57.79 870.64 57.89 870.19 57.89ZM863.07 61.93C862.54 61.84 862.07 61.66 861.66 61.41C861.27 61.17 860.96 60.85 860.73 60.44C860.49 60.05 860.37 59.56 860.37 58.97C860.37 58.62 860.42 58.3 860.52 58.01C860.64 57.71 860.81 57.38 861.05 57.01C860.4 56.6 859.93 56.22 859.64 55.87C859.08 55.28 858.79 54.63 858.79 53.91C858.79 53.09 858.99 52.47 859.38 52.06C859.77 51.65 860.4 51.45 861.28 51.45C861.73 51.45 862.17 51.51 862.6 51.65C863.05 51.79 863.56 51.98 864.12 52.24L864.36 52.85C864.2 52.85 863.97 52.83 863.66 52.79C863.34 52.75 863.08 52.73 862.86 52.73C862.49 52.73 862.15 52.82 861.84 53C861.53 53.17 861.37 53.44 861.37 53.79C861.37 54.63 861.87 55.3 862.86 55.81C863.08 55.93 863.43 56.05 863.92 56.19C864.43 56.35 865.01 56.51 865.68 56.69L865.68 57.3C865.23 57.38 864.88 57.45 864.62 57.51C864.37 57.59 864.19 57.65 864.1 57.69C863.51 57.94 863.22 58.35 863.22 58.92C863.22 59.62 863.64 60.19 864.48 60.62C865.2 60.97 865.96 61.14 866.76 61.14L866.94 61.76C866.6 61.84 866.22 61.9 865.79 61.96C865.38 62.04 865.03 62.08 864.74 62.08C864.15 62.08 863.6 62.03 863.07 61.93Z" /></g><g ><path class="shp1" d="M741.55 275C749.71 273.62 746.24 283.58 746.2 288.3C745.02 308.21 745.21 328.18 745.07 348.12C745.26 362.21 744.84 376.33 744.2 390.37C740.83 399.18 729.26 392.08 731.67 384.18C730.28 370.67 732.32 356.93 729.54 343.55C723.26 339.17 716.19 346.87 709.65 347.83C691.47 355.38 673.47 363.54 656.63 373.79C652.49 381.14 637.02 375.11 644.47 367.49C650.08 361.89 657.85 359.18 664.96 355.94C671.08 353.64 677.54 352.09 683.24 348.78C681.06 342.44 671.48 346.19 666.17 344.69C646.54 344.09 626.82 346.17 607.25 344.42C600.39 341.23 605.23 330.97 612.26 333.79C636.37 332.38 660.74 334.86 684.68 331.35C688.44 326.19 676.68 326.5 673.55 324.48C662.42 321.13 651.19 317.44 641.18 311.49C634.34 308.75 637.33 300.29 644.05 304.18C653.83 307.33 662.83 312.49 672.68 315.51C690.54 322.06 708.52 328.4 726.96 333.14C733.58 328.92 729.72 319.29 731.2 312.71C731.41 301.56 730.58 290.02 734.34 279.33C735.61 276.63 738.52 274.71 741.55 275Z" /><path fill-rule="evenodd" class="shp1" d="M552.94 192.4C538.61 197.15 525.69 201.57 514.19 205.65C502.69 209.73 492.4 213.65 483.32 217.4C462.65 225.81 452.32 231.56 452.32 234.65C452.32 236.15 458.03 239.9 469.44 245.9C473.94 248.23 477.94 250.94 481.44 254.02C484.94 257.02 488.02 260.52 490.69 264.52C496.02 272.11 498.69 280.32 498.69 289.15C498.69 293.4 497.86 297.07 496.19 300.15C494.53 303.15 492.23 305.65 489.32 307.65C486.48 309.65 483.07 311.27 479.07 312.52C475.15 313.69 470.9 314.57 466.32 315.15C461.73 315.73 456.9 316.11 451.82 316.27C446.73 316.44 441.65 316.52 436.57 316.52L430.32 316.52C426.15 332.69 421.44 344.9 416.19 353.15C406.44 368.48 395.02 376.15 381.94 376.15C374.77 376.15 365.02 372.65 352.69 365.65L354.82 363.4C360.32 365.73 365.28 366.9 369.69 366.9C382.11 366.9 393.77 361.94 404.69 352.02C415.69 342.02 422.48 330.19 425.07 316.52L420.69 316.52C416.86 316.52 413.48 316.36 410.57 316.02C407.73 315.69 405.11 314.98 402.69 313.9C399.36 312.48 396.77 310.77 394.94 308.77C393.19 306.77 392.32 304.56 392.32 302.15C392.32 300.73 392.53 299.11 392.94 297.27C393.36 295.44 393.9 293.52 394.57 291.52C395.32 289.52 396.15 287.48 397.07 285.4C398.07 283.32 399.11 281.32 400.19 279.4C402.27 275.65 404.19 272.94 405.94 271.27C407.77 269.61 409.73 268.77 411.82 268.77C416.65 268.77 420.94 272.02 424.69 278.52C428.36 284.94 430.4 292.56 430.82 301.4L450.32 301.4C453.82 301.31 457.49 301.15 461.32 300.9C465.24 300.65 469.11 300.27 472.94 299.77C476.86 299.27 480.36 298.56 483.44 297.65C486.61 296.65 489.15 295.4 491.07 293.9C493.07 292.4 494.07 290.57 494.07 288.4C494.07 284.4 490.4 278.98 483.07 272.15C476.15 265.81 469.48 261.15 463.07 258.15C456.07 254.82 451.69 252.27 449.94 250.52C448.44 248.69 447.69 245.19 447.69 240.02C447.69 233.61 448.49 228.98 450.07 226.15C450.74 224.82 452.86 223.02 456.44 220.77C460.03 218.44 465.07 215.52 471.57 212.02C481.98 206.52 494.48 200.9 509.07 195.15C523.73 189.32 540.65 183.27 559.82 177.02L552.94 192.4ZM250.19 246.9L242.07 260.27L228.94 251.77L221.32 263.77L207.44 255.4L215.94 241.52L229.57 250.02L237.19 238.52L250.19 246.9ZM348.82 258.9C352.4 266.82 354.19 274.86 354.19 283.02C354.19 290.19 353.23 295.98 351.32 300.4C349.48 304.82 346.94 308.23 343.69 310.65C340.44 312.98 336.57 314.57 332.07 315.4C327.57 316.15 322.69 316.52 317.44 316.52C315.11 316.52 312.82 316.36 310.57 316.02C308.32 315.61 306.28 314.9 304.44 313.9C302.69 312.9 301.15 311.57 299.82 309.9C298.57 308.15 297.73 305.9 297.32 303.15L296.57 303.15C292.32 306.32 287.36 309.32 281.69 312.15C276.11 314.9 269.9 317.31 263.07 319.4C256.23 321.4 248.86 323.02 240.94 324.27C233.02 325.44 224.69 326.02 215.94 326.02C173.94 326.02 152.94 314.48 152.94 291.4C152.94 284.23 156.19 274.44 162.69 262.02L165.57 263.27C162.15 270.36 160.44 276.06 160.44 280.4C160.44 288.9 166.02 295.86 177.19 301.27C188.27 306.52 203.15 309.15 221.82 309.15C226.57 309.15 231.57 308.94 236.82 308.52C242.07 308.11 247.27 307.48 252.44 306.65C257.61 305.73 262.65 304.57 267.57 303.15C272.48 301.73 277.03 300.02 281.19 298.02C285.44 295.94 289.19 293.61 292.44 291.02C295.78 288.36 298.4 285.31 300.32 281.9L301.82 282.4C302.23 285.9 302.9 288.86 303.82 291.27C304.73 293.69 305.98 295.65 307.57 297.15C309.15 298.65 311.15 299.73 313.57 300.4C315.98 301.07 318.94 301.4 322.44 301.4C326.03 301.4 329.61 301.23 333.19 300.9C336.86 300.57 339.86 299.86 342.19 298.77C346.44 296.77 348.57 294.48 348.57 291.9C348.57 290.57 348.15 289.23 347.32 287.9L341.94 279.15C340.78 277.23 340.19 275.44 340.19 273.77C340.19 272.02 340.69 270.4 341.69 268.9L348.19 258.9L348.82 258.9ZM407.07 286.9C406.15 287.15 405.32 287.57 404.57 288.15C403.82 288.65 403.19 289.27 402.69 290.02C402.19 290.69 401.94 291.44 401.94 292.27C401.94 294.94 403.98 297.19 408.07 299.02C410.07 299.94 411.98 300.57 413.82 300.9C415.65 301.23 418.32 301.4 421.82 301.4C420.57 296.23 418.73 292.44 416.32 290.02C413.9 287.61 411.65 286.4 409.57 286.4C408.82 286.4 407.98 286.57 407.07 286.9ZM361.69 335.52L353.44 348.77L340.19 340.27L332.69 351.9L319.69 343.9L327.32 330.4L341.19 338.77L348.07 327.27L361.69 335.52Z" /></g></svg>