<svg version="1.2" baseProfile="tiny-ps" xmlns="http://www.w3.org/2000/svg" viewBox="0 0 900 600" width="900" height="600">
	<style>
		tspan { white-space:pre }
		.s0 { fill: #cc0000 } 
		.s1 { fill: #ffd700 } 
		.s2 { fill: #003399 } 
		.s3 { fill: #ffffff } 
	</style>
	<path fill-rule="evenodd" class="s0" d="m0 0h900v600h-900v-600z" />
	<path fill-rule="evenodd" class="s1" d="m145.5 63.4h27.2l-22.1 16l8.4 25.9l-22-16l-22 16l8.4-25.9l-22.1-16h27.3l8.4-25.9l8.5 25.9zm-13.9 4.2h-17.4l14.1 10.2l-5.4 16.6l14.1-10.2l14.1 10.2l-5.4-16.6l14.1-10.2h-17.4l-5.4-16.6l-5.4 16.6z" />
	<g >
		<path class="s1" d="m116.1 138l33.3 4.6l-24 23.8c28.9 27.3 57.8 54.7 86.6 81.9c4 4.1 4 10.7-0.1 14.7c-4.1 4-10.7 4-14.7-0.1c-26.9-29.1-55.2-57.1-82.3-86.1l-17.8 17.7l-18.9-19l37.9-37.5z" />
		<path class="s1" d="m139.1 114.1c17.8 4.7 33.5 15.4 44.2 28.2c14 16.8 20.1 37.3 19.6 53.2c-1.1 31.5-23.4 53.5-53.2 52.8c-16.2-0.3-30.8-7.7-40.5-19.1c-0.5 2.3-2.1 4.2-4.2 5.2c-0.1 0.1-0.2 0.1-0.4 0.2c-6.3 3.1-11.3 8.5-13.6 15.1c-1.1 3.3-3.2 6.6-6 9.5c-5 5.1-11.4 7.7-16.1 6.6c-0.5 0.2-1.1 0.3-1.6 0.3c-2.1 0-3.9-1.7-3.9-3.9c0-0.5 0.1-0.9 0.2-1.3c-1.4-4.7 1.1-11.4 6.3-16.6c2.6-2.6 5.7-4.7 8.8-5.8c0.1 0 0.1-0.1 0.2-0.1c6.7-2.3 12.2-7.2 15.3-13.5c0.9-2.9 3.4-4.9 6.4-5.3c1.1-1.4 2.9-2.2 4.7-2.2c0.7 0 1.5 0.1 2.2 0.4l4.2-3.5c7.6 8.4 18.5 13.6 30.6 13.6c22.8 0 41.3-18.5 41.2-41.2c-0.1-11.1-3.2-25-10.2-38.3c-6.9-13.1-18.7-25.7-34.2-34.4v0.1z" />
	</g>
	<g >
		<path fill-rule="evenodd" class="s2" d="m12.29 409.13c1.84 0.28 3.68 0.64 5.51 1.07c1.83 0.43 3.65 0.93 5.45 1.5c1.81 0.57 3.6 1.22 5.37 1.94c1.78 0.72 3.54 1.5 5.28 2.36c3.02 1.48 5.84 3.11 8.67 4.68c2.84 1.58 5.75 3.15 8.77 4.63c0.79 0.39 1.59 0.77 2.39 1.13c0.8 0.36 1.61 0.71 2.42 1.04c0.81 0.33 1.62 0.65 2.44 0.96c0.82 0.3 1.63 0.59 2.46 0.87c3.55 1.18 7.48 2.18 11.9 2.87c4.43 0.69 9.38 1.13 15.05 1.13c5.67 0 10.66-0.43 15.09-1.13c1.84-0.29 3.68-0.65 5.51-1.08c1.83-0.43 3.64-0.93 5.45-1.51c1.8-0.57 3.6-1.22 5.37-1.93c1.78-0.71 3.54-1.5 5.28-2.35c0.73-0.36 1.46-0.73 2.18-1.11c0.73-0.38 1.45-0.76 2.17-1.14c0.72-0.39 1.44-0.78 2.16-1.17c0.72-0.4 1.44-0.8 2.15-1.2c2.84-1.58 5.71-3.2 8.72-4.68c1.74-0.86 3.51-1.65 5.29-2.36c1.78-0.72 3.58-1.36 5.38-1.94c1.81-0.57 3.63-1.08 5.46-1.5c1.83-0.43 3.67-0.78 5.52-1.07c4.44-0.69 9.38-1.13 15.05-1.13c5.67 0 10.66 0.43 15.1 1.13c1.84 0.29 3.68 0.64 5.5 1.08c1.83 0.43 3.64 0.93 5.45 1.51c1.8 0.57 3.6 1.22 5.37 1.93c1.78 0.72 3.54 1.5 5.28 2.35c3.01 1.48 5.83 3.11 8.68 4.68c0.72 0.41 1.44 0.81 2.16 1.2c0.72 0.4 1.45 0.79 2.17 1.17c0.73 0.39 1.45 0.77 2.18 1.14c0.73 0.38 1.46 0.75 2.19 1.11c1.75 0.86 3.51 1.64 5.29 2.36c1.78 0.72 3.58 1.36 5.39 1.94c1.81 0.57 3.63 1.08 5.46 1.51c1.83 0.43 3.67 0.79 5.52 1.07c4.43 0.69 9.37 1.13 15.04 1.13c5.67 0 10.67-0.43 15.09-1.13c1.84-0.29 3.68-0.65 5.51-1.08c1.83-0.43 3.65-0.93 5.45-1.51c1.81-0.57 3.6-1.22 5.38-1.93c1.78-0.71 3.54-1.5 5.28-2.35c0.73-0.36 1.46-0.73 2.18-1.11c0.73-0.38 1.45-0.76 2.17-1.14c0.72-0.39 1.44-0.78 2.16-1.17c0.72-0.4 1.44-0.8 2.15-1.2c2.84-1.58 5.7-3.2 8.72-4.68c1.74-0.86 3.5-1.65 5.28-2.37c1.78-0.72 3.57-1.36 5.37-1.94c1.81-0.57 3.62-1.08 5.45-1.5c1.83-0.43 3.67-0.78 5.51-1.06c4.43-0.69 9.41-1.13 15.09-1.13c5.68 0 10.66 0.43 15.1 1.13c1.84 0.29 3.68 0.64 5.51 1.08c1.83 0.43 3.64 0.93 5.45 1.51c1.8 0.57 3.6 1.22 5.37 1.93c1.78 0.72 3.54 1.5 5.28 2.35c3.01 1.48 5.83 3.11 8.67 4.68c0.72 0.41 1.43 0.81 2.15 1.2c0.72 0.4 1.44 0.79 2.16 1.17c0.72 0.39 1.45 0.77 2.17 1.14c0.73 0.38 1.45 0.75 2.18 1.11c1.75 0.85 3.51 1.63 5.29 2.35c1.78 0.71 3.58 1.36 5.39 1.93c1.81 0.57 3.63 1.08 5.46 1.51c1.83 0.43 3.67 0.79 5.52 1.08c4.43 0.69 9.37 1.13 15.04 1.13c5.67 0 10.62-0.43 15.04-1.13c1.85-0.29 3.7-0.65 5.53-1.08c1.84-0.43 3.66-0.93 5.47-1.51c1.81-0.57 3.61-1.22 5.4-1.93c1.78-0.71 3.55-1.5 5.3-2.35c0.73-0.36 1.46-0.73 2.18-1.11c0.73-0.38 1.45-0.76 2.17-1.14c0.72-0.39 1.44-0.78 2.16-1.17c0.72-0.4 1.44-0.8 2.15-1.2c2.83-1.58 5.66-3.2 8.67-4.68c0.8-0.39 1.61-0.77 2.42-1.13c0.81-0.36 1.62-0.71 2.44-1.04c0.82-0.33 1.64-0.65 2.46-0.96c0.82-0.3 1.65-0.59 2.48-0.87c3.55-1.18 7.38-2.18 11.81-2.87c4.43-0.69 9.42-1.13 15.09-1.13c5.68 0 10.61 0.43 15.05 1.13c1.85 0.29 3.69 0.64 5.53 1.08c1.83 0.43 3.66 0.93 5.47 1.51c1.81 0.57 3.61 1.22 5.4 1.93c1.78 0.72 3.55 1.5 5.3 2.35c3.02 1.48 5.84 3.11 8.68 4.68c0.72 0.41 1.43 0.81 2.15 1.2c0.72 0.4 1.44 0.79 2.16 1.17c0.72 0.39 1.45 0.77 2.17 1.14c0.73 0.38 1.45 0.75 2.18 1.11c1.74 0.85 3.5 1.63 5.28 2.35c1.78 0.71 3.57 1.36 5.37 1.93c1.8 0.57 3.62 1.08 5.45 1.51c1.83 0.43 3.66 0.79 5.51 1.08c4.43 0.69 9.42 1.13 15.1 1.13c5.67 0 10.61-0.43 15.04-1.13c1.85-0.29 3.69-0.65 5.53-1.08c1.83-0.43 3.66-0.93 5.47-1.51c1.81-0.57 3.61-1.22 5.4-1.93c1.78-0.71 3.55-1.5 5.3-2.35c0.73-0.36 1.46-0.73 2.18-1.11c0.73-0.38 1.45-0.76 2.17-1.14c0.72-0.39 1.44-0.78 2.16-1.17c0.72-0.4 1.44-0.8 2.16-1.2c2.83-1.58 5.65-3.2 8.67-4.68c1.74-0.86 3.5-1.64 5.28-2.36c1.78-0.72 3.57-1.36 5.37-1.94c1.81-0.57 3.62-1.08 5.45-1.51c1.83-0.43 3.66-0.79 5.51-1.07c4.43-0.69 9.42-1.13 15.1-1.13c5.67 0 10.61 0.43 15.04 1.13c1.84 0.28 3.68 0.64 5.51 1.07c1.83 0.43 3.65 0.93 5.45 1.5c1.81 0.57 3.6 1.22 5.37 1.94c1.78 0.72 3.54 1.5 5.28 2.36c3.02 1.48 5.88 3.11 8.72 4.68c0.72 0.41 1.43 0.81 2.15 1.2c0.72 0.4 1.44 0.79 2.16 1.17c0.72 0.39 1.45 0.77 2.17 1.14c0.73 0.38 1.45 0.75 2.18 1.11c1.74 0.86 3.51 1.64 5.29 2.36c1.78 0.72 3.58 1.36 5.38 1.94c1.81 0.57 3.63 1.08 5.46 1.51c1.83 0.43 3.67 0.79 5.52 1.07c4.43 0.69 9.42 1.13 15.1 1.13c5.68 0 10.61-0.43 15.05-1.13c1.84-0.29 3.68-0.65 5.5-1.08c1.83-0.43 3.64-0.93 5.45-1.51c1.8-0.57 3.6-1.22 5.37-1.93c1.78-0.71 3.54-1.5 5.28-2.35c0.73-0.36 1.46-0.73 2.19-1.11c0.73-0.38 1.46-0.76 2.19-1.14c0.73-0.39 1.45-0.78 2.18-1.17c0.72-0.4 1.45-0.8 2.17-1.2c2.84-1.58 5.65-3.2 8.67-4.68c1.75-0.86 3.51-1.65 5.29-2.36c1.78-0.72 3.58-1.36 5.39-1.94c1.81-0.57 3.63-1.08 5.46-1.5c1.83-0.43 3.67-0.78 5.52-1.07c2.93-0.46 6.53-0.58 9.98-0.75v191.62h-900v-192c4.53 0.12 8.6 0.55 12.29 1.13z" />
		<path fill-rule="evenodd" class="s3" d="m178.78 400c23.8 0 36.98 7.13 48.33 13.43c11.35 6.31 20.87 11.87 42.47 11.87c21.6 0 31.07-5.56 42.42-11.87c11.35-6.31 24.58-13.43 48.38-13.43c23.79 0 36.97 7.13 48.33 13.43c11.35 6.31 20.82 11.87 42.42 11.87c21.6 0 31.13-5.55 42.46-11.86c11.36-6.31 24.54-13.43 48.33-13.43c23.79 0 37.03 7.12 48.38 13.43c11.35 6.31 20.82 11.87 42.42 11.87c21.61 0 31.08-5.56 42.43-11.87c11.35-6.31 24.58-13.43 48.38-13.43c23.79 0 37.03 7.12 48.38 13.43c11.35 6.31 20.82 11.87 42.42 11.87c21.6 0 31.07-5.56 42.42-11.88c10.51-5.84 22.63-12.37 43.26-13.3v16c-18.07 0.81-26.94 5.94-37.35 11.74c-11.36 6.31-24.54 13.44-48.33 13.44c-23.79 0-37.03-7.13-48.38-13.44c-11.35-6.31-20.82-11.87-42.42-11.87c-21.61 0-31.07 5.56-42.42 11.87c-11.35 6.31-24.59 13.44-48.38 13.44c-23.79 0-36.98-7.13-48.33-13.44c-11.35-6.31-20.87-11.87-42.47-11.87c-21.6 0-31.07 5.56-42.42 11.87c-11.35 6.31-24.58 13.44-48.38 13.44c-23.79 0-36.98-7.13-48.33-13.44c-11.35-6.31-20.82-11.87-42.42-11.87c-21.6 0-31.12 5.56-42.47 11.87c-11.35 6.31-24.53 13.44-48.32 13.44c-23.79 0-37.03-7.13-48.38-13.44c-11.35-6.31-20.82-11.87-42.42-11.87c-21.61 0-31.08 5.56-42.43 11.87c-11.35 6.31-24.59 13.44-48.38 13.44c-23.79 0-37.02-7.13-48.38-13.44c-10.84-6.03-19.96-11.35-39.61-11.8v-16c22.05 0.53 34.66 7.31 45.56 13.37c11.35 6.31 20.82 11.87 42.42 11.87c21.61 0 31.07-5.56 42.43-11.87c11-6.12 23.75-13.01 46.17-13.44c0.72-0.02 1.46 0 2.2 0z" />
		<path fill-rule="evenodd" class="s3" d="m178.79 441.3c24.88 0 39.98 7.87 51.32 14.19c11.35 6.31 18.96 11.05 39.47 11.05c20.51 0 28.12-4.75 39.46-11.05c11.36-6.32 26.44-14.19 51.33-14.19c24.88 0 39.93 7.87 51.28 14.19c11.34 6.31 18.95 11.05 39.47 11.05c20.51 0 28.12-4.75 39.47-11.05c11.35-6.32 26.45-14.19 51.32-14.19c24.89 0 39.98 7.87 51.33 14.19c11.35 6.31 18.96 11.05 39.47 11.05c20.5 0 28.12-4.75 39.47-11.05c11.35-6.32 26.45-14.19 51.33-14.19c24.88 0 39.98 7.87 51.32 14.19c11.35 6.31 18.96 11.05 39.47 11.05c20.51 0 28.12-4.75 39.46-11.05c10.55-5.87 24.34-13.07 46.21-14.07v32c-16.75 0.73-24 5.17-34.35 10.93c-11.36 6.31-26.44 14.18-51.33 14.18c-24.89 0-39.98-7.87-51.33-14.18c-11.35-6.31-18.96-11.06-39.46-11.06c-20.51 0-28.13 4.75-39.47 11.06c-11.35 6.31-26.45 14.18-51.33 14.18c-24.88 0-39.98-7.87-51.32-14.18c-11.35-6.31-18.96-11.06-39.47-11.06c-20.51 0-28.12 4.75-39.47 11.06c-11.36 6.31-26.45 14.18-51.33 14.18c-24.88 0-39.93-7.87-51.28-14.18c-11.34-6.31-18.95-11.06-39.47-11.06c-20.51 0-28.17 4.75-39.52 11.06c-11.35 6.31-26.4 14.18-51.28 14.18c-24.88 0-39.98-7.87-51.33-14.18c-11.35-6.31-18.96-11.06-39.47-11.06c-20.5 0-28.12 4.75-39.47 11.06c-11.35 6.31-26.44 14.18-51.33 14.18c-24.88 0-39.93-7.87-51.28-14.18c-10.82-6.02-18.27-10.64-36.71-11.06v-31.93c23.25 0.56 37.61 8.05 48.53 14.13c11.34 6.31 18.95 11.05 39.47 11.05c20.51 0 28.13-4.75 39.47-11.05c10.99-6.12 25.52-13.72 49.03-14.19h2.3z" />
	</g>
</svg>