<svg version="1.2" baseProfile="tiny-ps" xmlns="http://www.w3.org/2000/svg" viewBox="0 0 900 600" width="900" height="600"><title></title><style>tspan { white-space:pre }.shp0 { fill: #002b7f } .shp1 { fill: #ce1126 } .shp2 { fill: #ffd83d } .shp3 { fill: #ffd83d;stroke: #000000;stroke-linecap:round;stroke-linejoin:round;stroke-width: 1.5 } .shp4 { fill: #000000;stroke: #000000;stroke-linecap:round;stroke-linejoin:round;stroke-width: 1.5 } .shp5 { fill: #ffd83d;stroke: #000000;stroke-linecap:round;stroke-linejoin:round;stroke-width: 2 } .shp6 { fill: none;stroke: #000000;stroke-linecap:round;stroke-linejoin:round;stroke-width: 1.5 } .shp7 { fill: #000000 } </style><path class="shp0" d="M-50 0L950 0L950 600L-50 600L-50 0Z" /><path class="shp1" d="M-50 300L950 300L950 600L-50 600L-50 300Z" /><g ><g ><path class="shp2" d="M166.38 122.29L164.54 184.79L101.12 184.79C93.32 169.62 86.87 156.74 86.87 139.29C86.87 124.69 98.36 113.1 114.91 113.1C132.43 113.1 151.68 119 166.38 122.29Z" /><g ><path class="shp3" d="M94.46 125.16L94.46 161.24" /><path class="shp3" d="M99.55 121.48L99.55 169.51" /><path class="shp3" d="M104.64 118.95L104.64 176.18" /><path class="shp3" d="M109.74 117.77L109.74 162.65" /><path class="shp3" d="M114.83 117.55L114.83 162.87" /><path class="shp3" d="M119.92 115.96L119.92 162.85" /><path class="shp3" d="M125.02 115.96L125.02 162.85" /><path class="shp3" d="M130.11 116.42L130.11 163.31" /><path class="shp3" d="M135.2 116.88L135.2 163.77" /><path class="shp3" d="M140.3 119.87L140.3 166.76" /><path class="shp3" d="M145.39 120.33L145.39 173.19" /><path class="shp3" d="M150.48 120.33L150.48 167.22" /><path class="shp3" d="M155.58 120.33L155.58 167.22" /><path class="shp4" d="M126.4 117.92C137.16 119.7 160.8 130.76 158.1 145.73C154.28 166.94 141.9 158.42 125.48 155.38L113.07 159.51C108.63 164.04 102.09 168.2 97.67 162.73L90.32 162.73L90.32 191.45L171.66 191.45L171.66 122.06L126.4 117.92Z" /></g><path class="shp5" d="M162.82 117.92C160.08 117.92 157.88 115.71 157.88 112.98C157.88 110.25 160.08 108.04 162.82 108.04C165.55 108.04 167.76 110.25 167.76 112.98C167.76 115.71 165.55 117.92 162.82 117.92Z" /><path class="shp5" d="M151.71 115.25C148.98 115.25 146.77 113.04 146.77 110.31C146.77 107.58 148.98 105.37 151.71 105.37C154.44 105.37 156.65 107.58 156.65 110.31C156.65 113.04 154.44 115.25 151.71 115.25Z" /><path class="shp5" d="M140.45 112.42C137.72 112.42 135.51 110.21 135.51 107.48C135.51 104.75 137.72 102.54 140.45 102.54C143.18 102.54 145.39 104.75 145.39 107.48C145.39 110.21 143.18 112.42 140.45 112.42Z" /><path class="shp5" d="M129.14 110.54C126.41 110.54 124.2 108.33 124.2 105.6C124.2 102.86 126.41 100.66 129.14 100.66C131.87 100.66 134.08 102.86 134.08 105.6C134.08 108.33 131.87 110.54 129.14 110.54Z" /><path class="shp5" d="M117.84 109.42C115.1 109.42 112.9 107.21 112.9 104.48C112.9 101.75 115.1 99.54 117.84 99.54C120.57 99.54 122.78 101.75 122.78 104.48C122.78 107.21 120.57 109.42 117.84 109.42Z" /><path class="shp5" d="M106.75 110.05C104.02 110.05 101.81 107.84 101.81 105.11C101.81 102.38 104.02 100.17 106.75 100.17C109.48 100.17 111.69 102.38 111.69 105.11C111.69 107.84 109.48 110.05 106.75 110.05Z" /><path class="shp5" d="M96.18 113.67C93.45 113.67 91.24 111.46 91.24 108.73C91.24 106 93.45 103.79 96.18 103.79C98.91 103.79 101.12 106 101.12 108.73C101.12 111.46 98.91 113.67 96.18 113.67Z" /><path class="shp5" d="M87.28 120.22C84.54 120.22 82.34 118.01 82.34 115.28C82.34 112.55 84.54 110.34 87.28 110.34C90.01 110.34 92.22 112.55 92.22 115.28C92.22 118.01 90.01 120.22 87.28 120.22Z" /><path class="shp5" d="M80.96 129.35C78.22 129.35 76.02 127.15 76.02 124.41C76.02 121.68 78.22 119.47 80.96 119.47C83.69 119.47 85.9 121.68 85.9 124.41C85.9 127.15 83.69 129.35 80.96 129.35Z" /><path class="shp5" d="M77.91 140.1C75.18 140.1 72.97 137.89 72.97 135.16C72.97 132.42 75.18 130.22 77.91 130.22C80.64 130.22 82.85 132.42 82.85 135.16C82.85 137.89 80.64 140.1 77.91 140.1Z" /><path class="shp5" d="M78.03 151.24C75.29 151.24 73.09 149.03 73.09 146.3C73.09 143.57 75.29 141.36 78.03 141.36C80.76 141.36 82.97 143.57 82.97 146.3C82.97 149.03 80.76 151.24 78.03 151.24Z" /><path class="shp5" d="M80.15 162.16C77.42 162.16 75.21 159.95 75.21 157.22C75.21 154.48 77.42 152.27 80.15 152.27C82.88 152.27 85.09 154.48 85.09 157.22C85.09 159.95 82.88 162.16 80.15 162.16Z" /><path class="shp5" d="M165 119.53L164.54 125.97C152.25 124.08 134.82 117.23 118.58 117.23C103.58 117.23 91.93 123.24 91.93 138.37C91.93 153.29 98.25 166.86 106.63 180.65L97.9 184.79C90.1 169.62 83.66 156.74 83.66 139.29C83.66 124.69 95.14 110.34 114.91 110.34C132.43 110.34 150.3 116.24 165 119.53Z" /></g><g ><path class="shp2" d="M177.56 122.29L179.4 184.79L242.82 184.79C250.62 169.62 257.06 156.74 257.06 139.29C257.06 124.69 245.58 113.1 229.03 113.1C211.51 113.1 192.26 119 177.56 122.29Z" /><g ><path class="shp3" d="M249.48 125.16L249.48 161.24" /><path class="shp3" d="M244.39 121.48L244.39 169.51" /><path class="shp3" d="M239.29 118.95L239.29 176.18" /><path class="shp3" d="M234.2 117.77L234.2 162.65" /><path class="shp3" d="M229.11 117.55L229.11 162.87" /><path class="shp3" d="M224.01 115.96L224.01 162.85" /><path class="shp3" d="M218.92 115.96L218.92 162.85" /><path class="shp3" d="M213.83 116.42L213.83 163.31" /><path class="shp3" d="M208.73 116.88L208.73 163.77" /><path class="shp3" d="M203.64 119.87L203.64 166.76" /><path class="shp3" d="M198.55 120.33L198.55 173.19" /><path class="shp3" d="M193.45 120.33L193.45 167.22" /><path class="shp3" d="M188.36 120.33L188.36 167.22" /><path class="shp4" d="M217.54 117.92C206.78 119.7 183.14 130.76 185.83 145.73C189.65 166.94 202.04 158.42 218.46 155.38L230.87 159.51C235.31 164.04 241.85 168.2 246.26 162.73L253.62 162.73L253.62 191.45L172.28 191.45L172.28 122.06L217.54 117.92Z" /></g><path class="shp5" d="M181.12 117.92C183.85 117.92 186.06 115.71 186.06 112.98C186.06 110.25 183.85 108.04 181.12 108.04C178.39 108.04 176.18 110.25 176.18 112.98C176.18 115.71 178.39 117.92 181.12 117.92Z" /><path class="shp5" d="M192.22 115.25C194.96 115.25 197.16 113.04 197.16 110.31C197.16 107.58 194.96 105.37 192.22 105.37C189.49 105.37 187.28 107.58 187.28 110.31C187.28 113.04 189.49 115.25 192.22 115.25Z" /><path class="shp5" d="M203.49 112.42C206.22 112.42 208.43 110.21 208.43 107.48C208.43 104.75 206.22 102.54 203.49 102.54C200.76 102.54 198.55 104.75 198.55 107.48C198.55 110.21 200.76 112.42 203.49 112.42Z" /><path class="shp5" d="M214.79 110.54C217.53 110.54 219.73 108.33 219.73 105.6C219.73 102.86 217.53 100.66 214.79 100.66C212.06 100.66 209.85 102.86 209.85 105.6C209.85 108.33 212.06 110.54 214.79 110.54Z" /><path class="shp5" d="M226.1 109.42C228.83 109.42 231.04 107.21 231.04 104.48C231.04 101.75 228.83 99.54 226.1 99.54C223.37 99.54 221.16 101.75 221.16 104.48C221.16 107.21 223.37 109.42 226.1 109.42Z" /><path class="shp5" d="M237.19 110.05C239.92 110.05 242.13 107.84 242.13 105.11C242.13 102.38 239.92 100.17 237.19 100.17C234.46 100.17 232.25 102.38 232.25 105.11C232.25 107.84 234.46 110.05 237.19 110.05Z" /><path class="shp5" d="M247.76 113.67C250.49 113.67 252.7 111.46 252.7 108.73C252.7 106 250.49 103.79 247.76 103.79C245.03 103.79 242.82 106 242.82 108.73C242.82 111.46 245.03 113.67 247.76 113.67Z" /><path class="shp5" d="M256.66 120.22C259.39 120.22 261.6 118.01 261.6 115.28C261.6 112.55 259.39 110.34 256.66 110.34C253.93 110.34 251.72 112.55 251.72 115.28C251.72 118.01 253.93 120.22 256.66 120.22Z" /><path class="shp5" d="M262.98 129.35C265.71 129.35 267.92 127.15 267.92 124.41C267.92 121.68 265.71 119.47 262.98 119.47C260.25 119.47 258.04 121.68 258.04 124.41C258.04 127.15 260.25 129.35 262.98 129.35Z" /><path class="shp5" d="M266.03 140.1C268.76 140.1 270.97 137.89 270.97 135.16C270.97 132.42 268.76 130.22 266.03 130.22C263.29 130.22 261.09 132.42 261.09 135.16C261.09 137.89 263.29 140.1 266.03 140.1Z" /><path class="shp5" d="M265.91 151.24C268.64 151.24 270.85 149.03 270.85 146.3C270.85 143.57 268.64 141.36 265.91 141.36C263.18 141.36 260.97 143.57 260.97 146.3C260.97 149.03 263.18 151.24 265.91 151.24Z" /><path class="shp5" d="M263.79 162.16C266.52 162.16 268.73 159.95 268.73 157.22C268.73 154.48 266.52 152.27 263.79 152.27C261.05 152.27 258.84 154.48 258.84 157.22C258.84 159.95 261.05 162.16 263.79 162.16Z" /><path class="shp5" d="M178.94 119.53L179.4 125.97C191.69 124.08 209.11 117.23 225.35 117.23C240.36 117.23 252.01 123.24 252.01 138.37C252.01 153.29 245.69 166.86 237.3 180.65L246.03 184.79C253.84 169.62 260.28 156.74 260.28 139.29C260.28 124.69 248.8 110.34 229.03 110.34C211.51 110.34 193.64 116.24 178.94 119.53Z" /></g><path class="shp5" d="M171.97 53.13L166.81 62.78L171.97 72.41L177.13 62.78L171.97 53.13ZM171.97 77.5L166.81 87.13L171.97 96.78L177.13 87.13L171.97 77.5Z" /><path class="shp5" d="M153.59 74.95L161.72 80.11L169.82 74.95L161.72 69.8L153.59 74.95ZM174.11 74.95L182.22 80.11L190.35 74.95L182.22 69.8L174.11 74.95Z" /><path class="shp5" d="M171.97 78.98C169.81 78.98 168.06 77.23 168.06 75.07C168.06 72.91 169.81 71.16 171.97 71.16C174.13 71.16 175.88 72.91 175.88 75.07C175.88 77.23 174.13 78.98 171.97 78.98Z" /><path class="shp5" d="M171.97 110.45C166.19 110.45 161.51 105.78 161.51 100C161.51 94.22 166.19 89.55 171.97 89.55C177.75 89.55 182.42 94.22 182.42 100C182.42 105.78 177.75 110.45 171.97 110.45Z" /><path class="shp6" d="M169.34 89.88C169.34 92.99 169.32 94.8 169.31 96.5C166.79 96.61 164.31 96.88 161.88 97.28M182.06 97.28C179.63 96.88 177.15 96.61 174.63 96.5C174.63 94.8 174.63 93 174.63 89.88M161.84 102.56C165.14 102.01 168.52 101.72 171.97 101.72C175.42 101.72 178.8 102.01 182.09 102.56" /><path class="shp5" d="M161.75 117.69C160.76 134.77 158.74 152.17 152.09 164.81L162.91 160.44C166.68 146.11 167.48 127.59 168.63 118.84L161.75 117.69ZM182.19 117.69L175.31 118.84C176.46 127.59 177.25 146.11 181.03 160.44L191.84 164.81C185.2 152.17 183.18 134.77 182.19 117.69Z" /><path class="shp5" d="M171.95 154.69C159.04 154.69 149.55 160.77 148.98 176.28C145.83 170.73 132.47 153.26 120.02 155.59C112.61 156.98 106.06 167.26 107.17 179.03C101.04 161.4 83.07 158.51 69.95 168.94C81.6 178.51 86.77 206.77 96.58 219.03L171.95 219.03L247.33 219.03C257.13 206.77 262.34 178.51 273.98 168.94C260.87 158.51 242.9 161.4 236.77 179.03C237.88 167.26 231.3 156.98 223.89 155.59C211.43 153.26 198.11 170.73 194.95 176.28C194.38 160.77 184.87 154.69 171.95 154.69Z" /><g ><path class="shp4" d="M247.11 219.03C247.11 224.61 213.44 230.74 171.97 230.74C130.49 230.74 96.83 224.61 96.83 219.03C96.83 213.44 130.49 210.52 171.97 210.52C213.44 210.52 247.11 213.44 247.11 219.03Z" /><path class="shp3" d="M171.97 117.95C170.03 117.95 168.46 116.38 168.46 114.44C168.46 112.51 170.03 110.94 171.97 110.94C173.91 110.94 175.47 112.51 175.47 114.44C175.47 116.38 173.91 117.95 171.97 117.95Z" /><path class="shp3" d="M171.97 125.76C169.9 125.76 168.23 124.09 168.23 122.03C168.23 119.96 169.9 118.29 171.97 118.29C174.03 118.29 175.7 119.96 175.7 122.03C175.7 124.09 174.03 125.76 171.97 125.76Z" /><path class="shp3" d="M171.97 134.26C169.71 134.26 167.89 132.44 167.89 130.18C167.89 127.93 169.71 126.11 171.97 126.11C174.22 126.11 176.05 127.93 176.05 130.18C176.05 132.44 174.22 134.26 171.97 134.26Z" /><path class="shp3" d="M171.97 143.91C169.4 143.91 167.32 141.83 167.32 139.26C167.32 136.69 169.4 134.61 171.97 134.61C174.54 134.61 176.62 136.69 176.62 139.26C176.62 141.83 174.54 143.91 171.97 143.91Z" /><path class="shp3" d="M171.97 154.48C169.14 154.48 166.86 152.2 166.86 149.37C166.86 146.54 169.14 144.26 171.97 144.26C174.8 144.26 177.08 146.54 177.08 149.37C177.08 152.2 174.8 154.48 171.97 154.48Z" /><path class="shp7" d="M169.94 159.21C169.38 159.2 168.86 159.66 169 160.55C169.16 161.59 169.37 163.54 169.56 164.86C169.78 166.36 170.65 165.99 170.88 164.83C171.1 163.67 171.01 162.93 171.06 160.77C171.09 159.69 170.49 159.21 169.94 159.21ZM174 159.21C173.45 159.21 172.85 159.69 172.88 160.77C172.93 162.93 172.84 163.67 173.06 164.83C173.28 165.99 174.15 166.36 174.38 164.86C174.57 163.54 174.77 161.59 174.94 160.55C175.08 159.66 174.55 159.2 174 159.21ZM166.31 159.77C165.81 159.84 165.28 160.35 165.31 160.89C165.37 161.89 165.64 163.08 165.75 164.58C165.86 166.13 166.95 165.53 167.06 164.64C167.17 163.76 167.3 162.45 167.19 160.74C167.15 160.09 166.87 159.81 166.53 159.77C166.46 159.76 166.38 159.76 166.31 159.77ZM177.41 159.77C177.07 159.81 176.79 160.09 176.75 160.74C176.64 162.45 176.76 163.76 176.88 164.64C176.99 165.53 178.08 166.13 178.19 164.58C178.29 163.08 178.57 161.89 178.63 160.89C178.66 160.35 178.13 159.84 177.63 159.77C177.55 159.76 177.48 159.76 177.41 159.77ZM161.97 161.52C161.51 161.64 161.08 162.19 161.22 162.83C161.5 164.1 161.75 165.51 161.75 166.8C161.75 167.91 162.69 167.51 162.75 166.74C162.81 165.96 162.91 164.32 162.91 162.83C162.91 161.72 162.43 161.4 161.97 161.52ZM181.66 161.52C181.33 161.61 181.03 161.99 181.03 162.83C181.03 164.32 181.13 165.96 181.19 166.74C181.24 167.51 182.19 167.91 182.19 166.8C182.19 165.51 182.44 164.1 182.72 162.83C182.86 162.19 182.43 161.64 181.97 161.52C181.85 161.49 181.77 161.49 181.66 161.52ZM122.56 161.69C122.01 161.67 121.62 162.42 122 163.25C122.61 164.58 123.25 165.42 123.88 166.85C124.43 168.12 125.28 167.32 125 166.44C124.72 165.55 124.42 164.57 123.59 162.69C123.28 161.98 122.89 161.7 122.56 161.69ZM221.38 161.69C221.04 161.7 220.65 161.98 220.34 162.69C219.51 164.57 219.21 165.55 218.94 166.44C218.66 167.32 219.51 168.12 220.06 166.85C220.68 165.42 221.33 164.58 221.94 163.25C222.32 162.42 221.93 161.67 221.38 161.69ZM126.56 161.75C126.15 161.88 125.91 162.39 126.16 163C126.65 164.22 127.37 165.47 127.88 166.78C128.32 167.94 129.3 167.61 128.97 166.56C128.64 165.51 128.54 164.9 127.88 162.91C127.54 161.91 126.97 161.63 126.56 161.75ZM217.06 161.75C216.71 161.83 216.31 162.16 216.06 162.91C215.4 164.9 215.3 165.51 214.97 166.56C214.64 167.61 215.62 167.94 216.06 166.78C216.56 165.47 217.28 164.22 217.78 163C218.03 162.39 217.78 161.88 217.38 161.75C217.27 161.72 217.18 161.73 217.06 161.75ZM131.56 162.72C131.05 162.82 130.65 163.6 131 164.56C131.44 165.78 132.07 166.93 132.63 168.31C133.18 169.7 134.1 169.42 133.88 168.53C133.65 167.65 133.38 166.18 132.72 163.97C132.43 163 131.96 162.64 131.56 162.72ZM212.38 162.72C211.98 162.64 211.51 163 211.22 163.97C210.55 166.18 210.28 167.65 210.06 168.53C209.84 169.42 210.76 169.7 211.31 168.31C211.87 166.93 212.49 165.78 212.94 164.56C213.29 163.6 212.89 162.82 212.38 162.72ZM119.19 163.41C118.63 163.46 118.12 164.37 118.47 165.06C119.02 166.17 119.37 166.55 119.91 167.72C120.46 168.94 121.07 167.99 120.84 167.22C120.62 166.45 120.34 165.54 120.06 164.44C119.86 163.63 119.52 163.37 119.19 163.41ZM224.75 163.41C224.42 163.37 224.08 163.63 223.88 164.44C223.6 165.54 223.32 166.45 223.09 167.22C222.87 167.99 223.48 168.94 224.03 167.72C224.57 166.55 224.92 166.17 225.47 165.06C225.81 164.37 225.31 163.46 224.75 163.41ZM157.72 166.21C157.14 166.21 156.51 166.98 156.72 167.71C157.05 168.87 157.56 169.9 157.94 171.39C158.27 172.72 159.21 172.06 159.16 171.17C159.1 170.29 158.95 169.09 158.56 167.21C158.42 166.5 158.07 166.21 157.72 166.21ZM186.22 166.21C185.87 166.21 185.52 166.5 185.38 167.21C184.99 169.09 184.84 170.29 184.78 171.17C184.73 172.06 185.67 172.72 186 171.39C186.37 169.9 186.89 168.87 187.22 167.71C187.43 166.98 186.8 166.21 186.22 166.21ZM171.97 167.39C171.25 167.39 171.15 168.36 171.13 169.14C171.04 171.71 169.98 174.21 169.06 175.46C168.15 176.7 166.81 176.37 165.56 175.71C164.32 175.04 163.58 174.55 162.25 173.55C160.92 172.55 159.92 173.14 161.5 175.39C166.12 181.97 171.13 187.6 171.13 198.33C171.13 199.72 171.37 200.14 171.97 200.14C172.57 200.14 172.84 199.72 172.84 198.33C172.84 187.6 177.82 181.97 182.44 175.39C184.02 173.14 183.01 172.55 181.69 173.55C180.36 174.55 179.62 175.04 178.38 175.71C177.13 176.37 175.79 176.7 174.88 175.46C173.96 174.21 172.9 171.71 172.81 169.14C172.79 168.36 172.69 167.39 171.97 167.39ZM136.69 165.78C136.62 165.78 136.56 165.8 136.5 165.81C136.23 165.9 136.05 166.22 136.16 166.78C136.34 167.79 137.04 169.75 137.31 170.69C137.59 171.63 138.75 171.43 138.47 170.16C138.19 168.89 138.21 168.5 137.88 167.06C137.69 166.28 137.13 165.8 136.69 165.78ZM207.25 165.78C206.81 165.8 206.24 166.28 206.06 167.06C205.73 168.5 205.75 168.89 205.47 170.16C205.19 171.43 206.35 171.63 206.63 170.69C206.9 169.75 207.6 167.79 207.78 166.78C207.89 166.22 207.71 165.9 207.44 165.81C207.38 165.8 207.31 165.78 207.25 165.78ZM115.72 166.19C115.14 166.23 114.72 166.96 115.31 168.03C115.95 169.19 117.03 170.64 117.53 171.47C118.03 172.3 118.89 171.74 118.28 170.69C117.67 169.64 117.47 168.43 116.75 166.94C116.48 166.38 116.07 166.16 115.72 166.19ZM228.22 166.19C227.87 166.16 227.46 166.38 227.19 166.94C226.47 168.43 226.26 169.64 225.66 170.69C225.05 171.74 225.91 172.3 226.41 171.47C226.9 170.64 227.99 169.19 228.63 168.03C229.21 166.96 228.8 166.23 228.22 166.19ZM84.03 169.52C83.36 169.48 83.15 170.69 83.78 171.49C84.69 172.65 85.33 173.26 86.38 174.21C87.2 174.95 87.45 173.98 87.03 173.24C86.62 172.49 86.02 171.73 85.19 170.49C84.73 169.81 84.33 169.53 84.03 169.52ZM259.91 169.52C259.6 169.53 259.2 169.81 258.75 170.49C257.92 171.73 257.32 172.49 256.91 173.24C256.49 173.98 256.73 174.95 257.56 174.21C258.61 173.26 259.24 172.65 260.16 171.49C260.78 170.69 260.57 169.48 259.91 169.52ZM89.06 170.52C88.53 170.53 88.18 170.92 88.59 171.83C89.19 173.14 89.97 174.62 90.47 175.61C90.97 176.61 92.48 176.94 91.88 175.39C91.27 173.85 91.15 173.05 90.59 171.61C90.32 170.89 89.59 170.51 89.06 170.52ZM254.88 170.52C254.34 170.51 253.62 170.89 253.34 171.61C252.79 173.05 252.67 173.85 252.06 175.39C251.45 176.94 252.97 176.61 253.47 175.61C253.97 174.62 254.75 173.14 255.34 171.83C255.76 170.92 255.41 170.53 254.88 170.52ZM79.31 170.86C78.54 170.87 78.47 171.65 79.16 172.14C80.07 172.81 81.16 173.54 82.22 174.39C83.46 175.39 83.94 174.47 83.28 173.64C82.62 172.81 81.97 171.97 80.31 171.14C79.9 170.94 79.57 170.86 79.31 170.86ZM264.63 170.86C264.37 170.86 264.04 170.94 263.63 171.14C261.97 171.97 261.32 172.81 260.66 173.64C259.99 174.47 260.47 175.39 261.72 174.39C262.78 173.54 263.87 172.81 264.78 172.14C265.47 171.65 265.4 170.87 264.63 170.86ZM154.97 171.58C154.54 171.64 154.16 172.13 154.34 172.77C154.68 173.93 155.05 175.16 155.28 176.36C155.5 177.52 156.85 177.54 156.63 176.49C156.4 175.44 156.29 174.12 155.91 172.52C155.76 171.92 155.46 171.63 155.16 171.58C155.09 171.57 155.03 171.57 154.97 171.58ZM188.78 171.58C188.48 171.63 188.18 171.92 188.03 172.52C187.64 174.12 187.53 175.44 187.31 176.49C187.09 177.54 188.43 177.52 188.66 176.36C188.89 175.16 189.26 173.93 189.59 172.77C189.78 172.13 189.4 171.64 188.97 171.58C188.91 171.57 188.84 171.57 188.78 171.58ZM124.88 169.6C124.54 169.69 124.34 170.34 124.59 171.25C126 176.31 126.44 178.98 126.19 180.22C125.94 181.46 125.26 181.64 124.34 181.22C123.43 180.81 122.36 180.21 121.53 179.63C120.7 179.05 119.84 179.74 121.03 180.72C127.09 185.7 131.28 191.38 132.91 198.28C133.24 199.69 134.12 199.86 133.88 198.28C132.5 189.59 132.24 182.45 134.31 177.97C135.09 176.29 134.31 174.67 133.06 177.41C132.23 179.23 130.89 179.95 129.81 178.38C128.73 176.8 126.51 172.6 125.84 170.69C125.59 169.97 125.29 169.64 125.03 169.6C124.98 169.59 124.92 169.58 124.88 169.6ZM218.91 169.6C218.65 169.64 218.34 169.97 218.09 170.69C217.43 172.6 215.2 176.8 214.13 178.38C213.05 179.95 211.7 179.23 210.88 177.41C209.63 174.67 208.85 176.29 209.63 177.97C211.7 182.45 211.43 189.59 210.06 198.28C209.81 199.86 210.7 199.69 211.03 198.28C212.65 191.38 216.85 185.7 222.91 180.72C224.1 179.74 223.24 179.05 222.41 179.63C221.58 180.21 220.51 180.81 219.59 181.22C218.68 181.64 218 181.46 217.75 180.22C217.5 178.98 217.93 176.31 219.34 171.25C219.6 170.34 219.4 169.69 219.06 169.6C219.01 169.58 218.96 169.59 218.91 169.6ZM94.44 172.02C93.89 172.03 93.44 172.41 93.69 173.24C94.09 174.57 94.91 176 95.19 176.83C95.46 177.66 96.35 177.27 96.19 176.11C96.02 174.95 95.94 174.26 95.72 172.99C95.61 172.35 94.98 172.01 94.44 172.02ZM249.5 172.02C248.95 172.01 248.33 172.35 248.22 172.99C248 174.26 247.92 174.95 247.75 176.11C247.58 177.27 248.47 177.66 248.75 176.83C249.03 176 249.85 174.57 250.25 173.24C250.5 172.41 250.05 172.03 249.5 172.02ZM113.22 170.28C112.58 170.17 112.49 171.81 113.03 172.47C113.75 173.36 114.75 174.43 115.75 175.63C116.58 176.62 117.09 175.74 116.59 174.91C116.1 174.08 115.36 173.2 114.03 171.1C113.7 170.57 113.43 170.32 113.22 170.28ZM230.72 170.28C230.51 170.32 230.24 170.57 229.91 171.1C228.58 173.2 227.84 174.08 227.34 174.91C226.85 175.74 227.36 176.62 228.19 175.63C229.19 174.43 230.19 173.36 230.91 172.47C231.45 171.81 231.35 170.17 230.72 170.28ZM98.72 174.24C98.32 174.21 97.99 174.53 98.16 175.33C98.39 176.45 98.72 177.37 99 178.42C99.28 179.48 100 179.3 100 178.3C100 177.3 99.82 176.19 99.66 175.14C99.57 174.62 99.11 174.26 98.72 174.24ZM245.22 174.24C244.82 174.26 244.36 174.62 244.28 175.14C244.12 176.19 243.94 177.3 243.94 178.3C243.94 179.3 244.66 179.48 244.94 178.42C245.21 177.37 245.55 176.45 245.78 175.33C245.95 174.53 245.61 174.21 245.22 174.24ZM111.81 175.66C111.19 175.75 110.65 176.35 111.38 177.28C112.54 178.78 113.81 179.82 114.25 180.38C114.69 180.93 115.81 180.73 115.09 179.56C114.36 178.38 113.25 176.95 112.75 176.06C112.56 175.73 112.18 175.6 111.81 175.66ZM231.88 175.66C231.6 175.69 231.33 175.82 231.19 176.06C230.69 176.95 229.58 178.38 228.84 179.56C228.12 180.73 229.25 180.93 229.69 180.38C230.13 179.82 231.4 178.78 232.56 177.28C233.29 176.35 232.74 175.75 232.13 175.66C232.03 175.64 231.97 175.65 231.88 175.66ZM91.16 179.83C90.67 179.79 90.5 180.18 91.16 181.08C92.65 183.13 94.3 186.22 94.41 187.55C94.52 188.88 93.86 188.86 93.25 188.86C91.43 188.86 90.53 187.53 88.88 187.14C87.22 186.76 86.98 187.63 88.16 188.49C94.24 192.91 100.34 197.85 102.78 202.33C103.78 204.16 105.12 204.82 104.38 203.08C102.09 197.74 101.53 193.22 102.03 190.49C102.53 187.75 103.21 185.91 103.13 184.33C103.04 182.76 102.15 182.86 101.78 184.33C101.53 185.33 101.05 186.65 100.72 187.14C100.39 187.64 99.05 187.92 97.78 186.21C96.51 184.49 93.3 181.19 92.25 180.36C91.86 180.05 91.45 179.86 91.16 179.83ZM252.78 179.83C252.49 179.86 252.08 180.05 251.69 180.36C250.64 181.19 247.43 184.49 246.16 186.21C244.88 187.92 243.55 187.64 243.22 187.14C242.89 186.65 242.41 185.33 242.16 184.33C241.79 182.86 240.9 182.76 240.81 184.33C240.73 185.91 241.41 187.75 241.91 190.49C242.4 193.22 241.85 197.74 239.56 203.08C238.82 204.82 240.16 204.16 241.16 202.33C243.6 197.85 249.7 192.91 255.78 188.49C256.96 187.63 256.72 186.76 255.06 187.14C253.4 187.53 252.51 188.86 250.69 188.86C250.08 188.86 249.42 188.88 249.53 187.55C249.64 186.22 251.29 183.13 252.78 181.08C253.44 180.18 253.27 179.79 252.78 179.83Z" /><path class="shp3" d="M100.13 212.65L102.08 218.83M104.14 211.48L105.87 217.72M108.47 210.77L109.66 217.13M112.49 209.96L113.76 216.31M117.65 209.46L118.68 215.85M123.13 209.46L124.24 215.84M128.48 207.65L129.29 214.08M133.52 207.98L134.32 214.4M138.4 207.33L139.2 213.75M143.29 206.82L143.73 213.28M148.52 206.82L148.9 213.28M153.26 206.49L153.58 212.96M158.48 206.17L158.75 212.64M164.5 206L164.77 212.47M243.81 212.65L241.86 218.83M239.8 211.48L238.07 217.72M235.47 210.77L234.28 217.13M231.45 209.96L230.18 216.31M226.29 209.46L225.26 215.85M220.81 209.46L219.7 215.84M215.45 207.65L214.65 214.08M210.42 207.98L209.61 214.4M205.54 207.33L204.74 213.75M200.65 206.82L200.21 213.28M195.42 206.82L195.04 213.28M190.68 206.49L190.35 212.96M185.45 206.17L185.18 212.64M179.44 206L179.17 212.47M171.97 205.58L171.97 212.71" /></g></g></svg>