<svg version="1.2" xmlns="http://www.w3.org/2000/svg" viewBox="0 0 900 600" width="900" height="600">
	<title></title>
	<style>
		.s0 { fill: #dd0000 } 
		.s1 { fill: #ffffff } 
		.s2 { fill: #003893 } 
		.s3 { fill: #d3ae3b } 
		.s4 { fill: #b96b29 } 
		.s5 { fill: #1d5e91 } 
		.s6 { fill: #6d8c3e } 
		.s7 { fill: #c40308 } 
	</style>
	<path id="Layer" class="s0" d="m0 0h900v600h-900z"/>
	<path id="Layer" class="s1" d="m0 0h900v400h-900z"/>
	<path id="Layer" class="s2" d="m0 0h900v200h-900z"/>
	<g id="g6">
	</g>
	<path id="Layer" class="s3" d="m300 0v600h-300v-600z"/>
	<path id="Layer" class="s0" d="m285 15v570h-270v-570z"/>
	<g id="Layer">
		<path id="Layer" fill-rule="evenodd" class="s4" d="m215.8 296.9c-1.8 0.5-0.4 0.6-0.4 0.6 0 0 0.7-0.1 4.2-0.9 3.6-0.8 9-3.6 10.4-4.5 1.5-1 1.7-1.3 1.5 0.6-0.2 1.9-2.2 6.1-5.5 8-3.3 1.9-9.2 2.9-10.8 3-1.5 0.1-1.1 0.3-0.4 0.4 0.7 0 2.4 0 5.2-0.3 2.8-0.3 7.2-1.9 7.2-1.9 0 0-0.2 4.7-4.1 7.1-3.9 2.4-11.8 2.6-11.8 2.6 0 0 0.9 0.3 3.7 0.3 2.8 0 6.5-0.9 6.5-0.9 0 0 0.1 0.2 0.1 0.9 0 0.6-0.2 3.5-4.3 5.6-4.1 2-8.6 0.6-8.6 0.6 0 0 0.4 0.3 1.6 0.8 1.1 0.4 4.3 1 4.3 1 0 2.6-2.2 3.9-3.9 4.5-2.9 1-6.3 0.3-8 0-1.7-0.4-0.7 0.2 0.9 0.9 1.6 0.7 3.9 0.8 3.9 0.8-0.3 1.8-4 3.4-5.3 3.7-3.5 0.8-6 0.3-7.1-0.1-1-0.4-0.8 0.1-0.5 0.4 0.6 0.6 1.7 0.8 1.7 1.7 0 0.3 0 1.3-5.1 1.7-5.2 0.3-6.9-2.5-7.8-3.4-0.9-0.8-0.8-0.4-0.6 0 0.2 0.3 1.1 1.3 1.9 2.4 0.8 1.1 0.4 2.2-3 2.1-2.5-0.1-4.2-2.7-4.9-4.1v0.1c0.9 3.4 3.2 6.2 7 7.8 1.9 0.8 4 1.1 4.9 1.2 0.9 0.2 0.1 1.2 0.1 1.2l-0.9 1.3c0 0 0.1 0.4 1.5 0.8 1.4 0.4 3.1 0.7 4.5 1.1 1.5 0.4-0.4 1.5-1.2 2-0.8 0.4-0.6 0.9-0.2 1.3 0.5 0.4 2.1 1.4 2.9 1.6 0.8 0.3 0.7 0.7-0.1 1.1-0.9 0.3-1.2 0.3-1.2 0.3 0 0-1.1-0.2 0.4 0.9 1.4 1.1 4.6 3.6 5.3 4.1 0.6 0.5 1.4 1.1 1.8 1.1 0.4 0 0.8-0.3 0.4-1-0.5-0.8-1-2.3-2.5-3.9-1.4-1.5-0.5-4.5 0.5-5.2 1.1-0.7 0.9-1.1 0.9-1.7 0-0.7 1-1.8 1.4-2.2 0.4-0.3 0.8-0.1 1.2-0.9 0.3-0.9 1-2.4 3.4-4.2 2.5-1.8 5.7-1.9 5.7-1.9 0 0 0.9 0 1.4 0 0.5 0 0.8-0.1 1-0.5 0.3-0.4 0.9-1.5 0.9-1.5 0 0 0.3-0.3-0.3-0.3-0.6 0-1.6 0.1-1.8 0-0.2-0.1-0.2-0.5-0.1-1 0.2-0.5 0.6-2.3 0.8-2.7 0.1-0.5 0.4-0.7 0.8-0.4 0.4 0.3 0.9 0.6 1.1 0.7 0.2 0.1 0.6 0.2 0.5-0.2 0-0.4 0-1.4 0-1.6 0-0.3 0.1-0.8 0.7-0.7 0.5 0.1 2.6 0.7 3 0.9 0.5 0.1 0.9 0.2 0.4 0.9-0.4 0.7-0.6 1-0.6 1.2-0.1 0.2-0.1 0.2 0.2 0.3 0.4 0.1 1.2 0.2 1.4 0.3 0.2 0 0.5 0.1 0.3 0.7-0.2 0.6-0.6 1.7-0.7 2.3-0.2 0.6-0.5 0.9-1 0.8-0.5-0.1-0.8-0.5-1.1-0.6-0.2-0.2-0.3-0.2-0.3 0.2 0 0.4-0.1 2.2-0.1 2.2 0 0 0.5 0.2 0.7 0.4 0.3 0.2 0.4 0.6 0.4 0.6 3.1 1.2 5.4 5.2 5.2 8.3 0 1.5-0.1 1.7 0.4 2.2 0.5 0.5 0.7 1.7 0.6 2.1-0.1 0.4-0.2 0.8 0.1 1 0.2 0.2 0.9 1.1 0.9 1.7 0 0.6-0.4 2.3-0.7 2.9-0.3 0.6-2.5 1.8-5.6 3.1-3 1.3-10.6 3.8-13.5 4.7-2.8 0.9-5.8 1-8-0.7-2.1-1.6-2.4-2.2-5-3.3-1-0.5-2.4-1-3.6-1.4-2-0.7-3.8-1.2-3.8-1.2 0 0.5-0.1 1.2-0.5 1.6-0.7 0.8-1.6-0.6-4.6-2.8-3.1-2.2-5.4-3-5.4-3 0 0-0.7 1-1.5 2.1-0.8 1-1.6-0.1-5.3-5.3-3-4.1-6.9-7.9-8.5-9.2q-0.5 0.2-1.1 0.4 0.1 0.4 0.3 0.7c0.3 1.1 0.9 1.8 1.6 3.3 0.7 1.5 1.8 1.8 3.1 3.9 1.3 2 1.5 3.4 1.6 5.4 0.2 2.1-1 2.5-1 2.5 0 0 1.9 1.9 2.5 3.3 0.5 1.3 0.8 4.1 0.8 4.1 0 0 0.3 0.2 1 1.6 0.7 1.4 2 1.6 3.8 3.4 1.8 1.9 3.8 2.6 4.8 3.2 0.9 0.6 0.6 1.1 0.4 1.8-0.3 0.8-1.6 1.5-3.1 2.1-1.5 0.5-2 0.3-3 0.3-1.1-0.1-0.3 0.8 0.2 1.2 0.4 0.4 1 1.9 0.9 3.6-0.1 1.7-1.4 1.3-2.9 1-1.6-0.2-3.4-1-3.4-1 0 0 0 0 0.2 0.5 0.2 0.5 0.3 0.8 0.3 2.1 0 1.4-0.3 2-0.6 2.4-0.4 0.3-1.2-0.4-1.8-0.6-0.5-0.2-1.5-0.7-2.9-1-1.3-0.3-1.9-0.9-1.9-0.9 0 0 0.4 0.4 0.5 1.3 0.1 1 0 2.4-0.2 3.2-0.2 0.9-0.8 1.8-1.8 2.7-0.9 0.9-1.1 0.5-1.8-0.6-0.7-1.1-2.1-2.5-2.1-2.5 0 0-0.1 0.4-1.1 3.5-0.9 3-4 5.6-4 5.6 0 0-3.1-2.6-4.1-5.6-0.9-3.1-1-3.5-1-3.5 0 0-1.4 1.4-2.1 2.5-0.7 1.1-0.9 1.5-1.9 0.6-0.9-0.9-1.5-1.8-1.7-2.7-0.3-0.8-0.3-2.2-0.2-3.2 0.1-0.9 0.4-1.3 0.4-1.3 0 0-0.5 0.6-1.9 0.9-1.4 0.3-2.3 0.8-2.9 1-0.5 0.2-1.3 0.9-1.7 0.6-0.4-0.4-0.6-1-0.6-2.4 0-1.3 0.1-1.6 0.3-2.1 0.1-0.5 0.1-0.5 0.1-0.5 0 0-1.8 0.8-3.3 1-1.6 0.3-2.8 0.7-2.9-1-0.1-1.7 0.5-3.2 0.9-3.6 0.4-0.4 1.2-1.3 0.2-1.2-1 0-1.6 0.2-3.1-0.3-1.5-0.6-2.8-1.3-3-2.1-0.3-0.7-0.5-1.2 0.4-1.8 1-0.6 3-1.3 4.8-3.2 1.8-1.8 3.1-2 3.7-3.4 0.7-1.4 1-1.6 1-1.6 0 0 0.3-2.8 0.9-4.1 0.6-1.4 2.5-3.3 2.5-3.3 0 0-1.2-0.4-1.1-2.5 0.2-2 0.3-3.4 1.6-5.4 1.3-2.1 2.4-2.4 3.2-3.9 0.7-1.5 1.3-2.2 1.6-3.3q0.1-0.4 0.2-0.7-0.4-0.2-0.8-0.4c-1.5 1.4-5.4 5.2-8.4 9.3-3.8 5.2-4.5 6.3-5.3 5.3-0.8-1.1-1.5-2.1-1.5-2.1 0 0-2.3 0.8-5.4 3-3.1 2.1-4 3.5-4.7 2.8-0.7-0.8-0.6-2.4-0.6-2.4 0 0-2.7 1.2-3.7 1.9-1 0.6-2.7 2-3.4 2.8-0.6 0.8-1.7 1.5-2.2 2.1-0.5 0.6-1.2 2.5-1.7 2.8-0.4 0.4-0.9 1-1.2 1.4-0.4 0.4-1.1 1.2-1.1 1.2 0 0 0.1 0.7-0.1 1.1-0.2 0.3-0.6 0.6-0.6 0.9 0 0.3-0.4 0.5 0.5 1.1 0.9 0.6 1.1 1 2.6 1.8 1.4 0.7 2 0.7 2 1.1 0 0.5-0.6 0.7-1.1 0.9-1 0.4-2.2 0.5-2.4 0.6-0.3 0.2-0.4 1.7-0.4 2.3 0 0.7 0.1 1.4-0.2 1.5-0.3 0-1.4-0.4-2.2-0.9-0.7-0.5-0.9-0.8-1.7-0.3-0.9 0.5-1.7 0.8-2 0.3-0.3-0.4 0.2-1.3 0.2-2.2 0-0.9 0.2-3-0.2-3.6-0.3-0.6-0.7-0.9-1.3-0.6-0.6 0.3-1.9 0.5-2.6 0.1-0.7-0.4-1.8-1-1.8-1.5-0.1-0.6-0.3-1.4-0.3-1.4 0 0-1.6-0.4-2.5-1.1-0.8-0.7-1.5-1.7-1.4-2.7 0-1 0.4-1 0.4-1 0 0-1.9-1.2-2.1-2.5-0.2-1.3-0.3-1.9 0.2-2.8 0.5-1 1.3-1.8 2.1-2.3 0.7-0.6 1.1-0.4 1.2-0.6 0.1-0.3 0-0.5-0.6-1-0.6-0.6-2.8-3.6-3.1-6.3-0.3-2.7 0-4.2 0-4.2 0 0 0.2-0.6-0.4-0.8-0.6-0.2-1.8-1-2.1-2.3-0.2-1.4 0.4-2.2 0.4-2.2 0 0 0.3-0.4-0.3-0.8-0.6-0.5-5-4-5.8-10.9-0.9-6.9-1.2-11.3-2.5-13.7-1.4-2.4-2.6-2.9-3.6-3.2-1.1-0.3-1.3-1.1-0.4-1.7 0.8-0.6 1.6-0.8 1.6-0.8l-0.6-2.3-1.7 1c0 0-0.5 0.3-0.7-0.2-0.2-0.6-1-2.5-1.2-2.9-0.1-0.3-0.3-0.7 0.3-0.9 0.5-0.1 2.2-0.6 2.2-0.6 0 0-0.5-0.9-0.9-1.6-0.3-0.6-0.9-1.2-0.3-1.5 0.7-0.3 2.5-1 2.9-1.2 0.4-0.2 0.7-0.1 0.7 0.4 0 0.6 0.2 1.6 0.2 1.9 0.1 0.2 0.1 0.7 0.9 0.3 0.8-0.4 1-0.6 1.2-0.7 0.2-0.2 0.6-0.3 0.8 0.4 0 0.3 0.1 0.8 0.3 1.3 1.1 0.4 4.5 1.5 6.8 1.8 2.8 0.3 4.5 0.3 5.2 0.3 0.7-0.1 1.1-0.3-0.4-0.4-1.6-0.1-7.5-1.1-10.8-3-3.3-1.9-5.3-6.1-5.5-8-0.2-1.9 0-1.6 1.4-0.6 1.5 0.9 6.9 3.7 10.5 4.5 3.5 0.8 4.2 0.9 4.2 0.9 0 0 1.2 0-0.5-0.5-1.8-0.5-7.9-2.3-12.2-5.8-4.3-3.5-5.1-6.3-5.5-7.8-0.3-1.5-0.5-2.7 0.7-1.8 1.1 0.8 4.4 3.5 6.7 4.7 2.3 1.3 4.4 1.9 5.6 2.2 1.2 0.4 2.2 0.6 1 0.1-1.2-0.4-5-1.8-8-4.8-3-3-5.4-7.5-5.4-10.2-0.1-2.8 0.1-2.6 1-1.9 0.9 0.7 4 4.6 5.8 6.1 1.8 1.4 4.6 3.4 6.1 4.2 1.4 0.9 3.4 1.8 0.6-0.1-2.8-1.9-8.1-6.5-10.3-12.3-2.1-5.9-1.8-9.3-1.7-9.9 0-0.6 0.5-1.8 1-0.7 0.5 1.1 4.1 8.2 6.9 11.2 2.9 3.1 2.2 2.5 2.8 3 0.7 0.5 1.7 1.4 0.4-0.4-1.4-1.7-4.3-5.7-5.7-9.6-1.5-3.9-1.9-7.9-2-10.1 0-2.3 1-5.4 1.4-6.4 0.5-0.9 0.9-1.6 1.1-0.5 0.1 1.1 2.4 8 3.6 11.4 1.2 3.4 3.7 7.3 4.2 8 0.5 0.7 1.7 2.3 0.4-0.3-1.4-2.5-4.1-10.1-4.4-17.2-0.4-7.1 0.6-11.1 1.6-13 1-2 1.8-2.7 1.8-2.7 0 0-0.1 4.9 1.3 11.9 1.5 7 3.6 10.6 3.6 10.6 0 0 0.9 1.1 0.3-0.6-0.4-1.2-1.3-3.6-1.7-7.9-0.4-4.4-0.4-9.4 0.9-13.7 1.4-4.6 3.8-7 3.8-7 0.7 6.7 0.5 15.3 3 22.3 0.5-0.4 1.1-1.2 1.3 0.3 0.5 2.3 1.3 6.6 4.4 12.1 3 5.5 4.2 6.2 4.2 6.2 0 0 0.6-1.3 1-2 0.4-0.8 0.6-1.1 1.1-0.1 0.5 1 2.2 4.8 5.9 9.1 3.6 4.2 5.7 6.3 5.6 9.5-0.1 3.2-1.8 4.8-4 6.3-2.3 1.4-2.7 2.2-2.3 3.9 0.3 1.8 2.3 2.4 4.1 2.4 1.7 0.1 3.9-0.1 4.7 0.4 0.7 0.4 0.8 1.6 1.6 2.3 0.8 0.8 1.1 1.3 1.8 1.4q0.4 0 0.7 0.1c0.2-8.4-3.1-12.2-3.1-12.2l9.1-10.7q0.7 0.3 1.4 0.6 0-0.2 0.2-0.4c1.2-1.5 1.6-2.8 1.6-4.8-0.4 0-1.3 0.4-2.2 0.2-0.8-0.2-0.2-1 0.1-1.8 0.2-0.8 0.5-3.5 0.3-4.5-0.2-1.1-0.2-1.5-0.2-1.5 0 0-1.4 1.5-2.2 1.5-0.8 0-0.7-0.9-0.9-1.8-0.2-1.4-0.8-3.1-1.9-4 0 0-1.4 1-3.1 1-1.6 0-3.8-0.5-5.6-2.2-1.8-1.7-1.8-2.1-1.8-2.1 0 0-3.3 1.1-5.8 1.3-2.5 0.1-5.2-0.3-6.5-3-1.2-2.6 0.4-5.1 0.7-5.5 0.3-0.4 1.1-0.7 1.1 0 0 0.8 0 2.8 1.5 3.7 1.5 1 2.7 1 4.2 0.5 1.4-0.4 3.4-1 5.8-0.7 2 0.3 2.3 0.5 2.3 0.5-0.1-0.1-1.9-2-3.8-2.6-1.9-0.6-3 0.2-3.6 1-0.6 0.7-1.2 1.9-1.7 0.2-0.5-1.8-0.2-3.7 0.6-5 0.9-1.3 2.6-2.1 4.5-1.9 1.9 0.2 2.5 0.5 2.5 0.5 0 0 1-2.7 3.4-3.2 2.9-0.6 6.1 0.5 8.6 1.9 0 0 2 0.4 4-0.1 1.4-0.4 2.7-1.2 3.5-1.7-0.3-0.8-0.7-2.2-0.7-2.2 0 0-0.6-0.2-1.2-0.4-0.6-0.3-0.5-0.5-0.6-1 0-0.5 1.2-1.4 1.2-1.4 0 0 0.1-1.5-1.9-2.5-1.9-1.1-1.7-0.9-1.7-0.9 0 0-1.2 0.2-1.7-0.1-0.4-0.4-0.4-0.6-0.4-0.6 0 0-0.9-0.3-1.3-0.8-0.3-0.5-0.3-1.3-0.1-1.9 0.2-0.6 0.5-0.8 0.2-1-0.3-0.3-0.6-1.1-0.6-1.6-0.1-0.5-0.1-0.6-0.1-0.6 0 0-0.6-0.2-0.6-1.2 0-1.1 0.6-1.5 0.9-1.6 0.3-0.1 0.5-0.1 0.5-0.1 0 0 0.1-0.6 0.6-1.4 0.5-0.8 0.9-1.2 0.9-1.2 0 0-0.4-0.3-0.2-1 0.2-0.7 0.7-1.1 1.2-1.2 0.4-0.2 0.9 0 0.9 0 0 0 1.6-1 2.3-1.3 0.8-0.4 1-0.5 1-0.5 0 0 0-0.7 0.2-1 0.3-0.4 0.9-0.5 1.3-0.5 0.3 0 0.6 0.2 0.6 0.2 0 0 2.7-0.7 3.8-0.9 1.1-0.2 1.1-0.3 1.1-0.3 0 0 2.4-1.1 3.3-1.3 0.9-0.1 1.1-0.2 1.1-0.2 0 0-0.8-1.2-0.8-2.5-0.1-1.3 0.7-2.4 1.7-3 0.5-0.4 1.2-0.5 1.2-0.5l0.2-1.1-1.8 0.2-0.2-2.8 1.7 0.2-0.2-1.8 3.6 0.1-0.3 1.7 1.7-0.2-0.1 2.8-1.8-0.2 0.1 1c0.1 0.1 0.4 0.1 0.9 0.4 1 0.6 1.9 1.9 1.8 3.2 0 1.3-1 2.5-1 2.5 0 0 0.3 0.1 1.2 0.2 0.9 0.2 3.2 1.3 3.2 1.3 0 0 0.1 0.1 1.2 0.3 1.1 0.2 3.7 0.9 3.7 0.9 0 0 0.4-0.2 0.7-0.2 0.3 0 1 0.1 1.2 0.5 0.3 0.3 0.3 1 0.3 1 0 0 0.2 0.1 0.9 0.5 0.8 0.3 2.3 1.3 2.3 1.3 0 0 0.5-0.2 1 0 0.5 0.1 0.9 0.5 1.1 1.2 0.3 0.7-0.1 1-0.1 1 0 0 0.3 0.4 0.9 1.2 0.5 0.8 0.5 1.4 0.5 1.4 0 0 0.2 0 0.6 0.1 0.3 0.1 0.9 0.5 0.9 1.6 0 1-0.7 1.2-0.7 1.2 0 0 0 0.1 0 0.6 0 0.5-0.3 1.3-0.6 1.6-0.4 0.2-0.1 0.4 0.2 1 0.2 0.6 0.1 1.4-0.2 1.9-0.3 0.5-1.2 0.8-1.2 0.8 0 0 0 0.2-0.5 0.6-0.4 0.3-1.6 0.1-1.6 0.1 0 0 0.2-0.2-1.8 0.9-2 1-1.8 2.5-1.8 2.5 0 0 1.2 0.9 1.1 1.4 0 0.5 0.1 0.7-0.5 1-0.6 0.2-1.2 0.4-1.2 0.4 0 0-0.5 1.4-0.7 2.2 0.8 0.5 2.1 1.3 3.4 1.7 2 0.5 4 0.1 4 0.1 2.6-1.4 5.8-2.5 8.7-1.9 2.4 0.5 3.3 3.2 3.3 3.2 0 0 0.7-0.3 2.6-0.5 1.8-0.2 3.6 0.6 4.4 1.9 0.9 1.3 1.1 3.2 0.6 5-0.5 1.7-1 0.5-1.6-0.2-0.6-0.8-1.7-1.6-3.6-1-1.9 0.6-3.8 2.5-3.9 2.6 0.1 0 0.3-0.2 2.4-0.5 2.3-0.3 4.4 0.3 5.8 0.7 1.4 0.5 2.6 0.5 4.2-0.5 1.5-0.9 1.5-2.9 1.5-3.7 0-0.7 0.8-0.4 1.1 0 0.3 0.4 1.9 2.9 0.6 5.5-1.3 2.7-3.9 3.1-6.5 3-2.5-0.2-5.8-1.3-5.8-1.3 0 0 0.1 0.4-1.7 2.1-1.8 1.7-4 2.2-5.7 2.2-1.6 0-3.1-1-3.1-1-1 0.9-1.7 2.6-1.9 4-0.1 0.9 0 1.8-0.8 1.8-0.9 0-2.2-1.5-2.2-1.5 0 0-0.1 0.4-0.2 1.5-0.2 1 0.1 3.7 0.3 4.5 0.2 0.8 0.9 1.6 0 1.8-0.8 0.2-1.7-0.2-2.1-0.2 0 2 0.3 3.3 1.6 4.8q0.1 0.3 0.2 0.4 0.7-0.3 1.4-0.6l9.2 10.7c0 0-3.3 3.7-3.1 12.2q0.2-0.1 0.6-0.1c0.7-0.1 1-0.6 1.8-1.4 0.8-0.7 0.9-1.9 1.6-2.3 0.8-0.5 3-0.3 4.7-0.4 1.8 0 3.8-0.6 4.1-2.4 0.4-1.7 0-2.5-2.3-3.9-2.2-1.5-3.9-3.1-4-6.3-0.1-3.2 2-5.3 5.6-9.5 3.7-4.3 5.4-8.1 5.9-9.1 0.5-1 0.7-0.7 1.1 0.1 0.4 0.7 1 2 1 2 0 0 1.2-0.7 4.2-6.2 3-5.5 3.9-9.8 4.4-12.1 0.2-1.5 0.8-0.7 1.3-0.3 2.4-7 2.3-15.6 3-22.3 0 0 2.4 2.4 3.8 7 1.3 4.3 1.3 9.3 0.9 13.7-0.4 4.3-1.3 6.7-1.7 7.9-0.6 1.7 0.3 0.6 0.3 0.6 0 0 2.1-3.6 3.6-10.6 1.4-7 1.3-11.9 1.3-11.9 0 0 0.8 0.7 1.8 2.7 1 1.9 2 5.9 1.6 13-0.3 7.1-3 14.7-4.4 17.2-1.3 2.6-0.1 1 0.4 0.3 0.5-0.7 3-4.6 4.2-8 1.2-3.4 3.5-10.3 3.6-11.4 0.2-1.1 0.6-0.4 1.1 0.5 0.4 1 1.4 4.1 1.4 6.4-0.1 2.2-0.5 6.2-2 10.1-1.4 3.9-4.3 7.9-5.7 9.6-1.3 1.8-0.3 0.9 0.4 0.4 0.6-0.5-0.1 0.1 2.8-3 2.8-3 6.4-10.1 6.9-11.2 0.5-1.1 1 0.1 1 0.7 0.1 0.6 0.4 4-1.7 9.9-2.2 5.8-7.5 10.4-10.3 12.3-2.8 1.9-0.8 1 0.6 0.1 1.5-0.8 4.3-2.8 6.1-4.2 1.8-1.5 4.9-5.4 5.8-6.1 0.9-0.7 1.1-0.9 1 1.9 0 2.7-2.4 7.2-5.4 10.2-3 3-6.8 4.4-8 4.8-1.2 0.5-0.2 0.3 1-0.1 1.2-0.3 3.3-0.9 5.6-2.2 2.3-1.2 5.6-3.9 6.7-4.7 1.1-0.9 1 0.3 0.7 1.8-0.4 1.5-1.2 4.3-5.5 7.8-4.3 3.5-10.4 5.3-12.2 5.8zm-140.4 9q0 0 0 0-0.4-0.8-0.7-1.6-0.1 0-0.2 0.1c-0.5 0-1.1 0.2-1.4 0.2-0.2 0-0.3 0.2-0.1 0.5 0.2 0.4 0.8 1.7 0.8 1.7 0 0 1.2-0.7 1.6-0.9zm49.4 24.7q-0.1 0-0.2-0.1v-0.1c-0.7 1.4-2.4 4.1-4.9 4.1-3.4 0.2-3.8-0.9-3-2 0.8-1.2 1.7-2.2 1.9-2.5 0.2-0.3 0.3-0.8-0.6 0.1-0.9 0.8-2.6 3.7-7.7 3.3-5.2-0.3-5.2-1.3-5.2-1.6 0-1 1.1-1.1 1.7-1.8 0.3-0.3 0.5-0.8-0.5-0.4-1.1 0.4-3.6 0.9-7.1 0.2-1.3-0.3-4.9-1.9-5.3-3.8 0 0 2.3-0.1 3.9-0.8 1.6-0.7 2.6-1.2 0.9-0.9-1.7 0.4-5 1.1-8 0.1-1.7-0.6-3.9-2-3.9-4.5 0 0 3.2-0.7 4.4-1.1 1.1-0.4 1.5-0.7 1.5-0.7 0 0-4.5 1.4-8.6-0.7-4.1-2.1-4.3-4.9-4.3-5.6 0-0.6 0.1-0.8 0.1-0.8 0 0 3.7 0.9 6.5 0.8 2.8 0 3.7-0.2 3.7-0.2 0 0-7.8-0.3-11.8-2.7-0.9-0.5-1.6-1.2-2.1-1.9-0.2 0.2-0.3 0.5-0.3 0.8-0.2 0.7-0.3 1.5 0.1 4.1 0.4 2.6 1.2 6 2.5 8.2 1.4 2.3 4.3 7 4.9 8.8 0.6 1.8 1.3 5.6 1.3 6.6 0 1 0.1 2 0.1 2 0 0 1.8 1.4 2.2 2.4 0.4 1 0.5 1.5 0.3 2.1-0.1 0.5-0.1 0.9-0.1 0.9 0 0 1.5 2.1 2.3 3.1 0.7 1 1.7 3.3 1.9 4.9 0.2 1.6 0.3 2.6 0.3 2.6 0 0 0.4 0.1 3.6 0.3 3.2 0.1 5.8 0 7.4-0.1 1.6-0.1 4-0.8 5.4-1.8 1.4-1.1 1.4-1.1 1.4-1.1 0 0-2.3-0.5-3.1-0.8-0.8-0.4-0.9-0.8-0.1-1.1 0.8-0.2 2.4-1.1 2.8-1.6 0.5-0.4 0.7-0.9-0.1-1.3-0.8-0.4-2.7-1.6-1.2-2 1.4-0.4 3.1-0.7 4.5-1.1 1.3-0.4 1.5-0.8 1.5-0.8l-0.9-1.3c0 0-0.8-1 0.1-1.2 0.9-0.1 2.9-0.3 4.8-1.2 1.9-0.8 4.5-2.7 5.5-4.4 0.6-1.2 1.2-2.5 1.5-3.4zm41.4-102.2c-0.2 2.4-1.6 2.8-1.9 3.1-0.4 0.3-0.3 0.6 0.3 1.1 0.6 0.5 1.7 0.2 2.5-0.1 0.8-0.3 1.6-0.5 1.6-0.5 0 0-0.2-0.2-0.4-0.6-0.2-0.4-0.2-1.1 0-2.2 0.1-1.1 0.3-2.3 0.1-2.9-0.1-0.7-0.1-1.3-1.3-2.6-1.1-1.3-3-2.3-3-2.3q0 0 0.7 1.3c0.4 0.9 1.5 3.3 1.4 5.7zm-13.6 2.6c0 0 0.4 0 1 0.3 0.5 0.3 1.2 0.8 2.2 0.9 1.1 0 1.5-0.3 2.2-0.7 0.7-0.5 1.4-0.8 1.4-0.8 0 0-0.3-0.8-0.2-1.7 0-1 0.5-2.1 0.5-3 0-1-0.4-2.9-2.5-4.8-2-1.9-3.5-2.2-3.5-2.2 0.1 2.1 0.5 3.7 0.8 5.7 0.3 2.3 0.1 3.3-0.3 4.5-0.4 1.1-1.6 1.8-1.6 1.8zm-10.9-5c0 0.9 0.5 2 0.5 3 0.1 0.9-0.2 1.7-0.2 1.7 0 0 0.7 0.3 1.4 0.8 0.7 0.4 1.1 0.7 2.2 0.7 1-0.1 1.7-0.6 2.2-0.9 0.6-0.3 1-0.3 1-0.3 0 0-1.2-0.7-1.6-1.8-0.4-1.2-0.6-2.2-0.3-4.5 0.3-2 0.7-3.6 0.8-5.7 0 0-1.5 0.3-3.5 2.2-2.1 1.9-2.5 3.8-2.5 4.8zm-4.6 5.5c-0.3-0.3-1.7-0.7-1.9-3.1-0.1-2.4 1-4.8 1.4-5.7q0.7-1.3 0.7-1.3c0 0-1.9 1-3.1 2.3-1.1 1.3-1.1 1.9-1.3 2.6-0.1 0.6 0 1.8 0.2 2.9 0.2 1.1 0.2 1.8 0 2.2-0.3 0.4-0.4 0.6-0.4 0.6 0 0 0.8 0.2 1.6 0.5 0.8 0.3 1.9 0.6 2.5 0.1 0.6-0.5 0.7-0.8 0.3-1.1zm27.1 20.9c2-1.1 2.6-2.6 2.6-2.6 0 0-2.3-0.7-3.5-3.1-0.4-0.8-0.5-1.6-0.4-2.2h-0.1c-3.8 1.2-8.2 1.7-12.1 1.7-3.9 0-8.3-0.5-12.1-1.7h-0.1c0.1 0.6 0 1.4-0.4 2.2-1.2 2.4-3.5 3.1-3.5 3.1 0 0 0.6 1.5 2.6 2.6 2.1 1.1 3.2 0.8 3.1 1.7 0 0.8-1.9 1.4-1.9 1.4 0 0 1.9 2 3.4 2.9 1.4 0.9 3.1 1.5 3.1 1.5 0 0 0.6 0.1 0.2 1-0.3 0.9-0.9 1.5-1.3 1.8-0.5 0.2-0.7 0.3-0.7 0.3 0 0 2.5 2.7 3.6 3.6 1.1 0.8 1.7 1.1 2.6 1.5 1 0.4 0.5 1.9 0.3 2.5-0.2 0.7-1 1.6-1.4 1.7-0.5 0.2-0.7 0.5-0.1 1.4 0.4 0.7 1.9 2.5 2.6 3.5 0.7-1 2.2-2.8 2.6-3.5 0.6-0.9 0.4-1.2 0-1.4-0.5-0.1-1.3-1-1.5-1.7-0.2-0.6-0.7-2.1 0.3-2.5 0.9-0.4 1.5-0.7 2.6-1.5 1.1-0.9 3.6-3.6 3.6-3.6 0 0-0.2-0.1-0.7-0.3-0.4-0.3-1-0.9-1.3-1.8-0.4-0.9 0.2-1 0.2-1 0 0 1.7-0.6 3.2-1.5 1.4-0.9 3.3-2.9 3.3-2.9 0 0-1.9-0.6-1.9-1.4-0.1-0.9 1-0.6 3.1-1.7z"/>
		<path id="Layer" class="s3" d="m178.4 312.1c0.7 3.1 1.3 8.9-0.3 13-1.7 4.1-3.4 7.6-10.5 10.6-7.1 3-10.8 4.5-13.2 6.6-2.5 2-3.7 3.7-3.7 3.7 0 0-1.2-1.7-3.7-3.7-2.5-2.1-6.1-3.6-13.2-6.6-7.1-3-8.8-6.5-10.5-10.6-1.6-4.1-1-9.9-0.3-13 0.7-3 2-7.7 2-14.1 0-6.3-3-10.4-3-10.4l8-9.1c7.6 2.9 14.5 3.1 20.7 0 6.2 3.1 13.1 2.9 20.7 0l7.9 9.1c0 0-2.9 4.1-2.9 10.4 0 6.4 1.3 11.1 2 14.1z"/>
		<path id="Layer" class="s4" d="m173.9 300.6c1 6.1 3.2 15.7 2.6 19.6-0.5 3.9-3.3 8.5-6.1 10.9-2.9 2.3-7.1 4.3-10.1 5.4-3 1.1-5.9 3.2-7.3 4.2-1.4 1.1-2.3 2-2.3 2 0 0-0.9-0.9-2.3-2-1.4-1-4.3-3.1-7.3-4.2-3-1.1-7.2-3.1-10-5.4-2.9-2.4-5.7-7-6.2-10.9-0.5-3.9 1.6-13.5 2.6-19.6 1-6-2.5-11.4-2.5-11.4l6.8-7.9c5.3 2.9 12.6 2.5 18.9-0.4 6.4 2.9 13.7 3.3 18.9 0.4l6.8 7.9c0 0-3.5 5.4-2.5 11.4z"/>
		<path id="Layer" class="s5" d="m173.2 301.3c1 6.5 2.5 14 2.3 18.4q-0.1 0.4-0.1 0.9h-6c0 0 1.1-2.2 1.3-2.8 0.2-0.5 0.3-1.1 0.3-1.1 0 0 0-1.3 0-2.9-0.1-1.5-0.4-2.6-0.4-3.3-0.1-0.8-1.1-1.4-2-1.3-0.8 0.1-1.6-0.2-2.1-0.5-0.5-0.3-0.4-1.2-0.4-1.6 0-0.5-0.5-1.5-0.5-1.5 0 0 0 0 1.1-0.2 1-0.1 2.1-0.4 3.5-1 1.4-0.5 2.3-2.7 1.1-4.7-1.1-2.1-5.2-1.8-6.3-1.9-1.1-0.1-5.2-0.4-6-1.5-0.8-1.1 0.1-2.1 0.8-2.3 0.7-0.3 1.7 0.2 2.9 0.5 1.2 0.3 3.4 0.3 5.3-0.3 1.9-0.5 2.5-1.8 2.7-2.4 0.1-0.6-0.5-0.9-1.1-0.5-0.7 0.4-1.6 0-3.3-0.3-1.6-0.2-3.2 0.2-4.1 0.5-0.8 0.4-2.7 1-3.6 1.4-0.8 0.5-2.5 1.3-2.1 3.5 0.5 2.1 3.2 2.9 4.8 3.3 1.7 0.3 2.6 0.2 4.7 0.5 2.2 0.3 2.1 0.9 2.3 1.3 0.2 0.4-0.1 1.2-1.3 1.5-1.2 0.2-3.5 0.3-3.5 0.3 0 0-0.4-0.3-0.8-0.4-0.4-0.1-0.6-0.1-2.2-0.3-1.6-0.1-2.1-0.1-3.7 0.1-1.6 0.2-2 0.1-2.7 0.1-0.7 0-1.6-0.1-1.6-0.1 0 0-0.1-0.5-0.2-0.8-0.1-0.2-0.4-0.8-0.6-1.2-0.2-0.5 0-0.5 0.5-0.5 0.5 0 1.1-0.2 1.6-0.5 0.6-0.2 1-0.4 1-0.4 0 0 0-0.6-0.2-0.7-0.2-0.1-0.4-0.3-0.7-0.5-0.3-0.1-0.6-1-1.3-1.4-0.7-0.4-0.1-0.7-0.1-0.7 0 0 1.1-0.5 1.7-1.2 0.6-0.6 0-1-0.4-1.4-0.4-0.4-0.4-0.6-0.7-0.7-0.3-0.2-0.2-0.4-0.1-0.5 0.1-0.2 0.1-0.5 0.3-0.5 0.3 0 0.3-0.5 0.7-1 0.5-0.5-0.2-0.8-0.7-1-0.4-0.2-0.9-0.2-1.4-0.2-0.5 0-0.6-0.1-0.6-0.5 0-0.3 0.2-0.6-0.2-0.9-0.3-0.2-0.7-0.4-1.2-0.4-0.4 0-1 0-1.8 0.4-0.7 0.3-1.1 0.3-1.7 0.3-0.6 0-1.1 0-1.8 0.2-0.8 0.3-0.9 0.7-0.9 0.7 0 0 0 0-0.6 0.2-0.6 0.1-1.7 0.4-2.1 0.5-0.4 0.1-0.7 0.3-0.8 0.8-0.1 0.5 0.1 0.9 0.3 1.5 0.3 0.7-0.2 0.6-0.6 0.4-0.3-0.2-0.6-0.3-1-1.3-0.4-0.9-1.1 0.1-1.1 0.6-0.1 0.5-0.2 0.7 0.3 1.6 0.5 1 1.9 1.4 2.5 1.4 0.5 0.1 0.3 0.6 0.4 1.3 0 0.6 0.7 0.9 1.6 1 0.8 0.1 1.1 0.2 1.1 0.3 0 0.2-0.3 0.4-1 0.5-0.8 0.1-1.8 0.2-2.5 0.6-0.7 0.4-1.6 2.2-1.6 2.2 0 0-0.2 0-1.1-0.1-0.8 0-1.2-1.3-1.6-2.4-0.4-1.1-0.5-1.6-0.5-2.5 0-0.9 0.1-1.4 0.3-2.6 0.3-1.2 0-0.8 0.1-1.5 0.2-0.7 0-1.3-0.3-1.8-0.3-0.4-0.5 0.1-0.6 0.5 0 0.3-0.2 0.9-0.4 0.9-0.1 0-0.2-0.4-0.2-0.7 0-0.4-0.2-0.9-0.7-1.2-0.5-0.2-0.8 0-0.8 0.3 0 0.4 0.1 1.4-0.2 1.5-0.3 0.2-0.3-0.1-0.5-0.2-0.1-0.2-0.4-0.5-0.7-0.6-0.4-0.2-0.7 0.1-0.7 0.4 0 0.3 0.2 1 0.2 1.5-0.1 0.6-0.2 0.9 0.3 2 0.5 1.1 0.7 1.1 0.3 1.5-0.3 0.3-1.3-1-1.4-1.2-0.1-0.2-0.5-0.4-0.7 0.2-0.2 0.5-0.2 1.1 0.5 2.6 0.8 1.4 1.8 1.7 2.2 1.7 0.5 0 0.6 0.1 0.7 0.4 0.1 0.3 0.2 1.6 0.8 4.4 0.6 2.8 4.2 2.1 4.2 2.1l0.2 0.8c0 0-0.1 0.2-0.4 0.8-0.3 0.5-0.4 1.7-0.3 2.2 0.1 0.6 0.1 1.1 0.7 0.9 0.6-0.2 0.7 0.2 0.7 0.2 0 0-0.3 1.2-0.3 1.9 0 0.8-0.2 1.2-0.6 2.3-0.4 1.2-1.2 2-1.6 2.3-0.3 0.3-0.5 0.4-0.8 0.4-0.2 0-0.5 0-1.2 0.2-0.7 0.3-0.8 1.4-0.8 1.4 0 0-0.2 0.2-0.8 0.4-0.6 0.3-1 0.7-1 0.7h-5.6q0-0.5-0.1-0.9c-0.3-4.4 1.3-11.8 2.2-18.4 1-6.5-1.9-11.8-1.9-11.8l6.1-6.8c5.2 2.6 11.5 2 18.4-0.4 6.9 2.4 13.2 3 18.4 0.4l6.1 6.8c0 0-2.9 5.3-1.9 11.8z"/>
		<path id="Layer" class="s6" d="m126.8 323.5h47.9c-1.2 3.3-3.6 6.7-7.3 8.9-5.1 3.1-7.3 2.7-12.1 5.8-4.8 3.2-4.5 3.7-4.6 3.7-0.1 0 0.2-0.5-4.6-3.7-4.8-3.1-7-2.7-12.1-5.8-3.7-2.2-6.1-5.6-7.3-8.9z"/>
		<path id="Layer" class="s3" d="m130.8 296.7c0.3-0.3 0.6-0.2 0.8 0 0.2 0.2 1 0.2 1.1-0.2 0.2-0.4 0.2-1.4-0.3-1.8-0.6-0.5-0.9-1.4-0.8-1.7 0-0.4 0.6-0.6 0.9-0.5 0.3 0.1 0.9 0.6 0.9 0.6 0 0 0.1-0.5-0.1-0.8-0.2-0.3-0.2-0.6 0.1-0.6 0.3 0 0.5-0.1 0.6 0.3 0.1 0.4 0.3 0.8 0.5 0.7 0.2-0.1 0.1-0.6 0.1-0.6 0 0 0.4-0.2 0.6 0 0.3 0.1 0.2 0.5 0 1.1-0.2 0.7-0.5 2.4-0.3 3.6 0.2 1.2 1 3.1 1.4 3.7 0.5 0.7 0.4 1 1.2 1 0.7 0 0.4 0.7 0.4 0.8-0.3 0.8-0.6 1.7-0.6 2.4 0 0-2.1-0.1-2.7-1.5-0.6-1.5-0.6-3-0.7-3.7-0.2-0.7-0.4-1.3-1.2-1.2-0.8 0.1-1.2-0.1-1.8-0.6-0.5-0.6-0.3-0.8-0.1-1z"/>
		<path id="Layer" class="s3" d="m130.1 296.5c0 0-0.3-0.4-0.3-0.7 0-0.4 0-0.5 0-0.5 0 0 0.3 0.3 0.4 0.4 0.1 0.2 0.4 0.4 0.4 0.4 0 0-0.5 0.4-0.5 0.4z"/>
		<path id="Layer" class="s3" d="m131.4 291.8c-0.1-0.3-0.3-0.8-0.3-0.8 0 0 0.2-0.1 0.4 0 0.2 0.1 0.4 0.4 0.6 0.7 0.2 0.3 0 0.3-0.3 0.4-0.2 0.1-0.3 0-0.4-0.3z"/>
		<path id="Layer" class="s3" d="m133.3 290.9c0-0.3-0.1-0.9-0.1-0.9l0.2 0.1c0 0 0.3 0.2 0.4 0.4 0.1 0.2 0 0.6-0.2 0.7-0.3 0.1-0.3 0-0.3-0.3z"/>
		<path id="Layer" class="s3" d="m135.3 291.5c-0.2-0.2-0.2-0.1-0.1-0.3 0.2-0.2 0.2-0.6 0.2-0.6 0 0 0.1 0.4 0.1 0.7-0.1 0.2-0.1 0.4-0.2 0.2z"/>
		<path id="Layer" class="s3" d="m138.8 306c-0.4-1-0.6-1.2-0.6-2 0-0.7 0-1 1-1.5 1-0.5 1.5-0.8 1.7-0.9 0.3-0.1 0.6-0.3 0.7-0.1 0.1 0.2-0.2 0.3-0.1 0.6 0.2 0.2 0.3 0.5 0.8 0.2 0.6-0.3 1.4-0.6 1.6-0.4 0.3 0.2 0.1 1 0.1 1.3 0.1 0.2 0.4 0.7 0.8 0.7 0.5 0 1.2-0.6 1.6-1.4 0.4-0.8 0.2-1.5-0.4-0.8-0.5 0.7-1.6 1.7-1.6 0.6 0.1-1.1 0.3-1.5 0.3-1.5 0 0 0.3-0.6-0.5-0.3-0.7 0.4-1 0.6-1.2 0.8-0.3 0.2-1 0.4-0.6-0.3 0.4-0.7 0.4-1.4-0.4-0.9-0.8 0.4-1.6 0.8-2.3 1.2-0.7 0.4-0.9 0.4-0.9 0.4 0 0 0.5-1.9 2-2.5 1.5-0.6 2.3-0.6 2.7-0.7 0.3 0 0.5-0.3 0.9-0.4 0.3-0.1 0.7-0.4 0.9-0.6 0.3-0.1 0.6-0.2 0.1-0.6-0.5-0.4-0.6-0.7-1.7-0.8-1.1-0.1-1.6-0.2-1.6-0.2 0 0-0.6 0.1-0.6-0.2 0-0.3 0.1-0.4 0.6-0.4 0.4 0 1.4-0.5 1.4-0.8 0.1-0.3-0.1-0.9-0.7-1.2-0.7-0.3-1.2-0.3-1.5-0.3-0.3 0-0.4-0.1-0.4-0.4 0-0.3 0.1-0.3 0.4-0.4 0.2-0.1 0.4-0.4 0.1-0.5-0.2-0.1-0.6-0.1-0.6-0.1 0 0-0.1-0.5-0.1-0.7 0-0.3 0.2-0.3 0.7-0.5 0.5-0.1 1.2-0.3 1.7-0.4 0.6-0.1 1.1-0.1 1.1-0.1 0 0-0.1-0.6 0.6-0.8 0.7-0.1 1.4-0.3 2.1-0.1 0.7 0.1 0.8 0.7 0.8 0.7 0 0 0.1 0.3 0 0.6-0.2 0.3 0.1 0.7 0.1 0.9 0 0.2 0.2 0.6 0.3-0.1 0.1-0.7 0.4-1 0.7-1.3 0.4-0.3 1.3-0.4 1.6 0.1 0.4 0.5 0.2 1.1-0.1 1.6-0.4 0.5-0.6 1-0.7 1.2-0.1 0.2-0.3 0.3-0.6 0-0.3-0.3-0.4-0.4-0.6 0.1-0.2 0.5-0.5 1.1-1 1.2-0.4 0-0.9-0.1-0.8 0.1 0 0.2 0.2 0.2 0.6 0.2 0.4 0 1.1-0.3 1.4 0 0.2 0.3 0.2 0.9-0.2 1.5-0.3 0.7-0.7 0.9-0.7 0.9 0 0-0.3 0.3-0.1 0.4 0.2 0.1 0.3-0.1 0.6-0.3 0.3-0.2 0.6-0.5 0.7-0.7 0.1-0.2 0.3-0.2 0.4 0 0.1 0.2 0.1 0.2 0.1 0.2 0 0 1-0.1 1.7 0 0.7 0.2 1 0.6 1.5 1.1 0.6 0.5 0.9 1 0.9 1 0 0 0 0.3-0.4 0.4-0.4 0.1-0.7 0.1-1.2 0.2-0.5 0.1-1.3-0.2-1.5 0.1-0.3 0.3-0.2 1 0.5 1.6 0.7 0.6 1.2 1.6 1.3 2.1 0.1 0.4 0.1 1.3-0.7 0.8-0.9-0.4-1.4-0.8-1.6-0.6-0.2 0.1-0.1 1.2-0.1 1.7-0.1 0.5-0.2 1.5-0.8 0.9q-1-1-1-1c0 0-0.5-0.4-0.6 0.1-0.1 0.4-0.3 1.4-0.5 2.1-0.1 0.7-0.4 1.5-0.9 0.9-0.4-0.5-1-1.5-1-1.9 0-0.4-0.4-0.9-0.7-0.4-0.3 0.5-0.4 1.5-0.6 2-0.2 0.5-0.5 0.9-0.9 0.2-0.4-0.7-0.8-1.7-0.6-2.8 0.1-1 0.1-1.9-0.9-0.7-0.9 1.3-2 2.8-2.4 1.8z"/>
		<path id="Layer" class="s3" d="m148.6 289.5c-0.2 0.2-0.5 0.1-0.7-0.2-0.2-0.3-0.3-0.4-0.3-0.4 0 0 0.4-0.1 0.7-0.2 0.4-0.2 0.7-0.5 1.3-0.5 0.6 0 0.8 0.1 0.8 0.3 0.1 0.2 0.2 0.5-0.2 0.6-0.5 0-0.9 0.1-0.9 0.1 0 0-0.4 0.2-0.6 0.3z"/>
		<path id="Layer" class="s3" d="m150.7 291.4c0.3-0.5 0.3-0.8 0.4-1 0-0.3 0.4-0.5 1.1-0.3 0.6 0.2 1.1 0.2 0.9 0.6-0.3 0.5-0.4 0.5-0.8 0.7-0.4 0.1-0.8 0.3-0.8 0.3 0 0-0.3 0.2-0.5 0.2-0.2 0-0.5 0-0.3-0.5z"/>
		<path id="Layer" class="s3" d="m150.8 292.5c0.7 0 1 0.1 1.7 0.6 0.6 0.5 1.5 1 0.9 1.3-0.6 0.3-0.8 0.4-1.4 0.5-0.5 0.1-0.8 0.2-1.1 0.5-0.4 0.2-0.6 0.4-1 0.4-0.4 0-0.5 0-0.5 0 0 0 0-0.7-0.1-1.1-0.1-0.3-0.3-0.7-0.3-0.7 0 0-0.1-0.2 0.1-0.4 0.3-0.2 1-1.1 1.7-1.1z"/>
		<path id="Layer" class="s3" d="m142.1 294.7c-0.5 0.1-2.2 0.1-3.2-1-1-1.2-0.5-2.2-0.5-2.2 0.3 1.6 1.9 2.2 3.5 2.1 0.7-0.1 0.9 0.2 0.9 0.5 0 0.3-0.2 0.6-0.7 0.6z"/>
		<path id="Layer" class="s3" d="m136.3 319.5c0.2-0.2 0.1-0.3-0.2-0.2-0.4 0-0.8 0.1-1 0.3-0.2 0.2-0.6 0.5-0.6 0.5 0 0-0.6-0.2-0.6-0.6 0-0.3 0.3-0.8 0.6-1 0.3-0.1 0.9-0.1 1.2-0.1 0.2 0 0.5-0.2 0.9-0.6 0.4-0.3 1.9-2 2.1-3.3 0.3-1.2 0.5-2.7 0.5-3.2 0.1-0.5 0.1-1 0.4-1 0.4 0 1-0.1 1 0.3 0.1 0.4 0.4 1.1 0.5 1.5 0.2 0.4 0.7 0.7 0.5 1.3-0.3 0.7-0.9 1.9-1.2 3.5-0.4 1.7-0.6 2.6-0.6 2.9-0.1 0.3-0.1 0.7-0.5 0.8h-2.5q-0.1-0.1-0.3-0.3c-0.3-0.5-0.3-0.6-0.2-0.8z"/>
		<path id="Layer" class="s3" d="m133.8 320.2c0.1 0.1 0.1 0.2 0.1 0.4h-1.6c0.1-0.2 0.2-0.4 0.4-0.4 0.4-0.1 0.9-0.3 1.1 0z"/>
		<path id="Layer" class="s3" d="m136 320c0.2 0.2 0.2 0.4 0.1 0.6h-1.7c0.1-0.2 0.3-0.4 0.5-0.5 0.3-0.1 0.7-0.4 1.1-0.1z"/>
		<path id="Layer" class="s3" d="m150.1 319.4c0.2 0 0.5 0.1 0.2 0.4-0.3 0.3-0.4 0.5-0.4 0.7q0 0 0 0.1h-0.8q0-0.1 0-0.1c0-0.2 0.1-0.5 0.4-0.7 0.3-0.2 0.4-0.4 0.6-0.4z"/>
		<path id="Layer" class="s3" d="m151.5 320.6h-1.1q0.1-0.2 0.3-0.3c0.2-0.2 0.5-0.5 0.6-0.5 0.2 0 0.3 0.2 0.3 0.4 0 0.1-0.1 0.3-0.1 0.4z"/>
		<path id="Layer" class="s3" d="m158.3 312.1c-0.5 0.4-1.2 0.8-1.3 1.3 0 0.4 0.1 1.1 0.4 1.5 0.3 0.5 0.4 0.9 0.4 1.6 0 0.7 0 0.9-0.3 1.3-0.4 0.3-1.1 0.9-1.2 1.4-0.2 0.4-0.6 1.1-1.1 1.4h-3.3c0.1-0.3 0.2-0.8 0.1-1-0.3-0.3-0.6-0.3-0.8-0.3-0.3 0-0.6-0.3-0.2-0.7 0.3-0.4 0.7-0.6 1.4-0.5 0.6 0.1 1 0.4 1.6 0.1 0.5-0.3 1.2-1.6 1.4-2 0.2-0.5 0.4-0.8 0-1.4-0.4-0.7-1.1-1.6-1.1-1.6 0 0-0.4 0.5-0.6 0.5-0.1 0-0.3-0.1-0.3-0.8 0-0.6 0.3-1.9 0.8-2.3 0.6-0.4 2-0.5 2.7-0.5 0.7 0 1.5 0.3 1.7 0.5 0.2 0.1 0.2 0.2 0.2 0.6 0 0.4 0.1 0.5-0.4 0.9z"/>
		<path id="Layer" class="s3" d="m153 304c-0.3-0.5-0.4-0.8 0.5-0.7 0.9 0.1 2.5-0.1 3.8-0.2 1.3-0.1 2.6-0.1 4.4 0.3 1.7 0.3 2.7 0.5 3.1 2 0.4 1.4 0.3 2.5 0.8 3 0.5 0.6 1 1.2 2.5 1.3 1.5 0.2 1.4 0.8 1.5 1.6 0 0.8-0.2 1.3 0 1.4 0.1 0.2 0 3.1 0 3.8 0 0.8-0.1 1.1-0.4 1.7-0.2 0.4-0.9 1.8-1.2 2.4h-2.3c0.1-0.3 0.1-0.6-0.3-0.8-0.6-0.3-1.4-0.2-1.8 0.3q-0.2 0.3-0.3 0.5h-0.3c0.1-0.2 0.1-0.4 0-0.5 0-0.2-0.3-0.3-0.2-0.7 0.1-0.4 0.4-0.9 1.4-1.1 1-0.2 1.5-0.2 1.5-0.2 0 0 1-1.1 1.2-1.5 0.3-0.3 0.3-0.5 0.2-1.1 0-0.6-0.1-1.2-0.1-1.5 0-0.3-0.1-0.4-0.6-0.5-0.6-0.1-1.3-0.4-1.8-0.6-0.4-0.3-0.9-0.3-0.8 0.2 0 0.5 0.1 0.8-0.5 0.5-0.5-0.3-2.3-0.8-2.8-1.7-0.6-0.8-0.6-1-0.6-1.6-0.1-0.6-0.3-1.5-0.2-2.2 0.1-0.6 0.4-0.9-0.6-0.9-0.9 0-2.8 0.1-3.7 0.2-0.9 0.2-1.1 0.3-1.3 0.5-0.1 0.2 0.2 0.2 1 0.1 0.8-0.1 1.6-0.2 2.7-0.2 1.2 0 1.5-0.1 1.4 0.3 0 0.4 0 0.4-0.6 0.4-0.6 0-1 0.1-2.6 0.2-1.5 0.1-2.9 0.3-2.9 0.3-1.1 0.3-4 1.4-4.7 1.6-0.8 0.3-0.6-0.3-0.2-0.8 0.3-0.6 0-0.5-0.3-0.2-0.4 0.3-0.6 1.1-0.9 1.6-0.4 0.6-0.8 0-1.3-0.7-0.5-0.7-0.6-0.8-1.1-0.8-0.5 0-0.6 0.9-1.1 1.8-0.6 0.9-0.8 0.7-0.8 0.7 0 0-0.7-0.1-1-1.3-0.2-1.3-0.1-2.1-0.6-2.1-0.6 0-0.8-0.1-1.3 0.3-0.4 0.3-1.2 0.8-1.5 0.6-0.4-0.2-0.7-0.7-0.4-1.4 0.2-0.7 0.5-1 0.7-0.8 0.2 0.3 0.3 0.4 0.8 0.2 0.4-0.2 1.1-1.1 1.5-1.1 0.4 0 0.6 0.5 0.8 1 0.3 0.5 0.8 1.4 1.3 1.5 0.4 0 0.7-0.3 0.9-0.9 0.3-0.5 0.4-1.1 0.8-0.5 0.4 0.6 0.8 1.1 1 1.1 0.2 0 0.5 0.4 0.7 0.4 0.2 0.1 0.5 0.1 0.8-0.5 0.4-0.7 0.6-0.9 0.7-1.3 0.1-0.4 0.3-0.5 0.6-0.3 0.3 0.2 0.9 0.5 1.3-0.1 0.4-0.6 0.5-1.3 0.5-1.7 0-0.4 0-0.5 0.7-0.4 0.8 0.1 1.3 0 1.7-0.1 0.5-0.1 0.7-0.2 0.3-0.8z"/>
		<path id="Layer" class="s3" d="m162.6 320.1c0.1 0.2 0.1 0.4 0.1 0.5h-1.5q0.1-0.2 0.3-0.3c0.4-0.3 0.8-0.4 1.1-0.2z"/>
		<path id="Layer" class="s3" d="m165.3 320.4q0 0.1 0 0.2h-1.6c0.1-0.2 0.3-0.3 0.5-0.4 0.6-0.3 1 0 1.1 0.2z"/>
		<path id="Layer" class="s3" d="m175.3 321.1q-0.1 0.7-0.4 1.5h-48.4q-0.3-0.8-0.4-1.5z"/>
		<path id="Layer" class="s3" d="m158.8 298c-1.5-1.1-2.4-1.8-1.6-3.4 0.7-1.6 3.1-1.8 4-2.2 1-0.3 1.7-1 3.6-0.9 2 0 2.8 0.5 3.8 0.4 1.1 0 1.4-0.1 1.4-0.1 0 0-0.5 1.5-2.6 1.7-2.2 0.3-3.4 0.2-4.5-0.2-1.1-0.4-2.3 0-3 0.2-0.8 0.2-1.8 0.8-1.8 1.9 0 1.1 0.9 1.9 2.8 2.2 2 0.4 3.3 0.5 5 0.7 1.8 0.2 3.5 0.3 4.5 1.3 1 1.1 1.1 2.6-0.1 3.6-1.1 1-2.8 1.2-3.8 1.3-1 0.1-1.3 0.1-1.3 0.1 0 0-0.5-0.7-0.8-0.9 0.6-0.1 3.8-0.2 4.5-1.1 0.7-0.9 0.9-2.7-1.4-3.1-2.3-0.5-7.2-0.5-8.7-1.5z"/>
		<ellipse id="Layer" class="s4" cx="146.1" cy="290.6" rx=".9" ry=".9"/>
		<path id="Layer" class="s4" d="m168 292.4c0 0-0.9 0.6-2.1 0.4-1.2-0.2-1.9-0.2-2.3-0.2-0.4 0-0.7-0.2-0.7-0.2 0 0 1.6-0.3 2.8-0.2 1.2 0.1 2.3 0.2 2.3 0.2z"/>
		<path id="Layer" class="s5" d="m154.2 314.8c0.3 0.4 0.6 0.6 0.6 0.6 0 0 0.2 0.4-0.1 0.9-0.3 0.4-0.4 0.7-0.6 1-0.2 0.2-0.4 0.7-1 0.5-0.7-0.2-1.4-0.3-1.8-0.1-0.4 0.2-0.7 0.4-0.9 0.8-0.1 0.3-0.4 0.3-0.7 0.4-0.3 0.2-0.7 0.5-0.9 0.9-0.1 0.2-0.2 0.5-0.3 0.8h-7.6c0.1-0.4 0.3-1 0.4-2 0.2-1.4 0.4-2.5 0.9-3.7 0.5-1.2 0.6-1.5 1.3-2.1 0.6-0.7 0.6-0.8 1.2-0.8 0.6 0 1.4 0 1.8 0.1 0.4 0.1 0.8-0.1 1.5-0.2 0.7-0.2 1.6-0.3 2.5-0.6 0.9-0.3 2.5-0.6 2.5-0.6 0 0-0.3 1.9-0.2 2.6 0 0.6 0.3 1.6 0.7 1.3 0.3-0.3 0.4-0.3 0.7 0.2z"/>
		<path id="Layer" class="s5" d="m166.4 316.6c-0.3 0.5-0.8 0.9-0.8 0.9 0 0-1 0.1-2 0.4-0.9 0.4-1.3 0.8-1.4 1.1-0.1 0.4-0.1 0.5-0.1 0.5 0 0-0.7 0.1-1 0.5-0.2 0.2-0.4 0.4-0.4 0.6h-3.7c0.2-0.5 0.5-1.2 0.8-1.6 0.3-0.5 1.1-1.8 1-2.4 0-0.6-0.8-1.4-0.8-2 0.1-0.7 0.3-1.3 0.6-1.5 0.3-0.2 0.6-0.5 0.6-0.5 0 0 0.5 0.7 0.9 1 0.4 0.3 1.6 1.2 2.6 1.3 1.1 0.2 2 0.1 2 0.1 0 0-0.1-1.1 0.3-0.9 0.4 0.2 0.8 0.2 1.1 0.3 0.2 0.1 0.2 0.1 0.3 0.6 0.1 0.4 0.3 1.2 0 1.6z"/>
		<path id="Layer" class="s3" d="m135.9 355.4q-1.1-0.4-0.3-3.8c0.2-1.2 0.7-2.4 1.5-3.3 0.6-0.8 1.6-1.4 2.2-2.3 1.4-1.7 2.6-4.5 2.8-4.9 1.9 0.9 3.5 2 4.9 3.5 3.1 3.1 3.7 3.9 3.7 3.9 0 0 0.7-0.8 3.7-3.9 1.4-1.5 3-2.5 4.9-3.5 0.1 0.5 1.2 3.5 2.5 5.1 1.5 1.8 3.5 3.1 4 5.4q0.8 3.4-0.3 3.8c-0.6 0.2-1.9-0.3-2.5-1.1-0.7-0.7-0.9-1.9-1.4-2.6-0.4-0.7-0.5-0.8-0.5-0.8 0 0 1.3 4.8 1 6.5-0.3 1.7-1.4 1.9-2 1.7-0.5-0.1-1-0.7-1.7-1.7-0.2-0.4-0.5-1-0.8-1.6-0.8-1.6-1.3-1.7-1-0.4 0.3 1.3 1 3.1 1 4.3 0.1 1.1-0.1 3.2-1.2 3.2-1.1 0.1-1.7-0.9-2.4-3.2-0.6-2.3-0.7-3-1-3-0.3 0-0.3 1.6-0.3 2.2 0 0.7-0.5 4.1-1 4.6-0.5 0.5-1 0.4-1 0.4 0 0-0.5 0.1-1-0.4-0.4-0.3-0.7-1.8-0.9-3-0.1-0.7-0.1-1.3-0.1-1.6 0-0.6 0-2.2-0.3-2.2-0.2 0-0.4 0.7-1 3-0.7 2.3-1.3 3.3-2.4 3.2-1.1 0-1.3-2.1-1.2-3.2 0-1.2 0.7-3 1-4.3 0.1-0.7 0.4-1.6 0-1.7-0.2 0-0.6 1.3-1 2.1-0.2 0.4-0.4 0.9-0.6 1.3-0.7 1.1-1.4 1.8-1.9 2-0.6 0.2-1.7 0-2-1.7-0.1-0.9 0-2.8 0.6-4.3 0.6-1.5 0.7-2.6 0.7-2.6 0 0-0.4 0.5-0.8 1.2-0.5 0.7-0.7 1.9-1.4 2.6-0.6 0.8-1.9 1.3-2.5 1.1z"/>
		<path id="Layer" class="s3" d="m135.8 363.1c-0.9 0.8-2.1 0.8-2.1 0.8 0 0-0.6-3.1 0.7-5 1.3-1.9 1.8-2.5 1.8-2.5 0 0 0.7 0 1.3-0.2 0.6-0.3 1.1-0.7 1.1-0.7v1.3q0 0.5 0 0.5c0 0-1.6 1.5-1.9 2-0.4 0.4-1.2 1.2-0.1 0.4 1.1-0.7 2-1.5 2-1.5 0 0 0.2 1.6 0.7 2 0.5 0.4 1.1 0.5 1.4 0.4l0.2-0.1 0.1 0.6c0 0-1 1.8-1.1 2.6-0.1 0.7 0.1 0.6 0.5-0.3 0.5-1 1.4-2.2 1.8-2.9 0.4-0.7 0.9-1.1 0.9-0.3-0.1 0.9 0.3 2.4 0.6 3 0.3 0.6 0.5 0.8 0.5 0.8 0 0-0.7 2.1-0.7 2.5-0.1 0.4-0.1 0.9 0.3 0.4 0.3-0.5 1.3-2.7 1.3-2.7 0 0 1.3 0 1.7-0.4 0.4-0.4 1-1.8 1-1.8 0 0 0.5 1.8 0.9 2.4 0.5 0.6 1.5 1.2 1.5 1.2 0 0 0.1 3.2 0.2 3.8 0 0.5 0.1 0.8 0.3 0.8 0.2 0 0.3-0.3 0.3-0.8 0.1-0.6 0.2-3.8 0.2-3.8 0 0 1-0.6 1.5-1.2 0.4-0.6 0.9-2.4 0.9-2.4 0 0 0.6 1.4 1 1.8 0.4 0.4 1.7 0.4 1.7 0.4 0 0 1 2.2 1.3 2.7 0.4 0.5 0.4 0 0.3-0.4 0-0.4-0.6-2.5-0.6-2.5 0 0 0.1-0.2 0.4-0.8 0.3-0.6 0.7-2.1 0.6-3 0-0.8 0.6-0.4 1 0.3 0.4 0.7 1.2 1.9 1.7 2.9 0.4 0.9 0.7 1 0.5 0.3-0.1-0.8-1.1-2.6-1.1-2.6l0.1-0.6c0 0 0 0 0.3 0.1 0.2 0.1 0.9 0 1.3-0.4 0.5-0.4 0.7-2 0.7-2 0 0 0.9 0.8 2 1.5 1.1 0.8 0.3 0 0-0.4-0.4-0.5-2-2-2-2v-0.5-1.3c0 0 0.5 0.4 1.1 0.7 0.6 0.2 1.3 0.2 1.3 0.2 0 0 0.5 0.6 1.8 2.5 1.3 1.9 0.7 5 0.7 5 0 0-1.2 0-2.1-0.8-0.8-0.8-1.3-1.2-1.3-1.2 0 0-0.6-0.5-0.5 0.5 0.2 1 0.5 3.1 0.3 4-0.2 0.9-0.3 1.7-1.4 1-1.1-0.7-1.4-1.1-1.9-1.6-0.6-0.6-1.1-0.8-1 0.1 0.1 0.8 0.5 2.2 0.3 4-0.1 1.8-1 2-2.2 0.5-1.1-1.5-1.8-2.9-2.2-3.7-0.3-0.7-1-1.4-1 0 0 3-0.7 7.4-4 8.5-3.3-1.1-4-5.5-4-8.5 0-1.4-0.7-0.7-1 0-0.4 0.8-1.1 2.2-2.2 3.7-1.2 1.5-2 1.3-2.2-0.5-0.2-1.8 0.2-3.2 0.3-4 0.2-0.9-0.4-0.7-0.9-0.1-0.6 0.5-0.8 0.9-2 1.6-1.1 0.7-1.2-0.1-1.4-1-0.2-0.9 0.1-3 0.3-4 0.1-1-0.5-0.5-0.5-0.5 0 0-0.4 0.4-1.3 1.2z"/>
		<path id="Layer" class="s3" d="m154.7 386.5c0 0-0.2 2.6-1.2 4-0.8 1.2-1.5 2.3-2.8 3.1-1.2-0.8-2-1.9-2.8-3.1-0.9-1.4-1.1-4-1.1-4 0 0 1.9-1.5 2.8-2.5 0.8-1 1.1-1.5 1.1-1.5 0 0 0.3 0.5 1.1 1.5 0.9 1 2.9 2.5 2.9 2.5z"/>
		<path id="Layer" class="s4" d="m150.2 385.1h1c0 0 0 1.5-0.1 2.1-0.1 0.6 0 2.1-0.4 2.1-0.4 0-0.3-1.5-0.4-2.1-0.1-0.6-0.1-2.1-0.1-2.1z"/>
		<path id="Layer" class="s3" d="m160.6 242.8q1.2 0.2 2.4 0.5c-3.7 1.4-6.8 2-12.3 2-5.5 0-8.6-0.6-12.4-2q1.2-0.3 2.4-0.5c2.3 0.8 6.5 1.3 10 1.2 3.5 0.1 7.6-0.4 9.9-1.2z"/>
		<path id="Layer" class="s3" d="m163.4 241.7c-0.5 0-0.5 0-1.7-0.2-3.8-0.8-7.3-1-11-1-3.7 0-7.3 0.2-11 1-1.2 0.2-1.2 0.2-1.7 0.2-0.4 0-0.4-0.4-0.1-0.6 0.2-0.2 1.9-1.4 2.3-1.6 0.4-0.2 0.1-0.8 0-1-0.1-0.2-1.9-0.7-2.9-1-1-0.3-0.8-0.5-0.8-0.5 0 0 0.6-0.6 4.2-1 3.6-0.4 10-0.3 10-0.3 0 0 6.4-0.1 10 0.3 3.6 0.4 4.2 1 4.2 1 0 0 0.2 0.2-0.8 0.5-1 0.3-2.9 0.8-2.9 1-0.1 0.2-0.4 0.8 0 1 0.4 0.2 2 1.4 2.3 1.6 0.3 0.2 0.3 0.6-0.1 0.6z"/>
		<path id="Layer" class="s3" d="m150.7 243.6c-4.6 0-7.1-0.3-8.7-1 2.5-0.3 4.1-0.5 8.7-0.5 4.6-0.1 6.2 0.2 8.7 0.5-1.6 0.7-4.1 1-8.7 1z"/>
		<path id="Layer" class="s3" d="m150 206.7l-2 0.2v-1.6l2.1 0.2-0.5-1.8h2.4l-0.4 1.8 2.2-0.2-0.1 1.6-2-0.2 0.1 1.6-1.9 0.2z"/>
		<path id="Layer" class="s3" d="m154.1 211.2q0.1 0.4 0.1 0.8 0 0.2 0 0.4h-6.9q0-0.2 0-0.4 0-0.4 0.2-0.8h2.6v-2.2q0.3-0.1 0.7-0.1 0.4 0 0.7 0.1v2.2h2.6z"/>
		<path id="Layer" class="s5" d="m147.5 213h6.5c-0.4 1.3-1.7 2.2-3.2 2.2-1.5 0-2.8-0.9-3.3-2.2z"/>
		<path id="Layer" class="s5" d="m153.9 210.7h-1.7v-1.5c0.7 0.3 1.3 0.8 1.7 1.5z"/>
		<path id="Layer" class="s5" d="m149.4 210.7h-1.7c0.3-0.7 0.9-1.2 1.7-1.5z"/>
		<path id="Layer" class="s4" d="m153.8 237.8c0.2 0.4 0.3 0.7-0.3 0.9-0.5 0.3-2.8 1.3-2.8 1.3 0 0-2.3-1.1-2.6-1.3-0.3-0.1-0.6-0.3-0.3-0.8 0.2-0.6 0.1-0.5 0.8-0.8 0.7-0.4 2.1-1 2.1-1 0 0 1.4 0.6 2 0.9 0.7 0.3 1 0.4 1.1 0.8z"/>
		<path id="Layer" class="s3" d="m150.7 236.6l2.3 1-2.3 1.2-2.2-1.2z"/>
		<path id="Layer" class="s3" d="m151.1 230c0.3 0.3 0.5 0.6 0.4 1-0.1 0.4-0.5 0.7-0.8 0.7-0.3 0-0.8-0.3-0.8-0.7-0.1-0.4 0.1-0.7 0.3-1 0.3-0.4 0.5-1.2 0.5-1.2 0 0 0.2 0.8 0.4 1.2z"/>
		<path id="Layer" class="s3" d="m150.7 232.9c-0.2 0-0.4-0.2-0.4-0.4 0-0.2 0.2-0.4 0.4-0.4 0.2 0 0.4 0.2 0.4 0.4 0 0.2-0.2 0.4-0.4 0.4z"/>
		<path id="Layer" class="s3" d="m147.6 227.8c-0.6-2 0.1-4 0.4-6.3 0.2-2.2 0.5-6.1 0.5-6.1 0.7 0.5 1.5 0.7 2.2 0.7 0.7 0 1.4-0.2 2.2-0.7 0 0 0.2 3.9 0.5 6.1 0.3 2.3 1 4.3 0.4 6.3-0.6 2-1.6 2.5-1.6 2.5 0 0-0.8-0.8-1-1.3-0.3-0.5-0.5-1-0.5-1 0 0-0.2 0.5-0.5 1-0.3 0.5-1 1.3-1 1.3 0 0-1-0.5-1.6-2.5z"/>
		<ellipse id="Layer" class="s4" cx="150.7" cy="225.9" rx="1.8" ry="1.7"/>
		<ellipse id="Layer" class="s4" cx="150.7" cy="221.9" rx="1.7" ry="1.6"/>
		<ellipse id="Layer" class="s4" cx="150.7" cy="218" rx="1.6" ry="1.6"/>
		<ellipse id="Layer" class="s3" cx="150.7" cy="225.6" rx=".9" ry=".9"/>
		<ellipse id="Layer" class="s3" cx="150.7" cy="221.6" rx=".9" ry=".9"/>
		<ellipse id="Layer" class="s3" cx="150.7" cy="217.8" rx=".8" ry=".8"/>
		<path id="Layer" class="s4" d="m150.4 358.9c0-0.3-0.1-2.2-0.1-2.5 0-0.4 0.1-0.9 0.3-1 0.2 0 0.5-0.1 0.4 0.7-0.1 0.7-0.2 2-0.2 2.5 0 0.5-0.1 0.8-0.2 0.8-0.1 0-0.2-0.1-0.2-0.5z"/>
		<g id="a">
			<path id="Layer" class="s3" d="m127.1 374.9c-2.9-0.5-4-1.6-4-1.6 0 0-0.7-0.6 0.5-0.9 1.1-0.4 2.6-1.5 4-2.6 1.3-1 3.2-2.3 3.9-3.6 0.8-1.2 1.3-2.3 1.3-2.3l0.2 1.2c0 0 0.5 0.3 1.7-0.3 1.1-0.6 1.9-1.4 1.9-1.4 0 0 0.3 1 0.2 2.1-0.2 1.1-0.2 2.1-0.2 2.6 0.1 0.5 0.4 0.9 0.7 0.9h0.6c0 0-0.6 1.4-2.4 2.5-1.8 1.2-2.5 1.8-3.3 2.3-0.8 0.5-2.2 1.7-5.1 1.1z"/>
			<path id="Layer" class="s3" d="m139.1 376.3c-2 1.3-4.6 3.4-6.5 3.8-1.9 0.5-2 0.4-3.2 0.5-1.1 0.1-1.4-0.4-1-1.9 0.3-1.5 1.2-2.4 2.2-2.9 1-0.6 1.9-1.3 2.7-1.9 0.7-0.7 1.9-1.4 2.9-2 1-0.7 1.5-1.4 1.9-2.1 0.4-0.6 0.5-1 0.5-1 0 0 0.9-0.1 1.3-0.6 0.4-0.5 0.7-0.7 0.7-0.7 0 0-0.2 2.8 0 3.5 0.2 1.1 0.8 1.5 1.8 1.6 0 0-1.4 2.5-3.3 3.7z"/>
			<path id="Layer" class="s3" d="m142.9 380.5c-3.5 1.9-6 2.3-6.9 2.8-0.9 0.4-1.6 1.1-2 0.5-0.5-0.6-0.4-2 0.6-3.3 0.9-1.4 2.6-2.5 4-3.3 1.3-0.7 2.6-1.8 3.5-2.9 0.9-1.2 1-1.7 1-1.7 0 0 1.1-0.4 1.7-1.7 0.6-1.3 0.9-2.1 0.9-2.1 0 0 0.5 2.3 0.8 3.4 0.3 1.1 1.1 2.1 1.1 2.1 0 0-1.2 4.3-4.7 6.2z"/>
			<path id="Layer" class="s3" d="m145.1 386.2c-1.3 1.1-1.5 1.3-2.3 2-0.7 0.7-1.4 1-1.9 0.1-0.5-0.8-0.9-3.4-0.2-4.7 0.8-1.3 2.6-2.5 3.9-3.7 1.3-1.2 1.6-1.6 2.2-2.7 0.7-1.2 1.2-2.4 1.2-2.4 0 0 1 1.4 1.4 1.8 0.5 0.4 0.9 0.7 0.9 0.7 0 0-0.2 3.5-1.2 4.9-0.9 1.5-2.7 2.9-4 4z"/>
			<path id="Layer" class="s4" d="m137.2 352.7c0.2-0.8 0.5-1.6 1-2.4 0.5-0.8 1.7-2 1.7-2 0 0-0.3 0.7-0.8 1.4-0.4 0.6-1 1.9-1.5 3-0.6 1-0.7 0.9-0.4 0z"/>
			<path id="Layer" class="s4" d="m141.2 356.1c-0.1 0 0.4-1.7 0.8-2.8 0.3-1.2 0.9-1.6 1-1.6 0.1 0.1-0.1 0.7-0.1 0.7 0 0-0.1 0.5-0.3 1.2-0.2 0.7-1.3 2.6-1.4 2.5z"/>
			<path id="Layer" class="s4" d="m145.9 357.8c-0.1-0.1 0.3-1.1 0.3-1.4 0.1-0.3 0.1-1 0.4-1.6 0.4-0.7 0.5-0.4 0.5-0.1 0 0.2-0.4 1.5-0.4 1.5 0 0 0 0.1-0.2 0.6-0.2 0.4-0.5 1.1-0.6 1z"/>
			<path id="Layer" class="s4" d="m132.8 370.3c-0.6 0.5-0.9 0.9-1.8 1.4-1 0.6-1.2 0.6-1.2 0.6 0 0-0.6 0.4-0.7 0.2-0.2-0.1 0.1-0.2 0.9-0.7 0.8-0.4 1.4-0.9 1.7-1.4 0.3-0.4 0.8-0.6 1.3-1.1 0.4-0.5 0.8-0.9 0.8-0.9l0.5 0.3c0 0-0.9 1-1.5 1.6z"/>
			<path id="Layer" class="s4" d="m136.7 375.4c-0.6 0.5-1.1 0.7-1.1 0.7 0 0-1.1 0.5-1.5 0.6-0.4 0.1-0.8 0.3-0.8 0.3 0 0-0.4 0 0.1-0.3 0.4-0.2 1.4-0.8 1.9-1.1 0.4-0.3 0.8-0.6 1.2-1 0.5-0.4 1.4-1.3 1.8-1.6q0.5-0.4 0.8-0.1c0.2 0.2-0.2 0.5-0.6 0.9-0.3 0.4-1.2 1.2-1.8 1.6z"/>
			<path id="Layer" class="s4" d="m141.8 378.8c-0.7 0.6-1.2 0.9-1.5 1-0.3 0-0.6 0.1-0.6 0.1 0 0-0.8 0.5-1.1 0.6-0.2 0.1-0.5 0.1-0.5-0.1 0-0.1 0-0.2 0.6-0.5 0.5-0.3 1.1-0.5 1.8-1 0.7-0.5 1.9-1.7 2.4-2 0.5-0.2 0.9-0.4 0.5 0.3-0.3 0.6-0.9 1-1.6 1.6z"/>
			<path id="Layer" class="s4" d="m147.5 379.8c0 0 0.2 0.3 0 0.9-0.2 0.6-1.1 1.6-1.7 1.9-0.5 0.3-2 1.8-2 1.8 0 0-0.4 0.5-0.6 0.8-0.2 0.3-0.6 0.6-0.8 0.5-0.1-0.2 0.2-0.7 0.6-1.5 0.4-0.8 1.9-2 2.7-2.5 0.9-0.5 1.8-1.9 1.8-1.9z"/>
			<path id="Layer" class="s7" d="m122.3 257c-0.9 0.5-1.5 0-1.5 0 0 0-2-1.6-4.5-1.5-2.7 0.2-5.8 2.2-9 1.5-0.9-0.2-1.9-0.8-2.6-1.8-1.6-2.1-0.1-4-0.1-4 0.5 1.8 1.7 3.2 3.3 3.7 1.1 0.3 2.2 0.2 3.6-0.2 1.9-0.5 3.6-0.8 5.9-0.6 2.3 0.2 4.4 1.1 5.2 1.6 0.8 0.4 0.5 0.8-0.3 1.3z"/>
			<path id="Layer" class="s3" d="m111.2 349h-3.8c0 0 2.3-1.3 2.6-1.7 0.3-0.3 0.7-0.2 1-0.1 0.3 0.1 1.2 0.4 1.7 0.5 0.4 0.1 0.7 0.1 0.7 0.1 0 0-0.9 1.2-2.2 1.2z"/>
			<path id="Layer" class="s3" d="m124.5 350c0.1 0.7-0.2 0.7-0.7 0.9-0.6 0.3-1.7 0.9-4.7 2.8-3 1.8-4.1 3.1-4.1 3.1 0 0-0.1-0.8-0.1-1.6 0-0.8 0.1-2.5 0.7-4.3 0.7-1.9 1.4-3.1 2-3.7 0.6-0.7-1-0.7-1.9-0.7-0.9 0-2.4-0.5-2.9-0.8-0.4-0.3-1.3-0.4-2.3-0.9-0.9-0.5-0.3-0.6 0.7-0.9 1-0.2 3.7-1.4 3.7-1.4 0 0 1.3 0.7 2 1.2 0.8 0.4 1.7 1 3.3 1.2 1.6 0.2 2.1 0.3 2.2 0.3 0.1 0.1-0.4 0.5-1 1.3-0.6 0.9-0.9 1.4-1.6 2.7-0.8 1.3 0.1 0.5 0.7-0.3 0.4-0.4 1.2-1.5 1.9-2.3 0.6-0.6 1.2-0.9 1.2-0.9l0.5 1.1v0.3c0 0.4 0.3 2.1 0.4 2.9z"/>
			<path id="Layer" class="s3" d="m138.3 339.3c-0.6 0.5-2 1.8-2.5 2.5-0.5 0.8-1.6 1.5-2 2-0.4 0.6-0.8 1.2-1.3 1.8-0.5 0.6-3.7 4.1-4.5 5.5-0.8 1.3-0.4-0.4-0.1-1.3 0.2-0.9 0.5-2.2 0.8-3.2 0.2-1-0.4-0.6-0.5 0-0.1 0.5-0.2 0.6-0.4 1.6-0.3 1.1-0.9 2.7-1.2 3.8-0.3 1.2-0.4 0.6-0.7 0.1-0.2-0.5-0.7-1.4-0.8-2-0.2-0.5-0.4-1.8-0.4-3.7 0-1.9 0.9-2.7 0.9-3 0-0.3-0.4-0.5-1.1-0.4-0.7 0.2-1 0.3-2 0.3-1 0-1.4-0.3-2.4-0.3-1 0-1.7-0.3-3.4-1.2-1.6-0.9 0-0.6 1.1-0.5 1.2 0.1 4.2-0.4 5.5-0.9 1.3-0.4 0.3-0.5 0-0.4-0.4 0.1-0.5 0.2-3.1 0.7-2.6 0.4-3.6-0.2-4.9-0.5-1.3-0.4 0.3-0.6 0.3-0.6 0 0 4.7-1.3 7.1-3.9 1.7-2 2.3-3.8 2.5-4.6 0.9 1.1 2 2 3 2.9 0 0.3-0.2 0.9-0.5 1.5-0.3 0.9-1.5 2-1.5 2 0 0 1.4-0.5 2.1-1.2 0.4-0.5 0.8-1.2 1-1.6 1.5 1.1 3.1 2 4.6 2.7q-0.3 0.2-0.7 0.5c-0.6 0.6-1.2 1.3-2 2.6-0.8 1.3-0.1 1.2 0.7 0 0.7-1.2 2.5-2.4 2.9-2.6q0 0 0.1-0.1 0.3 0.2 0.6 0.3 1.4 0.7 2.8 1.2z"/>
			<path id="Layer" class="s3" d="m93.1 250.9c0.9-2.4 1.4-2.6 1.4-2.6 0 0 0.4-0.5 0.6 0.6 0.2 1 1.2 5.1 2.7 8.3 1.6 3.2 2.2 4.3 3.6 6.4 1.4 2 2.6 3.5 2.6 4.1 0 0.6 0.2 1.4-0.3 1-0.6-0.3-2.5-1.5-4.3-0.9-1.8 0.6-1.8 1.5-2.1 1.9-0.2 0.5-0.1 1.8 0.1 2.4 0.3 0.5 0.2 0.7 0 0.9-0.3 0.2-0.9-0.2-1.6-0.2-0.7 0-2 0-2.8 1-0.8 1-0.7 2.3-0.4 3.4 0.4 1.1 1.2 1.6 1.2 1.6 0 0-1.3 0.3-1.8 0.6-0.4 0.4-1 1-1 2.4 0 1.4 1.7 2.5 2.3 2.9 0.6 0.4 0.9 0.5 0.9 0.5 0 0-1.5 0.3-1.5 2.6 0.1 2.4 1.6 3 2.3 3.4 0.6 0.3 1.2 0.4 1.2 0.7 0 0.3-0.9 1-0.9 1.8-0.1 0.8-0.3 2.8 1.6 3.7 1.9 1 2.4 1 2.5 1.5 0 0.5 0.3 2 1.2 2.8 1 0.7 1.6 0.9 2.1 1.1 0.4 0.1 0.9 0.5 1 1 0.2 0.5 0.2 1.7 1.5 2.6 1.3 1 2.8 1.2 3.3 1.2 0.5 0 1.5-0.5 1.5 0.1 0.1 0.7-0.1 1.9 1 3.2 1.1 1.3 2.6 1.7 3.3 1.7 0.7 0.1 1.2-0.1 1.7-0.3 0.5-0.2 0.9-0.2 1.2 0.5 0.3 0.6 0.8 1.8 2 2.3 0.9 0.3 1.7 0.4 2.2 0.5-0.3 1.3-0.4 2.8-0.2 4.9-0.2 0.4-0.6 0.8-1.4 1.3-2.2 1.6-4.7 2-6.8 1.5-2.1-0.5-1.9-1.6-1.9-2.1 0-0.6 0.1-1.2 0.9-1.4 0.8-0.2 2.4-1.3 2.9-1.7 0.5-0.4 0.5-0.5 0.4-0.7-0.2-0.2-0.6-0.1-1.6 0.5-1 0.6-4.1 1.5-6.5 1.4-2.3-0.1-3.5-0.9-3-1.9 0.5-1.1 0.6-1.1 1.9-1.4 1.3-0.4 2.3-1.2 2.5-1.5 0.3-0.2 0.5-0.5 0.3-0.7-0.2-0.2-0.9 0-2 0.6-1.2 0.5-3.5 0.5-5-0.1-1.5-0.5-1.8-1-1.5-1.6 0.2-0.5 0.6-0.8 1.9-1.3 1.3-0.4 2.4-1 2.2-1.3-0.1-0.3-2 0.1-3.3 0.2-1.2 0.1-4.2 0.1-5.4-0.8-1.2-0.9-1.8-2.1-1.1-2.6 0.7-0.6 1.7-0.6 2.9-0.8 1.3-0.3 2.1-0.4 2-0.8 0-0.4-0.7-0.4-3.2-0.2-2.5 0.2-4.1-0.1-5.4-1-1.3-0.9-1.7-2.1-1.5-2.6 0.2-0.4 1.2-1 2.8-1.2 1.6-0.1 2-0.1 2.2-0.4 0.3-0.3 0.2-0.4-0.8-0.6-1-0.2-3.4-0.4-5.5-1.8-2.1-1.4-2.1-2.3-2.1-2.9 0-0.6 0.8-1 2.2-1 1.4 0 3-0.1 3.3-0.1 0.4 0 0.6-0.1 0.6-0.3 0.1-0.3-0.2-0.4-1.9-0.7-1.6-0.3-3.4-0.9-4.9-2.6-1.6-1.8-1.4-3.9-1.4-3.9 0 0 0-0.7 1.1-0.4 1 0.2 2.5 0.8 3.7 1.4 1.2 0.6 2.1 0.9 2.2 0.6 0.1-0.2-2-1.4-3.3-2.3-1.3-0.9-3.4-2.9-4.2-5.4-0.7-2.5-0.4-3.3 0.1-2.9 0.6 0.4 3.6 2.3 4.4 2.9 0.8 0.5 2 1.3 2.1 1 0.1-0.3-1.4-1.2-2.6-2.7-1.2-1.4-4.1-4.1-4.1-6.7-0.1-2.7 0.7-3 1.2-2.3 0.6 0.6 3.1 3 4.1 4 1 0.9 2.4 2.2 2.6 2 0.2-0.2-1.2-1.5-2.6-3-1.4-1.6-3-3.3-3.3-6.4-0.3-2.2 0.3-3 0.6-3.3 0.2-0.2 0.4-0.3 0.5 0 0.4 0.8 1.6 2.8 2.4 3.9 1.1 1.2 2.6 2.9 3.6 3.9 1 1 1.3 1.4 1.4 1.3 0.2-0.1-0.9-1.6-1.6-2.6-0.8-1-2.7-3-4-5.7-1.2-2.8-0.2-6.9 0.4-7.3 0.5-0.4 0.6-0.2 0.8 0.1 0.2 0.4 1.8 4.1 2.9 5.6 1.1 1.6 2.4 3.6 3 4.5 0.7 0.9 1.2 1.9 1.4 1.7 0.2-0.1-0.1-0.9-1.3-2.8-1.2-2-3.4-5.7-3.5-7.6 0-1.9 0.1-4.2 1.1-6.6z"/>
			<path id="Layer" class="s3" d="m124.3 300.3q-0.1 1.6-0.3 3.4c-0.2 1.8-0.5 3.3-0.8 4.5q-0.1 0.2-0.3 0.4c-0.3 0.3-0.5 0.4-0.5 0.7 0 0.3-0.4 0.6-0.6 0.9-0.2 0.2-0.9 0.6-0.8 0.7 0.2 0.1 0.4-0.1 0.7-0.3 0.3-0.2 0.3-0.3 0.5-0.3 0.2 0 0.1-0.1 0.1-0.3 0-0.1 0.1-0.4 0.3-0.4h0.3c-0.4 1.9-0.8 3.2-1.2 4.5-0.6 0.1-1.8 0.1-2.9-0.6-1.6-1.2-1.1-2.8-0.8-3.2 0.3-0.3 0.4-0.6 0.1-0.8-0.3-0.2-0.7-0.1-1.1 0.3-0.3 0.3-2.4 2.3-4.6 1.4-2.3-0.9-1.7-3.1-1.4-3.8 0.3-0.8 0.8-1.6 0.5-2-0.3-0.3-0.9-0.1-1.3 0.3-0.4 0.3-2.9 1-4.4 0.1-1.5-0.9-1.8-2.5-1-3.4 0.7-0.9 2.5-1.1 2.1-1.7-0.5-0.7-1.3 0.3-2 0.5-0.6 0.3-2.2 0.6-3.7-0.3-1.6-0.8-1.6-2.1-0.7-2.7 0.9-0.7 1.9-1.1 1.4-1.6-0.6-0.6-1.2 0-1.8 0.1-0.5 0.1-2.3 0.3-3.4-0.7-1.2-1.1-1.1-1.6-0.9-2.8 0.3-1.2 1.8-1.3 2.5-1.6 0.8-0.2 1-0.3 0.9-0.7-0.1-0.4-0.6-0.2-1.9-0.4-1.3-0.2-3.8-1.4-4-2.5-0.2-1 0.2-2.4 1.7-2.5 1.4 0 2.6 0 2.6-0.5-0.1-0.4-0.4-0.2-0.9-0.4-0.5-0.1-3.2-0.6-4.5-2.1-1.3-1.4 0.1-2.6 1-2.9 0.8-0.3 2.2-0.2 2.6 0 0.5 0.1 0.8 0.4 1.1 0.1 0.2-0.2-0.2-0.7-1.3-1.2-1-0.5-2.7-1.8-2.6-3.2 0.2-1.4 0.8-1.9 2.5-2 1.6-0.2 2.8 1.1 3.3 1.4 0.4 0.3 1.9 1.3 2.2 0.9 0.2-0.4-0.6-1.1-1.5-2.2-1-1-2.1-3.1-1-4.4 1.1-1.2 2.5-1.1 4.2-0.4 1.7 0.8 1.9 1.6 2.3 1.3 0.4-0.3 0-1.5 0-2.7 0-1.1 0.9-2.2 0.9-2.2 0 0 2.3 4.8 5.2 8.2 3 3.4 5.9 6.4 5.8 8.8-0.1 2.4-1.4 4-4.2 5.4-2.9 1.4-3.7 3.6-3 5.5 0.7 2 2 3.3 4.8 3.3 2.8-0.1 4.4 0.3 5.5 1.9 1.1 1.5 2.5 2.1 3.6 2.2z"/>
			<path id="Layer" class="s3" d="m74.1 254.9c-0.4-3.1 0.2-5.2 0.5-6.7 0.4-1.4 0.8-2.5 1.2-0.5 0.4 1.9 2.5 8.7 3.5 11.4 1 2.7 2.9 5.4 3.8 6.8 0.3 0.4 0.7 0.9 1 1.3 0.6 1 1 1.8 1 1.8 0 0-0.3 0-0.6-0.3-0.2-0.4-0.5-0.7-0.8-0.6-0.3 0.1-0.8 1.8-0.8 1.8 0 0-1.3-1.6-2.5-3.5-1.1-1.9-2.6-5.5-2.6-5.5 0 0 0.9 3.6 2.5 6.1 1.5 2.4 2.4 3.5 2.4 3.5 0 0-0.2 0.9 0 1.7 0.2 0.9 0.7 2.1 0.7 2.1 0 0-3.4-2.8-5.8-7.6-2.4-4.9-3.2-8.7-3.5-11.8z"/>
			<path id="Layer" class="s3" d="m73 271c-3.4-6.1-2.5-11.7-2.5-11.7 0 0 1.9 3.8 3.6 6.6 1.7 2.8 5.8 7.4 7.4 8.7 1.6 1.2 1.8 1.2 1.5 1.6-0.3 0.3-0.4 0.7-0.4 1.2-0.1 0.5-0.1 0.5-0.1 0.5 0 0-2.8-2.4-4.3-4-1.5-1.6-2.9-3-1.1-0.7 1.8 2.3 2.7 3.1 3.5 3.7 0.7 0.7 1.8 1.6 1.8 1.6 0 0 0 1.2 0.1 1.8 0.2 0.6 0.4 1.1 0.4 1.1 0 0-1.3-0.9-2.2-1.6-0.9-0.7-4.3-2.6-7.7-8.8z"/>
			<path id="Layer" class="s3" d="m90.3 317.4c-3.1 0-7.7-1.2-8.9-3.3-1.3-2.2-0.9-2.4-0.5-2.3 0.5 0.1 2.9 0.5 5.6 0.5 2.7 0 6.2-0.6 7.8-1 1.7-0.4 2.4-0.7 2.7-0.5 0.2 0.2 0.8 0.5 1.4 0.6 0.7 0.1 0.7 0.1 0.3 0.4-0.5 0.3-3 1.7-4.5 2-1.5 0.2-2.3 0.1-2.3 0.2 0.1 0.2 0.1 0.3 1.1 0.3 1 0 3.6-0.8 4.6-1.2 1.1-0.4 2.2-0.8 2.2-0.7 0 0 0.5 1.8-1.3 2.6-1.9 0.7-5 2.4-8.2 2.4z"/>
			<path id="Layer" class="s3" d="m81.9 309.4c-2.1-0.6-4.6-1.9-5.8-3.8-1.3-2-1.1-2.4-1.1-2.4 0 0 0-0.3 0.7-0.2 0.8 0.2 3.1 1.1 6.7 1.5 3.7 0.4 7.6-0.1 7.6-0.1 0 0 1.6 1 2.2 1.2 0.6 0.2 0.9 0.5 0.1 0.8-0.9 0.3-3.5 0.8-4.9 0.6-1.4-0.2-2.1 0-0.4 0.3 1.7 0.3 3.3 0.2 4.7 0 1.3-0.2 2.1-0.4 2.1-0.4 0 0-0.1 1.2 0.3 1.8 0.5 0.7 0.5 0.9 0.5 0.9 0 0-1.2 0.9-4.5 0.9-3.2 0-6.1-0.5-8.2-1.1z"/>
			<path id="Layer" class="s3" d="m79.7 301.4c-4.5-1.6-5.4-2.5-7.2-4.6-1.8-2.1-1.8-3.1-1.9-3.8-0.2-0.7-0.3-1.2 0.4-0.6 0.7 0.6 3.4 2.1 7 3.4 3.5 1.3 5.1 2 7.1 2.2 2 0.2 2.1 0.3 2.6 0.6 0.4 0.3 1.1 0.7 2 0.8 0.8 0.1 1.5 0.3 1.5 0.3 0 0-1 0.3-1.3 0.4-0.3 0.2-1.1 0-2.7-0.2-1.6-0.2-5.3-0.6-6.2-0.9-0.9-0.3-1.3-0.6-1.4-0.4 0 0.1 1 0.6 2.5 0.9 1.5 0.3 1.6 0.5 4 0.8 2.5 0.3 3.2 0.6 3.2 0.6 0 0-0.5 0.5-0.3 1.1 0.1 0.7 0.3 0.9 0.3 0.9 0 0-5.1 0.2-9.6-1.5z"/>
			<path id="Layer" class="s3" d="m70.3 286.7c-1.3-1.8-1.9-3.5-1.9-3.8-0.1-0.4-0.4-0.9 0.4-0.3 0.5 0.4 1.9 1.4 3.2 2.3 0.7 0.5 1.4 1 2.1 1.4 1.9 1.1 3.9 1.9 6.2 2.6 2.3 0.7 3.8 1 3.8 1 0 0 0.8 1.3 1.4 1.7 0.6 0.3 1.8 0.9 0.5 0.6-1.3-0.3-3.7-0.6-5.7-1.3-2.1-0.8-3-1.5-3.1-1.3 0 0.1 0.6 0.7 2.8 1.6 2.2 0.8 3.9 1 5.5 1.4 1.6 0.5 1.6 0.5 1.8 0.5 0.2 0 0.9 0.2-0.1 0.2-0.9 0.1-1.4 0.1-1.6 0.8-0.2 0.5 0.2 1.5 0 1.7-1-0.1-5.7-1.1-9.7-3.9-4-2.8-4.4-3.4-5.6-5.2z"/>
			<path id="Layer" class="s3" d="m69.2 275.1c-0.4-1.9-0.3-2.2-0.3-2.6q0.1-0.6 0.5-0.2c0.2 0.4 4 4.5 5.9 6.1 1.9 1.6 4.5 3.5 6 4.2 1.5 0.7 2.8 1.1 3 1.5 0.2 0.4 0.7 0.8 0.7 0.8 0 0-0.9-0.1-1.2 0.3-0.3 0.3-0.4 0.8-0.4 0.8 0 0-2.4-1.4-4-2.4-1.6-1-3.2-1.9-3.6-2.2-0.3-0.3-1-0.4 0.2 0.4 1.1 0.8 2.8 2 4.4 3 1.6 0.9 3 1.7 3 1.7 0 0 0.1 1 0.2 1.4 0.1 0.3 0.2 0.6-0.4 0.4-0.6-0.3-4-1.2-7.9-4.3-4-3.2-5.7-7.1-6.1-8.9z"/>
			<path id="Layer" class="s3" d="m87.6 247.9c-0.2-1.4-0.8-5-0.6-8.8 0.3-5.1 1.8-10.4 3.8-12.4 0 0 0.6 8.2 1 11.3 0.3 3.1 1.7 9.8 1.7 9.8 0 0 0.1 0.1-0.2 1.1-0.4 1-0.9 1.8-1.2 2.6-0.3 0.8-0.4 1.3-0.4 1.3 0 0-0.9-3.5-1.3-5.9-0.3-2.3-0.4-3.8-0.4-4.8 0-1-0.3-2-0.3 0 0 2.1 0.3 4.4 0.6 6 0.2 1.6 0.8 3.9 0.9 4.4 0.1 0.3 0.3 0.8 0.3 1.2 0 0.5-0.1 1-0.2 1.4-0.1 0.9 0 1.7 0 2.3 0.1 0.5 0 0.8 0 0.8 0 0-0.3-0.6-0.8-1.5-0.4-0.6-0.8-1.3-1.3-2.2-0.7-1.6-1.2-3.8-1.6-6.6z"/>
			<path id="Layer" class="s3" d="m82.3 259c-0.9-2.6-2.8-9.6-2.2-16.8 0.7-7.3 2.6-8.7 2.6-8.7 0 0 0 0.9 0.1 3.2 0 2.4 0.7 6.5 1.9 10.9 1.1 4.5 3 8.2 3 8.2-0.4 1.3-0.5 2.9-0.6 4.1-0.1 1.2 0 1.9 0.2 3l-1.5-2.5c0 0-1.3-2.1-2.3-8.1-1.1-6-0.7-2.3-0.2 1.2 0.3 1.5 0.7 3.4 1.2 4.8 0.7 2.2 1.6 3.7 1.6 3.7-1 0.3-1.3 1.4-1.4 2.9 0 0-1.4-3.3-2.4-5.9z"/>
			<path id="Layer" class="s3" d="m98.2 323.1c-4.2 1-6.4 0.6-8-0.1-1.9-0.7-2.4-2.8-2.4-2.8 0 0 3.4-0.4 7.4-2.1 4-1.7 5-2.6 5-2.6 0 0 1.3 0.5 2.2 0.5 1 0 1.6 0.1 1.6 0.1 0 0-2.4 2.1-3.6 2.6-1.2 0.5-1.3 0.6-1.8 0.9-0.5 0.2-0.7 0.5-0.1 0.3 0.6-0.2 1-0.4 1.9-0.8 0.9-0.3 1.7-0.8 2.3-1.3 0.7-0.4 0.9-0.6 0.9-0.6 0 0-0.2 1.7 0.7 2.3 0.9 0.5 1.2 0.7 1.2 0.7 0 0-3 1.8-7.3 2.9z"/>
			<path id="Layer" class="s3" d="m103 328.8c-5.5 0.2-7.5-2.2-7.5-2.2 0 0 2.6-0.1 7.1-2.8 4.5-2.7 5.6-3.2 6.2-2.9l0.7 0.2c0 0-2.4 2.5-4 3.3-1.6 0.9-1 1 0.6 0.1 1.7-0.8 2.6-1.8 3.2-2.4 0.6-0.5 0.8-0.6 0.8-0.6 0 0 1 1.1 0.6 2.8-0.3 1.7-2.3 4.3-7.7 4.5z"/>
			<path id="Layer" class="s3" d="m118.3 328.2c-1.1 1.2-2.2 2.2-3.3 2.8-1.7 1-3.3 1.2-4.8 1-2.4-0.3-2.7-0.7-2.7-0.7 0 0-0.5-0.2 0.1-1 0.9-1.1 1.8-2.1 2.8-3.1 0.8-1 1.2-1.4 1.5-1.9 0.3-0.5 0.1-0.6 1.1-0.5 1.1 0.1 2.2 0 2.2 0 0 0 0.9-0.1 0.3 0.6-0.6 0.8-1.5 1.8-2.4 2.4-0.9 0.6-1.9 0.9-1.8 1.1 0.1 0.2 1.6-0.3 2.5-1 1-0.7 1.9-2 2.4-2.5 0.4-0.5 0.5-0.8 0.5-0.8 0 0 2.1-0.3 2.9-0.8 0.8-0.6 1.4-1.4 1.4-1.4 0 0 0.2 2.6-2.7 5.8z"/>
			<path id="Layer" class="s3" d="m123.1 328.2q0.4 0.7 0.8 1.3c-0.2 1-0.7 2.4-2.2 3.1-1.6 0.8-3 0.7-3.7 0.1-0.7-0.5 0.4-1.2 1.6-3.2 1.1-1.7 1.9-4.2 2.2-5.1q0.3 1.6 0.9 2.9c-0.1 0.2-0.3 0.5-0.5 0.9-0.4 0.6-0.8 1.9-0.8 1.9 0 0 0.3-0.4 0.9-1.2 0.4-0.4 0.7-0.6 0.8-0.7z"/>
			<ellipse id="Layer" class="s3" cx="122" cy="248.6" rx="1.1" ry="1"/>
			<path id="Layer" class="s3" d="m118.9 246.4c-0.2-0.5-0.1-1.5 1.5-2.4 1.5-0.9 3.8-0.8 5.9-0.2 2 0.6 3.2 1.4 4 2 0.8 0.6 1.8 1.5 2 1.3 0.3-0.2-0.4-0.6-0.8-1-0.4-0.4-0.6-0.5-0.6-0.5 2.3 0.1 4.7-0.6 6.7-2 0 0 0.6 2.9-2 4.4-0.6 0.4-1.2 0.7-1.8 0.9-2.2 0.6-4.5 0.2-6.2-0.6-2.2-1.1-3.9-1.9-5.3-2-1.1-0.1-1.6 0.4-2.7 0.4-0.3 0-0.6-0.1-0.7-0.3z"/>
			<path id="Layer" class="s3" d="m148.9 270c-1 1.1-3.2 1.5-5.4 0.8-2.2-0.6-4.4-3.3-4.4-3.3 0 0 0.5 3.8 0.5 5.6 0 1.7-0.2 3.8-0.5 4.8-0.3 1-0.6 1.5-0.6 1.5 0 0-1.5-0.8-2.6-3.4-1-2.7-1.2-4.1-1.2-4.9 0-0.8-0.1-1.2-0.8-0.8-0.7 0.4-1.2 0.7-1.4 0.7l-0.5 0.1c0 0 0.5-1.9 0.5-3.3 0-1.5-0.5-4.5-1.1-5.1-0.6-0.6-0.7 0.2-0.8 0.6-0.1 0.7-0.7 1.6-1.6 1.8-0.3-2-0.7-3.8-2.5-5.6-0.3-0.3-0.5-0.8-1.6-0.3-1.5 0.6-3.6 1-5.2 0.4-1.6-0.6-2.7-2.3-2.3-2.4 0-0.1 2.4 1.1 4.2 0.5 1.9-0.6 2.7-1.2 1.7-2.3-1.1-1.1-1.6-1.3-3.7-3-2.2-1.8-3.9-2.7-5.8-2.4-1.8 0.3-2.2 1.4-2.4 1.7-0.1 0.2-0.9 0.8-0.9-0.7 0-1.6 0.7-3.6 2.2-4.3 1.5-0.7 3-0.6 4.8 0.1 1.9 0.6 2.8 1.2 2.8 1.2 0 0-0.3 1.6 0.8 2.3 1.1 0.8 2.3 0.3 2.6-0.4 0.3-0.7 0.3-1.1 0.3-1.1 0 0 1.8 1 4.2 1.4 1.3 0.2 3.9 0.5 5.5-0.1 0 0 1.4 1.4 2.5 2.2 1.1 0.9 2.2 1.6 2.2 1.6 0 0-0.1 0.4-0.6 0.5-0.5 0.2-0.7 0.3-0.4 0.9 0.4 0.5 2.9 2.8 3.9 3.5 1.1 0.8 2.7 1.4 2.7 1.4 0 0-0.5 0.9-1.3 1.2-0.7 0.3-0.8 0.8-0.5 1.3 0.3 0.6 2.9 3.4 3.9 4.4 1.1 1 1.9 1.1 2.4 1.2 0.5 0.1 1.3 0.6 0.4 1.7z"/>
			<path id="Layer" class="s3" d="m134.3 276.5c0.4 1.1 1.5 2.6 1.5 2.6 0 0-0.9-0.2-1.9-0.5-1-0.3-1.6-0.9-1.6-0.9 0 0 0.1 0 0.5-0.6 0.4-0.5 1-2 1-2 0 0 0.1 0.4 0.5 1.4z"/>
			<path id="Layer" class="s3" d="m149 277.3c0.5 0.7 0.1 0.8 0.1 0.8 0 0-0.2 0.3-3.4 1.2-3.3 0.9-6.2 0.3-6.2 0.3 0 0 0.1-0.2 0.7-2.5 0.5-2.2 0.2-5.8 0.2-5.8 0 0 0.6 1.6 2 2.9 1.4 1.4 2.4 1.2 2.4 1.2 0 0-0.1 0-1.2-0.7-1-0.7-2-2.8-2-2.8 1.1 0.6 3.7 1.3 5.1 1 0 0 0.2 0.5 0.5 1.3 0.3 0.9 1.3 2.4 1.8 3.1z"/>
			<path id="Layer" class="s4" d="m144.8 268.5v0.2c0 0-1-0.1-1.9-0.7-1-0.5-2.4-1.8-2.7-2.3-0.3-0.5 0-0.8 0-0.8 0 0 0.1 0.3 1.1 1.4 1 1.1 3.5 2.2 3.5 2.2z"/>
			<path id="Layer" class="s4" d="m137.8 275.6c-0.2 0-0.5 0.1-0.6-0.6-0.1-0.9-1-6.7-1-6.7l0.5-0.2c0 0 0.4-0.2 0.4 0.5 0 0.7 0.3 5.2 0.3 5.2 0 0.2 0.1 1.6 0.4 1.8z"/>
			<path id="Layer" class="s4" d="m133.5 257.1c1 1.7 1.6 5.4 1.6 5.4 0 0-0.6-0.4-1.2-0.8-0.7-0.5-1.3-0.8-2.5-1.7-1.2-0.9-1.9-1.5-2.5-2.2-0.6-0.7 0.2-0.8 0.6-0.7 0.4 0.1 1.5 0.9 2 1.4 0.6 0.4 1 0.4 1.5 0.7 0.5 0.2 0.3-0.9 0-1.8-0.3-1-1.3-2.1-2.1-3-0.8-0.8 0-0.6 0.4-0.2 0.3 0.4 1.2 1.3 2.2 2.9z"/>
			<path id="Layer" class="s4" d="m112.4 315.3c0.1 0.4-0.3 0.6-0.6 0.8-0.3 0.2-1 0.8-1.6 0.9-0.6 0.1-1.1 0.3-1.1 0.1 0-0.2 0.4-0.2 0.4-0.2 0 0 1-0.2 1.8-0.8 0.7-0.5 1-1.2 1.1-0.8z"/>
			<path id="Layer" class="s4" d="m118.1 319.5c0.2 0.1 0 0.2-0.4 0.6-0.4 0.4-1.7 1.3-2.2 1.4-0.4 0.1-0.5 0-0.5 0 0 0 0.1-0.2 0.5-0.4 0.4-0.1 0.8-0.4 0.8-0.4 0 0 1.3-0.9 1.4-1.1 0.2-0.2 0.3-0.3 0.4-0.1z"/>
			<path id="Layer" class="s4" d="m90.5 271.8c-0.4-0.6-0.1-0.5 0.2-0.3 0.3 0.3 0.7 1 0.7 1q0 0 0.5 0.5c0.3 0.4 0.4 0.5 0.3 0.7-0.1 0.1-0.4-0.3-0.6-0.6-0.3-0.3-0.6-0.8-1.1-1.3z"/>
			<path id="Layer" class="s4" d="m88.7 276.5c0 0 0.5 0.2 0.8 0.5 0.4 0.3 0.6 0.5 0.9 0.9 0.3 0.4 0.9 0.7 0.8 0.9-0.2 0.2-0.5-0.2-0.8-0.5-0.3-0.3-0.5-0.6-0.8-0.8-0.3-0.3-0.9-1-0.9-1z"/>
			<path id="Layer" class="s4" d="m89.2 283.5c-0.2-0.2-1-1-0.9-1.1 0.1 0 0.3 0.2 0.6 0.4 0.2 0.2 0.5 0.5 0.9 0.7 0.3 0.3 1 0.7 1.4 0.9 0.4 0.2 0.6 0.4 0.5 0.6-0.2 0.2-0.9 0-1.4-0.5-0.5-0.5-0.9-0.9-1.1-1z"/>
			<path id="Layer" class="s4" d="m91.4 290.3c-0.2-0.1-0.6-0.2-0.9-0.2-0.3-0.1-1-0.4-0.9-0.6 0-0.1 0.8 0.2 0.8 0.2 0 0 0.6 0.1 1 0.1 0.4 0 0.4 0.1 0.4 0.3 0 0.2-0.2 0.3-0.4 0.2z"/>
			<path id="Layer" class="s4" d="m94 296.5c0.1 0.3 0 0.4-0.6 0.4-0.6 0-1.4-0.1-1.9-0.2-0.4-0.2-0.9-0.4-0.8-0.5 0-0.2 0.8 0.1 1.7 0.1 0.9 0 1.6-0.1 1.6 0.2z"/>
			<path id="Layer" class="s4" d="m98.7 303.4c-0.5 0.1-1.2 0.3-2.3 0.2-1.1-0.2-1.9-0.1-1.9-0.3l0.6-0.1c0 0 1 0 1.5 0.1 0.4 0 1.2-0.2 1.7-0.3 0.5-0.1 0.8-0.2 1 0 0.1 0.1-0.1 0.3-0.6 0.4z"/>
			<path id="Layer" class="s4" d="m103.4 307.4c0.2 0.3-0.3 0.5-0.7 0.6-0.5 0.1-0.9 0.3-1.6 0.3-0.8 0-1.1 0-1.5 0-0.4 0.1-0.5 0.3-0.6 0.1-0.1-0.2 0.4-0.2 0.4-0.2 0 0 1-0.2 1.4-0.2 0.4 0 0.8-0.1 1.3-0.3 0.6-0.2 1-0.6 1.3-0.3z"/>
			<path id="Layer" class="s4" d="m108.2 311.1c0.1 0.2-0.5 0.5-0.9 0.9-0.5 0.4-1.3 0.9-1.6 1-0.2 0.1-0.5 0.4-0.6 0.3-0.1-0.1-0.1-0.2 0.4-0.4 0.4-0.3 0.7-0.5 0.7-0.5 0 0 1.1-0.8 1.5-1.1 0.3-0.3 0.4-0.5 0.5-0.2z"/>
			<path id="Layer" class="s4" d="m97.3 263.1c-0.3-0.4-0.2-0.6 0.3-0.1 0.5 0.5 1.9 2.5 2.1 2.8 0.2 0.3 0.7 1.5-0.2 0.3-1-1.2-1.1-1.5-1.1-1.5 0 0-0.9-1.2-1.1-1.5z"/>
			<path id="Layer" class="s4" d="m95.8 270.4c-0.3-0.4-0.9-1.3-1.3-1.7-0.5-0.4-1-1.5-0.9-1.5 0.2-0.1 0.5 0.5 0.5 0.5 0 0 1.1 1.4 1.6 2.1 0.5 0.7 0.9 0.8 0.7 1-0.1 0.1-0.3-0.1-0.6-0.4z"/>
			<path id="Layer" class="s4" d="m97.9 282.4c-0.6-0.1-1.5-0.4-2.1-0.5-0.5-0.1-0.8-0.2-0.7-0.3 0-0.2 1 0 1 0 0 0 0.9 0.2 1.4 0.3 0.5 0.1 1.6 0.1 1.6 0.4 0 0.3-0.5 0.2-1.2 0.1z"/>
			<path id="Layer" class="s4" d="m96.5 275.9c0.3 0.1 0.7 0.3 0.7 0.3 0 0 0.3 0.3 0.9 0.5 0.6 0.3 1 0.5 0.8 0.7-0.2 0.3-0.5-0.1-0.9-0.3-0.4-0.2-0.9-0.4-1.6-1-0.7-0.6-0.2-0.4 0.1-0.2z"/>
			<path id="Layer" class="s4" d="m103.3 273.1c-0.3 0.1-0.9-0.7-1.2-1.1-0.4-0.3-1.1-0.8-1-0.9 0.1-0.2 0.7 0.3 0.7 0.3 0 0 0.4 0.2 0.8 0.6 0.4 0.4 1.1 0.9 0.7 1.1z"/>
			<path id="Layer" class="s4" d="m99.6 287.7c0.3 0 0.7-0.1 0.8 0.1 0.1 0.3-0.2 0.3-0.9 0.5-0.7 0.1-0.9 0.3-1.6 0.3-0.7 0-0.7-0.2-0.3-0.3 0.4-0.1 1-0.3 1-0.3 0 0 0.7-0.2 1-0.3z"/>
			<path id="Layer" class="s4" d="m100.2 293.5c0 0 0.7-0.6 1.3-0.8 0.5-0.1 1-0.4 1-0.1 0 0.3 0 0.3-0.4 0.5-0.5 0.1-1.2 0.5-1.6 0.6-0.4 0.1-0.9 0.3-0.9 0.1 0.1-0.1 0.6-0.3 0.6-0.3z"/>
			<path id="Layer" class="s4" d="m105.4 298.4c-0.4 0.3-1 0.4-1.1 0.3-0.1-0.2 0.3-0.4 0.6-0.6 0.3-0.2 0.7-0.3 0.7-0.3 0 0 0.8-0.6 1.2-0.9 0.4-0.4 0.6-0.4 0.8-0.2 0.2 0.1 0 0.4-0.5 0.7-0.5 0.3-1.4 0.7-1.7 1z"/>
			<path id="Layer" class="s4" d="m109.8 302.7c-0.5 0.3-0.7 0.3-1.1 0.4-0.4 0-0.6-0.1-0.2-0.3l0.5-0.2c0 0 1.7-1.1 2.2-1.4 0.4-0.4 0.6-0.7 0.8-0.7 0.2 0.1 0.1 0.7-0.2 0.9-0.3 0.3-0.9 0.5-1.1 0.6-0.2 0.2-0.5 0.3-0.9 0.7z"/>
			<path id="Layer" class="s4" d="m115.1 306.9c-0.1 0.2-0.7 0.3-0.2-0.1 0.5-0.4 0.7-0.5 0.7-0.5 0 0 0.9-1 1.3-1.3 0.4-0.3 0.6-0.6 0.9-0.4 0.2 0.2-0.2 0.5-0.5 0.8-0.3 0.3-1 0.9-1.4 1.1-0.5 0.2-0.6 0.3-0.8 0.4z"/>
			<path id="Layer" class="s3" d="m135.2 239.2l1.6-1.3 2.5 0.6-2.1 1.5z"/>
			<ellipse id="Layer" class="s4" cx="143.9" cy="238.3" rx="2" ry="1.9"/>
			<ellipse id="Layer" class="s3" cx="143.9" cy="237.9" rx="1.2" ry="1.2"/>
			<path id="Layer" class="s3" d="m139 230.2c0.1-0.5 0.1-1.2 0.1-1.2 0 0 0 0.1 0.3 0.4 0.3 0.3 0.7 0.6 1.2 1 0.5 0.4 0.3 1.3 0.3 1.3 0 0-0.6 0.1-1.2-0.1-0.5-0.2-0.7-0.9-0.7-1.4z"/>
			<path id="Layer" class="s3" d="m140.8 232.9c-0.2 0-0.4-0.1-0.4-0.3 0-0.2 0.2-0.4 0.4-0.4 0.2 0 0.4 0.2 0.4 0.4 0 0.2-0.2 0.3-0.4 0.3z"/>
			<path id="Layer" class="s3" d="m139 232c0.7 0.2 0.9 0.5 1 0.7 0 0.3-0.1 0.7-0.5 0.7-0.4 0.1-0.8-0.1-1.2-0.4-0.3-0.2-0.7-0.2-0.7-0.2 0 0 0.3-0.4 0.5-0.6 0.1-0.2 0.3-0.5 0.9-0.2z"/>
			<path id="Layer" class="s3" d="m140.8 233.5c0 0 0.3 1.2-0.5 1.7-0.4 0.3-1.2 0.5-1.9 0.6-0.5 0.1-1 0.2-1.5 0.1-1.2-0.1-2.2-0.7-2.2-0.7h-0.1c1.1-0.2 1.8-0.8 1.9-1.9 0 0 1.7 1.4 3 1.3 1.2-0.1 1.3-1.1 1.3-1.1z"/>
			<path id="Layer" class="s3" d="m134.8 233.7c-0.4 0.2-0.7 0.4-1.3 0.4-0.6 0-1.2-0.3-1.3-0.9-0.1-0.6 0.4-0.5 0.7-0.5 0.4 0 1.1 0.4 1.7 0.6 0.5 0.2 0.5 0.3 0.2 0.4z"/>
			<path id="Layer" class="s3" d="m131.7 232.3c0.2 0.4-0.6 0.6-1.2 0.7-0.5 0-0.9-0.2-1.1-0.8-0.2-0.6 0.1-1.6 0.1-1.6 0 0 0.5 0.1 1.1 0.6 0.6 0.4 0.8 0.7 1.1 1.1z"/>
			<path id="Layer" class="s3" d="m131.1 234.2c-0.2 0-0.4-0.1-0.4-0.3 0-0.2 0.2-0.3 0.4-0.3 0.3 0 0.5 0.1 0.5 0.3 0 0.2-0.2 0.3-0.5 0.3z"/>
			<path id="Layer" class="s3" d="m132.1 231.8c0 0-1.1-1.5-1.9-1.7-0.9-0.2-1-0.5-1.1-1q0-0.2 0-0.9c0.7 0 1.2-0.7 1.2-1.5 0-0.5-0.2-1-0.6-1.2q0.4-1.1 1-2.3 0.1-0.2 0.2-0.3 0.3 0.1 0.7 0.1c0.8 0 1.4-0.6 1.4-1.4q0-0.5-0.2-0.8c0.5-0.4 2.6-1.7 3.3-1.8q0.3 0.2 0.8 0.2c0.8 0 1.4-0.6 1.4-1.4q0-0.1 0-0.1c1.2-0.4 3.2-0.9 3.2-0.9 0 0-1.7 1.2-2.6 2.1-0.9 1-1 1.1-1 1.1 0 0-2.7 1-4.3 3.3-1.6 2.3-1.6 4.1-1.3 5.7 0.4 1.7-0.1 2.8-0.2 2.8z"/>
			<path id="Layer" class="s3" d="m136.4 218.5c-0.3-0.2-0.2-0.6 0.1-0.9 0.3-0.2 0.7-0.2 1 0 0.2 0.2 0.1 0.6-0.2 0.8-0.3 0.3-0.7 0.3-0.9 0.1z"/>
			<path id="Layer" class="s3" d="m131 222c-0.3-0.2-0.2-0.7 0.1-1 0.3-0.3 0.8-0.3 1.1-0.1 0.3 0.3 0.2 0.8-0.1 1.1-0.4 0.3-0.9 0.3-1.1 0z"/>
			<ellipse id="Layer" class="s3" cx="128.9" cy="226.5" rx=".8" ry=".8"/>
			<path id="Layer" class="s3" d="m147.8 215.7c-0.1 0.7-0.1 0.9-0.1 1.2-0.1 0.3-0.2 0.8-0.9 1.1-0.6 0.4-2.9 1.8-4.1 3.4-1.2 1.6-1.8 3.8-1.7 5 0.1 1.2 0.5 2 0.5 2.7 0 0.7-0.4 1.3-0.4 1.3 0 0-0.7-0.6-0.9-0.9-0.3-0.4-0.7-0.7-0.9-1.1-0.3-0.3-0.8-0.2-0.8-0.2 0 0 0.1 0.7 0 1.3-0.1 0.5-0.2 0.7-0.1 1 0 0.3 0.2 0.5 0.2 0.5 0 0-2.1-0.3-2.6-1.9-0.6-1.5-0.1-4.1 1.2-6.5 1.3-2.4 1.9-3.3 4.5-5q0.6-0.4 1.1-0.7-0.1 0.2-0.1 0.4c0 0.7 0.5 1.4 1.4 1.4 0.8 0 1.5-0.7 1.5-1.4 0-0.7-0.6-1.2-1.4-1.2h-0.1c1.2-0.6 2-0.9 2.4-1 0.7-0.1 1.4-0.1 1.3 0.6z"/>
			<ellipse id="Layer" class="s3" cx="144" cy="217.2" rx=".8" ry=".7"/>
			<path id="Layer" class="s3" d="m147 232.6c0 0 0.8-0.6 1.2-0.8 0.3-0.2 0.9-0.2 1.3 0.1 0.4 0.4 0.3 0.9 0 1.1-0.4 0.3-1.1 0.4-1.7 0.2-0.6-0.3-0.8-0.6-0.8-0.6z"/>
			<path id="Layer" class="s3" d="m150.3 233.4c0.1 0.2 0.1 0.5-0.2 1.1-0.3 0.6-1.3 0.6-1.3 0.6h-5c-0.9 0-1.2-0.3-1.8-0.8-0.5-0.4-0.6-0.8-0.5-0.9 0.1-0.1 0.5 0.4 1.1 0.8 0.5 0.4 1.7 0.4 2.1 0.1 0.3-0.3 0.6-1.4 0.6-1.4h0.7c0 0 0.4 0.6 0.8 1.1 0.5 0.4 1.2 0.5 1.9 0.4 0.7 0 0.9-0.2 1.1-0.5 0.2-0.4 0.3-0.7 0.5-0.5z"/>
			<path id="Layer" class="s3" d="m141.6 231.6c0 0 0.1 0 0.4-0.1 0.4 0 0.6 0.2 0.9 0.4 0.4 0.2 1.1 0.5 1.1 0.5 0 0-0.1 0.1-0.3 0.4-0.3 0.4-0.7 0.6-1.5 0.2-0.7-0.4-0.6-1.4-0.6-1.4z"/>
			<ellipse id="Layer" class="s4" cx="138.6" cy="225.7" rx="1.7" ry="1.6"/>
			<path id="Layer" class="s4" d="m141.7 222c-0.5 0.6-1.5 0.8-2.1 0.4-0.7-0.5-0.8-1.4-0.3-2.1 0.6-0.6 1.5-0.8 2.2-0.4 0.7 0.5 0.8 1.4 0.2 2.1z"/>
			<ellipse id="Layer" class="s3" cx="138.6" cy="225.4" rx="1" ry=".9"/>
			<path id="Layer" class="s3" d="m140.2 221.5c-0.6-0.1-0.8-0.5-0.6-0.9 0.3-0.4 0.8-0.6 1.2-0.5 1 0.3 0.5 1.6-0.6 1.4z"/>
		</g>
		<g id="Layer">
			<path id="Layer" class="s3" d="m115.1 349.9c-0.3 0.8-0.9 1.9-1 3.2-0.1 1.2-0.3 1.2-1 1.7-0.7 0.4-3 1.7-3.9 2.3-0.9 0.6-2.8 2.3-3.9 3.2-1 0.9-1.8 1.8-2.2 2.4-0.4 0.7-1.5 1.8-1.5 1.8 0 0 0-0.3-0.1-0.7-0.1-0.3-0.4-1-0.9-1.6-0.5-0.5-0.8 0.2-0.9 0.6-0.1 0.4-0.5 1.6-0.8 2.3-0.3 0.6-0.6 0.4-0.6 0.4 0 0 0.2-1.1 0.1-1.4-0.1-0.3-0.6-0.7-0.6-0.7 0 0 0.4-0.8 0.2-2-0.2-1.2-0.7-1.8-1.1-2.3-0.4-0.4-0.9-0.4-1.1-0.2-0.1 0.3 0.1 0.9-0.1 1.2-0.1 0.4-0.5 0.9-0.5 0.9l-0.3-0.5c0 0 0.3-1 0.2-1.2-0.1-0.3-0.4-0.8-0.6-1-0.1-0.3-0.3-0.6 0.3-0.6 0.6 0.1 1.5 0.2 2.5 0.6 1 0.4 1.6 0.6 2.2 0.7 0.6 0.1 1 0 0.2-0.4-0.8-0.4-2.7-1.1-3.7-1.2-1.1-0.2-2.3-0.3-3-0.2-0.7 0-1.3 0.1-1.1 0.6 0.2 0.5 0.5 1.5 0 2.3-0.5 0.9-2 1.5-3.4 0.2-1.3-1.3-1.1-3.1 0-4.2 1.1-1.2 2.6-1.8 5.1-1.7 2.4 0.1 8 0.1 10-0.1 1.5-0.2 3.1-0.8 4.4-1.5 1.3-0.8 3-2.4 3-2.4 0 0 0.2 0 1-0.2 0.9-0.2 3.4-1.5 3.4-1.5 0 0 0 0.3-0.3 1.2z"/>
			<path id="Layer" class="s3" d="m74.4 302.7c0 0.2 0.1 0.6-0.5 0.7-0.6 0.2-1.3 0.3-1.6 0.3-0.2 0.1-0.6 0.2-0.2 0.7 0.3 0.6 1.5 2.8 1.5 2.8 0 0-0.1 0.7-0.4 0.8-0.4 0.1-0.8 0.2-1.1 0.3-0.2 0.1-0.5 0.2-0.6-0.3-0.1-0.4-0.8-2.6-0.9-3-0.1-0.4-0.2-0.5-0.7-0.2-0.6 0.3-1.3 0.9-1.3 0.9 0 0-0.2 0.2-0.4-0.2-0.2-0.4-0.7-1.2-0.7-1.4-0.1-0.2-0.1-0.4 0.5-0.6 0.6-0.2 1.1-0.3 1.4-0.4 0.3-0.2 0.6-0.4 0.3-0.8-0.3-0.4-0.9-1.7-1.1-2-0.1-0.3-0.3-0.5 0.2-0.7 0.6-0.3 1.3-0.5 1.6-0.6 0.2-0.1 0.4-0.2 0.5 0.5 0.1 0.7 0.2 1.7 0.3 2 0 0.3 0.1 0.5 0.7 0.4 0.6-0.2 1.4-0.7 1.4-0.7 0 0 0.4-0.2 0.5 0.2 0.1 0.4 0.5 1.1 0.6 1.3z"/>
			<path id="Layer" class="s3" d="m86.7 363.4c-1.6-0.5-2.1-1.9-2.1-3.1 0-1.2 0.7-1.6 1.2-2 0.5-0.4 1-0.4 1.1 0 0 0.4-0.3 0.7-0.1 1.3 0.2 0.7 0.7 1.5 1.1 1.9 0.4 0.4 0.3 1 0.4 1.5 0.1 0.5 0.1 0.9-1.6 0.4z"/>
			<path id="Layer" class="s3" d="m90.8 362.9c0 0.5 0 0.7 0.2 0.8 0.1 0.2 0 0.5 0.1 0.6 0.1 0.2 0.4 0.9-0.1 0.5-0.5-0.3-0.8-0.4-1.2-1.1-0.5-0.7-0.5-0.9-0.3-1.2 0.1-0.3 0.5-0.1 0.5-0.1 0 0 0.8 0 0.8 0.5z"/>
			<path id="Layer" class="s3" d="m92 368.1c-0.3 0.4-0.4 0.6-1.1 0.5-0.7-0.2-1.1-0.3-1.9-0.5-0.8-0.3-2-0.5-2.4-1-0.4-0.4-0.6-1.4-0.4-1.8 0.1-0.3 0.2-0.4 0.5-0.4 0.3 0 0.4 0 0.4 0 0 0 1.6 0.1 2.2 0.2 0.6 0 0.6 0.1 1.1 0.2 0.6 0.2 1 0.5 1.4 0.2 0.3-0.3 0-0.5 0.4-0.7 0.4-0.1 0.5-0.3 1.2-0.5 0.6-0.2 1-0.6 1.2-0.9 0.2-0.3 0.7-0.3 1.3-0.2 0.6 0.2 1.3 0.5 1.4 1.5 0.2 0.9-0.9 1.8-1.4 1.9-0.4 0-1.8 0.2-2.6 0.5-0.7 0.4-1 0.5-1.3 1z"/>
			<path id="Layer" class="s3" d="m99.6 368.8c-0.6 0.5-1.7 0.7-2.3 0.7-0.6 0.1-1.8 0.1-2.4 0.5-0.6 0.3-0.8 0.8-1.1 1-0.3 0.3-0.5 0.4-1.3 0.2-0.8-0.3-1.5-0.2-1.9-0.6-0.4-0.4-0.6-0.8-0.4-0.9 0.2-0.2 0.8 0 0.8 0 0 0 0.7 0.2 1.2 0 0.4-0.3 0.6-0.9 1.6-1.3 0.9-0.4 1.5-0.6 2.1-0.8 0.7-0.2 1.1-0.6 1.3-0.8 0.3-0.2 0.5-0.2 1-0.2 0.5 0 1.4 0.1 1.5 0.6 0.2 0.4 0.6 1.2-0.1 1.6z"/>
			<path id="Layer" class="s3" d="m99.6 366c-0.3-0.3-0.3-0.3-0.1-0.7 0.2-0.4 0.7-1.8 0.7-1.8 0 0 0.3 0.4 0.6 0.9 0.3 0.5-0.1 1.4-0.3 1.8-0.3 0.4-0.6 0-0.9-0.2z"/>
			<path id="Layer" class="s3" d="m97.1 361.7c0 0.8-0.4 0.8-0.7 0.8-0.3 0-1.1-0.3-1.1-0.3 0 0 0.3-0.3 0.7-1 0.3-0.6 0.5-1.4 0.5-1.4 0 0 0.6 1 0.6 1.8z"/>
			<path id="Layer" class="s3" d="m92.4 363.4c-0.9 0.1-0.8-0.4-0.9-0.9 0-0.6 0.4-0.9 0.8-1.3 0.3-0.4 0.6-1.2 0.6-1.2h0.4c0.3 0 0.9 0.5 1.1 0.9 0.3 0.5 0.1 1.3-0.3 1.6-0.4 0.3-0.8 0.7-1.7 0.9z"/>
			<path id="Layer" class="s3" d="m93.5 359.5c-0.2-0.1-0.4-0.3-0.4-0.3 0 0 0-0.1 0.1-0.4 0-0.4 0.1-1 0.1-1 0 0 0.2 0.2 0.5 0.5 0.2 0.2 0.4 0.7 0.4 1.1-0.1 0.4-0.5 0.2-0.7 0.1z"/>
			<path id="Layer" class="s3" d="m83.3 337.1c-2 0.9-4.3-3.5-4.7-4.4-1.3-2.8-2.3-6.2-2.6-9-0.3-2.8-1.1-6.3-1.4-7.6-0.4-1.3-1.5-4-2-4.6-0.4-0.5-1-0.7-1.9-1.1-0.9-0.4-1.1-0.6-1.1-0.8 0-0.3 0.6-0.4 1.9-0.5 1.3-0.1 2 0.1 2 0.1 0 0 0-0.2 0.2-0.7 0.2-0.6 0.6-1.3 1-1.7 0.4-0.4 0.8-0.6 1-0.3 0.3 0.2 0 0.6 0 0.6 0 0-0.6 0.7-0.6 2.2 0 1.4 0.4 4.2 1.1 6.2 0.7 2.1 2.3 5.9 3.8 8.3 1.6 2.4 3.5 5.9 3.9 9.6l-0.6 3.7z"/>
			<path id="Layer" class="s3" d="m85.6 343.6c0.9-0.5 1.6 0 3 2.3 1.4 2.3 2.1 4.2 2.2 5.2 0.1 1 0.4 2.1-0.2 2.6-0.6 0.4-1.4 0.7-1.4 0.7 0 0-0.1 0-0.4 0.1-0.3 0.2-0.4 0.2-0.9-0.4-0.6-0.6-2.3-2.9-2.7-4.7-0.4-1.8-0.4-5.3 0.4-5.8z"/>
			<path id="Layer" class="s3" d="m86.1 342.3c-0.4 0.4-1.1 0.5-1.8 0.5-1.6 0-2.3-2.6-1.2-3.6 0.3-0.3 0.8-0.4 1.3-0.4 1.2 0 2.2 0.8 2.2 2 0 0.5-0.1 1.1-0.5 1.5z"/>
			<path id="Layer" class="s3" d="m103.1 373.7c0.5 0.1 0.8 0.5 0.2 0.7-0.7 0.2-1.9 0.3-2.6 0.1-0.8-0.2-0.9-0.2-0.9-0.2 0 0-0.9 1.5-1.4 2.1-0.5 0.5-0.6 0.7-0.8 0.6-0.1-0.1-0.2-0.3-0.1-0.7 0.1-0.3 0.1-0.5 0.1-0.5 0 0 0.2-2.5-0.3-3.2-0.5-0.7-1.3-1.5-0.6-1.5 0.7-0.1 1.6 0 2.3-0.3 0.6-0.2 0.6-0.1 0.8 0.3 0.2 0.5 1.3 1.4 1.9 1.9 0.7 0.4 1 0.6 1.4 0.7z"/>
			<path id="Layer" class="s3" d="m100.3 375.6c0.3 0 0.6 0.2 0.6 0.5 0 0.4-0.2 0.9-0.2 1.2 0 0.3 0 0.7-0.3 0.6-0.3-0.1-0.5-0.4-0.5-0.4 0 0-0.3-0.2-0.5-0.4q-0.3-0.2-0.1-0.5c0-0.3 0.2-0.7 0.3-0.9 0.2-0.2 0.3-0.2 0.7-0.1z"/>
		</g>
		<g id="Layer">
			<path id="Layer" class="s5" d="m222.4 352c0.8 0.2 0.7 0.3 0.6 0.6-0.1 0.3-0.3 0.8-1 1.7-0.7 0.8-2.3 1.2-3 1.3-0.7 0.1-1.3-0.2-1.1-1.2 0.1-1 1.6-1.4 1.6-1.4 0 0 1-0.6 1.2-1.1 0.3-0.5 0.6-0.4 0.6-0.4 0 0 0.4 0.3 1.1 0.5z"/>
			<path id="Layer" class="s5" d="m224.7 344.2c0.3 1.4-0.6 1-1.2 0.8-0.6-0.1-3.3-0.7-4.2-1-0.9-0.2-0.9-0.2-0.6-1.3 0.3-1.1 1.4-4.6 1.4-4.6 2.6 1.3 4 4 4.5 6.1z"/>
			<path id="Layer" class="s5" d="m207.4 341.2c-1.6-0.4-2.3-0.6-2.3-0.6 0 0 1.1-2.2 3.6-3.4 2.4-1.2 5.3-1.1 5.3-1.1 0 0-1.2 4.2-1.4 5.1-0.2 0.9-0.1 1.1-0.8 1-0.6-0.1-2.7-0.6-4.4-1z"/>
			<path id="Layer" class="s5" d="m205.2 348.1c1.1 0.2 2.4 0.5 4 0.9 1.6 0.3 5.5 0.9 5.5 0.9 0 0-0.4 0.7-0.7 1.6-0.3 0.9-1.9 2.1-4.1 2.1-2.1 0-3.3-0.7-4.3-2.1-1.1-1.3-1.7-3.7-1.7-3.7 0 0 0.4 0.1 1.4 0.3z"/>
		</g>
		<g id="Layer">
			<path id="Layer" class="s3" d="m204.6 346.5c-1-0.2-1.2-0.2-1.2-0.9 0-0.7 0.2-2.1 0.7-3.2 0.5-1.2 0.5-1.2 0.5-1.2 0 0 6.2 1.5 7 1.6 0.9 0.2 1.4 0.2 1.6-0.6 0.2-0.9 1.4-6.2 1.4-6.2 2 0.2 3.6 0.6 4.8 1.3 0 0-1.6 5.3-1.7 5.8-0.1 0.6-0.3 1 0.4 1.2 0.8 0.2 4.9 1.2 5.8 1.4 0.9 0.2 1 0.1 0.9 1-0.1 0.8-0.3 2.2-0.8 2.9-0.4 0.6-0.7 0.9-1.4 0.7-0.7-0.1-2.5-0.4-2.7-1.5-0.1-1.2-0.3-2.4-1.1-3.2-0.8-0.8-1.1-0.6-1.2 0.1-0.1 0.6-0.3 1.3-0.3 1.3 0 0 0.1 0.7-0.6 1-0.8 0.3-0.9 0.4-1.1 0.5-0.1 0.2-0.7 0.1-1.4-0.1-0.6-0.1-8.6-1.6-9.6-1.9z"/>
			<path id="Layer" class="s3" d="m225.8 351.4c0.8 0.6 1.1 1.3 0.8 2.5-0.3 1.3-0.5 1.3-2.3 2.5-1.9 1.3-6.9 2.6-8.8 3.1-1.8 0.6-7.4 2.3-10.2 2.9-2.8 0.5-4.1-1-5.7-1.9-1.6-1-4.8-2.9-6.4-3.7-1.7-0.8-5.7-2.8-5.7-2.8 0 0 0-0.6-0.2-1.6-0.2-1.1-1.3-3.8-1.3-3.8 1.9 1.2 3.7 2 5.6 2 0 0 0.5 0.3 1.6 1.2 1.1 0.9 5.1 3.7 6.2 4.7 1 1 1.6 0.9 3 0.9 1.3-0.1 0.4-1.7 0.1-2.8-0.4-1.1-1.3-2.1-2.1-3.2-0.9-1-1-1.8-0.9-2.5 0.1-0.8 0.2-1.7 1.1-2.3 0.8-0.6 1.3-0.3 1.7 0.1 0.4 0.3 1.3 3.6 2 5.6 0.8 1.9 1.5 2.5 3.5 3 2 0.5 4.6-0.4 5.6-1.2 1-0.8 1.3-1.8 1.7-3.1 0.5-1.3 1.4-2.1 1.8-2.3 0.3-0.2 1.4-0.1 2.2 0.6 0.8 0.7 0.9 1.7 0.4 2.6-0.5 0.9-2.8 1.4-3.2 3.1-0.3 1.8 0.5 2.1 2 2.2 1.5 0.1 3-0.9 4.1-2 1.1-1 1.1-2.5 1.5-3.5 0.5-1 1.1-0.8 1.9-0.3z"/>
			<path id="Layer" class="s3" d="m215 332.1c-0.3 0-0.5 0.1-0.4-0.3 0.1-0.4 0.4-1.7 0.5-1.9 0-0.2 0.2-0.4 0.6 0.1 0.5 0.5 0.8 0.8 1.3 0.7 0.6 0 0.6-0.2 0.6-0.6 0-0.5 0.1-1.5 0.1-1.7q0-0.3 0.4-0.2c0.3 0.1 1.4 0.3 1.8 0.4 0.3 0.1 0.5 0.2 0.1 0.8-0.3 0.5-0.8 1.3-0.8 1.3 0 0-0.4 0.6 0.2 0.6 0.6 0 1.2 0 1.6 0 0.3 0 0.7-0.1 0.5 0.5-0.1 0.6-0.3 1-0.4 1.2-0.1 0.3-0.3 0.5-0.7 0.3-0.4-0.2-0.8-0.5-1-0.6-0.2-0.1-0.7-0.2-0.8 0.3-0.1 0.5-0.1 2.1-0.1 2.3 0 0.3 0.1 0.9-0.7 0.7-0.7-0.2-1.1-0.3-1.4-0.4-0.3-0.1-0.8-0.2-0.4-0.8 0.4-0.7 0.7-1.4 0.9-1.8 0.1-0.3 0.5-1.2-0.5-1.1-0.9 0.1-1 0.2-1.4 0.2z"/>
			<path id="Layer" class="s3" d="m218 345.7c0 0 0 0 0.4 0.4 0.3 0.3 0.5 0.9 0.7 1.3 0.1 0.5 0.2 1 0 1.1-0.3 0.1-0.7-0.1-1.1-0.3-0.5-0.1-0.2-0.7-0.1-1.1 0.1-0.3 0.1-1.4 0.1-1.4z"/>
			<path id="Layer" class="s3" d="m224.8 348.7c0.2-0.7 0.4-0.4 0.7 0.1 0.4 0.4 0.3 0.9 0.3 1.4 0 0.4-0.3 0.4-0.5 0.3-0.2-0.1-0.5-0.2-0.7-0.5-0.1-0.3 0-0.7 0.2-1.3z"/>
			<path id="Layer" class="s3" d="m201.5 344.7c0.1-0.8 0.7-0.9 0.8-1.2 0.2-0.3 0.4-0.5 0.6-0.5 0.3 0 0 0.4-0.1 1.2-0.2 0.7-0.2 1.7-0.2 1.7 0 0-0.7-0.2-0.9-0.3-0.2 0-0.4 0-0.2-0.9z"/>
		</g>
		<g id="Layer">
			<circle id="Layer" class="s4" cx="206.2" cy="343.8" r="1.5"/>
			<circle id="Layer" class="s4" cx="210.3" cy="344.9" r="1.5"/>
			<circle id="Layer" class="s4" cx="222.3" cy="347.4" r="1.5"/>
			<circle id="Layer" class="s4" cx="214.4" cy="345.8" r="1.5"/>
			<circle id="Layer" class="s4" cx="215.5" cy="342.2" r="1.5"/>
			<circle id="Layer" class="s4" cx="216.5" cy="338.7" r="1.5"/>
		</g>
		<g id="Layer">
			<circle id="Layer" class="s3" cx="206.3" cy="343.7" r=".7"/>
			<circle id="Layer" class="s3" cx="210.4" cy="344.7" r=".7"/>
			<circle id="Layer" class="s3" cx="222.4" cy="347.2" r=".7"/>
			<circle id="Layer" class="s3" cx="214.5" cy="345.7" r=".7"/>
			<circle id="Layer" class="s3" cx="215.6" cy="342.1" r=".7"/>
			<circle id="Layer" class="s3" cx="216.7" cy="338.5" r=".7"/>
		</g>
		<g id="a">
			<path id="Layer" class="s3" d="m169.1 373.8c-0.8-0.5-1.4-1.1-3.2-2.3-1.8-1.1-2.5-2.5-2.5-2.5h0.7c0.3 0 0.6-0.4 0.6-0.9 0-0.5 0-1.5-0.1-2.6-0.1-1.1 0.2-2.1 0.2-2.1 0 0 0.7 0.8 1.9 1.4 1.1 0.6 1.6 0.3 1.6 0.3l0.3-1.2c0 0 0.5 1.1 1.2 2.3 0.7 1.3 2.6 2.6 4 3.6 1.4 1.1 2.9 2.2 4 2.6 1.1 0.3 0.5 0.9 0.5 0.9 0 0-1.2 1.1-4.1 1.6-2.9 0.6-4.3-0.6-5.1-1.1z"/>
			<path id="Layer" class="s3" d="m158.9 372.6c1.1-0.1 1.7-0.5 1.9-1.6 0.1-0.7-0.1-3.5-0.1-3.5 0 0 0.4 0.2 0.8 0.7 0.4 0.5 1.3 0.6 1.3 0.6 0 0 0.1 0.4 0.5 1 0.4 0.7 0.9 1.4 1.9 2.1 1 0.6 2.1 1.3 2.9 2 0.8 0.6 1.7 1.3 2.7 1.9 1 0.5 1.8 1.4 2.2 2.9 0.3 1.5 0.1 2-1.1 1.9-1.1-0.1-1.3 0-3.1-0.5-1.9-0.4-4.6-2.5-6.5-3.8-1.9-1.2-3.4-3.7-3.4-3.7z"/>
			<path id="Layer" class="s3" d="m153.8 374.3c0 0 0.8-1 1-2.1 0.3-1.1 0.9-3.4 0.9-3.4 0 0 0.2 0.8 0.9 2.1 0.6 1.3 1.7 1.7 1.7 1.7 0 0 0 0.5 0.9 1.7 0.9 1.1 2.2 2.2 3.6 2.9 1.3 0.8 3 1.9 4 3.3 0.9 1.3 1 2.7 0.6 3.3-0.5 0.6-1.1-0.1-2-0.5-0.9-0.5-3.4-0.9-7-2.8-3.5-1.9-4.6-6.2-4.6-6.2z"/>
			<path id="Layer" class="s3" d="m152.2 382.2c-0.9-1.4-1.1-4.9-1.1-4.9 0 0 0.3-0.3 0.8-0.7 0.5-0.4 1.4-1.8 1.4-1.8 0 0 0.6 1.2 1.2 2.4 0.7 1.1 1 1.5 2.3 2.7 1.3 1.2 3.1 2.4 3.8 3.7 0.8 1.3 0.4 3.9-0.1 4.7-0.5 0.9-1.2 0.6-2-0.1-0.7-0.7-0.9-0.9-2.2-2-1.3-1.1-3.1-2.5-4.1-4z"/>
			<path id="Layer" class="s4" d="m163.8 352.7c-0.5-1.1-1.1-2.4-1.6-3-0.5-0.7-0.8-1.4-0.8-1.4 0 0 1.3 1.2 1.8 2 0.5 0.8 0.8 1.6 1 2.4 0.2 0.9 0.1 1-0.4 0z"/>
			<path id="Layer" class="s4" d="m158.8 353.6c-0.2-0.7-0.3-1.2-0.3-1.2 0 0-0.2-0.6-0.1-0.7 0.1 0 0.6 0.4 1 1.6 0.3 1.1 0.9 2.8 0.8 2.8-0.1 0.1-1.2-1.8-1.4-2.5z"/>
			<path id="Layer" class="s4" d="m154.9 356.8c-0.3-0.5-0.3-0.6-0.3-0.6 0 0-0.4-1.3-0.4-1.5 0-0.3 0.2-0.6 0.5 0.1 0.3 0.6 0.4 1.3 0.4 1.6 0.1 0.3 0.5 1.3 0.4 1.4-0.1 0.1-0.4-0.6-0.6-1z"/>
			<path id="Layer" class="s4" d="m167.1 368.7l0.5-0.3c0 0 0.3 0.4 0.8 0.9 0.4 0.5 0.9 0.7 1.3 1.1 0.3 0.5 0.8 1 1.6 1.4 0.9 0.5 1.2 0.6 1 0.7-0.1 0.2-0.7-0.2-0.7-0.2 0 0-0.2 0-1.2-0.6-1-0.5-1.2-0.9-1.8-1.4-0.7-0.6-1.5-1.6-1.5-1.6z"/>
			<path id="Layer" class="s4" d="m162.8 373.8c-0.3-0.4-0.7-0.7-0.5-0.9q0.3-0.3 0.8 0.1c0.3 0.3 1.3 1.2 1.7 1.6 0.5 0.4 0.9 0.7 1.3 1 0.4 0.3 1.4 0.9 1.9 1.1 0.5 0.3 0 0.3 0 0.3 0 0-0.3-0.2-0.7-0.3-0.4-0.1-1.6-0.6-1.6-0.6 0 0-0.4-0.2-1-0.7-0.6-0.4-1.5-1.2-1.9-1.6z"/>
			<path id="Layer" class="s4" d="m157.9 377.2c-0.3-0.7 0-0.5 0.6-0.3 0.5 0.3 1.7 1.5 2.4 2 0.6 0.5 1.2 0.7 1.8 1 0.6 0.3 0.6 0.4 0.5 0.5 0 0.2-0.2 0.2-0.5 0.1-0.2-0.1-1-0.6-1-0.6 0 0-0.3-0.1-0.7-0.1-0.3-0.1-0.7-0.4-1.4-1-0.7-0.6-1.4-1-1.7-1.6z"/>
			<path id="Layer" class="s4" d="m155.6 381.7c0.9 0.5 2.4 1.7 2.8 2.5 0.4 0.8 0.6 1.3 0.5 1.5-0.1 0.1-0.5-0.2-0.7-0.5-0.2-0.3-0.6-0.8-0.6-0.8 0 0-1.5-1.5-2.1-1.8-0.5-0.3-1.4-1.3-1.6-1.9-0.2-0.6-0.1-0.9-0.1-0.9 0 0 1 1.4 1.8 1.9z"/>
			<path id="Layer" class="s7" d="m178.8 255.7c0.8-0.5 2.9-1.4 5.2-1.6 2.2-0.2 4 0.1 5.9 0.6 1.3 0.4 2.4 0.5 3.5 0.2 1.6-0.5 2.9-1.9 3.3-3.7 0 0 1.5 1.9 0 4-0.7 1-1.7 1.6-2.7 1.8-3.2 0.7-6.3-1.3-8.9-1.5-2.6-0.1-4.6 1.5-4.6 1.5 0 0-0.6 0.5-1.4 0-0.9-0.5-1.1-0.9-0.3-1.3z"/>
			<path id="Layer" class="s3" d="m187.9 347.8c0 0 0.3 0 0.8-0.1 0.4-0.1 1.4-0.4 1.6-0.5 0.3-0.1 0.8-0.2 1 0.1 0.3 0.4 2.6 1.7 2.6 1.7h-3.8c-1.3 0-2.2-1.2-2.2-1.2z"/>
			<path id="Layer" class="s3" d="m177.3 347.1v-0.3l0.5-1.1c0 0 0.6 0.3 1.1 0.9 0.8 0.8 1.6 1.9 1.9 2.3 0.7 0.8 1.5 1.6 0.8 0.3-0.8-1.3-1-1.8-1.6-2.7-0.6-0.8-1.1-1.2-1-1.3 0.1 0 0.5-0.1 2.1-0.3 1.6-0.2 2.6-0.8 3.3-1.2 0.8-0.5 2.1-1.2 2.1-1.2 0 0 2.7 1.2 3.7 1.4 1 0.3 1.6 0.4 0.6 0.9-1 0.5-1.8 0.6-2.3 0.9-0.5 0.3-1.9 0.8-2.9 0.8-0.9 0-2.4 0-1.8 0.7 0.6 0.6 1.3 1.8 1.9 3.7 0.7 1.8 0.7 3.5 0.7 4.3 0 0.8-0.1 1.6-0.1 1.6 0 0-1.1-1.3-4.1-3.1-2.9-1.9-4-2.5-4.6-2.8-0.6-0.2-0.8-0.2-0.7-0.9 0.1-0.8 0.4-2.5 0.4-2.9z"/>
			<path id="Layer" class="s3" d="m165.9 338.1q0.3-0.1 0.6-0.3 0 0.1 0.1 0.1c0.3 0.2 2.2 1.4 2.9 2.6 0.7 1.2 1.5 1.3 0.7 0-0.9-1.3-1.4-2-2.1-2.6q-0.3-0.3-0.6-0.5c1.5-0.7 3-1.6 4.6-2.7 0.2 0.4 0.6 1.1 1 1.6 0.6 0.7 2 1.2 2 1.2 0 0-1.1-1.1-1.5-2-0.2-0.6-0.4-1.2-0.5-1.5 1.1-0.9 2.1-1.8 3-2.9 0.2 0.8 0.8 2.6 2.6 4.6 2.3 2.6 7 3.9 7 3.9 0 0 1.7 0.2 0.3 0.6-1.3 0.3-2.2 0.9-4.8 0.5-2.6-0.5-2.8-0.6-3.1-0.7-0.4-0.1-1.3 0 0 0.4 1.3 0.5 4.3 1 5.4 0.9 1.2-0.1 2.8-0.4 1.1 0.5-1.6 0.9-2.3 1.2-3.3 1.2-1.1 0-1.5 0.3-2.5 0.3-0.9 0-1.2-0.1-1.9-0.3-0.7-0.1-1.2 0.1-1.2 0.4 0 0.3 1 1.1 0.9 3 0 1.9-0.1 3.2-0.3 3.7-0.2 0.6-0.6 1.5-0.9 2-0.3 0.5-0.4 1.1-0.6-0.1-0.3-1.1-0.9-2.7-1.2-3.8-0.2-1-0.4-1.1-0.5-1.6-0.1-0.6-0.7-1-0.4 0 0.3 1 0.6 2.3 0.8 3.2 0.2 0.9 0.7 2.6-0.1 1.3-0.9-1.4-4-4.9-4.5-5.5-0.6-0.6-1-1.2-1.4-1.8-0.4-0.5-1.4-1.2-2-2-0.4-0.7-1.8-2-2.4-2.5q1.3-0.5 2.8-1.2z"/>
			<path id="Layer" class="s3" d="m209.3 257.5c-0.1 1.9-2.2 5.6-3.4 7.6-1.2 1.9-1.6 2.7-1.3 2.8 0.2 0.2 0.7-0.8 1.3-1.7 0.7-0.9 2-2.9 3.1-4.5 1.1-1.5 2.7-5.2 2.9-5.6 0.2-0.3 0.3-0.5 0.8-0.1 0.5 0.4 1.6 4.5 0.3 7.3-1.2 2.7-3.1 4.7-3.9 5.7-0.8 1-1.8 2.5-1.7 2.6 0.2 0.1 0.5-0.3 1.5-1.3 0.9-1 2.5-2.7 3.5-3.9 0.9-1.1 2-3.1 2.5-3.9 0.1-0.3 0.3-0.2 0.4 0 0.4 0.3 0.9 1.1 0.7 3.3-0.3 3.1-1.9 4.8-3.3 6.4-1.5 1.5-2.9 2.8-2.7 3 0.2 0.2 1.7-1.1 2.7-2 1-1 3.5-3.4 4-4 0.6-0.7 1.3-0.4 1.3 2.3 0 2.6-3 5.3-4.2 6.7-1.2 1.5-2.7 2.4-2.6 2.7 0.2 0.3 1.4-0.5 2.2-1 0.8-0.6 3.7-2.5 4.3-2.9 0.6-0.4 0.9 0.4 0.1 2.9-0.7 2.5-2.9 4.5-4.2 5.4-1.3 0.9-3.4 2.1-3.2 2.3 0.1 0.3 1 0 2.2-0.6 1.2-0.6 2.6-1.2 3.7-1.4 1-0.3 1 0.4 1 0.4 0 0 0.2 2.1-1.3 3.9-1.5 1.7-3.3 2.3-5 2.6-1.6 0.3-1.9 0.4-1.9 0.7 0.1 0.2 0.3 0.3 0.6 0.3 0.4 0 2 0.1 3.4 0.1 1.4 0 2.1 0.4 2.1 1 0 0.6 0.1 1.5-2 2.9-2.2 1.4-4.6 1.6-5.6 1.8-1 0.2-1 0.3-0.8 0.6 0.2 0.3 0.7 0.3 2.3 0.4 1.6 0.2 2.5 0.8 2.7 1.2 0.2 0.5-0.1 1.7-1.4 2.6-1.3 0.9-3 1.2-5.5 1-2.5-0.2-3.1-0.2-3.2 0.2-0.1 0.4 0.8 0.5 2 0.8 1.3 0.2 2.2 0.2 2.9 0.8 0.8 0.5 0.2 1.7-1 2.6-1.2 0.9-4.2 0.9-5.5 0.8-1.2-0.1-3.1-0.5-3.3-0.2-0.1 0.3 0.9 0.9 2.2 1.3 1.3 0.5 1.7 0.8 2 1.3 0.2 0.6 0 1.1-1.5 1.6-1.6 0.6-3.8 0.6-5 0.1-1.2-0.6-1.8-0.8-2-0.6-0.2 0.2 0 0.5 0.2 0.7 0.3 0.3 1.3 1.1 2.6 1.5 1.3 0.3 1.4 0.3 1.9 1.4 0.4 1-0.8 1.8-3.1 1.9-2.3 0.1-5.5-0.8-6.5-1.4-1-0.6-1.3-0.7-1.5-0.5-0.2 0.2-0.1 0.3 0.4 0.7 0.5 0.4 2.1 1.5 2.8 1.7 0.8 0.2 0.9 0.8 0.9 1.4 0 0.5 0.2 1.6-1.9 2.1-2 0.5-4.5 0.1-6.8-1.5-0.7-0.5-1.1-0.9-1.4-1.3 0.2-2.1 0.1-3.6-0.1-4.9 0.4-0.1 1.3-0.2 2.1-0.5 1.3-0.5 1.8-1.7 2.1-2.3 0.3-0.7 0.7-0.7 1.2-0.5 0.5 0.2 1 0.4 1.7 0.3 0.7 0 2.2-0.4 3.3-1.7 1.1-1.3 0.9-2.5 0.9-3.2 0.1-0.6 1.1-0.1 1.6-0.1 0.5 0 1.9-0.2 3.3-1.2 1.3-0.9 1.3-2.1 1.4-2.6 0.1-0.5 0.7-0.9 1.1-1 0.4-0.2 1.1-0.4 2-1.1 0.9-0.8 1.3-2.3 1.3-2.8 0-0.5 0.6-0.5 2.5-1.5 1.9-0.9 1.7-2.9 1.6-3.7-0.1-0.8-1-1.5-1-1.8 0-0.3 0.7-0.4 1.3-0.7 0.6-0.4 2.2-1 2.2-3.4 0.1-2.3-1.5-2.6-1.5-2.6 0 0 0.3-0.1 1-0.5 0.6-0.4 2.3-1.5 2.3-2.9 0-1.4-0.6-2-1.1-2.4-0.4-0.3-1.7-0.6-1.7-0.6 0 0 0.8-0.5 1.1-1.6 0.4-1.1 0.5-2.4-0.3-3.4-0.8-1-2.1-1-2.8-1-0.8 0-1.4 0.4-1.6 0.2-0.3-0.2-0.3-0.4-0.1-0.9 0.3-0.6 0.3-1.9 0.1-2.4-0.2-0.4-0.2-1.3-2-1.9-1.8-0.6-3.7 0.6-4.3 0.9-0.6 0.4-0.3-0.4-0.3-1 0-0.6 1.2-2.1 2.6-4.1 1.3-2.1 2-3.2 3.5-6.4 1.6-3.2 2.6-7.3 2.8-8.3 0.2-1.1 0.6-0.6 0.6-0.6 0 0 0.4 0.2 1.4 2.6 0.9 2.4 1.1 4.7 1 6.6z"/>
			<path id="Layer" class="s3" d="m177.8 300.3c1.1-0.1 2.5-0.7 3.6-2.2 1-1.6 2.6-2 5.4-1.9 2.8 0 4.1-1.3 4.8-3.3 0.7-1.9-0.1-4.1-2.9-5.5-2.9-1.4-4.2-3-4.3-5.4-0.1-2.4 2.9-5.4 5.8-8.8 3-3.4 5.3-8.2 5.3-8.2 0 0 0.9 1.1 0.9 2.2 0 1.2-0.5 2.4 0 2.7 0.4 0.3 0.6-0.5 2.3-1.3 1.7-0.7 3.1-0.8 4.2 0.4 1.1 1.3 0 3.4-1 4.4-1 1.1-1.8 1.8-1.5 2.2 0.3 0.4 1.7-0.6 2.2-0.9 0.5-0.3 1.6-1.6 3.3-1.4 1.7 0.1 2.3 0.6 2.4 2 0.2 1.4-1.5 2.7-2.6 3.2-1 0.5-1.5 1-1.2 1.2 0.3 0.3 0.5 0 1-0.1 0.5-0.2 1.8-0.3 2.7 0 0.9 0.3 2.3 1.5 1 2.9-1.3 1.5-4 2-4.5 2.1-0.6 0.2-0.9 0-0.9 0.4-0.1 0.5 1.1 0.5 2.6 0.5 1.4 0.1 1.9 1.5 1.6 2.5-0.2 1.1-2.6 2.3-3.9 2.5-1.4 0.2-1.9 0-2 0.4-0.1 0.4 0.2 0.5 0.9 0.7 0.8 0.3 2.2 0.4 2.5 1.6 0.3 1.2 0.3 1.7-0.8 2.8-1.1 1-3 0.8-3.5 0.7-0.5-0.1-1.2-0.7-1.7-0.1-0.5 0.5 0.5 0.9 1.4 1.6 0.9 0.6 0.8 1.9-0.7 2.7-1.6 0.9-3.1 0.6-3.8 0.3-0.6-0.2-1.5-1.2-1.9-0.5-0.4 0.6 1.3 0.8 2.1 1.7 0.7 0.9 0.5 2.5-1 3.4-1.5 0.9-4 0.2-4.5-0.1-0.4-0.4-0.9-0.6-1.2-0.3-0.4 0.4 0.1 1.2 0.4 2 0.4 0.7 1 2.9-1.3 3.8-2.3 0.9-4.3-1.1-4.7-1.4-0.4-0.4-0.7-0.5-1.1-0.3-0.3 0.2-0.1 0.5 0.1 0.8 0.3 0.4 0.9 2-0.7 3.2-1.1 0.7-2.3 0.7-3 0.6-0.3-1.3-0.7-2.6-1.2-4.5h0.4c0.2 0 0.2 0.3 0.2 0.4 0 0.2-0.1 0.3 0.1 0.3 0.2 0 0.3 0.1 0.5 0.3 0.3 0.2 0.6 0.4 0.7 0.3 0.2-0.1-0.6-0.5-0.7-0.7-0.2-0.3-0.6-0.6-0.7-0.9 0-0.3-0.1-0.4-0.5-0.7q-0.2-0.2-0.3-0.4c-0.2-1.2-0.5-2.7-0.7-4.5q-0.3-1.8-0.3-3.4z"/>
			<path id="Layer" class="s3" d="m223.8 266.7c-2.4 4.8-5.8 7.6-5.8 7.6 0 0 0.4-1.2 0.6-2.1 0.2-0.8 0.1-1.7 0.1-1.7 0 0 0.8-1.1 2.4-3.5 1.6-2.5 2.4-6.1 2.4-6.1 0 0-1.5 3.6-2.6 5.5-1.1 1.9-2.4 3.5-2.4 3.5 0 0-0.5-1.7-0.8-1.8-0.4-0.1-0.6 0.2-0.9 0.6-0.3 0.3-0.5 0.3-0.5 0.3 0 0 0.4-0.8 1-1.8 0.3-0.4 0.6-0.9 0.9-1.3 0.9-1.4 2.9-4.1 3.8-6.8 1-2.7 3.2-9.5 3.6-11.4 0.4-2 0.7-0.9 1.1 0.5 0.4 1.5 0.9 3.6 0.6 6.7-0.3 3.1-1.1 6.9-3.5 11.8z"/>
			<path id="Layer" class="s3" d="m220.7 279.8c-0.9 0.7-2.2 1.6-2.2 1.6 0 0 0.2-0.5 0.3-1.1 0.1-0.6 0.2-1.8 0.2-1.8 0 0 1.1-0.9 1.8-1.6 0.7-0.6 1.6-1.4 3.5-3.7 1.8-2.3 0.3-0.9-1.2 0.7-1.4 1.6-4.3 4-4.3 4 0 0 0 0 0-0.5 0-0.5-0.2-0.9-0.4-1.2-0.3-0.4-0.2-0.4 1.4-1.6 1.6-1.3 5.8-5.9 7.5-8.7 1.7-2.8 3.5-6.6 3.5-6.6 0 0 0.9 5.6-2.5 11.7-3.4 6.2-6.7 8.1-7.6 8.8z"/>
			<path id="Layer" class="s3" d="m202.9 315c-1.9-0.8-1.4-2.6-1.4-2.6 0-0.1 1.2 0.3 2.2 0.7 1.1 0.4 3.6 1.2 4.7 1.2 1 0 1-0.1 1-0.3 0-0.1-0.8 0-2.2-0.2-1.5-0.3-4.1-1.7-4.5-2-0.5-0.3-0.4-0.3 0.2-0.4 0.7-0.1 1.3-0.4 1.5-0.6 0.2-0.2 0.9 0.1 2.6 0.5 1.7 0.4 5.2 1 7.8 1 2.7 0 5.2-0.4 5.6-0.5 0.4-0.1 0.9 0.1-0.4 2.3-1.3 2.1-5.8 3.3-9 3.3-3.1 0-6.3-1.7-8.1-2.4z"/>
			<path id="Layer" class="s3" d="m211.2 310.5c-3.2 0-4.4-0.9-4.4-0.9 0 0 0-0.2 0.4-0.9 0.5-0.6 0.4-1.8 0.4-1.8 0 0 0.8 0.2 2.1 0.4 1.4 0.2 2.9 0.3 4.7 0 1.7-0.3 0.9-0.5-0.4-0.3-1.4 0.2-4-0.3-4.9-0.6-0.9-0.3-0.5-0.6 0.1-0.8 0.6-0.2 2.1-1.2 2.1-1.2 0 0 4 0.5 7.6 0.1 3.7-0.4 6-1.3 6.7-1.5 0.8-0.1 0.8 0.2 0.8 0.2 0 0 0.2 0.4-1.1 2.4-1.3 1.9-3.8 3.2-5.8 3.8-2.1 0.6-5 1.1-8.3 1.1z"/>
			<path id="Layer" class="s3" d="m212.1 302.9c0 0 0.1-0.2 0.3-0.9 0.2-0.6-0.3-1.1-0.3-1.1 0 0 0.7-0.3 3.1-0.6 2.4-0.3 2.6-0.5 4.1-0.8 1.5-0.3 2.4-0.8 2.4-0.9 0-0.2-0.5 0.1-1.4 0.4-0.8 0.3-4.6 0.7-6.1 0.9-1.6 0.2-2.5 0.4-2.8 0.2-0.2-0.1-1.2-0.4-1.2-0.4 0 0 0.7-0.2 1.5-0.3 0.8-0.1 1.6-0.5 2-0.8 0.4-0.3 0.6-0.4 2.6-0.6 1.9-0.2 3.5-0.9 7.1-2.2 3.5-1.3 6.2-2.8 6.9-3.4 0.8-0.6 0.7-0.1 0.5 0.6-0.2 0.7-0.2 1.7-1.9 3.8-1.8 2.1-2.7 3-7.2 4.6-4.6 1.7-9.6 1.5-9.6 1.5z"/>
			<path id="Layer" class="s3" d="m225.4 291.9c-4 2.8-8.6 3.8-9.6 3.9-0.3-0.2 0.2-1.2 0-1.7-0.3-0.7-0.7-0.7-1.7-0.8-0.9 0-0.3-0.2-0.1-0.2 0.3 0 0.3 0 1.9-0.5 1.6-0.4 3.2-0.6 5.4-1.4 2.2-0.9 2.9-1.5 2.8-1.6 0-0.2-1 0.5-3 1.3-2.1 0.7-4.4 1-5.7 1.3-1.3 0.3-0.2-0.3 0.4-0.6 0.6-0.4 1.5-1.7 1.5-1.7 0 0 1.4-0.3 3.8-1 2.3-0.7 4.2-1.5 6.2-2.6 0.7-0.4 1.3-0.9 2-1.4 1.4-0.9 2.7-1.9 3.2-2.3 0.8-0.6 0.6-0.1 0.5 0.3-0.1 0.3-0.6 2-1.9 3.8-1.3 1.8-1.7 2.4-5.7 5.2z"/>
			<path id="Layer" class="s3" d="m226.1 284c-3.9 3.1-7.3 4-7.9 4.3-0.6 0.2-0.5-0.1-0.4-0.4 0.1-0.4 0.2-1.4 0.2-1.4 0 0 1.4-0.8 2.9-1.7 1.6-1 3.3-2.2 4.5-3 1.2-0.8 0.5-0.7 0.1-0.4-0.3 0.3-1.9 1.2-3.5 2.2-1.6 1-4.1 2.4-4.1 2.4 0 0 0-0.5-0.3-0.8-0.4-0.4-1.2-0.3-1.2-0.3 0 0 0.4-0.4 0.7-0.8 0.2-0.4 1.5-0.8 3-1.5 1.4-0.7 4-2.6 6-4.2 1.9-1.6 5.6-5.7 5.9-6.1q0.4-0.4 0.4 0.2c0.1 0.4 0.2 0.7-0.2 2.6-0.4 1.8-2.2 5.7-6.1 8.9z"/>
			<path id="Layer" class="s3" d="m212.2 254.5c-0.5 0.9-1 1.6-1.3 2.2-0.6 0.9-0.9 1.5-0.9 1.5 0 0-0.1-0.3 0-0.8 0.1-0.6 0.2-1.4 0-2.3 0-0.4-0.2-0.9-0.1-1.4 0-0.4 0.2-0.9 0.2-1.2 0.2-0.5 0.7-2.8 1-4.4 0.3-1.6 0.6-3.9 0.6-6-0.1-2-0.4-1-0.4 0 0 1-0.1 2.5-0.4 4.8-0.3 2.4-1.3 5.9-1.3 5.9 0 0-0.1-0.5-0.3-1.3-0.3-0.8-0.8-1.6-1.2-2.6-0.4-1-0.2-1.1-0.2-1.1 0 0 1.3-6.7 1.7-9.8 0.4-3.1 0.9-11.3 0.9-11.3 2.1 2 3.6 7.3 3.8 12.4 0.2 3.8-0.4 7.4-0.6 8.8-0.3 2.8-0.8 5-1.5 6.6z"/>
			<path id="Layer" class="s3" d="m216.6 264.9c0-1.5-0.4-2.6-1.3-2.9 0 0 0.8-1.5 1.6-3.7 0.5-1.4 0.9-3.3 1.1-4.8 0.5-3.5 1-7.2-0.1-1.2-1 6-2.3 8.1-2.3 8.1l-1.5 2.5c0.2-1.1 0.2-1.8 0.2-3-0.1-1.2-0.3-2.8-0.6-4.1 0 0 1.8-3.7 3-8.2 1.2-4.4 1.8-8.5 1.8-10.9 0.1-2.3 0.2-3.2 0.2-3.2 0 0 1.9 1.4 2.5 8.7 0.7 7.2-1.2 14.2-2.2 16.8-0.9 2.6-2.4 5.9-2.4 5.9z"/>
			<path id="Layer" class="s3" d="m195.9 320.2c0 0 0.3-0.2 1.2-0.7 0.9-0.6 0.6-2.3 0.6-2.3 0 0 0.3 0.2 0.9 0.6 0.7 0.5 1.4 1 2.3 1.3 0.9 0.4 1.4 0.6 1.9 0.8 0.6 0.2 0.5-0.1 0-0.3-0.5-0.3-0.6-0.4-1.8-0.9-1.2-0.5-3.6-2.6-3.6-2.6 0 0 0.5-0.1 1.5-0.1 1 0 2.3-0.5 2.3-0.5 0 0 1 0.9 4.9 2.6 4 1.7 7.4 2.1 7.4 2.1 0 0-0.4 2.1-2.3 2.8-1.6 0.7-3.8 1.1-8.1 0.1-4.3-1.1-7.2-2.9-7.2-2.9z"/>
			<path id="Layer" class="s3" d="m190.6 324.3c-0.3-1.7 0.7-2.8 0.7-2.8 0 0 0.2 0.1 0.8 0.6 0.6 0.6 1.4 1.6 3.1 2.4 1.7 0.9 2.3 0.8 0.7-0.1-1.6-0.8-4-3.3-4-3.3l0.6-0.2c0.7-0.3 1.7 0.2 6.2 2.9 4.5 2.7 7.2 2.8 7.2 2.8 0 0-2 2.4-7.5 2.2-5.5-0.2-7.4-2.8-7.8-4.5z"/>
			<path id="Layer" class="s3" d="m180.3 322.4c0 0 0.6 0.8 1.4 1.4 0.8 0.5 3 0.8 3 0.8 0 0 0.1 0.3 0.5 0.8 0.4 0.5 1.4 1.8 2.3 2.5 1 0.7 2.5 1.2 2.6 1 0.1-0.2-0.9-0.5-1.8-1.1-1-0.6-1.8-1.6-2.4-2.4-0.7-0.7 0.2-0.6 0.2-0.6 0 0 1.2 0.1 2.2 0 1.1-0.1 0.9 0 1.2 0.5 0.3 0.5 0.7 0.9 1.5 1.9 0.9 1 1.8 2 2.7 3.1 0.6 0.8 0.2 1 0.2 1 0 0-0.3 0.4-2.7 0.7-1.5 0.2-3.2 0-4.9-1-1-0.6-2.1-1.6-3.2-2.8-2.9-3.2-2.8-5.8-2.8-5.8z"/>
			<path id="Layer" class="s3" d="m179 328.9c0.6 0.8 1 1.2 1 1.2 0 0-0.5-1.3-0.8-1.9-0.2-0.4-0.4-0.7-0.6-0.9q0.6-1.3 1-2.9c0.3 0.9 1.1 3.4 2.1 5.1 1.3 2 2.4 2.7 1.7 3.2-0.7 0.6-2.2 0.7-3.7-0.1-1.6-0.7-2-2.1-2.2-3.1q0.4-0.6 0.7-1.3c0.2 0.1 0.5 0.3 0.8 0.7z"/>
			<ellipse id="Layer" class="s3" cx="179.4" cy="248.6" rx="1.1" ry="1"/>
			<path id="Layer" class="s3" d="m181.7 246.7c-1 0-1.5-0.5-2.7-0.4-1.3 0.1-3.1 0.9-5.3 2-1.7 0.8-3.9 1.2-6.1 0.6-0.6-0.2-1.2-0.5-1.8-0.9-2.7-1.5-2-4.4-2-4.4 2 1.4 4.4 2.1 6.6 2 0 0-0.1 0.1-0.5 0.5-0.4 0.4-1.1 0.8-0.9 1 0.2 0.2 1.2-0.7 2-1.3 0.8-0.6 2-1.4 4.1-2 2.1-0.6 4.4-0.7 5.9 0.2 1.5 0.9 1.7 1.9 1.5 2.4-0.2 0.2-0.4 0.3-0.8 0.3z"/>
			<path id="Layer" class="s3" d="m152.9 268.3c0.4-0.1 1.3-0.2 2.3-1.2 1.1-1 3.7-3.8 4-4.4 0.3-0.5 0.1-1-0.6-1.3-0.7-0.3-1.2-1.2-1.2-1.2 0 0 1.6-0.6 2.6-1.4 1.1-0.7 3.6-3 3.9-3.5 0.4-0.6 0.2-0.7-0.3-0.9-0.5-0.1-0.7-0.5-0.7-0.5 0 0 1.2-0.7 2.3-1.6 1-0.8 2.5-2.2 2.5-2.2 1.6 0.6 4.1 0.3 5.5 0.1 2.4-0.4 4.1-1.4 4.1-1.4 0 0 0.1 0.4 0.4 1.1 0.3 0.7 1.4 1.2 2.5 0.4 1.1-0.7 0.9-2.3 0.9-2.3 0 0 0.9-0.6 2.7-1.2 1.9-0.7 3.4-0.8 4.9-0.1 1.5 0.7 2.2 2.7 2.2 4.3 0 1.5-0.8 0.9-1 0.7-0.2-0.3-0.5-1.4-2.4-1.7-1.9-0.3-3.6 0.6-5.7 2.4-2.2 1.7-2.6 1.9-3.7 3-1.1 1.1-0.2 1.7 1.6 2.3 1.9 0.6 4.2-0.6 4.3-0.5 0.4 0.1-0.8 1.8-2.4 2.4-1.6 0.6-3.6 0.2-5.2-0.4-1-0.5-1.2 0-1.6 0.3-1.7 1.8-2.2 3.6-2.4 5.6-0.9-0.2-1.5-1.1-1.7-1.8 0-0.4-0.1-1.2-0.7-0.6-0.6 0.6-1.1 3.6-1.1 5.1 0 1.4 0.4 3.3 0.4 3.3l-0.4-0.1c-0.3 0-0.8-0.3-1.5-0.7-0.7-0.4-0.7 0-0.7 0.8 0 0.8-0.3 2.2-1.3 4.9-1 2.6-2.5 3.4-2.5 3.4 0 0-0.3-0.5-0.6-1.5-0.3-1-0.5-3.1-0.5-4.8 0-1.8 0.4-5.6 0.4-5.6 0 0-2.1 2.7-4.3 3.3-2.2 0.7-4.5 0.3-5.4-0.8-1-1.1-0.1-1.6 0.4-1.7z"/>
			<path id="Layer" class="s3" d="m167.5 275.1c0 0 0.7 1.5 1.1 2 0.3 0.6 0.5 0.6 0.5 0.6 0 0-0.7 0.6-1.7 0.9-0.9 0.3-1.8 0.5-1.8 0.5 0 0 1.1-1.5 1.5-2.6 0.4-1 0.4-1.4 0.4-1.4z"/>
			<path id="Layer" class="s3" d="m154.1 274.2c0.4-0.8 0.6-1.3 0.6-1.3 1.3 0.3 3.9-0.4 5.1-1 0 0-1.1 2.1-2.1 2.8-1 0.7-1.2 0.7-1.2 0.7 0 0 1.1 0.2 2.4-1.2 1.4-1.3 2-2.9 2-2.9 0 0-0.3 3.6 0.3 5.8 0.5 2.3 0.7 2.5 0.7 2.5 0 0-3 0.6-6.2-0.3-3.2-0.9-3.5-1.2-3.5-1.2 0 0-0.4-0.1 0.1-0.8 0.6-0.7 1.5-2.2 1.8-3.1z"/>
			<path id="Layer" class="s4" d="m160 266.3c1-1.1 1.1-1.4 1.1-1.4 0 0 0.4 0.3 0.1 0.8-0.3 0.5-1.7 1.8-2.7 2.3-1 0.6-2 0.7-2 0.7l0.1-0.2c0 0 2.4-1.1 3.4-2.2z"/>
			<path id="Layer" class="s4" d="m164 273.8c0 0 0.2-4.5 0.2-5.2 0-0.7 0.5-0.5 0.5-0.5l0.4 0.2c0 0-0.8 5.8-0.9 6.7-0.1 0.7-0.5 0.6-0.7 0.6 0.4-0.2 0.5-1.6 0.5-1.8z"/>
			<path id="Layer" class="s4" d="m170.1 254.2c0.4-0.4 1.2-0.6 0.4 0.2-0.8 0.9-1.9 2-2.2 3-0.3 0.9-0.5 2 0.1 1.8 0.5-0.3 0.9-0.3 1.4-0.7 0.6-0.5 1.6-1.3 2.1-1.4 0.4-0.1 1.2 0 0.5 0.7-0.6 0.7-1.3 1.3-2.4 2.2-1.2 0.9-1.9 1.2-2.5 1.7-0.6 0.4-1.2 0.8-1.2 0.8 0 0 0.5-3.7 1.5-5.4 1.1-1.6 1.9-2.5 2.3-2.9z"/>
			<path id="Layer" class="s4" d="m190.1 316.1c0.7 0.6 1.7 0.8 1.7 0.8 0 0 0.5 0 0.5 0.2 0 0.2-0.6 0-1.1-0.1-0.6-0.1-1.4-0.7-1.7-0.9-0.2-0.2-0.7-0.4-0.5-0.8 0.1-0.4 0.3 0.3 1.1 0.8z"/>
			<path id="Layer" class="s4" d="m183.6 319.6c0.2 0.2 1.4 1.1 1.4 1.1 0 0 0.4 0.3 0.8 0.4 0.4 0.2 0.5 0.4 0.5 0.4 0 0 0 0.1-0.5 0-0.4-0.1-1.7-1-2.1-1.4-0.4-0.4-0.6-0.5-0.5-0.6 0.2-0.2 0.3-0.1 0.4 0.1z"/>
			<path id="Layer" class="s4" d="m209.8 273.1c-0.2 0.3-0.5 0.7-0.7 0.6-0.1-0.2 0.1-0.3 0.4-0.7q0.5-0.5 0.5-0.5c0 0 0.4-0.7 0.7-1 0.2-0.2 0.6-0.3 0.1 0.3-0.5 0.5-0.8 1-1 1.3z"/>
			<path id="Layer" class="s4" d="m211.8 277.5c-0.3 0.2-0.6 0.5-0.9 0.8-0.3 0.3-0.5 0.7-0.7 0.5-0.2-0.2 0.5-0.5 0.7-0.9 0.3-0.4 0.6-0.6 0.9-0.9 0.4-0.3 0.8-0.5 0.8-0.5 0 0-0.5 0.7-0.8 1z"/>
			<path id="Layer" class="s4" d="m211 284.5c-0.5 0.5-1.2 0.7-1.3 0.5-0.1-0.2 0.1-0.4 0.5-0.6 0.4-0.2 1.1-0.6 1.4-0.9 0.3-0.2 0.7-0.5 0.9-0.7 0.2-0.2 0.5-0.4 0.6-0.4 0.1 0.1-0.7 0.9-0.9 1.1-0.3 0.1-0.7 0.5-1.2 1z"/>
			<path id="Layer" class="s4" d="m209.6 290.1c0-0.2 0-0.3 0.4-0.3 0.4 0 1-0.1 1-0.1 0 0 0.8-0.3 0.8-0.2 0.1 0.2-0.7 0.5-1 0.6-0.3 0-0.7 0.1-0.9 0.2-0.1 0.1-0.3 0-0.3-0.2z"/>
			<path id="Layer" class="s4" d="m209 296.3c0.9 0 1.6-0.3 1.7-0.1 0 0.1-0.4 0.3-0.9 0.5-0.4 0.1-1.3 0.2-1.8 0.2-0.6 0-0.7-0.1-0.7-0.4 0.1-0.3 0.8-0.2 1.7-0.2z"/>
			<path id="Layer" class="s4" d="m202.1 303c0.1-0.2 0.4-0.1 0.9 0 0.5 0.1 1.3 0.3 1.8 0.3 0.5-0.1 1.5-0.1 1.5-0.1l0.5 0.1c0 0.2-0.7 0.1-1.8 0.3-1.1 0.1-1.8-0.1-2.3-0.2-0.6-0.1-0.7-0.3-0.6-0.4z"/>
			<path id="Layer" class="s4" d="m199.2 307.7c0.6 0.2 1 0.3 1.4 0.3 0.4 0 1.4 0.2 1.4 0.2 0 0 0.5 0 0.4 0.2-0.1 0.2-0.3 0-0.7-0.1-0.4 0-0.7 0-1.4 0-0.7 0-1.2-0.2-1.6-0.3-0.4-0.1-0.9-0.3-0.7-0.6 0.2-0.3 0.7 0.1 1.2 0.3z"/>
			<path id="Layer" class="s4" d="m193.7 311.3c0.3 0.3 1.5 1.1 1.5 1.1 0 0 0.2 0.2 0.7 0.5 0.5 0.2 0.4 0.3 0.4 0.4-0.1 0.1-0.4-0.2-0.7-0.3-0.2-0.1-1.1-0.6-1.5-1-0.4-0.4-1-0.7-0.9-0.9 0.1-0.3 0.2-0.1 0.5 0.2z"/>
			<path id="Layer" class="s4" d="m202.9 264.6c0 0-0.1 0.3-1 1.5-1 1.2-0.5 0-0.2-0.3 0.2-0.3 1.6-2.3 2.1-2.8 0.5-0.5 0.5-0.3 0.3 0.1-0.2 0.3-1.2 1.5-1.2 1.5z"/>
			<path id="Layer" class="s4" d="m204.9 270.8c-0.1-0.2 0.2-0.3 0.8-1 0.5-0.7 1.6-2.1 1.6-2.1 0 0 0.3-0.6 0.4-0.5 0.1 0-0.4 1.1-0.8 1.5-0.5 0.4-1 1.3-1.3 1.7-0.4 0.3-0.5 0.5-0.7 0.4z"/>
			<path id="Layer" class="s4" d="m202.3 282.3c0-0.3 1.1-0.3 1.6-0.4 0.5-0.1 1.3-0.3 1.3-0.3 0 0 1.1-0.2 1.1 0 0 0.1-0.2 0.2-0.8 0.3-0.6 0.1-1.4 0.4-2 0.5-0.7 0.1-1.2 0.2-1.2-0.1z"/>
			<path id="Layer" class="s4" d="m204.9 276.1c-0.7 0.6-1.2 0.8-1.5 1-0.4 0.2-0.7 0.6-0.9 0.3-0.2-0.2 0.2-0.4 0.8-0.7 0.6-0.2 0.9-0.5 0.9-0.5 0 0 0.3-0.2 0.6-0.3 0.3-0.2 0.9-0.4 0.1 0.2z"/>
			<path id="Layer" class="s4" d="m198.8 272c0.4-0.4 0.8-0.6 0.8-0.6 0 0 0.5-0.5 0.6-0.3 0.1 0.1-0.6 0.6-0.9 0.9-0.4 0.4-1 1.2-1.3 1.1-0.3-0.2 0.3-0.7 0.8-1.1z"/>
			<path id="Layer" class="s4" d="m202.8 288c0 0 0.6 0.2 1 0.3 0.4 0.1 0.4 0.3-0.3 0.3-0.7 0-1-0.2-1.7-0.3-0.7-0.2-0.9-0.2-0.8-0.5 0.1-0.2 0.5-0.1 0.7-0.1 0.3 0.1 1.1 0.3 1.1 0.3z"/>
			<path id="Layer" class="s4" d="m201.7 293.8c0.1 0.2-0.5 0-0.8-0.1-0.4-0.1-1.2-0.5-1.6-0.6-0.4-0.2-0.4-0.2-0.4-0.5 0-0.3 0.4 0 1 0.1 0.6 0.2 1.3 0.8 1.3 0.8 0 0 0.5 0.2 0.5 0.3z"/>
			<path id="Layer" class="s4" d="m194.2 297.4c-0.5-0.3-0.6-0.6-0.4-0.7 0.2-0.2 0.3-0.2 0.7 0.2 0.5 0.3 1.3 0.9 1.3 0.9 0 0 0.4 0.1 0.7 0.3 0.3 0.2 0.7 0.4 0.6 0.6-0.1 0.1-0.8 0-1.1-0.3-0.3-0.3-1.3-0.7-1.8-1z"/>
			<path id="Layer" class="s4" d="m190.7 302c-0.2-0.1-0.8-0.3-1.1-0.6-0.3-0.2-0.5-0.8-0.2-0.9 0.2 0 0.3 0.3 0.8 0.7 0.5 0.3 2.2 1.4 2.2 1.4l0.4 0.2c0.5 0.2 0.3 0.3-0.1 0.3-0.4-0.1-0.7-0.1-1.1-0.4-0.5-0.4-0.7-0.5-0.9-0.7z"/>
			<path id="Layer" class="s4" d="m185.5 306.5c-0.5-0.2-1.1-0.8-1.4-1.1-0.3-0.3-0.7-0.6-0.5-0.8 0.2-0.2 0.5 0.1 0.9 0.4 0.3 0.3 1.3 1.3 1.3 1.3 0 0 0.1 0.1 0.6 0.5 0.5 0.4 0 0.3-0.2 0.1-0.2-0.1-0.3-0.2-0.7-0.4z"/>
			<path id="Layer" class="s3" d="m164.2 240l-2.1-1.5 2.4-0.6 1.6 1.3z"/>
			<ellipse id="Layer" class="s4" cx="157.4" cy="238.3" rx="2" ry="1.9"/>
			<ellipse id="Layer" class="s3" cx="157.4" cy="237.9" rx="1.2" ry="1.2"/>
			<path id="Layer" class="s3" d="m161.6 231.6c-0.5 0.2-1.2 0.1-1.2 0.1 0 0-0.2-0.9 0.3-1.3 0.5-0.4 1-0.7 1.2-1 0.3-0.3 0.4-0.4 0.4-0.4 0 0 0 0.7 0 1.2 0.1 0.5-0.2 1.2-0.7 1.4z"/>
			<path id="Layer" class="s3" d="m160.2 232.6c0-0.2 0.1-0.4 0.4-0.4 0.2 0 0.3 0.2 0.3 0.4 0 0.2-0.1 0.3-0.3 0.3-0.3 0-0.4-0.1-0.4-0.3z"/>
			<path id="Layer" class="s3" d="m163.3 232.2c0.2 0.2 0.5 0.6 0.5 0.6 0 0-0.4 0-0.8 0.2-0.3 0.3-0.7 0.5-1.1 0.4-0.4 0-0.6-0.4-0.5-0.7 0.1-0.2 0.3-0.5 0.9-0.7 0.7-0.3 0.8 0 1 0.2z"/>
			<path id="Layer" class="s3" d="m161.9 234.6c1.3 0.1 2.9-1.3 2.9-1.3 0.2 1.1 0.9 1.7 1.9 1.9h-0.1c0 0-1 0.6-2.1 0.7-0.5 0.1-1 0-1.6-0.1-0.7-0.1-1.4-0.3-1.8-0.6-0.8-0.5-0.6-1.7-0.6-1.7 0 0 0.1 1 1.4 1.1z"/>
			<path id="Layer" class="s3" d="m166.8 233.3c0.5-0.2 1.3-0.6 1.6-0.6 0.4 0 0.8-0.1 0.7 0.5 0 0.6-0.7 0.9-1.3 0.9-0.6 0-0.9-0.2-1.2-0.4-0.4-0.1-0.3-0.2 0.2-0.4z"/>
			<path id="Layer" class="s3" d="m170.8 231.2c0.5-0.5 1-0.6 1-0.6 0 0 0.4 1 0.2 1.6-0.2 0.6-0.7 0.8-1.2 0.8-0.5-0.1-1.3-0.3-1.1-0.7 0.2-0.4 0.5-0.7 1.1-1.1z"/>
			<path id="Layer" class="s3" d="m169.8 233.9c0-0.2 0.2-0.3 0.4-0.3 0.3 0 0.5 0.1 0.5 0.3 0 0.2-0.2 0.3-0.5 0.3-0.2 0-0.4-0.1-0.4-0.3z"/>
			<path id="Layer" class="s3" d="m169 229c0.4-1.6 0.3-3.4-1.2-5.7-1.6-2.3-4.4-3.3-4.4-3.3 0 0 0-0.1-0.9-1.1-0.9-0.9-2.7-2.1-2.7-2.1 0 0 2.1 0.5 3.3 0.9q0 0 0 0.1c0 0.8 0.6 1.4 1.4 1.4q0.4 0 0.8-0.2c0.6 0.1 2.7 1.4 3.3 1.8q-0.2 0.3-0.2 0.8c0 0.8 0.6 1.4 1.4 1.4q0.3 0 0.6-0.1 0.1 0.1 0.2 0.3 0.7 1.2 1 2.3c-0.3 0.2-0.6 0.7-0.6 1.2 0 0.8 0.6 1.5 1.2 1.5q0.1 0.7 0 0.9c0 0.5-0.2 0.8-1 1-0.8 0.2-1.9 1.7-1.9 1.7-0.1 0-0.7-1.1-0.3-2.8z"/>
			<path id="Layer" class="s3" d="m164 218.4c-0.3-0.2-0.3-0.6-0.1-0.8 0.2-0.2 0.7-0.2 1 0 0.3 0.3 0.3 0.7 0.1 0.9-0.3 0.2-0.7 0.2-1-0.1z"/>
			<path id="Layer" class="s3" d="m169.3 222c-0.3-0.3-0.4-0.8-0.1-1.1 0.2-0.2 0.7-0.2 1.1 0.1 0.3 0.3 0.4 0.8 0.1 1-0.3 0.3-0.8 0.3-1.1 0z"/>
			<ellipse id="Layer" class="s3" cx="172.4" cy="226.5" rx=".8" ry=".8"/>
			<path id="Layer" class="s3" d="m154.8 215.1c0.5 0.1 1.2 0.4 2.4 1-0.8 0-1.5 0.5-1.5 1.2 0 0.7 0.8 1.4 1.6 1.4 0.8 0 1.4-0.7 1.4-1.4q0-0.2-0.1-0.4 0.5 0.3 1.1 0.7c2.6 1.7 3.2 2.6 4.5 5 1.3 2.4 1.7 5 1.2 6.5-0.6 1.6-2.6 1.9-2.7 1.9 0 0 0.3-0.2 0.3-0.5 0-0.3-0.1-0.5-0.1-1-0.1-0.6-0.1-1.3-0.1-1.3 0 0-0.4-0.1-0.7 0.2-0.3 0.4-0.6 0.7-0.9 1.1-0.3 0.3-1 0.9-1 0.9 0 0-0.4-0.6-0.4-1.3 0-0.7 0.5-1.5 0.6-2.7 0.1-1.2-0.6-3.4-1.8-5-1.2-1.6-3.4-3-4.1-3.4-0.6-0.3-0.8-0.8-0.8-1.1 0-0.3-0.1-0.5-0.1-1.2-0.1-0.7 0.6-0.7 1.2-0.6z"/>
			<ellipse id="Layer" class="s3" cx="157.4" cy="217.2" rx=".8" ry=".7"/>
			<path id="Layer" class="s3" d="m153.6 233.2c-0.7 0.2-1.4 0.1-1.7-0.2-0.3-0.2-0.5-0.7-0.1-1.1 0.4-0.3 1-0.3 1.4-0.1 0.3 0.2 1.2 0.8 1.2 0.8 0 0-0.2 0.3-0.8 0.6z"/>
			<path id="Layer" class="s3" d="m151.6 233.9c0.2 0.3 0.3 0.5 1 0.5 0.7 0.1 1.5 0 1.9-0.4 0.5-0.5 0.8-1.1 0.8-1.1h0.8c0 0 0.3 1.1 0.6 1.4 0.3 0.3 1.6 0.3 2.1-0.1 0.5-0.4 1-0.9 1.1-0.8 0.1 0.1 0 0.5-0.6 0.9-0.5 0.5-0.9 0.8-1.8 0.8h-4.9c0 0-1 0-1.3-0.6-0.3-0.6-0.3-0.9-0.2-1.1 0.1-0.2 0.2 0.1 0.5 0.5z"/>
			<path id="Layer" class="s3" d="m159.1 233c-0.7 0.4-1.1 0.2-1.4-0.2-0.3-0.3-0.3-0.4-0.3-0.4 0 0 0.7-0.3 1-0.5 0.4-0.2 0.6-0.4 0.9-0.4 0.4 0.1 0.4 0.1 0.4 0.1 0 0 0.2 1-0.6 1.4z"/>
			<ellipse id="Layer" class="s4" cx="162.7" cy="225.7" rx="1.7" ry="1.6"/>
			<path id="Layer" class="s4" d="m159.9 219.9c0.6-0.4 1.6-0.2 2.1 0.4 0.6 0.7 0.5 1.6-0.2 2.1-0.7 0.4-1.6 0.2-2.2-0.4-0.5-0.7-0.4-1.6 0.3-2.1z"/>
			<ellipse id="Layer" class="s3" cx="162.8" cy="225.4" rx="1" ry=".9"/>
			<path id="Layer" class="s3" d="m160.5 220.1c0.5-0.1 1 0.1 1.2 0.5 0.2 0.4 0 0.8-0.6 0.9-1 0.2-1.5-1.1-0.6-1.4z"/>
		</g>
	</g>
</svg>