<svg version="1.2" baseProfile="tiny-ps" xmlns="http://www.w3.org/2000/svg" viewBox="0 0 900 600" width="900" height="600">
	<style>
		tspan { white-space:pre }
		.s0 { fill: #cc0000 } 
		.s1 { fill: #ffd700 } 
		.s2 { fill: #009933 } 
	</style>
	<path fill-rule="evenodd" class="s0" d="m0 0h900v600h-900v-600z" />
	<path fill-rule="evenodd" class="s1" d="m130.74 50.73h21.8l-17.63 12.81l6.74 20.73l-17.63-12.81l-17.63 12.81l6.74-20.73l-17.63-12.81h21.8l6.74-20.73l6.74 20.73zm-11.05 3.34h-13.95l11.29 8.2l-4.31 13.27l11.29-8.2l11.29 8.2l-4.31-13.27l11.29-8.2h-13.95l-4.31-13.27l-4.31 13.27z" />
	<g >
		<path class="s1" d="m105.69 108.97l26.39 3.64l-18.97 18.79c22.82 21.54 45.69 43.18 68.5 64.64c3.19 3.21 3.18 8.39-0.04 11.57c-3.22 3.18-8.41 3.17-11.6-0.04c-21.25-23-43.71-45.08-65.13-67.99l-14.08 13.95l-14.93-14.99l29.85-29.57z" />
		<path class="s1" d="m124 90c14.07 3.71 26.5 12.13 34.97 22.27c11.09 13.27 15.96 29.44 15.55 41.99c-0.82 24.93-18.47 42.26-42.08 41.71c-12.87-0.3-24.39-6.07-32.07-15.11c-0.44 1.8-1.67 3.32-3.34 4.12c-0.09 0.06-0.18 0.12-0.3 0.18c-5.01 2.4-8.95 6.65-10.78 11.88c-0.82 2.61-2.5 5.27-4.74 7.52c-3.95 3.96-8.99 6.01-12.71 5.18c-0.39 0.17-0.82 0.26-1.25 0.27c-1.72 0-3.11-1.39-3.11-3.1c0-0.34 0.06-0.68 0.17-1c-1.13-3.71 0.88-9 4.99-13.13c2.08-2.08 4.52-3.69 6.96-4.58c0.04-0.02 0.09-0.04 0.14-0.06c5.27-1.78 9.62-5.68 12.1-10.64c0.75-2.25 2.72-3.87 5.07-4.18c0.94-1.1 2.31-1.74 3.76-1.74c0.6 0 1.2 0.11 1.76 0.33l3.3-2.77c5.97 6.59 14.6 10.74 24.21 10.74c18 0 32.7-14.55 32.59-32.51c-0.05-8.76-2.5-19.71-8.08-30.2c-5.5-10.35-14.82-20.25-27.11-27.15l0 0z" />
	</g>
	<path class="s2" d="m0 225h900v150h-900v-150z" />
</svg>