<svg version="1.2" baseProfile="tiny-ps" xmlns="http://www.w3.org/2000/svg" viewBox="0 0 900 600" width="900" height="600">
	<title></title>
	<defs>
		<linearGradient id="grd1" gradientUnits="userSpaceOnUse"  x1="556.8" y1="391.9" x2="799.8" y2="391.9">
			<stop offset="0" stop-color="#de2110"  />
			<stop offset=".5" stop-color="#ffffff"  />
			<stop offset="1" stop-color="#de2110"  />
		</linearGradient>
		<clipPath clipPathUnits="userSpaceOnUse" id="cp1">
			<path d="m0 0h450v300h-450v-300z" />
		</clipPath>
	</defs>
	<style>
		tspan { white-space:pre }
		.s0 { fill: #00247d } 
		.s1 { fill: #ffffff;stroke: #000000;stroke-width: .8 } 
		.s2 { fill: #ffd600 } 
		.s3 { fill: #006b29;stroke: #000000;stroke-width: .8 } 
		.s4 { fill: #006b29;stroke: #000000;stroke-width: .6 } 
		.s5 { fill: #2163c6 } 
		.s6 { fill: #ffd600;stroke: #000000;stroke-width: .6 } 
		.s7 { fill: #ffd600;stroke: #000000;stroke-linecap:round;stroke-linejoin:round;stroke-width: .8 } 
		.s8 { fill: #ffd600;stroke: #000000;stroke-width: .3 } 
		.s9 { fill: #ffd600;stroke: #000000;stroke-width: 1.1 } 
		.s10 { fill: #ffd600;stroke: #000000;stroke-linecap:round;stroke-linejoin:round;stroke-width: .6 } 
		.s11 { fill: #ffd600;stroke: #000000;stroke-width: .8 } 
		.s12 { fill: #de2110;stroke: #000000;stroke-linecap:round;stroke-linejoin:round;stroke-width: .6 } 
		.s13 { fill: #ffffff } 
		.s14 { fill: none;stroke: #000000;stroke-linecap:square;stroke-linejoin:round;stroke-width: 1.1 } 
		.s15 { opacity: .7;fill: none;stroke: #000000;stroke-linecap:round;stroke-linejoin:round;stroke-width: .8 } 
		.s16 { fill: #de2110;stroke: #000000;stroke-width: .8 } 
		.s17 { opacity: .7;fill: none;stroke: #000000;stroke-width: .8 } 
		.s18 { fill: #000000 } 
		.s19 { fill: #de2110;stroke: #000000;stroke-width: 1.1 } 
		.s20 { fill: #ffd631;stroke: #000000;stroke-linejoin:bevel;stroke-width: 1.1 } 
		.s21 { fill: #ffd600;stroke: #84a510;stroke-width: .8 } 
		.s22 { opacity: .7;fill: none;stroke: #84a510;stroke-width: .8 } 
		.s23 { opacity: .7;fill: none;stroke: #84a510;stroke-linecap:square;stroke-width: .8 } 
		.s24 { opacity: .7;fill: none;stroke: #000000;stroke-linecap:round;stroke-width: 1.1 } 
		.s25 { fill: #ffffff;stroke: #000000;stroke-linecap:round;stroke-linejoin:round;stroke-width: .4 } 
		.s26 { fill: #ffffff;stroke: #000000;stroke-linecap:round;stroke-linejoin:round;stroke-width: 1.2 } 
		.s27 { fill: #ffffff;stroke: #000000;stroke-linejoin:bevel;stroke-width: .6 } 
		.s28 { fill: #006b29;stroke: #000000;stroke-width: .3 } 
		.s29 { fill: url(#grd1);stroke: #000000;stroke-width: 1.1 } 
		.s30 { fill: #000000;stroke: #ffffff;stroke-width: 52 } 
		.s31 { fill: none;stroke: #ffffff;stroke-width: 86.7 } 
		.s32 { fill: none;stroke: #cf142b;stroke-width: 52 } 
	</style>
	<path class="s0" d="m0 0h900v600h-900v-600z" />
	<g >
		<g >
			<path fill-rule="evenodd" class="s1" d="m736.65 285.83c3.93-0.12 7.87 1.84 11.69 5.6c-2.76 1.89-3.96 4.05-4.49 6.22c-1.28-2.14-4.65-6.97-8.71-6.5c-4.56 0.52-7.46 6.04-12.07 10.44v-6.33c4.28-6.13 8.76-9.15 13.24-9.44c0.12-0.01 0.23 0 0.35 0l-0.01 0.01z" />
			<g >
				<path fill-rule="evenodd" class="s2" d="m678.26 278.64h44.8v55.04h-44.8v-55.04v0z" />
				<g >
					<path fill-rule="evenodd" class="s3" d="m690.01 290.91l0.4 19.59l-1.96 0.05l0.28-19.67l1.28 0.03z" />
					<path fill-rule="evenodd" class="s4" d="m689.29 290.57c-0.23 3.75-2.35 6.51-4.54 8.29c-1.36-3.01 0.99-5.53 4.54-8.29zm0 0c-3.6 0.97-5.72 1-8.13 3.25c-0.75-4.4 4.43-5.69 8.13-3.25zm-3.11-7.76c1.63-2.84 5.72 2.64 3.11 7.76c-2.13-1.83-1.29-6.27-3.11-7.76zm3.11 7.76c4.94-3.36 9.62-1.01 9.42 1.37c-2.84-0.13-4.72-1.7-9.42-1.37zm0 0c5.98-0.3 4.65 3.34 7.12 7.18c-3.35-2.54-6.36-5.36-7.12-7.18z" />
				</g>
				<g >
					<path fill-rule="evenodd" class="s3" d="m712.14 290.91l0.4 19.59l-1.96 0.05l0.28-19.67l1.28 0.03z" />
					<path fill-rule="evenodd" class="s4" d="m711.41 290.57c-0.23 3.75-2.35 6.51-4.54 8.29c-1.36-3.01 0.99-5.53 4.54-8.29zm0 0c-3.6 0.97-5.72 1-8.13 3.25c-0.75-4.4 4.43-5.69 8.13-3.25zm-3.11-7.76c1.63-2.84 5.72 2.64 3.11 7.76c-2.13-1.83-1.29-6.27-3.11-7.76zm3.11 7.76c4.94-3.36 9.62-1.01 9.42 1.37c-2.84-0.13-4.72-1.7-9.42-1.37zm0 0c5.98-0.3 4.65 3.34 7.12 7.18c-3.35-2.54-6.36-5.36-7.12-7.18z" />
				</g>
				<g >
					<path fill-rule="evenodd" class="s3" d="m700.52 311.38l0.4 19.59l-1.96 0.05l0.28-19.67l1.28 0.03v0z" />
					<path fill-rule="evenodd" class="s4" d="m695.26 319.33c-1.36-3.01 0.99-5.53 4.54-8.29c-0.23 3.75-2.35 6.51-4.54 8.29zm4.54-8.29c-3.6 0.97-5.72 1-8.13 3.25c-0.75-4.4 4.43-5.69 8.13-3.25zm-3.11-7.76c1.63-2.84 5.72 2.64 3.11 7.76c-2.13-1.83-1.29-6.27-3.11-7.76zm3.11 7.76c4.94-3.36 9.62-1.01 9.42 1.37c-2.84-0.13-4.72-1.7-9.42-1.37zm0 0c5.98-0.3 4.65 3.34 7.12 7.18c-3.35-2.54-6.36-5.36-7.12-7.18z" />
				</g>
				<path fill-rule="evenodd" class="s5" d="m633.46 278.64h44.8v55.04h-44.8v-55.04v0z" />
				<g >
					<path fill-rule="evenodd" class="s6" d="m657.9 286.37c-0.4 0-0.43-4.64 0-4.64c0.43 0 2.46 0 3.48 0c1.01 0 1.69 0.48 2.13 1.35c0.4 0.8 0.58 1.05 0.58 2.32c0 1.29 0.37 1.5 0.58 2.32c0.03 0.12 2.39 0.39 2.71 0.39c0.9 0 1.54-0.67 2.13-0.97c0.79-0.4 1.24-0.7 2.32-0.97c0.92-0.23 1.75-0.24 2.71 0c0.6 0.15 1.41 1.66 1.55 1.93c0.32 0.65-0.09 2.31-0.19 2.71c-0.2 0.78-0.51-1.64-1.16-2.13c-1.17-0.87-2.26 0.46-2.51 0.97c-0.7 1.39-3.06-1.29-3.09-1.35c-0.38-0.76-0.19-2-0.19-2.9c0-1.15-0.88-1.14-1.74-1.35c-0.94-0.24-3.02 0.51-4.06 0.77c-1.14 0.28-2.72 1.26-3.87 1.55c-0.37 0.09-0.96 0-1.35 0h-0.03z" />
					<path fill-rule="evenodd" class="s6" d="m658.07 281.34v7.54h-1.11v-7.54h1.11z" />
					<path class="s7" d="m655.2 288.19h4.87v12.69h-4.87v-12.69z" />
					<path fill-rule="evenodd" class="s8" d="m654.34 303.43l-7.16 15.28l-1-0.48l7.16-15.28l1 0.48v0z" />
					<path class="s7" d="m656.32 300.45h2.81v22.09h-2.81v-22.09v0z" />
					<path fill-rule="evenodd" class="s9" d="m649.87 323.28l-4.78 4.89" />
					<path fill-rule="evenodd" class="s8" d="m654.96 303.05l-1.73 18.36l-1.11-0.1l1.76-18.36l1.07 0.1h0.01z" />
					<path fill-rule="evenodd" class="s8" d="m663.67 320.89l-1.11 0.17l-3.46-20.5l1.07-0.17l3.49 20.5h0.01z" />
					<path fill-rule="evenodd" class="s8" d="m666.75 319.09l-1.07 0.31l-5.22-18.98l1.07-0.28l5.22 18.95z" />
					<path fill-rule="evenodd" class="s6" d="m646.49 314.6c0.87 3.63 3.29 6.64 10.51 6.64c7.22 0 9.64-3.01 10.51-6.64h8.12c-6.28 16.51-8.37 17.32-18.63 17.32c-10.27 0-12.32-0.81-18.6-17.32h8.09v0z" />
					<g >
						<path fill-rule="evenodd" class="s9" d="m649.87 323.28l-4.99 5.09" />
						<path fill-rule="evenodd" class="s10" d="m645.28 328.77c-0.71 1.12-2.52 2.97-3.63 3.7c-1.11 0.73-1.5 0.33-0.8-0.8c0.71-1.12 2.52-2.97 3.63-3.7c1.11-0.73 1.5-0.33 0.8 0.8z" />
					</g>
					<g >
						<path fill-rule="evenodd" class="s9" d="m654.85 323.28l-4.99 5.09" />
						<path fill-rule="evenodd" class="s10" d="m650.26 328.77c-0.71 1.12-2.52 2.97-3.63 3.7c-1.11 0.73-1.5 0.33-0.8-0.8c0.71-1.12 2.52-2.97 3.63-3.7c1.11-0.73 1.5-0.33 0.8 0.8z" />
					</g>
					<g >
						<path fill-rule="evenodd" class="s9" d="m659.83 323.28l-4.99 5.09" />
						<path fill-rule="evenodd" class="s10" d="m655.24 328.77c-0.71 1.12-2.52 2.97-3.63 3.7c-1.11 0.73-1.5 0.33-0.8-0.8c0.71-1.12 2.52-2.97 3.63-3.7c1.11-0.73 1.5-0.33 0.8 0.8z" />
					</g>
					<g >
						<path fill-rule="evenodd" class="s9" d="m664.81 323.28l-4.99 5.09" />
						<path fill-rule="evenodd" class="s10" d="m660.21 328.77c-0.71 1.12-2.52 2.97-3.63 3.7c-1.11 0.73-1.5 0.33-0.8-0.8c0.71-1.12 2.52-2.97 3.63-3.7c1.11-0.73 1.5-0.33 0.8 0.8z" />
					</g>
					<path fill-rule="evenodd" class="s11" d="m642.84 310.57v-8.41l7.8 3.77c0.26 0.73-1.87 1-7.8 0.54v4.1z" />
					<path fill-rule="evenodd" class="s11" d="m669.39 310.57v-8.41l7.8 3.77c0.26 0.73-1.87 1-7.8 0.54v4.1z" />
					<path class="s6" d="m637.78 310.28h10.26v4.4h-10.26v-4.4z" />
					<path class="s6" d="m665.99 310.28h10.26v4.4h-10.26v-4.4z" />
					<path fill-rule="evenodd" class="s6" d="m647.32 287.87c5.19 3.43 11.44 6.02 11.44 6.02c9.12 3.35 14.03 7.2 19.29 11.03l-7.88-1.66l-0.28-0.17c0.16-0.06 0.32-0.12 0.48-0.21c-3.81-2.28-6.51-4.38-13.1-7.12c-4.69-3.23-9.13-5.71-12.93-6.29c-0.03 0-0.07-0.03-0.1-0.03l-0.45-0.24c-3.54-0.81-4.93-4.48-7.12-7.09c3.85 1.65 7.43 3.64 10.65 5.77v-0.01z" />
					<path fill-rule="evenodd" class="s6" d="m643.78 289.39c3.92 0.41 8.57 2.98 13.48 6.37c6.59 2.74 9.3 4.84 13.11 7.12c-2.96 1.57-5.45-1.68-6.18-0.56c-1.37 2.1-4.94-1.23-5.81-0.37c-4.73 4.71-7.59 2.26-10.3-2.81c-5.1-3.25-4.53-6.49-4.31-9.74l0.01-0.01z" />
				</g>
				<path fill-rule="evenodd" class="s2" d="m678.26 333.68v59.46c-22.52-8.8-39.92-22.97-44.8-46.46v-13h44.8z" />
				<path fill-rule="evenodd" class="s12" d="m659.1 335.72c0.01 0 0.09 0 0.1 0c0.02 0 0.06 0 0.07 0c0.04 0 0.09 0 0.14 0c1.19 0 2.18 0.95 2.18 2.14c0 0.38-0.1 0.76-0.28 1.07c2.87 0.7 5.14 2.97 5.84 5.84c0.31-0.17 0.66-0.28 1.04-0.28c1.19 0 2.18 0.95 2.18 2.14c0 1.19-0.99 2.18-2.18 2.18c-0.38 0-0.73-0.1-1.04-0.28c-0.61 2.51-2.44 4.55-4.81 5.5c0.57 0.67 0.9 1.54 0.9 2.49c0 1.22-0.59 2.3-1.49 3.01v6.71h1.83v-3.32h6.4v3.32h2.39v-3.32h1.94v5.25h-6.26v-3.32h-2.52v3.32h-3.77v2.49h3.77v3.32h2.52v-3.32h6.26v5.25h-1.94v-3.32h-2.39v3.32h-6.4v-3.32h-1.83v5.05h-4.67v-18.08c-0.91-0.7-1.49-1.81-1.49-3.04c0-0.94 0.33-1.82 0.9-2.49c-2.37-0.94-4.19-2.98-4.81-5.5c-0.32 0.18-0.68 0.28-1.07 0.28c-1.19 0-2.14-0.99-2.14-2.18c0-1.19 0.95-2.14 2.14-2.14c0.39 0 0.76 0.09 1.07 0.28c0.7-2.87 2.97-5.14 5.84-5.84c-0.18-0.32-0.28-0.68-0.28-1.07c0-1.01 0.72-1.91 1.66-2.14c0.02 0 0.02 0 0.03 0c0.02 0 0.16 0 0.17 0zm-1.31 9.3h-3.8v3.28h3.8v3.84h3.32v-3.84h3.8v-3.28h-3.8v-3.84h-3.32v3.84z" />
				<path fill-rule="evenodd" class="s5" d="m723.06 333.68v13c-4.89 23.49-22.29 37.66-44.8 46.46v-59.46h44.8z" />
				<path fill-rule="evenodd" class="s13" d="m698.97 336.55l2.39 7.34h7.72l-6.25 4.54l2.39 7.34l-6.25-4.54l-6.25 4.54l2.39-7.34l-6.25-4.54h7.72l2.39-7.34h0z" />
				<path fill-rule="evenodd" class="s13" d="m712.66 369.43c-7.84 10.09-19.1 17.43-32.22 22.85l18.5-37.34l13.72 14.49z" />
			</g>
			<path class="s14" d="m678.26 278.64h44.8v55.04v13c-4.89 23.49-22.29 37.66-44.8 46.46c-22.52-8.8-39.92-22.97-44.8-46.46v-13v-55.04h44.8v0z" />
			<g >
				<path fill-rule="evenodd" class="s1" d="m612.81 336.69c14.21 0.55 20.43-8.03 18.99-25.38c0-0.17 0-0.35 0-0.52c0-0.31 0.62-0.93 0.84-1.15c0.31-0.31 0.63-0.73 0.94-1.05c0.23-0.23 1.33-0.91 0.63-0.21c-0.3 0.3-0.47 1.41-0.52 1.68c-0.13 0.64 0 1.45 0 2.1c0 0.74-0.04 1.48 0.1 2.2c0.09 0.45 0.83 0.93 1.05 1.36c0.37 0.74 0.42 1.08 0.42 1.89c0 0.57-0.31 0.69-0.31 1.36c0 0.71-0.72 1.37-0.84 1.99c-0.15 0.76-0.41 1.21-0.21 1.99c0.13 0.5 0.12 1.01 0.21 1.36c0.13 0.52 0.21 0.83 0.21 1.47c0 0.77-0.11 1.05-0.42 1.68c-0.26 0.52-0.48 0.86-0.73 1.36c-0.3 0.59-0.08 1.63 0.1 2.1c0.18 0.46 0.05 0.89 0.52 1.36c0.29 0.29 0.53 0.96 0.63 1.36c0.14 0.55-0.09 1.21-0.21 1.68c-0.2 0.78-0.1 1.28-0.1 1.99c0 0.73 0.21 1.59 0.21 2.41c0 0.89 0.1 1.64 0.1 2.62c0 0.75 0.21 1.44 0.21 2.31c0 0.54-0.31 1.15-0.31 1.78c0 0.47-0.1 1.13-0.21 1.57c-0.11 0.44-1.27 0.18-1.57 0.1c-0.41-0.1-0.53-0.87-0.63-1.26c-0.15-0.6-0.16-1.07-0.31-1.68c-0.14-0.55 0-1.32 0-1.89c0-0.56 0-1.12 0-1.68c0-0.63 0-1.26 0-1.89c0-0.56 0-1.12 0-1.68c0-0.45 0-0.91 0-1.36c-4.09 3.55-10.04 5.33-18.88 4.41l0.1-4.41l-0.01 0.03z" />
				<path class="s15" d="m614.07 336.79v4.09" />
				<path class="s15" d="m616.37 336.9v3.88" />
				<path class="s15" d="m625.08 333.86v6.08" />
				<path class="s15" d="m628.75 330.71v7.66" />
				<path class="s15" d="m632.32 315.6h2.2" />
				<path class="s15" d="m632.11 318.96h2.31" />
				<path class="s15" d="m631.58 323.47h2.2" />
				<path class="s15" d="m630.74 326.83h3.36" />
				<path class="s15" d="m632.32 337.95h1.78" />
				<path class="s15" d="m632.11 341.3h2.31" />
				<path class="s15" d="m632.84 329.66l-4.2 0.84" />
			</g>
			<g >
				<path fill-rule="evenodd" class="s1" d="m613.3 288.29c-0.01 8.83-4.87 10.86-4.87 16.11c0 4.23 1.2 3.59 1.31 7.57c0.14 4.95-7.02 11.44-7.02 11.44c9.42 0 8.06 1.92 8.06 6.95c0.08-0.43 0.49-0.66 0.76-0.59c0.39 0.1 0.84 0.07 1.31 0.07c0.08 0 0.99-0.03 1 0c0.04 0.14 0.07 0.57 0.07 0.93c0 0.31 0.07 0.74 0 1.04c-0.11 0.45-0.35 0.59-0.69 0.93c-0.37 0.37 0 0.93 0 0.93c-0.32 0.24-0.74 0.49-0.62 0.97c0.04 0.14 0.32 0.94 0.24 1c-0.53 0.39-1.03 0.39-0.62 1.07c0.06 0.11 0.1 0.21 0.17 0.31c0.29 0.39 1.08 0.68 0.38 1.21c-0.99 0.74 0.4 1.19 0.31 1.21c-0.13 0.03-1.18 0.46-1 0.69c0.21 0.28 0.36 0.36 0.62 0.62c0.38 0.38 0.98 0.09 0.52 0.55c-0.42 0.42-0.87 0.38-0.24 0.76c0.92 0.55-0.29 0.75-0.21 0.83c0.21 0.21 0.6 0.22 0.52 0.55c-0.15 0.58 0.2 0.37 0.38 0.73c0.15 0.3 0.03 0.59-0.38 0.8c-0.27 0.14-0.32 0.3-0.38 0.66c-0.08 0.48 0.02 0.64 0.14 1.11c0.09 0.34 0.28 0.6 0.55 0.76c0.67 0.41 0.03 0.21-0.55 0.21c-0.53 0-0.7-0.12-1.04-0.21c-0.28-0.07-0.73-0.21-0.93-0.41c-0.16-0.16-0.52-0.21-0.76-0.45c-0.1-0.1-0.54-0.62-0.52-0.69c0.06-0.24-0.03-0.48-0.1-0.83c-0.1-0.49-0.07-0.86-0.28-1.28c-0.11-0.23-0.2-0.62-0.38-0.8c-0.25-0.25-0.41-0.35-0.73-0.59c-0.38-0.29-1.27 0.12-1.38-0.35c-0.62 0.18 0.74-0.51-0.55 0.14c-0.43 0.22-0.94 0.54-1.11 0.86c-0.21 0.41-0.4 0.86-0.69 1.24c-0.2 0.26-0.85 0.93-1.24 0.93c-0.44 0-0.93 0.48-1.35 0.48c-0.4 0-0.77 0.03-1.18-0.07c-0.49-0.12-0.89-0.61-1.31-0.86c-0.37-0.22-0.82-0.62-1.24-0.73c-0.47-0.12-0.69-0.21-1-0.45c-0.53-0.4-0.63-0.48-1.42-0.48c-0.71 0-1.01 0.01-1.42 0.55c-0.12 0.16-0.77 0.63-0.69 0.93c0.11 0.42 0.27 0.96 0.14 1.49c-0.12 0.47-0.27 0.37-0.62 0.73c-0.32 0.32-0.21 0.75-0.21 1.24c0 0.42 0 0.73-0.17 1.07c-0.2 0.4-0.31 0.57-0.8 0.93c-0.46 0.34-0.21 0.5-0.14 1.04c0.05 0.37 0.19 1.11 0 1.49c-0.14 0.28-0.24 0.71-0.48 1c-0.4 0.46-0.55 0.84-0.69 1.56c-0.04 0.21-0.19 0.92-0.38 1.11c-0.31 0.31-0.36 0.65-0.62 1c-0.25 0.33-0.46 0.53-0.8 0.86c-0.21 0.21-0.7 0.74-0.45 1.24c0.2 0.4 0.22 0.81 0.31 1.24c0.11 0.57 0.14 0.76 0.38 1.24c0.19 0.38 0.89 0.88 0.38 0.62c-0.21-0.11-0.64-0.38-0.86-0.38c-0.42 0-0.91 0.08-1.31 0c-0.5-0.1-1.01-0.14-1.56-0.14c-0.62 0-1.02 0.29-1.42 0.69c-0.21 0.21-0.38 0.44-0.62 0.69c-0.21 0.21-0.12 0.6-0.38 0.86c-0.16 0.16-0.26 0.69-0.55 0.86c-0.46 0.28-0.64 0.38-1.24 0.38c-0.42 0-0.83 0-1.24 0c-0.36 0-0.97-0.05-1.42-0.14c-0.11-0.02-0.24-0.05-0.35-0.07c0-0.35-0.02-0.5 0.24-0.76c0.46-0.46 0.5-0.71 0.73-1.18c0.2-0.41 0.34-1.07 0.21-1.59c-0.07-0.29 0.01-0.75-0.31-1.18c-0.39-0.52-0.4-0.55-0.52-1.28c-0.12-0.69-0.35-1.14-0.35-0.1c0 0.71-0.13 1.03-0.93 0.83c-0.43-0.11-0.79-0.37-0.97-0.73c-0.28-0.57-0.93-0.78-1.18-1.28c-0.26-0.51-0.73-2.08-0.86-1.52c-0.03 0.12-0.1 1.23-0.1 1.83c0 0.19-0.07 1.95-0.1 1.94c-0.56-0.28-0.2-0.72-0.66-1.18c-0.2-0.2-0.53-0.87-0.93-0.97c-0.16-0.04-1.25-0.49-1.28-0.55c-0.1-0.25-0.45-1.48-0.45-1.18c0 0.53 0 1.09 0 1.62c0 0.57-0.22 1.39-0.62 1.8c-0.48 0.48-0.51 0.87-1.07 0.31c-0.32-0.32-0.42-0.68-0.66-1.04c-0.28-0.42-0.67-0.9-0.86-1.28c-0.17-0.33-0.24-0.99-0.41-1.31c-0.2-0.35-0.8-1.57-1.28-1.69c-0.12-0.03-0.23-0.04-0.35-0.07l1.24-2.63l4.29 2.11l3.01-6.43l-4.25-2.11l3.32-7.05l4.25 2.11l3.32-7.05l-4.25-2.07l3.32-7.05l4.25 2.11l3.35-7.12l-4.29-2.11l3.35-7.09l4.25 2.11l3.15-6.67l-4.25-2.11l3.32-7.05l4.25 2.11l3.32-6.98l-4.29-2.11l3.35-7.09l4.25 2.11l3.35-7.12l-4.25-2.11l1.9-4.01c3.95 1.81 8.14 6.57 8.12 16.84l-0.01 0.06z" />
				<path fill-rule="evenodd" class="s16" d="m555.11 332.86c0.7 1.22 2.47 3.48 2.75 4.89c0.29 1.47-0.1 2.58-0.1 4.08c0 0.91 0.1 2.15 0.51 2.96c0.26 0.52 0.41 1.6 0 2.14c-0.68 0.9-1.85 1.98-2.96 2.35c-1.21 0.4-2.82-0.15-2.86 0c-0.19 0.75 0.35 1.51 1.33 2.24c1.04 0.78 0.99 1.26 1.22 2.45c0.23 1.13 0.66 1.67 2.04 1.33c0.8-0.2 2.51-1.63 2.35-0.82c-0.2 1.01-0.53 1.98-1.43 2.65c-0.61 0.45-1.01 1.08-1.63 1.33c-0.85 0.34-2.01 0.88-2.96 1.02c-0.74 0.11-2.09 0.34-2.75-0.1c-0.36-0.24-2.31-0.95-2.04-1.63c0.3-0.74 0.35-1.45 1.12-1.84c0.23-0.11 1.96-0.57 2.14-0.82c0.95-1.26-0.32 0.23-0.61 0.31c-0.73 0.18-1.52 0.71-2.35 0.71c-0.3 0-1.97-0.06-2.04 0.2c-0.2 0.81-0.79 1.25-1.43 0.61c-0.31-0.31-0.92-1.49-0.92-1.94c0-0.29-0.4-2.25-1.02-1.43c-0.46 0.61-1.43 2.54-1.43 0.71c0-0.68 0-1.36 0-2.04c0-0.92 0-1.84 0-2.75c0-0.81-0.19-1.95-1.02-1.12c-0.37 0.37-0.37 0.96-0.71 1.43c-0.22 0.3-1.46 2.13-1.63 1.43c-0.13-0.52-0.25-0.98-0.1-1.73c0.16-0.81 0.25-1.92 0.61-2.65c0.42-0.85 0.59-1.81 1.22-2.45c0.58-0.58 1.33-0.83 1.73-1.63c0.28-0.56 0.39-1.59 0.71-2.24c0.07-0.14 0.14-0.27 0.2-0.41c0.32-0.63 0.77-0.93 1.12-1.63c0.17-0.34 0.66-1.63 0-1.63c-0.56 0-2.66-0.3-3.16 0.1c-0.34 0.27-1.53 1.96-1.53 1.22c0-1.11 0.23-1.68 0.71-2.65c0.43-0.86 0.87-2 1.53-2.65c0.55-0.55 0.95-1.14 1.73-1.53c0.14-0.07 0.28-0.13 0.41-0.2c0.17-0.1 0.34-0.2 0.51-0.31c0.84-0.5 2.12-0.45 3.37-0.2c0.69 0.14 2.02-0.37 2.65 0.1c0.33 0.24 1.08 0.93 1.53 1.02c0.81 0.16 1.06 0.58 1.43 1.12c0.46-0.37 1.29-0.77 1.73 0l0.03 0z" />
				<path fill-rule="evenodd" class="s16" d="m598.88 249.6c22.83 4.63 13.32 19.53 11.89 20.74c-3.66-1.5-6.86-6.46-9.85-6.74c-3.6-0.34-7.3-3.15-11.37-4.46c0.25 3.9 2.36 11.09 11.86 11.37c1.11 0.03 2.42 0.32 3.77 0.93l-1.9 4.01l4.25 2.11l-3.35 7.12l-4.25-2.11l-3.35 7.09l4.29 2.11l-3.32 6.98l-4.25-2.11l-3.32 7.05l4.25 2.11l-3.15 6.67l-4.25-2.11l-3.35 7.09l4.29 2.11l-3.35 7.12l-4.25-2.11l-3.32 7.05l4.25 2.07l-3.32 7.05l-4.25-2.11l-3.32 7.05l4.25 2.11l-3.01 6.43l-4.29-2.11l-1.24 2.63c-0.03-0.01-0.04-0.03-0.07-0.03c-7.45-3.99-5.34-4.71-6.57-9.47c-1.6-6.19-4.74-4.48-6.85-12.96c-1.09-4.38-4.93-37.41 25.72-45.91c4-1.11 8.96-1.46 8.85-5.81c-0.06-2.57-3.02-6.32-6.64-11.06c-0.13-0.26 0.09-1.4-0.55-1.11c-1.6 0.73-1.83-1.39-2.21-1.11c-2.21 1.63-2.05-0.01-2.49-0.55c-0.88-1.09-2.7-0.86-2.77-0.55c-0.27 1.23-1.84-1.29-2.21-2.77c-0.34-1.38-0.18-2.67-1.66-3.04c-1.89-0.47-0.86-2.15-0.28-3.32c0.54-1.07 0.85-2.8 1.66-3.87c0.28-0.37 0.59-0.71 0.83-1.11c0.28-0.46 0.55-0.92 0.83-1.38c1.36-8.77 9.86-13.39 17.18-13.66c7.33-0.27 13.49 3.83 10.2 12.55l-0.01 0.02z" />
				<path class="s17" d="m584.25 252.36c3.07 7.21 15.68 2.16 19.42 8.74c4.81 1.06 6.91 3.86 6.02 8.55" />
				<path class="s17" d="m604.16 261.3v3.88" />
				<path class="s15" d="m602.8 255.96c0.27 0.07 1.17-0.45 1.17 0.29c0 0.12 0.29 0.84 0.29 1.26c0 0.38 0.11 0.41 0.19 0.58" />
				<path class="s15" d="m607.36 254.79v4.76" />
				<path fill-rule="evenodd" class="s1" d="m588.71 249.25c1.72 2.59 4.43 3.04 7.96 1.75c-2.51-3.84-5.2-3.58-7.96-1.75z" />
				<path fill-rule="evenodd" class="s18" d="m593.86 249.74c0 0.64-0.14 1.26-0.4 1.72c-0.26 0.46-0.6 0.71-0.96 0.71c-0.36 0-0.71-0.26-0.96-0.71c-0.25-0.46-0.4-1.07-0.4-1.72c0-0.64 0.14-1.26 0.4-1.72c0.25-0.46 0.6-0.71 0.96-0.71c0.36 0 0.71 0.26 0.96 0.71c0.25 0.46 0.4 1.07 0.4 1.72v0z" />
				<path class="s15" d="m606.41 301.1c-0.1 0.03-0.83 0.15-1.05 0.26c-0.61 0.31-1.77 0.46-2.36-0.13c-0.52-0.52-0.13-1.18-1.05-1.18c-0.32 0-2.23 0.76-2.23 0.13c0-0.84 0.18-1.95 0.39-2.36" />
				<path class="s15" d="m581.76 310.67c-0.63-0.18-2.13-0.46-1.97-1.44c0.13-0.79 0.16-2.05 0.13-2.49" />
				<path class="s15" d="m574.15 327.98c-0.47 0.12-1.17 0.26-1.7 0.26c-1.64 0-2.83-0.3-4.06-0.92c-0.34-0.17-1.57-0.97-1.57-1.18c0-0.75 0.04-1.76 0.52-2.36c0.31-0.39 4.06-2.87 4.06-2.88" />
				<path class="s15" d="m580.05 317.89c-1.02 0-1.97-0.13-3.02-0.13c-0.69 0-2.2 0.16-2.62-0.26c-0.46-0.46-0.53-0.66-0.79-1.18c-0.15-0.31-0.68-1.26-0.39-1.84c0.34-0.68 0.25-1.24 1.18-1.7c0.35-0.17 1.94-0.71 1.57-1.44c-0.32-0.63-1.39-0.71-1.57-1.44c-0.12-0.49-0.13-1.28-0.13-1.97c0-0.83-0.13-1.37-0.13-2.1c0-0.7 0.11-1.23 0.26-1.84c0.21-0.84 0.71-1.38 1.18-1.57" />
				<path class="s15" d="m567.86 333.75c0.28-0.56 0.47-0.93 0.79-1.57c0.55-1.11 1.39-1.27 2.36-1.31" />
				<path class="s15" d="m561.96 338.73c-0.69 1.38 0.27 1.41-1.44 2.1c-0.06 0.02-0.09 0.09-0.13 0.13c-0.19 0.19-0.52 0-0.79 0" />
				<path class="s15" d="m580.97 296.64c-0.81 0.81 0.55 2.12 0.92 2.49c0.55 0.55 1.68 1.44 2.49 1.44c0.57 0 1.88 1.03 2.49 1.18c0.97 0.24 2.06 0.81 3.02 1.05c1.07 0.27 2.11 0.14 3.15 0.39c0.17 0.04 0.35 0.09 0.52 0.13c0.81 0.2 1.32 0.75 1.84 1.44c0.72 0.96 0.79 0.81 1.05 2.1c0.17 0.85 0.66 1.57 0.66 2.49c0 0.99 0.26 1.64 0.26 2.62c0 0.86 0.51 1.1 0.66 1.84c0.13 0.66 0.39 1.07 0.39 1.7c0 0.74 0 1.49 0 2.23c0 0.83 0 1.66 0 2.49c0 0.88 0.13 1.84 0.13 2.75c0 0.87-0.26 1.38-0.26 2.36c0 1.33-0.74 2.32-1.05 3.54c-0.24 0.94-1.1 1.53-1.44 2.23c-0.47 0.95-1.04 1.61-1.97 0.92c-0.51-0.38-0.44-1-0.66-1.44c-0.07-0.15-0.57 1.53-0.66 1.97c-0.26 1.29-0.92 1.62-0.92 3.02c0 1.73-0.89 1.9-2.23 2.23c0 0-1-2.44-1.05-2.62c-0.13-0.53-0.44 1.37-0.92 1.97c-1.05 1.31-0.74 2.17-3.02 2.62c-1.75 0.35-2.03-0.15-1.7-1.44c0.35-1.42 0.75-1.27-1.18 0.66c-0.69 0.69-2.35 1.72-2.88 0.66c-0.34-0.68-1.22 0.66-2.36 0.66c-1.1 0-2.83 0.13-4.2 0.13c-1.35 0-2.27-0.57-3.93 0.26c-0.44 0.22-1.12 0.44-1.44 0.52" />
				<path class="s15" d="m586.22 350.8c0.08-0.31 0.03-0.94 0.17-1.22c0.37-0.74 0.59-1.42 1.14-2.19c0.15-0.2 0.29-0.41 0.44-0.61c0.47-0.63 0.78-1.65 1.31-2.1c0.84-0.72 2.33-1.8 3.58-1.49c0.82 0.2 1.05 0.43 0.96 1.22" />
				<path class="s15" d="m586.13 355.43c0-0.65 0.15-1.26 0.44-1.84c0.24-0.49 0.53-1.35 1.05-1.66c0.66-0.39 1.05-0.7 1.75-0.87c0.77-0.19 2.01 0.53 2.36-0.17" />
				<path class="s15" d="m545.53 335.72c-0.09-0.95-0.29-1.15 0.1-1.94c0.12-0.24 1.58-0.2 1.84-0.2c0.17 0 0.34 0 0.51 0" />
				<path class="s15" d="m548.28 336.84c0.41 0 0.14-0.94 0.51-1.12c0.7-0.35 0.4-0.98 1.22-1.12c0.71-0.12 1.67-0.07 2.35 0.1c0.36 0.09 0.19 0.25 0.31 0.41" />
				<path class="s15" d="m548.08 342.35c0.93 0.23 0.44-1.97 1.12-2.65c0.57-0.57 0.83-1.3 1.73-1.53c0.92-0.23 1.62-0.03 2.45 0.31c0.14 0.06 0.27 0.14 0.41 0.2c0.39 0.19 0.96 1.32 1.02 1.63c0.24 1.19 0.65 1.78 1.53 2.45" />
				<path class="s15" d="m548.79 345.2c0.22 0.17 2.57-0.5 3.16-0.31c0.44 0.15 0.38 0.41 0.92 0.41" />
				<path class="s15" d="m546.85 348.36c-0.26-0.21-0.23-0.03-0.51-0.41c-0.39-0.52-0.95-0.79-1.53-1.22c-0.48-0.36 0.06-1.54-0.51-1.73" />
				<path class="s15" d="m543.59 349.08c0.16 0.21 1.32 0.37 1.73 0.92c0.45 0.6 0.26 1.34 0.51 1.84c0.47 0.93 2.94 0.42 3.67 0.71c0.66 0.27-0.77 0.98-0.92 1.02" />
			</g>
			<g >
				<path fill-rule="evenodd" class="s19" d="m730.91 401.05c-9.08 7.63-22.79 10.56-28.78 13.96c0.37-3.52 7.25-12.35 14.07-16.09c30.55-16.78 25.76-39.55 17.97-45.75c11.62 0 17.66 30.31-3.26 47.89v-0.01z" />
				<path fill-rule="evenodd" class="s20" d="m749.99 400.77c-28.81-11.51-29.66-47.61-15.83-47.61c-6.83 3.85-5.22 12.77-5.22 14.36c0 13.05 19.91 22.09 32.64 25.63c12.69 3.52 33.03 3.15 37.06 1.92l-7.74 10.23c-16.27 0-31.15-0.64-40.91-4.54v0.01z" />
			</g>
			<g >
				<path fill-rule="evenodd" class="s16" d="m765.95 258.71c0.02-3.66-1.4-5.96-4.32-7.89c-6.23-4.13-2.9-5.57-1.6-7.15c0.11 8.69 6.37 5.94 4.32-2.1c-1.05-4.11-0.48-7.22 0.74-10.24c1.18 3.68-0.71 9.46 3.7 6.04c1.43-1.11 2.59-2.68 1.74-4.85c-1.53-3.88 0.47-4.97 2.33-6.5c-1.31 4.21-0.56 5.84 0.74 6.78c3.31-3.13 5.36-6.59 5.43-11.35c4.11 10.51 11.31 6.01 9-5.43c3.11 7.37 2.55 8.32 4.69 5.92c2.61-2.93 1.75-6.77 0.37-10.36c1.46 1.73 3.32 4.63 2.84 6.29c-0.74 2.53-0.34 3.44-4.19 7.28c-3.09 3.08-1.03 2.82-8.26 4.69c-6.03 1.55-14.87 11.58-16.53 13.81c-1.75 2.35-0.99 15.05-0.99 15.05l-0.01 0.01z" />
				<path fill-rule="evenodd" class="s1" d="m796.56 377.93c-0.03 3.1 0.51 6.66-1.11 7.23c0.72 3.27 0.3 4.72-4.29 4.84c-1.47 0.04-1.49-3.22-1.49-3.22c0 0 1.76-6.82 2.35-11.65c0.3-2.42 0.36-4.3 0.31-5.6l3.39-1.66l1.38 2.94c-0.83 1.54-0.53 4.48-0.55 7.12h0.01z" />
				<path fill-rule="evenodd" class="s16" d="m768.72 258.05l-2.93 0.38c-0.3-16.01 7.94-29.28 24.94-40.2c-25.87 22.78-21.05 38.66-22.01 39.82v0z" />
				<path fill-rule="evenodd" class="s16" d="m764.38 260.13c6.7-5.33 9.02-6.28 9.11-13.08c0.04-2.83 1.27-2.21 2.14-2.95c-0.65 10.68 1.48 7.91 4.11 3.24c1.51-2.69 0.95-6.19 4.64-7.33c-6.19 16.29 5.47 1.79 4.32-2.16c0.76 2.33 2.41-1.7 3.36-1.33c1.6 0.64 2.7 3.76 4.93-2.2c-0.27 1.98 0.83 1.49 2.05 0.8c-4.51 5.8-2.45 5.03-2.16 6.02c3.71-2.58 11.02-3.74 7.84-19.66c3.26 7.85 5.37 9.51 5-2.27c2.47 4.1 3.84 6.54-1.14 11.48c-3.32 3.29-2.3 6.89-6.02 9.89c-3.33 2.68-7.05 3.91-11.7 4.55l-9.55 5.45l-6.59 3.75c-3.56 7.9-7.06 5.15-10.34 5.8v0z" />
				<g >
					<path fill-rule="evenodd" class="s21" d="m731.87 379.22l1.23-98.92h3.21v98.43l-4.44 0.49v0z" />
					<path class="s22" d="m736.3 291.45c-0.29 0-3.27 0-3.27 0" />
					<path class="s22" d="m736.3 300.3c-0.29 0-3.27 0-3.27 0" />
					<path class="s22" d="m736.3 309.71c-0.29 0-3.27 0-3.27 0" />
					<path class="s22" d="m736.3 320.22c-0.29 0-3.27 0-3.27 0" />
					<path class="s22" d="m736.3 332.38c-0.29 0-3.27 0-3.27 0" />
					<path class="s23" d="m735.8 341.24c-0.26 0-2.92 0-2.92 0" />
					<path class="s23" d="m735.75 350.09c-0.29 0-3.27 0-3.27 0" />
					<path class="s23" d="m735.75 357.83c-0.29 0-3.27 0-3.27 0" />
					<path class="s23" d="m735.75 366.68c-0.29 0-3.27 0-3.27 0" />
					<path class="s23" d="m735.75 375.53c-0.29 0-3.27 0-3.27 0" />
				</g>
				<path class="s1" d="m743.43 310.03c0 0 0-3.11 0-7.23c0-4.2-0.15-9.7 8.4-13.24c1.56-0.65 2.3-1.49 5.5-3.18l2.28 4.84l-4.25 2.07l3.35 7.12l4.25-2.11l3.35 7.09l-4.29 2.11l3.28 6.98l4.29-2.11l3.32 7.09l-4.25 2.07l3.15 6.67l4.25-2.11l3.35 7.12l-4.29 2.07l3.35 7.12l4.25-2.11l3.32 7.05l-4.25 2.07l3.32 7.05l4.25-2.11l3.32 7.05l-4.25 2.11l0.8 1.69c-14.03-10.68-16.97-15.76-16.97-22.16c0-16.74-8.75-18.52-11.51-19.64c-5.57-2.24-8.04-4.96-10.65-7.92" />
				<path class="s1" d="m750.86 298.21c0.1-1.96 0.86-4.1 4.46-7.09" />
				<path class="s1" d="m754.45 312.94c-2.97 0.7-4.36 2.59-4.36 2.59c0 0-2.58 1.3-4.7 1.97c-1.8 0.57-2.95 0.43-4.98 1.31c-4.89 2.14-8.02 8.64-8.02 8.64v6.02h-2.07v2.63c-0.95 1.74-1.6 3.64-5.39 6.19c-2.07 1.38-2.47-0.77-3.42-1.49c-0.95-0.72-0.38-1.42-0.38-1.42c1.01-2.19 1.59-4.29 4.6-6.81v-2.63c1.94-3 1.4-1.99 6.81-10.99c1.27-2.12 3.16-3.71 4.84-5.91c1.04-1.36 2.27-2.33 6.05-3.01c2.49-3.14 7.94-4.21 7.4-10.61c-0.02-0.39 0.01-0.8 0.03-1.21" />
				<path class="s1" d="m761.13 308.93c0 0-2.08 3.5-5.29 3.7c-0.54 0.03-0.92 0.2-1.38 0.31" />
				<g >
					<path class="s24" d="m723.89 338.86c0.59-0.3-0.26 1.31-0.26 1.97c0 0.1-0.61 0.96-0.66 1.05" />
					<path class="s17" d="m730.05 333.49c-0.37 0.19-0.82 0.56-1.18 0.92c-0.31 0.31-0.81 1.06-1.31 1.18c-0.89 0.22-0.9-0.1-1.57-0.26c-0.83-0.21-1.3-0.16-1.7-1.05" />
				</g>
				<path class="s17" d="m795.33 385.2c-0.35 0.14-1.48 0.68-2.12 1.01c-0.79 0.4-1.48 0.45-2.35 0.45c-0.37 0-0.74 0-1.12 0" />
				<path fill-rule="evenodd" class="s16" d="m775.96 260.39c1.51 4.24 3.54 6.96 3.46 15.76c-0.07 7.18-4.63 15.23-4.63 21.99c0 8.11 2.03 12.4 11.1 20.33c4 3.5 6.75 5.2 8.54 14.17c3.32-0.94 3.77-2.73 0.45-7.99c-3.24-5.13-0.77-7.98 2.14-9.27c0 0-1.84 1.35-0.38 4.04c1.54 2.84 3.57 4.22 3.66 7.81c0.2 5.54-1.83 7.63-5.77 8.02c-1.32 3.75 0.65 7.47-2.32 12.45c-3.21 5.39 0.37 9.76 4.25 13.24c3.19 2.86 3.11 8.18 1.45 8.95c-0.38 0.17-0.59 0.52-0.8 0.9l-1.38-2.94l-3.39 1.66c-0.05-1.3-0.23-2.02-0.31-2.07c-1.16-0.85-1.77-1.43-2.8-2.21l-0.8-1.69l4.25-2.11l-3.32-7.05l-4.25 2.11l-3.32-7.05l4.25-2.07l-3.32-7.05l-4.25 2.11l-3.35-7.12l4.29-2.07l-3.35-7.12l-4.25 2.11l-3.15-6.67l4.25-2.07l-3.32-7.09l-4.29 2.11l-3.28-6.98l4.29-2.11l-3.35-7.09l-4.25 2.11l-3.35-7.12l4.25-2.07l-2.28-4.84c0.06-0.03 0.04-0.04 0.1-0.07c4.62-2.41 6-4.86 6.12-6.4c0.16-2.06-3.52-3.41-8.85-4.84c-1.46-0.39-2.23 0.69-6.08 0.69c-5.64 0-4.01-8.19-2.73-8.4c3.28-1.1 5.1-2.8 7.07-2.94c3.69-0.28 5.13-2.69 11.22-3.9c11.68-2.33 8.72-7.25 11.17-6.95l0.62 6.81l-0.01-0.02z" />
				<path fill-rule="evenodd" class="s16" d="m770.49 263.73c1.19 0.09 1.74-0.41 2.33-1c0.46-0.46 1.54-0.84 2.16-1c0.71-0.18 1.52-0.17 2.33-0.17c1.22 0 1.81 0.17 2.99 0.17c0.93 0 1.72 0.38 2.49 0c0.83-0.42 1.49-0.82 1.83-1.16c0.59-0.59 0.04 1.74-0.33 2.49c-0.45 0.9-0.78 1.62-1.49 2.33c-0.93 0.93-2.51 2-5.31 2.33c-0.88 0.1-2.16 0.5-3.16 0.5c-0.49 0-0.52 0.09-1 0.17" />
				<path class="s17" d="m772.49 264.89c1 0 1.99 0 2.99 0c1.1 0 0.79-1.66 2.49-1.66c0.96 0 1.96-0.01 2.82 0.17c0.79 0.16-1.54 0.47-2.33 0.66c-0.92 0.23-1.83 1.17-2.49 1.49c-0.97 0.49-2.76-0.23-3.49-0.66h0.01z" />
				<path fill-rule="evenodd" class="s16" d="m770 263.49l-2.34-2.48c6.04-4.07 23.56-8.86 33.1-49.92c-1.08 24.12-10.51 40.84-30.75 52.41l-0.01-0.01z" />
				<path fill-rule="evenodd" class="s25" d="m766.73 276.36c0.25-0.07 0.52 0.05 0.63 0.29c0.12 0.23 0.05 0.52-0.15 0.68c-0.07 0.07-0.15 0.18-0.35 0.28c-0.2 0.1-0.36 0.1-0.55 0.1c-0.64 0-1.44-0.12-1.76-0.03c-0.43 0.11-0.83 0.24-1.38 0.35c-0.26 0.05-0.75 0.18-0.8 0.17c-0.01 0-0.02 0-0.03 0c-0.03 0-0.06 0.01-0.1 0c-0.02-0.01-0.03-0.02-0.07-0.03c-0.02-0.01-0.08-0.02-0.1-0.03c-0.03-0.02-0.07-0.07-0.07-0.07l-0.14-0.17l-0.07-0.21l0.07-0.24c0 0 0.04-0.1 0.07-0.14c0.11-0.14 0.17-0.15 0.21-0.17c0.08-0.04 0.09-0.06 0.14-0.07c0.17-0.05 0.41-0.09 0.69-0.14c0.57-0.1 1-0.23 1.31-0.31c0.74-0.19 1.58 0 2.04 0c0.15 0 0.1-0.04 0.03 0c-0.07 0.04-0.04 0.04 0.07-0.07c0.08-0.09 0.19-0.15 0.31-0.17v0v-0.02z" />
				<path fill-rule="evenodd" class="s25" d="m752.4 272.52c0.45 0.06 0.86 0.21 1.14 0.28c0.19 0.02 0.35 0.16 0.41 0.37c0.06 0.2 0.02 0.43-0.12 0.58c-0.13 0.15-0.33 0.2-0.51 0.13c-0.4-0.09-0.76-0.24-1.05-0.28c-1.11-0.16-2.24 0.23-3.42 0.23c-0.03 0-0.3 0.08-0.52 0.21c-0.22 0.13-0.44 0.29-0.49 0.35c-0.44 0.5-0.5 0.97-1.36 0.97c-0.18 0-0.34-0.1-0.43-0.27c-0.09-0.17-0.09-0.39 0-0.56c0.09-0.17 0.25-0.28 0.43-0.27c0.61 0 0.35-0.29 0.65-0.62c0.2-0.22 0.47-0.42 0.77-0.59c0.3-0.17 0.59-0.31 0.95-0.31c1.16 0 2.34-0.36 3.54-0.19l0.01-0.03z" />
				<path fill-rule="evenodd" class="s26" d="m748.35 269.67c0 0.23-0.2 0.46-0.57 0.62c-0.36 0.17-0.85 0.26-1.37 0.26c-0.51 0-1-0.09-1.37-0.26c-0.36-0.17-0.57-0.39-0.57-0.62c0-0.23 0.2-0.46 0.57-0.62c0.36-0.17 0.85-0.26 1.37-0.26c0.51 0 1 0.09 1.37 0.26c0.36 0.17 0.57 0.39 0.57 0.62v0z" />
				<path fill-rule="evenodd" class="s27" d="m758.63 266.1c2.45-1.56 4.97-1.75 7.59 0c-3.76 2.01-5.71 1.07-7.59 0z" />
				<path fill-rule="evenodd" class="s18" d="m762.83 266.03c0 0.43-0.12 0.85-0.33 1.16c-0.21 0.31-0.5 0.48-0.8 0.48c-0.3 0-0.59-0.17-0.8-0.48c-0.21-0.31-0.33-0.72-0.33-1.16c0-0.43 0.12-0.85 0.33-1.16c0.21-0.31 0.5-0.48 0.8-0.48c0.3 0 0.59 0.17 0.8 0.48c0.21 0.31 0.33 0.72 0.33 1.16v0z" />
				<path fill-rule="evenodd" class="s1" d="m772.26 343.08c0 1.24 0.13 2.44 0.41 3.63c0 0.01 0 0.03 0 0.03c-3.49 7.37-0.95 7.45-0.59 12.58c0.13 1.8-4.54 4.76-9.58 5.84c-5.26 1.12-7.78 6.88-7.78 6.88h-3.63v4.43l-6.64-0.14c3.26-4.68 2.37-9.32 13.52-13.38c4.02-1.47 6.09-2.12 6.85-3.42c0.86-1.55-0.09-4.11-1.83-10.13c-2.06-7.11-8.23-11.7 6.88-18.6c1.4 2.79 2.39 6.69 2.39 12.27v0.01z" />
				<path class="s17" d="m750.78 372.07c-0.33 0.05-1.57 0.01-2.1-0.12c-0.34-0.08-0.97-0.95-1.11-1.23" />
			</g>
			<g >
				<path fill-rule="evenodd" class="s1" d="m571.01 384.22c1.57-4.37 1.15-8.97 11.97-12.28l-0.94-11.45c-1.25-3.39 4.55-3.94 4.58-0.62c-0.69 10.1 2.03 10.82 9.58 10.1c10.16-0.97 8.4 2.96 9.47 5.52c-0.59 0-1.18 0-1.77 0c-0.53 0-1.09 0.07-1.56 0.31c-0.16 0.08-0.87 1.11-0.94 1.04c-0.14-0.14-0.81-0.77-1.35-1.04c-0.36-0.18-0.92-0.52-1.46-0.52c-0.83 0-1.67 0-2.5 0c-0.57 0-1.15-0.02-1.67 0.1c-0.2 0.05-1.11 0.28-1.46 0.1c-0.35-0.17-0.65-1.02-1.15-1.15c-0.43-0.11-1.01 0-1.56 0c-0.47 0-1.05 0.1-1.46 0.1c-0.72 0-1.24-0.08-1.77 0.31c-0.44 0.33-0.91 0.95-1.04 1.46c-0.27 1.08-0.55 0.1-1.15 0.1c-0.42 0-1.47-0.07-1.67 0.31c-0.08 0.16-0.18 1.37-0.62 1.15c-0.35-0.18-0.97-0.35-1.46-0.1c-0.34 0.17-0.89 0.16-1.25 0.52c-0.23 0.23-0.75 1.24-1.04 1.35c-0.53 0.21-0.92 0.58-1.25 0.83c-0.27 0.2-0.91 0.39-1.25 0.73c-0.41 0.41-0.61 0.93-1.15 1.46c-0.37 0.37-0.9 0.87-1.46 1.15c-1.08 0.54-1.69 0.27-2.71 0.52h0.04z" />
				<path class="s15" d="m574.03 377.35l2.08 3.23" />
				<path class="s15" d="m578.19 374.01l1.77 3.44" />
				<path class="s15" d="m581.63 372.87l1.98 3.44" />
				<path class="s15" d="m582.77 366.52l3.54 0.1" />
				<path class="s15" d="m589.23 370.06l1.67 3.75" />
				<path class="s15" d="m594.33 370.06l0.73 4.68" />
				<path class="s15" d="m599.33 369.95l0.31 5.31" />
			</g>
			<g >
				<path fill-rule="evenodd" class="s19" d="m621.88 353.16c-7.79 6.21-12.58 28.98 17.97 45.75c6.82 3.74 13.7 12.57 14.07 16.09c-5.99-3.4-19.7-6.32-28.78-13.96c-20.91-17.58-14.87-47.89-3.26-47.89v0.01z" />
				<path fill-rule="evenodd" class="s20" d="m565.14 405.31l-7.74-10.23c4.03 1.23 24.37 1.6 37.06-1.92c12.73-3.54 32.64-12.58 32.64-25.63c0-1.59 1.61-10.51-5.22-14.36c13.83 0 12.98 36.1-15.83 47.61c-9.76 3.9-24.64 4.54-40.91 4.54v-0.01z" />
			</g>
			<g >
				<path fill-rule="evenodd" class="s28" d="m736.42 280.3c-0.57-6.71-3.99-16.08-11.44-23.12c-20.26-19.14-30.24-27.55-42.2-1.11c-1.24 2.74-8.48 15.01-13.59 15.11c11.68-1.49 15.54-6.07 17.59-13.67c6.35-23.55 13.43-16.87 23.37-8.97c6.73 5.35 7.08 5.4 11.45 9.84c3.93 3.99 5.87 7.61 7.7 11.94c1.5 3.54 3.3 7.87 3.52 9.98h3.6v0z" />
				<path fill-rule="evenodd" class="s28" d="m732.82 280.3c-3.88-11.34-5.36-20.17-10.87-30.14c-5.96-10.78-16.06-22.36-23.22-25.23c-8.35-3.35-12.83-3.68-15.31-1.09c-1.81 1.89-1.88 6.23-4.95 7.67c-4.61 2.16-6.32 6.7-14.33 4.9c4.38-1.8 7-0.76 11.47-8.2c9.59-15.94 31.45-3.03 40.43 7.47c11.26 13.16 20.56 32.69 20.36 44.63h-3.6l0.02-0.01z" />
				<path fill-rule="evenodd" class="s28" d="m732.82 280.3c-4.88-16.05-16.16-49.19-30.05-61.86c-15.94-14.53-34.5-7.24-37.23-2.62c0.52-5.69 15.88-11.1 29.69-5.09c17.78 7.74 33.12 31.68 41.19 69.57h-3.6z" />
				<path fill-rule="evenodd" class="s28" d="m732.82 280.3c-1.72-5.67 0.36 0.9-3.96-15.91c-3.65-14.18-6.42-46.45-20.49-57.13c-7.46-5.66-11.87-6.32-19.96 2.89c-2.08 2.37-6.97 3.66-10.62 6.37c6.63-6.13 9.83-13.19 15.61-15.13c8.83-2.96 17.54 1.94 21.89 7.53c5.41 6.95 10.1 17.65 12.63 27.39c1.22 4.7 0.5 7.75 0.81 14.65c0.41 9.23 8.04 22.08 7.69 29.34h-3.6v0z" />
				<path fill-rule="evenodd" class="s28" d="m732.82 280.3c-0.46-1.52 0.25-5.84-5.01-14.79c-4.93-8.38-7.33-17.55-3.34-29.55c3.79-11.41 6.3-33.31-12.16-42.27c-5-2.43-14.44-5.15-19.63-1.07c-6.28 4.94-14.06 2.91-14.89 2.64c2-1.31 4.57-1.63 6.5-2.82c11.93-7.37 23.41-8.11 34.52-0.59c9.25 6.26 11.3 18.8 11.3 22.46c0 6.78-3.64 21.94-3.43 31.35c0.39 17.25 8.53 22.31 9.75 34.66h-3.6l-0.01-0.02z" />
				<path fill-rule="evenodd" class="s28" d="m732.82 280.3c-0.08-0.24-2.61-9.06-4.59-12.98c-3.81-7.52-1.93-16.34-0.43-28.95c1.31-10.98 12.24-17.85 12.8-27.73c0.25-4.35-2.08-9.52-6.99-10.23c-10.62-1.55-2.07-16.25 0.34-15.79c1.63-1.46-6.58 5.29 1.02 10.64c5.27 3.71 7.98 9.44 7.98 12.22c0 9.2-7.64 22.4-9.27 28.48c-1.84 6.87-4.56 9.94-4.56 15.41c0 7.86 2.39 11.43 3.12 13.41c3.15 8.59 4.48 13.62 4.16 15.51h-3.6l0.02 0.01z" />
				<path fill-rule="evenodd" class="s28" d="m732.82 280.3c-3.12-9.57-8.17-22.97-8.17-30.87c0-5.51 4.33-12.53 10.91-18.09c7.1-6 16.63-10.33 20.76-10.33c2.96 0 4.97 2.76 4.97 6.23c0 5.56-10.46 9.93-16.56 14.82c-4.85 3.9-3.58 5.58-5.23 10.05c-0.05-4.76 0.65-10.06 2.51-12.6c1.48-2.02 2.92-5.34 10.81-7.46c5.25-1.41 11.08-8.55 0.38-8.55c-1.94 0-23.88 12.19-23.88 26.87c0 3.38 1.76 9.1 3.76 14.07c3.09 7.69 3.45 15.21 3.34 15.86h-3.6z" />
			</g>
			<g >
				<path fill-rule="evenodd" class="s28" d="m623.22 280.3c0.22-2.12 2.02-6.45 3.52-9.98c1.83-4.33 3.78-7.95 7.7-11.94c4.37-4.44 4.72-4.49 11.45-9.84c9.93-7.9 17.02-14.57 23.37 8.97c2.05 7.6 5.92 12.18 17.59 13.67c-5.11-0.1-12.35-12.37-13.59-15.11c-11.96-26.44-21.93-18.03-42.2 1.11c-7.44 7.03-10.87 16.4-11.44 23.12h3.6v0z" />
				<path fill-rule="evenodd" class="s28" d="m619.63 280.3c-0.19-11.94 9.1-31.47 20.36-44.63c8.98-10.5 30.84-23.4 40.43-7.47c4.47 7.43 7.09 6.4 11.47 8.2c-8.02 1.8-9.72-2.74-14.33-4.9c-3.07-1.43-3.14-5.78-4.95-7.67c-2.48-2.59-6.95-2.25-15.31 1.09c-7.16 2.87-17.26 14.45-23.22 25.23c-5.51 9.97-6.98 18.8-10.87 30.14h-3.6l0.02 0.01z" />
				<path fill-rule="evenodd" class="s28" d="m619.63 280.3c8.06-37.89 23.4-61.83 41.19-69.57c13.82-6.01 29.18-0.59 29.69 5.09c-2.73-4.62-21.3-11.92-37.23 2.62c-13.89 12.67-25.17 45.81-30.05 61.86h-3.6v0z" />
				<path fill-rule="evenodd" class="s28" d="m619.63 280.3c-0.35-7.26 7.28-20.12 7.69-29.34c0.31-6.9-0.41-9.95 0.81-14.65c2.52-9.74 7.22-20.44 12.63-27.39c4.35-5.59 13.06-10.48 21.89-7.53c5.78 1.93 8.98 9 15.61 15.13c-3.66-2.71-8.54-3.99-10.62-6.37c-8.09-9.21-12.5-8.55-19.96-2.89c-14.08 10.68-16.85 42.95-20.49 57.13c-4.32 16.81-2.24 10.24-3.96 15.91h-3.6z" />
				<path fill-rule="evenodd" class="s28" d="m619.63 280.3c1.22-12.34 9.36-17.4 9.75-34.66c0.22-9.41-3.43-24.57-3.43-31.35c0-3.66 2.05-16.2 11.3-22.46c11.1-7.52 22.58-6.78 34.52 0.59c1.93 1.19 4.5 1.51 6.5 2.82c-0.83 0.27-8.61 2.3-14.89-2.64c-5.19-4.08-14.63-1.35-19.63 1.07c-18.46 8.96-15.95 30.87-12.16 42.27c3.99 12 1.59 21.17-3.34 29.55c-5.27 8.95-4.55 13.28-5.01 14.79h-3.6l-0.01 0.02z" />
				<path fill-rule="evenodd" class="s28" d="m619.63 280.3c-0.33-1.89 1-6.92 4.16-15.51c0.73-1.99 3.12-5.56 3.12-13.41c0-5.47-2.71-8.54-4.56-15.41c-1.63-6.08-9.27-19.28-9.27-28.48c0-2.79 2.71-8.51 7.98-12.22c7.6-5.36-0.6-12.1 1.02-10.64c2.41-0.46 10.96 14.24 0.34 15.79c-4.91 0.71-7.23 5.88-6.99 10.23c0.56 9.88 11.49 16.75 12.8 27.73c1.51 12.6 3.39 21.42-0.43 28.95c-1.98 3.91-4.51 12.74-4.59 12.98h-3.6l0.02-0.01z" />
				<path fill-rule="evenodd" class="s28" d="m619.63 280.3c-0.11-0.65 0.24-8.17 3.34-15.86c2-4.97 3.76-10.68 3.76-14.07c0-14.68-21.94-26.87-23.88-26.87c-10.7 0-4.87 7.14 0.38 8.55c7.89 2.11 9.33 5.44 10.81 7.46c1.86 2.54 2.56 7.84 2.51 12.6c-1.65-4.47-0.38-6.15-5.23-10.05c-6.09-4.9-16.56-9.26-16.56-14.82c0-3.47 2.01-6.23 4.97-6.23c4.13 0 13.66 4.34 20.76 10.33c6.58 5.56 10.91 12.57 10.91 18.09c0 7.9-5.05 21.31-8.17 30.87h-3.6v0z" />
			</g>
			<g >
				<path fill-rule="evenodd" class="s21" d="m619.73 378.72v-98.43h3.21l1.23 98.92l-4.44-0.49v0z" />
				<path class="s22" d="m619.75 291.45c0.29 0 3.27 0 3.27 0" />
				<path class="s22" d="m619.75 300.3c0.29 0 3.27 0 3.27 0" />
				<path class="s22" d="m619.75 309.71c0.29 0 3.27 0 3.27 0" />
				<path class="s22" d="m619.75 320.22c0.29 0 3.27 0 3.27 0" />
				<path class="s22" d="m619.75 332.38c0.29 0 3.27 0 3.27 0" />
				<path class="s23" d="m620.24 341.24c0.26 0 2.92 0 2.92 0" />
				<path class="s23" d="m620.3 350.09c0.29 0 3.27 0 3.27 0" />
				<path class="s23" d="m620.3 357.83c0.29 0 3.27 0 3.27 0" />
				<path class="s23" d="m620.3 366.68c0.29 0 3.27 0 3.27 0" />
				<path class="s23" d="m620.3 375.53c0.29 0 3.27 0 3.27 0" />
			</g>
			<path fill-rule="evenodd" class="s29" d="m678.34 408.63c-16.11 0-26.94-7.79-40.55-11.87c-18.55-5.56-43.93-17.48-72.64 8.55l-7.74-10.23c17.81-16.35 32.94-23.2 62.24-18.3c20.48 3.43 44.28 17.47 58.66 17.47c14.38 0 38.18-14.05 58.66-17.47c29.29-4.9 44.42 1.95 62.24 18.3l-7.74 10.23c-28.71-26.03-54.09-14.11-72.64-8.55c-13.62 4.08-24.44 11.87-40.47 11.87h-0.02z" />
			<path fill-rule="evenodd" class="s18" d="m566.22 390.65c0.13 0.09 0.3 0.25 0.52 0.47c0.33 0.33 0.57 0.6 0.73 0.8c0.05 0.06 0.1 0.14 0.14 0.22l-0.04 0.06l-0.4 0.27l-0.07 0.04c-0.52-0.35-0.92-0.54-1.21-0.59c-0.49-0.07-0.92 0.03-1.29 0.32c-0.35 0.27-0.55 0.58-0.62 0.92c-0.06 0.34 0.01 0.64 0.22 0.91c0.18 0.23 0.45 0.37 0.81 0.42c0.36 0.05 0.94-0.07 1.74-0.38c0.27-0.1 0.61-0.2 1.02-0.3c0.42-0.1 0.77-0.13 1.06-0.08c0.38 0.05 0.7 0.15 0.93 0.3c0.24 0.14 0.48 0.36 0.72 0.67c0.26 0.33 0.45 0.71 0.58 1.13c0.07 0.22 0.08 0.47 0.05 0.74c-0.02 0.19-0.09 0.44-0.2 0.76c-0.11 0.32-0.27 0.6-0.46 0.85c-0.19 0.25-0.47 0.52-0.85 0.81c-0.25 0.19-0.57 0.39-0.97 0.59l-0.78 0.31c-0.22 0.09-0.36 0.13-0.44 0.13c-0.03 0-0.07-0.02-0.13-0.06l-0.05-0.06c-0.03-0.04-0.23-0.28-0.59-0.71c-0.19-0.23-0.32-0.39-0.39-0.48l-0.16-0.2l0.48-0.39c0.48 0.26 0.77 0.41 0.89 0.46c0.25 0.1 0.49 0.15 0.71 0.16c0.22 0.01 0.45-0.03 0.69-0.11c0.23-0.08 0.46-0.2 0.68-0.37c0.19-0.15 0.37-0.35 0.54-0.62c0.17-0.26 0.25-0.54 0.24-0.83c0-0.3-0.09-0.55-0.25-0.77c-0.2-0.26-0.52-0.41-0.94-0.44c-0.26-0.02-0.8 0.1-1.64 0.38c-0.83 0.28-1.45 0.42-1.84 0.44c-0.39 0.01-0.78-0.07-1.16-0.26c-0.38-0.19-0.68-0.43-0.9-0.71c-0.44-0.57-0.61-1.2-0.51-1.91c0.1-0.71 0.54-1.37 1.33-1.98c0.17-0.13 0.45-0.3 0.83-0.5c0.23-0.12 0.56-0.26 0.98-0.4v-0.01zm2.21-2.37l0.36-0.21c0.05 0.03 0.09 0.05 0.11 0.06c0.22 0.12 0.37 0.19 0.47 0.22c0.06-0.01 0.33-0.16 0.81-0.45c0.3-0.18 0.56-0.34 0.79-0.48l0.11-0.09l0.7-0.42l1.32-0.77l1.79-1.07l0.31-0.26c0.03-0.06 0.03-0.19 0-0.38c-0.01-0.04-0.01-0.1-0.02-0.18l0.25-0.16c0.04-0.02 0.1-0.06 0.18-0.1c0.16 0.26 0.4 0.67 0.72 1.2l0.31 0.51l0.17 0.3c0.06 0.1 0.1 0.19 0.13 0.27c-0.13 0.14-0.25 0.26-0.36 0.34c-0.19-0.09-0.43-0.24-0.72-0.46c-0.29-0.22-0.45-0.33-0.5-0.34c-0.08-0.02-0.15-0.02-0.22 0c-0.1 0.04-0.52 0.27-1.25 0.7c-0.11 0.06-0.24 0.15-0.39 0.27c0.07 0.16 0.13 0.3 0.19 0.39l0.47 0.77l1.02 1.71l1.12 1.82l0.44 0.76c0.16 0.27 0.3 0.45 0.43 0.56c0.08-0.01 0.21-0.05 0.39-0.13c0.03-0.01 0.19-0.07 0.48-0.16c0.13-0.04 0.25-0.07 0.36-0.09c0.1 0.13 0.16 0.21 0.18 0.24c0.02 0.03 0.04 0.09 0.07 0.16c-0.08 0.05-0.15 0.1-0.21 0.13c-0.4 0.24-0.74 0.43-1.04 0.56c-0.3 0.14-0.81 0.42-1.54 0.86c-0.12 0.07-0.44 0.3-0.98 0.68c-0.21 0.15-0.35 0.24-0.42 0.28c-0.04-0.06-0.07-0.1-0.09-0.13l-0.09-0.13l-0.03-0.05c0.02-0.16 0.13-0.34 0.33-0.54c0.34-0.34 0.57-0.59 0.68-0.76c-0.01-0.1-0.04-0.21-0.1-0.33c-0.25-0.48-0.68-1.23-1.28-2.24l-1.34-2.18c-0.36-0.6-0.59-0.96-0.69-1.08c-0.03-0.03-0.06-0.05-0.09-0.05c-0.03-0.01-0.06 0-0.1 0.01c-0.13 0.06-0.52 0.28-1.19 0.68c-0.36 0.22-0.59 0.4-0.67 0.54c-0.11 0.2-0.2 0.61-0.28 1.23c-0.02 0.18-0.06 0.29-0.1 0.31c-0.23 0.01-0.39 0.01-0.48-0.02c-0.03-0.32-0.16-0.92-0.4-1.81c-0.07-0.26-0.11-0.43-0.13-0.53l0.02 0.04zm9.36-4.98c0.24-0.08 0.46-0.14 0.65-0.18c0.35-0.08 0.74-0.21 1.18-0.37c0.15-0.06 0.54-0.22 1.15-0.48c0.92-0.4 1.76-0.74 2.52-1.03l1.14-0.45c0.26-0.1 0.65-0.21 1.17-0.34c0.11 0.06 0.19 0.15 0.24 0.3l0.5 1.3l0.11 0.25c0.01 0.03 0.02 0.06 0.04 0.12l-0.25 0.11c-0.03 0.01-0.11 0.04-0.22 0.07c-0.07-0.07-0.17-0.17-0.29-0.31l-0.42-0.35c-0.17-0.15-0.38-0.29-0.63-0.43c-0.12 0.01-0.26 0.05-0.42 0.1c-0.04 0.01-0.18 0.05-0.4 0.12c-0.4 0.12-0.83 0.26-1.28 0.43c-0.51 0.2-0.97 0.38-1.36 0.55c0.03 0.11 0.18 0.53 0.46 1.25l0.42 1.05l0.3 0.79c0.11-0.03 0.2-0.06 0.28-0.08c0.75-0.29 1.28-0.51 1.59-0.66c0.31-0.15 0.49-0.27 0.55-0.35c0.05-0.08 0.09-0.2 0.1-0.35c0-0.11-0.04-0.44-0.13-1.01l0.08-0.04l0.37-0.13c0.16 0.37 0.28 0.65 0.35 0.84c0.17 0.44 0.27 0.73 0.31 0.86c0.04 0.13 0.08 0.23 0.11 0.3c0.04 0.11 0.12 0.29 0.23 0.54c0.11 0.24 0.18 0.43 0.23 0.55l0.05 0.14l-0.45 0.17c-0.04-0.06-0.13-0.19-0.25-0.38c-0.23-0.36-0.4-0.57-0.51-0.64c-0.08-0.06-0.19-0.08-0.32-0.07c-0.1 0-0.41 0.11-0.95 0.31c-0.63 0.24-1.11 0.44-1.41 0.6c0.04 0.11 0.06 0.18 0.08 0.22c0.19 0.5 0.36 0.91 0.5 1.24l0.51 1.37c0.06 0.16 0.16 0.25 0.3 0.26c0.21 0.02 0.75-0.14 1.63-0.47c0.58-0.22 1.06-0.46 1.44-0.7c0.26-0.17 0.45-0.41 0.58-0.71c0.18-0.39 0.26-0.88 0.26-1.46c0.13-0.06 0.23-0.11 0.31-0.14c0.05-0.02 0.12-0.04 0.21-0.07c0.03 0.11 0.05 0.2 0.07 0.28l0.03 0.2l0.22 1.28l0.16 0.76c-0.27 0.12-0.48 0.21-0.64 0.27c-0.24 0.09-0.87 0.31-1.91 0.66c-0.73 0.25-1.6 0.56-2.61 0.95c-0.5 0.19-1.12 0.45-1.84 0.78l-0.26 0.1l-0.75 0.32l-0.17-0.44c0.07-0.05 0.22-0.14 0.45-0.25c0.42-0.22 0.69-0.4 0.83-0.55c0-0.14-0.04-0.3-0.11-0.49c-0.03-0.07-0.08-0.19-0.15-0.36l-0.07-0.2l-0.93-2.37l-0.27-0.71l-0.42-1l-0.27-0.71l-0.36-0.76c-0.01-0.02-0.03-0.06-0.06-0.12c-0.06-0.03-0.13-0.04-0.22-0.02c-0.05 0.01-0.12 0.02-0.2 0.03c-0.26 0.04-0.5 0.1-0.73 0.18c-0.08 0.03-0.18 0.05-0.29 0.08l-0.16-0.52v-0.03zm12.27 4.18c0.13-0.07 0.32-0.14 0.56-0.22c0.25-0.09 0.39-0.13 0.43-0.14c0.17-0.04 0.28-0.09 0.33-0.15c0.01-0.11 0-0.2-0.01-0.27l-0.17-0.85l-0.12-0.87l-0.1-0.55l-0.11-0.65l-0.14-0.69l-0.24-1.49l-0.12-0.67l-0.02-0.09c-0.12-0.46-0.19-0.71-0.23-0.75c-0.04-0.04-0.17-0.08-0.41-0.11c-0.02 0-0.11-0.02-0.27-0.05c-0.12-0.02-0.22-0.04-0.32-0.04c-0.16-0.01-0.28-0.04-0.35-0.08c-0.03-0.11-0.05-0.2-0.06-0.26c-0.01-0.04-0.01-0.09-0.02-0.16c0.04-0.03 0.08-0.05 0.12-0.06c0.11-0.02 0.49-0.07 1.17-0.16l0.95-0.18l0.71-0.12c0.31-0.06 0.69-0.15 1.16-0.28c0.14-0.04 0.22-0.06 0.24-0.06c0.07-0.01 0.12 0 0.15 0.03c0.04 0.04 0.08 0.13 0.1 0.26c0.02 0.1 0.01 0.18-0.03 0.25c-0.02 0.04-0.11 0.08-0.28 0.13l-0.79 0.34c-0.02 0.01-0.05 0.04-0.1 0.07c-0.01 0.03-0.02 0.06-0.03 0.09l0.03 0.19l0.06 0.42l0.02 0.12l0.02 0.07c0 0.02 0.02 0.15 0.05 0.37c0.01 0.06 0.01 0.12 0.03 0.17c0.01 0.07 0.04 0.19 0.08 0.36c0.06 0.26 0.11 0.49 0.15 0.69c0.04 0.23 0.08 0.49 0.12 0.79c0.02 0.11 0.04 0.26 0.07 0.43l0.55 3.15c0.02 0.13 0.06 0.22 0.11 0.25l0.64-0.09l0.39-0.08l0.42-0.06c0.71-0.13 1.26-0.32 1.64-0.55c0.28-0.18 0.46-0.34 0.53-0.48c0.13-0.16 0.22-0.33 0.29-0.5c0.07-0.17 0.13-0.45 0.18-0.83l0.21-0.04c0.11-0.02 0.23-0.03 0.36-0.04l0.03 0.19c0.06 0.32 0.12 0.88 0.19 1.7c0.03 0.32 0.03 0.52 0.01 0.6c-0.1 0.04-0.16 0.06-0.19 0.06l-0.25 0.05l-0.34 0.07c-0.04 0.01-0.31 0.04-0.8 0.09c-0.09 0.01-0.52 0.07-1.28 0.19c-0.76 0.11-1.51 0.23-2.23 0.37l-1.35 0.29c-0.52 0.11-1 0.22-1.45 0.34l-0.1 0.02c-0.03 0-0.07 0.01-0.13 0.02c-0.02-0.05-0.03-0.09-0.04-0.12c-0.03-0.19-0.04-0.32-0.03-0.41l0.01-0.02zm8.78-1.54c0 0.01 0 0.01-0.01 0.02c0 0-0.01 0-0.01 0l0.02-0.02zm0.57-0.1c0.26-0.04 0.41-0.06 0.45-0.07c0.18-0.01 0.29-0.04 0.35-0.09c0.03-0.11 0.04-0.2 0.04-0.27l-0.02-0.86l0.03-0.88l-0.01-0.56v-0.66l-0.02-0.7l0.01-1.51v-0.77c-0.04-0.47-0.07-0.73-0.1-0.78c-0.03-0.05-0.16-0.11-0.39-0.18c-0.02-0.01-0.11-0.04-0.26-0.1c-0.11-0.04-0.21-0.07-0.3-0.09c-0.16-0.04-0.27-0.09-0.33-0.14c-0.01-0.12-0.02-0.21-0.02-0.27c0-0.04 0-0.09 0.01-0.16c0.04-0.02 0.08-0.03 0.13-0.04c0.11 0 0.5 0.01 1.18 0.04l0.97-0.02l0.72 0.01c0.31 0 0.71-0.03 1.19-0.07c0.14-0.01 0.23-0.02 0.25-0.02c0.07 0 0.11 0.02 0.14 0.05c0.04 0.05 0.06 0.14 0.06 0.27c0 0.1-0.02 0.18-0.07 0.24c-0.03 0.03-0.13 0.06-0.3 0.08l-0.84 0.2c-0.02 0.01-0.06 0.03-0.11 0.06c-0.02 0.03-0.03 0.06-0.04 0.08v0.19l-0.02 0.43v0.12l0.01 0.07c0 0.02-0.01 0.15-0.02 0.37c0 0.06-0.01 0.12-0.01 0.18c0 0.07 0.01 0.19 0.02 0.36c0.02 0.27 0.03 0.51 0.03 0.71c0 0.23 0 0.5-0.01 0.8c0 0.11 0 3.46 0 3.64c0 0.14 0.02 0.22 0.07 0.26l0.64 0.02l0.4-0.01l0.43 0.01c0.72-0.01 1.29-0.1 1.71-0.27c0.31-0.13 0.51-0.26 0.6-0.38c0.15-0.14 0.27-0.28 0.37-0.44c0.1-0.16 0.21-0.42 0.32-0.79h0.22c0.11 0 0.23 0.01 0.36 0.02v0.19c0 0.32-0.03 0.89-0.1 1.7c-0.03 0.32-0.06 0.52-0.09 0.6c-0.1 0.02-0.17 0.03-0.2 0.03h-0.25l-0.35 0.01c-0.04 0-0.31-0.01-0.8-0.05c-0.09 0-0.52-0.02-1.29-0.03c-0.77-0.02-1.52-0.03-2.26-0.02l-1.38 0.05c-0.53 0.02-1.03 0.05-1.49 0.09h-0.1c-0.03 0-0.07 0-0.13-0.01c-0.01-0.05-0.01-0.09-0.01-0.13c0-0.18 0.01-0.31 0.03-0.39c0.14-0.04 0.32-0.08 0.58-0.12zm7.73 0.6l0.08-0.45c0.09-0.01 0.24-0.03 0.46-0.04c0.35-0.02 0.57-0.05 0.65-0.09c0.08-0.04 0.19-0.16 0.33-0.35l1.85-3.35l2.17-3.94c0.15 0.03 0.29 0.05 0.42 0.07l0.3 0.04l0.04 0.13l0.78 2.92c0.18 0.62 0.34 1.22 0.47 1.8c0.13 0.58 0.25 1.05 0.35 1.42c0.06 0.22 0.14 0.55 0.24 0.99c0.05 0.24 0.13 0.54 0.25 0.91c0.06 0.2 0.11 0.32 0.15 0.36c0.07 0.08 0.19 0.14 0.37 0.19c0.18 0.05 0.37 0.13 0.57 0.24c0 0.15 0 0.26-0.01 0.33c0 0.03-0.01 0.08-0.03 0.15c-0.33-0.05-0.69-0.11-1.08-0.2c-0.39-0.09-0.75-0.15-1.06-0.2c-0.35-0.05-0.61-0.08-0.76-0.09l-1.15-0.1l-0.33-0.03c0.02-0.16 0.05-0.3 0.08-0.45l0.76-0.06c0.23-0.03 0.37-0.05 0.41-0.08c0.05-0.04 0.08-0.09 0.09-0.14c0.01-0.06 0.01-0.12-0.01-0.19l-0.18-0.69l-0.34-1.38l-2.55-0.36c-0.12 0.2-0.39 0.7-0.8 1.49c-0.12 0.22-0.18 0.38-0.19 0.46c-0.02 0.12 0 0.2 0.06 0.26c0.09 0.1 0.28 0.19 0.56 0.26c0.04 0.01 0.19 0.06 0.46 0.14c-0.02 0.16-0.03 0.27-0.04 0.34c-0.01 0.05-0.02 0.1-0.03 0.15c-0.28-0.04-0.93-0.17-1.96-0.39l-0.28 0.01c-0.34 0.01-0.66-0.01-0.95-0.05l-0.12-0.02l-0.03-0.01zm3.67-3.31l0.01-0.01c0 0 0 0-0.01 0v0.01zm1.84 0.27l0.17 0.02c-0.08-0.42-0.19-0.9-0.33-1.46c-0.14-0.56-0.26-0.99-0.35-1.28l-1.32 2.44c1.04 0.16 1.66 0.25 1.83 0.28zm17.37-0.83c0 0-0.01 0-0.01-0.01c0 0 0 0 0 0l0.01 0.01zm0.02 1.2c0 0.3-0.04 0.61-0.13 0.92l-0.59-0.17c-0.25-0.71-0.56-1.25-0.93-1.63c-0.37-0.39-0.82-0.66-1.37-0.81c-0.67-0.19-1.29-0.08-1.85 0.32c-0.76 0.55-1.32 1.46-1.68 2.73c-0.21 0.74-0.31 1.27-0.3 1.61c0.01 0.55 0.09 1.02 0.24 1.41c0.11 0.29 0.3 0.55 0.55 0.78c0.33 0.3 0.7 0.52 1.14 0.64c0.48 0.14 0.98 0.12 1.5-0.05c0.53-0.17 1.08-0.49 1.66-0.97c0.17 0.02 0.38 0.06 0.64 0.13c-0.06 0.16-0.14 0.32-0.23 0.49c-0.03 0.07-0.16 0.33-0.38 0.78l-0.11 0.18l-0.18 0.28c-0.32 0.13-0.74 0.18-1.25 0.14c-0.5-0.04-1.11-0.15-1.8-0.35c-0.53-0.15-1.02-0.34-1.47-0.58c-0.44-0.23-0.8-0.51-1.08-0.82c-0.4-0.45-0.7-0.9-0.87-1.34c-0.18-0.44-0.28-0.9-0.29-1.37c-0.01-0.47 0.06-0.97 0.21-1.5c0.37-1.29 1.09-2.23 2.18-2.83c1.09-0.6 2.3-0.71 3.62-0.33c0.54 0.15 1.03 0.32 1.49 0.52c0.46 0.19 0.87 0.39 1.25 0.61c0.02 0.15 0.03 0.55 0.03 1.21zm-0.89 7c0.15 0 0.34 0.03 0.59 0.07c0.26 0.04 0.41 0.07 0.45 0.08c0.17 0.05 0.29 0.06 0.36 0.02c0.06-0.09 0.1-0.18 0.12-0.25l0.25-0.83l0.3-0.82l0.17-0.53l0.21-0.63l0.2-0.67l0.48-1.43l0.21-0.65l0.03-0.09c0.11-0.46 0.16-0.72 0.14-0.77c-0.01-0.06-0.11-0.15-0.31-0.29c-0.02-0.02-0.09-0.07-0.21-0.17c-0.09-0.08-0.18-0.14-0.26-0.18c-0.14-0.09-0.23-0.16-0.27-0.24c0.03-0.11 0.05-0.2 0.07-0.26c0.01-0.03 0.03-0.09 0.06-0.15c0.05-0.01 0.09-0.01 0.13 0.01c0.1 0.03 0.47 0.17 1.1 0.41l0.92 0.29l0.68 0.23c0.3 0.09 0.68 0.2 1.16 0.3c0.14 0.03 0.22 0.05 0.24 0.06c0.06 0.02 0.1 0.05 0.12 0.09c0.02 0.06 0.01 0.15-0.03 0.27c-0.03 0.1-0.08 0.17-0.14 0.2c-0.04 0.02-0.14 0.02-0.31-0.01l-0.86-0.07c-0.02 0-0.07 0.01-0.13 0.02c-0.03 0.02-0.05 0.05-0.06 0.06l-0.06 0.18l-0.15 0.4l-0.04 0.12l-0.02 0.07c-0.01 0.02-0.05 0.14-0.13 0.35c-0.02 0.05-0.04 0.11-0.06 0.17c-0.02 0.07-0.05 0.19-0.1 0.35c-0.07 0.26-0.13 0.49-0.2 0.68c-0.07 0.22-0.16 0.48-0.26 0.76c-0.04 0.11-0.08 0.24-0.14 0.42l-0.99 3.04c-0.04 0.13-0.05 0.22-0.02 0.27l0.6 0.22l0.38 0.11l0.4 0.14c0.69 0.22 1.26 0.31 1.7 0.28c0.33-0.03 0.57-0.09 0.69-0.18c0.19-0.08 0.35-0.18 0.49-0.31c0.14-0.12 0.33-0.34 0.55-0.65l0.21 0.07c0.1 0.03 0.22 0.08 0.34 0.14l-0.06 0.18c-0.1 0.31-0.31 0.84-0.63 1.59c0 0.01-0.01 0.02-0.01 0.02c0.09 0 0.24 0.02 0.45 0.05c0.35 0.05 0.57 0.06 0.65 0.04c0.09-0.03 0.22-0.12 0.39-0.28l2.47-2.92l2.9-3.44c0.14 0.05 0.27 0.1 0.4 0.15l0.29 0.1l0.02 0.13l0.19 3.01c0.06 0.64 0.09 1.26 0.11 1.86c0.02 0.59 0.04 1.08 0.07 1.46c0.02 0.23 0.03 0.57 0.04 1.02c0 0.24 0.02 0.56 0.07 0.94c0.02 0.21 0.05 0.33 0.08 0.38c0.05 0.09 0.16 0.18 0.33 0.26c0.17 0.08 0.34 0.2 0.51 0.34c-0.03 0.15-0.05 0.26-0.08 0.32c-0.01 0.03-0.03 0.08-0.06 0.14c-0.31-0.11-0.66-0.25-1.02-0.41c-0.37-0.16-0.7-0.3-1-0.4c-0.34-0.12-0.58-0.2-0.73-0.24l-1.1-0.32l-0.32-0.1c0.05-0.15 0.11-0.29 0.17-0.42l0.76 0.09c0.23 0.02 0.37 0.02 0.41 0c0.06-0.03 0.1-0.07 0.11-0.12c0.02-0.06 0.03-0.12 0.03-0.18l-0.04-0.71l-0.07-1.43l-2.43-0.86c-0.16 0.17-0.52 0.61-1.08 1.3c-0.16 0.2-0.25 0.34-0.28 0.42c-0.04 0.11-0.04 0.2 0.01 0.27c0.07 0.11 0.24 0.24 0.5 0.37c0.04 0.02 0.18 0.1 0.43 0.23c-0.05 0.15-0.08 0.26-0.1 0.32c-0.02 0.05-0.04 0.09-0.06 0.14c-0.26-0.09-0.88-0.35-1.85-0.77l-0.28-0.05c-0.33-0.06-0.64-0.14-0.93-0.24l-0.11-0.04l0.12-0.3c-0.09 0.21-0.16 0.34-0.2 0.39c-0.1-0.01-0.17-0.03-0.19-0.03l-0.24-0.08l-0.34-0.1c-0.04-0.01-0.29-0.11-0.75-0.29c-0.08-0.03-0.49-0.18-1.21-0.44c-0.73-0.26-1.44-0.5-2.14-0.72l-1.33-0.38c-0.51-0.15-0.99-0.27-1.44-0.38l-0.1-0.03c-0.03-0.01-0.07-0.02-0.12-0.05c0.01-0.05 0.02-0.09 0.03-0.13c0.06-0.18 0.11-0.31 0.17-0.38l-0.01 0.02zm13.76 1.01l0.16 0.05c0-0.42-0.01-0.92-0.04-1.49c-0.03-0.58-0.06-1.02-0.09-1.33l-1.78 2.14c0.99 0.36 1.57 0.57 1.75 0.63zm5.69-2.61l0.22-0.54c0.21 0.09 0.34 0.15 0.39 0.17c0.49 0.27 1.15 0.57 1.98 0.92c0.12 0.05 0.38 0.14 0.78 0.28c0.28 0.09 0.5 0.16 0.64 0.19l0.46 0.19c-0.12 0.31-0.18 0.48-0.2 0.52c-0.44-0.12-0.7-0.18-0.77-0.19c-0.2-0.03-0.37-0.01-0.49 0.03c-0.06 0.03-0.11 0.07-0.14 0.13c-0.02 0.05-0.03 0.09-0.04 0.14l-0.02 0.63c-0.03 0.48-0.02 1.16 0.01 2.03l0.05 1.9c0.01 0.37 0.01 0.72 0.01 1.04l0.73-0.74l1.59-1.75l0.35-0.37c0.05-0.05 0.11-0.13 0.19-0.23c0.26-0.33 0.47-0.57 0.62-0.73c0.15-0.16 0.26-0.3 0.31-0.42c0.03-0.08 0.02-0.16-0.03-0.25c-0.08-0.14-0.26-0.28-0.52-0.42c-0.05-0.04-0.12-0.08-0.22-0.13c-0.09-0.05-0.17-0.1-0.24-0.15c0.01-0.09 0.02-0.16 0.04-0.2c0.02-0.05 0.07-0.15 0.14-0.28c0.07 0.03 0.28 0.14 0.62 0.31c0.34 0.18 0.68 0.34 1.02 0.48c0.35 0.14 0.65 0.25 0.9 0.32c0.26 0.07 0.47 0.13 0.62 0.19l-0.08 0.2c-0.02 0.05-0.05 0.12-0.1 0.22c-0.62-0.03-0.99-0.02-1.11 0.01c-0.08 0.02-0.16 0.06-0.25 0.14c-0.27 0.21-0.75 0.68-1.42 1.39l-1.65 1.74c-0.16 0.17-0.33 0.35-0.51 0.53c-0.18 0.18-0.37 0.39-0.58 0.61c-0.05 0.05-0.25 0.26-0.6 0.63l-0.11 0.09c-0.42 0.51-0.73 0.86-0.91 1.05c-0.17-0.06-0.28-0.1-0.32-0.12c-0.08-0.03-0.19-0.08-0.33-0.15c0.01-0.14 0.01-0.29 0.02-0.44c0.01-0.15 0.02-0.67 0.03-1.57l-0.09-3.13v-2c-0.04-0.92-0.07-1.42-0.08-1.49c-0.03-0.13-0.08-0.24-0.14-0.32c-0.07-0.08-0.24-0.19-0.5-0.33l-0.26-0.14l-0.01 0.01zm6.03 11.41l0.17-0.45c0.09 0.01 0.25 0.02 0.46 0.05c0.3 0.04 0.53 0.05 0.69 0.03c0.13-0.1 0.23-0.27 0.32-0.5l0.28-0.75l0.57-1.43l0.12-0.34c0.35-0.82 0.53-1.24 0.54-1.27l0.31-0.84l0.15-0.33l0.25-0.73l0.1-0.27c0.01-0.04 0.02-0.12 0.03-0.22c-0.14-0.15-0.4-0.3-0.78-0.47c-0.09-0.04-0.16-0.07-0.21-0.1l0.19-0.56l1.77 0.77c0.22 0.09 0.36 0.15 0.41 0.17c0.25 0.1 0.65 0.23 1.21 0.41c0.31 0.1 0.51 0.16 0.59 0.19c-0.03 0.08-0.05 0.15-0.07 0.2c-0.03 0.07-0.07 0.16-0.12 0.27c-0.19-0.01-0.41-0.02-0.65-0.05c-0.23-0.03-0.43-0.05-0.59-0.05c-0.07 0.1-0.14 0.25-0.22 0.46c-0.07 0.18-0.12 0.33-0.15 0.45c-0.29 0.7-0.5 1.25-0.65 1.63l-0.64 1.67l-0.34 0.84l-0.47 1.26l-0.1 0.24c-0.01 0.03-0.02 0.09-0.03 0.15c0.24 0.15 0.45 0.28 0.66 0.38c0.04 0.02 0.16 0.08 0.36 0.2c-0.03 0.13-0.06 0.24-0.1 0.32c-0.02 0.05-0.05 0.12-0.09 0.21c-0.05-0.02-0.1-0.04-0.13-0.04c-0.14-0.04-0.22-0.07-0.24-0.08c-0.03-0.01-0.08-0.04-0.16-0.08c-0.06-0.03-0.32-0.17-0.8-0.41l-1.11-0.44c-0.22-0.09-0.55-0.19-0.99-0.31c-0.29-0.08-0.47-0.14-0.56-0.16l0.02-0.02zm12.54-4.67c0 0.16-0.03 0.39-0.09 0.7c-0.08 0.46-0.16 0.81-0.24 1.06c-0.02 0.08-0.06 0.16-0.1 0.24h-0.07l-0.45-0.18l-0.07-0.04c-0.01-0.63-0.09-1.07-0.21-1.33c-0.22-0.44-0.55-0.74-1-0.87c-0.42-0.13-0.79-0.12-1.11 0.03c-0.31 0.14-0.52 0.38-0.62 0.71c-0.08 0.28-0.04 0.58 0.12 0.91c0.16 0.33 0.6 0.73 1.31 1.2c0.24 0.16 0.52 0.38 0.83 0.67c0.32 0.29 0.55 0.56 0.68 0.82c0.18 0.35 0.27 0.66 0.29 0.94c0.02 0.28-0.02 0.6-0.14 0.97c-0.12 0.4-0.32 0.78-0.59 1.12c-0.15 0.18-0.34 0.34-0.57 0.47c-0.17 0.09-0.42 0.18-0.74 0.27c-0.32 0.09-0.64 0.13-0.96 0.11c-0.31-0.01-0.7-0.09-1.15-0.23c-0.3-0.09-0.65-0.25-1.04-0.46l-0.71-0.46c-0.2-0.13-0.32-0.22-0.36-0.29c-0.02-0.02-0.02-0.07-0.02-0.14l0.02-0.07c0.01-0.05 0.09-0.35 0.24-0.89c0.08-0.28 0.13-0.48 0.17-0.6l0.08-0.25l0.6 0.17c0.06 0.54 0.1 0.87 0.13 0.99c0.07 0.26 0.16 0.48 0.27 0.67c0.12 0.18 0.28 0.35 0.48 0.5c0.2 0.15 0.43 0.26 0.69 0.34c0.23 0.07 0.5 0.1 0.81 0.09c0.31-0.01 0.58-0.11 0.82-0.28c0.24-0.18 0.4-0.39 0.48-0.65c0.1-0.32 0.04-0.66-0.17-1.02c-0.13-0.22-0.55-0.6-1.25-1.12c-0.71-0.52-1.18-0.94-1.42-1.25c-0.24-0.31-0.39-0.68-0.45-1.1c-0.06-0.42-0.04-0.81 0.06-1.15c0.21-0.68 0.63-1.19 1.27-1.52c0.64-0.33 1.43-0.34 2.39-0.05c0.21 0.06 0.5 0.19 0.88 0.39c0.23 0.12 0.53 0.31 0.89 0.57l0.02 0.01zm5.89 9.68c0.19 0.16 0.33 0.29 0.42 0.39c0.57 0.61 1.09 1.07 1.55 1.4c0.19 0.14 0.5 0.27 0.9 0.41c-0.02 0.18-0.03 0.32-0.05 0.42c-0.01 0.09-0.03 0.18-0.05 0.27c-0.11 0-0.24-0.01-0.36-0.02c-0.63-0.09-1.16-0.21-1.58-0.37c-0.3-0.11-0.7-0.32-1.21-0.63c-0.5-0.31-1.15-0.8-1.95-1.48c-0.38-0.32-0.72-0.58-1.02-0.76c-0.65-0.39-1.17-0.82-1.57-1.27c-0.4-0.46-0.69-0.98-0.88-1.57c-0.19-0.6-0.24-1.22-0.14-1.88c0.12-0.83 0.43-1.58 0.93-2.25c0.5-0.67 1.22-1.18 2.17-1.51c0.64-0.22 1.42-0.27 2.34-0.14c0.73 0.1 1.32 0.28 1.79 0.53c0.47 0.24 0.86 0.54 1.18 0.88c0.32 0.35 0.58 0.72 0.77 1.11c0.19 0.39 0.33 0.81 0.41 1.26c0.08 0.45 0.09 0.91 0.02 1.39c-0.08 0.55-0.24 1.05-0.49 1.51c-0.25 0.46-0.55 0.85-0.89 1.16c-0.34 0.31-0.72 0.58-1.15 0.79c-0.26 0.12-0.63 0.24-1.13 0.35l-0.01 0.01zm-1.63-0.59c0.33 0.05 0.71 0 1.15-0.15c0.45-0.15 0.86-0.49 1.22-1.01c0.37-0.53 0.63-1.3 0.77-2.3c0.11-0.76 0.12-1.39 0.02-1.89c-0.09-0.5-0.21-0.9-0.37-1.18c-0.16-0.29-0.38-0.54-0.66-0.75c-0.37-0.27-0.76-0.44-1.18-0.5c-0.38-0.05-0.7-0.04-0.96 0.05c-0.42 0.15-0.75 0.35-1 0.6c-0.35 0.36-0.61 0.8-0.78 1.32c-0.16 0.51-0.28 1.01-0.35 1.48c-0.07 0.53-0.1 1.07-0.07 1.63c0.03 0.56 0.12 1.02 0.28 1.37c0.16 0.36 0.41 0.65 0.73 0.89c0.33 0.24 0.72 0.39 1.19 0.46l0.01-0.02zm4.94-6.99c0.02 0 0.04 0 0.06 0.01l0 0.01l-0.06-0.02zm0-0.51c0.08-0.01 0.16-0.02 0.25-0.03c0.22-0.02 0.46-0.03 0.71-0.03c0.59-0.01 0.94-0.02 1.05-0.03c0.36-0.03 0.71-0.06 1.05-0.1c0.34-0.04 0.65-0.08 0.91-0.1c0.27-0.02 0.45-0.04 0.54-0.05v0.08l0.04 0.4v0.05c-0.25 0.05-0.51 0.09-0.78 0.11c-0.25 0.02-0.41 0.08-0.49 0.19c-0.05 0.07-0.06 0.34-0.02 0.81c0.01 0.14 0.02 0.26 0.03 0.35l0.02 0.24l0.03 0.63l0.08 0.54l0.06 1.17l0.21 1.68c0.06 0.49 0.2 0.89 0.41 1.19c0.16 0.23 0.38 0.4 0.65 0.51c0.39 0.16 0.77 0.23 1.13 0.2c0.43-0.03 0.83-0.12 1.19-0.26c0.22-0.08 0.41-0.2 0.6-0.35c0.19-0.16 0.31-0.3 0.38-0.42c0.14-0.26 0.24-0.5 0.28-0.72c0.06-0.3 0.07-0.77 0.02-1.39c-0.08-1.09-0.23-2.31-0.45-3.66l-0.05-0.35c-0.03-0.26-0.1-0.44-0.19-0.52c-0.15-0.13-0.32-0.19-0.5-0.17l-0.63 0.06l-0.09-0.01l-0.02-0.51l0.53-0.04l1.29-0.04c0.21-0.02 0.41-0.04 0.6-0.06l-0.01-0.04c0.25-0.05 0.47-0.09 0.66-0.12c0.36-0.05 0.76-0.13 1.21-0.25c0.16-0.04 0.55-0.16 1.2-0.37c0.96-0.3 1.83-0.56 2.61-0.77l1.18-0.33c0.27-0.07 0.66-0.15 1.2-0.22c0.1 0.07 0.17 0.17 0.21 0.32l0.36 1.34l0.09 0.26c0.01 0.03 0.02 0.07 0.03 0.12l-0.26 0.09c-0.03 0.01-0.11 0.03-0.23 0.05c-0.06-0.08-0.15-0.19-0.26-0.34l-0.39-0.39c-0.15-0.17-0.35-0.33-0.58-0.49c-0.12 0-0.26 0.02-0.43 0.06c-0.04 0.01-0.18 0.03-0.41 0.08c-0.41 0.07-0.85 0.18-1.32 0.3c-0.53 0.14-1 0.28-1.41 0.41c0.02 0.11 0.13 0.54 0.33 1.29l0.31 1.09l0.22 0.82c0.11-0.02 0.21-0.04 0.29-0.06c0.78-0.21 1.33-0.38 1.65-0.5c0.32-0.12 0.51-0.22 0.58-0.29c0.06-0.08 0.11-0.19 0.13-0.34c0.01-0.11 0-0.45-0.03-1.02l0.08-0.03l0.38-0.1c0.12 0.38 0.21 0.67 0.26 0.87c0.12 0.46 0.2 0.75 0.23 0.88c0.03 0.13 0.06 0.23 0.08 0.31c0.03 0.12 0.09 0.3 0.17 0.56c0.08 0.25 0.14 0.44 0.18 0.57l0.04 0.14l-0.46 0.13c-0.04-0.06-0.11-0.2-0.21-0.4c-0.2-0.38-0.34-0.61-0.44-0.69c-0.07-0.06-0.18-0.1-0.31-0.11c-0.1-0.01-0.42 0.07-0.98 0.22c-0.66 0.18-1.14 0.33-1.47 0.45c0.03 0.11 0.04 0.19 0.05 0.22c0.14 0.52 0.27 0.94 0.38 1.28l0.37 1.41c0.04 0.17 0.13 0.26 0.27 0.29c0.2 0.04 0.76-0.06 1.67-0.31c0.6-0.16 1.1-0.35 1.5-0.55c0.27-0.14 0.49-0.36 0.65-0.65c0.22-0.37 0.35-0.85 0.4-1.42c0.13-0.05 0.24-0.09 0.33-0.11c0.05-0.01 0.12-0.03 0.22-0.05c0.02 0.11 0.03 0.21 0.04 0.28l0.01 0.21l0.09 1.3l0.08 0.77c-0.28 0.09-0.5 0.16-0.67 0.2c-0.24 0.07-0.9 0.22-1.97 0.46c-0.75 0.17-1.65 0.4-2.7 0.68c-0.52 0.14-1.16 0.34-1.9 0.59l-0.27 0.07l-0.78 0.24l-0.12-0.45c0.08-0.04 0.24-0.11 0.48-0.21c0.44-0.17 0.73-0.33 0.88-0.46c0.01-0.14-0.01-0.3-0.06-0.5c-0.02-0.07-0.06-0.2-0.11-0.38l-0.05-0.2l-0.69-2.45l-0.19-0.74l-0.32-1.03l-0.19-0.74l-0.28-0.79c-0.01-0.02-0.02-0.06-0.05-0.13c-0.06-0.04-0.13-0.05-0.22-0.04c-0.05 0-0.12 0.01-0.21 0.01c-0.12 0.01-0.23 0.02-0.34 0.03c0 0.01 0 0.03-0.01 0.04c-0.16 0.06-0.34 0.1-0.52 0.13c-0.3 0.06-0.46 0.11-0.49 0.14c-0.06 0.06-0.08 0.14-0.08 0.26c0.01 0.08 0.02 0.2 0.05 0.35c0.02 0.11 0.04 0.31 0.06 0.58c0.01 0.16 0.02 0.28 0.03 0.37c0.01 0.09 0.02 0.18 0.03 0.28c0.04 0.32 0.07 0.65 0.11 0.98l0.17 1.36c0.07 0.92 0.08 1.53 0.04 1.85c-0.04 0.31-0.11 0.57-0.2 0.75c-0.15 0.28-0.36 0.55-0.65 0.8c-0.29 0.25-0.66 0.46-1.1 0.62c-0.45 0.16-0.98 0.27-1.59 0.32c-0.7 0.05-1.3 0-1.81-0.14c-0.51-0.15-0.91-0.37-1.19-0.65c-0.27-0.29-0.48-0.67-0.61-1.15c-0.09-0.33-0.16-0.8-0.21-1.42l-0.23-3.21c-0.06-0.76-0.12-1.18-0.2-1.28c-0.11-0.13-0.42-0.19-0.94-0.17c-0.08 0.01-0.16 0.01-0.22 0.01l-0.06-0.52zm23.78 3.77c0 0 0 0 0.01 0l0 0.01l-0.01-0.01zm-0.14-0.42c0.49-0.28 0.78-0.52 0.86-0.72c0.05-0.14 0.02-0.43-0.11-0.87l-0.83-2.26l-0.83-2.3c-0.05-0.14-0.08-0.23-0.09-0.26c-0.24-0.59-0.41-0.91-0.52-0.98c-0.1-0.06-0.41-0.05-0.91 0.06c-0.13 0.02-0.23 0.04-0.3 0.05c-0.05-0.1-0.09-0.19-0.12-0.26l-0.08-0.19c0.15-0.08 0.33-0.16 0.54-0.24l1.86-0.68c0.04-0.01 0.1-0.03 0.18-0.06l0.29-0.1c0.1 0.05 0.22 0.14 0.35 0.24c0.28 0.24 0.66 0.6 1.16 1.09l0.14 0.14l1.84 1.72c0.04 0.04 0.1 0.1 0.19 0.18c0.12 0.12 0.25 0.24 0.37 0.35c0.12 0.11 0.25 0.23 0.39 0.36c0.14 0.13 0.27 0.25 0.39 0.34c0.02-0.12 0.03-0.26 0.03-0.4c0.01-0.45 0.03-0.87 0.06-1.26c0.04-0.68 0.06-1.7 0.06-3.06c0-0.22 0.01-0.55 0.02-0.99c0.02-0.45 0.03-0.69 0.04-0.72c0.02-0.05 0.09-0.1 0.2-0.14c0.04-0.02 0.11-0.05 0.19-0.09c0.21-0.1 0.47-0.22 0.77-0.35c0.44-0.18 0.78-0.34 1.03-0.47c0.26-0.13 0.4-0.21 0.43-0.22c0.04-0.02 0.09-0.03 0.16-0.05c0.03 0.06 0.05 0.1 0.06 0.13l0.06 0.19c0.02 0.04 0.04 0.09 0.06 0.17c-0.37 0.22-0.65 0.44-0.85 0.65c-0.14 0.15-0.18 0.29-0.13 0.42l0.04 0.09l0.89 1.87c0.08 0.17 0.47 1.03 1.16 2.57c0.16 0.35 0.36 0.78 0.62 1.3c0.04 0.06 0.06 0.11 0.08 0.15c0.04 0.1 0.09 0.15 0.14 0.17c0.05 0.01 0.48-0.02 1.27-0.1c0.03 0.07 0.05 0.11 0.07 0.15c0.04 0.09 0.07 0.18 0.1 0.27c-0.11 0.05-0.41 0.14-0.88 0.28c-0.47 0.14-0.91 0.28-1.31 0.45c-0.6 0.25-1.18 0.51-1.73 0.79c-0.07 0.04-0.14 0.07-0.21 0.11l-0.16-0.44c0.14-0.14 0.35-0.29 0.61-0.45c0.19-0.11 0.29-0.22 0.31-0.32c0.02-0.1-0.04-0.33-0.19-0.7c-0.06-0.14-0.11-0.26-0.15-0.36c-0.2-0.43-0.46-1.03-0.78-1.81l-1.01-2.16c-0.14-0.31-0.24-0.52-0.31-0.63l-0.1 4.21c0 0.1-0.01 0.24-0.02 0.43c-0.01 0.24-0.02 0.41-0.02 0.5c-0.01 0.9 0.01 1.58 0.05 2.04c0.01 0.12 0.01 0.27 0.02 0.47l-0.48 0.19l-0.73-0.82c-0.2-0.21-0.53-0.52-0.98-0.93c-0.26-0.24-0.47-0.43-0.62-0.58c-0.07-0.06-0.12-0.1-0.15-0.14l-0.14-0.13c-0.01-0.02-0.03-0.04-0.04-0.05l-1.75-1.63l-1.07-0.99l1.16 2.98l0.74 1.94c0.13 0.32 0.28 0.52 0.45 0.61c0.18 0.08 0.48 0.09 0.91 0.03l0.33-0.05l0.19 0.46c-0.24 0.09-0.51 0.18-0.8 0.27c-0.29 0.08-0.66 0.21-1.12 0.4c-0.1 0.04-0.5 0.23-1.2 0.56l-0.15-0.42zm11.42-4.3l-0.14-0.44c0.07-0.05 0.2-0.13 0.4-0.24c0.31-0.18 0.48-0.3 0.53-0.38c0.05-0.08 0.1-0.23 0.13-0.46l0.13-3.82l0.15-4.49c0.14-0.04 0.28-0.09 0.4-0.13l0.29-0.1l0.1 0.1l2.01 2.25c0.44 0.47 0.85 0.94 1.24 1.4c0.38 0.46 0.7 0.82 0.96 1.11c0.15 0.17 0.37 0.43 0.66 0.78c0.15 0.19 0.36 0.42 0.63 0.7c0.15 0.15 0.25 0.23 0.3 0.25c0.1 0.04 0.24 0.04 0.41 0c0.18-0.04 0.39-0.05 0.61-0.05c0.07 0.13 0.12 0.23 0.14 0.3c0.01 0.03 0.02 0.08 0.04 0.14c-0.32 0.11-0.67 0.21-1.06 0.31c-0.39 0.1-0.73 0.2-1.04 0.31c-0.34 0.12-0.58 0.2-0.72 0.26l-1.07 0.43l-0.31 0.12c-0.05-0.15-0.09-0.29-0.13-0.43l0.66-0.4c0.19-0.13 0.3-0.21 0.33-0.25c0.03-0.06 0.03-0.11 0.01-0.17c-0.02-0.06-0.05-0.11-0.09-0.16l-0.47-0.54l-0.93-1.08l-2.44 0.83c-0.02 0.24-0.03 0.8-0.04 1.69c0 0.25 0.01 0.42 0.04 0.5c0.04 0.11 0.09 0.18 0.17 0.21c0.13 0.05 0.33 0.04 0.62-0.02c0.04 0 0.2-0.03 0.48-0.09c0.06 0.15 0.1 0.26 0.12 0.32c0.02 0.05 0.03 0.1 0.04 0.15c-0.26 0.09-0.91 0.27-1.93 0.54l-0.25 0.13c-0.3 0.16-0.59 0.29-0.87 0.39l-0.11 0.04l0-0.01zm1.77-4.62c1-0.33 1.59-0.52 1.77-0.59l0.16-0.06c-0.26-0.34-0.58-0.72-0.95-1.15c-0.38-0.44-0.68-0.76-0.89-0.99l-0.08 2.78l-0.01 0.01zm7.41 1.16c0.09-0.1 0.24-0.19 0.45-0.29c0.21-0.1 0.39-0.21 0.55-0.33c-0.01-0.09-0.01-0.16-0.02-0.2c-0.01-0.06-0.07-0.27-0.18-0.62l-0.46-1.43l-0.22-0.78l-0.2-0.59l-0.1-0.35c-0.14-0.47-0.27-0.91-0.4-1.32c-0.28-0.89-0.47-1.46-0.58-1.7l-0.4 0.04c-0.35 0.09-0.59 0.14-0.72 0.16l-0.14-0.38v-0.08c0.2-0.1 0.4-0.18 0.58-0.24c0.1-0.03 0.3-0.1 0.6-0.2c0.32-0.07 0.49-0.11 0.51-0.12l0.34-0.13l0.79-0.29c0.49-0.21 1.01-0.4 1.57-0.58c0.88-0.28 1.65-0.28 2.31 0.01c0.66 0.28 1.08 0.71 1.27 1.29c0.14 0.43 0.12 0.87-0.05 1.32c-0.17 0.44-0.51 0.84-1.04 1.21c0.08 0.07 0.18 0.16 0.31 0.25c0.26 0.2 0.48 0.37 0.65 0.52l1.56 1.34c0.4 0.36 0.65 0.57 0.75 0.62c0.1 0.05 0.3 0.08 0.57 0.09c0.22 0.01 0.39 0.04 0.51 0.08c0.05 0.06 0.08 0.13 0.1 0.18c0.01 0.04 0.03 0.09 0.04 0.15l-0.17 0.06l-0.13 0.05l-0.35 0.06l-0.26 0.08c-0.14 0.02-0.32 0.07-0.52 0.13l-0.65 0.2c-0.05 0.01-0.19 0.08-0.44 0.19c-0.11 0.05-0.2 0.09-0.27 0.12l-0.35-0.36c-0.28-0.26-0.49-0.46-0.61-0.6c-0.32-0.36-0.85-0.92-1.6-1.68c-0.35-0.35-0.57-0.54-0.68-0.57c-0.16-0.05-0.39-0.02-0.71 0.08c-0.09 0.03-0.23 0.08-0.43 0.15c0.03 0.13 0.07 0.28 0.12 0.45l0.48 1.42l0.35 1.22c0.14 0.03 0.32 0.04 0.52 0.02c0.36-0.04 0.67-0.05 0.94-0.03c0.07 0.21 0.11 0.37 0.13 0.48c-0.08 0.02-0.14 0.04-0.16 0.04l-0.26 0.1c-0.95 0.21-1.51 0.34-1.68 0.4c-0.11 0.04-0.19 0.06-0.24 0.08l-0.87 0.34c-0.26 0.12-0.5 0.21-0.73 0.28l-0.28 0.09c-0.04-0.1-0.07-0.17-0.08-0.2c-0.01-0.05-0.03-0.12-0.04-0.21l0.02-0.02zm1.58-5.08c0.21-0.06 0.36-0.1 0.45-0.13c0.73-0.23 1.2-0.53 1.43-0.88c0.22-0.36 0.26-0.76 0.12-1.19c-0.09-0.27-0.2-0.51-0.36-0.72c-0.15-0.22-0.3-0.37-0.45-0.45c-0.21-0.12-0.46-0.18-0.74-0.18c-0.21 0-0.52 0.06-0.94 0.19c-0.2 0.06-0.36 0.13-0.5 0.19l0.03 0.12l0.28 0.87l0.15 0.53l0.23 0.7c0.05 0.2 0.13 0.46 0.22 0.77l0.06 0.18l0.02 0zm7.73 2.55c0 0 0 0 0.01 0l0 0.01l-0.01-0.01zm-0.13-0.46c0.08-0.05 0.21-0.13 0.4-0.23c0.26-0.15 0.45-0.28 0.57-0.4c0.04-0.16 0.02-0.35-0.04-0.59l-0.23-0.76l-0.42-1.48l-0.11-0.35c-0.22-0.86-0.33-1.31-0.34-1.34l-0.26-0.86l-0.08-0.36l-0.25-0.73l-0.09-0.28c-0.02-0.04-0.05-0.11-0.11-0.19c-0.2-0.03-0.5 0-0.91 0.09c-0.1 0.02-0.17 0.04-0.23 0.05l-0.18-0.57l1.88-0.46c0.23-0.06 0.38-0.09 0.43-0.11c0.26-0.07 0.66-0.21 1.21-0.41c0.31-0.11 0.5-0.18 0.59-0.21c0.03 0.08 0.05 0.15 0.07 0.21c0.02 0.07 0.04 0.17 0.07 0.29c-0.16 0.11-0.34 0.23-0.55 0.35c-0.21 0.12-0.37 0.22-0.5 0.32c0.01 0.12 0.04 0.29 0.1 0.5c0.05 0.19 0.1 0.34 0.15 0.45c0.2 0.73 0.35 1.3 0.47 1.69l0.5 1.71l0.23 0.87l0.39 1.29l0.06 0.25c0.01 0.03 0.03 0.08 0.07 0.14c0.28-0.02 0.53-0.05 0.75-0.09c0.04-0.01 0.18-0.03 0.41-0.06c0.05 0.12 0.09 0.23 0.12 0.32c0.01 0.05 0.03 0.12 0.06 0.22c-0.06 0.02-0.1 0.03-0.13 0.04c-0.14 0.05-0.21 0.08-0.24 0.08c-0.03 0.01-0.09 0.02-0.17 0.03c-0.06 0.01-0.36 0.06-0.89 0.16l-1.15 0.32c-0.23 0.07-0.56 0.18-0.98 0.35c-0.27 0.11-0.45 0.18-0.53 0.21l-0.14-0.46zm8.53-10.54c-0.01 0-0.01 0-0.02 0c0 0 0-0.01 0-0.01l0.02 0.01zm0.25 0.64c0.16 0.44 0.26 0.78 0.32 1.03c0.02 0.08 0.03 0.17 0.03 0.26l-0.06 0.03l-0.48 0.08l-0.08 0.01c-0.33-0.53-0.61-0.88-0.85-1.04c-0.41-0.27-0.85-0.36-1.3-0.26c-0.43 0.1-0.75 0.29-0.95 0.58c-0.2 0.28-0.26 0.59-0.18 0.92c0.06 0.28 0.25 0.52 0.56 0.72c0.31 0.2 0.88 0.33 1.74 0.38c0.29 0.02 0.64 0.07 1.06 0.16c0.42 0.09 0.76 0.21 1 0.37c0.33 0.21 0.57 0.43 0.72 0.67c0.16 0.23 0.28 0.53 0.37 0.91c0.09 0.41 0.11 0.84 0.05 1.27c-0.03 0.23-0.12 0.46-0.26 0.69c-0.1 0.16-0.27 0.36-0.5 0.61c-0.24 0.24-0.49 0.43-0.77 0.58c-0.28 0.15-0.65 0.27-1.11 0.38c-0.31 0.07-0.68 0.11-1.13 0.12l-0.84-0.05c-0.23-0.01-0.38-0.03-0.45-0.07c-0.03-0.01-0.06-0.05-0.09-0.11l-0.02-0.07c-0.01-0.05-0.09-0.35-0.24-0.89c-0.07-0.28-0.13-0.48-0.15-0.6l-0.06-0.25l0.6-0.15c0.32 0.44 0.53 0.7 0.61 0.79c0.19 0.19 0.38 0.34 0.57 0.44c0.2 0.1 0.42 0.16 0.67 0.19c0.25 0.03 0.5 0.01 0.77-0.05c0.24-0.05 0.49-0.17 0.75-0.33c0.26-0.17 0.45-0.38 0.57-0.65c0.12-0.27 0.15-0.54 0.09-0.8c-0.07-0.32-0.3-0.59-0.66-0.8c-0.22-0.13-0.77-0.24-1.64-0.34c-0.87-0.1-1.49-0.22-1.85-0.38c-0.36-0.15-0.68-0.39-0.94-0.73c-0.27-0.34-0.44-0.68-0.52-1.02c-0.16-0.7-0.05-1.35 0.34-1.95c0.39-0.6 1.07-1.02 2.04-1.24c0.21-0.05 0.53-0.08 0.96-0.1c0.26-0.01 0.6 0 1.04 0.05c0.08 0.14 0.17 0.36 0.27 0.64zm6.93 6.77l-0.05-0.48c0.09-0.04 0.23-0.09 0.43-0.16c0.28-0.1 0.49-0.19 0.63-0.28c0.07-0.15 0.09-0.34 0.07-0.59l-0.08-0.79l-0.13-1.53l-0.04-0.36c-0.05-0.89-0.08-1.35-0.08-1.38l-0.1-0.89l-0.01-0.36l-0.11-0.76l-0.03-0.29c-0.01-0.04-0.03-0.11-0.07-0.21c-0.19-0.07-0.49-0.09-0.91-0.08c-0.1 0-0.18 0.01-0.24 0l-0.08-0.59l1.93-0.1c0.24-0.01 0.39-0.02 0.44-0.03c0.26-0.03 0.69-0.08 1.27-0.18c0.32-0.05 0.53-0.09 0.61-0.1c0.01 0.08 0.02 0.16 0.03 0.21c0.01 0.08 0.01 0.18 0.01 0.3c-0.17 0.08-0.37 0.16-0.6 0.24c-0.22 0.08-0.41 0.15-0.55 0.22c-0.02 0.12-0.01 0.29 0.01 0.51c0.02 0.19 0.04 0.35 0.07 0.47c0.06 0.76 0.11 1.34 0.15 1.75l0.18 1.77l0.07 0.9l0.14 1.34l0.02 0.26c0 0.04 0.02 0.09 0.04 0.15c0.28 0.03 0.53 0.05 0.76 0.05c0.04 0 0.18 0.01 0.42 0.01c0.03 0.13 0.05 0.24 0.06 0.33c0 0.05 0.01 0.13 0.02 0.23c-0.06 0.01-0.1 0.01-0.13 0.02c-0.14 0.02-0.23 0.04-0.25 0.04c-0.03 0-0.09 0-0.18 0c-0.06 0-0.36-0.01-0.9-0.01l-1.19 0.1c-0.24 0.02-0.58 0.08-1.03 0.17c-0.29 0.06-0.48 0.09-0.57 0.1h-0.03zm5.48-8.93v-0.47l0.57 0.03h0.2c0.27 0 0.46 0.01 0.56 0.01c0.05 0 0.21 0.02 0.47 0.04c0.06 0.01 0.11 0.01 0.15 0.02c0.04 0 0.18 0.01 0.43 0.01c0.24 0.01 0.38 0.01 0.41 0.01c0.05 0 0.12 0.01 0.21 0.02c0.66 0.67 1.19 1.24 1.6 1.72c0.41 0.48 1.91 2.16 4.49 5.05l0.01-0.17l0.02-0.78c0.01-0.46 0.02-0.82 0.01-1.09c-0.01-0.27 0-0.59 0.02-0.96c0.02-0.37 0.02-0.71 0.01-1.01c-0.02-0.59-0.03-0.93-0.02-1.02c0.01-0.29-0.01-0.47-0.06-0.54c-0.09-0.1-0.3-0.19-0.63-0.26c-0.24-0.05-0.43-0.12-0.54-0.19l0.03-0.4l0.18-0.01l1.33 0.04l1.49 0.05c0.1 0 0.19 0 0.28 0.01l-0.02 0.44c-0.11 0.05-0.21 0.08-0.32 0.1c-0.29 0.05-0.46 0.09-0.51 0.11c-0.24 0.12-0.36 0.19-0.38 0.21c-0.04 0.05-0.07 0.13-0.08 0.25c0 0.03 0 0.12 0 0.28c0 0.08-0.01 0.27-0.03 0.57c-0.03 0.65-0.05 1.17-0.04 1.55c0 0.12 0 0.26 0 0.41l-0.06 2.37c-0.01 0.17-0.01 0.28-0.01 0.35l-0.05 0.83v0.35l-0.04 0.36c0.01 0.19 0.01 0.3 0.01 0.33l-0.02 0.36l-0.78-0.02l-0.75-0.88l-1.54-1.72l-1.08-1.21l-0.79-0.91c-0.52-0.57-0.99-1.07-1.41-1.51l-1.04-1.06l-0.09 2.51c0 0.15-0.01 0.31-0.02 0.47l-0.03 0.48l-0.01 0.89c-0.01 0.37-0.01 0.77 0 1.2c0 0.12 0.01 0.2 0.02 0.25c0.01 0.05 0.03 0.11 0.07 0.21c0.17 0.07 0.55 0.14 1.14 0.21c0.04 0.01 0.1 0.03 0.17 0.06l-0.01 0.55l-0.26-0.01c-0.14-0.01-0.6-0.07-1.36-0.18c-0.72-0.03-1.19-0.05-1.43-0.04c-0.24 0-0.37 0.01-0.39 0c-0.05 0-0.13-0.02-0.22-0.04c0-0.1 0-0.19 0-0.27c0-0.05 0.01-0.13 0.02-0.24c0.13-0.02 0.23-0.02 0.31-0.02c0.03 0 0.11 0.01 0.26 0.03c0.38 0.02 0.6 0.01 0.67-0.04c0.08-0.05 0.12-0.2 0.15-0.45c0.07-0.71 0.11-1.15 0.12-1.3l0.02-0.37l0.14-2.19l0.06-1.37c0.03-0.52 0.01-0.89-0.04-1.09c-0.02-0.1-0.07-0.2-0.14-0.28c-0.15-0.17-0.32-0.3-0.5-0.39c-0.11-0.06-0.41-0.14-0.9-0.24l-0.03-0.01zm12.05 8.52c0.42 0.05 0.71 0.03 0.87-0.05c0.1-0.05 0.19-0.18 0.27-0.38c0.02-0.05 0.23-0.71 0.62-1.97l0.2-0.72l0.26-0.86l0.61-2.22l0.08-0.26c0.03-0.11 0.03-0.21-0.02-0.29c-0.02-0.04-0.1-0.08-0.24-0.12c-0.11-0.03-0.25-0.06-0.4-0.07c-0.19-0.05-0.37-0.08-0.53-0.1c-0.03 0-0.07-0.01-0.13-0.02l0.16-0.57c0.28-0.01 0.67 0.02 1.17 0.08c0.82 0.1 1.81 0.31 2.96 0.65c0.96 0.28 1.65 0.54 2.06 0.77c0.63 0.36 1.1 0.77 1.43 1.23c0.44 0.61 0.71 1.25 0.82 1.92c0.12 0.67 0.07 1.35-0.13 2.04c-0.25 0.87-0.66 1.57-1.22 2.09c-0.56 0.51-1.25 0.85-2.07 1.02c-0.58 0.12-1.3 0.06-2.16-0.19l-1.31-0.44l-0.38-0.13l-0.53-0.14l-0.15-0.06l-0.55-0.14l-0.72-0.21c-0.03-0.01-0.25-0.06-0.67-0.15c-0.14-0.03-0.32-0.08-0.55-0.14c-0.14-0.04-0.24-0.07-0.31-0.08c0.02-0.1 0.07-0.27 0.14-0.53c0.07 0 0.21 0.01 0.42 0.04zm4.81-6.34c0 0 0 0 0.01 0c0 0 0-0.01 0-0.01l-0.01 0.01zm-0.09 0.27l-0.3 1.11l-0.29 0.96c-0.08 0.32-0.15 0.59-0.22 0.82l-0.18 0.61l-0.29 1.04l-0.2 0.63c-0.17 0.59-0.18 1.03-0.02 1.3c0.23 0.4 0.63 0.67 1.19 0.84c0.43 0.12 0.76 0.17 0.98 0.15c0.47-0.04 0.87-0.16 1.19-0.36c0.33-0.2 0.63-0.53 0.9-0.99c0.27-0.46 0.49-0.96 0.64-1.49c0.25-0.87 0.32-1.63 0.2-2.26c-0.12-0.63-0.38-1.16-0.78-1.58c-0.4-0.42-0.92-0.72-1.54-0.9c-0.44-0.13-0.84-0.18-1.18-0.15c-0.05 0.12-0.09 0.21-0.1 0.27zm5.2 9.93l0.21-0.44c0.09 0.01 0.24 0.04 0.45 0.09c0.3 0.06 0.52 0.08 0.69 0.08c0.13-0.09 0.25-0.25 0.36-0.47l0.33-0.72l0.67-1.39l0.15-0.33c0.41-0.79 0.62-1.2 0.63-1.23l0.37-0.82l0.17-0.32l0.3-0.71l0.12-0.27c0.02-0.04 0.03-0.11 0.05-0.22c-0.13-0.16-0.38-0.33-0.74-0.53c-0.09-0.05-0.16-0.09-0.21-0.12l0.23-0.55l1.71 0.89c0.21 0.11 0.34 0.18 0.4 0.2c0.24 0.11 0.63 0.28 1.18 0.49c0.31 0.12 0.5 0.19 0.58 0.23c-0.03 0.08-0.06 0.15-0.09 0.2c-0.03 0.07-0.08 0.16-0.14 0.26c-0.19-0.02-0.4-0.05-0.64-0.1c-0.23-0.05-0.43-0.08-0.59-0.09c-0.07 0.09-0.16 0.24-0.25 0.44c-0.08 0.18-0.14 0.32-0.18 0.44c-0.34 0.68-0.59 1.21-0.76 1.58l-0.75 1.62l-0.4 0.81l-0.56 1.23l-0.12 0.23c-0.02 0.03-0.03 0.08-0.04 0.15c0.22 0.17 0.43 0.31 0.63 0.43c0.03 0.02 0.15 0.1 0.35 0.22c-0.04 0.13-0.08 0.24-0.12 0.32c-0.02 0.04-0.06 0.11-0.1 0.2c-0.05-0.02-0.09-0.04-0.13-0.05c-0.13-0.05-0.21-0.08-0.23-0.09c-0.03-0.01-0.08-0.04-0.15-0.09c-0.05-0.03-0.31-0.19-0.77-0.47l-1.08-0.52c-0.22-0.1-0.54-0.23-0.97-0.38c-0.28-0.1-0.46-0.17-0.55-0.2h-0.01zm16.14-0.83c-0.02 0.15-0.13 0.53-0.31 1.17c-0.09 0.29-0.21 0.57-0.38 0.84l-0.52-0.33c-0.04-0.75-0.18-1.36-0.43-1.83c-0.24-0.47-0.61-0.86-1.08-1.17c-0.59-0.37-1.21-0.44-1.86-0.21c-0.89 0.31-1.68 1.03-2.38 2.14c-0.41 0.65-0.66 1.13-0.75 1.46c-0.14 0.53-0.2 1-0.17 1.42c0.03 0.31 0.13 0.62 0.31 0.9c0.23 0.38 0.53 0.69 0.91 0.94c0.42 0.26 0.9 0.39 1.46 0.38c0.56-0.01 1.18-0.17 1.86-0.46c0.16 0.06 0.35 0.16 0.58 0.3c-0.11 0.13-0.23 0.27-0.36 0.4c-0.05 0.05-0.25 0.27-0.59 0.64l-0.16 0.14l-0.25 0.22c-0.35 0.03-0.76-0.04-1.24-0.22c-0.47-0.18-1.02-0.46-1.63-0.85c-0.47-0.3-0.88-0.62-1.25-0.97c-0.36-0.35-0.63-0.71-0.8-1.09c-0.26-0.55-0.41-1.06-0.46-1.54c-0.05-0.48-0.01-0.94 0.11-1.39c0.12-0.45 0.33-0.91 0.62-1.38c0.72-1.13 1.68-1.83 2.89-2.1c1.22-0.26 2.4-0.03 3.57 0.7c0.47 0.3 0.9 0.6 1.28 0.91c0.39 0.31 0.74 0.63 1.04 0.95l-0.01 0.03zm-3.32 8.3l0.3-0.38c0.09 0.03 0.23 0.1 0.42 0.19c0.27 0.13 0.49 0.2 0.65 0.23c0.15-0.06 0.3-0.19 0.46-0.38l0.49-0.63l0.97-1.2l0.22-0.29c0.58-0.68 0.88-1.03 0.89-1.05l0.55-0.71l0.24-0.27l0.45-0.62l0.18-0.23c0.02-0.04 0.06-0.1 0.1-0.2c-0.09-0.18-0.29-0.41-0.6-0.69c-0.07-0.07-0.13-0.12-0.17-0.16l0.35-0.48l1.46 1.26c0.18 0.16 0.29 0.25 0.34 0.29c0.21 0.17 0.55 0.42 1.03 0.75c0.27 0.19 0.44 0.31 0.51 0.35c-0.05 0.07-0.09 0.13-0.13 0.17c-0.05 0.06-0.11 0.13-0.2 0.22c-0.18-0.06-0.38-0.14-0.6-0.24c-0.21-0.1-0.4-0.17-0.55-0.22c-0.09 0.07-0.21 0.2-0.35 0.37c-0.12 0.15-0.21 0.28-0.28 0.38c-0.48 0.59-0.85 1.04-1.11 1.36l-1.1 1.4l-0.58 0.7l-0.83 1.07l-0.16 0.2c-0.02 0.03-0.05 0.07-0.08 0.14c0.18 0.22 0.35 0.4 0.51 0.56c0.03 0.03 0.13 0.13 0.29 0.3c-0.07 0.12-0.13 0.21-0.19 0.28c-0.03 0.04-0.08 0.1-0.15 0.18c-0.05-0.04-0.08-0.06-0.11-0.08c-0.12-0.08-0.19-0.13-0.2-0.14c-0.02-0.02-0.07-0.06-0.12-0.13c-0.04-0.05-0.26-0.26-0.64-0.63l-0.93-0.75c-0.19-0.15-0.47-0.35-0.86-0.59c-0.25-0.16-0.41-0.27-0.48-0.32l0.01-0.01z" />
		</g>
	</g>
	<g clip-path="url(#cp1)">
		<g >
			<g >
				<g >
					<path class="s0" d="m0 0h450v300h-450v-300z" />
					<path fill-rule="evenodd" class="s30" d="m450 0l-450 300m0-300l450 300" />
					<path class="s31" d="m225 0v300" />
					<path class="s31" d="m0 150h450" />
					<path class="s32" d="m225 0v300" />
					<path class="s32" d="m0 150h450" />
				</g>
			</g>
		</g>
	</g>
</svg>