<svg version="1.2" xmlns="http://www.w3.org/2000/svg" viewBox="0 0 900 600" width="900" height="600">
	<title></title>
	<style>
		.s0 { fill: #008000 } 
		.s1 { fill: #0038a8 } 
		.s2 { fill: #cc0000 } 
		.s3 { fill: #ffd700 } 
	</style>
	<path id="Layer" class="s0" d="m0 0h900v600h-900z"/>
	<path id="Layer" class="s1" d="m0 0h900v528h-900z"/>
	<path id="Layer" class="s2" d="m0 0h900v408h-900z"/>
	<g id="Layer">
		<path id="horns" class="s1" d="m-90 419.3l-11.2-11.3 11.2-11.2 11.3 11.2 11.2-11.2-33.7-33.8 11.2-11.3 11.3 11.3 11.2-11.3 11.3 11.3-11.3 11.2 11.3 11.3 11.2-11.3-11.2-11.2 11.2-11.3 11.3 11.3 11.2-11.3 11.3 11.3-33.8 33.8 11.3 11.2 11.2-11.2 11.3 11.2 11.2-11.2-11.2-11.3 11.2-11.3 11.3 11.3-11.3 11.3 22.5 22.5z"/>
		<path id="horns" class="s1" d="m22.5 419.3l-11.2-11.3 11.2-11.2 11.3 11.2 11.2-11.2-33.7-33.8 11.2-11.3 11.3 11.3 11.2-11.3 11.3 11.3-11.3 11.2 11.3 11.3 11.2-11.3-11.2-11.2 11.2-11.3 11.3 11.3 11.2-11.3 11.3 11.3-33.8 33.8 11.3 11.2 11.2-11.2 11.3 11.2 11.2-11.2-11.2-11.3 11.2-11.3 11.3 11.3-11.3 11.3 22.5 22.5z"/>
		<path id="horns" class="s1" d="m135 419.3l-11.2-11.3 11.2-11.2 11.3 11.2 11.2-11.2-33.7-33.8 11.2-11.3 11.3 11.3 11.2-11.3 11.3 11.3-11.3 11.2 11.3 11.3 11.2-11.3-11.2-11.2 11.2-11.3 11.3 11.3 11.2-11.3 11.3 11.3-33.8 33.8 11.3 11.2 11.2-11.2 11.3 11.2 11.2-11.2-11.2-11.3 11.2-11.3 11.3 11.3-11.3 11.3 22.5 22.5z"/>
		<path id="horns" class="s1" d="m247.5 419.3l-11.2-11.3 11.2-11.2 11.3 11.2 11.2-11.2-33.7-33.8 11.2-11.3 11.3 11.3 11.2-11.3 11.3 11.3-11.3 11.2 11.3 11.3 11.2-11.3-11.2-11.2 11.2-11.3 11.3 11.3 11.2-11.3 11.3 11.3-33.8 33.8 11.3 11.2 11.2-11.2 11.3 11.2 11.2-11.2-11.2-11.3 11.2-11.3 11.3 11.3-11.3 11.3 22.5 22.5z"/>
		<path id="horns" class="s1" d="m360 419.3l-11.2-11.3 11.2-11.2 11.3 11.2 11.2-11.2-33.7-33.8 11.2-11.3 11.3 11.3 11.2-11.3 11.3 11.3-11.3 11.2 11.3 11.3 11.2-11.3-11.2-11.2 11.2-11.3 11.3 11.3 11.2-11.3 11.3 11.3-33.8 33.8 11.3 11.2 11.2-11.2 11.3 11.2 11.2-11.2-11.2-11.3 11.2-11.3 11.3 11.3-11.3 11.3 22.5 22.5z"/>
		<path id="horns" class="s1" d="m472.5 419.3l-11.2-11.3 11.2-11.2 11.3 11.2 11.2-11.2-33.7-33.8 11.2-11.3 11.3 11.3 11.2-11.3 11.3 11.3-11.3 11.2 11.3 11.3 11.2-11.3-11.2-11.2 11.2-11.3 11.3 11.3 11.2-11.3 11.3 11.3-33.8 33.8 11.3 11.2 11.2-11.2 11.3 11.2 11.2-11.2-11.2-11.3 11.2-11.3 11.3 11.3-11.3 11.3 22.5 22.5z"/>
		<path id="horns" class="s1" d="m585 419.3l-11.2-11.3 11.2-11.2 11.3 11.2 11.2-11.2-33.7-33.8 11.2-11.3 11.3 11.3 11.2-11.3 11.3 11.3-11.3 11.2 11.3 11.3 11.2-11.3-11.2-11.2 11.2-11.3 11.3 11.3 11.2-11.3 11.3 11.3-33.8 33.8 11.3 11.2 11.2-11.2 11.3 11.2 11.2-11.2-11.2-11.3 11.2-11.3 11.3 11.3-11.3 11.3 22.5 22.5z"/>
		<path id="horns" class="s1" d="m697.5 419.3l-11.2-11.3 11.2-11.2 11.3 11.2 11.2-11.2-33.7-33.8 11.2-11.3 11.3 11.3 11.2-11.3 11.3 11.3-11.3 11.2 11.3 11.3 11.2-11.3-11.2-11.2 11.2-11.3 11.3 11.3 11.2-11.3 11.3 11.3-33.8 33.8 11.3 11.2 11.2-11.2 11.3 11.2 11.2-11.2-11.2-11.3 11.2-11.3 11.3 11.3-11.3 11.3 22.5 22.5z"/>
		<path id="horns" class="s1" d="m810 419.3l-11.2-11.3 11.2-11.2 11.3 11.2 11.2-11.2-33.7-33.8 11.2-11.3 11.3 11.3 11.2-11.3 11.3 11.3-11.3 11.2 11.3 11.3 11.2-11.3-11.2-11.2 11.2-11.3 11.3 11.3 11.2-11.3 11.3 11.3-33.8 33.8 11.3 11.2 11.2-11.2 11.3 11.2 11.2-11.2-11.2-11.3 11.2-11.3 11.3 11.3-11.3 11.3 22.5 22.5z"/>
	</g>
	<path id="path11728" fill-rule="evenodd" class="s3" d="m145.5 63.4h27.2l-22.1 16 8.4 25.9-22-16-22 16 8.4-25.9-22.1-16h27.3l8.4-25.9zm-13.9 4.2h-17.4l14.1 10.2-5.4 16.6 14.1-10.2 14.1 10.2-5.4-16.6 14.1-10.2h-17.4l-5.4-16.6z"/>
	<g id="g2900">
		<path id="rect4165-6" class="s3" d="m116.1 138l33.3 4.6-24 23.8c28.9 27.3 57.8 54.7 86.6 81.9 4 4.1 4 10.7-0.1 14.7-4.1 4-10.7 4-14.7-0.1-26.9-29.1-55.2-57.1-82.3-86.1l-17.8 17.7-18.9-19z"/>
		<path id="path4179-3" class="s3" d="m139.1 114.1c17.8 4.7 33.5 15.4 44.2 28.2 14 16.8 20.1 37.3 19.6 53.2-1.1 31.5-23.4 53.5-53.2 52.8-16.2-0.3-30.8-7.7-40.5-19.1-0.5 2.3-2.1 4.2-4.2 5.2-0.1 0.1-0.2 0.1-0.4 0.2-6.3 3.1-11.3 8.5-13.6 15.1-1.1 3.3-3.2 6.6-6 9.5-5 5.1-11.4 7.7-16.1 6.6-0.5 0.2-1.1 0.3-1.6 0.3-2.1 0-3.9-1.7-3.9-3.9 0-0.5 0.1-0.9 0.2-1.3-1.4-4.7 1.1-11.4 6.3-16.6 2.6-2.6 5.7-4.7 8.8-5.8 0.1 0 0.1-0.1 0.2-0.1 6.7-2.3 12.2-7.2 15.3-13.5 0.9-2.9 3.4-4.9 6.4-5.3 1.1-1.4 2.9-2.2 4.7-2.2 0.7 0 1.5 0.1 2.2 0.4l4.2-3.5c7.6 8.4 18.5 13.6 30.6 13.6 22.8 0 41.3-18.5 41.2-41.2-0.1-11.1-3.2-25-10.2-38.3-6.9-13.1-18.7-25.7-34.2-34.4z"/>
	</g>
</svg>