<svg version="1.2" baseProfile="tiny-ps" xmlns="http://www.w3.org/2000/svg" viewBox="0 0 900 600" width="900" height="600">
	<style>
		tspan { white-space:pre }
		.shp0 { fill: #dc143c;stroke: #003893;stroke-width: 35.445 } 
		.shp1 { fill: #dc143c } 
		.shp2 { fill: #ffffff } 
	</style>
	<path id="a" class="shp0" d="M17.57 291.19L429.24 291.19L17.57 33.31L17.57 582.43L429.24 582.43L17.57 170.59L17.57 291.19Z" />
	<path id="a" class="shp1" d="M17.57 291.19L429.24 291.19L17.57 33.31L17.57 582.43L429.24 582.43L17.57 170.59L17.57 291.19Z" />
	<g id="Layer">
		<path id="Layer" class="shp2" d="M120.48 276.5C165.77 276.5 202.48 239.78 202.48 194.48C195.27 212.81 182.24 227.97 165.63 237.86L158.63 232.64L172.36 222.35L155.75 218.09L164.53 203.2L147.38 205.67L149.92 188.64L135.03 197.57L130.78 180.75L120.48 194.48L110.19 180.75L105.87 197.5L91.05 188.71L93.59 205.87L76.44 203.33L85.35 218.23L68.61 222.48L82.34 232.78L75.47 238.06C59.21 228.45 45.97 213.63 38.56 194.68C38.56 239.99 75.27 276.71 120.55 276.71L120.48 276.5Z" />
		<path id="Layer" class="shp2" d="M80.96 397.31L44.19 392.78L66.49 422.29L32.39 436.84L66.49 451.26L44.19 480.77L80.96 476.24L76.44 513.1L105.94 490.79L120.48 524.98L134.89 490.79L164.53 513.17L160.01 476.38L196.78 480.98L174.48 451.46L208.58 437.05L174.48 422.5L196.78 392.98L160.01 397.45L164.53 360.65L135.03 382.96L120.48 348.71L106.08 382.82L76.44 360.52L80.96 397.31Z" />
	</g>
</svg>