<svg version="1.2" baseProfile="tiny-ps" xmlns="http://www.w3.org/2000/svg" viewBox="0 0 900 600" width="900" height="600"><title></title><defs><clipPath clipPathUnits="userSpaceOnUse" id="cp1"><path d="M757.74 314.62C766.82 311.76 778.1 321.87 782.92 337.19C787.75 352.52 784.3 367.26 775.21 370.12C766.13 372.98 754.85 362.86 750.03 347.54C745.2 332.22 748.65 317.48 757.74 314.62L757.74 314.62Z" /></clipPath></defs><style>tspan { white-space:pre }.shp0 { fill: #00247d } .shp1 { fill: none;stroke: #ffffff;stroke-width: 51.992 } .shp2 { fill: none;stroke: #ffffff;stroke-width: 86.653 } .shp3 { fill: none;stroke: #cf142b;stroke-width: 51.992 } .shp4 { fill: #ce1126 } .shp5 { fill: #fde88a } .shp6 { fill: #fef1b9 } .shp7 { fill: #fddc50 } .shp8 { fill: #f7941e } .shp9 { fill: #f8a440 } .shp10 { fill: #c49a6c } .shp11 { fill: #e8ba8b } .shp12 { fill: #ffffff } .shp13 { fill: #e6e7e8 } .shp14 { fill: #bcbec0 } .shp15 { fill: #d1d3d4 } .shp16 { fill: #603913 } .shp17 { fill: #fcd116 } .shp18 { fill: #c67f17 } .shp19 { fill: #6d6e71 } .shp20 { fill: #012169 } .shp21 { fill: #c8102e } .shp22 { fill: #630b57 } .shp23 { fill: #f26522 } .shp24 { fill: #000000 } .shp25 { fill: #002b7f } .shp26 { fill: #4080bb } .shp27 { fill: #0055a4 } .shp28 { fill: #754c29 } .shp29 { fill: #8b5e3c } .shp30 { fill: #d94040 } .shp31 { fill: #b20808 } .shp32 { fill: #231f20 } .shp33 { fill: #58595b } .shp34 { fill: #414042 } .shp35 { fill: #f9af56 } </style><path class="shp0" d="M0 0L450 0L450 300L0 300L0 0Z" /><g ><path class="shp1" d="M450 0L0 300M0 0L450 300" /><path class="shp2" d="M225 0L225 300M0 150L450 150" /><path class="shp3" d="M225 0L225 300M0 150L450 150" /></g><path class="shp4" d="M0 300L900 300L900 600L0 600L0 300ZM450 0L900 0L900 600L450 600L450 0Z" /><g ><path class="shp5" d="M675 440C597.58 440 535 377.42 535 300C535 222.58 597.58 160 675 160C752.42 160 815 222.58 815 300C815 377.42 752.42 440 675 440Z" /><path class="shp6" d="M675 164.69C617.47 164.69 568.31 200.53 548.66 251.09C552.71 251.72 556.68 252.82 560.54 254.46C576.22 260.62 590.77 271.81 608.7 269.57C629.41 266.21 646.22 253.9 665.26 246.62C685.97 238.79 707.25 242.7 726.85 252.78C730.22 254.46 733.58 254.46 736.93 256.14C759.24 270.37 783.17 275.75 808.03 274.33C795.99 211.88 741.02 164.69 675 164.69L675 164.69Z" /><path class="shp7" d="M675 358C625.13 358 579.01 344.21 541.63 320.86C544.75 341.04 552.34 359.73 563.37 375.9L786.63 375.9C797.65 359.73 805.24 341.04 808.37 320.86C770.98 344.21 724.88 358 675 358L675 358Z" /><g ><path class="shp8" d="M583.74 301.5L553.88 238.12L554.39 237.88L584.26 301.25L583.74 301.5Z" /><path class="shp8" d="M583.25 301.06L541.76 301.06C541.76 301.06 536.72 330.6 557.51 363.53C565.61 357.63 583.25 340.25 583.25 301.06Z" /><path class="shp9" d="M571.28 301.06C571.28 338.17 561.92 355.71 556.88 362.5C557.09 362.84 557.3 363.19 557.52 363.53C565.61 357.63 583.26 340.25 583.26 301.07L571.28 301.07L571.28 301.06Z" /><path class="shp8" d="M588.57 301.19L557.76 233.35L558.29 233.11L589.1 300.95L588.57 301.19Z" /><path class="shp8" d="M596.67 299.85L588.56 196.44L589.11 196.4L597.22 299.8L596.67 299.85Z" /><path class="shp8" d="M612.74 299.88L562.97 224.08L563.44 223.77L613.21 299.57L612.74 299.88Z" /><path class="shp8" d="M612.86 298.46L588.74 198.36L589.29 198.23L613.41 298.33L612.86 298.46Z" /><path class="shp8" d="M619.16 298.52L591.92 194.68L592.46 194.54L619.7 298.37L619.16 298.52Z" /><path class="shp8" d="M586.24 310.48L586.04 309.95L613.02 299.26L613.23 299.78L586.24 310.48Z" /><path class="shp8" d="M586.1 319.5L585.8 319.03L619.47 298.08L619.76 298.56L586.1 319.5Z" /><path class="shp8" d="M583.25 301.06C583.25 340.25 565.6 357.63 557.51 363.53C558.03 364.38 558.58 365.21 559.14 366.04C559.14 366.04 588.85 351.92 588.85 301.07L583.25 301.07L583.25 301.06L583.25 301.06Z" /><path class="shp8" d="M583.25 301.06L623.56 297.49L586.16 305.94L583.25 301.06Z" /></g><g ><g ><path class="shp10" d="M746.9 368C746.9 368 747.33 371.86 748.09 372.87C748.09 372.87 751.57 373 753.21 371.92C754.86 370.84 755.36 368.83 755.36 368.83L751.76 366.04L746.9 368Z" /><path class="shp10" d="M723.24 366.99C723.24 366.99 720.28 368.53 719.83 368.94C719.39 369.32 718.25 370.14 717.86 370.09C717.86 370.09 717.75 371.47 719.58 371.34C721.42 371.22 722.42 371.28 724.01 371.09C725.58 370.91 726.85 369.98 728.5 370.44C730.14 370.91 732.2 370.95 732.56 369.57C732.91 368.18 732.56 366.29 732.56 366.29L723.24 366.99Z" /><path class="shp10" d="M756.84 274.9C756.58 274.38 756.31 273.9 756.07 273.49C753.94 269.92 754.88 267.33 754.88 267.33L751.11 267.33L751.15 277.82C751.15 277.82 750.48 285.06 755.33 290.28C755.33 290.28 755.28 290.46 755.22 290.76C755.64 290.6 756.07 290.44 756.54 290.28C754.05 284.81 752.45 278.9 756.84 274.9L756.84 274.9Z" /><path class="shp10" d="M754.9 292.36C754.67 293.59 754.43 295.2 754.38 296.68C754.3 299.24 755.18 306.31 755.02 309.43C758.3 304.47 758.09 297.21 754.9 292.36Z" /><path class="shp11" d="M698.09 294.27C695.99 294.83 691.65 294.41 690.38 295.67C689.13 296.93 691.59 296.36 692.03 296.38C692.46 296.4 693.42 296.74 693.42 296.74C693.42 296.74 691.84 297.8 691.1 297.78C690.38 297.75 687.82 297.25 687.38 297.68C686.95 298.11 685.6 299.47 687.57 299.88C687.57 299.88 687 301.59 689.69 301.44C689.69 301.44 690.86 303.47 692.87 303.02C694.88 302.55 696.93 299.56 698.91 298.62C699.73 298.23 701.15 297.83 702.53 297.49C702.07 295.97 701.43 294.56 700.69 293.2C699.66 293.7 698.69 294.1 698.09 294.27Z" /><path class="shp10" d="M708.05 294.94L706.27 290.28C706.27 290.28 703.22 292 700.7 293.2C701.43 294.55 702.07 295.97 702.54 297.49C704.45 297.02 706.27 296.68 706.27 296.68L708.05 294.94Z" /><path class="shp12" d="M743.11 260.06C743.11 261.18 742.53 262.86 743.65 263.98C745.34 264.53 746.46 262.86 747.58 263.41C748.7 263.98 745.89 266.77 747.58 266.77C750.61 266.95 752.61 268.15 753.94 269.91C754.21 269.22 754.46 268.57 754.65 268.03C755.55 265.47 753.57 264.4 752.86 263.68C752.15 262.97 749.93 263.32 749.93 263.32C749.93 263.32 750.59 263.02 750.47 262.34C750.29 260.47 747.25 259.62 747.25 259.62C747.25 259.62 747.73 258.97 746.72 258.43C745.71 257.9 744.4 255.57 743.71 254.86C743.03 254.14 741.54 254.16 741.54 254.16L728.3 262.24C727.79 262.59 727.31 262.97 726.86 263.38C732.13 265.39 739.34 263.82 743.11 260.06L743.11 260.06Z" /><path class="shp13" d="M745.89 275.17C747.57 275.58 749.55 276.31 751.15 277.81C751.18 277.63 751.21 277.46 751.25 277.27C751.58 275.76 752.94 272.5 753.94 269.92C752.62 268.15 750.61 266.95 747.58 266.77C745.89 266.77 748.7 263.97 747.58 263.42C746.46 262.86 745.34 264.53 743.65 263.98C742.54 262.86 743.11 261.18 743.11 260.06C739.34 263.82 732.13 265.39 726.86 263.39C725.9 264.28 725.11 265.27 724.46 266.28C723.65 268.81 722.85 271.4 722.93 273.94C727.71 281.76 738.35 273.56 745.89 275.17L745.89 275.17Z" /><path class="shp13" d="M718.46 313.23C721.82 310.43 722.38 302.03 722.94 296.43C723.35 291.89 720.12 288.27 719.05 283.98C718.16 285.16 717.43 286.14 716.78 286.36C709.1 287.71 708.35 295.26 706.27 301.06L706.27 305.69C708.88 305.18 711.54 304.61 713.97 304.26C713.42 309.31 715.09 316.59 718.46 313.23L718.46 313.23Z" /><path class="shp14" d="M752.95 298.88C752.72 294.59 751.36 293.77 751.36 293.77C751.36 293.77 752.09 293.3 752.33 292.11C752.56 290.92 751.91 289.78 751.66 288.12C751.42 286.45 750.76 286.27 750.83 284.48C750.88 282.69 750.29 281.38 750.29 281.38C750.88 280.63 750.85 279.44 751.15 277.82C749.55 276.31 747.57 275.58 745.89 275.17C738.35 273.56 727.71 281.76 722.93 273.94C722.98 275.68 723.44 277.41 724.61 279.09C722.22 279.78 720.46 282.13 719.05 283.99C720.11 288.28 723.35 291.9 722.94 296.44C722.38 302.04 721.83 310.43 718.46 313.24C715.09 316.59 713.42 309.32 713.97 304.27C711.54 304.63 708.88 305.19 706.27 305.7L706.27 312.32C706.27 312.32 706.7 315.61 707.25 315.89C707.82 316.16 709.08 315.19 709.08 315.19L709.08 339.96C709.08 339.96 713 340.8 712.72 343.17C712.43 345.55 715.24 352.26 715.05 353.81C714.88 355.34 715.51 360.94 715.09 362.76C714.68 364.58 717.76 365.43 717.76 365.43C717.62 368.22 722.1 367.95 724.47 367.24C726.85 366.54 728.82 367.1 731.62 368.22C732.28 368.49 732.94 368.72 733.6 368.94C736.32 344.98 721.89 303.03 752.95 298.88L752.95 298.88Z" /><path class="shp15" d="M753.57 316.65C753.16 314.26 752.98 305.45 752.98 300.09C752.98 299.66 752.97 299.26 752.95 298.88C721.89 303.03 736.32 344.98 733.6 368.94C735.72 369.61 737.87 369.9 740.43 369.04C743.79 367.93 744.63 369.75 745.75 369.75C746.87 369.75 747.71 367.22 750.23 367.22C752.76 367.22 756.53 370.44 760.32 370.44C764.09 370.44 765.49 367.22 765.49 367.22C760.46 361.36 753.99 319.04 753.57 316.65L753.57 316.65Z" /><path class="shp11" d="M730.08 253.38C730.08 253.38 732.35 256.12 732.11 257.85C731.88 259.57 731.53 259.81 731.53 259.81C731.53 259.81 729.79 260.23 728.3 262.25C728.3 262.25 732.47 262.61 734.08 261.96C735.7 261.3 741.66 258.56 743.15 256.95C743.15 256.95 740.22 254.37 739.51 250.24L734.55 242.65L732.57 242.33L730.08 253.38Z" /><path class="shp10" d="M735.45 250.85C736.06 250.5 736.1 249.71 736.45 249.06C736.81 248.41 737.65 246.79 736.28 245.98C736.28 245.98 735.94 243.86 734.08 243.45C733.72 243.36 733.11 243.24 732.4 243.09L730.08 253.38C730.08 253.38 730.34 253.69 730.67 254.18C732.1 253.47 733.56 252.27 734.57 250.9C734.57 250.89 734.86 251.2 735.45 250.85L735.45 250.85Z" /><path class="shp11" d="M724.44 242.33C724.44 242.33 724.99 245.32 724.44 246.06C723.87 246.81 723.39 247.78 723.39 248.29C723.39 248.8 724.36 248.91 725.18 248.91C725.18 248.91 725.68 249.7 725.29 250.2C725.29 250.2 725.36 251.04 725.9 250.84C725.9 250.84 725.54 251.27 725.9 251.74C725.9 251.74 726.79 251.61 726.85 252.26C726.92 252.9 726.64 254.47 728.37 254.47C730.12 254.47 732.58 252.45 733.87 250.07C733.87 250.07 734.15 250.33 734.64 249.94C735.14 249.56 735.1 248.81 735.36 248.16C735.6 247.52 736.18 245.91 734.89 245.29C734.89 245.29 734.39 243.34 732.75 243.12C731.12 242.91 724.44 242.33 724.44 242.33L724.44 242.33Z" /><path class="shp16" d="M733.15 242.43C733.15 242.43 734.15 247.72 735.19 248.77C736.22 249.8 737.12 251.83 737 252.66C736.88 253.49 735.87 253.48 737.3 254.47C738.74 255.46 739.51 253.97 739.98 254.8C740.46 255.64 740.57 255.26 741.38 254.83C742.19 254.39 742.25 254.27 742.25 253.49C742.25 252.72 741.99 252.18 740.93 250.93C739.86 249.69 738.8 245.93 738.8 245.93L733.15 242.43Z" /><g ><path class="shp17" d="M741.72 246.12L738.78 246.12L738.78 243.33L739.87 243.33C741.12 240.16 741.23 237.46 740.25 235.27C738.79 232.07 735.33 230.96 735.3 230.95L736.12 228.27C736.31 228.33 740.78 229.73 742.78 234.08C744.22 237.22 743.99 240.99 742.08 245.29L741.72 246.12Z" /><path class="shp18" d="M735.72 233.76L736.87 231.53C736.87 231.53 742.31 233.99 741.14 240.61L735.72 233.76Z" /><path class="shp17" d="M741.06 242.34C741.11 242 741.14 241.66 741.14 241.31C741.14 236.9 737.57 233.34 733.15 233.34C730.05 233.34 727.37 235.1 726.05 237.69C725.5 238.78 725.18 240.01 725.18 241.32C725.18 241.69 725.21 242.05 725.26 242.42C727.1 242.58 731.46 243.14 732.76 243.13C736.69 243.11 736.66 249.75 740.93 250.93C740.93 250.93 740.41 246.69 741.07 242.34L741.06 242.34Z" /><path class="shp18" d="M726.05 237.68L721.75 242.18L732.57 243.1C732.57 243.1 731.61 239.97 726.05 237.68Z" /></g><path class="shp10" d="M724.68 244.8L724.68 244.8C726.6 245.04 726.57 246.53 727.16 246.35C727.74 246.17 727.46 245.27 727.46 245.27L728.3 244.8L728.3 244.62C727.31 243.81 725.72 243.61 724.61 243.58C724.65 243.97 724.68 244.4 724.68 244.8Z" /><path class="shp12" d="M753.57 316.65C753.16 314.26 752.98 305.45 752.98 300.09C752.98 294.74 751.38 293.78 751.37 293.77L751.37 293.77L750.61 293.63L749.61 293.39L748 292.81L746.51 291.98L745.21 290.39L741.61 290.88L739.38 289.72L738.19 289.89L736.92 289.71L734.98 291.09L733.67 290.83L733.32 290.93C732.73 294.74 735.28 300 739.17 302.59C741.98 304.27 744.77 307.07 745.34 309.87C750.15 327.21 747.09 354.93 763.66 363.72C759.01 351.88 753.94 318.75 753.57 316.65L753.57 316.65Z" /><path class="shp12" d="M724.61 279.09C721.73 274.97 723.09 270.55 724.46 266.28C722.27 269.68 721.75 273.21 721.75 273.21C720.28 273.63 719.93 277.34 719.93 277.34C717.62 278.11 717.55 281.25 717.55 281.25C716.01 284.05 712.58 285.8 712.58 285.8C709.08 285.04 709.02 288.19 709.02 288.19C706.85 287.83 706.28 290.29 706.28 290.29L706.28 301.07C708.03 296.15 708.84 289.98 713.72 287.39L713.72 301.07C713.72 301.07 716.53 287.62 718.51 284.71L718.51 284.71C719.98 282.8 721.89 279.86 724.61 279.09L724.61 279.09Z" /><g ><path class="shp19" d="M747.99 292.57C747.46 292.3 746.95 291.98 746.52 291.59C746.41 291.5 746.3 291.4 746.21 291.29C746.12 291.18 746.01 291.08 745.94 290.96L745.83 290.78C745.78 290.72 745.75 290.69 745.71 290.56C745.61 290.34 745.5 290.11 745.4 289.89C744.45 290.27 744.18 290.28 743.66 290.37C743.18 290.44 742.7 290.46 742.23 290.41C741.77 290.36 741.34 290.22 740.94 290.01L740.66 289.84C740.55 289.77 740.49 289.69 740.4 289.63L740.28 289.51L740.06 289.27L739.61 288.76C739.42 288.88 739.22 289.01 739.04 289.11C738.83 289.22 738.78 289.23 738.7 289.27C738.52 289.34 738.35 289.38 738.19 289.39C738.03 289.41 737.89 289.39 737.79 289.36C737.76 289.35 737.74 289.33 737.71 289.32L737.7 289.32L737.69 289.31L737.69 289.31L737.64 289.27L737.61 289.23L737.47 289.1C737.3 288.91 737.15 288.73 736.97 288.55C736.75 288.86 736.53 289.21 736.29 289.5L736.17 289.62L736.08 289.71C736.02 289.77 735.97 289.83 735.9 289.88C735.66 290.11 735.39 290.29 735.13 290.39C734.9 290.49 734.69 290.51 734.5 290.48C734.39 290.48 734.3 290.44 734.2 290.4C734.18 290.41 734.01 290.3 733.9 290.24L733.56 290.02C733.4 290.12 733.24 290.21 733.08 290.29L732.93 290.38L732.82 290.43C732.67 290.51 732.51 290.57 732.36 290.64C732.05 290.76 731.72 290.87 731.41 290.96C730.76 291.13 730.11 291.23 729.45 291.23C728.8 291.24 728.15 291.13 727.55 290.92C727.23 290.83 726.95 290.67 726.65 290.54C726.39 290.36 726.11 290.23 725.89 290C724.91 289.18 724.5 287.87 724.44 286.57C724.41 285.26 724.61 283.91 725.17 282.72C724.46 283.84 724.08 285.18 723.97 286.57C723.93 287.26 723.99 287.98 724.2 288.68C724.39 289.39 724.78 290.06 725.31 290.6C725.31 290.6 725.32 290.6 725.32 290.61C724.13 296.49 723.14 302.61 722.41 308.93C722.02 312.16 721.77 315.46 721.57 318.79C721.51 320.47 721.47 322.15 721.41 323.83C721.42 324.69 721.43 325.54 721.44 326.39C721.46 327.24 721.53 328.08 721.56 328.93C722 335.75 723.08 342.36 724.33 348.76C724.93 351.96 725.63 355.1 726.16 358.21C726.29 358.98 726.43 359.77 726.46 360.53C726.5 361.29 726.36 362.07 726.13 362.79C725.65 364.26 724.75 365.57 723.58 366.57C724.81 365.65 725.81 364.36 726.39 362.89C726.67 362.15 726.87 361.35 726.86 360.53C726.87 359.72 726.78 358.94 726.69 358.15C726.29 354.98 725.72 351.82 725.21 348.6C724.17 342.19 723.18 335.6 722.76 328.86C722.72 328.02 722.65 327.18 722.64 326.34C722.63 325.5 722.61 324.65 722.59 323.82C722.62 322.15 722.65 320.49 722.69 318.83C722.84 315.52 723.01 312.24 723.3 309C723.83 302.71 724.53 296.56 725.37 290.62C725.6 290.89 725.92 291.09 726.21 291.3C726.54 291.48 726.86 291.69 727.22 291.81C727.91 292.1 728.67 292.26 729.44 292.29C730.2 292.32 730.96 292.24 731.71 292.06C732.07 291.97 732.43 291.85 732.79 291.71C732.97 291.64 733.15 291.57 733.32 291.49L733.54 291.39L733.54 291.39L733.6 291.42C733.63 291.44 733.59 291.43 733.72 291.48C733.91 291.56 734.11 291.64 734.33 291.66C734.76 291.72 735.22 291.66 735.58 291.49C736.02 291.31 736.39 291.05 736.71 290.76C736.79 290.68 736.85 290.61 736.93 290.54L737.04 290.42C737.07 290.39 737.13 290.32 737.12 290.34C737.11 290.34 737.12 290.34 737.12 290.33L737.12 290.33L737.15 290.35C737.23 290.38 737.31 290.42 737.39 290.45C737.71 290.56 738.03 290.57 738.31 290.54C738.6 290.51 738.86 290.42 739.1 290.33C739.21 290.28 739.38 290.2 739.36 290.2C739.38 290.19 739.37 290.19 739.38 290.18C739.41 290.2 739.45 290.24 739.48 290.27L739.51 290.32L739.69 290.46C739.81 290.55 739.93 290.65 740.06 290.73L740.45 290.95C741 291.21 741.57 291.35 742.15 291.38C742.71 291.41 743.26 291.35 743.81 291.24C744.31 291.14 745 290.9 745.01 290.86C745.05 290.9 745.08 290.96 745.12 291.02C745.12 291.03 745.19 291.12 745.24 291.18L745.4 291.39C745.5 291.53 745.63 291.63 745.75 291.75C745.86 291.87 746 291.97 746.13 292.07C746.66 292.46 747.24 292.74 747.81 292.96C748.97 293.41 750.18 293.66 751.36 293.77C750.21 293.5 749.06 293.12 747.99 292.57L747.99 292.57Z" /><path class="shp19" d="M716.81 318.98C716.56 318.91 716.3 318.79 716.04 318.68C715.92 318.6 715.8 318.54 715.67 318.47C715.46 318.35 715.28 318.06 715.15 317.85C714.98 317.54 714.8 317.21 714.68 316.85C714.55 316.44 714.41 316.01 714.42 315.59C714.43 315.1 714.45 314.61 714.45 314.12C714.48 313.14 714.5 312.15 714.51 311.16C714.52 308.59 714.49 305.94 714.44 303.27C714.4 300.59 714.26 297.96 714.15 295.38C714.05 292.81 713.91 290.3 713.72 287.85C713.52 290.29 713.36 292.8 713.26 295.38C713.15 297.96 713.2 300.6 713.25 303.29C713.29 305.98 713.44 308.61 713.61 311.19C713.62 311.28 713.62 311.36 713.63 311.46C713.7 312.44 713.78 313.41 713.86 314.39C713.94 315.17 714.08 316.39 713.27 316.84C713.05 316.96 712.72 316.83 712.52 316.7C712.22 316.5 711.94 316.27 711.62 316.1C710.81 315.62 709.08 315.19 709.08 315.19L709.08 317.77C709.22 317.66 709.38 317.55 709.53 317.45C709.72 317.33 709.9 317.19 710.12 317.15C710.85 317 711.58 317.35 712.1 317.84C712.25 317.98 712.39 318.12 712.52 318.25C712.97 318.7 713.51 319.16 714.17 319.21C714.47 319.24 714.64 319.29 714.81 319.58C715.26 320.36 715.13 321.15 715.11 322C715.09 322.73 715.08 323.46 715.06 324.19C715.03 326.12 715.01 328.04 715 329.97C715 331.94 715.01 333.92 715.03 335.9C715.08 338.88 715.11 341.79 715.19 344.63C715.2 346.06 715.23 347.47 715.26 348.86C715.28 350.25 715.21 351.61 715.2 352.97C715.4 351.64 715.64 350.28 715.78 348.88C715.88 347.5 715.99 346.08 716.08 344.65C716.2 341.79 716.28 338.86 716.23 335.89C716.2 333.92 716.15 331.94 716.06 329.97C715.97 328.06 715.85 326.15 715.7 324.24C715.65 323.53 715.6 322.82 715.52 322.1C715.49 321.76 715.47 321.41 715.43 321.06C715.4 320.8 715.59 320.4 715.73 320.17C715.95 319.79 716.31 319.66 716.73 319.65C717.06 319.64 717.41 319.57 717.71 319.42C718.02 319.26 718.22 319.01 718.36 318.73C718.12 318.92 717.86 319.04 717.6 319.07C717.34 319.09 717.07 319.05 716.81 318.98L716.81 318.98Z" /><path class="shp19" d="M744.52 363.08C744.47 362.5 744.42 361.9 744.36 361.31C744.31 360.71 744.24 360.11 744.2 359.51C744.11 358.92 744.01 358.33 743.9 357.72C743.7 356.54 743.51 355.33 743.3 354.12C742.45 349.29 741.05 344.45 739.95 339.51C739.66 338.28 739.46 337.03 739.22 335.8C739.03 334.56 738.8 333.33 738.66 332.11C738.34 329.64 738.09 327.18 737.93 324.76C737.79 322.34 737.68 319.93 737.67 317.55C737.63 315.18 737.68 312.83 737.79 310.53C737.48 312.82 737.27 315.16 737.15 317.54C737.02 319.93 736.99 322.35 737.04 324.81C737.11 327.26 737.28 329.74 737.55 332.23C737.67 333.49 737.89 334.75 738.06 335.99C738.29 337.25 738.5 338.51 738.78 339.76C739.9 344.76 741.39 349.54 742.43 354.29C742.69 355.48 742.94 356.66 743.19 357.84C743.31 358.42 743.47 359.01 743.57 359.59C743.66 360.19 743.74 360.77 743.85 361.36C743.94 361.94 744.02 362.53 744.11 363.11C744.22 363.7 744.31 364.27 744.37 364.85C744.47 366.02 744.65 367.18 744.68 368.33C744.73 367.18 744.66 366.01 744.64 364.83C744.64 364.25 744.58 363.67 744.52 363.08L744.52 363.08Z" /></g><path class="shp12" d="M741.98 360.8C737.49 342.33 731.9 324.41 737.49 305.95C722.38 319.94 733.01 343.45 729.66 362.48C729.3 364.08 728.72 365.63 727.89 367.04C729.03 367.23 730.23 367.66 731.62 368.21C734.42 369.32 737.08 370.17 740.44 369.05C741.22 368.79 741.84 368.69 742.37 368.69C742.36 366.06 742.86 363.43 741.98 360.8L741.98 360.8Z" /><g ><g ><g clip-path="url(#cp1)"><g ><path class="shp20" d="M741.25 319.78L774.15 309.43L791.63 364.93L758.73 375.28L741.25 319.78Z" /><path class="shp12" d="M762.42 374.11L768.42 348.55L787.97 366.07L791.65 364.92L789.69 358.71L770.14 341.17L776.12 315.62L774.16 309.41L770.49 310.57L764.5 336.14L744.95 318.6L741.27 319.76L743.22 325.97L762.78 343.49L756.79 369.06L758.74 375.26L762.42 374.11Z" /><path class="shp12" d="M752.23 316.31L763.2 312.86L770.48 335.99L781.45 332.54L784.37 341.79L773.4 345.24L780.68 368.36L769.71 371.81L762.43 348.68L751.46 352.14L748.56 342.89L759.52 339.43L752.23 316.31Z" /><path class="shp21" d="M754.42 315.62L761.01 313.56L768.87 338.52L782.04 334.39L783.78 339.94L770.62 344.08L778.48 369.06L771.91 371.12L764.05 346.15L750.88 350.28L749.13 344.73L762.29 340.59L754.42 315.62Z" /></g></g></g></g><path class="shp11" d="M761.44 315.47C760.85 314.69 761.2 313.61 759.86 312.58C758.53 311.55 758.32 309.32 758.62 306.53C758.94 303.75 761.62 298.25 761.49 291.72C761.36 285.94 758.88 278.91 756.84 274.9C752.45 278.9 754.05 284.81 756.53 290.28C756.06 290.44 755.64 290.6 755.22 290.76C755.13 291.13 755.02 291.69 754.9 292.36C758.09 297.21 758.3 304.47 755.02 309.43C755 309.89 754.95 310.26 754.88 310.53C754.3 312.58 753.56 315.9 753.81 317.2C754.07 318.49 754.49 317.99 754.89 316.91C755.31 315.83 756.11 315.2 756.11 315.2C756.11 315.2 758.88 319.05 759.4 320.25C759.93 321.46 760.88 321.1 760.18 319.43C759.47 317.76 758.5 316.31 758.5 316.31C758.5 316.31 761.08 317.83 761.49 318.29C761.91 318.75 762.13 317.71 760.92 316.7L761.83 316.85C761.83 316.86 762.04 316.23 761.44 315.47L761.44 315.47Z" /></g></g><g ><path class="shp22" d="M772.72 219.24C773.41 211.57 766.42 208.45 766.42 208.45L749.5 223.8C749.5 223.8 755.81 227.13 755.97 234.75L772.61 220.97C772.64 220.4 772.68 219.83 772.72 219.24Z" /><path class="shp21" d="M779.43 235.61C774.7 233.19 772.41 227.82 772.62 220.97L755.97 234.75C755.98 234.79 755.98 234.82 755.98 234.85C756.06 240.33 758.09 245.49 761.17 247.84C765.74 251.33 767.36 253.71 769.71 257.25L772.86 243.05L786.63 244.46C786.42 240.38 784.55 238.24 779.43 235.61L779.43 235.61Z" /><path class="shp23" d="M749.5 223.8L766.42 208.45L767.36 214.44L748.21 232.19L749.5 223.8Z" /><path class="shp22" d="M577.28 219.24C576.59 211.57 583.57 208.45 583.57 208.45L600.5 223.8C600.5 223.8 594.2 227.13 594.03 234.75L577.39 220.97C577.37 220.4 577.33 219.83 577.28 219.24Z" /><path class="shp21" d="M570.56 235.61C575.29 233.19 577.6 227.82 577.38 220.97L594.03 234.75C594.03 234.79 594.03 234.82 594.03 234.85C593.94 240.33 591.9 245.49 588.83 247.84C584.27 251.33 582.65 253.71 580.29 257.25L577.14 243.05L563.37 244.46C563.57 240.38 565.45 238.24 570.56 235.61L570.56 235.61Z" /><path class="shp23" d="M600.5 223.8L583.57 208.45L582.65 214.44L601.8 232.19L600.5 223.8Z" /><path class="shp21" d="M675 200.28C703.92 200.28 729.97 212.56 748.21 232.19L767.36 214.44C744.35 189.68 711.49 174.19 675 174.19C638.5 174.19 605.65 189.68 582.64 214.44L601.8 232.19C620.03 212.56 646.08 200.28 675 200.28L675 200.28Z" /><g ><path class="shp17" d="M606.13 219.84L599.18 211.38L596.53 213.55L594.04 210.52L602.33 203.73L604.81 206.77L602.18 208.92L609.13 217.39L606.13 219.84Z" /><path class="shp17" d="M616.03 212.29L608.33 199.55L616.64 194.56L618.67 197.92L613.68 200.92L614.44 202.18L619.32 199.24L621.35 202.6L616.48 205.54L617.32 206.93L622.3 203.93L624.33 207.29L616.03 212.29Z" /><path fill-rule="evenodd" class="shp17" d="M635.74 202.1L632.32 198.44L631.03 198.97L632.82 203.3L629.24 204.78L623.57 191.02L629.87 188.42C632.63 187.29 635 188.82 636.06 191.39C637.05 193.76 636.38 195.5 635.66 196.43L639.82 200.41L635.74 202.1ZM632.43 192.87C632.12 192.13 631.42 192.03 630.82 192.28L628.63 193.18L629.54 195.35L631.71 194.45C632.31 194.2 632.75 193.63 632.43 192.87Z" /><path fill-rule="evenodd" class="shp17" d="M651.77 197.2L648.96 193.05L647.61 193.37L648.69 197.93L644.93 198.82L641.49 184.35L648.13 182.78C651.03 182.1 653.14 183.98 653.78 186.69C654.37 189.19 653.44 190.8 652.58 191.61L656.06 196.19L651.77 197.2ZM648.45 186.74L646.15 187.27L646.69 189.56L648.99 189.01C649.63 188.86 650.14 188.37 649.95 187.57C649.77 186.79 649.08 186.59 648.45 186.74Z" /><path fill-rule="evenodd" class="shp17" d="M669.85 194.77L669.26 193.07L664.68 193.4L664.34 195.17L659.97 195.49L663.6 180.32L668.44 179.96L674.23 194.45L669.85 194.77ZM666.33 184.55L665.42 189.42L667.94 189.23L666.33 184.55Z" /><path class="shp17" d="M695.84 196.69L692.49 188.45L691.21 195.87L687.39 195.21L689.93 180.56L693.86 181.24L697.03 188.95L698.24 182.01L702.06 182.67L699.51 197.32L695.84 196.69Z" /><path fill-rule="evenodd" class="shp17" d="M716.25 186.7C719.98 188.03 721.77 192 720.23 196.3C718.68 200.6 714.75 202.52 711.03 201.18C707.32 199.85 705.52 195.88 707.06 191.58C708.6 187.28 712.53 185.37 716.25 186.7ZM716.53 194.98C717.24 193.03 716.65 191.07 714.91 190.43C713.15 189.81 711.46 190.96 710.75 192.91C710.05 194.85 710.63 196.82 712.38 197.45C714.13 198.07 715.83 196.93 716.53 194.98Z" /><path class="shp17" d="M724.93 207L728.11 191.72L731.94 193.86L729.44 203.95L736.75 196.56L740.57 198.7L729.18 209.37L724.93 207Z" /><path fill-rule="evenodd" class="shp17" d="M743.02 219.12L743.75 217.47L740.13 214.62L738.69 215.7L735.24 212.98L748.19 204.24L752 207.24L746.46 221.83L743.02 219.12ZM747.36 209.2L743.38 212.17L745.37 213.74L747.36 209.2Z" /></g></g><g ><path class="shp24" d="M598.17 387.04L600.86 389.31L601.61 388.4C602.14 387.79 602.86 386.91 603.21 386.44L604.63 387.63C604.21 388.09 603.45 388.92 602.95 389.52L599.66 393.42C599.2 393.98 598.64 394.69 598.4 395.01L596.98 393.83C597.27 393.53 597.86 392.87 598.34 392.29L599.78 390.59L597.08 388.32L595.64 390.04C595.16 390.59 594.59 391.3 594.36 391.62L592.96 390.44C593.23 390.15 593.83 389.48 594.31 388.9L597.58 385.01C598.23 384.25 598.94 383.36 599.17 383.06L600.57 384.24C600.31 384.51 599.57 385.37 598.92 386.14L598.17 387.04Z" /><path fill-rule="evenodd" class="shp24" d="M604.8 399.69C604.95 399.41 605.14 399.09 605.36 398.63L605.83 397.67L603.85 396.27L602.74 396.94C602.23 397.25 601.95 397.44 601.76 397.58L600.17 396.47C600.78 396.2 601.42 395.82 602.25 395.3L609.42 391.15L611.58 392.65C612.23 393.11 612.79 393.46 613.15 393.68L612.14 395.16C611.86 394.9 611.49 394.64 610.84 394.19L609.69 393.37L608.63 395.61L609.61 396.3C610.25 396.75 610.66 397.01 610.98 397.21L609.97 398.64C609.71 398.44 609.38 398.19 608.84 397.81L607.92 397.16L606.98 399.16L607.92 399.8C608.57 400.26 609.03 400.57 609.31 400.73L608.32 402.2C608.04 401.98 607.64 401.68 606.98 401.21L604.8 399.69ZM605.31 395.26L606.56 396.12L607.7 393.76L605.31 395.26Z" /><path class="shp24" d="M615.67 404.61C616.35 404.98 617.1 405.12 617.82 404.89L616.72 406.82C616.04 406.6 615.55 406.56 614.66 406.05C612.41 404.77 611.94 401.92 613.32 399.51C614.69 397.13 617.38 396.09 619.62 397.37C620.53 397.89 620.79 398.3 621.28 398.68L620.14 400.67C619.98 399.92 619.52 399.35 618.86 398.98C617.49 398.2 615.72 398.84 614.84 400.38C613.95 401.93 614.28 403.81 615.67 404.61L615.67 404.61Z" /><path class="shp24" d="M624.8 405.11C625.59 405.47 625.88 406.54 625.44 407.45C625 408.38 624.02 408.84 623.22 408.46C622.42 408.09 622.13 407.04 622.57 406.11C622.99 405.19 624.01 404.73 624.8 405.11Z" /><path class="shp24" d="M636.38 405.21C637.16 405.51 638.08 405.81 638.43 405.91L637.8 407.6C637.47 407.44 636.58 407.09 635.81 406.78L635.3 406.6C635.11 407.09 634.86 407.75 634.66 408.28L633.38 411.7C633.05 412.6 632.67 413.67 632.55 414.08L630.8 413.43C630.98 413.03 631.4 411.98 631.73 411.09L633.01 407.67C633.21 407.13 633.45 406.48 633.61 405.98L633.11 405.79C632.34 405.5 631.45 405.2 631.1 405.09L631.72 403.42C632.05 403.56 632.92 403.93 633.69 404.21L636.38 405.21Z" /><path class="shp24" d="M641.62 414.38C641.35 415.29 641.05 416.39 640.95 416.81L639.19 416.29C639.33 415.88 639.69 414.8 639.95 413.9L641.25 409.47C641.52 408.55 641.82 407.45 641.92 407.04L643.68 407.56C643.53 407.95 643.18 409.04 642.92 409.96L641.62 414.38Z" /><path fill-rule="evenodd" class="shp24" d="M647.43 411.53C647.63 410.59 647.93 409.13 647.99 408.72L650.39 409.23C652.3 409.65 652.72 410.97 652.49 412.08C652.31 412.97 651.74 413.54 651.12 413.71C651.79 414.18 652.36 415.17 652.08 416.44C651.74 417.98 650.43 419.12 648.4 418.67L645.93 418.15C646.05 417.73 646.31 416.62 646.51 415.68L647.43 411.53ZM648.62 414.19L648.03 416.95L648.6 417.06C649.48 417.26 650.18 416.9 650.37 416.01C650.56 415.13 650.09 414.5 649.28 414.32L648.62 414.19ZM648.94 412.74L649.51 412.86C650.09 412.98 650.62 412.7 650.77 412C650.92 411.32 650.54 410.81 649.88 410.66L649.41 410.56L648.94 412.74Z" /><path class="shp24" d="M658.21 417.86C658.07 418.8 657.93 419.92 657.89 420.35L656.08 420.1C656.17 419.66 656.35 418.55 656.48 417.6L657.14 413.04C657.28 412.09 657.42 410.97 657.46 410.54L659.27 410.81C659.18 411.22 659 412.35 658.86 413.31L658.21 417.86Z" /><path class="shp24" d="M665.1 415.8C665.99 415.87 666.62 416.77 666.53 417.78C666.45 418.8 665.68 419.57 664.8 419.5C663.92 419.44 663.28 418.55 663.36 417.53C663.44 416.52 664.22 415.73 665.1 415.8L665.1 415.8Z" /><path fill-rule="evenodd" class="shp24" d="M671.45 421.52C671.49 421.09 671.5 419.96 671.5 419.01L671.45 414.4C671.45 413.44 671.41 412.3 671.37 411.88L674.26 411.84C676.55 411.82 678.44 413.97 678.46 416.63C678.49 419.29 676.63 421.48 674.35 421.5L671.45 421.52ZM673.25 419.85L674.2 419.83C675.61 419.82 676.73 418.36 676.71 416.65C676.69 414.95 675.56 413.51 674.14 413.51L673.2 413.52L673.25 419.85Z" /><path fill-rule="evenodd" class="shp24" d="M686.43 411.08C688.94 410.81 691.05 412.84 691.33 415.59C691.62 418.33 689.97 420.77 687.46 421.02C684.98 421.27 682.85 419.24 682.56 416.5C682.29 413.74 683.96 411.31 686.43 411.08ZM689.58 415.77C689.39 413.95 688.1 412.62 686.61 412.77C685.13 412.93 684.14 414.5 684.33 416.31C684.51 418.12 685.8 419.45 687.28 419.3C688.77 419.16 689.77 417.57 689.58 415.77Z" /><path class="shp24" d="M698.37 419.24L696.63 419.6C696.58 419.21 696.41 418.32 696.26 417.59L695.22 412.66C695.05 411.83 694.78 410.71 694.61 409.96L694.97 409.89C695.63 410.42 696 410.69 696.46 411.05L700.99 414.64L700.33 411.54C700.18 410.74 699.93 409.64 699.79 409.07L701.52 408.72C701.62 409.32 701.82 410.44 701.97 411.19L703.02 416.21C703.15 416.78 703.33 417.53 703.54 418.32L703.18 418.39C702.72 418 702.35 417.68 701.88 417.33L697.14 413.58L697.9 417.26C698.04 417.97 698.25 418.85 698.37 419.24L698.37 419.24Z" /><path fill-rule="evenodd" class="shp24" d="M713.62 415.24C713.43 414.95 713.14 414.57 712.86 414.21L712.19 413.34L709.44 414.19L709.39 415.26C709.37 415.79 709.36 416.18 709.37 416.57L707.6 417.13C707.71 416.44 707.81 415.67 707.85 414.8L708.41 406.59L708.87 406.44L714.11 412.83C714.66 413.5 715.23 414.12 715.7 414.58L713.62 415.24ZM709.61 409.9L709.5 412.45L711.14 411.94L709.61 409.9Z" /><path class="shp24" d="M719.25 407.46C720.06 407.13 721.04 407.64 721.42 408.58C721.81 409.53 721.47 410.56 720.66 410.89C719.85 411.24 718.87 410.74 718.49 409.79C718.1 408.85 718.43 407.81 719.25 407.46L719.25 407.46Z" /><path class="shp24" d="M726.45 407.35L724.39 403.23C723.95 402.35 723.44 401.36 723.23 400.99L725.57 399.81C726.3 399.44 727.03 399.05 727.37 398.86L728.16 400.46C727.81 400.59 727.05 400.96 726.31 401.32L725.58 401.68L726.68 403.89L727.32 403.58C728.03 403.22 728.59 402.91 728.9 402.72L729.71 404.32C729.36 404.45 728.78 404.72 728.06 405.08L727.43 405.38L728.02 406.56C728.44 407.42 728.97 408.42 729.18 408.79L727.53 409.62C727.37 409.22 726.88 408.2 726.45 407.35L726.45 407.35Z" /><path class="shp24" d="M733.29 397.5L734.37 399.29L734.96 398.94C735.67 398.52 736.34 398.09 736.65 397.87L737.57 399.4C737.23 399.57 736.52 399.96 735.83 400.37L735.24 400.73L736.53 402.87L737.29 402.42C738 401.99 738.74 401.54 739.04 401.32L739.96 402.85C739.63 403.02 738.86 403.43 738.15 403.87L735.85 405.24C735.48 404.57 734.93 403.6 734.59 403.06L732.22 399.1C731.71 398.27 731.12 397.33 730.89 396.98L733.1 395.65C733.81 395.23 734.54 394.74 734.83 394.53L735.76 396.07C735.43 396.23 734.66 396.66 733.96 397.09L733.29 397.5Z" /><path fill-rule="evenodd" class="shp24" d="M743.97 397.12C744.53 397.89 745.18 398.78 745.46 399.11L743.96 400.19C743.73 399.81 743.11 398.92 742.55 398.13L739.85 394.37C739.29 393.6 738.6 392.69 738.33 392.36L740.34 390.92C741.95 389.76 743.57 390.16 744.6 391.57C745.48 392.81 745.31 393.88 744.79 394.65C746.29 395.1 747.99 395.93 749.49 396.22L747.63 397.56C746.75 397.25 744.89 396.44 743.77 395.77C743.71 395.84 743.65 395.88 743.6 395.92L743.28 396.15L743.97 397.12ZM742.42 394.97L742.97 394.59C743.6 394.13 743.69 393.32 743.2 392.64C742.75 392.03 741.95 391.73 741.2 392.26L740.72 392.61L742.42 394.97Z" /><path fill-rule="evenodd" class="shp24" d="M755.66 384.66C757.49 386.74 757.52 389.68 755.63 391.33C753.75 392.96 750.83 392.54 749.02 390.46C747.2 388.38 747.17 385.44 749.04 383.8C750.94 382.14 753.85 382.58 755.66 384.66ZM754.34 385.82C753.14 384.45 751.3 384.11 750.18 385.1C749.06 386.07 749.15 387.93 750.35 389.3C751.55 390.67 753.38 391.01 754.51 390.03C755.62 389.05 755.53 387.19 754.34 385.82Z" /></g><g ><path class="shp10" d="M627.86 363.84C627.86 363.84 628.8 366.64 630.22 366.56C631.63 366.49 634.98 367.42 635.1 368.02C635.22 368.6 634.44 370.19 631.47 370.31C628.53 370.43 627.11 368.18 623.96 368.25C620.8 368.34 621.91 365.71 621.91 365.71L627.86 363.84Z" /><path class="shp11" d="M596.45 363.84C596.45 363.84 594.79 359.48 591.96 360.51C589.14 361.54 589.6 366.67 588.95 367.31C588.29 367.97 585.03 367.87 584.47 368.9C583.91 369.93 582.6 371.61 583.34 372.07C584.1 372.54 585.5 372.07 586.89 371.41C588.3 370.76 591.93 369.74 592.97 370.67C593.99 371.61 596.45 363.84 596.45 363.84L596.45 363.84Z" /><path class="shp25" d="M615.37 363.6C610.23 364.06 605.1 363.74 600.28 362.01L596.49 362.69C602.24 366.46 608.8 366.62 615.37 363.6L615.37 363.6Z" /><path class="shp25" d="M600.24 346.81C597.6 346.81 595.15 347.39 592.67 348.1C592.65 348.67 592.66 349.98 592.93 351.59C594.63 349.09 597 347.21 600.24 346.81Z" /><path class="shp25" d="M592.97 344.57C598 346.25 599.13 341.77 603.04 340.64C598.56 338.97 597.45 343.99 592.97 344.57Z" /><path class="shp26" d="M610.89 350.16C615.92 355.2 617.6 361.91 620.4 368.64C620.68 369.17 621.34 369.44 622.13 369.65C623.19 368.67 623.9 367.3 624.05 365.41L624.68 365.19C621.27 359.35 619.24 349.65 610.89 350.16L610.89 350.16Z" /><path class="shp27" d="M618.73 331.55C618.73 331.55 623.34 334.35 626.7 333.65C630.07 332.95 635.11 330.02 635.11 330.02L635.11 323.43C635.11 323.43 634.56 323.32 633.79 323.28C632.49 324.42 632.51 326.97 630.48 327.77C629.92 327.77 630.48 326.1 629.37 326.1C628.25 326.1 628.8 327.77 627.68 327.77C627.68 326.1 626.56 325.54 625.44 325.54C620.27 326.06 614.61 323.7 612.46 319.35L600.8 314.36C600.8 314.36 595.74 319.14 592.07 324.46C590.73 327.9 590.14 331.4 592.4 335.05C592.96 335.05 594.08 335.05 594.63 335.05C592.96 336.17 591.28 336.74 590.73 338.98C589.83 342.08 592.1 343.77 594.74 344.07C597.85 342.68 599.22 339.23 603.03 340.66C600.27 341.44 598.9 343.9 596.56 344.69C596.04 345.74 595.39 346.7 594.66 347.57C596.47 347.13 598.29 346.82 600.24 346.82C596.99 347.22 594.63 349.1 592.93 351.59C593.52 354.97 595.35 359.71 600.8 361.92L600.28 362.02C605.09 363.75 610.23 364.07 615.36 363.61C608.79 366.64 602.24 366.47 596.49 362.7L596.18 362.76C596.18 362.76 593.66 369.2 592.4 371.16C591.15 373.12 594.78 372.7 597.31 372.01C599.83 371.3 606.4 371.57 609.91 371.87C612.54 372.08 618.92 372.68 622.13 369.67C621.35 369.46 620.68 369.18 620.41 368.65C617.61 361.93 615.92 355.21 610.89 350.17C619.24 349.66 621.27 359.36 624.68 365.2L628.52 363.89C628.52 363.89 625.44 357.58 625.44 356.33C625.44 355.07 631.04 342.75 626.98 337.02C624.75 333.67 615.23 336.75 615.23 336.75C615.23 336.75 618.73 333.64 618.73 331.55L618.73 331.55Z" /><path class="shp26" d="M592.97 344.57C593.63 344.48 594.22 344.3 594.75 344.06C592.1 343.76 589.83 342.07 590.73 338.97C591.28 336.73 592.97 336.17 594.64 335.04C594.09 335.04 592.97 335.04 592.4 335.04C590.16 331.39 590.73 327.89 592.08 324.45C589.92 327.57 588.25 330.86 588.35 333.51C588.35 336.73 589.61 335.18 589.61 335.18C589.61 335.18 587.22 339.38 587.37 340.92C587.51 342.46 589.61 341.62 589.61 341.62C589.61 341.62 587.37 346.66 592.69 347.78C592.69 347.78 592.68 347.9 592.67 348.1C593.33 347.91 594 347.72 594.67 347.56C595.4 346.69 596.05 345.73 596.57 344.68C595.6 345.02 594.44 345.06 592.97 344.57L592.97 344.57Z" /><path class="shp26" d="M629.91 324.55C629.91 324.55 625.86 324.27 624.88 324.84C624.88 324.84 620.82 323.72 619.7 322.46L612.46 319.34C614.61 323.7 620.27 326.06 625.44 325.53C626.56 325.53 627.68 326.1 627.68 327.77C628.8 327.77 628.25 326.1 629.37 326.1C630.48 326.1 629.92 327.77 630.48 327.77C632.51 326.97 632.49 324.42 633.79 323.28C632.59 323.21 630.87 323.35 629.91 324.55L629.91 324.55Z" /><path class="shp25" d="M620.97 340.64C619.28 346.25 614.25 347.37 610.32 350.16C616.81 352.94 621 359.18 624.16 365.37L625.41 364.95C622.01 357.3 619.46 349.2 620.97 340.64Z" /><path class="shp25" d="M626 331.14C623.2 330.57 622.08 326.65 618.73 328.33C618.16 328.89 618.16 330.01 617.61 331.14C618.16 330.02 617.04 328.89 616.5 328.33C613.69 327.77 608.09 326.1 609.76 330.57C610.33 333.34 613.08 335.02 615.86 336.14C616.86 335.15 618.73 333.09 618.73 331.56C618.73 331.56 623.35 334.36 626.71 333.65C630.07 332.96 635.11 330.02 635.11 330.02L635.11 327.12C631.59 327.48 629.44 332.12 626 331.14L626 331.14Z" /><path class="shp12" d="M590.3 320.22C590.3 322.46 606.12 318.26 612.28 329.18C613.26 331.7 615.92 329.32 616.21 327.64C616.5 325.96 617.68 322.86 619.18 322.24C619.18 322.24 620.82 320.65 616.34 317.43C611.87 314.21 601.79 310.02 596.6 316.32C596.6 316.31 590.3 316.72 590.3 320.22Z" /><path class="shp11" d="M602.06 316.02C602.06 316.02 611.58 317.7 613.96 324.98C615.5 319.23 612.15 315.47 612.99 313.64C612.99 313.64 614.66 313.37 615.78 311.82C615.78 311.82 618.72 312.66 618.02 308.88C618.02 308.88 619 307.77 618.73 306.23C618.73 306.23 620.12 305.53 620.12 305.11C620.12 304.69 617.04 302.45 617.04 301.19C617.04 299.93 616.76 298.11 616.76 298.11C616.76 298.11 613.41 295.04 611.86 298.11C610.32 301.19 602.06 308.05 602.06 308.05C602.06 308.05 604.02 311.54 602.06 316.02Z" /><path class="shp25" d="M606.4 338.41C601.01 337.42 598.19 332.17 594.94 327.48C594.49 331.52 601.18 339.15 607.33 341.86C613.68 344.66 619.93 347.54 621.61 347.83C623.3 348.11 630.76 348.49 631.69 348.39C631.92 348.37 632.15 347.89 632.35 347.2C629.87 346.81 627.43 346.74 625.43 346.25C618.73 343.44 614.25 339.52 606.4 338.41L606.4 338.41Z" /><path class="shp27" d="M627.64 339.9C624.49 340.67 621.17 340.79 618.16 341.21C618.73 340.1 619.28 338.41 618.16 337.29C612.54 334.74 610.18 329.86 608.12 324.78C604.72 323.46 596.53 321 595.02 327.11C595 327.23 594.98 327.36 594.95 327.48C598.2 332.17 601.01 337.42 606.41 338.41C614.25 339.52 618.73 343.44 625.44 346.25C627.44 346.74 629.87 346.8 632.36 347.2C632.99 345.03 633.47 340.64 633.47 340.64L627.64 339.9Z" /><path class="shp26" d="M618.16 337.28C619.27 338.4 618.72 340.09 618.16 341.21C621.16 340.79 624.49 340.68 627.64 339.9L626.18 339.72C626.18 339.72 616.11 333.28 615.36 332.91C614.61 332.54 611.63 326.19 608.64 324.98C608.48 324.91 608.31 324.85 608.11 324.77C610.18 329.85 612.54 334.73 618.16 337.28L618.16 337.28Z" /><path class="shp28" d="M600.43 304.83C600.46 305.02 600.54 305.21 600.68 305.39C601.46 306.42 600.4 307.91 600.4 307.91C600.4 307.91 599.02 310.26 602.8 310.4C602.8 310.4 606.72 307.72 609.45 309.78C609.45 309.78 609.57 308.47 608.64 307.72C608.64 307.72 610.13 305.95 610.89 305.02C611.63 304.09 610.04 302.31 610.89 301.28C611.01 301.12 611.11 300.96 611.19 300.8C607.16 302.28 604.03 306.55 600.43 304.83L600.43 304.83Z" /><path class="shp29" d="M611.1 296.06C611.1 296.06 608 295.41 607.34 295.97C607.34 295.97 604.73 295.88 603.04 297.37C601.37 298.86 600.07 300.83 600.99 302.93C600.99 302.93 600.25 303.91 600.43 304.83C604.03 306.56 607.16 302.29 611.19 300.81C611.57 299.97 611.25 299.19 611.52 298.69C611.87 298.11 612.57 297.93 613.64 298.3C614.72 298.67 616.76 298.11 616.76 298.11C616.76 298.11 613.92 293.91 611.1 296.06L611.1 296.06Z" /><path class="shp10" d="M611.56 303.18C611.56 303.18 613.03 302.9 613.51 302.27C613.99 301.63 614.99 301.26 615.59 301.76C615.59 301.76 615.18 302.78 613.99 303.1L614.17 303.35C614.17 303.35 616.48 302.59 616.19 301.36C615.9 300.14 614.72 300.06 613.89 300.54C613.05 301.02 613.32 302.36 611.56 303.18Z" /><path class="shp10" d="M618.02 308.89C618.02 308.89 618.43 308.41 618.64 307.66C617.95 307.51 616.77 307.39 616.45 308.36C616.45 308.36 617.37 308.59 618.03 308.92C618.02 308.91 618.02 308.9 618.02 308.89Z" /><path class="shp10" d="M611.67 312.22C611.67 312.22 611.83 313.25 612.93 313.83C612.95 313.76 612.96 313.7 612.99 313.64C612.99 313.64 613.73 313.51 614.56 312.98C613.57 312.89 612.23 312.68 611.67 312.22L611.67 312.22Z" /></g><g ><path class="shp30" d="M630.53 294.76C639.73 302.5 651.01 308.15 655.72 318.94L651.4 304.69L650.24 302.33C641.51 295.76 633.38 287.11 629.5 277.04L628.1 282.58C628.1 282.58 627.09 285.56 626.82 289.9C627.74 291.72 628.96 293.38 630.53 294.76L630.53 294.76Z" /><path class="shp21" d="M630.53 294.76C628.96 293.38 627.74 291.72 626.82 289.9C626.46 296.06 627.58 304.97 635.17 312.1C635.17 312.1 634.8 314.45 634.61 317.71C636.47 316.68 638.41 316.35 639.99 317.14C644.57 319.22 650.72 320.68 655.87 319.44L655.72 318.94C651.01 308.15 639.73 302.5 630.53 294.76L630.53 294.76Z" /><path class="shp31" d="M650.25 302.33L640.56 282.58L638.87 269.85L631.31 269.85L629.5 277.04C633.38 287.11 641.51 295.76 650.25 302.33L650.25 302.33Z" /><path class="shp21" d="M658.02 352.85C659.47 357.66 660.16 362.65 659.04 368.07C658.48 368.64 656.8 369.19 656.23 368.64C650.08 362.47 653.99 352.4 647.84 346.81C646.72 349.04 646.72 350.73 647.28 352.96C648.96 359.12 652.32 365.84 648.4 371.43C647.84 371.99 645.6 371.99 645.04 370.87C640.73 360.84 642.14 345.07 632.86 338.61C631.42 339.69 625.15 345.53 634.53 359.54C634.53 359.54 632.86 365.84 633.15 366.54C633.42 367.23 636.08 369.05 636.08 369.05C636.08 369.05 635.53 370.97 635.71 372.72C636.8 372.87 637.88 373.01 638.94 373.11C647.99 374.11 656.59 370.62 665.54 371.51L665.15 363.9C662.02 360.9 659.69 357.02 658.02 352.85L658.02 352.85Z" /><path class="shp30" d="M665.54 371.5C656.58 370.61 647.99 374.11 638.94 373.1C637.88 373 636.8 372.87 635.7 372.71C635.81 373.77 636.17 374.73 637.05 375.21C637.75 375.57 638.4 376.13 639.08 376.72C647.67 373.72 657.33 373.9 665.95 375.99C666.04 375.15 665.93 374.2 665.62 373.09L665.54 371.5Z" /><path class="shp21" d="M639.08 376.71C640.72 378.15 642.35 379.8 644.33 379.41C647.13 378.84 649.51 377.42 654.69 379.47C659.12 381.21 665.51 380.82 665.95 375.98C657.33 373.9 647.67 373.71 639.08 376.71Z" /><path class="shp31" d="M645.04 370.87C645.6 371.99 647.84 371.99 648.4 371.42C652.32 365.83 648.96 359.12 647.28 352.96C646.72 350.72 646.72 349.04 647.84 346.8C654 352.39 650.08 362.47 656.23 368.63C656.8 369.18 658.48 368.63 659.04 368.06C661.84 354.64 653.44 343.99 650.08 331.69C649.14 327 649.38 322.56 657.19 323.76L655.87 319.44C650.72 320.67 644.58 319.22 639.99 317.13C638.41 316.35 636.47 316.67 634.61 317.7C634.44 320.96 634.44 325.1 635.17 328.74C635.17 328.74 632.02 332.67 633.14 338.4C633.14 338.4 633.03 338.46 632.86 338.59C642.14 345.07 640.73 360.83 645.04 370.87L645.04 370.87Z" /><path class="shp10" d="M625.44 281.88C625.44 280.57 625.24 279.45 624.74 278.53C624.74 278.63 624.74 278.71 624.74 278.81C624.74 278.81 624.11 279.19 623.13 279.8C624.03 280.23 624.82 280.89 625.44 281.88Z" /><path class="shp11" d="M656.8 305.94C657.92 306.51 659.04 305.39 659.59 305.39C664.08 303.15 663.51 297.55 660.72 293.63C661.84 293.63 662.96 292.52 662.96 291.96C662.96 282.64 658.64 269.01 668.65 265.7C668.99 264.92 669.33 264.39 669.68 264.18L663.08 260.48L640.98 259.07L633.15 261.32C633.15 261.32 629.93 265.51 629.93 268.73C629.93 268.73 624.78 273.19 624.74 278.53C625.25 279.45 625.45 280.56 625.45 281.88C624.83 280.88 624.03 280.22 623.14 279.79C620.16 281.65 613.87 285.61 611.87 287.2C609.21 289.29 606.41 287.89 605.43 288.32C604.45 288.73 598.02 291.81 598.02 291.81C598.02 291.81 600.95 295.03 603.33 293.77C603.33 293.77 605.99 294.89 608.38 293.49C610.75 292.09 614.11 290.69 615.58 290.55C617.05 290.41 627.55 285.93 629.09 285.65C630.62 285.37 634.4 280.73 634.27 277.03C634.27 277.03 636.09 274.74 636.51 271.66C636.51 271.66 637.49 273.2 637.69 276.28C637.9 279.36 637.06 290.27 637.06 290.27L637.37 291.7C637.99 292.41 638.67 293.05 639.44 293.63C648.53 301.75 654.74 313.13 651.49 324.29C652.05 326.37 655.46 338.67 658.23 342.43C660.28 343.14 662.47 343.43 664.08 343.43C665.73 343.15 666.7 341.81 667.53 340.17C667.35 337.16 667.24 333.21 667.12 329.05C664.92 326.42 663.45 323.07 662.4 319.93C660.72 314.9 659.04 310.43 656.8 305.94L656.8 305.94Z" /><path class="shp10" d="M668.65 265.7C658.64 269.01 662.96 282.64 662.96 291.96C662.96 292.52 661.84 293.63 660.72 293.63C663.51 297.55 664.07 303.15 659.59 305.39C659.04 305.39 657.92 306.51 656.8 305.94C659.04 310.43 660.72 314.9 662.4 319.94C663.45 323.08 664.92 326.43 667.11 329.06C666.85 320.57 666.49 311.11 665.2 306.51C663.18 299.35 665.69 272.55 668.65 265.7L668.65 265.7Z" /><path class="shp10" d="M667.42 358.76C667.56 355.73 668.71 349.8 667.85 343.87C667.73 342.92 667.62 341.66 667.53 340.18C666.7 341.83 665.73 343.17 664.08 343.45C662.47 343.45 660.28 343.16 658.23 342.44C658.24 342.45 658.25 342.46 658.25 342.47C658.25 342.47 659.72 352.96 663.09 358C663.09 358 662.6 360.01 662.73 361.47C663.23 360.41 663.79 359.41 664.64 358.55C665.67 358.04 666.57 358.24 667.42 358.76L667.42 358.76Z" /><path class="shp11" d="M667.44 359.95C667.4 359.64 667.4 359.23 667.42 358.76C666.57 358.24 665.67 358.04 664.63 358.55C663.78 359.41 663.21 360.41 662.72 361.47C662.77 361.94 662.88 362.35 663.08 362.62C663.94 363.73 663.08 371.85 663.08 371.85C663.08 371.85 663.38 375.07 672.33 371.14C672.34 371.14 667.71 362.34 667.44 359.95Z" /><path class="shp21" d="M664.33 258.96C655.6 262.47 645.93 265.1 640.02 256.7C635.17 256.67 633.15 261.33 633.15 261.33C644.27 260.48 651.63 264.96 651.63 264.96C660.88 261.46 669.68 264.19 669.68 264.19C668.78 261.06 666.2 259.62 664.33 258.96L664.33 258.96Z" /><path class="shp30" d="M664.33 258.96C663.15 258.55 662.26 258.45 662.26 258.45C661.14 256.63 660.86 256.14 657.85 256.22C654.84 256.29 652.11 255.73 647.69 254.78C643.28 253.83 640.89 256.76 640.89 256.76C640.59 256.73 640.3 256.71 640.02 256.71C645.94 265.1 655.6 262.47 664.33 258.96Z" /><path class="shp10" d="M658.19 253.43C658.56 251.34 656.97 249.87 656.97 249.87L649.95 246.47L647.49 248.68C647.49 248.68 647.55 249.84 647.37 251.29C650.68 253.1 654.38 254.21 658.16 254.77C658.12 254.35 658.12 253.89 658.19 253.43L658.19 253.43Z" /><path class="shp17" d="M658.24 238.69C658.24 238.69 649.38 238.13 643.47 242.99C643.47 242.99 644.26 246.48 647.37 248.76C647.37 248.76 647.19 249.47 645.86 249.7C645.86 249.7 646.31 250.78 647.41 250.91L654.36 244.8L658.24 238.69Z" /><path class="shp11" d="M647.36 251.28C647.18 252.67 646.77 254.33 645.85 255.48L650.67 262.22L659 257.35C659 257.35 658.3 256.24 658.15 254.77C654.38 254.2 650.68 253.1 647.36 251.28Z" /><path class="shp11" d="M662.78 239.35C662.78 239.35 662.39 243.58 664.3 244.71C664.3 244.71 664.56 246.1 663.13 246.32C663.13 246.32 662.99 248.11 663.08 248.76C663.08 248.76 662.64 249.36 662.3 249.41C662.3 249.41 662.17 249.88 661.79 250.15C661.79 250.15 662.04 251.49 661.79 252.19C661.52 252.89 659.92 253.98 658.52 253.54C657.13 253.1 654.73 251.97 653.56 250.45C653.56 250.45 651.52 248.33 650.86 248.02C650.21 247.72 647.25 245.15 648.52 243.63C649.78 242.11 651.83 242.81 651.83 242.81C651.83 242.81 652.74 239.86 654.48 239.36C656.21 238.85 659.85 238.16 662.78 239.35L662.78 239.35Z" /><path class="shp10" d="M661.78 250.15C662.17 249.89 662.29 249.41 662.29 249.41C662.64 249.37 663.07 248.76 663.07 248.76L659.84 248.76C659.85 248.76 660.14 249.79 661.78 250.15L661.78 250.15Z" /><path class="shp10" d="M656.94 243.07C656.94 243.07 656 242.15 658.7 241.04C658.7 241.04 660.66 240.71 661.32 242.51C661.32 242.51 661.32 244.16 658.86 243.32C658.86 243.32 659.29 242.75 659.84 242.05C659.84 242.05 658.53 240.77 657.39 243.15L656.94 243.07Z" /><g ><path class="shp14" d="M656.25 233.13C656.25 233.13 656.74 227.33 651.35 227.33C645.96 227.33 642.32 229.85 642.32 229.85C642.32 229.85 651.35 233.13 656.25 233.13L656.25 233.13Z" /><path class="shp32" d="M662.78 237.89C661.71 233.5 657.76 230.23 653.02 230.23C647.47 230.23 642.97 234.73 642.97 240.28C642.97 240.76 643.02 241.23 643.08 241.69C647.1 238.9 652 237.27 657.27 237.27C659.16 237.27 661.01 237.49 662.78 237.89L662.78 237.89Z" /><path class="shp33" d="M651.75 230.33C649.15 230.65 646.87 231.98 645.28 233.89C644.98 236.05 645.05 238.2 645.35 240.31C648.39 238.65 651.8 237.6 655.45 237.34C654.66 234.79 653.56 232.37 651.75 230.33L651.75 230.33Z" /><path class="shp34" d="M642.57 243.74C642.06 243.74 641.54 243.5 641.21 243.04C640.67 242.29 640.83 241.25 641.58 240.7C646.15 237.36 651.59 235.6 657.28 235.6C659.41 235.6 661.57 235.85 663.62 236.36C664.53 236.58 665.09 237.49 664.87 238.39C664.65 239.29 663.74 239.84 662.84 239.62C661.02 239.18 659.14 238.95 657.28 238.95C652.31 238.95 647.55 240.49 643.57 243.41C643.26 243.63 642.91 243.74 642.57 243.74L642.57 243.74Z" /><path class="shp12" d="M651.61 234.03C651.61 234.03 652.11 228.23 646.71 228.23C641.33 228.23 637.68 230.75 637.68 230.75C637.68 230.75 646.72 234.03 651.61 234.03Z" /></g><path class="shp31" d="M664.63 331.69C667.44 332.25 666.32 336.17 668.56 337.28C670.23 337.84 670.8 335.04 670.8 334.49C664.77 319.7 661.43 304.37 664.96 288.51L663.08 286.09C663.08 286.09 660.15 330.01 660.58 338.12C660.58 338.12 660.66 338.27 660.84 338.49C663.11 337.08 664.63 334.96 664.63 331.69Z" /><path class="shp21" d="M665.15 288.74L664.96 288.51C661.42 304.37 664.77 319.7 670.8 334.5C670.8 335.04 670.23 337.84 668.56 337.28C666.32 336.17 667.44 332.25 664.63 331.69C664.63 334.96 663.11 337.08 660.84 338.49C661.31 339.08 662.44 340.19 664.32 340.09C664.32 340.09 665.05 346.3 668.06 345.79C668.06 345.79 669.13 342.32 671.08 340.36C672.51 338.94 673.2 334.75 673.24 331.66C666.26 318.56 664.39 303.3 665.15 288.74Z" /><path class="shp30" d="M673.24 331.66C673.26 330.52 673.18 329.53 673.04 328.89C672.48 326.52 666.06 313.39 666.89 290.98L665.15 288.74C664.39 303.3 666.26 318.56 673.24 331.66L673.24 331.66Z" /><path class="shp10" d="M637.76 272.79C638.57 273.8 639.82 274.58 641.28 274.82C642.76 275.1 644.24 274.47 645.18 273.63C643.86 273.78 642.71 273.87 641.46 273.65C640.22 273.44 639 273.16 637.76 272.79Z" /><path class="shp10" d="M652.82 274.33C654 275.21 655.49 275.82 657.13 275.91C658.77 276 660.46 275.41 661.47 274.33C660 274.63 658.68 274.62 657.2 274.57C656.25 274.51 655.06 274.44 652.82 274.33L652.82 274.33Z" /><path class="shp10" d="M642.92 271.81C643.23 271.81 643.47 272.03 643.47 272.3C643.47 272.57 643.23 272.79 642.92 272.79C642.62 272.79 642.37 272.57 642.37 272.3C642.37 272.03 642.62 271.81 642.92 271.81Z" /><path class="shp10" d="M657.25 274.32C656.7 274.32 656.26 273.98 656.26 273.56C656.26 273.13 656.7 272.79 657.25 272.79C657.8 272.79 658.24 273.13 658.24 273.56C658.24 273.98 657.8 274.32 657.25 274.32Z" /><path class="shp10" d="M650.8 309.64C651.9 307.5 653.48 304.65 654.56 303.57C654.56 303.57 651.83 304.88 648.89 305.38C649.64 306.77 650.28 308.2 650.8 309.64L650.8 309.64Z" /><g ><path class="shp10" d="M661.57 271.37C661.61 271.68 661.66 271.99 661.73 272.3C662.48 275.76 665.38 279.49 666.85 281.2C666.72 276.79 665.72 271.42 661.57 271.37L661.57 271.37Z" /><path class="shp11" d="M673.18 285.59C673.27 285.49 673.31 285.43 673.31 285.43C674.53 268.83 668.55 263.23 668.55 263.23C663.15 262.18 661 266.92 661.57 271.37C665.72 271.43 666.71 276.79 666.85 281.21C667.37 281.81 667.71 282.17 667.71 282.17C665.57 282.82 660.52 288.51 660.52 288.51C660.52 288.51 660.48 288.5 660.42 288.49C660.89 289.54 661.23 290.66 661.55 291.67C661.57 291.67 661.58 291.67 661.59 291.67C664.15 288.17 668.62 286.55 673.18 285.59L673.18 285.59Z" /><path class="shp10" d="M661.61 291.66C664.21 291.24 667.16 290.87 668.56 290C670.49 288.79 672.63 286.26 673.18 285.6C668.62 286.55 664.15 288.17 661.61 291.66L661.61 291.66Z" /><path class="shp10" d="M661.56 291.67C661.56 291.67 659.52 292.08 658.39 292.7C657.25 293.32 651.37 296.63 648.89 295.25C648.89 295.25 646.59 293.08 649.28 292.11C651.97 291.14 654.47 290.46 654.47 290.46L653.83 289.63L660.49 288.62L661.56 291.67Z" /><g ><path class="shp8" d="M655.02 282.78C653.49 284.73 653.1 287.16 653.99 289.26L655.54 288.61C654.89 287.08 655.19 285.28 656.33 283.82C656.41 283.72 656.5 283.64 656.58 283.55C656.13 283.21 655.67 282.86 655.23 282.52C655.15 282.61 655.08 282.69 655.02 282.78Z" /><path class="shp8" d="M676.5 274.78C678.21 271.38 678.17 267.84 676.39 266.16L675.24 267.37C676.45 268.51 676.35 271.37 675 274.03C674.7 274.62 674.09 275.67 673.08 276.73C673.49 277.12 673.9 277.5 674.31 277.89C675.21 276.92 675.96 275.86 676.5 274.78L676.5 274.78Z" /><path class="shp35" d="M660.91 288.37C659.04 290 656.64 290.51 654.48 289.73L655.06 288.15C656.63 288.72 658.41 288.33 659.81 287.11C659.91 287.03 659.99 286.93 660.06 286.86C660.43 287.28 660.79 287.71 661.17 288.15C661.08 288.22 661 288.3 660.91 288.37L660.91 288.37Z" /><path class="shp8" d="M661.76 280.96C662.3 280.79 662.84 280.62 663.39 280.45C663.39 280.48 663.39 280.51 663.39 280.54C664.01 283.42 663.17 286.23 661.16 288.14C660.79 287.71 660.42 287.28 660.05 286.85C661.58 285.36 662.23 283.19 661.76 280.96Z" /><path class="shp35" d="M667.78 266.51C671.08 264.62 674.62 264.48 676.39 266.15L675.24 267.37C674.04 266.23 671.19 266.48 668.61 267.96C668.03 268.29 667.01 268.96 666.01 270.01C665.6 269.63 665.2 269.24 664.79 268.86C665.69 267.9 666.73 267.1 667.78 266.51Z" /><path class="shp8" d="M666 270.01C664.1 271.99 662.23 275.35 663.39 280.45C662.85 280.62 662.31 280.79 661.77 280.96C661.77 280.94 661.77 280.92 661.77 280.9C660.54 275.64 662.22 271.56 664.78 268.86C665.19 269.25 665.6 269.63 666 270.01L666 270.01Z" /><path class="shp17" d="M679.44 265.39L646.06 298.93L645.25 298.16L677 263.09L679.44 265.39Z" /><path class="shp35" d="M673.08 276.73C671.2 278.74 667.95 280.78 662.79 279.9C662.77 279.89 662.74 279.89 662.71 279.89C659.8 279.42 657.04 280.41 655.24 282.52C655.68 282.86 656.14 283.21 656.58 283.55C657.99 281.95 660.13 281.2 662.38 281.54C662.4 281.54 662.41 281.54 662.43 281.54C667.75 282.47 671.74 280.59 674.3 277.89C673.9 277.5 673.49 277.12 673.08 276.73L673.08 276.73Z" /></g><path class="shp11" d="M655.77 288.51C652.79 288.97 650.91 290.84 650.91 290.84L655.88 291.01C656.01 291.01 656.12 291.01 656.23 291.02L655.88 291.01C654.9 291.09 653.72 292.06 653.72 292.06L649.98 294.67C652.04 294.95 655.21 293.73 657.64 292.61C658.54 292.19 659.98 291.92 661.56 291.67C661.25 290.65 660.89 289.54 660.43 288.49C660.04 288.4 658.35 288.1 655.77 288.51L655.77 288.51Z" /></g></g><path fill-rule="evenodd" class="shp8" d="M675 163.36C692.94 163.36 710.71 166.89 727.29 173.76C743.87 180.63 758.93 190.69 771.62 203.38C784.31 216.07 794.37 231.13 801.24 247.71C808.11 264.29 811.64 282.06 811.64 300C811.64 317.94 808.11 335.71 801.24 352.29C794.37 368.87 784.31 383.93 771.62 396.62C758.93 409.31 743.87 419.37 727.29 426.24C710.71 433.11 692.94 436.64 675 436.64C657.06 436.64 639.29 433.11 622.71 426.24C606.13 419.37 591.07 409.31 578.38 396.62C565.69 383.93 555.63 368.87 548.76 352.29C541.89 335.71 538.36 317.94 538.36 300C538.36 282.06 541.89 264.29 548.76 247.71C555.63 231.13 565.69 216.07 578.38 203.38C591.07 190.69 606.13 180.63 622.71 173.76C639.29 166.89 657.06 163.36 675 163.36ZM675 166.72C657.5 166.72 640.17 170.17 624 176.86C607.83 183.56 593.13 193.38 580.76 205.76C568.38 218.13 558.56 232.83 551.86 249C545.17 265.17 541.72 282.5 541.72 300C541.72 317.5 545.17 334.83 551.86 351C558.56 367.17 568.38 381.87 580.76 394.24C593.13 406.62 607.83 416.44 624 423.14C640.17 429.83 657.5 433.28 675 433.28C692.5 433.28 709.83 429.83 726 423.14C742.17 416.44 756.87 406.62 769.24 394.24C781.62 381.87 791.44 367.17 798.14 351C804.83 334.83 808.28 317.5 808.28 300C808.28 282.5 804.83 265.17 798.14 249C791.44 232.83 781.62 218.13 769.24 205.76C756.87 193.38 742.17 183.56 726 176.86C709.83 170.17 692.5 166.72 675 166.72Z" /></g></svg>