<svg version="1.2" baseProfile="tiny-ps" xmlns="http://www.w3.org/2000/svg" viewBox="0 0 900 600" width="900" height="600">
	<defs>
		<clipPath clipPathUnits="userSpaceOnUse" id="cp1">
			<path d="m0 0h450v300h-450v-300z" />
		</clipPath>
	</defs>
	<style>
		tspan { white-space:pre }
		.s0 { fill: #00247d } 
		.s1 { fill: #f7e017;stroke: #000000;stroke-width: .6 } 
		.s2 { fill: #337321;stroke: #000000;stroke-width: .6 } 
		.s3 { fill: #316d3a;stroke: #000000;stroke-width: .6 } 
		.s4 { fill: none;stroke: #000000;stroke-width: .6 } 
		.s5 { fill: #006ec7;stroke: #000000;stroke-width: .6 } 
		.s6 { fill: #f7e017 } 
		.s7 { fill: #ffffff;stroke: #000000;stroke-width: .6 } 
		.s8 { fill: #e5e5e5;stroke: #000000;stroke-width: .6 } 
		.s9 { fill: #96877d;stroke: #000000;stroke-width: .6 } 
		.s10 { fill: #000000 } 
		.s11 { fill: #c8102e;stroke: #000000;stroke-width: .6 } 
		.s12 { fill: #000000;stroke: #ffffff;stroke-width: 52 } 
		.s13 { fill: none;stroke: #ffffff;stroke-width: 86.7 } 
		.s14 { fill: none;stroke: #cf142b;stroke-width: 52 } 
	</style>
	<path class="s0" d="m0 0h900v600h-900v-600z" />
	<g >
		<path class="s1" d="m553.44 386.76c1.4 19 14.96 19.32 28.6 11.32c1.32 20.96-14.32 25.28-24.96 17.64c6.64 12.96 6.64 35.56 9.96 42.56c3.32 7 2 11.32-5 5c-16.6-15-23.96-32.6-23.96-52.88c-8.32 12.64-27.28 11-27.28-10.64c17.28 8.64 28.48-0.32 36.92-40.6c3-14.32 15.2-30.16 28-41c-15.32 13.96-24 46.32-22.28 68.6z" />
		<path class="s1" d="m532.4 145.56c-3.36 6.76-3.32 13.96 5 16.64c-5 6-14.28 6.32-20.28 1c0.68 15-7.64 23.64-23.28 18.64c8.64-7.96 1.32-15.96 8.64-22.6c-6.96 2.64-10.64-0.68-12.96-8.32c13.96 3.96 20.48-19.6 32.8-12.96c8.24-8 19.28-11.28 30.56-1.36c5.84 5.16 7.56 13.36 6.64 21.36c1.32-21.96-22.12-22.36-27.12-12.4v0z" />
		<path class="s2" d="m525.76 261.32c-5.16-10.28-11.48-13.44-19.96-14.12c-8.48-0.68-15.8-4-22.96-12.32c5.32 0 6.48-5.84 11.32-6.16c-8.32-4.32-16.32-14.32-11.32-24.28c4.64 6 17.28 1 20.96 5c-0.64-3.64 1-8.96 4-10.96c2 7.64 12.32 8.64 13.64 24.28c4.32-9.96 9.32-39.92 11.64-52.88c1.96-10.92 4.84-18.12-0.64-24.28c5-10 28.4-9.6 27.12 12.36c-0.2 1.56-0.48 3.08-0.84 4.6c-3.68 15.32-10 38.6-13.32 50.24c21.6-33.6 37.92-28.28 49.2-39.88c1 3.68 1.04 10.8-2.28 14.44c10.72 0.68 23.76 3.76 28.56-0.8c-5.32 14.64-17.96 24.96-31.6 23.96c5 6.96 2.68 18.96-7.64 22.6c3-9.68-4.32-18-13.64-13.32c-6 2.96-28.28 13.28-25.28 36.24c3 22.96 35.24 26.96 52.88 17.64c-29.84 15.12-61.52 4.32-69.84-12.36v0z" />
		<path class="s1" d="m639.52 253.36c-9.96 27.6-37.24 47.24-49.56 50.24c-20.96 5.08-63.68 25.84-75.12 36.52c-1.8-0.4-3.48-1.04-4.72-1.92c-5.64-4-10.32-16.96-0.32-27.96c31.28-29.28 64.88-16.64 85.84-36.6c-17.64 9.32-49.88 5.32-52.88-17.64c18.96 5 53.24 5.32 80.48-23.96c3.64 4.04 14.28 16.68 16.28 21.32v0z" />
		<path class="s2" d="m638.56 254.68c6.32 4 9.64 8 11.64 13.64c-11 31.6-40.6 59.2-59.56 71.52c-22.44 14.56-31.24 47.24-32.4 59.88c-2.64-2.56-4.36-6.76-4.84-12.96c-1.68-22.28 6.52-55.2 22.32-68.6c22.76-19.32 51.92-33.64 62.84-63.48v0z" />
		<path class="s3" d="m629.36 240.56c-5.64 8.48-18.48 20.12-30.76 24.8c2.64-3 3.48-6.8 3.64-9.96c-15.64 6-46.92 5.32-59.56 0.68c18.96 5 53.24 5.32 80.48-23.96c2.72 2.96 5.04 5.6 6.2 8.44z" />
		<path class="s2" d="m510.16 338.2c5.68 3.96 20.32 3.96 21.64-9c6.64 2.64 10.64 12.96 3.64 19.28c16.96-1.64 30.6 15.96 27.92 33.6c-4.32-15.96-24.6-6.32-32.6-14.96c1 7.64-0.68 17.32-7 20.96c0.32-13.96-15.28-11.96-12.64-28.6c-9.96-4.68-26.76-25.44-1.32-49.24c-10 11-5.32 23.96 0.36 27.96v0z" />
		<path class="s1" d="m571.32 464.76c1 5 12.12 6.16 8.64 16.64c-1.28 3.8-3.84 5.84-7.16 5.16c-11.28-2.28-5.32-12.84-8.8-17.48c-1.72-2.32-1.92-5.88 0.84-7.48c2.32-1.32 5.48-1.84 6.48 3.16h0z" />
		<path class="s1" d="m587.6 485.92c2.48 4.48 12.96 10.12 17.12 10.96c-1.32 1.84-4.96 3.84-7.8 2.84c1.2 7.12-3.48 9.28-5.8 7.8c0 3.16-3.68 6.8-6.32 4.64c-2 4.68-7.08 5.76-9.32 2c-2.32 3.08-8 1.64-10.64 0.32c4.32-0.16 4.6-12.16 4-17.12c-1.52-11.96 1.76-14.4 5.48-16.12c4.32-2 10.8 0.16 13.28 4.68v0z" />
		<g >
			<path class="s4" d="m516.68 144.8c1.68-2.48 3.56-4.8 5.64-6.84" />
			<path class="s4" d="m579.96 188.84c2.92-1.68 7.4-1.88 12.36-1.56" />
			<path class="s4" d="m575.48 514.16c-1.16-1.68-1.6-8.64-0.76-12.88" />
			<path class="s4" d="m584.8 512.16c-1.84-1.4-5.32-6.24-5.92-10.48" />
			<path class="s4" d="m591.12 507.52c-2.32-1.08-8-8.4-9.24-13.12" />
			<path class="s4" d="m596.92 499.68c-2.76-0.6-11.16-6.08-14.64-11.88" />
		</g>
		<path class="s1" d="m750.28 310.6c40.92 34.28 43.56 61.52 37.24 77.52c-3.32-14.96-20.28-38.24-37.92-44.24l0.68-33.28z" />
		<path class="s2" d="m677.12 291.28h75.84c0 0 0 19.96 0 89.8c0 76.52-42.56 121.76-85.84 145.68c-43.24-23.96-85.84-69.2-85.84-145.68c0-69.84 0-89.8 0-89.8h53.24c0.08 4.64 0.52 11.64 6 18.64c12.56-1.24 26.76-10.64 36.6-18.64v0z" />
		<path class="s5" d="m752.96 291.28c0 0 0 19.96 0 89.8c0 23.08-3.88 43.36-10.48 61l-75.32-138.2l-75.32 138.2c-6.6-17.68-10.48-37.92-10.48-61c0-69.84 0-89.8 0-89.8h171.6v0v0z" />
		<path class="s6" d="m744.76 435.48c-1.32 4.08-3.76 10.68-5.6 14.76l-72-133.84l-72 133.84c-1.88-4.08-4.28-10.68-5.6-14.76l77.64-143.92l77.56 143.92z" />
		<path class="s1" d="m667.12 513.84c-6-20.28-31.44-20.32-37.08-32.64c-1.92 1.12-3.48 2.44-4.52 3.68c-4.68-7-1.68-23.28-1.68-30.28c2.64 5 16.28 6.32 21.28 23.28c-2.64-0.52-5.4-0.32-8 0.32c6.64 10.64 21 7 24.64 17.64v-71.36c0-4.32 1.68-9.16 1.68-13.32c0 0 0-11.44 0-14.76c0-3.32 0.64-8.16 3.64-8.16c2.96 0 3.64 4.84 3.64 8.16c0 3.32 0 14.76 0 14.76c0 4.16 1.68 8.32 1.68 13.32v71.36c6.64-2 18.32-10.36 23.32-15.36c-1.96-1.4-4.24-3-6.68-4.24c4-6.64 18.64-6.28 22.96-17.28c1.32 10 0.68 21.28-3.32 29.28c-1.64-0.68-5.32-2.52-7.32-3.52c-12.12 13-29.44 21.64-34.24 29.12v0z" />
		<path class="s1" d="m637 423.52c-1.72 0-3.08-2.52-3.08-5.64c0-3.12 1.4-5.64 3.08-5.64c6.52 0 24.48-1.84 30.12-1.84c5.68 0 23.64 1.84 30.12 1.84c1.72 0 3.08 2.52 3.08 5.64c0 3.12-1.4 5.64-3.08 5.64c-6.52 0-24.48 1.84-30.12 1.84c-5.64 0-23.6-1.84-30.12-1.84z" />
		<path class="s1" d="m663.48 396.12c-1.2-0.96-2.76-1.56-4.52-1.56c-3.76 0-6.84 2.8-6.84 6.24c0 3.44 3.04 6.24 6.84 6.24c3.76 0 6.8-2.8 6.8-6.24c0-2.68 3.88-2.68 3.88 0c0 5.4-4.8 9.76-10.68 9.76c-5.92 0-10.68-4.36-10.68-9.76c0-5.4 4.8-9.76 10.68-9.76c1.76 0 3.44 0.4 4.92 1.08c-0.12 0.88-0.4 2.56-0.4 4v0z" />
		<path class="s1" d="m637.04 412.24c1.68 0 3.04 2.52 3.04 5.64c0 3.12-1.36 5.64-3.04 5.64" />
		<path class="s1" d="m639.52 412.24c1.68 0 3.04 2.52 3.04 5.64c0 3.12-1.36 5.64-3.04 5.64" />
		<path class="s1" d="m655.96 411.08c2.04 0 3.68 3.04 3.68 6.8c0 3.76-1.64 6.8-3.68 6.8" />
		<path class="s1" d="m659.76 410.72c2.12 0 3.84 3.2 3.84 7.12c0 3.92-1.72 7.12-3.84 7.12" />
		<path class="s1" d="m672.56 410.64c2.12 0 3.88 3.24 3.88 7.2c0 3.96-1.72 7.2-3.88 7.2" />
		<path class="s1" d="m676.56 410.92c2.12 0 3.84 3.12 3.84 6.96c0 3.84-1.72 6.96-3.84 6.96" />
		<path class="s1" d="m694.44 412.08c1.72 0 3.12 2.56 3.12 5.76c0 3.2-1.4 5.76-3.12 5.76" />
		<path class="s1" d="m630.04 481.2c2.04-1.24 4.52-2.36 7.12-2.96" />
		<path class="s1" d="m697.72 481.88c-0.6-0.44-1.28-0.88-1.96-1.4" />
		<path class="s1" d="m701.36 484.72c4.64-5 8.52-10.64 10.68-17.12" />
		<path class="s7" d="m651.88 354.8c0-1.64 1.32-2.32 2.88-3.48c1.88-1.4 2.64-2.08 4.32-2.08h21.84c1.6 0 2 0.4 2 1.92v29.64c0 1.48-0.36 1.92-2 1.92h-29.04v-28.24" />
		<path class="s8" d="m653.12 385.32v-29.64c0-1.52 1.2-2.2 2.64-3.28c1.72-1.32 2.4-1.96 4-1.96h20.2c1.48 0 1.84 0.4 1.84 1.8v27.16c0 1.92 0.2 1.76-1.92 3.84c-2 2-1.48 2.08-4.36 2.08h-22.4v0z" />
		<path class="s7" d="m677.68 384.68c0 1.48-0.36 1.92-2 1.92h-21.84c-1.64 0-1.96-0.4-1.96-1.92v-29.68c0-1.48 0.36-1.92 1.96-1.92h21.84c1.64 0 2 0.4 2 1.92v29.68z" />
		<path class="s9" d="m720 273.88c4.24 4.76 5.64 11.12 3.32 17.36h-6.32c2.64-8 1-15.6-10.32-16.6c-16.92-1.48-36.6 31.28-66.2 35.24c-8.64-10.32-8.2-29.96 2.8-39.28c-5.68-16.36-17.64-34.36-25.96-42.12c-5.44-0.88-11.72-1.32-15.76-1.08c4.32-9.32 16.64-19.12 26.64-23.12c1.6-2.36 3.36-4.64 4.96-6.68c1-12.8 61.88-6.8 74.84 1.16c0.04 14.36 5.68 62.16 12 75.12v0z" />
		<g >
			<path class="s10" d="m646.24 282.64c-1.44-22.16-10.4-40.44-23-52.88c6 1.68 18.28 1.68 26.6-4.32c10.96-7.32 39.6-20.12 50.08-14.64c0.84 1.84 1.32 6 0.68 8.64c-2.48-6.64-30.12 3.64-37.92 6.8c-7.48 3.48-10.8 8.16-8.16 18.64c-4.32-3.64-2.84-7.16-7.32-9.8c1.8 4.32 3.28 12.12 3.8 18.44c-1.68-4.48-4.64-14.12-11.16-19.8c5.64 10.96 10.56 37.32 8.24 51.32c4.48 0 14.4-4.4 18.36-7.56c-3.48 5-13.56 8.48-20.04 9.8c-2.92 3.48-4.92 12.48-4.76 17.48c-0.44-6.16 1.48-21.16 4.6-22.12v0z" />
			<path class="s10" d="m720 273.88c-5.52-6.12-15.8-9.44-28.92-5.88c2-1 6.32-2.68 10.16-3.32c-0.48-3.48-3.64-18.48-4.16-22.12l3.68-1.48c1.84 9 4.16 19.28 5.64 23.44c1.16 0.32 3.84 0.84 6.16 2c-1-3.48-6.64-28.6-6.48-31.28l5-2.68c1.96 13.64 5.12 33.44 8.92 41.32v0z" />
		</g>
		<path class="s9" d="m677.2 291.28c11.24-8.84 20.76-17.36 29.52-16.6c11.32 1 12.96 8.6 10.32 16.6h-39.84z" />
		<path class="s9" d="m610.72 222.76c2.52-3.16 9.16-7.72 12.64-10.04c-0.72 1.68-1.32 3.2-1.64 4.72c5.68 1.84 16.8 2.84 21.8 2.16c-8.32 5.68-24.8 4.84-32.8 3.16v0z" />
		<path class="s4" d="m643.32 270.64c1.84 5.32 3.04 10.44 3.2 15" />
		<path class="s4" d="m643.52 219.6c-5 0.68-16.16-0.32-21.8-2.16c0.88-4 3.52-8.72 6.52-13.12" />
		<path class="s4" d="m706.4 198.84c-25.64 2-48.24 20.6-56.56 26.6c-8.32 6-20.6 6-26.6 4.32c-1.72-0.48-3.72-0.88-5.88-1.24" />
		<path class="s4" d="m700.08 197.8c-18.64 1-37.28 8.68-56.56 21.8c-8.28 5.64-24.76 4.84-32.76 3.16" />
		<path class="s2" d="m750.28 310.6c27.92 19.28 48.56 37.92 54.56 67.84c6 29.92 17.32 37.92 31.28 29.92c-3.32 17.28-20.64 19.28-35.24 6c1.32 19.96-6.64 43.92-27.28 52.56c-1.32-11.96 6.6-21.44 4.32-31.28c-1-4.32-1.32-14.32 4.32-18.96c-10.96 3.64-28.28-3.32-29.92-19.64c12.64 6 28.92 7 35.24-9c6.28-15.92 3.64-43.2-37.28-77.44v0z" />
		<path class="s2" d="m785.56 154.92c8.64-22.6 31.28-20.28 38.92-10.64c22.28-12.64 25.28 15.96 44.24 10.32c-0.32 5.32-6.64 10.32-13.64 9.96c7.32 6.64-3 16.64 12.64 22.6c-13.32 6.64-31.92-0.32-36.92-18.64c-4.32 8.64-19.96 8.64-26.28 1.68c13.64-3.64 12.64-16.28 5-21.28c-7.72-5.04-21.32-3-23.96 6z" />
		<path class="s2" d="m718.08 204.72c6.2 20 19.04 38.64 32.88 51.32c15.96 14.64 40.08 10.96 53.56-3c0.32 27.84-28.52 30-44.56 21.28c-7.08-3.84-12.8-1.84-6 4.32c10.32 9.32 32.88 16.24 59.52 21.96c46.56 9.96 29.96 46.92 16.32 46.56c3.92-0.08 7.12-4.16 1.48-9.24c-40.4-36.36-122.56-22.04-121.24-103.2c-8.64 21.28-44.24 12.96-27.6-12.32c5.32 4.32 14.64 4.64 17.32-2c2.08-5.16 0.72-14.16-8.6-21.92c1.52-0.12 4.84 0 4.48-3.84c0.4 2.24 2.44 5.56 7.68 4.44c1.48 2.36 3.08 3.92 5.2 3.08c0.4-0.16 1.68-0.8 1.16-3.16c0.4 4.48 5.64 6.04 8.4 5.72v0z" />
		<path class="s1" d="m804.52 253.44c-0.4-31.96-38.6-39.6-38.92-20.96c-7.96-2.96-15.96-11.96-9.96-22.6c-11.96-0.64-26.6-6.96-25.28-23.6c11.64 12.64 25.28-2.68 31.28 6.64c-3.68-6.32-5-14.32 4.64-18.64c-0.36 17.96 29.28 22.64 32.92 40.92c2-24.6-22.28-37.6-13.64-60.2c2.68-9 16.24-11.04 23.96-6c1.64 1.04 2.96 2.48 3.92 4.08c-6.32 2.32-5.24 17.84-0.6 29.16c4.64 11.28 8.48 33.52 8.96 41.56c0.64 10.96 4.52 11.4 5.64 4.32c2-12.64 12.48-13.64 11.8-18.64c1.8 2 4.32 7.16 2.48 11.48c7.16-9.48 14.96-2 19.96-3.84c-6.16 4.8-2.48 14.8-14.96 19.12c5-0.52 6.32 3.48 9.64 4.48c-5.32 1.32-4.96 7.96-11.96 8.64c-7 0.68-16.96 7-23.28 14.32c-20.08 23.28-41.92 23.28-61.2 10.64c15.64 8.64 44.92 6.32 44.6-20.88v0z" />
		<path class="s1" d="m841.4 363.08c3 7.16-4.64 23.44-22.12 24.12c5.16-5.64-0.84-12.96 2.84-16.12c-4.48 5-15.64 4.16-19.96 2.68c-4.32-1.48-15.96-1-19.8 6c0.52-15.12 9.32-28.92 30.28-26.44c-7.64-4.16-10.28-14.64-0.32-19.96c0.52 6.32 8.8 13.6 17.48 13.8c13.64 0.36 30.24-36.6-16.32-46.56c46.24 8.32 50.56 41.92 27.92 62.48l0 0z" />
		<path class="s1" d="m778.04 458.64c3.04 1.88 2.64 5.88 0.6 8.4c-4.12 5.04 2.08 17.08-10.6 19.12c-3.76 0.6-6.52-1.8-7.76-6.08c-3.44-11.84 9.04-12.64 10.36-18.2c1.36-5.52 4.84-4.84 7.4-3.24z" />
		<path class="s1" d="m766.6 480.12c4.08 2.08 7.6 4.96 5.44 18.24c-0.92 5.52-1.12 18.92 3.72 19.28c-3.04 1.36-9.4 2.68-11.88-0.84c-2.68 4.08-8.28 2.64-10.32-2.64c-3.08 2.28-7-1.96-6.84-5.48c-2.68 1.56-7.76-1.04-6.16-8.96c-3.2 1-7.2-1.4-8.6-3.48c4.68-0.76 16.6-6.6 19.6-11.52c2.96-4.88 10.28-7 15.04-4.6h0z" />
		<path class="s4" d="m763.84 516.84c1.36-1.8 2.16-9.6 1.4-14.36" />
		<path class="s4" d="m753.56 514.2c2.12-1.48 6.2-6.72 7.04-11.44" />
		<path class="s4" d="m746.68 508.72c2.64-1.12 9.28-9.04 10.88-14.28" />
		<path class="s4" d="m740.52 499.76c3.08-0.52 12.72-6.28 16.84-12.64" />
		<path class="s1" d="m735.8 256.88c-3.96 1.52-10.12 0.52-12.96 0.84c10.8 1.32 15.44 10.96 18.28 17.28c-5.8 1.32-9.48-2-11.8-1.84c9.84 4.84 6.68 19.8 13.96 24.16c-19.64-11.2-33.8-28.48-33.24-62.56c5.16 17.6 20.12 13.44 25.76 22.12v0z" />
		<path class="s1" d="m711.56 230.08c-1-3.96-4.84-3.64-4.84-6.64c-6.64 17.8-24.96 13.12-24.28-1c5.36 4.32 14.64 4.64 17.32-2c2.08-5.16 0.72-14.16-8.64-21.92c1.56-0.12 4.84 0.04 4.52-3.8c0.4 2.24 2.44 5.56 7.68 4.44c1 1.56 2 2.76 3.2 3.16c6.16 9.12 9.76 20.12 5.04 27.76z" />
		<path class="s2" d="m673 135.96c-10.96-9.32-12.64-25.28-11.8-36.6c0.56-7.64 2.16-13.96 4-17.12c-20.16-9.64-40.28 14.96-39.6 27.6c-1-3.84-6.68-7-2.84-11.32c1.56-1.76 2.32-6.64 2-9.8c-0.56-5.28 10.16-5.8 13.32-10.8c3.16-4.96 8.28-0.32 12.12-3.48c3.84-3.16 12.48 0.16 15.72 6.48c1.76-3.16 4-0.84 3.08 0.48c-2.72 3.96-3.36 10.24-3.68 14.64c1.52-3.64 7.84-6.48 12.16-5.48c-1.84-2.48-1.48-6.96-0.16-8.8c4.68 1 5.68 7.64 4.84 10.32c0.48-3.32 2.96-5.68 4.64-6c0.84 2.48-0.16 7.64-2 8.64c2.48 1.36 4.32 7.84 2.64 9.16c-0.32-2.64-4.64-2-5.32-4.32c-0.52 1.52-4.32 3.84-7.16 2.84c3.48-0.68 1.16-7.32 4.48-7.32c-10.64-3.36-13.64 4.64-13.96 11.96c-0.36 7.32 3.48 20.12 11.8 27.76l-4.28 1.16v0z" />
		<path class="s11" d="m683.24 95.2c-0.12-3 5.08-6.88 12.04-6.8c8.4 0.08 14.88 7.72 21.6 7c6.72-0.76 3.4 3 2 4c-1.4 1-2.24 2.48-1.76 4.32c0.48 1.84-0.36 3.04-3.08 1.32c-6-3.76-11.96 1.48-19.88-1.4c-6.76-2.56-10.72-3.96-10.92-8.44v0z" />
		<path class="s9" d="m649 173.72c-3.32-10.48-15.96-21.96-22.12-24.6l-0.32-5.64c3.32-1.32 11.32-7.64 14.96-11.16c24.96 11.96 58.88-5 74.52-22.6l6 3.64l-3 4l-3.16-1.68c-3.84 4.64-18.12 18.08-22.44 20.92c5.8 1.48 13.76 2.48 15.96 2.36c13.96-10 24.92-18.96 30.24-19.64l4.48 6l-4 2.84l-3.16-1.84c-14.96 12.32-31.92 39.24-38.6 57.2c-9.28-2-42.56-0.68-49.36-9.8v0z" />
		<path class="s4" d="m670.48 139.8c8.48-0.36 15.12-2.52 17.8-5c1.16 0.64 3 1.24 5.16 1.8" />
		<path class="s4" d="m650.32 170.04c-2.24-12.4 1.32-26.12 7.64-30.28c13.8 9.16 37.44 9.16 51.4-0.84" />
		<path class="s4" d="m650.32 163.56c10.64-0.32 33.76 1.48 39.4 2.32c5.64 0.84 15.12 3.16 13.8 6" />
		<path class="s4" d="m652.2 158.72l3.04-3l3.08 3.04l-3.08 3.04l-3.04-3.08v0z" />
		<path class="s2" d="m669.08 109.72c-1 4.84-8.28 9.16-13.12 10.16c-4.84 1-10.48 4.96-10.48 8.8c-5.16-3.16-2.84-7.8-5.48-12.64c-1.08-1.96-1.64-6.52 0.84-8c2.52-1.52 4-4.84 5-8c2.28-7.16 12.8-5.48 16.64-0.16c9.32 0.96 7.64 4.96 6.6 9.84v0z" />
		<path class="s9" d="m638.52 147.76h1.32l0.04 9.08c0.28 0.08 0.56 0.24 0.8 0.4l7.84-4.52l0.68 1.16l-7.88 4.56c0.04 0.28 0.08 0.6 0.04 0.88l7.84 4.52l-0.68 1.16l-7.92-4.48c-0.2 0.2-0.48 0.4-0.76 0.48v9.04h-1.32v-9.08c-0.28-0.08-0.56-0.24-0.8-0.4l-7.84 4.52l-0.68-1.16l7.88-4.56c-0.04-0.28-0.08-0.6-0.04-0.88l-7.84-4.52l0.68-1.16l7.88 4.52c0.2-0.2 0.48-0.4 0.76-0.48v-9.08v0v0z" />
		<path class="s9" d="m650.36 170c-2.84 2.88-6.8 4.64-11.2 4.64c-8.72 0-15.76-7.04-15.76-15.76c0-8.72 7.04-15.76 15.76-15.76c5.12 0 9.64 2.44 12.52 6.2c-0.8 2-1.76 6.44-1.84 8.44c-0.56-5.44-5.12-9.68-10.72-9.68c-5.96 0-10.76 4.84-10.76 10.76c0 5.96 4.84 10.76 10.76 10.76c4.96 0 9.28-3.48 10.52-8.08c0.04 2.08 0.12 6.84 0.72 8.48v0z" />
		<path class="s2" d="m632.52 185c-1-1.16-2.84-4.32-2.64-6.64c1.48-0.16 4.32 0.84 5.64 2.16c-0.16-1.68-0.84-5.32-0.48-7c1.84 0.68 5.64 2.84 7 5.32c-0.32-1.68-1-6-0.32-8.64c2 1.16 5.32 4.32 6 6.48c0.16-3.32 1.32-8.8 2.32-10.16c1.48 1.48 3.84 2.84 5.32 4.84c0.32-2.68 1.68-5.84 3.64-6.64c1.48 1.68 3.84 5.48 4.32 9.8c1.48-0.48 3.48-3 4.32-4.32c0.84 1.32 1.68 3.64 1.16 6.48c1.84-1.68 4-4 4.48-6c1.32 1 3.84 3.48 4.48 6.16c-0.32-2.16-0.16-6-0.84-8.16c2.48 1.32 4.48 3.64 5 6.16c0.68-2.32 2.16-6.48 3.48-7.48c1.32 2.68 2.68 5.84 2.48 8.48c0.84-1.68 2.16-4.64 3.48-5.32c1.16 1.84 1 5.84 0.68 8c1.16-1.68 3.32-3.64 4.64-4.32c0.16 1 0.32 3 0 4.48c1.48-0.84 4-5.32 4.84-7.64c2.32 1.16 4.64 5.16 4.84 7.16c1.68-0.68 5-3.64 6-5.32c0 1.16 0.52 4.32-0.16 6.8c1-1 2-3 2.48-3.84c0.68 1.68 0.16 5.64-0.52 7.8c1.48-1.32 3.68-2.16 5-2.16c0.16 2.84-1.84 7.8-3.68 11.48c-15.92-4.44-49.36-6.12-82.96-7.96v0z" />
		<path class="s6" d="m688.2 96.92c-0.08-1.24 2.64-4 7.56-3.96c5.88 0.04 11.32 4.36 16 4.04c4.72-0.32 2.4 1.24 1.4 1.64c-1 0.4-1.56 1.04-1.24 1.76c0.36 0.76-0.24 1.24-2.16 0.56c-4.2-1.52-8.4 0.6-13.92-0.56c-4.76-1.08-7.52-1.64-7.64-3.48v0z" />
		<path class="s1" d="m637.68 195c-5 6-9.96 5-10.96 1.16c-1-3.84 2.68-5.64 1.32-9c-1.32-3.32 2.16-4.84 3.84-3.32c1.68 1.48 7-3.32 9.32 1.68c2.32 5 4.16 8.48 2.84 10.48c-1.36 2-5.36 1-6.36-1h0z" />
		<path class="s1" d="m659.12 186c-0.92-2.2 4.24-6.4 6.92-3.4c2.68 3 6.84-3.24 9.16 1.48c2.32 4.76 3.08 7.24 4.24 9.88c1.16 2.68-6.32 4.08-8.64 1.76c0.32 1.56-6.48 2.8-8.32-1.68c-1-2.36-2.08-5.12-3.36-8.04z" />
		<path class="s1" d="m693.72 188.76c-1.24-2.32 4.84-5.64 8-1.4c0.84-1.76 6.84-2.08 7.24 3c0.4 5.08 0.6 8.08 0.76 10.08c0.16 2-3.64 3.84-6.4-1.24c-4.92 1-7.16-1.76-7.72-4.64c-0.6-2.96-1.2-4.4-1.88-5.8z" />
		<path class="s2" d="m640.92 185.44c-0.76-1.68 4.24-5 7.64-2.48c3.4 2.48 8.12-2.16 10.16 2.32c4.08 9.08 4.32 9.72 3.08 11.48c-1.24 1.76-6.56 1.08-7.92-1.32c-0.24 1.68-4.84 1.4-7.24 0.08c-2.72-1.52-4.64-7.08-5.72-10.08z" />
		<path class="s2" d="m675.92 185.84c-1.16-2.56 6.64-4.84 10.08-0.32c1.76-1.6 5.56-1.68 7.72 3.24c2.16 4.92 2.48 7.64 0.92 8.88c-1.12 0.88-5.16 1.56-6.48-0.68c-1.84 1.16-7.48 0.16-8.72-3c-1.24-3.12-2.32-5.88-3.52-8.12v0z" />
		<path class="s2" d="m709.04 190.76c-0.16-2.32 4.08-3.4 5.64 0c1.6 3.4 6.64 0.32 7.08 6c0.08 1.08-0.6 5.24-2.16 7.24c-1.56 2-9.32 0-9.8-4.24c-0.52-4.28-0.68-6.68-0.76-9z" />
		<g >
			<path class="s4" d="m637.68 195c-1.84-2.48-4.32-6.48-7.48-2.16" />
			<path class="s4" d="m653.92 195.4c-1.08-1.4-2.48-3.76-3-5.56" />
			<path class="s4" d="m670.8 195.76c-1.16-0.84-2.92-2.48-3.84-4.24" />
			<path class="s4" d="m669.28 187c2.92 0.32 4.92 3.08 5.8 4.32c0.92 1.24 2.84 3.48 4.32 3.76" />
			<path class="s4" d="m688.16 197c-1-1.6-2-3-2.24-4.16" />
			<path class="s4" d="m686 185.52c1 1.4 1.76 2.56 2.32 3.92" />
			<path class="s4" d="m703.28 199.16c-1.32-2.48-3.4-4.92-5.16-5.72" />
			<path class="s4" d="m702.64 190c0.16 4.92 6.72 5.24 7 8.72" />
			<path class="s4" d="m714.68 190.76c0.68 1.24 0.92 2.48 1 4.56" />
		</g>
	</g>
	<g clip-path="url(#cp1)">
		<g >
			<g >
				<g >
					<path class="s0" d="m0 0h450v300h-450v-300z" />
					<path fill-rule="evenodd" class="s12" d="m450 0l-450 300m0-300l450 300" />
					<path class="s13" d="m225 0v300" />
					<path class="s13" d="m0 150h450" />
					<path class="s14" d="m225 0v300" />
					<path class="s14" d="m0 150h450" />
				</g>
			</g>
		</g>
	</g>
</svg>