<svg version="1.2" baseProfile="tiny-ps" xmlns="http://www.w3.org/2000/svg" viewBox="0 0 900 600" width="900" height="600"><title></title><style>tspan { white-space:pre }.shp0 { fill: #252f6b } .shp1 { fill: #fad704 } .shp2 { fill: #ffffff } .shp3 { fill: #d31f26 } .shp4 { fill: none;stroke: #ffffff;stroke-linecap:round;stroke-width: 2.068 } .shp5 { fill: #fad704;stroke: #252f6b;stroke-width: 2.659 } .shp6 { fill: none;stroke: #252f6b;stroke-width: 2.659 } </style><g ><path class="shp0" d="M-67 0L967 0L967 600L-67 600L-67 0Z" /></g><g ><path class="shp1" d="M450 506.9C335.64 506.9 243.2 414.41 243.2 300C243.2 185.59 335.64 93.1 450 93.1C564.36 93.1 656.8 185.59 656.8 300C656.8 414.41 564.36 506.9 450 506.9Z" /><path fill-rule="evenodd" class="shp0" d="M650.89 300C650.89 411.01 560.95 500.99 450 500.99C339.05 500.99 249.11 411.01 249.11 300C249.11 189 339.05 99.01 450 99.01C560.95 99.01 650.89 189 650.89 300ZM613.47 300C613.47 209.67 540.29 136.45 450 136.45C359.72 136.45 286.53 209.67 286.53 300C286.53 390.33 359.72 463.55 450 463.55C540.29 463.55 613.47 390.33 613.47 300Z" /><path class="shp2" d="M450 456.65C363.41 456.65 293.42 386.63 293.42 300C293.42 213.37 363.41 143.35 450 143.35C536.59 143.35 606.58 213.37 606.58 300C606.58 386.63 536.59 456.65 450 456.65Z" /><path class="shp1" d="M450 470.54L452.3 477.62L459.74 477.62L453.72 482L456.02 489.08L450 484.7L443.98 489.08L446.28 482L440.26 477.62L447.7 477.62L450 470.54Z" /><path class="shp1" d="M529.49 453.1L534.86 458.25L541.42 454.73L538.19 461.44L543.55 466.59L536.18 465.58L532.94 472.29L531.62 464.96L524.25 463.95L530.81 460.42L529.49 453.1Z" /><path class="shp1" d="M375.83 453.1L370.45 458.25L363.89 454.73L367.13 461.44L361.76 466.59L369.14 465.58L372.38 472.29L373.69 464.96L381.07 463.95L374.51 460.42L375.83 453.1Z" /><g ><path class="shp1" d="M304.75 421.21C304.32 421.21 303.88 421.15 303.43 421.02C301.99 420.58 300.53 419.44 299.11 417.61C297.75 415.87 296.99 414.32 296.86 413C296.71 411.65 297.19 410.32 298.28 409.06L298.48 408.82L301.46 411.71L301.29 411.92C300.86 412.46 300.66 413.04 300.7 413.63C300.74 414.24 301.06 414.94 301.66 415.71C302.51 416.8 303.3 417.35 303.99 417.35L303.99 417.35C304.31 417.35 304.62 417.24 304.93 417C305.23 416.76 305.41 416.5 305.48 416.2C305.56 415.89 305.54 415.5 305.42 415.06C305.3 414.59 304.93 413.71 304.31 412.42C303.56 410.88 303.07 409.71 302.86 408.93C302.64 408.13 302.56 407.44 302.62 406.83C302.68 406.21 302.88 405.61 303.2 405.06C303.52 404.5 303.99 403.99 304.58 403.52C305.58 402.75 306.63 402.35 307.71 402.35C308.17 402.35 308.64 402.42 309.11 402.56C310.65 403.02 312.22 404.25 313.75 406.22C315.16 408.02 315.95 409.72 316.11 411.25C316.28 412.81 315.81 414.28 314.71 415.62L314.52 415.86L311.46 413.04L311.62 412.83C312.16 412.13 312.38 411.43 312.29 410.7C312.2 409.96 311.79 409.11 311.07 408.19C310.07 406.9 309.15 406.26 308.35 406.26C307.98 406.26 307.64 406.39 307.3 406.66C306.96 406.92 306.77 407.22 306.71 407.58C306.65 407.96 306.68 408.41 306.83 408.92C306.99 409.45 307.41 410.41 308.08 411.76C308.66 413 309.02 413.88 309.19 414.41C309.37 414.95 309.49 415.46 309.54 415.96C309.6 416.47 309.58 416.97 309.47 417.45C309.36 417.93 309.15 418.4 308.85 418.85C308.55 419.3 308.15 419.73 307.64 420.12C306.72 420.85 305.75 421.21 304.75 421.21Z" /><path class="shp1" d="M282.4 392.03L285.33 390.27L290.51 398.9L293.76 396.95L288.97 388.97L291.89 387.2L296.68 395.19L300.11 393.13L294.67 384.06L297.6 382.31L305.22 395.01L289.77 404.29L282.4 392.03Z" /><path fill-rule="evenodd" class="shp1" d="M274.1 374.64L287.97 361.39L289.68 365.27L286.22 368.49L288.73 374.19L293.43 373.81L295.15 377.74L276 378.97L274.1 374.64ZM279.98 374.08L278.72 375.18L279.07 375.13C279.45 375.09 281.51 374.91 285.25 374.6L283.57 370.76L279.98 374.08Z" /><path class="shp1" d="M267.58 356.86L281.59 352.67L278.9 343.7L282.17 342.73L286.07 355.76L268.8 360.93L267.58 356.86Z" /><path fill-rule="evenodd" class="shp1" d="M268.36 327.4C266.13 327.4 264.25 326.8 262.77 325.6C261 324.17 259.96 322.01 259.68 319.19C259.4 316.37 260 314.05 261.47 312.28C262.94 310.53 265.11 309.49 267.93 309.21C268.37 309.17 268.8 309.15 269.22 309.15C270.56 309.15 271.81 309.38 272.94 309.83C274.43 310.42 275.64 311.39 276.53 312.69C277.41 313.99 277.95 315.56 278.13 317.38C278.41 320.18 277.79 322.49 276.29 324.25C274.8 326.01 272.59 327.04 269.73 327.33C269.26 327.38 268.8 327.4 268.36 327.4ZM269.46 313.45C269.11 313.45 268.74 313.47 268.36 313.51C266.56 313.69 265.19 314.26 264.27 315.19C263.35 316.12 262.98 317.32 263.13 318.85C263.28 320.39 263.88 321.5 264.96 322.24C265.82 322.83 266.95 323.13 268.28 323.13C268.61 323.13 268.96 323.11 269.31 323.08C271.14 322.89 272.54 322.32 273.49 321.36C274.44 320.4 274.83 319.2 274.68 317.72C274.53 316.17 273.93 315.06 272.84 314.33C271.97 313.74 270.83 313.45 269.46 313.45Z" /><path class="shp1" d="M258.89 301.42L259.23 287.97L262.65 288.05L262.41 297.26L267.22 297.38L267.44 288.46L270.85 288.55L270.63 297.47L277.02 297.63L276.92 301.88L258.89 301.42Z" /><path class="shp1" d="M261.45 268.3L264.62 253.1L267.97 253.8L266.81 259.33L281.12 262.32L280.25 266.47L265.95 263.48L264.79 269L261.45 268.3Z" /><path class="shp1" d="M266.71 245.5L268.08 241.48L274.65 243.73L276.92 237.09L270.35 234.85L271.72 230.83L288.78 236.66L287.41 240.68L280.34 238.26L278.07 244.89L285.14 247.31L283.77 251.33L266.71 245.5Z" /><path class="shp1" d="M275.36 222.17L281.67 209.33L284.73 210.83L280.29 219.87L283.7 221.54L287.8 213.18L290.86 214.69L286.76 223.04L290.35 224.81L295.01 215.32L298.07 216.82L291.54 230.12L275.36 222.17Z" /><path class="shp1" d="M305.85 198.93C303.88 198.93 301.86 198.15 299.84 196.61C297.5 194.84 296.15 192.84 295.81 190.67C295.47 188.49 296.18 186.22 297.92 183.93C299.19 182.26 300.58 181.14 302.06 180.59C302.79 180.33 303.55 180.19 304.32 180.19C305.12 180.19 305.94 180.33 306.78 180.62L307.07 180.72L305.6 184.37L305.33 184.27C304.94 184.13 304.54 184.06 304.15 184.06C303.74 184.06 303.32 184.14 302.9 184.29C302.07 184.59 301.33 185.15 300.72 185.96C299.78 187.2 299.44 188.44 299.72 189.64C300 190.87 300.91 192.07 302.42 193.21C303.88 194.32 305.25 194.88 306.49 194.88C307.95 194.82 309.07 194.16 310.02 192.92C311.28 191.26 311.32 189.51 310.14 187.59L309.98 187.34L313.37 185.22L313.52 185.48C314.48 187.09 314.89 188.73 314.73 190.33C314.58 191.93 313.92 193.51 312.77 195.02C311.03 197.31 309.01 198.61 306.74 198.87C306.45 198.91 306.15 198.93 305.85 198.93Z" /><path fill-rule="evenodd" class="shp1" d="M312.47 167.37L315.78 164.01L333.21 172.03L330.23 175.05L325.97 173.01L321.59 177.44L323.68 181.68L320.67 184.73L312.47 167.37ZM317.16 168.82C317.34 169.16 318.27 171.01 319.94 174.38L322.88 171.4L318.48 169.28L317 168.52C317.05 168.61 317.1 168.72 317.16 168.82Z" /><path class="shp1" d="M326.57 153.95L330.23 151.1L343.5 156.58C343.01 156.04 342.57 155.52 342.17 155.02L335.76 146.78L338.79 144.43L349.86 158.65L346.12 161.57L333.01 156.12C333.48 156.63 333.86 157.08 334.17 157.47L340.67 165.82L337.65 168.18L326.57 153.95Z" /><path fill-rule="evenodd" class="shp1" d="M351.25 136.37L355.32 133.98L370.1 146.2L366.44 148.36L362.85 145.3L357.49 148.46L358.41 153.08L354.72 155.26L351.25 136.37ZM355.42 138.98C355.5 139.35 355.92 141.38 356.67 145.06L360.28 142.94L356.57 139.76L355.33 138.64L355.42 138.98Z" /><path class="shp1" d="M368.29 127.11L372.18 125.42L377.99 138.84L386.58 135.12L387.93 138.25L375.46 143.66L368.29 127.11Z" /><path class="shp1" d="M402.79 130.31L409.02 116.84L401.05 118.7L400.27 115.34L413.07 112.35L413.71 115.11L407.49 128.63L416.87 126.44L417.65 129.8L403.45 133.12L402.79 130.31Z" /><path fill-rule="evenodd" class="shp1" d="M430.77 128.18C428.56 128.18 426.69 127.54 425.21 126.29C423.45 124.8 422.4 122.6 422.11 119.74C421.82 116.89 422.4 114.54 423.82 112.77C425.25 110.99 427.4 109.95 430.22 109.66C430.69 109.61 431.14 109.59 431.58 109.59C433.79 109.59 435.66 110.21 437.13 111.43C438.89 112.89 439.93 115.06 440.22 117.88C440.41 119.73 440.21 121.41 439.62 122.89C439.03 124.39 438.07 125.6 436.77 126.49C435.48 127.37 433.91 127.92 432.09 128.11C431.64 128.15 431.2 128.18 430.77 128.18ZM431.22 113.07C431.01 113.07 430.79 113.08 430.57 113.1C429.02 113.26 427.92 113.87 427.18 114.95C426.45 116.03 426.17 117.49 426.36 119.3C426.54 121.13 427.13 122.54 428.09 123.48C428.92 124.3 429.91 124.7 431.13 124.7C431.32 124.7 431.53 124.69 431.73 124.66C433.28 124.51 434.39 123.9 435.12 122.81C435.85 121.72 436.12 120.21 435.92 118.32C435.74 116.53 435.17 115.15 434.23 114.24C433.44 113.46 432.42 113.07 431.22 113.07Z" /><path class="shp1" d="M458.29 127.11L451.67 114.54C451.7 115.24 451.72 115.83 451.7 116.32L451.38 126.9L447.55 126.79L448.09 108.76L452.73 108.9L459.45 121.59C459.42 120.86 459.41 120.17 459.43 119.54L459.74 109.11L463.57 109.22L463.03 127.25L458.29 127.11Z" /><path class="shp1" d="M470.12 127.95L472.91 110.14L487.04 112.36L486.51 115.73L476.57 114.17L475.98 117.91L485.17 119.36L484.64 122.73L475.45 121.29L474.83 125.24L485.27 126.88L484.74 130.26L470.12 127.95Z" /><path class="shp1" d="M502.13 134.93L507.77 117.79L511.79 119.12L506.15 136.25L502.13 134.93Z" /><path class="shp1" d="M523.92 142.81C522.6 142.81 521.05 142.43 519.33 141.67C517.24 140.75 515.73 139.64 514.86 138.37C513.98 137.06 513.69 135.55 514.02 133.86L514.08 133.55L518.11 134.58L518.07 134.85C517.92 135.72 518.06 136.43 518.5 137.04C518.93 137.65 519.68 138.2 520.76 138.67C521.7 139.08 522.49 139.29 523.13 139.29C523.94 139.29 524.5 138.94 524.81 138.22C524.98 137.83 525 137.48 524.89 137.14C524.76 136.77 524.51 136.4 524.14 136.02C523.76 135.62 522.94 134.98 521.69 134.1C520.6 133.29 519.86 132.69 519.46 132.31C519.05 131.92 518.7 131.52 518.42 131.11C518.12 130.68 517.91 130.23 517.77 129.76C517.65 129.28 517.6 128.77 517.65 128.24C517.7 127.71 517.85 127.13 518.11 126.54C518.79 125.01 519.9 124.08 521.41 123.77C521.77 123.69 522.16 123.66 522.56 123.66C523.79 123.66 525.22 124.01 526.82 124.71C528.85 125.6 530.25 126.61 531 127.71C531.76 128.83 531.97 130.22 531.61 131.85L531.55 132.16L527.55 131.02L527.6 130.76C527.73 130.07 527.63 129.48 527.3 128.97C526.98 128.45 526.37 127.99 525.48 127.6C524.68 127.25 524.01 127.07 523.46 127.07C522.75 127.07 522.27 127.38 521.99 128.02C521.83 128.36 521.8 128.69 521.88 128.98C521.97 129.3 522.17 129.62 522.47 129.95C522.8 130.31 523.55 130.91 524.7 131.74C526.11 132.76 527.08 133.54 527.63 134.13C528.19 134.72 528.6 135.3 528.84 135.87C529.07 136.44 529.19 137.06 529.16 137.69C529.14 138.33 528.98 139 528.67 139.7C527.95 141.35 526.76 142.36 525.15 142.69C524.78 142.77 524.35 142.81 523.92 142.81Z" /><path class="shp1" d="M535.86 149.71L543.27 137.12L538.43 134.26L540.16 131.31L553.52 139.19L551.79 142.13L546.93 139.27L539.51 151.87L535.86 149.71Z" /><path class="shp1" d="M557.98 164.75L562.53 158.81L556.97 154.55L552.42 160.48L549.05 157.89L560.03 143.59L563.39 146.17L559.17 151.68L564.73 155.95L568.96 150.44L572.32 153.02L561.34 167.33L557.98 164.75Z" /><path class="shp1" d="M576.87 182.25L585.12 174.11C585.18 174.06 585.29 173.96 585.46 173.8C584.63 174.26 583.98 174.61 583.52 174.85L574.2 179.54L572.07 177.38L576.88 168.12L578.02 166.12C577.63 166.53 577.34 166.84 577.13 167.04L569.39 174.67L566.7 171.94L579.54 159.27L583.33 163.12L578.48 172.38L577.99 173.25L577.31 174.37L578.88 173.5L588.62 168.49L592.4 172.32L579.56 184.98L576.87 182.25Z" /><path class="shp1" d="M594.68 200.31C594.27 200.31 593.86 200.27 593.46 200.18C591.6 199.81 589.89 198.58 588.37 196.55C586.89 194.57 586.24 192.66 586.42 190.87C586.61 189.07 587.61 187.47 589.42 186.12L598.4 179.42L600.93 182.82L592.19 189.35C591.15 190.13 590.54 190.96 590.38 191.83C590.21 192.7 590.49 193.61 591.19 194.56C591.93 195.54 592.75 196.08 593.69 196.18C593.8 196.19 593.91 196.2 594.02 196.2C594.86 196.2 595.75 195.85 596.67 195.16L605.32 188.7L607.86 192.1L599.03 198.69C597.6 199.76 596.14 200.31 594.68 200.31Z" /><path class="shp1" d="M606.48 219.76C605.81 219.76 605.14 219.61 604.48 219.3C603.02 218.62 601.66 217.17 600.42 214.99C599.3 213 598.76 211.21 598.83 209.67C598.89 208.1 599.58 206.71 600.85 205.55L601.09 205.34L603.69 208.58L603.5 208.77C602.87 209.38 602.55 210.04 602.53 210.77C602.51 211.52 602.8 212.42 603.37 213.43C604.24 214.98 605.13 215.76 606 215.76C606.28 215.76 606.58 215.67 606.88 215.51C607.24 215.3 607.48 215.03 607.59 214.68C607.71 214.32 607.74 213.87 607.67 213.34C607.6 212.79 607.32 211.79 606.85 210.35C606.47 209.04 606.23 208.11 606.14 207.57C606.05 207.01 606.01 206.48 606.03 205.98C606.05 205.47 606.14 204.98 606.32 204.52C606.5 204.06 606.77 203.62 607.13 203.23C607.49 202.83 607.95 202.47 608.52 202.14C609.32 201.69 610.14 201.46 610.93 201.46C611.56 201.46 612.2 201.61 612.82 201.9C614.18 202.54 615.45 203.89 616.59 205.9C617.67 207.82 618.2 209.47 618.13 210.8C618.07 212.15 617.41 213.4 616.15 214.49L615.91 214.7L613.39 211.39L613.58 211.21C614.1 210.73 614.37 210.2 614.42 209.6C614.47 208.99 614.25 208.25 613.77 207.4C613.03 206.09 612.27 205.42 611.52 205.42C611.26 205.42 611 205.5 610.72 205.66C610.39 205.84 610.17 206.08 610.06 206.36C609.94 206.67 609.9 207.05 609.95 207.5C610 207.98 610.24 208.91 610.66 210.26C611.19 211.93 611.49 213.13 611.58 213.93C611.68 214.74 611.65 215.45 611.5 216.04C611.36 216.64 611.08 217.2 610.68 217.71C610.28 218.2 609.75 218.65 609.08 219.02C608.22 219.51 607.34 219.76 606.48 219.76Z" /><path fill-rule="evenodd" class="shp1" d="M622.33 252.41C621.82 252.41 621.33 252.37 620.84 252.29C619.25 252.03 617.87 251.35 616.72 250.27C615.57 249.2 614.7 247.77 614.14 246.04C613.26 243.37 613.37 240.98 614.45 238.93C615.53 236.89 617.46 235.4 620.18 234.51C621.46 234.09 622.67 233.88 623.79 233.88C625.08 233.88 626.27 234.15 627.36 234.69C629.39 235.71 630.87 237.59 631.75 240.29C632.64 242.98 632.55 245.38 631.5 247.42C630.45 249.45 628.55 250.93 625.86 251.81C624.65 252.21 623.46 252.41 622.33 252.41ZM624.1 238.1C623.32 238.1 622.45 238.26 621.52 238.56C619.78 239.13 618.53 240.01 617.81 241.15C617.09 242.29 616.97 243.54 617.43 244.96C617.92 246.44 618.75 247.39 619.97 247.87C620.52 248.09 621.13 248.2 621.79 248.2C622.61 248.2 623.53 248.03 624.52 247.71C626.23 247.14 627.45 246.3 628.15 245.18C628.85 244.07 628.95 242.82 628.47 241.36C627.99 239.88 627.16 238.93 625.95 238.44C625.39 238.22 624.77 238.1 624.1 238.1Z" /><path class="shp1" d="M625.76 263.91L619.47 265.11L618.68 260.94L636.38 257.54L638.91 270.76L635.57 271.4L633.83 262.35L629.11 263.26L630.79 272.03L627.44 272.67L625.76 263.91Z" /><path fill-rule="evenodd" class="shp1" d="M635.18 306.78C634.07 306.78 633.04 306.53 632.15 306.02C631.21 305.49 630.47 304.73 629.95 303.74C629.43 302.76 629.16 301.58 629.14 300.22L629.07 296.19L622.94 296.29L622.87 292.04L640.9 291.75L641.03 299.88C641.07 302.04 640.59 303.73 639.6 304.92C638.6 306.13 637.17 306.75 635.33 306.78L635.18 306.78ZM632.52 299.71C632.54 300.63 632.77 301.34 633.22 301.82C633.66 302.28 634.28 302.51 635.11 302.51C636.01 302.5 636.61 302.26 637 301.78C637.41 301.28 637.6 300.53 637.59 299.52L637.53 296.04L632.46 296.12L632.52 299.71Z" /><path fill-rule="evenodd" class="shp1" d="M621.43 323.69L626.03 322.64L626.7 316.45L622.45 314.42L622.91 310.16L640.12 318.67L639.61 323.36L620.97 327.91L621.43 323.69ZM629.46 321.98L634.23 320.91L635.87 320.59L635.54 320.45C635.19 320.3 633.31 319.43 629.92 317.83L629.46 321.98Z" /><path class="shp1" d="M616.2 348.76L617.33 344.14L631 340.28C630.32 340.17 629.73 340.06 629.25 339.94L618.97 337.42L619.88 333.7L637.4 337.98L636.29 342.48L622.48 346.42C623.2 346.54 623.87 346.68 624.49 346.83L634.63 349.31L633.72 353.04L616.2 348.76Z" /><path fill-rule="evenodd" class="shp1" d="M608.04 371.02L609.58 367.06L614.29 367.24L616.55 361.44L612.96 358.38L614.51 354.38L628.93 367.05L627.22 371.45L608.04 371.02ZM622.65 367.7L624.32 367.81L624.04 367.59C623.73 367.35 622.15 366.02 619.28 363.6L617.77 367.49L622.65 367.7Z" /><path class="shp1" d="M596.62 392.32L598.49 388.97L608.6 394.63C608.67 394.67 608.8 394.75 609 394.86C608.32 394.19 607.81 393.67 607.46 393.29L600.36 385.64L601.83 383L612.07 385.04L614.31 385.57C613.81 385.31 613.43 385.11 613.18 384.97L603.7 379.67L605.57 376.32L621.3 385.12L618.66 389.84L608.42 387.76L607.45 387.54L606.18 387.2L607.46 388.47L614.99 396.42L612.36 401.12L596.62 392.32Z" /><path fill-rule="evenodd" class="shp1" d="M582.61 411.48L585.17 408.09L589.66 409.55L593.42 404.58L590.8 400.66L593.39 397.24L603.79 413.38L600.93 417.14L582.61 411.48ZM597.58 412.27L599.14 412.83C599.08 412.74 599.01 412.65 598.95 412.55C598.72 412.24 597.56 410.53 595.46 407.41L592.94 410.75L597.58 412.27Z" /></g></g><g ><path class="shp0" d="M450 198.03L355.95 198.03L370.14 211.33L370.14 349.75C370.14 368.96 393.78 372.42 409.54 374.39C425.31 376.35 443.17 372.91 450 389.16C456.83 372.91 474.69 376.35 490.45 374.39C506.22 372.42 529.86 368.96 529.86 349.75L529.86 211.33L544.05 198.03L450 198.03Z" /><path class="shp2" d="M373.68 225.12L526.32 225.12L526.32 255.67L373.68 255.67L373.68 225.12Z" /><g ><path class="shp3" d="M432.27 225.12L442.12 225.12L442.12 255.67L432.27 255.67L432.27 225.12Z" /><path class="shp3" d="M407.65 225.12L417.5 225.12L417.5 255.67L407.65 255.67L407.65 225.12Z" /><path class="shp3" d="M383.53 225.12L393.38 225.12L393.38 255.67L383.53 255.67L383.53 225.12Z" /><path class="shp3" d="M457.88 225.12L467.72 225.12L467.72 255.67L457.88 255.67L457.88 225.12Z" /><path class="shp3" d="M482.5 225.12L492.34 225.12L492.34 255.67L482.5 255.67L482.5 225.12Z" /><path class="shp3" d="M506.62 225.12L516.47 225.12L516.47 255.67L506.62 255.67L506.62 225.12Z" /></g><path class="shp1" d="M373.68 255.67L373.68 316.75L418.28 316.75L418.98 303.45L417.87 300.74L425.87 299.26C431.41 293.72 434.37 288.55 434.74 283L447.66 283L447.66 275.62C443.6 276.35 442.12 276.35 440.64 278.2C440.64 278.2 440.27 275.99 436.95 274.14C436.95 274.14 438.3 270.07 441.88 269.33C445.45 268.6 446.55 264.53 450.98 264.53L450.98 283L462.8 283C463.17 288.55 466.12 293.72 471.66 299.26L482.12 300.74L481.02 303.45L477.28 316.75L526.32 316.75L526.32 255.67L373.68 255.67Z" /><path class="shp3" d="M373.68 316.75C394.85 305.91 402.24 304.93 418.98 303.45C425.87 313.79 425.38 321.18 425.38 328.08L430.8 330.05L424.89 345.81L420.95 345.81C413.56 330.05 395.84 323.15 373.68 316.75Z" /><path class="shp3" d="M526.32 316.75C505.14 305.91 497.76 304.93 481.02 303.45C474.12 313.79 474.62 321.18 474.62 328.08L469.2 330.05L475.11 345.81L479.05 345.81C486.44 330.05 504.16 323.15 526.32 316.75Z" /><g ><path class="shp2" d="M437.2 286.21C436.33 289.84 433.38 296.12 430.79 298.71L465.32 298.71C462.37 294.09 461.08 291.25 460.89 286.21L437.2 286.21Z" /><path class="shp2" d="M428.58 326.05C428.39 316.81 425.25 308.87 422.67 303.88L476.22 303.88C472.71 309.98 472.34 321.43 471.97 326.05L462.8 326.05L450 310.34L435.59 326.05L428.58 326.05Z" /><path class="shp2" d="M448.71 315.89L448.71 329L439.1 326.05L448.71 315.89Z" /><path class="shp2" d="M450.74 315.89L450.74 329L460.34 326.05L450.74 315.89Z" /></g><path class="shp4" d="M387.22 351.23C412.33 351.23 515.24 352.96 515.24 354.19C515.24 356.41 391.16 356.9 391.16 358.62C391.16 361.08 494.8 359.85 494.8 361.58C494.8 364.04 411.84 364.78 411.84 366.26C411.84 367.73 472.65 367.98 472.65 368.97C472.65 370.69 446.49 371.67 446.49 375.37" /></g><g ><path class="shp5" d="M570.47 323.65C566.41 314.78 572.69 307.76 572.69 307.76C572.69 307.76 581.55 312.93 584.87 308.13C588.2 303.33 580.81 301.48 574.9 298.71C569 295.93 567.89 294.58 561.61 293.6C556.14 292.73 551.64 302.21 550.9 311.45C550.16 320.69 550.9 332.88 561.61 333.99C564.29 334.27 568.53 334.92 569.43 336.77C569.43 336.77 564.66 353.94 553.85 361.7C539.45 372.04 519.88 372.41 502.52 379.8C485.17 387.19 468.37 416.75 449.44 416.75C430.52 416.75 413.72 387.19 396.36 379.8C379 372.41 359.43 372.04 345.03 361.7C334.23 353.94 329.46 336.77 329.46 336.77C330.36 334.92 334.6 334.26 337.27 333.99C347.98 332.88 348.72 320.69 347.98 311.45C347.24 302.22 342.74 292.74 337.27 293.6C331 294.59 329.89 295.94 323.98 298.71C318.07 301.48 310.68 303.33 314.01 308.13C317.33 312.93 326.19 307.76 326.19 307.76C326.19 307.76 332.47 314.78 328.41 323.65C311.42 328.08 311.42 331.04 311.42 339.17C311.42 347.29 312.53 357.64 328.78 374.26C345.03 390.89 365.34 388.67 386.39 398.28C407.44 407.88 419.25 437.44 449.44 437.44C479.63 437.44 491.45 407.88 512.5 398.28C533.55 388.67 553.86 390.89 570.11 374.26C586.36 357.64 587.47 347.29 587.47 339.16C587.47 331.03 587.46 328.08 570.47 323.65Z" /><path class="shp6" d="M339.17 333.65C333.58 333.99 336.53 328.27 337.64 326.97C338.75 325.68 339.12 320.87 328.41 323.65" /><path class="shp6" d="M333.03 322.8C327.5 323.88 326.81 329.6 329.46 336.77" /><path class="shp6" d="M337.27 293.6C333.03 293.91 332.84 298.71 334.5 301.11C336.16 303.51 342.63 302.59 340.78 299.07C339.49 297.04 336.53 298.34 334.32 298.71" /><path class="shp5" d="M337.71 302.45C334.14 302.59 330.63 305.36 326.19 307.76" /><path class="shp6" d="M559.72 333.65C565.31 333.99 562.36 328.27 561.25 326.97C560.14 325.68 559.77 320.87 570.48 323.65" /><path class="shp6" d="M565.86 322.8C571.39 323.88 572.08 329.6 569.43 336.77" /><path class="shp6" d="M561.61 293.6C565.86 293.91 566.04 298.71 564.38 301.11C562.72 303.51 556.26 302.59 558.1 299.07C559.4 297.04 562.35 298.34 564.57 298.71" /><path class="shp5" d="M561.18 302.45C564.75 302.59 568.26 305.36 572.69 307.76" /><g ><g ><path class="shp0" d="M468.49 420.27L471.85 425.2L470.61 426.04L467.26 421.11L465.36 422.4L464.71 421.45L469.74 418.03L470.39 418.98L468.49 420.27Z" /><path class="shp0" d="M479.44 418.96L477.4 416.69L475.1 418.77L477.15 421.04L476.04 422.04L471.27 416.76L472.38 415.76L474.28 417.86L476.57 415.78L474.67 413.68L475.78 412.68L480.55 417.95L479.44 418.96Z" /><path class="shp0" d="M482.84 415.64L477.72 410.71L481.6 406.68L482.43 407.48L479.58 410.44L480.87 411.68L483.51 408.94L484.33 409.74L481.7 412.48L483.05 413.78L486.04 410.66L486.87 411.46L482.84 415.64Z" /><path class="shp0" d="M496.78 401.26L495.52 402.5L491.95 400.24C491.52 399.98 491.1 399.69 490.67 399.37C490.92 399.74 491.11 400.03 491.23 400.22C491.36 400.42 492.18 401.77 493.71 404.27L492.45 405.52L486.15 401.73L487.23 400.68L491.19 403.23L492.13 403.85C491.87 403.45 491.62 403.07 491.38 402.71C491.15 402.34 490.36 401.06 489.04 398.89L490.22 397.72L493.52 399.78C493.77 399.93 494.31 400.31 495.12 400.9L494.8 400.39L494.18 399.38L492.01 395.95L493.09 394.89L496.78 401.26Z" /><path fill-rule="evenodd" class="shp0" d="M503.03 391.69C503.47 392.29 503.74 392.9 503.83 393.53C503.93 394.15 503.84 394.75 503.58 395.31C503.32 395.87 502.9 396.37 502.31 396.8C501.41 397.47 500.51 397.72 499.61 397.57C498.7 397.41 497.92 396.87 497.24 395.95C496.56 395.03 496.29 394.13 496.42 393.24C496.55 392.34 497.08 391.57 497.98 390.9C498.89 390.23 499.79 389.97 500.68 390.11C501.58 390.25 502.36 390.79 503.03 391.69ZM501.81 392.6C501.35 391.98 500.85 391.6 500.3 391.46C499.74 391.32 499.21 391.45 498.67 391.84C498.14 392.24 497.86 392.72 497.82 393.28C497.78 393.84 497.99 394.44 498.45 395.07C498.91 395.7 499.43 396.08 499.99 396.22C500.55 396.37 501.1 396.25 501.62 395.86C502.15 395.47 502.44 394.99 502.47 394.42C502.51 393.85 502.28 393.25 501.81 392.6Z" /><path fill-rule="evenodd" class="shp0" d="M511.67 391.56L509.08 389.73L507.48 390.43L508.55 392.91L507.18 393.5L504.35 386.97L507.61 385.55C508.4 385.22 509.07 385.12 509.64 385.27C510.2 385.42 510.62 385.82 510.9 386.44C511.09 386.9 511.14 387.35 511.02 387.8C510.91 388.24 510.65 388.61 510.25 388.91L513.2 390.89L511.67 391.56ZM509.55 387.1C509.27 386.47 508.74 386.33 507.93 386.68L506.18 387.44L507.01 389.36L508.8 388.59C509.18 388.42 509.44 388.21 509.56 387.95C509.69 387.69 509.68 387.41 509.55 387.1Z" /><path class="shp0" d="M515.41 390.16L513.27 383.37L514.69 382.93L516.48 388.62L520.11 387.47L520.46 388.57L515.41 390.16Z" /><path fill-rule="evenodd" class="shp0" d="M528.08 382.9C528.26 383.61 528.27 384.27 528.13 384.87C527.98 385.47 527.69 385.98 527.25 386.39C526.81 386.8 526.25 387.08 525.59 387.25L522.8 387.94L521.08 381.03L523.59 380.41C524.75 380.12 525.72 380.19 526.5 380.62C527.28 381.05 527.81 381.81 528.08 382.9ZM526.63 383.26C526.44 382.52 526.11 382 525.63 381.72C525.15 381.42 524.55 381.36 523.83 381.53L522.81 381.79L523.97 386.46L525.2 386.15C525.82 386 526.25 385.66 526.51 385.14C526.77 384.62 526.81 384 526.63 383.26Z" /><path class="shp0" d="M538.82 384.16C537.87 384.4 537.09 384.36 536.46 384.02C535.84 383.7 535.42 383.1 535.19 382.24L534.08 377.93L535.53 377.56L536.6 381.75C536.75 382.3 536.98 382.68 537.31 382.89C537.64 383.11 538.06 383.15 538.56 383.02C539.07 382.89 539.44 382.64 539.63 382.27C539.83 381.91 539.86 381.45 539.72 380.9L538.66 376.75L540.1 376.38L541.19 380.62C541.41 381.49 541.32 382.24 540.9 382.86C540.5 383.47 539.8 383.91 538.82 384.16Z" /><path class="shp0" d="M549.19 380.86L544.42 376.75C544.66 377.23 544.83 377.62 544.94 377.93L546.36 381.88L545.11 382.32L542.71 375.62L544.31 375.05L549.14 379.18C548.91 378.72 548.72 378.3 548.58 377.9L547.18 374.01L548.42 373.56L550.83 380.27L549.19 380.86Z" /><path class="shp0" d="M554.01 378.77L550.79 372.43L552.11 371.75L555.33 378.09L554.01 378.77Z" /><path class="shp0" d="M557.65 369.63L561.12 374.48L559.91 375.35L556.44 370.5L554.57 371.83L553.9 370.9L558.85 367.35L559.52 368.29L557.65 369.63Z" /><path class="shp0" d="M565.33 370.92L560.19 366L564.06 361.96L564.9 362.76L562.06 365.73L563.35 366.96L565.97 364.22L566.8 365.02L564.17 367.76L565.53 369.06L568.51 365.94L569.34 366.74L565.33 370.92Z" /><path fill-rule="evenodd" class="shp0" d="M572.56 357.35C573.12 357.81 573.53 358.33 573.77 358.89C574.01 359.46 574.07 360.05 573.96 360.64C573.85 361.23 573.58 361.79 573.15 362.31L571.33 364.54L565.83 360.02L567.46 358.03C568.22 357.1 569.05 356.58 569.93 356.46C570.82 356.33 571.68 356.63 572.56 357.35ZM571.61 358.51C571.02 358.02 570.44 357.81 569.88 357.86C569.32 357.9 568.8 358.22 568.33 358.79L567.66 359.6L571.38 362.65L572.18 361.68C572.59 361.18 572.74 360.64 572.64 360.08C572.54 359.51 572.19 358.99 571.61 358.51Z" /></g></g><g ><g ><path class="shp0" d="M332.29 360.82L327.79 364.73L326.81 363.6L331.32 359.7L329.81 357.96L330.68 357.2L334.67 361.81L333.8 362.56L332.29 360.82Z" /><path class="shp0" d="M334.43 371.74L336.57 369.57L334.37 367.39L332.22 369.55L331.17 368.51L336.17 363.45L337.23 364.5L335.24 366.51L337.44 368.7L339.44 366.68L340.49 367.73L335.49 372.78L334.43 371.74Z" /><path class="shp0" d="M338.66 375.22L342.37 369.14L347.14 372.05L346.54 373.03L343.04 370.89L342.11 372.42L345.35 374.4L344.75 375.38L341.51 373.4L340.53 375L344.21 377.26L343.61 378.24L338.66 375.22Z" /><path class="shp0" d="M351.13 381.42L353.31 374.65L354.73 375.1L352.9 380.78L356.54 381.95L356.19 383.05L351.13 381.42Z" /><path fill-rule="evenodd" class="shp0" d="M363.86 385L363.69 383.09L361.06 382.44L360.01 384.05L358.56 383.7L362.79 377.41L364.49 377.83L365.3 385.36L363.86 385ZM363.38 378.68L363.32 378.77C363.26 378.88 363.19 379.01 363.11 379.15C363.02 379.29 362.54 380.05 361.65 381.43L363.63 381.92L363.44 379.76L363.4 379.04L363.38 378.68Z" /><path class="shp0" d="M372 386.92L370.27 380.86C370.2 381.4 370.13 381.82 370.06 382.13L369.08 386.22L367.79 385.91L369.45 378.99L371.1 379.39L372.87 385.49C372.93 384.98 373.01 384.52 373.11 384.12L374.07 380.1L375.36 380.4L373.7 387.33L372 386.92Z" /><path fill-rule="evenodd" class="shp0" d="M383.53 386.34C383.32 387.04 383 387.62 382.57 388.06C382.14 388.5 381.63 388.79 381.04 388.92C380.46 389.05 379.84 389.02 379.19 388.83L376.43 388.01L378.44 381.19L380.91 381.91C382.06 382.25 382.86 382.81 383.32 383.57C383.78 384.34 383.85 385.27 383.53 386.34ZM382.09 385.92C382.31 385.18 382.28 384.56 382.01 384.07C381.75 383.57 381.26 383.21 380.55 383.01L379.54 382.71L378.18 387.33L379.39 387.69C380 387.87 380.55 387.8 381.04 387.49C381.53 387.17 381.88 386.64 382.09 385.92Z" /><path fill-rule="evenodd" class="shp0" d="M396.16 391.86C395.82 392.51 395.4 393.02 394.89 393.37C394.38 393.72 393.83 393.9 393.23 393.91C392.62 393.93 392.03 393.78 391.42 393.47L388.87 392.14L392.16 385.82L394.44 387.01C395.5 387.57 396.18 388.26 396.49 389.1C396.79 389.94 396.68 390.86 396.16 391.86ZM394.83 391.17C395.19 390.49 395.28 389.88 395.11 389.34C394.94 388.8 394.54 388.36 393.88 388.02L392.94 387.53L390.72 391.8L391.84 392.38C392.41 392.68 392.96 392.72 393.5 392.5C394.04 392.28 394.48 391.84 394.83 391.17Z" /><path class="shp0" d="M396.39 396.55L400.66 390.85L401.85 391.75L397.59 397.44L396.39 396.55Z" /><path class="shp0" d="M402.36 401.54L401.25 400.52L404.13 393.5L405.28 394.55L403.26 398.91C403.13 399.19 402.91 399.6 402.63 400.15L403 399.9L403.8 399.41L407.97 397.03L409.1 398.08L402.36 401.54Z" /><path class="shp0" d="M405.78 404.91L410.87 399.93L411.91 401L406.82 405.97L405.78 404.91Z" /><path fill-rule="evenodd" class="shp0" d="M415.81 410.2C415.27 410.7 414.71 411.03 414.11 411.2C413.52 411.37 412.94 411.36 412.36 411.17C411.79 410.99 411.27 410.65 410.8 410.15L408.83 408.06L414 403.18L415.77 405.05C416.59 405.92 417.01 406.81 417.02 407.7C417.03 408.59 416.63 409.42 415.81 410.2ZM414.78 409.11C415.33 408.58 415.62 408.04 415.64 407.47C415.66 406.91 415.42 406.35 414.91 405.81L414.19 405.04L410.69 408.35L411.55 409.27C411.99 409.73 412.5 409.95 413.08 409.92C413.66 409.9 414.23 409.63 414.78 409.11Z" /><path class="shp0" d="M415.09 414.69L420.1 409.63L424.07 413.57L423.26 414.39L420.35 411.49L419.09 412.76L421.79 415.44L420.98 416.25L418.28 413.58L416.96 414.91L420.03 417.95L419.22 418.76L415.09 414.69Z" /><path fill-rule="evenodd" class="shp0" d="M428.73 422.09C428.27 422.66 427.76 423.07 427.19 423.31C426.62 423.56 426.04 423.63 425.45 423.52C424.86 423.42 424.3 423.15 423.77 422.72L421.53 420.92L425.99 415.38L428 416.99C428.93 417.75 429.46 418.56 429.6 419.45C429.73 420.33 429.44 421.21 428.73 422.09ZM427.57 421.15C428.04 420.55 428.26 419.97 428.2 419.41C428.14 418.85 427.83 418.33 427.25 417.87L426.43 417.21L423.41 420.96L424.4 421.76C424.89 422.16 425.43 422.31 426 422.19C426.57 422.09 427.09 421.74 427.57 421.15Z" /></g></g><path class="shp0" d="M446.27 426.35L452.61 426.35L452.61 428.57L446.27 428.57L446.27 426.35Z" /></g></svg>