<svg version="1.2" baseProfile="tiny-ps" xmlns="http://www.w3.org/2000/svg" viewBox="0 0 900 600" width="900" height="600">
	<style>
		tspan { white-space:pre }
		.shp0 { fill: #ffffff } 
		.shp1 { fill: #239f40 } 
		.shp2 { fill: #da0000 } 
		.shp3 { fill: #f6b721;stroke: #000000;stroke-width: 2.115 } 
		.shp4 { fill: #000000 } 
		.shp5 { fill: #f6b721;stroke: #000000;stroke-width: 2.116 } 
		.shp6 { fill: #f6b721;stroke: #000000;stroke-width: 2.119 } 
	</style>
	<path id="Layer" class="shp0" d="M-450 0L1350 0L1350 600L-450 600L-450 0Z" />
	<path id="Layer" class="shp1" d="M-450 0L1350 0L1350 200L-450 200L-450 0Z" />
	<path id="Layer" class="shp2" d="M-450 400L1350 400L1350 600L-450 600L-450 400Z" />
	<g id="Layer">
		<g id="Layer">
			<path id="Layer" class="shp3" d="M324.02 300.53C324.02 300.53 320.97 267.58 327.53 247.37C332.06 233.42 339.06 221.98 350.38 212.66C368.06 198.1 395.37 194.25 414.53 202.99C397.75 203.87 375.29 209.53 363.12 219.69C353.8 227.47 346.51 238.41 342.91 250C336.78 269.73 339.83 301.41 339.83 301.41L324.02 300.53Z" />
			<path id="Layer" class="shp4" d="M335.98 246.65C330.31 263.75 330.31 282.61 330.87 298.81L332.98 298.73C332.41 282.6 332.55 264 338 247.31C343.45 230.62 354.12 215.85 374.95 207.05C350.09 212.64 338.9 237.84 335.98 246.65Z" />
		</g>
		<g id="Layer">
			<path id="Layer" class="shp5" d="M323.89 297.53L339.01 297.53L339.01 331.43L323.89 331.43L323.89 297.53Z" />
			<g id="Layer">
				<path id="Layer" class="shp6" d="M391.95 358.13C382.87 355.59 374.6 359.45 356.43 334.96C356.43 334.96 348.48 337.39 344.35 337.55C342.2 337.63 339.98 337.35 337.95 336.69C334.22 335.46 327.77 331.08 327.77 331.08L326.11 316.84C326.11 316.84 322.83 316.31 321.85 314.9C321.01 313.68 321 311.8 321.85 310.58C323.07 308.85 324.95 308.44 327.3 307.78C331.68 306.55 336.57 306.64 341.03 307.56C344.99 308.38 348.07 310.29 351.93 311.45C363.8 315 388.87 317.27 388.87 317.27L391.95 358.13Z" />
				<path id="Layer" class="shp6" d="M323.04 328.49C323.04 328.49 329.13 328.55 332.03 328.27C334.15 328.07 335.92 326.96 338.19 327.84C339.54 328.37 340.8 331.08 340.8 331.08C340.8 331.08 338.75 333.56 337.24 334.1C333.06 335.6 327.27 335.92 323.51 333.67C322.51 333.06 322.1 331.74 322.09 330.65C322.08 329.87 323.04 328.49 323.04 328.49Z" />
				<path id="Layer" class="shp6" d="M322.8 323.1C322.8 323.1 328.89 323.16 331.8 322.88C333.91 322.68 336.87 321.13 339.14 322.02C340.49 322.54 341.74 325.25 341.74 325.25C341.74 325.25 339.7 327.73 338.19 328.27C334.01 329.78 327.03 330.53 323.27 328.27C322.27 327.67 321.87 326.35 321.85 325.25C321.84 324.48 322.8 323.1 322.8 323.1Z" />
				<path id="Layer" class="shp6" d="M322.8 317.06C322.8 317.06 328.89 317.12 331.8 316.84C333.91 316.64 336.87 315.09 339.14 315.98C340.49 316.5 341.74 319.21 341.74 319.21C341.74 319.21 339.7 321.69 338.19 322.23C334.01 323.74 327.03 324.49 323.27 322.23C322.27 321.63 321.87 320.31 321.85 319.21C321.84 318.44 322.8 317.06 322.8 317.06L322.8 317.06Z" />
			</g>
			<g id="Layer">
				<path id="Layer" class="shp5" d="M340.42 301.96L348.26 301.96L353.17 298.67L348.28 295.31L340.44 295.31L331.74 292.55L323.04 295.31L314.62 295.31L309.74 298.67L314.65 301.96L323.07 301.96L331.74 305.14L340.42 301.96Z" />
				<path id="Layer" class="shp5" d="M466.56 203.44C465.3 203.44 464.04 203.48 462.78 203.53L463.94 271.52L453.84 226.22C451.21 226.65 448.61 227.21 446.05 227.89L458.99 274.31L431.09 209.97C428.5 210.95 425.96 212.02 423.46 213.2L454.23 277.92L425.69 236.47C423.46 237.8 421.3 239.23 419.22 240.76L446.52 276.39L397.7 230.48C395.75 232.28 393.87 234.17 392.07 236.13L444.15 282.08L402.83 257.05C401.37 259.03 400 261.09 398.74 263.23L447.81 289.91L449.7 286.95L450.57 287.76L454.63 284.05L456.62 282.79L456.62 282.89L460.98 281.26L460.98 281.35L464.74 280.45L468.5 280.45L472.36 281.35L472.36 281.26L476.71 282.89L476.71 282.79L478.7 284.05L482.76 287.76L483.64 286.95L485.03 289.2L484.03 289.56L486.12 294.25L487.31 298.84L543.53 288.74C543.18 286.32 542.7 283.95 542.11 281.63L487.02 294.07L560.5 267.58C559.62 265.18 558.65 262.83 557.58 260.53L491.85 286.48L534.51 263.29C533.25 261.16 531.89 259.08 530.43 257.1L489.19 282.08L541.21 236.18C539.42 234.23 537.54 232.35 535.6 230.56L486.82 276.48L514.05 240.81C511.97 239.29 509.83 237.85 507.61 236.52L481.86 273.89L481.17 273.53L509.84 213.23C507.33 212.05 504.76 210.98 502.16 210L475.82 270.73L475.42 270.51L487.28 227.94C484.71 227.25 482.09 226.67 479.45 226.24L470.09 267.73L471.26 203.56C469.7 203.49 468.13 203.44 466.56 203.44L466.56 203.44Z" />
				<path id="Layer" class="shp5" d="M466.56 262.86C444.63 262.86 426.58 279.06 426.58 299.27C426.58 319.48 444.61 335.78 466.56 335.78C488.5 335.78 506.63 319.5 506.63 299.27C506.63 279.05 488.49 262.86 466.56 262.86L466.56 262.86Z" />
			</g>
		</g>
		<g id="Layer">
			<path id="Layer" class="shp6" d="M476.67 363.16C471.9 371.11 478.51 378.21 474.92 384.29C474.92 384.29 467.28 382.92 463.31 382.75C460.56 382.63 456.5 382.63 454.15 383.71C449.95 385.65 446.33 388.28 444.42 391.22C440.95 396.58 445.19 401.53 451.46 398.9C457.07 404.06 463.67 400.76 471.76 397.93C473.42 397.36 475.86 397.98 477.89 398.4C480.01 398.83 482.42 399.17 484.42 398.4C489.19 396.55 492.42 391.12 495.45 382.41L500.15 384.38C500.2 380.65 498.54 377.81 496.37 375.24L501.98 377.12C502.02 373.42 500.2 370.7 498.36 368.66L503.76 370.65C503.76 370.65 503.31 368.72 503.22 365.87C503.16 364.02 503.6 361.3 503.24 360.07C502.61 357.95 501.78 357.1 501.25 355.56C500.82 354.32 500.29 351.75 500.29 351.75C484.04 344.63 487.55 327.86 490.53 320.75L459.59 342.09C453.34 346.16 461.92 360.8 476.67 363.16L476.67 363.16Z" />
			<path id="Layer" fill-rule="evenodd" class="shp4" d="M477.29 349.08C475.12 348.28 471.88 346.51 471.17 343.36L473.52 338.44C472.5 343.99 476.22 348.04 477.29 349.08L477.29 349.08ZM473.74 352.07C471.57 351.27 468.33 349.49 467.62 346.34L469.97 341.43C468.94 346.97 472.66 351.03 473.74 352.07L473.74 352.07ZM470.76 355.59C468.59 354.79 465.35 353.02 464.63 349.87L466.99 344.95C465.96 350.49 469.68 354.55 470.76 355.59L470.76 355.59ZM466.95 388.56C463.36 390.19 459.57 389.27 455.66 392.35C454.02 393.46 452.46 394.78 452.1 396.23C452.01 396.59 452.09 397.46 452.29 398.12C452.5 398.78 452.79 399.29 452.79 399.29L450.71 400.1C450.71 400.1 450.46 399.47 450.22 398.66C449.97 397.85 449.66 396.81 449.92 395.77C450.5 393.45 452.62 391.92 454.37 390.72C455.91 389.68 457.7 389.03 459.52 388.74C462.27 388.31 466.95 388.56 466.95 388.56L466.95 388.56ZM483.16 387.74C482.38 387.14 486.7 371.88 488.82 370.97C489.93 373.59 489.58 376.83 488.6 379.91C487.62 382.99 484.81 385.53 483.16 387.74L483.16 387.74ZM487.15 365.46C484.93 364.67 483.27 361.97 484.39 359.43C485.27 362.89 490.82 364.49 495.04 363.21C494.49 366.35 489.37 366.26 487.15 365.46ZM487.97 357.75C485.75 356.95 484.09 354.25 485.21 351.72C486.09 355.17 491.64 356.77 495.86 355.49C495.31 358.63 490.19 358.54 487.97 357.75Z" />
			<path id="Layer" class="shp6" d="M572.59 233.33C573.54 237.63 571.65 240.58 569.17 241.76C565.45 243.54 561.99 242.34 558.88 239.69C554.83 236.23 552.09 231.63 548.48 228.59C543.9 224.74 538.39 223.71 533.63 223.99C528.88 224.28 524.62 226.24 521.56 229.32C515.43 235.47 513.86 246.49 520.27 255.55C526.31 264.08 544.47 270.15 551.35 275.3C557.54 279.93 560.27 282.99 561.45 286.4C562.63 289.81 563.09 294.13 561.25 298.3C559.04 303.32 553.77 305.47 545.9 305.63C535.45 305.83 525.59 297 515.5 295.51C496.61 292.74 491.24 300.09 473.68 300.29C438.91 300.7 424.72 290.19 424.72 290.19L387.03 333.83C375.51 338.13 374.91 353.97 387.03 362.51C383.56 364.5 380.13 368.62 378.61 372.07C376.7 376.41 375.14 379.11 372.77 382.26C372.77 382.26 365.16 380.9 361.19 380.73C358.44 380.61 354.34 380.63 351.98 381.72C347.79 383.66 344.19 386.27 342.28 389.21C338.81 394.56 343.04 399.5 349.31 396.87C354.92 402.03 361.51 398.79 369.61 395.97C371.26 395.39 373.71 396 375.74 396.42C377.87 396.85 380.29 397.24 382.28 396.42C386.94 394.49 389.05 389.52 392.37 386.05C393.94 384.41 397.03 381.09 397.03 381.09L400.09 384.97C402.16 381.75 402.26 378.53 401.78 375.32L405.64 379.47C407.68 376.26 407.52 373.05 407.02 370.45L410.69 374.6C410.69 374.6 411.29 372.79 412.77 370.27C413.72 368.63 415.58 366.45 415.93 365.22C416.54 363.09 416.73 360.35 416.73 360.35C418.84 362.19 420.44 363.15 423.16 362.78C423.55 358.93 423.83 357.76 424.84 356.2C438.3 355.55 450.83 353.4 462.16 349.07C470.72 345.81 478.67 341.34 485.72 335.37C487.56 333.81 489.04 332.98 490.77 331.22C492.47 329.48 499.5 330.36 503.05 331.67C504.76 332.3 506.91 334.92 506.91 334.92C509.75 342.16 516.45 359.44 534.92 363.14C530.15 371.09 536.73 378.26 533.14 384.34C533.14 384.34 525.52 382.89 521.56 382.71C518.8 382.59 514.81 382.62 512.45 383.7C508.25 385.64 504.55 388.25 502.65 391.19C499.18 396.55 503.41 401.57 509.68 398.94C515.29 404.1 521.88 400.77 529.97 397.95C531.63 397.37 534.08 397.99 536.11 398.4C538.23 398.84 540.64 399.18 542.64 398.4C547.41 396.56 550.7 391.15 553.73 382.44L558.38 384.34C558.43 380.61 556.79 377.8 554.62 375.23L560.26 377.12C560.3 373.41 558.45 370.68 556.6 368.64L562.04 370.63C562.04 370.63 561.54 368.7 561.45 365.85C561.39 364 561.81 361.31 561.45 360.08C560.82 357.95 560 357.12 559.47 355.57C559.04 354.33 558.58 351.78 558.58 351.78C548.85 347.29 546.7 339.89 546.6 333.2C546.47 324.38 545 319.38 538.88 314.04C541.02 313.69 543.24 313.97 545.12 313.99C556.82 314.13 566.4 308.66 569.25 300.64C571.16 295.28 571.18 289.27 568.86 284.69C565.54 278.12 562.02 275.28 555.31 270.26C547.75 264.6 530.29 258.28 525.62 251.68C520.61 244.61 522.06 237.36 526.21 233.19C530.27 229.11 536.94 227.18 544.13 232.83C548.44 236.22 551.06 241.04 554.62 244.02C558.77 247.49 566.01 250.36 572.24 246.72C578.7 242.94 579.56 237.36 578.93 232.61C580.01 228.71 583.74 225.38 590.26 225.07C588.19 221.11 578.68 217.1 574.63 225.39C569.78 218.79 560.5 222 558.77 228.28C563.62 227.27 568.94 228.81 572.59 233.33L572.59 233.33Z" />
			<path id="Layer" fill-rule="evenodd" class="shp4" d="M525.17 308.48C529.35 307.75 533.98 310.38 538.49 312.03C541.18 313.01 543.6 312.69 544.5 313.3L540.43 314.04L545.4 322.78C542.71 318.26 529.65 309.44 525.17 308.48L525.17 308.48ZM545.4 322.78C545.44 322.85 545.47 322.91 545.51 322.98L545.4 322.78ZM525.42 349.53C529.64 353.22 539.03 356.31 541.85 360.44C533.72 358.64 527.49 355.81 523.04 351.42C518.59 347.02 516.08 341.13 515.02 333.47C518.65 336.08 519.72 344.55 525.42 349.53ZM539.25 383.06C538.37 382.58 539.88 366.89 541.81 365.67C543.37 368.08 543.62 371.33 543.2 374.52C542.79 377.7 540.48 380.63 539.25 383.06ZM511.26 329.51C508.88 326.09 503.46 324.14 500.38 326.32C501.27 323.71 504.43 322.56 506.7 323.22C508.97 323.88 513.01 326.75 511.26 329.51ZM459.22 327.13C463.99 332.57 480.3 338.57 486.52 335.42L481.53 338.27C478.04 339.97 460.78 332.71 459.22 327.13L459.22 327.13ZM450.66 328.36C450.66 328.36 450.66 328.36 450.66 328.36C450.66 328.36 450.66 328.36 450.66 328.36L450.66 328.36ZM450.66 328.36C450.84 331.21 472.75 343.86 479.6 340.47L474.55 343.04C469.98 343.8 450.4 332.9 450.66 328.36ZM479.69 340.43C479.66 340.44 479.63 340.45 479.6 340.47L479.69 340.43ZM446.14 333.76C449.36 339.35 463.56 346.76 471.82 344.82L466.51 347.14C462.83 348.46 447 339.47 446.14 333.76L446.14 333.76ZM441.21 338.98C443.2 343.5 454.4 350.47 461.38 349.37L455.84 351.18C451.03 350.32 440.81 343.35 441.21 338.98L441.21 338.98ZM433.42 340.23C433.42 340.23 433.42 340.23 433.42 340.23C433.42 340.23 433.42 340.23 433.42 340.23L433.42 340.23ZM433.42 340.23C433.97 342.9 445 353.44 450.7 352.63L445.36 353.68C441.5 353.34 432.85 343.95 433.42 340.23ZM451.11 352.55C450.98 352.58 450.84 352.61 450.7 352.63L451.11 352.55ZM428.88 345.92C429.57 347.28 433.52 353.92 440.98 354.71L435.12 355.23C431.24 353.45 428.65 347.96 428.88 345.92L428.88 345.92ZM421.93 349.14C422.61 350.44 425.4 355.07 431.44 356.22L425.56 356.43C422.6 354.67 421.96 351.28 421.93 349.14L421.93 349.14ZM404.11 353.06C405.23 355.59 403.57 358.29 401.35 359.09C399.13 359.88 394.01 359.97 393.46 356.83C397.68 358.11 403.23 356.51 404.11 353.06ZM404.24 360.36C405.36 362.89 403.7 365.6 401.48 366.39C399.26 367.18 394.14 367.27 393.59 364.13C397.81 365.42 403.36 363.82 404.24 360.36ZM391.58 372.43C391.61 375.24 390.03 378.16 387.92 380.73C385.81 383.3 382.2 384.77 379.8 386.32C379.3 385.5 389.25 372.61 391.58 372.43ZM525.03 388.4C521.45 390.03 517.66 389.11 513.75 392.19C512.11 393.3 510.54 394.62 510.19 396.06C510.09 396.43 510.18 397.3 510.38 397.96C510.59 398.62 510.88 399.13 510.88 399.13L508.8 399.94C508.8 399.94 508.55 399.31 508.3 398.5C508.06 397.69 507.75 396.64 508.01 395.61C508.59 393.29 510.7 391.76 512.46 390.56C514 389.52 515.79 388.86 517.61 388.58C520.36 388.15 525.03 388.4 525.03 388.4L525.03 388.4ZM365.15 386.41C361.56 388.04 357.78 387.12 353.87 390.2C352.22 391.31 350.66 392.63 350.3 394.07C350.21 394.44 350.3 395.31 350.5 395.97C350.7 396.63 350.99 397.14 350.99 397.14L348.92 397.95C348.92 397.95 348.67 397.32 348.42 396.51C348.17 395.7 347.87 394.65 348.12 393.62C348.7 391.3 350.82 389.77 352.58 388.57C354.11 387.53 355.91 386.87 357.73 386.59C360.48 386.16 365.15 386.41 365.15 386.41L365.15 386.41Z" />
			<path id="Layer" class="shp6" d="M429.81 314.91L426.94 316.42C407.37 323.28 392.3 323.06 372.62 316.42L369.82 323.61C367.58 331.74 368.81 338.91 371.87 344.69C373.74 343.88 375.61 342.13 377.47 340.44C378.39 343.25 377.98 347.25 381.2 350.48C384.86 348.61 387.13 346.05 388.48 344.18C389.11 348.03 390.71 350.94 393.95 353.03C397.18 350.94 398.78 348.03 399.41 344.18C400.76 346.05 403.03 349.29 406.69 351.16C409.91 347.93 409.87 345.97 410.89 342.76C412.52 346.1 414.6 347.81 418.26 349.68C421.48 346.45 421.07 342.45 421.99 339.64C423.54 341.92 425.5 343.5 427.59 343.89C429.19 341.81 430.36 338.47 430.34 335.45C433.35 337.59 436.15 338.24 438.05 338.38C438.8 334.44 438.64 331.4 438.03 327.9C440.86 328.79 441.4 329.6 444.89 329.61C447.22 321.81 444.45 313.37 436.34 307.4L429.81 314.91Z" />
			<path id="Layer" fill-rule="evenodd" class="shp4" d="M443.65 329.37L439.01 329.09L437.5 331.89C437.42 328.09 435.18 324.66 434.75 322.61C435.79 324.78 439 327.25 443.65 329.37L443.65 329.37ZM434.88 337.57L430.98 336.17L429.1 338.78C429.54 334.99 428.88 328.8 428.73 326.7C429.47 328.98 431.44 334.9 434.88 337.57ZM424.6 341.8L422.3 340.4L420.42 343.01C420.86 339.23 420.05 331.71 419.9 329.61C420.64 331.89 423.19 339.27 424.6 341.8ZM413.42 345.11L411.11 343.71L409.23 346.32C409.68 342.53 409.89 335.81 409.74 333.72C410.48 335.99 412.01 342.57 413.42 345.11ZM401.94 346.36L399.64 344.97L397.76 347.57C398.21 343.79 398.41 337.07 398.27 334.97C399.01 337.25 400.54 343.83 401.94 346.36ZM389.39 337.35C389.24 339.45 389.45 344.19 389.89 347.97L388.01 345.36L385.71 346.76C387.12 344.23 388.65 339.63 389.39 337.35ZM378.55 333.2C378.4 335.3 378.6 340.04 379.05 343.82L377.17 341.21L374.87 342.61C376.28 340.08 377.81 335.48 378.55 333.2Z" />
			<path id="Layer" class="shp6" d="M367.19 292.41C367.19 292.41 359.97 303.96 358.53 309.92C357.59 313.78 357.72 319.79 357.72 319.79C360.06 319.65 362.41 319.18 364.75 317.07C365 320.36 364.64 323.65 366.92 326.94C369.26 326.11 372.15 325.03 374.5 321.02C374.68 325.11 375.51 327.52 378.02 331.38C381.09 330.48 383.5 327.15 385.87 324.96C385.92 327.95 386.73 331.28 389.66 335.57C393.49 333.47 395.72 328.62 396.61 325.87C397.59 328.47 399.73 333.47 403.57 335.57C406.49 331.28 407.31 327.95 407.36 324.96C409.73 327.15 412.14 330.48 415.21 331.38C417.72 327.52 418.55 325.11 418.73 321.02C421.08 325.03 423.96 326.11 426.31 326.94C428.59 323.65 428.23 320.36 428.47 317.07C430.82 319.18 434.03 321.01 436.38 321.14C436.85 320.71 438.68 314.95 437.8 311.5C440.55 313.68 442.91 315.14 446.98 315.03C447.65 311.84 447.08 308.66 446.4 305.77C450.82 307.29 455.62 307.71 459.04 306.07C451.05 292.55 438.43 290.35 424.56 288.02C408.85 301.03 390.01 303.45 367.19 292.41L367.19 292.41Z" />
			<path id="Layer" fill-rule="evenodd" class="shp4" d="M450.21 307.02L447.46 306.75L447.11 309.85C445.69 306.54 443.55 301.94 442.3 299.9C443.89 302.15 449.43 306.43 453.42 307.02L450.21 307.02ZM442.3 299.9C442.21 299.77 442.13 299.64 442.06 299.52C442.14 299.64 442.22 299.76 442.3 299.9ZM441.7 313.79L438.03 311.69L438.43 316.45C437.13 312.84 435.11 307.73 434.03 305.88C435.73 307.68 439.27 312 441.7 313.79ZM432.13 320.23L428.91 317.59L428.41 322.35C427.81 318.58 426.78 313.24 426.07 311.24C427.4 313.28 430.08 318.1 432.13 320.23ZM421.7 323.73L419.22 322.61L417.72 325.41C417.63 321.61 417.33 316.19 416.89 314.13C417.94 316.3 419.95 321.38 421.7 323.73ZM396.67 326.96L394.49 329.37C395.39 325.65 396.48 320.04 396.59 317.94C397.05 320.28 397.7 325.92 398.8 328.58L396.67 326.96ZM410.26 327.06L407.78 325.95L406.28 328.75C406.19 324.95 405.88 319.53 405.44 317.47C406.5 319.64 408.5 324.72 410.26 327.06ZM387.67 318.02C387.23 320.08 386.93 325.5 386.84 329.31L385.34 326.5L382.86 327.62C384.61 325.27 386.62 320.19 387.67 318.02ZM371.51 323.87C373.26 321.53 375.88 315.06 376.93 312.89C376.49 314.95 375.58 321.76 375.49 325.56L373.99 322.76L371.51 323.87ZM367.94 310.28C367.23 312.27 366.17 316.92 365.58 320.69L364.46 317.74L361.85 318.58C363.9 316.44 366.61 312.32 367.94 310.28Z" />
			<path id="Layer" class="shp6" d="M428.85 280.93C431.37 281.62 432.4 280.81 435.31 281.2C433.75 275.15 433.3 273.01 428.04 268.93C431.92 269.95 432.51 269 434.98 269.24C429.5 260.14 430.5 250.93 422.32 246.23C424.88 240.05 423.21 238.79 420.99 233.18C420.43 231.78 420.72 228.72 420.72 228.72C420.72 228.72 413.71 230.03 411.19 232.87C409.74 234.51 407.9 236.81 407.9 236.81C408.48 233.37 408.1 231.85 405.18 229.62C403.95 231.15 402.56 234.57 401.1 235.9C400.6 232.79 399.93 230.12 397.11 228.12C394.64 230.28 393.23 232.7 393.11 235.9C391.65 234.57 390.26 231.15 389.03 229.62C386.11 231.85 385.73 233.37 386.31 236.81C386.31 236.81 384.47 234.51 383.02 232.87C380.5 230.03 373.5 228.72 373.5 228.72C373.5 228.72 373.57 231.73 373.22 233.18C372.41 236.55 368.43 240.91 371.89 246.23C361.98 252.51 364.13 260.93 358.66 270.03C361.12 269.79 361.59 271.01 365.48 269.99C360.21 274.07 359.85 274.9 358.29 280.94C360.2 280.25 361.82 280.81 365.54 279.86C364.28 282.56 361.55 284.53 360.04 285.81C356.29 288.97 354.75 292.13 353.82 295.79C356.28 295.81 358.73 295.03 361.19 294.4C360.35 297.31 359.93 299.45 360.94 303.66C364.62 302.31 366.45 300.88 368.81 299.49C368.51 302.19 368.35 305.35 369.32 308.05C371.78 307.4 374.23 305.93 376.69 303.42C376.63 306.95 377.69 309.45 378.98 311.76C381.23 310.47 383.51 309.19 385.33 307.59C386.06 310.09 386.24 312.26 388.89 315.92C392.93 314.28 393.76 311.9 395.24 309.67C395.8 311.73 396.8 313.99 399.76 317.14C403.63 314.59 403.44 312.04 404.53 309.49C405.41 311.32 407.28 314.55 410.2 315.9C412.4 313.62 412.74 310.52 413.37 308.66C415.36 310.92 417.67 312.88 420.86 314.04C422.52 311.01 422.57 308.47 422.45 305.98C425.25 308.92 428.04 309.74 430.84 310.52C431.54 307.77 431.35 305.01 430.84 302.26C433.79 304.37 436.74 305.38 439.69 304.74C439.84 301.7 438.86 299.42 437.87 296.88C440.84 297.4 443.67 297.67 446.04 297.09C446.04 297.09 444.43 293.48 442.41 291.72C439.82 289.45 436.31 287.8 433.72 285.53C432.22 284.21 428.85 280.93 428.85 280.93L428.85 280.93Z" />
			<path id="Layer" fill-rule="evenodd" class="shp4" d="M376.24 233.64C376.24 233.64 381.81 236.87 382.87 239.51C383.34 240.68 383.56 243.74 383.56 243.74C383.56 243.74 380.16 242.2 378.51 242.84C376.86 243.49 375.84 246.81 375.84 246.81C375.84 246.81 374.28 244.1 374.36 242.66C374.47 240.55 375.54 238.84 376.14 236.8C376.45 235.74 376.24 233.64 376.24 233.64L376.24 233.64ZM417.81 236.8C418.41 238.84 419.38 240.55 419.5 242.66C419.58 244.1 418.01 246.81 418.01 246.81C418.01 246.81 417 243.49 415.34 242.84C413.69 242.2 410.29 243.74 410.29 243.74C410.29 243.74 410.51 240.68 410.98 239.51C412.04 236.87 417.62 233.64 417.62 233.64C417.62 233.64 417.5 235.74 417.81 236.8ZM374.55 251.41C374.55 251.41 374.55 251.41 374.55 251.41C374.55 251.41 374.55 251.41 374.55 251.41C373.86 253.39 373.34 254.97 373.96 257.27C374.35 258.74 375.77 260.02 378.32 260.34L381.09 260.7L378.81 262.14C378.81 262.14 378.24 262.57 377.52 263.22C376.81 263.87 376.01 264.8 375.84 265.39C374.49 270.18 375.84 274.24 378.71 277.11C381.58 279.98 386.16 282.1 391.28 281.26C394.62 280.71 395.16 280.13 394.95 277.02C394.28 276.95 393.45 276.78 392.67 276.39C391.96 276.04 391.68 275.66 391.38 275.31C391.09 274.96 390.85 274.7 390.79 274.68C389.86 274.28 388.41 274.41 388.41 274.41L387.23 274.68L387.13 273.5C387.05 272.49 386.8 271.84 387.62 270.17C388.29 268.83 389.3 268.01 390 267.56C390.35 267.33 390.55 267.23 390.69 267.11C390.83 266.99 390.86 266.94 390.89 266.84C391.8 263.46 392.08 260.54 391.18 257.72C390.65 256.04 388.81 254.61 386.43 254.3C383.87 253.96 380.75 254.67 379.31 254.93C380.73 253.31 383.5 251.74 387.03 252.31C389.92 252.78 392.53 254.57 393.36 257.18C394.39 260.4 394.01 263.81 393.07 267.29C392.92 267.81 392.62 268.26 392.27 268.55C391.93 268.84 391.59 269.07 391.28 269.27C390.68 269.67 390.08 270.02 389.6 270.99C389.19 271.81 389.35 271.78 389.4 272.51C390.12 272.46 390.55 271.94 391.68 272.42C392.43 272.74 392.84 273.3 393.16 273.68C393.49 274.07 393.78 274.37 393.66 274.32C393.97 274.47 394.62 274.62 395.14 274.68C395.67 274.73 396.13 274.68 396.13 274.68C396.13 274.68 396.6 274.73 397.12 274.68C397.65 274.62 398.3 274.47 398.61 274.32C398.49 274.37 398.78 274.07 399.1 273.68C399.43 273.3 399.84 272.74 400.59 272.42C401.72 271.94 402.15 272.46 402.87 272.51C402.92 271.78 403.08 271.81 402.67 270.99C402.19 270.02 401.59 269.67 400.99 269.27C400.68 269.07 400.34 268.84 400 268.55C399.65 268.26 399.35 267.81 399.2 267.29C398.26 263.81 397.88 260.4 398.91 257.18C399.74 254.57 402.35 252.78 405.24 252.31C408.77 251.74 411.54 253.31 412.96 254.93C411.52 254.67 408.4 253.96 405.84 254.3C403.46 254.61 401.62 256.04 401.08 257.72C400.19 260.54 400.47 263.46 401.38 266.84C401.41 266.94 401.44 266.99 401.58 267.11C401.72 267.23 401.92 267.33 402.27 267.56C402.97 268.01 403.98 268.83 404.65 270.17C405.47 271.84 405.22 272.49 405.14 273.5L405.04 274.68L403.86 274.41C403.86 274.41 402.41 274.28 401.48 274.68C401.42 274.7 401.18 274.96 400.89 275.31C400.59 275.66 400.31 276.04 399.6 276.39C398.82 276.78 397.99 276.95 397.32 277.02C397.32 279.95 397.42 280.77 400.99 281.26C406.13 281.97 410.69 279.98 413.56 277.11C416.43 274.24 417.78 270.18 416.43 265.39C416.26 264.8 415.46 263.87 414.75 263.22C414.03 262.57 413.46 262.14 413.46 262.14L411.18 260.7L413.95 260.34C416.5 260.02 417.92 258.74 418.31 257.27C418.93 254.97 418.41 253.39 417.71 251.41C420.19 252.92 421.05 255.47 420.39 257.72C419.88 259.45 418.26 260.79 416.13 261.6C416.24 261.69 416.22 261.68 416.33 261.78C417.17 262.55 418.14 263.57 418.51 264.85C419.98 270.05 419.04 275.09 415.93 278.46C418.09 280.52 424.4 288.06 426.43 290.91C422.95 288.87 417.25 282.23 414.45 279.91C412.64 281.29 410.31 282.17 407.82 282.7C410.24 284.93 415.51 290.21 417.42 292.89C414.2 291.01 409.38 286.73 406.43 284.33C406.64 286.08 406.23 287.87 405.04 289.29C404.82 289.55 404.52 289.76 404.25 290.01C405.2 292.23 406.96 299 407.52 302.45C405.35 299.37 403.77 294.21 402.37 291.27C401.49 291.72 400.52 292.12 399.4 292.35C399.72 295.28 399.83 300.98 399.6 304.08C398.27 300.8 397.84 295.82 397.22 292.62C396.86 292.65 396.52 292.71 396.13 292.71C395.47 292.71 394.87 292.6 394.25 292.53C393.36 295.66 392.5 300.74 390.89 303.98C390.89 300.82 391.52 294.91 392.08 292.08C390.61 291.68 389.4 291.07 388.41 290.28C386.69 293.1 384.53 297.79 382.08 300.56C383.03 297.22 385.6 290.85 386.83 288.65C385.7 286.96 385.46 284.91 386.14 282.97C385.23 282.85 384.32 282.75 383.46 282.52C381.73 285.23 379.43 290.52 376.83 293.52C377.72 290.24 380.16 284.12 381.39 281.8C380.2 281.33 379.09 280.79 378.12 280.09C375.93 282.64 372.97 286.86 370.1 289.2C371.53 286.26 374.79 281.06 376.53 278.73C373.24 275.37 372.26 270.17 373.76 264.85C374.12 263.57 375.1 262.55 375.94 261.78C376.05 261.68 376.03 261.69 376.14 261.6C374.01 260.79 372.39 259.45 371.88 257.72C371.22 255.47 372.08 252.92 374.55 251.41C374.55 251.41 374.55 251.41 374.55 251.41L374.55 251.41ZM390.2 260.25C385.65 262.71 382.98 259.66 382.57 257.36C383.76 256.83 384.79 256.56 385.64 256.55C388.21 256.53 389.47 258.48 390.2 260.25ZM409.7 257.36C409.29 259.66 406.62 262.71 402.07 260.25C402.8 258.48 404.06 256.52 406.63 256.55C407.48 256.56 408.51 256.83 409.7 257.36ZM394.85 282.25C393.86 282.68 392.71 283.06 391.48 283.15C390.41 283.24 389.36 283.29 388.31 283.24C387.59 284.81 387.76 285.93 388.91 287.3C390.17 288.81 392.6 289.92 396.13 289.92C399.67 289.92 402 288.81 403.26 287.3C404.41 285.93 404.67 284.81 403.96 283.24C402.91 283.29 401.86 283.24 400.79 283.15C399.56 283.06 398.41 282.68 397.42 282.25C396.71 281.94 396.42 281.78 396.13 281.62C395.85 281.78 395.56 281.94 394.85 282.25ZM361.49 297.67L361.09 294.34L357.63 294.79C361.47 293.58 364.8 288.57 368.52 285.95C367.03 290.85 363.33 290.48 361.49 297.67ZM369.31 303.26L368.42 300.02L365.05 301.01C368.66 299.3 372.08 290.48 375.35 287.39C374.67 292.44 369.98 295.9 369.31 303.26ZM442.76 297.49L438.7 297.31L438.3 300.56C436.6 294.21 430 292.77 429 288.65C435.47 293.55 435.43 294.24 442.76 297.49ZM434.84 304.26L431.67 302.9L430.58 305.97C430.19 299.45 421.54 293.23 421.38 289.01C424.39 291.47 430.8 300.9 434.84 304.26ZM377.72 307.05L376.14 303.98L373.07 305.43C376.3 303.18 377.37 297.89 380 294.34C380.28 299.42 376.99 299.7 377.72 307.05ZM426.13 308.31L423.06 306.69L421.38 309.67C422.49 302.35 416.75 298.82 416.92 294.61C419.74 297.25 423.02 305.93 426.13 308.31ZM416.53 311.02L413.66 309.12L411.68 312.01C413.62 304.84 408.87 300.85 409.99 295.87C412.01 299.74 413.7 308.36 416.53 311.02ZM386.83 298.75C387.95 303.74 385.19 304.12 387.13 311.29L385.15 308.49L382.28 310.39C385.1 307.73 384.82 302.63 386.83 298.75L386.83 298.75ZM407.32 312.28L404.75 310.3L402.47 312.91C405 305.9 400.94 304.28 402.47 299.39C404.16 303.39 404.73 309.43 407.32 312.28ZM395.64 302.27C397.17 307.16 394.89 305.9 397.42 312.91L395.24 310.21L392.57 312.28C395.17 309.43 393.95 306.27 395.64 302.27L395.64 302.27Z" />
		</g>
	</g>
</svg>