<svg version="1.2" baseProfile="tiny-ps" xmlns="http://www.w3.org/2000/svg" viewBox="0 0 900 600" width="900" height="600"><title></title><style>tspan { white-space:pre }.shp0 { fill: #70193d } .shp1 { fill: #ffffff } </style><path class="shp0" d="M0 0L900 0L900 600L0 600L0 0Z" /><path class="shp1" d="M900 600L672 600L600 570.01L672 540.02L600 509.82L672 479.61L600 449.63L672 419.42L600 389.86L672 359.66L600 329.45L672 299.46L600 269.26L672 239.06L600 208.85L672 178.86L600 148.66L672 119.96L600 89.97L672 59.98L600 29.99L672 0L900 0L900 600Z" /><path class="shp0" d="M675.6 30.2L696 45.2L716.4 30.2L696 15.21L675.6 30.2ZM675.6 90.18L696 105.18L716.4 90.18L696 75.19L675.6 90.18ZM675.6 150.16L696 165.16L716.4 150.16L696 135.17L675.6 150.16ZM675.6 210.14L696 225.13L716.4 210.14L696 195.14L675.6 210.14ZM675.6 270.12L696 285.11L716.4 270.12L696 255.12L675.6 270.12ZM675.6 330.1L696 345.09L716.4 330.1L696 315.1L675.6 330.1ZM675.6 390.07L696 405.07L716.4 390.07L696 375.08L675.6 390.07ZM675.6 450.05L696 465.05L716.4 450.05L696 435.06L675.6 450.05ZM675.6 510.03L696 525.03L716.4 510.03L696 495.04L675.6 510.03ZM675.6 570.01L696 585.01L716.4 570.01L696 555.02L675.6 570.01Z" /><g ><path fill-rule="evenodd" class="shp1" d="M177.72 370.33C162.96 367.33 141.48 356.06 135.36 348.26C132.72 345.03 130.92 341.91 131.28 341.55C131.64 341.19 136.92 343.47 143.04 346.35C155.88 352.7 180.24 359.54 192.72 360.38C207.12 361.34 230.64 355.22 247.92 346.23L253.08 343.59L246.48 339.75C237.48 334.47 230.64 329.44 230.64 328C230.64 327.16 234.6 325.48 239.4 323.92L248.16 321.16L261.84 336.51L268.32 331.23C281.4 320.56 281.16 321.28 281.16 287.7C281.16 267.07 280.44 254.96 278.88 248.96C277.68 244.17 277.2 239.25 277.8 238.05C278.52 236.85 282.12 233.85 285.84 231.33L292.68 226.66L296.52 232.53C298.56 235.77 302.52 240.45 305.28 242.85C310.2 247.28 310.2 247.28 306.36 247.28C304.2 247.28 300.72 246.2 298.56 245.01C292.92 241.77 292.8 241.89 292.44 250.28C292.2 254.48 290.76 270.43 289.32 285.66C287.64 303.53 287.16 313.13 288.24 312.65C289.08 312.29 295.8 308.93 303.24 305.81C311.88 302.21 317.28 298.37 332.64 297.29C344.04 296.46 349.2 300.29 351.96 302.81C359.52 309.89 353.76 320.08 335.16 332.79C328.08 337.47 322.2 342.03 322.2 342.63C322.08 345.03 381 342.03 410.16 338.19C433.2 335.07 442.8 331.59 443.4 325.96C443.76 322.96 442.68 320.68 439.56 318.28L435.24 314.8L443.04 307.73C447.24 303.77 451.2 300.53 451.8 300.53C452.28 300.53 456.24 302.81 460.44 305.69C467.04 310.25 468.24 311.81 468.6 316.84C469.68 329.8 450.96 343.11 427.08 346.11C419.4 347.19 381.72 348.38 322.92 349.58C287.4 350.3 276.84 349.94 269.4 348.14L260.16 345.87L249.84 353.06C237.84 361.46 225.96 367.81 217.08 370.69C208.56 373.33 191.04 373.33 177.72 370.33ZM307.08 344.07C316.68 342.75 318.84 341.67 332.28 330.4C343.32 321.16 348.96 314.92 348.96 311.93C348.96 309.17 341.76 307.01 333.36 307.01C315.84 307.01 292.68 317.2 276.84 331.83L267.72 340.23L273.24 341.91C280.68 344.43 297.6 345.51 307.08 344.07Z" /><path class="shp1" d="M437.88 289.26L444.48 282.54L451.2 289.26L444.48 295.98L437.88 289.26Z" /><path class="shp1" d="M457.8 285.42L464.4 278.71L471 285.42L464.4 292.14L457.8 285.42Z" /></g></svg>