<svg version="1.2" baseProfile="tiny-ps" xmlns="http://www.w3.org/2000/svg" viewBox="0 0 900 600" width="900" height="600">
	<title>Chinese_soviet_flag-svg</title>
	<style>
		tspan { white-space:pre }
		.s0 { fill: #de2910 } 
		.s1 { fill: none;stroke: #ffde00;stroke-width: 8 } 
		.s2 { fill: #ffde00;stroke: #ffde00;stroke-linejoin:round;stroke-width: 2 } 
		.s3 { fill: #fdd301 } 
	</style>
	<path id="Layer" class="s0" d="m0 0h900v600h-900v-600z" />
	<path id="Layer" class="s1" d="m160.85 50.23l11.65 34.79l36.69 0.33l-29.49 21.83l11.02 35l-29.88-21.3l-29.88 21.3l11.02-35l-29.49-21.83l36.69-0.33l11.65-34.79z" />
	<path id="Layer" class="s2" d="m235.08 130.45c53.22 9.73 74.51 50.48 74.51 50.48c0 0 17.03 32.54 13.38 73.6c-2.22 25.02-15.27 44.57-25.14 56.06l24.07 24.07c-2.65 10.89-8.17 16.37-18.09 18.1l-25.26-25.26c-13.35 8.24-43.1 22.64-84.83 19.79c-23.85-1.63-42.36-11.25-55.88-21.98l-56.19 56.19l-0.17-0.17c-32.46 8.7-23.7-23.7-23.7-23.7l56.88-56.88c-1.74-2.47-3.04-4.52-3.9-5.95c-6.74-1.32-19.16-2.51-21.66-1.33c0 0 6.69-22.2 10.64-22.2c3.95 0 26.15 0.3 26.15 0.3l2.43 7.91c18.03 35.48 54.77 43.49 66.6 43.49c29.39 0.4 49.93-6.94 63.76-15.32l-80.65-80.65l-18.08 16.9l-27.67-27.68l45.16-45.16h26.31l16.5 16.5l-23.5 21.96l81.56 81.56c3.35-4 4.82-6.74 4.82-6.74c0 0 19.46-17.94 17.94-72.08c-1.52-54.13-65.99-81.81-65.99-81.81l0 0z" />
	<g id="Layer">
		<path id="Layer" fill-rule="evenodd" class="s3" d="m700 85.2c1.6 2.4 6.1 7.9 10 12.3c3.8 4.4 7 8.8 7 9.9c0 2.5-5.5 7.6-12.5 11.5c-6.3 3.6-6.9 5.8-2 7.4c3.8 1.2 6.5 3.5 7.6 6.6c1.3 3.2-1 5.7-7.9 8.7c-4.7 2.2-7.7 5.6-6.6 7.5c0.5 0.9 28.5-4.8 31.4-6.5c1.9-1 4.8-1.3 11.7-0.9c11.3 0.7 16.6 3.1 17.1 7.9c0.2 1.8-0.3 3.6-1.2 4.3c-1.6 1.4-16.3 4.8-35 8.2c-9.2 1.7-16.6 4-16.6 5.3c0 0.2 1 0.1 2.3-0.1c3.5-0.7 10.1 1.4 12.3 3.8c1.7 1.9 1.9 3.8 1.9 18.3c0.1 15.3 1.9 39.5 5 64.5c1.7 13.4 1 16.4-4 16.9c-2.6 0.2-4-0.8-10-6.9c-3.8-4-8.5-8.6-10.4-10.3c-4.7-4.3-12.1-14.5-12.1-16.6c0-2.8 2.9-3.2 8.7-1.4c8.8 2.8 8.6 3.6 7.2-28.2c-0.6-14.8-1.4-27.2-1.8-27.6c-1.1-1.2-11.4 1.1-16.5 3.7c-2.8 1.4-6.7 3.9-8.6 5.5l-3.5 3l6.2-2.5c7-2.8 8.9-3 14.4-1.3c8.4 2.5 8.8 6.8 1.1 15c-8.2 8.8-20.3 13.9-21.5 9c-0.3-1.2-0.6-0.9-1.2 1.2c-0.6 2.3-0.4 3.2 1.1 4.3c2 1.5 4.8 0.9 8.3-1.8c2.9-2.3 4.7-2.4 11.8-0.3c3.9 1.1 5.7 2.3 6.5 4c1.7 3.7-1 5.7-12.7 9.4c-9.4 3-13.6 3.4-17.6 1.6c-1.3-0.6-2.4 1.5-5.7 10.6c-2.3 6.2-4.4 12.5-4.8 14c-0.8 3.6-3.8 6.1-7.4 6.1c-4.2 0-5.5-1.5-8.7-10.1c-4-11.1-3.8-19.5 1.1-37.7c2.1-7.7 4.7-16.2 5.8-19c2.6-6.6 4.7-15.5 3.7-15.5c-0.4 0-11.6 3.7-25 8.1c-22.6 7.6-24.4 8.1-28 7c-2.1-0.6-4.7-2.3-5.8-3.8c-3.6-4.5-2.4-13 2.6-17.5c1.5-1.4 4.5-1.8 16.3-2.1c14.7-0.5 18-1.2 23-4.7c1.6-1.1 4.3-2 6.2-2c5.6-0.1 27.2-6.3 27.6-8.1c0.2-1.2-1.9-1.7-11-2.7c-11.9-1.3-16-3-16.6-6.9c-0.4-2.6 4.4-8.3 6.9-8.3c3.7 0 15.9-3.1 15.9-4.1c0-0.5-0.8-0.9-1.9-0.9c-3 0-24.5-5.1-25.7-6.1c-0.6-0.5-1.6-2.7-2.3-4.9c-2.2-7.5 0.7-9.7 18.4-13.5c6.4-1.4 12.4-2.9 13.4-3.4c1.1-0.6 2.3-3.6 3.4-8.3c2.5-10.3 6.5-17.9 10.5-20c5.9-2.9 12.8 0.3 18.2 8.4zm-25 118.8c-0.5 0-1 0.9-1 2.1c0 1.1 0.5 1.7 1 1.4c0.6-0.3 1-1.3 1-2.1c0-0.8-0.4-1.4-1-1.4z" />
		<path id="Layer" fill-rule="evenodd" class="s3" d="m674.5 346.8c9.9 7.9 12 12.6 9.5 21.1c-0.5 1.9-0.8 3.7-0.6 3.9c0.8 0.8 18.9-3.9 26.2-6.9c4.1-1.6 9-2.9 11-2.9c4.2 0 10.9 3.2 12.4 5.9c2.9 5.5-0.3 9.4-11.8 14.2c-5.5 2.2-10.7 5.6-18.2 11.6c-5.8 4.7-11.7 9.1-13.2 9.7c-3 1.1-3.9 4.6-1.3 4.6c0.9 0 3.2-0.7 5.3-1.6c6.8-2.9 17.7-6.3 20.2-6.3c1.4 0 5 1.2 8 2.7c4.6 2.3 5.9 3.5 8.3 8.1c2.2 4.5 2.7 6.8 2.7 12.6v7.2l10.8 0.6c11.2 0.5 20.8 3.1 24.5 6.7c1.8 1.6 1.8 2 0.3 4.8c-1.9 3.7-1.4 3.5-20.1 6.7c-8.2 1.4-15.9 3.2-17.1 4c-3.1 2-4.9 7.1-3.8 10.3c0.7 2 3.1 3.8 9.4 6.9c12.2 6.1 15.9 11.2 10.8 14.7c-1.6 1.1-4.8 1.6-10.8 1.7c-13.3 0.2-13 0-16.7 10.9c-1.8 5.2-3.3 10.9-3.3 12.5c0 1.7-1 5.1-2.2 7.5c-1.8 3.5-3.1 4.8-6.1 5.7c-6.7 2.2-9.2 0.9-21.4-11.1l-11.2-11.1l-6 6.1c-9.4 9.5-24.9 16.6-31.6 14.5c-16.1-5-21.8-8.7-28-18c-2.2-3.3-4.5-6.1-5.2-6.1c-0.6 0-3.3 1.8-5.9 4.1c-3.8 3.2-5.2 3.9-7.2 3.4c-4.6-1.1-8.4-4.7-10.9-10.2c-2.2-4.8-2.4-6.1-1.7-13.5c0.3-4.6 1.3-9.5 2.2-10.9c2.4-4.2 6.7-6.2 11.6-5.6c4.1 0.6 4.5 0.4 12.8-6.8c9-7.8 20.7-20.8 35.1-39.3c6.8-8.7 9.4-11.2 11.2-11.2c1.3 0 2.7 0.5 3 1c0.9 1.5-3 12.5-7.4 20.5c-2.1 3.8-5.9 11-8.5 15.8c-2.7 4.8-4.6 9-4.3 9.3c0.6 0.7 12.7-2.6 14.3-3.8c0.6-0.4 1.9-3 2.9-5.6c1-2.6 3.8-7.7 6.2-11.4c3.6-5.5 4.2-7.1 3.4-8.7c-1.6-2.9-1.3-7.7 0.4-9.5c0.9-0.8 3.2-1.8 5.3-2.1c3.7-0.6 4.4-0.9 13.4-6c4-2.4 4.7-3.2 5-6.5c0.4-4.2 0.6-4.2-6.3 0.7c-8.4 6-14.2 7.5-20.5 5.3c-2.3-0.8-3.8-2.6-6.1-7.3c-1.7-3.4-3.4-7.8-3.8-9.7c-0.4-1.9-1.4-5.6-2.2-8.2c-1.8-5.8-1.5-7.4 3.6-16.6c2.2-4 4.4-8.7 5-10.5c1.6-4.6 6.2-11.5 8.1-12c3.5-1 4.9-0.5 10.5 4.1zm23.8 69.6c-15.3 5.6-20.5 9.2-18.9 13.2c0.7 1.6 1 1.4 2.7-1.8c2.5-4.9 6.9-7.2 12.7-6.5c6 0.7 9.3 4 9.9 10.1c0.6 5.1 0.6 5.1 5.1 3.5c2.8-0.9 3.1-1.6 3.7-6.4c0.8-6.1-0.1-11.2-2.3-13.8c-2-2.2-2.1-2.2-12.9 1.7zm-23.9 22.6c-2.3-2.3-3.4-1.8-3.4 1.7c0 2.4 1.5 2.9 4 1.3c1.3-0.8 1.2-1.2-0.6-3zm23.4 21.1c-2.1 0.8-3.3 2.6-5.4 8c-1.5 3.8-2.5 7.2-2.1 7.5c0.3 0.3 3.9 0.3 8.1-0.1c7.2-0.7 7.5-0.8 8.5-3.8c1.8-4.9 1.3-7.4-2-10.1c-3.4-2.9-3.3-2.9-7.1-1.5zm-39.4 12.4c-2.6 3.5-1.7 4.5 3.7 4.5c2.8 0 5.8-0.4 6.8-1c1.5-0.8 5.1-7.5 5.1-9.5c0-1.7-13.9 3.6-15.6 6zm-19.7 2.6c-0.7 0-6.1 2-12.2 4.3c-10.9 4.3-11 4.4-11.3 7.8c-0.2 2.8 0.5 4.5 3.9 8.7c7.2 9.2 16.6 11.3 26.8 6.2c4.8-2.5 6-4 2.6-3.3c-7.4 1.4-12.6-9.9-9.6-20.6c0.7-2.3 0.6-3.2-0.2-3.1zm52.8 14.3c-6.8 0.9-8 1.4-8 3c0 2.4 6.4 4.8 11.5 4.4c2.6-0.2 4-1.1 5.7-3.7c1.3-1.9 2.3-3.8 2.3-4.2c0-1.1-0.9-1-11.5 0.5z" />
		<path id="Layer" class="s3" d="m628.8 376.4c5.2 3.9 10.7 7.8 12.4 8.7c1.6 0.8 3.3 2.1 3.8 2.8c0.7 1.3-1 9.6-2.5 12.1c-2.2 3.6-17.2 5.3-25.7 3c-8.2-2.3-13.6-10.6-12.6-19.4c0.6-5.4 5.4-13.3 8.8-14.5c3.8-1.4 5.7-0.5 15.8 7.3z" />
		<path id="Layer" class="s3" d="m603.7 409.7c2.6 2 6.9 4.4 9.5 5.4c10.2 3.7 15.8 9.3 15.8 15.7c0 4.2-2.8 5.9-12.6 7.6c-7.1 1.3-8.7 1.2-15.9-0.3c-12.3-2.7-15.5-5.2-15.5-12.2c0-4.1 6.1-18.4 8.2-19.2c3.1-1.3 6-0.5 10.5 3z" />
	</g>
</svg>