<svg version="1.2" baseProfile="tiny-ps" xmlns="http://www.w3.org/2000/svg" viewBox="0 0 900 600" width="900" height="600"><title></title><defs><clipPath clipPathUnits="userSpaceOnUse" id="cp1"><path d="M315.67 266.67L315.67 333.33L415.67 333.33L415.67 266.67L315.67 266.67Z" /></clipPath><clipPath clipPathUnits="userSpaceOnUse" id="cp2"><path d="M315.67 333.33L315.67 300L365.67 300L315.67 333.33ZM415.67 333.33L365.67 333.33L365.67 300L415.67 333.33ZM415.67 266.67L415.67 300L365.67 300L415.67 266.67ZM315.67 266.67L365.67 266.67L365.67 300L315.67 266.67Z" /></clipPath></defs><style>tspan { white-space:pre }.shp0 { fill: #003884 } .shp1 { fill: #ffffff } .shp2 { fill: #ff8400 } .shp3 { fill: #000000;stroke: #000000;stroke-width: 2 } .shp4 { fill: #000000;stroke: #ffffff;stroke-width: 13.333 } .shp5 { fill: #000000;stroke: #ffffff;stroke-width: 22.222 } .shp6 { fill: #000000;stroke: #ce1126;stroke-width: 13.333 } .shp7 { fill: #000000;stroke: #ce1126;stroke-width: 9.524 } .shp8 { fill: #000000;stroke: #003884;stroke-width: 9.524 } .shp9 { fill: #000000;stroke: #ff8400;stroke-width: 9.524 } .shp10 { fill: #ce1126 } .shp11 { fill: #007a4d } </style><path class="shp0" d="M0 0L900 0L900 600L0 600L0 0Z" /><path class="shp1" d="M0 0L900 0L900 400L0 400L0 0Z" /><path class="shp2" d="M0 0L900 0L900 200L0 200L0 0Z" /><path class="shp3" d="M315.67 266.67L315.67 333.33L415.67 333.33L415.67 266.67L315.67 266.67Z" /><path class="shp3" d="M416.67 250L483.33 250L483.33 350L416.67 350L416.67 250Z" /><path class="shp3" d="M484.33 266.67L584.33 266.67L584.33 333.33L484.33 333.33L484.33 266.67Z" /><path class="shp0" d="M315.67 266.67L315.67 333.33L415.67 333.33L415.67 266.67L315.67 266.67Z" /><g clip-path="url(#cp1)"><path fill-rule="evenodd" class="shp4" d="M415.67 266.67L315.67 333.33M315.67 266.67L415.67 333.33" /></g><g clip-path="url(#cp2)"></g><path class="shp5" d="M365.67 266.67L365.67 333.33M315.67 300L415.67 300" /><path class="shp6" d="M365.67 266.67L365.67 333.33M315.67 300L415.67 300" /><path class="shp1" d="M416.67 250L483.33 250L483.33 350L416.67 350L416.67 250Z" /><path class="shp7" d="M421.43 250L421.43 292.86" /><path class="shp8" d="M440.48 250L440.48 292.86" /><path class="shp9" d="M430.95 292.86L430.95 350M450 250L450 350M469.05 250L469.05 350" /><path class="shp0" d="M484.33 266.67L584.33 266.67L584.33 333.33L484.33 333.33L484.33 266.67Z" /><path class="shp1" d="M484.33 266.67L584.33 266.67L584.33 311.11L484.33 311.11L484.33 266.67Z" /><path class="shp10" d="M484.33 266.67L584.33 266.67L584.33 288.89L484.33 288.89L484.33 266.67Z" /><path class="shp11" d="M484.33 266.67L511 266.67L511 333.33L484.33 333.33L484.33 266.67Z" /></svg>