<svg version="1.2" xmlns="http://www.w3.org/2000/svg" viewBox="0 0 900 600" width="900" height="600">
	<title></title>
	<style>
		.s0 { fill: #00247d } 
		.s1 { fill: none;stroke: #ffffff;stroke-width: 52 } 
		.s2 { fill: none;stroke: #ffffff;stroke-width: 86.7 } 
		.s3 { fill: none;stroke: #cf142b;stroke-width: 52 } 
		.s4 { fill: #fcdd09 } 
		.s5 { fill: #da121a } 
		.s6 { fill: none;stroke: #000000;stroke-linecap: round;stroke-linejoin: round;stroke-width: 3.9 } 
		.s7 { fill: #ffffff;stroke: #ffffff;stroke-linecap: round;stroke-linejoin: round;stroke-width: 1.3 } 
		.s8 { fill: #0f47af;stroke: #0f47af;stroke-linecap: round;stroke-linejoin: round;stroke-width: .7 } 
		.s9 { fill: none;stroke: #fcdd09;stroke-linecap: round;stroke-linejoin: round;stroke-width: 2 } 
		.s10 { fill: #da121a;stroke: #da121a;stroke-linecap: round;stroke-linejoin: round;stroke-width: .7 } 
	</style>
	<g id="Layer">
		<path id="Layer" class="s0" d="m0 0h450v300h-450z"/>
		<g id="Layer">
			<path id="Layer" class="s1" d="m0 0l450 300m0-300l-450 300"/>
			<path id="Layer" class="s2" d="m225 0v300m-225-150h450"/>
			<path id="Layer" class="s3" d="m225 0v300m-225-150h450"/>
		</g>
		<path id="Layer" class="s0" d="m0 300h900v300h-900zm450-300h450v600h-450z"/>
	</g>
	<g id="Layer">
		<g id="Layer">
			<path id="Layer" fill-rule="evenodd" class="s4" d="m675 447.4c-6.7-9.7-19.5-19.5-29.3-19.5-9.7 0-37.5 0.5-55.2-6.5-33.2-13.1-35-38.7-35.8-61.7l-6.4-204.8c42.5 9.8 100.7 9.8 126.7 9.8"/>
			<path id="Layer" fill-rule="evenodd" class="s5" d="m675 164.7c26 0 84.2 0 126.8-9.8l-6.5 204.8c-0.8 23-2.6 48.6-35.8 61.7-17.7 7-45.5 6.5-55.2 6.5-9.8 0-22.6 9.8-29.3 19.5"/>
		</g>
		<g id="Layer">
			<path id="Layer" class="s6" d="m801.8 153.8l-6.5 204.7c-0.8 23-2.6 48.6-35.8 61.8-17.7 7-45.5 6.5-55.2 6.5-12.4 0-22.6 9.7-29.3 19.5-6.7-9.8-16.9-19.5-29.2-19.5-9.8 0-37.6 0.5-55.3-6.5-33.2-13.2-35-38.8-35.7-61.8l-6.5-204.8c42.5 9.8 100.7 9.8 126.7 9.8 26 0 84.2 0 126.8-9.7z"/>
			<g id="Layer">
				<path id="Layer" fill-rule="evenodd" class="s7" d="m733.5 222.6l11.4-43.8 3.2 50.3 8.6-45.8 25.6-9.4v29.2l-22.8 39 26-3.2-26 26 26 13-26 13 26 39-32.5-13 32.5 68.2-45.5-45.5 13 52-19.5 19.5-19.5-19.5 13-52-45.5 45.5 32.5-68.2-32.5 13 26-39-26-13 26-13-26-26 26 3.2-22.7-39v-29.2l25.5 9.4 8.6 45.8 3.2-50.3z"/>
				<path id="Layer" fill-rule="evenodd" class="s8" d="m631.2 299.7c-9.6-5-12.9-1.9-14.5 2.5-1.2 3.4-1.2 9.8-1.2 16.2 0 4.2-2.5 9.8-10.6 10.4-6.2 0.4-10.1 0.8-18.9 0.2-6.5-0.5-18.3-5.7-18.4 3.9-0.1 5.3 6.9 9.4 10.3 10.7 7 2.7 15.4 3.4 24.2 3.3 5.8-0.1 15.2-0.8 17.5-2.4-0.6-3.1-3.3-1.4-5.2-1.6 1.3-3.7 0.4-7.2 4.1-9.1-0.5-5 4.1-6.2 7.9-5-0.1-2.7-5.9-4.8-3-9.7 1.4-2.3 3.5-0.1 5.1 2 1.4 1.7 3.2-0.9 7-0.5 4.3 0.4 4.2 2.2 7.4 2.7 3.9 0.6 4.6 1.1 7 1.7 2.2 0.5 2.5 1.8-0.2 2.9 1.8 3-0.4 3.9-2.6 4-4.9 0.4-8.3 0.1-10.1 1.4-3.3 2.2-2 6.6 1.6 8.2 4.4 1.9 6.2-0.6 8.5-0.5 3.9 0.2-0.9 4.2-5.5 4.8-1.9 0.2 1.4 9.6 3.4 8.4 4.4-2.7 9.2-6.9 14.1-14.1 3.2-4.7-3-12.2 0.9-10.9 3.6-2.4 1.7 1.9 2.5 3.4 0.7 1.2 1.7-4.2 3.3-2.1 3.4 0.7-0.2 2.6-0.4 3.8-0.2 1.3 4.4-3.5 3.7 1 1.5 2.6-1.7 1-3.3 1.6-1.2 0.4 3.8 1.4 0.4 3 0.6 3.7-1 0.9-2.2 0.3-0.8-0.3-1.9 5.9-3.4 9.1-2.9 5.9-5.2 8.7-9 11.9-2.7 2.2-7.3 5.2-10.4 5-0.2 2 2.5 3 4.5 6 2.2 3.4 7.6 9.1 13.3 11 1.5 0.5 4.9-3.1 4.7 0.2 2.2 2.6-0.7 1.4-1.6 2.3-0.7 0.7 5.2 1.6 1.4 3.5-0.1 3.3-1.6 0-2.4-0.2-0.7-0.3 1.9 3.9-1 3.2-2.9 2-1.5-1.5-2.4-3-1-1.6-3 2.6-4.5-0.6-3.5-0.7 1-1.4-0.6-2.3-8.2-3.7-12.9-8.8-17.6-10.2-4.7-1.4-5.5-4.8-6.3-7.8-0.8-3.1-2.7-4.6-2.8-3.4-0.6 3.9-1.1 7.4-5.2 3.8-3.4-2.7-5.4-3.9-10.2-8.3-1.7-1.5-3.3-2.6-4.7-1.7-1.5 0.9 8.6 6.7 5.6 12.1-2 3.5-3.5 6.4-1.1 9.3 1.6 2 3.7 3.8 5.7 3.2 1.8-0.6 4.4-2.7 4.4 0.3 2.1 1.4 0 1.8-1.6 2-1.6 0.1 5.3 2.3 1.7 3.7-1.1 3-1.7 0-3-1.7-1-1.2 0.6 5-2.4 3.4-2.7 1.2-0.3-2.8-1.6-4.1-1.2-1.3-1.9 4.4-3.8 1.5-3.8-0.2 0.9-2.2-2.5-3.6-2.8-1.8-6.6-1.4-7.3-5.1-0.4-2.6 1.8-0.6 2.5-7.1 0.3-2.5-6.7-3.1-5.8-8.4-4.5 4.1-9 8.4-14.8 10.9-3.7 1.6-6.6 3.8-6.2 8.9 0.1 1.7 5.9-1.1 3.3 1.8 1.4 2.2-0.4 2-2.9 1.8-1.5-0.1 4.2 2.9 0.6 3.5-2.2 2.5-1.5-1-3.2-1.6-0.9-0.3 1.4 4.2-1.7 3.4-3.6 1.3-0.6-3.8-2.6-3.9-1.4-0.1-4.6 1.7-3.3-1-1.9-3.3 4.1-1.3 4-2.6-0.3-4.7 0.4-6.8 0.6-9.9 0.5-6.3 2.8-5.5 7.5-8.1 3.7-2 7.6-6.6 8.3-13.7 0.2-2.6-0.8-3.4-5.9-3.6-6.3-0.2-5.1 2.9-9.5 3.9 1.6-3.1-0.3-4.9 6.6-5.7-4.7-1.5-6.8-3.8-8.6-5.4-3.7-3.2-6.3-6.2-6.1-10.9 0.3-3.9 3.2-8.6 7.4-9.1 3.3-0.4 1-7.4 7.1-8.9-2.5 4.4 0.8 4.4-2.7 9.1 2.8 0.2 9.1 1.4 10.4 0.2 4.7-4.8 0.3-8 7.7-8.6-3 2.5-0.9 6.1-5 9.3 7 0.7 21.8 2.8 22.5-5 1-10.7 0.7-22.2-7.7-22.4-3.9-0.1-7.9 3.7-12.8 2.5-5.4-1.2-8.9-3.4-9.2-9.8 3.7 3.3 8.4 5.2 11.3 4.1 4.2-1.3 8.5-3.4 12.9-2.5 6.2 1.2 6.3 5.4 8.7 9.7 2.7-5.2 3.5-9.1 9.9-9.2 7.5-0.1 12.3 7.3 23.2 3.7-2.2 5.6-7.2 8.6-15.2 4.6z"/>
			</g>
			<path id="Layer" class="s9" d="m595.2 367.3c6-5.8 9.4-10.8 14.2-6m37.5-6.6c1 3.8 1.3 6.7 0.4 7.7m-6.5-7.5c2.4 4.2 0.5 6.7-0.2 9.7m-4.9-9.7c-0.5 3.2-0.4 5.7-2.5 7m-3.1-8.3c-0.8 2.7-1.4 5.6-4.9 5.1m-0.4-7.4c-2 2.4-3.6 2.3-5.1 0.9-2.1-1.9 3.6-7.2-1.9-8.3m16.1-20.8c0.8 3.3 3.1 3.9 6.3 2.4"/>
			<g id="Layer">
				<path id="Layer" class="s10" d="m563.5 390.7c-0.9-2.3 0.5-3.8 2.1-3.8 1.6 0 1.7 2.2 0.4 1.9-1.3-0.3-2 0.6-2.5 1.9z"/>
				<path id="Layer" class="s10" d="m570.9 393c-0.9-1 1.1-2 1.9-0.5 0.7 1.3 0.1 3.3-2.4 3.5 0.9-1 1.4-2 0.5-3z"/>
				<path id="Layer" class="s10" d="m575.6 391.4c-1.2-0.7 0.5-2.2 1.6-1 1.2 1 1.1 3.1-1.2 4.1 0.6-1.3 0.8-2.4-0.4-3.1z"/>
				<path id="Layer" class="s10" d="m579.1 386.9c-1.3 0.3-1.2-1.9 0.4-1.9 1.6 0 3 1.5 2.1 3.8-0.5-1.3-1.2-2.2-2.5-1.9z"/>
				<path id="Layer" class="s10" d="m670 339.7c-0.9 2.3-3 2.3-4.1 1.2-1.2-1.1 0.3-2.8 1-1.6 0.7 1.1 1.9 1 3.1 0.4z"/>
				<path id="Layer" class="s10" d="m669.1 336c-1.1 0.6-1.6-1.6 0-2 1.5-0.4 3.2 0.7 2.9 3.1-0.8-1.1-1.7-1.8-2.9-1.1z"/>
				<path id="Layer" class="s10" d="m666.9 330.9c-0.3 1.3-2.2 0.1-1.4-1.3 0.7-1.4 2.7-1.9 4.3 0-1.4-0.2-2.5 0-2.9 1.3z"/>
				<path id="Layer" class="s10" d="m661.2 328.8c0.8 1.1-1.2 1.9-1.9 0.4-0.7-1.4 0-3.3 2.5-3.4-1 1-1.5 2-0.6 3z"/>
				<path id="Layer" class="s10" d="m620.8 384.4c-1 0.9-2-1.1-0.5-1.9 1.3-0.7 3.3-0.1 3.5 2.4-1-0.9-2-1.4-3-0.5z"/>
				<path id="Layer" class="s10" d="m619.8 389.9c-1-0.9 0.8-2.2 1.8-0.9 1 1.2 0.7 3.3-1.7 4 0.7-1.2 1-2.3-0.1-3.1z"/>
				<path id="Layer" class="s10" d="m614.4 391c-0.6-1.2 1.6-1.6 1.9 0 0.3 1.5-0.8 3.2-3.3 2.7 1.2-0.7 2-1.5 1.4-2.7z"/>
				<path id="Layer" class="s10" d="m609.3 392.2c-2.2-1.3-1.9-3.3-0.7-4.2 1.4-1 2.8 0.7 1.5 1.2-1.2 0.6-1.2 1.7-0.8 3z"/>
				<path id="Layer" class="s10" d="m652.3 392.6c-1.9-1.7-1.3-3.6 0.1-4.3 1.5-0.8 2.6 1.2 1.3 1.5-1.4 0.3-1.6 1.4-1.4 2.8z"/>
				<path id="Layer" class="s10" d="m659.3 392.5c-1-0.9 1-2 1.8-0.5 0.8 1.3 0.2 3.3-2.3 3.6 0.9-1 1.4-2.1 0.5-3.1z"/>
				<path id="Layer" class="s10" d="m663.4 390c-1.3-0.1-0.6-2.2 1-1.8 1.5 0.5 2.4 2.3 0.8 4.3 0-1.4-0.4-2.5-1.8-2.5z"/>
				<path id="Layer" class="s10" d="m664 384.4c-1 0.9-1.9-1.2-0.4-1.9 1.4-0.7 3.3 0.1 3.5 2.5-1-0.9-2-1.4-3.1-0.6z"/>
				<path id="Layer" class="s10" d="m638 335.8c3.8-0.7 10.9 1.7 13.3-1.5 2.6-3.5 5.5-1.7 3.4 0.6-2.3 2.4-3.2 2.8-5.5 3.2-3.5 0.5-6.6 0.6-9.6 0.5-4.5 0-2.7-2.6-1.6-2.8z"/>
			</g>
			<path id="Layer" fill-rule="evenodd" class="s8" d="m631.2 181c-9.6-4.9-12.9-1.8-14.5 2.5-1.2 3.4-1.2 9.9-1.2 16.3 0 4.2-2.5 9.8-10.6 10.3-6.2 0.5-10.1 0.8-18.9 0.2-6.5-0.4-18.3-5.7-18.4 3.9-0.1 5.3 6.9 9.5 10.3 10.8 7 2.6 15.4 3.3 24.2 3.2 5.8-0.1 15.2-0.8 17.5-2.3-0.6-3.2-3.3-1.5-5.2-1.6 1.3-3.7 0.4-7.3 4.1-9.2-0.5-5 4.1-6.2 7.9-5-0.1-2.6-5.9-4.8-3-9.6 1.4-2.4 3.5-0.2 5.1 1.9 1.4 1.8 3.2-0.8 7-0.5 4.3 0.4 4.2 2.2 7.4 2.7 3.9 0.6 4.6 1.1 7 1.7 2.2 0.5 2.5 1.9-0.2 2.9 1.8 3-0.4 3.9-2.6 4.1-4.9 0.3-8.3 0-10.1 1.3-3.3 2.3-2 6.7 1.6 8.2 4.4 2 6.2-0.5 8.5-0.4 3.9 0.1-0.9 4.2-5.5 4.7-1.9 0.3 1.4 9.7 3.4 8.4 4.4-2.7 9.2-6.8 14.1-14.1 3.2-4.6-3-12.1 0.9-10.9 3.6-2.3 1.7 1.9 2.5 3.4 0.7 1.2 1.7-4.2 3.3-2.1 3.4 0.7-0.2 2.6-0.4 3.9-0.2 1.3 4.4-3.5 3.7 1 1.5 2.6-1.7 1-3.3 1.5-1.2 0.5 3.8 1.5 0.4 3 0.6 3.7-1 0.9-2.2 0.4-0.8-0.4-1.9 5.9-3.4 9-2.9 5.9-5.2 8.8-9 11.9-2.7 2.2-7.3 5.2-10.4 5-0.2 2 2.5 3.1 4.5 6.1 2.2 3.3 7.6 9 13.3 10.9 1.5 0.5 4.9-3.1 4.7 0.3 2.2 2.6-0.7 1.3-1.6 2.2-0.7 0.8 5.2 1.6 1.4 3.6-0.1 3.2-1.6 0-2.4-0.3-0.7-0.2 1.9 3.9-1 3.3-2.9 2-1.5-1.5-2.4-3-1-1.7-3 2.5-4.5-0.6-3.5-0.8 1-1.5-0.6-2.4-8.2-3.6-12.9-8.8-17.6-10.2-4.7-1.3-5.5-4.8-6.3-7.7-0.8-3.2-2.7-4.7-2.8-3.4-0.6 3.8-1.1 7.3-5.2 3.7-3.4-2.7-5.4-3.8-10.2-8.2-1.7-1.6-3.3-2.6-4.7-1.8-1.5 0.9 8.6 6.7 5.6 12.2-2 3.5-3.5 6.3-1.1 9.3 1.6 2 3.7 3.8 5.7 3.1 1.8-0.6 4.4-2.6 4.4 0.4 2.1 1.4 0 1.7-1.6 1.9-1.6 0.2 5.3 2.3 1.7 3.7-1.1 3-1.7 0.1-3-1.6-1-1.3 0.6 4.9-2.4 3.3-2.7 1.2-0.3-2.8-1.6-4-1.2-1.3-1.9 4.4-3.8 1.4-3.8-0.2 0.9-2.1-2.5-3.5-2.8-1.9-6.6-1.4-7.3-5.2-0.4-2.6 1.8-0.6 2.5-7 0.3-2.6-6.7-3.1-5.8-8.5-4.5 4.1-9 8.4-14.8 11-3.7 1.6-6.6 3.7-6.2 8.8 0.1 1.8 5.9-1.1 3.3 1.9 1.4 2.2-0.4 1.9-2.9 1.8-1.5-0.1 4.2 2.8 0.6 3.5-2.2 2.5-1.5-1-3.2-1.7-0.9-0.3 1.4 4.2-1.7 3.4-3.6 1.4-0.6-3.7-2.6-3.9-1.4-0.1-4.6 1.8-3.3-1-1.9-3.3 4.1-1.2 4-2.6-0.3-4.6 0.4-6.7 0.6-9.9 0.5-6.3 2.8-5.4 7.5-8 3.7-2 7.6-6.6 8.3-13.8 0.2-2.6-0.8-3.4-5.9-3.6-6.3-0.2-5.1 3-9.5 4 1.6-3.2-0.3-4.9 6.6-5.8-4.7-1.5-6.8-3.7-8.6-5.3-3.7-3.3-6.3-6.2-6.1-10.9 0.3-4 3.2-8.7 7.4-9.2 3.3-0.3 1-7.4 7.1-8.9-2.5 4.5 0.8 4.5-2.7 9.1 2.8 0.3 9.1 1.5 10.4 0.2 4.7-4.7 0.3-7.9 7.7-8.6-3 2.5-0.9 6.1-5 9.3 7 0.7 21.8 2.9 22.5-5 1-10.7 0.7-22.2-7.7-22.3-3.9-0.1-7.9 3.6-12.8 2.5-5.4-1.3-8.9-3.5-9.2-9.9 3.7 3.4 8.4 5.2 11.3 4.1 4.2-1.3 8.5-3.3 12.9-2.5 6.2 1.3 6.3 5.5 8.7 9.7 2.7-5.2 3.5-9.1 9.9-9.1 7.5-0.1 12.3 7.3 23.2 3.7-2.2 5.6-7.2 8.5-15.2 4.5z"/>
			<path id="Layer" class="s9" d="m595.7 248.4c6-5.9 8.1-10.3 13.6-5.9m37.6-6.5c0.9 3.9 1.3 6.8 0.3 7.7m-6.4-7.5c2.4 4.3 0.5 6.8-0.2 9.7m-5-9.7c-0.4 3.3-0.3 5.8-2.4 7m-3.1-8.3c-0.8 2.7-1.4 5.7-5 5.1m-0.3-7.3c-2 2.3-3.6 2.2-5.1 0.8-2.1-1.9 3.9-7.6-1.8-8.2m16-20.8c0.8 3.3 3.1 3.8 6.3 2.4"/>
			<g id="Layer">
				<path id="Layer" class="s10" d="m563.5 272c-0.9-2.3 0.5-3.8 2.1-3.8 1.6 0 1.7 2.3 0.4 1.9-1.3-0.3-2 0.6-2.5 1.9z"/>
				<path id="Layer" class="s10" d="m570.9 274.3c-0.9-1 1.1-2 1.9-0.5 0.7 1.4 0.1 3.3-2.4 3.6 0.9-1 1.4-2.1 0.5-3.1z"/>
				<path id="Layer" class="s10" d="m575.6 272.8c-1.2-0.7 0.5-2.2 1.6-1.1 1.2 1.1 1.1 3.1-1.2 4.1 0.6-1.2 0.8-2.3-0.4-3z"/>
				<path id="Layer" class="s10" d="m579.1 268.3c-1.3 0.3-1.2-1.9 0.4-1.9 1.6 0 3 1.4 2.1 3.7-0.5-1.3-1.2-2.2-2.5-1.8z"/>
				<path id="Layer" class="s10" d="m670 221c-0.9 2.3-3 2.4-4.1 1.3-1.2-1.2 0.3-2.8 1-1.7 0.7 1.2 1.9 1 3.1 0.4z"/>
				<path id="Layer" class="s10" d="m669.1 217.3c-1.1 0.6-1.6-1.5 0-2 1.5-0.4 3.2 0.7 2.9 3.2-0.8-1.2-1.7-1.9-2.9-1.2z"/>
				<path id="Layer" class="s10" d="m666.9 212.2c-0.3 1.3-2.2 0.2-1.4-1.3 0.7-1.4 2.7-1.9 4.3 0.1-1.4-0.3-2.5-0.1-2.9 1.2z"/>
				<path id="Layer" class="s10" d="m661.2 210.2c0.8 1-1.2 1.9-1.9 0.4-0.7-1.4 0-3.4 2.5-3.5-1 1-1.5 2-0.6 3.1z"/>
				<path id="Layer" class="s10" d="m620.8 265.8c-1 0.9-2-1.1-0.5-1.9 1.3-0.8 3.3-0.1 3.5 2.4-1-1-2-1.5-3-0.5z"/>
				<path id="Layer" class="s10" d="m619.8 271.2c-1-0.8 0.8-2.1 1.8-0.8 1 1.2 0.7 3.2-1.7 3.9 0.7-1.2 1-2.3-0.1-3.1z"/>
				<path id="Layer" class="s10" d="m614.4 272.3c-0.6-1.2 1.6-1.6 1.9 0 0.3 1.6-0.8 3.2-3.3 2.8 1.2-0.7 2-1.6 1.4-2.8z"/>
				<path id="Layer" class="s10" d="m609.3 273.5c-2.2-1.2-1.9-3.3-0.7-4.2 1.4-1 2.8 0.7 1.5 1.3-1.2 0.5-1.2 1.6-0.8 2.9z"/>
				<path id="Layer" class="s10" d="m652.3 273.9c-1.9-1.6-1.3-3.6 0.1-4.3 1.5-0.7 2.6 1.2 1.3 1.5-1.4 0.3-1.6 1.4-1.4 2.8z"/>
				<path id="Layer" class="s10" d="m659.3 273.9c-1-1 1-2 1.8-0.6 0.8 1.4 0.2 3.3-2.3 3.6 0.9-1 1.4-2 0.5-3z"/>
				<path id="Layer" class="s10" d="m663.4 271.3c-1.3-0.1-0.6-2.2 1-1.7 1.5 0.4 2.4 2.3 0.8 4.2 0-1.4-0.4-2.4-1.8-2.5z"/>
				<path id="Layer" class="s10" d="m664 265.8c-1 0.8-1.9-1.2-0.4-1.9 1.4-0.7 3.3 0 3.5 2.5-1-1-2-1.5-3.1-0.6z"/>
				<path id="Layer" class="s10" d="m638 217.1c3.8-0.7 11.2 2 13.3-1.4 2.2-3.7 5.5-1.8 3.4 0.5-2.3 2.4-3.2 2.9-5.5 3.2-3.5 0.5-6.6 0.6-9.6 0.6-4.5 0-2.7-2.7-1.6-2.9z"/>
			</g>
		</g>
	</g>
</svg>