<svg version="1.2" baseProfile="tiny-ps" xmlns="http://www.w3.org/2000/svg" viewBox="0 0 900 600" width="900" height="600"><title></title><defs><clipPath clipPathUnits="userSpaceOnUse" id="cp1"><path d="M0 0L450 0L450 300L0 300L0 0Z" /></clipPath></defs><style>tspan { white-space:pre }.shp0 { fill: #00247d } .shp1 { fill: #8fc5ff } .shp2 { fill: #366cc9 } .shp3 { fill: #5d3100 } .shp4 { fill: #cf6200 } .shp5 { fill: #00b800 } .shp6 { fill: #ffff00;stroke: #000000;stroke-width: 0.658 } .shp7 { fill: #ffffff;stroke: #000000;stroke-width: 0.658 } .shp8 { fill: #000000;stroke: #000000;stroke-width: 0.658 } .shp9 { fill: none;stroke: #000000;stroke-width: 0.658 } .shp10 { fill: #000000 } .shp11 { fill: #ef072d;stroke: #000000;stroke-width: 0.658 } .shp12 { fill: #00d860 } .shp13 { fill: #fa7d80 } .shp14 { fill: #fb1412 } .shp15 { fill: #b20c06 } .shp16 { fill: #fecd00;stroke: #000000;stroke-width: 0.971 } .shp17 { fill: #000000;stroke: #ffffff;stroke-width: 51.992 } .shp18 { fill: none;stroke: #ffffff;stroke-width: 86.653 } .shp19 { fill: none;stroke: #cf142b;stroke-width: 51.992 } </style><path class="shp0" d="M0 0L900 0L900 600L0 600L0 0Z" /><g ><g ><path class="shp1" d="M787.84 203.47C797.98 361.09 800.52 391.88 677.63 428.24C567.88 383.58 544.81 435.14 554.95 207.62L671.4 188.93L787.84 203.47Z" /><path class="shp2" d="M678.32 433.09C760.6 419.07 806.46 367.27 790.45 345.88C787.77 345.99 767.62 347.21 765.2 347.04C762.5 346.85 659.97 336.28 647.83 331.71C637.26 327.73 596.96 335.09 578.15 341.99C523.03 371.16 594.26 411.14 678.32 433.09Z" /><path class="shp3" d="M569.09 381.2C570.77 380.65 606.5 378.7 607.76 378.94C609.25 379.21 609.52 379.35 610.06 377.69C610.59 376.03 611.81 376.44 612.75 377.27C613.7 378.11 616.12 377.69 617.07 376.3C618.01 374.92 618.28 375.06 619.23 376.03C620.17 377 620.58 376.72 621.52 376.44C622.47 376.17 624.09 375.06 624.9 373.54C625.71 372.01 626.92 371.46 627.59 372.29C628.27 373.12 628.94 373.54 629.89 373.4C630.83 373.26 631.1 374.23 630.97 375.47C630.83 376.72 631.37 377 633.66 375.06C635.69 377.14 636.36 376.3 636.36 374.09C636.36 371.88 635.82 363.71 635.01 362.6C634.2 361.49 633.39 358.3 633.26 355.81C633.01 351.1 632.99 350.82 627.46 347.92C627.46 346.25 627.05 345.56 623.14 345.84C623.28 345.28 622.6 343.62 621.79 342.93C620.98 342.23 620.85 341.96 621.25 340.02C622.87 340.16 624.63 339.88 625.57 338.5C626.51 337.11 629.62 337.39 631.5 338.22C633.39 339.05 635.82 339.19 639.46 338.64C640.81 337.53 643.11 336.28 645.54 334.9C647.96 333.51 648.64 332.96 648.77 331.02C649.12 326.04 647.42 320.35 646.07 317.73C644.73 315.09 644.32 311.77 642.43 307.61C640.38 303.09 640.41 301.93 638.11 299.16C637.49 298.4 636.76 297.78 636.63 296.26C636.49 294.73 635.95 292.66 634.34 291.13C630.26 287.29 628.67 274.93 627.05 265.79C626.12 260.55 626.78 248.2 624.63 246.26C620.98 243.21 619.23 243.77 616.8 242.8C615.04 240.3 614.24 235.32 612.62 230.89C610.06 231.3 608.3 234.07 606.55 235.04C604.79 236.01 604.52 236.01 604.52 238.51C604.52 240.99 603.17 244.46 600.75 248.34C598.32 252.21 594.27 251.11 590.9 256.92C583.48 247.65 583.34 245.01 582.8 242.38C582.26 239.75 581.05 239.2 576.87 235.46C576.87 234.35 576.33 229.92 576.73 227.43C573.63 224.79 571.33 225.21 569.85 227.15C568.37 229.09 567.29 231.99 565 233.1C563.62 234.9 559.47 239.43 556.08 244.82C559.17 293.02 537.24 342.94 569.09 381.2L569.09 381.2Z" /><g ><path class="shp4" d="M561.62 245.57C562.97 247.78 565.4 251.59 565.67 253.67C566.62 251.66 567.36 250.76 567.56 249.52C567.76 248.27 569.18 245.84 568.64 244.53C568.1 243.21 567.7 242.17 569.18 243.14C570.66 244.11 570.37 245.79 570.05 248.27C569.18 255.05 566.41 256.44 566.01 261.01C569.99 270.64 567.02 274.1 571.33 283.52C572.01 283.93 573.81 283.19 574.35 283.33C576.64 281.67 578.35 282.27 581.59 282.96C584.83 283.66 586.58 286.01 586.58 288.08C586.58 290.16 586.58 290.72 587.26 291.96C587.93 293.21 589.28 295.15 589.01 296.54C588.74 297.92 589.28 298.75 589.69 299.44C590.09 300.13 589.55 301.66 589.15 302.63C588.74 303.6 588.88 304.84 590.49 306.92C592.11 309 595.89 317.73 595.89 322.85C595.89 327.97 596.16 330.33 598.18 331.29C600.21 332.26 600.88 333.09 600.61 335.31C600.34 337.53 601.56 349.02 601.83 350.82C602.1 352.63 602.77 352.21 603.58 353.18C604.39 354.15 604.93 355.25 607.63 355.25C610.33 355.25 612.93 354.89 614.69 355.16C617.12 358.63 618.6 363.33 619.14 366.24C619.68 369.15 619.63 373.12 620.58 373.12C621.52 373.12 622.47 373.26 622.2 369.66C621.93 366.06 621.66 365.5 620.44 363.71C619.23 361.9 618.55 361.07 619.23 359.96C619.9 358.86 620.04 357.05 619.77 355.67C619.5 354.28 619.09 352.21 621.39 354.98C623.68 357.75 624.36 358.44 625.03 359.41C625.71 360.38 625.97 362.18 625.84 363.84C625.71 365.5 625.97 366.19 626.92 365.36C627.86 364.54 629.08 365.92 628.54 367.72C628 369.52 628.67 370.63 630.29 371.18C631.91 371.74 632.58 372.15 632.99 373.4C633.39 374.65 634.74 375.2 634.74 372.71C634.74 370.21 633.8 364.95 633.12 363.29C632.45 361.63 631.91 358.02 631.77 355.95C631.64 353.87 631.24 353.32 630.29 352.9C629.35 352.49 628.54 351.79 628.4 350.82C628.27 349.86 627.46 349.51 626.85 349.51C626.24 349.51 625.71 349.02 625.37 348.33C625.03 347.64 624.69 347.57 624.02 347.5C623.34 347.43 622.26 347.85 621.93 346.74C621.59 345.63 621.12 344.04 620.44 343.13C619.77 342.23 619.16 341.96 619.09 338.84C619.03 335.73 618.96 335.31 618.01 334.2C617.07 333.09 615.45 330.19 614.77 328.94C614.1 327.7 613.43 326.45 613.43 329.08C613.43 331.71 613.43 333.09 615.04 334.06C616.66 335.03 617.07 335.03 616.39 336.42C615.72 337.81 616.39 338.78 616.66 339.75C616.93 340.72 617.47 341.69 616.66 342.65C615.85 343.62 615.04 343.34 615.18 341.82C615.31 340.3 614.77 338.5 614.1 337.25C613.43 336 612.89 335.17 612.08 335.87C611.27 336.56 610.59 335.73 611.13 335.17C611.67 334.62 611.54 334.2 611.13 333.79C610.73 333.37 610.59 332.96 611.27 332.12C611.94 331.29 611.94 330.88 611.54 328.94C611.13 327 608.17 317.31 606.82 315.09C605.47 312.88 605.6 311.21 607.36 313.43C609.11 315.65 610.59 317.59 610.73 319.38C610.86 321.18 611.27 322.29 611.81 322.99C612.35 323.68 612.75 323.4 613.02 321.88C613.29 320.35 614.37 320.91 612.48 318C610.59 315.09 607.09 310.24 605.74 301.52C604.39 292.79 603.85 286.98 602.5 284.63C601.15 282.27 600.75 281.72 600.61 279.5C600.48 277.28 600.61 275.06 599.67 273.41C598.72 271.74 598.05 271.47 597.91 273.96C597.78 276.45 598.05 281.99 598.72 282.96C599.4 283.93 598.99 286.42 598.86 287.81C598.72 289.19 596.6 290.56 601.02 293.35C602.77 294.46 602.5 295.98 602.23 296.95C601.96 297.92 601.69 297.78 600.75 296.26C599.8 294.73 598.86 293.49 597.91 292.66C596.97 291.83 596.83 291.27 596.97 289.33C597.1 287.39 597.51 286.01 596.97 285.32C596.43 284.63 596.16 285.18 595.89 286.28C595.62 287.39 595.35 290.44 594.81 291.27C594.27 292.1 594 291.55 593.59 289.75C593.19 287.95 593.73 285.18 594.67 281.99C595.62 278.81 596.16 275.48 595.35 271.33C594.54 267.17 594.94 265.92 591.84 262.47C588.74 259 585.23 255.68 583.75 251.39C582.26 247.09 581.99 243.35 580.37 241.41C578.76 239.48 576.46 236.98 574.98 236.29C574.98 232.96 574.98 231.44 574.98 229.92C574.98 228.4 574.3 227.43 572.55 227.7C570.79 227.98 569.71 229.51 568.64 231.58C567.56 233.66 566.75 232.69 565.27 236.29C563.78 239.89 561.62 241.69 561.62 245.57L561.62 245.57Z" /><path class="shp4" d="M571.33 286.14C572.41 286.84 573.45 287.3 575.07 286.47C576.69 285.64 578.62 283.24 580.78 285.6C582.94 287.95 584.15 291.83 584.15 294.87C584.15 297.92 584.15 303.6 587.53 306.78C590.9 309.97 592.65 313.29 592.78 317.45C592.92 321.6 594.4 327.97 594.81 329.64C595.21 331.29 596.16 333.23 597.24 334.34C598.32 335.45 599.13 338.64 599.26 341.96C599.4 345.28 598.86 347.64 599.26 349.3C599.67 350.96 599.26 352.35 598.05 351.52C596.83 350.69 596.56 350.27 595.89 348.89C595.21 347.5 594.4 347.78 595.08 349.86C595.75 351.93 597.78 353.87 599.53 353.87C601.29 353.87 601.83 354.15 602.91 355.25C603.98 356.36 604.12 356.92 606.01 356.92C607.9 356.92 608.17 356.92 609.92 357.47C611.67 358.02 611.67 357.75 612.62 357.47C613.56 357.19 614.5 358.02 615.18 359.83C615.85 361.63 617.47 366.61 617.47 368C617.47 369.38 617.47 370.77 618.42 372.15C619.36 373.54 619.09 374.92 618.01 374.09C616.93 373.26 616.93 373.54 616.12 373.68C615.31 373.82 614.77 373.4 613.7 372.71C612.62 372.01 613.29 372.15 612.21 370.49C611.13 368.83 610.46 368.27 610.46 369.52C610.46 370.77 610.33 372.29 609.52 371.6C608.71 370.91 608.3 370.91 607.63 371.6C606.95 372.29 606.68 372.85 605.87 371.46C605.06 370.07 604.12 370.07 603.31 369.8C602.5 369.52 602.5 369.52 602.1 368.27C601.69 367.03 600.48 366.75 599.4 366.75C598.32 366.75 597.78 366.19 597.64 365.36C597.51 364.54 596.83 363.98 596.29 363.57C595.75 363.15 596.02 362.18 595.89 361.21C595.75 360.24 594.94 360.66 594.4 360.38C593.86 360.1 593.46 360.24 593.46 358.86C593.46 357.47 592.92 357.05 592.51 356.08C592.11 355.11 592.51 354.15 592.78 353.04C593.05 351.93 592.92 351.24 592.11 350.27C591.3 349.3 591.98 348.33 589.82 346.39C587.66 344.45 586.58 346.11 585.91 341.55C585.23 336.97 583.88 327.56 582.67 326.03C581.45 324.51 580.65 323.4 579.43 322.99C578.22 322.57 577.41 322.85 577.27 320.21C577.14 317.59 576.33 314.26 574.71 312.6C573.09 310.94 572.41 310.38 571.6 309.69C570.79 309 570.52 307.75 571.6 305.4C572.68 303.04 572.28 299.86 572.14 298.33C572.01 296.81 571.6 294.87 571.87 293.21C572.14 291.55 572.01 289.47 571.6 288.36C571.2 287.25 570.66 286.98 571.33 286.14L571.33 286.14Z" /><path class="shp4" d="M603.85 246.77C602.02 249.18 600.07 251.2 597.55 253.04C595.04 254.89 591.8 256.37 593.59 259.51C595.4 262.65 596.83 263.02 597.19 265.42C597.55 267.82 598.09 269.85 599.89 270.41C601.69 270.96 602.41 270.59 602.41 274.47C602.41 278.35 602.41 279.82 604.03 281.3C605.65 282.78 605.47 284.25 606.19 287.76C606.9 291.27 606.9 298.84 609.06 304.01C611.22 309.18 616.08 318.97 615.54 321C615 323.03 614.28 324.51 616.44 326.91C618.6 329.31 620.04 332.82 620.22 334.85C620.4 336.88 620.76 337.62 622.91 336.88C625.07 336.14 626.15 335.4 626.87 334.48C627.59 333.56 629.03 333.74 631.01 334.85C632.99 335.96 636.05 337.06 637.84 335.96C639.64 334.85 640.54 333.19 642.16 333.19C644.68 331.34 645.58 327.46 646.12 326.36C646.66 325.25 646.3 325.25 645.22 324.14C644.14 323.03 644.68 321.18 644.5 319.34C644.32 317.49 643.6 314.72 641.44 310.66C639.29 306.6 638.03 301.61 636.59 300.32C635.15 299.02 634.43 295.89 634.25 294.41C634.07 292.93 632.45 291.64 631.37 290.53C630.29 289.43 629.21 287.76 627.95 281.3C626.69 274.84 625.79 270.22 625.79 269.11C625.79 268 625.61 267.82 624.53 267.45C623.45 267.08 622.91 265.23 623.28 264.31C623.64 263.39 622.91 262.47 622.56 261.36C622.2 260.25 622.56 258.22 623.28 257.11C623.99 256 623.82 252.86 623.1 250.28C622.37 247.69 621.66 245.48 618.78 245.1C615.9 244.74 615.36 244 614.28 241.6C613.2 239.2 612.12 234.95 611.76 234.02C611.4 233.1 610.86 232.92 608.71 234.76C606.55 236.61 605.83 237.22 605.83 240.68C605.83 242.89 606.19 243.63 606.9 244.92C607.63 246.21 607.81 246.59 608.35 250.09C608.89 253.6 611.94 259.14 607.98 262.28C604.03 265.42 604.57 266.16 604.75 268.37C604.93 270.59 603.67 272.06 602.95 268.93C602.23 265.79 602.95 263.94 605.11 262.47C607.27 260.98 609.25 259.14 607.81 257.11C606.36 255.08 605.83 250.28 605.65 248.06C605.47 245.84 605.11 245.1 603.85 246.77L603.85 246.77Z" /></g><g ><path class="shp5" d="M571.8 293.85C571.7 295.35 572.03 297.01 572.14 298.33C572.28 299.86 572.68 303.04 571.6 305.4C570.52 307.75 570.79 309 571.6 309.69C571.65 309.73 571.69 309.76 571.73 309.8C573.94 309.04 574.22 306.52 573.63 305.3C573 304.01 573.18 302.44 573.9 301.15C574.62 299.86 574.62 299.12 573.99 298.19C573.36 297.27 573.36 297.27 574.08 294.69C574.71 292.41 573.11 292.43 571.8 293.85L571.8 293.85Z" /><path class="shp5" d="M594.81 329.64C594.4 327.97 592.92 321.6 592.78 317.45C592.65 313.29 590.9 309.97 587.53 306.78C584.89 304.3 584.32 300.3 584.19 297.21C582.21 295.97 581.38 296.54 581.55 298.84C581.72 301.33 584.15 302.54 583.79 306.13C583.43 309.74 583.43 308.81 585.14 310.57C586.85 312.32 587.48 313.98 586.58 314.72C585.68 315.46 585.59 316.76 586.85 317.21C588.11 317.68 588.2 319.06 588.02 320.35C587.84 321.65 589.01 321.92 589.73 322.85C590.45 323.77 590.54 325.99 589.82 327.28C589.1 328.57 589.01 330.6 590.27 329.5C591.53 328.39 592.07 329.4 593.05 331.15C593.91 332.67 594.63 332.19 595.56 331.74C595.23 331.04 594.97 330.31 594.81 329.64L594.81 329.64Z" /><path class="shp5" d="M612.35 361.9C611.54 363.57 610.59 363.01 609.79 362.18C608.98 361.35 608.03 361.35 608.44 359.83C608.84 358.3 608.71 358.02 607.63 357.19C607.5 357.1 607.38 357.01 607.25 356.93C606.91 356.92 606.52 356.92 606.01 356.92C604.12 356.92 603.98 356.36 602.91 355.25C602.66 355.01 602.45 354.81 602.24 354.64C602.22 354.9 602.23 355.25 602.23 355.67C602.23 357.19 602.23 356.92 600.75 357.33C599.26 357.75 599.53 355.81 599.26 354.56C599.19 354.24 599.11 354.01 599.03 353.81C597.4 353.49 595.69 351.74 595.08 349.86C594.4 347.78 595.21 347.5 595.89 348.89C596.56 350.27 596.83 350.69 598.05 351.52C599.26 352.35 599.67 350.96 599.26 349.3C599.13 348.77 599.1 348.15 599.12 347.46C598.83 346.92 598.43 346.49 597.91 346.25C595.75 345.28 596.43 345.01 596.56 343.2C596.7 341.41 596.29 341.41 594.94 342.37C593.59 343.34 593.46 342.23 593.46 339.47C593.46 336.7 591.7 336.7 591.3 338.64C590.9 340.58 590.22 339.33 589.42 336.56C588.61 333.79 587.53 333.09 587.39 335.73C587.28 337.95 586.67 338.49 585.26 337.25C585.51 338.86 585.73 340.36 585.91 341.55C586.58 346.11 587.66 344.45 589.82 346.39C591.98 348.33 591.3 349.3 592.11 350.27C592.92 351.24 593.05 351.93 592.78 353.04C592.51 354.15 592.11 355.11 592.51 356.08C592.92 357.05 593.46 357.47 593.46 358.86C593.46 360.24 593.86 360.1 594.4 360.38C594.74 360.55 595.18 360.45 595.49 360.59C595.84 360.12 596.16 359.55 596.56 359.13C598.18 357.47 600.61 359.27 601.42 361.35C602.23 363.43 603.17 363.98 604.39 362.32C605.6 360.66 605.2 360.93 606.55 362.46C607.9 363.98 608.44 363.71 608.44 363.71C608.44 363.71 609.79 363.15 610.73 363.98C611.67 364.81 612.21 364.68 613.96 362.04C615.72 359.41 613.16 360.24 612.35 361.9L612.35 361.9Z" /><path class="shp5" d="M617.16 285.91C617.7 281.85 617.34 277.79 618.96 276.31C620.58 274.84 622.56 271.88 622.37 278.16C622.2 284.44 622.02 284.07 620.76 285.55C619.5 287.02 618.42 287.39 619.68 289.79C620.94 292.19 621.12 292.38 620.94 296.07C620.76 299.77 620.76 301.24 622.2 303.09C623.64 304.93 623.99 305.12 624.36 307.15C624.71 309.18 625.97 311.95 627.59 313.43C629.21 314.91 631.01 319.15 631.19 322.11C631.37 325.06 633.89 325.8 636.22 327.83C638.56 329.87 635.69 331.34 633.89 330.42C632.09 329.5 632.81 330.42 631.73 331.71C630.65 333 630.29 333.19 629.39 330.97C628.49 328.76 625.43 327.28 623.99 326.73C622.56 326.17 621.3 323.77 620.04 321.37C618.96 319.31 616.82 317.8 614.87 317.65C615.41 319.2 615.7 320.42 615.54 321C615 323.03 614.28 324.51 616.44 326.91C618.6 329.31 620.04 332.82 620.22 334.85C620.4 336.88 620.76 337.62 622.91 336.88C625.07 336.14 626.15 335.4 626.87 334.48C627.59 333.56 629.03 333.74 631.01 334.85C632.99 335.96 636.05 337.06 637.84 335.96C639.64 334.85 640.54 333.19 642.16 333.19C644.68 331.34 645.58 327.46 646.12 326.36C646.66 325.25 646.3 325.25 645.22 324.14C644.14 323.03 644.68 321.18 644.5 319.34C644.32 317.49 643.6 314.72 641.44 310.66C639.29 306.6 638.03 301.61 636.59 300.32C635.15 299.02 634.43 295.89 634.25 294.41C634.07 292.93 632.45 291.64 631.37 290.53C630.29 289.43 629.21 287.76 627.95 281.3C626.97 276.25 626.2 272.33 625.92 270.33C624.63 272.44 623.74 272.96 623.28 271.51C622.74 269.85 622.02 268.93 621.3 270.03C620.58 271.14 620.4 269.11 620.4 268.19C620.4 267.26 620.22 267.08 619.32 267.08C618.42 267.08 619.14 265.61 618.78 262.83C618.42 260.06 617.88 259.7 617.52 263.02C617.16 266.34 615.36 268.37 616.08 269.11C616.8 269.85 616.44 271.33 615.72 273.55C615 275.76 615.36 277.05 615.9 278.53C616.44 280 615.54 282.78 615.18 285.18C614.82 287.58 616.62 289.98 617.16 285.91L617.16 285.91Z" /><path class="shp5" d="M584.29 252.72C582.95 252.83 582.04 254.02 582.8 258.22C583.28 260.81 581.36 260.25 580.65 258.95C579.93 257.66 579.39 254.89 577.95 252.49C576.5 250.09 577.23 254.15 577.05 256.37C576.87 258.59 578.31 258.59 579.57 260.43C580.82 262.28 579.74 263.02 578.31 263.02C576.87 263.02 577.59 265.97 577.95 268C578.31 270.03 577.59 270.41 576.5 268.74C575.43 267.08 576.15 264.5 576.33 261.36C576.5 258.22 576.69 258.95 574.71 258.22C572.73 257.48 573.09 257.11 573.81 255.26C574.53 253.42 575.25 252.49 574.35 251.57C573.45 250.65 573.63 250.09 575.07 249.91C576.5 249.72 575.97 248.62 577.23 248.24C578.49 247.87 579.03 248.43 579.2 246.03C579.35 244.03 580.01 242.8 581.47 243.4C582.36 246.49 583.5 251.29 584.29 252.72L584.29 252.72Z" /><path class="shp5" d="M602.41 274.47C602.41 278.35 602.41 279.82 604.03 281.3C605.65 282.78 605.47 284.25 606.19 287.76C606.9 291.27 606.9 298.84 609.06 304.01C609.71 305.55 610.59 307.51 611.5 309.54C612.7 308.58 613.74 306.92 614.1 306.04C614.64 304.75 613.02 302.16 611.76 299.95C610.51 297.74 611.94 296.99 613.2 294.22C614.46 291.46 613.02 291.27 611.05 290.53C609.06 289.79 609.06 287.95 607.98 284.99C606.9 282.04 607.09 280.75 607.81 279.08C608.52 277.42 607.98 276.13 606.55 275.76C605.11 275.39 605.47 274.28 606.01 272.44C606.55 270.59 606.9 270.22 604.75 270.77C603.11 271.19 602.72 271.5 602.23 272.11C602.35 272.65 602.41 273.39 602.41 274.47L602.41 274.47Z" /></g><path class="shp3" d="M623.1 282.22C622.9 284.44 622.91 285.55 622.37 286.28C621.84 287.02 622.2 288.13 622.74 289.24C623.28 290.35 623.64 291.83 623.1 293.86C622.56 295.89 623.45 297.55 624.53 298.1C625.61 298.66 626.15 298.1 625.79 300.69C625.43 303.27 626.87 306.04 628.13 307.15C629.39 308.26 630.29 310.1 630.11 311.21C629.93 312.32 631.01 313.43 632.27 313.98C633.53 314.54 633.35 314.72 633.35 315.46C633.35 316.2 633.89 316.2 635.33 316.57C636.76 316.94 637.84 317.86 639.46 319.89C641.08 321.92 643.42 323.03 643.06 320.82C642.7 318.6 643.06 317.12 640.9 316.01C638.75 314.91 637.13 309.55 636.22 305.86C635.33 302.16 632.45 297.18 630.83 296.26C630.65 293.67 631.01 292.38 629.39 291.08C627.77 289.79 627.23 288.13 627.23 286.84C627.23 285.55 626.33 283.88 625.61 283.52C624.9 283.14 624.53 282.22 624.53 281.11C624.53 280 623.28 280.19 623.1 282.22L623.1 282.22Z" /><g ><g ><path class="shp6" d="M665.09 332.44C665 321.96 664.02 234.26 664.02 213.99C664.02 209.14 661.59 210.11 661.59 213.99L661.59 331.88C662.7 332.09 664.21 332.3 665.09 332.44Z" /><path class="shp6" d="M702.63 207.62L706.84 332.65L706.11 333.65L703.66 333.69L701 207.62L702.63 207.62Z" /><path class="shp6" d="M738.15 313.19C737.81 300.46 736.25 241.52 735.65 212.47C735.57 208.59 733.32 209.27 733.36 212.61C733.6 236.01 734.96 301.45 735.21 313.26C736.09 313.26 737.61 313.17 738.15 313.19Z" /></g><g ><path class="shp7" d="M681.96 228.4L646.07 227.84C644.05 235.32 653.09 235.18 656.46 233.24C660.37 236.29 663.34 236.01 665.5 233.52C668.61 236.15 672.52 235.46 674.13 233.8C678.45 237.12 682.9 233.8 681.96 228.4Z" /><path class="shp7" d="M684.66 246.95L647.96 246.81C641.62 253.04 649.85 256.09 656.87 251.8C657.81 253.88 662.13 255.12 665.5 253.46C668.61 255.95 672.52 254.15 674.54 252.07C678.32 253.88 682.77 254.43 684.66 246.95Z" /><path class="shp7" d="M683.58 270.5L648.23 270.22C647.56 276.73 654.71 275.9 657.54 274.24C660.24 278.53 666.18 277.56 668.47 275.06C671.84 277.42 674.94 276.87 676.7 274.65C680.61 278.11 683.85 273.68 683.58 270.5L683.58 270.5Z" /><path class="shp7" d="M685.33 294.04L645.81 293.35C643.65 300.27 649.72 301.52 652.55 299.86C653.49 303.87 658.75 302.49 660.1 299.58C662.13 301.66 664.69 300.55 665.91 299.16C666.45 302.9 671.03 303.04 674.54 299.86C681.69 304.98 688.44 299.02 685.33 294.04Z" /><path class="shp7" d="M720.41 284.35L687.49 284.07C688.98 290.99 692.21 292.79 697.47 288.78C701.39 292.93 707.86 291.41 709.48 289.33C716.63 295.29 720.54 288.36 720.41 284.35L720.41 284.35Z" /><path class="shp7" d="M717.03 261.22L685.2 260.25C685.74 268.56 693.42 268.28 697.34 264.68C700.31 268.56 705.57 267.45 707.46 264.68C711.51 268.83 718.11 266.34 717.03 261.22L717.03 261.22Z" /><path class="shp7" d="M721.22 235.18L686.95 235.18C687.36 240.99 694.91 244.32 700.71 238.78C702.33 245.43 708.54 243.35 711.24 240.72C715.14 245.84 724.18 240.03 721.22 235.18L721.22 235.18Z" /><path class="shp7" d="M719.19 217.46L688.57 217.87C688.03 222.99 695.31 225.21 698.01 221.05C699.5 223.69 704.62 223.41 706.11 220.91C708.54 224.79 711.51 222.16 712.45 220.91C715.95 223.55 719.73 222.3 719.19 217.46L719.19 217.46Z" /><path class="shp7" d="M755.08 228.95L717.57 228.54C717.44 232.55 721.49 234.21 723.91 232.55C723.91 236.43 729.18 237.67 732.55 234.63C734.85 237.95 741.59 238.92 744.29 234.35C749.82 239.06 755.76 235.73 755.08 228.95Z" /><path class="shp7" d="M754.54 260.53L717.84 260.39C718.11 265.65 724.05 267.45 727.42 264.68C728.23 269.11 732.82 269.39 735.51 267.17C738.75 270.91 744.15 271.19 747.12 267.03C751.57 268.7 754.95 264.82 754.54 260.53L754.54 260.53Z" /><path class="shp7" d="M752.65 288.92L723.64 288.5C723.64 293.76 729.72 294.46 732.42 291.69C735.24 295.15 739.56 295.15 741.99 292.38C745.9 295.84 751.84 294.87 752.65 288.92Z" /></g><path class="shp8" d="M706.11 333.65C690.46 333.93 674.54 333.93 663.75 332.26C652.95 330.6 649.55 329.04 642.16 324.51C631.1 317.73 628.4 316.06 612.75 306.65C610.36 305.2 607.76 306.99 611.13 309.27C626.92 319.94 632.9 323.89 640.41 328.94C648.23 334.2 653.28 338.88 658.08 344.45C664.29 351.66 668.87 351.79 671.71 350.69C674.54 349.58 678.99 348.05 683.44 349.16C687.9 350.27 693.83 350.41 696.93 349.86C699.77 352.49 706.24 351.93 709.89 351.1C713.53 350.27 716.22 349.86 718.79 350.41C721.35 350.96 725.26 350.55 727.83 350.13C730.39 349.72 737.13 349.02 741.86 349.72C746.58 350.41 751.44 349.99 754.54 349.02C757.64 348.05 763.31 348.33 765.2 348.89C767.89 346.81 769.24 344.17 769.92 341.41C773.09 340.99 774.14 340.59 774.84 338.71C776.13 335.24 777.33 331.85 777.74 330.33L779.02 330.33L779.43 327.21L776.8 324.09L777.74 318.14L780.57 317.45C780.71 315.65 779.9 312.88 779.36 311.77C762.36 312.46 745.7 313.01 733.77 313.29C732.42 314.4 730.93 317.31 730.66 319.11C723.38 320.35 719.06 320.91 717.17 321.32C715.28 321.74 714.23 321.89 712.72 323.95C710.29 327.28 708 331.15 706.11 333.65L706.11 333.65Z" /><path class="shp8" d="M760.73 312.49C761.55 309.56 763.76 301.65 767.76 286.7C768.43 284.2 766.07 283.22 765.2 286.42C760.44 303.87 758.65 310.42 758.04 312.6C758.96 312.58 760.27 312.48 760.73 312.49Z" /><path class="shp7" d="M787.05 283.24C781.32 286.28 778.55 287.46 775.92 286.42C773.5 285.47 769.95 284.93 767.87 285.98C767.86 286.2 767.83 286.44 767.76 286.7C765.3 295.9 763.52 302.43 762.32 306.78C766.56 308.32 773.88 308.53 775.59 306.65C777.33 304.71 782.13 305.12 784.56 305.26C786.11 303.18 786.72 300.62 786.31 299.37C785.91 298.12 786.04 295.91 786.65 294.18C787.26 292.45 788.06 286.84 787.05 283.24L787.05 283.24Z" /><g ><path class="shp9" d="M656.46 233.24C650.12 252.07 628.13 294.32 614.86 307.92" /><path class="shp9" d="M625.05 314.07C640.11 302.11 678.18 263.29 684.66 246.95" /><path class="shp9" d="M648.23 270.22C646.48 284.49 642.47 309.93 640.31 323.37" /><path class="shp9" d="M654.13 302.02C649.01 307.15 641.74 316.09 636.34 320.94" /><path class="shp9" d="M702.4 273.55C698.08 277.84 693.16 282.84 688.84 284.09" /><path class="shp9" d="M704.88 274.24C708.67 278.39 714.07 283.08 718.52 284.33" /><path class="shp9" d="M701.92 251.25C698.01 254.71 692.21 258.78 686.95 260.3" /><path class="shp9" d="M704.13 252.07C707.51 254.98 711.1 259.23 715.41 261.17" /><path class="shp9" d="M687.76 235.18C691.94 233.93 698.16 230.61 701.4 227.15" /><path class="shp9" d="M703.26 226.46C706.92 230.75 713.93 234.21 717.44 235.18" /><path class="shp9" d="M688.57 217.87C692.89 216.9 698.23 214.55 701.07 210.39" /><path class="shp9" d="M702.69 209.28C706.33 212.47 712.72 217.07 716.9 217.49" /><path class="shp9" d="M733.47 221.68C731.13 224.17 725.4 228.65 721.76 228.58" /><path class="shp9" d="M735.85 221.47C737.54 224.24 741.79 228.48 744.22 228.83" /><path class="shp9" d="M719.33 260.39C724.05 258.73 730.66 254.76 733.97 250.67" /><path class="shp9" d="M736.56 250.97C737.94 253.53 743.21 259.31 746.18 260.49" /><path class="shp9" d="M724.92 288.52C727.08 288.04 732.96 285.04 734.57 281.51" /><path class="shp9" d="M737.27 279.57C739.5 282.41 744.96 287.6 748.33 288.85" /><path class="shp9" d="M650.66 293.43C657.27 291.29 670.63 282.96 677.24 275.06" /><path class="shp9" d="M664.61 285.04C670.14 289.05 676.56 293.07 681.49 293.97" /><path class="shp9" d="M649.45 270.24C653.09 268.64 657.88 265.92 661.59 261.98" /><path class="shp9" d="M664.37 261.43C665.85 263.57 676.77 270.41 681.42 270.48" /><path class="shp9" d="M661.59 239.34C658.75 241.69 651.94 245.91 648.64 246.81" /><path class="shp9" d="M664.17 239.48C667.95 242.17 675.42 246.94 680.54 246.94" /><path class="shp9" d="M661.59 217.66C658.55 221.19 653.43 226.64 649.18 227.89" /><path class="shp9" d="M664.03 218.49C666.39 222.37 672.72 227.61 676.83 228.31" /><path class="shp9" d="M718.64 241.79C728.1 259.7 745.64 281.58 763.38 293.07" /><path class="shp9" d="M690.26 221.95C704.62 243.14 732.82 289.61 759.65 306.76" /><path class="shp9" d="M764.59 288.64C760.27 294.8 752.52 304.43 739.7 313.19" /><path class="shp9" d="M762.99 294.49C753.95 279.67 749.28 260.94 742.52 236.27" /><path class="shp9" d="M669.21 302.14L680.34 333.58" /><path class="shp9" d="M667.14 301.41L676.98 333.47" /><path class="shp9" d="M665.02 299.93L674.16 333.3" /><path class="shp9" d="M664.1 300.44L671.15 333.1" /><path class="shp9" d="M670.9 331.92L679.72 331.92" /><path class="shp9" d="M678.54 328.51L670.22 328.51" /><path class="shp9" d="M677.62 325.88L669.6 325.88" /><path class="shp9" d="M676.68 323.21L669.03 323.21" /><path class="shp9" d="M675.67 320.3L668.38 320.3" /><path class="shp9" d="M667.84 317.79L674.76 317.79" /><path class="shp9" d="M667.34 315.44L673.9 315.44" /><path class="shp9" d="M666.78 312.88L673.02 312.88" /><path class="shp9" d="M666.29 310.59L672.18 310.59" /><path class="shp9" d="M665.77 308.22L671.37 308.22" /><path class="shp9" d="M665.31 306.04L670.61 306.04" /><path class="shp9" d="M664.79 304.01L669.94 304.01" /><path class="shp9" d="M664.51 302.3L669.3 302.3" /><path class="shp9" d="M655.83 302.34L649.55 328.63" /><path class="shp9" d="M657.66 301.9L652.27 329.67" /><path class="shp9" d="M659.1 300.9L654.75 330.47" /><path class="shp9" d="M660.93 300.27L657.77 331.2" /><path class="shp9" d="M661.59 329.43L651.61 329.43" /><path class="shp9" d="M661.59 326.59L650.04 326.59" /><path class="shp9" d="M661.59 323.68L650.71 323.68" /><path class="shp9" d="M661.59 320.91L651.39 320.91" /><path class="shp9" d="M661.59 318.07L652.05 318.07" /><path class="shp9" d="M661.59 314.95L652.8 314.95" /><path class="shp9" d="M661.59 312.25L653.44 312.25" /><path class="shp9" d="M661.59 309.48L654.13 309.48" /><path class="shp9" d="M661.59 306.78L654.76 306.78" /><path class="shp9" d="M661.59 304.43L655.3 304.43" /><path class="shp9" d="M661.59 302.56L655.77 302.56" /><path class="shp9" d="M661.59 331.88L661.59 300.55" /><path class="shp9" d="M695.15 290.23L674.24 333.29" /><path class="shp9" d="M696.47 289.5L678.67 333.49" /><path class="shp9" d="M697.75 289.06L683.62 333.73" /><path class="shp9" d="M698.67 289.82L687.68 333.72" /><path class="shp9" d="M688.17 331.71L675.01 331.71" /><path class="shp9" d="M689.18 327.77L676.93 327.77" /><path class="shp9" d="M689.79 324.58L678.52 324.58" /><path class="shp9" d="M690.84 321.11L680.19 321.11" /><path class="shp9" d="M691.38 318.35L681.54 318.35" /><path class="shp9" d="M692.33 315.16L683.05 315.16" /><path class="shp9" d="M693.26 311.44L684.86 311.44" /><path class="shp9" d="M693.96 308.6L686.24 308.6" /><path class="shp9" d="M694.77 305.36L687.78 305.36" /><path class="shp9" d="M695.33 303.14L688.86 303.14" /><path class="shp9" d="M695.85 301.07L689.92 301.07" /><path class="shp9" d="M696.38 298.96L690.91 298.96" /><path class="shp9" d="M696.85 297.09L691.83 297.09" /><path class="shp9" d="M697.32 295.22L692.72 295.22" /><path class="shp9" d="M697.8 293.3L693.64 293.3" /><path class="shp9" d="M698.23 291.56L694.49 291.56" /><path class="shp9" d="M711.83 290.93L720.98 320.67" /><path class="shp9" d="M713.58 291.54L724.68 320.08" /><path class="shp9" d="M715.16 291.61L728.16 319.52" /><path class="shp9" d="M731.29 317.11L716.95 291.06" /><path class="shp9" d="M731.28 317.09L719.9 317.09" /><path class="shp9" d="M729.33 313.55L718.85 313.55" /><path class="shp9" d="M727.39 310.02L717.78 310.02" /><path class="shp9" d="M725.44 306.49L716.68 306.49" /><path class="shp9" d="M723.49 302.96L715.55 302.96" /><path class="shp9" d="M721.55 299.43L714.49 299.43" /><path class="shp9" d="M719.6 295.9L713.4 295.9" /><path class="shp9" d="M717.65 292.36L712.29 292.36" /><path class="shp9" d="M729.4 293.21L720.45 320.77" /><path class="shp9" d="M732.09 291.96L723.78 320.22" /><path class="shp9" d="M727.63 319.6L733.72 292.99" /><path class="shp9" d="M735.29 293.9L730.16 319.21" /><path class="shp9" d="M721.49 317.59L730.47 317.59" /><path class="shp9" d="M722.6 314.15L731.17 314.15" /><path class="shp9" d="M723.72 310.73L731.88 310.73" /><path class="shp9" d="M724.84 307.3L732.58 307.3" /><path class="shp9" d="M725.95 303.87L733.27 303.87" /><path class="shp9" d="M727.07 300.45L733.97 300.45" /><path class="shp9" d="M728.18 297.02L734.66 297.02" /><path class="shp9" d="M729.3 293.59L734.63 293.59" /><path class="shp9" d="M739.38 294.15L743.77 313.05" /><path class="shp9" d="M741.01 293.28L747.08 312.98" /><path class="shp9" d="M743.07 293.18L749.69 312.91" /><path class="shp9" d="M745.79 294.29L752.42 312.82" /><path class="shp9" d="M751.83 311.18L743.32 311.18" /><path class="shp9" d="M750.82 308.41L742.75 308.41" /><path class="shp9" d="M749.82 305.64L742.08 305.64" /><path class="shp9" d="M748.82 302.87L741.4 302.87" /><path class="shp9" d="M747.82 300.1L740.77 300.1" /><path class="shp9" d="M746.83 297.33L740.16 297.33" /><path class="shp9" d="M745.82 294.56L739.5 294.56" /></g></g><path class="shp4" d="M733.7 337.53C712.25 341.33 665.5 338.64 655.25 336C651.72 335.1 652.68 333.79 655.65 334.48C667.47 337.24 692.68 337.25 706.58 336.56C709.28 332.89 713.53 326.66 714.81 324.92C716.09 323.19 716.66 323.03 719.33 322.57C724.12 321.74 726.85 321.29 731 320.56C731.07 321.11 731.07 321.81 731.07 322.22C730.73 322.5 730.39 322.99 730.12 323.12C730.12 325.96 730.66 332.89 731.2 335.38C731.74 335.31 732.42 335.1 732.75 335.03C733.7 334.76 734.64 337.25 733.7 337.53L733.7 337.53Z" /><path class="shp4" d="M768.84 338.58C769.61 338.56 771.22 338.53 771.67 338.51C772.55 338.49 773.78 337.87 774.32 336.49C774.86 335.1 776.53 329.98 777.14 327.83L774.98 324.49C775.45 321.74 776.06 318 776.13 317.24C777.2 316.82 778.35 316.41 778.89 316.2C779.02 315.58 778.76 313.88 778.21 313.33C768.97 313.69 741.32 314.68 736.26 314.75C735.04 314.75 734.5 314.69 734.04 316.48C731.47 326.31 735.02 340.11 744.69 348.05C745.37 348.61 746.22 348.14 745.09 347.08C743.48 345.56 740.98 342.44 739.29 339.36C741.18 339.33 745.01 339.27 746.16 339.22C746.71 341.55 748.44 346.46 748.77 347.29C749.11 348.12 749.94 348.24 749.55 347C748.62 344.09 748.13 340.77 747.72 339.18C749.48 339.14 752.79 339.17 754.81 339.05C754.91 341.69 755.18 345.21 755.25 346.18C755.31 347.15 756.12 347.22 756.14 346.11C756.16 345.01 756.18 340.32 756.17 338.94C758.45 338.88 761.37 338.78 762.45 338.78C762.3 340.27 762.02 345.12 761.91 345.88C761.76 347.01 762.33 347.55 762.6 345.95C762.87 344.36 763.41 340.64 763.56 338.75C764.48 338.72 766.88 338.62 767.89 338.59C767.79 340.07 766.44 344.56 766.04 345.74C765.63 346.91 766.29 346.95 766.74 345.84C767.22 344.7 768.7 340.19 768.84 338.58L768.84 338.58Z" /><path class="shp10" d="M738.21 337.46C737.47 335.94 735.18 330.52 734.97 326.57C736.93 326.53 741.83 326.44 744.19 326.39C744.54 329.36 745.43 335.76 745.9 337.28C743.14 337.35 739.77 337.44 738.21 337.46L738.21 337.46Z" /><path class="shp10" d="M745.81 326.35C746.06 328.62 747.22 336.42 747.41 337.32C749.41 337.2 754.05 337.18 754.86 337.11C754.77 335.03 754.45 327.24 754.41 326.13C752.31 326.19 746.86 326.33 745.81 326.35Z" /><path class="shp10" d="M735.35 316.7C734.97 318.7 734.91 322.95 735.01 324.77C737.37 324.82 743.19 324.67 743.99 324.61C743.79 322.54 743.48 318.8 743.28 316.46C741.35 316.55 736.63 316.66 735.35 316.7L735.35 316.7Z" /><path class="shp10" d="M744.99 316.44C745.06 318.38 745.48 323.12 745.62 324.57C747.66 324.51 752.65 324.4 754.34 324.34C754.25 322.57 753.97 316.85 753.94 316.16C751.23 316.23 746.71 316.41 744.99 316.44Z" /><path class="shp10" d="M755.71 316.11C755.79 317.91 756.01 322.99 755.95 324.31C758.11 324.25 762.25 324.21 763.53 324.1C763.63 322.29 763.92 317.13 763.78 315.81C761.35 315.91 757.48 316.04 755.71 316.11Z" /><path class="shp10" d="M765.27 315.76C765.27 317.28 765.08 322.64 765.01 324.09C767.15 324.01 772.02 323.83 773.29 323.8C773.63 322.02 774.3 317.38 774.51 315.42C772.48 315.49 766.74 315.72 765.27 315.76L765.27 315.76Z" /><path class="shp10" d="M773.63 325.58C770.86 325.67 766.41 325.79 764.91 325.85C764.67 329.36 764.25 335.42 764.05 336.8C766.48 336.75 771.4 336.59 772.48 336.56C773.29 334.9 775.05 329.71 775.45 328.11C774.84 327.14 774.37 326.59 773.63 325.58L773.63 325.58Z" /><path class="shp10" d="M755.99 326.09C755.99 327.34 756.21 336.27 756.26 337.03C757.84 336.97 761.95 336.92 762.56 336.85C762.87 333.37 763.33 326.72 763.41 325.88C760.61 325.96 757.86 326.05 755.99 326.09Z" /><path class="shp10" d="M720.21 323.95L716.7 324.59C715.08 327.28 709.08 335.59 708.33 336.56C712.51 336.44 719.05 336.31 720.62 336.15C720.51 333.93 720.22 325.06 720.21 323.95Z" /><path class="shp10" d="M721.76 323.66C721.85 326.5 722.11 334.06 722.18 336.07C724.25 335.95 728.07 335.7 729.62 335.56C729.26 331.99 728.61 323.46 728.47 322.42C726.73 322.75 723.32 323.36 721.76 323.66Z" /><g ><path class="shp8" d="M685.53 293.72C686.01 293.72 686.07 294.14 685.53 294.13L645.67 293.63C645.13 293.62 645.2 293.21 645.68 293.21L685.53 293.72Z" /><path class="shp8" d="M716.86 260.98C717.33 261 717.39 261.41 716.85 261.4L685.27 260.51C684.73 260.49 684.81 260.07 685.28 260.09L716.86 260.98Z" /><path class="shp8" d="M683.55 270.31C684.02 270.32 684.08 270.73 683.54 270.73L648.2 270.46C647.66 270.46 647.73 270.04 648.2 270.04L683.55 270.31Z" /><path class="shp8" d="M684.59 246.77C685.06 246.77 685.13 247.18 684.59 247.18L647.62 246.98C647.08 246.98 647.16 246.57 647.63 246.57L684.59 246.77Z" /><path class="shp8" d="M682.03 228.19C682.5 228.19 682.56 228.62 682.03 228.6L646.11 228.05C645.57 228.04 645.64 227.62 646.11 227.63L682.03 228.19Z" /><path class="shp7" d="M719.23 217.3C719.7 217.29 719.77 217.71 719.23 217.71L688.41 218.02C687.87 218.02 687.93 217.6 688.4 217.6L719.23 217.3Z" /><path class="shp8" d="M721.11 235C721.59 235 721.65 235.42 721.11 235.42L687.05 235.42C686.51 235.42 686.58 235 687.05 235L721.11 235Z" /><path class="shp8" d="M754.57 260.22C755.04 260.22 755.11 260.63 754.57 260.63L717.85 260.63C717.31 260.63 717.38 260.22 717.85 260.22L754.57 260.22Z" /><path class="shp8" d="M755.08 228.71C755.55 228.71 755.61 229.13 755.08 229.12L717.57 228.74C717.03 228.74 717.1 228.32 717.57 228.33L755.08 228.71Z" /><path class="shp8" d="M720.41 284.09C720.88 284.1 720.94 284.51 720.4 284.51L687.41 284.28C686.87 284.28 686.94 283.86 687.41 283.87L720.41 284.09Z" /><path class="shp8" d="M752.65 288.69C753.12 288.69 753.19 289.11 752.65 289.1L723.64 288.71C723.1 288.7 723.18 288.29 723.65 288.29L752.65 288.69Z" /><path class="shp11" d="M778.82 294.39C779.63 292.53 779.75 288.25 779.28 286.63C778.03 286.9 776.96 286.84 775.92 286.42C775.38 286.21 774.78 286.02 774.15 285.86C774.04 288 773.28 293.46 772.35 295.57C770.72 296.04 767.43 295.49 765.56 294.88C765.07 296.7 764.62 298.37 764.2 299.9C766.52 300.45 769.43 300.41 771.74 299.86C771.56 303.06 771.15 305.97 769.46 307.99C772.22 308.05 774.68 307.64 775.59 306.65C775.67 306.55 775.76 306.47 775.86 306.39C777.13 304.2 777.17 301.36 777.47 299.44C778.41 299.51 779.63 299.23 780.17 298.68C780.71 298.12 781.59 297.85 782.46 297.92C783.26 297.98 784.51 297.81 786.09 297.15C786.13 296.17 786.32 295.11 786.65 294.18C786.82 293.67 787.02 292.83 787.18 291.81C785.17 292.8 780.69 294.45 778.82 294.39L778.82 294.39Z" /></g><path class="shp5" d="M659.97 343.48C664.15 340.72 671.3 341.27 674.94 344.04C679.26 341.55 687.09 342.23 690.73 345.56C696.26 341.69 700.98 341.13 706.38 344.87C710.56 341.82 717.03 341.55 722.03 345.14C726.88 342.79 732.28 340.85 737 345.98C734.17 343.9 728.1 342.1 722.03 346.95C717.3 342.1 709.08 343.9 706.38 347.22C702.87 342.93 695.45 342.23 691 347.5C686.14 343.34 678.86 343.2 674.94 346.39C671.84 343.9 667.26 341.82 659.97 343.48Z" /><path class="shp12" d="M639.73 339.61C641.76 341.06 645.33 343.48 649.99 343.13C652.28 345.01 655.86 346.6 657.48 346.95C654.37 348.26 651 349.37 650.12 350.41C648.7 349.02 646.89 349.23 646.41 348.54C645.06 349.65 645.27 350.34 646.14 350.89C647.02 351.45 653.83 352.63 655.52 352.14C657.21 351.66 657.66 353.09 656.26 353.59C652.62 354.91 645.54 353.66 643.11 349.65C640.68 345.63 638.59 344.1 631.98 347.78C631.24 345.84 631.24 345.35 629.95 345.35C628.67 345.35 626.31 343.62 628.13 343.69C629.95 343.76 635.35 342.93 639.73 339.61L639.73 339.61Z" /></g><path class="shp12" d="M613.56 376.9C617.05 376.66 626.5 374.38 627.52 373.66C629.84 374.98 633.92 376.78 635.66 376.78C632.32 377.38 630.13 377.02 629.26 376.54C629.7 377.38 630.86 378.71 631.59 378.83C628.39 378.71 624.76 378.1 623.59 377.14C620.83 378.1 616.18 378.35 613.56 376.9L613.56 376.9Z" /><g ><path class="shp12" d="M619.81 383.47C621.12 383.8 627.68 384.72 628.52 384.72C626.36 386.29 628.22 387.79 631.84 387.53C630.07 387.73 628.13 388.3 629.45 388.52C632.61 389.04 641.17 387.07 642.87 386.29C639.94 389.5 625.68 392.45 619.81 383.47L619.81 383.47Z" /><path class="shp12" d="M625.68 391.47C627.44 390.68 631.84 390.94 633.92 391.79C631.61 392.52 627.06 392.52 625.68 391.47Z" /><path class="shp10" d="M632.3 391.34C635.47 390.88 644.41 392.71 647.57 391.07C646.49 393.5 640.86 393.83 638.93 393.3C637.01 392.78 635.16 392.12 633.85 392.19C634.54 391.86 633.38 391.79 632.3 391.34L632.3 391.34Z" /><path class="shp12" d="M635.54 395.07C637.94 395.4 646.49 394.48 649.12 393.63C651.89 394.42 657.37 395.66 658.6 395.53C655.98 396.9 650.96 396.12 649.35 395.53C644.72 396.84 640.94 397.23 635.54 395.07L635.54 395.07Z" /><path class="shp12" d="M639.63 396.3C643.06 396.95 645.98 396.49 649.35 395.53C650.4 395.91 652.87 396.38 655.2 396.28C656.75 397.04 658.83 398.08 660.84 398.22C658.75 398.94 651.12 398.22 649.58 397.49C645.72 397.56 639.09 398.28 637.47 399.4C637.4 398.48 638.1 397.2 639.63 396.3L639.63 396.3Z" /><path class="shp10" d="M635.54 381.5C638.22 382.26 647.88 381.9 652.81 379.93C654.76 379.15 655.96 380.46 653.74 381.11C645.72 383.47 639.4 384.39 634.77 382.29C632.95 381.46 632.77 380.72 635.54 381.5L635.54 381.5Z" /><path class="shp12" d="M682.89 370.36C671.01 375.08 663.15 376.52 646.65 372.2C645.11 371.79 644.02 372.2 645.72 373.12C647.42 374.03 656.52 376.13 658.68 376.26C660.84 376.39 660.07 377.24 658.75 377.57C657.44 377.9 657.06 378.68 658.83 378.09C660.61 377.5 670.52 377.28 674.56 379.08C676.33 379.87 676.79 379.73 676.64 379.14C676.49 378.55 677.41 378.16 678.72 378.03C680.03 377.9 680.81 377.5 679.8 377.18C678.8 376.85 678.65 376.65 679.42 376.32C680.19 376 680.27 375.67 679.11 375.47C677.95 375.27 677.18 375.01 678.26 374.55C679.34 374.1 680.96 373.77 682.19 373.64C682.5 372.92 681.96 371.02 682.89 370.36L682.89 370.36Z" /><path class="shp10" d="M663.15 371.54C669.93 371.95 682.43 369.31 689.06 363.81C691.37 364.98 694.61 366.3 696.31 366.56C698 366.82 699.55 368.13 696.92 368.13C694.3 368.13 690.6 367.21 688.91 366.56C680.11 371.15 669.82 372.66 663.3 372.2C661.45 372.07 660.99 371.41 663.15 371.54Z" /><path class="shp12" d="M644.95 348.54C643.66 348.81 640.01 350.5 638.71 350.63C637.4 350.77 635.08 352.34 637.47 352.41C639.86 352.47 642.94 350.24 644.64 350.04C646.34 349.85 646.49 348.21 644.95 348.54L644.95 348.54Z" /><path class="shp12" d="M652.43 355.15C651.51 355.29 647.57 356.07 646.49 356.01C645.41 355.94 644.33 356.2 644.41 356.86C644.49 357.51 644.8 357.91 643.18 357.78C641.56 357.65 640.17 358.17 639.78 358.56C639.4 358.96 639.09 359.35 640.71 359.48C642.33 359.61 643.18 359.74 645.03 359.02C646.88 358.3 648.65 357.19 650.66 357.12C652.66 357.06 654.67 354.83 652.43 355.15Z" /><path class="shp10" d="M646.88 359.22C648.56 360.15 656.9 362.56 659.91 362.37C662.92 362.17 662.36 363.39 660.07 363.81C655.36 364.66 649.62 362.92 645.72 360.27C643.79 358.96 645.57 358.5 646.88 359.22L646.88 359.22Z" /><g ><path class="shp12" d="M686.36 362.69C679.98 364.43 673.48 363.81 670.86 363.22C668.24 362.63 665.85 362.5 667.62 363.94C669.39 365.38 675.1 366.36 678.34 365.64C666.85 367.87 663.84 367.67 660.99 367.28C658.14 366.89 652.78 366.97 650.51 367.15C648.81 367.28 646.49 367.08 645.49 366.56C644.49 366.03 644.18 365.05 647.19 365.31C650.19 365.58 650.58 365.05 647.96 364.72C645.34 364.39 641.71 365.31 645.26 367.21C648.81 369.12 656.59 367.08 661.53 368.26C666.46 369.44 676.95 370.3 686.9 363.48C687.41 363.13 688.29 362.17 686.36 362.69L686.36 362.69Z" /><path class="shp12" d="M655.05 354.7C655.28 355.35 655.28 356.07 655.05 356.53C654.82 356.99 654.82 357.58 655.82 356.92C656.83 356.27 657.44 355.48 658.45 355.94C659.45 356.4 661.99 356.33 663.15 356.2C664.31 356.07 664.69 355.88 663 355.29C661.3 354.7 659.6 354.5 658.68 354.56C657.75 354.63 656.59 354.43 655.82 354.17C655.05 353.91 654.82 354.04 655.05 354.7Z" /><path class="shp12" d="M671.48 357.25C670.17 357.32 667.85 356.6 666.62 356.14C665.38 355.68 663.61 355.61 664.93 357.12C666.23 358.63 671.94 359.48 673.95 358.76C675.95 358.04 675.1 357.25 677.1 358.3C679.11 359.35 681.19 360.07 682.66 360.07C684.12 360.07 684.66 360.07 683.04 359.29C681.42 358.5 680.65 358.3 680.5 357.65C680.34 356.99 680.11 356.6 681.58 356.99C683.04 357.38 684.74 358.1 685.9 357.58C687.05 357.06 689.21 355.88 691.14 355.88L691.6 354.89C688.82 354.7 687.05 355.42 686.28 355.68C685.51 355.94 684.12 356.07 682.66 355.88C681.19 355.68 679.26 355.55 678.8 355.22C678.34 354.89 678.34 354.63 679.57 354.43C680.81 354.24 681.19 353.51 679.49 353.78C677.8 354.04 673.25 353.91 670.86 353.25C668.47 352.6 667.47 352.54 666.46 352.86C665.46 353.19 665.61 354.1 667.08 354.17C668.55 354.24 671.86 354.5 673.02 355.42C674.18 356.33 674.02 356.4 672.71 355.94C671.4 355.48 669.01 355.74 671.48 357.25L671.48 357.25Z" /><path class="shp12" d="M691.6 354.89L691.14 355.88C693.99 355.81 700.93 356.4 703.17 357.58C705.33 356.14 704.94 355.68 706.48 355.94C708.03 356.2 709.95 356.66 710.8 356.27C711.65 355.88 712.27 355.94 713.2 356.07C714.11 356.2 716.12 355.88 717.28 355.29C718.44 354.7 720.83 353.91 722.22 353.91C723.6 353.91 725.3 353.65 722.76 353.32C720.21 352.99 716.35 353.65 715.04 354.04C713.74 354.43 709.8 354.7 707.49 354.7C705.17 354.7 702.01 355.68 699.39 355.09C696.77 354.5 693.14 354.89 691.6 354.89L691.6 354.89Z" /></g><path class="shp10" d="M727.3 353.71C722.68 356.6 717.12 357.25 710.5 357.65C708.57 357.76 709.16 358.23 710.8 358.37C717.74 358.96 725.76 356.79 728.38 354.43C729.14 353.75 729.06 352.62 727.3 353.71Z" /><g ><path class="shp12" d="M695.77 360.4C697.77 360.47 704.71 361.97 706.95 362.63C708.64 362.5 709.11 362.17 708.8 361.65C708.49 361.12 708.26 360.53 711.34 360.66C714.42 360.79 721.52 360.73 722.83 360.73C723.91 360.33 726.3 358.76 727.38 358.7C724.61 358.83 713.04 359.35 711.58 359.22C710.11 359.09 709.34 359.22 708.41 359.68C707.49 360.14 706.95 360.33 705.79 359.94C704.63 359.55 702.55 359.02 701.4 359.61C700.24 360.2 697.85 359.68 695.77 360.4L695.77 360.4Z" /><path class="shp12" d="M722.83 360.73C723.91 360.33 726.3 358.76 727.38 358.7C729.38 358.56 731.7 359.29 732.78 359.42C733.86 359.55 735.02 359.35 734.24 358.63C733.47 357.91 734.17 356.66 737.33 356.99C740.49 357.32 742.11 357.78 745.19 357.51C748.28 357.25 749.67 359.22 755.52 357.25C755.06 359.22 756.14 359.35 757.22 358.96C758.3 358.56 759.54 358.7 761.39 359.88C763.24 361.06 774.5 361.19 777.12 360.79C779.74 360.4 781.12 361.58 779.12 362.1C777.12 362.63 776.65 363.42 777.12 363.94C777.58 364.46 778.04 365.12 775.58 364.85C773.11 364.59 772.64 365.25 771.41 366.03C770.18 366.82 769.87 367.08 766.47 366.56C763.08 366.03 762.47 366.43 760.62 366.69C758.76 366.95 758.3 366.95 756.45 366.43C754.6 365.9 750.59 365.38 748.12 366.03C745.66 366.69 743.8 367.35 741.64 366.82C739.48 366.3 739.33 366.56 740.72 365.38C742.11 364.2 742.42 364.33 745.04 364.07C747.66 363.81 749.67 363.15 747.82 362.24C745.96 361.32 745.35 361.45 742.88 362.5C740.41 363.55 739.18 364.2 736.4 362.89C733.63 361.58 732.24 361.84 730.39 362.24C728.54 362.63 725.46 361.71 722.83 360.73L722.83 360.73Z" /><path class="shp12" d="M732.08 364.66C728.55 365.09 727.6 363.15 723.91 363.55C722.68 363.68 720.6 364.98 723.45 364.79C726.3 364.59 729.38 365.9 732.16 365.71C734.94 365.51 733.7 364.46 732.08 364.66L732.08 364.66Z" /><path class="shp12" d="M728 366.95C729.85 366.38 733.7 367.48 735.32 367.21C736.94 366.95 738.49 367.8 736.79 368.26C735.09 368.72 731 367.41 729.15 367.87C727.3 368.33 725.46 367.74 728 366.95L728 366.95Z" /><path class="shp12" d="M691.14 375.41C693.68 375.48 702.86 375.14 706.48 368.59C706.76 368.09 707.02 367.87 708.18 368.53C709.34 369.18 713.58 371.35 721.52 371.94C723.75 372.1 726.15 373.05 721.68 372.79C717.2 372.53 710.11 371.48 707.72 370.23C703.71 375.6 696.5 376.24 691.14 376.13C687.9 376.06 688.67 375.34 691.14 375.41L691.14 375.41Z" /><path class="shp12" d="M710.96 366.49C709.72 367.94 705.48 370.43 703.55 370.56C701.63 370.69 695.84 370.23 694.38 369.77C692.91 369.31 691.14 369.44 693.22 370.69C695.3 371.94 700.47 372.79 702.55 372.39C704.63 372 707.02 371.41 708.64 372.26C710.26 373.12 713.27 374.75 715.04 374.42C716.82 374.1 720.44 374.1 721.6 374.55C722.76 375.01 724.76 376.39 721.75 375.6C718.74 374.82 716.28 375.47 714.89 374.95C716.43 376.78 719.93 379.73 722.91 379.73C723.6 379.73 724.07 380.78 722.6 381.37C724.07 381.96 727.46 382.42 729.23 381.05C728.77 381.57 729 381.9 729.77 382.23C730.54 382.55 731.47 383.01 730.08 383.14C728.69 383.27 725.53 383.6 724.61 383.27C727.61 384.91 735.4 387.53 743.34 386.22C744.85 385.97 745.66 385.44 743.19 385.5C738.1 385.63 737.79 385.56 736.87 385.11C735.94 384.65 736.1 384.26 737.56 383.86C739.02 383.47 742.72 383.01 744.27 383.01C745.81 383.01 747.35 382.49 744.19 382.49C741.03 382.49 737.18 382.49 735.63 382.03C734.09 381.57 732.93 380.98 734.55 380.06C736.17 379.14 737.87 379.41 738.64 378.55C733.55 378.49 727.3 376.19 730.77 374.1C731.58 373.61 731.31 373.58 730 373.44C728.69 373.31 724.84 372.39 723.22 371.61C721.6 370.82 722.68 370.17 723.99 369.97C720.98 370.43 714.96 369.05 710.96 366.49L710.96 366.49Z" /><path class="shp12" d="M756.22 366.36C753.44 368.13 748.2 368.85 745.96 368.85C743.73 368.85 743.42 369.51 745.19 369.71C746.97 369.9 748.9 370.1 749.67 369.9C750.44 369.71 750.9 369.64 752.05 370.1C753.21 370.56 755.68 370.82 757.84 370.23C760 369.64 763.54 369.38 765.01 369.44C766.47 369.51 768.09 369.58 765.16 368.85C762.24 368.13 757.45 368.66 756.3 368.92C755.14 369.18 751.98 368.98 753.67 368.53C755.37 368.07 756.84 367.35 757.68 366.76C757.07 366.62 756.68 366.49 756.22 366.36L756.22 366.36Z" /><path class="shp12" d="M754.75 371.48C752.36 372.98 748.9 374.42 745.35 374.55C748.59 375.54 751.29 378.36 753.36 378.23C752.36 378.75 751.13 379.54 749.82 379.67C751.83 380.13 755.22 379.6 757.99 378.29C762.62 379.41 768.63 378.68 770.64 377.24C767.63 377.24 764.01 376.32 762.39 375.14C763.86 375.14 765.24 374.36 765.93 373.64C762.47 374.16 756.53 372.72 754.75 371.48L754.75 371.48Z" /><path class="shp12" d="M749.82 379.67C751.13 379.54 752.36 378.75 753.36 378.23C750.82 378.95 739.72 377.44 736.4 374.95C733.09 372.46 733.09 374.36 735.4 376.13C737.72 377.9 741.8 380.59 749.82 379.67L749.82 379.67Z" /><path class="shp12" d="M757.99 385.7C756.6 386.35 749.98 386.75 747.82 386.35C745.66 385.96 744.73 386.15 745.27 386.88C745.81 387.6 746.04 388.25 744.27 388.06C742.49 387.86 739.33 388.19 738.02 388.58C736.71 388.97 735.09 389.96 737.87 389.56C740.64 389.17 743.19 388.71 745.27 389.17C747.35 389.63 754.75 389.76 756.22 389.24C757.68 388.71 756.68 388.71 755.99 388.71C755.29 388.71 754.98 388.32 755.99 387.93C756.99 387.53 757.76 386.42 757.99 385.7L757.99 385.7Z" /><path class="shp12" d="M693.84 378.09C691.06 379.14 681.81 381.24 679.34 381.37C676.25 382.55 673.79 383.21 672.25 383.21C673.33 384 677.49 384.78 679.19 384.39C678.26 385.17 676.11 386.09 675.33 386.48C677.8 386.22 680.73 386.75 681.96 386.88C678.72 388.45 674.25 388.97 671.94 388.71C672.71 389.63 673.79 390.55 675.18 390.55C672.25 391.2 668.7 391.2 666.85 390.68C667.62 391.99 668.39 392.78 669.47 392.91C667 393.17 663.92 393.56 661.3 392.25C663.3 394.48 667.77 395.26 674.41 394.61C681.04 393.96 686.59 391.47 688.13 390.42C685.36 390.68 681.65 390.81 679.8 390.55C683.51 389.76 691.52 386.88 692.91 385.7C691.37 385.7 689.83 385.3 688.75 384.65C690.91 384.91 698.47 384.13 700.78 383.34C698 382.82 696.31 381.37 695.53 380.46C705.25 383.08 716.06 382.22 721.29 381.11C722.52 380.85 722.67 379.52 720.21 379.67C715.89 379.93 707.56 378.88 705.4 377.96C707.41 379.27 709.88 380.06 711.58 380.32C707.56 381.24 702.01 381.9 693.84 378.09Z" /><path class="shp12" d="M675.33 386.48C676.11 386.09 678.26 385.17 679.19 384.39C677.49 384.78 673.33 384 672.25 383.21C673.79 383.21 676.25 382.55 679.34 381.37C673.79 381.24 669.93 381.24 667.93 380.32C665.92 379.41 662.23 379.67 660.84 379.93C659.45 380.19 659.91 382.16 665.77 381.64C663.3 383.08 656.67 383.6 654.2 383.08C654.82 384.78 655.28 386.48 654.67 387.4C657.91 388.97 666.39 390.94 670.55 390.68C666.85 389.5 664.84 388.19 667.93 387.93C671.01 387.66 672.71 387.14 675.33 386.48L675.33 386.48Z" /></g><path class="shp10" d="M665.77 395.01C673.15 394.48 683.04 394.37 690.91 388.71C692.91 387.27 694.26 387.75 692.29 389.24C688.13 392.38 677.8 396.71 667.93 396.84C663.91 396.89 662.07 395.26 665.77 395.01L665.77 395.01Z" /><g ><path class="shp12" d="M721.06 384.65C719.21 385.24 714.04 385.96 712.5 385.76C710.96 385.56 708.72 385.5 707.49 386.15C706.25 386.81 706.17 387.2 707.87 387.34C709.57 387.47 711.73 387.6 712.81 387.53C711.42 388.19 710.5 389.11 710.19 389.5C712.66 388.97 717.2 389.89 718.51 390.55C717.51 390.81 716.35 390.48 715.5 390.09C719.67 393.83 732.01 393.83 734.01 393.17C733.09 393.76 732.24 394.35 731.31 394.55C734.78 395.07 738.79 395.01 742.72 393.04C741.41 393.24 737.48 392.91 736.48 392.84C737.25 392.19 738.4 391.6 739.48 391.34C737.95 391.07 733.09 391.2 731.93 391.73C732.39 390.94 733.24 389.96 734.17 389.63C728.07 389.63 720.67 389.56 717.97 388.32C722.29 388.71 727.08 386.55 729.08 386.55C725.69 386.48 721.98 385.83 721.06 384.65L721.06 384.65Z" /><path class="shp12" d="M705.56 387.53C702.55 388.06 698 389.11 696.77 389.7C695.53 390.29 694.22 390.61 696.92 390.61C699.62 390.61 706.95 390.88 708.57 391.07C704.48 390.55 698.93 390.42 697.85 390.42C696.77 390.42 695.53 390.35 697.54 389.83C699.55 389.3 702.17 388.12 705.56 387.53Z" /><path class="shp12" d="M699.47 393.63C700.54 393.63 705.25 393.63 707.1 392.25C709.03 393.5 712.73 395.26 715.12 395.26C717.51 395.26 717.28 395.79 715.19 395.99C713.12 396.18 709.03 395.14 706.95 393.83C704.17 394.68 701.86 393.96 699.47 393.63Z" /><path class="shp12" d="M663.77 411.26C668.55 412.83 674.87 414.01 679.49 412.7C682.12 414.67 687.52 414.8 690.44 414.28C693.37 413.75 696 413.49 699.24 414.41C702.47 415.32 709.11 415.39 710.96 416.7C709.26 416.77 705.63 416.7 704.79 416.9C703.94 417.09 704.4 417.55 705.94 418.27C700.7 418.01 691.68 419.91 688.91 421.94C689.9 419.91 692.99 417.16 697.85 417.16C695.07 416.31 686.21 416.24 683.35 417.75C682.5 416.96 681.5 415.65 681.42 415.13C676.72 417.42 667.47 414.14 663.77 411.26L663.77 411.26Z" /><path class="shp12" d="M651.5 403.92C657.19 403.23 661.07 401.69 662.77 400.25C663.77 401.04 667.93 401.82 672.48 400.64C671.55 401.23 671.48 402.35 671.86 402.94C668.85 403 663.15 404.25 661.22 405.1C659.29 405.95 653.66 406.54 651.82 405.69C649.97 404.84 649.89 404.12 651.5 403.92L651.5 403.92Z" /><path class="shp12" d="M671.86 402.94C668.85 403 663.15 404.25 661.22 405.1C661.61 405.76 661.84 406.8 661.92 407.52C667.47 405.82 680.19 404.77 685.05 405.43C682.73 405.56 678.34 407.59 675.87 407.85C681.89 407.46 687.75 408.51 689.29 408.83C690.83 409.16 691.14 410.14 689.98 411.06C688.82 411.98 688.29 412.11 690.75 412.18C693.22 412.24 698.31 411.98 700.63 410.08C699.7 409.23 697.31 409.55 696.61 408.96C698.23 408.51 700.09 407.52 700.78 406.8C696.61 406.73 695.07 406.67 693.68 406.41C692.29 406.15 691.29 405.82 692.99 405.03C694.69 404.25 695.46 403.59 696 403.07C692.99 403.79 688.29 404.38 684.35 401.76C685.82 402.08 689.29 401.89 690.52 401.43C689.21 400.84 688.13 400.38 687.05 400.38C690.21 399.07 696.46 397.89 704.17 400.51C708.03 400.25 712.19 400.38 715.12 401.04C716.35 399.99 718.98 397.49 720.36 396.84C711.27 397.49 694.92 396.05 695.23 391.99C692.29 395.26 685.51 397.1 682.58 396.58C682.27 397.76 683.51 399.2 684.59 399.99C681.5 400.51 676.25 400.9 673.79 400.51C675.18 401.69 677.8 402.74 679.34 402.61C676.11 402.61 674.41 403.13 671.86 402.94L671.86 402.94Z" /><path class="shp12" d="M690.75 412.18C693.22 412.24 698.31 411.98 700.63 410.08C699.7 409.23 697.31 409.55 696.61 408.96C698.23 408.51 700.09 407.52 700.78 406.8C707.25 406.35 713.04 406.61 715.81 405.89C718.59 405.17 725.69 405.56 727.08 405.23C720.9 406.08 719.67 406.54 719.36 407.39C719.05 408.24 721.37 408.96 722.83 408.96C720.06 408.83 716.58 411.32 716.28 412.31C712.58 410.47 710.8 412.64 710.42 413.36C708.87 412.83 703.78 412.96 701.16 414.87C697.77 414.01 695.53 413.55 692.14 414.01C694.22 413.62 693.84 412.44 690.75 412.18L690.75 412.18Z" /><path class="shp12" d="M720.36 396.84C722.45 396.77 726.99 396.97 728.61 396.77C727.53 397.23 726.15 398.08 725.84 398.48C731.08 397.95 738.25 397.63 740.33 397.89C737.79 397.56 735.17 398.94 733.86 399.66C732.55 400.38 733.32 400.84 735.09 401.04C736.87 401.23 739.26 402.41 736.02 402.02C732.78 401.63 726.38 401.63 724.84 401.82C723.3 402.02 722.45 401.36 724.68 401.1C726.92 400.84 728.46 400.18 729.54 399.66C727.69 400.05 724.14 400.05 723.06 399.79C721.98 399.53 721.29 399 722.52 398.74C723.76 398.48 722.91 398.08 721.6 398.22C720.29 398.35 716.97 399.53 715.12 401.04C717.12 399.26 718.9 397.69 720.36 396.84Z" /></g><path class="shp10" d="M696.85 399.79C699.39 402.22 702.39 403.59 707.18 403.72C708.18 403.75 710.05 404.89 707.64 404.97C701.16 405.17 697.93 403.85 695.07 400.31C694.48 399.59 695.57 398.57 696.85 399.79L696.85 399.79Z" /><path class="shp10" d="M735.48 353.97C738.88 355.34 745.73 356.53 751.06 356.33C751.98 356.3 753.85 357.14 751.51 357.32C745.5 357.78 740.1 357.06 735.09 354.7C733.7 354.04 734.17 353.45 735.48 353.97Z" /><g ><path class="shp12" d="M738.95 353.91C744.19 353.78 748.12 353.84 749.74 355.15C752.75 354.37 758.15 353.91 759.38 354.1C760.62 354.3 762 353.84 759.15 353.25C756.3 352.67 749.67 352.47 747.58 352.8C745.5 353.12 739.02 353.32 736.87 353.12C737.79 353.25 738.4 353.38 738.95 353.91L738.95 353.91Z" /><path class="shp12" d="M759.3 355.68C761.77 354.56 768.86 355.61 771.02 354.83C769.48 356.4 775.96 356.53 781.59 355.29C779.43 356.47 774.8 356.66 772.8 357.38C770.79 358.1 769.71 357.58 768.17 356.99C766.63 356.4 762.7 355.22 759.3 355.68L759.3 355.68Z" /><path class="shp12" d="M781.59 355.29C775.96 356.53 769.48 356.4 771.02 354.83C768.86 355.61 761.77 354.56 759.3 355.68C761.85 354.37 763.78 355.42 765.62 352.73C766.78 352.93 769.48 353.06 770.41 352.01C772.03 352.34 774.88 352.93 775.73 353.65C776.58 354.37 777.88 353.45 776.8 352.34C779.35 351.55 777.74 353.27 783.67 352.01C784.91 351.75 787.91 351.29 788.92 351.22C786.91 352.6 784.52 354.1 781.59 355.29L781.59 355.29Z" /></g></g><g ><path class="shp13" d="M727.44 174.35L727.29 174.37L726.61 174.43L726.55 174.4L724.32 174.57C724.26 174.57 724.2 174.57 724.13 174.58C724.13 174.58 724.12 174.58 724.12 174.58C723.55 174.59 722.98 174.63 722.42 174.71L709.03 175.75C704.31 176.11 696.15 176.54 686.8 176.95C683.72 177.08 680.49 177.21 677.23 177.33C675.09 177.41 673.05 177.5 670.89 177.58C669.49 177.35 667.46 177.29 665.65 177.41C664.82 177.45 664.01 177.5 663.32 177.61L663.32 177.61C662.77 177.69 662.46 177.77 662.37 177.84C660.5 177.9 658.58 177.97 656.76 178.02C656.51 178.03 656.24 178.04 655.99 178.04C655.97 178.04 655.96 178.04 655.94 178.04C654.04 178.1 652.17 178.16 650.34 178.22C650.32 178.21 650.32 178.22 650.3 178.22C647.4 178.07 645.02 177.91 643.3 177.79C642.44 177.73 641.73 177.68 641.21 177.66C640.7 177.63 640.41 177.61 640.16 177.64C640.07 177.65 640.01 177.66 639.93 177.67C639.77 177.67 639.5 177.66 639.44 177.66C637.36 177.93 635.83 178.32 634.5 178.75C633.33 178.69 631.72 178.66 629.27 178.64C627.94 178.63 626.71 178.66 625.58 178.72C622.23 178.85 619.79 179.21 619.79 179.68C619.79 179.78 619.72 179.93 619.61 180.1C619.13 180.64 618.23 181.38 616.93 182.28C616.84 182.28 616.75 182.28 616.66 182.29L616.58 182.29L616.58 182.29C616.37 182.29 616.18 182.3 615.97 182.31C606.29 189.46 583.86 199.49 577.55 199.49C575.17 199.49 568.95 200.84 563.72 202.49C558.77 204.05 555.93 204.75 552.53 204.82C550.35 204.8 547.85 204.53 544.33 204.07C541.38 203.68 538.64 203.38 536.61 203.19C535.59 203.1 534.74 203.04 534.13 203.01C533.82 203 533.58 202.99 533.38 203C533.28 203 533.19 203 533.11 203.01C533.08 203.01 533.04 203.02 533 203.03C532.63 203.02 532.35 203.03 532.3 203.07C532.15 203.19 532.6 204.27 533.35 205.78C533.36 205.79 533.36 205.8 533.37 205.81C533.95 207.02 534.79 208.61 535.79 210.31C536.71 211.89 537.55 213.38 538.19 214.58C538.69 215.58 539.04 216.33 539.04 216.51C539.04 216.93 535.6 218.66 531.4 220.37C527.93 221.78 525.83 222.98 525.09 223.9L524.46 224.18L524.87 224.25C524.87 224.26 524.86 224.27 524.86 224.29L523.51 224.87L525.03 225.11C525.04 225.12 525.06 225.13 525.08 225.14C525.09 225.34 525.15 225.54 525.27 225.7C525.51 226.05 525.9 226.25 526.38 226.42C527.33 226.74 528.77 226.88 530.77 226.88L530.8 226.88L530.83 226.88C531.84 226.75 532.74 226.65 533.66 226.54L535.59 226.85C538.5 227.33 543.7 227.81 548.29 228.2C550.59 228.4 552.73 228.56 554.34 228.7C555.14 228.77 555.81 228.83 556.3 228.88C556.55 228.91 556.76 228.92 556.91 228.94C557.06 228.96 557.17 229 557.13 228.99C557.28 229.03 557.29 229.03 557.38 229.06C557.39 229.07 557.4 229.07 557.41 229.08C557.42 229.09 557.43 229.09 557.44 229.09C557.52 229.13 557.6 229.17 557.65 229.19C557.66 229.19 557.67 229.18 557.68 229.19C557.7 229.19 557.72 229.21 557.74 229.22C557.76 229.22 557.77 229.22 557.8 229.23C557.82 229.23 557.83 229.24 557.88 229.25C557.89 229.25 557.94 229.25 557.94 229.25C557.94 229.25 558.01 229.23 558.01 229.23C558.01 229.23 558.15 229.17 558.15 229.17C558.15 229.17 558.26 229.09 558.26 229.09C558.26 229.09 558.35 228.97 558.35 228.97C558.35 228.97 558.39 228.81 558.39 228.81L558.39 228.67C558.39 228.67 558.32 228.5 558.32 228.5C558.32 228.5 558.27 228.43 558.27 228.43C558.27 228.43 558.24 228.41 558.22 228.4C558.18 228.36 558.18 228.35 558.17 228.34C558.14 228.32 558.12 228.31 558.11 228.31C558.08 228.3 558.05 228.3 558.03 228.29C558.03 228.29 558.02 228.29 558.01 228.29C558.01 228.29 558.02 228.28 558.01 228.28C558.01 228.27 558 228.28 558 228.28C557.96 228.26 557.88 228.23 557.77 228.19C557.77 228.18 557.75 228.17 557.74 228.17C556.97 227.82 555.22 226.73 554.05 224.77C556.08 224.53 557.79 224.08 561.3 222.62L561.92 222.36L561.48 221.84C560.95 221.22 560.95 220.41 561.5 219.33C562.05 218.25 563.17 216.99 564.75 215.79C567.9 213.39 572.82 211.2 578.45 210.61C578.46 210.61 578.46 210.61 578.47 210.61C596.78 214.33 613.81 208.64 634.57 199.44L676.62 198.67L718.53 197.89L721.84 201.65L721.96 201.78L722.14 201.82C737.46 203.87 745.33 201.61 753.56 201.53C761.78 201.44 770.47 203.46 787.74 214.09L787.95 214.21L788.16 214.14C789.2 213.75 790.1 213.45 790.94 213.18C791.12 213.68 791.23 214.15 791.23 214.56L790.25 219.68L790.64 219.67L790.57 220.04L790.45 220.63L791.06 220.62L806.3 220.38C807.57 220.34 808.97 220.25 810.39 220.13C810.42 220.14 810.46 220.13 810.49 220.13C811.98 220.31 813.68 220.4 815.68 220.38L815.74 220.38L815.81 220.36L820.83 219.09C823.16 218.5 824.72 217.88 825.65 217.12C825.66 217.11 825.69 217.09 825.71 217.08C825.72 217.07 825.73 217.06 825.74 217.06C825.86 216.98 825.99 216.91 826.09 216.8C826.15 216.72 826.17 216.59 826.21 216.48L826.22 216.5C826.48 216.1 826.56 215.59 826.4 215.15C826.24 214.71 825.9 214.35 825.43 214.02C824.5 213.35 823 212.76 820.89 212.21C817.54 211.34 815.23 210.59 813.91 209.93C813.26 209.6 812.86 209.27 812.7 209.05C812.55 208.83 812.55 208.78 812.67 208.57L812.96 208.23L812.99 208.2C813.25 207.97 813.61 207.72 814.13 207.45C815.82 206.54 817.76 204.14 819.24 201.75C819.98 200.56 820.6 199.37 820.95 198.38C821.13 197.88 821.24 197.44 821.27 197.03C821.3 196.62 821.26 196.2 820.95 195.9C820.78 195.73 820.59 195.7 820.42 195.68C820.26 195.67 820.09 195.68 819.91 195.7C819.86 195.71 819.78 195.74 819.73 195.74C819.19 195.5 816.93 196.26 814.5 197.53C811.6 199.03 807.23 199.84 802.29 199.98C801.66 199.99 801.02 199.99 800.38 199.98C794.4 199.87 787.83 198.84 782.23 196.91C777.25 195.2 768.95 192.43 763.76 190.76L763.74 190.75C760.3 189.75 757.58 188.97 754.71 188.13C748.75 185.56 741.53 182.11 737.19 179.73L727.56 174.43L727.44 174.35Z" /><path class="shp14" d="M556.37 228.06C555.6 227.83 540.5 226.86 534.77 225.91L524.35 224.18L531.91 220.84C536.07 219.01 539.71 217.27 539.99 216.98C540.28 216.7 538.91 213.91 536.94 210.79C534.97 207.67 533.35 204.78 533.35 204.38C533.35 203.63 546.67 204.68 552.62 205.9C555.34 206.46 565.38 208.38 563.93 210.12C562.98 211.27 552.04 214.58 551.59 219.28C550.8 227.35 559.61 229.07 556.37 228.06L556.37 228.06ZM791.11 214.56C791.12 211.48 785.3 205.18 784.17 203.57C782.16 200.71 792.59 202.56 800.36 201.6C804.75 201.06 810.45 199.73 813.03 198.66C815.61 197.58 817.96 196.71 818.25 196.71C819.89 196.71 818.24 200.01 814.45 204.32L810.12 209.25L815.49 211.39C827.24 216.06 826.96 215.7 820.36 217.51C817.02 218.43 810.28 219.29 805.39 219.43L790.13 219.68L791.11 214.56ZM584.87 202.04L581.39 200.59L584.87 199.1C598.83 193.13 617.44 182.86 619.68 179.91C620.06 179.4 636.35 178.56 655.88 178.04C675.4 177.52 699.27 176.49 708.91 175.75L726.44 174.4L736.06 179.69C741.36 182.6 750.89 187.08 757.26 189.64C769.5 194.57 770.3 196.39 760.82 197.64C756.56 198.2 754.32 197.59 750.14 194.74C747.24 192.76 744.35 191.14 743.72 191.14C743.09 191.14 740.89 189.81 738.83 188.19C733.23 183.78 732.58 186.38 738.11 191.11L742.9 195.2L735.59 195.26C728.79 195.31 725.97 193.69 730.02 192.06C730.97 191.67 730.05 191.31 727.97 191.25C724.97 191.16 723.95 190.27 723.1 186.95C722.5 184.65 721.38 182.69 720.62 182.59C714.19 181.78 628.36 184.74 627.05 185.82C626.12 186.58 624.71 186.8 623.91 186.3C623.12 185.81 622.46 186.07 622.46 186.88C622.46 187.69 622.98 188.35 623.62 188.35C624.26 188.35 624.78 189.29 624.78 190.44C624.78 191.62 623.52 192.54 621.88 192.55C619.58 192.57 619.4 192.84 621 193.85C622.58 194.85 622.22 195.32 619.31 196.05C617.28 196.56 614.89 197.86 613.99 198.93C611.99 201.35 609.38 201.5 610.34 199.14C610.74 198.19 611.48 196.36 611.99 195.09C612.66 193.43 610.02 194.31 602.72 198.18C591.83 203.96 590.29 204.3 584.87 202.04L584.87 202.04Z" /><path class="shp15" d="M609.93 200.12C609.93 199.7 610.88 197.51 612.05 195.25C613.22 193 614.76 189.61 615.47 187.73C616.57 184.83 616.41 184.42 614.4 185.05C613.09 185.46 613.74 184.66 615.85 183.27C617.95 181.88 619.68 180.26 619.68 179.68C619.68 179.09 623.59 178.63 628.38 178.67C636.88 178.73 636.98 178.78 632.9 180.64C630.61 181.7 629.34 182.61 630.08 182.67C630.83 182.73 630.04 183.76 628.34 184.95C626.63 186.15 624.62 186.73 623.85 186.26C623.09 185.79 622.46 186.07 622.46 186.88C622.46 187.69 622.98 188.35 623.62 188.35C624.26 188.35 624.78 189.29 624.78 190.44C624.78 191.62 623.52 192.54 621.88 192.55C619.58 192.57 619.4 192.84 621 193.85C622.58 194.85 622.22 195.32 619.31 196.05C617.28 196.56 614.89 197.86 613.99 198.93C612.39 200.87 609.93 201.59 609.93 200.12L609.93 200.12ZM728.28 194.04C728.28 193.34 729.06 192.45 730.02 192.06C730.97 191.67 730.06 191.31 727.99 191.25C724.88 191.16 723.99 190.26 722.82 186.05C722.05 183.25 721.81 180.33 722.28 179.56C722.81 178.71 721.94 178.48 720.06 178.97C717.7 179.59 717.08 179.24 717.42 177.45C717.96 174.59 726.52 173.45 728.8 175.92C730 177.22 729.87 177.34 728.28 176.44C727.13 175.8 727.91 177.54 730.02 180.32C732.12 183.11 733.85 185.85 733.85 186.42C733.85 186.99 735.88 189.2 738.37 191.33L742.9 195.2L735.59 195.26C731.57 195.29 728.28 194.74 728.28 194.04L728.28 194.04ZM663.21 177.61C665.32 177.29 668.45 177.3 670.17 177.63C671.88 177.96 670.15 178.22 666.32 178.21C662.49 178.2 661.09 177.93 663.21 177.61L663.21 177.61ZM702.87 176.21C705.36 175.9 709.43 175.9 711.92 176.21C714.41 176.52 712.37 176.77 707.39 176.77C702.41 176.77 700.38 176.52 702.87 176.21Z" /><path fill-rule="evenodd" class="shp10" d="M727.43 173.87C727.46 173.87 727.48 173.87 727.5 173.87C727.53 173.87 727.55 173.88 727.58 173.89C727.6 173.89 727.62 173.9 727.64 173.91C727.67 173.92 727.69 173.93 727.71 173.95L727.81 174.01L737.43 179.3C741.73 181.67 748.93 185.1 754.87 187.67C757.74 188.5 760.45 189.28 763.88 190.28C763.89 190.28 763.9 190.29 763.91 190.29C763.92 190.29 763.93 190.3 763.93 190.3C763.94 190.31 763.95 190.31 763.96 190.31C763.97 190.32 763.98 190.32 763.99 190.33C769.18 192 777.42 194.74 782.39 196.45C787.93 198.35 794.45 199.39 800.39 199.5C801.02 199.51 801.65 199.51 802.27 199.5C807.17 199.36 811.5 198.54 814.27 197.1C815.51 196.45 816.7 195.94 817.67 195.61C818.15 195.45 818.58 195.33 818.94 195.27C819.24 195.21 819.48 195.17 819.74 195.24C819.77 195.23 819.81 195.23 819.84 195.22C820.05 195.19 820.26 195.18 820.47 195.2C820.65 195.22 821.01 195.27 821.3 195.55C821.74 196 821.79 196.6 821.76 197.06C821.72 197.54 821.6 198.02 821.41 198.54C821.04 199.59 820.41 200.8 819.65 202.01C818.15 204.43 816.23 206.87 814.35 207.88C813.86 208.14 813.53 208.37 813.32 208.56L813.31 208.56L813.12 208.79C813.2 208.88 813.53 209.19 814.13 209.5C815.38 210.13 817.68 210.88 821.01 211.75C823.15 212.3 824.69 212.89 825.71 213.62C826.22 213.99 826.65 214.41 826.86 214.99C827.06 215.55 826.94 216.15 826.64 216.66L826.66 216.65C826.66 216.66 826.63 216.7 826.63 216.71C826.62 216.73 826.64 216.75 826.63 216.76C826.63 216.77 826.62 216.77 826.62 216.78C826.62 216.78 826.61 216.79 826.61 216.79C826.61 216.79 826.6 216.8 826.6 216.8C826.6 216.81 826.59 216.81 826.59 216.82C826.57 216.9 826.6 216.95 826.45 217.12C826.28 217.31 826.1 217.4 825.99 217.47C825.99 217.47 825.99 217.47 825.99 217.48C825.98 217.48 825.98 217.48 825.98 217.48C825.98 217.48 825.98 217.48 825.98 217.48C825.98 217.48 825.97 217.48 825.97 217.48C825.96 217.49 825.97 217.49 825.96 217.49C825.96 217.49 825.96 217.49 825.96 217.49C825.96 217.49 825.96 217.49 825.96 217.49C825.96 217.49 825.96 217.49 825.96 217.49C825.96 217.49 825.96 217.49 825.96 217.49C825.95 217.5 825.95 217.5 825.95 217.5C824.91 218.35 823.31 218.96 820.95 219.56L815.93 220.83L815.87 220.84C815.86 220.85 815.85 220.85 815.84 220.85C815.83 220.85 815.82 220.86 815.81 220.86C815.8 220.86 815.79 220.86 815.77 220.86C815.76 220.86 815.75 220.86 815.74 220.86L815.69 220.86C813.67 220.88 811.95 220.79 810.43 220.61C810.43 220.61 810.43 220.61 810.43 220.61C810.43 220.61 810.43 220.61 810.43 220.61C810.43 220.61 810.43 220.61 810.43 220.61C810.43 220.61 810.43 220.61 810.43 220.61C810.53 220.63 810.51 220.64 810.37 220.62C808.96 220.74 807.58 220.83 806.31 220.86C806.31 220.86 806.31 220.86 806.31 220.86C806.31 220.86 806.31 220.86 806.31 220.86C806.31 220.86 806.31 220.86 806.31 220.86C806.31 220.86 806.31 220.86 806.31 220.86L791.06 221.1C791.02 221.1 790.99 221.1 790.95 221.09C790.91 221.08 790.88 221.07 790.84 221.05C790.81 221.04 790.78 221.02 790.75 221C790.72 220.97 790.7 220.94 790.67 220.92C790.62 220.85 790.52 220.79 790.32 220.64C790.13 220.5 789.88 220.26 789.7 219.9C789.69 219.87 789.68 219.85 789.67 219.82C789.66 219.8 789.66 219.77 789.65 219.75C789.65 219.72 789.65 219.69 789.65 219.67C789.65 219.64 789.65 219.61 789.66 219.59L790.62 214.55C790.62 214.36 790.54 214.09 790.48 213.85C789.8 214.07 789.13 214.29 788.33 214.59C788.33 214.59 788.33 214.59 788.33 214.59C788.33 214.59 788.33 214.59 788.33 214.59C788.33 214.59 788.33 214.59 788.33 214.6C788.33 214.6 788.33 214.6 788.33 214.6L788.11 214.67C788.08 214.68 788.05 214.69 788.01 214.7C787.98 214.7 787.94 214.7 787.91 214.7C787.87 214.69 787.84 214.69 787.81 214.68C787.77 214.67 787.74 214.65 787.71 214.63L787.5 214.51C787.5 214.51 787.49 214.51 787.49 214.51C787.49 214.51 787.49 214.51 787.49 214.51C787.49 214.51 787.49 214.51 787.49 214.51C787.48 214.51 787.48 214.51 787.48 214.51C770.25 203.89 761.7 201.93 753.56 202.01C744.24 202.2 732.73 204.43 721.87 202.26C721.84 202.26 721.82 202.25 721.79 202.24C721.77 202.23 721.74 202.22 721.72 202.21C721.7 202.19 721.68 202.18 721.66 202.16C721.64 202.14 721.62 202.13 721.6 202.11C720.5 200.87 719.41 199.63 718.31 198.39L676.63 199.15L634.66 199.92C613.97 209.09 596.86 214.8 578.47 211.1C572.95 211.69 568.1 213.84 565.04 216.18C563.51 217.35 562.42 218.57 561.93 219.55C561.67 220.05 561.57 220.45 561.57 220.76C561.57 221.07 561.65 221.29 561.85 221.53L562.29 222.04C562.34 222.1 562.37 222.17 562.39 222.25C562.41 222.32 562.41 222.4 562.39 222.47C562.37 222.55 562.34 222.61 562.29 222.67C562.24 222.73 562.17 222.78 562.1 222.81L561.48 223.06C558.37 224.36 556.77 224.72 554.98 224.99C555.74 225.97 556.65 226.81 558.05 227.79C558.08 227.81 558.1 227.83 558.13 227.86C558.15 227.88 558.17 227.91 558.19 227.94C558.21 227.97 558.22 228 558.23 228.04C558.24 228.07 558.25 228.1 558.25 228.14C558.25 228.12 558.28 228.19 558.35 228.3C558.39 228.35 558.43 228.41 558.48 228.49C558.53 228.58 558.62 228.72 558.57 228.96C558.52 229.2 558.29 229.35 558.15 229.4C558.01 229.45 557.88 229.46 557.72 229.46C557.4 229.47 556.95 229.44 556.25 229.37C555.76 229.32 555.1 229.25 554.29 229.19C552.69 229.05 550.55 228.88 548.25 228.68C543.66 228.3 538.46 227.82 535.51 227.33L533.64 227.03C532.74 227.14 531.87 227.24 530.89 227.37C530.88 227.37 530.88 227.37 530.87 227.37C530.87 227.37 530.86 227.37 530.86 227.37C530.85 227.37 530.85 227.37 530.84 227.37C530.84 227.37 530.83 227.37 530.83 227.37L530.76 227.37C528.75 227.37 527.27 227.23 526.22 226.88C525.71 226.71 525.24 226.46 524.91 226.03C524.63 225.8 524.4 225.66 524.2 225.55C524.1 225.49 524.01 225.44 523.92 225.38C523.83 225.32 523.72 225.26 523.63 225.08C523.53 224.9 523.56 224.61 523.65 224.47C523.73 224.33 523.82 224.25 523.92 224.16C524.13 223.99 524.42 223.78 524.84 223.46C525.8 222.4 527.87 221.28 531.21 219.92C533.3 219.07 535.21 218.22 536.57 217.52C537.26 217.18 537.81 216.87 538.17 216.64C538.33 216.54 538.43 216.46 538.51 216.4C538.47 216.31 538.42 216.2 538.36 216.05C538.22 215.73 538.01 215.3 537.76 214.81C537.13 213.61 536.29 212.13 535.37 210.55C534.37 208.84 533.52 207.24 532.93 206.02C532.93 206.02 532.93 206.02 532.93 206.02C532.93 206.02 532.93 206.02 532.93 206.02C532.93 206.02 532.93 206.02 532.93 206.02C532.93 206.02 532.93 206.02 532.93 206.02C532.92 205.99 532.92 205.99 532.92 205.99C532.54 205.24 532.23 204.58 532.04 204.08C531.94 203.83 531.87 203.63 531.82 203.44C531.8 203.35 531.79 203.26 531.79 203.15C531.79 203.04 531.79 202.85 532 202.69C532 202.69 532 202.69 532 202.69C532 202.69 532 202.69 532 202.69C532 202.69 532 202.69 532 202.69C532 202.69 532 202.69 532 202.69C532.18 202.55 532.23 202.58 532.3 202.57C532.37 202.55 532.43 202.55 532.5 202.55C532.63 202.54 532.79 202.54 532.97 202.54C532.99 202.54 533.02 202.53 533.04 202.53C533.18 202.51 533.28 202.51 533.37 202.51L533.37 202.51C533.59 202.5 533.84 202.51 534.15 202.52C534.77 202.55 535.63 202.61 536.65 202.71C538.7 202.9 541.43 203.2 544.39 203.59C547.9 204.05 550.38 204.31 552.52 204.33C555.86 204.26 558.64 203.59 563.57 202.03C566.2 201.2 569.08 200.44 571.6 199.9C574.12 199.35 576.27 199.01 577.54 199.01C578.99 199.01 581.58 198.4 584.7 197.35C587.82 196.31 591.5 194.83 595.3 193.14C602.88 189.74 610.89 185.45 615.67 181.91C615.69 181.9 615.72 181.89 615.74 181.87C615.76 181.86 615.78 181.85 615.81 181.84C615.83 181.84 615.86 181.83 615.88 181.83C615.91 181.82 615.93 181.82 615.96 181.82C616.15 181.82 616.33 181.81 616.53 181.8C616.53 181.8 616.53 181.8 616.53 181.8C616.53 181.8 616.53 181.8 616.53 181.8C616.53 181.8 616.53 181.8 616.53 181.8C616.53 181.8 616.53 181.8 616.53 181.8C616.54 181.8 616.54 181.8 616.55 181.8C616.55 181.8 616.55 181.8 616.56 181.8C616.56 181.8 616.57 181.8 616.57 181.8C616.57 181.8 616.58 181.8 616.58 181.8L616.63 181.8C617.84 180.96 618.71 180.25 619.12 179.79C619.15 179.71 619.19 179.6 619.19 179.68C619.19 179.46 619.3 179.29 619.41 179.2C619.51 179.1 619.62 179.04 619.73 178.99C619.96 178.88 620.23 178.81 620.56 178.73C621.22 178.59 622.12 178.47 623.19 178.38C623.19 178.38 623.19 178.38 623.19 178.38C623.19 178.38 623.19 178.38 623.19 178.38C623.19 178.38 623.19 178.38 623.19 178.38C623.19 178.38 623.19 178.38 623.19 178.38C623.22 178.38 623.25 178.38 623.3 178.37C624.04 178.31 624.82 178.26 625.71 178.23C626.8 178.18 627.99 178.14 629.27 178.15C631.69 178.17 633.27 178.2 634.45 178.26C635.79 177.83 637.31 177.45 639.38 177.18C639.38 177.18 639.38 177.18 639.38 177.18C639.38 177.18 639.38 177.18 639.38 177.18C639.38 177.18 639.38 177.18 639.38 177.18C639.38 177.18 639.38 177.18 639.38 177.18C639.52 177.17 639.56 177.18 639.66 177.18C639.74 177.18 639.83 177.19 639.9 177.19C639.96 177.18 640.01 177.17 640.09 177.16C640.09 177.16 640.09 177.16 640.09 177.16C640.09 177.16 640.09 177.16 640.09 177.16C640.09 177.16 640.09 177.16 640.09 177.16C640.09 177.16 640.09 177.16 640.09 177.16C640.42 177.12 640.72 177.14 641.24 177.17C641.77 177.2 642.47 177.25 643.33 177.31C645.05 177.42 647.43 177.59 650.32 177.73C650.32 177.73 650.32 177.73 650.32 177.73C650.32 177.73 650.32 177.73 650.32 177.73C650.32 177.73 650.32 177.73 650.32 177.73C650.32 177.73 650.32 177.73 650.32 177.73C650.3 177.73 650.31 177.73 650.37 177.73L650.33 177.73C651.04 177.71 651.79 177.69 652.51 177.66C653.66 177.63 654.68 177.59 655.86 177.56C657.9 177.5 660.09 177.42 662.2 177.36C662.28 177.33 662.35 177.28 662.45 177.26C662.63 177.21 662.85 177.17 663.13 177.13C663.96 177 664.91 176.94 665.88 176.92L665.89 176.92C667.63 176.82 669.5 176.87 670.88 177.09C675.79 176.91 680.66 176.72 685.29 176.52C685.29 176.52 685.29 176.52 685.29 176.52C685.29 176.52 685.29 176.52 685.29 176.52C685.29 176.52 685.29 176.52 685.29 176.52C685.29 176.52 685.29 176.52 685.29 176.52C685.55 176.51 685.83 176.5 686.08 176.49C695.69 176.08 704.07 175.63 708.87 175.26L722.27 174.23L722.24 174.24C722.85 174.15 723.48 174.1 724.1 174.09L726.4 173.91C726.42 173.91 726.45 173.91 726.47 173.91C726.49 173.91 726.51 173.91 726.53 173.92C726.55 173.92 726.57 173.93 726.59 173.94C726.62 173.94 726.64 173.95 726.65 173.96L726.56 173.91C726.58 173.91 726.6 173.91 726.62 173.92C726.64 173.92 726.66 173.92 726.68 173.93C726.7 173.93 726.72 173.94 726.74 173.95C726.76 173.96 726.78 173.96 726.79 173.97L726.72 173.93L727.24 173.89L727.39 173.87C727.39 173.87 727.4 173.87 727.4 173.87C727.41 173.87 727.41 173.87 727.41 173.87C727.42 173.87 727.42 173.87 727.42 173.87C727.43 173.87 727.43 173.87 727.43 173.87L727.43 173.87ZM670.84 177.09L670.94 177.1C670.92 177.09 670.9 177.09 670.88 177.09C670.87 177.09 670.85 177.09 670.84 177.09ZM524.81 223.5L524.88 223.43C524.87 223.44 524.86 223.45 524.84 223.46C524.83 223.47 524.82 223.49 524.81 223.5ZM524.95 226.07L524.87 225.98C524.89 226 524.9 226.02 524.91 226.03C524.92 226.05 524.94 226.06 524.95 226.07ZM810.43 220.62L810.32 220.61C810.34 220.62 810.36 220.62 810.37 220.62C810.39 220.62 810.41 220.62 810.43 220.62ZM819.65 195.27L819.93 195.3C819.87 195.27 819.8 195.25 819.74 195.24C819.65 195.25 819.62 195.27 819.65 195.27ZM726.43 174.89C726.42 174.89 726.41 174.89 726.39 174.88C726.38 174.88 726.37 174.88 726.36 174.88C726.34 174.88 726.33 174.87 726.32 174.87C726.31 174.87 726.29 174.86 726.28 174.86L726.34 174.89L724.18 175.06C724.17 175.06 724.17 175.06 724.17 175.06C724.17 175.06 724.16 175.06 724.16 175.06C724.16 175.06 724.15 175.06 724.15 175.06C724.15 175.06 724.15 175.06 724.14 175.06C723.56 175.06 722.96 175.11 722.38 175.19C722.37 175.19 722.37 175.2 722.37 175.2C722.37 175.2 722.36 175.2 722.36 175.2C722.36 175.2 722.35 175.2 722.35 175.2C722.35 175.2 722.35 175.2 722.34 175.2L708.95 176.23C704.11 176.6 695.73 177.05 686.12 177.46C685.86 177.47 685.59 177.48 685.33 177.49C680.69 177.69 675.81 177.88 670.88 178.06C670.87 178.06 670.86 178.06 670.85 178.06C670.85 178.06 670.84 178.06 670.83 178.06C670.82 178.06 670.81 178.06 670.81 178.06C670.8 178.05 670.79 178.05 670.78 178.05C669.51 177.84 667.64 177.78 665.93 177.88C665.93 177.88 665.93 177.88 665.93 177.88C665.93 177.88 665.93 177.88 665.93 177.88C665.93 177.88 665.92 177.88 665.92 177.88C665.92 177.88 665.92 177.88 665.92 177.88C664.97 177.91 664.04 177.97 663.28 178.09C663.01 178.13 662.81 178.17 662.68 178.2C662.55 178.23 662.47 178.29 662.55 178.23C662.53 178.25 662.51 178.26 662.48 178.27C662.46 178.28 662.44 178.29 662.42 178.3C662.39 178.31 662.37 178.32 662.34 178.32C662.32 178.32 662.3 178.33 662.27 178.33C660.14 178.39 657.94 178.47 655.89 178.53C654.71 178.56 653.7 178.6 652.54 178.63C651.81 178.66 651.07 178.68 650.36 178.7C650.35 178.7 650.35 178.7 650.35 178.7C650.34 178.7 650.34 178.7 650.34 178.7C650.33 178.7 650.33 178.7 650.33 178.7C650.33 178.7 650.32 178.7 650.32 178.7C650.34 178.7 650.33 178.7 650.27 178.7C647.37 178.55 644.99 178.39 643.27 178.28C642.4 178.22 641.7 178.17 641.19 178.14C640.66 178.11 640.4 178.1 640.22 178.12C640.15 178.13 640.09 178.14 639.99 178.16C639.99 178.16 639.98 178.16 639.97 178.16C639.97 178.16 639.96 178.16 639.95 178.16C639.95 178.16 639.94 178.16 639.93 178.16C639.93 178.16 639.92 178.16 639.91 178.16C639.83 178.16 639.72 178.15 639.63 178.15C639.55 178.15 639.44 178.15 639.48 178.15C637.44 178.41 635.95 178.79 634.64 179.21C634.63 179.22 634.62 179.22 634.6 179.22C634.59 179.23 634.57 179.23 634.56 179.23C634.54 179.23 634.53 179.23 634.51 179.23C634.5 179.23 634.48 179.23 634.47 179.23C633.32 179.17 631.71 179.14 629.27 179.12C628 179.11 626.84 179.15 625.76 179.2C625.75 179.2 625.75 179.2 625.75 179.2C625.75 179.2 625.75 179.2 625.75 179.2C625.75 179.2 625.75 179.2 625.75 179.2C625.75 179.2 625.75 179.2 625.75 179.2C624.87 179.23 624.11 179.28 623.38 179.34C623.38 179.34 623.38 179.34 623.38 179.34C623.38 179.34 623.38 179.34 623.38 179.34C623.38 179.34 623.38 179.34 623.38 179.34C623.38 179.34 623.38 179.34 623.38 179.34C623.35 179.34 623.31 179.34 623.26 179.35C622.23 179.44 621.35 179.55 620.77 179.68C620.47 179.75 620.25 179.82 620.14 179.87C620.1 179.88 620.08 179.9 620.08 179.9C620.03 180.06 619.99 180.22 619.91 180.35C619.91 180.35 619.91 180.36 619.9 180.36C619.9 180.37 619.9 180.37 619.89 180.38C619.89 180.38 619.88 180.39 619.88 180.39C619.88 180.4 619.87 180.4 619.87 180.41C619.33 181.02 618.4 181.76 617.08 182.68C617.06 182.69 617.04 182.71 617.02 182.72C617 182.73 616.98 182.74 616.95 182.74C616.93 182.75 616.91 182.76 616.88 182.76C616.86 182.76 616.84 182.77 616.81 182.77C616.81 182.77 616.8 182.77 616.79 182.77L616.9 182.65C616.88 182.67 616.86 182.69 616.83 182.7C616.81 182.72 616.78 182.73 616.76 182.74C616.73 182.75 616.7 182.76 616.68 182.76C616.65 182.77 616.62 182.77 616.59 182.77C616.43 182.78 616.27 182.78 616.11 182.79C611.2 186.39 603.26 190.64 595.69 194.02C591.88 195.73 588.17 197.21 585 198.27C581.84 199.33 579.25 199.98 577.54 199.98C576.45 199.98 574.29 200.31 571.8 200.85C569.31 201.39 566.46 202.13 563.86 202.95C558.9 204.52 556 205.23 552.54 205.3C552.54 205.3 552.53 205.3 552.53 205.3C552.53 205.3 552.53 205.3 552.53 205.3C552.53 205.3 552.53 205.3 552.53 205.3C552.53 205.3 552.52 205.3 552.52 205.3C550.3 205.28 547.79 205.01 544.26 204.55C541.32 204.16 538.59 203.86 536.56 203.68C535.55 203.58 534.7 203.52 534.1 203.49C533.8 203.48 533.57 203.47 533.4 203.48C533.4 203.48 533.4 203.48 533.4 203.48C533.4 203.48 533.4 203.48 533.4 203.48C533.4 203.48 533.4 203.48 533.4 203.48C533.4 203.48 533.4 203.48 533.4 203.48C533.28 203.48 533.21 203.48 533.18 203.49C533.18 203.49 533.18 203.49 533.18 203.49C533.18 203.49 533.18 203.49 533.18 203.49C533.17 203.49 533.17 203.49 533.17 203.49C533.17 203.49 533.17 203.49 533.17 203.49C533.13 203.5 533.12 203.5 533.1 203.5C533.09 203.5 533.08 203.5 533.07 203.51C533.07 203.51 533.06 203.51 533.05 203.51C533.04 203.51 533.03 203.51 533.02 203.51C533.01 203.51 533 203.51 532.99 203.51C532.94 203.51 532.91 203.51 532.87 203.51C532.89 203.59 532.9 203.63 532.94 203.73C533.12 204.17 533.41 204.81 533.78 205.56L533.78 205.56C533.8 205.58 533.8 205.6 533.81 205.6L533.81 205.61C534.37 206.79 535.22 208.37 536.21 210.06C537.13 211.64 537.97 213.14 538.62 214.35C538.62 214.35 538.62 214.35 538.62 214.36C538.62 214.36 538.62 214.36 538.62 214.36C538.62 214.36 538.62 214.36 538.62 214.36C538.62 214.36 538.62 214.36 538.62 214.36C538.87 214.86 539.09 215.3 539.24 215.65C539.32 215.82 539.39 215.97 539.43 216.1C539.48 216.23 539.52 216.31 539.52 216.51C539.52 216.7 539.45 216.8 539.39 216.89C539.33 216.97 539.27 217.03 539.2 217.09C539.07 217.21 538.9 217.32 538.7 217.46C538.28 217.72 537.71 218.03 537.01 218.39C535.61 219.1 533.69 219.96 531.58 220.82C528.24 222.18 526.2 223.38 525.53 224.14C525.53 224.15 525.52 224.15 525.52 224.16C525.51 224.16 525.51 224.17 525.5 224.18C525.49 224.18 525.49 224.19 525.48 224.19C525.47 224.2 525.47 224.2 525.46 224.21C525.1 224.48 524.92 224.62 524.75 224.75C524.97 224.88 525.25 225.05 525.58 225.33C525.59 225.34 525.6 225.34 525.6 225.35C525.61 225.36 525.62 225.37 525.62 225.37C525.63 225.38 525.64 225.39 525.64 225.4C525.65 225.4 525.66 225.41 525.66 225.42C525.82 225.64 526.1 225.81 526.53 225.95C527.39 226.24 528.79 226.4 530.76 226.4L530.79 226.4C530.8 226.4 530.8 226.4 530.8 226.4C531.8 226.27 532.69 226.17 533.59 226.05C533.61 226.05 533.62 226.05 533.63 226.05C533.64 226.05 533.65 226.05 533.66 226.05C533.67 226.05 533.69 226.05 533.7 226.05C533.71 226.05 533.72 226.06 533.73 226.06L535.67 226.38C535.67 226.38 535.67 226.38 535.67 226.38C535.67 226.38 535.67 226.38 535.67 226.38C535.67 226.38 535.67 226.38 535.67 226.38C535.67 226.38 535.67 226.38 535.67 226.38C538.54 226.85 543.74 227.33 548.33 227.72C550.63 227.91 552.76 228.08 554.38 228.22C555.18 228.29 555.85 228.35 556.35 228.4C556.35 228.4 556.35 228.4 556.35 228.4C556.35 228.4 556.35 228.4 556.35 228.4C556.35 228.4 556.35 228.4 556.35 228.4C556.35 228.4 556.35 228.4 556.35 228.4C556.87 228.45 557.12 228.46 557.37 228.47C555.8 227.37 554.5 226.42 553.63 225.02C553.59 224.95 553.57 224.87 553.56 224.79C553.56 224.71 553.57 224.63 553.61 224.55C553.65 224.48 553.7 224.41 553.77 224.37C553.83 224.32 553.91 224.29 553.99 224.28C555.99 224.05 557.62 223.63 561.11 222.17L561.12 222.17L561.11 222.16L561.11 222.16C560.78 221.77 560.59 221.27 560.6 220.75C560.6 220.23 560.77 219.69 561.06 219.11C561.66 217.92 562.84 216.64 564.45 215.4C567.68 212.94 572.67 210.73 578.4 210.13C578.41 210.13 578.42 210.13 578.43 210.13C578.44 210.12 578.46 210.12 578.47 210.13C578.48 210.13 578.49 210.13 578.5 210.13C578.51 210.13 578.53 210.13 578.54 210.13C578.54 210.13 578.54 210.13 578.55 210.13C578.55 210.13 578.55 210.13 578.55 210.13C578.55 210.13 578.56 210.13 578.56 210.13C578.56 210.13 578.56 210.13 578.56 210.14C578.56 210.14 578.56 210.14 578.56 210.14C596.72 213.82 613.64 208.18 634.37 198.99C634.39 198.99 634.4 198.98 634.42 198.98C634.43 198.97 634.45 198.97 634.46 198.96C634.48 198.96 634.49 198.96 634.51 198.96C634.53 198.96 634.54 198.95 634.56 198.95L676.62 198.18L718.51 197.41C718.55 197.41 718.58 197.41 718.62 197.42C718.65 197.43 718.69 197.44 718.72 197.45C718.75 197.46 718.78 197.48 718.81 197.5C718.84 197.52 718.86 197.55 718.89 197.57C719.99 198.82 721.1 200.08 722.21 201.33C732.77 203.4 744.13 201.23 753.55 201.04C753.55 201.04 753.55 201.04 753.55 201.04C753.55 201.04 753.55 201.04 753.55 201.04C753.55 201.04 753.55 201.04 753.55 201.04C753.55 201.04 753.55 201.04 753.55 201.04C761.86 200.95 770.68 203.02 787.98 213.67L787.99 213.68L788 213.68C789 213.31 789.87 213.02 790.69 212.75C790.75 212.74 790.81 212.73 790.87 212.73C790.94 212.74 791 212.75 791.05 212.78C791.11 212.81 791.16 212.85 791.2 212.89C791.24 212.94 791.27 212.99 791.3 213.05C791.48 213.58 791.6 214.08 791.6 214.56C791.6 214.57 791.6 214.58 791.6 214.59C791.6 214.59 791.6 214.6 791.6 214.61C791.59 214.62 791.59 214.62 791.59 214.63C791.59 214.64 791.59 214.65 791.59 214.65L790.65 219.56C790.73 219.68 790.8 219.79 790.9 219.86C790.98 219.92 791.1 220.04 791.21 220.13L806.28 219.89C807.54 219.85 808.93 219.77 810.34 219.65C810.35 219.65 810.36 219.65 810.37 219.65C810.38 219.65 810.39 219.65 810.4 219.65C810.41 219.65 810.42 219.65 810.43 219.65C810.44 219.65 810.44 219.65 810.45 219.65C810.33 219.63 810.38 219.63 810.56 219.65C812.02 219.82 813.69 219.91 815.68 219.89C815.68 219.89 815.68 219.89 815.68 219.89C815.68 219.89 815.68 219.89 815.68 219.89C815.68 219.89 815.68 219.89 815.68 219.89C815.68 219.89 815.68 219.89 815.69 219.89L820.71 218.62C823.02 218.04 824.52 217.42 825.34 216.75C825.39 216.7 825.42 216.68 825.39 216.71C825.39 216.7 825.4 216.7 825.41 216.69C825.41 216.69 825.42 216.68 825.43 216.68C825.43 216.67 825.44 216.67 825.44 216.67C825.45 216.66 825.46 216.66 825.46 216.65C825.48 216.65 825.48 216.65 825.48 216.65C825.57 216.59 825.63 216.55 825.67 216.52C825.68 216.5 825.71 216.43 825.75 216.32C825.76 216.31 825.76 216.29 825.77 216.28C825.77 216.27 825.78 216.26 825.78 216.25C825.79 216.24 825.79 216.23 825.8 216.22C825.81 216.21 825.81 216.2 825.82 216.19C825.99 215.92 826.04 215.59 825.95 215.32C825.83 215 825.58 214.72 825.15 214.41C824.31 213.81 822.85 213.23 820.77 212.68C817.41 211.81 815.09 211.06 813.7 210.36C812.99 210.01 812.56 209.68 812.31 209.33C812.22 209.2 812.11 209.06 812.1 208.83C812.09 208.6 812.18 208.44 812.25 208.32C812.26 208.32 812.26 208.31 812.26 208.3C812.27 208.3 812.27 208.29 812.28 208.29C812.28 208.28 812.29 208.27 812.29 208.27C812.3 208.26 812.3 208.25 812.31 208.25L812.59 207.92C812.6 207.91 812.6 207.91 812.6 207.91C812.6 207.91 812.6 207.91 812.6 207.9C812.61 207.9 812.61 207.9 812.61 207.9C812.61 207.9 812.61 207.89 812.62 207.89L812.65 207.86C812.65 207.86 812.65 207.86 812.65 207.86C812.65 207.86 812.65 207.85 812.66 207.85C812.66 207.85 812.66 207.85 812.66 207.85C812.66 207.85 812.66 207.85 812.66 207.85C812.96 207.57 813.36 207.31 813.9 207.02C815.41 206.21 817.37 203.84 818.83 201.5C819.56 200.33 820.16 199.16 820.5 198.22C820.67 197.74 820.76 197.34 820.79 197C820.81 196.65 820.77 196.4 820.61 196.24C820.55 196.18 820.53 196.18 820.37 196.17C820.26 196.15 820.14 196.16 819.98 196.18C820.03 196.17 819.95 196.2 819.81 196.22C819.78 196.23 819.76 196.23 819.74 196.23C819.71 196.23 819.69 196.23 819.67 196.23C819.64 196.22 819.62 196.22 819.6 196.21C819.57 196.2 819.55 196.2 819.53 196.19C819.59 196.22 819.39 196.17 819.11 196.22C818.82 196.27 818.43 196.38 817.98 196.53C817.08 196.84 815.92 197.34 814.72 197.96C811.71 199.52 807.28 200.32 802.3 200.47C802.3 200.47 802.3 200.47 802.3 200.47C802.3 200.47 802.3 200.47 802.3 200.47C802.3 200.47 802.3 200.47 802.29 200.47C802.29 200.47 802.29 200.47 802.29 200.47C801.66 200.48 801.02 200.48 800.37 200.47C794.34 200.36 787.74 199.31 782.07 197.37C777.09 195.66 768.79 192.89 763.61 191.23C763.6 191.22 763.6 191.22 763.59 191.22C763.59 191.22 763.58 191.21 763.57 191.21C763.57 191.21 763.56 191.21 763.55 191.2C763.55 191.2 763.54 191.2 763.54 191.19C763.54 191.19 763.53 191.19 763.53 191.19C760.14 190.2 757.42 189.43 754.57 188.6C754.57 188.59 754.56 188.59 754.56 188.59C754.55 188.59 754.55 188.59 754.54 188.59C754.54 188.58 754.53 188.58 754.53 188.58C754.52 188.58 754.52 188.58 754.51 188.57C748.54 185.99 741.32 182.55 736.96 180.15L727.33 174.86C727.33 174.86 727.33 174.86 727.33 174.85C727.33 174.85 727.33 174.85 727.33 174.85C727.33 174.85 727.33 174.85 727.33 174.85C727.33 174.85 727.33 174.85 727.33 174.85L726.65 174.91C726.63 174.91 726.61 174.91 726.6 174.91C726.58 174.91 726.57 174.91 726.55 174.91C726.54 174.91 726.52 174.91 726.51 174.9C726.49 174.9 726.48 174.9 726.46 174.89L726.47 174.89C726.47 174.89 726.47 174.89 726.47 174.89C726.47 174.89 726.47 174.89 726.46 174.89C726.46 174.89 726.46 174.89 726.46 174.89C726.46 174.89 726.46 174.89 726.46 174.89C726.45 174.89 726.44 174.88 726.43 174.88C726.43 174.88 726.42 174.87 726.41 174.87C726.4 174.87 726.4 174.86 726.39 174.86C726.38 174.86 726.38 174.85 726.37 174.85L726.43 174.89ZM819.53 196.19C819.53 196.19 819.53 196.19 819.53 196.19C819.53 196.19 819.53 196.19 819.53 196.19ZM819.97 196.18C819.97 196.18 819.97 196.18 819.98 196.18C819.97 196.18 819.97 196.18 819.97 196.18ZM825.72 216.48C825.72 216.48 825.72 216.48 825.72 216.48C825.72 216.48 825.72 216.48 825.72 216.48ZM810.45 219.65C810.45 219.65 810.45 219.65 810.45 219.65C810.45 219.65 810.45 219.65 810.45 219.65ZM620.08 179.9C620.07 179.91 620.07 179.91 620.08 179.9C620.08 179.9 620.08 179.9 620.08 179.9ZM639.49 178.14C639.49 178.15 639.48 178.15 639.48 178.15C639.48 178.15 639.49 178.15 639.49 178.14ZM825.67 216.52C825.67 216.53 825.68 216.52 825.72 216.48C825.71 216.49 825.69 216.5 825.67 216.52Z" /></g><path class="shp16" d="M670.33 443.93C662.19 436.56 645.44 429.76 626.68 426.22C587.74 418.87 571.91 409.61 557.06 385.46C554 380.48 551.18 376.39 550.8 376.38C550.41 376.37 549.16 378.39 548.01 380.86C545.53 386.2 541.64 387.15 535.41 383.92C531.16 381.73 531 381.34 531.63 374.77C532.43 366.42 535.59 362.62 542.68 361.48C548.79 360.51 548.89 360.08 546.44 345.79C543.85 330.7 538.93 323.4 531.35 323.4C527.41 323.4 526.34 319.93 529.02 315.83C532.31 310.83 536.15 310.19 541.84 313.71C544.55 315.38 547.2 316.31 547.74 315.78C548.27 315.25 548.67 307.19 548.62 297.87C548.56 283.59 548.07 279.87 545.52 274.19C543.72 270.19 541.35 267.16 539.68 266.72C536.33 265.84 536.01 261.8 539.06 258.75C540.26 257.55 541.55 256.56 541.91 256.56C543.78 256.56 550.8 260.99 550.8 262.17C550.8 262.92 551.46 263.53 552.27 263.53C553.24 263.53 553.42 261.25 552.79 256.91C551.12 245.38 548.13 242.69 543.14 248.21C534.8 257.43 522.2 242.32 529.97 232.44C532.88 228.74 533.61 228.53 541.94 228.96L550.8 229.41L550.8 220.65C550.79 209.83 553.7 206.31 565.41 202.9C573.72 200.49 575.9 200.61 588.39 204.2C598.46 207.1 603.1 206.97 610.62 203.56C617.67 200.36 628.76 198.43 628.76 200.4C628.76 202.39 618.85 211.44 614.14 213.76C611.85 214.89 607.69 216.23 604.9 216.73C600.41 217.54 599.71 218.24 598.88 222.7C597.78 228.52 591.82 235.12 586.41 236.47C581.28 237.76 580.59 236.48 584.05 232.08C587.74 227.39 587.81 221.78 584.23 217.23C580.58 212.59 575.61 211.49 569.6 214C564.4 216.18 563.4 218.93 566.81 221.76C569.32 223.84 569.54 228.91 567.22 231.22C566.31 232.14 563.43 232.9 560.84 232.9C558.25 232.9 556.37 233.37 556.67 233.94C563.3 246.89 563.66 248.48 562.77 261.3C562.29 268.27 561.51 290.9 561.05 311.59L560.21 349.22L564.58 362.85C570.49 381.32 581.43 395.57 595.17 402.71C602.14 406.33 618.11 411.02 626.39 411.88C641.5 413.45 657.5 419.33 669.95 427.89L676.4 432.33L689.83 426.02C706.83 418.03 713.1 415.85 726.92 413.11C752.56 408.03 773 392.63 781.64 371.88C784.04 366.11 786.73 356.76 787.62 351.1C789.52 339.01 788.51 315.29 785.23 294.85C781.81 273.52 781.15 244.6 783.87 235.23C786.83 225.05 786.75 224.54 782.02 224.54C778.09 224.54 773.56 221.52 773.56 218.91C773.56 218.21 775.17 216.59 777.13 215.3C780.63 213.02 780.65 212.91 778.1 210.35C776.66 208.92 773.3 207.39 770.62 206.96C760.66 205.34 752.73 217.67 759.16 224.78C761.36 227.21 761.2 227.33 755.68 227.33C747.34 227.33 743.72 223.39 744.8 215.5L745.62 209.57L738.49 208.63C730.06 207.51 725.4 205.29 720.66 200.14L717.18 196.36L729.01 197.26C735.52 197.75 744.13 198.51 748.14 198.95C753.09 199.49 757.85 198.99 762.96 197.38C769.92 195.19 771.04 195.18 778.16 197.25C788.27 200.19 793.06 205.64 793.06 214.21L793.06 220.36L802.21 220.36C810.48 220.36 811.77 220.76 815.44 224.43C818.41 227.41 819.51 229.84 819.51 233.46C819.51 237.73 818.71 238.96 813.8 242.2C808.49 245.72 807.83 245.84 804.4 243.93C802.37 242.81 799.67 239.81 798.39 237.27L796.07 232.64L793.96 235.9C792.8 237.69 791.43 240.88 790.91 242.99C790.01 246.64 790.2 246.82 795.08 246.82C797.9 246.82 801.41 247.47 802.89 248.26C805.98 249.91 806.56 255.17 803.66 255.17C802.6 255.17 800.59 256.9 799.2 259C795.95 263.91 796.2 277.55 799.76 289.28L802.29 297.64L808.01 297.18C812.35 296.83 814.42 297.42 816.62 299.62C820.49 303.5 820.52 309.47 816.66 309.47C812.23 309.47 806.29 313.09 804.59 316.81C802.23 322 800.98 335.09 802.05 343.58C802.88 350.3 803.38 351.24 806.12 351.24C807.83 351.24 810.6 352.51 812.27 354.06C821.24 362.42 815.21 377.69 802.94 377.69C797.71 377.69 797.07 378.17 792.13 385.7C780.43 403.56 762.32 416.41 741.54 421.6C709.94 429.49 691.03 436.93 682.11 444.99L676.8 449.79L670.33 443.93L670.33 443.93ZM604.34 175.18C602.18 173.02 600.92 170.17 600.92 167.46C600.92 160.63 606.23 156.32 614.63 156.32C620.72 156.32 622 156.87 625.69 161.07C630.16 166.16 633.7 174.85 632.26 177.18C631.78 177.96 628.65 178.6 625.31 178.6C619.69 178.6 619.17 178.28 618.32 174.4L617.39 170.2L613.47 174.4C611.31 176.71 609.14 178.6 608.65 178.6C608.16 178.6 606.22 177.06 604.34 175.18L604.34 175.18ZM713.12 169.2C715.04 158.59 721.73 150.74 728.85 150.76C733.15 150.76 741.28 155.4 742.48 158.54C742.95 159.76 742.31 162.88 741.06 165.5C739.24 169.32 738 170.24 734.68 170.24C732.11 170.24 729.81 169.17 728.57 167.39C726.82 164.9 726.46 164.83 725.7 166.81C725.22 168.06 724.83 170.28 724.83 171.75C724.83 173.99 723.81 174.42 718.5 174.42L712.18 174.42L713.12 169.2Z" /></g><g clip-path="url(#cp1)"><g ><g ><path class="shp0" d="M0 0L450 0L450 300L0 300L0 0Z" /><path fill-rule="evenodd" class="shp17" d="M0 0L450 300M450 0L0 300" /><path class="shp18" d="M225 0L225 300" /><path class="shp18" d="M0 150L450 150" /><path class="shp19" d="M225 0L225 300" /><path class="shp19" d="M0 150L450 150" /></g></g></g></svg>