<svg version="1.2" xmlns="http://www.w3.org/2000/svg" viewBox="0 0 900 600" width="900" height="600">
	<title></title>
	<defs>
		<clipPath clipPathUnits="userSpaceOnUse" id="cp1">
			<path d="m654.07 316.54c4.41-0.8 8.65-21.51 8.65-21.51 0 0 3.23-1.92 4.98-0.62 1.76 1.3 1.47 6.34 1.59 8.88 0.11 2.55 0.85 4.02 1.07 5.27 0.23 1.24-1.58 5.99-1.36 8.14 0.23 2.15-1.69 10.25-1.86 12.06-0.17 1.81 0 4.81-1.25 4.75-1.24-0.06-19.12 0.11-21.33-0.91-2.21-1.01-2.77-2.77-5.38-5.48 0-7.19 10.47-9.79 14.89-10.58z"/>
		</clipPath>
	</defs>
	<style>
		.s0 { fill: #00247d } 
		.s1 { fill: none;stroke: #ffffff;stroke-width: 52 } 
		.s2 { fill: none;stroke: #ffffff;stroke-width: 86.7 } 
		.s3 { fill: none;stroke: #cf142b;stroke-width: 52 } 
		.s4 { fill: #ffffff } 
		.s5 { opacity: .3;fill: #ff784b } 
		.s6 { fill: #cc9933 } 
		.s7 { fill: #92702f;stroke: #000000;stroke-linecap: round;stroke-width: 1 } 
		.s8 { fill: #91c43b } 
		.s9 { fill: #000000 } 
		.s10 { fill: #8dc0c0 } 
		.s11 { fill: #6b918e } 
		.s12 { fill: #7daeae } 
		.s13 { fill: #84b648 } 
		.s14 { fill: #e59718 } 
		.s15 { fill: #a7d852 } 
		.s16 { fill: #e8a015 } 
		.s17 { fill: #e49419 } 
		.s18 { fill: #8ec13b } 
		.s19 { fill: #83b646 } 
		.s20 { fill: #7aad4f } 
		.s21 { fill: none;stroke: #000000;stroke-linecap: round;stroke-width: 1 } 
		.s22 { fill: #6a9233 } 
		.s23 { fill: none;stroke: #000000;stroke-linecap: round;stroke-width: 1.3 } 
		.s24 { fill: #ef7112 } 
		.s25 { fill: none;stroke: #f5e07d;stroke-linecap: round;stroke-width: 2.9 } 
		.s26 { fill: #653301;stroke: #000000;stroke-linecap: round;stroke-width: 1 } 
		.s27 { fill: #cc0000 } 
		.s28 { fill: #000000;stroke: #000000;stroke-width: 1.3 } 
		.s29 { fill: #653301;stroke: #000000;stroke-width: .6 } 
		.s30 { fill: #6a8f33;stroke: #000000;stroke-linecap: round;stroke-width: 1 } 
		.s31 { fill: #ff784b } 
	</style>
	<g id="Layer">
		<path id="Layer" class="s0" d="m0 0h450v300h-450z"/>
		<g id="Layer">
			<path id="Layer" class="s1" d="m0 0l450 300m0-300l-450 300"/>
			<path id="Layer" class="s2" d="m225 0v300m-225-150h450"/>
			<path id="Layer" class="s3" d="m225 0v300m-225-150h450"/>
		</g>
		<path id="Layer" class="s0" d="m0 300h900v300h-900zm450-300h450v600h-450z"/>
	</g>
	<circle id="Layer" class="s4" cx="674.8" cy="300" r="134.6"/>
	<g id="Layer">
		<path id="Layer" fill-rule="evenodd" class="s4" d="m585 354.8c3 0 6.8 1.7 11.6 4.3 4.8 2.6 10.6 6.2 17.8 9.7 14.3 7.1 33.4 14.1 61.8 14.1 28.3 0 47.5-7 61.8-14.1 7.2-3.5 13-7.1 17.7-9.7 4.8-2.6 8.6-4.3 11.7-4.3 1.5 0 2.5 0.3 3.2 0.9 0.7 0.6 1.2 1.3 1.4 2.2 0.5 1.8 0.3 4.1 0.3 5.5 0 2.4 1.7 4.4 3.2 6.3 1.6 1.9 3 3.8 3 5.7 0 2.1-0.9 3.3-1.8 4-0.4 0.4-0.5 0.3-0.8 0.5 0.2-0.9 0.5-1.8 0.4-2.5-0.1-1.1-0.7-1.9-1.5-2.4-1.6-0.8-4.5-0.6-6.5 0.8-4.9 2.9-41.2 25.2-92.1 25.2-50.9 0-87.2-22.3-92.1-25.2-2-1.4-4.9-1.6-6.5-0.8-0.8 0.5-1.4 1.3-1.6 2.4-0.1 0.7 0.3 1.6 0.5 2.5-0.4-0.2-0.4-0.1-0.8-0.5-1-0.7-1.8-1.9-1.8-4 0-1.9 1.4-3.8 2.9-5.7 1.6-1.9 3.3-3.9 3.3-6.3 0-1.4-0.3-3.7 0.3-5.5 0.2-0.9 0.6-1.6 1.3-2.2 0.7-0.6 1.7-0.9 3.3-0.9z"/>
		<path id="Layer" fill-rule="evenodd" class="s5" d="m767.4 354.8c1.6 0 2.6 0.3 3.3 0.9 0.7 0.6 1.1 1.3 1.3 2.2 0.6 1.9 0.3 4.1 0.3 5.5 0 2.4 1.7 4.4 3.3 6.3 1.5 1.9 2.9 3.8 2.9 5.7 0 2.1-0.9 3.3-1.8 4-0.4 0.4-0.5 0.3-0.8 0.5 0.2-0.9 0.6-1.8 0.5-2.5-0.2-1.1-0.8-1.9-1.6-2.3-1.6-0.9-4.5-0.7-6.5 0.7-1.5 0.9-6.4 3.9-13.9 7.4-5.3-5.3-9.5-10.8-11.5-16.9 5-2.7 9.2-5.2 12.9-7.2 4.8-2.6 8.6-4.3 11.6-4.3zm5.5 21.1q0.8 0 1.3 0.3c0.5 0.2 0.8 0.6 0.9 1.4q0.1 0.5 0 1.3 0 0 0 0.1c-0.9 5.1-11.7 7.5-16.8 6.8q-0.9-0.1-1.5-0.1-0.2-0.2-0.4-0.4c7.6-4 12.2-7.3 13.4-8.2 1.1-0.8 2.2-1.1 3.1-1.2zm-176.3-16.8c3.7 2 7.9 4.5 12.9 7.2-1.9 6.1-6.2 11.6-11.4 16.9-7.6-3.5-12.4-6.5-14-7.4-2-1.4-4.9-1.6-6.5-0.7-0.8 0.4-1.4 1.2-1.5 2.3-0.1 0.7 0.2 1.6 0.4 2.5-0.3-0.2-0.4-0.1-0.8-0.5-0.9-0.7-1.8-1.9-1.8-4 0-1.9 1.4-3.8 3-5.7 1.5-1.9 3.2-3.9 3.2-6.3 0-1.4-0.2-3.6 0.3-5.5 0.2-0.9 0.7-1.6 1.4-2.2 0.7-0.6 1.7-0.9 3.2-0.9 3 0 6.8 1.7 11.6 4.3zm-14 18c1.2 0.9 5.8 4.2 13.4 8.2q-0.2 0.2-0.4 0.4-0.6 0-1.5 0.1c-5.1 0.7-15.9-1.7-16.7-6.8q0-0.1 0-0.1-0.2-0.8-0.1-1.3c0.1-0.8 0.4-1.2 0.9-1.4q0.5-0.3 1.4-0.3c0.9 0.1 2 0.4 3 1.2z"/>
		<g id="Layer">
			<path id="Layer" fill-rule="evenodd" class="s4" d="m676.2 255.9v120.4c-39.8-14.2-68.6-42.1-68.6-66.9v-53.5z"/>
			<path id="Layer" fill-rule="evenodd" class="s6" d="m744.8 255.9v53.5c0 24.8-28.7 52.7-68.6 66.9v-120.4z"/>
			<path id="Layer" fill-rule="evenodd" class="s7" d="m707.1 343.3c0-4.7 1.1-44.1 0.3-48.2-0.8-4.2-2.2-18.7-2.2-18.7l2.2 1.7c0 0 3.1 16.8 3.4 20.3 0.3 3.6 0.3 45 0.3 45z"/>
			<path id="Layer" fill-rule="evenodd" class="s8" d="m723.1 343.7c1.2 0.3 2.3 1.2 3.3 2.2-12.2 12.2-29.7 23.1-50.1 30.4v-18.8c3.5-0.2 10.6-5 13.6-6.5 3-1.4 6.6-3.9 10.6-4.7 4-0.8 4.5-2.7 7.8-3.5 1.2-0.3 2.8-0.5 4.6-0.6 2.9-0.1 6.5 0.3 10.2 1.5z"/>
			<path id="Layer" fill-rule="evenodd" class="s9" d="m628.6 287.1l0.9-0.1 0.7-1.2 0.4 1.5 2.5 0.5c0 0 0.5-2.1 0.5-2.4 0-0.3 0.4 0.7 0.4 0.7l1.6 1.3-0.1 2.8-1.2 0.8-0.7 1.8 1.1-0.5c0 0 1.7-1.5 1.8-1.2 0.1 0.3-1.9 2.3-1.9 2.3l1 1.2c0 0 2.4-1.3 2.6-1.2 0.3 0 3.1 0.1 3.1 0.1l-4.9 4.6c-3.2 2.9-8.8 0-9.8 0-0.9 0-2.3-3.1-2.3-3.1v-0.9l3.6-0.2-3.5-1.2v-0.2l1.5-0.2-0.1-1-1-1.1 1.1 0.3v-1.6l-1.3-1.5 3.2-2.7zm-0.3 2h1l-0.5-0.8zm2.5 2.2h0.9l-0.4-0.8zm-3.5 0.1h0.5l-0.3-0.4zm2.4 2.3l0.7 0.1-0.2-0.6z"/>
			<path id="Layer" fill-rule="evenodd" class="s10" d="m676.3 298.1v78.2c-39.9-14.2-68.6-42.1-68.6-66.9v-11.3z"/>
		</g>
		<g id="Layer">
			<path id="Layer" fill-rule="evenodd" class="s11" d="m632.1 298.1c5.3 0.1 9.1 0.3 9.1 0.5 0 0.3-8.9 0.5-19.8 0.5-5.4 0-10.2-0.1-13.8-0.2v-0.7c0.9 0 2.1-0.1 3.1-0.1zm-4 5.7c-10.9 0-19.8 0.2-19.8 0.5 0 0.3 8.9 0.6 19.8 0.6 11 0 19.9-0.3 19.9-0.6 0-0.3-8.9-0.5-19.9-0.5zm10.9 6.2c-10.9 0-19.8 0.3-19.8 0.6 0 0.3 8.9 0.5 19.8 0.5 11 0 19.9-0.2 19.9-0.5 0-0.3-8.9-0.6-19.9-0.6zm37.3 2.3c-10.6 0-19 0.2-19 0.5 0 0.3 8.4 0.5 19 0.5zm-45.4 1.1c-11 0-19.9 0.3-19.9 0.6 0 0.3 8.9 0.5 19.9 0.5 10.9 0 19.8-0.2 19.8-0.5 0-0.3-8.9-0.6-19.8-0.6zm38.2 2.9c-10.9 0-19.8 0.3-19.8 0.6 0 0.3 8.9 0.5 19.8 0.5q3.8 0 7.2-0.1v-0.9q-3.4-0.1-7.2-0.1zm-46.9 0.3c-5.3 0-10.1 0.1-13.7 0.2q0.1 0.4 0.2 0.8c3.5 0.1 8.3 0.1 13.5 0.1 11 0 19.9-0.2 19.9-0.5 0-0.3-8.9-0.6-19.9-0.6zm33.8 2c-11 0-19.9 0.2-19.9 0.5 0 0.3 8.9 0.5 19.9 0.5 10.9 0 19.8-0.2 19.8-0.5 0-0.3-8.9-0.5-19.8-0.5zm19.5 2.4c-10.9 0-19.8 0.2-19.8 0.5 0 0.3 8.9 0.5 19.8 0.5 0.3 0 0.5 0 0.8 0v-1c-0.3 0-0.5 0-0.8 0zm-44.3 0.3c-10.9 0-19.8 0.3-19.8 0.6 0 0.3 8.9 0.5 19.8 0.5 11 0 19.9-0.2 19.9-0.5 0-0.3-8.9-0.6-19.9-0.6zm45.1 1.1c-9.5 0.1-16.8 0.3-16.8 0.5 0 0.3 7.3 0.5 16.8 0.6zm-15.3 1.7c-11 0-19.9 0.3-19.9 0.6q0.1 0 0.1 0c-2.4-0.1-5.1-0.1-7.9-0.1-10.9 0-19.8 0.3-19.8 0.6 0 0.3 8.9 0.5 19.8 0.5 11 0 19.9-0.2 19.9-0.5q0 0 0 0c2.4 0 5 0 7.8 0 6.3 0 11.6-0.1 15.3-0.2v-0.7c-3.7-0.1-9-0.2-15.3-0.2z"/>
			<path id="Layer" fill-rule="evenodd" class="s12" d="m642 300.7q-0.1 0-0.1 0c2.4 0 5.1-0.1 7.9-0.1 10.9 0 19.8 0.3 19.8 0.6 0 0.3-8.9 0.5-19.8 0.5-11 0-19.9-0.2-19.9-0.5q0 0 0 0c-2.4 0-5 0-7.8 0-5.8 0-10.9-0.1-14.5-0.2v-0.7c3.6-0.1 8.7-0.2 14.5-0.2 11 0 19.9 0.3 19.9 0.6zm34.2 1.8v0.9q-3.7 0.1-8.1 0.1c-10.9 0-19.8-0.2-19.8-0.5 0-0.3 8.9-0.6 19.8-0.6q4.4 0 8.1 0.1zm-36.3 1.5c0 0.3-8.9 0.6-19.9 0.6-4.8 0-9-0.1-12.4-0.2v-0.8c3.4 0 7.6-0.1 12.4-0.1 11 0 19.9 0.2 19.9 0.5zm36.3 0v0.8c-3.3 0.1-7.3 0.1-11.9 0.1-11 0-19.8-0.2-19.8-0.5 0-0.3 8.8-0.5 19.8-0.5 4.6 0 8.6 0 11.9 0.1zm-11.6 2.8c0 0.3-8.9 0.5-19.8 0.5-11 0-19.9-0.2-19.9-0.5 0-0.3 8.9-0.5 19.9-0.5 10.9 0 19.8 0.2 19.8 0.5zm-33.7 1.9c0 0.3-8.9 0.6-19.9 0.6-1.2 0-2.2-0.1-3.4-0.1v-1c1.2 0 2.2 0 3.4 0 11 0 19.9 0.2 19.9 0.5zm45.3 0.1v0.5c-3 0.1-10.1 0.3-18.3 0.3-11 0-19.8-0.3-19.8-0.6 0-0.2 8.8-0.5 19.8-0.5 8.2 0 15.3 0.2 18.3 0.3zm-36.7 3.1c0 0.3-8.9 0.6-19.9 0.6-4.5 0-8.5-0.1-11.8-0.2q-0.1-0.4-0.1-0.8c3.3-0.1 7.4-0.1 11.9-0.1 11 0 19.9 0.2 19.9 0.5zm36.7 0.7v0.9c-3 0-6.4 0.1-10.3 0.1-11 0-19.8-0.3-19.8-0.6 0-0.2 8.8-0.5 19.8-0.5 3.9 0 7.3 0.1 10.3 0.1zm-28.5 2.7c0 0.3-8.9 0.5-19.9 0.5-10.3 0-18.7-0.2-19.6-0.5q-0.1 0-0.1-0.1c1-0.2 9.4-0.4 19.7-0.4 11 0 19.9 0.2 19.9 0.5zm-10.9 6.2c0 0.3-8.9 0.6-19.9 0.6q-3.7 0-6.9-0.1-0.2-0.5-0.4-1 3.4 0 7.3 0c11 0 19.9 0.2 19.9 0.5zm-6.8 5.8c0 0.3-7.7 0.5-17.5 0.5q-0.3-0.5-0.5-1c10.1 0 18 0.2 18 0.5z"/>
		</g>
		<path id="Layer" fill-rule="evenodd" class="s13" d="m676.2 376.3c-28.4-10.1-51.2-27.2-61.9-45.2 14.5-8.5 11.2-6.3 31.5-7.5 10.9-0.7 19.7-0.9 25.7-0.9 3.1 0 3.1-0.1 4.7-0.1z"/>
		<path id="Layer" fill-rule="evenodd" class="s14" d="m648.4 337.3c2.1 2.9 2.1 7 7.8 7.8 5.6 0.8 7.8 5.2 11.9 9.9 1.9 2.2 5.2 3.7 8.1 4.6v16.7c-24.6-8.8-44.9-22.7-56.9-38 9-3.9 17.9-8.3 23-14.6 1.2 0 2.2-0.1 3.5-0.1 2.2-0.2 4.2-0.3 6.2-0.4-2.5 4.7-5.4 11.7-3.6 14.1z"/>
		<g id="Layer">
			<path id="Layer" class="s15" d="m656.7 344.4c0-0.5 0.4-0.8 0.9-0.8 0.4 0 0.8 0.3 0.8 0.8 0 0.5-0.4 0.9-0.8 0.9-0.5 0-0.9-0.4-0.9-0.9zm-36.3-9.1c-0.8-0.9-1.5-2-1.5-2.5 0-0.5-0.4-1-0.8-1-0.5 0-0.9-0.6-0.9-1.2 0-0.7 0.6-1.3 1.3-1.3 0.7 0 1.3-0.4 1.3-0.8 0-0.5 1-0.9 2.3-0.9 1.3 0 4.8-0.7 7.9-1.6 4.5-1.3 5.5-1.4 5.2-0.4-0.3 0.6-0.8 1.2-1.1 1.2-1.1 0-5.1 3.8-5.1 4.8 0 0.6-0.4 1.1-0.8 1.1-0.5 0-0.9 0.9-0.9 2.1 0 1.8-0.3 2-2.7 2-1.5 0-3.4-0.7-4.2-1.5z"/>
			<path id="Layer" fill-rule="evenodd" class="s16" d="m673.7 372.7q0.6-1.4-0.7-1.4c-0.7 0-1.2-0.8-1.2-2.1 0-1.2 0.4-2.1 0.9-2.1 0.4 0 0.8 0.5 0.8 1.2 0 0.6 0.5 1.7 1.1 2.3 1 1 1 1.3-0.1 2.4-1.2 1-1.3 1-0.8-0.3zm-5-2c-0.9-2.3-3.4-4.7-4.3-4.1-0.5 0.3-1.4-0.1-2.1-0.8-0.7-0.7-1.7-1.2-2.2-1.2-0.5 0-0.9-0.8-0.9-1.7 0-0.9 0.4-1.7 0.9-1.7 0.4 0 0.8 0.6 0.8 1.3 0 0.7 0.7 1.2 1.7 1.2 0.9 0 1.7-0.4 1.7-0.8 0-0.5-0.6-0.9-1.3-0.9-1.1 0-1.1-0.2-0.3-1.1 0.8-0.8 1.2-0.9 1.5-0.3 0.8 2.4 4.3 4.2 4.3 2.3 0-0.5 0.5-0.9 1.2-0.9 0.6 0 1.6-0.6 2.1-1.4 0.7-1.2 1-1.3 1.6-0.3 0.6 0.9 0.8 0.9 1.1 0 0.3-0.7 0.8-0.9 1.2-0.5 0.4 0.4 0.3 0.9-0.2 1.2-0.5 0.4-1.1 1.2-1.4 1.9-0.4 1-0.5 0.9-0.5-0.2-0.1-1.7-1.4-2-2.3-0.6-0.3 0.5 0.7 2 2.1 3.3 2.5 2.4 3.4 4.2 1.9 4.2-0.4 0-1-0.7-1.2-1.7-0.3-0.9-1.1-1.7-1.8-1.7-0.7 0-1.3-0.5-1.3-1.2 0-1.4-0.4-1.5-3.2-0.7-2.1 0.5-2.5 1.9-0.6 1.9 0.7 0 1.3 0.6 1.3 1.3 0 0.7 0.5 1.3 1.2 1.3 0.7 0 1.3 0.7 1.3 1.6 0 2.1-1.6 2.3-2.3 0.3zm-5.9-1.7c-1.2-0.4-1.4-1.9-0.3-1.9 0.4 0 1 0.6 1.2 1.2 0.3 0.7 0.4 1.3 0.3 1.2-0.1 0-0.6-0.2-1.2-0.5zm-3.6-1.5c0-0.7 0.4-1.3 0.9-1.3 0.4 0 0.8 0.6 0.8 1.3 0 0.7-0.4 1.3-0.8 1.3-0.5 0-0.9-0.6-0.9-1.3zm-8.4-4.5c0-0.4 0.6-1 1.2-1.2q1.3-0.5 0.8 0.7c-0.5 1.3-2 1.7-2 0.5zm-2.5-2.6c0-1-0.6-1.7-1.3-1.7-0.7 0-1.2-0.5-1.2-1.2 0-0.7-1.1-1.4-2.5-1.7-1.3-0.3-2.6-1.1-2.9-1.8-0.2-0.6-1.4-1.2-2.6-1.2-2.2 0-5.5-2.3-5.4-3.7 0-0.5 0.3-0.3 0.8 0.4 0.5 0.8 2.1 1.2 5.2 1.1 2.4 0 3.9 0.1 3.4 0.3-1.5 0.5-1.3 1.9 0.2 1.9 0.7 0 1.3 0.6 1.3 1.3 0 0.7 0.5 1.2 1.2 1.2 0.7 0 1.3-0.3 1.3-0.8 0-0.5 0.6-0.9 1.3-0.9 1 0 1.2-0.5 0.8-2.5-0.5-2-0.3-2.5 1-2.6 0.8 0 1-0.2 0.4-0.4-1.4-0.6-1.3-2 0.3-2 1 0 1.1 0.7 0.7 3.6-0.3 1.9-0.9 3.7-1.3 3.8-0.4 0.2-0.7 0.6-0.7 1.1 0 1.1 2.3 0.9 2.8-0.3 0.3-0.8 0.6-0.8 1.3 0.2 0.5 0.7 0.9 1.6 0.9 2.1 0 0.5-0.3 0.3-0.7-0.3-1.1-1.8-2.5-0.4-2.4 2.3 0 2.2 0.2 2.3 1.2 1.3 0.7-0.7 2.1-1.1 3.1-0.8 1 0.2 1.3 0.2 0.7-0.1-0.6-0.2-1-1.2-1-2.1 0-0.8-0.8-2.3-1.7-3.3-1.8-1.8-2.2-3.3-0.8-3.3 0.4 0 0.8-1 0.8-2.1 0-1.2 0.4-2.1 0.8-2.1 0.5 0 0.9-0.6 0.9-1.3 0-1.6 1.3-1.6 2 0.1 0.8 2.2 0.6 2.9-1.1 2.9-1 0-1.8 0.8-2.1 2.1-0.8 3 0.1 4 3.2 3.5 1.4-0.3 2.1-0.3 1.5 0-1.3 0.5-1.3 2.6 0.1 4 0.9 0.9 1.1 0.7 1.1-1.2 0-1.3 0.6-3 1.3-3.7 1.2-1.2 1.3-1.1 1.3 0.8 0 1.2-0.5 2-1.1 2-1.5 0-1.5 1.4-0.1 2 1.4 0.6-1 2.2-2.5 1.6-0.7-0.2-1.1 0.2-1.1 1.4 0 2-2.3 2.4-3.1 0.5-0.4-1.1-0.6-1.1-1.7 0-1.7 1.8-3.6 1.5-3.6-0.4zm-0.4-4.2c-0.3-0.5-1-0.9-1.5-0.9-0.6 0-0.5 0.4 0.2 0.9 1.6 1 1.9 1 1.3 0zm18.5 5.1c-0.3-0.5-0.3-1.8 0-2.9 0.5-1.8 0.3-2.1-1.2-1.7-1 0.3-1.8 0.8-1.8 1.2 0 0.5-0.4 0.8-0.8 0.8-0.5 0-0.9-0.8-0.9-1.7 0-1.3 0.5-1.6 1.9-1.4 1.1 0.2 1.4 0.2 0.9 0-0.7-0.3-0.9-1.2-0.6-2.5 0.5-1.6 0.2-2.2-1.2-2.5-2.1-0.6-2.4-2-0.5-2 0.6 0 1.2 0.4 1.2 0.9 0 0.4 0.5 0.8 1.2 0.8 0.7 0 1.4 1.3 1.7 3 0.4 2 1 2.9 1.6 2.6 0.6-0.2 1.7-0.1 2.3 0.3 1 0.6 0.9 0.8-0.3 0.8-0.8 0-1.4 0.6-1.4 1.2 0 0.8 0.4 1.1 1.2 0.8 0.8-0.3 1.3 0 1.3 0.9 0 0.7-0.4 1.3-0.8 1.3-0.4 0-1.3 0.2-2 0.5-0.7 0.2-1.5 0.1-1.8-0.4zm5.4-3.5c0-0.4 0.4-0.8 0.9-0.8 0.4 0 0.8 0.4 0.8 0.8 0 0.5-0.4 0.9-0.8 0.9-0.5 0-0.9-0.4-0.9-0.9zm-33.6-3.3c0-0.5 0.4-0.9 0.9-0.9 0.4 0 0.8 0.4 0.8 0.9 0 0.5-0.4 0.8-0.8 0.8-0.5 0-0.9-0.3-0.9-0.8zm-3-6.3c-0.3-1.2-0.3-2.4 0-2.7 0.3-0.3 0.5 0.1 0.5 0.9 0 1.6 2.2 1.9 2.8 0.3 0.3-0.8 0.7-0.7 1.3 0.2 0.8 1.1 0.9 1.1 0.9-0.3q0-1.5 1.3-1c0.8 0.2 1.3 0 1.3-0.8 0-0.7 0.5-1.2 1.1-1.2 0.7 0 1.1 0.9 1 2.5 0 2.4-0.1 2.5-3.6 2.2-2.7-0.3-3.6-0.1-3.6 0.8 0 2.1-2.4 1.3-3-0.9zm19 1.3c0-0.5 0.4-0.9 0.8-0.9 0.5 0 0.9 0.4 0.9 0.9 0 0.4-0.4 0.8-0.9 0.8-0.4 0-0.8-0.4-0.8-0.8zm2.5-0.5c0-0.8 0.4-1.2 1-1 1.5 0.5 1.8 2.3 0.3 2.3-0.7 0-1.3-0.6-1.3-1.3zm-27.3-3c-0.3-0.9-0.3-1.9-0.1-2.2 0.3-0.3 0.5 0.1 0.5 0.9 0 0.8 0.4 1.4 0.9 1.4 0.4 0 0.8 0.4 0.8 0.8 0 1.6-1.6 0.9-2.1-0.9zm2.5 0.1c-0.3-1-0.4-2-0.1-2.2 0.2-0.3 0.6 0.4 1 1.4 0.3 0.9 0.3 1.9 0.1 2.2-0.2 0.2-0.7-0.4-1-1.4zm27.3 0.8c0-0.4 0.6-0.8 1.3-0.8 0.7 0 1.2 0.4 1.2 0.8 0 0.5-0.5 0.9-1.2 0.9-0.7 0-1.3-0.4-1.3-0.9zm-21-2.8c0-0.7-0.9-1-2.3-0.9q-2.2 0.1-0.5-0.2c1-0.2 2-1 2.2-1.8 0.4-1.3 0.4-1.3 0.5 0.1 0.1 0.8 0.6 1.4 1.3 1.4 0.8 0 1.1-0.8 0.9-2.9-0.3-2.8-0.1-2.9 2.2-2.9 1.3 0 2.4-0.4 2.4-0.9 0-0.4-0.3-0.8-0.8-0.8-0.5 0-0.8-0.6-0.8-1.3 0-0.7 0.3-1.2 0.8-1.2 0.5 0 0.8 0.3 0.8 0.8 0 0.5 1.2 0.8 2.6 0.8 1.9 0 2.5 0.4 2.5 1.7 0 1.2-0.6 1.7-2.1 1.7-1.6 0-2.1 0.4-2.1 1.7 0 1.2 0.5 1.7 2 1.7 2 0 3.9 2.8 2.7 3.9-0.3 0.3-0.5-0.1-0.5-0.9q0-1.4-2.1-1.4c-1.2 0-2.1-0.3-2.1-0.8 0-0.5-0.8-0.8-1.7-0.8-0.9 0-1.7 0.5-1.7 1.2 0 0.7-0.5 1.3-1.2 1.3-0.7 0-1.3 0.3-1.3 0.8 0 0.5-0.4 0.9-0.8 0.9-0.5 0-0.9-0.5-0.9-1.2zm6.7-4.5c0.2-0.2-0.1-0.7-0.8-1.1q-1.3-0.7-1.6 0.3c-0.2 0.5-0.8 1.3-1.3 1.7-0.5 0.4 0.1 0.4 1.2 0.1 1.2-0.3 2.3-0.8 2.5-1zm3.4-3.6c0-0.4-0.6-0.8-1.3-0.8-0.7 0-1.2 0.4-1.2 0.8 0 0.5 0.5 0.9 1.2 0.9 0.7 0 1.3-0.4 1.3-0.9zm-22.5 5.4c-0.5-0.6-1-1.5-1-1.9 0-0.5-0.7-1-1.5-1.2-0.9-0.3-0.6-0.4 0.8-0.5 1.4-0.1 2.6 0.5 3.1 1.4 0.8 1.2 1 1.3 1.8 0.2 0.7-1.1 0.8-1.1 0.8 0.2 0 0.8 0.4 1.5 0.9 1.5 0.4 0 0.8 0.3 0.8 0.8 0 1.2-2.3 1-2.8-0.2-0.3-0.8-0.6-0.8-1.1-0.1-0.5 0.7-1 0.6-1.8-0.2zm21.7-2c0-0.5 0.7-0.9 1.6-0.9 1 0 1.7 0.4 1.7 0.9 0 0.4-0.7 0.8-1.7 0.8-0.9 0-1.6-0.4-1.6-0.8zm-17.7-3.4c0-0.4 0.4-0.8 0.9-0.8 0.4 0 0.8 0.4 0.8 0.8 0 0.5-0.4 0.9-0.8 0.9-0.5 0-0.9-0.4-0.9-0.9zm10.9-2.1c0-0.7 0.4-1.2 0.9-1.2 0.4 0 0.8 0.5 0.8 1.2 0 0.7-0.4 1.3-0.8 1.3-0.5 0-0.9-0.6-0.9-1.3zm21-5.4c0-0.5 0.4-0.9 0.9-0.9 0.4 0 0.8 0.4 0.8 0.9 0 0.4-0.4 0.8-0.8 0.8-0.5 0-0.9-0.4-0.9-0.8z"/>
			<path id="Layer" fill-rule="evenodd" class="s17" d="m671.3 371.3c-0.3-1.4-1-2.5-1.7-2.5-0.6 0-1.1-0.6-1.1-1.3 0-0.7-0.6-1.3-1.3-1.3-1.9 0-1.5-1.4 0.6-1.9 2.8-0.8 3.2-0.7 3.2 0.6 0 0.6 0.7 1.3 1.7 1.6 2.1 0.5 2.1 0.5-0.4-2.2-2.1-2.3-3.8-2.9-3.8-1.4 0 1.9-3.4 0.1-4.3-2.3-0.2-0.6-0.7-0.5-1.4 0.3-0.9 0.9-0.9 1.1 0.2 1.1 0.7 0 1.3 0.4 1.3 0.9 0 0.4-0.8 0.8-1.7 0.8-0.9 0-1.7-0.5-1.7-1.2 0-0.7-0.4-1.3-0.8-1.3-0.5 0-0.9 0.8-0.9 1.7 0 0.9 0.4 1.7 0.9 1.7 0.5 0 1.5 0.5 2.2 1.2 0.7 0.7 1.6 1.1 2.1 0.8 0.9-0.6 4.1 2.4 4.1 3.8 0 1.3-1.6 1.1-3.1-0.3-0.6-0.7-1.8-1-2.5-0.8-0.8 0.3-1.4-0.1-1.7-1.1-0.3-1.3-1.2-1.7-3.4-1.8-3.6-0.1-4.4-0.8-2.7-2 1-0.7 1-0.8-0.2-0.4-1.7 0.5-4.4-2.6-4.7-5.5-0.2-2.6 1.3-4 2.4-2.2 0.4 0.6 0.7 0.8 0.7 0.3 0-0.5-0.4-1.4-0.9-2.1-0.6-1-1-1-1.3-0.2-0.5 1.2-2.8 1.4-2.8 0.2 0-0.5 0.4-0.9 0.9-0.9 0.9 0 1.1-4.7 0.2-5.2-0.4-0.2-0.2-0.2 0.4-0.1 0.6 0.2 1-0.7 1-2.2 0-3.7-0.8-5-3-5-1.4 0-2-0.5-2-1.7 0-1.3 0.5-1.7 2.3-1.6 1.4 0.1 1.7 0.2 0.8 0.5-2.2 0.6-1.7 1.6 1.1 2.2 1.5 0.3 2.5 1 2.5 1.8 0 0.7 0.4 1.3 0.9 1.3 0.4 0 0.8 0.5 0.8 1.2 0 0.7-0.4 1.3-0.8 1.3-0.5 0-0.9 0.9-0.9 2.1 0 1.1-0.4 2.1-0.8 2.1-1.4 0-1 1.5 0.8 3.3 0.9 1 1.7 2.5 1.7 3.3 0 0.9 0.5 1.9 1 2.1 0.6 0.3 0.3 0.3-0.6 0.1-1.9-0.4-4.5 0.9-3.5 1.8 0.4 0.4 1 0.2 1.3-0.4 0.6-0.9 0.8-0.8 1.2 0.2 0.8 2 3.1 1.7 3.1-0.4 0-1.2 0.4-1.6 1.1-1.4 1.6 0.6 4-1 2.5-1.6-1.4-0.6-1.4-2 0.1-2 0.6 0 1.1-0.8 1.1-2 0-1.9-0.1-2-1.3-0.8-0.7 0.7-1.3 2.4-1.3 3.7 0 1.9-0.1 2.1-1.1 1.2-1.4-1.4-1.4-3.5 0-4 0.5-0.3-0.2-0.3-1.6 0-3.1 0.5-4-0.5-3.2-3.5 0.3-1.3 1.1-2.1 2.1-2.1 0.9 0 1.6-0.6 1.6-1.3 0-0.7 0.6-1.2 1.3-1.2 0.7 0 1.2 0.5 1.2 1.2 0 0.8 0.8 1.3 2.1 1.3 2.5 0 4.6 0.8 4.6 1.7 0 0.5-0.5 0.8-1.2 0.8-0.7 0-1.3-0.4-1.3-0.8 0-0.5-0.5-0.9-1.2-0.9-1.9 0-1.5 1.4 0.5 2 1.4 0.3 1.7 0.9 1.3 2.5-0.4 1.5-0.2 2.1 1 2.4 1.2 0.3 1.4 1 1.2 3-0.2 1.4-0.1 2.7 0.4 3 1.3 0.8 4.4-0.4 4.4-1.7 0-0.8-0.5-1.1-1.3-0.8-0.7 0.3-1.2 0-1.2-0.8 0-0.6 0.7-1.2 1.6-1.2 1 0 1.7 0.4 1.7 0.8 0 0.5 0.6 0.9 1.3 0.9 0.7 0 1.2 0.6 1.2 1.2 0 0.7 0.4 1.3 0.9 1.3 0.4 0 0.8 1.3 0.8 2.9 0 1.7-0.4 3-0.8 3-0.5 0-0.9 0.6-0.9 1.2 0 0.7 0.4 1.3 0.9 1.3 0.4 0 0.8 0.4 0.8 0.8 0 1.8-1.6 0.8-2.1-1.2-0.3-1.2-0.9-2.1-1.3-2.1-0.4 0-0.8 0.9-0.8 2.1 0 1.3 0.5 2.1 1.3 2.1 0.7 0 1 0.5 0.7 1.2-0.8 2.1-2 1.5-2.5-1.2zm-7.9-3.4c0-0.4-0.3-0.8-0.8-0.8-0.5 0-0.9 0.4-0.9 0.8 0 0.5 0.4 0.9 0.9 0.9 0.5 0 0.8-0.4 0.8-0.9zm10.5-6.6c-0.6-2.1-1.7-2.3-2.4-0.5-0.3 0.8 0 1.2 0.8 1.2 0.7 0 1.2 0.5 1.2 1 0 0.6 0.2 0.8 0.5 0.5 0.3-0.3 0.3-1.3-0.1-2.2zm-10.5-3.5c0-0.4 0.7-0.8 1.5-0.8 1.3-0.1 1.2-0.2-0.2-0.8-2.6-1.1-3-1-3 0.8 0 0.9 0.4 1.7 0.9 1.7 0.5 0 0.8-0.4 0.8-0.9zm-7.5-8.3c0-0.5-0.4-0.9-0.9-0.9-0.4 0-0.8 0.4-0.8 0.9 0 0.4 0.4 0.8 0.8 0.8 0.5 0 0.9-0.4 0.9-0.8zm3.1-0.2c-0.5-1.6-2.3-1.8-2.3-0.3 0 0.7 0.6 1.3 1.3 1.3 0.8 0 1.2-0.5 1-1zm15.3 23.7c0-0.5 0.4-0.9 0.9-0.9 0.4 0 0.8 0.4 0.8 0.9 0 0.4-0.4 0.8-0.8 0.8-0.5 0-0.9-0.4-0.9-0.8zm-29.8-13.9c-0.9-1.1-2.3-2.2-3.1-2.4-0.8-0.2-1.5-1-1.5-1.7 0-0.7-0.6-1.4-1.5-1.4-1-0.1-1.1-0.2-0.2-0.6 0.6-0.2 1.6 0.3 2.3 1.1 0.6 0.9 2.2 1.5 4 1.6 1.6 0.1 3.2 0.4 3.5 0.7 0.4 0.4 0 0.4-0.8 0.1q-1.4-0.5-1.4 0.7c0 0.7 0.6 1.5 1.3 1.8 0.6 0.3 1.2 0.9 1.2 1.3 0 1.6-2 0.9-3.8-1.2zm23.8-3.5c-1.1-0.3-2.8-3.6-2.1-4.1 0.1-0.1 1.2 0.9 2.5 2.2 2.4 2.4 2.3 2.6-0.4 1.9zm-25-1.5c0-0.7-0.6-1.3-1.3-1.3-1.5 0-1.7-1.4-0.2-2 0.6-0.2-0.6-0.3-2.7-0.1-2.1 0.2-3.1 0.2-2.3-0.1 0.8-0.2 1.4-0.9 1.4-1.5 0-0.9 1-1.1 3.6-0.8 3.5 0.3 3.6 0.2 3.7-2.2 0-1.6-0.4-2.5-1.1-2.5-0.6 0-1.1 0.5-1.1 1.2 0 0.8-0.5 1-1.3 0.8q-1.2-0.5-1.3 1c0 1.4-0.1 1.4-0.9 0.3-0.6-0.9-1-1-1.3-0.2-0.5 1.3-2.8 1.4-2.8 0.2 0-0.4 0.4-0.8 0.9-0.8 0.4 0 0.8-0.9 0.9-1.9 0.1-1.4 0.2-1.5 0.5-0.4 0.4 1.5 1.9 2 1.9 0.6 0-0.5 0.6-0.8 1.3-0.8 0.7 0 1.2-0.6 1.2-1.3 0-0.7 0.8-1.2 1.7-1.2 0.9 0 1.7 0.3 1.7 0.8 0 0.5 0.9 0.8 2.1 0.8 2.4 0 2.8 2 0.8 4-1 0.9-1.2 2.1-0.8 4.1 0.4 2.2 0.2 2.8-0.8 2.8-0.7 0-1.3 0.4-1.3 0.9 0 0.5-0.6 0.8-1.3 0.8-0.7 0-1.2-0.5-1.2-1.2zm-10.7-5c-0.8-0.9-0.8-1.3 0-1.5 0.8-0.3 0.8-0.8 0-2.4-0.7-1.6-1-1.7-1-0.6-0.1 0.8-0.5 1.5-0.9 1.5-0.5 0-0.9-0.7-0.9-1.5 0-1.2-0.1-1.3-0.8-0.2-0.7 1.1-1 1.1-1.6 0.1-0.8-1.3-0.3-3.4 0.9-3.4 0.4 0 0.7 0.3 0.7 0.8 0 0.5 0.6 0.8 1.3 0.8 1.5 0 1.6-1.3 0.2-2-0.6-0.2 0.3-0.3 2.1-0.1 2.2 0.1 3.1-0.1 3.1-0.9 0-0.7 0.4-1.2 0.9-1.2 0.4 0 0.8 1 0.8 2.1 0 1.7-0.4 2.2-2.3 2.2q-2.3 0.1-0.8 0.5c1 0.3 1.4 0.9 1.1 1.7-0.3 0.7-0.5 2.1-0.5 3.3q0 3.4-2.3 0.8zm-8.2-8.1c-0.3-1-0.4-2-0.1-2.3 0.3-0.2 0.5 0.2 0.5 1 0 0.7 0.4 1.4 0.8 1.4 0.5 0 0.9 0.3 0.9 0.8 0 1.5-1.6 0.9-2.1-0.9zm13.8-0.3c0-1.1 0.6-2.2 1.2-2.4 0.8-0.3 1 0 0.7 1.1-0.3 1.3-0.1 1.6 1 1.2 0.7-0.3 1.3-1.1 1.3-1.7 0-0.7 0.6-1 1.3-0.7 1.9 0.8 1.5 1.8-0.8 2.4-1.2 0.2-2.1 0.9-2.1 1.3 0 0.5-0.6 0.8-1.3 0.8-0.8 0-1.3-0.8-1.3-2zm-11.2-1.8c-0.7-1.9-0.7-2 1.1-2 1.2 0 1.5 0.4 1.1 1.6-0.5 2-1.5 2.2-2.2 0.4zm12.9-3.3c0-0.7 0.5-1 1.3-0.7 0.9 0.3 1.2-0.2 1.2-2.2v-2.6l1.9 1.7c1 0.9 1.5 1.9 1.2 2.2-0.3 0.4-0.5 0.2-0.5-0.4 0-0.5-0.4-0.9-0.9-0.9-0.4 0-0.8 0.5-0.8 1.2 0 0.7 0.4 1.3 0.8 1.3 0.5 0 0.9 0.4 0.9 0.8 0 0.5-1.2 0.9-2.6 0.9-1.6 0-2.5-0.5-2.5-1.3zm5.9 0.4c0-0.4 0.6-0.8 1.3-0.8 0.6 0 1.2 0.4 1.2 0.8 0 0.5-0.6 0.9-1.2 0.9-0.7 0-1.3-0.4-1.3-0.9zm18.5-5.5c0-0.7 0.4-1.2 1-1 1.5 0.5 1.8 2.3 0.3 2.3-0.7 0-1.3-0.6-1.3-1.3zm-7.9-2.5c-0.3-0.7 0-1.2 0.8-1.2 0.6 0 1.2 0.5 1.2 1.2 0 0.7-0.3 1.3-0.8 1.3-0.4 0-0.9-0.6-1.2-1.3zm7.1-2.6c0-0.9 0.2-1.1 0.5-0.5 0.2 0.6 0.2 1.4-0.1 1.6-0.2 0.3-0.4-0.2-0.4-1.1z"/>
			<path id="Layer" fill-rule="evenodd" class="s18" d="m680 370.1q-0.5-1.3 0.7-0.8c0.7 0.3 1.2 0.8 1.2 1.2 0 1.2-1.4 0.9-1.9-0.4zm18.3-8.3c0.4-1 0.7-1.9 0.7-2 0.1 0 1.6-0.2 3.4-0.4 3.5-0.3 5.2 1.4 2.5 2.4-0.9 0.3-1.8 1-2.2 1.4q-0.6 1-1.5-0.3-0.8-1.3-0.8-0.2c0 0.6-0.6 1-1.3 1-1 0-1.2-0.5-0.8-1.9zm-10.5-1.4c0-0.5 0.4-0.9 0.8-0.9 0.5 0 0.9 0.4 0.9 0.9 0 0.4-0.4 0.8-0.9 0.8-0.4 0-0.8-0.4-0.8-0.8zm8.2-1.4c0.6-0.2 1-1.6 1-2.9 0-2.1 0.4-2.4 2.1-2.4 1.5 0 2.1 0.4 2.1 1.4 0 2.3-1 3.3-3.7 3.8-1.4 0.3-2.1 0.4-1.5 0.1zm9.4-4.2c0-4.2-0.8-5.5-4.6-6.8l-2.5-0.9 2.7-1.1c1.5-0.6 2.8-1.4 2.8-1.8 0-0.3 0.3-0.6 0.8-0.6 0.5 0 0.8 0.9 0.8 2.1 0 1.9 1.9 2.9 2.8 1.4 0.2-0.3 0.2-0.1 0.1 0.5-0.2 0.5 0.2 1 0.9 1 0.7 0 1.4 1.2 1.7 2.9 0.6 3.2 0 5-1.6 4.4-0.6-0.2-1.6-0.1-2.3 0.3-0.8 0.6-0.8 0.8-0.1 0.8 0.6 0 1.1 0.4 1.1 0.8 0 0.5-0.6 0.9-1.3 0.9-0.9 0-1.3-1-1.3-3.9zm3-3.6c-0.3-0.5-0.9-0.9-1.4-0.9-0.4 0-0.3 0.5 0.3 1.2 1.2 1.3 2 1.1 1.1-0.3zm0.4 6.6c0-0.4 0.4-0.8 0.8-0.8 0.5 0 0.9 0.4 0.9 0.8 0 0.5-0.4 0.9-0.9 0.9-0.4 0-0.8-0.4-0.8-0.9zm-34.4-3.3c0-0.5 0.3-0.8 0.8-0.8 0.5 0 0.8 0.3 0.8 0.8 0 0.5-0.3 0.8-0.8 0.8-0.5 0-0.8-0.3-0.8-0.8zm-3.4-1.9c0-0.6 0.8-1.7 1.7-2.5 1.3-1.2 1.7-1.2 1.7-0.3 0 0.7 0.4 1.4 1 1.6 0.8 0.3 0.7 0.7-0.2 1.3-1.7 1.3-4.2 1.2-4.2-0.1zm26.9-0.6c0-0.5 0.5-0.9 1.2-0.9 0.7 0 1.3 0.4 1.3 0.9 0 0.4-0.6 0.8-1.3 0.8-0.7 0-1.2-0.4-1.2-0.8zm0.8-2.5c0-0.5 0.4-0.9 0.9-0.9 0.4 0 0.8 0.4 0.8 0.9 0 0.4-0.4 0.8-0.8 0.8-0.5 0-0.9-0.4-0.9-0.8zm12.6 0c0-0.5 0.4-0.9 0.9-0.9 0.4 0 0.8 0.4 0.8 0.9 0 0.4-0.4 0.8-0.8 0.8-0.5 0-0.9-0.4-0.9-0.8zm-39.7-2.6c0.6-2.2 4.4-2.3 4.4-0.1 0 1.1-0.6 1.6-2.4 1.6-2 0.1-2.3-0.2-2-1.5zm50.6 0c0-0.4 0.4-0.8 0.9-0.8 0.4 0 0.8 0.4 0.8 0.8 0 0.5-0.4 0.9-0.8 0.9-0.5 0-0.9-0.4-0.9-0.9zm-53.4-2.8c0.3-0.8 0.5-2.4 0.5-3.5 0-1.7 0.4-2.1 2.6-2.1 2.3 0 2.5 0.3 2.3 2.3-0.2 1.8-0.8 2.4-2.4 2.6-1.1 0.2-2.4 0.8-2.8 1.3-0.4 0.6-0.5 0.4-0.2-0.6zm45-0.1c0-0.7 0.4-1.3 0.9-1.3 0.4 0 0.8 0.6 0.8 1.3 0 0.7-0.4 1.3-0.8 1.3-0.5 0-0.9-0.6-0.9-1.3zm-42.1-6.9c0.6-0.2 1.3-0.2 1.6 0.1 0.3 0.3-0.2 0.5-1.1 0.4-1 0-1.2-0.2-0.5-0.5zm-44.4-3.6c0-0.5 0.4-0.8 0.9-0.8 0.4 0 0.8 0.3 0.8 0.8 0 0.5-0.4 0.8-0.8 0.8-0.5 0-0.9-0.3-0.9-0.8zm47.1 0.1c0-0.4-0.8-0.9-1.7-1.2-0.9-0.2-1.7-1-1.7-1.8 0-0.7-0.4-1.3-0.8-1.3-0.5 0-0.9-0.6-0.9-1.3 0-0.9 1-1.2 3.4-1.2h3.3v3.8c0 2-0.3 3.7-0.8 3.7-0.5 0-0.8-0.3-0.8-0.7z"/>
			<path id="Layer" fill-rule="evenodd" class="s19" d="m680 371.6c-0.4-0.3-0.6-1-0.6-1.5 0-0.5 0.4-0.4 0.8 0.3 0.7 1.1 1 1.1 2-0.3 0.8-1.1 1.8-1.5 3.4-1.2 1.7 0.4 2.2 0.1 2.2-1.1 0-2 1.6-2.1 1.7-0.1 0.1 0.9 0.3 1.1 0.5 0.4 0.5-1.2 2-1.4 2-0.2 0 0.5-1 1.1-2.1 1.4-1.2 0.2-2.1 0.9-2.1 1.4 0 0.6-0.4 0.4-0.9-0.3-0.7-1.1-0.9-1-1.7 0.3-0.8 1.4-4.1 2-5.2 0.9zm-2.3-3.4c0-0.6 0.6-1.1 1.3-1.1 1.7 0 1.6-2.3-0.2-2.8-0.8-0.2-0.3-0.3 1.1-0.3 1.6 0.1 2.5 0.5 2.3 1.1-0.2 0.6 0.3 1.2 1.1 1.4 1.4 0.4 1.4 0.4 0.1 0.5-0.8 0-1.5 0.6-1.5 1.2 0 0.7-0.9 1.2-2.1 1.2-1.2 0-2.1-0.5-2.1-1.2zm16-1.7c0.6-0.3 1.7-1 2.3-1.6 0.6-0.7 1.8-1.2 2.7-1.2 0.8 0 1.7-0.4 2-1 0.2-0.7 0.4-0.5 0.5 0.4 0 0.8-0.5 1.5-1.2 1.5-0.6 0-1.3 0.3-1.4 0.7-0.2 0.4-1.6 1-3.3 1.3-1.6 0.2-2.3 0.2-1.6-0.1zm-3.4-1.1c0-0.5 0.4-0.8 0.8-0.8 0.5 0 0.9 0.3 0.9 0.8 0 0.5-0.4 0.8-0.9 0.8-0.4 0-0.8-0.3-0.8-0.8zm-5.2-1.4c0.6-0.3 1.3-0.2 1.6 0.1 0.3 0.2-0.2 0.4-1.1 0.4-1 0-1.2-0.2-0.5-0.5zm3.5-0.4c1-0.6 1-0.9 0.2-1.3-0.7-0.3-0.6-0.8 0.4-1.8 1.3-1.3 1.3-1.4 0.1-1.7-2-0.3-2.6-2.6-0.8-2.6 1.1 0 1.5-0.6 1.4-2.3q-0.2-2.4 0.2-0.5c0.4 2.6 1.5 2.4 4.5-0.6 1.4-1.4 2.1-2.5 1.7-2.5-0.5 0-1-0.4-1-0.9 0-0.4 0.6-0.8 1.3-0.8 0.7 0 1.3-0.3 1.3-0.8 0-1 5 0.7 6.5 2.2 0.6 0.5 1 2.7 1 4.8 0 2.9 0.3 3.9 1.3 3.9 0.7 0 1.2-0.4 1.2-0.9 0-0.4-0.4-0.8-1-0.8-0.7 0-0.7-0.2 0.1-0.8 0.7-0.4 1.7-0.5 2.3-0.3 1.5 0.6 2.2-1.2 1.6-4.4-0.3-1.7-1-2.9-1.7-2.9-0.7 0-1-0.5-0.7-1.3 0.7-1.9 1.9-1.5 2.5 0.9 0.2 1.1 1 2.1 1.6 2.1 0.9 0 1.1-1 0.8-4-0.2-2.2-0.2-3.3 0.1-2.5 0.5 1.5 2 2 2 0.6 0-0.5 0.6-0.8 1.3-0.8 0.7 0 1.2 0.5 1.2 1.2 0 0.7-0.5 1.3-1.2 1.3-0.7 0-1.3 0.5-1.3 1.2 0 0.6 0.6 1.8 1.3 2.4 0.7 0.7 1.2 1.7 1.2 2.2 0 0.5-0.5 0.9-1.2 0.9-0.7 0-1.3-0.4-1.3-0.8 0-0.5-0.4-0.9-0.8-0.9-0.5 0-0.9 1.2-0.9 2.5 0 1.7-0.3 2.4-1.1 2.1-0.6-0.2-2.1 0.5-3.2 1.7-1.2 1.2-2.9 2.1-3.8 2-4.3-0.4-6.9 0.2-7.2 1.6-0.2 1.2-0.4 1.1-0.8-0.4-0.4-1.5-0.2-1.9 1-1.9 1.5 0 2.5-1.6 2.5-3.9q0-1.2-2.9-1.2c-2.9 0-4 1.2-1.9 2 0.8 0.3 0.8 0.6 0.1 1.1-0.5 0.4-1.2 1.6-1.5 2.6-0.6 1.9-2.2 2.7-2.2 1.1 0-0.5 0.4-0.9 0.8-0.9 0.4 0 0.9-0.7 1.2-1.7 0.3-1.1 0-1.6-1-1.6-1 0-1.4 0.9-1.6 3.5-0.2 3.5-1.2 4.8-3.6 4.8-1.1 0-1.1-0.1 0-0.9zm11.8-11.6c0-0.5-0.6-0.9-1.3-0.9-0.7 0-1.2 0.4-1.2 0.9 0 0.4 0.5 0.8 1.2 0.8 0.7 0 1.3-0.4 1.3-0.8zm0-2.6c0-0.4-0.4-0.8-0.9-0.8-0.4 0-0.8 0.4-0.8 0.8 0 0.5 0.4 0.9 0.8 0.9 0.5 0 0.9-0.4 0.9-0.9zm-7.6 13.6c0-0.8 2-1.8 3.5-1.8 0.4 0 0.7 0.6 0.7 1.3 0 1.5-1.3 1.6-1.9 0.2-0.4-0.9-0.5-0.9-0.5 0-0.1 1.2-1.8 1.4-1.8 0.3zm-14-1.5c-1.2-0.5-1.5-2-0.3-2 0.4 0 0.9 0.6 1.2 1.3 0.3 0.7 0.4 1.2 0.3 1.2-0.1-0.1-0.7-0.3-1.2-0.5zm3.2-3.9c0.1-1.3 0.2-1.4 0.5-0.4 0.2 0.7 1.4 1.5 2.6 1.7 2.1 0.3 2 0.4-0.5 0.5-2.3 0.1-2.7-0.1-2.6-1.8zm-9.1-0.2c-0.6-0.6-1.7-1.5-2.5-2-1.9-1-1.4-1.4 2.5-2 2.7-0.4 3-0.3 2 0.7-0.7 0.7-1 2-0.8 2.9 0.5 2 0.2 2.1-1.2 0.4zm-4.2-6.9c0.2-2-0.1-2.3-1.8-2.1-1.2 0.1-2.7-0.5-3.6-1.5-0.9-0.9-1.2-1.7-0.7-1.7 1.7 0 0.8-1.5-1.3-2-2.9-0.7-2.6-1.8 0.8-2.4 3-0.5 7.7-4.2 6.9-5.5-0.8-1.3 1.9-3.5 3.5-2.9 2.8 1.1 3.5 2.6 3.5 7.8 0 4.8-0.1 5-2 5-1.2 0-2.2 0.6-2.4 1.5-0.4 1.4-0.4 1.4-0.5 0-0.1-0.8-0.5-1.5-0.9-1.5-2 0-0.7-1.5 1.4-1.8 1.8-0.2 2.4-0.7 2.6-2.6 0.2-2.1 0-2.3-2.8-2.3-2.5 0-3 0.3-2.6 1.4 0.6 1.6-0.2 5.3-1.3 5.3-0.4 0-0.7-0.5-0.7-1.2 0-0.7 0.4-1.3 0.8-1.3 0.5 0 0.9-0.3 0.9-0.8 0-0.5-1-0.8-2.1-0.8-1.2 0-2.1 0.3-2.1 0.8 0 0.5 0.4 0.8 0.8 0.8 0.5 0 0.9 0.6 0.9 1.3 0 0.7-0.4 1.2-0.9 1.2-0.4 0-0.8 0.6-0.8 1.3 0 0.7 0.5 1.3 1.2 1.3 0.7 0 1.3-0.4 1.3-0.9 0-0.4 0.6-0.8 1.3-0.8 0.6 0 1.2 0.6 1.2 1.3 0 0.9 0.7 1.3 2.3 1.2 1.3-0.1 2.8-0.1 3.4-0.1 1.2 0.1 1.4 2.6 0.2 2.6-0.5 0-0.8-0.6-0.8-1.4 0-1-0.5-0.8-2.1 0.9-2.7 2.8-4 2.8-3.6-0.1zm4.6-13.3c-0.3-0.3-1-0.3-1.6-0.1-0.7 0.3-0.5 0.5 0.5 0.5 0.9 0.1 1.4-0.1 1.1-0.4zm34 14.3c-0.6-0.7-0.7-1.2-0.3-1.2 0.9 0 2.2 1.6 1.7 2.1-0.2 0.1-0.8-0.3-1.4-0.9zm11.3-0.9c-1-1-0.6-2 0.7-2 0.7 0 1.2 0.6 1.2 1.3 0 1.3-1 1.6-1.9 0.7zm1.3-2.5c-1.6-0.7-1.2-2 0.6-2 1 0 1.7 0.5 1.7 1.2 0 1.3-0.5 1.5-2.3 0.8zm-65.7-6.3c0-0.9-0.3-1.5-0.7-1.3-1 0.6-3.1-0.9-2.4-1.7 0.4-0.3 1-0.1 1.5 0.6 0.7 1 0.8 0.9 0.6-0.4-0.2-1-0.9-1.7-1.8-1.6-0.8 0.1-1.4-0.4-1.4-1 0-1.5 4.1-2.1 5.4-0.7 0.9 0.9 1.3 0.9 1.6 0.1 0.3-0.8 0.6-0.8 1.2 0.1 0.7 1 0.9 1 1.4 0 0.4-0.9 0.6-0.9 1-0.1 0.2 0.6 1 1.1 1.6 1.1 0.7 0 1.2 0.7 1.2 1.6 0 1-0.3 1.7-0.8 1.7-0.5 0-0.8-0.6-0.8-1.2 0-0.9-0.9-1.3-2.9-1.3-1.6 0-3.5-0.6-4.3-1.4-1.2-1.2-1.3-1.1-0.7 1.1 0.7 3.1 1.1 3.4 2 1.9 0.9-1.4 1-0.4 0.3 2.4-0.6 2.3-2 2.5-2 0.1zm-21-10.8c0-0.5 0.4-0.9 0.8-0.9 0.5 0 0.9 0.4 0.9 0.9 0 0.4-0.4 0.8-0.9 0.8-0.4 0-0.8-0.4-0.8-0.8zm37.8-5c0-0.4 0.8-0.9 1.9-1.2 2.8-0.8 3.1-0.7 3.1 0.7q0 1.3-2.5 1.3c-1.4 0-2.5-0.4-2.5-0.8z"/>
			<path id="Layer" fill-rule="evenodd" class="s20" d="m666.8 373c0-0.5 0.4-0.9 0.8-0.9 0.5 0 0.9 0.4 0.9 0.9 0 0.4-0.4 0.8-0.9 0.8-0.4 0-0.8-0.4-0.8-0.8zm10.9-1.3c0-2.3 1.2-2.8 2-0.8 0.8 2.1 0.6 2.9-0.7 2.9-0.8 0-1.3-0.8-1.3-2.1zm6.7 0c0-0.1 0.7-0.9 1.5-1.7 1.3-1.4 1.2-1.5-1.3-1.1-2.9 0.4-4-1.4-1.2-2.1 1.3-0.3 1.3-0.4-0.1-0.5-1 0-1.4-0.5-1.1-1.2 0.2-0.6 0-1.2-0.6-1.1-2.8 0-3.9-0.4-3.9-1.6 0-0.9 0.5-1.2 1.2-0.9q1.2 0.5 0.8-0.8c-0.3-0.6-0.8-1.2-1.3-1.2-1.2 0-0.8-2.3 0.6-2.8 2.2-0.9 2.9-0.6 2.9 1.1 0 1.4 0.5 1.7 2.7 1.6 2.6-0.1 2.6-0.2 0.4-0.5-1.6-0.2-2.3-0.8-2.3-1.9 0-0.9 0.6-1.7 1.3-1.7 0.7 0 1.3-0.4 1.3-0.8 0-1.2 3.9-1 4.4 0.2 0.3 0.6 0.5 0 0.5-1.2 0.1-1.6 0.7-2.4 2.4-3 1.3-0.4 2.8-0.6 3.4-0.4 1.6 0.5-3.5 5.2-6.4 5.7-2.7 0.6-2.9 2.5-0.3 3.2 1.3 0.3 1.2 0.3-0.1 0.4-1.6 0.1-2 2.3-0.4 2.9 0.8 0.4 0.8 0.7-0.2 1.3-0.7 0.6-0.8 0.9-0.3 1 2.3 0 3.7-1.2 3.7-3.3 0-1.8 0.2-2 0.9-0.9 0.7 0.9 1 1 1.3 0.2 0.2-0.6 1.2-1.1 2-1.1 1.3 0 1.6 0.6 1.6 2.3-0.1 1.5-0.3 1.8-0.5 0.9-0.2-0.8-0.9-1.5-1.5-1.5-1.3 0-0.7 4.3 0.7 5.3 0.5 0.3-0.2 0.4-1.6 0.1-1.9-0.4-2.2-0.3-1.3 0.4 1.5 1 1.2 1.3-1.5 2.2-1.5 0.4-2 0.2-2.4-1.2-0.6-2.5-1.6-2.2-2.2 0.7-0.3 1.3-1.1 2.6-1.8 2.9-0.7 0.2-1.3 0.3-1.3 0.1zm7.6-3.8c0-0.4-0.4-0.8-0.9-0.8-0.4 0-0.8 0.4-0.8 0.8 0 0.5 0.4 0.9 0.8 0.9 0.5 0 0.9-0.4 0.9-0.9zm0-2.5c0-0.5-0.4-0.8-0.9-0.8-0.4 0-0.8 0.3-0.8 0.8 0 0.5 0.4 0.8 0.8 0.8 0.5 0 0.9-0.3 0.9-0.8zm-5.3-1.3c-0.3-0.3-1-0.4-1.6-0.1-0.7 0.3-0.5 0.5 0.5 0.5 0.9 0 1.4-0.2 1.1-0.4zm7.8-1.2c0-0.5-0.4-0.9-0.8-0.9-0.5 0-0.9 0.4-0.9 0.9 0 0.4 0.4 0.8 0.9 0.8 0.4 0 0.8-0.4 0.8-0.8zm-16.8 2.9c0-0.7 0.6-1.2 1.3-1.2 0.6 0 1.2 0.5 1.2 1.2 0 0.7-0.6 1.3-1.2 1.3-0.7 0-1.3-0.6-1.3-1.3zm-3.6-8.4q-0.4-2.1 0.8-2.1c0.6 0 1.1 0.9 1.1 2.1 0 1.2-0.3 2.1-0.7 2.1-0.4 0-0.9-0.9-1.2-2.1zm18.4 0c-0.3-0.8 0-1.2 1-1.2 2 0 4 1.4 3.2 2.2-0.3 0.4-1 0.1-1.4-0.6q-0.8-1.2-0.8-0.2c0 1.5-1.4 1.4-2-0.2zm18.4-1.2c0.3-0.5 0.8-0.9 1.3-0.9 0.4 0 0.8 0.4 0.8 0.9 0 0.4-0.6 0.8-1.3 0.8-0.8 0-1.1-0.4-0.8-0.8zm-15.6-1.7c0-0.5 0.4-0.9 0.9-0.9 0.4 0 0.8 0.4 0.8 0.9 0 0.4-0.4 0.8-0.8 0.8-0.5 0-0.9-0.4-0.9-0.8zm18.5-1.3c0-1.1 0.4-2.1 0.8-2.1 1 0 1.6 1.8 1.1 3.2-0.7 1.8-1.9 1.1-1.9-1.1zm4.2-1.3c0-0.5-0.6-1.5-1.3-2.2-0.6-0.6-1.2-1.8-1.2-2.4 0-0.7 0.6-1.2 1.2-1.2 0.7 0 1.3-0.6 1.3-1.3 0-0.7 0.8-1.2 1.7-1.2 0.9 0 1.7 0.5 1.7 1.2 0 0.7-0.6 1.3-1.3 1.3-0.7 0-1.3 0.3-1.3 0.7 0 0.5 0.6 1 1.3 1.3 0.7 0.2 1.2 0.9 1.2 1.5-0.1 0.9-0.2 0.9-0.5 0.1-0.2-0.6-1-1.1-1.6-1.1-0.9 0-1.1 0.6-0.7 2.1 0.3 1.2 0.3 2.1 0 2.1-0.3 0-0.5-0.4-0.5-0.9zm-51.6-1.6c-0.7-1 0.1-2.5 1.3-2.5 0.4 0 0.8 0.7 0.8 1.6 0 1.8-1.3 2.3-2.1 0.9zm45.5-1.7c-1.8-1.7-1.9-2.5-0.2-2.5 0.6 0 1.4 0.8 1.7 1.7 0.7 2.3 0.3 2.6-1.5 0.8zm-42.6-1.3c0-0.6-0.6-1.2-1.3-1.2-0.7 0-1.2 0.4-1.2 0.8 0 0.5-0.6 0.9-1.3 0.9-0.7 0-1.2-0.5-1.2-1.2 0-0.7 1.1-1.1 3.3-1.2 2.9-0.1 3.4 0.1 3.4 1.5 0 1-0.4 1.7-0.9 1.7-0.4 0-0.8-0.6-0.8-1.3zm-10.1-2.9c0-0.5-0.8-0.8-1.7-0.8-1.5 0-1.7-0.4-1.3-2.8 0.3-1.5 0.3-2.2 0-1.6-0.3 0.5-0.8 1-1.2 1-1.3 0-0.9-2.5 0.6-4 1.3-1.4 1.4-1.4 0.9 0-0.5 1.2-0.1 1.5 2.3 1.5 2.1 0 2.9 0.4 2.9 1.3 0 0.6 0.4 1.2 0.9 1.2 0.4 0 0.8-0.7 0.8-1.7 0-0.9-0.5-1.6-1.2-1.6-0.6 0-1.4-0.5-1.6-1.1-0.3-0.8-0.6-0.7-1.4 0.2-0.8 1.1-0.9 1.1-0.6 0 0.3-1 1.4-1.2 5.3-1 2.7 0.2 5.1 0.5 5.3 0.7 0.9 0.8-4.6 4.7-7.2 5.1-3.3 0.6-3.6 1.7-0.7 2.4 1.2 0.3 2.1 0.9 2.1 1.3 0 0.4-0.9 0.7-2.1 0.7-1.1 0-2.1-0.3-2.1-0.8zm6-1.5c-0.5-0.2-0.9-0.7-0.9-1.1 0-1.2 3.9-0.9 4.4 0.3 0.4 1.1-1.5 1.5-3.5 0.8zm-12.6-3.3c-0.1-0.6-0.7-1.1-1.5-1.1-1.1 0-1.2-0.2-0.4-1 1.2-1.2 3.1 0.3 2.4 2-0.3 0.8-0.5 0.8-0.5 0.1zm-36.2-10.3c0-0.4 0.7-0.8 1.7-1.1 0.9-0.2 1.6-0.1 1.6 0.2 0 0.4-0.7 0.9-1.6 1.1-1 0.3-1.7 0.2-1.7-0.2zm57.1-5.9c0-0.4 0.6-0.6 1.3-0.3 0.7 0.3 1.2 0.6 1.2 0.8 0 0.2-0.5 0.4-1.2 0.4-0.7 0-1.3-0.4-1.3-0.9z"/>
		</g>
		<path id="Layer" class="s21" d="m723.1 343.7c1.2 0.3 2.3 1.2 3.3 2.2-12.2 12.2-29.7 23.1-50.1 30.4v-18.8c3.5-0.2 10.6-5 13.6-6.5 3-1.4 6.6-3.9 10.6-4.7 4-0.8 2.6-2.8 7.8-3.5 1.2-0.3 2.8-0.5 4.6-0.6 2.9-0.1 6.5 0.3 10.2 1.5z"/>
		<path id="Layer" class="s22" d="m680.2 373c0-0.5 0.4-0.9 0.9-0.9 0.4 0 0.8 0.4 0.8 0.9 0 0.4-0.4 0.8-0.8 0.8-0.5 0-0.9-0.4-0.9-0.8zm7.6-2.6c0-0.4 0.4-0.8 0.8-0.8 0.5 0 0.9 0.4 0.9 0.8 0 0.5-0.4 0.9-0.9 0.9-0.4 0-0.8-0.4-0.8-0.9zm18.5-10c0-0.5 0.4-0.9 0.8-0.9 0.5 0 0.9 0.4 0.9 0.9 0 0.4-0.4 0.8-0.9 0.8-0.4 0-0.8-0.4-0.8-0.8zm-0.8-14c0-0.9 0.2-1.1 0.5-0.5 0.2 0.6 0.2 1.4-0.1 1.6-0.2 0.3-0.4-0.2-0.4-1.1zm4.4-0.9c0.8-0.2 1.9-0.2 2.5 0 0.5 0.3-0.1 0.4-1.5 0.4-1.4 0-1.9-0.2-1-0.4zm12.2 0c0.6-0.2 1.3-0.2 1.6 0.1 0.3 0.3-0.2 0.5-1.1 0.4-1 0-1.2-0.2-0.5-0.5zm-102.3-9.5c0-0.5 0.4-0.8 0.8-0.8 0.5 0 0.9 0.3 0.9 0.8 0 0.5-0.4 0.9-0.9 0.9-0.4 0-0.8-0.4-0.8-0.9zm30.9-1.4c0.6-0.2 1.3-0.2 1.6 0.1 0.3 0.2-0.2 0.4-1.1 0.4-1 0-1.2-0.2-0.5-0.5zm18.6-3.2c0-0.7 0.4-1.3 0.9-1.3 0.4 0 0.8 0.6 0.8 1.3 0 0.7-0.4 1.3-0.8 1.3-0.5 0-0.9-0.6-0.9-1.3zm0-5.5c0-0.4 0.4-0.8 0.9-0.8 0.4 0 0.8 0.4 0.8 0.8 0 0.5-0.4 0.9-0.8 0.9-0.5 0-0.9-0.4-0.9-0.9zm2.5-2.5c0-0.4 0.4-0.8 0.9-0.8 0.4 0 0.8 0.4 0.8 0.8 0 0.5-0.4 0.9-0.8 0.9-0.5 0-0.9-0.4-0.9-0.9z"/>
		<path id="Layer" class="s23" d="m676.2 376.3v-184.7"/>
		<path id="Layer" fill-rule="evenodd" class="s9" d="m669.8 284.4q0.1 0.1 0.2 0.2 0.1 0.2 0 0.4 0 0.2-0.1 0.3l-41.9 49.4q-0.1 0.2-0.4 0.3-0.3 0-0.5-0.2-0.2-0.2-0.2-0.4 0-0.3 0.2-0.5l41.8-49.4q0.1 0 0.1-0.1 0.1 0 0.1-0.1 0.1 0 0.2 0 0 0 0.1 0 0.2 0 0.4 0.1z"/>
		<path id="Layer" fill-rule="evenodd" class="s24" d="m654.1 316.5c4.4-0.8 8.6-21.5 8.6-21.5 0 0 3.2-1.9 5-0.6 1.8 1.3 1.5 6.3 1.6 8.9 0.1 2.5 0.8 4 1.1 5.3 0.2 1.2-1.6 6-1.4 8.1 0.2 2.2-1.7 10.2-1.9 12.1-0.1 1.8 0 4.8-1.2 4.7-1.3 0-19.1 0.1-21.3-0.9-2.2-1-2.8-2.8-5.4-5.5 0-7.2 10.5-9.8 14.9-10.6z"/>
		<g id="Clip-Path" clip-path="url(#cp1)">
			<path id="Layer" class="s25" d="m644.6 333.1c1.8-1.3 2.4-2.4 2.7-4.2 0.4-1.9 0.2-6.7-1.1-8-1.3-1.2 7.6-1.3 8.1 0.3 0.4 1.5-1.1 5.6-0.7 7.7 0.4 2.1-0.9 5.9-1.2 7.4-0.3 1.6 8.4 2.6 10.2 1.5 1.9-1.2 0.2-4.6-0.7-6.2-1-1.5-1.3-3.9-1.7-6.5-0.4-2.6-0.6-4.9-1.6-6.1-0.9-1.2 3-2.4 6.5-1.2 3.5 1.1 4.3 0.6 5.6 1.4 1.2 0.8 1.7-6.1-2.1-7.7-3.9-1.6-5.5-2-6.8-2.4-1.3-0.3 0.6-8 2.8-7.3 2.2 0.7 7 3.2 7.8 3.1 0.9 0 0.8-4.3-2.7-6.6-3.4-2.2-5.1-2.5-7-3.3-1.9-0.8 7.1-2.6 7.5-2.6 0.3 0 13.3 19.7 8.3 25-5 5.2-14.8 6.4-13.2 9.4 1.5 3.1 4.2 6.3 4.2 6.3 0 0 4.4 10.8-4.2 9.5-8.7-1.3-23.4-6.3-20.7-9.5z"/>
		</g>
		<g id="Layer">
			<path id="Layer" fill-rule="evenodd" class="s26" d="m654.6 300c-0.5-0.2-9.4-8.5-9.8-9.7-0.5-1.2-2.3-2.2-3.8-2.4-1.4-0.2-0.7-2.1-0.9-3.2-0.1-1 0.3-1.2 0.6-0.5 0.3 0.6 1.9 0.9 2.4 1 0.6 0.2 0.7-1.7 0.8-1.9 0-0.3 0.2 1 0.4 1.9 0.3 1 4.7 4.3 5.3 5.4 0.6 1.1 5.6 2.4 8.4 3.2 0 0-2.9 6.3-3.4 6.2z"/>
			<path id="Layer" fill-rule="evenodd" class="s0" d="m744.9 191.6v64.3h-137.2v-64.3z"/>
			<path id="Layer" fill-rule="evenodd" class="s4" d="m616.6 191.6l50.8 23.4v-23.4h17.7v23.4l50.8-23.4h9v5.7l-38.7 17.7h38.7v17.8h-38.7l38.7 17.7v5.4h-9.6l-50.2-23v23h-17.7v-23l-50.2 23h-9.5v-5.4l38.6-17.7h-38.6v-17.8h38.6l-38.6-17.7v-5.7z"/>
			<path id="Layer" fill-rule="evenodd" class="s27" d="m682.3 191.6v26.3h62.6v12h-62.6v26h-12v-26h-62.6v-12h62.6v-26.3z"/>
		</g>
		<g id="Layer">
			<g id="Layer">
				<path id="Layer" class="s21" d="m654.1 316.5c4.4-0.8 8.6-21.5 8.6-21.5 0 0 3.2-1.9 5-0.6 1.8 1.3 1.5 6.3 1.6 8.9 0.1 2.5 0.8 4 1.1 5.3 0.2 1.2-1.6 6-1.4 8.1 0.2 2.2-1.7 10.2-1.9 12.1-0.1 1.8 0 4.8-1.2 4.7-1.3 0-19.1 0.1-21.3-0.9-2.2-1-2.8-2.8-5.4-5.5 0-7.2 10.5-9.8 14.9-10.6z"/>
				<path id="Layer" fill-rule="evenodd" class="s26" d="m660.6 288.2c-0.1 0.6 0.5 1.7 1.6 2.4 1.1 0.8 3.1 4.4 3.1 5.4 0.1 1 0.2 12.7 0.2 18.7 0 6-5.7 7-8.3 7.2-2.6 0.1-10 0.1-13.4 0.1-3.3 0-3 4.7-3 5.7 0 1.1-2.8 4.7-3.1 5.1-0.3 0.3-0.1 5.1-0.1 5.5 0 0.5-1.4-0.1-2.6-0.1-1.1-0.1-7 0.5-7.6 0.1-0.6-0.4 6.2-3.4 6.6-3.9 0.3-0.6 1.8-4.9 2.6-11.1 0.9-6.1 6-6.4 8.9-7.4 2.8-1.1 3.8-3 4.3-3.3 0.4-0.3 1.7-2.1 2.9-3.2 1.2-1.1 0.5-2.7 0.5-3.3 0-0.7 0-3.9 0.1-5.6 0.1-1.6 0.1-2.6 0.6-3.9 0.6-1.2 2-4.1 2.4-4.5 0.3-0.3 0.2-3.5 0.2-3.5 0 0-0.9 0.3-1.9 0.3-1.1 0-1.1-0.7-1.8-1.6-0.7-1-0.3-1.4-0.4-1.8-0.1-0.4-0.7 0-1.1-0.7-0.3-0.6 0.7-0.7 1.4-1.4 0.7-0.6 0.5-1.2 0.8-2.2 0.3-1 1.9-3.8 2.4-4.3 0.6-0.5 1.9-0.5 3.5 0 1.6 0.4 1.9 1.4 2.6 2.2 0.8 0.8 1.7 2.9 1.8 4.2 0.1 1.3-0.5 2-1.8 3.2 0 0-1.3 1.2-1.4 1.7z"/>
				<path id="Layer" class="s21" d="m646 315.7c11.8-1.4 11.4-4.8 11.3-18.3"/>
				<path id="Layer" class="s21" d="m660.3 293.2c4.2 0.5 1.4 17.1 5.2 17.3"/>
			</g>
			<path id="Layer" class="s28" d="m659.5 276.9c1.6 0.4 1.8 1.4 2.6 2.2 0.7 0.8 1.6 2.9 1.7 4.2 0.1 1.2-0.4 2-1.6 3.1-1-0.3-2-0.7-2.8-1.4-1.4-0.8-1.8-2.4-2.7-3.6-0.7-0.6-1.8-0.4-2.7-0.4q-0.2 0-0.4 0c0.4-1.1 1.8-3.6 2.4-4.1 0.3-0.2 0.7-0.4 1.3-0.4 0.7 0 1.4 0.1 2.2 0.4z"/>
			<g id="Layer">
				<path id="Layer" fill-rule="evenodd" class="s29" d="m633 330.7l-6.2 4.6 3.4-7 0.6 2.1z"/>
				<g id="Layer">
					<path id="Layer" class="s23" d="m744.8 191.6v117.8c0 24.8-28.7 52.7-68.6 66.9-39.8-14.2-68.6-42.1-68.6-66.9v-117.8z"/>
					<path id="Layer" class="s23" d="m607.6 255.9h137.2"/>
					<path id="Layer" fill-rule="evenodd" class="s30" d="m705.9 282.4c0 0-5.6 6.9-6.2 7.7-0.6 0.8 1.2-7.6 1.2-8.6 0.1-1-6.1 7.1-6.5 8.4-0.3 1.2 2.8-7.9 4.4-10.6-1.2 1.2-7.7 4.8-9 5.9-1.3 1.1 4.3-8.8 7.2-9 2.9-0.2-9.1 0.8-10.4 1-1.2 0.2 3.9-4.7 4.3-5.3 0.5-0.6 0.9 1.7 0.9 1.7 0 0 1.3-2.2 1.3-2.8 0-0.6 6.1 1.3 6.6 1.3 0.6 0 1.3-0.3 1.3-0.3 0 0-9.2-2.9-7.5-3.1 2.9-0.5 5.7 0.2 7.9 0 2.2-0.2-6.7-2.7-7.1-7.6 5.4 1.5 10.9 9.5 12.9 10-3-3.6-0.4-10.2 0-11.5 0.5 4.3 1.4 7.9 1.4 7.9 0 0 2.1-6.3 8.6-2.9-4.4 1.6-5.6 4.5-5.6 4.5 0 0 4.5-4 13.2-0.9-4.8 2.8-11.7 2.7-11.7 2.7 0 0 15.5 3.1 14.3 11.4-2.8-3.6-11.9-4.8-12.8-6.3 5.9 4.5 9 5.2 8.2 9.9-5.1-4.8-8.9-4.4-12.3-9.1 3.2 5.2 0.5 8.7 3.2 12.1-5.6-5.1-6.6-8.9-7.3-10.4z"/>
				</g>
			</g>
		</g>
		<path id="Layer" fill-rule="evenodd" class="s31" d="m597.2 358c4.9 2.6 10.6 6.1 17.7 9.6 14.2 7.1 33.1 14.1 61.3 14.1 28.1 0 47-7 61.2-14.1 7.2-3.5 12.9-7 17.7-9.6 4.9-2.7 8.8-4.5 12.3-4.5 1.7 0 3.1 0.4 4 1.2 1 0.8 1.5 1.8 1.8 2.9 0.6 2.2 0.4 4.6 0.4 5.8 0 1.8 1.4 3.6 2.9 5.5 1.6 1.9 3.3 4 3.3 6.5 0 2.5-1.2 4.1-2.3 5q-0.2 0.2-0.4 0.3 0 0 0.1 0c-5.6 6-12.5 7.4-17.4 7.2-4.8-0.1-5.5 0.9-6 2.1-0.2-1.5-0.4-2.6 0-3.4-15.7 7.9-42.1 17.6-77.6 17.6-35.5 0-62-9.7-77.6-17.6 0.3 0.8 0.2 1.9-0.1 3.4-0.4-1.2-1.2-2.2-6-2.1-4.8 0.2-11.7-1.2-17.3-7.2q0 0 0.1 0-0.2-0.1-0.4-0.3c-1.2-0.9-2.3-2.5-2.3-5 0-2.5 1.7-4.6 3.2-6.5 1.6-1.9 3-3.7 3-5.5 0-1.2-0.3-3.6 0.3-5.8 0.3-1.1 0.9-2.1 1.8-2.9 1-0.8 2.3-1.2 4.1-1.2 3.5 0 7.4 1.8 12.2 4.5zm-15.5-2.3c-0.7 0.6-1.1 1.3-1.3 2.2-0.6 1.8-0.3 4.1-0.3 5.5 0 2.4-1.7 4.4-3.3 6.3-1.5 1.9-2.9 3.8-2.9 5.7 0 2.1 0.8 3.3 1.8 4 0.4 0.4 0.4 0.3 0.8 0.5-0.2-0.9-0.6-1.9-0.5-2.5 0.2-1.1 0.8-1.9 1.6-2.4 1.6-0.8 4.5-0.6 6.5 0.8 4.9 2.9 41.2 25.2 92.1 25.2 50.9 0 87.2-22.3 92.1-25.2 2-1.4 4.9-1.6 6.5-0.8 0.8 0.5 1.4 1.3 1.5 2.4 0.1 0.6-0.2 1.6-0.4 2.5 0.3-0.2 0.4-0.1 0.8-0.5 0.9-0.7 1.8-1.9 1.8-4 0-1.9-1.4-3.8-3-5.7-1.5-1.9-3.2-3.9-3.2-6.3 0-1.4 0.2-3.7-0.3-5.5-0.2-0.9-0.7-1.6-1.4-2.2-0.7-0.6-1.7-0.9-3.2-0.9-3.1 0-6.9 1.7-11.7 4.3-4.7 2.6-10.5 6.1-17.7 9.7-14.3 7.1-33.5 14.1-61.8 14.1-28.4 0-47.5-7-61.8-14.1-7.2-3.6-13-7.1-17.8-9.7-4.8-2.6-8.6-4.3-11.6-4.3-1.6 0-2.6 0.3-3.3 0.9zm-3.5 20.4c-0.5 0.3-0.8 0.7-0.9 1.5q-0.1 0.5 0 1.3 0 0 0 0.1c0.9 5.1 11.7 7.5 16.8 6.8 1.1-0.2 2-0.2 2.6-0.1-8-4.2-12.9-7.7-14.1-8.6-1.1-0.8-2.2-1.2-3.1-1.2q-0.8 0-1.3 0.2zm191.6 1c-1.3 0.9-6.2 4.4-14.2 8.6 0.7-0.1 1.5-0.1 2.7 0.1 5 0.7 15.9-1.7 16.7-6.8q0-0.1 0-0.1 0.1-0.8 0.1-1.3c-0.2-0.8-0.5-1.2-0.9-1.5q-0.6-0.2-1.4-0.2c-0.9 0-2 0.4-3 1.2z"/>
		<g id="Layer">
			<g id="Layer">
				<path id="Layer" fill-rule="evenodd" class="s9" d="m591.7 366.1l0.3 0.2q-0.1 1.8-0.8 5.8-0.5 2.6-0.5 3.2 0 0.6 0.6 1.1 0.2 0.1 0.1 0.2 0 0.1-0.1 0h-0.1q-0.5-0.4-1.4-0.9-1.3-0.7-1.7-0.9-0.2-0.1-0.1-0.2 0-0.1 0.2 0 0.5 0.2 0.8 0.2 0.2 0 0.4-0.3 0.2-0.2 0.4-1.5l0.2-1.2q-0.3-0.2-2.8-1.6-1.6 1.3-1.8 1.8-0.2 0.3 0 0.7 0.2 0.3 0.5 0.5 0.2 0.2 0.1 0.3 0 0-0.1 0-1-0.6-1.2-0.7-1-0.6-1.3-0.7-0.2-0.1-0.2-0.2 0.1-0.1 0.3-0.1 0.7 0.3 1.6-0.3 0.8-0.6 2.9-2.4 1.8-1.6 3.7-3zm-1 1.2q-1.2 0.8-3.2 2.6 0.7 0.3 0.9 0.5l1.7 1q0.1-0.8 0.3-2 0.2-1.6 0.3-2.1z"/>
				<path id="Layer" class="s9" d="m595.8 368.7l3.1 1.5q0.3 0.1 0.2 0.2 0 0.1-0.2 0.1-0.5-0.2-0.8-0.1-0.3 0.1-0.7 0.5-0.3 0.5-1.2 2.1-0.9 2-1.2 2.9-0.2 0.8 0.1 1.5 0.4 0.8 1.5 1.3 1.1 0.5 1.9 0.4 0.7-0.2 1.3-0.9 0.6-0.7 1.9-3.5 0.7-1.4 0.6-2 0-0.6-0.6-0.8-0.3-0.1-0.2-0.3 0.1-0.1 0.4 0l2.5 1.3q0.1 0 0.1 0.2-0.1 0.1-0.2 0-0.5-0.2-0.9 0-0.3 0.1-0.7 0.7-0.3 0.5-0.9 1.7-0.7 1.5-1.3 2.4-0.6 1-1.2 1.3-0.6 0.4-1.5 0.3-0.9 0-1.9-0.6-1.1-0.5-1.7-1.2-0.6-0.7-0.6-1.4 0-0.7 0.6-1.9l0.8-1.7q1.1-2.3 1.2-2.9 0.1-0.6-0.6-0.9-0.2-0.1-0.1-0.2 0-0.2 0.3 0z"/>
				<path id="Layer" class="s9" d="m609.3 375.5q0.3-0.1 0.4-0.3 0.1-0.1 0.2-0.1 0.1 0.1 0.1 0.1 0 0.3-0.2 1l-0.4 1.3q-0.1 0.1-0.2 0-0.1 0-0.1-0.1 0-1-0.4-1.9-0.4-0.8-1.2-1.1-0.8-0.4-1.4-0.1-0.5 0.3-0.8 0.9-0.2 0.6 0 1.1 0.3 0.5 1.5 1.5 0.8 0.8 1.2 1.3 0.4 0.4 0.5 1.1 0.1 0.7-0.2 1.3-0.4 1-1.6 1.4-1.2 0.4-2.4-0.1-1.1-0.4-1.9-1.6-0.3 0.1-0.4 0.3-0.2 0.2-0.3 0.1-0.1 0 0-0.3 0-0.3 0.9-2.5 0-0.1 0.1-0.1 0.1 0.1 0.1 0.3-0.1 2.8 1.7 3.6 0.9 0.4 1.6 0.1 0.7-0.4 1-1 0.2-0.5 0.1-1-0.1-0.5-0.4-1-0.4-0.4-1.2-1.1-1-0.9-1.3-1.4-0.3-0.6-0.3-1.1 0-0.5 0.1-0.9 0.4-0.9 1.5-1.2 1-0.3 2.1 0.1 0.4 0.2 0.8 0.6 0.5 0.3 0.8 0.8z"/>
				<path id="Layer" fill-rule="evenodd" class="s9" d="m612.1 381.1q-0.1 0.3-0.4 0.9-0.1 0.2-0.2 0.5-0.1 0.3-0.3 1-0.3 0.7-0.3 0.9 0 0.3 0.2 0.5 0.2 0.3 0.4 0.4 0.3 0.1 0.3 0.2-0.1 0.1-0.2 0.1-0.1 0-0.7-0.2l-1.7-0.7q-0.8-0.3-0.8-0.3-0.1-0.1 0-0.2 0-0.1 0.3 0 0.4 0 0.7-0.1 0.2-0.1 0.5-0.8 0.3-0.7 0.7-1.6l0.6-1.7 0.7-1.9q0.4-1 0.4-1.3-0.1-0.3-0.4-0.5-0.4-0.3-0.4-0.4 0-0.1 0.2 0l1.3 0.5 2.1 0.7q2 0.8 2.5 1.7 0.5 0.9 0.1 1.9-0.4 1.1-1.6 1.3-1.1 0.2-3-0.5-0.4-0.1-1-0.4zm0.1-0.3q1 0.4 1.1 0.5 0.6 0.2 1.3 0.2 0.7 0 1.2-0.5 0.5-0.5 0.7-1 0.3-0.8 0-1.5-0.3-0.7-1.6-1.1-0.7-0.3-1.3-0.3-0.1 0.2-0.1 0.2l-0.5 1.6-0.6 1.5q-0.1 0.1-0.2 0.4z"/>
				<path id="Layer" class="s9" d="m619.7 378.8l1.2 0.4 1.8 0.6q0.3 0.1 0.3 0.3 0 0.1-0.2 0-0.8-0.1-1.1 0.3-0.3 0.3-1.3 3.1-0.3 1-0.7 2.3-0.3 1.3-0.4 1.6 0 0.3 0.1 0.5 0.2 0.2 0.7 0.4 0.1 0.1 0.1 0.2-0.1 0.1-0.2 0.1l-1.6-0.6-1.4-0.4q-0.3-0.1-0.2-0.2 0-0.2 0.2-0.1 0.6 0.2 0.9-0.2 0.2-0.3 0.9-2.5 0.7-2 1.1-3.3 0.4-1.3 0.3-1.6-0.1-0.4-0.6-0.6-0.1-0.1-0.1-0.2 0-0.1 0.2-0.1z"/>
				<path id="Layer" class="s9" d="m630.7 382.9q0.5-0.2 0.6-0.3 0.1-0.1 0.2-0.1 0.1 0 0.1 0.3l-0.6 2.3q0 0.2-0.1 0.3 0 0-0.1 0-0.1 0-0.1-0.4-0.1-1.1-0.7-2.1-0.6-0.9-1.5-1.1-0.8-0.3-1.7 0.1-0.8 0.3-1.5 1.1-0.6 0.9-1 2-0.5 1.9 0.2 3.4 0.7 1.5 2 1.8 0.8 0.3 1.7 0 0.9-0.4 1.5-1 0.2-0.2 0.3-0.1 0.1 0 0.1 0.2-0.1 0.2-0.8 0.7-0.7 0.5-1.6 0.6-1 0.2-1.9-0.1-1.1-0.3-1.9-1.2-0.9-0.8-1.2-2-0.3-1.2 0.1-2.5 0.4-1.3 1.3-2.2 0.9-0.9 2.1-1.2 1.2-0.3 2.3 0.1 0.6 0.1 1.1 0.5 0.6 0.4 1.1 0.9z"/>
				<path id="Layer" class="s9" d="m639.5 384.6q0 0.8-0.1 2.2-0.1 0-0.1 0 0 0-0.1 0-0.3-0.9-0.6-1.4-0.3-0.5-0.7-0.8-0.4-0.2-1.4-0.5-1-0.2-1.6-0.2-0.1 0-0.1 0.2-0.1 0-0.1 0.2-0.2 0.5-0.8 2.9 0 0.1 0 0.3 0.5 0.1 0.7 0.1 0.8 0.3 1.3 0.1 0.4-0.2 0.9-0.9 0.1-0.2 0.2-0.1 0.1 0 0 0.2l-0.1 0.2q-0.1 0.6-0.3 1.1-0.2 0.9-0.3 1.7-0.1 0.2-0.2 0.2-0.1 0-0.1-0.2 0-0.8-0.3-1.3-0.4-0.5-1.9-0.8-0.1 0.5-0.4 1.6-0.3 1.4-0.3 1.8 0 0.4 0.3 0.7 0.3 0.3 1.3 0.6 2.6 0.6 3.8-1 0.1-0.2 0.2-0.2 0.1 0 0.1 0.2 0 0-0.1 0.1-0.1 0.2-0.4 0.9-0.1 0.2-0.5 1l-2.8-0.6q-0.6-0.2-1.8-0.5-1.2-0.4-2.1-0.6-0.9-0.2-0.9-0.2-0.1-0.1 0-0.1 0-0.2 0.2-0.1 0.8 0.2 1.1-0.2 0.3-0.3 0.7-1.8l0.3-1.4 0.3-1.3q0.1-0.4 0.4-1.5 0.2-1.1 0.2-1.3 0-0.1-0.2-0.3-0.1-0.2-0.6-0.5-0.2-0.1-0.2-0.2 0-0.1 0.3-0.1l1.3 0.4q0.8 0.2 3.6 0.9 1.9 0.5 1.9 0.5z"/>
				<path id="Layer" fill-rule="evenodd" class="s9" d="m652.2 391q1.2 0.5 1.7 1.2 0.6 0.7 0.5 1.6-0.2 0.9-1.1 1.6-0.9 0.6-2.4 0.4-0.3 0-0.9-0.2-0.4 0-0.5 0-2.1-0.4-2.8-0.4-0.3-0.1-0.3-0.2 0.1-0.1 0.1-0.1 0.1 0 0.6 0 0.3 0 0.4-0.2 0.2-0.1 0.4-0.7 0.2-0.6 0.3-1.7 0.2-1.1 0.3-1.8 0.1-0.6 0.2-1 0.2-1.1 0.2-1.8 0-0.7-0.1-0.9-0.2-0.3-0.6-0.4-0.2-0.1-0.2-0.2 0-0.1 0.2-0.1l1.2 0.2q0.7 0.1 1.2 0.2 1.2 0.1 1.6 0.1 1.2 0.2 1.9 0.9 0.6 0.7 0.5 1.6-0.1 0.8-0.7 1.2-0.5 0.5-1.7 0.7zm-1.8-4.1q-0.3 1.5-0.5 2.4l-0.1 1q0 0.2 0 0.3 0.1 0 0.3 0.1 1.3 0.2 2.2-0.2 0.9-0.3 1-1.5 0.2-0.9-0.4-1.5-0.5-0.5-1.3-0.7-0.5 0-1.2 0.1zm-0.6 4.1q-0.2 0.1-0.2 0.5l-0.4 2.2q-0.1 1.1-0.1 1.2 0 0.2 0.4 0.3 0.3 0.1 1 0.2 0.7 0.1 1.1 0 0.4-0.1 0.9-0.6 0.4-0.5 0.5-1.2 0.2-1.1-0.4-1.7-0.6-0.7-1.9-0.8-0.4-0.1-0.9-0.1z"/>
				<path id="Layer" fill-rule="evenodd" class="s9" d="m660.7 392.2q1 0.5 1.3 1 0.3 0.5 0.4 1.5 0.1 1.2 0.5 1.7 0.4 0.5 1 0.6 0.2 0 0.2 0.1 0 0.1-0.2 0.1-2-0.2-2.4-0.3-0.4-0.2-0.4-1.5-0.1-1.3-0.2-1.9-0.2-0.6-0.6-0.9-0.4-0.4-1.4-0.4-0.3-0.1-0.8 0-0.1 0.4-0.1 0.9-0.2 1.7-0.2 2.3 0 0.5 0.2 0.7 0.3 0.3 0.8 0.4 0.3 0 0.3 0.1 0 0.1-0.3 0.1l-3.5-0.3q-0.3 0-0.2-0.2 0-0.1 0.2-0.1 0.5 0.1 0.7-0.1 0.3-0.1 0.4-0.4 0.2-0.3 0.2-1.2l0.2-1.4 0.2-2.2q0.1-1.6 0.1-2.2 0-0.5-0.2-0.7-0.1-0.2-0.8-0.4-0.2 0-0.1-0.1 0-0.1 0.3-0.1l4 0.3q1.7 0.2 2.4 0.9 0.7 0.7 0.6 1.7 0 0.6-0.4 1-0.3 0.5-0.8 0.7-0.4 0.1-1.4 0.3zm-2.6-0.4q1.4 0.1 2 0 0.7-0.1 1.2-0.6 0.6-0.5 0.6-1.2 0.1-0.8-0.4-1.4-0.4-0.6-1.6-0.8-0.6 0-1.3 0.1-0.3 1.9-0.4 3-0.1 0.4-0.1 0.9z"/>
				<path id="Layer" class="s9" d="m665.6 388.1l1.3 0.1 1.9 0.1q0.4 0 0.4 0.1 0 0.1-0.2 0.2-0.8 0-1 0.5-0.2 0.4-0.4 3.3-0.1 1.1-0.1 2.4 0 1.4 0.1 1.7 0 0.2 0.2 0.4 0.2 0.2 0.7 0.3 0.2 0 0.2 0.1 0 0.1-0.2 0.1l-1.7-0.1h-1.5q-0.2 0-0.2-0.2 0-0.1 0.2-0.1 0.7 0 0.8-0.4 0.1-0.4 0.2-2.6 0.2-2.2 0.2-3.5 0-1.4-0.2-1.7-0.1-0.3-0.6-0.4-0.2 0-0.2-0.2 0-0.1 0.1-0.1z"/>
				<path id="Layer" class="s9" d="m673.9 388.9q-0.5-0.1-0.7-0.1-1.5 0-2.2 0.6-0.7 0.7-0.8 1.1-0.1 0.2-0.2 0.2-0.1 0-0.1 0 0-0.9 0.3-2.3 0.3 0 0.4 0 0.5 0 1.4 0.1 1 0.1 3 0.1 2.1 0 2.7 0 0.6-0.1 1.6-0.1 0 0.5 0.1 1.1 0 0.6 0 0.8 0 0.1 0 0.2 0 0.1-0.1 0.1-0.1 0-0.1 0-0.1-0.1-0.3-0.4-0.4-0.6-0.7-0.9-0.4-0.3-0.9-0.4-0.5-0.1-1.9-0.1-0.1 1-0.2 2.4 0 4.4 0.2 5.2 0.2 0.8 1.3 0.8 0.3 0 0.3 0.2 0 0.1-0.3 0.1h-4.2q-0.2 0-0.2-0.2 0-0.1 0.3-0.1 0.6 0 0.9-0.3 0.4-0.3 0.4-0.8 0.1-0.6 0.1-3.1 0-2.1-0.1-4.2z"/>
				<path id="Layer" fill-rule="evenodd" class="s9" d="m682.8 388.2h0.3q0.9 1.5 2.4 5.3 1 2.4 1.4 3 0.3 0.5 1 0.6 0.3 0 0.3 0.1 0 0.1-0.1 0.1h-0.1q-0.7 0-1.7 0-1.5 0.1-1.9 0.1-0.2 0-0.2-0.1 0-0.1 0.1-0.1 0.6-0.1 0.8-0.2 0.3-0.2 0.2-0.5 0-0.3-0.4-1.5l-0.5-1.1q-0.4 0-3.2 0.1-0.7 2-0.6 2.5 0 0.4 0.3 0.6 0.4 0.2 0.8 0.2 0.2 0 0.2 0.1 0 0.1-0.1 0.2-1.1 0-1.3 0-1.2 0-1.6 0.1-0.2 0-0.2-0.2 0-0.1 0.2-0.1 0.8-0.1 1.2-1.1 0.3-1 1.1-3.6 0.7-2.3 1.6-4.5zm-0.2 1.5q-0.6 1.4-1.3 3.9 0.7-0.1 1-0.1h1.9q-0.2-0.7-0.8-1.9-0.6-1.4-0.8-1.9z"/>
				<path id="Layer" class="s9" d="m690.1 388q0.4 0.5 1.6 1.6l2.4 2.3 2.4 2.3q-0.1-1.3-0.3-3.3-0.1-1.5-0.2-2-0.1-0.5-0.6-0.8-0.4-0.3-1-0.2-0.3 0-0.3-0.1 0-0.1 0.1-0.1 0-0.1 0.9-0.2 0.9-0.1 1.5-0.2h0.9l0.1-0.1q0.3 0 0.3 0.1 0 0.2-0.2 0.2-0.7 0.1-1 0.5-0.2 0.3-0.3 0.8 0 0.6 0.3 3.6l0.3 3.7q0.1 0.3-0.1 0.3 0 0-0.1 0 0-0.1-0.7-0.7-0.6-0.6-1.5-1.4-0.9-0.9-1.4-1.4-1.2-1.2-1.5-1.4-1.1-1-1.3-1.3-0.1-0.2-0.2-0.2-0.1 0.1-0.1 0.3l0.1 1.1q0.3 2 0.5 3.2 0.2 1.2 0.4 1.4 0.1 0.2 0.4 0.4 0.3 0.2 0.7 0.2 0.4-0.1 0.5 0.1 0 0.1-0.3 0.1l-3.3 0.4q-0.2 0-0.3-0.1 0-0.2 0.3-0.2 0.8-0.1 1.1-0.5 0.2-0.4 0.1-1.6l-0.3-2.4q-0.2-2.2-0.4-2.5-0.1-0.4-0.6-0.9-0.5-0.5-1-0.5-0.2-0.1-0.3-0.1 0-0.2 0.3-0.2z"/>
				<path id="Layer" class="s9" d="m700.1 386.9q0.5 0.5 1.7 1.5l2.6 2.1 2.5 2.1q-0.1-1.2-0.4-3.2-0.3-1.5-0.4-2-0.2-0.5-0.6-0.7-0.5-0.3-1-0.2-0.3 0-0.3-0.1 0-0.1 0-0.1 0.1 0 0.9-0.2 0.9-0.2 1.5-0.3l0.9-0.1h0.1q0.3-0.1 0.3 0 0 0.2-0.2 0.2-0.7 0.2-0.9 0.5-0.3 0.4-0.3 0.9 0.1 0.5 0.6 3.6l0.5 3.6q0 0.3-0.1 0.3-0.1 0-0.1 0-0.1 0-0.7-0.6-0.7-0.6-1.7-1.3-0.9-0.8-1.5-1.3-1.2-1.1-1.5-1.4-1.2-0.9-1.4-1.1-0.2-0.2-0.2-0.2-0.1 0-0.1 0.3l0.2 1q0.3 2.1 0.6 3.2 0.3 1.2 0.5 1.4 0.1 0.2 0.5 0.4 0.3 0.1 0.6 0.1 0.5-0.1 0.5 0.1 0 0.1-0.2 0.1l-3.3 0.6q-0.2 0-0.3-0.1 0-0.2 0.2-0.2 0.9-0.1 1.1-0.5 0.2-0.5 0-1.7l-0.4-2.4q-0.3-2.1-0.5-2.5-0.2-0.3-0.7-0.8-0.5-0.5-1-0.5-0.3 0-0.3-0.1 0-0.1 0.3-0.1z"/>
				<path id="Layer" class="s9" d="m708.6 385.3l1.3-0.2 1.9-0.5q0.3 0 0.3 0.1 0.1 0.1-0.1 0.2-0.7 0.2-0.8 0.7-0.1 0.5 0.5 3.4 0.2 1 0.5 2.3 0.3 1.3 0.4 1.6 0.2 0.2 0.4 0.3 0.2 0.2 0.7 0.1 0.2 0 0.2 0.1 0.1 0.1-0.1 0.2l-1.7 0.3-1.4 0.3q-0.3 0.1-0.3-0.1 0-0.1 0.2-0.1 0.6-0.2 0.6-0.6 0.1-0.4-0.4-2.6-0.4-2.2-0.7-3.5-0.3-1.3-0.6-1.5-0.2-0.3-0.7-0.2-0.2 0-0.3-0.2 0-0.1 0.1-0.1z"/>
				<path id="Layer" fill-rule="evenodd" class="s9" d="m717 383.3h0.3q1.1 1.3 3.4 4.7 1.4 2.2 1.9 2.7 0.4 0.4 1.1 0.3 0.3 0 0.3 0.1 0 0.1-0.1 0.1h-0.1q-0.6 0.1-1.6 0.4-1.4 0.3-1.9 0.5-0.2 0-0.2-0.1 0-0.1 0.1-0.1 0.6-0.2 0.8-0.4 0.2-0.2 0.1-0.5-0.1-0.3-0.8-1.4l-0.7-1q-0.3 0.1-3.1 0.8-0.2 2-0.1 2.5 0.1 0.4 0.5 0.5 0.4 0.1 0.7 0.1 0.3-0.1 0.3 0.1 0 0 0 0.1-1.1 0.2-1.3 0.3-1.2 0.3-1.6 0.4-0.2 0-0.2-0.1 0-0.1 0.2-0.2 0.7-0.3 0.9-1.3 0.2-1.1 0.4-3.7 0.2-2.5 0.7-4.8zm0.1 1.6q-0.3 1.4-0.6 4 0.7-0.2 1-0.2l1.9-0.5q-0.4-0.6-1.1-1.7-0.9-1.2-1.2-1.6z"/>
				<path id="Layer" class="s9" d="m739 386.4q-0.3 0.1-0.4 0.1-0.2 0.1-0.9 0.3-0.6 0.2-2.6 0.9l-1.7 0.5q-0.1 0.1-0.7 0.3-0.5 0.2-0.6 0.3-0.5 0.1-0.6 0 0-0.1 0.2-0.2 0.6-0.2 0.8-0.5 0.1-0.4 0.1-0.8-0.1-0.5-0.7-2.4l-0.8-2.4q-0.4-1.1-0.7-1.5-0.2-0.4-0.6-0.6-0.4-0.1-0.9 0-0.2 0.1-0.2-0.1-0.1-0.1 0.1-0.1 0.1-0.1 0.2-0.1 1.1-0.3 2.5-0.8l1.1-0.4q0.2-0.1 0.2 0.1 0.1 0.1-0.1 0.2-0.5 0.1-0.7 0.4-0.3 0.3-0.3 0.6 0 0.2 0.2 0.9l1 3.2 0.6 1.7q0.3 0.8 0.5 1 0.1 0.2 0.4 0.4 0.3 0.1 0.9-0.1 0 0 1.1-0.5 0.9-0.4 1.3-1.4 0.5-1 0.5-1.7 0-0.2 0.1-0.2 0.1 0 0.2 0.1 0.1 0.2 0.3 1.4 0.2 1.2 0.2 1.4z"/>
				<path id="Layer" class="s9" d="m737.1 377.2l1.2-0.4 1.8-0.7q0.3-0.1 0.4 0 0 0.1-0.2 0.2-0.7 0.3-0.7 0.8 0 0.5 1.1 3.3 0.4 1 0.9 2.2 0.5 1.2 0.7 1.5 0.2 0.2 0.4 0.3 0.2 0.1 0.7-0.1 0.2 0 0.3 0.1 0 0.1-0.1 0.2l-1.7 0.6-1.3 0.5q-0.2 0.1-0.3 0 0-0.2 0.1-0.2 0.6-0.3 0.6-0.7-0.1-0.4-0.9-2.5-0.7-2-1.3-3.3-0.5-1.2-0.8-1.4-0.2-0.2-0.7-0.1-0.2 0-0.3-0.1 0-0.1 0.1-0.2z"/>
				<path id="Layer" fill-rule="evenodd" class="s9" d="m747.6 377.5q1.4-0.2 2.2 0.1 0.8 0.3 1.2 1.1 0.3 0.9-0.1 1.9-0.4 1.1-1.8 1.7-0.3 0.1-0.9 0.3-0.4 0.2-0.4 0.2-2 0.8-2.6 1.2-0.3 0.1-0.3 0 0-0.1 0-0.2 0.1 0 0.5-0.3 0.2-0.1 0.3-0.4 0-0.2-0.1-0.8-0.2-0.5-0.6-1.6-0.5-1-0.7-1.6-0.2-0.7-0.4-1-0.4-1.1-0.8-1.7-0.4-0.6-0.6-0.7-0.2-0.1-0.7 0-0.2 0.1-0.2 0-0.1-0.2 0.1-0.2l1.2-0.5q0.5-0.3 1-0.5 1.1-0.5 1.4-0.7 1.2-0.5 2.1-0.3 1 0.3 1.3 1.2 0.3 0.7 0.1 1.3-0.2 0.7-1.2 1.5zm-3.6-2.5q0.5 1.4 0.9 2.3l0.4 0.9q0.1 0.2 0.1 0.2 0.1 0 0.4-0.1 1.2-0.5 1.7-1.2 0.5-0.8 0.1-1.8-0.4-0.9-1.1-1.1-0.7-0.2-1.6 0.1-0.4 0.2-0.9 0.7zm1.6 3.8q0 0.2 0.1 0.6l0.8 1.9q0.5 1.1 0.6 1.2 0.1 0.1 0.4 0 0.4 0 1.1-0.3 0.6-0.3 0.9-0.6 0.3-0.3 0.4-1 0.1-0.6-0.2-1.3-0.4-1-1.3-1.2-0.8-0.3-2 0.2-0.4 0.2-0.8 0.5z"/>
				<path id="Layer" class="s9" d="m755.6 369.2q0.6 0.6 1.4 1.8 0 0.1-0.1 0.1 0 0-0.1 0-0.8-0.5-1.3-0.7-0.6-0.1-1.1-0.1-0.4 0.1-1.4 0.5-0.9 0.5-1.4 0.8 0 0.1 0.1 0.3 0 0 0 0.2 0.2 0.5 1.3 2.7 0 0.1 0.1 0.2 0.5-0.2 0.7-0.3 0.8-0.3 1-0.7 0.2-0.5 0.1-1.4 0-0.1 0.1-0.1 0.1-0.1 0.2 0.1l0.1 0.2q0.2 0.6 0.4 1.1 0.5 0.8 0.8 1.5 0.1 0.2 0 0.3-0.1 0-0.2-0.1-0.5-0.7-1-0.8-0.6-0.1-2 0.5 0.2 0.5 0.7 1.5 0.6 1.3 0.9 1.6 0.3 0.3 0.7 0.4 0.5 0 1.3-0.4 2.4-1.2 2.3-3.2 0-0.3 0.1-0.3 0.1 0 0.2 0.1 0 0.1 0 0.2 0 0.1 0.3 0.9 0 0.2 0.2 1.1l-2.6 1.3q-0.5 0.3-1.7 0.8-1.1 0.5-1.9 0.9-0.8 0.4-0.9 0.4 0-0.1-0.1-0.1 0-0.1 0.2-0.2 0.7-0.4 0.7-0.8 0-0.5-0.7-1.9l-0.6-1.3-0.6-1.2q-0.1-0.4-0.7-1.3-0.5-1-0.6-1.2-0.1-0.1-0.3-0.1-0.3-0.1-0.9 0-0.2 0.1-0.2 0-0.1-0.2 0.2-0.3l1.3-0.5q0.6-0.3 3.3-1.6 1.7-0.9 1.7-0.9z"/>
				<path id="Layer" fill-rule="evenodd" class="s9" d="m763.5 369.8q1.1-0.1 1.6 0.1 0.6 0.2 1.2 0.9 0.8 1 1.4 1.2 0.6 0.1 1.2-0.2 0.1 0 0.2 0.1 0.1 0.1-0.1 0.2-1.7 0.9-2.1 1-0.4 0.1-1.3-0.9-0.7-1-1.2-1.4-0.5-0.4-1-0.4-0.6-0.1-1.4 0.4-0.3 0.2-0.7 0.5 0.2 0.3 0.5 0.8 0.9 1.5 1.2 1.9 0.3 0.5 0.6 0.6 0.3 0 0.8-0.2 0.2-0.2 0.3-0.1 0.1 0.2-0.2 0.3l-3 1.7q-0.2 0.2-0.3 0-0.1-0.1 0.1-0.2 0.5-0.2 0.6-0.5 0.1-0.2 0-0.6 0-0.3-0.5-1.1l-0.7-1.2-1-1.9q-0.9-1.4-1.2-1.8-0.3-0.5-0.6-0.5-0.2-0.1-0.9 0.1-0.1 0.1-0.2 0 0-0.1 0.2-0.2l3.6-2.1q1.4-0.9 2.4-0.7 1 0.2 1.5 1 0.3 0.5 0.3 1.1-0.1 0.6-0.3 1-0.3 0.4-1 1.1zm-2.3 1.2q1.1-0.7 1.6-1.2 0.5-0.5 0.7-1.2 0.1-0.7-0.3-1.3-0.4-0.7-1.1-0.9-0.7-0.3-1.7 0.3-0.6 0.3-1.2 0.8 0.9 1.7 1.5 2.7 0.2 0.3 0.5 0.8z"/>
			</g>
			<path id="Layer" class="s9" d="m643.1 390.8l0.3-1.6-1.6-0.3 0.1-0.6 1.6 0.2 0.3-1.5 0.6 0.1-0.3 1.6 1.6 0.2-0.1 0.7-1.6-0.3-0.3 1.6z"/>
			<path id="Layer" class="s9" d="m725.8 387.2l-0.5-1.5-1.5 0.4-0.2-0.6 1.5-0.5-0.4-1.5 0.6-0.2 0.5 1.5 1.5-0.4 0.2 0.6-1.5 0.5 0.5 1.5z"/>
		</g>
		<path id="Layer" fill-rule="evenodd" class="s4" d="m772.8 375.9q0.8 0 1.4 0.3c0.4 0.2 0.7 0.6 0.9 1.4q0 0.5-0.1 1.3 0 0.1 0 0.1c-0.8 5.1-11.7 7.5-16.7 6.8-1.2-0.2-2-0.2-2.7-0.1 8.1-4.2 12.9-7.7 14.2-8.6 1-0.8 2.1-1.1 3-1.2z"/>
		<path id="Layer" fill-rule="evenodd" class="s4" d="m579.6 375.9c0.9 0.1 2 0.4 3.1 1.2 1.2 0.9 6.1 4.4 14.1 8.6-0.6-0.1-1.5-0.1-2.6 0.1-5.1 0.7-15.9-1.7-16.8-6.8q0 0 0-0.1-0.1-0.8 0-1.3c0.1-0.8 0.4-1.2 0.9-1.4q0.5-0.3 1.3-0.3z"/>
	</g>
</svg>