<svg version="1.2" baseProfile="tiny-ps" xmlns="http://www.w3.org/2000/svg" viewBox="0 0 900 600" width="900" height="600">
	<style>
		tspan { white-space:pre }
		.s0 { fill: #de2910 } 
		.s1 { fill: none;stroke: #ffde00;stroke-width: 8 } 
		.s2 { fill: #ffde00;stroke: #ffde00;stroke-linejoin:round;stroke-width: 2 } 
		.s3 { fill: #fdd301 } 
	</style>
	<path id="Layer" class="s0" d="m0 0h900v600h-900v-600z" />
	<path id="Layer" class="s1" d="m160.85 50.23l11.65 34.79l36.69 0.33l-29.49 21.83l11.02 35l-29.88-21.3l-29.88 21.3l11.02-35l-29.49-21.83l36.69-0.33l11.65-34.79z" />
	<path id="Layer" class="s2" d="m235.08 130.45c53.22 9.73 74.51 50.48 74.51 50.48c0 0 17.03 32.54 13.38 73.6c-2.22 25.02-15.27 44.57-25.14 56.06l24.07 24.07c-2.65 10.89-8.17 16.37-18.09 18.1l-25.26-25.26c-13.35 8.24-43.1 22.64-84.83 19.79c-23.85-1.63-42.36-11.25-55.88-21.98l-56.19 56.19l-0.17-0.17c-32.46 8.7-23.7-23.7-23.7-23.7l56.88-56.88c-1.74-2.47-3.04-4.52-3.9-5.95c-6.74-1.32-19.16-2.51-21.66-1.33c0 0 6.69-22.2 10.64-22.2c3.95 0 26.15 0.3 26.15 0.3l2.43 7.91c18.03 35.48 54.77 43.49 66.6 43.49c29.39 0.4 49.93-6.94 63.76-15.32l-80.65-80.65l-18.08 16.9l-27.67-27.68l45.16-45.16h26.31l16.5 16.5l-23.5 21.96l81.56 81.56c3.35-4 4.82-6.74 4.82-6.74c0 0 19.46-17.94 17.94-72.08c-1.52-54.13-65.99-81.81-65.99-81.81l0 0z" />
	<g id="Layer">
		<path id="Layer" class="s3" d="m652.2 75.3c2.6 0.3 6.8 1.5 9.2 2.6c5.5 2.4 13.1 9.3 14.4 13c1.4 4-0.9 8.2-6 11.1c-3.6 2-5 2.2-12.9 1.8c-12.3-0.7-13.5-1.7-14.3-11c-1.2-12.6-1.1-13 2-15.6c2.4-2.1 3.5-2.4 7.6-1.9z" />
		<path id="Layer" fill-rule="evenodd" class="s3" d="m728 98.2c1.1 1.2 4 6.1 6.6 11c5 9.7 5.2 13.4 1.1 16.3c-3.1 2.2-5.7 1.9-13.1-1.6c-7.2-3.4-9.8-3.4-17.8-0.2l-3.9 1.6l0.6 5.1c0.9 6.3 6.3 23.6 7.4 23.6c0.5 0 6.6-2.7 13.7-6c16.1-7.4 21.4-8.7 29.6-7.2c7 1.3 9.8 3.4 9.8 7.3c0 3.3-2.9 5.9-9.7 8.4c-7 2.6-8.3 4.1-8.1 8.9c0.1 2.3-0.4 10.6-1.1 18.5c-1 10.5-1.2 22.7-0.8 44.4c0.6 28.4 0.5 30.2-1.4 33.8c-1 2.1-2.7 4.3-3.8 4.8c-3.3 1.8-11.8-1.7-15.1-6.3c-1.6-2.3-9-19-9-20.4c0-0.5 0.9-2.1 2.1-3.6c1.9-2.4 2.1-4.5 3-28.9c0.5-14.4 1.1-28.1 1.5-30.5c0.8-5.2-0.4-5.4-5.1-1c-2.9 2.7-3.9 4.9-6 12.8c-2.7 10.1-6.8 19.2-11 24.1c-1.4 1.7-2.5 3.7-2.5 4.5c0 2.8-2.9 7.1-5.2 7.7c-3.3 0.9-6.4-1.6-8.9-7.2c-2.2-4.6-2.5-4.9-5.5-4.4c-4.9 0.8-10.8-5-13.2-13.1l-1.9-6.1l-0.8 7.8c-0.4 4.3-0.5 13.1-0.1 19.5c0.7 12.8-0.2 16.4-4.1 17c-4.4 0.6-8.3-2.6-11.3-9.3c-2.9-6.4-5.1-8.5-9-8.5c-1.6 0-2.7 1.3-4.5 5.5c-4 9-9.9 10.8-14.7 4.5c-2.1-2.9-4.1-17.1-2.8-20.6c1-2.6 6-4.5 9.9-3.8c1.8 0.4 4.6-0.2 7.6-1.5c7.6-3.4 10.5-2.4 10.5 3.5c0 3.5 2.2 5.9 4.5 5c1.2-0.4 1.5-2.5 1.5-10.5v-10l-7.3 3.3c-4 1.9-10.4 4.5-14.2 5.9c-3.9 1.4-11.7 4.8-17.4 7.6c-10.1 4.9-15.3 6.1-19.5 4.5c-1.9-0.7-2.2-8.3-0.5-11.7c1.9-3.6 8.2-9.7 10.1-9.7c1 0 2.3 0.9 3 2c0.7 1.1 1.8 2 2.4 2c1.8 0 26.1-9.3 35-13.4c8.2-3.8 10.4-5.7 10.4-8.8c0-1.7-0.2-1.7-4.2 0.3c-6.5 3.3-14.5 5.8-16.7 5.2c-1.8-0.4-2.1-1.3-2.1-5.3c0-5.4 1.7-11 3.3-11c0.6 0 0.2-0.7-1-1.5c-4.9-3.4-3.2-13.4 3.6-21.1c2.3-2.6 4.1-5.1 4.1-5.5c0-0.5-2.6-0.9-5.7-0.9c-8.9 0-16.3-4.6-13.8-8.6c0.6-0.9 9.9-5.6 20.8-10.6c16.7-7.6 20.7-9 26.4-9.5c7.8-0.6 13.2 1.1 15.7 5c3 4.5 0.2 8.4-9.8 13.6l-5.8 3.1h3.6c4 0 8.6 3.5 8.6 6.5c0 2.4-2.7 7.2-6.6 11.4l-3.4 3.9l2.5 1.6c3.5 2.3 3.2 6-0.6 9.8c-3.1 3.1-2.7 4.7 1.1 4.8c3 0 8 3.9 8 6.2c0 3.4-1.1 4.5-8 9.1c-3.5 2.3-6.7 5.2-7.1 6.4c-0.8 2.2-0.8 2.2 2.5 0.6c4.6-2.1 7.7-1.1 10.2 3.3l2.1 3.7l1.7-7.4c1-4.1 2.1-11.7 2.6-16.9c0.4-5.2 1.4-11.3 2-13.5c0.8-2.6 1-6.8 0.6-12c-0.5-7.4-0.4-8.4 2.1-13.4c1.5-2.9 4.1-6.4 5.8-7.6c1.6-1.3 5.1-4.4 7.7-6.8c2.5-2.5 7.4-6.4 10.8-8.7c3.4-2.3 7-5.6 8-7.3c1-1.8 2.4-3.8 3-4.5c1.7-1.9 4.7-1.4 7 1zm-73.7 45.8c-1.1 0-9.5 8.3-11.9 11.9c-3.2 4.6 2 0.6 7.6-5.9c2.8-3.3 4.8-6 4.3-6z" />
		<path id="Layer" fill-rule="evenodd" class="s3" d="m719 351.2c4.7 0.3 9.2 0.7 10.1 0.7c0.9 0.1 3.4 1.3 5.5 2.7c2.1 1.5 5.4 3.1 7.2 3.6c3 0.8 3.3 1.3 3 4.1c-0.2 2.4-1 3.5-3.3 4.6c-6.2 3-21.4 8-28.9 9.6c-11.5 2.3-20.6 7.7-20.6 12c0 2.6 3.2 1.3 5-2c1.9-3.4 7.4-7.5 10.2-7.5c1 0 3 1.2 4.3 2.6c2.3 2.5 2.4 2.5 7.6 1c2.9-0.9 6.6-1.6 8.1-1.6c4.1 0 12.5 3.8 13.1 5.9c0.6 2.6-1.7 7.4-4.7 9.8c-1.7 1.4-2.6 3-2.6 5c0 3.5-2.6 6.1-9.6 9.6c-5.9 3-11.4 7.8-11.4 10.1c0 0.9 0.4 1.6 1 1.6c1.7 0 11.7-4.7 12.4-5.9c1.1-1.7 7.7-1.3 9.8 0.6c4 3.6 1.6 5.9-10.7 10.3c-4.9 1.8-10.8 4.2-13 5.4c-3.5 1.8-3.7 2.1-1.8 2.4c1.3 0.2 5.8-0.4 10-1.2c19.7-4 32.4-5.6 36.3-4.6c4.5 1.2 6.4 3.2 5.5 5.9c-0.7 2.3-1.5 2.6-12 4.1c-12 1.8-31.6 5.7-32.3 6.6c-0.4 0.4 1.3 0.4 3.8 0c12.7-1.9 15.4-1.8 21.5 0.3c10.5 3.7 11.6 7.2 6 19.5c-4.2 9.2-6.3 17.1-6.7 25.1l-0.3 5.9l4.9 0.8c5.6 0.8 16.3 5.7 19 8.7c2.3 2.5 1.5 6.5-1.7 8.6c-1.3 0.8-5.9 1.8-10.3 2.1c-4.3 0.3-11.1 1.5-15 2.5c-8.2 2.2-11.8 1.5-13.4-2.6c-0.9-2.5-1.2-2.5-7.7-2c-13.9 1.3-30.2 3.7-45 6.7c-9.3 1.8-16.3 2.8-17.9 2.4c-3.6-0.9-10.4-7.8-10.4-10.5c0-3 4.3-7.1 7.4-7.1c1.4 0 3.7 0.5 5.1 1.2c2 0.9 4.3 0.9 10.3-0.1c4.2-0.7 19.8-3 34.5-5.1c14.8-2.1 27.1-4.1 27.4-4.3c0.9-0.9-7-9.7-8.7-9.7c-2.1 0-3.2 0.9-6.2 5c-2.2 2.8-4.4 4.1-11.1 6.4c-8.7 3.1-11.5 3-12.4-0.4c-0.7-2.6-4.8-1.7-8 1.7c-2.8 3-4.8 2.9-7.7-0.3c-4.6-5.1-5.4-5.9-8.1-7.8c-4-2.7-7.5-11-7.5-17.5c0-7.1 2.7-11.1 10-15.1c7.7-4.1 4.5-3.7-7.6 1c-5.6 2.2-11.5 4-13.1 4c-5.2 0-5.6 0.9-7 15.7c-1.5 14.8-4.5 29.4-6.8 33c-2.5 3.8-7.2 5.6-13.2 5.1c-6.8-0.6-21-7.5-26.5-13c-6.9-6.9-11.8-20.9-8.4-23.7c2.2-1.8 6.1-0.7 11 3.3c6 4.8 7.9 5.6 13.9 5.6c7.3 0 10.1-2.3 12.6-10.3c2.6-8.4 5.9-24.2 6.2-29.7c0.4-5.5-0.3-5.5-9.7-0.3c-6 3.3-6.6 3.4-8.8 2c-4.3-2.8-6.2-17.7-3.1-23.7l1.6-3h-4.3c-6.6-0.1-12.8-1.8-18-5.1c-9.2-5.9-7.7-9.1 7.2-15c10.2-3.9 11.5-4.8 15.9-9.8c6.4-7.5 10.1-12.6 10.1-13.8c0-0.5-1.7-1.5-3.7-2.2c-8.1-2.5-10.4-7.1-7-13.8c2.5-4.7 5-6.2 13.7-8.4c10.4-2.6 19.9-2.2 23.3 0.9c1.2 1.1 4.3 3 7 4.1c4.1 1.8 4.7 2.4 4.7 5.1c0 3.2-2.6 8.9-9.1 20.2c-2.2 3.6-3.9 7.1-3.9 7.7c0 0.5 1 1.3 2.3 1.7c3.7 1.1 5.8 3.5 5.1 5.8c-0.4 1.2-2.7 4.1-5.3 6.6c-2.8 2.8-6.5 8.2-9.4 13.9c-2.6 5.2-4.6 9.5-4.5 9.6c0.2 0.1 2.1 0.8 4.3 1.6c4.9 1.8 6.5 4.7 6.5 11.7v5.3l6.8-0.7c3.7-0.3 9.7-1.7 13.5-3.2l6.7-2.5l-1.9-2.1c-2.6-2.7-6.3-11.2-9.1-20.6c-5-16.8 1.2-32 16.1-39.6c2.9-1.4 7-3.8 9.2-5.2l3.9-2.6l-9.3-4.3c-15.3-7.2-16.2-9.2-6.8-15.3c7.1-4.6 8.8-5 24.6-5.9c6.5-0.3 15.6-0.3 20.3 0.1zm-31.6 54.2c-4.9 2.2-6.4 5.1-6.4 12.7c0 3.7 0.3 8 0.6 9.7l0.6 3.1l3.7-2.6c5.4-4 9.1-7.5 9.1-8.7c0-0.6-1.5-1.8-3.3-2.6c-2.8-1.3-3.2-2-3.1-5.2c0.1-2.6 0.8-4.3 2.5-5.7c2.9-2.4 1-2.7-3.7-0.7zm-4.9 36.6c-0.8 0-1.5 0.4-1.5 1c0 0.5 0.7 0.7 1.5 0.4c0.8-0.4 1.5-0.8 1.5-1c0-0.2-0.7-0.4-1.5-0.4zm4.9 12.1c-1.1 0-1.4 0.3-0.6 0.6c0.7 0.3 1.6 0.2 1.9-0.1c0.4-0.3-0.2-0.6-1.3-0.5zm-3.4 1c-0.8 0-2.4 0.4-3.5 0.9c-1.3 0.5-1.4 0.9-0.5 0.9c0.8 0 2.4-0.4 3.5-0.9c1.3-0.5 1.4-0.9 0.5-0.9zm-7.6 2c-1.1 0-1.4 0.3-0.6 0.6c0.7 0.3 1.6 0.2 1.9-0.1c0.4-0.3-0.2-0.6-1.3-0.5zm45.1 1.3l-4 1.2l4 1.9c5.2 2.6 5.6 5.1 1.4 8.6l-3.4 2.8l3.7 1.5c5.2 2.2 6.7 2 7.4-1.2c0.3-1.5 1.3-5.3 2-8.5c0.8-3.2 1.2-6.2 0.9-6.7c-0.8-1.3-7.1-1.1-12 0.4zm-32 10.2c-2.2 0.7-4.1 1.4-4.2 1.4c-0.2 0-0.2 1-0.2 2.2c0.1 1.7 0.2 1.9 0.6 0.5c0.3-1 1.4-1.7 2.7-1.7c1.2 0 3.1-0.6 4.2-1.4c2.8-2.1 1.4-2.6-3.1-1zm-1.6 9.5l-2.9-2.9v11l4.8-0.7c2.6-0.4 5-0.9 5.4-1.1c1.4-0.9-0.4-3.4-2.4-3.4c-1.1 0-3.3-1.3-4.9-2.9z" />
	</g>
</svg>