<svg version="1.2" xmlns="http://www.w3.org/2000/svg" viewBox="0 0 900 600" width="900" height="600">
	<title></title>
	<style>
		.s0 { fill: #dd0000 } 
		.s1 { fill: #ffffff } 
		.s2 { fill: #003893 } 
		.s3 { fill: #5e462d;stroke: #000000;stroke-linecap: round;stroke-linejoin: round;stroke-width: 2 } 
		.s4 { fill: #5e462d;stroke: #000000;stroke-width: 1 } 
		.s5 { fill: #000000;stroke: #000000;stroke-width: 2 } 
		.s6 { fill: #5e462d } 
		.s7 { fill: #000000;stroke: #000000;stroke-linecap: round;stroke-linejoin: round;stroke-width: 2 } 
		.s8 { fill: #000000 } 
		.s9 { fill: none } 
		.s10 { fill: #ffd200;stroke: #000000;stroke-linejoin: round;stroke-width: 2 } 
		.s11 { fill: #f7db17;stroke: #000000;stroke-linejoin: round;stroke-width: 1 } 
	</style>
	<path id="Layer" class="s0" d="m0 0h900v600h-900z"/>
	<path id="Layer" class="s1" d="m0 0h900v400h-900z"/>
	<path id="Layer" class="s2" d="m0 0h900v200h-900z"/>
	<g id="g6">
		<path id="rect4" class="s2" d="m0 0h300v600h-300z"/>
		<path id="rect4" class="s1" d="m0 200h300v200h-300z"/>
		<path id="rect4" class="s0" d="m0 250h300v100h-300z"/>
		<g id="g1617">
			<path id="path3786" class="s3" d="m187.1 301.5c2.9 3.7 3.3 8 8.6 8.8 8 1.2 14.6 1.4 22.6-0.8 3.1 0.7 7.4-0.8 9.5 0.5 0.4 0.4 0.5 0.7 0.5 0.9 3.6 0.4 4.1 3.8 6.4 4.7-0.8 0.4-1.8 0.7-2.7 0.7 6.1 1.9 1.7 5.4-2.5 3.8 0.4 0.3 0.7 0.8 0.7 1.2l0.1 0.1 2.4 0.8-3.1 0.3c-1 0.9-3.3 1.4-7.2 0-4.1-1.4-5-3.6-7.1-6.2-2.1-1.3-5.2 0-8.3-0.7-13.3-1.3-15 1.7-22.4 0.5-4.7-0.8-7.8-5.4-13.5-7.7-1.1-1.3-3.8-2.7-3.9-4.7 1.5-3.1 14.7-3.1 16.7-4.7 1.2 0.6 1.9 0.9 3.2 2.5z"/>
			<path id="path3794" class="s4" d="m170 278.5c27.8-9.3 50.8 2 64.6 2.8 17.3 1 18.2-3.6 27.5-5.5-14 28.1-47.4 7.7-66 17.3l-26.2-9z"/>
			<path id="path3800" class="s5" d="m102.3 312.1l-6.2-0.7c-2.3-0.1-4.9-0.6-7-1.3-3.3-1.4-8.9-1.2-12.7-1-3.7 1.3-6.8 2-10.9 1.2-2.4 1.3-7.6 1.5-8.5 1.9-1.1 0.5-1.8 0.8-1.9 1.4-0.2 1 0.2 2.6-0.7 3.2-0.8 0.6-1.8 1.2-2.6 0.8l-2.2 1.3 1.4-2.1q-0.2-0.5-0.4-1.2c-2 2-4.4 2.5-5.6 1.8-0.7-0.3-1.5 0.4-2.4 1.1 0.1-1 0.6-1.5 1.6-2.1q0-0.2 0-0.4c-0.1-1.6 0.7-1.2 1.9-2.4-1 0.1-1.9 0.6-3.2 0.2 0-0.2-0.2-0.4-0.3-0.7-0.7-0.5-1.8 0.6-2.9 0.7 0.3-0.8 1.1-1.7 2.5-2-0.1-1 0.4-2 3-2.4 1.5-0.2 3.4 0.8 4.4-0.3 1.2-0.8 2.6-0.8 3.9-0.8 1.3-0.4 2.9-0.5 3.9-1.6 2.7-1.1 4.1-0.9 6.5-1.2 3.2 0 2.7-2.6 8.9-3.2q6.2 0.8 12.4-0.1l12.7-3.1z"/>
			<path id="path3796" class="s5" d="m54.8 277.2c-2.5-7.9 5.1-8.3 9.1-2l-3.7 3.5-6.1 2.3c0.7-0.8 1-2.7 0.7-3.8z"/>
			<path id="path5435" class="s6" d="m102.3 312.1l-6.2-0.7c-2.3-0.1-4.9-0.6-7-1.3-3.3-1.4-8.9-1.2-12.7-1-3.7 1.3-6.8 2-10.9 1.2-2.4 1.3-7.6 1.5-8.5 1.9-1.1 0.5-1.8 0.8-1.9 1.4-0.2 1 0.2 2.6-0.7 3.2-0.8 0.6-1.8 1.2-2.6 0.8l-2.2 1.3 1.4-2.1q-0.2-0.5-0.4-1.2c-2 2-4.4 2.5-5.6 1.8-0.7-0.3-1.5 0.4-2.4 1.1 0.1-1 0.6-1.5 1.6-2.1q0-0.2 0-0.4c-0.1-1.6 0.7-1.2 1.9-2.4-1 0.1-1.9 0.6-3.2 0.2 0-0.2-0.2-0.4-0.3-0.7-0.7-0.5-1.8 0.6-2.9 0.7 0.3-0.8 1.1-1.7 2.5-2-0.1-1 0.4-2 3-2.4 1.5-0.2 3.4 0.8 4.4-0.3 1.2-0.8 2.6-0.8 3.9-0.8 1.3-0.4 2.9-0.5 3.9-1.6 2.7-1.1 4.1-0.9 6.5-1.2 3.2 0 2.7-2.6 8.9-3.2q6.2 0.8 12.4-0.1l12.7-3.1z"/>
			<path id="path5437" class="s6" d="m54.8 277.2c-2.5-7.9 5.1-8.3 9.1-2l-3.7 3.5-6.1 2.3c0.7-0.8 1-2.7 0.7-3.8z"/>
			<path id="path5439" class="s6" d="m187.1 301.5c2.9 3.7 3.3 8 8.6 8.8 8 1.2 14.6 1.4 22.6-0.8 3.1 0.7 7.4-0.8 9.5 0.5 0.4 0.4 0.5 0.7 0.5 0.9 3.6 0.4 4.1 3.8 6.4 4.7-0.8 0.4-1.8 0.7-2.7 0.7 6.1 1.9 1.7 5.4-2.5 3.8 0.4 0.3 0.7 0.8 0.7 1.2l0.1 0.1 2.4 0.8-3.1 0.3c-1 0.9-3.3 1.4-7.2 0-4.1-1.4-5-3.6-7.1-6.2-2.1-1.3-5.2 0-8.3-0.7-13.3-1.3-15 1.7-22.4 0.5-4.7-0.8-7.8-5.4-13.5-7.7-1.1-1.3-3.8-2.7-3.9-4.7 1.5-3.1 14.7-3.1 16.7-4.7 1.2 0.6 1.9 0.9 3.2 2.5z"/>
			<path id="path3016" class="s7" d="m81.6 269.9c2.4 0 4.4 0.2 5.5 0.3 15.4 1.3 12.1 3.6 26.7 8.4 8.9 2.9 8.9 4.6 11.1 5.1 3.4 0.8 23.7 0.1 25.5-0.6 5.6 0.2 13-3.1 19.6-4.6 23-5 32.8 8.9 38.4 19.9 1.3 2.4 3.8 4.1 7.2 4.3 4.2 0.6 8-1.4 8.8-1.3 3.9 0.5 4.7 4.5 6.8 7.2 1.7 2.1 5.5 3.6 7.3 4.6 2.4 1.4 2.9 1.4 5.4 0.4 1.8-2.2 4.7-2.2 6.3-1.4 1.2 0.2 2.5-0.5 3.6-1.4 0.1 1-0.7 2.6-2.3 2.6 0.3 0.9-0.1 1.5-2.3 2.9 1.8-1 3.9-1.7 5.7-0.2 1-0.2 2.1-0.4 3.2-1.1-0.4 1.2-1.7 1.8-2.4 2 0.8 1.8-1.6 3.2-3.6 3 1.8 0.6 2.7 1.3 2.9 1.9 0.7 0.5 1.5 0.7 2.3 0.8-0.9 0.3-1.9 0.5-2.7 0.3-1 0.7-3 0.9-5.1 0.2-4.9 0.1-6.5-3-15.4-2.5-2.6-0.2-4.5-3.9-6.6-6.5-2.1-1.3-6.1-1.4-9.2-2.1-8 2.1-13.7 2.3-21.8 1.1-5.3-0.8-9.5-3.8-12.5-7.5-1.3-1.6-2-2-3.2-2.6-1.6 1.3-4.6 0.6-6.3 1.4-6.1 3-11.6 5.5-18 7.7-13.5 4.5-33.1 0.3-36.7-1.9 1.2 1.1 1.7 6-0.6 6.9-3.5 1.5-14.6 2.3-21.1 0.8-3.1 0-6.1 2.7-12.2 3-2.9 0.2-4.3 2.2-5.5 4.2-0.6 1.5-2.4 2.3-3.8 2.3-0.6 0.4-1.1 1.4-1.1 2.6-1.1-1 0-2.5-0.4-3.1-0.5-0.7-0.5-1.6 0.7-3.1-2.1 2.1-4.7 2.4-6.1 1.6-1.3 0.2-1.7 1.1-2.5 1.6q-0.1-1.7 1.5-2.5v-0.1c-0.3-0.7-0.2-1.7 0.5-2.8-1.1-0.3-1.7-0.8-2-1.3-0.4-0.5-1.4 0.1-2.2 0.5 0.5-1 0.9-1.5 2.3-2 0.3-0.7 1-1.5 1.7-2 3.1-1.9 4.2 0 6.3 0 0.1-0.2 2.7 0.1 3.4 0.5 0.7 0.6 10.1-3.8 11.3-3.5 3.8-0.7 3.5-3 5.2-4.4-5.7-1.4-6-10.5-16.1-13.1-3.7 0-8.6-0.9-11.9-1.9-3.4 3.6-6 2.5-10.7 4.2-4 2.9-11.8 1.2-11.2-0.3 0.1-0.6 2.4-2.4 3.9-2.3 5.6 0.3 6.6-1 7.4-2.1 0.8-1.1 0.3-0.8-0.3-1.5-1.7-2.3-4.1 1.8-6.9 2-2.8 0.1-2.4 0.6-3.9 1.8-1.3 0.9-5.1 0.9-7.8-0.3-1.2-5.5 1.5-6 4.2-9 2.6-5.7 6.4-9.1 12.9-9.8 6.8-5.7 16.7-7.1 23.9-7.3q1.5 0 2.9 0z"/>
			<path id="path5433" class="s6" d="m81.6 269.9c2.4 0 4.4 0.2 5.5 0.3 15.4 1.3 12.1 3.6 26.7 8.4 8.9 2.9 8.9 4.6 11.1 5.1 3.4 0.8 23.7 0.1 25.5-0.6 5.6 0.2 13-3.1 19.6-4.6 23-5 32.8 8.9 38.4 19.9 1.3 2.4 3.8 4.1 7.2 4.3 4.2 0.6 8-1.4 8.8-1.3 3.9 0.5 4.7 4.5 6.8 7.2 1.7 2.1 5.5 3.6 7.3 4.6 2.4 1.4 2.9 1.4 5.4 0.4 1.8-2.2 4.7-2.2 6.3-1.4 1.2 0.2 2.5-0.5 3.6-1.4 0.1 1-0.7 2.6-2.3 2.6 0.3 0.9-0.1 1.5-2.3 2.9 1.8-1 3.9-1.7 5.7-0.2 1-0.2 2.1-0.4 3.2-1.1-0.4 1.2-1.7 1.8-2.4 2 0.8 1.8-1.6 3.2-3.6 3 1.8 0.6 2.7 1.3 2.9 1.9 0.7 0.5 1.5 0.7 2.3 0.8-0.9 0.3-1.9 0.5-2.7 0.3-1 0.7-3 0.9-5.1 0.2-4.9 0.1-6.5-3-15.4-2.5-2.6-0.2-4.5-3.9-6.6-6.5-2.1-1.3-6.1-1.4-9.2-2.1-8 2.1-13.7 2.3-21.8 1.1-5.3-0.8-9.5-3.8-12.5-7.5-1.3-1.6-2-2-3.2-2.6-1.6 1.3-4.6 0.6-6.3 1.4-6.1 3-11.6 5.5-18 7.7-13.5 4.5-33.1 0.3-36.7-1.9 1.2 1.1 1.7 6-0.6 6.9-3.5 1.5-14.6 2.3-21.1 0.8-3.1 0-6.1 2.7-12.2 3-2.9 0.2-4.3 2.2-5.5 4.2-0.6 1.5-2.4 2.3-3.8 2.3-0.6 0.4-1.1 1.4-1.1 2.6-1.1-1 0-2.5-0.4-3.1-0.5-0.7-0.5-1.6 0.7-3.1-2.1 2.1-4.7 2.4-6.1 1.6-1.3 0.2-1.7 1.1-2.5 1.6q-0.1-1.7 1.5-2.5v-0.1c-0.3-0.7-0.2-1.7 0.5-2.8-1.1-0.3-1.7-0.8-2-1.3-0.4-0.5-1.4 0.1-2.2 0.5 0.5-1 0.9-1.5 2.3-2 0.3-0.7 1-1.5 1.7-2 3.1-1.9 4.2 0 6.3 0 0.1-0.2 2.7 0.1 3.4 0.5 0.7 0.6 10.1-3.8 11.3-3.5 3.8-0.7 3.5-3 5.2-4.4-5.7-1.4-6-10.5-16.1-13.1-3.7 0-8.6-0.9-11.9-1.9-3.4 3.6-6 2.5-10.7 4.2-4 2.9-11.8 1.2-11.2-0.3 0.1-0.6 2.4-2.4 3.9-2.3 5.6 0.3 6.6-1 7.4-2.1 0.8-1.1 0.3-0.8-0.3-1.5-1.7-2.3-4.1 1.8-6.9 2-2.8 0.1-2.4 0.6-3.9 1.8-1.3 0.9-5.1 0.9-7.8-0.3-1.2-5.5 1.5-6 4.2-9 2.6-5.7 6.4-9.1 12.9-9.8 6.8-5.7 16.7-7.1 23.9-7.3q1.5 0 2.9 0z"/>
			<path id="path3798" class="s8" d="m72.7 281c5.7-11-7.1-10.8-11.1-2.6 0.3 0.8 1.5 0.4 1.7-1 5.7-8.6 14.2-3.2 8.3 3.4-0.6 1.6 0.3 3.7 1.6 3-0.8-1.1-0.8-2-0.5-2.8z"/>
			<path id="rect5353" fill-rule="evenodd" class="s8" d="m51.9 286.7c-1.6-0.3-2.1-0.7-1-2.1 1.8-1.8 3-1.4 5.6-0.5-1.9 2-2.6 2.7-4.6 2.6zm1.8-2.8c0.6 0.6 0.7 1.3 0.4 1.9 0.8-0.4 0.8-0.8 1.8-1.6-1.2-0.2-0.8-0.5-2.2-0.3zm-2.5 2c0.7 0.5 1.1 0.5 2.1 0.3-1.2 0.1-1.6-1-1.8-1.7-0.5 0.5-0.6 1.2-0.3 1.4z"/>
			<path id="path5358" class="s1" d="m83.8 289.4c3.7 1.9 4.3 2.1 7.7 4 2.5 1.3 3 2.7 4.3 5 3.4 6.1 1.6-1.3 7.5 7.3-1.9-1.2-4.2 0.1-8.1 3.8-5.7-1.4-6-10.5-16.1-13.1-3.7 0-8.6-0.9-11.9-1.9-3.4 3.6-6 2.5-10.7 4.2-4 2.9-11.8 1.2-11.2-0.3 0.1-0.6 2.4-2.4 3.9-2.3 5.6 0.3 6.6-1 7.4-2.1 0.8-1.1-0.5-1.8-1.2-2.2 1.2-0.5 2.2-0.8 3.9-0.6 3.7 0.1 4.4 1.7 7.4 1 0 0 1.9-2.3 5.4-2 4.7 0.4 6-1.8 11.7-0.8z"/>
			<path id="path5363" class="s1" d="m173.5 301.9c3 0.5 4.3-0.7 7.3 1.2-1.6 1.3-4.6 0.6-6.3 1.4-6.1 3-11.6 5.5-18 7.7-13.5 4.5-33.1 0.3-36.7-1.9-1.3-1.2-0.3-1.5-1.5-2.2 2.1-2.1 1.3-3.5 0.7-5.6 3.5 1.1 3.7 1.3 5 2.4 5 2.1 2.8-0.6 10.4 1 31.5 4.9 28.6-3.6 36.3-4.2q1.2 0 2.8 0.2z"/>
			<path id="path5368" class="s9" d="m170.7 302.3q1.2-0.1 2.7 0.2c3 0.4 4.3-0.7 7.3 1.2"/>
		</g>
		<g id="g6269">
			<path id="path2599" fill-rule="evenodd" class="s10" d="m202.2 129.6l-36-2.1-15.7 32.5-16.3-32.3-35.9 2.7 19.8-30.2-20.3-29.8 36 2 15.7-32.4 16.3 32.2 35.9-2.6-19.8 30.1z"/>
			<path id="path6264" fill-rule="evenodd" class="s11" d="m98.3 130.4l103.4-60.8m-103.9 0.8l104.4 59.2m-84.1-29.4l63.8-0.5m-15.7 27.8l-32.4-55.1m0.4 55.3l31.6-55.5m-16.3-32.2l1 120"/>
		</g>
	</g>
</svg>