<svg version="1.2" xmlns="http://www.w3.org/2000/svg" viewBox="0 0 900 600" width="900" height="600">
	<title></title>
	<style>
		.s0 { fill: #00247d } 
		.s1 { fill: none;stroke: #ffffff;stroke-width: 52 } 
		.s2 { fill: none;stroke: #ffffff;stroke-width: 86.7 } 
		.s3 { fill: none;stroke: #cf142b;stroke-width: 52 } 
		.s4 { fill: #ffffff } 
		.s5 { fill: #000000 } 
		.s6 { fill: #ce1126 } 
		.s7 { fill: #de4f40 } 
		.s8 { fill: #ba1b24 } 
		.s9 { fill: #c31525 } 
		.s10 { fill: #aa1921 } 
		.s11 { fill: none;stroke: #1a1a1a;stroke-width: .5 } 
		.s12 { fill: #f3d328 } 
		.s13 { fill: #eac102 } 
		.s14 { fill: none;stroke: #000000;stroke-width: .5 } 
		.s15 { fill: #cccccc } 
		.s16 { fill: #e6e6e6 } 
		.s17 { fill: #f3d328;stroke: #000000;stroke-width: .5 } 
		.s18 { fill: #f3d328;stroke: #1a1a1a;stroke-width: .5 } 
		.s19 { fill: #f7e272 } 
		.s20 { fill: #f4d30d } 
		.s21 { fill: #fcc917 } 
		.s22 { fill: #1d369e } 
		.s23 { fill: #4163ef } 
		.s24 { fill: #2545cb } 
		.s25 { fill: #5674f1 } 
		.s26 { fill: #2ca02c } 
		.s27 { fill: #237f23 } 
		.s28 { fill: #32b532 } 
		.s29 { fill: none;stroke: #000000;stroke-width: .6 } 
		.s30 { fill: #6cd66c } 
		.s31 { fill: #d71e1e } 
		.s32 { fill: #9b1616 } 
		.s33 { fill: #e43a3a } 
		.s34 { fill: #ed7676 } 
		.s35 { fill: #cccccc;stroke: #000000;stroke-width: .5 } 
		.s36 { fill: #757369 } 
		.s37 { fill: #333333 } 
	</style>
	<g id="Layer">
		<path id="Layer" class="s0" d="m0 0h450v300h-450z"/>
		<g id="Layer">
			<path id="Layer" class="s1" d="m0 0l450 300m0-300l-450 300"/>
			<path id="Layer" class="s2" d="m225 0v300m-225-150h450"/>
			<path id="Layer" class="s3" d="m225 0v300m-225-150h450"/>
		</g>
		<path id="Layer" class="s0" d="m0 300h900v300h-900zm450-300h450v600h-450z"/>
	</g>
	<circle id="circle1608" class="s4" cx="675" cy="300" r="140"/>
	<g id="text12154-1-7">
		<path id="path8022" class="s5" d="m606.5 395l13-18.7 3.7 2.6-12.9 18.7z"/>
		<path id="path8024" class="s5" d="m617.4 393.8l4.2 1.7q-0.7 2.1 0 3.6 0.6 1.5 2.5 2.5 1.9 1 3.4 0.6 1.4-0.3 1.9-1.4 0.4-0.7 0.2-1.5-0.1-0.7-1-1.6-0.6-0.6-2.8-2.5-2.9-2.5-3.6-4.3-1.1-2.7 0.1-5.1 0.8-1.5 2.4-2.4 1.5-0.9 3.5-0.8 2 0.1 4.4 1.3 3.8 1.9 4.9 4.6 1.1 2.6-0.2 5.4l-4.2-1.8q0.5-1.7 0-2.9-0.5-1.1-2.3-1.9-1.7-0.9-3.1-0.7-0.9 0.1-1.3 0.9-0.4 0.7 0 1.6 0.4 1 3.1 3.2 2.6 2.2 3.7 3.7 1 1.5 1.2 3.2 0.1 1.7-0.9 3.6-0.8 1.8-2.6 2.8-1.7 1-3.8 0.9-2.2-0.2-4.8-1.5-3.9-1.9-5-4.7-1.2-2.9 0.1-6.5z"/>
		<path id="path8026" class="s5" d="m635.8 410.6l6.2-21.7 4.4 1.3-5.1 18 10.9 3.1-1 3.7z"/>
		<path id="path8028" fill-rule="evenodd" class="s5" d="m676.4 417.6l-5-0.4-1.6-5.3-9-0.8-2.3 5-4.9-0.4 10.8-21.9 4.8 0.4zm-7.7-9.6l-2.4-8.7-3.7 8.1z"/>
		<path id="path8030" class="s5" d="m680.4 417.3l-2.8-22.5 4.5-0.6 11 13.9-1.8-15 4.2-0.5 2.8 22.5-4.6 0.6-10.9-13.6 1.8 14.7z"/>
		<path id="path8032" fill-rule="evenodd" class="s5" d="m697.1 392.2l8-2.7q2.6-0.9 4.2-1 2.1-0.1 3.9 0.8 1.8 1 3.3 2.8 1.4 1.8 2.4 4.8 0.9 2.7 0.9 4.8 0 2.7-1 4.6-0.7 1.5-2.4 2.8-1.3 0.9-3.7 1.8l-8.1 2.8zm5.5 2.1l4.9 14.2 3.3-1.1q1.8-0.6 2.5-1.1 1-0.6 1.5-1.5 0.5-0.9 0.4-2.5-0.1-1.5-0.9-4-0.9-2.5-1.8-3.7-0.9-1.2-1.9-1.7-1.1-0.4-2.4-0.3-1 0.1-3.6 1z"/>
		<path id="path8034" class="s5" d="m722.7 399.3l3.6-2.7q1.5 1.7 3.1 2 1.6 0.3 3.4-0.8 1.9-1.1 2.4-2.5 0.5-1.4-0.2-2.4-0.4-0.7-1.1-1-0.7-0.2-1.9 0-0.8 0.2-3.7 1-3.6 1.1-5.6 0.8-2.7-0.6-4.1-2.9-0.9-1.5-0.8-3.3 0.1-1.8 1.3-3.4 1.2-1.7 3.4-3 3.7-2.2 6.5-1.7 2.8 0.6 4.5 3.2l-3.8 2.5q-1.2-1.4-2.4-1.5-1.2-0.2-2.9 0.8-1.7 1-2.3 2.3-0.3 0.8 0.1 1.6 0.4 0.7 1.3 0.8 1.1 0.2 4.4-0.8 3.3-1 5.1-1.1 1.8-0.1 3.3 0.7 1.6 0.8 2.7 2.6 1 1.7 0.9 3.7-0.1 2-1.4 3.8-1.2 1.7-3.8 3.2-3.7 2.2-6.7 1.7-3-0.6-5.3-3.6z"/>
	</g>
	<g id="text12154-1">
		<path id="path8007" fill-rule="evenodd" class="s5" d="m558.9 317.9l-0.7-9.1q-0.2-2.7-0.1-4 0.2-1.3 0.8-2.4 0.6-1.1 1.8-1.9 1.1-0.8 2.6-0.9 1.5-0.1 2.9 0.6 1.4 0.8 2.2 2.2 0.4-2.1 1.8-3.3 1.4-1.2 3.3-1.4 1.6-0.1 3.1 0.5 1.5 0.6 2.5 1.8 1 1.2 1.3 3 0.2 1.1 0.6 5.5l0.5 7.7zm3.5-4.9l5.2-0.4-0.2-3q-0.2-2.6-0.4-3.3-0.2-1.1-0.9-1.8-0.7-0.6-1.8-0.5-1.1 0.1-1.7 0.7-0.6 0.6-0.7 1.8 0 0.7 0.3 3.9zm9-0.7l6-0.4-0.3-4.2q-0.2-2.5-0.4-3.2-0.2-1-1-1.6-0.8-0.6-2-0.5-1 0.1-1.7 0.7-0.6 0.5-0.9 1.5-0.2 0.9 0 4z"/>
		<path id="path8009" fill-rule="evenodd" class="s5" d="m580.3 294.8l-22.5-3.5 1.5-9.5q0.5-3.6 1.4-5.1 0.8-1.6 2.5-2.3 1.7-0.8 3.7-0.5 2.5 0.4 4 2.2 1.4 1.7 1.4 4.7 1-1.3 2.2-2.1 1.2-0.8 4.1-2.1l4.8-2-0.9 5.4-5.4 2.5q-2.8 1.4-3.6 1.9-0.8 0.6-1.2 1.2-0.3 0.7-0.6 2.3l-0.1 0.9 9.4 1.4zm-12.3-6.5l0.5-3.3q0.5-3.3 0.4-4.1-0.2-0.9-0.8-1.5-0.6-0.5-1.6-0.7-1.1-0.2-1.9 0.3-0.8 0.5-1.2 1.6-0.1 0.6-0.6 3.3l-0.5 3.6z"/>
		<path id="path8011" class="s5" d="m584.2 273.9l-21.7-6.8 1.4-4.4 21.7 6.8z"/>
		<path id="path8013" class="s5" d="m588.5 262.1l-17.1-8-2.9 6.1-3.4-1.6 7.6-16.4 3.5 1.7-2.9 6 17.1 8z"/>
		<path id="path8015" class="s5" d="m594.3 250.9l-19.1-12.3 2.5-3.8 19.1 12.2z"/>
		<path id="path8017" class="s5" d="m591.8 240.5l2.6-3.6q2 1.2 3.6 0.9 1.6-0.2 2.9-1.8 1.5-1.7 1.5-3.2 0.1-1.4-0.9-2.2-0.6-0.6-1.3-0.6-0.8 0-1.9 0.6-0.7 0.5-3.1 2.2-3.1 2.1-5.1 2.4-2.8 0.4-4.8-1.4-1.3-1.1-1.8-2.9-0.5-1.7 0.1-3.6 0.6-1.9 2.3-3.9 2.8-3.3 5.6-3.7 2.9-0.4 5.3 1.6l-2.8 3.6q-1.6-0.9-2.8-0.7-1.2 0.2-2.5 1.7-1.3 1.5-1.4 2.9-0.1 0.9 0.6 1.5 0.6 0.5 1.5 0.4 1.1-0.2 3.9-2.2 2.8-2 4.5-2.7 1.7-0.7 3.4-0.4 1.7 0.3 3.3 1.7 1.5 1.3 2 3.2 0.6 1.9 0 4-0.7 2-2.7 4.3-2.8 3.2-5.8 3.7-3 0.4-6.2-1.8z"/>
		<path id="path8019" class="s5" d="m611.3 229.7l-13.6-18.2 3.7-2.7 5.3 7.2 7.2-5.4-5.3-7.2 3.7-2.7 13.5 18.2-3.6 2.7-6-7.9-7.2 5.3 6 8z"/>
	</g>
	<g id="text12154-1-8">
		<path id="path7992" class="s5" d="m711 204.3l4.2 1.5q-0.7 2.2 0 3.7 0.6 1.5 2.5 2.4 2 1 3.4 0.6 1.5-0.3 2-1.5 0.4-0.7 0.2-1.4-0.2-0.7-1.1-1.6-0.6-0.6-2.8-2.5-3-2.4-3.7-4.3-1.1-2.6 0.1-5 0.8-1.6 2.3-2.5 1.5-0.9 3.6-0.8 2 0.1 4.3 1.2 3.9 1.9 5 4.5 1.1 2.7-0.2 5.5l-4.2-1.8q0.5-1.7 0-2.8-0.5-1.1-2.3-2-1.8-0.9-3.2-0.6-0.8 0.1-1.2 0.9-0.4 0.8 0 1.6 0.5 1 3.1 3.2 2.7 2.2 3.8 3.6 1 1.5 1.2 3.2 0.2 1.7-0.8 3.6-0.8 1.8-2.5 2.8-1.8 1.1-3.9 1-2.2-0.1-4.8-1.4-3.9-1.9-5.1-4.7-1.2-2.8 0.1-6.4z"/>
		<path id="path7994" fill-rule="evenodd" class="s5" d="m732.1 210.4q2.1-2.7 4.4-3.9 1.7-0.9 3.6-1.1 1.9-0.2 3.6 0.2 2.2 0.6 4.4 2.4 3.9 3.1 4.3 7.4 0.4 4.3-3 8.7-3.4 4.3-7.7 4.8-4.3 0.6-8.2-2.5-4-3.2-4.4-7.4-0.4-4.3 3-8.6zm3.8 2.9q-2.4 3-2.3 5.6 0.2 2.7 2.3 4.4 2.2 1.7 4.8 1.3 2.6-0.5 5-3.6 2.5-3 2.3-5.6-0.1-2.6-2.3-4.3-2.3-1.8-4.8-1.4-2.6 0.5-5 3.6z"/>
		<path id="path7996" class="s5" d="m743.1 234.2l17.4-14.3 2.9 3.5-14.4 11.9 7.3 8.8-3 2.5z"/>
		<path id="path7998" fill-rule="evenodd" class="s5" d="m763.5 241.4q3.1-1.7 5.7-1.8 1.9-0.1 3.7 0.4 1.9 0.5 3.2 1.7 1.8 1.4 3.1 3.9 2.3 4.4 0.9 8.5-1.3 4.1-6.2 6.7-4.9 2.6-9 1.4-4.2-1.2-6.5-5.7-2.4-4.5-1-8.5 1.3-4.1 6.1-6.6zm2.4 4.1q-3.4 1.8-4.4 4.3-0.9 2.5 0.4 4.9 1.2 2.4 3.8 3.1 2.6 0.6 6.1-1.2 3.4-1.8 4.3-4.2 0.9-2.5-0.4-5-1.3-2.5-3.8-3.1-2.6-0.6-6 1.2z"/>
		<path id="path8000" class="s5" d="m764.3 267.3l22.1-5.2 1.6 6.6-14.1 7.6 16 0.4 1.6 6.7-22.1 5.3-1-4.2 17.4-4.1-18.5-0.3-1-4.3 16.4-8.5-17.4 4.2z"/>
		<path id="path8002" fill-rule="evenodd" class="s5" d="m780.7 290.3q3.5 0 5.9 1.1 1.7 0.8 3 2.1 1.4 1.4 2.1 3 0.8 2.1 0.8 4.9-0.1 5-3.2 8-3.2 3-8.7 2.9-5.5-0.1-8.6-3.1-3-3-3-8 0.1-5.1 3.2-8 3.1-3 8.5-2.9zm0.1 4.7q-3.8 0-5.8 1.7-2 1.8-2.1 4.5 0 2.8 2 4.5 1.9 1.8 5.9 1.9 3.9 0 5.8-1.7 1.9-1.7 2-4.5 0-2.8-1.9-4.6-1.9-1.7-5.9-1.8z"/>
		<path id="path8004" class="s5" d="m768.9 313.6l22.1 5.3-1.1 4.4-16.9 5.4 14.7 3.6-1 4.1-22.1-5.3 1.1-4.5 16.6-5.4-14.4-3.5z"/>
	</g>
	<g id="g5590">
		<g id="g5592">
			<path id="path5594" class="s6" d="m674.2 328.6l-24.9 2.6-10.1-2.6-7.8-15 2.1-7.4c0 0-0.9-2.6-0.9-3.9 0-2.4 0.3-4.9 1.6-6.8 1-1.5 3.3-3.3 5.1-3.8 5.1-1.2 9 0.9 13.4 3.8 0 0 3.1-1.9 7-3.5 1.3-0.5 3.5-1 4.5-1.3 2.8-0.9 9.6-1.4 9.6-1.4h2.4c0 0 6.8 0.5 9.6 1.4 1 0.3 3.2 0.8 4.5 1.3 3.9 1.6 7 3.5 7 3.5 4.4-2.9 8.3-5 13.4-3.8 1.8 0.5 4.1 2.3 5.1 3.8 1.3 1.9 1.6 4.4 1.6 6.8 0 1.3-0.9 3.9-0.9 3.9l2.1 7.4-7.8 15-10.1 2.6-24.9-2.6z"/>
			<path id="path5596" class="s7" d="m669.7 293.3l-0.2-0.1c0 0-6.8 0.7-9.6 2-3.3 1.6-5.2 3.2-8.2 5.3-1.8 1.2-4 2.8-6.1 3.3-1.4 0.4-3.5 0.1-4.9-0.3-1.1-0.4-2.1-1.2-2.8-2.2-0.7-1-0.9-2.1-0.9-3.2 0-1.4 0.1-2.2 0.8-3.4 0.9-1.4 3.9-3.2 5.6-3.1h1l2.5 0.7 5.7 3.1 3.9-1.8 3.3-1.7 4.3-1.3 5.3-0.6h11.2l5.3 0.6 4.3 1.3 3.3 1.7 3.9 1.8 5.7-3.1 2.5-0.7h1c1.7-0.1 4.7 1.7 5.6 3.1 0.7 1.2 0.8 2 0.8 3.4 0 1.1-0.2 2.2-0.9 3.2-0.7 1-1.7 1.8-2.8 2.2-1.4 0.4-3.5 0.7-4.9 0.3-2.1-0.5-4.3-2.1-6.1-3.3-3-2.1-4.9-3.7-8.2-5.3-2.8-1.3-9.6-2-9.6-2l-0.2 0.1z"/>
			<path id="path5598" class="s8" d="m645.3 294.9c1.4 0.3 2.5 1.6 3.6 1.7l1.1 0.1 3.3-1.1-4 3.3c-1 0.8-2.4 1.6-3.7 1.8-1.6 0.3-3.7 0.5-4.8-0.6-1.8-1.8-1.2-3.4 0.3-4.6 0.6-0.4 1.6-0.6 2.6-0.7 0.6 0 1.2 0 1.6 0.1zm63.6 0.6c1.5 1.2 2.1 2.8 0.3 4.6-1.1 1.1-3.2 0.9-4.8 0.6-1.3-0.2-2.7-1-3.7-1.8l-4-3.3 3.3 1.1 1-0.1c1.2-0.1 2.3-1.4 3.7-1.7q0.4-0.1 1-0.1c1.1 0 2.5 0.2 3.2 0.7z"/>
			<path id="path5600" class="s9" d="m672.5 324.6l-16.2 4.2-16.2-0.2-6.7-13.6-0.5-11.5c3.1 4.3 5.5 6.9 15.1 5.9 3.9-0.5 11-5.2 14.6-6.9 4-1.8 10.2-3.5 10.2-3.5h4.4c0 0 6.2 1.7 10.2 3.5 3.6 1.7 10.7 6.4 14.6 6.9 9.6 1 12-1.6 15.1-5.9l-0.5 11.5-6.7 13.6-16.2 0.2-16.2-4.2z"/>
			<path id="path5602" class="s10" d="m672.4 324.8l-18 4.5-14-0.4-6.9-13.2-0.5-2.2c0 0 8.7 6 12.9 6.7 5 0.8 9-0.1 13.8-1.4 5.4-1.5 15.3-8.6 15.3-8.6 0 0 9.9 7.1 15.3 8.6 4.8 1.3 8.8 2.2 13.8 1.4 4.2-0.7 12.9-6.7 12.9-6.7l-0.5 2.2-6.9 13.2-14 0.4-18-4.5"/>
			<path id="path5604" class="s11" d="m674.2 328.6l-24.9 2.6-10.1-2.6-7.8-15 2.1-7.4c0 0-0.9-2.6-0.9-3.9 0-2.4 0.3-4.9 1.6-6.8 1-1.5 3.3-3.3 5.1-3.8 5.1-1.2 9 0.9 13.4 3.8 0 0 3.1-1.9 7-3.5 1.3-0.5 3.5-1 4.5-1.3 2.8-0.9 9.6-1.4 9.6-1.4h2.4c0 0 6.8 0.5 9.6 1.4 1 0.3 3.2 0.8 4.5 1.3 3.9 1.6 7 3.5 7 3.5 4.4-2.9 8.3-5 13.4-3.8 1.8 0.5 4.1 2.3 5.1 3.8 1.3 1.9 1.6 4.4 1.6 6.8 0 1.3-0.9 3.9-0.9 3.9l2.1 7.4-7.8 15-10.1 2.6-24.9-2.6z"/>
		</g>
		<g id="g5606">
			<g id="g5608">
				<g id="g5610">
					<path id="path5612" fill-rule="evenodd" class="s12" d="m677 270.8c-7.5-0.4-18.3 2.4-27.1 8.6-8.8 6.1-15.6 15.4-16.3 28.4l-6.2-0.4c0.8-15 8.9-26.1 18.9-33.1 10-7 21.8-10.2 31.1-9.7 0 0-0.4 6.2-0.4 6.2z"/>
					<path id="path5614" fill-rule="evenodd" class="s13" d="m630.5 307.6l3.1 0.2c0.7-13 7.5-22.3 16.3-28.4 8.8-6.2 19.6-9 27.1-8.6l0.2-3.1c-14.9 0.1-42.9 9.2-46.7 39.9z"/>
					<path id="path5616" class="s14" d="m677 270.8c-7.5-0.4-18.3 2.4-27.1 8.6-8.8 6.1-15.6 15.4-16.3 28.4l-6.2-0.4c0.8-15 8.9-26.1 18.9-33.1 10-7 21.8-10.2 31.1-9.7 0 0-0.4 6.2-0.4 6.2z"/>
				</g>
				<g id="g5618">
					<circle id="circle5620" class="s15" cx="623.6" cy="301.2" r="4.5"/>
					<ellipse id="ellipse5622" class="s16" cx="623.3" cy="300.6" rx="3.5" ry="3.4"/>
					<ellipse id="ellipse5624" class="s4" cx="622.7" cy="300" rx="2.6" ry="2.6"/>
					<circle id="circle5626" class="s11" cx="623.6" cy="301.2" r="4.5"/>
				</g>
				<g id="g5628">
					<circle id="circle5630" class="s15" cx="626.1" cy="292.4" r="4.5"/>
					<ellipse id="ellipse5632" class="s16" cx="625.8" cy="291.8" rx="3.5" ry="3.4"/>
					<ellipse id="ellipse5634" class="s4" cx="625.2" cy="291.2" rx="2.6" ry="2.6"/>
					<circle id="circle5636" class="s11" cx="626.1" cy="292.4" r="4.5"/>
				</g>
				<g id="g5638">
					<circle id="circle5640" class="s15" cx="630.3" cy="284.4" r="4.5"/>
					<ellipse id="ellipse5642" class="s16" cx="630" cy="283.8" rx="3.5" ry="3.4"/>
					<ellipse id="ellipse5644" class="s4" cx="629.4" cy="283.2" rx="2.6" ry="2.6"/>
					<circle id="circle5646" class="s11" cx="630.3" cy="284.4" r="4.5"/>
				</g>
				<g id="g5648">
					<circle id="circle5650" class="s15" cx="636" cy="277.1" r="4.5"/>
					<ellipse id="ellipse5652" class="s16" cx="635.7" cy="276.5" rx="3.5" ry="3.4"/>
					<ellipse id="ellipse5654" class="s4" cx="635.1" cy="275.9" rx="2.6" ry="2.6"/>
					<circle id="circle5656" class="s11" cx="636" cy="277.1" r="4.5"/>
				</g>
				<g id="g5658">
					<circle id="circle5660" class="s15" cx="642.9" cy="271.1" r="4.5"/>
					<ellipse id="ellipse5662" class="s16" cx="642.6" cy="270.5" rx="3.5" ry="3.4"/>
					<ellipse id="ellipse5664" class="s4" cx="642" cy="269.9" rx="2.6" ry="2.6"/>
					<circle id="circle5666" class="s11" cx="642.9" cy="271.1" r="4.5"/>
				</g>
				<g id="g5668">
					<circle id="circle5670" class="s15" cx="650.7" cy="266.3" r="4.5"/>
					<ellipse id="ellipse5672" class="s16" cx="650.4" cy="265.7" rx="3.5" ry="3.4"/>
					<ellipse id="ellipse5674" class="s4" cx="649.8" cy="265.1" rx="2.6" ry="2.6"/>
					<circle id="circle5676" class="s11" cx="650.7" cy="266.3" r="4.5"/>
				</g>
				<g id="g5678">
					<circle id="circle5680" class="s15" cx="659.2" cy="262.8" r="4.5"/>
					<ellipse id="ellipse5682" class="s16" cx="658.9" cy="262.2" rx="3.5" ry="3.4"/>
					<ellipse id="ellipse5684" class="s4" cx="658.3" cy="261.6" rx="2.6" ry="2.6"/>
					<circle id="circle5686" class="s11" cx="659.2" cy="262.8" r="4.5"/>
				</g>
			</g>
			<g id="g5688">
				<g id="g5690">
					<path id="path5692" fill-rule="evenodd" class="s12" d="m672.6 264.6c9.3-0.5 21.1 2.7 31.1 9.7 10 7 18.1 18.1 18.9 33.1l-6.2 0.4c-0.7-13-7.5-22.3-16.3-28.4-8.8-6.2-19.6-9-27.1-8.6 0 0-0.4-6.2-0.4-6.2z"/>
					<path id="path5694" fill-rule="evenodd" class="s13" d="m672.8 267.7l0.2 3.1c7.5-0.4 18.3 2.4 27.1 8.6 8.8 6.1 15.6 15.4 16.3 28.4l3.1-0.2c-3.8-30.7-31.8-39.8-46.7-39.9z"/>
					<path id="path5696" class="s14" d="m672.6 264.6c9.3-0.5 21.1 2.7 31.1 9.7 10 7 18.1 18.1 18.9 33.1l-6.2 0.4c-0.7-13-7.5-22.3-16.3-28.4-8.8-6.2-19.6-9-27.1-8.6 0 0-0.4-6.2-0.4-6.2z"/>
				</g>
				<g id="g5698">
					<circle id="circle5700" class="s15" cx="726.4" cy="301.2" r="4.5"/>
					<ellipse id="ellipse5702" class="s16" cx="726.7" cy="300.6" rx="3.5" ry="3.4"/>
					<ellipse id="ellipse5704" class="s4" cx="727.3" cy="300" rx="2.6" ry="2.6"/>
					<circle id="circle5706" class="s11" cx="726.4" cy="301.2" r="4.5"/>
				</g>
				<g id="g5708">
					<circle id="circle5710" class="s15" cx="723.9" cy="292.4" r="4.5"/>
					<ellipse id="ellipse5712" class="s16" cx="724.2" cy="291.8" rx="3.5" ry="3.4"/>
					<ellipse id="ellipse5714" class="s4" cx="724.8" cy="291.2" rx="2.6" ry="2.6"/>
					<circle id="circle5716" class="s11" cx="723.9" cy="292.4" r="4.5"/>
				</g>
				<g id="g5718">
					<circle id="circle5720" class="s15" cx="719.7" cy="284.4" r="4.5"/>
					<ellipse id="ellipse5722" class="s16" cx="720" cy="283.8" rx="3.5" ry="3.4"/>
					<ellipse id="ellipse5724" class="s4" cx="720.6" cy="283.2" rx="2.6" ry="2.6"/>
					<circle id="circle5726" class="s11" cx="719.7" cy="284.4" r="4.5"/>
				</g>
				<g id="g5728">
					<circle id="circle5730" class="s15" cx="714" cy="277.1" r="4.5"/>
					<ellipse id="ellipse5732" class="s16" cx="714.3" cy="276.5" rx="3.5" ry="3.4"/>
					<ellipse id="ellipse5734" class="s4" cx="714.9" cy="275.9" rx="2.6" ry="2.6"/>
					<circle id="circle5736" class="s11" cx="714" cy="277.1" r="4.5"/>
				</g>
				<g id="g5738">
					<circle id="circle5740" class="s15" cx="707.1" cy="271.1" r="4.5"/>
					<ellipse id="ellipse5742" class="s16" cx="707.4" cy="270.5" rx="3.5" ry="3.4"/>
					<ellipse id="ellipse5744" class="s4" cx="708" cy="269.9" rx="2.6" ry="2.6"/>
					<circle id="circle5746" class="s11" cx="707.1" cy="271.1" r="4.5"/>
				</g>
				<g id="g5748">
					<circle id="circle5750" class="s15" cx="699.3" cy="266.3" r="4.5"/>
					<ellipse id="ellipse5752" class="s16" cx="699.6" cy="265.7" rx="3.5" ry="3.4"/>
					<ellipse id="ellipse5754" class="s4" cx="700.2" cy="265.1" rx="2.6" ry="2.6"/>
					<circle id="circle5756" class="s11" cx="699.3" cy="266.3" r="4.5"/>
				</g>
				<g id="g5758">
					<circle id="circle5760" class="s15" cx="690.8" cy="262.8" r="4.5"/>
					<ellipse id="ellipse5762" class="s16" cx="691.1" cy="262.2" rx="3.5" ry="3.4"/>
					<ellipse id="ellipse5764" class="s4" cx="691.7" cy="261.6" rx="2.6" ry="2.6"/>
					<circle id="circle5766" class="s11" cx="690.8" cy="262.8" r="4.5"/>
				</g>
			</g>
		</g>
		<g id="g5768">
			<path id="path5770" fill-rule="evenodd" class="s17" d="m682.3 265.1l3.7 1.1c-1.9 6.7-4.3 21-4.8 32.7l-6.2 0.8-6.2-0.8c-0.5-11.7-2.9-26-4.8-32.7l3.7-1.1z"/>
			<g id="g5772">
				<path id="path5774" class="s18" d="m673.3 243.1c-0.6-2.6-2.9-4.6-5.2-6.6 4.6 0.5 9.2 0.3 13.9 0-2.1 2.1-5.1 4-5.3 6.6 2.7-1.1 4.4-3.5 6.5-5.4-0.5 3.9-0.2 7.8 0 11.7-2.1-1.7-3.8-3.8-6.5-4.5 0.8 2.4 2.7 4.3 5.3 5.9h-14c2.3-1.7 4.4-3.4 5.3-5.9-2.6 0.8-4.4 3-6.5 4.7 0.4-3.9 0.3-7.9 0-11.8 2 2.1 3.8 4.5 6.5 5.3z"/>
				<g id="g5776">
					<circle id="circle5778" class="s15" cx="675" cy="243.6" r="3.1"/>
					<ellipse id="ellipse5780" class="s16" cx="674.8" cy="243.2" rx="2.4" ry="2.3"/>
					<circle id="ellipse5782" class="s4" cx="674.4" cy="242.8" r="1.8"/>
					<circle id="circle5784" class="s11" cx="675" cy="243.6" r="3.1"/>
				</g>
				<g id="g5786">
					<g id="g5788">
						<circle id="ellipse5790" class="s18" cx="675" cy="259.3" r="8.3"/>
						<ellipse id="ellipse5792" class="s19" cx="673.5" cy="256.8" rx="4.8" ry="4.6"/>
					</g>
					<path id="path5794" class="s20" d="m675.4 250.1c0.7 0 1.3 0.6 1.3 1.4v5.5h5.6c0.8 0 1.4 0.6 1.4 1.4v0.6c0 0.8-0.6 1.4-1.4 1.4h-14.6c-0.7 0-1.4-0.6-1.4-1.4v-0.6c0-0.8 0.7-1.4 1.4-1.4h5.6v-5.5c0-0.8 0.6-1.4 1.4-1.4z"/>
					<path id="path5796" class="s19" d="m674.7 258.6l-8.3 0.1v-0.5l1.2-1.2 5.7 0.1 0.2-6.6 1.5-0.5zm7.8-1.6l1.2 1v0.8l-7.1-0.1v-1.4l0.2-0.4z"/>
					<path id="path5798" class="s11" d="m675.4 250.1c0.7 0 1.3 0.6 1.3 1.4v5.5h5.6c0.8 0 1.4 0.6 1.4 1.4v0.6c0 0.8-0.6 1.4-1.4 1.4h-14.6c-0.7 0-1.4-0.6-1.4-1.4v-0.6c0-0.8 0.7-1.4 1.4-1.4h5.6v-5.5c0-0.8 0.6-1.4 1.4-1.4z"/>
				</g>
			</g>
			<g id="g5800">
				<circle id="circle5802" class="s15" cx="675" cy="269.8" r="4.5"/>
				<ellipse id="ellipse5804" class="s16" cx="674.7" cy="269.2" rx="3.5" ry="3.4"/>
				<ellipse id="ellipse5806" class="s4" cx="674" cy="268.6" rx="2.6" ry="2.6"/>
				<circle id="circle5808" class="s11" cx="675" cy="269.8" r="4.5"/>
			</g>
			<g id="g5810">
				<circle id="circle5812" class="s15" cx="675" cy="275.7" r="4.5"/>
				<ellipse id="ellipse5814" class="s16" cx="674.7" cy="275.2" rx="3.5" ry="3.4"/>
				<ellipse id="ellipse5816" class="s4" cx="674" cy="274.6" rx="2.6" ry="2.6"/>
				<circle id="circle5818" class="s11" cx="675" cy="275.7" r="4.5"/>
			</g>
			<g id="g5820">
				<g id="g5822">
					<g id="g5824">
						<g id="g5826">
						</g>
						<g id="g5828">
						</g>
					</g>
				</g>
				<g id="g5830">
					<g id="g5832">
						<circle id="circle5834" class="s15" cx="675" cy="282.2" r="4.5"/>
						<ellipse id="ellipse5836" class="s16" cx="674.7" cy="281.6" rx="3.5" ry="3.4"/>
						<ellipse id="ellipse5838" class="s4" cx="674" cy="281" rx="2.6" ry="2.6"/>
						<circle id="circle5840" class="s11" cx="675" cy="282.2" r="4.5"/>
					</g>
					<g id="g5842">
						<circle id="circle5844" class="s15" cx="675" cy="288.2" r="4.5"/>
						<ellipse id="ellipse5846" class="s16" cx="674.7" cy="287.6" rx="3.5" ry="3.4"/>
						<ellipse id="ellipse5848" class="s4" cx="674" cy="287" rx="2.6" ry="2.6"/>
						<circle id="circle5850" class="s11" cx="675" cy="288.2" r="4.5"/>
					</g>
					<g id="g5852">
						<circle id="circle5854" class="s15" cx="675" cy="294.8" r="4.5"/>
						<ellipse id="ellipse5856" class="s16" cx="674.7" cy="294.2" rx="3.5" ry="3.4"/>
						<ellipse id="ellipse5858" class="s4" cx="674" cy="293.6" rx="2.6" ry="2.6"/>
						<circle id="circle5860" class="s11" cx="675" cy="294.8" r="4.5"/>
					</g>
				</g>
			</g>
			<path id="path5862" fill-rule="evenodd" class="s17" d="m670.8 300.6l-2.9-1.9c-0.6-11.6-4-25.7-5.8-32.2l2.8-0.7c2 6.9 5.3 22.9 5.9 34.8zm17.1-34.1c-1.8 6.5-5.2 20.6-5.8 32.2l-2.9 1.9c0.6-11.9 3.9-27.9 5.9-34.8z"/>
		</g>
		<g id="g5864">
			<path id="path5866" class="s12" d="m639.6 340.5c0 0-4.7-15.3-8.1-22.6-1.6-3.5-5-10.1-5-10.1l6.9-4 3.5-0.5c-1.7 4.7-1.6 8-1.6 11.3 3.6-0.6 5.3-3.4 7.3-5.3l2.3 9.8c-3.7-1.6-6.1-0.8-8.5 0.2 0 0 1.5 2.9 2.7 4 1.3 1.2 2.7 1.8 4.5 2.1 1.6 0.3 3.4 0.4 4.9-0.3 3.2-1.5 4.8-4.9 4.4-4.6 0 0 0.3-3-0.5-4-0.7-0.8-1.9-1.5-2.9-1.2-1.5 0.4-2.3 3.8-2.3 3.8 0 0-1.4-2.9-1.8-4.5-0.3-1.4-0.8-3-0.2-4.3 0.5-0.9 1.6-1.6 2.7-1.8 1.4-0.3 4 1 4 1 0 0-0.8-2.6-1-4-0.2-0.7 0-1.7 0.3-2.3 0.6-1.5 2.5-2.8 2.3-2.9-0.3 0 1.9 0.8 2.8 2.2 0.5 0.5 0.9 1.4 0.9 2.1 0.2 1.4 0.1 4.1 0.1 4.1 0 0 2.2-1.8 3.6-1.9 1-0.1 2.3 0.3 3 1.1 0.9 1.1 0.9 2.8 0.9 4.2 0 1.7-0.7 4.8-0.7 4.8 0 0-1.6-3.1-3.2-3.1-1 0-2 0.9-2.4 1.8-0.5 1.3 0.5 4 0.5 4 6.2 4.9 12.6-0.1 13.9-5v-1.8c-2.6 0.4-3.7 0.8-6.3 3.8l-0.8-12.1c2.5 2.3 4.6 3.1 7.1 2.7-0.2-3.6-2-5.1-4.8-8.2l2.8-0.8h8.4l2.8 0.8c-2.8 3.1-4.8 4.6-5 8.2 2.5 0.4 4.6-0.4 7.1-2.7l-0.8 12.1c-2.6-3-3.7-3.4-6.3-3.8v1.8c1.3 4.9 7.7 9.9 13.9 5 0 0 1-2.7 0.5-4-0.4-0.9-1.4-1.8-2.4-1.8-1.6 0-3.2 3.1-3.2 3.1 0 0-0.7-3.1-0.7-4.8 0-1.4 0-3.1 0.9-4.2 0.7-0.8 2-1.2 3-1.1 1.4 0.1 3.6 1.9 3.6 1.9 0 0-0.1-2.7 0.1-4.1 0-0.7 0.4-1.6 0.8-2.1 1-1.4 3.2-2.2 2.9-2.2-0.2 0.1 1.7 1.4 2.3 2.9 0.3 0.6 0.4 1.6 0.3 2.3-0.2 1.4-1 4-1 4 0 0 2.6-1.3 4-1 1.1 0.2 2.2 0.9 2.7 1.8 0.6 1.3 0.1 2.9-0.2 4.3-0.4 1.6-1.8 4.5-1.8 4.5 0 0-0.8-3.4-2.3-3.8-1-0.3-2.3 0.4-2.9 1.2-0.8 1-0.5 4-0.5 4-0.4-0.3 1.2 3.1 4.4 4.6 1.5 0.7 3.3 0.6 4.9 0.3 1.8-0.3 3.2-0.9 4.5-2.1 1.2-1.1 2.7-4 2.7-4-2.4-1-4.8-1.8-8.5-0.2l2.3-9.8c2 1.9 3.7 4.7 7.3 5.3 0-3.3 0.1-6.6-1.6-11.3l3.2 0.6 7.2 3.9c0 0-3.4 6.6-5 10.1-3.4 7.3-8.1 22.6-8.1 22.6l-0.1 0.5c-24.1-5.4-47.6-4.8-70.7-0.5z"/>
			<path id="path5868" class="s13" d="m646.4 339.4q-3.4 0.5-6.8 1.1c0 0-4.7-15.3-8.1-22.6-1.6-3.5-5-10.1-5-10.1l6.9-4 3.5-0.5c-1.7 4.7-1.6 8-1.6 11.3 3.6-0.6 5.3-3.4 7.3-5.3l2.3 9.8c-3.7-1.6-6.1-0.8-8.5 0.2 0 0 1.5 2.9 2.7 4 1.3 1.2 2.7 1.8 4.5 2.1zm60-13.9c1.7-0.3 3.1-1 4.5-2.2 1.1-1 2.6-4 2.6-4-2.4-0.9-4.8-1.7-8.5-0.1l2.4-9.8c1.9 1.9 3.6 4.7 7.3 5.3-0.1-3.4 0.1-6.6-1.7-11.3l3.2 0.6 7.3 3.9c0 0-3.4 6.6-5.1 10.1-3.3 7.3-8 22.6-8 22.6l-0.2 0.4q-3.5-0.8-7-1.4l-0.3-0.3z"/>
			<path id="path5870" class="s13" d="m637.8 319l-1.6-4.6 2-0.8 4.1-4 2.5 9.7-3.6-1.1h-1.9z"/>
			<path id="path5872" class="s21" d="m710.5 318.1h-1.9l-3.6 1.1 2.5-9.7 4.1 4 2 0.8-1.6 4.6z"/>
			<path id="path5874" class="s12" d="m637 303.5l-1.6 5.9-6.8 2.8-2.5-4.2 7.8-4.5zm79 0.1l7.8 4.4-2.5 4.2-7-2.9-1.4-5.7zm-5.8 8.9l-1.9 5.3-3.1 1.4 2.3-9.8zm-65.2 6.8l-3.1-1.5-1.9-5.3 2.7-3.1z"/>
			<path id="path5876" class="s14" d="m639.6 340.5c0 0-4.7-15.3-8.1-22.6-1.6-3.5-5-10.1-5-10.1l6.9-4 3.5-0.5c-1.7 4.7-1.6 8-1.6 11.3 3.6-0.6 5.3-3.4 7.3-5.3l2.3 9.8c-3.7-1.6-6.1-0.8-8.5 0.2 0 0 1.5 2.9 2.7 4 1.3 1.2 2.7 1.8 4.5 2.1 1.6 0.3 3.4 0.4 4.9-0.3 3.2-1.5 4.8-4.9 4.4-4.6 0 0 0.3-3-0.5-4-0.7-0.8-1.9-1.5-2.9-1.2-1.5 0.4-2.3 3.8-2.3 3.8 0 0-1.4-2.9-1.8-4.5-0.3-1.4-0.8-3-0.2-4.3 0.5-0.9 1.6-1.6 2.7-1.8 1.4-0.3 4 1 4 1 0 0-0.8-2.6-1-4-0.2-0.7 0-1.7 0.3-2.3 0.6-1.5 1.6-2.3 2.3-3.2 0.8 0.8 1.9 1.1 2.8 2.5 0.5 0.5 0.9 1.4 0.9 2.1 0.2 1.4 0.1 4.1 0.1 4.1 0 0 2.2-1.8 3.6-1.9 1-0.1 2.3 0.3 3 1.1 0.9 1.1 0.9 2.8 0.9 4.2 0 1.7-0.7 4.8-0.7 4.8 0 0-1.6-3.1-3.2-3.1-1 0-2 0.9-2.4 1.8-0.5 1.3 0.5 4 0.5 4 6.2 4.9 12.6-0.1 13.9-5v-1.8c-2.6 0.4-3.7 0.8-6.3 3.8l-0.8-12.1c2.5 2.3 4.6 3.1 7.1 2.7-0.2-3.6-2.1-5-4.9-8.1l2.8-0.9h8.4l2.8 0.9c-2.8 3.1-4.7 4.5-4.9 8.1 2.5 0.4 4.6-0.4 7.1-2.7l-0.8 12.1c-2.6-3-3.7-3.4-6.3-3.8v1.8c1.3 4.9 7.7 9.9 13.9 5 0 0 1-2.7 0.5-4-0.4-0.9-1.4-1.8-2.4-1.8-1.6 0-3.2 3.1-3.2 3.1 0 0-0.7-3.1-0.7-4.8 0-1.4 0-3.1 0.9-4.2 0.7-0.8 2-1.2 3-1.1 1.4 0.1 3.6 1.9 3.6 1.9 0 0-0.1-2.7 0.1-4.1 0-0.7 0.4-1.6 0.8-2.1 1-1.4 1.7-1.9 2.6-2.9 0.8 0.9 2 2.1 2.6 3.6 0.3 0.6 0.4 1.6 0.3 2.3-0.2 1.4-1 4-1 4 0 0 2.6-1.3 4-1 1.1 0.2 2.2 0.9 2.7 1.8 0.6 1.3 0.1 2.9-0.2 4.3-0.4 1.6-1.8 4.5-1.8 4.5 0 0-0.8-3.4-2.3-3.8-1-0.3-2.3 0.4-2.9 1.2-0.8 1-0.5 4-0.5 4-0.4-0.3 1.2 3.1 4.4 4.6 1.5 0.7 3.3 0.6 4.9 0.3 1.8-0.3 3.2-0.9 4.5-2.1 1.2-1.1 2.7-4 2.7-4-2.4-1-4.8-1.8-8.5-0.2l2.3-9.8c2 1.9 3.7 4.7 7.3 5.3 0-3.3 0.1-6.6-1.6-11.3l3.2 0.6 7.2 3.9c0 0-1.4 2.8-2.9 5.7-0.7 1.6-1.5 3.2-2.1 4.4-3.4 7.3-8.1 22.6-8.1 22.6l-0.1 0.5c-24.1-5.4-47.6-4.8-70.7-0.5z"/>
		</g>
		<g id="g5878">
			<g id="g5880">
				<path id="rect5882" class="s22" d="m669.2 322.6h11.6v6.7h-11.6z"/>
				<path id="path5884" class="s23" d="m670.8 328l-0.9 0.1-0.6-0.6v-3.7l1.6-1.2 8.6-0.1 1.3 1.9v3.2h-1.1l0.1-2-1-1.5h-7.2l-0.9 0.8 0.1 3.1q0 0 0 0z"/>
				<path id="path5886" class="s24" d="m669.5 326.5l2 1.3h6.9l0.8-0.8 0.1-2 1.2-1.8 0.6 1.2-0.3 3.6-1.1 1.5-8.5-0.2-1.7-1.1-0.3-0.7 0.3-1q0 0 0 0z"/>
				<path id="rect5888" class="s14" d="m669.2 322.6h11.6v6.7h-11.6z"/>
				<path id="rect5890" class="s25" d="m671.4 324.7h3.7v1.5h-3.7z"/>
			</g>
			<g id="g5892">
				<g id="g5894">
					<g id="g5896">
						<path id="ellipse5898" class="s26" d="m656.5 331c-3 0.5-5.8-0.6-6.2-2.5-0.4-1.8 1.7-3.7 4.7-4.1 3-0.5 5.8 0.6 6.2 2.5 0.4 1.8-1.7 3.7-4.7 4.1z"/>
						<path id="path5900" class="s27" d="m650.3 328.9c4.7 0.8 8.6 0.4 10-3.3l1 1.1v1.6l-2.4 1.8-3 1-3.7-0.6z"/>
						<path id="path5902" class="s28" d="m651 326.5l1.8-1.6 3.1-0.7 2.7 0.6c-3.3 0.5-6.1 1.4-8.2 3.2z"/>
						<path id="ellipse5904" class="s29" d="m656.5 331c-3 0.5-5.8-0.6-6.2-2.5-0.4-1.8 1.7-3.7 4.7-4.1 3-0.5 5.8 0.6 6.2 2.5 0.4 1.8-1.7 3.7-4.7 4.1z"/>
						<ellipse id="ellipse5906" class="s30" cx="654.1" cy="326.8" rx="1.7" ry=".9"/>
					</g>
					<g id="g5908">
						<path id="path5910" class="s31" d="m633.4 332.7c-0.9-1.2-0.9-2.2-0.6-3.7 0.2-1.1 1.6-2.3 1.6-2.3l8.5 3.2-5.6 4.3c0 0-3-0.4-3.9-1.5z"/>
						<path id="path5912" class="s32" d="m642.9 329.9l-5.4 4.3-3.6-0.9-1.3-1.6c4.7 0.8 7.1-0.9 10.3-1.8z"/>
						<path id="path5914" class="s33" d="m633 328.2l1.4-1.6 8.1 3c-3.4-0.2-6.7-1.9-10.1 0.1z"/>
						<ellipse id="ellipse5916" class="s34" cx="634.6" cy="329.5" rx="1.3" ry="1"/>
						<path id="path5918" class="s14" d="m633.4 332.7c-0.9-1.2-0.9-2.2-0.6-3.7 0.2-1.1 1.6-2.3 1.6-2.3l8.5 3.2-5.6 4.3c0 0-3-0.4-3.9-1.5z"/>
					</g>
				</g>
				<g id="g5920">
					<g id="g5922">
						<path id="ellipse5924" class="s26" d="m688.8 326.9c0.4-1.9 3.2-3 6.2-2.5 3 0.4 5.1 2.3 4.7 4.1-0.4 1.9-3.2 3-6.2 2.5-3-0.4-5.1-2.3-4.7-4.1z"/>
						<path id="path5926" class="s27" d="m697.8 330.5l-3.7 0.6-3-1-2.4-1.8v-1.6c1.9 1.5 2.3 3.7 11 2.2z"/>
						<path id="path5928" class="s28" d="m699.6 328c-2.1-1.8-6.7-1.9-9.9-2.4l4.4-1.4 3.1 0.7 1.8 1.6z"/>
						<path id="ellipse5930" class="s29" d="m688.8 326.9c0.4-1.9 3.2-3 6.2-2.5 3 0.4 5.1 2.3 4.7 4.1-0.4 1.9-3.2 3-6.2 2.5-3-0.4-5.1-2.3-4.7-4.1z"/>
						<ellipse id="ellipse5932" class="s30" cx="692.7" cy="326.6" rx="1.7" ry=".9"/>
					</g>
					<g id="g5934">
						<path id="path5936" class="s31" d="m712.7 334.2l-5.6-4.3 8.5-3.2c0 0 1.4 1.2 1.6 2.3 0.3 1.5 0.3 2.5-0.6 3.7-0.9 1.1-3.9 1.5-3.9 1.5z"/>
						<path id="path5938" class="s32" d="m717.4 331.7l-1.3 1.6-3.6 0.9-5.4-4.3c3.2 0.9 5.6 2.6 10.3 1.8z"/>
						<path id="path5940" class="s33" d="m717.6 329.7c-3.4-2-6.7-0.3-10.1-0.1l8.1-3 1.4 1.6z"/>
						<ellipse id="ellipse5942" class="s34" cx="715.4" cy="329.5" rx="1.3" ry="1"/>
						<path id="path5944" class="s14" d="m712.7 334.2l-5.6-4.3 8.5-3.2c0 0 1.4 1.2 1.6 2.3 0.3 1.5 0.3 2.5-0.6 3.7-0.9 1.1-3.9 1.5-3.9 1.5z"/>
					</g>
				</g>
			</g>
		</g>
		<g id="g5946">
			<circle id="circle5948" class="s15" cx="675" cy="309.9" r="3.6"/>
			<ellipse id="ellipse5950" class="s16" cx="674.7" cy="309.4" rx="2.8" ry="2.7"/>
			<ellipse id="ellipse5952" class="s4" cx="674.3" cy="309" rx="2.1" ry="2.1"/>
			<circle id="circle5954" class="s14" cx="675" cy="309.9" r="3.6"/>
		</g>
		<g id="g5956">
			<g id="g5958">
				<circle id="circle5960" class="s15" cx="716.2" cy="317.6" r="3.6"/>
				<ellipse id="ellipse5962" class="s16" cx="715.9" cy="317.1" rx="2.8" ry="2.7"/>
				<ellipse id="ellipse5964" class="s4" cx="715.4" cy="316.7" rx="2.1" ry="2.1"/>
				<circle id="circle5966" class="s14" cx="716.2" cy="317.6" r="3.6"/>
			</g>
			<g id="g5968">
				<circle id="circle5970" class="s15" cx="633.8" cy="317.6" r="3.6"/>
				<ellipse id="ellipse5972" class="s16" cx="633.6" cy="317.1" rx="2.8" ry="2.7"/>
				<ellipse id="ellipse5974" class="s4" cx="633.1" cy="316.7" rx="2.1" ry="2.1"/>
				<circle id="circle5976" class="s14" cx="633.8" cy="317.6" r="3.6"/>
			</g>
		</g>
		<g id="g5978">
			<ellipse id="ellipse5980" class="s35" cx="675" cy="347" rx="36" ry="6.5"/>
			<ellipse id="ellipse5982" class="s36" cx="675" cy="347" rx="27.6" ry="3.2"/>
			<g id="g5984">
				<g id="g5986">
					<path id="path5988" class="s4" d="m639.2 338.6c6.5-3 48.1-7 71.6 0 3.7 1.8 2.9 10.7-1 9.4-22.5-4.7-45.4-5.2-69.3 0-6-0.3-3.3-9.8-1.3-9.4z"/>
					<path id="path5990" class="s16" d="m637.5 346.4c-1.1-1.3-0.9-2.6-0.7-1.8 24.8-5.9 44-8 76.2 0-0.6 1.2-1.9 3.8-3.2 3.4-22.5-4.7-45.4-5.2-69.3 0-0.5-0.1-2.3-0.8-3-1.6z"/>
					<path id="path5992" class="s14" d="m639.2 338.6c6.5-3 48.1-7 71.6 0 3.7 1.8 2.9 10.7-1 9.4-22.5-4.7-45.4-5.2-69.3 0-6-0.3-3.3-9.8-1.3-9.4z"/>
				</g>
				<g id="g5994">
					<path id="path5996" class="s37" d="m672.5 337.4c0.9 0 1.9 0.5 2.8 0.8 1.5 0.4 3.3 0.7 3.3 0.7l1.9 1c0 0-3.4-0.1-5 0.2-1.6 0.3-4.7 1.6-4.7 1.6 0 0 0.4-0.7 0.7-1 0.4-0.4 1.4-0.9 1.4-0.9h-3.4c0 0 1.3-0.7 1.8-0.8 0.6-0.3 1.5-0.5 1.5-0.5l-3-0.7c0 0 1.2-0.4 2.2-0.4q0.3 0 0.5 0zm-11.7 1.1c1.5 0.2 3.4 0.3 3.4 0.3l2 0.7c0 0-3.4 0.4-5 0.9-1.6 0.5-4.4 2.1-4.4 2.1 0 0 0.3-0.7 0.6-1 0.3-0.5 1.3-1.1 1.3-1.1l-3.4 0.5c0 0 1.1-0.9 1.6-1.1 0.6-0.3 1.5-0.7 1.5-0.7l-3.1-0.3c0 0 1.5-0.7 2.6-0.8q0.2 0 0.3 0c0.8 0 1.8 0.3 2.6 0.5zm26.1-0.3c0.9 0.1 1.9 0.6 2.7 0.9 1.5 0.6 3.3 1 3.3 1l1.9 1.1c0 0-3.4-0.3-5.1-0.1-1.6 0.2-4.7 1.3-4.7 1.3 0 0 0.4-0.7 0.7-1 0.5-0.3 1.5-0.7 1.5-0.7l-3.4-0.2c0 0 1.3-0.7 1.8-0.8 0.6-0.2 1.5-0.3 1.5-0.3l-2.9-1c0 0 1.2-0.3 2.3-0.2q0.2 0 0.4 0zm-40.4 1.5c1.6 0.1 3.5-0.1 3.5-0.1l2 0.5c0 0-3.3 0.8-4.8 1.5-1.5 0.7-4.1 2.6-4.1 2.6 0 0 0.2-0.8 0.4-1.1 0.3-0.5 1.2-1.2 1.2-1.2l-3.3 0.8c0 0 1-1 1.4-1.2 0.6-0.4 1.4-0.8 1.4-0.8h-3.1c0 0 1.5-0.8 2.6-1.1q0.3 0 0.6 0c0.8 0 1.5 0.1 2.2 0.1zm54.9 0.3c0.8 0.1 1.8 0.8 2.6 1.2 1.4 0.7 3.2 1.3 3.2 1.3l1.7 1.2c0 0-3.4-0.6-5-0.5-1.7 0-4.9 0.8-4.9 0.8 0 0 0.5-0.7 0.9-0.9 0.4-0.3 1.5-0.6 1.5-0.6l-3.4-0.6c0 0 1.4-0.5 1.9-0.6 0.7-0.1 1.6-0.2 1.6-0.2l-2.9-1.2c0 0 0.5 0 1-0.1 0.5 0 1.2 0.1 1.8 0.2z"/>
					<g id="g5998">
					</g>
					<g id="g6000">
					</g>
				</g>
			</g>
		</g>
	</g>
</svg>