<svg version="1.2" baseProfile="tiny-ps" xmlns="http://www.w3.org/2000/svg" viewBox="0 0 900 600" width="900" height="600"><title></title><defs><clipPath clipPathUnits="userSpaceOnUse" id="cp1"><path d="M0 0L450 0L450 300L0 300L0 0Z" /></clipPath></defs><style>tspan { white-space:pre }.shp0 { fill: #00247d } .shp1 { fill: #69b3e7 } .shp2 { fill: #007a4d } .shp3 { fill: #c8a58d;stroke: #000000;stroke-width: 1.124 } .shp4 { fill: #aa8871 } .shp5 { fill: none;stroke: #000000;stroke-width: 1.124 } .shp6 { fill: #aa8871;stroke: #000000;stroke-width: 1.124 } .shp7 { fill: #c8a58d } .shp8 { fill: none;stroke: #000000;stroke-width: 1.117 } .shp9 { fill: #f5c819 } .shp10 { fill: #c8102e;stroke: #000000;stroke-linejoin:round;stroke-width: 1.124 } .shp11 { fill: #f5c819;stroke: #000000;stroke-linejoin:round;stroke-width: 1.124 } .shp12 { fill: #f5c819;stroke: #000000;stroke-width: 1.124 } .shp13 { fill: #6c6645 } .shp14 { fill: #494328 } .shp15 { fill: #6c6645;stroke: #000000;stroke-width: 1.124 } .shp16 { fill: #000000;stroke: #ffffff;stroke-width: 51.992 } .shp17 { fill: none;stroke: #ffffff;stroke-width: 86.653 } .shp18 { fill: none;stroke: #cf142b;stroke-width: 51.992 } </style><path class="shp0" d="M0 0L900 0L900 600L0 600L0 0Z" /><path class="shp1" d="M675 413.01C612.5 413.01 561.99 362.5 561.99 300C561.99 237.5 612.5 186.99 675 186.99C737.5 186.99 788.01 237.5 788.01 300C788.01 362.5 737.5 413.01 675 413.01Z" /><path class="shp2" d="M572.39 338.8C572.39 338.8 614.13 413.1 675 413.01C735.87 413.1 777.61 338.8 777.61 338.8L572.39 338.8Z" /><path class="shp3" d="M709.9 310.49C705.6 288.37 689.27 271.92 669.77 271.92C650.27 271.92 633.93 288.37 629.64 310.49L709.9 310.49Z" /><path class="shp4" d="M677.87 309.49C677.87 309.49 677.16 283.49 667.18 271.91L679.13 273.1C679.13 273.1 695.64 278.92 704.47 309.49L677.87 309.49Z" /><path class="shp3" d="M672.75 227.95L669.31 207.96L665.88 227.95L662.44 247.94L669.31 247.94L676.19 247.94L672.75 227.95Z" /><path class="shp4" d="M669.5 244.17L670.19 221.69L673.04 243.96C673.04 243.96 671.61 243.96 669.5 244.17L669.5 244.17Z" /><path class="shp5" d="M666.36 225.14L668.46 225.14" /><path class="shp5" d="M665.64 229.35L668.75 229.35" /><path class="shp5" d="M664.86 233.88L668.46 233.88" /><path class="shp5" d="M666.04 226.99L667.41 226.99" /><path class="shp5" d="M665.28 231.42L667.19 231.42" /><path class="shp3" d="M662.44 249.48L676.19 249.48L676.19 258.84L662.44 258.84L662.44 249.48Z" /><path class="shp3" d="M657.34 259.51L682.01 259.51L682.01 271.04L657.34 271.04L657.34 259.51Z" /><path class="shp3" d="M661.61 247.94C661.61 247.94 659.56 249.63 662.44 250.53C662.44 250.53 668.94 249.46 676.83 250.53C676.83 250.53 679.49 249.45 677.3 247.94C677.3 247.94 669.6 245.8 661.61 247.94Z" /><path class="shp4" d="M670.17 247.6C670.17 247.6 670.88 249.07 670.17 249.41C670.17 249.41 674.02 249.14 676.59 249.81C676.59 249.81 678.09 249.01 676.59 248.41C675.09 247.81 673.24 247.54 670.17 247.6L670.17 247.6Z" /><path class="shp3" d="M655.99 257.44C655.99 257.44 652.47 260.34 657.4 261.86C657.4 261.86 668.51 260.03 682.01 261.86C682.01 261.86 686.56 260.03 682.82 257.44C682.82 257.44 669.65 253.77 655.99 257.44Z" /><path class="shp4" d="M670.62 256.87C670.62 256.87 671.85 259.38 670.62 259.95C670.62 259.95 677.21 259.5 681.6 260.64C681.6 260.64 684.16 259.27 681.6 258.24C679.04 257.21 675.87 256.75 670.62 256.87Z" /><path class="shp3" d="M655.99 269.73C655.99 269.73 652.47 272.63 657.4 274.15C657.4 274.15 668.51 272.32 682.01 274.15C682.01 274.15 686.56 272.32 682.82 269.73C682.82 269.73 669.65 266.06 655.99 269.73Z" /><path class="shp4" d="M670.62 269.16C670.62 269.16 671.85 271.67 670.62 272.24C670.62 272.24 677.21 271.79 681.6 272.93C681.6 272.93 684.16 271.56 681.6 270.53C679.04 269.5 675.87 269.04 670.62 269.16Z" /><path class="shp6" d="M671.69 262.9L674.18 263.02L673.98 267.36L671.49 267.24L671.69 262.9Z" /><path class="shp6" d="M675.05 263.03L677.55 263.15L677.34 267.49L674.85 267.37L675.05 263.03Z" /><path class="shp6" d="M678.38 263.2L680.87 263.32L680.67 267.66L678.18 267.54L678.38 263.2Z" /><g ><path class="shp7" d="M631.24 313.38L710.1 313.38L710.1 318.68L631.24 318.68L631.24 313.38Z" /><path class="shp4" d="M646.96 313.38L706.27 313.38L706.27 318.68L646.96 318.68L646.96 313.38Z" /><path class="shp5" d="M631.24 313.38L710.1 313.38L710.1 318.68L631.24 318.68L631.24 313.38Z" /></g><g ><path class="shp7" d="M628.1 308.92L713.24 308.92L713.24 314.23L628.1 314.23L628.1 308.92Z" /><path class="shp4" d="M645.07 308.92L709.1 308.92L709.1 314.23L645.07 314.23L645.07 308.92Z" /><path class="shp5" d="M628.1 308.92L713.24 308.92L713.24 314.23L628.1 314.23L628.1 308.92Z" /></g><g ><path class="shp3" d="M628.1 318.14L713.24 318.14L713.24 323.45L628.1 323.45L628.1 318.14Z" /><path class="shp4" d="M645.07 318.14L709.1 318.14L709.1 323.45L645.07 323.45L645.07 318.14Z" /><path class="shp8" d="M628.1 318.14L713.24 318.14L713.24 323.45L628.1 323.45L628.1 318.14Z" /></g><g ><path class="shp3" d="M629.68 323.45L711.56 323.45L711.56 328.76L629.68 328.76L629.68 323.45Z" /><path class="shp4" d="M646 323.45L707.59 323.45L707.59 328.76L646 328.76L646 323.45Z" /><path class="shp8" d="M629.68 323.45L711.56 323.45L711.56 328.76L629.68 328.76L629.68 323.45Z" /></g><g ><path class="shp3" d="M629.68 328.76L711.56 328.76L711.56 334.07L629.68 334.07L629.68 328.76Z" /><path class="shp4" d="M646 328.76L707.59 328.76L707.59 334.07L646 334.07L646 328.76Z" /><path class="shp8" d="M629.68 328.76L711.56 328.76L711.56 334.07L629.68 334.07L629.68 328.76Z" /></g><g ><path class="shp7" d="M623.73 334.07L717.61 334.07L717.61 339.38L623.73 339.38L623.73 334.07Z" /><path class="shp4" d="M642.44 334.07L713.05 334.07L713.05 339.38L642.44 339.38L642.44 334.07Z" /><path class="shp5" d="M623.73 334.07L717.61 334.07L717.61 339.38L623.73 339.38L623.73 334.07Z" /></g><g ><path class="shp7" d="M614.79 344.69L726.55 344.69L726.55 350L614.79 350L614.79 344.69Z" /><path class="shp4" d="M637.07 344.69L721.12 344.69L721.12 350L637.07 350L637.07 344.69Z" /><path class="shp5" d="M614.79 344.69L726.55 344.69L726.55 350L614.79 350L614.79 344.69Z" /></g><g ><path class="shp3" d="M608.99 350L732.35 350L732.35 360.5L608.99 360.5L608.99 350Z" /><path class="shp4" d="M633.58 350L726.36 350L726.36 360.5L633.58 360.5L633.58 350Z" /><path class="shp8" d="M608.99 350L732.35 350L732.35 360.5L608.99 360.5L608.99 350Z" /></g><g ><path class="shp7" d="M619.17 339.38L722.18 339.38L722.18 344.69L619.17 344.69L619.17 339.38Z" /><path class="shp4" d="M639.7 339.38L717.17 339.38L717.17 344.69L639.7 344.69L639.7 339.38Z" /><path class="shp5" d="M619.17 339.38L722.18 339.38L722.18 344.69L619.17 344.69L619.17 339.38Z" /></g><path fill-rule="evenodd" class="shp9" d="M675 160C693.39 160 711.59 163.62 728.58 170.66C745.56 177.69 760.99 188 773.99 201.01C787 214.01 797.31 229.44 804.34 246.42C811.38 263.41 815 281.61 815 300C815 318.39 811.38 336.59 804.34 353.58C797.31 370.56 787 385.99 773.99 398.99C760.99 412 745.56 422.31 728.58 429.34C711.59 436.38 693.39 440 675 440C656.61 440 638.41 436.38 621.42 429.34C604.44 422.31 589.01 412 576.01 398.99C563 385.99 552.69 370.56 545.66 353.58C538.62 336.59 535 318.39 535 300C535 281.61 538.62 263.41 545.66 246.42C552.69 229.44 563 214.01 576.01 201.01C589.01 188 604.44 177.69 621.42 170.66C638.41 163.62 656.61 160 675 160ZM675 171.24C658.09 171.24 641.35 174.58 625.73 181.05C610.11 187.52 595.91 197 583.96 208.96C572 220.91 562.52 235.11 556.05 250.73C549.58 266.35 546.24 283.09 546.24 300C546.24 316.91 549.58 333.65 556.05 349.27C562.52 364.89 572 379.09 583.96 391.04C595.91 403 610.11 412.48 625.73 418.95C641.35 425.42 658.09 428.76 675 428.76C691.91 428.76 708.65 425.42 724.27 418.95C739.89 412.48 754.09 403 766.04 391.04C778 379.09 787.48 364.89 793.95 349.27C800.42 333.65 803.76 316.91 803.76 300C803.75 283.09 800.42 266.35 793.95 250.73C787.48 235.11 778 220.91 766.04 208.96C754.09 197 739.89 187.52 724.27 181.05C708.65 174.58 691.91 171.24 675 171.24Z" /><path fill-rule="evenodd" class="shp10" d="M675 171.24C691.91 171.24 708.65 174.58 724.27 181.05C739.89 187.52 754.09 197 766.04 208.96C778 220.91 787.48 235.11 793.95 250.73C800.42 266.35 803.76 283.09 803.76 300C803.76 316.91 800.42 333.65 793.95 349.27C787.48 364.89 778 379.09 766.04 391.04C754.09 403 739.89 412.48 724.27 418.95C708.65 425.42 691.91 428.76 675 428.76C658.09 428.76 641.35 425.42 625.73 418.95C610.11 412.48 595.91 403 583.96 391.04C572 379.09 562.52 364.89 556.05 349.27C549.58 333.65 546.24 316.91 546.24 300C546.24 283.09 549.58 266.35 556.05 250.73C562.52 235.11 572 220.91 583.96 208.96C595.91 197 610.11 187.52 625.73 181.05C641.35 174.58 658.09 171.24 675 171.24ZM675 190.36C660.6 190.36 646.35 193.2 633.04 198.71C619.74 204.22 607.65 212.29 597.47 222.47C587.29 232.65 579.22 244.74 573.71 258.04C568.2 271.35 565.36 285.6 565.36 300C565.36 314.4 568.2 328.65 573.71 341.96C579.22 355.26 587.29 367.35 597.47 377.53C607.65 387.71 619.74 395.78 633.04 401.29C646.35 406.8 660.6 409.64 675 409.64C689.4 409.64 703.65 406.8 716.96 401.29C730.26 395.78 742.35 387.71 752.53 377.53C762.71 367.35 770.78 355.26 776.29 341.96C781.8 328.65 784.64 314.4 784.64 300C784.64 285.6 781.8 271.35 776.29 258.04C770.78 244.74 762.71 232.65 752.53 222.47C742.35 212.29 730.26 204.22 716.96 198.71C703.65 193.2 689.4 190.36 675 190.36Z" /><path fill-rule="evenodd" class="shp11" d="M675 190.36C689.4 190.36 703.65 193.2 716.96 198.71C730.26 204.22 742.35 212.29 752.53 222.47C762.71 232.65 770.78 244.74 776.29 258.04C781.8 271.35 784.64 285.6 784.64 300C784.64 314.4 781.8 328.65 776.29 341.96C770.78 355.26 762.71 367.35 752.53 377.53C742.35 387.71 730.26 395.78 716.96 401.29C703.65 406.8 689.4 409.64 675 409.64C660.6 409.64 646.35 406.8 633.04 401.29C619.74 395.78 607.65 387.71 597.47 377.53C587.29 367.35 579.22 355.26 573.71 341.96C568.2 328.65 565.36 314.4 565.36 300C565.36 285.6 568.2 271.35 573.71 258.04C579.22 244.74 587.29 232.65 597.47 222.47C607.65 212.29 619.74 204.22 633.04 198.71C646.35 193.2 660.6 190.36 675 190.36ZM675 199.36C661.78 199.36 648.7 201.96 636.49 207.02C624.28 212.08 613.18 219.49 603.83 228.83C594.49 238.18 587.08 249.28 582.02 261.49C576.96 273.7 574.36 286.78 574.36 300C574.36 313.22 576.96 326.3 582.02 338.51C587.08 350.72 594.49 361.82 603.83 371.17C613.18 380.51 624.28 387.92 636.49 392.98C648.7 398.04 661.78 400.64 675 400.64C688.22 400.64 701.3 398.04 713.51 392.98C725.72 387.92 736.82 380.51 746.17 371.17C755.51 361.82 762.92 350.72 767.98 338.51C773.04 326.3 775.64 313.22 775.64 300C775.64 286.78 773.04 273.7 767.98 261.49C762.92 249.28 755.51 238.18 746.17 228.83C736.82 219.49 725.72 212.08 713.51 207.02C701.3 201.96 688.22 199.36 675 199.36Z" /><path class="shp12" d="M682.7 419.2L677.7 421.95L674.94 426.96L672.19 421.95L667.18 419.2L672.19 416.44L674.94 411.44L677.7 416.44L682.7 419.2Z" /><path class="shp12" d="M682.7 180.8L677.7 178.05L674.94 173.04L672.19 178.05L667.18 180.8L672.19 183.56L674.94 188.56L677.7 183.56L682.7 180.8Z" /><path class="shp12" d="M794.2 292.3L796.95 297.3L801.96 300.06L796.95 302.81L794.2 307.82L791.44 302.81L786.44 300.06L791.44 297.3L794.2 292.3Z" /><path class="shp12" d="M555.8 292.3L553.05 297.3L548.04 300.06L553.05 302.81L555.8 307.82L558.56 302.81L563.56 300.06L558.56 297.3L555.8 292.3Z" /><path class="shp12" d="M727.73 407.18L724.16 411.64L723.53 417.31L719.07 413.74L713.39 413.11L716.96 408.65L717.59 402.98L722.05 406.55L727.73 407.18Z" /><path class="shp12" d="M636.5 186.93L630.82 186.3L626.36 182.73L625.73 188.41L622.17 192.87L627.84 193.5L632.3 197.07L632.93 191.39L636.5 186.93Z" /><path class="shp12" d="M782.18 247.27L786.64 250.84L792.31 251.47L788.74 255.93L788.11 261.61L783.65 258.04L777.98 257.41L781.55 252.95L782.18 247.27Z" /><path class="shp12" d="M561.93 338.5L561.3 344.18L557.73 348.64L563.41 349.27L567.87 352.83L568.5 347.16L572.07 342.7L566.39 342.07L561.93 338.5Z" /><path class="shp12" d="M764.73 378.84L763.14 384.32L764.73 389.81L759.25 388.22L753.76 389.81L755.35 384.32L753.76 378.84L759.25 380.43L764.73 378.84Z" /><path class="shp12" d="M596.16 210.27L590.68 211.86L585.19 210.27L586.78 215.75L585.19 221.24L590.68 219.65L596.16 221.24L594.57 215.75L596.16 210.27Z" /><path class="shp12" d="M753.84 210.27L759.32 211.86L764.81 210.27L763.22 215.75L764.81 221.24L759.32 219.65L753.84 221.24L755.43 215.75L753.84 210.27Z" /><path class="shp12" d="M585.27 378.84L586.86 384.32L585.27 389.81L590.75 388.22L596.24 389.81L594.65 384.32L596.24 378.84L590.75 380.43L585.27 378.84Z" /><path class="shp12" d="M788.07 338.5L788.7 344.18L792.27 348.64L786.59 349.27L782.13 352.83L781.5 347.16L777.93 342.7L783.61 342.07L788.07 338.5Z" /><path class="shp12" d="M567.82 247.27L563.36 250.84L557.69 251.47L561.26 255.93L561.89 261.61L566.35 258.04L572.02 257.41L568.45 252.95L567.82 247.27Z" /><path class="shp12" d="M713.5 186.93L719.18 186.3L723.64 182.73L724.27 188.41L727.84 192.87L722.16 193.5L717.7 197.07L717.07 191.39L713.5 186.93Z" /><path class="shp12" d="M622.27 407.18L625.84 411.64L626.47 417.31L630.93 413.74L636.61 413.11L633.04 408.65L632.41 402.98L627.95 406.55L622.27 407.18Z" /><path class="shp11" d="M702.89 415.99C703.01 416.59 703.01 417.22 702.89 417.83C702.77 418.44 702.53 419.01 702.18 419.53C701.84 420.05 701.39 420.49 700.88 420.83C700.36 421.18 699.78 421.42 699.18 421.54C698.57 421.66 697.94 421.66 697.33 421.54C696.72 421.42 696.15 421.18 695.63 420.83C695.11 420.49 694.67 420.05 694.33 419.53C693.98 419.01 693.74 418.44 693.62 417.83C693.5 417.22 693.5 416.59 693.62 415.99C693.74 415.38 693.98 414.8 694.33 414.28C694.67 413.77 695.11 413.32 695.63 412.98C696.15 412.63 696.72 412.4 697.33 412.27C697.94 412.15 698.57 412.15 699.18 412.27C699.78 412.4 700.36 412.63 700.88 412.98C701.39 413.32 701.84 413.77 702.18 414.28C702.53 414.8 702.77 415.38 702.89 415.99L702.89 415.99Z" /><path class="shp11" d="M656.38 182.17C656.26 181.56 656.02 180.99 655.67 180.47C655.33 179.95 654.89 179.51 654.37 179.17C653.85 178.82 653.28 178.58 652.67 178.46C652.06 178.34 651.43 178.34 650.82 178.46C650.22 178.58 649.64 178.82 649.12 179.17C648.61 179.51 648.16 179.95 647.82 180.47C647.47 180.99 647.23 181.56 647.11 182.17C646.99 182.78 646.99 183.41 647.11 184.01C647.23 184.62 647.47 185.2 647.82 185.72C648.16 186.23 648.61 186.68 649.12 187.02C649.64 187.37 650.22 187.6 650.82 187.73C651.43 187.85 652.06 187.85 652.67 187.73C653.28 187.6 653.85 187.37 654.37 187.02C654.89 186.68 655.33 186.23 655.67 185.72C656.02 185.2 656.26 184.62 656.38 184.01C656.5 183.41 656.5 182.78 656.38 182.17Z" /><path class="shp11" d="M790.99 272.11C791.59 271.99 792.22 271.99 792.83 272.11C793.44 272.23 794.01 272.47 794.53 272.82C795.05 273.16 795.49 273.61 795.83 274.12C796.18 274.64 796.42 275.22 796.54 275.82C796.66 276.43 796.66 277.06 796.54 277.67C796.42 278.28 796.18 278.85 795.83 279.37C795.49 279.89 795.05 280.33 794.53 280.67C794.01 281.02 793.44 281.26 792.83 281.38C792.22 281.5 791.59 281.5 790.99 281.38C790.38 281.26 789.8 281.02 789.28 280.67C788.77 280.33 788.32 279.89 787.98 279.37C787.63 278.85 787.4 278.28 787.27 277.67C787.15 277.06 787.15 276.43 787.27 275.82C787.4 275.22 787.63 274.64 787.98 274.12C788.32 273.61 788.77 273.16 789.28 272.82C789.8 272.47 790.38 272.23 790.99 272.11L790.99 272.11Z" /><path class="shp11" d="M557.17 318.62C556.56 318.74 555.99 318.98 555.47 319.33C554.95 319.67 554.51 320.11 554.17 320.63C553.82 321.15 553.58 321.72 553.46 322.33C553.34 322.94 553.34 323.57 553.46 324.18C553.58 324.78 553.82 325.36 554.17 325.88C554.51 326.39 554.95 326.84 555.47 327.18C555.99 327.53 556.56 327.77 557.17 327.89C557.78 328.01 558.41 328.01 559.01 327.89C559.62 327.77 560.2 327.53 560.72 327.18C561.23 326.84 561.68 326.39 562.02 325.88C562.37 325.36 562.6 324.78 562.73 324.18C562.85 323.57 562.85 322.94 562.73 322.33C562.6 321.72 562.37 321.15 562.02 320.63C561.68 320.11 561.23 319.67 560.72 319.33C560.2 318.98 559.62 318.74 559.01 318.62C558.41 318.5 557.78 318.5 557.17 318.62Z" /><path class="shp11" d="M745.15 396.48C745.49 397 745.73 397.58 745.85 398.19C745.98 398.8 745.98 399.42 745.85 400.03C745.73 400.64 745.49 401.22 745.15 401.73C744.8 402.25 744.36 402.69 743.85 403.04C743.33 403.38 742.75 403.62 742.14 403.74C741.54 403.86 740.91 403.86 740.3 403.74C739.69 403.62 739.11 403.38 738.6 403.04C738.08 402.69 737.64 402.25 737.3 401.73C736.95 401.22 736.71 400.64 736.59 400.03C736.47 399.42 736.47 398.8 736.59 398.19C736.71 397.58 736.95 397 737.3 396.48C737.64 395.97 738.08 395.53 738.6 395.18C739.11 394.84 739.69 394.6 740.3 394.48C740.91 394.36 741.54 394.36 742.14 394.48C742.75 394.6 743.33 394.84 743.85 395.18C744.36 395.53 744.8 395.97 745.15 396.48L745.15 396.48Z" /><path class="shp11" d="M612.7 198.27C612.36 197.75 611.92 197.31 611.4 196.96C610.89 196.62 610.31 196.38 609.7 196.26C609.09 196.14 608.46 196.14 607.86 196.26C607.25 196.38 606.67 196.62 606.15 196.96C605.64 197.31 605.2 197.75 604.85 198.27C604.51 198.78 604.27 199.36 604.15 199.97C604.02 200.58 604.02 201.2 604.15 201.81C604.27 202.42 604.51 203 604.85 203.52C605.2 204.03 605.64 204.47 606.15 204.82C606.67 205.16 607.25 205.4 607.86 205.52C608.46 205.64 609.09 205.64 609.7 205.52C610.31 205.4 610.89 205.16 611.4 204.82C611.92 204.47 612.36 204.03 612.7 203.52C613.05 203 613.29 202.42 613.41 201.81C613.53 201.2 613.53 200.58 613.41 199.97C613.29 199.36 613.05 198.78 612.7 198.27L612.7 198.27Z" /><path class="shp11" d="M771.48 229.85C772 229.51 772.58 229.27 773.19 229.15C773.8 229.02 774.42 229.02 775.03 229.15C775.64 229.27 776.22 229.51 776.73 229.85C777.25 230.2 777.69 230.64 778.04 231.15C778.38 231.67 778.62 232.25 778.74 232.86C778.86 233.46 778.86 234.09 778.74 234.7C778.62 235.31 778.38 235.89 778.04 236.4C777.69 236.92 777.25 237.36 776.73 237.7C776.22 238.05 775.64 238.29 775.03 238.41C774.42 238.53 773.8 238.53 773.19 238.41C772.58 238.29 772 238.05 771.48 237.7C770.97 237.36 770.53 236.92 770.18 236.4C769.84 235.89 769.6 235.31 769.48 234.7C769.36 234.09 769.36 233.46 769.48 232.86C769.6 232.25 769.84 231.67 770.18 231.15C770.53 230.64 770.97 230.2 771.48 229.85Z" /><path class="shp11" d="M573.27 362.3C572.75 362.64 572.31 363.08 571.96 363.6C571.62 364.11 571.38 364.69 571.26 365.3C571.14 365.91 571.14 366.54 571.26 367.14C571.38 367.75 571.62 368.33 571.96 368.85C572.31 369.36 572.75 369.8 573.27 370.15C573.78 370.49 574.36 370.73 574.97 370.85C575.58 370.98 576.2 370.98 576.81 370.85C577.42 370.73 578 370.49 578.52 370.15C579.03 369.8 579.47 369.36 579.82 368.85C580.16 368.33 580.4 367.75 580.52 367.14C580.64 366.54 580.64 365.91 580.52 365.3C580.4 364.69 580.16 364.11 579.82 363.6C579.47 363.08 579.03 362.64 578.52 362.3C578 361.95 577.42 361.71 576.81 361.59C576.2 361.47 575.58 361.47 574.97 361.59C574.36 361.71 573.78 361.95 573.27 362.3L573.27 362.3Z" /><path class="shp11" d="M776.73 362.3C777.25 362.64 777.69 363.08 778.04 363.6C778.38 364.11 778.62 364.69 778.74 365.3C778.86 365.91 778.86 366.54 778.74 367.14C778.62 367.75 778.38 368.33 778.04 368.85C777.69 369.36 777.25 369.8 776.73 370.15C776.22 370.49 775.64 370.73 775.03 370.85C774.42 370.98 773.8 370.98 773.19 370.85C772.58 370.73 772 370.49 771.48 370.15C770.97 369.8 770.53 369.36 770.18 368.85C769.84 368.33 769.6 367.75 769.48 367.14C769.36 366.54 769.36 365.91 769.48 365.3C769.6 364.69 769.84 364.11 770.18 363.6C770.53 363.08 770.97 362.64 771.48 362.3C772 361.95 772.58 361.71 773.19 361.59C773.8 361.47 774.42 361.47 775.03 361.59C775.64 361.71 776.22 361.95 776.73 362.3L776.73 362.3Z" /><path class="shp11" d="M578.52 229.85C578 229.51 577.42 229.27 576.81 229.15C576.2 229.02 575.58 229.02 574.97 229.15C574.36 229.27 573.78 229.51 573.27 229.85C572.75 230.2 572.31 230.64 571.96 231.15C571.62 231.67 571.38 232.25 571.26 232.86C571.14 233.46 571.14 234.09 571.26 234.7C571.38 235.31 571.62 235.89 571.96 236.4C572.31 236.92 572.75 237.36 573.27 237.7C573.78 238.05 574.36 238.29 574.97 238.41C575.58 238.53 576.2 238.53 576.81 238.41C577.42 238.29 578 238.05 578.52 237.7C579.03 237.36 579.47 236.92 579.82 236.4C580.16 235.89 580.4 235.31 580.52 234.7C580.64 234.09 580.64 233.46 580.52 232.86C580.4 232.25 580.16 231.67 579.82 231.15C579.47 230.64 579.03 230.2 578.52 229.85L578.52 229.85Z" /><path class="shp11" d="M737.3 198.27C737.64 197.75 738.08 197.31 738.6 196.96C739.11 196.62 739.69 196.38 740.3 196.26C740.91 196.14 741.54 196.14 742.14 196.26C742.75 196.38 743.33 196.62 743.85 196.96C744.36 197.31 744.8 197.75 745.15 198.27C745.49 198.78 745.73 199.36 745.85 199.97C745.98 200.58 745.98 201.2 745.85 201.81C745.73 202.42 745.49 203 745.15 203.52C744.8 204.03 744.36 204.47 743.85 204.82C743.33 205.16 742.75 205.4 742.14 205.52C741.54 205.64 740.91 205.64 740.3 205.52C739.69 205.4 739.11 205.16 738.6 204.82C738.08 204.47 737.64 204.03 737.3 203.52C736.95 203 736.71 202.42 736.59 201.81C736.47 201.2 736.47 200.58 736.59 199.97C736.71 199.36 736.95 198.78 737.3 198.27L737.3 198.27Z" /><path class="shp11" d="M604.85 396.48C604.51 397 604.27 397.58 604.15 398.19C604.02 398.8 604.02 399.42 604.15 400.03C604.27 400.64 604.51 401.22 604.85 401.73C605.2 402.25 605.64 402.69 606.15 403.04C606.67 403.38 607.25 403.62 607.86 403.74C608.46 403.86 609.09 403.86 609.7 403.74C610.31 403.62 610.89 403.38 611.4 403.04C611.92 402.69 612.36 402.25 612.7 401.73C613.05 401.22 613.29 400.64 613.41 400.03C613.53 399.42 613.53 398.8 613.41 398.19C613.29 397.58 613.05 397 612.7 396.48C612.36 395.97 611.92 395.53 611.4 395.18C610.89 394.84 610.31 394.6 609.7 394.48C609.09 394.36 608.46 394.36 607.86 394.48C607.25 394.6 606.67 394.84 606.15 395.18C605.64 395.53 605.2 395.97 604.85 396.48L604.85 396.48Z" /><path class="shp11" d="M792.83 318.62C793.44 318.74 794.01 318.98 794.53 319.33C795.05 319.67 795.49 320.11 795.83 320.63C796.18 321.15 796.42 321.72 796.54 322.33C796.66 322.94 796.66 323.57 796.54 324.18C796.42 324.78 796.18 325.36 795.83 325.88C795.49 326.39 795.05 326.84 794.53 327.18C794.01 327.53 793.44 327.77 792.83 327.89C792.22 328.01 791.59 328.01 790.99 327.89C790.38 327.77 789.8 327.53 789.28 327.18C788.77 326.84 788.32 326.39 787.98 325.88C787.63 325.36 787.4 324.78 787.27 324.18C787.15 323.57 787.15 322.94 787.27 322.33C787.4 321.72 787.63 321.15 787.98 320.63C788.32 320.11 788.77 319.67 789.28 319.33C789.8 318.98 790.38 318.74 790.99 318.62C791.59 318.5 792.22 318.5 792.83 318.62Z" /><path class="shp11" d="M559.01 272.11C558.41 271.99 557.78 271.99 557.17 272.11C556.56 272.23 555.99 272.47 555.47 272.82C554.95 273.16 554.51 273.61 554.17 274.12C553.82 274.64 553.58 275.22 553.46 275.82C553.34 276.43 553.34 277.06 553.46 277.67C553.58 278.28 553.82 278.85 554.17 279.37C554.51 279.89 554.95 280.33 555.47 280.67C555.99 281.02 556.56 281.26 557.17 281.38C557.78 281.5 558.41 281.5 559.01 281.38C559.62 281.26 560.2 281.02 560.72 280.67C561.23 280.33 561.68 279.89 562.02 279.37C562.37 278.85 562.6 278.28 562.73 277.67C562.85 277.06 562.85 276.43 562.73 275.82C562.6 275.22 562.37 274.64 562.02 274.12C561.68 273.61 561.23 273.16 560.72 272.82C560.2 272.47 559.62 272.23 559.01 272.11L559.01 272.11Z" /><path class="shp11" d="M693.62 182.17C693.74 181.56 693.98 180.99 694.33 180.47C694.67 179.95 695.11 179.51 695.63 179.17C696.15 178.82 696.72 178.58 697.33 178.46C697.94 178.34 698.57 178.34 699.18 178.46C699.78 178.58 700.36 178.82 700.88 179.17C701.39 179.51 701.84 179.95 702.18 180.47C702.53 180.99 702.77 181.56 702.89 182.17C703.01 182.78 703.01 183.41 702.89 184.01C702.77 184.62 702.53 185.2 702.18 185.72C701.84 186.23 701.39 186.68 700.88 187.02C700.36 187.37 699.78 187.6 699.18 187.73C698.57 187.85 697.94 187.85 697.33 187.73C696.72 187.6 696.15 187.37 695.63 187.02C695.11 186.68 694.67 186.23 694.33 185.72C693.98 185.2 693.74 184.62 693.62 184.01C693.5 183.41 693.5 182.78 693.62 182.17Z" /><path class="shp11" d="M647.11 415.99C646.99 416.59 646.99 417.22 647.11 417.83C647.23 418.44 647.47 419.01 647.82 419.53C648.16 420.05 648.61 420.49 649.12 420.83C649.64 421.18 650.22 421.42 650.82 421.54C651.43 421.66 652.06 421.66 652.67 421.54C653.28 421.42 653.85 421.18 654.37 420.83C654.89 420.49 655.33 420.05 655.67 419.53C656.02 419.01 656.26 418.44 656.38 417.83C656.5 417.22 656.5 416.59 656.38 415.99C656.26 415.38 656.02 414.8 655.67 414.28C655.33 413.77 654.89 413.32 654.37 412.98C653.85 412.63 653.28 412.4 652.67 412.27C652.06 412.15 651.43 412.15 650.82 412.27C650.22 412.4 649.64 412.63 649.12 412.98C648.61 413.32 648.16 413.77 647.82 414.28C647.47 414.8 647.23 415.38 647.11 415.99L647.11 415.99Z" /><g ><path class="shp13" d="M674.92 305.84C674.92 305.84 653.95 283.73 644.42 324.71C634.89 365.68 648.61 365.3 650.33 365.5C650.33 365.5 657.57 365.88 656.43 358.06C656.43 358.06 654.49 355.44 654.33 359.97C654.33 359.97 647.66 369.69 647.28 351.96C647.28 351.96 648.61 335.57 663.67 337.67C663.67 337.67 668.63 363.21 661.19 374.26C661.19 374.26 669.2 379.98 673.39 371.4C673.39 371.4 680.44 374.64 684.07 369.31C684.07 369.31 686.16 351.77 687.88 347.77C687.88 347.77 705.99 349.67 710.37 347.2C710.37 347.2 714.37 354.25 718.56 357.3C718.56 357.3 721.8 367.4 719.52 370.26C719.52 370.26 718.56 372.55 723.71 372.36C723.71 372.36 730.57 378.46 735.34 373.31C735.34 373.31 733.05 349.68 736.29 343C736.29 343 739.53 311.55 710.37 306.03C710.37 306.03 695.12 303.93 674.92 305.84L674.92 305.84Z" /><path class="shp14" d="M678.35 340.14C678.35 340.14 675.87 347.57 673.39 348.53C673.39 348.53 681.78 348.34 678.35 340.14Z" /><path class="shp14" d="M711.51 332.9C711.51 332.9 711.13 347.58 727.52 354.82C727.52 354.82 730.38 355.6 726.57 352.16C726.57 352.16 715.13 342.62 713.99 334.61C713.99 334.61 711.7 327.37 711.51 332.9L711.51 332.9Z" /><path class="shp14" d="M650.52 314.22C650.52 314.22 648.8 314.6 650.52 316.89C650.52 316.89 648.42 318.98 650.14 320.32C650.14 320.32 651.28 317.46 653.19 317.27C653.19 317.27 657.76 313.65 650.52 314.22Z" /><path fill-rule="evenodd" class="shp14" d="M665.46 342.86L664.57 343.78C664.14 340.1 663.67 337.67 663.67 337.67C648.61 335.57 647.28 351.96 647.28 351.96C647.66 369.69 654.33 359.97 654.33 359.97C654.42 357.39 655.09 357.13 655.64 357.38L655.45 357.73C656.09 361.01 653.52 362.66 653.52 362.66C647.09 366.02 645.66 358.16 645.66 358.16C642.8 341.86 648.09 336 648.09 336C664.81 332.42 662.24 310.55 662.24 310.55C661.38 304.41 665.24 303.69 665.24 303.69C667.96 303.69 681.68 306.26 681.25 318.06C680.82 329.85 665.46 342.86 665.46 342.86ZM666.74 331.21C666.74 331.21 662.38 334.35 671.6 332C671.6 332 689.76 319.77 669.46 306.98C669.46 306.98 661.96 303.33 667.67 309.76C667.67 309.76 677.11 315.63 673.82 323.06C673.82 323.06 672.39 329.13 666.74 331.21Z" /><path class="shp14" d="M725.19 365.58C725.22 365.65 725.25 365.73 725.28 365.8L725.28 357.15C725.28 357.15 711.84 352.01 708.06 332.49C708.06 332.49 698.76 338.35 683.54 339.43C683.54 339.43 684.76 343.29 681.25 347.5C681.25 347.5 682.44 366.05 681.48 370.23L681.3 370.78C681.28 370.81 681.27 370.85 681.25 370.88C681.25 370.88 681.26 370.87 681.27 370.87L680.94 371.85C682.08 371.4 683.18 370.61 684.06 369.3C684.06 369.3 686.16 351.77 687.88 347.77C687.88 347.77 705.98 349.67 710.37 347.19C710.37 347.19 714.37 354.25 718.56 357.3C718.56 357.3 720.15 362.27 720.32 366.22L725.19 365.58Z" /><path class="shp5" d="M674.92 305.84C674.92 305.84 653.95 283.73 644.42 324.71C634.89 365.68 648.61 365.3 650.33 365.5C650.33 365.5 657.57 365.88 656.43 358.06C656.43 358.06 654.49 355.44 654.33 359.97C654.33 359.97 647.66 369.69 647.28 351.96C647.28 351.96 648.61 335.57 663.67 337.67C663.67 337.67 668.63 363.21 661.19 374.26C661.19 374.26 669.2 379.98 673.39 371.4C673.39 371.4 680.44 374.64 684.07 369.31C684.07 369.31 686.16 351.77 687.88 347.77C687.88 347.77 705.99 349.67 710.37 347.2C710.37 347.2 714.37 354.25 718.56 357.3C718.56 357.3 721.8 367.4 719.52 370.26C719.52 370.26 718.56 372.55 723.71 372.36C723.71 372.36 730.57 378.46 735.34 373.31C735.34 373.31 733.05 349.68 736.29 343C736.29 343 739.53 311.55 710.37 306.03C710.37 306.03 695.12 303.93 674.92 305.84L674.92 305.84Z" /><path class="shp5" d="M673.39 371.4C673.39 371.4 674.85 360.48 674.68 354.44C674.68 354.44 685.25 346.36 683.54 339.43" /><path class="shp5" d="M707.91 329.42C707.91 329.42 708.13 347.65 725.28 357.15C725.28 357.15 725.78 370.12 723.71 372.36" /><path class="shp15" d="M653.56 328.24C651.59 330.18 644.93 335.69 629.32 340.14C629.32 340.14 644.24 340.67 656.69 331.55" /></g><g clip-path="url(#cp1)"><g ><g ><path class="shp0" d="M0 0L450 0L450 300L0 300L0 0Z" /><path fill-rule="evenodd" class="shp16" d="M0 0L450 300M450 0L0 300" /><path class="shp17" d="M225 0L225 300" /><path class="shp17" d="M0 150L450 150" /><path class="shp18" d="M225 0L225 300" /><path class="shp18" d="M0 150L450 150" /></g></g></g></svg>