<svg version="1.2" baseProfile="tiny-ps" xmlns="http://www.w3.org/2000/svg" viewBox="0 0 900 600" width="900" height="600"><title></title><defs><clipPath clipPathUnits="userSpaceOnUse" id="cp1"><path d="M0 0L450 0L450 300L0 300L0 0Z" /></clipPath></defs><style>tspan { white-space:pre }.shp0 { fill: #ffffff } .shp1 { fill: #ffcc00;stroke: #523300;stroke-width: 2.695 } .shp2 { fill: #e6e47e } .shp3 { fill: #5e3800 } .shp4 { fill: #ffffff;stroke: #523300;stroke-width: 2.695 } .shp5 { fill: #000d85 } .shp6 { fill: #915e00 } .shp7 { fill: none;stroke: #523300;stroke-width: 2.695 } .shp8 { fill: #cf142b } .shp9 { fill: #00247d } .shp10 { fill: #000000;stroke: #ffffff;stroke-width: 51.992 } .shp11 { fill: none;stroke: #ffffff;stroke-width: 86.653 } .shp12 { fill: none;stroke: #cf142b;stroke-width: 51.992 } </style><path class="shp0" d="M675 450C592.05 450 525 382.95 525 300C525 217.05 592.05 150 675 150C757.95 150 825 217.05 825 300C825 382.95 757.95 450 675 450Z" /><g ><path class="shp1" d="M631.76 429.26C636.09 373.48 639.96 322.15 642.42 280.9C638.09 277.38 633.75 273.87 629.3 270.35C602.7 262.27 590.39 242.58 592.5 211.29C601.88 204.02 615.47 222.19 626.84 227.7C632.81 232.15 638.67 239.77 642.42 245.74C648.87 234.49 647.81 223.36 647.34 212.11C639.96 192.89 655.2 188.09 662.11 197.34C670.08 228.52 681.45 222.3 683.2 217.03C680.51 197.93 683.44 191.13 696.56 196.52C703.48 207.66 700.66 234.26 709.69 239.18C716.95 218.44 735.12 211.05 756.33 207.19C755.16 235.55 738.16 246.68 724.34 261.33C723.05 261.56 721.64 261.8 720.23 262.15C723.05 272.34 716.72 273.28 712.03 275.98L712.03 292.38C721.64 301.05 727.85 310.43 728.44 321.09C734.77 329.53 728.79 335.27 721.05 340.78C708.52 350.16 695.98 340.55 683.44 331.76C683.67 368.09 683.91 404.41 684.26 440.74C666.8 436.88 649.34 433.01 631.76 429.26Z" /><path class="shp2" d="M721.41 323.79C716.37 327.66 708.98 306.45 714.84 304.22C721.64 302.34 727.03 319.1 721.41 323.79Z" /><path class="shp3" d="M720.47 322.27C714.49 317.46 712.85 311.95 716.6 305.98C721.29 311.37 723.05 316.88 720.47 322.27Z" /><path class="shp2" d="M706.05 326.13C701.02 330 690.35 308.55 696.21 306.21C702.66 304.34 711.33 321.45 706.05 326.13Z" /></g><g ><path class="shp3" d="M705.35 323.79C699.38 320.98 696.09 314.41 697.5 308.09C703.95 311.95 707.23 318.63 705.35 323.79Z" /><path class="shp3" d="M678.87 425.51C672.77 427.38 668.09 414.84 671.48 410.39C676.17 407.46 684.84 424.34 678.87 425.51Z" /><path class="shp3" d="M664.57 401.02C669.26 399.84 665.27 383.67 661.29 383.79C658.13 385.43 660.12 400.78 664.57 401.02Z" /><path class="shp3" d="M663.4 415.66C658.95 419.88 641.6 405.7 644.06 400.55C646.88 397.73 666.68 409.22 663.4 415.66Z" /><path class="shp3" d="M652.73 429.26C643.48 428.91 639.61 423.4 641.25 411.56C643.01 409.92 656.02 427.73 652.73 429.26Z" /><path class="shp3" d="M655.55 389.06C657.3 383.09 653.32 381.21 646.52 381.33C646.64 385.2 648.87 388.24 655.55 389.06Z" /><path class="shp3" d="M665.04 369.38C660.12 369.61 659.65 351.09 663.75 350.63C667.27 350.63 667.15 370.31 665.04 369.38Z" /><path class="shp3" d="M654.38 368.2C646.99 367.97 643.83 362.7 644.88 352.27C654.02 354.96 656.13 360.59 654.38 368.2Z" /><path class="shp3" d="M667.03 346.05C663.28 346.64 655.78 336.09 658.83 333.4C660.7 331.88 668.79 344.88 667.03 346.05Z" /><path class="shp3" d="M654.02 346.41C651.68 348.87 641.13 334.8 644.53 332.11C648.87 329.65 656.84 345 654.02 346.41Z" /></g><g ><path class="shp4" d="M721.05 269.3C717.54 270 715.31 269.65 711.68 265.2C715.31 261.45 717.19 262.15 720.82 262.73L721.05 269.3Z" /><path class="shp4" d="M633.98 265.66C640.9 259.45 647.7 258.28 654.49 267.89C647.7 272.58 640.9 271.88 633.98 265.66Z" /><path class="shp5" d="M641.02 269.18C640.31 265.78 641.25 264.84 642.54 261.91C644.77 261.68 646.76 261.91 648.98 263.67C649.45 267.66 649.45 267.77 648.52 269.77C645.94 270.12 643.59 269.88 641.02 269.18Z" /><path class="shp5" d="M715.31 263.67C714.73 265.43 714.73 265.78 715.31 267.66C716.95 268.71 718.24 268.36 719.88 268.48C720.12 267.3 720.12 265.43 720 263.79C718.48 263.32 716.84 263.09 715.31 263.67Z" /><path class="shp6" d="M651.21 289.22C643.24 313.95 652.73 323.67 673.95 323.2C672.42 325.55 670.9 327.89 669.38 330.23C675 328.48 680.63 326.6 686.25 328.48C692.93 319.22 695.63 310.31 696.8 301.52C697.38 293.32 697.15 285.12 696.21 277.03C696.8 273.52 695.04 270 690.94 266.48C691.05 250.78 688.13 248.09 688.59 234.84C686.13 230.16 682.15 225.47 676.88 220.78C667.5 237.07 661.88 244.8 659.41 245.39C652.62 244.8 656.25 212.81 649.45 196.88C648.05 194.53 644.06 199.69 647.46 212.11C649.69 225.7 647.81 238.48 642.54 246.33C641.37 244.92 642.07 245.98 638.2 240.82C632.81 249.02 634.92 254.18 655.31 253.01C663.63 257.23 671.13 262.15 673.95 271.17C673.83 279.73 678.63 287.11 688.59 293.32C689.65 304.1 684.38 306.8 679.8 310.31C676.17 314.77 685.2 319.34 685.08 322.03C668.67 320.04 655.9 306.33 651.21 289.22Z" /></g><g ><path class="shp7" d="M712.38 275.98C708.28 278.32 704.88 279.38 702.19 278.79" /><path class="shp7" d="M641.25 279.73C645 278.79 649.8 278.2 653.55 274.92" /><path class="shp7" d="M658.01 264.02C656.37 261.09 653.91 258.98 650.51 257.81" /></g><g ><path class="shp6" d="M722.11 256.29C708.63 242.58 716.02 234.14 729.26 227.11C726.8 230.98 725.27 234.96 725.16 238.83C727.27 236.6 730.08 234.84 733.36 233.2C730.31 237.54 728.91 241.76 728.32 246.09C729.96 245.51 731.72 245.04 733.36 244.45C731.48 250.2 726.56 253.01 722.11 256.29Z" /><path class="shp6" d="M608.91 250.66C611.25 255 614.41 269.06 629.77 257.34C633.28 230.74 612.07 227.58 600 215.74C597.89 215.16 598.71 218.91 600.59 220.66C608.32 228.16 620.27 236.48 623.44 245.51C619.57 242.93 615.7 240.94 611.84 239.53C614.53 243.75 616.88 248.09 618.98 252.89C615.59 253.01 612.19 252.42 608.91 250.66Z" /><path class="shp3" d="M673.13 398.2C671.02 396.8 668.91 388.24 673.13 383.91C677.23 384.49 676.29 398.44 673.13 398.2Z" /><path class="shp6" d="M689.77 195.59C692.11 207.42 689.18 213.63 686.37 220.55C684.38 220.2 682.85 219.49 683.55 217.38C682.27 204.38 682.62 195.23 689.77 195.59Z" /></g><g ><path class="shp7" d="M711.91 292.38C709.34 288.87 706.76 285.94 704.18 283.59" /><path class="shp7" d="M679.22 383.79C677.11 377.34 677.7 370.9 681.09 364.45" /><path class="shp7" d="M673.24 347.34C672.89 340.2 676.29 334.69 681.45 329.88" /></g><path class="shp6" d="M638.44 342.54C641.95 351.68 659.53 359.88 649.1 371.25C647.11 373.13 641.6 414.02 637.15 429.96L632.11 427.38C634.22 399.14 636.33 370.78 638.44 342.54Z" /><path class="shp7" d="M712.38 248.55C705.12 249.49 697.73 244.22 690.35 232.73" /><path class="shp2" d="M674.06 306.91C674.18 284.3 665.27 276.21 654.02 290.63C658.36 297.07 667.03 303.16 674.06 306.91Z" /><path fill-rule="evenodd" class="shp8" d="M-225 0L975 0L975 600L-225 600L-225 0ZM541.64 300C541.64 373.59 601.41 433.36 675 433.36C748.59 433.36 808.36 373.59 808.36 300C808.36 226.41 748.59 166.64 675 166.64C601.41 166.64 541.64 226.41 541.64 300Z" /><g clip-path="url(#cp1)"><g ><path class="shp9" d="M0 0L450 0L450 300L0 300L0 0Z" /><path class="shp10" d="M450 0L0 300M0 0L450 300" /><path class="shp11" d="M225 0L225 300" /><path class="shp11" d="M0 150L450 150" /><path class="shp12" d="M225 0L225 300" /><path class="shp12" d="M0 150L450 150" /></g></g></svg>