<svg version="1.2" xmlns="http://www.w3.org/2000/svg" viewBox="0 0 900 600" width="900" height="600">
	<title></title>
	<style>
		.s0 { fill: #00247d } 
		.s1 { fill: none;stroke: #ffffff;stroke-width: 52 } 
		.s2 { fill: none;stroke: #ffffff;stroke-width: 86.7 } 
		.s3 { fill: none;stroke: #cf142b;stroke-width: 52 } 
		.s4 { fill: #ffe26e } 
		.s5 { fill: #e9d562 } 
		.s6 { fill: #e0ac4d } 
		.s7 { fill: #c98335 } 
		.s8 { fill: #b2591c } 
		.s9 { fill: #858023 } 
		.s10 { fill: #6d8c20 } 
		.s11 { fill: #5d7c10 } 
		.s12 { fill: #557308 } 
		.s13 { fill: #ffcc00 } 
		.s14 { fill: #bb9608 } 
		.s15 { fill: #a38207 } 
		.s16 { fill: none;stroke: #000000;stroke-width: .5 } 
		.s17 { fill: #c7ae8a;stroke: #000000;stroke-width: .6 } 
		.s18 { fill: #666666;stroke: #000000;stroke-width: .6 } 
		.s19 { fill: #000000;stroke: #000000;stroke-width: .6 } 
		.s20 { fill: #720409;stroke: #000000;stroke-width: .6 } 
		.s21 { fill: #913a0e } 
		.s22 { fill: #6c767d;stroke: #000000;stroke-width: .6 } 
		.s23 { fill: #e9dbc8 } 
		.s24 { fill: #d8ad05 } 
		.s25 { fill: none;stroke: #4d3e04;stroke-width: .6 } 
		.s26 { fill: none;stroke: #000000;stroke-width: .6 } 
		.s27 { fill: #f1e8dc } 
		.s28 { fill: #242121;stroke: #000000;stroke-width: .6 } 
		.s29 { fill: #c2c7ca } 
		.s30 { fill: #6c767d;stroke: #000000;stroke-width: .5 } 
		.s31 { fill: #242121 } 
		.s32 { fill: #f8f4ee;stroke: #000000;stroke-width: .5 } 
		.s33 { fill: #2a2a2a } 
		.s34 { fill: #000000 } 
		.s35 { fill: #ffffff } 
		.s36 { fill: #a61713 } 
		.s37 { fill: #7ca9b4;stroke: #000000;stroke-width: .5 } 
		.s38 { fill: #a61713;stroke: #000000;stroke-width: .5 } 
		.s39 { fill: #c56a65 } 
		.s40 { fill: #ebbf59 } 
	</style>
	<g id="Layer">
		<path id="Layer" class="s0" d="m0 0h450v300h-450z"/>
		<g id="Layer">
			<path id="Layer" class="s1" d="m0 0l450 300m0-300l-450 300"/>
			<path id="Layer" class="s2" d="m225 0v300m-225-150h450"/>
			<path id="Layer" class="s3" d="m225 0v300m-225-150h450"/>
		</g>
		<path id="Layer" class="s0" d="m0 300h900v300h-900zm450-300h450v600h-450z"/>
	</g>
	<circle id="path5147" class="s4" cx="675" cy="300" r="140"/>
	<g id="g5623">
		<path id="path5445" class="s5" d="m542.5 337.2c0 0-2.6-7.5-1.6-11 0.8-3 3-3.6 5.9-4.4 3.2-0.8 6.8 2.7 9.2 0.6 1.9-1.7-2.6-5.2-1.6-7.6 1-2.4 3.9-0.8 6.5-1.1 3.1-0.2 6 2.3 8.6 0.6 2.7-1.8-1.9-7.1 0-9.7 2.9-4 6.2-5 10.3-2.2 2.8 2 1.8 5.7 4.3 8.1 2.1 2 7.1 2.4 8.6 0 1.8-2.9-3.6-5.9-4.3-9.2-0.9-4-2.4-9 0-12.4 2.1-3 6.9-5.3 10.3-3.8 3.1 1.5 4 6.3 7 8.1 3.6 2.3 6.7 3.7 9.7 0.6 3.3-3.6-3-11.2 0.5-14.6 3.4-3.3 13.7-9.2 18.4-9.7 8.3-1 17.1 11.6 20 3.8 1.8-5.1-7.5-8.1-9.8-13-2-4.4-4.9-6.6-4.3-11.3 0.3-2.8 1.3-6.3 3.8-7.6 3.5-1.9 9.9 1.5 13-1.1 2.5-2.2-1.8-7.3 0-10.2 2.3-3.9 7.5-1.6 8.6-6 1-4-4.2-6.6-3.8-10.8 0.3-3.3 3.9-4.2 4.3-7.5 0.5-4.2-4.7-6.2-3.8-10.3 0.9-3.4 5.7-1.9 9-3.9 3.4-2.1 5.3-7.5 8.9-7.4 1.8 0 0.1 5 1.9 6.2 1.7 1.2 6.8-1.6 7.2 0.3 1.2 4.7-9.2 8.6-7 12.9 2.9 5.5 14.3-2.4 18.4 2.2 1.3 1.5-1.4 4.5 0 5.9 3.5 3.6 11.5 3.6 15.1 0 0.6-0.6-0.5-1.9 0-2.7 1.6-2.6 6.7-0.9 9.7-1.6 4-0.9 8.2-5.4 10.8-2.2 1.8 2.3-2.7 6-1.6 8.7 2.4 5.8 9.3 10.5 15.6 10.8 4 0.1 1.9 1 5.4 2.7 4 1.8 3.8 1.4 7.1 4.3 3.3 3 9.6-1.9 13.5 0.5 3.6 2.3 2.7 8.6 5.9 11.4 2 1.7 6 0.5 7.5 2.7 1.7 2.3 1.7 6.2 0 8.6-2.6 3.8-12.2 0.3-12.9 4.9-0.4 2.9 7.3 2.4 7 5.4-0.6 6.2-13.8 3-16.7 8.6-1.8 3.4-0.6 8.2 1.6 11.3 2.1 3.1 8.6 1.9 9.7 5.4 1.2 3.9-5.9 6.8-5.5 10.9 0.2 3.7 7.9 5.6 6.6 9.1-0.3 0.7-1.5 0.2-2.2 0.5-2.6 1.2-7.4 2.1-7 4.9 0.6 3.7 8.7 0.2 10.8 3.2 1.8 2.5-2.9 7.2-0.5 9.2 4.6 4 12.2-6.1 17.8-3.8 0.6 0.3 0.5 1.4 1.1 1.7 2.2 0.8 4.8-2.7 7-1.7 2.7 1.3 3.8 8.1 3.8 8.1l-4.4 4.6z"/>
		<path id="path5447" class="s6" d="m811.3 332.1c-14.5 61.9-70 107.9-136.3 107.9-66.4 0-122-46.3-136.4-108.3 145.2-9.5 226.8-1.3 272.7 0.4z"/>
		<path id="path5449" class="s7" d="m660.6 328.1c3.8 0.3 6.9 1.7 10.2 3.5 3.2 1.8 6.3 3.6 8.6 7.5 1.7 2.9 1.9 6.6 1.5 8.7-0.4 1.9-0.6 2.4-0.7 2.6 0.4-0.4 0.8-0.7 1.2-1 1.4-1.1 2.7-2.3 5.6-2.9 1.9-0.4 3.2-0.8 5.3-0.6 2 0.1 3.6 1 4.5 1.4-1-0.5-0.6-0.2-0.2-0.1 0.5 0.1 1.2 0.2 2.1 0.4 1.7 0.3 4 0.6 6.3 1 2.2 0.5 4.6 0.9 6.7 1.6 1 0.3 2.1 0.7 3.2 1.3 1.1 0.6 2.8 1.3 3.9 4.2 0.9 2.7-0.2 5.5-1.2 6.8-1 1.3-1.8 1.9-2.7 2.5-1.7 1.1-3.4 1.9-5 2.7-1.6 0.7-3.2 1.5-4.1 2-0.1 0-0.1 0-0.2 0.1-1.3 3.9-3.6 7.3-8 9.7-3.1 1.7-5.9 1.4-7.9 1.2-2-0.2-3.6-0.5-4-0.5-3.6 0-4.1-0.4-7.2 0-0.2 0-3 1-5.8 2.1-2.8 1-5.6 2.6-10.3 1.9-2.7-0.5-5-2.3-6.3-3.6-0.4 0.2-0.7 0.2-1.4 0.5-1.8 0.9-4.2 2.3-8 2.5-1.8 0-4.2 0.2-6.9-0.2-2.7-0.3-6.4-1.4-8.7-4.8-2.3-3.3-2.2-7-1.6-9.7 0.6-2.6 1.7-4.8 2.9-6.6 1.9-2.9 4.9-3.9 6.3-4.3 0.2-0.1 0.1-0.1 0.3-0.2 0-0.2 0.1-0.3 0.2-0.7 0.3-1.5 0.6-4.7 4.2-7.1 1.7-1.1 4-1.4 5.5-1.3 0.4 0.1 0.7 0.1 1.1 0.2 0.3-0.6 0.4-1.4 0.5-2-0.2-0.2-0.4-1-1.1-2.1-0.6-0.9-1.3-1.9-2-3.6-0.6-1.6-1.1-4.3 0.1-6.9 0.8-1.7 2.2-3.6 4.1-4.8 2-1.2 4-1.5 5.7-1.5 1.2-0.1 2.2 0 3.3 0.1z"/>
		<path id="path5451" class="s8" d="m643.8 362.1c1.6-1.8 1.1-5.7 3-6.9 1.9-1.3 3.8 1.3 6 0 2.1-1.4 3.8-5.4 4-8.7 0.1-3.3-4.9-6.9-3.7-9.6 1.2-2.7 3.1-3 7-2.7 3.9 0.3 11.9 4.5 14 8 2 3.5 0 5.3 0 8.3 0 3-3.7 7.4 0 9.6 3.6 2.3 10.7-6.8 14.2-7.6 3.6-0.8 3.8-0.7 5.7 0.3 1.9 1 18 2.4 19 5 0.9 2.6-11.9 6-12.7 8.7-0.8 2.6-3.2 6.3-5.6 7.6-2.4 1.3-6.2 0-9 0-2.8 0-4.2-0.5-8 0-3.8 0.5-10.7 4.6-14.3 4-3.6-0.6-2.9-3.5-6-4-3-0.5-7.3 3.2-10.9 3.3-3.7 0.2-8.5 0.4-10.4-2.3-1.8-2.7-0.2-7 1.4-9.3 1.5-2.3 4.6-1.8 6.3-3.7z"/>
		<path id="path5453" class="s9" d="m636.9 406.5c0.3-0.9 2.3-0.1 2.6-1 0.3-1.2-2.3-1.9-2.1-3.1 0.8-3.2 5.7-3.3 8.4-5.1 5.9-3.6 11.5-7.7 17.6-10.9 2.8-1.4 5.6-2.9 8.6-3.6 3.6-0.7 8.3-2.5 11 0 1.4 1.4-1.3 4.6 0.2 5.9 4.2 3.5 10.8-1 16.1-2 7.5-1.6 14.4-6.1 22.1-6.4 2.7-0.1 5.5 0.4 7.9 1.5 1.6 0.8 4 1.8 4.1 3.6 0.1 4.1-4.9 7.1-8.7 8.6-4.5 1.9-9.7-0.7-14.5 0-5.4 0.9-11.6 1.2-15.8 4.9-3 2.7-1.6 8.9-5.1 11.2-4.5 3-11.4-2-16.2 0.5-2.5 1.2-2.7 5.2-5.1 6.3-1.9 1-4.3 0-6.4 0-3.3 0.2-6.7 1.5-9.9 0.8-3.8-0.8-7.5-2.8-10.4-5.3-1.9-1.6-5-3.6-4.4-5.9z"/>
		<g id="g5461">
			<path id="path5455" class="s10" d="m724.2 368.9l-2.2-12.3-7.4-8-1-9-16.4-5.2-7.3-7.3c0 0-2.8-5.3-4.6-7.7-2-2.7-6.9-7.6-6.9-7.6l8.1 2.6c0 0-5.4-5.8-6.5-9.5-0.8-2.4 0.8-5.3 0-7.7-1-2.9-5.8-7.2-5.8-7.2 0 0 4.6 1.1 6.5 2.3 2.9 1.7 7.3 6.9 7.3 6.9 0 0-3.5-5.7-4.2-8.8l-2.4-7.8c5.8 4.8 9.2 4.9 11.8 3.7 0 0-3.5-6.4-5.9-7.4-2.3-1.1-6.1 0.4-6.1 0.4 0 0 3.2-4.1 5.4-5 2.2-0.9 6.8 0 6.8 0 0 0-3.2-6.6-5.3-8.8-2.2-2.2-6.9-4.6-6.9-4.6 0 0 3.5-1.1 6.1-0.7 2.6 0.3 8.8 3.4 8.8 3.4 0 0-3.9-4-5-6.5-1-2.4-0.9-5.1-1.1-7.6-0.2-2.5 0-7.3 0-7.3 0 0 2.3 4.5 3.8 6.5 2.3 2.9 8.1 7.6 8.1 7.6 0 0-2.8-6.7-3.1-10.3-0.3-2.8 0.8-8.4 0.8-8.4 0 0 2.8 7.1 4.9 10.3 1.6 2.4 5.8 6.5 5.8 6.5 0 0-2.9-4.4-3.5-6.9-0.7-2.9 1.3-6.3 0-9.1-0.7-1.6-3.8-3.5-3.8-3.5 0 0 3.5-0.7 5 0 2.1 1 4.6 5.4 4.6 5.4 0 0-0.5-4.7 0-6.9 0.8-4.1 4.9-7.3 4.9-11.5 0-2.3-2.7-6.5-2.7-6.5 0 0 7.5 3.8 9.2 7.3 2.1 4.2 0 14.1 0 14.1 1.8-3.5 3.9-6.1 6.5-6.8l-0.8 2.8c-0.9 3.1 1.3 6.6 0.8 10.5 0 0 1.9-5.3 3.8-7.2 1.8-1.7 6.5-3.1 6.5-3.1 0 0-2.8 4.9-3.4 7.7-0.7 3.5 0 10.7 0 10.7 0 0 4.9-2.3 5.7-4.6 0.8-2.1-1.1-6.5-1.1-6.5 0 0 4.6 3 5.7 5.3 1.1 2.3 0.9 5.2 0.4 7.7-0.7 3.4-4.6 9.5-4.6 9.5 0 0 3.7-4.5 6.5-5.6 2.7-1.2 8.8-0.9 8.8-0.9 0 0-5.4 4.1-7.6 6.5-1.4 1.5-2.6 3.2-3.5 5-1.5 3.4-2.7 10.7-2.7 10.7 0 0 2.2-3.1 3.9-3.8 2-0.8 6.5 0 6.5 0 0 0-3.8 3.7-4.6 6.1-0.7 2.2 0 6.9 0 6.9 0 0 3.5-5.5 6.1-7.3 2.4-1.7 8.4-3 8.4-3 0 0-4.1 3.6-5 6.1-0.7 2.1 0.5 4.6 0 6.9-0.7 3.1-4.2 8.8-4.2 8.8 0 0 4.5-5.2 7.3-6.9 2-1.2 6.5-2.3 6.5-2.3 0 0-4.7 4.3-5.7 7.2-0.9 2.4 0.7 5.3 0 7.7-1.2 3.7-6.5 9.5-6.5 9.5l8-2.6c0 0-4.9 4.9-6.9 7.6-1.8 2.4-4.6 7.7-4.6 7.7 0 0 5.5-1.1 7.7-2.7 1.6-1.2 3.4-5 3.4-5 0 0 0.7 4.6-0.4 6.5-1.6 2.8-5.9 3-8 5.4-2.2 2.4-4.6 8.8-4.6 8.8 0 0 4-5 6.9-5.8 2.2-0.6 6.9 1.2 6.9 1.2 0 0-3.8 0.3-5 1.5-2.4 2.4-0.8 7.1-3.1 9.6-1.6 1.8-4.9 1.4-6.8 3-2.4 1.9-5.4 7.3-5.4 7.3 3.2-1.9 6.4-4.1 9.6-1.2 0 0-6.8 2.8-9.2 5.4-1.6 1.6-1.5 4.4-3.1 6.1-2 2.2-4.7 3.9-7.6 4.6-2.8 0.6-8.4-0.8-8.4-0.8z"/>
			<path id="path5457" class="s11" d="m721.7 223.8c0.6 1.1 0.8 4.5 0.6 7.3-0.3 2.9-0.8 5.2-0.8 5.2-0.1 0.6 0 1.2 0.3 1.8 0.3 0.5 0.8 0.9 1.4 1.1 0.6 0.2 1.2 0.2 1.8 0 0.5-0.2 1-0.6 1.3-1.2 0.3-0.5 0.6-1 0.9-1.4 0.1 0.5 0.1 1.2 0.3 1.7 0.3 1.8 0.7 3.3 0.5 4.7-0.1 0.7 0 1.3 0.4 1.9 0.4 0.5 0.9 0.9 1.5 1 0.7 0.1 1.3 0 1.9-0.3 0.5-0.3 1-0.8 1.2-1.4 0 0 0.4-1.3 1-2.7 0.3-0.7 0.6-1.1 1-1.7q0 0.2-0.1 0.3c-0.5 2.3-0.4 5-0.3 7.3 0.1 2.4 0.3 4.2 0.3 4.2q0 0.6 0.4 1.2 0.3 0.5 0.8 0.8 0.6 0.3 1.2 0.3 0.6 0 1.2-0.2c0 0 1.3-0.6 2.8-1.6 1.5-1 3.3-2.1 4.2-4.4 0.1-0.1 0.1-0.2 0.1-0.3 0.4 1.4 0.4 3.4 0 5.4-0.2 1.1-1.3 3.5-2.3 5.3-1 1.9-1.9 3.4-1.9 3.4-0.4 0.5-0.6 1.2-0.4 1.8 0.1 0.7 0.4 1.3 1 1.7 0.5 0.4 1.2 0.5 1.8 0.4 0.7-0.1 1.3-0.4 1.7-0.9 0 0 0.8-1.1 2-2.3 1.1-1 2.4-2.1 3.2-2.5-0.5 0.5-1 1-1.4 1.4-1.5 1.6-2.9 3.5-3.9 5.7-1 2-1.6 4.8-2.1 7.1-0.5 2.3-0.8 4.2-0.8 4.2-0.1 0.6 0 1.2 0.3 1.7 0.3 0.5 0.7 0.9 1.3 1.1 0.5 0.2 1.1 0.3 1.7 0.1 0.5-0.2 1-0.5 1.4-1 0 0 0.4-0.7 1.1-1.5 0.6-0.7 1.6-1.5 1.6-1.5 0 0 0.1 0 0.1 0-0.7 0.9-1.3 1.9-1.6 3-0.7 1.8-0.5 3.6-0.4 5.2 0.1 1.6 0.3 2.9 0.3 2.9 0 0.5 0.3 1 0.6 1.3 0.4 0.4 0.8 0.7 1.3 0.8 0.6 0.1 1.1 0 1.6-0.2 0.4-0.2 0.9-0.5 1.1-0.9 0 0 0.9-1.3 2-2.8 1-1.3 2.2-2.6 3-3.3-0.5 1.6-0.3 3.1-0.2 4.2 0.2 1.3 0.3 2.1 0.2 2.6-0.3 1-1.3 3.2-2.2 4.9-0.9 1.8-1.7 3.1-1.7 3.1-0.4 0.6-0.5 1.2-0.4 1.8 0.1 0.7 0.5 1.3 1 1.6 0.5 0.4 1.2 0.6 1.8 0.5 0.7-0.1 1.2-0.4 1.7-0.9 0 0 1-1.2 2.4-2.6q0.5-0.5 1.1-1c-0.4 1.6-0.2 3.1 0 4.2 0.2 1.4 0.3 2.3 0.1 2.7-0.3 1.2-1.8 3.6-3.3 5.4-1.4 1.8-2.6 3.2-2.6 3.2q-0.5 0.6-0.6 1.3-0.2 0.7 0.1 1.4 0.3 0.7 0.9 1.1 0.6 0.5 1.4 0.5c-0.3 0.3-0.6 0.6-0.8 0.9-2.1 2.8-4.8 7.9-4.8 7.9q-0.4 0.7-0.3 1.4 0 0.8 0.5 1.4 0.4 0.6 1.1 0.8 0.7 0.3 1.4 0.2c0 0 0.4-0.1 0.4-0.1q-0.1 0-0.1 0.1c-1.5 1.7-2.6 3.9-3.5 5.9-1 2-1.6 3.7-1.6 3.7-0.2 0.5-0.2 1.1 0 1.7 0.2 0.6 0.6 1.1 1.2 1.3 0.5 0.3 1.1 0.5 1.7 0.3 0.6-0.1 1.1-0.4 1.5-0.8 0 0 0.9-1.2 2.2-2.4 0.3-0.3 0.6-0.5 0.9-0.8-0.2 1-0.3 2.1-0.4 3-0.2 1.8-0.5 2.9-0.9 3.4-0.2 0.2-0.8 0.5-2 0.8-1.3 0.4-2.9 0.6-4.5 1.9-1.7 1.4-3 3.3-4.1 5-1.1 1.6-1.9 3-1.9 3q-0.3 0.5-0.3 1-0.1 0.5 0.1 1 0.1 0.5 0.4 0.9 0.3 0.4 0.8 0.6c-0.1 0.1-0.2 0.1-0.3 0.2-1.2 1.4-1.7 2.9-2.1 4q-0.5 1.7-0.9 2.2c-1.7 1.8-4.1 3.3-6.4 3.8-0.6 0.1-2.6 0.1-4.2-0.2-1.4-0.2-2.2-0.4-2.5-0.5l-1.6-1.2-2.1-11.2q0-0.2-0.1-0.4-0.1-0.1-0.1-0.3-0.1-0.2-0.2-0.3-0.1-0.2-0.2-0.3l-6.9-7.4-0.8-8.2q-0.1-0.4-0.2-0.7-0.2-0.4-0.4-0.6-0.2-0.3-0.6-0.5-0.3-0.2-0.6-0.4l-15.8-4.9-6.6-6.7c-0.3-0.4-2.7-5-4.6-7.6-0.2-0.3-0.6-0.6-0.8-0.9q0.7-0.1 1.3-0.5 0.6-0.4 0.9-1.1 0.3-0.7 0.2-1.4-0.2-0.7-0.7-1.3c0 0-1.2-1.4-2.6-3.2-1.4-1.8-2.9-4.2-3.3-5.4-0.1-0.4-0.1-1.3 0.1-2.7 0.2-1.1 0.4-2.6 0-4.3 0.4 0.4 0.8 0.7 1.1 1 1.4 1.5 2.5 2.7 2.5 2.7 0.4 0.5 1 0.8 1.6 0.9 0.6 0 1.3-0.1 1.8-0.5 0.5-0.4 0.9-0.9 1-1.6 0.1-0.6 0-1.2-0.3-1.8 0 0-0.9-1.3-1.8-3.1-0.9-1.7-1.9-3.9-2.1-4.9q0 0 0-0.1 0 0 0 0 0 0-0.1 0 0-0.1 0-0.1l-0.4-1.3c0.7 0.3 1.4 0.7 2.1 0.9 2.4 0.6 4.6 0.2 6.3-0.5q0.5-0.3 0.9-0.6 0.3-0.4 0.5-0.9 0.2-0.6 0.1-1.1 0-0.5-0.3-1c0 0-0.9-1.7-2.2-3.5-0.6-1-1.3-1.9-2.1-2.8-0.7-0.8-1.4-1.6-2.6-2.2 0.6 0 1.2-0.1 2.1-0.1 1.3 0.1 2.4 0.3 2.4 0.3q0.7 0.2 1.4-0.1 0.6-0.3 1.1-0.8 0.4-0.6 0.5-1.3 0.1-0.8-0.3-1.4c0 0-0.8-1.7-1.9-3.7-1.1-2-2.4-4.2-3.9-5.8 0.7 0.3 1.1 0.4 1.8 0.6 1.8 0.8 3.3 1.6 3.3 1.6 0.5 0.2 1.1 0.3 1.7 0.2 0.6-0.2 1.1-0.5 1.5-1 0.3-0.5 0.5-1.1 0.5-1.7-0.1-0.6-0.3-1.2-0.8-1.6 0 0-0.9-0.9-1.9-2.2-1.1-1.2-2.2-2.8-2.5-3.5-0.5-1.3-0.7-3-0.8-4.9 2.9 3.3 7.5 7.1 7.5 7.1 0.5 0.4 1 0.6 1.6 0.6 0.5 0 1.1-0.2 1.6-0.5 0.4-0.3 0.8-0.8 0.9-1.4 0.2-0.5 0.1-1.1-0.1-1.6 0 0-0.6-1.6-1.3-3.7-0.4-1-0.7-2.2-1-3.2 0.2 0.3 0.3 0.6 0.5 0.8 2 3 6.1 6.9 6.1 6.9 0.4 0.5 1 0.7 1.6 0.7 0.6 0.1 1.3-0.1 1.7-0.5 0.5-0.4 0.8-1 0.9-1.6 0.1-0.6 0-1.2-0.3-1.8 0 0-0.7-1-1.4-2.3-0.7-1.3-1.5-3-1.7-3.7-0.2-0.8 0-2.1 0.3-3.7 0.1-0.8 0.2-1.7 0.2-2.6 0.1 0.3 0.5 0.8 0.5 0.8 0.3 0.5 0.8 0.9 1.3 1.2 0.6 0.2 1.2 0.2 1.7 0 0.6-0.2 1.1-0.5 1.4-1 0.3-0.5 0.5-1.1 0.4-1.7 0 0-0.1-1.1-0.2-2.4 0-1.4 0-3 0.2-3.7 0.2-1.3 1.3-2.9 2.4-4.8 1.2-1.9 2.5-4.2 2.6-7.1 0.8 0.7 1.4 1.4 1.6 1.8z"/>
			<path id="path5459" class="s12" d="m721.8 239.5c0.4 1 0.6 3.9 0.4 6.3-0.2 2.5-0.6 4.5-0.6 4.5 0 0.5 0 1 0.3 1.5 0.2 0.4 0.6 0.8 1 0.9 0.5 0.2 1 0.2 1.4 0 0.5-0.2 0.9-0.5 1.1-1 0.2-0.5 0.4-0.8 0.7-1.2 0 0.5 0.1 1 0.2 1.5 0.3 1.5 0.5 2.8 0.4 4-0.1 0.6 0 1.1 0.3 1.6 0.3 0.4 0.7 0.8 1.2 0.9 0.5 0.1 1 0 1.5-0.3 0.4-0.2 0.7-0.7 0.9-1.2 0 0 0.3-1.1 0.8-2.3 0.3-0.6 0.5-0.9 0.8-1.5q0 0.2-0.1 0.3c-0.4 2-0.3 4.3-0.2 6.3 0 2 0.2 3.6 0.2 3.6q0 0.5 0.3 1 0.3 0.4 0.7 0.7 0.4 0.3 0.9 0.3 0.5 0 0.9-0.2c0 0 1.1-0.6 2.3-1.4 1.1-0.8 2.5-1.8 3.2-3.8 0.1-0.1 0.1-0.2 0.1-0.3 0.3 1.3 0.3 3 0 4.7-0.2 0.9-1 3-1.8 4.6-0.8 1.6-1.5 2.8-1.5 2.8-0.3 0.5-0.4 1.1-0.3 1.7 0.1 0.5 0.3 1 0.8 1.3 0.4 0.4 0.9 0.5 1.4 0.4 0.5 0 1-0.3 1.3-0.8 0 0 0.7-0.9 1.6-1.9 0.8-0.9 1.9-1.8 2.5-2.2-0.4 0.4-0.8 0.9-1.1 1.2-1.2 1.4-2.3 3-3.1 4.9-0.7 1.8-1.2 4.1-1.6 6.1-0.4 2-0.6 3.6-0.6 3.6-0.1 0.5 0 1 0.2 1.5 0.2 0.4 0.6 0.8 1 0.9 0.4 0.2 0.9 0.2 1.3 0.1 0.5-0.1 0.9-0.5 1.1-0.9 0 0 0.4-0.6 0.9-1.2 0.5-0.7 1.3-1.3 1.2-1.3 0 0 0.1 0 0.1 0-0.5 0.8-0.9 1.6-1.2 2.5-0.5 1.6-0.4 3.2-0.4 4.5 0.1 1.4 0.3 2.5 0.3 2.5q0.1 0.7 0.5 1.2 0.4 0.4 1 0.6 0.6 0.1 1.2-0.1 0.6-0.3 0.9-0.9c0 0 0.7-1.1 1.6-2.4 0.8-1.1 1.7-2.2 2.3-2.8-0.4 1.4-0.2 2.7-0.1 3.7 0.1 1 0.2 1.8 0.1 2.2-0.2 0.8-1 2.7-1.7 4.2-0.7 1.5-1.4 2.6-1.4 2.6-0.2 0.5-0.3 1.1-0.2 1.6 0.1 0.6 0.3 1.1 0.7 1.4 0.5 0.3 1 0.5 1.5 0.4 0.5-0.1 0.9-0.3 1.3-0.8 0 0 0.8-1 1.9-2.3q0.4-0.4 0.8-0.8c-0.3 1.4-0.1 2.7 0 3.7q0.3 1.7 0.1 2.3c-0.2 0.9-1.4 3-2.5 4.6-1.1 1.5-2.1 2.7-2.1 2.7q-0.4 0.5-0.5 1.1-0.1 0.7 0.1 1.3 0.2 0.5 0.7 0.9 0.5 0.4 1.1 0.4c-0.2 0.3-0.5 0.6-0.7 0.8-1.6 2.4-3.7 6.8-3.7 6.8q-0.3 0.6-0.3 1.2 0.1 0.6 0.4 1.1 0.4 0.6 0.9 0.8 0.5 0.2 1.1 0.1c0 0 0.3-0.1 0.3-0.1q0 0.1 0 0.1c-1.2 1.5-2.1 3.4-2.8 5.1-0.7 1.7-1.2 3.1-1.2 3.1-0.2 0.5-0.2 1.1 0 1.5 0.2 0.5 0.5 0.9 0.9 1.2 0.4 0.2 0.9 0.3 1.3 0.2 0.5-0.1 0.9-0.3 1.2-0.7 0 0 0.7-1 1.7-2 0.2-0.3 0.5-0.5 0.8-0.7-0.2 0.9-0.3 1.8-0.4 2.5-0.1 1.6-0.3 2.6-0.6 2.9-0.2 0.2-0.7 0.5-1.7 0.8-0.9 0.3-2.3 0.5-3.5 1.6-1.3 1.2-2.3 2.8-3.2 4.2-0.9 1.5-1.5 2.7-1.5 2.7q-0.2 0.4-0.2 0.8-0.1 0.4 0 0.9 0.2 0.4 0.4 0.7 0.3 0.4 0.6 0.6c-0.1 0-0.1 0.1-0.2 0.1-1 1.2-1.3 2.5-1.6 3.5q-0.5 1.4-0.8 1.8c-1.3 1.6-3.2 2.9-5 3.3-0.4 0.1-2 0.1-3.3-0.1-1.1-0.2-1.7-0.4-1.9-0.5l-1.3-1-1.6-9.7q-0.1-0.1-0.1-0.3-0.1-0.1-0.1-0.2-0.1-0.2-0.2-0.3 0-0.1-0.1-0.2l-5.4-6.4-0.7-7q0-0.4-0.1-0.6-0.1-0.3-0.3-0.6-0.2-0.2-0.4-0.4-0.3-0.2-0.6-0.3l-12.4-4.3-5.1-5.6c-0.2-0.5-2.1-4.3-3.6-6.6-0.2-0.2-0.4-0.5-0.6-0.8q0.6 0 1-0.4 0.5-0.4 0.7-0.9 0.2-0.6 0.1-1.3-0.1-0.6-0.4-1.1c0 0-1-1.2-2.1-2.7-1.1-1.6-2.3-3.7-2.6-4.6q-0.2-0.6 0.1-2.3c0.1-1 0.3-2.3 0-3.7q0.4 0.4 0.8 0.8c1.1 1.3 2 2.3 2 2.3 0.3 0.4 0.8 0.7 1.2 0.8 0.5 0 1-0.1 1.4-0.4 0.5-0.4 0.7-0.8 0.8-1.4 0.1-0.5 0-1.1-0.2-1.5 0 0-0.7-1.2-1.4-2.7-0.7-1.5-1.5-3.4-1.7-4.2q0-0.1 0-0.1 0 0 0 0 0 0 0-0.1 0 0 0 0l-0.3-1.1c0.5 0.3 1.1 0.6 1.6 0.7 1.9 0.6 3.6 0.2 4.9-0.4q0.4-0.2 0.7-0.5 0.3-0.4 0.4-0.8 0.2-0.4 0.1-0.9 0-0.5-0.2-0.9c0 0-0.7-1.4-1.7-3-0.5-0.8-1.1-1.6-1.7-2.4-0.5-0.7-1.1-1.4-2-1.8 0.5-0.1 0.9-0.2 1.6-0.1 1.1 0.1 1.9 0.2 1.9 0.2q0.5 0.1 1.1-0.1 0.5-0.2 0.8-0.7 0.4-0.5 0.4-1.1 0.1-0.6-0.2-1.2c0 0-0.6-1.5-1.5-3.2-0.9-1.7-1.8-3.6-3-4.9 0.5 0.2 0.8 0.3 1.4 0.5 1.4 0.7 2.5 1.3 2.5 1.3 0.5 0.3 0.9 0.3 1.4 0.2 0.5-0.1 0.9-0.4 1.2-0.8 0.2-0.5 0.4-1 0.3-1.5 0-0.5-0.2-1-0.5-1.4 0 0-0.7-0.8-1.6-1.8-0.8-1.1-1.7-2.5-1.9-3.1-0.4-1-0.5-2.5-0.6-4.1 2.2 2.8 5.9 6 5.9 6 0.3 0.3 0.7 0.5 1.2 0.5 0.4 0.1 0.9-0.1 1.2-0.4 0.4-0.3 0.6-0.7 0.8-1.1 0.1-0.5 0.1-1-0.1-1.5 0 0-0.5-1.4-1.1-3.1-0.2-0.9-0.5-1.9-0.7-2.8 0.1 0.2 0.2 0.5 0.4 0.7 1.5 2.6 4.7 6 4.7 6 0.4 0.3 0.8 0.5 1.3 0.6 0.5 0 1-0.2 1.4-0.5 0.3-0.4 0.6-0.8 0.7-1.4 0-0.5-0.1-1-0.3-1.5 0 0-0.5-0.9-1.1-2-0.6-1.1-1.2-2.6-1.3-3.2-0.2-0.6 0-1.8 0.2-3.2 0.1-0.6 0.1-1.4 0.2-2.2 0.1 0.3 0.4 0.7 0.4 0.7 0.2 0.5 0.5 0.8 1 1 0.4 0.2 0.9 0.2 1.3 0.1 0.5-0.2 0.8-0.5 1.1-0.9 0.2-0.5 0.4-1 0.3-1.5 0 0-0.1-0.9-0.1-2-0.1-1.2 0-2.7 0.1-3.2 0.2-1.2 1-2.5 1.9-4.2 0.9-1.6 2-3.6 2-6 0.7 0.6 1.2 1.2 1.3 1.5z"/>
		</g>
		<g id="g5611">
			<g id="g5473">
				<path id="path5463" class="s13" d="m629.2 220c-9.4-0.3-9.9-4.7-31.7-8.6q0.2-0.6 0.5-1.2c0.2-0.4 1.1-0.6 1.3-1 0.2-0.4-0.4-1-0.2-1.4 0.2-0.4 0.9-0.6 1.2-1 0.2-0.4-0.1-1.1 0.2-1.5 0.2-0.5 1-0.6 1.2-1 0.3-0.5 0.1-1.2 0.4-1.6 0.2-0.4 0.9-0.6 1.2-1 0.3-0.4 0.2-1.1 0.6-1.5 0.3-0.4 1.5-0.3 1.9-0.7 0.3-0.4-0.3-1.3 0.1-1.7 0.4-0.4 1.1-0.7 1.6-0.8 0.5-0.2 0.9-0.4 1.1-1.2q0.2-0.8 0.8-1.3c0.4-0.4 1.2-0.3 1.6-0.6 0.4-0.4 0.6-1.1 1-1.4 0.5-0.3 1.4-0.4 1.9-1.1 0.4-0.5 0.6-0.6 1-0.7 0.4-0.1 1.4 0.4 1.9 0.2 0.4-0.1 0.5-0.9 1-1 0.4-0.1 1 0.3 1.5 0.2 0.4-0.1 0.8-0.7 1.3-0.8 0.5-0.1 1.1 0.4 1.6 0.3 0.4 0 0.8-0.6 1.3-0.7 0.5 0 1.1 0.4 1.6 0.3 0.6 0 1-0.5 1.5-0.5 0.5 0 1.2 1 1.8 1 0.5 0 0.8-1 1.4-1 0.5 0 1.2 0.4 1.7 0.7 0.4 0.2 0.8 0.4 1.5 0.1q0.8-0.4 1.6-0.2c0.5 0 0.9 0.7 1.5 0.8 0.5 0.1 1.1-0.3 1.7-0.1 0.5 0.1 1.1 0.8 1.7 1 0.5 0.1 0.9-0.1 1.5 0.1 0.5 0.2 0.7 1.1 1.3 1.3 0.5 0.2 1.2-0.1 1.8 0.2 0.5 0.2 0.6 1.2 1.1 1.5 0.5 0.3 1.4 0 1.8 0.4 0.5 0.3 0.6 1.1 1.1 1.5 0.5 0.4 1.3 0.4 1.8 0.8 0.5 0.4 0 1.9 0.4 2.4 0.5 0.5 1.9-0.1 2.3 0.4 0.4 0.5 0.4 1.7 0.8 2.3 0.4 0.5 1.3 0.4 1.7 1.1 0.4 0.6 0 1.5 0.4 2.1 0.4 0.7 1.4 1 1.8 1.7 0.3 0.7 0 1.9 0.3 2.6 0.4 0.8 1.4 1.1 1.7 1.9-8.6 4.1-18.9 3.2-31.6 9.5"/>
				<path id="path5465" class="s4" d="m613.4 193c-0.6-0.1-0.4 1.1-0.9 1.5-0.5 0.4-1.4-0.1-2 0.3-0.4 0.3-0.4 1-0.8 1.5-0.5 0.5-1.6 0.5-1.8 1.2-0.2 0.4 0.4 0.9 0.2 1.3-0.3 0.7-1.6 0.6-2 1.3-0.2 0.4 0.3 0.9 0.1 1.3-0.2 0.7-1.2 0.9-1.6 1.5-0.3 0.4-0.2 0.9-0.4 1.2-0.4 0.5-1.4 0.5-1.7 1-0.3 0.5 0.1 1.3-0.2 1.8-0.3 0.7-1.4 0.8-1.8 1.5-0.3 0.6 0 1.5-0.4 2-0.6 0.7-2.6 1-2.6 1q0.2-0.6 0.5-1.2c0.2-0.4 1.1-0.6 1.3-1 0.2-0.4-0.4-1-0.2-1.4 0.2-0.4 0.9-0.6 1.2-1 0.2-0.4-0.1-1.1 0.2-1.5 0.2-0.5 1-0.6 1.2-1 0.3-0.5 0.1-1.2 0.4-1.6 0.2-0.4 0.9-0.6 1.2-1 0.3-0.4 0.2-1.1 0.6-1.5 0.3-0.4 1.5-0.3 1.9-0.7 0.3-0.4-0.3-1.3 0.1-1.7 0.4-0.4 1.1-0.7 1.6-0.8 0.5-0.2 0.9-0.4 1.1-1.2q0.2-0.8 0.8-1.3c0.4-0.4 1.2-0.3 1.6-0.6 0.4-0.4 0.6-1.1 1-1.4 0.5-0.3 1.4-0.4 1.9-1.1 0.4-0.5 0.9-0.7 1.3-0.8 0.4-0.1 1.1-0.2 1.6-0.3 0.4-0.1 0.5-0.9 1-1 0.4-0.1 1 0.3 1.5 0.2 0.4-0.1 0.8-0.7 1.3-0.8 0.5-0.1 1.1 0.4 1.6 0.3 0.4 0 0.8-0.7 1.3-0.7 0.5-0.1 1.1 0.4 1.6 0.3 0.6 0 1-0.5 1.5-0.5 0.5 0 1.2 1 1.8 1 0.5 0 0.8-1 1.4-1 0.5 0 1.2 0.4 1.7 0.7 0.4 0.2 0.8 0.4 1.5 0q0.8-0.3 1.6-0.2c0.5 0.1 0.9 0.7 1.5 0.9 0.5 0.1 1.1 0.3 1.7 0.5 0.5 0.1 1.1 0.8 1.7 1 0.5 0.1 0.9-0.1 1.5 0.1 0.5 0.2 0.7 1.1 1.3 1.3 0.5 0.2 1.2-0.1 1.8 0.2 0.5 0.2 0.6 1.2 1.1 1.5 0.5 0.3 1.4 0 1.8 0.4 0.5 0.3 0.6 1.1 1.1 1.5 0.5 0.4 1.3 0.4 1.8 0.8 0.5 0.4 0 1.9 0.4 2.4 0.5 0.5 1.9-0.1 2.3 0.4 0.4 0.5 0.4 1.7 0.8 2.3 0.4 0.5 1.3 0.4 1.7 1.1 0.4 0.6 0 1.5 0.4 2.1 0.4 0.7 1.4 1 1.8 1.7 0.3 0.7 0 1.9 0.3 2.6 0.4 0.8 1.4 1.1 1.7 1.9q-1 0.5-2 0.8c0 0-1.2-0.9-1.6-1.6-0.4-0.6-0.4-1.3-0.5-2-0.1-0.3-0.1-0.5-0.2-0.8-0.2-0.4-0.8-0.5-1-0.9-0.3-0.4 0-1-0.2-1.5-0.3-0.8-0.6-1.8-1.4-2.1-0.3-0.1-0.7 0.4-1 0.2-0.7-0.4-0.1-1.7-0.7-2.3-0.2-0.1-0.5 0.1-0.7-0.1-0.5-0.4-0.1-1.3-0.5-1.8-0.3-0.3-0.9 0-1.2-0.4-0.4-0.4 0-1.2-0.3-1.7-0.3-0.3-1 0-1.2-0.4-0.4-0.3 0.1-1.1-0.3-1.4-0.4-0.2-0.8 0.3-1.2 0.2-0.7-0.1-1-0.9-1.6-1.1-0.4 0-0.8 0.4-1.1 0.2-0.8-0.3-0.7-1.7-1.5-2.1-0.4-0.1-0.7 0.3-1 0.2-0.8-0.1-1.1-1.2-1.8-1.4-0.6-0.1-1.1 0.5-1.7 0.3-0.7-0.1-0.9-1.7-1.5-1.9-0.6-0.2-1.2 0.7-1.8 0.7-0.7 0-1.4-1-2.1-0.8-0.4 0.2-0.3 0.7-0.7 0.8-0.8 0.3-1.6-0.9-2.3-0.7-0.5 0.1-0.5 0.8-1 1-0.7 0.2-1.4-0.5-2.2-0.4-0.4 0.1-0.7 0.5-1.1 0.5-0.7 0-1.3-0.7-1.9-0.6-0.6 0-0.9 0.9-1.5 1-0.7 0.2-1.5-0.6-2.3-0.4-0.7 0.1-1.1 0.9-1.8 0.9 0 0-0.9 0.1-1.3 0.3-0.4 0.1-0.6 1-0.6 1z"/>
				<path id="path5467" fill-rule="evenodd" class="s14" d="m627.9 189.4l0.2 10.5q0.3 0.3 0.6 0.7c0.1-0.7 0.2-1.3 0.3-1.7l0.8-9.2c0.2-1.1 0.3-0.4 0.4-0.2l-0.5 8.5c0.2 0 0.5 0.8 0.8 1.8l1.6-9.9c0.3-1 0.3-0.3 0.4-0.1l-1.6 11.6q0.3 0.8 0.5 1.5l3-12.6c0.4-1 0.4-0.3 0.5 0l-2.3 10 2.7-9.5c0.4-1 0.4-0.3 0.5 0l-1.9 7.3 2.2-7.3c0.5-1 0.4-0.3 0.5 0l-3.5 12.2c0.3-0.6 0.7-1.3 1-1.4 0.2 0 0.5-0.3 0.9-0.7l3.8-9.2c0.6-0.9 0.5-0.2 0.5 0.1v0.1q0 0.1 0 0.1l-2.9 7.4q0.1-0.2 0.3-0.4c1.4-1 2.1-0.9 2.1-0.9-1.7 3.2-3.7 6.6-5.6 10.5l8.6-15.2c0.7-0.8 0.5-0.2 0.5 0.1l-9 16.7q0.2 0.1 0.3 0.2l11.1-15.2c0.8-0.7 0.5-0.1 0.5 0.2l-10.9 15.5q0.1 0 0.2 0.1l12.5-14c0.9-0.7 0.5 0 0.4 0.2l-12.1 14.1q0.1 0 0.2 0.1l13.4-12.6c0.9-0.6 0.5 0 0.4 0.3l-10.3 9.9 10.9-9.1c0.9-0.5 0.5 0 0.4 0.2l-12.8 11.3c1.8-0.7 4.4-3.5 6.3-4.2l7.5-5.5c1-0.4 0.5 0.1 0.4 0.3l-6.8 5.1c0.2 0.1-0.3 0.8-0.9 1.7l8.6-5.1c1.1-0.4 0.5 0 0.4 0.3l-9.9 6.2q-0.5 0.7-0.8 1.2l11.5-5.7c1.1-0.3 0.5 0.1 0.4 0.4l-12.5 6.4q0 0.2 0 0.2 0 0.1 0 0.1l12.9-5.4c1.1-0.3 0.4 0.1 0.3 0.3l-11.7 5.2c0.7-0.1 1.5-0.3 1.8-0.1 0.1 0.1 0.6 0.1 1.1 0.2l9.5-3c1.1-0.1 0.5 0.2 0.3 0.4l-7.9 2.6q0.4 0 0.6 0.1c1.8 0.4 2.1 0.9 2.1 0.9-6.7 1.5-14.3 2.5-23 6.8q-0.3-0.5-0.7-1c-4.6-0.5-7.2-2.3-13.4-4.4 0 0-0.2-0.8-0.6-1.5l-12.7-4.5c-1-0.5-0.3-0.4 0-0.4l9.9 3.2q-0.4-0.2-0.6-0.6c-0.1-0.2 0.1-0.3 0.5-0.5l-8.9-4c-0.9-0.6-0.3-0.4 0-0.5l9.9 4.3c0.4-0.1 0.8-0.3 1.2-0.4l-9.9-5.4c-0.3-0.3-0.4-0.4-0.4-0.5 0-0.1 0.3 0 0.5 0l10.4 5.5q0.2-0.4 0.1-0.9l-9.4-6.3c-0.8-0.7-0.2-0.4 0.1-0.4l7.9 5-7.4-5.3c-0.7-0.8-0.1-0.5 0.2-0.5l7.9 5.5c0-0.3 0.1-0.5 0.4-0.7l-6.8-5.8c-0.7-0.8-0.1-0.4 0.2-0.4l7.1 5.8-6.7-6.1c-0.6-0.8 0-0.5 0.2-0.4l7.7 6.7c0.3 0 0.5 0.2 0.7 0.5l2.7 2.4q0.2-0.1 0.3-0.3l-10.3-11c-0.6-0.9 0-0.4 0.3-0.4l10.2 10.6-9.3-11.2c-0.6-0.9 0-0.5 0.2-0.4l10 11.5q0.3-0.2 0.6-0.4l-8.7-12.7c-0.5-0.9 0-0.4 0.2-0.3l9.2 12.8q0.1 0 0.2 0c0.6 0 1 0.5 1.4 0.9l-7.9-15.3c-0.3-1 0.1-0.5 0.3-0.3l7 12.8c0.1-0.3 0.4-0.7 0.5-1.2l-4.8-12.7c-0.2-1.1 0.2-0.5 0.4-0.3l3.9 9.6q0-0.2 0.1-0.5c0.1-0.3 0.8 0.1 1.5 0.6l-2.6-10.5c-0.1-1.1 0.2-0.4 0.4-0.2l3.1 11.4c0.3 0.2 0.6 0.3 0.8 0.3q0.1 0 0.3-0.1l-1.7-12c0-1.1 0.2-0.4 0.4-0.2l1.9 11.6c0.3-0.4 0.5-1.1 0.8-1.5l-0.5-10.1c0.1-1.1 0.3-0.4 0.4-0.2l0.7 9.9q0.2 0 0.3 0.1v-9.9c0.1-0.4 0.1-0.5 0.2-0.6 0.1 0 0.2 0.3 0.3 0.4zm0.3 13.1v2.4q0.2 0.1 0.3 0.2c0.1-1.1 0.1-2.2 0.2-3.4q-0.3 0.4-0.5 0.8zm-11.9 7l-0.4-0.3q0.2 0.2 0.4 0.3z"/>
				<path id="path5469" class="s15" d="m629.2 189.1l-0.4 20.6 2.3-20.3c0.3-1 0.4-0.3 0.5-0.1l-1.8 18.4 3.5-18c0.4-1 0.4-0.3 0.5-0.1l-3.1 18 4.7-17.4c0.4-1 0.4-0.3 0.4 0l-4 16.3 5.3-15.8c0.5-1 0.5-0.3 0.5 0l-4.1 12.8 4.9-12.4c0.5-0.9 0.4-0.2 0.5 0l-3.9 10.5 4.6-10c0.6-0.9 0.4-0.2 0.5 0l-8 18.4 8.2-17.6c0.6-0.9 0.5-0.2 0.5 0.1l-8.7 19.6 11.2-18.2c0.7-0.8 0.4-0.1 0.4 0.1l-10.9 18.6 13.2-16.8c0.8-0.7 0.5-0.1 0.4 0.1l-12.6 16.8 14.5-14.9c0.9-0.7 0.5-0.1 0.4 0.2l-14.8 15.9 17.1-13.2c1-0.5 0.5 0 0.4 0.3l-16.1 12.9 17.1-11.3c1-0.4 0.5 0.1 0.4 0.3l-15.2 10.5 16-8.9c1-0.4 0.5 0.1 0.3 0.3l-15.7 9.2 16.3-7.6c1.1-0.3 0.5 0.1 0.4 0.3l-15.2 7.4 15.6-6c1.1-0.2 0.5 0.1 0.3 0.3l-12.4 5.2 12.6-4.3c1-0.2 0.4 0.2 0.3 0.4l-10.5 3.7 10.6-2.9c1.1-0.1 0.4 0.2 0.3 0.4l-21.7 6.4-6.2 2.3 2-6.1-1.8 5-0.7-0.2h-0.1v0.1l-0.1 0.2h-0.1l-0.1 0.5-27.8-8.6c-0.9-0.5-0.2-0.4 0-0.5l21.8 6.3-21-7.9c-0.9-0.6-0.2-0.5 0.1-0.5l18.2 6.5-17.3-8.3c-0.9-0.6-0.2-0.4 0-0.5l18.1 8.3-16.9-10.1c-0.3-0.3-0.4-0.4-0.4-0.5 0-0.1 0.3 0 0.5 0l18.3 10.4-16.7-12.5c-0.8-0.8-0.2-0.5 0.1-0.4l17.7 12.6-15.7-14.8c-0.6-0.9 0-0.5 0.2-0.5l17 15.5-14.2-17.8c-0.5-0.9 0-0.5 0.2-0.4l14.1 17-11.5-18.7c-0.4-1 0.1-0.4 0.3-0.3l11.8 18.3-9.1-19.6c-0.3-1 0.1-0.5 0.4-0.3l9.4 19.3-6.7-20.2c-0.2-1.1 0.1-0.5 0.3-0.3l7.3 20.2-4.4-20.9c-0.1-1.1 0.2-0.4 0.4-0.2l4.7 20.5-2.1-20.8c0-1 0.2-0.4 0.4-0.2l2.7 21.6 0.8-21.5c0.1-0.4 0.2-0.6 0.2-0.6 0.1-0.1 0.2 0.3 0.3 0.4z"/>
				<path id="path5471" class="s16" d="m629.2 220c-9.4-0.3-9.9-4.7-31.7-8.6q0.2-0.6 0.5-1.2c0.2-0.4 1.1-0.6 1.3-1 0.2-0.4-0.4-1-0.2-1.4 0.2-0.4 0.9-0.6 1.2-1 0.2-0.4-0.1-1.1 0.2-1.5 0.2-0.5 1-0.6 1.2-1 0.3-0.5 0.1-1.2 0.4-1.6 0.2-0.4 0.9-0.6 1.2-1 0.3-0.4 0.2-1.1 0.6-1.5 0.3-0.4 1.5-0.3 1.9-0.7 0.3-0.4-0.3-1.3 0.1-1.7 0.4-0.4 1.1-0.7 1.6-0.8 0.5-0.2 0.9-0.4 1.1-1.2q0.2-0.8 0.8-1.3c0.4-0.4 1.2-0.3 1.6-0.6 0.4-0.4 0.6-1.1 1-1.4 0.5-0.3 1.4-0.4 1.9-1.1 0.4-0.5 0.6-0.6 1-0.7 0.4-0.1 1.4-0.4 1.9-0.5 0.4-0.1 0.5-1 1-1.1 0.4-0.1 1 0.4 1.5 0.3 0.4-0.1 0.8-0.8 1.3-0.8 0.5-0.1 1.1 0.3 1.6 0.3 0.4-0.1 0.8-0.7 1.3-0.8 0.5 0 1.1 0.4 1.6 0.4 0.6-0.1 1-0.6 1.5-0.6 0.5 0 1.2 1 1.8 1 0.5 0 0.8-1 1.4-0.9 0.5 0 1.2 0.3 1.7 0.6 0.4 0.3 0.8 0.5 1.5 0.1q0.8-0.4 1.6-0.2c0.5 0.1 0.9 0.7 1.5 0.8 0.5 0.1 1.1 0.5 1.7 0.7 0.5 0.1 1.1 0.8 1.7 1 0.5 0.1 0.9-0.1 1.5 0.1 0.5 0.2 0.7 1.1 1.3 1.3 0.5 0.2 1.2-0.1 1.8 0.2 0.5 0.2 0.6 1.2 1.1 1.5 0.5 0.3 1.4 0 1.8 0.4 0.5 0.3 0.6 1.1 1.1 1.5 0.5 0.4 1.3 0.4 1.8 0.8 0.5 0.4 0 1.9 0.4 2.4 0.5 0.5 1.9-0.1 2.3 0.4 0.4 0.5 0.4 1.7 0.8 2.3 0.4 0.5 1.3 0.4 1.7 1.1 0.4 0.6 0 1.5 0.4 2.1 0.4 0.7 1.4 1 1.8 1.7 0.3 0.7 0 1.9 0.3 2.6 0.4 0.8 1.4 1.1 1.7 1.9-8.6 4.1-18.9 3.2-31.6 9.5"/>
			</g>
			<g id="g5479">
				<path id="path5475" class="s17" d="m669.5 346.1l-3.7 48.8c0 0 0.7 0.4 1.3 0.8 0.9 0.7 1.1 1.4 1.7 2.4 0.5 0.7 1.9 1.8 2.2 2.6 0.4 0.9 1.1 1.7 0.5 2.4-0.6 0.6-2.2-0.4-2.2-0.4l-2.9-3.1-2.1 4.1-2.6 15.3c0 0-1.4 1.8-2.3 1.6-1-0.2-1.4-2.7-1.4-2.7l2.8-13.8-9.9 11.5c0 0-2.7 1.3-3.6 0.6-0.6-0.5-0.3-2.4-0.3-2.4l12.3-11.1-13.1 7.2c0 0-2.7 0.2-3.1-0.7-0.5-0.9 0.3-2.4 1.1-2.6 3.8-1.2 14.1-5.9 14.1-5.9 0.6-0.2 1.2-1.7 2.4-3 0.9-1.1 2.5-2 2.5-2.5l0.6-51.7h5.7z"/>
				<path id="path5477" class="s18" d="m671.9 401.2c2.4 1.5 2 3.2 1.5 3.9-0.6-1.3-0.9-1.3-2.8-2.1-0.5-0.8-0.4-1.8 0.5-1.9q0.3 0 0.8 0.1zm-27.2 8.5c-1.7 1.3-2 1.4-2.2 2.8-0.7-0.6-1.5-2.1 0.5-4.1q0.4-0.3 0.7-0.4c0.9-0.1 1.3 0.8 1 1.7zm4.5 6.2c-1.2 1.7-1.4 1.9-1.3 3.3-0.8-0.3-2-1.5-0.7-4.1 0.3-0.4 0.6-0.6 0.9-0.6 0.6-0.1 1.1 0.6 1.1 1.4zm11.4 3.5c-1 1.9-1.2 2.1-0.9 3.5-0.8-0.3-2.1-1.3-1.2-4 0.3-0.5 0.7-0.8 1-0.8 0.6 0 1 0.6 1.1 1.3z"/>
			</g>
			<g id="g5485">
				<path id="path5481" class="s17" d="m669.4 374.2c-1.7-9.3 14.9-17.7 14.9-25.4l4.8-1.1c2 4.6-8 13.6-13.3 19.3-1.4 1.6-2.8 3.2-2.9 6l3.8-2.9c0 0 2.6-0.7 3.2 0.2 0.5 0.7-0.8 2.4-0.8 2.4l-4.3 2.5c0 0 2.1 2.5 2.9 3.8 2.6 4.4 5.7 14.9 5.7 14.9 0 0 0.9 3-0.1 3.5-1 0.5-2.5-1.9-2.5-1.9-1.4-4.1-1.9-8.4-4.4-12.3 2.2 6.1 1.7 10.8 2.5 16.2 0 0-0.4 2.3-1.2 2.6-0.9 0.3-1.8-1.9-1.8-1.9-0.6-4.6-0.4-8.9-1.6-13.9 0.2 1.4-0.3 8.4-0.6 13.6 0 0-0.9 2.7-1.8 2.7-0.9 0.1-1.4-1.8-1.4-1.8 0.8-4.1 1.6-8.9 1.8-13.2 0.1-1.7-0.9-3.9-1-5.4-0.3-2.5-0.9-3.5-1.9-7.9z"/>
				<path id="path5483" class="s18" d="m671 402.2c-0.2-1.7 1.2-1.7 1.9-0.8 0.4 2.1 0.3 2.4 1.4 3.3q-0.3 0.1-0.8 0.1c-0.8 0-1.9-0.6-2.5-2.6zm5.6-0.7c-0.1-1.7 1.2-1.7 2-0.8 0.3 2.1 0.3 2.4 1.4 3.3q-0.4 0.1-0.8 0.1c-0.9 0-2-0.6-2.6-2.6zm5.1-4.9c-0.2-1.6 1.2-1.7 2-0.8 0.3 2.1 0.2 2.4 1.3 3.3q-0.3 0.1-0.8 0.1c-0.8 0-1.9-0.6-2.5-2.6zm-3.8-26.4c2-2.1 3.5-1.4 4.1-0.7-1.3 0.3-1.4 0.6-2.7 2.3q-0.4 0.1-0.8 0.1c-0.7-0.1-1.2-0.7-0.6-1.7z"/>
			</g>
			<g id="g5573">
				<path id="path5487" class="s19" d="m678.9 318.3l3.6-2 8.4 5.7 4.2 9c-6.5 0.4-14.5 1.8-15.8-2.7z"/>
				<g id="g5543">
					<g id="g5493">
						<path id="path5489" class="s20" d="m718.1 315.9c0 0 5.5 10.3 7.3 16.6 1.6 5.3 3.3 13.7 3.9 19.2 0.6 5.2 0.8 9 0.5 14.2-0.2 2-1.4 5.8-1.4 5.8 0 0-1 2.1-1.9 1.9-1.1-0.3-1-3.2-1-3.2 0 0 0.4-7 0.1-10.4-0.8-11.4-2.4-22.4-6.6-32.4-1.5-3.8-5.3-11-5.3-11z"/>
						<path id="path5491" class="s21" d="m717.3 317.3c0.7 1.3 5.2 10 6.8 15.6 1.6 5.2 3.3 13.5 3.9 18.9 0.6 5.2 0.8 8.8 0.4 14-0.1 1.5-1.1 5.2-1.2 5.4 0 0.1-0.2 0.3-0.3 0.5q0 0 0 0c-0.1-0.6-0.1-1.2-0.1-1.3 0 0 0 0 0 0 0-0.1 0.4-6.9 0.1-10.5-0.8-11.4-2.4-22.6-6.6-32.8-1.4-3.2-3.6-7.6-4.6-9.5z"/>
					</g>
					<g id="g5499">
						<path id="path5495" class="s20" d="m718.6 315.8c0 0 4.2 10.9 5.3 17.4 1 5.5 1.7 13.9 1.7 19.5 0 5.2-0.2 9-1.2 14.1-0.4 2-2 5.7-2 5.7 0 0-1.3 2-2.1 1.6-1.1-0.4-0.7-3.3-0.7-3.3 0 0 1.2-6.8 1.4-10.3 0.4-11.4 0.2-22.6-2.9-33-1.1-3.9-4-11.4-4-11.4z"/>
						<path id="path5497" class="s21" d="m717.6 317.2c0.5 1.3 4 10.5 5 16.2 0.9 5.4 1.7 13.9 1.7 19.3-0.1 5.2-0.2 8.8-1.2 13.9-0.3 1.5-1.7 5-1.8 5.3 0 0-0.2 0.2-0.4 0.4q0 0 0 0c0-0.7 0-1.3 0-1.3 0 0 0.1 0 0.1 0 0-0.1 1.1-6.8 1.3-10.4 0.5-11.5 0.2-22.8-2.9-33.4-0.9-3.3-2.7-7.9-3.4-9.9z"/>
					</g>
					<g id="g5505">
						<path id="path5501" class="s20" d="m706.5 307.5c0 0 5.5 10.3 7.4 16.6 1.5 5.3 3.3 13.7 3.9 19.2 0.5 5.2 0.8 8.9 0.4 14.2-0.1 2-1.3 5.8-1.3 5.8 0 0-1.1 2.1-1.9 1.9-1.1-0.3-1.1-3.2-1.1-3.2 0 0 0.4-7 0.2-10.4-0.9-11.4-2.4-22.4-6.6-32.4-1.6-3.8-5.3-11-5.3-11z"/>
						<path id="path5503" class="s21" d="m705.8 308.9c0.7 1.3 5.2 10 6.8 15.6 1.5 5.2 3.3 13.5 3.8 18.9 0.6 5.2 0.9 8.8 0.5 14-0.1 1.5-1.1 5.2-1.2 5.4 0 0.1-0.2 0.3-0.3 0.5q0 0-0.1 0c0-0.6-0.1-1.2 0-1.3 0 0 0 0 0 0 0-0.1 0.3-6.9 0.1-10.5-0.9-11.4-2.4-22.6-6.7-32.8-1.3-3.2-3.6-7.6-4.6-9.5z"/>
					</g>
					<g id="g5511">
						<path id="path5507" class="s20" d="m705.7 299.2c0 0 6.3 9.8 8.7 15.9 2.1 5.2 4.5 13.3 5.6 18.8 1 5.1 1.6 8.8 1.7 14.1 0 2-0.8 5.9-0.8 5.9 0 0-0.9 2.2-1.8 2.1-1.1-0.2-1.3-3.2-1.3-3.2 0 0-0.2-6.9-0.8-10.3-1.8-11.3-4.3-22.2-9.4-31.7-1.9-3.6-6.2-10.5-6.2-10.5z"/>
						<path id="path5509" class="s21" d="m705.1 300.7c0.7 1.2 6 9.5 8.1 14.9 2 5.1 4.4 13.2 5.5 18.5 1 5.1 1.6 8.7 1.7 13.9 0 1.6-0.7 5.3-0.8 5.5 0 0.1-0.1 0.3-0.2 0.5q0 0-0.1 0c-0.1-0.6-0.2-1.2-0.2-1.2 0 0 0-0.1 0-0.1 0 0-0.2-6.8-0.8-10.4-1.8-11.3-4.3-22.4-9.5-32.2-1.6-2.9-4.2-7.1-5.4-9z"/>
					</g>
					<g id="g5517">
						<path id="path5513" class="s20" d="m701.3 303.4c0 0 5.5 10.3 7.4 16.6 1.5 5.3 3.3 13.7 3.9 19.2 0.5 5.2 0.8 9 0.4 14.2-0.1 2-1.3 5.9-1.3 5.9 0 0-1.1 2-1.9 1.8-1.1-0.3-1.1-3.2-1.1-3.2 0 0 0.4-6.9 0.2-10.4-0.9-11.3-2.4-22.4-6.6-32.4-1.6-3.8-5.3-11-5.3-11z"/>
						<path id="path5515" class="s21" d="m700.6 304.8c0.7 1.3 5.2 10 6.8 15.6 1.5 5.2 3.3 13.5 3.8 18.9 0.6 5.2 0.9 8.9 0.5 14-0.1 1.5-1.1 5.2-1.2 5.4 0 0.1-0.2 0.3-0.3 0.5q0 0 0 0c-0.1-0.6-0.1-1.2-0.1-1.3 0 0 0 0 0 0 0-0.1 0.3-6.8 0.1-10.5-0.9-11.4-2.4-22.6-6.7-32.8-1.3-3.1-3.6-7.5-4.6-9.5z"/>
					</g>
					<g id="g5523">
						<path id="path5519" class="s20" d="m695.2 297.7c0 0 5.8 10.2 7.8 16.4 1.7 5.3 3.7 13.6 4.5 19.1 0.7 5.2 1 8.9 0.8 14.1-0.1 2.1-1.1 6-1.1 6 0 0-1 2.1-1.9 1.9-1.1-0.3-1.1-3.2-1.1-3.2 0 0 0.1-7-0.2-10.4-1.1-11.3-3-22.4-7.5-32.2-1.7-3.7-5.7-10.8-5.7-10.8z"/>
						<path id="path5521" class="s21" d="m694.5 299.2c0.7 1.3 5.5 9.8 7.3 15.4 1.6 5.1 3.6 13.4 4.3 18.8 0.8 5.1 1.1 8.8 0.9 13.9-0.1 1.6-1 5.2-1.1 5.5 0 0-0.1 0.3-0.3 0.5q0 0 0-0.1c-0.1-0.6-0.1-1.2-0.1-1.2 0 0 0 0 0 0 0-0.1 0.2-6.9-0.2-10.5-1.2-11.4-3-22.6-7.6-32.7-1.4-3-3.8-7.4-4.8-9.3z"/>
					</g>
					<g id="g5529">
						<path id="path5525" class="s20" d="m689.9 288.3c0 0 5.8 10.2 7.8 16.5 1.7 5.2 3.7 13.5 4.4 19 0.8 5.2 1.1 9 0.9 14.2-0.1 2-1.2 5.9-1.2 5.9 0 0-1 2.1-1.8 1.9-1.2-0.2-1.2-3.2-1.2-3.2 0 0 0.2-6.9-0.1-10.4-1.2-11.3-3.1-22.3-7.5-32.2-1.7-3.7-5.7-10.8-5.7-10.8z"/>
						<path id="path5527" class="s21" d="m689.2 289.8c0.7 1.3 5.4 9.9 7.2 15.4 1.7 5.2 3.7 13.4 4.4 18.8 0.7 5.2 1.1 8.8 0.9 13.9-0.1 1.6-1 5.3-1.1 5.5 0 0.1-0.2 0.3-0.3 0.5q0 0 0 0c-0.1-0.6-0.1-1.2-0.1-1.3 0 0 0 0 0 0 0-0.1 0.1-6.9-0.2-10.5-1.2-11.4-3-22.6-7.6-32.6-1.4-3.1-3.8-7.4-4.9-9.4z"/>
					</g>
					<g id="g5535">
						<path id="path5531" class="s20" d="m683.2 286.4c0 0 6.2 9.9 8.6 16 2 5.2 4.3 13.3 5.4 18.8 1 5.1 1.5 8.9 1.5 14.1 0 2-0.8 6-0.8 6 0 0-0.9 2.1-1.8 2-1.1-0.2-1.3-3.2-1.3-3.2 0 0-0.1-6.9-0.7-10.3-1.7-11.3-4.1-22.2-9.1-31.8-1.9-3.6-6.2-10.5-6.2-10.5z"/>
						<path id="path5533" class="s21" d="m682.5 287.9c0.8 1.2 6 9.6 8 15 2 5.1 4.4 13.2 5.4 18.5 0.9 5.2 1.5 8.8 1.5 13.9 0 1.6-0.7 5.3-0.8 5.5 0 0.1-0.1 0.3-0.2 0.5q0 0-0.1 0c-0.1-0.6-0.1-1.2-0.1-1.2 0 0 0-0.1 0-0.1 0 0-0.2-6.8-0.8-10.4-1.7-11.3-4.1-22.4-9.2-32.2-1.6-3-4.1-7.2-5.3-9.1z"/>
					</g>
					<g id="g5541">
						<path id="path5537" class="s20" d="m676.8 284.1c0 0 6.7 9.7 9.3 15.7 2.2 5.1 5 13.1 6.2 18.5 1.2 5.1 1.9 8.8 2.2 14 0.1 2-0.6 6-0.6 6 0 0-0.8 2.2-1.7 2.1-1.1-0.1-1.4-3.1-1.4-3.1 0 0-0.5-6.9-1.2-10.3-2.1-11.1-5-22-10.4-31.4-2-3.5-6.6-10.2-6.6-10.2z"/>
						<path id="path5539" class="s21" d="m676.3 285.7c0.8 1.2 6.3 9.3 8.6 14.6 2.2 5 4.9 13 6.1 18.3 1.2 5.1 1.9 8.7 2.2 13.8 0 1.6-0.5 5.3-0.6 5.6 0 0-0.1 0.3-0.2 0.5q0 0-0.1 0c-0.1-0.6-0.2-1.2-0.2-1.3 0 0 0 0 0 0 0-0.1-0.5-6.8-1.2-10.4-2.2-11.3-5.1-22.2-10.6-31.8-1.6-3-4.4-7-5.6-8.9z"/>
					</g>
				</g>
				<path id="path5545" class="s22" d="m661.3 341.9c-3.4-2.8-6-6-8.7-9.6-4.9-6.7-7.8-9.5-9.7-18.3-0.3-1-0.5-6.4-0.5-8.5-0.1-2.5-0.3-2.9-0.6-4.4l21.8 7.4c1.5 4.3 2.4 8.2 2.3 11.5 0 2.4-1.9 4.4-1.5 7.3 0.3 2 1.6 3.3 2.5 5.6 1.6 4 2.8 9.4 2.8 13.2-1.6 1.3-3.4 1.8-5.6 0.7-1-1.1-1.7-4.1-2.8-4.9z"/>
				<path id="path5547" class="s22" d="m617.9 283.4l13.5 0.6 10-0.2 25 11.5 13.1 15.9 1.2 11.5-2.6 6.5c0 0-8.7 0.5-12.8-0.7-2.8-0.8-4.1-3-6.9-3.5-1.6-0.2-3.7 0-5.3-0.1-2.8-0.3-5.4-1.3-7.9-2.6-1.9-1-2.4-2.1-4.4-2.8-1.8-0.6-4.8-0.8-6.7-1.3-4.9-1.3-9.1-3.6-13.4-6.3-3.4-2.2-7-4.6-9.2-8.1-1.3-2-2.2-6-2.3-8.4-0.2-3.8 2-9.7 2-9.7z"/>
				<path id="path5549" class="s22" d="m680.9 346.1c-3.6-2.6-6.4-5.7-9.3-9.1-5.4-6.3-8.4-9-10.9-17.6-0.3-1-0.9-6.3-1-8.5-0.2-2.4-0.5-2.8-0.9-4.3l22.2 6c1.8 4.2 2.9 8 3.1 11.3 0.1 2.5-1.6 4.6-1 7.5 0.3 1.9 1.8 3.1 2.8 5.4 1.8 3.9 3.4 9.2 3.6 13-1 1.2-2.4 2.1-5.5 1-1.1-1-2-3.9-3.1-4.7z"/>
				<g id="g5567">
					<path id="path5551" class="s23" d="m665.2 269.8c29.3 3.4 48.8 27.3 57.6 54.9-1.3 0.7-1.9-0.9-2.9-1.4 0 0-0.1 1.5-0.6 1.8-0.6 0.4-1.4 0.2-2-0.1-1-0.5-1.6-2.4-2.4-3.6-0.7-1.1-1.8-1.7-1.8-1.7l0.2 4.9c0 0-0.1 3.3-1.4 3.9-1.2 0.5-3.7-1.5-3.7-1.5 0 0-0.8 2.5-1.9 2.8-1 0.2-2.7-1.4-2.7-1.4 0 0-1.3 1.8-2.3 1.9-1.1 0-2.6-2-2.6-2 0 0-0.7 1.5-1.4 1.5-1.4 0-3-3.1-3-3.1 0 0-1.9 1-3.1 0.6-3-0.7-7.6-5.8-7.6-5.8 0 0-2.2 1.5-3.4 1.4-2-0.3-4.6-3.8-4.6-3.8 0 0-1.5 0.8-3.3 0.6-1.4-0.2-3.7-3.1-3.7-3.1 0 0-1.6 1.3-3 1-2.3-0.4-5.9-4-5.9-4 0 0-2.3 1-3.5 0.7-4-1.1-9.1-8.4-9.1-8.4 0 0-2.5 0.2-3.5-0.4-3.1-1.5-6.9-7.9-6.9-7.9 0 0-2.6 0.3-3.7-0.3-5.4-2.9-11.2-14.6-11.2-14.6 17.5 2.6 24.9-15 43.4-12.9z"/>
					<g id="g5561">
						<path id="path5553" class="s24" d="m693.9 323.4c0 0-1.1 0.7-1.7 0.5-1.4-0.5-2-2.5-2.3-4-0.4-2.2 1-6.5 1-6.5 0 0-1.6 1.6-2.5 1.1-0.9-0.4-0.7-1.5-0.7-3.4 0-1.9 1.2-5.1 1.5-7.7 0.3-2.6 0.3-5.3 0.1-7.9-0.4-3.8-1-7.7-2.4-11.2-1.5-3.9-6.4-10.6-6.4-10.6 20.9 8.5 35.2 28.5 42.3 51-1.3 0.7-1.9-0.9-2.9-1.4 0 0-0.1 1.5-0.6 1.8-0.6 0.4-1.4 0.2-2-0.1-1-0.5-1.6-2.4-2.4-3.6-0.7-1.1-1.8-1.7-1.8-1.7l0.2 4.9c0 0-0.1 3.3-1.4 3.9-1.2 0.5-3.7-1.5-3.7-1.5 0 0-0.8 2.5-1.9 2.8-1 0.2-2.7-1.4-2.7-1.4 0 0-1.3 1.8-2.3 1.9-1.1 0-2.6-2-2.6-2 0 0-0.7 1.5-1.4 1.5-1.4 0-3-3.1-3-3.1z"/>
						<path id="path5555" class="s14" d="m689.2 295.1l-0.9-6.3-1.7-6.5 9.7 3.6 9.9 8.1 7.6 10 3.4 6.6 0.6 3.8-2.2-3 0.7 4.5-2.4-4 0.1 4.6-2.2-4.7 0.2 4.8-2.1-4.3-0.2 5.3-2.1-5-0.8 5.2-1.3-5-1.6 5.7-1.4-5.4-1.4 5.6-1.2-5.2-1.5 5.4-1.1-5.1-1.7 4.4-0.6-9.6-1.5 3.7-0.5-5.9-1.6 4-0.8-5.3-2 2.1 1-5.8-0.3-4.6z"/>
						<path id="path5557" fill-rule="evenodd" class="s15" d="m688.9 313.4c2.3-9.4 1.9-23.6-2.6-31.9 5.7 8.6 6.4 25.3 2.6 31.9zm2 6.8c2.3-9.4 1.8-28.3-2.4-37.5 5.9 8 6.2 30.9 2.4 37.5zm1.5 3c2.7-9.3 2.2-27.8-1.6-37.2 5.6 8.2 5.7 30.8 1.6 37.2zm3.2 3.1c1.5-9.1 1.5-28.6-2.4-37.9 5.7 8.1 5.3 31.9 2.4 37.9zm2.8 0.7c1.3-9.2 0.6-29.4-3.5-38.6 5.9 7.9 6.2 32.5 3.5 38.6zm10 0.1c0.1-9.3-3.6-28.4-8.8-37.1 6.9 7.2 10.7 30.7 8.8 37.1zm-3.4-32.8c7 6.1 12.2 24 12.2 30.4-2.4-8.5-6.3-21.7-11.7-29.7 4.6 8 8.4 20.6 8.3 25.8-2.4-8.9-6.2-23.6-11.9-30.8 1 1.1 2.1 2.5 3.1 4.3zm0.5 34.3c0.6-9.2-2.3-28.5-7.2-37.3 6.5 7.5 9.5 31.1 7.2 37.3zm-4.4 0.7c1.3-9.2 0.7-28.7-3.4-37.9 5.9 8 6.2 31.8 3.4 37.9zm10.4-1.7c-0.3-9.3-4.6-28.3-10.2-36.7 7.2 6.9 11.9 30.2 10.2 36.7zm7.4-4.2c-2.3-8-5.6-19.8-13-29.4 7.3 5.7 12.8 22.9 13 29.4z"/>
						<path id="path5559" class="s25" d="m693.9 323.4c0 0-1.1 0.7-1.7 0.5-1.4-0.5-2-2.5-2.3-4-0.4-2.2 1-6.5 1-6.5 0 0-1.6 1.6-2.5 1.1-0.9-0.4-0.7-1.5-0.7-3.4 0-1.9 1.2-5.1 1.5-7.7 0.3-2.6 0.3-5.3 0.1-7.9-0.4-3.8-1-7.7-2.4-11.2-1.5-3.9-6.4-10.6-6.4-10.6 20.9 8.5 35.2 28.5 42.3 51-1.3 0.7-1.9-0.9-2.9-1.4 0 0-0.1 1.5-0.6 1.8-0.6 0.4-1.4 0.2-2-0.1-1-0.5-1.6-2.4-2.4-3.6-0.7-1.1-1.8-1.7-1.8-1.7l0.2 4.9c0 0-0.1 3.3-1.4 3.9-1.2 0.5-3.7-1.5-3.7-1.5 0 0-0.8 2.5-1.9 2.8-1 0.2-2.7-1.4-2.7-1.4 0 0-1.3 1.8-2.3 1.9-1.1 0-2.6-2-2.6-2 0 0-0.7 1.5-1.4 1.5-1.4 0-3-3.1-3-3.1z"/>
					</g>
					<path id="path5563" class="s26" d="m665.2 269.8c29.3 3.4 48.8 27.3 57.6 54.9-1.3 0.7-1.9-0.9-2.9-1.4 0 0-0.1 1.5-0.6 1.8-0.6 0.4-1.4 0.2-2-0.1-1-0.5-1.6-2.4-2.4-3.6-0.7-1.1-1.8-1.7-1.8-1.7l0.2 4.9c0 0-0.1 3.3-1.4 3.9-1.2 0.5-3.7-1.5-3.7-1.5 0 0-0.8 2.5-1.9 2.8-1 0.2-2.7-1.4-2.7-1.4 0 0-1.3 1.8-2.3 1.9-1.1 0-2.6-2-2.6-2 0 0-0.7 1.5-1.4 1.5-1.4 0-3-3.1-3-3.1 0 0-1.9 1-3.1 0.6-3-0.7-7.6-5.8-7.6-5.8 0 0-2.2 1.5-3.4 1.4-2-0.3-4.6-3.8-4.6-3.8 0 0-1.5 0.8-3.3 0.6-1.4-0.2-3.7-3.1-3.7-3.1 0 0-1.6 1.3-3 1-2.3-0.4-5.9-4-5.9-4 0 0-2.3 1-3.5 0.7-4-1.1-9.1-8.4-9.1-8.4 0 0-2.5 0.2-3.5-0.4-3.1-1.5-6.9-7.9-6.9-7.9 0 0-2.6 0.3-3.7-0.3-5.4-2.9-11.2-14.6-11.2-14.6 17.5 2.6 24.9-15 43.4-12.9z"/>
					<path id="path5565" class="s27" d="m649.6 282.5c1.3 0.3 7.6 10.2 9.1 10.8 0.8 0.3-3.6-9.1-2.4-8.5 0.7 0.4 12.1 13.7 12.9 13.6 1-0.1-7.1-12.7-6.5-13.4 0.7 0.4 7.6 8.7 8.3 8.7 0.8 0-4.7-8.4-4.1-8.7 0.8 0.7 8.4 12.6 9.4 12.7 1 0-4.5-11.8-3.7-12.5 0.5 0.8 6.1 12.3 7 12.6 0.8 0.2-3.2-10.9-2.4-11.1 0.6 1 1.1 2 1.6 3.1 0.4 1.1 1.7 1.4 2.4 2.3 0.7 1 2.5 7.9 2.7 5.9 0.1-0.6 0.2-7.5 0.8-7.8 0.1 1 1.9 2.6 2.3 5.2 0.4 2.2-0.9 4.8-1.1 7.2-0.1 0.8-0.4 2.2-0.7 3.5-0.4 1.4-0.8 2.8-0.8 4.6 0 0.8-0.1 1.4 0 2.6 0.1 1 0.9 2.8 2.1 3.9 0 0.1 0 0.3 0 0.4-0.5-0.4 0.9 2.4 0.2 2.8-0.4 0.2-4.5-2.5-6.6-5.8-1.7-2.9-1.4-6.6-1.9-6.7-0.4-0.1-1.8 2.3-1.1 4.6 1 3.5 4.3 7.4 4.1 7.5 0 0-0.2 0.2-0.4 0.3-0.2-0.1-0.4-0.2-0.6-0.4-0.7-0.7-1.2-1.4-1.2-1.4-0.3-0.3-4.1-3.1-5.9-6.2-1.6-2.9-1.3-6.3-1.7-6.4-0.6-0.2-1.2 3.2-0.4 6.2 0.7 2.7 2.9 5.1 2.4 5.3 0 0-0.3 0-0.5 0.1-0.2-0.1-0.3-0.2-0.4-0.3-0.5-0.6-1.7-1-1.7-1-0.3-0.4-3.3-4.7-5.5-9.1-2.2-4.4-0.7-6.9-1.2-7-0.6-0.1-2.4 2.7-0.9 7.2 1.4 4.1 3.7 7.9 3.3 8.2-0.1-0.1-4.3-3.1-4.8-4-2.7-4-1.8-9-1.8-9-0.6-0.5-2.7 2-2.8 4.4 0 2.5 1.9 4.8 1.1 5.1 0 0-0.4 0.2-0.8 0.3-0.1 0-0.1 0-0.2 0-0.6-0.3-3.9-4.8-5.4-6.4-1.6-1.8-2.7-3.4-2.7-3.4-0.9-1.2-1.1-1.8-2.6-1.7 0 0-0.4 0-0.9 0-0.2 0-0.4 0-0.5-0.1-0.4-0.3-3.1-0.4-4.2-1.8-1.2-1.6-2-3-2-3q-0.5-0.8-1.2-1.3 0.2-0.5 0.3-1c1-0.3 3.2-2 4-2.4 1.4-0.8 2.2-2.4 2.1-4-0.2-1.6-1.3-3-2.8-3.6 1.6-0.8 2.9-1.4 3.6-1.5 1.2-0.2 2.9-0.1 4.7 0.4z"/>
				</g>
				<path id="path5569" class="s28" d="m706.8 298.2c0.3 1.5 0.3 2.7-0.1 4-0.6-2.9-2.9-6.9-5.6-8.9 1.2 2.7 1.3 5.4 0.9 7.4-1.7-3.9-3.4-8.2-7.5-12.4 0.4 2 0.4 4.2-0.7 5.4-0.4-2.9-0.6-7.4-6.3-9.3 0.4 1.7 1.3 3.4 1 5.3-1.5-2-3.2-5.7-6.8-7.9 0.7 2.3 1.5 5.2 1.1 7.4-1-2.5-2.5-5.9-6.9-8.6 0.1 1 0.5 2.3 0.1 3-1.2-1.9-2.2-4-6.7-5.3 0.8 2 1.1 3.6 0.8 4.7-1.6-1.7-4-3.9-5.8-4.8 0.4 1.4 0.9 2.7 0.6 4.1-2.8-3.6-6.3-6.2-11.1-6.1 4 2.8 5.8 5.4 6.1 6.9 0 0-5.9-3-9.2-3.8-2-0.4-4 0.2-6.1 0.5-3.1 0.5-5.7 4.2-8.8 4.8-1.8 0.4-3.7 0.4-5.5 0-4.2-1.1-11.6-8.2-11.6-8.2l2.5-2.5c3.9 3.1 8 4.8 10.6 4.1 10.5-2.8 13.4-11.8 24.9-14.5 14.4-3.3 25.4 5.3 35.6 13.4 10.3 8.1 15.8 17.4 22.3 27.4-4.5-1-5.7-3.8-7.8-6.1z"/>
				<path id="path5571" fill-rule="evenodd" class="s29" d="m618.4 303.5c0.3 1.5 1.1 4.3 1.1 4.3 0 0-1.6-2.5-2-3.9-0.5-1.8 0.3-6.4 0.3-6.4 0 0 0.1 4.3 0.6 6zm-3 0.5c1.4 2.4 5.3 6.3 5.3 6.3 0 0-1.8-0.7-2.5-1.3-1.8-1.5-3.3-3.3-4.3-5.4-0.6-1.5-0.8-4.8-0.8-4.8 0 0 1.3 3.6 2.3 5.2zm8.5 3.9c0.8 1.2 2.5 3.6 2.5 3.6 0 0-2.3-1.8-3.1-3-1.1-1.5-1.9-6.1-1.9-6.1 0 0 1.5 4 2.5 5.5zm-2 0c1.4 2.3 5.3 6.2 5.3 6.2 0 0-1.8-0.7-2.5-1.3-1.8-1.4-3.3-3.3-4.3-5.4-0.6-1.5-0.8-4.8-0.8-4.8 0 0 1.3 3.7 2.3 5.3zm8.6 3.4c0.8 1.2 2.5 3.6 2.5 3.6 0 0-2.3-1.8-3.1-3-1.1-1.5-1.9-6.1-1.9-6.1 0 0 1.5 3.9 2.5 5.5zm-1.7 1c1.9 1.9 6.5 4.9 6.5 4.9 0 0-1.8-0.3-2.7-0.7-2-1.1-3.9-2.5-5.3-4.4-0.9-1.3-1.8-4.5-1.8-4.5 0 0 2 3.3 3.3 4.7zm9.3 1.3c1 1.1 3 3.2 3 3.2 0 0-2.6-1.5-3.5-2.5-1.3-1.4-2.7-5.8-2.7-5.8 0 0 2 3.7 3.2 5.1zm-2.9 0.4c2.1 1.8 7 4.4 7 4.4 0 0-1.9-0.1-2.8-0.5-2.1-0.9-4.2-2.2-5.7-3.9-1-1.2-2.1-4.3-2.1-4.3 0 0 2.2 3.1 3.6 4.3zm10.6 3c0.9 1.1 2.9 3.3 2.9 3.3 0 0-2.5-1.5-3.5-2.5-1.3-1.4-2.7-5.8-2.7-5.8 0 0 2.1 3.6 3.3 5zm-2.2 0.6c1.9 1.9 6.6 4.9 6.6 4.9 0 0-1.9-0.3-2.7-0.7-2.1-1-4-2.5-5.4-4.3-0.9-1.3-1.8-4.5-1.8-4.5 0 0 2 3.2 3.3 4.6zm7.8 2.5c2.4 1.5 7.6 3.3 7.6 3.3 0 0-1.9 0.1-2.8-0.1-2.2-0.5-4.5-1.5-6.2-3-1.3-1-2.9-3.9-2.9-3.9 0 0 2.7 2.7 4.3 3.7zm14.4 1c1.2 1.8 3.5 5.5 3.5 5.5 0 0-3.1-3.2-4.3-4.9-1.1-1.7-2-4.7-2-4.7 0 0 1.7 2.5 2.8 4.1zm-0.5 3.7c1 1.8 2 3.7 3.5 5.1 1.9 1.8 4.8 2.8 6.6 4.8 0.9 1 1.4 3 1.4 3 0 0-1.9-2.3-2.9-3.2-1.7-1.3-3.4-1.6-5-3.1-1.6-1.5-2.8-3.5-3.7-5.5-1.2-2.2-2.5-7-2.5-7 0 0 1.6 4.1 2.6 5.9zm4.1 3c1.1 0.8 4.8 2.8 4.8 2.8 0 0-4.1-1.3-5.1-2-1.4-1-3.5-4.6-3.5-4.6 0 0 2.5 2.8 3.8 3.8zm-14.1 2.9c1.4 1.7 3.7 2.9 4.9 4.7 0.7 0.9 0.8 2.6 0.8 2.6 0 0-1.2-2.1-2-2.9-1.3-1.4-2.6-1.8-3.7-3.2-2-2.6-2.8-4-4.4-7.2 1.9 2.9 2.6 3.1 4.4 6zm0.8-1.7c0.8 0.8 3.6 2.9 3.6 2.9 0 0-3.2-1.6-4-2.3-1-1-2.3-4.2-2.3-4.2 0 0 1.7 2.7 2.7 3.6zm23.2 6.7c1.2 0.7 4.3 2.8 4.3 2.8 0 0-3.8-1.4-5.3-2.2-1.9-1.1-5.5-4.6-5.5-4.6 0 0 4.5 2.9 6.5 4zm-16 1c0.9 0.7 3.2 2.7 3.2 2.7 0 0-3-1.6-4.1-2.4-1.4-1.1-3.9-4.4-3.9-4.4 0 0 3.3 2.9 4.8 4.1zm12.5 1.9c1.3 1 2.8 1.6 4.2 2.4 1.6 0.8 4.7 3.5 4.7 3.5 0 0-3.8-2-5.6-2.9-1.3-0.6-2.6-1.4-3.7-2.4-1.8-1.7-4.4-5.6-4.4-5.6 0 0 3 3.5 4.8 5zm-15.7 0c1 1 2.1 1.7 3.2 2.5 1.2 0.9 3.4 3.4 3.4 3.4 0 0-2.8-2.1-4.2-3-1.1-0.7-2.1-1.5-2.8-2.5-1.3-1.5-3-5.1-3-5.1 0 0 2.1 3.3 3.4 4.7zm21.1 0.4c2 0.7 3.7 2 5.1 3.5 0.6 0.6 1.6 2 1.6 2 0 0-4-3.1-6.2-4.3-1.5-0.8-4.8-1.7-4.8-1.7 0 0 3 0 4.3 0.5zm-16.7 0.6c1.5 0.8 2.8 2.1 3.8 3.5 0.4 0.5 1.1 1.8 1.1 1.8 0 0-3-3.1-4.7-4.3-1.1-0.8-3.7-1.9-3.7-1.9 0 0 2.4 0.3 3.5 0.9z"/>
			</g>
			<path id="path5575" class="s30" d="m623.5 277.5c2.8 4.3 3.8 8.7 13.8 5.8-1.3 2.3-4.2 4.3-7.6 4.3 2.6 1.7 5.4 2.6 9.1 2.8-1.8 1.1-4.3 1.9-7.2 1.2 0.7 0.9 1.4 1.7 3 2.6-2.8 0.2-5.1-0.6-7.2-1.8 0.4 1.4 1 2.8 1.8 4.3-1.6-0.2-3.6-2-5.5-3.9 0.3 1.6 1.4 3.7 2.2 5.6-3-1-4.2-3.1-6-4.8 0.4 2.8 1.3 5.9 1.2 8.4-2.1-2.6-2.8-6.2-4.7-8.2 0.2 3 1.4 5.9 0.5 9-1-2.4-1.6-4.8-3-7.1-0.1 3-0.1 7.1-1.3 8.6l-1.2-7.3c-2.3 5.8-3.7 6.6-5.5 7.2 1.6-3.2 3.9-7.7 3.6-11.3-2.1 3.5-3.1 4.6-5.5 5.8 1-3.2 2.2-5.7 3-10-1.4 1.2-2.6 2.7-4.4 3.3 0.7-1.1 1.2-3.2 1.3-4.8 0.4-3.6 0-7.2 0.9-11.4 2.1-10.4 13.1-18.5 20.4-26.4 2.7-3 6.7-7.1 6.7-11.3l-10.6-4.7c0-1 1-2.5-0.5-4.4l-3.8-4.5c-4.4-3.5-3.9-8.5-0.5-11.8 1.9-1.9 5.1-3.5 7.9-3.8 7.5-0.9 14.3 3.2 17.3 9.9 3.7 8.4 3.9 18-1 25.6 0 0-5.8 8.3-9.2 13.2-3.3 4.8-12.3 13.5-8 19.9z"/>
			<path id="path5577" class="s31" d="m640.6 242.9c0.1-1.6 1-3.2 1.1-4.8 0.1-0.2-0.3-0.7-0.4-0.5-0.6 1.1-1.6 3.6-3 3.3 0 0 1.9-3.4 1.8-5.2 0 0-0.1-0.8-0.6-0.2-0.6 1.6-1.4 3.4-2.1 3.2 0 0 0.6-1.7 0.6-2.6-0.1-0.3 0-0.7-0.3-0.8-0.5 0.2-1.2 3.5-3.6 4.4 0.1-0.8 1.3-3.1 1.4-5.1 0-0.5-0.3-0.7-0.6-0.8-0.3 0-0.4 0.3-0.6 0.5-0.8 1.6-0.5 5.1-2.6 6.1l0.2-2.3-10.6-4.7c0-1 1-2.5-0.5-4.4l-3.8-4.5c-4.4-3.5-3.9-8.5-0.5-11.8 1.9-1.9 5.1-3.5 7.9-3.8 7.5-0.9 14.3 3.2 17.3 9.9 3.7 8.4 3.9 18-1 25.6 0 0-0.2-1-0.1-1.5z"/>
			<g id="g5601">
				<g id="g5591">
					<path id="path5579" class="s32" d="m618.4 224.4c1.3 1.2 6.5-5.1 9.1-8 3.8-4.2 11.6-1 11.3 4.4-0.2 4.4-6.4 6.8-10.8 6.3-2.3-0.3-6.3-1.3-6.3-1.3z"/>
					<g id="g5587">
						<path id="ellipse5581" class="s33" d="m622.5 219.8c-0.6-1.3 0.3-3 1.9-3.6 1.6-0.7 3.4-0.1 3.9 1.2 0.6 1.4-0.3 3.1-1.9 3.7-1.6 0.7-3.3 0.1-3.9-1.3z"/>
						<path id="ellipse5583" class="s34" d="m623.3 219.5c-0.3-0.8 0.1-1.6 1-2 0.8-0.3 1.7 0 2 0.7 0.3 0.8-0.1 1.6-1 2-0.8 0.3-1.7 0-2-0.7z"/>
						<path id="ellipse5585" class="s35" d="m623.9 219.1c-0.2-0.3-0.1-0.8 0.3-1.1 0.4-0.3 0.9-0.3 1.1 0.1 0.3 0.3 0.1 0.8-0.2 1.1-0.4 0.3-0.9 0.2-1.2-0.1z"/>
					</g>
					<path id="path5589" class="s36" d="m628.1 222.5c-0.1-0.6 0.2-1.4 0.7-1.9 0.3-0.3 0.9-0.5 1.5-0.6 1-0.1 3 0.3 3 0.3 0 0 0.9-0.6 1.3-1 0.6-0.6 0-1.3 0.6-1.8 0.5-0.3 1.1-0.6 1.6-0.5 0.4 0.1 0.7 0.6 0.9 0.9 0.3 0.5 0.7 1 0.6 1.6 0 0.4-0.1 0.8-0.4 1.1-0.7 0.6-0.8 0.6-1.7 0.5-0.6 0-1-0.8-1.6-0.8-0.4-0.1-1.1 0.4-1.1 0.4 0 0-0.3 1.2-0.7 1.6-0.4 0.5-1.3 1.1-2 1.3-0.7 0.2-1.2 0.4-1.9 0.1-0.4-0.2-0.7-0.8-0.8-1.2z"/>
				</g>
				<g id="g5599">
					<path id="path5593" class="s37" d="m610.4 229c1.1-0.7 2.5-1.8 3.3-2.9 0.9-1 1.5-3.1 1.5-3.1 2.7-1.1 5.9 2.7 8.4 3.3-1 0.7-2.1 1.4-2 2.8-3.6 2.7-9.3 4.6-14.1 5.8-0.8 0.5-1.5 1.2-2.2 1.7-0.3-3.5 1.9-5.4 5.1-7.6z"/>
					<path id="path5595" class="s34" d="m613 231.4c-1.4 0.7-2.6 1.3-3.5 1.9-1 0.6-1.6 1.2-1.7 1.8l-0.5-0.1c0.2-0.8 0.9-1.5 1.9-2.1 0.9-0.7 2.2-1.3 3.5-2 2.7-1.3 5.7-2.8 7.6-4.7-0.1 2-6.3 4.5-7.3 5.2z"/>
					<path id="path5597" class="s34" d="m615.7 228.1c-0.5 0.1-1.3 0.1-1.5-0.4-0.1-0.4 0.3-1 0.7-1.2 0.8-0.5 2.8-0.3 2.8-0.3 0 0-1.1 1.7-2 1.9z"/>
				</g>
			</g>
			<g id="g5607">
				<path id="path5603" class="s38" d="m618.4 238c-0.1-2 1.2-3.8 2.5-5.6 0.5-0.6 0.7-2.4 0.7-2.4 0 0 1.4 0.4 2.1 0.4 4.3-0.1 8 0.4 8.8 5.1 0.5 2.5-1.4 4.7-3.5 6-3.3 2-10.4 2.4-10.6-3.5z"/>
				<path id="path5605" class="s39" d="m619.3 237.9c0.1-2.3 1.4-3.2 2.1-4.5 0.6-1 0.5-1.5 0.8-2.3 0.6 0.2 1.3 0.4 2.4 0.2 0 0-0.6 1.6-1.3 2.5-2.4 3.5-2 6 1.6 8-2.7 0.4-5.6-1.2-5.6-3.9z"/>
			</g>
			<path id="path5609" class="s29" d="m626.3 251.3c-2.6 3-7.9 7.1-7.9 7.1 0 0 5.4-5.1 8.1-8.3 1.7-1.9 4.9-6.5 4.9-6.5 0 0-3.2 5.5-5.1 7.7zm-3 5.4c-2.7 2.8-8.3 6.6-8.3 6.6 0 0 5.7-4.8 8.6-7.8 1.8-1.9 5.3-6.3 5.3-6.3 0 0-3.5 5.3-5.6 7.5zm-10.6 7.7c-1.3 1.6-2.6 3.3-3.3 5.3-0.9 2.5-0.7 5.7-1.8 8.2-0.6 1.3-2.3 2.5-2.3 2.5 0 0 1.4-2.7 1.8-4 0.6-2.2 0.1-3.9 0.9-6 0.8-2.1 2.2-4 3.7-5.7 1.6-2 5.6-5.2 5.6-5.2 0 0-3.2 3.1-4.6 4.9zm3.4 1.7c-0.8 1.4-1.3 3-1.9 4.6-0.6 1.7-1.6 5.2-1.6 5.2 0 0 0.3-4.1 0.9-6 0.4-1.5 1.1-2.9 1.9-4.2 1.4-2 5.1-5.3 5.1-5.3 0 0-3.2 3.6-4.4 5.7zm-4.3 4.7c-1.2 4.2-1 8.7-1.2 13 0 1.6-0.3 4.8-0.3 4.8 0 0-0.5-3.3-0.6-4.9-0.1-2.6 0.2-5.5 0.5-8.1 0.2-1.9 0.3-3.6 1-5.4 0.8-2 3.3-5.2 3.3-5.2 0 0-2.1 3.7-2.7 5.8zm2 7c0 1.5 0.5 2.9 0.9 4.2 0.4 1 1 1.6 1.6 2.4 0.7 0.9 2.6 2.4 2.6 2.4 0 0-2.4-1-3.3-1.9-0.8-0.8-1.5-1.7-1.9-2.7-0.5-1.3-1-2.8-0.8-4.1 0.2-1.9 2.2-5.2 2.2-5.2 0 0-1.3 3.4-1.3 4.9zm-6.2 4.7c-0.3 1.3 0.1 2.7-0.4 3.9-0.6 1.2-2.7 2.9-2.7 2.9 0 0 1.7-2.3 2.1-3.7 0.3-1.2-0.2-2.6 0.2-3.8 0.5-1.9 2.6-5.2 2.6-5.2 0 0-1.4 3.9-1.8 5.9zm7.6 11.3c0.4 1.5 1.1 4.5 1.1 4.5 0 0-1.4-2.9-2-4.3-0.4-1-0.7-2.1-0.9-3.2-0.7-3.4-1.8-10-1.8-10 0 0 2.4 8.6 3.6 13zm-6.6-1.9c-0.5 1.6-2.8 4.2-2.8 4.2 0 0 1.3-2.5 1.7-3.9 0.5-2.2 0.8-7 0.8-7 0 0 0.8 4.5 0.3 6.7zm2.5 3c-0.2 1.3-0.6 2.6-1.2 3.8-0.4 0.8-1.6 2.2-1.6 2.2 0 0 0.9-1.6 1.2-2.5q0.7-1.9 1-3.9c0.6-3.2 1.1-9.8 1.1-9.8 0 0 0.1 6.8-0.5 10.2zm11.4-9.2c2.5 0.6 7.6 0.5 7.6 0.5 0 0-1.6 0.8-2.4 0.9-2.1 0.2-4.4 0-6.4-0.7-1.4-0.5-3.6-2.6-3.6-2.6 0 0 3.1 1.6 4.8 1.9zm-5.3 5.1c0.8 1.6 1.6 4.5 1.6 4.5 0 0-2-3-2.8-4.6-0.9-1.9-2.3-5.8-2.3-5.8 0 0 2.6 4 3.5 5.9zm2.6-0.2c1.4 1.6 4 5 4 5 0 0-3.3-2.7-4.7-4.3-1.4-1.5-2.7-4.5-2.7-4.5 0 0 2.1 2.3 3.4 3.8zm4.6 0.1c0.9 1 2 3.4 2 3.4 0 0-1.8-2-2.7-3-1.2-1.2-4.4-3.3-4.4-3.3 0 0 3.9 1.6 5.1 2.9zm4.4-1.5c2.2 0.6 6.3 1.7 6.3 1.7 0 0-4.5-0.2-6.8-0.9-1.5-0.5-4.6-1.8-4.6-1.8 0 0 3.5 0.6 5.1 1z"/>
		</g>
		<g id="g5619">
			<path id="path5613" class="s10" d="m625.1 365.2c0 0-2.3 5.5-4.3 7.7-2.4 2.7-8.7 6.3-8.7 6.3 0 0 3.6-4.4 4.1-7.1 0.4-2.4-1.2-7.2-1.2-7.2 0 0-4.1 5.1-7.1 6.3-3 1.1-9.9 0.1-9.9 0.1 0 0 5.7-1.4 6.7-3.1 1.1-1.7 0-4.8 0-4.8 0 0-3.5 0.7-5.4 0.6-2.6-0.1-7-2-7-2 0 0 6.3-1.7 9.3-2.8 3-1.1 4.4-3.9 4.4-3.9-4.2-3.5-2.5-6.9-2.8-10.4 3.1 2.1 6.2 6.3 9.4 3.5 0 0 1.5-3.6 0.6-6.4-1.1-3.3-5.3-9.1-5.3-9.1 0 0 6.7 3.6 9.1 6.4 2.8 3.2 4.2 6.8 4.2 6.8 0 0 0.2-1.1 0.7-3.9 0.5-2.2 1.5-4.6 3.2-6.1 2.8-2.4 10.4-3.7 10.4-3.7 0 0-7.1 3.1-8.1 6.4-1.1 3.3 3.2 8.1 3.2 8.1 0 0 5.2-3.8 6.6-6.6 0.9-2 0.8-6.4 0.8-6.4 0 0 2 4.8 2.2 7.3 0.2 3.4 0.5 8.6 0.5 8.6 0 0 3.7-0.1 5.1-2.4 2.1-3.4 0-11.8 0-11.8 0 0 4.8 7.1 4.7 11.1 0 2.3-2.9 6.4-2.9 6.4 0 0 5.3-0.2 7.6-1.3 1.9-0.8 4.9-3.9 4.9-3.9 0 0 0.1 8.7-2.7 11.3-2.8 2.8-11.6 2.3-11.6 2.3 0 0-1.7 4.8-0.7 6.9 0.5 1.1 3.2 2.2 3.2 2.2 0 0-5.7 1.1-8.1 0-2.8-1.3-5.9-6.9-5.9-6.9 0 0-2.4 2.9-2.5 4.7-0.2 3 3.4 8.3 3.4 8.3 0 0-7.1-3-9.1-6.1-1-1.6-1-5.4-1-5.4z"/>
			<path id="path5615" class="s11" d="m625.8 338.3c-0.8 2.5 0.3 4.8 1.3 6.6 1.1 1.8 2.2 3.1 2.2 3.1q0.2 0.2 0.5 0.4 0.3 0.1 0.6 0.1 0.3 0.1 0.6 0 0.3-0.1 0.5-0.3c0 0 1.4-1 2.9-2.3 1.5-1.3 3.2-2.9 4.1-4.7 0 0 0 0.1 0 0.2 0.3 3.3 0.6 8.4 0.6 8.4q0 0.4 0.2 0.6 0.1 0.3 0.3 0.5 0.3 0.2 0.5 0.4 0.3 0.1 0.6 0.1c0 0 4.5 0.2 6.5-3.2 0.8-1.2 1.1-2.6 1.2-4 0.3 1 0.5 1.8 0.5 2.4 0 0.6-0.6 2.1-1.3 3.4-0.7 1.2-1.4 2.1-1.4 2.1q-0.2 0.4-0.3 0.9 0 0.4 0.2 0.8 0.3 0.4 0.7 0.7 0.4 0.2 0.8 0.2c0 0 1.4 0 3.1-0.2 1.7-0.2 3.6-0.5 5.2-1.2 0.8-0.4 1.6-0.9 2.4-1.5-0.1 0.3 0 0.2-0.1 0.6-0.3 2.3-1.1 4.9-1.9 5.7-0.8 0.7-3.5 1.5-5.9 1.7-2.4 0.2-4.5 0-4.5 0q-0.2 0-0.5 0.1-0.2 0.1-0.5 0.2-0.2 0.2-0.3 0.4-0.2 0.2-0.3 0.4c0 0-0.4 1.3-0.8 2.9-0.3 1.6-0.7 3.4 0.1 5.2 0.1 0.2 0.2 0.2 0.3 0.4-1.3 0-2.6-0.1-3.1-0.3-0.7-0.3-2.2-1.9-3.3-3.4-1.1-1.5-1.8-2.8-1.8-2.8q-0.2-0.4-0.6-0.6-0.3-0.2-0.7-0.2-0.4-0.1-0.8 0.1-0.3 0.1-0.6 0.5c0 0-0.6 0.7-1.3 1.8-0.7 1-1.5 2.2-1.5 3.8-0.1 1.6 0.4 3.1 1.1 4.5-1.7-1.1-3.3-2.3-3.8-3.1-0.2-0.2-0.5-1.5-0.6-2.6-0.1-1-0.2-1.9-0.2-1.9 0-0.4-0.1-0.8-0.3-1.1-0.3-0.2-0.6-0.4-1-0.5-0.3-0.1-0.7 0-1 0.1-0.4 0.2-0.6 0.5-0.8 0.8 0 0-0.5 1.4-1.3 3-0.8 1.6-2 3.5-2.7 4.4-0.5 0.5-1.4 1.3-2.4 2 0.2-0.5 0.5-1 0.6-1.5 0.3-1.7-0.1-3.6-0.5-5.1-0.3-1.6-0.7-2.9-0.7-2.9q-0.2-0.4-0.5-0.7-0.4-0.3-0.8-0.4-0.4 0-0.8 0.1-0.5 0.2-0.7 0.5c0 0-1 1.2-2.3 2.6-1.4 1.3-3.1 2.8-4.1 3.1-0.5 0.2-1.3 0.3-2.2 0.4 0.4-0.3 0.7-0.6 0.9-1 0.9-1.4 0.8-2.9 0.6-4.1-0.2-1.1-0.5-2.1-0.5-2.1q-0.1-0.2-0.3-0.4-0.2-0.3-0.5-0.4-0.2-0.1-0.5-0.2-0.3 0-0.6 0c0 0-3.5 0.7-4.9 0.6-0.4 0-1-0.2-1.5-0.3 1.5-0.5 3.1-0.9 4.3-1.4 3.7-1.3 5.3-4.7 5.3-4.7q0.1-0.2 0.1-0.5 0.1-0.3 0-0.5 0-0.3-0.2-0.5-0.1-0.3-0.3-0.5c-1.9-1.4-2.2-2.6-2.3-4-0.1-0.5 0-1.2 0-1.8 0.7 0.6 1.4 1.2 2.2 1.7 0.9 0.5 2 1 3.2 1 1.1 0.1 2.4-0.4 3.5-1.3q0-0.1 0.1-0.1 0-0.1 0.1-0.2 0 0 0.1-0.1 0-0.1 0-0.2c0 0 2-3.8 0.8-7.5-0.4-1.1-0.9-2.2-1.6-3.4 1.1 0.8 2 1.6 2.6 2.2 2.5 3 3.9 6.4 3.9 6.4q0.2 0.5 0.6 0.8 0.5 0.3 1.1 0.2 0.5 0 0.9-0.4 0.4-0.4 0.5-0.9c0 0 0.2-1.1 0.7-3.8 0.4-2.1 1.3-4.1 2.7-5.3 0 0 0.1-0.1 0.2-0.1-0.2 0.3-0.5 0.7-0.6 1.1z"/>
			<path id="path5617" class="s12" d="m627.5 349.6q0.5 0.6 1.2 0.9 0.7 0.4 1.4 0.5 0.8 0 1.5-0.2 0.7-0.2 1.3-0.6c0 0 1.5-1.1 3.2-2.5q0.2-0.2 0.4-0.4c0 0.8 0.2 2.7 0.2 2.7q0 0.8 0.4 1.5 0.3 0.7 0.9 1.2 0.5 0.6 1.3 0.8 0.7 0.3 1.5 0.3c0 0 1.2 0.1 2.7-0.2q0.1 0.7 0.5 1.4 0.4 0.7 0.9 1.2 0.6 0.5 1.3 0.7 0.7 0.3 1.5 0.2c0 0 1.5 0 3.2-0.2 1.2-0.1 2.4-0.3 3.7-0.7 0 0 0 0.1 0 0.1 0.2-0.2-2.2 0.8-4.4 1-2.2 0.2-4.1 0.1-4.1 0.1q-0.7 0-1.3 0.1-0.7 0.2-1.2 0.6-0.6 0.3-1 0.9-0.4 0.5-0.6 1.1c0 0-0.5 1.4-0.9 3.2-0.1 0.7-0.3 1.5-0.4 2.4-0.4-0.4-0.8-0.9-1.2-1.4-1-1.4-1.7-2.6-1.7-2.6q-0.5-0.9-1.3-1.4-0.9-0.6-1.9-0.7-1-0.1-1.9 0.3-0.9 0.4-1.6 1.2c0 0-0.7 0.9-1.5 2.1-0.1 0.3-0.4 0.6-0.6 0.9-0.2-0.8-0.6-1.5-1.3-2-0.6-0.6-1.4-0.9-2.3-1-0.8 0-1.7 0.2-2.4 0.6-0.7 0.5-1.3 1.1-1.6 1.9 0 0-0.5 1.3-1.3 2.8-0.1 0.2-0.2 0.3-0.4 0.5q0-0.1 0-0.2c-0.4-1.7-0.8-3-0.8-3-0.3-0.7-0.7-1.4-1.2-1.8-0.6-0.5-1.2-0.8-2-1-0.7-0.1-1.4 0-2.1 0.2-0.7 0.3-1.3 0.7-1.7 1.3 0 0-0.9 1.1-2.2 2.3-0.2 0.2-0.4 0.4-0.5 0.5-0.1-0.2 0-0.5-0.1-0.7-0.2-1.4-0.6-2.5-0.6-2.5q-0.1-0.3-0.3-0.5-0.1-0.2-0.2-0.4-0.2-0.3-0.4-0.5-0.2-0.1-0.4-0.3c1.6-1.6 2.5-3.2 2.5-3.2q0.2-0.4 0.3-0.9 0.1-0.5 0.1-1 0-0.5-0.2-1-0.1-0.5-0.3-0.9c0.1 0 0.3 0.1 0.5 0.1 1.8 0.1 3.8-0.7 5.2-2q0.1-0.2 0.3-0.3 0.1-0.2 0.3-0.3 0.1-0.2 0.2-0.4 0.1-0.2 0.2-0.4c0 0 0.6-1 1-2.7 0 0.1 0.1 0.3 0.1 0.3 0.3 0.8 0.9 1.5 1.7 2 0.7 0.4 1.6 0.6 2.5 0.6 0.9-0.1 1.7-0.5 2.4-1.1 0.6-0.6 1-1.4 1.2-2.3 0 0 0.1-0.3 0.1-0.3 1.1 1.8 2.2 3.1 2.2 3.1z"/>
		</g>
		<path id="path5621" class="s40" d="m555.9 345.9c0 0 12.1-0.3 21.5-1 5.5-0.4 10.2 1.2 11.1-2.7 0.7-2.5-6.8-1.9-6.1-4.3 1.2-4 6.8-2.9 12.3-2.8 4.9 0 9.8-1.3 11.1 2.2 2.1 5.7-13.7 5.5-14.2 11.6-0.2 2.8 6 3.5 5.6 6.2-1 6.4-18 3.5-16.7 9.8 1.1 4.9 12.2-2.4 14.8 1.9 1.3 2-3.8 4.8-2.5 6.7 3 4.2 12.2-4 15.4 0 1.7 2.2-3.5 5.9-1.8 8 4.5 5.7 15.8-4.2 21.5 0 1.7 1.3 0 5.1 1.9 6.2 5.3 3 13.7-4.8 16.6 0.6 4.3 8.3-15.7 5.6-17.3 14.8-0.7 4.1 2.7 5.7 3.7 9.8 0.4 1.4-0.7 3.1 0 4.3 4.1 6.7 13.2 9.4 20.9 10.5 8.5 1.1 19.8 1.7 25.3-4.9 1.9-2.4-2.1-7 0-9.3 3.9-4.2 12.9 2.7 17.2-1.2 2.8-2.5-0.8-8.4 1.8-11.1 8.3-8.2 23.9-0.8 34.5-5.5 7.4-3.3 16.9-7.5 19.1-15.4 0.9-3.4-4.7-6.5-3.7-9.8 2.4-8.5 19.6-7.3 20.9-16 0.4-2.8-5.3-4-4.9-6.8 0.5-4.2 5.7-7.1 9.8-8 2.7-0.6 3.3 0.4 8 0.2 5.3-0.2 14.6-1.4 15.4 1.7 1 3.8-16.2 6.8-14.8 10.4 1.4 3.6 11.7 0 11.7 0 0 0-8.8 21-15.4 30.2-7.5 10.6-16.4 20.6-27 28.3-12.2 8.7-26.2 15.1-40.6 19-15.1 4.1-31.2 5.5-46.8 4.3-12-0.9-23.9-4-35.1-8.6-14.1-5.9-27.2-14.5-39.3-24-8.2-6.4-13.5-12.7-19.1-21.5-6.2-9.9-14.8-33.8-14.8-33.8z"/>
	</g>
</svg>