<svg version="1.2" baseProfile="tiny-ps" xmlns="http://www.w3.org/2000/svg" viewBox="0 0 1800 1200" width="900" height="600"><title></title><style>tspan { white-space:pre }.shp0 { fill: #ffffff } .shp1 { fill: #ffe000 } .shp2 { fill: #ffffff;stroke: #000000;stroke-linecap:round;stroke-linejoin:round;stroke-width: 1.538 } .shp3 { fill: #ffe000;stroke: #000000;stroke-linecap:round;stroke-linejoin:round;stroke-width: 1.538 } .shp4 { fill: #ff0000;stroke: #000000;stroke-linecap:round;stroke-linejoin:round;stroke-width: 1.92 } .shp5 { fill: none;stroke: #000000;stroke-linecap:round;stroke-linejoin:round;stroke-width: 1.538 } .shp6 { fill: #cccccc;stroke: #000000;stroke-linejoin:round;stroke-width: 1.538 } .shp7 { fill: none;stroke: #000000;stroke-linejoin:round;stroke-width: 1.538 } .shp8 { fill: #ffffff;stroke: #000000;stroke-linejoin:round;stroke-width: 1.538 } .shp9 { fill: #ffe000;stroke: #000000;stroke-linejoin:round;stroke-width: 1.538 } .shp10 { fill: #fa0204;stroke: #000000;stroke-linejoin:round;stroke-width: 1.538 } </style><path class="shp0" d="M900 0L1800 0L1800 1200L900 1200L900 0Z" /><path class="shp1" d="M0 0L900 0L900 1200L0 1200L0 0Z" /><g ><g ><g ><path class="shp2" d="M1312.91 475.34L1320.64 477.18L1332.96 479.19L1338.61 479.81L1337.61 503.77C1337.61 503.77 1336.26 519.69 1333.92 527.27C1332.18 532.88 1326.35 543.19 1326.35 543.19L1322.66 548.83L1300.9 529.99C1300.9 529.99 1304.61 524.73 1305.95 521.83C1307.64 518.19 1309.64 510.37 1309.64 510.37L1311.78 497.94L1312.94 482.21L1312.91 475.34ZM1285.56 548.05L1305.37 565.34C1305.37 565.34 1301.36 568.9 1298.96 570C1294.24 572.15 1288.99 573.6 1283.81 573.49C1280.1 573.41 1276.46 572.07 1273.08 570.52C1265.54 567.08 1257.23 563.45 1252.36 556.73C1250.64 554.35 1249.96 551.18 1250.01 548.24C1250.08 544.92 1253.03 538.72 1253.03 538.72C1253.03 538.72 1254.18 542.87 1255.49 544.5C1257.66 547.17 1260.83 548.96 1263.94 550.44C1266.27 551.54 1268.81 552.37 1271.38 552.52C1274.72 552.71 1278.18 552.19 1281.28 550.96C1282.89 550.33 1285.56 548.05 1285.56 548.05L1285.56 548.05Z" /><path class="shp2" d="M1254.15 421.28C1254.15 421.28 1255.73 424.45 1256.21 426.14C1257.04 429.04 1257.61 432.06 1257.59 435.07C1257.57 438.09 1256.88 441.09 1256.08 444C1254.87 448.36 1253.04 452.53 1251.13 456.63C1249.92 459.23 1248.23 461.59 1247.01 464.19C1245.05 468.38 1243.66 472.8 1241.93 477.1C1240.49 480.68 1238.64 484.11 1237.54 487.81C1236.08 492.72 1235.35 497.84 1234.65 502.92C1234.05 507.29 1233.58 511.69 1233.55 516.1C1233.52 521.33 1233.68 526.62 1234.65 531.76C1235.62 536.85 1237.04 541.94 1239.32 546.59C1241.16 550.34 1243.61 553.84 1246.46 556.89C1248.82 559.41 1251.6 561.57 1254.57 563.35C1257.26 564.96 1260.3 565.89 1263.22 567.05C1267.25 568.65 1275.43 571.53 1275.43 571.53C1275.43 571.53 1264.13 565.97 1260.2 561.29C1256.94 557.41 1255.15 552.35 1254.02 547.41C1252.71 541.7 1252.87 535.67 1253.47 529.83C1254.11 523.56 1255.95 517.44 1257.86 511.43C1259.88 505.09 1262.71 499.03 1265.28 492.89C1267.13 488.47 1269.25 484.15 1271.05 479.71C1273.17 474.45 1275.25 469.18 1276.95 463.77C1277.99 460.48 1279.28 457.19 1279.56 453.75C1279.86 450 1279.38 446.19 1278.52 442.54C1277.32 437.42 1275.83 432.14 1272.84 427.82C1271.03 425.22 1268.57 422.95 1265.75 421.51C1263 420.1 1259.73 418.92 1256.7 419.52C1255.68 419.72 1254.15 421.28 1254.15 421.28L1254.15 421.28Z" /><path class="shp2" d="M1279.56 453.89C1279.56 453.89 1281.7 445.25 1282.06 440.84C1282.37 437.06 1282.17 433.24 1281.77 429.47C1281.33 425.28 1281.07 420.93 1279.44 417.04C1277.75 413.01 1275.11 409.3 1271.96 406.26C1268.86 403.27 1265.1 400.84 1261.09 399.27C1256.86 397.62 1252.21 397.22 1247.68 396.94C1243.8 396.7 1239.89 397.03 1236.03 397.52C1233.8 397.81 1231.56 398.16 1229.43 398.88C1227.45 399.55 1223.79 401.6 1223.79 401.6L1238.17 425.1C1238.17 425.1 1242.67 422.45 1245.16 421.8C1247.8 421.11 1250.6 421.06 1253.32 421.22C1256.08 421.38 1258.95 421.65 1261.48 422.77C1264.69 424.2 1267.47 426.6 1269.9 429.16C1272.83 432.24 1275.44 435.78 1277.08 439.7C1278.6 443.34 1278.8 447.41 1279.34 451.32C1279.46 452.17 1279.56 453.89 1279.56 453.89L1279.56 453.89Z" /><path class="shp3" d="M1282.18 435.2C1282.18 435.2 1279.62 427.26 1277.21 423.94C1274.4 420.08 1270.79 416.55 1266.52 414.42C1262 412.16 1251.65 411.44 1251.65 411.44L1257.13 421.58L1247.54 421.34L1242.54 412.97L1233.31 417.15L1228.71 409.64L1238.52 405.1L1234 397.81L1243.8 396.88L1248.07 403.93C1248.07 403.93 1255.69 403.95 1259.39 404.73C1261.91 405.26 1264.38 406.13 1266.65 407.33C1268.83 408.47 1270.83 409.98 1272.63 411.65C1274.79 413.67 1276.82 415.91 1278.33 418.45C1279.79 420.92 1281.47 426.48 1281.47 426.48L1282.18 435.2Z" /><path fill-rule="evenodd" class="shp3" d="M1223.88 401.74L1216.66 405.95L1209.8 411.17L1224.63 433.83L1231.22 428.75L1238 424.82L1223.88 401.74ZM1217.19 405.64L1232.5 428.01" /><path class="shp3" d="M1251.82 497.22L1260.4 479.5L1269.59 483.16L1273.31 474.01L1264.18 469.75L1268.92 459.52L1262.19 456.5L1257.11 466.32L1247.89 462.46L1243.85 472.05L1252.78 475.79L1244.54 493.37L1251.82 497.22Z" /><path class="shp3" d="M1320.52 491.92L1329.26 491.72L1329.26 501.82L1337.68 502.22L1336.25 512.47L1328.39 511.98C1328.39 511.98 1327.1 518.02 1325.94 520.86C1324.73 523.81 1321.3 529.21 1321.3 529.21L1311.98 526.88C1311.98 526.88 1315.35 521.58 1316.64 518.72C1317.79 516.17 1319.36 510.76 1319.36 510.76L1309.79 509.55L1311.45 499.86L1320.13 500.46L1320.52 491.92Z" /></g><g ><path class="shp2" d="M1387.61 475.34L1379.88 477.18L1367.56 479.19L1361.91 479.81L1362.91 503.77C1362.91 503.77 1364.26 519.69 1366.6 527.27C1368.34 532.88 1374.17 543.19 1374.17 543.19L1377.86 548.83L1399.62 529.99C1399.62 529.99 1395.91 524.73 1394.57 521.83C1392.88 518.19 1390.88 510.37 1390.88 510.37L1388.74 497.94L1387.58 482.21L1387.61 475.34ZM1414.96 548.05L1395.15 565.34C1395.15 565.34 1399.16 568.9 1401.56 570C1406.28 572.15 1411.53 573.6 1416.71 573.49C1420.42 573.41 1424.06 572.07 1427.44 570.52C1434.98 567.08 1443.29 563.45 1448.16 556.73C1449.88 554.35 1450.56 551.18 1450.51 548.24C1450.44 544.92 1447.49 538.72 1447.49 538.72C1447.49 538.72 1446.34 542.87 1445.03 544.5C1442.86 547.17 1439.69 548.96 1436.58 550.44C1434.25 551.54 1431.71 552.37 1429.14 552.52C1425.8 552.71 1422.34 552.19 1419.24 550.96C1417.63 550.33 1414.96 548.05 1414.96 548.05L1414.96 548.05Z" /><path class="shp2" d="M1446.37 421.28C1446.37 421.28 1444.79 424.45 1444.31 426.14C1443.48 429.04 1442.91 432.06 1442.93 435.07C1442.95 438.09 1443.64 441.09 1444.44 444C1445.65 448.36 1447.48 452.53 1449.39 456.63C1450.6 459.23 1452.29 461.59 1453.51 464.19C1455.47 468.38 1456.86 472.8 1458.59 477.1C1460.03 480.68 1461.88 484.11 1462.98 487.81C1464.44 492.72 1465.17 497.84 1465.87 502.92C1466.47 507.29 1466.94 511.69 1466.97 516.1C1467 521.33 1466.84 526.62 1465.87 531.76C1464.9 536.85 1463.48 541.94 1461.2 546.59C1459.36 550.34 1456.91 553.84 1454.06 556.89C1451.7 559.41 1448.92 561.57 1445.95 563.35C1443.26 564.96 1440.22 565.89 1437.3 567.05C1433.27 568.65 1425.09 571.53 1425.09 571.53C1425.09 571.53 1436.39 565.97 1440.32 561.29C1443.58 557.41 1445.37 552.35 1446.5 547.41C1447.81 541.7 1447.65 535.67 1447.05 529.83C1446.41 523.56 1444.57 517.44 1442.66 511.43C1440.64 505.09 1437.81 499.03 1435.24 492.89C1433.39 488.47 1431.27 484.15 1429.47 479.71C1427.35 474.45 1425.27 469.18 1423.57 463.77C1422.53 460.48 1421.24 457.19 1420.96 453.75C1420.66 450 1421.14 446.19 1422 442.54C1423.2 437.42 1424.69 432.14 1427.68 427.82C1429.49 425.22 1431.95 422.95 1434.77 421.51C1437.52 420.1 1440.79 418.92 1443.82 419.52C1444.84 419.72 1446.37 421.28 1446.37 421.28L1446.37 421.28Z" /><path class="shp2" d="M1420.96 453.89C1420.96 453.89 1418.82 445.25 1418.46 440.84C1418.15 437.06 1418.35 433.24 1418.75 429.47C1419.19 425.28 1419.45 420.93 1421.08 417.04C1422.77 413.01 1425.41 409.3 1428.56 406.26C1431.66 403.27 1435.42 400.84 1439.43 399.27C1443.66 397.62 1448.31 397.22 1452.84 396.94C1456.72 396.7 1460.63 397.03 1464.49 397.52C1466.72 397.81 1468.96 398.16 1471.09 398.88C1473.07 399.55 1476.73 401.6 1476.73 401.6L1462.35 425.1C1462.35 425.1 1457.85 422.45 1455.36 421.8C1452.72 421.11 1449.92 421.06 1447.2 421.22C1444.44 421.38 1441.57 421.65 1439.04 422.77C1435.83 424.2 1433.05 426.6 1430.62 429.16C1427.69 432.24 1425.08 435.78 1423.44 439.7C1421.92 443.34 1421.72 447.41 1421.18 451.32C1421.06 452.17 1420.96 453.89 1420.96 453.89L1420.96 453.89Z" /><path class="shp3" d="M1418.34 435.2C1418.34 435.2 1420.9 427.26 1423.31 423.94C1426.12 420.08 1429.73 416.55 1434 414.42C1438.52 412.16 1448.87 411.44 1448.87 411.44L1443.39 421.58L1452.98 421.34L1457.98 412.97L1467.21 417.15L1471.81 409.64L1462 405.1L1466.52 397.81L1456.72 396.88L1452.45 403.93C1452.45 403.93 1444.83 403.95 1441.13 404.73C1438.61 405.26 1436.14 406.13 1433.87 407.33C1431.69 408.47 1429.69 409.98 1427.89 411.65C1425.73 413.67 1423.7 415.91 1422.19 418.45C1420.73 420.92 1419.05 426.48 1419.05 426.48L1418.34 435.2Z" /><path fill-rule="evenodd" class="shp3" d="M1476.64 401.74L1483.86 405.95L1490.72 411.17L1475.89 433.83L1469.3 428.75L1462.52 424.82L1476.64 401.74ZM1483.33 405.64L1468.02 428.01" /><path class="shp3" d="M1448.7 497.22L1440.12 479.5L1430.93 483.16L1427.21 474.01L1436.34 469.75L1431.6 459.52L1438.33 456.5L1443.41 466.32L1452.63 462.46L1456.67 472.05L1447.74 475.79L1455.98 493.37L1448.7 497.22Z" /><path class="shp3" d="M1380 491.92L1371.26 491.72L1371.26 501.82L1362.84 502.22L1364.27 512.47L1372.13 511.98C1372.13 511.98 1373.42 518.02 1374.58 520.86C1375.79 523.81 1379.22 529.21 1379.22 529.21L1388.54 526.88C1388.54 526.88 1385.17 521.58 1383.88 518.72C1382.73 516.17 1381.16 510.76 1381.16 510.76L1390.73 509.55L1389.07 499.86L1380.39 500.46L1380 491.92Z" /></g><path class="shp2" d="M1301.2 353.09L1288.04 367.22L1296.14 391.67L1300.78 408.85L1287.47 421.25L1311.82 455.08L1389.21 447.64L1414.08 420.99L1404.59 412.43L1404.38 391.67L1412.48 367.22L1400.29 354.88L1389.28 325.47C1389.28 325.47 1386.97 317.27 1385.02 313.52C1383.85 311.28 1382.22 309.3 1380.62 307.34C1378.71 304.99 1376.78 302.6 1374.44 300.68C1372.32 298.94 1369.87 297.64 1367.44 296.36C1364.83 294.98 1362.21 293.5 1359.35 292.77C1356.41 292.02 1350.26 292.03 1350.26 292.03C1350.26 292.03 1344.12 292.02 1341.17 292.77C1338.31 293.5 1335.69 294.98 1333.08 296.36C1330.65 297.64 1328.2 298.94 1326.08 300.68C1323.74 302.6 1321.81 304.99 1319.9 307.34C1318.3 309.3 1316.67 311.28 1315.51 313.52C1313.55 317.27 1311.25 325.47 1311.25 325.47L1301.2 353.09L1301.2 353.09Z" /><path class="shp4" d="M1350.35 480.48C1324.44 480.48 1303.51 474.26 1303.51 466.58C1303.51 458.89 1324.44 452.67 1350.35 452.67C1376.25 452.67 1397.19 458.89 1397.19 466.58C1397.19 474.26 1376.25 480.48 1350.35 480.48Z" /><path fill-rule="evenodd" class="shp3" d="M1414.27 418.07L1416.4 418.52C1416.4 418.52 1418.37 419.57 1418.39 420.51C1418.42 421.81 1416.61 422.39 1415.78 423.39C1415.08 424.25 1414.42 425.15 1413.79 426.07C1413.2 426.94 1412.43 427.74 1412.14 428.75C1412.14 428.76 1412.14 428.77 1412.13 428.78C1411.4 427.17 1410.38 425.77 1407.6 425.68L1412.13 428.79C1411.85 429.88 1412.6 431.15 1412.14 432.18C1411.55 433.5 1410.33 434.78 1408.92 435.07C1407.66 435.33 1405.27 433.83 1405.27 433.83L1405.35 443.38L1400.4 447.84L1395.73 457.59L1397.58 460.06L1397.03 464.86C1393.44 460.26 1387.19 458.24 1381.58 456.63C1371.52 453.74 1350.26 454.43 1350.26 454.43C1350.26 454.43 1348.93 454.39 1346.78 454.37C1340.33 454.31 1326.49 454.46 1318.94 456.63C1313.33 458.24 1307.08 460.26 1303.49 464.86L1302.94 460.06L1304.79 457.59L1300.15 447.9L1400.37 447.9C1400.37 447.9 1398.84 446.54 1397.99 445.98C1396.19 444.82 1394.26 443.83 1392.26 443.07C1389.57 442.04 1386.71 441.49 1383.91 440.83C1380.69 440.08 1377.47 439.33 1374.2 438.89C1370.37 438.38 1366.5 438.15 1362.64 438.12C1358.51 438.07 1350.26 438.7 1350.26 438.7C1350.26 438.7 1342.02 438.07 1337.88 438.12C1334.02 438.15 1330.15 438.38 1326.32 438.89C1323.05 439.33 1319.82 440.08 1316.61 440.83C1313.8 441.49 1310.95 442.04 1308.26 443.07C1306.26 443.83 1304.33 444.82 1302.53 445.98C1301.68 446.53 1300.18 447.87 1300.15 447.9L1300.12 447.84L1295.17 443.38L1295.24 434.08C1295.24 434.08 1295.24 434.08 1295.24 434.08L1295.24 434.08L1295.24 434.08C1295.27 434.09 1300.33 435.98 1302.63 435.06C1302.97 434.92 1303.27 434.69 1303.53 434.42L1304.7 436.45L1306.45 437.59C1309.48 436.67 1312.52 435.7 1315.55 433.97C1316.38 433.06 1317.16 431.9 1317.72 429.63C1317.72 429.63 1315.54 428.34 1315.03 427.26C1314.46 426.04 1314.23 424.37 1314.93 423.22C1315.7 421.95 1317.47 421.28 1318.96 421.26C1320.05 421.24 1321.21 421.81 1321.95 422.61C1322.76 423.46 1323.38 424.75 1323.19 425.91C1323 427.09 1320.92 428.7 1320.92 428.7C1320.92 428.7 1321.78 430.89 1322.76 431.31C1325.65 432.54 1327.55 433.25 1330.08 433.64C1332.58 434.02 1335.39 434.34 1337.9 433.63C1339.52 433.17 1341.19 432.32 1342.2 430.97C1342.51 430.57 1342.62 429.53 1342.62 429.53C1342.62 429.53 1339.52 428.72 1338.28 427.77C1337.05 426.83 1335.74 425.58 1335.49 424.05C1335.23 422.51 1336.05 420.89 1336.94 419.61C1337.81 418.34 1339.14 417.33 1340.55 416.71C1341.19 416.44 1342.62 416.4 1342.62 416.4C1342.62 416.4 1342.92 416.68 1343.07 416.82L1343.07 416.82C1342.82 416.49 1342.6 416.15 1342.44 415.78C1341.89 414.5 1341.91 412.85 1342.54 411.6C1343.28 410.14 1345.03 409.45 1346.43 408.59C1347.63 407.85 1350.21 406.81 1350.26 406.79C1350.3 406.8 1352.89 407.85 1354.1 408.59C1355.49 409.45 1357.24 410.14 1357.98 411.6C1358.61 412.85 1358.63 414.5 1358.08 415.78C1357.92 416.15 1357.7 416.49 1357.45 416.82C1357.6 416.68 1357.9 416.4 1357.9 416.4C1357.9 416.4 1359.33 416.44 1359.97 416.71C1361.38 417.33 1362.71 418.34 1363.58 419.61C1364.47 420.89 1365.29 422.51 1365.03 424.05C1364.78 425.58 1363.47 426.83 1362.24 427.77C1361.01 428.72 1357.9 429.53 1357.9 429.53C1357.9 429.53 1358.01 430.57 1358.32 430.97C1359.33 432.32 1361 433.17 1362.62 433.63C1365.13 434.34 1367.94 434.02 1370.44 433.64C1372.97 433.25 1374.87 432.54 1377.76 431.31C1378.74 430.89 1379.6 428.7 1379.6 428.7C1379.6 428.7 1377.52 427.09 1377.33 425.91C1377.14 424.75 1377.76 423.46 1378.57 422.61C1379.31 421.81 1380.47 421.24 1381.57 421.26C1383.06 421.28 1384.82 421.95 1385.59 423.22C1386.29 424.37 1386.06 426.04 1385.49 427.26C1384.98 428.34 1382.8 429.63 1382.8 429.63C1383.36 431.9 1384.14 433.06 1384.97 433.97C1388 435.7 1391.04 436.67 1394.07 437.59L1395.82 436.45L1396.99 434.42C1397.25 434.69 1397.55 434.92 1397.89 435.06C1400.2 435.98 1405.28 434.08 1405.28 434.08L1405.13 427.41C1405.13 427.41 1403.27 425.52 1401.7 424.8C1403.13 425.25 1405.33 427.15 1405.33 427.15C1405.33 427.15 1407.6 425.33 1408.43 424.15C1409.25 422.98 1410.19 420.23 1410.19 420.23L1410.77 419.92C1412.24 419.68 1414.27 418.07 1414.27 418.07L1414.27 418.07ZM1345.41 418.68C1345.43 418.69 1345.46 418.69 1345.48 418.7C1345.44 418.69 1345.41 418.67 1345.37 418.65C1345.38 418.66 1345.4 418.67 1345.41 418.68ZM1346.04 418.98C1346.13 419.02 1346.28 419.03 1346.39 419.06C1346.09 418.95 1345.78 418.85 1345.54 418.73C1345.7 418.82 1345.87 418.91 1346.04 418.98ZM1347.58 419.43C1347.58 419.43 1345.73 420.01 1345.2 420.75C1344.88 421.2 1344.74 421.76 1344.68 422.33C1344.84 421.57 1345.19 420.83 1345.74 420.34C1346.57 419.61 1348.48 419.33 1349.53 419.24C1348.7 419.28 1347.32 419.31 1346.39 419.06C1347 419.26 1347.58 419.43 1347.58 419.43ZM1350.26 419.18C1350.26 419.18 1350.3 419.19 1350.37 419.19C1350.31 419.18 1350.27 419.18 1350.27 419.18L1350.25 419.18C1350.25 419.18 1350.21 419.18 1350.16 419.19C1350.22 419.19 1350.25 419.18 1350.26 419.18ZM1354.78 420.34C1355.33 420.83 1355.68 421.57 1355.84 422.33C1355.78 421.76 1355.64 421.2 1355.32 420.75C1354.8 420.01 1352.94 419.43 1352.94 419.43C1352.94 419.43 1353.52 419.26 1354.13 419.06C1353.19 419.31 1351.8 419.28 1350.97 419.23C1352.02 419.33 1353.95 419.61 1354.78 420.34ZM1354.49 418.98C1354.65 418.91 1354.82 418.82 1354.98 418.73C1354.75 418.85 1354.43 418.95 1354.13 419.06C1354.24 419.03 1354.39 419.02 1354.49 418.98ZM1355.11 418.68C1355.13 418.67 1355.15 418.66 1355.16 418.65C1355.12 418.67 1355.08 418.69 1355.04 418.71C1355.06 418.7 1355.09 418.69 1355.11 418.68ZM1295.25 433.83C1295.25 433.83 1292.86 435.33 1291.6 435.07C1290.19 434.78 1288.97 433.5 1288.38 432.18C1287.92 431.15 1288.67 429.88 1288.39 428.79L1292.92 425.68C1290.14 425.77 1289.12 427.17 1288.38 428.78C1288.38 428.77 1288.38 428.76 1288.38 428.75C1288.09 427.74 1287.32 426.94 1286.73 426.07C1286.1 425.15 1285.45 424.25 1284.74 423.39C1283.92 422.39 1282.1 421.81 1282.13 420.51C1282.15 419.57 1284.12 418.52 1284.12 418.52L1286.25 418.07C1286.25 418.07 1288.28 419.68 1289.76 419.92L1290.34 420.23C1290.34 420.23 1291.27 422.98 1292.09 424.15C1292.92 425.33 1295.19 427.15 1295.19 427.15C1295.19 427.15 1297.41 425.24 1298.83 424.8C1297.26 425.51 1295.39 427.41 1295.39 427.41L1295.24 434.08L1295.25 433.83ZM1298.83 424.8C1299.07 424.69 1299.3 424.61 1299.52 424.57C1300.58 424.36 1301.8 424.67 1302.68 425.3C1303.45 425.85 1304.05 426.66 1304.46 427.56C1304.34 427.35 1304.21 427.14 1304.08 426.95C1303.51 426.1 1302.75 425.27 1301.8 424.88C1300.91 424.52 1299.84 424.52 1298.91 424.78C1298.88 424.78 1298.86 424.79 1298.83 424.8ZM1305.32 430.35C1305.3 430.83 1305.09 431.41 1304.82 431.99C1305.11 430.97 1305.16 429.85 1304.91 428.84C1304.8 428.41 1304.65 427.97 1304.46 427.56C1304.97 428.42 1305.36 429.38 1305.32 430.35ZM1304.82 431.99C1304.76 432.19 1304.69 432.39 1304.62 432.58C1304.36 433.22 1304.02 433.9 1303.53 434.42L1303.46 434.28C1303.46 434.28 1304.27 433.16 1304.82 431.99ZM1396.99 434.42C1396.5 433.91 1396.15 433.22 1395.9 432.58C1395.82 432.39 1395.76 432.19 1395.7 431.98C1396.25 433.16 1397.06 434.28 1397.06 434.28L1396.99 434.42ZM1395.2 430.35C1395.16 429.38 1395.55 428.42 1396.06 427.56C1395.87 427.98 1395.72 428.41 1395.61 428.84C1395.36 429.85 1395.41 430.97 1395.7 431.98C1395.43 431.41 1395.22 430.83 1395.2 430.35ZM1396.06 427.56C1396.47 426.67 1397.07 425.85 1397.84 425.3C1398.72 424.67 1399.94 424.37 1401 424.57C1401.22 424.61 1401.46 424.69 1401.7 424.8C1401.67 424.79 1401.64 424.78 1401.61 424.78C1400.68 424.52 1399.61 424.52 1398.72 424.88C1397.77 425.27 1397.01 426.1 1396.44 426.95C1396.31 427.14 1396.18 427.35 1396.06 427.56ZM1355.84 422.33C1355.84 422.33 1355.84 422.34 1355.84 422.34C1355.84 422.34 1355.84 422.33 1355.84 422.33C1355.84 422.33 1355.84 422.33 1355.84 422.33C1355.84 422.33 1355.84 422.33 1355.84 422.33ZM1355.84 422.34C1355.89 422.84 1355.88 423.36 1355.84 423.84C1355.8 424.21 1355.7 424.59 1355.6 424.95C1355.78 424.43 1355.92 423.89 1355.94 423.36C1355.95 423.02 1355.91 422.68 1355.84 422.34ZM1355.6 424.95C1355.6 424.95 1355.6 424.96 1355.6 424.96C1355.6 424.96 1355.6 424.95 1355.6 424.95C1355.6 424.95 1355.6 424.95 1355.6 424.95C1355.6 424.95 1355.6 424.95 1355.6 424.95ZM1355.6 424.96C1355.28 425.87 1354.76 426.72 1354.04 427.3C1354.32 427.11 1354.58 426.89 1354.8 426.63C1355.2 426.16 1355.43 425.57 1355.6 424.96ZM1354.04 427.3C1354.04 427.3 1354.04 427.3 1354.04 427.3C1354.04 427.3 1354.04 427.3 1354.04 427.3C1354.04 427.3 1354.04 427.3 1354.04 427.3C1354.04 427.3 1354.04 427.3 1354.04 427.3ZM1354.04 427.3C1354.01 427.32 1353.98 427.34 1353.95 427.36C1353.96 427.35 1353.99 427.35 1354 427.34C1354.01 427.33 1354.02 427.31 1354.04 427.3ZM1353.94 427.36C1353.94 427.37 1353.94 427.37 1353.93 427.37L1353.9 427.35C1353.9 427.35 1353.91 427.36 1353.93 427.37C1353.85 427.42 1353.77 427.47 1353.69 427.52C1353.78 427.47 1353.86 427.42 1353.93 427.37C1354.17 427.57 1356.26 429.18 1357.55 429.38L1353.93 427.37C1353.94 427.37 1353.94 427.37 1353.94 427.36C1353.94 427.36 1353.94 427.36 1353.95 427.36C1353.94 427.36 1353.94 427.36 1353.94 427.36ZM1353.69 427.52C1352.54 428.11 1350.31 428.11 1350.26 428.11C1350.31 428.12 1351.66 428.26 1352.32 428.08C1352.79 427.95 1353.26 427.76 1353.69 427.52ZM1344.68 422.33C1344.68 422.33 1344.68 422.34 1344.68 422.34C1344.68 422.34 1344.68 422.33 1344.68 422.33C1344.68 422.33 1344.68 422.33 1344.68 422.33C1344.68 422.33 1344.68 422.33 1344.68 422.33ZM1344.68 422.34C1344.61 422.68 1344.57 423.02 1344.58 423.36C1344.6 423.89 1344.74 424.43 1344.92 424.95C1344.82 424.59 1344.72 424.21 1344.68 423.84C1344.64 423.36 1344.63 422.84 1344.68 422.34ZM1344.92 424.95C1344.92 424.95 1344.92 424.96 1344.92 424.96C1344.92 424.96 1344.92 424.95 1344.92 424.95C1344.92 424.95 1344.92 424.95 1344.92 424.95C1344.92 424.95 1344.92 424.95 1344.92 424.95ZM1346.48 427.3C1346.48 427.3 1346.48 427.3 1346.48 427.3C1346.48 427.3 1346.48 427.3 1346.48 427.3C1346.48 427.3 1346.48 427.3 1346.48 427.3C1346.48 427.3 1346.48 427.3 1346.48 427.3ZM1346.58 427.36C1346.58 427.37 1346.58 427.37 1346.59 427.37L1342.97 429.38C1344.26 429.18 1346.35 427.57 1346.59 427.37C1346.66 427.42 1346.74 427.47 1346.83 427.52C1346.75 427.47 1346.67 427.42 1346.59 427.37C1346.61 427.36 1346.62 427.35 1346.62 427.35L1346.59 427.37C1346.58 427.37 1346.58 427.37 1346.58 427.36C1346.58 427.36 1346.57 427.36 1346.57 427.36C1346.57 427.36 1346.58 427.36 1346.58 427.36ZM1346.83 427.52C1347.26 427.76 1347.73 427.95 1348.2 428.08C1348.86 428.26 1350.21 428.12 1350.26 428.11C1350.21 428.11 1347.98 428.11 1346.83 427.52ZM1346.57 427.36C1346.54 427.34 1346.51 427.32 1346.48 427.3C1346.5 427.31 1346.51 427.33 1346.52 427.34C1346.53 427.35 1346.56 427.35 1346.57 427.36ZM1346.48 427.3C1345.76 426.72 1345.24 425.87 1344.92 424.96C1345.09 425.57 1345.32 426.16 1345.72 426.63C1345.94 426.89 1346.2 427.11 1346.48 427.3ZM1412.13 428.79C1412.13 428.78 1412.13 428.78 1412.13 428.78C1412.14 428.78 1412.14 428.79 1412.14 428.79L1412.13 428.79ZM1288.38 428.78C1288.39 428.78 1288.39 428.78 1288.39 428.79L1288.38 428.79C1288.38 428.79 1288.38 428.78 1288.38 428.78ZM1353.93 427.37C1353.93 427.37 1353.93 427.37 1353.93 427.37C1353.93 427.37 1353.93 427.37 1353.93 427.37C1353.93 427.37 1353.93 427.37 1353.93 427.37L1353.93 427.37ZM1346.59 427.37C1346.59 427.37 1346.59 427.37 1346.59 427.37C1346.59 427.37 1346.59 427.37 1346.59 427.37C1346.59 427.37 1346.59 427.37 1346.59 427.37L1346.59 427.37ZM1300.15 447.9L1300.15 447.9L1300.15 447.9C1300.15 447.9 1300.15 447.9 1300.15 447.9ZM1343.07 416.82C1343.67 417.59 1344.49 418.19 1345.37 418.65C1344.56 418.18 1343.57 417.29 1343.07 416.82ZM1355.17 418.64C1356.04 418.19 1356.86 417.58 1357.45 416.82C1356.95 417.29 1355.98 418.17 1355.17 418.64ZM1383.5 429.44L1379.44 428.98M1317.02 429.44L1321.08 428.98" /><path fill-rule="evenodd" class="shp3" d="M1299.03 388.78C1300.02 389.1 1301.15 389.09 1302.14 388.78C1303.34 388.41 1304.27 387.43 1305.25 386.64C1307.46 384.86 1309.68 383.02 1311.46 380.82C1312.49 379.55 1313.99 376.64 1313.99 376.64C1313.99 376.64 1320.19 381.51 1323.89 382.47C1327.53 383.41 1331.56 383.24 1335.16 382.18C1336.06 381.91 1337.58 380.7 1337.58 380.7C1341.81 378.01 1346.05 376.53 1350.26 376.94C1354.47 376.53 1358.71 378.01 1362.95 380.7C1362.95 380.7 1364.46 381.91 1365.36 382.18C1368.96 383.24 1372.99 383.41 1376.62 382.47C1380.33 381.51 1386.53 376.64 1386.53 376.64C1386.53 376.64 1388.03 379.55 1389.06 380.82C1390.84 383.02 1393.06 384.86 1395.27 386.64C1396.25 387.43 1397.18 388.41 1398.38 388.78C1399.37 389.09 1400.5 389.1 1401.49 388.78C1403.36 388.17 1406.24 385.28 1406.24 385.28L1411.97 392.76C1411.97 392.76 1412.02 394.73 1411.59 395.58C1411 396.74 1408.77 398.3 1408.77 398.3L1408.36 408.56L1413.79 417.97L1414.26 418.07L1410.77 419.92C1410.6 419.95 1410.44 419.97 1410.29 419.96C1408.19 419.8 1406.9 417.44 1405.07 416.39C1402.74 415.06 1400.26 414 1397.79 412.96C1394.37 411.53 1390.9 410.21 1387.35 409.11C1382.89 407.73 1378.38 406.35 1373.76 405.68C1369.08 405.01 1364.32 404.81 1359.61 405.13C1356.45 405.34 1350.3 406.76 1350.26 406.77C1350.21 406.76 1344.06 405.34 1340.91 405.13C1339.73 405.05 1338.55 405 1337.37 404.99C1333.83 404.94 1330.27 405.18 1326.76 405.68C1322.14 406.35 1317.63 407.73 1313.16 409.11C1309.62 410.21 1306.15 411.53 1302.73 412.96C1300.26 414 1297.78 415.06 1295.45 416.39C1293.62 417.44 1292.33 419.8 1290.23 419.96C1290.08 419.97 1289.92 419.95 1289.76 419.92L1286.25 418.07L1286.73 417.97L1292.16 408.56L1291.75 398.3C1291.75 398.3 1289.53 396.74 1288.94 395.58C1288.51 394.73 1288.55 392.76 1288.55 392.76L1294.27 385.28C1294.27 385.28 1297.16 388.17 1299.03 388.78ZM1386.53 376.64C1386.53 376.64 1384.51 374.83 1383.89 373.65C1383.47 372.88 1383.12 371.98 1383.23 371.1C1383.35 370.08 1383.9 369.05 1384.69 368.39C1385.36 367.81 1386.32 367.51 1387.21 367.51C1388.27 367.52 1389.47 367.83 1390.22 368.58C1390.99 369.36 1391.36 370.6 1391.29 371.69C1391.23 372.63 1390.64 373.5 1390.03 374.21C1389.1 375.28 1386.53 376.64 1386.53 376.64ZM1310.49 374.21C1309.88 373.5 1309.29 372.63 1309.23 371.69C1309.16 370.6 1309.53 369.36 1310.3 368.58C1311.05 367.83 1312.25 367.52 1313.31 367.51C1314.2 367.51 1315.15 367.81 1315.83 368.39C1316.61 369.05 1317.17 370.08 1317.29 371.1C1317.39 371.98 1317.05 372.88 1316.63 373.65C1316.01 374.83 1313.99 376.64 1313.99 376.64C1313.99 376.64 1311.42 375.29 1310.49 374.21ZM1408.77 398.3C1408.77 398.3 1403.54 395.87 1400.81 395C1395.81 393.4 1390.61 392.49 1385.46 391.5C1379.48 390.35 1373.34 390.04 1367.4 388.65C1365.54 388.21 1363.79 387.32 1361.91 386.93C1359.32 386.4 1356.6 385.55 1354.01 386.11C1352.59 386.41 1350.26 388.3 1350.26 388.3C1350.26 388.3 1347.92 386.41 1346.51 386.11C1343.92 385.55 1341.2 386.4 1338.61 386.93C1336.73 387.32 1334.98 388.21 1333.12 388.65C1327.18 390.04 1321.04 390.35 1315.06 391.5C1309.91 392.49 1304.71 393.4 1299.71 395C1296.98 395.87 1291.75 398.3 1291.75 398.3L1408.77 398.3Z" /><path fill-rule="evenodd" class="shp3" d="M1406.25 385.28C1406.25 385.28 1402.95 384.79 1401.59 383.93C1400.35 383.14 1399.19 382 1398.67 380.63C1398.15 379.26 1398.07 377.58 1398.67 376.25C1399.43 374.56 1401.16 373.34 1402.85 372.56C1404.12 371.98 1407.02 371.98 1407.02 371.98C1407.02 371.98 1407.72 369.5 1408.19 368.29C1408.79 366.71 1409.14 364.9 1410.29 363.65C1411.68 362.15 1413.71 361.3 1415.67 360.72C1416.85 360.37 1419.36 360.42 1419.36 360.42C1419.36 360.42 1420.42 361.85 1420.33 362.66C1420.15 364.15 1418.44 365 1417.61 366.25C1416.29 368.22 1414.67 370.1 1414.01 372.37C1413.7 373.46 1413.35 374.79 1413.92 375.77C1414.64 377.01 1416.61 376.88 1417.71 377.81C1418.27 378.28 1418.9 378.84 1419.07 379.56C1419.27 380.46 1418.96 381.49 1418.48 382.28C1418.02 383.02 1417.3 383.79 1416.44 383.93C1414.69 384.2 1411.49 381.98 1411.49 381.98C1411.49 381.98 1409.82 384.37 1408.57 384.99C1407.87 385.34 1406.25 385.28 1406.25 385.28L1406.25 385.28ZM1411.23 382.25C1411.23 382.25 1411.44 379.52 1411.15 378.2C1410.88 376.99 1410.34 375.83 1409.64 374.8C1408.92 373.72 1406.93 371.99 1406.93 371.99L1411.23 382.25ZM1281.16 360.42C1281.16 360.42 1283.67 360.37 1284.85 360.72C1286.81 361.3 1288.84 362.16 1290.23 363.65C1291.38 364.9 1291.72 366.71 1292.33 368.29C1292.79 369.5 1293.49 371.98 1293.49 371.98C1293.49 371.98 1296.39 371.98 1297.67 372.56C1299.36 373.34 1301.08 374.56 1301.85 376.25C1302.45 377.58 1302.36 379.26 1301.85 380.63C1301.33 382 1300.18 383.14 1298.94 383.93C1297.57 384.79 1294.27 385.28 1294.27 385.28C1294.27 385.28 1292.64 385.34 1291.94 384.99C1290.69 384.37 1289.03 381.98 1289.03 381.98C1289.03 381.98 1285.83 384.2 1284.08 383.93C1283.21 383.79 1282.5 383.02 1282.04 382.28C1281.55 381.49 1281.25 380.46 1281.45 379.56C1281.62 378.84 1282.25 378.28 1282.81 377.81C1283.91 376.88 1285.88 377.01 1286.6 375.77C1287.17 374.79 1286.82 373.46 1286.5 372.37C1285.85 370.1 1284.22 368.22 1282.91 366.25C1282.07 365 1280.37 364.15 1280.19 362.66C1280.09 361.85 1281.16 360.42 1281.16 360.42L1281.16 360.42ZM1293.58 371.99C1293.58 371.99 1291.6 373.72 1290.87 374.8C1290.18 375.83 1289.64 376.99 1289.37 378.2C1289.08 379.52 1289.29 382.25 1289.29 382.25L1293.58 371.99ZM1347.3 376.93C1347.3 376.93 1347.23 376.87 1347.11 376.76L1347.15 376.75L1353.36 376.75L1353.4 376.76C1353.29 376.87 1353.22 376.93 1353.22 376.93L1350.26 377.13L1347.3 376.93ZM1347.11 376.76L1337.59 380.72C1337.59 380.72 1332.85 375.32 1332.63 371.98C1332.57 371.04 1333.09 370.08 1333.7 369.36C1335.8 366.88 1341.82 364.25 1342.3 364.04C1342.32 364.07 1342.33 364.09 1342.34 364.11C1343.1 365.46 1345.77 366.89 1346.45 367.24L1346.26 367.29L1346.57 367.29C1346.6 367.31 1346.62 367.32 1346.62 367.32C1346.62 367.32 1344.36 368.49 1343.8 369.55C1343.39 370.33 1343.35 371.34 1343.61 372.18C1344.1 373.81 1346.44 376.12 1347.11 376.76ZM1342.05 361.1C1342.47 359.56 1343.64 358.24 1344.87 357.22C1346.4 355.96 1350.26 354.69 1350.26 354.69C1350.26 354.69 1354.11 355.95 1355.65 357.22C1356.88 358.24 1358.04 359.56 1358.46 361.1C1358.72 362.05 1358.67 363.17 1358.21 364.04C1358.19 364.03 1358.18 364.03 1358.18 364.03L1342.34 364.03C1342.34 364.03 1342.32 364.03 1342.3 364.04C1341.85 363.17 1341.8 362.05 1342.05 361.1ZM1358.21 364.04C1358.7 364.25 1364.72 366.88 1366.81 369.36C1367.42 370.08 1367.94 371.04 1367.88 371.98C1367.67 375.32 1362.93 380.72 1362.93 380.72L1353.4 376.76C1354.08 376.12 1356.41 373.81 1356.91 372.18C1357.16 371.34 1357.12 370.33 1356.71 369.55C1356.15 368.49 1353.9 367.32 1353.9 367.32C1353.9 367.32 1353.92 367.31 1353.95 367.29L1354.25 367.29L1354.06 367.24C1354.75 366.89 1357.41 365.46 1358.17 364.11C1358.18 364.09 1358.2 364.07 1358.21 364.04ZM1350.26 366.12L1346.45 367.24C1346.5 367.26 1346.54 367.28 1346.57 367.29L1353.95 367.29C1353.98 367.28 1354.01 367.26 1354.06 367.24L1350.26 366.12Z" /><path fill-rule="evenodd" class="shp3" d="M1323.02 351.68C1317.12 352.77 1311.27 354.27 1305.63 356.35C1300.3 358.31 1294.66 367.21 1290.23 363.65C1289.28 362.89 1290.59 361.21 1291.05 360.08C1291.95 357.89 1293.18 355.79 1294.76 354.04C1295.92 352.75 1298.59 352.59 1298.88 350.88C1299.09 349.64 1297.21 348.91 1296.82 347.72C1296.32 346.2 1296.08 344.45 1296.55 342.91C1297.12 341 1299.52 340.01 1300.2 338.15L1400.32 338.15C1400.99 340.01 1403.39 341 1403.97 342.91C1404.43 344.45 1404.19 346.2 1403.69 347.72C1403.3 348.91 1401.42 349.64 1401.63 350.88C1401.93 352.59 1404.6 352.75 1405.75 354.04C1407.34 355.79 1408.57 357.89 1409.46 360.08C1409.92 361.21 1411.24 362.89 1410.29 363.65C1405.86 367.21 1400.21 358.31 1394.88 356.35C1389.25 354.27 1383.4 352.77 1377.5 351.68C1371.83 350.64 1366.06 350.28 1360.31 349.94C1356.96 349.73 1350.26 349.74 1350.26 349.74C1350.26 349.74 1343.56 349.73 1340.21 349.94C1334.46 350.28 1328.68 350.64 1323.02 351.68ZM1300.25 337.97C1300.76 336.25 1299.03 334.21 1299.84 332.61C1300.87 330.6 1305.28 331.28 1305.61 329.04C1305.77 327.95 1303.78 327.61 1303.41 326.57C1303.16 325.83 1303.56 325.02 1303.55 324.24C1303.54 323.18 1303.74 322.03 1303.28 321.08C1302.86 320.23 1301.5 320.05 1301.22 319.15C1300.95 318.31 1301.13 317.17 1301.77 316.54C1302.26 316.05 1303.51 316.76 1303.83 316.13C1304.46 314.87 1302.61 313.58 1302.04 312.29C1301.37 310.74 1300.5 309.26 1300.12 307.62C1299.81 306.32 1298.7 304.31 1299.84 303.63C1301.15 302.86 1302.47 305.19 1303.69 306.11C1305.29 307.32 1307.1 308.42 1308.22 310.09C1309.03 311.29 1308.58 313.21 1309.64 314.21C1309.72 314.28 1309.81 314.35 1309.9 314.41C1309.9 314.42 1307.53 315.74 1307.24 316.92C1306.86 318.42 1307.56 320.31 1308.74 321.31C1309.89 322.28 1313.18 322.03 1313.18 322.03L1309.9 314.41C1311.22 315.28 1313.45 314.52 1314.68 315.58C1315.81 316.56 1316.81 318.25 1316.46 319.7C1316.13 321.09 1312.85 321.06 1313.16 322.45C1313.54 324.11 1316.44 323.98 1318.11 323.69C1319.08 323.52 1319.77 322.61 1320.58 322.04C1321.21 321.6 1321.73 320.97 1322.44 320.66C1323.25 320.32 1325.04 320.22 1325.04 320.22L1324.01 319.98C1324.01 319.98 1322.49 318.76 1322.33 317.88C1322.18 317.05 1322.54 316.09 1323.12 315.48C1323.77 314.79 1324.82 314.44 1325.77 314.45C1326.56 314.46 1327.42 314.77 1327.96 315.34C1328.52 315.93 1328.84 316.84 1328.75 317.64C1328.68 318.35 1328.21 319.03 1327.65 319.46C1327.05 319.94 1325.46 320.15 1325.46 320.15L1326.56 320.46L1329.51 324.51L1332 324.37C1329.56 324.53 1327.13 324.75 1324.7 325.06C1321.33 325.49 1318 326.15 1314.68 326.84C1311.64 327.48 1305.62 329.01 1305.62 329.01L1394.9 329.01C1394.9 329.02 1394.9 329.03 1394.9 329.04C1395.23 331.28 1399.65 330.6 1400.67 332.61C1401.48 334.21 1399.76 336.25 1400.26 337.97C1400.28 338.02 1400.29 338.08 1400.31 338.13C1399.61 337.96 1394.78 336.75 1392.26 336.15C1388.38 335.22 1384.53 334.13 1380.6 333.43C1376.16 332.63 1371.67 332.04 1367.16 331.72C1361.53 331.32 1350.26 331.45 1350.26 331.45C1350.26 331.45 1338.98 331.32 1333.35 331.72C1328.85 332.04 1324.36 332.63 1319.91 333.43C1315.98 334.13 1312.14 335.22 1308.26 336.15C1305.74 336.75 1300.9 337.96 1300.2 338.13C1300.22 338.08 1300.24 338.02 1300.25 337.97ZM1342.25 323.81C1342.25 323.81 1343.82 322.21 1343.51 321.34C1343.5 321.3 1343.49 321.27 1343.47 321.24L1357.04 321.24C1357.03 321.27 1357.02 321.3 1357.01 321.34C1356.7 322.21 1358.27 323.81 1358.27 323.81L1364.13 324.13C1359.5 323.92 1350.26 323.96 1350.26 323.96C1350.26 323.96 1341 323.92 1336.38 324.13L1342.25 323.81ZM1340.79 320.12C1336.67 320.3 1335.83 316.84 1335.98 314.34C1336.11 312.26 1338.62 310.85 1340.55 310.07C1342.04 309.47 1344.47 310.94 1345.81 310.61C1345.09 311.33 1344.61 312.34 1344.41 313.32C1344.21 314.27 1344.43 315.34 1344.89 316.2C1345.36 317.09 1347.09 318.26 1347.09 318.26L1350.26 318.33L1353.43 318.26C1353.43 318.26 1355.15 317.09 1355.62 316.2C1356.08 315.34 1356.3 314.27 1356.11 313.32C1355.9 312.34 1355.42 311.33 1354.71 310.61C1356.05 310.94 1358.48 309.47 1359.97 310.07C1361.9 310.85 1364.4 312.26 1364.53 314.34C1364.69 316.84 1363.84 320.3 1359.72 320.12C1358.32 320.06 1357.47 320.35 1357.09 321.14L1353.36 318.26L1350.26 318.33L1350.28 318.33L1350.26 318.33L1350.23 318.33L1350.26 318.33L1347.16 318.26L1343.43 321.14C1343.05 320.35 1342.19 320.06 1340.79 320.12ZM1346.57 309.97C1347.31 308.38 1343.78 307.56 1343.22 305.89C1342.98 305.17 1342.97 304.29 1343.32 303.61C1344.19 301.87 1346.06 300.72 1347.83 299.92C1348.58 299.59 1350.26 299.53 1350.26 299.53C1350.26 299.53 1351.93 299.58 1352.68 299.92C1354.46 300.72 1356.33 301.87 1357.2 303.61C1357.54 304.29 1357.54 305.17 1357.3 305.89C1356.74 307.56 1353.21 308.38 1353.95 309.97C1353.96 310 1353.97 310.02 1353.98 310.04C1352.9 309.41 1350.26 309.81 1350.26 309.81C1350.26 309.81 1347.61 309.41 1346.54 310.04C1346.54 310.04 1346.53 310.04 1346.53 310.04C1346.55 310.02 1346.56 310 1346.57 309.97ZM1371.01 324.51L1373.96 320.46L1375.06 320.15C1375.06 320.15 1373.46 319.94 1372.86 319.46C1372.3 319.03 1371.84 318.35 1371.76 317.64C1371.68 316.84 1371.99 315.93 1372.55 315.34C1373.1 314.77 1373.96 314.46 1374.75 314.45C1375.69 314.44 1376.74 314.79 1377.39 315.48C1377.97 316.09 1378.33 317.05 1378.18 317.88C1378.02 318.76 1376.5 319.98 1376.5 319.98L1375.47 320.22C1375.47 320.22 1377.27 320.32 1378.08 320.66C1378.79 320.97 1379.3 321.6 1379.93 322.04C1380.74 322.61 1381.43 323.52 1382.41 323.69C1384.08 323.98 1386.97 324.11 1387.35 322.45C1387.67 321.06 1384.38 321.09 1384.05 319.7C1383.71 318.25 1384.71 316.56 1385.84 315.58C1387.16 314.44 1389.61 315.4 1390.88 314.21C1391.94 313.21 1391.49 311.29 1392.29 310.09C1393.41 308.42 1395.22 307.32 1396.83 306.11C1398.04 305.19 1399.36 302.86 1400.67 303.63C1401.82 304.31 1400.7 306.32 1400.4 307.62C1400.01 309.26 1399.15 310.74 1398.47 312.29C1397.91 313.58 1396.05 314.87 1396.69 316.13C1397.01 316.76 1398.25 316.05 1398.75 316.54C1399.38 317.17 1399.57 318.31 1399.3 319.15C1399.02 320.05 1397.65 320.23 1397.24 321.08C1396.78 322.03 1396.98 323.18 1396.96 324.24C1396.95 325.02 1397.36 325.83 1397.1 326.57C1396.74 327.6 1394.79 327.94 1394.9 329.01C1394.86 329 1388.87 327.48 1385.84 326.84C1382.52 326.15 1379.18 325.49 1375.81 325.06C1373.39 324.75 1370.95 324.53 1368.52 324.37L1371.01 324.51ZM1387.33 322.03C1387.33 322.03 1390.62 322.28 1391.77 321.31C1392.95 320.31 1393.65 318.42 1393.28 316.92C1393.07 316.07 1391.78 315.14 1391.07 314.69L1387.33 322.03ZM1400.32 338.15C1400.32 338.14 1400.31 338.14 1400.31 338.13C1400.37 338.14 1400.4 338.15 1400.4 338.15L1400.32 338.15ZM1300.2 338.13C1300.2 338.14 1300.2 338.14 1300.2 338.15L1300.12 338.15C1300.12 338.15 1300.15 338.14 1300.2 338.13ZM1394.9 329.01C1394.9 329.01 1394.9 329.01 1394.9 329.01C1394.9 329.01 1394.9 329.01 1394.9 329.01L1394.9 329.01ZM1368.52 324.37L1364.13 324.13C1364.13 324.13 1364.14 324.13 1364.14 324.13C1365.6 324.2 1367.06 324.28 1368.52 324.37ZM1336.38 324.13L1332 324.37C1333.46 324.28 1334.92 324.2 1336.38 324.13C1336.38 324.13 1336.38 324.13 1336.38 324.13ZM1309.9 314.41C1309.9 314.41 1309.9 314.41 1309.9 314.41C1309.9 314.41 1309.9 314.41 1309.9 314.41L1309.9 314.41ZM1357.22 321.24L1357.09 321.14C1357.07 321.17 1357.06 321.2 1357.04 321.24L1357.22 321.24ZM1343.29 321.24L1343.47 321.24C1343.46 321.2 1343.44 321.17 1343.43 321.14L1343.29 321.24ZM1353.98 310.04C1353.98 310.04 1353.98 310.04 1353.98 310.04C1354.15 310.36 1354.4 310.53 1354.71 310.61C1354.49 310.39 1354.24 310.2 1353.98 310.04ZM1345.81 310.61C1346.12 310.53 1346.37 310.36 1346.53 310.04C1346.27 310.2 1346.03 310.39 1345.81 310.61ZM1382.46 323.67L1381.18 325.91M1396.84 316.3L1393.23 316.78M1397.32 321L1391.79 321.29M1318.05 323.67L1319.34 325.91M1303.67 316.3L1307.28 316.78M1303.2 321L1308.72 321.29" /><path fill-rule="evenodd" class="shp3" d="M1350.26 291.96C1350.26 291.96 1347.92 291.87 1346.75 291.96C1344.88 292.1 1342.6 294.01 1341.19 292.78C1340.54 292.23 1340.86 291.03 1341.19 290.24C1341.94 288.42 1345.22 288.02 1345.37 286.05C1345.5 284.36 1342.88 283.55 1342.35 281.93C1342.09 281.13 1342.03 280.18 1342.35 279.39C1343.66 276.26 1349.22 276.06 1350.26 272.91C1351.3 276.06 1356.86 276.26 1358.17 279.39C1358.5 280.18 1358.43 281.13 1358.17 281.93C1357.64 283.55 1355.02 284.36 1355.15 286.05C1355.3 288.02 1358.58 288.42 1359.34 290.24C1359.66 291.03 1359.98 292.23 1359.34 292.78C1357.92 294.01 1355.64 292.1 1353.77 291.96C1352.6 291.87 1350.26 291.96 1350.26 291.96ZM1350.24 272.83C1350.17 272.62 1350.19 272.41 1350.26 272.2C1350.33 272.41 1350.35 272.62 1350.29 272.83C1350.28 272.85 1350.27 272.88 1350.26 272.91C1350.25 272.88 1350.24 272.85 1350.24 272.83ZM1350.26 272.2C1349.83 270.94 1347.38 269.68 1347.02 269.53C1344.94 268.63 1342.36 270.81 1340.31 269.91C1338.92 269.31 1337.37 267.93 1337.39 266.42C1337.42 264.77 1339.18 263.39 1340.7 262.73C1343.22 261.63 1347.16 264.51 1349.36 263.67C1347.44 265.39 1345.92 267.2 1347.02 269.53L1353.5 269.53C1354.6 267.2 1353.08 265.39 1351.16 263.67C1353.37 264.51 1357.31 261.63 1359.83 262.73C1361.34 263.39 1363.1 264.77 1363.13 266.42C1363.15 267.93 1361.61 269.31 1360.21 269.91C1358.16 270.81 1355.58 268.63 1353.5 269.53C1353.14 269.68 1350.69 270.94 1350.26 272.2ZM1349.36 263.67C1349.64 263.41 1349.93 263.16 1350.23 262.91C1350.23 262.91 1350.23 262.92 1350.24 262.92C1350.24 262.93 1350.25 262.95 1350.26 262.96C1350.27 262.95 1350.28 262.93 1350.29 262.92C1350.29 262.92 1350.29 262.91 1350.29 262.91C1350.59 263.16 1350.88 263.41 1351.16 263.67C1350.81 263.53 1350.51 263.31 1350.26 262.96C1350.01 263.31 1349.71 263.53 1349.36 263.67ZM1350.26 260.84C1350.63 261.56 1350.74 262.25 1350.29 262.91C1350.28 262.9 1350.27 262.89 1350.26 262.88C1350.25 262.89 1350.24 262.9 1350.23 262.91C1349.78 262.25 1349.89 261.56 1350.26 260.84ZM1350.26 260.84C1349.26 258.92 1346.34 256.83 1346.91 254.76C1347.28 253.41 1350.26 252.24 1350.26 252.24C1350.26 252.24 1353.24 253.42 1353.61 254.76C1354.17 256.83 1351.26 258.92 1350.26 260.84ZM1345.37 285.79L1350.26 285.85L1355.15 285.79L1345.37 285.79Z" /><path class="shp5" d="M1395.8 457.68C1395.8 457.68 1392.36 456.23 1390.61 455.6C1387.44 454.45 1384.25 453.37 1381 452.49C1377.83 451.63 1374.64 450.72 1371.38 450.35C1364.38 449.57 1350.26 450.25 1350.26 450.25C1350.26 450.25 1336.14 449.57 1329.14 450.35C1325.88 450.72 1322.69 451.63 1319.52 452.49C1316.27 453.37 1313.08 454.45 1309.91 455.6C1308.16 456.23 1304.72 457.68 1304.72 457.68M1401.64 350.88C1401.64 350.88 1395.9 348.6 1392.98 347.58C1390.54 346.73 1388.08 345.86 1385.57 345.25C1382.5 344.5 1379.36 344.03 1376.23 343.6C1371.72 342.98 1367.18 342.54 1362.64 342.26C1358.52 342.01 1350.26 341.97 1350.26 341.97C1350.26 341.97 1342.01 342.01 1337.88 342.26C1333.34 342.54 1328.8 342.98 1324.29 343.6C1321.16 344.03 1318.02 344.5 1314.95 345.25C1312.44 345.86 1309.98 346.73 1307.54 347.58C1304.62 348.6 1298.88 350.88 1298.88 350.88M1292.09 408.68C1292.09 408.68 1300.52 405.84 1304.76 404.51C1309.15 403.15 1313.49 401.6 1317.97 400.63C1323.34 399.46 1328.82 398.89 1334.29 398.3C1339.59 397.73 1350.26 397.13 1350.26 397.13C1350.26 397.13 1360.92 397.73 1366.23 398.3C1371.7 398.89 1377.18 399.46 1382.55 400.63C1387.03 401.6 1391.37 403.15 1395.76 404.51C1400 405.84 1408.43 408.68 1408.43 408.68" /></g><g ><g ><path class="shp6" d="M1193.97 433.94L1242.54 475.56C1242.54 475.56 1240.07 480.95 1239.04 483.72C1238.09 486.27 1237.21 488.87 1236.57 491.52C1235.63 495.43 1234.59 503.42 1234.59 503.42L1177.98 451.56C1178.78 439.71 1185.45 435.49 1193.97 433.94L1193.97 433.94Z" /><path class="shp6" d="M1187.12 459.93L1175.46 472.97L1182.74 479.98L1171.48 490.97L1164.2 483.69L1151.95 496.74L1151.84 512.94L1179.72 534.78L1189.33 527.64L1188.78 512.12L1196.2 516.24L1203.61 511.7L1204.03 525.71L1197.98 521.32L1191.39 529.97L1190.7 545.35L1211.72 564.03L1237.18 541.43L1235.26 534.66L1234.15 528.57L1233.55 516.51L1234.5 503.34L1187.12 459.93Z" /><path class="shp6" d="M1175.46 472.97L1175.16 487.37L1182.67 480.05L1175.46 472.97Z" /><path class="shp7" d="M1212.53 547.4L1211.65 563.85M1152.08 496.61L1179.72 520.22L1188.78 512.12L1181.64 506.08L1189.61 498.52L1195.79 503.88L1202.79 496.74L1211.86 505.53L1203.62 511.98L1211.31 518.99L1204.03 525.72M1195.92 503.74L1196.32 516.16M1189.4 498.72L1189.66 512.6M1179.37 519.91L1179.52 534.62M1191.39 529.98L1212.54 547.69L1234.17 528.71M1202.72 496.81L1203.03 512.06" /><path class="shp6" d="M1370.65 590.09L1393.98 611.49L1399.14 626.57L1369.08 623.37L1351.96 606.44L1333.73 589.55L1254.99 521.33C1254.99 521.33 1256.66 515.04 1257.7 511.96C1259.2 507.49 1260.99 503.13 1262.77 498.77C1263.21 497.67 1264.17 495.51 1264.17 495.51L1352.01 573.39L1370.65 590.09Z" /><path class="shp6" d="M1390.48 593.3C1403.49 611.48 1425.37 628.65 1432.02 636.9C1438.66 645.16 1442.95 653 1433.26 663.56C1423.57 674.12 1412.59 668.13 1403.91 662.32C1395.24 656.51 1380.1 637.7 1358.45 623.26L1390.48 593.3Z" /><path fill-rule="evenodd" class="shp6" d="M1385.58 597.88C1386.74 601.71 1385.86 605.93 1387.32 609.6C1388.77 613.23 1394.05 619.19 1394.05 619.19C1394.05 619.19 1390.69 619.66 1389.12 620.27C1386.85 621.15 1383.39 621.57 1382.8 623.93C1382.29 626 1384.75 627.79 1386.21 629.34C1387.6 630.84 1389.39 631.92 1391.16 632.96C1394.1 634.68 1397.1 636.63 1400.47 637.24C1404.67 637.99 1412.53 632.07 1413.26 636.29C1413.56 638.04 1409.71 636.92 1408.11 637.7C1404.39 639.53 1402.52 643.52 1405.8 646.29C1407.9 648.07 1411.21 647.41 1413.96 647.64C1416.59 647.86 1419.6 646.32 1421.89 647.65C1424.58 649.21 1427.97 652.98 1426.54 655.75C1425.07 658.59 1419.59 658.52 1416.98 656.66C1415.05 655.29 1415.56 652.12 1415.28 649.76C1415.19 649.07 1415.28 648.36 1415.28 647.65M1382.82 623.88L1365.93 616.26" /><path class="shp6" d="M1492.24 772.72C1457.82 772.72 1429.99 744.89 1429.99 710.47C1429.99 676.05 1457.82 648.22 1492.24 648.22C1526.66 648.22 1554.49 676.05 1554.49 710.47C1554.49 744.89 1526.66 772.72 1492.24 772.72Z" /><path class="shp8" d="M1468.94 713.11C1458.21 713.11 1449.51 721.81 1449.51 732.54C1449.51 743.27 1458.21 751.97 1468.94 751.97C1479.67 751.97 1488.37 743.27 1488.37 732.54L1495.1 732.25C1495.1 742.98 1503.8 751.68 1514.53 751.68C1525.26 751.68 1533.96 742.98 1533.96 732.25C1533.96 721.52 1525.26 712.82 1514.53 712.82L1514.83 709.01C1525.56 709.01 1534.26 700.31 1534.26 689.58C1534.26 678.85 1525.56 670.15 1514.83 670.15C1504.1 670.15 1495.4 678.85 1495.4 689.58L1488.66 689C1488.66 678.27 1479.97 669.57 1469.23 669.57C1458.5 669.57 1449.81 678.27 1449.81 689C1449.81 699.73 1458.5 708.43 1469.23 708.43L1468.94 713.11Z" /><path class="shp6" d="M1492.24 701.12C1488.36 701.12 1485.23 697.98 1485.23 694.1C1485.23 690.23 1488.36 687.09 1492.24 687.09C1496.12 687.09 1499.25 690.23 1499.25 694.1C1499.25 697.98 1496.12 701.12 1492.24 701.12Z" /><path class="shp6" d="M1508.9 717.49C1505.02 717.49 1501.88 714.35 1501.88 710.47C1501.88 706.59 1505.02 703.46 1508.9 703.46C1512.77 703.46 1515.91 706.59 1515.91 710.47C1515.91 714.35 1512.77 717.49 1508.9 717.49Z" /><path class="shp6" d="M1492.53 732.39C1488.65 732.39 1485.52 729.25 1485.52 725.38C1485.52 721.5 1488.65 718.36 1492.53 718.36C1496.41 718.36 1499.55 721.5 1499.55 725.38C1499.55 729.25 1496.41 732.39 1492.53 732.39Z" /><path class="shp6" d="M1475.29 717.49C1471.41 717.49 1468.27 714.35 1468.27 710.47C1468.27 706.59 1471.41 703.46 1475.29 703.46C1479.17 703.46 1482.3 706.59 1482.3 710.47C1482.3 714.35 1479.17 717.49 1475.29 717.49Z" /><path fill-rule="evenodd" class="shp8" d="M1491.07 748.04C1493.89 752.8 1497.13 756.33 1501.59 758.56C1494.66 760.82 1486.91 761.32 1480.55 758.56C1485.01 755.69 1488.51 753.3 1491.07 748.04ZM1454.31 709.53C1449.55 712.35 1446.02 715.59 1443.79 720.05C1441.54 713.12 1441.03 705.37 1443.79 699.01C1446.66 703.47 1449.05 706.97 1454.31 709.53ZM1541.27 700.76C1544.03 707.12 1543.53 714.87 1541.27 721.8C1539.04 717.34 1535.51 714.11 1530.75 711.28C1536.01 708.72 1538.4 705.23 1541.27 700.76ZM1482.6 661.96C1488.95 659.2 1496.71 659.7 1503.64 661.96C1499.17 664.19 1495.94 667.72 1493.12 672.48C1490.55 667.22 1487.06 664.83 1482.6 661.96Z" /></g><g ><g ><path class="shp9" d="M1194.07 433.83C1194.07 433.83 1194.41 431.4 1194.07 430.26C1193.52 428.41 1192.35 426.68 1190.91 425.39C1189.69 424.29 1188.12 423.5 1186.52 423.19C1184.78 422.85 1182.93 423.13 1181.23 423.6C1180.07 423.92 1177.99 425.2 1177.99 425.2L1170.86 428.13L1168.21 436.61C1168.21 436.61 1166.69 439.29 1166.33 440.77C1165.94 442.35 1165.65 444.07 1166.05 445.64C1166.52 447.5 1167.6 449.3 1169.07 450.52C1170.43 451.65 1172.26 452.31 1174.02 452.44C1175.38 452.54 1178 451.55 1178 451.55C1178.76 442.62 1182.73 435.8 1194.07 433.83L1194.07 433.83Z" /><path class="shp9" d="M1178.13 425.11L1159.53 416.94L1158.02 418.38L1168.15 436.72C1168.15 436.72 1171 432.52 1172.64 430.61C1174.33 428.64 1178.13 425.11 1178.13 425.11L1178.13 425.11Z" /><path class="shp9" d="M1157.5 422.98C1153.27 422.98 1149.84 419.56 1149.84 415.33C1149.84 411.09 1153.27 407.67 1157.5 407.67C1161.73 407.67 1165.16 411.09 1165.16 415.33C1165.16 419.56 1161.73 422.98 1157.5 422.98Z" /><path class="shp9" d="M1209.77 447.48C1211.4 460.9 1213.29 474.32 1217.46 487.73L1232.38 501.39C1229.2 487.36 1223.52 473.33 1223.56 459.3L1209.77 447.48Z" /><path class="shp9" d="M1232.26 466.76L1191.23 463.7L1204.29 475.66L1241.76 477.28L1242.31 475.37L1232.26 466.76Z" /><path class="shp9" d="M1282.81 512.12C1272.04 516.18 1267.73 522.83 1264.64 529.96C1261.59 530.23 1258.73 530.26 1257.72 527.98C1260.29 511.32 1272.23 506.12 1274.89 505.06C1282.06 503.71 1280.73 509.31 1282.81 512.12Z" /><path class="shp9" d="M1296.02 524.55C1285.25 528.61 1280.94 535.26 1277.85 542.4C1274.8 542.66 1271.94 542.69 1270.93 540.41C1273.5 523.76 1285.43 518.55 1288.1 517.49C1295.27 516.14 1293.94 521.74 1296.02 524.55Z" /><path class="shp9" d="M1446.16 650.25C1442.64 650.15 1438.92 650.97 1438.92 650.97C1439.06 654.82 1437.51 658.93 1433.26 663.56C1429.59 667.56 1425.74 669.18 1421.89 669.34L1421.89 669.35C1421.89 669.35 1420.53 677.82 1423.13 680.51C1426.18 683.66 1436.15 682.37 1436.15 682.37L1437 681.83C1437.94 680 1438.98 678.23 1440.1 676.5C1441.22 674.78 1442.42 673.12 1443.71 671.52C1444.99 669.91 1446.36 668.37 1447.79 666.91C1449.23 665.44 1450.74 664.04 1452.32 662.72L1452.48 662.12C1452.48 662.12 1453.93 654.19 1451.44 651.8C1450.32 650.71 1448.27 650.33 1446.16 651.8L1446.16 650.25Z" /><path class="shp9" d="M1540.17 668.68C1535.48 668.68 1531.69 664.89 1531.69 660.2C1531.69 655.52 1535.48 651.73 1540.17 651.73C1544.85 651.73 1548.64 655.52 1548.64 660.2C1548.64 664.89 1544.85 668.68 1540.17 668.68Z" /><path class="shp9" d="M1543.09 766.88C1538.4 766.88 1534.62 763.09 1534.62 758.4C1534.62 753.71 1538.4 749.93 1543.09 749.93C1547.78 749.93 1551.57 753.71 1551.57 758.4C1551.57 763.09 1547.78 766.88 1543.09 766.88Z" /><path class="shp9" d="M1447.82 772.43C1443.13 772.43 1439.34 768.64 1439.34 763.95C1439.34 759.27 1443.13 755.48 1447.82 755.48C1452.5 755.48 1456.29 759.27 1456.29 763.95C1456.29 768.64 1452.5 772.43 1447.82 772.43Z" /></g></g></g><g ><g ><path class="shp9" d="M1506.79 433.94L1458.23 475.56C1458.23 475.56 1460.69 480.95 1461.72 483.72C1462.67 486.27 1463.55 488.87 1464.19 491.52C1465.13 495.43 1466.18 503.42 1466.18 503.42L1522.79 451.56C1521.98 439.71 1515.32 435.49 1506.79 433.94L1506.79 433.94Z" /><path class="shp9" d="M1513.65 459.93L1525.3 472.97L1518.02 479.98L1529.29 490.97L1536.57 483.69L1548.81 496.74L1548.93 512.94L1521.05 534.78L1511.43 527.64L1511.98 512.12L1504.57 516.24L1497.15 511.7L1496.74 525.71L1502.78 521.32L1509.37 529.97L1510.06 545.35L1489.05 564.03L1463.58 541.43L1465.51 534.66L1466.61 528.57L1467.21 516.51L1466.26 503.34L1513.65 459.93Z" /><path class="shp9" d="M1525.3 472.97L1525.6 487.37L1518.09 480.05L1525.3 472.97Z" /><path class="shp7" d="M1488.23 547.4L1489.11 563.85M1548.68 496.61L1521.05 520.22L1511.98 512.12L1519.12 506.08L1511.16 498.52L1504.98 503.88L1497.97 496.74L1488.91 505.53L1497.14 511.98L1489.46 518.99L1496.74 525.72M1504.84 503.74L1504.44 516.16M1511.37 498.72L1511.11 512.6M1521.39 519.91L1521.25 534.62M1509.37 529.98L1488.22 547.69L1466.59 528.71M1498.04 496.81L1497.73 512.06" /><path class="shp9" d="M1330.11 590.09L1306.79 611.49L1301.62 626.57L1331.69 623.37L1348.81 606.44L1367.03 589.55L1445.77 521.33C1445.77 521.33 1444.1 515.04 1443.07 511.96C1441.57 507.49 1439.77 503.13 1437.99 498.77C1437.55 497.67 1436.59 495.51 1436.59 495.51L1348.75 573.39L1330.11 590.09Z" /><path class="shp9" d="M1310.28 593.3C1297.28 611.48 1275.39 628.65 1268.74 636.9C1262.1 645.16 1257.82 653 1267.5 663.56C1277.19 674.12 1288.17 668.13 1296.85 662.32C1305.52 656.51 1320.66 637.7 1342.31 623.26L1310.28 593.3Z" /><path fill-rule="evenodd" class="shp9" d="M1315.18 597.88C1314.02 601.71 1314.91 605.93 1313.44 609.6C1312 613.23 1306.71 619.19 1306.71 619.19C1306.71 619.19 1310.07 619.66 1311.64 620.27C1313.91 621.15 1317.38 621.57 1317.96 623.93C1318.47 626 1316.01 627.79 1314.56 629.34C1313.16 630.84 1311.37 631.92 1309.61 632.96C1306.66 634.68 1303.66 636.63 1300.3 637.24C1296.09 637.99 1288.24 632.07 1287.51 636.29C1287.2 638.04 1291.05 636.92 1292.65 637.7C1296.37 639.53 1298.24 643.52 1294.96 646.29C1292.86 648.07 1289.55 647.41 1286.8 647.64C1284.17 647.86 1281.16 646.32 1278.87 647.65C1276.18 649.21 1272.79 652.98 1274.22 655.75C1275.69 658.59 1281.17 658.52 1283.79 656.66C1285.72 655.29 1285.2 652.12 1285.49 649.76C1285.57 649.07 1285.49 648.36 1285.49 647.65M1317.95 623.88L1334.83 616.26" /><path class="shp9" d="M1208.52 772.72C1242.95 772.72 1270.77 744.89 1270.77 710.47C1270.77 676.05 1242.95 648.22 1208.52 648.22C1174.1 648.22 1146.27 676.05 1146.27 710.47C1146.27 744.89 1174.1 772.72 1208.52 772.72Z" /><path class="shp8" d="M1231.82 713.11C1242.55 713.11 1251.25 721.81 1251.25 732.54C1251.25 743.27 1242.55 751.97 1231.82 751.97C1221.09 751.97 1212.39 743.27 1212.39 732.54L1205.66 732.25C1205.66 742.98 1196.96 751.68 1186.23 751.68C1175.5 751.68 1166.8 742.98 1166.8 732.25C1166.8 721.52 1175.5 712.82 1186.23 712.82L1185.94 709.01C1175.21 709.01 1166.51 700.31 1166.51 689.58C1166.51 678.85 1175.21 670.15 1185.94 670.15C1196.67 670.15 1205.37 678.85 1205.37 689.58L1212.1 689C1212.1 678.27 1220.8 669.57 1231.53 669.57C1242.26 669.57 1250.96 678.27 1250.96 689C1250.96 699.73 1242.26 708.43 1231.53 708.43L1231.82 713.11Z" /><path class="shp9" d="M1208.52 701.12C1212.4 701.12 1215.54 697.98 1215.54 694.1C1215.54 690.23 1212.4 687.09 1208.52 687.09C1204.64 687.09 1201.51 690.23 1201.51 694.1C1201.51 697.98 1204.64 701.12 1208.52 701.12Z" /><path class="shp9" d="M1191.87 717.49C1195.75 717.49 1198.88 714.35 1198.88 710.47C1198.88 706.59 1195.75 703.46 1191.87 703.46C1187.99 703.46 1184.85 706.59 1184.85 710.47C1184.85 714.35 1187.99 717.49 1191.87 717.49Z" /><path class="shp9" d="M1208.23 732.39C1212.11 732.39 1215.24 729.25 1215.24 725.38C1215.24 721.5 1212.11 718.36 1208.23 718.36C1204.35 718.36 1201.22 721.5 1201.22 725.38C1201.22 729.25 1204.35 732.39 1208.23 732.39Z" /><path class="shp9" d="M1225.48 717.49C1229.36 717.49 1232.49 714.35 1232.49 710.47C1232.49 706.59 1229.36 703.46 1225.48 703.46C1221.6 703.46 1218.46 706.59 1218.46 710.47C1218.46 714.35 1221.6 717.49 1225.48 717.49Z" /><path fill-rule="evenodd" class="shp8" d="M1220.21 758.56C1213.85 761.32 1206.1 760.82 1199.17 758.56C1203.63 756.33 1206.87 752.8 1209.69 748.04C1212.25 753.3 1215.75 755.69 1220.21 758.56ZM1256.97 699.01C1259.73 705.37 1259.23 713.12 1256.97 720.05C1254.74 715.59 1251.21 712.35 1246.45 709.53C1251.71 706.97 1254.1 703.47 1256.97 699.01ZM1170.01 711.28C1165.25 714.11 1161.72 717.34 1159.49 721.8C1157.24 714.87 1156.73 707.12 1159.49 700.76C1162.36 705.23 1164.75 708.72 1170.01 711.28ZM1207.65 672.48C1204.83 667.72 1201.59 664.19 1197.13 661.96C1204.06 659.7 1211.81 659.2 1218.17 661.96C1213.7 664.83 1210.21 667.22 1207.65 672.48Z" /></g><g ><path class="shp6" d="M1506.69 433.83C1506.69 433.83 1506.35 431.4 1506.69 430.26C1507.24 428.41 1508.41 426.68 1509.85 425.39C1511.07 424.29 1512.64 423.5 1514.25 423.19C1515.98 422.85 1517.83 423.13 1519.53 423.6C1520.7 423.92 1522.78 425.2 1522.78 425.2L1529.9 428.13L1532.55 436.61C1532.55 436.61 1534.07 439.29 1534.44 440.77C1534.82 442.35 1535.11 444.07 1534.71 445.64C1534.24 447.5 1533.16 449.3 1531.69 450.52C1530.33 451.65 1528.51 452.31 1526.74 452.44C1525.39 452.54 1522.76 451.55 1522.76 451.55C1522 442.62 1518.03 435.8 1506.69 433.83L1506.69 433.83Z" /><path class="shp6" d="M1522.63 425.11L1541.23 416.94L1542.75 418.38L1532.61 436.72C1532.61 436.72 1529.76 432.52 1528.12 430.61C1526.43 428.64 1522.63 425.11 1522.63 425.11L1522.63 425.11Z" /><path class="shp6" d="M1543.26 422.98C1547.5 422.98 1550.92 419.56 1550.92 415.33C1550.92 411.09 1547.5 407.67 1543.26 407.67C1539.03 407.67 1535.61 411.09 1535.61 415.33C1535.61 419.56 1539.03 422.98 1543.26 422.98Z" /><path class="shp6" d="M1490.99 447.48C1489.36 460.9 1487.48 474.32 1483.3 487.73L1468.39 501.39C1471.57 487.36 1477.24 473.33 1477.2 459.3L1490.99 447.48Z" /><path class="shp6" d="M1468.5 466.76L1509.53 463.7L1496.48 475.66L1459 477.28L1458.45 475.37L1468.5 466.76Z" /><path class="shp6" d="M1417.95 512.12C1428.72 516.18 1433.03 522.83 1436.12 529.96C1439.17 530.23 1442.03 530.26 1443.04 527.98C1440.47 511.32 1428.54 506.12 1425.88 505.06C1418.7 503.71 1420.03 509.31 1417.95 512.12Z" /><path class="shp6" d="M1404.74 524.55C1415.51 528.61 1419.82 535.26 1422.91 542.4C1425.96 542.66 1428.82 542.69 1429.83 540.41C1427.26 523.76 1415.33 518.55 1412.67 517.49C1405.49 516.14 1406.82 521.74 1404.74 524.55Z" /><path class="shp6" d="M1254.61 650.25C1258.13 650.15 1261.84 650.97 1261.84 650.97C1261.7 654.82 1263.26 658.93 1267.51 663.56C1271.17 667.56 1275.03 669.18 1278.87 669.34L1278.87 669.35C1278.87 669.35 1280.24 677.82 1277.63 680.51C1274.58 683.66 1264.61 682.37 1264.61 682.37L1263.77 681.83C1262.82 680 1261.79 678.23 1260.67 676.5C1259.54 674.78 1258.34 673.12 1257.05 671.52C1255.77 669.91 1254.41 668.37 1252.97 666.91C1251.53 665.44 1250.02 664.04 1248.45 662.72L1248.29 662.12C1248.29 662.12 1246.83 654.19 1249.32 651.8C1250.45 650.71 1252.49 650.33 1254.61 651.8L1254.61 650.25Z" /><path class="shp6" d="M1160.59 668.68C1165.28 668.68 1169.07 664.89 1169.07 660.2C1169.07 655.52 1165.28 651.73 1160.59 651.73C1155.91 651.73 1152.12 655.52 1152.12 660.2C1152.12 664.89 1155.91 668.68 1160.59 668.68Z" /><path class="shp6" d="M1157.67 766.88C1162.36 766.88 1166.15 763.09 1166.15 758.4C1166.15 753.71 1162.36 749.93 1157.67 749.93C1152.98 749.93 1149.2 753.71 1149.2 758.4C1149.2 763.09 1152.98 766.88 1157.67 766.88Z" /><path class="shp6" d="M1252.95 772.43C1257.63 772.43 1261.42 768.64 1261.42 763.95C1261.42 759.27 1257.63 755.48 1252.95 755.48C1248.26 755.48 1244.47 759.27 1244.47 763.95C1244.47 768.64 1248.26 772.43 1252.95 772.43Z" /></g></g><g ><g ><path class="shp10" d="M1355.21 564.37C1355.21 566.96 1353.05 567.95 1348.85 567.95C1344.66 567.95 1342.72 566.74 1342.72 564.16C1342.72 561.57 1344.66 560.94 1348.85 560.94C1353.05 560.94 1355.21 561.79 1355.21 564.37Z" /><path class="shp10" d="M1358.28 571.24C1358.28 573.83 1356.12 574.82 1351.92 574.82C1347.73 574.82 1345.79 573.61 1345.79 571.02C1345.79 568.44 1347.73 567.81 1351.92 567.81C1356.12 567.81 1358.28 568.66 1358.28 571.24Z" /><path class="shp10" d="M1359.12 580.17C1358.27 582.61 1355.9 582.84 1351.94 581.46C1347.98 580.08 1346.55 578.29 1347.4 575.85C1348.25 573.41 1350.29 573.45 1354.25 574.84C1358.21 576.22 1359.97 577.73 1359.12 580.17L1359.12 580.17Z" /><path class="shp10" d="M1359.2 586.8C1358.69 589.34 1356.38 589.89 1352.27 589.06C1348.15 588.23 1346.49 586.65 1347 584.12C1347.51 581.59 1349.54 581.35 1353.65 582.18C1357.77 583.01 1359.72 584.27 1359.2 586.8L1359.2 586.8Z" /><path class="shp10" d="M1361.11 594.55C1360.59 597.08 1358.28 597.63 1354.17 596.8C1350.05 595.97 1348.39 594.4 1348.9 591.86C1349.41 589.33 1351.44 589.1 1355.55 589.93C1359.67 590.76 1361.62 592.02 1361.11 594.55L1361.11 594.55Z" /><path class="shp10" d="M1380.43 583.78C1379.19 583.44 1379.32 581.23 1379.67 579.99C1380.2 578.09 1383.68 575.62 1383.68 575.62C1383.68 575.62 1384.53 578.29 1384.14 579.55C1383.58 581.34 1382.24 584.26 1380.43 583.78Z" /><path class="shp10" d="M1375.9 587.72C1374.54 587.42 1374.37 585.07 1374.73 583.73C1375.27 581.65 1379.36 579.25 1379.36 579.25C1379.36 579.25 1380.06 582.15 1379.61 583.49C1379 585.27 1377.73 588.12 1375.9 587.72L1375.9 587.72Z" /><path class="shp10" d="M1370.73 595.2C1368.67 594.66 1368.9 591 1369.45 588.94C1369.91 587.24 1371.24 584.56 1372.95 584.98C1374.95 585.47 1374.92 588.97 1374.44 590.98C1373.99 592.8 1372.54 595.69 1370.73 595.2L1370.73 595.2Z" /><path class="shp10" d="M1364.59 601.05C1362.57 600.61 1361.71 597.38 1362.11 595.35C1362.54 593.22 1364.68 590.36 1366.81 590.83C1368.95 591.3 1369.69 594.84 1369.17 596.97C1368.69 598.96 1366.59 601.49 1364.59 601.05Z" /><path class="shp10" d="M1363.52 604.6C1363.01 607.04 1359.92 607.89 1358.02 607.27C1356.03 606.62 1353.43 603.82 1353.97 601.26C1354.52 598.68 1357.9 597.99 1359.89 598.75C1361.74 599.46 1364.04 602.19 1363.52 604.6Z" /><path class="shp10" d="M1322.71 580.94C1322.71 580.94 1325.17 582.15 1326.23 583.24C1327.35 584.38 1328.69 584.83 1328.01 586.56C1327.33 588.31 1325.21 587.71 1324.11 586.49C1323.09 585.35 1322.71 580.94 1322.71 580.94Z" /><path class="shp10" d="M1334.88 585.15C1337.38 585.65 1337.34 588.57 1336.06 590.36C1334.71 592.23 1330.83 594.67 1328.21 594.14C1325.56 593.61 1325.88 590.42 1327.35 588.55C1328.71 586.8 1332.41 584.65 1334.88 585.15Z" /><path class="shp10" d="M1343.24 590.66C1345.57 591.71 1344.88 594.54 1343.24 596C1341.52 597.54 1337.2 599.06 1334.76 597.97C1332.29 596.86 1333.31 593.82 1335.15 592.32C1336.86 590.91 1340.95 589.64 1343.25 590.66L1343.24 590.66Z" /><path class="shp10" d="M1349.96 595.78C1352.29 596.82 1351.6 599.66 1349.96 601.12C1348.24 602.65 1343.92 604.18 1341.47 603.08C1339.01 601.98 1340.03 598.94 1341.87 597.43C1343.58 596.03 1347.66 594.75 1349.97 595.78L1349.96 595.78Z" /><path class="shp10" d="M1352.23 600.33C1354.52 600.69 1355.14 603.89 1354.43 605.94C1353.68 608.1 1350.84 611.06 1348.43 610.68C1346 610.29 1345.56 606.77 1346.41 604.61C1347.21 602.6 1349.96 599.97 1352.23 600.33L1352.23 600.33Z" /><path class="shp10" d="M1358.05 607.36C1359.95 608.47 1359.5 611.96 1358.25 613.85C1356.92 615.84 1353.52 617.99 1351.52 616.83C1349.51 615.65 1350.21 611.88 1351.63 609.93C1352.95 608.1 1356.17 606.26 1358.05 607.36L1358.05 607.36Z" /><path class="shp10" d="M1316.73 588.21C1318.77 588.03 1320.18 591.07 1320.15 593.29C1320.12 595.62 1318.56 599.25 1316.42 599.43C1314.26 599.62 1312.91 596.21 1313.03 593.86C1313.14 591.66 1314.72 588.39 1316.73 588.21L1316.73 588.21Z" /><path class="shp10" d="M1323.4 594.07C1325.39 594.52 1325.81 597.85 1325.11 599.95C1324.37 602.16 1321.78 605.14 1319.69 604.67C1317.58 604.19 1317.33 600.54 1318.15 598.33C1318.93 596.26 1321.43 593.63 1323.4 594.07L1323.4 594.07Z" /><path class="shp10" d="M1329.58 598.2C1331.94 598.75 1332.44 602.89 1331.61 605.5C1330.74 608.24 1327.67 611.94 1325.19 611.35C1322.69 610.76 1322.39 606.22 1323.37 603.48C1324.29 600.92 1327.25 597.65 1329.58 598.2L1329.58 598.2Z" /><path class="shp10" d="M1334.59 603.26C1336.99 602.95 1338.91 606.65 1339.05 609.39C1339.2 612.26 1337.62 616.8 1335.1 617.12C1332.55 617.45 1330.68 613.3 1330.63 610.39C1330.59 607.67 1332.21 603.57 1334.59 603.26L1334.59 603.26Z" /><path class="shp10" d="M1340.52 607.52C1342.71 607.26 1344.45 610.32 1344.58 612.59C1344.71 614.98 1343.28 618.74 1340.99 619.01C1338.67 619.27 1336.97 615.84 1336.93 613.42C1336.89 611.17 1338.36 607.77 1340.52 607.52L1340.52 607.52Z" /><path class="shp10" d="M1346.66 612.48C1348.85 612.23 1350.59 615.29 1350.72 617.56C1350.85 619.95 1349.42 623.71 1347.13 623.97C1344.81 624.24 1343.11 620.81 1343.07 618.39C1343.03 616.14 1344.5 612.74 1346.66 612.48L1346.66 612.48Z" /><path class="shp10" d="M1384.05 600.42C1382.5 601.79 1379.39 600.57 1378 599.04C1376.53 597.44 1375.5 594.01 1377.13 592.58C1378.78 591.13 1382.07 592.63 1383.48 594.31C1384.8 595.88 1385.59 599.07 1384.05 600.42Z" /><path class="shp10" d="M1380.69 606.56C1379.14 607.93 1376.03 606.71 1374.64 605.18C1373.17 603.58 1372.14 600.15 1373.77 598.72C1375.42 597.27 1378.71 598.77 1380.12 600.45C1381.44 602.02 1382.23 605.21 1380.69 606.56Z" /><path class="shp10" d="M1374.7 611.68C1373.15 613.05 1370.04 611.83 1368.65 610.3C1367.18 608.69 1366.15 605.27 1367.78 603.84C1369.43 602.39 1372.72 603.89 1374.13 605.57C1375.45 607.13 1376.24 610.33 1374.7 611.68Z" /><path class="shp10" d="M1372.49 614.97C1371.94 616.96 1368.68 617.66 1366.68 617.15C1364.57 616.62 1361.82 614.33 1362.39 612.24C1362.97 610.12 1366.54 609.56 1368.65 610.18C1370.61 610.76 1373.03 612.99 1372.49 614.97Z" /><path class="shp10" d="M1363.85 613.53C1365.59 614.75 1365.18 618.6 1364.03 620.68C1362.81 622.86 1359.69 625.23 1357.85 623.95C1356.01 622.65 1356.65 618.51 1357.95 616.36C1359.16 614.35 1362.12 612.33 1363.85 613.53L1363.85 613.53Z" /><path class="shp10" d="M1355.42 618.02C1357.32 619.13 1356.87 622.63 1355.61 624.52C1354.29 626.51 1350.89 628.66 1348.89 627.49C1346.88 626.32 1347.58 622.55 1349 620.59C1350.32 618.77 1353.54 616.93 1355.42 618.02L1355.42 618.02Z" /><path class="shp10" d="M1337.04 630.2C1335.42 631.75 1336.68 635.61 1338.37 637.53C1340.15 639.55 1344.04 641.42 1345.74 639.79C1347.46 638.14 1345.88 634.02 1344.02 632.05C1342.28 630.21 1338.65 628.66 1337.04 630.2L1337.04 630.2Z" /><path class="shp10" d="M1333.53 636.81C1331.9 638.36 1333.17 642.22 1334.86 644.15C1336.64 646.17 1340.52 648.04 1342.23 646.4C1343.95 644.76 1342.37 640.63 1340.5 638.66C1338.76 636.82 1335.14 635.28 1333.53 636.81L1333.53 636.81Z" /><path class="shp10" d="M1332 642.98C1329.91 643.82 1329.66 647.88 1330.52 650.29C1331.42 652.83 1334.34 656 1336.53 655.12C1338.74 654.22 1338.79 649.81 1337.79 647.28C1336.86 644.93 1334.06 642.15 1332 642.98L1332 642.98Z" /><path class="shp10" d="M1326.94 650.11C1324.85 650.95 1324.6 655 1325.46 657.42C1326.36 659.96 1329.27 663.13 1331.46 662.24C1333.67 661.35 1333.73 656.94 1332.73 654.41C1331.79 652.06 1329 649.28 1326.94 650.11L1326.94 650.11Z" /><path class="shp10" d="M1323.28 658.1C1321.08 658.6 1320.19 662.56 1320.66 665.08C1321.15 667.73 1323.52 671.32 1325.82 670.8C1328.15 670.26 1328.9 665.91 1328.31 663.26C1327.76 660.79 1325.44 657.61 1323.28 658.1L1323.28 658.1Z" /><path class="shp10" d="M1318.42 665.75C1316.22 666.24 1315.33 670.2 1315.8 672.73C1316.29 675.37 1318.66 678.97 1320.97 678.44C1323.29 677.91 1324.05 673.56 1323.46 670.91C1322.91 668.44 1320.59 665.25 1318.42 665.75L1318.42 665.75Z" /><path class="shp10" d="M1314.35 673.58C1312.1 673.67 1310.49 677.39 1310.48 679.96C1310.47 682.65 1312.14 686.62 1314.5 686.53C1316.88 686.44 1318.43 682.31 1318.34 679.59C1318.26 677.06 1316.57 673.5 1314.35 673.58L1314.35 673.58Z" /><path class="shp10" d="M1309.39 682.78C1307.14 682.86 1305.53 686.59 1305.52 689.15C1305.51 691.85 1307.18 695.82 1309.54 695.73C1311.92 695.64 1313.47 691.5 1313.38 688.79C1313.3 686.26 1311.61 682.7 1309.39 682.78L1309.39 682.78Z" /><path class="shp10" d="M1303.6 691.35C1301.35 691.44 1299.74 695.16 1299.73 697.73C1299.72 700.42 1301.39 704.39 1303.75 704.3C1306.13 704.21 1307.68 700.08 1307.59 697.36C1307.51 694.83 1305.82 691.27 1303.6 691.35L1303.6 691.35Z" /><path class="shp10" d="M1297.61 698.69C1295.36 698.77 1293.75 702.5 1293.74 705.07C1293.73 707.76 1295.4 711.73 1297.76 711.64C1300.14 711.55 1301.69 707.41 1301.6 704.7C1301.52 702.17 1299.83 698.61 1297.61 698.69L1297.61 698.69Z" /><path class="shp10" d="M1291.41 705.51C1289.16 705.59 1287.55 709.32 1287.54 711.88C1287.53 714.57 1289.2 718.55 1291.56 718.46C1293.94 718.37 1295.49 714.23 1295.4 711.52C1295.32 708.99 1293.63 705.43 1291.41 705.51L1291.41 705.51Z" /><path class="shp10" d="M1284.59 711.09C1282.35 711.17 1280.73 714.9 1280.72 717.46C1280.72 720.16 1282.38 724.13 1284.74 724.04C1287.12 723.95 1288.67 719.81 1288.59 717.1C1288.5 714.57 1286.81 711.01 1284.59 711.09L1284.59 711.09Z" /><path class="shp10" d="M1278.08 717.08C1275.83 717.16 1274.22 720.89 1274.21 723.45C1274.2 726.15 1275.87 730.12 1278.23 730.03C1280.61 729.94 1282.16 725.8 1282.07 723.09C1281.99 720.56 1280.3 717 1278.08 717.08L1278.08 717.08Z" /><path class="shp10" d="M1270.54 720.08L1268.01 729.97C1268.01 729.97 1269.42 733.49 1270.89 733.34C1273.52 733.07 1274.24 729 1274.74 726.4C1275.19 722.36 1270.54 720.08 1270.54 720.08Z" /><path class="shp10" d="M1426.26 726.36C1427.03 729.3 1433.59 731.79 1433.59 731.79L1430.39 718.47C1427.65 718.54 1425.84 724.44 1426.26 726.36L1426.26 726.36Z" /><path class="shp10" d="M1425.68 715.66C1423.59 714.83 1420.62 717.6 1419.58 719.94C1418.5 722.4 1418.43 726.71 1420.63 727.58C1422.84 728.45 1425.92 725.28 1426.93 722.76C1427.87 720.41 1427.75 716.47 1425.68 715.66L1425.68 715.66Z" /><path class="shp10" d="M1418.39 709.76C1416.15 709.64 1414.21 713.21 1413.98 715.77C1413.73 718.45 1415.04 722.55 1417.4 722.67C1419.78 722.79 1421.69 718.81 1421.84 716.1C1421.98 713.57 1420.61 709.88 1418.39 709.76L1418.39 709.76Z" /><path class="shp10" d="M1411.96 703.19C1409.72 703.07 1407.78 706.64 1407.54 709.19C1407.3 711.87 1408.61 715.98 1410.96 716.1C1413.34 716.22 1415.26 712.23 1415.41 709.52C1415.55 707 1414.18 703.3 1411.96 703.19L1411.96 703.19Z" /><path class="shp10" d="M1405.97 695.73C1403.72 695.61 1401.79 699.18 1401.55 701.74C1401.31 704.42 1402.62 708.52 1404.97 708.64C1407.35 708.76 1409.27 704.78 1409.42 702.07C1409.56 699.54 1408.19 695.85 1405.97 695.73L1405.97 695.73Z" /><path class="shp10" d="M1399.84 689.45C1397.59 689.33 1395.66 692.9 1395.42 695.45C1395.17 698.13 1396.48 702.24 1398.84 702.36C1401.22 702.48 1403.13 698.5 1403.28 695.79C1403.42 693.26 1402.06 689.56 1399.84 689.45L1399.84 689.45Z" /><path class="shp10" d="M1394.87 680.83C1392.62 680.71 1390.69 684.28 1390.45 686.83C1390.21 689.51 1391.51 693.62 1393.87 693.74C1396.25 693.86 1398.16 689.88 1398.31 687.17C1398.46 684.64 1397.09 680.94 1394.87 680.83L1394.87 680.83Z" /><path class="shp10" d="M1389.46 673.08C1387.21 672.97 1385.28 676.54 1385.04 679.09C1384.8 681.77 1386.1 685.88 1388.46 686C1390.84 686.11 1392.75 682.13 1392.9 679.42C1393.05 676.9 1391.68 673.2 1389.46 673.08L1389.46 673.08Z" /><path class="shp10" d="M1384.49 664.9C1382.24 664.78 1380.31 668.35 1380.07 670.91C1379.83 673.59 1381.14 677.69 1383.49 677.81C1385.87 677.93 1387.79 673.95 1387.94 671.24C1388.08 668.71 1386.71 665.02 1384.49 664.9L1384.49 664.9Z" /><path class="shp10" d="M1380.11 655.4C1377.86 655.28 1375.93 658.85 1375.69 661.41C1375.45 664.09 1376.75 668.19 1379.11 668.31C1381.49 668.43 1383.4 664.45 1383.55 661.74C1383.7 659.21 1382.33 655.52 1380.11 655.4L1380.11 655.4Z" /><path class="shp10" d="M1375.28 646.78C1373.04 646.66 1371.1 650.23 1370.87 652.79C1370.62 655.47 1371.93 659.57 1374.29 659.69C1376.67 659.81 1378.58 655.83 1378.73 653.12C1378.87 650.59 1377.5 646.9 1375.28 646.78L1375.28 646.78Z" /><path class="shp10" d="M1371.34 636.55C1369.09 636.44 1367.16 640 1366.92 642.56C1366.68 645.24 1367.98 649.34 1370.34 649.46C1372.72 649.58 1374.63 645.6 1374.78 642.89C1374.93 640.36 1373.56 636.67 1371.34 636.55L1371.34 636.55Z" /><path class="shp10" d="M1362.25 626.19C1362.25 626.19 1361.46 638.99 1366.11 639.82C1369 640.33 1371.28 632.66 1371.28 632.66L1362.25 626.19Z" /><path class="shp10" d="M1351.77 773.16C1350.39 774.94 1352.21 778.56 1354.17 780.22C1356.22 781.96 1360.34 783.23 1361.79 781.37C1363.25 779.48 1361.08 775.64 1358.94 773.96C1356.95 772.4 1353.13 771.41 1351.77 773.16L1351.77 773.16Z" /><path class="shp10" d="M1360.55 772.13C1359.17 773.9 1360.99 777.53 1362.95 779.19C1365.01 780.92 1369.12 782.2 1370.57 780.33C1372.03 778.45 1369.86 774.6 1367.72 772.93C1365.73 771.37 1361.92 770.37 1360.55 772.13L1360.55 772.13Z" /><path class="shp10" d="M1369.44 770.37C1368.06 772.15 1369.88 775.78 1371.84 777.43C1373.89 779.17 1378.01 780.44 1379.46 778.58C1380.92 776.69 1378.74 772.85 1376.61 771.17C1374.62 769.61 1370.8 768.62 1369.44 770.37L1369.44 770.37Z" /><path class="shp10" d="M1377.77 769.82C1376.67 771.79 1379.01 775.1 1381.2 776.44C1383.49 777.85 1387.75 778.5 1388.9 776.43C1390.06 774.35 1387.34 770.88 1384.98 769.54C1382.77 768.29 1378.85 767.89 1377.77 769.82L1377.77 769.82Z" /><path class="shp10" d="M1387.38 768.28C1386.28 770.24 1388.62 773.56 1390.81 774.9C1393.1 776.31 1397.36 776.95 1398.51 774.89C1399.67 772.81 1396.95 769.33 1394.59 767.99C1392.38 766.75 1388.46 766.34 1387.38 768.28L1387.38 768.28Z" /><path class="shp10" d="M1395.67 765.81C1394.76 767.86 1397.4 770.95 1399.7 772.08C1402.11 773.27 1406.41 773.52 1407.37 771.36C1408.33 769.18 1405.3 765.97 1402.82 764.86C1400.51 763.82 1396.57 763.78 1395.67 765.81L1395.67 765.81Z" /><path class="shp10" d="M1404.76 763.12C1403.85 765.18 1406.49 768.26 1408.79 769.4C1411.2 770.59 1415.5 770.84 1416.46 768.68C1417.42 766.5 1414.39 763.29 1411.91 762.17C1409.6 761.14 1405.66 761.09 1404.76 763.12L1404.76 763.12Z" /><path class="shp10" d="M1413.8 760.27C1413.01 762.37 1415.83 765.3 1418.2 766.29C1420.68 767.34 1424.99 767.33 1425.81 765.12C1426.64 762.89 1423.43 759.86 1420.89 758.9C1418.52 758 1414.58 758.19 1413.8 760.27L1413.8 760.27Z" /><path class="shp10" d="M1423 757.27C1422.21 759.38 1425.03 762.3 1427.39 763.3C1429.87 764.34 1434.18 764.34 1435.01 762.12C1435.84 759.89 1432.62 756.87 1430.09 755.9C1427.72 755 1423.78 755.19 1423 757.27L1423 757.27Z" /><path class="shp10" d="M1431.89 753.55C1431.1 755.66 1433.91 758.58 1436.28 759.58C1438.76 760.62 1443.07 760.62 1443.89 758.4C1444.73 756.17 1441.51 753.15 1438.97 752.18C1436.6 751.28 1432.67 751.47 1431.89 753.55L1431.89 753.55Z" /><path class="shp10" d="M1441.4 749.63C1440.61 751.73 1443.42 754.65 1445.79 755.65C1448.27 756.7 1452.58 756.69 1453.4 754.48C1454.23 752.24 1451.02 749.22 1448.48 748.26C1446.11 747.36 1442.18 747.55 1441.39 749.63L1441.4 749.63Z" /><path class="shp10" d="M1451 746.52C1450.21 748.63 1453.03 751.55 1455.4 752.55C1457.88 753.6 1462.19 753.59 1463.01 751.38C1463.84 749.14 1460.63 746.12 1458.09 745.16C1455.72 744.26 1451.78 744.44 1451 746.53L1451 746.52Z" /><path class="shp10" d="M1452.14 738.98C1451.35 741.09 1454.17 744.01 1456.53 745.01C1459.01 746.05 1463.32 746.05 1464.15 743.84C1464.98 741.6 1461.76 738.58 1459.23 737.61C1456.86 736.72 1452.92 736.9 1452.14 738.98L1452.14 738.98Z" /><path class="shp10" d="M1450.02 736.74C1450.02 736.74 1456.52 737.7 1457.12 735.36C1457.91 732.26 1449.72 729.24 1449.72 729.24L1450.02 736.74Z" /><path class="shp10" d="M1274.78 756.28C1272.86 757.47 1273.31 761.5 1274.57 763.74C1275.89 766.08 1279.3 768.71 1281.31 767.46C1283.33 766.21 1282.64 761.85 1281.22 759.53C1279.9 757.37 1276.67 755.11 1274.78 756.28L1274.78 756.28Z" /><path class="shp10" d="M1283.87 760C1281.96 761.19 1282.4 765.22 1283.66 767.46C1284.98 769.8 1288.39 772.43 1290.4 771.18C1292.42 769.93 1291.73 765.57 1290.31 763.25C1288.99 761.09 1285.76 758.83 1283.87 760L1283.87 760Z" /><path class="shp10" d="M1292.55 761.35C1290.64 762.53 1291.08 766.57 1292.34 768.8C1293.66 771.14 1297.08 773.77 1299.08 772.53C1301.11 771.27 1300.41 766.91 1298.99 764.6C1297.67 762.44 1294.44 760.18 1292.55 761.35L1292.55 761.35Z" /><path class="shp10" d="M1302.06 763.72C1300.14 764.91 1300.58 768.94 1301.84 771.18C1303.17 773.52 1306.58 776.15 1308.59 774.9C1310.61 773.65 1309.92 769.29 1308.5 766.97C1307.17 764.81 1303.95 762.55 1302.06 763.72L1302.06 763.72Z" /><path class="shp10" d="M1310.63 764.96C1308.72 766.14 1309.16 770.18 1310.42 772.41C1311.75 774.76 1315.16 777.39 1317.16 776.14C1319.19 774.89 1318.49 770.52 1317.08 768.21C1315.75 766.05 1312.52 763.79 1310.63 764.96L1310.63 764.96Z" /><path class="shp10" d="M1319.11 766.72C1317.19 767.9 1317.63 771.94 1318.89 774.17C1320.22 776.51 1323.63 779.15 1325.64 777.9C1327.66 776.64 1326.97 772.28 1325.55 769.97C1324.22 767.81 1321 765.55 1319.11 766.72L1319.11 766.72Z" /><path class="shp10" d="M1327.78 769.09C1325.87 770.28 1326.31 774.31 1327.57 776.55C1328.9 778.89 1332.31 781.52 1334.31 780.28C1336.34 779.02 1335.64 774.66 1334.23 772.34C1332.9 770.19 1329.67 767.93 1327.78 769.09L1327.78 769.09Z" /><path class="shp10" d="M1336.36 770.64C1334.45 771.83 1334.89 775.86 1336.15 778.1C1337.47 780.44 1340.89 783.07 1342.89 781.83C1344.92 780.57 1344.22 776.21 1342.8 773.89C1341.48 771.74 1338.25 769.48 1336.36 770.64L1336.36 770.64Z" /><path class="shp10" d="M1345.15 771.99C1343.23 773.17 1343.67 777.21 1344.93 779.44C1346.26 781.78 1349.67 784.42 1351.68 783.17C1353.7 781.91 1353.01 777.55 1351.59 775.24C1350.26 773.08 1347.04 770.82 1345.15 771.99L1345.15 771.99Z" /><path class="shp10" d="M1249.12 728.4C1247.12 727.38 1243.89 729.83 1242.62 732.06C1241.3 734.41 1240.8 738.69 1242.9 739.76C1245.02 740.85 1248.4 738.01 1249.65 735.6C1250.82 733.35 1251.09 729.42 1249.12 728.4L1249.12 728.4Z" /><path class="shp10" d="M1246.16 736.51C1244.05 735.76 1241.17 738.62 1240.21 741C1239.21 743.5 1239.29 747.81 1241.52 748.6C1243.76 749.39 1246.73 746.12 1247.65 743.57C1248.51 741.19 1248.26 737.26 1246.16 736.51L1246.16 736.51Z" /><path class="shp10" d="M1248.92 743.97C1246.74 743.41 1244.13 746.53 1243.4 748.98C1242.62 751.56 1243.09 755.85 1245.38 756.43C1247.69 757.02 1250.35 753.49 1251.04 750.87C1251.68 748.42 1251.07 744.52 1248.91 743.97L1248.92 743.97Z" /><path class="shp10" d="M1255.94 747.03C1253.78 746.4 1251.07 749.43 1250.26 751.86C1249.4 754.41 1249.73 758.71 1252 759.36C1254.29 760.03 1257.06 756.59 1257.83 753.99C1258.55 751.56 1258.07 747.65 1255.94 747.03L1255.94 747.03Z" /><path class="shp10" d="M1260.52 748.23C1258.33 748.77 1257.53 752.75 1258.05 755.26C1258.59 757.9 1261.04 761.44 1263.33 760.87C1265.64 760.29 1266.31 755.92 1265.66 753.29C1265.06 750.83 1262.67 747.69 1260.52 748.23L1260.52 748.23Z" /><path class="shp10" d="M1268.58 751.22C1266.39 751.77 1265.58 755.75 1266.1 758.26C1266.65 760.89 1269.1 764.44 1271.39 763.86C1273.7 763.28 1274.37 758.92 1273.72 756.28C1273.12 753.82 1270.73 750.69 1268.58 751.22L1268.58 751.22Z" /><path class="shp10" d="M1341.18 624.83C1339.55 626.38 1340.81 630.24 1342.51 632.16C1344.29 634.18 1348.17 636.05 1349.87 634.42C1351.6 632.77 1350.02 628.65 1348.15 626.68C1346.41 624.84 1342.78 623.29 1341.18 624.83L1341.18 624.83Z" /><path class="shp10" d="M1339.28 633.3C1337.65 634.86 1338.92 638.71 1340.61 640.64C1342.39 642.66 1346.27 644.53 1347.98 642.9C1349.7 641.25 1348.12 637.12 1346.25 635.15C1344.51 633.31 1340.89 631.77 1339.28 633.3L1339.28 633.3Z" /><path class="shp10" d="M1339.4 643C1337.77 644.56 1339.04 648.41 1340.73 650.34C1342.51 652.36 1346.39 654.23 1348.1 652.6C1349.82 650.95 1348.24 646.82 1346.37 644.85C1344.63 643.01 1341.01 641.47 1339.4 643L1339.4 643Z" /><path class="shp10" d="M1339.28 653.17C1337.65 654.73 1338.92 658.58 1340.61 660.51C1342.39 662.53 1346.27 664.4 1347.98 662.77C1349.7 661.12 1348.12 657 1346.25 655.02C1344.51 653.19 1340.89 651.64 1339.28 653.17L1339.28 653.17Z" /><path class="shp10" d="M1339.72 663.11C1338.09 664.66 1339.35 668.52 1341.05 670.45C1342.83 672.47 1346.71 674.34 1348.42 672.7C1350.14 671.06 1348.56 666.93 1346.69 664.96C1344.95 663.12 1341.32 661.58 1339.72 663.11L1339.72 663.11Z" /><path class="shp10" d="M1338.11 672.32C1336.48 673.87 1337.75 677.73 1339.44 679.65C1341.22 681.67 1345.1 683.54 1346.81 681.91C1348.53 680.26 1346.95 676.14 1345.08 674.17C1343.34 672.33 1339.72 670.78 1338.11 672.32L1338.11 672.32Z" /><path class="shp10" d="M1339.28 682.55C1337.65 684.1 1338.92 687.96 1340.61 689.88C1342.39 691.9 1346.27 693.77 1347.98 692.14C1349.7 690.49 1348.12 686.37 1346.25 684.4C1344.51 682.56 1340.89 681.01 1339.28 682.55L1339.28 682.55Z" /><path class="shp10" d="M1338.11 690.87C1336.48 692.43 1337.75 696.28 1339.44 698.21C1341.22 700.23 1345.1 702.1 1346.81 700.47C1348.53 698.82 1346.95 694.69 1345.08 692.72C1343.34 690.88 1339.72 689.34 1338.11 690.87L1338.11 690.87Z" /><path class="shp10" d="M1339.28 699.06C1337.65 700.61 1338.92 704.47 1340.61 706.39C1342.39 708.41 1346.27 710.28 1347.98 708.65C1349.7 707 1348.12 702.88 1346.25 700.91C1344.51 699.07 1340.89 697.52 1339.28 699.06L1339.28 699.06Z" /><path class="shp10" d="M1339.28 708.85C1337.65 710.4 1338.92 714.26 1340.61 716.18C1342.39 718.21 1346.27 720.08 1347.98 718.44C1349.7 716.79 1348.12 712.67 1346.25 710.7C1344.51 708.86 1340.89 707.32 1339.28 708.85L1339.28 708.85Z" /><path class="shp10" d="M1338.69 718.49C1337.07 720.05 1338.33 723.9 1340.03 725.83C1341.8 727.85 1345.69 729.72 1347.39 728.09C1349.11 726.44 1347.53 722.31 1345.67 720.34C1343.93 718.5 1340.3 716.96 1338.69 718.49L1338.69 718.49Z" /><path class="shp10" d="M1338.84 727.7C1337.21 729.25 1338.48 733.11 1340.17 735.03C1341.95 737.05 1345.83 738.92 1347.54 737.29C1349.26 735.64 1347.68 731.52 1345.81 729.55C1344.07 727.71 1340.45 726.17 1338.84 727.7L1338.84 727.7Z" /><path class="shp10" d="M1339.13 737.49C1337.5 739.04 1338.77 742.9 1340.46 744.82C1342.24 746.84 1346.12 748.71 1347.83 747.08C1349.55 745.43 1347.97 741.31 1346.1 739.34C1344.37 737.5 1340.74 735.95 1339.13 737.49L1339.13 737.49Z" /><path class="shp10" d="M1339.13 746.99C1337.5 748.54 1338.77 752.4 1340.46 754.32C1342.24 756.34 1346.12 758.21 1347.83 756.58C1349.55 754.93 1347.97 750.81 1346.1 748.84C1344.37 747 1340.74 745.45 1339.13 746.99L1339.13 746.99Z" /><path class="shp10" d="M1338.84 756.48C1337.21 758.04 1338.48 761.9 1340.17 763.82C1341.95 765.84 1345.83 767.71 1347.54 766.08C1349.26 764.43 1347.68 760.31 1345.81 758.33C1344.07 756.5 1340.45 754.95 1338.84 756.48L1338.84 756.48Z" /><path class="shp10" d="M1338.25 766.13C1336.62 767.68 1337.89 771.54 1339.58 773.46C1341.36 775.48 1345.25 777.35 1346.95 775.72C1348.67 774.07 1347.09 769.95 1345.23 767.98C1343.49 766.14 1339.86 764.59 1338.25 766.13L1338.25 766.13Z" /><path class="shp10" d="M1338.25 776.65C1336.62 778.2 1337.89 782.06 1339.58 783.98C1341.36 786.01 1345.25 787.88 1346.95 786.24C1348.67 784.59 1347.09 780.47 1345.23 778.5C1343.49 776.66 1339.86 775.12 1338.25 776.65L1338.25 776.65Z" /><path class="shp10" d="M1337.96 787.61C1336.34 789.16 1337.6 793.02 1339.3 794.94C1341.07 796.96 1344.96 798.83 1346.66 797.2C1348.38 795.55 1346.8 791.43 1344.94 789.46C1343.2 787.62 1339.57 786.07 1337.96 787.61L1337.96 787.61Z" /><path class="shp10" d="M1337.96 797.84C1336.34 799.39 1337.6 803.25 1339.3 805.17C1341.07 807.19 1344.96 809.06 1346.66 807.43C1348.38 805.78 1346.8 801.66 1344.94 799.69C1343.2 797.85 1339.57 796.3 1337.96 797.84L1337.96 797.84Z" /><path class="shp10" d="M1337.96 807.34C1336.34 808.89 1337.6 812.75 1339.3 814.67C1341.07 816.69 1344.96 818.56 1346.66 816.93C1348.38 815.28 1346.8 811.16 1344.94 809.19C1343.2 807.35 1339.57 805.8 1337.96 807.34L1337.96 807.34Z" /><path class="shp10" d="M1337.67 818.01C1336.04 819.56 1337.31 823.42 1339 825.34C1340.78 827.36 1344.66 829.23 1346.37 827.6C1348.09 825.95 1346.51 821.83 1344.65 819.86C1342.91 818.02 1339.28 816.47 1337.67 818.01L1337.67 818.01Z" /><path class="shp10" d="M1361.48 625.53C1362.65 627.31 1360.84 630.73 1359 632.23C1357.06 633.81 1353.28 634.85 1352.05 632.98C1350.81 631.1 1352.95 627.48 1354.95 625.97C1356.82 624.55 1360.32 623.77 1361.48 625.53L1361.48 625.53Z" /><path class="shp10" d="M1362.79 633.27C1363.96 635.05 1362.16 638.47 1360.31 639.97C1358.37 641.56 1354.59 642.6 1353.37 640.73C1352.13 638.84 1354.26 635.23 1356.27 633.71C1358.14 632.29 1361.63 631.51 1362.79 633.27L1362.79 633.27Z" /><path class="shp10" d="M1362.64 641.89C1363.81 643.67 1362.01 647.09 1360.16 648.6C1358.23 650.18 1354.45 651.22 1353.22 649.35C1351.98 647.46 1354.11 643.85 1356.12 642.33C1357.99 640.92 1361.48 640.14 1362.64 641.89L1362.64 641.89Z" /><path class="shp10" d="M1362.5 650.66C1363.67 652.44 1361.86 655.86 1360.02 657.36C1358.08 658.95 1354.3 659.99 1353.07 658.12C1351.84 656.23 1353.97 652.62 1355.97 651.1C1357.84 649.68 1361.34 648.9 1362.5 650.66L1362.5 650.66Z" /><path class="shp10" d="M1362.35 658.7C1363.52 660.48 1361.72 663.9 1359.87 665.4C1357.93 666.99 1354.15 668.03 1352.93 666.16C1351.69 664.27 1353.82 660.66 1355.83 659.14C1357.7 657.72 1361.19 656.94 1362.35 658.7L1362.35 658.7Z" /><path class="shp10" d="M1362.79 667.32C1363.96 669.1 1362.16 672.52 1360.31 674.03C1358.37 675.61 1354.59 676.65 1353.37 674.78C1352.13 672.89 1354.26 669.28 1356.27 667.76C1358.14 666.34 1361.63 665.56 1362.79 667.32L1362.79 667.32Z" /><path class="shp10" d="M1362.2 675.65C1363.38 677.43 1361.57 680.85 1359.73 682.35C1357.79 683.93 1354.01 684.98 1352.78 683.11C1351.54 681.22 1353.68 677.61 1355.68 676.09C1357.55 674.67 1361.05 673.89 1362.21 675.65L1362.2 675.65Z" /><path class="shp10" d="M1361.96 684.51C1363.25 686.35 1361.26 689.89 1359.22 691.44C1357.09 693.08 1352.91 694.16 1351.56 692.22C1350.19 690.27 1352.55 686.53 1354.76 684.96C1356.82 683.5 1360.68 682.69 1361.96 684.51L1361.96 684.51Z" /><path class="shp10" d="M1361.4 692.92C1363.03 694.47 1361.77 698.33 1360.07 700.25C1358.29 702.27 1354.41 704.14 1352.7 702.51C1350.98 700.86 1352.56 696.74 1354.43 694.77C1356.17 692.93 1359.8 691.38 1361.4 692.92L1361.4 692.92Z" /><path class="shp10" d="M1361.7 702.71C1363.32 704.26 1362.06 708.12 1360.36 710.05C1358.59 712.07 1354.7 713.94 1353 712.3C1351.28 710.66 1352.86 706.53 1354.72 704.56C1356.46 702.72 1360.09 701.18 1361.7 702.71L1361.7 702.71Z" /><path class="shp10" d="M1361.84 712.35C1363.47 713.91 1362.21 717.76 1360.51 719.69C1358.73 721.71 1354.85 723.58 1353.15 721.95C1351.43 720.3 1353.01 716.17 1354.87 714.2C1356.61 712.36 1360.24 710.82 1361.85 712.35L1361.84 712.35Z" /><path class="shp10" d="M1361.55 722.73C1363.18 724.28 1361.91 728.14 1360.22 730.07C1358.44 732.09 1354.56 733.96 1352.85 732.32C1351.13 730.68 1352.71 726.55 1354.58 724.58C1356.32 722.74 1359.94 721.2 1361.55 722.73L1361.55 722.73Z" /><path class="shp10" d="M1361.84 732.37C1363.47 733.93 1362.21 737.78 1360.51 739.71C1358.73 741.73 1354.85 743.6 1353.15 741.97C1351.43 740.32 1353.01 736.2 1354.87 734.22C1356.61 732.39 1360.24 730.84 1361.85 732.37L1361.84 732.37Z" /><path class="shp10" d="M1361.55 742.17C1363.18 743.72 1361.91 747.58 1360.22 749.5C1358.44 751.52 1354.56 753.39 1352.85 751.76C1351.13 750.11 1352.71 745.99 1354.58 744.02C1356.32 742.18 1359.94 740.63 1361.55 742.17L1361.55 742.17Z" /><path class="shp10" d="M1361.7 751.95C1363.32 753.51 1362.06 757.36 1360.36 759.29C1358.59 761.31 1354.7 763.18 1353 761.55C1351.28 759.9 1352.86 755.77 1354.72 753.8C1356.46 751.96 1360.09 750.42 1361.7 751.95L1361.7 751.95Z" /><path class="shp10" d="M1361.7 761.89C1363.32 763.44 1362.06 767.3 1360.36 769.22C1358.59 771.25 1354.7 773.12 1353 771.48C1351.28 769.83 1352.86 765.71 1354.72 763.74C1356.46 761.9 1360.09 760.36 1361.7 761.89L1361.7 761.89Z" /><path class="shp10" d="M1361.26 771.83C1362.89 773.38 1361.62 777.24 1359.93 779.17C1358.15 781.19 1354.27 783.06 1352.56 781.42C1350.84 779.78 1352.42 775.65 1354.29 773.68C1356.03 771.84 1359.65 770.3 1361.26 771.83L1361.26 771.83Z" /><path class="shp10" d="M1361.84 780.89C1363.47 782.44 1362.21 786.3 1360.51 788.22C1358.73 790.24 1354.85 792.11 1353.15 790.48C1351.43 788.83 1353.01 784.71 1354.87 782.74C1356.61 780.9 1360.24 779.35 1361.85 780.89L1361.84 780.89Z" /><path class="shp10" d="M1361.84 790.39C1363.47 791.94 1362.21 795.8 1360.51 797.72C1358.73 799.74 1354.85 801.61 1353.15 799.98C1351.43 798.33 1353.01 794.21 1354.87 792.24C1356.61 790.4 1360.24 788.85 1361.85 790.39L1361.84 790.39Z" /><path class="shp10" d="M1361.55 800.62C1363.18 802.17 1361.91 806.03 1360.22 807.95C1358.44 809.97 1354.56 811.84 1352.85 810.21C1351.13 808.56 1352.71 804.44 1354.58 802.47C1356.32 800.63 1359.94 799.08 1361.55 800.62L1361.55 800.62Z" /><path class="shp10" d="M1361.55 810.7C1363.18 812.25 1361.91 816.11 1360.22 818.03C1358.44 820.05 1354.56 821.92 1352.85 820.29C1351.13 818.64 1352.71 814.52 1354.58 812.55C1356.32 810.71 1359.94 809.16 1361.55 810.7L1361.55 810.7Z" /></g><g ><path class="shp10" d="M1345.83 887.16C1355.38 889.82 1361.07 889.68 1368.97 887.37L1360.6 873.94" /><path class="shp9" d="M1364.39 852.56L1349.17 848.65C1349.17 848.65 1349.34 831.76 1358.96 833.23C1366.93 834.46 1364.71 852.6 1364.39 852.56L1364.39 852.56Z" /><path class="shp9" d="M1356.99 833.23C1353.56 833.23 1350.79 830.45 1350.79 827.03C1350.79 823.6 1353.56 820.83 1356.99 820.83C1360.41 820.83 1363.18 823.6 1363.18 827.03C1363.18 830.45 1360.41 833.23 1356.99 833.23Z" /><path fill-rule="evenodd" class="shp10" d="M1345.87 887.19C1343.73 887.19 1337.97 847.23 1358.21 848.22C1376.8 849.13 1370.19 887.54 1368.9 887.36C1367.95 886.59 1366.71 886.01 1365.29 885.61C1368.42 875.99 1366.35 868.63 1362.98 860.09L1365.24 885.59C1359.31 883.9 1350.27 885.07 1345.87 887.19ZM1365.25 885.72C1365.26 885.68 1365.28 885.64 1365.29 885.61C1365.27 885.6 1365.26 885.6 1365.24 885.59L1365.25 885.72Z" /></g><g ><path class="shp10" d="M1329.3 895.84C1338.56 901.72 1347.18 901.19 1355.33 896.05L1336.01 875.9" /><path class="shp9" d="M1342.83 840.56C1339.4 840.56 1336.63 837.79 1336.63 834.36C1336.63 830.93 1339.4 828.16 1342.83 828.16C1346.26 828.16 1349.03 830.93 1349.03 834.36C1349.03 837.79 1346.26 840.56 1342.83 840.56Z" /><path class="shp9" d="M1350.48 854.41L1334.77 854.1C1334.77 854.1 1332.74 841.33 1342.52 840.77C1350.65 840.31 1350.8 854.38 1350.48 854.41Z" /><path fill-rule="evenodd" class="shp10" d="M1355.29 896.16C1352.93 893.19 1335.98 891.92 1329.33 895.97C1326.92 895.97 1320.43 850.93 1343.25 852.04C1364.2 853.06 1356.75 896.37 1355.29 896.16ZM1334.46 868.98C1331.54 879.16 1332.22 887.24 1335.91 893.57L1334.46 868.98ZM1340.45 869.39C1339.62 878.26 1339.93 886.48 1342.93 893.16L1340.45 869.39Z" /></g></g></g></svg>