<svg version="1.2" xmlns="http://www.w3.org/2000/svg" viewBox="0 0 900 600" width="900" height="600">
	<title></title>
	<style>
		.s0 { fill: #00247d } 
		.s1 { fill: none;stroke: #ffffff;stroke-width: 52 } 
		.s2 { fill: none;stroke: #ffffff;stroke-width: 86.7 } 
		.s3 { fill: none;stroke: #cf142b;stroke-width: 52 } 
		.s4 { fill: #ffffff } 
		.s5 { fill: #000000 } 
		.s6 { fill: #ce1126 } 
		.s7 { fill: #de4f40 } 
		.s8 { fill: #ba1b24 } 
		.s9 { fill: #c31525 } 
		.s10 { fill: #aa1921 } 
		.s11 { fill: none;stroke: #1a1a1a;stroke-width: .7 } 
		.s12 { fill: #f3d328 } 
		.s13 { fill: #eac102 } 
		.s14 { fill: none;stroke: #000000;stroke-width: .7 } 
		.s15 { fill: #cccccc } 
		.s16 { fill: #e6e6e6 } 
		.s17 { fill: #f3d328;stroke: #000000;stroke-width: .7 } 
		.s18 { fill: #f3d328;stroke: #1a1a1a;stroke-width: .7 } 
		.s19 { fill: #f7e272 } 
		.s20 { fill: #f4d30d } 
		.s21 { fill: #fcc917 } 
		.s22 { fill: #1d369e } 
		.s23 { fill: #4163ef } 
		.s24 { fill: #2545cb } 
		.s25 { fill: #5674f1 } 
		.s26 { fill: #2ca02c } 
		.s27 { fill: #237f23 } 
		.s28 { fill: #32b532 } 
		.s29 { fill: #6cd66c } 
		.s30 { fill: #d71e1e } 
		.s31 { fill: #9b1616 } 
		.s32 { fill: #e43a3a } 
		.s33 { fill: #ed7676 } 
		.s34 { fill: #cccccc;stroke: #000000;stroke-width: .7 } 
		.s35 { fill: #757369 } 
		.s36 { fill: #333333 } 
	</style>
	<g id="Layer">
		<path id="Layer" class="s0" d="m0 0h450v300h-450z"/>
		<g id="Layer">
			<path id="Layer" class="s1" d="m0 0l450 300m0-300l-450 300"/>
			<path id="Layer" class="s2" d="m225 0v300m-225-150h450"/>
			<path id="Layer" class="s3" d="m225 0v300m-225-150h450"/>
		</g>
		<path id="Layer" class="s0" d="m0 300h900v300h-900zm450-300h450v600h-450z"/>
	</g>
	<g id="layer1">
		<circle id="path3238" class="s4" cx="675" cy="300" r="135"/>
		<path id="path3240" class="s5" d="m581.8 343.7l19-11.1 2.3 3.9-7.5 4.3 4.4 7.5 7.4-4.3 2.3 3.8-19.1 11.1-2.2-3.9 8.3-4.8-4.4-7.5-8.3 4.8z"/>
		<path id="path3242" class="s5" d="m600.6 371l14.7-16.4 12.1 10.9-2.5 2.7-8.8-7.9-3.2 3.7 8.2 7.3-2.5 2.8-8.2-7.4-4 4.5 9.1 8.2-2.4 2.7z"/>
		<path id="path3244" fill-rule="evenodd" class="s5" d="m634.4 370.1l8.1 3.6q2.4 1 3.4 1.7c0.8 0.5 1.4 1.1 1.8 1.8 0.4 0.7 0.7 1.5 0.8 2.3q0.2 1.4-0.4 2.7c-0.5 0.9-1.1 1.7-1.9 2.2q-1.3 0.9-2.9 0.9 1.6 1.4 2 3.1c0.3 1.1 0.2 2.3-0.3 3.4q-0.6 1.4-1.9 2.5-1.1 1-2.6 1.3-1.4 0.2-3.1-0.3c-0.8-0.2-2.4-0.9-5-2l-6.9-3.1zm2.6 5.2l-2 4.6 2.6 1.2c1.6 0.7 2.6 1.1 3 1.2 0.7 0.3 1.4 0.3 2 0q0.8-0.3 1.3-1.2c0.2-0.7 0.3-1.2 0.1-1.8-0.1-0.5-0.6-1-1.2-1.4q-0.6-0.3-3.4-1.6zm-3.6 8l-2.4 5.4 3.8 1.7c1.5 0.6 2.4 1 2.8 1.1 0.7 0.1 1.3 0.1 1.9-0.2q0.8-0.4 1.3-1.4c0.3-0.6 0.3-1.2 0.2-1.8q-0.1-0.8-0.8-1.4-0.7-0.7-3.5-1.9z"/>
		<path id="path3246" fill-rule="evenodd" class="s5" d="m656.8 401.3l2-21.9 9.3 0.8q3.5 0.3 5.1 1.1 1.5 0.7 2.3 2.3c0.6 1 0.8 2.3 0.7 3.5q-0.3 2.5-1.8 4c-1.1 1-2.6 1.5-4.5 1.6q1.3 1 2.2 2.1c0.5 0.7 1.2 2 2.2 3.8l2.2 4.5-5.3-0.5-2.7-5.1q-1.5-2.7-2.1-3.4c-0.3-0.5-0.8-0.8-1.2-1q-0.7-0.3-2.2-0.5h-0.9l-0.8 9.1zm5.5-12.3l3.3 0.3c2.1 0.2 3.4 0.3 4 0.1 0.5-0.1 1-0.4 1.3-0.8 0.4-0.4 0.6-0.9 0.6-1.6q0.1-1.1-0.4-1.8-0.5-0.8-1.6-1.1c-0.3 0-1.4-0.2-3.2-0.3l-3.5-0.3z"/>
		<path id="path3248" class="s5" d="m689.8 401.5l-3.6-21.7 4.4-0.7 3.6 21.6z"/>
		<path id="path3250" fill-rule="evenodd" class="s5" d="m699.9 377.1l7.5-3.4q2.4-1.1 3.9-1.3c1.4-0.2 2.6 0 3.9 0.5 1.2 0.5 2.4 1.3 3.4 2.4 1 1.1 1.9 2.5 2.8 4.4q1.1 2.5 1.3 4.6c0.1 1.7 0 3.2-0.6 4.5q-0.6 1.5-2.1 2.9-1.2 1-3.4 2l-7.6 3.5zm5.5 1.5l6 13.3 3.1-1.3q1.7-0.8 2.3-1.4 0.9-0.7 1.3-1.5 0.4-0.9 0.2-2.4c-0.1-1-0.6-2.4-1.3-3.9q-1-2.3-2-3.4-0.9-1-2-1.4-1.1-0.4-2.3-0.1c-0.7 0.1-1.8 0.6-3.4 1.3z"/>
		<path id="path3252" class="s5" d="m738.1 381.2l-14.8-16.3 12-11 2.5 2.8-8.8 8 3.3 3.6 8.2-7.4 2.5 2.7-8.2 7.4 4.1 4.5 9.1-8.3 2.5 2.7z"/>
		<path id="path3254" class="s5" d="m753 355.7l1.8-4c1.3 0.5 2.5 0.6 3.5 0.3q1.5-0.5 2.5-2.3 1.1-1.9 0.9-3.2-0.3-1.4-1.3-2.1c-0.5-0.2-1-0.3-1.4-0.2q-0.7 0.1-1.7 0.9c-0.4 0.3-1.2 1.2-2.6 2.6q-2.5 2.6-4.4 3.2c-1.7 0.6-3.3 0.4-4.8-0.4q-1.5-0.9-2.3-2.5-0.8-1.5-0.5-3.5 0.2-1.9 1.5-4.1c1.4-2.4 3-3.9 4.7-4.5q2.6-0.9 5.3 0.6l-2.1 3.9c-1-0.4-1.9-0.5-2.7-0.1q-1.1 0.4-2 2c-0.7 1.1-1 2.1-0.9 3 0.1 0.6 0.4 1 0.9 1.3q0.6 0.4 1.4 0.1 1.1-0.4 3.4-2.8 2.3-2.4 3.8-3.3c1-0.7 2-1 3.1-1 1.1-0.1 2.3 0.3 3.5 1 1.1 0.6 1.9 1.5 2.5 2.7q0.9 1.7 0.6 3.8-0.2 2-1.7 4.5-2 3.6-4.8 4.6c-1.9 0.6-4 0.5-6.2-0.5z"/>
		<path id="path3460" class="s5" d="m635.4 229.3l-8.6-20.3 3.9-1.7 14.1 10-5.8-13.5 3.8-1.6 8.6 20.3-4.1 1.7-13.8-9.7 5.7 13.2z"/>
		<path id="path3462" class="s5" d="m667 219.5v-22.1h16.3v3.8h-11.9v4.8h11.1v3.8h-11.1v5.9h12.3v3.8z"/>
		<path id="path3464" class="s5" d="m699.2 222.6l4.1-22.3 4.1 1.9-3.1 15.1 9.9-12.2 4.8 2.2-2.7 15.6 9.3-12.7 4.1 1.8-13.8 18-4.3-1.9 2.6-16.8-10.6 13.3z"/>
		<g id="g8348">
			<g id="g6012">
				<path id="path6014" class="s6" d="m674.1 330.4l-25.4 2.7-10.3-2.7-8-15.3 2.1-7.6c0 0-0.9-2.6-0.9-4 0-2.4 0.3-5 1.7-6.9 1-1.5 3.4-3.4 5.2-3.9 5.2-1.2 9.2 0.9 13.7 3.9 0 0 3.2-2 7.1-3.6 1.4-0.5 3.6-1 4.7-1.3 2.8-0.9 9.8-1.5 9.8-1.5h2.4c0 0 7 0.6 9.8 1.5 1.1 0.3 3.3 0.8 4.7 1.3 3.9 1.6 7.1 3.6 7.1 3.6 4.5-3 8.5-5.1 13.7-3.9 1.8 0.5 4.2 2.4 5.2 3.9 1.4 1.9 1.7 4.5 1.7 6.9 0 1.4-0.9 4-0.9 4l2.1 7.6-8 15.3-10.3 2.7-25.4-2.7z"/>
				<path id="path6016" class="s7" d="m669.6 294.3l-0.2-0.1c0 0-7 0.8-9.9 2.1-3.3 1.6-5.3 3.3-8.4 5.4-1.8 1.2-4 2.8-6.1 3.4-1.5 0.4-3.6 0.1-5.1-0.4-1.2-0.4-2.1-1.2-2.8-2.2-0.7-1-1-2.1-1-3.3 0-1.4 0.2-2.2 0.9-3.4 0.9-1.5 3.9-3.3 5.7-3.2h1l2.6 0.7 5.8 3.2 4-1.8 3.4-1.8 4.4-1.3 5.4-0.7h11.4l5.4 0.7 4.4 1.3 3.4 1.8 4 1.8 5.8-3.2 2.6-0.7h1c1.8-0.1 4.8 1.7 5.7 3.2 0.7 1.2 0.9 2 0.9 3.4 0 1.2-0.3 2.3-1 3.3-0.7 1-1.6 1.8-2.8 2.2-1.5 0.5-3.6 0.8-5.1 0.4-2.1-0.6-4.3-2.2-6.1-3.4-3.1-2.1-5.1-3.8-8.4-5.4-2.9-1.3-9.9-2.1-9.9-2.1l-0.2 0.1z"/>
				<path id="path6018" class="s8" d="m644.6 296c1.4 0.3 2.6 1.6 3.8 1.7l1 0.2 3.4-1.2-4.1 3.3c-1 0.9-2.4 1.7-3.8 1.9-1.6 0.3-3.7 0.5-4.8-0.6-1.9-1.8-1.3-3.5 0.2-4.7 0.6-0.4 1.7-0.7 2.7-0.7 0.6 0 1.2 0 1.6 0.1zm65.1 0.6c1.5 1.2 2.1 2.9 0.2 4.7-1.1 1.1-3.2 0.9-4.8 0.6-1.4-0.2-2.8-1-3.8-1.9l-4.1-3.3 3.4 1.2 1-0.2c1.2-0.1 2.4-1.4 3.8-1.7q0.4-0.1 1-0.1c1.1 0 2.6 0.2 3.3 0.7z"/>
				<path id="path6020" class="s9" d="m672.5 326.4l-16.6 4.2-16.6-0.1-6.9-13.9-0.5-11.9c3.2 4.4 5.6 7.1 15.5 6.2 4-0.6 11.2-5.4 14.9-7.1 4.1-1.9 10.4-3.6 10.4-3.6h4.6c0 0 6.3 1.7 10.4 3.6 3.7 1.7 10.9 6.5 14.9 7.1 9.9 0.9 12.3-1.8 15.5-6.2l-0.5 11.9-6.9 13.9-16.6 0.1-16.6-4.2z"/>
				<path id="path6022" class="s10" d="m672.3 326.5l-18.4 4.7-14.3-0.4-7-13.5-0.6-2.3c0 0 9 6.2 13.3 6.9 5.1 0.8 9.1-0.1 14-1.5 5.5-1.6 15.7-8.8 15.7-8.8 0 0 10.2 7.2 15.7 8.8 4.9 1.4 8.9 2.3 14 1.5 4.3-0.7 13.3-6.9 13.3-6.9l-0.6 2.3-7 13.5-14.3 0.4-18.4-4.7"/>
				<path id="path6024" class="s11" d="m674.1 330.4l-25.4 2.7-10.3-2.7-8-15.3 2.1-7.6c0 0-0.9-2.6-0.9-4 0-2.4 0.3-5 1.7-6.9 1-1.5 3.4-3.4 5.2-3.9 5.2-1.2 9.2 0.9 13.7 3.9 0 0 3.2-2 7.1-3.6 1.4-0.5 3.6-1 4.7-1.3 2.8-0.9 9.8-1.5 9.8-1.5h2.4c0 0 7 0.6 9.8 1.5 1.1 0.3 3.3 0.8 4.7 1.3 3.9 1.6 7.1 3.6 7.1 3.6 4.5-3 8.5-5.1 13.7-3.9 1.8 0.5 4.2 2.4 5.2 3.9 1.4 1.9 1.7 4.5 1.7 6.9 0 1.4-0.9 4-0.9 4l2.1 7.6-8 15.3-10.3 2.7-25.4-2.7z"/>
			</g>
			<g id="g6026">
				<g id="g6028">
					<g id="g6030">
						<path id="path6032" fill-rule="evenodd" class="s12" d="m677.1 271.3c-7.7-0.4-18.8 2.5-27.8 8.8-9 6.3-16 15.8-16.6 29l-6.4-0.3c0.8-15.4 9.1-26.8 19.3-33.9 10.3-7.2 22.3-10.4 31.8-9.9 0 0-0.3 6.3-0.3 6.3z"/>
						<path id="path6034" fill-rule="evenodd" class="s13" d="m629.5 309l3.2 0.1c0.6-13.2 7.6-22.7 16.6-29 9-6.3 20.1-9.2 27.8-8.8l0.2-3.2c-15.2 0.2-44 9.4-47.8 40.9z"/>
						<path id="path6036" class="s14" d="m677.1 271.3c-7.7-0.4-18.8 2.5-27.8 8.8-9 6.3-16 15.8-16.6 29l-6.4-0.3c0.8-15.4 9.1-26.8 19.3-33.9 10.3-7.2 22.3-10.4 31.8-9.9 0 0-0.3 6.3-0.3 6.3z"/>
					</g>
					<g id="g6038">
						<circle id="circle6040" class="s15" cx="622.4" cy="302.4" r="4.6"/>
						<ellipse id="ellipse6042" class="s16" cx="622.1" cy="301.8" rx="3.6" ry="3.5"/>
						<ellipse id="ellipse6044" class="s4" cx="621.5" cy="301.2" rx="2.7" ry="2.7"/>
						<circle id="circle6046" class="s11" cx="622.4" cy="302.4" r="4.6"/>
					</g>
					<g id="g6048">
						<circle id="circle6050" class="s15" cx="625" cy="293.4" r="4.6"/>
						<ellipse id="ellipse6052" class="s16" cx="624.6" cy="292.8" rx="3.6" ry="3.5"/>
						<ellipse id="ellipse6054" class="s4" cx="624" cy="292.1" rx="2.7" ry="2.7"/>
						<circle id="circle6056" class="s11" cx="625" cy="293.4" r="4.6"/>
					</g>
					<g id="g6058">
						<circle id="circle6060" class="s15" cx="629.3" cy="285.2" r="4.6"/>
						<ellipse id="ellipse6062" class="s16" cx="629" cy="284.6" rx="3.6" ry="3.5"/>
						<ellipse id="ellipse6064" class="s4" cx="628.4" cy="284" rx="2.7" ry="2.7"/>
						<circle id="circle6066" class="s11" cx="629.3" cy="285.2" r="4.6"/>
					</g>
					<g id="g6068">
						<circle id="circle6070" class="s15" cx="635.1" cy="277.8" r="4.6"/>
						<ellipse id="ellipse6072" class="s16" cx="634.8" cy="277.2" rx="3.6" ry="3.5"/>
						<ellipse id="ellipse6074" class="s4" cx="634.2" cy="276.6" rx="2.7" ry="2.7"/>
						<circle id="circle6076" class="s11" cx="635.1" cy="277.8" r="4.6"/>
					</g>
					<g id="g6078">
						<circle id="circle6080" class="s15" cx="642.1" cy="271.6" r="4.6"/>
						<ellipse id="ellipse6082" class="s16" cx="641.8" cy="271" rx="3.6" ry="3.5"/>
						<ellipse id="ellipse6084" class="s4" cx="641.2" cy="270.4" rx="2.7" ry="2.7"/>
						<circle id="circle6086" class="s11" cx="642.1" cy="271.6" r="4.6"/>
					</g>
					<g id="g6088">
						<circle id="circle6090" class="s15" cx="650.2" cy="266.7" r="4.6"/>
						<ellipse id="ellipse6092" class="s16" cx="649.9" cy="266.1" rx="3.6" ry="3.5"/>
						<ellipse id="ellipse6094" class="s4" cx="649.3" cy="265.5" rx="2.7" ry="2.7"/>
						<circle id="circle6096" class="s11" cx="650.2" cy="266.7" r="4.6"/>
					</g>
					<g id="g6098">
						<circle id="circle6100" class="s15" cx="658.8" cy="263.1" r="4.6"/>
						<ellipse id="ellipse6102" class="s16" cx="658.5" cy="262.5" rx="3.6" ry="3.5"/>
						<ellipse id="ellipse6104" class="s4" cx="657.9" cy="261.9" rx="2.7" ry="2.7"/>
						<circle id="circle6106" class="s11" cx="658.8" cy="263.1" r="4.6"/>
					</g>
				</g>
				<g id="g6108">
					<g id="g6110">
						<path id="path6112" fill-rule="evenodd" class="s12" d="m672.6 265c9.5-0.5 21.5 2.7 31.8 9.9 10.2 7.1 18.5 18.5 19.3 33.9l-6.4 0.3c-0.6-13.2-7.6-22.7-16.6-29-9-6.3-20.1-9.2-27.8-8.8 0 0-0.3-6.3-0.3-6.3z"/>
						<path id="path6114" fill-rule="evenodd" class="s13" d="m672.7 268.1l0.2 3.2c7.7-0.4 18.8 2.5 27.8 8.8 9 6.3 16 15.8 16.6 29l3.2-0.1c-3.8-31.5-32.6-40.7-47.8-40.9z"/>
						<path id="path6116" class="s14" d="m672.6 265c9.5-0.5 21.5 2.7 31.8 9.9 10.2 7.1 18.5 18.5 19.3 33.9l-6.4 0.3c-0.6-13.2-7.6-22.7-16.6-29-9-6.3-20.1-9.2-27.8-8.8 0 0-0.3-6.3-0.3-6.3z"/>
					</g>
					<g id="g6118">
						<circle id="circle6120" class="s15" cx="727.6" cy="302.4" r="4.6"/>
						<ellipse id="ellipse6122" class="s16" cx="727.9" cy="301.8" rx="3.6" ry="3.5"/>
						<ellipse id="ellipse6124" class="s4" cx="728.5" cy="301.2" rx="2.7" ry="2.7"/>
						<circle id="circle6126" class="s11" cx="727.6" cy="302.4" r="4.6"/>
					</g>
					<g id="g6128">
						<circle id="circle6130" class="s15" cx="725" cy="293.4" r="4.6"/>
						<ellipse id="ellipse6132" class="s16" cx="725.4" cy="292.8" rx="3.6" ry="3.5"/>
						<ellipse id="ellipse6134" class="s4" cx="726" cy="292.1" rx="2.7" ry="2.7"/>
						<circle id="circle6136" class="s11" cx="725" cy="293.4" r="4.6"/>
					</g>
					<g id="g6138">
						<circle id="circle6140" class="s15" cx="720.7" cy="285.2" r="4.6"/>
						<ellipse id="ellipse6142" class="s16" cx="721" cy="284.6" rx="3.6" ry="3.5"/>
						<ellipse id="ellipse6144" class="s4" cx="721.6" cy="284" rx="2.7" ry="2.7"/>
						<circle id="circle6146" class="s11" cx="720.7" cy="285.2" r="4.6"/>
					</g>
					<g id="g6148">
						<circle id="circle6150" class="s15" cx="714.9" cy="277.8" r="4.6"/>
						<ellipse id="ellipse6152" class="s16" cx="715.2" cy="277.2" rx="3.6" ry="3.5"/>
						<ellipse id="ellipse6154" class="s4" cx="715.8" cy="276.6" rx="2.7" ry="2.7"/>
						<circle id="circle6156" class="s11" cx="714.9" cy="277.8" r="4.6"/>
					</g>
					<g id="g6158">
						<circle id="circle6160" class="s15" cx="707.9" cy="271.6" r="4.6"/>
						<ellipse id="ellipse6162" class="s16" cx="708.2" cy="271" rx="3.6" ry="3.5"/>
						<ellipse id="ellipse6164" class="s4" cx="708.8" cy="270.4" rx="2.7" ry="2.7"/>
						<circle id="circle6166" class="s11" cx="707.9" cy="271.6" r="4.6"/>
					</g>
					<g id="g6168">
						<circle id="circle6170" class="s15" cx="699.8" cy="266.7" r="4.6"/>
						<ellipse id="ellipse6172" class="s16" cx="700.1" cy="266.1" rx="3.6" ry="3.5"/>
						<ellipse id="ellipse6174" class="s4" cx="700.7" cy="265.5" rx="2.7" ry="2.7"/>
						<circle id="circle6176" class="s11" cx="699.8" cy="266.7" r="4.6"/>
					</g>
					<g id="g6178">
						<circle id="circle6180" class="s15" cx="691.2" cy="263.1" r="4.6"/>
						<ellipse id="ellipse6182" class="s16" cx="691.5" cy="262.5" rx="3.6" ry="3.5"/>
						<ellipse id="ellipse6184" class="s4" cx="692.1" cy="261.9" rx="2.7" ry="2.7"/>
						<circle id="circle6186" class="s11" cx="691.2" cy="263.1" r="4.6"/>
					</g>
				</g>
			</g>
			<g id="g6188">
				<path id="path6190" fill-rule="evenodd" class="s17" d="m682.5 265.5l3.7 1.1c-1.8 6.8-4.3 21.5-4.9 33.5l-6.3 0.8-6.3-0.8c-0.6-12-3.1-26.7-4.9-33.5l3.7-1.1z"/>
				<g id="g6192">
					<path id="path6194" class="s18" d="m673.2 243c-0.5-2.6-2.9-4.7-5.2-6.8 4.7 0.5 9.4 0.4 14.1 0-2.1 2.2-5.2 4.1-5.4 6.8 2.8-1.2 4.5-3.6 6.7-5.6-0.5 4-0.2 8 0 12-2.1-1.7-3.9-3.8-6.7-4.6 0.8 2.5 2.8 4.4 5.5 6h-14.4c2.4-1.6 4.5-3.5 5.4-6-2.6 0.9-4.5 3.1-6.6 4.8 0.4-4 0.4-8 0-12 2.1 2.1 3.9 4.6 6.6 5.4z"/>
					<g id="g6196">
						<circle id="circle6198" class="s15" cx="675" cy="243.5" r="3.1"/>
						<ellipse id="ellipse6200" class="s16" cx="674.8" cy="243.1" rx="2.4" ry="2.4"/>
						<circle id="ellipse6202" class="s4" cx="674.3" cy="242.7" r="1.8"/>
						<circle id="circle6204" class="s11" cx="675" cy="243.5" r="3.1"/>
					</g>
					<g id="g6206">
						<g id="g6208">
							<circle id="ellipse6210" class="s18" cx="675" cy="259.5" r="8.5"/>
							<ellipse id="ellipse6212" class="s19" cx="673.5" cy="257" rx="4.9" ry="4.7"/>
						</g>
						<path id="path6214" class="s20" d="m675.4 250.1c0.8 0 1.4 0.7 1.4 1.5v5.6h5.7c0.7 0 1.4 0.6 1.4 1.4v0.7c0 0.7-0.7 1.4-1.4 1.4h-14.9c-0.8 0-1.5-0.7-1.5-1.4v-0.7c0-0.8 0.7-1.4 1.5-1.4h5.6v-5.6c0-0.8 0.7-1.5 1.5-1.5z"/>
						<path id="path6216" class="s19" d="m674.7 258.9h-8.5v-0.4l1.2-1.3 5.9 0.1 0.1-6.7 1.6-0.5zm8-1.7l1.2 1v0.8h-7.3v-1.5l0.2-0.4z"/>
						<path id="path6218" class="s11" d="m675.4 250.1c0.8 0 1.4 0.7 1.4 1.5v5.6h5.7c0.7 0 1.4 0.6 1.4 1.4v0.7c0 0.7-0.7 1.4-1.4 1.4h-14.9c-0.8 0-1.5-0.7-1.5-1.4v-0.7c0-0.8 0.7-1.4 1.5-1.4h5.6v-5.6c0-0.8 0.7-1.5 1.5-1.5z"/>
					</g>
				</g>
				<g id="g6220">
					<circle id="circle6222" class="s15" cx="675" cy="270.3" r="4.6"/>
					<ellipse id="ellipse6224" class="s16" cx="674.7" cy="269.7" rx="3.6" ry="3.5"/>
					<ellipse id="ellipse6226" class="s4" cx="674" cy="269.1" rx="2.7" ry="2.7"/>
					<circle id="circle6228" class="s11" cx="675" cy="270.3" r="4.6"/>
				</g>
				<g id="g6230">
					<circle id="circle6232" class="s15" cx="675" cy="276.4" r="4.6"/>
					<ellipse id="ellipse6234" class="s16" cx="674.7" cy="275.8" rx="3.6" ry="3.5"/>
					<ellipse id="ellipse6236" class="s4" cx="674" cy="275.2" rx="2.7" ry="2.7"/>
					<circle id="circle6238" class="s11" cx="675" cy="276.4" r="4.6"/>
				</g>
				<g id="g6240">
					<g id="g6242">
						<g id="g6244">
							<g id="g6246">
							</g>
							<g id="g6248">
							</g>
						</g>
					</g>
					<g id="g6250">
						<g id="g6252">
							<circle id="circle6254" class="s15" cx="675" cy="282.9" r="4.6"/>
							<ellipse id="ellipse6256" class="s16" cx="674.7" cy="282.3" rx="3.6" ry="3.5"/>
							<ellipse id="ellipse6258" class="s4" cx="674" cy="281.7" rx="2.7" ry="2.7"/>
							<circle id="circle6260" class="s11" cx="675" cy="282.9" r="4.6"/>
						</g>
						<g id="g6262">
							<circle id="circle6264" class="s15" cx="675" cy="289.1" r="4.6"/>
							<ellipse id="ellipse6266" class="s16" cx="674.7" cy="288.5" rx="3.6" ry="3.5"/>
							<ellipse id="ellipse6268" class="s4" cx="674" cy="287.9" rx="2.7" ry="2.7"/>
							<circle id="circle6270" class="s11" cx="675" cy="289.1" r="4.6"/>
						</g>
						<g id="g6272">
							<circle id="circle6274" class="s15" cx="675" cy="295.8" r="4.6"/>
							<ellipse id="ellipse6276" class="s16" cx="674.7" cy="295.2" rx="3.6" ry="3.5"/>
							<ellipse id="ellipse6278" class="s4" cx="674" cy="294.6" rx="2.7" ry="2.7"/>
							<circle id="circle6280" class="s11" cx="675" cy="295.8" r="4.6"/>
						</g>
					</g>
				</g>
				<path id="path6282" fill-rule="evenodd" class="s17" d="m670.7 301.8l-3-1.9c-0.6-11.9-4.1-26.3-5.9-32.9l2.9-0.8c2 7.1 5.4 23.4 6 35.6zm17.5-34.8c-1.8 6.6-5.3 21-5.9 32.9l-3 1.9c0.6-12.2 4-28.5 6-35.6z"/>
			</g>
			<g id="g6284">
				<path id="path6286" class="s12" d="m638.8 342.7c0 0-4.8-15.7-8.3-23.2-1.7-3.6-5.1-10.3-5.1-10.3l7-4.1 3.7-0.5c-1.8 4.8-1.7 8.1-1.7 11.6 3.7-0.7 5.4-3.5 7.4-5.5l2.4 10c-3.7-1.6-6.2-0.8-8.6 0.2 0 0 1.5 3 2.7 4.1 1.3 1.2 2.8 1.9 4.5 2.2 1.7 0.3 3.6 0.4 5.1-0.3 3.3-1.6 4.9-5 4.5-4.8 0 0 0.3-3-0.6-4.1-0.6-0.8-1.9-1.4-2.8-1.2-1.6 0.5-2.4 3.9-2.4 3.9 0 0-1.5-2.9-1.9-4.5-0.3-1.5-0.8-3.1-0.2-4.5 0.5-0.9 1.7-1.6 2.8-1.8 1.4-0.3 4 1 4 1 0 0-0.8-2.7-1-4.1-0.1-0.7 0.1-1.7 0.4-2.4 0.6-1.5 2.5-2.8 2.3-2.9-0.3 0 1.9 0.9 2.9 2.2 0.5 0.6 0.9 1.5 0.9 2.2 0.2 1.5 0.1 4.2 0.1 4.2 0 0 2.2-1.9 3.6-2 1.1 0 2.4 0.4 3.1 1.2 1 1.1 0.9 2.8 1 4.3 0 1.7-0.7 4.9-0.7 4.9 0 0-1.7-3.2-3.3-3.2-1 0-2.1 0.9-2.5 1.9-0.5 1.2 0.5 4 0.5 4 6.4 5 12.9-0.1 14.3-5v-1.9c-2.7 0.4-3.8 0.8-6.5 3.9l-0.8-12.4c2.5 2.3 4.7 3.1 7.3 2.7-0.3-3.6-2.1-5.2-5-8.3l2.9-0.9h8.6l2.9 0.9c-2.9 3.1-5 4.7-5.2 8.3 2.6 0.4 4.8-0.4 7.3-2.7l-0.8 12.4c-2.7-3.1-3.8-3.5-6.5-3.9v1.9c1.4 4.9 7.9 10 14.3 5 0 0 1-2.8 0.5-4-0.4-1-1.5-1.9-2.5-1.9-1.6 0-3.3 3.2-3.3 3.2 0 0-0.7-3.2-0.7-4.9 0.1-1.5 0-3.2 1-4.3 0.7-0.8 2-1.2 3-1.2 1.5 0.1 3.7 2 3.7 2 0 0-0.1-2.7 0.1-4.2 0-0.7 0.4-1.6 0.9-2.2 1-1.3 3.1-2.2 2.9-2.2-0.2 0.1 1.7 1.4 2.3 2.9 0.3 0.7 0.5 1.7 0.4 2.4-0.2 1.4-1 4.1-1 4.1 0 0 2.6-1.3 4-1 1.1 0.2 2.3 0.9 2.8 1.8 0.6 1.4 0.1 3-0.2 4.5-0.4 1.6-1.9 4.5-1.9 4.5 0 0-0.8-3.4-2.4-3.9-0.9-0.2-2.2 0.4-2.8 1.2-0.9 1.1-0.6 4.1-0.6 4.1-0.4-0.2 1.2 3.2 4.5 4.8 1.5 0.7 3.4 0.6 5 0.3 1.8-0.3 3.3-1 4.6-2.2 1.2-1.1 2.7-4.1 2.7-4.1-2.4-1-4.9-1.8-8.6-0.2l2.4-10c2 2 3.7 4.8 7.4 5.5 0-3.5 0.1-6.8-1.7-11.6l3.3 0.6 7.4 4c0 0-3.5 6.7-5.1 10.3-3.5 7.5-8.3 23.2-8.3 23.2l-0.1 0.4c-24.6-5.5-48.6-4.9-72.3-0.4z"/>
				<path id="path6288" class="s13" d="m645.8 341.5q-3.5 0.5-7 1.2c0 0-4.8-15.7-8.3-23.2-1.7-3.6-5.1-10.3-5.1-10.3l7-4.1 3.7-0.5c-1.8 4.8-1.7 8.1-1.7 11.6 3.7-0.7 5.4-3.5 7.4-5.5l2.4 10c-3.7-1.6-6.2-0.8-8.6 0.2 0 0 1.5 3 2.7 4.1 1.3 1.2 2.8 1.9 4.5 2.2zm61.4-14.3c1.8-0.3 3.3-1 4.6-2.2 1.2-1 2.7-4 2.7-4-2.4-1-4.9-1.9-8.6-0.2l2.3-10c2 1.9 3.8 4.8 7.5 5.4 0-3.4 0.1-6.8-1.7-11.5l3.3 0.6 7.4 3.9c0 0-3.5 6.8-5.2 10.4-3.4 7.4-8.2 23.1-8.2 23.1l-0.2 0.4q-3.6-0.8-7.1-1.4l-0.3-0.3z"/>
				<path id="path6290" class="s13" d="m637 320.6l-1.7-4.7 2.1-0.8 4.1-4.1 2.6 9.9-3.7-1.1h-1.9z"/>
				<path id="path6292" class="s21" d="m711.3 319.7h-1.9l-3.7 1.1 2.6-9.9 4.1 4.1 2.1 0.9-1.7 4.6z"/>
				<path id="path6294" class="s12" d="m636.2 304.8l-1.7 6-7 2.8-2.5-4.3 8-4.5zm80.7 0l8 4.6-2.5 4.3-7.1-3-1.5-5.9zm-6 9.2l-1.9 5.4-3.2 1.5 2.4-10.1zm-66.7 6.9l-3.2-1.5-1.9-5.4 2.8-3.1z"/>
				<path id="path6296" class="s14" d="m638.8 342.7c0 0-4.8-15.7-8.3-23.2-1.7-3.6-5.1-10.3-5.1-10.3l7-4.1 3.7-0.5c-1.8 4.8-1.7 8.1-1.7 11.6 3.7-0.7 5.4-3.5 7.4-5.5l2.4 10c-3.7-1.6-6.2-0.8-8.6 0.2 0 0 1.5 3 2.7 4.1 1.3 1.2 2.8 1.9 4.5 2.2 1.7 0.3 3.6 0.4 5.1-0.3 3.3-1.6 4.9-5 4.5-4.8 0 0 0.3-3-0.6-4.1-0.6-0.8-1.9-1.4-2.8-1.2-1.6 0.5-2.4 3.9-2.4 3.9 0 0-1.5-2.9-1.9-4.5-0.3-1.5-0.8-3.1-0.2-4.5 0.5-0.9 1.7-1.6 2.8-1.8 1.4-0.3 4 1 4 1 0 0-0.8-2.7-1-4.1-0.1-0.7 0.1-1.7 0.4-2.4 0.6-1.5 1.6-2.3 2.3-3.2 0.8 0.8 1.9 1.2 2.9 2.5 0.5 0.6 0.9 1.5 0.9 2.2 0.2 1.5 0.1 4.2 0.1 4.2 0 0 2.2-1.9 3.6-2 1.1 0 2.4 0.4 3.1 1.2 1 1.1 0.9 2.8 1 4.3 0 1.7-0.7 4.9-0.7 4.9 0 0-1.7-3.2-3.3-3.2-1 0-2.1 0.9-2.5 1.9-0.5 1.2 0.5 4 0.5 4 6.4 5 12.9-0.1 14.3-5v-1.9c-2.7 0.4-3.8 0.8-6.5 3.9l-0.8-12.4c2.5 2.3 4.7 3.1 7.3 2.7-0.3-3.6-2.2-5.1-5.1-8.3l2.9-0.8h8.6l2.9 0.8c-2.9 3.2-4.9 4.7-5.1 8.3 2.6 0.4 4.8-0.4 7.3-2.7l-0.8 12.4c-2.7-3.1-3.8-3.5-6.5-3.9v1.9c1.4 4.9 7.9 10 14.3 5 0 0 1-2.8 0.5-4-0.4-1-1.5-1.9-2.5-1.9-1.6 0-3.3 3.2-3.3 3.2 0 0-0.7-3.2-0.7-4.9 0.1-1.5 0-3.2 1-4.3 0.7-0.8 2-1.2 3-1.2 1.5 0.1 3.7 2 3.7 2 0 0-0.1-2.7 0.1-4.2 0-0.7 0.4-1.6 0.9-2.2 1-1.3 1.6-1.9 2.6-3 0.8 1 2 2.2 2.6 3.7 0.3 0.7 0.5 1.7 0.4 2.4-0.2 1.4-1 4.1-1 4.1 0 0 2.6-1.3 4-1 1.1 0.2 2.3 0.9 2.8 1.8 0.6 1.4 0.1 3-0.2 4.5-0.4 1.6-1.9 4.5-1.9 4.5 0 0-0.8-3.4-2.4-3.9-0.9-0.2-2.2 0.4-2.8 1.2-0.9 1.1-0.6 4.1-0.6 4.1-0.4-0.2 1.2 3.2 4.5 4.8 1.5 0.7 3.4 0.6 5 0.3 1.8-0.3 3.3-1 4.6-2.2 1.2-1.1 2.7-4.1 2.7-4.1-2.4-1-4.9-1.8-8.6-0.2l2.4-10c2 2 3.7 4.8 7.4 5.5 0-3.5 0.1-6.8-1.7-11.6l3.3 0.6 7.4 4c0 0-1.4 2.8-2.9 5.8-0.8 1.6-1.6 3.3-2.2 4.5-3.5 7.5-8.3 23.2-8.3 23.2l-0.1 0.4c-24.6-5.5-48.6-4.9-72.3-0.4z"/>
			</g>
			<g id="g6298">
				<g id="g6300">
					<path id="rect6302" class="s22" d="m669 324.3h12v6.9h-12z"/>
					<path id="path6304" class="s23" d="m670.7 329.8l-0.9 0.1-0.6-0.6v-3.8l1.6-1.2 8.8-0.1 1.4 1.9-0.1 3.3h-1.1l0.1-2-1-1.6-7.4 0.1-0.9 0.7 0.1 3.2q0 0 0 0z"/>
					<path id="path6306" class="s24" d="m669.4 328.2l2 1.4 7 0.1 0.9-0.9 0.1-2.1 1.2-1.8 0.6 1.3-0.3 3.6-1.1 1.6-8.7-0.2-1.8-1.2-0.3-0.7 0.4-1.1q0 0 0 0z"/>
					<path id="rect6308" class="s14" d="m669 324.3h12v6.9h-12z"/>
					<path id="rect6310" class="s25" d="m671.3 326.4h3.8v1.6h-3.8z"/>
				</g>
				<g id="g6312">
					<g id="g6314">
						<g id="g6316">
							<path id="ellipse6318" class="s26" d="m656.1 332.9c-3.1 0.5-6-0.7-6.4-2.5-0.4-1.9 1.8-3.8 4.9-4.3 3.1-0.4 5.9 0.7 6.3 2.6 0.4 1.8-1.7 3.7-4.8 4.2z"/>
							<path id="path6320" class="s27" d="m649.8 330.7c4.8 0.8 8.7 0.5 10.2-3.3l1 1.1v1.6l-2.5 1.9-3 1-3.8-0.6z"/>
							<path id="path6322" class="s28" d="m650.4 328.3l1.9-1.7 3.2-0.7 2.7 0.7c-3.3 0.5-6.3 1.4-8.4 3.2z"/>
							<path id="ellipse6324" class="s14" d="m656.1 332.9c-3.1 0.5-6-0.7-6.4-2.5-0.4-1.9 1.8-3.8 4.9-4.3 3.1-0.4 5.9 0.7 6.3 2.6 0.4 1.8-1.7 3.7-4.8 4.2z"/>
							<ellipse id="ellipse6326" class="s29" cx="653.6" cy="328.6" rx="1.8" ry=".9"/>
						</g>
						<g id="g6328">
							<path id="path6330" class="s30" d="m632.5 334.7c-1-1.3-1-2.3-0.7-3.9 0.3-1.1 1.6-2.3 1.6-2.3l8.8 3.3-5.8 4.4c0 0-3.1-0.4-3.9-1.5z"/>
							<path id="path6332" class="s31" d="m642.2 331.8l-5.6 4.4-3.7-0.9-1.2-1.7c4.8 0.9 7.2-0.9 10.5-1.8z"/>
							<path id="path6334" class="s32" d="m632 330l1.5-1.6 8.3 3.1c-3.5-0.3-6.9-1.9-10.3 0.1z"/>
							<ellipse id="ellipse6336" class="s33" cx="633.7" cy="331.3" rx="1.4" ry="1"/>
							<path id="path6338" class="s14" d="m632.5 334.7c-1-1.3-1-2.3-0.7-3.9 0.3-1.1 1.6-2.3 1.6-2.3l8.8 3.3-5.8 4.4c0 0-3.1-0.4-3.9-1.5z"/>
						</g>
					</g>
					<g id="g6340">
						<g id="g6342">
							<path id="ellipse6344" class="s26" d="m689.1 328.7c0.4-1.9 3.2-3 6.3-2.6 3.1 0.5 5.3 2.4 4.9 4.3-0.4 1.8-3.3 3-6.4 2.5-3.1-0.5-5.2-2.4-4.8-4.2z"/>
							<path id="path6346" class="s27" d="m698.3 332.4l-3.8 0.6-3-1-2.5-1.9v-1.6c2 1.6 2.4 3.8 11.2 2.2z"/>
							<path id="path6348" class="s28" d="m700.2 329.8c-2.1-1.8-6.9-2-10.2-2.5l4.5-1.4 3.2 0.7 1.9 1.7z"/>
							<path id="ellipse6350" class="s14" d="m689.1 328.7c0.4-1.9 3.2-3 6.3-2.6 3.1 0.5 5.3 2.4 4.9 4.3-0.4 1.8-3.3 3-6.4 2.5-3.1-0.5-5.2-2.4-4.8-4.2z"/>
							<ellipse id="ellipse6352" class="s29" cx="693.1" cy="328.4" rx="1.8" ry=".9"/>
						</g>
						<g id="g6354">
							<path id="path6356" class="s30" d="m713.6 336.2l-5.8-4.4 8.8-3.3c0 0 1.3 1.2 1.6 2.3 0.3 1.6 0.3 2.6-0.7 3.9-0.8 1.1-3.9 1.5-3.9 1.5z"/>
							<path id="path6358" class="s31" d="m718.3 333.6l-1.2 1.7-3.7 0.9-5.6-4.4c3.3 0.9 5.7 2.7 10.5 1.8z"/>
							<path id="path6360" class="s32" d="m718.5 331.6c-3.4-2-6.8-0.4-10.3-0.1l8.3-3.1 1.5 1.6z"/>
							<ellipse id="ellipse6362" class="s33" cx="716.3" cy="331.3" rx="1.4" ry="1"/>
							<path id="path6364" class="s14" d="m713.6 336.2l-5.8-4.4 8.8-3.3c0 0 1.3 1.2 1.6 2.3 0.3 1.6 0.3 2.6-0.7 3.9-0.8 1.1-3.9 1.5-3.9 1.5z"/>
						</g>
					</g>
				</g>
			</g>
			<g id="g6366">
				<circle id="circle6368" class="s15" cx="675" cy="311.3" r="3.7"/>
				<ellipse id="ellipse6370" class="s16" cx="674.7" cy="310.8" rx="2.8" ry="2.8"/>
				<ellipse id="ellipse6372" class="s4" cx="674.2" cy="310.3" rx="2.1" ry="2.1"/>
				<circle id="circle6374" class="s14" cx="675" cy="311.3" r="3.7"/>
			</g>
			<g id="g6376">
				<g id="g6378">
					<circle id="circle6380" class="s15" cx="717.1" cy="319.2" r="3.7"/>
					<ellipse id="ellipse6382" class="s16" cx="716.8" cy="318.7" rx="2.8" ry="2.8"/>
					<ellipse id="ellipse6384" class="s4" cx="716.3" cy="318.2" rx="2.1" ry="2.1"/>
					<circle id="circle6386" class="s14" cx="717.1" cy="319.2" r="3.7"/>
				</g>
				<g id="g6388">
					<circle id="circle6390" class="s15" cx="632.9" cy="319.2" r="3.7"/>
					<ellipse id="ellipse6392" class="s16" cx="632.6" cy="318.7" rx="2.8" ry="2.8"/>
					<ellipse id="ellipse6394" class="s4" cx="632.1" cy="318.2" rx="2.1" ry="2.1"/>
					<circle id="circle6396" class="s14" cx="632.9" cy="319.2" r="3.7"/>
				</g>
			</g>
			<g id="g6398">
				<ellipse id="ellipse6400" class="s34" cx="675" cy="349.3" rx="36.8" ry="6.6"/>
				<ellipse id="ellipse6402" class="s35" cx="675" cy="349.3" rx="28.2" ry="3.3"/>
				<g id="g6404">
					<g id="g6406">
						<path id="path6408" class="s4" d="m638.3 340.6c6.7-3 49.3-7.1 73.3 0 3.8 2 2.9 11-1 9.7-23-4.9-46.5-5.4-70.8 0-6.3-0.3-3.5-10-1.5-9.7z"/>
						<path id="path6410" class="s16" d="m636.6 348.6c-1-1.2-0.9-2.7-0.7-1.8 25.4-6 45-8.2 77.9 0-0.5 1.2-1.9 3.9-3.2 3.5-23-4.9-46.5-5.4-70.8 0-0.6-0.2-2.4-0.8-3.2-1.7z"/>
						<path id="path6412" class="s14" d="m638.3 340.6c6.7-3 49.3-7.1 73.3 0 3.8 2 2.9 11-1 9.7-23-4.9-46.5-5.4-70.8 0-6.3-0.3-3.5-10-1.5-9.7z"/>
					</g>
					<g id="g6414">
						<path id="path6416" class="s36" d="m672.4 339.4c0.9 0.1 2 0.5 2.9 0.8 1.5 0.5 3.4 0.8 3.4 0.8l1.9 1c0 0-3.4-0.1-5.1 0.2-1.7 0.4-4.8 1.6-4.8 1.6 0 0 0.4-0.7 0.8-1 0.4-0.4 1.4-0.9 1.4-0.9h-3.5c0 0 1.3-0.7 1.8-0.9 0.6-0.2 1.5-0.4 1.5-0.4l-3-0.8c0 0 1.2-0.3 2.3-0.4q0.2 0 0.4 0zm-12 1.1c1.6 0.3 3.5 0.3 3.5 0.3l2.1 0.8c0 0-3.5 0.4-5.1 0.9-1.6 0.5-4.5 2.2-4.5 2.2 0 0 0.3-0.8 0.6-1.1 0.3-0.4 1.3-1 1.3-1l-3.5 0.4c0 0 1.2-0.9 1.7-1.1 0.6-0.4 1.5-0.7 1.5-0.7l-3.2-0.4c0 0 1.6-0.6 2.7-0.7q0.2 0 0.4 0c0.8 0 1.7 0.3 2.5 0.4zm26.8-0.3c0.9 0.1 1.9 0.7 2.8 1 1.5 0.6 3.3 1 3.3 1l1.9 1.1c0 0-3.5-0.3-5.2 0-1.6 0.2-4.8 1.2-4.8 1.2 0 0 0.5-0.7 0.8-0.9 0.4-0.4 1.5-0.8 1.5-0.8l-3.5-0.2c0 0 1.3-0.7 1.8-0.8 0.7-0.2 1.6-0.4 1.6-0.4l-3-0.9c0 0 1.2-0.3 2.3-0.3q0.3 0 0.5 0zm-41.3 1.6c1.6 0.1 3.5-0.1 3.5-0.1l2.1 0.5c0 0-3.4 0.8-4.9 1.5-1.5 0.7-4.3 2.7-4.3 2.7 0 0 0.3-0.8 0.5-1.2 0.3-0.4 1.2-1.1 1.2-1.1l-3.4 0.8c0 0 1.1-1 1.5-1.3 0.6-0.4 1.4-0.8 1.4-0.8h-3.1c0 0 1.4-0.9 2.5-1.1q0.4 0 0.7 0c0.8-0.1 1.6 0.1 2.3 0.1zm56.1 0.3c0.9 0.1 1.8 0.8 2.6 1.2 1.5 0.7 3.3 1.3 3.3 1.3l1.8 1.3c0 0-3.5-0.6-5.2-0.6-1.7 0.1-4.9 0.8-4.9 0.8 0 0 0.5-0.6 0.9-0.9 0.4-0.3 1.5-0.6 1.5-0.6l-3.4-0.6c0 0 1.4-0.4 1.9-0.5 0.7-0.2 1.6-0.2 1.6-0.2l-2.9-1.3c0 0 0.4 0 1-0.1 0.5 0 1.2 0 1.8 0.2z"/>
						<g id="g6418">
						</g>
						<g id="g6420">
						</g>
					</g>
				</g>
			</g>
		</g>
	</g>
</svg>