<svg version="1.2" baseProfile="tiny-ps" xmlns="http://www.w3.org/2000/svg" viewBox="0 0 450 300" width="900" height="600">
	<style>
		tspan { white-space:pre }
		.shp0 { fill: #ce1126 } 
		.shp1 { fill: #ffffff } 
	</style>
	<path id="Layer" class="shp0" d="M-75 0L525 0L525 300L-75 300L-75 0Z" />
	<path id="star" class="shp1" d="M40 20L52.34 57.99L20.03 34.51L59.97 34.51L27.66 57.99L40 20Z" />
	<path id="star" class="shp1" d="M410 20L422.34 57.99L390.03 34.51L429.97 34.51L397.66 57.99L410 20Z" />
	<path id="star" class="shp1" d="M225 49.5L237.34 87.49L205.03 64.01L244.97 64.01L212.66 87.49L225 49.5Z" />
	<path id="star" class="shp1" d="M40 242L52.34 279.99L20.03 256.51L59.97 256.51L27.66 279.99L40 242Z" />
	<path id="star" class="shp1" d="M410 242L422.34 279.99L390.03 256.51L429.97 256.51L397.66 279.99L410 242Z" />
	<path id="Layer" class="shp1" d="M116.22 111.39C103.06 111.83 98.95 118.77 97.75 127.51L68.88 119.7C60.53 117.35 48.92 117.07 43.81 118.36C24.5 123.23 26.32 136 32.34 144.48C37.37 151.57 55.67 152.96 52.47 131.54C64.46 133.01 75.32 134.4 90.72 139.73L97.34 141.54C97.53 151.92 97.5 161.61 88.91 164.33C107.65 168.47 109.88 157.96 110.28 145.11L213.66 173.45C296.3 194.16 322.77 193.39 358.41 187.11C393.6 180.91 417.96 159.9 425.81 143.86C354.9 207.48 220.47 160.7 220.47 160.7L110.66 131.01C111.29 122.46 113.42 114.79 121.22 111.51C119.42 111.38 117.76 111.34 116.22 111.39Z" />
</svg>